<svg id="Layer_1" xmlns="http://www.w3.org/2000/svg" xmlns:xlink="http://www.w3.org/1999/xlink" viewBox="0 0 300 600"><style>.st0{clip-path:url(#SVGID_00000062156475601145390170000011718032854135778469_);fill:#349946}.st1{fill:#fff}</style><defs><path id="SVGID_1_" d="M42.9 377.4h214.2v45.1H42.9z"/></defs><clipPath id="SVGID_00000104703593955259564290000007736475073773314728_"><use xlink:href="#SVGID_1_" overflow="visible"/></clipPath><path d="M257.1 400c0 12.4-11.7 22.6-25.9 22.6H68.9C54.6 422.6 43 412.4 43 400s11.7-22.6 25.9-22.6h162.3c14.2 0 25.9 10.2 25.9 22.6" clip-path="url(#SVGID_00000104703593955259564290000007736475073773314728_)" fill="#349946"/><g><path class="st1" d="M88.8 407.7l-2.4-9.8-2.4 9.8h-3.2L77 393.3h3.2l2.3 9.8 2.5-9.8h3l2.5 9.9 2.4-9.9H96l-4 14.4h-3.2zM104 393.3l5.4 14.4h-3.3l-1.1-3.2h-5.4l-1.1 3.2h-3.2l5.4-14.4h3.3zm.2 8.8l-1.8-5.3-1.9 5.3h3.7z"/></g><g><path class="st1" d="M107.6 395.9v-2.7h11.8v2.7h-4.3v11.7h-3.2v-11.7h-4.3zM130.3 397.1c-.2-.3-.4-.6-.7-.8-.3-.2-.6-.4-1-.5-.4-.1-.7-.2-1.1-.2-.7 0-1.3.1-1.8.4-.5.3-.9.6-1.2 1.1s-.5 1-.7 1.6c-.1.6-.2 1.2-.2 1.8 0 .6.1 1.2.2 1.8.1.6.4 1.1.7 1.5s.7.8 1.2 1.1 1.1.4 1.8.4c1 0 1.7-.3 2.3-.9.5-.6.9-1.4 1-2.3h3.1c-.1.9-.3 1.7-.6 2.4s-.8 1.3-1.3 1.9-1.2.9-1.9 1.2c-.7.3-1.6.4-2.4.4-1.1 0-2.1-.2-3-.6-.9-.4-1.6-.9-2.2-1.6-.6-.7-1.1-1.5-1.4-2.4-.3-.9-.5-1.9-.5-2.9 0-1.1.2-2.1.5-3s.8-1.7 1.4-2.4 1.3-1.2 2.2-1.6c.9-.4 1.9-.6 3-.6.8 0 1.5.1 2.2.3.7.2 1.3.6 1.9 1 .6.4 1 1 1.4 1.6.4.6.6 1.4.7 2.2h-3.1c-.2-.3-.3-.6-.5-.9zM139.2 393.3v5.5h5.8v-5.5h3.2v14.4H145v-6.2h-5.8v6.2H136v-14.4h3.2zM165.3 407.7l-4.7-14.4h3.2l3.2 10.1 3.2-10.1h3.3l-4.8 14.4h-3.4zM178.1 393.3v14.4h-3.2v-14.4h3.2zM187 393.3c.9 0 1.8.1 2.6.4.8.3 1.5.7 2.1 1.3.6.6 1 1.3 1.4 2.2.3.9.5 1.9.5 3.1 0 1-.1 2-.4 2.9-.3.9-.7 1.7-1.2 2.3s-1.2 1.2-2 1.5c-.8.4-1.8.6-2.9.6h-6.2v-14.4h6.1zm-.2 11.7c.5 0 .9-.1 1.3-.2s.8-.4 1.1-.7.6-.8.8-1.3c.2-.6.3-1.2.3-2 0-.7-.1-1.4-.2-2-.1-.6-.4-1.1-.7-1.5s-.8-.7-1.3-1c-.5-.2-1.2-.3-2-.3H184v9.1h2.8zM206.5 393.3v2.7h-7.6v3.1h7v2.5h-7v3.5h7.8v2.7h-10.9v-14.4h10.7zM208.7 397.5c.3-.9.8-1.7 1.4-2.4.6-.7 1.3-1.2 2.2-1.6s1.9-.6 3-.6 2.1.2 3 .6c.9.4 1.6.9 2.2 1.6.6.7 1.1 1.5 1.4 2.4.3.9.5 1.9.5 3 0 1-.2 2-.5 2.9-.3.9-.8 1.7-1.4 2.4-.6.7-1.3 1.2-2.2 1.6-.9.4-1.9.6-3 .6s-2.1-.2-3-.6c-.9-.4-1.6-.9-2.2-1.6-.6-.7-1.1-1.5-1.4-2.4-.3-.9-.5-1.9-.5-2.9 0-1.1.2-2.1.5-3zm2.9 4.8c.1.6.4 1.1.7 1.5.3.5.7.8 1.2 1.1.5.3 1.1.4 1.8.4s1.3-.1 1.8-.4c.5-.3.9-.6 1.2-1.1s.5-1 .7-1.5c.1-.6.2-1.2.2-1.8 0-.6-.1-1.2-.2-1.8-.1-.6-.4-1.1-.7-1.6s-.7-.8-1.2-1.1c-.5-.3-1.1-.4-1.8-.4s-1.3.1-1.8.4c-.5.3-.9.6-1.2 1.1-.3.5-.5 1-.7 1.6-.1.6-.2 1.2-.2 1.8 0 .6.1 1.2.2 1.8z"/></g></svg>