<svg id="Layer_1" xmlns="http://www.w3.org/2000/svg" viewBox="0 0 300 600"><style>.st0{fill:#393}.st1{fill:#373535}</style><path class="st0" d="M54.5 143.5l8.2 22h-5l-1.7-4.9h-8.2l-1.7 4.9h-4.9l8.3-22h5zm.3 13.5l-2.8-8.1-2.9 8.1h5.7zM85.9 160.9c-.1.9-.5 1.7-1 2.4-.5.8-1.3 1.4-2.2 1.9s-2.3.8-3.9.8c-.9 0-1.8-.1-2.7-.4-.9-.3-1.6-.7-2.3-1.2s-1.2-1.2-1.6-2.1c-.4-.9-.6-1.9-.6-3.1v-1.9H76v1c0 .5 0 1 .1 1.5s.2.8.4 1.2c.2.3.5.6.8.8.4.2.8.3 1.4.3.6 0 1.1-.1 1.5-.3.3-.2.6-.5.8-.9.2-.4.2-.7.3-1.2v-16h4.8v15.1c0 .4-.1 1.2-.2 2.1zM90.1 150c.5-1.4 1.2-2.6 2.1-3.7.9-1 2.1-1.9 3.4-2.5 1.3-.6 2.9-.9 4.5-.9 1.7 0 3.2.3 4.6.9 1.3.6 2.5 1.4 3.4 2.5.9 1 1.6 2.3 2.1 3.7.5 1.4.7 2.9.7 4.6 0 1.6-.2 3.1-.7 4.5-.5 1.4-1.2 2.6-2.1 3.6-.9 1-2.1 1.8-3.4 2.4-1.3.6-2.9.9-4.6.9-1.7 0-3.2-.3-4.5-.9-1.3-.6-2.5-1.4-3.4-2.4-.9-1-1.6-2.2-2.1-3.6s-.7-2.9-.7-4.5c0-1.7.2-3.2.7-4.6zm4.4 7.2c.2.9.6 1.7 1 2.4.5.7 1.1 1.3 1.8 1.7s1.7.6 2.8.6 2-.2 2.8-.6c.8-.4 1.4-1 1.8-1.7.5-.7.8-1.5 1-2.4.2-.9.3-1.8.3-2.7 0-1-.1-1.9-.3-2.8-.2-.9-.6-1.7-1-2.4-.5-.7-1.1-1.3-1.8-1.7-.8-.4-1.7-.6-2.8-.6s-2 .2-2.8.6c-.8.4-1.4 1-1.8 1.7-.5.7-.8 1.5-1 2.4-.2.9-.3 1.8-.3 2.8 0 1 .1 1.9.3 2.7zM130.5 163.8c-1.7 1.4-4 2.2-6.9 2.2-3 0-5.3-.7-6.9-2.2-1.6-1.4-2.4-3.7-2.4-6.7v-13.7h4.8v13.7c0 .6.1 1.2.2 1.8.1.6.3 1.1.6 1.5.3.4.8.8 1.4 1.1.6.3 1.4.4 2.4.4 1.7 0 2.9-.4 3.6-1.2.7-.8 1-2 1-3.6v-13.7h4.8v13.7c-.1 3-1 5.2-2.6 6.7zM149 143.5c1 0 1.9.2 2.7.5.8.3 1.5.8 2 1.3.6.6 1 1.2 1.3 1.9.3.7.4 1.5.4 2.4 0 1.3-.3 2.4-.8 3.4-.5.9-1.4 1.7-2.7 2.2v.1c.6.2 1.1.4 1.5.8.4.3.7.7 1 1.2s.4 1 .5 1.5c.1.6.2 1.1.2 1.7 0 .3 0 .8.1 1.2 0 .5.1 1 .1 1.4.1.5.1 1 .2 1.4.1.4.3.8.5 1.1h-4.8c-.3-.7-.4-1.5-.5-2.5-.1-1-.2-1.9-.3-2.8-.2-1.1-.5-2-1-2.5s-1.4-.8-2.6-.8H142v8.6h-4.8v-22H149zm-1.7 9.9c1.1 0 1.9-.2 2.5-.7.6-.5.8-1.3.8-2.4 0-1.1-.3-1.8-.8-2.3s-1.4-.7-2.5-.7H142v6.2h5.3zM164.2 143.5l9.2 14.8h.1v-14.8h4.5v22h-4.8l-9.1-14.7h-.1v14.7h-4.5v-22h4.7zM198.6 143.5v4.1H187v4.7h10.7v3.8H187v5.4h11.9v4.1h-16.7v-22h16.4zM199.8 143.5h5.4l5.1 8.7 5.1-8.7h5.4l-8.2 13.6v8.4h-4.8v-8.6l-8-13.4zM230.9 154c.4-1 .9-1.9 1.7-2.6.7-.7 1.6-1.3 2.6-1.7s2.1-.6 3.4-.6c1.3 0 2.4.2 3.4.6 1 .4 1.9 1 2.6 1.7.7.7 1.3 1.6 1.7 2.6.4 1 .6 2.2.6 3.5 0 1.3-.2 2.4-.6 3.4-.4 1-.9 1.9-1.7 2.6-.7.7-1.6 1.3-2.6 1.7-1 .4-2.2.6-3.4.6-1.3 0-2.4-.2-3.4-.6-1-.4-1.9-.9-2.6-1.7-.7-.7-1.3-1.6-1.7-2.6-.4-1-.6-2.2-.6-3.4 0-1.3.2-2.4.6-3.5zm3.9 5.4c.1.6.3 1.2.6 1.6.3.5.7.9 1.2 1.2s1.1.4 1.8.4 1.4-.1 1.9-.4c.5-.3.9-.7 1.2-1.2.3-.5.5-1 .6-1.6.1-.6.2-1.2.2-1.9 0-.6-.1-1.3-.2-1.9s-.3-1.2-.6-1.6c-.3-.5-.7-.9-1.2-1.2-.5-.3-1.1-.4-1.9-.4-.7 0-1.4.1-1.8.4-.5.3-.9.7-1.2 1.2-.3.5-.5 1-.6 1.6s-.2 1.2-.2 1.9c.1.6.1 1.3.2 1.9zM247.9 152.5v-2.9h2.6v-1.2c0-1.4.4-2.6 1.3-3.5.9-.9 2.2-1.4 4-1.4h1.2c.4 0 .8.1 1.1.1v3.3c-.5-.1-1-.1-1.6-.1-.6 0-1 .1-1.3.4-.3.3-.4.7-.4 1.4v1h3v2.9h-3v13h-4.4v-13h-2.5z"/><g><path class="st0" d="M50.6 186.3c.1-1 .3-1.9.8-2.6.5-.7 1-1.2 1.7-1.6.7-.4 1.5-.7 2.4-.9.9-.2 1.8-.3 2.6-.3s1.6.1 2.4.2c.8.1 1.6.3 2.2.7.7.3 1.2.8 1.7 1.4.4.6.6 1.4.6 2.3v8.3c0 .7 0 1.4.1 2.1.1.7.2 1.2.4 1.5h-4.4c-.1-.2-.1-.5-.2-.8-.1-.3-.1-.5-.1-.8-.7.7-1.5 1.2-2.5 1.5-.9.3-1.9.4-2.9.4-.8 0-1.5-.1-2.1-.3-.7-.2-1.2-.5-1.7-.9s-.9-.9-1.2-1.5c-.3-.6-.4-1.3-.4-2.1 0-.9.2-1.6.5-2.2.3-.6.7-1.1 1.2-1.4.5-.3 1.1-.6 1.7-.8.6-.2 1.3-.3 2-.4.7-.1 1.3-.2 1.9-.2.6-.1 1.2-.2 1.7-.3.5-.1.9-.3 1.2-.5.3-.2.4-.6.4-1 0-.5-.1-.8-.2-1.1-.2-.3-.4-.5-.6-.6-.3-.2-.6-.3-.9-.3-.3-.1-.7-.1-1.1-.1-.9 0-1.5.2-2 .6s-.8 1-.9 1.8h-4.3zm10.1 3.3c-.2.2-.4.3-.7.4-.3.1-.6.2-.9.2-.3.1-.7.1-1 .2-.3 0-.7.1-1 .2-.3.1-.7.1-1 .2-.3.1-.6.2-.8.4-.2.2-.4.4-.6.7-.1.3-.2.6-.2 1s.1.7.2 1c.1.3.3.5.6.6.2.2.5.3.9.3.3.1.7.1 1 .1.9 0 1.5-.1 2-.4.5-.3.8-.6 1-1 .2-.4.4-.8.4-1.2.1-.4.1-.7.1-1v-1.7zM75.7 179.4v-4.1h18v4.1h-6.6v17.9h-4.8v-17.9h-6.6zM101.1 175.4v8.4h8.9v-8.4h4.8v22H110v-9.5h-8.9v9.5h-4.8v-22h4.8zM118.9 181.9c.5-1.4 1.2-2.6 2.1-3.7.9-1 2.1-1.9 3.4-2.5 1.3-.6 2.9-.9 4.5-.9 1.7 0 3.2.3 4.6.9 1.3.6 2.5 1.4 3.4 2.5.9 1 1.6 2.3 2.1 3.7.5 1.4.7 2.9.7 4.6 0 1.6-.2 3.1-.7 4.5-.5 1.4-1.2 2.6-2.1 3.6-.9 1-2.1 1.8-3.4 2.4-1.3.6-2.9.9-4.6.9-1.7 0-3.2-.3-4.5-.9-1.3-.6-2.5-1.4-3.4-2.4-.9-1-1.6-2.2-2.1-3.6s-.7-2.9-.7-4.5c0-1.7.2-3.2.7-4.6zm4.4 7.2c.2.9.6 1.7 1 2.4.5.7 1.1 1.3 1.8 1.7s1.7.6 2.8.6 2-.2 2.8-.6c.8-.4 1.4-1 1.8-1.7.5-.7.8-1.5 1-2.4.2-.9.3-1.8.3-2.7 0-1-.1-1.9-.3-2.8-.2-.9-.6-1.7-1-2.4-.5-.7-1.1-1.3-1.8-1.7-.8-.4-1.7-.6-2.8-.6s-2 .2-2.8.6c-.8.4-1.4 1-1.8 1.7-.5.7-.8 1.5-1 2.4-.2.9-.3 1.8-.3 2.8 0 1 .1 1.9.3 2.7zM159.2 195.7c-1.7 1.4-4 2.2-6.9 2.2-3 0-5.3-.7-6.9-2.2-1.6-1.4-2.4-3.7-2.4-6.7v-13.7h4.8V189c0 .6.1 1.2.2 1.8.1.6.3 1.1.6 1.5s.8.8 1.4 1.1c.6.3 1.4.4 2.4.4 1.7 0 2.9-.4 3.6-1.2s1-2 1-3.6v-13.7h4.8V189c-.1 3-.9 5.2-2.6 6.7zM169.6 191.9c.3.5.6.9 1.1 1.2s1 .6 1.6.7c.6.2 1.2.2 1.8.2.4 0 .9 0 1.4-.1.5-.1 1-.2 1.4-.4.4-.2.8-.5 1.1-.8.3-.4.4-.8.4-1.4 0-.6-.2-1.1-.6-1.4-.4-.4-.9-.7-1.5-.9-.6-.2-1.3-.5-2.1-.6l-2.4-.6c-.8-.2-1.6-.5-2.4-.8-.8-.3-1.5-.7-2.1-1.2-.6-.5-1.1-1.1-1.5-1.8-.4-.7-.6-1.6-.6-2.6 0-1.1.2-2.1.7-2.9s1.1-1.5 1.9-2.1c.8-.6 1.7-1 2.6-1.2 1-.3 2-.4 3-.4 1.1 0 2.3.1 3.3.4 1.1.3 2 .7 2.8 1.2.8.6 1.5 1.3 2 2.2s.7 2 .7 3.2h-4.7c0-.7-.2-1.2-.4-1.6-.2-.4-.5-.8-.9-1-.4-.2-.8-.4-1.3-.5-.5-.1-1.1-.2-1.6-.2-.4 0-.8 0-1.2.1-.4.1-.7.2-1.1.4-.3.2-.6.5-.8.8-.2.3-.3.7-.3 1.2 0 .4.1.8.2 1 .2.3.5.5 1 .7.5.2 1.1.5 2 .7.9.2 2 .5 3.3.9.4.1 1 .2 1.7.4s1.5.6 2.2 1c.7.5 1.3 1.1 1.9 1.9.5.8.8 1.8.8 3 0 1-.2 1.9-.6 2.8-.4.9-1 1.6-1.7 2.2-.8.6-1.7 1.1-2.9 1.5-1.1.3-2.5.5-4 .5-1.2 0-2.4-.1-3.5-.4s-2.1-.8-3-1.4c-.9-.6-1.6-1.4-2.1-2.4s-.8-2.2-.7-3.5h4.7c0 .9.1 1.5.4 2zM196.9 175.4l8.2 22h-5l-1.7-4.9h-8.2l-1.7 4.9h-4.9l8.3-22h5zm.2 13.5l-2.8-8.1h-.1l-2.9 8.1h5.8zM211.8 175.4l9.2 14.8h.1v-14.8h4.5v22h-4.8l-9.1-14.7h-.1v14.7H207v-22h4.8zM239.3 175.4c1.4 0 2.7.2 4 .7s2.3 1.1 3.2 2c.9.9 1.6 2 2.1 3.4s.8 2.9.8 4.8c0 1.6-.2 3.1-.6 4.4s-1 2.5-1.9 3.5c-.8 1-1.9 1.8-3.1 2.3-1.2.6-2.7.8-4.4.8h-9.5v-22h9.4zm-.3 17.9c.7 0 1.4-.1 2-.3.7-.2 1.2-.6 1.8-1.1.5-.5.9-1.2 1.2-2 .3-.8.5-1.9.5-3.1 0-1.1-.1-2.1-.3-3-.2-.9-.6-1.7-1.1-2.3-.5-.6-1.1-1.1-2-1.5s-1.8-.5-3-.5h-3.4v13.9h4.3z"/></g><g><path class="st0" d="M98 223.8c.3.5.6.9 1.1 1.2.4.3 1 .6 1.6.7.6.2 1.2.2 1.8.2.4 0 .9 0 1.4-.1.5-.1 1-.2 1.4-.4.4-.2.8-.5 1.1-.8.3-.4.4-.8.4-1.4 0-.6-.2-1.1-.6-1.4s-.9-.7-1.5-.9c-.6-.2-1.3-.5-2.1-.6l-2.4-.6c-.8-.2-1.6-.5-2.4-.8-.8-.3-1.5-.7-2.1-1.2-.6-.5-1.1-1.1-1.5-1.8-.4-.7-.6-1.6-.6-2.6 0-1.1.2-2.1.7-2.9s1.1-1.5 1.9-2.1c.8-.6 1.7-1 2.6-1.2 1-.3 2-.4 3-.4 1.1 0 2.3.1 3.3.4 1.1.3 2 .7 2.8 1.2.8.6 1.5 1.3 2 2.2.5.9.7 2 .7 3.2H106c0-.7-.2-1.2-.4-1.6-.2-.4-.5-.8-.9-1-.4-.2-.8-.4-1.3-.5-.5-.1-1.1-.2-1.6-.2-.4 0-.8 0-1.2.1s-.7.2-1.1.4c-.3.2-.6.5-.8.8-.2.3-.3.7-.3 1.2 0 .4.1.8.2 1 .2.3.5.5 1 .7.5.2 1.1.5 2 .7.9.2 2 .5 3.3.9.4.1 1 .2 1.7.4s1.5.6 2.2 1c.7.5 1.3 1.1 1.9 1.9.5.8.8 1.8.8 3 0 1-.2 1.9-.6 2.8-.4.9-1 1.6-1.7 2.2s-1.7 1.1-2.9 1.5c-1.1.3-2.5.5-4 .5-1.2 0-2.4-.1-3.5-.4s-2.1-.8-3-1.4c-.9-.6-1.6-1.4-2.1-2.4s-.8-2.2-.7-3.5h4.7c-.1.9.1 1.5.3 2zM121.1 207.3l5.1 15.1h.1l4.9-15.1h6.8v22h-4.5v-15.6h-.1l-5.4 15.6h-3.7l-5.4-15.4h-.1v15.4h-4.5v-22h6.8zM147.1 207.3v22h-4.8v-22h4.8zM156.2 207.3v17.9h10.7v4.1h-15.6v-22h4.9zM186 207.3v4.1h-11.6v4.7h10.7v3.8h-10.7v5.4h11.9v4.1h-16.7v-22H186zM193.3 223.8c.3.5.6.9 1.1 1.2s1 .6 1.6.7c.6.2 1.2.2 1.8.2.4 0 .9 0 1.4-.1.5-.1 1-.2 1.4-.4.4-.2.8-.5 1.1-.8.3-.4.4-.8.4-1.4 0-.6-.2-1.1-.6-1.4-.4-.4-.9-.7-1.5-.9-.6-.2-1.3-.5-2.1-.6l-2.4-.6c-.8-.2-1.6-.5-2.4-.8-.8-.3-1.5-.7-2.1-1.2-.6-.5-1.1-1.1-1.5-1.8-.4-.7-.6-1.6-.6-2.6 0-1.1.2-2.1.7-2.9s1.1-1.5 1.9-2.1c.8-.6 1.7-1 2.6-1.2 1-.3 2-.4 3-.4 1.1 0 2.3.1 3.3.4 1.1.3 2 .7 2.8 1.2.8.6 1.5 1.3 2 2.2s.7 2 .7 3.2h-4.7c0-.7-.2-1.2-.4-1.6-.2-.4-.5-.8-.9-1-.4-.2-.8-.4-1.3-.5-.5-.1-1.1-.2-1.6-.2-.4 0-.8 0-1.2.1-.4.1-.7.2-1.1.4-.3.2-.6.5-.8.8-.2.3-.3.7-.3 1.2 0 .4.1.8.2 1 .2.3.5.5 1 .7.5.2 1.1.5 2 .7.9.2 2 .5 3.3.9.4.1 1 .2 1.7.4s1.5.6 2.2 1c.7.5 1.3 1.1 1.9 1.9.5.8.8 1.8.8 3 0 1-.2 1.9-.6 2.8-.4.9-1 1.6-1.7 2.2-.8.6-1.7 1.1-2.9 1.5-1.1.3-2.5.5-4 .5-1.2 0-2.4-.1-3.5-.4s-2.1-.8-3-1.4c-.9-.6-1.6-1.4-2.1-2.4s-.8-2.2-.7-3.5h4.7c0 .9.1 1.5.4 2z"/></g><g><path class="st1" d="M58.3 239.8v8h.1c.5-.8 1.3-1.4 2.2-1.8.9-.4 1.9-.6 2.8-.6.8 0 1.6.2 2.4.5s1.5.8 2.1 1.5c.6.7 1.1 1.5 1.5 2.6.4 1.1.6 2.3.6 3.8s-.2 2.7-.6 3.8c-.4 1.1-.9 1.9-1.5 2.6-.6.7-1.3 1.2-2.1 1.5s-1.6.5-2.4.5c-1.2 0-2.2-.2-3.1-.6-.9-.4-1.6-1-2.1-1.9h-.1v2H54v-22h4.3zm7.1 12.1c-.1-.6-.4-1.2-.7-1.6-.3-.5-.7-.8-1.2-1.1-.5-.3-1-.4-1.7-.4-.6 0-1.2.1-1.7.4-.5.3-.9.7-1.2 1.1-.3.5-.5 1-.7 1.6-.1.6-.2 1.3-.2 1.9 0 .7.1 1.3.2 1.9.1.6.4 1.2.7 1.6.3.5.7.8 1.2 1.1.5.3 1 .4 1.7.4s1.2-.1 1.7-.4.8-.7 1.2-1.1c.3-.5.5-1 .7-1.6.1-.6.2-1.3.2-1.9 0-.7 0-1.3-.2-1.9zM77.5 257.9c.7.6 1.6 1 2.8 1 .9 0 1.6-.2 2.3-.7.6-.4 1-.9 1.2-1.4h3.9c-.6 1.9-1.6 3.3-2.8 4.1-1.3.8-2.8 1.2-4.6 1.2-1.3 0-2.4-.2-3.4-.6-1-.4-1.9-1-2.6-1.7-.7-.7-1.2-1.6-1.6-2.6-.4-1-.6-2.2-.6-3.4 0-1.2.2-2.3.6-3.3.4-1 .9-1.9 1.7-2.7.7-.7 1.6-1.3 2.6-1.8 1-.4 2.1-.6 3.3-.6 1.4 0 2.5.3 3.5.8s1.8 1.2 2.5 2.1c.6.9 1.1 1.9 1.4 3 .3 1.1.4 2.3.3 3.5H76.4c.1 1.5.4 2.5 1.1 3.1zm4.9-8.3c-.5-.6-1.3-.9-2.4-.9-.7 0-1.3.1-1.7.4-.5.2-.8.5-1.1.9s-.5.7-.6 1.1-.2.7-.2 1h7.1c-.2-1.1-.6-2-1.1-2.5zM105.5 262.9c-.2.8-.5 1.6-1.1 2.3-.6.7-1.4 1.3-2.5 1.8s-2.5.7-4.4.7c-.8 0-1.6-.1-2.4-.3-.8-.2-1.6-.5-2.2-.9-.7-.4-1.2-.9-1.7-1.6-.4-.6-.7-1.4-.8-2.3h4.3c.2.8.6 1.4 1.2 1.7s1.3.5 2.1.5c1.2 0 2.1-.4 2.7-1.1.6-.7.8-1.7.8-2.8v-2.1h-.1c-.5.8-1.1 1.5-2 1.9-.9.4-1.8.6-2.8.6-1.2 0-2.2-.2-3.1-.6-.9-.4-1.6-1-2.1-1.7-.6-.7-1-1.6-1.2-2.6-.3-1-.4-2-.4-3.1 0-1 .1-2 .4-3 .3-1 .7-1.8 1.3-2.5.6-.7 1.3-1.3 2.1-1.7s1.8-.6 2.9-.6c1 0 2 .2 2.8.6.8.4 1.5 1 2 2h.1V246h4.2v14.9c.2.5.1 1.2-.1 2zm-6-5.3c.5-.2.9-.6 1.2-1 .3-.4.5-.9.7-1.4.2-.5.2-1.1.2-1.6 0-.7-.1-1.3-.2-1.9-.1-.6-.3-1.1-.6-1.6s-.7-.8-1.1-1.1c-.5-.3-1.1-.4-1.8-.4-.6 0-1.1.1-1.6.4-.4.2-.8.6-1.1 1-.3.4-.5.9-.6 1.4-.1.5-.2 1.1-.2 1.7 0 .6.1 1.1.2 1.7.1.6.3 1.1.6 1.5.3.5.6.8 1.1 1.1.5.3 1 .4 1.7.4.5.2 1.1.1 1.5-.2zM109.4 243.4v-3.6h4.4v3.6h-4.4zm4.4 2.4v15.9h-4.4v-15.9h4.4zM121.4 245.8v2.2h.1c.6-.9 1.3-1.6 2.2-2 .9-.4 1.8-.6 2.7-.6 1.2 0 2.1.2 2.9.5.7.3 1.3.8 1.8 1.3.4.6.7 1.3.9 2.1.2.8.3 1.7.3 2.7v9.8h-4.4v-9c0-1.3-.2-2.3-.6-2.9-.4-.6-1.1-1-2.2-1-1.2 0-2.1.4-2.6 1.1-.5.7-.8 1.9-.8 3.5v8.3h-4.4v-15.9h4.1zM139.2 257.8c.2.3.4.6.8.8.3.2.7.4 1.1.5.4.1.8.2 1.2.2.3 0 .6 0 1-.1l.9-.3c.3-.1.5-.4.7-.6.2-.3.3-.6.3-1 0-.7-.4-1.1-1.3-1.5-.9-.3-2.1-.7-3.6-1-.6-.1-1.3-.3-1.9-.5-.6-.2-1.1-.5-1.6-.8-.5-.3-.9-.7-1.1-1.2-.3-.5-.4-1.1-.4-1.8 0-1 .2-1.9.6-2.5.4-.7.9-1.2 1.6-1.6.7-.4 1.4-.6 2.2-.8.8-.2 1.7-.2 2.5-.2.9 0 1.7.1 2.5.2.8.2 1.5.4 2.2.8.6.4 1.2.9 1.6 1.6.4.6.7 1.5.8 2.4h-4.2c-.1-.8-.4-1.4-1-1.7-.6-.3-1.3-.4-2-.4h-.8c-.3 0-.5.1-.8.2-.2.1-.4.3-.6.4-.2.2-.2.5-.2.8 0 .4.1.7.4 1s.7.4 1.1.6c.5.2 1 .3 1.6.4.6.1 1.2.3 1.8.4.6.1 1.3.3 1.9.5.6.2 1.1.5 1.6.8.5.3.9.8 1.1 1.3.3.5.4 1.1.4 1.9 0 1-.2 1.9-.6 2.6-.4.7-1 1.3-1.6 1.7s-1.5.7-2.3.9-1.8.3-2.7.3c-.9 0-1.8-.1-2.7-.3-.9-.2-1.7-.5-2.4-.9s-1.3-1-1.7-1.7c-.4-.7-.7-1.6-.7-2.7h4.2c-.2.6-.1 1 .1 1.3zM174.3 261.8l-2.8-10.7h-.1l-2.7 10.7h-4.5l-5.1-15.9h4.6l2.9 10.8h.1l2.6-10.8h4.2l2.7 10.8h.1l2.9-10.8h4.5l-5 15.9h-4.4zM185.8 243.4v-3.6h4.4v3.6h-4.4zm4.4 2.4v15.9h-4.4v-15.9h4.4zM202.4 245.8v2.9h-3.2v7.9c0 .7.1 1.2.4 1.5.2.2.7.4 1.5.4h.7c.2 0 .4-.1.6-.1v3.4c-.4.1-.8.1-1.2.1h-1.3c-.7 0-1.3 0-1.9-.1-.6-.1-1.1-.3-1.6-.5-.5-.3-.8-.6-1.1-1.1-.3-.5-.4-1.1-.4-1.9v-9.4h-2.6V246h2.6v-4.8h4.4v4.8h3.1zM208.8 239.8v8.3h.1c.6-.9 1.3-1.6 2.1-2 .9-.4 1.7-.6 2.5-.6 1.2 0 2.1.2 2.9.5.7.3 1.3.8 1.8 1.3.4.6.7 1.3.9 2.1.2.8.3 1.7.3 2.7v9.8H215v-9c0-1.3-.2-2.3-.6-2.9s-1.1-1-2.2-1c-1.2 0-2.1.4-2.6 1.1-.5.7-.8 1.9-.8 3.5v8.3h-4.4v-22h4.4zM231.1 250.7c.1-1 .3-1.9.8-2.6.5-.7 1-1.2 1.7-1.6.7-.4 1.5-.7 2.4-.9s1.8-.3 2.6-.3 1.6.1 2.4.2c.8.1 1.6.3 2.2.7.7.3 1.2.8 1.7 1.4.4.6.6 1.4.6 2.3v8.3c0 .7 0 1.4.1 2.1.1.7.2 1.2.4 1.5h-4.4c-.1-.2-.1-.5-.2-.8-.1-.3-.1-.5-.1-.8-.7.7-1.5 1.2-2.5 1.5-.9.3-1.9.4-2.9.4-.8 0-1.5-.1-2.1-.3-.7-.2-1.2-.5-1.7-.9s-.9-.9-1.2-1.5c-.3-.6-.4-1.3-.4-2.1 0-.9.2-1.6.5-2.2.3-.6.7-1.1 1.2-1.4.5-.3 1.1-.6 1.7-.8.6-.2 1.3-.3 2-.4.7-.1 1.3-.2 1.9-.2.6-.1 1.2-.2 1.7-.3.5-.1.9-.3 1.2-.5.3-.2.4-.6.4-1 0-.5-.1-.8-.2-1.1s-.4-.5-.6-.6c-.3-.2-.6-.3-.9-.3s-.7-.1-1.1-.1c-.9 0-1.5.2-2 .6-.5.4-.8 1-.9 1.8h-4.3zm10.1 3.3c-.2.2-.4.3-.7.4-.3.1-.6.2-.9.2s-.7.1-1 .2c-.3 0-.7.1-1 .2-.3.1-.7.1-1 .2-.3.1-.6.2-.8.4s-.4.4-.6.7c-.1.3-.2.6-.2 1s.1.7.2 1c.1.3.3.5.6.6s.5.3.9.3c.3.1.7.1 1 .1.9 0 1.5-.1 2-.4.5-.3.8-.6 1-1 .2-.4.4-.8.4-1.2.1-.4.1-.7.1-1V254z"/></g><g><path class="st1" d="M67.6 290.3c.2.3.4.6.8.8.3.2.7.4 1.1.5.4.1.8.2 1.2.2.3 0 .6 0 1-.1l.9-.3c.3-.2.5-.4.7-.6.2-.3.3-.6.3-1 0-.7-.4-1.1-1.3-1.5-.9-.3-2.1-.7-3.6-1-.6-.1-1.3-.3-1.9-.5-.6-.2-1.1-.5-1.6-.8-.5-.3-.9-.7-1.1-1.2-.3-.5-.4-1.1-.4-1.8 0-1 .2-1.9.6-2.5.4-.7.9-1.2 1.6-1.6.7-.4 1.4-.6 2.2-.8.8-.2 1.7-.2 2.5-.2s1.7.1 2.5.2c.8.2 1.5.4 2.2.8.6.4 1.2.9 1.6 1.6.4.6.7 1.5.8 2.4h-4.2c-.1-.8-.4-1.4-1-1.7-.6-.3-1.3-.4-2-.4h-.8c-.3 0-.5.1-.8.2-.2.1-.4.3-.6.4-.2.2-.2.5-.2.8 0 .4.1.7.4 1s.7.4 1.1.6 1 .3 1.6.4c.6.1 1.2.3 1.8.4.6.1 1.3.3 1.9.5.6.2 1.1.5 1.6.8.5.3.9.8 1.1 1.3.3.5.4 1.1.4 1.9 0 1-.2 1.9-.6 2.6-.4.7-1 1.3-1.6 1.7s-1.5.7-2.3.9c-.9.2-1.8.3-2.7.3-.9 0-1.8-.1-2.7-.3-.9-.2-1.7-.5-2.4-.9s-1.3-1-1.7-1.7c-.4-.7-.7-1.6-.7-2.7h4.2c-.2.5-.1 1 .1 1.3zM80.6 275.9v-3.6H85v3.6h-4.4zm4.4 2.4v15.9h-4.4v-15.9H85zM92.6 278.3v2.2h.1c.6-.9 1.3-1.6 2.2-2 .9-.4 1.8-.6 2.7-.6 1.2 0 2.1.2 2.9.5.7.3 1.3.8 1.8 1.3.4.6.7 1.3.9 2.1.2.8.3 1.7.3 2.7v9.8H99v-9c0-1.3-.2-2.3-.6-2.9-.4-.6-1.1-1-2.2-1-1.2 0-2.1.4-2.6 1.1-.5.7-.8 1.9-.8 3.5v8.3h-4.4v-15.9h4.2zM121.7 295.4c-.2.8-.5 1.6-1.1 2.3-.6.7-1.4 1.3-2.5 1.8s-2.5.7-4.4.7c-.8 0-1.6-.1-2.4-.3-.8-.2-1.6-.5-2.2-.9-.7-.4-1.2-.9-1.7-1.6-.4-.6-.7-1.4-.8-2.3h4.3c.2.8.6 1.4 1.2 1.7s1.3.5 2.1.5c1.2 0 2.1-.4 2.7-1.1.6-.7.8-1.7.8-2.8v-2.1h-.1c-.5.8-1.1 1.5-2 1.9-.9.4-1.8.6-2.8.6-1.2 0-2.2-.2-3.1-.6-.9-.4-1.6-1-2.1-1.7-.6-.7-1-1.6-1.2-2.6-.3-1-.4-2-.4-3.1 0-1 .1-2 .4-3 .3-1 .7-1.8 1.3-2.5.6-.7 1.3-1.3 2.1-1.7s1.8-.6 2.9-.6c1 0 2 .2 2.8.6.8.4 1.5 1 2 2h.1v-2.1h4.2v14.9c.2.5.1 1.2-.1 2zm-6-5.3c.5-.2.9-.6 1.2-1 .3-.4.5-.9.7-1.4.2-.5.2-1.1.2-1.6 0-.7-.1-1.3-.2-1.9-.1-.6-.3-1.1-.6-1.6s-.7-.8-1.1-1.1c-.5-.3-1.1-.4-1.8-.4-.6 0-1.1.1-1.6.4-.4.2-.8.6-1.1 1-.3.4-.5.9-.6 1.4-.1.5-.2 1.1-.2 1.7 0 .6.1 1.1.2 1.7.1.6.3 1.1.6 1.5.3.5.6.8 1.1 1.1.5.3 1 .4 1.7.4.5.2 1.1.1 1.5-.2zM130 272.3v22h-4.4v-22h4.4zM138.1 290.4c.7.6 1.6 1 2.8 1 .9 0 1.6-.2 2.3-.7.6-.4 1-.9 1.2-1.4h3.8c-.6 1.9-1.6 3.3-2.8 4.1-1.3.8-2.8 1.2-4.6 1.2-1.3 0-2.4-.2-3.4-.6-1-.4-1.9-1-2.6-1.7-.7-.7-1.2-1.6-1.6-2.6-.4-1-.6-2.2-.6-3.4 0-1.2.2-2.3.6-3.3.4-1 .9-1.9 1.7-2.7.7-.7 1.6-1.3 2.6-1.8 1-.4 2.1-.6 3.3-.6 1.4 0 2.5.3 3.5.8s1.8 1.2 2.5 2.1 1.1 1.9 1.4 3c.3 1.1.4 2.3.3 3.5H137c.1 1.5.5 2.5 1.1 3.1zm5-8.4c-.5-.6-1.3-.9-2.4-.9-.7 0-1.3.1-1.7.4-.5.2-.8.5-1.1.9s-.5.7-.6 1.1-.2.7-.2 1h7.1c-.2-1-.6-1.9-1.1-2.5zM163.8 288.8c.3.5.6.9 1.1 1.2s1 .6 1.6.7c.6.2 1.2.2 1.8.2.4 0 .9 0 1.4-.1.5-.1 1-.2 1.4-.4.4-.2.8-.5 1.1-.8.3-.4.4-.8.4-1.4 0-.6-.2-1.1-.6-1.4-.4-.4-.9-.7-1.5-.9-.6-.2-1.3-.5-2.1-.6l-2.4-.6c-.8-.2-1.6-.5-2.4-.8-.8-.3-1.5-.7-2.1-1.2-.6-.5-1.1-1.1-1.5-1.8-.4-.7-.6-1.6-.6-2.6 0-1.1.2-2.1.7-2.9s1.1-1.5 1.9-2.1c.8-.6 1.7-1 2.6-1.2 1-.3 2-.4 3-.4 1.1 0 2.3.1 3.3.4 1.1.3 2 .7 2.8 1.2.8.6 1.5 1.3 2 2.2s.7 2 .7 3.2h-4.7c0-.7-.2-1.2-.4-1.6-.2-.4-.5-.8-.9-1-.4-.2-.8-.4-1.3-.5-.5-.1-1.1-.2-1.6-.2-.4 0-.8 0-1.2.1-.4.1-.7.2-1.1.4-.3.2-.6.5-.8.8-.2.3-.3.7-.3 1.2 0 .4.1.8.2 1 .2.3.5.5 1 .7.5.2 1.1.5 2 .7.9.2 2 .5 3.3.9.4.1 1 .2 1.7.4s1.5.6 2.2 1c.7.5 1.3 1.1 1.9 1.9.5.8.8 1.8.8 3 0 1-.2 1.9-.6 2.8-.4.9-1 1.6-1.7 2.2-.8.6-1.7 1.1-2.9 1.5-1.1.3-2.5.5-4 .5-1.2 0-2.4-.1-3.5-.4s-2.1-.8-3-1.4c-.9-.6-1.6-1.4-2.1-2.4s-.8-2.2-.7-3.5h4.7c0 .9.2 1.5.4 2zM178.4 276.3v-4.1h18v4.1h-6.6v17.9H185v-17.9h-6.6zM215.4 272.3v4.1h-11.6v4.7h10.7v3.8h-10.7v5.4h11.9v4.1H199v-22h16.4zM228.8 272.3c1.4 0 2.5.2 3.5.6s1.8.9 2.4 1.6 1 1.4 1.3 2.2c.3.8.4 1.7.4 2.6 0 .9-.1 1.8-.4 2.6-.3.9-.7 1.6-1.3 2.3-.6.7-1.4 1.2-2.4 1.6s-2.1.6-3.5.6h-5.1v7.9h-4.8v-22h9.9zm-1.3 10.3c.6 0 1.1 0 1.6-.1s1-.2 1.4-.5c.4-.2.7-.6.9-1s.4-1 .4-1.7-.1-1.3-.4-1.7-.5-.8-.9-1c-.4-.2-.8-.4-1.4-.5-.5-.1-1-.1-1.6-.1h-3.8v6.6h3.8z"/></g></svg>