<svg id="Layer_1" xmlns="http://www.w3.org/2000/svg" xmlns:xlink="http://www.w3.org/1999/xlink" viewBox="0 0 300 600"><style>.st0,.st1{clip-path:url(#SVGID_00000106130286849666606770000002298000458317506956_);fill:#231f20}.st1{fill:#00b2ee}</style><defs><path id="SVGID_1_" d="M103.6 36.5h96v32.6h-96z"/></defs><clipPath id="SVGID_00000077292729560909080420000003066274043495823806_"><use xlink:href="#SVGID_1_" overflow="visible"/></clipPath><path d="M104.2 54h5.1c4.1 0 4.9 2.6 4.9 4.4 0 1.8-.8 4.4-4.9 4.4h-2.6v5.5h-2.5V54zm2.5 6.8h2.5c1.1 0 2.5-.6 2.5-2.4 0-1.9-1.1-2.4-2.5-2.4h-2.5v4.8zM115.7 57.9h2.1v2c.3-1.1 1.6-2.3 3-2.3.5 0 .7 0 .9.1v2.2c-.3 0-.7-.1-1-.1-1.6 0-2.8 1.3-2.8 3.5v4.9h-2.3V57.9zM122.1 63.1c0-3.2 1.9-5.4 5.2-5.4 3.3 0 5.2 2.3 5.2 5.4 0 3.2-1.9 5.5-5.2 5.5-3.3 0-5.2-2.3-5.2-5.5m8.2 0c0-1.8-.9-3.6-2.9-3.6s-2.9 1.9-2.9 3.6c0 1.8.9 3.7 2.9 3.7s2.9-1.9 2.9-3.7M132.9 57.9h1.8v-3.1h2.2v3.1h2.1v1.7h-2.1v5.5c0 .9.1 1.4 1.1 1.4.3 0 .6 0 1-.1v1.8c-.5 0-1 .1-1.5.1-2.4 0-2.8-.9-2.9-2.6v-6.1h-1.7v-1.7zM142.2 63.7c0 1.6.9 3.1 2.8 3.1 1.3 0 2.1-.6 2.5-1.7h2.2c-.5 2.3-2.4 3.5-4.7 3.5-3.2 0-5.1-2.3-5.1-5.4 0-2.9 1.9-5.5 5-5.5 3.3 0 5.3 2.9 4.9 6h-7.6zm5.4-1.5c-.1-1.4-1.1-2.7-2.6-2.7-1.6 0-2.7 1.2-2.7 2.7h5.3zM158.5 61.4c-.2-1.3-1.1-1.9-2.4-1.9-1.2 0-2.8.6-2.8 3.8 0 1.7.8 3.5 2.7 3.5 1.3 0 2.2-.9 2.5-2.4h2.3c-.4 2.7-2.1 4.2-4.7 4.2-3.2 0-5-2.3-5-5.3 0-3.1 1.7-5.6 5.1-5.6 2.4 0 4.4 1.2 4.7 3.7h-2.4zM161.4 57.9h1.7v-3.1h2.3v3.1h2.1v1.7h-2.1v5.5c0 .9.1 1.4 1.1 1.4.3 0 .6 0 1-.1v1.8c-.5 0-1 .1-1.5.1-2.4 0-2.8-.9-2.9-2.6v-6.1h-1.7v-1.7zM170.1 54h2.3v2.2h-2.3V54zm0 3.9h2.3v10.4h-2.3V57.9zM174 57.9h2.5l3.2 8 3.1-8h2.4l-4.3 10.4h-2.5zM188.1 63.7c0 1.6.9 3.1 2.8 3.1 1.3 0 2.1-.6 2.5-1.7h2.2c-.5 2.3-2.4 3.5-4.7 3.5-3.2 0-5.1-2.3-5.1-5.4 0-2.9 1.9-5.5 5-5.5 3.3 0 5.3 2.9 4.9 6h-7.6zm5.3-1.5c-.1-1.4-1.1-2.7-2.6-2.7-1.6 0-2.7 1.2-2.7 2.7h5.3z" clip-path="url(#SVGID_00000077292729560909080420000003066274043495823806_)" fill="#231f20"/><path d="M165.8 51.6c-1.5-5.7-6-10.1-11.7-11.6-.5-1.8-2.1-3-4.1-3-1.9 0-3.6 1.3-4.1 3-5.7 1.5-10.2 5.9-11.7 11.6l-.2.6h3.5l.1-.4c1.3-4.1 4.6-7.3 8.7-8.5.7 1.3 2.1 2.1 3.7 2.1s2.9-.8 3.7-2.1c4.1 1.2 7.4 4.4 8.7 8.5l.1.4h3.5l-.2-.6z" clip-path="url(#SVGID_00000077292729560909080420000003066274043495823806_)" fill="#00b2ee"/><path d="M198.1 66.5c.6 0 1 .5 1 1 0 .6-.5 1-1 1-.6 0-1-.5-1-1-.1-.5.4-1 1-1m.8 1.1c0-.5-.4-.9-.8-.9-.5 0-.8.4-.8.9s.4.9.8.9c.4-.1.8-.5.8-.9m-1.2-.6h.5c.3 0 .4.1.4.3 0 .2-.1.3-.3.3l.3.5h-.2l-.3-.5h-.2v.5h-.2V67zm.3.5c.2 0 .3 0 .3-.2s-.1-.2-.3-.2h-.2v.4h.2z" clip-path="url(#SVGID_00000077292729560909080420000003066274043495823806_)" fill="#231f20"/></svg>