<svg id="Layer_1" xmlns="http://www.w3.org/2000/svg" viewBox="0 0 300 600"><style>.st0{fill:#393}</style><path class="st0" d="M49.7 498.1c.3-.9.7-1.6 1.3-2.2.6-.6 1.2-1.1 2.1-1.5.8-.4 1.7-.5 2.8-.5 1 0 2 .2 2.8.5.8.4 1.5.9 2.1 1.5.6.6 1 1.4 1.3 2.2.3.9.4 1.8.4 2.8 0 1-.1 1.9-.4 2.7-.3.8-.7 1.6-1.3 2.2-.6.6-1.2 1.1-2.1 1.5-.8.4-1.7.5-2.8.5-1 0-1.9-.2-2.8-.5-.8-.4-1.5-.8-2.1-1.5-.6-.6-1-1.4-1.3-2.2-.3-.8-.4-1.7-.4-2.7-.1-1 .1-2 .4-2.8zm2.7 4.4c.1.5.3 1 .6 1.4.3.4.7.8 1.1 1 .5.3 1 .4 1.7.4s1.2-.1 1.7-.4c.5-.3.8-.6 1.1-1s.5-.9.6-1.4.2-1.1.2-1.6c0-.6-.1-1.2-.2-1.7s-.3-1-.6-1.5c-.3-.4-.7-.8-1.1-1-.5-.3-1-.4-1.7-.4s-1.2.1-1.7.4c-.5.3-.8.6-1.1 1-.3.4-.5.9-.6 1.5s-.2 1.1-.2 1.7c0 .5 0 1.1.2 1.6zM66.6 497.8v1.3h.1c.3-.6.8-1 1.3-1.2.5-.3 1.1-.4 1.6-.4.7 0 1.3.1 1.7.3s.8.5 1.1.8.4.8.6 1.3c.1.5.2 1 .2 1.6v5.9h-2.7V502c0-.8-.1-1.4-.4-1.8s-.7-.6-1.3-.6c-.7 0-1.2.2-1.6.6-.3.4-.5 1.1-.5 2.1v5.1H64v-9.7h2.6zM77.9 494.1v13.4h-2.7v-13.4h2.7zM83.6 510.4c-.5.3-1.2.5-2.1.5h-.8c-.3 0-.5 0-.8-.1v-2.2c.2 0 .5 0 .8.1h.8c.3 0 .6-.2.8-.4.2-.2.3-.5.3-.8 0-.2 0-.4-.1-.6l-3.4-9.1h2.8l2.2 6.6 2.1-6.6h2.7l-4 10.9c-.4.8-.8 1.3-1.3 1.7zM93.9 499.6v-1.8h1.6v-.7c0-.9.3-1.6.8-2.1s1.3-.8 2.4-.8h1.4v2c-.3 0-.6-.1-1-.1s-.6.1-.8.3c-.2.2-.2.5-.2.9v.6h1.8v1.8h-1.8v7.9h-2.7v-7.9h-1.5zM101.2 500.6c.2-.6.6-1.2 1-1.6.4-.4 1-.8 1.6-1s1.3-.4 2.1-.4 1.4.1 2.1.4c.6.2 1.1.6 1.6 1 .4.4.8 1 1 1.6.2.6.4 1.3.4 2.1s-.1 1.5-.4 2.1c-.2.6-.6 1.2-1 1.6-.4.4-1 .8-1.6 1-.6.2-1.3.4-2.1.4s-1.4-.1-2.1-.4-1.1-.6-1.6-1c-.4-.4-.8-1-1-1.6-.2-.6-.4-1.3-.4-2.1s.1-1.5.4-2.1zm2.4 3.2c.1.4.2.7.4 1s.4.5.7.7.7.3 1.1.3.8-.1 1.1-.3c.3-.2.5-.4.7-.7s.3-.6.4-1c.1-.4.1-.7.1-1.1 0-.4 0-.8-.1-1.1-.1-.4-.2-.7-.4-1-.2-.3-.4-.5-.7-.7-.3-.2-.7-.3-1.1-.3s-.8.1-1.1.3-.5.4-.7.7c-.2.3-.3.6-.4 1-.1.4-.1.8-.1 1.1 0 .4 0 .7.1 1.1zM115.1 497.8v1.8c.1-.3.3-.6.5-.8.2-.3.5-.5.7-.7.3-.2.6-.3.9-.4.3-.1.6-.1 1-.1.2 0 .4 0 .6.1v2.5c-.1 0-.3 0-.4-.1h-.5c-.5 0-.9.1-1.2.2-.3.2-.6.4-.8.7-.2.3-.4.6-.4 1s-.1.8-.1 1.2v4.4h-2.7v-9.7h2.4zM131.9 494.1l5 13.4h-3l-1-3h-5l-1 3h-3l5-13.4h3zm.2 8.2l-1.7-4.9-1.7 4.9h3.4zM143.9 494.1c.9 0 1.7.1 2.4.4s1.4.7 1.9 1.2 1 1.2 1.3 2.1c.3.8.5 1.8.5 2.9 0 1-.1 1.9-.4 2.7-.2.8-.6 1.5-1.1 2.1-.5.6-1.1 1.1-1.9 1.4-.8.3-1.6.5-2.7.5h-5.8V494h5.8zm-.2 10.9c.4 0 .8-.1 1.2-.2.4-.1.8-.4 1.1-.7.3-.3.6-.7.7-1.2.2-.5.3-1.1.3-1.9 0-.7-.1-1.3-.2-1.8s-.3-1-.6-1.4-.7-.7-1.2-.9c-.5-.2-1.1-.3-1.8-.3H141v8.4h2.7zM158.6 494.1l5 13.4h-3l-1-3h-5l-1 3h-3l5-13.4h3zm.2 8.2l-1.7-4.9-1.7 4.9h3.4zM174.1 494.1l3.1 9.2 3-9.2h4.1v13.4h-2.7V498l-3.3 9.5H176l-3.3-9.4v9.4H170v-13.4h4.1zM189.5 505.2c.4.4 1 .6 1.7.6.5 0 1-.1 1.4-.4.4-.3.6-.6.7-.9h2.3c-.4 1.2-.9 2-1.7 2.5-.8.5-1.7.7-2.8.7-.8 0-1.4-.1-2.1-.4-.6-.2-1.1-.6-1.6-1-.4-.4-.8-1-1-1.6-.2-.6-.3-1.3-.3-2.1 0-.7.1-1.4.4-2 .2-.6.6-1.2 1-1.6s1-.8 1.6-1.1 1.3-.4 2-.4c.8 0 1.5.2 2.2.5.6.3 1.1.7 1.5 1.3s.7 1.1.9 1.8c.2.7.2 1.4.2 2.2h-7c0 .9.2 1.5.6 1.9zm3-5.1c-.3-.3-.8-.5-1.4-.5-.4 0-.8.1-1.1.2-.3.1-.5.3-.7.5-.2.2-.3.4-.4.7-.1.2-.1.4-.1.6h4.3c-.1-.7-.3-1.2-.6-1.5zM200 497.8v1.3c.3-.5.8-.9 1.3-1.2.5-.3 1.1-.4 1.7-.4.6 0 1.2.1 1.7.4.5.2.9.7 1.2 1.3.3-.4.7-.8 1.2-1.1.5-.3 1.1-.5 1.7-.5.5 0 1 .1 1.4.2.4.1.8.3 1.1.6.3.3.6.6.7 1.1.2.4.3 1 .3 1.6v6.5h-2.7V502v-.9c0-.3-.1-.5-.2-.7s-.3-.4-.5-.5c-.2-.1-.5-.2-.9-.2s-.7.1-.9.2-.4.3-.5.6c-.1.2-.2.5-.3.8s-.1.6-.1.9v5.4h-2.7v-5.4-.9c0-.3-.1-.5-.2-.8-.1-.2-.2-.4-.5-.6s-.5-.2-1-.2c-.1 0-.3 0-.5.1l-.6.3c-.2.2-.4.4-.5.7-.1.3-.2.7-.2 1.1v5.6h-2.7v-9.7h2.7zM217 494.1v4.9c.3-.5.8-.9 1.3-1.1.6-.2 1.1-.3 1.7-.3.5 0 1 .1 1.4.3.5.2.9.5 1.3.9s.7.9.9 1.6c.2.6.4 1.4.4 2.3 0 .9-.1 1.6-.4 2.3-.2.6-.5 1.2-.9 1.6-.4.4-.8.7-1.3.9-.5.2-1 .3-1.4.3-.7 0-1.3-.1-1.9-.3-.6-.2-1-.6-1.3-1.1v1.2h-2.5v-13.4h2.7zm4.3 7.4c-.1-.4-.2-.7-.4-1-.2-.3-.4-.5-.7-.7-.3-.2-.6-.3-1-.3s-.7.1-1 .3c-.3.2-.5.4-.7.7-.2.3-.3.6-.4 1-.1.4-.1.8-.1 1.2 0 .4 0 .8.1 1.2.1.4.2.7.4 1 .2.3.4.5.7.7.3.2.6.3 1 .3s.7-.1 1-.3c.3-.2.5-.4.7-.7.2-.3.3-.6.4-1 .1-.4.1-.8.1-1.2 0-.4 0-.8-.1-1.2zM228.6 505.2c.4.4 1 .6 1.7.6.5 0 1-.1 1.4-.4.4-.3.6-.6.7-.9h2.3c-.4 1.2-.9 2-1.7 2.5-.8.5-1.7.7-2.8.7-.8 0-1.4-.1-2.1-.4-.6-.2-1.1-.6-1.6-1-.4-.4-.8-1-1-1.6-.2-.6-.3-1.3-.3-2.1 0-.7.1-1.4.4-2 .2-.6.6-1.2 1-1.6s1-.8 1.6-1.1 1.3-.4 2-.4c.8 0 1.5.2 2.2.5.6.3 1.1.7 1.5 1.3s.7 1.1.9 1.8c.2.7.2 1.4.2 2.2h-7c0 .9.2 1.5.6 1.9zm3-5.1c-.3-.3-.8-.5-1.4-.5-.4 0-.8.1-1.1.2-.3.1-.5.3-.7.5-.2.2-.3.4-.4.7-.1.2-.1.4-.1.6h4.3c-.1-.7-.3-1.2-.6-1.5zM239 497.8v1.8c.1-.3.3-.6.5-.8.2-.3.5-.5.7-.7s.6-.3.9-.4c.3-.1.6-.1 1-.1.2 0 .4 0 .6.1v2.5c-.1 0-.3 0-.4-.1h-.5c-.5 0-.9.1-1.2.2s-.6.4-.8.7c-.2.3-.4.6-.4 1s-.1.8-.1 1.2v4.4h-2.7v-9.7h2.4zM246 505.1c.1.2.3.4.5.5l.6.3c.2.1.5.1.8.1.2 0 .4 0 .6-.1.2 0 .4-.1.6-.2.2-.1.3-.2.4-.4.1-.2.2-.4.2-.6 0-.4-.3-.7-.8-.9-.5-.2-1.3-.4-2.2-.6-.4-.1-.8-.2-1.1-.3-.4-.1-.7-.3-1-.5-.3-.2-.5-.4-.7-.7s-.3-.7-.3-1.1c0-.6.1-1.1.4-1.5.2-.4.6-.7 1-.9.4-.2.8-.4 1.3-.5.5-.1 1-.1 1.5-.1s1 0 1.5.1.9.3 1.3.5.7.6 1 .9c.3.4.4.9.5 1.5h-2.5c0-.5-.2-.9-.6-1-.3-.2-.8-.3-1.2-.3h-.5c-.2 0-.3.1-.5.1-.1.1-.3.2-.4.3s-.1.3-.1.5.1.4.3.6.4.3.7.4c.3.1.6.2 1 .3.4.1.7.2 1.1.2.4.1.8.2 1.1.3.4.1.7.3 1 .5.3.2.5.5.7.8.2.3.3.7.3 1.1 0 .6-.1 1.2-.4 1.6-.3.4-.6.8-1 1-.4.3-.9.4-1.4.6-.5.1-1.1.2-1.6.2-.6 0-1.1-.1-1.6-.2s-1-.3-1.4-.6c-.4-.3-.8-.6-1-1-.3-.4-.4-1-.4-1.6h2.5c-.4.2-.3.5-.2.7z"/></svg>