<?xml version="1.0" encoding="utf-8"?>
<!-- Generator: Adobe Illustrator 25.4.6, SVG Export Plug-In . SVG Version: 6.00 Build 0)  -->
<svg version="1.1" id="Layer_1" xmlns="http://www.w3.org/2000/svg" xmlns:xlink="http://www.w3.org/1999/xlink" x="0px" y="0px"
	 viewBox="0 0 160 600" style="enable-background:new 0 0 160 600;" xml:space="preserve">
<style type="text/css">
	.st0{fill:#339933;}
	.st1{fill:#373535;}
</style>
<g>
	<path class="st0" d="M18.3,180.6l5.3,14.3h-3.3l-1.1-3.2h-5.3l-1.1,3.2H9.6l5.4-14.3H18.3z M18.4,189.4l-1.8-5.2h0l-1.9,5.2H18.4z"
		/>
	<path class="st0" d="M38.6,192c-0.1,0.6-0.3,1.1-0.6,1.6c-0.3,0.5-0.8,0.9-1.4,1.2c-0.6,0.3-1.5,0.5-2.5,0.5
		c-0.6,0-1.2-0.1-1.7-0.2c-0.6-0.2-1.1-0.4-1.5-0.8c-0.4-0.4-0.8-0.8-1.1-1.4c-0.3-0.6-0.4-1.2-0.4-2v-1.2h2.8v0.6
		c0,0.3,0,0.7,0.1,1c0.1,0.3,0.1,0.5,0.3,0.8c0.1,0.2,0.3,0.4,0.5,0.5s0.5,0.2,0.9,0.2c0.4,0,0.7-0.1,1-0.2c0.2-0.1,0.4-0.3,0.5-0.6
		s0.2-0.5,0.2-0.8c0-0.3,0-0.5,0-0.8v-9.6h3.1v9.8C38.8,190.9,38.7,191.4,38.6,192z"/>
	<path class="st0" d="M41.4,184.9c0.3-0.9,0.8-1.7,1.4-2.4s1.3-1.2,2.2-1.6c0.9-0.4,1.9-0.6,2.9-0.6c1.1,0,2.1,0.2,3,0.6
		c0.9,0.4,1.6,0.9,2.2,1.6s1.1,1.5,1.4,2.4c0.3,0.9,0.5,1.9,0.5,3c0,1-0.2,2-0.5,2.9c-0.3,0.9-0.8,1.7-1.4,2.4s-1.3,1.2-2.2,1.6
		c-0.9,0.4-1.9,0.6-3,0.6c-1.1,0-2.1-0.2-2.9-0.6c-0.9-0.4-1.6-0.9-2.2-1.6s-1.1-1.5-1.4-2.4c-0.3-0.9-0.5-1.9-0.5-2.9
		C40.9,186.8,41.1,185.8,41.4,184.9z M44.2,189.6c0.1,0.6,0.4,1.1,0.7,1.5s0.7,0.8,1.2,1.1c0.5,0.3,1.1,0.4,1.8,0.4s1.3-0.1,1.8-0.4
		c0.5-0.3,0.9-0.6,1.2-1.1s0.5-1,0.7-1.5c0.1-0.6,0.2-1.1,0.2-1.8c0-0.6-0.1-1.2-0.2-1.8c-0.1-0.6-0.4-1.1-0.7-1.6
		c-0.3-0.5-0.7-0.8-1.2-1.1c-0.5-0.3-1.1-0.4-1.8-0.4s-1.3,0.1-1.8,0.4c-0.5,0.3-0.9,0.6-1.2,1.1c-0.3,0.5-0.5,1-0.7,1.6
		c-0.1,0.6-0.2,1.2-0.2,1.8C44,188.4,44.1,189,44.2,189.6z"/>
	<path class="st0" d="M67.6,193.8c-1.1,0.9-2.6,1.4-4.5,1.4c-1.9,0-3.4-0.5-4.5-1.4c-1.1-0.9-1.6-2.4-1.6-4.3v-8.9h3.1v8.9
		c0,0.4,0,0.8,0.1,1.1c0.1,0.4,0.2,0.7,0.4,1c0.2,0.3,0.5,0.5,0.9,0.7c0.4,0.2,0.9,0.3,1.5,0.3c1.1,0,1.9-0.2,2.3-0.8
		c0.4-0.5,0.6-1.3,0.6-2.4v-8.9h3.1v8.9C69.2,191.4,68.7,192.9,67.6,193.8z"/>
	<path class="st0" d="M79.6,180.6c0.6,0,1.2,0.1,1.7,0.3c0.5,0.2,1,0.5,1.3,0.9c0.4,0.4,0.6,0.8,0.8,1.2c0.2,0.5,0.3,1,0.3,1.5
		c0,0.8-0.2,1.6-0.5,2.2c-0.4,0.6-0.9,1.1-1.7,1.4v0c0.4,0.1,0.7,0.3,1,0.5s0.5,0.5,0.6,0.8c0.2,0.3,0.3,0.6,0.3,1s0.1,0.7,0.2,1.1
		c0,0.2,0,0.5,0,0.8c0,0.3,0,0.6,0.1,0.9c0,0.3,0.1,0.6,0.2,0.9s0.2,0.5,0.3,0.7h-3.1c-0.2-0.5-0.3-1-0.3-1.6c0-0.6-0.1-1.2-0.2-1.8
		c-0.1-0.7-0.3-1.3-0.7-1.6c-0.3-0.3-0.9-0.5-1.7-0.5H75v5.6h-3.1v-14.3H79.6z M78.5,187.1c0.7,0,1.3-0.2,1.6-0.5
		c0.4-0.3,0.5-0.8,0.5-1.6c0-0.7-0.2-1.2-0.5-1.5c-0.4-0.3-0.9-0.5-1.6-0.5H75v4H78.5z"/>
	<path class="st0" d="M89.5,180.6l6,9.6h0v-9.6h2.9v14.3h-3.1l-5.9-9.6h0v9.6h-2.9v-14.3H89.5z"/>
	<path class="st0" d="M111.8,180.6v2.6h-7.5v3.1h6.9v2.4h-6.9v3.5h7.7v2.6h-10.8v-14.3H111.8z"/>
	<path class="st0" d="M112.6,180.6h3.5l3.3,5.6l3.3-5.6h3.5l-5.3,8.8v5.5h-3.1v-5.6L112.6,180.6z"/>
	<path class="st0" d="M132.8,187.5c0.3-0.7,0.6-1.2,1.1-1.7s1-0.8,1.7-1.1c0.7-0.3,1.4-0.4,2.2-0.4s1.6,0.1,2.2,0.4
		c0.7,0.3,1.2,0.6,1.7,1.1s0.8,1,1.1,1.7c0.3,0.7,0.4,1.4,0.4,2.2c0,0.8-0.1,1.6-0.4,2.2c-0.3,0.7-0.6,1.2-1.1,1.7
		c-0.5,0.5-1,0.8-1.7,1.1c-0.7,0.3-1.4,0.4-2.2,0.4s-1.5-0.1-2.2-0.4c-0.7-0.3-1.2-0.6-1.7-1.1c-0.5-0.5-0.8-1-1.1-1.7
		c-0.3-0.7-0.4-1.4-0.4-2.2C132.4,188.9,132.5,188.2,132.8,187.5z M135.4,191c0.1,0.4,0.2,0.7,0.4,1.1c0.2,0.3,0.5,0.6,0.8,0.8
		c0.3,0.2,0.7,0.3,1.2,0.3c0.5,0,0.9-0.1,1.2-0.3c0.3-0.2,0.6-0.4,0.8-0.8c0.2-0.3,0.3-0.7,0.4-1.1c0.1-0.4,0.1-0.8,0.1-1.2
		c0-0.4,0-0.8-0.1-1.2s-0.2-0.8-0.4-1.1s-0.5-0.6-0.8-0.8c-0.3-0.2-0.7-0.3-1.2-0.3c-0.5,0-0.9,0.1-1.2,0.3
		c-0.3,0.2-0.6,0.4-0.8,0.8s-0.3,0.7-0.4,1.1s-0.1,0.8-0.1,1.2C135.2,190.2,135.3,190.6,135.4,191z"/>
	<path class="st0" d="M143.9,186.5v-1.9h1.7v-0.8c0-0.9,0.3-1.7,0.9-2.3c0.6-0.6,1.4-0.9,2.6-0.9c0.3,0,0.5,0,0.8,0s0.5,0,0.7,0v2.1
		c-0.3,0-0.7-0.1-1-0.1c-0.4,0-0.7,0.1-0.8,0.3c-0.2,0.2-0.2,0.5-0.2,0.9v0.6h2v1.9h-2v8.4h-2.8v-8.4H143.9z"/>
</g>
<g>
	<path class="st0" d="M15.7,209.5c0-0.7,0.2-1.2,0.5-1.7c0.3-0.4,0.7-0.8,1.1-1.1c0.5-0.3,1-0.5,1.5-0.6c0.6-0.1,1.1-0.2,1.7-0.2
		c0.5,0,1,0,1.6,0.1s1,0.2,1.5,0.4c0.4,0.2,0.8,0.5,1.1,0.9c0.3,0.4,0.4,0.9,0.4,1.5v5.4c0,0.5,0,0.9,0.1,1.3s0.1,0.7,0.3,1h-2.9
		c-0.1-0.2-0.1-0.3-0.1-0.5c0-0.2-0.1-0.3-0.1-0.5c-0.5,0.5-1,0.8-1.6,1s-1.2,0.3-1.9,0.3c-0.5,0-1-0.1-1.4-0.2s-0.8-0.3-1.1-0.6
		c-0.3-0.3-0.6-0.6-0.8-1c-0.2-0.4-0.3-0.8-0.3-1.4c0-0.6,0.1-1.1,0.3-1.5c0.2-0.4,0.5-0.7,0.8-0.9c0.3-0.2,0.7-0.4,1.1-0.5
		s0.8-0.2,1.3-0.3c0.4-0.1,0.8-0.1,1.3-0.2c0.4,0,0.8-0.1,1.1-0.2c0.3-0.1,0.6-0.2,0.8-0.4c0.2-0.2,0.3-0.4,0.3-0.7
		c0-0.3,0-0.6-0.1-0.7c-0.1-0.2-0.2-0.3-0.4-0.4c-0.2-0.1-0.4-0.2-0.6-0.2c-0.2,0-0.5-0.1-0.7-0.1c-0.6,0-1,0.1-1.3,0.4
		c-0.3,0.2-0.5,0.6-0.6,1.2H15.7z M22.3,211.6c-0.1,0.1-0.3,0.2-0.5,0.2c-0.2,0.1-0.4,0.1-0.6,0.1c-0.2,0-0.4,0.1-0.7,0.1
		c-0.2,0-0.5,0.1-0.7,0.1c-0.2,0-0.4,0.1-0.6,0.2s-0.4,0.2-0.5,0.3c-0.2,0.1-0.3,0.3-0.4,0.4c-0.1,0.2-0.1,0.4-0.1,0.7
		c0,0.3,0,0.5,0.1,0.6c0.1,0.2,0.2,0.3,0.4,0.4s0.3,0.2,0.6,0.2c0.2,0,0.4,0.1,0.7,0.1c0.6,0,1-0.1,1.3-0.3c0.3-0.2,0.5-0.4,0.7-0.7
		c0.1-0.3,0.2-0.5,0.3-0.8c0-0.3,0-0.5,0-0.6V211.6z"/>
	<path class="st0" d="M32,205v-2.6h11.7v2.6h-4.3v11.6h-3.1V205H32z"/>
	<path class="st0" d="M48.5,202.3v5.5h5.8v-5.5h3.1v14.3h-3.1v-6.2h-5.8v6.2h-3.1v-14.3H48.5z"/>
	<path class="st0" d="M60.1,206.6c0.3-0.9,0.8-1.7,1.4-2.4s1.3-1.2,2.2-1.6c0.9-0.4,1.9-0.6,2.9-0.6c1.1,0,2.1,0.2,3,0.6
		c0.9,0.4,1.6,0.9,2.2,1.6c0.6,0.7,1.1,1.5,1.4,2.4c0.3,0.9,0.5,1.9,0.5,3c0,1-0.2,2-0.5,2.9c-0.3,0.9-0.8,1.7-1.4,2.4
		c-0.6,0.7-1.3,1.2-2.2,1.6c-0.9,0.4-1.9,0.6-3,0.6c-1.1,0-2.1-0.2-2.9-0.6c-0.9-0.4-1.6-0.9-2.2-1.6s-1.1-1.5-1.4-2.4
		c-0.3-0.9-0.5-1.9-0.5-2.9C59.6,208.5,59.7,207.5,60.1,206.6z M62.9,211.3c0.1,0.6,0.4,1.1,0.7,1.5s0.7,0.8,1.2,1.1
		c0.5,0.3,1.1,0.4,1.8,0.4s1.3-0.1,1.8-0.4c0.5-0.3,0.9-0.6,1.2-1.1c0.3-0.5,0.5-1,0.7-1.5c0.1-0.6,0.2-1.1,0.2-1.8
		c0-0.6-0.1-1.2-0.2-1.8c-0.1-0.6-0.4-1.1-0.7-1.6c-0.3-0.5-0.7-0.8-1.2-1.1c-0.5-0.3-1.1-0.4-1.8-0.4s-1.3,0.1-1.8,0.4
		c-0.5,0.3-0.9,0.6-1.2,1.1c-0.3,0.5-0.5,1-0.7,1.6c-0.1,0.6-0.2,1.2-0.2,1.8C62.7,210.1,62.8,210.7,62.9,211.3z"/>
	<path class="st0" d="M86.3,215.5c-1.1,0.9-2.6,1.4-4.5,1.4c-1.9,0-3.4-0.5-4.5-1.4c-1.1-0.9-1.6-2.4-1.6-4.3v-8.9h3.1v8.9
		c0,0.4,0,0.8,0.1,1.1c0.1,0.4,0.2,0.7,0.4,1c0.2,0.3,0.5,0.5,0.9,0.7c0.4,0.2,0.9,0.3,1.5,0.3c1.1,0,1.9-0.2,2.3-0.8
		s0.6-1.3,0.6-2.4v-8.9h3.1v8.9C87.9,213.1,87.3,214.6,86.3,215.5z"/>
	<path class="st0" d="M93,213.1c0.2,0.3,0.4,0.6,0.7,0.8c0.3,0.2,0.6,0.4,1,0.5c0.4,0.1,0.8,0.1,1.2,0.1c0.3,0,0.6,0,0.9-0.1
		s0.6-0.1,0.9-0.3c0.3-0.1,0.5-0.3,0.7-0.6c0.2-0.2,0.3-0.5,0.3-0.9c0-0.4-0.1-0.7-0.4-0.9c-0.2-0.2-0.6-0.4-1-0.6
		c-0.4-0.2-0.9-0.3-1.4-0.4c-0.5-0.1-1-0.3-1.5-0.4c-0.5-0.1-1.1-0.3-1.6-0.5s-1-0.4-1.4-0.8c-0.4-0.3-0.7-0.7-1-1.1
		c-0.2-0.5-0.4-1-0.4-1.7c0-0.7,0.2-1.4,0.5-1.9s0.7-1,1.2-1.4s1.1-0.6,1.7-0.8s1.3-0.3,1.9-0.3c0.7,0,1.5,0.1,2.2,0.2
		c0.7,0.2,1.3,0.4,1.8,0.8c0.5,0.4,1,0.9,1.3,1.4s0.5,1.3,0.5,2.1h-3c0-0.4-0.1-0.8-0.3-1.1c-0.2-0.3-0.4-0.5-0.6-0.7
		c-0.3-0.2-0.5-0.3-0.9-0.3c-0.3-0.1-0.7-0.1-1.1-0.1c-0.3,0-0.5,0-0.8,0.1c-0.3,0.1-0.5,0.1-0.7,0.3s-0.4,0.3-0.5,0.5
		c-0.1,0.2-0.2,0.5-0.2,0.8c0,0.3,0.1,0.5,0.2,0.7c0.1,0.2,0.3,0.3,0.6,0.5c0.3,0.1,0.7,0.3,1.3,0.4c0.6,0.1,1.3,0.3,2.2,0.6
		c0.3,0.1,0.6,0.1,1.1,0.3c0.5,0.1,0.9,0.4,1.4,0.7c0.5,0.3,0.9,0.7,1.2,1.2s0.5,1.2,0.5,2c0,0.7-0.1,1.3-0.4,1.8
		c-0.3,0.6-0.6,1-1.1,1.4c-0.5,0.4-1.1,0.7-1.9,1s-1.6,0.3-2.6,0.3c-0.8,0-1.5-0.1-2.3-0.3c-0.7-0.2-1.4-0.5-2-0.9
		c-0.6-0.4-1-0.9-1.3-1.6s-0.5-1.4-0.5-2.3h3C92.7,212.4,92.8,212.8,93,213.1z"/>
	<path class="st0" d="M110.7,202.3l5.3,14.3h-3.3l-1.1-3.2h-5.3l-1.1,3.2h-3.2l5.4-14.3H110.7z M110.9,211.1l-1.8-5.2h0l-1.9,5.2
		H110.9z"/>
	<path class="st0" d="M120.4,202.3l6,9.6h0v-9.6h2.9v14.3h-3.1l-5.9-9.6h0v9.6h-2.9v-14.3H120.4z"/>
	<path class="st0" d="M138.2,202.3c0.9,0,1.8,0.1,2.6,0.4c0.8,0.3,1.5,0.7,2.1,1.3c0.6,0.6,1,1.3,1.4,2.2c0.3,0.9,0.5,1.9,0.5,3.1
		c0,1-0.1,2-0.4,2.9c-0.3,0.9-0.7,1.6-1.2,2.3s-1.2,1.1-2,1.5s-1.8,0.5-2.8,0.5h-6.2v-14.3H138.2z M138,214c0.5,0,0.9-0.1,1.3-0.2
		c0.4-0.1,0.8-0.4,1.1-0.7c0.3-0.3,0.6-0.8,0.8-1.3s0.3-1.2,0.3-2c0-0.7-0.1-1.4-0.2-2s-0.4-1.1-0.7-1.5c-0.3-0.4-0.7-0.7-1.3-1
		c-0.5-0.2-1.2-0.3-2-0.3h-2.2v9H138z"/>
</g>
<g>
	<path class="st0" d="M46.5,234.8c0.2,0.3,0.4,0.6,0.7,0.8c0.3,0.2,0.6,0.4,1,0.5s0.8,0.1,1.2,0.1c0.3,0,0.6,0,0.9-0.1
		c0.3,0,0.6-0.1,0.9-0.3s0.5-0.3,0.7-0.6c0.2-0.2,0.3-0.5,0.3-0.9c0-0.4-0.1-0.7-0.4-0.9c-0.2-0.2-0.6-0.4-1-0.6s-0.9-0.3-1.4-0.4
		c-0.5-0.1-1-0.3-1.5-0.4c-0.5-0.1-1.1-0.3-1.6-0.5c-0.5-0.2-1-0.4-1.4-0.8c-0.4-0.3-0.7-0.7-1-1.1c-0.2-0.5-0.4-1-0.4-1.7
		c0-0.7,0.2-1.4,0.5-1.9c0.3-0.5,0.7-1,1.2-1.4c0.5-0.4,1.1-0.6,1.7-0.8c0.6-0.2,1.3-0.3,1.9-0.3c0.7,0,1.5,0.1,2.2,0.2
		c0.7,0.2,1.3,0.4,1.8,0.8c0.5,0.4,1,0.9,1.3,1.4s0.5,1.3,0.5,2.1h-3c0-0.4-0.1-0.8-0.3-1.1c-0.2-0.3-0.4-0.5-0.6-0.7
		c-0.3-0.2-0.5-0.3-0.9-0.3c-0.3-0.1-0.7-0.1-1.1-0.1c-0.3,0-0.5,0-0.8,0.1c-0.3,0.1-0.5,0.1-0.7,0.3c-0.2,0.1-0.4,0.3-0.5,0.5
		c-0.1,0.2-0.2,0.5-0.2,0.8c0,0.3,0.1,0.5,0.2,0.7c0.1,0.2,0.3,0.3,0.6,0.5c0.3,0.1,0.7,0.3,1.3,0.4c0.6,0.1,1.3,0.3,2.2,0.6
		c0.3,0.1,0.6,0.1,1.1,0.3c0.5,0.1,0.9,0.4,1.4,0.7s0.9,0.7,1.2,1.2c0.3,0.5,0.5,1.2,0.5,2c0,0.7-0.1,1.3-0.4,1.8
		c-0.3,0.6-0.6,1-1.1,1.4c-0.5,0.4-1.1,0.7-1.9,1c-0.7,0.2-1.6,0.3-2.6,0.3c-0.8,0-1.6-0.1-2.3-0.3c-0.7-0.2-1.4-0.5-2-0.9
		c-0.6-0.4-1-0.9-1.4-1.6c-0.3-0.6-0.5-1.4-0.5-2.3h3C46.2,234.1,46.3,234.5,46.5,234.8z"/>
	<path class="st0" d="M61.5,224l3.3,9.8h0L68,224h4.4v14.3h-2.9v-10.1h0L66,238.3h-2.4l-3.5-10h0v10h-2.9V224H61.5z"/>
	<path class="st0" d="M78.4,224v14.3h-3.1V224H78.4z"/>
	<path class="st0" d="M84.3,224v11.6h7v2.6H81.1V224H84.3z"/>
	<path class="st0" d="M103.7,224v2.6h-7.5v3.1h6.9v2.4h-6.9v3.5h7.7v2.6H93V224H103.7z"/>
	<path class="st0" d="M108.3,234.8c0.2,0.3,0.4,0.6,0.7,0.8c0.3,0.2,0.6,0.4,1,0.5c0.4,0.1,0.8,0.1,1.2,0.1c0.3,0,0.6,0,0.9-0.1
		s0.6-0.1,0.9-0.3c0.3-0.1,0.5-0.3,0.7-0.6c0.2-0.2,0.3-0.5,0.3-0.9c0-0.4-0.1-0.7-0.4-0.9c-0.2-0.2-0.6-0.4-1-0.6
		c-0.4-0.2-0.9-0.3-1.4-0.4c-0.5-0.1-1-0.3-1.5-0.4c-0.5-0.1-1.1-0.3-1.6-0.5s-1-0.4-1.4-0.8c-0.4-0.3-0.7-0.7-1-1.1
		c-0.2-0.5-0.4-1-0.4-1.7c0-0.7,0.2-1.4,0.5-1.9s0.7-1,1.2-1.4s1.1-0.6,1.7-0.8s1.3-0.3,1.9-0.3c0.7,0,1.5,0.1,2.2,0.2
		c0.7,0.2,1.3,0.4,1.8,0.8c0.5,0.4,1,0.9,1.3,1.4s0.5,1.3,0.5,2.1h-3c0-0.4-0.1-0.8-0.3-1.1c-0.2-0.3-0.4-0.5-0.6-0.7
		c-0.3-0.2-0.5-0.3-0.9-0.3c-0.3-0.1-0.7-0.1-1.1-0.1c-0.3,0-0.5,0-0.8,0.1c-0.3,0.1-0.5,0.1-0.7,0.3s-0.4,0.3-0.5,0.5
		c-0.1,0.2-0.2,0.5-0.2,0.8c0,0.3,0.1,0.5,0.2,0.7c0.1,0.2,0.3,0.3,0.6,0.5c0.3,0.1,0.7,0.3,1.3,0.4c0.6,0.1,1.3,0.3,2.2,0.6
		c0.3,0.1,0.6,0.1,1.1,0.3c0.5,0.1,0.9,0.4,1.4,0.7c0.5,0.3,0.9,0.7,1.2,1.2s0.5,1.2,0.5,2c0,0.7-0.1,1.3-0.4,1.8
		c-0.3,0.6-0.6,1-1.1,1.4c-0.5,0.4-1.1,0.7-1.9,1s-1.6,0.3-2.6,0.3c-0.8,0-1.5-0.1-2.3-0.3c-0.7-0.2-1.4-0.5-2-0.9
		c-0.6-0.4-1-0.9-1.3-1.6s-0.5-1.4-0.5-2.3h3C108.1,234.1,108.2,234.5,108.3,234.8z"/>
</g>
<g>
	<path class="st1" d="M20.7,245.7v5.2h0c0.3-0.5,0.8-0.9,1.4-1.2c0.6-0.2,1.2-0.4,1.9-0.4c0.5,0,1,0.1,1.5,0.3s1,0.5,1.4,1
		s0.7,1,1,1.7c0.3,0.7,0.4,1.5,0.4,2.4c0,0.9-0.1,1.8-0.4,2.5c-0.3,0.7-0.6,1.2-1,1.7s-0.9,0.8-1.4,1c-0.5,0.2-1,0.3-1.5,0.3
		c-0.8,0-1.4-0.1-2-0.4c-0.6-0.2-1.1-0.6-1.4-1.2h0v1.3h-2.7v-14.3H20.7z M25.3,253.6c-0.1-0.4-0.2-0.8-0.4-1.1
		c-0.2-0.3-0.5-0.5-0.8-0.7c-0.3-0.2-0.7-0.3-1.1-0.3c-0.4,0-0.8,0.1-1.1,0.3c-0.3,0.2-0.6,0.4-0.8,0.7c-0.2,0.3-0.3,0.7-0.4,1.1
		s-0.1,0.8-0.1,1.3c0,0.4,0,0.8,0.1,1.2s0.2,0.8,0.4,1.1c0.2,0.3,0.5,0.5,0.8,0.7c0.3,0.2,0.7,0.3,1.1,0.3c0.4,0,0.8-0.1,1.1-0.3
		c0.3-0.2,0.5-0.4,0.8-0.7c0.2-0.3,0.3-0.7,0.4-1.1s0.1-0.8,0.1-1.2C25.5,254.4,25.4,254,25.3,253.6z"/>
	<path class="st1" d="M33.2,257.5c0.4,0.4,1,0.6,1.8,0.6c0.6,0,1.1-0.1,1.5-0.4c0.4-0.3,0.7-0.6,0.8-0.9h2.5c-0.4,1.2-1,2.1-1.8,2.7
		c-0.8,0.5-1.8,0.8-3,0.8c-0.8,0-1.5-0.1-2.2-0.4c-0.7-0.3-1.2-0.6-1.7-1.1c-0.5-0.5-0.8-1.1-1-1.7c-0.2-0.7-0.4-1.4-0.4-2.2
		c0-0.8,0.1-1.5,0.4-2.2c0.3-0.7,0.6-1.2,1.1-1.7c0.5-0.5,1-0.9,1.7-1.2c0.6-0.3,1.4-0.4,2.1-0.4c0.9,0,1.6,0.2,2.3,0.5
		c0.7,0.3,1.2,0.8,1.6,1.4c0.4,0.6,0.7,1.2,0.9,2c0.2,0.7,0.3,1.5,0.2,2.3h-7.5C32.5,256.5,32.7,257.1,33.2,257.5z M36.4,252.1
		c-0.3-0.4-0.9-0.6-1.6-0.6c-0.5,0-0.8,0.1-1.1,0.2c-0.3,0.2-0.5,0.3-0.7,0.6c-0.2,0.2-0.3,0.5-0.4,0.7c-0.1,0.3-0.1,0.5-0.1,0.7
		h4.6C36.9,253,36.7,252.5,36.4,252.1z"/>
	<path class="st1" d="M51.4,260.8c-0.1,0.5-0.4,1-0.7,1.5c-0.4,0.5-0.9,0.9-1.6,1.2c-0.7,0.3-1.7,0.5-2.8,0.5c-0.5,0-1-0.1-1.6-0.2
		c-0.5-0.1-1-0.3-1.4-0.6c-0.4-0.3-0.8-0.6-1.1-1s-0.4-0.9-0.5-1.5h2.8c0.1,0.5,0.4,0.9,0.8,1.1c0.4,0.2,0.8,0.3,1.3,0.3
		c0.8,0,1.4-0.2,1.8-0.7s0.5-1.1,0.5-1.8v-1.4h0c-0.3,0.5-0.7,0.9-1.3,1.2c-0.6,0.3-1.2,0.4-1.8,0.4c-0.8,0-1.4-0.1-2-0.4
		c-0.6-0.3-1-0.6-1.4-1.1c-0.4-0.5-0.6-1-0.8-1.7c-0.2-0.6-0.2-1.3-0.2-2c0-0.7,0.1-1.3,0.3-1.9c0.2-0.6,0.5-1.2,0.9-1.6
		c0.4-0.5,0.8-0.9,1.4-1.1c0.6-0.3,1.2-0.4,1.9-0.4c0.7,0,1.3,0.1,1.8,0.4c0.5,0.3,0.9,0.7,1.3,1.3h0v-1.4h2.7v9.7
		C51.5,259.8,51.5,260.2,51.4,260.8z M47.5,257.3c0.3-0.2,0.6-0.4,0.8-0.6c0.2-0.3,0.3-0.6,0.4-0.9s0.1-0.7,0.1-1.1
		c0-0.4,0-0.8-0.1-1.2c-0.1-0.4-0.2-0.7-0.4-1c-0.2-0.3-0.4-0.5-0.7-0.7c-0.3-0.2-0.7-0.3-1.2-0.3c-0.4,0-0.7,0.1-1,0.2
		c-0.3,0.2-0.5,0.4-0.7,0.7s-0.3,0.6-0.4,0.9c-0.1,0.4-0.1,0.7-0.1,1.1c0,0.4,0,0.7,0.1,1.1c0.1,0.4,0.2,0.7,0.4,1
		c0.2,0.3,0.4,0.5,0.7,0.7c0.3,0.2,0.7,0.3,1.1,0.3C46.8,257.6,47.2,257.5,47.5,257.3z"/>
	<path class="st1" d="M53.9,248.1v-2.3h2.8v2.3H53.9z M56.7,249.7V260h-2.8v-10.3H56.7z"/>
	<path class="st1" d="M61.7,249.7v1.4h0.1c0.4-0.6,0.8-1,1.4-1.3c0.6-0.3,1.2-0.4,1.8-0.4c0.8,0,1.4,0.1,1.9,0.3
		c0.5,0.2,0.9,0.5,1.1,0.9c0.3,0.4,0.5,0.8,0.6,1.3s0.2,1.1,0.2,1.8v6.4h-2.8v-5.8c0-0.9-0.1-1.5-0.4-1.9c-0.3-0.4-0.7-0.6-1.4-0.6
		c-0.8,0-1.3,0.2-1.7,0.7s-0.5,1.2-0.5,2.3v5.4H59v-10.3H61.7z"/>
	<path class="st1" d="M73.2,257.4c0.1,0.2,0.3,0.4,0.5,0.5c0.2,0.1,0.4,0.2,0.7,0.3c0.3,0.1,0.5,0.1,0.8,0.1c0.2,0,0.4,0,0.6-0.1
		c0.2,0,0.4-0.1,0.6-0.2c0.2-0.1,0.3-0.2,0.4-0.4c0.1-0.2,0.2-0.4,0.2-0.6c0-0.4-0.3-0.7-0.9-1s-1.4-0.4-2.4-0.6
		c-0.4-0.1-0.8-0.2-1.2-0.3c-0.4-0.1-0.7-0.3-1-0.5c-0.3-0.2-0.6-0.5-0.7-0.8c-0.2-0.3-0.3-0.7-0.3-1.1c0-0.7,0.1-1.2,0.4-1.6
		s0.6-0.8,1-1c0.4-0.2,0.9-0.4,1.4-0.5c0.5-0.1,1.1-0.1,1.6-0.1c0.6,0,1.1,0.1,1.6,0.2c0.5,0.1,1,0.3,1.4,0.5c0.4,0.3,0.8,0.6,1,1
		s0.4,1,0.5,1.6h-2.7c0-0.5-0.2-0.9-0.6-1.1c-0.4-0.2-0.8-0.3-1.3-0.3c-0.2,0-0.3,0-0.5,0s-0.4,0.1-0.5,0.1
		c-0.2,0.1-0.3,0.2-0.4,0.3c-0.1,0.1-0.2,0.3-0.2,0.5c0,0.3,0.1,0.5,0.3,0.6c0.2,0.2,0.4,0.3,0.7,0.4s0.6,0.2,1,0.3s0.8,0.2,1.2,0.3
		c0.4,0.1,0.8,0.2,1.2,0.3s0.7,0.3,1,0.5c0.3,0.2,0.6,0.5,0.7,0.8s0.3,0.7,0.3,1.2c0,0.7-0.1,1.2-0.4,1.7s-0.6,0.8-1.1,1.1
		c-0.4,0.3-0.9,0.5-1.5,0.6c-0.6,0.1-1.1,0.2-1.7,0.2c-0.6,0-1.2-0.1-1.8-0.2s-1.1-0.3-1.5-0.6c-0.4-0.3-0.8-0.6-1.1-1.1
		s-0.4-1-0.5-1.7H73C73,257,73.1,257.2,73.2,257.4z"/>
	<path class="st1" d="M96,260l-1.8-6.9h0l-1.8,6.9h-2.9l-3.3-10.3h3l1.9,7h0l1.7-7h2.8l1.8,7h0l1.9-7h2.9L99,260H96z"/>
	<path class="st1" d="M103.5,248.1v-2.3h2.8v2.3H103.5z M106.3,249.7V260h-2.8v-10.3H106.3z"/>
	<path class="st1" d="M114.3,249.7v1.9h-2.1v5.1c0,0.5,0.1,0.8,0.2,1c0.2,0.2,0.5,0.2,1,0.2c0.2,0,0.3,0,0.5,0c0.1,0,0.3,0,0.4-0.1
		v2.2c-0.2,0-0.5,0.1-0.8,0.1c-0.3,0-0.6,0-0.9,0c-0.4,0-0.9,0-1.2-0.1c-0.4-0.1-0.7-0.2-1-0.3c-0.3-0.2-0.5-0.4-0.7-0.7
		c-0.2-0.3-0.3-0.7-0.3-1.3v-6.1h-1.7v-1.9h1.7v-3.1h2.8v3.1H114.3z"/>
	<path class="st1" d="M118.5,245.7v5.4h0.1c0.4-0.6,0.8-1,1.4-1.3c0.6-0.3,1.1-0.4,1.6-0.4c0.8,0,1.4,0.1,1.9,0.3
		c0.5,0.2,0.9,0.5,1.1,0.9c0.3,0.4,0.5,0.8,0.6,1.3c0.1,0.5,0.2,1.1,0.2,1.8v6.4h-2.8v-5.8c0-0.9-0.1-1.5-0.4-1.9s-0.7-0.6-1.4-0.6
		c-0.8,0-1.3,0.2-1.7,0.7c-0.3,0.5-0.5,1.2-0.5,2.3v5.4h-2.8v-14.3H118.5z"/>
	<path class="st1" d="M132.9,252.9c0-0.7,0.2-1.2,0.5-1.7s0.7-0.8,1.1-1.1s1-0.5,1.5-0.6c0.6-0.1,1.1-0.2,1.7-0.2c0.5,0,1,0,1.6,0.1
		c0.5,0.1,1,0.2,1.5,0.4c0.4,0.2,0.8,0.5,1.1,0.9c0.3,0.4,0.4,0.9,0.4,1.5v5.4c0,0.5,0,0.9,0.1,1.3c0.1,0.4,0.1,0.7,0.3,1h-2.9
		c-0.1-0.2-0.1-0.3-0.1-0.5c0-0.2-0.1-0.3-0.1-0.5c-0.5,0.5-1,0.8-1.6,1s-1.2,0.3-1.9,0.3c-0.5,0-1-0.1-1.4-0.2s-0.8-0.3-1.1-0.6
		c-0.3-0.3-0.6-0.6-0.8-1s-0.3-0.8-0.3-1.4c0-0.6,0.1-1.1,0.3-1.5c0.2-0.4,0.5-0.7,0.8-0.9c0.3-0.2,0.7-0.4,1.1-0.5s0.8-0.2,1.3-0.3
		c0.4-0.1,0.8-0.1,1.3-0.2c0.4,0,0.8-0.1,1.1-0.2c0.3-0.1,0.6-0.2,0.8-0.4s0.3-0.4,0.3-0.7c0-0.3,0-0.6-0.1-0.7
		c-0.1-0.2-0.2-0.3-0.4-0.4c-0.2-0.1-0.4-0.2-0.6-0.2c-0.2,0-0.5-0.1-0.7-0.1c-0.6,0-1,0.1-1.3,0.4c-0.3,0.2-0.5,0.6-0.6,1.2H132.9z
		 M139.5,255c-0.1,0.1-0.3,0.2-0.4,0.2c-0.2,0.1-0.4,0.1-0.6,0.1c-0.2,0-0.4,0.1-0.7,0.1c-0.2,0-0.5,0.1-0.7,0.1
		c-0.2,0-0.4,0.1-0.6,0.2c-0.2,0.1-0.4,0.2-0.5,0.3s-0.3,0.3-0.4,0.4c-0.1,0.2-0.1,0.4-0.1,0.7c0,0.3,0,0.5,0.1,0.6
		c0.1,0.2,0.2,0.3,0.4,0.4s0.3,0.2,0.6,0.2c0.2,0,0.4,0.1,0.7,0.1c0.6,0,1-0.1,1.3-0.3c0.3-0.2,0.5-0.4,0.7-0.7
		c0.1-0.3,0.2-0.5,0.3-0.8s0-0.5,0-0.6V255z"/>
</g>
<g>
	<path class="st1" d="M26.8,279.1c0.1,0.2,0.3,0.4,0.5,0.5c0.2,0.1,0.4,0.2,0.7,0.3c0.3,0.1,0.5,0.1,0.8,0.1c0.2,0,0.4,0,0.6-0.1
		c0.2,0,0.4-0.1,0.6-0.2c0.2-0.1,0.3-0.2,0.5-0.4c0.1-0.2,0.2-0.4,0.2-0.6c0-0.4-0.3-0.7-0.8-1c-0.6-0.2-1.4-0.4-2.4-0.6
		c-0.4-0.1-0.8-0.2-1.2-0.3c-0.4-0.1-0.7-0.3-1.1-0.5c-0.3-0.2-0.6-0.5-0.7-0.8c-0.2-0.3-0.3-0.7-0.3-1.1c0-0.7,0.1-1.2,0.4-1.6
		c0.3-0.4,0.6-0.8,1-1c0.4-0.2,0.9-0.4,1.4-0.5c0.5-0.1,1.1-0.1,1.6-0.1s1.1,0.1,1.6,0.2c0.5,0.1,1,0.3,1.4,0.5s0.8,0.6,1,1
		c0.3,0.4,0.4,1,0.5,1.6h-2.7c0-0.5-0.2-0.9-0.6-1.1c-0.4-0.2-0.8-0.3-1.3-0.3c-0.2,0-0.3,0-0.5,0c-0.2,0-0.4,0.1-0.5,0.1
		c-0.2,0.1-0.3,0.2-0.4,0.3c-0.1,0.1-0.2,0.3-0.2,0.5c0,0.3,0.1,0.5,0.3,0.6c0.2,0.2,0.4,0.3,0.7,0.4c0.3,0.1,0.6,0.2,1,0.3
		c0.4,0.1,0.8,0.2,1.2,0.3c0.4,0.1,0.8,0.2,1.2,0.3s0.7,0.3,1.1,0.5c0.3,0.2,0.6,0.5,0.7,0.8s0.3,0.7,0.3,1.2c0,0.7-0.1,1.2-0.4,1.7
		c-0.3,0.5-0.6,0.8-1.1,1.1s-0.9,0.5-1.5,0.6c-0.6,0.1-1.1,0.2-1.7,0.2c-0.6,0-1.2-0.1-1.8-0.2c-0.6-0.1-1.1-0.3-1.5-0.6
		s-0.8-0.6-1.1-1.1s-0.4-1-0.5-1.7h2.7C26.6,278.7,26.6,278.9,26.8,279.1z"/>
	<path class="st1" d="M35.2,269.8v-2.3H38v2.3H35.2z M38,271.4v10.3h-2.8v-10.3H38z"/>
	<path class="st1" d="M43,271.4v1.4H43c0.4-0.6,0.8-1,1.4-1.3c0.6-0.3,1.2-0.4,1.8-0.4c0.8,0,1.4,0.1,1.9,0.3
		c0.5,0.2,0.9,0.5,1.1,0.9c0.3,0.4,0.5,0.8,0.6,1.3s0.2,1.1,0.2,1.8v6.4h-2.8v-5.8c0-0.9-0.1-1.5-0.4-1.9c-0.3-0.4-0.7-0.6-1.4-0.6
		c-0.8,0-1.3,0.2-1.7,0.7s-0.5,1.2-0.5,2.3v5.4h-2.8v-10.3H43z"/>
	<path class="st1" d="M61.9,282.5c-0.1,0.5-0.4,1-0.7,1.5c-0.4,0.5-0.9,0.9-1.6,1.2c-0.7,0.3-1.7,0.5-2.8,0.5c-0.5,0-1-0.1-1.6-0.2
		c-0.5-0.1-1-0.3-1.4-0.6c-0.4-0.3-0.8-0.6-1.1-1s-0.4-0.9-0.5-1.5H55c0.1,0.5,0.4,0.9,0.8,1.1c0.4,0.2,0.8,0.3,1.3,0.3
		c0.8,0,1.4-0.2,1.8-0.7s0.5-1.1,0.5-1.8v-1.4h0c-0.3,0.5-0.7,0.9-1.3,1.2c-0.6,0.3-1.2,0.4-1.8,0.4c-0.8,0-1.4-0.1-2-0.4
		c-0.6-0.3-1-0.6-1.4-1.1c-0.4-0.5-0.6-1-0.8-1.7c-0.2-0.6-0.2-1.3-0.2-2c0-0.7,0.1-1.3,0.3-1.9c0.2-0.6,0.5-1.2,0.9-1.6
		c0.4-0.5,0.8-0.9,1.4-1.1c0.6-0.3,1.2-0.4,1.9-0.4c0.7,0,1.3,0.1,1.8,0.4c0.5,0.3,0.9,0.7,1.3,1.3h0v-1.4h2.7v9.7
		C62.1,281.5,62,281.9,61.9,282.5z M58,279c0.3-0.2,0.6-0.4,0.8-0.6c0.2-0.3,0.3-0.6,0.4-0.9s0.1-0.7,0.1-1.1c0-0.4,0-0.8-0.1-1.2
		c-0.1-0.4-0.2-0.7-0.4-1c-0.2-0.3-0.4-0.5-0.7-0.7c-0.3-0.2-0.7-0.3-1.2-0.3c-0.4,0-0.7,0.1-1,0.2c-0.3,0.2-0.5,0.4-0.7,0.7
		s-0.3,0.6-0.4,0.9c-0.1,0.4-0.1,0.7-0.1,1.1c0,0.4,0,0.7,0.1,1.1c0.1,0.4,0.2,0.7,0.4,1c0.2,0.3,0.4,0.5,0.7,0.7
		c0.3,0.2,0.7,0.3,1.1,0.3C57.4,279.3,57.7,279.2,58,279z"/>
	<path class="st1" d="M67.3,267.4v14.3h-2.8v-14.3H67.3z"/>
	<path class="st1" d="M72.6,279.2c0.4,0.4,1,0.6,1.8,0.6c0.6,0,1.1-0.1,1.5-0.4c0.4-0.3,0.7-0.6,0.8-0.9h2.5c-0.4,1.2-1,2.1-1.8,2.7
		c-0.8,0.5-1.8,0.8-3,0.8c-0.8,0-1.5-0.1-2.2-0.4c-0.7-0.3-1.2-0.6-1.7-1.1c-0.5-0.5-0.8-1.1-1-1.7c-0.2-0.7-0.4-1.4-0.4-2.2
		c0-0.8,0.1-1.5,0.4-2.2s0.6-1.2,1.1-1.7s1-0.9,1.7-1.2c0.6-0.3,1.4-0.4,2.2-0.4c0.9,0,1.6,0.2,2.3,0.5c0.7,0.3,1.2,0.8,1.6,1.4
		c0.4,0.6,0.7,1.2,0.9,2s0.3,1.5,0.2,2.3h-7.5C71.9,278.2,72.1,278.8,72.6,279.2z M75.8,273.8c-0.3-0.4-0.9-0.6-1.5-0.6
		c-0.5,0-0.8,0.1-1.1,0.2c-0.3,0.2-0.5,0.3-0.7,0.6c-0.2,0.2-0.3,0.5-0.4,0.7c-0.1,0.3-0.1,0.5-0.1,0.7h4.6
		C76.3,274.7,76.1,274.2,75.8,273.8z"/>
	<path class="st1" d="M89.3,278.2c0.2,0.3,0.4,0.6,0.7,0.8c0.3,0.2,0.6,0.4,1,0.5c0.4,0.1,0.8,0.1,1.2,0.1c0.3,0,0.6,0,0.9-0.1
		s0.6-0.1,0.9-0.3c0.3-0.1,0.5-0.3,0.7-0.6c0.2-0.2,0.3-0.5,0.3-0.9c0-0.4-0.1-0.7-0.4-0.9c-0.2-0.2-0.6-0.4-1-0.6
		c-0.4-0.2-0.9-0.3-1.4-0.4c-0.5-0.1-1-0.3-1.5-0.4c-0.5-0.1-1.1-0.3-1.6-0.5s-1-0.4-1.4-0.8c-0.4-0.3-0.7-0.7-1-1.1
		c-0.2-0.5-0.4-1-0.4-1.7c0-0.7,0.2-1.4,0.5-1.9s0.7-1,1.2-1.4s1.1-0.6,1.7-0.8s1.3-0.3,1.9-0.3c0.7,0,1.5,0.1,2.2,0.2
		c0.7,0.2,1.3,0.4,1.8,0.8c0.5,0.4,1,0.9,1.3,1.4s0.5,1.3,0.5,2.1h-3c0-0.4-0.1-0.8-0.3-1.1c-0.2-0.3-0.4-0.5-0.6-0.7
		c-0.3-0.2-0.5-0.3-0.9-0.3c-0.3-0.1-0.7-0.1-1.1-0.1c-0.3,0-0.5,0-0.8,0.1c-0.3,0.1-0.5,0.1-0.7,0.3s-0.4,0.3-0.5,0.5
		c-0.1,0.2-0.2,0.5-0.2,0.8c0,0.3,0.1,0.5,0.2,0.7c0.1,0.2,0.3,0.3,0.6,0.5c0.3,0.1,0.7,0.3,1.3,0.4c0.6,0.1,1.3,0.3,2.2,0.6
		c0.3,0.1,0.6,0.1,1.1,0.3c0.5,0.1,0.9,0.4,1.4,0.7c0.5,0.3,0.9,0.7,1.2,1.2s0.5,1.2,0.5,2c0,0.7-0.1,1.3-0.4,1.8
		c-0.3,0.6-0.6,1-1.1,1.4c-0.5,0.4-1.1,0.7-1.9,1S93,282,92,282c-0.8,0-1.5-0.1-2.3-0.3c-0.7-0.2-1.4-0.5-2-0.9
		c-0.6-0.4-1-0.9-1.3-1.6s-0.5-1.4-0.5-2.3h3C89,277.5,89.1,277.9,89.3,278.2z"/>
	<path class="st1" d="M98.7,270.1v-2.6h11.7v2.6h-4.3v11.6H103v-11.6H98.7z"/>
	<path class="st1" d="M122.7,267.4v2.6h-7.5v3.1h6.9v2.4h-6.9v3.5h7.7v2.6h-10.8v-14.3H122.7z"/>
	<path class="st1" d="M131.5,267.4c0.9,0,1.7,0.1,2.3,0.4c0.6,0.3,1.1,0.6,1.5,1s0.7,0.9,0.9,1.5c0.2,0.5,0.3,1.1,0.3,1.7
		c0,0.6-0.1,1.1-0.3,1.7c-0.2,0.6-0.5,1-0.9,1.5s-0.9,0.8-1.5,1c-0.6,0.3-1.4,0.4-2.3,0.4h-3.3v5.1H125v-14.3H131.5z M130.6,274.2
		c0.4,0,0.7,0,1-0.1c0.3-0.1,0.6-0.2,0.9-0.3c0.3-0.2,0.5-0.4,0.6-0.6c0.2-0.3,0.2-0.6,0.2-1.1c0-0.5-0.1-0.8-0.2-1.1
		c-0.2-0.3-0.4-0.5-0.6-0.7c-0.3-0.2-0.5-0.3-0.9-0.3s-0.7-0.1-1-0.1h-2.4v4.3H130.6z"/>
</g>
</svg>
