<?xml version="1.0" encoding="utf-8"?>
<!-- Generator: Adobe Illustrator 25.4.6, SVG Export Plug-In . SVG Version: 6.00 Build 0)  -->
<svg version="1.1" id="Layer_1" xmlns="http://www.w3.org/2000/svg" xmlns:xlink="http://www.w3.org/1999/xlink" x="0px" y="0px"
	 viewBox="0 0 160 600" style="enable-background:new 0 0 160 600;" xml:space="preserve">
<style type="text/css">
	.st0{clip-path:url(#SVGID_00000083772768237605931760000000374383987566345137_);fill:#231F20;}
	.st1{clip-path:url(#SVGID_00000083772768237605931760000000374383987566345137_);fill:#00B2EE;}
</style>
<g>
	<defs>
		<rect id="SVGID_1_" x="54.9" y="19.5" width="51.4" height="17.5"/>
	</defs>
	<clipPath id="SVGID_00000011727543060105507540000009013629046994935697_">
		<use xlink:href="#SVGID_1_"  style="overflow:visible;"/>
	</clipPath>
	<path style="clip-path:url(#SVGID_00000011727543060105507540000009013629046994935697_);fill:#231F20;" d="M55.2,28.9H58
		c2.2,0,2.6,1.4,2.6,2.4c0,0.9-0.4,2.4-2.6,2.4h-1.4v2.9h-1.3V28.9z M56.6,32.5h1.3c0.6,0,1.3-0.3,1.3-1.3c0-1-0.6-1.3-1.3-1.3h-1.4
		V32.5z"/>
	<path style="clip-path:url(#SVGID_00000011727543060105507540000009013629046994935697_);fill:#231F20;" d="M61.4,31h1.1v1.1h0
		c0.1-0.6,0.9-1.2,1.6-1.2c0.3,0,0.4,0,0.5,0v1.2c-0.2,0-0.4-0.1-0.5-0.1c-0.8,0-1.5,0.7-1.5,1.9v2.6h-1.2V31z"/>
	<path style="clip-path:url(#SVGID_00000011727543060105507540000009013629046994935697_);fill:#231F20;" d="M64.8,33.8
		c0-1.7,1-2.9,2.8-2.9s2.8,1.2,2.8,2.9c0,1.7-1,2.9-2.8,2.9S64.8,35.5,64.8,33.8 M69.2,33.8c0-1-0.5-2-1.6-2s-1.6,1-1.6,2
		c0,1,0.5,2,1.6,2S69.2,34.7,69.2,33.8"/>
	<path style="clip-path:url(#SVGID_00000011727543060105507540000009013629046994935697_);fill:#231F20;" d="M70.6,31h1v-1.7h1.2V31
		h1.1v0.9h-1.1v3c0,0.5,0,0.8,0.6,0.8c0.2,0,0.3,0,0.5,0v0.9c-0.3,0-0.5,0.1-0.8,0.1c-1.3,0-1.5-0.5-1.5-1.4v-3.3h-0.9V31z"/>
	<path style="clip-path:url(#SVGID_00000011727543060105507540000009013629046994935697_);fill:#231F20;" d="M75.6,34.1
		c0,0.9,0.5,1.6,1.5,1.6c0.7,0,1.1-0.3,1.4-0.9h1.2c-0.3,1.2-1.3,1.9-2.5,1.9c-1.7,0-2.7-1.2-2.7-2.9c0-1.6,1-2.9,2.7-2.9
		c1.8,0,2.8,1.6,2.6,3.2H75.6z M78.5,33.3c0-0.8-0.6-1.5-1.4-1.5c-0.8,0-1.4,0.6-1.5,1.5H78.5z"/>
	<path style="clip-path:url(#SVGID_00000011727543060105507540000009013629046994935697_);fill:#231F20;" d="M84.3,32.8
		c-0.1-0.7-0.6-1-1.3-1c-0.6,0-1.5,0.3-1.5,2c0,0.9,0.4,1.9,1.5,1.9c0.7,0,1.2-0.5,1.3-1.3h1.2c-0.2,1.4-1.1,2.2-2.5,2.2
		c-1.7,0-2.7-1.2-2.7-2.9c0-1.7,0.9-3,2.7-3c1.3,0,2.4,0.6,2.5,2H84.3z"/>
	<path style="clip-path:url(#SVGID_00000011727543060105507540000009013629046994935697_);fill:#231F20;" d="M85.8,31h0.9v-1.7H88
		V31h1.1v0.9H88v3c0,0.5,0,0.8,0.6,0.8c0.2,0,0.3,0,0.5,0v0.9c-0.3,0-0.5,0.1-0.8,0.1c-1.3,0-1.5-0.5-1.5-1.4v-3.3h-0.9V31z"/>
	<path style="clip-path:url(#SVGID_00000011727543060105507540000009013629046994935697_);fill:#231F20;" d="M90.5,28.9h1.2V30h-1.2
		V28.9z M90.5,31h1.2v5.5h-1.2V31z"/>
	<polygon style="clip-path:url(#SVGID_00000011727543060105507540000009013629046994935697_);fill:#231F20;" points="92.6,31 
		93.9,31 95.7,35.3 95.7,35.3 97.4,31 98.6,31 96.3,36.5 94.9,36.5 	"/>
	<path style="clip-path:url(#SVGID_00000011727543060105507540000009013629046994935697_);fill:#231F20;" d="M100.2,34.1
		c0,0.9,0.5,1.6,1.5,1.6c0.7,0,1.1-0.3,1.4-0.9h1.2c-0.3,1.2-1.3,1.9-2.5,1.9c-1.7,0-2.7-1.2-2.7-2.9c0-1.6,1-2.9,2.7-2.9
		c1.7,0,2.8,1.6,2.6,3.2H100.2z M103,33.3c0-0.8-0.6-1.5-1.4-1.5c-0.8,0-1.4,0.6-1.5,1.5H103z"/>
	<path style="clip-path:url(#SVGID_00000011727543060105507540000009013629046994935697_);fill:#00B2EE;" d="M88.2,27.6
		c-0.8-3.1-3.2-5.4-6.3-6.2c-0.3-0.9-1.2-1.6-2.2-1.6c-1,0-1.9,0.7-2.2,1.6c-3,0.8-5.5,3.2-6.3,6.2L71.2,28h1.9l0.1-0.2
		c0.7-2.2,2.5-3.9,4.7-4.6c0.4,0.7,1.1,1.1,2,1.1s1.6-0.5,2-1.1c2.2,0.6,4,2.3,4.7,4.6l0.1,0.2h1.9L88.2,27.6z"/>
	<path style="clip-path:url(#SVGID_00000011727543060105507540000009013629046994935697_);fill:#231F20;" d="M105.5,35.6
		c0.3,0,0.5,0.2,0.5,0.5c0,0.3-0.2,0.5-0.5,0.5c-0.3,0-0.5-0.2-0.5-0.5C105,35.8,105.2,35.6,105.5,35.6 M106,36.1
		c0-0.3-0.2-0.5-0.4-0.5s-0.4,0.2-0.4,0.5c0,0.3,0.2,0.5,0.4,0.5S106,36.4,106,36.1 M105.3,35.8h0.2c0.1,0,0.2,0.1,0.2,0.2
		c0,0.1-0.1,0.2-0.2,0.2l0.2,0.3h-0.1l-0.2-0.3h-0.1v0.3h-0.1V35.8z M105.5,36.1c0.1,0,0.2,0,0.2-0.1c0-0.1-0.1-0.1-0.1-0.1h-0.1
		v0.2H105.5z"/>
</g>
</svg>
