<?xml version="1.0" encoding="utf-8"?>
<!-- Generator: Adobe Illustrator 25.4.6, SVG Export Plug-In . SVG Version: 6.00 Build 0)  -->
<svg version="1.1" id="Layer_1" xmlns="http://www.w3.org/2000/svg" xmlns:xlink="http://www.w3.org/1999/xlink" x="0px" y="0px"
	 viewBox="0 0 160 600" style="enable-background:new 0 0 160 600;" xml:space="preserve">
<style type="text/css">
	.st0{fill:#339933;}
</style>
<g>
	<path class="st0" d="M11,459.1c0.2-0.6,0.5-1.1,0.9-1.5c0.4-0.4,0.8-0.8,1.4-1s1.2-0.4,1.9-0.4c0.7,0,1.3,0.1,1.9,0.4
		c0.6,0.2,1,0.6,1.4,1c0.4,0.4,0.7,0.9,0.9,1.5c0.2,0.6,0.3,1.2,0.3,1.9c0,0.7-0.1,1.3-0.3,1.8c-0.2,0.6-0.5,1.1-0.9,1.5
		c-0.4,0.4-0.8,0.8-1.4,1c-0.6,0.2-1.2,0.4-1.9,0.4c-0.7,0-1.3-0.1-1.9-0.4c-0.6-0.2-1-0.6-1.4-1c-0.4-0.4-0.7-0.9-0.9-1.5
		c-0.2-0.6-0.3-1.2-0.3-1.8C10.7,460.3,10.8,459.7,11,459.1z M12.8,462.1c0.1,0.4,0.2,0.7,0.4,1s0.4,0.5,0.8,0.7
		c0.3,0.2,0.7,0.3,1.1,0.3c0.4,0,0.8-0.1,1.1-0.3s0.6-0.4,0.8-0.7c0.2-0.3,0.3-0.6,0.4-1c0.1-0.4,0.1-0.7,0.1-1.1
		c0-0.4,0-0.8-0.1-1.2c-0.1-0.4-0.2-0.7-0.4-1c-0.2-0.3-0.4-0.5-0.8-0.7s-0.7-0.3-1.1-0.3c-0.4,0-0.8,0.1-1.1,0.3
		c-0.3,0.2-0.6,0.4-0.8,0.7c-0.2,0.3-0.3,0.6-0.4,1c-0.1,0.4-0.1,0.8-0.1,1.2C12.7,461.4,12.8,461.8,12.8,462.1z"/>
	<path class="st0" d="M22.5,458.9v0.9h0c0.2-0.4,0.5-0.7,0.9-0.8c0.4-0.2,0.7-0.3,1.1-0.3c0.5,0,0.9,0.1,1.2,0.2
		c0.3,0.1,0.6,0.3,0.7,0.5c0.2,0.2,0.3,0.5,0.4,0.9c0.1,0.3,0.1,0.7,0.1,1.1v4h-1.8v-3.7c0-0.5-0.1-0.9-0.3-1.2
		c-0.2-0.3-0.5-0.4-0.9-0.4c-0.5,0-0.8,0.1-1.1,0.4c-0.2,0.3-0.3,0.8-0.3,1.4v3.4h-1.8v-6.6H22.5z"/>
	<path class="st0" d="M30.2,456.4v9.1h-1.8v-9.1H30.2z"/>
	<path class="st0" d="M34.1,467.5c-0.3,0.2-0.8,0.3-1.4,0.3c-0.2,0-0.4,0-0.6,0c-0.2,0-0.4,0-0.6,0v-1.5c0.2,0,0.3,0,0.5,0.1
		c0.2,0,0.4,0,0.5,0c0.2,0,0.4-0.1,0.5-0.3c0.1-0.2,0.2-0.3,0.2-0.5c0-0.1,0-0.3-0.1-0.4l-2.3-6.2h1.9l1.5,4.5h0l1.4-4.5h1.9
		l-2.7,7.4C34.7,466.9,34.4,467.2,34.1,467.5z"/>
	<path class="st0" d="M41.1,460.1v-1.2h1.1v-0.5c0-0.6,0.2-1.1,0.5-1.4c0.4-0.4,0.9-0.6,1.7-0.6c0.2,0,0.3,0,0.5,0
		c0.2,0,0.3,0,0.5,0v1.3c-0.2,0-0.4,0-0.7,0c-0.2,0-0.4,0.1-0.5,0.2s-0.2,0.3-0.2,0.6v0.4h1.2v1.2H44v5.4h-1.8v-5.4H41.1z"/>
	<path class="st0" d="M46,460.8c0.2-0.4,0.4-0.8,0.7-1.1c0.3-0.3,0.7-0.5,1.1-0.7c0.4-0.2,0.9-0.2,1.4-0.2s1,0.1,1.4,0.2
		c0.4,0.2,0.8,0.4,1.1,0.7s0.5,0.7,0.7,1.1c0.2,0.4,0.2,0.9,0.2,1.4c0,0.5-0.1,1-0.2,1.4s-0.4,0.8-0.7,1.1s-0.7,0.5-1.1,0.7
		c-0.4,0.2-0.9,0.2-1.4,0.2s-1-0.1-1.4-0.2s-0.8-0.4-1.1-0.7c-0.3-0.3-0.5-0.7-0.7-1.1s-0.2-0.9-0.2-1.4
		C45.8,461.7,45.9,461.2,46,460.8z M47.7,463c0.1,0.2,0.1,0.5,0.3,0.7c0.1,0.2,0.3,0.4,0.5,0.5c0.2,0.1,0.5,0.2,0.8,0.2
		s0.6-0.1,0.8-0.2c0.2-0.1,0.4-0.3,0.5-0.5c0.1-0.2,0.2-0.4,0.3-0.7s0.1-0.5,0.1-0.8s0-0.5-0.1-0.8c-0.1-0.3-0.1-0.5-0.3-0.7
		c-0.1-0.2-0.3-0.4-0.5-0.5c-0.2-0.1-0.5-0.2-0.8-0.2s-0.6,0.1-0.8,0.2c-0.2,0.1-0.4,0.3-0.5,0.5c-0.1,0.2-0.2,0.4-0.3,0.7
		c-0.1,0.3-0.1,0.5-0.1,0.8S47.6,462.7,47.7,463z"/>
	<path class="st0" d="M55.5,458.9v1.2h0c0.1-0.2,0.2-0.4,0.3-0.6s0.3-0.3,0.5-0.4s0.4-0.2,0.6-0.3c0.2-0.1,0.4-0.1,0.7-0.1
		c0.1,0,0.2,0,0.4,0.1v1.7c-0.1,0-0.2,0-0.3,0s-0.2,0-0.3,0c-0.3,0-0.6,0.1-0.8,0.2c-0.2,0.1-0.4,0.3-0.6,0.5
		c-0.1,0.2-0.2,0.4-0.3,0.7c-0.1,0.3-0.1,0.5-0.1,0.8v3h-1.8v-6.6H55.5z"/>
	<path class="st0" d="M67,456.4l3.4,9.1h-2.1l-0.7-2h-3.4l-0.7,2h-2l3.4-9.1H67z M67.1,462l-1.1-3.3h0l-1.2,3.3H67.1z"/>
	<path class="st0" d="M75.1,456.4c0.6,0,1.1,0.1,1.6,0.3c0.5,0.2,0.9,0.5,1.3,0.8s0.7,0.8,0.9,1.4c0.2,0.6,0.3,1.2,0.3,2
		c0,0.7-0.1,1.3-0.3,1.8s-0.4,1-0.8,1.5c-0.3,0.4-0.8,0.7-1.3,1c-0.5,0.2-1.1,0.3-1.8,0.3h-3.9v-9.1H75.1z M74.9,463.8
		c0.3,0,0.6,0,0.8-0.1c0.3-0.1,0.5-0.2,0.7-0.5c0.2-0.2,0.4-0.5,0.5-0.8s0.2-0.8,0.2-1.3c0-0.5,0-0.9-0.1-1.2
		c-0.1-0.4-0.2-0.7-0.4-0.9s-0.5-0.5-0.8-0.6c-0.3-0.1-0.7-0.2-1.2-0.2h-1.4v5.7H74.9z"/>
	<path class="st0" d="M85.1,456.4l3.4,9.1h-2.1l-0.7-2h-3.4l-0.7,2h-2l3.4-9.1H85.1z M85.2,462l-1.1-3.3h0l-1.2,3.3H85.2z"/>
	<path class="st0" d="M95.6,456.4l2.1,6.2h0l2-6.2h2.8v9.1h-1.9v-6.4h0l-2.2,6.4h-1.5l-2.2-6.4h0v6.4h-1.9v-9.1H95.6z"/>
	<path class="st0" d="M106.1,463.9c0.3,0.3,0.7,0.4,1.2,0.4c0.4,0,0.7-0.1,0.9-0.3c0.3-0.2,0.4-0.4,0.5-0.6h1.6
		c-0.3,0.8-0.6,1.4-1.2,1.7c-0.5,0.3-1.2,0.5-1.9,0.5c-0.5,0-1-0.1-1.4-0.2c-0.4-0.2-0.8-0.4-1.1-0.7c-0.3-0.3-0.5-0.7-0.7-1.1
		c-0.2-0.4-0.2-0.9-0.2-1.4c0-0.5,0.1-1,0.2-1.4s0.4-0.8,0.7-1.1s0.7-0.6,1.1-0.7s0.9-0.3,1.4-0.3c0.6,0,1,0.1,1.5,0.3
		c0.4,0.2,0.8,0.5,1,0.9c0.3,0.4,0.5,0.8,0.6,1.2c0.1,0.5,0.2,1,0.1,1.5h-4.7C105.7,463.2,105.8,463.7,106.1,463.9z M108.1,460.5
		c-0.2-0.2-0.5-0.4-1-0.4c-0.3,0-0.5,0-0.7,0.1c-0.2,0.1-0.3,0.2-0.5,0.4c-0.1,0.1-0.2,0.3-0.2,0.5s-0.1,0.3-0.1,0.4h2.9
		C108.5,461.1,108.4,460.7,108.1,460.5z"/>
	<path class="st0" d="M113.2,458.9v0.9h0c0.2-0.3,0.5-0.6,0.9-0.8s0.7-0.3,1.2-0.3c0.4,0,0.8,0.1,1.1,0.2c0.3,0.2,0.6,0.4,0.8,0.9
		c0.2-0.3,0.5-0.5,0.8-0.8c0.3-0.2,0.7-0.3,1.2-0.3c0.3,0,0.7,0,1,0.1c0.3,0.1,0.6,0.2,0.8,0.4s0.4,0.4,0.5,0.7
		c0.1,0.3,0.2,0.7,0.2,1.1v4.4h-1.8v-3.7c0-0.2,0-0.4,0-0.6c0-0.2-0.1-0.4-0.1-0.5s-0.2-0.3-0.3-0.3c-0.1-0.1-0.3-0.1-0.6-0.1
		c-0.3,0-0.5,0-0.6,0.1c-0.2,0.1-0.3,0.2-0.4,0.4c-0.1,0.2-0.1,0.3-0.2,0.5c0,0.2,0,0.4,0,0.6v3.7h-1.8v-3.7c0-0.2,0-0.4,0-0.6
		c0-0.2,0-0.4-0.1-0.5s-0.2-0.3-0.3-0.4s-0.4-0.1-0.7-0.1c-0.1,0-0.2,0-0.3,0.1s-0.3,0.1-0.4,0.2c-0.1,0.1-0.2,0.3-0.3,0.5
		c-0.1,0.2-0.1,0.5-0.1,0.8v3.8h-1.8v-6.6H113.2z"/>
	<path class="st0" d="M124.8,456.4v3.3h0c0.2-0.3,0.5-0.6,0.9-0.7c0.4-0.2,0.8-0.2,1.2-0.2c0.3,0,0.7,0.1,1,0.2s0.6,0.3,0.9,0.6
		c0.3,0.3,0.5,0.6,0.6,1.1c0.2,0.4,0.2,1,0.2,1.6c0,0.6-0.1,1.1-0.2,1.6s-0.4,0.8-0.6,1.1c-0.3,0.3-0.5,0.5-0.9,0.6s-0.6,0.2-1,0.2
		c-0.5,0-0.9-0.1-1.3-0.2c-0.4-0.2-0.7-0.4-0.9-0.8h0v0.8H123v-9.1H124.8z M127.7,461.4c-0.1-0.3-0.2-0.5-0.3-0.7
		c-0.1-0.2-0.3-0.3-0.5-0.5c-0.2-0.1-0.4-0.2-0.7-0.2c-0.3,0-0.5,0.1-0.7,0.2c-0.2,0.1-0.4,0.3-0.5,0.5c-0.1,0.2-0.2,0.4-0.3,0.7
		c-0.1,0.3-0.1,0.5-0.1,0.8c0,0.3,0,0.5,0.1,0.8c0.1,0.3,0.2,0.5,0.3,0.7c0.1,0.2,0.3,0.3,0.5,0.5c0.2,0.1,0.4,0.2,0.7,0.2
		c0.3,0,0.5-0.1,0.7-0.2c0.2-0.1,0.3-0.3,0.5-0.5c0.1-0.2,0.2-0.4,0.3-0.7c0.1-0.3,0.1-0.5,0.1-0.8
		C127.8,461.9,127.8,461.7,127.7,461.4z"/>
	<path class="st0" d="M132.7,463.9c0.3,0.3,0.7,0.4,1.2,0.4c0.4,0,0.7-0.1,0.9-0.3c0.3-0.2,0.4-0.4,0.5-0.6h1.6
		c-0.3,0.8-0.6,1.4-1.2,1.7c-0.5,0.3-1.2,0.5-1.9,0.5c-0.5,0-1-0.1-1.4-0.2c-0.4-0.2-0.8-0.4-1.1-0.7c-0.3-0.3-0.5-0.7-0.7-1.1
		c-0.2-0.4-0.2-0.9-0.2-1.4c0-0.5,0.1-1,0.2-1.4s0.4-0.8,0.7-1.1s0.7-0.6,1.1-0.7s0.9-0.3,1.4-0.3c0.6,0,1,0.1,1.5,0.3
		c0.4,0.2,0.8,0.5,1,0.9c0.3,0.4,0.5,0.8,0.6,1.2c0.1,0.5,0.2,1,0.1,1.5h-4.7C132.3,463.2,132.4,463.7,132.7,463.9z M134.7,460.5
		c-0.2-0.2-0.5-0.4-1-0.4c-0.3,0-0.5,0-0.7,0.1c-0.2,0.1-0.3,0.2-0.5,0.4c-0.1,0.1-0.2,0.3-0.2,0.5s-0.1,0.3-0.1,0.4h2.9
		C135.1,461.1,134.9,460.7,134.7,460.5z"/>
	<path class="st0" d="M139.8,458.9v1.2h0c0.1-0.2,0.2-0.4,0.3-0.6c0.1-0.2,0.3-0.3,0.5-0.4s0.4-0.2,0.6-0.3c0.2-0.1,0.4-0.1,0.7-0.1
		c0.1,0,0.2,0,0.4,0.1v1.7c-0.1,0-0.2,0-0.3,0c-0.1,0-0.2,0-0.3,0c-0.3,0-0.6,0.1-0.8,0.2c-0.2,0.1-0.4,0.3-0.6,0.5
		c-0.1,0.2-0.2,0.4-0.3,0.7c-0.1,0.3-0.1,0.5-0.1,0.8v3H138v-6.6H139.8z"/>
	<path class="st0" d="M144.5,463.9c0.1,0.1,0.2,0.3,0.3,0.3s0.3,0.2,0.4,0.2c0.2,0,0.3,0.1,0.5,0.1c0.1,0,0.3,0,0.4,0
		c0.1,0,0.3-0.1,0.4-0.1c0.1-0.1,0.2-0.1,0.3-0.3c0.1-0.1,0.1-0.2,0.1-0.4c0-0.3-0.2-0.5-0.5-0.6s-0.9-0.3-1.5-0.4
		c-0.3-0.1-0.5-0.1-0.8-0.2c-0.3-0.1-0.5-0.2-0.7-0.3c-0.2-0.1-0.4-0.3-0.5-0.5s-0.2-0.4-0.2-0.7c0-0.4,0.1-0.8,0.2-1
		c0.2-0.3,0.4-0.5,0.7-0.6s0.6-0.3,0.9-0.3c0.3-0.1,0.7-0.1,1-0.1c0.4,0,0.7,0,1,0.1c0.3,0.1,0.6,0.2,0.9,0.3
		c0.3,0.2,0.5,0.4,0.7,0.6c0.2,0.3,0.3,0.6,0.3,1h-1.7c0-0.3-0.2-0.6-0.4-0.7s-0.5-0.2-0.8-0.2c-0.1,0-0.2,0-0.3,0
		c-0.1,0-0.2,0-0.3,0.1s-0.2,0.1-0.2,0.2c-0.1,0.1-0.1,0.2-0.1,0.3c0,0.2,0.1,0.3,0.2,0.4c0.1,0.1,0.3,0.2,0.5,0.2
		c0.2,0.1,0.4,0.1,0.7,0.2s0.5,0.1,0.8,0.2c0.3,0.1,0.5,0.1,0.8,0.2s0.5,0.2,0.7,0.3c0.2,0.1,0.4,0.3,0.5,0.5
		c0.1,0.2,0.2,0.5,0.2,0.8c0,0.4-0.1,0.8-0.3,1.1c-0.2,0.3-0.4,0.5-0.7,0.7c-0.3,0.2-0.6,0.3-1,0.4c-0.4,0.1-0.7,0.1-1.1,0.1
		c-0.4,0-0.8,0-1.1-0.1s-0.7-0.2-1-0.4c-0.3-0.2-0.5-0.4-0.7-0.7c-0.2-0.3-0.3-0.7-0.3-1.1h1.7C144.4,463.6,144.4,463.7,144.5,463.9
		z"/>
</g>
</svg>
