<svg xmlns="http://www.w3.org/2000/svg" viewBox="0 0 160 600"><path d="M15.7 133.3v9.4l8.9-9.4h6.3l-8.9 9 9.8 13.8h-6.3l-6.9-10.2-2.9 2.9v7.3h-5v-22.8h5zM38.1 152.1c.7.7 1.7 1 2.9 1 .9 0 1.7-.2 2.4-.7.7-.5 1.1-.9 1.2-1.5h4c-.6 2-1.6 3.4-2.9 4.2-1.3.9-2.9 1.3-4.8 1.3-1.3 0-2.5-.2-3.5-.6-1-.4-1.9-1-2.6-1.8-.7-.8-1.3-1.7-1.7-2.7-.4-1.1-.6-2.2-.6-3.5 0-1.2.2-2.4.6-3.4.4-1.1 1-2 1.7-2.8.7-.8 1.6-1.4 2.7-1.8 1-.4 2.2-.7 3.4-.7 1.4 0 2.6.3 3.7.8 1 .5 1.9 1.3 2.6 2.2.7.9 1.2 2 1.5 3.1.3 1.2.4 2.4.3 3.7H37c0 1.5.4 2.6 1.1 3.2zm5.1-8.6c-.5-.6-1.4-.9-2.5-.9-.7 0-1.3.1-1.8.4-.5.2-.9.5-1.1.9-.3.4-.5.7-.6 1.1-.1.4-.2.8-.2 1.1h7.4c-.3-1.2-.7-2-1.2-2.6zM56.4 152.1c.7.7 1.7 1 2.9 1 .9 0 1.7-.2 2.4-.7.7-.5 1.1-.9 1.2-1.5h4c-.6 2-1.6 3.4-2.9 4.2-1.3.9-2.9 1.3-4.8 1.3-1.3 0-2.5-.2-3.5-.6-1-.4-1.9-1-2.6-1.8-.7-.8-1.3-1.7-1.7-2.7-.4-1.1-.6-2.2-.6-3.5 0-1.2.2-2.4.6-3.4.4-1.1 1-2 1.7-2.8.7-.8 1.6-1.4 2.7-1.8 1-.4 2.2-.7 3.4-.7 1.4 0 2.6.3 3.7.8 1 .5 1.9 1.3 2.6 2.2.7.9 1.2 2 1.5 3.1.3 1.2.4 2.4.3 3.7h-12c0 1.5.4 2.6 1.1 3.2zm5.1-8.6c-.5-.6-1.4-.9-2.5-.9-.7 0-1.3.1-1.8.4-.5.2-.9.5-1.1.9-.3.4-.5.7-.6 1.1-.1.4-.2.8-.2 1.1h7.4c-.3-1.2-.7-2-1.2-2.6zM74.2 139.6v2.1h.1c.6-.9 1.3-1.5 2.1-1.9s1.8-.6 2.8-.6c1.3 0 2.4.2 3.3.7s1.7 1.1 2.3 1.9c.6.8 1.1 1.7 1.4 2.8.3 1.1.4 2.2.4 3.4 0 1.1-.1 2.2-.4 3.2-.3 1-.8 1.9-1.4 2.7-.6.8-1.4 1.4-2.3 1.9-.9.5-2 .7-3.2.7-1 0-2-.2-2.8-.6-.9-.4-1.6-1-2.1-1.8h-.1v7.8h-4.5v-22.3h4.4zm5.8 13.1c.5-.3.9-.7 1.2-1.2.3-.5.5-1 .7-1.7.1-.6.2-1.3.2-1.9s-.1-1.3-.2-1.9c-.1-.6-.4-1.2-.7-1.7s-.7-.9-1.2-1.2c-.5-.3-1.1-.5-1.8-.5s-1.4.2-1.9.5-.9.7-1.2 1.2c-.3.5-.5 1.1-.7 1.7-.1.6-.2 1.3-.2 2s.1 1.3.2 1.9c.1.6.4 1.2.7 1.7s.7.9 1.2 1.2 1.1.4 1.9.4c.7-.1 1.3-.2 1.8-.5z"/><g><path d="M25.3 173.2c-.3-.5-.7-.9-1.1-1.3-.4-.4-1-.6-1.5-.8-.6-.2-1.2-.3-1.8-.3-1.1 0-2.1.2-2.9.7-.8.4-1.4 1-1.9 1.8-.5.7-.8 1.6-1.1 2.5-.2.9-.3 1.9-.3 2.9s.1 1.9.3 2.8c.2.9.6 1.7 1.1 2.4.5.7 1.1 1.3 1.9 1.7.8.4 1.7.7 2.9.7 1.5 0 2.7-.5 3.6-1.4.9-.9 1.4-2.2 1.6-3.7h4.8c-.1 1.4-.5 2.7-1 3.9s-1.2 2.1-2.1 2.9c-.9.8-1.9 1.4-3.1 1.9-1.2.4-2.5.6-3.9.6-1.7 0-3.3-.3-4.7-.9-1.4-.6-2.6-1.4-3.5-2.5-1-1.1-1.7-2.3-2.2-3.7-.5-1.4-.8-3-.8-4.6 0-1.7.3-3.3.8-4.7.5-1.5 1.2-2.7 2.2-3.8s2.1-1.9 3.5-2.6 3-.9 4.7-.9c1.3 0 2.4.2 3.6.5 1.1.4 2.1.9 3 1.6.9.7 1.6 1.5 2.2 2.6.6 1 .9 2.2 1.1 3.5h-4.8c-.1-.8-.3-1.4-.6-1.8zM45.7 167.1l8.5 22.8H49l-1.7-5.1h-8.5l-1.8 5.1h-5l8.6-22.8h5.1zM46 181l-2.9-8.4H43l-3 8.4h6zM61.2 167.1v18.6h11.1v4.2H56.2v-22.8h5zM82.1 167.1l5.3 15.7h.1l5-15.7h7v22.8h-4.7v-16.1h-.1l-5.6 16.1h-3.9l-5.6-16h-.1v16h-4.7v-22.8h7.3z"/></g></svg>