<svg id="Layer_1" xmlns="http://www.w3.org/2000/svg" viewBox="0 0 160 600"><style>.st0{fill:#349946}</style><path class="st0" d="M10 212.2c.1-1.1.3-1.9.8-2.6s1.1-1.3 1.8-1.7c.7-.4 1.5-.7 2.4-.9.9-.2 1.8-.3 2.7-.3.8 0 1.7.1 2.5.2s1.6.3 2.3.7c.7.3 1.3.8 1.7 1.4.4.6.7 1.4.7 2.4v8.6c0 .7 0 1.5.1 2.1.1.7.2 1.2.4 1.5H21c-.1-.3-.2-.5-.2-.8-.1-.3-.1-.5-.1-.8-.7.7-1.6 1.3-2.6 1.6-1 .3-2 .4-3 .4-.8 0-1.5-.1-2.2-.3-.7-.2-1.3-.5-1.8-.9s-.9-.9-1.2-1.5c-.3-.6-.4-1.4-.4-2.2 0-.9.2-1.7.5-2.3.3-.6.8-1.1 1.3-1.5.5-.4 1.1-.6 1.8-.8.7-.2 1.3-.3 2-.4.7-.1 1.4-.2 2-.3.7-.1 1.2-.2 1.8-.3.5-.1.9-.3 1.2-.6.3-.2.4-.6.4-1.1 0-.5-.1-.9-.2-1.2-.2-.3-.4-.5-.6-.7-.3-.2-.6-.3-.9-.3-.4-.1-.7-.1-1.1-.1-.9 0-1.6.2-2.1.6s-.8 1-.9 1.9H10zm10.5 3.3c-.2.2-.4.3-.7.4-.3.1-.6.2-.9.2-.3.1-.7.1-1 .2-.4 0-.7.1-1.1.2-.3.1-.7.1-1 .3s-.6.2-.9.4c-.2.2-.4.4-.6.7-.1.3-.2.6-.2 1.1 0 .4.1.7.2 1 .1.3.4.5.6.7.3.2.6.3.9.3.3.1.7.1 1.1.1.9 0 1.6-.1 2.1-.4.5-.3.9-.7 1.1-1.1.2-.4.4-.8.4-1.3.1-.4.1-.8.1-1v-1.8zM32.8 207.1v2.3h.1c.6-1 1.3-1.7 2.2-2.1.9-.4 1.9-.7 2.8-.7 1.2 0 2.2.2 3 .5.8.3 1.4.8 1.8 1.4.4.6.8 1.3.9 2.1.2.8.3 1.8.3 2.8v10.1h-4.5v-9.3c0-1.4-.2-2.4-.6-3-.4-.7-1.2-1-2.3-1-1.2 0-2.1.4-2.7 1.1-.6.7-.8 1.9-.8 3.6v8.6h-4.5V207h4.3zM59.1 221.5c-.5.9-1.2 1.5-2.1 1.9-.9.4-1.8.6-2.9.6-1.2 0-2.3-.2-3.3-.7-.9-.5-1.7-1.1-2.3-1.9-.6-.8-1.1-1.8-1.4-2.8-.3-1.1-.5-2.2-.5-3.3 0-1.1.2-2.2.5-3.2s.8-1.9 1.4-2.7c.6-.8 1.4-1.4 2.3-1.9.9-.5 2-.7 3.2-.7 1 0 1.9.2 2.8.6.9.4 1.6 1 2.1 1.8h.1v-8.3h4.5v22.8h-4.3l-.1-2.2zm-.2-8.1c-.1-.6-.3-1.2-.7-1.7s-.7-.9-1.2-1.2c-.5-.3-1.1-.4-1.9-.4s-1.4.1-1.9.4c-.5.3-.9.7-1.2 1.2-.3.5-.5 1-.7 1.7-.1.6-.2 1.3-.2 2 0 .6.1 1.3.2 1.9.1.6.4 1.2.7 1.7.3.5.7.9 1.2 1.2.5.3 1.1.5 1.8.5s1.4-.1 1.9-.4c.5-.3.9-.7 1.2-1.2.3-.5.5-1.1.6-1.7.1-.6.2-1.3.2-2 .2-.8.2-1.4 0-2zM83.7 210.1c-.7 0-1.3.2-1.8.5s-.9.8-1.2 1.3-.5 1.1-.7 1.7c-.1.6-.2 1.2-.2 1.9 0 .6.1 1.2.2 1.8.1.6.3 1.2.6 1.7s.7.9 1.2 1.2c.5.3 1.1.5 1.8.5 1.1 0 1.9-.3 2.5-.9.6-.6 1-1.4 1.1-2.4h4.4c-.3 2.2-1.1 3.9-2.6 5-1.4 1.1-3.2 1.7-5.4 1.7-1.2 0-2.4-.2-3.4-.6-1-.4-1.9-1-2.6-1.7-.7-.7-1.3-1.6-1.7-2.7-.4-1-.6-2.2-.6-3.4 0-1.3.2-2.5.6-3.6s.9-2 1.6-2.8 1.6-1.4 2.6-1.9c1-.4 2.2-.7 3.6-.7 1 0 1.9.1 2.8.4.9.3 1.7.6 2.4 1.2.7.5 1.3 1.2 1.7 1.9.4.8.7 1.7.8 2.8H87c-.3-2-1.4-2.9-3.3-2.9zM93.9 212.2c.1-1.1.3-1.9.8-2.6.5-.7 1.1-1.3 1.8-1.7.7-.4 1.5-.7 2.4-.9.9-.2 1.8-.3 2.7-.3.8 0 1.7.1 2.5.2s1.6.3 2.3.7c.7.3 1.3.8 1.7 1.4.4.6.7 1.4.7 2.4v8.6c0 .7 0 1.5.1 2.1.1.7.2 1.2.4 1.5h-4.6c-.1-.3-.2-.5-.2-.8-.1-.3-.1-.5-.1-.8-.7.7-1.6 1.3-2.6 1.6-1 .3-2 .4-3 .4-.8 0-1.5-.1-2.2-.3-.7-.2-1.3-.5-1.8-.9s-.9-.9-1.2-1.5c-.3-.6-.4-1.4-.4-2.2 0-.9.2-1.7.5-2.3.3-.6.8-1.1 1.3-1.5.5-.4 1.1-.6 1.8-.8.7-.2 1.3-.3 2-.4.7-.1 1.3-.2 2-.3.7-.1 1.2-.2 1.8-.3.5-.1.9-.3 1.2-.6.3-.2.4-.6.4-1.1 0-.5-.1-.9-.2-1.2-.2-.3-.4-.5-.6-.7-.3-.2-.6-.3-.9-.3-.4-.1-.7-.1-1.1-.1-.9 0-1.6.2-2.1.6s-.8 1-.9 1.9h-4.5zm10.5 3.3c-.2.2-.4.3-.7.4s-.6.2-.9.2c-.3.1-.7.1-1 .2s-.7.1-1.1.2c-.3.1-.7.1-1 .3-.3.1-.6.2-.9.4-.2.2-.4.4-.6.7-.1.3-.2.6-.2 1.1 0 .4.1.7.2 1 .1.3.4.5.6.7.3.2.6.3.9.3.3.1.7.1 1.1.1.9 0 1.6-.1 2.1-.4s.9-.7 1.1-1.1c.2-.4.4-.8.4-1.3.1-.4.1-.8.1-1v-1.8zM116.7 207.1v3.1h.1c.2-.5.5-1 .9-1.4.4-.4.8-.8 1.2-1.1.5-.3 1-.5 1.5-.7.5-.2 1.1-.3 1.7-.3.3 0 .6.1 1 .2v4.2c-.2 0-.5-.1-.8-.1h-.9c-.8 0-1.5.1-2.1.4-.6.3-1 .7-1.4 1.1-.4.5-.6 1-.8 1.7-.1.6-.2 1.3-.2 2.1v7.4h-4.5v-16.5h4.3zM129.1 207.1v3.1h.1c.2-.5.5-1 .9-1.4.4-.4.8-.8 1.2-1.1.5-.3 1-.5 1.5-.7.5-.2 1.1-.3 1.7-.3.3 0 .6.1 1 .2v4.2c-.2 0-.5-.1-.8-.1h-.9c-.8 0-1.5.1-2.1.4-.6.3-1 .7-1.4 1.1-.4.5-.6 1-.8 1.7-.1.6-.2 1.3-.2 2.1v7.4h-4.5v-16.5h4.3z"/><path class="st0" d="M143.3 228.5c-.9.6-2.1.9-3.6.9h-1.4c-.5 0-.9-.1-1.4-.1v-3.7c.4 0 .9.1 1.3.1s.9.1 1.3 0c.6-.1 1-.3 1.3-.7.3-.4.4-.9.4-1.3s-.1-.7-.2-1l-5.8-15.5h4.8l3.7 11.3h.1l3.6-11.3h4.7l-6.9 18.5c-.3 1.3-1 2.2-1.9 2.8z"/><g><path class="st0" d="M26.7 234.6v4.2h-11v5.3h9.5v3.9h-9.5v9.4h-5v-22.8h16zM34.6 234.6v18.6h11.1v4.2H29.6v-22.8h5zM48.3 241.3c.5-1.5 1.2-2.7 2.2-3.8s2.1-1.9 3.5-2.6 3-.9 4.7-.9c1.8 0 3.3.3 4.7.9 1.4.6 2.6 1.5 3.5 2.6s1.7 2.4 2.2 3.8c.5 1.5.8 3 .8 4.7 0 1.7-.3 3.2-.8 4.6-.5 1.4-1.2 2.7-2.2 3.7-1 1.1-2.1 1.9-3.5 2.5-1.4.6-3 .9-4.7.9-1.7 0-3.3-.3-4.7-.9-1.4-.6-2.6-1.4-3.5-2.5-1-1.1-1.7-2.3-2.2-3.7-.5-1.4-.8-3-.8-4.6 0-1.6.3-3.2.8-4.7zm4.6 7.6c.2.9.6 1.7 1.1 2.4.5.7 1.1 1.3 1.9 1.7.8.4 1.7.7 2.9.7 1.1 0 2.1-.2 2.9-.7.8-.4 1.4-1 1.9-1.7s.8-1.5 1.1-2.4c.2-.9.3-1.8.3-2.8 0-1-.1-2-.3-2.9-.2-.9-.6-1.8-1.1-2.5-.5-.7-1.1-1.3-1.9-1.8-.8-.4-1.7-.7-2.9-.7-1.1 0-2.1.2-2.9.7-.8.4-1.4 1-1.9 1.8-.5.7-.8 1.6-1.1 2.5-.2.9-.3 1.9-.3 2.9-.1.9 0 1.9.3 2.8zM77.2 251.8c.3.5.6 1 1.1 1.3.5.3 1 .6 1.6.7.6.2 1.3.2 1.9.2.4 0 .9 0 1.4-.1.5-.1 1-.2 1.4-.4s.8-.5 1.1-.9c.3-.4.4-.8.4-1.4 0-.6-.2-1.1-.6-1.5s-.9-.7-1.5-1c-.6-.3-1.4-.5-2.2-.7-.8-.2-1.6-.4-2.5-.6-.9-.2-1.7-.5-2.5-.8-.8-.3-1.5-.7-2.2-1.2-.6-.5-1.2-1.1-1.5-1.8-.4-.7-.6-1.6-.6-2.7 0-1.2.2-2.2.8-3 .5-.9 1.2-1.6 2-2.2.8-.6 1.7-1 2.7-1.3 1-.3 2-.4 3.1-.4 1.2 0 2.3.1 3.4.4 1.1.3 2.1.7 2.9 1.3s1.5 1.4 2 2.3c.5.9.8 2 .8 3.4h-4.8c0-.7-.2-1.2-.4-1.7-.2-.4-.6-.8-1-1.1-.4-.3-.9-.4-1.4-.5-.5-.1-1.1-.2-1.7-.2-.4 0-.8 0-1.2.1-.4.1-.8.2-1.1.4-.3.2-.6.5-.8.8-.2.3-.3.7-.3 1.2 0 .4.1.8.3 1.1.2.3.5.5 1 .8.5.2 1.2.5 2.1.7.9.2 2 .5 3.5.9.4.1 1 .2 1.8.5.8.2 1.5.6 2.2 1.1.7.5 1.4 1.1 1.9 2 .5.8.8 1.9.8 3.1 0 1-.2 2-.6 2.9s-1 1.7-1.8 2.3c-.8.6-1.8 1.2-3 1.5-1.2.4-2.5.5-4.1.5-1.3 0-2.5-.2-3.7-.5s-2.2-.8-3.1-1.5c-.9-.7-1.6-1.5-2.2-2.5-.5-1-.8-2.2-.8-3.6h4.8c.1.9.3 1.5.6 2.1zM97.9 251.8c.3.5.6 1 1.1 1.3.5.3 1 .6 1.6.7.6.2 1.3.2 1.9.2.4 0 .9 0 1.4-.1.5-.1 1-.2 1.4-.4s.8-.5 1.1-.9c.3-.4.4-.8.4-1.4 0-.6-.2-1.1-.6-1.5s-.9-.7-1.5-1c-.6-.3-1.4-.5-2.2-.7-.8-.2-1.6-.4-2.5-.6-.9-.2-1.7-.5-2.5-.8-.8-.3-1.5-.7-2.2-1.2-.6-.5-1.2-1.1-1.5-1.8-.4-.7-.6-1.6-.6-2.7 0-1.2.2-2.2.8-3 .5-.9 1.2-1.6 2-2.2.8-.6 1.7-1 2.7-1.3 1-.3 2-.4 3.1-.4 1.2 0 2.3.1 3.4.4 1.1.3 2.1.7 2.9 1.3s1.5 1.4 2 2.3c.5.9.8 2 .8 3.4h-4.8c0-.7-.2-1.2-.4-1.7-.2-.4-.6-.8-1-1.1-.4-.3-.9-.4-1.4-.5-.5-.1-1.1-.2-1.7-.2-.4 0-.8 0-1.2.1-.4.1-.8.2-1.1.4-.3.2-.6.5-.8.8-.2.3-.3.7-.3 1.2 0 .4.1.8.3 1.1.2.3.5.5 1 .8.5.2 1.2.5 2.1.7.9.2 2 .5 3.5.9.4.1 1 .2 1.8.5.8.2 1.5.6 2.2 1.1.7.5 1.4 1.1 1.9 2 .5.8.8 1.9.8 3.1 0 1-.2 2-.6 2.9s-1 1.7-1.8 2.3c-.8.6-1.8 1.2-3 1.5-1.2.4-2.5.5-4.1.5-1.3 0-2.5-.2-3.7-.5s-2.2-.8-3.1-1.5c-.9-.7-1.6-1.5-2.2-2.5-.5-1-.8-2.2-.8-3.6h4.8c.1.9.3 1.5.6 2.1z"/></g></svg>