<svg id="Layer_1" xmlns="http://www.w3.org/2000/svg" viewBox="0 0 160 600"><style>.st0{fill:#349946}</style><path class="st0" d="M28.3 132.3c1.3 0 2.5.2 3.4.6.9.4 1.7.9 2.3 1.5.6.6 1 1.4 1.3 2.2.3.8.4 1.7.4 2.6 0 .9-.1 1.7-.4 2.5-.3.8-.7 1.6-1.3 2.2-.6.6-1.4 1.2-2.3 1.5-.9.4-2.1.6-3.4.6h-5v7.7h-4.7v-21.4h9.7zM27 142.4c.5 0 1.1 0 1.6-.1s.9-.2 1.3-.5.7-.6.9-1 .3-1 .3-1.6c0-.7-.1-1.2-.3-1.7-.2-.4-.5-.7-.9-1s-.8-.4-1.3-.5c-.5-.1-1-.1-1.6-.1h-3.7v6.4H27zM42.3 138.2v2.9h.1c.2-.5.5-.9.8-1.3.3-.4.7-.8 1.2-1.1.4-.3.9-.5 1.4-.7.5-.2 1-.2 1.6-.2.3 0 .6.1.9.2v4c-.2 0-.4-.1-.7-.1h-.8c-.8 0-1.4.1-2 .4-.5.3-1 .6-1.3 1.1-.3.5-.6 1-.7 1.6-.1.6-.2 1.2-.2 1.9v7h-4.3v-15.5h4zM49.7 143c.1-1 .3-1.8.8-2.5s1-1.2 1.7-1.6c.7-.4 1.4-.7 2.3-.9.8-.2 1.7-.3 2.6-.3.8 0 1.6.1 2.4.2.8.1 1.5.3 2.2.6.7.3 1.2.8 1.6 1.3.4.6.6 1.3.6 2.3v8.1c0 .7 0 1.4.1 2 .1.6.2 1.1.4 1.4H60c-.1-.2-.1-.5-.2-.7-.1-.2-.1-.5-.1-.8-.7.7-1.5 1.2-2.4 1.5-.9.3-1.9.4-2.8.4-.7 0-1.4-.1-2.1-.3-.6-.2-1.2-.5-1.7-.8-.5-.4-.9-.9-1.1-1.4-.3-.6-.4-1.3-.4-2.1 0-.9.2-1.6.5-2.2.3-.6.7-1 1.2-1.4.5-.3 1-.6 1.7-.8.6-.2 1.3-.3 1.9-.4.6-.1 1.3-.2 1.9-.2.6-.1 1.2-.1 1.6-.3.5-.1.9-.3 1.1-.5.3-.2.4-.6.4-1 0-.5-.1-.8-.2-1.1-.2-.3-.4-.5-.6-.6-.3-.1-.5-.2-.9-.3s-.7-.1-1.1-.1c-.8 0-1.5.2-2 .5s-.8 1-.8 1.8h-4.2zm9.8 3.1c-.2.2-.4.3-.7.4-.3.1-.6.2-.9.2-.3.1-.6.1-1 .2s-.7.1-1 .1c-.3.1-.6.1-.9.2-.3.1-.6.2-.8.4l-.6.6c-.1.3-.2.6-.2 1s.1.7.2 1c.1.3.3.5.6.6s.5.3.8.3.6.1 1 .1c.8 0 1.5-.1 1.9-.4.5-.3.8-.6 1-1s.4-.8.4-1.2c0-.4.1-.7.1-1v-1.5zM74.5 141c-.7 0-1.2.2-1.7.5s-.8.7-1.1 1.2c-.3.5-.5 1-.6 1.6-.1.6-.2 1.2-.2 1.8 0 .6.1 1.1.2 1.7.1.6.3 1.1.6 1.6s.6.9 1.1 1.2c.5.3 1 .5 1.7.5 1 0 1.8-.3 2.4-.9s.9-1.3 1-2.3H82c-.3 2.1-1.1 3.6-2.4 4.7s-3 1.6-5.1 1.6c-1.2 0-2.2-.2-3.2-.6-1-.4-1.8-.9-2.5-1.6-.7-.7-1.2-1.5-1.6-2.5-.4-1-.6-2-.6-3.2 0-1.2.2-2.3.5-3.3s.9-1.9 1.5-2.7 1.5-1.3 2.5-1.8c1-.4 2.1-.6 3.4-.6.9 0 1.8.1 2.7.4.8.2 1.6.6 2.3 1.1.7.5 1.2 1.1 1.6 1.8.4.7.7 1.6.7 2.6h-4.2c-.2-1.9-1.3-2.8-3.1-2.8zM92.8 138.2v2.8h-3.1v7.7c0 .7.1 1.2.4 1.4.2.2.7.4 1.4.4h.7c.2 0 .4 0 .6-.1v3.3c-.4.1-.8.1-1.2.1h-1.3c-.7 0-1.3 0-1.9-.1-.6-.1-1.1-.3-1.6-.5s-.8-.6-1.1-1.1c-.3-.5-.4-1.1-.4-1.9V141h-2.6v-2.8h2.6v-4.7h4.3v4.7h3.2zM95 135.8v-3.5h4.3v3.5H95zm4.3 2.4v15.5H95v-15.5h4.3zM110 141c-.7 0-1.2.2-1.7.5s-.8.7-1.1 1.2c-.3.5-.5 1-.6 1.6-.1.6-.2 1.2-.2 1.8 0 .6.1 1.1.2 1.7.1.6.3 1.1.6 1.6s.6.9 1.1 1.2c.5.3 1 .5 1.7.5 1 0 1.8-.3 2.4-.9s.9-1.3 1-2.3h4.1c-.3 2.1-1.1 3.6-2.4 4.7s-3 1.6-5.1 1.6c-1.2 0-2.2-.2-3.2-.6-1-.4-1.8-.9-2.5-1.6-.7-.7-1.2-1.5-1.6-2.5-.4-1-.6-2-.6-3.2 0-1.2.2-2.3.5-3.3s.9-1.9 1.5-2.7 1.5-1.3 2.5-1.8c1-.4 2.1-.6 3.4-.6.9 0 1.8.1 2.7.4.8.2 1.6.6 2.3 1.1.7.5 1.2 1.1 1.6 1.8.4.7.7 1.6.7 2.6h-4.2c-.2-1.9-1.2-2.8-3.1-2.8zM119.7 143c.1-1 .3-1.8.8-2.5.4-.7 1-1.2 1.7-1.6.7-.4 1.4-.7 2.3-.9.8-.2 1.7-.3 2.6-.3.8 0 1.6.1 2.4.2.8.1 1.5.3 2.2.6.7.3 1.2.8 1.6 1.3.4.6.6 1.3.6 2.3v8.1c0 .7 0 1.4.1 2 .1.6.2 1.1.4 1.4H130c-.1-.2-.1-.5-.2-.7-.1-.2-.1-.5-.1-.8-.7.7-1.5 1.2-2.4 1.5-.9.3-1.9.4-2.8.4-.7 0-1.4-.1-2.1-.3-.6-.2-1.2-.5-1.7-.8-.5-.4-.9-.9-1.1-1.4-.3-.6-.4-1.3-.4-2.1 0-.9.2-1.6.5-2.2.3-.6.7-1 1.2-1.4.5-.3 1-.6 1.7-.8.6-.2 1.3-.3 1.9-.4.6-.1 1.3-.2 1.9-.2s1.2-.1 1.7-.3c.5-.1.9-.3 1.1-.5.3-.2.4-.6.4-1 0-.5-.1-.8-.2-1.1-.1-.3-.3-.5-.6-.6s-.5-.2-.9-.3-.7-.1-1.1-.1c-.8 0-1.5.2-2 .5-.5.4-.8 1-.8 1.8h-4.3zm9.8 3.1c-.2.2-.4.3-.7.4-.3.1-.6.2-.9.2-.3.1-.6.1-1 .2s-.7.1-1 .1c-.3.1-.6.1-.9.2-.3.1-.6.2-.8.4l-.6.6c-.1.3-.2.6-.2 1s.1.7.2 1c.1.3.3.5.6.6s.5.3.8.3.6.1 1 .1c.8 0 1.5-.1 2-.4.5-.3.8-.6 1-1s.4-.8.4-1.2c0-.4.1-.7.1-1v-1.5zM141.4 132.3v21.4h-4.3v-21.4h4.3z"/><g><path class="st0" d="M39.7 183.7L36 169.1l-3.6 14.6h-4.8L22 162.3h4.7l3.4 14.6h.1l3.7-14.6h4.4l3.7 14.8 3.5-14.8h4.6l-5.8 21.4h-4.6zM51.9 165.8v-3.5h4.3v3.5h-4.3zm4.3 2.4v15.5h-4.3v-15.5h4.3zM63.1 179.9c.2.3.4.6.7.8.3.2.6.4 1 .5.4.1.8.1 1.2.1.3 0 .6 0 .9-.1l.9-.3c.3-.1.5-.3.7-.6s.3-.6.3-.9c0-.6-.4-1.1-1.3-1.4-.9-.3-2-.6-3.6-1-.6-.1-1.2-.3-1.8-.5-.6-.2-1.1-.4-1.6-.8-.5-.3-.8-.7-1.1-1.2-.3-.5-.4-1-.4-1.7 0-1 .2-1.8.6-2.5.4-.6.9-1.1 1.5-1.5s1.4-.6 2.2-.8c.8-.1 1.6-.2 2.5-.2.8 0 1.7.1 2.4.2.8.2 1.5.4 2.1.8s1.1.9 1.5 1.5c.4.6.7 1.4.7 2.4h-4.1c-.1-.8-.4-1.4-.9-1.7-.6-.3-1.2-.4-2-.4h-.8c-.3 0-.5.1-.8.2s-.4.2-.6.4c-.2.2-.2.4-.2.8s.1.7.4.9c.3.2.6.4 1.1.6.5.1 1 .3 1.5.4.6.1 1.2.3 1.8.4.6.1 1.2.3 1.8.5.6.2 1.1.5 1.6.8s.8.7 1.1 1.2c.3.5.4 1.1.4 1.8 0 1-.2 1.9-.6 2.6s-.9 1.2-1.6 1.7c-.7.4-1.4.7-2.3.9-.9.2-1.7.3-2.6.3-.9 0-1.8-.1-2.6-.3-.9-.2-1.6-.5-2.3-.9-.7-.4-1.2-1-1.6-1.7-.4-.7-.7-1.6-.7-2.6h4c.3.5.4.9.6 1.3zM86.7 181.7c-.5.8-1.2 1.4-2 1.8-.8.4-1.7.6-2.7.6-1.2 0-2.2-.2-3.1-.7-.9-.4-1.6-1.1-2.2-1.8-.6-.8-1-1.7-1.3-2.7-.3-1-.4-2-.4-3.1 0-1 .1-2 .4-3s.7-1.8 1.3-2.6c.6-.7 1.3-1.3 2.1-1.8.9-.5 1.9-.7 3-.7.9 0 1.8.2 2.6.6.8.4 1.5 1 2 1.7h.1v-7.8h4.3v21.4h-4l-.1-1.9zm-.2-7.6c-.1-.6-.3-1.1-.6-1.6-.3-.4-.7-.8-1.1-1.1s-1-.4-1.7-.4-1.3.1-1.8.4c-.5.3-.9.6-1.2 1.1-.3.5-.5 1-.6 1.6-.1.6-.2 1.2-.2 1.8 0 .6.1 1.2.2 1.8.1.6.4 1.1.7 1.6.3.5.7.9 1.2 1.1.5.3 1 .4 1.7.4s1.3-.1 1.8-.4c.5-.3.8-.7 1.1-1.1.3-.5.5-1 .6-1.6s.2-1.2.2-1.9-.2-1.1-.3-1.7zM94.1 172.6c.4-1 .9-1.9 1.6-2.6s1.5-1.3 2.5-1.7c1-.4 2.1-.6 3.3-.6 1.2 0 2.3.2 3.3.6 1 .4 1.8.9 2.5 1.7s1.2 1.6 1.6 2.6c.4 1 .6 2.1.6 3.4 0 1.2-.2 2.4-.6 3.4s-.9 1.9-1.6 2.6-1.5 1.3-2.5 1.6c-1 .4-2.1.6-3.3.6-1.2 0-2.3-.2-3.3-.6-1-.4-1.8-.9-2.5-1.6s-1.2-1.6-1.6-2.6-.6-2.1-.6-3.4c0-1.3.2-2.4.6-3.4zm3.8 5.2c.1.6.3 1.1.6 1.6s.7.8 1.2 1.1c.5.3 1.1.4 1.8.4s1.3-.1 1.8-.4c.5-.3.9-.7 1.2-1.1.3-.5.5-1 .6-1.6s.2-1.2.2-1.8c0-.6-.1-1.2-.2-1.8-.1-.6-.3-1.1-.6-1.6s-.7-.8-1.2-1.1c-.5-.3-1.1-.4-1.8-.4s-1.3.1-1.8.4c-.5.3-.9.7-1.2 1.1-.3.5-.5 1-.6 1.6-.1.6-.2 1.2-.2 1.8.1.6.1 1.2.2 1.8zM116.5 168.2v2.1h.1c.6-.8 1.2-1.4 2-1.9.8-.4 1.7-.7 2.7-.7 1 0 1.9.2 2.7.6.8.4 1.4 1 1.8 2 .5-.7 1.1-1.3 1.9-1.8s1.7-.8 2.8-.8c.8 0 1.6.1 2.3.3.7.2 1.3.5 1.8 1s.9 1 1.2 1.7.4 1.6.4 2.6v10.4h-4.3v-8.8c0-.5 0-1-.1-1.5s-.2-.9-.3-1.2c-.2-.3-.4-.6-.8-.8-.4-.2-.8-.3-1.4-.3-.6 0-1.1.1-1.5.3-.4.2-.7.5-.9.9-.2.4-.4.8-.4 1.3-.1.5-.1.9-.1 1.4v8.6h-4.3V175v-1.4c0-.5-.1-.9-.3-1.2-.1-.4-.4-.7-.8-.9-.3-.2-.9-.3-1.5-.3-.2 0-.5 0-.8.1s-.7.3-1 .5c-.3.2-.6.6-.8 1.1-.2.5-.3 1.1-.3 1.8v9h-4.3v-15.5h4.2z"/></g><g><path class="st0" d="M59.9 201.1v-2.8h2.5V197c0-1.4.4-2.5 1.3-3.4.9-.9 2.2-1.3 3.9-1.3h1.1c.3 0 .8.1 1.1.1v3.2c-.5-.1-1-.1-1.6-.1-.6 0-1 .1-1.2.4s-.4.7-.4 1.4v.9h2.9v2.8h-2.9v12.7h-4.3V201h-2.4zM71.6 202.6c.4-1 .9-1.9 1.6-2.6s1.5-1.3 2.5-1.7c1-.4 2.1-.6 3.3-.6 1.2 0 2.3.2 3.3.6 1 .4 1.8.9 2.5 1.7s1.2 1.6 1.6 2.6c.4 1 .6 2.1.6 3.4 0 1.2-.2 2.4-.6 3.4s-.9 1.9-1.6 2.6-1.5 1.3-2.5 1.6c-1 .4-2.1.6-3.3.6-1.2 0-2.3-.2-3.3-.6-1-.4-1.8-.9-2.5-1.6s-1.2-1.6-1.6-2.6-.6-2.2-.6-3.4c0-1.3.2-2.4.6-3.4zm3.8 5.2c.1.6.3 1.1.6 1.6s.7.8 1.2 1.1c.5.3 1.1.4 1.8.4s1.3-.1 1.8-.4c.5-.3.9-.7 1.2-1.1.3-.5.5-1 .6-1.6s.2-1.2.2-1.8c0-.6-.1-1.2-.2-1.8-.1-.6-.3-1.1-.6-1.6s-.7-.8-1.2-1.1c-.5-.3-1.1-.4-1.8-.4s-1.3.1-1.8.4c-.5.3-.9.7-1.2 1.1-.3.5-.5 1-.6 1.6-.1.6-.2 1.2-.2 1.8.1.6.1 1.2.2 1.8zM93.9 198.2v2.9h.1c.2-.5.5-.9.8-1.3.3-.4.7-.8 1.2-1.1.4-.3.9-.5 1.4-.7.5-.2 1-.2 1.6-.2.3 0 .6.1.9.2v4c-.2 0-.4-.1-.7-.1h-.8c-.8 0-1.4.1-2 .4-.5.3-1 .6-1.3 1.1-.3.5-.6 1-.7 1.6s-.2 1.2-.2 1.9v7h-4.3v-15.5h4z"/></g><g><path class="st0" d="M32 222.3c1.4 0 2.7.2 3.9.7 1.2.4 2.2 1.1 3.1 2s1.5 2 2 3.3c.5 1.3.7 2.9.7 4.6 0 1.6-.2 3-.6 4.3-.4 1.3-1 2.5-1.8 3.4-.8 1-1.8 1.7-3 2.3-1.2.6-2.6.8-4.3.8h-9.2v-21.4H32zm-.3 17.5c.7 0 1.3-.1 2-.3.6-.2 1.2-.6 1.7-1.1.5-.5.9-1.2 1.2-2 .3-.8.4-1.8.4-3 0-1.1-.1-2.1-.3-2.9-.2-.9-.6-1.6-1-2.2-.5-.6-1.1-1.1-1.9-1.4s-1.8-.5-2.9-.5h-3.4v13.5h4.2zM49.1 240c.6.6 1.6.9 2.8.9.9 0 1.6-.2 2.2-.6.6-.4 1-.9 1.1-1.4H59c-.6 1.9-1.5 3.2-2.8 4-1.2.8-2.7 1.2-4.5 1.2-1.2 0-2.3-.2-3.3-.6-1-.4-1.8-.9-2.5-1.7-.7-.7-1.2-1.6-1.6-2.6-.4-1-.6-2.1-.6-3.3 0-1.2.2-2.2.6-3.2.4-1 .9-1.9 1.6-2.6.7-.7 1.5-1.3 2.5-1.7 1-.4 2-.6 3.2-.6 1.3 0 2.5.3 3.5.8s1.8 1.2 2.4 2.1c.6.9 1.1 1.8 1.4 2.9.3 1.1.4 2.2.3 3.4H48.1c0 1.4.4 2.4 1 3zm4.9-8.2c-.5-.6-1.3-.8-2.3-.8-.7 0-1.2.1-1.7.3-.5.2-.8.5-1.1.9-.3.3-.5.7-.6 1.1-.1.4-.2.7-.2 1H55c-.2-1.1-.5-1.9-1-2.5zM65.8 228.2v2.2h.1c.5-.9 1.2-1.6 2.1-2 .9-.4 1.7-.6 2.6-.6 1.1 0 2.1.2 2.8.5s1.3.7 1.7 1.3c.4.6.7 1.2.9 2 .2.8.3 1.7.3 2.6v9.5H72V235c0-1.3-.2-2.2-.6-2.9-.4-.6-1.1-.9-2.1-.9-1.2 0-2 .3-2.5 1s-.8 1.8-.8 3.4v8.1h-4.3v-15.5h4.1zM88.1 228.2v2.8H85v7.7c0 .7.1 1.2.4 1.4.2.2.7.4 1.4.4h.7c.2 0 .4 0 .6-.1v3.3c-.4.1-.8.1-1.2.1h-1.3c-.7 0-1.3 0-1.9-.1-.6-.1-1.1-.3-1.6-.5s-.8-.6-1.1-1.1c-.3-.5-.4-1.1-.4-1.9V231H78v-2.8h2.6v-4.7H85v4.7h3.1zM90.3 225.8v-3.5h4.3v3.5h-4.3zm4.2 2.4v15.5h-4.3v-15.5h4.3zM101.5 239.9c.2.3.4.6.7.8.3.2.6.4 1 .5.4.1.8.1 1.2.1.3 0 .6 0 .9-.1l.9-.3c.3-.1.5-.3.7-.6s.3-.6.3-.9c0-.6-.4-1.1-1.3-1.4-.9-.3-2-.6-3.6-1-.6-.1-1.2-.3-1.8-.5-.6-.2-1.1-.4-1.6-.8-.5-.3-.8-.7-1.1-1.2-.3-.5-.4-1-.4-1.7 0-1 .2-1.8.6-2.5.4-.6.9-1.1 1.5-1.5.6-.4 1.4-.6 2.2-.8s1.6-.2 2.5-.2c.8 0 1.7.1 2.4.2.8.2 1.5.4 2.1.8s1.1.9 1.5 1.5c.4.6.7 1.4.7 2.4H107c-.1-.8-.4-1.4-.9-1.7-.6-.3-1.2-.4-2-.4h-.8c-.3 0-.5.1-.8.2-.2.1-.4.2-.6.4-.2.2-.2.4-.2.8s.1.7.4.9c.3.2.6.4 1.1.6s1 .3 1.5.4c.6.1 1.2.3 1.8.4.6.1 1.2.3 1.8.5.6.2 1.1.5 1.6.8s.8.7 1.1 1.2c.3.5.4 1.1.4 1.8 0 1-.2 1.9-.6 2.6s-.9 1.2-1.6 1.7c-.7.4-1.4.7-2.3.9-.9.2-1.7.3-2.6.3-.9 0-1.8-.1-2.6-.3-.9-.2-1.6-.5-2.3-.9-.7-.4-1.2-1-1.6-1.7-.4-.7-.7-1.6-.7-2.6h4c.1.5.2.9.4 1.3zM122.5 228.2v2.8h-3.1v7.7c0 .7.1 1.2.4 1.4.2.2.7.4 1.4.4h.7c.2 0 .4 0 .6-.1v3.3c-.4.1-.8.1-1.2.1H120c-.7 0-1.3 0-1.9-.1-.6-.1-1.1-.3-1.6-.5s-.8-.6-1.1-1.1c-.3-.5-.4-1.1-.4-1.9V231h-2.6v-2.8h2.6v-4.7h4.3v4.7h3.2zM128.1 239.9c.2.3.4.6.7.8.3.2.6.4 1 .5.4.1.8.1 1.2.1.3 0 .6 0 .9-.1l.9-.3c.3-.1.5-.3.7-.6s.3-.6.3-.9c0-.6-.4-1.1-1.3-1.4-.9-.3-2-.6-3.6-1-.6-.1-1.2-.3-1.8-.5-.6-.2-1.1-.4-1.6-.8-.5-.3-.8-.7-1.1-1.2-.3-.5-.4-1-.4-1.7 0-1 .2-1.8.6-2.5.4-.6.9-1.1 1.5-1.5.6-.4 1.4-.6 2.2-.8s1.6-.2 2.5-.2c.8 0 1.7.1 2.4.2.8.2 1.5.4 2.1.8s1.1.9 1.5 1.5c.4.6.7 1.4.7 2.4h-4.1c-.1-.8-.4-1.4-.9-1.7-.6-.3-1.2-.4-2-.4h-.8c-.3 0-.5.1-.8.2-.2.1-.4.2-.6.4-.2.2-.2.4-.2.8s.1.7.4.9c.3.2.6.4 1.1.6s1 .3 1.5.4c.6.1 1.2.3 1.8.4.6.1 1.2.3 1.8.5.6.2 1.1.5 1.6.8s.8.7 1.1 1.2c.3.5.4 1.1.4 1.8 0 1-.2 1.9-.6 2.6s-.9 1.2-1.6 1.7c-.7.4-1.4.7-2.3.9-.9.2-1.7.3-2.6.3-.9 0-1.8-.1-2.6-.3-.9-.2-1.6-.5-2.3-.9-.7-.4-1.2-1-1.6-1.7-.4-.7-.7-1.6-.7-2.6h4c.4.5.5.9.6 1.3z"/></g></svg>