<svg id="Layer_1" xmlns="http://www.w3.org/2000/svg" viewBox="0 0 160 600"><style>.st0{fill:#349946}.st1{font-family:&apos;HelveticaNeue-Bold&apos;}.st2{font-size:21.1539px}</style><path d="M19.5 130.5l5.6 15.1h-3.4l-1.1-3.4H15l-1.2 3.4h-3.3l5.7-15.1h3.3zm.2 9.3l-1.9-5.5-2 5.5h3.9zm8.9-5.1v1.5h.1c.4-.6.9-1.1 1.5-1.4.6-.3 1.2-.4 1.9-.4.8 0 1.5.1 2 .3.5.2.9.5 1.2.9.3.4.5.9.6 1.4.1.6.2 1.2.2 1.9v6.7h-3v-6.2c0-.9-.1-1.6-.4-2-.3-.4-.8-.7-1.5-.7-.8 0-1.4.2-1.8.7-.4.5-.5 1.3-.5 2.4v5.7h-3v-10.9h2.7zm17 9.5c-.4.6-.8 1-1.4 1.3-.6.3-1.2.4-1.9.4-.8 0-1.5-.2-2.2-.5-.6-.3-1.1-.7-1.5-1.3-.4-.5-.7-1.2-.9-1.9-.2-.7-.3-1.4-.3-2.2 0-.7.1-1.4.3-2.1.2-.7.5-1.3.9-1.8s.9-.9 1.5-1.3c.6-.3 1.3-.5 2.1-.5.6 0 1.3.1 1.9.4.6.3 1 .7 1.4 1.2v-5.5h3v15.1h-2.9v-1.3zm-.1-5.4c-.1-.4-.2-.8-.4-1.1-.2-.3-.5-.6-.8-.8-.3-.2-.7-.3-1.2-.3s-.9.1-1.2.3c-.3.2-.6.5-.8.8-.2.3-.4.7-.4 1.1-.1.4-.1.8-.1 1.3 0 .4 0 .8.1 1.3.1.4.3.8.5 1.1.2.3.5.6.8.8.3.2.7.3 1.2.3s.9-.1 1.2-.3c.3-.2.6-.5.8-.8.2-.3.3-.7.4-1.1.1-.4.1-.9.1-1.3-.1-.4-.1-.9-.2-1.3zm9.2-2.1v-2h1.8v-.8c0-1 .3-1.8.9-2.4.6-.6 1.5-.9 2.7-.9h.8c.3 0 .5 0 .8.1v2.2c-.4 0-.7-.1-1.1-.1-.4 0-.7.1-.9.3-.2.2-.3.5-.3 1v.7h2.1v2h-2.1v8.9h-3v-8.9h-1.7zm8.7-3.7v-2.5h3v2.5h-3zm3 1.7v10.9h-3v-10.9h3zm4.8 0v1.5h.1c.4-.6.9-1.1 1.5-1.4.6-.3 1.2-.4 1.9-.4.8 0 1.5.1 2 .3.5.2.9.5 1.2.9.3.4.5.9.6 1.4.1.6.2 1.2.2 1.9v6.7h-3v-6.2c0-.9-.1-1.6-.4-2-.3-.4-.8-.7-1.5-.7-.8 0-1.4.2-1.8.7-.4.5-.6 1.3-.6 2.4v5.7h-3v-10.9h2.8zm17 9.5c-.4.6-.8 1-1.4 1.3-.6.3-1.2.4-1.9.4-.8 0-1.5-.2-2.2-.5-.6-.3-1.1-.7-1.5-1.3-.4-.5-.7-1.2-.9-1.9-.2-.7-.3-1.4-.3-2.2 0-.7.1-1.4.3-2.1.2-.7.5-1.3.9-1.8s.9-.9 1.5-1.3c.6-.3 1.3-.5 2.1-.5.6 0 1.3.1 1.9.4.6.3 1 .7 1.4 1.2v-5.5h3v15.1h-2.9v-1.3zm-.1-5.4c-.1-.4-.2-.8-.4-1.1-.2-.3-.5-.6-.8-.8-.3-.2-.7-.3-1.2-.3s-.9.1-1.2.3c-.3.2-.6.5-.8.8-.2.3-.4.7-.4 1.1-.1.4-.1.8-.1 1.3 0 .4 0 .8.1 1.3.1.4.3.8.5 1.1.2.3.5.6.8.8.3.2.7.3 1.2.3s.9-.1 1.2-.3c.3-.2.6-.5.8-.8.2-.3.3-.7.4-1.1.1-.4.1-.9.1-1.3-.1-.4-.1-.9-.2-1.3zm16.3-4.1v2h-2.2v5.4c0 .5.1.8.3 1 .2.2.5.3 1 .3h.5c.2 0 .3 0 .4-.1v2.3c-.3 0-.5.1-.8.1h-.9c-.5 0-.9 0-1.3-.1s-.8-.2-1.1-.4c-.3-.2-.6-.4-.8-.8-.2-.3-.3-.8-.3-1.3v-6.5h-1.8v-2h1.8v-3.3h3v3.3h2.2zm4-4.2v5.7h.1c.4-.6.9-1.1 1.5-1.4.6-.3 1.2-.4 1.7-.4.8 0 1.5.1 2 .3.5.2.9.5 1.2.9.3.4.5.9.6 1.4.1.6.2 1.2.2 1.9v6.7h-3v-6.2c0-.9-.1-1.6-.4-2-.3-.4-.8-.7-1.5-.7-.8 0-1.4.2-1.8.7-.4.5-.6 1.3-.6 2.4v5.7h-3v-15.1h3zm12.4 12.5c.5.4 1.1.7 1.9.7.6 0 1.1-.2 1.6-.5.4-.3.7-.6.8-1h2.6c-.4 1.3-1.1 2.2-1.9 2.8-.9.6-1.9.8-3.2.8-.9 0-1.6-.1-2.3-.4-.7-.3-1.3-.7-1.8-1.2s-.8-1.1-1.1-1.8c-.3-.7-.4-1.5-.4-2.3 0-.8.1-1.6.4-2.3.3-.7.6-1.3 1.1-1.8.5-.5 1.1-.9 1.8-1.2.7-.3 1.4-.4 2.3-.4.9 0 1.7.2 2.4.5.7.4 1.3.8 1.7 1.4.4.6.8 1.3 1 2.1.2.8.3 1.6.2 2.4H120c.1 1.1.3 1.8.8 2.2zm3.4-5.8c-.4-.4-.9-.6-1.6-.6-.5 0-.9.1-1.2.2-.3.2-.6.4-.8.6-.2.2-.3.5-.4.8-.1.3-.1.5-.1.7h4.9c-.2-.7-.5-1.3-.8-1.7zM14.7 152.6v5.5c.4-.6.9-1 1.5-1.2.6-.3 1.3-.4 2-.4.5 0 1.1.1 1.6.3s1 .6 1.4 1c.4.5.8 1.1 1 1.8.3.7.4 1.6.4 2.6s-.1 1.9-.4 2.6c-.3.7-.6 1.3-1 1.8s-.9.8-1.4 1-1.1.3-1.6.3c-.8 0-1.5-.1-2.2-.4-.6-.3-1.1-.7-1.4-1.3v1.4h-2.9v-15.1h3zm4.8 8.3c-.1-.4-.3-.8-.5-1.1-.2-.3-.5-.6-.8-.8s-.7-.3-1.2-.3c-.4 0-.8.1-1.1.3s-.6.4-.8.8c-.2.3-.4.7-.5 1.1-.1.4-.1.9-.1 1.3 0 .5 0 .9.1 1.3s.3.8.5 1.1c.2.3.5.6.8.8s.7.3 1.1.3c.5 0 .8-.1 1.2-.3s.6-.4.8-.8c.2-.3.4-.7.5-1.1.1-.4.1-.9.1-1.3.1-.4 0-.8-.1-1.3zM27.4 165.1c.5.4 1.1.7 1.9.7.6 0 1.1-.2 1.6-.5s.7-.6.8-1h2.6c-.4 1.3-1.1 2.2-1.9 2.8-.9.6-1.9.8-3.2.8-.9 0-1.6-.1-2.3-.4-.7-.3-1.3-.7-1.8-1.2s-.8-1.1-1.1-1.8c-.3-.7-.4-1.5-.4-2.3 0-.8.1-1.6.4-2.3.3-.7.6-1.3 1.1-1.8.5-.5 1.1-.9 1.8-1.2.7-.3 1.4-.4 2.3-.4.9 0 1.7.2 2.4.5.7.4 1.3.8 1.7 1.4s.8 1.3 1 2.1c.2.8.3 1.6.2 2.4h-7.9c.1 1.1.3 1.8.8 2.2zm3.4-5.7c-.4-.4-.9-.6-1.6-.6-.5 0-.9.1-1.2.2-.3.2-.6.4-.8.6s-.3.5-.4.8c-.1.3-.1.5-.1.7h4.9c-.2-.8-.5-1.3-.8-1.7zM38.4 165c.1.2.3.4.5.6.2.1.5.3.7.3.3.1.6.1.9.1.2 0 .4 0 .7-.1.2 0 .4-.1.6-.2.2-.1.3-.2.5-.4.1-.2.2-.4.2-.7 0-.5-.3-.8-.9-1-.6-.2-1.4-.5-2.5-.7-.4-.1-.9-.2-1.3-.3-.4-.1-.8-.3-1.1-.5-.3-.2-.6-.5-.8-.8-.2-.3-.3-.7-.3-1.2 0-.7.1-1.3.4-1.7s.6-.8 1.1-1.1c.5-.3 1-.4 1.5-.6.6-.1 1.1-.2 1.7-.2s1.2.1 1.7.2c.6.1 1.1.3 1.5.6.4.3.8.6 1.1 1.1.3.4.5 1 .5 1.7h-2.9c0-.6-.3-1-.7-1.2-.4-.2-.9-.3-1.4-.3h-.6c-.2 0-.4.1-.5.1-.2.1-.3.2-.4.3-.1.1-.2.3-.2.5 0 .3.1.5.3.7.2.2.5.3.8.4.3.1.7.2 1.1.3l1.2.3c.4.1.9.2 1.3.4.4.1.8.3 1.1.6.3.2.6.5.8.9.2.3.3.8.3 1.3 0 .7-.1 1.3-.4 1.8-.3.5-.7.9-1.1 1.2-.5.3-1 .5-1.6.6s-1.2.2-1.8.2c-.6 0-1.3-.1-1.9-.2s-1.1-.3-1.6-.6-.9-.7-1.2-1.2c-.3-.5-.5-1.1-.5-1.8h2.9c.1.1.2.4.3.6zM52.9 156.8v2h-2.2v5.4c0 .5.1.8.3 1 .2.2.5.3 1 .3h.5c.2 0 .3 0 .4-.1v2.3c-.3 0-.5.1-.8.1h-.9c-.5 0-.9 0-1.3-.1s-.8-.2-1.1-.4c-.3-.2-.6-.4-.8-.8-.2-.3-.3-.8-.3-1.3v-6.5h-1.8v-2h1.8v-3.3h3v3.3h2.2zM62.2 156.8v2c.1-.3.3-.7.6-.9.2-.3.5-.5.8-.7.3-.2.6-.4 1-.5.4-.1.7-.2 1.1-.2.2 0 .4 0 .7.1v2.8c-.1 0-.3-.1-.5-.1h-.6c-.6 0-1 .1-1.4.3-.4.2-.7.4-.9.8-.2.3-.4.7-.5 1.1-.1.4-.1.9-.1 1.4v4.9h-3v-10.9h2.8zM67.1 160.2c0-.7.2-1.3.5-1.8s.7-.8 1.2-1.1c.5-.3 1-.5 1.6-.6s1.2-.2 1.8-.2c.6 0 1.1 0 1.7.1.6.1 1.1.2 1.5.5.5.2.8.5 1.1.9.3.4.4.9.4 1.6v5.7c0 .5 0 1 .1 1.4.1.5.2.8.3 1h-3c-.1-.2-.1-.3-.1-.5s-.1-.4-.1-.5c-.5.5-1 .8-1.7 1-.6.2-1.3.3-2 .3-.5 0-1-.1-1.5-.2s-.8-.3-1.2-.6c-.3-.3-.6-.6-.8-1s-.3-.9-.3-1.5.1-1.1.3-1.5c.2-.4.5-.7.8-1 .3-.2.7-.4 1.2-.5.4-.1.9-.2 1.3-.3.5-.1.9-.1 1.3-.2.4 0 .8-.1 1.2-.2.3-.1.6-.2.8-.4s.3-.4.3-.7c0-.3-.1-.6-.2-.8-.1-.2-.2-.3-.4-.4-.2-.1-.4-.2-.6-.2-.2 0-.5-.1-.8-.1-.6 0-1.1.1-1.4.4-.3.3-.5.7-.6 1.3h-2.7zm6.9 2.2c-.1.1-.3.2-.5.3s-.4.1-.6.2c-.2 0-.4.1-.7.1-.2 0-.5.1-.7.1-.2 0-.4.1-.7.2l-.6.3c-.2.1-.3.3-.4.5-.1.2-.1.4-.1.7 0 .3 0 .5.1.7.1.2.2.3.4.4.2.1.4.2.6.2s.5.1.7.1c.6 0 1-.1 1.4-.3.3-.2.6-.4.7-.7s.2-.6.3-.8c0-.3.1-.5.1-.7v-1.3zM85 156.8v2h-2.2v5.4c0 .5.1.8.3 1 .2.2.5.3 1 .3h.5c.2 0 .3 0 .4-.1v2.3c-.3 0-.5.1-.8.1h-.9c-.5 0-.9 0-1.3-.1s-.8-.2-1.1-.4c-.3-.2-.6-.4-.8-.8-.2-.3-.3-.8-.3-1.3v-6.5H78v-2h1.8v-3.3h3v3.3H85zM89.2 165.1c.5.4 1.1.7 1.9.7.6 0 1.1-.2 1.6-.5s.7-.6.8-1h2.6c-.4 1.3-1.1 2.2-1.9 2.8-.9.6-1.9.8-3.2.8-.9 0-1.6-.1-2.3-.4-.7-.3-1.3-.7-1.8-1.2s-.8-1.1-1.1-1.8c-.3-.7-.4-1.5-.4-2.3 0-.8.1-1.6.4-2.3.3-.7.6-1.3 1.1-1.8.5-.5 1.1-.9 1.8-1.2.7-.3 1.4-.4 2.3-.4.9 0 1.7.2 2.4.5.7.4 1.3.8 1.7 1.4s.8 1.3 1 2.1c.2.8.3 1.6.2 2.4h-7.9c.1 1.1.4 1.8.8 2.2zm3.4-5.7c-.4-.4-.9-.6-1.6-.6-.5 0-.9.1-1.2.2-.3.2-.6.4-.8.6-.2.2-.3.5-.4.8-.1.3-.1.5-.1.7h4.9c-.2-.8-.4-1.3-.8-1.7zM100.3 165c.1.2.3.4.5.6.2.1.5.3.7.3.3.1.6.1.9.1.2 0 .4 0 .7-.1.2 0 .4-.1.6-.2.2-.1.3-.2.5-.4.1-.2.2-.4.2-.7 0-.5-.3-.8-.9-1-.6-.2-1.4-.5-2.5-.7-.4-.1-.9-.2-1.3-.3-.4-.1-.8-.3-1.1-.5-.3-.2-.6-.5-.8-.8-.2-.3-.3-.7-.3-1.2 0-.7.1-1.3.4-1.7.3-.5.6-.8 1.1-1.1.5-.3 1-.4 1.5-.6.6-.1 1.1-.2 1.7-.2.6 0 1.2.1 1.7.2.6.1 1.1.3 1.5.6.4.3.8.6 1.1 1.1.3.4.5 1 .5 1.7h-2.9c0-.6-.3-1-.7-1.2-.4-.2-.9-.3-1.4-.3h-.5c-.1 0-.4.1-.5.1-.2.1-.3.2-.4.3-.1.1-.2.3-.2.5 0 .3.1.5.3.7.2.2.5.3.8.4.3.1.7.2 1.1.3l1.2.3c.4.1.9.2 1.3.4.4.1.8.3 1.1.6.3.2.6.5.8.9.2.3.3.8.3 1.3 0 .7-.1 1.3-.4 1.8-.3.5-.7.9-1.1 1.2-.5.3-1 .5-1.6.6-.6.1-1.2.2-1.8.2-.6 0-1.3-.1-1.9-.2-.6-.1-1.1-.3-1.6-.6s-.9-.7-1.2-1.2c-.3-.5-.5-1.1-.5-1.8h2.9c0 .1 0 .4.2.6z"/><g><path d="M17.7 178.9v2h-2.2v5.4c0 .5.1.8.3 1 .2.2.5.3 1 .3h.5c.2 0 .3 0 .4-.1v2.3c-.3 0-.5.1-.8.1H16c-.5 0-.9 0-1.3-.1s-.8-.2-1.1-.4c-.3-.2-.6-.4-.8-.8-.2-.3-.3-.8-.3-1.3v-6.5h-1.8v-2h1.8v-3.3h3v3.3h2.2zM18.8 182c.3-.7.6-1.3 1.1-1.8.5-.5 1.1-.9 1.8-1.2s1.5-.4 2.3-.4c.9 0 1.6.1 2.3.4.7.3 1.3.7 1.8 1.2s.9 1.1 1.1 1.8c.3.7.4 1.5.4 2.4s-.1 1.7-.4 2.4c-.3.7-.6 1.3-1.1 1.8s-1.1.9-1.8 1.2c-.7.3-1.5.4-2.3.4-.9 0-1.6-.1-2.3-.4s-1.3-.7-1.8-1.2-.9-1.1-1.1-1.8-.4-1.5-.4-2.4.1-1.7.4-2.4zm2.7 3.7c.1.4.2.8.4 1.1.2.3.5.6.8.8.3.2.8.3 1.3.3s.9-.1 1.3-.3c.3-.2.6-.5.8-.8.2-.3.3-.7.4-1.1.1-.4.1-.8.1-1.3s0-.9-.1-1.3-.2-.8-.4-1.1c-.2-.3-.5-.6-.8-.8-.3-.2-.8-.3-1.3-.3s-.9.1-1.3.3c-.3.2-.6.5-.8.8-.2.3-.3.7-.4 1.1s-.1.9-.1 1.3 0 .9.1 1.3zM39.5 178.9v1.4c.4-.6.8-1 1.4-1.3s1.2-.4 1.9-.4c.9 0 1.6.2 2.2.5.6.3 1.1.8 1.5 1.3.4.5.7 1.2.9 1.9.2.7.3 1.5.3 2.2 0 .7-.1 1.4-.3 2.1-.2.7-.5 1.3-.9 1.8s-.9.9-1.5 1.2c-.6.3-1.3.5-2.1.5-.7 0-1.3-.1-1.9-.4-.6-.3-1-.7-1.4-1.2v5.2h-3v-14.8h2.9zm3.9 8.7c.3-.2.6-.5.8-.8s.3-.7.4-1.1c.1-.4.1-.9.1-1.3s0-.9-.1-1.3-.2-.8-.5-1.1c-.2-.3-.5-.6-.8-.8-.3-.2-.7-.3-1.2-.3s-.9.1-1.2.3c-.3.2-.6.5-.8.8-.2.3-.3.7-.4 1.1-.1.4-.1.9-.1 1.3s0 .9.1 1.3.2.8.4 1.1c.2.3.5.6.8.8.3.2.7.3 1.2.3.6 0 1-.1 1.3-.3zM52 178.9v2c.1-.3.3-.7.6-.9.2-.3.5-.5.8-.7.3-.2.6-.4 1-.5.4-.1.7-.2 1.1-.2.2 0 .4 0 .7.1v2.8c-.1 0-.3-.1-.5-.1h-.6c-.6 0-1 .1-1.4.3-.4.2-.7.4-.9.8-.2.3-.4.7-.5 1.1-.1.4-.1.9-.1 1.4v4.9h-3V179H52zM56.7 182c.3-.7.6-1.3 1.1-1.8.5-.5 1.1-.9 1.8-1.2s1.5-.4 2.3-.4c.9 0 1.6.1 2.3.4.7.3 1.3.7 1.8 1.2s.9 1.1 1.1 1.8c.3.7.4 1.5.4 2.4s-.1 1.7-.4 2.4c-.3.7-.6 1.3-1.1 1.8s-1.1.9-1.8 1.2c-.7.3-1.5.4-2.3.4-.9 0-1.6-.1-2.3-.4s-1.3-.7-1.8-1.2-.9-1.1-1.1-1.8-.4-1.5-.4-2.4.1-1.7.4-2.4zm2.7 3.7c.1.4.2.8.4 1.1.2.3.5.6.8.8.3.2.8.3 1.3.3s.9-.1 1.3-.3c.3-.2.6-.5.8-.8.2-.3.3-.7.4-1.1.1-.4.1-.8.1-1.3s0-.9-.1-1.3-.2-.8-.4-1.1c-.2-.3-.5-.6-.8-.8-.3-.2-.8-.3-1.3-.3s-.9.1-1.3.3c-.3.2-.6.5-.8.8-.2.3-.3.7-.4 1.1s-.1.9-.1 1.3 0 .9.1 1.3zM75.1 178.9v2h-2.2v5.4c0 .5.1.8.3 1 .2.2.5.3 1 .3h.5c.2 0 .3 0 .4-.1v2.3c-.3 0-.5.1-.8.1h-.9c-.5 0-.9 0-1.3-.1s-.8-.2-1.1-.4c-.3-.2-.6-.4-.8-.8-.2-.3-.3-.8-.3-1.3v-6.5h-1.8v-2h1.8v-3.3h3v3.3h2.2zM79.4 187.2c.5.4 1.1.7 1.9.7.6 0 1.1-.2 1.6-.5s.7-.6.8-1h2.6c-.4 1.3-1.1 2.2-1.9 2.8-.9.6-1.9.8-3.2.8-.9 0-1.6-.1-2.3-.4-.7-.3-1.3-.7-1.8-1.2s-.8-1.1-1.1-1.8c-.3-.7-.4-1.5-.4-2.3 0-.8.1-1.6.4-2.3.3-.7.6-1.3 1.1-1.8.5-.5 1.1-.9 1.8-1.2.7-.3 1.4-.4 2.3-.4.9 0 1.7.2 2.4.5.7.4 1.3.8 1.7 1.4s.8 1.3 1 2.1c.2.8.3 1.6.2 2.4h-7.9c.1 1.1.3 1.8.8 2.2zm3.4-5.7c-.4-.4-.9-.6-1.6-.6-.5 0-.9.1-1.2.2-.3.2-.6.4-.8.6-.2.2-.3.5-.4.8-.1.3-.1.5-.1.7h4.9c-.2-.8-.5-1.3-.8-1.7zM93.1 180.9c-.5 0-.9.1-1.2.3s-.6.5-.8.8c-.2.3-.3.7-.4 1.1s-.1.8-.1 1.2c0 .4 0 .8.1 1.2s.2.8.4 1.1c.2.3.4.6.8.8s.7.3 1.2.3c.7 0 1.3-.2 1.7-.6.4-.4.6-.9.7-1.6h2.9c-.2 1.5-.8 2.6-1.7 3.3-.9.8-2.1 1.1-3.6 1.1-.8 0-1.6-.1-2.3-.4-.7-.3-1.3-.7-1.7-1.2-.5-.5-.9-1.1-1.1-1.8-.3-.7-.4-1.4-.4-2.3 0-.8.1-1.6.4-2.4.2-.7.6-1.4 1.1-1.9s1.1-.9 1.8-1.2c.7-.3 1.5-.4 2.4-.4.6 0 1.3.1 1.9.3.6.2 1.1.4 1.6.8s.9.8 1.2 1.3c.3.5.5 1.1.5 1.8h-2.9c-.4-1-1.2-1.6-2.5-1.6zM105.7 178.9v2h-2.2v5.4c0 .5.1.8.3 1 .2.2.5.3 1 .3h.5c.2 0 .3 0 .4-.1v2.3c-.3 0-.5.1-.8.1h-.9c-.5 0-.9 0-1.3-.1s-.8-.2-1.1-.4c-.3-.2-.6-.4-.8-.8-.2-.3-.3-.8-.3-1.3v-6.5h-1.8v-2h1.8v-3.3h3v3.3h2.2z"/></g><g><path d="M15.7 215.2c-.6.4-1.4.6-2.4.6h-.9c-.3 0-.6 0-.9-.1v-2.5c.3 0 .6.1.9.1h.9c.4 0 .7-.2.9-.5.2-.3.3-.6.3-.9 0-.2 0-.5-.1-.7l-4-10.2h3.2l2.5 7.5 2.4-7.5h3.1L17 213.3c-.3.9-.7 1.5-1.3 1.9zM22.3 204.1c.3-.7.6-1.3 1.1-1.8.5-.5 1.1-.9 1.8-1.2s1.5-.4 2.3-.4c.9 0 1.6.1 2.3.4.7.3 1.3.7 1.8 1.2s.9 1.1 1.1 1.8c.3.7.4 1.5.4 2.4s-.1 1.7-.4 2.4c-.3.7-.6 1.3-1.1 1.8s-1.1.9-1.8 1.2c-.7.3-1.5.4-2.3.4-.9 0-1.6-.1-2.3-.4s-1.3-.7-1.8-1.2-.9-1.1-1.1-1.8-.4-1.5-.4-2.4.1-1.7.4-2.4zm2.7 3.7c.1.4.2.8.4 1.1.2.3.5.6.8.8.3.2.8.3 1.3.3s.9-.1 1.3-.3c.3-.2.6-.5.8-.8.2-.3.3-.7.4-1.1.1-.4.1-.8.1-1.3s0-.9-.1-1.3-.2-.8-.4-1.1c-.2-.3-.5-.6-.8-.8-.3-.2-.8-.3-1.3-.3s-.9.1-1.3.3c-.3.2-.6.5-.8.8-.2.3-.3.7-.4 1.1s-.1.9-.1 1.3 0 .9.1 1.3zM42.1 212v-1.5H42c-.4.6-.9 1.1-1.5 1.4-.6.3-1.2.4-1.9.4-.8 0-1.5-.1-2-.3-.5-.2-.9-.5-1.2-.9-.3-.4-.5-.9-.6-1.4-.1-.6-.2-1.2-.2-1.9V201h3v6.2c0 .9.1 1.6.4 2 .3.4.8.7 1.5.7.8 0 1.4-.2 1.8-.7.4-.5.5-1.3.5-2.4V201h3v11h-2.7zM49.7 201v2c.1-.3.3-.7.6-.9.2-.3.5-.5.8-.7.3-.2.6-.4 1-.5.4-.1.7-.2 1.1-.2.2 0 .4 0 .7.1v2.8c-.1 0-.3-.1-.5-.1h-.6c-.6 0-1 .1-1.4.3-.4.2-.7.4-.9.8-.2.3-.4.7-.5 1.1-.1.4-.1.9-.1 1.4v4.9h-3v-11h2.8zM60.2 199.3v-2.5h3v2.5h-3zm3 1.7v11h-3v-11h3zM68.1 201v1.5h.1c.4-.6.9-1.1 1.5-1.4s1.2-.4 1.9-.4c.8 0 1.5.1 2 .3.5.2.9.5 1.2.9.3.4.5.9.6 1.4.1.6.2 1.2.2 1.9v6.7h-3v-6.2c0-.9-.1-1.6-.4-2-.3-.4-.8-.7-1.5-.7-.8 0-1.4.2-1.8.7-.4.5-.5 1.3-.5 2.4v5.7h-3V201h2.7zM82.6 203c-.5 0-.9.1-1.2.3s-.6.5-.8.8c-.2.3-.3.7-.4 1.1s-.1.8-.1 1.2c0 .4 0 .8.1 1.2s.2.8.4 1.1c.2.3.4.6.8.8s.7.3 1.2.3c.7 0 1.3-.2 1.7-.6.4-.4.6-.9.7-1.6h2.9c-.2 1.5-.8 2.6-1.7 3.3-.9.8-2.1 1.1-3.6 1.1-.8 0-1.6-.1-2.3-.4-.7-.3-1.3-.7-1.7-1.2-.5-.5-.9-1.1-1.1-1.8-.3-.7-.4-1.4-.4-2.3 0-.8.1-1.6.4-2.4.2-.7.6-1.4 1.1-1.9s1.1-.9 1.8-1.2c.7-.3 1.5-.4 2.4-.4.6 0 1.3.1 1.9.3.6.2 1.1.4 1.6.8s.9.8 1.2 1.3c.3.5.5 1.1.5 1.8h-2.9c-.5-1-1.3-1.6-2.5-1.6zM89.1 204.1c.3-.7.6-1.3 1.1-1.8.5-.5 1.1-.9 1.8-1.2.7-.3 1.5-.4 2.3-.4.9 0 1.6.1 2.3.4.7.3 1.3.7 1.8 1.2s.9 1.1 1.1 1.8c.3.7.4 1.5.4 2.4s-.1 1.7-.4 2.4c-.3.7-.6 1.3-1.1 1.8-.5.5-1.1.9-1.8 1.2-.7.3-1.5.4-2.3.4-.9 0-1.6-.1-2.3-.4-.7-.3-1.3-.7-1.8-1.2s-.9-1.1-1.1-1.8c-.3-.7-.4-1.5-.4-2.4s.2-1.7.4-2.4zm2.8 3.7c.1.4.2.8.4 1.1.2.3.5.6.8.8.3.2.8.3 1.3.3s.9-.1 1.3-.3c.3-.2.6-.5.8-.8.2-.3.3-.7.4-1.1s.1-.8.1-1.3 0-.9-.1-1.3-.2-.8-.4-1.1c-.2-.3-.5-.6-.8-.8-.3-.2-.8-.3-1.3-.3s-.9.1-1.3.3c-.3.2-.6.5-.8.8-.2.3-.3.7-.4 1.1s-.1.9-.1 1.3 0 .9.1 1.3zM104.5 201v1.5c.4-.6.9-1 1.4-1.3.6-.3 1.2-.5 1.9-.5s1.3.1 1.9.4c.6.3 1 .7 1.3 1.4.3-.5.8-.9 1.3-1.3.6-.4 1.2-.6 2-.6.6 0 1.1.1 1.6.2s.9.4 1.3.7c.4.3.6.7.8 1.2.2.5.3 1.1.3 1.8v7.3h-3v-6.2-1c0-.3-.1-.6-.2-.8s-.3-.4-.6-.6c-.2-.1-.6-.2-1-.2s-.8.1-1 .2c-.3.2-.5.4-.6.6l-.3.9c0 .3-.1.7-.1 1v6.1h-3v-6.1-1c0-.3-.1-.6-.2-.9-.1-.3-.3-.5-.5-.6-.2-.2-.6-.2-1.1-.2-.1 0-.3 0-.6.1-.2.1-.5.2-.7.4-.2.2-.4.4-.6.8-.2.3-.2.8-.2 1.3v6.3h-3V201h2.9zM123.6 209.3c.5.4 1.1.7 1.9.7.6 0 1.1-.2 1.6-.5s.7-.6.8-1h2.6c-.4 1.3-1.1 2.2-1.9 2.8-.9.6-1.9.8-3.2.8-.9 0-1.6-.1-2.3-.4-.7-.3-1.3-.7-1.8-1.2s-.8-1.1-1.1-1.8c-.3-.7-.4-1.5-.4-2.3 0-.8.1-1.6.4-2.3.3-.7.6-1.3 1.1-1.8.5-.5 1.1-.9 1.8-1.2.7-.3 1.4-.4 2.3-.4.9 0 1.7.2 2.4.5.7.4 1.3.8 1.7 1.4s.8 1.3 1 2.1c.2.8.3 1.6.2 2.4h-7.9c.1 1.1.3 1.8.8 2.2zm3.4-5.7c-.4-.4-.9-.6-1.6-.6-.5 0-.9.1-1.2.2-.3.2-.6.4-.8.6-.2.2-.3.5-.4.8-.1.3-.1.5-.1.7h4.9c-.2-.7-.5-1.3-.8-1.7zM135.5 208.7v3.3h-3.3v-3.3h3.3z"/></g><g><path class="st0" d="M11.8 230.2c.3-1 .8-1.8 1.5-2.5.6-.7 1.4-1.3 2.3-1.7.9-.4 2-.6 3.1-.6 1.2 0 2.2.2 3.1.6.9.4 1.7 1 2.3 1.7s1.1 1.6 1.5 2.5c.3 1 .5 2 .5 3.1s-.2 2.1-.5 3.1-.8 1.8-1.5 2.5-1.4 1.3-2.3 1.7c-.9.4-2 .6-3.1.6-1.2 0-2.2-.2-3.1-.6-.9-.4-1.7-1-2.3-1.7-.6-.7-1.1-1.5-1.5-2.5-.3-1-.5-2-.5-3.1s.2-2.1.5-3.1zm3.1 5c.1.6.4 1.1.7 1.6.3.5.7.9 1.3 1.2.5.3 1.2.4 1.9.4s1.4-.1 1.9-.4c.5-.3.9-.7 1.3-1.2.3-.5.6-1 .7-1.6.1-.6.2-1.2.2-1.9s-.1-1.3-.2-1.9c-.1-.6-.4-1.2-.7-1.7-.3-.5-.7-.9-1.3-1.2-.5-.3-1.2-.4-1.9-.4s-1.4.1-1.9.4c-.5.3-.9.7-1.3 1.2-.3.5-.6 1-.7 1.7-.1.6-.2 1.3-.2 1.9 0 .7 0 1.3.2 1.9zM30.6 229.9v1.5h.1c.4-.6.9-1.1 1.5-1.4.6-.3 1.2-.4 1.9-.4.8 0 1.5.1 2 .3.5.2.9.5 1.2.9.3.4.5.9.6 1.4.1.6.2 1.2.2 1.9v6.7h-3v-6.2c0-.9-.1-1.6-.4-2-.3-.4-.8-.7-1.5-.7-.8 0-1.4.2-1.8.7-.4.5-.6 1.3-.6 2.4v5.7h-3v-10.9h2.8zM42.9 225.7v15.1h-3v-15.1h3zM48.9 244.1c-.6.4-1.4.6-2.4.6h-.9c-.3 0-.6 0-.9-.1v-2.5c.3 0 .6.1.9.1h.9c.4 0 .7-.2.9-.5.2-.3.3-.6.3-.9 0-.2 0-.5-.1-.7l-3.8-10.3H47l2.5 7.5 2.4-7.5H55l-4.6 12.3c-.4 1-.9 1.6-1.5 2zM59.8 231.9v-2h1.8v-.9c0-1 .3-1.8.9-2.4s1.5-.9 2.8-.9h.8c.3 0 .5 0 .8.1v2.2c-.4 0-.7-.1-1.1-.1-.4 0-.7.1-.9.3-.2.2-.3.5-.3 1v.7h2.1v2h-2.1v8.9h-3v-8.9h-1.8zM67.6 233c.3-.7.6-1.3 1.1-1.8.5-.5 1.1-.9 1.8-1.2.7-.3 1.5-.4 2.3-.4.9 0 1.6.1 2.3.4.7.3 1.3.7 1.8 1.2s.9 1.1 1.1 1.8c.3.7.4 1.5.4 2.4s-.1 1.7-.4 2.4c-.3.7-.6 1.3-1.1 1.8-.5.5-1.1.9-1.8 1.2-.7.3-1.5.4-2.3.4-.9 0-1.6-.1-2.3-.4-.7-.3-1.3-.7-1.8-1.2s-.9-1.1-1.1-1.8-.4-1.5-.4-2.4.1-1.7.4-2.4zm2.7 3.6c.1.4.2.8.4 1.1.2.3.5.6.8.8.3.2.8.3 1.3.3s.9-.1 1.3-.3c.3-.2.6-.5.8-.8.2-.3.3-.7.4-1.1s.1-.8.1-1.3 0-.9-.1-1.3-.2-.8-.4-1.1c-.2-.3-.5-.6-.8-.8-.3-.2-.8-.3-1.3-.3s-.9.1-1.3.3c-.3.2-.6.5-.8.8-.2.3-.3.7-.4 1.1s-.1.9-.1 1.3 0 .9.1 1.3zM82.9 229.9v2c.1-.3.3-.7.6-.9.2-.3.5-.5.8-.7.3-.2.6-.4 1-.5.4-.1.7-.2 1.1-.2.2 0 .4 0 .7.1v2.8c-.1 0-.3-.1-.5-.1H86c-.5 0-1 .1-1.4.3-.4.2-.7.4-.9.8-.2.3-.4.7-.5 1.1-.1.4-.1.9-.1 1.4v4.9h-3V230h2.8z"/></g><text transform="translate(92.124 240.817)" class="st0 st1 st2"></text><g><path class="st0" d="M19.5 247.8l5.6 15.1h-3.4l-1.1-3.4H15l-1.2 3.4h-3.3l5.7-15.1h3.3zm.2 9.3l-1.9-5.5-2 5.5h3.9zM32.6 247.8c1 0 1.9.2 2.7.5.8.3 1.6.8 2.2 1.4s1.1 1.4 1.4 2.3c.3.9.5 2 .5 3.3 0 1.1-.1 2.1-.4 3-.3.9-.7 1.7-1.3 2.4-.6.7-1.3 1.2-2.1 1.6-.9.4-1.9.6-3 .6h-6.5v-15.1h6.5zm-.3 12.3c.5 0 .9-.1 1.4-.2.5-.2.9-.4 1.2-.8.4-.4.6-.8.8-1.4s.3-1.3.3-2.1-.1-1.4-.2-2.1c-.1-.6-.4-1.1-.7-1.6s-.8-.8-1.3-1c-.6-.2-1.2-.3-2.1-.3h-2.4v9.5h3zM48.8 247.8l5.6 15.1H51l-1.1-3.4h-5.6l-1.2 3.4h-3.3l5.7-15.1h3.3zm.2 9.3l-1.9-5.5-2 5.5H49zM65.3 247.8l3.5 10.4 3.3-10.4h4.7v15.1h-3.1v-10.7L70 262.9h-2.6l-3.7-10.6v10.6h-3.1v-15.1h4.7zM82.3 260.3c.5.4 1.1.7 1.9.7.6 0 1.1-.2 1.6-.5s.7-.6.8-1h2.6c-.4 1.3-1.1 2.2-1.9 2.8-.9.6-1.9.8-3.2.8-.9 0-1.6-.1-2.3-.4-.7-.3-1.3-.7-1.8-1.2s-.8-1.1-1.1-1.8c-.3-.7-.4-1.5-.4-2.3 0-.8.1-1.6.4-2.3.3-.7.6-1.3 1.1-1.8.5-.5 1.1-.9 1.8-1.2.7-.3 1.4-.4 2.3-.4.9 0 1.7.2 2.4.5.7.4 1.3.8 1.7 1.4s.8 1.3 1 2.1c.2.8.3 1.6.2 2.4h-7.9c.1 1.1.4 1.8.8 2.2zm3.4-5.7c-.4-.4-.9-.6-1.6-.6-.5 0-.9.1-1.2.2-.3.2-.6.4-.8.6-.2.2-.3.5-.4.8-.1.3-.1.5-.1.7h4.9c-.2-.8-.4-1.3-.8-1.7zM93.8 252v1.5c.4-.6.9-1 1.4-1.3.6-.3 1.2-.5 1.9-.5s1.3.1 1.9.4c.6.3 1 .7 1.3 1.4.3-.5.8-.9 1.3-1.3.6-.4 1.2-.6 2-.6.6 0 1.1.1 1.6.2s.9.4 1.3.7c.4.3.6.7.8 1.2.2.5.3 1.1.3 1.8v7.3h-3v-6.2-1c0-.3-.1-.6-.2-.8s-.3-.4-.6-.6c-.2-.1-.6-.2-1-.2s-.8.1-1 .2c-.3.2-.5.4-.6.6l-.3.9c0 .3-.1.7-.1 1v6.1h-3v-6.1-1c0-.3-.1-.6-.2-.9-.1-.3-.3-.5-.5-.6-.2-.2-.6-.2-1.1-.2-.1 0-.3 0-.6.1-.2.1-.5.2-.7.4-.2.2-.4.4-.6.8-.2.3-.2.8-.2 1.3v6.3h-3V252h2.9zM112.6 247.8v5.5c.4-.6.9-1 1.5-1.2.6-.3 1.3-.4 2-.4.5 0 1.1.1 1.6.3.5.2 1 .6 1.4 1 .4.5.8 1.1 1 1.8.3.7.4 1.6.4 2.6s-.1 1.9-.4 2.6c-.3.7-.6 1.3-1 1.8s-.9.8-1.4 1c-.5.2-1.1.3-1.6.3-.8 0-1.5-.1-2.2-.4-.6-.3-1.1-.7-1.4-1.3v1.4h-2.9v-15.1h3zm4.9 8.3c-.1-.4-.3-.8-.5-1.1-.2-.3-.5-.6-.8-.8s-.7-.3-1.2-.3c-.4 0-.8.1-1.1.3-.3.2-.6.4-.8.8-.2.3-.4.7-.5 1.1-.1.4-.1.9-.1 1.3 0 .5 0 .9.1 1.3s.3.8.5 1.1c.2.3.5.6.8.8.3.2.7.3 1.1.3.5 0 .8-.1 1.2-.3s.6-.4.8-.8c.2-.3.4-.7.5-1.1.1-.4.1-.9.1-1.3s0-.8-.1-1.3zM125.3 260.3c.5.4 1.1.7 1.9.7.6 0 1.1-.2 1.6-.5s.7-.6.8-1h2.6c-.4 1.3-1.1 2.2-1.9 2.8-.9.6-1.9.8-3.2.8-.9 0-1.6-.1-2.3-.4-.7-.3-1.3-.7-1.8-1.2s-.8-1.1-1.1-1.8c-.3-.7-.4-1.5-.4-2.3 0-.8.1-1.6.4-2.3.3-.7.6-1.3 1.1-1.8.5-.5 1.1-.9 1.8-1.2.7-.3 1.4-.4 2.3-.4.9 0 1.7.2 2.4.5.7.4 1.3.8 1.7 1.4s.8 1.3 1 2.1c.2.8.3 1.6.2 2.4h-7.9c.1 1.1.4 1.8.8 2.2zm3.4-5.7c-.4-.4-.9-.6-1.6-.6-.5 0-.9.1-1.2.2-.3.2-.6.4-.8.6-.2.2-.3.5-.4.8-.1.3-.1.5-.1.7h4.9c-.2-.8-.4-1.3-.8-1.7zM136.7 252v2c.1-.3.3-.7.6-.9.2-.3.5-.5.8-.7.3-.2.6-.4 1-.5.4-.1.7-.2 1.1-.2.2 0 .4 0 .7.1v2.8c-.1 0-.3-.1-.5-.1h-.6c-.5 0-1 .1-1.4.3-.4.2-.7.4-.9.8-.2.3-.4.7-.5 1.1-.1.4-.1.9-.1 1.4v4.9h-3v-11h2.8zM144.2 260.2c.1.2.3.4.5.6.2.1.5.3.7.3.3.1.6.1.9.1.2 0 .4 0 .7-.1.2 0 .4-.1.6-.2.2-.1.3-.2.5-.4.1-.2.2-.4.2-.7 0-.5-.3-.8-.9-1-.6-.2-1.4-.5-2.5-.7-.4-.1-.9-.2-1.3-.3-.4-.1-.8-.3-1.1-.5-.3-.2-.6-.5-.8-.8-.2-.3-.3-.7-.3-1.2 0-.7.1-1.3.4-1.7.3-.5.6-.8 1.1-1.1.5-.3 1-.4 1.5-.6.6-.1 1.1-.2 1.7-.2.6 0 1.2.1 1.7.2.6.1 1.1.3 1.5.6.4.3.8.6 1.1 1.1.3.4.5 1 .5 1.7H148c0-.6-.3-1-.7-1.2-.4-.2-.9-.3-1.4-.3h-.5c-.1 0-.4.1-.5.1-.2.1-.3.2-.4.3-.1.1-.2.3-.2.5 0 .3.1.5.3.7.2.2.5.3.8.4.3.1.7.2 1.1.3l1.2.3c.4.1.9.2 1.3.4.4.1.8.3 1.1.6.3.2.6.5.8.9.2.3.3.8.3 1.3 0 .7-.1 1.3-.4 1.8-.3.5-.7.9-1.1 1.2-.5.3-1 .5-1.6.6-.6.1-1.2.2-1.8.2-.6 0-1.3-.1-1.9-.2-.6-.1-1.1-.3-1.6-.6s-.9-.7-1.2-1.2c-.3-.5-.5-1.1-.5-1.8h2.9c0 .1.1.4.2.6z"/></g></svg>