<svg xmlns="http://www.w3.org/2000/svg" viewBox="0 0 160 600"><path d="M59.3 134c.7 0 1.4.1 2 .4.6.2 1.1.6 1.5 1s.7.9 1 1.4.3 1.1.3 1.8c0 1-.2 1.8-.6 2.5s-1.1 1.2-2 1.6c.4.1.8.3 1.1.6s.5.6.7.9c.2.3.3.7.4 1.1s.1.8.2 1.2v.9c0 .3 0 .7.1 1.1 0 .4.1.7.2 1 .1.3.2.6.4.8H61c-.2-.5-.3-1.1-.4-1.9s-.1-1.4-.2-2.1c-.1-.9-.4-1.5-.8-1.9-.4-.4-1.1-.6-2-.6H54v6.4h-3.6V134h8.9zm-1.3 7.4c.8 0 1.4-.2 1.9-.6s.6-1 .6-1.8-.2-1.4-.6-1.7c-.4-.4-1-.5-1.9-.5h-4v4.6h4zM70.2 147.6c.5.5 1.2.7 2.1.7.7 0 1.2-.2 1.7-.5s.8-.7.9-1h2.9c-.5 1.4-1.2 2.4-2.1 3.1-1 .6-2.1.9-3.5.9-.9 0-1.8-.1-2.5-.4-.8-.3-1.4-.7-1.9-1.3-.5-.6-.9-1.2-1.2-2-.3-.8-.4-1.6-.4-2.5 0-.9.1-1.7.4-2.5.3-.8.7-1.4 1.2-2 .5-.6 1.2-1 1.9-1.3.7-.3 1.6-.5 2.5-.5 1 0 1.9.2 2.6.6s1.4.9 1.9 1.6c.5.7.8 1.4 1 2.3.2.8.3 1.7.2 2.6h-8.6c.2.9.4 1.7.9 2.2zm3.7-6.3c-.4-.4-1-.6-1.8-.6-.5 0-1 .1-1.3.3s-.6.4-.8.7-.4.5-.4.8c-.1.3-.1.6-.1.8h5.3c-.2-.9-.5-1.6-.9-2zM79.8 142.2c0-.8.2-1.4.6-1.9s.8-.9 1.3-1.2 1.1-.5 1.8-.7c.7-.1 1.3-.2 2-.2.6 0 1.2 0 1.8.1.6.1 1.2.2 1.7.5.5.2.9.6 1.2 1 .3.4.5 1 .5 1.7v6.2c0 .5 0 1.1.1 1.5s.2.9.3 1.1h-3.3c-.1-.2-.1-.4-.1-.6 0-.2-.1-.4-.1-.6-.5.5-1.1.9-1.8 1.1-.7.2-1.4.3-2.2.3-.6 0-1.1-.1-1.6-.2s-.9-.4-1.3-.6c-.4-.3-.7-.7-.9-1.1s-.3-1-.3-1.6c0-.7.1-1.2.4-1.7.2-.4.5-.8.9-1 .4-.3.8-.5 1.3-.6l1.5-.3c.5-.1 1-.1 1.4-.2s.9-.1 1.3-.2.7-.2.9-.4.3-.4.3-.8-.1-.6-.2-.8-.3-.4-.5-.5c-.2-.1-.4-.2-.7-.2-.3 0-.5-.1-.8-.1-.6 0-1.2.1-1.5.4-.4.3-.6.7-.6 1.4h-3.4zm7.5 2.4c-.1.1-.3.2-.5.3-.2.1-.4.1-.7.2-.2 0-.5.1-.7.1-.3 0-.5.1-.8.1-.2 0-.5.1-.7.2l-.6.3c-.2.1-.3.3-.4.5-.1.2-.2.5-.2.8 0 .3.1.5.2.7.1.2.3.4.4.5.2.1.4.2.6.2s.5.1.8.1c.6 0 1.1-.1 1.5-.3.4-.2.6-.5.8-.8.2-.3.3-.6.3-.9 0-.3.1-.6.1-.7v-1.3zM101.6 148.9c-.4.6-.9 1.1-1.5 1.4s-1.3.4-2.1.4c-.9 0-1.7-.2-2.3-.5-.7-.3-1.2-.8-1.7-1.4-.4-.6-.8-1.3-1-2-.2-.8-.3-1.6-.3-2.4 0-.8.1-1.6.3-2.3s.6-1.4 1-2c.4-.6 1-1 1.6-1.4.7-.3 1.4-.5 2.3-.5.7 0 1.4.1 2 .4.6.3 1.1.7 1.5 1.3v-6h3.3v16.4h-3.1v-1.4zm-.2-5.9c-.1-.5-.2-.9-.5-1.2-.2-.3-.5-.6-.9-.8-.4-.2-.8-.3-1.3-.3s-1 .1-1.4.3c-.4.2-.7.5-.9.9-.2.4-.4.8-.5 1.2-.1.5-.1.9-.1 1.4 0 .5.1.9.2 1.4s.3.9.5 1.2c.2.4.5.7.9.9.4.2.8.3 1.3.3s1-.1 1.3-.3.6-.5.9-.9c.2-.4.4-.8.5-1.2s.1-.9.1-1.4 0-1-.1-1.5zM107.3 142.3v-3.5h3.6v3.5h-3.6zm3.7 4.6v3.5h-3.6v-3.5h3.6zM42.2 160c.8 0 1.6.1 2.3.2.7.2 1.3.4 1.8.8s.9.9 1.2 1.5.4 1.4.4 2.3c0 .9-.2 1.7-.5 2.4s-.8 1.3-1.4 1.8-1.3.9-2 1.1c-.8.3-1.6.4-2.4.4H37l-1.2 5.9h-3.6l3.4-16.4h6.6zm-.9 7.7c.9 0 1.6-.2 2.2-.7.5-.5.8-1.2.8-2.2 0-.4-.1-.8-.2-1-.1-.3-.3-.5-.6-.6-.2-.1-.5-.2-.8-.3-.3-.1-.6-.1-.9-.1h-3.1l-1 4.9h3.6zM52.9 164.5l-.5 2.1c.4-.8.9-1.5 1.7-1.9.7-.4 1.6-.6 2.4-.6.3 0 .7 0 1 .1l-.7 3.2c-.2 0-.5-.1-.7-.1s-.5-.1-.7-.1c-.6 0-1.2.1-1.6.3-.4.2-.8.5-1.1.9-.3.4-.5.8-.7 1.3-.2.5-.3 1-.4 1.5l-1.1 5.3h-3.2l2.5-11.9h3.1zM58.6 166.3c.4-.5.8-.9 1.3-1.2s1.1-.5 1.7-.7c.6-.1 1.3-.2 2-.2.5 0 1.1 0 1.7.1.6.1 1.1.2 1.6.4s.9.5 1.2.9c.3.4.5.9.4 1.6 0 .6-.1 1.2-.3 2l-1.1 4.8c-.1.2-.1.5-.1.8v.8c0 .2 0 .4.1.7h-3.3v-1.2c-.4.5-1 .9-1.6 1.1-.6.2-1.3.4-2 .4-.6 0-1.2-.1-1.7-.3-.5-.2-.9-.4-1.2-.7-.3-.3-.6-.6-.7-1-.2-.4-.2-.8-.2-1.2 0-1.1.4-2.1 1.2-2.8s1.9-1.1 3.3-1.3c.8-.1 1.4-.2 2-.2.6 0 1-.1 1.4-.2s.7-.2.8-.4.3-.5.3-.9c0-.3-.1-.6-.2-.7-.1-.2-.3-.3-.5-.4-.2-.1-.4-.2-.7-.2-.2 0-.5-.1-.7-.1-.6 0-1.1.1-1.6.4-.5.3-.7.7-.9 1.3h-3.1c.3-.5.6-1.1.9-1.6zm4.9 4.9c-.5.1-1 .1-1.4.1-.3 0-.6.1-.9.1-.3.1-.5.2-.8.3-.2.1-.4.3-.5.6s-.2.5-.2.9.2.8.5 1c.4.2.8.3 1.3.3s.9-.1 1.3-.2.6-.4.9-.6c.2-.3.4-.5.6-.9.1-.3.3-.6.3-1l.3-1.1c-.5.3-.9.4-1.4.5zM78.2 167.1c-.4-.3-.9-.5-1.6-.5-.6 0-1.1.2-1.6.5-.4.3-.8.7-1 1.3-.3.5-.4 1.1-.6 1.6-.1.6-.2 1.1-.2 1.6 0 .4 0 .7.1 1 .1.3.2.6.4.8s.4.4.7.6c.3.1.6.2 1 .2s.7-.1 1-.2c.3-.1.5-.3.8-.5.2-.2.4-.4.6-.7s.3-.5.4-.8h3.3c-.5 1.5-1.2 2.6-2.3 3.4-1 .8-2.3 1.2-3.9 1.2-1.7 0-3-.4-3.9-1.2-.9-.8-1.4-2.1-1.4-3.9 0-1 .1-2 .4-2.9s.7-1.7 1.3-2.4c.6-.7 1.3-1.2 2.1-1.6s1.8-.6 2.9-.6c.7 0 1.4.1 2 .3.6.2 1.2.4 1.7.8s.9.8 1.2 1.4c.3.6.4 1.2.4 2h-3.3c.1-.6-.1-1.1-.5-1.4zM91.3 164.5l-.5 2.2h-2.3l-1.2 5.9c0 .1-.1.2-.1.3v.2c0 .2 0 .4.1.5l.3.3c.1.1.2.1.4.1h.4c.4 0 .8 0 1.2-.1l-.6 2.5c-.3 0-.7.1-1 .1h-1c-.4 0-.8 0-1.1-.1-.4-.1-.7-.2-1-.4-.3-.2-.5-.4-.7-.7-.2-.3-.3-.7-.2-1.2v-.5c0-.2.1-.4.1-.6l1.3-6.4h-2.1l.5-2.2h2.1l.7-3.6h3.3l-.7 3.6h2.1zM96.6 164.5l-2.5 11.9h-3.3l2.5-11.9h3.3zm-2.9-1.8l.6-2.7h3.3l-.6 2.7h-3.3zM105.5 167.1c-.4-.3-.9-.5-1.6-.5-.6 0-1.1.2-1.6.5-.4.3-.8.7-1 1.3-.3.5-.4 1.1-.6 1.6-.1.6-.2 1.1-.2 1.6 0 .4 0 .7.1 1 .1.3.2.6.4.8s.4.4.7.6c.3.1.6.2 1 .2s.7-.1 1-.2c.3-.1.5-.3.8-.5.2-.2.4-.4.6-.7s.3-.5.4-.8h3.3c-.5 1.5-1.2 2.6-2.3 3.4-1 .8-2.3 1.2-3.9 1.2-1.7 0-3-.4-3.9-1.2-.9-.8-1.4-2.1-1.4-3.9 0-1 .1-2 .4-2.9s.7-1.7 1.3-2.4c.6-.7 1.3-1.2 2.1-1.6s1.8-.6 2.9-.6c.7 0 1.4.1 2 .3.6.2 1.2.4 1.7.8s.9.8 1.2 1.4c.3.6.4 1.2.4 2H106c0-.6-.1-1.1-.5-1.4zM111.9 166.3c.4-.5.8-.9 1.3-1.2.5-.3 1.1-.5 1.7-.7.6-.1 1.3-.2 2-.2.5 0 1.1 0 1.7.1.6.1 1.1.2 1.6.4s.9.5 1.2.9c.3.4.5.9.4 1.6 0 .6-.1 1.2-.3 2l-1.1 4.8c-.1.2-.1.5-.1.8v.8c0 .2 0 .4.1.7h-3.3v-1.2c-.4.5-1 .9-1.6 1.1-.6.2-1.3.4-2 .4-.6 0-1.2-.1-1.7-.3-.5-.2-.9-.4-1.2-.7-.3-.3-.6-.6-.7-1-.2-.4-.2-.8-.2-1.2 0-1.1.4-2.1 1.2-2.8.8-.7 1.9-1.1 3.3-1.3.8-.1 1.4-.2 2-.2s1-.1 1.4-.2c.4-.1.7-.2.8-.4.2-.2.3-.5.3-.9 0-.3-.1-.6-.2-.7-.1-.2-.3-.3-.5-.4-.2-.1-.4-.2-.7-.2-.2 0-.5-.1-.7-.1-.6 0-1.1.1-1.6.4-.5.3-.7.7-.9 1.3H111c.3-.5.5-1.1.9-1.6zm4.9 4.9c-.5.1-1 .1-1.4.1-.3 0-.6.1-.9.1s-.5.2-.8.3c-.2.1-.4.3-.5.6-.1.2-.2.5-.2.9s.2.8.5 1 .8.3 1.3.3.9-.1 1.3-.2l.9-.6c.2-.3.4-.5.6-.9.1-.3.3-.6.3-1l.3-1.1c-.5.3-1 .4-1.4.5zM129.5 160l-3.5 16.4h-3.2l3.5-16.4h3.2z"/><g><path d="M28.6 192.3c.4-.5.8-.9 1.3-1.2s1.1-.5 1.7-.7c.6-.1 1.3-.2 2-.2.5 0 1.1 0 1.7.1.6.1 1.1.2 1.6.4s.9.5 1.2.9c.3.4.5.9.4 1.6 0 .6-.1 1.2-.3 2l-1.1 4.8c-.1.2-.1.5-.1.8v.8c0 .2 0 .4.1.7h-3.3v-1.2c-.4.5-1 .9-1.6 1.1-.6.2-1.3.4-2 .4-.6 0-1.2-.1-1.7-.3-.5-.2-.9-.4-1.2-.7-.3-.3-.6-.6-.7-1-.2-.4-.2-.8-.2-1.2 0-1.1.4-2.1 1.2-2.8s1.9-1.1 3.3-1.3c.8-.1 1.4-.2 2-.2.6 0 1-.1 1.4-.2.4-.1.7-.2.8-.4s.3-.5.3-.9c0-.3-.1-.6-.2-.7-.1-.2-.3-.3-.5-.4-.2-.1-.4-.2-.7-.2-.2 0-.5-.1-.7-.1-.6 0-1.1.1-1.6.4-.5.3-.7.7-.9 1.3h-3.1c.3-.5.5-1.2.9-1.6zm4.9 4.8c-.5.1-1 .1-1.4.1-.3 0-.6.1-.9.1-.3.1-.5.2-.8.3-.2.1-.4.3-.5.6s-.2.5-.2.9.2.8.5 1c.4.2.8.3 1.3.3s.9-.1 1.3-.2l.9-.6c.3-.2.4-.5.6-.9.1-.3.3-.6.3-1l.3-1.1c-.5.3-1 .5-1.4.5zM48.1 200.9c-.4.6-.9 1.1-1.5 1.4s-1.3.4-2.1.4c-1.4 0-2.6-.4-3.3-1.3-.8-.8-1.2-2-1.2-3.4 0-1 .1-1.9.4-2.9.3-.9.7-1.8 1.2-2.5s1.2-1.3 2-1.8 1.8-.7 2.9-.7c.7 0 1.4.2 2 .5.6.3 1.1.8 1.3 1.4l1.3-6.1h3.3l-3.5 16.4h-3.2l.4-1.4zm-2.9-7.8c-.5.3-.8.7-1.1 1.2-.3.5-.5 1-.6 1.6-.1.6-.2 1.1-.2 1.7 0 .4 0 .7.1 1 .1.3.2.6.4.8.2.2.4.4.7.6.3.1.6.2 1 .2.6 0 1.1-.2 1.6-.5s.8-.7 1.1-1.3c.3-.5.5-1.1.7-1.6.1-.6.2-1.1.2-1.6 0-.8-.2-1.4-.6-1.9s-1-.7-1.8-.7c-.5.1-1.1.2-1.5.5zM56 202.4l-1.6-11.9h3.4l.7 8.5 4.2-8.5h3.5l-6.5 11.9H56zM71.3 190.5l-2.5 11.9h-3.3l2.5-11.9h3.3zm-3-1.8l.6-2.7h3.3l-.6 2.7h-3.3zM80.1 193.1c-.4-.3-.9-.5-1.6-.5-.6 0-1.1.2-1.6.5-.4.3-.8.7-1 1.3-.3.5-.4 1.1-.6 1.6-.1.6-.2 1.1-.2 1.6 0 .4 0 .7.1 1 .1.3.2.6.4.8s.4.4.7.6c.3.1.6.2 1 .2s.7-.1 1-.2c.3-.1.5-.3.8-.5.2-.2.4-.4.6-.7s.3-.5.4-.8h3.3c-.5 1.5-1.2 2.6-2.3 3.4-1 .8-2.3 1.2-3.9 1.2-1.7 0-3-.4-3.9-1.2-.9-.8-1.4-2.1-1.4-3.9 0-1 .1-2 .4-2.9s.7-1.7 1.3-2.4c.6-.7 1.3-1.2 2.1-1.6s1.8-.6 2.9-.6c.7 0 1.4.1 2 .3.6.2 1.2.4 1.7.8s.9.8 1.2 1.4c.3.6.4 1.2.4 2h-3.3c.1-.6-.1-1.1-.5-1.4zM87.8 197.5v.5c0 .7.2 1.2.6 1.7.4.4 1.1.6 2 .6.3 0 .6 0 .9-.1.3-.1.5-.2.7-.4.2-.2.4-.3.5-.5.1-.2.3-.4.4-.6h3.3c-.3.7-.6 1.3-.9 1.8s-.8.9-1.3 1.3c-.5.3-1.1.6-1.7.8-.7.2-1.4.3-2.3.3-.8 0-1.5-.1-2.2-.3-.7-.2-1.2-.5-1.7-1s-.8-1-1.1-1.6-.4-1.4-.4-2.3c0-1 .2-1.9.5-2.7.3-.9.7-1.7 1.3-2.3.6-.7 1.2-1.2 2.1-1.6s1.7-.6 2.7-.6c.8 0 1.6.1 2.3.3.7.2 1.3.5 1.7 1 .5.4.9 1 1.1 1.6.3.7.4 1.4.4 2.3 0 .6-.1 1.2-.2 1.9h-8.8c.1-.3.1-.2.1-.1zm5.8-3.2c-.1-.3-.2-.6-.3-.8s-.4-.4-.7-.6c-.3-.1-.7-.2-1.2-.2s-.9.1-1.2.2c-.4.1-.7.3-.9.6s-.5.5-.7.8c-.2.3-.3.6-.4 1h5.5c-.1-.4-.1-.7-.1-1zM104.6 192.7l.5-2.2h2c.2-.8.3-1.4.5-2 .2-.6.4-1.1.8-1.5.3-.4.7-.7 1.3-.9.5-.2 1.2-.3 2.1-.3h1.1c.4 0 .7.1 1.1.1l-.5 2.3h-1c-.4 0-.7.1-.9.1-.2.1-.4.2-.5.4-.1.2-.2.4-.3.7-.1.3-.1.6-.2.9h2.3l-.5 2.2h-2.3l-2 9.7h-3.3l2-9.7h-2.2zM112.9 194.7c.3-.9.8-1.7 1.4-2.4.6-.7 1.3-1.2 2.2-1.6.8-.4 1.8-.6 2.9-.6.8 0 1.6.1 2.2.3.7.2 1.3.5 1.8.9s.9.9 1.1 1.6c.3.6.4 1.4.4 2.2 0 1-.2 2-.5 2.9-.3.9-.8 1.7-1.4 2.4-.6.7-1.3 1.2-2.2 1.6-.9.4-1.8.6-2.9.6-1.7 0-3-.4-4-1.3s-1.5-2.1-1.5-3.8c0-.9.1-1.9.5-2.8zm2.9 3.9c.1.3.2.6.4.9s.4.4.7.6c.3.1.6.2 1 .2.6 0 1.1-.2 1.6-.5.4-.3.8-.7 1.1-1.2.3-.5.5-1 .6-1.6.1-.6.2-1.1.2-1.6 0-.8-.2-1.4-.5-1.9-.4-.5-1-.7-1.9-.7-.6 0-1.1.2-1.6.5-.4.3-.8.7-1.1 1.2-.3.5-.5 1-.6 1.6-.1.6-.2 1.1-.2 1.6l.3.9zM131.1 190.5l-.5 2.1c.4-.8.9-1.5 1.7-1.9.7-.4 1.6-.6 2.4-.6.3 0 .7 0 1 .1l-.7 3.2c-.2 0-.5-.1-.7-.1s-.5-.1-.7-.1c-.6 0-1.2.1-1.6.3-.4.2-.8.5-1.1.9s-.5.8-.7 1.3c-.2.5-.3 1-.4 1.5l-1.1 5.3h-3.2l2.5-11.9h3.1z"/></g><g><path d="M31.2 216.5l-.4 1.7c.5-.7 1.1-1.2 1.8-1.5.7-.3 1.5-.5 2.4-.5.7 0 1.4.2 1.9.5s.9.9 1 1.6c.2-.3.5-.6.8-.8.3-.3.6-.5 1-.7.4-.2.7-.3 1.1-.4.4-.1.8-.1 1.2-.1.5 0 .9.1 1.3.2s.8.3 1.2.6c.3.2.6.6.8.9.2.4.3.8.3 1.3 0 .4 0 .7-.1 1.1-.1.4-.2.7-.2 1.1l-1.5 7h-3.3l1.6-7.5c.1-.3.1-.6.1-.9 0-.4-.1-.7-.4-.9-.3-.2-.6-.4-1-.4s-.8.1-1.2.3c-.3.2-.6.5-.9.8-.3.3-.5.7-.6 1-.2.4-.3.8-.4 1.1l-1.3 6.4h-3.3l1.6-7.5c.1-.3.1-.6.1-.9 0-.4-.1-.7-.4-.9-.3-.2-.6-.4-1-.4s-.8.1-1.2.3c-.3.2-.6.5-.9.8-.3.3-.5.7-.6 1-.2.4-.3.8-.4 1.1l-1.3 6.4h-3.2l2.5-11.9h2.9zM48.8 218.2c.4-.5.8-.9 1.3-1.2s1.1-.5 1.7-.7c.6-.1 1.3-.2 2-.2.5 0 1.1 0 1.7.1.6.1 1.1.2 1.6.4s.9.5 1.2.9c.3.4.5.9.4 1.6 0 .6-.1 1.2-.3 2l-1.1 4.8c-.1.2-.1.5-.1.8v.8c0 .2 0 .4.1.7H54V227c-.4.5-1 .9-1.6 1.1-.6.2-1.3.4-2 .4-.6 0-1.2-.1-1.7-.3-.5-.2-.9-.4-1.2-.7-.3-.3-.6-.6-.7-1-.2-.4-.2-.8-.2-1.2 0-1.1.4-2.1 1.2-2.8s1.9-1.1 3.3-1.3c.8-.1 1.4-.2 2-.2.6 0 1-.1 1.4-.2.4-.1.7-.2.8-.4s.3-.5.3-.9c0-.3-.1-.6-.2-.7-.1-.2-.3-.3-.5-.4-.2-.1-.4-.2-.7-.2-.2 0-.5-.1-.7-.1-.6 0-1.1.1-1.6.4-.5.3-.7.7-.9 1.3h-3.1c.3-.4.6-1.1.9-1.6zm4.9 4.9c-.5.1-1 .1-1.4.1-.3 0-.6.1-.9.1-.3.1-.5.2-.8.3-.2.1-.4.3-.5.6s-.2.5-.2.9.2.8.5 1c.4.2.8.3 1.3.3s.9-.1 1.3-.2l.9-.6c.3-.2.4-.5.6-.9.1-.3.3-.6.3-1l.3-1.1c-.5.3-.9.5-1.4.5zM65.3 216.5l-.4 1.7c1.1-1.3 2.4-2 4.2-2 2.3 0 3.5 1.1 3.5 3.2v.5c0 .2-.1.4-.1.6 0 .2-.1.4-.1.6 0 .2-.1.3-.1.4l-1.5 7h-3.3l1.4-7c0-.2.1-.4.1-.7.1-.3.1-.5.1-.7 0-.4-.2-.6-.5-.9-.3-.2-.7-.3-1.1-.3-.5 0-.9.1-1.3.3-.4.2-.7.4-1 .7-.3.3-.5.7-.7 1.1-.2.4-.3.8-.4 1.2l-1.3 6.3h-3.2l2.5-11.9h3.2zM76.1 218.2c.4-.5.8-.9 1.3-1.2.5-.3 1.1-.5 1.7-.7.6-.1 1.3-.2 2-.2.5 0 1.1 0 1.7.1.6.1 1.1.2 1.6.4s.9.5 1.2.9c.3.4.5.9.4 1.6 0 .6-.1 1.2-.3 2l-1.1 4.8c-.1.2-.1.5-.1.8v.8c0 .2 0 .4.1.7h-3.3V227c-.4.5-1 .9-1.6 1.1-.6.2-1.3.4-2 .4-.6 0-1.2-.1-1.7-.3-.5-.2-.9-.4-1.2-.7-.3-.3-.6-.6-.7-1-.2-.4-.2-.8-.2-1.2 0-1.1.4-2.1 1.2-2.8.8-.7 1.9-1.1 3.3-1.3.8-.1 1.4-.2 2-.2s1-.1 1.4-.2c.4-.1.7-.2.8-.4.2-.2.3-.5.3-.9 0-.3-.1-.6-.2-.7-.1-.2-.3-.3-.5-.4-.2-.1-.4-.2-.7-.2-.2 0-.5-.1-.7-.1-.6 0-1.1.1-1.6.4-.5.3-.7.7-.9 1.3h-3.1c.3-.4.5-1.1.9-1.6zm4.9 4.9c-.5.1-1 .1-1.4.1-.3 0-.6.1-.9.1s-.5.2-.8.3c-.2.1-.4.3-.5.6-.1.2-.2.5-.2.9s.2.8.5 1 .8.3 1.3.3.9-.1 1.3-.2l.9-.6c.2-.3.4-.5.6-.9.1-.3.3-.6.3-1l.3-1.1c-.5.3-1 .5-1.4.5zM97.6 230.1c-.3.6-.8 1.2-1.3 1.6s-1.2.7-1.9.9c-.7.2-1.6.3-2.6.3-.6 0-1.2-.1-1.8-.2-.6-.1-1.2-.4-1.6-.7-.5-.3-.9-.7-1.2-1.2-.3-.5-.4-1.1-.4-1.8H90c0 .3 0 .6.2.8.1.2.3.4.5.5.2.1.4.2.7.3.3.1.5.1.8.1.5 0 1-.1 1.3-.3.3-.2.6-.5.9-.9.2-.4.5-.8.6-1.3.2-.5.3-1 .5-1.6-.8 1.1-1.9 1.7-3.3 1.7-.7 0-1.3-.1-1.9-.3s-1-.6-1.4-1c-.4-.4-.7-.9-.9-1.5s-.3-1.3-.3-2c0-.9.1-1.7.4-2.6.3-.9.7-1.6 1.2-2.3.5-.7 1.1-1.2 1.9-1.7.7-.4 1.6-.6 2.5-.6.8 0 1.6.2 2.2.5s1.1.9 1.4 1.7l.4-1.8h3.1L98.4 228c-.2.7-.4 1.4-.8 2.1zm-4.8-11c-.4.3-.8.7-1 1.1-.3.4-.5.9-.6 1.4-.1.5-.2 1-.2 1.5 0 .4 0 .7.1 1 .1.3.2.6.4.8.2.2.4.4.7.6s.6.2 1 .2c.6 0 1.1-.1 1.5-.4.4-.3.8-.6 1.1-1.1.3-.4.5-.9.6-1.5s.2-1.1.2-1.6c0-.8-.2-1.4-.6-1.9-.4-.5-1-.7-1.8-.7-.5.1-1 .3-1.4.6zM106.8 216.5l-2.5 11.9H101l2.5-11.9h3.3zm-2.9-1.8l.6-2.7h3.3l-.6 2.7h-3.3zM112.6 216.5l-.4 1.7c1.1-1.3 2.4-2 4.2-2 2.3 0 3.5 1.1 3.5 3.2v.5c0 .2-.1.4-.1.6 0 .2-.1.4-.1.6 0 .2-.1.3-.1.4l-1.5 7h-3.3l1.4-7c0-.2.1-.4.1-.7.1-.3.1-.5.1-.7 0-.4-.2-.6-.5-.9-.3-.2-.7-.3-1.1-.3-.5 0-.9.1-1.3.3-.4.2-.7.4-1 .7-.3.3-.5.7-.7 1.1-.2.4-.3.8-.4 1.2l-1.3 6.3H107l2.5-11.9h3.1zM131.7 230.1c-.3.6-.8 1.2-1.3 1.6s-1.2.7-1.9.9c-.7.2-1.6.3-2.6.3-.6 0-1.2-.1-1.8-.2-.6-.1-1.2-.4-1.6-.7-.5-.3-.9-.7-1.2-1.2-.3-.5-.4-1.1-.4-1.8h3.2c0 .3 0 .6.2.8.1.2.3.4.5.5.2.1.4.2.7.3.3.1.5.1.8.1.5 0 1-.1 1.3-.3.3-.2.6-.5.9-.9.2-.4.5-.8.6-1.3.2-.5.3-1 .5-1.6-.8 1.1-1.9 1.7-3.3 1.7-.7 0-1.3-.1-1.9-.3s-1-.6-1.4-1c-.4-.4-.7-.9-.9-1.5s-.3-1.3-.3-2c0-.9.1-1.7.4-2.6.3-.9.7-1.6 1.2-2.3.5-.7 1.1-1.2 1.9-1.7.7-.4 1.6-.6 2.5-.6.8 0 1.6.2 2.2.5s1.1.9 1.4 1.7l.4-1.8h3.1l-2.4 11.3c-.2.7-.5 1.4-.8 2.1zm-4.9-11c-.4.3-.8.7-1 1.1-.3.4-.5.9-.6 1.4-.1.5-.2 1-.2 1.5 0 .4 0 .7.1 1 .1.3.2.6.4.8.2.2.4.4.7.6s.6.2 1 .2c.6 0 1.1-.1 1.5-.4.4-.3.8-.6 1.1-1.1.3-.4.5-.9.6-1.5s.2-1.1.2-1.6c0-.8-.2-1.4-.6-1.9-.4-.5-1-.7-1.8-.7-.5.1-1 .3-1.4.6z"/></g><g><path d="M13.2 238l-3.5 16.4H6.5L9.9 238h3.3zM18.2 242.5l-2.5 11.9h-3.3l2.5-11.9h3.3zm-2.9-1.8l.6-2.7h3.3l-.6 2.7h-3.3zM19.1 244.7l.5-2.2h2c.2-.8.3-1.4.5-2 .2-.6.4-1.1.8-1.5.3-.4.7-.7 1.3-.9.5-.2 1.2-.3 2.1-.3h1.1c.4 0 .7.1 1.1.1l-.5 2.3h-1c-.4 0-.7.1-.9.1-.2.1-.4.2-.5.4-.1.2-.2.4-.3.7-.1.3-.1.6-.2.9h2.3l-.5 2.2h-2.3l-2 9.7H19l2-9.7h-1.9zM30.1 249.4v.5c0 .7.2 1.2.6 1.7.4.4 1.1.6 2 .6.3 0 .6 0 .9-.1.3-.1.5-.2.7-.4s.4-.3.5-.5c.1-.2.3-.4.4-.6h3.3c-.3.7-.6 1.3-.9 1.8-.4.5-.8.9-1.3 1.3-.5.3-1.1.6-1.7.8-.7.2-1.4.3-2.3.3-.8 0-1.5-.1-2.2-.3-.7-.2-1.2-.5-1.7-1s-.8-1-1.1-1.6-.4-1.4-.4-2.3c0-1 .2-1.9.5-2.7.3-.9.7-1.7 1.3-2.3.6-.7 1.2-1.2 2.1-1.6.8-.4 1.7-.6 2.7-.6.8 0 1.6.1 2.3.3.7.2 1.3.5 1.7 1 .5.4.9 1 1.1 1.6s.4 1.4.4 2.3c0 .6-.1 1.2-.2 1.9H30c.1-.2.1-.1.1-.1zm5.7-3.1c-.1-.3-.2-.6-.3-.8-.2-.2-.4-.4-.7-.6-.3-.1-.7-.2-1.1-.2-.5 0-.9.1-1.2.2-.4.1-.7.3-.9.6-.3.2-.5.5-.7.8-.2.3-.3.6-.4 1H36c-.1-.4-.1-.7-.2-1zM51.9 242.5l-2.5 11.9h-3.3l2.5-11.9h3.3zm-3-1.8l.6-2.7h3.3l-.6 2.7h-3.3zM57.6 242.5l-.4 1.7c1.1-1.3 2.4-2 4.2-2 2.3 0 3.5 1.1 3.5 3.2v.5c0 .2-.1.4-.1.6 0 .2-.1.4-.1.6 0 .2-.1.3-.1.4l-1.5 7h-3.3l1.4-7c0-.2.1-.4.1-.7.1-.3.1-.5.1-.7 0-.4-.2-.6-.5-.9-.3-.2-.7-.3-1.1-.3-.5 0-.9.1-1.3.3-.4.2-.7.4-1 .7-.3.3-.5.7-.7 1.1-.2.4-.3.8-.4 1.2l-1.3 6.3H52l2.5-11.9h3.1zM74 244.8c-.3-.3-.7-.4-1.4-.4-.6 0-1.1.1-1.4.3-.4.2-.6.5-.6.9 0 .3.1.5.3.7.2.2.6.4 1.2.5l1.6.5c.4.1.9.3 1.2.5s.7.4 1 .7c.3.3.5.6.7 1 .2.4.2.8.2 1.3 0 .7-.2 1.4-.5 1.9s-.8.9-1.3 1.3c-.5.3-1.1.6-1.8.7-.7.1-1.4.2-2 .2-.6 0-1.2-.1-1.8-.2-.6-.1-1.1-.3-1.6-.6s-.9-.7-1.2-1.1c-.3-.5-.5-1.1-.5-1.8v-.5h3v.4c0 .3.1.5.2.7s.3.4.5.5c.2.1.5.2.8.3.3.1.6.1.8.1.2 0 .5 0 .7-.1s.5-.1.7-.2c.2-.1.4-.3.5-.4.1-.2.2-.4.2-.7 0-.4-.1-.7-.3-.9-.2-.2-.5-.3-.9-.4l-2.5-.8c-.4-.1-.8-.3-1.1-.4-.3-.2-.6-.3-.8-.6-.2-.2-.4-.5-.5-.8-.1-.3-.2-.7-.2-1.2 0-.7.2-1.3.5-1.8s.8-.9 1.3-1.2 1.1-.5 1.7-.6c.6-.1 1.2-.2 1.8-.2.6 0 1.3.1 1.9.2s1.1.3 1.6.6.8.7 1.1 1.2c.3.5.4 1.1.4 1.9h-3c-.1-.8-.2-1.2-.5-1.5zM86.1 254.4l.4-1.7c-1.1 1.3-2.4 2-4.2 2-2.3 0-3.5-1.1-3.5-3.2v-.5c0-.2.1-.4.1-.6 0-.2.1-.4.1-.6 0-.2.1-.3.1-.4l1.5-7h3.3l-1.4 7c0 .1-.1.2-.1.3s0 .3-.1.4v.7c0 .4.2.6.5.9.3.2.7.3 1.1.3.5 0 .9-.1 1.3-.3.4-.2.7-.4 1-.7.3-.3.5-.7.7-1.1.2-.4.3-.8.4-1.2l1.3-6.3h3.3l-2.5 11.9h-3.3zM97.6 242.5l-.5 2.1c.4-.8.9-1.5 1.7-1.9.7-.4 1.6-.6 2.4-.6.3 0 .7 0 1 .1l-.7 3.2c-.2 0-.5-.1-.7-.1s-.5-.1-.7-.1c-.6 0-1.2.1-1.6.3-.4.2-.8.5-1.1.9s-.5.8-.7 1.3c-.2.5-.3 1-.4 1.5l-1.1 5.3H92l2.5-11.9h3.1zM103.3 244.2c.4-.5.8-.9 1.3-1.2.5-.3 1.1-.5 1.7-.7.6-.1 1.3-.2 2-.2.5 0 1.1 0 1.7.1.6.1 1.1.2 1.6.4s.9.5 1.2.9c.3.4.5.9.4 1.6 0 .6-.1 1.2-.3 2l-1.1 4.8c-.1.2-.1.5-.1.8v.8c0 .2 0 .4.1.7h-3.3V253c-.4.5-1 .9-1.6 1.1-.6.2-1.3.4-2 .4-.6 0-1.2-.1-1.7-.3-.5-.2-.9-.4-1.2-.7-.3-.3-.6-.6-.7-1-.2-.4-.2-.8-.2-1.2 0-1.1.4-2.1 1.2-2.8.8-.7 1.9-1.1 3.3-1.3.8-.1 1.4-.2 2-.2s1-.1 1.4-.2c.4-.1.7-.2.8-.4.2-.2.3-.5.3-.9 0-.3-.1-.6-.2-.7-.1-.2-.3-.3-.5-.4-.2-.1-.4-.2-.7-.2-.2 0-.5-.1-.7-.1-.6 0-1.1.1-1.6.4-.5.3-.7.7-.9 1.3h-3.1c.4-.4.6-1.1.9-1.6zm4.9 4.9c-.5.1-1 .1-1.4.1-.3 0-.6.1-.9.1s-.5.2-.8.3c-.2.1-.4.3-.5.6-.1.2-.2.5-.2.9s.2.8.5 1 .8.3 1.3.3.9-.1 1.3-.2l.9-.6c.2-.3.4-.5.6-.9.1-.3.3-.6.3-1l.3-1.1c-.5.3-.9.5-1.4.5zM119.8 242.5l-.4 1.7c1.1-1.3 2.4-2 4.2-2 2.3 0 3.5 1.1 3.5 3.2v.5c0 .2-.1.4-.1.6 0 .2-.1.4-.1.6 0 .2-.1.3-.1.4l-1.5 7H122l1.4-7c0-.2.1-.4.1-.7.1-.3.1-.5.1-.7 0-.4-.2-.6-.5-.9-.3-.2-.7-.3-1.1-.3-.5 0-.9.1-1.3.3-.4.2-.7.4-1 .7-.3.3-.5.7-.7 1.1-.2.4-.3.8-.4 1.2l-1.3 6.3h-3.2l2.5-11.9h3.2zM137 245.1c-.4-.3-.9-.5-1.6-.5-.6 0-1.1.2-1.6.5-.4.3-.8.7-1 1.3-.3.5-.4 1.1-.6 1.6-.1.6-.2 1.1-.2 1.6 0 .4 0 .7.1 1 .1.3.2.6.4.8s.4.4.7.6c.3.1.6.2 1 .2s.7-.1 1-.2c.3-.1.5-.3.8-.5.2-.2.4-.4.6-.7s.3-.5.4-.8h3.3c-.5 1.5-1.2 2.6-2.3 3.4-1 .8-2.3 1.2-3.9 1.2-1.7 0-3-.4-3.9-1.2-.9-.8-1.4-2.1-1.4-3.9 0-1 .1-2 .4-2.9s.7-1.7 1.3-2.4c.6-.7 1.3-1.2 2.1-1.6s1.8-.6 2.9-.6c.7 0 1.4.1 2 .3.6.2 1.2.4 1.7.8s.9.8 1.2 1.4c.3.6.4 1.2.4 2h-3.3c0-.6-.1-1.1-.5-1.4zM144.7 249.4v.5c0 .7.2 1.2.6 1.7.4.4 1.1.6 2 .6.3 0 .6 0 .9-.1.3-.1.5-.2.7-.4.2-.2.4-.3.5-.5.1-.2.3-.4.4-.6h3.3c-.3.7-.6 1.3-.9 1.8s-.8.9-1.3 1.3c-.5.3-1.1.6-1.7.8-.7.2-1.4.3-2.3.3-.8 0-1.5-.1-2.2-.3-.7-.2-1.2-.5-1.7-1s-.8-1-1.1-1.6-.4-1.4-.4-2.3c0-1 .2-1.9.5-2.7.3-.9.7-1.7 1.3-2.3.6-.7 1.2-1.2 2.1-1.6s1.7-.6 2.7-.6c.8 0 1.6.1 2.3.3.7.2 1.3.5 1.7 1 .5.4.9 1 1.1 1.6.3.7.4 1.4.4 2.3 0 .6-.1 1.2-.2 1.9h-8.8c.1-.2.1-.1.1-.1zm5.7-3.1c-.1-.3-.2-.6-.3-.8s-.4-.4-.7-.6c-.3-.1-.7-.2-1.2-.2s-.9.1-1.2.2c-.4.1-.7.3-.9.6s-.5.5-.7.8c-.2.3-.3.6-.4 1h5.5c0-.4 0-.7-.1-1z"/></g><g><path d="M18.5 270.7l.5-2.2h2c.2-.8.3-1.4.5-2 .2-.6.4-1.1.8-1.5.3-.4.7-.7 1.3-.9.5-.2 1.2-.3 2.1-.3h1.1c.4 0 .7.1 1.1.1l-.5 2.3h-1c-.4 0-.7.1-.9.1-.2.1-.4.2-.5.4-.1.2-.2.4-.3.7-.1.3-.1.6-.2.9h2.3l-.5 2.2H24l-2 9.7h-3.3l2-9.7h-2.2zM26.8 272.7c.3-.9.8-1.7 1.4-2.4.6-.7 1.3-1.2 2.2-1.6s1.8-.6 2.9-.6c.8 0 1.6.1 2.2.3.7.2 1.3.5 1.8.9s.9.9 1.1 1.6c.3.6.4 1.4.4 2.2 0 1-.2 2-.5 2.9-.3.9-.8 1.7-1.4 2.4-.6.7-1.3 1.2-2.2 1.6-.9.4-1.8.6-2.9.6-1.7 0-3-.4-4-1.3s-1.5-2.1-1.5-3.8c0-.9.2-1.9.5-2.8zm2.9 3.9c.1.3.2.6.4.9.2.2.4.4.7.6.3.1.6.2 1 .2.6 0 1.1-.2 1.6-.5s.8-.7 1.1-1.2c.3-.5.5-1 .6-1.6.1-.6.2-1.1.2-1.6 0-.8-.2-1.4-.5-1.9-.4-.5-1-.7-1.9-.7-.6 0-1.1.2-1.6.5s-.8.7-1.1 1.2c-.3.5-.5 1-.6 1.6-.1.6-.2 1.1-.2 1.6.2.2.2.6.3.9zM45 268.5l-.5 2.1c.4-.8.9-1.5 1.7-1.9.7-.4 1.6-.6 2.4-.6.3 0 .7 0 1 .1l-.7 3.2c-.2 0-.5-.1-.7-.1s-.5-.1-.7-.1c-.6 0-1.2.1-1.6.3-.4.2-.8.5-1.1.9-.3.4-.5.8-.7 1.3-.2.5-.3 1-.4 1.5l-1.1 5.3h-3.2l2.5-11.9H45zM63.4 278.9c-.4.6-.9 1.1-1.5 1.4-.6.3-1.3.4-2.1.4-1.4 0-2.6-.4-3.3-1.3-.8-.8-1.2-2-1.2-3.4 0-1 .1-1.9.4-2.9.3-.9.7-1.8 1.2-2.5s1.2-1.3 2-1.8 1.8-.7 2.9-.7c.7 0 1.4.2 2 .5.6.3 1.1.8 1.3 1.4l1.3-6.1h3.3l-3.5 16.4H63l.4-1.4zm-2.9-7.8c-.5.3-.8.7-1.1 1.2-.3.5-.5 1-.6 1.6-.1.6-.2 1.1-.2 1.7 0 .4 0 .7.1 1 .1.3.2.6.4.8.2.2.4.4.7.6.3.1.6.2 1 .2.6 0 1.1-.2 1.6-.5.4-.3.8-.7 1.1-1.3.3-.5.5-1.1.7-1.6.1-.6.2-1.1.2-1.6 0-.8-.2-1.4-.6-1.9-.4-.5-1-.7-1.8-.7-.5 0-1 .2-1.5.5zM72.5 275.4v.5c0 .7.2 1.2.6 1.7.4.4 1.1.6 2 .6.3 0 .6 0 .9-.1.3-.1.5-.2.7-.4.2-.2.4-.3.5-.5.1-.2.3-.4.4-.6h3.3c-.3.7-.6 1.3-.9 1.8s-.8.9-1.3 1.3c-.5.3-1.1.6-1.7.8-.7.2-1.4.3-2.3.3-.8 0-1.5-.1-2.2-.3-.7-.2-1.2-.5-1.7-1s-.8-1-1.1-1.6-.4-1.4-.4-2.3c0-1 .2-1.9.5-2.7.3-.9.7-1.7 1.3-2.3.6-.7 1.2-1.2 2.1-1.6s1.7-.6 2.7-.6c.8 0 1.6.1 2.3.3.7.2 1.3.5 1.7 1 .5.4.9 1 1.1 1.6.3.7.4 1.4.4 2.3 0 .6-.1 1.2-.2 1.9h-8.8c.1-.2.1-.1.1-.1zm5.7-3.2c-.1-.3-.2-.6-.3-.8s-.4-.4-.7-.6c-.3-.1-.7-.2-1.2-.2s-.9.1-1.2.2c-.4.1-.7.3-.9.6s-.5.5-.7.8c-.2.3-.3.6-.4 1h5.5c0-.4 0-.7-.1-1zM87.7 268.5l-.4 1.7c1.1-1.3 2.4-2 4.2-2 2.3 0 3.5 1.1 3.5 3.2v.5c0 .2-.1.4-.1.6 0 .2-.1.4-.1.6 0 .2-.1.3-.1.4l-1.5 7h-3.3l1.4-7c0-.2.1-.4.1-.7.1-.3.1-.5.1-.7 0-.4-.2-.6-.5-.9-.3-.2-.7-.3-1.1-.3-.5 0-.9.1-1.3.3-.4.2-.7.4-1 .7-.3.3-.5.7-.7 1.1-.2.4-.3.8-.4 1.2l-1.3 6.3H82l2.5-11.9h3.2zM105.1 268.5l-.5 2.2h-2.3l-1.2 5.9c0 .1-.1.2-.1.3v.2c0 .2 0 .4.1.5l.3.3c.1.1.2.1.4.1h.4c.4 0 .8 0 1.2-.1l-.6 2.5c-.3 0-.7.1-1 .1h-1c-.4 0-.8 0-1.1-.1-.4-.1-.7-.2-1-.4-.3-.2-.5-.4-.7-.7-.2-.3-.3-.7-.2-1.2v-.5c0-.2.1-.4.1-.6l1.3-6.4h-2.1l.5-2.2h2.1l.7-3.6h3.3l-.7 3.6h2.1zM110.4 268.5l-2.5 11.9h-3.3l2.5-11.9h3.3zm-2.9-1.9l.6-2.7h3.3l-.6 2.7h-3.3zM118.5 270.8c-.3-.3-.7-.4-1.4-.4-.6 0-1.1.1-1.4.3-.4.2-.6.5-.6.9 0 .3.1.5.3.7.2.2.6.4 1.2.5l1.6.5c.4.1.9.3 1.2.5s.7.4 1 .7c.3.3.5.6.7 1 .2.4.2.8.2 1.3 0 .7-.2 1.4-.5 1.9s-.8.9-1.3 1.3c-.5.3-1.1.6-1.8.7-.7.1-1.4.2-2 .2-.6 0-1.2-.1-1.8-.2-.6-.1-1.1-.3-1.6-.6s-.9-.7-1.2-1.1c-.3-.5-.5-1.1-.5-1.8v-.5h3v.4c0 .3.1.5.2.7s.3.4.5.5c.2.1.5.2.8.3.3.1.6.1.8.1.2 0 .5 0 .7-.1s.5-.1.7-.2c.2-.1.4-.3.5-.4.1-.2.2-.4.2-.7 0-.4-.1-.7-.3-.9-.2-.2-.5-.3-.9-.4l-2.5-.8c-.4-.1-.8-.3-1.1-.4-.3-.2-.6-.3-.8-.6-.2-.2-.4-.5-.5-.8-.1-.3-.2-.7-.2-1.2 0-.7.2-1.3.5-1.8s.8-.9 1.3-1.2 1.1-.5 1.7-.6c.6-.1 1.2-.2 1.8-.2.6 0 1.3.1 1.9.2s1.1.3 1.6.6.8.7 1.1 1.2c.3.5.4 1.1.4 1.9h-3c-.1-.8-.2-1.2-.5-1.5zM131.5 268.5l-.5 2.2h-2.3l-1.2 5.9c0 .1-.1.2-.1.3v.2c0 .2 0 .4.1.5l.3.3c.1.1.2.1.4.1h.4c.4 0 .8 0 1.2-.1l-.6 2.5c-.3 0-.7.1-1 .1h-1c-.4 0-.8 0-1.1-.1-.4-.1-.7-.2-1-.4-.3-.2-.5-.4-.7-.7-.2-.3-.3-.7-.2-1.2v-.5c0-.2.1-.4.1-.6l1.3-6.4h-2.1l.5-2.2h2.1l.7-3.6h3.3l-.7 3.6h2.1zM138.9 270.8c-.3-.3-.7-.4-1.4-.4-.6 0-1.1.1-1.4.3-.4.2-.6.5-.6.9 0 .3.1.5.3.7.2.2.6.4 1.2.5l1.6.5c.4.1.9.3 1.2.5s.7.4 1 .7c.3.3.5.6.7 1 .2.4.2.8.2 1.3 0 .7-.2 1.4-.5 1.9s-.8.9-1.3 1.3c-.5.3-1.1.6-1.8.7-.7.1-1.4.2-2 .2-.6 0-1.2-.1-1.8-.2-.6-.1-1.1-.3-1.6-.6s-.9-.7-1.2-1.1c-.3-.5-.5-1.1-.5-1.8v-.5h3v.4c0 .3.1.5.2.7s.3.4.5.5c.2.1.5.2.8.3.3.1.6.1.8.1.2 0 .5 0 .7-.1s.5-.1.7-.2c.2-.1.4-.3.5-.4.1-.2.2-.4.2-.7 0-.4-.1-.7-.3-.9-.2-.2-.5-.3-.9-.4l-2.5-.8c-.4-.1-.8-.3-1.1-.4-.3-.2-.6-.3-.8-.6-.2-.2-.4-.5-.5-.8-.1-.3-.2-.7-.2-1.2 0-.7.2-1.3.5-1.8s.8-.9 1.3-1.2 1.1-.5 1.7-.6c.6-.1 1.2-.2 1.8-.2.6 0 1.3.1 1.9.2s1.1.3 1.6.6.8.7 1.1 1.2c.3.5.4 1.1.4 1.9h-3c0-.8-.2-1.2-.5-1.5z"/></g><g><path d="M38.3 298.7c.3-.9.8-1.7 1.4-2.4.6-.7 1.3-1.2 2.2-1.6s1.8-.6 2.9-.6c.8 0 1.6.1 2.2.3.7.2 1.3.5 1.8.9s.9.9 1.1 1.6c.3.6.4 1.4.4 2.2 0 1-.2 2-.5 2.9-.3.9-.8 1.7-1.4 2.4-.6.7-1.3 1.2-2.2 1.6-.9.4-1.8.6-2.9.6-1.7 0-3-.4-4-1.3s-1.5-2.1-1.5-3.8c0-1 .1-1.9.5-2.8zm2.9 3.9c.1.3.2.6.4.9.2.2.4.4.7.6.3.1.6.2 1 .2.6 0 1.1-.2 1.6-.5.4-.3.8-.7 1.1-1.2.3-.5.5-1 .6-1.6.1-.6.2-1.1.2-1.6 0-.8-.2-1.4-.5-1.9-.4-.5-1-.7-1.9-.7-.6 0-1.1.2-1.6.5s-.8.7-1.1 1.2c-.3.5-.5 1-.6 1.6-.1.6-.2 1.1-.2 1.6.2.2.2.5.3.9zM53.5 306.4l-1.6-11.9h3.4l.7 8.5 4.2-8.5h3.5l-6.5 11.9h-3.7zM66.5 301.4v.5c0 .7.2 1.2.6 1.7.4.4 1.1.6 2 .6.3 0 .6 0 .9-.1s.5-.2.7-.4c.2-.2.4-.3.5-.5.1-.2.3-.4.4-.6h3.3c-.3.7-.6 1.3-.9 1.8s-.8.9-1.3 1.3c-.5.3-1.1.6-1.7.8-.7.2-1.4.3-2.3.3-.8 0-1.5-.1-2.2-.3-.7-.2-1.2-.5-1.7-1-.5-.4-.8-1-1.1-1.6-.3-.6-.4-1.4-.4-2.3 0-1 .2-1.9.5-2.7.3-.9.7-1.7 1.3-2.3.6-.7 1.2-1.2 2.1-1.6s1.7-.6 2.7-.6c.8 0 1.6.1 2.3.3.7.2 1.3.5 1.7 1 .5.4.9 1 1.1 1.6.3.7.4 1.4.4 2.3 0 .6-.1 1.2-.2 1.9h-8.8c.1-.2.1-.1.1-.1zm5.7-3.2c-.1-.3-.2-.6-.3-.8s-.4-.4-.7-.6c-.3-.1-.7-.2-1.2-.2s-.9.1-1.2.2c-.4.1-.7.3-.9.6s-.5.5-.7.8c-.2.3-.3.6-.4 1h5.5c0-.4 0-.7-.1-1zM81.7 294.5l-.5 2.1c.4-.8.9-1.5 1.7-1.9.7-.4 1.6-.6 2.4-.6.3 0 .7 0 1 .1l-.7 3.2c-.2 0-.5-.1-.7-.1s-.5-.1-.7-.1c-.6 0-1.2.1-1.6.3-.4.2-.8.5-1.1.9s-.5.8-.7 1.3c-.2.5-.3 1-.4 1.5l-1.1 5.3h-3.2l2.5-11.9h3.1zM104.1 299.9l-.6 2.7h-2.1l-.8 3.7h-3.1l.8-3.7h-7.5l.6-3 9.4-9.4h3.2l-2 9.7h2.1zm-3.9-6.1l-6.1 6.2h4.8l1.3-6.2zM104.6 298.1c.1-.8.3-1.6.6-2.4.3-.8.6-1.5 1-2.2.4-.7.9-1.3 1.5-1.9.6-.5 1.2-.9 1.9-1.3.7-.3 1.5-.5 2.4-.5.9 0 1.7.1 2.4.4.7.3 1.2.7 1.7 1.3.4.5.8 1.2 1 1.9s.3 1.6.3 2.5c0 .8-.1 1.6-.2 2.4-.1.8-.3 1.6-.6 2.4-.3.8-.6 1.5-1.1 2.2-.4.7-.9 1.3-1.5 1.8s-1.2.9-2 1.2c-.7.3-1.6.5-2.5.5-.9 0-1.7-.2-2.4-.5s-1.2-.8-1.6-1.3c-.4-.6-.7-1.2-.9-2-.2-.7-.3-1.5-.3-2.4.1-.5.2-1.3.3-2.1zm3.1 4.2c.1.3.2.6.4.9.2.3.4.5.7.6.3.2.7.2 1.1.2.6 0 1-.2 1.5-.5.4-.3.8-.7 1.1-1.2.3-.5.6-1.1.8-1.7.2-.6.4-1.3.5-1.9l.3-1.8c.1-.6.1-1 .1-1.4 0-.4 0-.8-.1-1.1-.1-.4-.2-.7-.4-.9-.2-.3-.4-.5-.7-.6s-.7-.2-1.1-.2c-.5 0-1 .2-1.4.5s-.8.7-1.1 1.2c-.3.5-.6 1.1-.8 1.7s-.4 1.3-.5 1.9l-.3 1.8c-.1.6-.1 1-.1 1.4-.1.4 0 .7 0 1.1zM121.4 302.8l-.8 3.5H117l.7-3.5h3.7z"/></g></svg>