<svg id="Layer_1" xmlns="http://www.w3.org/2000/svg" viewBox="0 0 160 600"><style>.st0{fill:#349946}</style><path d="M24 132.6v3.3h-9.5v3.8h8.7v3.1h-8.7v4.4h9.7v3.3H10.6v-18H24zM29.7 150.5l-4.5-13H29l2.7 8.9h.1l2.7-8.9H38l-4.4 13h-3.9zM43.4 147.4c.5.5 1.3.8 2.3.8.7 0 1.3-.2 1.9-.5.5-.4.8-.7 1-1.1h3.1c-.5 1.6-1.3 2.7-2.3 3.3-1 .7-2.3 1-3.8 1-1 0-1.9-.2-2.8-.5-.8-.3-1.5-.8-2.1-1.4-.6-.6-1-1.3-1.3-2.2-.3-.8-.5-1.8-.5-2.8 0-1 .2-1.9.5-2.7.3-.8.8-1.6 1.4-2.2.6-.6 1.3-1.1 2.1-1.4.8-.4 1.7-.5 2.7-.5 1.1 0 2.1.2 2.9.6.8.4 1.5 1 2 1.7s.9 1.5 1.1 2.5c.2.9.3 1.9.3 2.9h-9.4c.1 1.1.4 2 .9 2.5zm4-6.8c-.4-.5-1.1-.7-1.9-.7-.6 0-1 .1-1.4.3-.4.2-.7.4-.9.7-.2.3-.4.6-.5.9-.1.3-.1.6-.2.9h5.8c-.1-1-.4-1.7-.9-2.1zM57.4 137.5v1.8h.1c.5-.8 1-1.3 1.8-1.6.7-.3 1.5-.5 2.2-.5 1 0 1.7.1 2.4.4.6.3 1.1.6 1.4 1.1.4.5.6 1 .7 1.7.1.7.2 1.4.2 2.2v8h-3.6v-7.3c0-1.1-.2-1.9-.5-2.4s-.9-.8-1.8-.8c-1 0-1.7.3-2.1.9-.4.6-.7 1.5-.7 2.9v6.8H54v-13h3.4zM83 137.5v2.4h-2.6v6.4c0 .6.1 1 .3 1.2s.6.3 1.2.3h.6c.2 0 .4 0 .5-.1v2.8c-.3.1-.6.1-1 .1h-1.1c-.6 0-1.1 0-1.6-.1s-.9-.2-1.3-.4-.7-.5-.9-.9c-.2-.4-.3-.9-.3-1.6v-7.7h-2.2v-2.4h2.2v-3.9h3.6v3.9H83zM88.3 132.6v6.8h.1c.5-.8 1-1.3 1.7-1.6.7-.3 1.4-.5 2.1-.5 1 0 1.7.1 2.4.4.6.3 1.1.6 1.4 1.1.4.5.6 1 .7 1.7.1.7.2 1.4.2 2.2v8h-3.6v-7.3c0-1.1-.2-1.9-.5-2.4s-.9-.8-1.8-.8c-1 0-1.7.3-2.1.9-.4.6-.7 1.5-.7 2.9v6.8h-3.6v-18h3.7zM103.5 147.4c.5.5 1.3.8 2.3.8.7 0 1.3-.2 1.9-.5s.8-.7 1-1.1h3.1c-.5 1.6-1.3 2.7-2.3 3.3-1 .7-2.3 1-3.8 1-1 0-1.9-.2-2.8-.5-.8-.3-1.5-.8-2.1-1.4-.6-.6-1-1.3-1.3-2.2-.3-.8-.5-1.8-.5-2.8 0-1 .2-1.9.5-2.7.3-.8.8-1.6 1.4-2.2.6-.6 1.3-1.1 2.1-1.4s1.7-.5 2.7-.5c1.1 0 2.1.2 2.9.6.8.4 1.5 1 2 1.7s.9 1.5 1.1 2.5c.2.9.3 1.9.3 2.9h-9.4c.1 1.1.4 2 .9 2.5zm4-6.8c-.4-.5-1.1-.7-1.9-.7-.6 0-1 .1-1.4.3-.4.2-.7.4-.9.7-.2.3-.4.6-.5.9-.1.3-.1.6-.2.9h5.8c-.1-1-.4-1.7-.9-2.1zM19 159.2c.9 0 1.6.1 2.3.2s1.3.4 1.8.7c.5.3.9.8 1.2 1.4.3.6.4 1.3.4 2.1 0 .9-.2 1.7-.6 2.3-.4.6-1 1.1-1.8 1.5 1.1.3 1.9.9 2.5 1.7.5.8.8 1.8.8 2.9 0 .9-.2 1.7-.5 2.4-.4.7-.8 1.2-1.4 1.6-.6.4-1.3.7-2 .9-.8.2-1.5.3-2.4.3h-8.7v-18H19zm-.5 7.2c.7 0 1.3-.2 1.7-.5.5-.3.7-.9.7-1.6 0-.4-.1-.8-.2-1s-.4-.5-.6-.6-.5-.3-.9-.3c-.3-.1-.7-.1-1-.1h-3.7v4.2h4zm.3 7.7c.4 0 .8 0 1.1-.1.4-.1.7-.2.9-.4.3-.2.5-.4.6-.7.2-.3.2-.7.2-1.2 0-.9-.3-1.6-.8-2-.5-.4-1.2-.6-2.1-.6h-4.3v4.9h4.4zM41.7 159.2v3.3h-9.5v3.8h8.7v3.1h-8.7v4.4h9.7v3.3H28.3v-18h13.4zM47.6 172.7c.2.4.5.8.9 1 .4.3.8.5 1.3.6.5.1 1 .2 1.5.2.4 0 .7 0 1.1-.1s.8-.2 1.1-.3c.4-.2.6-.4.9-.7.2-.3.4-.7.4-1.1 0-.5-.2-.9-.5-1.2-.3-.3-.7-.6-1.2-.8-.5-.2-1.1-.4-1.7-.5-.6-.2-1.3-.3-1.9-.5-.7-.2-1.3-.4-2-.6-.6-.2-1.2-.6-1.7-.9-.5-.4-.9-.9-1.2-1.4-.3-.6-.5-1.3-.5-2.1 0-.9.2-1.7.6-2.4.4-.7.9-1.2 1.5-1.7s1.4-.8 2.2-1 1.6-.3 2.4-.3c.9 0 1.8.1 2.7.3.9.2 1.6.5 2.3 1 .7.5 1.2 1.1 1.6 1.8.4.7.6 1.6.6 2.7h-3.8c0-.5-.1-1-.3-1.3-.2-.4-.4-.6-.8-.8-.3-.2-.7-.3-1.1-.4-.4-.1-.9-.1-1.3-.1-.3 0-.6 0-1 .1-.3.1-.6.2-.9.4s-.5.4-.6.6-.3.6-.3 1 .1.6.2.9.4.4.8.6.9.4 1.6.6c.7.2 1.6.4 2.7.7.3.1.8.2 1.4.4.6.2 1.2.5 1.8.8.6.4 1.1.9 1.5 1.5.4.6.6 1.5.6 2.5 0 .8-.2 1.6-.5 2.3-.3.7-.8 1.3-1.4 1.8-.6.5-1.4.9-2.3 1.2-.9.3-2 .4-3.2.4-1 0-1.9-.1-2.9-.4-.9-.2-1.8-.6-2.5-1.1-.7-.5-1.3-1.2-1.7-2-.4-.8-.6-1.8-.6-2.9h3.8c.1.3.2.8.4 1.2zM59.5 162.5v-3.3h14.7v3.3h-5.4v14.6h-3.9v-14.6h-5.4zM80.2 168.7v3.1h-7.6v-3.1h7.6zM86.5 159.2v18H83v-18h3.5zM89.2 168.1c0-.8.3-1.5.6-2.1.4-.6.8-1 1.4-1.3.6-.3 1.2-.6 1.9-.7.7-.1 1.4-.2 2.2-.2.7 0 1.3 0 2 .1s1.3.3 1.8.5c.6.3 1 .6 1.4 1.1.4.5.5 1.1.5 1.9v6.8c0 .6 0 1.1.1 1.7.1.5.2.9.4 1.2h-3.6c-.1-.2-.1-.4-.2-.6 0-.2-.1-.4-.1-.6-.6.6-1.2 1-2 1.2-.8.2-1.6.4-2.4.4-.6 0-1.2-.1-1.7-.2-.5-.2-1-.4-1.4-.7-.4-.3-.7-.7-.9-1.2-.2-.5-.3-1.1-.3-1.7 0-.7.1-1.3.4-1.8.3-.5.6-.9 1-1.1.4-.3.9-.5 1.4-.6.5-.1 1.1-.3 1.6-.3.5-.1 1.1-.2 1.6-.2s1-.1 1.4-.2.7-.2 1-.4c.2-.2.3-.5.3-.8 0-.4-.1-.7-.2-.9-.1-.2-.3-.4-.5-.5-.2-.1-.5-.2-.7-.3-.3 0-.6-.1-.9-.1-.7 0-1.3.2-1.7.5-.4.3-.6.8-.7 1.5h-3.7zm8.3 2.7c-.2.1-.3.2-.6.3-.2.1-.5.1-.7.2s-.5.1-.8.1-.6.1-.9.1c-.3.1-.5.1-.8.2-.3.1-.5.2-.7.3-.2.1-.3.3-.5.5s-.2.5-.2.8c0 .3.1.6.2.8s.3.4.5.5c.2.1.4.2.7.3.3.1.5.1.8.1.7 0 1.2-.1 1.6-.4s.7-.5.9-.8c.2-.3.3-.7.3-1s.1-.6.1-.8v-1.2zM103.9 162.1v-2.9h3.6v2.9h-3.6zm3.6 2v13h-3.6v-13h3.6zM119.5 175.5c-.4.7-1 1.2-1.6 1.5-.7.3-1.4.5-2.3.5-1 0-1.8-.2-2.6-.6-.7-.4-1.3-.9-1.8-1.5s-.8-1.4-1.1-2.2c-.2-.8-.4-1.7-.4-2.6 0-.9.1-1.7.4-2.5.2-.8.6-1.5 1.1-2.1.5-.6 1.1-1.1 1.8-1.5.7-.4 1.6-.6 2.5-.6.8 0 1.5.2 2.2.5.7.3 1.2.8 1.6 1.4v-6.5h3.6v18h-3.4v-1.8zm-.1-6.5c-.1-.5-.3-.9-.5-1.3s-.6-.7-.9-.9c-.4-.2-.9-.4-1.5-.4s-1.1.1-1.5.4c-.4.2-.7.5-1 .9-.2.4-.4.8-.5 1.3-.1.5-.2 1-.2 1.5s.1 1 .2 1.5.3 1 .6 1.3c.3.4.6.7 1 1 .4.2.9.4 1.4.4.6 0 1.1-.1 1.5-.4.4-.2.7-.5.9-.9.2-.4.4-.8.5-1.3s.2-1 .2-1.6c-.1-.5-.1-1-.2-1.5z"/><g><path d="M18.7 185.8c1.1 0 2.1.2 2.9.5.8.3 1.4.8 1.9 1.3s.9 1.1 1.1 1.8c.2.7.3 1.4.3 2.1 0 .7-.1 1.4-.3 2.1-.2.7-.6 1.3-1.1 1.8-.5.5-1.1 1-1.9 1.3-.8.3-1.7.5-2.9.5h-4.1v6.4h-3.9v-18h8zm-1.1 8.4c.5 0 .9 0 1.3-.1s.8-.2 1.1-.4c.3-.2.6-.5.8-.8.2-.4.3-.8.3-1.4 0-.6-.1-1-.3-1.4-.2-.4-.4-.6-.8-.8-.3-.2-.7-.3-1.1-.4-.4-.1-.9-.1-1.3-.1h-3.1v5.4h3.1zM31.3 185.8v14.6h8.8v3.3H27.4v-18h3.9zM51.2 185.8l6.7 18h-4.1l-1.4-4h-6.7l-1.4 4h-4l6.8-18h4.1zm.2 11l-2.3-6.6H49l-2.3 6.6h4.7zM63.4 185.8l7.5 12h.1v-12h3.7v18h-3.9l-7.5-12v12h-3.7v-18h3.8zM81.1 199.3c.2.4.5.8.9 1 .4.3.8.5 1.3.6.5.1 1 .2 1.5.2.4 0 .7 0 1.1-.1s.8-.2 1.1-.3c.4-.2.6-.4.9-.7.2-.3.4-.7.4-1.1 0-.5-.2-.9-.5-1.2-.3-.3-.7-.6-1.2-.8-.5-.2-1.1-.4-1.7-.5-.6-.2-1.3-.3-1.9-.5-.7-.2-1.3-.4-2-.6-.6-.2-1.2-.6-1.7-.9-.5-.4-.9-.9-1.2-1.4-.3-.6-.5-1.3-.5-2.1 0-.9.2-1.7.6-2.4.4-.7.9-1.2 1.5-1.7s1.4-.8 2.2-1 1.6-.3 2.4-.3c.9 0 1.8.1 2.7.3.9.2 1.6.5 2.3 1 .7.5 1.2 1.1 1.6 1.8.4.7.6 1.6.6 2.7h-3.8c0-.5-.1-1-.3-1.3s-.4-.6-.8-.8-.7-.3-1.1-.4c-.4-.1-.9-.1-1.3-.1-.3 0-.6 0-1 .1s-.6.2-.9.4c-.3.2-.5.4-.6.6s-.3.6-.3 1 .1.6.2.9c.1.2.4.4.8.6.4.2.9.4 1.6.6s1.6.4 2.7.7c.3.1.8.2 1.4.4.6.2 1.2.5 1.8.8.6.4 1.1.9 1.5 1.5.4.6.6 1.5.6 2.5 0 .8-.2 1.6-.5 2.3s-.8 1.3-1.4 1.8c-.6.5-1.4.9-2.3 1.2-.9.3-2 .4-3.2.4-1 0-1.9-.1-2.9-.4-.9-.2-1.8-.6-2.5-1.1-.7-.5-1.3-1.2-1.7-2s-.6-1.8-.6-2.9h3.8c.1.3.2.8.4 1.2zM101.1 194.4c.3-.8.8-1.6 1.4-2.2.6-.6 1.3-1.1 2.1-1.4.8-.3 1.7-.5 2.8-.5s1.9.2 2.8.5c.8.3 1.5.8 2.1 1.4.6.6 1 1.3 1.4 2.2s.5 1.8.5 2.8c0 1-.2 2-.5 2.8s-.8 1.6-1.4 2.1c-.6.6-1.3 1.1-2.1 1.4-.8.3-1.8.5-2.8.5s-1.9-.2-2.8-.5-1.5-.8-2.1-1.4c-.6-.6-1-1.3-1.4-2.1-.3-.8-.5-1.8-.5-2.8.1-1 .2-1.9.5-2.8zm3.3 4.4c.1.5.3.9.5 1.3s.6.7 1 .9c.4.2.9.4 1.5.4s1.1-.1 1.5-.4c.4-.2.7-.5 1-.9.2-.4.4-.8.5-1.3.1-.5.2-1 .2-1.5s0-1-.2-1.5-.3-.9-.5-1.3-.6-.7-1-.9c-.4-.2-.9-.4-1.5-.4s-1.1.1-1.5.4c-.4.2-.7.6-1 .9-.2.4-.4.8-.5 1.3s-.2 1-.2 1.5.1 1 .2 1.5zM115.1 193.1v-2.4h2.1v-1c0-1.2.4-2.1 1.1-2.8.7-.7 1.8-1.1 3.3-1.1h1c.3 0 .6 0 .9.1v2.7c-.4-.1-.9-.1-1.3-.1-.5 0-.8.1-1 .3-.2.2-.3.6-.3 1.1v.8h2.5v2.4h-2.5v10.6h-3.6v-10.6h-2.2z"/></g><g><path d="M13.7 217.3v1.8h.1c.5-.7 1-1.2 1.7-1.6.7-.4 1.4-.6 2.3-.6.8 0 1.6.2 2.3.5.7.3 1.2.9 1.5 1.7.4-.6.9-1.1 1.6-1.5.7-.4 1.4-.7 2.4-.7.7 0 1.3.1 1.9.3.6.2 1.1.4 1.5.8.4.4.7.9 1 1.4.2.6.4 1.3.4 2.1v8.7h-3.6V223c0-.4 0-.8-.1-1.2 0-.4-.1-.7-.3-1-.2-.3-.4-.5-.7-.7-.3-.2-.7-.3-1.2-.3s-.9.1-1.2.3c-.3.2-.6.4-.7.8-.2.3-.3.7-.4 1.1-.1.4-.1.8-.1 1.2v7.2h-3.6V223v-1.1c0-.3-.1-.7-.2-1-.1-.3-.3-.6-.6-.8-.3-.2-.7-.3-1.3-.3-.2 0-.4 0-.7.1-.3.1-.5.2-.8.4-.3.2-.5.5-.7.9-.2.4-.3.9-.3 1.5v7.5h-3.6v-13h3.4zM33.1 215.3v-2.9h3.6v2.9h-3.6zm3.6 2v13h-3.6v-13h3.6zM45.7 219.7c-.6 0-1 .1-1.4.4-.4.3-.7.6-.9 1-.2.4-.4.9-.5 1.4-.1.5-.2 1-.2 1.5s.1.9.2 1.4c.1.5.3.9.5 1.3s.5.7.9 1c.4.3.9.4 1.4.4.9 0 1.5-.2 2-.7.5-.5.8-1.1.9-1.9H52c-.2 1.7-.9 3-2 3.9s-2.5 1.4-4.2 1.4c-1 0-1.9-.2-2.7-.5-.8-.3-1.5-.8-2.1-1.4-.6-.6-1-1.3-1.3-2.1s-.5-1.7-.5-2.7c0-1 .1-1.9.4-2.8.3-.9.7-1.6 1.3-2.2.6-.6 1.3-1.1 2.1-1.5s1.8-.5 2.8-.5c.8 0 1.5.1 2.2.3s1.3.5 1.9.9c.6.4 1 .9 1.4 1.5.4.6.6 1.3.6 2.2h-3.5c-.3-1.6-1.2-2.3-2.7-2.3zM57.7 227.2c.5.5 1.3.8 2.3.8.7 0 1.3-.2 1.9-.5.5-.4.8-.7 1-1.1H66c-.5 1.6-1.3 2.7-2.3 3.3-1 .7-2.3 1-3.8 1-1 0-1.9-.2-2.8-.5-.8-.3-1.5-.8-2.1-1.4-.6-.6-1-1.3-1.3-2.2-.3-.8-.5-1.8-.5-2.8 0-1 .2-1.9.5-2.7.3-.8.8-1.6 1.4-2.2.6-.6 1.3-1.1 2.1-1.4.8-.4 1.7-.5 2.7-.5 1.1 0 2.1.2 2.9.6.8.4 1.5 1 2 1.7s.9 1.5 1.1 2.5c.2.9.3 1.9.3 2.9h-9.4c.1 1.1.4 2 .9 2.5zm4.1-6.8c-.4-.5-1.1-.7-1.9-.7-.6 0-1 .1-1.4.3-.4.2-.7.4-.9.7-.2.3-.4.6-.5.9-.1.3-.1.6-.2.9h5.8c-.2-1-.5-1.7-.9-2.1zM75.2 221.3c0-.8.3-1.5.6-2.1.4-.6.8-1 1.4-1.3.6-.3 1.2-.6 1.9-.7.7-.1 1.4-.2 2.2-.2.7 0 1.3 0 2 .1s1.3.3 1.8.5c.6.3 1 .6 1.4 1.1.4.5.5 1.1.5 1.9v6.8c0 .6 0 1.1.1 1.7.1.5.2.9.4 1.2h-3.6c-.1-.2-.1-.4-.2-.6 0-.2-.1-.4-.1-.6-.6.6-1.2 1-2 1.2-.8.2-1.6.4-2.4.4-.6 0-1.2-.1-1.7-.2-.5-.2-1-.4-1.4-.7-.4-.3-.7-.7-.9-1.2-.2-.5-.3-1.1-.3-1.7 0-.7.1-1.3.4-1.8.3-.5.6-.9 1-1.1.4-.3.9-.5 1.4-.6.5-.1 1.1-.3 1.6-.3.5-.1 1.1-.2 1.6-.2.5-.1 1-.1 1.4-.2s.7-.2 1-.4c.2-.2.3-.5.3-.8 0-.4-.1-.7-.2-.9-.1-.2-.3-.4-.5-.5-.2-.1-.5-.2-.7-.3-.3 0-.6-.1-.9-.1-.7 0-1.3.2-1.7.5-.4.3-.6.8-.7 1.5h-3.7zm8.2 2.7c-.2.1-.3.2-.6.3-.2.1-.5.1-.7.2s-.5.1-.8.1-.6.1-.9.1c-.3.1-.5.1-.8.2-.3.1-.5.2-.7.3-.2.1-.3.3-.5.5s-.2.5-.2.8c0 .3.1.6.2.8s.3.4.5.5c.2.1.4.2.7.3.3.1.5.1.8.1.7 0 1.2-.1 1.6-.4s.7-.5.9-.8c.2-.3.3-.7.3-1s.1-.6.1-.8V224zM93.2 217.3v1.8h.1c.5-.8 1-1.3 1.8-1.6.7-.3 1.5-.5 2.2-.5 1 0 1.7.1 2.4.4.6.3 1.1.6 1.4 1.1.4.5.6 1 .7 1.7.1.7.2 1.4.2 2.2v8h-3.6V223c0-1.1-.2-1.9-.5-2.4s-.9-.8-1.8-.8c-1 0-1.7.3-2.1.9-.4.6-.7 1.5-.7 2.9v6.8h-3.6v-13h3.5zM113.9 228.7c-.4.7-1 1.2-1.6 1.5-.7.3-1.4.5-2.3.5-1 0-1.8-.2-2.6-.6-.7-.4-1.3-.9-1.8-1.5s-.8-1.4-1.1-2.2c-.2-.8-.4-1.7-.4-2.6 0-.9.1-1.7.4-2.5.2-.8.6-1.5 1.1-2.1.5-.6 1.1-1.1 1.8-1.5.7-.4 1.6-.6 2.5-.6.8 0 1.5.2 2.2.5.7.3 1.2.8 1.6 1.4v-6.5h3.6v18H114l-.1-1.8zm-.1-6.5c-.1-.5-.3-.9-.5-1.3s-.6-.7-.9-.9c-.4-.2-.9-.4-1.5-.4s-1.1.1-1.5.4c-.4.2-.7.5-1 .9-.2.4-.4.8-.5 1.3-.1.5-.2 1-.2 1.5s.1 1 .2 1.5.3 1 .6 1.3c.3.4.6.7 1 1 .4.2.9.4 1.4.4.6 0 1.1-.1 1.5-.4.4-.2.7-.5.9-.9.2-.4.4-.8.5-1.3s.2-1 .2-1.6c-.1-.4-.1-1-.2-1.5z"/></g><g><path d="M18.3 239c1.2 0 2.2.2 3.2.6s1.9.9 2.6 1.7c.7.7 1.3 1.7 1.7 2.8s.6 2.4.6 3.9c0 1.3-.2 2.5-.5 3.6s-.8 2.1-1.5 2.9c-.7.8-1.5 1.4-2.5 1.9s-2.2.7-3.6.7h-7.7v-18h7.7zm-.2 14.6c.6 0 1.1-.1 1.7-.3.5-.2 1-.5 1.4-.9.4-.4.8-1 1-1.7.3-.7.4-1.5.4-2.5 0-.9-.1-1.7-.3-2.5-.2-.7-.5-1.4-.9-1.9s-.9-.9-1.6-1.2c-.7-.3-1.5-.4-2.5-.4h-2.8v11.3h3.6zM42.6 239v3.3h-9.5v3.8h8.7v3.1h-8.7v4.4h9.7v3.3H29.2v-18h13.4zM49.4 239l7.5 12h.1v-12h3.7v18h-3.9l-7.5-12h-.1v12h-3.7v-18h3.9zM62.7 242.3V239h14.7v3.3H72v14.6h-3.9v-14.6h-5.4zM83.5 239v18h-3.9v-18h3.9zM89.9 252.5c.2.4.5.8.9 1 .4.3.8.5 1.3.6.5.1 1 .2 1.5.2.4 0 .7 0 1.1-.1s.8-.2 1.1-.3c.4-.2.6-.4.9-.7.2-.3.4-.7.4-1.1 0-.5-.2-.9-.5-1.2-.3-.3-.7-.6-1.2-.8-.5-.2-1.1-.4-1.7-.5-.6-.2-1.3-.3-1.9-.5-.7-.2-1.3-.4-2-.6-.6-.2-1.2-.6-1.7-.9-.5-.4-.9-.9-1.2-1.4-.3-.6-.5-1.3-.5-2.1 0-.9.2-1.7.6-2.4.4-.7.9-1.2 1.5-1.7s1.4-.8 2.2-1 1.6-.3 2.4-.3c.9 0 1.8.1 2.7.3.9.2 1.6.5 2.3 1 .7.5 1.2 1.1 1.6 1.8.4.7.6 1.6.6 2.7h-3.8c0-.5-.1-1-.3-1.3s-.4-.6-.8-.8-.7-.3-1.1-.4c-.4-.1-.9-.1-1.3-.1-.3 0-.6 0-1 .1s-.6.2-.9.4c-.3.2-.5.4-.6.6s-.3.6-.3 1 .1.6.2.9c.1.2.4.4.8.6.4.2.9.4 1.6.6s1.6.4 2.7.7c.3.1.8.2 1.4.4.6.2 1.2.5 1.8.8.6.4 1.1.9 1.5 1.5.4.6.6 1.5.6 2.5 0 .8-.2 1.6-.5 2.3s-.8 1.3-1.4 1.8c-.6.5-1.4.9-2.3 1.2-.9.3-2 .4-3.2.4-1 0-1.9-.1-2.9-.4-.9-.2-1.8-.6-2.5-1.1-.7-.5-1.3-1.2-1.7-2s-.6-1.8-.6-2.9h3.8c.1.3.2.8.4 1.2zM101.8 242.3V239h14.7v3.3h-5.4v14.6h-3.9v-14.6h-5.4zM121.6 252.5c.2.4.5.8.9 1 .4.3.8.5 1.3.6.5.1 1 .2 1.5.2.4 0 .7 0 1.1-.1s.8-.2 1.1-.3c.4-.2.6-.4.9-.7.2-.3.4-.7.4-1.1 0-.5-.2-.9-.5-1.2-.3-.3-.7-.6-1.2-.8-.5-.2-1.1-.4-1.7-.5-.6-.2-1.3-.3-1.9-.5-.7-.2-1.3-.4-2-.6-.6-.2-1.2-.6-1.7-.9-.5-.4-.9-.9-1.2-1.4-.3-.6-.5-1.3-.5-2.1 0-.9.2-1.7.6-2.4.4-.7.9-1.2 1.5-1.7s1.4-.8 2.2-1 1.6-.3 2.4-.3c.9 0 1.8.1 2.7.3.9.2 1.6.5 2.3 1 .7.5 1.2 1.1 1.6 1.8.4.7.6 1.6.6 2.7h-3.8c0-.5-.1-1-.3-1.3s-.4-.6-.8-.8-.7-.3-1.1-.4c-.4-.1-.9-.1-1.3-.1-.3 0-.6 0-1 .1s-.6.2-.9.4c-.3.2-.5.4-.6.6s-.3.6-.3 1 .1.6.2.9c.1.2.4.4.8.6.4.2.9.4 1.6.6s1.6.4 2.7.7c.3.1.8.2 1.4.4.6.2 1.2.5 1.8.8.6.4 1.1.9 1.5 1.5.4.6.6 1.5.6 2.5 0 .8-.2 1.6-.5 2.3s-.8 1.3-1.4 1.8c-.6.5-1.4.9-2.3 1.2-.9.3-2 .4-3.2.4-1 0-1.9-.1-2.9-.4-.9-.2-1.8-.6-2.5-1.1-.7-.5-1.3-1.2-1.7-2s-.6-1.8-.6-2.9h3.8c.1.3.2.8.4 1.2z"/></g><g><path class="st0" d="M16.4 272.9c-.6 0-1 .1-1.4.4-.4.3-.7.6-.9 1-.2.4-.4.9-.5 1.4-.1.5-.2 1-.2 1.5s.1.9.2 1.4c.1.5.3.9.5 1.3s.5.7.9 1c.4.3.9.4 1.4.4.9 0 1.5-.2 2-.7.5-.5.8-1.1.9-1.9h3.4c-.2 1.7-.9 3-2 3.9s-2.5 1.4-4.2 1.4c-1 0-1.9-.2-2.7-.5-.8-.3-1.5-.8-2.1-1.4-.6-.6-1-1.3-1.3-2.1s-.5-1.7-.5-2.7c0-1 .1-1.9.4-2.8.3-.9.7-1.6 1.3-2.2.6-.6 1.3-1.1 2.1-1.5s1.8-.5 2.8-.5c.8 0 1.5.1 2.2.3s1.3.5 1.9.9c.6.4 1 .9 1.4 1.5.4.6.6 1.3.6 2.2h-3.5c-.3-1.6-1.2-2.3-2.7-2.3zM24.5 274.5c.1-.8.3-1.5.6-2.1s.8-1 1.4-1.3 1.2-.6 1.9-.7c.7-.1 1.4-.2 2.1-.2.7 0 1.3 0 2 .1s1.3.3 1.8.5 1 .6 1.4 1.1c.4.5.5 1.1.5 1.9v6.8c0 .6 0 1.1.1 1.7.1.5.2.9.4 1.2h-3.6c-.1-.2-.1-.4-.2-.6 0-.2-.1-.4-.1-.6-.6.6-1.2 1-2 1.2-.8.2-1.6.4-2.4.4-.6 0-1.2-.1-1.7-.2-.5-.2-1-.4-1.4-.7-.4-.3-.7-.7-.9-1.2-.2-.5-.3-1.1-.3-1.7 0-.7.1-1.3.4-1.8.3-.5.6-.9 1-1.1.4-.3.9-.5 1.4-.6.5-.1 1.1-.3 1.6-.3.5-.1 1.1-.2 1.6-.2.5-.1 1-.1 1.4-.2s.7-.2 1-.4c.2-.2.3-.5.3-.8 0-.4-.1-.7-.2-.9-.1-.2-.3-.4-.5-.5-.2-.1-.5-.2-.7-.3-.3 0-.6-.1-.9-.1-.7 0-1.3.2-1.7.5-.4.3-.6.8-.7 1.5h-3.6zm8.2 2.7c-.2.1-.3.2-.6.3-.2.1-.5.1-.7.2-.3.1-.5.1-.8.1-.3 0-.6.1-.9.1-.3.1-.5.1-.8.2-.3.1-.5.2-.7.3-.2.1-.3.3-.5.5-.1.2-.2.5-.2.8 0 .3.1.6.2.8.1.2.3.4.5.5.2.1.4.2.7.3s.5.1.8.1c.7 0 1.2-.1 1.6-.4.4-.2.7-.5.9-.8.2-.3.3-.7.3-1 0-.3.1-.6.1-.8v-1.2zM42.5 270.5v1.8h.1c.5-.8 1-1.3 1.8-1.6.7-.3 1.5-.5 2.2-.5 1 0 1.7.1 2.4.4.6.3 1.1.6 1.4 1.1.4.5.6 1 .7 1.7.1.7.2 1.4.2 2.2v8h-3.6v-7.3c0-1.1-.2-1.9-.5-2.4s-.9-.8-1.8-.8c-1 0-1.7.3-2.1.9-.4.6-.7 1.5-.7 2.9v6.8H39v-13h3.5z"/></g><g><path class="st0" d="M13.2 306.9c.2.3.4.5.6.7.3.2.5.3.9.4.3.1.7.1 1 .1.3 0 .5 0 .8-.1.3-.1.5-.2.8-.3.2-.1.4-.3.6-.5.2-.2.2-.5.2-.8 0-.5-.4-.9-1.1-1.2-.7-.3-1.7-.5-3-.8-.5-.1-1-.3-1.5-.4-.5-.2-.9-.4-1.3-.6-.4-.3-.7-.6-.9-1-.2-.4-.4-.9-.4-1.4 0-.8.2-1.5.5-2.1.3-.5.8-1 1.3-1.3.5-.3 1.1-.5 1.8-.7.7-.1 1.4-.2 2.1-.2s1.4.1 2 .2c.7.1 1.3.4 1.8.7s1 .7 1.3 1.3c.3.5.5 1.2.6 2h-3.4c-.1-.7-.3-1.2-.8-1.4-.5-.2-1-.4-1.7-.4h-.7c-.2 0-.4.1-.6.2-.2.1-.4.2-.5.4-.1.2-.2.4-.2.6 0 .3.1.6.4.8.2.2.5.4.9.5.4.1.8.2 1.3.3l1.5.3c.5.1 1 .3 1.5.4.5.2.9.4 1.3.7.4.3.7.6.9 1 .2.4.4.9.4 1.5 0 .9-.2 1.6-.5 2.1s-.8 1-1.3 1.4c-.6.4-1.2.6-1.9.7s-1.4.2-2.2.2c-.8 0-1.5-.1-2.2-.2s-1.4-.4-1.9-.8c-.6-.4-1-.8-1.4-1.4-.4-.6-.6-1.3-.6-2.2H13c0 .7.1 1 .2 1.3zM23.8 300.8c.3-.8.8-1.6 1.4-2.2.6-.6 1.3-1.1 2.1-1.4.8-.3 1.7-.5 2.8-.5s1.9.2 2.8.5c.8.3 1.5.8 2.1 1.4.6.6 1 1.3 1.4 2.2.3.8.5 1.8.5 2.8s-.2 2-.5 2.8c-.3.8-.8 1.6-1.4 2.1-.6.6-1.3 1.1-2.1 1.4-.8.3-1.8.5-2.8.5s-1.9-.2-2.8-.5c-.8-.3-1.5-.8-2.1-1.4-.6-.6-1-1.3-1.4-2.1s-.5-1.8-.5-2.8.2-1.9.5-2.8zm3.2 4.4c.1.5.3.9.5 1.3s.6.7 1 .9c.4.2.9.4 1.5.4s1.1-.1 1.5-.4c.4-.2.7-.5 1-.9.2-.4.4-.8.5-1.3s.2-1 .2-1.5-.1-1-.2-1.5-.3-.9-.5-1.3-.6-.7-1-.9c-.4-.2-.9-.4-1.5-.4s-1.1.1-1.5.4c-.4.2-.7.6-1 .9-.2.4-.4.8-.5 1.3s-.2 1-.2 1.5.1 1 .2 1.5zM42.5 297.2v1.8h.1c.5-.7 1-1.2 1.7-1.6.7-.4 1.4-.6 2.3-.6.8 0 1.6.2 2.3.5.7.3 1.2.9 1.5 1.7.4-.6.9-1.1 1.6-1.5.7-.4 1.4-.7 2.4-.7.7 0 1.3.1 1.9.3.6.2 1.1.4 1.5.8.4.4.7.9 1 1.4.2.6.4 1.3.4 2.1v8.7h-3.6v-7.4c0-.4 0-.8-.1-1.2s-.1-.7-.3-1c-.2-.3-.4-.5-.7-.7-.3-.2-.7-.3-1.2-.3s-.9.1-1.2.3c-.3.2-.6.4-.7.8-.2.3-.3.7-.4 1.1-.1.4-.1.8-.1 1.2v7.2h-3.6v-7.3-1.1c0-.4-.1-.7-.2-1-.1-.3-.3-.6-.6-.8-.3-.2-.7-.3-1.3-.3-.2 0-.4 0-.7.1-.3.1-.5.2-.8.4-.3.2-.5.5-.7.9-.2.4-.3.9-.3 1.5v7.5h-3.6v-13h3.4zM65.7 307c.5.5 1.3.8 2.3.8.7 0 1.3-.2 1.9-.5s.8-.7 1-1.1H74c-.5 1.6-1.3 2.7-2.3 3.3s-2.3 1-3.8 1c-1 0-1.9-.2-2.8-.5-.8-.3-1.5-.8-2.1-1.4s-1-1.3-1.3-2.2c-.3-.8-.5-1.8-.5-2.8 0-1 .2-1.9.5-2.7.3-.8.8-1.6 1.4-2.2.6-.6 1.3-1.1 2.1-1.4.8-.4 1.7-.5 2.7-.5 1.1 0 2.1.2 2.9.6.8.4 1.5 1 2 1.7s.9 1.5 1.1 2.5c.2.9.3 1.9.2 2.9h-9.4c.1 1.2.4 2 1 2.5zm4-6.8c-.4-.5-1.1-.7-1.9-.7-.6 0-1 .1-1.4.3s-.7.4-.9.7c-.2.3-.4.6-.5.9s-.1.6-.2.9h5.8c-.2-.9-.5-1.6-.9-2.1zM83.4 297.2v2.4h-2.6v6.4c0 .6.1 1 .3 1.2.2.2.6.3 1.2.3h.6c.2 0 .4 0 .5-.1v2.8c-.3 0-.6.1-1 .1h-1.1c-.6 0-1.1 0-1.6-.1s-.9-.2-1.3-.4-.7-.5-.9-.9c-.2-.4-.3-.9-.3-1.6v-7.7H75v-2.4h2.2v-3.9h3.6v3.9h2.6zM85.2 295.1v-2.9h3.6v2.9h-3.6zm3.6 2.1v13h-3.6v-13h3.6zM95.1 297.2v1.8c.5-.7 1-1.2 1.7-1.6.7-.4 1.4-.6 2.3-.6.8 0 1.6.2 2.3.5s1.2.9 1.5 1.7c.4-.6.9-1.1 1.6-1.5.7-.4 1.4-.7 2.4-.7.7 0 1.3.1 1.9.3.6.2 1.1.4 1.5.8.4.4.7.9 1 1.4.2.6.4 1.3.4 2.1v8.7H108v-7.4-1.2c0-.4-.1-.7-.3-1-.2-.3-.4-.5-.7-.7-.3-.2-.7-.3-1.2-.3s-.9.1-1.2.3c-.3.2-.6.4-.7.8-.2.3-.3.7-.4 1.1-.1.4-.1.8-.1 1.2v7.2h-3.6v-7.3-1.1c0-.4-.1-.7-.2-1s-.3-.6-.6-.8c-.3-.2-.7-.3-1.3-.3-.2 0-.4 0-.7.1-.3.1-.5.2-.8.4-.3.2-.5.5-.7.9-.2.4-.3.9-.3 1.5v7.5h-3.6v-13h3.5zM118.2 307c.5.5 1.3.8 2.3.8.7 0 1.3-.2 1.9-.5s.8-.7 1-1.1h3.1c-.5 1.6-1.3 2.7-2.3 3.3-1 .7-2.3 1-3.8 1-1 0-1.9-.2-2.8-.5-.8-.3-1.5-.8-2.1-1.4-.6-.6-1-1.3-1.3-2.2-.3-.8-.5-1.8-.5-2.8 0-1 .2-1.9.5-2.7.3-.8.8-1.6 1.4-2.2.6-.6 1.3-1.1 2.1-1.4s1.7-.5 2.7-.5c1.1 0 2.1.2 2.9.6.8.4 1.5 1 2 1.7s.9 1.5 1.1 2.5c.2.9.3 1.9.3 2.9h-9.4c.1 1.2.4 2 .9 2.5zm4.1-6.8c-.4-.5-1.1-.7-1.9-.7-.6 0-1 .1-1.4.3-.4.2-.7.4-.9.7-.2.3-.4.6-.5.9s-.1.6-.2.9h5.8c-.2-.9-.5-1.6-.9-2.1zM131.8 306.9c.2.3.4.5.6.7.3.2.5.3.9.4.3.1.7.1 1 .1.3 0 .5 0 .8-.1.3-.1.5-.2.8-.3.2-.1.4-.3.6-.5.2-.2.2-.5.2-.8 0-.5-.4-.9-1.1-1.2-.7-.3-1.7-.5-3-.8-.5-.1-1-.3-1.5-.4-.5-.2-.9-.4-1.3-.6s-.7-.6-.9-1c-.2-.4-.4-.9-.4-1.4 0-.8.2-1.5.5-2.1.3-.5.8-1 1.3-1.3.5-.3 1.1-.5 1.8-.7.7-.1 1.4-.2 2.1-.2s1.4.1 2 .2c.7.1 1.3.4 1.8.7.5.3 1 .7 1.3 1.3.3.5.5 1.2.6 2h-3.4c-.1-.7-.3-1.2-.8-1.4-.5-.2-1-.4-1.7-.4h-.7c-.2 0-.4.1-.6.2-.2.1-.4.2-.5.4-.1.2-.2.4-.2.6 0 .3.1.6.4.8.2.2.5.4.9.5s.8.2 1.3.3l1.5.3c.5.1 1 .3 1.5.4.5.2.9.4 1.3.7.4.3.7.6.9 1 .2.4.4.9.4 1.5 0 .9-.2 1.6-.5 2.1s-.8 1-1.3 1.4c-.6.4-1.2.6-1.9.7-.7.1-1.4.2-2.2.2-.8 0-1.5-.1-2.2-.2-.7-.2-1.4-.4-1.9-.8-.6-.4-1-.8-1.4-1.4-.4-.6-.6-1.3-.6-2.2h3.4c0 .7.1 1 .2 1.3z"/></g><g><path class="st0" d="M22.1 323.6c-.2-.4-.5-.7-.9-1s-.8-.5-1.2-.7c-.4-.2-.9-.2-1.4-.2-.9 0-1.6.2-2.3.5s-1.1.8-1.5 1.4c-.4.6-.7 1.2-.8 2-.2.7-.3 1.5-.3 2.3 0 .8.1 1.5.3 2.2.2.7.5 1.4.8 1.9.4.6.9 1 1.5 1.4s1.4.5 2.3.5c1.2 0 2.1-.4 2.8-1.1.7-.7 1.1-1.7 1.2-2.9h3.8c-.1 1.1-.4 2.1-.8 3-.4.9-1 1.7-1.7 2.3-.7.6-1.5 1.1-2.4 1.5s-1.9.5-3 .5c-1.4 0-2.6-.2-3.7-.7s-2-1.1-2.8-2-1.3-1.8-1.7-3c-.4-1.1-.6-2.4-.6-3.7 0-1.3.2-2.6.6-3.7s1-2.2 1.7-3c.8-.9 1.7-1.5 2.8-2s2.3-.7 3.7-.7c1 0 1.9.1 2.8.4s1.7.7 2.4 1.2 1.3 1.2 1.7 2 .7 1.7.9 2.8h-3.8c0-.4-.2-.8-.4-1.2zM33.2 318.8v6.9h7.3v-6.9h3.9v18h-3.9V329h-7.3v7.7h-3.9v-18h3.9zM56.8 318.8l6.7 18h-4.1l-1.4-4h-6.7l-1.4 4h-4l6.8-18h4.1zm.2 11l-2.3-6.6h-.1l-2.3 6.6H57zM69 318.8l7.5 12h.1v-12h3.7v18h-3.9l-7.5-12v12h-3.7v-18H69zM94.3 336.6c-.9.4-1.7.5-2.6.5-1.4 0-2.6-.2-3.7-.7s-2-1.1-2.8-2-1.3-1.8-1.7-3c-.4-1.1-.6-2.4-.6-3.7 0-1.3.2-2.6.6-3.7s1-2.2 1.7-3c.8-.9 1.7-1.5 2.8-2s2.3-.7 3.7-.7c.9 0 1.8.1 2.7.4s1.6.7 2.3 1.2c.7.5 1.3 1.2 1.7 2 .5.8.7 1.7.8 2.7h-3.8c-.2-1-.7-1.8-1.4-2.3-.7-.5-1.5-.8-2.4-.8-.9 0-1.6.2-2.3.5-.6.3-1.1.8-1.5 1.4-.4.6-.7 1.2-.8 2-.2.7-.3 1.5-.3 2.3 0 .8.1 1.5.3 2.2.2.7.5 1.4.8 1.9.4.6.9 1 1.5 1.4.6.3 1.4.5 2.3.5 1.3 0 2.3-.3 3-1 .7-.7 1.1-1.6 1.2-2.9h-4v-2.9h7.5v9.7h-2.5l-.4-2c-.4 1-1.2 1.7-2.1 2zM116.2 318.8v3.3h-9.5v3.8h8.7v3.1h-8.7v4.4h9.7v3.3h-13.6v-18h13.4z"/></g></svg>