<svg xmlns="http://www.w3.org/2000/svg" viewBox="0 0 160 600"><path d="M16.4 134l3.8 11.3 3.6-11.3H29v16.4h-3.4v-11.6l-4 11.6h-2.8l-4-11.5v11.5h-3.4V134h5zM31.5 142.2c0-.8.2-1.4.6-1.9.3-.5.8-.9 1.3-1.2s1.1-.5 1.8-.7c.7-.1 1.3-.2 2-.2.6 0 1.2 0 1.8.1.6.1 1.2.2 1.7.5s.9.6 1.2 1c.3.4.5 1 .5 1.7v6.2c0 .5 0 1.1.1 1.5.1.5.2.9.3 1.1h-3.3c-.1-.2-.1-.4-.1-.6 0-.2-.1-.4-.1-.6-.5.5-1.1.9-1.8 1.1s-1.4.3-2.2.3c-.6 0-1.1-.1-1.6-.2s-.9-.4-1.3-.6c-.4-.3-.7-.7-.9-1.1s-.3-1-.3-1.6c0-.7.1-1.2.4-1.7s.5-.8.9-1c.4-.3.8-.5 1.3-.6l1.5-.3c.5-.1 1-.1 1.4-.2.5 0 .9-.1 1.3-.2s.7-.2.9-.4c.2-.2.3-.4.3-.8s-.1-.6-.2-.8c-.1-.2-.3-.4-.5-.5-.2-.1-.4-.2-.7-.2-.3 0-.5-.1-.8-.1-.6 0-1.2.1-1.5.4-.4.3-.6.7-.6 1.4h-3.4zm7.5 2.4c-.1.1-.3.2-.5.3-.2.1-.4.1-.7.2s-.5.1-.7.1c-.3 0-.5.1-.8.1-.2 0-.5.1-.7.2l-.6.3c-.2.1-.3.3-.4.5-.1.2-.2.5-.2.8 0 .3.1.5.2.7.1.2.3.4.4.5.2.1.4.2.6.2.2 0 .5.1.8.1.6 0 1.1-.1 1.5-.3.4-.2.6-.5.8-.8.2-.3.3-.6.3-.9s.1-.6.1-.7v-1.3zM48.2 134v8.8l4.1-4.3h3.9l-4.5 4.4 5 7.5h-4l-3.3-5.3-1.3 1.2v4.1h-3.3V134h3.4zM57.7 136.7V134H61v2.7h-3.3zm3.3 1.8v11.9h-3.3v-11.9H61zM66.4 138.5v1.7h.1c.4-.7.9-1.2 1.6-1.5.7-.3 1.3-.5 2-.5.9 0 1.6.1 2.2.4.6.2 1 .6 1.3 1 .3.4.5.9.7 1.5.1.6.2 1.3.2 2v7.3h-3.3v-6.7c0-1-.2-1.7-.5-2.2s-.8-.7-1.6-.7c-.9 0-1.5.3-1.9.8-.4.5-.6 1.4-.6 2.6v6.2h-3.3v-11.9h3.1zM88 151.3c-.1.6-.4 1.2-.8 1.7s-1 1-1.9 1.3c-.8.4-1.9.6-3.3.6-.6 0-1.2-.1-1.8-.2-.6-.1-1.2-.4-1.7-.7s-.9-.7-1.2-1.2c-.3-.5-.5-1.1-.6-1.7H80c.2.6.5 1 .9 1.3.4.2 1 .4 1.5.4.9 0 1.6-.3 2-.8.4-.6.6-1.2.6-2.1v-1.6c-.4.6-.9 1.1-1.5 1.4-.7.3-1.3.4-2.1.4-.9 0-1.7-.2-2.3-.5-.6-.3-1.2-.7-1.6-1.3-.4-.5-.7-1.2-.9-1.9-.2-.7-.3-1.5-.3-2.3 0-.8.1-1.5.3-2.2.2-.7.5-1.3 1-1.9.4-.5 1-1 1.6-1.3.6-.3 1.4-.5 2.2-.5.8 0 1.5.1 2.1.4.6.3 1.1.8 1.5 1.5v-1.6h3.1v11.1c.1.5 0 1.1-.1 1.7zm-4.5-4c.4-.2.6-.4.9-.7.2-.3.4-.7.5-1 .1-.4.2-.8.2-1.2 0-.5 0-1-.1-1.4-.1-.4-.2-.8-.5-1.2-.2-.3-.5-.6-.9-.8-.4-.2-.8-.3-1.3-.3s-.9.1-1.2.3c-.3.2-.6.4-.8.7-.2.3-.4.7-.5 1.1s-.1.8-.1 1.3c0 .4 0 .9.1 1.3s.2.8.4 1.1c.2.3.5.6.8.8.3.2.8.3 1.3.3.4 0 .8-.1 1.2-.3zM99.5 147.5c.1.3.3.5.6.6.2.2.5.3.8.4.3.1.6.1.9.1.2 0 .5 0 .7-.1s.5-.1.7-.3c.2-.1.4-.3.5-.5.1-.2.2-.4.2-.7 0-.5-.3-.9-1-1.1s-1.6-.5-2.7-.7c-.5-.1-.9-.2-1.4-.4-.5-.1-.9-.3-1.2-.6-.4-.2-.6-.5-.9-.9s-.3-.8-.3-1.3c0-.8.1-1.4.4-1.9s.7-.9 1.2-1.2c.5-.3 1-.5 1.7-.6.6-.1 1.2-.2 1.9-.2.6 0 1.3.1 1.9.2s1.1.3 1.6.6.9.7 1.2 1.2c.3.5.5 1.1.6 1.8h-3.1c0-.6-.3-1.1-.7-1.3-.4-.2-.9-.3-1.5-.3h-.6c-.2 0-.4.1-.6.1-.2.1-.3.2-.4.3-.1.1-.2.3-.2.6s.1.5.3.7c.2.2.5.3.8.4.3.1.7.2 1.2.3.4.1.9.2 1.4.3.5.1.9.2 1.4.4.5.2.9.4 1.2.6s.6.6.9.9c.2.4.3.8.3 1.4 0 .8-.2 1.4-.5 2-.3.5-.7 1-1.2 1.3-.5.3-1.1.5-1.7.7-.7.1-1.3.2-2 .2s-1.4-.1-2-.2c-.7-.1-1.2-.4-1.8-.7-.5-.3-.9-.7-1.3-1.3-.3-.5-.5-1.2-.5-2h3.1c-.1.6-.1.9.1 1.2zM116.9 150.4v-1.7h-.1c-.4.7-1 1.2-1.6 1.5-.7.3-1.3.5-2 .5-.9 0-1.6-.1-2.2-.3s-1-.6-1.3-1c-.3-.4-.5-.9-.7-1.5-.1-.6-.2-1.3-.2-2v-7.3h3.3v6.7c0 1 .2 1.7.5 2.2s.9.7 1.6.7c.9 0 1.5-.3 1.9-.8.4-.5.6-1.4.6-2.6v-6.2h3.3v11.9h-3.1zM125.4 138.5v2.2c.2-.4.4-.7.6-1 .3-.3.6-.6.9-.8.3-.2.7-.4 1.1-.5.4-.1.8-.2 1.2-.2.2 0 .5 0 .7.1v3c-.2 0-.3-.1-.6-.1h-.6c-.6 0-1.1.1-1.5.3s-.7.5-1 .8c-.3.3-.4.7-.5 1.2s-.2 1-.2 1.5v5.4h-3.3v-11.9h3.2zM134.1 147.6c.5.5 1.2.7 2.1.7.7 0 1.2-.2 1.7-.5s.8-.7.9-1h2.9c-.5 1.4-1.2 2.4-2.1 3.1-1 .6-2.1.9-3.5.9-.9 0-1.8-.1-2.5-.4-.8-.3-1.4-.7-1.9-1.3-.5-.6-.9-1.2-1.2-2-.3-.8-.4-1.6-.4-2.5 0-.9.1-1.7.4-2.5.3-.8.7-1.4 1.2-2 .5-.6 1.2-1 1.9-1.3.7-.3 1.6-.5 2.5-.5 1 0 1.9.2 2.6.6s1.4.9 1.9 1.6c.5.7.8 1.4 1 2.3.2.8.3 1.7.2 2.6h-8.6c.2.9.4 1.7.9 2.2zm3.7-6.3c-.4-.4-1-.6-1.8-.6-.5 0-1 .1-1.3.3s-.6.4-.8.7-.4.5-.4.8c-.1.3-.1.6-.1.8h5.3c-.2-.9-.5-1.6-.9-2z"/><g><path d="M15.3 180c-.6.4-1.5.6-2.6.6h-1c-.3 0-.7 0-1-.1v-2.7c.3 0 .6.1.9.1h1c.4 0 .7-.2 1-.5s.3-.6.3-1c0-.3 0-.5-.1-.7l-4.2-11.2h3.5l2.7 8.1 2.6-8.1h3.4l-5 13.4c-.3 1-.8 1.6-1.5 2.1zM22.7 167.9c.3-.8.7-1.4 1.2-2 .5-.5 1.2-1 1.9-1.3.8-.3 1.6-.4 2.5-.4.9 0 1.8.1 2.5.4.8.3 1.4.7 1.9 1.3.5.5 1 1.2 1.2 2 .3.8.4 1.6.4 2.6s-.1 1.8-.4 2.6c-.3.8-.7 1.4-1.2 2-.5.5-1.2 1-1.9 1.3-.8.3-1.6.4-2.5.4-.9 0-1.8-.1-2.5-.4-.8-.3-1.4-.7-1.9-1.3-.5-.5-1-1.2-1.2-2-.3-.8-.4-1.6-.4-2.6s.2-1.8.4-2.6zm3 4c.1.5.2.9.5 1.2.2.4.5.6.9.9.4.2.8.3 1.4.3.6 0 1-.1 1.4-.3.4-.2.7-.5.9-.9.2-.4.4-.8.5-1.2.1-.5.1-.9.1-1.4 0-.5 0-.9-.1-1.4-.1-.5-.2-.9-.5-1.2-.2-.4-.5-.6-.9-.9-.4-.2-.8-.3-1.4-.3-.6 0-1 .1-1.4.3-.4.2-.7.5-.9.9-.2.4-.4.8-.5 1.2-.1.5-.1.9-.1 1.4 0 .5 0 .9.1 1.4zM44.6 176.4v-1.7h-.1c-.4.7-1 1.2-1.6 1.5s-1.3.5-2 .5c-.9 0-1.6-.1-2.2-.3-.6-.2-1-.6-1.3-1-.3-.4-.5-.9-.7-1.5-.1-.6-.2-1.3-.2-2v-7.3h3.3v6.7c0 1 .2 1.7.5 2.2s.9.7 1.6.7c.9 0 1.5-.3 1.9-.8.4-.5.6-1.4.6-2.6v-6.2h3.3v11.9h-3.1zM53.1 164.5v2.2c.2-.4.4-.7.6-1 .3-.3.6-.6.9-.8.3-.2.7-.4 1.1-.5.4-.1.8-.2 1.2-.2.2 0 .5 0 .7.1v3c-.2 0-.3-.1-.6-.1h-.6c-.6 0-1.1.1-1.5.3s-.7.5-1 .8-.4.7-.5 1.2c-.1.5-.2 1-.2 1.5v5.4H50v-11.9h3.1zM68.2 160v16.4H65V160h3.2zM70.7 162.7V160H74v2.7h-3.3zm3.2 1.8v11.9h-3.3v-11.9h3.3zM75 166.7v-2.2h2v-.9c0-1.1.3-1.9 1-2.6.7-.7 1.7-1 3-1h.9c.3 0 .6 0 .9.1v2.4c-.4 0-.8-.1-1.2-.1-.4 0-.8.1-1 .3-.2.2-.3.6-.3 1v.7h2.3v2.2h-2.3v9.7H77v-9.7h-2zM87.2 173.6c.5.5 1.2.7 2.1.7.7 0 1.2-.2 1.7-.5s.8-.7.9-1h2.9c-.5 1.4-1.2 2.4-2.1 3.1-1 .6-2.1.9-3.5.9-.9 0-1.8-.1-2.5-.4-.8-.3-1.4-.7-1.9-1.3-.5-.6-.9-1.2-1.2-2-.3-.8-.4-1.6-.4-2.5 0-.9.1-1.7.4-2.5.3-.8.7-1.4 1.2-2 .5-.6 1.2-1 1.9-1.3.7-.3 1.6-.5 2.5-.5 1 0 1.9.2 2.6.6s1.4.9 1.9 1.6c.5.7.8 1.4 1 2.3.2.8.3 1.7.2 2.6h-8.6c.2.9.4 1.7.9 2.2zm3.7-6.3c-.4-.4-1-.6-1.8-.6-.5 0-1 .1-1.3.3s-.6.4-.8.7-.4.5-.4.8c-.1.3-.1.6-.1.8h5.3c-.2-.9-.5-1.6-.9-2z"/></g><g><path d="M11 188.7V186h3.3v2.7H11zm3.3 1.8v11.9H11v-11.9h3.3zM19.8 190.5v1.7h.1c.4-.7 1-1.2 1.6-1.5.7-.3 1.3-.5 2-.5.9 0 1.6.1 2.2.4.6.2 1 .6 1.3 1 .3.4.5.9.7 1.5.1.6.2 1.3.2 2v7.3h-3.3v-6.7c0-1-.2-1.7-.5-2.2s-.9-.7-1.6-.7c-.9 0-1.5.3-1.9.8-.4.5-.6 1.4-.6 2.6v6.2h-3.3v-11.9h3.1zM32.9 199.4c.1.3.3.5.6.6s.5.3.8.4c.3.1.6.1.9.1.2 0 .5 0 .7-.1s.5-.1.7-.3c.2-.1.4-.3.5-.5.1-.2.2-.4.2-.7 0-.5-.3-.9-1-1.1s-1.6-.5-2.7-.7c-.5-.1-.9-.2-1.4-.4-.5-.1-.9-.3-1.2-.6-.4-.2-.6-.5-.9-.9-.2-.4-.3-.8-.3-1.3 0-.8.1-1.4.4-1.9.3-.5.7-.9 1.2-1.2.5-.3 1-.5 1.7-.6.6-.1 1.2-.2 1.9-.2s1.3.1 1.9.2c.6.1 1.1.3 1.6.6s.9.7 1.2 1.2.5 1.1.6 1.8h-3.1c0-.6-.3-1.1-.7-1.3s-.9-.3-1.5-.3h-.6c-.2 0-.4.1-.6.1-.2.1-.3.2-.4.3-.1.1-.2.3-.2.6s.1.5.3.7.5.3.8.4c.3.1.7.2 1.2.3.4.1.9.2 1.4.3.5.1.9.2 1.4.4.5.2.9.4 1.2.6.4.3.6.6.9.9.2.4.3.8.3 1.4 0 .8-.2 1.4-.5 2-.3.5-.7 1-1.2 1.3-.5.3-1.1.5-1.7.7-.7.1-1.3.2-2 .2s-1.4-.1-2-.2c-.7-.1-1.2-.4-1.8-.7-.5-.3-.9-.7-1.3-1.3-.3-.5-.5-1.2-.5-2h3.1c-.2.7-.1 1 .1 1.2zM50.3 202.4v-1.7h-.1c-.4.7-1 1.2-1.6 1.5s-1.3.5-2 .5c-.9 0-1.6-.1-2.2-.3-.6-.2-1-.6-1.3-1-.3-.4-.5-.9-.7-1.5-.1-.6-.2-1.3-.2-2v-7.3h3.3v6.7c0 1 .2 1.7.5 2.2s.9.7 1.6.7c.9 0 1.5-.3 1.9-.8.4-.5.6-1.4.6-2.6v-6.2h3.3v11.9h-3.1zM58.8 190.5v2.2c.2-.4.4-.7.6-1 .3-.3.6-.6.9-.8.3-.2.7-.4 1.1-.5.4-.1.8-.2 1.2-.2.2 0 .5 0 .7.1v3c-.2 0-.3-.1-.6-.1h-.6c-.6 0-1.1.1-1.5.3s-.7.5-1 .8-.4.7-.5 1.2c-.1.5-.2 1-.2 1.5v5.4h-3.3v-11.9h3.2zM64.3 194.2c0-.8.2-1.4.6-1.9.3-.5.8-.9 1.3-1.2s1.1-.5 1.8-.7c.7-.1 1.3-.2 2-.2.6 0 1.2 0 1.8.1.6.1 1.2.2 1.7.5.5.2.9.6 1.2 1 .3.4.5 1 .5 1.7v6.2c0 .5 0 1.1.1 1.5s.2.9.3 1.1h-3.3c-.1-.2-.1-.4-.1-.6 0-.2-.1-.4-.1-.6-.5.5-1.1.9-1.8 1.1-.7.2-1.4.3-2.2.3-.6 0-1.1-.1-1.6-.2s-.9-.4-1.3-.6c-.4-.3-.7-.7-.9-1.1s-.3-1-.3-1.6c0-.7.1-1.2.4-1.7s.5-.8.9-1c.4-.3.8-.5 1.3-.6l1.5-.3c.5-.1 1-.1 1.4-.2s.9-.1 1.3-.2.7-.2.9-.4.3-.4.3-.8-.1-.6-.2-.8-.3-.4-.5-.5c-.2-.1-.4-.2-.7-.2-.3 0-.5-.1-.8-.1-.6 0-1.2.1-1.5.4-.4.3-.6.7-.6 1.4h-3.4zm7.5 2.4c-.1.1-.3.2-.5.3-.2.1-.4.1-.7.2-.2 0-.5.1-.7.1-.3 0-.5.1-.8.1-.2 0-.5.1-.7.2l-.6.3c-.2.1-.3.3-.4.5-.1.2-.2.5-.2.8 0 .3.1.5.2.7.1.2.3.4.4.5.2.1.4.2.6.2s.5.1.8.1c.6 0 1.1-.1 1.5-.3.4-.2.6-.5.8-.8.2-.3.3-.6.3-.9 0-.3.1-.6.1-.7v-1.3zM80.5 190.5v1.7h.1c.4-.7 1-1.2 1.6-1.5.7-.3 1.3-.5 2-.5.9 0 1.6.1 2.2.4s1 .6 1.3 1c.3.4.5.9.7 1.5.1.6.2 1.3.2 2v7.3h-3.3v-6.7c0-1-.2-1.7-.5-2.2s-.9-.7-1.6-.7c-.9 0-1.5.3-1.9.8-.4.5-.6 1.4-.6 2.6v6.2h-3.3v-11.9h3.1zM96.5 192.7c-.5 0-1 .1-1.3.4-.4.2-.6.5-.9.9-.2.4-.4.8-.5 1.2-.1.5-.1.9-.1 1.3s0 .9.1 1.3.2.8.4 1.2c.2.4.5.7.8.9.4.2.8.3 1.3.3.8 0 1.4-.2 1.8-.7s.7-1 .8-1.8h3.2c-.2 1.6-.8 2.8-1.8 3.6-1 .8-2.3 1.2-3.9 1.2-.9 0-1.7-.1-2.4-.4-.7-.3-1.4-.7-1.9-1.3-.5-.5-.9-1.2-1.2-1.9-.3-.7-.4-1.6-.4-2.4 0-.9.1-1.8.4-2.6.3-.8.7-1.5 1.2-2 .5-.6 1.2-1 1.9-1.3.8-.3 1.6-.5 2.6-.5.7 0 1.4.1 2 .3s1.2.5 1.7.8c.5.4.9.8 1.3 1.4.3.6.5 1.2.6 2H99c-.3-1.3-1.1-1.9-2.5-1.9zM107.3 199.6c.5.5 1.2.7 2.1.7.7 0 1.2-.2 1.7-.5s.8-.7.9-1h2.9c-.5 1.4-1.2 2.4-2.1 3.1-1 .6-2.1.9-3.5.9-.9 0-1.8-.1-2.5-.4-.8-.3-1.4-.7-1.9-1.3-.5-.6-.9-1.2-1.2-2-.3-.8-.4-1.6-.4-2.5 0-.9.1-1.7.4-2.5.3-.8.7-1.4 1.2-2 .5-.6 1.2-1 1.9-1.3.7-.3 1.6-.5 2.5-.5 1 0 1.9.2 2.6.6s1.4.9 1.9 1.6c.5.7.8 1.4 1 2.3.2.8.3 1.7.2 2.6h-8.6c.2.9.4 1.7.9 2.2zm3.7-6.3c-.4-.4-1-.6-1.8-.6-.5 0-1 .1-1.3.3s-.6.4-.8.7-.4.5-.4.8c-.1.3-.1.6-.1.8h5.3c-.2-.9-.5-1.6-.9-2z"/></g><g><path d="M11 214.7V212h3.3v2.7H11zm3.3 1.8v11.9H11v-11.9h3.3zM19.4 225.4c.1.3.3.5.6.6s.5.3.8.4c.3.1.6.1.9.1.2 0 .5 0 .7-.1s.5-.1.7-.3c.2-.1.4-.3.5-.5.1-.2.2-.4.2-.7 0-.5-.3-.9-1-1.1s-1.6-.5-2.7-.7c-.5-.1-.9-.2-1.4-.4-.5-.1-.9-.3-1.2-.6-.4-.2-.6-.5-.9-.9-.2-.4-.3-.8-.3-1.3 0-.8.1-1.4.4-1.9.3-.5.7-.9 1.2-1.2.5-.3 1-.5 1.7-.6.6-.1 1.2-.2 1.9-.2s1.3.1 1.9.2c.6.1 1.1.3 1.6.6s.9.7 1.2 1.2.5 1.1.6 1.8h-3.1c0-.6-.3-1.1-.7-1.3s-.9-.3-1.5-.3h-.6c-.2 0-.4.1-.6.1-.2.1-.3.2-.4.3-.1.1-.2.3-.2.6s.1.5.3.7.5.3.8.4c.3.1.7.2 1.2.3.4.1.9.2 1.4.3.5.1.9.2 1.4.4.5.2.9.4 1.2.6.4.3.6.6.9.9.2.4.3.8.3 1.4 0 .8-.2 1.4-.5 2-.3.5-.7 1-1.2 1.3-.5.3-1.1.5-1.7.7-.7.1-1.3.2-2 .2s-1.4-.1-2-.2c-.7-.1-1.2-.4-1.8-.7-.5-.3-.9-.7-1.3-1.3-.3-.5-.5-1.2-.5-2h3.1c-.1.7 0 1 .1 1.2zM37.8 225.4c.1.3.3.5.6.6s.5.3.8.4c.3.1.6.1.9.1.2 0 .5 0 .7-.1s.5-.1.7-.3c.2-.1.4-.3.5-.5.1-.2.2-.4.2-.7 0-.5-.3-.9-1-1.1s-1.6-.5-2.7-.7c-.5-.1-.9-.2-1.4-.4-.5-.1-.9-.3-1.2-.6-.4-.2-.6-.5-.9-.9-.2-.4-.3-.8-.3-1.3 0-.8.1-1.4.4-1.9.3-.5.7-.9 1.2-1.2.5-.3 1-.5 1.7-.6.6-.1 1.2-.2 1.9-.2s1.3.1 1.9.2c.6.1 1.1.3 1.6.6s.9.7 1.2 1.2.5 1.1.6 1.8H42c0-.6-.3-1.1-.7-1.3s-.9-.3-1.5-.3h-.6c-.2 0-.4.1-.6.1-.2.1-.3.2-.4.3-.1.1-.2.3-.2.6s.1.5.3.7.5.3.8.4c.3.1.7.2 1.2.3.4.1.9.2 1.4.3.5.1.9.2 1.4.4.5.2.9.4 1.2.6.4.3.6.6.9.9.2.4.3.8.3 1.4 0 .8-.2 1.4-.5 2-.3.5-.7 1-1.2 1.3-.5.3-1.1.5-1.7.7-.7.1-1.3.2-2 .2s-1.4-.1-2-.2c-.7-.1-1.2-.4-1.8-.7-.5-.3-.9-.7-1.3-1.3-.3-.5-.5-1.2-.5-2h3.1c-.1.7 0 1 .2 1.2zM53.7 216.5v2.2h-2.4v5.9c0 .6.1.9.3 1.1.2.2.6.3 1.1.3h.5c.2 0 .3 0 .5-.1v2.5c-.3 0-.6.1-.9.1h-1c-.5 0-1 0-1.4-.1-.5-.1-.9-.2-1.2-.4-.3-.2-.6-.5-.8-.9-.2-.4-.3-.9-.3-1.4v-7h-2v-2.2h2v-3.6h3.3v3.6h2.3zM55.1 214.7V212h3.3v2.7h-3.3zm3.3 1.8v11.9h-3.3v-11.9h3.3zM64.1 212v16.4h-3.3V212h3.3zM69.8 212v16.4h-3.3V212h3.3zM78.4 214.7V212h3.3v2.7h-3.3zm3.3 1.8v11.9h-3.3v-11.9h3.3zM87.2 216.5v1.7h.1c.4-.7 1-1.2 1.6-1.5.7-.3 1.3-.5 2-.5.9 0 1.6.1 2.2.4s1 .6 1.3 1c.3.4.5.9.7 1.5.1.6.2 1.3.2 2v7.3H92v-6.7c0-1-.2-1.7-.5-2.2s-.9-.7-1.6-.7c-.9 0-1.5.3-1.9.8-.4.5-.6 1.4-.6 2.6v6.2h-3.3v-11.9h3.1z"/></g><g><path d="M13.7 251.4c.1.3.3.5.6.6s.5.3.8.4c.3.1.6.1.9.1.2 0 .5 0 .7-.1s.5-.1.7-.3c.2-.1.4-.3.5-.5.1-.2.2-.4.2-.7 0-.5-.3-.9-1-1.1s-1.6-.5-2.7-.7c-.5-.1-.9-.2-1.4-.4-.5-.1-.9-.3-1.2-.6-.4-.2-.6-.5-.9-.9-.2-.4-.3-.8-.3-1.3 0-.8.1-1.4.4-1.9.3-.5.7-.9 1.2-1.2.5-.3 1-.5 1.7-.6.6-.1 1.2-.2 1.9-.2s1.3.1 1.9.2c.6.1 1.1.3 1.6.6s.9.7 1.2 1.2.5 1.1.6 1.8H18c0-.6-.3-1.1-.7-1.3s-.9-.3-1.5-.3h-.6c-.2 0-.4.1-.6.1-.2.1-.3.2-.4.3-.1.1-.2.3-.2.6s.1.5.3.7.5.3.8.4c.3.1.7.2 1.2.3.4.1.9.2 1.4.3.5.1.9.2 1.4.4.5.2.9.4 1.2.6.4.3.6.6.9.9.2.4.3.8.3 1.4 0 .8-.2 1.4-.5 2-.3.5-.7 1-1.2 1.3-.5.3-1.1.5-1.7.7-.7.1-1.3.2-2 .2s-1.4-.1-2-.2c-.7-.1-1.2-.4-1.8-.7-.5-.3-.9-.7-1.3-1.3-.3-.5-.5-1.2-.5-2h3.1c-.1.7 0 1 .1 1.2zM27.5 257.9c-.6.4-1.5.6-2.6.6h-1c-.3 0-.7 0-1-.1v-2.7c.3 0 .6.1.9.1h1c.4 0 .7-.2 1-.5s.3-.6.3-1c0-.3 0-.5-.1-.7l-4.2-11.2h3.5l2.7 8.1 2.6-8.1H34l-5 13.4c-.4 1-.9 1.7-1.5 2.1zM37.9 242.5v1.7h.1c.4-.7 1-1.2 1.6-1.5.7-.3 1.3-.5 2-.5.9 0 1.6.1 2.2.4.6.2 1 .6 1.3 1 .3.4.5.9.7 1.5.1.6.2 1.3.2 2v7.3h-3.3v-6.7c0-1-.2-1.7-.5-2.2s-.9-.7-1.6-.7c-.9 0-1.5.3-1.9.8-.4.5-.6 1.4-.6 2.6v6.2h-3.3v-11.9h3.1zM53.9 244.6c-.5 0-1 .1-1.3.4-.4.2-.6.5-.9.9-.2.4-.4.8-.5 1.2-.1.5-.1.9-.1 1.3s0 .9.1 1.3.2.8.4 1.2c.2.4.5.7.8.9.4.2.8.3 1.3.3.8 0 1.4-.2 1.8-.7.4-.4.7-1 .8-1.8h3.2c-.2 1.6-.8 2.8-1.8 3.6-1 .8-2.3 1.2-3.9 1.2-.9 0-1.7-.1-2.4-.4-.7-.3-1.4-.7-1.9-1.3-.5-.5-.9-1.2-1.2-1.9-.3-.7-.4-1.6-.4-2.4 0-.9.1-1.8.4-2.6.3-.8.7-1.5 1.2-2 .5-.6 1.2-1 1.9-1.3.8-.3 1.6-.5 2.6-.5.7 0 1.4.1 2 .3.7.2 1.2.5 1.7.8.5.4.9.8 1.3 1.4.3.6.5 1.2.6 2h-3.2c-.3-1.2-1.1-1.9-2.5-1.9zM77.7 254.4l-2.1-8-2 8h-3.4l-3.8-11.9h3.5l2.2 8.1 2-8.1h3.2l2 8.1 2.2-8.1h3.4L81 254.4h-3.3zM86 240.7V238h3.3v2.7H86zm3.3 1.8v11.9H86v-11.9h3.3zM98.2 242.5v2.2h-2.4v5.9c0 .6.1.9.3 1.1.2.2.6.3 1.1.3h.5c.2 0 .3 0 .5-.1v2.5c-.3 0-.6.1-.9.1h-1c-.5 0-1 0-1.4-.1-.5-.1-.9-.2-1.2-.4-.3-.2-.6-.5-.8-.9-.2-.4-.3-.9-.3-1.4v-7h-2v-2.2h2v-3.6h3.3v3.6h2.3zM102.8 238v6.2h.1c.4-.7.9-1.2 1.6-1.5.6-.3 1.3-.5 1.9-.5.9 0 1.6.1 2.2.4s1 .6 1.3 1c.3.4.5.9.7 1.5.1.6.2 1.3.2 2v7.3h-3.3v-6.7c0-1-.2-1.7-.5-2.2s-.9-.7-1.6-.7c-.9 0-1.5.3-1.9.8-.4.5-.6 1.4-.6 2.6v6.2h-3.3V238h3.2z"/></g><g><path d="M15.3 283.9c-.6.4-1.5.6-2.6.6h-1c-.3 0-.7 0-1-.1v-2.7c.3 0 .6.1.9.1h1c.4 0 .7-.2 1-.5s.3-.6.3-1c0-.3 0-.5-.1-.7l-4.2-11.2h3.5l2.7 8.1 2.6-8.1h3.4l-5 13.4c-.3 1-.8 1.7-1.5 2.1zM22.7 271.9c.3-.8.7-1.4 1.2-2 .5-.5 1.2-1 1.9-1.3.8-.3 1.6-.4 2.5-.4.9 0 1.8.1 2.5.4.8.3 1.4.7 1.9 1.3.5.5 1 1.2 1.2 2 .3.8.4 1.6.4 2.6s-.1 1.8-.4 2.6c-.3.8-.7 1.4-1.2 2-.5.5-1.2 1-1.9 1.3-.8.3-1.6.4-2.5.4-.9 0-1.8-.1-2.5-.4-.8-.3-1.4-.7-1.9-1.3-.5-.5-1-1.2-1.2-2-.3-.8-.4-1.6-.4-2.6s.2-1.9.4-2.6zm3 3.9c.1.5.2.9.5 1.2.2.4.5.6.9.9.4.2.8.3 1.4.3.6 0 1-.1 1.4-.3.4-.2.7-.5.9-.9.2-.4.4-.8.5-1.2.1-.5.1-.9.1-1.4 0-.5 0-.9-.1-1.4-.1-.5-.2-.9-.5-1.2-.2-.4-.5-.6-.9-.9-.4-.2-.8-.3-1.4-.3-.6 0-1 .1-1.4.3-.4.2-.7.5-.9.9-.2.4-.4.8-.5 1.2-.1.5-.1.9-.1 1.4 0 .5 0 1 .1 1.4zM44.6 280.4v-1.7h-.1c-.4.7-1 1.2-1.6 1.5s-1.3.5-2 .5c-.9 0-1.6-.1-2.2-.3-.6-.2-1-.6-1.3-1-.3-.4-.5-.9-.7-1.5-.1-.6-.2-1.3-.2-2v-7.3h3.3v6.7c0 1 .2 1.7.5 2.2s.9.7 1.6.7c.9 0 1.5-.3 1.9-.8.4-.5.6-1.4.6-2.6v-6.2h3.3v11.9h-3.1zM53.1 268.5v2.2c.2-.4.4-.7.6-1 .3-.3.6-.6.9-.8.3-.2.7-.4 1.1-.5.4-.1.8-.2 1.2-.2.2 0 .5 0 .7.1v3c-.2 0-.3-.1-.6-.1h-.6c-.6 0-1.1.1-1.5.3s-.7.5-1 .8-.4.7-.5 1.2c-.1.5-.2 1-.2 1.5v5.4H50v-11.9h3.1zM76.1 281.2c-.1.6-.4 1.2-.8 1.7s-1 1-1.9 1.3c-.8.4-1.9.6-3.3.6-.6 0-1.2-.1-1.8-.2-.6-.1-1.2-.4-1.7-.7s-.9-.7-1.2-1.2c-.3-.5-.5-1.1-.6-1.7H68c.2.6.5 1 .9 1.3.4.2 1 .4 1.5.4.9 0 1.6-.3 2-.8.4-.6.6-1.2.6-2.1v-1.6c-.4.6-.9 1.1-1.5 1.4-.7.3-1.3.4-2.1.4-.9 0-1.7-.2-2.3-.5-.6-.3-1.2-.7-1.6-1.3-.4-.5-.7-1.2-.9-1.9-.2-.7-.3-1.5-.3-2.3 0-.8.1-1.5.3-2.2.2-.7.5-1.3 1-1.9.4-.5 1-1 1.6-1.3.6-.3 1.4-.5 2.2-.5.8 0 1.5.1 2.1.4.6.3 1.1.8 1.5 1.5v-1.6h3.1v11.1c.2.6.1 1.1 0 1.7zm-4.5-3.9c.4-.2.6-.4.9-.7.2-.3.4-.7.5-1 .1-.4.2-.8.2-1.2 0-.5 0-1-.1-1.4-.1-.4-.2-.8-.5-1.2-.2-.3-.5-.6-.9-.8-.4-.2-.8-.3-1.3-.3s-.9.1-1.2.3c-.3.2-.6.4-.8.7-.2.3-.4.7-.5 1.1s-.1.8-.1 1.3c0 .4 0 .9.1 1.3s.2.8.4 1.1c.2.3.5.6.8.8.3.2.8.3 1.3.3s.9-.1 1.2-.3zM78.8 271.9c.3-.8.7-1.4 1.2-2 .5-.5 1.2-1 1.9-1.3.8-.3 1.6-.4 2.5-.4s1.8.1 2.5.4c.8.3 1.4.7 1.9 1.3.5.5 1 1.2 1.2 2 .3.8.4 1.6.4 2.6s-.1 1.8-.4 2.6c-.3.8-.7 1.4-1.2 2-.5.5-1.2 1-1.9 1.3-.8.3-1.6.4-2.5.4s-1.8-.1-2.5-.4c-.8-.3-1.4-.7-1.9-1.3-.5-.5-1-1.2-1.2-2-.3-.8-.4-1.6-.4-2.6-.1-1 .1-1.9.4-2.6zm2.9 3.9c.1.5.2.9.5 1.2.2.4.5.6.9.9s.8.3 1.4.3c.6 0 1-.1 1.4-.3s.7-.5.9-.9c.2-.4.4-.8.5-1.2.1-.5.1-.9.1-1.4 0-.5 0-.9-.1-1.4-.1-.5-.2-.9-.5-1.2-.2-.4-.5-.6-.9-.9s-.8-.3-1.4-.3c-.6 0-1 .1-1.4.3s-.7.5-.9.9c-.2.4-.4.8-.5 1.2-.1.5-.1.9-.1 1.4 0 .5 0 1 .1 1.4zM92.4 272.1c0-.8.2-1.4.6-1.9s.8-.9 1.3-1.2 1.1-.5 1.8-.7c.7-.1 1.3-.2 2-.2.6 0 1.2 0 1.8.1.6.1 1.2.2 1.7.5.5.2.9.6 1.2 1 .3.4.5 1 .5 1.7v6.2c0 .5 0 1.1.1 1.5s.2.9.3 1.1h-3.3c-.1-.2-.1-.4-.1-.6 0-.2-.1-.4-.1-.6-.5.5-1.1.9-1.8 1.1-.7.2-1.4.3-2.2.3-.6 0-1.1-.1-1.6-.2s-.9-.4-1.3-.6c-.4-.3-.7-.7-.9-1.1s-.3-1-.3-1.6c0-.7.1-1.2.4-1.7.2-.4.5-.8.9-1 .4-.3.8-.5 1.3-.6l1.5-.3c.5-.1 1-.1 1.4-.2s.9-.1 1.3-.2.7-.2.9-.4.3-.4.3-.8-.1-.6-.2-.8-.3-.4-.5-.5c-.2-.1-.4-.2-.7-.2-.3 0-.5-.1-.8-.1-.6 0-1.2.1-1.5.4-.4.3-.6.7-.6 1.4h-3.4zm7.5 2.5c-.1.1-.3.2-.5.3-.2.1-.4.1-.7.2-.2 0-.5.1-.7.1-.3 0-.5.1-.8.1-.2 0-.5.1-.7.2l-.6.3c-.2.1-.3.3-.4.5-.1.2-.2.5-.2.8 0 .3.1.5.2.7.1.2.3.4.4.5.2.1.4.2.6.2s.5.1.8.1c.6 0 1.1-.1 1.5-.3.4-.2.6-.5.8-.8.2-.3.3-.6.3-.9 0-.3.1-.6.1-.7v-1.3zM108.9 264v16.4h-3.3V264h3.3zM114 277.4c.1.3.3.5.6.6.2.2.5.3.8.4.3.1.6.1.9.1.2 0 .5 0 .7-.1s.5-.1.7-.3c.2-.1.4-.3.5-.5.1-.2.2-.4.2-.7 0-.5-.3-.9-1-1.1s-1.6-.5-2.7-.7c-.5-.1-.9-.2-1.4-.4-.5-.1-.9-.3-1.2-.6-.4-.2-.6-.5-.9-.9s-.3-.8-.3-1.3c0-.8.1-1.4.4-1.9s.7-.9 1.2-1.2c.5-.3 1-.5 1.7-.6.6-.1 1.2-.2 1.9-.2.6 0 1.3.1 1.9.2s1.1.3 1.6.6.9.7 1.2 1.2c.3.5.5 1.1.6 1.8h-3.1c0-.6-.3-1.1-.7-1.3-.4-.2-.9-.3-1.5-.3h-.6c-.2 0-.4.1-.6.1-.2.1-.3.2-.4.3-.1.1-.2.3-.2.6s.1.5.3.7c.2.2.5.3.8.4.3.1.7.2 1.2.3.4.1.9.2 1.4.3.5.1.9.2 1.4.4.5.2.9.4 1.2.6s.6.6.9.9c.2.4.3.8.3 1.4 0 .8-.2 1.4-.5 2-.3.5-.7 1-1.2 1.3-.5.3-1.1.5-1.7.7-.7.1-1.3.2-2 .2s-1.4-.1-2-.2c-.7-.1-1.2-.4-1.8-.7-.5-.3-.9-.7-1.3-1.3-.3-.5-.5-1.2-.5-2h3.1c-.1.7-.1 1 .1 1.2z"/></g><g><path d="M11 292.6v-2.7h3.3v2.7H11zm3.3 1.9v11.9H11v-11.9h3.3zM19.4 303.4c.1.3.3.5.6.6.2.2.5.3.8.4.3.1.6.1.9.1.2 0 .5 0 .7-.1s.5-.1.7-.3.4-.3.5-.5c.1-.2.2-.4.2-.7 0-.5-.3-.9-1-1.1-.7-.2-1.6-.5-2.7-.7-.5-.1-.9-.2-1.4-.4-.5-.1-.9-.3-1.2-.6-.4-.2-.6-.5-.9-.9-.2-.4-.3-.8-.3-1.3 0-.8.1-1.4.4-1.9.3-.5.7-.9 1.2-1.2.5-.3 1-.5 1.7-.6.6-.1 1.2-.2 1.9-.2s1.3.1 1.9.2c.6.1 1.1.3 1.6.6s.9.7 1.2 1.2.5 1.1.6 1.8h-3.1c0-.6-.3-1.1-.7-1.3s-.9-.3-1.5-.3h-.6c-.2 0-.4.1-.6.1-.2.1-.3.2-.4.3-.1.1-.2.3-.2.6s.1.5.3.7.5.3.8.4c.3.1.7.2 1.2.3.4.1.9.2 1.4.3.5.1.9.2 1.4.4.5.2.9.4 1.2.6.4.3.6.6.9.9.2.4.3.8.3 1.4 0 .8-.2 1.4-.5 2-.3.5-.7 1-1.2 1.3s-1.1.5-1.7.7c-.7.1-1.3.2-2 .2s-1.4-.1-2-.2c-.7-.1-1.2-.4-1.8-.7-.5-.3-.9-.7-1.3-1.3-.3-.5-.5-1.2-.5-2h3.1c-.1.7 0 1 .1 1.2zM34.9 298.1c0-.8.2-1.4.6-1.9.3-.5.8-.9 1.3-1.2s1.1-.5 1.8-.7c.7-.1 1.3-.2 2-.2.6 0 1.2 0 1.8.1.6.1 1.2.2 1.7.5s.9.6 1.2 1c.3.4.5 1 .5 1.7v6.2c0 .5 0 1 .1 1.5s.2.9.3 1.1h-3.3c-.1-.2-.1-.4-.1-.6 0-.2-.1-.4-.1-.6-.5.5-1.1.9-1.8 1.1-.7.2-1.4.3-2.2.3-.6 0-1.1-.1-1.6-.2s-.9-.4-1.3-.6c-.4-.3-.7-.7-.9-1.1-.2-.4-.3-1-.3-1.6 0-.7.1-1.2.4-1.7.2-.4.5-.8.9-1 .4-.3.8-.5 1.3-.6l1.5-.3c.5-.1 1-.1 1.4-.2.5 0 .9-.1 1.3-.2s.7-.2.9-.4c.2-.2.3-.4.3-.8s-.1-.6-.2-.8c-.1-.2-.3-.4-.5-.5-.2-.1-.4-.2-.7-.2-.3 0-.5-.1-.8-.1-.6 0-1.2.1-1.5.4-.4.3-.6.7-.6 1.4h-3.4zm7.5 2.4c-.1.1-.3.2-.5.3-.2.1-.4.1-.7.2-.2 0-.5.1-.7.1-.3 0-.5.1-.8.1-.2 0-.5.1-.7.2l-.6.3c-.2.1-.3.3-.4.5-.1.2-.2.5-.2.8 0 .3.1.5.2.7.1.2.3.4.4.5.2.1.4.2.6.2.2 0 .5.1.8.1.6 0 1.1-.1 1.5-.3.4-.2.6-.5.8-.8.2-.3.3-.6.3-.9 0-.3.1-.6.1-.7v-1.3zM65.4 307.2c-.1.6-.4 1.2-.8 1.7s-1.1 1-1.9 1.3c-.8.4-1.9.6-3.3.6-.6 0-1.2-.1-1.8-.2-.6-.1-1.2-.4-1.7-.7s-.9-.7-1.2-1.2c-.3-.5-.5-1.1-.6-1.7h3.2c.2.6.5 1 .9 1.3s1 .4 1.5.4c.9 0 1.6-.3 2-.8.4-.6.6-1.2.6-2.1v-1.6c-.4.6-.9 1.1-1.5 1.4-.7.3-1.3.4-2.1.4-.9 0-1.7-.2-2.3-.5-.6-.3-1.2-.7-1.6-1.3-.4-.5-.7-1.2-.9-1.9-.2-.7-.3-1.5-.3-2.3 0-.8.1-1.5.3-2.2.2-.7.5-1.3 1-1.9.4-.5 1-1 1.6-1.3.6-.3 1.4-.5 2.2-.5.8 0 1.5.1 2.1.4.6.3 1.1.8 1.5 1.5v-1.6h3.1v11.1c.2.6.2 1.1 0 1.7zm-4.4-3.9c.4-.2.6-.4.9-.7.2-.3.4-.7.5-1 .1-.4.2-.8.2-1.2 0-.5 0-1-.1-1.4-.1-.4-.2-.8-.5-1.2-.2-.3-.5-.6-.9-.8-.4-.2-.8-.3-1.3-.3s-.9.1-1.2.3c-.3.2-.6.4-.8.7-.2.3-.4.7-.5 1.1-.1.4-.1.8-.1 1.3 0 .4 0 .9.1 1.3s.2.8.4 1.1c.2.3.5.6.8.8.3.2.8.3 1.3.3.4 0 .8-.1 1.2-.3zM68.1 297.8c.3-.8.7-1.4 1.2-2 .5-.5 1.2-1 1.9-1.3.8-.3 1.6-.4 2.5-.4s1.8.1 2.5.4c.8.3 1.4.7 1.9 1.3.5.5 1 1.2 1.2 2 .3.8.4 1.6.4 2.6s-.1 1.8-.4 2.6c-.3.8-.7 1.4-1.2 2-.5.5-1.2 1-1.9 1.3s-1.6.4-2.5.4-1.8-.1-2.5-.4c-.8-.3-1.4-.7-1.9-1.3-.5-.5-1-1.2-1.2-2-.3-.8-.4-1.6-.4-2.6-.1-.9.1-1.8.4-2.6zm2.9 4c.1.5.2.9.5 1.2.2.4.5.6.9.9s.8.3 1.4.3c.6 0 1-.1 1.4-.3s.7-.5.9-.9c.2-.4.4-.8.5-1.2.1-.5.1-.9.1-1.4 0-.5 0-.9-.1-1.4-.1-.5-.2-.9-.5-1.2-.2-.4-.5-.6-.9-.9s-.8-.3-1.4-.3c-.6 0-1 .1-1.4.3s-.7.5-.9.9c-.2.4-.4.8-.5 1.2-.1.5-.1.9-.1 1.4 0 .5.1 1 .1 1.4zM81.9 297.8c.3-.8.7-1.4 1.2-2 .5-.5 1.2-1 1.9-1.3.8-.3 1.6-.4 2.5-.4s1.8.1 2.5.4c.8.3 1.4.7 1.9 1.3.5.5 1 1.2 1.2 2 .3.8.4 1.6.4 2.6s-.1 1.8-.4 2.6c-.3.8-.7 1.4-1.2 2-.5.5-1.2 1-1.9 1.3s-1.6.4-2.5.4-1.8-.1-2.5-.4c-.8-.3-1.4-.7-1.9-1.3-.5-.5-1-1.2-1.2-2-.3-.8-.4-1.6-.4-2.6 0-.9.1-1.8.4-2.6zm3 4c.1.5.2.9.5 1.2.2.4.5.6.9.9s.8.3 1.4.3c.6 0 1-.1 1.4-.3s.7-.5.9-.9c.2-.4.4-.8.5-1.2.1-.5.1-.9.1-1.4 0-.5 0-.9-.1-1.4-.1-.5-.2-.9-.5-1.2-.2-.4-.5-.6-.9-.9s-.8-.3-1.4-.3c-.6 0-1 .1-1.4.3s-.7.5-.9.9c-.2.4-.4.8-.5 1.2-.1.5-.1.9-.1 1.4-.1.5 0 1 .1 1.4zM104.1 304.8c-.4.6-.9 1.1-1.5 1.4-.6.3-1.3.4-2.1.4-.9 0-1.7-.2-2.3-.5-.7-.3-1.2-.8-1.7-1.4-.4-.6-.8-1.3-1-2-.2-.8-.3-1.6-.3-2.4 0-.8.1-1.6.3-2.3s.6-1.4 1-2c.4-.6 1-1 1.6-1.4.7-.3 1.4-.5 2.3-.5.7 0 1.4.1 2 .4.6.3 1.1.7 1.5 1.3v-6h3.3v16.4h-3.1v-1.4zm-.1-5.8c-.1-.5-.2-.9-.5-1.2-.2-.3-.5-.6-.9-.8-.4-.2-.8-.3-1.3-.3s-1 .1-1.4.3c-.4.2-.7.5-.9.9-.2.4-.4.8-.5 1.2-.1.5-.1.9-.1 1.4 0 .5.1.9.2 1.4s.3.9.5 1.2c.2.4.5.7.9.9.4.2.8.3 1.3.3s1-.1 1.3-.3.6-.5.9-.9.4-.8.5-1.2.1-.9.1-1.4c0-.6 0-1.1-.1-1.5z"/></g><g><path d="M14.1 320.5v1.5c.4-.6.9-1.1 1.5-1.4.6-.3 1.3-.4 2-.4.9 0 1.7.2 2.4.5.7.4 1.2.8 1.7 1.4.4.6.8 1.3 1 2 .2.8.3 1.6.3 2.4 0 .8-.1 1.6-.3 2.3-.2.7-.5 1.4-1 2-.4.6-1 1-1.6 1.4-.7.3-1.4.5-2.3.5-.7 0-1.4-.1-2-.4s-1.1-.7-1.5-1.3v5.6H11v-16.1h3.1zm4.2 9.4c.4-.2.7-.5.9-.8.2-.3.4-.7.5-1.2s.1-.9.1-1.4c0-.5-.1-.9-.1-1.4-.1-.5-.3-.9-.5-1.2-.2-.4-.5-.7-.9-.9-.4-.2-.8-.3-1.3-.3s-1 .1-1.3.3c-.4.2-.7.5-.9.9s-.4.8-.5 1.2c-.1.5-.1.9-.1 1.4 0 .5 0 .9.1 1.4.1.5.3.9.5 1.2.2.3.5.6.9.8.4.2.8.3 1.3.3s.9-.1 1.3-.3zM28.2 315.9v16.4h-3.3v-16.4h3.3zM30.4 324.1c0-.8.2-1.4.6-1.9.3-.5.8-.9 1.3-1.2.5-.3 1.1-.5 1.8-.7.7-.1 1.3-.2 2-.2.6 0 1.2 0 1.8.1.6.1 1.2.2 1.7.5s.9.6 1.2 1c.3.4.5 1 .5 1.7v6.2c0 .5 0 1 .1 1.5s.2.9.3 1.1h-3.3c-.1-.2-.1-.4-.1-.6 0-.2-.1-.4-.1-.6-.5.5-1.1.9-1.8 1.1-.7.2-1.4.3-2.2.3-.6 0-1.1-.1-1.6-.2s-.9-.4-1.3-.6c-.4-.3-.7-.7-.9-1.1-.2-.4-.3-1-.3-1.6 0-.7.1-1.2.4-1.7.2-.4.5-.8.9-1 .4-.3.8-.5 1.3-.6l1.5-.3c.5-.1 1-.1 1.4-.2.5 0 .9-.1 1.3-.2s.7-.2.9-.4c.2-.2.3-.4.3-.8s-.1-.6-.2-.8c-.1-.2-.3-.4-.5-.5-.2-.1-.4-.2-.7-.2-.3 0-.5-.1-.8-.1-.6 0-1.2.1-1.5.4-.4.3-.6.7-.6 1.4h-3.4zm7.5 2.4c-.1.1-.3.2-.5.3-.2.1-.4.1-.7.2s-.5.1-.7.1c-.3 0-.5.1-.8.1-.2 0-.5.1-.7.2l-.6.3c-.2.1-.3.3-.4.5-.1.2-.2.5-.2.8 0 .3.1.5.2.7.1.2.3.4.4.5.2.1.4.2.6.2.2 0 .5.1.8.1.6 0 1.1-.1 1.5-.3.4-.2.6-.5.8-.8.2-.3.3-.6.3-.9 0-.3.1-.6.1-.7v-1.3zM46.6 320.5v1.7h.1c.4-.7 1-1.2 1.6-1.5s1.3-.5 2-.5c.9 0 1.6.1 2.2.4.6.2 1 .6 1.3 1 .3.4.5.9.7 1.5.1.6.2 1.3.2 2v7.3h-3.3v-6.7c0-1-.2-1.7-.5-2.2-.3-.5-.9-.7-1.6-.7-.9 0-1.5.3-1.9.8-.4.5-.6 1.4-.6 2.6v6.2h-3.3v-11.9h3.1zM60.7 328.8v3.5c0 .5-.1 1-.3 1.4-.2.4-.4.8-.8 1.1-.3.3-.7.6-1.1.8s-.9.3-1.4.4v-1.7c.2 0 .4-.1.7-.3.2-.1.4-.3.5-.5.2-.2.3-.4.3-.6.1-.2.1-.5.1-.7H57v-3.5h3.7zM75.8 320.5v2.2h-2.4v5.9c0 .6.1.9.3 1.1.2.2.6.3 1.1.3h.5c.1 0 .3 0 .5-.1v2.5c-.3 0-.6.1-.9.1h-1c-.5 0-1 0-1.4-.1-.5-.1-.9-.2-1.2-.4s-.6-.5-.8-.9-.3-.9-.3-1.4v-7h-2v-2.2h2v-3.6h3.3v3.6h2.3zM77.3 323.8c.3-.8.7-1.4 1.2-2 .5-.5 1.2-1 1.9-1.3.8-.3 1.6-.4 2.5-.4s1.8.1 2.5.4 1.4.7 1.9 1.3c.5.5 1 1.2 1.2 2 .3.8.4 1.6.4 2.6s-.1 1.8-.4 2.6c-.3.8-.7 1.4-1.2 2-.5.5-1.2 1-1.9 1.3s-1.6.4-2.5.4-1.8-.1-2.5-.4c-.8-.3-1.4-.7-1.9-1.3-.5-.5-1-1.2-1.2-2-.3-.8-.4-1.6-.4-2.6-.1-.9.1-1.8.4-2.6zm2.9 4c.1.5.2.9.5 1.2.2.4.5.6.9.9s.8.3 1.4.3c.6 0 1-.1 1.4-.3s.7-.5.9-.9c.2-.4.4-.8.5-1.2.1-.5.1-.9.1-1.4 0-.5 0-.9-.1-1.4-.1-.5-.2-.9-.5-1.2-.2-.4-.5-.6-.9-.9-.4-.2-.8-.3-1.4-.3-.6 0-1 .1-1.4.3-.4.2-.7.5-.9.9-.2.4-.4.8-.5 1.2-.1.5-.1.9-.1 1.4 0 .5 0 1 .1 1.4zM91.1 323.8c.3-.8.7-1.4 1.2-2 .5-.5 1.2-1 1.9-1.3.8-.3 1.6-.4 2.5-.4s1.8.1 2.5.4 1.4.7 1.9 1.3c.5.5 1 1.2 1.2 2 .3.8.4 1.6.4 2.6s-.1 1.8-.4 2.6c-.3.8-.7 1.4-1.2 2-.5.5-1.2 1-1.9 1.3s-1.6.4-2.5.4-1.8-.1-2.5-.4c-.8-.3-1.4-.7-1.9-1.3-.5-.5-1-1.2-1.2-2-.3-.8-.4-1.6-.4-2.6 0-.9.1-1.8.4-2.6zm3 4c.1.5.2.9.5 1.2.2.4.5.6.9.9s.8.3 1.4.3c.6 0 1-.1 1.4-.3s.7-.5.9-.9c.2-.4.4-.8.5-1.2.1-.5.1-.9.1-1.4 0-.5 0-.9-.1-1.4-.1-.5-.2-.9-.5-1.2-.2-.4-.5-.6-.9-.9-.4-.2-.8-.3-1.4-.3-.6 0-1 .1-1.4.3-.4.2-.7.5-.9.9-.2.4-.4.8-.5 1.2-.1.5-.1.9-.1 1.4-.1.5 0 1 .1 1.4zM108.6 328.8v3.5H105v-3.5h3.6z"/></g></svg>