<svg id="Layer_1" xmlns="http://www.w3.org/2000/svg" viewBox="0 0 160 600"><style>.st0{fill:#231f20}.st1{fill:#22b0e6}.st2{fill:none}</style><path class="st0" d="M53.3 416.2h3c2.4 0 2.8 1.5 2.8 2.6 0 1-.5 2.6-2.8 2.6h-1.5v3.2h-1.5v-8.4zm1.5 4h1.5c.7 0 1.5-.3 1.5-1.4 0-1.1-.7-1.4-1.4-1.4h-1.5v2.8zM60 418.5h1.2v1.2c.2-.6.9-1.3 1.8-1.3h.5v1.3c-.2 0-.4-.1-.6-.1-.9 0-1.6.7-1.6 2.1v2.9H60v-6.1zM63.7 421.5c0-1.8 1.1-3.2 3-3.2s3 1.3 3 3.2c0 1.9-1.1 3.2-3 3.2s-3-1.3-3-3.2m4.8 0c0-1-.5-2.1-1.7-2.1s-1.7 1.1-1.7 2.1c0 1.1.5 2.1 1.7 2.1s1.7-1 1.7-2.1M70 418.5h1v-1.8h1.3v1.8h1.2v1h-1.2v3.2c0 .5 0 .8.6.8h.6v1c-.3 0-.6.1-.9.1-1.4 0-1.6-.5-1.7-1.5v-3.6h-1v-1zM75.4 421.9c0 .9.5 1.8 1.6 1.8.8 0 1.2-.3 1.5-1h1.3c-.3 1.3-1.4 2.1-2.7 2.1-1.9 0-3-1.3-3-3.2 0-1.7 1.1-3.2 2.9-3.2 1.9 0 3.1 1.7 2.8 3.5h-4.4zm3.1-.9c0-.8-.6-1.6-1.5-1.6s-1.6.7-1.6 1.6h3.1zM84.9 420.5c-.1-.7-.6-1.1-1.4-1.1-.7 0-1.7.4-1.7 2.2 0 1 .4 2.1 1.6 2.1.8 0 1.3-.5 1.4-1.4h1.3c-.2 1.6-1.2 2.4-2.8 2.4-1.9 0-2.9-1.3-2.9-3.1s1-3.2 3-3.2c1.4 0 2.6.7 2.7 2.2h-1.2zM86.6 418.5h1v-1.8h1.3v1.8h1.2v1h-1.2v3.2c0 .5 0 .8.6.8h.6v1c-.3 0-.6.1-.9.1-1.4 0-1.6-.5-1.7-1.5v-3.6h-1v-1zM91.6 416.2H93v1.3h-1.3v-1.3zm0 2.3H93v6h-1.3v-6zM93.9 418.5h1.5l1.8 4.6h.1l1.8-4.6h1.4l-2.5 6h-1.5zM102.1 421.9c0 .9.5 1.8 1.6 1.8.8 0 1.2-.3 1.5-1h1.3c-.3 1.3-1.4 2.1-2.7 2.1-1.9 0-3-1.3-3-3.2 0-1.7 1.1-3.2 2.9-3.2 1.9 0 3.1 1.7 2.8 3.5h-4.4zm3.1-.9c0-.8-.6-1.6-1.5-1.6s-1.6.7-1.6 1.6h3.1z"/><path class="st1" d="M89.1 414.8c-.9-3.3-3.5-5.9-6.8-6.8-.3-1-1.2-1.8-2.4-1.8s-2.1.7-2.4 1.8c-3.3.8-5.9 3.4-6.8 6.8l-.1.4h2l.1-.2c.8-2.4 2.7-4.3 5.1-5a2.438 2.438 0 0 0 4.2 0c2.4.7 4.3 2.5 5.1 5l.1.2h2l-.1-.4z"/><path class="st0" d="M107.9 423.5c.3 0 .6.3.6.6s-.3.6-.6.6-.6-.3-.6-.6c.1-.3.3-.6.6-.6m.5.6c0-.3-.2-.5-.5-.5s-.5.2-.5.5.2.5.5.5.5-.2.5-.5m-.7-.3h.3c.2 0 .2.1.2.2s-.1.2-.2.2l.2.3h-.1l-.2-.3h-.1v.3h-.1v-.7zm.2.3c.1 0 .2 0 .2-.1s-.1-.1-.1-.1h-.1v.2z"/><path class="st2" d="M52.9 406h55.9v19H52.9z"/></svg>