<?xml version="1.0" encoding="utf-8"?>
<!-- Generator: Adobe Illustrator 25.4.1, SVG Export Plug-In . SVG Version: 6.00 Build 0)  -->
<svg version="1.1" id="Layer_1" xmlns="http://www.w3.org/2000/svg" xmlns:xlink="http://www.w3.org/1999/xlink" x="0px" y="0px"
	 viewBox="0 0 300 600" style="enable-background:new 0 0 300 600;" xml:space="preserve">
<style type="text/css">
	.st0{font-family:'HelveticaNeue-Bold';}
	.st1{font-size:33.1518px;}
	.st2{fill:#349946;}
</style>
<path d="M40.7,113.7l8.9,23.7h-5.4l-1.8-5.3h-8.9l-1.9,5.3h-5.2l9-23.7H40.7z M41,128.2l-3-8.7h-0.1l-3.1,8.7H41z M54.9,120.2v2.4
	H55c0.6-1,1.4-1.7,2.3-2.2c1-0.5,1.9-0.7,2.9-0.7c1.3,0,2.3,0.2,3.1,0.5c0.8,0.3,1.4,0.8,1.9,1.4c0.5,0.6,0.8,1.3,1,2.2
	c0.2,0.9,0.3,1.8,0.3,2.9v10.5h-4.7v-9.7c0-1.4-0.2-2.5-0.7-3.2c-0.4-0.7-1.2-1-2.4-1c-1.3,0-2.2,0.4-2.8,1.1
	c-0.6,0.8-0.9,2-0.9,3.8v9h-4.7v-17.1H54.9z M81.6,135.1c-0.6,0.9-1.3,1.6-2.2,2c-0.9,0.4-1.9,0.6-3,0.6c-1.3,0-2.4-0.2-3.4-0.7
	c-1-0.5-1.8-1.2-2.4-2c-0.6-0.9-1.1-1.8-1.4-2.9c-0.3-1.1-0.5-2.3-0.5-3.4c0-1.1,0.2-2.3,0.5-3.3c0.3-1.1,0.8-2,1.4-2.8
	c0.6-0.8,1.4-1.5,2.4-2c1-0.5,2.1-0.7,3.3-0.7c1,0,2,0.2,2.9,0.6c0.9,0.4,1.6,1.1,2.2,1.9h0.1v-8.6h4.7v23.7h-4.5L81.6,135.1
	L81.6,135.1z M81.4,126.7c-0.1-0.7-0.4-1.2-0.7-1.7c-0.3-0.5-0.7-0.9-1.2-1.2c-0.5-0.3-1.1-0.5-1.9-0.5c-0.8,0-1.4,0.2-2,0.5
	c-0.5,0.3-1,0.7-1.3,1.2c-0.3,0.5-0.6,1.1-0.7,1.7c-0.1,0.7-0.2,1.3-0.2,2c0,0.7,0.1,1.3,0.2,2c0.2,0.7,0.4,1.3,0.7,1.8
	c0.3,0.5,0.8,0.9,1.3,1.3c0.5,0.3,1.1,0.5,1.9,0.5c0.8,0,1.4-0.2,1.9-0.5c0.5-0.3,0.9-0.7,1.2-1.2c0.3-0.5,0.5-1.1,0.7-1.8
	s0.2-1.3,0.2-2.1C81.6,128,81.5,127.3,81.4,126.7z M95.8,123.3v-3.1h2.8v-1.3c0-1.5,0.5-2.8,1.4-3.7c1-1,2.4-1.5,4.3-1.5
	c0.4,0,0.8,0,1.3,0c0.4,0,0.8,0.1,1.2,0.1v3.5c-0.6-0.1-1.1-0.1-1.7-0.1c-0.6,0-1.1,0.1-1.4,0.4c-0.3,0.3-0.4,0.8-0.4,1.5v1h3.2v3.1
	h-3.2v14h-4.7v-14H95.8z M109.4,117.5v-3.9h4.7v3.9H109.4z M114.1,120.2v17.1h-4.7v-17.1H114.1z M121.6,120.2v2.4h0.1
	c0.6-1,1.4-1.7,2.3-2.2c0.9-0.5,1.9-0.7,2.9-0.7c1.3,0,2.3,0.2,3.1,0.5c0.8,0.3,1.4,0.8,1.9,1.4c0.5,0.6,0.8,1.3,1,2.2
	c0.2,0.9,0.3,1.8,0.3,2.9v10.5h-4.7v-9.7c0-1.4-0.2-2.5-0.7-3.2c-0.4-0.7-1.2-1-2.4-1c-1.3,0-2.2,0.4-2.8,1.1
	c-0.6,0.8-0.9,2-0.9,3.8v9h-4.7v-17.1H121.6z M148.3,135.1c-0.6,0.9-1.3,1.6-2.2,2c-0.9,0.4-1.9,0.6-3,0.6c-1.3,0-2.4-0.2-3.4-0.7
	c-1-0.5-1.8-1.2-2.4-2c-0.6-0.9-1.1-1.8-1.4-2.9c-0.3-1.1-0.5-2.3-0.5-3.4c0-1.1,0.2-2.3,0.5-3.3c0.3-1.1,0.8-2,1.4-2.8
	c0.6-0.8,1.4-1.5,2.4-2c1-0.5,2.1-0.7,3.3-0.7c1,0,2,0.2,2.9,0.6c0.9,0.4,1.6,1.1,2.2,1.9h0.1v-8.6h4.7v23.7h-4.5L148.3,135.1
	L148.3,135.1z M148.1,126.7c-0.1-0.7-0.4-1.2-0.7-1.7c-0.3-0.5-0.7-0.9-1.2-1.2c-0.5-0.3-1.1-0.5-1.9-0.5c-0.8,0-1.4,0.2-2,0.5
	c-0.5,0.3-1,0.7-1.3,1.2c-0.3,0.5-0.6,1.1-0.7,1.7c-0.1,0.7-0.2,1.3-0.2,2c0,0.7,0.1,1.3,0.2,2c0.2,0.7,0.4,1.3,0.7,1.8
	c0.3,0.5,0.8,0.9,1.3,1.3c0.5,0.3,1.1,0.5,1.9,0.5c0.8,0,1.4-0.2,1.9-0.5c0.5-0.3,0.9-0.7,1.2-1.2c0.3-0.5,0.5-1.1,0.7-1.8
	c0.1-0.7,0.2-1.3,0.2-2.1C148.3,128,148.3,127.3,148.1,126.7z M173.7,120.2v3.1h-3.4v8.5c0,0.8,0.1,1.3,0.4,1.6
	c0.3,0.3,0.8,0.4,1.6,0.4c0.3,0,0.5,0,0.8,0c0.2,0,0.5-0.1,0.7-0.1v3.6c-0.4,0.1-0.8,0.1-1.3,0.1c-0.5,0-1,0-1.4,0
	c-0.7,0-1.4,0-2.1-0.1c-0.7-0.1-1.2-0.3-1.7-0.6c-0.5-0.3-0.9-0.7-1.2-1.2c-0.3-0.5-0.4-1.2-0.4-2.1v-10.1h-2.9v-3.1h2.9V115h4.7
	v5.1H173.7z M180,113.7v8.9h0.1c0.6-1,1.4-1.7,2.3-2.2c0.9-0.5,1.8-0.7,2.7-0.7c1.3,0,2.3,0.2,3.1,0.5c0.8,0.3,1.4,0.8,1.9,1.4
	c0.5,0.6,0.8,1.3,1,2.2c0.2,0.9,0.3,1.8,0.3,2.9v10.5h-4.7v-9.7c0-1.4-0.2-2.5-0.7-3.2c-0.4-0.7-1.2-1-2.4-1c-1.3,0-2.2,0.4-2.8,1.1
	c-0.6,0.8-0.9,2-0.9,3.8v9h-4.7v-23.7H180z M199.4,133.2c0.7,0.7,1.7,1,3,1c0.9,0,1.8-0.2,2.5-0.7c0.7-0.5,1.1-1,1.3-1.5h4.1
	c-0.7,2.1-1.7,3.5-3,4.4c-1.4,0.9-3,1.3-5,1.3c-1.3,0-2.6-0.2-3.6-0.6c-1.1-0.4-2-1-2.8-1.8c-0.8-0.8-1.3-1.7-1.7-2.9
	c-0.4-1.1-0.6-2.3-0.6-3.6c0-1.3,0.2-2.5,0.6-3.6c0.4-1.1,1-2.1,1.8-2.9c0.8-0.8,1.7-1.4,2.8-1.9c1.1-0.5,2.3-0.7,3.6-0.7
	c1.5,0,2.7,0.3,3.8,0.8c1.1,0.6,2,1.3,2.7,2.3c0.7,1,1.2,2,1.5,3.2c0.3,1.2,0.4,2.5,0.3,3.8h-12.4
	C198.3,131.4,198.6,132.5,199.4,133.2z M204.7,124.2c-0.6-0.6-1.4-0.9-2.6-0.9c-0.8,0-1.4,0.1-1.9,0.4c-0.5,0.3-0.9,0.6-1.2,0.9
	c-0.3,0.4-0.5,0.8-0.6,1.2c-0.1,0.4-0.2,0.8-0.2,1.1h7.7C205.6,125.7,205.2,124.8,204.7,124.2z"/>
<text transform="matrix(1 0 0 1 219.4414 137.3228)" class="st0 st1"> </text>
<g>
	<path d="M33.1,148.3v8.6h0.1c0.6-0.9,1.4-1.5,2.3-1.9c1-0.4,2-0.6,3.1-0.6c0.9,0,1.7,0.2,2.6,0.5c0.8,0.4,1.6,0.9,2.3,1.6
		c0.7,0.7,1.2,1.7,1.6,2.8c0.4,1.1,0.6,2.5,0.6,4.1c0,1.6-0.2,2.9-0.6,4.1c-0.4,1.1-1,2.1-1.6,2.8c-0.7,0.7-1.4,1.3-2.3,1.6
		c-0.8,0.4-1.7,0.5-2.6,0.5c-1.3,0-2.4-0.2-3.4-0.6c-1-0.4-1.7-1.1-2.3-2h-0.1v2.2h-4.5v-23.7H33.1z M40.7,161.3
		c-0.2-0.7-0.4-1.2-0.7-1.8c-0.3-0.5-0.7-0.9-1.2-1.2c-0.5-0.3-1.1-0.4-1.8-0.4c-0.7,0-1.3,0.1-1.8,0.4c-0.5,0.3-0.9,0.7-1.3,1.2
		c-0.3,0.5-0.6,1.1-0.7,1.8c-0.2,0.7-0.2,1.4-0.2,2.1c0,0.7,0.1,1.4,0.2,2.1c0.2,0.7,0.4,1.2,0.7,1.8c0.3,0.5,0.8,0.9,1.3,1.2
		c0.5,0.3,1.1,0.4,1.8,0.4c0.7,0,1.3-0.1,1.8-0.4c0.5-0.3,0.9-0.7,1.2-1.2c0.3-0.5,0.6-1.1,0.7-1.8c0.2-0.7,0.2-1.3,0.2-2.1
		C41,162.7,40.9,162,40.7,161.3z"/>
	<path d="M53,167.9c0.7,0.7,1.7,1,3.1,1c0.9,0,1.8-0.2,2.5-0.7c0.7-0.5,1.1-1,1.3-1.5h4.1c-0.7,2.1-1.7,3.5-3.1,4.4
		c-1.4,0.9-3,1.3-5,1.3c-1.3,0-2.6-0.2-3.6-0.6c-1.1-0.4-2-1-2.8-1.8c-0.8-0.8-1.3-1.7-1.7-2.9c-0.4-1.1-0.6-2.3-0.6-3.6
		c0-1.3,0.2-2.5,0.6-3.6c0.4-1.1,1-2.1,1.8-2.9c0.8-0.8,1.7-1.4,2.8-1.9c1.1-0.5,2.3-0.7,3.6-0.7c1.5,0,2.7,0.3,3.8,0.8
		c1.1,0.6,2,1.3,2.7,2.3c0.7,1,1.2,2,1.5,3.2c0.3,1.2,0.4,2.5,0.3,3.8H51.9C51.9,166.1,52.3,167.2,53,167.9z M58.3,158.9
		c-0.6-0.6-1.4-0.9-2.6-0.9c-0.8,0-1.4,0.1-1.9,0.4c-0.5,0.3-0.9,0.6-1.2,0.9c-0.3,0.4-0.5,0.8-0.6,1.2s-0.2,0.8-0.2,1.1h7.7
		C59.3,160.4,58.9,159.5,58.3,158.9z"/>
	<path d="M70.3,167.7c0.2,0.4,0.5,0.7,0.8,0.9c0.3,0.2,0.7,0.4,1.1,0.5c0.4,0.1,0.9,0.2,1.3,0.2c0.3,0,0.7,0,1-0.1
		c0.4-0.1,0.7-0.2,1-0.4c0.3-0.2,0.5-0.4,0.7-0.7c0.2-0.3,0.3-0.6,0.3-1c0-0.7-0.5-1.2-1.4-1.6c-0.9-0.4-2.2-0.7-3.9-1.1
		c-0.7-0.2-1.4-0.3-2-0.5c-0.7-0.2-1.2-0.5-1.7-0.8c-0.5-0.3-0.9-0.8-1.2-1.3c-0.3-0.5-0.5-1.2-0.5-1.9c0-1.1,0.2-2,0.6-2.7
		c0.4-0.7,1-1.3,1.7-1.7c0.7-0.4,1.5-0.7,2.4-0.9c0.9-0.2,1.8-0.2,2.7-0.2s1.8,0.1,2.7,0.3c0.9,0.2,1.7,0.5,2.3,0.9
		c0.7,0.4,1.3,1,1.7,1.7c0.5,0.7,0.7,1.6,0.8,2.6h-4.5c-0.1-0.9-0.4-1.5-1-1.8c-0.6-0.3-1.3-0.5-2.2-0.5c-0.3,0-0.6,0-0.9,0
		s-0.6,0.1-0.8,0.2c-0.3,0.1-0.5,0.3-0.6,0.5c-0.2,0.2-0.3,0.5-0.3,0.8c0,0.4,0.2,0.8,0.5,1c0.3,0.3,0.7,0.5,1.2,0.6
		c0.5,0.2,1.1,0.3,1.7,0.4c0.6,0.1,1.3,0.3,2,0.4c0.7,0.2,1.4,0.3,2,0.6c0.7,0.2,1.2,0.5,1.7,0.9c0.5,0.4,0.9,0.8,1.2,1.4
		c0.3,0.5,0.5,1.2,0.5,2c0,1.1-0.2,2.1-0.7,2.8c-0.5,0.8-1,1.4-1.8,1.8c-0.7,0.5-1.6,0.8-2.5,1c-0.9,0.2-1.9,0.3-2.9,0.3
		c-1,0-2-0.1-2.9-0.3c-1-0.2-1.8-0.5-2.5-1c-0.7-0.5-1.3-1.1-1.8-1.8c-0.5-0.8-0.7-1.7-0.8-2.9H70C70,166.9,70.1,167.4,70.3,167.7z"
		/>
	<path d="M93,154.8v3.1h-3.4v8.5c0,0.8,0.1,1.3,0.4,1.6c0.3,0.3,0.8,0.4,1.6,0.4c0.3,0,0.5,0,0.8,0c0.2,0,0.5-0.1,0.7-0.1v3.6
		c-0.4,0.1-0.8,0.1-1.3,0.1c-0.5,0-1,0-1.4,0c-0.7,0-1.4,0-2.1-0.1c-0.7-0.1-1.2-0.3-1.7-0.6c-0.5-0.3-0.9-0.7-1.2-1.2
		c-0.3-0.5-0.4-1.2-0.4-2.1V158H82v-3.1h2.9v-5.1h4.7v5.1H93z"/>
	<path d="M107.6,154.8v3.2h0.1c0.2-0.5,0.5-1,0.9-1.5c0.4-0.5,0.8-0.8,1.3-1.2c0.5-0.3,1-0.6,1.6-0.7c0.6-0.2,1.1-0.3,1.7-0.3
		c0.3,0,0.7,0.1,1,0.2v4.4c-0.2,0-0.5-0.1-0.8-0.1c-0.3,0-0.6,0-0.9,0c-0.9,0-1.6,0.1-2.2,0.4s-1.1,0.7-1.4,1.2
		c-0.4,0.5-0.6,1.1-0.8,1.7c-0.2,0.7-0.2,1.4-0.2,2.2v7.7h-4.7v-17.1H107.6z"/>
	<path d="M115.2,160.1c0.1-1.1,0.3-2,0.8-2.8c0.5-0.7,1.1-1.3,1.9-1.8c0.8-0.4,1.6-0.8,2.5-0.9c0.9-0.2,1.9-0.3,2.8-0.3
		c0.9,0,1.7,0.1,2.6,0.2c0.9,0.1,1.7,0.4,2.4,0.7c0.7,0.4,1.3,0.8,1.8,1.5c0.5,0.6,0.7,1.5,0.7,2.5v8.9c0,0.8,0,1.5,0.1,2.2
		c0.1,0.7,0.2,1.2,0.5,1.6h-4.8c-0.1-0.3-0.2-0.5-0.2-0.8s-0.1-0.6-0.1-0.8c-0.8,0.8-1.6,1.3-2.7,1.6s-2.1,0.5-3.1,0.5
		c-0.8,0-1.6-0.1-2.3-0.3c-0.7-0.2-1.3-0.5-1.9-0.9c-0.5-0.4-0.9-1-1.2-1.6s-0.4-1.4-0.4-2.3c0-1,0.2-1.8,0.5-2.4
		c0.3-0.6,0.8-1.1,1.3-1.5c0.5-0.4,1.2-0.7,1.9-0.8c0.7-0.2,1.4-0.3,2.1-0.4c0.7-0.1,1.4-0.2,2.1-0.3c0.7-0.1,1.3-0.2,1.8-0.3
		c0.5-0.1,0.9-0.3,1.3-0.6c0.3-0.3,0.5-0.6,0.4-1.1c0-0.5-0.1-0.9-0.2-1.2c-0.2-0.3-0.4-0.5-0.7-0.7c-0.3-0.2-0.6-0.3-1-0.3
		c-0.4-0.1-0.8-0.1-1.2-0.1c-0.9,0-1.7,0.2-2.2,0.6s-0.8,1.1-0.9,2H115.2z M126.1,163.6c-0.2,0.2-0.4,0.3-0.7,0.4
		c-0.3,0.1-0.6,0.2-1,0.2c-0.3,0.1-0.7,0.1-1.1,0.2c-0.4,0-0.8,0.1-1.1,0.2c-0.4,0.1-0.7,0.2-1,0.3c-0.3,0.1-0.6,0.3-0.9,0.4
		c-0.3,0.2-0.5,0.4-0.6,0.7c-0.2,0.3-0.2,0.7-0.2,1.1c0,0.4,0.1,0.8,0.2,1.1c0.2,0.3,0.4,0.5,0.6,0.7c0.3,0.2,0.6,0.3,0.9,0.3
		c0.4,0.1,0.7,0.1,1.1,0.1c0.9,0,1.6-0.2,2.2-0.5c0.5-0.3,0.9-0.7,1.1-1.1c0.2-0.4,0.4-0.9,0.4-1.3c0.1-0.4,0.1-0.8,0.1-1.1V163.6z"
		/>
	<path d="M143.2,154.8v3.1h-3.4v8.5c0,0.8,0.1,1.3,0.4,1.6c0.3,0.3,0.8,0.4,1.6,0.4c0.3,0,0.5,0,0.8,0c0.2,0,0.5-0.1,0.7-0.1v3.6
		c-0.4,0.1-0.8,0.1-1.3,0.1c-0.5,0-1,0-1.4,0c-0.7,0-1.4,0-2.1-0.1c-0.7-0.1-1.2-0.3-1.7-0.6c-0.5-0.3-0.9-0.7-1.2-1.2
		c-0.3-0.5-0.4-1.2-0.4-2.1V158h-2.9v-3.1h2.9v-5.1h4.7v5.1H143.2z"/>
	<path d="M149.9,167.9c0.7,0.7,1.7,1,3,1c1,0,1.8-0.2,2.5-0.7c0.7-0.5,1.1-1,1.3-1.5h4.1c-0.7,2.1-1.7,3.5-3,4.4
		c-1.4,0.9-3,1.3-5,1.3c-1.3,0-2.6-0.2-3.6-0.6c-1.1-0.4-2-1-2.8-1.8c-0.8-0.8-1.3-1.7-1.7-2.9c-0.4-1.1-0.6-2.3-0.6-3.6
		c0-1.3,0.2-2.5,0.6-3.6c0.4-1.1,1-2.1,1.8-2.9c0.8-0.8,1.7-1.4,2.8-1.9c1.1-0.5,2.3-0.7,3.6-0.7c1.5,0,2.7,0.3,3.8,0.8
		c1.1,0.6,2,1.3,2.7,2.3c0.7,1,1.2,2,1.5,3.2s0.4,2.5,0.3,3.8h-12.4C148.8,166.1,149.2,167.2,149.9,167.9z M155.2,158.9
		c-0.6-0.6-1.4-0.9-2.6-0.9c-0.8,0-1.4,0.1-1.9,0.4c-0.5,0.3-0.9,0.6-1.2,0.9c-0.3,0.4-0.5,0.8-0.6,1.2c-0.1,0.4-0.2,0.8-0.2,1.1
		h7.7C156.2,160.4,155.8,159.5,155.2,158.9z"/>
	<path d="M167.2,167.7c0.2,0.4,0.5,0.7,0.8,0.9c0.3,0.2,0.7,0.4,1.1,0.5c0.4,0.1,0.9,0.2,1.3,0.2c0.3,0,0.7,0,1-0.1
		c0.4-0.1,0.7-0.2,1-0.4c0.3-0.2,0.5-0.4,0.7-0.7c0.2-0.3,0.3-0.6,0.3-1c0-0.7-0.5-1.2-1.4-1.6c-0.9-0.4-2.2-0.7-3.9-1.1
		c-0.7-0.2-1.4-0.3-2-0.5c-0.7-0.2-1.2-0.5-1.7-0.8c-0.5-0.3-0.9-0.8-1.2-1.3c-0.3-0.5-0.5-1.2-0.5-1.9c0-1.1,0.2-2,0.6-2.7
		c0.4-0.7,1-1.3,1.7-1.7c0.7-0.4,1.5-0.7,2.4-0.9c0.9-0.2,1.8-0.2,2.7-0.2s1.8,0.1,2.7,0.3c0.9,0.2,1.7,0.5,2.3,0.9
		c0.7,0.4,1.3,1,1.7,1.7s0.7,1.6,0.8,2.6h-4.5c-0.1-0.9-0.4-1.5-1-1.8c-0.6-0.3-1.3-0.5-2.2-0.5c-0.3,0-0.6,0-0.9,0
		c-0.3,0-0.6,0.1-0.8,0.2c-0.3,0.1-0.5,0.3-0.6,0.5c-0.2,0.2-0.3,0.5-0.3,0.8c0,0.4,0.2,0.8,0.5,1c0.3,0.3,0.7,0.5,1.2,0.6
		c0.5,0.2,1.1,0.3,1.7,0.4c0.6,0.1,1.3,0.3,2,0.4c0.7,0.2,1.4,0.3,2,0.6c0.7,0.2,1.2,0.5,1.7,0.9c0.5,0.4,0.9,0.8,1.2,1.4
		s0.5,1.2,0.5,2c0,1.1-0.2,2.1-0.7,2.8c-0.5,0.8-1,1.4-1.8,1.8c-0.7,0.5-1.6,0.8-2.5,1c-0.9,0.2-1.9,0.3-2.9,0.3c-1,0-2-0.1-2.9-0.3
		c-1-0.2-1.8-0.5-2.5-1c-0.7-0.5-1.3-1.1-1.8-1.8c-0.5-0.8-0.7-1.7-0.8-2.9h4.5C166.9,166.9,167,167.4,167.2,167.7z"/>
</g>
<g>
	<path d="M37.8,189.5v3.1h-3.4v8.5c0,0.8,0.1,1.3,0.4,1.6c0.3,0.3,0.8,0.4,1.6,0.4c0.3,0,0.5,0,0.8,0c0.2,0,0.5-0.1,0.7-0.1v3.6
		c-0.4,0.1-0.8,0.1-1.3,0.1c-0.5,0-1,0-1.4,0c-0.7,0-1.4,0-2.1-0.1c-0.7-0.1-1.2-0.3-1.7-0.6c-0.5-0.3-0.9-0.7-1.2-1.2
		c-0.3-0.5-0.4-1.2-0.4-2.1v-10.1h-2.9v-3.1h2.9v-5.1h4.7v5.1H37.8z"/>
	<path d="M39.5,194.3c0.4-1.1,1-2.1,1.8-2.9c0.8-0.8,1.7-1.4,2.8-1.8c1.1-0.4,2.3-0.6,3.6-0.6c1.3,0,2.6,0.2,3.7,0.6
		c1.1,0.4,2,1,2.8,1.8c0.8,0.8,1.4,1.7,1.8,2.9c0.4,1.1,0.6,2.4,0.6,3.7c0,1.4-0.2,2.6-0.6,3.7c-0.4,1.1-1,2.1-1.8,2.8
		c-0.8,0.8-1.7,1.4-2.8,1.8c-1.1,0.4-2.3,0.6-3.7,0.6c-1.3,0-2.6-0.2-3.6-0.6c-1.1-0.4-2-1-2.8-1.8c-0.8-0.8-1.4-1.7-1.8-2.8
		c-0.4-1.1-0.6-2.3-0.6-3.7C38.9,196.7,39.1,195.5,39.5,194.3z M43.8,200.1c0.1,0.7,0.4,1.2,0.7,1.8c0.3,0.5,0.7,0.9,1.3,1.2
		c0.5,0.3,1.2,0.5,2,0.5c0.8,0,1.5-0.2,2-0.5c0.5-0.3,1-0.7,1.3-1.2c0.3-0.5,0.5-1.1,0.7-1.8c0.1-0.7,0.2-1.3,0.2-2
		c0-0.7-0.1-1.4-0.2-2c-0.1-0.7-0.4-1.2-0.7-1.8c-0.3-0.5-0.8-0.9-1.3-1.2c-0.5-0.3-1.2-0.5-2-0.5c-0.8,0-1.5,0.2-2,0.5
		c-0.5,0.3-1,0.7-1.3,1.2c-0.3,0.5-0.5,1.1-0.7,1.8c-0.1,0.7-0.2,1.3-0.2,2C43.6,198.8,43.7,199.4,43.8,200.1z"/>
	<path d="M72.1,189.5v2.2h0.1c0.6-0.9,1.3-1.6,2.2-2c0.9-0.4,1.9-0.6,2.9-0.6c1.3,0,2.5,0.3,3.5,0.8c1,0.5,1.8,1.2,2.4,2
		c0.6,0.8,1.1,1.8,1.4,2.9c0.3,1.1,0.5,2.3,0.5,3.5c0,1.1-0.2,2.3-0.5,3.3c-0.3,1.1-0.8,2-1.4,2.8c-0.6,0.8-1.4,1.5-2.4,2
		s-2,0.7-3.3,0.7c-1.1,0-2-0.2-2.9-0.6c-0.9-0.4-1.6-1.1-2.2-1.9h-0.1v8.1h-4.7v-23.1H72.1z M78.2,203.1c0.5-0.3,0.9-0.7,1.3-1.2
		c0.3-0.5,0.5-1.1,0.7-1.7c0.1-0.7,0.2-1.3,0.2-2c0-0.7-0.1-1.4-0.2-2c-0.1-0.7-0.4-1.3-0.7-1.8c-0.3-0.5-0.8-0.9-1.3-1.3
		c-0.5-0.3-1.2-0.5-1.9-0.5c-0.8,0-1.4,0.2-1.9,0.5c-0.5,0.3-0.9,0.7-1.3,1.2c-0.3,0.5-0.5,1.1-0.7,1.8c-0.1,0.7-0.2,1.3-0.2,2.1
		c0,0.7,0.1,1.4,0.2,2c0.1,0.7,0.4,1.2,0.7,1.7c0.3,0.5,0.7,0.9,1.3,1.2c0.5,0.3,1.2,0.5,1.9,0.5C77,203.5,77.6,203.4,78.2,203.1z"
		/>
	<path d="M91.6,189.5v3.2h0.1c0.2-0.5,0.5-1,0.9-1.5c0.4-0.5,0.8-0.8,1.3-1.2c0.5-0.3,1-0.6,1.6-0.7c0.6-0.2,1.1-0.3,1.7-0.3
		c0.3,0,0.7,0.1,1,0.2v4.4c-0.2,0-0.5-0.1-0.8-0.1c-0.3,0-0.6,0-0.9,0c-0.9,0-1.6,0.1-2.2,0.4s-1.1,0.7-1.4,1.2
		c-0.4,0.5-0.6,1.1-0.8,1.7c-0.2,0.7-0.2,1.4-0.2,2.2v7.7h-4.7v-17.1H91.6z"/>
	<path d="M98.9,194.3c0.4-1.1,1-2.1,1.8-2.9c0.8-0.8,1.7-1.4,2.8-1.8c1.1-0.4,2.3-0.6,3.6-0.6c1.3,0,2.6,0.2,3.7,0.6
		c1.1,0.4,2,1,2.8,1.8c0.8,0.8,1.4,1.7,1.8,2.9c0.4,1.1,0.6,2.4,0.6,3.7c0,1.4-0.2,2.6-0.6,3.7c-0.4,1.1-1,2.1-1.8,2.8
		c-0.8,0.8-1.7,1.4-2.8,1.8c-1.1,0.4-2.3,0.6-3.7,0.6c-1.3,0-2.6-0.2-3.6-0.6c-1.1-0.4-2-1-2.8-1.8c-0.8-0.8-1.4-1.7-1.8-2.8
		c-0.4-1.1-0.6-2.3-0.6-3.7C98.3,196.7,98.5,195.5,98.9,194.3z M103.2,200.1c0.1,0.7,0.4,1.2,0.7,1.8c0.3,0.5,0.7,0.9,1.3,1.2
		c0.5,0.3,1.2,0.5,2,0.5c0.8,0,1.5-0.2,2-0.5c0.5-0.3,1-0.7,1.3-1.2c0.3-0.5,0.5-1.1,0.7-1.8c0.1-0.7,0.2-1.3,0.2-2
		c0-0.7-0.1-1.4-0.2-2c-0.1-0.7-0.4-1.2-0.7-1.8c-0.3-0.5-0.8-0.9-1.3-1.2c-0.5-0.3-1.2-0.5-2-0.5c-0.8,0-1.5,0.2-2,0.5
		c-0.5,0.3-1,0.7-1.3,1.2c-0.3,0.5-0.5,1.1-0.7,1.8c-0.1,0.7-0.2,1.3-0.2,2C103,198.8,103.1,199.4,103.2,200.1z"/>
	<path d="M127.8,189.5v3.1h-3.4v8.5c0,0.8,0.1,1.3,0.4,1.6c0.3,0.3,0.8,0.4,1.6,0.4c0.3,0,0.5,0,0.8,0c0.2,0,0.5-0.1,0.7-0.1v3.6
		c-0.4,0.1-0.8,0.1-1.3,0.1c-0.5,0-1,0-1.4,0c-0.7,0-1.4,0-2.1-0.1c-0.7-0.1-1.2-0.3-1.7-0.6c-0.5-0.3-0.9-0.7-1.2-1.2
		c-0.3-0.5-0.4-1.2-0.4-2.1v-10.1h-2.9v-3.1h2.9v-5.1h4.7v5.1H127.8z"/>
	<path d="M134.5,202.5c0.7,0.7,1.7,1,3.1,1c0.9,0,1.8-0.2,2.5-0.7c0.7-0.5,1.1-1,1.3-1.5h4.1c-0.7,2.1-1.7,3.5-3,4.4
		c-1.4,0.9-3,1.3-5,1.3c-1.3,0-2.6-0.2-3.6-0.6c-1.1-0.4-2-1-2.8-1.8c-0.8-0.8-1.3-1.7-1.7-2.9c-0.4-1.1-0.6-2.3-0.6-3.6
		c0-1.3,0.2-2.5,0.6-3.6c0.4-1.1,1-2.1,1.8-2.9c0.8-0.8,1.7-1.4,2.8-1.9c1.1-0.5,2.3-0.7,3.6-0.7c1.5,0,2.7,0.3,3.8,0.8
		s2,1.3,2.7,2.3c0.7,1,1.2,2,1.5,3.2c0.3,1.2,0.4,2.5,0.3,3.8h-12.4C133.4,200.7,133.8,201.8,134.5,202.5z M139.8,193.5
		c-0.6-0.6-1.4-0.9-2.6-0.9c-0.8,0-1.4,0.1-1.9,0.4c-0.5,0.3-0.9,0.6-1.2,0.9c-0.3,0.4-0.5,0.8-0.6,1.2s-0.2,0.8-0.2,1.1h7.7
		C140.8,195,140.4,194.1,139.8,193.5z"/>
	<path d="M156.1,192.6c-0.8,0-1.4,0.2-1.9,0.5c-0.5,0.3-0.9,0.8-1.2,1.3s-0.5,1.1-0.7,1.8c-0.1,0.7-0.2,1.3-0.2,1.9
		c0,0.6,0.1,1.2,0.2,1.9c0.1,0.6,0.3,1.2,0.6,1.7c0.3,0.5,0.7,0.9,1.2,1.3s1.1,0.5,1.9,0.5c1.1,0,2-0.3,2.6-0.9
		c0.6-0.6,1-1.5,1.1-2.5h4.5c-0.3,2.3-1.2,4-2.7,5.2c-1.5,1.2-3.3,1.8-5.6,1.8c-1.3,0-2.5-0.2-3.5-0.6c-1.1-0.4-2-1-2.7-1.8
		c-0.8-0.8-1.3-1.7-1.8-2.8c-0.4-1.1-0.6-2.2-0.6-3.5c0-1.3,0.2-2.6,0.6-3.7c0.4-1.1,1-2.1,1.7-3c0.8-0.8,1.7-1.5,2.8-1.9
		c1.1-0.5,2.3-0.7,3.7-0.7c1,0,2,0.1,2.9,0.4c0.9,0.3,1.8,0.7,2.5,1.2s1.3,1.2,1.8,2c0.5,0.8,0.7,1.8,0.8,2.9h-4.6
		C159.2,193.6,158.1,192.6,156.1,192.6z"/>
	<path d="M175.7,189.5v3.1h-3.4v8.5c0,0.8,0.1,1.3,0.4,1.6c0.3,0.3,0.8,0.4,1.6,0.4c0.3,0,0.5,0,0.8,0c0.2,0,0.5-0.1,0.7-0.1v3.6
		c-0.4,0.1-0.8,0.1-1.3,0.1c-0.5,0-1,0-1.4,0c-0.7,0-1.4,0-2.1-0.1c-0.7-0.1-1.2-0.3-1.7-0.6c-0.5-0.3-0.9-0.7-1.2-1.2
		c-0.3-0.5-0.4-1.2-0.4-2.1v-10.1h-2.9v-3.1h2.9v-5.1h4.7v5.1H175.7z"/>
</g>
<g>
	<path d="M34.7,246.4c-0.9,0.6-2.2,0.9-3.8,0.9c-0.5,0-1,0-1.4,0c-0.5,0-1-0.1-1.4-0.1v-3.9c0.4,0,0.9,0.1,1.4,0.1
		c0.5,0,0.9,0.1,1.4,0c0.6-0.1,1.1-0.3,1.4-0.7c0.3-0.4,0.4-0.9,0.4-1.4c0-0.4-0.1-0.7-0.2-1.1l-6-16.1h5l3.9,11.7h0.1l3.7-11.7H44
		l-7.2,19.3C36.3,244.8,35.6,245.8,34.7,246.4z"/>
	<path d="M45,229c0.4-1.1,1-2.1,1.8-2.9c0.8-0.8,1.7-1.4,2.8-1.8c1.1-0.4,2.3-0.6,3.6-0.6c1.3,0,2.6,0.2,3.7,0.6
		c1.1,0.4,2,1,2.8,1.8c0.8,0.8,1.4,1.7,1.8,2.9c0.4,1.1,0.6,2.4,0.6,3.7c0,1.4-0.2,2.6-0.6,3.7c-0.4,1.1-1,2.1-1.8,2.8
		c-0.8,0.8-1.7,1.4-2.8,1.8c-1.1,0.4-2.3,0.6-3.7,0.6c-1.3,0-2.6-0.2-3.6-0.6c-1.1-0.4-2-1-2.8-1.8c-0.8-0.8-1.4-1.7-1.8-2.8
		c-0.4-1.1-0.6-2.3-0.6-3.7C44.4,231.4,44.6,230.1,45,229z M49.3,234.8c0.1,0.7,0.4,1.2,0.7,1.8c0.3,0.5,0.7,0.9,1.3,1.2
		c0.5,0.3,1.2,0.5,2,0.5c0.8,0,1.5-0.2,2-0.5c0.5-0.3,1-0.7,1.3-1.2c0.3-0.5,0.5-1.1,0.7-1.8c0.1-0.7,0.2-1.3,0.2-2
		c0-0.7-0.1-1.4-0.2-2c-0.1-0.7-0.4-1.2-0.7-1.8c-0.3-0.5-0.8-0.9-1.3-1.2c-0.5-0.3-1.2-0.5-2-0.5c-0.8,0-1.5,0.2-2,0.5
		c-0.5,0.3-1,0.7-1.3,1.2c-0.3,0.5-0.5,1.1-0.7,1.8c-0.1,0.7-0.2,1.3-0.2,2C49.1,233.4,49.2,234.1,49.3,234.8z"/>
	<path d="M76.1,241.3v-2.4H76c-0.6,1-1.4,1.7-2.3,2.2s-1.9,0.7-2.9,0.7c-1.3,0-2.3-0.2-3.1-0.5c-0.8-0.3-1.4-0.8-1.9-1.4
		c-0.5-0.6-0.8-1.3-1-2.2c-0.2-0.9-0.3-1.8-0.3-2.9v-10.5h4.7v9.7c0,1.4,0.2,2.5,0.7,3.2c0.4,0.7,1.2,1,2.4,1c1.3,0,2.2-0.4,2.8-1.1
		c0.6-0.8,0.9-2,0.9-3.8v-9h4.7v17.1H76.1z"/>
	<path d="M88,224.2v3.2h0.1c0.2-0.5,0.5-1,0.9-1.5c0.4-0.5,0.8-0.8,1.3-1.2c0.5-0.3,1-0.6,1.6-0.7c0.6-0.2,1.1-0.3,1.7-0.3
		c0.3,0,0.7,0.1,1,0.2v4.4c-0.2,0-0.5-0.1-0.8-0.1c-0.3,0-0.6,0-0.9,0c-0.9,0-1.6,0.1-2.2,0.4s-1.1,0.7-1.4,1.2
		c-0.4,0.5-0.6,1.1-0.8,1.7c-0.2,0.7-0.2,1.4-0.2,2.2v7.7h-4.7v-17.1H88z"/>
	<path d="M104.5,221.5v-3.9h4.7v3.9H104.5z M109.2,224.2v17.1h-4.7v-17.1H109.2z"/>
	<path d="M116.7,224.2v2.4h0.1c0.6-1,1.4-1.7,2.3-2.2s1.9-0.7,2.9-0.7c1.3,0,2.3,0.2,3.1,0.5c0.8,0.3,1.4,0.8,1.9,1.4
		c0.5,0.6,0.8,1.3,1,2.2c0.2,0.9,0.3,1.8,0.3,2.9v10.5h-4.7v-9.7c0-1.4-0.2-2.5-0.7-3.2c-0.4-0.7-1.2-1-2.4-1
		c-1.3,0-2.2,0.4-2.8,1.1c-0.6,0.8-0.9,2-0.9,3.8v9h-4.7v-17.1H116.7z"/>
	<path d="M139.5,227.2c-0.8,0-1.4,0.2-1.9,0.5c-0.5,0.3-0.9,0.8-1.2,1.3s-0.5,1.1-0.7,1.8c-0.1,0.7-0.2,1.3-0.2,1.9
		c0,0.6,0.1,1.2,0.2,1.9c0.1,0.6,0.3,1.2,0.6,1.7c0.3,0.5,0.7,0.9,1.2,1.3c0.5,0.3,1.1,0.5,1.9,0.5c1.1,0,2-0.3,2.6-0.9
		s1-1.5,1.1-2.5h4.5c-0.3,2.3-1.2,4-2.7,5.2c-1.5,1.2-3.3,1.8-5.6,1.8c-1.3,0-2.5-0.2-3.5-0.6c-1.1-0.4-2-1-2.7-1.8
		c-0.8-0.8-1.3-1.7-1.8-2.8c-0.4-1.1-0.6-2.2-0.6-3.5c0-1.3,0.2-2.6,0.6-3.7c0.4-1.1,1-2.1,1.7-3c0.8-0.8,1.7-1.5,2.8-1.9
		c1.1-0.5,2.3-0.7,3.7-0.7c1,0,2,0.1,2.9,0.4c0.9,0.3,1.8,0.7,2.5,1.2s1.3,1.2,1.8,2c0.5,0.8,0.7,1.8,0.8,2.9H143
		C142.7,228.2,141.5,227.2,139.5,227.2z"/>
	<path d="M149.8,229c0.4-1.1,1-2.1,1.8-2.9c0.8-0.8,1.7-1.4,2.8-1.8c1.1-0.4,2.3-0.6,3.6-0.6c1.3,0,2.6,0.2,3.7,0.6
		c1.1,0.4,2,1,2.8,1.8c0.8,0.8,1.4,1.7,1.8,2.9c0.4,1.1,0.6,2.4,0.6,3.7c0,1.4-0.2,2.6-0.6,3.7c-0.4,1.1-1,2.1-1.8,2.8
		c-0.8,0.8-1.7,1.4-2.8,1.8c-1.1,0.4-2.3,0.6-3.7,0.6c-1.3,0-2.6-0.2-3.6-0.6c-1.1-0.4-2-1-2.8-1.8c-0.8-0.8-1.4-1.7-1.8-2.8
		c-0.4-1.1-0.6-2.3-0.6-3.7C149.2,231.4,149.4,230.1,149.8,229z M154.1,234.8c0.1,0.7,0.4,1.2,0.7,1.8c0.3,0.5,0.7,0.9,1.3,1.2
		c0.5,0.3,1.2,0.5,2,0.5s1.5-0.2,2-0.5c0.5-0.3,1-0.7,1.3-1.2c0.3-0.5,0.5-1.1,0.7-1.8c0.1-0.7,0.2-1.3,0.2-2c0-0.7-0.1-1.4-0.2-2
		c-0.1-0.7-0.4-1.2-0.7-1.8c-0.3-0.5-0.8-0.9-1.3-1.2c-0.5-0.3-1.2-0.5-2-0.5s-1.5,0.2-2,0.5c-0.5,0.3-1,0.7-1.3,1.2
		c-0.3,0.5-0.5,1.1-0.7,1.8c-0.1,0.7-0.2,1.3-0.2,2C153.9,233.4,153.9,234.1,154.1,234.8z"/>
	<path d="M173.9,224.2v2.3h0.1c0.6-0.9,1.4-1.6,2.2-2.1s1.9-0.7,3-0.7c1.1,0,2.1,0.2,3,0.6c0.9,0.4,1.6,1.2,2,2.2
		c0.5-0.8,1.2-1.4,2.1-2c0.9-0.6,1.9-0.9,3.1-0.9c0.9,0,1.7,0.1,2.5,0.3c0.8,0.2,1.4,0.6,2,1.1c0.6,0.5,1,1.1,1.3,1.9
		c0.3,0.8,0.5,1.7,0.5,2.8v11.5h-4.7v-9.7c0-0.6,0-1.1-0.1-1.6c0-0.5-0.2-1-0.4-1.3c-0.2-0.4-0.5-0.7-0.9-0.9
		c-0.4-0.2-0.9-0.3-1.6-0.3c-0.7,0-1.2,0.1-1.6,0.4c-0.4,0.3-0.7,0.6-1,1c-0.2,0.4-0.4,0.9-0.5,1.4c-0.1,0.5-0.1,1-0.1,1.6v9.5h-4.7
		v-9.6c0-0.5,0-1,0-1.5c0-0.5-0.1-1-0.3-1.4c-0.2-0.4-0.4-0.8-0.8-1c-0.4-0.3-1-0.4-1.7-0.4c-0.2,0-0.5,0-0.9,0.1
		c-0.4,0.1-0.7,0.3-1.1,0.6c-0.3,0.3-0.6,0.7-0.9,1.2c-0.2,0.5-0.4,1.2-0.4,2v9.9h-4.7v-17.1H173.9z"/>
	<path d="M203.7,237.2c0.7,0.7,1.7,1,3,1c1,0,1.8-0.2,2.5-0.7c0.7-0.5,1.1-1,1.3-1.5h4.1c-0.7,2.1-1.7,3.5-3,4.4
		c-1.4,0.9-3,1.3-5,1.3c-1.3,0-2.6-0.2-3.6-0.6c-1.1-0.4-2-1-2.8-1.8c-0.8-0.8-1.3-1.7-1.7-2.9c-0.4-1.1-0.6-2.3-0.6-3.6
		c0-1.3,0.2-2.5,0.6-3.6c0.4-1.1,1-2.1,1.8-2.9c0.8-0.8,1.7-1.4,2.8-1.9c1.1-0.5,2.3-0.7,3.6-0.7c1.5,0,2.7,0.3,3.8,0.8
		c1.1,0.6,2,1.3,2.7,2.3c0.7,1,1.2,2,1.5,3.2s0.4,2.5,0.3,3.8h-12.4C202.6,235.4,203,236.5,203.7,237.2z M209,228.2
		c-0.6-0.6-1.4-0.9-2.6-0.9c-0.8,0-1.4,0.1-1.9,0.4c-0.5,0.3-0.9,0.6-1.2,0.9c-0.3,0.4-0.5,0.8-0.6,1.2c-0.1,0.4-0.2,0.8-0.2,1.1
		h7.7C210,229.7,209.6,228.8,209,228.2z"/>
	<path d="M222.5,236.2v5.1h-5.2v-5.1H222.5z"/>
</g>
<g>
	<path class="st2" d="M28.7,269.9c0.5-1.5,1.3-2.8,2.3-4c1-1.1,2.2-2,3.7-2.7c1.4-0.6,3.1-1,4.9-1c1.8,0,3.5,0.3,4.9,1
		c1.4,0.6,2.7,1.5,3.6,2.7c1,1.1,1.8,2.4,2.3,4c0.5,1.5,0.8,3.2,0.8,4.9c0,1.7-0.3,3.3-0.8,4.8c-0.5,1.5-1.3,2.8-2.3,3.9
		s-2.2,2-3.6,2.6c-1.4,0.6-3.1,0.9-4.9,0.9c-1.8,0-3.4-0.3-4.9-0.9c-1.4-0.6-2.7-1.5-3.7-2.6s-1.8-2.4-2.3-3.9
		c-0.5-1.5-0.8-3.1-0.8-4.8C27.9,273,28.1,271.4,28.7,269.9z M33.4,277.7c0.2,0.9,0.6,1.8,1.1,2.5c0.5,0.8,1.2,1.4,2,1.8
		c0.8,0.5,1.8,0.7,3,0.7c1.2,0,2.2-0.2,3-0.7c0.8-0.5,1.5-1.1,2-1.8c0.5-0.8,0.9-1.6,1.1-2.5c0.2-0.9,0.3-1.9,0.3-2.9
		c0-1-0.1-2-0.3-3c-0.2-1-0.6-1.8-1.1-2.6s-1.2-1.4-2-1.8c-0.8-0.5-1.8-0.7-3-0.7c-1.2,0-2.2,0.2-3,0.7c-0.8,0.5-1.5,1.1-2,1.8
		c-0.5,0.8-0.9,1.6-1.1,2.6c-0.2,1-0.3,2-0.3,3C33.1,275.8,33.2,276.7,33.4,277.7z"/>
	<path class="st2" d="M58,269.4v2.4h0.1c0.6-1,1.4-1.7,2.3-2.2s1.9-0.7,2.9-0.7c1.3,0,2.3,0.2,3.1,0.5c0.8,0.3,1.4,0.8,1.9,1.4
		c0.5,0.6,0.8,1.3,1,2.2c0.2,0.9,0.3,1.8,0.3,2.9v10.5h-4.7v-9.7c0-1.4-0.2-2.5-0.7-3.2c-0.4-0.7-1.2-1-2.4-1
		c-1.3,0-2.2,0.4-2.8,1.1c-0.6,0.8-0.9,2-0.9,3.8v9h-4.7v-17.1H58z"/>
	<path class="st2" d="M77.4,262.8v23.7h-4.7v-23.7H77.4z"/>
	<path class="st2" d="M86.8,291.6c-0.9,0.6-2.2,0.9-3.8,0.9c-0.5,0-1,0-1.4,0c-0.5,0-1-0.1-1.4-0.1v-3.9c0.4,0,0.9,0.1,1.4,0.1
		c0.5,0,0.9,0.1,1.4,0c0.6-0.1,1.1-0.3,1.4-0.7c0.3-0.4,0.4-0.9,0.4-1.4c0-0.4-0.1-0.7-0.2-1.1l-6-16.1h5l3.9,11.7h0.1l3.7-11.7h4.9
		l-7.2,19.3C88.4,290,87.7,291,86.8,291.6z"/>
	<path class="st2" d="M103.7,272.5v-3.1h2.8v-1.3c0-1.5,0.5-2.8,1.4-3.7c0.9-1,2.4-1.5,4.3-1.5c0.4,0,0.8,0,1.3,0
		c0.4,0,0.8,0.1,1.2,0.1v3.5c-0.6-0.1-1.1-0.1-1.7-0.1c-0.6,0-1.1,0.1-1.4,0.4c-0.3,0.3-0.4,0.8-0.4,1.5v1h3.2v3.1h-3.2v14h-4.7v-14
		H103.7z"/>
	<path class="st2" d="M116,274.2c0.4-1.1,1-2.1,1.8-2.9c0.8-0.8,1.7-1.4,2.8-1.8c1.1-0.4,2.3-0.6,3.6-0.6c1.3,0,2.6,0.2,3.7,0.6
		c1.1,0.4,2,1,2.8,1.8c0.8,0.8,1.4,1.7,1.8,2.9c0.4,1.1,0.6,2.4,0.6,3.7c0,1.4-0.2,2.6-0.6,3.7c-0.4,1.1-1,2.1-1.8,2.8
		c-0.8,0.8-1.7,1.4-2.8,1.8c-1.1,0.4-2.3,0.6-3.7,0.6c-1.3,0-2.6-0.2-3.6-0.6c-1.1-0.4-2-1-2.8-1.8c-0.8-0.8-1.4-1.7-1.8-2.8
		c-0.4-1.1-0.6-2.3-0.6-3.7C115.4,276.6,115.6,275.4,116,274.2z M120.3,280c0.1,0.7,0.4,1.2,0.7,1.8c0.3,0.5,0.7,0.9,1.3,1.2
		c0.5,0.3,1.2,0.5,2,0.5c0.8,0,1.5-0.2,2-0.5c0.5-0.3,1-0.7,1.3-1.2c0.3-0.5,0.5-1.1,0.7-1.8c0.1-0.7,0.2-1.3,0.2-2
		c0-0.7-0.1-1.4-0.2-2c-0.1-0.7-0.4-1.2-0.7-1.8c-0.3-0.5-0.8-0.9-1.3-1.2c-0.5-0.3-1.2-0.5-2-0.5c-0.8,0-1.5,0.2-2,0.5
		c-0.5,0.3-1,0.7-1.3,1.2c-0.3,0.5-0.5,1.1-0.7,1.8c-0.1,0.7-0.2,1.3-0.2,2C120.1,278.7,120.2,279.3,120.3,280z"/>
	<path class="st2" d="M140,269.4v3.2h0.1c0.2-0.5,0.5-1,0.9-1.5c0.4-0.5,0.8-0.8,1.3-1.2s1-0.6,1.6-0.7c0.6-0.2,1.1-0.3,1.7-0.3
		c0.3,0,0.7,0.1,1,0.2v4.4c-0.2,0-0.5-0.1-0.8-0.1c-0.3,0-0.6,0-0.9,0c-0.9,0-1.6,0.1-2.2,0.4c-0.6,0.3-1.1,0.7-1.4,1.2
		c-0.4,0.5-0.6,1.1-0.8,1.7c-0.2,0.7-0.2,1.4-0.2,2.2v7.7h-4.7v-17.1H140z"/>
</g>
<g>
	<path class="st2" d="M40.7,297.5l8.9,23.7h-5.4l-1.8-5.3h-8.9l-1.9,5.3h-5.2l9-23.7H40.7z M41,312l-3-8.7h-0.1l-3.1,8.7H41z"/>
	<path class="st2" d="M61.1,297.5c1.5,0,2.9,0.2,4.3,0.7c1.3,0.5,2.5,1.2,3.4,2.2c1,1,1.7,2.2,2.3,3.6c0.5,1.5,0.8,3.2,0.8,5.1
		c0,1.7-0.2,3.3-0.7,4.8c-0.4,1.5-1.1,2.7-2,3.8c-0.9,1.1-2,1.9-3.3,2.5c-1.3,0.6-2.9,0.9-4.7,0.9H50.9v-23.7H61.1z M60.8,316.8
		c0.8,0,1.5-0.1,2.2-0.4c0.7-0.2,1.3-0.6,1.9-1.2c0.6-0.6,1-1.3,1.3-2.2s0.5-2,0.5-3.3c0-1.2-0.1-2.3-0.3-3.2
		c-0.2-1-0.6-1.8-1.1-2.5c-0.5-0.7-1.2-1.2-2.1-1.6c-0.9-0.4-2-0.5-3.2-0.5h-3.7v14.9H60.8z"/>
	<path class="st2" d="M86.6,297.5l8.9,23.7h-5.4l-1.8-5.3h-8.9l-1.9,5.3h-5.2l9-23.7H86.6z M86.9,312l-3-8.7h-0.1l-3.1,8.7H86.9z"/>
	<path class="st2" d="M112.5,297.5l5.5,16.3h0.1l5.2-16.3h7.3v23.7h-4.9v-16.8h-0.1l-5.8,16.8h-4l-5.8-16.6H110v16.6h-4.9v-23.7
		H112.5z"/>
	<path class="st2" d="M139.1,317.1c0.7,0.7,1.7,1,3,1c1,0,1.8-0.2,2.5-0.7c0.7-0.5,1.1-1,1.3-1.5h4.1c-0.7,2.1-1.7,3.5-3,4.4
		c-1.4,0.9-3,1.3-5,1.3c-1.3,0-2.6-0.2-3.6-0.6c-1.1-0.4-2-1-2.8-1.8c-0.8-0.8-1.3-1.7-1.7-2.9c-0.4-1.1-0.6-2.3-0.6-3.6
		c0-1.3,0.2-2.5,0.6-3.6c0.4-1.1,1-2.1,1.8-2.9c0.8-0.8,1.7-1.4,2.8-1.9c1.1-0.5,2.3-0.7,3.6-0.7c1.5,0,2.7,0.3,3.8,0.8
		c1.1,0.6,2,1.3,2.7,2.3c0.7,1,1.2,2,1.5,3.2c0.3,1.2,0.4,2.5,0.3,3.8H138C138,315.3,138.4,316.4,139.1,317.1z M144.4,308
		c-0.6-0.6-1.4-0.9-2.6-0.9c-0.8,0-1.4,0.1-1.9,0.4c-0.5,0.3-0.9,0.6-1.2,0.9c-0.3,0.4-0.5,0.8-0.6,1.2c-0.1,0.4-0.2,0.8-0.2,1.1
		h7.7C145.4,309.6,145,308.7,144.4,308z"/>
	<path class="st2" d="M157.1,304v2.3h0.1c0.6-0.9,1.4-1.6,2.2-2.1s1.9-0.7,3-0.7c1.1,0,2.1,0.2,3,0.6c0.9,0.4,1.6,1.2,2,2.2
		c0.5-0.8,1.2-1.4,2.1-2c0.9-0.6,1.9-0.9,3.1-0.9c0.9,0,1.7,0.1,2.5,0.3c0.8,0.2,1.4,0.6,2,1.1s1,1.1,1.3,1.9s0.5,1.7,0.5,2.8v11.5
		h-4.7v-9.7c0-0.6,0-1.1-0.1-1.6c0-0.5-0.2-1-0.4-1.3c-0.2-0.4-0.5-0.7-0.9-0.9c-0.4-0.2-0.9-0.3-1.6-0.3c-0.7,0-1.2,0.1-1.6,0.4
		c-0.4,0.3-0.7,0.6-1,1c-0.2,0.4-0.4,0.9-0.5,1.4s-0.1,1-0.1,1.6v9.5h-4.7v-9.6c0-0.5,0-1,0-1.5c0-0.5-0.1-1-0.3-1.4
		c-0.2-0.4-0.4-0.8-0.8-1c-0.4-0.3-1-0.4-1.7-0.4c-0.2,0-0.5,0-0.9,0.1c-0.4,0.1-0.7,0.3-1.1,0.6c-0.3,0.3-0.6,0.7-0.9,1.2
		c-0.2,0.5-0.4,1.2-0.4,2v9.9h-4.7V304H157.1z"/>
	<path class="st2" d="M186.6,297.5v8.6h0.1c0.6-0.9,1.4-1.5,2.3-1.9s2-0.6,3.1-0.6c0.9,0,1.7,0.2,2.6,0.5s1.6,0.9,2.3,1.6
		c0.7,0.7,1.2,1.7,1.6,2.8c0.4,1.1,0.6,2.5,0.6,4.1s-0.2,2.9-0.6,4.1c-0.4,1.1-1,2.1-1.6,2.8s-1.4,1.3-2.3,1.6s-1.7,0.5-2.6,0.5
		c-1.3,0-2.4-0.2-3.4-0.6c-1-0.4-1.7-1.1-2.3-2h-0.1v2.2h-4.5v-23.7H186.6z M194.2,310.5c-0.2-0.7-0.4-1.2-0.7-1.8
		c-0.3-0.5-0.7-0.9-1.2-1.2c-0.5-0.3-1.1-0.4-1.8-0.4c-0.7,0-1.3,0.1-1.8,0.4c-0.5,0.3-0.9,0.7-1.3,1.2c-0.3,0.5-0.6,1.1-0.7,1.8
		c-0.2,0.7-0.2,1.4-0.2,2.1c0,0.7,0.1,1.4,0.2,2.1c0.2,0.7,0.4,1.2,0.7,1.8c0.3,0.5,0.8,0.9,1.3,1.2c0.5,0.3,1.1,0.4,1.8,0.4
		c0.7,0,1.3-0.1,1.8-0.4c0.5-0.3,0.9-0.7,1.2-1.2c0.3-0.5,0.6-1.1,0.7-1.8c0.2-0.7,0.2-1.3,0.2-2.1
		C194.4,311.9,194.4,311.2,194.2,310.5z"/>
	<path class="st2" d="M206.5,317.1c0.7,0.7,1.7,1,3,1c1,0,1.8-0.2,2.5-0.7c0.7-0.5,1.1-1,1.3-1.5h4.1c-0.7,2.1-1.7,3.5-3,4.4
		c-1.4,0.9-3,1.3-5,1.3c-1.3,0-2.6-0.2-3.6-0.6c-1.1-0.4-2-1-2.8-1.8c-0.8-0.8-1.3-1.7-1.7-2.9c-0.4-1.1-0.6-2.3-0.6-3.6
		c0-1.3,0.2-2.5,0.6-3.6c0.4-1.1,1-2.1,1.8-2.9c0.8-0.8,1.7-1.4,2.8-1.9s2.3-0.7,3.6-0.7c1.5,0,2.7,0.3,3.8,0.8
		c1.1,0.6,2,1.3,2.7,2.3s1.2,2,1.5,3.2s0.4,2.5,0.3,3.8h-12.4C205.4,315.3,205.8,316.4,206.5,317.1z M211.8,308
		c-0.6-0.6-1.4-0.9-2.6-0.9c-0.8,0-1.4,0.1-1.9,0.4s-0.9,0.6-1.2,0.9c-0.3,0.4-0.5,0.8-0.6,1.2c-0.1,0.4-0.2,0.8-0.2,1.1h7.7
		C212.8,309.6,212.4,308.7,211.8,308z"/>
	<path class="st2" d="M224.3,304v3.2h0.1c0.2-0.5,0.5-1,0.9-1.5c0.4-0.5,0.8-0.8,1.3-1.2c0.5-0.3,1-0.6,1.6-0.7
		c0.6-0.2,1.1-0.3,1.7-0.3c0.3,0,0.7,0.1,1,0.2v4.4c-0.2,0-0.5-0.1-0.8-0.1s-0.6,0-0.9,0c-0.9,0-1.6,0.1-2.2,0.4
		c-0.6,0.3-1.1,0.7-1.4,1.2c-0.4,0.5-0.6,1.1-0.8,1.7s-0.2,1.4-0.2,2.2v7.7h-4.7V304H224.3z"/>
	<path class="st2" d="M236.1,316.9c0.2,0.4,0.5,0.7,0.8,0.9c0.3,0.2,0.7,0.4,1.1,0.5c0.4,0.1,0.9,0.2,1.3,0.2c0.3,0,0.7,0,1-0.1
		c0.4-0.1,0.7-0.2,1-0.4c0.3-0.2,0.5-0.4,0.7-0.7c0.2-0.3,0.3-0.6,0.3-1c0-0.7-0.5-1.2-1.4-1.6c-0.9-0.4-2.2-0.7-3.9-1.1
		c-0.7-0.2-1.4-0.3-2-0.5c-0.7-0.2-1.2-0.5-1.7-0.8s-0.9-0.8-1.2-1.3c-0.3-0.5-0.5-1.2-0.5-1.9c0-1.1,0.2-2,0.6-2.7
		c0.4-0.7,1-1.3,1.7-1.7c0.7-0.4,1.5-0.7,2.4-0.9c0.9-0.2,1.8-0.2,2.7-0.2s1.8,0.1,2.7,0.3c0.9,0.2,1.7,0.5,2.3,0.9
		c0.7,0.4,1.3,1,1.7,1.7c0.5,0.7,0.7,1.6,0.8,2.6h-4.5c-0.1-0.9-0.4-1.5-1-1.8c-0.6-0.3-1.3-0.5-2.2-0.5c-0.3,0-0.6,0-0.9,0
		c-0.3,0-0.6,0.1-0.8,0.2c-0.3,0.1-0.5,0.3-0.6,0.5s-0.3,0.5-0.3,0.8c0,0.4,0.2,0.8,0.5,1c0.3,0.3,0.7,0.5,1.2,0.6
		c0.5,0.2,1.1,0.3,1.7,0.4c0.6,0.1,1.3,0.3,2,0.4c0.7,0.2,1.4,0.3,2,0.6c0.7,0.2,1.2,0.5,1.7,0.9c0.5,0.4,0.9,0.8,1.2,1.4
		c0.3,0.5,0.5,1.2,0.5,2c0,1.1-0.2,2.1-0.7,2.8s-1,1.4-1.8,1.8c-0.7,0.5-1.6,0.8-2.5,1s-1.9,0.3-2.9,0.3c-1,0-2-0.1-2.9-0.3
		c-1-0.2-1.8-0.5-2.5-1c-0.7-0.5-1.3-1.1-1.8-1.8s-0.7-1.7-0.8-2.9h4.5C235.8,316.1,235.9,316.5,236.1,316.9z"/>
</g>
</svg>
