<?xml version="1.0" encoding="utf-8"?>
<!-- Generator: Adobe Illustrator 25.4.1, SVG Export Plug-In . SVG Version: 6.00 Build 0)  -->
<svg version="1.1" id="Layer_1" xmlns="http://www.w3.org/2000/svg" xmlns:xlink="http://www.w3.org/1999/xlink" x="0px" y="0px"
	 viewBox="0 0 300 600" style="enable-background:new 0 0 300 600;" xml:space="preserve">
<style type="text/css">
	.st0{fill:#349946;}
</style>
<g>
	<path class="st0" d="M63.3,113c2.1,0,4,0.3,5.5,0.9c1.5,0.6,2.7,1.4,3.7,2.5c0.9,1,1.6,2.2,2.1,3.5c0.4,1.3,0.6,2.7,0.6,4.1
		c0,1.4-0.2,2.7-0.6,4.1c-0.4,1.3-1.1,2.5-2.1,3.5c-0.9,1-2.2,1.8-3.7,2.5c-1.5,0.6-3.3,0.9-5.5,0.9h-7.9v12.3h-7.5V113H63.3z
		 M61.3,129.1c0.9,0,1.7-0.1,2.5-0.2c0.8-0.1,1.5-0.4,2.1-0.7c0.6-0.4,1.1-0.9,1.5-1.6c0.4-0.7,0.6-1.6,0.6-2.6s-0.2-2-0.6-2.6
		c-0.4-0.7-0.9-1.2-1.5-1.6c-0.6-0.4-1.3-0.6-2.1-0.7c-0.8-0.1-1.6-0.2-2.5-0.2h-5.9v10.3H61.3z"/>
	<path class="st0" d="M85.7,122.4v4.6h0.1c0.3-0.8,0.8-1.5,1.3-2.1c0.5-0.7,1.2-1.2,1.9-1.7c0.7-0.5,1.5-0.8,2.3-1.1
		c0.8-0.3,1.6-0.4,2.5-0.4c0.4,0,0.9,0.1,1.5,0.2v6.3c-0.3-0.1-0.7-0.1-1.2-0.2c-0.4,0-0.9-0.1-1.3-0.1c-1.2,0-2.3,0.2-3.2,0.6
		c-0.9,0.4-1.6,1-2.1,1.7c-0.5,0.7-0.9,1.6-1.1,2.5c-0.2,1-0.3,2-0.3,3.1v11.2h-6.8v-24.8H85.7z"/>
	<path class="st0" d="M97.6,130c0.1-1.6,0.5-2.9,1.2-4c0.7-1.1,1.6-1.9,2.7-2.5c1.1-0.6,2.3-1.1,3.7-1.4c1.4-0.3,2.7-0.4,4.1-0.4
		c1.2,0,2.5,0.1,3.8,0.3c1.3,0.2,2.4,0.5,3.5,1c1.1,0.5,1.9,1.2,2.6,2.1c0.7,0.9,1,2.1,1,3.6v12.9c0,1.1,0.1,2.2,0.2,3.2
		c0.1,1,0.4,1.8,0.7,2.3h-6.9c-0.1-0.4-0.2-0.8-0.3-1.2c-0.1-0.4-0.1-0.8-0.2-1.2c-1.1,1.1-2.4,1.9-3.8,2.4c-1.5,0.4-3,0.7-4.5,0.7
		c-1.2,0-2.3-0.1-3.3-0.4c-1-0.3-1.9-0.7-2.7-1.3c-0.8-0.6-1.4-1.4-1.8-2.3c-0.4-0.9-0.6-2-0.6-3.3c0-1.4,0.2-2.6,0.7-3.5
		s1.1-1.6,1.9-2.2c0.8-0.5,1.7-1,2.7-1.2c1-0.3,2-0.5,3-0.6c1-0.2,2-0.3,3-0.4c1-0.1,1.9-0.2,2.6-0.4s1.4-0.5,1.8-0.8
		c0.4-0.4,0.7-0.9,0.6-1.6c0-0.7-0.1-1.3-0.4-1.8c-0.2-0.4-0.6-0.8-1-1c-0.4-0.2-0.9-0.4-1.4-0.5c-0.5-0.1-1.1-0.1-1.7-0.1
		c-1.3,0-2.4,0.3-3.2,0.9s-1.2,1.5-1.3,2.9H97.6z M113.3,135.1c-0.3,0.3-0.6,0.5-1.1,0.6c-0.4,0.1-0.9,0.3-1.4,0.4
		c-0.5,0.1-1,0.2-1.6,0.2c-0.5,0.1-1.1,0.1-1.6,0.2c-0.5,0.1-1,0.2-1.5,0.4c-0.5,0.2-0.9,0.4-1.3,0.6c-0.4,0.3-0.7,0.6-0.9,1
		c-0.2,0.4-0.3,0.9-0.3,1.6c0,0.6,0.1,1.1,0.3,1.5c0.2,0.4,0.5,0.7,0.9,1c0.4,0.2,0.8,0.4,1.3,0.5c0.5,0.1,1,0.1,1.6,0.1
		c1.3,0,2.4-0.2,3.1-0.7c0.7-0.4,1.3-1,1.6-1.6s0.6-1.3,0.6-1.9c0.1-0.6,0.1-1.2,0.1-1.5V135.1z"/>
	<path class="st0" d="M137.3,126.9c-1.1,0-2,0.2-2.7,0.7c-0.7,0.5-1.3,1.1-1.8,1.9c-0.5,0.8-0.8,1.6-1,2.6c-0.2,0.9-0.3,1.9-0.3,2.8
		c0,0.9,0.1,1.8,0.3,2.7c0.2,0.9,0.5,1.8,0.9,2.5c0.4,0.8,1,1.4,1.8,1.8c0.7,0.5,1.6,0.7,2.7,0.7c1.6,0,2.9-0.5,3.8-1.4
		c0.9-0.9,1.4-2.1,1.7-3.7h6.6c-0.4,3.3-1.7,5.8-3.8,7.5c-2.1,1.7-4.8,2.6-8.1,2.6c-1.9,0-3.6-0.3-5.1-0.9c-1.6-0.6-2.9-1.5-4-2.6
		c-1.1-1.1-1.9-2.5-2.5-4c-0.6-1.6-0.9-3.3-0.9-5.1c0-1.9,0.3-3.7,0.8-5.4c0.6-1.6,1.4-3.1,2.5-4.3c1.1-1.2,2.4-2.1,4-2.8
		c1.6-0.7,3.4-1,5.4-1c1.5,0,2.9,0.2,4.2,0.6c1.4,0.4,2.6,1,3.6,1.8c1.1,0.8,1.9,1.8,2.6,2.9c0.7,1.2,1.1,2.6,1.2,4.2h-6.7
		C141.9,128.3,140.2,126.9,137.3,126.9z"/>
	<path class="st0" d="M166.6,122.4v4.6h-5v12.3c0,1.2,0.2,1.9,0.6,2.3c0.4,0.4,1.2,0.6,2.3,0.6c0.4,0,0.8,0,1.1,0
		c0.4,0,0.7-0.1,1-0.1v5.3c-0.6,0.1-1.2,0.2-1.9,0.2c-0.7,0-1.4,0-2.1,0c-1.1,0-2.1-0.1-3-0.2c-0.9-0.1-1.8-0.4-2.5-0.8
		c-0.7-0.4-1.3-1-1.7-1.8c-0.4-0.8-0.6-1.8-0.6-3V127h-4.1v-4.6h4.1V115h6.8v7.4H166.6z"/>
	<path class="st0" d="M170,118.6V113h6.8v5.6H170z M176.9,122.4v24.8H170v-24.8H176.9z"/>
	<path class="st0" d="M194.1,126.9c-1.1,0-2,0.2-2.7,0.7c-0.7,0.5-1.3,1.1-1.8,1.9c-0.5,0.8-0.8,1.6-1,2.6c-0.2,0.9-0.3,1.9-0.3,2.8
		c0,0.9,0.1,1.8,0.3,2.7c0.2,0.9,0.5,1.8,0.9,2.5c0.4,0.8,1,1.4,1.8,1.8c0.7,0.5,1.6,0.7,2.7,0.7c1.6,0,2.9-0.5,3.8-1.4
		c0.9-0.9,1.4-2.1,1.7-3.7h6.6c-0.4,3.3-1.7,5.8-3.8,7.5c-2.1,1.7-4.8,2.6-8.1,2.6c-1.9,0-3.6-0.3-5.1-0.9c-1.6-0.6-2.9-1.5-4-2.6
		c-1.1-1.1-1.9-2.5-2.5-4c-0.6-1.6-0.9-3.3-0.9-5.1c0-1.9,0.3-3.7,0.8-5.4c0.6-1.6,1.4-3.1,2.5-4.3c1.1-1.2,2.4-2.1,4-2.8
		c1.6-0.7,3.4-1,5.4-1c1.5,0,2.9,0.2,4.2,0.6c1.4,0.4,2.6,1,3.6,1.8c1.1,0.8,1.9,1.8,2.6,2.9c0.7,1.2,1.1,2.6,1.2,4.2h-6.7
		C198.7,128.3,197,126.9,194.1,126.9z"/>
	<path class="st0" d="M209.5,130c0.1-1.6,0.5-2.9,1.2-4c0.7-1.1,1.6-1.9,2.7-2.5c1.1-0.6,2.3-1.1,3.7-1.4c1.4-0.3,2.7-0.4,4.1-0.4
		c1.2,0,2.5,0.1,3.8,0.3c1.3,0.2,2.4,0.5,3.5,1c1.1,0.5,1.9,1.2,2.6,2.1c0.7,0.9,1,2.1,1,3.6v12.9c0,1.1,0.1,2.2,0.2,3.2
		c0.1,1,0.4,1.8,0.7,2.3H226c-0.1-0.4-0.2-0.8-0.3-1.2c-0.1-0.4-0.1-0.8-0.2-1.2c-1.1,1.1-2.4,1.9-3.8,2.4c-1.5,0.4-3,0.7-4.5,0.7
		c-1.2,0-2.3-0.1-3.3-0.4c-1-0.3-1.9-0.7-2.7-1.3c-0.8-0.6-1.4-1.4-1.8-2.3c-0.4-0.9-0.6-2-0.6-3.3c0-1.4,0.2-2.6,0.7-3.5
		c0.5-0.9,1.1-1.6,1.9-2.2c0.8-0.5,1.7-1,2.7-1.2c1-0.3,2-0.5,3-0.6c1-0.2,2-0.3,3-0.4c1-0.1,1.9-0.2,2.6-0.4
		c0.8-0.2,1.4-0.5,1.8-0.8c0.4-0.4,0.7-0.9,0.6-1.6c0-0.7-0.1-1.3-0.4-1.8c-0.2-0.4-0.6-0.8-1-1c-0.4-0.2-0.9-0.4-1.4-0.5
		c-0.5-0.1-1.1-0.1-1.7-0.1c-1.3,0-2.4,0.3-3.2,0.9c-0.8,0.6-1.2,1.5-1.3,2.9H209.5z M225.2,135.1c-0.3,0.3-0.6,0.5-1.1,0.6
		c-0.4,0.1-0.9,0.3-1.4,0.4c-0.5,0.1-1,0.2-1.6,0.2c-0.5,0.1-1.1,0.1-1.6,0.2c-0.5,0.1-1,0.2-1.5,0.4s-0.9,0.4-1.3,0.6
		c-0.4,0.3-0.7,0.6-0.9,1c-0.2,0.4-0.3,0.9-0.3,1.6c0,0.6,0.1,1.1,0.3,1.5c0.2,0.4,0.5,0.7,0.9,1c0.4,0.2,0.8,0.4,1.3,0.5
		c0.5,0.1,1,0.1,1.6,0.1c1.3,0,2.4-0.2,3.1-0.7c0.7-0.4,1.3-1,1.6-1.6c0.4-0.6,0.6-1.3,0.6-1.9c0.1-0.6,0.1-1.2,0.1-1.5V135.1z"/>
	<path class="st0" d="M244.4,113v34.3h-6.8V113H244.4z"/>
</g>
<g>
	<path class="st0" d="M81.5,195.2l-5.8-23.3h-0.1l-5.7,23.3h-7.6L53.2,161h7.5l5.4,23.3h0.1l6-23.3h7.1l5.9,23.6h0.1l5.6-23.6h7.4
		L89,195.2H81.5z"/>
	<path class="st0" d="M101.1,166.6V161h6.8v5.6H101.1z M107.9,170.4v24.8h-6.8v-24.8H107.9z"/>
	<path class="st0" d="M119,189.1c0.3,0.5,0.7,1,1.2,1.3s1,0.6,1.7,0.7c0.6,0.2,1.3,0.2,1.9,0.2c0.5,0,1-0.1,1.5-0.2
		c0.5-0.1,1-0.3,1.4-0.5c0.4-0.2,0.8-0.6,1.1-1c0.3-0.4,0.4-0.9,0.4-1.5c0-1-0.7-1.8-2-2.3c-1.4-0.5-3.3-1-5.7-1.5
		c-1-0.2-2-0.5-2.9-0.8c-0.9-0.3-1.8-0.7-2.5-1.2c-0.7-0.5-1.3-1.1-1.8-1.9c-0.4-0.8-0.7-1.7-0.7-2.8c0-1.6,0.3-2.9,0.9-3.9
		c0.6-1,1.4-1.8,2.5-2.4c1-0.6,2.2-1,3.5-1.2c1.3-0.2,2.6-0.4,3.9-0.4c1.3,0,2.6,0.1,3.9,0.4c1.3,0.3,2.4,0.7,3.4,1.3
		c1,0.6,1.8,1.4,2.5,2.4c0.7,1,1,2.3,1.2,3.8H128c-0.1-1.3-0.6-2.2-1.5-2.7c-0.9-0.5-2-0.7-3.2-0.7c-0.4,0-0.8,0-1.2,0.1
		c-0.4,0-0.9,0.2-1.2,0.3c-0.4,0.2-0.7,0.4-0.9,0.7c-0.3,0.3-0.4,0.7-0.4,1.2c0,0.6,0.2,1.1,0.7,1.5c0.4,0.4,1,0.7,1.8,0.9
		c0.7,0.2,1.5,0.5,2.5,0.6c0.9,0.2,1.9,0.4,2.8,0.6c1,0.2,2,0.5,2.9,0.8c0.9,0.3,1.8,0.7,2.5,1.3c0.7,0.5,1.3,1.2,1.8,2
		c0.4,0.8,0.7,1.8,0.7,2.9c0,1.6-0.3,3-1,4.1c-0.7,1.1-1.5,2-2.6,2.7c-1.1,0.7-2.3,1.1-3.6,1.4c-1.4,0.3-2.7,0.4-4.2,0.4
		c-1.4,0-2.8-0.1-4.2-0.4c-1.4-0.3-2.6-0.8-3.7-1.4c-1.1-0.7-2-1.6-2.6-2.7c-0.7-1.1-1.1-2.5-1.1-4.2h6.5
		C118.6,187.9,118.7,188.5,119,189.1z"/>
	<path class="st0" d="M156.7,192.1c-0.8,1.3-1.8,2.3-3.1,2.9c-1.3,0.6-2.8,0.9-4.4,0.9c-1.9,0-3.5-0.4-4.9-1.1
		c-1.4-0.7-2.6-1.7-3.5-2.9s-1.6-2.6-2.1-4.2c-0.5-1.6-0.7-3.3-0.7-5c0-1.7,0.2-3.3,0.7-4.8c0.5-1.6,1.2-2.9,2.1-4.1
		c0.9-1.2,2.1-2.1,3.4-2.9c1.4-0.7,3-1.1,4.8-1.1c1.5,0,2.9,0.3,4.2,0.9c1.3,0.6,2.4,1.5,3.1,2.8h0.1V161h6.8v34.3h-6.5L156.7,192.1
		L156.7,192.1z M156.4,179.8c-0.2-0.9-0.5-1.8-1-2.5c-0.5-0.7-1.1-1.3-1.8-1.8c-0.7-0.4-1.7-0.7-2.8-0.7c-1.1,0-2.1,0.2-2.8,0.7
		c-0.8,0.4-1.4,1-1.8,1.8c-0.5,0.7-0.8,1.6-1,2.5c-0.2,0.9-0.3,1.9-0.3,3c0,1,0.1,1.9,0.3,2.9c0.2,1,0.6,1.8,1.1,2.6
		c0.5,0.8,1.1,1.4,1.9,1.8c0.8,0.5,1.7,0.7,2.7,0.7c1.1,0,2.1-0.2,2.8-0.7c0.8-0.4,1.4-1,1.8-1.8c0.4-0.8,0.8-1.6,1-2.6s0.3-2,0.3-3
		C156.7,181.7,156.6,180.7,156.4,179.8z"/>
	<path class="st0" d="M168.6,177.4c0.6-1.6,1.5-3,2.6-4.1c1.1-1.1,2.5-2,4-2.6c1.6-0.6,3.3-0.9,5.3-0.9s3.7,0.3,5.3,0.9
		c1.6,0.6,2.9,1.5,4.1,2.6c1.1,1.1,2,2.5,2.6,4.1c0.6,1.6,0.9,3.4,0.9,5.4c0,2-0.3,3.8-0.9,5.4c-0.6,1.6-1.5,3-2.6,4.1
		c-1.1,1.1-2.5,2-4.1,2.6s-3.4,0.9-5.3,0.9s-3.7-0.3-5.3-0.9c-1.6-0.6-2.9-1.5-4-2.6c-1.1-1.1-2-2.5-2.6-4.1
		c-0.6-1.6-0.9-3.4-0.9-5.4C167.6,180.9,168,179.1,168.6,177.4z M174.8,185.7c0.2,0.9,0.5,1.8,1,2.5c0.5,0.8,1.1,1.4,1.8,1.8
		c0.8,0.4,1.7,0.7,2.9,0.7c1.2,0,2.1-0.2,2.9-0.7c0.8-0.4,1.4-1,1.9-1.8c0.5-0.8,0.8-1.6,1-2.5c0.2-0.9,0.3-1.9,0.3-2.9
		c0-1-0.1-2-0.3-2.9c-0.2-1-0.5-1.8-1-2.5c-0.5-0.7-1.1-1.3-1.9-1.8s-1.8-0.7-2.9-0.7c-1.2,0-2.1,0.2-2.9,0.7
		c-0.8,0.5-1.4,1.1-1.8,1.8c-0.5,0.7-0.8,1.6-1,2.5c-0.2,1-0.3,1.9-0.3,2.9C174.5,183.8,174.6,184.8,174.8,185.7z"/>
	<path class="st0" d="M204.4,170.4v3.4h0.1c0.9-1.3,2-2.3,3.2-3c1.3-0.7,2.7-1.1,4.3-1.1c1.6,0,3,0.3,4.3,0.9c1.3,0.6,2.3,1.7,3,3.2
		c0.7-1.1,1.7-2,3-2.9c1.3-0.8,2.8-1.2,4.5-1.2c1.3,0,2.5,0.2,3.6,0.5c1.1,0.3,2.1,0.8,2.9,1.5c0.8,0.7,1.4,1.6,1.9,2.8
		c0.4,1.1,0.7,2.5,0.7,4.1v16.6H229v-14.1c0-0.8,0-1.6-0.1-2.4c-0.1-0.7-0.2-1.4-0.5-1.9c-0.3-0.5-0.7-1-1.3-1.3
		c-0.6-0.3-1.3-0.5-2.3-0.5s-1.7,0.2-2.3,0.6c-0.6,0.4-1.1,0.8-1.4,1.4c-0.3,0.6-0.6,1.3-0.7,2c-0.1,0.8-0.2,1.5-0.2,2.3v13.8h-6.8
		v-13.9c0-0.7,0-1.5,0-2.2c0-0.7-0.2-1.4-0.4-2c-0.2-0.6-0.6-1.1-1.2-1.5c-0.6-0.4-1.4-0.6-2.5-0.6c-0.3,0-0.7,0.1-1.3,0.2
		c-0.5,0.1-1,0.4-1.5,0.8c-0.5,0.4-0.9,1-1.3,1.7c-0.4,0.8-0.5,1.7-0.5,3v14.4h-6.8v-24.8H204.4z"/>
</g>
<g>
	<path class="st0" d="M113.8,223v-4.6h4.1v-1.9c0-2.2,0.7-4,2.1-5.4c1.4-1.4,3.5-2.1,6.2-2.1c0.6,0,1.2,0,1.8,0.1
		c0.6,0,1.2,0.1,1.8,0.1v5.1c-0.8-0.1-1.6-0.1-2.5-0.1c-0.9,0-1.6,0.2-2,0.6c-0.4,0.4-0.6,1.2-0.6,2.2v1.5h4.7v4.6h-4.7v20.3h-6.8
		V223H113.8z"/>
	<path class="st0" d="M132.6,225.4c0.6-1.6,1.5-3,2.6-4.1c1.1-1.1,2.5-2,4-2.6c1.6-0.6,3.3-0.9,5.3-0.9s3.7,0.3,5.3,0.9
		c1.6,0.6,2.9,1.5,4.1,2.6c1.1,1.1,2,2.5,2.6,4.1c0.6,1.6,0.9,3.4,0.9,5.4c0,2-0.3,3.8-0.9,5.4c-0.6,1.6-1.5,3-2.6,4.1
		c-1.1,1.1-2.5,2-4.1,2.6c-1.6,0.6-3.4,0.9-5.3,0.9s-3.7-0.3-5.3-0.9s-2.9-1.5-4-2.6c-1.1-1.1-2-2.5-2.6-4.1
		c-0.6-1.6-0.9-3.4-0.9-5.4C131.6,228.9,132,227.1,132.6,225.4z M138.8,233.7c0.2,0.9,0.5,1.8,1,2.5c0.5,0.8,1.1,1.4,1.8,1.8
		c0.8,0.4,1.7,0.7,2.9,0.7c1.2,0,2.1-0.2,2.9-0.7c0.8-0.4,1.4-1,1.9-1.8c0.5-0.8,0.8-1.6,1-2.5c0.2-0.9,0.3-1.9,0.3-2.9
		c0-1-0.1-2-0.3-2.9c-0.2-1-0.5-1.8-1-2.5c-0.5-0.7-1.1-1.3-1.9-1.8s-1.8-0.7-2.9-0.7c-1.2,0-2.1,0.2-2.9,0.7
		c-0.8,0.5-1.4,1.1-1.8,1.8c-0.5,0.7-0.8,1.6-1,2.5c-0.2,1-0.3,1.9-0.3,2.9C138.5,231.8,138.6,232.8,138.8,233.7z"/>
	<path class="st0" d="M168.2,218.4v4.6h0.1c0.3-0.8,0.8-1.5,1.3-2.1c0.5-0.7,1.2-1.2,1.9-1.7c0.7-0.5,1.5-0.8,2.3-1.1
		c0.8-0.3,1.6-0.4,2.5-0.4c0.4,0,0.9,0.1,1.5,0.2v6.3c-0.3-0.1-0.7-0.1-1.2-0.2s-0.9-0.1-1.3-0.1c-1.2,0-2.3,0.2-3.2,0.6
		c-0.9,0.4-1.6,1-2.1,1.7c-0.5,0.7-0.9,1.6-1.1,2.5c-0.2,1-0.3,2-0.3,3.1v11.2h-6.8v-24.8H168.2z"/>
</g>
<g>
	<path class="st0" d="M69.3,257c2.2,0,4.3,0.4,6.2,1.1c1.9,0.7,3.6,1.8,4.9,3.2c1.4,1.4,2.5,3.2,3.3,5.3c0.8,2.1,1.2,4.6,1.2,7.4
		c0,2.5-0.3,4.8-1,6.9c-0.6,2.1-1.6,3.9-2.9,5.5c-1.3,1.5-2.9,2.7-4.8,3.6c-1.9,0.9-4.2,1.3-6.8,1.3H54.5V257H69.3z M68.8,284.9
		c1.1,0,2.1-0.2,3.2-0.5c1-0.4,1.9-0.9,2.7-1.8c0.8-0.8,1.4-1.9,1.9-3.2c0.5-1.3,0.7-2.9,0.7-4.8c0-1.7-0.2-3.3-0.5-4.7
		s-0.9-2.6-1.7-3.6c-0.8-1-1.8-1.8-3-2.3s-2.8-0.8-4.7-0.8H62v21.6H68.8z"/>
	<path class="st0" d="M96.7,285.3c1,1,2.5,1.5,4.4,1.5c1.4,0,2.6-0.3,3.6-1c1-0.7,1.6-1.4,1.8-2.2h6c-1,3-2.4,5.1-4.4,6.4
		c-2,1.3-4.4,1.9-7.2,1.9c-2,0-3.7-0.3-5.3-0.9c-1.6-0.6-2.9-1.5-4-2.7s-1.9-2.5-2.5-4.1c-0.6-1.6-0.9-3.4-0.9-5.3
		c0-1.9,0.3-3.6,0.9-5.2c0.6-1.6,1.5-3,2.6-4.2c1.1-1.2,2.5-2.1,4-2.8c1.6-0.7,3.3-1,5.2-1c2.1,0,4,0.4,5.5,1.2
		c1.6,0.8,2.9,1.9,3.9,3.3c1,1.4,1.7,2.9,2.2,4.7c0.4,1.8,0.6,3.6,0.5,5.5H95C95.1,282.7,95.6,284.3,96.7,285.3z M104.4,272.2
		c-0.8-0.9-2.1-1.3-3.7-1.3c-1.1,0-2,0.2-2.7,0.6c-0.7,0.4-1.3,0.8-1.7,1.4c-0.4,0.5-0.7,1.1-0.9,1.7c-0.2,0.6-0.3,1.2-0.3,1.6h11.1
		C105.7,274.4,105.2,273.1,104.4,272.2z"/>
	<path class="st0" d="M123.4,266.4v3.5h0.1c0.9-1.4,2-2.5,3.4-3.1c1.4-0.7,2.8-1,4.2-1c1.8,0,3.3,0.2,4.5,0.7
		c1.2,0.5,2.1,1.2,2.8,2.1c0.7,0.9,1.1,2,1.4,3.2c0.3,1.3,0.4,2.7,0.4,4.2v15.3h-6.8v-14c0-2-0.3-3.6-1-4.6c-0.6-1-1.8-1.5-3.4-1.5
		c-1.9,0-3.2,0.6-4,1.7s-1.2,2.9-1.2,5.4v13h-6.8v-24.8H123.4z"/>
	<path class="st0" d="M159,266.4v4.6h-5v12.3c0,1.2,0.2,1.9,0.6,2.3c0.4,0.4,1.2,0.6,2.3,0.6c0.4,0,0.8,0,1.1,0c0.4,0,0.7-0.1,1-0.1
		v5.3c-0.6,0.1-1.2,0.2-1.9,0.2c-0.7,0-1.4,0-2.1,0c-1.1,0-2.1-0.1-3-0.2c-0.9-0.1-1.8-0.4-2.5-0.8c-0.7-0.4-1.3-1-1.7-1.8
		c-0.4-0.8-0.6-1.8-0.6-3V271h-4.1v-4.6h4.1V259h6.8v7.4H159z"/>
	<path class="st0" d="M162.5,262.6V257h6.8v5.6H162.5z M169.3,266.4v24.8h-6.8v-24.8H169.3z"/>
	<path class="st0" d="M180.4,285.1c0.3,0.5,0.7,1,1.2,1.3c0.5,0.3,1,0.6,1.7,0.7c0.6,0.2,1.3,0.2,1.9,0.2c0.5,0,1-0.1,1.5-0.2
		c0.5-0.1,1-0.3,1.4-0.5c0.4-0.2,0.8-0.6,1.1-1c0.3-0.4,0.4-0.9,0.4-1.5c0-1-0.7-1.8-2-2.3c-1.4-0.5-3.3-1-5.7-1.5
		c-1-0.2-2-0.5-2.9-0.8c-0.9-0.3-1.8-0.7-2.5-1.2c-0.7-0.5-1.3-1.1-1.8-1.9s-0.7-1.7-0.7-2.8c0-1.6,0.3-2.9,0.9-3.9
		c0.6-1,1.4-1.8,2.5-2.4c1-0.6,2.2-1,3.5-1.2c1.3-0.2,2.6-0.4,3.9-0.4c1.3,0,2.6,0.1,3.9,0.4c1.3,0.3,2.4,0.7,3.4,1.3
		c1,0.6,1.8,1.4,2.5,2.4c0.7,1,1,2.3,1.2,3.8h-6.5c-0.1-1.3-0.6-2.2-1.5-2.7c-0.9-0.5-2-0.7-3.2-0.7c-0.4,0-0.8,0-1.2,0.1
		c-0.4,0-0.9,0.2-1.2,0.3c-0.4,0.2-0.7,0.4-0.9,0.7c-0.3,0.3-0.4,0.7-0.4,1.2c0,0.6,0.2,1.1,0.7,1.5c0.4,0.4,1,0.7,1.8,0.9
		c0.7,0.2,1.5,0.5,2.5,0.6c0.9,0.2,1.9,0.4,2.8,0.6c1,0.2,2,0.5,2.9,0.8c0.9,0.3,1.8,0.7,2.5,1.3c0.7,0.5,1.3,1.2,1.8,2
		c0.4,0.8,0.7,1.8,0.7,2.9c0,1.6-0.3,3-1,4.1c-0.7,1.1-1.5,2-2.6,2.7c-1.1,0.7-2.3,1.1-3.6,1.4c-1.4,0.3-2.7,0.4-4.2,0.4
		c-1.4,0-2.8-0.1-4.2-0.4c-1.4-0.3-2.6-0.8-3.7-1.4c-1.1-0.7-2-1.6-2.6-2.7s-1.1-2.5-1.1-4.2h6.5
		C179.9,283.9,180.1,284.5,180.4,285.1z"/>
	<path class="st0" d="M214.1,266.4v4.6h-5v12.3c0,1.2,0.2,1.9,0.6,2.3c0.4,0.4,1.2,0.6,2.3,0.6c0.4,0,0.8,0,1.1,0
		c0.4,0,0.7-0.1,1-0.1v5.3c-0.6,0.1-1.2,0.2-1.9,0.2c-0.7,0-1.4,0-2.1,0c-1.1,0-2.1-0.1-3-0.2c-0.9-0.1-1.8-0.4-2.5-0.8
		c-0.7-0.4-1.3-1-1.7-1.8c-0.4-0.8-0.6-1.8-0.6-3V271h-4.1v-4.6h4.1V259h6.8v7.4H214.1z"/>
	<path class="st0" d="M223.1,285.1c0.3,0.5,0.7,1,1.2,1.3c0.5,0.3,1,0.6,1.7,0.7c0.6,0.2,1.3,0.2,1.9,0.2c0.5,0,1-0.1,1.5-0.2
		c0.5-0.1,1-0.3,1.4-0.5c0.4-0.2,0.8-0.6,1.1-1c0.3-0.4,0.4-0.9,0.4-1.5c0-1-0.7-1.8-2-2.3c-1.4-0.5-3.3-1-5.7-1.5
		c-1-0.2-2-0.5-2.9-0.8c-0.9-0.3-1.8-0.7-2.5-1.2c-0.7-0.5-1.3-1.1-1.8-1.9s-0.7-1.7-0.7-2.8c0-1.6,0.3-2.9,0.9-3.9
		c0.6-1,1.4-1.8,2.5-2.4c1-0.6,2.2-1,3.5-1.2c1.3-0.2,2.6-0.4,3.9-0.4c1.3,0,2.6,0.1,3.9,0.4c1.3,0.3,2.4,0.7,3.4,1.3
		c1,0.6,1.8,1.4,2.5,2.4c0.7,1,1,2.3,1.2,3.8H232c-0.1-1.3-0.6-2.2-1.5-2.7c-0.9-0.5-2-0.7-3.2-0.7c-0.4,0-0.8,0-1.2,0.1
		c-0.4,0-0.9,0.2-1.2,0.3c-0.4,0.2-0.7,0.4-0.9,0.7c-0.3,0.3-0.4,0.7-0.4,1.2c0,0.6,0.2,1.1,0.7,1.5c0.4,0.4,1,0.7,1.8,0.9
		c0.7,0.2,1.5,0.5,2.5,0.6c0.9,0.2,1.9,0.4,2.8,0.6c1,0.2,2,0.5,2.9,0.8c0.9,0.3,1.8,0.7,2.5,1.3c0.7,0.5,1.3,1.2,1.8,2
		c0.4,0.8,0.7,1.8,0.7,2.9c0,1.6-0.3,3-1,4.1c-0.7,1.1-1.5,2-2.6,2.7c-1.1,0.7-2.3,1.1-3.6,1.4c-1.4,0.3-2.7,0.4-4.2,0.4
		c-1.4,0-2.8-0.1-4.2-0.4c-1.4-0.3-2.6-0.8-3.7-1.4c-1.1-0.7-2-1.6-2.6-2.7s-1.1-2.5-1.1-4.2h6.5
		C222.6,283.9,222.8,284.5,223.1,285.1z"/>
</g>
</svg>
