<?xml version="1.0" encoding="utf-8"?>
<!-- Generator: Adobe Illustrator 25.4.1, SVG Export Plug-In . SVG Version: 6.00 Build 0)  -->
<svg version="1.1" id="Layer_1" xmlns="http://www.w3.org/2000/svg" xmlns:xlink="http://www.w3.org/1999/xlink" x="0px" y="0px"
	 viewBox="0 0 300 600" style="enable-background:new 0 0 300 600;" xml:space="preserve">
<g>
	<path d="M37.3,113.4v17.5l16.5-17.5h11.6L48.9,130l18,25.5H55.3l-12.7-18.9l-5.3,5.4v13.6h-9.3v-42.1H37.3z"/>
	<path d="M78.7,148.2c1.3,1.2,3.1,1.8,5.4,1.8c1.7,0,3.1-0.4,4.4-1.3c1.2-0.8,2-1.7,2.2-2.7h7.4c-1.2,3.7-3,6.3-5.4,7.8
		c-2.4,1.6-5.4,2.4-8.8,2.4c-2.4,0-4.6-0.4-6.5-1.1c-1.9-0.8-3.6-1.9-4.9-3.3c-1.3-1.4-2.4-3.1-3.1-5.1c-0.7-2-1.1-4.1-1.1-6.5
		c0-2.3,0.4-4.4,1.1-6.4c0.7-2,1.8-3.7,3.2-5.1c1.4-1.4,3-2.6,4.9-3.4c1.9-0.8,4-1.2,6.3-1.2c2.6,0,4.9,0.5,6.8,1.5
		c1.9,1,3.5,2.4,4.7,4c1.2,1.7,2.1,3.6,2.7,5.8c0.6,2.2,0.7,4.4,0.6,6.8h-22C76.8,145,77.5,147,78.7,148.2z M88.2,132.2
		c-1-1.1-2.5-1.7-4.6-1.7c-1.3,0-2.4,0.2-3.3,0.7c-0.9,0.5-1.6,1-2.1,1.7c-0.5,0.7-0.9,1.4-1.1,2.1c-0.2,0.7-0.3,1.4-0.4,2h13.6
		C89.9,134.9,89.2,133.3,88.2,132.2z"/>
	<path d="M112.6,148.2c1.3,1.2,3.1,1.8,5.4,1.8c1.7,0,3.1-0.4,4.4-1.3c1.2-0.8,2-1.7,2.2-2.7h7.4c-1.2,3.7-3,6.3-5.4,7.8
		c-2.4,1.6-5.4,2.4-8.8,2.4c-2.4,0-4.6-0.4-6.5-1.1c-1.9-0.8-3.6-1.9-4.9-3.3c-1.3-1.4-2.4-3.1-3.1-5.1c-0.7-2-1.1-4.1-1.1-6.5
		c0-2.3,0.4-4.4,1.1-6.4c0.7-2,1.8-3.7,3.2-5.1c1.4-1.4,3-2.6,4.9-3.4c1.9-0.8,4-1.2,6.3-1.2c2.6,0,4.9,0.5,6.8,1.5
		c1.9,1,3.5,2.4,4.7,4c1.2,1.7,2.1,3.6,2.7,5.8c0.6,2.2,0.7,4.4,0.6,6.8h-22C110.7,145,111.3,147,112.6,148.2z M122.1,132.2
		c-1-1.1-2.5-1.7-4.6-1.7c-1.3,0-2.4,0.2-3.3,0.7c-0.9,0.5-1.6,1-2.1,1.7c-0.5,0.7-0.9,1.4-1.1,2.1c-0.2,0.7-0.3,1.4-0.4,2h13.6
		C123.8,134.9,123.1,133.3,122.1,132.2z"/>
	<path d="M145.5,125v3.9h0.1c1-1.7,2.3-2.9,3.9-3.6c1.6-0.7,3.3-1.1,5.2-1.1c2.4,0,4.5,0.5,6.2,1.4c1.7,0.9,3.2,2.1,4.3,3.6
		c1.1,1.5,2,3.2,2.5,5.2c0.5,2,0.8,4.1,0.8,6.2c0,2-0.3,4-0.8,5.9c-0.6,1.9-1.4,3.6-2.5,5c-1.1,1.5-2.5,2.6-4.2,3.5
		c-1.7,0.9-3.6,1.3-5.9,1.3c-1.9,0-3.6-0.4-5.2-1.1c-1.6-0.8-2.9-1.9-3.9-3.4h-0.1v14.5h-8.4V125H145.5z M156.3,149.2
		c0.9-0.6,1.7-1.3,2.2-2.2c0.6-0.9,1-1.9,1.2-3.1c0.2-1.2,0.4-2.4,0.4-3.6c0-1.2-0.1-2.4-0.4-3.6c-0.3-1.2-0.7-2.2-1.3-3.2
		c-0.6-0.9-1.3-1.7-2.3-2.2c-0.9-0.6-2.1-0.9-3.4-0.9c-1.4,0-2.5,0.3-3.5,0.9c-0.9,0.6-1.7,1.3-2.2,2.2c-0.6,0.9-1,1.9-1.2,3.1
		s-0.4,2.4-0.4,3.7c0,1.2,0.1,2.4,0.4,3.6s0.7,2.2,1.2,3.1c0.6,0.9,1.3,1.6,2.3,2.2c0.9,0.6,2.1,0.8,3.4,0.8
		C154.3,150,155.4,149.7,156.3,149.2z"/>
</g>
<g>
	<path d="M55.1,181.7c-0.6-0.9-1.2-1.7-2.1-2.3c-0.8-0.7-1.8-1.2-2.8-1.6c-1-0.4-2.1-0.6-3.3-0.6c-2.1,0-3.9,0.4-5.3,1.2
		c-1.5,0.8-2.6,1.9-3.5,3.2c-0.9,1.4-1.6,2.9-2,4.6c-0.4,1.7-0.6,3.5-0.6,5.4c0,1.8,0.2,3.5,0.6,5.2c0.4,1.7,1.1,3.2,2,4.5
		c0.9,1.3,2.1,2.4,3.5,3.2c1.5,0.8,3.2,1.2,5.3,1.2c2.8,0,5-0.9,6.6-2.6c1.6-1.7,2.6-4,2.9-6.8h9c-0.2,2.6-0.8,5-1.8,7.1
		c-1,2.1-2.3,3.9-3.9,5.4c-1.6,1.5-3.5,2.6-5.7,3.4c-2.2,0.8-4.5,1.2-7.1,1.2c-3.2,0-6.1-0.6-8.7-1.7c-2.6-1.1-4.7-2.7-6.5-4.6
		c-1.8-2-3.1-4.3-4.1-6.9s-1.4-5.5-1.4-8.6c0-3.1,0.5-6.1,1.4-8.8c0.9-2.7,2.3-5,4.1-7c1.8-2,3.9-3.6,6.5-4.7
		c2.6-1.1,5.5-1.7,8.7-1.7c2.3,0,4.5,0.3,6.6,1c2.1,0.7,3.9,1.6,5.5,2.9c1.6,1.3,3,2.9,4,4.7c1.1,1.9,1.7,4.1,2,6.5h-9
		C56,183.6,55.6,182.6,55.1,181.7z"/>
	<path d="M92.8,170.5l15.7,42.1h-9.6l-3.2-9.4H80l-3.3,9.4h-9.3l15.9-42.1H92.8z M93.3,196.3L88,180.9h-0.1l-5.5,15.5H93.3z"/>
	<path d="M121.5,170.5v34.3H142v7.8h-29.8v-42.1H121.5z"/>
	<path d="M160.2,170.5l9.9,29h0.1l9.3-29h13v42.1h-8.7v-29.8h-0.1l-10.3,29.8h-7.1L156,183.1h-0.1v29.6h-8.7v-42.1H160.2z"/>
</g>
</svg>
