<?xml version="1.0" encoding="utf-8"?>
<!-- Generator: Adobe Illustrator 25.4.1, SVG Export Plug-In . SVG Version: 6.00 Build 0)  -->
<svg version="1.1" id="Layer_1" xmlns="http://www.w3.org/2000/svg" xmlns:xlink="http://www.w3.org/1999/xlink" x="0px" y="0px"
	 viewBox="0 0 300 600" style="enable-background:new 0 0 300 600;" xml:space="preserve">
<style type="text/css">
	.st0{clip-path:url(#SVGID_00000062156475601145390170000011718032854135778469_);fill:#349946;}
	.st1{fill:#FFFFFF;}
</style>
<g>
	<defs>
		<rect id="SVGID_1_" x="42.9" y="377.4" width="214.2" height="45.1"/>
	</defs>
	<clipPath id="SVGID_00000104703593955259564290000007736475073773314728_">
		<use xlink:href="#SVGID_1_"  style="overflow:visible;"/>
	</clipPath>
	<path style="clip-path:url(#SVGID_00000104703593955259564290000007736475073773314728_);fill:#349946;" d="M257.1,400
		c0,12.4-11.7,22.6-25.9,22.6H68.9c-14.3,0-25.9-10.2-25.9-22.6s11.7-22.6,25.9-22.6h162.3C245.4,377.4,257.1,387.6,257.1,400"/>
</g>
<g>
	<path class="st1" d="M88.8,407.7l-2.4-9.8h0l-2.4,9.8h-3.2l-3.8-14.4h3.2l2.3,9.8h0l2.5-9.8h3l2.5,9.9h0l2.4-9.9h3.1L92,407.7H88.8
		z"/>
	<path class="st1" d="M104,393.3l5.4,14.4h-3.3l-1.1-3.2h-5.4l-1.1,3.2h-3.2l5.4-14.4H104z M104.2,402.1l-1.8-5.3h0l-1.9,5.3H104.2z
		"/>
</g>
<g>
	<path class="st1" d="M107.6,395.9v-2.7h11.8v2.7h-4.3v11.7h-3.2v-11.7H107.6z"/>
	<path class="st1" d="M130.3,397.1c-0.2-0.3-0.4-0.6-0.7-0.8c-0.3-0.2-0.6-0.4-1-0.5c-0.4-0.1-0.7-0.2-1.1-0.2
		c-0.7,0-1.3,0.1-1.8,0.4c-0.5,0.3-0.9,0.6-1.2,1.1s-0.5,1-0.7,1.6c-0.1,0.6-0.2,1.2-0.2,1.8c0,0.6,0.1,1.2,0.2,1.8
		c0.1,0.6,0.4,1.1,0.7,1.5s0.7,0.8,1.2,1.1s1.1,0.4,1.8,0.4c1,0,1.7-0.3,2.3-0.9c0.5-0.6,0.9-1.4,1-2.3h3.1
		c-0.1,0.9-0.3,1.7-0.6,2.4c-0.3,0.7-0.8,1.3-1.3,1.9s-1.2,0.9-1.9,1.2c-0.7,0.3-1.6,0.4-2.4,0.4c-1.1,0-2.1-0.2-3-0.6
		c-0.9-0.4-1.6-0.9-2.2-1.6c-0.6-0.7-1.1-1.5-1.4-2.4c-0.3-0.9-0.5-1.9-0.5-2.9c0-1.1,0.2-2.1,0.5-3s0.8-1.7,1.4-2.4
		s1.3-1.2,2.2-1.6c0.9-0.4,1.9-0.6,3-0.6c0.8,0,1.5,0.1,2.2,0.3c0.7,0.2,1.3,0.6,1.9,1c0.6,0.4,1,1,1.4,1.6c0.4,0.6,0.6,1.4,0.7,2.2
		h-3.1C130.6,397.7,130.5,397.4,130.3,397.1z"/>
	<path class="st1" d="M139.2,393.3v5.5h5.8v-5.5h3.2v14.4H145v-6.2h-5.8v6.2H136v-14.4H139.2z"/>
	<path class="st1" d="M165.3,407.7l-4.7-14.4h3.2l3.2,10.1h0l3.2-10.1h3.3l-4.8,14.4H165.3z"/>
	<path class="st1" d="M178.1,393.3v14.4h-3.2v-14.4H178.1z"/>
	<path class="st1" d="M187,393.3c0.9,0,1.8,0.1,2.6,0.4c0.8,0.3,1.5,0.7,2.1,1.3c0.6,0.6,1,1.3,1.4,2.2c0.3,0.9,0.5,1.9,0.5,3.1
		c0,1-0.1,2-0.4,2.9c-0.3,0.9-0.7,1.7-1.2,2.3s-1.2,1.2-2,1.5c-0.8,0.4-1.8,0.6-2.9,0.6h-6.2v-14.4H187z M186.8,405
		c0.5,0,0.9-0.1,1.3-0.2c0.4-0.1,0.8-0.4,1.1-0.7s0.6-0.8,0.8-1.3c0.2-0.6,0.3-1.2,0.3-2c0-0.7-0.1-1.4-0.2-2
		c-0.1-0.6-0.4-1.1-0.7-1.5s-0.8-0.7-1.3-1c-0.5-0.2-1.2-0.3-2-0.3H184v9.1H186.8z"/>
	<path class="st1" d="M206.5,393.3v2.7h-7.6v3.1h7v2.5h-7v3.5h7.8v2.7h-10.9v-14.4H206.5z"/>
	<path class="st1" d="M208.7,397.5c0.3-0.9,0.8-1.7,1.4-2.4c0.6-0.7,1.3-1.2,2.2-1.6s1.9-0.6,3-0.6c1.1,0,2.1,0.2,3,0.6
		c0.9,0.4,1.6,0.9,2.2,1.6c0.6,0.7,1.1,1.5,1.4,2.4c0.3,0.9,0.5,1.9,0.5,3c0,1-0.2,2-0.5,2.9c-0.3,0.9-0.8,1.7-1.4,2.4
		c-0.6,0.7-1.3,1.2-2.2,1.6c-0.9,0.4-1.9,0.6-3,0.6c-1.1,0-2.1-0.2-3-0.6c-0.9-0.4-1.6-0.9-2.2-1.6c-0.6-0.7-1.1-1.5-1.4-2.4
		c-0.3-0.9-0.5-1.9-0.5-2.9C208.2,399.4,208.4,398.4,208.7,397.5z M211.6,402.3c0.1,0.6,0.4,1.1,0.7,1.5c0.3,0.5,0.7,0.8,1.2,1.1
		c0.5,0.3,1.1,0.4,1.8,0.4s1.3-0.1,1.8-0.4c0.5-0.3,0.9-0.6,1.2-1.1s0.5-1,0.7-1.5c0.1-0.6,0.2-1.2,0.2-1.8c0-0.6-0.1-1.2-0.2-1.8
		c-0.1-0.6-0.4-1.1-0.7-1.6s-0.7-0.8-1.2-1.1c-0.5-0.3-1.1-0.4-1.8-0.4s-1.3,0.1-1.8,0.4c-0.5,0.3-0.9,0.6-1.2,1.1
		c-0.3,0.5-0.5,1-0.7,1.6c-0.1,0.6-0.2,1.2-0.2,1.8C211.4,401.1,211.5,401.7,211.6,402.3z"/>
</g>
</svg>
