<?xml version="1.0" encoding="utf-8"?>
<!-- Generator: Adobe Illustrator 25.4.1, SVG Export Plug-In . SVG Version: 6.00 Build 0)  -->
<svg version="1.1" id="Layer_1" xmlns="http://www.w3.org/2000/svg" xmlns:xlink="http://www.w3.org/1999/xlink" x="0px" y="0px"
	 viewBox="0 0 300 600" style="enable-background:new 0 0 300 600;" xml:space="preserve">
<style type="text/css">
	.st0{clip-path:url(#SVGID_00000080208720657089196390000017893742630620675970_);fill:#231F20;}
	.st1{clip-path:url(#SVGID_00000080208720657089196390000017893742630620675970_);fill:#22B0E6;}
</style>
<g>
	<defs>
		<rect id="SVGID_1_" x="106" y="465" width="88" height="29.9"/>
	</defs>
	<clipPath id="SVGID_00000043438573249398817710000002017417995260622757_">
		<use xlink:href="#SVGID_1_"  style="overflow:visible;"/>
	</clipPath>
	<path style="clip-path:url(#SVGID_00000043438573249398817710000002017417995260622757_);fill:#231F20;" d="M106.6,481h4.7
		c3.7,0,4.5,2.4,4.5,4.1c0,1.6-0.7,4-4.5,4h-2.4v5h-2.3V481z M108.9,487.2h2.3c1,0,2.3-0.5,2.3-2.2c0-1.7-1-2.2-2.3-2.2h-2.3V487.2z
		"/>
	<path style="clip-path:url(#SVGID_00000043438573249398817710000002017417995260622757_);fill:#231F20;" d="M117.2,484.7h2v1.8h0
		c0.2-1,1.5-2.1,2.8-2.1c0.5,0,0.6,0,0.8,0.1v2c-0.3,0-0.6-0.1-0.9-0.1c-1.4,0-2.6,1.2-2.6,3.3v4.5h-2.1V484.7z"/>
	<path style="clip-path:url(#SVGID_00000043438573249398817710000002017417995260622757_);fill:#231F20;" d="M123,489.4
		c0-2.9,1.7-5,4.8-5c3.1,0,4.8,2.1,4.8,5c0,2.9-1.7,5-4.8,5C124.7,494.4,123,492.3,123,489.4 M130.5,489.4c0-1.6-0.8-3.3-2.7-3.3
		c-1.9,0-2.7,1.7-2.7,3.3c0,1.7,0.8,3.4,2.7,3.4C129.7,492.8,130.5,491,130.5,489.4"/>
	<path style="clip-path:url(#SVGID_00000043438573249398817710000002017417995260622757_);fill:#231F20;" d="M132.9,484.7h1.7v-2.8
		h2v2.8h1.9v1.6h-1.9v5.1c0,0.9,0.1,1.3,1,1.3c0.3,0,0.6,0,0.9-0.1v1.6c-0.5,0-0.9,0.1-1.4,0.1c-2.2,0-2.6-0.8-2.6-2.4v-5.6h-1.6
		V484.7z"/>
	<path style="clip-path:url(#SVGID_00000043438573249398817710000002017417995260622757_);fill:#231F20;" d="M141.5,489.9
		c0,1.5,0.8,2.8,2.6,2.8c1.2,0,1.9-0.5,2.3-1.6h2c-0.5,2.1-2.2,3.2-4.3,3.2c-3,0-4.6-2.1-4.6-5c0-2.7,1.8-5,4.6-5
		c3,0,4.8,2.7,4.5,5.5H141.5z M146.3,488.6c-0.1-1.3-1-2.5-2.4-2.5c-1.5,0-2.4,1.1-2.5,2.5H146.3z"/>
	<path style="clip-path:url(#SVGID_00000043438573249398817710000002017417995260622757_);fill:#231F20;" d="M156.3,487.8
		c-0.2-1.2-1-1.8-2.2-1.8c-1.1,0-2.6,0.6-2.6,3.5c0,1.6,0.7,3.3,2.5,3.3c1.2,0,2.1-0.8,2.3-2.2h2.1c-0.4,2.5-1.9,3.8-4.4,3.8
		c-3,0-4.6-2.1-4.6-4.9c0-2.9,1.6-5.1,4.7-5.1c2.2,0,4.1,1.1,4.3,3.4H156.3z"/>
	<path style="clip-path:url(#SVGID_00000043438573249398817710000002017417995260622757_);fill:#231F20;" d="M159,484.7h1.6v-2.8
		h2.1v2.8h1.9v1.6h-1.9v5.1c0,0.9,0.1,1.3,1,1.3c0.3,0,0.6,0,0.9-0.1v1.6c-0.5,0-0.9,0.1-1.4,0.1c-2.2,0-2.6-0.8-2.6-2.4v-5.6H159
		V484.7z"/>
	<path style="clip-path:url(#SVGID_00000043438573249398817710000002017417995260622757_);fill:#231F20;" d="M167,481h2.1v2H167V481
		z M167,484.7h2.1v9.5H167V484.7z"/>
	<polygon style="clip-path:url(#SVGID_00000043438573249398817710000002017417995260622757_);fill:#231F20;" points="170.6,484.7 
		172.9,484.7 175.8,491.9 175.8,491.9 178.7,484.7 180.9,484.7 176.9,494.1 174.6,494.1 	"/>
	<path style="clip-path:url(#SVGID_00000043438573249398817710000002017417995260622757_);fill:#231F20;" d="M183.5,489.9
		c0,1.5,0.8,2.8,2.6,2.8c1.2,0,1.9-0.5,2.3-1.6h2c-0.5,2.1-2.2,3.2-4.3,3.2c-3,0-4.6-2.1-4.6-5c0-2.7,1.8-5,4.6-5
		c3,0,4.8,2.7,4.5,5.5H183.5z M188.4,488.6c-0.1-1.3-1-2.5-2.4-2.5c-1.5,0-2.4,1.1-2.5,2.5H188.4z"/>
	<path style="clip-path:url(#SVGID_00000043438573249398817710000002017417995260622757_);fill:#22B0E6;" d="M163,478.9
		c-1.4-5.2-5.5-9.3-10.7-10.6c-0.5-1.6-2-2.8-3.7-2.8c-1.8,0-3.3,1.2-3.7,2.8c-5.2,1.3-9.3,5.4-10.7,10.6l-0.2,0.6h3.2l0.1-0.3
		c1.2-3.8,4.2-6.7,8-7.8c0.7,1.2,1.9,1.9,3.4,1.9c1.4,0,2.7-0.8,3.4-1.9c3.8,1.1,6.8,4,8,7.8l0.1,0.3h3.2L163,478.9z"/>
	<path style="clip-path:url(#SVGID_00000043438573249398817710000002017417995260622757_);fill:#231F20;" d="M192.6,492.5
		c0.5,0,0.9,0.4,0.9,0.9c0,0.5-0.4,0.9-0.9,0.9c-0.5,0-0.9-0.4-0.9-0.9C191.7,493,192.1,492.5,192.6,492.5 M193.4,493.5
		c0-0.4-0.3-0.8-0.8-0.8c-0.4,0-0.8,0.3-0.8,0.8c0,0.4,0.3,0.8,0.8,0.8C193.1,494.3,193.4,493.9,193.4,493.5 M192.3,492.9h0.4
		c0.2,0,0.4,0.1,0.4,0.3c0,0.2-0.1,0.3-0.3,0.3l0.3,0.5h-0.2l-0.3-0.5h-0.2v0.5h-0.2V492.9z M192.6,493.4c0.2,0,0.3,0,0.3-0.2
		c0-0.1-0.1-0.2-0.2-0.2h-0.2v0.3H192.6z"/>
</g>
</svg>
