<?xml version="1.0" encoding="utf-8"?>
<!-- Generator: Adobe Illustrator 26.3.1, SVG Export Plug-In . SVG Version: 6.00 Build 0)  -->
<svg version="1.1" id="Layer_1" xmlns="http://www.w3.org/2000/svg" xmlns:xlink="http://www.w3.org/1999/xlink" x="0px" y="0px"
	 viewBox="0 0 320 50" style="enable-background:new 0 0 320 50;" xml:space="preserve">
<style type="text/css">
	.st0{fill:#339933;}
	.st1{fill:#231F20;}
</style>
<g>
	<path class="st0" d="M13.8,13.2v3.7h3.9v-3.7h2.1v9.7h-2.1v-4.2h-3.9v4.2h-2.1v-9.7H13.8z"/>
	<path class="st0" d="M21.4,18c0-0.5,0.1-0.8,0.3-1.1c0.2-0.3,0.5-0.5,0.8-0.7c0.3-0.2,0.7-0.3,1-0.4c0.4-0.1,0.8-0.1,1.2-0.1
		c0.4,0,0.7,0,1.1,0.1c0.4,0,0.7,0.1,1,0.3c0.3,0.1,0.5,0.3,0.7,0.6c0.2,0.3,0.3,0.6,0.3,1v3.6c0,0.3,0,0.6,0.1,0.9
		c0,0.3,0.1,0.5,0.2,0.6H26c0-0.1-0.1-0.2-0.1-0.3s0-0.2,0-0.3c-0.3,0.3-0.7,0.5-1.1,0.7C24.4,23,24,23,23.6,23
		c-0.3,0-0.6,0-0.9-0.1c-0.3-0.1-0.5-0.2-0.8-0.4c-0.2-0.2-0.4-0.4-0.5-0.6c-0.1-0.3-0.2-0.6-0.2-0.9c0-0.4,0.1-0.7,0.2-1
		s0.3-0.5,0.5-0.6c0.2-0.2,0.5-0.3,0.8-0.3c0.3-0.1,0.6-0.1,0.9-0.2s0.6-0.1,0.9-0.1c0.3,0,0.5-0.1,0.7-0.1c0.2-0.1,0.4-0.1,0.5-0.2
		c0.1-0.1,0.2-0.3,0.2-0.5c0-0.2,0-0.4-0.1-0.5c-0.1-0.1-0.2-0.2-0.3-0.3c-0.1-0.1-0.2-0.1-0.4-0.1c-0.1,0-0.3,0-0.5,0
		c-0.4,0-0.7,0.1-0.9,0.2s-0.3,0.4-0.4,0.8H21.4z M25.8,19.4c-0.1,0.1-0.2,0.1-0.3,0.2c-0.1,0-0.3,0.1-0.4,0.1c-0.1,0-0.3,0-0.4,0.1
		s-0.3,0-0.5,0.1c-0.1,0-0.3,0.1-0.4,0.1c-0.1,0-0.3,0.1-0.4,0.2c-0.1,0.1-0.2,0.2-0.3,0.3c-0.1,0.1-0.1,0.3-0.1,0.4
		c0,0.2,0,0.3,0.1,0.4s0.1,0.2,0.3,0.3c0.1,0.1,0.2,0.1,0.4,0.1c0.1,0,0.3,0,0.4,0c0.4,0,0.7-0.1,0.9-0.2c0.2-0.1,0.4-0.3,0.5-0.5
		s0.2-0.4,0.2-0.5c0-0.2,0-0.3,0-0.4V19.4z"/>
	<path class="st0" d="M31,22.8l-2.4-7h2l1.5,4.8h0l1.5-4.8h1.9l-2.4,7H31z"/>
	<path class="st0" d="M38.3,21.2c0.3,0.3,0.7,0.4,1.2,0.4c0.4,0,0.7-0.1,1-0.3c0.3-0.2,0.5-0.4,0.5-0.6h1.7
		c-0.3,0.8-0.7,1.4-1.2,1.8s-1.2,0.5-2,0.5c-0.5,0-1-0.1-1.5-0.3c-0.4-0.2-0.8-0.4-1.1-0.8c-0.3-0.3-0.5-0.7-0.7-1.2
		c-0.2-0.5-0.2-0.9-0.2-1.5c0-0.5,0.1-1,0.3-1.5c0.2-0.5,0.4-0.8,0.7-1.2c0.3-0.3,0.7-0.6,1.1-0.8c0.4-0.2,0.9-0.3,1.5-0.3
		c0.6,0,1.1,0.1,1.6,0.3c0.4,0.2,0.8,0.5,1.1,0.9c0.3,0.4,0.5,0.8,0.6,1.3c0.1,0.5,0.2,1,0.1,1.6h-5C37.9,20.4,38,20.9,38.3,21.2z
		 M40.5,17.5c-0.2-0.3-0.6-0.4-1-0.4c-0.3,0-0.6,0.1-0.8,0.2c-0.2,0.1-0.4,0.2-0.5,0.4c-0.1,0.2-0.2,0.3-0.3,0.5
		c0,0.2-0.1,0.3-0.1,0.5H41C40.9,18.1,40.7,17.7,40.5,17.5z"/>
	<path class="st0" d="M46.9,13.2h2.4l2.3,3.8l2.2-3.8h2.4l-3.6,5.9v3.7h-2.1v-3.8L46.9,13.2z"/>
	<path class="st0" d="M56.9,16.1c0.2-0.6,0.5-1.2,0.9-1.6c0.4-0.5,0.9-0.8,1.5-1.1c0.6-0.3,1.3-0.4,2-0.4c0.7,0,1.4,0.1,2,0.4
		c0.6,0.3,1.1,0.6,1.5,1.1c0.4,0.5,0.7,1,0.9,1.6s0.3,1.3,0.3,2c0,0.7-0.1,1.4-0.3,2c-0.2,0.6-0.5,1.1-0.9,1.6
		c-0.4,0.5-0.9,0.8-1.5,1.1s-1.3,0.4-2,0.4c-0.7,0-1.4-0.1-2-0.4s-1.1-0.6-1.5-1.1c-0.4-0.5-0.7-1-0.9-1.6c-0.2-0.6-0.3-1.3-0.3-2
		C56.6,17.3,56.7,16.7,56.9,16.1z M58.8,19.2c0.1,0.4,0.2,0.7,0.5,1c0.2,0.3,0.5,0.6,0.8,0.7c0.3,0.2,0.7,0.3,1.2,0.3
		s0.9-0.1,1.2-0.3c0.3-0.2,0.6-0.4,0.8-0.7c0.2-0.3,0.4-0.7,0.5-1s0.1-0.8,0.1-1.2c0-0.4,0-0.8-0.1-1.2s-0.2-0.8-0.5-1.1
		c-0.2-0.3-0.5-0.6-0.8-0.7c-0.3-0.2-0.7-0.3-1.2-0.3s-0.9,0.1-1.2,0.3c-0.3,0.2-0.6,0.4-0.8,0.7c-0.2,0.3-0.4,0.7-0.5,1.1
		c-0.1,0.4-0.1,0.8-0.1,1.2C58.7,18.5,58.7,18.9,58.8,19.2z"/>
	<path class="st0" d="M74.6,22.1c-0.7,0.6-1.7,1-3,1c-1.3,0-2.3-0.3-3-0.9c-0.7-0.6-1.1-1.6-1.1-2.9v-6h2.1v6c0,0.3,0,0.5,0.1,0.8
		c0,0.3,0.1,0.5,0.3,0.7c0.1,0.2,0.3,0.4,0.6,0.5s0.6,0.2,1,0.2c0.8,0,1.3-0.2,1.6-0.5c0.3-0.3,0.4-0.9,0.4-1.6v-6h2.1v6
		C75.7,20.5,75.3,21.5,74.6,22.1z"/>
	<path class="st0" d="M82.7,13.2c0.4,0,0.8,0.1,1.2,0.2c0.3,0.1,0.6,0.3,0.9,0.6c0.2,0.2,0.4,0.5,0.6,0.8c0.1,0.3,0.2,0.7,0.2,1
		c0,0.6-0.1,1.1-0.4,1.5s-0.6,0.7-1.2,0.9v0c0.3,0.1,0.5,0.2,0.6,0.3c0.2,0.1,0.3,0.3,0.4,0.5c0.1,0.2,0.2,0.4,0.2,0.7
		s0.1,0.5,0.1,0.7c0,0.2,0,0.3,0,0.5c0,0.2,0,0.4,0,0.6s0.1,0.4,0.1,0.6c0,0.2,0.1,0.4,0.2,0.5h-2.1c-0.1-0.3-0.2-0.7-0.2-1.1
		c0-0.4-0.1-0.8-0.1-1.2c-0.1-0.5-0.2-0.9-0.5-1.1s-0.6-0.4-1.1-0.4h-2.1v3.8h-2.1v-9.7H82.7z M82,17.6c0.5,0,0.9-0.1,1.1-0.3
		c0.2-0.2,0.4-0.6,0.4-1.1c0-0.5-0.1-0.8-0.4-1c-0.2-0.2-0.6-0.3-1.1-0.3h-2.3v2.7H82z"/>
	<path class="st0" d="M97.2,15.8c-0.1-0.2-0.3-0.4-0.5-0.5c-0.2-0.2-0.4-0.3-0.6-0.4c-0.2-0.1-0.5-0.1-0.8-0.1
		c-0.5,0-0.9,0.1-1.2,0.3c-0.3,0.2-0.6,0.4-0.8,0.7c-0.2,0.3-0.4,0.7-0.5,1.1c-0.1,0.4-0.1,0.8-0.1,1.2c0,0.4,0,0.8,0.1,1.2
		c0.1,0.4,0.2,0.7,0.5,1c0.2,0.3,0.5,0.6,0.8,0.7c0.3,0.2,0.7,0.3,1.2,0.3c0.6,0,1.2-0.2,1.5-0.6c0.4-0.4,0.6-0.9,0.7-1.6h2.1
		c-0.1,0.6-0.2,1.1-0.4,1.6s-0.5,0.9-0.9,1.2s-0.8,0.6-1.3,0.8c-0.5,0.2-1,0.3-1.6,0.3c-0.7,0-1.4-0.1-2-0.4s-1.1-0.6-1.5-1.1
		c-0.4-0.5-0.7-1-0.9-1.6c-0.2-0.6-0.3-1.3-0.3-2c0-0.7,0.1-1.4,0.3-2s0.5-1.2,0.9-1.6c0.4-0.5,0.9-0.8,1.5-1.1
		c0.6-0.3,1.3-0.4,2-0.4c0.5,0,1,0.1,1.5,0.2c0.5,0.2,0.9,0.4,1.3,0.7c0.4,0.3,0.7,0.7,0.9,1.1s0.4,0.9,0.5,1.5h-2.1
		C97.4,16.2,97.4,16,97.2,15.8z"/>
	<path class="st0" d="M105.9,13.2l3.6,9.7h-2.2l-0.7-2.1h-3.6l-0.8,2.1H100l3.6-9.7H105.9z M106,19.1l-1.2-3.5h0l-1.3,3.5H106z"/>
	<path class="st0" d="M112.4,13.2v4l3.8-4h2.6l-3.8,3.8l4.1,5.8h-2.7l-2.9-4.3l-1.2,1.2v3.1h-2.1v-9.7H112.4z"/>
	<path class="st0" d="M127.3,13.2V15h-5.1V17h4.7v1.6h-4.7v2.4h5.2v1.8h-7.3v-9.7H127.3z"/>
</g>
<g>
	<path class="st1" d="M11.4,32c0-0.5,0.1-0.8,0.3-1.1c0.2-0.3,0.5-0.5,0.8-0.7c0.3-0.2,0.7-0.3,1-0.4c0.4-0.1,0.8-0.1,1.2-0.1
		c0.4,0,0.7,0,1.1,0.1c0.4,0,0.7,0.1,1,0.3c0.3,0.1,0.5,0.3,0.7,0.6c0.2,0.3,0.3,0.6,0.3,1v3.6c0,0.3,0,0.6,0.1,0.9
		c0,0.3,0.1,0.5,0.2,0.6H16c0-0.1-0.1-0.2-0.1-0.3s0-0.2,0-0.3c-0.3,0.3-0.7,0.5-1.1,0.7S14,37,13.5,37c-0.3,0-0.6,0-0.9-0.1
		c-0.3-0.1-0.5-0.2-0.8-0.4c-0.2-0.2-0.4-0.4-0.5-0.6c-0.1-0.3-0.2-0.6-0.2-0.9c0-0.4,0.1-0.7,0.2-1s0.3-0.5,0.5-0.6
		s0.5-0.3,0.8-0.3c0.3-0.1,0.6-0.1,0.9-0.2c0.3,0,0.6-0.1,0.9-0.1c0.3,0,0.5-0.1,0.7-0.1c0.2-0.1,0.4-0.1,0.5-0.2
		c0.1-0.1,0.2-0.3,0.2-0.5c0-0.2,0-0.4-0.1-0.5c-0.1-0.1-0.2-0.2-0.3-0.3C15.3,31.1,15.2,31,15,31c-0.1,0-0.3,0-0.5,0
		c-0.4,0-0.7,0.1-0.9,0.2c-0.2,0.2-0.3,0.4-0.4,0.8H11.4z M15.8,33.4c-0.1,0.1-0.2,0.1-0.3,0.2c-0.1,0-0.3,0.1-0.4,0.1
		c-0.1,0-0.3,0-0.4,0.1c-0.2,0-0.3,0-0.5,0.1c-0.1,0-0.3,0.1-0.4,0.1s-0.3,0.1-0.4,0.2c-0.1,0.1-0.2,0.2-0.3,0.3s-0.1,0.3-0.1,0.4
		c0,0.2,0,0.3,0.1,0.4s0.1,0.2,0.3,0.3c0.1,0.1,0.2,0.1,0.4,0.1c0.1,0,0.3,0,0.4,0c0.4,0,0.7-0.1,0.9-0.2c0.2-0.1,0.4-0.3,0.5-0.5
		c0.1-0.2,0.2-0.4,0.2-0.5c0-0.2,0-0.3,0-0.4V33.4z"/>
	<path class="st1" d="M20.9,29.9v1h0c0.2-0.4,0.6-0.7,0.9-0.9c0.4-0.2,0.8-0.3,1.2-0.3c0.5,0,0.9,0.1,1.3,0.2
		c0.3,0.1,0.6,0.3,0.8,0.6c0.2,0.2,0.3,0.5,0.4,0.9c0.1,0.4,0.1,0.8,0.1,1.2v4.3h-1.9v-3.9c0-0.6-0.1-1-0.3-1.3
		c-0.2-0.3-0.5-0.4-1-0.4c-0.5,0-0.9,0.2-1.1,0.5C21.1,32,21,32.5,21,33.2v3.7h-1.9v-7H20.9z"/>
	<path class="st1" d="M31.9,36c-0.2,0.4-0.5,0.7-0.9,0.8c-0.4,0.2-0.8,0.2-1.2,0.2c-0.5,0-1-0.1-1.4-0.3c-0.4-0.2-0.7-0.5-1-0.8
		c-0.3-0.3-0.5-0.7-0.6-1.2c-0.1-0.5-0.2-0.9-0.2-1.4c0-0.5,0.1-0.9,0.2-1.4s0.3-0.8,0.6-1.2c0.3-0.3,0.6-0.6,1-0.8
		c0.4-0.2,0.8-0.3,1.4-0.3c0.4,0,0.8,0.1,1.2,0.3s0.7,0.4,0.9,0.8h0v-3.5h1.9v9.7H32L31.9,36L31.9,36z M31.9,32.5
		c-0.1-0.3-0.1-0.5-0.3-0.7c-0.1-0.2-0.3-0.4-0.5-0.5c-0.2-0.1-0.5-0.2-0.8-0.2s-0.6,0.1-0.8,0.2c-0.2,0.1-0.4,0.3-0.5,0.5
		c-0.1,0.2-0.2,0.4-0.3,0.7c-0.1,0.3-0.1,0.5-0.1,0.8c0,0.3,0,0.5,0.1,0.8c0.1,0.3,0.2,0.5,0.3,0.7s0.3,0.4,0.5,0.5
		c0.2,0.1,0.5,0.2,0.8,0.2c0.3,0,0.6-0.1,0.8-0.2s0.4-0.3,0.5-0.5c0.1-0.2,0.2-0.5,0.3-0.7c0.1-0.3,0.1-0.5,0.1-0.8
		C31.9,33,31.9,32.8,31.9,32.5z"/>
	<path class="st1" d="M41.1,27.2v4l3.8-4h2.6L43.7,31l4.1,5.8h-2.7l-2.9-4.3l-1.2,1.2v3.1H39v-9.7H41.1z"/>
	<path class="st1" d="M55.8,27.2V29h-5.1V31h4.7v1.6h-4.7v2.4h5.2v1.8h-7.3v-9.7H55.8z"/>
	<path class="st1" d="M64.4,27.2V29h-5.1V31H64v1.6h-4.7v2.4h5.2v1.8h-7.3v-9.7H64.4z"/>
	<path class="st1" d="M70.2,27.2c0.6,0,1.1,0.1,1.5,0.3c0.4,0.2,0.8,0.4,1,0.7c0.3,0.3,0.5,0.6,0.6,1c0.1,0.4,0.2,0.8,0.2,1.1
		c0,0.4-0.1,0.8-0.2,1.1s-0.3,0.7-0.6,1c-0.3,0.3-0.6,0.5-1,0.7c-0.4,0.2-0.9,0.3-1.5,0.3H68v3.5h-2.1v-9.7H70.2z M69.6,31.7
		c0.2,0,0.5,0,0.7-0.1c0.2,0,0.4-0.1,0.6-0.2c0.2-0.1,0.3-0.2,0.4-0.4c0.1-0.2,0.2-0.4,0.2-0.7c0-0.3-0.1-0.6-0.2-0.7
		s-0.2-0.3-0.4-0.4c-0.2-0.1-0.4-0.2-0.6-0.2c-0.2,0-0.5-0.1-0.7-0.1H68v2.9H69.6z"/>
	<path class="st1" d="M80.7,38.9c-0.4,0.2-0.9,0.4-1.5,0.4c-0.2,0-0.4,0-0.6,0c-0.2,0-0.4,0-0.6,0v-1.6c0.2,0,0.4,0,0.6,0.1
		c0.2,0,0.4,0,0.6,0c0.3,0,0.4-0.1,0.6-0.3c0.1-0.2,0.2-0.4,0.2-0.6c0-0.2,0-0.3-0.1-0.4l-2.4-6.6h2l1.6,4.8h0l1.5-4.8h2l-2.9,7.9
		C81.4,38.3,81.1,38.7,80.7,38.9z"/>
	<path class="st1" d="M85.1,31.8c0.2-0.5,0.4-0.8,0.7-1.2c0.3-0.3,0.7-0.6,1.1-0.7s0.9-0.3,1.5-0.3c0.5,0,1,0.1,1.5,0.3
		c0.4,0.2,0.8,0.4,1.1,0.7c0.3,0.3,0.6,0.7,0.7,1.2c0.2,0.5,0.3,1,0.3,1.5s-0.1,1.1-0.3,1.5c-0.2,0.5-0.4,0.8-0.7,1.2
		c-0.3,0.3-0.7,0.6-1.1,0.7C89.5,36.9,89,37,88.4,37c-0.5,0-1-0.1-1.5-0.3s-0.8-0.4-1.1-0.7c-0.3-0.3-0.6-0.7-0.7-1.2
		c-0.2-0.5-0.3-1-0.3-1.5S84.9,32.3,85.1,31.8z M86.8,34.2c0.1,0.3,0.1,0.5,0.3,0.7c0.1,0.2,0.3,0.4,0.5,0.5s0.5,0.2,0.8,0.2
		s0.6-0.1,0.8-0.2c0.2-0.1,0.4-0.3,0.5-0.5c0.1-0.2,0.2-0.5,0.3-0.7c0.1-0.3,0.1-0.5,0.1-0.8s0-0.6-0.1-0.8
		c-0.1-0.3-0.1-0.5-0.3-0.7c-0.1-0.2-0.3-0.4-0.5-0.5c-0.2-0.1-0.5-0.2-0.8-0.2s-0.6,0.1-0.8,0.2c-0.2,0.1-0.4,0.3-0.5,0.5
		c-0.1,0.2-0.2,0.4-0.3,0.7s-0.1,0.5-0.1,0.8S86.8,33.9,86.8,34.2z"/>
	<path class="st1" d="M97.9,36.8v-1h0c-0.2,0.4-0.6,0.7-0.9,0.9c-0.4,0.2-0.8,0.3-1.2,0.3c-0.5,0-0.9-0.1-1.3-0.2
		c-0.3-0.1-0.6-0.3-0.8-0.6c-0.2-0.2-0.3-0.5-0.4-0.9c-0.1-0.4-0.1-0.8-0.1-1.2v-4.3h1.9v3.9c0,0.6,0.1,1,0.3,1.3
		c0.2,0.3,0.5,0.4,1,0.4c0.5,0,0.9-0.2,1.1-0.5s0.4-0.8,0.4-1.5v-3.7h1.9v7H97.9z"/>
	<path class="st1" d="M102.9,29.9v1.3h0c0.1-0.2,0.2-0.4,0.4-0.6c0.2-0.2,0.3-0.3,0.5-0.5c0.2-0.1,0.4-0.2,0.6-0.3s0.5-0.1,0.7-0.1
		c0.1,0,0.3,0,0.4,0.1v1.8c-0.1,0-0.2,0-0.3,0c-0.1,0-0.2,0-0.4,0c-0.4,0-0.6,0.1-0.9,0.2c-0.2,0.1-0.4,0.3-0.6,0.5
		c-0.1,0.2-0.3,0.4-0.3,0.7c-0.1,0.3-0.1,0.6-0.1,0.9v3.1h-1.9v-7H102.9z"/>
	<path class="st1" d="M109.9,28.8v-1.6h1.9v1.6H109.9z M111.8,29.9v7h-1.9v-7H111.8z"/>
	<path class="st1" d="M115,29.9v1h0c0.2-0.4,0.6-0.7,0.9-0.9c0.4-0.2,0.8-0.3,1.2-0.3c0.5,0,0.9,0.1,1.3,0.2
		c0.3,0.1,0.6,0.3,0.8,0.6c0.2,0.2,0.3,0.5,0.4,0.9c0.1,0.4,0.1,0.8,0.1,1.2v4.3h-1.9v-3.9c0-0.6-0.1-1-0.3-1.3
		c-0.2-0.3-0.5-0.4-1-0.4c-0.5,0-0.9,0.2-1.1,0.5c-0.2,0.3-0.4,0.8-0.4,1.5v3.7h-1.9v-7H115z"/>
	<path class="st1" d="M124.4,31.1c-0.3,0-0.6,0.1-0.8,0.2c-0.2,0.1-0.4,0.3-0.5,0.5c-0.1,0.2-0.2,0.5-0.3,0.7s-0.1,0.5-0.1,0.8
		c0,0.3,0,0.5,0.1,0.8c0.1,0.3,0.1,0.5,0.3,0.7c0.1,0.2,0.3,0.4,0.5,0.5c0.2,0.1,0.5,0.2,0.8,0.2c0.5,0,0.8-0.1,1.1-0.4
		s0.4-0.6,0.5-1h1.9c-0.1,0.9-0.5,1.6-1.1,2.1c-0.6,0.5-1.4,0.7-2.3,0.7c-0.5,0-1-0.1-1.4-0.3c-0.4-0.2-0.8-0.4-1.1-0.7
		c-0.3-0.3-0.5-0.7-0.7-1.1c-0.2-0.4-0.3-0.9-0.3-1.4c0-0.5,0.1-1,0.2-1.5s0.4-0.9,0.7-1.2c0.3-0.3,0.7-0.6,1.1-0.8
		c0.4-0.2,0.9-0.3,1.5-0.3c0.4,0,0.8,0.1,1.2,0.2c0.4,0.1,0.7,0.3,1,0.5c0.3,0.2,0.5,0.5,0.7,0.8c0.2,0.3,0.3,0.7,0.3,1.2h-1.9
		C125.7,31.5,125.2,31.1,124.4,31.1z"/>
	<path class="st1" d="M128.8,28.8v-1.6h1.9v1.6H128.8z M130.7,29.9v7h-1.9v-7H130.7z"/>
	<path class="st1" d="M133.7,35.1c0.1,0.1,0.2,0.3,0.3,0.4s0.3,0.2,0.5,0.2s0.4,0.1,0.5,0.1c0.1,0,0.3,0,0.4,0
		c0.1,0,0.3-0.1,0.4-0.1c0.1-0.1,0.2-0.2,0.3-0.3c0.1-0.1,0.1-0.3,0.1-0.4c0-0.3-0.2-0.5-0.6-0.6c-0.4-0.1-0.9-0.3-1.6-0.4
		c-0.3-0.1-0.6-0.1-0.8-0.2c-0.3-0.1-0.5-0.2-0.7-0.3c-0.2-0.1-0.4-0.3-0.5-0.5c-0.1-0.2-0.2-0.5-0.2-0.8c0-0.5,0.1-0.8,0.3-1.1
		c0.2-0.3,0.4-0.5,0.7-0.7c0.3-0.2,0.6-0.3,1-0.4s0.7-0.1,1.1-0.1s0.7,0,1.1,0.1s0.7,0.2,1,0.4s0.5,0.4,0.7,0.7
		c0.2,0.3,0.3,0.6,0.3,1.1h-1.8c0-0.4-0.2-0.6-0.4-0.8c-0.3-0.1-0.5-0.2-0.9-0.2c-0.1,0-0.2,0-0.4,0c-0.1,0-0.2,0-0.3,0.1
		s-0.2,0.1-0.3,0.2s-0.1,0.2-0.1,0.3c0,0.2,0.1,0.3,0.2,0.4c0.1,0.1,0.3,0.2,0.5,0.3c0.2,0.1,0.4,0.1,0.7,0.2
		c0.3,0.1,0.5,0.1,0.8,0.2c0.3,0.1,0.6,0.1,0.8,0.2s0.5,0.2,0.7,0.4c0.2,0.1,0.4,0.3,0.5,0.6c0.1,0.2,0.2,0.5,0.2,0.8
		c0,0.5-0.1,0.8-0.3,1.2c-0.2,0.3-0.4,0.6-0.7,0.8s-0.6,0.3-1,0.4c-0.4,0.1-0.8,0.1-1.2,0.1c-0.4,0-0.8,0-1.2-0.1
		c-0.4-0.1-0.7-0.2-1-0.4c-0.3-0.2-0.5-0.4-0.7-0.8s-0.3-0.7-0.3-1.2h1.8C133.6,34.8,133.6,35,133.7,35.1z"/>
	<path class="st1" d="M139.3,31.8c0.2-0.5,0.4-0.8,0.7-1.2c0.3-0.3,0.7-0.6,1.1-0.7s0.9-0.3,1.5-0.3c0.5,0,1,0.1,1.5,0.3
		c0.4,0.2,0.8,0.4,1.1,0.7c0.3,0.3,0.6,0.7,0.7,1.2c0.2,0.5,0.3,1,0.3,1.5s-0.1,1.1-0.3,1.5c-0.2,0.5-0.4,0.8-0.7,1.2
		c-0.3,0.3-0.7,0.6-1.1,0.7c-0.4,0.2-0.9,0.3-1.5,0.3c-0.5,0-1-0.1-1.5-0.3s-0.8-0.4-1.1-0.7c-0.3-0.3-0.6-0.7-0.7-1.2
		c-0.2-0.5-0.3-1-0.3-1.5S139.1,32.3,139.3,31.8z M141,34.2c0.1,0.3,0.1,0.5,0.3,0.7c0.1,0.2,0.3,0.4,0.5,0.5s0.5,0.2,0.8,0.2
		s0.6-0.1,0.8-0.2c0.2-0.1,0.4-0.3,0.5-0.5c0.1-0.2,0.2-0.5,0.3-0.7c0.1-0.3,0.1-0.5,0.1-0.8s0-0.6-0.1-0.8
		c-0.1-0.3-0.1-0.5-0.3-0.7c-0.1-0.2-0.3-0.4-0.5-0.5c-0.2-0.1-0.5-0.2-0.8-0.2s-0.6,0.1-0.8,0.2c-0.2,0.1-0.4,0.3-0.5,0.5
		c-0.1,0.2-0.2,0.4-0.3,0.7s-0.1,0.5-0.1,0.8S141,33.9,141,34.2z"/>
	<path class="st1" d="M149.2,29.9v1.3h0c0.1-0.2,0.2-0.4,0.4-0.6c0.2-0.2,0.3-0.3,0.5-0.5c0.2-0.1,0.4-0.2,0.6-0.3s0.5-0.1,0.7-0.1
		c0.1,0,0.3,0,0.4,0.1v1.8c-0.1,0-0.2,0-0.3,0c-0.1,0-0.2,0-0.4,0c-0.4,0-0.6,0.1-0.9,0.2c-0.2,0.1-0.4,0.3-0.6,0.5
		c-0.1,0.2-0.3,0.4-0.3,0.7c-0.1,0.3-0.1,0.6-0.1,0.9v3.1h-1.9v-7H149.2z"/>
	<path class="st1" d="M154.1,35.1c0.1,0.1,0.2,0.3,0.3,0.4s0.3,0.2,0.5,0.2s0.4,0.1,0.5,0.1c0.1,0,0.3,0,0.4,0
		c0.1,0,0.3-0.1,0.4-0.1c0.1-0.1,0.2-0.2,0.3-0.3c0.1-0.1,0.1-0.3,0.1-0.4c0-0.3-0.2-0.5-0.6-0.6c-0.4-0.1-0.9-0.3-1.6-0.4
		c-0.3-0.1-0.6-0.1-0.8-0.2c-0.3-0.1-0.5-0.2-0.7-0.3c-0.2-0.1-0.4-0.3-0.5-0.5c-0.1-0.2-0.2-0.5-0.2-0.8c0-0.5,0.1-0.8,0.3-1.1
		c0.2-0.3,0.4-0.5,0.7-0.7c0.3-0.2,0.6-0.3,1-0.4s0.7-0.1,1.1-0.1s0.7,0,1.1,0.1s0.7,0.2,1,0.4s0.5,0.4,0.7,0.7
		c0.2,0.3,0.3,0.6,0.3,1.1h-1.8c0-0.4-0.2-0.6-0.4-0.8c-0.3-0.1-0.6-0.2-0.9-0.2c-0.1,0-0.2,0-0.4,0c-0.1,0-0.2,0-0.3,0.1
		s-0.2,0.1-0.3,0.2s-0.1,0.2-0.1,0.3c0,0.2,0.1,0.3,0.2,0.4c0.1,0.1,0.3,0.2,0.5,0.3c0.2,0.1,0.4,0.1,0.7,0.2
		c0.3,0.1,0.5,0.1,0.8,0.2c0.3,0.1,0.6,0.1,0.8,0.2s0.5,0.2,0.7,0.4c0.2,0.1,0.4,0.3,0.5,0.6c0.1,0.2,0.2,0.5,0.2,0.8
		c0,0.5-0.1,0.8-0.3,1.2c-0.2,0.3-0.4,0.6-0.7,0.8s-0.6,0.3-1,0.4c-0.4,0.1-0.8,0.1-1.2,0.1c-0.4,0-0.8,0-1.2-0.1
		c-0.4-0.1-0.7-0.2-1-0.4c-0.3-0.2-0.5-0.4-0.7-0.8s-0.3-0.7-0.3-1.2h1.8C154,34.8,154,35,154.1,35.1z"/>
	<path class="st1" d="M161.8,34.8v2.1c0,0.3-0.1,0.6-0.2,0.8c-0.1,0.3-0.3,0.5-0.5,0.7c-0.2,0.2-0.4,0.3-0.7,0.5
		c-0.3,0.1-0.5,0.2-0.8,0.2v-1c0.1,0,0.3-0.1,0.4-0.2c0.1-0.1,0.2-0.2,0.3-0.3c0.1-0.1,0.2-0.2,0.2-0.4c0-0.1,0.1-0.3,0.1-0.4h-1
		v-2.1H161.8z"/>
	<path class="st1" d="M165,29v-1.8h7.9V29H170v7.9h-2.1V29H165z"/>
	<path class="st1" d="M173.8,30.1c0.2-0.6,0.5-1.2,0.9-1.6s0.9-0.8,1.5-1.1c0.6-0.3,1.3-0.4,2-0.4c0.7,0,1.4,0.1,2,0.4
		c0.6,0.3,1.1,0.6,1.5,1.1s0.7,1,0.9,1.6c0.2,0.6,0.3,1.3,0.3,2c0,0.7-0.1,1.4-0.3,2c-0.2,0.6-0.5,1.1-0.9,1.6
		c-0.4,0.5-0.9,0.8-1.5,1.1c-0.6,0.3-1.3,0.4-2,0.4c-0.7,0-1.4-0.1-2-0.4c-0.6-0.3-1.1-0.6-1.5-1.1c-0.4-0.5-0.7-1-0.9-1.6
		c-0.2-0.6-0.3-1.3-0.3-2C173.4,31.3,173.5,30.7,173.8,30.1z M175.7,33.2c0.1,0.4,0.2,0.7,0.5,1c0.2,0.3,0.5,0.6,0.8,0.7
		c0.3,0.2,0.7,0.3,1.2,0.3s0.9-0.1,1.2-0.3c0.3-0.2,0.6-0.4,0.8-0.7c0.2-0.3,0.4-0.7,0.5-1c0.1-0.4,0.1-0.8,0.1-1.2
		c0-0.4,0-0.8-0.1-1.2s-0.2-0.8-0.5-1.1c-0.2-0.3-0.5-0.6-0.8-0.7c-0.3-0.2-0.7-0.3-1.2-0.3s-0.9,0.1-1.2,0.3
		c-0.3,0.2-0.6,0.4-0.8,0.7c-0.2,0.3-0.4,0.7-0.5,1.1s-0.1,0.8-0.1,1.2C175.6,32.5,175.6,32.9,175.7,33.2z"/>
	<path class="st1" d="M184.2,30.1c0.2-0.6,0.5-1.2,0.9-1.6s0.9-0.8,1.5-1.1c0.6-0.3,1.3-0.4,2-0.4c0.7,0,1.4,0.1,2,0.4
		c0.6,0.3,1.1,0.6,1.5,1.1s0.7,1,0.9,1.6c0.2,0.6,0.3,1.3,0.3,2c0,0.7-0.1,1.4-0.3,2c-0.2,0.6-0.5,1.1-0.9,1.6
		c-0.4,0.5-0.9,0.8-1.5,1.1c-0.6,0.3-1.3,0.4-2,0.4c-0.7,0-1.4-0.1-2-0.4c-0.6-0.3-1.1-0.6-1.5-1.1c-0.4-0.5-0.7-1-0.9-1.6
		c-0.2-0.6-0.3-1.3-0.3-2C183.8,31.3,183.9,30.7,184.2,30.1z M186.1,33.2c0.1,0.4,0.2,0.7,0.5,1c0.2,0.3,0.5,0.6,0.8,0.7
		c0.3,0.2,0.7,0.3,1.2,0.3s0.9-0.1,1.2-0.3c0.3-0.2,0.6-0.4,0.8-0.7c0.2-0.3,0.4-0.7,0.5-1c0.1-0.4,0.1-0.8,0.1-1.2
		c0-0.4,0-0.8-0.1-1.2s-0.2-0.8-0.5-1.1c-0.2-0.3-0.5-0.6-0.8-0.7c-0.3-0.2-0.7-0.3-1.2-0.3s-0.9,0.1-1.2,0.3
		c-0.3,0.2-0.6,0.4-0.8,0.7c-0.2,0.3-0.4,0.7-0.5,1.1s-0.1,0.8-0.1,1.2C186,32.5,186,32.9,186.1,33.2z"/>
</g>
</svg>
