<?xml version="1.0" encoding="utf-8"?>
<!-- Generator: Adobe Illustrator 26.3.1, SVG Export Plug-In . SVG Version: 6.00 Build 0)  -->
<svg version="1.1" id="Layer_1" xmlns="http://www.w3.org/2000/svg" xmlns:xlink="http://www.w3.org/1999/xlink" x="0px" y="0px"
	 viewBox="0 0 320 50" style="enable-background:new 0 0 320 50;" xml:space="preserve">
<style type="text/css">
	.st0{clip-path:url(#SVGID_00000039822391982353730180000004499706426595745965_);fill:#349946;}
	.st1{fill:#FFFFFF;}
</style>
<g>
	<defs>
		<rect id="SVGID_1_" x="224.4" y="10.2" width="76.5" height="16.1"/>
	</defs>
	<clipPath id="SVGID_00000034062191974971639450000017830468314120766608_">
		<use xlink:href="#SVGID_1_"  style="overflow:visible;"/>
	</clipPath>
	<path style="clip-path:url(#SVGID_00000034062191974971639450000017830468314120766608_);fill:#349946;" d="M300.9,18.2
		c0,4.4-4.2,8.1-9.3,8.1h-57.9c-5.1,0-9.3-3.6-9.3-8.1s4.2-8.1,9.3-8.1h57.9C296.7,10.2,300.9,13.8,300.9,18.2"/>
</g>
<g>
	<path class="st1" d="M242.2,21l-1.7-5.1h1.2l1.1,3.6h0l1.2-3.6h1.2l-1.7,5.1H242.2z"/>
	<path class="st1" d="M246.8,15.8V21h-1.1v-5.1H246.8z"/>
	<path class="st1" d="M251.6,15.8v1h-2.7v1.1h2.5v0.9h-2.5V20h2.8v1h-3.9v-5.1H251.6z"/>
	<path class="st1" d="M256.2,21l-0.9-3.5h0l-0.9,3.5h-1.1l-1.4-5.1h1.1l0.8,3.5h0l0.9-3.5h1.1l0.9,3.5h0l0.8-3.5h1.1l-1.4,5.1H256.2
		z"/>
	<path class="st1" d="M263.5,15.8c0.3,0,0.6,0,0.8,0.1s0.4,0.2,0.6,0.4c0.1,0.2,0.2,0.3,0.3,0.5c0.1,0.2,0.1,0.4,0.1,0.6
		c0,0.2,0,0.4-0.1,0.6c-0.1,0.2-0.2,0.4-0.3,0.5c-0.1,0.2-0.3,0.3-0.6,0.4s-0.5,0.1-0.8,0.1h-1.2V21h-1.1v-5.1H263.5z M263.2,18.2
		c0.1,0,0.3,0,0.4,0c0.1,0,0.2-0.1,0.3-0.1c0.1-0.1,0.2-0.1,0.2-0.2c0.1-0.1,0.1-0.2,0.1-0.4s0-0.3-0.1-0.4
		c-0.1-0.1-0.1-0.2-0.2-0.2c-0.1-0.1-0.2-0.1-0.3-0.1s-0.2,0-0.4,0h-0.9v1.5H263.2z"/>
	<path class="st1" d="M267.2,15.8V20h2.5v1H266v-5.1H267.2z"/>
	<path class="st1" d="M272.9,15.8l1.9,5.1h-1.2l-0.4-1.1h-1.9l-0.4,1.1h-1.1l1.9-5.1H272.9z M272.9,19l-0.6-1.9h0l-0.7,1.9H272.9z"
		/>
	<path class="st1" d="M276.3,15.8l2.1,3.4h0v-3.4h1.1V21h-1.1l-2.1-3.4h0V21h-1.1v-5.1H276.3z"/>
	<path class="st1" d="M281.4,19.7c0.1,0.1,0.1,0.2,0.2,0.3c0.1,0.1,0.2,0.1,0.4,0.2c0.1,0,0.3,0.1,0.4,0.1c0.1,0,0.2,0,0.3,0
		c0.1,0,0.2,0,0.3-0.1c0.1,0,0.2-0.1,0.3-0.2c0.1-0.1,0.1-0.2,0.1-0.3c0-0.1,0-0.3-0.1-0.3s-0.2-0.2-0.3-0.2
		c-0.1-0.1-0.3-0.1-0.5-0.2c-0.2,0-0.4-0.1-0.6-0.1c-0.2,0-0.4-0.1-0.6-0.2c-0.2-0.1-0.3-0.2-0.5-0.3c-0.1-0.1-0.3-0.2-0.3-0.4
		c-0.1-0.2-0.1-0.4-0.1-0.6c0-0.3,0.1-0.5,0.2-0.7c0.1-0.2,0.3-0.4,0.4-0.5c0.2-0.1,0.4-0.2,0.6-0.3s0.5-0.1,0.7-0.1
		c0.3,0,0.5,0,0.8,0.1s0.5,0.2,0.7,0.3c0.2,0.1,0.3,0.3,0.5,0.5c0.1,0.2,0.2,0.5,0.2,0.8h-1.1c0-0.2,0-0.3-0.1-0.4
		c-0.1-0.1-0.1-0.2-0.2-0.2c-0.1-0.1-0.2-0.1-0.3-0.1c-0.1,0-0.2,0-0.4,0c-0.1,0-0.2,0-0.3,0c-0.1,0-0.2,0.1-0.2,0.1
		c-0.1,0-0.1,0.1-0.2,0.2c0,0.1-0.1,0.2-0.1,0.3c0,0.1,0,0.2,0.1,0.2c0,0.1,0.1,0.1,0.2,0.2c0.1,0.1,0.3,0.1,0.5,0.2
		c0.2,0.1,0.5,0.1,0.8,0.2c0.1,0,0.2,0.1,0.4,0.1c0.2,0.1,0.3,0.1,0.5,0.2s0.3,0.3,0.4,0.4c0.1,0.2,0.2,0.4,0.2,0.7
		c0,0.2,0,0.5-0.1,0.7c-0.1,0.2-0.2,0.4-0.4,0.5c-0.2,0.1-0.4,0.3-0.7,0.3s-0.6,0.1-0.9,0.1c-0.3,0-0.6,0-0.8-0.1
		c-0.3-0.1-0.5-0.2-0.7-0.3c-0.2-0.1-0.4-0.3-0.5-0.6s-0.2-0.5-0.2-0.8h1.1C281.3,19.4,281.4,19.6,281.4,19.7z"/>
</g>
</svg>
