<?xml version="1.0" encoding="utf-8"?>
<!-- Generator: Adobe Illustrator 25.4.1, SVG Export Plug-In . SVG Version: 6.00 Build 0)  -->
<svg version="1.1" id="Layer_1" xmlns="http://www.w3.org/2000/svg" xmlns:xlink="http://www.w3.org/1999/xlink" x="0px" y="0px"
	 viewBox="0 0 160 600" style="enable-background:new 0 0 160 600;" xml:space="preserve">
<style type="text/css">
	.st0{fill:#349946;}
</style>
<g>
	<path class="st0" d="M28.1,132.7c1.3,0,2.5,0.2,3.4,0.6c0.9,0.4,1.7,0.9,2.3,1.5c0.6,0.6,1,1.4,1.3,2.2c0.3,0.8,0.4,1.7,0.4,2.6
		c0,0.9-0.1,1.7-0.4,2.5c-0.3,0.8-0.7,1.6-1.3,2.2c-0.6,0.6-1.4,1.2-2.3,1.5c-0.9,0.4-2.1,0.6-3.4,0.6h-5v7.7h-4.7v-21.4H28.1z
		 M26.9,142.8c0.5,0,1.1,0,1.6-0.1c0.5-0.1,0.9-0.2,1.3-0.5s0.7-0.6,0.9-1s0.3-1,0.3-1.6c0-0.7-0.1-1.2-0.3-1.7
		c-0.2-0.4-0.5-0.7-0.9-1s-0.8-0.4-1.3-0.5c-0.5-0.1-1-0.1-1.6-0.1h-3.7v6.4H26.9z"/>
	<path class="st0" d="M42.1,138.6v2.9h0.1c0.2-0.5,0.5-0.9,0.8-1.3c0.3-0.4,0.7-0.8,1.2-1.1c0.4-0.3,0.9-0.5,1.4-0.7
		c0.5-0.2,1-0.2,1.6-0.2c0.3,0,0.6,0.1,0.9,0.2v4c-0.2,0-0.4-0.1-0.7-0.1c-0.3,0-0.6,0-0.8,0c-0.8,0-1.4,0.1-2,0.4
		c-0.5,0.3-1,0.6-1.3,1.1c-0.3,0.5-0.6,1-0.7,1.6c-0.1,0.6-0.2,1.2-0.2,1.9v7H38v-15.5H42.1z"/>
	<path class="st0" d="M49.5,143.4c0.1-1,0.3-1.8,0.8-2.5s1-1.2,1.7-1.6c0.7-0.4,1.4-0.7,2.3-0.9c0.8-0.2,1.7-0.3,2.6-0.3
		c0.8,0,1.6,0.1,2.4,0.2c0.8,0.1,1.5,0.3,2.2,0.6c0.7,0.3,1.2,0.8,1.6,1.3c0.4,0.6,0.6,1.3,0.6,2.3v8.1c0,0.7,0,1.4,0.1,2
		c0.1,0.6,0.2,1.1,0.4,1.4h-4.3c-0.1-0.2-0.1-0.5-0.2-0.7c-0.1-0.2-0.1-0.5-0.1-0.8c-0.7,0.7-1.5,1.2-2.4,1.5
		c-0.9,0.3-1.9,0.4-2.8,0.4c-0.7,0-1.4-0.1-2.1-0.3c-0.6-0.2-1.2-0.5-1.7-0.8c-0.5-0.4-0.9-0.9-1.1-1.4c-0.3-0.6-0.4-1.3-0.4-2.1
		c0-0.9,0.2-1.6,0.5-2.2c0.3-0.6,0.7-1,1.2-1.4c0.5-0.3,1-0.6,1.7-0.8c0.6-0.2,1.3-0.3,1.9-0.4c0.6-0.1,1.3-0.2,1.9-0.2
		c0.6-0.1,1.2-0.1,1.6-0.3c0.5-0.1,0.9-0.3,1.1-0.5c0.3-0.2,0.4-0.6,0.4-1c0-0.5-0.1-0.8-0.2-1.1c-0.2-0.3-0.4-0.5-0.6-0.6
		c-0.3-0.1-0.5-0.2-0.9-0.3S57,141,56.6,141c-0.8,0-1.5,0.2-2,0.5s-0.8,1-0.8,1.8H49.5z M59.4,146.5c-0.2,0.2-0.4,0.3-0.7,0.4
		c-0.3,0.1-0.6,0.2-0.9,0.2c-0.3,0.1-0.6,0.1-1,0.2s-0.7,0.1-1,0.1c-0.3,0.1-0.6,0.1-0.9,0.2c-0.3,0.1-0.6,0.2-0.8,0.4
		s-0.4,0.4-0.6,0.6c-0.1,0.3-0.2,0.6-0.2,1c0,0.4,0.1,0.7,0.2,1c0.1,0.3,0.3,0.5,0.6,0.6s0.5,0.3,0.8,0.3s0.6,0.1,1,0.1
		c0.8,0,1.5-0.1,1.9-0.4c0.5-0.3,0.8-0.6,1-1s0.4-0.8,0.4-1.2c0-0.4,0.1-0.7,0.1-1V146.5z"/>
	<path class="st0" d="M74.3,141.4c-0.7,0-1.2,0.2-1.7,0.5c-0.5,0.3-0.8,0.7-1.1,1.2c-0.3,0.5-0.5,1-0.6,1.6
		c-0.1,0.6-0.2,1.2-0.2,1.8c0,0.6,0.1,1.1,0.2,1.7c0.1,0.6,0.3,1.1,0.6,1.6c0.3,0.5,0.6,0.9,1.1,1.2c0.5,0.3,1,0.5,1.7,0.5
		c1,0,1.8-0.3,2.4-0.9s0.9-1.3,1-2.3h4.1c-0.3,2.1-1.1,3.6-2.4,4.7s-3,1.6-5.1,1.6c-1.2,0-2.2-0.2-3.2-0.6c-1-0.4-1.8-0.9-2.5-1.6
		c-0.7-0.7-1.2-1.5-1.6-2.5c-0.4-1-0.6-2-0.6-3.2c0-1.2,0.2-2.3,0.5-3.3c0.3-1,0.9-1.9,1.5-2.7s1.5-1.3,2.5-1.8
		c1-0.4,2.1-0.6,3.4-0.6c0.9,0,1.8,0.1,2.7,0.4c0.8,0.2,1.6,0.6,2.3,1.1c0.7,0.5,1.2,1.1,1.6,1.8c0.4,0.7,0.7,1.6,0.7,2.6h-4.2
		C77.2,142.3,76.2,141.4,74.3,141.4z"/>
	<path class="st0" d="M92.7,138.6v2.8h-3.1v7.7c0,0.7,0.1,1.2,0.4,1.4c0.2,0.2,0.7,0.4,1.4,0.4c0.2,0,0.5,0,0.7,0
		c0.2,0,0.4,0,0.6-0.1v3.3c-0.4,0.1-0.8,0.1-1.2,0.1c-0.4,0-0.9,0-1.3,0c-0.7,0-1.3,0-1.9-0.1c-0.6-0.1-1.1-0.3-1.6-0.5
		s-0.8-0.6-1.1-1.1c-0.3-0.5-0.4-1.1-0.4-1.9v-9.2h-2.6v-2.8h2.6V134h4.3v4.7H92.7z"/>
	<path class="st0" d="M94.8,136.2v-3.5h4.3v3.5H94.8z M99.1,138.6v15.5h-4.3v-15.5H99.1z"/>
	<path class="st0" d="M109.9,141.4c-0.7,0-1.2,0.2-1.7,0.5c-0.5,0.3-0.8,0.7-1.1,1.2c-0.3,0.5-0.5,1-0.6,1.6
		c-0.1,0.6-0.2,1.2-0.2,1.8c0,0.6,0.1,1.1,0.2,1.7c0.1,0.6,0.3,1.1,0.6,1.6c0.3,0.5,0.6,0.9,1.1,1.2c0.5,0.3,1,0.5,1.7,0.5
		c1,0,1.8-0.3,2.4-0.9s0.9-1.3,1-2.3h4.1c-0.3,2.1-1.1,3.6-2.4,4.7s-3,1.6-5.1,1.6c-1.2,0-2.2-0.2-3.2-0.6c-1-0.4-1.8-0.9-2.5-1.6
		c-0.7-0.7-1.2-1.5-1.6-2.5c-0.4-1-0.6-2-0.6-3.2c0-1.2,0.2-2.3,0.5-3.3c0.3-1,0.9-1.9,1.5-2.7s1.5-1.3,2.5-1.8
		c1-0.4,2.1-0.6,3.4-0.6c0.9,0,1.8,0.1,2.7,0.4c0.8,0.2,1.6,0.6,2.3,1.1c0.7,0.5,1.2,1.1,1.6,1.8c0.4,0.7,0.7,1.6,0.7,2.6H113
		C112.7,142.3,111.7,141.4,109.9,141.4z"/>
	<path class="st0" d="M119.5,143.4c0.1-1,0.3-1.8,0.8-2.5c0.4-0.7,1-1.2,1.7-1.6c0.7-0.4,1.4-0.7,2.3-0.9c0.8-0.2,1.7-0.3,2.6-0.3
		c0.8,0,1.6,0.1,2.4,0.2c0.8,0.1,1.5,0.3,2.2,0.6c0.7,0.3,1.2,0.8,1.6,1.3c0.4,0.6,0.6,1.3,0.6,2.3v8.1c0,0.7,0,1.4,0.1,2
		c0.1,0.6,0.2,1.1,0.4,1.4h-4.3c-0.1-0.2-0.1-0.5-0.2-0.7c-0.1-0.2-0.1-0.5-0.1-0.8c-0.7,0.7-1.5,1.2-2.4,1.5
		c-0.9,0.3-1.9,0.4-2.8,0.4c-0.7,0-1.4-0.1-2.1-0.3c-0.6-0.2-1.2-0.5-1.7-0.8c-0.5-0.4-0.9-0.9-1.1-1.4c-0.3-0.6-0.4-1.3-0.4-2.1
		c0-0.9,0.2-1.6,0.5-2.2c0.3-0.6,0.7-1,1.2-1.4c0.5-0.3,1-0.6,1.7-0.8c0.6-0.2,1.3-0.3,1.9-0.4c0.6-0.1,1.3-0.2,1.9-0.2
		s1.2-0.1,1.7-0.3c0.5-0.1,0.9-0.3,1.1-0.5c0.3-0.2,0.4-0.6,0.4-1c0-0.5-0.1-0.8-0.2-1.1c-0.1-0.3-0.3-0.5-0.6-0.6s-0.5-0.2-0.9-0.3
		s-0.7-0.1-1.1-0.1c-0.8,0-1.5,0.2-2,0.5c-0.5,0.4-0.8,1-0.8,1.8H119.5z M129.3,146.5c-0.2,0.2-0.4,0.3-0.7,0.4
		c-0.3,0.1-0.6,0.2-0.9,0.2c-0.3,0.1-0.6,0.1-1,0.2s-0.7,0.1-1,0.1c-0.3,0.1-0.6,0.1-0.9,0.2c-0.3,0.1-0.6,0.2-0.8,0.4
		c-0.2,0.2-0.4,0.4-0.6,0.6c-0.1,0.3-0.2,0.6-0.2,1c0,0.4,0.1,0.7,0.2,1c0.1,0.3,0.3,0.5,0.6,0.6s0.5,0.3,0.8,0.3s0.6,0.1,1,0.1
		c0.8,0,1.5-0.1,2-0.4c0.5-0.3,0.8-0.6,1-1s0.4-0.8,0.4-1.2c0-0.4,0.1-0.7,0.1-1V146.5z"/>
	<path class="st0" d="M141.3,132.7v21.4H137v-21.4H141.3z"/>
</g>
<g>
	<path class="st0" d="M39.5,184.1l-3.6-14.6h-0.1l-3.6,14.6h-4.8l-5.7-21.4h4.7l3.4,14.6h0.1l3.7-14.6h4.4l3.7,14.8h0.1l3.5-14.8
		h4.6l-5.8,21.4H39.5z"/>
	<path class="st0" d="M51.8,166.2v-3.5H56v3.5H51.8z M56,168.6v15.5h-4.3v-15.5H56z"/>
	<path class="st0" d="M63,180.3c0.2,0.3,0.4,0.6,0.7,0.8c0.3,0.2,0.6,0.4,1,0.5c0.4,0.1,0.8,0.1,1.2,0.1c0.3,0,0.6,0,0.9-0.1
		c0.3-0.1,0.6-0.2,0.9-0.3c0.3-0.1,0.5-0.3,0.7-0.6s0.3-0.6,0.3-0.9c0-0.6-0.4-1.1-1.3-1.4c-0.9-0.3-2-0.6-3.6-1
		c-0.6-0.1-1.2-0.3-1.8-0.5c-0.6-0.2-1.1-0.4-1.6-0.8c-0.5-0.3-0.8-0.7-1.1-1.2c-0.3-0.5-0.4-1-0.4-1.7c0-1,0.2-1.8,0.6-2.5
		c0.4-0.6,0.9-1.1,1.5-1.5s1.4-0.6,2.2-0.8c0.8-0.1,1.6-0.2,2.5-0.2c0.8,0,1.7,0.1,2.4,0.2c0.8,0.2,1.5,0.4,2.1,0.8s1.1,0.9,1.5,1.5
		c0.4,0.6,0.7,1.4,0.7,2.4h-4.1c-0.1-0.8-0.4-1.4-0.9-1.7c-0.6-0.3-1.2-0.4-2-0.4c-0.2,0-0.5,0-0.8,0c-0.3,0-0.5,0.1-0.8,0.2
		s-0.4,0.2-0.6,0.4c-0.2,0.2-0.2,0.4-0.2,0.8c0,0.4,0.1,0.7,0.4,0.9c0.3,0.2,0.6,0.4,1.1,0.6c0.5,0.1,1,0.3,1.5,0.4
		c0.6,0.1,1.2,0.3,1.8,0.4c0.6,0.1,1.2,0.3,1.8,0.5c0.6,0.2,1.1,0.5,1.6,0.8s0.8,0.7,1.1,1.2c0.3,0.5,0.4,1.1,0.4,1.8
		c0,1-0.2,1.9-0.6,2.6s-0.9,1.2-1.6,1.7c-0.7,0.4-1.4,0.7-2.3,0.9c-0.9,0.2-1.7,0.3-2.6,0.3c-0.9,0-1.8-0.1-2.6-0.3
		c-0.9-0.2-1.6-0.5-2.3-0.9c-0.7-0.4-1.2-1-1.6-1.7c-0.4-0.7-0.7-1.6-0.7-2.6h4C62.7,179.5,62.8,179.9,63,180.3z"/>
	<path class="st0" d="M86.5,182.1c-0.5,0.8-1.2,1.4-2,1.8c-0.8,0.4-1.7,0.6-2.7,0.6c-1.2,0-2.2-0.2-3.1-0.7
		c-0.9-0.4-1.6-1.1-2.2-1.8c-0.6-0.8-1-1.7-1.3-2.7c-0.3-1-0.4-2-0.4-3.1c0-1,0.1-2,0.4-3s0.7-1.8,1.3-2.6c0.6-0.7,1.3-1.3,2.1-1.8
		c0.9-0.5,1.9-0.7,3-0.7c0.9,0,1.8,0.2,2.6,0.6c0.8,0.4,1.5,1,2,1.7h0.1v-7.8h4.3v21.4h-4L86.5,182.1L86.5,182.1z M86.3,174.5
		c-0.1-0.6-0.3-1.1-0.6-1.6c-0.3-0.4-0.7-0.8-1.1-1.1s-1-0.4-1.7-0.4s-1.3,0.1-1.8,0.4c-0.5,0.3-0.9,0.6-1.2,1.1
		c-0.3,0.5-0.5,1-0.6,1.6c-0.1,0.6-0.2,1.2-0.2,1.8c0,0.6,0.1,1.2,0.2,1.8c0.1,0.6,0.4,1.1,0.7,1.6c0.3,0.5,0.7,0.9,1.2,1.1
		c0.5,0.3,1,0.4,1.7,0.4c0.7,0,1.3-0.1,1.8-0.4c0.5-0.3,0.8-0.7,1.1-1.1c0.3-0.5,0.5-1,0.6-1.6s0.2-1.2,0.2-1.9
		S86.4,175.1,86.3,174.5z"/>
	<path class="st0" d="M93.9,173c0.4-1,0.9-1.9,1.6-2.6s1.5-1.3,2.5-1.7c1-0.4,2.1-0.6,3.3-0.6c1.2,0,2.3,0.2,3.3,0.6
		c1,0.4,1.8,0.9,2.5,1.7s1.2,1.6,1.6,2.6c0.4,1,0.6,2.1,0.6,3.4c0,1.2-0.2,2.4-0.6,3.4s-0.9,1.9-1.6,2.6s-1.5,1.3-2.5,1.6
		c-1,0.4-2.1,0.6-3.3,0.6c-1.2,0-2.3-0.2-3.3-0.6c-1-0.4-1.8-0.9-2.5-1.6s-1.2-1.6-1.6-2.6s-0.6-2.1-0.6-3.4
		C93.3,175.1,93.5,174,93.9,173z M97.8,178.2c0.1,0.6,0.3,1.1,0.6,1.6c0.3,0.5,0.7,0.8,1.2,1.1c0.5,0.3,1.1,0.4,1.8,0.4
		c0.7,0,1.3-0.1,1.8-0.4c0.5-0.3,0.9-0.7,1.2-1.1c0.3-0.5,0.5-1,0.6-1.6s0.2-1.2,0.2-1.8c0-0.6-0.1-1.2-0.2-1.8
		c-0.1-0.6-0.3-1.1-0.6-1.6c-0.3-0.5-0.7-0.8-1.2-1.1c-0.5-0.3-1.1-0.4-1.8-0.4c-0.7,0-1.3,0.1-1.8,0.4c-0.5,0.3-0.9,0.7-1.2,1.1
		c-0.3,0.5-0.5,1-0.6,1.6c-0.1,0.6-0.2,1.2-0.2,1.8C97.6,177,97.7,177.6,97.8,178.2z"/>
	<path class="st0" d="M116.3,168.6v2.1h0.1c0.6-0.8,1.2-1.4,2-1.9c0.8-0.4,1.7-0.7,2.7-0.7c1,0,1.9,0.2,2.7,0.6c0.8,0.4,1.4,1,1.8,2
		c0.5-0.7,1.1-1.3,1.9-1.8s1.7-0.8,2.8-0.8c0.8,0,1.6,0.1,2.3,0.3c0.7,0.2,1.3,0.5,1.8,1s0.9,1,1.2,1.7s0.4,1.6,0.4,2.6v10.4h-4.3
		v-8.8c0-0.5,0-1-0.1-1.5s-0.2-0.9-0.3-1.2c-0.2-0.3-0.4-0.6-0.8-0.8c-0.4-0.2-0.8-0.3-1.4-0.3c-0.6,0-1.1,0.1-1.5,0.3
		c-0.4,0.2-0.7,0.5-0.9,0.9c-0.2,0.4-0.4,0.8-0.4,1.3c-0.1,0.5-0.1,0.9-0.1,1.4v8.6H122v-8.7c0-0.5,0-0.9,0-1.4
		c0-0.5-0.1-0.9-0.3-1.2c-0.1-0.4-0.4-0.7-0.8-0.9c-0.3-0.2-0.9-0.3-1.5-0.3c-0.2,0-0.5,0-0.8,0.1s-0.7,0.3-1,0.5
		c-0.3,0.2-0.6,0.6-0.8,1.1c-0.2,0.5-0.3,1.1-0.3,1.8v9h-4.3v-15.5H116.3z"/>
</g>
<g>
	<path class="st0" d="M59.7,201.5v-2.8h2.5v-1.2c0-1.4,0.4-2.5,1.3-3.4c0.9-0.9,2.2-1.3,3.9-1.3c0.4,0,0.8,0,1.1,0s0.8,0.1,1.1,0.1
		v3.2c-0.5-0.1-1-0.1-1.6-0.1c-0.6,0-1,0.1-1.2,0.4s-0.4,0.7-0.4,1.4v0.9h2.9v2.8h-2.9v12.7h-4.3v-12.7H59.7z"/>
	<path class="st0" d="M71.4,203c0.4-1,0.9-1.9,1.6-2.6s1.5-1.3,2.5-1.7c1-0.4,2.1-0.6,3.3-0.6c1.2,0,2.3,0.2,3.3,0.6
		c1,0.4,1.8,0.9,2.5,1.7s1.2,1.6,1.6,2.6c0.4,1,0.6,2.1,0.6,3.4c0,1.2-0.2,2.4-0.6,3.4s-0.9,1.9-1.6,2.6s-1.5,1.3-2.5,1.6
		c-1,0.4-2.1,0.6-3.3,0.6c-1.2,0-2.3-0.2-3.3-0.6c-1-0.4-1.8-0.9-2.5-1.6s-1.2-1.6-1.6-2.6s-0.6-2.1-0.6-3.4
		C70.8,205.1,71,204,71.4,203z M75.3,208.2c0.1,0.6,0.3,1.1,0.6,1.6c0.3,0.5,0.7,0.8,1.2,1.1c0.5,0.3,1.1,0.4,1.8,0.4
		c0.7,0,1.3-0.1,1.8-0.4c0.5-0.3,0.9-0.7,1.2-1.1c0.3-0.5,0.5-1,0.6-1.6s0.2-1.2,0.2-1.8c0-0.6-0.1-1.2-0.2-1.8
		c-0.1-0.6-0.3-1.1-0.6-1.6c-0.3-0.5-0.7-0.8-1.2-1.1c-0.5-0.3-1.1-0.4-1.8-0.4c-0.7,0-1.3,0.1-1.8,0.4c-0.5,0.3-0.9,0.7-1.2,1.1
		c-0.3,0.5-0.5,1-0.6,1.6c-0.1,0.6-0.2,1.2-0.2,1.8C75.1,207,75.2,207.6,75.3,208.2z"/>
	<path class="st0" d="M93.7,198.6v2.9h0.1c0.2-0.5,0.5-0.9,0.8-1.3c0.3-0.4,0.7-0.8,1.2-1.1c0.4-0.3,0.9-0.5,1.4-0.7
		c0.5-0.2,1-0.2,1.6-0.2c0.3,0,0.6,0.1,0.9,0.2v4c-0.2,0-0.4-0.1-0.7-0.1c-0.3,0-0.5,0-0.8,0c-0.8,0-1.4,0.1-2,0.4
		c-0.5,0.3-1,0.6-1.3,1.1c-0.3,0.5-0.6,1-0.7,1.6s-0.2,1.2-0.2,1.9v7h-4.3v-15.5H93.7z"/>
</g>
<g>
	<path class="st0" d="M31.9,222.7c1.4,0,2.7,0.2,3.9,0.7c1.2,0.4,2.2,1.1,3.1,2s1.5,2,2,3.3c0.5,1.3,0.7,2.9,0.7,4.6
		c0,1.6-0.2,3-0.6,4.3c-0.4,1.3-1,2.5-1.8,3.4c-0.8,1-1.8,1.7-3,2.3c-1.2,0.6-2.6,0.8-4.3,0.8h-9.2v-21.4H31.9z M31.5,240.2
		c0.7,0,1.3-0.1,2-0.3c0.6-0.2,1.2-0.6,1.7-1.1c0.5-0.5,0.9-1.2,1.2-2c0.3-0.8,0.4-1.8,0.4-3c0-1.1-0.1-2.1-0.3-2.9
		c-0.2-0.9-0.6-1.6-1-2.2c-0.5-0.6-1.1-1.1-1.9-1.4s-1.8-0.5-2.9-0.5h-3.4v13.5H31.5z"/>
	<path class="st0" d="M49,240.4c0.6,0.6,1.6,0.9,2.8,0.9c0.9,0,1.6-0.2,2.2-0.6c0.6-0.4,1-0.9,1.1-1.4h3.8c-0.6,1.9-1.5,3.2-2.8,4
		c-1.2,0.8-2.7,1.2-4.5,1.2c-1.2,0-2.3-0.2-3.3-0.6c-1-0.4-1.8-0.9-2.5-1.7c-0.7-0.7-1.2-1.6-1.6-2.6c-0.4-1-0.6-2.1-0.6-3.3
		c0-1.2,0.2-2.2,0.6-3.2c0.4-1,0.9-1.9,1.6-2.6c0.7-0.7,1.5-1.3,2.5-1.7c1-0.4,2-0.6,3.2-0.6c1.3,0,2.5,0.3,3.5,0.8
		c1,0.5,1.8,1.2,2.4,2.1c0.6,0.9,1.1,1.8,1.4,2.9c0.3,1.1,0.4,2.2,0.3,3.4H47.9C48,238.8,48.3,239.8,49,240.4z M53.8,232.2
		c-0.5-0.6-1.3-0.8-2.3-0.8c-0.7,0-1.2,0.1-1.7,0.3c-0.5,0.2-0.8,0.5-1.1,0.9c-0.3,0.3-0.5,0.7-0.6,1.1c-0.1,0.4-0.2,0.7-0.2,1h6.9
		C54.6,233.6,54.3,232.8,53.8,232.2z"/>
	<path class="st0" d="M65.7,228.6v2.2h0.1c0.5-0.9,1.2-1.6,2.1-2c0.9-0.4,1.7-0.6,2.6-0.6c1.1,0,2.1,0.2,2.8,0.5s1.3,0.7,1.7,1.3
		c0.4,0.6,0.7,1.2,0.9,2c0.2,0.8,0.3,1.7,0.3,2.6v9.5h-4.3v-8.8c0-1.3-0.2-2.2-0.6-2.9c-0.4-0.6-1.1-0.9-2.1-0.9c-1.2,0-2,0.3-2.5,1
		c-0.5,0.7-0.8,1.8-0.8,3.4v8.1h-4.3v-15.5H65.7z"/>
	<path class="st0" d="M87.9,228.6v2.8h-3.1v7.7c0,0.7,0.1,1.2,0.4,1.4c0.2,0.2,0.7,0.4,1.4,0.4c0.2,0,0.5,0,0.7,0
		c0.2,0,0.4,0,0.6-0.1v3.3c-0.4,0.1-0.8,0.1-1.2,0.1c-0.4,0-0.9,0-1.3,0c-0.7,0-1.3,0-1.9-0.1c-0.6-0.1-1.1-0.3-1.6-0.5
		s-0.8-0.6-1.1-1.1c-0.3-0.5-0.4-1.1-0.4-1.9v-9.2H78v-2.8h2.6V224h4.3v4.7H87.9z"/>
	<path class="st0" d="M90.1,226.2v-3.5h4.3v3.5H90.1z M94.4,228.6v15.5h-4.3v-15.5H94.4z"/>
	<path class="st0" d="M101.3,240.3c0.2,0.3,0.4,0.6,0.7,0.8c0.3,0.2,0.6,0.4,1,0.5c0.4,0.1,0.8,0.1,1.2,0.1c0.3,0,0.6,0,0.9-0.1
		c0.3-0.1,0.6-0.2,0.9-0.3c0.3-0.1,0.5-0.3,0.7-0.6s0.3-0.6,0.3-0.9c0-0.6-0.4-1.1-1.3-1.4c-0.9-0.3-2-0.6-3.6-1
		c-0.6-0.1-1.2-0.3-1.8-0.5c-0.6-0.2-1.1-0.4-1.6-0.8c-0.5-0.3-0.8-0.7-1.1-1.2c-0.3-0.5-0.4-1-0.4-1.7c0-1,0.2-1.8,0.6-2.5
		c0.4-0.6,0.9-1.1,1.5-1.5c0.6-0.4,1.4-0.6,2.2-0.8s1.6-0.2,2.5-0.2c0.8,0,1.7,0.1,2.4,0.2c0.8,0.2,1.5,0.4,2.1,0.8s1.1,0.9,1.5,1.5
		c0.4,0.6,0.7,1.4,0.7,2.4h-4.1c-0.1-0.8-0.4-1.4-0.9-1.7c-0.6-0.3-1.2-0.4-2-0.4c-0.2,0-0.5,0-0.8,0c-0.3,0-0.5,0.1-0.8,0.2
		c-0.2,0.1-0.4,0.2-0.6,0.4c-0.2,0.2-0.2,0.4-0.2,0.8c0,0.4,0.1,0.7,0.4,0.9c0.3,0.2,0.6,0.4,1.1,0.6s1,0.3,1.5,0.4
		c0.6,0.1,1.2,0.3,1.8,0.4c0.6,0.1,1.2,0.3,1.8,0.5c0.6,0.2,1.1,0.5,1.6,0.8s0.8,0.7,1.1,1.2c0.3,0.5,0.4,1.1,0.4,1.8
		c0,1-0.2,1.9-0.6,2.6s-0.9,1.2-1.6,1.7c-0.7,0.4-1.4,0.7-2.3,0.9c-0.9,0.2-1.7,0.3-2.6,0.3c-0.9,0-1.8-0.1-2.6-0.3
		c-0.9-0.2-1.6-0.5-2.3-0.9c-0.7-0.4-1.2-1-1.6-1.7c-0.4-0.7-0.7-1.6-0.7-2.6h4C101,239.5,101.1,239.9,101.3,240.3z"/>
	<path class="st0" d="M122.3,228.6v2.8h-3.1v7.7c0,0.7,0.1,1.2,0.4,1.4c0.2,0.2,0.7,0.4,1.4,0.4c0.2,0,0.5,0,0.7,0
		c0.2,0,0.4,0,0.6-0.1v3.3c-0.4,0.1-0.8,0.1-1.2,0.1c-0.4,0-0.9,0-1.3,0c-0.7,0-1.3,0-1.9-0.1c-0.6-0.1-1.1-0.3-1.6-0.5
		s-0.8-0.6-1.1-1.1c-0.3-0.5-0.4-1.1-0.4-1.9v-9.2h-2.6v-2.8h2.6V224h4.3v4.7H122.3z"/>
	<path class="st0" d="M128,240.3c0.2,0.3,0.4,0.6,0.7,0.8c0.3,0.2,0.6,0.4,1,0.5c0.4,0.1,0.8,0.1,1.2,0.1c0.3,0,0.6,0,0.9-0.1
		c0.3-0.1,0.6-0.2,0.9-0.3c0.3-0.1,0.5-0.3,0.7-0.6s0.3-0.6,0.3-0.9c0-0.6-0.4-1.1-1.3-1.4c-0.9-0.3-2-0.6-3.6-1
		c-0.6-0.1-1.2-0.3-1.8-0.5c-0.6-0.2-1.1-0.4-1.6-0.8c-0.5-0.3-0.8-0.7-1.1-1.2c-0.3-0.5-0.4-1-0.4-1.7c0-1,0.2-1.8,0.6-2.5
		c0.4-0.6,0.9-1.1,1.5-1.5c0.6-0.4,1.4-0.6,2.2-0.8s1.6-0.2,2.5-0.2c0.8,0,1.7,0.1,2.4,0.2c0.8,0.2,1.5,0.4,2.1,0.8s1.1,0.9,1.5,1.5
		c0.4,0.6,0.7,1.4,0.7,2.4h-4.1c-0.1-0.8-0.4-1.4-0.9-1.7c-0.6-0.3-1.2-0.4-2-0.4c-0.2,0-0.5,0-0.8,0c-0.3,0-0.5,0.1-0.8,0.2
		c-0.2,0.1-0.4,0.2-0.6,0.4c-0.2,0.2-0.2,0.4-0.2,0.8c0,0.4,0.1,0.7,0.4,0.9c0.3,0.2,0.6,0.4,1.1,0.6s1,0.3,1.5,0.4
		c0.6,0.1,1.2,0.3,1.8,0.4c0.6,0.1,1.2,0.3,1.8,0.5c0.6,0.2,1.1,0.5,1.6,0.8s0.8,0.7,1.1,1.2c0.3,0.5,0.4,1.1,0.4,1.8
		c0,1-0.2,1.9-0.6,2.6s-0.9,1.2-1.6,1.7c-0.7,0.4-1.4,0.7-2.3,0.9c-0.9,0.2-1.7,0.3-2.6,0.3c-0.9,0-1.8-0.1-2.6-0.3
		c-0.9-0.2-1.6-0.5-2.3-0.9c-0.7-0.4-1.2-1-1.6-1.7c-0.4-0.7-0.7-1.6-0.7-2.6h4C127.7,239.5,127.8,239.9,128,240.3z"/>
</g>
</svg>
