<?xml version="1.0" encoding="utf-8"?>
<!-- Generator: Adobe Illustrator 25.4.1, SVG Export Plug-In . SVG Version: 6.00 Build 0)  -->
<svg version="1.1" id="Layer_1" xmlns="http://www.w3.org/2000/svg" xmlns:xlink="http://www.w3.org/1999/xlink" x="0px" y="0px"
	 viewBox="0 0 160 600" style="enable-background:new 0 0 160 600;" xml:space="preserve">
<style type="text/css">
	.st0{fill:#349946;}
</style>
<g>
	<path d="M24,132.6v3.3h-9.5v3.8h8.7v3.1h-8.7v4.4h9.7v3.3H10.6v-18H24z"/>
	<path d="M29.7,150.5l-4.5-13H29l2.7,8.9h0.1l2.7-8.9h3.5l-4.4,13H29.7z"/>
	<path d="M43.4,147.4c0.5,0.5,1.3,0.8,2.3,0.8c0.7,0,1.3-0.2,1.9-0.5c0.5-0.4,0.8-0.7,1-1.1h3.1c-0.5,1.6-1.3,2.7-2.3,3.3
		c-1,0.7-2.3,1-3.8,1c-1,0-1.9-0.2-2.8-0.5c-0.8-0.3-1.5-0.8-2.1-1.4c-0.6-0.6-1-1.3-1.3-2.2c-0.3-0.8-0.5-1.8-0.5-2.8
		c0-1,0.2-1.9,0.5-2.7c0.3-0.8,0.8-1.6,1.4-2.2c0.6-0.6,1.3-1.1,2.1-1.4c0.8-0.4,1.7-0.5,2.7-0.5c1.1,0,2.1,0.2,2.9,0.6
		c0.8,0.4,1.5,1,2,1.7c0.5,0.7,0.9,1.5,1.1,2.5c0.2,0.9,0.3,1.9,0.3,2.9h-9.4C42.6,146,42.9,146.9,43.4,147.4z M47.4,140.6
		c-0.4-0.5-1.1-0.7-1.9-0.7c-0.6,0-1,0.1-1.4,0.3c-0.4,0.2-0.7,0.4-0.9,0.7c-0.2,0.3-0.4,0.6-0.5,0.9c-0.1,0.3-0.1,0.6-0.2,0.9h5.8
		C48.2,141.7,47.9,141,47.4,140.6z"/>
	<path d="M57.4,137.5v1.8h0.1c0.5-0.8,1-1.3,1.8-1.6c0.7-0.3,1.5-0.5,2.2-0.5c1,0,1.7,0.1,2.4,0.4c0.6,0.3,1.1,0.6,1.4,1.1
		c0.4,0.5,0.6,1,0.7,1.7c0.1,0.7,0.2,1.4,0.2,2.2v8h-3.6v-7.3c0-1.1-0.2-1.9-0.5-2.4c-0.3-0.5-0.9-0.8-1.8-0.8c-1,0-1.7,0.3-2.1,0.9
		c-0.4,0.6-0.7,1.5-0.7,2.9v6.8H54v-13H57.4z"/>
	<path d="M83,137.5v2.4h-2.6v6.4c0,0.6,0.1,1,0.3,1.2s0.6,0.3,1.2,0.3c0.2,0,0.4,0,0.6,0s0.4,0,0.5-0.1v2.8c-0.3,0.1-0.6,0.1-1,0.1
		c-0.4,0-0.7,0-1.1,0c-0.6,0-1.1,0-1.6-0.1c-0.5-0.1-0.9-0.2-1.3-0.4c-0.4-0.2-0.7-0.5-0.9-0.9c-0.2-0.4-0.3-0.9-0.3-1.6v-7.7h-2.2
		v-2.4h2.2v-3.9h3.6v3.9H83z"/>
	<path d="M88.3,132.6v6.8h0.1c0.5-0.8,1-1.3,1.7-1.6c0.7-0.3,1.4-0.5,2.1-0.5c1,0,1.7,0.1,2.4,0.4c0.6,0.3,1.1,0.6,1.4,1.1
		c0.4,0.5,0.6,1,0.7,1.7c0.1,0.7,0.2,1.4,0.2,2.2v8h-3.6v-7.3c0-1.1-0.2-1.9-0.5-2.4c-0.3-0.5-0.9-0.8-1.8-0.8c-1,0-1.7,0.3-2.1,0.9
		c-0.4,0.6-0.7,1.5-0.7,2.9v6.8h-3.6v-18H88.3z"/>
	<path d="M103.5,147.4c0.5,0.5,1.3,0.8,2.3,0.8c0.7,0,1.3-0.2,1.9-0.5s0.8-0.7,1-1.1h3.1c-0.5,1.6-1.3,2.7-2.3,3.3
		c-1,0.7-2.3,1-3.8,1c-1,0-1.9-0.2-2.8-0.5c-0.8-0.3-1.5-0.8-2.1-1.4c-0.6-0.6-1-1.3-1.3-2.2C99.2,146,99,145,99,144
		c0-1,0.2-1.9,0.5-2.7c0.3-0.8,0.8-1.6,1.4-2.2c0.6-0.6,1.3-1.1,2.1-1.4s1.7-0.5,2.7-0.5c1.1,0,2.1,0.2,2.9,0.6c0.8,0.4,1.5,1,2,1.7
		c0.5,0.7,0.9,1.5,1.1,2.5c0.2,0.9,0.3,1.9,0.3,2.9h-9.4C102.7,146,103,146.9,103.5,147.4z M107.5,140.6c-0.4-0.5-1.1-0.7-1.9-0.7
		c-0.6,0-1,0.1-1.4,0.3c-0.4,0.2-0.7,0.4-0.9,0.7c-0.2,0.3-0.4,0.6-0.5,0.9c-0.1,0.3-0.1,0.6-0.2,0.9h5.8
		C108.3,141.7,108,141,107.5,140.6z"/>
</g>
<g>
	<path d="M19,159.2c0.9,0,1.6,0.1,2.3,0.2s1.3,0.4,1.8,0.7c0.5,0.3,0.9,0.8,1.2,1.4c0.3,0.6,0.4,1.3,0.4,2.1c0,0.9-0.2,1.7-0.6,2.3
		c-0.4,0.6-1,1.1-1.8,1.5c1.1,0.3,1.9,0.9,2.5,1.7c0.5,0.8,0.8,1.8,0.8,2.9c0,0.9-0.2,1.7-0.5,2.4c-0.4,0.7-0.8,1.2-1.4,1.6
		c-0.6,0.4-1.3,0.7-2,0.9c-0.8,0.2-1.5,0.3-2.4,0.3h-8.7v-18H19z M18.5,166.4c0.7,0,1.3-0.2,1.7-0.5c0.5-0.3,0.7-0.9,0.7-1.6
		c0-0.4-0.1-0.8-0.2-1s-0.4-0.5-0.6-0.6s-0.5-0.3-0.9-0.3c-0.3-0.1-0.7-0.1-1-0.1h-3.7v4.2H18.5z M18.8,174.1c0.4,0,0.8,0,1.1-0.1
		c0.4-0.1,0.7-0.2,0.9-0.4c0.3-0.2,0.5-0.4,0.6-0.7c0.2-0.3,0.2-0.7,0.2-1.2c0-0.9-0.3-1.6-0.8-2c-0.5-0.4-1.2-0.6-2.1-0.6h-4.3v4.9
		H18.8z"/>
	<path d="M41.7,159.2v3.3h-9.5v3.8h8.7v3.1h-8.7v4.4h9.7v3.3H28.3v-18H41.7z"/>
	<path d="M47.6,172.7c0.2,0.4,0.5,0.8,0.9,1c0.4,0.3,0.8,0.5,1.3,0.6c0.5,0.1,1,0.2,1.5,0.2c0.4,0,0.7,0,1.1-0.1s0.8-0.2,1.1-0.3
		c0.4-0.2,0.6-0.4,0.9-0.7c0.2-0.3,0.4-0.7,0.4-1.1c0-0.5-0.2-0.9-0.5-1.2c-0.3-0.3-0.7-0.6-1.2-0.8c-0.5-0.2-1.1-0.4-1.7-0.5
		c-0.6-0.2-1.3-0.3-1.9-0.5c-0.7-0.2-1.3-0.4-2-0.6c-0.6-0.2-1.2-0.6-1.7-0.9c-0.5-0.4-0.9-0.9-1.2-1.4c-0.3-0.6-0.5-1.3-0.5-2.1
		c0-0.9,0.2-1.7,0.6-2.4c0.4-0.7,0.9-1.2,1.5-1.7c0.6-0.5,1.4-0.8,2.2-1s1.6-0.3,2.4-0.3c0.9,0,1.8,0.1,2.7,0.3
		c0.9,0.2,1.6,0.5,2.3,1c0.7,0.5,1.2,1.1,1.6,1.8c0.4,0.7,0.6,1.6,0.6,2.7h-3.8c0-0.5-0.1-1-0.3-1.3c-0.2-0.4-0.4-0.6-0.8-0.8
		c-0.3-0.2-0.7-0.3-1.1-0.4c-0.4-0.1-0.9-0.1-1.3-0.1c-0.3,0-0.6,0-1,0.1c-0.3,0.1-0.6,0.2-0.9,0.4s-0.5,0.4-0.6,0.6s-0.3,0.6-0.3,1
		c0,0.4,0.1,0.6,0.2,0.9s0.4,0.4,0.8,0.6s0.9,0.4,1.6,0.6c0.7,0.2,1.6,0.4,2.7,0.7c0.3,0.1,0.8,0.2,1.4,0.4c0.6,0.2,1.2,0.5,1.8,0.8
		c0.6,0.4,1.1,0.9,1.5,1.5c0.4,0.6,0.6,1.5,0.6,2.5c0,0.8-0.2,1.6-0.5,2.3c-0.3,0.7-0.8,1.3-1.4,1.8c-0.6,0.5-1.4,0.9-2.3,1.2
		c-0.9,0.3-2,0.4-3.2,0.4c-1,0-1.9-0.1-2.9-0.4c-0.9-0.2-1.8-0.6-2.5-1.1c-0.7-0.5-1.3-1.2-1.7-2c-0.4-0.8-0.6-1.8-0.6-2.9h3.8
		C47.3,171.8,47.4,172.3,47.6,172.7z"/>
	<path d="M59.5,162.5v-3.3h14.7v3.3h-5.4v14.6h-3.9v-14.6H59.5z"/>
	<path d="M80.2,168.7v3.1h-7.6v-3.1H80.2z"/>
	<path d="M86.5,159.2v18H83v-18H86.5z"/>
	<path d="M89.2,168.1c0-0.8,0.3-1.5,0.6-2.1c0.4-0.6,0.8-1,1.4-1.3c0.6-0.3,1.2-0.6,1.9-0.7c0.7-0.1,1.4-0.2,2.2-0.2
		c0.7,0,1.3,0,2,0.1c0.7,0.1,1.3,0.3,1.8,0.5c0.6,0.3,1,0.6,1.4,1.1c0.4,0.5,0.5,1.1,0.5,1.9v6.8c0,0.6,0,1.1,0.1,1.7
		c0.1,0.5,0.2,0.9,0.4,1.2h-3.6c-0.1-0.2-0.1-0.4-0.2-0.6c0-0.2-0.1-0.4-0.1-0.6c-0.6,0.6-1.2,1-2,1.2c-0.8,0.2-1.6,0.4-2.4,0.4
		c-0.6,0-1.2-0.1-1.7-0.2c-0.5-0.2-1-0.4-1.4-0.7c-0.4-0.3-0.7-0.7-0.9-1.2c-0.2-0.5-0.3-1.1-0.3-1.7c0-0.7,0.1-1.3,0.4-1.8
		c0.3-0.5,0.6-0.9,1-1.1c0.4-0.3,0.9-0.5,1.4-0.6c0.5-0.1,1.1-0.3,1.6-0.3c0.5-0.1,1.1-0.2,1.6-0.2s1-0.1,1.4-0.2s0.7-0.2,1-0.4
		c0.2-0.2,0.3-0.5,0.3-0.8c0-0.4-0.1-0.7-0.2-0.9c-0.1-0.2-0.3-0.4-0.5-0.5c-0.2-0.1-0.5-0.2-0.7-0.3c-0.3,0-0.6-0.1-0.9-0.1
		c-0.7,0-1.3,0.2-1.7,0.5c-0.4,0.3-0.6,0.8-0.7,1.5H89.2z M97.5,170.8c-0.2,0.1-0.3,0.2-0.6,0.3c-0.2,0.1-0.5,0.1-0.7,0.2
		s-0.5,0.1-0.8,0.1s-0.6,0.1-0.9,0.1c-0.3,0.1-0.5,0.1-0.8,0.2c-0.3,0.1-0.5,0.2-0.7,0.3c-0.2,0.1-0.3,0.3-0.5,0.5s-0.2,0.5-0.2,0.8
		c0,0.3,0.1,0.6,0.2,0.8s0.3,0.4,0.5,0.5c0.2,0.1,0.4,0.2,0.7,0.3c0.3,0.1,0.5,0.1,0.8,0.1c0.7,0,1.2-0.1,1.6-0.4s0.7-0.5,0.9-0.8
		c0.2-0.3,0.3-0.7,0.3-1s0.1-0.6,0.1-0.8V170.8z"/>
	<path d="M103.9,162.1v-2.9h3.6v2.9H103.9z M107.5,164.1v13h-3.6v-13H107.5z"/>
	<path d="M119.5,175.5c-0.4,0.7-1,1.2-1.6,1.5c-0.7,0.3-1.4,0.5-2.3,0.5c-1,0-1.8-0.2-2.6-0.6c-0.7-0.4-1.3-0.9-1.8-1.5
		c-0.5-0.6-0.8-1.4-1.1-2.2c-0.2-0.8-0.4-1.7-0.4-2.6c0-0.9,0.1-1.7,0.4-2.5c0.2-0.8,0.6-1.5,1.1-2.1c0.5-0.6,1.1-1.1,1.8-1.5
		c0.7-0.4,1.6-0.6,2.5-0.6c0.8,0,1.5,0.2,2.2,0.5c0.7,0.3,1.2,0.8,1.6,1.4h0v-6.5h3.6v18h-3.4L119.5,175.5L119.5,175.5z M119.4,169
		c-0.1-0.5-0.3-0.9-0.5-1.3c-0.2-0.4-0.6-0.7-0.9-0.9c-0.4-0.2-0.9-0.4-1.5-0.4c-0.6,0-1.1,0.1-1.5,0.4c-0.4,0.2-0.7,0.5-1,0.9
		c-0.2,0.4-0.4,0.8-0.5,1.3c-0.1,0.5-0.2,1-0.2,1.5c0,0.5,0.1,1,0.2,1.5s0.3,1,0.6,1.3c0.3,0.4,0.6,0.7,1,1c0.4,0.2,0.9,0.4,1.4,0.4
		c0.6,0,1.1-0.1,1.5-0.4c0.4-0.2,0.7-0.5,0.9-0.9c0.2-0.4,0.4-0.8,0.5-1.3s0.2-1,0.2-1.6C119.5,170,119.5,169.5,119.4,169z"/>
</g>
<g>
	<path d="M18.7,185.8c1.1,0,2.1,0.2,2.9,0.5c0.8,0.3,1.4,0.8,1.9,1.3c0.5,0.5,0.9,1.1,1.1,1.8c0.2,0.7,0.3,1.4,0.3,2.1
		c0,0.7-0.1,1.4-0.3,2.1c-0.2,0.7-0.6,1.3-1.1,1.8c-0.5,0.5-1.1,1-1.9,1.3c-0.8,0.3-1.7,0.5-2.9,0.5h-4.1v6.4h-3.9v-18H18.7z
		 M17.6,194.2c0.5,0,0.9,0,1.3-0.1c0.4-0.1,0.8-0.2,1.1-0.4c0.3-0.2,0.6-0.5,0.8-0.8c0.2-0.4,0.3-0.8,0.3-1.4c0-0.6-0.1-1-0.3-1.4
		c-0.2-0.4-0.4-0.6-0.8-0.8c-0.3-0.2-0.7-0.3-1.1-0.4c-0.4-0.1-0.9-0.1-1.3-0.1h-3.1v5.4H17.6z"/>
	<path d="M31.3,185.8v14.6h8.8v3.3H27.4v-18H31.3z"/>
	<path d="M51.2,185.8l6.7,18h-4.1l-1.4-4h-6.7l-1.4,4h-4l6.8-18H51.2z M51.4,196.8l-2.3-6.6h-0.1l-2.3,6.6H51.4z"/>
	<path d="M63.4,185.8l7.5,12H71v-12h3.7v18h-3.9l-7.5-12h0v12h-3.7v-18H63.4z"/>
	<path d="M81.1,199.3c0.2,0.4,0.5,0.8,0.9,1c0.4,0.3,0.8,0.5,1.3,0.6c0.5,0.1,1,0.2,1.5,0.2c0.4,0,0.7,0,1.1-0.1s0.8-0.2,1.1-0.3
		c0.4-0.2,0.6-0.4,0.9-0.7c0.2-0.3,0.4-0.7,0.4-1.1c0-0.5-0.2-0.9-0.5-1.2c-0.3-0.3-0.7-0.6-1.2-0.8c-0.5-0.2-1.1-0.4-1.7-0.5
		c-0.6-0.2-1.3-0.3-1.9-0.5c-0.7-0.2-1.3-0.4-2-0.6c-0.6-0.2-1.2-0.6-1.7-0.9c-0.5-0.4-0.9-0.9-1.2-1.4c-0.3-0.6-0.5-1.3-0.5-2.1
		c0-0.9,0.2-1.7,0.6-2.4c0.4-0.7,0.9-1.2,1.5-1.7c0.6-0.5,1.4-0.8,2.2-1s1.6-0.3,2.4-0.3c0.9,0,1.8,0.1,2.7,0.3
		c0.9,0.2,1.6,0.5,2.3,1c0.7,0.5,1.2,1.1,1.6,1.8c0.4,0.7,0.6,1.6,0.6,2.7h-3.8c0-0.5-0.1-1-0.3-1.3s-0.4-0.6-0.8-0.8
		s-0.7-0.3-1.1-0.4c-0.4-0.1-0.9-0.1-1.3-0.1c-0.3,0-0.6,0-1,0.1s-0.6,0.2-0.9,0.4c-0.3,0.2-0.5,0.4-0.6,0.6s-0.3,0.6-0.3,1
		c0,0.4,0.1,0.6,0.2,0.9c0.1,0.2,0.4,0.4,0.8,0.6c0.4,0.2,0.9,0.4,1.6,0.6s1.6,0.4,2.7,0.7c0.3,0.1,0.8,0.2,1.4,0.4
		c0.6,0.2,1.2,0.5,1.8,0.8c0.6,0.4,1.1,0.9,1.5,1.5c0.4,0.6,0.6,1.5,0.6,2.5c0,0.8-0.2,1.6-0.5,2.3s-0.8,1.3-1.4,1.8
		c-0.6,0.5-1.4,0.9-2.3,1.2c-0.9,0.3-2,0.4-3.2,0.4c-1,0-1.9-0.1-2.9-0.4c-0.9-0.2-1.8-0.6-2.5-1.1c-0.7-0.5-1.3-1.2-1.7-2
		s-0.6-1.8-0.6-2.9h3.8C80.8,198.4,80.9,198.9,81.1,199.3z"/>
	<path d="M101.1,194.4c0.3-0.8,0.8-1.6,1.4-2.2c0.6-0.6,1.3-1.1,2.1-1.4c0.8-0.3,1.7-0.5,2.8-0.5s1.9,0.2,2.8,0.5
		c0.8,0.3,1.5,0.8,2.1,1.4c0.6,0.6,1,1.3,1.4,2.2s0.5,1.8,0.5,2.8c0,1-0.2,2-0.5,2.8s-0.8,1.6-1.4,2.1c-0.6,0.6-1.3,1.1-2.1,1.4
		c-0.8,0.3-1.8,0.5-2.8,0.5s-1.9-0.2-2.8-0.5s-1.5-0.8-2.1-1.4c-0.6-0.6-1-1.3-1.4-2.1c-0.3-0.8-0.5-1.8-0.5-2.8
		C100.7,196.2,100.8,195.3,101.1,194.4z M104.4,198.8c0.1,0.5,0.3,0.9,0.5,1.3c0.2,0.4,0.6,0.7,1,0.9c0.4,0.2,0.9,0.4,1.5,0.4
		s1.1-0.1,1.5-0.4c0.4-0.2,0.7-0.5,1-0.9c0.2-0.4,0.4-0.8,0.5-1.3c0.1-0.5,0.2-1,0.2-1.5s0-1-0.2-1.5s-0.3-0.9-0.5-1.3
		c-0.2-0.4-0.6-0.7-1-0.9c-0.4-0.2-0.9-0.4-1.5-0.4s-1.1,0.1-1.5,0.4c-0.4,0.2-0.7,0.6-1,0.9c-0.2,0.4-0.4,0.8-0.5,1.3
		s-0.2,1-0.2,1.5S104.3,198.3,104.4,198.8z"/>
	<path d="M115.1,193.1v-2.4h2.1v-1c0-1.2,0.4-2.1,1.1-2.8c0.7-0.7,1.8-1.1,3.3-1.1c0.3,0,0.6,0,1,0c0.3,0,0.6,0,0.9,0.1v2.7
		c-0.4-0.1-0.9-0.1-1.3-0.1c-0.5,0-0.8,0.1-1,0.3c-0.2,0.2-0.3,0.6-0.3,1.1v0.8h2.5v2.4h-2.5v10.6h-3.6v-10.6H115.1z"/>
</g>
<g>
	<path d="M13.7,217.3v1.8h0.1c0.5-0.7,1-1.2,1.7-1.6c0.7-0.4,1.4-0.6,2.3-0.6c0.8,0,1.6,0.2,2.3,0.5c0.7,0.3,1.2,0.9,1.5,1.7
		c0.4-0.6,0.9-1.1,1.6-1.5c0.7-0.4,1.4-0.7,2.4-0.7c0.7,0,1.3,0.1,1.9,0.3c0.6,0.2,1.1,0.4,1.5,0.8c0.4,0.4,0.7,0.9,1,1.4
		c0.2,0.6,0.4,1.3,0.4,2.1v8.7h-3.6V223c0-0.4,0-0.8-0.1-1.2c0-0.4-0.1-0.7-0.3-1c-0.2-0.3-0.4-0.5-0.7-0.7
		c-0.3-0.2-0.7-0.3-1.2-0.3s-0.9,0.1-1.2,0.3c-0.3,0.2-0.6,0.4-0.7,0.8c-0.2,0.3-0.3,0.7-0.4,1.1c-0.1,0.4-0.1,0.8-0.1,1.2v7.2h-3.6
		V223c0-0.4,0-0.8,0-1.1s-0.1-0.7-0.2-1c-0.1-0.3-0.3-0.6-0.6-0.8c-0.3-0.2-0.7-0.3-1.3-0.3c-0.2,0-0.4,0-0.7,0.1
		c-0.3,0.1-0.5,0.2-0.8,0.4c-0.3,0.2-0.5,0.5-0.7,0.9c-0.2,0.4-0.3,0.9-0.3,1.5v7.5h-3.6v-13H13.7z"/>
	<path d="M33.1,215.3v-2.9h3.6v2.9H33.1z M36.7,217.3v13h-3.6v-13H36.7z"/>
	<path d="M45.7,219.7c-0.6,0-1,0.1-1.4,0.4c-0.4,0.3-0.7,0.6-0.9,1c-0.2,0.4-0.4,0.9-0.5,1.4c-0.1,0.5-0.2,1-0.2,1.5
		c0,0.5,0.1,0.9,0.2,1.4c0.1,0.5,0.3,0.9,0.5,1.3c0.2,0.4,0.5,0.7,0.9,1c0.4,0.3,0.9,0.4,1.4,0.4c0.9,0,1.5-0.2,2-0.7
		c0.5-0.5,0.8-1.1,0.9-1.9h3.4c-0.2,1.7-0.9,3-2,3.9s-2.5,1.4-4.2,1.4c-1,0-1.9-0.2-2.7-0.5c-0.8-0.3-1.5-0.8-2.1-1.4
		c-0.6-0.6-1-1.3-1.3-2.1s-0.5-1.7-0.5-2.7c0-1,0.1-1.9,0.4-2.8c0.3-0.9,0.7-1.6,1.3-2.2c0.6-0.6,1.3-1.1,2.1-1.5s1.8-0.5,2.8-0.5
		c0.8,0,1.5,0.1,2.2,0.3s1.3,0.5,1.9,0.9c0.6,0.4,1,0.9,1.4,1.5c0.4,0.6,0.6,1.3,0.6,2.2h-3.5C48.1,220.4,47.2,219.7,45.7,219.7z"/>
	<path d="M57.7,227.2c0.5,0.5,1.3,0.8,2.3,0.8c0.7,0,1.3-0.2,1.9-0.5c0.5-0.4,0.8-0.7,1-1.1H66c-0.5,1.6-1.3,2.7-2.3,3.3
		c-1,0.7-2.3,1-3.8,1c-1,0-1.9-0.2-2.8-0.5c-0.8-0.3-1.5-0.8-2.1-1.4c-0.6-0.6-1-1.3-1.3-2.2c-0.3-0.8-0.5-1.8-0.5-2.8
		c0-1,0.2-1.9,0.5-2.7c0.3-0.8,0.8-1.6,1.4-2.2c0.6-0.6,1.3-1.1,2.1-1.4c0.8-0.4,1.7-0.5,2.7-0.5c1.1,0,2.1,0.2,2.9,0.6
		c0.8,0.4,1.5,1,2,1.7c0.5,0.7,0.9,1.5,1.1,2.5c0.2,0.9,0.3,1.9,0.3,2.9h-9.4C56.9,225.8,57.2,226.7,57.7,227.2z M61.8,220.4
		c-0.4-0.5-1.1-0.7-1.9-0.7c-0.6,0-1,0.1-1.4,0.3c-0.4,0.2-0.7,0.4-0.9,0.7c-0.2,0.3-0.4,0.6-0.5,0.9c-0.1,0.3-0.1,0.6-0.2,0.9h5.8
		C62.5,221.5,62.2,220.8,61.8,220.4z"/>
	<path d="M75.2,221.3c0-0.8,0.3-1.5,0.6-2.1c0.4-0.6,0.8-1,1.4-1.3c0.6-0.3,1.2-0.6,1.9-0.7c0.7-0.1,1.4-0.2,2.2-0.2
		c0.7,0,1.3,0,2,0.1c0.7,0.1,1.3,0.3,1.8,0.5c0.6,0.3,1,0.6,1.4,1.1c0.4,0.5,0.5,1.1,0.5,1.9v6.8c0,0.6,0,1.1,0.1,1.7
		c0.1,0.5,0.2,0.9,0.4,1.2h-3.6c-0.1-0.2-0.1-0.4-0.2-0.6c0-0.2-0.1-0.4-0.1-0.6c-0.6,0.6-1.2,1-2,1.2c-0.8,0.2-1.6,0.4-2.4,0.4
		c-0.6,0-1.2-0.1-1.7-0.2c-0.5-0.2-1-0.4-1.4-0.7c-0.4-0.3-0.7-0.7-0.9-1.2c-0.2-0.5-0.3-1.1-0.3-1.7c0-0.7,0.1-1.3,0.4-1.8
		c0.3-0.5,0.6-0.9,1-1.1c0.4-0.3,0.9-0.5,1.4-0.6c0.5-0.1,1.1-0.3,1.6-0.3c0.5-0.1,1.1-0.2,1.6-0.2c0.5-0.1,1-0.1,1.4-0.2
		s0.7-0.2,1-0.4c0.2-0.2,0.3-0.5,0.3-0.8c0-0.4-0.1-0.7-0.2-0.9c-0.1-0.2-0.3-0.4-0.5-0.5c-0.2-0.1-0.5-0.2-0.7-0.3
		c-0.3,0-0.6-0.1-0.9-0.1c-0.7,0-1.3,0.2-1.7,0.5c-0.4,0.3-0.6,0.8-0.7,1.5H75.2z M83.4,224c-0.2,0.1-0.3,0.2-0.6,0.3
		c-0.2,0.1-0.5,0.1-0.7,0.2s-0.5,0.1-0.8,0.1s-0.6,0.1-0.9,0.1c-0.3,0.1-0.5,0.1-0.8,0.2c-0.3,0.1-0.5,0.2-0.7,0.3
		c-0.2,0.1-0.3,0.3-0.5,0.5s-0.2,0.5-0.2,0.8c0,0.3,0.1,0.6,0.2,0.8s0.3,0.4,0.5,0.5c0.2,0.1,0.4,0.2,0.7,0.3
		c0.3,0.1,0.5,0.1,0.8,0.1c0.7,0,1.2-0.1,1.6-0.4s0.7-0.5,0.9-0.8c0.2-0.3,0.3-0.7,0.3-1s0.1-0.6,0.1-0.8V224z"/>
	<path d="M93.2,217.3v1.8h0.1c0.5-0.8,1-1.3,1.8-1.6c0.7-0.3,1.5-0.5,2.2-0.5c1,0,1.7,0.1,2.4,0.4c0.6,0.3,1.1,0.6,1.4,1.1
		c0.4,0.5,0.6,1,0.7,1.7c0.1,0.7,0.2,1.4,0.2,2.2v8h-3.6V223c0-1.1-0.2-1.9-0.5-2.4c-0.3-0.5-0.9-0.8-1.8-0.8c-1,0-1.7,0.3-2.1,0.9
		c-0.4,0.6-0.7,1.5-0.7,2.9v6.8h-3.6v-13H93.2z"/>
	<path d="M113.9,228.7c-0.4,0.7-1,1.2-1.6,1.5c-0.7,0.3-1.4,0.5-2.3,0.5c-1,0-1.8-0.2-2.6-0.6c-0.7-0.4-1.3-0.9-1.8-1.5
		c-0.5-0.6-0.8-1.4-1.1-2.2c-0.2-0.8-0.4-1.7-0.4-2.6c0-0.9,0.1-1.7,0.4-2.5c0.2-0.8,0.6-1.5,1.1-2.1c0.5-0.6,1.1-1.1,1.8-1.5
		c0.7-0.4,1.6-0.6,2.5-0.6c0.8,0,1.5,0.2,2.2,0.5c0.7,0.3,1.2,0.8,1.6,1.4h0v-6.5h3.6v18H114L113.9,228.7L113.9,228.7z M113.8,222.2
		c-0.1-0.5-0.3-0.9-0.5-1.3c-0.2-0.4-0.6-0.7-0.9-0.9c-0.4-0.2-0.9-0.4-1.5-0.4c-0.6,0-1.1,0.1-1.5,0.4c-0.4,0.2-0.7,0.5-1,0.9
		c-0.2,0.4-0.4,0.8-0.5,1.3c-0.1,0.5-0.2,1-0.2,1.5c0,0.5,0.1,1,0.2,1.5s0.3,1,0.6,1.3c0.3,0.4,0.6,0.7,1,1c0.4,0.2,0.9,0.4,1.4,0.4
		c0.6,0,1.1-0.1,1.5-0.4c0.4-0.2,0.7-0.5,0.9-0.9c0.2-0.4,0.4-0.8,0.5-1.3s0.2-1,0.2-1.6C113.9,223.3,113.9,222.7,113.8,222.2z"/>
</g>
<g>
	<path d="M18.3,239c1.2,0,2.2,0.2,3.2,0.6s1.9,0.9,2.6,1.7c0.7,0.7,1.3,1.7,1.7,2.8s0.6,2.4,0.6,3.9c0,1.3-0.2,2.5-0.5,3.6
		c-0.3,1.1-0.8,2.1-1.5,2.9c-0.7,0.8-1.5,1.4-2.5,1.9s-2.2,0.7-3.6,0.7h-7.7v-18H18.3z M18.1,253.6c0.6,0,1.1-0.1,1.7-0.3
		c0.5-0.2,1-0.5,1.4-0.9c0.4-0.4,0.8-1,1-1.7c0.3-0.7,0.4-1.5,0.4-2.5c0-0.9-0.1-1.7-0.3-2.5c-0.2-0.7-0.5-1.4-0.9-1.9
		s-0.9-0.9-1.6-1.2c-0.7-0.3-1.5-0.4-2.5-0.4h-2.8v11.3H18.1z"/>
	<path d="M42.6,239v3.3h-9.5v3.8h8.7v3.1h-8.7v4.4h9.7v3.3H29.2v-18H42.6z"/>
	<path d="M49.4,239l7.5,12H57v-12h3.7v18h-3.9l-7.5-12h-0.1v12h-3.7v-18H49.4z"/>
	<path d="M62.7,242.3V239h14.7v3.3h-5.4v14.6h-3.9v-14.6H62.7z"/>
	<path d="M83.5,239v18h-3.9v-18H83.5z"/>
	<path d="M89.9,252.5c0.2,0.4,0.5,0.8,0.9,1c0.4,0.3,0.8,0.5,1.3,0.6c0.5,0.1,1,0.2,1.5,0.2c0.4,0,0.7,0,1.1-0.1s0.8-0.2,1.1-0.3
		c0.4-0.2,0.6-0.4,0.9-0.7c0.2-0.3,0.4-0.7,0.4-1.1c0-0.5-0.2-0.9-0.5-1.2c-0.3-0.3-0.7-0.6-1.2-0.8c-0.5-0.2-1.1-0.4-1.7-0.5
		c-0.6-0.2-1.3-0.3-1.9-0.5c-0.7-0.2-1.3-0.4-2-0.6c-0.6-0.2-1.2-0.6-1.7-0.9c-0.5-0.4-0.9-0.9-1.2-1.4c-0.3-0.6-0.5-1.3-0.5-2.1
		c0-0.9,0.2-1.7,0.6-2.4c0.4-0.7,0.9-1.2,1.5-1.7c0.6-0.5,1.4-0.8,2.2-1s1.6-0.3,2.4-0.3c0.9,0,1.8,0.1,2.7,0.3
		c0.9,0.2,1.6,0.5,2.3,1c0.7,0.5,1.2,1.1,1.6,1.8c0.4,0.7,0.6,1.6,0.6,2.7h-3.8c0-0.5-0.1-1-0.3-1.3s-0.4-0.6-0.8-0.8
		s-0.7-0.3-1.1-0.4c-0.4-0.1-0.9-0.1-1.3-0.1c-0.3,0-0.6,0-1,0.1s-0.6,0.2-0.9,0.4c-0.3,0.2-0.5,0.4-0.6,0.6s-0.3,0.6-0.3,1
		c0,0.4,0.1,0.6,0.2,0.9c0.1,0.2,0.4,0.4,0.8,0.6c0.4,0.2,0.9,0.4,1.6,0.6s1.6,0.4,2.7,0.7c0.3,0.1,0.8,0.2,1.4,0.4
		c0.6,0.2,1.2,0.5,1.8,0.8c0.6,0.4,1.1,0.9,1.5,1.5c0.4,0.6,0.6,1.5,0.6,2.5c0,0.8-0.2,1.6-0.5,2.3s-0.8,1.3-1.4,1.8
		c-0.6,0.5-1.4,0.9-2.3,1.2c-0.9,0.3-2,0.4-3.2,0.4c-1,0-1.9-0.1-2.9-0.4c-0.9-0.2-1.8-0.6-2.5-1.1c-0.7-0.5-1.3-1.2-1.7-2
		s-0.6-1.8-0.6-2.9h3.8C89.6,251.6,89.7,252.1,89.9,252.5z"/>
	<path d="M101.8,242.3V239h14.7v3.3h-5.4v14.6h-3.9v-14.6H101.8z"/>
	<path d="M121.6,252.5c0.2,0.4,0.5,0.8,0.9,1c0.4,0.3,0.8,0.5,1.3,0.6c0.5,0.1,1,0.2,1.5,0.2c0.4,0,0.7,0,1.1-0.1s0.8-0.2,1.1-0.3
		c0.4-0.2,0.6-0.4,0.9-0.7c0.2-0.3,0.4-0.7,0.4-1.1c0-0.5-0.2-0.9-0.5-1.2c-0.3-0.3-0.7-0.6-1.2-0.8c-0.5-0.2-1.1-0.4-1.7-0.5
		c-0.6-0.2-1.3-0.3-1.9-0.5c-0.7-0.2-1.3-0.4-2-0.6c-0.6-0.2-1.2-0.6-1.7-0.9c-0.5-0.4-0.9-0.9-1.2-1.4c-0.3-0.6-0.5-1.3-0.5-2.1
		c0-0.9,0.2-1.7,0.6-2.4c0.4-0.7,0.9-1.2,1.5-1.7c0.6-0.5,1.4-0.8,2.2-1s1.6-0.3,2.4-0.3c0.9,0,1.8,0.1,2.7,0.3
		c0.9,0.2,1.6,0.5,2.3,1c0.7,0.5,1.2,1.1,1.6,1.8c0.4,0.7,0.6,1.6,0.6,2.7h-3.8c0-0.5-0.1-1-0.3-1.3s-0.4-0.6-0.8-0.8
		s-0.7-0.3-1.1-0.4c-0.4-0.1-0.9-0.1-1.3-0.1c-0.3,0-0.6,0-1,0.1s-0.6,0.2-0.9,0.4c-0.3,0.2-0.5,0.4-0.6,0.6s-0.3,0.6-0.3,1
		c0,0.4,0.1,0.6,0.2,0.9c0.1,0.2,0.4,0.4,0.8,0.6c0.4,0.2,0.9,0.4,1.6,0.6s1.6,0.4,2.7,0.7c0.3,0.1,0.8,0.2,1.4,0.4
		c0.6,0.2,1.2,0.5,1.8,0.8c0.6,0.4,1.1,0.9,1.5,1.5c0.4,0.6,0.6,1.5,0.6,2.5c0,0.8-0.2,1.6-0.5,2.3s-0.8,1.3-1.4,1.8
		c-0.6,0.5-1.4,0.9-2.3,1.2c-0.9,0.3-2,0.4-3.2,0.4c-1,0-1.9-0.1-2.9-0.4c-0.9-0.2-1.8-0.6-2.5-1.1c-0.7-0.5-1.3-1.2-1.7-2
		s-0.6-1.8-0.6-2.9h3.8C121.3,251.6,121.4,252.1,121.6,252.5z"/>
</g>
<g>
	<path class="st0" d="M16.4,272.9c-0.6,0-1,0.1-1.4,0.4c-0.4,0.3-0.7,0.6-0.9,1c-0.2,0.4-0.4,0.9-0.5,1.4c-0.1,0.5-0.2,1-0.2,1.5
		c0,0.5,0.1,0.9,0.2,1.4c0.1,0.5,0.3,0.9,0.5,1.3c0.2,0.4,0.5,0.7,0.9,1c0.4,0.3,0.9,0.4,1.4,0.4c0.9,0,1.5-0.2,2-0.7
		c0.5-0.5,0.8-1.1,0.9-1.9h3.4c-0.2,1.7-0.9,3-2,3.9s-2.5,1.4-4.2,1.4c-1,0-1.9-0.2-2.7-0.5c-0.8-0.3-1.5-0.8-2.1-1.4
		c-0.6-0.6-1-1.3-1.3-2.1s-0.5-1.7-0.5-2.7c0-1,0.1-1.9,0.4-2.8c0.3-0.9,0.7-1.6,1.3-2.2c0.6-0.6,1.3-1.1,2.1-1.5s1.8-0.5,2.8-0.5
		c0.8,0,1.5,0.1,2.2,0.3s1.3,0.5,1.9,0.9c0.6,0.4,1,0.9,1.4,1.5c0.4,0.6,0.6,1.3,0.6,2.2h-3.5C18.8,273.6,17.9,272.9,16.4,272.9z"/>
	<path class="st0" d="M24.5,274.5c0.1-0.8,0.3-1.5,0.6-2.1s0.8-1,1.4-1.3s1.2-0.6,1.9-0.7c0.7-0.1,1.4-0.2,2.1-0.2
		c0.7,0,1.3,0,2,0.1c0.7,0.1,1.3,0.3,1.8,0.5s1,0.6,1.4,1.1c0.4,0.5,0.5,1.1,0.5,1.9v6.8c0,0.6,0,1.1,0.1,1.7
		c0.1,0.5,0.2,0.9,0.4,1.2h-3.6c-0.1-0.2-0.1-0.4-0.2-0.6c0-0.2-0.1-0.4-0.1-0.6c-0.6,0.6-1.2,1-2,1.2c-0.8,0.2-1.6,0.4-2.4,0.4
		c-0.6,0-1.2-0.1-1.7-0.2c-0.5-0.2-1-0.4-1.4-0.7c-0.4-0.3-0.7-0.7-0.9-1.2c-0.2-0.5-0.3-1.1-0.3-1.7c0-0.7,0.1-1.3,0.4-1.8
		c0.3-0.5,0.6-0.9,1-1.1c0.4-0.3,0.9-0.5,1.4-0.6c0.5-0.1,1.1-0.3,1.6-0.3c0.5-0.1,1.1-0.2,1.6-0.2c0.5-0.1,1-0.1,1.4-0.2
		s0.7-0.2,1-0.4c0.2-0.2,0.3-0.5,0.3-0.8c0-0.4-0.1-0.7-0.2-0.9c-0.1-0.2-0.3-0.4-0.5-0.5c-0.2-0.1-0.5-0.2-0.7-0.3
		c-0.3,0-0.6-0.1-0.9-0.1c-0.7,0-1.3,0.2-1.7,0.5c-0.4,0.3-0.6,0.8-0.7,1.5H24.5z M32.7,277.2c-0.2,0.1-0.3,0.2-0.6,0.3
		c-0.2,0.1-0.5,0.1-0.7,0.2c-0.3,0.1-0.5,0.1-0.8,0.1c-0.3,0-0.6,0.1-0.9,0.1c-0.3,0.1-0.5,0.1-0.8,0.2c-0.3,0.1-0.5,0.2-0.7,0.3
		c-0.2,0.1-0.3,0.3-0.5,0.5c-0.1,0.2-0.2,0.5-0.2,0.8c0,0.3,0.1,0.6,0.2,0.8c0.1,0.2,0.3,0.4,0.5,0.5c0.2,0.1,0.4,0.2,0.7,0.3
		s0.5,0.1,0.8,0.1c0.7,0,1.2-0.1,1.6-0.4c0.4-0.2,0.7-0.5,0.9-0.8c0.2-0.3,0.3-0.7,0.3-1c0-0.3,0.1-0.6,0.1-0.8V277.2z"/>
	<path class="st0" d="M42.5,270.5v1.8h0.1c0.5-0.8,1-1.3,1.8-1.6c0.7-0.3,1.5-0.5,2.2-0.5c1,0,1.7,0.1,2.4,0.4
		c0.6,0.3,1.1,0.6,1.4,1.1c0.4,0.5,0.6,1,0.7,1.7c0.1,0.7,0.2,1.4,0.2,2.2v8h-3.6v-7.3c0-1.1-0.2-1.9-0.5-2.4
		c-0.3-0.5-0.9-0.8-1.8-0.8c-1,0-1.7,0.3-2.1,0.9c-0.4,0.6-0.7,1.5-0.7,2.9v6.8h-3.6v-13H42.5z"/>
</g>
<g>
	<path class="st0" d="M13.2,306.9c0.2,0.3,0.4,0.5,0.6,0.7c0.3,0.2,0.5,0.3,0.9,0.4c0.3,0.1,0.7,0.1,1,0.1c0.3,0,0.5,0,0.8-0.1
		c0.3-0.1,0.5-0.2,0.8-0.3c0.2-0.1,0.4-0.3,0.6-0.5c0.2-0.2,0.2-0.5,0.2-0.8c0-0.5-0.4-0.9-1.1-1.2c-0.7-0.3-1.7-0.5-3-0.8
		c-0.5-0.1-1-0.3-1.5-0.4c-0.5-0.2-0.9-0.4-1.3-0.6c-0.4-0.3-0.7-0.6-0.9-1c-0.2-0.4-0.4-0.9-0.4-1.4c0-0.8,0.2-1.5,0.5-2.1
		c0.3-0.5,0.8-1,1.3-1.3c0.5-0.3,1.1-0.5,1.8-0.7c0.7-0.1,1.4-0.2,2.1-0.2s1.4,0.1,2,0.2c0.7,0.1,1.3,0.4,1.8,0.7s1,0.7,1.3,1.3
		c0.3,0.5,0.5,1.2,0.6,2h-3.4c-0.1-0.7-0.3-1.2-0.8-1.4c-0.5-0.2-1-0.4-1.7-0.4c-0.2,0-0.4,0-0.7,0c-0.2,0-0.4,0.1-0.6,0.2
		c-0.2,0.1-0.4,0.2-0.5,0.4c-0.1,0.2-0.2,0.4-0.2,0.6c0,0.3,0.1,0.6,0.4,0.8c0.2,0.2,0.5,0.4,0.9,0.5c0.4,0.1,0.8,0.2,1.3,0.3
		s1,0.2,1.5,0.3c0.5,0.1,1,0.3,1.5,0.4c0.5,0.2,0.9,0.4,1.3,0.7c0.4,0.3,0.7,0.6,0.9,1c0.2,0.4,0.4,0.9,0.4,1.5
		c0,0.9-0.2,1.6-0.5,2.1s-0.8,1-1.3,1.4c-0.6,0.4-1.2,0.6-1.9,0.7s-1.4,0.2-2.2,0.2c-0.8,0-1.5-0.1-2.2-0.2s-1.4-0.4-1.9-0.8
		c-0.6-0.4-1-0.8-1.4-1.4c-0.4-0.6-0.6-1.3-0.6-2.2H13C13,306.3,13.1,306.6,13.2,306.9z"/>
	<path class="st0" d="M23.8,300.8c0.3-0.8,0.8-1.6,1.4-2.2c0.6-0.6,1.3-1.1,2.1-1.4c0.8-0.3,1.7-0.5,2.8-0.5s1.9,0.2,2.8,0.5
		c0.8,0.3,1.5,0.8,2.1,1.4c0.6,0.6,1,1.3,1.4,2.2c0.3,0.8,0.5,1.8,0.5,2.8s-0.2,2-0.5,2.8c-0.3,0.8-0.8,1.6-1.4,2.1
		c-0.6,0.6-1.3,1.1-2.1,1.4c-0.8,0.3-1.8,0.5-2.8,0.5s-1.9-0.2-2.8-0.5c-0.8-0.3-1.5-0.8-2.1-1.4c-0.6-0.6-1-1.3-1.4-2.1
		s-0.5-1.8-0.5-2.8S23.5,301.7,23.8,300.8z M27,305.2c0.1,0.5,0.3,0.9,0.5,1.3c0.2,0.4,0.6,0.7,1,0.9c0.4,0.2,0.9,0.4,1.5,0.4
		s1.1-0.1,1.5-0.4c0.4-0.2,0.7-0.5,1-0.9c0.2-0.4,0.4-0.8,0.5-1.3s0.2-1,0.2-1.5s-0.1-1-0.2-1.5s-0.3-0.9-0.5-1.3s-0.6-0.7-1-0.9
		c-0.4-0.2-0.9-0.4-1.5-0.4s-1.1,0.1-1.5,0.4c-0.4,0.2-0.7,0.6-1,0.9c-0.2,0.4-0.4,0.8-0.5,1.3s-0.2,1-0.2,1.5S26.9,304.7,27,305.2z
		"/>
	<path class="st0" d="M42.5,297.2v1.8h0.1c0.5-0.7,1-1.2,1.7-1.6c0.7-0.4,1.4-0.6,2.3-0.6c0.8,0,1.6,0.2,2.3,0.5
		c0.7,0.3,1.2,0.9,1.5,1.7c0.4-0.6,0.9-1.1,1.6-1.5c0.7-0.4,1.4-0.7,2.4-0.7c0.7,0,1.3,0.1,1.9,0.3c0.6,0.2,1.1,0.4,1.5,0.8
		c0.4,0.4,0.7,0.9,1,1.4c0.2,0.6,0.4,1.3,0.4,2.1v8.7h-3.6v-7.4c0-0.4,0-0.8-0.1-1.2s-0.1-0.7-0.3-1c-0.2-0.3-0.4-0.5-0.7-0.7
		c-0.3-0.2-0.7-0.3-1.2-0.3s-0.9,0.1-1.2,0.3c-0.3,0.2-0.6,0.4-0.7,0.8c-0.2,0.3-0.3,0.7-0.4,1.1c-0.1,0.4-0.1,0.8-0.1,1.2v7.2h-3.6
		v-7.3c0-0.4,0-0.8,0-1.1c0-0.4-0.1-0.7-0.2-1c-0.1-0.3-0.3-0.6-0.6-0.8c-0.3-0.2-0.7-0.3-1.3-0.3c-0.2,0-0.4,0-0.7,0.1
		c-0.3,0.1-0.5,0.2-0.8,0.4c-0.3,0.2-0.5,0.5-0.7,0.9c-0.2,0.4-0.3,0.9-0.3,1.5v7.5h-3.6v-13H42.5z"/>
	<path class="st0" d="M65.7,307c0.5,0.5,1.3,0.8,2.3,0.8c0.7,0,1.3-0.2,1.9-0.5s0.8-0.7,1-1.1h3.1c-0.5,1.6-1.3,2.7-2.3,3.3
		s-2.3,1-3.8,1c-1,0-1.9-0.2-2.8-0.5c-0.8-0.3-1.5-0.8-2.1-1.4s-1-1.3-1.3-2.2c-0.3-0.8-0.5-1.8-0.5-2.8c0-1,0.2-1.9,0.5-2.7
		c0.3-0.8,0.8-1.6,1.4-2.2c0.6-0.6,1.3-1.1,2.1-1.4c0.8-0.4,1.7-0.5,2.7-0.5c1.1,0,2.1,0.2,2.9,0.6c0.8,0.4,1.5,1,2,1.7
		c0.5,0.7,0.9,1.5,1.1,2.5c0.2,0.9,0.3,1.9,0.2,2.9h-9.4C64.8,305.7,65.1,306.5,65.7,307z M69.7,300.2c-0.4-0.5-1.1-0.7-1.9-0.7
		c-0.6,0-1,0.1-1.4,0.3s-0.7,0.4-0.9,0.7c-0.2,0.3-0.4,0.6-0.5,0.9s-0.1,0.6-0.2,0.9h5.8C70.4,301.4,70.1,300.7,69.7,300.2z"/>
	<path class="st0" d="M83.4,297.2v2.4h-2.6v6.4c0,0.6,0.1,1,0.3,1.2c0.2,0.2,0.6,0.3,1.2,0.3c0.2,0,0.4,0,0.6,0s0.4,0,0.5-0.1v2.8
		c-0.3,0-0.6,0.1-1,0.1c-0.4,0-0.7,0-1.1,0c-0.6,0-1.1,0-1.6-0.1c-0.5-0.1-0.9-0.2-1.3-0.4c-0.4-0.2-0.7-0.5-0.9-0.9
		c-0.2-0.4-0.3-0.9-0.3-1.6v-7.7h-2.2v-2.4h2.2v-3.9h3.6v3.9H83.4z"/>
	<path class="st0" d="M85.2,295.1v-2.9h3.6v2.9H85.2z M88.8,297.2v13h-3.6v-13H88.8z"/>
	<path class="st0" d="M95.1,297.2v1.8h0c0.5-0.7,1-1.2,1.7-1.6c0.7-0.4,1.4-0.6,2.3-0.6c0.8,0,1.6,0.2,2.3,0.5s1.2,0.9,1.5,1.7
		c0.4-0.6,0.9-1.1,1.6-1.5c0.7-0.4,1.4-0.7,2.4-0.7c0.7,0,1.3,0.1,1.9,0.3c0.6,0.2,1.1,0.4,1.5,0.8c0.4,0.4,0.7,0.9,1,1.4
		c0.2,0.6,0.4,1.3,0.4,2.1v8.7H108v-7.4c0-0.4,0-0.8,0-1.2c0-0.4-0.1-0.7-0.3-1c-0.2-0.3-0.4-0.5-0.7-0.7c-0.3-0.2-0.7-0.3-1.2-0.3
		s-0.9,0.1-1.2,0.3c-0.3,0.2-0.6,0.4-0.7,0.8c-0.2,0.3-0.3,0.7-0.4,1.1c-0.1,0.4-0.1,0.8-0.1,1.2v7.2h-3.6v-7.3c0-0.4,0-0.8,0-1.1
		c0-0.4-0.1-0.7-0.2-1s-0.3-0.6-0.6-0.8c-0.3-0.2-0.7-0.3-1.3-0.3c-0.2,0-0.4,0-0.7,0.1c-0.3,0.1-0.5,0.2-0.8,0.4
		c-0.3,0.2-0.5,0.5-0.7,0.9c-0.2,0.4-0.3,0.9-0.3,1.5v7.5h-3.6v-13H95.1z"/>
	<path class="st0" d="M118.2,307c0.5,0.5,1.3,0.8,2.3,0.8c0.7,0,1.3-0.2,1.9-0.5s0.8-0.7,1-1.1h3.1c-0.5,1.6-1.3,2.7-2.3,3.3
		c-1,0.7-2.3,1-3.8,1c-1,0-1.9-0.2-2.8-0.5c-0.8-0.3-1.5-0.8-2.1-1.4c-0.6-0.6-1-1.3-1.3-2.2c-0.3-0.8-0.5-1.8-0.5-2.8
		c0-1,0.2-1.9,0.5-2.7c0.3-0.8,0.8-1.6,1.4-2.2c0.6-0.6,1.3-1.1,2.1-1.4s1.7-0.5,2.7-0.5c1.1,0,2.1,0.2,2.9,0.6c0.8,0.4,1.5,1,2,1.7
		c0.5,0.7,0.9,1.5,1.1,2.5c0.2,0.9,0.3,1.9,0.3,2.9h-9.4C117.4,305.7,117.7,306.5,118.2,307z M122.3,300.2c-0.4-0.5-1.1-0.7-1.9-0.7
		c-0.6,0-1,0.1-1.4,0.3c-0.4,0.2-0.7,0.4-0.9,0.7c-0.2,0.3-0.4,0.6-0.5,0.9s-0.1,0.6-0.2,0.9h5.8C123,301.4,122.7,300.7,122.3,300.2
		z"/>
	<path class="st0" d="M131.8,306.9c0.2,0.3,0.4,0.5,0.6,0.7c0.3,0.2,0.5,0.3,0.9,0.4c0.3,0.1,0.7,0.1,1,0.1c0.3,0,0.5,0,0.8-0.1
		c0.3-0.1,0.5-0.2,0.8-0.3c0.2-0.1,0.4-0.3,0.6-0.5c0.2-0.2,0.2-0.5,0.2-0.8c0-0.5-0.4-0.9-1.1-1.2c-0.7-0.3-1.7-0.5-3-0.8
		c-0.5-0.1-1-0.3-1.5-0.4c-0.5-0.2-0.9-0.4-1.3-0.6s-0.7-0.6-0.9-1c-0.2-0.4-0.4-0.9-0.4-1.4c0-0.8,0.2-1.5,0.5-2.1
		c0.3-0.5,0.8-1,1.3-1.3c0.5-0.3,1.1-0.5,1.8-0.7c0.7-0.1,1.4-0.2,2.1-0.2s1.4,0.1,2,0.2c0.7,0.1,1.3,0.4,1.8,0.7
		c0.5,0.3,1,0.7,1.3,1.3c0.3,0.5,0.5,1.2,0.6,2h-3.4c-0.1-0.7-0.3-1.2-0.8-1.4c-0.5-0.2-1-0.4-1.7-0.4c-0.2,0-0.4,0-0.7,0
		c-0.2,0-0.4,0.1-0.6,0.2c-0.2,0.1-0.4,0.2-0.5,0.4c-0.1,0.2-0.2,0.4-0.2,0.6c0,0.3,0.1,0.6,0.4,0.8c0.2,0.2,0.5,0.4,0.9,0.5
		s0.8,0.2,1.3,0.3s1,0.2,1.5,0.3c0.5,0.1,1,0.3,1.5,0.4c0.5,0.2,0.9,0.4,1.3,0.7c0.4,0.3,0.7,0.6,0.9,1c0.2,0.4,0.4,0.9,0.4,1.5
		c0,0.9-0.2,1.6-0.5,2.1s-0.8,1-1.3,1.4c-0.6,0.4-1.2,0.6-1.9,0.7c-0.7,0.1-1.4,0.2-2.2,0.2c-0.8,0-1.5-0.1-2.2-0.2
		c-0.7-0.2-1.4-0.4-1.9-0.8c-0.6-0.4-1-0.8-1.4-1.4c-0.4-0.6-0.6-1.3-0.6-2.2h3.4C131.6,306.3,131.7,306.6,131.8,306.9z"/>
</g>
<g>
	<path class="st0" d="M22.1,323.6c-0.2-0.4-0.5-0.7-0.9-1s-0.8-0.5-1.2-0.7c-0.4-0.2-0.9-0.2-1.4-0.2c-0.9,0-1.6,0.2-2.3,0.5
		s-1.1,0.8-1.5,1.4c-0.4,0.6-0.7,1.2-0.8,2c-0.2,0.7-0.3,1.5-0.3,2.3c0,0.8,0.1,1.5,0.3,2.2c0.2,0.7,0.5,1.4,0.8,1.9
		c0.4,0.6,0.9,1,1.5,1.4s1.4,0.5,2.3,0.5c1.2,0,2.1-0.4,2.8-1.1c0.7-0.7,1.1-1.7,1.2-2.9h3.8c-0.1,1.1-0.4,2.1-0.8,3
		c-0.4,0.9-1,1.7-1.7,2.3c-0.7,0.6-1.5,1.1-2.4,1.5s-1.9,0.5-3,0.5c-1.4,0-2.6-0.2-3.7-0.7s-2-1.1-2.8-2s-1.3-1.8-1.7-3
		c-0.4-1.1-0.6-2.4-0.6-3.7c0-1.3,0.2-2.6,0.6-3.7s1-2.2,1.7-3c0.8-0.9,1.7-1.5,2.8-2s2.3-0.7,3.7-0.7c1,0,1.9,0.1,2.8,0.4
		s1.7,0.7,2.4,1.2c0.7,0.5,1.3,1.2,1.7,2s0.7,1.7,0.9,2.8h-3.8C22.5,324.4,22.3,324,22.1,323.6z"/>
	<path class="st0" d="M33.2,318.8v6.9h7.3v-6.9h3.9v18h-3.9V329h-7.3v7.7h-3.9v-18H33.2z"/>
	<path class="st0" d="M56.8,318.8l6.7,18h-4.1l-1.4-4h-6.7l-1.4,4h-4l6.8-18H56.8z M57,329.8l-2.3-6.6h-0.1l-2.3,6.6H57z"/>
	<path class="st0" d="M69,318.8l7.5,12h0.1v-12h3.7v18h-3.9l-7.5-12h0v12h-3.7v-18H69z"/>
	<path class="st0" d="M94.3,336.6c-0.9,0.4-1.7,0.5-2.6,0.5c-1.4,0-2.6-0.2-3.7-0.7s-2-1.1-2.8-2s-1.3-1.8-1.7-3
		c-0.4-1.1-0.6-2.4-0.6-3.7c0-1.3,0.2-2.6,0.6-3.7s1-2.2,1.7-3c0.8-0.9,1.7-1.5,2.8-2s2.3-0.7,3.7-0.7c0.9,0,1.8,0.1,2.7,0.4
		s1.6,0.7,2.3,1.2c0.7,0.5,1.3,1.2,1.7,2c0.5,0.8,0.7,1.7,0.8,2.7h-3.8c-0.2-1-0.7-1.8-1.4-2.3c-0.7-0.5-1.5-0.8-2.4-0.8
		c-0.9,0-1.6,0.2-2.3,0.5c-0.6,0.3-1.1,0.8-1.5,1.4c-0.4,0.6-0.7,1.2-0.8,2c-0.2,0.7-0.3,1.5-0.3,2.3c0,0.8,0.1,1.5,0.3,2.2
		c0.2,0.7,0.5,1.4,0.8,1.9c0.4,0.6,0.9,1,1.5,1.4c0.6,0.3,1.4,0.5,2.3,0.5c1.3,0,2.3-0.3,3-1c0.7-0.7,1.1-1.6,1.2-2.9h-4v-2.9h7.5
		v9.7h-2.5l-0.4-2C96,335.6,95.2,336.3,94.3,336.6z"/>
	<path class="st0" d="M116.2,318.8v3.3h-9.5v3.8h8.7v3.1h-8.7v4.4h9.7v3.3h-13.6v-18H116.2z"/>
</g>
</svg>
