<?xml version="1.0" encoding="utf-8"?>
<!-- Generator: Adobe Illustrator 25.4.1, SVG Export Plug-In . SVG Version: 6.00 Build 0)  -->
<svg version="1.1" id="Layer_1" xmlns="http://www.w3.org/2000/svg" xmlns:xlink="http://www.w3.org/1999/xlink" x="0px" y="0px"
	 viewBox="0 0 160 600" style="enable-background:new 0 0 160 600;" xml:space="preserve">
<g>
	<path d="M16.4,134l3.8,11.3h0l3.6-11.3H29v16.4h-3.4v-11.6h0l-4,11.6h-2.8l-4-11.5h0v11.5h-3.4V134H16.4z"/>
	<path d="M31.5,142.2c0-0.8,0.2-1.4,0.6-1.9c0.3-0.5,0.8-0.9,1.3-1.2s1.1-0.5,1.8-0.7c0.7-0.1,1.3-0.2,2-0.2c0.6,0,1.2,0,1.8,0.1
		c0.6,0.1,1.2,0.2,1.7,0.5s0.9,0.6,1.2,1c0.3,0.4,0.5,1,0.5,1.7v6.2c0,0.5,0,1.1,0.1,1.5c0.1,0.5,0.2,0.9,0.3,1.1h-3.3
		c-0.1-0.2-0.1-0.4-0.1-0.6c0-0.2-0.1-0.4-0.1-0.6c-0.5,0.5-1.1,0.9-1.8,1.1s-1.4,0.3-2.2,0.3c-0.6,0-1.1-0.1-1.6-0.2
		c-0.5-0.1-0.9-0.4-1.3-0.6c-0.4-0.3-0.7-0.7-0.9-1.1s-0.3-1-0.3-1.6c0-0.7,0.1-1.2,0.4-1.7s0.5-0.8,0.9-1c0.4-0.3,0.8-0.5,1.3-0.6
		c0.5-0.1,1-0.2,1.5-0.3c0.5-0.1,1-0.1,1.4-0.2c0.5,0,0.9-0.1,1.3-0.2c0.4-0.1,0.7-0.2,0.9-0.4c0.2-0.2,0.3-0.4,0.3-0.8
		c0-0.4-0.1-0.6-0.2-0.8c-0.1-0.2-0.3-0.4-0.5-0.5c-0.2-0.1-0.4-0.2-0.7-0.2c-0.3,0-0.5-0.1-0.8-0.1c-0.6,0-1.2,0.1-1.5,0.4
		c-0.4,0.3-0.6,0.7-0.6,1.4H31.5z M39,144.6c-0.1,0.1-0.3,0.2-0.5,0.3c-0.2,0.1-0.4,0.1-0.7,0.2s-0.5,0.1-0.7,0.1
		c-0.3,0-0.5,0.1-0.8,0.1c-0.2,0-0.5,0.1-0.7,0.2s-0.4,0.2-0.6,0.3s-0.3,0.3-0.4,0.5c-0.1,0.2-0.2,0.5-0.2,0.8
		c0,0.3,0.1,0.5,0.2,0.7c0.1,0.2,0.3,0.4,0.4,0.5c0.2,0.1,0.4,0.2,0.6,0.2c0.2,0,0.5,0.1,0.8,0.1c0.6,0,1.1-0.1,1.5-0.3
		c0.4-0.2,0.6-0.5,0.8-0.8c0.2-0.3,0.3-0.6,0.3-0.9s0.1-0.6,0.1-0.7V144.6z"/>
	<path d="M48.2,134v8.8l4.1-4.3h3.9l-4.5,4.4l5,7.5h-4l-3.3-5.3l-1.3,1.2v4.1h-3.3V134H48.2z"/>
	<path d="M57.7,136.7V134H61v2.7H57.7z M61,138.5v11.9h-3.3v-11.9H61z"/>
	<path d="M66.4,138.5v1.7h0.1c0.4-0.7,0.9-1.2,1.6-1.5c0.7-0.3,1.3-0.5,2-0.5c0.9,0,1.6,0.1,2.2,0.4c0.6,0.2,1,0.6,1.3,1
		c0.3,0.4,0.5,0.9,0.7,1.5c0.1,0.6,0.2,1.3,0.2,2v7.3h-3.3v-6.7c0-1-0.2-1.7-0.5-2.2s-0.8-0.7-1.6-0.7c-0.9,0-1.5,0.3-1.9,0.8
		c-0.4,0.5-0.6,1.4-0.6,2.6v6.2h-3.3v-11.9H66.4z"/>
	<path d="M88,151.3c-0.1,0.6-0.4,1.2-0.8,1.7c-0.4,0.5-1,1-1.9,1.3c-0.8,0.4-1.9,0.6-3.3,0.6c-0.6,0-1.2-0.1-1.8-0.2
		c-0.6-0.1-1.2-0.4-1.7-0.7s-0.9-0.7-1.2-1.2c-0.3-0.5-0.5-1.1-0.6-1.7H80c0.2,0.6,0.5,1,0.9,1.3c0.4,0.2,1,0.4,1.5,0.4
		c0.9,0,1.6-0.3,2-0.8c0.4-0.6,0.6-1.2,0.6-2.1v-1.6h0c-0.4,0.6-0.9,1.1-1.5,1.4c-0.7,0.3-1.3,0.4-2.1,0.4c-0.9,0-1.7-0.2-2.3-0.5
		c-0.6-0.3-1.2-0.7-1.6-1.3c-0.4-0.5-0.7-1.2-0.9-1.9c-0.2-0.7-0.3-1.5-0.3-2.3c0-0.8,0.1-1.5,0.3-2.2c0.2-0.7,0.5-1.3,1-1.9
		c0.4-0.5,1-1,1.6-1.3c0.6-0.3,1.4-0.5,2.2-0.5c0.8,0,1.5,0.1,2.1,0.4c0.6,0.3,1.1,0.8,1.5,1.5h0v-1.6h3.1v11.1
		C88.2,150.1,88.1,150.7,88,151.3z M83.5,147.3c0.4-0.2,0.6-0.4,0.9-0.7c0.2-0.3,0.4-0.7,0.5-1c0.1-0.4,0.2-0.8,0.2-1.2
		c0-0.5,0-1-0.1-1.4c-0.1-0.4-0.2-0.8-0.5-1.2c-0.2-0.3-0.5-0.6-0.9-0.8c-0.4-0.2-0.8-0.3-1.3-0.3c-0.5,0-0.9,0.1-1.2,0.3
		c-0.3,0.2-0.6,0.4-0.8,0.7c-0.2,0.3-0.4,0.7-0.5,1.1s-0.1,0.8-0.1,1.3c0,0.4,0,0.9,0.1,1.3c0.1,0.4,0.2,0.8,0.4,1.1
		c0.2,0.3,0.5,0.6,0.8,0.8c0.3,0.2,0.8,0.3,1.3,0.3C82.7,147.6,83.1,147.5,83.5,147.3z"/>
	<path d="M99.5,147.5c0.1,0.3,0.3,0.5,0.6,0.6c0.2,0.2,0.5,0.3,0.8,0.4c0.3,0.1,0.6,0.1,0.9,0.1c0.2,0,0.5,0,0.7-0.1
		s0.5-0.1,0.7-0.3c0.2-0.1,0.4-0.3,0.5-0.5c0.1-0.2,0.2-0.4,0.2-0.7c0-0.5-0.3-0.9-1-1.1s-1.6-0.5-2.7-0.7c-0.5-0.1-0.9-0.2-1.4-0.4
		c-0.5-0.1-0.9-0.3-1.2-0.6c-0.4-0.2-0.6-0.5-0.9-0.9s-0.3-0.8-0.3-1.3c0-0.8,0.1-1.4,0.4-1.9s0.7-0.9,1.2-1.2
		c0.5-0.3,1-0.5,1.7-0.6c0.6-0.1,1.2-0.2,1.9-0.2c0.6,0,1.3,0.1,1.9,0.2s1.1,0.3,1.6,0.6c0.5,0.3,0.9,0.7,1.2,1.2
		c0.3,0.5,0.5,1.1,0.6,1.8h-3.1c0-0.6-0.3-1.1-0.7-1.3c-0.4-0.2-0.9-0.3-1.5-0.3c-0.2,0-0.4,0-0.6,0s-0.4,0.1-0.6,0.1
		c-0.2,0.1-0.3,0.2-0.4,0.3c-0.1,0.1-0.2,0.3-0.2,0.6c0,0.3,0.1,0.5,0.3,0.7c0.2,0.2,0.5,0.3,0.8,0.4c0.3,0.1,0.7,0.2,1.2,0.3
		c0.4,0.1,0.9,0.2,1.4,0.3c0.5,0.1,0.9,0.2,1.4,0.4c0.5,0.2,0.9,0.4,1.2,0.6s0.6,0.6,0.9,0.9c0.2,0.4,0.3,0.8,0.3,1.4
		c0,0.8-0.2,1.4-0.5,2c-0.3,0.5-0.7,1-1.2,1.3c-0.5,0.3-1.1,0.5-1.7,0.7c-0.7,0.1-1.3,0.2-2,0.2c-0.7,0-1.4-0.1-2-0.2
		c-0.7-0.1-1.2-0.4-1.8-0.7c-0.5-0.3-0.9-0.7-1.3-1.3c-0.3-0.5-0.5-1.2-0.5-2h3.1C99.3,146.9,99.3,147.2,99.5,147.5z"/>
	<path d="M116.9,150.4v-1.7h-0.1c-0.4,0.7-1,1.2-1.6,1.5c-0.7,0.3-1.3,0.5-2,0.5c-0.9,0-1.6-0.1-2.2-0.3s-1-0.6-1.3-1
		c-0.3-0.4-0.5-0.9-0.7-1.5c-0.1-0.6-0.2-1.3-0.2-2v-7.3h3.3v6.7c0,1,0.2,1.7,0.5,2.2s0.9,0.7,1.6,0.7c0.9,0,1.5-0.3,1.9-0.8
		c0.4-0.5,0.6-1.4,0.6-2.6v-6.2h3.3v11.9H116.9z"/>
	<path d="M125.4,138.5v2.2h0c0.2-0.4,0.4-0.7,0.6-1c0.3-0.3,0.6-0.6,0.9-0.8c0.3-0.2,0.7-0.4,1.1-0.5c0.4-0.1,0.8-0.2,1.2-0.2
		c0.2,0,0.5,0,0.7,0.1v3c-0.2,0-0.3-0.1-0.6-0.1s-0.4,0-0.6,0c-0.6,0-1.1,0.1-1.5,0.3s-0.7,0.5-1,0.8c-0.3,0.3-0.4,0.7-0.5,1.2
		s-0.2,1-0.2,1.5v5.4h-3.3v-11.9H125.4z"/>
	<path d="M134.1,147.6c0.5,0.5,1.2,0.7,2.1,0.7c0.7,0,1.2-0.2,1.7-0.5s0.8-0.7,0.9-1h2.9c-0.5,1.4-1.2,2.4-2.1,3.1
		c-1,0.6-2.1,0.9-3.5,0.9c-0.9,0-1.8-0.1-2.5-0.4c-0.8-0.3-1.4-0.7-1.9-1.3c-0.5-0.6-0.9-1.2-1.2-2c-0.3-0.8-0.4-1.6-0.4-2.5
		c0-0.9,0.1-1.7,0.4-2.5c0.3-0.8,0.7-1.4,1.2-2c0.5-0.6,1.2-1,1.9-1.3c0.7-0.3,1.6-0.5,2.5-0.5c1,0,1.9,0.2,2.6,0.6s1.4,0.9,1.9,1.6
		c0.5,0.7,0.8,1.4,1,2.3c0.2,0.8,0.3,1.7,0.2,2.6h-8.6C133.4,146.3,133.6,147.1,134.1,147.6z M137.8,141.3c-0.4-0.4-1-0.6-1.8-0.6
		c-0.5,0-1,0.1-1.3,0.3s-0.6,0.4-0.8,0.7s-0.4,0.5-0.4,0.8c-0.1,0.3-0.1,0.6-0.1,0.8h5.3C138.5,142.4,138.2,141.7,137.8,141.3z"/>
</g>
<g>
	<path d="M15.3,180c-0.6,0.4-1.5,0.6-2.6,0.6c-0.3,0-0.7,0-1,0c-0.3,0-0.7,0-1-0.1v-2.7c0.3,0,0.6,0.1,0.9,0.1c0.3,0,0.6,0,1,0
		c0.4,0,0.7-0.2,1-0.5s0.3-0.6,0.3-1c0-0.3,0-0.5-0.1-0.7l-4.2-11.2h3.5l2.7,8.1h0l2.6-8.1h3.4l-5,13.4
		C16.5,178.9,16,179.5,15.3,180z"/>
	<path d="M22.7,167.9c0.3-0.8,0.7-1.4,1.2-2c0.5-0.5,1.2-1,1.9-1.3c0.8-0.3,1.6-0.4,2.5-0.4c0.9,0,1.8,0.1,2.5,0.4
		c0.8,0.3,1.4,0.7,1.9,1.3c0.5,0.5,1,1.2,1.2,2c0.3,0.8,0.4,1.6,0.4,2.6c0,1-0.1,1.8-0.4,2.6c-0.3,0.8-0.7,1.4-1.2,2
		c-0.5,0.5-1.2,1-1.9,1.3c-0.8,0.3-1.6,0.4-2.5,0.4c-0.9,0-1.8-0.1-2.5-0.4c-0.8-0.3-1.4-0.7-1.9-1.3c-0.5-0.5-1-1.2-1.2-2
		c-0.3-0.8-0.4-1.6-0.4-2.6C22.3,169.5,22.5,168.7,22.7,167.9z M25.7,171.9c0.1,0.5,0.2,0.9,0.5,1.2c0.2,0.4,0.5,0.6,0.9,0.9
		c0.4,0.2,0.8,0.3,1.4,0.3c0.6,0,1-0.1,1.4-0.3c0.4-0.2,0.7-0.5,0.9-0.9c0.2-0.4,0.4-0.8,0.5-1.2c0.1-0.5,0.1-0.9,0.1-1.4
		c0-0.5,0-0.9-0.1-1.4c-0.1-0.5-0.2-0.9-0.5-1.2c-0.2-0.4-0.5-0.6-0.9-0.9c-0.4-0.2-0.8-0.3-1.4-0.3c-0.6,0-1,0.1-1.4,0.3
		c-0.4,0.2-0.7,0.5-0.9,0.9c-0.2,0.4-0.4,0.8-0.5,1.2c-0.1,0.5-0.1,0.9-0.1,1.4C25.6,171,25.6,171.4,25.7,171.9z"/>
	<path d="M44.6,176.4v-1.7h-0.1c-0.4,0.7-1,1.2-1.6,1.5s-1.3,0.5-2,0.5c-0.9,0-1.6-0.1-2.2-0.3c-0.6-0.2-1-0.6-1.3-1
		c-0.3-0.4-0.5-0.9-0.7-1.5c-0.1-0.6-0.2-1.3-0.2-2v-7.3h3.3v6.7c0,1,0.2,1.7,0.5,2.2s0.9,0.7,1.6,0.7c0.9,0,1.5-0.3,1.9-0.8
		c0.4-0.5,0.6-1.4,0.6-2.6v-6.2h3.3v11.9H44.6z"/>
	<path d="M53.1,164.5v2.2h0c0.2-0.4,0.4-0.7,0.6-1c0.3-0.3,0.6-0.6,0.9-0.8c0.3-0.2,0.7-0.4,1.1-0.5c0.4-0.1,0.8-0.2,1.2-0.2
		c0.2,0,0.5,0,0.7,0.1v3c-0.2,0-0.3-0.1-0.6-0.1c-0.2,0-0.4,0-0.6,0c-0.6,0-1.1,0.1-1.5,0.3s-0.7,0.5-1,0.8s-0.4,0.7-0.5,1.2
		c-0.1,0.5-0.2,1-0.2,1.5v5.4H50v-11.9H53.1z"/>
	<path d="M68.2,160v16.4H65V160H68.2z"/>
	<path d="M70.7,162.7V160h3.3v2.7H70.7z M73.9,164.5v11.9h-3.3v-11.9H73.9z"/>
	<path d="M75,166.7v-2.2h2v-0.9c0-1.1,0.3-1.9,1-2.6c0.7-0.7,1.7-1,3-1c0.3,0,0.6,0,0.9,0c0.3,0,0.6,0,0.9,0.1v2.4
		c-0.4,0-0.8-0.1-1.2-0.1c-0.4,0-0.8,0.1-1,0.3c-0.2,0.2-0.3,0.6-0.3,1v0.7h2.3v2.2h-2.3v9.7H77v-9.7H75z"/>
	<path d="M87.2,173.6c0.5,0.5,1.2,0.7,2.1,0.7c0.7,0,1.2-0.2,1.7-0.5s0.8-0.7,0.9-1h2.9c-0.5,1.4-1.2,2.4-2.1,3.1
		c-1,0.6-2.1,0.9-3.5,0.9c-0.9,0-1.8-0.1-2.5-0.4c-0.8-0.3-1.4-0.7-1.9-1.3c-0.5-0.6-0.9-1.2-1.2-2c-0.3-0.8-0.4-1.6-0.4-2.5
		c0-0.9,0.1-1.7,0.4-2.5c0.3-0.8,0.7-1.4,1.2-2c0.5-0.6,1.2-1,1.9-1.3c0.7-0.3,1.6-0.5,2.5-0.5c1,0,1.9,0.2,2.6,0.6s1.4,0.9,1.9,1.6
		c0.5,0.7,0.8,1.4,1,2.3c0.2,0.8,0.3,1.7,0.2,2.6h-8.6C86.5,172.3,86.7,173.1,87.2,173.6z M90.9,167.3c-0.4-0.4-1-0.6-1.8-0.6
		c-0.5,0-1,0.1-1.3,0.3s-0.6,0.4-0.8,0.7s-0.4,0.5-0.4,0.8c-0.1,0.3-0.1,0.6-0.1,0.8h5.3C91.6,168.4,91.3,167.7,90.9,167.3z"/>
</g>
<g>
	<path d="M11,188.7V186h3.3v2.7H11z M14.3,190.5v11.9H11v-11.9H14.3z"/>
	<path d="M19.8,190.5v1.7h0.1c0.4-0.7,1-1.2,1.6-1.5c0.7-0.3,1.3-0.5,2-0.5c0.9,0,1.6,0.1,2.2,0.4c0.6,0.2,1,0.6,1.3,1
		c0.3,0.4,0.5,0.9,0.7,1.5c0.1,0.6,0.2,1.3,0.2,2v7.3h-3.3v-6.7c0-1-0.2-1.7-0.5-2.2s-0.9-0.7-1.6-0.7c-0.9,0-1.5,0.3-1.9,0.8
		c-0.4,0.5-0.6,1.4-0.6,2.6v6.2h-3.3v-11.9H19.8z"/>
	<path d="M32.9,199.4c0.1,0.3,0.3,0.5,0.6,0.6s0.5,0.3,0.8,0.4c0.3,0.1,0.6,0.1,0.9,0.1c0.2,0,0.5,0,0.7-0.1s0.5-0.1,0.7-0.3
		c0.2-0.1,0.4-0.3,0.5-0.5c0.1-0.2,0.2-0.4,0.2-0.7c0-0.5-0.3-0.9-1-1.1s-1.6-0.5-2.7-0.7c-0.5-0.1-0.9-0.2-1.4-0.4
		c-0.5-0.1-0.9-0.3-1.2-0.6c-0.4-0.2-0.6-0.5-0.9-0.9c-0.2-0.4-0.3-0.8-0.3-1.3c0-0.8,0.1-1.4,0.4-1.9c0.3-0.5,0.7-0.9,1.2-1.2
		c0.5-0.3,1-0.5,1.7-0.6c0.6-0.1,1.2-0.2,1.9-0.2s1.3,0.1,1.9,0.2c0.6,0.1,1.1,0.3,1.6,0.6c0.5,0.3,0.9,0.7,1.2,1.2s0.5,1.1,0.6,1.8
		h-3.1c0-0.6-0.3-1.1-0.7-1.3s-0.9-0.3-1.5-0.3c-0.2,0-0.4,0-0.6,0c-0.2,0-0.4,0.1-0.6,0.1c-0.2,0.1-0.3,0.2-0.4,0.3
		c-0.1,0.1-0.2,0.3-0.2,0.6c0,0.3,0.1,0.5,0.3,0.7s0.5,0.3,0.8,0.4c0.3,0.1,0.7,0.2,1.2,0.3c0.4,0.1,0.9,0.2,1.4,0.3
		c0.5,0.1,0.9,0.2,1.4,0.4c0.5,0.2,0.9,0.4,1.2,0.6c0.4,0.3,0.6,0.6,0.9,0.9c0.2,0.4,0.3,0.8,0.3,1.4c0,0.8-0.2,1.4-0.5,2
		c-0.3,0.5-0.7,1-1.2,1.3c-0.5,0.3-1.1,0.5-1.7,0.7c-0.7,0.1-1.3,0.2-2,0.2c-0.7,0-1.4-0.1-2-0.2c-0.7-0.1-1.2-0.4-1.8-0.7
		c-0.5-0.3-0.9-0.7-1.3-1.3c-0.3-0.5-0.5-1.2-0.5-2h3.1C32.6,198.9,32.7,199.2,32.9,199.4z"/>
	<path d="M50.3,202.4v-1.7h-0.1c-0.4,0.7-1,1.2-1.6,1.5s-1.3,0.5-2,0.5c-0.9,0-1.6-0.1-2.2-0.3c-0.6-0.2-1-0.6-1.3-1
		c-0.3-0.4-0.5-0.9-0.7-1.5c-0.1-0.6-0.2-1.3-0.2-2v-7.3h3.3v6.7c0,1,0.2,1.7,0.5,2.2s0.9,0.7,1.6,0.7c0.9,0,1.5-0.3,1.9-0.8
		c0.4-0.5,0.6-1.4,0.6-2.6v-6.2h3.3v11.9H50.3z"/>
	<path d="M58.8,190.5v2.2h0c0.2-0.4,0.4-0.7,0.6-1c0.3-0.3,0.6-0.6,0.9-0.8c0.3-0.2,0.7-0.4,1.1-0.5c0.4-0.1,0.8-0.2,1.2-0.2
		c0.2,0,0.5,0,0.7,0.1v3c-0.2,0-0.3-0.1-0.6-0.1c-0.2,0-0.4,0-0.6,0c-0.6,0-1.1,0.1-1.5,0.3s-0.7,0.5-1,0.8s-0.4,0.7-0.5,1.2
		c-0.1,0.5-0.2,1-0.2,1.5v5.4h-3.3v-11.9H58.8z"/>
	<path d="M64.3,194.2c0-0.8,0.2-1.4,0.6-1.9c0.3-0.5,0.8-0.9,1.3-1.2s1.1-0.5,1.8-0.7c0.7-0.1,1.3-0.2,2-0.2c0.6,0,1.2,0,1.8,0.1
		c0.6,0.1,1.2,0.2,1.7,0.5c0.5,0.2,0.9,0.6,1.2,1c0.3,0.4,0.5,1,0.5,1.7v6.2c0,0.5,0,1.1,0.1,1.5s0.2,0.9,0.3,1.1h-3.3
		c-0.1-0.2-0.1-0.4-0.1-0.6c0-0.2-0.1-0.4-0.1-0.6c-0.5,0.5-1.1,0.9-1.8,1.1c-0.7,0.2-1.4,0.3-2.2,0.3c-0.6,0-1.1-0.1-1.6-0.2
		c-0.5-0.1-0.9-0.4-1.3-0.6c-0.4-0.3-0.7-0.7-0.9-1.1s-0.3-1-0.3-1.6c0-0.7,0.1-1.2,0.4-1.7s0.5-0.8,0.9-1c0.4-0.3,0.8-0.5,1.3-0.6
		c0.5-0.1,1-0.2,1.5-0.3c0.5-0.1,1-0.1,1.4-0.2s0.9-0.1,1.3-0.2c0.4-0.1,0.7-0.2,0.9-0.4s0.3-0.4,0.3-0.8c0-0.4-0.1-0.6-0.2-0.8
		s-0.3-0.4-0.5-0.5c-0.2-0.1-0.4-0.2-0.7-0.2c-0.3,0-0.5-0.1-0.8-0.1c-0.6,0-1.2,0.1-1.5,0.4c-0.4,0.3-0.6,0.7-0.6,1.4H64.3z
		 M71.8,196.6c-0.1,0.1-0.3,0.2-0.5,0.3c-0.2,0.1-0.4,0.1-0.7,0.2c-0.2,0-0.5,0.1-0.7,0.1c-0.3,0-0.5,0.1-0.8,0.1
		c-0.2,0-0.5,0.1-0.7,0.2c-0.2,0.1-0.4,0.2-0.6,0.3c-0.2,0.1-0.3,0.3-0.4,0.5c-0.1,0.2-0.2,0.5-0.2,0.8c0,0.3,0.1,0.5,0.2,0.7
		c0.1,0.2,0.3,0.4,0.4,0.5c0.2,0.1,0.4,0.2,0.6,0.2s0.5,0.1,0.8,0.1c0.6,0,1.1-0.1,1.5-0.3c0.4-0.2,0.6-0.5,0.8-0.8
		c0.2-0.3,0.3-0.6,0.3-0.9c0-0.3,0.1-0.6,0.1-0.7V196.6z"/>
	<path d="M80.5,190.5v1.7h0.1c0.4-0.7,1-1.2,1.6-1.5c0.7-0.3,1.3-0.5,2-0.5c0.9,0,1.6,0.1,2.2,0.4s1,0.6,1.3,1
		c0.3,0.4,0.5,0.9,0.7,1.5c0.1,0.6,0.2,1.3,0.2,2v7.3h-3.3v-6.7c0-1-0.2-1.7-0.5-2.2s-0.9-0.7-1.6-0.7c-0.9,0-1.5,0.3-1.9,0.8
		c-0.4,0.5-0.6,1.4-0.6,2.6v6.2h-3.3v-11.9H80.5z"/>
	<path d="M96.5,192.7c-0.5,0-1,0.1-1.3,0.4c-0.4,0.2-0.6,0.5-0.9,0.9c-0.2,0.4-0.4,0.8-0.5,1.2c-0.1,0.5-0.1,0.9-0.1,1.3
		c0,0.4,0,0.9,0.1,1.3c0.1,0.4,0.2,0.8,0.4,1.2c0.2,0.4,0.5,0.7,0.8,0.9c0.4,0.2,0.8,0.3,1.3,0.3c0.8,0,1.4-0.2,1.8-0.7
		s0.7-1,0.8-1.8h3.2c-0.2,1.6-0.8,2.8-1.8,3.6c-1,0.8-2.3,1.2-3.9,1.2c-0.9,0-1.7-0.1-2.4-0.4c-0.7-0.3-1.4-0.7-1.9-1.3
		c-0.5-0.5-0.9-1.2-1.2-1.9c-0.3-0.7-0.4-1.6-0.4-2.4c0-0.9,0.1-1.8,0.4-2.6c0.3-0.8,0.7-1.5,1.2-2c0.5-0.6,1.2-1,1.9-1.3
		c0.8-0.3,1.6-0.5,2.6-0.5c0.7,0,1.4,0.1,2,0.3s1.2,0.5,1.7,0.8c0.5,0.4,0.9,0.8,1.3,1.4c0.3,0.6,0.5,1.2,0.6,2h-3.2
		C98.7,193.3,97.9,192.7,96.5,192.7z"/>
	<path d="M107.3,199.6c0.5,0.5,1.2,0.7,2.1,0.7c0.7,0,1.2-0.2,1.7-0.5s0.8-0.7,0.9-1h2.9c-0.5,1.4-1.2,2.4-2.1,3.1
		c-1,0.6-2.1,0.9-3.5,0.9c-0.9,0-1.8-0.1-2.5-0.4c-0.8-0.3-1.4-0.7-1.9-1.3c-0.5-0.6-0.9-1.2-1.2-2c-0.3-0.8-0.4-1.6-0.4-2.5
		c0-0.9,0.1-1.7,0.4-2.5c0.3-0.8,0.7-1.4,1.2-2c0.5-0.6,1.2-1,1.9-1.3c0.7-0.3,1.6-0.5,2.5-0.5c1,0,1.9,0.2,2.6,0.6s1.4,0.9,1.9,1.6
		c0.5,0.7,0.8,1.4,1,2.3c0.2,0.8,0.3,1.7,0.2,2.6h-8.6C106.6,198.3,106.8,199.1,107.3,199.6z M111,193.3c-0.4-0.4-1-0.6-1.8-0.6
		c-0.5,0-1,0.1-1.3,0.3s-0.6,0.4-0.8,0.7s-0.4,0.5-0.4,0.8c-0.1,0.3-0.1,0.6-0.1,0.8h5.3C111.7,194.4,111.4,193.7,111,193.3z"/>
</g>
<g>
	<path d="M11,214.7V212h3.3v2.7H11z M14.3,216.5v11.9H11v-11.9H14.3z"/>
	<path d="M19.4,225.4c0.1,0.3,0.3,0.5,0.6,0.6s0.5,0.3,0.8,0.4c0.3,0.1,0.6,0.1,0.9,0.1c0.2,0,0.5,0,0.7-0.1s0.5-0.1,0.7-0.3
		c0.2-0.1,0.4-0.3,0.5-0.5c0.1-0.2,0.2-0.4,0.2-0.7c0-0.5-0.3-0.9-1-1.1s-1.6-0.5-2.7-0.7c-0.5-0.1-0.9-0.2-1.4-0.4
		c-0.5-0.1-0.9-0.3-1.2-0.6c-0.4-0.2-0.6-0.5-0.9-0.9c-0.2-0.4-0.3-0.8-0.3-1.3c0-0.8,0.1-1.4,0.4-1.9c0.3-0.5,0.7-0.9,1.2-1.2
		c0.5-0.3,1-0.5,1.7-0.6c0.6-0.1,1.2-0.2,1.9-0.2s1.3,0.1,1.9,0.2c0.6,0.1,1.1,0.3,1.6,0.6c0.5,0.3,0.9,0.7,1.2,1.2s0.5,1.1,0.6,1.8
		h-3.1c0-0.6-0.3-1.1-0.7-1.3s-0.9-0.3-1.5-0.3c-0.2,0-0.4,0-0.6,0c-0.2,0-0.4,0.1-0.6,0.1c-0.2,0.1-0.3,0.2-0.4,0.3
		c-0.1,0.1-0.2,0.3-0.2,0.6c0,0.3,0.1,0.5,0.3,0.7s0.5,0.3,0.8,0.4c0.3,0.1,0.7,0.2,1.2,0.3c0.4,0.1,0.9,0.2,1.4,0.3
		c0.5,0.1,0.9,0.2,1.4,0.4c0.5,0.2,0.9,0.4,1.2,0.6c0.4,0.3,0.6,0.6,0.9,0.9c0.2,0.4,0.3,0.8,0.3,1.4c0,0.8-0.2,1.4-0.5,2
		c-0.3,0.5-0.7,1-1.2,1.3c-0.5,0.3-1.1,0.5-1.7,0.7c-0.7,0.1-1.3,0.2-2,0.2c-0.7,0-1.4-0.1-2-0.2c-0.7-0.1-1.2-0.4-1.8-0.7
		c-0.5-0.3-0.9-0.7-1.3-1.3c-0.3-0.5-0.5-1.2-0.5-2h3.1C19.2,224.9,19.3,225.2,19.4,225.4z"/>
	<path d="M37.8,225.4c0.1,0.3,0.3,0.5,0.6,0.6s0.5,0.3,0.8,0.4c0.3,0.1,0.6,0.1,0.9,0.1c0.2,0,0.5,0,0.7-0.1s0.5-0.1,0.7-0.3
		c0.2-0.1,0.4-0.3,0.5-0.5c0.1-0.2,0.2-0.4,0.2-0.7c0-0.5-0.3-0.9-1-1.1s-1.6-0.5-2.7-0.7c-0.5-0.1-0.9-0.2-1.4-0.4
		c-0.5-0.1-0.9-0.3-1.2-0.6c-0.4-0.2-0.6-0.5-0.9-0.9c-0.2-0.4-0.3-0.8-0.3-1.3c0-0.8,0.1-1.4,0.4-1.9c0.3-0.5,0.7-0.9,1.2-1.2
		c0.5-0.3,1-0.5,1.7-0.6c0.6-0.1,1.2-0.2,1.9-0.2s1.3,0.1,1.9,0.2c0.6,0.1,1.1,0.3,1.6,0.6c0.5,0.3,0.9,0.7,1.2,1.2s0.5,1.1,0.6,1.8
		H42c0-0.6-0.3-1.1-0.7-1.3s-0.9-0.3-1.5-0.3c-0.2,0-0.4,0-0.6,0c-0.2,0-0.4,0.1-0.6,0.1c-0.2,0.1-0.3,0.2-0.4,0.3
		c-0.1,0.1-0.2,0.3-0.2,0.6c0,0.3,0.1,0.5,0.3,0.7s0.5,0.3,0.8,0.4c0.3,0.1,0.7,0.2,1.2,0.3c0.4,0.1,0.9,0.2,1.4,0.3
		c0.5,0.1,0.9,0.2,1.4,0.4c0.5,0.2,0.9,0.4,1.2,0.6c0.4,0.3,0.6,0.6,0.9,0.9c0.2,0.4,0.3,0.8,0.3,1.4c0,0.8-0.2,1.4-0.5,2
		c-0.3,0.5-0.7,1-1.2,1.3c-0.5,0.3-1.1,0.5-1.7,0.7c-0.7,0.1-1.3,0.2-2,0.2c-0.7,0-1.4-0.1-2-0.2c-0.7-0.1-1.2-0.4-1.8-0.7
		c-0.5-0.3-0.9-0.7-1.3-1.3c-0.3-0.5-0.5-1.2-0.5-2h3.1C37.5,224.9,37.6,225.2,37.8,225.4z"/>
	<path d="M53.7,216.5v2.2h-2.4v5.9c0,0.6,0.1,0.9,0.3,1.1c0.2,0.2,0.6,0.3,1.1,0.3c0.2,0,0.4,0,0.5,0c0.2,0,0.3,0,0.5-0.1v2.5
		c-0.3,0-0.6,0.1-0.9,0.1c-0.3,0-0.7,0-1,0c-0.5,0-1,0-1.4-0.1c-0.5-0.1-0.9-0.2-1.2-0.4c-0.3-0.2-0.6-0.5-0.8-0.9
		c-0.2-0.4-0.3-0.9-0.3-1.4v-7h-2v-2.2h2v-3.6h3.3v3.6H53.7z"/>
	<path d="M55.1,214.7V212h3.3v2.7H55.1z M58.4,216.5v11.9h-3.3v-11.9H58.4z"/>
	<path d="M64.1,212v16.4h-3.3V212H64.1z"/>
	<path d="M69.8,212v16.4h-3.3V212H69.8z"/>
	<path d="M78.4,214.7V212h3.3v2.7H78.4z M81.7,216.5v11.9h-3.3v-11.9H81.7z"/>
	<path d="M87.2,216.5v1.7h0.1c0.4-0.7,1-1.2,1.6-1.5c0.7-0.3,1.3-0.5,2-0.5c0.9,0,1.6,0.1,2.2,0.4s1,0.6,1.3,1
		c0.3,0.4,0.5,0.9,0.7,1.5c0.1,0.6,0.2,1.3,0.2,2v7.3H92v-6.7c0-1-0.2-1.7-0.5-2.2s-0.9-0.7-1.6-0.7c-0.9,0-1.5,0.3-1.9,0.8
		c-0.4,0.5-0.6,1.4-0.6,2.6v6.2h-3.3v-11.9H87.2z"/>
</g>
<g>
	<path d="M13.7,251.4c0.1,0.3,0.3,0.5,0.6,0.6s0.5,0.3,0.8,0.4c0.3,0.1,0.6,0.1,0.9,0.1c0.2,0,0.5,0,0.7-0.1s0.5-0.1,0.7-0.3
		c0.2-0.1,0.4-0.3,0.5-0.5c0.1-0.2,0.2-0.4,0.2-0.7c0-0.5-0.3-0.9-1-1.1s-1.6-0.5-2.7-0.7c-0.5-0.1-0.9-0.2-1.4-0.4
		c-0.5-0.1-0.9-0.3-1.2-0.6c-0.4-0.2-0.6-0.5-0.9-0.9c-0.2-0.4-0.3-0.8-0.3-1.3c0-0.8,0.1-1.4,0.4-1.9c0.3-0.5,0.7-0.9,1.2-1.2
		c0.5-0.3,1-0.5,1.7-0.6c0.6-0.1,1.2-0.2,1.9-0.2s1.3,0.1,1.9,0.2c0.6,0.1,1.1,0.3,1.6,0.6c0.5,0.3,0.9,0.7,1.2,1.2s0.5,1.1,0.6,1.8
		H18c0-0.6-0.3-1.1-0.7-1.3s-0.9-0.3-1.5-0.3c-0.2,0-0.4,0-0.6,0c-0.2,0-0.4,0.1-0.6,0.1c-0.2,0.1-0.3,0.2-0.4,0.3
		c-0.1,0.1-0.2,0.3-0.2,0.6c0,0.3,0.1,0.5,0.3,0.7s0.5,0.3,0.8,0.4c0.3,0.1,0.7,0.2,1.2,0.3c0.4,0.1,0.9,0.2,1.4,0.3
		c0.5,0.1,0.9,0.2,1.4,0.4c0.5,0.2,0.9,0.4,1.2,0.6c0.4,0.3,0.6,0.6,0.9,0.9c0.2,0.4,0.3,0.8,0.3,1.4c0,0.8-0.2,1.4-0.5,2
		c-0.3,0.5-0.7,1-1.2,1.3c-0.5,0.3-1.1,0.5-1.7,0.7c-0.7,0.1-1.3,0.2-2,0.2c-0.7,0-1.4-0.1-2-0.2c-0.7-0.1-1.2-0.4-1.8-0.7
		c-0.5-0.3-0.9-0.7-1.3-1.3c-0.3-0.5-0.5-1.2-0.5-2h3.1C13.5,250.9,13.6,251.2,13.7,251.4z"/>
	<path d="M27.5,257.9c-0.6,0.4-1.5,0.6-2.6,0.6c-0.3,0-0.7,0-1,0c-0.3,0-0.7,0-1-0.1v-2.7c0.3,0,0.6,0.1,0.9,0.1c0.3,0,0.6,0,1,0
		c0.4,0,0.7-0.2,1-0.5s0.3-0.6,0.3-1c0-0.3,0-0.5-0.1-0.7l-4.2-11.2h3.5l2.7,8.1h0l2.6-8.1h3.4l-5,13.4
		C28.6,256.8,28.1,257.5,27.5,257.9z"/>
	<path d="M37.9,242.5v1.7H38c0.4-0.7,1-1.2,1.6-1.5c0.7-0.3,1.3-0.5,2-0.5c0.9,0,1.6,0.1,2.2,0.4c0.6,0.2,1,0.6,1.3,1
		c0.3,0.4,0.5,0.9,0.7,1.5c0.1,0.6,0.2,1.3,0.2,2v7.3h-3.3v-6.7c0-1-0.2-1.7-0.5-2.2s-0.9-0.7-1.6-0.7c-0.9,0-1.5,0.3-1.9,0.8
		c-0.4,0.5-0.6,1.4-0.6,2.6v6.2h-3.3v-11.9H37.9z"/>
	<path d="M53.9,244.6c-0.5,0-1,0.1-1.3,0.4c-0.4,0.2-0.6,0.5-0.9,0.9c-0.2,0.4-0.4,0.8-0.5,1.2c-0.1,0.5-0.1,0.9-0.1,1.3
		c0,0.4,0,0.9,0.1,1.3c0.1,0.4,0.2,0.8,0.4,1.2c0.2,0.4,0.5,0.7,0.8,0.9c0.4,0.2,0.8,0.3,1.3,0.3c0.8,0,1.4-0.2,1.8-0.7
		c0.4-0.4,0.7-1,0.8-1.8h3.2c-0.2,1.6-0.8,2.8-1.8,3.6c-1,0.8-2.3,1.2-3.9,1.2c-0.9,0-1.7-0.1-2.4-0.4c-0.7-0.3-1.4-0.7-1.9-1.3
		c-0.5-0.5-0.9-1.2-1.2-1.9c-0.3-0.7-0.4-1.6-0.4-2.4c0-0.9,0.1-1.8,0.4-2.6c0.3-0.8,0.7-1.5,1.2-2c0.5-0.6,1.2-1,1.9-1.3
		c0.8-0.3,1.6-0.5,2.6-0.5c0.7,0,1.4,0.1,2,0.3c0.7,0.2,1.2,0.5,1.7,0.8c0.5,0.4,0.9,0.8,1.3,1.4c0.3,0.6,0.5,1.2,0.6,2h-3.2
		C56.1,245.3,55.3,244.6,53.9,244.6z"/>
	<path d="M77.7,254.4l-2.1-8h0l-2,8h-3.4l-3.8-11.9h3.5l2.2,8.1h0l2-8.1h3.2l2,8.1h0l2.2-8.1h3.4L81,254.4H77.7z"/>
	<path d="M86,240.7V238h3.3v2.7H86z M89.3,242.5v11.9H86v-11.9H89.3z"/>
	<path d="M98.2,242.5v2.2h-2.4v5.9c0,0.6,0.1,0.9,0.3,1.1c0.2,0.2,0.6,0.3,1.1,0.3c0.2,0,0.4,0,0.5,0c0.2,0,0.3,0,0.5-0.1v2.5
		c-0.3,0-0.6,0.1-0.9,0.1c-0.3,0-0.7,0-1,0c-0.5,0-1,0-1.4-0.1c-0.5-0.1-0.9-0.2-1.2-0.4c-0.3-0.2-0.6-0.5-0.8-0.9
		c-0.2-0.4-0.3-0.9-0.3-1.4v-7h-2v-2.2h2v-3.6h3.3v3.6H98.2z"/>
	<path d="M102.8,238v6.2h0.1c0.4-0.7,0.9-1.2,1.6-1.5c0.6-0.3,1.3-0.5,1.9-0.5c0.9,0,1.6,0.1,2.2,0.4s1,0.6,1.3,1
		c0.3,0.4,0.5,0.9,0.7,1.5c0.1,0.6,0.2,1.3,0.2,2v7.3h-3.3v-6.7c0-1-0.2-1.7-0.5-2.2s-0.9-0.7-1.6-0.7c-0.9,0-1.5,0.3-1.9,0.8
		c-0.4,0.5-0.6,1.4-0.6,2.6v6.2h-3.3V238H102.8z"/>
</g>
<g>
	<path d="M15.3,283.9c-0.6,0.4-1.5,0.6-2.6,0.6c-0.3,0-0.7,0-1,0c-0.3,0-0.7,0-1-0.1v-2.7c0.3,0,0.6,0.1,0.9,0.1c0.3,0,0.6,0,1,0
		c0.4,0,0.7-0.2,1-0.5s0.3-0.6,0.3-1c0-0.3,0-0.5-0.1-0.7l-4.2-11.2h3.5l2.7,8.1h0l2.6-8.1h3.4l-5,13.4
		C16.5,282.8,16,283.5,15.3,283.9z"/>
	<path d="M22.7,271.9c0.3-0.8,0.7-1.4,1.2-2c0.5-0.5,1.2-1,1.9-1.3c0.8-0.3,1.6-0.4,2.5-0.4c0.9,0,1.8,0.1,2.5,0.4
		c0.8,0.3,1.4,0.7,1.9,1.3c0.5,0.5,1,1.2,1.2,2c0.3,0.8,0.4,1.6,0.4,2.6c0,1-0.1,1.8-0.4,2.6c-0.3,0.8-0.7,1.4-1.2,2
		c-0.5,0.5-1.2,1-1.9,1.3c-0.8,0.3-1.6,0.4-2.5,0.4c-0.9,0-1.8-0.1-2.5-0.4c-0.8-0.3-1.4-0.7-1.9-1.3c-0.5-0.5-1-1.2-1.2-2
		c-0.3-0.8-0.4-1.6-0.4-2.6C22.3,273.5,22.5,272.6,22.7,271.9z M25.7,275.8c0.1,0.5,0.2,0.9,0.5,1.2c0.2,0.4,0.5,0.6,0.9,0.9
		c0.4,0.2,0.8,0.3,1.4,0.3c0.6,0,1-0.1,1.4-0.3c0.4-0.2,0.7-0.5,0.9-0.9c0.2-0.4,0.4-0.8,0.5-1.2c0.1-0.5,0.1-0.9,0.1-1.4
		c0-0.5,0-0.9-0.1-1.4c-0.1-0.5-0.2-0.9-0.5-1.2c-0.2-0.4-0.5-0.6-0.9-0.9c-0.4-0.2-0.8-0.3-1.4-0.3c-0.6,0-1,0.1-1.4,0.3
		c-0.4,0.2-0.7,0.5-0.9,0.9c-0.2,0.4-0.4,0.8-0.5,1.2c-0.1,0.5-0.1,0.9-0.1,1.4C25.6,274.9,25.6,275.4,25.7,275.8z"/>
	<path d="M44.6,280.4v-1.7h-0.1c-0.4,0.7-1,1.2-1.6,1.5s-1.3,0.5-2,0.5c-0.9,0-1.6-0.1-2.2-0.3c-0.6-0.2-1-0.6-1.3-1
		c-0.3-0.4-0.5-0.9-0.7-1.5c-0.1-0.6-0.2-1.3-0.2-2v-7.3h3.3v6.7c0,1,0.2,1.7,0.5,2.2s0.9,0.7,1.6,0.7c0.9,0,1.5-0.3,1.9-0.8
		c0.4-0.5,0.6-1.4,0.6-2.6v-6.2h3.3v11.9H44.6z"/>
	<path d="M53.1,268.5v2.2h0c0.2-0.4,0.4-0.7,0.6-1c0.3-0.3,0.6-0.6,0.9-0.8c0.3-0.2,0.7-0.4,1.1-0.5c0.4-0.1,0.8-0.2,1.2-0.2
		c0.2,0,0.5,0,0.7,0.1v3c-0.2,0-0.3-0.1-0.6-0.1c-0.2,0-0.4,0-0.6,0c-0.6,0-1.1,0.1-1.5,0.3s-0.7,0.5-1,0.8s-0.4,0.7-0.5,1.2
		c-0.1,0.5-0.2,1-0.2,1.5v5.4H50v-11.9H53.1z"/>
	<path d="M76.1,281.2c-0.1,0.6-0.4,1.2-0.8,1.7c-0.4,0.5-1,1-1.9,1.3c-0.8,0.4-1.9,0.6-3.3,0.6c-0.6,0-1.2-0.1-1.8-0.2
		c-0.6-0.1-1.2-0.4-1.7-0.7s-0.9-0.7-1.2-1.2c-0.3-0.5-0.5-1.1-0.6-1.7h3.2c0.2,0.6,0.5,1,0.9,1.3c0.4,0.2,1,0.4,1.5,0.4
		c0.9,0,1.6-0.3,2-0.8c0.4-0.6,0.6-1.2,0.6-2.1v-1.6h0c-0.4,0.6-0.9,1.1-1.5,1.4c-0.7,0.3-1.3,0.4-2.1,0.4c-0.9,0-1.7-0.2-2.3-0.5
		c-0.6-0.3-1.2-0.7-1.6-1.3c-0.4-0.5-0.7-1.2-0.9-1.9c-0.2-0.7-0.3-1.5-0.3-2.3c0-0.8,0.1-1.5,0.3-2.2c0.2-0.7,0.5-1.3,1-1.9
		c0.4-0.5,1-1,1.6-1.3c0.6-0.3,1.4-0.5,2.2-0.5c0.8,0,1.5,0.1,2.1,0.4c0.6,0.3,1.1,0.8,1.5,1.5h0v-1.6h3.1v11.1
		C76.3,280.1,76.2,280.6,76.1,281.2z M71.6,277.3c0.4-0.2,0.6-0.4,0.9-0.7c0.2-0.3,0.4-0.7,0.5-1c0.1-0.4,0.2-0.8,0.2-1.2
		c0-0.5,0-1-0.1-1.4c-0.1-0.4-0.2-0.8-0.5-1.2c-0.2-0.3-0.5-0.6-0.9-0.8c-0.4-0.2-0.8-0.3-1.3-0.3c-0.5,0-0.9,0.1-1.2,0.3
		c-0.3,0.2-0.6,0.4-0.8,0.7c-0.2,0.3-0.4,0.7-0.5,1.1s-0.1,0.8-0.1,1.3c0,0.4,0,0.9,0.1,1.3c0.1,0.4,0.2,0.8,0.4,1.1
		c0.2,0.3,0.5,0.6,0.8,0.8c0.3,0.2,0.8,0.3,1.3,0.3C70.9,277.6,71.3,277.5,71.6,277.3z"/>
	<path d="M78.8,271.9c0.3-0.8,0.7-1.4,1.2-2c0.5-0.5,1.2-1,1.9-1.3c0.8-0.3,1.6-0.4,2.5-0.4s1.8,0.1,2.5,0.4
		c0.8,0.3,1.4,0.7,1.9,1.3c0.5,0.5,1,1.2,1.2,2c0.3,0.8,0.4,1.6,0.4,2.6c0,1-0.1,1.8-0.4,2.6c-0.3,0.8-0.7,1.4-1.2,2
		c-0.5,0.5-1.2,1-1.9,1.3c-0.8,0.3-1.6,0.4-2.5,0.4s-1.8-0.1-2.5-0.4c-0.8-0.3-1.4-0.7-1.9-1.3c-0.5-0.5-1-1.2-1.2-2
		c-0.3-0.8-0.4-1.6-0.4-2.6C78.3,273.5,78.5,272.6,78.8,271.9z M81.7,275.8c0.1,0.5,0.2,0.9,0.5,1.2c0.2,0.4,0.5,0.6,0.9,0.9
		s0.8,0.3,1.4,0.3c0.6,0,1-0.1,1.4-0.3s0.7-0.5,0.9-0.9c0.2-0.4,0.4-0.8,0.5-1.2c0.1-0.5,0.1-0.9,0.1-1.4c0-0.5,0-0.9-0.1-1.4
		c-0.1-0.5-0.2-0.9-0.5-1.2c-0.2-0.4-0.5-0.6-0.9-0.9s-0.8-0.3-1.4-0.3c-0.6,0-1,0.1-1.4,0.3s-0.7,0.5-0.9,0.9
		c-0.2,0.4-0.4,0.8-0.5,1.2c-0.1,0.5-0.1,0.9-0.1,1.4C81.6,274.9,81.6,275.4,81.7,275.8z"/>
	<path d="M92.4,272.1c0-0.8,0.2-1.4,0.6-1.9s0.8-0.9,1.3-1.2s1.1-0.5,1.8-0.7c0.7-0.1,1.3-0.2,2-0.2c0.6,0,1.2,0,1.8,0.1
		c0.6,0.1,1.2,0.2,1.7,0.5c0.5,0.2,0.9,0.6,1.2,1c0.3,0.4,0.5,1,0.5,1.7v6.2c0,0.5,0,1.1,0.1,1.5s0.2,0.9,0.3,1.1h-3.3
		c-0.1-0.2-0.1-0.4-0.1-0.6c0-0.2-0.1-0.4-0.1-0.6c-0.5,0.5-1.1,0.9-1.8,1.1c-0.7,0.2-1.4,0.3-2.2,0.3c-0.6,0-1.1-0.1-1.6-0.2
		c-0.5-0.1-0.9-0.4-1.3-0.6c-0.4-0.3-0.7-0.7-0.9-1.1s-0.3-1-0.3-1.6c0-0.7,0.1-1.2,0.4-1.7c0.2-0.4,0.5-0.8,0.9-1
		c0.4-0.3,0.8-0.5,1.3-0.6c0.5-0.1,1-0.2,1.5-0.3c0.5-0.1,1-0.1,1.4-0.2s0.9-0.1,1.3-0.2c0.4-0.1,0.7-0.2,0.9-0.4s0.3-0.4,0.3-0.8
		c0-0.4-0.1-0.6-0.2-0.8s-0.3-0.4-0.5-0.5c-0.2-0.1-0.4-0.2-0.7-0.2c-0.3,0-0.5-0.1-0.8-0.1c-0.6,0-1.2,0.1-1.5,0.4
		c-0.4,0.3-0.6,0.7-0.6,1.4H92.4z M99.9,274.6c-0.1,0.1-0.3,0.2-0.5,0.3c-0.2,0.1-0.4,0.1-0.7,0.2c-0.2,0-0.5,0.1-0.7,0.1
		c-0.3,0-0.5,0.1-0.8,0.1c-0.2,0-0.5,0.1-0.7,0.2c-0.2,0.1-0.4,0.2-0.6,0.3c-0.2,0.1-0.3,0.3-0.4,0.5c-0.1,0.2-0.2,0.5-0.2,0.8
		c0,0.3,0.1,0.5,0.2,0.7c0.1,0.2,0.3,0.4,0.4,0.5c0.2,0.1,0.4,0.2,0.6,0.2s0.5,0.1,0.8,0.1c0.6,0,1.1-0.1,1.5-0.3
		c0.4-0.2,0.6-0.5,0.8-0.8c0.2-0.3,0.3-0.6,0.3-0.9c0-0.3,0.1-0.6,0.1-0.7V274.6z"/>
	<path d="M108.9,264v16.4h-3.3V264H108.9z"/>
	<path d="M114,277.4c0.1,0.3,0.3,0.5,0.6,0.6c0.2,0.2,0.5,0.3,0.8,0.4c0.3,0.1,0.6,0.1,0.9,0.1c0.2,0,0.5,0,0.7-0.1s0.5-0.1,0.7-0.3
		c0.2-0.1,0.4-0.3,0.5-0.5c0.1-0.2,0.2-0.4,0.2-0.7c0-0.5-0.3-0.9-1-1.1s-1.6-0.5-2.7-0.7c-0.5-0.1-0.9-0.2-1.4-0.4
		c-0.5-0.1-0.9-0.3-1.2-0.6c-0.4-0.2-0.6-0.5-0.9-0.9s-0.3-0.8-0.3-1.3c0-0.8,0.1-1.4,0.4-1.9s0.7-0.9,1.2-1.2
		c0.5-0.3,1-0.5,1.7-0.6c0.6-0.1,1.2-0.2,1.9-0.2c0.6,0,1.3,0.1,1.9,0.2s1.1,0.3,1.6,0.6c0.5,0.3,0.9,0.7,1.2,1.2
		c0.3,0.5,0.5,1.1,0.6,1.8h-3.1c0-0.6-0.3-1.1-0.7-1.3c-0.4-0.2-0.9-0.3-1.5-0.3c-0.2,0-0.4,0-0.6,0s-0.4,0.1-0.6,0.1
		c-0.2,0.1-0.3,0.2-0.4,0.3c-0.1,0.1-0.2,0.3-0.2,0.6c0,0.3,0.1,0.5,0.3,0.7c0.2,0.2,0.5,0.3,0.8,0.4c0.3,0.1,0.7,0.2,1.2,0.3
		c0.4,0.1,0.9,0.2,1.4,0.3c0.5,0.1,0.9,0.2,1.4,0.4c0.5,0.2,0.9,0.4,1.2,0.6s0.6,0.6,0.9,0.9c0.2,0.4,0.3,0.8,0.3,1.4
		c0,0.8-0.2,1.4-0.5,2c-0.3,0.5-0.7,1-1.2,1.3c-0.5,0.3-1.1,0.5-1.7,0.7c-0.7,0.1-1.3,0.2-2,0.2c-0.7,0-1.4-0.1-2-0.2
		c-0.7-0.1-1.2-0.4-1.8-0.7c-0.5-0.3-0.9-0.7-1.3-1.3c-0.3-0.5-0.5-1.2-0.5-2h3.1C113.8,276.9,113.8,277.2,114,277.4z"/>
</g>
<g>
	<path d="M11,292.6v-2.7h3.3v2.7H11z M14.3,294.5v11.9H11v-11.9H14.3z"/>
	<path d="M19.4,303.4c0.1,0.3,0.3,0.5,0.6,0.6c0.2,0.2,0.5,0.3,0.8,0.4c0.3,0.1,0.6,0.1,0.9,0.1c0.2,0,0.5,0,0.7-0.1
		s0.5-0.1,0.7-0.3s0.4-0.3,0.5-0.5c0.1-0.2,0.2-0.4,0.2-0.7c0-0.5-0.3-0.9-1-1.1c-0.7-0.2-1.6-0.5-2.7-0.7c-0.5-0.1-0.9-0.2-1.4-0.4
		c-0.5-0.1-0.9-0.3-1.2-0.6c-0.4-0.2-0.6-0.5-0.9-0.9c-0.2-0.4-0.3-0.8-0.3-1.3c0-0.8,0.1-1.4,0.4-1.9c0.3-0.5,0.7-0.9,1.2-1.2
		c0.5-0.3,1-0.5,1.7-0.6c0.6-0.1,1.2-0.2,1.9-0.2s1.3,0.1,1.9,0.2c0.6,0.1,1.1,0.3,1.6,0.6c0.5,0.3,0.9,0.7,1.2,1.2s0.5,1.1,0.6,1.8
		h-3.1c0-0.6-0.3-1.1-0.7-1.3s-0.9-0.3-1.5-0.3c-0.2,0-0.4,0-0.6,0c-0.2,0-0.4,0.1-0.6,0.1c-0.2,0.1-0.3,0.2-0.4,0.3
		c-0.1,0.1-0.2,0.3-0.2,0.6c0,0.3,0.1,0.5,0.3,0.7s0.5,0.3,0.8,0.4c0.3,0.1,0.7,0.2,1.2,0.3c0.4,0.1,0.9,0.2,1.4,0.3
		c0.5,0.1,0.9,0.2,1.4,0.4c0.5,0.2,0.9,0.4,1.2,0.6c0.4,0.3,0.6,0.6,0.9,0.9c0.2,0.4,0.3,0.8,0.3,1.4c0,0.8-0.2,1.4-0.5,2
		c-0.3,0.5-0.7,1-1.2,1.3s-1.1,0.5-1.7,0.7c-0.7,0.1-1.3,0.2-2,0.2c-0.7,0-1.4-0.1-2-0.2c-0.7-0.1-1.2-0.4-1.8-0.7
		c-0.5-0.3-0.9-0.7-1.3-1.3c-0.3-0.5-0.5-1.2-0.5-2h3.1C19.2,302.9,19.3,303.2,19.4,303.4z"/>
	<path d="M34.9,298.1c0-0.8,0.2-1.4,0.6-1.9c0.3-0.5,0.8-0.9,1.3-1.2s1.1-0.5,1.8-0.7c0.7-0.1,1.3-0.2,2-0.2c0.6,0,1.2,0,1.8,0.1
		c0.6,0.1,1.2,0.2,1.7,0.5s0.9,0.6,1.2,1c0.3,0.4,0.5,1,0.5,1.7v6.2c0,0.5,0,1,0.1,1.5c0.1,0.5,0.2,0.9,0.3,1.1h-3.3
		c-0.1-0.2-0.1-0.4-0.1-0.6c0-0.2-0.1-0.4-0.1-0.6c-0.5,0.5-1.1,0.9-1.8,1.1c-0.7,0.2-1.4,0.3-2.2,0.3c-0.6,0-1.1-0.1-1.6-0.2
		c-0.5-0.1-0.9-0.4-1.3-0.6c-0.4-0.3-0.7-0.7-0.9-1.1c-0.2-0.4-0.3-1-0.3-1.6c0-0.7,0.1-1.2,0.4-1.7c0.2-0.4,0.5-0.8,0.9-1
		c0.4-0.3,0.8-0.5,1.3-0.6c0.5-0.1,1-0.2,1.5-0.3c0.5-0.1,1-0.1,1.4-0.2c0.5,0,0.9-0.1,1.3-0.2c0.4-0.1,0.7-0.2,0.9-0.4
		c0.2-0.2,0.3-0.4,0.3-0.8c0-0.4-0.1-0.6-0.2-0.8c-0.1-0.2-0.3-0.4-0.5-0.5c-0.2-0.1-0.4-0.2-0.7-0.2c-0.3,0-0.5-0.1-0.8-0.1
		c-0.6,0-1.2,0.1-1.5,0.4c-0.4,0.3-0.6,0.7-0.6,1.4H34.9z M42.4,300.5c-0.1,0.1-0.3,0.2-0.5,0.3c-0.2,0.1-0.4,0.1-0.7,0.2
		c-0.2,0-0.5,0.1-0.7,0.1c-0.3,0-0.5,0.1-0.8,0.1c-0.2,0-0.5,0.1-0.7,0.2c-0.2,0.1-0.4,0.2-0.6,0.3c-0.2,0.1-0.3,0.3-0.4,0.5
		c-0.1,0.2-0.2,0.5-0.2,0.8c0,0.3,0.1,0.5,0.2,0.7c0.1,0.2,0.3,0.4,0.4,0.5c0.2,0.1,0.4,0.2,0.6,0.2c0.2,0,0.5,0.1,0.8,0.1
		c0.6,0,1.1-0.1,1.5-0.3c0.4-0.2,0.6-0.5,0.8-0.8c0.2-0.3,0.3-0.6,0.3-0.9c0-0.3,0.1-0.6,0.1-0.7V300.5z"/>
	<path d="M65.4,307.2c-0.1,0.6-0.4,1.2-0.8,1.7c-0.4,0.5-1.1,1-1.9,1.3c-0.8,0.4-1.9,0.6-3.3,0.6c-0.6,0-1.2-0.1-1.8-0.2
		c-0.6-0.1-1.2-0.4-1.7-0.7s-0.9-0.7-1.2-1.2c-0.3-0.5-0.5-1.1-0.6-1.7h3.2c0.2,0.6,0.5,1,0.9,1.3s1,0.4,1.5,0.4
		c0.9,0,1.6-0.3,2-0.8c0.4-0.6,0.6-1.2,0.6-2.1v-1.6h0c-0.4,0.6-0.9,1.1-1.5,1.4c-0.7,0.3-1.3,0.4-2.1,0.4c-0.9,0-1.7-0.2-2.3-0.5
		c-0.6-0.3-1.2-0.7-1.6-1.3c-0.4-0.5-0.7-1.2-0.9-1.9c-0.2-0.7-0.3-1.5-0.3-2.3c0-0.8,0.1-1.5,0.3-2.2c0.2-0.7,0.5-1.3,1-1.9
		c0.4-0.5,1-1,1.6-1.3c0.6-0.3,1.4-0.5,2.2-0.5c0.8,0,1.5,0.1,2.1,0.4c0.6,0.3,1.1,0.8,1.5,1.5h0v-1.6h3.1v11.1
		C65.6,306.1,65.6,306.6,65.4,307.2z M61,303.3c0.4-0.2,0.6-0.4,0.9-0.7c0.2-0.3,0.4-0.7,0.5-1c0.1-0.4,0.2-0.8,0.2-1.2
		c0-0.5,0-1-0.1-1.4c-0.1-0.4-0.2-0.8-0.5-1.2c-0.2-0.3-0.5-0.6-0.9-0.8c-0.4-0.2-0.8-0.3-1.3-0.3c-0.5,0-0.9,0.1-1.2,0.3
		c-0.3,0.2-0.6,0.4-0.8,0.7c-0.2,0.3-0.4,0.7-0.5,1.1c-0.1,0.4-0.1,0.8-0.1,1.3c0,0.4,0,0.9,0.1,1.3c0.1,0.4,0.2,0.8,0.4,1.1
		c0.2,0.3,0.5,0.6,0.8,0.8c0.3,0.2,0.8,0.3,1.3,0.3C60.2,303.6,60.6,303.5,61,303.3z"/>
	<path d="M68.1,297.8c0.3-0.8,0.7-1.4,1.2-2c0.5-0.5,1.2-1,1.9-1.3c0.8-0.3,1.6-0.4,2.5-0.4s1.8,0.1,2.5,0.4
		c0.8,0.3,1.4,0.7,1.9,1.3c0.5,0.5,1,1.2,1.2,2c0.3,0.8,0.4,1.6,0.4,2.6c0,1-0.1,1.8-0.4,2.6c-0.3,0.8-0.7,1.4-1.2,2
		c-0.5,0.5-1.2,1-1.9,1.3s-1.6,0.4-2.5,0.4s-1.8-0.1-2.5-0.4c-0.8-0.3-1.4-0.7-1.9-1.3c-0.5-0.5-1-1.2-1.2-2
		c-0.3-0.8-0.4-1.6-0.4-2.6C67.6,299.5,67.8,298.6,68.1,297.8z M71,301.8c0.1,0.5,0.2,0.9,0.5,1.2c0.2,0.4,0.5,0.6,0.9,0.9
		s0.8,0.3,1.4,0.3c0.6,0,1-0.1,1.4-0.3s0.7-0.5,0.9-0.9c0.2-0.4,0.4-0.8,0.5-1.2c0.1-0.5,0.1-0.9,0.1-1.4c0-0.5,0-0.9-0.1-1.4
		c-0.1-0.5-0.2-0.9-0.5-1.2c-0.2-0.4-0.5-0.6-0.9-0.9s-0.8-0.3-1.4-0.3c-0.6,0-1,0.1-1.4,0.3s-0.7,0.5-0.9,0.9
		c-0.2,0.4-0.4,0.8-0.5,1.2c-0.1,0.5-0.1,0.9-0.1,1.4C70.9,300.9,71,301.4,71,301.8z"/>
	<path d="M81.9,297.8c0.3-0.8,0.7-1.4,1.2-2c0.5-0.5,1.2-1,1.9-1.3c0.8-0.3,1.6-0.4,2.5-0.4s1.8,0.1,2.5,0.4
		c0.8,0.3,1.4,0.7,1.9,1.3c0.5,0.5,1,1.2,1.2,2c0.3,0.8,0.4,1.6,0.4,2.6c0,1-0.1,1.8-0.4,2.6c-0.3,0.8-0.7,1.4-1.2,2
		c-0.5,0.5-1.2,1-1.9,1.3s-1.6,0.4-2.5,0.4s-1.8-0.1-2.5-0.4c-0.8-0.3-1.4-0.7-1.9-1.3c-0.5-0.5-1-1.2-1.2-2
		c-0.3-0.8-0.4-1.6-0.4-2.6C81.5,299.5,81.6,298.6,81.9,297.8z M84.9,301.8c0.1,0.5,0.2,0.9,0.5,1.2c0.2,0.4,0.5,0.6,0.9,0.9
		s0.8,0.3,1.4,0.3c0.6,0,1-0.1,1.4-0.3s0.7-0.5,0.9-0.9c0.2-0.4,0.4-0.8,0.5-1.2c0.1-0.5,0.1-0.9,0.1-1.4c0-0.5,0-0.9-0.1-1.4
		c-0.1-0.5-0.2-0.9-0.5-1.2c-0.2-0.4-0.5-0.6-0.9-0.9s-0.8-0.3-1.4-0.3c-0.6,0-1,0.1-1.4,0.3s-0.7,0.5-0.9,0.9
		c-0.2,0.4-0.4,0.8-0.5,1.2c-0.1,0.5-0.1,0.9-0.1,1.4C84.7,300.9,84.8,301.4,84.9,301.8z"/>
	<path d="M104.1,304.8c-0.4,0.6-0.9,1.1-1.5,1.4c-0.6,0.3-1.3,0.4-2.1,0.4c-0.9,0-1.7-0.2-2.3-0.5c-0.7-0.3-1.2-0.8-1.7-1.4
		c-0.4-0.6-0.8-1.3-1-2c-0.2-0.8-0.3-1.6-0.3-2.4c0-0.8,0.1-1.6,0.3-2.3s0.6-1.4,1-2c0.4-0.6,1-1,1.6-1.4c0.7-0.3,1.4-0.5,2.3-0.5
		c0.7,0,1.4,0.1,2,0.4c0.6,0.3,1.1,0.7,1.5,1.3h0v-6h3.3v16.4h-3.1L104.1,304.8L104.1,304.8z M104,299c-0.1-0.5-0.2-0.9-0.5-1.2
		c-0.2-0.3-0.5-0.6-0.9-0.8c-0.4-0.2-0.8-0.3-1.3-0.3c-0.5,0-1,0.1-1.4,0.3c-0.4,0.2-0.7,0.5-0.9,0.9c-0.2,0.4-0.4,0.8-0.5,1.2
		c-0.1,0.5-0.1,0.9-0.1,1.4c0,0.5,0.1,0.9,0.2,1.4s0.3,0.9,0.5,1.2c0.2,0.4,0.5,0.7,0.9,0.9c0.4,0.2,0.8,0.3,1.3,0.3
		c0.5,0,1-0.1,1.3-0.3s0.6-0.5,0.9-0.9s0.4-0.8,0.5-1.2s0.1-0.9,0.1-1.4C104.1,299.9,104.1,299.4,104,299z"/>
</g>
<g>
	<path d="M14.1,320.5v1.5h0c0.4-0.6,0.9-1.1,1.5-1.4c0.6-0.3,1.3-0.4,2-0.4c0.9,0,1.7,0.2,2.4,0.5c0.7,0.4,1.2,0.8,1.7,1.4
		c0.4,0.6,0.8,1.3,1,2c0.2,0.8,0.3,1.6,0.3,2.4c0,0.8-0.1,1.6-0.3,2.3c-0.2,0.7-0.5,1.4-1,2c-0.4,0.6-1,1-1.6,1.4
		c-0.7,0.3-1.4,0.5-2.3,0.5c-0.7,0-1.4-0.1-2-0.4s-1.1-0.7-1.5-1.3h0v5.6h-3.3v-16.1H14.1z M18.3,329.9c0.4-0.2,0.7-0.5,0.9-0.8
		c0.2-0.3,0.4-0.7,0.5-1.2s0.1-0.9,0.1-1.4c0-0.5-0.1-0.9-0.1-1.4c-0.1-0.5-0.3-0.9-0.5-1.2c-0.2-0.4-0.5-0.7-0.9-0.9
		c-0.4-0.2-0.8-0.3-1.3-0.3c-0.5,0-1,0.1-1.3,0.3c-0.4,0.2-0.7,0.5-0.9,0.9s-0.4,0.8-0.5,1.2c-0.1,0.5-0.1,0.9-0.1,1.4
		c0,0.5,0,0.9,0.1,1.4c0.1,0.5,0.3,0.9,0.5,1.2c0.2,0.3,0.5,0.6,0.9,0.8c0.4,0.2,0.8,0.3,1.3,0.3C17.5,330.2,17.9,330.1,18.3,329.9z
		"/>
	<path d="M28.2,315.9v16.4h-3.3v-16.4H28.2z"/>
	<path d="M30.4,324.1c0-0.8,0.2-1.4,0.6-1.9c0.3-0.5,0.8-0.9,1.3-1.2c0.5-0.3,1.1-0.5,1.8-0.7c0.7-0.1,1.3-0.2,2-0.2
		c0.6,0,1.2,0,1.8,0.1c0.6,0.1,1.2,0.2,1.7,0.5s0.9,0.6,1.2,1c0.3,0.4,0.5,1,0.5,1.7v6.2c0,0.5,0,1,0.1,1.5c0.1,0.5,0.2,0.9,0.3,1.1
		h-3.3c-0.1-0.2-0.1-0.4-0.1-0.6c0-0.2-0.1-0.4-0.1-0.6c-0.5,0.5-1.1,0.9-1.8,1.1c-0.7,0.2-1.4,0.3-2.2,0.3c-0.6,0-1.1-0.1-1.6-0.2
		c-0.5-0.1-0.9-0.4-1.3-0.6c-0.4-0.3-0.7-0.7-0.9-1.1c-0.2-0.4-0.3-1-0.3-1.6c0-0.7,0.1-1.2,0.4-1.7c0.2-0.4,0.5-0.8,0.9-1
		c0.4-0.3,0.8-0.5,1.3-0.6c0.5-0.1,1-0.2,1.5-0.3c0.5-0.1,1-0.1,1.4-0.2c0.5,0,0.9-0.1,1.3-0.2c0.4-0.1,0.7-0.2,0.9-0.4
		c0.2-0.2,0.3-0.4,0.3-0.8c0-0.4-0.1-0.6-0.2-0.8c-0.1-0.2-0.3-0.4-0.5-0.5c-0.2-0.1-0.4-0.2-0.7-0.2c-0.3,0-0.5-0.1-0.8-0.1
		c-0.6,0-1.2,0.1-1.5,0.4c-0.4,0.3-0.6,0.7-0.6,1.4H30.4z M37.9,326.5c-0.1,0.1-0.3,0.2-0.5,0.3c-0.2,0.1-0.4,0.1-0.7,0.2
		s-0.5,0.1-0.7,0.1c-0.3,0-0.5,0.1-0.8,0.1c-0.2,0-0.5,0.1-0.7,0.2c-0.2,0.1-0.4,0.2-0.6,0.3c-0.2,0.1-0.3,0.3-0.4,0.5
		c-0.1,0.2-0.2,0.5-0.2,0.8c0,0.3,0.1,0.5,0.2,0.7c0.1,0.2,0.3,0.4,0.4,0.5c0.2,0.1,0.4,0.2,0.6,0.2c0.2,0,0.5,0.1,0.8,0.1
		c0.6,0,1.1-0.1,1.5-0.3c0.4-0.2,0.6-0.5,0.8-0.8c0.2-0.3,0.3-0.6,0.3-0.9c0-0.3,0.1-0.6,0.1-0.7V326.5z"/>
	<path d="M46.6,320.5v1.7h0.1c0.4-0.7,1-1.2,1.6-1.5s1.3-0.5,2-0.5c0.9,0,1.6,0.1,2.2,0.4c0.6,0.2,1,0.6,1.3,1
		c0.3,0.4,0.5,0.9,0.7,1.5c0.1,0.6,0.2,1.3,0.2,2v7.3h-3.3v-6.7c0-1-0.2-1.7-0.5-2.2c-0.3-0.5-0.9-0.7-1.6-0.7
		c-0.9,0-1.5,0.3-1.9,0.8c-0.4,0.5-0.6,1.4-0.6,2.6v6.2h-3.3v-11.9H46.6z"/>
	<path d="M60.7,328.8v3.5c0,0.5-0.1,1-0.3,1.4c-0.2,0.4-0.4,0.8-0.8,1.1c-0.3,0.3-0.7,0.6-1.1,0.8s-0.9,0.3-1.4,0.4v-1.7
		c0.2,0,0.4-0.1,0.7-0.3c0.2-0.1,0.4-0.3,0.5-0.5c0.2-0.2,0.3-0.4,0.3-0.6c0.1-0.2,0.1-0.5,0.1-0.7h-1.7v-3.5H60.7z"/>
	<path d="M75.8,320.5v2.2h-2.4v5.9c0,0.6,0.1,0.9,0.3,1.1c0.2,0.2,0.6,0.3,1.1,0.3c0.2,0,0.4,0,0.5,0s0.3,0,0.5-0.1v2.5
		c-0.3,0-0.6,0.1-0.9,0.1c-0.3,0-0.7,0-1,0c-0.5,0-1,0-1.4-0.1c-0.5-0.1-0.9-0.2-1.2-0.4s-0.6-0.5-0.8-0.9s-0.3-0.9-0.3-1.4v-7h-2
		v-2.2h2v-3.6h3.3v3.6H75.8z"/>
	<path d="M77.3,323.8c0.3-0.8,0.7-1.4,1.2-2c0.5-0.5,1.2-1,1.9-1.3c0.8-0.3,1.6-0.4,2.5-0.4s1.8,0.1,2.5,0.4s1.4,0.7,1.9,1.3
		c0.5,0.5,1,1.2,1.2,2c0.3,0.8,0.4,1.6,0.4,2.6c0,1-0.1,1.8-0.4,2.6c-0.3,0.8-0.7,1.4-1.2,2c-0.5,0.5-1.2,1-1.9,1.3
		s-1.6,0.4-2.5,0.4s-1.8-0.1-2.5-0.4c-0.8-0.3-1.4-0.7-1.9-1.3c-0.5-0.5-1-1.2-1.2-2c-0.3-0.8-0.4-1.6-0.4-2.6
		C76.8,325.5,77,324.6,77.3,323.8z M80.2,327.8c0.1,0.5,0.2,0.9,0.5,1.2c0.2,0.4,0.5,0.6,0.9,0.9s0.8,0.3,1.4,0.3
		c0.6,0,1-0.1,1.4-0.3s0.7-0.5,0.9-0.9c0.2-0.4,0.4-0.8,0.5-1.2c0.1-0.5,0.1-0.9,0.1-1.4c0-0.5,0-0.9-0.1-1.4
		c-0.1-0.5-0.2-0.9-0.5-1.2c-0.2-0.4-0.5-0.6-0.9-0.9c-0.4-0.2-0.8-0.3-1.4-0.3c-0.6,0-1,0.1-1.4,0.3c-0.4,0.2-0.7,0.5-0.9,0.9
		c-0.2,0.4-0.4,0.8-0.5,1.2c-0.1,0.5-0.1,0.9-0.1,1.4C80.1,326.9,80.1,327.4,80.2,327.8z"/>
	<path d="M91.1,323.8c0.3-0.8,0.7-1.4,1.2-2c0.5-0.5,1.2-1,1.9-1.3c0.8-0.3,1.6-0.4,2.5-0.4s1.8,0.1,2.5,0.4s1.4,0.7,1.9,1.3
		c0.5,0.5,1,1.2,1.2,2c0.3,0.8,0.4,1.6,0.4,2.6c0,1-0.1,1.8-0.4,2.6c-0.3,0.8-0.7,1.4-1.2,2c-0.5,0.5-1.2,1-1.9,1.3
		s-1.6,0.4-2.5,0.4s-1.8-0.1-2.5-0.4c-0.8-0.3-1.4-0.7-1.9-1.3c-0.5-0.5-1-1.2-1.2-2c-0.3-0.8-0.4-1.6-0.4-2.6
		C90.7,325.5,90.8,324.6,91.1,323.8z M94.1,327.8c0.1,0.5,0.2,0.9,0.5,1.2c0.2,0.4,0.5,0.6,0.9,0.9s0.8,0.3,1.4,0.3
		c0.6,0,1-0.1,1.4-0.3s0.7-0.5,0.9-0.9c0.2-0.4,0.4-0.8,0.5-1.2c0.1-0.5,0.1-0.9,0.1-1.4c0-0.5,0-0.9-0.1-1.4
		c-0.1-0.5-0.2-0.9-0.5-1.2c-0.2-0.4-0.5-0.6-0.9-0.9c-0.4-0.2-0.8-0.3-1.4-0.3c-0.6,0-1,0.1-1.4,0.3c-0.4,0.2-0.7,0.5-0.9,0.9
		c-0.2,0.4-0.4,0.8-0.5,1.2c-0.1,0.5-0.1,0.9-0.1,1.4C93.9,326.9,94,327.4,94.1,327.8z"/>
	<path d="M108.6,328.8v3.5H105v-3.5H108.6z"/>
</g>
</svg>
