<?xml version="1.0" encoding="utf-8"?>
<!-- Generator: Adobe Illustrator 25.4.1, SVG Export Plug-In . SVG Version: 6.00 Build 0)  -->
<svg version="1.1" id="Layer_1" xmlns="http://www.w3.org/2000/svg" xmlns:xlink="http://www.w3.org/1999/xlink" x="0px" y="0px"
	 viewBox="0 0 160 600" style="enable-background:new 0 0 160 600;" xml:space="preserve">
<g>
	<path d="M59.3,134c0.7,0,1.4,0.1,2,0.4c0.6,0.2,1.1,0.6,1.5,1s0.7,0.9,1,1.4s0.3,1.1,0.3,1.8c0,1-0.2,1.8-0.6,2.5s-1.1,1.2-2,1.6v0
		c0.4,0.1,0.8,0.3,1.1,0.6s0.5,0.6,0.7,0.9c0.2,0.3,0.3,0.7,0.4,1.1s0.1,0.8,0.2,1.2c0,0.3,0,0.6,0,0.9s0,0.7,0.1,1.1
		c0,0.4,0.1,0.7,0.2,1c0.1,0.3,0.2,0.6,0.4,0.8H61c-0.2-0.5-0.3-1.1-0.4-1.9s-0.1-1.4-0.2-2.1c-0.1-0.9-0.4-1.5-0.8-1.9
		c-0.4-0.4-1.1-0.6-2-0.6h-3.6v6.4h-3.6V134H59.3z M58,141.4c0.8,0,1.4-0.2,1.9-0.6s0.6-1,0.6-1.8c0-0.8-0.2-1.4-0.6-1.7
		c-0.4-0.4-1-0.5-1.9-0.5h-4v4.6H58z"/>
	<path d="M70.2,147.6c0.5,0.5,1.2,0.7,2.1,0.7c0.7,0,1.2-0.2,1.7-0.5s0.8-0.7,0.9-1h2.9c-0.5,1.4-1.2,2.4-2.1,3.1
		c-1,0.6-2.1,0.9-3.5,0.9c-0.9,0-1.8-0.1-2.5-0.4c-0.8-0.3-1.4-0.7-1.9-1.3c-0.5-0.6-0.9-1.2-1.2-2c-0.3-0.8-0.4-1.6-0.4-2.5
		c0-0.9,0.1-1.7,0.4-2.5c0.3-0.8,0.7-1.4,1.2-2c0.5-0.6,1.2-1,1.9-1.3c0.7-0.3,1.6-0.5,2.5-0.5c1,0,1.9,0.2,2.6,0.6s1.4,0.9,1.9,1.6
		c0.5,0.7,0.8,1.4,1,2.3c0.2,0.8,0.3,1.7,0.2,2.6h-8.6C69.5,146.3,69.7,147.1,70.2,147.6z M73.9,141.3c-0.4-0.4-1-0.6-1.8-0.6
		c-0.5,0-1,0.1-1.3,0.3s-0.6,0.4-0.8,0.7s-0.4,0.5-0.4,0.8c-0.1,0.3-0.1,0.6-0.1,0.8h5.3C74.6,142.4,74.3,141.7,73.9,141.3z"/>
	<path d="M79.8,142.2c0-0.8,0.2-1.4,0.6-1.9s0.8-0.9,1.3-1.2s1.1-0.5,1.8-0.7c0.7-0.1,1.3-0.2,2-0.2c0.6,0,1.2,0,1.8,0.1
		c0.6,0.1,1.2,0.2,1.7,0.5c0.5,0.2,0.9,0.6,1.2,1c0.3,0.4,0.5,1,0.5,1.7v6.2c0,0.5,0,1.1,0.1,1.5s0.2,0.9,0.3,1.1h-3.3
		c-0.1-0.2-0.1-0.4-0.1-0.6c0-0.2-0.1-0.4-0.1-0.6c-0.5,0.5-1.1,0.9-1.8,1.1c-0.7,0.2-1.4,0.3-2.2,0.3c-0.6,0-1.1-0.1-1.6-0.2
		c-0.5-0.1-0.9-0.4-1.3-0.6c-0.4-0.3-0.7-0.7-0.9-1.1s-0.3-1-0.3-1.6c0-0.7,0.1-1.2,0.4-1.7c0.2-0.4,0.5-0.8,0.9-1
		c0.4-0.3,0.8-0.5,1.3-0.6c0.5-0.1,1-0.2,1.5-0.3c0.5-0.1,1-0.1,1.4-0.2s0.9-0.1,1.3-0.2c0.4-0.1,0.7-0.2,0.9-0.4s0.3-0.4,0.3-0.8
		c0-0.4-0.1-0.6-0.2-0.8s-0.3-0.4-0.5-0.5c-0.2-0.1-0.4-0.2-0.7-0.2c-0.3,0-0.5-0.1-0.8-0.1c-0.6,0-1.2,0.1-1.5,0.4
		c-0.4,0.3-0.6,0.7-0.6,1.4H79.8z M87.3,144.6c-0.1,0.1-0.3,0.2-0.5,0.3c-0.2,0.1-0.4,0.1-0.7,0.2c-0.2,0-0.5,0.1-0.7,0.1
		c-0.3,0-0.5,0.1-0.8,0.1c-0.2,0-0.5,0.1-0.7,0.2c-0.2,0.1-0.4,0.2-0.6,0.3c-0.2,0.1-0.3,0.3-0.4,0.5c-0.1,0.2-0.2,0.5-0.2,0.8
		c0,0.3,0.1,0.5,0.2,0.7c0.1,0.2,0.3,0.4,0.4,0.5c0.2,0.1,0.4,0.2,0.6,0.2s0.5,0.1,0.8,0.1c0.6,0,1.1-0.1,1.5-0.3
		c0.4-0.2,0.6-0.5,0.8-0.8c0.2-0.3,0.3-0.6,0.3-0.9c0-0.3,0.1-0.6,0.1-0.7V144.6z"/>
	<path d="M101.6,148.9c-0.4,0.6-0.9,1.1-1.5,1.4s-1.3,0.4-2.1,0.4c-0.9,0-1.7-0.2-2.3-0.5c-0.7-0.3-1.2-0.8-1.7-1.4
		c-0.4-0.6-0.8-1.3-1-2c-0.2-0.8-0.3-1.6-0.3-2.4c0-0.8,0.1-1.6,0.3-2.3s0.6-1.4,1-2c0.4-0.6,1-1,1.6-1.4c0.7-0.3,1.4-0.5,2.3-0.5
		c0.7,0,1.4,0.1,2,0.4c0.6,0.3,1.1,0.7,1.5,1.3h0v-6h3.3v16.4h-3.1L101.6,148.9L101.6,148.9z M101.4,143c-0.1-0.5-0.2-0.9-0.5-1.2
		c-0.2-0.3-0.5-0.6-0.9-0.8c-0.4-0.2-0.8-0.3-1.3-0.3c-0.5,0-1,0.1-1.4,0.3c-0.4,0.2-0.7,0.5-0.9,0.9c-0.2,0.4-0.4,0.8-0.5,1.2
		c-0.1,0.5-0.1,0.9-0.1,1.4c0,0.5,0.1,0.9,0.2,1.4s0.3,0.9,0.5,1.2c0.2,0.4,0.5,0.7,0.9,0.9c0.4,0.2,0.8,0.3,1.3,0.3
		c0.5,0,1-0.1,1.3-0.3s0.6-0.5,0.9-0.9c0.2-0.4,0.4-0.8,0.5-1.2s0.1-0.9,0.1-1.4S101.5,143.5,101.4,143z"/>
	<path d="M107.3,142.3v-3.5h3.6v3.5H107.3z M111,146.9v3.5h-3.6v-3.5H111z"/>
</g>
<g>
	<path d="M42.2,160c0.8,0,1.6,0.1,2.3,0.2c0.7,0.2,1.3,0.4,1.8,0.8c0.5,0.4,0.9,0.9,1.2,1.5s0.4,1.4,0.4,2.3c0,0.9-0.2,1.7-0.5,2.4
		c-0.3,0.7-0.8,1.3-1.4,1.8s-1.3,0.9-2,1.1c-0.8,0.3-1.6,0.4-2.4,0.4H37l-1.2,5.9h-3.6l3.4-16.4H42.2z M41.3,167.7
		c0.9,0,1.6-0.2,2.2-0.7c0.5-0.5,0.8-1.2,0.8-2.2c0-0.4-0.1-0.8-0.2-1c-0.1-0.3-0.3-0.5-0.6-0.6c-0.2-0.1-0.5-0.2-0.8-0.3
		c-0.3-0.1-0.6-0.1-0.9-0.1h-3.1l-1,4.9H41.3z"/>
	<path d="M52.9,164.5l-0.5,2.1l0,0c0.4-0.8,0.9-1.5,1.7-1.9c0.7-0.4,1.6-0.6,2.4-0.6c0.3,0,0.7,0,1,0.1l-0.7,3.2
		c-0.2,0-0.5-0.1-0.7-0.1s-0.5-0.1-0.7-0.1c-0.6,0-1.2,0.1-1.6,0.3c-0.4,0.2-0.8,0.5-1.1,0.9c-0.3,0.4-0.5,0.8-0.7,1.3
		c-0.2,0.5-0.3,1-0.4,1.5l-1.1,5.3h-3.2l2.5-11.9H52.9z"/>
	<path d="M58.6,166.3c0.4-0.5,0.8-0.9,1.3-1.2s1.1-0.5,1.7-0.7c0.6-0.1,1.3-0.2,2-0.2c0.5,0,1.1,0,1.7,0.1c0.6,0.1,1.1,0.2,1.6,0.4
		s0.9,0.5,1.2,0.9c0.3,0.4,0.5,0.9,0.4,1.6c0,0.6-0.1,1.2-0.3,2l-1.1,4.8c-0.1,0.2-0.1,0.5-0.1,0.8s0,0.6,0,0.8c0,0.2,0,0.4,0.1,0.7
		h-3.3v-1.2c-0.4,0.5-1,0.9-1.6,1.1c-0.6,0.2-1.3,0.4-2,0.4c-0.6,0-1.2-0.1-1.7-0.3c-0.5-0.2-0.9-0.4-1.2-0.7
		c-0.3-0.3-0.6-0.6-0.7-1c-0.2-0.4-0.2-0.8-0.2-1.2c0-1.1,0.4-2.1,1.2-2.8s1.9-1.1,3.3-1.3c0.8-0.1,1.4-0.2,2-0.2
		c0.6,0,1-0.1,1.4-0.2s0.7-0.2,0.8-0.4s0.3-0.5,0.3-0.9c0-0.3-0.1-0.6-0.2-0.7c-0.1-0.2-0.3-0.3-0.5-0.4c-0.2-0.1-0.4-0.2-0.7-0.2
		c-0.2,0-0.5-0.1-0.7-0.1c-0.6,0-1.1,0.1-1.6,0.4c-0.5,0.3-0.7,0.7-0.9,1.3h-3.1C58,167.4,58.3,166.8,58.6,166.3z M63.5,171.2
		c-0.5,0.1-1,0.1-1.4,0.1c-0.3,0-0.6,0.1-0.9,0.1c-0.3,0.1-0.5,0.2-0.8,0.3c-0.2,0.1-0.4,0.3-0.5,0.6s-0.2,0.5-0.2,0.9
		c0,0.4,0.2,0.8,0.5,1c0.4,0.2,0.8,0.3,1.3,0.3c0.5,0,0.9-0.1,1.3-0.2s0.6-0.4,0.9-0.6c0.2-0.3,0.4-0.5,0.6-0.9
		c0.1-0.3,0.3-0.6,0.3-1l0.3-1.1C64.4,171,64,171.1,63.5,171.2z"/>
	<path d="M78.2,167.1c-0.4-0.3-0.9-0.5-1.6-0.5c-0.6,0-1.1,0.2-1.6,0.5c-0.4,0.3-0.8,0.7-1,1.3c-0.3,0.5-0.4,1.1-0.6,1.6
		c-0.1,0.6-0.2,1.1-0.2,1.6c0,0.4,0,0.7,0.1,1c0.1,0.3,0.2,0.6,0.4,0.8s0.4,0.4,0.7,0.6c0.3,0.1,0.6,0.2,1,0.2c0.4,0,0.7-0.1,1-0.2
		c0.3-0.1,0.5-0.3,0.8-0.5c0.2-0.2,0.4-0.4,0.6-0.7s0.3-0.5,0.4-0.8h3.3c-0.5,1.5-1.2,2.6-2.3,3.4c-1,0.8-2.3,1.2-3.9,1.2
		c-1.7,0-3-0.4-3.9-1.2c-0.9-0.8-1.4-2.1-1.4-3.9c0-1,0.1-2,0.4-2.9s0.7-1.7,1.3-2.4c0.6-0.7,1.3-1.2,2.1-1.6s1.8-0.6,2.9-0.6
		c0.7,0,1.4,0.1,2,0.3c0.6,0.2,1.2,0.4,1.7,0.8c0.5,0.4,0.9,0.8,1.2,1.4c0.3,0.6,0.4,1.2,0.4,2h-3.3
		C78.8,167.9,78.6,167.4,78.2,167.1z"/>
	<path d="M91.3,164.5l-0.5,2.2h-2.3l-1.2,5.9c0,0.1-0.1,0.2-0.1,0.3c0,0.1,0,0.2,0,0.2c0,0.2,0,0.4,0.1,0.5c0.1,0.1,0.2,0.2,0.3,0.3
		c0.1,0.1,0.2,0.1,0.4,0.1c0.1,0,0.3,0,0.4,0c0.4,0,0.8,0,1.2-0.1l-0.6,2.5c-0.3,0-0.7,0.1-1,0.1c-0.3,0-0.7,0-1,0
		c-0.4,0-0.8,0-1.1-0.1c-0.4-0.1-0.7-0.2-1-0.4c-0.3-0.2-0.5-0.4-0.7-0.7c-0.2-0.3-0.3-0.7-0.2-1.2c0-0.2,0-0.3,0-0.5
		c0-0.2,0.1-0.4,0.1-0.6l1.3-6.4h-2.1l0.5-2.2h2.1l0.7-3.6h3.3l-0.7,3.6H91.3z"/>
	<path d="M96.6,164.5l-2.5,11.9h-3.3l2.5-11.9H96.6z M93.7,162.7l0.6-2.7h3.3l-0.6,2.7H93.7z"/>
	<path d="M105.5,167.1c-0.4-0.3-0.9-0.5-1.6-0.5c-0.6,0-1.1,0.2-1.6,0.5c-0.4,0.3-0.8,0.7-1,1.3c-0.3,0.5-0.4,1.1-0.6,1.6
		c-0.1,0.6-0.2,1.1-0.2,1.6c0,0.4,0,0.7,0.1,1c0.1,0.3,0.2,0.6,0.4,0.8s0.4,0.4,0.7,0.6c0.3,0.1,0.6,0.2,1,0.2c0.4,0,0.7-0.1,1-0.2
		c0.3-0.1,0.5-0.3,0.8-0.5c0.2-0.2,0.4-0.4,0.6-0.7s0.3-0.5,0.4-0.8h3.3c-0.5,1.5-1.2,2.6-2.3,3.4c-1,0.8-2.3,1.2-3.9,1.2
		c-1.7,0-3-0.4-3.9-1.2c-0.9-0.8-1.4-2.1-1.4-3.9c0-1,0.1-2,0.4-2.9s0.7-1.7,1.3-2.4c0.6-0.7,1.3-1.2,2.1-1.6s1.8-0.6,2.9-0.6
		c0.7,0,1.4,0.1,2,0.3c0.6,0.2,1.2,0.4,1.7,0.8c0.5,0.4,0.9,0.8,1.2,1.4c0.3,0.6,0.4,1.2,0.4,2H106
		C106,167.9,105.9,167.4,105.5,167.1z"/>
	<path d="M111.9,166.3c0.4-0.5,0.8-0.9,1.3-1.2c0.5-0.3,1.1-0.5,1.7-0.7c0.6-0.1,1.3-0.2,2-0.2c0.5,0,1.1,0,1.7,0.1
		c0.6,0.1,1.1,0.2,1.6,0.4c0.5,0.2,0.9,0.5,1.2,0.9c0.3,0.4,0.5,0.9,0.4,1.6c0,0.6-0.1,1.2-0.3,2l-1.1,4.8c-0.1,0.2-0.1,0.5-0.1,0.8
		s0,0.6,0,0.8c0,0.2,0,0.4,0.1,0.7h-3.3v-1.2c-0.4,0.5-1,0.9-1.6,1.1c-0.6,0.2-1.3,0.4-2,0.4c-0.6,0-1.2-0.1-1.7-0.3
		c-0.5-0.2-0.9-0.4-1.2-0.7c-0.3-0.3-0.6-0.6-0.7-1c-0.2-0.4-0.2-0.8-0.2-1.2c0-1.1,0.4-2.1,1.2-2.8c0.8-0.7,1.9-1.1,3.3-1.3
		c0.8-0.1,1.4-0.2,2-0.2s1-0.1,1.4-0.2c0.4-0.1,0.7-0.2,0.8-0.4c0.2-0.2,0.3-0.5,0.3-0.9c0-0.3-0.1-0.6-0.2-0.7
		c-0.1-0.2-0.3-0.3-0.5-0.4c-0.2-0.1-0.4-0.2-0.7-0.2c-0.2,0-0.5-0.1-0.7-0.1c-0.6,0-1.1,0.1-1.6,0.4c-0.5,0.3-0.7,0.7-0.9,1.3h-3.1
		C111.3,167.4,111.5,166.8,111.9,166.3z M116.8,171.2c-0.5,0.1-1,0.1-1.4,0.1c-0.3,0-0.6,0.1-0.9,0.1s-0.5,0.2-0.8,0.3
		c-0.2,0.1-0.4,0.3-0.5,0.6c-0.1,0.2-0.2,0.5-0.2,0.9c0,0.4,0.2,0.8,0.5,1s0.8,0.3,1.3,0.3c0.5,0,0.9-0.1,1.3-0.2
		c0.3-0.2,0.6-0.4,0.9-0.6c0.2-0.3,0.4-0.5,0.6-0.9c0.1-0.3,0.3-0.6,0.3-1l0.3-1.1C117.7,171,117.2,171.1,116.8,171.2z"/>
	<path d="M129.5,160l-3.5,16.4h-3.2l3.5-16.4H129.5z"/>
</g>
<g>
	<path d="M28.6,192.3c0.4-0.5,0.8-0.9,1.3-1.2s1.1-0.5,1.7-0.7c0.6-0.1,1.3-0.2,2-0.2c0.5,0,1.1,0,1.7,0.1c0.6,0.1,1.1,0.2,1.6,0.4
		c0.5,0.2,0.9,0.5,1.2,0.9c0.3,0.4,0.5,0.9,0.4,1.6c0,0.6-0.1,1.2-0.3,2l-1.1,4.8c-0.1,0.2-0.1,0.5-0.1,0.8s0,0.6,0,0.8
		c0,0.2,0,0.4,0.1,0.7h-3.3v-1.2c-0.4,0.5-1,0.9-1.6,1.1c-0.6,0.2-1.3,0.4-2,0.4c-0.6,0-1.2-0.1-1.7-0.3c-0.5-0.2-0.9-0.4-1.2-0.7
		c-0.3-0.3-0.6-0.6-0.7-1c-0.2-0.4-0.2-0.8-0.2-1.2c0-1.1,0.4-2.1,1.2-2.8s1.9-1.1,3.3-1.3c0.8-0.1,1.4-0.2,2-0.2
		c0.6,0,1-0.1,1.4-0.2c0.4-0.1,0.7-0.2,0.8-0.4s0.3-0.5,0.3-0.9c0-0.3-0.1-0.6-0.2-0.7c-0.1-0.2-0.3-0.3-0.5-0.4
		c-0.2-0.1-0.4-0.2-0.7-0.2c-0.2,0-0.5-0.1-0.7-0.1c-0.6,0-1.1,0.1-1.6,0.4c-0.5,0.3-0.7,0.7-0.9,1.3h-3.1
		C28,193.4,28.2,192.7,28.6,192.3z M33.5,197.1c-0.5,0.1-1,0.1-1.4,0.1c-0.3,0-0.6,0.1-0.9,0.1c-0.3,0.1-0.5,0.2-0.8,0.3
		c-0.2,0.1-0.4,0.3-0.5,0.6s-0.2,0.5-0.2,0.9c0,0.4,0.2,0.8,0.5,1c0.4,0.2,0.8,0.3,1.3,0.3c0.5,0,0.9-0.1,1.3-0.2
		c0.3-0.2,0.6-0.4,0.9-0.6s0.4-0.5,0.6-0.9c0.1-0.3,0.3-0.6,0.3-1l0.3-1.1C34.4,196.9,33.9,197.1,33.5,197.1z"/>
	<path d="M48.1,200.9c-0.4,0.6-0.9,1.1-1.5,1.4s-1.3,0.4-2.1,0.4c-1.4,0-2.6-0.4-3.3-1.3c-0.8-0.8-1.2-2-1.2-3.4
		c0-1,0.1-1.9,0.4-2.9c0.3-0.9,0.7-1.8,1.2-2.5s1.2-1.3,2-1.8c0.8-0.5,1.8-0.7,2.9-0.7c0.7,0,1.4,0.2,2,0.5c0.6,0.3,1.1,0.8,1.3,1.4
		h0l1.3-6.1h3.3l-3.5,16.4h-3.2L48.1,200.9L48.1,200.9z M45.2,193.1c-0.5,0.3-0.8,0.7-1.1,1.2c-0.3,0.5-0.5,1-0.6,1.6
		c-0.1,0.6-0.2,1.1-0.2,1.7c0,0.4,0,0.7,0.1,1c0.1,0.3,0.2,0.6,0.4,0.8c0.2,0.2,0.4,0.4,0.7,0.6c0.3,0.1,0.6,0.2,1,0.2
		c0.6,0,1.1-0.2,1.6-0.5s0.8-0.7,1.1-1.3c0.3-0.5,0.5-1.1,0.7-1.6c0.1-0.6,0.2-1.1,0.2-1.6c0-0.8-0.2-1.4-0.6-1.9s-1-0.7-1.8-0.7
		C46.2,192.7,45.6,192.8,45.2,193.1z"/>
	<path d="M56,202.4l-1.6-11.9h3.4l0.7,8.5h0l4.2-8.5h3.5l-6.5,11.9H56z"/>
	<path d="M71.3,190.5l-2.5,11.9h-3.3l2.5-11.9H71.3z M68.3,188.7l0.6-2.7h3.3l-0.6,2.7H68.3z"/>
	<path d="M80.1,193.1c-0.4-0.3-0.9-0.5-1.6-0.5c-0.6,0-1.1,0.2-1.6,0.5c-0.4,0.3-0.8,0.7-1,1.3c-0.3,0.5-0.4,1.1-0.6,1.6
		c-0.1,0.6-0.2,1.1-0.2,1.6c0,0.4,0,0.7,0.1,1c0.1,0.3,0.2,0.6,0.4,0.8s0.4,0.4,0.7,0.6c0.3,0.1,0.6,0.2,1,0.2c0.4,0,0.7-0.1,1-0.2
		c0.3-0.1,0.5-0.3,0.8-0.5c0.2-0.2,0.4-0.4,0.6-0.7s0.3-0.5,0.4-0.8h3.3c-0.5,1.5-1.2,2.6-2.3,3.4c-1,0.8-2.3,1.2-3.9,1.2
		c-1.7,0-3-0.4-3.9-1.2c-0.9-0.8-1.4-2.1-1.4-3.9c0-1,0.1-2,0.4-2.9s0.7-1.7,1.3-2.4c0.6-0.7,1.3-1.2,2.1-1.6s1.8-0.6,2.9-0.6
		c0.7,0,1.4,0.1,2,0.3c0.6,0.2,1.2,0.4,1.7,0.8c0.5,0.4,0.9,0.8,1.2,1.4c0.3,0.6,0.4,1.2,0.4,2h-3.3
		C80.7,193.9,80.5,193.4,80.1,193.1z"/>
	<path d="M87.8,197.5c0,0.1,0,0.1,0,0.2v0.3c0,0.7,0.2,1.2,0.6,1.7c0.4,0.4,1.1,0.6,2,0.6c0.3,0,0.6,0,0.9-0.1
		c0.3-0.1,0.5-0.2,0.7-0.4c0.2-0.2,0.4-0.3,0.5-0.5c0.1-0.2,0.3-0.4,0.4-0.6h3.3c-0.3,0.7-0.6,1.3-0.9,1.8s-0.8,0.9-1.3,1.3
		c-0.5,0.3-1.1,0.6-1.7,0.8c-0.7,0.2-1.4,0.3-2.3,0.3c-0.8,0-1.5-0.1-2.2-0.3c-0.7-0.2-1.2-0.5-1.7-1s-0.8-1-1.1-1.6
		s-0.4-1.4-0.4-2.3c0-1,0.2-1.9,0.5-2.7c0.3-0.9,0.7-1.7,1.3-2.3c0.6-0.7,1.2-1.2,2.1-1.6s1.7-0.6,2.7-0.6c0.8,0,1.6,0.1,2.3,0.3
		c0.7,0.2,1.3,0.5,1.7,1c0.5,0.4,0.9,1,1.1,1.6c0.3,0.7,0.4,1.4,0.4,2.3c0,0.6-0.1,1.2-0.2,1.9h-8.8
		C87.8,197.3,87.8,197.4,87.8,197.5z M93.6,194.3c-0.1-0.3-0.2-0.6-0.3-0.8s-0.4-0.4-0.7-0.6c-0.3-0.1-0.7-0.2-1.2-0.2
		c-0.5,0-0.9,0.1-1.2,0.2c-0.4,0.1-0.7,0.3-0.9,0.6s-0.5,0.5-0.7,0.8c-0.2,0.3-0.3,0.6-0.4,1h5.5C93.6,194.9,93.6,194.6,93.6,194.3z
		"/>
	<path d="M104.6,192.7l0.5-2.2h2c0.2-0.8,0.3-1.4,0.5-2c0.2-0.6,0.4-1.1,0.8-1.5c0.3-0.4,0.7-0.7,1.3-0.9c0.5-0.2,1.2-0.3,2.1-0.3
		c0.4,0,0.7,0,1.1,0c0.4,0,0.7,0.1,1.1,0.1l-0.5,2.3c-0.2,0-0.3,0-0.5,0c-0.2,0-0.4,0-0.5,0c-0.4,0-0.7,0.1-0.9,0.1
		c-0.2,0.1-0.4,0.2-0.5,0.4c-0.1,0.2-0.2,0.4-0.3,0.7c-0.1,0.3-0.1,0.6-0.2,0.9h2.3l-0.5,2.2h-2.3l-2,9.7h-3.3l2-9.7H104.6z"/>
	<path d="M112.9,194.7c0.3-0.9,0.8-1.7,1.4-2.4c0.6-0.7,1.3-1.2,2.2-1.6c0.8-0.4,1.8-0.6,2.9-0.6c0.8,0,1.6,0.1,2.2,0.3
		c0.7,0.2,1.3,0.5,1.8,0.9c0.5,0.4,0.9,0.9,1.1,1.6c0.3,0.6,0.4,1.4,0.4,2.2c0,1-0.2,2-0.5,2.9c-0.3,0.9-0.8,1.7-1.4,2.4
		c-0.6,0.7-1.3,1.2-2.2,1.6c-0.9,0.4-1.8,0.6-2.9,0.6c-1.7,0-3-0.4-4-1.3c-1-0.9-1.5-2.1-1.5-3.8
		C112.4,196.6,112.5,195.6,112.9,194.7z M115.8,198.6c0.1,0.3,0.2,0.6,0.4,0.9s0.4,0.4,0.7,0.6c0.3,0.1,0.6,0.2,1,0.2
		c0.6,0,1.1-0.2,1.6-0.5c0.4-0.3,0.8-0.7,1.1-1.2c0.3-0.5,0.5-1,0.6-1.6c0.1-0.6,0.2-1.1,0.2-1.6c0-0.8-0.2-1.4-0.5-1.9
		c-0.4-0.5-1-0.7-1.9-0.7c-0.6,0-1.1,0.2-1.6,0.5c-0.4,0.3-0.8,0.7-1.1,1.2c-0.3,0.5-0.5,1-0.6,1.6c-0.1,0.6-0.2,1.1-0.2,1.6
		C115.6,198,115.7,198.3,115.8,198.6z"/>
	<path d="M131.1,190.5l-0.5,2.1l0,0c0.4-0.8,0.9-1.5,1.7-1.9c0.7-0.4,1.6-0.6,2.4-0.6c0.3,0,0.7,0,1,0.1l-0.7,3.2
		c-0.2,0-0.5-0.1-0.7-0.1s-0.5-0.1-0.7-0.1c-0.6,0-1.2,0.1-1.6,0.3c-0.4,0.2-0.8,0.5-1.1,0.9s-0.5,0.8-0.7,1.3
		c-0.2,0.5-0.3,1-0.4,1.5l-1.1,5.3h-3.2l2.5-11.9H131.1z"/>
</g>
<g>
	<path d="M31.2,216.5l-0.4,1.7h0c0.5-0.7,1.1-1.2,1.8-1.5c0.7-0.3,1.5-0.5,2.4-0.5c0.7,0,1.4,0.2,1.9,0.5c0.5,0.3,0.9,0.9,1,1.6
		c0.2-0.3,0.5-0.6,0.8-0.8c0.3-0.3,0.6-0.5,1-0.7c0.4-0.2,0.7-0.3,1.1-0.4c0.4-0.1,0.8-0.1,1.2-0.1c0.5,0,0.9,0.1,1.3,0.2
		s0.8,0.3,1.2,0.6c0.3,0.2,0.6,0.6,0.8,0.9c0.2,0.4,0.3,0.8,0.3,1.3c0,0.4,0,0.7-0.1,1.1c-0.1,0.4-0.2,0.7-0.2,1.1l-1.5,7h-3.3
		l1.6-7.5c0.1-0.3,0.1-0.6,0.1-0.9c0-0.4-0.1-0.7-0.4-0.9c-0.3-0.2-0.6-0.4-1-0.4c-0.4,0-0.8,0.1-1.2,0.3c-0.3,0.2-0.6,0.5-0.9,0.8
		c-0.3,0.3-0.5,0.7-0.6,1c-0.2,0.4-0.3,0.8-0.4,1.1l-1.3,6.4h-3.3l1.6-7.5c0.1-0.3,0.1-0.6,0.1-0.9c0-0.4-0.1-0.7-0.4-0.9
		c-0.3-0.2-0.6-0.4-1-0.4c-0.4,0-0.8,0.1-1.2,0.3c-0.3,0.2-0.6,0.5-0.9,0.8c-0.3,0.3-0.5,0.7-0.6,1c-0.2,0.4-0.3,0.8-0.4,1.1
		l-1.3,6.4h-3.2l2.5-11.9H31.2z"/>
	<path d="M48.8,218.2c0.4-0.5,0.8-0.9,1.3-1.2s1.1-0.5,1.7-0.7c0.6-0.1,1.3-0.2,2-0.2c0.5,0,1.1,0,1.7,0.1c0.6,0.1,1.1,0.2,1.6,0.4
		c0.5,0.2,0.9,0.5,1.2,0.9c0.3,0.4,0.5,0.9,0.4,1.6c0,0.6-0.1,1.2-0.3,2l-1.1,4.8c-0.1,0.2-0.1,0.5-0.1,0.8s0,0.6,0,0.8
		c0,0.2,0,0.4,0.1,0.7h-3.3v-1.2c-0.4,0.5-1,0.9-1.6,1.1c-0.6,0.2-1.3,0.4-2,0.4c-0.6,0-1.2-0.1-1.7-0.3c-0.5-0.2-0.9-0.4-1.2-0.7
		c-0.3-0.3-0.6-0.6-0.7-1c-0.2-0.4-0.2-0.8-0.2-1.2c0-1.1,0.4-2.1,1.2-2.8s1.9-1.1,3.3-1.3c0.8-0.1,1.4-0.2,2-0.2
		c0.6,0,1-0.1,1.4-0.2c0.4-0.1,0.7-0.2,0.8-0.4s0.3-0.5,0.3-0.9c0-0.3-0.1-0.6-0.2-0.7c-0.1-0.2-0.3-0.3-0.5-0.4
		c-0.2-0.1-0.4-0.2-0.7-0.2c-0.2,0-0.5-0.1-0.7-0.1c-0.6,0-1.1,0.1-1.6,0.4c-0.5,0.3-0.7,0.7-0.9,1.3h-3.1
		C48.2,219.4,48.5,218.7,48.8,218.2z M53.7,223.1c-0.5,0.1-1,0.1-1.4,0.1c-0.3,0-0.6,0.1-0.9,0.1c-0.3,0.1-0.5,0.2-0.8,0.3
		c-0.2,0.1-0.4,0.3-0.5,0.6s-0.2,0.5-0.2,0.9c0,0.4,0.2,0.8,0.5,1c0.4,0.2,0.8,0.3,1.3,0.3c0.5,0,0.9-0.1,1.3-0.2
		c0.3-0.2,0.6-0.4,0.9-0.6s0.4-0.5,0.6-0.9c0.1-0.3,0.3-0.6,0.3-1l0.3-1.1C54.6,222.9,54.2,223.1,53.7,223.1z"/>
	<path d="M65.3,216.5l-0.4,1.7h0c1.1-1.3,2.4-2,4.2-2c2.3,0,3.5,1.1,3.5,3.2c0,0.1,0,0.3,0,0.5c0,0.2-0.1,0.4-0.1,0.6
		c0,0.2-0.1,0.4-0.1,0.6c0,0.2-0.1,0.3-0.1,0.4l-1.5,7h-3.3l1.4-7c0-0.2,0.1-0.4,0.1-0.7c0.1-0.3,0.1-0.5,0.1-0.7
		c0-0.4-0.2-0.6-0.5-0.9c-0.3-0.2-0.7-0.3-1.1-0.3c-0.5,0-0.9,0.1-1.3,0.3c-0.4,0.2-0.7,0.4-1,0.7c-0.3,0.3-0.5,0.7-0.7,1.1
		c-0.2,0.4-0.3,0.8-0.4,1.2l-1.3,6.3h-3.2l2.5-11.9H65.3z"/>
	<path d="M76.1,218.2c0.4-0.5,0.8-0.9,1.3-1.2c0.5-0.3,1.1-0.5,1.7-0.7c0.6-0.1,1.3-0.2,2-0.2c0.5,0,1.1,0,1.7,0.1
		c0.6,0.1,1.1,0.2,1.6,0.4c0.5,0.2,0.9,0.5,1.2,0.9c0.3,0.4,0.5,0.9,0.4,1.6c0,0.6-0.1,1.2-0.3,2l-1.1,4.8c-0.1,0.2-0.1,0.5-0.1,0.8
		s0,0.6,0,0.8c0,0.2,0,0.4,0.1,0.7h-3.3v-1.2c-0.4,0.5-1,0.9-1.6,1.1c-0.6,0.2-1.3,0.4-2,0.4c-0.6,0-1.2-0.1-1.7-0.3
		c-0.5-0.2-0.9-0.4-1.2-0.7c-0.3-0.3-0.6-0.6-0.7-1c-0.2-0.4-0.2-0.8-0.2-1.2c0-1.1,0.4-2.1,1.2-2.8c0.8-0.7,1.9-1.1,3.3-1.3
		c0.8-0.1,1.4-0.2,2-0.2s1-0.1,1.4-0.2c0.4-0.1,0.7-0.2,0.8-0.4c0.2-0.2,0.3-0.5,0.3-0.9c0-0.3-0.1-0.6-0.2-0.7
		c-0.1-0.2-0.3-0.3-0.5-0.4c-0.2-0.1-0.4-0.2-0.7-0.2c-0.2,0-0.5-0.1-0.7-0.1c-0.6,0-1.1,0.1-1.6,0.4c-0.5,0.3-0.7,0.7-0.9,1.3h-3.1
		C75.5,219.4,75.7,218.7,76.1,218.2z M81,223.1c-0.5,0.1-1,0.1-1.4,0.1c-0.3,0-0.6,0.1-0.9,0.1s-0.5,0.2-0.8,0.3
		c-0.2,0.1-0.4,0.3-0.5,0.6c-0.1,0.2-0.2,0.5-0.2,0.9c0,0.4,0.2,0.8,0.5,1s0.8,0.3,1.3,0.3c0.5,0,0.9-0.1,1.3-0.2
		c0.3-0.2,0.6-0.4,0.9-0.6c0.2-0.3,0.4-0.5,0.6-0.9c0.1-0.3,0.3-0.6,0.3-1l0.3-1.1C81.9,222.9,81.4,223.1,81,223.1z"/>
	<path d="M97.6,230.1c-0.3,0.6-0.8,1.2-1.3,1.6s-1.2,0.7-1.9,0.9c-0.7,0.2-1.6,0.3-2.6,0.3c-0.6,0-1.2-0.1-1.8-0.2
		c-0.6-0.1-1.2-0.4-1.6-0.7c-0.5-0.3-0.9-0.7-1.2-1.2c-0.3-0.5-0.4-1.1-0.4-1.8H90c0,0.3,0,0.6,0.2,0.8c0.1,0.2,0.3,0.4,0.5,0.5
		c0.2,0.1,0.4,0.2,0.7,0.3c0.3,0.1,0.5,0.1,0.8,0.1c0.5,0,1-0.1,1.3-0.3c0.3-0.2,0.6-0.5,0.9-0.9c0.2-0.4,0.5-0.8,0.6-1.3
		c0.2-0.5,0.3-1,0.5-1.6l0,0c-0.8,1.1-1.9,1.7-3.3,1.7c-0.7,0-1.3-0.1-1.9-0.3s-1-0.6-1.4-1c-0.4-0.4-0.7-0.9-0.9-1.5
		s-0.3-1.3-0.3-2c0-0.9,0.1-1.7,0.4-2.6c0.3-0.9,0.7-1.6,1.2-2.3c0.5-0.7,1.1-1.2,1.9-1.7c0.7-0.4,1.6-0.6,2.5-0.6
		c0.8,0,1.6,0.2,2.2,0.5s1.1,0.9,1.4,1.7h0l0.4-1.8h3.1l-2.4,11.3C98.2,228.7,98,229.4,97.6,230.1z M92.8,219.1
		c-0.4,0.3-0.8,0.7-1,1.1c-0.3,0.4-0.5,0.9-0.6,1.4c-0.1,0.5-0.2,1-0.2,1.5c0,0.4,0,0.7,0.1,1c0.1,0.3,0.2,0.6,0.4,0.8
		c0.2,0.2,0.4,0.4,0.7,0.6s0.6,0.2,1,0.2c0.6,0,1.1-0.1,1.5-0.4c0.4-0.3,0.8-0.6,1.1-1.1c0.3-0.4,0.5-0.9,0.6-1.5s0.2-1.1,0.2-1.6
		c0-0.8-0.2-1.4-0.6-1.9c-0.4-0.5-1-0.7-1.8-0.7C93.7,218.6,93.2,218.8,92.8,219.1z"/>
	<path d="M106.8,216.5l-2.5,11.9H101l2.5-11.9H106.8z M103.9,214.7l0.6-2.7h3.3l-0.6,2.7H103.9z"/>
	<path d="M112.6,216.5l-0.4,1.7h0c1.1-1.3,2.4-2,4.2-2c2.3,0,3.5,1.1,3.5,3.2c0,0.1,0,0.3,0,0.5c0,0.2-0.1,0.4-0.1,0.6
		c0,0.2-0.1,0.4-0.1,0.6c0,0.2-0.1,0.3-0.1,0.4l-1.5,7h-3.3l1.4-7c0-0.2,0.1-0.4,0.1-0.7c0.1-0.3,0.1-0.5,0.1-0.7
		c0-0.4-0.2-0.6-0.5-0.9c-0.3-0.2-0.7-0.3-1.1-0.3c-0.5,0-0.9,0.1-1.3,0.3c-0.4,0.2-0.7,0.4-1,0.7c-0.3,0.3-0.5,0.7-0.7,1.1
		c-0.2,0.4-0.3,0.8-0.4,1.2l-1.3,6.3H107l2.5-11.9H112.6z"/>
	<path d="M131.7,230.1c-0.3,0.6-0.8,1.2-1.3,1.6s-1.2,0.7-1.9,0.9c-0.7,0.2-1.6,0.3-2.6,0.3c-0.6,0-1.2-0.1-1.8-0.2
		c-0.6-0.1-1.2-0.4-1.6-0.7c-0.5-0.3-0.9-0.7-1.2-1.2c-0.3-0.5-0.4-1.1-0.4-1.8h3.2c0,0.3,0,0.6,0.2,0.8c0.1,0.2,0.3,0.4,0.5,0.5
		c0.2,0.1,0.4,0.2,0.7,0.3c0.3,0.1,0.5,0.1,0.8,0.1c0.5,0,1-0.1,1.3-0.3c0.3-0.2,0.6-0.5,0.9-0.9c0.2-0.4,0.5-0.8,0.6-1.3
		c0.2-0.5,0.3-1,0.5-1.6l0,0c-0.8,1.1-1.9,1.7-3.3,1.7c-0.7,0-1.3-0.1-1.9-0.3s-1-0.6-1.4-1c-0.4-0.4-0.7-0.9-0.9-1.5
		s-0.3-1.3-0.3-2c0-0.9,0.1-1.7,0.4-2.6c0.3-0.9,0.7-1.6,1.2-2.3c0.5-0.7,1.1-1.2,1.9-1.7c0.7-0.4,1.6-0.6,2.5-0.6
		c0.8,0,1.6,0.2,2.2,0.5s1.1,0.9,1.4,1.7h0l0.4-1.8h3.1l-2.4,11.3C132.3,228.7,132,229.4,131.7,230.1z M126.8,219.1
		c-0.4,0.3-0.8,0.7-1,1.1c-0.3,0.4-0.5,0.9-0.6,1.4c-0.1,0.5-0.2,1-0.2,1.5c0,0.4,0,0.7,0.1,1c0.1,0.3,0.2,0.6,0.4,0.8
		c0.2,0.2,0.4,0.4,0.7,0.6s0.6,0.2,1,0.2c0.6,0,1.1-0.1,1.5-0.4c0.4-0.3,0.8-0.6,1.1-1.1c0.3-0.4,0.5-0.9,0.6-1.5s0.2-1.1,0.2-1.6
		c0-0.8-0.2-1.4-0.6-1.9c-0.4-0.5-1-0.7-1.8-0.7C127.7,218.6,127.2,218.8,126.8,219.1z"/>
</g>
<g>
	<path d="M13.2,238l-3.5,16.4H6.5L9.9,238H13.2z"/>
	<path d="M18.2,242.5l-2.5,11.9h-3.3l2.5-11.9H18.2z M15.3,240.7l0.6-2.7h3.3l-0.6,2.7H15.3z"/>
	<path d="M19.1,244.7l0.5-2.2h2c0.2-0.8,0.3-1.4,0.5-2c0.2-0.6,0.4-1.1,0.8-1.5c0.3-0.4,0.7-0.7,1.3-0.9c0.5-0.2,1.2-0.3,2.1-0.3
		c0.4,0,0.7,0,1.1,0c0.4,0,0.7,0.1,1.1,0.1l-0.5,2.3c-0.2,0-0.3,0-0.5,0c-0.2,0-0.4,0-0.5,0c-0.4,0-0.7,0.1-0.9,0.1
		c-0.2,0.1-0.4,0.2-0.5,0.4c-0.1,0.2-0.2,0.4-0.3,0.7c-0.1,0.3-0.1,0.6-0.2,0.9h2.3l-0.5,2.2h-2.3l-2,9.7H19l2-9.7H19.1z"/>
	<path d="M30.1,249.4c0,0.1,0,0.1,0,0.2v0.3c0,0.7,0.2,1.2,0.6,1.7c0.4,0.4,1.1,0.6,2,0.6c0.3,0,0.6,0,0.9-0.1
		c0.3-0.1,0.5-0.2,0.7-0.4s0.4-0.3,0.5-0.5c0.1-0.2,0.3-0.4,0.4-0.6h3.3c-0.3,0.7-0.6,1.3-0.9,1.8c-0.4,0.5-0.8,0.9-1.3,1.3
		c-0.5,0.3-1.1,0.6-1.7,0.8c-0.7,0.2-1.4,0.3-2.3,0.3c-0.8,0-1.5-0.1-2.2-0.3c-0.7-0.2-1.2-0.5-1.7-1s-0.8-1-1.1-1.6
		s-0.4-1.4-0.4-2.3c0-1,0.2-1.9,0.5-2.7c0.3-0.9,0.7-1.7,1.3-2.3c0.6-0.7,1.2-1.2,2.1-1.6c0.8-0.4,1.7-0.6,2.7-0.6
		c0.8,0,1.6,0.1,2.3,0.3c0.7,0.2,1.3,0.5,1.7,1c0.5,0.4,0.9,1,1.1,1.6s0.4,1.4,0.4,2.3c0,0.6-0.1,1.2-0.2,1.9h-8.8
		C30.1,249.3,30.1,249.4,30.1,249.4z M35.8,246.3c-0.1-0.3-0.2-0.6-0.3-0.8c-0.2-0.2-0.4-0.4-0.7-0.6c-0.3-0.1-0.7-0.2-1.1-0.2
		c-0.5,0-0.9,0.1-1.2,0.2c-0.4,0.1-0.7,0.3-0.9,0.6c-0.3,0.2-0.5,0.5-0.7,0.8c-0.2,0.3-0.3,0.6-0.4,1h5.5
		C35.9,246.9,35.9,246.6,35.8,246.3z"/>
	<path d="M51.9,242.5l-2.5,11.9h-3.3l2.5-11.9H51.9z M48.9,240.7l0.6-2.7h3.3l-0.6,2.7H48.9z"/>
	<path d="M57.6,242.5l-0.4,1.7h0c1.1-1.3,2.4-2,4.2-2c2.3,0,3.5,1.1,3.5,3.2c0,0.1,0,0.3,0,0.5c0,0.2-0.1,0.4-0.1,0.6
		c0,0.2-0.1,0.4-0.1,0.6c0,0.2-0.1,0.3-0.1,0.4l-1.5,7h-3.3l1.4-7c0-0.2,0.1-0.4,0.1-0.7c0.1-0.3,0.1-0.5,0.1-0.7
		c0-0.4-0.2-0.6-0.5-0.9c-0.3-0.2-0.7-0.3-1.1-0.3c-0.5,0-0.9,0.1-1.3,0.3c-0.4,0.2-0.7,0.4-1,0.7c-0.3,0.3-0.5,0.7-0.7,1.1
		c-0.2,0.4-0.3,0.8-0.4,1.2l-1.3,6.3H52l2.5-11.9H57.6z"/>
	<path d="M74,244.8c-0.3-0.3-0.7-0.4-1.4-0.4c-0.6,0-1.1,0.1-1.4,0.3c-0.4,0.2-0.6,0.5-0.6,0.9c0,0.3,0.1,0.5,0.3,0.7
		c0.2,0.2,0.6,0.4,1.2,0.5l1.6,0.5c0.4,0.1,0.9,0.3,1.2,0.5s0.7,0.4,1,0.7c0.3,0.3,0.5,0.6,0.7,1c0.2,0.4,0.2,0.8,0.2,1.3
		c0,0.7-0.2,1.4-0.5,1.9c-0.3,0.5-0.8,0.9-1.3,1.3c-0.5,0.3-1.1,0.6-1.8,0.7c-0.7,0.1-1.4,0.2-2,0.2c-0.6,0-1.2-0.1-1.8-0.2
		c-0.6-0.1-1.1-0.3-1.6-0.6c-0.5-0.3-0.9-0.7-1.2-1.1c-0.3-0.5-0.5-1.1-0.5-1.8v-0.5h3v0.4c0,0.3,0.1,0.5,0.2,0.7s0.3,0.4,0.5,0.5
		c0.2,0.1,0.5,0.2,0.8,0.3c0.3,0.1,0.6,0.1,0.8,0.1c0.2,0,0.5,0,0.7-0.1s0.5-0.1,0.7-0.2c0.2-0.1,0.4-0.3,0.5-0.4
		c0.1-0.2,0.2-0.4,0.2-0.7c0-0.4-0.1-0.7-0.3-0.9c-0.2-0.2-0.5-0.3-0.9-0.4l-2.5-0.8c-0.4-0.1-0.8-0.3-1.1-0.4
		c-0.3-0.2-0.6-0.3-0.8-0.6c-0.2-0.2-0.4-0.5-0.5-0.8c-0.1-0.3-0.2-0.7-0.2-1.2c0-0.7,0.2-1.3,0.5-1.8c0.3-0.5,0.8-0.9,1.3-1.2
		s1.1-0.5,1.7-0.6c0.6-0.1,1.2-0.2,1.8-0.2c0.6,0,1.3,0.1,1.9,0.2s1.1,0.3,1.6,0.6s0.8,0.7,1.1,1.2c0.3,0.5,0.4,1.1,0.4,1.9h-3
		C74.4,245.5,74.3,245.1,74,244.8z"/>
	<path d="M86.1,254.4l0.4-1.7h0c-1.1,1.3-2.4,2-4.2,2c-2.3,0-3.5-1.1-3.5-3.2c0-0.1,0-0.3,0-0.5c0-0.2,0.1-0.4,0.1-0.6
		c0-0.2,0.1-0.4,0.1-0.6c0-0.2,0.1-0.3,0.1-0.4l1.5-7h3.3l-1.4,7c0,0.1-0.1,0.2-0.1,0.3s0,0.3-0.1,0.4c0,0.1,0,0.3,0,0.4
		c0,0.1,0,0.2,0,0.3c0,0.4,0.2,0.6,0.5,0.9c0.3,0.2,0.7,0.3,1.1,0.3c0.5,0,0.9-0.1,1.3-0.3c0.4-0.2,0.7-0.4,1-0.7
		c0.3-0.3,0.5-0.7,0.7-1.1c0.2-0.4,0.3-0.8,0.4-1.2l1.3-6.3h3.3l-2.5,11.9H86.1z"/>
	<path d="M97.6,242.5l-0.5,2.1l0,0c0.4-0.8,0.9-1.5,1.7-1.9c0.7-0.4,1.6-0.6,2.4-0.6c0.3,0,0.7,0,1,0.1l-0.7,3.2
		c-0.2,0-0.5-0.1-0.7-0.1s-0.5-0.1-0.7-0.1c-0.6,0-1.2,0.1-1.6,0.3c-0.4,0.2-0.8,0.5-1.1,0.9s-0.5,0.8-0.7,1.3
		c-0.2,0.5-0.3,1-0.4,1.5l-1.1,5.3h-3.2l2.5-11.9H97.6z"/>
	<path d="M103.3,244.2c0.4-0.5,0.8-0.9,1.3-1.2c0.5-0.3,1.1-0.5,1.7-0.7c0.6-0.1,1.3-0.2,2-0.2c0.5,0,1.1,0,1.7,0.1
		c0.6,0.1,1.1,0.2,1.6,0.4c0.5,0.2,0.9,0.5,1.2,0.9c0.3,0.4,0.5,0.9,0.4,1.6c0,0.6-0.1,1.2-0.3,2l-1.1,4.8c-0.1,0.2-0.1,0.5-0.1,0.8
		s0,0.6,0,0.8c0,0.2,0,0.4,0.1,0.7h-3.3v-1.2c-0.4,0.5-1,0.9-1.6,1.1c-0.6,0.2-1.3,0.4-2,0.4c-0.6,0-1.2-0.1-1.7-0.3
		c-0.5-0.2-0.9-0.4-1.2-0.7c-0.3-0.3-0.6-0.6-0.7-1c-0.2-0.4-0.2-0.8-0.2-1.2c0-1.1,0.4-2.1,1.2-2.8c0.8-0.7,1.9-1.1,3.3-1.3
		c0.8-0.1,1.4-0.2,2-0.2s1-0.1,1.4-0.2c0.4-0.1,0.7-0.2,0.8-0.4c0.2-0.2,0.3-0.5,0.3-0.9c0-0.3-0.1-0.6-0.2-0.7
		c-0.1-0.2-0.3-0.3-0.5-0.4c-0.2-0.1-0.4-0.2-0.7-0.2c-0.2,0-0.5-0.1-0.7-0.1c-0.6,0-1.1,0.1-1.6,0.4c-0.5,0.3-0.7,0.7-0.9,1.3h-3.1
		C102.8,245.4,103,244.7,103.3,244.2z M108.2,249.1c-0.5,0.1-1,0.1-1.4,0.1c-0.3,0-0.6,0.1-0.9,0.1s-0.5,0.2-0.8,0.3
		c-0.2,0.1-0.4,0.3-0.5,0.6c-0.1,0.2-0.2,0.5-0.2,0.9c0,0.4,0.2,0.8,0.5,1s0.8,0.3,1.3,0.3c0.5,0,0.9-0.1,1.3-0.2
		c0.3-0.2,0.6-0.4,0.9-0.6c0.2-0.3,0.4-0.5,0.6-0.9c0.1-0.3,0.3-0.6,0.3-1l0.3-1.1C109.1,248.9,108.7,249.1,108.2,249.1z"/>
	<path d="M119.8,242.5l-0.4,1.7h0c1.1-1.3,2.4-2,4.2-2c2.3,0,3.5,1.1,3.5,3.2c0,0.1,0,0.3,0,0.5c0,0.2-0.1,0.4-0.1,0.6
		c0,0.2-0.1,0.4-0.1,0.6c0,0.2-0.1,0.3-0.1,0.4l-1.5,7H122l1.4-7c0-0.2,0.1-0.4,0.1-0.7c0.1-0.3,0.1-0.5,0.1-0.7
		c0-0.4-0.2-0.6-0.5-0.9c-0.3-0.2-0.7-0.3-1.1-0.3c-0.5,0-0.9,0.1-1.3,0.3c-0.4,0.2-0.7,0.4-1,0.7c-0.3,0.3-0.5,0.7-0.7,1.1
		c-0.2,0.4-0.3,0.8-0.4,1.2l-1.3,6.3h-3.2l2.5-11.9H119.8z"/>
	<path d="M137,245.1c-0.4-0.3-0.9-0.5-1.6-0.5c-0.6,0-1.1,0.2-1.6,0.5c-0.4,0.3-0.8,0.7-1,1.3c-0.3,0.5-0.4,1.1-0.6,1.6
		c-0.1,0.6-0.2,1.1-0.2,1.6c0,0.4,0,0.7,0.1,1c0.1,0.3,0.2,0.6,0.4,0.8s0.4,0.4,0.7,0.6c0.3,0.1,0.6,0.2,1,0.2c0.4,0,0.7-0.1,1-0.2
		c0.3-0.1,0.5-0.3,0.8-0.5c0.2-0.2,0.4-0.4,0.6-0.7s0.3-0.5,0.4-0.8h3.3c-0.5,1.5-1.2,2.6-2.3,3.4c-1,0.8-2.3,1.2-3.9,1.2
		c-1.7,0-3-0.4-3.9-1.2c-0.9-0.8-1.4-2.1-1.4-3.9c0-1,0.1-2,0.4-2.9s0.7-1.7,1.3-2.4c0.6-0.7,1.3-1.2,2.1-1.6s1.8-0.6,2.9-0.6
		c0.7,0,1.4,0.1,2,0.3c0.6,0.2,1.2,0.4,1.7,0.8c0.5,0.4,0.9,0.8,1.2,1.4c0.3,0.6,0.4,1.2,0.4,2h-3.3
		C137.5,245.9,137.4,245.4,137,245.1z"/>
	<path d="M144.7,249.4c0,0.1,0,0.1,0,0.2v0.3c0,0.7,0.2,1.2,0.6,1.7c0.4,0.4,1.1,0.6,2,0.6c0.3,0,0.6,0,0.9-0.1
		c0.3-0.1,0.5-0.2,0.7-0.4c0.2-0.2,0.4-0.3,0.5-0.5c0.1-0.2,0.3-0.4,0.4-0.6h3.3c-0.3,0.7-0.6,1.3-0.9,1.8s-0.8,0.9-1.3,1.3
		c-0.5,0.3-1.1,0.6-1.7,0.8c-0.7,0.2-1.4,0.3-2.3,0.3c-0.8,0-1.5-0.1-2.2-0.3c-0.7-0.2-1.2-0.5-1.7-1s-0.8-1-1.1-1.6
		s-0.4-1.4-0.4-2.3c0-1,0.2-1.9,0.5-2.7c0.3-0.9,0.7-1.7,1.3-2.3c0.6-0.7,1.2-1.2,2.1-1.6s1.7-0.6,2.7-0.6c0.8,0,1.6,0.1,2.3,0.3
		c0.7,0.2,1.3,0.5,1.7,1c0.5,0.4,0.9,1,1.1,1.6c0.3,0.7,0.4,1.4,0.4,2.3c0,0.6-0.1,1.2-0.2,1.9h-8.8
		C144.7,249.3,144.7,249.4,144.7,249.4z M150.4,246.3c-0.1-0.3-0.2-0.6-0.3-0.8s-0.4-0.4-0.7-0.6c-0.3-0.1-0.7-0.2-1.2-0.2
		c-0.5,0-0.9,0.1-1.2,0.2c-0.4,0.1-0.7,0.3-0.9,0.6s-0.5,0.5-0.7,0.8c-0.2,0.3-0.3,0.6-0.4,1h5.5
		C150.5,246.9,150.5,246.6,150.4,246.3z"/>
</g>
<g>
	<path d="M18.5,270.7l0.5-2.2h2c0.2-0.8,0.3-1.4,0.5-2c0.2-0.6,0.4-1.1,0.8-1.5c0.3-0.4,0.7-0.7,1.3-0.9c0.5-0.2,1.2-0.3,2.1-0.3
		c0.4,0,0.7,0,1.1,0c0.4,0,0.7,0.1,1.1,0.1l-0.5,2.3c-0.2,0-0.3,0-0.5,0c-0.2,0-0.4,0-0.5,0c-0.4,0-0.7,0.1-0.9,0.1
		c-0.2,0.1-0.4,0.2-0.5,0.4c-0.1,0.2-0.2,0.4-0.3,0.7c-0.1,0.3-0.1,0.6-0.2,0.9h2.3l-0.5,2.2h-2.3l-2,9.7h-3.3l2-9.7H18.5z"/>
	<path d="M26.8,272.7c0.3-0.9,0.8-1.7,1.4-2.4c0.6-0.7,1.3-1.2,2.2-1.6s1.8-0.6,2.9-0.6c0.8,0,1.6,0.1,2.2,0.3
		c0.7,0.2,1.3,0.5,1.8,0.9c0.5,0.4,0.9,0.9,1.1,1.6c0.3,0.6,0.4,1.4,0.4,2.2c0,1-0.2,2-0.5,2.9c-0.3,0.9-0.8,1.7-1.4,2.4
		c-0.6,0.7-1.3,1.2-2.2,1.6c-0.9,0.4-1.8,0.6-2.9,0.6c-1.7,0-3-0.4-4-1.3c-1-0.9-1.5-2.1-1.5-3.8C26.3,274.6,26.5,273.6,26.8,272.7z
		 M29.7,276.6c0.1,0.3,0.2,0.6,0.4,0.9c0.2,0.2,0.4,0.4,0.7,0.6c0.3,0.1,0.6,0.2,1,0.2c0.6,0,1.1-0.2,1.6-0.5s0.8-0.7,1.1-1.2
		c0.3-0.5,0.5-1,0.6-1.6c0.1-0.6,0.2-1.1,0.2-1.6c0-0.8-0.2-1.4-0.5-1.9c-0.4-0.5-1-0.7-1.9-0.7c-0.6,0-1.1,0.2-1.6,0.5
		s-0.8,0.7-1.1,1.2c-0.3,0.5-0.5,1-0.6,1.6c-0.1,0.6-0.2,1.1-0.2,1.6C29.6,275.9,29.6,276.3,29.7,276.6z"/>
	<path d="M45,268.5l-0.5,2.1l0,0c0.4-0.8,0.9-1.5,1.7-1.9c0.7-0.4,1.6-0.6,2.4-0.6c0.3,0,0.7,0,1,0.1l-0.7,3.2
		c-0.2,0-0.5-0.1-0.7-0.1s-0.5-0.1-0.7-0.1c-0.6,0-1.2,0.1-1.6,0.3c-0.4,0.2-0.8,0.5-1.1,0.9c-0.3,0.4-0.5,0.8-0.7,1.3
		c-0.2,0.5-0.3,1-0.4,1.5l-1.1,5.3h-3.2l2.5-11.9H45z"/>
	<path d="M63.4,278.9c-0.4,0.6-0.9,1.1-1.5,1.4c-0.6,0.3-1.3,0.4-2.1,0.4c-1.4,0-2.6-0.4-3.3-1.3c-0.8-0.8-1.2-2-1.2-3.4
		c0-1,0.1-1.9,0.4-2.9c0.3-0.9,0.7-1.8,1.2-2.5s1.2-1.3,2-1.8c0.8-0.5,1.8-0.7,2.9-0.7c0.7,0,1.4,0.2,2,0.5c0.6,0.3,1.1,0.8,1.3,1.4
		h0l1.3-6.1h3.3l-3.5,16.4h-3.2L63.4,278.9L63.4,278.9z M60.5,271.1c-0.5,0.3-0.8,0.7-1.1,1.2c-0.3,0.5-0.5,1-0.6,1.6
		c-0.1,0.6-0.2,1.1-0.2,1.7c0,0.4,0,0.7,0.1,1c0.1,0.3,0.2,0.6,0.4,0.8c0.2,0.2,0.4,0.4,0.7,0.6c0.3,0.1,0.6,0.2,1,0.2
		c0.6,0,1.1-0.2,1.6-0.5c0.4-0.3,0.8-0.7,1.1-1.3c0.3-0.5,0.5-1.1,0.7-1.6c0.1-0.6,0.2-1.1,0.2-1.6c0-0.8-0.2-1.4-0.6-1.9
		c-0.4-0.5-1-0.7-1.8-0.7C61.5,270.6,61,270.8,60.5,271.1z"/>
	<path d="M72.5,275.4c0,0.1,0,0.1,0,0.2v0.3c0,0.7,0.2,1.2,0.6,1.7c0.4,0.4,1.1,0.6,2,0.6c0.3,0,0.6,0,0.9-0.1
		c0.3-0.1,0.5-0.2,0.7-0.4c0.2-0.2,0.4-0.3,0.5-0.5c0.1-0.2,0.3-0.4,0.4-0.6h3.3c-0.3,0.7-0.6,1.3-0.9,1.8s-0.8,0.9-1.3,1.3
		c-0.5,0.3-1.1,0.6-1.7,0.8c-0.7,0.2-1.4,0.3-2.3,0.3c-0.8,0-1.5-0.1-2.2-0.3c-0.7-0.2-1.2-0.5-1.7-1s-0.8-1-1.1-1.6
		s-0.4-1.4-0.4-2.3c0-1,0.2-1.9,0.5-2.7c0.3-0.9,0.7-1.7,1.3-2.3c0.6-0.7,1.2-1.2,2.1-1.6s1.7-0.6,2.7-0.6c0.8,0,1.6,0.1,2.3,0.3
		c0.7,0.2,1.3,0.5,1.7,1c0.5,0.4,0.9,1,1.1,1.6c0.3,0.7,0.4,1.4,0.4,2.3c0,0.6-0.1,1.2-0.2,1.9h-8.8
		C72.5,275.3,72.5,275.4,72.5,275.4z M78.2,272.2c-0.1-0.3-0.2-0.6-0.3-0.8s-0.4-0.4-0.7-0.6c-0.3-0.1-0.7-0.2-1.2-0.2
		c-0.5,0-0.9,0.1-1.2,0.2c-0.4,0.1-0.7,0.3-0.9,0.6s-0.5,0.5-0.7,0.8c-0.2,0.3-0.3,0.6-0.4,1h5.5C78.3,272.8,78.3,272.5,78.2,272.2z
		"/>
	<path d="M87.7,268.5l-0.4,1.7h0c1.1-1.3,2.4-2,4.2-2c2.3,0,3.5,1.1,3.5,3.2c0,0.1,0,0.3,0,0.5c0,0.2-0.1,0.4-0.1,0.6
		c0,0.2-0.1,0.4-0.1,0.6c0,0.2-0.1,0.3-0.1,0.4l-1.5,7h-3.3l1.4-7c0-0.2,0.1-0.4,0.1-0.7c0.1-0.3,0.1-0.5,0.1-0.7
		c0-0.4-0.2-0.6-0.5-0.9c-0.3-0.2-0.7-0.3-1.1-0.3c-0.5,0-0.9,0.1-1.3,0.3c-0.4,0.2-0.7,0.4-1,0.7c-0.3,0.3-0.5,0.7-0.7,1.1
		c-0.2,0.4-0.3,0.8-0.4,1.2l-1.3,6.3h-3.2l2.5-11.9H87.7z"/>
	<path d="M105.1,268.5l-0.5,2.2h-2.3l-1.2,5.9c0,0.1-0.1,0.2-0.1,0.3c0,0.1,0,0.2,0,0.2c0,0.2,0,0.4,0.1,0.5
		c0.1,0.1,0.2,0.2,0.3,0.3c0.1,0.1,0.2,0.1,0.4,0.1c0.1,0,0.3,0,0.4,0c0.4,0,0.8,0,1.2-0.1l-0.6,2.5c-0.3,0-0.7,0.1-1,0.1
		c-0.3,0-0.7,0-1,0c-0.4,0-0.8,0-1.1-0.1c-0.4-0.1-0.7-0.2-1-0.4c-0.3-0.2-0.5-0.4-0.7-0.7c-0.2-0.3-0.3-0.7-0.2-1.2
		c0-0.2,0-0.3,0-0.5c0-0.2,0.1-0.4,0.1-0.6l1.3-6.4h-2.1l0.5-2.2h2.1l0.7-3.6h3.3l-0.7,3.6H105.1z"/>
	<path d="M110.4,268.5l-2.5,11.9h-3.3l2.5-11.9H110.4z M107.5,266.6l0.6-2.7h3.3l-0.6,2.7H107.5z"/>
	<path d="M118.5,270.8c-0.3-0.3-0.7-0.4-1.4-0.4c-0.6,0-1.1,0.1-1.4,0.3c-0.4,0.2-0.6,0.5-0.6,0.9c0,0.3,0.1,0.5,0.3,0.7
		c0.2,0.2,0.6,0.4,1.2,0.5l1.6,0.5c0.4,0.1,0.9,0.3,1.2,0.5s0.7,0.4,1,0.7c0.3,0.3,0.5,0.6,0.7,1c0.2,0.4,0.2,0.8,0.2,1.3
		c0,0.7-0.2,1.4-0.5,1.9c-0.3,0.5-0.8,0.9-1.3,1.3c-0.5,0.3-1.1,0.6-1.8,0.7c-0.7,0.1-1.4,0.2-2,0.2c-0.6,0-1.2-0.1-1.8-0.2
		c-0.6-0.1-1.1-0.3-1.6-0.6c-0.5-0.3-0.9-0.7-1.2-1.1c-0.3-0.5-0.5-1.1-0.5-1.8v-0.5h3v0.4c0,0.3,0.1,0.5,0.2,0.7s0.3,0.4,0.5,0.5
		c0.2,0.1,0.5,0.2,0.8,0.3c0.3,0.1,0.6,0.1,0.8,0.1c0.2,0,0.5,0,0.7-0.1s0.5-0.1,0.7-0.2c0.2-0.1,0.4-0.3,0.5-0.4
		c0.1-0.2,0.2-0.4,0.2-0.7c0-0.4-0.1-0.7-0.3-0.9c-0.2-0.2-0.5-0.3-0.9-0.4l-2.5-0.8c-0.4-0.1-0.8-0.3-1.1-0.4
		c-0.3-0.2-0.6-0.3-0.8-0.6c-0.2-0.2-0.4-0.5-0.5-0.8c-0.1-0.3-0.2-0.7-0.2-1.2c0-0.7,0.2-1.3,0.5-1.8c0.3-0.5,0.8-0.9,1.3-1.2
		s1.1-0.5,1.7-0.6c0.6-0.1,1.2-0.2,1.8-0.2c0.6,0,1.3,0.1,1.9,0.2s1.1,0.3,1.6,0.6s0.8,0.7,1.1,1.2c0.3,0.5,0.4,1.1,0.4,1.9h-3
		C118.9,271.5,118.8,271.1,118.5,270.8z"/>
	<path d="M131.5,268.5l-0.5,2.2h-2.3l-1.2,5.9c0,0.1-0.1,0.2-0.1,0.3c0,0.1,0,0.2,0,0.2c0,0.2,0,0.4,0.1,0.5
		c0.1,0.1,0.2,0.2,0.3,0.3c0.1,0.1,0.2,0.1,0.4,0.1c0.1,0,0.3,0,0.4,0c0.4,0,0.8,0,1.2-0.1l-0.6,2.5c-0.3,0-0.7,0.1-1,0.1
		c-0.3,0-0.7,0-1,0c-0.4,0-0.8,0-1.1-0.1c-0.4-0.1-0.7-0.2-1-0.4c-0.3-0.2-0.5-0.4-0.7-0.7c-0.2-0.3-0.3-0.7-0.2-1.2
		c0-0.2,0-0.3,0-0.5c0-0.2,0.1-0.4,0.1-0.6l1.3-6.4h-2.1l0.5-2.2h2.1l0.7-3.6h3.3l-0.7,3.6H131.5z"/>
	<path d="M138.9,270.8c-0.3-0.3-0.7-0.4-1.4-0.4c-0.6,0-1.1,0.1-1.4,0.3c-0.4,0.2-0.6,0.5-0.6,0.9c0,0.3,0.1,0.5,0.3,0.7
		c0.2,0.2,0.6,0.4,1.2,0.5l1.6,0.5c0.4,0.1,0.9,0.3,1.2,0.5s0.7,0.4,1,0.7c0.3,0.3,0.5,0.6,0.7,1c0.2,0.4,0.2,0.8,0.2,1.3
		c0,0.7-0.2,1.4-0.5,1.9c-0.3,0.5-0.8,0.9-1.3,1.3c-0.5,0.3-1.1,0.6-1.8,0.7c-0.7,0.1-1.4,0.2-2,0.2c-0.6,0-1.2-0.1-1.8-0.2
		c-0.6-0.1-1.1-0.3-1.6-0.6c-0.5-0.3-0.9-0.7-1.2-1.1c-0.3-0.5-0.5-1.1-0.5-1.8v-0.5h3v0.4c0,0.3,0.1,0.5,0.2,0.7s0.3,0.4,0.5,0.5
		c0.2,0.1,0.5,0.2,0.8,0.3c0.3,0.1,0.6,0.1,0.8,0.1c0.2,0,0.5,0,0.7-0.1s0.5-0.1,0.7-0.2c0.2-0.1,0.4-0.3,0.5-0.4
		c0.1-0.2,0.2-0.4,0.2-0.7c0-0.4-0.1-0.7-0.3-0.9c-0.2-0.2-0.5-0.3-0.9-0.4l-2.5-0.8c-0.4-0.1-0.8-0.3-1.1-0.4
		c-0.3-0.2-0.6-0.3-0.8-0.6c-0.2-0.2-0.4-0.5-0.5-0.8c-0.1-0.3-0.2-0.7-0.2-1.2c0-0.7,0.2-1.3,0.5-1.8c0.3-0.5,0.8-0.9,1.3-1.2
		s1.1-0.5,1.7-0.6c0.6-0.1,1.2-0.2,1.8-0.2c0.6,0,1.3,0.1,1.9,0.2s1.1,0.3,1.6,0.6s0.8,0.7,1.1,1.2c0.3,0.5,0.4,1.1,0.4,1.9h-3
		C139.4,271.5,139.2,271.1,138.9,270.8z"/>
</g>
<g>
	<path d="M38.3,298.7c0.3-0.9,0.8-1.7,1.4-2.4c0.6-0.7,1.3-1.2,2.2-1.6s1.8-0.6,2.9-0.6c0.8,0,1.6,0.1,2.2,0.3
		c0.7,0.2,1.3,0.5,1.8,0.9c0.5,0.4,0.9,0.9,1.1,1.6c0.3,0.6,0.4,1.4,0.4,2.2c0,1-0.2,2-0.5,2.9c-0.3,0.9-0.8,1.7-1.4,2.4
		c-0.6,0.7-1.3,1.2-2.2,1.6c-0.9,0.4-1.8,0.6-2.9,0.6c-1.7,0-3-0.4-4-1.3c-1-0.9-1.5-2.1-1.5-3.8C37.8,300.5,37.9,299.6,38.3,298.7z
		 M41.2,302.6c0.1,0.3,0.2,0.6,0.4,0.9c0.2,0.2,0.4,0.4,0.7,0.6c0.3,0.1,0.6,0.2,1,0.2c0.6,0,1.1-0.2,1.6-0.5
		c0.4-0.3,0.8-0.7,1.1-1.2c0.3-0.5,0.5-1,0.6-1.6c0.1-0.6,0.2-1.1,0.2-1.6c0-0.8-0.2-1.4-0.5-1.9c-0.4-0.5-1-0.7-1.9-0.7
		c-0.6,0-1.1,0.2-1.6,0.5s-0.8,0.7-1.1,1.2c-0.3,0.5-0.5,1-0.6,1.6c-0.1,0.6-0.2,1.1-0.2,1.6C41.1,301.9,41.1,302.2,41.2,302.6z"/>
	<path d="M53.5,306.4l-1.6-11.9h3.4l0.7,8.5h0l4.2-8.5h3.5l-6.5,11.9H53.5z"/>
	<path d="M66.5,301.4c0,0.1,0,0.1,0,0.2v0.3c0,0.7,0.2,1.2,0.6,1.7c0.4,0.4,1.1,0.6,2,0.6c0.3,0,0.6,0,0.9-0.1s0.5-0.2,0.7-0.4
		c0.2-0.2,0.4-0.3,0.5-0.5c0.1-0.2,0.3-0.4,0.4-0.6h3.3c-0.3,0.7-0.6,1.3-0.9,1.8s-0.8,0.9-1.3,1.3c-0.5,0.3-1.1,0.6-1.7,0.8
		c-0.7,0.2-1.4,0.3-2.3,0.3c-0.8,0-1.5-0.1-2.2-0.3c-0.7-0.2-1.2-0.5-1.7-1c-0.5-0.4-0.8-1-1.1-1.6c-0.3-0.6-0.4-1.4-0.4-2.3
		c0-1,0.2-1.9,0.5-2.7c0.3-0.9,0.7-1.7,1.3-2.3c0.6-0.7,1.2-1.2,2.1-1.6s1.7-0.6,2.7-0.6c0.8,0,1.6,0.1,2.3,0.3
		c0.7,0.2,1.3,0.5,1.7,1c0.5,0.4,0.9,1,1.1,1.6c0.3,0.7,0.4,1.4,0.4,2.3c0,0.6-0.1,1.2-0.2,1.9h-8.8
		C66.5,301.3,66.5,301.4,66.5,301.4z M72.2,298.2c-0.1-0.3-0.2-0.6-0.3-0.8s-0.4-0.4-0.7-0.6c-0.3-0.1-0.7-0.2-1.2-0.2
		c-0.5,0-0.9,0.1-1.2,0.2c-0.4,0.1-0.7,0.3-0.9,0.6s-0.5,0.5-0.7,0.8c-0.2,0.3-0.3,0.6-0.4,1h5.5C72.3,298.8,72.3,298.5,72.2,298.2z
		"/>
	<path d="M81.7,294.5l-0.5,2.1l0,0c0.4-0.8,0.9-1.5,1.7-1.9c0.7-0.4,1.6-0.6,2.4-0.6c0.3,0,0.7,0,1,0.1l-0.7,3.2
		c-0.2,0-0.5-0.1-0.7-0.1s-0.5-0.1-0.7-0.1c-0.6,0-1.2,0.1-1.6,0.3c-0.4,0.2-0.8,0.5-1.1,0.9s-0.5,0.8-0.7,1.3
		c-0.2,0.5-0.3,1-0.4,1.5l-1.1,5.3h-3.2l2.5-11.9H81.7z"/>
	<path d="M104.1,299.9l-0.6,2.7h-2.1l-0.8,3.7h-3.1l0.8-3.7h-7.5l0.6-3l9.4-9.4h3.2l-2,9.7H104.1z M100.2,293.8L100.2,293.8
		l-6.1,6.2h4.8L100.2,293.8z"/>
	<path d="M104.6,298.1c0.1-0.8,0.3-1.6,0.6-2.4c0.3-0.8,0.6-1.5,1-2.2c0.4-0.7,0.9-1.3,1.5-1.9c0.6-0.5,1.2-0.9,1.9-1.3
		c0.7-0.3,1.5-0.5,2.4-0.5c0.9,0,1.7,0.1,2.4,0.4c0.7,0.3,1.2,0.7,1.7,1.3c0.4,0.5,0.8,1.2,1,1.9s0.3,1.6,0.3,2.5
		c0,0.8-0.1,1.6-0.2,2.4c-0.1,0.8-0.3,1.6-0.6,2.4c-0.3,0.8-0.6,1.5-1.1,2.2c-0.4,0.7-0.9,1.3-1.5,1.8c-0.6,0.5-1.2,0.9-2,1.2
		c-0.7,0.3-1.6,0.5-2.5,0.5c-0.9,0-1.7-0.2-2.4-0.5c-0.7-0.3-1.2-0.8-1.6-1.3c-0.4-0.6-0.7-1.2-0.9-2c-0.2-0.7-0.3-1.5-0.3-2.4
		C104.4,299.7,104.5,298.9,104.6,298.1z M107.7,302.3c0.1,0.3,0.2,0.6,0.4,0.9c0.2,0.3,0.4,0.5,0.7,0.6c0.3,0.2,0.7,0.2,1.1,0.2
		c0.6,0,1-0.2,1.5-0.5c0.4-0.3,0.8-0.7,1.1-1.2c0.3-0.5,0.6-1.1,0.8-1.7c0.2-0.6,0.4-1.3,0.5-1.9c0.1-0.6,0.2-1.2,0.3-1.8
		s0.1-1,0.1-1.4c0-0.4,0-0.8-0.1-1.1c-0.1-0.4-0.2-0.7-0.4-0.9c-0.2-0.3-0.4-0.5-0.7-0.6s-0.7-0.2-1.1-0.2c-0.5,0-1,0.2-1.4,0.5
		s-0.8,0.7-1.1,1.2c-0.3,0.5-0.6,1.1-0.8,1.7s-0.4,1.3-0.5,1.9c-0.1,0.6-0.2,1.2-0.3,1.8c-0.1,0.6-0.1,1-0.1,1.4
		C107.6,301.6,107.7,301.9,107.7,302.3z"/>
	<path d="M121.4,302.8l-0.8,3.5H117l0.7-3.5H121.4z"/>
</g>
</svg>
