<?xml version="1.0" encoding="utf-8"?>
<!-- Generator: Adobe Illustrator 25.4.1, SVG Export Plug-In . SVG Version: 6.00 Build 0)  -->
<svg version="1.1" id="Layer_1" xmlns="http://www.w3.org/2000/svg" xmlns:xlink="http://www.w3.org/1999/xlink" x="0px" y="0px"
	 viewBox="0 0 160 600" style="enable-background:new 0 0 160 600;" xml:space="preserve">
<style type="text/css">
	.st0{clip-path:url(#SVGID_00000034800831469131394770000015830769809187022506_);fill:#349946;}
	.st1{fill:#FFFFFF;}
</style>
<g>
	<defs>
		<rect id="SVGID_1_" x="13.9" y="338" width="133.8" height="28.2"/>
	</defs>
	<clipPath id="SVGID_00000076561239356341245180000004502512020070419609_">
		<use xlink:href="#SVGID_1_"  style="overflow:visible;"/>
	</clipPath>
	<path style="clip-path:url(#SVGID_00000076561239356341245180000004502512020070419609_);fill:#349946;" d="M147.8,352.1
		c0,7.8-7.3,14.1-16.2,14.1H30.1c-8.9,0-16.2-6.3-16.2-14.1c0-7.8,7.3-14.1,16.2-14.1h101.4C140.5,338,147.8,344.3,147.8,352.1"/>
</g>
<g>
	<path class="st1" d="M40.3,347.9c0.4,0,0.8,0.1,1.1,0.2c0.3,0.1,0.6,0.3,0.8,0.5s0.4,0.5,0.5,0.8c0.1,0.3,0.2,0.6,0.2,1
		c0,0.5-0.1,1-0.3,1.4c-0.2,0.4-0.6,0.7-1.1,0.9v0c0.2,0.1,0.4,0.2,0.6,0.3c0.2,0.1,0.3,0.3,0.4,0.5c0.1,0.2,0.2,0.4,0.2,0.6
		c0,0.2,0.1,0.5,0.1,0.7c0,0.1,0,0.3,0,0.5s0,0.4,0,0.6c0,0.2,0.1,0.4,0.1,0.6c0,0.2,0.1,0.3,0.2,0.5h-2c-0.1-0.3-0.2-0.6-0.2-1
		c0-0.4-0.1-0.8-0.1-1.1c-0.1-0.5-0.2-0.8-0.4-1c-0.2-0.2-0.6-0.3-1.1-0.3h-2v3.5h-2v-9H40.3z M39.5,352c0.5,0,0.8-0.1,1-0.3
		c0.2-0.2,0.3-0.5,0.3-1c0-0.4-0.1-0.8-0.3-1c-0.2-0.2-0.6-0.3-1-0.3h-2.2v2.5H39.5z"/>
	<path class="st1" d="M51.2,347.9v1.7h-4.8v1.9h4.4v1.5h-4.4v2.2h4.9v1.7h-6.8v-9H51.2z"/>
	<path class="st1" d="M57.2,347.9l3.4,9h-2.1l-0.7-2h-3.4l-0.7,2h-2l3.4-9H57.2z M57.3,353.4l-1.1-3.3h0l-1.2,3.3H57.3z"/>
	<path class="st1" d="M65.2,347.9c0.6,0,1.1,0.1,1.6,0.3c0.5,0.2,0.9,0.5,1.3,0.8c0.4,0.4,0.7,0.8,0.9,1.4s0.3,1.2,0.3,2
		c0,0.7-0.1,1.3-0.3,1.8s-0.4,1-0.8,1.4c-0.3,0.4-0.8,0.7-1.3,1c-0.5,0.2-1.1,0.3-1.8,0.3h-3.9v-9H65.2z M65,355.2
		c0.3,0,0.6,0,0.8-0.1c0.3-0.1,0.5-0.2,0.7-0.5c0.2-0.2,0.4-0.5,0.5-0.8c0.1-0.3,0.2-0.8,0.2-1.3c0-0.5,0-0.9-0.1-1.2
		c-0.1-0.4-0.2-0.7-0.4-0.9c-0.2-0.3-0.5-0.5-0.8-0.6s-0.7-0.2-1.2-0.2h-1.4v5.7H65z"/>
	<path class="st1" d="M78.6,347.9l3.4,9h-2.1l-0.7-2h-3.4l-0.7,2h-2l3.4-9H78.6z M78.7,353.4l-1.1-3.3h0l-1.2,3.3H78.7z"/>
	<path class="st1" d="M87.6,347.9c0.4,0,0.8,0.1,1.1,0.2c0.3,0.1,0.6,0.3,0.8,0.5s0.4,0.5,0.5,0.8c0.1,0.3,0.2,0.6,0.2,1
		c0,0.5-0.1,1-0.3,1.4s-0.6,0.7-1.1,0.9v0c0.2,0.1,0.4,0.2,0.6,0.3c0.2,0.1,0.3,0.3,0.4,0.5c0.1,0.2,0.2,0.4,0.2,0.6
		c0,0.2,0.1,0.5,0.1,0.7c0,0.1,0,0.3,0,0.5c0,0.2,0,0.4,0,0.6c0,0.2,0.1,0.4,0.1,0.6c0,0.2,0.1,0.3,0.2,0.5h-2
		c-0.1-0.3-0.2-0.6-0.2-1c0-0.4-0.1-0.8-0.1-1.1c-0.1-0.5-0.2-0.8-0.4-1c-0.2-0.2-0.6-0.3-1.1-0.3h-2v3.5h-2v-9H87.6z M86.9,352
		c0.5,0,0.8-0.1,1-0.3c0.2-0.2,0.3-0.5,0.3-1c0-0.4-0.1-0.8-0.3-1c-0.2-0.2-0.6-0.3-1-0.3h-2.2v2.5H86.9z"/>
</g>
<g>
	<path class="st1" d="M90.9,349.6v-1.7h7.4v1.7h-2.7v7.3h-2v-7.3H90.9z"/>
	<path class="st1" d="M101.3,347.9v9h-2v-9H101.3z"/>
	<path class="st1" d="M108.8,350.3c-0.1-0.2-0.3-0.4-0.4-0.5c-0.2-0.1-0.4-0.3-0.6-0.3c-0.2-0.1-0.5-0.1-0.7-0.1
		c-0.4,0-0.8,0.1-1.1,0.3c-0.3,0.2-0.6,0.4-0.8,0.7s-0.3,0.6-0.4,1c-0.1,0.4-0.1,0.8-0.1,1.1c0,0.4,0,0.7,0.1,1.1
		c0.1,0.4,0.2,0.7,0.4,1c0.2,0.3,0.4,0.5,0.8,0.7c0.3,0.2,0.7,0.3,1.1,0.3c0.6,0,1.1-0.2,1.4-0.6c0.3-0.4,0.5-0.9,0.6-1.5h1.9
		c-0.1,0.6-0.2,1.1-0.4,1.5c-0.2,0.5-0.5,0.8-0.8,1.2c-0.3,0.3-0.7,0.6-1.2,0.7c-0.5,0.2-1,0.3-1.5,0.3c-0.7,0-1.3-0.1-1.9-0.4
		c-0.6-0.2-1-0.6-1.4-1c-0.4-0.4-0.7-0.9-0.9-1.5c-0.2-0.6-0.3-1.2-0.3-1.8c0-0.7,0.1-1.3,0.3-1.9c0.2-0.6,0.5-1.1,0.9-1.5
		s0.8-0.8,1.4-1c0.6-0.2,1.2-0.4,1.9-0.4c0.5,0,1,0.1,1.4,0.2c0.4,0.1,0.8,0.4,1.2,0.6c0.3,0.3,0.6,0.6,0.9,1
		c0.2,0.4,0.4,0.9,0.4,1.4h-1.9C109,350.7,109,350.5,108.8,350.3z"/>
	<path class="st1" d="M114.4,347.9v7.3h4.4v1.7h-6.4v-9H114.4z"/>
	<path class="st1" d="M126.6,347.9v1.7h-4.8v1.9h4.4v1.5h-4.4v2.2h4.9v1.7h-6.8v-9H126.6z"/>
</g>
</svg>
