<?xml version="1.0" encoding="utf-8"?>
<!-- Generator: Adobe Illustrator 25.4.1, SVG Export Plug-In . SVG Version: 6.00 Build 0)  -->
<svg version="1.1" id="Layer_1" xmlns="http://www.w3.org/2000/svg" xmlns:xlink="http://www.w3.org/1999/xlink" x="0px" y="0px"
	 viewBox="0 0 160 600" style="enable-background:new 0 0 160 600;" xml:space="preserve">
<style type="text/css">
	.st0{fill:#349946;}
	.st1{fill:#231F20;}
	.st2{fill:none;}
</style>
<path class="st0" d="M17.1,441.8h-1.6l-0.5-1.5h-3.2l-0.5,1.5H9.6l2.8-7.5h1.2c0.4,0,0.7,0.1,0.8,0.4c0.1,0.3,1.4,3.6,1.4,3.6h-1.5
	l-0.9-2.5l-1.2,3.2h3.3c0.4,0,0.7,0.1,0.8,0.5L17.1,441.8z"/>
<path class="st0" d="M31.3,441.8h-1.6l-0.5-1.5h-3.2l-0.5,1.5h-1.6l2.8-7.5h1.2c0.4,0,0.7,0.1,0.8,0.4c0.1,0.3,1.4,3.6,1.4,3.6h-1.5
	l-0.9-2.5l-1.2,3.2h3.3c0.4,0,0.7,0.1,0.8,0.5L31.3,441.8z"/>
<path class="st0" d="M17.6,434.3h2.9c2.3,0,3.4,1.2,3.4,3.8c0,1.4-0.4,2.5-1.2,3.1c-0.7,0.6-1.5,0.7-2.6,0.7h-2.5V434.3z
	 M20.4,440.5c1.4,0,2-0.7,2-2.4c0-1.7-0.6-2.4-1.8-2.4h-1.4v4.8H20.4z"/>
<g>
	<path class="st1" d="M44,441.8h-1.2l-0.5-5.4l-1.8,5.4h-1l-1.9-5.4l-0.4,5.4h-1.1l0.7-7.1h1.3l1.9,5.5l1.9-5.5h1.3L44,441.8z"/>
	<path class="st1" d="M49.8,439.1c0,0.1,0,0.1,0,0.2c0,0.1,0,0.2,0,0.2h-3.5c0,0.4,0.1,0.7,0.3,1c0.3,0.3,0.7,0.5,1.2,0.5
		c0.4,0,0.9-0.1,1.4-0.4l0.4,0.8c-0.5,0.4-1.2,0.6-1.9,0.6c-0.8,0-1.4-0.3-1.9-0.8c-0.4-0.5-0.7-1.1-0.7-1.9c0-0.8,0.2-1.5,0.7-2
		c0.5-0.5,1-0.8,1.8-0.8c0.7,0,1.3,0.2,1.6,0.7S49.8,438.3,49.8,439.1z M48.7,438.6c0-0.3-0.1-0.6-0.2-0.8c-0.2-0.3-0.5-0.5-0.9-0.5
		c-0.4,0-0.7,0.1-0.9,0.4s-0.4,0.6-0.4,1H48.7z"/>
	<path class="st1" d="M58.4,441.8h-1.2v-2.9c0-0.6-0.1-1-0.2-1.2c-0.1-0.2-0.4-0.3-0.6-0.3c-0.4,0-0.7,0.1-1.2,0.4
		c0,0.1,0.1,0.5,0.1,1.2v2.8h-1.2v-2.9c0-0.7-0.1-1.1-0.2-1.3c-0.1-0.1-0.3-0.2-0.6-0.2c-0.4,0-0.8,0.1-1.1,0.4v4H51v-5.2h1v0.4
		c0.5-0.4,1-0.5,1.5-0.5c0.5,0,1,0.2,1.3,0.6c0.6-0.4,1.2-0.6,1.7-0.6c0.5,0,1,0.2,1.3,0.5c0.2,0.2,0.4,0.6,0.5,1
		c0,0.2,0.1,0.7,0.1,1.3V441.8z"/>
	<path class="st1" d="M64.4,439c0,0.9-0.2,1.5-0.7,2.1s-1.2,0.8-2,0.8c-0.6,0-1.3-0.1-2-0.4v-7.4h1.2v2.7c0.4-0.3,0.9-0.4,1.3-0.4
		c0.7,0,1.2,0.2,1.6,0.7S64.4,438.2,64.4,439z M63.2,439c0-0.5-0.1-0.9-0.4-1.2c-0.2-0.3-0.6-0.4-0.9-0.4c-0.4,0-0.7,0.1-1.1,0.4v3
		c0.3,0.1,0.6,0.1,0.9,0.1c0.5,0,0.8-0.2,1.1-0.5C63.1,440.1,63.2,439.6,63.2,439z"/>
	<path class="st1" d="M70,439.1c0,0.1,0,0.1,0,0.2c0,0.1,0,0.2,0,0.2h-3.5c0,0.4,0.1,0.7,0.3,1c0.3,0.3,0.7,0.5,1.2,0.5
		c0.4,0,0.9-0.1,1.4-0.4l0.4,0.8c-0.5,0.4-1.2,0.6-1.9,0.6c-0.8,0-1.4-0.3-1.9-0.8c-0.4-0.5-0.7-1.1-0.7-1.9c0-0.8,0.2-1.5,0.7-2
		c0.5-0.5,1-0.8,1.8-0.8c0.7,0,1.3,0.2,1.6,0.7C69.8,437.6,70,438.3,70,439.1z M68.9,438.6c0-0.3-0.1-0.6-0.2-0.8
		c-0.2-0.3-0.5-0.5-0.9-0.5c-0.4,0-0.7,0.1-0.9,0.4s-0.4,0.6-0.4,1H68.9z"/>
	<path class="st1" d="M74.4,436.5l-0.3,0.9c-0.1,0-0.2,0-0.4,0c-0.6,0-1.1,0.3-1.5,0.8v3.6h-1.2v-5.2h1v0.7c0.1-0.1,0.2-0.3,0.5-0.4
		c0.4-0.3,0.8-0.4,1.2-0.4C74,436.4,74.2,436.4,74.4,436.5z"/>
</g>
<g>
	<path class="st1" d="M78.7,440.3c0,0.5-0.2,0.9-0.6,1.2c-0.4,0.3-0.8,0.4-1.4,0.4c-0.5,0-0.9-0.1-1.3-0.3c-0.3-0.1-0.4-0.2-0.6-0.3
		l0.4-0.8c0.5,0.3,1,0.4,1.4,0.4c0.3,0,0.5-0.1,0.7-0.2c0.2-0.1,0.2-0.3,0.2-0.5s-0.1-0.3-0.3-0.5c-0.1-0.1-0.4-0.2-0.8-0.4
		c-0.4-0.2-0.7-0.3-0.9-0.5c-0.3-0.3-0.5-0.6-0.5-1c0-0.5,0.2-0.8,0.5-1.1c0.4-0.3,0.8-0.4,1.4-0.4c0.7,0,1.3,0.2,1.7,0.5l-0.4,0.7
		c-0.4-0.2-0.8-0.4-1.2-0.4c-0.6,0-0.8,0.2-0.8,0.6c0,0.2,0.1,0.3,0.3,0.4c0.1,0.1,0.3,0.2,0.7,0.3c0.5,0.2,0.9,0.4,1.1,0.6
		C78.5,439.4,78.7,439.8,78.7,440.3z"/>
	<path class="st1" d="M83.8,441.8h-1.2v-7.1h1.2V441.8z"/>
	<path class="st1" d="M89.7,441.8h-1.2v-2.8c0-0.7-0.1-1.1-0.2-1.3c-0.2-0.2-0.4-0.2-0.7-0.2c-0.4,0-0.7,0.1-1.2,0.4v4h-1.2v-5.2h1
		v0.4c0.5-0.4,1-0.5,1.5-0.5c0.5,0,1,0.2,1.3,0.5c0.2,0.2,0.4,0.5,0.5,0.9c0,0.2,0.1,0.6,0.1,1.1V441.8z"/>
	<path class="st1" d="M94.5,440.3c0,0.5-0.2,0.9-0.6,1.2c-0.4,0.3-0.8,0.4-1.4,0.4c-0.5,0-0.9-0.1-1.3-0.3c-0.3-0.1-0.4-0.2-0.6-0.3
		l0.4-0.8c0.5,0.3,1,0.4,1.4,0.4c0.3,0,0.5-0.1,0.7-0.2c0.2-0.1,0.2-0.3,0.2-0.5s-0.1-0.3-0.3-0.5c-0.1-0.1-0.4-0.2-0.8-0.4
		c-0.4-0.2-0.7-0.3-0.9-0.5c-0.3-0.3-0.5-0.6-0.5-1c0-0.5,0.2-0.8,0.5-1.1c0.4-0.3,0.8-0.4,1.4-0.4c0.7,0,1.3,0.2,1.7,0.5l-0.4,0.7
		c-0.4-0.2-0.8-0.4-1.2-0.4c-0.6,0-0.8,0.2-0.8,0.6c0,0.2,0.1,0.3,0.3,0.4c0.1,0.1,0.3,0.2,0.7,0.3c0.5,0.2,0.9,0.4,1.1,0.6
		C94.3,439.4,94.5,439.8,94.5,440.3z"/>
	<path class="st1" d="M100,441.8h-1v-0.4c-0.5,0.4-1,0.5-1.5,0.5c-0.5,0-1-0.2-1.3-0.5c-0.2-0.2-0.4-0.5-0.5-0.9
		c0-0.2-0.1-0.6-0.1-1.1v-2.9h1.2v2.8c0,0.4,0,0.6,0,0.7c0,0.3,0.1,0.5,0.3,0.6s0.4,0.2,0.6,0.2c0.3,0,0.7-0.1,1.1-0.4v-4h1.2V441.8
		z"/>
	<path class="st1" d="M104.6,436.5l-0.3,0.9c-0.1,0-0.2,0-0.4,0c-0.6,0-1.1,0.3-1.5,0.8v3.6h-1.2v-5.2h1v0.7
		c0.1-0.1,0.2-0.3,0.5-0.4c0.4-0.3,0.8-0.4,1.2-0.4C104.3,436.4,104.5,436.4,104.6,436.5z"/>
</g>
<g>
	<path class="st1" d="M109.2,441.8h-1v-0.4c-0.5,0.3-1,0.5-1.5,0.5c-0.5,0-0.9-0.2-1.2-0.5c-0.3-0.3-0.5-0.7-0.5-1.2
		c0-1.2,1-1.8,2.9-1.8h0.2v-0.2c0-0.3-0.1-0.5-0.2-0.7c-0.2-0.2-0.4-0.2-0.8-0.2c-0.5,0-0.9,0.1-1.4,0.4l-0.4-0.8
		c0.1-0.1,0.3-0.2,0.6-0.3c0.4-0.2,0.9-0.3,1.4-0.3c0.7,0,1.2,0.2,1.6,0.6c0.2,0.2,0.3,0.4,0.4,0.7c0,0.2,0.1,0.5,0.1,0.9V441.8z
		 M108.1,440.6v-1.4h-0.2c-0.8,0-1.4,0.1-1.6,0.4c-0.1,0.1-0.2,0.3-0.2,0.5c0,0.3,0.1,0.5,0.3,0.6c0.2,0.1,0.4,0.2,0.7,0.2
		C107.3,441,107.7,440.8,108.1,440.6z"/>
	<path class="st1" d="M114.9,441.8h-1.2v-2.8c0-0.7-0.1-1.1-0.2-1.3c-0.2-0.2-0.4-0.2-0.7-0.2c-0.4,0-0.7,0.1-1.2,0.4v4h-1.2v-5.2h1
		v0.4c0.5-0.4,1-0.5,1.5-0.5c0.5,0,1,0.2,1.3,0.5c0.2,0.2,0.4,0.5,0.5,0.9c0,0.2,0.1,0.6,0.1,1.1V441.8z"/>
	<path class="st1" d="M120.5,441.3c-0.1,0.1-0.3,0.2-0.5,0.3c-0.4,0.2-0.9,0.3-1.4,0.3c-0.8,0-1.4-0.2-1.9-0.7
		c-0.5-0.5-0.7-1.1-0.7-1.9c0-0.8,0.3-1.5,0.8-2c0.5-0.5,1.2-0.8,1.9-0.8c0.4,0,0.8,0.1,1.2,0.3c0.3,0.1,0.4,0.2,0.5,0.3l-0.5,0.7
		c-0.4-0.2-0.8-0.4-1.2-0.4c-0.5,0-0.9,0.2-1.2,0.5c-0.3,0.3-0.4,0.7-0.4,1.2c0,0.5,0.1,1,0.4,1.3c0.3,0.3,0.7,0.5,1.1,0.5
		c0.4,0,0.8-0.1,1.3-0.4L120.5,441.3z"/>
</g>
<g>
	<path class="st1" d="M125.7,439.1c0,0.1,0,0.1,0,0.2c0,0.1,0,0.2,0,0.2h-3.5c0,0.4,0.1,0.7,0.3,1c0.3,0.3,0.7,0.5,1.2,0.5
		c0.4,0,0.9-0.1,1.4-0.4l0.4,0.8c-0.5,0.4-1.2,0.6-1.9,0.6c-0.8,0-1.4-0.3-1.9-0.8c-0.4-0.5-0.7-1.1-0.7-1.9c0-0.8,0.2-1.5,0.7-2
		c0.5-0.5,1-0.8,1.8-0.8c0.7,0,1.3,0.2,1.6,0.7C125.5,437.6,125.7,438.3,125.7,439.1z M124.6,438.6c0-0.3-0.1-0.6-0.2-0.8
		c-0.2-0.3-0.5-0.5-0.9-0.5c-0.4,0-0.7,0.1-0.9,0.4s-0.4,0.6-0.4,1H124.6z"/>
	<path class="st1" d="M134.2,436.8c0,0.7-0.2,1.2-0.6,1.6c-0.3,0.3-0.7,0.5-1.1,0.6c-0.3,0.1-0.7,0.1-1.3,0.1h-0.5v2.7h-1.2v-7.1
		h1.9c0.6,0,1,0,1.3,0.1c0.4,0.1,0.7,0.3,1,0.5C134,435.6,134.2,436.2,134.2,436.8z M133,436.8c0-0.4-0.1-0.7-0.3-0.9
		c-0.2-0.2-0.6-0.3-1.3-0.3h-0.7v2.4h0.5c0.8,0,1.3-0.1,1.5-0.3S133,437.2,133,436.8z"/>
	<path class="st1" d="M136.7,441.8h-1.2v-7.7h1.2V441.8z"/>
	<path class="st1" d="M142,441.8h-1v-0.4c-0.5,0.3-1,0.5-1.5,0.5c-0.5,0-0.9-0.2-1.2-0.5c-0.3-0.3-0.5-0.7-0.5-1.2
		c0-1.2,1-1.8,2.9-1.8h0.2v-0.2c0-0.3-0.1-0.5-0.2-0.7c-0.2-0.2-0.4-0.2-0.8-0.2c-0.5,0-0.9,0.1-1.4,0.4l-0.4-0.8
		c0.1-0.1,0.3-0.2,0.6-0.3c0.4-0.2,0.9-0.3,1.4-0.3c0.7,0,1.2,0.2,1.6,0.6c0.2,0.2,0.3,0.4,0.4,0.7c0,0.2,0.1,0.5,0.1,0.9V441.8z
		 M140.9,440.6v-1.4h-0.2c-0.8,0-1.4,0.1-1.6,0.4c-0.1,0.1-0.2,0.3-0.2,0.5c0,0.3,0.1,0.5,0.3,0.6c0.2,0.1,0.4,0.2,0.7,0.2
		C140.1,441,140.5,440.8,140.9,440.6z"/>
	<path class="st1" d="M147.7,441.8h-1.2v-2.8c0-0.7-0.1-1.1-0.2-1.3c-0.2-0.2-0.4-0.2-0.7-0.2c-0.4,0-0.7,0.1-1.2,0.4v4h-1.2v-5.2h1
		v0.4c0.5-0.4,1-0.5,1.5-0.5c0.5,0,1,0.2,1.3,0.5c0.2,0.2,0.4,0.5,0.5,0.9c0,0.2,0.1,0.6,0.1,1.1V441.8z"/>
	<path class="st1" d="M152.5,440.3c0,0.5-0.2,0.9-0.6,1.2c-0.4,0.3-0.8,0.4-1.4,0.4c-0.5,0-0.9-0.1-1.3-0.3
		c-0.3-0.1-0.4-0.2-0.6-0.3l0.4-0.8c0.5,0.3,1,0.4,1.4,0.4c0.3,0,0.5-0.1,0.7-0.2c0.2-0.1,0.2-0.3,0.2-0.5s-0.1-0.3-0.3-0.5
		c-0.1-0.1-0.4-0.2-0.8-0.4c-0.4-0.2-0.7-0.3-0.9-0.5c-0.3-0.3-0.5-0.6-0.5-1c0-0.5,0.2-0.8,0.5-1.1c0.4-0.3,0.8-0.4,1.4-0.4
		c0.7,0,1.3,0.2,1.7,0.5l-0.4,0.7c-0.4-0.2-0.8-0.4-1.2-0.4c-0.6,0-0.8,0.2-0.8,0.6c0,0.2,0.1,0.3,0.3,0.4c0.1,0.1,0.3,0.2,0.7,0.3
		c0.5,0.2,0.9,0.4,1.1,0.6C152.3,439.4,152.5,439.8,152.5,440.3z"/>
</g>
<path class="st0" d="M32.4,441.9c-0.5,0-0.9-0.4-0.9-0.9c0-0.5,0.4-0.9,0.9-0.9s0.9,0.4,0.9,0.9C33.2,441.5,32.9,441.9,32.4,441.9
	 M32.4,440.3c-0.4,0-0.7,0.3-0.7,0.7c0,0.4,0.3,0.7,0.7,0.7c0.4,0,0.7-0.3,0.7-0.7C33,440.6,32.7,440.3,32.4,440.3 M32.6,441.4
	l-0.1-0.2c-0.1-0.1-0.1-0.1-0.2-0.1h0v0.4h-0.2v-0.9h0.2c0.1,0,0.2,0,0.3,0.1c0.1,0.1,0.1,0.1,0.1,0.2c0,0.1,0,0.2-0.2,0.2
	c0,0,0.1,0.1,0.1,0.1l0.1,0.3H32.6z M32.4,440.7c0,0-0.1,0-0.1,0h-0.1v0.2c0.1,0,0.1,0,0.2,0C32.5,440.9,32.5,440.8,32.4,440.7
	C32.5,440.7,32.5,440.7,32.4,440.7"/>
<rect x="-0.4" y="432.9" class="st2" width="160" height="12.2"/>
</svg>
