<?xml version="1.0" encoding="utf-8"?>
<!-- Generator: Adobe Illustrator 25.4.1, SVG Export Plug-In . SVG Version: 6.00 Build 0)  -->
<svg version="1.1" id="Layer_1" xmlns="http://www.w3.org/2000/svg" xmlns:xlink="http://www.w3.org/1999/xlink" x="0px" y="0px"
	 viewBox="0 0 160 600" style="enable-background:new 0 0 160 600;" xml:space="preserve">
<style type="text/css">
	.st0{fill:#231F20;}
	.st1{fill:#22B0E6;}
	.st2{fill:none;}
</style>
<path class="st0" d="M53.3,416.2h3c2.4,0,2.8,1.5,2.8,2.6c0,1-0.5,2.6-2.8,2.6h-1.5v3.2h-1.5V416.2z M54.8,420.2h1.5
	c0.7,0,1.5-0.3,1.5-1.4c0-1.1-0.7-1.4-1.4-1.4h-1.5V420.2z"/>
<path class="st0" d="M60,418.5h1.2v1.2h0c0.2-0.6,0.9-1.3,1.8-1.3c0.3,0,0.4,0,0.5,0v1.3c-0.2,0-0.4-0.1-0.6-0.1
	c-0.9,0-1.6,0.7-1.6,2.1v2.9H60V418.5z"/>
<path class="st0" d="M63.7,421.5c0-1.8,1.1-3.2,3-3.2s3,1.3,3,3.2c0,1.9-1.1,3.2-3,3.2S63.7,423.4,63.7,421.5 M68.5,421.5
	c0-1-0.5-2.1-1.7-2.1s-1.7,1.1-1.7,2.1c0,1.1,0.5,2.1,1.7,2.1S68.5,422.6,68.5,421.5"/>
<path class="st0" d="M70,418.5H71v-1.8h1.3v1.8h1.2v1h-1.2v3.2c0,0.5,0,0.8,0.6,0.8c0.2,0,0.4,0,0.6,0v1c-0.3,0-0.6,0.1-0.9,0.1
	c-1.4,0-1.6-0.5-1.7-1.5v-3.6h-1V418.5z"/>
<path class="st0" d="M75.4,421.9c0,0.9,0.5,1.8,1.6,1.8c0.8,0,1.2-0.3,1.5-1h1.3c-0.3,1.3-1.4,2.1-2.7,2.1c-1.9,0-3-1.3-3-3.2
	c0-1.7,1.1-3.2,2.9-3.2c1.9,0,3.1,1.7,2.8,3.5H75.4z M78.5,421c0-0.8-0.6-1.6-1.5-1.6c-0.9,0-1.6,0.7-1.6,1.6H78.5z"/>
<path class="st0" d="M84.9,420.5c-0.1-0.7-0.6-1.1-1.4-1.1c-0.7,0-1.7,0.4-1.7,2.2c0,1,0.4,2.1,1.6,2.1c0.8,0,1.3-0.5,1.4-1.4h1.3
	c-0.2,1.6-1.2,2.4-2.8,2.4c-1.9,0-2.9-1.3-2.9-3.1c0-1.8,1-3.2,3-3.2c1.4,0,2.6,0.7,2.7,2.2H84.9z"/>
<path class="st0" d="M86.6,418.5h1v-1.8h1.3v1.8h1.2v1h-1.2v3.2c0,0.5,0,0.8,0.6,0.8c0.2,0,0.4,0,0.6,0v1c-0.3,0-0.6,0.1-0.9,0.1
	c-1.4,0-1.6-0.5-1.7-1.5v-3.6h-1V418.5z"/>
<path class="st0" d="M91.6,416.2H93v1.3h-1.3V416.2z M91.6,418.5H93v6h-1.3V418.5z"/>
<polygon class="st0" points="93.9,418.5 95.4,418.5 97.2,423.1 97.3,423.1 99.1,418.5 100.5,418.5 98,424.5 96.5,424.5 "/>
<path class="st0" d="M102.1,421.9c0,0.9,0.5,1.8,1.6,1.8c0.8,0,1.2-0.3,1.5-1h1.3c-0.3,1.3-1.4,2.1-2.7,2.1c-1.9,0-3-1.3-3-3.2
	c0-1.7,1.1-3.2,2.9-3.2c1.9,0,3.1,1.7,2.8,3.5H102.1z M105.2,421c0-0.8-0.6-1.6-1.5-1.6c-0.9,0-1.6,0.7-1.6,1.6H105.2z"/>
<path class="st1" d="M89.1,414.8c-0.9-3.3-3.5-5.9-6.8-6.8c-0.3-1-1.2-1.8-2.4-1.8s-2.1,0.7-2.4,1.8c-3.3,0.8-5.9,3.4-6.8,6.8
	l-0.1,0.4h2l0.1-0.2c0.8-2.4,2.7-4.3,5.1-5c0.4,0.7,1.2,1.2,2.1,1.2c0.9,0,1.7-0.5,2.1-1.2c2.4,0.7,4.3,2.5,5.1,5l0.1,0.2h2
	L89.1,414.8z"/>
<path class="st0" d="M107.9,423.5c0.3,0,0.6,0.3,0.6,0.6c0,0.3-0.3,0.6-0.6,0.6c-0.3,0-0.6-0.3-0.6-0.6
	C107.4,423.8,107.6,423.5,107.9,423.5 M108.4,424.1c0-0.3-0.2-0.5-0.5-0.5c-0.3,0-0.5,0.2-0.5,0.5c0,0.3,0.2,0.5,0.5,0.5
	C108.2,424.6,108.4,424.4,108.4,424.1 M107.7,423.8h0.3c0.2,0,0.2,0.1,0.2,0.2c0,0.1-0.1,0.2-0.2,0.2l0.2,0.3h-0.1l-0.2-0.3h-0.1
	v0.3h-0.1V423.8z M107.9,424.1c0.1,0,0.2,0,0.2-0.1c0-0.1-0.1-0.1-0.1-0.1h-0.1v0.2H107.9z"/>
<rect x="52.9" y="406" class="st2" width="55.9" height="19"/>
</svg>
