<?xml version="1.0" encoding="utf-8"?>
<!-- Generator: Adobe Illustrator 26.1.0, SVG Export Plug-In . SVG Version: 6.00 Build 0)  -->
<svg version="1.1" id="Layer_1" xmlns="http://www.w3.org/2000/svg" xmlns:xlink="http://www.w3.org/1999/xlink" x="0px" y="0px"
	 viewBox="0 0 300 250" style="enable-background:new 0 0 300 250;" xml:space="preserve">
<style type="text/css">
	.st0{fill:#339933;}
</style>
<g>
	<path class="st0" d="M36.8,96.2c1.3,0,2.5,0.2,3.4,0.6s1.7,0.9,2.3,1.5c0.6,0.6,1,1.4,1.3,2.2s0.4,1.7,0.4,2.5
		c0,0.9-0.1,1.7-0.4,2.5s-0.7,1.6-1.3,2.2c-0.6,0.6-1.4,1.2-2.3,1.5s-2.1,0.6-3.4,0.6h-4.9v7.7h-4.7V96.2H36.8z M35.5,106.3
		c0.5,0,1.1,0,1.6-0.1c0.5-0.1,0.9-0.2,1.3-0.5c0.4-0.2,0.7-0.6,0.9-1c0.2-0.4,0.3-1,0.3-1.6s-0.1-1.2-0.3-1.6
		c-0.2-0.4-0.5-0.7-0.9-1c-0.4-0.2-0.8-0.4-1.3-0.5c-0.5-0.1-1-0.1-1.6-0.1h-3.6v6.4H35.5z"/>
	<path class="st0" d="M50.7,102.1v2.9h0.1c0.2-0.5,0.5-0.9,0.8-1.3c0.3-0.4,0.7-0.8,1.2-1c0.4-0.3,0.9-0.5,1.4-0.7
		c0.5-0.2,1-0.2,1.6-0.2c0.3,0,0.6,0,0.9,0.1v3.9c-0.2,0-0.4-0.1-0.7-0.1c-0.3,0-0.5,0-0.8,0c-0.8,0-1.4,0.1-2,0.4
		c-0.5,0.3-1,0.6-1.3,1.1c-0.3,0.4-0.6,1-0.7,1.6c-0.1,0.6-0.2,1.2-0.2,1.9v7h-4.2v-15.5H50.7z"/>
	<path class="st0" d="M58.1,106.9c0.1-1,0.3-1.8,0.7-2.5s1-1.2,1.7-1.6c0.7-0.4,1.4-0.7,2.3-0.9c0.8-0.2,1.7-0.3,2.6-0.3
		c0.8,0,1.6,0.1,2.4,0.2c0.8,0.1,1.5,0.3,2.2,0.6c0.7,0.3,1.2,0.8,1.6,1.3c0.4,0.6,0.6,1.3,0.6,2.3v8c0,0.7,0,1.4,0.1,2
		c0.1,0.6,0.2,1.1,0.4,1.4h-4.3c-0.1-0.2-0.1-0.5-0.2-0.7c-0.1-0.2-0.1-0.5-0.1-0.8c-0.7,0.7-1.5,1.2-2.4,1.5
		c-0.9,0.3-1.9,0.4-2.8,0.4c-0.7,0-1.4-0.1-2.1-0.3c-0.6-0.2-1.2-0.5-1.7-0.8c-0.5-0.4-0.9-0.9-1.1-1.4c-0.3-0.6-0.4-1.3-0.4-2.1
		c0-0.9,0.2-1.6,0.5-2.2c0.3-0.6,0.7-1,1.2-1.4c0.5-0.3,1-0.6,1.7-0.8c0.6-0.2,1.3-0.3,1.9-0.4c0.6-0.1,1.3-0.2,1.9-0.2
		c0.6-0.1,1.2-0.1,1.6-0.3s0.9-0.3,1.1-0.5c0.3-0.2,0.4-0.6,0.4-1c0-0.5-0.1-0.8-0.2-1.1s-0.3-0.5-0.6-0.6c-0.2-0.1-0.5-0.2-0.9-0.3
		c-0.3,0-0.7-0.1-1.1-0.1c-0.8,0-1.5,0.2-2,0.5s-0.8,1-0.8,1.8H58.1z M67.9,110c-0.2,0.2-0.4,0.3-0.7,0.4c-0.3,0.1-0.6,0.2-0.9,0.2
		c-0.3,0.1-0.6,0.1-1,0.1s-0.7,0.1-1,0.1c-0.3,0.1-0.6,0.1-0.9,0.2s-0.6,0.2-0.8,0.4c-0.2,0.2-0.4,0.4-0.6,0.6
		c-0.1,0.3-0.2,0.6-0.2,1c0,0.4,0.1,0.7,0.2,1c0.1,0.3,0.3,0.5,0.6,0.6c0.2,0.1,0.5,0.3,0.8,0.3c0.3,0.1,0.6,0.1,1,0.1
		c0.8,0,1.5-0.1,1.9-0.4c0.5-0.3,0.8-0.6,1-1s0.4-0.8,0.4-1.2c0-0.4,0.1-0.7,0.1-1V110z"/>
	<path class="st0" d="M82.8,104.9c-0.7,0-1.2,0.2-1.7,0.5s-0.8,0.7-1.1,1.2c-0.3,0.5-0.5,1-0.6,1.6c-0.1,0.6-0.2,1.2-0.2,1.7
		c0,0.6,0.1,1.1,0.2,1.7c0.1,0.6,0.3,1.1,0.6,1.6c0.3,0.5,0.6,0.9,1.1,1.2c0.5,0.3,1,0.4,1.7,0.4c1,0,1.8-0.3,2.3-0.9
		c0.5-0.6,0.9-1.3,1-2.3h4.1c-0.3,2.1-1.1,3.6-2.4,4.7c-1.3,1.1-3,1.6-5.1,1.6c-1.2,0-2.2-0.2-3.2-0.6c-1-0.4-1.8-0.9-2.5-1.6
		c-0.7-0.7-1.2-1.5-1.6-2.5c-0.4-1-0.6-2-0.6-3.2c0-1.2,0.2-2.3,0.5-3.3c0.3-1,0.9-1.9,1.5-2.7c0.7-0.7,1.5-1.3,2.5-1.7
		c1-0.4,2.1-0.6,3.3-0.6c0.9,0,1.8,0.1,2.6,0.4c0.8,0.2,1.6,0.6,2.3,1.1c0.7,0.5,1.2,1.1,1.6,1.8c0.4,0.7,0.7,1.6,0.7,2.6H86
		C85.7,105.8,84.6,104.9,82.8,104.9z"/>
	<path class="st0" d="M101.1,102.1v2.8H98v7.7c0,0.7,0.1,1.2,0.4,1.4c0.2,0.2,0.7,0.4,1.4,0.4c0.2,0,0.5,0,0.7,0
		c0.2,0,0.4,0,0.6-0.1v3.3c-0.4,0.1-0.8,0.1-1.2,0.1c-0.4,0-0.9,0-1.3,0c-0.7,0-1.3,0-1.9-0.1c-0.6-0.1-1.1-0.3-1.6-0.5
		c-0.4-0.3-0.8-0.6-1.1-1.1c-0.3-0.5-0.4-1.1-0.4-1.9V105h-2.6v-2.8h2.6v-4.6H98v4.6H101.1z"/>
	<path class="st0" d="M103.2,99.7v-3.5h4.2v3.5H103.2z M107.5,102.1v15.5h-4.2v-15.5H107.5z"/>
	<path class="st0" d="M118.2,104.9c-0.7,0-1.2,0.2-1.7,0.5s-0.8,0.7-1.1,1.2c-0.3,0.5-0.5,1-0.6,1.6c-0.1,0.6-0.2,1.2-0.2,1.7
		c0,0.6,0.1,1.1,0.2,1.7c0.1,0.6,0.3,1.1,0.6,1.6c0.3,0.5,0.6,0.9,1.1,1.2c0.5,0.3,1,0.4,1.7,0.4c1,0,1.8-0.3,2.3-0.9
		c0.5-0.6,0.9-1.3,1-2.3h4.1c-0.3,2.1-1.1,3.6-2.4,4.7c-1.3,1.1-3,1.6-5.1,1.6c-1.2,0-2.2-0.2-3.2-0.6c-1-0.4-1.8-0.9-2.5-1.6
		c-0.7-0.7-1.2-1.5-1.6-2.5c-0.4-1-0.6-2-0.6-3.2c0-1.2,0.2-2.3,0.5-3.3c0.3-1,0.9-1.9,1.5-2.7c0.7-0.7,1.5-1.3,2.5-1.7
		c1-0.4,2.1-0.6,3.3-0.6c0.9,0,1.8,0.1,2.6,0.4c0.8,0.2,1.6,0.6,2.3,1.1c0.7,0.5,1.2,1.1,1.6,1.8c0.4,0.7,0.7,1.6,0.7,2.6h-4.2
		C121.1,105.8,120,104.9,118.2,104.9z"/>
	<path class="st0" d="M127.8,106.9c0.1-1,0.3-1.8,0.7-2.5s1-1.2,1.7-1.6c0.7-0.4,1.4-0.7,2.3-0.9c0.8-0.2,1.7-0.3,2.6-0.3
		c0.8,0,1.6,0.1,2.4,0.2c0.8,0.1,1.5,0.3,2.2,0.6c0.7,0.3,1.2,0.8,1.6,1.3c0.4,0.6,0.6,1.3,0.6,2.3v8c0,0.7,0,1.4,0.1,2
		c0.1,0.6,0.2,1.1,0.4,1.4h-4.3c-0.1-0.2-0.1-0.5-0.2-0.7c-0.1-0.2-0.1-0.5-0.1-0.8c-0.7,0.7-1.5,1.2-2.4,1.5
		c-0.9,0.3-1.9,0.4-2.8,0.4c-0.7,0-1.4-0.1-2.1-0.3c-0.6-0.2-1.2-0.5-1.7-0.8c-0.5-0.4-0.9-0.9-1.1-1.4c-0.3-0.6-0.4-1.3-0.4-2.1
		c0-0.9,0.2-1.6,0.5-2.2c0.3-0.6,0.7-1,1.2-1.4c0.5-0.3,1-0.6,1.7-0.8c0.6-0.2,1.3-0.3,1.9-0.4c0.6-0.1,1.3-0.2,1.9-0.2
		c0.6-0.1,1.2-0.1,1.6-0.3s0.9-0.3,1.1-0.5c0.3-0.2,0.4-0.6,0.4-1c0-0.5-0.1-0.8-0.2-1.1s-0.3-0.5-0.6-0.6c-0.2-0.1-0.5-0.2-0.9-0.3
		c-0.3,0-0.7-0.1-1.1-0.1c-0.8,0-1.5,0.2-2,0.5s-0.8,1-0.8,1.8H127.8z M137.6,110c-0.2,0.2-0.4,0.3-0.7,0.4
		c-0.3,0.1-0.6,0.2-0.9,0.2c-0.3,0.1-0.6,0.1-1,0.1s-0.7,0.1-1,0.1c-0.3,0.1-0.6,0.1-0.9,0.2s-0.6,0.2-0.8,0.4
		c-0.2,0.2-0.4,0.4-0.6,0.6c-0.1,0.3-0.2,0.6-0.2,1c0,0.4,0.1,0.7,0.2,1c0.1,0.3,0.3,0.5,0.6,0.6c0.2,0.1,0.5,0.3,0.8,0.3
		c0.3,0.1,0.6,0.1,1,0.1c0.8,0,1.5-0.1,1.9-0.4c0.5-0.3,0.8-0.6,1-1s0.4-0.8,0.4-1.2c0-0.4,0.1-0.7,0.1-1V110z"/>
	<path class="st0" d="M149.5,96.2v21.3h-4.2V96.2H149.5z"/>
	<path class="st0" d="M177.3,117.6l-3.6-14.5h-0.1l-3.6,14.5h-4.8l-5.7-21.3h4.7l3.4,14.5h0.1l3.7-14.5h4.4l3.6,14.7h0.1l3.5-14.7
		h4.6l-5.7,21.3H177.3z"/>
	<path class="st0" d="M189.5,99.7v-3.5h4.2v3.5H189.5z M193.8,102.1v15.5h-4.2v-15.5H193.8z"/>
	<path class="st0" d="M200.7,113.7c0.2,0.3,0.4,0.6,0.7,0.8c0.3,0.2,0.6,0.4,1,0.5c0.4,0.1,0.8,0.1,1.2,0.1c0.3,0,0.6,0,0.9-0.1
		s0.6-0.2,0.9-0.3c0.3-0.1,0.5-0.3,0.7-0.6c0.2-0.2,0.3-0.6,0.3-0.9c0-0.6-0.4-1.1-1.3-1.4c-0.8-0.3-2-0.6-3.5-1
		c-0.6-0.1-1.2-0.3-1.8-0.5s-1.1-0.4-1.6-0.7c-0.5-0.3-0.8-0.7-1.1-1.2s-0.4-1-0.4-1.7c0-1,0.2-1.8,0.6-2.5c0.4-0.6,0.9-1.1,1.5-1.5
		c0.6-0.4,1.4-0.6,2.2-0.8c0.8-0.1,1.6-0.2,2.5-0.2s1.6,0.1,2.4,0.2s1.5,0.4,2.1,0.8c0.6,0.4,1.1,0.9,1.5,1.5
		c0.4,0.6,0.7,1.4,0.7,2.4h-4c-0.1-0.8-0.4-1.4-0.9-1.7c-0.6-0.3-1.2-0.4-2-0.4c-0.2,0-0.5,0-0.8,0c-0.3,0-0.5,0.1-0.8,0.2
		c-0.2,0.1-0.4,0.2-0.6,0.4c-0.2,0.2-0.2,0.4-0.2,0.8c0,0.4,0.1,0.7,0.4,0.9c0.3,0.2,0.6,0.4,1.1,0.6c0.4,0.1,1,0.3,1.5,0.4
		s1.2,0.2,1.8,0.4c0.6,0.1,1.2,0.3,1.8,0.5c0.6,0.2,1.1,0.5,1.6,0.8c0.5,0.3,0.8,0.7,1.1,1.2c0.3,0.5,0.4,1.1,0.4,1.8
		c0,1-0.2,1.9-0.6,2.6c-0.4,0.7-0.9,1.2-1.6,1.7c-0.7,0.4-1.4,0.7-2.3,0.9c-0.8,0.2-1.7,0.3-2.6,0.3c-0.9,0-1.8-0.1-2.6-0.3
		c-0.9-0.2-1.6-0.5-2.3-0.9s-1.2-1-1.6-1.7c-0.4-0.7-0.7-1.5-0.7-2.6h4C200.4,113,200.5,113.4,200.7,113.7z"/>
	<path class="st0" d="M224.1,115.6c-0.5,0.8-1.2,1.4-2,1.8c-0.8,0.4-1.7,0.6-2.7,0.6c-1.2,0-2.2-0.2-3-0.7c-0.9-0.4-1.6-1.1-2.2-1.8
		c-0.6-0.8-1-1.6-1.3-2.6c-0.3-1-0.4-2-0.4-3.1c0-1,0.1-2,0.4-3c0.3-1,0.7-1.8,1.3-2.6c0.6-0.7,1.3-1.3,2.1-1.8
		c0.9-0.4,1.9-0.7,3-0.7c0.9,0,1.8,0.2,2.6,0.6s1.5,1,2,1.7h0.1v-7.8h4.2v21.3h-4L224.1,115.6L224.1,115.6z M224,108
		c-0.1-0.6-0.3-1.1-0.6-1.6c-0.3-0.4-0.7-0.8-1.1-1.1c-0.5-0.3-1-0.4-1.7-0.4c-0.7,0-1.3,0.1-1.8,0.4c-0.5,0.3-0.9,0.6-1.2,1.1
		s-0.5,1-0.6,1.6s-0.2,1.2-0.2,1.8c0,0.6,0.1,1.2,0.2,1.8c0.1,0.6,0.4,1.1,0.7,1.6c0.3,0.5,0.7,0.8,1.2,1.1c0.5,0.3,1,0.4,1.7,0.4
		c0.7,0,1.3-0.1,1.8-0.4c0.5-0.3,0.8-0.7,1.1-1.1c0.3-0.5,0.5-1,0.6-1.6c0.1-0.6,0.2-1.2,0.2-1.9C224.1,109.2,224.1,108.6,224,108z"
		/>
	<path class="st0" d="M231.5,106.5c0.4-1,0.9-1.9,1.6-2.6c0.7-0.7,1.5-1.3,2.5-1.6s2.1-0.6,3.3-0.6s2.3,0.2,3.3,0.6
		c1,0.4,1.8,0.9,2.5,1.6c0.7,0.7,1.2,1.6,1.6,2.6c0.4,1,0.6,2.1,0.6,3.4s-0.2,2.4-0.6,3.3c-0.4,1-0.9,1.8-1.6,2.6
		c-0.7,0.7-1.5,1.3-2.5,1.6c-1,0.4-2.1,0.6-3.3,0.6s-2.3-0.2-3.3-0.6s-1.8-0.9-2.5-1.6c-0.7-0.7-1.2-1.6-1.6-2.6
		c-0.4-1-0.6-2.1-0.6-3.3S231.2,107.5,231.5,106.5z M235.4,111.7c0.1,0.6,0.3,1.1,0.6,1.6s0.7,0.8,1.2,1.1c0.5,0.3,1.1,0.4,1.8,0.4
		s1.3-0.1,1.8-0.4c0.5-0.3,0.9-0.7,1.2-1.1c0.3-0.5,0.5-1,0.6-1.6c0.1-0.6,0.2-1.2,0.2-1.8s-0.1-1.2-0.2-1.8
		c-0.1-0.6-0.3-1.1-0.6-1.6c-0.3-0.5-0.7-0.8-1.2-1.1c-0.5-0.3-1.1-0.4-1.8-0.4s-1.3,0.1-1.8,0.4s-0.9,0.7-1.2,1.1
		c-0.3,0.5-0.5,1-0.6,1.6c-0.1,0.6-0.2,1.2-0.2,1.8S235.3,111.1,235.4,111.7z"/>
	<path class="st0" d="M253.8,102.1v2.1h0.1c0.6-0.8,1.2-1.4,2-1.9s1.7-0.7,2.7-0.7c1,0,1.9,0.2,2.7,0.6c0.8,0.4,1.4,1,1.8,2
		c0.5-0.7,1.1-1.3,1.9-1.8c0.8-0.5,1.7-0.8,2.8-0.8c0.8,0,1.6,0.1,2.3,0.3c0.7,0.2,1.3,0.5,1.8,1c0.5,0.4,0.9,1,1.2,1.7
		c0.3,0.7,0.4,1.6,0.4,2.6v10.3h-4.2v-8.8c0-0.5,0-1-0.1-1.5c0-0.5-0.1-0.9-0.3-1.2c-0.2-0.3-0.4-0.6-0.8-0.8
		c-0.3-0.2-0.8-0.3-1.4-0.3s-1.1,0.1-1.5,0.3c-0.4,0.2-0.7,0.5-0.9,0.9c-0.2,0.4-0.3,0.8-0.4,1.3c-0.1,0.5-0.1,0.9-0.1,1.4v8.6h-4.2
		v-8.7c0-0.5,0-0.9,0-1.4s-0.1-0.9-0.3-1.2c-0.1-0.4-0.4-0.7-0.7-0.9c-0.3-0.2-0.9-0.3-1.5-0.3c-0.2,0-0.5,0-0.8,0.1
		c-0.3,0.1-0.6,0.3-1,0.5c-0.3,0.2-0.6,0.6-0.8,1.1c-0.2,0.5-0.3,1.1-0.3,1.8v9h-4.2v-15.5H253.8z"/>
</g>
<g>
	<path class="st0" d="M67.1,134.9V132h2.5v-1.2c0-1.4,0.4-2.5,1.3-3.4c0.9-0.9,2.2-1.3,3.9-1.3c0.4,0,0.8,0,1.1,0
		c0.4,0,0.7,0.1,1.1,0.1v3.2c-0.5-0.1-1-0.1-1.6-0.1c-0.6,0-1,0.1-1.2,0.4c-0.2,0.3-0.4,0.7-0.4,1.4v0.9h2.9v2.8h-2.9v12.6h-4.2
		v-12.6H67.1z"/>
	<path class="st0" d="M78.8,136.4c0.4-1,0.9-1.9,1.6-2.6c0.7-0.7,1.5-1.3,2.5-1.6c1-0.4,2.1-0.6,3.3-0.6s2.3,0.2,3.3,0.6
		c1,0.4,1.8,0.9,2.5,1.6c0.7,0.7,1.2,1.6,1.6,2.6c0.4,1,0.6,2.1,0.6,3.4s-0.2,2.4-0.6,3.3c-0.4,1-0.9,1.8-1.6,2.6
		c-0.7,0.7-1.5,1.3-2.5,1.6c-1,0.4-2.1,0.6-3.3,0.6s-2.3-0.2-3.3-0.6c-1-0.4-1.8-0.9-2.5-1.6c-0.7-0.7-1.2-1.6-1.6-2.6
		c-0.4-1-0.6-2.1-0.6-3.3S78.4,137.4,78.8,136.4z M82.6,141.6c0.1,0.6,0.3,1.1,0.6,1.6c0.3,0.5,0.7,0.8,1.2,1.1
		c0.5,0.3,1.1,0.4,1.8,0.4c0.7,0,1.3-0.1,1.8-0.4c0.5-0.3,0.9-0.7,1.2-1.1c0.3-0.5,0.5-1,0.6-1.6c0.1-0.6,0.2-1.2,0.2-1.8
		s-0.1-1.2-0.2-1.8c-0.1-0.6-0.3-1.1-0.6-1.6c-0.3-0.5-0.7-0.8-1.2-1.1c-0.5-0.3-1.1-0.4-1.8-0.4c-0.7,0-1.3,0.1-1.8,0.4
		c-0.5,0.3-0.9,0.7-1.2,1.1c-0.3,0.5-0.5,1-0.6,1.6c-0.1,0.6-0.2,1.2-0.2,1.8S82.5,141,82.6,141.6z"/>
	<path class="st0" d="M101,132v2.9h0.1c0.2-0.5,0.5-0.9,0.8-1.3c0.3-0.4,0.7-0.8,1.2-1c0.4-0.3,0.9-0.5,1.4-0.7
		c0.5-0.2,1-0.2,1.6-0.2c0.3,0,0.6,0.1,0.9,0.1v3.9c-0.2,0-0.4-0.1-0.7-0.1c-0.3,0-0.5,0-0.8,0c-0.8,0-1.4,0.1-2,0.4s-1,0.6-1.3,1.1
		c-0.3,0.4-0.6,1-0.7,1.6s-0.2,1.2-0.2,1.9v7h-4.2V132H101z"/>
	<path class="st0" d="M126.5,126.1c1.4,0,2.7,0.2,3.8,0.7c1.2,0.4,2.2,1.1,3.1,2s1.5,2,2,3.3c0.5,1.3,0.7,2.9,0.7,4.6
		c0,1.6-0.2,3-0.6,4.3c-0.4,1.3-1,2.5-1.8,3.4c-0.8,1-1.8,1.7-3,2.3c-1.2,0.5-2.6,0.8-4.3,0.8h-9.2v-21.3H126.5z M126.2,143.5
		c0.7,0,1.3-0.1,2-0.3c0.6-0.2,1.2-0.6,1.7-1.1c0.5-0.5,0.9-1.2,1.2-2c0.3-0.8,0.4-1.8,0.4-3c0-1.1-0.1-2-0.3-2.9
		c-0.2-0.9-0.6-1.6-1-2.2c-0.5-0.6-1.1-1.1-1.9-1.4s-1.8-0.5-2.9-0.5H122v13.5H126.2z"/>
	<path class="st0" d="M143.6,143.8c0.6,0.6,1.6,0.9,2.8,0.9c0.9,0,1.6-0.2,2.2-0.6c0.6-0.4,1-0.9,1.1-1.4h3.7
		c-0.6,1.9-1.5,3.2-2.8,4c-1.2,0.8-2.7,1.2-4.5,1.2c-1.2,0-2.3-0.2-3.3-0.6s-1.8-0.9-2.5-1.7c-0.7-0.7-1.2-1.6-1.6-2.6
		c-0.4-1-0.6-2.1-0.6-3.3c0-1.2,0.2-2.2,0.6-3.2c0.4-1,0.9-1.9,1.6-2.6c0.7-0.7,1.5-1.3,2.5-1.7c1-0.4,2-0.6,3.2-0.6
		c1.3,0,2.5,0.3,3.4,0.8c1,0.5,1.8,1.2,2.4,2c0.6,0.9,1.1,1.8,1.4,2.9c0.3,1.1,0.4,2.2,0.3,3.4h-11.2
		C142.6,142.2,142.9,143.2,143.6,143.8z M148.4,135.7c-0.5-0.6-1.3-0.8-2.3-0.8c-0.7,0-1.2,0.1-1.7,0.3c-0.4,0.2-0.8,0.5-1.1,0.9
		c-0.3,0.3-0.5,0.7-0.6,1.1c-0.1,0.4-0.2,0.7-0.2,1h6.9C149.2,137,148.9,136.2,148.4,135.7z"/>
	<path class="st0" d="M160.2,132v2.2h0.1c0.5-0.9,1.2-1.5,2.1-2c0.9-0.4,1.7-0.6,2.6-0.6c1.1,0,2.1,0.2,2.8,0.5
		c0.7,0.3,1.3,0.7,1.7,1.3c0.4,0.5,0.7,1.2,0.9,2s0.3,1.7,0.3,2.6v9.5h-4.2v-8.7c0-1.3-0.2-2.2-0.6-2.9c-0.4-0.6-1.1-0.9-2.1-0.9
		c-1.2,0-2,0.3-2.5,1s-0.8,1.8-0.8,3.4v8.1h-4.2V132H160.2z"/>
	<path class="st0" d="M182.4,132v2.8h-3.1v7.7c0,0.7,0.1,1.2,0.4,1.4s0.7,0.4,1.4,0.4c0.2,0,0.5,0,0.7,0c0.2,0,0.4,0,0.6-0.1v3.3
		c-0.4,0.1-0.8,0.1-1.2,0.1c-0.4,0-0.9,0-1.3,0c-0.7,0-1.3,0-1.9-0.1c-0.6-0.1-1.1-0.3-1.6-0.5c-0.4-0.3-0.8-0.6-1.1-1.1
		c-0.3-0.5-0.4-1.1-0.4-1.9v-9.1h-2.6V132h2.6v-4.6h4.2v4.6H182.4z"/>
	<path class="st0" d="M184.6,129.6v-3.5h4.2v3.5H184.6z M188.8,132v15.5h-4.2V132H188.8z"/>
	<path class="st0" d="M195.7,143.6c0.2,0.3,0.4,0.6,0.7,0.8c0.3,0.2,0.6,0.4,1,0.5s0.8,0.1,1.2,0.1c0.3,0,0.6,0,0.9-0.1
		c0.3-0.1,0.6-0.2,0.9-0.3c0.3-0.1,0.5-0.3,0.7-0.6c0.2-0.2,0.3-0.6,0.3-0.9c0-0.6-0.4-1.1-1.3-1.4c-0.8-0.3-2-0.6-3.5-1
		c-0.6-0.1-1.2-0.3-1.8-0.5s-1.1-0.4-1.6-0.7c-0.5-0.3-0.8-0.7-1.1-1.2c-0.3-0.5-0.4-1-0.4-1.7c0-1,0.2-1.8,0.6-2.5
		c0.4-0.6,0.9-1.1,1.5-1.5c0.6-0.4,1.4-0.6,2.2-0.8c0.8-0.1,1.6-0.2,2.5-0.2s1.6,0.1,2.4,0.2c0.8,0.2,1.5,0.4,2.1,0.8
		c0.6,0.4,1.1,0.9,1.5,1.5c0.4,0.6,0.7,1.4,0.7,2.4h-4c-0.1-0.8-0.4-1.4-0.9-1.7c-0.6-0.3-1.2-0.4-2-0.4c-0.2,0-0.5,0-0.8,0
		c-0.3,0-0.5,0.1-0.8,0.2c-0.2,0.1-0.4,0.2-0.6,0.4c-0.2,0.2-0.2,0.4-0.2,0.8c0,0.4,0.1,0.7,0.4,0.9c0.3,0.2,0.6,0.4,1.1,0.6
		s1,0.3,1.5,0.4c0.6,0.1,1.2,0.2,1.8,0.4c0.6,0.1,1.2,0.3,1.8,0.5c0.6,0.2,1.1,0.5,1.6,0.8c0.5,0.3,0.8,0.7,1.1,1.2
		c0.3,0.5,0.4,1.1,0.4,1.8c0,1-0.2,1.9-0.6,2.6c-0.4,0.7-0.9,1.2-1.6,1.7c-0.7,0.4-1.4,0.7-2.3,0.9s-1.7,0.3-2.6,0.3
		c-0.9,0-1.8-0.1-2.6-0.3c-0.9-0.2-1.6-0.5-2.3-0.9s-1.2-1-1.6-1.7s-0.7-1.5-0.7-2.6h4C195.4,142.9,195.5,143.3,195.7,143.6z"/>
	<path class="st0" d="M216.7,132v2.8h-3.1v7.7c0,0.7,0.1,1.2,0.4,1.4s0.7,0.4,1.4,0.4c0.2,0,0.5,0,0.7,0c0.2,0,0.4,0,0.6-0.1v3.3
		c-0.4,0.1-0.8,0.1-1.2,0.1c-0.4,0-0.9,0-1.3,0c-0.7,0-1.3,0-1.9-0.1c-0.6-0.1-1.1-0.3-1.6-0.5c-0.4-0.3-0.8-0.6-1.1-1.1
		c-0.3-0.5-0.4-1.1-0.4-1.9v-9.1h-2.6V132h2.6v-4.6h4.2v4.6H216.7z"/>
	<path class="st0" d="M222.3,143.6c0.2,0.3,0.4,0.6,0.7,0.8c0.3,0.2,0.6,0.4,1,0.5s0.8,0.1,1.2,0.1c0.3,0,0.6,0,0.9-0.1
		c0.3-0.1,0.6-0.2,0.9-0.3c0.3-0.1,0.5-0.3,0.7-0.6c0.2-0.2,0.3-0.6,0.3-0.9c0-0.6-0.4-1.1-1.3-1.4c-0.8-0.3-2-0.6-3.5-1
		c-0.6-0.1-1.2-0.3-1.8-0.5s-1.1-0.4-1.6-0.7c-0.5-0.3-0.8-0.7-1.1-1.2c-0.3-0.5-0.4-1-0.4-1.7c0-1,0.2-1.8,0.6-2.5
		c0.4-0.6,0.9-1.1,1.5-1.5c0.6-0.4,1.4-0.6,2.2-0.8c0.8-0.1,1.6-0.2,2.5-0.2s1.6,0.1,2.4,0.2c0.8,0.2,1.5,0.4,2.1,0.8
		c0.6,0.4,1.1,0.9,1.5,1.5c0.4,0.6,0.7,1.4,0.7,2.4h-4c-0.1-0.8-0.4-1.4-0.9-1.7c-0.6-0.3-1.2-0.4-2-0.4c-0.2,0-0.5,0-0.8,0
		c-0.3,0-0.5,0.1-0.8,0.2c-0.2,0.1-0.4,0.2-0.6,0.4c-0.2,0.2-0.2,0.4-0.2,0.8c0,0.4,0.1,0.7,0.4,0.9c0.3,0.2,0.6,0.4,1.1,0.6
		s1,0.3,1.5,0.4c0.6,0.1,1.2,0.2,1.8,0.4c0.6,0.1,1.2,0.3,1.8,0.5c0.6,0.2,1.1,0.5,1.6,0.8c0.5,0.3,0.8,0.7,1.1,1.2
		c0.3,0.5,0.4,1.1,0.4,1.8c0,1-0.2,1.9-0.6,2.6c-0.4,0.7-0.9,1.2-1.6,1.7c-0.7,0.4-1.4,0.7-2.3,0.9s-1.7,0.3-2.6,0.3
		c-0.9,0-1.8-0.1-2.6-0.3c-0.9-0.2-1.6-0.5-2.3-0.9s-1.2-1-1.6-1.7s-0.7-1.5-0.7-2.6h4C222,142.9,222.1,143.3,222.3,143.6z"/>
</g>
</svg>
