<?xml version="1.0" encoding="utf-8"?>
<!-- Generator: Adobe Illustrator 26.1.0, SVG Export Plug-In . SVG Version: 6.00 Build 0)  -->
<svg version="1.1" id="Layer_1" xmlns="http://www.w3.org/2000/svg" xmlns:xlink="http://www.w3.org/1999/xlink" x="0px" y="0px"
	 viewBox="0 0 300 250" style="enable-background:new 0 0 300 250;" xml:space="preserve">
<style type="text/css">
	.st0{fill:#339933;}
</style>
<g>
	<path class="st0" d="M30.1,50.4l8.5,22.8h-5.2l-1.7-5.1h-8.5l-1.8,5.1h-5L25,50.4H30.1z M30.4,64.3L27.5,56h-0.1l-3,8.4H30.4z"/>
	<path class="st0" d="M62.6,68.4c-0.1,0.9-0.5,1.7-1,2.5c-0.5,0.8-1.3,1.4-2.3,1.9c-1,0.5-2.3,0.8-4.1,0.8c-1,0-1.9-0.1-2.8-0.4
		S50.7,72.6,50,72c-0.7-0.6-1.3-1.3-1.7-2.2c-0.4-0.9-0.6-2-0.6-3.2v-2h4.5v1c0,0.6,0,1.1,0.1,1.5c0.1,0.5,0.2,0.9,0.4,1.2
		c0.2,0.3,0.5,0.6,0.9,0.8s0.9,0.3,1.5,0.3c0.7,0,1.2-0.1,1.5-0.4c0.4-0.2,0.6-0.5,0.8-0.9c0.2-0.4,0.3-0.8,0.3-1.2
		c0-0.4,0-0.9,0-1.3V50.4h5V66C62.8,66.7,62.7,67.5,62.6,68.4z"/>
	<path class="st0" d="M67,57.1c0.5-1.5,1.2-2.7,2.2-3.8c1-1.1,2.1-1.9,3.5-2.6c1.4-0.6,3-0.9,4.7-0.9c1.8,0,3.3,0.3,4.7,0.9
		c1.4,0.6,2.6,1.5,3.5,2.6c1,1.1,1.7,2.4,2.2,3.8s0.8,3,0.8,4.7c0,1.7-0.3,3.2-0.8,4.6c-0.5,1.4-1.2,2.7-2.2,3.7
		c-1,1.1-2.1,1.9-3.5,2.5c-1.4,0.6-3,0.9-4.7,0.9c-1.7,0-3.3-0.3-4.7-0.9c-1.4-0.6-2.6-1.4-3.5-2.5c-1-1.1-1.7-2.3-2.2-3.7
		c-0.5-1.4-0.8-3-0.8-4.6C66.2,60.2,66.5,58.6,67,57.1z M71.6,64.6c0.2,0.9,0.6,1.7,1.1,2.4c0.5,0.7,1.1,1.3,1.9,1.7
		c0.8,0.4,1.7,0.7,2.9,0.7s2.1-0.2,2.9-0.7c0.8-0.4,1.4-1,1.9-1.7c0.5-0.7,0.8-1.5,1.1-2.4c0.2-0.9,0.3-1.8,0.3-2.8
		c0-1-0.1-2-0.3-2.9c-0.2-0.9-0.6-1.8-1.1-2.5s-1.1-1.3-1.9-1.8c-0.8-0.4-1.7-0.7-2.9-0.7s-2.1,0.2-2.9,0.7c-0.8,0.4-1.4,1-1.9,1.8
		c-0.5,0.7-0.8,1.6-1.1,2.5c-0.2,0.9-0.3,1.9-0.3,2.9C71.2,62.8,71.3,63.7,71.6,64.6z"/>
	<path class="st0" d="M108.8,71.4c-1.7,1.5-4.1,2.2-7.1,2.2c-3.1,0-5.5-0.7-7.2-2.2c-1.7-1.5-2.5-3.8-2.5-6.9V50.4h5v14.2
		c0,0.6,0.1,1.2,0.2,1.8c0.1,0.6,0.3,1.1,0.7,1.6c0.3,0.5,0.8,0.8,1.4,1.1s1.4,0.4,2.4,0.4c1.8,0,3-0.4,3.7-1.2c0.7-0.8,1-2,1-3.7
		V50.4h5v14.2C111.3,67.6,110.5,69.9,108.8,71.4z"/>
	<path class="st0" d="M127.9,50.4c1,0,1.9,0.2,2.8,0.5s1.5,0.8,2.1,1.4c0.6,0.6,1,1.2,1.3,2c0.3,0.8,0.5,1.6,0.5,2.4
		c0,1.3-0.3,2.5-0.8,3.5c-0.6,1-1.5,1.7-2.8,2.2v0.1c0.6,0.2,1.1,0.4,1.5,0.8c0.4,0.4,0.7,0.8,1,1.2c0.3,0.5,0.4,1,0.6,1.6
		c0.1,0.6,0.2,1.1,0.2,1.7c0,0.4,0,0.8,0.1,1.3c0,0.5,0.1,1,0.1,1.5c0.1,0.5,0.1,1,0.3,1.5c0.1,0.5,0.3,0.8,0.5,1.2h-5
		c-0.3-0.7-0.4-1.6-0.5-2.6c-0.1-1-0.2-2-0.3-2.9c-0.2-1.2-0.5-2.1-1.1-2.6c-0.6-0.6-1.5-0.8-2.7-0.8h-5v8.9h-5V50.4H127.9z
		 M126.1,60.7c1.1,0,2-0.3,2.6-0.8c0.6-0.5,0.9-1.3,0.9-2.5c0-1.1-0.3-1.9-0.9-2.4c-0.6-0.5-1.4-0.7-2.6-0.7h-5.5v6.4H126.1z"/>
	<path class="st0" d="M143.7,50.4l9.5,15.3h0.1V50.4h4.7v22.8h-5l-9.5-15.2h-0.1v15.2h-4.7V50.4H143.7z"/>
	<path class="st0" d="M179.3,50.4v4.2h-12v4.9h11v3.9h-11v5.6h12.3v4.2h-17.3V50.4H179.3z"/>
	<path class="st0" d="M180.5,50.4h5.6l5.3,9l5.3-9h5.6l-8.5,14v8.7h-5v-8.9L180.5,50.4z"/>
</g>
<g>
	<path class="st0" d="M18.4,91.2c0.4-1.1,1-2,1.7-2.7c0.7-0.8,1.6-1.3,2.7-1.8c1-0.4,2.2-0.6,3.5-0.6s2.5,0.2,3.5,0.6
		c1.1,0.4,2,1,2.7,1.8c0.7,0.8,1.3,1.7,1.7,2.7c0.4,1.1,0.6,2.3,0.6,3.6c0,1.3-0.2,2.5-0.6,3.6c-0.4,1.1-1,2-1.7,2.7
		c-0.7,0.8-1.6,1.3-2.7,1.7c-1.1,0.4-2.2,0.6-3.5,0.6s-2.5-0.2-3.5-0.6c-1-0.4-1.9-1-2.7-1.7c-0.7-0.8-1.3-1.7-1.7-2.7
		c-0.4-1.1-0.6-2.3-0.6-3.6C17.8,93.5,18,92.3,18.4,91.2z M22.5,96.7c0.1,0.6,0.3,1.2,0.7,1.7c0.3,0.5,0.7,0.9,1.2,1.2
		c0.5,0.3,1.1,0.4,1.9,0.4c0.8,0,1.4-0.1,1.9-0.4c0.5-0.3,0.9-0.7,1.2-1.2s0.5-1.1,0.7-1.7c0.1-0.6,0.2-1.3,0.2-1.9
		c0-0.7-0.1-1.3-0.2-1.9c-0.1-0.6-0.3-1.2-0.7-1.7c-0.3-0.5-0.7-0.9-1.2-1.2c-0.5-0.3-1.2-0.5-1.9-0.5c-0.8,0-1.4,0.2-1.9,0.5
		c-0.5,0.3-0.9,0.7-1.2,1.2c-0.3,0.5-0.5,1.1-0.7,1.7s-0.2,1.3-0.2,1.9C22.3,95.5,22.4,96.1,22.5,96.7z"/>
	<path class="st0" d="M36,89.6v-3h2.7v-1.3c0-1.5,0.5-2.7,1.4-3.6c0.9-0.9,2.3-1.4,4.1-1.4c0.4,0,0.8,0,1.2,0c0.4,0,0.8,0.1,1.2,0.1
		v3.4c-0.5-0.1-1.1-0.1-1.7-0.1c-0.6,0-1.1,0.1-1.3,0.4c-0.3,0.3-0.4,0.8-0.4,1.5v1h3.1v3h-3.1V103h-4.5V89.6H36z"/>
	<path class="st0" d="M57.1,91.6c0.1-1.1,0.3-1.9,0.8-2.6c0.5-0.7,1.1-1.3,1.8-1.7c0.7-0.4,1.5-0.7,2.4-0.9c0.9-0.2,1.8-0.3,2.7-0.3
		c0.8,0,1.7,0.1,2.5,0.2c0.9,0.1,1.6,0.3,2.3,0.7c0.7,0.3,1.3,0.8,1.7,1.4c0.4,0.6,0.7,1.4,0.7,2.4v8.6c0,0.7,0,1.5,0.1,2.1
		c0.1,0.7,0.2,1.2,0.4,1.5H68c-0.1-0.3-0.2-0.5-0.2-0.8c-0.1-0.3-0.1-0.5-0.1-0.8c-0.7,0.7-1.6,1.3-2.6,1.6c-1,0.3-2,0.4-3,0.4
		c-0.8,0-1.5-0.1-2.2-0.3c-0.7-0.2-1.3-0.5-1.8-0.9c-0.5-0.4-0.9-0.9-1.2-1.5c-0.3-0.6-0.4-1.3-0.4-2.2c0-0.9,0.2-1.7,0.5-2.3
		c0.3-0.6,0.8-1.1,1.3-1.5c0.5-0.4,1.1-0.6,1.8-0.8s1.3-0.3,2-0.4s1.4-0.2,2-0.3c0.7-0.1,1.2-0.2,1.8-0.3c0.5-0.1,0.9-0.3,1.2-0.6
		c0.3-0.2,0.4-0.6,0.4-1.1c0-0.5-0.1-0.9-0.2-1.2s-0.4-0.5-0.6-0.7c-0.3-0.2-0.6-0.3-0.9-0.3c-0.4-0.1-0.7-0.1-1.1-0.1
		c-0.9,0-1.6,0.2-2.1,0.6s-0.8,1-0.9,1.9H57.1z M67.5,95c-0.2,0.2-0.4,0.3-0.7,0.4s-0.6,0.2-0.9,0.2c-0.3,0.1-0.7,0.1-1,0.2
		c-0.4,0-0.7,0.1-1.1,0.2c-0.3,0.1-0.7,0.1-1,0.3c-0.3,0.1-0.6,0.2-0.9,0.4c-0.2,0.2-0.4,0.4-0.6,0.7c-0.1,0.3-0.2,0.6-0.2,1.1
		c0,0.4,0.1,0.7,0.2,1c0.1,0.3,0.4,0.5,0.6,0.7c0.3,0.2,0.6,0.3,0.9,0.3c0.3,0.1,0.7,0.1,1.1,0.1c0.9,0,1.6-0.1,2.1-0.4
		c0.5-0.3,0.9-0.7,1.1-1.1c0.2-0.4,0.4-0.8,0.4-1.3c0.1-0.4,0.1-0.8,0.1-1V95z"/>
	<path class="st0" d="M83.1,84.5v-4.2h18.7v4.2H95V103h-5V84.5H83.1z"/>
	<path class="st0" d="M109.4,80.3V89h9.2v-8.7h5V103h-5v-9.8h-9.2v9.8h-5V80.3H109.4z"/>
	<path class="st0" d="M127.8,87c0.5-1.5,1.2-2.7,2.2-3.8c1-1.1,2.1-1.9,3.5-2.6c1.4-0.6,3-0.9,4.7-0.9c1.8,0,3.3,0.3,4.7,0.9
		c1.4,0.6,2.6,1.5,3.5,2.6c1,1.1,1.7,2.4,2.2,3.8c0.5,1.5,0.8,3,0.8,4.7c0,1.7-0.3,3.2-0.8,4.6c-0.5,1.4-1.2,2.7-2.2,3.7
		c-1,1.1-2.1,1.9-3.5,2.5c-1.4,0.6-3,0.9-4.7,0.9c-1.7,0-3.3-0.3-4.7-0.9s-2.6-1.4-3.5-2.5c-1-1.1-1.7-2.3-2.2-3.7
		c-0.5-1.4-0.8-3-0.8-4.6C127,90,127.3,88.5,127.8,87z M132.4,94.5c0.2,0.9,0.6,1.7,1.1,2.4c0.5,0.7,1.1,1.3,1.9,1.7
		c0.8,0.4,1.7,0.7,2.9,0.7s2.1-0.2,2.9-0.7c0.8-0.4,1.4-1,1.9-1.7c0.5-0.7,0.8-1.5,1.1-2.4c0.2-0.9,0.3-1.8,0.3-2.8
		c0-1-0.1-2-0.3-2.9c-0.2-0.9-0.6-1.8-1.1-2.5s-1.1-1.3-1.9-1.8c-0.8-0.4-1.7-0.7-2.9-0.7s-2.1,0.2-2.9,0.7c-0.8,0.4-1.4,1-1.9,1.8
		c-0.5,0.7-0.8,1.6-1.1,2.5c-0.2,0.9-0.3,1.9-0.3,2.9C132,92.7,132.2,93.6,132.4,94.5z"/>
	<path class="st0" d="M169.6,101.3c-1.7,1.5-4.1,2.2-7.1,2.2c-3.1,0-5.5-0.7-7.2-2.2c-1.7-1.5-2.5-3.8-2.5-6.9V80.3h5v14.2
		c0,0.6,0.1,1.2,0.2,1.8s0.3,1.1,0.7,1.6c0.3,0.5,0.8,0.8,1.4,1.1c0.6,0.3,1.4,0.4,2.4,0.4c1.8,0,3-0.4,3.7-1.2c0.7-0.8,1-2,1-3.7
		V80.3h5v14.2C172.2,97.5,171.3,99.8,169.6,101.3z"/>
	<path class="st0" d="M180.3,97.4c0.3,0.5,0.6,1,1.1,1.3s1,0.6,1.6,0.7c0.6,0.2,1.3,0.2,1.9,0.2c0.4,0,0.9,0,1.4-0.1
		c0.5-0.1,1-0.2,1.4-0.4c0.4-0.2,0.8-0.5,1.1-0.9c0.3-0.4,0.4-0.8,0.4-1.4c0-0.6-0.2-1.1-0.6-1.5s-0.9-0.7-1.5-1
		c-0.6-0.3-1.4-0.5-2.2-0.7c-0.8-0.2-1.6-0.4-2.5-0.6c-0.9-0.2-1.7-0.5-2.5-0.8c-0.8-0.3-1.5-0.7-2.2-1.2c-0.6-0.5-1.2-1.1-1.5-1.8
		c-0.4-0.7-0.6-1.6-0.6-2.7c0-1.2,0.2-2.2,0.7-3c0.5-0.9,1.2-1.6,2-2.2c0.8-0.6,1.7-1,2.7-1.3c1-0.3,2-0.4,3.1-0.4
		c1.2,0,2.3,0.1,3.4,0.4c1.1,0.3,2.1,0.7,2.9,1.3s1.5,1.4,2,2.3c0.5,0.9,0.8,2,0.8,3.4h-4.8c0-0.7-0.2-1.2-0.4-1.7
		c-0.2-0.4-0.6-0.8-1-1.1c-0.4-0.3-0.9-0.4-1.4-0.5c-0.5-0.1-1.1-0.2-1.7-0.2c-0.4,0-0.8,0-1.2,0.1c-0.4,0.1-0.8,0.2-1.1,0.4
		c-0.3,0.2-0.6,0.5-0.8,0.8s-0.3,0.7-0.3,1.2c0,0.4,0.1,0.8,0.3,1.1c0.2,0.3,0.5,0.5,1,0.8c0.5,0.2,1.2,0.5,2.1,0.7
		c0.9,0.2,2,0.5,3.5,0.9c0.4,0.1,1,0.2,1.8,0.5s1.5,0.6,2.2,1.1c0.7,0.5,1.4,1.1,1.9,2c0.5,0.8,0.8,1.9,0.8,3.1c0,1-0.2,2-0.6,2.9
		c-0.4,0.9-1,1.7-1.8,2.3c-0.8,0.6-1.8,1.2-3,1.5c-1.2,0.4-2.5,0.5-4.1,0.5c-1.3,0-2.5-0.2-3.7-0.5c-1.2-0.3-2.2-0.8-3.1-1.5
		c-0.9-0.7-1.6-1.5-2.2-2.5c-0.5-1-0.8-2.2-0.8-3.6h4.8C179.9,96.2,180,96.9,180.3,97.4z"/>
	<path class="st0" d="M208.5,80.3L217,103h-5.2l-1.7-5.1h-8.5l-1.8,5.1h-5l8.6-22.8H208.5z M208.8,94.2l-2.9-8.4h-0.1l-3,8.4H208.8z
		"/>
	<path class="st0" d="M224,80.3l9.5,15.3h0.1V80.3h4.7V103h-5l-9.5-15.2h-0.1V103H219V80.3H224z"/>
	<path class="st0" d="M252.5,80.3c1.5,0,2.8,0.2,4.1,0.7c1.3,0.5,2.4,1.2,3.3,2.1c0.9,0.9,1.6,2.1,2.2,3.5c0.5,1.4,0.8,3.1,0.8,4.9
		c0,1.7-0.2,3.2-0.6,4.6c-0.4,1.4-1.1,2.6-1.9,3.6c-0.9,1-1.9,1.8-3.2,2.4c-1.3,0.6-2.8,0.9-4.5,0.9h-9.8V80.3H252.5z M252.1,98.8
		c0.7,0,1.4-0.1,2.1-0.4s1.3-0.6,1.8-1.2c0.5-0.5,1-1.2,1.3-2.1c0.3-0.9,0.5-1.9,0.5-3.2c0-1.1-0.1-2.2-0.3-3.1
		c-0.2-0.9-0.6-1.7-1.1-2.4c-0.5-0.7-1.2-1.2-2-1.5c-0.8-0.4-1.9-0.5-3.1-0.5h-3.6v14.4H252.1z"/>
</g>
<g>
	<path class="st0" d="M22.6,127.3c0.3,0.5,0.6,1,1.1,1.3c0.5,0.3,1,0.6,1.6,0.7c0.6,0.2,1.3,0.2,1.9,0.2c0.4,0,0.9,0,1.4-0.1
		s1-0.2,1.4-0.4c0.4-0.2,0.8-0.5,1.1-0.9c0.3-0.4,0.4-0.8,0.4-1.4c0-0.6-0.2-1.1-0.6-1.5c-0.4-0.4-0.9-0.7-1.5-1
		c-0.6-0.3-1.4-0.5-2.2-0.7c-0.8-0.2-1.6-0.4-2.5-0.6c-0.9-0.2-1.7-0.5-2.5-0.8c-0.8-0.3-1.5-0.7-2.2-1.2c-0.6-0.5-1.2-1.1-1.5-1.8
		c-0.4-0.7-0.6-1.6-0.6-2.7c0-1.2,0.2-2.2,0.7-3c0.5-0.9,1.2-1.6,2-2.2c0.8-0.6,1.7-1,2.7-1.3c1-0.3,2-0.4,3.1-0.4
		c1.2,0,2.3,0.1,3.4,0.4c1.1,0.3,2.1,0.7,2.9,1.3c0.9,0.6,1.5,1.4,2,2.3s0.7,2,0.7,3.4h-4.8c0-0.7-0.2-1.2-0.4-1.7
		c-0.2-0.4-0.6-0.8-1-1.1c-0.4-0.3-0.9-0.4-1.4-0.5c-0.5-0.1-1.1-0.2-1.7-0.2c-0.4,0-0.8,0-1.2,0.1s-0.8,0.2-1.1,0.4
		c-0.3,0.2-0.6,0.5-0.8,0.8s-0.3,0.7-0.3,1.2c0,0.4,0.1,0.8,0.3,1.1c0.2,0.3,0.5,0.5,1,0.8c0.5,0.2,1.2,0.5,2.1,0.7
		c0.9,0.2,2,0.5,3.5,0.9c0.4,0.1,1,0.2,1.8,0.5c0.8,0.2,1.5,0.6,2.2,1.1c0.7,0.5,1.4,1.1,1.9,2c0.5,0.8,0.8,1.9,0.8,3.1
		c0,1-0.2,2-0.6,2.9c-0.4,0.9-1,1.7-1.8,2.3s-1.8,1.2-3,1.5s-2.5,0.5-4.1,0.5c-1.3,0-2.5-0.2-3.7-0.5s-2.2-0.8-3.1-1.5
		c-0.9-0.7-1.6-1.5-2.2-2.5c-0.5-1-0.8-2.2-0.8-3.6h4.8C22.2,126.1,22.3,126.8,22.6,127.3z"/>
	<path class="st0" d="M46.5,110.1l5.3,15.7h0.1l5-15.7h7v22.8h-4.7v-16.1h-0.1l-5.6,16.1h-3.9l-5.6-16h-0.1v16h-4.7v-22.8H46.5z"/>
	<path class="st0" d="M73.4,110.1v22.8h-5v-22.8H73.4z"/>
	<path class="st0" d="M82.8,110.1v18.6h11.1v4.2H77.8v-22.8H82.8z"/>
	<path class="st0" d="M113.7,110.1v4.2h-12v4.9h11v3.9h-11v5.6H114v4.2H96.7v-22.8H113.7z"/>
	<path class="st0" d="M121.2,127.3c0.3,0.5,0.6,1,1.1,1.3c0.5,0.3,1,0.6,1.6,0.7c0.6,0.2,1.3,0.2,1.9,0.2c0.4,0,0.9,0,1.4-0.1
		s1-0.2,1.4-0.4c0.4-0.2,0.8-0.5,1.1-0.9c0.3-0.4,0.4-0.8,0.4-1.4c0-0.6-0.2-1.1-0.6-1.5c-0.4-0.4-0.9-0.7-1.5-1
		c-0.6-0.3-1.4-0.5-2.2-0.7c-0.8-0.2-1.6-0.4-2.5-0.6c-0.9-0.2-1.7-0.5-2.5-0.8c-0.8-0.3-1.5-0.7-2.2-1.2c-0.6-0.5-1.2-1.1-1.5-1.8
		c-0.4-0.7-0.6-1.6-0.6-2.7c0-1.2,0.2-2.2,0.7-3c0.5-0.9,1.2-1.6,2-2.2c0.8-0.6,1.7-1,2.7-1.3c1-0.3,2-0.4,3.1-0.4
		c1.2,0,2.3,0.1,3.4,0.4c1.1,0.3,2.1,0.7,2.9,1.3c0.9,0.6,1.5,1.4,2,2.3c0.5,0.9,0.8,2,0.8,3.4h-4.8c0-0.7-0.2-1.2-0.4-1.7
		c-0.2-0.4-0.6-0.8-1-1.1c-0.4-0.3-0.9-0.4-1.4-0.5c-0.5-0.1-1.1-0.2-1.7-0.2c-0.4,0-0.8,0-1.2,0.1s-0.8,0.2-1.1,0.4
		c-0.3,0.2-0.6,0.5-0.8,0.8s-0.3,0.7-0.3,1.2c0,0.4,0.1,0.8,0.3,1.1c0.2,0.3,0.5,0.5,1,0.8c0.5,0.2,1.2,0.5,2.1,0.7
		c0.9,0.2,2,0.5,3.5,0.9c0.4,0.1,1,0.2,1.8,0.5c0.8,0.2,1.5,0.6,2.2,1.1c0.7,0.5,1.4,1.1,1.9,2c0.5,0.8,0.8,1.9,0.8,3.1
		c0,1-0.2,2-0.6,2.9c-0.4,0.9-1,1.7-1.8,2.3s-1.8,1.2-3,1.5s-2.5,0.5-4.1,0.5c-1.3,0-2.5-0.2-3.7-0.5s-2.2-0.8-3.1-1.5
		c-0.9-0.7-1.6-1.5-2.2-2.5c-0.5-1-0.8-2.2-0.8-3.6h4.8C120.8,126.1,120.9,126.8,121.2,127.3z"/>
</g>
<g>
	<path d="M22.8,140v8.3h0.1c0.6-0.8,1.3-1.5,2.2-1.9c0.9-0.4,1.9-0.6,3-0.6c0.8,0,1.6,0.2,2.5,0.5c0.8,0.3,1.5,0.9,2.2,1.6
		c0.6,0.7,1.2,1.6,1.6,2.7c0.4,1.1,0.6,2.4,0.6,3.9s-0.2,2.8-0.6,3.9c-0.4,1.1-0.9,2-1.6,2.7c-0.6,0.7-1.4,1.2-2.2,1.6
		c-0.8,0.3-1.6,0.5-2.5,0.5c-1.2,0-2.3-0.2-3.3-0.6c-1-0.4-1.7-1-2.2-1.9h-0.1v2.1h-4.3V140H22.8z M30.1,152.6
		c-0.1-0.6-0.4-1.2-0.7-1.7s-0.7-0.9-1.2-1.2c-0.5-0.3-1.1-0.4-1.7-0.4c-0.7,0-1.2,0.1-1.7,0.4c-0.5,0.3-0.9,0.7-1.2,1.2
		c-0.3,0.5-0.6,1.1-0.7,1.7c-0.1,0.6-0.2,1.3-0.2,2c0,0.7,0.1,1.3,0.2,2c0.1,0.6,0.4,1.2,0.7,1.7c0.3,0.5,0.7,0.9,1.2,1.2
		c0.5,0.3,1.1,0.4,1.7,0.4c0.7,0,1.3-0.1,1.7-0.4c0.5-0.3,0.9-0.7,1.2-1.2s0.6-1.1,0.7-1.7c0.1-0.6,0.2-1.3,0.2-2
		C30.4,153.9,30.3,153.2,30.1,152.6z"/>
	<path d="M42.6,158.8c0.7,0.7,1.7,1,2.9,1c0.9,0,1.7-0.2,2.4-0.7c0.7-0.5,1.1-0.9,1.2-1.5h4c-0.6,2-1.6,3.4-2.9,4.2
		c-1.3,0.9-2.9,1.3-4.8,1.3c-1.3,0-2.5-0.2-3.5-0.6c-1-0.4-1.9-1-2.6-1.8c-0.7-0.8-1.3-1.7-1.7-2.7c-0.4-1.1-0.6-2.2-0.6-3.5
		c0-1.2,0.2-2.4,0.6-3.4c0.4-1.1,1-2,1.7-2.8c0.7-0.8,1.6-1.4,2.7-1.8c1-0.4,2.2-0.7,3.4-0.7c1.4,0,2.6,0.3,3.7,0.8
		c1,0.5,1.9,1.3,2.6,2.2c0.7,0.9,1.2,2,1.5,3.1c0.3,1.2,0.4,2.4,0.3,3.7H41.5C41.6,157.1,41.9,158.2,42.6,158.8z M47.7,150.2
		c-0.5-0.6-1.4-0.9-2.5-0.9c-0.7,0-1.3,0.1-1.8,0.4c-0.5,0.2-0.9,0.5-1.1,0.9c-0.3,0.4-0.5,0.7-0.6,1.1c-0.1,0.4-0.2,0.8-0.2,1.1
		h7.4C48.7,151.6,48.3,150.8,47.7,150.2z"/>
	<path d="M71.7,164c-0.2,0.9-0.6,1.6-1.2,2.4c-0.6,0.7-1.5,1.4-2.6,1.9c-1.1,0.5-2.6,0.8-4.5,0.8c-0.8,0-1.6-0.1-2.5-0.3
		s-1.6-0.5-2.3-0.9c-0.7-0.4-1.3-1-1.7-1.6c-0.5-0.7-0.7-1.5-0.8-2.4h4.5c0.2,0.9,0.6,1.4,1.2,1.8c0.6,0.3,1.3,0.5,2.1,0.5
		c1.3,0,2.2-0.4,2.8-1.1c0.6-0.8,0.9-1.7,0.8-2.9v-2.2h-0.1c-0.5,0.9-1.2,1.5-2.1,1.9c-0.9,0.4-1.9,0.6-2.9,0.6
		c-1.2,0-2.3-0.2-3.2-0.7s-1.6-1-2.2-1.8c-0.6-0.8-1-1.6-1.3-2.6c-0.3-1-0.4-2.1-0.4-3.2c0-1.1,0.2-2.1,0.5-3.1
		c0.3-1,0.8-1.9,1.4-2.6c0.6-0.8,1.3-1.4,2.2-1.8c0.9-0.4,1.9-0.7,3-0.7c1.1,0,2,0.2,2.9,0.6c0.8,0.4,1.5,1.1,2.1,2h0.1v-2.2h4.3
		v15.4C71.9,162.4,71.8,163.2,71.7,164z M65.5,158.5c0.5-0.3,0.9-0.6,1.2-1s0.6-0.9,0.7-1.5c0.2-0.5,0.2-1.1,0.2-1.7
		c0-0.7-0.1-1.3-0.2-1.9c-0.1-0.6-0.3-1.1-0.6-1.6s-0.7-0.8-1.2-1.1c-0.5-0.3-1.1-0.4-1.9-0.4c-0.6,0-1.2,0.1-1.6,0.4
		c-0.5,0.3-0.8,0.6-1.1,1c-0.3,0.4-0.5,0.9-0.7,1.5c-0.1,0.6-0.2,1.2-0.2,1.8c0,0.6,0.1,1.2,0.2,1.8c0.1,0.6,0.3,1.1,0.6,1.6
		s0.7,0.9,1.1,1.1c0.5,0.3,1.1,0.4,1.8,0.4C64.4,158.9,65,158.8,65.5,158.5z"/>
	<path d="M75.7,143.8V140h4.5v3.7H75.7z M80.2,146.3v16.5h-4.5v-16.5H80.2z"/>
	<path d="M88.1,146.3v2.3h0.1c0.6-1,1.3-1.7,2.2-2.1c0.9-0.4,1.8-0.7,2.8-0.7c1.2,0,2.2,0.2,3,0.5c0.8,0.3,1.4,0.8,1.8,1.4
		c0.4,0.6,0.8,1.3,0.9,2.1s0.3,1.8,0.3,2.8v10.1h-4.5v-9.3c0-1.4-0.2-2.4-0.6-3s-1.2-1-2.3-1c-1.2,0-2.1,0.4-2.7,1.1
		c-0.6,0.7-0.8,1.9-0.8,3.6v8.6h-4.5v-16.5H88.1z"/>
	<path d="M106.5,158.7c0.2,0.4,0.5,0.6,0.8,0.9c0.3,0.2,0.7,0.4,1.1,0.5c0.4,0.1,0.8,0.2,1.3,0.2c0.3,0,0.7,0,1-0.1
		c0.4-0.1,0.7-0.2,1-0.4s0.5-0.4,0.7-0.6s0.3-0.6,0.3-1c0-0.7-0.5-1.2-1.4-1.5c-0.9-0.3-2.2-0.7-3.8-1c-0.7-0.1-1.3-0.3-1.9-0.5
		c-0.6-0.2-1.2-0.5-1.7-0.8c-0.5-0.3-0.9-0.7-1.2-1.2c-0.3-0.5-0.4-1.1-0.4-1.8c0-1.1,0.2-1.9,0.6-2.6s1-1.2,1.6-1.6
		c0.7-0.4,1.4-0.7,2.3-0.8c0.9-0.2,1.7-0.2,2.6-0.2s1.8,0.1,2.6,0.3s1.6,0.5,2.2,0.9c0.7,0.4,1.2,0.9,1.6,1.6
		c0.4,0.7,0.7,1.5,0.8,2.5h-4.3c-0.1-0.9-0.4-1.5-1-1.8c-0.6-0.3-1.3-0.5-2.1-0.5c-0.3,0-0.5,0-0.8,0c-0.3,0-0.6,0.1-0.8,0.2
		c-0.2,0.1-0.5,0.3-0.6,0.5c-0.2,0.2-0.3,0.5-0.3,0.8c0,0.4,0.1,0.7,0.4,1s0.7,0.5,1.2,0.6c0.5,0.2,1,0.3,1.6,0.4
		c0.6,0.1,1.2,0.3,1.9,0.4c0.7,0.1,1.3,0.3,1.9,0.5c0.6,0.2,1.2,0.5,1.7,0.8c0.5,0.4,0.9,0.8,1.2,1.3c0.3,0.5,0.4,1.2,0.4,1.9
		c0,1.1-0.2,2-0.7,2.7c-0.4,0.7-1,1.3-1.7,1.8c-0.7,0.4-1.5,0.8-2.4,0.9c-0.9,0.2-1.8,0.3-2.8,0.3c-1,0-1.9-0.1-2.8-0.3
		c-0.9-0.2-1.7-0.5-2.4-1s-1.3-1-1.8-1.8c-0.5-0.7-0.7-1.7-0.7-2.8h4.3C106.2,157.9,106.3,158.3,106.5,158.7z"/>
	<path d="M142.9,162.8l-2.9-11.1h-0.1l-2.8,11.1h-4.7l-5.2-16.5h4.8l3,11.2h0.1l2.7-11.2h4.4l2.8,11.2h0.1l3-11.2h4.7l-5.2,16.5
		H142.9z"/>
	<path d="M154.8,143.8V140h4.5v3.7H154.8z M159.3,146.3v16.5h-4.5v-16.5H159.3z"/>
	<path d="M171.9,146.3v3h-3.3v8.2c0,0.8,0.1,1.3,0.4,1.5c0.3,0.3,0.8,0.4,1.5,0.4c0.3,0,0.5,0,0.7,0c0.2,0,0.5-0.1,0.7-0.1v3.5
		c-0.4,0.1-0.8,0.1-1.3,0.1c-0.5,0-0.9,0-1.4,0c-0.7,0-1.4,0-2-0.1c-0.6-0.1-1.2-0.3-1.7-0.6c-0.5-0.3-0.9-0.7-1.1-1.2
		c-0.3-0.5-0.4-1.2-0.4-2v-9.7h-2.7v-3h2.7v-4.9h4.5v4.9H171.9z"/>
	<path d="M178.6,140v8.6h0.1c0.6-1,1.3-1.7,2.2-2.1c0.9-0.4,1.8-0.7,2.6-0.7c1.2,0,2.2,0.2,3,0.5c0.8,0.3,1.4,0.8,1.8,1.4
		s0.8,1.3,0.9,2.1s0.3,1.8,0.3,2.8v10.1H185v-9.3c0-1.4-0.2-2.4-0.6-3c-0.4-0.7-1.2-1-2.3-1c-1.2,0-2.1,0.4-2.7,1.1
		s-0.8,1.9-0.8,3.6v8.6h-4.5V140H178.6z"/>
</g>
<g>
	<path d="M18.1,181.3c0.1-1.1,0.3-1.9,0.8-2.6c0.5-0.7,1.1-1.3,1.8-1.7c0.7-0.4,1.5-0.7,2.4-0.9s1.8-0.3,2.7-0.3
		c0.8,0,1.7,0.1,2.5,0.2c0.9,0.1,1.6,0.3,2.3,0.7c0.7,0.3,1.3,0.8,1.7,1.4c0.4,0.6,0.7,1.4,0.7,2.4v8.6c0,0.7,0,1.5,0.1,2.1
		c0.1,0.7,0.2,1.2,0.4,1.5h-4.6c-0.1-0.3-0.2-0.5-0.2-0.8s-0.1-0.5-0.1-0.8c-0.7,0.7-1.6,1.3-2.6,1.6c-1,0.3-2,0.4-3,0.4
		c-0.8,0-1.5-0.1-2.2-0.3c-0.7-0.2-1.3-0.5-1.8-0.9c-0.5-0.4-0.9-0.9-1.2-1.5c-0.3-0.6-0.4-1.4-0.4-2.2c0-0.9,0.2-1.7,0.5-2.3
		c0.3-0.6,0.8-1.1,1.3-1.5s1.1-0.6,1.8-0.8s1.3-0.3,2-0.4s1.4-0.2,2-0.3c0.7-0.1,1.2-0.2,1.8-0.3c0.5-0.1,0.9-0.3,1.2-0.6
		c0.3-0.2,0.4-0.6,0.4-1.1c0-0.5-0.1-0.9-0.2-1.2s-0.4-0.5-0.6-0.7c-0.3-0.2-0.6-0.3-0.9-0.3c-0.4-0.1-0.7-0.1-1.1-0.1
		c-0.9,0-1.6,0.2-2.1,0.6s-0.8,1-0.9,1.9H18.1z M28.6,184.6c-0.2,0.2-0.4,0.3-0.7,0.4s-0.6,0.2-0.9,0.2c-0.3,0.1-0.7,0.1-1,0.2
		c-0.4,0-0.7,0.1-1.1,0.2c-0.3,0.1-0.7,0.1-1,0.3s-0.6,0.2-0.9,0.4c-0.2,0.2-0.4,0.4-0.6,0.7c-0.1,0.3-0.2,0.6-0.2,1.1
		c0,0.4,0.1,0.7,0.2,1c0.1,0.3,0.4,0.5,0.6,0.7c0.3,0.2,0.6,0.3,0.9,0.3c0.3,0.1,0.7,0.1,1.1,0.1c0.9,0,1.6-0.1,2.1-0.4
		c0.5-0.3,0.9-0.7,1.1-1.1c0.2-0.4,0.4-0.8,0.4-1.3c0.1-0.4,0.1-0.8,0.1-1V184.6z"/>
	<path d="M49.3,188.6c0.2,0.4,0.5,0.6,0.8,0.9c0.3,0.2,0.7,0.4,1.1,0.5c0.4,0.1,0.8,0.2,1.3,0.2c0.3,0,0.7,0,1-0.1
		c0.4-0.1,0.7-0.2,1-0.4s0.5-0.4,0.7-0.6s0.3-0.6,0.3-1c0-0.7-0.5-1.2-1.4-1.5c-0.9-0.3-2.2-0.7-3.8-1c-0.7-0.1-1.3-0.3-1.9-0.5
		c-0.6-0.2-1.2-0.5-1.7-0.8c-0.5-0.3-0.9-0.7-1.2-1.2c-0.3-0.5-0.4-1.1-0.4-1.8c0-1.1,0.2-1.9,0.6-2.6s1-1.2,1.6-1.6
		c0.7-0.4,1.4-0.7,2.3-0.8c0.9-0.2,1.7-0.2,2.6-0.2s1.8,0.1,2.6,0.3s1.6,0.5,2.2,0.9c0.7,0.4,1.2,0.9,1.6,1.6
		c0.4,0.7,0.7,1.5,0.8,2.5h-4.3c-0.1-0.9-0.4-1.5-1-1.8c-0.6-0.3-1.3-0.5-2.1-0.5c-0.3,0-0.5,0-0.8,0c-0.3,0-0.6,0.1-0.8,0.2
		c-0.2,0.1-0.5,0.3-0.6,0.5c-0.2,0.2-0.3,0.5-0.3,0.8c0,0.4,0.1,0.7,0.4,1s0.7,0.5,1.2,0.6c0.5,0.2,1,0.3,1.6,0.4
		c0.6,0.1,1.2,0.3,1.9,0.4c0.7,0.1,1.3,0.3,1.9,0.5c0.6,0.2,1.2,0.5,1.7,0.8c0.5,0.4,0.9,0.8,1.2,1.3c0.3,0.5,0.4,1.2,0.4,1.9
		c0,1.1-0.2,2-0.7,2.7c-0.4,0.7-1,1.3-1.7,1.8c-0.7,0.4-1.5,0.8-2.4,0.9c-0.9,0.2-1.8,0.3-2.8,0.3c-1,0-1.9-0.1-2.8-0.3
		c-0.9-0.2-1.7-0.5-2.4-1s-1.3-1-1.8-1.8c-0.5-0.7-0.7-1.7-0.7-2.8H49C49,187.8,49.1,188.2,49.3,188.6z"/>
	<path d="M62.7,173.6v-3.7h4.5v3.7H62.7z M67.2,176.2v16.5h-4.5v-16.5H67.2z"/>
	<path d="M75.1,176.2v2.3h0.1c0.6-1,1.3-1.7,2.2-2.1c0.9-0.4,1.8-0.7,2.8-0.7c1.2,0,2.2,0.2,3,0.5c0.8,0.3,1.4,0.8,1.8,1.4
		c0.4,0.6,0.8,1.3,0.9,2.1s0.3,1.8,0.3,2.8v10.1h-4.5v-9.3c0-1.4-0.2-2.4-0.6-3s-1.2-1-2.3-1c-1.2,0-2.1,0.4-2.7,1.1
		c-0.6,0.7-0.8,1.9-0.8,3.6v8.6h-4.5v-16.5H75.1z"/>
	<path d="M105.3,193.9c-0.2,0.9-0.6,1.6-1.2,2.4c-0.6,0.7-1.5,1.4-2.6,1.9c-1.1,0.5-2.6,0.8-4.5,0.8c-0.8,0-1.6-0.1-2.5-0.3
		s-1.6-0.5-2.3-0.9c-0.7-0.4-1.3-1-1.7-1.6c-0.5-0.7-0.7-1.5-0.8-2.4h4.5c0.2,0.9,0.6,1.4,1.2,1.8c0.6,0.3,1.3,0.5,2.1,0.5
		c1.3,0,2.2-0.4,2.8-1.1c0.6-0.8,0.9-1.7,0.8-2.9v-2.2h-0.1c-0.5,0.9-1.2,1.5-2.1,1.9c-0.9,0.4-1.9,0.6-2.9,0.6
		c-1.2,0-2.3-0.2-3.2-0.7s-1.6-1-2.2-1.8c-0.6-0.8-1-1.6-1.3-2.6c-0.3-1-0.4-2.1-0.4-3.2c0-1.1,0.2-2.1,0.5-3.1
		c0.3-1,0.8-1.9,1.4-2.6c0.6-0.8,1.3-1.4,2.2-1.8c0.9-0.4,1.9-0.7,3-0.7c1.1,0,2,0.2,2.9,0.6c0.8,0.4,1.5,1.1,2.1,2h0.1v-2.2h4.3
		v15.4C105.6,192.3,105.5,193,105.3,193.9z M99.1,188.4c0.5-0.3,0.9-0.6,1.2-1s0.6-0.9,0.7-1.5c0.2-0.5,0.2-1.1,0.2-1.7
		c0-0.7-0.1-1.3-0.2-1.9c-0.1-0.6-0.3-1.1-0.6-1.6s-0.7-0.8-1.2-1.1c-0.5-0.3-1.1-0.4-1.9-0.4c-0.6,0-1.2,0.1-1.6,0.4
		c-0.5,0.3-0.8,0.6-1.1,1c-0.3,0.4-0.5,0.9-0.7,1.5c-0.1,0.6-0.2,1.2-0.2,1.8c0,0.6,0.1,1.2,0.2,1.8c0.1,0.6,0.3,1.1,0.6,1.6
		s0.7,0.9,1.1,1.1c0.5,0.3,1.1,0.4,1.8,0.4C98,188.8,98.6,188.7,99.1,188.4z"/>
	<path d="M113.9,169.9v22.8h-4.5v-22.8H113.9z"/>
	<path d="M122.3,188.7c0.7,0.7,1.7,1,2.9,1c0.9,0,1.7-0.2,2.4-0.7c0.7-0.5,1.1-0.9,1.2-1.5h4c-0.6,2-1.6,3.4-2.9,4.2
		c-1.3,0.9-2.9,1.3-4.8,1.3c-1.3,0-2.5-0.2-3.5-0.6c-1-0.4-1.9-1-2.6-1.8c-0.7-0.8-1.3-1.7-1.7-2.7c-0.4-1.1-0.6-2.2-0.6-3.5
		c0-1.2,0.2-2.4,0.6-3.4c0.4-1.1,1-2,1.7-2.8c0.7-0.8,1.6-1.4,2.7-1.8c1-0.4,2.2-0.7,3.4-0.7c1.4,0,2.6,0.3,3.7,0.8
		c1,0.5,1.9,1.3,2.6,2.2c0.7,0.9,1.2,2,1.5,3.1c0.3,1.2,0.4,2.4,0.3,3.7h-11.9C121.2,187,121.6,188.1,122.3,188.7z M127.4,180
		c-0.5-0.6-1.4-0.9-2.5-0.9c-0.7,0-1.3,0.1-1.8,0.4c-0.5,0.2-0.9,0.5-1.1,0.9c-0.3,0.4-0.5,0.7-0.6,1.1c-0.1,0.4-0.2,0.8-0.2,1.1
		h7.4C128.3,181.5,127.9,180.6,127.4,180z"/>
	<path d="M148.9,187.1c0.3,0.5,0.6,1,1.1,1.3c0.5,0.3,1,0.6,1.6,0.7c0.6,0.2,1.3,0.2,1.9,0.2c0.4,0,0.9,0,1.4-0.1
		c0.5-0.1,1-0.2,1.4-0.4s0.8-0.5,1.1-0.9s0.4-0.8,0.4-1.4c0-0.6-0.2-1.1-0.6-1.5s-0.9-0.7-1.5-1c-0.6-0.3-1.4-0.5-2.2-0.7
		c-0.8-0.2-1.6-0.4-2.5-0.6c-0.9-0.2-1.7-0.5-2.5-0.8c-0.8-0.3-1.5-0.7-2.2-1.2s-1.2-1.1-1.5-1.8c-0.4-0.7-0.6-1.6-0.6-2.7
		c0-1.2,0.2-2.2,0.7-3c0.5-0.9,1.2-1.6,2-2.2c0.8-0.6,1.7-1,2.7-1.3c1-0.3,2-0.4,3.1-0.4c1.2,0,2.3,0.1,3.4,0.4
		c1.1,0.3,2.1,0.7,2.9,1.3c0.9,0.6,1.5,1.4,2,2.3c0.5,0.9,0.8,2,0.8,3.4h-4.8c0-0.7-0.2-1.2-0.4-1.7c-0.2-0.4-0.6-0.8-1-1.1
		c-0.4-0.3-0.9-0.4-1.4-0.5c-0.5-0.1-1.1-0.2-1.7-0.2c-0.4,0-0.8,0-1.2,0.1c-0.4,0.1-0.8,0.2-1.1,0.4c-0.3,0.2-0.6,0.5-0.8,0.8
		c-0.2,0.3-0.3,0.7-0.3,1.2c0,0.4,0.1,0.8,0.3,1.1c0.2,0.3,0.5,0.5,1,0.8c0.5,0.2,1.2,0.5,2.1,0.7c0.9,0.2,2,0.5,3.5,0.9
		c0.4,0.1,1,0.2,1.8,0.5c0.8,0.2,1.5,0.6,2.2,1.1c0.7,0.5,1.4,1.1,1.9,2c0.5,0.8,0.8,1.9,0.8,3.1c0,1-0.2,2-0.6,2.9
		c-0.4,0.9-1,1.7-1.8,2.3c-0.8,0.6-1.8,1.2-3,1.5c-1.2,0.4-2.5,0.5-4.1,0.5c-1.3,0-2.5-0.2-3.7-0.5c-1.2-0.3-2.2-0.8-3.1-1.5
		c-0.9-0.7-1.6-1.5-2.2-2.5c-0.5-1-0.8-2.2-0.8-3.6h4.8C148.5,185.9,148.6,186.5,148.9,187.1z"/>
	<path d="M164,174.1v-4.2h18.7v4.2h-6.8v18.6h-5v-18.6H164z"/>
	<path d="M202.3,169.9v4.2h-12v4.9h11v3.9h-11v5.6h12.3v4.2h-17.3v-22.8H202.3z"/>
	<path d="M216.2,169.9c1.4,0,2.6,0.2,3.6,0.6c1,0.4,1.8,1,2.4,1.6c0.6,0.7,1.1,1.5,1.4,2.3s0.4,1.8,0.4,2.7c0,0.9-0.1,1.8-0.4,2.7
		c-0.3,0.9-0.7,1.7-1.4,2.3c-0.6,0.7-1.4,1.2-2.4,1.6c-1,0.4-2.2,0.6-3.6,0.6h-5.3v8.2h-5v-22.8H216.2z M214.8,180.6
		c0.6,0,1.1,0,1.7-0.1s1-0.2,1.4-0.5c0.4-0.2,0.7-0.6,1-1s0.4-1,0.4-1.8s-0.1-1.3-0.4-1.8c-0.2-0.4-0.6-0.8-1-1
		c-0.4-0.2-0.9-0.4-1.4-0.5s-1.1-0.1-1.7-0.1h-3.9v6.8H214.8z"/>
</g>
</svg>
