<?xml version="1.0" encoding="utf-8"?>
<!-- Generator: Adobe Illustrator 26.1.0, SVG Export Plug-In . SVG Version: 6.00 Build 0)  -->
<svg version="1.1" id="Layer_1" xmlns="http://www.w3.org/2000/svg" xmlns:xlink="http://www.w3.org/1999/xlink" x="0px" y="0px"
	 viewBox="0 0 300 250" style="enable-background:new 0 0 300 250;" xml:space="preserve">
<g>
	<path d="M85.9,52.8c0.7,0,1.4,0.1,2,0.4c0.6,0.2,1.1,0.6,1.5,1c0.4,0.4,0.7,0.9,1,1.4c0.2,0.5,0.3,1.1,0.3,1.8c0,1-0.2,1.8-0.6,2.5
		c-0.4,0.7-1.1,1.2-2,1.6v0c0.4,0.1,0.8,0.3,1.1,0.6c0.3,0.3,0.5,0.6,0.7,0.9c0.2,0.3,0.3,0.7,0.4,1.1c0.1,0.4,0.1,0.8,0.2,1.2
		c0,0.3,0,0.6,0,0.9c0,0.4,0,0.7,0.1,1.1c0,0.4,0.1,0.7,0.2,1c0.1,0.3,0.2,0.6,0.4,0.8h-3.6c-0.2-0.5-0.3-1.1-0.4-1.9
		c0-0.7-0.1-1.4-0.2-2.1c-0.1-0.9-0.4-1.5-0.8-1.9c-0.4-0.4-1-0.6-1.9-0.6h-3.6v6.4h-3.6V52.8H85.9z M84.6,60.2
		c0.8,0,1.4-0.2,1.9-0.6c0.4-0.4,0.6-1,0.6-1.8c0-0.8-0.2-1.4-0.6-1.7c-0.4-0.4-1-0.5-1.9-0.5h-3.9v4.6H84.6z"/>
	<path d="M96.8,66.3c0.5,0.5,1.2,0.7,2.1,0.7c0.7,0,1.2-0.2,1.7-0.5c0.5-0.3,0.8-0.7,0.9-1h2.9c-0.5,1.4-1.2,2.4-2.1,3
		c-0.9,0.6-2.1,0.9-3.4,0.9c-0.9,0-1.8-0.1-2.5-0.4c-0.7-0.3-1.4-0.7-1.9-1.3c-0.5-0.5-0.9-1.2-1.2-2c-0.3-0.8-0.4-1.6-0.4-2.5
		c0-0.9,0.1-1.7,0.4-2.5c0.3-0.8,0.7-1.4,1.2-2c0.5-0.6,1.2-1,1.9-1.3c0.7-0.3,1.6-0.5,2.5-0.5c1,0,1.9,0.2,2.6,0.6
		c0.7,0.4,1.4,0.9,1.8,1.6s0.8,1.4,1,2.2c0.2,0.8,0.3,1.7,0.2,2.6H96C96,65.1,96.3,65.8,96.8,66.3z M100.4,60.1
		c-0.4-0.4-1-0.6-1.8-0.6c-0.5,0-1,0.1-1.3,0.3s-0.6,0.4-0.8,0.7c-0.2,0.3-0.4,0.5-0.4,0.8C96,61.5,96,61.7,96,62h5.3
		C101.1,61.1,100.8,60.5,100.4,60.1z"/>
	<path d="M106.3,61c0-0.8,0.2-1.4,0.6-1.9c0.3-0.5,0.8-0.9,1.3-1.2s1.1-0.5,1.8-0.7s1.3-0.2,2-0.2c0.6,0,1.2,0,1.8,0.1
		c0.6,0.1,1.2,0.2,1.7,0.5c0.5,0.2,0.9,0.6,1.2,1s0.5,1,0.5,1.7v6.2c0,0.5,0,1,0.1,1.5c0.1,0.5,0.2,0.9,0.3,1.1h-3.3
		c-0.1-0.2-0.1-0.4-0.1-0.6c0-0.2-0.1-0.4-0.1-0.6c-0.5,0.5-1.1,0.9-1.8,1.1c-0.7,0.2-1.4,0.3-2.2,0.3c-0.6,0-1.1-0.1-1.6-0.2
		c-0.5-0.1-0.9-0.4-1.3-0.6c-0.4-0.3-0.7-0.7-0.9-1.1c-0.2-0.4-0.3-1-0.3-1.6c0-0.7,0.1-1.2,0.4-1.7c0.2-0.4,0.5-0.8,0.9-1
		c0.4-0.3,0.8-0.5,1.3-0.6s1-0.2,1.5-0.3c0.5-0.1,1-0.1,1.4-0.2c0.5,0,0.9-0.1,1.3-0.2c0.4-0.1,0.7-0.2,0.9-0.4
		c0.2-0.2,0.3-0.4,0.3-0.8c0-0.4-0.1-0.6-0.2-0.8c-0.1-0.2-0.3-0.4-0.5-0.5c-0.2-0.1-0.4-0.2-0.7-0.2c-0.3,0-0.5-0.1-0.8-0.1
		c-0.6,0-1.1,0.1-1.5,0.4c-0.4,0.3-0.6,0.7-0.6,1.4H106.3z M113.8,63.4c-0.1,0.1-0.3,0.2-0.5,0.3c-0.2,0.1-0.4,0.1-0.7,0.2
		c-0.2,0-0.5,0.1-0.7,0.1c-0.3,0-0.5,0.1-0.8,0.1c-0.2,0-0.5,0.1-0.7,0.2s-0.4,0.2-0.6,0.3c-0.2,0.1-0.3,0.3-0.4,0.5
		s-0.2,0.5-0.2,0.8c0,0.3,0.1,0.5,0.2,0.7c0.1,0.2,0.3,0.4,0.4,0.5c0.2,0.1,0.4,0.2,0.6,0.2c0.2,0,0.5,0.1,0.8,0.1
		c0.6,0,1.1-0.1,1.5-0.3c0.4-0.2,0.6-0.5,0.8-0.8c0.2-0.3,0.3-0.6,0.3-0.9s0.1-0.6,0.1-0.7V63.4z"/>
	<path d="M128,67.7c-0.4,0.6-0.9,1.1-1.5,1.4c-0.6,0.3-1.3,0.4-2.1,0.4c-0.9,0-1.7-0.2-2.3-0.5s-1.2-0.8-1.7-1.4
		c-0.4-0.6-0.8-1.3-1-2c-0.2-0.8-0.3-1.6-0.3-2.4c0-0.8,0.1-1.6,0.3-2.3c0.2-0.7,0.6-1.4,1-2c0.4-0.6,1-1,1.6-1.4s1.4-0.5,2.3-0.5
		c0.7,0,1.4,0.1,2,0.4c0.6,0.3,1.1,0.7,1.5,1.3h0v-6h3.3v16.4h-3.1L128,67.7L128,67.7z M127.9,61.8c-0.1-0.5-0.2-0.8-0.5-1.2
		c-0.2-0.3-0.5-0.6-0.9-0.8c-0.4-0.2-0.8-0.3-1.3-0.3c-0.5,0-1,0.1-1.4,0.3c-0.4,0.2-0.7,0.5-0.9,0.8c-0.2,0.4-0.4,0.8-0.5,1.2
		c-0.1,0.5-0.1,0.9-0.1,1.4c0,0.5,0.1,0.9,0.2,1.4s0.3,0.9,0.5,1.2c0.2,0.4,0.5,0.6,0.9,0.9c0.4,0.2,0.8,0.3,1.3,0.3
		c0.5,0,1-0.1,1.3-0.3c0.4-0.2,0.6-0.5,0.9-0.9c0.2-0.4,0.4-0.8,0.5-1.2c0.1-0.5,0.1-0.9,0.1-1.4C128,62.7,128,62.2,127.9,61.8z"/>
	<path d="M133.8,61.1v-3.5h3.6v3.5H133.8z M137.4,65.6v3.5h-3.6v-3.5H137.4z"/>
</g>
<g>
	<path d="M146.3,55.8l0.6-3h13.7l-0.6,3h-4.9l-2.8,13.3h-3.6l2.8-13.3H146.3z"/>
	<path d="M165.5,52.8l-1.2,5.9h0c0.1-0.2,0.3-0.4,0.5-0.6c0.2-0.2,0.5-0.4,0.8-0.6c0.3-0.2,0.7-0.3,1.1-0.4c0.4-0.1,0.9-0.2,1.4-0.2
		c2.3,0,3.5,1.1,3.5,3.2c0,0.1,0,0.3,0,0.5s-0.1,0.4-0.1,0.6c0,0.2-0.1,0.4-0.1,0.6s-0.1,0.3-0.1,0.4l-1.5,6.9h-3.3l1.4-6.9
		c0-0.2,0.1-0.4,0.1-0.7c0.1-0.3,0.1-0.5,0.1-0.7c0-0.4-0.2-0.6-0.5-0.9c-0.3-0.2-0.7-0.3-1.1-0.3c-0.5,0-0.9,0.1-1.3,0.3
		c-0.4,0.2-0.7,0.4-1,0.7c-0.3,0.3-0.5,0.7-0.7,1.1c-0.2,0.4-0.3,0.8-0.4,1.2l-1.3,6.3h-3.2l3.4-16.4H165.5z"/>
	<path d="M176.5,64.2c0,0.1,0,0.1,0,0.2v0.3c0,0.7,0.2,1.2,0.6,1.7s1.1,0.6,2,0.6c0.3,0,0.6,0,0.9-0.1c0.3-0.1,0.5-0.2,0.7-0.4
		c0.2-0.2,0.4-0.3,0.5-0.5c0.1-0.2,0.3-0.4,0.4-0.6h3.3c-0.3,0.7-0.6,1.3-0.9,1.8s-0.8,0.9-1.3,1.3s-1.1,0.6-1.7,0.8
		c-0.7,0.2-1.4,0.3-2.3,0.3c-0.8,0-1.5-0.1-2.2-0.3s-1.2-0.5-1.7-1c-0.5-0.4-0.8-1-1.1-1.6c-0.3-0.6-0.4-1.4-0.4-2.2
		c0-0.9,0.2-1.9,0.5-2.7c0.3-0.9,0.7-1.7,1.3-2.3c0.6-0.7,1.2-1.2,2.1-1.6c0.8-0.4,1.7-0.6,2.7-0.6c0.8,0,1.6,0.1,2.3,0.3
		c0.7,0.2,1.3,0.5,1.7,1s0.9,1,1.1,1.6c0.3,0.6,0.4,1.4,0.4,2.3c0,0.6-0.1,1.2-0.2,1.9h-8.7C176.5,64.1,176.5,64.2,176.5,64.2z
		 M182.2,61.1c-0.1-0.3-0.2-0.6-0.3-0.8c-0.2-0.2-0.4-0.4-0.7-0.6c-0.3-0.1-0.7-0.2-1.1-0.2c-0.5,0-0.9,0.1-1.2,0.2
		c-0.4,0.1-0.7,0.3-0.9,0.6c-0.3,0.2-0.5,0.5-0.7,0.8c-0.2,0.3-0.3,0.6-0.4,1h5.4C182.3,61.7,182.2,61.4,182.2,61.1z"/>
	<path d="M191.6,57.3l-0.5,2.1l0,0c0.4-0.8,0.9-1.4,1.7-1.9s1.5-0.6,2.4-0.6c0.3,0,0.7,0,1,0.1l-0.7,3.2c-0.2,0-0.5-0.1-0.7-0.1
		c-0.2,0-0.5-0.1-0.7-0.1c-0.6,0-1.2,0.1-1.6,0.3s-0.8,0.5-1.1,0.9s-0.5,0.8-0.7,1.2c-0.2,0.5-0.3,1-0.4,1.5l-1.1,5.2H186l2.5-11.9
		H191.6z"/>
	<path d="M198.1,64.2c0,0.1,0,0.1,0,0.2v0.3c0,0.7,0.2,1.2,0.6,1.7s1.1,0.6,2,0.6c0.3,0,0.6,0,0.9-0.1c0.3-0.1,0.5-0.2,0.7-0.4
		c0.2-0.2,0.4-0.3,0.5-0.5c0.1-0.2,0.3-0.4,0.4-0.6h3.3c-0.3,0.7-0.6,1.3-0.9,1.8s-0.8,0.9-1.3,1.3s-1.1,0.6-1.7,0.8
		c-0.7,0.2-1.4,0.3-2.3,0.3c-0.8,0-1.5-0.1-2.2-0.3s-1.2-0.5-1.7-1c-0.5-0.4-0.8-1-1.1-1.6c-0.3-0.6-0.4-1.4-0.4-2.2
		c0-0.9,0.2-1.9,0.5-2.7c0.3-0.9,0.7-1.7,1.3-2.3c0.6-0.7,1.2-1.2,2.1-1.6c0.8-0.4,1.7-0.6,2.7-0.6c0.8,0,1.6,0.1,2.3,0.3
		c0.7,0.2,1.3,0.5,1.7,1s0.9,1,1.1,1.6c0.3,0.6,0.4,1.4,0.4,2.3c0,0.6-0.1,1.2-0.2,1.9h-8.7C198.2,64.1,198.1,64.2,198.1,64.2z
		 M203.9,61.1c-0.1-0.3-0.2-0.6-0.3-0.8c-0.2-0.2-0.4-0.4-0.7-0.6c-0.3-0.1-0.7-0.2-1.1-0.2c-0.5,0-0.9,0.1-1.2,0.2
		c-0.4,0.1-0.7,0.3-0.9,0.6c-0.3,0.2-0.5,0.5-0.7,0.8c-0.2,0.3-0.3,0.6-0.4,1h5.4C203.9,61.7,203.9,61.4,203.9,61.1z"/>
	<path d="M214.8,52.8l-0.7,3.5c-0.1,0.5-0.3,1-0.5,1.5c-0.2,0.5-0.5,0.8-0.8,1.2c-0.3,0.3-0.8,0.6-1.3,0.8c-0.5,0.2-1.1,0.3-1.9,0.4
		l0.3-1.6c0.7-0.1,1.1-0.4,1.4-0.7c0.3-0.4,0.5-0.9,0.6-1.5h-1.6l0.7-3.5H214.8z"/>
	<path d="M220.3,59.6c-0.3-0.3-0.7-0.4-1.4-0.4c-0.6,0-1.1,0.1-1.4,0.3c-0.4,0.2-0.6,0.5-0.6,0.9c0,0.3,0.1,0.5,0.3,0.7
		c0.2,0.2,0.6,0.4,1.2,0.5l1.6,0.5c0.4,0.1,0.9,0.3,1.2,0.5c0.4,0.2,0.7,0.4,1,0.7c0.3,0.3,0.5,0.6,0.7,1c0.2,0.4,0.2,0.8,0.2,1.3
		c0,0.7-0.2,1.4-0.5,1.9c-0.3,0.5-0.8,0.9-1.3,1.2c-0.5,0.3-1.1,0.6-1.8,0.7c-0.7,0.1-1.4,0.2-2,0.2c-0.6,0-1.2-0.1-1.8-0.2
		c-0.6-0.1-1.1-0.3-1.6-0.6c-0.5-0.3-0.9-0.7-1.2-1.1c-0.3-0.5-0.5-1.1-0.5-1.8v-0.5h3v0.4c0,0.3,0.1,0.5,0.2,0.7
		c0.1,0.2,0.3,0.4,0.5,0.5s0.5,0.2,0.8,0.3c0.3,0.1,0.6,0.1,0.8,0.1c0.2,0,0.5,0,0.7-0.1c0.2,0,0.5-0.1,0.7-0.2
		c0.2-0.1,0.4-0.3,0.5-0.4s0.2-0.4,0.2-0.7c0-0.4-0.1-0.7-0.3-0.9c-0.2-0.2-0.5-0.3-0.8-0.4l-2.5-0.8c-0.4-0.1-0.8-0.3-1.1-0.4
		s-0.6-0.3-0.8-0.6c-0.2-0.2-0.4-0.5-0.5-0.8c-0.1-0.3-0.2-0.7-0.2-1.2c0-0.7,0.2-1.3,0.5-1.8c0.3-0.5,0.8-0.9,1.3-1.2
		s1.1-0.5,1.7-0.6c0.6-0.1,1.2-0.2,1.8-0.2c0.6,0,1.3,0.1,1.9,0.2c0.6,0.1,1.1,0.3,1.6,0.6c0.5,0.3,0.8,0.7,1.1,1.2
		c0.3,0.5,0.4,1.1,0.4,1.9h-3C220.7,60.3,220.6,59.9,220.3,59.6z"/>
</g>
<g>
	<path d="M59.9,78.7l4.4,11.6h0l2.3-11.6H70l-3.5,16.4H63l-4.5-11.5h0l-2.3,11.5h-3.3l3.4-16.4H59.9z"/>
	<path d="M70.5,87.4c0.3-0.9,0.8-1.7,1.4-2.3c0.6-0.7,1.3-1.2,2.1-1.6s1.8-0.6,2.8-0.6c0.8,0,1.6,0.1,2.2,0.3
		c0.7,0.2,1.3,0.5,1.8,0.9c0.5,0.4,0.9,0.9,1.1,1.6c0.3,0.6,0.4,1.4,0.4,2.2c0,1-0.2,2-0.5,2.9c-0.3,0.9-0.8,1.7-1.4,2.4
		c-0.6,0.7-1.3,1.2-2.2,1.6s-1.8,0.6-2.9,0.6c-1.7,0-3-0.4-4-1.3c-1-0.8-1.5-2.1-1.5-3.8C70,89.3,70.2,88.3,70.5,87.4z M73.4,91.3
		c0.1,0.3,0.2,0.6,0.4,0.8c0.2,0.2,0.4,0.4,0.7,0.6c0.3,0.1,0.6,0.2,1,0.2c0.6,0,1.1-0.2,1.6-0.5s0.8-0.7,1.1-1.2
		c0.3-0.5,0.5-1,0.6-1.6c0.1-0.6,0.2-1.1,0.2-1.6c0-0.8-0.2-1.4-0.5-1.9c-0.4-0.5-1-0.7-1.8-0.7c-0.6,0-1.1,0.2-1.5,0.5
		c-0.4,0.3-0.8,0.7-1.1,1.2c-0.3,0.5-0.5,1-0.6,1.6c-0.1,0.6-0.2,1.1-0.2,1.6C73.3,90.6,73.3,91,73.4,91.3z"/>
	<path d="M100,78.7c0.8,0,1.6,0.1,2.2,0.2c0.7,0.1,1.2,0.3,1.7,0.6c0.5,0.3,0.8,0.7,1.1,1.2c0.2,0.5,0.4,1.1,0.4,1.9
		c0,0.5-0.1,0.9-0.2,1.3s-0.3,0.8-0.6,1.2c-0.3,0.3-0.6,0.6-1,0.9c-0.4,0.2-0.8,0.4-1.3,0.4v0c0.8,0.2,1.4,0.6,1.8,1.2
		c0.4,0.6,0.6,1.3,0.6,2.1c0,0.9-0.2,1.7-0.5,2.3c-0.3,0.7-0.8,1.2-1.4,1.7c-0.6,0.4-1.2,0.8-2,1c-0.7,0.2-1.5,0.3-2.4,0.3h-8.7
		l3.4-16.4H100z M98.2,92.3c0.8,0,1.5-0.2,2-0.7c0.5-0.4,0.8-1.1,0.8-2c0-0.4-0.1-0.8-0.3-1c-0.2-0.2-0.4-0.4-0.7-0.6
		c-0.3-0.1-0.6-0.2-0.9-0.2c-0.3,0-0.7,0-1,0h-3.5l-1,4.5H98.2z M99.3,85.3c0.7,0,1.2-0.2,1.7-0.5s0.7-0.9,0.7-1.6
		c0-0.6-0.2-1.1-0.5-1.3c-0.3-0.2-0.8-0.4-1.4-0.4H96l-0.8,3.8H99.3z"/>
	<path d="M109.6,90.1c0,0.1,0,0.1,0,0.2v0.3c0,0.7,0.2,1.2,0.6,1.7c0.4,0.4,1.1,0.6,2,0.6c0.3,0,0.6,0,0.9-0.1
		c0.3-0.1,0.5-0.2,0.7-0.4c0.2-0.2,0.4-0.3,0.5-0.5c0.1-0.2,0.3-0.4,0.4-0.6h3.3c-0.3,0.7-0.6,1.3-0.9,1.8c-0.4,0.5-0.8,0.9-1.3,1.3
		c-0.5,0.3-1.1,0.6-1.7,0.8s-1.4,0.3-2.3,0.3c-0.8,0-1.5-0.1-2.2-0.3c-0.6-0.2-1.2-0.5-1.7-1s-0.8-1-1.1-1.6
		c-0.3-0.6-0.4-1.4-0.4-2.2c0-0.9,0.2-1.9,0.5-2.7c0.3-0.9,0.7-1.7,1.3-2.3c0.6-0.7,1.2-1.2,2.1-1.6c0.8-0.4,1.7-0.6,2.7-0.6
		c0.8,0,1.6,0.1,2.3,0.3c0.7,0.2,1.3,0.5,1.7,1s0.9,1,1.1,1.6c0.3,0.6,0.4,1.4,0.4,2.3c0,0.6-0.1,1.2-0.2,1.9h-8.7
		C109.7,90,109.6,90.1,109.6,90.1z M115.4,87c-0.1-0.3-0.2-0.6-0.3-0.8c-0.2-0.2-0.4-0.4-0.7-0.6c-0.3-0.1-0.7-0.2-1.1-0.2
		c-0.5,0-0.9,0.1-1.2,0.2c-0.4,0.1-0.7,0.3-0.9,0.6c-0.3,0.2-0.5,0.5-0.7,0.8c-0.2,0.3-0.3,0.6-0.4,1h5.4
		C115.4,87.6,115.4,87.3,115.4,87z"/>
	<path d="M128.2,83.2l-0.5,2.2h-2.3l-1.2,5.9c0,0.1-0.1,0.2-0.1,0.3s0,0.2,0,0.2c0,0.2,0,0.4,0.1,0.5c0.1,0.1,0.2,0.2,0.3,0.3
		s0.2,0.1,0.4,0.1c0.1,0,0.3,0,0.4,0c0.4,0,0.8,0,1.2-0.1l-0.6,2.5c-0.3,0-0.7,0.1-1,0.1c-0.3,0-0.7,0-1,0c-0.4,0-0.8,0-1.1-0.1
		s-0.7-0.2-1-0.4c-0.3-0.2-0.5-0.4-0.7-0.7c-0.2-0.3-0.3-0.7-0.2-1.2c0-0.2,0-0.3,0-0.5c0-0.2,0.1-0.4,0.1-0.6l1.3-6.3H120l0.5-2.2
		h2.1l0.7-3.6h3.3l-0.7,3.6H128.2z"/>
	<path d="M136.6,83.2l-0.5,2.2h-2.3l-1.2,5.9c0,0.1-0.1,0.2-0.1,0.3s0,0.2,0,0.2c0,0.2,0,0.4,0.1,0.5c0.1,0.1,0.2,0.2,0.3,0.3
		s0.2,0.1,0.4,0.1c0.1,0,0.3,0,0.4,0c0.4,0,0.8,0,1.2-0.1l-0.6,2.5c-0.3,0-0.7,0.1-1,0.1c-0.3,0-0.7,0-1,0c-0.4,0-0.8,0-1.1-0.1
		s-0.7-0.2-1-0.4c-0.3-0.2-0.5-0.4-0.7-0.7c-0.2-0.3-0.3-0.7-0.2-1.2c0-0.2,0-0.3,0-0.5c0-0.2,0.1-0.4,0.1-0.6l1.3-6.3h-2.1l0.5-2.2
		h2.1l0.7-3.6h3.3l-0.7,3.6H136.6z"/>
	<path d="M139.8,90.1c0,0.1,0,0.1,0,0.2v0.3c0,0.7,0.2,1.2,0.6,1.7c0.4,0.4,1.1,0.6,2,0.6c0.3,0,0.6,0,0.9-0.1
		c0.3-0.1,0.5-0.2,0.7-0.4c0.2-0.2,0.4-0.3,0.5-0.5c0.1-0.2,0.3-0.4,0.4-0.6h3.3c-0.3,0.7-0.6,1.3-0.9,1.8s-0.8,0.9-1.3,1.3
		c-0.5,0.3-1.1,0.6-1.7,0.8s-1.4,0.3-2.3,0.3c-0.8,0-1.5-0.1-2.2-0.3c-0.6-0.2-1.2-0.5-1.7-1s-0.8-1-1.1-1.6
		c-0.3-0.6-0.4-1.4-0.4-2.2c0-0.9,0.2-1.9,0.5-2.7c0.3-0.9,0.7-1.7,1.3-2.3c0.6-0.7,1.2-1.2,2.1-1.6c0.8-0.4,1.7-0.6,2.7-0.6
		c0.8,0,1.6,0.1,2.3,0.3c0.7,0.2,1.3,0.5,1.7,1c0.5,0.4,0.9,1,1.1,1.6c0.3,0.6,0.4,1.4,0.4,2.3c0,0.6-0.1,1.2-0.2,1.9h-8.7
		C139.8,90,139.8,90.1,139.8,90.1z M145.5,87c-0.1-0.3-0.2-0.6-0.3-0.8c-0.2-0.2-0.4-0.4-0.7-0.6c-0.3-0.1-0.7-0.2-1.1-0.2
		c-0.5,0-0.9,0.1-1.2,0.2c-0.4,0.1-0.7,0.3-0.9,0.6c-0.3,0.2-0.5,0.5-0.7,0.8c-0.2,0.3-0.3,0.6-0.4,1h5.4
		C145.6,87.6,145.5,87.3,145.5,87z"/>
	<path d="M154.9,83.2l-0.5,2.1l0,0c0.4-0.8,0.9-1.4,1.7-1.9s1.5-0.6,2.4-0.6c0.3,0,0.7,0,1,0.1l-0.7,3.2c-0.2,0-0.5-0.1-0.7-0.1
		c-0.2,0-0.5-0.1-0.7-0.1c-0.6,0-1.2,0.1-1.6,0.3s-0.8,0.5-1.1,0.9s-0.5,0.8-0.7,1.2c-0.2,0.5-0.3,1-0.4,1.5l-1.1,5.2h-3.2l2.5-11.9
		H154.9z"/>
	<path d="M166.1,81.7l0.6-3h13.7l-0.6,3h-4.9l-2.8,13.3h-3.6l2.8-13.3H166.1z"/>
	<path d="M184.4,83.2l-2.5,11.9h-3.3l2.5-11.9H184.4z M181.5,81.4l0.6-2.7h3.3l-0.6,2.7H181.5z"/>
	<path d="M190.1,83.2l-0.4,1.7h0c0.5-0.7,1.1-1.2,1.8-1.5c0.7-0.3,1.5-0.5,2.4-0.5c0.7,0,1.4,0.2,1.9,0.5c0.5,0.3,0.8,0.8,1,1.6
		c0.2-0.3,0.5-0.6,0.8-0.8c0.3-0.3,0.6-0.5,1-0.7c0.4-0.2,0.7-0.3,1.1-0.4c0.4-0.1,0.8-0.1,1.2-0.1c0.5,0,0.9,0.1,1.3,0.2
		c0.4,0.1,0.8,0.3,1.2,0.6c0.3,0.2,0.6,0.6,0.8,0.9c0.2,0.4,0.3,0.8,0.3,1.3c0,0.4,0,0.7-0.1,1.1c-0.1,0.4-0.2,0.7-0.2,1.1l-1.5,7
		h-3.3l1.6-7.5c0.1-0.3,0.1-0.6,0.1-0.8c0-0.4-0.1-0.6-0.4-0.9c-0.3-0.2-0.6-0.4-1-0.4c-0.4,0-0.8,0.1-1.2,0.3
		c-0.3,0.2-0.6,0.5-0.9,0.8c-0.3,0.3-0.5,0.7-0.6,1c-0.2,0.4-0.3,0.8-0.4,1.1l-1.3,6.3h-3.3l1.6-7.5c0.1-0.3,0.1-0.6,0.1-0.8
		c0-0.4-0.1-0.6-0.4-0.9s-0.6-0.4-1-0.4c-0.4,0-0.8,0.1-1.2,0.3c-0.3,0.2-0.6,0.5-0.9,0.8c-0.3,0.3-0.5,0.7-0.6,1
		c-0.2,0.4-0.3,0.8-0.4,1.1l-1.3,6.3h-3.2l2.5-11.9H190.1z"/>
	<path d="M208.9,90.1c0,0.1,0,0.1,0,0.2v0.3c0,0.7,0.2,1.2,0.6,1.7s1.1,0.6,2,0.6c0.3,0,0.6,0,0.9-0.1c0.3-0.1,0.5-0.2,0.7-0.4
		c0.2-0.2,0.4-0.3,0.5-0.5c0.1-0.2,0.3-0.4,0.4-0.6h3.3c-0.3,0.7-0.6,1.3-0.9,1.8s-0.8,0.9-1.3,1.3s-1.1,0.6-1.7,0.8
		c-0.7,0.2-1.4,0.3-2.3,0.3c-0.8,0-1.5-0.1-2.2-0.3s-1.2-0.5-1.7-1c-0.5-0.4-0.8-1-1.1-1.6c-0.3-0.6-0.4-1.4-0.4-2.2
		c0-0.9,0.2-1.9,0.5-2.7c0.3-0.9,0.7-1.7,1.3-2.3c0.6-0.7,1.2-1.2,2.1-1.6c0.8-0.4,1.7-0.6,2.7-0.6c0.8,0,1.6,0.1,2.3,0.3
		c0.7,0.2,1.3,0.5,1.7,1s0.9,1,1.1,1.6c0.3,0.6,0.4,1.4,0.4,2.3c0,0.6-0.1,1.2-0.2,1.9H209C209,90,208.9,90.1,208.9,90.1z M214.7,87
		c-0.1-0.3-0.2-0.6-0.3-0.8c-0.2-0.2-0.4-0.4-0.7-0.6c-0.3-0.1-0.7-0.2-1.1-0.2c-0.5,0-0.9,0.1-1.2,0.2c-0.4,0.1-0.7,0.3-0.9,0.6
		c-0.3,0.2-0.5,0.5-0.7,0.8c-0.2,0.3-0.3,0.6-0.4,1h5.4C214.7,87.6,214.7,87.3,214.7,87z"/>
	<path d="M233.8,83.2l-0.5,2.2H231l-1.2,5.9c0,0.1-0.1,0.2-0.1,0.3c0,0.1,0,0.2,0,0.2c0,0.2,0,0.4,0.1,0.5c0.1,0.1,0.2,0.2,0.3,0.3
		s0.2,0.1,0.4,0.1c0.1,0,0.3,0,0.4,0c0.4,0,0.8,0,1.2-0.1l-0.5,2.5c-0.3,0-0.7,0.1-1,0.1s-0.7,0-1,0c-0.4,0-0.8,0-1.1-0.1
		c-0.4-0.1-0.7-0.2-1-0.4c-0.3-0.2-0.5-0.4-0.7-0.7c-0.2-0.3-0.3-0.7-0.2-1.2c0-0.2,0-0.3,0-0.5c0-0.2,0.1-0.4,0.1-0.6l1.3-6.3h-2.1
		l0.5-2.2h2.1l0.7-3.6h3.3l-0.7,3.6H233.8z"/>
	<path d="M234.3,87.4c0.3-0.9,0.8-1.7,1.4-2.3c0.6-0.7,1.3-1.2,2.1-1.6c0.8-0.4,1.8-0.6,2.8-0.6c0.8,0,1.6,0.1,2.2,0.3
		c0.7,0.2,1.3,0.5,1.8,0.9c0.5,0.4,0.9,0.9,1.1,1.6c0.3,0.6,0.4,1.4,0.4,2.2c0,1-0.2,2-0.5,2.9c-0.3,0.9-0.8,1.7-1.4,2.4
		c-0.6,0.7-1.3,1.2-2.2,1.6c-0.8,0.4-1.8,0.6-2.9,0.6c-1.7,0-3-0.4-4-1.3c-1-0.8-1.5-2.1-1.5-3.8C233.8,89.3,234,88.3,234.3,87.4z
		 M237.2,91.3c0.1,0.3,0.2,0.6,0.4,0.8c0.2,0.2,0.4,0.4,0.7,0.6c0.3,0.1,0.6,0.2,1,0.2c0.6,0,1.1-0.2,1.6-0.5s0.8-0.7,1.1-1.2
		c0.3-0.5,0.5-1,0.6-1.6c0.1-0.6,0.2-1.1,0.2-1.6c0-0.8-0.2-1.4-0.5-1.9c-0.4-0.5-1-0.7-1.8-0.7c-0.6,0-1.1,0.2-1.5,0.5
		c-0.4,0.3-0.8,0.7-1.1,1.2c-0.3,0.5-0.5,1-0.6,1.6c-0.1,0.6-0.2,1.1-0.2,1.6C237.1,90.6,237.1,91,237.2,91.3z"/>
</g>
<g>
	<path d="M54.7,104.6c0.8,0,1.6,0.1,2.2,0.2c0.7,0.1,1.2,0.3,1.7,0.6c0.5,0.3,0.8,0.7,1.1,1.2c0.2,0.5,0.4,1.1,0.4,1.9
		c0,0.5-0.1,0.9-0.2,1.3s-0.3,0.8-0.6,1.2c-0.3,0.3-0.6,0.6-1,0.9c-0.4,0.2-0.8,0.4-1.3,0.4v0c0.8,0.2,1.4,0.6,1.8,1.2
		c0.4,0.6,0.6,1.3,0.6,2.1c0,0.9-0.2,1.7-0.5,2.3c-0.3,0.7-0.8,1.2-1.4,1.7c-0.6,0.4-1.2,0.8-2,1c-0.7,0.2-1.5,0.3-2.4,0.3h-8.7
		l3.4-16.4H54.7z M53,118.2c0.8,0,1.5-0.2,2-0.7c0.5-0.4,0.8-1.1,0.8-2c0-0.4-0.1-0.8-0.3-1c-0.2-0.2-0.4-0.4-0.7-0.6
		c-0.3-0.1-0.6-0.2-0.9-0.2c-0.3,0-0.7,0-1,0h-3.5l-1,4.5H53z M54,111.2c0.7,0,1.2-0.2,1.7-0.5s0.7-0.9,0.7-1.6
		c0-0.6-0.2-1.1-0.5-1.3c-0.3-0.2-0.8-0.4-1.4-0.4h-3.8l-0.8,3.8H54z"/>
	<path d="M68.9,121l0.4-1.7h0c-1.1,1.3-2.4,1.9-4.1,1.9c-2.3,0-3.5-1.1-3.5-3.2c0-0.1,0-0.3,0-0.5c0-0.2,0.1-0.4,0.1-0.6
		c0-0.2,0.1-0.4,0.1-0.6c0-0.2,0.1-0.3,0.1-0.4l1.5-6.9h3.3l-1.4,6.9c0,0.1-0.1,0.2-0.1,0.3c0,0.1,0,0.3-0.1,0.4c0,0.1,0,0.3,0,0.4
		c0,0.1,0,0.2,0,0.3c0,0.4,0.2,0.6,0.5,0.9c0.3,0.2,0.7,0.3,1.1,0.3c0.5,0,0.9-0.1,1.3-0.3c0.4-0.2,0.7-0.4,1-0.7
		c0.3-0.3,0.5-0.7,0.7-1.1c0.2-0.4,0.3-0.8,0.4-1.2l1.3-6.3h3.3L72,121H68.9z"/>
	<path d="M79.1,123.9c-0.3,0.3-0.6,0.6-1,0.8c-0.4,0.2-0.8,0.3-1.2,0.4s-1,0.1-1.6,0.1c-0.3,0-0.6,0-0.8,0c-0.3,0-0.6-0.1-0.9-0.1
		l0.6-2.7c0.2,0,0.4,0,0.7,0.1s0.4,0.1,0.7,0.1c0.4,0,0.7-0.1,0.9-0.2c0.2-0.1,0.4-0.3,0.6-0.4c0.1-0.2,0.3-0.3,0.4-0.5
		c0.1-0.2,0.2-0.3,0.3-0.5l-2.1-11.7h3.3l1,8.5h0l4.1-8.5h3.4L80,122.6C79.7,123.1,79.4,123.5,79.1,123.9z"/>
	<path d="M100.3,104.6l-2.8,13.3h7.9l-0.6,3H93.3l3.4-16.4H100.3z"/>
	<path d="M112,109.1l-2.5,11.9h-3.3l2.5-11.9H112z M109.1,107.3l0.6-2.7h3.3l-0.6,2.7H109.1z"/>
	<path d="M112.9,111.3l0.5-2.2h1.9c0.2-0.8,0.3-1.4,0.5-2s0.4-1.1,0.8-1.5c0.3-0.4,0.7-0.7,1.3-0.9c0.5-0.2,1.2-0.3,2.1-0.3
		c0.4,0,0.7,0,1.1,0s0.7,0.1,1.1,0.1l-0.5,2.3c-0.2,0-0.3,0-0.5,0c-0.2,0-0.4,0-0.5,0c-0.4,0-0.7,0-0.9,0.1
		c-0.2,0.1-0.4,0.2-0.5,0.4c-0.1,0.2-0.2,0.4-0.3,0.7s-0.1,0.6-0.2,0.9h2.3l-0.5,2.2h-2.3l-2,9.7h-3.3l2-9.7H112.9z"/>
	<path d="M123.9,116c0,0.1,0,0.1,0,0.2v0.3c0,0.7,0.2,1.2,0.6,1.7c0.4,0.4,1.1,0.6,2,0.6c0.3,0,0.6,0,0.9-0.1
		c0.3-0.1,0.5-0.2,0.7-0.4c0.2-0.2,0.4-0.3,0.5-0.5c0.1-0.2,0.3-0.4,0.4-0.6h3.3c-0.3,0.7-0.6,1.3-0.9,1.8c-0.4,0.5-0.8,0.9-1.3,1.3
		c-0.5,0.3-1.1,0.6-1.7,0.8s-1.4,0.3-2.3,0.3c-0.8,0-1.5-0.1-2.2-0.3c-0.6-0.2-1.2-0.5-1.7-1s-0.8-1-1.1-1.6
		c-0.3-0.6-0.4-1.4-0.4-2.2c0-0.9,0.2-1.9,0.5-2.7c0.3-0.9,0.7-1.7,1.3-2.3c0.6-0.7,1.2-1.2,2.1-1.6c0.8-0.4,1.7-0.6,2.7-0.6
		c0.8,0,1.6,0.1,2.3,0.3c0.7,0.2,1.3,0.5,1.7,1s0.9,1,1.1,1.6c0.3,0.6,0.4,1.4,0.4,2.3c0,0.6-0.1,1.2-0.2,1.9h-8.7
		C123.9,115.9,123.9,116,123.9,116z M129.6,112.9c-0.1-0.3-0.2-0.6-0.3-0.8c-0.2-0.2-0.4-0.4-0.7-0.6c-0.3-0.1-0.7-0.2-1.1-0.2
		c-0.5,0-0.9,0.1-1.2,0.2c-0.4,0.1-0.7,0.3-0.9,0.6c-0.3,0.2-0.5,0.5-0.7,0.8c-0.2,0.3-0.3,0.6-0.4,1h5.4
		C129.7,113.5,129.6,113.2,129.6,112.9z"/>
	<path d="M147,104.6l-3.5,16.4H140l3.4-16.4H147z"/>
	<path d="M152.1,109.1l-0.4,1.7h0c1.1-1.3,2.4-2,4.1-2c2.3,0,3.5,1.1,3.5,3.2c0,0.1,0,0.3,0,0.5s-0.1,0.4-0.1,0.6
		c0,0.2-0.1,0.4-0.1,0.6s-0.1,0.3-0.1,0.4l-1.5,6.9h-3.3l1.4-6.9c0-0.2,0.1-0.4,0.1-0.7c0.1-0.3,0.1-0.5,0.1-0.7
		c0-0.4-0.2-0.6-0.5-0.9c-0.3-0.2-0.7-0.3-1.1-0.3c-0.5,0-0.9,0.1-1.3,0.3c-0.4,0.2-0.7,0.4-1,0.7c-0.3,0.3-0.5,0.7-0.7,1.1
		c-0.2,0.4-0.3,0.8-0.4,1.2l-1.3,6.3h-3.2l2.5-11.9H152.1z"/>
	<path d="M168.5,111.4c-0.3-0.3-0.7-0.4-1.4-0.4c-0.6,0-1.1,0.1-1.4,0.3c-0.4,0.2-0.6,0.5-0.6,0.9c0,0.3,0.1,0.5,0.3,0.7
		c0.2,0.2,0.6,0.4,1.2,0.5l1.6,0.5c0.4,0.1,0.9,0.3,1.2,0.5c0.4,0.2,0.7,0.4,1,0.7c0.3,0.3,0.5,0.6,0.7,1c0.2,0.4,0.2,0.8,0.2,1.3
		c0,0.7-0.2,1.4-0.5,1.9c-0.3,0.5-0.8,0.9-1.3,1.2c-0.5,0.3-1.1,0.6-1.8,0.7c-0.7,0.1-1.4,0.2-2,0.2c-0.6,0-1.2-0.1-1.8-0.2
		c-0.6-0.1-1.1-0.3-1.6-0.6c-0.5-0.3-0.9-0.7-1.2-1.1c-0.3-0.5-0.5-1.1-0.5-1.8v-0.5h3v0.4c0,0.3,0.1,0.5,0.2,0.7
		c0.1,0.2,0.3,0.4,0.5,0.5s0.5,0.2,0.8,0.3c0.3,0.1,0.6,0.1,0.8,0.1c0.2,0,0.5,0,0.7-0.1c0.2,0,0.5-0.1,0.7-0.2
		c0.2-0.1,0.4-0.3,0.5-0.4s0.2-0.4,0.2-0.7c0-0.4-0.1-0.7-0.3-0.9c-0.2-0.2-0.5-0.3-0.8-0.4l-2.5-0.8c-0.4-0.1-0.8-0.3-1.1-0.4
		s-0.6-0.3-0.8-0.6c-0.2-0.2-0.4-0.5-0.5-0.8c-0.1-0.3-0.2-0.7-0.2-1.2c0-0.7,0.2-1.3,0.5-1.8c0.3-0.5,0.8-0.9,1.3-1.2
		s1.1-0.5,1.7-0.6c0.6-0.1,1.2-0.2,1.8-0.2c0.6,0,1.3,0.1,1.9,0.2c0.6,0.1,1.1,0.3,1.6,0.6c0.5,0.3,0.8,0.7,1.1,1.2
		c0.3,0.5,0.4,1.1,0.4,1.9h-3C168.9,112.1,168.7,111.7,168.5,111.4z"/>
	<path d="M180.6,121l0.4-1.7h0c-1.1,1.3-2.4,1.9-4.1,1.9c-2.3,0-3.5-1.1-3.5-3.2c0-0.1,0-0.3,0-0.5c0-0.2,0.1-0.4,0.1-0.6
		c0-0.2,0.1-0.4,0.1-0.6c0-0.2,0.1-0.3,0.1-0.4l1.5-6.9h3.3l-1.4,6.9c0,0.1-0.1,0.2-0.1,0.3c0,0.1,0,0.3-0.1,0.4c0,0.1,0,0.3,0,0.4
		c0,0.1,0,0.2,0,0.3c0,0.4,0.2,0.6,0.5,0.9c0.3,0.2,0.7,0.3,1.1,0.3c0.5,0,0.9-0.1,1.3-0.3c0.4-0.2,0.7-0.4,1-0.7s0.5-0.7,0.7-1.1
		c0.2-0.4,0.3-0.8,0.4-1.2l1.3-6.3h3.3l-2.5,11.9H180.6z"/>
	<path d="M192,109.1l-0.5,2.1l0,0c0.4-0.8,0.9-1.4,1.7-1.9s1.5-0.6,2.4-0.6c0.3,0,0.7,0,1,0.1L196,112c-0.2,0-0.5-0.1-0.7-0.1
		c-0.2,0-0.5-0.1-0.7-0.1c-0.6,0-1.2,0.1-1.6,0.3s-0.8,0.5-1.1,0.9s-0.5,0.8-0.7,1.2c-0.2,0.5-0.3,1-0.4,1.5l-1.1,5.2h-3.2l2.5-11.9
		H192z"/>
	<path d="M197.7,110.9c0.4-0.5,0.8-0.9,1.3-1.2s1.1-0.5,1.7-0.7s1.3-0.2,1.9-0.2c0.5,0,1.1,0,1.7,0.1c0.6,0.1,1.1,0.2,1.6,0.4
		s0.9,0.5,1.2,0.9s0.5,0.9,0.4,1.6c0,0.6-0.1,1.2-0.3,2l-1.1,4.8c-0.1,0.2-0.1,0.5-0.1,0.8c0,0.3,0,0.6,0,0.8c0,0.2,0,0.4,0.1,0.7
		H203v-1.2c-0.4,0.5-1,0.9-1.6,1.1c-0.6,0.2-1.3,0.4-2,0.4c-0.6,0-1.2-0.1-1.7-0.3s-0.9-0.4-1.2-0.7c-0.3-0.3-0.6-0.6-0.7-1
		c-0.2-0.4-0.2-0.8-0.2-1.2c0-1.1,0.4-2.1,1.2-2.8s1.9-1.1,3.3-1.3c0.8-0.1,1.4-0.2,2-0.2c0.6,0,1-0.1,1.4-0.2
		c0.4-0.1,0.7-0.2,0.8-0.4s0.3-0.5,0.3-0.9c0-0.3-0.1-0.6-0.2-0.7c-0.1-0.2-0.3-0.3-0.5-0.4s-0.4-0.2-0.7-0.2
		c-0.2,0-0.5-0.1-0.7-0.1c-0.6,0-1.1,0.1-1.6,0.4c-0.5,0.3-0.7,0.7-0.8,1.3h-3C197.1,112,197.4,111.3,197.7,110.9z M202.6,115.7
		c-0.5,0.1-0.9,0.1-1.4,0.1c-0.3,0-0.6,0.1-0.9,0.1s-0.5,0.2-0.8,0.3c-0.2,0.1-0.4,0.3-0.5,0.6c-0.1,0.2-0.2,0.5-0.2,0.9
		c0,0.4,0.2,0.8,0.5,1c0.4,0.2,0.8,0.3,1.2,0.3c0.5,0,0.9-0.1,1.3-0.2c0.3-0.2,0.6-0.4,0.9-0.6c0.2-0.3,0.4-0.5,0.6-0.9
		c0.1-0.3,0.3-0.6,0.3-1l0.3-1.1C203.5,115.5,203,115.7,202.6,115.7z"/>
	<path d="M214.1,109.1l-0.4,1.7h0c1.1-1.3,2.4-2,4.1-2c2.3,0,3.5,1.1,3.5,3.2c0,0.1,0,0.3,0,0.5s-0.1,0.4-0.1,0.6
		c0,0.2-0.1,0.4-0.1,0.6s-0.1,0.3-0.1,0.4l-1.5,6.9h-3.3l1.4-6.9c0-0.2,0.1-0.4,0.1-0.7c0.1-0.3,0.1-0.5,0.1-0.7
		c0-0.4-0.2-0.6-0.5-0.9c-0.3-0.2-0.7-0.3-1.1-0.3c-0.5,0-0.9,0.1-1.3,0.3c-0.4,0.2-0.7,0.4-1,0.7c-0.3,0.3-0.5,0.7-0.7,1.1
		c-0.2,0.4-0.3,0.8-0.4,1.2l-1.3,6.3h-3.2l2.5-11.9H214.1z"/>
	<path d="M231.3,111.7c-0.4-0.3-0.9-0.5-1.6-0.5c-0.6,0-1.1,0.2-1.6,0.5c-0.4,0.3-0.8,0.7-1,1.2s-0.4,1.1-0.6,1.6
		c-0.1,0.6-0.2,1.1-0.2,1.6c0,0.4,0,0.7,0.1,1c0.1,0.3,0.2,0.6,0.4,0.8c0.2,0.2,0.4,0.4,0.7,0.5c0.3,0.1,0.6,0.2,1,0.2
		c0.4,0,0.7-0.1,1-0.2c0.3-0.1,0.5-0.3,0.8-0.5s0.4-0.4,0.6-0.7c0.1-0.3,0.3-0.5,0.4-0.8h3.3c-0.5,1.5-1.2,2.6-2.3,3.4
		c-1,0.8-2.3,1.2-3.9,1.2c-1.7,0-3-0.4-3.9-1.2c-0.9-0.8-1.4-2.1-1.4-3.8c0-1,0.1-2,0.4-2.9c0.3-0.9,0.7-1.7,1.3-2.4
		c0.6-0.7,1.3-1.2,2.1-1.6s1.8-0.6,2.8-0.6c0.7,0,1.4,0.1,2,0.3c0.6,0.2,1.2,0.4,1.7,0.8c0.5,0.4,0.9,0.8,1.1,1.4
		c0.3,0.6,0.4,1.2,0.4,2h-3.3C231.8,112.5,231.6,112,231.3,111.7z"/>
	<path d="M238.9,116c0,0.1,0,0.1,0,0.2v0.3c0,0.7,0.2,1.2,0.6,1.7s1.1,0.6,2,0.6c0.3,0,0.6,0,0.9-0.1c0.3-0.1,0.5-0.2,0.7-0.4
		c0.2-0.2,0.4-0.3,0.5-0.5c0.1-0.2,0.3-0.4,0.4-0.6h3.3c-0.3,0.7-0.6,1.3-0.9,1.8s-0.8,0.9-1.3,1.3s-1.1,0.6-1.7,0.8
		c-0.7,0.2-1.4,0.3-2.3,0.3c-0.8,0-1.5-0.1-2.2-0.3s-1.2-0.5-1.7-1c-0.5-0.4-0.8-1-1.1-1.6c-0.3-0.6-0.4-1.4-0.4-2.2
		c0-0.9,0.2-1.9,0.5-2.7c0.3-0.9,0.7-1.7,1.3-2.3c0.6-0.7,1.2-1.2,2.1-1.6c0.8-0.4,1.7-0.6,2.7-0.6c0.8,0,1.6,0.1,2.3,0.3
		c0.7,0.2,1.3,0.5,1.7,1s0.9,1,1.1,1.6c0.3,0.6,0.4,1.4,0.4,2.3c0,0.6-0.1,1.2-0.2,1.9h-8.7C238.9,115.9,238.9,116,238.9,116z
		 M244.6,112.9c-0.1-0.3-0.2-0.6-0.3-0.8c-0.2-0.2-0.4-0.4-0.7-0.6c-0.3-0.1-0.7-0.2-1.1-0.2c-0.5,0-0.9,0.1-1.2,0.2
		c-0.4,0.1-0.7,0.3-0.9,0.6c-0.3,0.2-0.5,0.5-0.7,0.8c-0.2,0.3-0.3,0.6-0.4,1h5.4C244.7,113.5,244.7,113.2,244.6,112.9z"/>
	<path d="M253,117.4l-0.8,3.5h-3.6l0.7-3.5H253z M252.2,116.1h-1.6l0.6-7l0.9-4.4h3.5l-1,4.4L252.2,116.1z"/>
</g>
</svg>
