<?xml version="1.0" encoding="utf-8"?>
<!-- Generator: Adobe Illustrator 26.1.0, SVG Export Plug-In . SVG Version: 6.00 Build 0)  -->
<svg version="1.1" id="Layer_1" xmlns="http://www.w3.org/2000/svg" xmlns:xlink="http://www.w3.org/1999/xlink" x="0px" y="0px"
	 viewBox="0 0 300 250" style="enable-background:new 0 0 300 250;" xml:space="preserve">
<style type="text/css">
	.st0{clip-path:url(#SVGID_00000119091576881122402100000014414865472825916828_);fill:#349946;}
	.st1{fill:#FFFFFF;}
</style>
<g>
	<defs>
		<rect id="SVGID_1_" x="71.7" y="146.6" width="156.6" height="33"/>
	</defs>
	<clipPath id="SVGID_00000170268631757333477680000001344898588082781856_">
		<use xlink:href="#SVGID_1_"  style="overflow:visible;"/>
	</clipPath>
	<path style="clip-path:url(#SVGID_00000170268631757333477680000001344898588082781856_);fill:#349946;" d="M228.3,163.1
		c0,9.1-8.5,16.5-19,16.5H90.7c-10.4,0-19-7.4-19-16.5c0-9.1,8.5-16.5,19-16.5h118.7C219.8,146.6,228.3,154.1,228.3,163.1"/>
</g>
<g>
	<path class="st1" d="M102.5,158.2c0.5,0,0.9,0.1,1.3,0.2s0.7,0.4,1,0.6c0.3,0.3,0.5,0.6,0.6,0.9c0.1,0.3,0.2,0.7,0.2,1.1
		c0,0.6-0.1,1.2-0.4,1.6c-0.3,0.5-0.7,0.8-1.3,1v0c0.3,0.1,0.5,0.2,0.7,0.4c0.2,0.2,0.3,0.4,0.5,0.6c0.1,0.2,0.2,0.5,0.3,0.7
		c0.1,0.3,0.1,0.5,0.1,0.8c0,0.2,0,0.4,0,0.6c0,0.2,0,0.5,0.1,0.7c0,0.2,0.1,0.5,0.1,0.7c0.1,0.2,0.1,0.4,0.2,0.5h-2.3
		c-0.1-0.3-0.2-0.7-0.2-1.2c0-0.5-0.1-0.9-0.1-1.3c-0.1-0.5-0.2-1-0.5-1.2s-0.7-0.4-1.3-0.4h-2.3v4.1h-2.3v-10.5H102.5z M101.7,163
		c0.5,0,0.9-0.1,1.2-0.4c0.3-0.2,0.4-0.6,0.4-1.2c0-0.5-0.1-0.9-0.4-1.1c-0.3-0.2-0.7-0.3-1.2-0.3h-2.5v3H101.7z"/>
	<path class="st1" d="M115.3,158.2v1.9h-5.6v2.3h5.1v1.8h-5.1v2.6h5.7v1.9h-8v-10.5H115.3z"/>
	<path class="st1" d="M122.3,158.2l3.9,10.5h-2.4l-0.8-2.3h-3.9l-0.8,2.3h-2.3l4-10.5H122.3z M122.4,164.7l-1.3-3.9h0l-1.4,3.9
		H122.4z"/>
	<path class="st1" d="M131.7,158.2c0.7,0,1.3,0.1,1.9,0.3c0.6,0.2,1.1,0.5,1.5,1s0.8,1,1,1.6c0.2,0.6,0.4,1.4,0.4,2.3
		c0,0.8-0.1,1.5-0.3,2.1c-0.2,0.6-0.5,1.2-0.9,1.7c-0.4,0.5-0.9,0.8-1.5,1.1c-0.6,0.3-1.3,0.4-2.1,0.4h-4.5v-10.5H131.7z
		 M131.5,166.8c0.3,0,0.7-0.1,1-0.2c0.3-0.1,0.6-0.3,0.8-0.5c0.2-0.3,0.4-0.6,0.6-1s0.2-0.9,0.2-1.5c0-0.5-0.1-1-0.2-1.4
		c-0.1-0.4-0.3-0.8-0.5-1.1c-0.2-0.3-0.5-0.5-0.9-0.7c-0.4-0.2-0.9-0.2-1.4-0.2h-1.7v6.6H131.5z"/>
	<path class="st1" d="M147.4,158.2l3.9,10.5h-2.4l-0.8-2.3h-3.9l-0.8,2.3H141l4-10.5H147.4z M147.5,164.7l-1.3-3.9h0l-1.4,3.9H147.5
		z"/>
	<path class="st1" d="M157.9,158.2c0.5,0,0.9,0.1,1.3,0.2s0.7,0.4,1,0.6c0.3,0.3,0.5,0.6,0.6,0.9c0.1,0.3,0.2,0.7,0.2,1.1
		c0,0.6-0.1,1.2-0.4,1.6s-0.7,0.8-1.3,1v0c0.3,0.1,0.5,0.2,0.7,0.4c0.2,0.2,0.3,0.4,0.5,0.6c0.1,0.2,0.2,0.5,0.3,0.7
		s0.1,0.5,0.1,0.8c0,0.2,0,0.4,0,0.6c0,0.2,0,0.5,0.1,0.7c0,0.2,0.1,0.5,0.1,0.7c0.1,0.2,0.1,0.4,0.2,0.5H159
		c-0.1-0.3-0.2-0.7-0.2-1.2c0-0.5-0.1-0.9-0.1-1.3c-0.1-0.5-0.2-1-0.5-1.2s-0.7-0.4-1.3-0.4h-2.3v4.1h-2.3v-10.5H157.9z M157.1,163
		c0.5,0,0.9-0.1,1.2-0.4c0.3-0.2,0.4-0.6,0.4-1.2c0-0.5-0.1-0.9-0.4-1.1c-0.3-0.2-0.7-0.3-1.2-0.3h-2.5v3H157.1z"/>
</g>
<g>
	<path class="st1" d="M161.8,160.2v-1.9h8.6v1.9h-3.2v8.6H165v-8.6H161.8z"/>
	<path class="st1" d="M174,158.2v10.5h-2.3v-10.5H174z"/>
	<path class="st1" d="M182.8,161c-0.1-0.2-0.3-0.4-0.5-0.6c-0.2-0.2-0.4-0.3-0.7-0.4s-0.5-0.1-0.8-0.1c-0.5,0-1,0.1-1.3,0.3
		c-0.4,0.2-0.7,0.5-0.9,0.8c-0.2,0.3-0.4,0.7-0.5,1.2c-0.1,0.4-0.2,0.9-0.2,1.3c0,0.4,0.1,0.9,0.2,1.3c0.1,0.4,0.3,0.8,0.5,1.1
		c0.2,0.3,0.5,0.6,0.9,0.8c0.4,0.2,0.8,0.3,1.3,0.3c0.7,0,1.3-0.2,1.7-0.6s0.6-1,0.7-1.7h2.2c-0.1,0.7-0.2,1.3-0.5,1.8s-0.6,1-1,1.4
		c-0.4,0.4-0.9,0.7-1.4,0.9c-0.5,0.2-1.1,0.3-1.8,0.3c-0.8,0-1.5-0.1-2.2-0.4c-0.6-0.3-1.2-0.7-1.6-1.2c-0.4-0.5-0.8-1.1-1-1.7
		c-0.2-0.7-0.4-1.4-0.4-2.1c0-0.8,0.1-1.5,0.4-2.2c0.2-0.7,0.6-1.3,1-1.8c0.4-0.5,1-0.9,1.6-1.2c0.6-0.3,1.4-0.4,2.2-0.4
		c0.6,0,1.1,0.1,1.6,0.3c0.5,0.2,1,0.4,1.4,0.7c0.4,0.3,0.7,0.7,1,1.2s0.4,1,0.5,1.6H183C183,161.5,182.9,161.2,182.8,161z"/>
	<path class="st1" d="M189.2,158.2v8.6h5.1v1.9h-7.4v-10.5H189.2z"/>
	<path class="st1" d="M203.5,158.2v1.9H198v2.3h5.1v1.8H198v2.6h5.7v1.9h-8v-10.5H203.5z"/>
</g>
</svg>
