<?xml version="1.0" encoding="utf-8"?>
<!-- Generator: Adobe Illustrator 26.1.0, SVG Export Plug-In . SVG Version: 6.00 Build 0)  -->
<svg version="1.1" id="Layer_1" xmlns="http://www.w3.org/2000/svg" xmlns:xlink="http://www.w3.org/1999/xlink" x="0px" y="0px"
	 viewBox="0 0 300 250" style="enable-background:new 0 0 300 250;" xml:space="preserve">
<style type="text/css">
	.st0{fill:#349946;}
	.st1{fill:#231F20;}
	.st2{fill:none;}
</style>
<path class="st0" d="M52.3,236.8h-2.5l-0.8-2.4h-4.9l-0.8,2.4h-2.5l4.3-11.4h1.8c0.6,0,1,0.2,1.2,0.6c0.2,0.4,2.1,5.5,2.1,5.5h-2.3
	l-1.4-3.9l-1.8,4.9h5c0.7,0,1,0.2,1.2,0.8L52.3,236.8z"/>
<path class="st0" d="M73.9,236.8h-2.5l-0.8-2.4h-4.9l-0.8,2.4h-2.5l4.3-11.4h1.8c0.6,0,1,0.2,1.2,0.6c0.2,0.4,2.1,5.5,2.1,5.5h-2.3
	l-1.4-3.9l-1.8,4.9h4.9c0.7,0,1,0.2,1.2,0.8L73.9,236.8z"/>
<path class="st0" d="M53,225.3h4.5c3.5,0,5.2,1.9,5.2,5.7c0,2.1-0.7,3.7-1.9,4.7c-1.1,0.9-2.4,1-4,1H53V225.3z M57.2,234.7
	c2.2,0,3.1-1.1,3.1-3.6c0-2.5-0.9-3.7-2.8-3.7h-2.2v7.4H57.2z"/>
<g>
	<path class="st1" d="M93.3,236.7h-1.8l-0.7-8.2l-2.8,8.2h-1.5l-2.9-8.2l-0.7,8.2h-1.7l1.1-10.8h2l3,8.3l2.8-8.3h2L93.3,236.7z"/>
	<path class="st1" d="M102.1,232.6c0,0.1,0,0.2,0,0.4c0,0.1,0,0.2,0,0.3h-5.4c0,0.6,0.2,1,0.5,1.5c0.4,0.5,1,0.7,1.8,0.7
		c0.6,0,1.4-0.2,2.2-0.6l0.6,1.2c-0.8,0.6-1.8,0.9-2.9,0.9c-1.2,0-2.2-0.4-2.9-1.2c-0.7-0.7-1-1.7-1-2.9c0-1.2,0.3-2.3,1-3
		c0.7-0.8,1.6-1.2,2.7-1.2c1.1,0,1.9,0.4,2.5,1.1C101.8,230.3,102.1,231.3,102.1,232.6z M100.4,231.9c0-0.5-0.1-0.9-0.3-1.3
		c-0.3-0.5-0.8-0.8-1.4-0.8c-0.6,0-1,0.2-1.4,0.6s-0.6,0.9-0.7,1.5H100.4z"/>
	<path class="st1" d="M115.1,236.7h-1.8v-4.5c0-0.9-0.1-1.5-0.3-1.8c-0.2-0.3-0.5-0.4-1-0.4c-0.6,0-1.1,0.2-1.8,0.6
		c0.1,0.2,0.1,0.8,0.1,1.8v4.2h-1.8v-4.4c0-1-0.1-1.7-0.4-1.9c-0.2-0.2-0.5-0.3-0.9-0.3c-0.6,0-1.2,0.2-1.7,0.6v6.1h-1.8v-7.9h1.6
		v0.6c0.7-0.5,1.5-0.8,2.3-0.8c0.8,0,1.5,0.3,1.9,0.9c0.9-0.6,1.8-0.9,2.6-0.9c0.8,0,1.5,0.2,2,0.7c0.4,0.4,0.6,0.9,0.7,1.5
		c0.1,0.4,0.1,1,0.1,2V236.7z"/>
	<path class="st1" d="M124.3,232.5c0,1.3-0.4,2.3-1.1,3.1c-0.8,0.8-1.8,1.2-3,1.2c-0.9,0-1.9-0.2-3.1-0.6v-11.3h1.8v4.2
		c0.6-0.4,1.3-0.6,2-0.6c1,0,1.8,0.4,2.5,1.1C124,230.3,124.3,231.3,124.3,232.5z M122.5,232.5c0-0.8-0.2-1.4-0.6-1.9
		c-0.4-0.4-0.8-0.6-1.4-0.6c-0.6,0-1.1,0.2-1.7,0.6v4.6c0.5,0.1,0.9,0.2,1.3,0.2c0.7,0,1.3-0.3,1.7-0.8S122.5,233.4,122.5,232.5z"/>
	<path class="st1" d="M132.8,232.6c0,0.1,0,0.2,0,0.4c0,0.1,0,0.2,0,0.3h-5.4c0,0.6,0.2,1,0.5,1.5c0.4,0.5,1,0.7,1.8,0.7
		c0.6,0,1.4-0.2,2.2-0.6l0.6,1.2c-0.8,0.6-1.8,0.9-2.9,0.9c-1.2,0-2.2-0.4-2.9-1.2c-0.7-0.7-1-1.7-1-2.9c0-1.2,0.3-2.3,1-3
		c0.7-0.8,1.6-1.2,2.7-1.2c1.1,0,1.9,0.4,2.5,1.1C132.5,230.3,132.8,231.3,132.8,232.6z M131.1,231.9c0-0.5-0.1-0.9-0.3-1.3
		c-0.3-0.5-0.8-0.8-1.4-0.8c-0.6,0-1,0.2-1.4,0.6s-0.6,0.9-0.7,1.5H131.1z"/>
	<path class="st1" d="M139.5,228.7l-0.4,1.4c-0.2,0-0.3,0-0.5,0c-1,0-1.7,0.4-2.3,1.2v5.4h-1.8v-7.9h1.6v1c0.1-0.2,0.4-0.4,0.7-0.6
		c0.6-0.4,1.2-0.6,1.9-0.6C138.9,228.5,139.2,228.6,139.5,228.7z"/>
</g>
<g>
	<path class="st1" d="M146,234.4c0,0.8-0.3,1.4-0.8,1.8s-1.3,0.7-2.2,0.7c-0.7,0-1.4-0.1-2-0.4c-0.4-0.2-0.7-0.3-0.8-0.5l0.6-1.2
		c0.8,0.4,1.5,0.6,2.1,0.6c0.4,0,0.8-0.1,1-0.3c0.2-0.2,0.4-0.4,0.4-0.7c0-0.3-0.2-0.5-0.5-0.7c-0.1-0.1-0.6-0.3-1.2-0.6
		c-0.6-0.3-1.1-0.5-1.4-0.8c-0.5-0.4-0.7-0.9-0.7-1.6c0-0.7,0.3-1.3,0.8-1.7s1.2-0.6,2.1-0.6c1.1,0,2,0.2,2.6,0.7l-0.6,1.1
		c-0.6-0.4-1.2-0.5-1.8-0.5c-0.8,0-1.3,0.3-1.3,0.9c0,0.3,0.1,0.5,0.4,0.7c0.2,0.1,0.5,0.3,1,0.5c0.8,0.3,1.3,0.6,1.6,0.8
		C145.7,233.1,146,233.7,146,234.4z"/>
	<path class="st1" d="M153.8,236.7h-1.9v-10.8h1.9V236.7z"/>
	<path class="st1" d="M162.8,236.7H161v-4.3c0-1-0.1-1.7-0.4-1.9c-0.2-0.2-0.6-0.4-1-0.4c-0.6,0-1.1,0.2-1.8,0.6v6h-1.8v-7.9h1.6
		v0.6c0.7-0.5,1.5-0.8,2.4-0.8c0.8,0,1.5,0.2,2,0.7c0.4,0.4,0.6,0.8,0.7,1.4c0.1,0.3,0.1,0.9,0.1,1.6V236.7z"/>
	<path class="st1" d="M170.1,234.4c0,0.8-0.3,1.4-0.8,1.8s-1.3,0.7-2.2,0.7c-0.7,0-1.4-0.1-2-0.4c-0.4-0.2-0.7-0.3-0.8-0.5l0.6-1.2
		c0.8,0.4,1.5,0.6,2.1,0.6c0.4,0,0.8-0.1,1-0.3c0.2-0.2,0.4-0.4,0.4-0.7c0-0.3-0.2-0.5-0.5-0.7c-0.1-0.1-0.6-0.3-1.2-0.6
		c-0.6-0.3-1.1-0.5-1.4-0.8c-0.5-0.4-0.7-0.9-0.7-1.6c0-0.7,0.3-1.3,0.8-1.7c0.5-0.4,1.2-0.6,2.1-0.6c1.1,0,2,0.2,2.6,0.7l-0.6,1.1
		c-0.6-0.4-1.2-0.5-1.8-0.5c-0.8,0-1.3,0.3-1.3,0.9c0,0.3,0.1,0.5,0.4,0.7c0.2,0.1,0.5,0.3,1,0.5c0.8,0.3,1.3,0.6,1.6,0.8
		C169.8,233.1,170.1,233.7,170.1,234.4z"/>
	<path class="st1" d="M178.5,236.7h-1.6v-0.6c-0.7,0.5-1.5,0.8-2.4,0.8c-0.8,0-1.5-0.2-2-0.7c-0.4-0.4-0.6-0.8-0.7-1.4
		c-0.1-0.3-0.1-0.9-0.1-1.6v-4.4h1.8v4.3c0,0.5,0,0.9,0,1.1c0.1,0.4,0.2,0.8,0.4,0.9s0.5,0.3,0.9,0.3c0.5,0,1-0.2,1.7-0.6v-6h1.8
		V236.7z"/>
	<path class="st1" d="M185.6,228.7l-0.4,1.4c-0.2,0-0.3,0-0.5,0c-1,0-1.7,0.4-2.3,1.2v5.4h-1.8v-7.9h1.6v1c0.1-0.2,0.4-0.4,0.7-0.6
		c0.6-0.4,1.2-0.6,1.9-0.6C185,228.5,185.3,228.6,185.6,228.7z"/>
</g>
<g>
	<path class="st1" d="M192.6,236.7H191v-0.6c-0.8,0.5-1.6,0.7-2.3,0.7c-0.8,0-1.4-0.2-1.8-0.7s-0.7-1.1-0.7-1.8
		c0-1.8,1.5-2.8,4.5-2.8h0.3v-0.3c0-0.5-0.1-0.8-0.3-1c-0.2-0.2-0.7-0.4-1.3-0.4c-0.7,0-1.4,0.2-2.1,0.6l-0.6-1.2
		c0.2-0.2,0.5-0.3,0.8-0.5c0.6-0.3,1.3-0.4,2.1-0.4c1.1,0,1.9,0.3,2.5,0.8c0.3,0.3,0.5,0.6,0.5,1.1c0.1,0.3,0.1,0.7,0.1,1.4V236.7z
		 M190.9,234.9v-2.1h-0.4c-1.2,0-2.1,0.2-2.5,0.6c-0.2,0.2-0.3,0.5-0.3,0.8c0,0.4,0.1,0.7,0.4,0.9c0.3,0.2,0.6,0.3,1,0.3
		C189.6,235.4,190.2,235.3,190.9,234.9z"/>
	<path class="st1" d="M201.2,236.7h-1.8v-4.3c0-1-0.1-1.7-0.4-1.9c-0.2-0.2-0.6-0.4-1-0.4c-0.6,0-1.1,0.2-1.8,0.6v6h-1.8v-7.9h1.6
		v0.6c0.7-0.5,1.5-0.8,2.4-0.8c0.8,0,1.5,0.2,2,0.7c0.4,0.4,0.6,0.8,0.7,1.4c0.1,0.3,0.1,0.9,0.1,1.6V236.7z"/>
	<path class="st1" d="M209.7,235.9c-0.1,0.1-0.4,0.3-0.8,0.5c-0.7,0.3-1.4,0.4-2.1,0.4c-1.2,0-2.1-0.4-2.9-1.1
		c-0.7-0.8-1.1-1.7-1.1-2.9c0-1.2,0.4-2.3,1.2-3.1c0.8-0.8,1.8-1.2,3-1.2c0.7,0,1.3,0.1,1.9,0.4c0.4,0.2,0.6,0.4,0.8,0.5l-0.7,1.1
		c-0.6-0.4-1.1-0.6-1.8-0.6c-0.7,0-1.3,0.3-1.8,0.8c-0.4,0.5-0.6,1.1-0.6,1.8c0,0.8,0.2,1.4,0.6,1.9c0.4,0.5,1,0.7,1.7,0.7
		c0.6,0,1.3-0.2,2-0.6L209.7,235.9z"/>
</g>
<g>
	<path class="st1" d="M217.6,232.6c0,0.1,0,0.2,0,0.4c0,0.1,0,0.2,0,0.3h-5.4c0,0.6,0.2,1,0.5,1.5c0.4,0.5,1,0.7,1.8,0.7
		c0.6,0,1.4-0.2,2.2-0.6l0.6,1.2c-0.8,0.6-1.8,0.9-2.9,0.9c-1.2,0-2.2-0.4-2.9-1.2c-0.7-0.7-1-1.7-1-2.9c0-1.2,0.3-2.3,1-3
		c0.7-0.8,1.6-1.2,2.7-1.2c1.1,0,1.9,0.4,2.5,1.1C217.3,230.3,217.6,231.3,217.6,232.6z M216,231.9c0-0.5-0.1-0.9-0.3-1.3
		c-0.3-0.5-0.8-0.8-1.4-0.8c-0.6,0-1,0.2-1.4,0.6s-0.6,0.9-0.7,1.5H216z"/>
	<path class="st1" d="M230.7,229.1c0,1-0.3,1.8-0.9,2.4c-0.5,0.5-1,0.8-1.7,0.9c-0.4,0.1-1.1,0.1-2,0.1h-0.8v4.1h-1.8v-10.8h2.9
		c0.9,0,1.5,0,2,0.1c0.6,0.1,1.1,0.4,1.5,0.8C230.4,227.4,230.7,228.1,230.7,229.1z M228.8,229.1c0-0.6-0.2-1-0.5-1.4
		c-0.3-0.3-1-0.4-2-0.4h-1v3.7h0.8c1.2,0,1.9-0.2,2.3-0.5S228.8,229.7,228.8,229.1z"/>
	<path class="st1" d="M234.3,236.7h-1.8v-11.7h1.8V236.7z"/>
	<path class="st1" d="M242.5,236.7h-1.6v-0.6c-0.8,0.5-1.6,0.7-2.3,0.7c-0.8,0-1.4-0.2-1.8-0.7s-0.7-1.1-0.7-1.8
		c0-1.8,1.5-2.8,4.5-2.8h0.3v-0.3c0-0.5-0.1-0.8-0.3-1c-0.2-0.2-0.7-0.4-1.3-0.4c-0.7,0-1.4,0.2-2.1,0.6l-0.6-1.2
		c0.2-0.2,0.5-0.3,0.8-0.5c0.6-0.3,1.3-0.4,2.1-0.4c1.1,0,1.9,0.3,2.5,0.8c0.3,0.3,0.5,0.6,0.5,1.1c0.1,0.3,0.1,0.7,0.1,1.4V236.7z
		 M240.8,234.9v-2.1h-0.4c-1.2,0-2.1,0.2-2.5,0.6c-0.2,0.2-0.3,0.5-0.3,0.8c0,0.4,0.1,0.7,0.4,0.9c0.3,0.2,0.6,0.3,1,0.3
		C239.5,235.4,240.1,235.3,240.8,234.9z"/>
	<path class="st1" d="M251.1,236.7h-1.8v-4.3c0-1-0.1-1.7-0.4-1.9c-0.2-0.2-0.6-0.4-1-0.4c-0.6,0-1.1,0.2-1.8,0.6v6h-1.8v-7.9h1.6
		v0.6c0.7-0.5,1.5-0.8,2.4-0.8c0.8,0,1.5,0.2,2,0.7c0.4,0.4,0.6,0.8,0.7,1.4c0.1,0.3,0.1,0.9,0.1,1.6V236.7z"/>
	<path class="st1" d="M258.4,234.4c0,0.8-0.3,1.4-0.8,1.8s-1.3,0.7-2.2,0.7c-0.7,0-1.4-0.1-2-0.4c-0.4-0.2-0.7-0.3-0.8-0.5l0.6-1.2
		c0.8,0.4,1.5,0.6,2.1,0.6c0.4,0,0.8-0.1,1-0.3c0.2-0.2,0.4-0.4,0.4-0.7c0-0.3-0.2-0.5-0.5-0.7c-0.1-0.1-0.6-0.3-1.2-0.6
		c-0.6-0.3-1.1-0.5-1.4-0.8c-0.5-0.4-0.7-0.9-0.7-1.6c0-0.7,0.3-1.3,0.8-1.7c0.5-0.4,1.2-0.6,2.1-0.6c1.1,0,2,0.2,2.6,0.7l-0.6,1.1
		c-0.6-0.4-1.2-0.5-1.8-0.5c-0.8,0-1.3,0.3-1.3,0.9c0,0.3,0.1,0.5,0.4,0.7c0.2,0.1,0.5,0.3,1,0.5c0.8,0.3,1.3,0.6,1.6,0.8
		C258.2,233.1,258.4,233.7,258.4,234.4z"/>
</g>
<path class="st0" d="M75.5,236.8c-0.8,0-1.4-0.6-1.4-1.4c0-0.8,0.6-1.4,1.4-1.4c0.8,0,1.4,0.6,1.4,1.4
	C76.9,236.2,76.3,236.8,75.5,236.8 M75.5,234.4c-0.6,0-1,0.4-1,1s0.5,1,1,1c0.6,0,1-0.4,1-1S76.1,234.4,75.5,234.4 M75.8,236.1
	l-0.2-0.4c-0.1-0.2-0.1-0.2-0.3-0.2h0v0.6H75v-1.4h0.4c0.2,0,0.3,0,0.5,0.1c0.1,0.1,0.1,0.2,0.1,0.3c0,0.1-0.1,0.3-0.2,0.3
	c0.1,0,0.1,0.1,0.1,0.2l0.2,0.5H75.8z M75.6,235c-0.1,0-0.1,0-0.2,0h-0.1v0.3c0.1,0,0.2,0,0.3,0c0.1,0,0.2-0.1,0.2-0.2
	C75.7,235.1,75.7,235,75.6,235"/>
<rect x="40.8" y="223.1" class="st2" width="218" height="18.6"/>
</svg>
