<?xml version="1.0" encoding="utf-8"?>
<!-- Generator: Adobe Illustrator 26.1.0, SVG Export Plug-In . SVG Version: 6.00 Build 0)  -->
<svg version="1.1" id="Layer_1" xmlns="http://www.w3.org/2000/svg" xmlns:xlink="http://www.w3.org/1999/xlink" x="0px" y="0px"
	 viewBox="0 0 300 250" style="enable-background:new 0 0 300 250;" xml:space="preserve">
<style type="text/css">
	.st0{clip-path:url(#SVGID_00000003092686887563898770000005112579094643813044_);fill:#231F20;}
	.st1{clip-path:url(#SVGID_00000003092686887563898770000005112579094643813044_);fill:#00B2EE;}
</style>
<g>
	<defs>
		<rect id="SVGID_1_" x="113.5" y="189.9" width="73" height="24.8"/>
	</defs>
	<clipPath id="SVGID_00000020359612242507231940000001998850269291355795_">
		<use xlink:href="#SVGID_1_"  style="overflow:visible;"/>
	</clipPath>
	<path style="clip-path:url(#SVGID_00000020359612242507231940000001998850269291355795_);fill:#231F20;" d="M114,203.2h3.9
		c3.1,0,3.7,2,3.7,3.4c0,1.3-0.6,3.4-3.7,3.3h-2v4.2H114V203.2z M115.9,208.4h1.9c0.9,0,1.9-0.4,1.9-1.8c0-1.4-0.9-1.8-1.9-1.8h-1.9
		V208.4z"/>
	<path style="clip-path:url(#SVGID_00000020359612242507231940000001998850269291355795_);fill:#231F20;" d="M122.7,206.2h1.6v1.5h0
		c0.2-0.8,1.2-1.7,2.3-1.7c0.4,0,0.5,0,0.7,0v1.7c-0.2,0-0.5-0.1-0.7-0.1c-1.2,0-2.1,1-2.1,2.7v3.8h-1.7V206.2z"/>
	<path style="clip-path:url(#SVGID_00000020359612242507231940000001998850269291355795_);fill:#231F20;" d="M127.6,210.2
		c0-2.4,1.4-4.1,4-4.1c2.5,0,4,1.7,4,4.1c0,2.4-1.4,4.2-4,4.2C129,214.3,127.6,212.6,127.6,210.2 M133.8,210.2
		c0-1.4-0.7-2.8-2.2-2.8c-1.6,0-2.2,1.4-2.2,2.8c0,1.4,0.7,2.8,2.2,2.8C133.1,213,133.8,211.5,133.8,210.2"/>
	<path style="clip-path:url(#SVGID_00000020359612242507231940000001998850269291355795_);fill:#231F20;" d="M135.8,206.2h1.4v-2.4
		h1.7v2.4h1.6v1.3h-1.6v4.2c0,0.7,0.1,1.1,0.8,1.1c0.2,0,0.5,0,0.7-0.1v1.3c-0.4,0-0.7,0.1-1.1,0.1c-1.8,0-2.1-0.7-2.2-2v-4.7h-1.3
		V206.2z"/>
	<path style="clip-path:url(#SVGID_00000020359612242507231940000001998850269291355795_);fill:#231F20;" d="M142.9,210.6
		c0,1.2,0.7,2.3,2.1,2.3c1,0,1.6-0.4,1.9-1.3h1.6c-0.4,1.7-1.8,2.7-3.6,2.7c-2.5,0-3.9-1.7-3.9-4.1c0-2.2,1.5-4.2,3.8-4.2
		c2.5,0,4,2.2,3.7,4.6H142.9z M147,209.5c-0.1-1.1-0.8-2.1-2-2.1c-1.2,0-2,0.9-2.1,2.1H147z"/>
	<path style="clip-path:url(#SVGID_00000020359612242507231940000001998850269291355795_);fill:#231F20;" d="M155.3,208.9
		c-0.1-1-0.8-1.5-1.8-1.5c-0.9,0-2.2,0.5-2.2,2.9c0,1.3,0.6,2.7,2.1,2.7c1,0,1.7-0.7,1.9-1.8h1.7c-0.3,2-1.6,3.2-3.6,3.2
		c-2.5,0-3.8-1.8-3.8-4.1c0-2.4,1.3-4.2,3.9-4.2c1.8,0,3.4,0.9,3.6,2.9H155.3z"/>
	<path style="clip-path:url(#SVGID_00000020359612242507231940000001998850269291355795_);fill:#231F20;" d="M157.5,206.2h1.3v-2.4
		h1.7v2.4h1.6v1.3h-1.6v4.2c0,0.7,0.1,1.1,0.8,1.1c0.2,0,0.5,0,0.7-0.1v1.3c-0.4,0-0.7,0.1-1.1,0.1c-1.8,0-2.2-0.7-2.2-2v-4.7h-1.3
		V206.2z"/>
	<path style="clip-path:url(#SVGID_00000020359612242507231940000001998850269291355795_);fill:#231F20;" d="M164.1,203.2h1.7v1.6
		h-1.7V203.2z M164.1,206.2h1.7v7.9h-1.7V206.2z"/>
	<polygon style="clip-path:url(#SVGID_00000020359612242507231940000001998850269291355795_);fill:#231F20;" points="167.1,206.2 
		169,206.2 171.4,212.3 171.5,212.3 173.8,206.2 175.6,206.2 172.4,214.1 170.4,214.1 	"/>
	<path style="clip-path:url(#SVGID_00000020359612242507231940000001998850269291355795_);fill:#231F20;" d="M177.8,210.6
		c0,1.2,0.7,2.3,2.1,2.3c1,0,1.6-0.4,1.9-1.3h1.6c-0.4,1.7-1.8,2.7-3.6,2.7c-2.5,0-3.9-1.7-3.9-4.1c0-2.2,1.5-4.2,3.8-4.2
		c2.5,0,4,2.2,3.7,4.6H177.8z M181.9,209.5c-0.1-1.1-0.8-2.1-2-2.1c-1.2,0-2,0.9-2.1,2.1H181.9z"/>
	<path style="clip-path:url(#SVGID_00000020359612242507231940000001998850269291355795_);fill:#00B2EE;" d="M160.8,201.4
		c-1.2-4.3-4.6-7.7-8.9-8.8c-0.4-1.3-1.6-2.3-3.1-2.3c-1.5,0-2.7,1-3.1,2.3c-4.3,1.1-7.8,4.5-8.9,8.8l-0.1,0.5h2.6l0.1-0.3
		c1-3.2,3.5-5.6,6.6-6.5c0.6,1,1.6,1.6,2.8,1.6c1.2,0,2.2-0.6,2.8-1.6c3.1,0.9,5.6,3.3,6.6,6.5l0.1,0.3h2.6L160.8,201.4z"/>
	<path style="clip-path:url(#SVGID_00000020359612242507231940000001998850269291355795_);fill:#231F20;" d="M185.4,212.8
		c0.4,0,0.8,0.3,0.8,0.8c0,0.4-0.3,0.8-0.8,0.8c-0.4,0-0.8-0.3-0.8-0.8C184.6,213.1,185,212.8,185.4,212.8 M186,213.6
		c0-0.4-0.3-0.6-0.6-0.6s-0.6,0.3-0.6,0.6c0,0.4,0.3,0.6,0.6,0.6S186,213.9,186,213.6 M185.1,213.1h0.4c0.2,0,0.3,0.1,0.3,0.3
		c0,0.2-0.1,0.2-0.2,0.3l0.3,0.4h-0.1l-0.2-0.4h-0.1v0.4h-0.1V213.1z M185.4,213.5c0.1,0,0.2,0,0.2-0.1c0-0.1-0.1-0.1-0.2-0.1h-0.2
		v0.3H185.4z"/>
</g>
</svg>
