<?xml version="1.0" encoding="utf-8"?>
<!-- Generator: Adobe Illustrator 25.4.1, SVG Export Plug-In . SVG Version: 6.00 Build 0)  -->
<svg version="1.1" id="Layer_1" xmlns="http://www.w3.org/2000/svg" xmlns:xlink="http://www.w3.org/1999/xlink" x="0px" y="0px"
	 viewBox="0 0 320 50" style="enable-background:new 0 0 320 50;" xml:space="preserve">
<style type="text/css">
	.st0{clip-path:url(#SVGID_00000027589913064748584220000001305153591203273638_);fill:#349946;}
	.st1{fill:#FFFFFF;}
</style>
<g>
	<defs>
		<rect id="SVGID_1_" x="218.3" y="5.5" width="68.6" height="14.5"/>
	</defs>
	<clipPath id="SVGID_00000179641485336487604190000000999700998408937127_">
		<use xlink:href="#SVGID_1_"  style="overflow:visible;"/>
	</clipPath>
	<path style="clip-path:url(#SVGID_00000179641485336487604190000000999700998408937127_);fill:#349946;" d="M286.9,12.8
		c0,4-3.7,7.2-8.3,7.2h-52c-4.6,0-8.3-3.3-8.3-7.2s3.7-7.2,8.3-7.2h52C283.2,5.5,286.9,8.8,286.9,12.8"/>
</g>
<g>
	<path class="st1" d="M231.8,10.6c0.2,0,0.4,0,0.6,0.1s0.3,0.2,0.4,0.3c0.1,0.1,0.2,0.3,0.3,0.4s0.1,0.3,0.1,0.5
		c0,0.3-0.1,0.5-0.2,0.7s-0.3,0.3-0.6,0.5v0c0.1,0,0.2,0.1,0.3,0.2c0.1,0.1,0.1,0.2,0.2,0.3c0.1,0.1,0.1,0.2,0.1,0.3
		c0,0.1,0,0.2,0,0.3c0,0.1,0,0.2,0,0.3c0,0.1,0,0.2,0,0.3c0,0.1,0,0.2,0.1,0.3c0,0.1,0.1,0.2,0.1,0.2h-1c-0.1-0.1-0.1-0.3-0.1-0.5
		c0-0.2,0-0.4-0.1-0.6c0-0.2-0.1-0.4-0.2-0.5c-0.1-0.1-0.3-0.2-0.5-0.2h-1v1.8h-1v-4.6H231.8z M231.4,12.7c0.2,0,0.4-0.1,0.5-0.2
		s0.2-0.3,0.2-0.5c0-0.2-0.1-0.4-0.2-0.5s-0.3-0.2-0.5-0.2h-1.1v1.3H231.4z"/>
	<path class="st1" d="M237.4,10.6v0.9H235v1h2.2v0.8H235v1.1h2.5v0.9h-3.5v-4.6H237.4z"/>
	<path class="st1" d="M240.4,10.6l1.7,4.6h-1.1l-0.3-1H239l-0.4,1h-1l1.7-4.6H240.4z M240.5,13.4l-0.6-1.7h0l-0.6,1.7H240.5z"/>
	<path class="st1" d="M244.6,10.6c0.3,0,0.6,0,0.8,0.1s0.5,0.2,0.7,0.4c0.2,0.2,0.3,0.4,0.4,0.7c0.1,0.3,0.2,0.6,0.2,1
		c0,0.3,0,0.6-0.1,0.9c-0.1,0.3-0.2,0.5-0.4,0.7c-0.2,0.2-0.4,0.4-0.7,0.5s-0.6,0.2-0.9,0.2h-2v-4.6H244.6z M244.5,14.4
		c0.1,0,0.3,0,0.4-0.1c0.1,0,0.3-0.1,0.4-0.2s0.2-0.3,0.3-0.4c0.1-0.2,0.1-0.4,0.1-0.6c0-0.2,0-0.4-0.1-0.6c0-0.2-0.1-0.3-0.2-0.5
		c-0.1-0.1-0.2-0.2-0.4-0.3c-0.2-0.1-0.4-0.1-0.6-0.1h-0.7v2.9H244.5z"/>
	<path class="st1" d="M251.4,10.6l1.7,4.6h-1.1l-0.3-1H250l-0.4,1h-1l1.7-4.6H251.4z M251.5,13.4l-0.6-1.7h0l-0.6,1.7H251.5z"/>
	<path class="st1" d="M256.1,10.6c0.2,0,0.4,0,0.6,0.1s0.3,0.2,0.4,0.3c0.1,0.1,0.2,0.3,0.3,0.4s0.1,0.3,0.1,0.5
		c0,0.3-0.1,0.5-0.2,0.7s-0.3,0.3-0.6,0.5v0c0.1,0,0.2,0.1,0.3,0.2c0.1,0.1,0.1,0.2,0.2,0.3c0.1,0.1,0.1,0.2,0.1,0.3
		c0,0.1,0,0.2,0,0.3c0,0.1,0,0.2,0,0.3c0,0.1,0,0.2,0,0.3c0,0.1,0,0.2,0.1,0.3c0,0.1,0.1,0.2,0.1,0.2h-1c-0.1-0.1-0.1-0.3-0.1-0.5
		c0-0.2,0-0.4-0.1-0.6c0-0.2-0.1-0.4-0.2-0.5c-0.1-0.1-0.3-0.2-0.5-0.2h-1v1.8h-1v-4.6H256.1z M255.7,12.7c0.2,0,0.4-0.1,0.5-0.2
		s0.2-0.3,0.2-0.5c0-0.2-0.1-0.4-0.2-0.5s-0.3-0.2-0.5-0.2h-1.1v1.3H255.7z"/>
</g>
<g>
	<path class="st1" d="M257.8,11.5v-0.9h3.8v0.9h-1.4v3.8h-1v-3.8H257.8z"/>
	<path class="st1" d="M263.1,10.6v4.6h-1v-4.6H263.1z"/>
	<path class="st1" d="M266.9,11.8c-0.1-0.1-0.1-0.2-0.2-0.3c-0.1-0.1-0.2-0.1-0.3-0.2s-0.2-0.1-0.4-0.1c-0.2,0-0.4,0-0.6,0.1
		c-0.2,0.1-0.3,0.2-0.4,0.4c-0.1,0.1-0.2,0.3-0.2,0.5c0,0.2-0.1,0.4-0.1,0.6c0,0.2,0,0.4,0.1,0.6c0,0.2,0.1,0.3,0.2,0.5
		c0.1,0.1,0.2,0.3,0.4,0.4s0.4,0.1,0.6,0.1c0.3,0,0.6-0.1,0.7-0.3c0.2-0.2,0.3-0.4,0.3-0.8h1c0,0.3-0.1,0.5-0.2,0.8
		c-0.1,0.2-0.2,0.4-0.4,0.6c-0.2,0.2-0.4,0.3-0.6,0.4s-0.5,0.1-0.8,0.1c-0.4,0-0.7-0.1-1-0.2c-0.3-0.1-0.5-0.3-0.7-0.5
		c-0.2-0.2-0.3-0.5-0.4-0.8c-0.1-0.3-0.2-0.6-0.2-0.9c0-0.3,0.1-0.7,0.2-1c0.1-0.3,0.3-0.6,0.4-0.8c0.2-0.2,0.4-0.4,0.7-0.5
		c0.3-0.1,0.6-0.2,1-0.2c0.3,0,0.5,0,0.7,0.1s0.4,0.2,0.6,0.3s0.3,0.3,0.4,0.5c0.1,0.2,0.2,0.4,0.2,0.7h-1
		C267,12,267,11.9,266.9,11.8z"/>
	<path class="st1" d="M269.8,10.6v3.8h2.2v0.9h-3.3v-4.6H269.8z"/>
	<path class="st1" d="M276.1,10.6v0.9h-2.4v1h2.2v0.8h-2.2v1.1h2.5v0.9h-3.5v-4.6H276.1z"/>
</g>
</svg>
