<?xml version="1.0" encoding="utf-8"?>
<!-- Generator: Adobe Illustrator 25.4.1, SVG Export Plug-In . SVG Version: 6.00 Build 0)  -->
<svg version="1.1" id="Layer_1" xmlns="http://www.w3.org/2000/svg" xmlns:xlink="http://www.w3.org/1999/xlink" x="0px" y="0px"
	 viewBox="0 0 320 50" style="enable-background:new 0 0 320 50;" xml:space="preserve">
<style type="text/css">
	.st0{clip-path:url(#SVGID_00000070805500666856423120000004476757371564978367_);fill:#231F20;}
	.st1{clip-path:url(#SVGID_00000070805500666856423120000004476757371564978367_);fill:#22B0E6;}
</style>
<g>
	<defs>
		<rect id="SVGID_1_" x="233.1" y="23.1" width="37.9" height="12.9"/>
	</defs>
	<clipPath id="SVGID_00000132055436503269989000000007643085041670464670_">
		<use xlink:href="#SVGID_1_"  style="overflow:visible;"/>
	</clipPath>
	<path style="clip-path:url(#SVGID_00000132055436503269989000000007643085041670464670_);fill:#231F20;" d="M233.3,30h2
		c1.6,0,1.9,1,1.9,1.7c0,0.7-0.3,1.7-1.9,1.7h-1v2.2h-1V30z M234.3,32.7h1c0.4,0,1-0.2,1-0.9c0-0.7-0.4-0.9-1-0.9h-1V32.7z"/>
	<path style="clip-path:url(#SVGID_00000132055436503269989000000007643085041670464670_);fill:#231F20;" d="M237.9,31.5h0.8v0.8h0
		c0.1-0.4,0.6-0.9,1.2-0.9c0.2,0,0.3,0,0.3,0v0.9c-0.1,0-0.3,0-0.4,0c-0.6,0-1.1,0.5-1.1,1.4v1.9h-0.9V31.5z"/>
	<path style="clip-path:url(#SVGID_00000132055436503269989000000007643085041670464670_);fill:#231F20;" d="M240.4,33.6
		c0-1.2,0.8-2.2,2.1-2.2c1.3,0,2.1,0.9,2.1,2.2c0,1.3-0.8,2.2-2.1,2.2C241.1,35.7,240.4,34.8,240.4,33.6 M243.6,33.6
		c0-0.7-0.4-1.4-1.2-1.4c-0.8,0-1.2,0.7-1.2,1.4c0,0.7,0.4,1.4,1.2,1.4C243.3,35,243.6,34.3,243.6,33.6"/>
	<path style="clip-path:url(#SVGID_00000132055436503269989000000007643085041670464670_);fill:#231F20;" d="M244.6,31.5h0.7v-1.2
		h0.9v1.2h0.8v0.7h-0.8v2.2c0,0.4,0,0.6,0.4,0.6c0.1,0,0.3,0,0.4,0v0.7c-0.2,0-0.4,0-0.6,0c-0.9,0-1.1-0.4-1.1-1v-2.4h-0.7V31.5z"/>
	<path style="clip-path:url(#SVGID_00000132055436503269989000000007643085041670464670_);fill:#231F20;" d="M248.3,33.8
		c0,0.6,0.3,1.2,1.1,1.2c0.5,0,0.8-0.2,1-0.7h0.9c-0.2,0.9-1,1.4-1.9,1.4c-1.3,0-2-0.9-2-2.2c0-1.2,0.8-2.2,2-2.2
		c1.3,0,2.1,1.2,1.9,2.4H248.3z M250.4,33.2c0-0.6-0.4-1.1-1-1.1c-0.6,0-1.1,0.5-1.1,1.1H250.4z"/>
	<path style="clip-path:url(#SVGID_00000132055436503269989000000007643085041670464670_);fill:#231F20;" d="M254.7,32.9
		c-0.1-0.5-0.4-0.8-0.9-0.8c-0.5,0-1.1,0.2-1.1,1.5c0,0.7,0.3,1.4,1.1,1.4c0.5,0,0.9-0.3,1-0.9h0.9c-0.2,1.1-0.8,1.6-1.9,1.6
		c-1.3,0-2-0.9-2-2.1c0-1.2,0.7-2.2,2-2.2c0.9,0,1.8,0.5,1.8,1.5H254.7z"/>
	<path style="clip-path:url(#SVGID_00000132055436503269989000000007643085041670464670_);fill:#231F20;" d="M255.9,31.5h0.7v-1.2
		h0.9v1.2h0.8v0.7h-0.8v2.2c0,0.4,0,0.6,0.4,0.6c0.1,0,0.3,0,0.4,0v0.7c-0.2,0-0.4,0-0.6,0c-0.9,0-1.1-0.4-1.1-1v-2.4h-0.7V31.5z"/>
	<path style="clip-path:url(#SVGID_00000132055436503269989000000007643085041670464670_);fill:#231F20;" d="M259.3,30h0.9v0.9h-0.9
		V30z M259.3,31.5h0.9v4.1h-0.9V31.5z"/>
	<polygon style="clip-path:url(#SVGID_00000132055436503269989000000007643085041670464670_);fill:#231F20;" points="260.9,31.5 
		261.8,31.5 263.1,34.7 263.1,34.7 264.3,31.5 265.3,31.5 263.6,35.6 262.6,35.6 	"/>
	<path style="clip-path:url(#SVGID_00000132055436503269989000000007643085041670464670_);fill:#231F20;" d="M266.4,33.8
		c0,0.6,0.3,1.2,1.1,1.2c0.5,0,0.8-0.2,1-0.7h0.9c-0.2,0.9-1,1.4-1.9,1.4c-1.3,0-2-0.9-2-2.2c0-1.2,0.8-2.2,2-2.2
		c1.3,0,2.1,1.2,1.9,2.4H266.4z M268.5,33.2c0-0.6-0.4-1.1-1-1.1c-0.6,0-1.1,0.5-1.1,1.1H268.5z"/>
	<path style="clip-path:url(#SVGID_00000132055436503269989000000007643085041670464670_);fill:#22B0E6;" d="M257.6,29
		c-0.6-2.2-2.4-4-4.6-4.6c-0.2-0.7-0.8-1.2-1.6-1.2c-0.8,0-1.4,0.5-1.6,1.2c-2.2,0.6-4,2.3-4.6,4.6l-0.1,0.3h1.4l0-0.1
		c0.5-1.6,1.8-2.9,3.4-3.4c0.3,0.5,0.8,0.8,1.4,0.8c0.6,0,1.2-0.3,1.4-0.8c1.6,0.5,2.9,1.7,3.4,3.4l0,0.1h1.4L257.6,29z"/>
	<path style="clip-path:url(#SVGID_00000132055436503269989000000007643085041670464670_);fill:#231F20;" d="M270.4,34.9
		c0.2,0,0.4,0.2,0.4,0.4s-0.2,0.4-0.4,0.4c-0.2,0-0.4-0.2-0.4-0.4S270.1,34.9,270.4,34.9 M270.7,35.3c0-0.2-0.1-0.3-0.3-0.3
		c-0.2,0-0.3,0.2-0.3,0.3s0.1,0.3,0.3,0.3C270.5,35.7,270.7,35.5,270.7,35.3 M270.2,35.1h0.2c0.1,0,0.2,0,0.2,0.1
		c0,0.1-0.1,0.1-0.1,0.1l0.1,0.2h-0.1l-0.1-0.2h-0.1v0.2h-0.1V35.1z M270.3,35.3c0.1,0,0.1,0,0.1-0.1c0-0.1-0.1-0.1-0.1-0.1h-0.1
		L270.3,35.3L270.3,35.3z"/>
</g>
</svg>
