<?xml version="1.0" encoding="utf-8"?>
<!-- Generator: Adobe Illustrator 25.4.6, SVG Export Plug-In . SVG Version: 6.00 Build 0)  -->
<svg version="1.1" id="Layer_1" xmlns="http://www.w3.org/2000/svg" xmlns:xlink="http://www.w3.org/1999/xlink" x="0px" y="0px"
	 viewBox="0 0 320 50" style="enable-background:new 0 0 320 50;" xml:space="preserve">
<style type="text/css">
	.st0{fill:#339933;}
	.st1{fill:#373535;}
</style>
<g>
	<path class="st0" d="M16.8,5.7l3.6,9.7h-2.2l-0.7-2.1h-3.6l-0.8,2.1H11l3.6-9.7H16.8z M16.9,11.7l-1.2-3.5h0l-1.3,3.5H16.9z"/>
	<path class="st0" d="M30.5,13.4c-0.1,0.4-0.2,0.7-0.4,1.1c-0.2,0.3-0.5,0.6-1,0.8c-0.4,0.2-1,0.3-1.7,0.3c-0.4,0-0.8-0.1-1.2-0.2
		c-0.4-0.1-0.7-0.3-1-0.5c-0.3-0.2-0.5-0.5-0.7-0.9s-0.3-0.8-0.3-1.4v-0.8h1.9v0.4c0,0.2,0,0.5,0.1,0.6s0.1,0.4,0.2,0.5
		c0.1,0.1,0.2,0.2,0.4,0.3c0.2,0.1,0.4,0.1,0.6,0.1c0.3,0,0.5,0,0.6-0.1s0.3-0.2,0.3-0.4c0.1-0.2,0.1-0.3,0.1-0.5c0-0.2,0-0.4,0-0.5
		V5.7h2.1v6.6C30.6,12.7,30.6,13,30.5,13.4z"/>
	<path class="st0" d="M32.4,8.6C32.6,8,32.9,7.4,33.3,7c0.4-0.5,0.9-0.8,1.5-1.1c0.6-0.3,1.3-0.4,2-0.4c0.7,0,1.4,0.1,2,0.4
		c0.6,0.3,1.1,0.6,1.5,1.1c0.4,0.5,0.7,1,0.9,1.6s0.3,1.3,0.3,2c0,0.7-0.1,1.4-0.3,2c-0.2,0.6-0.5,1.1-0.9,1.6
		c-0.4,0.5-0.9,0.8-1.5,1.1s-1.3,0.4-2,0.4c-0.7,0-1.4-0.1-2-0.4s-1.1-0.6-1.5-1.1c-0.4-0.5-0.7-1-0.9-1.6c-0.2-0.6-0.3-1.3-0.3-2
		C32.1,9.9,32.2,9.2,32.4,8.6z M34.3,11.8c0.1,0.4,0.2,0.7,0.5,1c0.2,0.3,0.5,0.6,0.8,0.7c0.3,0.2,0.7,0.3,1.2,0.3s0.9-0.1,1.2-0.3
		c0.3-0.2,0.6-0.4,0.8-0.7c0.2-0.3,0.4-0.7,0.5-1s0.1-0.8,0.1-1.2c0-0.4,0-0.8-0.1-1.2s-0.2-0.8-0.5-1.1C38.6,8,38.4,7.8,38,7.6
		c-0.3-0.2-0.7-0.3-1.2-0.3s-0.9,0.1-1.2,0.3C35.3,7.8,35,8,34.8,8.3c-0.2,0.3-0.4,0.7-0.5,1.1c-0.1,0.4-0.1,0.8-0.1,1.2
		C34.2,11,34.2,11.4,34.3,11.8z"/>
	<path class="st0" d="M50.1,14.7c-0.7,0.6-1.7,1-3,1c-1.3,0-2.3-0.3-3-0.9C43.3,14,43,13.1,43,11.7v-6h2.1v6c0,0.3,0,0.5,0.1,0.8
		c0,0.3,0.1,0.5,0.3,0.7c0.1,0.2,0.3,0.4,0.6,0.5s0.6,0.2,1,0.2c0.8,0,1.3-0.2,1.6-0.5c0.3-0.3,0.4-0.9,0.4-1.6v-6h2.1v6
		C51.2,13,50.8,14,50.1,14.7z"/>
	<path class="st0" d="M58.2,5.7c0.4,0,0.8,0.1,1.2,0.2c0.3,0.1,0.6,0.3,0.9,0.6c0.2,0.2,0.4,0.5,0.6,0.8c0.1,0.3,0.2,0.7,0.2,1
		c0,0.6-0.1,1.1-0.4,1.5s-0.6,0.7-1.2,0.9v0c0.3,0.1,0.5,0.2,0.6,0.3c0.2,0.1,0.3,0.3,0.4,0.5c0.1,0.2,0.2,0.4,0.2,0.7
		s0.1,0.5,0.1,0.7c0,0.2,0,0.3,0,0.5c0,0.2,0,0.4,0,0.6s0.1,0.4,0.1,0.6c0,0.2,0.1,0.4,0.2,0.5h-2.1c-0.1-0.3-0.2-0.7-0.2-1.1
		c0-0.4-0.1-0.8-0.1-1.2c-0.1-0.5-0.2-0.9-0.5-1.1s-0.6-0.4-1.1-0.4h-2.1v3.8H53V5.7H58.2z M57.5,10.1c0.5,0,0.9-0.1,1.1-0.3
		c0.2-0.2,0.4-0.6,0.4-1.1c0-0.5-0.1-0.8-0.4-1c-0.2-0.2-0.6-0.3-1.1-0.3h-2.3v2.7H57.5z"/>
	<path class="st0" d="M64.9,5.7l4,6.5h0V5.7h2v9.7h-2.1l-4-6.5h0v6.5h-2V5.7H64.9z"/>
	<path class="st0" d="M80,5.7v1.8h-5.1v2.1h4.7v1.6h-4.7v2.4h5.2v1.8h-7.3V5.7H80z"/>
	<path class="st0" d="M80.5,5.7h2.4l2.3,3.8l2.2-3.8h2.4l-3.6,5.9v3.7h-2.1v-3.8L80.5,5.7z"/>
	<path class="st0" d="M94.2,10.4c0.2-0.5,0.4-0.8,0.7-1.2c0.3-0.3,0.7-0.6,1.1-0.7s0.9-0.3,1.5-0.3c0.5,0,1,0.1,1.5,0.3
		c0.4,0.2,0.8,0.4,1.1,0.7c0.3,0.3,0.6,0.7,0.7,1.2c0.2,0.5,0.3,1,0.3,1.5c0,0.6-0.1,1.1-0.3,1.5c-0.2,0.5-0.4,0.8-0.7,1.2
		c-0.3,0.3-0.7,0.6-1.1,0.7c-0.4,0.2-0.9,0.3-1.5,0.3c-0.5,0-1-0.1-1.5-0.3s-0.8-0.4-1.1-0.7c-0.3-0.3-0.6-0.7-0.7-1.2
		c-0.2-0.5-0.3-1-0.3-1.5C93.9,11.3,94,10.8,94.2,10.4z M95.9,12.7c0.1,0.3,0.1,0.5,0.3,0.7c0.1,0.2,0.3,0.4,0.5,0.5
		c0.2,0.1,0.5,0.2,0.8,0.2s0.6-0.1,0.8-0.2c0.2-0.1,0.4-0.3,0.5-0.5c0.1-0.2,0.2-0.5,0.3-0.7c0.1-0.3,0.1-0.5,0.1-0.8s0-0.6-0.1-0.8
		c-0.1-0.3-0.1-0.5-0.3-0.7c-0.1-0.2-0.3-0.4-0.5-0.5c-0.2-0.1-0.5-0.2-0.8-0.2s-0.6,0.1-0.8,0.2c-0.2,0.1-0.4,0.3-0.5,0.5
		c-0.1,0.2-0.2,0.4-0.3,0.7c-0.1,0.3-0.1,0.5-0.1,0.8S95.9,12.5,95.9,12.7z"/>
	<path class="st0" d="M101.7,9.7V8.4h1.1V7.9c0-0.6,0.2-1.1,0.6-1.5c0.4-0.4,1-0.6,1.8-0.6c0.2,0,0.3,0,0.5,0c0.2,0,0.3,0,0.5,0v1.4
		c-0.2,0-0.5,0-0.7,0c-0.3,0-0.4,0.1-0.6,0.2c-0.1,0.1-0.2,0.3-0.2,0.6v0.4h1.3v1.3h-1.3v5.7h-1.9V9.7H101.7z"/>
	<path class="st0" d="M110.6,10.5c0-0.5,0.1-0.8,0.3-1.1c0.2-0.3,0.5-0.5,0.8-0.7c0.3-0.2,0.7-0.3,1-0.4c0.4-0.1,0.8-0.1,1.2-0.1
		c0.4,0,0.7,0,1.1,0.1c0.4,0,0.7,0.1,1,0.3c0.3,0.1,0.5,0.3,0.7,0.6c0.2,0.3,0.3,0.6,0.3,1v3.6c0,0.3,0,0.6,0.1,0.9
		c0,0.3,0.1,0.5,0.2,0.6h-1.9c0-0.1-0.1-0.2-0.1-0.3s0-0.2,0-0.3c-0.3,0.3-0.7,0.5-1.1,0.7c-0.4,0.1-0.8,0.2-1.3,0.2
		c-0.3,0-0.6,0-0.9-0.1c-0.3-0.1-0.5-0.2-0.8-0.4c-0.2-0.2-0.4-0.4-0.5-0.6c-0.1-0.3-0.2-0.6-0.2-0.9c0-0.4,0.1-0.7,0.2-1
		s0.3-0.5,0.5-0.6c0.2-0.2,0.5-0.3,0.8-0.3c0.3-0.1,0.6-0.1,0.9-0.2s0.6-0.1,0.9-0.1c0.3,0,0.5-0.1,0.7-0.1c0.2-0.1,0.4-0.1,0.5-0.2
		c0.1-0.1,0.2-0.3,0.2-0.5c0-0.2,0-0.4-0.1-0.5c-0.1-0.1-0.2-0.2-0.3-0.3c-0.1-0.1-0.2-0.1-0.4-0.1c-0.1,0-0.3,0-0.5,0
		c-0.4,0-0.7,0.1-0.9,0.2s-0.3,0.4-0.4,0.8H110.6z M115,12c-0.1,0.1-0.2,0.1-0.3,0.2c-0.1,0-0.3,0.1-0.4,0.1c-0.1,0-0.3,0-0.4,0.1
		s-0.3,0-0.5,0.1c-0.1,0-0.3,0.1-0.4,0.1c-0.1,0-0.3,0.1-0.4,0.2c-0.1,0.1-0.2,0.2-0.3,0.3c-0.1,0.1-0.1,0.3-0.1,0.4
		c0,0.2,0,0.3,0.1,0.4s0.1,0.2,0.3,0.3c0.1,0.1,0.2,0.1,0.4,0.1c0.1,0,0.3,0,0.4,0c0.4,0,0.7-0.1,0.9-0.2c0.2-0.1,0.4-0.3,0.5-0.5
		s0.2-0.4,0.2-0.5c0-0.2,0-0.3,0-0.4V12z"/>
</g>
<g>
	<path class="st0" d="M11.2,21.5v-1.8h7.9v1.8h-2.9v7.9h-2.1v-7.9H11.2z"/>
	<path class="st0" d="M22.3,19.7v3.7h3.9v-3.7h2.1v9.7h-2.1v-4.2h-3.9v4.2h-2.1v-9.7H22.3z"/>
	<path class="st0" d="M30.1,22.6c0.2-0.6,0.5-1.2,0.9-1.6c0.4-0.5,0.9-0.8,1.5-1.1c0.6-0.3,1.3-0.4,2-0.4c0.7,0,1.4,0.1,2,0.4
		c0.6,0.3,1.1,0.6,1.5,1.1c0.4,0.5,0.7,1,0.9,1.6s0.3,1.3,0.3,2c0,0.7-0.1,1.4-0.3,2s-0.5,1.1-0.9,1.6c-0.4,0.5-0.9,0.8-1.5,1.1
		s-1.3,0.4-2,0.4c-0.7,0-1.4-0.1-2-0.4s-1.1-0.6-1.5-1.1c-0.4-0.5-0.7-1-0.9-1.6s-0.3-1.3-0.3-2C29.8,23.9,29.9,23.2,30.1,22.6z
		 M32.1,25.8c0.1,0.4,0.2,0.7,0.5,1c0.2,0.3,0.5,0.6,0.8,0.7c0.3,0.2,0.7,0.3,1.2,0.3s0.9-0.1,1.2-0.3c0.3-0.2,0.6-0.4,0.8-0.7
		c0.2-0.3,0.4-0.7,0.5-1c0.1-0.4,0.1-0.8,0.1-1.2c0-0.4,0-0.8-0.1-1.2s-0.2-0.8-0.5-1.1c-0.2-0.3-0.5-0.6-0.8-0.7
		c-0.3-0.2-0.7-0.3-1.2-0.3s-0.9,0.1-1.2,0.3c-0.3,0.2-0.6,0.4-0.8,0.7c-0.2,0.3-0.4,0.7-0.5,1.1c-0.1,0.4-0.1,0.8-0.1,1.2
		C31.9,25,32,25.4,32.1,25.8z"/>
	<path class="st0" d="M47.9,28.7c-0.7,0.6-1.7,1-3,1c-1.3,0-2.3-0.3-3-0.9s-1.1-1.6-1.1-2.9v-6h2.1v6c0,0.3,0,0.5,0.1,0.8
		c0,0.3,0.1,0.5,0.3,0.7c0.1,0.2,0.3,0.4,0.6,0.5c0.3,0.1,0.6,0.2,1,0.2c0.8,0,1.3-0.2,1.6-0.5c0.3-0.3,0.4-0.9,0.4-1.6v-6h2.1v6
		C48.9,27,48.6,28,47.9,28.7z"/>
	<path class="st0" d="M52.4,27c0.1,0.2,0.3,0.4,0.5,0.5s0.4,0.2,0.7,0.3c0.3,0.1,0.5,0.1,0.8,0.1c0.2,0,0.4,0,0.6,0
		c0.2,0,0.4-0.1,0.6-0.2c0.2-0.1,0.3-0.2,0.5-0.4c0.1-0.2,0.2-0.4,0.2-0.6c0-0.3-0.1-0.5-0.2-0.6c-0.2-0.2-0.4-0.3-0.7-0.4
		c-0.3-0.1-0.6-0.2-0.9-0.3c-0.3-0.1-0.7-0.2-1-0.3c-0.4-0.1-0.7-0.2-1.1-0.3c-0.3-0.1-0.6-0.3-0.9-0.5c-0.3-0.2-0.5-0.5-0.7-0.8
		c-0.2-0.3-0.2-0.7-0.2-1.1c0-0.5,0.1-0.9,0.3-1.3c0.2-0.4,0.5-0.7,0.8-0.9c0.3-0.2,0.7-0.4,1.2-0.5c0.4-0.1,0.9-0.2,1.3-0.2
		c0.5,0,1,0.1,1.5,0.2c0.5,0.1,0.9,0.3,1.2,0.5s0.6,0.6,0.9,1s0.3,0.9,0.3,1.4h-2.1c0-0.3-0.1-0.5-0.2-0.7c-0.1-0.2-0.2-0.3-0.4-0.4
		c-0.2-0.1-0.4-0.2-0.6-0.2c-0.2,0-0.5-0.1-0.7-0.1c-0.2,0-0.3,0-0.5,0.1c-0.2,0-0.3,0.1-0.5,0.2c-0.1,0.1-0.3,0.2-0.3,0.3
		c-0.1,0.1-0.1,0.3-0.1,0.5c0,0.2,0,0.3,0.1,0.5c0.1,0.1,0.2,0.2,0.4,0.3c0.2,0.1,0.5,0.2,0.9,0.3s0.9,0.2,1.5,0.4
		c0.2,0,0.4,0.1,0.8,0.2s0.6,0.2,1,0.5c0.3,0.2,0.6,0.5,0.8,0.8c0.2,0.3,0.3,0.8,0.3,1.3c0,0.4-0.1,0.9-0.3,1.2
		c-0.2,0.4-0.4,0.7-0.8,1c-0.3,0.3-0.8,0.5-1.3,0.6s-1.1,0.2-1.7,0.2c-0.5,0-1-0.1-1.5-0.2c-0.5-0.1-0.9-0.3-1.3-0.6
		s-0.7-0.6-0.9-1.1c-0.2-0.4-0.3-0.9-0.3-1.5h2.1C52.2,26.5,52.3,26.8,52.4,27z"/>
	<path class="st0" d="M64.4,19.7l3.6,9.7h-2.2L65,27.2h-3.6l-0.8,2.1h-2.1l3.6-9.7H64.4z M64.5,25.7l-1.2-3.5h0L62,25.7H64.5z"/>
	<path class="st0" d="M70.9,19.7l4,6.5h0v-6.5h2v9.7h-2.1l-4-6.5h0v6.5h-2v-9.7H70.9z"/>
	<path class="st0" d="M83,19.7c0.6,0,1.2,0.1,1.7,0.3s1,0.5,1.4,0.9c0.4,0.4,0.7,0.9,0.9,1.5c0.2,0.6,0.3,1.3,0.3,2.1
		c0,0.7-0.1,1.4-0.3,1.9c-0.2,0.6-0.5,1.1-0.8,1.5c-0.4,0.4-0.8,0.8-1.4,1c-0.5,0.2-1.2,0.4-1.9,0.4h-4.2v-9.7H83z M82.8,27.6
		c0.3,0,0.6,0,0.9-0.1c0.3-0.1,0.5-0.3,0.8-0.5c0.2-0.2,0.4-0.5,0.5-0.9c0.1-0.4,0.2-0.8,0.2-1.4c0-0.5,0-0.9-0.1-1.3
		s-0.2-0.7-0.5-1s-0.5-0.5-0.9-0.6c-0.4-0.1-0.8-0.2-1.3-0.2h-1.5v6.1H82.8z"/>
	<path class="st0" d="M94.2,27c0.1,0.2,0.3,0.4,0.5,0.5s0.4,0.2,0.7,0.3c0.3,0.1,0.5,0.1,0.8,0.1c0.2,0,0.4,0,0.6,0
		c0.2,0,0.4-0.1,0.6-0.2c0.2-0.1,0.3-0.2,0.5-0.4c0.1-0.2,0.2-0.4,0.2-0.6c0-0.3-0.1-0.5-0.2-0.6c-0.2-0.2-0.4-0.3-0.7-0.4
		c-0.3-0.1-0.6-0.2-0.9-0.3c-0.3-0.1-0.7-0.2-1-0.3c-0.4-0.1-0.7-0.2-1.1-0.3c-0.3-0.1-0.6-0.3-0.9-0.5c-0.3-0.2-0.5-0.5-0.7-0.8
		c-0.2-0.3-0.2-0.7-0.2-1.1c0-0.5,0.1-0.9,0.3-1.3c0.2-0.4,0.5-0.7,0.8-0.9c0.3-0.2,0.7-0.4,1.2-0.5c0.4-0.1,0.9-0.2,1.3-0.2
		c0.5,0,1,0.1,1.5,0.2c0.5,0.1,0.9,0.3,1.2,0.5s0.6,0.6,0.9,1s0.3,0.9,0.3,1.4h-2.1c0-0.3-0.1-0.5-0.2-0.7c-0.1-0.2-0.2-0.3-0.4-0.4
		c-0.2-0.1-0.4-0.2-0.6-0.2c-0.2,0-0.5-0.1-0.7-0.1c-0.2,0-0.3,0-0.5,0.1c-0.2,0-0.3,0.1-0.5,0.2c-0.1,0.1-0.3,0.2-0.3,0.3
		c-0.1,0.1-0.1,0.3-0.1,0.5c0,0.2,0,0.3,0.1,0.5c0.1,0.1,0.2,0.2,0.4,0.3c0.2,0.1,0.5,0.2,0.9,0.3s0.9,0.2,1.5,0.4
		c0.2,0,0.4,0.1,0.8,0.2s0.6,0.2,1,0.5c0.3,0.2,0.6,0.5,0.8,0.8c0.2,0.3,0.3,0.8,0.3,1.3c0,0.4-0.1,0.9-0.3,1.2
		c-0.2,0.4-0.4,0.7-0.8,1c-0.3,0.3-0.8,0.5-1.3,0.6s-1.1,0.2-1.7,0.2c-0.5,0-1-0.1-1.5-0.2c-0.5-0.1-0.9-0.3-1.3-0.6
		s-0.7-0.6-0.9-1.1c-0.2-0.4-0.3-0.9-0.3-1.5H94C94,26.5,94.1,26.8,94.2,27z"/>
	<path class="st0" d="M104.4,19.7l2.3,6.6h0l2.1-6.6h3v9.7h-2v-6.8h0l-2.4,6.8h-1.6l-2.4-6.8h0v6.8h-2v-9.7H104.4z"/>
	<path class="st0" d="M115.7,19.7v9.7h-2.1v-9.7H115.7z"/>
	<path class="st0" d="M119.7,19.7v7.9h4.7v1.8h-6.8v-9.7H119.7z"/>
	<path class="st0" d="M132.8,19.7v1.8h-5.1v2.1h4.7v1.6h-4.7v2.4h5.2v1.8h-7.3v-9.7H132.8z"/>
	<path class="st0" d="M136,27c0.1,0.2,0.3,0.4,0.5,0.5s0.4,0.2,0.7,0.3c0.3,0.1,0.5,0.1,0.8,0.1c0.2,0,0.4,0,0.6,0
		c0.2,0,0.4-0.1,0.6-0.2c0.2-0.1,0.3-0.2,0.5-0.4c0.1-0.2,0.2-0.4,0.2-0.6c0-0.3-0.1-0.5-0.2-0.6c-0.2-0.2-0.4-0.3-0.7-0.4
		c-0.3-0.1-0.6-0.2-0.9-0.3c-0.3-0.1-0.7-0.2-1-0.3c-0.4-0.1-0.7-0.2-1.1-0.3c-0.3-0.1-0.6-0.3-0.9-0.5c-0.3-0.2-0.5-0.5-0.7-0.8
		c-0.2-0.3-0.2-0.7-0.2-1.1c0-0.5,0.1-0.9,0.3-1.3c0.2-0.4,0.5-0.7,0.8-0.9c0.3-0.2,0.7-0.4,1.2-0.5c0.4-0.1,0.9-0.2,1.3-0.2
		c0.5,0,1,0.1,1.5,0.2c0.5,0.1,0.9,0.3,1.2,0.5s0.6,0.6,0.9,1s0.3,0.9,0.3,1.4h-2.1c0-0.3-0.1-0.5-0.2-0.7c-0.1-0.2-0.2-0.3-0.4-0.4
		c-0.2-0.1-0.4-0.2-0.6-0.2c-0.2,0-0.5-0.1-0.7-0.1c-0.2,0-0.3,0-0.5,0.1c-0.2,0-0.3,0.1-0.5,0.2c-0.1,0.1-0.3,0.2-0.3,0.3
		c-0.1,0.1-0.1,0.3-0.1,0.5c0,0.2,0,0.3,0.1,0.5c0.1,0.1,0.2,0.2,0.4,0.3c0.2,0.1,0.5,0.2,0.9,0.3s0.9,0.2,1.5,0.4
		c0.2,0,0.4,0.1,0.8,0.2s0.6,0.2,1,0.5c0.3,0.2,0.6,0.5,0.8,0.8c0.2,0.3,0.3,0.8,0.3,1.3c0,0.4-0.1,0.9-0.3,1.2
		c-0.2,0.4-0.4,0.7-0.8,1c-0.3,0.3-0.8,0.5-1.3,0.6s-1.1,0.2-1.7,0.2c-0.5,0-1-0.1-1.5-0.2c-0.5-0.1-0.9-0.3-1.3-0.6
		s-0.7-0.6-0.9-1.1c-0.2-0.4-0.3-0.9-0.3-1.5h2.1C135.8,26.5,135.9,26.8,136,27z"/>
</g>
<g>
	<path class="st1" d="M13.7,33.4V37h0c0.2-0.4,0.6-0.6,1-0.8c0.4-0.2,0.8-0.3,1.2-0.3c0.4,0,0.7,0.1,1,0.2c0.3,0.1,0.7,0.4,0.9,0.7
		c0.3,0.3,0.5,0.7,0.7,1.1c0.2,0.5,0.3,1,0.3,1.7s-0.1,1.2-0.3,1.7c-0.2,0.5-0.4,0.8-0.7,1.1c-0.3,0.3-0.6,0.5-0.9,0.7
		c-0.3,0.1-0.7,0.2-1,0.2c-0.5,0-1-0.1-1.4-0.2c-0.4-0.2-0.7-0.4-0.9-0.8h0v0.9h-1.8v-9.7H13.7z M16.8,38.7
		c-0.1-0.3-0.2-0.5-0.3-0.7c-0.1-0.2-0.3-0.4-0.5-0.5c-0.2-0.1-0.4-0.2-0.7-0.2c-0.3,0-0.5,0.1-0.7,0.2c-0.2,0.1-0.4,0.3-0.5,0.5
		c-0.1,0.2-0.2,0.4-0.3,0.7s-0.1,0.6-0.1,0.9c0,0.3,0,0.6,0.1,0.8s0.2,0.5,0.3,0.7s0.3,0.4,0.5,0.5c0.2,0.1,0.5,0.2,0.7,0.2
		c0.3,0,0.5-0.1,0.7-0.2c0.2-0.1,0.4-0.3,0.5-0.5c0.1-0.2,0.2-0.4,0.3-0.7s0.1-0.5,0.1-0.8C16.9,39.3,16.9,39,16.8,38.7z"/>
	<path class="st1" d="M22.1,41.4c0.3,0.3,0.7,0.4,1.2,0.4c0.4,0,0.7-0.1,1-0.3c0.3-0.2,0.5-0.4,0.5-0.6h1.7
		c-0.3,0.8-0.7,1.4-1.2,1.8s-1.2,0.5-2,0.5c-0.5,0-1-0.1-1.5-0.3c-0.4-0.2-0.8-0.4-1.1-0.8s-0.5-0.7-0.7-1.2
		c-0.2-0.5-0.2-0.9-0.2-1.5c0-0.5,0.1-1,0.3-1.5c0.2-0.5,0.4-0.8,0.7-1.2c0.3-0.3,0.7-0.6,1.1-0.8s0.9-0.3,1.5-0.3
		c0.6,0,1.1,0.1,1.6,0.3c0.4,0.2,0.8,0.5,1.1,0.9c0.3,0.4,0.5,0.8,0.6,1.3c0.1,0.5,0.2,1,0.1,1.6h-5C21.6,40.7,21.8,41.1,22.1,41.4z
		 M24.2,37.7c-0.2-0.3-0.6-0.4-1-0.4c-0.3,0-0.6,0.1-0.8,0.2s-0.4,0.2-0.5,0.4c-0.1,0.2-0.2,0.3-0.3,0.5c0,0.2-0.1,0.3-0.1,0.5h3.1
		C24.6,38.4,24.5,38,24.2,37.7z"/>
	<path class="st1" d="M34.4,43.6c-0.1,0.4-0.2,0.7-0.5,1c-0.3,0.3-0.6,0.6-1.1,0.8c-0.5,0.2-1.1,0.3-1.9,0.3c-0.3,0-0.7,0-1-0.1
		c-0.4-0.1-0.7-0.2-1-0.4c-0.3-0.2-0.5-0.4-0.7-0.7c-0.2-0.3-0.3-0.6-0.3-1h1.9c0.1,0.4,0.3,0.6,0.5,0.8c0.3,0.1,0.6,0.2,0.9,0.2
		c0.5,0,0.9-0.2,1.2-0.5c0.2-0.3,0.4-0.7,0.4-1.2v-0.9h0c-0.2,0.4-0.5,0.6-0.9,0.8c-0.4,0.2-0.8,0.3-1.2,0.3c-0.5,0-1-0.1-1.4-0.3
		s-0.7-0.4-0.9-0.8c-0.2-0.3-0.4-0.7-0.5-1.1c-0.1-0.4-0.2-0.9-0.2-1.4c0-0.5,0.1-0.9,0.2-1.3c0.1-0.4,0.3-0.8,0.6-1.1
		c0.3-0.3,0.6-0.6,0.9-0.8c0.4-0.2,0.8-0.3,1.3-0.3c0.5,0,0.9,0.1,1.2,0.3c0.3,0.2,0.6,0.5,0.9,0.9h0v-0.9h1.8v6.5
		C34.5,42.9,34.5,43.2,34.4,43.6z M31.8,41.3c0.2-0.1,0.4-0.3,0.5-0.4c0.1-0.2,0.2-0.4,0.3-0.6c0.1-0.2,0.1-0.5,0.1-0.7
		c0-0.3,0-0.6-0.1-0.8c-0.1-0.3-0.1-0.5-0.3-0.7c-0.1-0.2-0.3-0.4-0.5-0.5c-0.2-0.1-0.5-0.2-0.8-0.2c-0.3,0-0.5,0.1-0.7,0.2
		c-0.2,0.1-0.4,0.3-0.5,0.4c-0.1,0.2-0.2,0.4-0.3,0.6c-0.1,0.2-0.1,0.5-0.1,0.8c0,0.3,0,0.5,0.1,0.8c0,0.2,0.1,0.5,0.3,0.7
		c0.1,0.2,0.3,0.4,0.5,0.5c0.2,0.1,0.4,0.2,0.7,0.2C31.3,41.4,31.5,41.4,31.8,41.3z"/>
	<path class="st1" d="M36.1,35v-1.6H38V35H36.1z M38,36.1v7h-1.9v-7H38z"/>
	<path class="st1" d="M41.4,36.1v1h0c0.2-0.4,0.6-0.7,0.9-0.9c0.4-0.2,0.8-0.3,1.2-0.3c0.5,0,0.9,0.1,1.3,0.2
		c0.3,0.1,0.6,0.3,0.8,0.6c0.2,0.2,0.3,0.5,0.4,0.9c0.1,0.4,0.1,0.8,0.1,1.2v4.3h-1.9v-3.9c0-0.6-0.1-1-0.3-1.3
		c-0.2-0.3-0.5-0.4-1-0.4c-0.5,0-0.9,0.2-1.1,0.5c-0.2,0.3-0.4,0.8-0.4,1.5v3.7h-1.9v-7H41.4z"/>
	<path class="st1" d="M49.2,41.4c0.1,0.1,0.2,0.3,0.3,0.4s0.3,0.2,0.5,0.2s0.4,0.1,0.5,0.1c0.1,0,0.3,0,0.4,0c0.1,0,0.3-0.1,0.4-0.1
		c0.1-0.1,0.2-0.2,0.3-0.3c0.1-0.1,0.1-0.3,0.1-0.4c0-0.3-0.2-0.5-0.6-0.6c-0.4-0.1-0.9-0.3-1.6-0.4c-0.3-0.1-0.6-0.1-0.8-0.2
		c-0.3-0.1-0.5-0.2-0.7-0.3c-0.2-0.1-0.4-0.3-0.5-0.5c-0.1-0.2-0.2-0.5-0.2-0.8c0-0.5,0.1-0.8,0.3-1.1c0.2-0.3,0.4-0.5,0.7-0.7
		c0.3-0.2,0.6-0.3,1-0.4s0.7-0.1,1.1-0.1s0.7,0,1.1,0.1s0.7,0.2,1,0.4s0.5,0.4,0.7,0.7c0.2,0.3,0.3,0.6,0.3,1.1h-1.8
		c0-0.4-0.2-0.6-0.4-0.8c-0.3-0.1-0.5-0.2-0.9-0.2c-0.1,0-0.2,0-0.4,0c-0.1,0-0.2,0-0.3,0.1s-0.2,0.1-0.3,0.2s-0.1,0.2-0.1,0.3
		c0,0.2,0.1,0.3,0.2,0.4c0.1,0.1,0.3,0.2,0.5,0.3c0.2,0.1,0.4,0.1,0.7,0.2c0.3,0.1,0.5,0.1,0.8,0.2c0.3,0.1,0.6,0.1,0.8,0.2
		s0.5,0.2,0.7,0.4c0.2,0.1,0.4,0.3,0.5,0.6c0.1,0.2,0.2,0.5,0.2,0.8c0,0.5-0.1,0.8-0.3,1.2c-0.2,0.3-0.4,0.6-0.7,0.8s-0.6,0.3-1,0.4
		c-0.4,0.1-0.8,0.1-1.2,0.1c-0.4,0-0.8,0-1.2-0.1c-0.4-0.1-0.7-0.2-1-0.4c-0.3-0.2-0.5-0.4-0.7-0.8s-0.3-0.7-0.3-1.2H49
		C49,41,49.1,41.2,49.2,41.4z"/>
	<path class="st1" d="M64.6,43.1l-1.2-4.7h0l-1.2,4.7h-2l-2.2-7h2l1.3,4.7h0l1.2-4.7h1.9l1.2,4.7h0l1.3-4.7h2l-2.2,7H64.6z"/>
	<path class="st1" d="M69.6,35v-1.6h1.9V35H69.6z M71.5,36.1v7h-1.9v-7H71.5z"/>
	<path class="st1" d="M76.9,36.1v1.3h-1.4v3.5c0,0.3,0.1,0.5,0.2,0.6c0.1,0.1,0.3,0.2,0.6,0.2c0.1,0,0.2,0,0.3,0s0.2,0,0.3,0v1.5
		c-0.2,0-0.3,0-0.5,0.1s-0.4,0-0.6,0c-0.3,0-0.6,0-0.8-0.1c-0.3,0-0.5-0.1-0.7-0.2c-0.2-0.1-0.4-0.3-0.5-0.5
		c-0.1-0.2-0.2-0.5-0.2-0.9v-4.1h-1.2v-1.3h1.2V34h1.9v2.1H76.9z"/>
	<path class="st1" d="M79.7,33.4v3.6h0c0.2-0.4,0.6-0.7,0.9-0.9s0.7-0.3,1.1-0.3c0.5,0,0.9,0.1,1.3,0.2c0.3,0.1,0.6,0.3,0.8,0.6
		c0.2,0.2,0.3,0.5,0.4,0.9c0.1,0.4,0.1,0.8,0.1,1.2v4.3h-1.9v-3.9c0-0.6-0.1-1-0.3-1.3c-0.2-0.3-0.5-0.4-1-0.4
		c-0.5,0-0.9,0.2-1.1,0.5c-0.2,0.3-0.4,0.8-0.4,1.5v3.7h-1.9v-9.7H79.7z"/>
	<path class="st1" d="M89.5,38.2c0-0.5,0.1-0.8,0.3-1.1c0.2-0.3,0.5-0.5,0.8-0.7c0.3-0.2,0.7-0.3,1-0.4c0.4-0.1,0.8-0.1,1.2-0.1
		c0.4,0,0.7,0,1.1,0.1c0.4,0,0.7,0.1,1,0.3c0.3,0.1,0.5,0.3,0.7,0.6c0.2,0.3,0.3,0.6,0.3,1v3.6c0,0.3,0,0.6,0.1,0.9
		c0,0.3,0.1,0.5,0.2,0.6h-1.9c0-0.1-0.1-0.2-0.1-0.3s0-0.2,0-0.3c-0.3,0.3-0.7,0.5-1.1,0.7s-0.8,0.2-1.3,0.2c-0.3,0-0.6,0-0.9-0.1
		c-0.3-0.1-0.5-0.2-0.8-0.4c-0.2-0.2-0.4-0.4-0.5-0.6c-0.1-0.3-0.2-0.6-0.2-0.9c0-0.4,0.1-0.7,0.2-1s0.3-0.5,0.5-0.6
		s0.5-0.3,0.8-0.3c0.3-0.1,0.6-0.1,0.9-0.2c0.3,0,0.6-0.1,0.9-0.1c0.3,0,0.5-0.1,0.7-0.1c0.2-0.1,0.4-0.1,0.5-0.2
		c0.1-0.1,0.2-0.3,0.2-0.5c0-0.2,0-0.4-0.1-0.5c-0.1-0.1-0.2-0.2-0.3-0.3c-0.1-0.1-0.2-0.1-0.4-0.1c-0.1,0-0.3,0-0.5,0
		c-0.4,0-0.7,0.1-0.9,0.2c-0.2,0.2-0.3,0.4-0.4,0.8H89.5z M93.9,39.7c-0.1,0.1-0.2,0.1-0.3,0.2c-0.1,0-0.3,0.1-0.4,0.1
		c-0.1,0-0.3,0-0.4,0.1c-0.2,0-0.3,0-0.5,0.1c-0.1,0-0.3,0.1-0.4,0.1s-0.3,0.1-0.4,0.2c-0.1,0.1-0.2,0.2-0.3,0.3s-0.1,0.3-0.1,0.4
		c0,0.2,0,0.3,0.1,0.4s0.1,0.2,0.3,0.3c0.1,0.1,0.2,0.1,0.4,0.1c0.1,0,0.3,0,0.4,0c0.4,0,0.7-0.1,0.9-0.2c0.2-0.1,0.4-0.3,0.5-0.5
		c0.1-0.2,0.2-0.4,0.2-0.5c0-0.2,0-0.3,0-0.4V39.7z"/>
	<path class="st1" d="M102.7,41.4c0.1,0.1,0.2,0.3,0.3,0.4s0.3,0.2,0.5,0.2s0.4,0.1,0.5,0.1c0.1,0,0.3,0,0.4,0
		c0.1,0,0.3-0.1,0.4-0.1c0.1-0.1,0.2-0.2,0.3-0.3c0.1-0.1,0.1-0.3,0.1-0.4c0-0.3-0.2-0.5-0.6-0.6c-0.4-0.1-0.9-0.3-1.6-0.4
		c-0.3-0.1-0.6-0.1-0.8-0.2c-0.3-0.1-0.5-0.2-0.7-0.3c-0.2-0.1-0.4-0.3-0.5-0.5c-0.1-0.2-0.2-0.5-0.2-0.8c0-0.5,0.1-0.8,0.3-1.1
		c0.2-0.3,0.4-0.5,0.7-0.7c0.3-0.2,0.6-0.3,1-0.4s0.7-0.1,1.1-0.1s0.7,0,1.1,0.1s0.7,0.2,1,0.4s0.5,0.4,0.7,0.7
		c0.2,0.3,0.3,0.6,0.3,1.1h-1.8c0-0.4-0.2-0.6-0.4-0.8c-0.3-0.1-0.5-0.2-0.9-0.2c-0.1,0-0.2,0-0.4,0c-0.1,0-0.2,0-0.3,0.1
		s-0.2,0.1-0.3,0.2s-0.1,0.2-0.1,0.3c0,0.2,0.1,0.3,0.2,0.4c0.1,0.1,0.3,0.2,0.5,0.3c0.2,0.1,0.4,0.1,0.7,0.2
		c0.3,0.1,0.5,0.1,0.8,0.2c0.3,0.1,0.6,0.1,0.8,0.2s0.5,0.2,0.7,0.4c0.2,0.1,0.4,0.3,0.5,0.6c0.1,0.2,0.2,0.5,0.2,0.8
		c0,0.5-0.1,0.8-0.3,1.2c-0.2,0.3-0.4,0.6-0.7,0.8s-0.6,0.3-1,0.4c-0.4,0.1-0.8,0.1-1.2,0.1c-0.4,0-0.8,0-1.2-0.1
		c-0.4-0.1-0.7-0.2-1-0.4c-0.3-0.2-0.5-0.4-0.7-0.8s-0.3-0.7-0.3-1.2h1.8C102.6,41,102.6,41.2,102.7,41.4z"/>
	<path class="st1" d="M108.4,35v-1.6h1.9V35H108.4z M110.3,36.1v7h-1.9v-7H110.3z"/>
	<path class="st1" d="M113.7,36.1v1h0c0.2-0.4,0.6-0.7,0.9-0.9c0.4-0.2,0.8-0.3,1.2-0.3c0.5,0,0.9,0.1,1.3,0.2
		c0.3,0.1,0.6,0.3,0.8,0.6c0.2,0.2,0.3,0.5,0.4,0.9c0.1,0.4,0.1,0.8,0.1,1.2v4.3h-1.9v-3.9c0-0.6-0.1-1-0.3-1.3
		c-0.2-0.3-0.5-0.4-1-0.4c-0.5,0-0.9,0.2-1.1,0.5c-0.2,0.3-0.4,0.8-0.4,1.5v3.7h-1.9v-7H113.7z"/>
	<path class="st1" d="M126.5,43.6c-0.1,0.4-0.2,0.7-0.5,1c-0.3,0.3-0.6,0.6-1.1,0.8c-0.5,0.2-1.1,0.3-1.9,0.3c-0.3,0-0.7,0-1-0.1
		c-0.4-0.1-0.7-0.2-1-0.4c-0.3-0.2-0.5-0.4-0.7-0.7c-0.2-0.3-0.3-0.6-0.3-1h1.9c0.1,0.4,0.3,0.6,0.5,0.8c0.3,0.1,0.6,0.2,0.9,0.2
		c0.5,0,0.9-0.2,1.2-0.5c0.2-0.3,0.4-0.7,0.4-1.2v-0.9h0c-0.2,0.4-0.5,0.6-0.9,0.8c-0.4,0.2-0.8,0.3-1.2,0.3c-0.5,0-1-0.1-1.4-0.3
		s-0.7-0.4-0.9-0.8c-0.2-0.3-0.4-0.7-0.5-1.1c-0.1-0.4-0.2-0.9-0.2-1.4c0-0.5,0.1-0.9,0.2-1.3c0.1-0.4,0.3-0.8,0.6-1.1
		c0.3-0.3,0.6-0.6,0.9-0.8c0.4-0.2,0.8-0.3,1.3-0.3c0.5,0,0.9,0.1,1.2,0.3c0.3,0.2,0.6,0.5,0.9,0.9h0v-0.9h1.8v6.5
		C126.6,42.9,126.5,43.2,126.5,43.6z M123.8,41.3c0.2-0.1,0.4-0.3,0.5-0.4c0.1-0.2,0.2-0.4,0.3-0.6c0.1-0.2,0.1-0.5,0.1-0.7
		c0-0.3,0-0.6-0.1-0.8c-0.1-0.3-0.1-0.5-0.3-0.7c-0.1-0.2-0.3-0.4-0.5-0.5c-0.2-0.1-0.5-0.2-0.8-0.2c-0.3,0-0.5,0.1-0.7,0.2
		c-0.2,0.1-0.4,0.3-0.5,0.4c-0.1,0.2-0.2,0.4-0.3,0.6c-0.1,0.2-0.1,0.5-0.1,0.8c0,0.3,0,0.5,0.1,0.8c0,0.2,0.1,0.5,0.3,0.7
		c0.1,0.2,0.3,0.4,0.5,0.5c0.2,0.1,0.4,0.2,0.7,0.2C123.4,41.4,123.6,41.4,123.8,41.3z"/>
	<path class="st1" d="M130.1,33.4v9.7h-1.9v-9.7H130.1z"/>
	<path class="st1" d="M133.7,41.4c0.3,0.3,0.7,0.4,1.2,0.4c0.4,0,0.7-0.1,1-0.3c0.3-0.2,0.5-0.4,0.5-0.6h1.7
		c-0.3,0.8-0.7,1.4-1.2,1.8s-1.2,0.5-2,0.5c-0.5,0-1-0.1-1.5-0.3c-0.4-0.2-0.8-0.4-1.1-0.8s-0.5-0.7-0.7-1.2
		c-0.2-0.5-0.2-0.9-0.2-1.5c0-0.5,0.1-1,0.3-1.5c0.2-0.5,0.4-0.8,0.7-1.2c0.3-0.3,0.7-0.6,1.1-0.8s0.9-0.3,1.5-0.3
		c0.6,0,1.1,0.1,1.6,0.3c0.4,0.2,0.8,0.5,1.1,0.9c0.3,0.4,0.5,0.8,0.6,1.3c0.1,0.5,0.2,1,0.1,1.6h-5
		C133.2,40.7,133.4,41.1,133.7,41.4z M135.8,37.7c-0.2-0.3-0.6-0.4-1-0.4c-0.3,0-0.6,0.1-0.8,0.2s-0.4,0.2-0.5,0.4
		c-0.1,0.2-0.2,0.3-0.3,0.5c0,0.2-0.1,0.3-0.1,0.5h3.1C136.2,38.4,136.1,38,135.8,37.7z"/>
	<path class="st1" d="M144.9,40.7c0.1,0.2,0.3,0.4,0.5,0.5s0.4,0.2,0.7,0.3c0.3,0.1,0.5,0.1,0.8,0.1c0.2,0,0.4,0,0.6,0
		c0.2,0,0.4-0.1,0.6-0.2c0.2-0.1,0.3-0.2,0.5-0.4c0.1-0.2,0.2-0.4,0.2-0.6c0-0.3-0.1-0.5-0.2-0.6c-0.2-0.2-0.4-0.3-0.7-0.4
		c-0.3-0.1-0.6-0.2-0.9-0.3c-0.3-0.1-0.7-0.2-1-0.3c-0.4-0.1-0.7-0.2-1.1-0.3c-0.3-0.1-0.6-0.3-0.9-0.5c-0.3-0.2-0.5-0.5-0.7-0.8
		c-0.2-0.3-0.2-0.7-0.2-1.1c0-0.5,0.1-0.9,0.3-1.3s0.5-0.7,0.8-0.9c0.3-0.2,0.7-0.4,1.2-0.5s0.9-0.2,1.3-0.2c0.5,0,1,0.1,1.5,0.2
		c0.5,0.1,0.9,0.3,1.2,0.5s0.6,0.6,0.9,1c0.2,0.4,0.3,0.9,0.3,1.4h-2.1c0-0.3-0.1-0.5-0.2-0.7s-0.2-0.3-0.4-0.4
		c-0.2-0.1-0.4-0.2-0.6-0.2s-0.5-0.1-0.7-0.1c-0.2,0-0.3,0-0.5,0.1c-0.2,0-0.3,0.1-0.5,0.2s-0.3,0.2-0.3,0.3
		c-0.1,0.1-0.1,0.3-0.1,0.5c0,0.2,0,0.3,0.1,0.5c0.1,0.1,0.2,0.2,0.4,0.3c0.2,0.1,0.5,0.2,0.9,0.3c0.4,0.1,0.9,0.2,1.5,0.4
		c0.2,0,0.4,0.1,0.8,0.2c0.3,0.1,0.6,0.2,1,0.5c0.3,0.2,0.6,0.5,0.8,0.8c0.2,0.3,0.3,0.8,0.3,1.3c0,0.4-0.1,0.9-0.3,1.2
		c-0.2,0.4-0.4,0.7-0.8,1c-0.3,0.3-0.8,0.5-1.3,0.6s-1.1,0.2-1.7,0.2c-0.5,0-1-0.1-1.5-0.2c-0.5-0.1-0.9-0.3-1.3-0.6
		s-0.7-0.6-0.9-1.1c-0.2-0.4-0.3-0.9-0.3-1.5h2.1C144.8,40.2,144.8,40.5,144.9,40.7z"/>
	<path class="st1" d="M151.3,35.2v-1.8h7.9v1.8h-2.9v7.9h-2.1v-7.9H151.3z"/>
	<path class="st1" d="M167.6,33.4v1.8h-5.1v2.1h4.7v1.6h-4.7v2.4h5.2v1.8h-7.3v-9.7H167.6z"/>
	<path class="st1" d="M173.5,33.4c0.6,0,1.1,0.1,1.5,0.3c0.4,0.2,0.8,0.4,1,0.7c0.3,0.3,0.5,0.6,0.6,1c0.1,0.4,0.2,0.8,0.2,1.1
		c0,0.4-0.1,0.8-0.2,1.1c-0.1,0.4-0.3,0.7-0.6,1c-0.3,0.3-0.6,0.5-1,0.7c-0.4,0.2-0.9,0.3-1.5,0.3h-2.2v3.5h-2.1v-9.7H173.5z
		 M172.9,38c0.2,0,0.5,0,0.7-0.1c0.2,0,0.4-0.1,0.6-0.2c0.2-0.1,0.3-0.2,0.4-0.4c0.1-0.2,0.2-0.4,0.2-0.7c0-0.3-0.1-0.6-0.2-0.7
		c-0.1-0.2-0.2-0.3-0.4-0.4c-0.2-0.1-0.4-0.2-0.6-0.2c-0.2,0-0.5-0.1-0.7-0.1h-1.6V38H172.9z"/>
</g>
</svg>
