<?xml version="1.0" encoding="utf-8"?>
<!-- Generator: Adobe Illustrator 25.4.6, SVG Export Plug-In . SVG Version: 6.00 Build 0)  -->
<svg version="1.1" id="Layer_1" xmlns="http://www.w3.org/2000/svg" xmlns:xlink="http://www.w3.org/1999/xlink" x="0px" y="0px"
	 viewBox="0 0 320 50" style="enable-background:new 0 0 320 50;" xml:space="preserve">
<style type="text/css">
	.st0{fill:#373535;}
</style>
<g>
	<path class="st0" d="M103.9,14.4v7.4h4.4v1.7h-6.4v-9H103.9z"/>
	<path class="st0" d="M109.2,15.9v-1.5h1.8v1.5H109.2z M111,16.9v6.5h-1.8v-6.5H111z"/>
	<path class="st0" d="M111.6,18.1v-1.2h1.1v-0.5c0-0.6,0.2-1.1,0.5-1.4s0.9-0.6,1.6-0.6c0.2,0,0.3,0,0.5,0s0.3,0,0.5,0v1.3
		c-0.2,0-0.4,0-0.7,0c-0.2,0-0.4,0.1-0.5,0.2c-0.1,0.1-0.2,0.3-0.2,0.6v0.4h1.2v1.2h-1.2v5.3h-1.8v-5.3H111.6z"/>
	<path class="st0" d="M118.3,21.9c0.3,0.3,0.7,0.4,1.2,0.4c0.4,0,0.7-0.1,0.9-0.3c0.3-0.2,0.4-0.4,0.5-0.6h1.6
		c-0.3,0.8-0.6,1.3-1.2,1.7c-0.5,0.3-1.2,0.5-1.9,0.5c-0.5,0-1-0.1-1.4-0.2c-0.4-0.2-0.8-0.4-1-0.7s-0.5-0.7-0.7-1.1
		c-0.2-0.4-0.2-0.9-0.2-1.4c0-0.5,0.1-0.9,0.2-1.4s0.4-0.8,0.7-1.1c0.3-0.3,0.6-0.5,1.1-0.7s0.9-0.3,1.4-0.3c0.6,0,1,0.1,1.5,0.3
		c0.4,0.2,0.8,0.5,1,0.9c0.3,0.4,0.5,0.8,0.6,1.2s0.2,0.9,0.1,1.5h-4.7C117.8,21.2,118,21.6,118.3,21.9z M120.3,18.4
		c-0.2-0.2-0.5-0.4-1-0.4c-0.3,0-0.5,0-0.7,0.1c-0.2,0.1-0.3,0.2-0.5,0.4c-0.1,0.1-0.2,0.3-0.2,0.5s-0.1,0.3-0.1,0.4h2.9
		C120.7,19,120.5,18.6,120.3,18.4z"/>
	<path class="st0" d="M125.6,21.5v1.9c0,0.3-0.1,0.5-0.2,0.8c-0.1,0.2-0.2,0.4-0.4,0.6c-0.2,0.2-0.4,0.3-0.6,0.4
		c-0.2,0.1-0.5,0.2-0.8,0.2v-0.9c0.1,0,0.2-0.1,0.4-0.2c0.1-0.1,0.2-0.2,0.3-0.3c0.1-0.1,0.1-0.2,0.2-0.4c0-0.1,0.1-0.3,0.1-0.4
		h-0.9v-1.9H125.6z"/>
	<path class="st0" d="M134.3,14.4c0.6,0,1.1,0.1,1.6,0.3c0.5,0.2,0.9,0.5,1.3,0.8c0.4,0.4,0.7,0.8,0.9,1.4c0.2,0.6,0.3,1.2,0.3,2
		c0,0.7-0.1,1.3-0.3,1.8c-0.2,0.6-0.4,1-0.8,1.4s-0.8,0.7-1.3,1c-0.5,0.2-1.1,0.3-1.8,0.3h-3.9v-9H134.3z M134.2,21.8
		c0.3,0,0.6,0,0.8-0.1s0.5-0.2,0.7-0.5c0.2-0.2,0.4-0.5,0.5-0.8c0.1-0.3,0.2-0.8,0.2-1.3c0-0.5,0-0.9-0.1-1.2
		c-0.1-0.4-0.2-0.7-0.4-0.9s-0.5-0.5-0.8-0.6c-0.3-0.1-0.7-0.2-1.2-0.2h-1.4v5.7H134.2z"/>
	<path class="st0" d="M139.6,15.9v-1.5h1.8v1.5H139.6z M141.4,16.9v6.5h-1.8v-6.5H141.4z"/>
	<path class="st0" d="M144.2,21.8c0.1,0.1,0.2,0.3,0.3,0.3s0.3,0.2,0.4,0.2c0.2,0,0.3,0.1,0.5,0.1c0.1,0,0.3,0,0.4,0
		c0.1,0,0.3-0.1,0.4-0.1c0.1-0.1,0.2-0.1,0.3-0.3s0.1-0.2,0.1-0.4c0-0.3-0.2-0.5-0.5-0.6c-0.4-0.1-0.9-0.3-1.5-0.4
		c-0.3-0.1-0.5-0.1-0.8-0.2s-0.5-0.2-0.7-0.3c-0.2-0.1-0.3-0.3-0.5-0.5c-0.1-0.2-0.2-0.4-0.2-0.7c0-0.4,0.1-0.8,0.2-1
		c0.2-0.3,0.4-0.5,0.7-0.6c0.3-0.2,0.6-0.3,0.9-0.3c0.3-0.1,0.7-0.1,1-0.1c0.4,0,0.7,0,1,0.1c0.3,0.1,0.6,0.2,0.9,0.3
		c0.3,0.2,0.5,0.4,0.7,0.6c0.2,0.3,0.3,0.6,0.3,1h-1.7c0-0.3-0.2-0.6-0.4-0.7s-0.5-0.2-0.8-0.2c-0.1,0-0.2,0-0.3,0s-0.2,0-0.3,0.1
		c-0.1,0-0.2,0.1-0.2,0.2c-0.1,0.1-0.1,0.2-0.1,0.3c0,0.2,0.1,0.3,0.2,0.4c0.1,0.1,0.3,0.2,0.5,0.2c0.2,0.1,0.4,0.1,0.7,0.2
		c0.2,0.1,0.5,0.1,0.7,0.2c0.3,0.1,0.5,0.1,0.8,0.2c0.2,0.1,0.5,0.2,0.7,0.3c0.2,0.1,0.3,0.3,0.5,0.5c0.1,0.2,0.2,0.5,0.2,0.8
		c0,0.4-0.1,0.8-0.3,1.1c-0.2,0.3-0.4,0.5-0.7,0.7s-0.6,0.3-1,0.4c-0.4,0.1-0.7,0.1-1.1,0.1c-0.4,0-0.8,0-1.1-0.1
		c-0.4-0.1-0.7-0.2-1-0.4s-0.5-0.4-0.7-0.7c-0.2-0.3-0.3-0.7-0.3-1.1h1.7C144,21.5,144.1,21.7,144.2,21.8z"/>
	<path class="st0" d="M149.2,18.9c0-0.4,0.1-0.8,0.3-1c0.2-0.3,0.4-0.5,0.7-0.7c0.3-0.2,0.6-0.3,1-0.4c0.4-0.1,0.7-0.1,1.1-0.1
		c0.3,0,0.7,0,1,0.1s0.6,0.1,0.9,0.3s0.5,0.3,0.7,0.6s0.3,0.6,0.3,1V22c0,0.3,0,0.6,0,0.8c0,0.3,0.1,0.5,0.2,0.6h-1.8
		c0-0.1-0.1-0.2-0.1-0.3c0-0.1,0-0.2,0-0.3c-0.3,0.3-0.6,0.5-1,0.6c-0.4,0.1-0.8,0.2-1.2,0.2c-0.3,0-0.6,0-0.9-0.1
		c-0.3-0.1-0.5-0.2-0.7-0.4s-0.4-0.4-0.5-0.6c-0.1-0.2-0.2-0.5-0.2-0.9c0-0.4,0.1-0.7,0.2-0.9c0.1-0.2,0.3-0.4,0.5-0.6
		c0.2-0.1,0.4-0.3,0.7-0.3c0.3-0.1,0.5-0.1,0.8-0.2c0.3,0,0.5-0.1,0.8-0.1s0.5-0.1,0.7-0.1c0.2-0.1,0.4-0.1,0.5-0.2
		c0.1-0.1,0.2-0.2,0.2-0.4c0-0.2,0-0.3-0.1-0.5s-0.1-0.2-0.3-0.3c-0.1-0.1-0.2-0.1-0.4-0.1c-0.1,0-0.3,0-0.4,0
		c-0.4,0-0.6,0.1-0.8,0.2c-0.2,0.2-0.3,0.4-0.4,0.8H149.2z M153.4,20.2c-0.1,0.1-0.2,0.1-0.3,0.2c-0.1,0-0.2,0.1-0.4,0.1
		c-0.1,0-0.3,0-0.4,0.1c-0.1,0-0.3,0-0.4,0.1c-0.1,0-0.3,0.1-0.4,0.1c-0.1,0-0.2,0.1-0.3,0.2c-0.1,0.1-0.2,0.2-0.2,0.3
		c-0.1,0.1-0.1,0.2-0.1,0.4c0,0.2,0,0.3,0.1,0.4c0.1,0.1,0.1,0.2,0.2,0.3c0.1,0.1,0.2,0.1,0.4,0.1c0.1,0,0.3,0,0.4,0
		c0.4,0,0.6-0.1,0.8-0.2c0.2-0.1,0.3-0.3,0.4-0.4c0.1-0.2,0.1-0.3,0.2-0.5c0-0.2,0-0.3,0-0.4V20.2z"/>
	<path class="st0" d="M158.3,14.4v3.3h0c0.2-0.3,0.5-0.6,0.9-0.7c0.4-0.2,0.8-0.2,1.2-0.2c0.3,0,0.7,0.1,1,0.2s0.6,0.3,0.9,0.6
		c0.3,0.3,0.5,0.6,0.6,1.1s0.2,0.9,0.2,1.5c0,0.6-0.1,1.1-0.2,1.5c-0.2,0.4-0.4,0.8-0.6,1.1c-0.3,0.3-0.5,0.5-0.9,0.6
		c-0.3,0.1-0.6,0.2-1,0.2c-0.5,0-0.9-0.1-1.3-0.2c-0.4-0.2-0.7-0.4-0.9-0.8h0v0.8h-1.7v-9H158.3z M161.2,19.4
		c-0.1-0.3-0.2-0.5-0.3-0.7c-0.1-0.2-0.3-0.3-0.5-0.5s-0.4-0.2-0.7-0.2c-0.3,0-0.5,0.1-0.7,0.2c-0.2,0.1-0.4,0.3-0.5,0.5
		s-0.2,0.4-0.3,0.7c-0.1,0.3-0.1,0.5-0.1,0.8c0,0.3,0,0.5,0.1,0.8c0.1,0.3,0.2,0.5,0.3,0.7s0.3,0.3,0.5,0.5c0.2,0.1,0.4,0.2,0.7,0.2
		c0.3,0,0.5-0.1,0.7-0.2c0.2-0.1,0.3-0.3,0.5-0.5c0.1-0.2,0.2-0.4,0.3-0.7c0.1-0.3,0.1-0.5,0.1-0.8
		C161.3,19.9,161.2,19.6,161.2,19.4z"/>
	<path class="st0" d="M164.1,15.9v-1.5h1.8v1.5H164.1z M165.9,16.9v6.5h-1.8v-6.5H165.9z"/>
	<path class="st0" d="M169.1,14.4v9h-1.8v-9H169.1z"/>
	<path class="st0" d="M170.4,15.9v-1.5h1.8v1.5H170.4z M172.2,16.9v6.5h-1.8v-6.5H172.2z"/>
	<path class="st0" d="M177.1,16.9v1.2h-1.3v3.2c0,0.3,0.1,0.5,0.2,0.6c0.1,0.1,0.3,0.2,0.6,0.2c0.1,0,0.2,0,0.3,0s0.2,0,0.3,0v1.4
		c-0.2,0-0.3,0-0.5,0.1c-0.2,0-0.4,0-0.5,0c-0.3,0-0.5,0-0.8-0.1c-0.2,0-0.5-0.1-0.7-0.2s-0.3-0.3-0.4-0.5s-0.2-0.5-0.2-0.8v-3.9
		h-1.1v-1.2h1.1v-2h1.8v2H177.1z"/>
	<path class="st0" d="M180.2,25.4c-0.3,0.2-0.8,0.3-1.4,0.3c-0.2,0-0.4,0-0.5,0c-0.2,0-0.4,0-0.5,0v-1.5c0.2,0,0.3,0,0.5,0.1
		c0.2,0,0.4,0,0.5,0c0.2,0,0.4-0.1,0.5-0.3c0.1-0.2,0.2-0.3,0.2-0.5c0-0.1,0-0.3-0.1-0.4l-2.3-6.1h1.9l1.5,4.5h0l1.4-4.5h1.9
		l-2.7,7.3C180.8,24.8,180.6,25.1,180.2,25.4z"/>
	<path class="st0" d="M187.6,18.9c0-0.4,0.1-0.8,0.3-1c0.2-0.3,0.4-0.5,0.7-0.7c0.3-0.2,0.6-0.3,1-0.4c0.4-0.1,0.7-0.1,1.1-0.1
		c0.3,0,0.7,0,1,0.1s0.6,0.1,0.9,0.3s0.5,0.3,0.7,0.6s0.3,0.6,0.3,1V22c0,0.3,0,0.6,0,0.8c0,0.3,0.1,0.5,0.2,0.6h-1.8
		c0-0.1-0.1-0.2-0.1-0.3c0-0.1,0-0.2,0-0.3c-0.3,0.3-0.6,0.5-1,0.6c-0.4,0.1-0.8,0.2-1.2,0.2c-0.3,0-0.6,0-0.9-0.1
		c-0.3-0.1-0.5-0.2-0.7-0.4s-0.4-0.4-0.5-0.6c-0.1-0.2-0.2-0.5-0.2-0.9c0-0.4,0.1-0.7,0.2-0.9c0.1-0.2,0.3-0.4,0.5-0.6
		c0.2-0.1,0.4-0.3,0.7-0.3c0.3-0.1,0.5-0.1,0.8-0.2c0.3,0,0.5-0.1,0.8-0.1s0.5-0.1,0.7-0.1c0.2-0.1,0.4-0.1,0.5-0.2
		c0.1-0.1,0.2-0.2,0.2-0.4c0-0.2,0-0.3-0.1-0.5s-0.1-0.2-0.3-0.3c-0.1-0.1-0.2-0.1-0.4-0.1c-0.1,0-0.3,0-0.4,0
		c-0.4,0-0.6,0.1-0.8,0.2c-0.2,0.2-0.3,0.4-0.4,0.8H187.6z M191.7,20.2c-0.1,0.1-0.2,0.1-0.3,0.2c-0.1,0-0.2,0.1-0.4,0.1
		c-0.1,0-0.3,0-0.4,0.1c-0.1,0-0.3,0-0.4,0.1c-0.1,0-0.3,0.1-0.4,0.1c-0.1,0-0.2,0.1-0.3,0.2c-0.1,0.1-0.2,0.2-0.2,0.3
		c-0.1,0.1-0.1,0.2-0.1,0.4c0,0.2,0,0.3,0.1,0.4c0.1,0.1,0.1,0.2,0.2,0.3c0.1,0.1,0.2,0.1,0.4,0.1c0.1,0,0.3,0,0.4,0
		c0.4,0,0.6-0.1,0.8-0.2c0.2-0.1,0.3-0.3,0.4-0.4c0.1-0.2,0.1-0.3,0.2-0.5c0-0.2,0-0.3,0-0.4V20.2z"/>
	<path class="st0" d="M196.5,16.9v0.9h0c0.2-0.4,0.5-0.7,0.9-0.8c0.4-0.2,0.7-0.3,1.1-0.3c0.5,0,0.9,0.1,1.2,0.2
		c0.3,0.1,0.5,0.3,0.7,0.5c0.2,0.2,0.3,0.5,0.4,0.8c0.1,0.3,0.1,0.7,0.1,1.1v4h-1.8v-3.7c0-0.5-0.1-0.9-0.3-1.2
		c-0.2-0.3-0.5-0.4-0.9-0.4c-0.5,0-0.8,0.1-1.1,0.4c-0.2,0.3-0.3,0.8-0.3,1.4v3.4h-1.8v-6.5H196.5z"/>
	<path class="st0" d="M206.8,22.6c-0.2,0.4-0.5,0.6-0.8,0.8c-0.3,0.2-0.7,0.2-1.2,0.2c-0.5,0-0.9-0.1-1.3-0.3
		c-0.4-0.2-0.7-0.4-0.9-0.8c-0.2-0.3-0.4-0.7-0.5-1.1s-0.2-0.9-0.2-1.3c0-0.4,0.1-0.9,0.2-1.3s0.3-0.8,0.5-1.1s0.5-0.6,0.9-0.8
		c0.4-0.2,0.8-0.3,1.3-0.3c0.4,0,0.8,0.1,1.1,0.2c0.3,0.2,0.6,0.4,0.8,0.7h0v-3.3h1.8v9h-1.7L206.8,22.6L206.8,22.6z M206.7,19.4
		c-0.1-0.2-0.1-0.5-0.3-0.7s-0.3-0.3-0.5-0.5c-0.2-0.1-0.4-0.2-0.7-0.2s-0.5,0.1-0.7,0.2c-0.2,0.1-0.4,0.3-0.5,0.5
		c-0.1,0.2-0.2,0.4-0.3,0.7s-0.1,0.5-0.1,0.8c0,0.3,0,0.5,0.1,0.8c0.1,0.3,0.2,0.5,0.3,0.7c0.1,0.2,0.3,0.4,0.5,0.5s0.4,0.2,0.7,0.2
		c0.3,0,0.5-0.1,0.7-0.2c0.2-0.1,0.4-0.3,0.5-0.5c0.1-0.2,0.2-0.4,0.3-0.7c0-0.3,0.1-0.5,0.1-0.8S206.8,19.6,206.7,19.4z"/>
</g>
<g>
	<path class="st0" d="M116.7,34.3c0.1,0.2,0.3,0.4,0.4,0.5c0.2,0.1,0.4,0.2,0.6,0.3c0.2,0.1,0.5,0.1,0.8,0.1c0.2,0,0.4,0,0.6,0
		c0.2,0,0.4-0.1,0.6-0.2c0.2-0.1,0.3-0.2,0.4-0.3c0.1-0.1,0.2-0.3,0.2-0.6c0-0.2-0.1-0.4-0.2-0.6c-0.2-0.2-0.4-0.3-0.6-0.4
		c-0.3-0.1-0.5-0.2-0.9-0.3c-0.3-0.1-0.6-0.2-1-0.3c-0.3-0.1-0.7-0.2-1-0.3c-0.3-0.1-0.6-0.3-0.9-0.5c-0.3-0.2-0.5-0.4-0.6-0.7
		S115,30.4,115,30c0-0.5,0.1-0.9,0.3-1.2c0.2-0.3,0.5-0.6,0.8-0.9s0.7-0.4,1.1-0.5s0.8-0.2,1.2-0.2c0.5,0,0.9,0.1,1.4,0.2
		s0.8,0.3,1.2,0.5c0.3,0.2,0.6,0.5,0.8,0.9c0.2,0.4,0.3,0.8,0.3,1.3H120c0-0.3-0.1-0.5-0.2-0.7c-0.1-0.2-0.2-0.3-0.4-0.4
		c-0.2-0.1-0.3-0.2-0.5-0.2c-0.2,0-0.4-0.1-0.7-0.1c-0.2,0-0.3,0-0.5,0.1c-0.2,0-0.3,0.1-0.4,0.2c-0.1,0.1-0.2,0.2-0.3,0.3
		c-0.1,0.1-0.1,0.3-0.1,0.5c0,0.2,0,0.3,0.1,0.4c0.1,0.1,0.2,0.2,0.4,0.3c0.2,0.1,0.5,0.2,0.8,0.3c0.3,0.1,0.8,0.2,1.4,0.4
		c0.2,0,0.4,0.1,0.7,0.2c0.3,0.1,0.6,0.2,0.9,0.4c0.3,0.2,0.5,0.5,0.8,0.8s0.3,0.7,0.3,1.2c0,0.4-0.1,0.8-0.2,1.2
		c-0.2,0.4-0.4,0.7-0.7,0.9c-0.3,0.3-0.7,0.5-1.2,0.6c-0.5,0.1-1,0.2-1.6,0.2c-0.5,0-1-0.1-1.4-0.2s-0.9-0.3-1.2-0.6
		c-0.4-0.3-0.6-0.6-0.9-1s-0.3-0.9-0.3-1.4h1.9C116.6,33.8,116.6,34.1,116.7,34.3z"/>
	<path class="st0" d="M127.5,36.5v-0.9h0c-0.2,0.4-0.5,0.7-0.9,0.8c-0.4,0.2-0.7,0.3-1.1,0.3c-0.5,0-0.9-0.1-1.2-0.2
		c-0.3-0.1-0.5-0.3-0.7-0.5c-0.2-0.2-0.3-0.5-0.4-0.8c-0.1-0.3-0.1-0.7-0.1-1.1v-4h1.8v3.7c0,0.5,0.1,0.9,0.3,1.2
		c0.2,0.3,0.5,0.4,0.9,0.4c0.5,0,0.8-0.1,1.1-0.4c0.2-0.3,0.3-0.8,0.3-1.4V30h1.8v6.5H127.5z"/>
	<path class="st0" d="M132.2,30v0.8h0c0.2-0.4,0.5-0.6,0.8-0.8c0.3-0.2,0.7-0.2,1.1-0.2c0.5,0,1,0.1,1.3,0.3s0.7,0.5,0.9,0.8
		c0.2,0.3,0.4,0.7,0.5,1.1c0.1,0.4,0.2,0.9,0.2,1.3c0,0.4-0.1,0.9-0.2,1.3c-0.1,0.4-0.3,0.8-0.5,1.1c-0.2,0.3-0.5,0.6-0.9,0.7
		c-0.4,0.2-0.8,0.3-1.3,0.3c-0.4,0-0.8-0.1-1.1-0.2s-0.6-0.4-0.8-0.7h0v3.1h-1.8V30H132.2z M134.5,35.2c0.2-0.1,0.4-0.3,0.5-0.5
		c0.1-0.2,0.2-0.4,0.3-0.7c0.1-0.3,0.1-0.5,0.1-0.8c0-0.3,0-0.5-0.1-0.8s-0.1-0.5-0.3-0.7c-0.1-0.2-0.3-0.4-0.5-0.5
		c-0.2-0.1-0.4-0.2-0.7-0.2c-0.3,0-0.5,0.1-0.7,0.2c-0.2,0.1-0.4,0.3-0.5,0.5s-0.2,0.4-0.3,0.7c-0.1,0.3-0.1,0.5-0.1,0.8
		c0,0.3,0,0.5,0.1,0.8c0.1,0.3,0.1,0.5,0.3,0.7s0.3,0.3,0.5,0.5c0.2,0.1,0.4,0.2,0.7,0.2C134.1,35.3,134.3,35.3,134.5,35.2z"/>
	<path class="st0" d="M139.8,30v0.8h0c0.2-0.4,0.5-0.6,0.8-0.8c0.3-0.2,0.7-0.2,1.1-0.2c0.5,0,1,0.1,1.3,0.3s0.7,0.5,0.9,0.8
		c0.2,0.3,0.4,0.7,0.5,1.1c0.1,0.4,0.2,0.9,0.2,1.3c0,0.4-0.1,0.9-0.2,1.3c-0.1,0.4-0.3,0.8-0.5,1.1c-0.2,0.3-0.5,0.6-0.9,0.7
		c-0.4,0.2-0.8,0.3-1.3,0.3c-0.4,0-0.8-0.1-1.1-0.2s-0.6-0.4-0.8-0.7h0v3.1h-1.8V30H139.8z M142.1,35.2c0.2-0.1,0.4-0.3,0.5-0.5
		c0.1-0.2,0.2-0.4,0.3-0.7c0.1-0.3,0.1-0.5,0.1-0.8c0-0.3,0-0.5-0.1-0.8s-0.1-0.5-0.3-0.7c-0.1-0.2-0.3-0.4-0.5-0.5
		c-0.2-0.1-0.4-0.2-0.7-0.2c-0.3,0-0.5,0.1-0.7,0.2c-0.2,0.1-0.4,0.3-0.5,0.5s-0.2,0.4-0.3,0.7c-0.1,0.3-0.1,0.5-0.1,0.8
		c0,0.3,0,0.5,0.1,0.8c0.1,0.3,0.1,0.5,0.3,0.7s0.3,0.3,0.5,0.5c0.2,0.1,0.4,0.2,0.7,0.2C141.7,35.3,141.9,35.3,142.1,35.2z"/>
	<path class="st0" d="M147.5,27.5v9h-1.8v-9H147.5z"/>
	<path class="st0" d="M150.8,34.9c0.3,0.3,0.7,0.4,1.2,0.4c0.4,0,0.7-0.1,0.9-0.3c0.3-0.2,0.4-0.4,0.5-0.6h1.6
		c-0.3,0.8-0.6,1.3-1.2,1.7c-0.5,0.3-1.2,0.5-1.9,0.5c-0.5,0-1-0.1-1.4-0.2c-0.4-0.2-0.8-0.4-1-0.7c-0.3-0.3-0.5-0.7-0.7-1.1
		c-0.2-0.4-0.2-0.9-0.2-1.4c0-0.5,0.1-0.9,0.2-1.4c0.2-0.4,0.4-0.8,0.7-1.1s0.6-0.5,1.1-0.7s0.9-0.3,1.4-0.3c0.6,0,1,0.1,1.5,0.3
		c0.4,0.2,0.8,0.5,1,0.9s0.5,0.8,0.6,1.2c0.1,0.5,0.2,0.9,0.1,1.5h-4.7C150.3,34.3,150.5,34.7,150.8,34.9z M152.8,31.5
		c-0.2-0.2-0.5-0.4-1-0.4c-0.3,0-0.5,0-0.7,0.1s-0.3,0.2-0.5,0.4c-0.1,0.1-0.2,0.3-0.2,0.5c0,0.2-0.1,0.3-0.1,0.4h2.9
		C153.2,32.1,153,31.7,152.8,31.5z"/>
	<path class="st0" d="M157.7,30v0.9h0c0.2-0.3,0.5-0.6,0.9-0.8s0.7-0.3,1.1-0.3c0.4,0,0.8,0.1,1.1,0.2c0.3,0.2,0.6,0.4,0.8,0.8
		c0.2-0.3,0.5-0.5,0.8-0.8c0.3-0.2,0.7-0.3,1.2-0.3c0.3,0,0.7,0,1,0.1c0.3,0.1,0.5,0.2,0.8,0.4c0.2,0.2,0.4,0.4,0.5,0.7
		s0.2,0.7,0.2,1.1v4.4h-1.8v-3.7c0-0.2,0-0.4,0-0.6c0-0.2-0.1-0.4-0.1-0.5c-0.1-0.1-0.2-0.3-0.3-0.3s-0.3-0.1-0.6-0.1
		c-0.3,0-0.5,0-0.6,0.1c-0.2,0.1-0.3,0.2-0.4,0.4c-0.1,0.2-0.1,0.3-0.2,0.5c0,0.2,0,0.4,0,0.6v3.6h-1.8v-3.7c0-0.2,0-0.4,0-0.6
		c0-0.2,0-0.4-0.1-0.5c-0.1-0.2-0.2-0.3-0.3-0.4c-0.1-0.1-0.4-0.1-0.7-0.1c-0.1,0-0.2,0-0.3,0.1c-0.1,0-0.3,0.1-0.4,0.2
		c-0.1,0.1-0.2,0.3-0.3,0.5c-0.1,0.2-0.1,0.5-0.1,0.8v3.8H156V30H157.7z"/>
	<path class="st0" d="M169.2,34.9c0.3,0.3,0.7,0.4,1.2,0.4c0.4,0,0.7-0.1,0.9-0.3c0.3-0.2,0.4-0.4,0.5-0.6h1.6
		c-0.3,0.8-0.6,1.3-1.2,1.7s-1.2,0.5-1.9,0.5c-0.5,0-1-0.1-1.4-0.2s-0.8-0.4-1-0.7c-0.3-0.3-0.5-0.7-0.7-1.1
		c-0.2-0.4-0.2-0.9-0.2-1.4c0-0.5,0.1-0.9,0.2-1.4c0.2-0.4,0.4-0.8,0.7-1.1s0.6-0.5,1.1-0.7c0.4-0.2,0.9-0.3,1.4-0.3
		c0.6,0,1,0.1,1.5,0.3s0.8,0.5,1,0.9s0.5,0.8,0.6,1.2c0.1,0.5,0.2,0.9,0.1,1.5h-4.7C168.8,34.3,169,34.7,169.2,34.9z M171.3,31.5
		c-0.2-0.2-0.5-0.4-1-0.4c-0.3,0-0.5,0-0.7,0.1s-0.3,0.2-0.5,0.4c-0.1,0.1-0.2,0.3-0.2,0.5c0,0.2-0.1,0.3-0.1,0.4h2.9
		C171.6,32.1,171.5,31.7,171.3,31.5z"/>
	<path class="st0" d="M176.2,30v0.9h0c0.2-0.4,0.5-0.7,0.9-0.8c0.4-0.2,0.7-0.3,1.1-0.3c0.5,0,0.9,0.1,1.2,0.2s0.5,0.3,0.7,0.5
		c0.2,0.2,0.3,0.5,0.4,0.8c0.1,0.3,0.1,0.7,0.1,1.1v4h-1.8v-3.7c0-0.5-0.1-0.9-0.3-1.2c-0.2-0.3-0.5-0.4-0.9-0.4
		c-0.5,0-0.8,0.1-1.1,0.4c-0.2,0.3-0.3,0.8-0.3,1.4v3.4h-1.8V30H176.2z"/>
	<path class="st0" d="M185.4,30v1.2h-1.3v3.2c0,0.3,0.1,0.5,0.2,0.6c0.1,0.1,0.3,0.2,0.6,0.2c0.1,0,0.2,0,0.3,0c0.1,0,0.2,0,0.3,0
		v1.4c-0.2,0-0.3,0-0.5,0.1c-0.2,0-0.4,0-0.5,0c-0.3,0-0.5,0-0.8-0.1c-0.2,0-0.5-0.1-0.7-0.2s-0.3-0.3-0.4-0.5s-0.2-0.5-0.2-0.8
		v-3.9h-1.1V30h1.1v-2h1.8v2H185.4z"/>
	<path class="st0" d="M186.1,32c0-0.4,0.1-0.8,0.3-1c0.2-0.3,0.4-0.5,0.7-0.7c0.3-0.2,0.6-0.3,1-0.4c0.4-0.1,0.7-0.1,1.1-0.1
		c0.3,0,0.7,0,1,0.1c0.3,0,0.6,0.1,0.9,0.3s0.5,0.3,0.7,0.6c0.2,0.2,0.3,0.6,0.3,1v3.4c0,0.3,0,0.6,0,0.8c0,0.3,0.1,0.5,0.2,0.6
		h-1.8c0-0.1-0.1-0.2-0.1-0.3c0-0.1,0-0.2,0-0.3c-0.3,0.3-0.6,0.5-1,0.6s-0.8,0.2-1.2,0.2c-0.3,0-0.6,0-0.9-0.1
		c-0.3-0.1-0.5-0.2-0.7-0.4c-0.2-0.2-0.4-0.4-0.5-0.6c-0.1-0.2-0.2-0.5-0.2-0.9c0-0.4,0.1-0.7,0.2-0.9c0.1-0.2,0.3-0.4,0.5-0.6
		c0.2-0.1,0.4-0.2,0.7-0.3c0.3-0.1,0.5-0.1,0.8-0.2c0.3,0,0.5-0.1,0.8-0.1s0.5-0.1,0.7-0.1c0.2-0.1,0.4-0.1,0.5-0.2
		c0.1-0.1,0.2-0.2,0.2-0.4c0-0.2,0-0.3-0.1-0.5c-0.1-0.1-0.1-0.2-0.3-0.3c-0.1-0.1-0.2-0.1-0.4-0.1c-0.1,0-0.3,0-0.4,0
		c-0.4,0-0.6,0.1-0.8,0.2c-0.2,0.2-0.3,0.4-0.4,0.8H186.1z M190.2,33.3c-0.1,0.1-0.2,0.1-0.3,0.2c-0.1,0-0.2,0.1-0.4,0.1
		c-0.1,0-0.3,0-0.4,0.1c-0.1,0-0.3,0-0.4,0.1c-0.1,0-0.3,0.1-0.4,0.1s-0.2,0.1-0.3,0.2c-0.1,0.1-0.2,0.2-0.2,0.3
		c-0.1,0.1-0.1,0.2-0.1,0.4c0,0.2,0,0.3,0.1,0.4c0.1,0.1,0.1,0.2,0.2,0.3c0.1,0.1,0.2,0.1,0.4,0.1c0.1,0,0.3,0,0.4,0
		c0.4,0,0.6-0.1,0.8-0.2c0.2-0.1,0.3-0.3,0.4-0.4s0.1-0.3,0.2-0.5c0-0.2,0-0.3,0-0.4V33.3z"/>
	<path class="st0" d="M195.2,27.5v9h-1.8v-9H195.2z"/>
</g>
</svg>
