<?xml version="1.0" encoding="utf-8"?>
<!-- Generator: Adobe Illustrator 25.4.6, SVG Export Plug-In . SVG Version: 6.00 Build 0)  -->
<svg version="1.1" id="Layer_1" xmlns="http://www.w3.org/2000/svg" xmlns:xlink="http://www.w3.org/1999/xlink" x="0px" y="0px"
	 viewBox="0 0 320 50" style="enable-background:new 0 0 320 50;" xml:space="preserve">
<style type="text/css">
	.st0{clip-path:url(#SVGID_00000016053876337407912190000002264051717277381298_);fill:#439D51;}
	.st1{fill:#FFFFFF;}
</style>
<g>
	<defs>
		<rect id="SVGID_1_" x="224.8" y="10.3" width="76.5" height="16.1"/>
	</defs>
	<clipPath id="SVGID_00000124841522633091525520000010176642929232527252_">
		<use xlink:href="#SVGID_1_"  style="overflow:visible;"/>
	</clipPath>
	<path style="clip-path:url(#SVGID_00000124841522633091525520000010176642929232527252_);fill:#439D51;" d="M301.2,18.3
		c0,4.4-4.2,8.1-9.3,8.1H234c-5.1,0-9.3-3.6-9.3-8.1s4.2-8.1,9.3-8.1H292C297.1,10.3,301.2,13.9,301.2,18.3"/>
</g>
<g>
	<path class="st1" d="M243.6,15.9v1h-2.5V18h2.2v0.9h-2.2v2.1H240v-5.1H243.6z"/>
	<path class="st1" d="M247.1,15.9c0.2,0,0.4,0,0.6,0.1c0.2,0.1,0.3,0.2,0.5,0.3c0.1,0.1,0.2,0.3,0.3,0.5c0.1,0.2,0.1,0.4,0.1,0.6
		c0,0.3-0.1,0.6-0.2,0.8c-0.1,0.2-0.3,0.4-0.6,0.5v0c0.1,0,0.3,0.1,0.3,0.2c0.1,0.1,0.2,0.2,0.2,0.3c0.1,0.1,0.1,0.2,0.1,0.4
		c0,0.1,0,0.3,0.1,0.4c0,0.1,0,0.2,0,0.3s0,0.2,0,0.3s0,0.2,0.1,0.3c0,0.1,0.1,0.2,0.1,0.3h-1.1c-0.1-0.2-0.1-0.4-0.1-0.6
		c0-0.2,0-0.4-0.1-0.6c0-0.3-0.1-0.5-0.2-0.6s-0.3-0.2-0.6-0.2h-1.1v2h-1.1v-5.1H247.1z M246.7,18.2c0.3,0,0.5-0.1,0.6-0.2
		s0.2-0.3,0.2-0.6c0-0.2-0.1-0.4-0.2-0.5s-0.3-0.2-0.6-0.2h-1.2v1.4H246.7z"/>
	<path class="st1" d="M253.3,15.9v1h-2.7V18h2.5v0.9h-2.5v1.3h2.8v1h-3.9v-5.1H253.3z"/>
	<path class="st1" d="M258,15.9v1h-2.7V18h2.5v0.9h-2.5v1.3h2.8v1h-3.9v-5.1H258z"/>
	<path class="st1" d="M264.4,20.9c-0.3,0.2-0.8,0.3-1.2,0.3c-0.4,0-0.7-0.1-1.1-0.2c-0.3-0.1-0.6-0.3-0.8-0.6
		c-0.2-0.2-0.4-0.5-0.5-0.8c-0.1-0.3-0.2-0.7-0.2-1c0-0.4,0.1-0.7,0.2-1.1c0.1-0.3,0.3-0.6,0.5-0.9c0.2-0.2,0.5-0.4,0.8-0.6
		s0.7-0.2,1.1-0.2c0.4,0,0.8,0.1,1.1,0.2c0.3,0.1,0.6,0.3,0.8,0.6c0.2,0.2,0.4,0.5,0.5,0.9c0.1,0.3,0.2,0.7,0.2,1.1
		c0,0.4-0.1,0.7-0.2,1s-0.3,0.6-0.5,0.8l0.6,0.6l-0.5,0.5L264.4,20.9z M264.2,19.7c0.1-0.1,0.2-0.3,0.2-0.5c0.1-0.2,0.1-0.4,0.1-0.7
		c0-0.2,0-0.4-0.1-0.7c0-0.2-0.1-0.4-0.2-0.6c-0.1-0.2-0.3-0.3-0.4-0.4c-0.2-0.1-0.4-0.1-0.6-0.1c-0.3,0-0.5,0-0.6,0.1
		c-0.2,0.1-0.3,0.2-0.4,0.4c-0.1,0.2-0.2,0.4-0.2,0.6c0,0.2-0.1,0.4-0.1,0.7c0,0.2,0,0.4,0.1,0.6c0.1,0.2,0.1,0.4,0.2,0.5
		c0.1,0.2,0.3,0.3,0.4,0.4c0.2,0.1,0.4,0.1,0.6,0.1c0.1,0,0.2,0,0.3,0c0.1,0,0.1,0,0.2-0.1l-0.5-0.4l0.5-0.6L264.2,19.7z"/>
	<path class="st1" d="M270.2,20.7c-0.4,0.3-0.9,0.5-1.6,0.5c-0.7,0-1.2-0.2-1.6-0.5s-0.6-0.9-0.6-1.6v-3.2h1.1v3.2
		c0,0.1,0,0.3,0,0.4c0,0.1,0.1,0.3,0.2,0.4s0.2,0.2,0.3,0.3s0.3,0.1,0.6,0.1c0.4,0,0.7-0.1,0.8-0.3c0.2-0.2,0.2-0.5,0.2-0.8v-3.2
		h1.1v3.2C270.8,19.8,270.6,20.3,270.2,20.7z"/>
	<path class="st1" d="M271.7,17.4c0.1-0.3,0.3-0.6,0.5-0.9c0.2-0.2,0.5-0.4,0.8-0.6s0.7-0.2,1.1-0.2c0.4,0,0.8,0.1,1.1,0.2
		c0.3,0.1,0.6,0.3,0.8,0.6c0.2,0.2,0.4,0.5,0.5,0.9c0.1,0.3,0.2,0.7,0.2,1.1c0,0.4-0.1,0.7-0.2,1c-0.1,0.3-0.3,0.6-0.5,0.8
		c-0.2,0.2-0.5,0.4-0.8,0.6c-0.3,0.1-0.7,0.2-1.1,0.2c-0.4,0-0.7-0.1-1.1-0.2c-0.3-0.1-0.6-0.3-0.8-0.6c-0.2-0.2-0.4-0.5-0.5-0.8
		c-0.1-0.3-0.2-0.7-0.2-1C271.5,18.1,271.6,17.8,271.7,17.4z M272.7,19.1c0.1,0.2,0.1,0.4,0.2,0.6s0.3,0.3,0.4,0.4
		c0.2,0.1,0.4,0.1,0.6,0.1c0.3,0,0.5,0,0.6-0.1c0.2-0.1,0.3-0.2,0.4-0.4s0.2-0.3,0.2-0.6c0.1-0.2,0.1-0.4,0.1-0.6
		c0-0.2,0-0.4-0.1-0.7c0-0.2-0.1-0.4-0.2-0.6s-0.3-0.3-0.4-0.4c-0.2-0.1-0.4-0.1-0.6-0.1c-0.3,0-0.5,0-0.6,0.1
		c-0.2,0.1-0.3,0.2-0.4,0.4s-0.2,0.4-0.2,0.6c0,0.2-0.1,0.4-0.1,0.7C272.7,18.7,272.7,18.9,272.7,19.1z"/>
	<path class="st1" d="M277,16.9v-1h4.2v1h-1.5v4.2h-1.1v-4.2H277z"/>
	<path class="st1" d="M285.6,15.9v1h-2.7V18h2.5v0.9h-2.5v1.3h2.8v1h-3.9v-5.1H285.6z"/>
</g>
</svg>
