<?xml version="1.0" encoding="utf-8"?>
<!-- Generator: Adobe Illustrator 25.4.6, SVG Export Plug-In . SVG Version: 6.00 Build 0)  -->
<svg version="1.1" id="Layer_1" xmlns="http://www.w3.org/2000/svg" xmlns:xlink="http://www.w3.org/1999/xlink" x="0px" y="0px"
	 viewBox="0 0 320 50" style="enable-background:new 0 0 320 50;" xml:space="preserve">
<style type="text/css">
	.st0{clip-path:url(#SVGID_00000170251888620629974080000008592914162573030804_);fill:#231F20;}
	.st1{clip-path:url(#SVGID_00000170251888620629974080000008592914162573030804_);fill:#00B2EE;}
</style>
<g>
	<defs>
		<rect id="SVGID_1_" x="36.8" y="14.2" width="30.1" height="10.2"/>
	</defs>
	<clipPath id="SVGID_00000021833352559572934280000010384158508508845966_">
		<use xlink:href="#SVGID_1_"  style="overflow:visible;"/>
	</clipPath>
	<path style="clip-path:url(#SVGID_00000021833352559572934280000010384158508508845966_);fill:#231F20;" d="M37,19.7h1.6
		c1.3,0,1.5,0.8,1.5,1.4c0,0.6-0.2,1.4-1.5,1.4h-0.8v1.7H37V19.7z M37.8,21.8h0.8c0.4,0,0.8-0.2,0.8-0.7c0-0.6-0.4-0.7-0.8-0.7h-0.8
		V21.8z"/>
	<path style="clip-path:url(#SVGID_00000021833352559572934280000010384158508508845966_);fill:#231F20;" d="M40.6,20.9h0.7v0.6h0
		c0.1-0.3,0.5-0.7,0.9-0.7c0.2,0,0.2,0,0.3,0v0.7c-0.1,0-0.2,0-0.3,0c-0.5,0-0.9,0.4-0.9,1.1v1.5h-0.7V20.9z"/>
	<path style="clip-path:url(#SVGID_00000021833352559572934280000010384158508508845966_);fill:#231F20;" d="M42.6,22.5
		c0-1,0.6-1.7,1.6-1.7c1,0,1.6,0.7,1.6,1.7c0,1-0.6,1.7-1.6,1.7C43.2,24.3,42.6,23.5,42.6,22.5 M45.1,22.5c0-0.6-0.3-1.1-0.9-1.1
		c-0.6,0-0.9,0.6-0.9,1.1c0,0.6,0.3,1.2,0.9,1.2C44.9,23.7,45.1,23.1,45.1,22.5"/>
	<path style="clip-path:url(#SVGID_00000021833352559572934280000010384158508508845966_);fill:#231F20;" d="M46,20.9h0.6v-1h0.7v1
		h0.6v0.5h-0.6v1.7c0,0.3,0,0.4,0.3,0.4c0.1,0,0.2,0,0.3,0v0.6c-0.2,0-0.3,0-0.5,0c-0.7,0-0.9-0.3-0.9-0.8v-1.9H46V20.9z"/>
	<path style="clip-path:url(#SVGID_00000021833352559572934280000010384158508508845966_);fill:#231F20;" d="M48.9,22.7
		c0,0.5,0.3,1,0.9,1c0.4,0,0.7-0.2,0.8-0.5h0.7c-0.2,0.7-0.8,1.1-1.5,1.1c-1,0-1.6-0.7-1.6-1.7c0-0.9,0.6-1.7,1.6-1.7
		c1,0,1.7,0.9,1.5,1.9H48.9z M50.6,22.3c0-0.5-0.3-0.9-0.8-0.9c-0.5,0-0.8,0.4-0.9,0.9H50.6z"/>
	<path style="clip-path:url(#SVGID_00000021833352559572934280000010384158508508845966_);fill:#231F20;" d="M54,22
		c-0.1-0.4-0.3-0.6-0.7-0.6c-0.4,0-0.9,0.2-0.9,1.2c0,0.5,0.2,1.1,0.9,1.1c0.4,0,0.7-0.3,0.8-0.7h0.7c-0.1,0.8-0.7,1.3-1.5,1.3
		c-1,0-1.6-0.7-1.6-1.7c0-1,0.5-1.7,1.6-1.7c0.8,0,1.4,0.4,1.5,1.2H54z"/>
	<path style="clip-path:url(#SVGID_00000021833352559572934280000010384158508508845966_);fill:#231F20;" d="M54.9,20.9h0.5v-1h0.7
		v1h0.6v0.5h-0.6v1.7c0,0.3,0,0.4,0.3,0.4c0.1,0,0.2,0,0.3,0v0.6c-0.2,0-0.3,0-0.5,0c-0.7,0-0.9-0.3-0.9-0.8v-1.9h-0.5V20.9z"/>
	<path style="clip-path:url(#SVGID_00000021833352559572934280000010384158508508845966_);fill:#231F20;" d="M57.6,19.7h0.7v0.7
		h-0.7V19.7z M57.6,20.9h0.7v3.2h-0.7V20.9z"/>
	<polygon style="clip-path:url(#SVGID_00000021833352559572934280000010384158508508845966_);fill:#231F20;" points="58.8,20.9 
		59.6,20.9 60.6,23.4 60.6,23.4 61.6,20.9 62.4,20.9 61,24.2 60.2,24.2 	"/>
	<path style="clip-path:url(#SVGID_00000021833352559572934280000010384158508508845966_);fill:#231F20;" d="M63.3,22.7
		c0,0.5,0.3,1,0.9,1c0.4,0,0.7-0.2,0.8-0.5h0.7c-0.2,0.7-0.8,1.1-1.5,1.1c-1,0-1.6-0.7-1.6-1.7c0-0.9,0.6-1.7,1.6-1.7
		c1,0,1.7,0.9,1.5,1.9H63.3z M64.9,22.3c0-0.5-0.3-0.9-0.8-0.9c-0.5,0-0.8,0.4-0.9,0.9H64.9z"/>
	<path style="clip-path:url(#SVGID_00000021833352559572934280000010384158508508845966_);fill:#00B2EE;" d="M56.3,18.9
		c-0.5-1.8-1.9-3.2-3.7-3.6c-0.2-0.6-0.7-1-1.3-1s-1.1,0.4-1.3,1c-1.8,0.5-3.2,1.8-3.7,3.6l-0.1,0.2h1.1l0-0.1
		c0.4-1.3,1.4-2.3,2.7-2.7c0.2,0.4,0.7,0.7,1.1,0.7c0.5,0,0.9-0.3,1.1-0.7c1.3,0.4,2.3,1.4,2.7,2.7l0,0.1h1.1L56.3,18.9z"/>
	<path style="clip-path:url(#SVGID_00000021833352559572934280000010384158508508845966_);fill:#231F20;" d="M66.4,23.6
		c0.2,0,0.3,0.1,0.3,0.3c0,0.2-0.1,0.3-0.3,0.3c-0.2,0-0.3-0.1-0.3-0.3C66.1,23.8,66.2,23.6,66.4,23.6 M66.7,23.9
		c0-0.1-0.1-0.3-0.3-0.3c-0.1,0-0.3,0.1-0.3,0.3c0,0.1,0.1,0.3,0.3,0.3C66.5,24.2,66.7,24.1,66.7,23.9 M66.3,23.8h0.1
		c0.1,0,0.1,0,0.1,0.1c0,0.1,0,0.1-0.1,0.1l0.1,0.2h-0.1L66.4,24h-0.1v0.2h-0.1V23.8z M66.4,23.9C66.4,23.9,66.5,23.9,66.4,23.9
		c0.1-0.1,0.1-0.1,0-0.1h-0.1L66.4,23.9L66.4,23.9z"/>
</g>
</svg>
