<?xml version="1.0" encoding="utf-8"?>
<!-- Generator: Adobe Illustrator 25.4.1, SVG Export Plug-In . SVG Version: 6.00 Build 0)  -->
<svg version="1.1" id="Layer_1" xmlns="http://www.w3.org/2000/svg" xmlns:xlink="http://www.w3.org/1999/xlink" x="0px" y="0px"
	 viewBox="0 0 300 50" style="enable-background:new 0 0 300 50;" xml:space="preserve">
<style type="text/css">
	.st0{fill:#349946;}
</style>
<g>
	<path class="st0" d="M16.7,10l3.9,10.3h-2.4L17.4,18h-3.9l-0.8,2.3h-2.3L14.4,10H16.7z M16.9,16.3l-1.3-3.8h0l-1.3,3.8H16.9z"/>
	<path class="st0" d="M31.5,18.2c-0.1,0.4-0.2,0.8-0.5,1.1c-0.2,0.4-0.6,0.6-1,0.9c-0.5,0.2-1.1,0.4-1.8,0.4c-0.4,0-0.9-0.1-1.3-0.2
		s-0.8-0.3-1.1-0.6c-0.3-0.3-0.6-0.6-0.8-1c-0.2-0.4-0.3-0.9-0.3-1.5v-0.9h2.1v0.5c0,0.3,0,0.5,0.1,0.7c0,0.2,0.1,0.4,0.2,0.5
		s0.2,0.3,0.4,0.4s0.4,0.1,0.7,0.1c0.3,0,0.5-0.1,0.7-0.2c0.2-0.1,0.3-0.2,0.4-0.4c0.1-0.2,0.1-0.4,0.1-0.6c0-0.2,0-0.4,0-0.6v-7
		h2.3V17C31.6,17.4,31.5,17.8,31.5,18.2z"/>
	<path class="st0" d="M33.5,13c0.2-0.7,0.6-1.2,1-1.7s1-0.9,1.6-1.2c0.6-0.3,1.3-0.4,2.1-0.4c0.8,0,1.5,0.1,2.1,0.4
		c0.6,0.3,1.2,0.7,1.6,1.2c0.4,0.5,0.8,1.1,1,1.7c0.2,0.7,0.3,1.4,0.3,2.2c0,0.8-0.1,1.5-0.3,2.1s-0.6,1.2-1,1.7
		c-0.4,0.5-1,0.9-1.6,1.1c-0.6,0.3-1.3,0.4-2.1,0.4c-0.8,0-1.5-0.1-2.1-0.4s-1.2-0.7-1.6-1.1c-0.4-0.5-0.8-1.1-1-1.7
		s-0.3-1.4-0.3-2.1C33.1,14.4,33.2,13.7,33.5,13z M35.6,16.4c0.1,0.4,0.3,0.8,0.5,1.1c0.2,0.3,0.5,0.6,0.9,0.8
		c0.4,0.2,0.8,0.3,1.3,0.3s0.9-0.1,1.3-0.3c0.4-0.2,0.6-0.5,0.9-0.8c0.2-0.3,0.4-0.7,0.5-1.1s0.2-0.8,0.2-1.3c0-0.5-0.1-0.9-0.2-1.3
		c-0.1-0.4-0.3-0.8-0.5-1.1c-0.2-0.3-0.5-0.6-0.9-0.8c-0.4-0.2-0.8-0.3-1.3-0.3s-0.9,0.1-1.3,0.3c-0.4,0.2-0.6,0.5-0.9,0.8
		c-0.2,0.3-0.4,0.7-0.5,1.1c-0.1,0.4-0.2,0.9-0.2,1.3C35.4,15.6,35.5,16,35.6,16.4z"/>
	<path class="st0" d="M52.5,19.5c-0.8,0.7-1.9,1-3.2,1c-1.4,0-2.5-0.3-3.3-1c-0.8-0.7-1.2-1.7-1.2-3.1V10h2.3v6.4
		c0,0.3,0,0.6,0.1,0.8c0,0.3,0.1,0.5,0.3,0.7c0.2,0.2,0.4,0.4,0.6,0.5s0.6,0.2,1.1,0.2c0.8,0,1.4-0.2,1.7-0.5
		c0.3-0.4,0.5-0.9,0.5-1.7V10h2.3v6.4C53.6,17.8,53.2,18.8,52.5,19.5z"/>
	<path class="st0" d="M61.2,10c0.5,0,0.9,0.1,1.3,0.2c0.4,0.1,0.7,0.4,1,0.6c0.3,0.3,0.5,0.6,0.6,0.9c0.1,0.3,0.2,0.7,0.2,1.1
		c0,0.6-0.1,1.1-0.4,1.6c-0.3,0.4-0.7,0.8-1.3,1v0c0.3,0.1,0.5,0.2,0.7,0.4c0.2,0.2,0.3,0.3,0.4,0.6c0.1,0.2,0.2,0.5,0.3,0.7
		c0.1,0.3,0.1,0.5,0.1,0.8c0,0.2,0,0.4,0,0.6c0,0.2,0,0.4,0.1,0.7s0.1,0.5,0.1,0.7c0.1,0.2,0.1,0.4,0.2,0.5h-2.3
		C62.1,20,62,19.6,62,19.1s-0.1-0.9-0.1-1.3c-0.1-0.5-0.2-0.9-0.5-1.2c-0.3-0.3-0.7-0.4-1.2-0.4h-2.3v4h-2.3V10H61.2z M60.4,14.6
		c0.5,0,0.9-0.1,1.2-0.3s0.4-0.6,0.4-1.1c0-0.5-0.1-0.9-0.4-1.1s-0.7-0.3-1.2-0.3h-2.5v2.9H60.4z"/>
	<path class="st0" d="M68.3,10l4.3,6.9h0V10h2.1v10.3h-2.3l-4.3-6.9h0v6.9h-2.1V10H68.3z"/>
	<path class="st0" d="M84.5,10v1.9h-5.5v2.2h5v1.8h-5v2.5h5.6v1.9h-7.9V10H84.5z"/>
	<path class="st0" d="M85.1,10h2.6L90,14l2.4-4.1H95l-3.8,6.4v4h-2.3v-4L85.1,10z"/>
	<path class="st0" d="M99.7,14.9c0.2-0.5,0.4-0.9,0.8-1.2c0.3-0.3,0.7-0.6,1.2-0.8c0.5-0.2,1-0.3,1.6-0.3s1.1,0.1,1.6,0.3
		c0.5,0.2,0.9,0.5,1.2,0.8c0.3,0.3,0.6,0.8,0.8,1.2s0.3,1,0.3,1.6s-0.1,1.1-0.3,1.6s-0.4,0.9-0.8,1.2c-0.3,0.3-0.7,0.6-1.2,0.8
		c-0.5,0.2-1,0.3-1.6,0.3s-1.1-0.1-1.6-0.3c-0.5-0.2-0.9-0.4-1.2-0.8c-0.3-0.3-0.6-0.8-0.8-1.2c-0.2-0.5-0.3-1-0.3-1.6
		S99.5,15.4,99.7,14.9z M101.6,17.4c0.1,0.3,0.2,0.5,0.3,0.8c0.1,0.2,0.3,0.4,0.6,0.5c0.2,0.1,0.5,0.2,0.9,0.2s0.6-0.1,0.9-0.2
		c0.2-0.1,0.4-0.3,0.6-0.5c0.1-0.2,0.2-0.5,0.3-0.8c0.1-0.3,0.1-0.6,0.1-0.9s0-0.6-0.1-0.9c-0.1-0.3-0.2-0.5-0.3-0.8
		c-0.1-0.2-0.3-0.4-0.6-0.5c-0.2-0.1-0.5-0.2-0.9-0.2s-0.6,0.1-0.9,0.2s-0.4,0.3-0.6,0.5c-0.1,0.2-0.2,0.5-0.3,0.8
		c-0.1,0.3-0.1,0.6-0.1,0.9S101.5,17.2,101.6,17.4z"/>
	<path class="st0" d="M107.7,14.2v-1.4h1.2v-0.6c0-0.7,0.2-1.2,0.6-1.6c0.4-0.4,1-0.6,1.9-0.6c0.2,0,0.4,0,0.6,0s0.4,0,0.5,0v1.5
		c-0.2,0-0.5,0-0.8,0c-0.3,0-0.5,0.1-0.6,0.2c-0.1,0.1-0.2,0.4-0.2,0.7v0.4h1.4v1.4H111v6.1H109v-6.1H107.7z"/>
	<path class="st0" d="M117.3,15.1c0-0.5,0.1-0.9,0.4-1.2c0.2-0.3,0.5-0.6,0.8-0.8c0.3-0.2,0.7-0.3,1.1-0.4s0.8-0.1,1.2-0.1
		c0.4,0,0.8,0,1.1,0.1s0.7,0.2,1.1,0.3c0.3,0.2,0.6,0.4,0.8,0.6c0.2,0.3,0.3,0.6,0.3,1.1v3.9c0,0.3,0,0.7,0.1,1
		c0,0.3,0.1,0.5,0.2,0.7h-2.1c0-0.1-0.1-0.2-0.1-0.4c0-0.1,0-0.2-0.1-0.4c-0.3,0.3-0.7,0.6-1.2,0.7s-0.9,0.2-1.4,0.2
		c-0.4,0-0.7,0-1-0.1s-0.6-0.2-0.8-0.4s-0.4-0.4-0.5-0.7s-0.2-0.6-0.2-1c0-0.4,0.1-0.8,0.2-1.1c0.1-0.3,0.3-0.5,0.6-0.7
		c0.2-0.2,0.5-0.3,0.8-0.4c0.3-0.1,0.6-0.1,0.9-0.2c0.3,0,0.6-0.1,0.9-0.1c0.3,0,0.6-0.1,0.8-0.1c0.2-0.1,0.4-0.1,0.6-0.3
		s0.2-0.3,0.2-0.5c0-0.2,0-0.4-0.1-0.5c-0.1-0.1-0.2-0.2-0.3-0.3c-0.1-0.1-0.3-0.1-0.4-0.1c-0.2,0-0.3,0-0.5,0c-0.4,0-0.7,0.1-1,0.3
		s-0.4,0.5-0.4,0.9H117.3z M122,16.6c-0.1,0.1-0.2,0.1-0.3,0.2c-0.1,0-0.3,0.1-0.4,0.1c-0.1,0-0.3,0.1-0.5,0.1c-0.2,0-0.3,0-0.5,0.1
		c-0.2,0-0.3,0.1-0.5,0.1s-0.3,0.1-0.4,0.2c-0.1,0.1-0.2,0.2-0.3,0.3c-0.1,0.1-0.1,0.3-0.1,0.5c0,0.2,0,0.3,0.1,0.5
		c0.1,0.1,0.2,0.2,0.3,0.3c0.1,0.1,0.3,0.1,0.4,0.2c0.2,0,0.3,0,0.5,0c0.4,0,0.7-0.1,0.9-0.2s0.4-0.3,0.5-0.5s0.2-0.4,0.2-0.6
		c0-0.2,0-0.3,0-0.5V16.6z"/>
	<path class="st0" d="M129.1,11.9V10h8.5v1.9h-3.1v8.4h-2.3v-8.4H129.1z"/>
	<path class="st0" d="M141.1,10v4h4.2v-4h2.3v10.3h-2.3v-4.5h-4.2v4.5h-2.3V10H141.1z"/>
	<path class="st0" d="M149.4,13c0.2-0.7,0.6-1.2,1-1.7s1-0.9,1.6-1.2c0.6-0.3,1.3-0.4,2.1-0.4c0.8,0,1.5,0.1,2.1,0.4
		c0.6,0.3,1.2,0.7,1.6,1.2s0.8,1.1,1,1.7c0.2,0.7,0.3,1.4,0.3,2.2c0,0.8-0.1,1.5-0.3,2.1s-0.6,1.2-1,1.7c-0.4,0.5-1,0.9-1.6,1.1
		s-1.3,0.4-2.1,0.4c-0.8,0-1.5-0.1-2.1-0.4s-1.2-0.7-1.6-1.1c-0.4-0.5-0.8-1.1-1-1.7s-0.3-1.4-0.3-2.1
		C149.1,14.4,149.2,13.7,149.4,13z M151.5,16.4c0.1,0.4,0.3,0.8,0.5,1.1c0.2,0.3,0.5,0.6,0.9,0.8c0.4,0.2,0.8,0.3,1.3,0.3
		c0.5,0,0.9-0.1,1.3-0.3c0.4-0.2,0.6-0.5,0.9-0.8c0.2-0.3,0.4-0.7,0.5-1.1c0.1-0.4,0.2-0.8,0.2-1.3c0-0.5-0.1-0.9-0.2-1.3
		c-0.1-0.4-0.3-0.8-0.5-1.1c-0.2-0.3-0.5-0.6-0.9-0.8c-0.4-0.2-0.8-0.3-1.3-0.3c-0.5,0-0.9,0.1-1.3,0.3c-0.4,0.2-0.6,0.5-0.9,0.8
		c-0.2,0.3-0.4,0.7-0.5,1.1c-0.1,0.4-0.2,0.9-0.2,1.3C151.3,15.6,151.4,16,151.5,16.4z"/>
	<path class="st0" d="M168.4,19.5c-0.8,0.7-1.9,1-3.2,1c-1.4,0-2.5-0.3-3.3-1c-0.8-0.7-1.2-1.7-1.2-3.1V10h2.3v6.4
		c0,0.3,0,0.6,0.1,0.8c0,0.3,0.2,0.5,0.3,0.7c0.2,0.2,0.4,0.4,0.6,0.5s0.6,0.2,1.1,0.2c0.8,0,1.4-0.2,1.7-0.5
		c0.3-0.4,0.5-0.9,0.5-1.7V10h2.3v6.4C169.6,17.8,169.2,18.8,168.4,19.5z"/>
	<path class="st0" d="M173.3,17.8c0.1,0.2,0.3,0.4,0.5,0.6c0.2,0.1,0.5,0.3,0.7,0.3c0.3,0.1,0.6,0.1,0.9,0.1c0.2,0,0.4,0,0.7-0.1
		c0.2,0,0.4-0.1,0.7-0.2c0.2-0.1,0.4-0.2,0.5-0.4c0.1-0.2,0.2-0.4,0.2-0.6c0-0.3-0.1-0.5-0.3-0.7c-0.2-0.2-0.4-0.3-0.7-0.4
		s-0.6-0.2-1-0.3s-0.7-0.2-1.1-0.3c-0.4-0.1-0.8-0.2-1.1-0.4c-0.4-0.1-0.7-0.3-1-0.5c-0.3-0.2-0.5-0.5-0.7-0.8
		c-0.2-0.3-0.3-0.7-0.3-1.2c0-0.5,0.1-1,0.3-1.4c0.2-0.4,0.5-0.7,0.9-1c0.4-0.3,0.8-0.5,1.2-0.6s0.9-0.2,1.4-0.2
		c0.5,0,1.1,0.1,1.6,0.2c0.5,0.1,0.9,0.3,1.3,0.6c0.4,0.3,0.7,0.6,0.9,1c0.2,0.4,0.3,0.9,0.3,1.5H177c0-0.3-0.1-0.6-0.2-0.8
		c-0.1-0.2-0.3-0.4-0.4-0.5c-0.2-0.1-0.4-0.2-0.6-0.2c-0.2,0-0.5-0.1-0.8-0.1c-0.2,0-0.4,0-0.6,0.1c-0.2,0-0.4,0.1-0.5,0.2
		c-0.2,0.1-0.3,0.2-0.4,0.4s-0.1,0.3-0.1,0.6c0,0.2,0,0.4,0.1,0.5c0.1,0.1,0.2,0.2,0.5,0.3c0.2,0.1,0.5,0.2,0.9,0.3
		c0.4,0.1,0.9,0.2,1.6,0.4c0.2,0,0.5,0.1,0.8,0.2s0.7,0.3,1,0.5c0.3,0.2,0.6,0.5,0.9,0.9s0.4,0.8,0.4,1.4c0,0.5-0.1,0.9-0.3,1.3
		c-0.2,0.4-0.5,0.8-0.8,1.1c-0.4,0.3-0.8,0.5-1.3,0.7c-0.5,0.2-1.2,0.2-1.9,0.2c-0.6,0-1.1-0.1-1.7-0.2c-0.5-0.1-1-0.4-1.4-0.7
		c-0.4-0.3-0.7-0.7-1-1.1c-0.2-0.5-0.4-1-0.3-1.7h2.2C173.1,17.2,173.1,17.5,173.3,17.8z"/>
	<path class="st0" d="M186.1,10l3.9,10.3h-2.4l-0.8-2.3H183l-0.8,2.3h-2.3l3.9-10.3H186.1z M186.2,16.3l-1.3-3.8h0l-1.3,3.8H186.2z"
		/>
	<path class="st0" d="M193.1,10l4.3,6.9h0V10h2.1v10.3h-2.3l-4.3-6.9h0v6.9h-2.1V10H193.1z"/>
	<path class="st0" d="M206.1,10c0.7,0,1.3,0.1,1.9,0.3c0.6,0.2,1.1,0.5,1.5,1c0.4,0.4,0.7,1,1,1.6c0.2,0.6,0.4,1.4,0.4,2.2
		c0,0.8-0.1,1.4-0.3,2.1c-0.2,0.6-0.5,1.2-0.9,1.7s-0.9,0.8-1.5,1.1s-1.3,0.4-2.1,0.4h-4.5V10H206.1z M205.9,18.4
		c0.3,0,0.6-0.1,1-0.2c0.3-0.1,0.6-0.3,0.8-0.5c0.2-0.2,0.4-0.6,0.6-1c0.1-0.4,0.2-0.9,0.2-1.4c0-0.5-0.1-1-0.2-1.4
		c-0.1-0.4-0.3-0.8-0.5-1.1c-0.2-0.3-0.5-0.5-0.9-0.7c-0.4-0.2-0.9-0.2-1.4-0.2h-1.6v6.5H205.9z"/>
	<path class="st0" d="M218.1,17.8c0.1,0.2,0.3,0.4,0.5,0.6c0.2,0.1,0.5,0.3,0.7,0.3c0.3,0.1,0.6,0.1,0.9,0.1c0.2,0,0.4,0,0.7-0.1
		c0.2,0,0.4-0.1,0.7-0.2c0.2-0.1,0.4-0.2,0.5-0.4c0.1-0.2,0.2-0.4,0.2-0.6c0-0.3-0.1-0.5-0.3-0.7c-0.2-0.2-0.4-0.3-0.7-0.4
		s-0.6-0.2-1-0.3s-0.7-0.2-1.1-0.3c-0.4-0.1-0.8-0.2-1.1-0.4c-0.4-0.1-0.7-0.3-1-0.5c-0.3-0.2-0.5-0.5-0.7-0.8
		c-0.2-0.3-0.3-0.7-0.3-1.2c0-0.5,0.1-1,0.3-1.4c0.2-0.4,0.5-0.7,0.9-1c0.4-0.3,0.8-0.5,1.2-0.6s0.9-0.2,1.4-0.2
		c0.5,0,1.1,0.1,1.6,0.2c0.5,0.1,0.9,0.3,1.3,0.6c0.4,0.3,0.7,0.6,0.9,1c0.2,0.4,0.3,0.9,0.3,1.5h-2.2c0-0.3-0.1-0.6-0.2-0.8
		c-0.1-0.2-0.3-0.4-0.4-0.5c-0.2-0.1-0.4-0.2-0.6-0.2c-0.2,0-0.5-0.1-0.8-0.1c-0.2,0-0.4,0-0.6,0.1c-0.2,0-0.4,0.1-0.5,0.2
		c-0.2,0.1-0.3,0.2-0.4,0.4s-0.1,0.3-0.1,0.6c0,0.2,0,0.4,0.1,0.5c0.1,0.1,0.2,0.2,0.5,0.3c0.2,0.1,0.5,0.2,0.9,0.3
		c0.4,0.1,0.9,0.2,1.6,0.4c0.2,0,0.5,0.1,0.8,0.2s0.7,0.3,1,0.5c0.3,0.2,0.6,0.5,0.9,0.9s0.4,0.8,0.4,1.4c0,0.5-0.1,0.9-0.3,1.3
		c-0.2,0.4-0.5,0.8-0.8,1.1c-0.4,0.3-0.8,0.5-1.3,0.7c-0.5,0.2-1.2,0.2-1.9,0.2c-0.6,0-1.1-0.1-1.7-0.2c-0.5-0.1-1-0.4-1.4-0.7
		c-0.4-0.3-0.7-0.7-1-1.1c-0.2-0.5-0.4-1-0.3-1.7h2.2C217.9,17.2,218,17.5,218.1,17.8z"/>
	<path class="st0" d="M229,10l2.4,7.1h0l2.3-7.1h3.2v10.3h-2.1V13h0l-2.5,7.3h-1.8l-2.5-7.3h0v7.3h-2.1V10H229z"/>
	<path class="st0" d="M241.2,10v10.3h-2.3V10H241.2z"/>
	<path class="st0" d="M245.5,10v8.4h5v1.9h-7.3V10H245.5z"/>
	<path class="st0" d="M259.5,10v1.9h-5.5v2.2h5v1.8h-5v2.5h5.6v1.9h-7.9V10H259.5z"/>
	<path class="st0" d="M262.9,17.8c0.1,0.2,0.3,0.4,0.5,0.6c0.2,0.1,0.5,0.3,0.7,0.3c0.3,0.1,0.6,0.1,0.9,0.1c0.2,0,0.4,0,0.7-0.1
		c0.2,0,0.4-0.1,0.7-0.2c0.2-0.1,0.4-0.2,0.5-0.4c0.1-0.2,0.2-0.4,0.2-0.6c0-0.3-0.1-0.5-0.3-0.7c-0.2-0.2-0.4-0.3-0.7-0.4
		s-0.6-0.2-1-0.3s-0.7-0.2-1.1-0.3c-0.4-0.1-0.8-0.2-1.1-0.4c-0.4-0.1-0.7-0.3-1-0.5c-0.3-0.2-0.5-0.5-0.7-0.8
		c-0.2-0.3-0.3-0.7-0.3-1.2c0-0.5,0.1-1,0.3-1.4c0.2-0.4,0.5-0.7,0.9-1c0.4-0.3,0.8-0.5,1.2-0.6s0.9-0.2,1.4-0.2
		c0.5,0,1.1,0.1,1.6,0.2c0.5,0.1,0.9,0.3,1.3,0.6c0.4,0.3,0.7,0.6,0.9,1c0.2,0.4,0.3,0.9,0.3,1.5h-2.2c0-0.3-0.1-0.6-0.2-0.8
		c-0.1-0.2-0.3-0.4-0.4-0.5c-0.2-0.1-0.4-0.2-0.6-0.2c-0.2,0-0.5-0.1-0.8-0.1c-0.2,0-0.4,0-0.6,0.1c-0.2,0-0.4,0.1-0.5,0.2
		c-0.2,0.1-0.3,0.2-0.4,0.4s-0.1,0.3-0.1,0.6c0,0.2,0,0.4,0.1,0.5c0.1,0.1,0.2,0.2,0.5,0.3c0.2,0.1,0.5,0.2,0.9,0.3
		c0.4,0.1,0.9,0.2,1.6,0.4c0.2,0,0.5,0.1,0.8,0.2s0.7,0.3,1,0.5c0.3,0.2,0.6,0.5,0.9,0.9s0.4,0.8,0.4,1.4c0,0.5-0.1,0.9-0.3,1.3
		c-0.2,0.4-0.5,0.8-0.8,1.1c-0.4,0.3-0.8,0.5-1.3,0.7c-0.5,0.2-1.2,0.2-1.9,0.2c-0.6,0-1.1-0.1-1.7-0.2c-0.5-0.1-1-0.4-1.4-0.7
		c-0.4-0.3-0.7-0.7-1-1.1c-0.2-0.5-0.4-1-0.3-1.7h2.2C262.7,17.2,262.8,17.5,262.9,17.8z"/>
</g>
<g>
	<path d="M13.4,24.4v3.8h0c0.3-0.4,0.6-0.7,1-0.8c0.4-0.2,0.9-0.3,1.3-0.3c0.4,0,0.7,0.1,1.1,0.2s0.7,0.4,1,0.7
		c0.3,0.3,0.5,0.7,0.7,1.2c0.2,0.5,0.3,1.1,0.3,1.8c0,0.7-0.1,1.3-0.3,1.8c-0.2,0.5-0.4,0.9-0.7,1.2c-0.3,0.3-0.6,0.6-1,0.7
		c-0.4,0.2-0.7,0.2-1.1,0.2c-0.6,0-1-0.1-1.5-0.3c-0.4-0.2-0.8-0.5-1-0.9h0v1h-2V24.4H13.4z M16.7,30.1c-0.1-0.3-0.2-0.5-0.3-0.8
		c-0.1-0.2-0.3-0.4-0.5-0.5c-0.2-0.1-0.5-0.2-0.8-0.2c-0.3,0-0.6,0.1-0.8,0.2c-0.2,0.1-0.4,0.3-0.6,0.5c-0.1,0.2-0.3,0.5-0.3,0.8
		c-0.1,0.3-0.1,0.6-0.1,0.9c0,0.3,0,0.6,0.1,0.9c0.1,0.3,0.2,0.5,0.3,0.8c0.1,0.2,0.3,0.4,0.6,0.5c0.2,0.1,0.5,0.2,0.8,0.2
		c0.3,0,0.6-0.1,0.8-0.2c0.2-0.1,0.4-0.3,0.5-0.5c0.1-0.2,0.3-0.5,0.3-0.8c0.1-0.3,0.1-0.6,0.1-0.9C16.8,30.7,16.8,30.4,16.7,30.1z"
		/>
	<path d="M22.4,33c0.3,0.3,0.8,0.4,1.3,0.4c0.4,0,0.8-0.1,1.1-0.3c0.3-0.2,0.5-0.4,0.6-0.7h1.8c-0.3,0.9-0.7,1.5-1.3,1.9
		c-0.6,0.4-1.3,0.6-2.2,0.6c-0.6,0-1.1-0.1-1.6-0.3c-0.5-0.2-0.9-0.5-1.2-0.8c-0.3-0.3-0.6-0.8-0.8-1.2c-0.2-0.5-0.3-1-0.3-1.6
		c0-0.6,0.1-1.1,0.3-1.6c0.2-0.5,0.4-0.9,0.8-1.3s0.7-0.6,1.2-0.8s1-0.3,1.6-0.3c0.6,0,1.2,0.1,1.7,0.4c0.5,0.2,0.9,0.6,1.2,1
		c0.3,0.4,0.5,0.9,0.7,1.4c0.1,0.5,0.2,1.1,0.1,1.7h-5.4C21.9,32.2,22.1,32.7,22.4,33z M24.7,29.1c-0.2-0.3-0.6-0.4-1.1-0.4
		c-0.3,0-0.6,0.1-0.8,0.2c-0.2,0.1-0.4,0.2-0.5,0.4S22,29.6,22,29.8c-0.1,0.2-0.1,0.3-0.1,0.5h3.3C25.1,29.7,25,29.3,24.7,29.1z"/>
	<path d="M35.6,35.3c-0.1,0.4-0.3,0.7-0.5,1.1c-0.3,0.3-0.7,0.6-1.2,0.8c-0.5,0.2-1.2,0.3-2.1,0.3c-0.4,0-0.7,0-1.1-0.1
		c-0.4-0.1-0.7-0.2-1-0.4s-0.6-0.4-0.8-0.7c-0.2-0.3-0.3-0.7-0.4-1.1h2c0.1,0.4,0.3,0.7,0.6,0.8c0.3,0.1,0.6,0.2,1,0.2
		c0.6,0,1-0.2,1.3-0.5c0.3-0.3,0.4-0.8,0.4-1.3v-1h0c-0.2,0.4-0.5,0.7-0.9,0.9s-0.8,0.3-1.3,0.3c-0.6,0-1-0.1-1.4-0.3
		c-0.4-0.2-0.7-0.5-1-0.8s-0.5-0.7-0.6-1.2c-0.1-0.5-0.2-0.9-0.2-1.5c0-0.5,0.1-0.9,0.2-1.4s0.3-0.8,0.6-1.2c0.3-0.3,0.6-0.6,1-0.8
		s0.9-0.3,1.4-0.3c0.5,0,0.9,0.1,1.3,0.3c0.4,0.2,0.7,0.5,0.9,0.9h0v-1h2v7C35.7,34.6,35.7,35,35.6,35.3z M32.8,32.9
		c0.2-0.1,0.4-0.3,0.6-0.5s0.3-0.4,0.3-0.7c0.1-0.2,0.1-0.5,0.1-0.8c0-0.3,0-0.6-0.1-0.9c-0.1-0.3-0.2-0.5-0.3-0.7
		c-0.1-0.2-0.3-0.4-0.5-0.5c-0.2-0.1-0.5-0.2-0.8-0.2c-0.3,0-0.5,0.1-0.7,0.2c-0.2,0.1-0.4,0.3-0.5,0.5c-0.1,0.2-0.2,0.4-0.3,0.7
		s-0.1,0.5-0.1,0.8c0,0.3,0,0.5,0.1,0.8s0.1,0.5,0.3,0.7c0.1,0.2,0.3,0.4,0.5,0.5C31.4,33,31.7,33,32,33C32.3,33,32.6,33,32.8,32.9z
		"/>
	<path d="M37.4,26.1v-1.7h2.1v1.7H37.4z M39.5,27.3v7.5h-2.1v-7.5H39.5z"/>
	<path d="M43.1,27.3v1h0c0.3-0.4,0.6-0.8,1-0.9c0.4-0.2,0.8-0.3,1.3-0.3c0.6,0,1,0.1,1.4,0.2c0.4,0.2,0.6,0.4,0.8,0.6
		c0.2,0.3,0.3,0.6,0.4,1c0.1,0.4,0.1,0.8,0.1,1.3v4.6h-2.1v-4.2c0-0.6-0.1-1.1-0.3-1.4c-0.2-0.3-0.5-0.5-1-0.5c-0.6,0-1,0.2-1.2,0.5
		c-0.3,0.3-0.4,0.9-0.4,1.6v3.9h-2.1v-7.5H43.1z"/>
	<path d="M51.4,32.9c0.1,0.2,0.2,0.3,0.4,0.4c0.1,0.1,0.3,0.2,0.5,0.2c0.2,0,0.4,0.1,0.6,0.1c0.1,0,0.3,0,0.5-0.1
		c0.2,0,0.3-0.1,0.4-0.2c0.1-0.1,0.2-0.2,0.3-0.3s0.1-0.3,0.1-0.5c0-0.3-0.2-0.5-0.6-0.7c-0.4-0.2-1-0.3-1.7-0.5
		c-0.3-0.1-0.6-0.1-0.9-0.2c-0.3-0.1-0.5-0.2-0.8-0.4c-0.2-0.2-0.4-0.3-0.5-0.6s-0.2-0.5-0.2-0.8c0-0.5,0.1-0.9,0.3-1.2
		c0.2-0.3,0.4-0.6,0.7-0.7c0.3-0.2,0.7-0.3,1-0.4c0.4-0.1,0.8-0.1,1.2-0.1s0.8,0,1.2,0.1c0.4,0.1,0.7,0.2,1,0.4
		c0.3,0.2,0.5,0.4,0.7,0.7c0.2,0.3,0.3,0.7,0.4,1.2h-2c0-0.4-0.2-0.7-0.4-0.8c-0.3-0.1-0.6-0.2-1-0.2c-0.1,0-0.2,0-0.4,0
		s-0.3,0-0.4,0.1c-0.1,0-0.2,0.1-0.3,0.2c-0.1,0.1-0.1,0.2-0.1,0.4c0,0.2,0.1,0.3,0.2,0.4c0.1,0.1,0.3,0.2,0.5,0.3s0.5,0.1,0.7,0.2
		s0.6,0.1,0.9,0.2c0.3,0.1,0.6,0.1,0.9,0.2c0.3,0.1,0.5,0.2,0.8,0.4c0.2,0.2,0.4,0.4,0.5,0.6s0.2,0.5,0.2,0.9c0,0.5-0.1,0.9-0.3,1.2
		c-0.2,0.3-0.5,0.6-0.8,0.8s-0.7,0.3-1.1,0.4S53.3,35,52.9,35c-0.4,0-0.9,0-1.3-0.1c-0.4-0.1-0.8-0.2-1.1-0.4s-0.6-0.5-0.8-0.8
		c-0.2-0.3-0.3-0.8-0.3-1.3h2C51.3,32.6,51.3,32.8,51.4,32.9z"/>
	<path d="M68,34.8l-1.3-5h0l-1.3,5h-2.1l-2.4-7.5H63l1.4,5.1h0l1.2-5.1h2l1.3,5.1h0l1.4-5.1h2.1l-2.4,7.5H68z"/>
	<path d="M73.4,26.1v-1.7h2.1v1.7H73.4z M75.4,27.3v7.5h-2.1v-7.5H75.4z"/>
	<path d="M81.2,27.3v1.4h-1.5v3.7c0,0.3,0.1,0.6,0.2,0.7s0.3,0.2,0.7,0.2c0.1,0,0.2,0,0.3,0s0.2,0,0.3,0v1.6c-0.2,0-0.4,0-0.6,0.1
		s-0.4,0-0.6,0c-0.3,0-0.6,0-0.9-0.1c-0.3,0-0.5-0.1-0.8-0.3c-0.2-0.1-0.4-0.3-0.5-0.5c-0.1-0.2-0.2-0.5-0.2-0.9v-4.4h-1.2v-1.4h1.2
		v-2.2h2.1v2.2H81.2z"/>
	<path d="M84.2,24.4v3.9h0c0.3-0.4,0.6-0.8,1-0.9c0.4-0.2,0.8-0.3,1.2-0.3c0.6,0,1,0.1,1.4,0.2c0.4,0.2,0.6,0.4,0.8,0.6
		c0.2,0.3,0.3,0.6,0.4,1c0.1,0.4,0.1,0.8,0.1,1.3v4.6h-2.1v-4.2c0-0.6-0.1-1.1-0.3-1.4c-0.2-0.3-0.5-0.5-1-0.5c-0.6,0-1,0.2-1.2,0.5
		c-0.3,0.3-0.4,0.9-0.4,1.6v3.9h-2.1V24.4H84.2z"/>
	<path d="M94.7,29.6c0-0.5,0.1-0.9,0.4-1.2c0.2-0.3,0.5-0.6,0.8-0.8c0.3-0.2,0.7-0.3,1.1-0.4c0.4-0.1,0.8-0.1,1.2-0.1
		c0.4,0,0.8,0,1.1,0.1s0.7,0.2,1.1,0.3s0.6,0.4,0.8,0.6c0.2,0.3,0.3,0.6,0.3,1.1v3.9c0,0.3,0,0.7,0.1,1c0,0.3,0.1,0.5,0.2,0.7h-2.1
		c0-0.1-0.1-0.2-0.1-0.4c0-0.1,0-0.2-0.1-0.4c-0.3,0.3-0.7,0.6-1.2,0.7C97.9,34.9,97.5,35,97,35c-0.4,0-0.7,0-1-0.1
		s-0.6-0.2-0.8-0.4s-0.4-0.4-0.5-0.7s-0.2-0.6-0.2-1c0-0.4,0.1-0.8,0.2-1.1c0.1-0.3,0.3-0.5,0.6-0.7c0.2-0.2,0.5-0.3,0.8-0.4
		s0.6-0.1,0.9-0.2c0.3,0,0.6-0.1,0.9-0.1s0.6-0.1,0.8-0.1c0.2-0.1,0.4-0.1,0.6-0.3s0.2-0.3,0.2-0.5c0-0.2,0-0.4-0.1-0.5
		c-0.1-0.1-0.2-0.2-0.3-0.3c-0.1-0.1-0.3-0.1-0.4-0.1c-0.2,0-0.3,0-0.5,0c-0.4,0-0.7,0.1-1,0.3s-0.4,0.5-0.4,0.9H94.7z M99.4,31.1
		c-0.1,0.1-0.2,0.1-0.3,0.2c-0.1,0-0.3,0.1-0.4,0.1c-0.1,0-0.3,0.1-0.5,0.1s-0.3,0-0.5,0.1c-0.2,0-0.3,0.1-0.5,0.1
		c-0.1,0-0.3,0.1-0.4,0.2c-0.1,0.1-0.2,0.2-0.3,0.3c-0.1,0.1-0.1,0.3-0.1,0.5c0,0.2,0,0.3,0.1,0.5c0.1,0.1,0.2,0.2,0.3,0.3
		c0.1,0.1,0.3,0.1,0.4,0.2c0.2,0,0.3,0,0.5,0c0.4,0,0.7-0.1,0.9-0.2c0.2-0.1,0.4-0.3,0.5-0.5s0.2-0.4,0.2-0.6c0-0.2,0-0.3,0-0.5
		V31.1z"/>
	<path d="M108.9,32.9c0.1,0.2,0.2,0.3,0.4,0.4c0.1,0.1,0.3,0.2,0.5,0.2c0.2,0,0.4,0.1,0.6,0.1c0.1,0,0.3,0,0.5-0.1
		c0.2,0,0.3-0.1,0.4-0.2c0.1-0.1,0.2-0.2,0.3-0.3s0.1-0.3,0.1-0.5c0-0.3-0.2-0.5-0.6-0.7c-0.4-0.2-1-0.3-1.7-0.5
		c-0.3-0.1-0.6-0.1-0.9-0.2c-0.3-0.1-0.5-0.2-0.8-0.4c-0.2-0.2-0.4-0.3-0.5-0.6s-0.2-0.5-0.2-0.8c0-0.5,0.1-0.9,0.3-1.2
		c0.2-0.3,0.4-0.6,0.7-0.7c0.3-0.2,0.7-0.3,1-0.4c0.4-0.1,0.8-0.1,1.2-0.1s0.8,0,1.2,0.1c0.4,0.1,0.7,0.2,1,0.4
		c0.3,0.2,0.5,0.4,0.7,0.7c0.2,0.3,0.3,0.7,0.4,1.2h-2c0-0.4-0.2-0.7-0.4-0.8c-0.3-0.1-0.6-0.2-1-0.2c-0.1,0-0.2,0-0.4,0
		s-0.3,0-0.4,0.1c-0.1,0-0.2,0.1-0.3,0.2c-0.1,0.1-0.1,0.2-0.1,0.4c0,0.2,0.1,0.3,0.2,0.4c0.1,0.1,0.3,0.2,0.5,0.3s0.5,0.1,0.7,0.2
		s0.6,0.1,0.9,0.2c0.3,0.1,0.6,0.1,0.9,0.2c0.3,0.1,0.5,0.2,0.8,0.4c0.2,0.2,0.4,0.4,0.5,0.6s0.2,0.5,0.2,0.9c0,0.5-0.1,0.9-0.3,1.2
		c-0.2,0.3-0.5,0.6-0.8,0.8s-0.7,0.3-1.1,0.4s-0.8,0.1-1.3,0.1c-0.4,0-0.9,0-1.3-0.1c-0.4-0.1-0.8-0.2-1.1-0.4s-0.6-0.5-0.8-0.8
		c-0.2-0.3-0.3-0.8-0.3-1.3h2C108.7,32.6,108.8,32.8,108.9,32.9z"/>
	<path d="M115,26.1v-1.7h2.1v1.7H115z M117,27.3v7.5H115v-7.5H117z"/>
	<path d="M120.6,27.3v1h0c0.3-0.4,0.6-0.8,1-0.9c0.4-0.2,0.8-0.3,1.3-0.3c0.6,0,1,0.1,1.4,0.2c0.4,0.2,0.6,0.4,0.8,0.6
		c0.2,0.3,0.3,0.6,0.4,1c0.1,0.4,0.1,0.8,0.1,1.3v4.6h-2.1v-4.2c0-0.6-0.1-1.1-0.3-1.4c-0.2-0.3-0.5-0.5-1-0.5c-0.6,0-1,0.2-1.2,0.5
		c-0.3,0.3-0.4,0.9-0.4,1.6v3.9h-2.1v-7.5H120.6z"/>
	<path d="M134.3,35.3c-0.1,0.4-0.3,0.7-0.5,1.1c-0.3,0.3-0.7,0.6-1.2,0.8c-0.5,0.2-1.2,0.3-2.1,0.3c-0.4,0-0.7,0-1.1-0.1
		c-0.4-0.1-0.7-0.2-1-0.4s-0.6-0.4-0.8-0.7c-0.2-0.3-0.3-0.7-0.4-1.1h2c0.1,0.4,0.3,0.7,0.6,0.8c0.3,0.1,0.6,0.2,1,0.2
		c0.6,0,1-0.2,1.3-0.5c0.3-0.3,0.4-0.8,0.4-1.3v-1h0c-0.2,0.4-0.5,0.7-0.9,0.9s-0.8,0.3-1.3,0.3c-0.6,0-1-0.1-1.4-0.3
		c-0.4-0.2-0.7-0.5-1-0.8s-0.5-0.7-0.6-1.2c-0.1-0.5-0.2-0.9-0.2-1.5c0-0.5,0.1-0.9,0.2-1.4s0.3-0.8,0.6-1.2c0.3-0.3,0.6-0.6,1-0.8
		s0.9-0.3,1.4-0.3c0.5,0,0.9,0.1,1.3,0.3c0.4,0.2,0.7,0.5,0.9,0.9h0v-1h2v7C134.4,34.6,134.4,35,134.3,35.3z M131.5,32.9
		c0.2-0.1,0.4-0.3,0.6-0.5s0.3-0.4,0.3-0.7c0.1-0.2,0.1-0.5,0.1-0.8c0-0.3,0-0.6-0.1-0.9c-0.1-0.3-0.2-0.5-0.3-0.7
		c-0.1-0.2-0.3-0.4-0.5-0.5c-0.2-0.1-0.5-0.2-0.8-0.2c-0.3,0-0.5,0.1-0.7,0.2c-0.2,0.1-0.4,0.3-0.5,0.5c-0.1,0.2-0.2,0.4-0.3,0.7
		s-0.1,0.5-0.1,0.8c0,0.3,0,0.5,0.1,0.8s0.1,0.5,0.3,0.7c0.1,0.2,0.3,0.4,0.5,0.5c0.2,0.1,0.5,0.2,0.8,0.2
		C131,33,131.3,33,131.5,32.9z"/>
	<path d="M138.2,24.4v10.3h-2.1V24.4H138.2z"/>
	<path d="M142,33c0.3,0.3,0.8,0.4,1.3,0.4c0.4,0,0.8-0.1,1.1-0.3c0.3-0.2,0.5-0.4,0.5-0.7h1.8c-0.3,0.9-0.7,1.5-1.3,1.9
		c-0.6,0.4-1.3,0.6-2.2,0.6c-0.6,0-1.1-0.1-1.6-0.3c-0.5-0.2-0.9-0.5-1.2-0.8c-0.3-0.3-0.6-0.8-0.8-1.2c-0.2-0.5-0.3-1-0.3-1.6
		c0-0.6,0.1-1.1,0.3-1.6c0.2-0.5,0.4-0.9,0.8-1.3s0.7-0.6,1.2-0.8s1-0.3,1.6-0.3c0.6,0,1.2,0.1,1.7,0.4c0.5,0.2,0.9,0.6,1.2,1
		c0.3,0.4,0.5,0.9,0.7,1.4c0.1,0.5,0.2,1.1,0.1,1.7h-5.4C141.6,32.2,141.7,32.7,142,33z M144.4,29.1c-0.2-0.3-0.6-0.4-1.1-0.4
		c-0.3,0-0.6,0.1-0.8,0.2c-0.2,0.1-0.4,0.2-0.5,0.4s-0.2,0.3-0.3,0.5c-0.1,0.2-0.1,0.3-0.1,0.5h3.3
		C144.8,29.7,144.6,29.3,144.4,29.1z"/>
	<path d="M154.1,32.2c0.1,0.2,0.3,0.4,0.5,0.6c0.2,0.2,0.5,0.3,0.7,0.3c0.3,0.1,0.6,0.1,0.9,0.1c0.2,0,0.4,0,0.7-0.1
		c0.2,0,0.4-0.1,0.7-0.2s0.4-0.2,0.5-0.4c0.1-0.2,0.2-0.4,0.2-0.6c0-0.3-0.1-0.5-0.3-0.7c-0.2-0.2-0.4-0.3-0.7-0.4
		c-0.3-0.1-0.6-0.2-1-0.3s-0.7-0.2-1.1-0.3c-0.4-0.1-0.8-0.2-1.1-0.4c-0.4-0.1-0.7-0.3-1-0.5c-0.3-0.2-0.5-0.5-0.7-0.8
		c-0.2-0.3-0.3-0.7-0.3-1.2c0-0.5,0.1-1,0.3-1.4c0.2-0.4,0.5-0.7,0.9-1c0.4-0.3,0.8-0.5,1.2-0.6s0.9-0.2,1.4-0.2
		c0.5,0,1.1,0.1,1.6,0.2c0.5,0.1,0.9,0.3,1.3,0.6c0.4,0.3,0.7,0.6,0.9,1c0.2,0.4,0.3,0.9,0.3,1.5h-2.2c0-0.3-0.1-0.6-0.2-0.8
		c-0.1-0.2-0.3-0.4-0.4-0.5c-0.2-0.1-0.4-0.2-0.6-0.2c-0.2,0-0.5-0.1-0.8-0.1c-0.2,0-0.4,0-0.6,0.1c-0.2,0-0.4,0.1-0.5,0.2
		c-0.2,0.1-0.3,0.2-0.4,0.4s-0.1,0.3-0.1,0.6c0,0.2,0,0.4,0.1,0.5c0.1,0.1,0.2,0.2,0.5,0.3c0.2,0.1,0.5,0.2,0.9,0.3
		c0.4,0.1,0.9,0.2,1.6,0.4c0.2,0,0.5,0.1,0.8,0.2c0.3,0.1,0.7,0.3,1,0.5c0.3,0.2,0.6,0.5,0.9,0.9c0.2,0.4,0.4,0.8,0.4,1.4
		c0,0.5-0.1,0.9-0.3,1.3c-0.2,0.4-0.5,0.8-0.8,1.1c-0.4,0.3-0.8,0.5-1.3,0.7s-1.2,0.2-1.9,0.2c-0.6,0-1.1-0.1-1.7-0.2
		c-0.5-0.1-1-0.4-1.4-0.7c-0.4-0.3-0.7-0.7-1-1.1s-0.4-1-0.3-1.7h2.2C153.9,31.7,154,32,154.1,32.2z"/>
	<path d="M161,26.4v-1.9h8.5v1.9h-3.1v8.4h-2.3v-8.4H161z"/>
	<path d="M178.4,24.4v1.9h-5.5v2.2h5v1.8h-5v2.5h5.6v1.9h-7.9V24.4H178.4z"/>
	<path d="M184.7,24.4c0.6,0,1.2,0.1,1.7,0.3s0.8,0.4,1.1,0.7s0.5,0.7,0.6,1.1c0.1,0.4,0.2,0.8,0.2,1.2c0,0.4-0.1,0.8-0.2,1.2
		c-0.1,0.4-0.3,0.8-0.6,1.1c-0.3,0.3-0.7,0.6-1.1,0.7s-1,0.3-1.7,0.3h-2.4v3.7H180V24.4H184.7z M184.1,29.3c0.3,0,0.5,0,0.8-0.1
		c0.2,0,0.5-0.1,0.6-0.2c0.2-0.1,0.3-0.3,0.4-0.5s0.2-0.5,0.2-0.8s-0.1-0.6-0.2-0.8c-0.1-0.2-0.3-0.4-0.4-0.5
		c-0.2-0.1-0.4-0.2-0.6-0.2c-0.2,0-0.5-0.1-0.8-0.1h-1.8v3.1H184.1z"/>
</g>
</svg>
