<?xml version="1.0" encoding="utf-8"?>
<!-- Generator: Adobe Illustrator 25.4.1, SVG Export Plug-In . SVG Version: 6.00 Build 0)  -->
<svg version="1.1" id="Layer_1" xmlns="http://www.w3.org/2000/svg" xmlns:xlink="http://www.w3.org/1999/xlink" x="0px" y="0px"
	 viewBox="0 0 300 50" style="enable-background:new 0 0 300 50;" xml:space="preserve">
<style type="text/css">
	.st0{fill:#349946;}
</style>
<g>
	<path class="st0" d="M17.5,10.8c0.8,0,1.4,0.1,1.9,0.3c0.5,0.2,1,0.5,1.3,0.9c0.3,0.4,0.6,0.8,0.7,1.2c0.2,0.5,0.2,1,0.2,1.5
		c0,0.5-0.1,1-0.2,1.4c-0.2,0.5-0.4,0.9-0.7,1.3c-0.3,0.4-0.8,0.7-1.3,0.9c-0.5,0.2-1.2,0.3-1.9,0.3h-2.8v4.4h-2.7V10.8H17.5z
		 M16.7,16.6c0.3,0,0.6,0,0.9-0.1c0.3,0,0.5-0.1,0.8-0.3c0.2-0.1,0.4-0.3,0.5-0.6c0.1-0.2,0.2-0.6,0.2-0.9c0-0.4-0.1-0.7-0.2-0.9
		c-0.1-0.2-0.3-0.4-0.5-0.6c-0.2-0.1-0.5-0.2-0.8-0.3c-0.3,0-0.6-0.1-0.9-0.1h-2.1v3.7H16.7z"/>
	<path class="st0" d="M25.4,14.2v1.6h0c0.1-0.3,0.3-0.5,0.5-0.8c0.2-0.2,0.4-0.4,0.7-0.6c0.3-0.2,0.5-0.3,0.8-0.4
		C27.7,14,28,14,28.3,14c0.2,0,0.3,0,0.5,0.1v2.3c-0.1,0-0.3,0-0.4-0.1c-0.2,0-0.3,0-0.5,0c-0.4,0-0.8,0.1-1.1,0.2
		c-0.3,0.1-0.6,0.4-0.7,0.6c-0.2,0.3-0.3,0.6-0.4,0.9c-0.1,0.3-0.1,0.7-0.1,1.1v4h-2.4v-8.8H25.4z"/>
	<path class="st0" d="M29.7,16.9c0-0.6,0.2-1,0.4-1.4c0.3-0.4,0.6-0.7,1-0.9c0.4-0.2,0.8-0.4,1.3-0.5c0.5-0.1,1-0.1,1.5-0.1
		c0.4,0,0.9,0,1.4,0.1s0.9,0.2,1.2,0.4c0.4,0.2,0.7,0.4,0.9,0.8c0.2,0.3,0.4,0.8,0.4,1.3v4.6c0,0.4,0,0.8,0.1,1.1
		c0,0.4,0.1,0.6,0.2,0.8h-2.5c0-0.1-0.1-0.3-0.1-0.4s0-0.3-0.1-0.4C35,22.6,34.5,22.9,34,23s-1.1,0.2-1.6,0.2
		c-0.4,0-0.8-0.1-1.2-0.2s-0.7-0.3-1-0.5c-0.3-0.2-0.5-0.5-0.6-0.8s-0.2-0.7-0.2-1.2c0-0.5,0.1-0.9,0.3-1.2s0.4-0.6,0.7-0.8
		c0.3-0.2,0.6-0.3,1-0.4c0.4-0.1,0.7-0.2,1.1-0.2s0.7-0.1,1.1-0.1s0.7-0.1,0.9-0.2c0.3-0.1,0.5-0.2,0.6-0.3c0.2-0.1,0.2-0.3,0.2-0.6
		c0-0.3,0-0.5-0.1-0.6c-0.1-0.2-0.2-0.3-0.3-0.4s-0.3-0.1-0.5-0.2c-0.2,0-0.4,0-0.6,0c-0.5,0-0.9,0.1-1.1,0.3
		c-0.3,0.2-0.4,0.5-0.5,1H29.7z M35.3,18.7c-0.1,0.1-0.2,0.2-0.4,0.2s-0.3,0.1-0.5,0.1s-0.4,0.1-0.6,0.1c-0.2,0-0.4,0.1-0.6,0.1
		c-0.2,0-0.4,0.1-0.5,0.1s-0.3,0.1-0.5,0.2c-0.1,0.1-0.2,0.2-0.3,0.4c-0.1,0.1-0.1,0.3-0.1,0.6c0,0.2,0,0.4,0.1,0.5
		c0.1,0.1,0.2,0.3,0.3,0.4c0.1,0.1,0.3,0.1,0.5,0.2c0.2,0,0.4,0.1,0.6,0.1c0.5,0,0.8-0.1,1.1-0.2c0.3-0.2,0.5-0.4,0.6-0.6
		c0.1-0.2,0.2-0.4,0.2-0.7c0-0.2,0-0.4,0-0.5V18.7z"/>
	<path class="st0" d="M43.8,15.8c-0.4,0-0.7,0.1-1,0.3s-0.5,0.4-0.6,0.7c-0.2,0.3-0.3,0.6-0.4,0.9s-0.1,0.7-0.1,1c0,0.3,0,0.6,0.1,1
		c0.1,0.3,0.2,0.6,0.3,0.9c0.2,0.3,0.4,0.5,0.6,0.7c0.3,0.2,0.6,0.3,1,0.3c0.6,0,1-0.2,1.3-0.5c0.3-0.3,0.5-0.8,0.6-1.3H48
		c-0.2,1.2-0.6,2.1-1.4,2.7s-1.7,0.9-2.9,0.9c-0.7,0-1.3-0.1-1.8-0.3c-0.6-0.2-1-0.5-1.4-0.9c-0.4-0.4-0.7-0.9-0.9-1.4
		c-0.2-0.6-0.3-1.2-0.3-1.8c0-0.7,0.1-1.3,0.3-1.9c0.2-0.6,0.5-1.1,0.9-1.5s0.9-0.8,1.4-1c0.6-0.2,1.2-0.4,1.9-0.4
		c0.5,0,1,0.1,1.5,0.2c0.5,0.1,0.9,0.3,1.3,0.6c0.4,0.3,0.7,0.6,0.9,1c0.2,0.4,0.4,0.9,0.4,1.5h-2.4C45.4,16.3,44.8,15.8,43.8,15.8z
		"/>
	<path class="st0" d="M54.2,14.2v1.6h-1.8v4.4c0,0.4,0.1,0.7,0.2,0.8c0.1,0.1,0.4,0.2,0.8,0.2c0.1,0,0.3,0,0.4,0
		c0.1,0,0.2,0,0.4-0.1v1.9c-0.2,0-0.4,0.1-0.7,0.1c-0.3,0-0.5,0-0.7,0c-0.4,0-0.7,0-1.1-0.1c-0.3-0.1-0.6-0.2-0.9-0.3
		c-0.3-0.1-0.5-0.4-0.6-0.6c-0.1-0.3-0.2-0.6-0.2-1.1v-5.2h-1.5v-1.6H50v-2.7h2.4v2.7H54.2z"/>
	<path class="st0" d="M55.5,12.8v-2h2.4v2H55.5z M57.9,14.2v8.8h-2.4v-8.8H57.9z"/>
	<path class="st0" d="M64,15.8c-0.4,0-0.7,0.1-1,0.3s-0.5,0.4-0.6,0.7c-0.2,0.3-0.3,0.6-0.4,0.9s-0.1,0.7-0.1,1c0,0.3,0,0.6,0.1,1
		c0.1,0.3,0.2,0.6,0.3,0.9c0.2,0.3,0.4,0.5,0.6,0.7c0.3,0.2,0.6,0.3,1,0.3c0.6,0,1-0.2,1.3-0.5c0.3-0.3,0.5-0.8,0.6-1.3h2.3
		c-0.2,1.2-0.6,2.1-1.4,2.7s-1.7,0.9-2.9,0.9c-0.7,0-1.3-0.1-1.8-0.3c-0.6-0.2-1-0.5-1.4-0.9c-0.4-0.4-0.7-0.9-0.9-1.4
		c-0.2-0.6-0.3-1.2-0.3-1.8c0-0.7,0.1-1.3,0.3-1.9c0.2-0.6,0.5-1.1,0.9-1.5s0.9-0.8,1.4-1c0.6-0.2,1.2-0.4,1.9-0.4
		c0.5,0,1,0.1,1.5,0.2c0.5,0.1,0.9,0.3,1.3,0.6c0.4,0.3,0.7,0.6,0.9,1c0.2,0.4,0.4,0.9,0.4,1.5h-2.4C65.7,16.3,65.1,15.8,64,15.8z"
		/>
	<path class="st0" d="M69.5,16.9c0-0.6,0.2-1,0.4-1.4c0.3-0.4,0.6-0.7,1-0.9c0.4-0.2,0.8-0.4,1.3-0.5c0.5-0.1,1-0.1,1.5-0.1
		c0.4,0,0.9,0,1.4,0.1s0.9,0.2,1.2,0.4c0.4,0.2,0.7,0.4,0.9,0.8c0.2,0.3,0.4,0.8,0.4,1.3v4.6c0,0.4,0,0.8,0.1,1.1
		c0,0.4,0.1,0.6,0.2,0.8h-2.5c0-0.1-0.1-0.3-0.1-0.4s0-0.3-0.1-0.4c-0.4,0.4-0.8,0.7-1.4,0.8s-1.1,0.2-1.6,0.2
		c-0.4,0-0.8-0.1-1.2-0.2s-0.7-0.3-1-0.5c-0.3-0.2-0.5-0.5-0.6-0.8s-0.2-0.7-0.2-1.2c0-0.5,0.1-0.9,0.3-1.2s0.4-0.6,0.7-0.8
		c0.3-0.2,0.6-0.3,1-0.4c0.4-0.1,0.7-0.2,1.1-0.2s0.7-0.1,1.1-0.1s0.7-0.1,0.9-0.2c0.3-0.1,0.5-0.2,0.6-0.3c0.2-0.1,0.2-0.3,0.2-0.6
		c0-0.3,0-0.5-0.1-0.6c-0.1-0.2-0.2-0.3-0.3-0.4s-0.3-0.1-0.5-0.2c-0.2,0-0.4,0-0.6,0c-0.5,0-0.9,0.1-1.1,0.3
		c-0.3,0.2-0.4,0.5-0.5,1H69.5z M75.1,18.7c-0.1,0.1-0.2,0.2-0.4,0.2s-0.3,0.1-0.5,0.1s-0.4,0.1-0.6,0.1c-0.2,0-0.4,0.1-0.6,0.1
		c-0.2,0-0.4,0.1-0.5,0.1s-0.3,0.1-0.5,0.2c-0.1,0.1-0.2,0.2-0.3,0.4c-0.1,0.1-0.1,0.3-0.1,0.6c0,0.2,0,0.4,0.1,0.5
		c0.1,0.1,0.2,0.3,0.3,0.4c0.1,0.1,0.3,0.1,0.5,0.2c0.2,0,0.4,0.1,0.6,0.1c0.5,0,0.8-0.1,1.1-0.2c0.3-0.2,0.5-0.4,0.6-0.6
		c0.1-0.2,0.2-0.4,0.2-0.7c0-0.2,0-0.4,0-0.5V18.7z"/>
	<path class="st0" d="M82,10.8v12.2h-2.4V10.8H82z"/>
	<path class="st0" d="M97.8,23.1l-2.1-8.3h0l-2,8.3H91l-3.2-12.2h2.7l1.9,8.3h0l2.1-8.3H97l2.1,8.4h0l2-8.4h2.6l-3.3,12.2H97.8z"/>
	<path class="st0" d="M104.8,12.8v-2h2.4v2H104.8z M107.3,14.2v8.8h-2.4v-8.8H107.3z"/>
	<path class="st0" d="M111.2,20.9c0.1,0.2,0.2,0.3,0.4,0.5c0.2,0.1,0.4,0.2,0.6,0.3c0.2,0.1,0.5,0.1,0.7,0.1c0.2,0,0.4,0,0.5-0.1
		c0.2,0,0.4-0.1,0.5-0.2c0.2-0.1,0.3-0.2,0.4-0.3s0.2-0.3,0.2-0.5c0-0.4-0.2-0.6-0.7-0.8c-0.5-0.2-1.2-0.4-2-0.5
		c-0.4-0.1-0.7-0.2-1-0.3c-0.3-0.1-0.6-0.3-0.9-0.4c-0.3-0.2-0.5-0.4-0.6-0.7c-0.2-0.3-0.2-0.6-0.2-1c0-0.6,0.1-1,0.3-1.4
		c0.2-0.4,0.5-0.7,0.9-0.9c0.4-0.2,0.8-0.4,1.2-0.4c0.5-0.1,0.9-0.1,1.4-0.1s0.9,0,1.4,0.1c0.5,0.1,0.9,0.2,1.2,0.5
		c0.4,0.2,0.6,0.5,0.9,0.9c0.2,0.4,0.4,0.8,0.4,1.4h-2.3c0-0.5-0.2-0.8-0.5-0.9c-0.3-0.2-0.7-0.2-1.1-0.2c-0.1,0-0.3,0-0.4,0
		s-0.3,0.1-0.4,0.1c-0.1,0.1-0.2,0.1-0.3,0.2c-0.1,0.1-0.1,0.3-0.1,0.4c0,0.2,0.1,0.4,0.2,0.5s0.4,0.2,0.6,0.3
		c0.3,0.1,0.5,0.2,0.9,0.2c0.3,0.1,0.7,0.1,1,0.2c0.4,0.1,0.7,0.2,1,0.3c0.3,0.1,0.6,0.3,0.9,0.5c0.3,0.2,0.5,0.4,0.6,0.7
		s0.2,0.6,0.2,1c0,0.6-0.1,1.1-0.4,1.5s-0.5,0.7-0.9,0.9c-0.4,0.2-0.8,0.4-1.3,0.5c-0.5,0.1-1,0.1-1.5,0.1c-0.5,0-1-0.1-1.5-0.2
		c-0.5-0.1-0.9-0.3-1.3-0.5c-0.4-0.2-0.7-0.6-0.9-0.9s-0.4-0.9-0.4-1.5h2.3C111.1,20.4,111.1,20.7,111.2,20.9z"/>
	<path class="st0" d="M124.6,21.9c-0.3,0.5-0.7,0.8-1.1,1s-1,0.3-1.6,0.3c-0.7,0-1.2-0.1-1.7-0.4c-0.5-0.3-0.9-0.6-1.2-1
		c-0.3-0.4-0.6-0.9-0.7-1.5c-0.2-0.6-0.2-1.2-0.2-1.8c0-0.6,0.1-1.2,0.2-1.7c0.2-0.6,0.4-1,0.7-1.5c0.3-0.4,0.7-0.8,1.2-1
		c0.5-0.3,1.1-0.4,1.7-0.4c0.5,0,1,0.1,1.5,0.3s0.8,0.6,1.1,1h0v-4.4h2.4v12.2h-2.3L124.6,21.9L124.6,21.9z M124.5,17.6
		c-0.1-0.3-0.2-0.6-0.4-0.9c-0.2-0.3-0.4-0.5-0.6-0.6c-0.3-0.2-0.6-0.2-1-0.2c-0.4,0-0.7,0.1-1,0.2c-0.3,0.2-0.5,0.4-0.7,0.6
		c-0.2,0.3-0.3,0.6-0.4,0.9s-0.1,0.7-0.1,1.1c0,0.3,0,0.7,0.1,1c0.1,0.3,0.2,0.6,0.4,0.9c0.2,0.3,0.4,0.5,0.7,0.6
		c0.3,0.2,0.6,0.2,1,0.2c0.4,0,0.7-0.1,1-0.2s0.5-0.4,0.6-0.6c0.2-0.3,0.3-0.6,0.3-0.9c0.1-0.3,0.1-0.7,0.1-1.1
		C124.6,18.2,124.6,17.9,124.5,17.6z"/>
	<path class="st0" d="M128.9,16.7c0.2-0.6,0.5-1.1,0.9-1.5c0.4-0.4,0.9-0.7,1.4-0.9c0.6-0.2,1.2-0.3,1.9-0.3c0.7,0,1.3,0.1,1.9,0.3
		s1,0.5,1.4,0.9c0.4,0.4,0.7,0.9,0.9,1.5c0.2,0.6,0.3,1.2,0.3,1.9s-0.1,1.3-0.3,1.9c-0.2,0.6-0.5,1.1-0.9,1.5
		c-0.4,0.4-0.9,0.7-1.4,0.9c-0.6,0.2-1.2,0.3-1.9,0.3c-0.7,0-1.3-0.1-1.9-0.3c-0.6-0.2-1-0.5-1.4-0.9c-0.4-0.4-0.7-0.9-0.9-1.5
		c-0.2-0.6-0.3-1.2-0.3-1.9S128.7,17.3,128.9,16.7z M131.1,19.7c0.1,0.3,0.2,0.6,0.4,0.9c0.2,0.3,0.4,0.5,0.7,0.6
		c0.3,0.2,0.6,0.2,1,0.2s0.8-0.1,1-0.2c0.3-0.2,0.5-0.4,0.7-0.6c0.2-0.3,0.3-0.6,0.4-0.9s0.1-0.7,0.1-1c0-0.4,0-0.7-0.1-1
		c-0.1-0.3-0.2-0.6-0.4-0.9c-0.2-0.3-0.4-0.5-0.7-0.6c-0.3-0.2-0.6-0.2-1-0.2s-0.8,0.1-1,0.2c-0.3,0.2-0.5,0.4-0.7,0.6
		c-0.2,0.3-0.3,0.6-0.4,0.9c-0.1,0.3-0.1,0.7-0.1,1C131,19,131,19.3,131.1,19.7z"/>
	<path class="st0" d="M141.6,14.2v1.2h0c0.3-0.5,0.7-0.8,1.2-1.1c0.5-0.3,1-0.4,1.5-0.4c0.6,0,1.1,0.1,1.5,0.3
		c0.5,0.2,0.8,0.6,1.1,1.1c0.3-0.4,0.6-0.7,1.1-1s1-0.4,1.6-0.4c0.5,0,0.9,0.1,1.3,0.2c0.4,0.1,0.7,0.3,1,0.5c0.3,0.3,0.5,0.6,0.7,1
		c0.2,0.4,0.2,0.9,0.2,1.5v5.9h-2.4v-5c0-0.3,0-0.6,0-0.8s-0.1-0.5-0.2-0.7c-0.1-0.2-0.3-0.3-0.5-0.5c-0.2-0.1-0.5-0.2-0.8-0.2
		s-0.6,0.1-0.8,0.2c-0.2,0.1-0.4,0.3-0.5,0.5s-0.2,0.5-0.2,0.7c0,0.3-0.1,0.5-0.1,0.8v4.9h-2.4v-5c0-0.3,0-0.5,0-0.8
		c0-0.3-0.1-0.5-0.1-0.7s-0.2-0.4-0.4-0.5c-0.2-0.1-0.5-0.2-0.9-0.2c-0.1,0-0.3,0-0.5,0.1c-0.2,0.1-0.4,0.1-0.5,0.3
		c-0.2,0.1-0.3,0.3-0.5,0.6s-0.2,0.6-0.2,1.1v5.1h-2.4v-8.8H141.6z"/>
</g>
<g>
	<path class="st0" d="M10.8,32.9v-1.6h1.5v-0.7c0-0.8,0.2-1.4,0.7-1.9c0.5-0.5,1.2-0.8,2.2-0.8c0.2,0,0.4,0,0.6,0c0.2,0,0.4,0,0.6,0
		v1.8c-0.3,0-0.6-0.1-0.9-0.1c-0.3,0-0.6,0.1-0.7,0.2c-0.1,0.2-0.2,0.4-0.2,0.8v0.5h1.7v1.6h-1.7v7.2h-2.4v-7.2H10.8z"/>
	<path class="st0" d="M17.4,33.8c0.2-0.6,0.5-1.1,0.9-1.5c0.4-0.4,0.9-0.7,1.4-0.9c0.6-0.2,1.2-0.3,1.9-0.3c0.7,0,1.3,0.1,1.9,0.3
		s1,0.5,1.4,0.9c0.4,0.4,0.7,0.9,0.9,1.5c0.2,0.6,0.3,1.2,0.3,1.9s-0.1,1.3-0.3,1.9c-0.2,0.6-0.5,1.1-0.9,1.5
		c-0.4,0.4-0.9,0.7-1.4,0.9s-1.2,0.3-1.9,0.3c-0.7,0-1.3-0.1-1.9-0.3c-0.6-0.2-1-0.5-1.4-0.9c-0.4-0.4-0.7-0.9-0.9-1.5
		c-0.2-0.6-0.3-1.2-0.3-1.9S17.2,34.4,17.4,33.8z M19.6,36.8c0.1,0.3,0.2,0.6,0.4,0.9c0.2,0.3,0.4,0.5,0.7,0.6
		c0.3,0.2,0.6,0.2,1,0.2s0.8-0.1,1-0.2c0.3-0.2,0.5-0.4,0.7-0.6c0.2-0.3,0.3-0.6,0.4-0.9c0.1-0.3,0.1-0.7,0.1-1s0-0.7-0.1-1
		c-0.1-0.3-0.2-0.6-0.4-0.9c-0.2-0.3-0.4-0.5-0.7-0.6c-0.3-0.2-0.6-0.2-1-0.2s-0.8,0.1-1,0.2c-0.3,0.2-0.5,0.4-0.7,0.6
		c-0.2,0.3-0.3,0.6-0.4,0.9c-0.1,0.3-0.1,0.7-0.1,1S19.6,36.4,19.6,36.8z"/>
	<path class="st0" d="M30.1,31.3V33h0c0.1-0.3,0.3-0.5,0.5-0.8c0.2-0.2,0.4-0.4,0.7-0.6c0.3-0.2,0.5-0.3,0.8-0.4
		c0.3-0.1,0.6-0.1,0.9-0.1c0.2,0,0.3,0,0.5,0.1v2.3c-0.1,0-0.3,0-0.4-0.1c-0.2,0-0.3,0-0.5,0c-0.4,0-0.8,0.1-1.1,0.2
		c-0.3,0.1-0.6,0.4-0.7,0.6c-0.2,0.3-0.3,0.6-0.4,0.9c-0.1,0.3-0.1,0.7-0.1,1.1v4h-2.4v-8.8H30.1z"/>
	<path class="st0" d="M44.8,27.9c0.8,0,1.5,0.1,2.2,0.4c0.7,0.3,1.3,0.6,1.8,1.1c0.5,0.5,0.9,1.1,1.2,1.9c0.3,0.8,0.4,1.6,0.4,2.7
		c0,0.9-0.1,1.7-0.3,2.5c-0.2,0.8-0.6,1.4-1,2c-0.5,0.5-1,1-1.7,1.3c-0.7,0.3-1.5,0.5-2.4,0.5h-5.3V27.9H44.8z M44.6,37.9
		c0.4,0,0.8-0.1,1.1-0.2c0.4-0.1,0.7-0.3,1-0.6c0.3-0.3,0.5-0.7,0.7-1.1c0.2-0.5,0.3-1,0.3-1.7c0-0.6-0.1-1.2-0.2-1.7
		c-0.1-0.5-0.3-0.9-0.6-1.3c-0.3-0.4-0.6-0.6-1.1-0.8c-0.5-0.2-1-0.3-1.7-0.3h-1.9v7.7H44.6z"/>
	<path class="st0" d="M54.5,38c0.4,0.4,0.9,0.5,1.6,0.5c0.5,0,0.9-0.1,1.3-0.4s0.6-0.5,0.6-0.8h2.1c-0.3,1.1-0.9,1.8-1.6,2.3
		S57,40.4,56,40.4c-0.7,0-1.3-0.1-1.9-0.3c-0.6-0.2-1-0.5-1.4-0.9s-0.7-0.9-0.9-1.5s-0.3-1.2-0.3-1.9c0-0.7,0.1-1.3,0.3-1.8
		c0.2-0.6,0.5-1.1,0.9-1.5c0.4-0.4,0.9-0.7,1.4-1c0.6-0.2,1.2-0.4,1.8-0.4c0.8,0,1.4,0.1,2,0.4s1,0.7,1.4,1.2c0.4,0.5,0.6,1,0.8,1.7
		c0.2,0.6,0.2,1.3,0.2,2h-6.4C54,37.1,54.2,37.7,54.5,38z M57.3,33.4c-0.3-0.3-0.7-0.5-1.3-0.5c-0.4,0-0.7,0.1-1,0.2
		c-0.3,0.1-0.5,0.3-0.6,0.5c-0.2,0.2-0.3,0.4-0.3,0.6c-0.1,0.2-0.1,0.4-0.1,0.6h4C57.8,34.2,57.6,33.7,57.3,33.4z"/>
	<path class="st0" d="M64,31.3v1.2h0.1c0.3-0.5,0.7-0.9,1.2-1.1c0.5-0.2,1-0.4,1.5-0.4c0.6,0,1.2,0.1,1.6,0.3c0.4,0.2,0.7,0.4,1,0.7
		c0.2,0.3,0.4,0.7,0.5,1.1c0.1,0.5,0.1,0.9,0.1,1.5v5.4h-2.4v-5c0-0.7-0.1-1.3-0.3-1.6S66.6,33,66.1,33c-0.7,0-1.1,0.2-1.4,0.6
		c-0.3,0.4-0.4,1-0.4,1.9v4.6h-2.4v-8.8H64z"/>
	<path class="st0" d="M76.7,31.3v1.6H75v4.4c0,0.4,0.1,0.7,0.2,0.8c0.1,0.1,0.4,0.2,0.8,0.2c0.1,0,0.3,0,0.4,0c0.1,0,0.2,0,0.4-0.1
		v1.9c-0.2,0-0.4,0.1-0.7,0.1c-0.3,0-0.5,0-0.7,0c-0.4,0-0.7,0-1.1-0.1c-0.3-0.1-0.6-0.2-0.9-0.3c-0.3-0.1-0.5-0.4-0.6-0.6
		c-0.1-0.3-0.2-0.6-0.2-1.1v-5.2h-1.5v-1.6h1.5v-2.7H75v2.7H76.7z"/>
	<path class="st0" d="M78,29.9v-2h2.4v2H78z M80.4,31.3v8.8H78v-8.8H80.4z"/>
	<path class="st0" d="M84.4,38c0.1,0.2,0.2,0.3,0.4,0.5c0.2,0.1,0.4,0.2,0.6,0.3c0.2,0.1,0.5,0.1,0.7,0.1c0.2,0,0.4,0,0.5-0.1
		c0.2,0,0.4-0.1,0.5-0.2c0.2-0.1,0.3-0.2,0.4-0.3s0.2-0.3,0.2-0.5c0-0.4-0.2-0.6-0.7-0.8c-0.5-0.2-1.2-0.4-2-0.5
		c-0.4-0.1-0.7-0.2-1-0.3c-0.3-0.1-0.6-0.3-0.9-0.4c-0.3-0.2-0.5-0.4-0.6-0.7c-0.2-0.3-0.2-0.6-0.2-1c0-0.6,0.1-1,0.3-1.4
		c0.2-0.4,0.5-0.7,0.9-0.9c0.4-0.2,0.8-0.4,1.2-0.4c0.5-0.1,0.9-0.1,1.4-0.1s0.9,0,1.4,0.1c0.5,0.1,0.9,0.2,1.2,0.5
		c0.4,0.2,0.6,0.5,0.9,0.9c0.2,0.4,0.4,0.8,0.4,1.4h-2.3c0-0.5-0.2-0.8-0.5-0.9c-0.3-0.2-0.7-0.2-1.1-0.2c-0.1,0-0.3,0-0.4,0
		c-0.2,0-0.3,0.1-0.4,0.1c-0.1,0.1-0.2,0.1-0.3,0.2c-0.1,0.1-0.1,0.3-0.1,0.4c0,0.2,0.1,0.4,0.2,0.5s0.4,0.2,0.6,0.3
		c0.3,0.1,0.5,0.2,0.9,0.2c0.3,0.1,0.7,0.1,1,0.2c0.4,0.1,0.7,0.2,1,0.3c0.3,0.1,0.6,0.3,0.9,0.5c0.3,0.2,0.5,0.4,0.6,0.7
		s0.2,0.6,0.2,1c0,0.6-0.1,1.1-0.4,1.5s-0.5,0.7-0.9,0.9s-0.8,0.4-1.3,0.5s-1,0.1-1.5,0.1c-0.5,0-1-0.1-1.5-0.2
		c-0.5-0.1-0.9-0.3-1.3-0.5c-0.4-0.2-0.7-0.6-0.9-0.9c-0.2-0.4-0.4-0.9-0.4-1.5h2.3C84.2,37.5,84.3,37.8,84.4,38z"/>
	<path class="st0" d="M96.4,31.3v1.6h-1.8v4.4c0,0.4,0.1,0.7,0.2,0.8c0.1,0.1,0.4,0.2,0.8,0.2c0.1,0,0.3,0,0.4,0
		c0.1,0,0.2,0,0.4-0.1v1.9c-0.2,0-0.4,0.1-0.7,0.1c-0.3,0-0.5,0-0.7,0c-0.4,0-0.7,0-1.1-0.1c-0.3-0.1-0.6-0.2-0.9-0.3
		c-0.3-0.1-0.5-0.4-0.6-0.6c-0.1-0.3-0.2-0.6-0.2-1.1v-5.2h-1.5v-1.6h1.5v-2.7h2.4v2.7H96.4z"/>
	<path class="st0" d="M99.6,38c0.1,0.2,0.2,0.3,0.4,0.5c0.2,0.1,0.4,0.2,0.6,0.3c0.2,0.1,0.5,0.1,0.7,0.1c0.2,0,0.4,0,0.5-0.1
		c0.2,0,0.4-0.1,0.5-0.2c0.2-0.1,0.3-0.2,0.4-0.3s0.2-0.3,0.2-0.5c0-0.4-0.2-0.6-0.7-0.8c-0.5-0.2-1.2-0.4-2-0.5
		c-0.4-0.1-0.7-0.2-1-0.3c-0.3-0.1-0.6-0.3-0.9-0.4c-0.3-0.2-0.5-0.4-0.6-0.7c-0.2-0.3-0.2-0.6-0.2-1c0-0.6,0.1-1,0.3-1.4
		c0.2-0.4,0.5-0.7,0.9-0.9c0.4-0.2,0.8-0.4,1.2-0.4c0.5-0.1,0.9-0.1,1.4-0.1s0.9,0,1.4,0.1c0.5,0.1,0.9,0.2,1.2,0.5
		c0.4,0.2,0.6,0.5,0.9,0.9c0.2,0.4,0.4,0.8,0.4,1.4h-2.3c0-0.5-0.2-0.8-0.5-0.9c-0.3-0.2-0.7-0.2-1.1-0.2c-0.1,0-0.3,0-0.4,0
		c-0.2,0-0.3,0.1-0.4,0.1c-0.1,0.1-0.2,0.1-0.3,0.2c-0.1,0.1-0.1,0.3-0.1,0.4c0,0.2,0.1,0.4,0.2,0.5s0.4,0.2,0.6,0.3
		c0.3,0.1,0.5,0.2,0.9,0.2c0.3,0.1,0.7,0.1,1,0.2c0.4,0.1,0.7,0.2,1,0.3c0.3,0.1,0.6,0.3,0.9,0.5c0.3,0.2,0.5,0.4,0.6,0.7
		s0.2,0.6,0.2,1c0,0.6-0.1,1.1-0.4,1.5s-0.5,0.7-0.9,0.9s-0.8,0.4-1.3,0.5s-1,0.1-1.5,0.1c-0.5,0-1-0.1-1.5-0.2
		c-0.5-0.1-0.9-0.3-1.3-0.5c-0.4-0.2-0.7-0.6-0.9-0.9c-0.2-0.4-0.4-0.9-0.4-1.5h2.3C99.4,37.5,99.5,37.8,99.6,38z"/>
</g>
</svg>
