<?xml version="1.0" encoding="utf-8"?>
<!-- Generator: Adobe Illustrator 25.4.1, SVG Export Plug-In . SVG Version: 6.00 Build 0)  -->
<svg version="1.1" id="Layer_1" xmlns="http://www.w3.org/2000/svg" xmlns:xlink="http://www.w3.org/1999/xlink" x="0px" y="0px"
	 viewBox="0 0 300 50" style="enable-background:new 0 0 300 50;" xml:space="preserve">
<g>
	<path d="M17.4,17.2c-0.4,0.2-0.9,0.3-1.3,0.3c-0.7,0-1.3-0.1-1.8-0.4s-1-0.6-1.4-1c-0.4-0.4-0.7-0.9-0.9-1.5
		c-0.2-0.6-0.3-1.2-0.3-1.8c0-0.7,0.1-1.3,0.3-1.9c0.2-0.6,0.5-1.1,0.9-1.5c0.4-0.4,0.8-0.8,1.4-1s1.2-0.4,1.8-0.4
		c0.5,0,0.9,0.1,1.3,0.2c0.4,0.1,0.8,0.3,1.2,0.6c0.3,0.3,0.6,0.6,0.9,1s0.4,0.8,0.4,1.4H18c-0.1-0.5-0.3-0.9-0.7-1.1
		C17,10,16.6,9.8,16.1,9.8c-0.4,0-0.8,0.1-1.1,0.3c-0.3,0.2-0.6,0.4-0.8,0.7c-0.2,0.3-0.3,0.6-0.4,1s-0.1,0.7-0.1,1.1
		c0,0.4,0,0.7,0.1,1.1c0.1,0.4,0.2,0.7,0.4,1c0.2,0.3,0.4,0.5,0.8,0.7c0.3,0.2,0.7,0.3,1.1,0.3c0.7,0,1.2-0.2,1.5-0.5
		s0.6-0.8,0.6-1.4h-2v-1.5H20v4.8h-1.2l-0.2-1C18.2,16.8,17.9,17.1,17.4,17.2z"/>
	<path d="M23.3,15.8c0.3,0.3,0.6,0.4,1.1,0.4c0.4,0,0.7-0.1,0.9-0.3s0.4-0.4,0.5-0.6h1.6c-0.2,0.8-0.6,1.3-1.1,1.7
		c-0.5,0.3-1.1,0.5-1.9,0.5c-0.5,0-1-0.1-1.4-0.2c-0.4-0.2-0.8-0.4-1-0.7c-0.3-0.3-0.5-0.7-0.7-1.1c-0.2-0.4-0.2-0.9-0.2-1.4
		c0-0.5,0.1-0.9,0.2-1.4c0.2-0.4,0.4-0.8,0.7-1.1s0.6-0.5,1-0.7c0.4-0.2,0.9-0.3,1.3-0.3c0.5,0,1,0.1,1.4,0.3c0.4,0.2,0.7,0.5,1,0.9
		c0.3,0.4,0.5,0.8,0.6,1.2c0.1,0.5,0.2,0.9,0.1,1.4h-4.7C22.9,15.1,23.1,15.5,23.3,15.8z M25.3,12.4c-0.2-0.2-0.5-0.3-1-0.3
		c-0.3,0-0.5,0-0.7,0.1s-0.3,0.2-0.5,0.4C23.1,12.7,23,12.8,23,13c0,0.2-0.1,0.3-0.1,0.4h2.9C25.7,12.9,25.6,12.6,25.3,12.4z"/>
	<path d="M32.2,10.9V12h-1.3v3.2c0,0.3,0.1,0.5,0.2,0.6c0.1,0.1,0.3,0.1,0.6,0.1c0.1,0,0.2,0,0.3,0s0.2,0,0.3,0v1.4
		c-0.1,0-0.3,0-0.5,0c-0.2,0-0.4,0-0.5,0c-0.3,0-0.5,0-0.8-0.1c-0.2,0-0.5-0.1-0.6-0.2s-0.3-0.3-0.4-0.5c-0.1-0.2-0.2-0.5-0.2-0.8
		V12H28v-1.2h1.1V8.9h1.8v1.9H32.2z"/>
	<path d="M36.6,10.9V12h-1.3v3.2c0,0.3,0.1,0.5,0.2,0.6c0.1,0.1,0.3,0.1,0.6,0.1c0.1,0,0.2,0,0.3,0s0.2,0,0.3,0v1.4
		c-0.1,0-0.3,0-0.5,0c-0.2,0-0.4,0-0.5,0c-0.3,0-0.5,0-0.8-0.1c-0.2,0-0.5-0.1-0.6-0.2s-0.3-0.3-0.4-0.5c-0.1-0.2-0.2-0.5-0.2-0.8
		V12h-1.1v-1.2h1.1V8.9h1.8v1.9H36.6z"/>
	<path d="M37.5,9.9V8.4h1.8v1.5H37.5z M39.2,10.9v6.5h-1.8v-6.5H39.2z"/>
	<path d="M42.3,10.9v0.9h0c0.2-0.4,0.5-0.6,0.9-0.8c0.4-0.2,0.7-0.3,1.1-0.3c0.5,0,0.9,0.1,1.2,0.2c0.3,0.1,0.5,0.3,0.7,0.5
		c0.2,0.2,0.3,0.5,0.4,0.8c0.1,0.3,0.1,0.7,0.1,1.1v4h-1.8v-3.6c0-0.5-0.1-0.9-0.2-1.2s-0.5-0.4-0.9-0.4c-0.5,0-0.8,0.1-1.1,0.4
		s-0.3,0.8-0.3,1.4v3.4h-1.8v-6.5H42.3z"/>
	<path d="M54.2,17.8c-0.1,0.3-0.2,0.6-0.5,0.9c-0.2,0.3-0.6,0.5-1,0.7c-0.4,0.2-1,0.3-1.8,0.3c-0.3,0-0.6,0-1-0.1
		c-0.3-0.1-0.6-0.2-0.9-0.4c-0.3-0.2-0.5-0.4-0.7-0.6c-0.2-0.3-0.3-0.6-0.3-0.9h1.8c0.1,0.3,0.2,0.6,0.5,0.7s0.5,0.2,0.8,0.2
		c0.5,0,0.9-0.1,1.1-0.5c0.2-0.3,0.3-0.7,0.3-1.1v-0.9h0c-0.2,0.3-0.5,0.6-0.8,0.8c-0.4,0.2-0.7,0.2-1.1,0.2c-0.5,0-0.9-0.1-1.2-0.3
		c-0.3-0.2-0.6-0.4-0.9-0.7s-0.4-0.6-0.5-1c-0.1-0.4-0.2-0.8-0.2-1.3c0-0.4,0.1-0.8,0.2-1.2c0.1-0.4,0.3-0.7,0.5-1
		c0.2-0.3,0.5-0.5,0.9-0.7s0.7-0.3,1.2-0.3c0.4,0,0.8,0.1,1.1,0.2s0.6,0.4,0.8,0.8h0v-0.9h1.7v6C54.3,17.2,54.2,17.5,54.2,17.8z
		 M51.7,15.6c0.2-0.1,0.4-0.2,0.5-0.4c0.1-0.2,0.2-0.4,0.3-0.6c0.1-0.2,0.1-0.4,0.1-0.7c0-0.3,0-0.5-0.1-0.8c0-0.2-0.1-0.4-0.2-0.6
		c-0.1-0.2-0.3-0.3-0.5-0.4c-0.2-0.1-0.4-0.2-0.7-0.2c-0.2,0-0.5,0-0.6,0.1c-0.2,0.1-0.3,0.2-0.5,0.4c-0.1,0.2-0.2,0.4-0.3,0.6
		s-0.1,0.5-0.1,0.7c0,0.2,0,0.5,0.1,0.7c0,0.2,0.1,0.4,0.2,0.6c0.1,0.2,0.3,0.3,0.4,0.4c0.2,0.1,0.4,0.2,0.7,0.2
		C51.3,15.8,51.5,15.7,51.7,15.6z"/>
	<path d="M61,8.4v8.9h-1.8V8.4H61z"/>
	<path d="M62.4,12.7c0.2-0.4,0.4-0.8,0.7-1.1c0.3-0.3,0.6-0.5,1-0.7c0.4-0.2,0.9-0.2,1.4-0.2s1,0.1,1.4,0.2c0.4,0.2,0.8,0.4,1.1,0.7
		c0.3,0.3,0.5,0.7,0.7,1.1c0.2,0.4,0.2,0.9,0.2,1.4c0,0.5-0.1,1-0.2,1.4c-0.2,0.4-0.4,0.8-0.7,1.1c-0.3,0.3-0.6,0.5-1.1,0.7
		s-0.9,0.2-1.4,0.2s-1-0.1-1.4-0.2s-0.8-0.4-1-0.7c-0.3-0.3-0.5-0.7-0.7-1.1c-0.2-0.4-0.2-0.9-0.2-1.4
		C62.2,13.6,62.3,13.1,62.4,12.7z M64,14.8c0,0.2,0.1,0.5,0.3,0.7c0.1,0.2,0.3,0.4,0.5,0.5s0.5,0.2,0.8,0.2s0.6-0.1,0.8-0.2
		c0.2-0.1,0.4-0.3,0.5-0.5s0.2-0.4,0.3-0.7c0-0.2,0.1-0.5,0.1-0.8s0-0.5-0.1-0.8s-0.1-0.5-0.3-0.7s-0.3-0.3-0.5-0.5
		c-0.2-0.1-0.5-0.2-0.8-0.2s-0.5,0.1-0.8,0.2s-0.4,0.3-0.5,0.5c-0.1,0.2-0.2,0.4-0.3,0.7C64,13.6,64,13.8,64,14.1S64,14.6,64,14.8z"
		/>
	<path d="M75.6,17.3L74.4,13h0l-1.1,4.3h-1.8l-2-6.5h1.9l1.2,4.4h0l1.1-4.4h1.7l1.1,4.4h0l1.2-4.4h1.8l-2,6.5H75.6z"/>
	<path d="M83.9,13.1v1.5h-3.8v-1.5H83.9z"/>
	<path d="M88.4,12c-0.3,0-0.5,0.1-0.7,0.2c-0.2,0.1-0.3,0.3-0.5,0.5c-0.1,0.2-0.2,0.4-0.3,0.7c-0.1,0.2-0.1,0.5-0.1,0.7
		c0,0.2,0,0.5,0.1,0.7c0,0.2,0.1,0.5,0.2,0.7c0.1,0.2,0.3,0.4,0.5,0.5s0.4,0.2,0.7,0.2c0.4,0,0.8-0.1,1-0.4c0.2-0.2,0.4-0.6,0.4-1
		h1.7c-0.1,0.9-0.5,1.5-1,2c-0.6,0.5-1.3,0.7-2.1,0.7c-0.5,0-0.9-0.1-1.3-0.2c-0.4-0.2-0.7-0.4-1-0.7c-0.3-0.3-0.5-0.6-0.7-1
		s-0.2-0.8-0.2-1.3c0-0.5,0.1-1,0.2-1.4c0.1-0.4,0.4-0.8,0.6-1.1s0.6-0.6,1-0.7s0.9-0.3,1.4-0.3c0.4,0,0.8,0.1,1.1,0.2
		c0.4,0.1,0.7,0.3,0.9,0.5s0.5,0.5,0.7,0.8c0.2,0.3,0.3,0.7,0.3,1.1h-1.7C89.6,12.4,89.1,12,88.4,12z"/>
	<path d="M92.5,12.7c0.2-0.4,0.4-0.8,0.7-1.1c0.3-0.3,0.6-0.5,1-0.7c0.4-0.2,0.9-0.2,1.4-0.2s1,0.1,1.4,0.2c0.4,0.2,0.8,0.4,1.1,0.7
		c0.3,0.3,0.5,0.7,0.7,1.1c0.2,0.4,0.2,0.9,0.2,1.4c0,0.5-0.1,1-0.2,1.4c-0.2,0.4-0.4,0.8-0.7,1.1c-0.3,0.3-0.6,0.5-1.1,0.7
		s-0.9,0.2-1.4,0.2s-1-0.1-1.4-0.2s-0.8-0.4-1-0.7c-0.3-0.3-0.5-0.7-0.7-1.1c-0.2-0.4-0.2-0.9-0.2-1.4
		C92.3,13.6,92.3,13.1,92.5,12.7z M94.1,14.8c0,0.2,0.1,0.5,0.3,0.7c0.1,0.2,0.3,0.4,0.5,0.5s0.5,0.2,0.8,0.2s0.6-0.1,0.8-0.2
		c0.2-0.1,0.4-0.3,0.5-0.5s0.2-0.4,0.3-0.7c0-0.2,0.1-0.5,0.1-0.8s0-0.5-0.1-0.8s-0.1-0.5-0.3-0.7s-0.3-0.3-0.5-0.5
		c-0.2-0.1-0.5-0.2-0.8-0.2s-0.5,0.1-0.8,0.2s-0.4,0.3-0.5,0.5c-0.1,0.2-0.2,0.4-0.3,0.7c-0.1,0.2-0.1,0.5-0.1,0.8
		S94.1,14.6,94.1,14.8z"/>
	<path d="M101.6,15.7c0.1,0.1,0.2,0.2,0.3,0.3c0.1,0.1,0.3,0.2,0.4,0.2c0.2,0,0.3,0.1,0.5,0.1c0.1,0,0.3,0,0.4,0
		c0.1,0,0.3-0.1,0.4-0.1c0.1-0.1,0.2-0.1,0.3-0.2c0.1-0.1,0.1-0.2,0.1-0.4c0-0.3-0.2-0.5-0.5-0.6c-0.4-0.1-0.8-0.3-1.5-0.4
		c-0.3-0.1-0.5-0.1-0.8-0.2c-0.2-0.1-0.5-0.2-0.7-0.3c-0.2-0.1-0.3-0.3-0.5-0.5s-0.2-0.4-0.2-0.7c0-0.4,0.1-0.8,0.2-1
		s0.4-0.5,0.6-0.6s0.6-0.3,0.9-0.3c0.3-0.1,0.7-0.1,1-0.1c0.3,0,0.7,0,1,0.1c0.3,0.1,0.6,0.2,0.9,0.3c0.3,0.2,0.5,0.4,0.6,0.6
		c0.2,0.3,0.3,0.6,0.3,1h-1.7c0-0.3-0.2-0.6-0.4-0.7c-0.2-0.1-0.5-0.2-0.8-0.2c-0.1,0-0.2,0-0.3,0c-0.1,0-0.2,0-0.3,0.1
		c-0.1,0-0.2,0.1-0.2,0.2c-0.1,0.1-0.1,0.2-0.1,0.3c0,0.2,0.1,0.3,0.2,0.4s0.3,0.2,0.5,0.2s0.4,0.1,0.6,0.2c0.2,0,0.5,0.1,0.7,0.2
		c0.3,0.1,0.5,0.1,0.8,0.2c0.2,0.1,0.5,0.2,0.7,0.3s0.3,0.3,0.5,0.5s0.2,0.5,0.2,0.8c0,0.4-0.1,0.8-0.3,1.1s-0.4,0.5-0.7,0.7
		c-0.3,0.2-0.6,0.3-0.9,0.4c-0.4,0.1-0.7,0.1-1.1,0.1c-0.4,0-0.7,0-1.1-0.1c-0.4-0.1-0.7-0.2-1-0.4c-0.3-0.2-0.5-0.4-0.7-0.7
		c-0.2-0.3-0.3-0.6-0.3-1.1h1.7C101.5,15.4,101.5,15.6,101.6,15.7z"/>
	<path d="M110.4,10.9V12h-1.3v3.2c0,0.3,0.1,0.5,0.2,0.6c0.1,0.1,0.3,0.1,0.6,0.1c0.1,0,0.2,0,0.3,0s0.2,0,0.3,0v1.4
		c-0.1,0-0.3,0-0.5,0c-0.2,0-0.4,0-0.5,0c-0.3,0-0.5,0-0.8-0.1c-0.2,0-0.5-0.1-0.6-0.2s-0.3-0.3-0.4-0.5c-0.1-0.2-0.2-0.5-0.2-0.8
		V12h-1.1v-1.2h1.1V8.9h1.8v1.9H110.4z"/>
	<path d="M113.3,15.4v1.9c0,0.3-0.1,0.5-0.2,0.8c-0.1,0.2-0.2,0.4-0.4,0.6c-0.2,0.2-0.4,0.3-0.6,0.4c-0.2,0.1-0.5,0.2-0.8,0.2v-0.9
		c0.1,0,0.2-0.1,0.4-0.1c0.1-0.1,0.2-0.2,0.3-0.3c0.1-0.1,0.1-0.2,0.2-0.4c0-0.1,0.1-0.3,0.1-0.4h-0.9v-1.9H113.3z"/>
	<path d="M119.9,8.4v3.4h0c0.2-0.4,0.5-0.6,0.9-0.8c0.4-0.2,0.7-0.3,1-0.3c0.5,0,0.9,0.1,1.2,0.2c0.3,0.1,0.5,0.3,0.7,0.5
		c0.2,0.2,0.3,0.5,0.4,0.8c0.1,0.3,0.1,0.7,0.1,1.1v4h-1.8v-3.6c0-0.5-0.1-0.9-0.2-1.2s-0.5-0.4-0.9-0.4c-0.5,0-0.8,0.1-1.1,0.4
		s-0.3,0.8-0.3,1.4v3.4h-1.8V8.4H119.9z"/>
	<path d="M125.6,9.9V8.4h1.8v1.5H125.6z M127.4,10.9v6.5h-1.8v-6.5H127.4z"/>
	<path d="M134.9,17.8c-0.1,0.3-0.2,0.6-0.5,0.9c-0.2,0.3-0.6,0.5-1,0.7c-0.4,0.2-1,0.3-1.8,0.3c-0.3,0-0.6,0-1-0.1
		c-0.3-0.1-0.6-0.2-0.9-0.4c-0.3-0.2-0.5-0.4-0.7-0.6c-0.2-0.3-0.3-0.6-0.3-0.9h1.8c0.1,0.3,0.2,0.6,0.5,0.7s0.5,0.2,0.8,0.2
		c0.5,0,0.9-0.1,1.1-0.5c0.2-0.3,0.3-0.7,0.3-1.1v-0.9h0c-0.2,0.3-0.5,0.6-0.8,0.8c-0.4,0.2-0.7,0.2-1.1,0.2c-0.5,0-0.9-0.1-1.2-0.3
		c-0.3-0.2-0.6-0.4-0.9-0.7s-0.4-0.6-0.5-1c-0.1-0.4-0.2-0.8-0.2-1.3c0-0.4,0.1-0.8,0.2-1.2c0.1-0.4,0.3-0.7,0.5-1
		c0.2-0.3,0.5-0.5,0.9-0.7s0.7-0.3,1.2-0.3c0.4,0,0.8,0.1,1.1,0.2s0.6,0.4,0.8,0.8h0v-0.9h1.7v6C135,17.2,135,17.5,134.9,17.8z
		 M132.5,15.6c0.2-0.1,0.4-0.2,0.5-0.4c0.1-0.2,0.2-0.4,0.3-0.6c0.1-0.2,0.1-0.4,0.1-0.7c0-0.3,0-0.5-0.1-0.8c0-0.2-0.1-0.4-0.2-0.6
		c-0.1-0.2-0.3-0.3-0.5-0.4c-0.2-0.1-0.4-0.2-0.7-0.2c-0.2,0-0.5,0-0.6,0.1c-0.2,0.1-0.3,0.2-0.5,0.4c-0.1,0.2-0.2,0.4-0.3,0.6
		s-0.1,0.5-0.1,0.7c0,0.2,0,0.5,0.1,0.7c0,0.2,0.1,0.4,0.2,0.6c0.1,0.2,0.3,0.3,0.4,0.4c0.2,0.1,0.4,0.2,0.7,0.2
		C132.1,15.8,132.3,15.7,132.5,15.6z"/>
	<path d="M138.2,8.4v3.4h0c0.2-0.4,0.5-0.6,0.9-0.8c0.4-0.2,0.7-0.3,1-0.3c0.5,0,0.9,0.1,1.2,0.2c0.3,0.1,0.5,0.3,0.7,0.5
		c0.2,0.2,0.3,0.5,0.4,0.8c0.1,0.3,0.1,0.7,0.1,1.1v4h-1.8v-3.6c0-0.5-0.1-0.9-0.2-1.2s-0.5-0.4-0.9-0.4c-0.5,0-0.8,0.1-1.1,0.4
		s-0.3,0.8-0.3,1.4v3.4h-1.8V8.4H138.2z"/>
	<path d="M147.6,13.1v1.5h-3.8v-1.5H147.6z"/>
	<path d="M153.5,19.6v-3.1h0c-0.2,0.4-0.5,0.6-0.9,0.8s-0.8,0.2-1.2,0.2c-0.3,0-0.6-0.1-0.9-0.2c-0.3-0.1-0.6-0.3-0.9-0.6
		c-0.3-0.3-0.5-0.6-0.7-1c-0.2-0.4-0.3-1-0.3-1.6c0-0.4,0.1-0.9,0.2-1.3c0.1-0.4,0.3-0.8,0.5-1.1c0.2-0.3,0.5-0.6,0.9-0.8
		c0.4-0.2,0.8-0.3,1.3-0.3c0.4,0,0.8,0.1,1.1,0.2c0.4,0.2,0.6,0.4,0.8,0.8h0v-0.8h1.7v8.7H153.5z M150.5,14.8c0,0.2,0.1,0.5,0.3,0.7
		c0.1,0.2,0.3,0.4,0.5,0.5c0.2,0.1,0.4,0.2,0.7,0.2c0.3,0,0.5-0.1,0.7-0.2c0.2-0.1,0.4-0.3,0.5-0.5c0.1-0.2,0.2-0.4,0.3-0.6
		c0.1-0.2,0.1-0.5,0.1-0.8c0-0.2,0-0.5-0.1-0.8c-0.1-0.2-0.1-0.5-0.3-0.7c-0.1-0.2-0.3-0.4-0.5-0.5c-0.2-0.1-0.4-0.2-0.7-0.2
		c-0.3,0-0.5,0.1-0.7,0.2s-0.4,0.3-0.5,0.5s-0.2,0.4-0.3,0.7c-0.1,0.2-0.1,0.5-0.1,0.8C150.4,14.3,150.5,14.6,150.5,14.8z"/>
	<path d="M160.9,17.3v-0.9h0c-0.2,0.4-0.5,0.6-0.9,0.8s-0.7,0.2-1.1,0.2c-0.5,0-0.9-0.1-1.2-0.2c-0.3-0.1-0.5-0.3-0.7-0.5
		c-0.2-0.2-0.3-0.5-0.4-0.8c-0.1-0.3-0.1-0.7-0.1-1.1v-4h1.8v3.6c0,0.5,0.1,0.9,0.2,1.2c0.2,0.3,0.5,0.4,0.9,0.4
		c0.5,0,0.8-0.1,1-0.4s0.3-0.8,0.3-1.4v-3.4h1.8v6.5H160.9z"/>
	<path d="M163.9,12.8c0-0.4,0.1-0.8,0.3-1c0.2-0.3,0.4-0.5,0.7-0.7c0.3-0.2,0.6-0.3,1-0.4c0.4-0.1,0.7-0.1,1.1-0.1
		c0.3,0,0.7,0,1,0.1c0.3,0,0.6,0.1,0.9,0.3c0.3,0.1,0.5,0.3,0.7,0.6c0.2,0.2,0.3,0.6,0.3,0.9v3.4c0,0.3,0,0.6,0.1,0.8
		c0,0.3,0.1,0.5,0.2,0.6h-1.8c0-0.1-0.1-0.2-0.1-0.3c0-0.1,0-0.2,0-0.3c-0.3,0.3-0.6,0.5-1,0.6c-0.4,0.1-0.8,0.2-1.2,0.2
		c-0.3,0-0.6,0-0.9-0.1c-0.3-0.1-0.5-0.2-0.7-0.3c-0.2-0.2-0.4-0.4-0.5-0.6c-0.1-0.2-0.2-0.5-0.2-0.9c0-0.4,0.1-0.7,0.2-0.9
		c0.1-0.2,0.3-0.4,0.5-0.6s0.4-0.2,0.7-0.3s0.5-0.1,0.8-0.2c0.3,0,0.5-0.1,0.8-0.1c0.3,0,0.5-0.1,0.7-0.1s0.4-0.1,0.5-0.2
		c0.1-0.1,0.2-0.2,0.2-0.4c0-0.2,0-0.3-0.1-0.5s-0.1-0.2-0.2-0.3c-0.1-0.1-0.2-0.1-0.4-0.1c-0.1,0-0.3,0-0.4,0
		c-0.3,0-0.6,0.1-0.8,0.2c-0.2,0.1-0.3,0.4-0.3,0.8H163.9z M168,14.1c-0.1,0.1-0.2,0.1-0.3,0.2s-0.2,0.1-0.4,0.1
		c-0.1,0-0.3,0-0.4,0.1c-0.1,0-0.3,0-0.4,0.1c-0.1,0-0.3,0.1-0.4,0.1c-0.1,0-0.2,0.1-0.3,0.2c-0.1,0.1-0.2,0.2-0.2,0.3
		c-0.1,0.1-0.1,0.2-0.1,0.4c0,0.2,0,0.3,0.1,0.4c0.1,0.1,0.1,0.2,0.2,0.3s0.2,0.1,0.3,0.1c0.1,0,0.3,0,0.4,0c0.3,0,0.6-0.1,0.8-0.2
		c0.2-0.1,0.3-0.3,0.4-0.4c0.1-0.2,0.1-0.3,0.2-0.5c0-0.2,0-0.3,0-0.4V14.1z"/>
	<path d="M173,8.4v8.9h-1.8V8.4H173z"/>
	<path d="M174.4,9.9V8.4h1.8v1.5H174.4z M176.2,10.9v6.5h-1.8v-6.5H176.2z"/>
	<path d="M181.2,10.9V12h-1.3v3.2c0,0.3,0,0.5,0.2,0.6c0.1,0.1,0.3,0.1,0.6,0.1c0.1,0,0.2,0,0.3,0c0.1,0,0.2,0,0.3,0v1.4
		c-0.1,0-0.3,0-0.5,0c-0.2,0-0.4,0-0.5,0c-0.3,0-0.5,0-0.8-0.1s-0.5-0.1-0.7-0.2s-0.3-0.3-0.4-0.5c-0.1-0.2-0.2-0.5-0.2-0.8V12H177
		v-1.2h1.1V8.9h1.8v1.9H181.2z"/>
	<path d="M184.4,19.2c-0.3,0.2-0.8,0.3-1.4,0.3c-0.2,0-0.4,0-0.5,0c-0.2,0-0.4,0-0.5,0V18c0.2,0,0.3,0,0.5,0.1c0.2,0,0.3,0,0.5,0
		c0.2,0,0.4-0.1,0.5-0.3s0.2-0.3,0.2-0.5c0-0.1,0-0.3-0.1-0.4l-2.3-6.1h1.9l1.5,4.4h0l1.4-4.4h1.8l-2.7,7.3
		C185,18.6,184.7,19,184.4,19.2z"/>
	<path d="M195.1,12c-0.3,0-0.5,0.1-0.7,0.2c-0.2,0.1-0.3,0.3-0.5,0.5c-0.1,0.2-0.2,0.4-0.3,0.7s-0.1,0.5-0.1,0.7
		c0,0.2,0,0.5,0.1,0.7s0.1,0.5,0.2,0.7c0.1,0.2,0.3,0.4,0.5,0.5c0.2,0.1,0.4,0.2,0.7,0.2c0.4,0,0.8-0.1,1-0.4c0.2-0.2,0.4-0.6,0.4-1
		h1.7c-0.1,0.9-0.4,1.5-1,2c-0.5,0.5-1.3,0.7-2.1,0.7c-0.5,0-0.9-0.1-1.3-0.2c-0.4-0.2-0.7-0.4-1-0.7c-0.3-0.3-0.5-0.6-0.7-1
		c-0.2-0.4-0.2-0.8-0.2-1.3c0-0.5,0.1-1,0.2-1.4c0.1-0.4,0.4-0.8,0.6-1.1c0.3-0.3,0.6-0.6,1-0.7s0.9-0.3,1.4-0.3
		c0.4,0,0.8,0.1,1.1,0.2c0.4,0.1,0.7,0.3,1,0.5s0.5,0.5,0.7,0.8s0.3,0.7,0.3,1.1h-1.7C196.3,12.4,195.8,12,195.1,12z"/>
	<path d="M199.2,12.7c0.2-0.4,0.4-0.8,0.7-1.1c0.3-0.3,0.6-0.5,1-0.7c0.4-0.2,0.9-0.2,1.4-0.2c0.5,0,1,0.1,1.4,0.2
		c0.4,0.2,0.8,0.4,1.1,0.7s0.5,0.7,0.7,1.1c0.2,0.4,0.2,0.9,0.2,1.4c0,0.5-0.1,1-0.2,1.4c-0.2,0.4-0.4,0.8-0.7,1.1
		c-0.3,0.3-0.6,0.5-1.1,0.7c-0.4,0.2-0.9,0.2-1.4,0.2c-0.5,0-1-0.1-1.4-0.2s-0.8-0.4-1-0.7c-0.3-0.3-0.5-0.7-0.7-1.1
		c-0.2-0.4-0.2-0.9-0.2-1.4C198.9,13.6,199,13.1,199.2,12.7z M200.8,14.8c0,0.2,0.1,0.5,0.3,0.7s0.3,0.4,0.5,0.5s0.5,0.2,0.8,0.2
		s0.6-0.1,0.8-0.2s0.4-0.3,0.5-0.5c0.1-0.2,0.2-0.4,0.3-0.7c0-0.2,0.1-0.5,0.1-0.8s0-0.5-0.1-0.8s-0.1-0.5-0.3-0.7
		c-0.1-0.2-0.3-0.3-0.5-0.5s-0.5-0.2-0.8-0.2s-0.5,0.1-0.8,0.2s-0.4,0.3-0.5,0.5s-0.2,0.4-0.3,0.7s-0.1,0.5-0.1,0.8
		S200.7,14.6,200.8,14.8z"/>
	<path d="M208.4,17.3l-2.2-6.5h1.9l1.4,4.4h0l1.4-4.4h1.8l-2.2,6.5H208.4z"/>
	<path d="M215.2,15.8c0.3,0.3,0.6,0.4,1.1,0.4c0.4,0,0.7-0.1,0.9-0.3c0.3-0.2,0.4-0.4,0.5-0.6h1.6c-0.2,0.8-0.6,1.3-1.2,1.7
		s-1.1,0.5-1.9,0.5c-0.5,0-1-0.1-1.4-0.2c-0.4-0.2-0.8-0.4-1-0.7c-0.3-0.3-0.5-0.7-0.7-1.1c-0.2-0.4-0.2-0.9-0.2-1.4
		c0-0.5,0.1-0.9,0.2-1.4c0.2-0.4,0.4-0.8,0.7-1.1c0.3-0.3,0.6-0.5,1-0.7s0.9-0.3,1.3-0.3c0.6,0,1,0.1,1.4,0.3s0.7,0.5,1,0.9
		s0.5,0.8,0.6,1.2c0.1,0.5,0.2,0.9,0.1,1.4h-4.7C214.8,15.1,214.9,15.5,215.2,15.8z M217.2,12.4c-0.2-0.2-0.5-0.3-1-0.3
		c-0.3,0-0.5,0-0.7,0.1s-0.3,0.2-0.5,0.4s-0.2,0.3-0.2,0.4c0,0.2-0.1,0.3-0.1,0.4h2.9C217.6,12.9,217.4,12.6,217.2,12.4z"/>
	<path d="M222.1,10.9V12h0c0.1-0.2,0.2-0.4,0.3-0.6c0.1-0.2,0.3-0.3,0.5-0.4c0.2-0.1,0.4-0.2,0.6-0.3c0.2-0.1,0.4-0.1,0.7-0.1
		c0.1,0,0.2,0,0.4,0.1v1.7c-0.1,0-0.2,0-0.3,0c-0.1,0-0.2,0-0.3,0c-0.3,0-0.6,0.1-0.8,0.2c-0.2,0.1-0.4,0.3-0.5,0.4
		s-0.2,0.4-0.3,0.7c-0.1,0.2-0.1,0.5-0.1,0.8v2.9h-1.8v-6.5H222.1z"/>
	<path d="M225.2,12.8c0-0.4,0.1-0.8,0.3-1c0.2-0.3,0.4-0.5,0.7-0.7c0.3-0.2,0.6-0.3,1-0.4c0.4-0.1,0.7-0.1,1.1-0.1
		c0.3,0,0.7,0,1,0.1c0.3,0,0.6,0.1,0.9,0.3c0.3,0.1,0.5,0.3,0.7,0.6c0.2,0.2,0.3,0.6,0.3,0.9v3.4c0,0.3,0,0.6,0.1,0.8
		c0,0.3,0.1,0.5,0.2,0.6h-1.8c0-0.1-0.1-0.2-0.1-0.3c0-0.1,0-0.2,0-0.3c-0.3,0.3-0.6,0.5-1,0.6c-0.4,0.1-0.8,0.2-1.2,0.2
		c-0.3,0-0.6,0-0.9-0.1c-0.3-0.1-0.5-0.2-0.7-0.3c-0.2-0.2-0.4-0.4-0.5-0.6c-0.1-0.2-0.2-0.5-0.2-0.9c0-0.4,0.1-0.7,0.2-0.9
		c0.1-0.2,0.3-0.4,0.5-0.6s0.4-0.2,0.7-0.3s0.5-0.1,0.8-0.2c0.3,0,0.5-0.1,0.8-0.1c0.3,0,0.5-0.1,0.7-0.1s0.4-0.1,0.5-0.2
		c0.1-0.1,0.2-0.2,0.2-0.4c0-0.2,0-0.3-0.1-0.5s-0.1-0.2-0.2-0.3c-0.1-0.1-0.2-0.1-0.4-0.1c-0.1,0-0.3,0-0.4,0
		c-0.3,0-0.6,0.1-0.8,0.2c-0.2,0.1-0.3,0.4-0.3,0.8H225.2z M229.3,14.1c-0.1,0.1-0.2,0.1-0.3,0.2s-0.2,0.1-0.4,0.1
		c-0.1,0-0.3,0-0.4,0.1c-0.1,0-0.3,0-0.4,0.1c-0.1,0-0.3,0.1-0.4,0.1c-0.1,0-0.2,0.1-0.3,0.2c-0.1,0.1-0.2,0.2-0.2,0.3
		c-0.1,0.1-0.1,0.2-0.1,0.4c0,0.2,0,0.3,0.1,0.4c0.1,0.1,0.1,0.2,0.2,0.3s0.2,0.1,0.3,0.1c0.1,0,0.3,0,0.4,0c0.3,0,0.6-0.1,0.8-0.2
		c0.2-0.1,0.3-0.3,0.4-0.4c0.1-0.2,0.1-0.3,0.2-0.5c0-0.2,0-0.3,0-0.4V14.1z"/>
	<path d="M238.6,17.8c-0.1,0.3-0.2,0.6-0.5,0.9s-0.6,0.5-1,0.7c-0.4,0.2-1,0.3-1.8,0.3c-0.3,0-0.6,0-1-0.1c-0.3-0.1-0.6-0.2-0.9-0.4
		c-0.3-0.2-0.5-0.4-0.7-0.6c-0.2-0.3-0.3-0.6-0.3-0.9h1.8c0.1,0.3,0.2,0.6,0.5,0.7c0.2,0.1,0.5,0.2,0.8,0.2c0.5,0,0.9-0.1,1.1-0.5
		c0.2-0.3,0.3-0.7,0.3-1.1v-0.9h0c-0.2,0.3-0.5,0.6-0.8,0.8c-0.4,0.2-0.7,0.2-1.1,0.2c-0.5,0-0.9-0.1-1.2-0.3
		c-0.3-0.2-0.6-0.4-0.9-0.7s-0.4-0.6-0.5-1c-0.1-0.4-0.2-0.8-0.2-1.3c0-0.4,0.1-0.8,0.2-1.2c0.1-0.4,0.3-0.7,0.5-1
		c0.2-0.3,0.5-0.5,0.9-0.7c0.3-0.2,0.7-0.3,1.2-0.3c0.4,0,0.8,0.1,1.1,0.2c0.3,0.2,0.6,0.4,0.8,0.8h0v-0.9h1.7v6
		C238.7,17.2,238.7,17.5,238.6,17.8z M236.2,15.6c0.2-0.1,0.4-0.2,0.5-0.4c0.1-0.2,0.2-0.4,0.3-0.6c0.1-0.2,0.1-0.4,0.1-0.7
		c0-0.3,0-0.5-0.1-0.8c0-0.2-0.1-0.4-0.2-0.6c-0.1-0.2-0.3-0.3-0.5-0.4c-0.2-0.1-0.4-0.2-0.7-0.2c-0.2,0-0.5,0-0.6,0.1
		c-0.2,0.1-0.3,0.2-0.5,0.4s-0.2,0.4-0.3,0.6c-0.1,0.2-0.1,0.5-0.1,0.7c0,0.2,0,0.5,0.1,0.7c0,0.2,0.1,0.4,0.2,0.6
		c0.1,0.2,0.3,0.3,0.4,0.4c0.2,0.1,0.4,0.2,0.7,0.2C235.8,15.8,236,15.7,236.2,15.6z"/>
	<path d="M242,15.8c0.3,0.3,0.6,0.4,1.1,0.4c0.4,0,0.7-0.1,0.9-0.3c0.3-0.2,0.4-0.4,0.5-0.6h1.6c-0.2,0.8-0.6,1.3-1.2,1.7
		s-1.1,0.5-1.9,0.5c-0.5,0-1-0.1-1.4-0.2c-0.4-0.2-0.8-0.4-1-0.7c-0.3-0.3-0.5-0.7-0.7-1.1c-0.2-0.4-0.2-0.9-0.2-1.4
		c0-0.5,0.1-0.9,0.2-1.4c0.2-0.4,0.4-0.8,0.7-1.1c0.3-0.3,0.6-0.5,1-0.7s0.9-0.3,1.3-0.3c0.6,0,1,0.1,1.4,0.3s0.7,0.5,1,0.9
		s0.5,0.8,0.6,1.2c0.1,0.5,0.2,0.9,0.1,1.4h-4.7C241.6,15.1,241.8,15.5,242,15.8z M244,12.4c-0.2-0.2-0.5-0.3-1-0.3
		c-0.3,0-0.5,0-0.7,0.1s-0.3,0.2-0.5,0.4s-0.2,0.3-0.2,0.4c0,0.2-0.1,0.3-0.1,0.4h2.9C244.4,12.9,244.3,12.6,244,12.4z"/>
	<path d="M250.7,12.8c0-0.4,0.1-0.8,0.3-1c0.2-0.3,0.4-0.5,0.7-0.7c0.3-0.2,0.6-0.3,1-0.4c0.4-0.1,0.7-0.1,1.1-0.1
		c0.3,0,0.7,0,1,0.1c0.3,0,0.6,0.1,0.9,0.3c0.3,0.1,0.5,0.3,0.7,0.6c0.2,0.2,0.3,0.6,0.3,0.9v3.4c0,0.3,0,0.6,0.1,0.8
		c0,0.3,0.1,0.5,0.2,0.6H255c0-0.1-0.1-0.2-0.1-0.3c0-0.1,0-0.2,0-0.3c-0.3,0.3-0.6,0.5-1,0.6c-0.4,0.1-0.8,0.2-1.2,0.2
		c-0.3,0-0.6,0-0.9-0.1c-0.3-0.1-0.5-0.2-0.7-0.3c-0.2-0.2-0.4-0.4-0.5-0.6c-0.1-0.2-0.2-0.5-0.2-0.9c0-0.4,0.1-0.7,0.2-0.9
		c0.1-0.2,0.3-0.4,0.5-0.6s0.4-0.2,0.7-0.3s0.5-0.1,0.8-0.2c0.3,0,0.5-0.1,0.8-0.1c0.3,0,0.5-0.1,0.7-0.1s0.4-0.1,0.5-0.2
		c0.1-0.1,0.2-0.2,0.2-0.4c0-0.2,0-0.3-0.1-0.5s-0.1-0.2-0.2-0.3c-0.1-0.1-0.2-0.1-0.4-0.1c-0.1,0-0.3,0-0.4,0
		c-0.3,0-0.6,0.1-0.8,0.2c-0.2,0.1-0.3,0.4-0.3,0.8H250.7z M254.8,14.1c-0.1,0.1-0.2,0.1-0.3,0.2s-0.2,0.1-0.4,0.1
		c-0.1,0-0.3,0-0.4,0.1c-0.1,0-0.3,0-0.4,0.1c-0.1,0-0.3,0.1-0.4,0.1c-0.1,0-0.2,0.1-0.3,0.2c-0.1,0.1-0.2,0.2-0.2,0.3
		c-0.1,0.1-0.1,0.2-0.1,0.4c0,0.2,0,0.3,0.1,0.4c0.1,0.1,0.1,0.2,0.2,0.3s0.2,0.1,0.3,0.1c0.1,0,0.3,0,0.4,0c0.3,0,0.6-0.1,0.8-0.2
		c0.2-0.1,0.3-0.3,0.4-0.4c0.1-0.2,0.1-0.3,0.2-0.5c0-0.2,0-0.3,0-0.4V14.1z"/>
	<path d="M261.5,10.9V12h-1.3v3.2c0,0.3,0,0.5,0.2,0.6c0.1,0.1,0.3,0.1,0.6,0.1c0.1,0,0.2,0,0.3,0c0.1,0,0.2,0,0.3,0v1.4
		c-0.1,0-0.3,0-0.5,0c-0.2,0-0.4,0-0.5,0c-0.3,0-0.5,0-0.8-0.1s-0.5-0.1-0.7-0.2s-0.3-0.3-0.4-0.5c-0.1-0.2-0.2-0.5-0.2-0.8V12h-1.1
		v-1.2h1.1V8.9h1.8v1.9H261.5z"/>
</g>
<path d="M15.5,23.3v1.2h-1.3v3.2c0,0.3,0.1,0.5,0.2,0.6c0.1,0.1,0.3,0.1,0.6,0.1c0.1,0,0.2,0,0.3,0c0.1,0,0.2,0,0.3,0v1.4
	c-0.1,0-0.3,0-0.5,0c-0.2,0-0.4,0-0.5,0c-0.3,0-0.5,0-0.8-0.1c-0.2,0-0.5-0.1-0.6-0.2c-0.2-0.1-0.3-0.3-0.4-0.5
	c-0.1-0.2-0.2-0.5-0.2-0.8v-3.8h-1.1v-1.2h1.1v-1.9h1.8v1.9H15.5z M18.1,20.9v3.4h0c0.2-0.4,0.5-0.6,0.9-0.8c0.4-0.2,0.7-0.3,1-0.3
	c0.5,0,0.9,0.1,1.2,0.2c0.3,0.1,0.5,0.3,0.7,0.5c0.2,0.2,0.3,0.5,0.4,0.8c0.1,0.3,0.1,0.7,0.1,1.1v4h-1.8v-3.6
	c0-0.5-0.1-0.9-0.2-1.2c-0.2-0.3-0.5-0.4-0.9-0.4c-0.5,0-0.8,0.1-1.1,0.4c-0.2,0.3-0.3,0.8-0.3,1.4v3.4h-1.8v-8.9H18.1z M25.7,28.3
	c0.3,0.3,0.6,0.4,1.1,0.4c0.4,0,0.7-0.1,0.9-0.3c0.3-0.2,0.4-0.4,0.5-0.6h1.6c-0.2,0.8-0.6,1.3-1.1,1.7c-0.5,0.3-1.1,0.5-1.9,0.5
	c-0.5,0-1-0.1-1.4-0.2c-0.4-0.2-0.8-0.4-1-0.7c-0.3-0.3-0.5-0.7-0.7-1.1c-0.2-0.4-0.2-0.9-0.2-1.4c0-0.5,0.1-0.9,0.2-1.4
	c0.2-0.4,0.4-0.8,0.7-1.1c0.3-0.3,0.6-0.5,1-0.7c0.4-0.2,0.9-0.3,1.3-0.3c0.5,0,1,0.1,1.4,0.3c0.4,0.2,0.7,0.5,1,0.9
	c0.3,0.4,0.5,0.8,0.6,1.2c0.1,0.5,0.2,0.9,0.1,1.4h-4.7C25.3,27.6,25.4,28,25.7,28.3z M27.7,24.9c-0.2-0.2-0.5-0.3-1-0.3
	c-0.3,0-0.5,0-0.7,0.1c-0.2,0.1-0.3,0.2-0.5,0.4c-0.1,0.1-0.2,0.3-0.2,0.4c0,0.2-0.1,0.3-0.1,0.4h2.9C28,25.4,27.9,25.1,27.7,24.9z
	 M35.9,28.2c0.1,0.1,0.2,0.2,0.3,0.3c0.1,0.1,0.3,0.2,0.4,0.2c0.2,0,0.3,0.1,0.5,0.1c0.1,0,0.3,0,0.4,0c0.1,0,0.3-0.1,0.4-0.1
	c0.1-0.1,0.2-0.1,0.3-0.2c0.1-0.1,0.1-0.2,0.1-0.4c0-0.3-0.2-0.5-0.5-0.6c-0.4-0.1-0.8-0.3-1.5-0.4c-0.3-0.1-0.5-0.1-0.8-0.2
	c-0.2-0.1-0.5-0.2-0.7-0.3c-0.2-0.1-0.3-0.3-0.5-0.5c-0.1-0.2-0.2-0.4-0.2-0.7c0-0.4,0.1-0.8,0.2-1c0.2-0.3,0.4-0.5,0.6-0.6
	c0.3-0.2,0.6-0.3,0.9-0.3c0.3-0.1,0.7-0.1,1-0.1c0.3,0,0.7,0,1,0.1c0.3,0.1,0.6,0.2,0.9,0.3c0.3,0.2,0.5,0.4,0.6,0.6
	c0.2,0.3,0.3,0.6,0.3,1h-1.7c0-0.3-0.2-0.6-0.4-0.7c-0.2-0.1-0.5-0.2-0.8-0.2c-0.1,0-0.2,0-0.3,0c-0.1,0-0.2,0-0.3,0.1
	c-0.1,0-0.2,0.1-0.2,0.2C36.1,24.7,36,24.8,36,25c0,0.2,0.1,0.3,0.2,0.4c0.1,0.1,0.3,0.2,0.5,0.2s0.4,0.1,0.6,0.2
	c0.2,0,0.5,0.1,0.7,0.2c0.3,0.1,0.5,0.1,0.8,0.2c0.2,0.1,0.5,0.2,0.7,0.3c0.2,0.1,0.3,0.3,0.5,0.5c0.1,0.2,0.2,0.5,0.2,0.8
	c0,0.4-0.1,0.8-0.3,1.1c-0.2,0.3-0.4,0.5-0.7,0.7c-0.3,0.2-0.6,0.3-0.9,0.4c-0.4,0.1-0.7,0.1-1.1,0.1c-0.4,0-0.7,0-1.1-0.1
	c-0.4-0.1-0.7-0.2-1-0.4c-0.3-0.2-0.5-0.4-0.7-0.7c-0.2-0.3-0.3-0.6-0.3-1.1h1.7C35.8,27.9,35.8,28.1,35.9,28.2z M44.7,23.3v1.2
	h-1.3v3.2c0,0.3,0,0.5,0.2,0.6c0.1,0.1,0.3,0.1,0.6,0.1c0.1,0,0.2,0,0.3,0c0.1,0,0.2,0,0.3,0v1.4c-0.1,0-0.3,0-0.5,0
	c-0.2,0-0.4,0-0.5,0c-0.3,0-0.5,0-0.8-0.1c-0.2,0-0.5-0.1-0.7-0.2c-0.2-0.1-0.3-0.3-0.4-0.5c-0.1-0.2-0.2-0.5-0.2-0.8v-3.8h-1.1
	v-1.2h1.1v-1.9h1.8v1.9H44.7z M47.2,25.3c0-0.4,0.2-0.6,0.3-0.8c0.2-0.1,0.5-0.2,0.8-0.2c0.2,0,0.3,0,0.4,0c0.1,0,0.3,0.1,0.4,0.1
	c0.1,0.1,0.2,0.2,0.2,0.3s0.1,0.3,0.1,0.5c0,0.2,0,0.3-0.2,0.4c-0.1,0.1-0.3,0.2-0.5,0.2S48.5,26,48.2,26c-0.3,0-0.5,0.1-0.8,0.1
	c-0.3,0-0.5,0.1-0.8,0.2c-0.3,0.1-0.5,0.2-0.7,0.3c-0.2,0.1-0.4,0.3-0.5,0.6c-0.1,0.2-0.2,0.5-0.2,0.9c0,0.3,0.1,0.6,0.2,0.9
	c0.1,0.2,0.3,0.4,0.5,0.6c0.2,0.2,0.4,0.3,0.7,0.3c0.3,0.1,0.6,0.1,0.9,0.1c0.4,0,0.8-0.1,1.2-0.2c0.4-0.1,0.7-0.3,1-0.6
	c0,0.1,0,0.2,0,0.3c0,0.1,0,0.2,0.1,0.3h1.8c-0.1-0.1-0.1-0.3-0.2-0.6c0-0.3-0.1-0.5-0.1-0.8V25c0-0.4-0.1-0.7-0.3-0.9
	c-0.2-0.2-0.4-0.4-0.7-0.6c-0.3-0.1-0.6-0.2-0.9-0.3c-0.3,0-0.7-0.1-1-0.1c-0.4,0-0.7,0-1.1,0.1c-0.4,0.1-0.7,0.2-1,0.4
	c-0.3,0.2-0.5,0.4-0.7,0.7c-0.2,0.3-0.3,0.6-0.3,1H47.2z M49.6,27.3c0,0.1,0,0.2,0,0.4c0,0.2-0.1,0.3-0.2,0.5
	c-0.1,0.2-0.2,0.3-0.4,0.4c-0.2,0.1-0.5,0.2-0.8,0.2c-0.1,0-0.3,0-0.4,0c-0.1,0-0.2-0.1-0.3-0.1s-0.2-0.1-0.2-0.3
	C47.1,28.3,47,28.1,47,28c0-0.2,0-0.3,0.1-0.4c0.1-0.1,0.1-0.2,0.2-0.3c0.1-0.1,0.2-0.1,0.3-0.2c0.1,0,0.3-0.1,0.4-0.1
	c0.1,0,0.3,0,0.4-0.1c0.1,0,0.3,0,0.4-0.1c0.1,0,0.2-0.1,0.4-0.1s0.2-0.1,0.3-0.2V27.3z M54.4,23.3v1.2h0c0.1-0.2,0.2-0.4,0.3-0.6
	c0.1-0.2,0.3-0.3,0.5-0.4c0.2-0.1,0.4-0.2,0.6-0.3c0.2-0.1,0.4-0.1,0.7-0.1c0.1,0,0.2,0,0.4,0.1v1.7c-0.1,0-0.2,0-0.3,0
	c-0.1,0-0.2,0-0.3,0c-0.3,0-0.6,0.1-0.8,0.2c-0.2,0.1-0.4,0.3-0.5,0.4s-0.2,0.4-0.3,0.7c-0.1,0.2-0.1,0.5-0.1,0.8v2.9h-1.8v-6.5
	H54.4z M61.1,23.3v1.2h-1.3v3.2c0,0.3,0,0.5,0.2,0.6c0.1,0.1,0.3,0.1,0.6,0.1c0.1,0,0.2,0,0.3,0c0.1,0,0.2,0,0.3,0v1.4
	c-0.1,0-0.3,0-0.5,0c-0.2,0-0.4,0-0.5,0c-0.3,0-0.5,0-0.8-0.1c-0.2,0-0.5-0.1-0.7-0.2c-0.2-0.1-0.3-0.3-0.4-0.5
	c-0.1-0.2-0.2-0.5-0.2-0.8v-3.8H57v-1.2H58v-1.9h1.8v1.9H61.1z M65.5,25.2c0.2-0.4,0.4-0.8,0.7-1.1c0.3-0.3,0.6-0.5,1.1-0.7
	c0.4-0.2,0.9-0.2,1.4-0.2c0.5,0,1,0.1,1.4,0.2c0.4,0.2,0.8,0.4,1.1,0.7c0.3,0.3,0.5,0.7,0.7,1.1c0.2,0.4,0.2,0.9,0.2,1.4
	c0,0.5-0.1,1-0.2,1.4c-0.2,0.4-0.4,0.8-0.7,1.1c-0.3,0.3-0.6,0.5-1.1,0.7S69.1,30,68.6,30c-0.5,0-1-0.1-1.4-0.2
	c-0.4-0.2-0.8-0.4-1.1-0.7c-0.3-0.3-0.5-0.7-0.7-1.1c-0.2-0.4-0.2-0.9-0.2-1.4C65.2,26.1,65.3,25.6,65.5,25.2z M67.1,27.3
	c0.1,0.2,0.1,0.5,0.3,0.7c0.1,0.2,0.3,0.4,0.5,0.5c0.2,0.1,0.4,0.2,0.8,0.2s0.6-0.1,0.8-0.2c0.2-0.1,0.4-0.3,0.5-0.5
	c0.1-0.2,0.2-0.4,0.3-0.7c0.1-0.2,0.1-0.5,0.1-0.8c0-0.3,0-0.5-0.1-0.8s-0.1-0.5-0.3-0.7c-0.1-0.2-0.3-0.3-0.5-0.5
	c-0.2-0.1-0.5-0.2-0.8-0.2s-0.6,0.1-0.8,0.2c-0.2,0.1-0.4,0.3-0.5,0.5c-0.1,0.2-0.2,0.4-0.3,0.7c0,0.2-0.1,0.5-0.1,0.8
	C67,26.8,67,27.1,67.1,27.3z M72.4,24.5v-1.2h1.1v-0.5c0-0.6,0.2-1,0.5-1.4c0.4-0.4,0.9-0.5,1.6-0.5c0.2,0,0.3,0,0.5,0
	c0.2,0,0.3,0,0.5,0v1.3c-0.2,0-0.4,0-0.7,0c-0.2,0-0.4,0.1-0.5,0.2c-0.1,0.1-0.2,0.3-0.2,0.6v0.4h1.2v1.2h-1.2v5.3h-1.8v-5.3H72.4z
	 M83.1,31.7c-0.3,0.2-0.8,0.3-1.4,0.3c-0.2,0-0.4,0-0.5,0c-0.2,0-0.4,0-0.5,0v-1.5c0.2,0,0.3,0,0.5,0.1c0.2,0,0.3,0,0.5,0
	c0.2,0,0.4-0.1,0.5-0.3c0.1-0.2,0.2-0.3,0.2-0.5c0-0.1,0-0.3-0.1-0.4L80,23.3h1.9l1.5,4.4h0l1.4-4.4h1.8l-2.7,7.3
	C83.7,31.1,83.4,31.5,83.1,31.7z M87.2,25.2c0.2-0.4,0.4-0.8,0.7-1.1c0.3-0.3,0.6-0.5,1.1-0.7c0.4-0.2,0.9-0.2,1.4-0.2
	c0.5,0,1,0.1,1.4,0.2c0.4,0.2,0.8,0.4,1.1,0.7c0.3,0.3,0.5,0.7,0.7,1.1c0.2,0.4,0.2,0.9,0.2,1.4c0,0.5-0.1,1-0.2,1.4
	c-0.2,0.4-0.4,0.8-0.7,1.1c-0.3,0.3-0.6,0.5-1.1,0.7S90.8,30,90.3,30c-0.5,0-1-0.1-1.4-0.2c-0.4-0.2-0.8-0.4-1.1-0.7
	c-0.3-0.3-0.5-0.7-0.7-1.1c-0.2-0.4-0.2-0.9-0.2-1.4C87,26.1,87.1,25.6,87.2,25.2z M88.9,27.3c0.1,0.2,0.1,0.5,0.3,0.7
	c0.1,0.2,0.3,0.4,0.5,0.5c0.2,0.1,0.4,0.2,0.8,0.2s0.6-0.1,0.8-0.2c0.2-0.1,0.4-0.3,0.5-0.5c0.1-0.2,0.2-0.4,0.3-0.7
	c0.1-0.2,0.1-0.5,0.1-0.8c0-0.3,0-0.5-0.1-0.8s-0.1-0.5-0.3-0.7c-0.1-0.2-0.3-0.3-0.5-0.5c-0.2-0.1-0.5-0.2-0.8-0.2
	s-0.6,0.1-0.8,0.2c-0.2,0.1-0.4,0.3-0.5,0.5c-0.1,0.2-0.2,0.4-0.3,0.7c0,0.2-0.1,0.5-0.1,0.8C88.8,26.8,88.8,27.1,88.9,27.3z
	 M99.2,29.8v-0.9h0c-0.2,0.4-0.5,0.6-0.9,0.8c-0.4,0.2-0.7,0.2-1.1,0.2c-0.5,0-0.9-0.1-1.2-0.2c-0.3-0.1-0.5-0.3-0.7-0.5
	c-0.2-0.2-0.3-0.5-0.4-0.8c-0.1-0.3-0.1-0.7-0.1-1.1v-4h1.8V27c0,0.5,0.1,0.9,0.2,1.2c0.2,0.3,0.5,0.4,0.9,0.4c0.5,0,0.8-0.1,1-0.4
	c0.2-0.3,0.3-0.8,0.3-1.4v-3.4h1.8v6.5H99.2z M103.9,23.3v1.2h0c0.1-0.2,0.2-0.4,0.3-0.6c0.1-0.2,0.3-0.3,0.5-0.4
	c0.2-0.1,0.4-0.2,0.6-0.3c0.2-0.1,0.4-0.1,0.6-0.1c0.1,0,0.2,0,0.4,0.1v1.7c-0.1,0-0.2,0-0.3,0c-0.1,0-0.2,0-0.3,0
	c-0.3,0-0.6,0.1-0.8,0.2c-0.2,0.1-0.4,0.3-0.5,0.4c-0.1,0.2-0.2,0.4-0.3,0.7c-0.1,0.2-0.1,0.5-0.1,0.8v2.9h-1.8v-6.5H103.9z
	 M113.7,24.5c-0.3,0-0.5,0.1-0.7,0.2c-0.2,0.1-0.3,0.3-0.5,0.5c-0.1,0.2-0.2,0.4-0.3,0.7c0,0.2-0.1,0.5-0.1,0.7c0,0.2,0,0.5,0.1,0.7
	c0.1,0.2,0.1,0.5,0.2,0.7c0.1,0.2,0.3,0.4,0.5,0.5c0.2,0.1,0.4,0.2,0.7,0.2c0.4,0,0.8-0.1,1-0.4c0.2-0.2,0.4-0.6,0.4-1h1.7
	c-0.1,0.9-0.4,1.5-1,2c-0.5,0.5-1.3,0.7-2.1,0.7c-0.5,0-0.9-0.1-1.3-0.2c-0.4-0.2-0.7-0.4-1-0.7c-0.3-0.3-0.5-0.6-0.7-1
	c-0.2-0.4-0.2-0.8-0.2-1.3c0-0.5,0.1-1,0.2-1.4c0.1-0.4,0.4-0.8,0.6-1.1c0.3-0.3,0.6-0.6,1-0.7c0.4-0.2,0.9-0.3,1.4-0.3
	c0.4,0,0.8,0.1,1.1,0.2c0.4,0.1,0.7,0.3,1,0.5c0.3,0.2,0.5,0.5,0.7,0.8c0.2,0.3,0.3,0.7,0.3,1.1H115
	C114.9,24.9,114.4,24.5,113.7,24.5L113.7,24.5z M119.5,25.3c0-0.4,0.2-0.6,0.3-0.8c0.2-0.1,0.5-0.2,0.8-0.2c0.2,0,0.3,0,0.4,0
	c0.1,0,0.3,0.1,0.4,0.1c0.1,0.1,0.2,0.2,0.2,0.3s0.1,0.3,0.1,0.5c0,0.2,0,0.3-0.2,0.4c-0.1,0.1-0.3,0.2-0.5,0.2s-0.4,0.1-0.7,0.1
	c-0.3,0-0.5,0.1-0.8,0.1c-0.3,0-0.5,0.1-0.8,0.2c-0.3,0.1-0.5,0.2-0.7,0.3c-0.2,0.1-0.4,0.3-0.5,0.6c-0.1,0.2-0.2,0.5-0.2,0.9
	c0,0.3,0.1,0.6,0.2,0.9c0.1,0.2,0.3,0.4,0.5,0.6c0.2,0.2,0.4,0.3,0.7,0.3c0.3,0.1,0.6,0.1,0.9,0.1c0.4,0,0.8-0.1,1.2-0.2
	c0.4-0.1,0.7-0.3,1-0.6c0,0.1,0,0.2,0,0.3c0,0.1,0,0.2,0.1,0.3h1.8c-0.1-0.1-0.1-0.3-0.2-0.6c0-0.3-0.1-0.5-0.1-0.8V25
	c0-0.4-0.1-0.7-0.3-0.9c-0.2-0.2-0.4-0.4-0.7-0.6c-0.3-0.1-0.6-0.2-0.9-0.3c-0.3,0-0.7-0.1-1-0.1c-0.4,0-0.7,0-1.1,0.1
	c-0.4,0.1-0.7,0.2-1,0.4c-0.3,0.2-0.5,0.4-0.7,0.7c-0.2,0.3-0.3,0.6-0.3,1H119.5z M121.8,27.3c0,0.1,0,0.2,0,0.4
	c0,0.2-0.1,0.3-0.2,0.5c-0.1,0.2-0.2,0.3-0.4,0.4c-0.2,0.1-0.5,0.2-0.8,0.2c-0.1,0-0.3,0-0.4,0c-0.1,0-0.2-0.1-0.3-0.1
	s-0.2-0.1-0.2-0.3c-0.1-0.1-0.1-0.2-0.1-0.4c0-0.2,0-0.3,0.1-0.4c0.1-0.1,0.1-0.2,0.2-0.3c0.1-0.1,0.2-0.1,0.3-0.2
	c0.1,0,0.3-0.1,0.4-0.1c0.1,0,0.3,0,0.4-0.1c0.1,0,0.3,0,0.4-0.1c0.1,0,0.2-0.1,0.4-0.1c0.1,0,0.2-0.1,0.3-0.2V27.3z M126.6,23.3
	v1.2h0c0.1-0.2,0.2-0.4,0.3-0.6c0.1-0.2,0.3-0.3,0.5-0.4c0.2-0.1,0.4-0.2,0.6-0.3c0.2-0.1,0.4-0.1,0.6-0.1c0.1,0,0.2,0,0.4,0.1v1.7
	c-0.1,0-0.2,0-0.3,0c-0.1,0-0.2,0-0.3,0c-0.3,0-0.6,0.1-0.8,0.2c-0.2,0.1-0.4,0.3-0.5,0.4s-0.2,0.4-0.3,0.7
	c-0.1,0.2-0.1,0.5-0.1,0.8v2.9h-1.8v-6.5H126.6z M131.5,28.3c0.3,0.3,0.7,0.4,1.2,0.4c0.4,0,0.7-0.1,0.9-0.3
	c0.3-0.2,0.4-0.4,0.5-0.6h1.6c-0.2,0.8-0.6,1.3-1.1,1.7c-0.5,0.3-1.1,0.5-1.9,0.5c-0.5,0-1-0.1-1.4-0.2c-0.4-0.2-0.8-0.4-1-0.7
	c-0.3-0.3-0.5-0.7-0.7-1.1c-0.2-0.4-0.2-0.9-0.2-1.4c0-0.5,0.1-0.9,0.2-1.4c0.2-0.4,0.4-0.8,0.7-1.1c0.3-0.3,0.6-0.5,1-0.7
	c0.4-0.2,0.9-0.3,1.3-0.3c0.5,0,1,0.1,1.4,0.3c0.4,0.2,0.7,0.5,1,0.9c0.3,0.4,0.5,0.8,0.6,1.2c0.1,0.5,0.2,0.9,0.1,1.4H131
	C131.1,27.6,131.2,28,131.5,28.3z M133.5,24.9c-0.2-0.2-0.5-0.3-1-0.3c-0.3,0-0.5,0-0.7,0.1c-0.2,0.1-0.3,0.2-0.4,0.4
	c-0.1,0.1-0.2,0.3-0.2,0.4c0,0.2-0.1,0.3-0.1,0.4h2.9C133.8,25.4,133.7,25.1,133.5,24.9z M138.7,28.3c0.3,0.3,0.7,0.4,1.2,0.4
	c0.4,0,0.7-0.1,0.9-0.3c0.3-0.2,0.4-0.4,0.5-0.6h1.6c-0.2,0.8-0.6,1.3-1.1,1.7c-0.5,0.3-1.1,0.5-1.9,0.5c-0.5,0-1-0.1-1.4-0.2
	c-0.4-0.2-0.8-0.4-1-0.7c-0.3-0.3-0.5-0.7-0.7-1.1c-0.2-0.4-0.2-0.9-0.2-1.4c0-0.5,0.1-0.9,0.2-1.4c0.2-0.4,0.4-0.8,0.7-1.1
	c0.3-0.3,0.6-0.5,1-0.7c0.4-0.2,0.9-0.3,1.3-0.3c0.5,0,1,0.1,1.4,0.3c0.4,0.2,0.7,0.5,1,0.9c0.3,0.4,0.5,0.8,0.6,1.2
	c0.1,0.5,0.2,0.9,0.1,1.4h-4.7C138.2,27.6,138.4,28,138.7,28.3z M140.7,24.9c-0.2-0.2-0.5-0.3-1-0.3c-0.3,0-0.5,0-0.7,0.1
	c-0.2,0.1-0.3,0.2-0.4,0.4c-0.1,0.1-0.2,0.3-0.2,0.4c0,0.2-0.1,0.3-0.1,0.4h2.9C141,25.4,140.9,25.1,140.7,24.9z M145.6,23.3v1.2h0
	c0.1-0.2,0.2-0.4,0.3-0.6c0.1-0.2,0.3-0.3,0.5-0.4c0.2-0.1,0.4-0.2,0.6-0.3c0.2-0.1,0.4-0.1,0.6-0.1c0.1,0,0.2,0,0.4,0.1v1.7
	c-0.1,0-0.2,0-0.3,0c-0.1,0-0.2,0-0.3,0c-0.3,0-0.6,0.1-0.8,0.2c-0.2,0.1-0.4,0.3-0.5,0.4s-0.2,0.4-0.3,0.7
	c-0.1,0.2-0.1,0.5-0.1,0.8v2.9h-1.8v-6.5H145.6z M152.3,22.3v-1.5h1.8v1.5H152.3z M154.1,23.3v6.5h-1.8v-6.5H154.1z M157,28.2
	c0.1,0.1,0.2,0.2,0.3,0.3c0.1,0.1,0.3,0.2,0.4,0.2c0.2,0,0.3,0.1,0.5,0.1c0.1,0,0.3,0,0.4,0c0.1,0,0.3-0.1,0.4-0.1
	c0.1-0.1,0.2-0.1,0.3-0.2c0.1-0.1,0.1-0.2,0.1-0.4c0-0.3-0.2-0.5-0.5-0.6c-0.4-0.1-0.8-0.3-1.5-0.4c-0.3-0.1-0.5-0.1-0.8-0.2
	c-0.2-0.1-0.5-0.2-0.7-0.3c-0.2-0.1-0.3-0.3-0.5-0.5c-0.1-0.2-0.2-0.4-0.2-0.7c0-0.4,0.1-0.8,0.2-1c0.2-0.3,0.4-0.5,0.6-0.6
	c0.3-0.2,0.6-0.3,0.9-0.3c0.3-0.1,0.7-0.1,1-0.1c0.4,0,0.7,0,1,0.1c0.3,0.1,0.6,0.2,0.9,0.3c0.3,0.2,0.5,0.4,0.6,0.6
	c0.2,0.3,0.3,0.6,0.3,1h-1.7c0-0.3-0.2-0.6-0.4-0.7c-0.2-0.1-0.5-0.2-0.8-0.2c-0.1,0-0.2,0-0.3,0c-0.1,0-0.2,0-0.3,0.1
	c-0.1,0-0.2,0.1-0.2,0.2c-0.1,0.1-0.1,0.2-0.1,0.3c0,0.2,0.1,0.3,0.2,0.4c0.1,0.1,0.3,0.2,0.5,0.2s0.4,0.1,0.6,0.2
	c0.2,0,0.5,0.1,0.7,0.2c0.3,0.1,0.5,0.1,0.8,0.2c0.2,0.1,0.5,0.2,0.7,0.3c0.2,0.1,0.3,0.3,0.5,0.5c0.1,0.2,0.2,0.5,0.2,0.8
	c0,0.4-0.1,0.8-0.3,1.1c-0.2,0.3-0.4,0.5-0.7,0.7c-0.3,0.2-0.6,0.3-0.9,0.4c-0.4,0.1-0.7,0.1-1.1,0.1c-0.4,0-0.7,0-1.1-0.1
	c-0.4-0.1-0.7-0.2-1-0.4c-0.3-0.2-0.5-0.4-0.7-0.7c-0.2-0.3-0.3-0.6-0.3-1.1h1.7C156.9,27.9,156.9,28.1,157,28.2z M167.4,25.3
	c0-0.4,0.1-0.6,0.4-0.8c0.2-0.1,0.5-0.2,0.8-0.2c0.2,0,0.3,0,0.4,0c0.1,0,0.3,0.1,0.4,0.1c0.1,0.1,0.2,0.2,0.2,0.3s0.1,0.3,0.1,0.5
	c0,0.2,0,0.3-0.2,0.4c-0.1,0.1-0.3,0.2-0.5,0.2s-0.4,0.1-0.7,0.1c-0.3,0-0.5,0.1-0.8,0.1c-0.3,0-0.5,0.1-0.8,0.2
	c-0.3,0.1-0.5,0.2-0.7,0.3c-0.2,0.1-0.4,0.3-0.5,0.6c-0.1,0.2-0.2,0.5-0.2,0.9c0,0.3,0.1,0.6,0.2,0.9c0.1,0.2,0.3,0.4,0.5,0.6
	c0.2,0.2,0.4,0.3,0.7,0.3c0.3,0.1,0.6,0.1,0.9,0.1c0.4,0,0.8-0.1,1.2-0.2c0.4-0.1,0.7-0.3,1-0.6c0,0.1,0,0.2,0,0.3
	c0,0.1,0,0.2,0.1,0.3h1.8c-0.1-0.1-0.1-0.3-0.2-0.6c0-0.3,0-0.5,0-0.8V25c0-0.4-0.1-0.7-0.3-0.9c-0.2-0.2-0.4-0.4-0.7-0.6
	c-0.3-0.1-0.6-0.2-0.9-0.3c-0.3,0-0.7-0.1-1-0.1c-0.4,0-0.7,0-1.1,0.1c-0.4,0.1-0.7,0.2-1,0.4c-0.3,0.2-0.5,0.4-0.7,0.7
	c-0.2,0.3-0.3,0.6-0.3,1H167.4z M169.7,27.3c0,0.1,0,0.2,0,0.4c0,0.2-0.1,0.3-0.2,0.5c-0.1,0.2-0.2,0.3-0.4,0.4
	c-0.2,0.1-0.5,0.2-0.8,0.2c-0.1,0-0.3,0-0.4,0c-0.1,0-0.2-0.1-0.4-0.1s-0.2-0.1-0.2-0.3c-0.1-0.1-0.1-0.2-0.1-0.4
	c0-0.2,0-0.3,0.1-0.4c0.1-0.1,0.1-0.2,0.2-0.3c0.1-0.1,0.2-0.1,0.3-0.2c0.1,0,0.3-0.1,0.4-0.1c0.1,0,0.3,0,0.4-0.1
	c0.1,0,0.3,0,0.4-0.1c0.1,0,0.2-0.1,0.4-0.1s0.2-0.1,0.3-0.2V27.3z M182.4,30.3c-0.1,0.3-0.2,0.6-0.5,0.9c-0.2,0.3-0.6,0.5-1,0.7
	c-0.4,0.2-1,0.3-1.8,0.3c-0.3,0-0.6,0-1-0.1c-0.3-0.1-0.6-0.2-0.9-0.4c-0.3-0.2-0.5-0.4-0.7-0.6c-0.2-0.3-0.3-0.6-0.3-0.9h1.8
	c0.1,0.3,0.2,0.6,0.5,0.7c0.2,0.1,0.5,0.2,0.8,0.2c0.5,0,0.9-0.1,1.1-0.5c0.2-0.3,0.3-0.7,0.3-1.1v-0.9h0c-0.2,0.3-0.5,0.6-0.8,0.8
	c-0.4,0.2-0.7,0.2-1.1,0.2c-0.5,0-0.9-0.1-1.2-0.3c-0.4-0.2-0.6-0.4-0.9-0.7c-0.2-0.3-0.4-0.6-0.5-1c-0.1-0.4-0.2-0.8-0.2-1.3
	c0-0.4,0.1-0.8,0.2-1.2c0.1-0.4,0.3-0.7,0.5-1c0.2-0.3,0.5-0.5,0.9-0.7c0.3-0.2,0.7-0.3,1.2-0.3c0.4,0,0.8,0.1,1.1,0.2
	c0.3,0.2,0.6,0.4,0.8,0.8h0v-0.9h1.7v6C182.5,29.7,182.5,30,182.4,30.3z M180,28.1c0.2-0.1,0.3-0.2,0.5-0.4c0.1-0.2,0.2-0.4,0.3-0.6
	c0.1-0.2,0.1-0.4,0.1-0.7c0-0.3,0-0.5-0.1-0.8c-0.1-0.2-0.1-0.4-0.2-0.6c-0.1-0.2-0.3-0.3-0.5-0.4c-0.2-0.1-0.4-0.2-0.7-0.2
	c-0.2,0-0.5,0-0.6,0.1c-0.2,0.1-0.3,0.2-0.4,0.4c-0.1,0.2-0.2,0.4-0.3,0.6c-0.1,0.2-0.1,0.5-0.1,0.7c0,0.2,0,0.5,0.1,0.7
	c0,0.2,0.1,0.4,0.2,0.6c0.1,0.2,0.3,0.3,0.4,0.4c0.2,0.1,0.4,0.2,0.7,0.2C179.6,28.3,179.8,28.2,180,28.1z M184,25.2
	c0.2-0.4,0.4-0.8,0.7-1.1c0.3-0.3,0.6-0.5,1.1-0.7c0.4-0.2,0.9-0.2,1.4-0.2c0.5,0,1,0.1,1.4,0.2c0.4,0.2,0.8,0.4,1.1,0.7
	c0.3,0.3,0.5,0.7,0.7,1.1c0.2,0.4,0.2,0.9,0.2,1.4c0,0.5-0.1,1-0.2,1.4c-0.2,0.4-0.4,0.8-0.7,1.1c-0.3,0.3-0.6,0.5-1.1,0.7
	c-0.4,0.2-0.9,0.2-1.4,0.2c-0.5,0-1-0.1-1.4-0.2c-0.4-0.2-0.8-0.4-1.1-0.7c-0.3-0.3-0.5-0.7-0.7-1.1c-0.2-0.4-0.2-0.9-0.2-1.4
	C183.8,26.1,183.8,25.6,184,25.2z M185.6,27.3c0.1,0.2,0.1,0.5,0.3,0.7c0.1,0.2,0.3,0.4,0.5,0.5c0.2,0.1,0.4,0.2,0.8,0.2
	s0.6-0.1,0.8-0.2c0.2-0.1,0.4-0.3,0.5-0.5c0.1-0.2,0.2-0.4,0.3-0.7c0.1-0.2,0.1-0.5,0.1-0.8c0-0.3,0-0.5-0.1-0.8s-0.1-0.5-0.3-0.7
	c-0.1-0.2-0.3-0.3-0.5-0.5c-0.2-0.1-0.5-0.2-0.8-0.2s-0.6,0.1-0.8,0.2c-0.2,0.1-0.4,0.3-0.5,0.5c-0.1,0.2-0.2,0.4-0.3,0.7
	s-0.1,0.5-0.1,0.8C185.5,26.8,185.6,27.1,185.6,27.3z M191.6,25.2c0.2-0.4,0.4-0.8,0.7-1.1c0.3-0.3,0.6-0.5,1.1-0.7
	c0.4-0.2,0.9-0.2,1.4-0.2c0.5,0,1,0.1,1.4,0.2c0.4,0.2,0.8,0.4,1.1,0.7c0.3,0.3,0.5,0.7,0.7,1.1c0.2,0.4,0.2,0.9,0.2,1.4
	c0,0.5-0.1,1-0.2,1.4c-0.2,0.4-0.4,0.8-0.7,1.1c-0.3,0.3-0.6,0.5-1.1,0.7c-0.4,0.2-0.9,0.2-1.4,0.2c-0.5,0-1-0.1-1.4-0.2
	c-0.4-0.2-0.8-0.4-1.1-0.7c-0.3-0.3-0.5-0.7-0.7-1.1c-0.2-0.4-0.2-0.9-0.2-1.4C191.4,26.1,191.5,25.6,191.6,25.2z M193.3,27.3
	c0.1,0.2,0.1,0.5,0.3,0.7c0.1,0.2,0.3,0.4,0.5,0.5c0.2,0.1,0.4,0.2,0.8,0.2s0.6-0.1,0.8-0.2c0.2-0.1,0.4-0.3,0.5-0.5
	c0.1-0.2,0.2-0.4,0.3-0.7c0.1-0.2,0.1-0.5,0.1-0.8c0-0.3,0-0.5-0.1-0.8s-0.1-0.5-0.3-0.7c-0.1-0.2-0.3-0.3-0.5-0.5
	c-0.2-0.1-0.5-0.2-0.8-0.2s-0.6,0.1-0.8,0.2c-0.2,0.1-0.4,0.3-0.5,0.5c-0.1,0.2-0.2,0.4-0.3,0.7s-0.1,0.5-0.1,0.8
	C193.2,26.8,193.2,27.1,193.3,27.3z M203.8,29c-0.2,0.4-0.5,0.6-0.8,0.8c-0.3,0.2-0.7,0.2-1.1,0.2c-0.5,0-0.9-0.1-1.3-0.3
	c-0.4-0.2-0.7-0.4-0.9-0.8c-0.2-0.3-0.4-0.7-0.5-1.1c-0.1-0.4-0.2-0.9-0.2-1.3c0-0.4,0.1-0.9,0.2-1.3c0.1-0.4,0.3-0.8,0.5-1.1
	c0.2-0.3,0.5-0.6,0.9-0.7c0.4-0.2,0.8-0.3,1.2-0.3c0.4,0,0.7,0.1,1.1,0.2c0.3,0.2,0.6,0.4,0.8,0.7h0v-3.2h1.8v8.9h-1.7L203.8,29
	L203.8,29z M203.8,25.8c-0.1-0.2-0.1-0.5-0.3-0.7c-0.1-0.2-0.3-0.3-0.5-0.5c-0.2-0.1-0.4-0.2-0.7-0.2c-0.3,0-0.5,0.1-0.7,0.2
	c-0.2,0.1-0.4,0.3-0.5,0.5c-0.1,0.2-0.2,0.4-0.3,0.7c-0.1,0.2-0.1,0.5-0.1,0.8c0,0.2,0,0.5,0.1,0.8c0.1,0.2,0.2,0.5,0.3,0.7
	c0.1,0.2,0.3,0.4,0.5,0.5c0.2,0.1,0.4,0.2,0.7,0.2c0.3,0,0.5-0.1,0.7-0.2c0.2-0.1,0.4-0.3,0.5-0.5c0.1-0.2,0.2-0.4,0.2-0.7
	s0.1-0.5,0.1-0.8C203.8,26.3,203.8,26,203.8,25.8z M209.7,24.5v-1.2h1.1v-0.5c0-0.6,0.2-1,0.5-1.4c0.4-0.4,0.9-0.5,1.6-0.5
	c0.2,0,0.3,0,0.5,0c0.2,0,0.3,0,0.5,0v1.3c-0.2,0-0.4,0-0.7,0c-0.2,0-0.4,0.1-0.5,0.2c-0.1,0.1-0.2,0.3-0.2,0.6v0.4h1.2v1.2h-1.2
	v5.3h-1.8v-5.3H209.7z M214.8,22.3v-1.5h1.8v1.5H214.8z M216.6,23.3v6.5h-1.8v-6.5H216.6z M219.7,23.3v1.2h0
	c0.1-0.2,0.2-0.4,0.3-0.6c0.1-0.2,0.3-0.3,0.5-0.4c0.2-0.1,0.4-0.2,0.6-0.3c0.2-0.1,0.4-0.1,0.6-0.1c0.1,0,0.2,0,0.4,0.1v1.7
	c-0.1,0-0.2,0-0.3,0c-0.1,0-0.2,0-0.3,0c-0.3,0-0.6,0.1-0.8,0.2c-0.2,0.1-0.4,0.3-0.5,0.4s-0.2,0.4-0.3,0.7
	c-0.1,0.2-0.1,0.5-0.1,0.8v2.9H218v-6.5H219.7z M224.3,28.2c0.1,0.1,0.2,0.2,0.3,0.3c0.1,0.1,0.3,0.2,0.4,0.2c0.2,0,0.3,0.1,0.5,0.1
	c0.1,0,0.3,0,0.4,0c0.1,0,0.3-0.1,0.4-0.1c0.1-0.1,0.2-0.1,0.3-0.2c0.1-0.1,0.1-0.2,0.1-0.4c0-0.3-0.2-0.5-0.5-0.6
	c-0.4-0.1-0.8-0.3-1.5-0.4c-0.3-0.1-0.5-0.1-0.8-0.2c-0.2-0.1-0.5-0.2-0.7-0.3c-0.2-0.1-0.3-0.3-0.5-0.5c-0.1-0.2-0.2-0.4-0.2-0.7
	c0-0.4,0.1-0.8,0.2-1c0.2-0.3,0.4-0.5,0.6-0.6c0.3-0.2,0.6-0.3,0.9-0.3c0.3-0.1,0.7-0.1,1-0.1c0.4,0,0.7,0,1,0.1
	c0.3,0.1,0.6,0.2,0.9,0.3c0.3,0.2,0.5,0.4,0.6,0.6c0.2,0.3,0.3,0.6,0.3,1h-1.7c0-0.3-0.2-0.6-0.4-0.7c-0.2-0.1-0.5-0.2-0.8-0.2
	c-0.1,0-0.2,0-0.3,0c-0.1,0-0.2,0-0.3,0.1c-0.1,0-0.2,0.1-0.2,0.2c-0.1,0.1-0.1,0.2-0.1,0.3c0,0.2,0.1,0.3,0.2,0.4
	c0.1,0.1,0.3,0.2,0.5,0.2s0.4,0.1,0.6,0.2c0.2,0,0.5,0.1,0.7,0.2c0.3,0.1,0.5,0.1,0.8,0.2c0.2,0.1,0.5,0.2,0.7,0.3
	c0.2,0.1,0.3,0.3,0.5,0.5c0.1,0.2,0.2,0.5,0.2,0.8c0,0.4-0.1,0.8-0.3,1.1c-0.2,0.3-0.4,0.5-0.7,0.7c-0.3,0.2-0.6,0.3-0.9,0.4
	c-0.4,0.1-0.7,0.1-1.1,0.1c-0.4,0-0.7,0-1.1-0.1c-0.4-0.1-0.7-0.2-1-0.4c-0.3-0.2-0.5-0.4-0.7-0.7c-0.2-0.3-0.3-0.6-0.3-1.1h1.7
	C224.2,27.9,224.3,28.1,224.3,28.2z M233.1,23.3v1.2h-1.3v3.2c0,0.3,0.1,0.5,0.1,0.6c0.1,0.1,0.3,0.1,0.6,0.1c0.1,0,0.2,0,0.3,0
	c0.1,0,0.2,0,0.3,0v1.4c-0.2,0-0.3,0-0.5,0c-0.2,0-0.4,0-0.5,0c-0.3,0-0.5,0-0.8-0.1c-0.2,0-0.5-0.1-0.6-0.2
	c-0.2-0.1-0.3-0.3-0.4-0.5c-0.1-0.2-0.2-0.5-0.2-0.8v-3.8H229v-1.2h1.1v-1.9h1.8v1.9H233.1z M238.9,28.2c0.1,0.1,0.2,0.2,0.3,0.3
	c0.1,0.1,0.3,0.2,0.4,0.2c0.2,0,0.3,0.1,0.5,0.1c0.1,0,0.3,0,0.4,0c0.1,0,0.3-0.1,0.4-0.1c0.1-0.1,0.2-0.1,0.3-0.2
	c0.1-0.1,0.1-0.2,0.1-0.4c0-0.3-0.2-0.5-0.5-0.6c-0.4-0.1-0.8-0.3-1.5-0.4c-0.3-0.1-0.5-0.1-0.8-0.2c-0.2-0.1-0.5-0.2-0.7-0.3
	c-0.2-0.1-0.3-0.3-0.5-0.5c-0.1-0.2-0.2-0.4-0.2-0.7c0-0.4,0.1-0.8,0.2-1c0.2-0.3,0.4-0.5,0.6-0.6c0.3-0.2,0.6-0.3,0.9-0.3
	c0.3-0.1,0.7-0.1,1-0.1c0.4,0,0.7,0,1,0.1c0.3,0.1,0.6,0.2,0.9,0.3c0.3,0.2,0.5,0.4,0.6,0.6c0.2,0.3,0.3,0.6,0.3,1h-1.7
	c0-0.3-0.2-0.6-0.4-0.7c-0.2-0.1-0.5-0.2-0.8-0.2c-0.1,0-0.2,0-0.3,0c-0.1,0-0.2,0-0.3,0.1c-0.1,0-0.2,0.1-0.2,0.2
	c-0.1,0.1-0.1,0.2-0.1,0.3c0,0.2,0.1,0.3,0.2,0.4c0.1,0.1,0.3,0.2,0.5,0.2s0.4,0.1,0.6,0.2c0.2,0,0.5,0.1,0.7,0.2
	c0.3,0.1,0.5,0.1,0.8,0.2c0.2,0.1,0.5,0.2,0.7,0.3c0.2,0.1,0.3,0.3,0.5,0.5c0.1,0.2,0.2,0.5,0.2,0.8c0,0.4-0.1,0.8-0.3,1.1
	c-0.2,0.3-0.4,0.5-0.7,0.7c-0.3,0.2-0.6,0.3-0.9,0.4c-0.4,0.1-0.7,0.1-1.1,0.1c-0.4,0-0.7,0-1.1-0.1c-0.4-0.1-0.7-0.2-1-0.4
	c-0.3-0.2-0.5-0.4-0.7-0.7c-0.2-0.3-0.3-0.6-0.3-1.1h1.7C238.8,27.9,238.9,28.1,238.9,28.2z M247.7,23.3v1.2h-1.3v3.2
	c0,0.3,0.1,0.5,0.1,0.6c0.1,0.1,0.3,0.1,0.6,0.1c0.1,0,0.2,0,0.3,0c0.1,0,0.2,0,0.3,0v1.4c-0.2,0-0.3,0-0.5,0c-0.2,0-0.4,0-0.5,0
	c-0.3,0-0.5,0-0.8-0.1c-0.2,0-0.5-0.1-0.6-0.2c-0.2-0.1-0.3-0.3-0.4-0.5c-0.1-0.2-0.2-0.5-0.2-0.8v-3.8h-1.1v-1.2h1.1v-1.9h1.8v1.9
	H247.7z M250.5,28.3c0.3,0.3,0.7,0.4,1.2,0.4c0.4,0,0.7-0.1,0.9-0.3c0.3-0.2,0.4-0.4,0.5-0.6h1.6c-0.2,0.8-0.6,1.3-1.1,1.7
	c-0.5,0.3-1.1,0.5-1.9,0.5c-0.5,0-1-0.1-1.4-0.2c-0.4-0.2-0.8-0.4-1-0.7c-0.3-0.3-0.5-0.7-0.7-1.1c-0.2-0.4-0.2-0.9-0.2-1.4
	c0-0.5,0.1-0.9,0.2-1.4c0.2-0.4,0.4-0.8,0.7-1.1c0.3-0.3,0.6-0.5,1-0.7c0.4-0.2,0.9-0.3,1.3-0.3c0.5,0,1,0.1,1.4,0.3
	c0.4,0.2,0.7,0.5,1,0.9c0.3,0.4,0.5,0.8,0.6,1.2c0.1,0.5,0.2,0.9,0.1,1.4H250C250,27.6,250.2,28,250.5,28.3z M252.5,24.9
	c-0.2-0.2-0.5-0.3-1-0.3c-0.3,0-0.5,0-0.7,0.1c-0.2,0.1-0.3,0.2-0.4,0.4c-0.1,0.1-0.2,0.3-0.2,0.4c0,0.2-0.1,0.3-0.1,0.4h2.9
	C252.8,25.4,252.7,25.1,252.5,24.9z M257.4,23.3v0.8h0c0.2-0.3,0.5-0.6,0.8-0.8c0.3-0.2,0.7-0.2,1.1-0.2c0.5,0,0.9,0.1,1.3,0.3
	c0.4,0.2,0.7,0.4,0.9,0.8c0.2,0.3,0.4,0.7,0.5,1.1c0.1,0.4,0.2,0.9,0.2,1.3c0,0.4-0.1,0.9-0.2,1.2c-0.1,0.4-0.3,0.8-0.5,1.1
	c-0.2,0.3-0.5,0.6-0.9,0.7c-0.4,0.2-0.8,0.3-1.2,0.3c-0.4,0-0.8-0.1-1.1-0.2c-0.3-0.2-0.6-0.4-0.8-0.7h0v3.1h-1.8v-8.7H257.4z
	 M259.7,28.5c0.2-0.1,0.4-0.3,0.5-0.5c0.1-0.2,0.2-0.4,0.3-0.7c0.1-0.2,0.1-0.5,0.1-0.8c0-0.3,0-0.5-0.1-0.8
	c-0.1-0.2-0.1-0.5-0.3-0.7c-0.1-0.2-0.3-0.4-0.5-0.5c-0.2-0.1-0.4-0.2-0.7-0.2c-0.3,0-0.5,0.1-0.7,0.2c-0.2,0.1-0.4,0.3-0.5,0.5
	c-0.1,0.2-0.2,0.4-0.3,0.7c0,0.2-0.1,0.5-0.1,0.8c0,0.3,0,0.5,0.1,0.8c0.1,0.2,0.1,0.5,0.3,0.7c0.1,0.2,0.3,0.3,0.5,0.5
	c0.2,0.1,0.4,0.2,0.7,0.2C259.3,28.6,259.5,28.6,259.7,28.5z M265.4,27.9v1.9h-2v-1.9H265.4z"/>
</svg>
