<?xml version="1.0" encoding="utf-8"?>
<!-- Generator: Adobe Illustrator 25.4.1, SVG Export Plug-In . SVG Version: 6.00 Build 0)  -->
<svg version="1.1" id="Layer_1" xmlns="http://www.w3.org/2000/svg" xmlns:xlink="http://www.w3.org/1999/xlink" x="0px" y="0px"
	 viewBox="0 0 300 50" style="enable-background:new 0 0 300 50;" xml:space="preserve">
<style type="text/css">
	.st0{clip-path:url(#SVGID_00000154396223583463551960000013065467210429044878_);fill:#349946;}
	.st1{fill:#FFFFFF;}
</style>
<g>
	<defs>
		<rect id="SVGID_1_" x="201.3" y="5.7" width="68.6" height="14.5"/>
	</defs>
	<clipPath id="SVGID_00000090978063319267434920000015599622277173358776_">
		<use xlink:href="#SVGID_1_"  style="overflow:visible;"/>
	</clipPath>
	<path style="clip-path:url(#SVGID_00000090978063319267434920000015599622277173358776_);fill:#349946;" d="M269.9,13
		c0,4-3.7,7.2-8.3,7.2h-52c-4.6,0-8.3-3.3-8.3-7.2s3.7-7.2,8.3-7.2h52C266.2,5.7,269.9,9,269.9,13"/>
</g>
<g>
	<path class="st1" d="M214.8,10.8c0.2,0,0.4,0,0.6,0.1s0.3,0.2,0.4,0.3c0.1,0.1,0.2,0.3,0.3,0.4s0.1,0.3,0.1,0.5
		c0,0.3-0.1,0.5-0.2,0.7s-0.3,0.3-0.6,0.5v0c0.1,0,0.2,0.1,0.3,0.2c0.1,0.1,0.1,0.2,0.2,0.3c0.1,0.1,0.1,0.2,0.1,0.3
		c0,0.1,0,0.2,0,0.3c0,0.1,0,0.2,0,0.3c0,0.1,0,0.2,0,0.3c0,0.1,0,0.2,0.1,0.3c0,0.1,0.1,0.2,0.1,0.2h-1c-0.1-0.1-0.1-0.3-0.1-0.5
		c0-0.2,0-0.4-0.1-0.6c0-0.2-0.1-0.4-0.2-0.5c-0.1-0.1-0.3-0.2-0.5-0.2h-1v1.8h-1v-4.6H214.8z M214.4,12.9c0.2,0,0.4-0.1,0.5-0.2
		s0.2-0.3,0.2-0.5c0-0.2-0.1-0.4-0.2-0.5s-0.3-0.2-0.5-0.2h-1.1v1.3H214.4z"/>
	<path class="st1" d="M220.4,10.8v0.9H218v1h2.2v0.8H218v1.1h2.5v0.9h-3.5v-4.6H220.4z"/>
	<path class="st1" d="M223.4,10.8l1.7,4.6h-1.1l-0.3-1H222l-0.4,1h-1l1.7-4.6H223.4z M223.5,13.6l-0.6-1.7h0l-0.6,1.7H223.5z"/>
	<path class="st1" d="M227.5,10.8c0.3,0,0.6,0,0.8,0.1s0.5,0.2,0.7,0.4c0.2,0.2,0.3,0.4,0.4,0.7c0.1,0.3,0.2,0.6,0.2,1
		c0,0.3,0,0.6-0.1,0.9c-0.1,0.3-0.2,0.5-0.4,0.7c-0.2,0.2-0.4,0.4-0.7,0.5s-0.6,0.2-0.9,0.2h-2v-4.6H227.5z M227.5,14.6
		c0.1,0,0.3,0,0.4-0.1c0.1,0,0.3-0.1,0.4-0.2s0.2-0.3,0.3-0.4c0.1-0.2,0.1-0.4,0.1-0.6c0-0.2,0-0.4-0.1-0.6c0-0.2-0.1-0.3-0.2-0.5
		c-0.1-0.1-0.2-0.2-0.4-0.3c-0.2-0.1-0.4-0.1-0.6-0.1h-0.7v2.9H227.5z"/>
	<path class="st1" d="M234.4,10.8l1.7,4.6h-1.1l-0.3-1H233l-0.4,1h-1l1.7-4.6H234.4z M234.5,13.6l-0.6-1.7h0l-0.6,1.7H234.5z"/>
	<path class="st1" d="M239.1,10.8c0.2,0,0.4,0,0.6,0.1s0.3,0.2,0.4,0.3c0.1,0.1,0.2,0.3,0.3,0.4s0.1,0.3,0.1,0.5
		c0,0.3-0.1,0.5-0.2,0.7s-0.3,0.3-0.6,0.5v0c0.1,0,0.2,0.1,0.3,0.2c0.1,0.1,0.1,0.2,0.2,0.3c0.1,0.1,0.1,0.2,0.1,0.3
		c0,0.1,0,0.2,0,0.3c0,0.1,0,0.2,0,0.3c0,0.1,0,0.2,0,0.3c0,0.1,0,0.2,0.1,0.3c0,0.1,0.1,0.2,0.1,0.2h-1c-0.1-0.1-0.1-0.3-0.1-0.5
		c0-0.2,0-0.4-0.1-0.6c0-0.2-0.1-0.4-0.2-0.5c-0.1-0.1-0.3-0.2-0.5-0.2h-1v1.8h-1v-4.6H239.1z M238.7,12.9c0.2,0,0.4-0.1,0.5-0.2
		s0.2-0.3,0.2-0.5c0-0.2-0.1-0.4-0.2-0.5s-0.3-0.2-0.5-0.2h-1.1v1.3H238.7z"/>
</g>
<g>
	<path class="st1" d="M240.8,11.7v-0.9h3.8v0.9h-1.4v3.8h-1v-3.8H240.8z"/>
	<path class="st1" d="M246.1,10.8v4.6h-1v-4.6H246.1z"/>
	<path class="st1" d="M249.9,12c-0.1-0.1-0.1-0.2-0.2-0.3c-0.1-0.1-0.2-0.1-0.3-0.2s-0.2-0.1-0.4-0.1c-0.2,0-0.4,0-0.6,0.1
		c-0.2,0.1-0.3,0.2-0.4,0.4c-0.1,0.1-0.2,0.3-0.2,0.5c0,0.2-0.1,0.4-0.1,0.6c0,0.2,0,0.4,0.1,0.6c0,0.2,0.1,0.3,0.2,0.5
		c0.1,0.1,0.2,0.3,0.4,0.4s0.4,0.1,0.6,0.1c0.3,0,0.6-0.1,0.7-0.3c0.2-0.2,0.3-0.4,0.3-0.8h1c0,0.3-0.1,0.5-0.2,0.8
		c-0.1,0.2-0.2,0.4-0.4,0.6c-0.2,0.2-0.4,0.3-0.6,0.4s-0.5,0.1-0.8,0.1c-0.4,0-0.7-0.1-1-0.2c-0.3-0.1-0.5-0.3-0.7-0.5
		c-0.2-0.2-0.3-0.5-0.4-0.8c-0.1-0.3-0.2-0.6-0.2-0.9c0-0.3,0.1-0.7,0.2-1c0.1-0.3,0.3-0.6,0.4-0.8c0.2-0.2,0.4-0.4,0.7-0.5
		c0.3-0.1,0.6-0.2,1-0.2c0.3,0,0.5,0,0.7,0.1s0.4,0.2,0.6,0.3s0.3,0.3,0.4,0.5c0.1,0.2,0.2,0.4,0.2,0.7h-1
		C250,12.2,250,12.1,249.9,12z"/>
	<path class="st1" d="M252.8,10.8v3.8h2.2v0.9h-3.3v-4.6H252.8z"/>
	<path class="st1" d="M259.1,10.8v0.9h-2.4v1h2.2v0.8h-2.2v1.1h2.5v0.9h-3.5v-4.6H259.1z"/>
</g>
</svg>
