<?xml version="1.0" encoding="utf-8"?>
<!-- Generator: Adobe Illustrator 25.4.1, SVG Export Plug-In . SVG Version: 6.00 Build 0)  -->
<svg version="1.1" id="Layer_1" xmlns="http://www.w3.org/2000/svg" xmlns:xlink="http://www.w3.org/1999/xlink" x="0px" y="0px"
	 viewBox="0 0 300 50" style="enable-background:new 0 0 300 50;" xml:space="preserve">
<style type="text/css">
	.st0{fill:#349946;}
	.st1{fill:#231F20;}
	.st2{font-family:'FoundrySterling-Demi';}
	.st3{font-size:8.4113px;}
	.st4{fill:none;}
</style>
<path class="st0" d="M184.9,45.6h-1.3l-0.4-1.2h-2.5l-0.4,1.2h-1.3l2.2-5.9h0.9c0.3,0,0.5,0.1,0.6,0.3c0.1,0.2,1.1,2.9,1.1,2.9h-1.2
	l-0.7-2l-0.9,2.5h2.6c0.3,0,0.5,0.1,0.6,0.4L184.9,45.6z"/>
<path class="st0" d="M196.1,45.6h-1.3l-0.4-1.2h-2.5l-0.4,1.2h-1.3l2.2-5.9h0.9c0.3,0,0.5,0.1,0.6,0.3c0.1,0.2,1.1,2.9,1.1,2.9h-1.2
	l-0.7-2l-0.9,2.5h2.6c0.3,0,0.5,0.1,0.6,0.4L196.1,45.6z"/>
<path class="st0" d="M185.3,39.7h2.3c1.8,0,2.7,1,2.7,3c0,1.1-0.3,1.9-1,2.4c-0.6,0.5-1.2,0.5-2.1,0.5h-2V39.7z M187.4,44.6
	c1.1,0,1.6-0.6,1.6-1.9c0-1.3-0.5-1.9-1.5-1.9h-1.1v3.8H187.4z"/>
<g>
	<path class="st1" d="M206.1,45.6h-0.9l-0.4-4.2l-1.4,4.2h-0.8l-1.5-4.2l-0.3,4.2h-0.9l0.5-5.6h1.1l1.5,4.3l1.5-4.3h1.1L206.1,45.6z
		"/>
	<path class="st1" d="M210.7,43.5c0,0,0,0.1,0,0.2c0,0.1,0,0.1,0,0.1h-2.8c0,0.3,0.1,0.5,0.3,0.8c0.2,0.3,0.5,0.4,0.9,0.4
		c0.3,0,0.7-0.1,1.1-0.3l0.3,0.6c-0.4,0.3-0.9,0.4-1.5,0.4c-0.6,0-1.1-0.2-1.5-0.6c-0.3-0.4-0.5-0.9-0.5-1.5c0-0.6,0.2-1.2,0.5-1.6
		c0.4-0.4,0.8-0.6,1.4-0.6c0.6,0,1,0.2,1.3,0.6C210.6,42.3,210.7,42.8,210.7,43.5z M209.8,43.1c0-0.3-0.1-0.5-0.2-0.7
		c-0.2-0.3-0.4-0.4-0.7-0.4c-0.3,0-0.5,0.1-0.7,0.3c-0.2,0.2-0.3,0.4-0.3,0.8H209.8z"/>
	<path class="st1" d="M217.4,45.6h-0.9v-2.3c0-0.5-0.1-0.8-0.2-0.9c-0.1-0.1-0.3-0.2-0.5-0.2c-0.3,0-0.6,0.1-0.9,0.3
		c0,0.1,0.1,0.4,0.1,0.9v2.2h-0.9v-2.3c0-0.5-0.1-0.9-0.2-1c-0.1-0.1-0.3-0.2-0.5-0.2c-0.3,0-0.6,0.1-0.9,0.3v3.1h-0.9v-4.1h0.8v0.3
		c0.4-0.3,0.8-0.4,1.2-0.4c0.4,0,0.8,0.2,1,0.5c0.5-0.3,0.9-0.5,1.4-0.5c0.4,0,0.8,0.1,1,0.4c0.2,0.2,0.3,0.5,0.4,0.8
		c0,0.2,0.1,0.5,0.1,1V45.6z"/>
	<path class="st1" d="M222.2,43.4c0,0.7-0.2,1.2-0.6,1.6s-0.9,0.6-1.6,0.6c-0.5,0-1-0.1-1.6-0.3v-5.9h0.9v2.2
		c0.3-0.2,0.7-0.3,1.1-0.3c0.5,0,0.9,0.2,1.3,0.6C222.1,42.3,222.2,42.8,222.2,43.4z M221.3,43.4c0-0.4-0.1-0.7-0.3-1
		c-0.2-0.2-0.4-0.3-0.7-0.3c-0.3,0-0.6,0.1-0.9,0.3v2.4c0.2,0.1,0.5,0.1,0.7,0.1c0.4,0,0.7-0.1,0.9-0.4
		C221.2,44.3,221.3,43.9,221.3,43.4z"/>
	<path class="st1" d="M226.6,43.5c0,0,0,0.1,0,0.2c0,0.1,0,0.1,0,0.1h-2.8c0,0.3,0.1,0.5,0.3,0.8c0.2,0.3,0.5,0.4,0.9,0.4
		c0.3,0,0.7-0.1,1.1-0.3l0.3,0.6c-0.4,0.3-0.9,0.4-1.5,0.4c-0.6,0-1.1-0.2-1.5-0.6c-0.3-0.4-0.5-0.9-0.5-1.5c0-0.6,0.2-1.2,0.5-1.6
		c0.4-0.4,0.8-0.6,1.4-0.6c0.6,0,1,0.2,1.3,0.6C226.5,42.3,226.6,42.8,226.6,43.5z M225.7,43.1c0-0.3-0.1-0.5-0.2-0.7
		c-0.2-0.3-0.4-0.4-0.7-0.4c-0.3,0-0.5,0.1-0.7,0.3c-0.2,0.2-0.3,0.4-0.3,0.8H225.7z"/>
	<path class="st1" d="M230.1,41.5l-0.2,0.7c-0.1,0-0.2,0-0.3,0c-0.5,0-0.9,0.2-1.2,0.6v2.8h-0.9v-4.1h0.8V42
		c0.1-0.1,0.2-0.2,0.4-0.3c0.3-0.2,0.6-0.3,1-0.3C229.8,41.4,230,41.4,230.1,41.5z"/>
</g>
<text transform="matrix(1 0 0 1 230.1695 45.582)" class="st1 st2 st3">s Insur</text>
<g>
	<path class="st1" d="M257.6,45.6h-0.8v-0.3c-0.4,0.3-0.8,0.4-1.2,0.4c-0.4,0-0.7-0.1-1-0.4s-0.4-0.6-0.4-0.9c0-1,0.8-1.4,2.3-1.4
		h0.2v-0.2c0-0.3,0-0.4-0.1-0.5c-0.1-0.1-0.3-0.2-0.7-0.2c-0.4,0-0.7,0.1-1.1,0.3l-0.3-0.6c0.1-0.1,0.2-0.2,0.4-0.2
		c0.3-0.1,0.7-0.2,1.1-0.2c0.6,0,1,0.1,1.3,0.4c0.1,0.1,0.2,0.3,0.3,0.5c0,0.1,0,0.4,0,0.7V45.6z M256.7,44.7v-1.1h-0.2
		c-0.6,0-1.1,0.1-1.3,0.3c-0.1,0.1-0.2,0.2-0.2,0.4c0,0.2,0.1,0.4,0.2,0.5c0.1,0.1,0.3,0.2,0.5,0.2C256.1,45,256.4,44.9,256.7,44.7z
		"/>
	<path class="st1" d="M262.1,45.6h-0.9v-2.2c0-0.5-0.1-0.9-0.2-1c-0.1-0.1-0.3-0.2-0.5-0.2c-0.3,0-0.6,0.1-0.9,0.3v3.1h-0.9v-4.1
		h0.8v0.3c0.4-0.3,0.8-0.4,1.2-0.4c0.4,0,0.8,0.1,1,0.4c0.2,0.2,0.3,0.4,0.4,0.7c0,0.2,0,0.4,0,0.8V45.6z"/>
	<path class="st1" d="M266.5,45.2c-0.1,0.1-0.2,0.2-0.4,0.3c-0.3,0.2-0.7,0.2-1.1,0.2c-0.6,0-1.1-0.2-1.5-0.6
		c-0.4-0.4-0.6-0.9-0.6-1.5c0-0.6,0.2-1.2,0.6-1.6c0.4-0.4,0.9-0.6,1.5-0.6c0.3,0,0.7,0.1,1,0.2c0.2,0.1,0.3,0.2,0.4,0.3l-0.4,0.6
		c-0.3-0.2-0.6-0.3-0.9-0.3c-0.4,0-0.7,0.1-0.9,0.4c-0.2,0.3-0.3,0.6-0.3,1c0,0.4,0.1,0.8,0.3,1s0.5,0.4,0.9,0.4
		c0.3,0,0.7-0.1,1-0.3L266.5,45.2z"/>
</g>
<g>
	<path class="st1" d="M270.6,43.5c0,0,0,0.1,0,0.2c0,0.1,0,0.1,0,0.1h-2.8c0,0.3,0.1,0.5,0.3,0.8c0.2,0.3,0.5,0.4,0.9,0.4
		c0.3,0,0.7-0.1,1.1-0.3l0.3,0.6c-0.4,0.3-0.9,0.4-1.5,0.4c-0.6,0-1.1-0.2-1.5-0.6c-0.3-0.4-0.5-0.9-0.5-1.5c0-0.6,0.2-1.2,0.5-1.6
		c0.4-0.4,0.8-0.6,1.4-0.6c0.6,0,1,0.2,1.3,0.6C270.5,42.3,270.6,42.8,270.6,43.5z M269.7,43.1c0-0.3-0.1-0.5-0.2-0.7
		c-0.2-0.3-0.4-0.4-0.7-0.4c-0.3,0-0.5,0.1-0.7,0.3c-0.2,0.2-0.3,0.4-0.3,0.8H269.7z"/>
	<path class="st1" d="M277.4,41.7c0,0.5-0.2,0.9-0.5,1.3c-0.2,0.2-0.5,0.4-0.9,0.5c-0.2,0-0.6,0.1-1,0.1h-0.4v2.1h-1V40h1.5
		c0.5,0,0.8,0,1,0.1c0.3,0.1,0.6,0.2,0.8,0.4C277.2,40.8,277.4,41.2,277.4,41.7z M276.4,41.7c0-0.3-0.1-0.5-0.3-0.7
		c-0.2-0.2-0.5-0.2-1-0.2h-0.5v1.9h0.4c0.6,0,1-0.1,1.2-0.3S276.4,42,276.4,41.7z"/>
	<path class="st1" d="M279.3,45.6h-0.9v-6.1h0.9V45.6z"/>
	<path class="st1" d="M283.5,45.6h-0.8v-0.3c-0.4,0.3-0.8,0.4-1.2,0.4c-0.4,0-0.7-0.1-1-0.4s-0.4-0.6-0.4-0.9c0-1,0.8-1.4,2.3-1.4
		h0.2v-0.2c0-0.3,0-0.4-0.1-0.5c-0.1-0.1-0.3-0.2-0.7-0.2c-0.4,0-0.7,0.1-1.1,0.3l-0.3-0.6c0.1-0.1,0.2-0.2,0.4-0.2
		c0.3-0.1,0.7-0.2,1.1-0.2c0.6,0,1,0.1,1.3,0.4c0.1,0.1,0.2,0.3,0.3,0.5c0,0.1,0,0.4,0,0.7V45.6z M282.6,44.7v-1.1h-0.2
		c-0.6,0-1.1,0.1-1.3,0.3c-0.1,0.1-0.2,0.2-0.2,0.4c0,0.2,0.1,0.4,0.2,0.5c0.1,0.1,0.3,0.2,0.5,0.2C282,45,282.3,44.9,282.6,44.7z"
		/>
	<path class="st1" d="M288,45.6h-0.9v-2.2c0-0.5-0.1-0.9-0.2-1c-0.1-0.1-0.3-0.2-0.5-0.2c-0.3,0-0.6,0.1-0.9,0.3v3.1h-0.9v-4.1h0.8
		v0.3c0.4-0.3,0.8-0.4,1.2-0.4c0.4,0,0.8,0.1,1,0.4c0.2,0.2,0.3,0.4,0.4,0.7c0,0.2,0,0.4,0,0.8V45.6z"/>
	<path class="st1" d="M291.8,44.4c0,0.4-0.1,0.7-0.4,0.9c-0.3,0.2-0.7,0.3-1.1,0.3c-0.4,0-0.7-0.1-1.1-0.2c-0.2-0.1-0.4-0.2-0.4-0.2
		l0.3-0.6c0.4,0.2,0.8,0.3,1.1,0.3c0.2,0,0.4,0,0.5-0.1c0.1-0.1,0.2-0.2,0.2-0.4c0-0.1-0.1-0.3-0.2-0.4c-0.1-0.1-0.3-0.2-0.6-0.3
		c-0.3-0.1-0.6-0.3-0.7-0.4c-0.2-0.2-0.4-0.5-0.4-0.8c0-0.4,0.1-0.7,0.4-0.9c0.3-0.2,0.6-0.3,1.1-0.3c0.6,0,1,0.1,1.3,0.4l-0.3,0.6
		c-0.3-0.2-0.6-0.3-1-0.3c-0.4,0-0.7,0.2-0.7,0.5c0,0.1,0.1,0.2,0.2,0.3c0.1,0.1,0.3,0.1,0.5,0.3c0.4,0.2,0.7,0.3,0.8,0.4
		C291.6,43.8,291.8,44,291.8,44.4z"/>
</g>
<path class="st0" d="M196.9,45.7c-0.4,0-0.7-0.3-0.7-0.7s0.3-0.7,0.7-0.7c0.4,0,0.7,0.3,0.7,0.7S197.3,45.7,196.9,45.7 M196.9,44.4
	c-0.3,0-0.5,0.2-0.5,0.5s0.2,0.5,0.5,0.5c0.3,0,0.5-0.2,0.5-0.5S197.2,44.4,196.9,44.4 M197.1,45.3l-0.1-0.2c0-0.1-0.1-0.1-0.2-0.1
	h0v0.3h-0.1v-0.7h0.2c0.1,0,0.2,0,0.2,0.1c0,0,0.1,0.1,0.1,0.2c0,0.1,0,0.1-0.1,0.2c0,0,0.1,0.1,0.1,0.1l0.1,0.3H197.1z M197,44.7
	c0,0-0.1,0-0.1,0h-0.1v0.2c0,0,0.1,0,0.1,0C197,44.9,197,44.9,197,44.7C197,44.8,197,44.7,197,44.7"/>
<rect x="178.9" y="38.6" class="st4" width="113" height="9.7"/>
</svg>
