<?xml version="1.0" encoding="utf-8"?>
<!-- Generator: Adobe Illustrator 25.4.1, SVG Export Plug-In . SVG Version: 6.00 Build 0)  -->
<svg version="1.1" id="Layer_1" xmlns="http://www.w3.org/2000/svg" xmlns:xlink="http://www.w3.org/1999/xlink" x="0px" y="0px"
	 viewBox="0 0 300 50" style="enable-background:new 0 0 300 50;" xml:space="preserve">
<style type="text/css">
	.st0{clip-path:url(#SVGID_00000057868196923559767510000008613441781779275675_);fill:#231F20;}
	.st1{clip-path:url(#SVGID_00000057868196923559767510000008613441781779275675_);fill:#22B0E6;}
</style>
<g>
	<defs>
		<rect id="SVGID_1_" x="216.1" y="23.3" width="37.9" height="12.9"/>
	</defs>
	<clipPath id="SVGID_00000029047808904771422320000003899639944587390652_">
		<use xlink:href="#SVGID_1_"  style="overflow:visible;"/>
	</clipPath>
	<path style="clip-path:url(#SVGID_00000029047808904771422320000003899639944587390652_);fill:#231F20;" d="M216.3,30.2h2
		c1.6,0,1.9,1,1.9,1.7c0,0.7-0.3,1.7-1.9,1.7h-1v2.2h-1V30.2z M217.3,32.8h1c0.4,0,1-0.2,1-0.9c0-0.7-0.4-0.9-1-0.9h-1V32.8z"/>
	<path style="clip-path:url(#SVGID_00000029047808904771422320000003899639944587390652_);fill:#231F20;" d="M220.9,31.7h0.8v0.8h0
		c0.1-0.4,0.6-0.9,1.2-0.9c0.2,0,0.3,0,0.3,0v0.9c-0.1,0-0.3,0-0.4,0c-0.6,0-1.1,0.5-1.1,1.4v1.9h-0.9V31.7z"/>
	<path style="clip-path:url(#SVGID_00000029047808904771422320000003899639944587390652_);fill:#231F20;" d="M223.4,33.8
		c0-1.2,0.8-2.1,2.1-2.1c1.3,0,2.1,0.9,2.1,2.1c0,1.3-0.8,2.2-2.1,2.2C224.1,35.9,223.4,35,223.4,33.8 M226.6,33.8
		c0-0.7-0.4-1.4-1.2-1.4c-0.8,0-1.2,0.7-1.2,1.4c0,0.7,0.4,1.4,1.2,1.4C226.2,35.2,226.6,34.5,226.6,33.8"/>
	<path style="clip-path:url(#SVGID_00000029047808904771422320000003899639944587390652_);fill:#231F20;" d="M227.6,31.7h0.7v-1.2
		h0.9v1.2h0.8v0.7h-0.8v2.2c0,0.4,0,0.6,0.4,0.6c0.1,0,0.3,0,0.4,0v0.7c-0.2,0-0.4,0-0.6,0c-0.9,0-1.1-0.4-1.1-1v-2.4h-0.7V31.7z"/>
	<path style="clip-path:url(#SVGID_00000029047808904771422320000003899639944587390652_);fill:#231F20;" d="M231.3,34
		c0,0.6,0.3,1.2,1.1,1.2c0.5,0,0.8-0.2,1-0.7h0.9c-0.2,0.9-1,1.4-1.9,1.4c-1.3,0-2-0.9-2-2.2c0-1.2,0.8-2.2,2-2.2
		c1.3,0,2.1,1.2,1.9,2.4H231.3z M233.4,33.4c0-0.6-0.4-1.1-1-1.1c-0.6,0-1.1,0.5-1.1,1.1H233.4z"/>
	<path style="clip-path:url(#SVGID_00000029047808904771422320000003899639944587390652_);fill:#231F20;" d="M237.7,33.1
		c-0.1-0.5-0.4-0.8-0.9-0.8c-0.5,0-1.1,0.2-1.1,1.5c0,0.7,0.3,1.4,1.1,1.4c0.5,0,0.9-0.3,1-0.9h0.9c-0.2,1.1-0.8,1.6-1.9,1.6
		c-1.3,0-2-0.9-2-2.1c0-1.2,0.7-2.2,2-2.2c0.9,0,1.8,0.5,1.8,1.5H237.7z"/>
	<path style="clip-path:url(#SVGID_00000029047808904771422320000003899639944587390652_);fill:#231F20;" d="M238.9,31.7h0.7v-1.2
		h0.9v1.2h0.8v0.7h-0.8v2.2c0,0.4,0,0.6,0.4,0.6c0.1,0,0.3,0,0.4,0v0.7c-0.2,0-0.4,0-0.6,0c-0.9,0-1.1-0.4-1.1-1v-2.4h-0.7V31.7z"/>
	<path style="clip-path:url(#SVGID_00000029047808904771422320000003899639944587390652_);fill:#231F20;" d="M242.3,30.2h0.9V31
		h-0.9V30.2z M242.3,31.7h0.9v4.1h-0.9V31.7z"/>
	<polygon style="clip-path:url(#SVGID_00000029047808904771422320000003899639944587390652_);fill:#231F20;" points="243.9,31.7 
		244.8,31.7 246.1,34.9 246.1,34.9 247.3,31.7 248.3,31.7 246.6,35.8 245.6,35.8 	"/>
	<path style="clip-path:url(#SVGID_00000029047808904771422320000003899639944587390652_);fill:#231F20;" d="M249.4,34
		c0,0.6,0.3,1.2,1.1,1.2c0.5,0,0.8-0.2,1-0.7h0.9c-0.2,0.9-1,1.4-1.8,1.4c-1.3,0-2-0.9-2-2.2c0-1.2,0.8-2.2,2-2.2
		c1.3,0,2.1,1.2,1.9,2.4H249.4z M251.5,33.4c0-0.6-0.4-1.1-1-1.1c-0.6,0-1.1,0.5-1.1,1.1H251.5z"/>
	<path style="clip-path:url(#SVGID_00000029047808904771422320000003899639944587390652_);fill:#22B0E6;" d="M240.6,29.2
		c-0.6-2.2-2.4-4-4.6-4.6c-0.2-0.7-0.8-1.2-1.6-1.2c-0.8,0-1.4,0.5-1.6,1.2c-2.2,0.6-4,2.3-4.6,4.6l-0.1,0.3h1.4l0-0.1
		c0.5-1.6,1.8-2.9,3.4-3.4c0.3,0.5,0.8,0.8,1.4,0.8c0.6,0,1.2-0.3,1.4-0.8c1.6,0.5,2.9,1.7,3.4,3.4l0,0.1h1.4L240.6,29.2z"/>
	<path style="clip-path:url(#SVGID_00000029047808904771422320000003899639944587390652_);fill:#231F20;" d="M253.3,35.1
		c0.2,0,0.4,0.2,0.4,0.4s-0.2,0.4-0.4,0.4c-0.2,0-0.4-0.2-0.4-0.4S253.1,35.1,253.3,35.1 M253.7,35.5c0-0.2-0.1-0.3-0.3-0.3
		c-0.2,0-0.3,0.1-0.3,0.3c0,0.2,0.1,0.3,0.3,0.3C253.5,35.9,253.7,35.7,253.7,35.5 M253.2,35.3h0.2c0.1,0,0.2,0,0.2,0.1
		c0,0.1-0.1,0.1-0.1,0.1l0.1,0.2h-0.1l-0.1-0.2h-0.1v0.2h-0.1V35.3z M253.3,35.5c0.1,0,0.1,0,0.1-0.1c0-0.1-0.1-0.1-0.1-0.1h-0.1
		L253.3,35.5L253.3,35.5z"/>
</g>
</svg>
