<?xml version="1.0" encoding="utf-8"?>
<!-- Generator: Adobe Illustrator 25.4.1, SVG Export Plug-In . SVG Version: 6.00 Build 0)  -->
<svg version="1.1" id="Layer_1" xmlns="http://www.w3.org/2000/svg" xmlns:xlink="http://www.w3.org/1999/xlink" x="0px" y="0px"
	 viewBox="0 0 300 600" style="enable-background:new 0 0 300 600;" xml:space="preserve">
<g>
	<path d="M36.4,97.9l6.2,18.2h0.1l5.8-18.2h8.2v26.4h-5.4v-18.7h-0.1l-6.5,18.7h-4.5l-6.5-18.5h-0.1v18.5h-5.4V97.9H36.4z"/>
	<path d="M60.7,111.1c0.1-1.2,0.4-2.3,0.9-3.1c0.5-0.8,1.2-1.5,2.1-2c0.8-0.5,1.8-0.8,2.8-1.1c1-0.2,2.1-0.3,3.2-0.3
		c1,0,1.9,0.1,2.9,0.2c1,0.1,1.9,0.4,2.7,0.8c0.8,0.4,1.5,0.9,2,1.6s0.8,1.6,0.8,2.8v10c0,0.9,0,1.7,0.1,2.5
		c0.1,0.8,0.3,1.4,0.5,1.8h-5.3c-0.1-0.3-0.2-0.6-0.2-0.9c-0.1-0.3-0.1-0.6-0.1-0.9c-0.8,0.9-1.8,1.5-3,1.8
		c-1.1,0.3-2.3,0.5-3.5,0.5c-0.9,0-1.8-0.1-2.6-0.3c-0.8-0.2-1.5-0.6-2.1-1c-0.6-0.5-1.1-1.1-1.4-1.8c-0.3-0.7-0.5-1.6-0.5-2.6
		c0-1.1,0.2-2,0.6-2.7s0.9-1.3,1.5-1.7c0.6-0.4,1.3-0.7,2.1-0.9c0.8-0.2,1.6-0.4,2.3-0.5c0.8-0.1,1.6-0.2,2.3-0.3
		c0.8-0.1,1.4-0.2,2-0.3c0.6-0.1,1.1-0.4,1.4-0.6c0.3-0.3,0.5-0.7,0.5-1.2c0-0.6-0.1-1-0.3-1.4c-0.2-0.3-0.4-0.6-0.7-0.8
		c-0.3-0.2-0.7-0.3-1.1-0.4c-0.4-0.1-0.8-0.1-1.3-0.1c-1,0-1.8,0.2-2.4,0.7c-0.6,0.4-0.9,1.2-1,2.2H60.7z M72.8,115
		c-0.2,0.2-0.5,0.4-0.8,0.5s-0.7,0.2-1.1,0.3c-0.4,0.1-0.8,0.1-1.2,0.2c-0.4,0-0.8,0.1-1.3,0.2c-0.4,0.1-0.8,0.2-1.2,0.3
		c-0.4,0.1-0.7,0.3-1,0.5c-0.3,0.2-0.5,0.5-0.7,0.8c-0.2,0.3-0.3,0.7-0.3,1.2c0,0.5,0.1,0.9,0.3,1.2c0.2,0.3,0.4,0.6,0.7,0.8
		s0.6,0.3,1,0.4c0.4,0.1,0.8,0.1,1.2,0.1c1,0,1.8-0.2,2.4-0.5c0.6-0.3,1-0.8,1.3-1.2s0.4-1,0.5-1.5c0.1-0.5,0.1-0.9,0.1-1.2V115z"/>
	<path d="M87.5,97.9v14.2l6.6-6.9h6.2l-7.2,7l8,12.1h-6.4l-5.3-8.5l-2,2v6.6h-5.3V97.9H87.5z"/>
	<path d="M102.8,102.3v-4.3h5.3v4.3H102.8z M108.1,105.2v19.1h-5.3v-19.1H108.1z"/>
	<path d="M116.9,105.2v2.7h0.1c0.7-1.1,1.5-1.9,2.6-2.4c1.1-0.5,2.1-0.8,3.3-0.8c1.4,0,2.6,0.2,3.5,0.6c0.9,0.4,1.6,0.9,2.1,1.6
		c0.5,0.7,0.9,1.5,1.1,2.5c0.2,1,0.3,2.1,0.3,3.2v11.8h-5.3v-10.8c0-1.6-0.2-2.8-0.7-3.5c-0.5-0.8-1.4-1.2-2.6-1.2
		c-1.4,0-2.5,0.4-3.1,1.3c-0.6,0.9-1,2.3-1,4.2v10h-5.3v-19.1H116.9z"/>
	<path d="M151.6,125.8c-0.2,1-0.7,1.9-1.4,2.8s-1.7,1.6-3,2.2c-1.3,0.6-3.1,0.9-5.3,0.9c-0.9,0-1.9-0.1-2.9-0.4s-1.9-0.6-2.7-1.1
		c-0.8-0.5-1.5-1.1-2-1.9c-0.5-0.8-0.8-1.7-0.9-2.8h5.2c0.2,1,0.7,1.7,1.4,2.1c0.7,0.4,1.5,0.6,2.5,0.6c1.5,0,2.6-0.4,3.2-1.3
		c0.7-0.9,1-2,1-3.4v-2.5h-0.1c-0.6,1-1.4,1.8-2.4,2.2c-1,0.5-2.2,0.7-3.3,0.7c-1.4,0-2.7-0.3-3.7-0.8c-1-0.5-1.9-1.2-2.6-2.1
		c-0.7-0.9-1.2-1.9-1.5-3.1c-0.3-1.2-0.5-2.4-0.5-3.7c0-1.2,0.2-2.4,0.5-3.6c0.4-1.1,0.9-2.2,1.6-3c0.7-0.9,1.5-1.6,2.6-2.1
		c1-0.5,2.2-0.8,3.5-0.8c1.3,0,2.4,0.2,3.3,0.7c0.9,0.5,1.7,1.3,2.4,2.4h0.1v-2.6h5v17.9C151.9,123.9,151.8,124.8,151.6,125.8z
		 M144.4,119.4c0.6-0.3,1-0.7,1.4-1.2c0.4-0.5,0.6-1.1,0.8-1.7c0.2-0.6,0.3-1.3,0.3-2c0-0.8-0.1-1.5-0.2-2.2
		c-0.1-0.7-0.4-1.3-0.7-1.9c-0.3-0.5-0.8-1-1.4-1.3c-0.6-0.3-1.3-0.5-2.1-0.5c-0.7,0-1.4,0.1-1.9,0.4c-0.5,0.3-1,0.7-1.3,1.2
		c-0.4,0.5-0.6,1.1-0.8,1.7c-0.2,0.7-0.2,1.3-0.2,2.1c0,0.7,0.1,1.4,0.2,2.1c0.1,0.7,0.4,1.3,0.7,1.8s0.8,1,1.3,1.3
		c0.5,0.3,1.2,0.5,2,0.5C143.2,119.8,143.8,119.7,144.4,119.4z"/>
	<path d="M170.2,119.6c0.2,0.4,0.5,0.7,0.9,1c0.4,0.3,0.8,0.5,1.3,0.6c0.5,0.1,1,0.2,1.5,0.2c0.4,0,0.8,0,1.2-0.1
		c0.4-0.1,0.8-0.2,1.1-0.4c0.3-0.2,0.6-0.4,0.8-0.7c0.2-0.3,0.3-0.7,0.3-1.2c0-0.8-0.5-1.4-1.6-1.8c-1-0.4-2.5-0.8-4.4-1.2
		c-0.8-0.2-1.5-0.4-2.2-0.6c-0.7-0.2-1.4-0.5-1.9-0.9c-0.6-0.4-1-0.9-1.4-1.4c-0.3-0.6-0.5-1.3-0.5-2.1c0-1.2,0.2-2.2,0.7-3
		c0.5-0.8,1.1-1.4,1.9-1.9c0.8-0.5,1.7-0.8,2.7-1s2-0.3,3-0.3s2,0.1,3,0.3c1,0.2,1.8,0.5,2.6,1c0.8,0.5,1.4,1.1,1.9,1.9
		c0.5,0.8,0.8,1.8,0.9,2.9h-5c-0.1-1-0.5-1.7-1.1-2.1c-0.7-0.4-1.5-0.5-2.4-0.5c-0.3,0-0.6,0-1,0.1c-0.3,0-0.7,0.1-0.9,0.2
		c-0.3,0.1-0.5,0.3-0.7,0.5c-0.2,0.2-0.3,0.5-0.3,0.9c0,0.5,0.2,0.9,0.5,1.1c0.3,0.3,0.8,0.5,1.4,0.7c0.6,0.2,1.2,0.4,1.9,0.5
		c0.7,0.1,1.4,0.3,2.2,0.5c0.8,0.2,1.5,0.4,2.2,0.6c0.7,0.2,1.4,0.6,1.9,1c0.6,0.4,1,0.9,1.4,1.5c0.3,0.6,0.5,1.4,0.5,2.2
		c0,1.3-0.3,2.3-0.8,3.2s-1.2,1.5-2,2.1c-0.8,0.5-1.7,0.9-2.8,1.1c-1,0.2-2.1,0.3-3.2,0.3c-1.1,0-2.2-0.1-3.3-0.3s-2-0.6-2.8-1.1
		c-0.8-0.5-1.5-1.2-2-2.1s-0.8-1.9-0.9-3.2h5C169.8,118.7,169.9,119.2,170.2,119.6z"/>
	<path d="M198.2,124.4v-2.7h-0.1c-0.7,1.1-1.5,1.9-2.6,2.4s-2.1,0.7-3.3,0.7c-1.4,0-2.6-0.2-3.5-0.6c-0.9-0.4-1.6-0.9-2.1-1.6
		c-0.5-0.7-0.9-1.5-1.1-2.5c-0.2-1-0.3-2.1-0.3-3.2v-11.8h5.3V116c0,1.6,0.2,2.8,0.7,3.5c0.5,0.8,1.4,1.2,2.6,1.2
		c1.4,0,2.5-0.4,3.1-1.3s1-2.3,1-4.2v-10h5.3v19.1H198.2z"/>
	<path d="M211.9,105.2v3.6h0.1c0.2-0.6,0.6-1.1,1-1.6c0.4-0.5,0.9-0.9,1.4-1.3c0.5-0.4,1.1-0.6,1.7-0.8c0.6-0.2,1.3-0.3,1.9-0.3
		c0.3,0,0.7,0.1,1.1,0.2v4.9c-0.2,0-0.5-0.1-0.9-0.1s-0.7-0.1-1-0.1c-1,0-1.8,0.2-2.4,0.5c-0.7,0.3-1.2,0.8-1.6,1.3
		c-0.4,0.6-0.7,1.2-0.9,1.9c-0.2,0.7-0.3,1.5-0.3,2.4v8.6h-5.3v-19.1H211.9z"/>
	<path d="M225.9,119.8c0.8,0.8,1.9,1.1,3.4,1.1c1.1,0,2-0.3,2.7-0.8c0.8-0.5,1.2-1.1,1.4-1.7h4.6c-0.7,2.3-1.9,3.9-3.4,4.9
		c-1.5,1-3.4,1.5-5.5,1.5c-1.5,0-2.9-0.2-4.1-0.7c-1.2-0.5-2.2-1.2-3.1-2.1c-0.8-0.9-1.5-1.9-1.9-3.2c-0.5-1.2-0.7-2.6-0.7-4.1
		c0-1.4,0.2-2.8,0.7-4c0.5-1.2,1.1-2.3,2-3.2c0.9-0.9,1.9-1.6,3.1-2.1s2.5-0.8,4-0.8c1.6,0,3,0.3,4.3,0.9s2.2,1.5,3,2.5
		c0.8,1.1,1.3,2.3,1.7,3.6c0.3,1.4,0.5,2.8,0.4,4.3h-13.8C224.7,117.8,225.1,119,225.9,119.8z M231.8,109.7c-0.6-0.7-1.6-1-2.9-1
		c-0.8,0-1.5,0.1-2.1,0.4c-0.6,0.3-1,0.6-1.3,1.1c-0.3,0.4-0.6,0.9-0.7,1.3c-0.1,0.5-0.2,0.9-0.2,1.3h8.5
		C232.9,111.4,232.5,110.4,231.8,109.7z"/>
</g>
<g>
	<path d="M34.7,170.1c-1,0.7-2.4,1-4.2,1c-0.5,0-1.1,0-1.6-0.1c-0.5,0-1.1-0.1-1.6-0.1v-4.3c0.5,0,1,0.1,1.5,0.1c0.5,0,1,0.1,1.6,0
		c0.7-0.1,1.2-0.3,1.5-0.8c0.3-0.5,0.5-1,0.5-1.6c0-0.4-0.1-0.8-0.2-1.2l-6.7-17.9h5.6l4.3,13.1h0.1l4.2-13.1h5.4l-8,21.5
		C36.5,168.3,35.7,169.4,34.7,170.1z"/>
	<path d="M46.6,150.7c0.5-1.2,1.1-2.3,2-3.2c0.9-0.9,1.9-1.6,3.1-2c1.2-0.5,2.6-0.7,4.1-0.7c1.5,0,2.9,0.2,4.1,0.7
		c1.2,0.5,2.3,1.2,3.1,2c0.9,0.9,1.5,1.9,2,3.2c0.5,1.2,0.7,2.6,0.7,4.2c0,1.5-0.2,2.9-0.7,4.1c-0.5,1.2-1.1,2.3-2,3.2
		c-0.9,0.9-1.9,1.5-3.1,2s-2.6,0.7-4.1,0.7c-1.5,0-2.9-0.2-4.1-0.7s-2.2-1.1-3.1-2c-0.9-0.9-1.5-1.9-2-3.2c-0.5-1.2-0.7-2.6-0.7-4.1
		C45.9,153.3,46.2,151.9,46.6,150.7z M51.4,157.1c0.1,0.7,0.4,1.4,0.8,2c0.4,0.6,0.8,1,1.4,1.4c0.6,0.3,1.3,0.5,2.2,0.5
		c0.9,0,1.6-0.2,2.2-0.5c0.6-0.3,1.1-0.8,1.4-1.4c0.4-0.6,0.6-1.2,0.8-2c0.1-0.7,0.2-1.5,0.2-2.2c0-0.8-0.1-1.5-0.2-2.3
		c-0.1-0.7-0.4-1.4-0.8-2c-0.4-0.6-0.8-1-1.4-1.4c-0.6-0.4-1.4-0.5-2.2-0.5c-0.9,0-1.6,0.2-2.2,0.5c-0.6,0.4-1.1,0.8-1.4,1.4
		c-0.4,0.6-0.6,1.2-0.8,2c-0.1,0.7-0.2,1.5-0.2,2.3C51.2,155.6,51.3,156.3,51.4,157.1z"/>
	<path d="M81.8,164.4v-2.7h-0.1c-0.7,1.1-1.5,1.9-2.6,2.4c-1.1,0.5-2.1,0.7-3.3,0.7c-1.4,0-2.6-0.2-3.5-0.6
		c-0.9-0.4-1.6-0.9-2.1-1.6c-0.5-0.7-0.9-1.5-1.1-2.5c-0.2-1-0.3-2.1-0.3-3.2v-11.8h5.3V156c0,1.6,0.2,2.8,0.7,3.5
		c0.5,0.8,1.4,1.2,2.6,1.2c1.4,0,2.5-0.4,3.1-1.3c0.6-0.9,1-2.3,1-4.2v-10h5.3v19.1H81.8z"/>
	<path d="M95.4,145.2v3.6h0.1c0.2-0.6,0.6-1.1,1-1.6c0.4-0.5,0.9-0.9,1.4-1.3c0.5-0.4,1.1-0.6,1.7-0.8c0.6-0.2,1.3-0.3,1.9-0.3
		c0.3,0,0.7,0.1,1.1,0.2v4.9c-0.2,0-0.5-0.1-0.9-0.1c-0.3,0-0.7-0.1-1-0.1c-1,0-1.8,0.2-2.4,0.5c-0.7,0.3-1.2,0.8-1.6,1.3
		c-0.4,0.6-0.7,1.2-0.9,1.9c-0.2,0.7-0.3,1.5-0.3,2.4v8.6h-5.3v-19.1H95.4z"/>
	<path d="M119.8,137.9v26.4h-5.3v-26.4H119.8z"/>
	<path d="M123.7,142.3v-4.3h5.3v4.3H123.7z M129,145.2v19.1h-5.3v-19.1H129z"/>
	<path d="M130.8,148.7v-3.5h3.1v-1.5c0-1.7,0.5-3.1,1.6-4.2c1.1-1.1,2.7-1.6,4.8-1.6c0.5,0,0.9,0,1.4,0.1c0.5,0,0.9,0.1,1.4,0.1v3.9
		c-0.6-0.1-1.3-0.1-1.9-0.1c-0.7,0-1.2,0.2-1.5,0.5s-0.5,0.9-0.5,1.7v1.1h3.6v3.5h-3.6v15.6h-5.3v-15.6H130.8z"/>
	<path d="M150.4,159.8c0.8,0.8,1.9,1.1,3.4,1.1c1.1,0,2-0.3,2.7-0.8c0.8-0.5,1.2-1.1,1.4-1.7h4.6c-0.7,2.3-1.9,3.9-3.4,4.9
		c-1.5,1-3.4,1.5-5.5,1.5c-1.5,0-2.9-0.2-4.1-0.7c-1.2-0.5-2.2-1.2-3.1-2.1c-0.8-0.9-1.5-1.9-1.9-3.2c-0.5-1.2-0.7-2.6-0.7-4.1
		c0-1.4,0.2-2.8,0.7-4c0.5-1.2,1.1-2.3,2-3.2c0.9-0.9,1.9-1.6,3.1-2.1s2.5-0.8,4-0.8c1.6,0,3,0.3,4.3,0.9s2.2,1.5,3,2.5
		c0.8,1.1,1.3,2.3,1.7,3.6c0.3,1.4,0.5,2.8,0.4,4.3h-13.8C149.2,157.8,149.6,159,150.4,159.8z M156.3,149.7c-0.6-0.7-1.6-1-2.9-1
		c-0.8,0-1.5,0.1-2.1,0.4c-0.6,0.3-1,0.6-1.3,1.1c-0.3,0.4-0.6,0.9-0.7,1.3c-0.1,0.5-0.2,0.9-0.2,1.3h8.5
		C157.4,151.4,157,150.4,156.3,149.7z"/>
</g>
<g>
	<path d="M27.8,182.3v-4.3h5.3v4.3H27.8z M33.1,185.2v19.1h-5.3v-19.1H33.1z"/>
	<path d="M41.9,185.2v2.7H42c0.7-1.1,1.5-1.9,2.6-2.4c1.1-0.5,2.1-0.8,3.3-0.8c1.4,0,2.6,0.2,3.5,0.6c0.9,0.4,1.6,0.9,2.1,1.6
		c0.5,0.7,0.9,1.5,1.1,2.5c0.2,1,0.3,2.1,0.3,3.2v11.8h-5.3v-10.8c0-1.6-0.2-2.8-0.7-3.5c-0.5-0.8-1.4-1.2-2.6-1.2
		c-1.4,0-2.5,0.4-3.1,1.3c-0.6,0.9-1,2.3-1,4.2v10h-5.3v-19.1H41.9z"/>
	<path d="M62.9,199.6c0.2,0.4,0.5,0.7,0.9,1c0.4,0.3,0.8,0.5,1.3,0.6c0.5,0.1,1,0.2,1.5,0.2c0.4,0,0.8,0,1.2-0.1
		c0.4-0.1,0.8-0.2,1.1-0.4c0.3-0.2,0.6-0.4,0.8-0.7c0.2-0.3,0.3-0.7,0.3-1.2c0-0.8-0.5-1.4-1.6-1.8c-1-0.4-2.5-0.8-4.4-1.2
		c-0.8-0.2-1.5-0.4-2.2-0.6c-0.7-0.2-1.4-0.5-1.9-0.9c-0.6-0.4-1-0.9-1.4-1.4c-0.3-0.6-0.5-1.3-0.5-2.1c0-1.2,0.2-2.2,0.7-3
		c0.5-0.8,1.1-1.4,1.9-1.9c0.8-0.5,1.7-0.8,2.7-1c1-0.2,2-0.3,3-0.3c1,0,2,0.1,3,0.3c1,0.2,1.8,0.5,2.6,1c0.8,0.5,1.4,1.1,1.9,1.9
		c0.5,0.8,0.8,1.8,0.9,2.9h-5c-0.1-1-0.5-1.7-1.1-2.1c-0.7-0.4-1.5-0.5-2.4-0.5c-0.3,0-0.6,0-1,0.1c-0.3,0-0.7,0.1-0.9,0.2
		c-0.3,0.1-0.5,0.3-0.7,0.5c-0.2,0.2-0.3,0.5-0.3,0.9c0,0.5,0.2,0.9,0.5,1.1c0.3,0.3,0.8,0.5,1.4,0.7c0.6,0.2,1.2,0.4,1.9,0.5
		c0.7,0.1,1.4,0.3,2.2,0.5c0.8,0.2,1.5,0.4,2.2,0.6s1.4,0.6,1.9,1c0.6,0.4,1,0.9,1.4,1.5c0.3,0.6,0.5,1.4,0.5,2.2
		c0,1.3-0.3,2.3-0.8,3.2c-0.5,0.9-1.2,1.5-2,2.1c-0.8,0.5-1.7,0.9-2.8,1.1c-1,0.2-2.1,0.3-3.2,0.3c-1.1,0-2.2-0.1-3.3-0.3
		c-1.1-0.2-2-0.6-2.8-1.1c-0.8-0.5-1.5-1.2-2-2.1c-0.5-0.9-0.8-1.9-0.9-3.2h5C62.5,198.7,62.7,199.2,62.9,199.6z"/>
	<path d="M91,204.4v-2.7h-0.1c-0.7,1.1-1.5,1.9-2.6,2.4c-1.1,0.5-2.1,0.7-3.3,0.7c-1.4,0-2.6-0.2-3.5-0.6c-0.9-0.4-1.6-0.9-2.1-1.6
		c-0.5-0.7-0.9-1.5-1.1-2.5c-0.2-1-0.3-2.1-0.3-3.2v-11.8h5.3V196c0,1.6,0.2,2.8,0.7,3.5c0.5,0.8,1.4,1.2,2.6,1.2
		c1.4,0,2.5-0.4,3.1-1.3c0.6-0.9,1-2.3,1-4.2v-10H96v19.1H91z"/>
	<path d="M104.6,185.2v3.6h0.1c0.2-0.6,0.6-1.1,1-1.6c0.4-0.5,0.9-0.9,1.4-1.3c0.5-0.4,1.1-0.6,1.7-0.8c0.6-0.2,1.3-0.3,1.9-0.3
		c0.3,0,0.7,0.1,1.1,0.2v4.9c-0.2,0-0.5-0.1-0.9-0.1c-0.3,0-0.7-0.1-1-0.1c-1,0-1.8,0.2-2.4,0.5c-0.7,0.3-1.2,0.8-1.6,1.3
		c-0.4,0.6-0.7,1.2-0.9,1.9c-0.2,0.7-0.3,1.5-0.3,2.4v8.6h-5.3v-19.1H104.6z"/>
	<path d="M113.5,191.1c0.1-1.2,0.4-2.3,0.9-3.1c0.5-0.8,1.2-1.5,2.1-2c0.8-0.5,1.8-0.8,2.8-1.1c1-0.2,2.1-0.3,3.2-0.3
		c1,0,1.9,0.1,2.9,0.2c1,0.1,1.9,0.4,2.7,0.8c0.8,0.4,1.5,0.9,2,1.6s0.8,1.6,0.8,2.8v10c0,0.9,0,1.7,0.1,2.5
		c0.1,0.8,0.3,1.4,0.5,1.8h-5.3c-0.1-0.3-0.2-0.6-0.2-0.9c-0.1-0.3-0.1-0.6-0.1-0.9c-0.8,0.9-1.8,1.5-3,1.8
		c-1.1,0.3-2.3,0.5-3.5,0.5c-0.9,0-1.8-0.1-2.6-0.3c-0.8-0.2-1.5-0.6-2.1-1c-0.6-0.5-1.1-1.1-1.4-1.8c-0.3-0.7-0.5-1.6-0.5-2.6
		c0-1.1,0.2-2,0.6-2.7s0.9-1.3,1.5-1.7c0.6-0.4,1.3-0.7,2.1-0.9c0.8-0.2,1.6-0.4,2.3-0.5c0.8-0.1,1.6-0.2,2.3-0.3
		c0.8-0.1,1.4-0.2,2-0.3c0.6-0.1,1.1-0.4,1.4-0.6c0.3-0.3,0.5-0.7,0.5-1.2c0-0.6-0.1-1-0.3-1.4c-0.2-0.3-0.4-0.6-0.7-0.8
		c-0.3-0.2-0.7-0.3-1.1-0.4c-0.4-0.1-0.8-0.1-1.3-0.1c-1,0-1.8,0.2-2.4,0.7c-0.6,0.4-0.9,1.2-1,2.2H113.5z M125.6,195
		c-0.2,0.2-0.5,0.4-0.8,0.5s-0.7,0.2-1.1,0.3c-0.4,0.1-0.8,0.1-1.2,0.2c-0.4,0-0.8,0.1-1.3,0.2c-0.4,0.1-0.8,0.2-1.2,0.3
		c-0.4,0.1-0.7,0.3-1,0.5c-0.3,0.2-0.5,0.5-0.7,0.8c-0.2,0.3-0.3,0.7-0.3,1.2c0,0.5,0.1,0.9,0.3,1.2c0.2,0.3,0.4,0.6,0.7,0.8
		s0.6,0.3,1,0.4c0.4,0.1,0.8,0.1,1.2,0.1c1,0,1.8-0.2,2.4-0.5c0.6-0.3,1-0.8,1.3-1.2s0.4-1,0.5-1.5c0.1-0.5,0.1-0.9,0.1-1.2V195z"/>
	<path d="M139.6,185.2v2.7h0.1c0.7-1.1,1.5-1.9,2.6-2.4c1.1-0.5,2.1-0.8,3.3-0.8c1.4,0,2.6,0.2,3.5,0.6c0.9,0.4,1.6,0.9,2.1,1.6
		c0.5,0.7,0.9,1.5,1.1,2.5c0.2,1,0.3,2.1,0.3,3.2v11.8h-5.3v-10.8c0-1.6-0.2-2.8-0.7-3.5c-0.5-0.8-1.4-1.2-2.6-1.2
		c-1.4,0-2.5,0.4-3.1,1.3s-1,2.3-1,4.2v10h-5.3v-19.1H139.6z"/>
	<path d="M165.3,188.7c-0.8,0-1.5,0.2-2.1,0.6c-0.6,0.4-1,0.9-1.4,1.5c-0.4,0.6-0.6,1.3-0.8,2c-0.1,0.7-0.2,1.4-0.2,2.2
		c0,0.7,0.1,1.4,0.2,2.1c0.1,0.7,0.4,1.4,0.7,1.9s0.8,1.1,1.4,1.4s1.3,0.6,2.1,0.6c1.3,0,2.2-0.4,2.9-1.1c0.7-0.7,1.1-1.6,1.3-2.8
		h5.1c-0.3,2.5-1.3,4.5-3,5.8s-3.7,2-6.3,2c-1.4,0-2.7-0.2-3.9-0.7c-1.2-0.5-2.2-1.2-3.1-2c-0.8-0.9-1.5-1.9-2-3.1
		c-0.5-1.2-0.7-2.5-0.7-3.9c0-1.5,0.2-2.9,0.6-4.1c0.4-1.3,1.1-2.4,1.9-3.3c0.8-0.9,1.9-1.6,3.1-2.2c1.2-0.5,2.6-0.8,4.1-0.8
		c1.1,0,2.2,0.1,3.3,0.4s2,0.7,2.8,1.4c0.8,0.6,1.5,1.4,2,2.3c0.5,0.9,0.8,2,0.9,3.2h-5.1C168.9,189.8,167.6,188.7,165.3,188.7z"/>
	<path d="M182.7,199.8c0.8,0.8,1.9,1.1,3.4,1.1c1.1,0,2-0.3,2.7-0.8c0.8-0.5,1.2-1.1,1.4-1.7h4.6c-0.7,2.3-1.9,3.9-3.4,4.9
		c-1.5,1-3.4,1.5-5.5,1.5c-1.5,0-2.9-0.2-4.1-0.7c-1.2-0.5-2.2-1.2-3.1-2.1c-0.8-0.9-1.5-1.9-1.9-3.2c-0.5-1.2-0.7-2.6-0.7-4.1
		c0-1.4,0.2-2.8,0.7-4c0.5-1.2,1.1-2.3,2-3.2c0.9-0.9,1.9-1.6,3.1-2.1s2.5-0.8,4-0.8c1.6,0,3,0.3,4.3,0.9s2.2,1.5,3,2.5
		c0.8,1.1,1.3,2.3,1.7,3.6c0.3,1.4,0.5,2.8,0.4,4.3h-13.8C181.5,197.8,181.9,199,182.7,199.8z M188.7,189.7c-0.6-0.7-1.6-1-2.9-1
		c-0.8,0-1.5,0.1-2.1,0.4c-0.6,0.3-1,0.6-1.3,1.1c-0.3,0.4-0.6,0.9-0.7,1.3c-0.1,0.5-0.2,0.9-0.2,1.3h8.5
		C189.7,191.4,189.3,190.4,188.7,189.7z"/>
</g>
<g>
	<path d="M27.8,222.3v-4.3h5.3v4.3H27.8z M33.1,225.2v19.1h-5.3v-19.1H33.1z"/>
	<path d="M41.3,239.6c0.2,0.4,0.5,0.7,0.9,1c0.4,0.3,0.8,0.5,1.3,0.6c0.5,0.1,1,0.2,1.5,0.2c0.4,0,0.8,0,1.2-0.1
		c0.4-0.1,0.8-0.2,1.1-0.4c0.3-0.2,0.6-0.4,0.8-0.7c0.2-0.3,0.3-0.7,0.3-1.2c0-0.8-0.5-1.4-1.6-1.8c-1-0.4-2.5-0.8-4.4-1.2
		c-0.8-0.2-1.5-0.4-2.2-0.6c-0.7-0.2-1.4-0.5-1.9-0.9c-0.6-0.4-1-0.9-1.4-1.4c-0.3-0.6-0.5-1.3-0.5-2.1c0-1.2,0.2-2.2,0.7-3
		c0.5-0.8,1.1-1.4,1.9-1.9c0.8-0.5,1.7-0.8,2.7-1c1-0.2,2-0.3,3-0.3c1,0,2,0.1,3,0.3c1,0.2,1.8,0.5,2.6,1c0.8,0.5,1.4,1.1,1.9,1.9
		c0.5,0.8,0.8,1.8,0.9,2.9h-5c-0.1-1-0.5-1.7-1.1-2.1c-0.7-0.4-1.5-0.5-2.4-0.5c-0.3,0-0.6,0-1,0.1c-0.3,0-0.7,0.1-0.9,0.2
		c-0.3,0.1-0.5,0.3-0.7,0.5c-0.2,0.2-0.3,0.5-0.3,0.9c0,0.5,0.2,0.9,0.5,1.1c0.3,0.3,0.8,0.5,1.4,0.7c0.6,0.2,1.2,0.4,1.9,0.5
		c0.7,0.1,1.4,0.3,2.2,0.5c0.8,0.2,1.5,0.4,2.2,0.6s1.4,0.6,1.9,1c0.6,0.4,1,0.9,1.4,1.5c0.3,0.6,0.5,1.4,0.5,2.2
		c0,1.3-0.3,2.3-0.8,3.2c-0.5,0.9-1.2,1.5-2,2.1c-0.8,0.5-1.7,0.9-2.8,1.1c-1,0.2-2.1,0.3-3.2,0.3c-1.1,0-2.2-0.1-3.3-0.3
		c-1.1-0.2-2-0.6-2.8-1.1c-0.8-0.5-1.5-1.2-2-2.1c-0.5-0.9-0.8-1.9-0.9-3.2h5C40.9,238.7,41.1,239.2,41.3,239.6z"/>
	<path d="M70.7,239.6c0.2,0.4,0.5,0.7,0.9,1c0.4,0.3,0.8,0.5,1.3,0.6c0.5,0.1,1,0.2,1.5,0.2c0.4,0,0.8,0,1.2-0.1
		c0.4-0.1,0.8-0.2,1.1-0.4c0.3-0.2,0.6-0.4,0.8-0.7c0.2-0.3,0.3-0.7,0.3-1.2c0-0.8-0.5-1.4-1.6-1.8c-1-0.4-2.5-0.8-4.4-1.2
		c-0.8-0.2-1.5-0.4-2.2-0.6c-0.7-0.2-1.4-0.5-1.9-0.9c-0.6-0.4-1-0.9-1.4-1.4c-0.3-0.6-0.5-1.3-0.5-2.1c0-1.2,0.2-2.2,0.7-3
		c0.5-0.8,1.1-1.4,1.9-1.9c0.8-0.5,1.7-0.8,2.7-1c1-0.2,2-0.3,3-0.3c1,0,2,0.1,3,0.3c1,0.2,1.8,0.5,2.6,1c0.8,0.5,1.4,1.1,1.9,1.9
		c0.5,0.8,0.8,1.8,0.9,2.9h-5c-0.1-1-0.5-1.7-1.1-2.1c-0.7-0.4-1.5-0.5-2.4-0.5c-0.3,0-0.6,0-1,0.1c-0.3,0-0.7,0.1-0.9,0.2
		c-0.3,0.1-0.5,0.3-0.7,0.5c-0.2,0.2-0.3,0.5-0.3,0.9c0,0.5,0.2,0.9,0.5,1.1c0.3,0.3,0.8,0.5,1.4,0.7c0.6,0.2,1.2,0.4,1.9,0.5
		c0.7,0.1,1.4,0.3,2.2,0.5c0.8,0.2,1.5,0.4,2.2,0.6s1.4,0.6,1.9,1c0.6,0.4,1,0.9,1.4,1.5c0.3,0.6,0.5,1.4,0.5,2.2
		c0,1.3-0.3,2.3-0.8,3.2c-0.5,0.9-1.2,1.5-2,2.1c-0.8,0.5-1.7,0.9-2.8,1.1c-1,0.2-2.1,0.3-3.2,0.3c-1.1,0-2.2-0.1-3.3-0.3
		c-1.1-0.2-2-0.6-2.8-1.1c-0.8-0.5-1.5-1.2-2-2.1c-0.5-0.9-0.8-1.9-0.9-3.2h5C70.4,238.7,70.5,239.2,70.7,239.6z"/>
	<path d="M96.4,225.2v3.5h-3.8v9.5c0,0.9,0.1,1.5,0.4,1.8c0.3,0.3,0.9,0.4,1.8,0.4c0.3,0,0.6,0,0.9,0c0.3,0,0.5-0.1,0.8-0.1v4.1
		c-0.4,0.1-0.9,0.1-1.5,0.1c-0.5,0-1.1,0-1.6,0c-0.8,0-1.6-0.1-2.3-0.2c-0.7-0.1-1.4-0.3-1.9-0.6c-0.6-0.3-1-0.8-1.3-1.4
		c-0.3-0.6-0.5-1.4-0.5-2.3v-11.3h-3.2v-3.5h3.2v-5.7h5.3v5.7H96.4z"/>
	<path d="M98.7,222.3v-4.3h5.3v4.3H98.7z M103.9,225.2v19.1h-5.3v-19.1H103.9z"/>
	<path d="M113.1,217.9v26.4h-5.3v-26.4H113.1z"/>
	<path d="M122.3,217.9v26.4h-5.3v-26.4H122.3z"/>
	<path d="M136.2,222.3v-4.3h5.3v4.3H136.2z M141.5,225.2v19.1h-5.3v-19.1H141.5z"/>
	<path d="M150.3,225.2v2.7h0.1c0.7-1.1,1.5-1.9,2.6-2.4c1.1-0.5,2.1-0.8,3.3-0.8c1.4,0,2.6,0.2,3.5,0.6c0.9,0.4,1.6,0.9,2.1,1.6
		c0.5,0.7,0.9,1.5,1.1,2.5c0.2,1,0.3,2.1,0.3,3.2v11.8H158v-10.8c0-1.6-0.2-2.8-0.7-3.5c-0.5-0.8-1.4-1.2-2.6-1.2
		c-1.4,0-2.5,0.4-3.1,1.3s-1,2.3-1,4.2v10h-5.3v-19.1H150.3z"/>
</g>
<g>
	<path d="M32.1,279.6c0.2,0.4,0.5,0.7,0.9,1c0.4,0.3,0.8,0.5,1.3,0.6c0.5,0.1,1,0.2,1.5,0.2c0.4,0,0.8,0,1.2-0.1
		c0.4-0.1,0.8-0.2,1.1-0.4c0.3-0.2,0.6-0.4,0.8-0.7c0.2-0.3,0.3-0.7,0.3-1.2c0-0.8-0.5-1.4-1.6-1.8c-1-0.4-2.5-0.8-4.4-1.2
		c-0.8-0.2-1.5-0.4-2.2-0.6c-0.7-0.2-1.4-0.5-1.9-0.9c-0.6-0.4-1-0.9-1.4-1.4c-0.3-0.6-0.5-1.3-0.5-2.1c0-1.2,0.2-2.2,0.7-3
		c0.5-0.8,1.1-1.4,1.9-1.9c0.8-0.5,1.7-0.8,2.7-1c1-0.2,2-0.3,3-0.3c1,0,2,0.1,3,0.3c1,0.2,1.8,0.5,2.6,1c0.8,0.5,1.4,1.1,1.9,1.9
		c0.5,0.8,0.8,1.8,0.9,2.9h-5c-0.1-1-0.5-1.7-1.1-2.1c-0.7-0.4-1.5-0.5-2.4-0.5c-0.3,0-0.6,0-1,0.1c-0.3,0-0.7,0.1-0.9,0.2
		c-0.3,0.1-0.5,0.3-0.7,0.5c-0.2,0.2-0.3,0.5-0.3,0.9c0,0.5,0.2,0.9,0.5,1.1c0.3,0.3,0.8,0.5,1.4,0.7c0.6,0.2,1.2,0.4,1.9,0.5
		c0.7,0.1,1.4,0.3,2.2,0.5c0.8,0.2,1.5,0.4,2.2,0.6s1.4,0.6,1.9,1c0.6,0.4,1,0.9,1.4,1.5c0.3,0.6,0.5,1.4,0.5,2.2
		c0,1.3-0.3,2.3-0.8,3.2c-0.5,0.9-1.2,1.5-2,2.1c-0.8,0.5-1.7,0.9-2.8,1.1c-1,0.2-2.1,0.3-3.2,0.3c-1.1,0-2.2-0.1-3.3-0.3
		c-1.1-0.2-2-0.6-2.8-1.1c-0.8-0.5-1.5-1.2-2-2.1c-0.5-0.9-0.8-1.9-0.9-3.2h5C31.7,278.7,31.8,279.2,32.1,279.6z"/>
	<path d="M54.3,290c-1,0.7-2.4,1-4.2,1c-0.5,0-1.1,0-1.6-0.1c-0.5,0-1.1-0.1-1.6-0.1v-4.3c0.5,0,1,0.1,1.5,0.1c0.5,0,1,0.1,1.6,0
		c0.7-0.1,1.2-0.3,1.5-0.8c0.3-0.5,0.5-1,0.5-1.6c0-0.4-0.1-0.8-0.2-1.2L45,265.2h5.6l4.3,13.1H55l4.2-13.1h5.4l-8,21.5
		C56.1,288.3,55.3,289.4,54.3,290z"/>
	<path d="M71.1,265.2v2.7h0.1c0.7-1.1,1.5-1.9,2.6-2.4c1.1-0.5,2.1-0.8,3.3-0.8c1.4,0,2.6,0.2,3.5,0.6c0.9,0.4,1.6,0.9,2.1,1.6
		c0.5,0.7,0.9,1.5,1.1,2.5c0.2,1,0.3,2.1,0.3,3.2v11.8h-5.3v-10.8c0-1.6-0.2-2.8-0.7-3.5c-0.5-0.8-1.4-1.2-2.6-1.2
		c-1.4,0-2.5,0.4-3.1,1.3c-0.6,0.9-1,2.3-1,4.2v10h-5.3v-19.1H71.1z"/>
	<path d="M96.8,268.7c-0.8,0-1.5,0.2-2.1,0.6s-1,0.9-1.4,1.5c-0.4,0.6-0.6,1.3-0.8,2c-0.1,0.7-0.2,1.4-0.2,2.2
		c0,0.7,0.1,1.4,0.2,2.1s0.4,1.4,0.7,1.9s0.8,1.1,1.4,1.4c0.6,0.4,1.3,0.6,2.1,0.6c1.3,0,2.2-0.4,2.9-1.1c0.7-0.7,1.1-1.6,1.3-2.8
		h5.1c-0.3,2.5-1.3,4.5-3,5.8s-3.7,2-6.3,2c-1.4,0-2.7-0.2-3.9-0.7c-1.2-0.5-2.2-1.2-3.1-2c-0.8-0.9-1.5-1.9-2-3.1
		c-0.5-1.2-0.7-2.5-0.7-3.9c0-1.5,0.2-2.9,0.6-4.1c0.4-1.3,1.1-2.4,1.9-3.3c0.8-0.9,1.9-1.6,3.1-2.2s2.6-0.8,4.1-0.8
		c1.1,0,2.2,0.1,3.3,0.4c1,0.3,2,0.7,2.8,1.4c0.8,0.6,1.5,1.4,2,2.3c0.5,0.9,0.8,2,0.9,3.2h-5.1C100.3,269.8,99.1,268.7,96.8,268.7z
		"/>
	<path d="M135,284.4l-3.4-12.8h-0.1l-3.3,12.8h-5.4l-6.1-19.1h5.5l3.5,13h0.1l3.2-13h5.1l3.3,12.9h0.1l3.5-12.9h5.4l-6,19.1H135z"/>
	<path d="M148.4,262.3v-4.3h5.3v4.3H148.4z M153.7,265.2v19.1h-5.3v-19.1H153.7z"/>
	<path d="M168,265.2v3.5h-3.8v9.5c0,0.9,0.1,1.5,0.4,1.8c0.3,0.3,0.9,0.4,1.8,0.4c0.3,0,0.6,0,0.9,0c0.3,0,0.5-0.1,0.8-0.1v4.1
		c-0.4,0.1-0.9,0.1-1.5,0.1c-0.5,0-1.1,0-1.6,0c-0.8,0-1.6-0.1-2.3-0.2s-1.4-0.3-1.9-0.6c-0.6-0.3-1-0.8-1.3-1.4
		c-0.3-0.6-0.5-1.4-0.5-2.3v-11.3h-3.2v-3.5h3.2v-5.7h5.3v5.7H168z"/>
	<path d="M175.4,257.9v10h0.1c0.7-1.1,1.5-1.9,2.6-2.4c1-0.5,2-0.8,3-0.8c1.4,0,2.6,0.2,3.5,0.6c0.9,0.4,1.6,0.9,2.1,1.6
		c0.5,0.7,0.9,1.5,1.1,2.5c0.2,1,0.3,2.1,0.3,3.2v11.8h-5.3v-10.8c0-1.6-0.2-2.8-0.7-3.5c-0.5-0.8-1.4-1.2-2.6-1.2
		c-1.4,0-2.5,0.4-3.1,1.3s-1,2.3-1,4.2v10h-5.3v-26.4H175.4z"/>
</g>
<g>
	<path d="M34.7,330c-1,0.7-2.4,1-4.2,1c-0.5,0-1.1,0-1.6-0.1c-0.5,0-1.1-0.1-1.6-0.1v-4.3c0.5,0,1,0.1,1.5,0.1c0.5,0,1,0.1,1.6,0
		c0.7-0.1,1.2-0.3,1.5-0.8s0.5-1,0.5-1.6c0-0.4-0.1-0.8-0.2-1.2l-6.7-17.9h5.6l4.3,13.1h0.1l4.2-13.1h5.4l-8,21.5
		C36.5,328.3,35.7,329.4,34.7,330z"/>
	<path d="M46.6,310.6c0.5-1.2,1.1-2.3,2-3.2c0.9-0.9,1.9-1.6,3.1-2c1.2-0.5,2.6-0.7,4.1-0.7c1.5,0,2.9,0.2,4.1,0.7
		c1.2,0.5,2.3,1.2,3.1,2c0.9,0.9,1.5,1.9,2,3.2c0.5,1.2,0.7,2.6,0.7,4.2s-0.2,2.9-0.7,4.1c-0.5,1.2-1.1,2.3-2,3.2
		c-0.9,0.9-1.9,1.5-3.1,2c-1.2,0.5-2.6,0.7-4.1,0.7c-1.5,0-2.9-0.2-4.1-0.7c-1.2-0.5-2.2-1.1-3.1-2c-0.9-0.9-1.5-1.9-2-3.2
		c-0.5-1.2-0.7-2.6-0.7-4.1S46.2,311.9,46.6,310.6z M51.4,317c0.1,0.7,0.4,1.4,0.8,2c0.4,0.6,0.8,1,1.4,1.4c0.6,0.3,1.3,0.5,2.2,0.5
		c0.9,0,1.6-0.2,2.2-0.5c0.6-0.3,1.1-0.8,1.4-1.4c0.4-0.6,0.6-1.2,0.8-2s0.2-1.5,0.2-2.2s-0.1-1.5-0.2-2.3c-0.1-0.7-0.4-1.4-0.8-2
		c-0.4-0.6-0.8-1-1.4-1.4c-0.6-0.4-1.4-0.5-2.2-0.5c-0.9,0-1.6,0.2-2.2,0.5c-0.6,0.4-1.1,0.8-1.4,1.4c-0.4,0.6-0.6,1.2-0.8,2
		c-0.1,0.7-0.2,1.5-0.2,2.3S51.3,316.3,51.4,317z"/>
	<path d="M81.8,324.3v-2.7h-0.1c-0.7,1.1-1.5,1.9-2.6,2.4c-1.1,0.5-2.1,0.7-3.3,0.7c-1.4,0-2.6-0.2-3.5-0.6
		c-0.9-0.4-1.6-0.9-2.1-1.6c-0.5-0.7-0.9-1.5-1.1-2.5c-0.2-1-0.3-2.1-0.3-3.2v-11.8h5.3V316c0,1.6,0.2,2.8,0.7,3.5
		c0.5,0.8,1.4,1.2,2.6,1.2c1.4,0,2.5-0.4,3.1-1.3c0.6-0.9,1-2.3,1-4.2v-10h5.3v19.1H81.8z"/>
	<path d="M95.4,305.2v3.6h0.1c0.2-0.6,0.6-1.1,1-1.6c0.4-0.5,0.9-0.9,1.4-1.3c0.5-0.4,1.1-0.6,1.7-0.8c0.6-0.2,1.3-0.3,1.9-0.3
		c0.3,0,0.7,0.1,1.1,0.2v4.9c-0.2,0-0.5-0.1-0.9-0.1c-0.3,0-0.7-0.1-1-0.1c-1,0-1.8,0.2-2.4,0.5c-0.7,0.3-1.2,0.8-1.6,1.3
		c-0.4,0.6-0.7,1.2-0.9,1.9c-0.2,0.7-0.3,1.5-0.3,2.4v8.6h-5.3v-19.1H95.4z"/>
	<path d="M132.5,325.8c-0.2,1-0.7,1.9-1.4,2.8c-0.7,0.9-1.7,1.6-3,2.2c-1.3,0.6-3.1,0.9-5.3,0.9c-0.9,0-1.9-0.1-2.9-0.4
		c-1-0.2-1.9-0.6-2.7-1.1c-0.8-0.5-1.5-1.1-2-1.9c-0.5-0.8-0.8-1.7-0.9-2.8h5.2c0.2,1,0.7,1.7,1.4,2.1c0.7,0.4,1.5,0.6,2.5,0.6
		c1.5,0,2.6-0.4,3.2-1.3c0.7-0.9,1-2,1-3.4v-2.5h-0.1c-0.6,1-1.4,1.8-2.4,2.2c-1,0.5-2.2,0.7-3.3,0.7c-1.4,0-2.7-0.3-3.7-0.8
		c-1-0.5-1.9-1.2-2.6-2.1c-0.7-0.9-1.2-1.9-1.5-3.1c-0.3-1.2-0.5-2.4-0.5-3.7c0-1.2,0.2-2.4,0.5-3.6c0.4-1.1,0.9-2.2,1.6-3
		c0.7-0.9,1.5-1.6,2.6-2.1c1-0.5,2.2-0.8,3.5-0.8c1.3,0,2.4,0.2,3.3,0.7c0.9,0.5,1.7,1.3,2.4,2.4h0.1v-2.6h5v17.9
		C132.8,323.9,132.7,324.8,132.5,325.8z M125.3,319.4c0.6-0.3,1-0.7,1.4-1.2c0.4-0.5,0.6-1.1,0.8-1.7c0.2-0.6,0.3-1.3,0.3-2
		c0-0.8-0.1-1.5-0.2-2.2c-0.1-0.7-0.4-1.3-0.7-1.9c-0.3-0.5-0.8-1-1.4-1.3c-0.6-0.3-1.3-0.5-2.1-0.5c-0.7,0-1.4,0.1-1.9,0.4
		s-1,0.7-1.3,1.2c-0.4,0.5-0.6,1.1-0.8,1.7c-0.2,0.7-0.2,1.3-0.2,2.1c0,0.7,0.1,1.4,0.2,2.1s0.4,1.3,0.7,1.8c0.3,0.5,0.8,1,1.3,1.3
		c0.5,0.3,1.2,0.5,2,0.5C124,319.8,124.7,319.7,125.3,319.4z"/>
	<path d="M136.7,310.6c0.5-1.2,1.1-2.3,2-3.2c0.9-0.9,1.9-1.6,3.1-2c1.2-0.5,2.6-0.7,4.1-0.7s2.9,0.2,4.1,0.7c1.2,0.5,2.3,1.2,3.1,2
		c0.9,0.9,1.5,1.9,2,3.2c0.5,1.2,0.7,2.6,0.7,4.2s-0.2,2.9-0.7,4.1c-0.5,1.2-1.1,2.3-2,3.2s-1.9,1.5-3.1,2c-1.2,0.5-2.6,0.7-4.1,0.7
		s-2.9-0.2-4.1-0.7c-1.2-0.5-2.2-1.1-3.1-2s-1.5-1.9-2-3.2c-0.5-1.2-0.7-2.6-0.7-4.1S136.3,311.9,136.7,310.6z M141.5,317
		c0.1,0.7,0.4,1.4,0.8,2c0.4,0.6,0.8,1,1.4,1.4c0.6,0.3,1.3,0.5,2.2,0.5c0.9,0,1.6-0.2,2.2-0.5c0.6-0.3,1.1-0.8,1.4-1.4
		c0.4-0.6,0.6-1.2,0.8-2c0.1-0.7,0.2-1.5,0.2-2.2s-0.1-1.5-0.2-2.3c-0.1-0.7-0.4-1.4-0.8-2s-0.8-1-1.4-1.4c-0.6-0.4-1.3-0.5-2.2-0.5
		c-0.9,0-1.6,0.2-2.2,0.5c-0.6,0.4-1.1,0.8-1.4,1.4s-0.6,1.2-0.8,2c-0.1,0.7-0.2,1.5-0.2,2.3S141.4,316.3,141.5,317z"/>
	<path d="M158.7,311.1c0.1-1.2,0.4-2.3,0.9-3.1c0.5-0.8,1.2-1.5,2.1-2c0.8-0.5,1.8-0.8,2.8-1.1c1-0.2,2.1-0.3,3.2-0.3
		c1,0,1.9,0.1,2.9,0.2c1,0.1,1.9,0.4,2.7,0.8c0.8,0.4,1.5,0.9,2,1.6c0.5,0.7,0.8,1.6,0.8,2.8v10c0,0.9,0,1.7,0.1,2.5
		c0.1,0.8,0.3,1.4,0.5,1.8h-5.3c-0.1-0.3-0.2-0.6-0.2-0.9c-0.1-0.3-0.1-0.6-0.1-0.9c-0.8,0.9-1.8,1.5-3,1.8
		c-1.1,0.3-2.3,0.5-3.5,0.5c-0.9,0-1.8-0.1-2.6-0.3c-0.8-0.2-1.5-0.6-2.1-1c-0.6-0.5-1.1-1.1-1.4-1.8c-0.3-0.7-0.5-1.6-0.5-2.6
		c0-1.1,0.2-2,0.6-2.7c0.4-0.7,0.9-1.3,1.5-1.7c0.6-0.4,1.3-0.7,2.1-0.9c0.8-0.2,1.6-0.4,2.3-0.5c0.8-0.1,1.6-0.2,2.3-0.3
		c0.8-0.1,1.4-0.2,2-0.3c0.6-0.1,1.1-0.4,1.4-0.6c0.3-0.3,0.5-0.7,0.5-1.2c0-0.6-0.1-1-0.3-1.4c-0.2-0.3-0.4-0.6-0.7-0.8
		c-0.3-0.2-0.7-0.3-1.1-0.4s-0.8-0.1-1.3-0.1c-1,0-1.8,0.2-2.4,0.7c-0.6,0.4-0.9,1.2-1,2.2H158.7z M170.8,315
		c-0.2,0.2-0.5,0.4-0.8,0.5s-0.7,0.2-1.1,0.3c-0.4,0.1-0.8,0.1-1.2,0.2c-0.4,0-0.8,0.1-1.3,0.2c-0.4,0.1-0.8,0.2-1.2,0.3
		c-0.4,0.1-0.7,0.3-1,0.5c-0.3,0.2-0.5,0.5-0.7,0.8c-0.2,0.3-0.3,0.7-0.3,1.2c0,0.5,0.1,0.9,0.3,1.2c0.2,0.3,0.4,0.6,0.7,0.8
		c0.3,0.2,0.6,0.3,1,0.4c0.4,0.1,0.8,0.1,1.2,0.1c1,0,1.8-0.2,2.4-0.5s1-0.8,1.3-1.2c0.3-0.5,0.4-1,0.5-1.5s0.1-0.9,0.1-1.2V315z"/>
	<path d="M185.2,297.9v26.4h-5.3v-26.4H185.2z"/>
	<path d="M193.4,319.6c0.2,0.4,0.5,0.7,0.9,1c0.4,0.3,0.8,0.5,1.3,0.6s1,0.2,1.5,0.2c0.4,0,0.8,0,1.2-0.1c0.4-0.1,0.8-0.2,1.1-0.4
		c0.3-0.2,0.6-0.4,0.8-0.7s0.3-0.7,0.3-1.2c0-0.8-0.5-1.4-1.6-1.8c-1-0.4-2.5-0.8-4.4-1.2c-0.8-0.2-1.5-0.4-2.2-0.6
		c-0.7-0.2-1.4-0.5-1.9-0.9c-0.6-0.4-1-0.9-1.4-1.4c-0.3-0.6-0.5-1.3-0.5-2.1c0-1.2,0.2-2.2,0.7-3c0.5-0.8,1.1-1.4,1.9-1.9
		c0.8-0.5,1.7-0.8,2.7-1c1-0.2,2-0.3,3-0.3s2,0.1,3,0.3s1.8,0.5,2.6,1s1.4,1.1,1.9,1.9s0.8,1.8,0.9,2.9h-5c-0.1-1-0.5-1.7-1.1-2.1
		c-0.7-0.4-1.5-0.5-2.4-0.5c-0.3,0-0.6,0-1,0.1c-0.3,0-0.7,0.1-0.9,0.2c-0.3,0.1-0.5,0.3-0.7,0.5c-0.2,0.2-0.3,0.5-0.3,0.9
		c0,0.5,0.2,0.9,0.5,1.1c0.3,0.3,0.8,0.5,1.4,0.7c0.6,0.2,1.2,0.4,1.9,0.5c0.7,0.1,1.4,0.3,2.2,0.5c0.8,0.2,1.5,0.4,2.2,0.6
		c0.7,0.2,1.4,0.6,1.9,1c0.6,0.4,1,0.9,1.4,1.5c0.3,0.6,0.5,1.4,0.5,2.2c0,1.3-0.3,2.3-0.8,3.2s-1.2,1.5-2,2.1
		c-0.8,0.5-1.7,0.9-2.8,1.1c-1,0.2-2.1,0.3-3.2,0.3c-1.1,0-2.2-0.1-3.3-0.3c-1.1-0.2-2-0.6-2.8-1.1c-0.8-0.5-1.5-1.2-2-2.1
		c-0.5-0.9-0.8-1.9-0.9-3.2h5C193,318.7,193.2,319.2,193.4,319.6z"/>
</g>
<g>
	<path d="M27.8,342.3v-4.3h5.3v4.3H27.8z M33.1,345.2v19.1h-5.3v-19.1H33.1z"/>
	<path d="M41.3,359.6c0.2,0.4,0.5,0.7,0.9,1c0.4,0.3,0.8,0.5,1.3,0.6s1,0.2,1.5,0.2c0.4,0,0.8,0,1.2-0.1c0.4-0.1,0.8-0.2,1.1-0.4
		c0.3-0.2,0.6-0.4,0.8-0.7s0.3-0.7,0.3-1.2c0-0.8-0.5-1.4-1.6-1.8c-1-0.4-2.5-0.8-4.4-1.2c-0.8-0.2-1.5-0.4-2.2-0.6
		c-0.7-0.2-1.4-0.5-1.9-0.9c-0.6-0.4-1-0.9-1.4-1.4c-0.3-0.6-0.5-1.3-0.5-2.1c0-1.2,0.2-2.2,0.7-3c0.5-0.8,1.1-1.4,1.9-1.9
		c0.8-0.5,1.7-0.8,2.7-1c1-0.2,2-0.3,3-0.3c1,0,2,0.1,3,0.3c1,0.2,1.8,0.5,2.6,1s1.4,1.1,1.9,1.9c0.5,0.8,0.8,1.8,0.9,2.9h-5
		c-0.1-1-0.5-1.7-1.1-2.1c-0.7-0.4-1.5-0.5-2.4-0.5c-0.3,0-0.6,0-1,0.1c-0.3,0-0.7,0.1-0.9,0.2c-0.3,0.1-0.5,0.3-0.7,0.5
		c-0.2,0.2-0.3,0.5-0.3,0.9c0,0.5,0.2,0.9,0.5,1.1c0.3,0.3,0.8,0.5,1.4,0.7c0.6,0.2,1.2,0.4,1.9,0.5c0.7,0.1,1.4,0.3,2.2,0.5
		c0.8,0.2,1.5,0.4,2.2,0.6c0.7,0.2,1.4,0.6,1.9,1c0.6,0.4,1,0.9,1.4,1.5c0.3,0.6,0.5,1.4,0.5,2.2c0,1.3-0.3,2.3-0.8,3.2
		c-0.5,0.9-1.2,1.5-2,2.1c-0.8,0.5-1.7,0.9-2.8,1.1c-1,0.2-2.1,0.3-3.2,0.3c-1.1,0-2.2-0.1-3.3-0.3c-1.1-0.2-2-0.6-2.8-1.1
		c-0.8-0.5-1.5-1.2-2-2.1c-0.5-0.9-0.8-1.9-0.9-3.2h5C40.9,358.7,41.1,359.2,41.3,359.6z"/>
	<path d="M66.1,351.1c0.1-1.2,0.4-2.3,0.9-3.1c0.5-0.8,1.2-1.5,2.1-2c0.8-0.5,1.8-0.8,2.8-1.1c1-0.2,2.1-0.3,3.2-0.3
		c1,0,1.9,0.1,2.9,0.2c1,0.1,1.9,0.4,2.7,0.8c0.8,0.4,1.5,0.9,2,1.6c0.5,0.7,0.8,1.6,0.8,2.8v10c0,0.9,0,1.7,0.1,2.5
		c0.1,0.8,0.3,1.4,0.5,1.8h-5.3c-0.1-0.3-0.2-0.6-0.2-0.9c-0.1-0.3-0.1-0.6-0.1-0.9c-0.8,0.9-1.8,1.5-3,1.8
		c-1.1,0.3-2.3,0.5-3.5,0.5c-0.9,0-1.8-0.1-2.6-0.3c-0.8-0.2-1.5-0.6-2.1-1c-0.6-0.5-1.1-1.1-1.4-1.8c-0.3-0.7-0.5-1.6-0.5-2.6
		c0-1.1,0.2-2,0.6-2.7s0.9-1.3,1.5-1.7c0.6-0.4,1.3-0.7,2.1-0.9c0.8-0.2,1.6-0.4,2.3-0.5c0.8-0.1,1.6-0.2,2.3-0.3
		c0.8-0.1,1.4-0.2,2-0.3c0.6-0.1,1.1-0.4,1.4-0.6c0.3-0.3,0.5-0.7,0.5-1.2c0-0.6-0.1-1-0.3-1.4c-0.2-0.3-0.4-0.6-0.7-0.8
		c-0.3-0.2-0.7-0.3-1.1-0.4c-0.4-0.1-0.8-0.1-1.3-0.1c-1,0-1.8,0.2-2.4,0.7c-0.6,0.4-0.9,1.2-1,2.2H66.1z M78.2,355
		c-0.2,0.2-0.5,0.4-0.8,0.5s-0.7,0.2-1.1,0.3s-0.8,0.1-1.2,0.2c-0.4,0-0.8,0.1-1.3,0.2c-0.4,0.1-0.8,0.2-1.2,0.3
		c-0.4,0.1-0.7,0.3-1,0.5c-0.3,0.2-0.5,0.5-0.7,0.8c-0.2,0.3-0.3,0.7-0.3,1.2c0,0.5,0.1,0.9,0.3,1.2c0.2,0.3,0.4,0.6,0.7,0.8
		c0.3,0.2,0.6,0.3,1,0.4c0.4,0.1,0.8,0.1,1.2,0.1c1,0,1.8-0.2,2.4-0.5c0.6-0.3,1-0.8,1.3-1.2c0.3-0.5,0.4-1,0.5-1.5s0.1-0.9,0.1-1.2
		V355z"/>
	<path d="M115.2,365.8c-0.2,1-0.7,1.9-1.4,2.8c-0.7,0.9-1.7,1.6-3,2.2c-1.3,0.6-3.1,0.9-5.3,0.9c-0.9,0-1.9-0.1-2.9-0.4
		c-1-0.2-1.9-0.6-2.7-1.1c-0.8-0.5-1.5-1.1-2-1.9c-0.5-0.8-0.8-1.7-0.9-2.8h5.2c0.2,1,0.7,1.7,1.4,2.1c0.7,0.4,1.5,0.6,2.5,0.6
		c1.5,0,2.6-0.4,3.2-1.3c0.7-0.9,1-2,1-3.4v-2.5h-0.1c-0.6,1-1.4,1.8-2.4,2.2c-1,0.5-2.2,0.7-3.3,0.7c-1.4,0-2.7-0.3-3.7-0.8
		c-1-0.5-1.9-1.2-2.6-2.1c-0.7-0.9-1.2-1.9-1.5-3.1c-0.3-1.2-0.5-2.4-0.5-3.7c0-1.2,0.2-2.4,0.5-3.6c0.4-1.1,0.9-2.2,1.6-3
		c0.7-0.9,1.5-1.6,2.6-2.1c1-0.5,2.2-0.8,3.5-0.8c1.3,0,2.4,0.2,3.3,0.7c0.9,0.5,1.7,1.3,2.4,2.4h0.1v-2.6h5v17.9
		C115.5,363.9,115.4,364.8,115.2,365.8z M108,359.4c0.6-0.3,1-0.7,1.4-1.2c0.4-0.5,0.6-1.1,0.8-1.7c0.2-0.6,0.3-1.3,0.3-2
		c0-0.8-0.1-1.5-0.2-2.2c-0.1-0.7-0.4-1.3-0.7-1.9c-0.3-0.5-0.8-1-1.4-1.3c-0.6-0.3-1.3-0.5-2.1-0.5c-0.7,0-1.4,0.1-1.9,0.4
		s-1,0.7-1.3,1.2c-0.4,0.5-0.6,1.1-0.8,1.7c-0.2,0.7-0.2,1.3-0.2,2.1c0,0.7,0.1,1.4,0.2,2.1s0.4,1.3,0.7,1.8c0.3,0.5,0.8,1,1.3,1.3
		c0.5,0.3,1.2,0.5,2,0.5C106.8,359.8,107.5,359.7,108,359.4z"/>
	<path d="M119.5,350.6c0.5-1.2,1.1-2.3,2-3.2c0.9-0.9,1.9-1.6,3.1-2c1.2-0.5,2.6-0.7,4.1-0.7c1.5,0,2.9,0.2,4.1,0.7
		c1.2,0.5,2.3,1.2,3.1,2c0.9,0.9,1.5,1.9,2,3.2c0.5,1.2,0.7,2.6,0.7,4.2s-0.2,2.9-0.7,4.1c-0.5,1.2-1.1,2.3-2,3.2
		c-0.9,0.9-1.9,1.5-3.1,2c-1.2,0.5-2.6,0.7-4.1,0.7c-1.5,0-2.9-0.2-4.1-0.7c-1.2-0.5-2.2-1.1-3.1-2c-0.9-0.9-1.5-1.9-2-3.2
		c-0.5-1.2-0.7-2.6-0.7-4.1S119,351.9,119.5,350.6z M124.3,357c0.1,0.7,0.4,1.4,0.8,2c0.4,0.6,0.8,1,1.4,1.4
		c0.6,0.3,1.3,0.5,2.2,0.5c0.9,0,1.6-0.2,2.2-0.5c0.6-0.3,1.1-0.8,1.4-1.4c0.4-0.6,0.6-1.2,0.8-2s0.2-1.5,0.2-2.2s-0.1-1.5-0.2-2.3
		c-0.1-0.7-0.4-1.4-0.8-2c-0.4-0.6-0.8-1-1.4-1.4c-0.6-0.4-1.4-0.5-2.2-0.5c-0.9,0-1.6,0.2-2.2,0.5c-0.6,0.4-1.1,0.8-1.4,1.4
		c-0.4,0.6-0.6,1.2-0.8,2c-0.1,0.7-0.2,1.5-0.2,2.3S124.1,356.3,124.3,357z"/>
	<path d="M141.8,350.6c0.5-1.2,1.1-2.3,2-3.2c0.9-0.9,1.9-1.6,3.1-2c1.2-0.5,2.6-0.7,4.1-0.7c1.5,0,2.9,0.2,4.1,0.7
		c1.2,0.5,2.3,1.2,3.1,2c0.9,0.9,1.5,1.9,2,3.2c0.5,1.2,0.7,2.6,0.7,4.2s-0.2,2.9-0.7,4.1c-0.5,1.2-1.1,2.3-2,3.2s-1.9,1.5-3.1,2
		c-1.2,0.5-2.6,0.7-4.1,0.7c-1.5,0-2.9-0.2-4.1-0.7c-1.2-0.5-2.2-1.1-3.1-2c-0.9-0.9-1.5-1.9-2-3.2c-0.5-1.2-0.7-2.6-0.7-4.1
		S141.3,351.9,141.8,350.6z M146.5,357c0.1,0.7,0.4,1.4,0.8,2c0.4,0.6,0.8,1,1.4,1.4c0.6,0.3,1.3,0.5,2.2,0.5s1.6-0.2,2.2-0.5
		c0.6-0.3,1.1-0.8,1.4-1.4c0.4-0.6,0.6-1.2,0.8-2c0.1-0.7,0.2-1.5,0.2-2.2s-0.1-1.5-0.2-2.3c-0.1-0.7-0.4-1.4-0.8-2
		c-0.4-0.6-0.8-1-1.4-1.4s-1.4-0.5-2.2-0.5s-1.6,0.2-2.2,0.5c-0.6,0.4-1.1,0.8-1.4,1.4c-0.4,0.6-0.6,1.2-0.8,2
		c-0.1,0.7-0.2,1.5-0.2,2.3S146.4,356.3,146.5,357z"/>
	<path d="M177.5,361.9c-0.6,1-1.4,1.8-2.4,2.2s-2.1,0.7-3.4,0.7c-1.4,0-2.7-0.3-3.8-0.8c-1.1-0.6-2-1.3-2.7-2.3
		c-0.7-0.9-1.2-2-1.6-3.3c-0.4-1.2-0.5-2.5-0.5-3.8c0-1.3,0.2-2.5,0.5-3.7c0.4-1.2,0.9-2.3,1.6-3.2c0.7-0.9,1.6-1.6,2.6-2.2
		s2.3-0.8,3.7-0.8c1.1,0,2.2,0.2,3.2,0.7c1,0.5,1.8,1.2,2.4,2.1h0.1v-9.6h5.3v26.4h-5L177.5,361.9L177.5,361.9z M177.3,352.4
		c-0.1-0.7-0.4-1.4-0.8-1.9c-0.4-0.6-0.8-1-1.4-1.4s-1.3-0.5-2.1-0.5c-0.9,0-1.6,0.2-2.2,0.5s-1.1,0.8-1.4,1.4s-0.6,1.2-0.8,1.9
		c-0.2,0.7-0.2,1.5-0.2,2.3c0,0.7,0.1,1.5,0.3,2.2c0.2,0.7,0.4,1.4,0.8,2c0.4,0.6,0.9,1,1.4,1.4c0.6,0.4,1.3,0.5,2.1,0.5
		c0.9,0,1.6-0.2,2.2-0.5c0.6-0.3,1-0.8,1.4-1.4c0.3-0.6,0.6-1.2,0.7-2c0.1-0.7,0.2-1.5,0.2-2.3C177.5,353.9,177.4,353.2,177.3,352.4
		z"/>
</g>
<g>
	<path d="M32.7,385.2v2.4h0.1c0.6-1,1.5-1.8,2.4-2.3c1-0.5,2.1-0.7,3.3-0.7c1.5,0,2.8,0.3,3.9,0.9s2,1.3,2.7,2.3
		c0.7,0.9,1.2,2,1.6,3.3c0.3,1.2,0.5,2.5,0.5,3.9c0,1.3-0.2,2.5-0.5,3.7c-0.3,1.2-0.9,2.2-1.6,3.1c-0.7,0.9-1.6,1.6-2.6,2.2
		c-1,0.5-2.3,0.8-3.7,0.8c-1.2,0-2.3-0.2-3.3-0.7c-1-0.5-1.8-1.2-2.5-2.1h-0.1v9.1h-5.3v-25.8H32.7z M39.5,400.4
		c0.6-0.3,1-0.8,1.4-1.4c0.4-0.6,0.6-1.2,0.8-1.9s0.2-1.5,0.2-2.3s-0.1-1.5-0.2-2.3c-0.2-0.7-0.4-1.4-0.8-2c-0.4-0.6-0.8-1-1.4-1.4
		c-0.6-0.4-1.3-0.5-2.1-0.5c-0.9,0-1.6,0.2-2.2,0.5c-0.6,0.4-1,0.8-1.4,1.4c-0.4,0.6-0.6,1.2-0.8,2c-0.1,0.7-0.2,1.5-0.2,2.3
		c0,0.8,0.1,1.5,0.2,2.3c0.2,0.7,0.4,1.4,0.8,1.9c0.4,0.6,0.8,1,1.4,1.4c0.6,0.3,1.3,0.5,2.1,0.5C38.2,400.9,38.9,400.7,39.5,400.4z
		"/>
	<path d="M55.3,377.9v26.4h-5.3v-26.4H55.3z"/>
	<path d="M58.9,391.1c0.1-1.2,0.4-2.3,0.9-3.1c0.5-0.8,1.2-1.5,2.1-2c0.8-0.5,1.8-0.8,2.8-1.1c1-0.2,2.1-0.3,3.2-0.3
		c1,0,1.9,0.1,2.9,0.2c1,0.1,1.9,0.4,2.7,0.8c0.8,0.4,1.5,0.9,2,1.6c0.5,0.7,0.8,1.6,0.8,2.8v10c0,0.9,0,1.7,0.1,2.5
		c0.1,0.8,0.3,1.4,0.5,1.8h-5.3c-0.1-0.3-0.2-0.6-0.2-0.9c-0.1-0.3-0.1-0.6-0.1-0.9c-0.8,0.9-1.8,1.5-3,1.8
		c-1.1,0.3-2.3,0.5-3.5,0.5c-0.9,0-1.8-0.1-2.6-0.3c-0.8-0.2-1.5-0.6-2.1-1c-0.6-0.5-1.1-1.1-1.4-1.8c-0.3-0.7-0.5-1.6-0.5-2.6
		c0-1.1,0.2-2,0.6-2.7s0.9-1.3,1.5-1.7c0.6-0.4,1.3-0.7,2.1-0.9c0.8-0.2,1.6-0.4,2.3-0.5c0.8-0.1,1.6-0.2,2.3-0.3
		c0.8-0.1,1.4-0.2,2-0.3c0.6-0.1,1.1-0.4,1.4-0.6c0.3-0.3,0.5-0.7,0.5-1.2c0-0.6-0.1-1-0.3-1.4c-0.2-0.3-0.4-0.6-0.7-0.8
		c-0.3-0.2-0.7-0.3-1.1-0.4c-0.4-0.1-0.8-0.1-1.3-0.1c-1,0-1.8,0.2-2.4,0.7c-0.6,0.4-0.9,1.2-1,2.2H58.9z M71.1,395
		c-0.2,0.2-0.5,0.4-0.8,0.5s-0.7,0.2-1.1,0.3s-0.8,0.1-1.2,0.2c-0.4,0-0.8,0.1-1.3,0.2c-0.4,0.1-0.8,0.2-1.2,0.3
		c-0.4,0.1-0.7,0.3-1,0.5c-0.3,0.2-0.5,0.5-0.7,0.8c-0.2,0.3-0.3,0.7-0.3,1.2c0,0.5,0.1,0.9,0.3,1.2c0.2,0.3,0.4,0.6,0.7,0.8
		c0.3,0.2,0.6,0.3,1,0.4c0.4,0.1,0.8,0.1,1.2,0.1c1,0,1.8-0.2,2.4-0.5c0.6-0.3,1-0.8,1.3-1.2c0.3-0.5,0.4-1,0.5-1.5s0.1-0.9,0.1-1.2
		V395z"/>
	<path d="M85,385.2v2.7h0.1c0.7-1.1,1.5-1.9,2.6-2.4c1.1-0.5,2.1-0.8,3.3-0.8c1.4,0,2.6,0.2,3.5,0.6c0.9,0.4,1.6,0.9,2.1,1.6
		c0.5,0.7,0.9,1.5,1.1,2.5c0.2,1,0.3,2.1,0.3,3.2v11.8h-5.3v-10.8c0-1.6-0.2-2.8-0.7-3.5c-0.5-0.8-1.4-1.2-2.6-1.2
		c-1.4,0-2.5,0.4-3.1,1.3c-0.6,0.9-1,2.3-1,4.2v10H80v-19.1H85z"/>
	<path d="M107.7,398.6v5.7c0,0.8-0.2,1.6-0.5,2.3c-0.3,0.7-0.7,1.3-1.2,1.8c-0.5,0.5-1.1,0.9-1.8,1.3c-0.7,0.3-1.4,0.6-2.2,0.7v-2.7
		c0.4-0.1,0.7-0.2,1.1-0.4s0.6-0.5,0.9-0.8s0.4-0.7,0.6-1c0.1-0.4,0.2-0.8,0.1-1.2h-2.7v-5.7H107.7z"/>
	<path d="M132,385.2v3.5h-3.8v9.5c0,0.9,0.1,1.5,0.4,1.8s0.9,0.4,1.8,0.4c0.3,0,0.6,0,0.9,0c0.3,0,0.5-0.1,0.8-0.1v4.1
		c-0.4,0.1-0.9,0.1-1.5,0.1c-0.5,0-1.1,0-1.6,0c-0.8,0-1.6-0.1-2.3-0.2c-0.7-0.1-1.4-0.3-1.9-0.6c-0.6-0.3-1-0.8-1.3-1.4
		c-0.3-0.6-0.5-1.4-0.5-2.3v-11.3h-3.2v-3.5h3.2v-5.7h5.3v5.7H132z"/>
	<path d="M134.3,390.6c0.5-1.2,1.1-2.3,2-3.2c0.9-0.9,1.9-1.6,3.1-2c1.2-0.5,2.6-0.7,4.1-0.7c1.5,0,2.9,0.2,4.1,0.7
		c1.2,0.5,2.3,1.2,3.1,2c0.9,0.9,1.5,1.9,2,3.2c0.5,1.2,0.7,2.6,0.7,4.2s-0.2,2.9-0.7,4.1c-0.5,1.2-1.1,2.3-2,3.2s-1.9,1.5-3.1,2
		c-1.2,0.5-2.6,0.7-4.1,0.7c-1.5,0-2.9-0.2-4.1-0.7c-1.2-0.5-2.2-1.1-3.1-2s-1.5-1.9-2-3.2c-0.5-1.2-0.7-2.6-0.7-4.1
		S133.8,391.9,134.3,390.6z M139.1,397c0.1,0.7,0.4,1.4,0.8,2c0.4,0.6,0.8,1,1.4,1.4c0.6,0.3,1.3,0.5,2.2,0.5s1.6-0.2,2.2-0.5
		c0.6-0.3,1.1-0.8,1.4-1.4c0.4-0.6,0.6-1.2,0.8-2c0.1-0.7,0.2-1.5,0.2-2.2s-0.1-1.5-0.2-2.3c-0.1-0.7-0.4-1.4-0.8-2
		c-0.4-0.6-0.8-1-1.4-1.4s-1.4-0.5-2.2-0.5s-1.6,0.2-2.2,0.5c-0.6,0.4-1.1,0.8-1.4,1.4c-0.4,0.6-0.6,1.2-0.8,2
		c-0.1,0.7-0.2,1.5-0.2,2.3S138.9,396.3,139.1,397z"/>
	<path d="M156.6,390.6c0.5-1.2,1.1-2.3,2-3.2c0.9-0.9,1.9-1.6,3.1-2c1.2-0.5,2.6-0.7,4.1-0.7c1.5,0,2.9,0.2,4.1,0.7
		c1.2,0.5,2.3,1.2,3.1,2c0.9,0.9,1.5,1.9,2,3.2c0.5,1.2,0.7,2.6,0.7,4.2s-0.2,2.9-0.7,4.1c-0.5,1.2-1.1,2.3-2,3.2s-1.9,1.5-3.1,2
		c-1.2,0.5-2.6,0.7-4.1,0.7c-1.5,0-2.9-0.2-4.1-0.7c-1.2-0.5-2.2-1.1-3.1-2c-0.9-0.9-1.5-1.9-2-3.2c-0.5-1.2-0.7-2.6-0.7-4.1
		S156.1,391.9,156.6,390.6z M161.3,397c0.1,0.7,0.4,1.4,0.8,2c0.4,0.6,0.8,1,1.4,1.4c0.6,0.3,1.3,0.5,2.2,0.5s1.6-0.2,2.2-0.5
		c0.6-0.3,1.1-0.8,1.4-1.4c0.4-0.6,0.6-1.2,0.8-2c0.1-0.7,0.2-1.5,0.2-2.2s-0.1-1.5-0.2-2.3c-0.1-0.7-0.4-1.4-0.8-2
		c-0.4-0.6-0.8-1-1.4-1.4s-1.4-0.5-2.2-0.5s-1.6,0.2-2.2,0.5c-0.6,0.4-1.1,0.8-1.4,1.4c-0.4,0.6-0.6,1.2-0.8,2
		c-0.1,0.7-0.2,1.5-0.2,2.3S161.2,396.3,161.3,397z"/>
	<path d="M184.7,398.6v5.7h-5.8v-5.7H184.7z"/>
</g>
</svg>
