<?xml version="1.0" encoding="utf-8"?>
<!-- Generator: Adobe Illustrator 25.4.1, SVG Export Plug-In . SVG Version: 6.00 Build 0)  -->
<svg version="1.1" id="Layer_1" xmlns="http://www.w3.org/2000/svg" xmlns:xlink="http://www.w3.org/1999/xlink" x="0px" y="0px"
	 viewBox="0 0 300 600" style="enable-background:new 0 0 300 600;" xml:space="preserve">
<g>
	<path d="M115.1,97.2c1.2,0,2.2,0.2,3.2,0.6c0.9,0.4,1.8,0.9,2.4,1.6c0.7,0.7,1.2,1.4,1.5,2.3c0.4,0.9,0.5,1.8,0.5,2.8
		c0,1.5-0.3,2.9-1,4c-0.7,1.1-1.7,2-3.2,2.6v0.1c0.7,0.2,1.3,0.5,1.8,0.9c0.5,0.4,0.8,0.9,1.1,1.4c0.3,0.6,0.5,1.2,0.6,1.8
		c0.1,0.7,0.2,1.3,0.3,2c0,0.4,0,0.9,0.1,1.5c0,0.6,0.1,1.1,0.1,1.7c0.1,0.6,0.2,1.2,0.3,1.7c0.1,0.5,0.3,1,0.6,1.3h-5.8
		c-0.3-0.8-0.5-1.8-0.6-3c-0.1-1.2-0.2-2.3-0.3-3.3c-0.2-1.4-0.6-2.4-1.3-3c-0.6-0.6-1.7-1-3.1-1h-5.8v10.3h-5.8V97.2H115.1z
		 M113,109.1c1.3,0,2.3-0.3,3-0.9s1-1.5,1-2.9c0-1.3-0.3-2.2-1-2.8c-0.7-0.6-1.7-0.9-3-0.9h-6.3v7.4H113z"/>
	<path d="M132.6,119c0.8,0.8,1.9,1.1,3.4,1.1c1.1,0,2-0.3,2.7-0.8c0.8-0.5,1.2-1.1,1.4-1.7h4.6c-0.7,2.3-1.9,3.9-3.4,4.9
		c-1.5,1-3.4,1.5-5.5,1.5c-1.5,0-2.9-0.2-4.1-0.7c-1.2-0.5-2.2-1.2-3.1-2c-0.8-0.9-1.5-1.9-1.9-3.2c-0.5-1.2-0.7-2.6-0.7-4.1
		c0-1.4,0.2-2.8,0.7-4c0.5-1.2,1.1-2.3,2-3.2c0.9-0.9,1.9-1.6,3.1-2.1s2.5-0.8,4-0.8c1.6,0,3,0.3,4.2,0.9c1.2,0.6,2.2,1.5,3,2.5
		c0.8,1.1,1.3,2.3,1.7,3.6c0.3,1.4,0.5,2.8,0.4,4.2h-13.8C131.3,117,131.8,118.2,132.6,119z M138.5,108.9c-0.6-0.7-1.6-1-2.9-1
		c-0.8,0-1.5,0.1-2.1,0.4c-0.6,0.3-1,0.6-1.3,1.1c-0.3,0.4-0.6,0.9-0.7,1.3c-0.1,0.5-0.2,0.9-0.2,1.3h8.5
		C139.5,110.6,139.1,109.6,138.5,108.9z"/>
	<path d="M147.9,110.3c0.1-1.2,0.4-2.3,0.9-3.1c0.5-0.8,1.2-1.5,2.1-2c0.8-0.5,1.8-0.8,2.8-1.1c1-0.2,2.1-0.3,3.2-0.3
		c1,0,1.9,0.1,2.9,0.2s1.9,0.4,2.7,0.8c0.8,0.4,1.5,0.9,2,1.6c0.5,0.7,0.8,1.6,0.8,2.8v9.9c0,0.9,0,1.7,0.1,2.5
		c0.1,0.8,0.3,1.4,0.5,1.8h-5.3c-0.1-0.3-0.2-0.6-0.2-0.9c-0.1-0.3-0.1-0.6-0.1-0.9c-0.8,0.9-1.8,1.5-3,1.8s-2.3,0.5-3.5,0.5
		c-0.9,0-1.8-0.1-2.5-0.3c-0.8-0.2-1.5-0.6-2.1-1c-0.6-0.5-1.1-1.1-1.4-1.8c-0.3-0.7-0.5-1.6-0.5-2.5c0-1.1,0.2-2,0.6-2.7
		c0.4-0.7,0.9-1.3,1.5-1.7c0.6-0.4,1.3-0.7,2.1-0.9c0.8-0.2,1.6-0.4,2.3-0.5c0.8-0.1,1.6-0.2,2.3-0.3c0.8-0.1,1.4-0.2,2-0.3
		c0.6-0.1,1.1-0.4,1.4-0.6c0.3-0.3,0.5-0.7,0.5-1.2c0-0.6-0.1-1-0.3-1.3c-0.2-0.3-0.4-0.6-0.7-0.8c-0.3-0.2-0.7-0.3-1.1-0.4
		s-0.8-0.1-1.3-0.1c-1,0-1.8,0.2-2.4,0.7s-0.9,1.2-1,2.2H147.9z M160,114.2c-0.2,0.2-0.5,0.4-0.8,0.5s-0.7,0.2-1.1,0.3
		c-0.4,0.1-0.8,0.1-1.2,0.2s-0.8,0.1-1.3,0.2c-0.4,0.1-0.8,0.2-1.2,0.3c-0.4,0.1-0.7,0.3-1,0.5c-0.3,0.2-0.5,0.5-0.7,0.8
		c-0.2,0.3-0.3,0.7-0.3,1.2c0,0.5,0.1,0.9,0.3,1.2c0.2,0.3,0.4,0.6,0.7,0.8s0.6,0.3,1,0.4c0.4,0.1,0.8,0.1,1.2,0.1
		c1,0,1.8-0.2,2.4-0.5c0.6-0.3,1-0.8,1.3-1.2c0.3-0.5,0.4-1,0.5-1.5c0.1-0.5,0.1-0.9,0.1-1.2V114.2z"/>
	<path d="M182.9,121.1c-0.6,1-1.4,1.8-2.4,2.2c-1,0.5-2.1,0.7-3.4,0.7c-1.4,0-2.7-0.3-3.8-0.8c-1.1-0.6-2-1.3-2.7-2.3
		c-0.7-0.9-1.2-2-1.6-3.3c-0.4-1.2-0.5-2.5-0.5-3.8c0-1.3,0.2-2.5,0.5-3.7c0.4-1.2,0.9-2.2,1.6-3.2c0.7-0.9,1.6-1.6,2.6-2.2
		c1.1-0.6,2.3-0.8,3.7-0.8c1.1,0,2.2,0.2,3.2,0.7c1,0.5,1.8,1.2,2.4,2.1h0.1v-9.6h5.2v26.3h-5L182.9,121.1L182.9,121.1z
		 M182.6,111.7c-0.1-0.7-0.4-1.4-0.8-1.9c-0.4-0.6-0.8-1-1.4-1.3c-0.6-0.3-1.3-0.5-2.1-0.5c-0.9,0-1.6,0.2-2.2,0.5
		c-0.6,0.3-1.1,0.8-1.4,1.4c-0.4,0.6-0.6,1.2-0.8,1.9c-0.2,0.7-0.2,1.5-0.2,2.3c0,0.7,0.1,1.5,0.3,2.2c0.2,0.7,0.4,1.4,0.8,2
		c0.4,0.6,0.9,1,1.4,1.4c0.6,0.4,1.3,0.5,2.1,0.5c0.9,0,1.6-0.2,2.2-0.5c0.6-0.3,1-0.8,1.4-1.4c0.3-0.6,0.6-1.2,0.7-2
		c0.1-0.7,0.2-1.5,0.2-2.3C182.9,113.2,182.8,112.4,182.6,111.7z"/>
	<path d="M192.1,110.5v-5.7h5.8v5.7H192.1z M197.9,117.9v5.7h-5.8v-5.7H197.9z"/>
</g>
<g>
	<path d="M87.6,137.1c1.3,0,2.6,0.1,3.7,0.4c1.1,0.3,2.1,0.7,2.9,1.3c0.8,0.6,1.4,1.4,1.9,2.4c0.5,1,0.7,2.2,0.7,3.7
		c0,1.5-0.3,2.7-0.8,3.9s-1.3,2.1-2.3,2.9c-0.9,0.8-2,1.4-3.3,1.8c-1.2,0.4-2.5,0.6-3.9,0.6h-7.2l-2,9.4h-5.8l5.5-26.3H87.6z
		 M86.2,149.5c1.5,0,2.6-0.4,3.5-1.1c0.8-0.8,1.3-1.9,1.3-3.5c0-0.7-0.1-1.2-0.4-1.6c-0.2-0.4-0.5-0.8-0.9-1
		c-0.4-0.2-0.8-0.4-1.3-0.5c-0.5-0.1-1-0.1-1.5-0.1h-4.9l-1.6,7.9H86.2z"/>
	<path d="M104.8,144.4l-0.8,3.4l0.1,0.1c0.6-1.3,1.5-2.3,2.7-3c1.2-0.7,2.5-1,3.9-1c0.5,0,1.1,0,1.6,0.1l-1.1,5.1
		c-0.4-0.1-0.7-0.1-1.1-0.2s-0.7-0.1-1.1-0.1c-1,0-1.9,0.2-2.6,0.5c-0.7,0.3-1.3,0.8-1.8,1.4c-0.5,0.6-0.9,1.3-1.1,2
		c-0.3,0.8-0.5,1.5-0.7,2.3l-1.8,8.5h-5.2l3.9-19.1H104.8z"/>
	<path d="M114,147.1c0.6-0.8,1.3-1.4,2.1-1.9c0.8-0.5,1.7-0.8,2.7-1.1c1-0.2,2.1-0.3,3.1-0.3c0.9,0,1.8,0.1,2.7,0.2
		c0.9,0.1,1.8,0.4,2.6,0.7c0.8,0.4,1.4,0.9,1.9,1.5c0.5,0.7,0.7,1.5,0.7,2.6c0,0.9-0.1,2-0.4,3.2l-1.7,7.7c-0.1,0.3-0.2,0.8-0.2,1.3
		c0,0.5-0.1,0.9-0.1,1.3c0,0.3,0.1,0.7,0.2,1.1h-5.2v-1.9c-0.7,0.8-1.6,1.4-2.6,1.8s-2.1,0.6-3.2,0.6c-1,0-1.9-0.1-2.7-0.4
		s-1.4-0.6-1.9-1.1c-0.5-0.5-0.9-1-1.1-1.6c-0.2-0.6-0.4-1.2-0.4-1.9c0-1.8,0.6-3.3,1.9-4.4c1.3-1.1,3.1-1.8,5.4-2.1
		c1.2-0.1,2.3-0.3,3.2-0.3s1.7-0.2,2.3-0.4c0.6-0.2,1.1-0.4,1.3-0.7c0.3-0.3,0.4-0.8,0.4-1.4c0-0.5-0.1-0.9-0.3-1.2
		c-0.2-0.3-0.5-0.5-0.8-0.7c-0.3-0.2-0.7-0.3-1.1-0.4s-0.7-0.1-1.1-0.1c-0.9,0-1.8,0.2-2.5,0.7c-0.7,0.5-1.2,1.2-1.4,2.1h-4.9
		C113,148.9,113.4,147.9,114,147.1z M121.8,155c-0.8,0.1-1.5,0.2-2.3,0.2c-0.5,0-1,0.1-1.4,0.2c-0.5,0.1-0.9,0.3-1.2,0.5
		c-0.4,0.2-0.6,0.5-0.9,0.9s-0.3,0.9-0.3,1.5c0,0.7,0.3,1.2,0.9,1.6c0.6,0.4,1.2,0.5,2,0.5c0.8,0,1.5-0.1,2-0.4c0.6-0.3,1-0.6,1.4-1
		c0.4-0.4,0.7-0.9,0.9-1.4c0.2-0.5,0.4-1,0.6-1.5l0.5-1.8C123.3,154.7,122.5,154.9,121.8,155z"/>
	<path d="M145.4,148.5c-0.6-0.5-1.5-0.7-2.6-0.7c-1,0-1.8,0.3-2.5,0.8c-0.7,0.5-1.2,1.2-1.7,2c-0.4,0.8-0.7,1.7-0.9,2.6
		c-0.2,0.9-0.3,1.8-0.3,2.6c0,0.6,0.1,1.1,0.2,1.6c0.1,0.5,0.3,0.9,0.6,1.3c0.3,0.4,0.7,0.7,1.1,0.9c0.5,0.2,1,0.3,1.7,0.3
		c0.6,0,1.1-0.1,1.6-0.3c0.5-0.2,0.9-0.5,1.2-0.8c0.4-0.3,0.7-0.7,0.9-1.1c0.2-0.4,0.4-0.9,0.6-1.3h5.2c-0.8,2.4-2,4.2-3.6,5.5
		c-1.6,1.3-3.7,1.9-6.2,1.9c-2.7,0-4.8-0.7-6.3-2c-1.5-1.3-2.2-3.4-2.2-6.2c0-1.6,0.2-3.2,0.7-4.6c0.5-1.4,1.2-2.7,2.1-3.8
		c0.9-1.1,2-2,3.4-2.6c1.3-0.6,2.9-0.9,4.6-0.9c1.2,0,2.3,0.1,3.3,0.4c1,0.3,1.9,0.7,2.7,1.3s1.4,1.3,1.8,2.2c0.5,0.9,0.7,2,0.7,3.2
		h-5.2C146.3,149.8,146,149,145.4,148.5z"/>
	<path d="M166.4,144.4l-0.8,3.5h-3.7l-2,9.5c0,0.2-0.1,0.4-0.1,0.5c0,0.2,0,0.3,0,0.4c0,0.3,0.1,0.6,0.2,0.8
		c0.1,0.2,0.3,0.3,0.4,0.4c0.2,0.1,0.4,0.2,0.6,0.2c0.2,0,0.4,0,0.6,0c0.6,0,1.3,0,1.9-0.1l-0.9,4c-0.5,0-1.1,0.1-1.6,0.1
		c-0.5,0-1.1,0.1-1.7,0.1c-0.6,0-1.2-0.1-1.8-0.2c-0.6-0.1-1.1-0.3-1.6-0.6c-0.5-0.3-0.9-0.7-1.1-1.2c-0.3-0.5-0.4-1.1-0.4-1.9
		c0-0.2,0-0.5,0.1-0.8c0-0.3,0.1-0.6,0.2-1l2.1-10.2h-3.4l0.8-3.5h3.4l1.2-5.8h5.2l-1.2,5.8H166.4z"/>
	<path d="M174.9,144.4l-4.1,19.1h-5.2l4-19.1H174.9z M170.2,141.4l1-4.3h5.3l-1,4.3H170.2z"/>
	<path d="M189.1,148.5c-0.6-0.5-1.5-0.7-2.6-0.7c-1,0-1.8,0.3-2.5,0.8c-0.7,0.5-1.2,1.2-1.7,2c-0.4,0.8-0.7,1.7-0.9,2.6
		c-0.2,0.9-0.3,1.8-0.3,2.6c0,0.6,0.1,1.1,0.2,1.6c0.1,0.5,0.3,0.9,0.6,1.3c0.3,0.4,0.7,0.7,1.1,0.9c0.5,0.2,1,0.3,1.7,0.3
		c0.6,0,1.1-0.1,1.6-0.3c0.5-0.2,0.9-0.5,1.2-0.8s0.7-0.7,0.9-1.1c0.2-0.4,0.4-0.9,0.6-1.3h5.2c-0.8,2.4-2,4.2-3.6,5.5
		c-1.6,1.3-3.7,1.9-6.2,1.9c-2.7,0-4.8-0.7-6.3-2c-1.5-1.3-2.2-3.4-2.2-6.2c0-1.6,0.2-3.2,0.7-4.6c0.5-1.4,1.2-2.7,2.1-3.8
		c0.9-1.1,2-2,3.4-2.6c1.3-0.6,2.9-0.9,4.6-0.9c1.2,0,2.3,0.1,3.3,0.4c1,0.3,1.9,0.7,2.7,1.3c0.8,0.6,1.4,1.3,1.8,2.2
		c0.5,0.9,0.7,2,0.7,3.2H190C190,149.8,189.7,149,189.1,148.5z"/>
	<path d="M199.4,147.1c0.6-0.8,1.3-1.4,2.1-1.9c0.8-0.5,1.7-0.8,2.7-1.1c1-0.2,2.1-0.3,3.1-0.3c0.9,0,1.8,0.1,2.7,0.2
		c0.9,0.1,1.8,0.4,2.6,0.7c0.8,0.4,1.4,0.9,1.9,1.5c0.5,0.7,0.7,1.5,0.7,2.6c0,0.9-0.1,2-0.4,3.2l-1.7,7.7c-0.1,0.3-0.2,0.8-0.2,1.3
		c0,0.5-0.1,0.9-0.1,1.3c0,0.3,0.1,0.7,0.2,1.1h-5.2v-1.9c-0.7,0.8-1.6,1.4-2.6,1.8c-1,0.4-2.1,0.6-3.2,0.6c-1,0-1.9-0.1-2.7-0.4
		c-0.8-0.3-1.4-0.6-1.9-1.1c-0.5-0.5-0.9-1-1.1-1.6c-0.2-0.6-0.4-1.2-0.4-1.9c0-1.8,0.6-3.3,1.9-4.4c1.3-1.1,3.1-1.8,5.4-2.1
		c1.2-0.1,2.3-0.3,3.2-0.3s1.7-0.2,2.3-0.4c0.6-0.2,1.1-0.4,1.3-0.7c0.3-0.3,0.4-0.8,0.4-1.4c0-0.5-0.1-0.9-0.3-1.2
		c-0.2-0.3-0.5-0.5-0.8-0.7c-0.3-0.2-0.7-0.3-1.1-0.4c-0.4-0.1-0.7-0.1-1.1-0.1c-0.9,0-1.8,0.2-2.5,0.7c-0.7,0.5-1.2,1.2-1.4,2.1
		h-4.9C198.4,148.9,198.8,147.9,199.4,147.1z M207.2,155c-0.8,0.1-1.5,0.2-2.3,0.2c-0.5,0-1,0.1-1.4,0.2c-0.5,0.1-0.9,0.3-1.2,0.5
		c-0.4,0.2-0.6,0.5-0.9,0.9c-0.2,0.4-0.3,0.9-0.3,1.5c0,0.7,0.3,1.2,0.9,1.6c0.6,0.4,1.2,0.5,2,0.5c0.8,0,1.5-0.1,2-0.4s1-0.6,1.4-1
		c0.4-0.4,0.7-0.9,0.9-1.4s0.4-1,0.6-1.5l0.5-1.8C208.7,154.7,208,154.9,207.2,155z"/>
	<path d="M227.7,137.1l-5.6,26.3h-5.2l5.6-26.3H227.7z"/>
</g>
<g>
	<path d="M65.8,187c0.6-0.8,1.3-1.4,2.1-1.9c0.8-0.5,1.7-0.8,2.7-1.1c1-0.2,2.1-0.3,3.1-0.3c0.9,0,1.8,0.1,2.7,0.2
		c0.9,0.1,1.8,0.4,2.6,0.7c0.8,0.4,1.4,0.9,1.9,1.5c0.5,0.7,0.7,1.5,0.7,2.6c0,0.9-0.1,2-0.4,3.2l-1.7,7.7c-0.1,0.3-0.2,0.8-0.2,1.3
		c0,0.5-0.1,0.9-0.1,1.3c0,0.3,0.1,0.7,0.2,1.1h-5.2v-1.9c-0.7,0.8-1.6,1.4-2.6,1.8s-2.1,0.6-3.2,0.6c-1,0-1.9-0.1-2.7-0.4
		s-1.4-0.6-1.9-1.1c-0.5-0.5-0.9-1-1.1-1.6c-0.2-0.6-0.4-1.2-0.4-1.9c0-1.8,0.6-3.3,1.9-4.4c1.3-1.1,3.1-1.8,5.4-2.1
		c1.2-0.1,2.3-0.3,3.2-0.3s1.7-0.2,2.3-0.4c0.6-0.2,1.1-0.4,1.3-0.7c0.3-0.3,0.4-0.8,0.4-1.4c0-0.5-0.1-0.9-0.3-1.2
		c-0.2-0.3-0.5-0.5-0.8-0.7c-0.3-0.2-0.7-0.3-1.1-0.4s-0.7-0.1-1.1-0.1c-0.9,0-1.8,0.2-2.5,0.7c-0.7,0.5-1.2,1.2-1.4,2.1h-4.9
		C64.8,188.8,65.2,187.8,65.8,187z M73.6,194.9c-0.8,0.1-1.5,0.2-2.3,0.2c-0.5,0-1,0.1-1.4,0.2c-0.5,0.1-0.9,0.3-1.2,0.5
		c-0.4,0.2-0.6,0.5-0.9,0.9s-0.3,0.9-0.3,1.5c0,0.7,0.3,1.2,0.9,1.6c0.6,0.4,1.2,0.5,2,0.5c0.8,0,1.5-0.1,2-0.4c0.6-0.3,1-0.6,1.4-1
		c0.4-0.4,0.7-0.9,0.9-1.4c0.2-0.5,0.4-1,0.6-1.5l0.5-1.8C75.1,194.6,74.3,194.8,73.6,194.9z"/>
	<path d="M97,200.9c-0.6,1-1.4,1.8-2.4,2.2c-1,0.5-2.1,0.7-3.3,0.7c-2.3,0-4.1-0.7-5.4-2c-1.3-1.3-1.9-3.2-1.9-5.5
		c0-1.6,0.2-3.1,0.6-4.6c0.4-1.5,1.1-2.8,1.9-4c0.9-1.2,1.9-2.1,3.2-2.9c1.3-0.7,2.8-1.1,4.6-1.1c1.1,0,2.2,0.2,3.2,0.7
		c1,0.5,1.7,1.3,2.2,2.3h0.1l2.1-9.8h5.2l-5.6,26.3h-5.1L97,200.9L97,200.9z M92.4,188.5c-0.7,0.5-1.3,1.2-1.8,2
		c-0.5,0.8-0.8,1.6-1,2.6c-0.2,0.9-0.3,1.8-0.3,2.7c0,0.6,0.1,1.1,0.2,1.6c0.2,0.5,0.4,1,0.7,1.3c0.3,0.4,0.7,0.7,1.2,0.9
		c0.5,0.2,1,0.4,1.6,0.4c1,0,1.8-0.3,2.5-0.8c0.7-0.5,1.3-1.2,1.8-2c0.5-0.8,0.8-1.7,1.1-2.6c0.2-0.9,0.4-1.8,0.4-2.6
		c0-1.3-0.3-2.3-0.9-3c-0.6-0.8-1.6-1.1-2.8-1.1C94,187.7,93.1,187.9,92.4,188.5z"/>
	<path d="M109.8,203.3l-2.5-19.1h5.4l1.2,13.6h0.1l6.8-13.6h5.5l-10.4,19.1H109.8z"/>
	<path d="M134.2,184.2l-4.1,19.1h-5.2l4-19.1H134.2z M129.5,181.3l1-4.3h5.3l-1,4.3H129.5z"/>
	<path d="M148.5,188.4c-0.6-0.5-1.5-0.7-2.6-0.7c-1,0-1.8,0.3-2.5,0.8c-0.7,0.5-1.2,1.2-1.7,2c-0.4,0.8-0.7,1.7-0.9,2.6
		c-0.2,0.9-0.3,1.8-0.3,2.6c0,0.6,0.1,1.1,0.2,1.6c0.1,0.5,0.3,0.9,0.6,1.3c0.3,0.4,0.7,0.7,1.1,0.9c0.5,0.2,1,0.3,1.7,0.3
		c0.6,0,1.1-0.1,1.6-0.3c0.5-0.2,0.9-0.5,1.2-0.8c0.4-0.3,0.7-0.7,0.9-1.1c0.2-0.4,0.4-0.9,0.6-1.3h5.2c-0.8,2.4-2,4.2-3.6,5.5
		c-1.6,1.3-3.7,1.9-6.2,1.9c-2.7,0-4.8-0.7-6.3-2c-1.5-1.3-2.2-3.4-2.2-6.2c0-1.6,0.2-3.2,0.7-4.6c0.5-1.4,1.2-2.7,2.1-3.8
		c0.9-1.1,2-2,3.4-2.6c1.3-0.6,2.9-0.9,4.6-0.9c1.2,0,2.3,0.1,3.3,0.4c1,0.3,1.9,0.7,2.7,1.3c0.8,0.6,1.4,1.3,1.8,2.2
		c0.5,0.9,0.7,2,0.7,3.2h-5.2C149.3,189.7,149.1,188.9,148.5,188.4z"/>
	<path d="M160.8,195.4c0,0.1,0,0.2,0,0.3v0.5c0,1.1,0.3,2,1,2.7c0.7,0.7,1.7,1,3.2,1c0.5,0,1-0.1,1.4-0.2c0.4-0.2,0.8-0.4,1.1-0.6
		c0.3-0.2,0.6-0.5,0.8-0.8c0.2-0.3,0.4-0.6,0.6-0.9h5.2c-0.4,1.1-0.9,2-1.5,2.8c-0.6,0.8-1.2,1.5-2,2c-0.8,0.6-1.7,1-2.8,1.2
		s-2.3,0.4-3.6,0.4c-1.3,0-2.4-0.2-3.5-0.5s-1.9-0.9-2.7-1.6c-0.7-0.7-1.3-1.6-1.7-2.6c-0.4-1-0.6-2.2-0.6-3.6c0-1.5,0.2-3,0.7-4.4
		c0.5-1.4,1.2-2.7,2.1-3.8c0.9-1.1,2-2,3.3-2.6c1.3-0.7,2.8-1,4.4-1c1.3,0,2.5,0.2,3.6,0.5c1.1,0.3,2,0.9,2.8,1.6
		c0.8,0.7,1.4,1.6,1.8,2.6c0.4,1,0.6,2.3,0.6,3.6c0,0.9-0.1,1.9-0.3,3h-14.1C160.8,195.2,160.8,195.3,160.8,195.4z M170,190.3
		c-0.1-0.5-0.3-0.9-0.5-1.3s-0.6-0.7-1.1-0.9c-0.5-0.2-1.1-0.4-1.8-0.4c-0.7,0-1.4,0.1-2,0.3c-0.6,0.2-1.1,0.5-1.5,0.9
		c-0.4,0.4-0.8,0.8-1.1,1.3c-0.3,0.5-0.5,1-0.7,1.5h8.7C170.1,191.2,170.1,190.8,170,190.3z"/>
	<path d="M187.6,187.8l0.7-3.5h3.1c0.2-1.2,0.5-2.3,0.8-3.2c0.3-0.9,0.7-1.7,1.2-2.3c0.5-0.6,1.2-1.1,2-1.4c0.8-0.3,2-0.5,3.3-0.5
		c0.6,0,1.1,0,1.7,0.1c0.6,0,1.1,0.1,1.7,0.2l-0.8,3.8c-0.3,0-0.6,0-0.8-0.1c-0.3,0-0.6,0-0.8,0c-0.7,0-1.2,0.1-1.5,0.2
		c-0.3,0.2-0.6,0.4-0.8,0.7c-0.2,0.3-0.3,0.7-0.4,1.1c-0.1,0.4-0.2,0.9-0.4,1.5h3.7l-0.7,3.5H196l-3.3,15.6h-5.2l3.3-15.6H187.6z"/>
	<path d="M201,191c0.5-1.4,1.2-2.7,2.2-3.8s2.1-1.9,3.5-2.6c1.4-0.6,2.9-0.9,4.6-0.9c1.3,0,2.5,0.2,3.6,0.5s2,0.8,2.8,1.5
		s1.4,1.5,1.8,2.5c0.4,1,0.6,2.2,0.6,3.6c0,1.7-0.3,3.2-0.8,4.7c-0.5,1.5-1.2,2.7-2.2,3.8c-1,1.1-2.1,1.9-3.5,2.5s-2.9,0.9-4.7,0.9
		c-2.7,0-4.8-0.7-6.4-2s-2.4-3.4-2.4-6.1C200.2,194,200.4,192.5,201,191z M205.7,197.2c0.2,0.5,0.4,1,0.7,1.4
		c0.3,0.4,0.7,0.7,1.2,0.9c0.5,0.2,1,0.4,1.6,0.4c1,0,1.8-0.3,2.5-0.8c0.7-0.5,1.3-1.2,1.7-2c0.5-0.8,0.8-1.7,1-2.6
		c0.2-0.9,0.3-1.8,0.3-2.6c0-1.3-0.3-2.3-0.9-3.1c-0.6-0.8-1.6-1.1-3-1.1c-1,0-1.8,0.3-2.5,0.8c-0.7,0.5-1.3,1.2-1.7,2
		c-0.4,0.8-0.8,1.6-1,2.6c-0.2,0.9-0.3,1.8-0.3,2.6C205.4,196.2,205.5,196.7,205.7,197.2z"/>
	<path d="M230.2,184.2l-0.8,3.4l0.1,0.1c0.6-1.3,1.5-2.3,2.7-3c1.2-0.7,2.5-1,3.9-1c0.5,0,1.1,0,1.6,0.1l-1.1,5.1
		c-0.4-0.1-0.7-0.1-1.1-0.2c-0.4-0.1-0.7-0.1-1.1-0.1c-1,0-1.9,0.2-2.6,0.5c-0.7,0.3-1.3,0.8-1.8,1.4s-0.9,1.3-1.1,2
		c-0.3,0.8-0.5,1.5-0.7,2.3l-1.8,8.5h-5.2l3.9-19.1H230.2z"/>
</g>
<g>
	<path d="M70,224.1l-0.6,2.7h0.1c0.8-1.1,1.7-1.9,2.9-2.4c1.1-0.5,2.4-0.8,3.8-0.8c1.2,0,2.2,0.3,3,0.8s1.4,1.4,1.6,2.5
		c0.3-0.5,0.7-0.9,1.2-1.3c0.5-0.4,1-0.8,1.6-1.1c0.6-0.3,1.2-0.5,1.8-0.7c0.6-0.2,1.2-0.2,1.9-0.2c0.7,0,1.5,0.1,2.2,0.3
		s1.3,0.5,1.9,0.9c0.5,0.4,1,0.9,1.3,1.5c0.3,0.6,0.5,1.3,0.5,2.1c0,0.6-0.1,1.2-0.2,1.8c-0.1,0.6-0.2,1.2-0.4,1.8l-2.4,11.2h-5.2
		l2.5-12.1c0.1-0.5,0.1-0.9,0.1-1.4c0-0.6-0.2-1-0.6-1.4c-0.4-0.4-1-0.6-1.6-0.6c-0.7,0-1.3,0.2-1.9,0.5c-0.6,0.3-1,0.8-1.4,1.3
		c-0.4,0.5-0.7,1.1-1,1.7c-0.3,0.6-0.5,1.2-0.6,1.8l-2.1,10.2h-5.3l2.5-12.1c0.1-0.5,0.1-0.9,0.1-1.4c0-0.6-0.2-1-0.6-1.4
		c-0.4-0.4-1-0.6-1.6-0.6c-0.7,0-1.3,0.2-1.9,0.5c-0.6,0.3-1,0.8-1.4,1.3c-0.4,0.5-0.7,1.1-1,1.7c-0.3,0.6-0.5,1.2-0.6,1.8
		l-2.1,10.2H61l3.9-19.1H70z"/>
	<path d="M98.2,226.9c0.6-0.8,1.3-1.4,2.1-1.9c0.8-0.5,1.7-0.8,2.7-1.1c1-0.2,2.1-0.3,3.1-0.3c0.9,0,1.8,0.1,2.7,0.2
		c0.9,0.1,1.8,0.4,2.6,0.7c0.8,0.4,1.4,0.9,1.9,1.5c0.5,0.7,0.7,1.5,0.7,2.6c0,0.9-0.1,2-0.4,3.2l-1.7,7.7c-0.1,0.3-0.2,0.8-0.2,1.3
		c0,0.5-0.1,0.9-0.1,1.3c0,0.3,0.1,0.7,0.2,1.1h-5.2v-1.9c-0.7,0.8-1.6,1.4-2.6,1.8s-2.1,0.6-3.2,0.6c-1,0-1.9-0.1-2.7-0.4
		s-1.4-0.6-1.9-1.1c-0.5-0.5-0.9-1-1.1-1.6c-0.2-0.6-0.4-1.2-0.4-1.9c0-1.8,0.6-3.3,1.9-4.4c1.3-1.1,3.1-1.8,5.4-2.1
		c1.2-0.1,2.3-0.3,3.2-0.3s1.7-0.2,2.3-0.4c0.6-0.2,1.1-0.4,1.3-0.7c0.3-0.3,0.4-0.8,0.4-1.4c0-0.5-0.1-0.9-0.3-1.2
		c-0.2-0.3-0.5-0.5-0.8-0.7c-0.3-0.2-0.7-0.3-1.1-0.4s-0.7-0.1-1.1-0.1c-0.9,0-1.8,0.2-2.5,0.7c-0.7,0.5-1.2,1.2-1.4,2.1h-4.9
		C97.3,228.7,97.7,227.7,98.2,226.9z M106.1,234.8c-0.8,0.1-1.5,0.2-2.3,0.2c-0.5,0-1,0.1-1.4,0.2c-0.5,0.1-0.9,0.3-1.2,0.5
		c-0.4,0.2-0.6,0.5-0.9,0.9s-0.3,0.9-0.3,1.5c0,0.7,0.3,1.2,0.9,1.6c0.6,0.4,1.2,0.5,2,0.5c0.8,0,1.5-0.1,2-0.4c0.6-0.3,1-0.6,1.4-1
		c0.4-0.4,0.7-0.9,0.9-1.4c0.2-0.5,0.4-1,0.6-1.5l0.5-1.8C107.5,234.5,106.8,234.7,106.1,234.8z"/>
	<path d="M124.7,224.1l-0.6,2.7h0.1c1.7-2.1,3.9-3.2,6.7-3.2c3.7,0,5.6,1.7,5.6,5.1c0,0.2,0,0.4-0.1,0.8c0,0.3-0.1,0.6-0.2,0.9
		c-0.1,0.3-0.1,0.6-0.2,0.9c-0.1,0.3-0.1,0.5-0.1,0.7l-2.4,11.2h-5.2l2.3-11.2c0-0.3,0.1-0.7,0.2-1.2c0.1-0.5,0.1-0.9,0.1-1.1
		c0-0.6-0.3-1-0.8-1.4c-0.5-0.4-1.1-0.6-1.7-0.6c-0.8,0-1.5,0.2-2.1,0.5c-0.6,0.3-1.1,0.7-1.5,1.2c-0.4,0.5-0.8,1.1-1.1,1.7
		c-0.3,0.6-0.5,1.3-0.6,2l-2.1,10.1h-5.2l3.9-19.1H124.7z"/>
	<path d="M142,226.9c0.6-0.8,1.3-1.4,2.1-1.9c0.8-0.5,1.7-0.8,2.7-1.1c1-0.2,2.1-0.3,3.1-0.3c0.9,0,1.8,0.1,2.7,0.2
		c0.9,0.1,1.8,0.4,2.6,0.7c0.8,0.4,1.4,0.9,1.9,1.5c0.5,0.7,0.7,1.5,0.7,2.6c0,0.9-0.1,2-0.4,3.2l-1.7,7.7c-0.1,0.3-0.2,0.8-0.2,1.3
		c0,0.5-0.1,0.9-0.1,1.3c0,0.3,0.1,0.7,0.2,1.1h-5.2v-1.9c-0.7,0.8-1.6,1.4-2.6,1.8s-2.1,0.6-3.2,0.6c-1,0-1.9-0.1-2.7-0.4
		s-1.4-0.6-1.9-1.1c-0.5-0.5-0.9-1-1.1-1.6c-0.2-0.6-0.4-1.2-0.4-1.9c0-1.8,0.6-3.3,1.9-4.4c1.3-1.1,3.1-1.8,5.4-2.1
		c1.2-0.1,2.3-0.3,3.2-0.3s1.7-0.2,2.3-0.4c0.6-0.2,1.1-0.4,1.3-0.7c0.3-0.3,0.4-0.8,0.4-1.4c0-0.5-0.1-0.9-0.3-1.2
		c-0.2-0.3-0.5-0.5-0.8-0.7c-0.3-0.2-0.7-0.3-1.1-0.4c-0.4-0.1-0.7-0.1-1.1-0.1c-0.9,0-1.8,0.2-2.5,0.7c-0.7,0.5-1.2,1.2-1.4,2.1
		h-4.9C141,228.7,141.4,227.7,142,226.9z M149.8,234.8c-0.8,0.1-1.5,0.2-2.3,0.2c-0.5,0-1,0.1-1.4,0.2c-0.5,0.1-0.9,0.3-1.2,0.5
		c-0.4,0.2-0.6,0.5-0.9,0.9s-0.3,0.9-0.3,1.5c0,0.7,0.3,1.2,0.9,1.6c0.6,0.4,1.2,0.5,2,0.5c0.8,0,1.5-0.1,2-0.4c0.6-0.3,1-0.6,1.4-1
		c0.4-0.4,0.7-0.9,0.9-1.4c0.2-0.5,0.4-1,0.6-1.5l0.5-1.8C151.3,234.5,150.6,234.7,149.8,234.8z"/>
	<path d="M176.5,245.9c-0.5,1-1.2,1.9-2.1,2.5c-0.8,0.7-1.9,1.2-3,1.5c-1.2,0.3-2.5,0.5-4.1,0.5c-1,0-1.9-0.1-2.9-0.3
		c-1-0.2-1.8-0.6-2.6-1.1c-0.8-0.5-1.4-1.1-1.9-1.9c-0.5-0.8-0.7-1.8-0.7-2.9h5.2c0,0.5,0.1,0.9,0.3,1.3c0.2,0.3,0.5,0.6,0.8,0.8
		c0.3,0.2,0.7,0.4,1.1,0.5c0.4,0.1,0.8,0.1,1.3,0.1c0.8,0,1.5-0.2,2.1-0.5c0.6-0.3,1-0.8,1.4-1.4c0.4-0.6,0.7-1.3,1-2.1
		c0.3-0.8,0.5-1.7,0.8-2.6l-0.1-0.1c-1.4,1.8-3.1,2.7-5.2,2.7c-1.1,0-2.2-0.2-3.1-0.6s-1.7-0.9-2.3-1.6c-0.6-0.7-1.1-1.5-1.5-2.5
		c-0.3-0.9-0.5-2-0.5-3.2c0-1.4,0.2-2.8,0.6-4.2c0.4-1.4,1.1-2.6,1.9-3.7s1.8-2,3-2.7c1.2-0.7,2.6-1,4.1-1c1.3,0,2.5,0.3,3.5,0.8
		s1.8,1.4,2.3,2.7h0.1l0.6-2.9h5l-3.8,18.1C177.5,243.6,177,244.9,176.5,245.9z M168.7,228.3c-0.7,0.5-1.2,1.1-1.7,1.8
		c-0.4,0.7-0.8,1.5-1,2.3c-0.2,0.8-0.4,1.7-0.4,2.4c0,0.6,0.1,1.1,0.2,1.6c0.1,0.5,0.4,1,0.6,1.3c0.3,0.4,0.7,0.7,1.1,0.9
		c0.4,0.2,1,0.3,1.6,0.3c0.9,0,1.8-0.2,2.5-0.7s1.3-1,1.7-1.7s0.8-1.5,1-2.3c0.2-0.9,0.4-1.7,0.4-2.5c0-1.2-0.3-2.2-0.9-3
		s-1.6-1.2-2.8-1.2C170.2,227.6,169.4,227.8,168.7,228.3z"/>
	<path d="M191.3,224.1l-4.1,19.1H182l4-19.1H191.3z M186.6,221.2l1-4.3h5.3l-1,4.3H186.6z"/>
	<path d="M200.5,224.1l-0.6,2.7h0.1c1.7-2.1,3.9-3.2,6.7-3.2c3.7,0,5.6,1.7,5.6,5.1c0,0.2,0,0.4-0.1,0.8c0,0.3-0.1,0.6-0.2,0.9
		c-0.1,0.3-0.1,0.6-0.2,0.9c-0.1,0.3-0.1,0.5-0.1,0.7l-2.4,11.2h-5.2l2.3-11.2c0-0.3,0.1-0.7,0.2-1.2c0.1-0.5,0.1-0.9,0.1-1.1
		c0-0.6-0.3-1-0.8-1.4c-0.5-0.4-1.1-0.6-1.7-0.6c-0.8,0-1.5,0.2-2.1,0.5c-0.6,0.3-1.1,0.7-1.5,1.2c-0.4,0.5-0.8,1.1-1.1,1.7
		c-0.3,0.6-0.5,1.3-0.6,2l-2.1,10.1h-5.2l3.9-19.1H200.5z"/>
	<path d="M231.2,245.9c-0.5,1-1.2,1.9-2.1,2.5c-0.8,0.7-1.9,1.2-3,1.5c-1.2,0.3-2.5,0.5-4.1,0.5c-1,0-1.9-0.1-2.9-0.3
		c-1-0.2-1.8-0.6-2.6-1.1c-0.8-0.5-1.4-1.1-1.9-1.9c-0.5-0.8-0.7-1.8-0.7-2.9h5.2c0,0.5,0.1,0.9,0.3,1.3c0.2,0.3,0.5,0.6,0.8,0.8
		c0.3,0.2,0.7,0.4,1.1,0.5c0.4,0.1,0.8,0.1,1.3,0.1c0.8,0,1.5-0.2,2.1-0.5c0.6-0.3,1-0.8,1.4-1.4c0.4-0.6,0.7-1.3,1-2.1
		c0.3-0.8,0.5-1.7,0.8-2.6l-0.1-0.1c-1.4,1.8-3.1,2.7-5.2,2.7c-1.1,0-2.2-0.2-3.1-0.6s-1.7-0.9-2.3-1.6c-0.6-0.7-1.1-1.5-1.5-2.5
		c-0.3-0.9-0.5-2-0.5-3.2c0-1.4,0.2-2.8,0.6-4.2c0.4-1.4,1.1-2.6,1.9-3.7s1.8-2,3-2.7c1.2-0.7,2.6-1,4.1-1c1.3,0,2.5,0.3,3.5,0.8
		s1.8,1.4,2.3,2.7h0.1l0.6-2.9h5l-3.8,18.1C232.1,243.6,231.7,244.9,231.2,245.9z M223.4,228.3c-0.7,0.5-1.2,1.1-1.7,1.8
		c-0.4,0.7-0.8,1.5-1,2.3c-0.2,0.8-0.4,1.7-0.4,2.4c0,0.6,0.1,1.1,0.2,1.6c0.1,0.5,0.4,1,0.6,1.3c0.3,0.4,0.7,0.7,1.1,0.9
		c0.4,0.2,1,0.3,1.6,0.3c0.9,0,1.8-0.2,2.5-0.7s1.3-1,1.7-1.7s0.8-1.5,1-2.3c0.2-0.9,0.4-1.7,0.4-2.5c0-1.2-0.3-2.2-0.9-3
		s-1.6-1.2-2.8-1.2C224.8,227.6,224,227.8,223.4,228.3z"/>
</g>
<g>
	<path d="M41.1,256.8l-5.6,26.3h-5.2l5.6-26.3H41.1z"/>
	<path d="M49.1,264l-4.1,19.1h-5.2l4-19.1H49.1z M44.4,261.1l1-4.3h5.3l-1,4.3H44.4z"/>
	<path d="M50.6,267.5l0.7-3.5h3.1c0.2-1.2,0.5-2.3,0.8-3.2s0.7-1.7,1.2-2.3c0.5-0.6,1.2-1.1,2-1.4c0.8-0.3,2-0.5,3.3-0.5
		c0.6,0,1.1,0,1.7,0.1c0.6,0,1.1,0.1,1.7,0.2l-0.8,3.8c-0.3,0-0.6,0-0.8-0.1c-0.3,0-0.6,0-0.8,0c-0.7,0-1.2,0.1-1.5,0.2
		c-0.3,0.2-0.6,0.4-0.8,0.7s-0.3,0.7-0.4,1.1c-0.1,0.4-0.2,0.9-0.4,1.5h3.7l-0.7,3.5h-3.8l-3.3,15.6h-5.2l3.3-15.6H50.6z"/>
	<path d="M68.2,275.2c0,0.1,0,0.2,0,0.3v0.5c0,1.1,0.3,2,1,2.7c0.7,0.7,1.7,1,3.2,1c0.5,0,1-0.1,1.4-0.2c0.4-0.2,0.8-0.4,1.1-0.6
		c0.3-0.2,0.6-0.5,0.8-0.8c0.2-0.3,0.4-0.6,0.6-0.9h5.2c-0.4,1.1-0.9,2-1.5,2.8c-0.6,0.8-1.2,1.5-2,2c-0.8,0.6-1.7,1-2.7,1.2
		c-1,0.3-2.3,0.4-3.6,0.4c-1.3,0-2.4-0.2-3.5-0.5c-1-0.3-1.9-0.9-2.7-1.6c-0.7-0.7-1.3-1.6-1.7-2.6c-0.4-1-0.6-2.2-0.6-3.6
		c0-1.5,0.2-3,0.7-4.4c0.5-1.4,1.2-2.7,2.1-3.8s2-2,3.3-2.6c1.3-0.7,2.8-1,4.4-1c1.3,0,2.5,0.2,3.6,0.5c1.1,0.3,2,0.9,2.8,1.6
		s1.4,1.6,1.8,2.6c0.4,1,0.6,2.3,0.6,3.6c0,0.9-0.1,1.9-0.3,3H68.2C68.2,275,68.2,275.1,68.2,275.2z M77.4,270.1
		c-0.1-0.5-0.3-0.9-0.5-1.3c-0.2-0.4-0.6-0.7-1.1-0.9s-1.1-0.4-1.8-0.4c-0.7,0-1.4,0.1-2,0.3c-0.6,0.2-1.1,0.5-1.5,0.9
		c-0.4,0.4-0.8,0.8-1.1,1.3c-0.3,0.5-0.5,1-0.7,1.5h8.7C77.5,271,77.5,270.5,77.4,270.1z"/>
	<path d="M103.1,264L99,283.1h-5.2l4-19.1H103.1z M98.4,261.1l1-4.3h5.3l-1,4.3H98.4z"/>
	<path d="M112.3,264l-0.6,2.7h0.1c1.7-2.1,3.9-3.2,6.7-3.2c3.7,0,5.6,1.7,5.6,5.1c0,0.2,0,0.4-0.1,0.8c0,0.3-0.1,0.6-0.2,0.9
		c-0.1,0.3-0.1,0.6-0.2,0.9c-0.1,0.3-0.1,0.5-0.1,0.7l-2.4,11.2h-5.2l2.3-11.2c0-0.3,0.1-0.7,0.2-1.2c0.1-0.5,0.1-0.9,0.1-1.1
		c0-0.6-0.3-1-0.8-1.4c-0.5-0.4-1.1-0.6-1.7-0.6c-0.8,0-1.5,0.2-2.1,0.5c-0.6,0.3-1.1,0.7-1.5,1.2c-0.4,0.5-0.8,1.1-1.1,1.7
		c-0.3,0.6-0.5,1.3-0.6,2l-2.1,10.1h-5.2l3.9-19.1H112.3z"/>
	<path d="M138.6,267.7c-0.5-0.5-1.2-0.7-2.2-0.7c-0.9,0-1.7,0.1-2.3,0.4c-0.6,0.3-0.9,0.8-0.9,1.5c0,0.4,0.2,0.8,0.5,1.1
		c0.4,0.3,1,0.6,1.9,0.8l2.6,0.8c0.7,0.2,1.4,0.5,2,0.8c0.6,0.3,1.1,0.7,1.6,1.1c0.5,0.4,0.8,0.9,1.1,1.5c0.3,0.6,0.4,1.3,0.4,2.1
		c0,1.2-0.3,2.2-0.8,3c-0.5,0.8-1.2,1.5-2.1,2s-1.8,0.9-2.9,1.1c-1.1,0.2-2.2,0.3-3.3,0.3c-0.9,0-1.9-0.1-2.8-0.3s-1.8-0.5-2.6-1
		c-0.8-0.5-1.4-1.1-1.9-1.8c-0.5-0.8-0.7-1.7-0.7-2.8v-0.8h4.8v0.6c0,0.4,0.1,0.8,0.3,1.1c0.2,0.3,0.5,0.6,0.9,0.8
		c0.4,0.2,0.8,0.4,1.2,0.5c0.5,0.1,0.9,0.2,1.3,0.2c0.4,0,0.8,0,1.2-0.1c0.4-0.1,0.8-0.2,1.1-0.4c0.3-0.2,0.6-0.4,0.8-0.7
		c0.2-0.3,0.3-0.6,0.3-1.1c0-0.7-0.2-1.1-0.5-1.4c-0.3-0.3-0.8-0.5-1.4-0.7l-4-1.3c-0.7-0.2-1.2-0.5-1.8-0.7
		c-0.5-0.2-0.9-0.6-1.3-0.9c-0.4-0.4-0.6-0.8-0.8-1.3c-0.2-0.5-0.3-1.2-0.3-1.9c0-1.1,0.3-2.1,0.8-2.8c0.5-0.8,1.2-1.4,2-1.9
		c0.8-0.5,1.8-0.8,2.7-1c1-0.2,1.9-0.3,2.9-0.3c1,0,2,0.1,3,0.3c1,0.2,1.8,0.5,2.5,0.9c0.7,0.5,1.3,1.1,1.7,1.9
		c0.4,0.8,0.6,1.8,0.6,3h-4.9C139.3,268.8,139,268.2,138.6,267.7z"/>
	<path d="M158.1,283.1l0.6-2.7h-0.1c-1.7,2.1-3.9,3.1-6.7,3.1c-3.7,0-5.6-1.7-5.6-5.1c0-0.2,0-0.4,0.1-0.8c0-0.3,0.1-0.6,0.1-0.9
		c0.1-0.3,0.1-0.6,0.2-0.9c0.1-0.3,0.1-0.5,0.2-0.7l2.4-11.2h5.2l-2.3,11.2c0,0.1-0.1,0.3-0.1,0.5c0,0.2-0.1,0.4-0.1,0.6
		c0,0.2-0.1,0.4-0.1,0.6s0,0.4,0,0.5c0,0.6,0.3,1,0.8,1.4c0.5,0.4,1.1,0.6,1.7,0.6c0.8,0,1.5-0.2,2.1-0.5c0.6-0.3,1.1-0.7,1.5-1.2
		s0.8-1.1,1.1-1.7c0.3-0.6,0.5-1.3,0.6-2l2.1-10.1h5.2l-4,19.1H158.1z"/>
	<path d="M176.5,264l-0.8,3.4l0.1,0.1c0.6-1.3,1.5-2.3,2.7-3c1.2-0.7,2.5-1,3.9-1c0.5,0,1.1,0,1.6,0.1l-1.1,5.1
		c-0.4-0.1-0.7-0.1-1.1-0.2c-0.4-0.1-0.7-0.1-1.1-0.1c-1,0-1.9,0.2-2.6,0.5c-0.7,0.3-1.3,0.8-1.8,1.4s-0.9,1.3-1.1,2
		c-0.3,0.8-0.5,1.5-0.7,2.3l-1.8,8.5h-5.2l3.9-19.1H176.5z"/>
	<path d="M185.7,266.8c0.6-0.8,1.3-1.4,2.1-1.9c0.8-0.5,1.7-0.8,2.7-1.1c1-0.2,2.1-0.3,3.1-0.3c0.9,0,1.8,0.1,2.7,0.2
		c0.9,0.1,1.8,0.4,2.6,0.7c0.8,0.4,1.4,0.9,1.9,1.5c0.5,0.7,0.7,1.5,0.7,2.6c0,0.9-0.1,2-0.4,3.2l-1.7,7.7c-0.1,0.3-0.2,0.8-0.2,1.3
		c0,0.5-0.1,0.9-0.1,1.3c0,0.3,0.1,0.7,0.2,1.1h-5.2v-1.9c-0.7,0.8-1.6,1.4-2.6,1.8c-1,0.4-2.1,0.6-3.2,0.6c-1,0-1.9-0.1-2.7-0.4
		c-0.8-0.3-1.4-0.6-1.9-1.1c-0.5-0.5-0.9-1-1.1-1.6c-0.2-0.6-0.4-1.2-0.4-1.9c0-1.8,0.6-3.3,1.9-4.4c1.3-1.1,3.1-1.8,5.4-2.1
		c1.2-0.1,2.3-0.3,3.2-0.3s1.7-0.2,2.3-0.4c0.6-0.2,1.1-0.4,1.3-0.7c0.3-0.3,0.4-0.8,0.4-1.4c0-0.5-0.1-0.9-0.3-1.2
		c-0.2-0.3-0.5-0.5-0.8-0.7c-0.3-0.2-0.7-0.3-1.1-0.4c-0.4-0.1-0.7-0.1-1.1-0.1c-0.9,0-1.8,0.2-2.5,0.7c-0.7,0.5-1.2,1.2-1.4,2.1
		h-4.9C184.8,268.6,185.1,267.6,185.7,266.8z M193.5,274.7c-0.8,0.1-1.5,0.2-2.3,0.2c-0.5,0-1,0.1-1.4,0.2c-0.5,0.1-0.9,0.3-1.2,0.5
		c-0.4,0.2-0.6,0.5-0.9,0.9c-0.2,0.4-0.3,0.9-0.3,1.5c0,0.7,0.3,1.2,0.9,1.6c0.6,0.4,1.2,0.5,2,0.5c0.8,0,1.5-0.1,2-0.4s1-0.6,1.4-1
		c0.4-0.4,0.7-0.9,0.9-1.4s0.4-1,0.6-1.5l0.5-1.8C195,274.3,194.3,274.6,193.5,274.7z"/>
	<path d="M212.1,264l-0.6,2.7h0.1c1.7-2.1,3.9-3.2,6.7-3.2c3.7,0,5.6,1.7,5.6,5.1c0,0.2,0,0.4-0.1,0.8c0,0.3-0.1,0.6-0.2,0.9
		c-0.1,0.3-0.1,0.6-0.2,0.9c-0.1,0.3-0.1,0.5-0.1,0.7l-2.4,11.2h-5.2l2.3-11.2c0-0.3,0.1-0.7,0.2-1.2c0.1-0.5,0.1-0.9,0.1-1.1
		c0-0.6-0.3-1-0.8-1.4c-0.5-0.4-1.1-0.6-1.7-0.6c-0.8,0-1.5,0.2-2.1,0.5c-0.6,0.3-1.1,0.7-1.5,1.2c-0.4,0.5-0.8,1.1-1.1,1.7
		c-0.3,0.6-0.5,1.3-0.6,2l-2.1,10.1h-5.2l3.9-19.1H212.1z"/>
	<path d="M239.7,268.2c-0.6-0.5-1.5-0.7-2.6-0.7c-1,0-1.8,0.3-2.5,0.8c-0.7,0.5-1.2,1.2-1.7,2c-0.4,0.8-0.7,1.7-0.9,2.6
		c-0.2,0.9-0.3,1.8-0.3,2.6c0,0.6,0.1,1.1,0.2,1.6c0.1,0.5,0.3,0.9,0.6,1.3c0.3,0.4,0.7,0.7,1.1,0.9c0.5,0.2,1,0.3,1.7,0.3
		c0.6,0,1.1-0.1,1.6-0.3c0.5-0.2,0.9-0.5,1.2-0.8s0.7-0.7,0.9-1.1c0.2-0.4,0.4-0.9,0.6-1.3h5.2c-0.8,2.4-2,4.2-3.6,5.5
		c-1.6,1.3-3.7,1.9-6.2,1.9c-2.7,0-4.8-0.7-6.3-2c-1.5-1.3-2.2-3.4-2.2-6.2c0-1.6,0.2-3.2,0.7-4.6c0.5-1.4,1.2-2.7,2.1-3.8
		c0.9-1.1,2-2,3.4-2.6c1.3-0.6,2.9-0.9,4.6-0.9c1.2,0,2.3,0.1,3.3,0.4c1,0.3,1.9,0.7,2.7,1.3c0.8,0.6,1.4,1.3,1.8,2.2
		c0.5,0.9,0.7,2,0.7,3.2h-5.2C240.6,269.5,240.3,268.7,239.7,268.2z"/>
	<path d="M252,275.2c0,0.1,0,0.2,0,0.3v0.5c0,1.1,0.3,2,1,2.7c0.7,0.7,1.7,1,3.2,1c0.5,0,1-0.1,1.4-0.2c0.4-0.2,0.8-0.4,1.1-0.6
		c0.3-0.2,0.6-0.5,0.8-0.8c0.2-0.3,0.4-0.6,0.6-0.9h5.2c-0.4,1.1-0.9,2-1.5,2.8c-0.6,0.8-1.2,1.5-2,2c-0.8,0.6-1.7,1-2.8,1.2
		s-2.3,0.4-3.6,0.4c-1.3,0-2.4-0.2-3.5-0.5s-1.9-0.9-2.7-1.6c-0.7-0.7-1.3-1.6-1.7-2.6c-0.4-1-0.6-2.2-0.6-3.6c0-1.5,0.2-3,0.7-4.4
		c0.5-1.4,1.2-2.7,2.1-3.8c0.9-1.1,2-2,3.3-2.6c1.3-0.7,2.8-1,4.4-1c1.3,0,2.5,0.2,3.6,0.5c1.1,0.3,2,0.9,2.8,1.6
		c0.8,0.7,1.4,1.6,1.8,2.6c0.4,1,0.6,2.3,0.6,3.6c0,0.9-0.1,1.9-0.3,3H252C252,275,252,275.1,252,275.2z M261.2,270.1
		c-0.1-0.5-0.3-0.9-0.5-1.3s-0.6-0.7-1.1-0.9c-0.5-0.2-1.1-0.4-1.8-0.4c-0.7,0-1.4,0.1-2,0.3c-0.6,0.2-1.1,0.5-1.5,0.9
		c-0.4,0.4-0.8,0.8-1.1,1.3c-0.3,0.5-0.5,1-0.7,1.5h8.7C261.3,271,261.3,270.5,261.2,270.1z"/>
</g>
<g>
	<path d="M49.6,307.4l0.7-3.5h3.1c0.2-1.2,0.5-2.3,0.8-3.2c0.3-0.9,0.7-1.7,1.2-2.3c0.5-0.6,1.2-1.1,2-1.4c0.8-0.3,2-0.5,3.3-0.5
		c0.6,0,1.1,0,1.7,0.1c0.6,0,1.1,0.1,1.7,0.2l-0.8,3.8c-0.3,0-0.6,0-0.8-0.1c-0.3,0-0.6,0-0.8,0c-0.7,0-1.2,0.1-1.5,0.2
		c-0.3,0.2-0.6,0.4-0.8,0.7c-0.2,0.3-0.3,0.7-0.4,1.1c-0.1,0.4-0.2,0.9-0.4,1.5h3.7l-0.7,3.5h-3.8L54.6,323h-5.2l3.3-15.6H49.6z"/>
	<path d="M62.9,310.7c0.5-1.4,1.2-2.7,2.2-3.8c0.9-1.1,2.1-1.9,3.5-2.6s2.9-0.9,4.6-0.9c1.3,0,2.5,0.2,3.6,0.5
		c1.1,0.3,2,0.8,2.8,1.5c0.8,0.7,1.4,1.5,1.8,2.5c0.4,1,0.6,2.2,0.6,3.6c0,1.7-0.3,3.2-0.8,4.7c-0.5,1.5-1.2,2.7-2.2,3.8
		c-1,1.1-2.1,1.9-3.5,2.5c-1.4,0.6-2.9,0.9-4.7,0.9c-2.7,0-4.8-0.7-6.4-2c-1.6-1.4-2.4-3.4-2.4-6.1
		C62.1,313.7,62.4,312.1,62.9,310.7z M67.6,316.9c0.2,0.5,0.4,1,0.7,1.4c0.3,0.4,0.7,0.7,1.2,0.9c0.5,0.2,1,0.4,1.6,0.4
		c1,0,1.8-0.3,2.5-0.8c0.7-0.5,1.3-1.2,1.7-2s0.8-1.7,1-2.6c0.2-0.9,0.3-1.8,0.3-2.6c0-1.3-0.3-2.3-0.9-3.1c-0.6-0.8-1.6-1.1-3-1.1
		c-1,0-1.8,0.3-2.5,0.8c-0.7,0.5-1.3,1.2-1.7,2s-0.8,1.6-1,2.6c-0.2,0.9-0.3,1.8-0.3,2.6C67.3,315.9,67.4,316.4,67.6,316.9z"/>
	<path d="M92.1,303.9l-0.8,3.4l0.1,0.1c0.6-1.3,1.5-2.3,2.7-3s2.5-1,3.9-1c0.5,0,1.1,0,1.6,0.1l-1.1,5.1c-0.4-0.1-0.7-0.1-1.1-0.2
		c-0.4-0.1-0.7-0.1-1.1-0.1c-1,0-1.9,0.2-2.6,0.5s-1.3,0.8-1.8,1.4c-0.5,0.6-0.9,1.3-1.1,2c-0.3,0.8-0.5,1.5-0.7,2.3l-1.8,8.5h-5.2
		l3.9-19.1H92.1z"/>
	<path d="M121.6,320.6c-0.6,1-1.4,1.8-2.4,2.2s-2.1,0.7-3.3,0.7c-2.3,0-4.1-0.7-5.4-2c-1.3-1.3-1.9-3.2-1.9-5.5
		c0-1.6,0.2-3.1,0.6-4.6c0.4-1.5,1.1-2.8,1.9-4c0.9-1.2,1.9-2.1,3.2-2.9c1.3-0.7,2.8-1.1,4.6-1.1c1.1,0,2.2,0.2,3.2,0.7
		c1,0.5,1.7,1.3,2.2,2.3h0.1l2.1-9.8h5.2l-5.6,26.3h-5.1L121.6,320.6L121.6,320.6z M117,308.1c-0.7,0.5-1.3,1.2-1.8,2
		c-0.5,0.8-0.8,1.6-1,2.6c-0.2,0.9-0.3,1.8-0.3,2.7c0,0.6,0.1,1.1,0.2,1.6c0.2,0.5,0.4,1,0.7,1.3c0.3,0.4,0.7,0.7,1.2,0.9
		s1,0.4,1.6,0.4c1,0,1.8-0.3,2.5-0.8c0.7-0.5,1.3-1.2,1.8-2c0.5-0.8,0.8-1.7,1.1-2.6c0.2-0.9,0.4-1.8,0.4-2.6c0-1.3-0.3-2.3-0.9-3
		c-0.6-0.8-1.6-1.1-2.8-1.1C118.6,307.4,117.7,307.6,117,308.1z"/>
	<path d="M136.2,315.1c0,0.1,0,0.2,0,0.3v0.5c0,1.1,0.3,2,1,2.7c0.7,0.7,1.7,1,3.2,1c0.5,0,1-0.1,1.4-0.2c0.4-0.2,0.8-0.4,1.1-0.6
		c0.3-0.2,0.6-0.5,0.8-0.8c0.2-0.3,0.4-0.6,0.6-0.9h5.2c-0.4,1.1-0.9,2-1.5,2.8c-0.6,0.8-1.2,1.5-2,2c-0.8,0.6-1.7,1-2.7,1.2
		c-1,0.3-2.3,0.4-3.6,0.4c-1.3,0-2.4-0.2-3.5-0.5c-1-0.3-1.9-0.9-2.7-1.6c-0.7-0.7-1.3-1.6-1.7-2.6c-0.4-1-0.6-2.2-0.6-3.6
		c0-1.5,0.2-3,0.7-4.4c0.5-1.4,1.2-2.7,2.1-3.8s2-2,3.3-2.6c1.3-0.7,2.8-1,4.4-1c1.3,0,2.5,0.2,3.6,0.5c1.1,0.3,2,0.9,2.8,1.6
		c0.8,0.7,1.4,1.6,1.8,2.6c0.4,1,0.6,2.3,0.6,3.6c0,0.9-0.1,1.9-0.3,3h-14.1C136.2,314.9,136.2,315,136.2,315.1z M145.4,310
		c-0.1-0.5-0.3-0.9-0.5-1.3c-0.2-0.4-0.6-0.7-1.1-0.9c-0.5-0.2-1.1-0.4-1.8-0.4c-0.7,0-1.4,0.1-2,0.3c-0.6,0.2-1.1,0.5-1.5,0.9
		c-0.4,0.4-0.8,0.8-1.1,1.3c-0.3,0.5-0.5,1-0.7,1.5h8.7C145.5,310.9,145.5,310.4,145.4,310z"/>
	<path d="M160.5,303.9l-0.6,2.7h0.1c1.7-2.1,3.9-3.2,6.7-3.2c3.7,0,5.6,1.7,5.6,5.1c0,0.2,0,0.4-0.1,0.8c0,0.3-0.1,0.6-0.2,0.9
		c-0.1,0.3-0.1,0.6-0.2,0.9c-0.1,0.3-0.1,0.5-0.1,0.7l-2.4,11.2h-5.2l2.3-11.2c0-0.3,0.1-0.7,0.2-1.2c0.1-0.5,0.1-0.9,0.1-1.1
		c0-0.6-0.3-1-0.8-1.4c-0.5-0.4-1.1-0.6-1.7-0.6c-0.8,0-1.5,0.2-2.1,0.5s-1.1,0.7-1.5,1.2c-0.4,0.5-0.8,1.1-1.1,1.7
		c-0.3,0.6-0.5,1.3-0.6,2l-2.1,10.1h-5.2l3.9-19.1H160.5z"/>
	<path d="M188.5,303.9l-0.8,3.5H184l-2,9.5c0,0.2-0.1,0.4-0.1,0.5s0,0.3,0,0.4c0,0.3,0.1,0.6,0.2,0.8c0.1,0.2,0.3,0.3,0.4,0.4
		s0.4,0.2,0.6,0.2c0.2,0,0.4,0,0.6,0c0.6,0,1.3,0,1.9-0.1l-0.9,4c-0.5,0-1.1,0.1-1.6,0.1c-0.5,0-1.1,0.1-1.7,0.1
		c-0.6,0-1.2-0.1-1.8-0.2c-0.6-0.1-1.1-0.3-1.6-0.6c-0.5-0.3-0.9-0.7-1.1-1.2c-0.3-0.5-0.4-1.1-0.4-1.9c0-0.2,0-0.5,0.1-0.8
		c0-0.3,0.1-0.6,0.2-1l2.1-10.2h-3.4l0.8-3.5h3.4l1.2-5.8h5.2l-1.2,5.8H188.5z"/>
	<path d="M197.1,303.9L193,323h-5.2l4-19.1H197.1z M192.4,301l1-4.3h5.3l-1,4.3H192.4z"/>
	<path d="M210,307.6c-0.5-0.5-1.2-0.7-2.2-0.7c-0.9,0-1.7,0.1-2.3,0.4c-0.6,0.3-0.9,0.8-0.9,1.5c0,0.4,0.2,0.8,0.5,1.1
		c0.4,0.3,1,0.6,1.9,0.8l2.6,0.8c0.7,0.2,1.4,0.5,2,0.8c0.6,0.3,1.1,0.7,1.6,1.1c0.5,0.4,0.8,0.9,1.1,1.5c0.3,0.6,0.4,1.3,0.4,2.1
		c0,1.2-0.3,2.2-0.8,3c-0.5,0.8-1.2,1.5-2.1,2c-0.9,0.5-1.8,0.9-2.9,1.1c-1.1,0.2-2.2,0.3-3.3,0.3c-0.9,0-1.9-0.1-2.8-0.3
		c-1-0.2-1.8-0.5-2.6-1c-0.8-0.5-1.4-1.1-1.9-1.8c-0.5-0.8-0.7-1.7-0.7-2.8v-0.8h4.8v0.6c0,0.4,0.1,0.8,0.3,1.1
		c0.2,0.3,0.5,0.6,0.9,0.8s0.8,0.4,1.2,0.5s0.9,0.2,1.3,0.2c0.4,0,0.8,0,1.2-0.1c0.4-0.1,0.8-0.2,1.1-0.4c0.3-0.2,0.6-0.4,0.8-0.7
		c0.2-0.3,0.3-0.6,0.3-1.1c0-0.7-0.2-1.1-0.5-1.4c-0.3-0.3-0.8-0.5-1.4-0.7l-4-1.3c-0.7-0.2-1.2-0.5-1.8-0.7s-0.9-0.6-1.3-0.9
		c-0.4-0.4-0.6-0.8-0.8-1.3s-0.3-1.2-0.3-1.9c0-1.1,0.3-2.1,0.8-2.8s1.2-1.4,2-1.9c0.8-0.5,1.8-0.8,2.7-1s1.9-0.3,2.9-0.3
		c1,0,2,0.1,3,0.3c1,0.2,1.8,0.5,2.5,0.9c0.7,0.5,1.3,1.1,1.7,1.9c0.4,0.8,0.6,1.8,0.6,3h-4.9C210.7,308.7,210.4,308,210,307.6z"/>
	<path d="M230.9,303.9l-0.8,3.5h-3.7l-2,9.5c0,0.2-0.1,0.4-0.1,0.5s0,0.3,0,0.4c0,0.3,0.1,0.6,0.2,0.8c0.1,0.2,0.3,0.3,0.4,0.4
		s0.4,0.2,0.6,0.2c0.2,0,0.4,0,0.6,0c0.6,0,1.3,0,1.9-0.1l-0.9,4c-0.5,0-1.1,0.1-1.6,0.1c-0.5,0-1.1,0.1-1.7,0.1
		c-0.6,0-1.2-0.1-1.8-0.2c-0.6-0.1-1.1-0.3-1.6-0.6c-0.5-0.3-0.9-0.7-1.1-1.2c-0.3-0.5-0.4-1.1-0.4-1.9c0-0.2,0-0.5,0.1-0.8
		c0-0.3,0.1-0.6,0.2-1l2.1-10.2h-3.4l0.8-3.5h3.4l1.2-5.8h5.2l-1.2,5.8H230.9z"/>
	<path d="M242.8,307.6c-0.5-0.5-1.2-0.7-2.2-0.7c-0.9,0-1.7,0.1-2.3,0.4c-0.6,0.3-0.9,0.8-0.9,1.5c0,0.4,0.2,0.8,0.5,1.1
		c0.4,0.3,1,0.6,1.9,0.8l2.6,0.8c0.7,0.2,1.4,0.5,2,0.8c0.6,0.3,1.1,0.7,1.6,1.1c0.5,0.4,0.8,0.9,1.1,1.5c0.3,0.6,0.4,1.3,0.4,2.1
		c0,1.2-0.3,2.2-0.8,3c-0.5,0.8-1.2,1.5-2.1,2c-0.9,0.5-1.8,0.9-2.9,1.1c-1.1,0.2-2.2,0.3-3.3,0.3c-0.9,0-1.9-0.1-2.8-0.3
		c-1-0.2-1.8-0.5-2.6-1c-0.8-0.5-1.4-1.1-1.9-1.8c-0.5-0.8-0.7-1.7-0.7-2.8v-0.8h4.8v0.6c0,0.4,0.1,0.8,0.3,1.1
		c0.2,0.3,0.5,0.6,0.9,0.8s0.8,0.4,1.2,0.5s0.9,0.2,1.3,0.2c0.4,0,0.8,0,1.2-0.1c0.4-0.1,0.8-0.2,1.1-0.4c0.3-0.2,0.6-0.4,0.8-0.7
		c0.2-0.3,0.3-0.6,0.3-1.1c0-0.7-0.2-1.1-0.5-1.4c-0.3-0.3-0.8-0.5-1.4-0.7l-4-1.3c-0.7-0.2-1.2-0.5-1.8-0.7s-0.9-0.6-1.3-0.9
		c-0.4-0.4-0.6-0.8-0.8-1.3s-0.3-1.2-0.3-1.9c0-1.1,0.3-2.1,0.8-2.8s1.2-1.4,2-1.9c0.8-0.5,1.8-0.8,2.7-1s1.9-0.3,2.9-0.3
		c1,0,2,0.1,3,0.3c1,0.2,1.8,0.5,2.5,0.9c0.7,0.5,1.3,1.1,1.7,1.9c0.4,0.8,0.6,1.8,0.6,3h-4.9C243.5,308.7,243.3,308,242.8,307.6z"
		/>
</g>
<g>
	<path d="M81.3,350.6c0.5-1.4,1.2-2.7,2.2-3.8c0.9-1.1,2.1-1.9,3.5-2.6s2.9-0.9,4.6-0.9c1.3,0,2.5,0.2,3.6,0.5
		c1.1,0.3,2,0.8,2.8,1.5c0.8,0.7,1.4,1.5,1.8,2.5c0.4,1,0.6,2.2,0.6,3.6c0,1.7-0.3,3.2-0.8,4.7c-0.5,1.5-1.2,2.7-2.2,3.8
		c-1,1.1-2.1,1.9-3.5,2.5c-1.4,0.6-2.9,0.9-4.7,0.9c-2.7,0-4.8-0.7-6.4-2c-1.6-1.4-2.4-3.4-2.4-6.1C80.5,353.6,80.8,352,81.3,350.6z
		 M86,356.8c0.2,0.5,0.4,1,0.7,1.4c0.3,0.4,0.7,0.7,1.2,0.9c0.5,0.2,1,0.4,1.6,0.4c1,0,1.8-0.3,2.5-0.8c0.7-0.5,1.3-1.2,1.7-2
		s0.8-1.7,1-2.6c0.2-0.9,0.3-1.8,0.3-2.6c0-1.3-0.3-2.3-0.9-3.1c-0.6-0.8-1.6-1.1-3-1.1c-1,0-1.8,0.3-2.5,0.8
		c-0.7,0.5-1.3,1.2-1.7,2s-0.8,1.6-1,2.6c-0.2,0.9-0.3,1.8-0.3,2.6C85.8,355.7,85.8,356.3,86,356.8z"/>
	<path d="M105.7,362.9l-2.5-19.1h5.4l1.2,13.6h0.1l6.8-13.6h5.5l-10.4,19.1H105.7z"/>
	<path d="M126.6,355c0,0.1,0,0.2,0,0.3v0.5c0,1.1,0.3,2,1,2.7c0.7,0.7,1.7,1,3.2,1c0.5,0,1-0.1,1.4-0.2c0.4-0.2,0.8-0.4,1.1-0.6
		c0.3-0.2,0.6-0.5,0.8-0.8c0.2-0.3,0.4-0.6,0.6-0.9h5.2c-0.4,1.1-0.9,2-1.5,2.8c-0.6,0.8-1.2,1.5-2,2c-0.8,0.6-1.7,1-2.7,1.2
		c-1,0.3-2.3,0.4-3.6,0.4c-1.3,0-2.4-0.2-3.5-0.5c-1-0.3-1.9-0.9-2.7-1.6c-0.7-0.7-1.3-1.6-1.7-2.6c-0.4-1-0.6-2.2-0.6-3.6
		c0-1.5,0.2-3,0.7-4.4c0.5-1.4,1.2-2.7,2.1-3.8s2-2,3.3-2.6c1.3-0.7,2.8-1,4.4-1c1.3,0,2.5,0.2,3.6,0.5c1.1,0.3,2,0.9,2.8,1.6
		c0.8,0.7,1.4,1.6,1.8,2.6c0.4,1,0.6,2.3,0.6,3.6c0,0.9-0.1,1.9-0.3,3h-14.1C126.6,354.7,126.6,354.9,126.6,355z M135.8,349.8
		c-0.1-0.5-0.3-0.9-0.5-1.3c-0.2-0.4-0.6-0.7-1.1-0.9c-0.5-0.2-1.1-0.4-1.8-0.4c-0.7,0-1.4,0.1-2,0.3c-0.6,0.2-1.1,0.5-1.5,0.9
		c-0.4,0.4-0.8,0.8-1.1,1.3c-0.3,0.5-0.5,1-0.7,1.5h8.7C135.9,350.8,135.9,350.3,135.8,349.8z"/>
	<path d="M150.9,343.8l-0.8,3.4l0.1,0.1c0.6-1.3,1.5-2.3,2.7-3c1.2-0.7,2.5-1,3.9-1c0.5,0,1.1,0,1.6,0.1l-1.1,5.1
		c-0.4-0.1-0.7-0.1-1.1-0.2c-0.4-0.1-0.7-0.1-1.1-0.1c-1,0-1.9,0.2-2.6,0.5s-1.3,0.8-1.8,1.4c-0.5,0.6-0.9,1.3-1.1,2
		c-0.3,0.8-0.5,1.5-0.7,2.3l-1.8,8.5H142l3.9-19.1H150.9z"/>
	<path d="M187,352.6l-0.9,4.3h-3.4l-1.3,6h-5l1.3-6h-12l1-4.8l15.1-15.1h5.1l-3.3,15.5H187z M180.7,342.7L180.7,342.7l-9.8,9.9h7.7
		L180.7,342.7z"/>
	<path d="M187.7,349.7c0.2-1.3,0.5-2.6,1-3.8s1-2.4,1.7-3.6c0.7-1.1,1.5-2.1,2.4-3c0.9-0.8,1.9-1.5,3.1-2c1.1-0.5,2.4-0.7,3.8-0.7
		c1.5,0,2.7,0.2,3.8,0.7c1.1,0.5,2,1.2,2.7,2c0.7,0.9,1.2,1.9,1.6,3.1s0.5,2.5,0.5,4c0,1.3-0.1,2.6-0.3,3.9s-0.6,2.6-1,3.9
		c-0.5,1.3-1,2.4-1.7,3.6s-1.5,2.1-2.5,3c-0.9,0.8-2,1.5-3.2,2c-1.2,0.5-2.5,0.7-3.9,0.7c-1.5,0-2.7-0.3-3.8-0.8
		c-1-0.5-1.9-1.2-2.5-2.2s-1.1-2-1.4-3.2c-0.3-1.2-0.4-2.5-0.4-3.8C187.4,352.2,187.5,351,187.7,349.7z M192.8,356.3
		c0.1,0.6,0.3,1,0.6,1.4c0.3,0.4,0.6,0.7,1.1,1c0.5,0.2,1.1,0.4,1.8,0.4c0.9,0,1.7-0.3,2.3-0.8c0.7-0.5,1.3-1.2,1.8-2
		c0.5-0.8,0.9-1.7,1.3-2.7s0.6-2,0.8-3c0.2-1,0.4-2,0.4-2.9c0.1-0.9,0.1-1.6,0.1-2.2c0-0.6-0.1-1.2-0.2-1.8
		c-0.1-0.6-0.4-1.1-0.7-1.5s-0.7-0.8-1.2-1c-0.5-0.2-1.1-0.4-1.7-0.4c-0.9,0-1.6,0.3-2.3,0.8c-0.7,0.5-1.2,1.2-1.7,2
		c-0.5,0.8-0.9,1.7-1.2,2.7c-0.3,1-0.6,2-0.8,3c-0.2,1-0.3,2-0.4,2.9c-0.1,0.9-0.1,1.7-0.1,2.3S192.7,355.7,192.8,356.3z"/>
	<path d="M214.6,357.2l-1.2,5.7h-5.8l1.2-5.7H214.6z"/>
</g>
</svg>
