<?xml version="1.0" encoding="utf-8"?>
<!-- Generator: Adobe Illustrator 25.4.1, SVG Export Plug-In . SVG Version: 6.00 Build 0)  -->
<svg version="1.1" id="Layer_1" xmlns="http://www.w3.org/2000/svg" xmlns:xlink="http://www.w3.org/1999/xlink" x="0px" y="0px"
	 viewBox="0 0 300 600" style="enable-background:new 0 0 300 600;" xml:space="preserve">
<style type="text/css">
	.st0{fill:#349946;}
</style>
<g>
	<path d="M51.3,96.7v5.4H35.8v6.3h14.2v5H35.8v7.2h15.9v5.4H29.4V96.7H51.3z"/>
	<path d="M60.7,126.1l-7.3-21.3h6.1l4.5,14.5h0.1l4.5-14.5h5.8l-7.2,21.3H60.7z"/>
	<path d="M83.1,121c0.9,0.9,2.1,1.3,3.8,1.3c1.2,0,2.2-0.3,3-0.9c0.9-0.6,1.4-1.2,1.6-1.9h5.1c-0.8,2.6-2.1,4.4-3.8,5.5
		c-1.7,1.1-3.8,1.6-6.2,1.6c-1.7,0-3.2-0.3-4.5-0.8c-1.3-0.5-2.5-1.3-3.4-2.3c-0.9-1-1.7-2.2-2.2-3.5c-0.5-1.4-0.8-2.9-0.8-4.5
		c0-1.6,0.3-3.1,0.8-4.4c0.5-1.4,1.3-2.6,2.2-3.6c1-1,2.1-1.8,3.4-2.4c1.3-0.6,2.8-0.9,4.4-0.9c1.8,0,3.4,0.4,4.7,1
		c1.3,0.7,2.5,1.6,3.3,2.8c0.9,1.2,1.5,2.5,1.9,4c0.4,1.5,0.5,3.1,0.4,4.7H81.6C81.7,118.7,82.2,120.1,83.1,121z M89.7,109.8
		c-0.7-0.8-1.8-1.2-3.2-1.2c-0.9,0-1.7,0.2-2.3,0.5c-0.6,0.3-1.1,0.7-1.5,1.2s-0.6,1-0.8,1.5c-0.2,0.5-0.2,1-0.3,1.4h9.5
		C90.9,111.6,90.4,110.5,89.7,109.8z"/>
	<path d="M106,104.8v3h0.1c0.7-1.2,1.7-2.1,2.9-2.7c1.2-0.6,2.4-0.8,3.6-0.8c1.6,0,2.8,0.2,3.9,0.6c1,0.4,1.8,1,2.4,1.8
		c0.6,0.8,1,1.7,1.2,2.8c0.2,1.1,0.4,2.3,0.4,3.6v13.1h-5.8v-12c0-1.8-0.3-3.1-0.8-3.9c-0.5-0.9-1.5-1.3-2.9-1.3
		c-1.6,0-2.7,0.5-3.5,1.4c-0.7,0.9-1.1,2.5-1.1,4.7v11.2h-5.8v-21.3H106z"/>
	<path d="M148,104.8v3.9h-4.3v10.5c0,1,0.2,1.6,0.5,2c0.3,0.3,1,0.5,2,0.5c0.3,0,0.6,0,0.9,0c0.3,0,0.6-0.1,0.9-0.1v4.5
		c-0.5,0.1-1,0.1-1.6,0.2s-1.2,0-1.8,0c-0.9,0-1.8-0.1-2.6-0.2c-0.8-0.1-1.5-0.4-2.1-0.7c-0.6-0.4-1.1-0.9-1.5-1.5s-0.5-1.5-0.5-2.6
		v-12.6h-3.5v-3.9h3.5v-6.4h5.8v6.4H148z"/>
	<path d="M156.7,96.7v11.1h0.1c0.7-1.2,1.7-2.1,2.8-2.7c1.2-0.6,2.3-0.8,3.4-0.8c1.6,0,2.8,0.2,3.9,0.6c1,0.4,1.8,1,2.4,1.8
		c0.6,0.8,1,1.7,1.2,2.8c0.2,1.1,0.3,2.3,0.3,3.6v13.1h-5.8v-12c0-1.8-0.3-3.1-0.8-3.9c-0.5-0.9-1.5-1.3-2.9-1.3
		c-1.6,0-2.7,0.5-3.5,1.4c-0.7,0.9-1.1,2.5-1.1,4.7v11.2h-5.8V96.7H156.7z"/>
	<path d="M181.5,121c0.9,0.9,2.1,1.3,3.8,1.3c1.2,0,2.2-0.3,3-0.9c0.9-0.6,1.4-1.2,1.6-1.9h5.1c-0.8,2.6-2.1,4.4-3.8,5.5
		c-1.7,1.1-3.8,1.6-6.2,1.6c-1.7,0-3.2-0.3-4.5-0.8s-2.5-1.3-3.4-2.3c-0.9-1-1.7-2.2-2.2-3.5c-0.5-1.4-0.8-2.9-0.8-4.5
		c0-1.6,0.3-3.1,0.8-4.4c0.5-1.4,1.3-2.6,2.2-3.6c1-1,2.1-1.8,3.4-2.4c1.3-0.6,2.8-0.9,4.4-0.9c1.8,0,3.4,0.4,4.7,1
		c1.3,0.7,2.5,1.6,3.3,2.8c0.9,1.2,1.5,2.5,1.9,4c0.4,1.5,0.5,3.1,0.4,4.7h-15.4C180.1,118.7,180.6,120.1,181.5,121z M188.1,109.8
		c-0.7-0.8-1.8-1.2-3.2-1.2c-0.9,0-1.7,0.2-2.3,0.5c-0.6,0.3-1.1,0.7-1.5,1.2c-0.4,0.5-0.6,1-0.8,1.5c-0.2,0.5-0.2,1-0.3,1.4h9.5
		C189.3,111.6,188.8,110.5,188.1,109.8z"/>
</g>
<g>
	<path d="M43.2,136.5c1.4,0,2.7,0.1,3.8,0.4s2.1,0.7,3,1.2c0.8,0.6,1.5,1.3,1.9,2.2c0.5,0.9,0.7,2.1,0.7,3.5c0,1.5-0.3,2.7-1,3.7
		c-0.7,1-1.7,1.8-3,2.4c1.8,0.5,3.2,1.4,4.1,2.7c0.9,1.3,1.3,2.9,1.3,4.7c0,1.5-0.3,2.8-0.9,3.9c-0.6,1.1-1.4,2-2.3,2.7
		c-1,0.7-2.1,1.2-3.3,1.5c-1.2,0.3-2.5,0.5-3.9,0.5H29.4v-29.4H43.2z M42.4,148.4c1.2,0,2.1-0.3,2.8-0.8c0.7-0.5,1.1-1.4,1.1-2.7
		c0-0.7-0.1-1.2-0.4-1.7c-0.2-0.4-0.6-0.8-1-1c-0.4-0.2-0.9-0.4-1.4-0.5s-1.1-0.1-1.7-0.1h-6.1v6.9H42.4z M42.7,160.9
		c0.6,0,1.2-0.1,1.8-0.2c0.6-0.1,1.1-0.3,1.5-0.6c0.4-0.3,0.8-0.7,1-1.2c0.3-0.5,0.4-1.1,0.4-1.9c0-1.5-0.4-2.6-1.3-3.2
		c-0.9-0.6-2-1-3.4-1h-7v8.1H42.7z"/>
	<path d="M80.3,136.5v5.4H64.8v6.3h14.2v5H64.8v7.2h15.9v5.4H58.3v-29.4H80.3z"/>
	<path d="M90,158.7c0.4,0.7,0.8,1.2,1.4,1.7c0.6,0.4,1.3,0.7,2.1,0.9c0.8,0.2,1.6,0.3,2.5,0.3c0.6,0,1.2,0,1.9-0.1
		c0.7-0.1,1.3-0.3,1.9-0.6c0.6-0.3,1.1-0.7,1.4-1.1c0.4-0.5,0.6-1.1,0.6-1.8c0-0.8-0.3-1.4-0.8-1.9c-0.5-0.5-1.2-0.9-2-1.2
		c-0.8-0.3-1.8-0.6-2.8-0.9c-1-0.2-2.1-0.5-3.2-0.8c-1.1-0.3-2.2-0.6-3.2-1c-1-0.4-2-0.9-2.8-1.5c-0.8-0.6-1.5-1.4-2-2.4
		c-0.5-0.9-0.8-2.1-0.8-3.4c0-1.5,0.3-2.8,1-3.9c0.6-1.1,1.5-2,2.5-2.8c1-0.7,2.2-1.3,3.5-1.6c1.3-0.4,2.6-0.5,4-0.5
		c1.5,0,3,0.2,4.4,0.5c1.4,0.3,2.7,0.9,3.8,1.7c1.1,0.8,2,1.8,2.6,2.9c0.6,1.2,1,2.6,1,4.3h-6.3c-0.1-0.9-0.2-1.6-0.6-2.2
		c-0.3-0.6-0.7-1-1.3-1.4c-0.5-0.3-1.1-0.6-1.8-0.7c-0.7-0.1-1.4-0.2-2.2-0.2c-0.5,0-1,0.1-1.6,0.2c-0.5,0.1-1,0.3-1.4,0.6
		c-0.4,0.3-0.8,0.6-1,1c-0.3,0.4-0.4,0.9-0.4,1.6c0,0.6,0.1,1,0.3,1.4c0.2,0.4,0.7,0.7,1.3,1c0.6,0.3,1.5,0.6,2.7,0.9
		c1.1,0.3,2.6,0.7,4.5,1.2c0.5,0.1,1.3,0.3,2.3,0.6c1,0.3,1.9,0.7,2.9,1.4c1,0.6,1.8,1.5,2.5,2.5c0.7,1.1,1,2.4,1,4.1
		c0,1.3-0.3,2.6-0.8,3.7c-0.5,1.2-1.3,2.1-2.3,3c-1,0.8-2.3,1.5-3.8,2c-1.5,0.5-3.3,0.7-5.3,0.7c-1.6,0-3.2-0.2-4.7-0.6
		c-1.5-0.4-2.9-1-4-1.9c-1.2-0.9-2.1-1.9-2.8-3.3c-0.7-1.3-1-2.9-1-4.7h6.3C89.4,157.2,89.6,158,90,158.7z"/>
	<path d="M109.4,142v-5.4h24.1v5.4h-8.8v24h-6.5v-24H109.4z"/>
	<path d="M143.4,152.2v5H131v-5H143.4z"/>
	<path d="M153.8,136.5v29.4h-5.8v-29.4H153.8z"/>
	<path d="M158.2,151.2c0.1-1.4,0.4-2.5,1-3.4c0.6-0.9,1.4-1.6,2.3-2.2c0.9-0.5,2-0.9,3.2-1.2c1.2-0.2,2.3-0.4,3.5-0.4
		c1.1,0,2.2,0.1,3.3,0.2s2.1,0.4,3,0.9c0.9,0.4,1.6,1,2.2,1.8c0.6,0.8,0.9,1.8,0.9,3.1v11.1c0,1,0.1,1.9,0.2,2.8
		c0.1,0.9,0.3,1.5,0.6,2h-5.9c-0.1-0.3-0.2-0.7-0.3-1c-0.1-0.3-0.1-0.7-0.1-1.1c-0.9,1-2,1.6-3.3,2c-1.3,0.4-2.6,0.6-3.9,0.6
		c-1,0-2-0.1-2.8-0.4c-0.9-0.2-1.6-0.6-2.3-1.2c-0.7-0.5-1.2-1.2-1.5-2c-0.4-0.8-0.6-1.7-0.6-2.8c0-1.2,0.2-2.2,0.6-3
		c0.4-0.8,1-1.4,1.6-1.9c0.7-0.5,1.4-0.8,2.3-1c0.9-0.2,1.7-0.4,2.6-0.6c0.9-0.1,1.7-0.2,2.6-0.3c0.9-0.1,1.6-0.2,2.3-0.4
		c0.7-0.2,1.2-0.4,1.6-0.7c0.4-0.3,0.6-0.8,0.5-1.4c0-0.6-0.1-1.1-0.3-1.5s-0.5-0.7-0.8-0.9c-0.3-0.2-0.7-0.3-1.2-0.4
		c-0.5-0.1-0.9-0.1-1.5-0.1c-1.2,0-2.1,0.2-2.7,0.7c-0.7,0.5-1,1.3-1.2,2.5H158.2z M171.7,155.5c-0.2,0.2-0.6,0.4-0.9,0.5
		c-0.4,0.1-0.8,0.2-1.2,0.3c-0.4,0.1-0.9,0.2-1.3,0.2c-0.5,0.1-0.9,0.1-1.4,0.2c-0.4,0.1-0.9,0.2-1.3,0.3c-0.4,0.1-0.8,0.3-1.1,0.6
		c-0.3,0.2-0.6,0.5-0.8,0.9c-0.2,0.4-0.3,0.8-0.3,1.4c0,0.5,0.1,1,0.3,1.3c0.2,0.4,0.5,0.6,0.8,0.8c0.3,0.2,0.7,0.3,1.2,0.4
		c0.4,0.1,0.9,0.1,1.4,0.1c1.2,0,2-0.2,2.7-0.6c0.6-0.4,1.1-0.8,1.4-1.4c0.3-0.5,0.5-1.1,0.6-1.6c0.1-0.5,0.1-1,0.1-1.3V155.5z"/>
	<path d="M182.2,141.3v-4.8h5.8v4.8H182.2z M188,144.6v21.3h-5.8v-21.3H188z"/>
	<path d="M207.8,163.2c-0.7,1.2-1.6,2-2.7,2.5c-1.1,0.5-2.4,0.8-3.8,0.8c-1.6,0-3-0.3-4.2-0.9s-2.2-1.5-3-2.5
		c-0.8-1.1-1.4-2.3-1.8-3.6c-0.4-1.4-0.6-2.8-0.6-4.3c0-1.4,0.2-2.8,0.6-4.1c0.4-1.3,1-2.5,1.8-3.5c0.8-1,1.8-1.8,2.9-2.5
		c1.2-0.6,2.6-0.9,4.1-0.9c1.3,0,2.5,0.3,3.6,0.8c1.1,0.5,2,1.3,2.7,2.4h0.1v-10.7h5.8v29.4h-5.6L207.8,163.2L207.8,163.2z
		 M207.5,152.7c-0.2-0.8-0.4-1.5-0.8-2.1c-0.4-0.6-0.9-1.1-1.5-1.5c-0.6-0.4-1.4-0.6-2.4-0.6c-1,0-1.8,0.2-2.4,0.6
		c-0.7,0.4-1.2,0.9-1.6,1.5c-0.4,0.6-0.7,1.4-0.9,2.2c-0.2,0.8-0.3,1.7-0.3,2.5c0,0.8,0.1,1.6,0.3,2.5c0.2,0.8,0.5,1.6,0.9,2.2
		c0.4,0.6,1,1.2,1.6,1.6c0.6,0.4,1.4,0.6,2.3,0.6c1,0,1.8-0.2,2.4-0.6c0.6-0.4,1.2-0.9,1.5-1.5c0.4-0.6,0.7-1.4,0.8-2.2
		c0.2-0.8,0.2-1.7,0.2-2.6C207.8,154.3,207.7,153.5,207.5,152.7z"/>
</g>
<g>
	<path d="M42.6,176.4c1.8,0,3.4,0.3,4.7,0.8c1.3,0.5,2.3,1.2,3.1,2.1c0.8,0.9,1.4,1.9,1.8,3c0.4,1.1,0.6,2.3,0.6,3.5
		c0,1.2-0.2,2.3-0.6,3.5c-0.4,1.1-1,2.1-1.8,3c-0.8,0.9-1.9,1.6-3.1,2.1c-1.3,0.5-2.9,0.8-4.7,0.8h-6.8v10.5h-6.5v-29.4H42.6z
		 M40.8,190.2c0.7,0,1.5-0.1,2.1-0.2c0.7-0.1,1.3-0.3,1.8-0.6c0.5-0.3,0.9-0.8,1.3-1.3c0.3-0.6,0.5-1.3,0.5-2.3
		c0-0.9-0.2-1.7-0.5-2.3c-0.3-0.6-0.7-1-1.3-1.3c-0.5-0.3-1.1-0.5-1.8-0.6c-0.7-0.1-1.4-0.2-2.1-0.2h-5v8.8H40.8z"/>
	<path d="M63.3,176.4v24h14.3v5.4H56.8v-29.4H63.3z"/>
	<path d="M95.9,176.4l11,29.4h-6.7l-2.2-6.5H87l-2.3,6.5h-6.5l11.1-29.4H95.9z M96.3,194.4l-3.7-10.8h-0.1l-3.8,10.8H96.3z"/>
	<path d="M115.9,176.4l12.3,19.7h0.1v-19.7h6.1v29.4h-6.5l-12.2-19.7h-0.1v19.7h-6.1v-29.4H115.9z"/>
	<path d="M144.9,198.5c0.4,0.7,0.8,1.2,1.4,1.7c0.6,0.4,1.3,0.7,2.1,0.9c0.8,0.2,1.6,0.3,2.5,0.3c0.6,0,1.2,0,1.9-0.1
		c0.7-0.1,1.3-0.3,1.9-0.6c0.6-0.3,1.1-0.7,1.4-1.1c0.4-0.5,0.6-1.1,0.6-1.8c0-0.8-0.3-1.4-0.8-1.9s-1.2-0.9-2-1.2
		c-0.8-0.3-1.8-0.6-2.8-0.9c-1-0.2-2.1-0.5-3.2-0.8c-1.1-0.3-2.2-0.6-3.2-1c-1-0.4-2-0.9-2.8-1.5c-0.8-0.6-1.5-1.4-2-2.4
		c-0.5-0.9-0.8-2.1-0.8-3.4c0-1.5,0.3-2.8,1-3.9c0.6-1.1,1.5-2,2.5-2.8c1-0.7,2.2-1.3,3.5-1.6c1.3-0.4,2.6-0.5,4-0.5
		c1.5,0,3,0.2,4.4,0.5s2.7,0.9,3.8,1.7c1.1,0.8,2,1.8,2.6,2.9c0.6,1.2,1,2.6,1,4.3h-6.3c-0.1-0.9-0.2-1.6-0.6-2.2
		c-0.3-0.6-0.7-1-1.3-1.4c-0.5-0.3-1.1-0.6-1.8-0.7c-0.7-0.1-1.4-0.2-2.2-0.2c-0.5,0-1,0.1-1.6,0.2c-0.5,0.1-1,0.3-1.4,0.6
		c-0.4,0.3-0.8,0.6-1,1c-0.3,0.4-0.4,0.9-0.4,1.6c0,0.6,0.1,1,0.3,1.4c0.2,0.4,0.7,0.7,1.3,1c0.6,0.3,1.5,0.6,2.7,0.9
		c1.1,0.3,2.6,0.7,4.5,1.2c0.5,0.1,1.3,0.3,2.3,0.6c1,0.3,1.9,0.7,2.9,1.4c1,0.6,1.8,1.5,2.5,2.5c0.7,1.1,1.1,2.4,1.1,4.1
		c0,1.3-0.3,2.6-0.8,3.7c-0.5,1.2-1.3,2.1-2.3,3c-1,0.8-2.3,1.5-3.8,2c-1.5,0.5-3.3,0.7-5.3,0.7c-1.6,0-3.2-0.2-4.7-0.6
		c-1.5-0.4-2.9-1-4-1.9c-1.2-0.9-2.1-1.9-2.8-3.3c-0.7-1.3-1-2.9-1-4.7h6.3C144.4,197,144.5,197.9,144.9,198.5z"/>
	<path d="M177.6,190.5c0.5-1.4,1.3-2.6,2.2-3.5c1-1,2.1-1.7,3.5-2.3c1.3-0.5,2.9-0.8,4.5-0.8c1.7,0,3.2,0.3,4.5,0.8
		c1.4,0.5,2.5,1.3,3.5,2.3c1,1,1.7,2.2,2.2,3.5c0.5,1.4,0.8,2.9,0.8,4.6c0,1.7-0.3,3.2-0.8,4.6c-0.5,1.4-1.3,2.5-2.2,3.5
		c-1,1-2.1,1.7-3.5,2.2c-1.4,0.5-2.9,0.8-4.5,0.8c-1.7,0-3.2-0.3-4.5-0.8s-2.5-1.3-3.5-2.2c-1-1-1.7-2.1-2.2-3.5
		c-0.5-1.4-0.8-2.9-0.8-4.6C176.8,193.5,177.1,191.9,177.6,190.5z M182.9,197.7c0.2,0.8,0.4,1.5,0.8,2.2c0.4,0.6,0.9,1.2,1.6,1.5
		c0.7,0.4,1.5,0.6,2.5,0.6s1.8-0.2,2.5-0.6c0.7-0.4,1.2-0.9,1.6-1.5c0.4-0.6,0.7-1.4,0.8-2.2c0.2-0.8,0.2-1.6,0.2-2.5
		c0-0.9-0.1-1.7-0.2-2.5c-0.2-0.8-0.4-1.6-0.8-2.2c-0.4-0.6-0.9-1.1-1.6-1.5c-0.7-0.4-1.5-0.6-2.5-0.6s-1.8,0.2-2.5,0.6
		c-0.7,0.4-1.2,0.9-1.6,1.5c-0.4,0.6-0.7,1.4-0.8,2.2c-0.2,0.8-0.2,1.7-0.2,2.5C182.7,196,182.8,196.9,182.9,197.7z"/>
	<path d="M200.4,188.4v-3.9h3.5v-1.6c0-1.9,0.6-3.4,1.8-4.7s3-1.8,5.4-1.8c0.5,0,1,0,1.6,0.1c0.5,0,1,0.1,1.5,0.1v4.4
		c-0.7-0.1-1.4-0.1-2.1-0.1c-0.8,0-1.4,0.2-1.7,0.6c-0.3,0.4-0.5,1-0.5,1.9v1.3h4v3.9h-4v17.4h-5.8v-17.4H200.4z"/>
</g>
<g>
	<path d="M34.4,224.4v2.9h0.1c0.8-1.1,1.7-1.9,2.8-2.6c1.1-0.6,2.3-0.9,3.7-0.9c1.3,0,2.6,0.3,3.7,0.8c1.1,0.5,2,1.4,2.5,2.8
		c0.6-0.9,1.5-1.8,2.6-2.5c1.1-0.7,2.4-1.1,3.9-1.1c1.1,0,2.2,0.1,3.1,0.4c1,0.3,1.8,0.7,2.5,1.3c0.7,0.6,1.2,1.4,1.6,2.4
		c0.4,1,0.6,2.1,0.6,3.5v14.2h-5.8v-12.1c0-0.7,0-1.4-0.1-2c-0.1-0.6-0.2-1.2-0.5-1.6c-0.2-0.5-0.6-0.8-1.1-1.1
		c-0.5-0.3-1.1-0.4-2-0.4c-0.8,0-1.5,0.2-2,0.5c-0.5,0.3-0.9,0.7-1.2,1.2c-0.3,0.5-0.5,1.1-0.6,1.7c-0.1,0.6-0.1,1.3-0.1,2v11.9
		h-5.8v-11.9c0-0.6,0-1.3,0-1.9s-0.1-1.2-0.3-1.7c-0.2-0.5-0.5-0.9-1-1.3c-0.5-0.3-1.2-0.5-2.1-0.5c-0.3,0-0.6,0.1-1.1,0.2
		c-0.5,0.1-0.9,0.4-1.3,0.7c-0.4,0.3-0.8,0.8-1.1,1.5c-0.3,0.6-0.5,1.5-0.5,2.5v12.4h-5.8v-21.3H34.4z"/>
	<path d="M66.2,221.1v-4.8h5.8v4.8H66.2z M72.1,224.4v21.3h-5.8v-21.3H72.1z"/>
	<path d="M86.8,228.2c-0.9,0-1.7,0.2-2.3,0.6c-0.6,0.4-1.1,1-1.5,1.6c-0.4,0.7-0.7,1.4-0.8,2.2c-0.2,0.8-0.2,1.6-0.2,2.4
		c0,0.8,0.1,1.6,0.2,2.3c0.2,0.8,0.4,1.5,0.8,2.2c0.4,0.6,0.9,1.2,1.5,1.6c0.6,0.4,1.4,0.6,2.3,0.6c1.4,0,2.5-0.4,3.2-1.2
		c0.8-0.8,1.2-1.8,1.4-3.2H97c-0.4,2.8-1.5,5-3.3,6.5c-1.8,1.5-4.1,2.2-7,2.2c-1.6,0-3.1-0.3-4.4-0.8c-1.3-0.5-2.5-1.3-3.4-2.2
		s-1.7-2.1-2.2-3.4c-0.5-1.3-0.8-2.8-0.8-4.4c0-1.6,0.2-3.2,0.7-4.6c0.5-1.4,1.2-2.6,2.1-3.7c0.9-1,2.1-1.8,3.4-2.4
		c1.3-0.6,2.9-0.9,4.6-0.9c1.3,0,2.5,0.2,3.6,0.5c1.2,0.3,2.2,0.8,3.1,1.5c0.9,0.7,1.7,1.5,2.2,2.5c0.6,1,0.9,2.2,1,3.6h-5.7
		C90.8,229.4,89.3,228.2,86.8,228.2z"/>
	<path d="M106.6,240.6c0.9,0.9,2.1,1.3,3.8,1.3c1.2,0,2.2-0.3,3-0.9c0.9-0.6,1.4-1.2,1.6-1.9h5.1c-0.8,2.6-2.1,4.4-3.8,5.5
		c-1.7,1.1-3.8,1.6-6.2,1.6c-1.7,0-3.2-0.3-4.5-0.8c-1.3-0.5-2.5-1.3-3.4-2.3c-0.9-1-1.7-2.2-2.2-3.5c-0.5-1.4-0.8-2.9-0.8-4.5
		c0-1.6,0.3-3.1,0.8-4.4c0.5-1.4,1.3-2.6,2.2-3.6c1-1,2.1-1.8,3.4-2.4c1.3-0.6,2.8-0.9,4.4-0.9c1.8,0,3.4,0.4,4.7,1
		c1.3,0.7,2.5,1.6,3.3,2.8c0.9,1.2,1.5,2.5,1.9,4c0.4,1.5,0.5,3.1,0.4,4.7h-15.4C105.2,238.3,105.7,239.7,106.6,240.6z M113.2,229.4
		c-0.7-0.8-1.8-1.2-3.2-1.2c-0.9,0-1.7,0.2-2.3,0.5c-0.6,0.3-1.1,0.7-1.5,1.2s-0.6,1-0.8,1.5c-0.2,0.5-0.2,1-0.3,1.4h9.5
		C114.4,231.3,113.9,230.1,113.2,229.4z"/>
	<path d="M135.1,230.9c0.1-1.4,0.4-2.5,1-3.4c0.6-0.9,1.4-1.6,2.3-2.2c0.9-0.5,2-0.9,3.2-1.2c1.2-0.2,2.3-0.4,3.5-0.4
		c1.1,0,2.2,0.1,3.3,0.2s2.1,0.4,3,0.9c0.9,0.4,1.6,1,2.2,1.8c0.6,0.8,0.9,1.8,0.9,3.1v11.1c0,1,0.1,1.9,0.2,2.8
		c0.1,0.9,0.3,1.5,0.6,2h-5.9c-0.1-0.3-0.2-0.7-0.3-1c-0.1-0.3-0.1-0.7-0.1-1.1c-0.9,1-2,1.6-3.3,2c-1.3,0.4-2.6,0.6-3.9,0.6
		c-1,0-2-0.1-2.8-0.4c-0.9-0.2-1.6-0.6-2.3-1.2c-0.7-0.5-1.2-1.2-1.5-2c-0.4-0.8-0.6-1.7-0.6-2.8c0-1.2,0.2-2.2,0.6-3
		c0.4-0.8,1-1.4,1.6-1.9c0.7-0.5,1.4-0.8,2.3-1c0.9-0.2,1.7-0.4,2.6-0.6c0.9-0.1,1.7-0.2,2.6-0.3c0.9-0.1,1.6-0.2,2.3-0.4
		c0.7-0.2,1.2-0.4,1.6-0.7c0.4-0.3,0.6-0.8,0.5-1.4c0-0.6-0.1-1.1-0.3-1.5s-0.5-0.7-0.8-0.9c-0.3-0.2-0.7-0.3-1.2-0.4
		c-0.5-0.1-0.9-0.1-1.5-0.1c-1.2,0-2.1,0.2-2.7,0.7c-0.7,0.5-1,1.3-1.2,2.5H135.1z M148.6,235.3c-0.2,0.2-0.6,0.4-0.9,0.5
		c-0.4,0.1-0.8,0.2-1.2,0.3c-0.4,0.1-0.9,0.2-1.3,0.2c-0.5,0.1-0.9,0.1-1.4,0.2c-0.4,0.1-0.9,0.2-1.3,0.3c-0.4,0.1-0.8,0.3-1.1,0.6
		c-0.3,0.2-0.6,0.5-0.8,0.9c-0.2,0.4-0.3,0.8-0.3,1.4c0,0.5,0.1,1,0.3,1.3c0.2,0.4,0.5,0.6,0.8,0.8c0.3,0.2,0.7,0.3,1.2,0.4
		c0.4,0.1,0.9,0.1,1.4,0.1c1.2,0,2-0.2,2.7-0.6c0.6-0.4,1.1-0.8,1.4-1.4c0.3-0.5,0.5-1.1,0.6-1.6c0.1-0.5,0.1-1,0.1-1.3V235.3z"/>
	<path d="M164.6,224.4v3h0.1c0.7-1.2,1.7-2.1,2.9-2.7c1.2-0.6,2.4-0.8,3.6-0.8c1.6,0,2.8,0.2,3.9,0.6c1,0.4,1.8,1,2.4,1.8
		c0.6,0.8,1,1.7,1.2,2.8c0.2,1.1,0.3,2.3,0.3,3.6v13.1h-5.8v-12c0-1.8-0.3-3.1-0.8-3.9c-0.5-0.9-1.5-1.3-2.9-1.3
		c-1.6,0-2.7,0.5-3.5,1.4c-0.7,0.9-1.1,2.5-1.1,4.7v11.2H159v-21.3H164.6z"/>
	<path d="M198.5,243c-0.7,1.2-1.6,2-2.7,2.5c-1.1,0.5-2.4,0.8-3.8,0.8c-1.6,0-3-0.3-4.2-0.9s-2.2-1.5-3-2.5
		c-0.8-1.1-1.4-2.3-1.8-3.6c-0.4-1.4-0.6-2.8-0.6-4.3c0-1.4,0.2-2.8,0.6-4.1c0.4-1.3,1-2.5,1.8-3.5c0.8-1,1.8-1.8,2.9-2.5
		c1.2-0.6,2.6-0.9,4.1-0.9c1.3,0,2.5,0.3,3.6,0.8c1.1,0.5,2,1.3,2.7,2.4h0.1v-10.7h5.8v29.4h-5.6L198.5,243L198.5,243z M198.3,232.4
		c-0.2-0.8-0.4-1.5-0.8-2.1c-0.4-0.6-0.9-1.1-1.5-1.5c-0.6-0.4-1.4-0.6-2.4-0.6c-1,0-1.8,0.2-2.4,0.6c-0.7,0.4-1.2,0.9-1.6,1.5
		c-0.4,0.6-0.7,1.4-0.9,2.2c-0.2,0.8-0.3,1.7-0.3,2.5c0,0.8,0.1,1.6,0.3,2.5c0.2,0.8,0.5,1.6,0.9,2.2c0.4,0.6,1,1.2,1.6,1.6
		c0.6,0.4,1.4,0.6,2.3,0.6c1,0,1.8-0.2,2.4-0.6c0.6-0.4,1.2-0.9,1.5-1.5c0.4-0.6,0.7-1.4,0.8-2.2c0.2-0.8,0.2-1.7,0.2-2.6
		C198.5,234.1,198.5,233.2,198.3,232.4z"/>
</g>
<g>
	<path d="M42,256.1c1.9,0,3.7,0.3,5.3,0.9c1.6,0.6,3,1.5,4.2,2.7c1.2,1.2,2.1,2.7,2.8,4.5c0.7,1.8,1,3.9,1,6.4
		c0,2.1-0.3,4.1-0.8,5.9c-0.5,1.8-1.4,3.4-2.5,4.7c-1.1,1.3-2.5,2.4-4.2,3.1c-1.7,0.8-3.6,1.1-5.9,1.1H29.4v-29.4H42z M41.6,280.1
		c0.9,0,1.8-0.2,2.7-0.5c0.9-0.3,1.7-0.8,2.3-1.5c0.7-0.7,1.2-1.6,1.6-2.7c0.4-1.1,0.6-2.5,0.6-4.1c0-1.5-0.1-2.8-0.4-4
		c-0.3-1.2-0.8-2.2-1.4-3.1c-0.7-0.9-1.5-1.5-2.6-2c-1.1-0.5-2.4-0.7-4-0.7h-4.6v18.5H41.6z"/>
	<path d="M81.9,256.1v5.4H66.3v6.3h14.2v5H66.3v7.2h15.9v5.4H59.9v-29.4H81.9z"/>
	<path d="M93,256.1l12.3,19.7h0.1v-19.7h6.1v29.4h-6.5l-12.2-19.7h-0.1v19.7h-6.1v-29.4H93z"/>
	<path d="M114.8,261.6v-5.4h24.1v5.4H130v24h-6.5v-24H114.8z"/>
	<path d="M148.7,256.1v29.4h-6.5v-29.4H148.7z"/>
	<path d="M159.3,278.3c0.4,0.7,0.8,1.2,1.4,1.7c0.6,0.4,1.3,0.7,2.1,0.9c0.8,0.2,1.6,0.3,2.5,0.3c0.6,0,1.2,0,1.9-0.1
		c0.7-0.1,1.3-0.3,1.9-0.6c0.6-0.3,1.1-0.7,1.4-1.1c0.4-0.5,0.6-1.1,0.6-1.8c0-0.8-0.3-1.4-0.8-1.9s-1.2-0.9-2-1.2
		c-0.8-0.3-1.8-0.6-2.8-0.9c-1-0.2-2.1-0.5-3.2-0.8c-1.1-0.3-2.2-0.6-3.2-1c-1-0.4-2-0.9-2.8-1.5c-0.8-0.6-1.5-1.4-2-2.4
		c-0.5-0.9-0.8-2.1-0.8-3.4c0-1.5,0.3-2.8,1-3.9c0.6-1.1,1.5-2,2.5-2.8c1-0.7,2.2-1.3,3.5-1.6c1.3-0.4,2.6-0.5,4-0.5
		c1.5,0,3,0.2,4.4,0.5s2.7,0.9,3.8,1.7c1.1,0.8,2,1.8,2.6,2.9c0.6,1.2,1,2.6,1,4.3H170c-0.1-0.9-0.2-1.6-0.6-2.2
		c-0.3-0.6-0.7-1-1.3-1.4c-0.5-0.3-1.1-0.6-1.8-0.7c-0.7-0.1-1.4-0.2-2.2-0.2c-0.5,0-1,0.1-1.6,0.2c-0.5,0.1-1,0.3-1.4,0.6
		c-0.4,0.3-0.8,0.6-1,1c-0.3,0.4-0.4,0.9-0.4,1.6c0,0.6,0.1,1,0.3,1.4c0.2,0.4,0.7,0.7,1.3,1c0.6,0.3,1.5,0.6,2.7,0.9
		c1.1,0.3,2.6,0.7,4.5,1.2c0.5,0.1,1.3,0.3,2.3,0.6c1,0.3,1.9,0.7,2.9,1.4c1,0.6,1.8,1.5,2.5,2.5c0.7,1.1,1.1,2.4,1.1,4.1
		c0,1.3-0.3,2.6-0.8,3.7c-0.5,1.2-1.3,2.1-2.3,3c-1,0.8-2.3,1.5-3.8,2c-1.5,0.5-3.3,0.7-5.3,0.7c-1.6,0-3.2-0.2-4.7-0.6
		c-1.5-0.4-2.9-1-4-1.9c-1.2-0.9-2.1-1.9-2.8-3.3c-0.7-1.3-1-2.9-1-4.7h6.3C158.8,276.8,159,277.6,159.3,278.3z"/>
	<path d="M178.8,261.6v-5.4h24.1v5.4h-8.8v24h-6.5v-24H178.8z"/>
	<path d="M211.2,278.3c0.4,0.7,0.8,1.2,1.4,1.7c0.6,0.4,1.3,0.7,2.1,0.9c0.8,0.2,1.6,0.3,2.5,0.3c0.6,0,1.2,0,1.9-0.1
		c0.7-0.1,1.3-0.3,1.9-0.6c0.6-0.3,1.1-0.7,1.4-1.1c0.4-0.5,0.6-1.1,0.6-1.8c0-0.8-0.3-1.4-0.8-1.9s-1.2-0.9-2-1.2
		c-0.8-0.3-1.8-0.6-2.8-0.9c-1-0.2-2.1-0.5-3.2-0.8c-1.1-0.3-2.2-0.6-3.2-1c-1-0.4-2-0.9-2.8-1.5c-0.8-0.6-1.5-1.4-2-2.4
		c-0.5-0.9-0.8-2.1-0.8-3.4c0-1.5,0.3-2.8,1-3.9c0.6-1.1,1.5-2,2.5-2.8c1-0.7,2.2-1.3,3.5-1.6c1.3-0.4,2.6-0.5,4-0.5
		c1.5,0,3,0.2,4.4,0.5s2.7,0.9,3.8,1.7c1.1,0.8,2,1.8,2.6,2.9c0.6,1.2,1,2.6,1,4.3h-6.3c-0.1-0.9-0.2-1.6-0.6-2.2
		c-0.3-0.6-0.7-1-1.3-1.4c-0.5-0.3-1.1-0.6-1.8-0.7c-0.7-0.1-1.4-0.2-2.2-0.2c-0.5,0-1,0.1-1.6,0.2c-0.5,0.1-1,0.3-1.4,0.6
		c-0.4,0.3-0.8,0.6-1,1c-0.3,0.4-0.4,0.9-0.4,1.6c0,0.6,0.1,1,0.3,1.4c0.2,0.4,0.7,0.7,1.3,1c0.6,0.3,1.5,0.6,2.7,0.9
		c1.1,0.3,2.6,0.7,4.5,1.2c0.5,0.1,1.3,0.3,2.3,0.6c1,0.3,1.9,0.7,2.9,1.4c1,0.6,1.8,1.5,2.5,2.5c0.7,1.1,1.1,2.4,1.1,4.1
		c0,1.3-0.3,2.6-0.8,3.7c-0.5,1.2-1.3,2.1-2.3,3c-1,0.8-2.3,1.5-3.8,2c-1.5,0.5-3.3,0.7-5.3,0.7c-1.6,0-3.2-0.2-4.7-0.6
		c-1.5-0.4-2.9-1-4-1.9c-1.2-0.9-2.1-1.9-2.8-3.3c-0.7-1.3-1-2.9-1-4.7h6.3C210.7,276.8,210.8,277.6,211.2,278.3z"/>
</g>
<g>
	<path class="st0" d="M38.9,308c-0.9,0-1.7,0.2-2.3,0.6c-0.6,0.4-1.1,1-1.5,1.6c-0.4,0.7-0.7,1.4-0.8,2.2c-0.2,0.8-0.2,1.6-0.2,2.4
		c0,0.8,0.1,1.6,0.2,2.3c0.2,0.8,0.4,1.5,0.8,2.2c0.4,0.6,0.9,1.2,1.5,1.6c0.6,0.4,1.4,0.6,2.3,0.6c1.4,0,2.5-0.4,3.2-1.2
		c0.8-0.8,1.2-1.8,1.4-3.2h5.6c-0.4,2.8-1.5,5-3.3,6.5c-1.8,1.5-4.1,2.2-7,2.2c-1.6,0-3.1-0.3-4.4-0.8c-1.3-0.5-2.5-1.3-3.4-2.2
		s-1.7-2.1-2.2-3.4c-0.5-1.3-0.8-2.8-0.8-4.4c0-1.6,0.2-3.2,0.7-4.6c0.5-1.4,1.2-2.6,2.1-3.7s2.1-1.8,3.4-2.4
		c1.3-0.6,2.9-0.9,4.6-0.9c1.3,0,2.5,0.2,3.6,0.5c1.2,0.3,2.2,0.8,3.1,1.5c0.9,0.7,1.7,1.5,2.2,2.5c0.6,1,0.9,2.2,1,3.6h-5.7
		C42.8,309.2,41.4,308,38.9,308z"/>
	<path class="st0" d="M52.1,310.7c0.1-1.4,0.4-2.5,1-3.4c0.6-0.9,1.4-1.6,2.3-2.2c0.9-0.5,2-0.9,3.1-1.2c1.2-0.2,2.3-0.3,3.5-0.3
		c1.1,0,2.2,0.1,3.3,0.2c1.1,0.2,2.1,0.4,3,0.9c0.9,0.4,1.6,1.1,2.2,1.8s0.9,1.8,0.9,3.1v11.1c0,1,0.1,1.9,0.2,2.8
		c0.1,0.9,0.3,1.5,0.6,2h-5.9c-0.1-0.3-0.2-0.7-0.3-1c-0.1-0.3-0.1-0.7-0.1-1c-0.9,1-2,1.6-3.3,2c-1.3,0.4-2.6,0.6-3.9,0.6
		c-1,0-2-0.1-2.8-0.4c-0.9-0.2-1.6-0.6-2.3-1.2c-0.7-0.5-1.2-1.2-1.5-2c-0.4-0.8-0.6-1.7-0.6-2.8c0-1.2,0.2-2.2,0.6-3
		c0.4-0.8,1-1.4,1.6-1.9c0.7-0.5,1.4-0.8,2.3-1s1.7-0.4,2.6-0.6c0.9-0.1,1.7-0.2,2.6-0.3c0.9-0.1,1.6-0.2,2.3-0.4
		c0.7-0.2,1.2-0.4,1.6-0.7c0.4-0.3,0.6-0.8,0.5-1.4c0-0.6-0.1-1.1-0.3-1.5c-0.2-0.4-0.5-0.7-0.8-0.9c-0.3-0.2-0.7-0.3-1.2-0.4
		c-0.5-0.1-0.9-0.1-1.5-0.1c-1.2,0-2.1,0.2-2.7,0.7c-0.7,0.5-1,1.3-1.2,2.5H52.1z M65.6,315c-0.2,0.2-0.6,0.4-0.9,0.5
		c-0.4,0.1-0.8,0.2-1.2,0.3c-0.4,0.1-0.9,0.2-1.3,0.2c-0.5,0.1-0.9,0.1-1.4,0.2c-0.4,0.1-0.9,0.2-1.3,0.3c-0.4,0.1-0.8,0.3-1.1,0.6
		c-0.3,0.2-0.6,0.5-0.8,0.9c-0.2,0.4-0.3,0.8-0.3,1.4c0,0.5,0.1,1,0.3,1.3c0.2,0.4,0.5,0.6,0.8,0.8c0.3,0.2,0.7,0.4,1.2,0.4
		c0.4,0.1,0.9,0.1,1.4,0.1c1.2,0,2-0.2,2.7-0.6c0.6-0.4,1.1-0.8,1.4-1.4c0.3-0.5,0.5-1.1,0.6-1.6c0.1-0.5,0.1-1,0.1-1.3V315z"/>
	<path class="st0" d="M81.6,304.1v3h0.1c0.7-1.2,1.7-2.1,2.9-2.7c1.2-0.6,2.4-0.8,3.6-0.8c1.6,0,2.8,0.2,3.9,0.6
		c1,0.4,1.8,1,2.4,1.8c0.6,0.8,1,1.7,1.2,2.8c0.2,1.1,0.4,2.3,0.4,3.6v13.1h-5.8v-12c0-1.8-0.3-3.1-0.8-3.9
		c-0.5-0.9-1.5-1.3-2.9-1.3c-1.6,0-2.7,0.5-3.5,1.4c-0.7,0.9-1.1,2.5-1.1,4.7v11.2H76v-21.3H81.6z"/>
</g>
<g>
	<path class="st0" d="M33.7,360c0.3,0.5,0.6,0.8,1,1.1c0.4,0.3,0.9,0.5,1.4,0.6s1.1,0.2,1.7,0.2c0.4,0,0.8,0,1.3-0.1
		c0.5-0.1,0.9-0.2,1.2-0.5s0.7-0.5,0.9-0.8c0.2-0.3,0.4-0.8,0.4-1.3c0-0.9-0.6-1.5-1.8-2c-1.2-0.4-2.8-0.9-4.9-1.3
		c-0.9-0.2-1.7-0.4-2.5-0.7c-0.8-0.3-1.5-0.6-2.2-1c-0.6-0.4-1.1-1-1.5-1.6c-0.4-0.6-0.6-1.4-0.6-2.4c0-1.4,0.3-2.5,0.8-3.4
		c0.5-0.9,1.2-1.6,2.1-2.1c0.9-0.5,1.9-0.9,3-1.1c1.1-0.2,2.2-0.3,3.4-0.3c1.2,0,2.3,0.1,3.4,0.3c1.1,0.2,2.1,0.6,2.9,1.1
		c0.9,0.5,1.6,1.2,2.1,2.1c0.6,0.9,0.9,2,1,3.3h-5.6c-0.1-1.1-0.5-1.9-1.3-2.3c-0.8-0.4-1.7-0.6-2.7-0.6c-0.3,0-0.7,0-1.1,0.1
		c-0.4,0-0.7,0.1-1,0.3c-0.3,0.1-0.6,0.3-0.8,0.6c-0.2,0.3-0.3,0.6-0.3,1.1c0,0.5,0.2,0.9,0.6,1.3c0.4,0.3,0.9,0.6,1.5,0.8
		s1.3,0.4,2.1,0.6c0.8,0.2,1.6,0.3,2.4,0.5c0.9,0.2,1.7,0.4,2.5,0.7c0.8,0.3,1.5,0.6,2.2,1.1c0.6,0.5,1.1,1,1.5,1.7
		c0.4,0.7,0.6,1.5,0.6,2.5c0,1.4-0.3,2.6-0.8,3.5c-0.6,0.9-1.3,1.7-2.2,2.3s-1.9,1-3.1,1.2c-1.2,0.2-2.4,0.3-3.6,0.3
		c-1.2,0-2.4-0.1-3.6-0.4c-1.2-0.2-2.2-0.7-3.1-1.2c-0.9-0.6-1.7-1.3-2.3-2.3c-0.6-0.9-0.9-2.1-1-3.6h5.6
		C33.3,359,33.4,359.6,33.7,360z"/>
	<path class="st0" d="M51,350c0.5-1.4,1.3-2.6,2.2-3.5c1-1,2.1-1.7,3.5-2.3c1.3-0.5,2.9-0.8,4.5-0.8c1.7,0,3.2,0.3,4.6,0.8
		s2.5,1.3,3.5,2.3c1,1,1.7,2.2,2.2,3.5c0.5,1.4,0.8,2.9,0.8,4.6c0,1.7-0.3,3.2-0.8,4.6c-0.5,1.4-1.3,2.5-2.2,3.5
		c-1,1-2.1,1.7-3.5,2.2s-2.9,0.8-4.6,0.8c-1.7,0-3.2-0.3-4.5-0.8c-1.3-0.5-2.5-1.3-3.5-2.2c-1-1-1.7-2.1-2.2-3.5
		c-0.5-1.4-0.8-2.9-0.8-4.6C50.2,353,50.4,351.4,51,350z M56.3,357.2c0.2,0.8,0.4,1.5,0.8,2.2c0.4,0.6,0.9,1.2,1.6,1.5
		c0.7,0.4,1.5,0.6,2.5,0.6s1.8-0.2,2.5-0.6c0.7-0.4,1.2-0.9,1.6-1.5c0.4-0.6,0.7-1.4,0.8-2.2c0.2-0.8,0.2-1.6,0.2-2.5
		c0-0.9-0.1-1.7-0.2-2.5s-0.4-1.6-0.8-2.2c-0.4-0.6-0.9-1.1-1.6-1.5c-0.7-0.4-1.5-0.6-2.5-0.6s-1.8,0.2-2.5,0.6
		c-0.7,0.4-1.2,0.9-1.6,1.5c-0.4,0.6-0.7,1.4-0.8,2.2c-0.2,0.8-0.2,1.7-0.2,2.5C56,355.5,56.1,356.4,56.3,357.2z"/>
	<path class="st0" d="M81.7,344v2.9h0.1c0.8-1.1,1.7-1.9,2.8-2.6c1.1-0.6,2.3-0.9,3.7-0.9c1.3,0,2.6,0.3,3.7,0.8
		c1.1,0.5,2,1.4,2.5,2.8c0.6-0.9,1.5-1.8,2.6-2.5c1.1-0.7,2.4-1.1,3.9-1.1c1.1,0,2.2,0.1,3.1,0.4c1,0.3,1.8,0.7,2.5,1.3
		c0.7,0.6,1.2,1.4,1.6,2.4c0.4,1,0.6,2.1,0.6,3.5v14.2h-5.8v-12.1c0-0.7,0-1.4-0.1-2c-0.1-0.6-0.2-1.2-0.5-1.6s-0.6-0.8-1.1-1.1
		c-0.5-0.3-1.1-0.4-2-0.4c-0.8,0-1.5,0.2-2,0.5c-0.5,0.3-0.9,0.7-1.2,1.2c-0.3,0.5-0.5,1.1-0.6,1.7c-0.1,0.6-0.1,1.3-0.1,2v11.9
		h-5.8v-11.9c0-0.6,0-1.3,0-1.9c0-0.6-0.1-1.2-0.3-1.7c-0.2-0.5-0.5-0.9-1-1.3c-0.5-0.3-1.2-0.5-2.1-0.5c-0.3,0-0.6,0.1-1.1,0.2
		c-0.5,0.1-0.9,0.4-1.3,0.7c-0.4,0.3-0.8,0.8-1.1,1.5c-0.3,0.6-0.5,1.5-0.5,2.5v12.4h-5.8V344H81.7z"/>
	<path class="st0" d="M119.6,360.2c0.9,0.9,2.1,1.3,3.8,1.3c1.2,0,2.2-0.3,3-0.9c0.9-0.6,1.4-1.2,1.6-1.9h5.1
		c-0.8,2.6-2.1,4.4-3.8,5.5c-1.7,1.1-3.8,1.6-6.2,1.6c-1.7,0-3.2-0.3-4.5-0.8c-1.3-0.5-2.5-1.3-3.4-2.3c-0.9-1-1.7-2.2-2.2-3.5
		c-0.5-1.4-0.8-2.9-0.8-4.5c0-1.6,0.3-3.1,0.8-4.4c0.5-1.4,1.3-2.6,2.2-3.6c1-1,2.1-1.8,3.4-2.4c1.3-0.6,2.8-0.9,4.4-0.9
		c1.8,0,3.4,0.3,4.7,1c1.3,0.7,2.5,1.6,3.3,2.8c0.9,1.2,1.5,2.5,1.9,4c0.4,1.5,0.5,3.1,0.4,4.7h-15.4
		C118.2,358,118.7,359.3,119.6,360.2z M126.2,349c-0.7-0.8-1.8-1.2-3.2-1.2c-0.9,0-1.7,0.2-2.3,0.5s-1.1,0.7-1.5,1.2
		c-0.4,0.5-0.6,1-0.8,1.5c-0.2,0.5-0.2,1-0.3,1.4h9.5C127.4,350.9,126.9,349.8,126.2,349z"/>
	<path class="st0" d="M148.6,344v3.9h-4.3v10.5c0,1,0.2,1.6,0.5,2c0.3,0.3,1,0.5,2,0.5c0.3,0,0.6,0,0.9,0c0.3,0,0.6-0.1,0.9-0.1v4.5
		c-0.5,0.1-1,0.1-1.6,0.2c-0.6,0-1.2,0-1.8,0c-0.9,0-1.8-0.1-2.6-0.2c-0.8-0.1-1.5-0.4-2.1-0.7c-0.6-0.4-1.1-0.9-1.5-1.5
		s-0.5-1.5-0.5-2.6v-12.6H135V344h3.5v-6.4h5.8v6.4H148.6z"/>
	<path class="st0" d="M151.6,340.7v-4.8h5.8v4.8H151.6z M157.5,344v21.3h-5.8V344H157.5z"/>
	<path class="st0" d="M167.7,344v2.9h0.1c0.8-1.1,1.7-1.9,2.8-2.6c1.1-0.6,2.3-0.9,3.7-0.9c1.3,0,2.6,0.3,3.7,0.8
		c1.1,0.5,2,1.4,2.5,2.8c0.6-0.9,1.5-1.8,2.6-2.5c1.1-0.7,2.4-1.1,3.8-1.1c1.1,0,2.2,0.1,3.1,0.4s1.8,0.7,2.5,1.3
		c0.7,0.6,1.2,1.4,1.6,2.4c0.4,1,0.6,2.1,0.6,3.5v14.2h-5.8v-12.1c0-0.7,0-1.4-0.1-2c-0.1-0.6-0.2-1.2-0.5-1.6s-0.6-0.8-1.1-1.1
		c-0.5-0.3-1.1-0.4-2-0.4c-0.8,0-1.5,0.2-2,0.5c-0.5,0.3-0.9,0.7-1.2,1.2c-0.3,0.5-0.5,1.1-0.6,1.7c-0.1,0.6-0.1,1.3-0.1,2v11.9
		h-5.8v-11.9c0-0.6,0-1.3,0-1.9c0-0.6-0.1-1.2-0.3-1.7c-0.2-0.5-0.5-0.9-1-1.3c-0.5-0.3-1.2-0.5-2.1-0.5c-0.3,0-0.6,0.1-1.1,0.2
		c-0.5,0.1-0.9,0.4-1.3,0.7c-0.4,0.3-0.8,0.8-1.1,1.5c-0.3,0.6-0.5,1.5-0.5,2.5v12.4h-5.8V344H167.7z"/>
	<path class="st0" d="M205.6,360.2c0.9,0.9,2.1,1.3,3.8,1.3c1.2,0,2.2-0.3,3-0.9c0.9-0.6,1.4-1.2,1.6-1.9h5.1
		c-0.8,2.6-2.1,4.4-3.8,5.5s-3.8,1.6-6.2,1.6c-1.7,0-3.2-0.3-4.5-0.8s-2.5-1.3-3.4-2.3c-0.9-1-1.7-2.2-2.2-3.5
		c-0.5-1.4-0.8-2.9-0.8-4.5c0-1.6,0.3-3.1,0.8-4.4c0.5-1.4,1.3-2.6,2.2-3.6s2.1-1.8,3.4-2.4c1.3-0.6,2.8-0.9,4.4-0.9
		c1.8,0,3.4,0.3,4.7,1c1.3,0.7,2.5,1.6,3.3,2.8c0.9,1.2,1.5,2.5,1.9,4c0.4,1.5,0.5,3.1,0.4,4.7h-15.4
		C204.3,358,204.8,359.3,205.6,360.2z M212.2,349c-0.7-0.8-1.8-1.2-3.2-1.2c-0.9,0-1.7,0.2-2.3,0.5c-0.6,0.3-1.1,0.7-1.5,1.2
		c-0.4,0.5-0.6,1-0.8,1.5c-0.2,0.5-0.2,1-0.3,1.4h9.5C213.4,350.9,212.9,349.8,212.2,349z"/>
	<path class="st0" d="M227.9,360c0.3,0.5,0.6,0.8,1,1.1c0.4,0.3,0.9,0.5,1.4,0.6c0.5,0.1,1.1,0.2,1.7,0.2c0.4,0,0.8,0,1.3-0.1
		c0.5-0.1,0.9-0.2,1.2-0.5c0.4-0.2,0.7-0.5,0.9-0.8c0.2-0.3,0.4-0.8,0.4-1.3c0-0.9-0.6-1.5-1.8-2c-1.2-0.4-2.8-0.9-4.9-1.3
		c-0.9-0.2-1.7-0.4-2.5-0.7c-0.8-0.3-1.5-0.6-2.2-1c-0.6-0.4-1.1-1-1.5-1.6c-0.4-0.6-0.6-1.4-0.6-2.4c0-1.4,0.3-2.5,0.8-3.4
		c0.5-0.9,1.2-1.6,2.1-2.1c0.9-0.5,1.9-0.9,3-1.1c1.1-0.2,2.2-0.3,3.4-0.3s2.3,0.1,3.4,0.3c1.1,0.2,2.1,0.6,2.9,1.1s1.6,1.2,2.1,2.1
		c0.6,0.9,0.9,2,1,3.3h-5.6c-0.1-1.1-0.5-1.9-1.3-2.3c-0.8-0.4-1.7-0.6-2.7-0.6c-0.3,0-0.7,0-1.1,0.1c-0.4,0-0.7,0.1-1,0.3
		c-0.3,0.1-0.6,0.3-0.8,0.6c-0.2,0.3-0.3,0.6-0.3,1.1c0,0.5,0.2,0.9,0.6,1.3c0.4,0.3,0.9,0.6,1.5,0.8c0.6,0.2,1.3,0.4,2.1,0.6
		c0.8,0.2,1.6,0.3,2.4,0.5c0.9,0.2,1.7,0.4,2.5,0.7c0.8,0.3,1.5,0.6,2.2,1.1c0.6,0.5,1.1,1,1.5,1.7c0.4,0.7,0.6,1.5,0.6,2.5
		c0,1.4-0.3,2.6-0.8,3.5c-0.6,0.9-1.3,1.7-2.2,2.3s-1.9,1-3.1,1.2c-1.2,0.2-2.4,0.3-3.6,0.3c-1.2,0-2.4-0.1-3.6-0.4
		c-1.2-0.2-2.2-0.7-3.2-1.2c-0.9-0.6-1.7-1.3-2.3-2.3c-0.6-0.9-0.9-2.1-1-3.6h5.6C227.5,359,227.7,359.6,227.9,360z"/>
</g>
<g>
	<path class="st0" d="M48.2,383.6c-0.4-0.6-0.9-1.2-1.4-1.6c-0.6-0.5-1.2-0.8-2-1.1c-0.7-0.3-1.5-0.4-2.3-0.4
		c-1.5,0-2.7,0.3-3.7,0.8c-1,0.6-1.8,1.3-2.5,2.3c-0.6,0.9-1.1,2-1.4,3.2c-0.3,1.2-0.4,2.5-0.4,3.7c0,1.2,0.1,2.4,0.4,3.6
		s0.7,2.2,1.4,3.1c0.6,0.9,1.5,1.7,2.5,2.2c1,0.6,2.3,0.8,3.7,0.8c2,0,3.5-0.6,4.6-1.8s1.8-2.8,2-4.8h6.3c-0.2,1.8-0.6,3.5-1.3,5
		c-0.7,1.5-1.6,2.7-2.7,3.8c-1.1,1-2.4,1.8-4,2.4c-1.5,0.5-3.2,0.8-5,0.8c-2.3,0-4.3-0.4-6.1-1.2c-1.8-0.8-3.3-1.9-4.6-3.2
		c-1.2-1.4-2.2-3-2.8-4.8c-0.7-1.9-1-3.8-1-6c0-2.2,0.3-4.2,1-6.1c0.7-1.9,1.6-3.5,2.8-4.9c1.2-1.4,2.8-2.5,4.6-3.3
		c1.8-0.8,3.8-1.2,6.1-1.2c1.6,0,3.1,0.2,4.6,0.7s2.7,1.1,3.9,2c1.1,0.9,2.1,2,2.8,3.3s1.2,2.8,1.4,4.5H49
		C48.8,384.9,48.6,384.2,48.2,383.6z"/>
	<path class="st0" d="M66.3,375.8V387h11.9v-11.3h6.5v29.4h-6.5v-12.7H66.3v12.7h-6.5v-29.4H66.3z"/>
	<path class="st0" d="M105,375.8l11,29.4h-6.7l-2.2-6.5h-11l-2.3,6.5h-6.5l11.1-29.4H105z M105.4,393.8l-3.7-10.8h-0.1l-3.8,10.8
		H105.4z"/>
	<path class="st0" d="M125,375.8l12.3,19.7h0.1v-19.7h6.1v29.4h-6.5l-12.2-19.7h-0.1v19.7h-6.1v-29.4H125z"/>
	<path class="st0" d="M166.5,404.9c-1.4,0.6-2.8,0.9-4.2,0.9c-2.3,0-4.3-0.4-6.1-1.2s-3.3-1.9-4.5-3.2c-1.2-1.4-2.2-3-2.8-4.8
		c-0.7-1.9-1-3.8-1-6c0-2.2,0.3-4.2,1-6.1c0.7-1.9,1.6-3.5,2.8-4.9c1.2-1.4,2.8-2.5,4.5-3.3s3.8-1.2,6.1-1.2c1.5,0,3,0.2,4.4,0.7
		c1.4,0.5,2.7,1.1,3.8,2c1.1,0.9,2.1,2,2.8,3.3s1.2,2.8,1.4,4.4h-6.2c-0.4-1.6-1.1-2.9-2.2-3.7c-1.1-0.8-2.4-1.2-4-1.2
		c-1.5,0-2.7,0.3-3.7,0.8c-1,0.6-1.8,1.3-2.5,2.3c-0.6,0.9-1.1,2-1.4,3.2c-0.3,1.2-0.4,2.5-0.4,3.7c0,1.2,0.1,2.4,0.4,3.6
		s0.7,2.2,1.4,3.1c0.6,0.9,1.5,1.7,2.5,2.2c1,0.6,2.2,0.8,3.7,0.8c2.1,0,3.8-0.5,5-1.6c1.2-1.1,1.8-2.7,2-4.7h-6.5v-4.8h12.4v15.9
		H171l-0.7-3.3C169.2,403.3,167.9,404.3,166.5,404.9z"/>
	<path class="st0" d="M202.3,375.8v5.4h-15.5v6.3h14.2v5h-14.2v7.2h15.9v5.4h-22.3v-29.4H202.3z"/>
</g>
</svg>
