<?xml version="1.0" encoding="utf-8"?>
<!-- Generator: Adobe Illustrator 25.4.1, SVG Export Plug-In . SVG Version: 6.00 Build 0)  -->
<svg version="1.1" id="Layer_1" xmlns="http://www.w3.org/2000/svg" xmlns:xlink="http://www.w3.org/1999/xlink" x="0px" y="0px"
	 viewBox="0 0 300 600" style="enable-background:new 0 0 300 600;" xml:space="preserve">
<style type="text/css">
	.st0{clip-path:url(#SVGID_00000127034462948185496270000012152085848496811687_);fill:#349946;}
	.st1{fill:#FFFFFF;}
</style>
<g>
	<defs>
		<rect id="SVGID_1_" x="42.3" y="393.1" width="213.6" height="45"/>
	</defs>
	<clipPath id="SVGID_00000148637122835594589410000012302998894835836855_">
		<use xlink:href="#SVGID_1_"  style="overflow:visible;"/>
	</clipPath>
	<path style="clip-path:url(#SVGID_00000148637122835594589410000012302998894835836855_);fill:#349946;" d="M255.9,415.6
		c0,12.4-11.6,22.5-25.9,22.5H68.2c-14.2,0-25.9-10.1-25.9-22.5s11.6-22.5,25.9-22.5H230C244.3,393.1,255.9,403.2,255.9,415.6"/>
</g>
<g>
	<path class="st1" d="M84.3,408.9c0.6,0,1.2,0.1,1.7,0.3s1,0.5,1.3,0.9c0.4,0.4,0.7,0.8,0.8,1.3s0.3,1,0.3,1.5
		c0,0.8-0.2,1.6-0.5,2.2c-0.4,0.6-0.9,1.1-1.7,1.4v0c0.4,0.1,0.7,0.3,1,0.5c0.3,0.2,0.5,0.5,0.6,0.8c0.2,0.3,0.3,0.6,0.4,1
		c0.1,0.4,0.1,0.7,0.2,1.1c0,0.2,0,0.5,0,0.8c0,0.3,0,0.6,0.1,0.9c0,0.3,0.1,0.6,0.2,0.9c0.1,0.3,0.2,0.5,0.3,0.7h-3.2
		c-0.2-0.5-0.3-1-0.3-1.6c0-0.6-0.1-1.2-0.2-1.8c-0.1-0.8-0.3-1.3-0.7-1.6c-0.3-0.3-0.9-0.5-1.7-0.5h-3.2v5.6h-3.2v-14.4H84.3z
		 M83.2,415.4c0.7,0,1.3-0.2,1.6-0.5c0.4-0.3,0.5-0.8,0.5-1.6c0-0.7-0.2-1.2-0.5-1.5c-0.4-0.3-0.9-0.5-1.6-0.5h-3.5v4H83.2z"/>
	<path class="st1" d="M101.8,408.9v2.7h-7.6v3.1h7v2.5h-7v3.5h7.7v2.7H91.1v-14.4H101.8z"/>
	<path class="st1" d="M111.3,408.9l5.4,14.4h-3.3l-1.1-3.2h-5.4l-1.1,3.2h-3.2l5.4-14.4H111.3z M111.4,417.7l-1.8-5.3h0l-1.9,5.3
		H111.4z"/>
	<path class="st1" d="M124.1,408.9c0.9,0,1.8,0.1,2.6,0.4s1.5,0.7,2.1,1.3c0.6,0.6,1,1.3,1.4,2.2c0.3,0.9,0.5,1.9,0.5,3.1
		c0,1-0.1,2-0.4,2.9c-0.3,0.9-0.7,1.6-1.2,2.3c-0.5,0.6-1.2,1.1-2,1.5c-0.8,0.4-1.8,0.6-2.9,0.6h-6.2v-14.4H124.1z M123.9,420.6
		c0.5,0,0.9-0.1,1.3-0.2c0.4-0.1,0.8-0.4,1.1-0.7c0.3-0.3,0.6-0.8,0.8-1.3c0.2-0.5,0.3-1.2,0.3-2c0-0.7-0.1-1.4-0.2-2
		c-0.1-0.6-0.4-1.1-0.7-1.5s-0.7-0.7-1.3-1c-0.5-0.2-1.2-0.3-2-0.3H121v9.1H123.9z"/>
	<path class="st1" d="M145.5,408.9l5.4,14.4h-3.3l-1.1-3.2h-5.4l-1.1,3.2h-3.2l5.4-14.4H145.5z M145.7,417.7l-1.8-5.3h0l-1.9,5.3
		H145.7z"/>
	<path class="st1" d="M159.9,408.9c0.6,0,1.2,0.1,1.7,0.3c0.5,0.2,1,0.5,1.3,0.9c0.4,0.4,0.7,0.8,0.8,1.3c0.2,0.5,0.3,1,0.3,1.5
		c0,0.8-0.2,1.6-0.5,2.2c-0.4,0.6-0.9,1.1-1.7,1.4v0c0.4,0.1,0.7,0.3,1,0.5c0.3,0.2,0.5,0.5,0.6,0.8s0.3,0.6,0.4,1s0.1,0.7,0.2,1.1
		c0,0.2,0,0.5,0,0.8s0,0.6,0.1,0.9c0,0.3,0.1,0.6,0.2,0.9c0.1,0.3,0.2,0.5,0.3,0.7h-3.2c-0.2-0.5-0.3-1-0.3-1.6
		c0-0.6-0.1-1.2-0.2-1.8c-0.1-0.8-0.3-1.3-0.7-1.6c-0.3-0.3-0.9-0.5-1.7-0.5h-3.2v5.6h-3.2v-14.4H159.9z M158.8,415.4
		c0.7,0,1.3-0.2,1.6-0.5c0.4-0.3,0.5-0.8,0.5-1.6c0-0.7-0.2-1.2-0.5-1.5c-0.4-0.3-0.9-0.5-1.6-0.5h-3.5v4H158.8z"/>
</g>
<g>
	<path class="st1" d="M165.2,411.6v-2.7H177v2.7h-4.3v11.7h-3.2v-11.7H165.2z"/>
	<path class="st1" d="M181.8,408.9v14.4h-3.2v-14.4H181.8z"/>
	<path class="st1" d="M193.8,412.7c-0.2-0.3-0.4-0.6-0.7-0.8c-0.3-0.2-0.6-0.4-1-0.5c-0.4-0.1-0.7-0.2-1.1-0.2
		c-0.7,0-1.3,0.1-1.8,0.4c-0.5,0.3-0.9,0.6-1.2,1.1c-0.3,0.5-0.5,1-0.7,1.6c-0.1,0.6-0.2,1.2-0.2,1.8c0,0.6,0.1,1.2,0.2,1.8
		c0.1,0.6,0.4,1.1,0.7,1.5c0.3,0.5,0.7,0.8,1.2,1.1c0.5,0.3,1.1,0.4,1.8,0.4c1,0,1.7-0.3,2.3-0.9s0.9-1.4,1-2.3h3.1
		c-0.1,0.9-0.3,1.7-0.6,2.4c-0.3,0.7-0.8,1.3-1.3,1.9c-0.6,0.5-1.2,0.9-1.9,1.2c-0.7,0.3-1.5,0.4-2.4,0.4c-1.1,0-2.1-0.2-3-0.6
		c-0.9-0.4-1.6-0.9-2.2-1.6c-0.6-0.7-1.1-1.5-1.4-2.4c-0.3-0.9-0.5-1.9-0.5-2.9c0-1.1,0.2-2.1,0.5-3c0.3-0.9,0.8-1.7,1.4-2.4
		c0.6-0.7,1.3-1.2,2.2-1.6s1.9-0.6,3-0.6c0.8,0,1.5,0.1,2.2,0.3c0.7,0.2,1.3,0.6,1.9,1c0.6,0.4,1,1,1.4,1.6c0.4,0.6,0.6,1.4,0.7,2.2
		h-3.1C194.1,413.4,193.9,413,193.8,412.7z"/>
	<path class="st1" d="M202.6,408.9v11.7h7v2.7h-10.2v-14.4H202.6z"/>
	<path class="st1" d="M222.1,408.9v2.7h-7.6v3.1h7v2.5h-7v3.5h7.7v2.7h-10.9v-14.4H222.1z"/>
</g>
</svg>
