<?xml version="1.0" encoding="utf-8"?>
<!-- Generator: Adobe Illustrator 25.4.1, SVG Export Plug-In . SVG Version: 6.00 Build 0)  -->
<svg version="1.1" id="Layer_1" xmlns="http://www.w3.org/2000/svg" xmlns:xlink="http://www.w3.org/1999/xlink" x="0px" y="0px"
	 viewBox="0 0 300 600" style="enable-background:new 0 0 300 600;" xml:space="preserve">
<style type="text/css">
	.st0{fill:#349946;}
	.st1{fill:#231F20;}
	.st2{fill:none;}
</style>
<path class="st0" d="M36,527h-2.8l-0.9-2.7h-5.6l-0.9,2.7h-2.9l5-13.2h2.1c0.7,0,1.2,0.2,1.3,0.7c0.2,0.5,2.5,6.4,2.5,6.4H31
	l-1.6-4.5l-2,5.6h5.7c0.8,0,1.2,0.2,1.4,0.9L36,527z"/>
<path class="st0" d="M61,527h-2.8l-0.9-2.7h-5.7l-0.9,2.7h-2.9l5-13.2h2.1c0.7,0,1.2,0.2,1.3,0.7c0.2,0.5,2.5,6.4,2.5,6.4H56
	l-1.6-4.5l-2,5.6H58c0.8,0,1.2,0.2,1.4,0.9L61,527z"/>
<path class="st0" d="M36.9,513.8h5.2c4,0,6,2.1,6,6.6c0,2.5-0.8,4.3-2.1,5.4c-1.3,1-2.7,1.2-4.6,1.2h-4.4V513.8z M41.8,524.7
	c2.5,0,3.6-1.2,3.6-4.2c0-2.9-1-4.3-3.3-4.3h-2.5v8.5H41.8z"/>
<g>
	<path class="st1" d="M83.4,526.9h-2.1l-0.9-9.4l-3.2,9.4h-1.8l-3.3-9.4l-0.8,9.4h-1.9l1.2-12.5h2.4l3.4,9.6l3.3-9.6h2.4L83.4,526.9
		z"/>
	<path class="st1" d="M93.6,522.2c0,0.1,0,0.3,0,0.4c0,0.2,0,0.3,0,0.3h-6.2c0,0.7,0.2,1.2,0.6,1.7c0.5,0.6,1.1,0.8,2,0.8
		c0.8,0,1.6-0.2,2.5-0.7l0.7,1.3c-0.9,0.7-2.1,1-3.4,1c-1.4,0-2.5-0.5-3.3-1.4c-0.8-0.9-1.2-2-1.2-3.4c0-1.4,0.4-2.6,1.2-3.5
		c0.8-0.9,1.8-1.4,3.1-1.4c1.2,0,2.2,0.4,2.9,1.3C93.3,519.6,93.6,520.8,93.6,522.2z M91.7,521.4c0-0.6-0.1-1-0.4-1.5
		c-0.4-0.6-0.9-0.9-1.6-0.9c-0.6,0-1.2,0.2-1.6,0.6c-0.4,0.4-0.7,1-0.8,1.7H91.7z"/>
	<path class="st1" d="M108.6,526.9h-2.1v-5.2c0-1-0.1-1.7-0.4-2s-0.6-0.5-1.1-0.5c-0.6,0-1.3,0.2-2,0.7c0.1,0.2,0.1,0.9,0.1,2.1v4.9
		h-2v-5c0-1.2-0.1-1.9-0.4-2.2c-0.2-0.2-0.6-0.4-1-0.4c-0.7,0-1.3,0.2-2,0.6v7h-2.1v-9.1h1.8v0.7c0.8-0.6,1.7-0.9,2.7-0.9
		c0.9,0,1.7,0.3,2.2,1c1-0.7,2.1-1,3-1c1,0,1.7,0.3,2.3,0.8c0.4,0.4,0.7,1,0.9,1.7c0.1,0.4,0.1,1.2,0.1,2.3V526.9z"/>
	<path class="st1" d="M119.3,522.2c0,1.5-0.4,2.7-1.3,3.6s-2,1.4-3.5,1.4c-1,0-2.2-0.2-3.6-0.7v-13.1h2.1v4.8
		c0.7-0.5,1.5-0.7,2.3-0.7c1.2,0,2.1,0.4,2.9,1.3C118.9,519.6,119.3,520.7,119.3,522.2z M117.2,522.2c0-0.9-0.2-1.7-0.7-2.2
		c-0.4-0.5-1-0.8-1.6-0.8c-0.6,0-1.3,0.2-1.9,0.7v5.4c0.5,0.2,1,0.2,1.5,0.2c0.8,0,1.5-0.3,2-0.9S117.2,523.2,117.2,522.2z"/>
	<path class="st1" d="M129.1,522.2c0,0.1,0,0.3,0,0.4c0,0.2,0,0.3,0,0.3h-6.2c0,0.7,0.2,1.2,0.6,1.7c0.5,0.6,1.1,0.8,2,0.8
		c0.8,0,1.6-0.2,2.5-0.7l0.7,1.3c-0.9,0.7-2.1,1-3.4,1c-1.4,0-2.5-0.5-3.3-1.4c-0.8-0.9-1.2-2-1.2-3.4c0-1.4,0.4-2.6,1.2-3.5
		c0.8-0.9,1.8-1.4,3.1-1.4c1.2,0,2.2,0.4,2.9,1.3C128.7,519.6,129.1,520.8,129.1,522.2z M127.1,521.4c0-0.6-0.1-1-0.4-1.5
		c-0.4-0.6-0.9-0.9-1.6-0.9c-0.6,0-1.2,0.2-1.6,0.6c-0.4,0.4-0.7,1-0.8,1.7H127.1z"/>
	<path class="st1" d="M136.8,517.7l-0.5,1.6c-0.2,0-0.4-0.1-0.6-0.1c-1.1,0-2,0.5-2.6,1.4v6.3H131v-9.1h1.8v1.2
		c0.1-0.2,0.4-0.5,0.8-0.8c0.7-0.4,1.4-0.7,2.2-0.7C136.2,517.5,136.5,517.6,136.8,517.7z"/>
</g>
<g>
	<path class="st1" d="M144.4,524.3c0,0.9-0.3,1.6-1,2.1c-0.6,0.5-1.5,0.8-2.5,0.8c-0.8,0-1.6-0.2-2.4-0.5c-0.5-0.2-0.8-0.4-1-0.5
		l0.7-1.3c0.9,0.5,1.7,0.7,2.4,0.7c0.5,0,0.9-0.1,1.2-0.3c0.3-0.2,0.4-0.5,0.4-0.8s-0.2-0.6-0.5-0.8c-0.2-0.1-0.6-0.3-1.4-0.7
		c-0.7-0.3-1.3-0.6-1.6-0.9c-0.6-0.5-0.8-1.1-0.8-1.8c0-0.8,0.3-1.5,0.9-2c0.6-0.5,1.4-0.8,2.5-0.8c1.3,0,2.3,0.3,3,0.8l-0.7,1.3
		c-0.7-0.4-1.4-0.6-2.1-0.6c-1,0-1.5,0.3-1.5,1c0,0.3,0.2,0.6,0.5,0.8c0.2,0.1,0.6,0.3,1.2,0.6c0.9,0.4,1.5,0.7,1.9,1
		C144.1,522.9,144.4,523.5,144.4,524.3z"/>
	<path class="st1" d="M153.4,526.9h-2.2v-12.5h2.2V526.9z"/>
	<path class="st1" d="M163.7,526.9h-2.1v-5c0-1.2-0.1-2-0.4-2.2c-0.3-0.3-0.7-0.4-1.2-0.4c-0.6,0-1.3,0.2-2,0.7v7H156v-9.1h1.8v0.7
		c0.9-0.6,1.8-0.9,2.7-0.9c1,0,1.7,0.3,2.3,0.8c0.4,0.4,0.7,1,0.8,1.6c0.1,0.4,0.1,1,0.1,1.9V526.9z"/>
	<path class="st1" d="M172.2,524.3c0,0.9-0.3,1.6-1,2.1c-0.7,0.5-1.5,0.8-2.5,0.8c-0.8,0-1.6-0.2-2.4-0.5c-0.5-0.2-0.8-0.4-1-0.5
		l0.7-1.3c0.9,0.5,1.7,0.7,2.4,0.7c0.5,0,0.9-0.1,1.2-0.3c0.3-0.2,0.4-0.5,0.4-0.8s-0.2-0.6-0.5-0.8c-0.2-0.1-0.6-0.3-1.4-0.7
		c-0.7-0.3-1.3-0.6-1.6-0.9c-0.5-0.5-0.8-1.1-0.8-1.8c0-0.8,0.3-1.5,0.9-2c0.6-0.5,1.4-0.8,2.5-0.8c1.3,0,2.3,0.3,3,0.8l-0.7,1.3
		c-0.7-0.4-1.4-0.6-2.1-0.6c-1,0-1.5,0.3-1.5,1c0,0.3,0.2,0.6,0.5,0.8c0.2,0.1,0.6,0.3,1.2,0.6c0.9,0.4,1.5,0.7,1.9,1
		C171.9,522.9,172.2,523.5,172.2,524.3z"/>
	<path class="st1" d="M181.9,526.9h-1.8v-0.7c-0.8,0.6-1.7,0.9-2.7,0.9c-1,0-1.7-0.3-2.3-0.8c-0.4-0.4-0.7-1-0.8-1.6
		c-0.1-0.4-0.1-1-0.1-1.9v-5.1h2.1v5c0,0.6,0,1,0,1.2c0.1,0.5,0.2,0.9,0.5,1.1c0.3,0.2,0.6,0.3,1.1,0.3c0.5,0,1.2-0.2,2-0.7v-7h2.1
		V526.9z"/>
	<path class="st1" d="M190.1,517.7l-0.5,1.6c-0.2,0-0.4-0.1-0.6-0.1c-1.1,0-2,0.5-2.6,1.4v6.3h-2.1v-9.1h1.8v1.2
		c0.1-0.2,0.4-0.5,0.8-0.8c0.7-0.4,1.4-0.7,2.2-0.7C189.5,517.5,189.8,517.6,190.1,517.7z"/>
</g>
<g>
	<path class="st1" d="M198.2,526.9h-1.8v-0.7c-0.9,0.6-1.8,0.9-2.7,0.9c-0.9,0-1.6-0.3-2.1-0.8c-0.5-0.5-0.8-1.2-0.8-2.1
		c0-2.1,1.7-3.2,5.2-3.2h0.3v-0.4c0-0.6-0.1-0.9-0.3-1.1c-0.3-0.3-0.8-0.4-1.5-0.4c-0.8,0-1.6,0.2-2.5,0.7l-0.7-1.3
		c0.2-0.2,0.5-0.4,1-0.5c0.7-0.3,1.5-0.5,2.4-0.5c1.2,0,2.2,0.3,2.8,1c0.3,0.3,0.5,0.7,0.6,1.2c0.1,0.3,0.1,0.9,0.1,1.6V526.9z
		 M196.2,524.9v-2.4h-0.4c-1.4,0-2.4,0.2-2.9,0.7c-0.2,0.2-0.4,0.6-0.4,0.9c0,0.5,0.2,0.8,0.5,1c0.3,0.2,0.7,0.4,1.2,0.4
		C194.8,525.5,195.5,525.3,196.2,524.9z"/>
	<path class="st1" d="M208.2,526.9h-2.1v-5c0-1.2-0.1-2-0.4-2.2c-0.3-0.3-0.7-0.4-1.2-0.4c-0.6,0-1.3,0.2-2,0.7v7h-2.1v-9.1h1.8v0.7
		c0.9-0.6,1.8-0.9,2.7-0.9c1,0,1.7,0.3,2.3,0.8c0.4,0.4,0.7,1,0.8,1.6c0.1,0.4,0.1,1,0.1,1.9V526.9z"/>
	<path class="st1" d="M217.9,526.1c-0.1,0.2-0.5,0.3-0.9,0.6c-0.8,0.3-1.6,0.5-2.4,0.5c-1.4,0-2.5-0.4-3.3-1.3
		c-0.8-0.9-1.3-2-1.3-3.4c0-1.4,0.5-2.6,1.3-3.6c0.9-0.9,2-1.4,3.4-1.4c0.8,0,1.5,0.2,2.2,0.5c0.5,0.2,0.7,0.4,0.9,0.6l-0.8,1.3
		c-0.6-0.4-1.3-0.6-2.1-0.6c-0.9,0-1.5,0.3-2.1,1c-0.5,0.6-0.7,1.3-0.7,2.1c0,0.9,0.2,1.7,0.7,2.2s1.1,0.9,2,0.9
		c0.7,0,1.5-0.2,2.3-0.7L217.9,526.1z"/>
</g>
<g>
	<path class="st1" d="M227.1,522.2c0,0.1,0,0.3,0,0.4c0,0.2,0,0.3,0,0.3h-6.2c0,0.7,0.2,1.2,0.6,1.7c0.5,0.6,1.1,0.8,2,0.8
		c0.8,0,1.6-0.2,2.5-0.7l0.7,1.3c-0.9,0.7-2.1,1-3.4,1c-1.4,0-2.5-0.5-3.3-1.4c-0.8-0.9-1.2-2-1.2-3.4c0-1.4,0.4-2.6,1.2-3.5
		s1.8-1.4,3.1-1.4c1.2,0,2.2,0.4,2.9,1.3C226.8,519.6,227.1,520.8,227.1,522.2z M225.2,521.4c0-0.6-0.1-1-0.4-1.5
		c-0.3-0.6-0.9-0.9-1.6-0.9c-0.6,0-1.2,0.2-1.6,0.6c-0.4,0.4-0.7,1-0.8,1.7H225.2z"/>
	<path class="st1" d="M242.2,518.2c0,1.2-0.4,2.1-1.1,2.8c-0.5,0.5-1.2,0.9-1.9,1c-0.5,0.1-1.2,0.1-2.3,0.1h-0.9v4.8h-2.1v-12.5h3.3
		c1,0,1.8,0.1,2.3,0.2c0.7,0.2,1.3,0.5,1.8,0.9C241.8,516.2,242.2,517.1,242.2,518.2z M240,518.2c0-0.7-0.2-1.2-0.6-1.6
		c-0.3-0.3-1.1-0.5-2.3-0.5h-1.2v4.3h0.9c1.4,0,2.2-0.2,2.6-0.6C239.8,519.5,240,518.9,240,518.2z"/>
	<path class="st1" d="M246.4,526.9h-2.1v-13.6h2.1V526.9z"/>
	<path class="st1" d="M255.8,526.9H254v-0.7c-0.9,0.6-1.8,0.9-2.7,0.9c-0.9,0-1.6-0.3-2.1-0.8c-0.5-0.5-0.8-1.2-0.8-2.1
		c0-2.1,1.7-3.2,5.2-3.2h0.3v-0.4c0-0.6-0.1-0.9-0.3-1.1c-0.3-0.3-0.8-0.4-1.5-0.4c-0.8,0-1.6,0.2-2.5,0.7l-0.7-1.3
		c0.2-0.2,0.5-0.4,1-0.5c0.7-0.3,1.5-0.5,2.4-0.5c1.2,0,2.2,0.3,2.8,1c0.3,0.3,0.5,0.7,0.6,1.2c0.1,0.3,0.1,0.9,0.1,1.6V526.9z
		 M253.9,524.9v-2.4h-0.4c-1.4,0-2.4,0.2-2.9,0.7c-0.2,0.2-0.4,0.6-0.4,0.9c0,0.5,0.2,0.8,0.5,1c0.3,0.2,0.7,0.4,1.2,0.4
		C252.4,525.5,253.1,525.3,253.9,524.9z"/>
	<path class="st1" d="M265.8,526.9h-2.1v-5c0-1.2-0.1-2-0.4-2.2c-0.3-0.3-0.7-0.4-1.2-0.4c-0.6,0-1.3,0.2-2,0.7v7h-2.1v-9.1h1.8v0.7
		c0.9-0.6,1.8-0.9,2.7-0.9c1,0,1.7,0.3,2.3,0.8c0.4,0.4,0.7,1,0.8,1.6c0.1,0.4,0.1,1,0.1,1.9V526.9z"/>
	<path class="st1" d="M274.3,524.3c0,0.9-0.3,1.6-1,2.1c-0.7,0.5-1.5,0.8-2.5,0.8c-0.8,0-1.6-0.2-2.4-0.5c-0.5-0.2-0.8-0.4-1-0.5
		l0.7-1.3c0.9,0.5,1.7,0.7,2.4,0.7c0.5,0,0.9-0.1,1.2-0.3c0.3-0.2,0.4-0.5,0.4-0.8s-0.2-0.6-0.5-0.8c-0.2-0.1-0.6-0.3-1.4-0.7
		c-0.7-0.3-1.3-0.6-1.6-0.9c-0.5-0.5-0.8-1.1-0.8-1.8c0-0.8,0.3-1.5,0.9-2c0.6-0.5,1.4-0.8,2.5-0.8c1.3,0,2.3,0.3,3,0.8l-0.7,1.3
		c-0.7-0.4-1.4-0.6-2.1-0.6c-1,0-1.5,0.3-1.5,1c0,0.3,0.2,0.6,0.5,0.8c0.2,0.1,0.6,0.3,1.2,0.6c0.9,0.4,1.5,0.7,1.9,1
		C274,522.9,274.3,523.5,274.3,524.3z"/>
</g>
<path class="st0" d="M62.9,527.1c-0.9,0-1.6-0.7-1.6-1.6c0-0.9,0.7-1.6,1.6-1.6c0.9,0,1.6,0.7,1.6,1.6
	C64.4,526.4,63.7,527.1,62.9,527.1 M62.9,524.4c-0.7,0-1.2,0.5-1.2,1.2s0.5,1.2,1.2,1.2c0.7,0,1.2-0.5,1.2-1.2
	S63.5,524.4,62.9,524.4 M63.2,526.3l-0.2-0.4c-0.1-0.2-0.1-0.2-0.3-0.2h-0.1v0.6h-0.3v-1.6h0.4c0.2,0,0.4,0,0.5,0.1
	c0.1,0.1,0.2,0.2,0.2,0.4c0,0.2-0.1,0.3-0.3,0.4c0.1,0,0.1,0.1,0.2,0.2l0.3,0.6H63.2z M63,525c-0.1,0-0.2,0-0.2,0h-0.1v0.4
	c0.1,0,0.2,0,0.3,0s0.2-0.1,0.2-0.2C63.1,525.1,63.1,525,63,525"/>
<rect x="5.2" y="511.3" class="st2" width="281.6" height="21.5"/>
</svg>
