<?xml version="1.0" encoding="utf-8"?>
<!-- Generator: Adobe Illustrator 25.4.1, SVG Export Plug-In . SVG Version: 6.00 Build 0)  -->
<svg version="1.1" id="Layer_1" xmlns="http://www.w3.org/2000/svg" xmlns:xlink="http://www.w3.org/1999/xlink" x="0px" y="0px"
	 viewBox="0 0 300 600" style="enable-background:new 0 0 300 600;" xml:space="preserve">
<style type="text/css">
	.st0{clip-path:url(#SVGID_00000072990277817305375710000009671074608419794831_);fill:#231F20;}
	.st1{clip-path:url(#SVGID_00000072990277817305375710000009671074608419794831_);fill:#22B0E6;}
</style>
<g>
	<defs>
		<rect id="SVGID_1_" x="105.2" y="463.5" width="87.8" height="29.8"/>
	</defs>
	<clipPath id="SVGID_00000109015195458563834450000008322446750126948753_">
		<use xlink:href="#SVGID_1_"  style="overflow:visible;"/>
	</clipPath>
	<path style="clip-path:url(#SVGID_00000109015195458563834450000008322446750126948753_);fill:#231F20;" d="M105.8,479.6h4.7
		c3.7,0,4.5,2.4,4.5,4.1c0,1.6-0.7,4-4.5,4h-2.4v5h-2.3V479.6z M108.1,485.8h2.3c1,0,2.3-0.5,2.3-2.2c0-1.7-1-2.2-2.3-2.2h-2.3
		V485.8z"/>
	<path style="clip-path:url(#SVGID_00000109015195458563834450000008322446750126948753_);fill:#231F20;" d="M116.3,483.2h2v1.8h0
		c0.2-1,1.5-2.1,2.8-2.1c0.5,0,0.6,0,0.8,0.1v2c-0.3,0-0.6-0.1-0.9-0.1c-1.4,0-2.6,1.2-2.6,3.2v4.5h-2.1V483.2z"/>
	<path style="clip-path:url(#SVGID_00000109015195458563834450000008322446750126948753_);fill:#231F20;" d="M122.2,487.9
		c0-2.9,1.7-5,4.8-5c3,0,4.8,2.1,4.8,5c0,2.9-1.7,5-4.8,5C123.9,492.9,122.2,490.8,122.2,487.9 M129.6,487.9c0-1.6-0.8-3.3-2.7-3.3
		c-1.9,0-2.7,1.7-2.7,3.3c0,1.6,0.8,3.4,2.7,3.4C128.8,491.2,129.6,489.5,129.6,487.9"/>
	<path style="clip-path:url(#SVGID_00000109015195458563834450000008322446750126948753_);fill:#231F20;" d="M132,483.2h1.7v-2.8h2
		v2.8h1.9v1.6h-1.9v5.1c0,0.9,0.1,1.3,1,1.3c0.3,0,0.6,0,0.9-0.1v1.6c-0.5,0-0.9,0.1-1.4,0.1c-2.2,0-2.6-0.8-2.6-2.4v-5.6H132V483.2
		z"/>
	<path style="clip-path:url(#SVGID_00000109015195458563834450000008322446750126948753_);fill:#231F20;" d="M140.6,488.4
		c0,1.5,0.8,2.8,2.5,2.8c1.2,0,1.9-0.5,2.3-1.6h2c-0.5,2.1-2.2,3.2-4.3,3.2c-3,0-4.6-2.1-4.6-5c0-2.7,1.8-5,4.6-5
		c3,0,4.8,2.7,4.5,5.5H140.6z M145.4,487.1c-0.1-1.3-1-2.5-2.4-2.5c-1.4,0-2.4,1.1-2.5,2.5H145.4z"/>
	<path style="clip-path:url(#SVGID_00000109015195458563834450000008322446750126948753_);fill:#231F20;" d="M155.4,486.3
		c-0.2-1.2-1-1.8-2.2-1.8c-1.1,0-2.6,0.6-2.6,3.4c0,1.6,0.7,3.2,2.5,3.2c1.2,0,2.1-0.8,2.3-2.2h2.1c-0.4,2.5-1.9,3.8-4.3,3.8
		c-3,0-4.6-2.1-4.6-4.9c0-2.9,1.6-5.1,4.7-5.1c2.2,0,4.1,1.1,4.3,3.4H155.4z"/>
	<path style="clip-path:url(#SVGID_00000109015195458563834450000008322446750126948753_);fill:#231F20;" d="M158.1,483.2h1.6v-2.8
		h2.1v2.8h1.9v1.6h-1.9v5.1c0,0.9,0.1,1.3,1,1.3c0.3,0,0.6,0,0.9-0.1v1.6c-0.5,0-0.9,0.1-1.4,0.1c-2.2,0-2.6-0.8-2.6-2.4v-5.6h-1.6
		V483.2z"/>
	<path style="clip-path:url(#SVGID_00000109015195458563834450000008322446750126948753_);fill:#231F20;" d="M166,479.6h2.1v2H166
		V479.6z M166,483.2h2.1v9.5H166V483.2z"/>
	<polygon style="clip-path:url(#SVGID_00000109015195458563834450000008322446750126948753_);fill:#231F20;" points="169.6,483.2 
		171.9,483.2 174.8,490.4 174.9,490.4 177.7,483.2 179.9,483.2 175.9,492.6 173.6,492.6 	"/>
	<path style="clip-path:url(#SVGID_00000109015195458563834450000008322446750126948753_);fill:#231F20;" d="M182.5,488.4
		c0,1.5,0.8,2.8,2.5,2.8c1.2,0,1.9-0.5,2.3-1.6h2c-0.5,2.1-2.2,3.2-4.3,3.2c-3,0-4.6-2.1-4.6-5c0-2.7,1.8-5,4.6-5
		c3,0,4.8,2.7,4.5,5.5H182.5z M187.4,487.1c-0.1-1.3-1-2.5-2.4-2.5c-1.4,0-2.4,1.1-2.5,2.5H187.4z"/>
	<path style="clip-path:url(#SVGID_00000109015195458563834450000008322446750126948753_);fill:#22B0E6;" d="M162.1,477.4
		c-1.4-5.2-5.5-9.3-10.7-10.6c-0.5-1.6-2-2.8-3.7-2.8c-1.8,0-3.2,1.2-3.7,2.8c-5.2,1.3-9.3,5.4-10.7,10.6l-0.2,0.6h3.2l0.1-0.3
		c1.2-3.8,4.2-6.7,7.9-7.8c0.7,1.1,1.9,1.9,3.3,1.9c1.4,0,2.7-0.8,3.4-1.9c3.8,1.1,6.7,4,7.9,7.8l0.1,0.3h3.2L162.1,477.4z"/>
	<path style="clip-path:url(#SVGID_00000109015195458563834450000008322446750126948753_);fill:#231F20;" d="M191.6,491
		c0.5,0,0.9,0.4,0.9,0.9c0,0.5-0.4,0.9-0.9,0.9c-0.5,0-0.9-0.4-0.9-0.9C190.7,491.5,191.1,491,191.6,491 M192.4,492
		c0-0.4-0.3-0.8-0.8-0.8c-0.4,0-0.8,0.3-0.8,0.8c0,0.4,0.3,0.8,0.8,0.8C192.1,492.7,192.4,492.4,192.4,492 M191.3,491.4h0.4
		c0.2,0,0.4,0.1,0.4,0.3c0,0.2-0.1,0.3-0.3,0.3l0.3,0.5h-0.2l-0.3-0.5h-0.2v0.5h-0.2V491.4z M191.6,491.9c0.2,0,0.3,0,0.3-0.2
		c0-0.1-0.1-0.2-0.2-0.2h-0.2v0.3H191.6z"/>
</g>
</svg>
