<?xml version="1.0" encoding="utf-8"?>
<!-- Generator: Adobe Illustrator 26.5.0, SVG Export Plug-In . SVG Version: 6.00 Build 0)  -->
<svg version="1.1" id="Layer_1" xmlns="http://www.w3.org/2000/svg" xmlns:xlink="http://www.w3.org/1999/xlink" x="0px" y="0px"
	 viewBox="0 0 728 90" style="enable-background:new 0 0 728 90;" xml:space="preserve">
<style type="text/css">
	.st0{fill:#339933;}
</style>
<g>
	<path class="st0" d="M61.9,15c1.6,0,3,0.2,4.1,0.7c1.1,0.5,2,1.1,2.8,1.9c0.7,0.8,1.2,1.6,1.5,2.6c0.3,1,0.5,2,0.5,3.1
		c0,1-0.2,2-0.5,3c-0.3,1-0.8,1.9-1.5,2.6c-0.7,0.8-1.6,1.4-2.8,1.9c-1.1,0.5-2.5,0.7-4.1,0.7H56v9.2h-5.7V15H61.9z M60.3,27.1
		c0.6,0,1.3,0,1.9-0.1c0.6-0.1,1.1-0.3,1.6-0.6c0.5-0.3,0.8-0.7,1.1-1.2c0.3-0.5,0.4-1.2,0.4-2c0-0.8-0.1-1.5-0.4-2
		c-0.3-0.5-0.6-0.9-1.1-1.2c-0.5-0.3-1-0.5-1.6-0.6c-0.6-0.1-1.2-0.1-1.9-0.1H56v7.7H60.3z"/>
	<path class="st0" d="M78.8,22.1v3.5h0.1c0.2-0.6,0.6-1.1,1-1.6c0.4-0.5,0.9-0.9,1.4-1.3c0.5-0.3,1.1-0.6,1.7-0.8
		c0.6-0.2,1.2-0.3,1.9-0.3c0.3,0,0.7,0.1,1.1,0.2v4.8c-0.2,0-0.5-0.1-0.9-0.1c-0.3,0-0.7-0.1-1-0.1c-0.9,0-1.7,0.2-2.4,0.5
		c-0.6,0.3-1.2,0.7-1.6,1.3s-0.7,1.2-0.8,1.9c-0.2,0.7-0.3,1.5-0.3,2.3v8.4H74V22.1H78.8z"/>
	<path class="st0" d="M87.9,27.8c0.1-1.2,0.4-2.2,0.9-3c0.5-0.8,1.2-1.4,2-1.9c0.8-0.5,1.7-0.8,2.8-1c1-0.2,2-0.3,3.1-0.3
		c0.9,0,1.9,0.1,2.8,0.2c1,0.1,1.8,0.4,2.6,0.8c0.8,0.4,1.4,0.9,1.9,1.6s0.8,1.6,0.8,2.7v9.7c0,0.8,0,1.6,0.1,2.4
		c0.1,0.8,0.3,1.3,0.5,1.7h-5.2c-0.1-0.3-0.2-0.6-0.2-0.9c-0.1-0.3-0.1-0.6-0.1-0.9c-0.8,0.8-1.8,1.4-2.9,1.8
		c-1.1,0.3-2.2,0.5-3.4,0.5c-0.9,0-1.7-0.1-2.5-0.3s-1.4-0.6-2-1c-0.6-0.5-1-1-1.3-1.7c-0.3-0.7-0.5-1.5-0.5-2.5
		c0-1.1,0.2-1.9,0.6-2.6c0.4-0.7,0.9-1.2,1.4-1.6c0.6-0.4,1.3-0.7,2-0.9c0.8-0.2,1.5-0.4,2.3-0.5c0.8-0.1,1.5-0.2,2.3-0.3
		c0.7-0.1,1.4-0.2,2-0.3c0.6-0.1,1-0.4,1.4-0.6c0.3-0.3,0.5-0.7,0.5-1.2c0-0.6-0.1-1-0.3-1.3c-0.2-0.3-0.4-0.6-0.7-0.8
		c-0.3-0.2-0.6-0.3-1-0.4C97.3,25,96.9,25,96.4,25c-1,0-1.8,0.2-2.4,0.6c-0.6,0.4-0.9,1.2-1,2.2H87.9z M99.7,31.6
		c-0.2,0.2-0.5,0.3-0.8,0.4c-0.3,0.1-0.7,0.2-1,0.3c-0.4,0.1-0.8,0.1-1.2,0.2c-0.4,0-0.8,0.1-1.2,0.2c-0.4,0.1-0.8,0.2-1.1,0.3
		c-0.4,0.1-0.7,0.3-1,0.5c-0.3,0.2-0.5,0.5-0.7,0.8c-0.2,0.3-0.3,0.7-0.3,1.2c0,0.5,0.1,0.8,0.3,1.2c0.2,0.3,0.4,0.6,0.7,0.7
		c0.3,0.2,0.6,0.3,1,0.4c0.4,0.1,0.8,0.1,1.2,0.1c1,0,1.8-0.2,2.3-0.5c0.6-0.3,1-0.7,1.2-1.2c0.3-0.5,0.4-0.9,0.5-1.4
		c0.1-0.5,0.1-0.9,0.1-1.2V31.6z"/>
	<path class="st0" d="M117.9,25.4c-0.8,0-1.5,0.2-2.1,0.6c-0.6,0.4-1,0.9-1.4,1.4c-0.3,0.6-0.6,1.2-0.7,1.9s-0.2,1.4-0.2,2.1
		c0,0.7,0.1,1.4,0.2,2.1c0.1,0.7,0.4,1.3,0.7,1.9c0.3,0.6,0.8,1,1.3,1.4c0.6,0.4,1.2,0.5,2,0.5c1.2,0,2.2-0.3,2.8-1
		c0.7-0.7,1.1-1.6,1.2-2.8h4.9c-0.3,2.5-1.3,4.4-2.9,5.7s-3.6,1.9-6.1,1.9c-1.4,0-2.7-0.2-3.8-0.7c-1.2-0.5-2.2-1.1-3-2
		c-0.8-0.8-1.5-1.8-1.9-3c-0.5-1.2-0.7-2.4-0.7-3.8c0-1.4,0.2-2.8,0.6-4c0.4-1.2,1-2.3,1.9-3.2c0.8-0.9,1.8-1.6,3-2.1
		c1.2-0.5,2.5-0.8,4-0.8c1.1,0,2.2,0.1,3.2,0.4c1,0.3,1.9,0.7,2.7,1.3c0.8,0.6,1.5,1.3,2,2.2s0.8,1.9,0.9,3.1h-5
		C121.3,26.5,120.1,25.4,117.9,25.4z"/>
	<path class="st0" d="M140,22.1v3.4h-3.7v9.2c0,0.9,0.1,1.4,0.4,1.7s0.9,0.4,1.7,0.4c0.3,0,0.6,0,0.8,0c0.3,0,0.5-0.1,0.8-0.1v4
		c-0.4,0.1-0.9,0.1-1.4,0.1c-0.5,0-1,0-1.5,0c-0.8,0-1.5-0.1-2.2-0.2c-0.7-0.1-1.3-0.3-1.9-0.6s-1-0.8-1.3-1.3
		c-0.3-0.6-0.5-1.3-0.5-2.3v-11h-3.1v-3.4h3.1v-5.6h5.1v5.6H140z"/>
	<path class="st0" d="M142.8,19.2V15h5.1v4.2H142.8z M147.9,22.1v18.6h-5.1V22.1H147.9z"/>
	<path class="st0" d="M161,25.4c-0.8,0-1.5,0.2-2.1,0.6c-0.6,0.4-1,0.9-1.4,1.4c-0.3,0.6-0.6,1.2-0.7,1.9s-0.2,1.4-0.2,2.1
		c0,0.7,0.1,1.4,0.2,2.1c0.1,0.7,0.4,1.3,0.7,1.9c0.3,0.6,0.8,1,1.3,1.4c0.6,0.4,1.2,0.5,2,0.5c1.2,0,2.2-0.3,2.8-1
		c0.7-0.7,1.1-1.6,1.2-2.8h4.9c-0.3,2.5-1.3,4.4-2.9,5.7s-3.6,1.9-6.1,1.9c-1.4,0-2.7-0.2-3.8-0.7c-1.2-0.5-2.2-1.1-3-2
		c-0.8-0.8-1.5-1.8-1.9-3c-0.5-1.2-0.7-2.4-0.7-3.8c0-1.4,0.2-2.8,0.6-4c0.4-1.2,1-2.3,1.9-3.2c0.8-0.9,1.8-1.6,3-2.1
		c1.2-0.5,2.5-0.8,4-0.8c1.1,0,2.2,0.1,3.2,0.4c1,0.3,1.9,0.7,2.7,1.3c0.8,0.6,1.5,1.3,2,2.2s0.8,1.9,0.9,3.1h-5
		C164.5,26.5,163.2,25.4,161,25.4z"/>
	<path class="st0" d="M172.8,27.8c0.1-1.2,0.4-2.2,0.9-3c0.5-0.8,1.2-1.4,2-1.9c0.8-0.5,1.7-0.8,2.8-1c1-0.2,2-0.3,3.1-0.3
		c0.9,0,1.9,0.1,2.8,0.2c1,0.1,1.8,0.4,2.6,0.8c0.8,0.4,1.4,0.9,1.9,1.6s0.8,1.6,0.8,2.7v9.7c0,0.8,0,1.6,0.1,2.4
		c0.1,0.8,0.3,1.3,0.5,1.7h-5.2c-0.1-0.3-0.2-0.6-0.2-0.9c-0.1-0.3-0.1-0.6-0.1-0.9c-0.8,0.8-1.8,1.4-2.9,1.8
		c-1.1,0.3-2.2,0.5-3.4,0.5c-0.9,0-1.7-0.1-2.5-0.3s-1.4-0.6-2-1c-0.6-0.5-1-1-1.3-1.7c-0.3-0.7-0.5-1.5-0.5-2.5
		c0-1.1,0.2-1.9,0.6-2.6c0.4-0.7,0.9-1.2,1.4-1.6c0.6-0.4,1.3-0.7,2-0.9c0.8-0.2,1.5-0.4,2.3-0.5c0.8-0.1,1.5-0.2,2.3-0.3
		c0.7-0.1,1.4-0.2,2-0.3c0.6-0.1,1-0.4,1.4-0.6c0.3-0.3,0.5-0.7,0.5-1.2c0-0.6-0.1-1-0.3-1.3c-0.2-0.3-0.4-0.6-0.7-0.8
		c-0.3-0.2-0.6-0.3-1-0.4c-0.4-0.1-0.8-0.1-1.3-0.1c-1,0-1.8,0.2-2.4,0.6c-0.6,0.4-0.9,1.2-1,2.2H172.8z M184.6,31.6
		c-0.2,0.2-0.5,0.3-0.8,0.4c-0.3,0.1-0.7,0.2-1,0.3c-0.4,0.1-0.8,0.1-1.2,0.2c-0.4,0-0.8,0.1-1.2,0.2c-0.4,0.1-0.8,0.2-1.1,0.3
		c-0.4,0.1-0.7,0.3-1,0.5c-0.3,0.2-0.5,0.5-0.7,0.8c-0.2,0.3-0.3,0.7-0.3,1.2c0,0.5,0.1,0.8,0.3,1.2c0.2,0.3,0.4,0.6,0.7,0.7
		c0.3,0.2,0.6,0.3,1,0.4c0.4,0.1,0.8,0.1,1.2,0.1c1,0,1.8-0.2,2.3-0.5c0.6-0.3,1-0.7,1.2-1.2c0.3-0.5,0.4-0.9,0.5-1.4
		c0.1-0.5,0.1-0.9,0.1-1.2V31.6z"/>
	<path class="st0" d="M199.1,15v25.7H194V15H199.1z"/>
	<path class="st0" d="M232.9,40.7l-4.4-17.5h-0.1l-4.3,17.5h-5.7L211.6,15h5.7l4.1,17.5h0.1l4.5-17.5h5.3l4.4,17.7h0.1l4.2-17.7h5.5
		l-6.9,25.7H232.9z"/>
	<path class="st0" d="M247.8,19.2V15h5.1v4.2H247.8z M252.9,22.1v18.6h-5.1V22.1H252.9z"/>
	<path class="st0" d="M261.4,36.1c0.2,0.4,0.5,0.7,0.9,1s0.8,0.4,1.2,0.6c0.5,0.1,1,0.2,1.5,0.2c0.4,0,0.7,0,1.1-0.1
		c0.4-0.1,0.8-0.2,1.1-0.4s0.6-0.4,0.8-0.7c0.2-0.3,0.3-0.7,0.3-1.1c0-0.8-0.5-1.3-1.5-1.7c-1-0.4-2.4-0.8-4.3-1.2
		c-0.7-0.2-1.5-0.4-2.2-0.6c-0.7-0.2-1.3-0.5-1.9-0.9c-0.6-0.4-1-0.8-1.3-1.4c-0.3-0.6-0.5-1.3-0.5-2.1c0-1.2,0.2-2.2,0.7-3
		c0.5-0.8,1.1-1.4,1.9-1.8c0.8-0.4,1.6-0.8,2.6-0.9c1-0.2,1.9-0.3,3-0.3c1,0,2,0.1,2.9,0.3c0.9,0.2,1.8,0.5,2.5,1
		c0.7,0.5,1.4,1.1,1.9,1.8c0.5,0.8,0.8,1.7,0.9,2.9h-4.9c-0.1-1-0.4-1.6-1.1-2c-0.7-0.3-1.5-0.5-2.4-0.5c-0.3,0-0.6,0-0.9,0.1
		c-0.3,0-0.6,0.1-0.9,0.2c-0.3,0.1-0.5,0.3-0.7,0.5c-0.2,0.2-0.3,0.5-0.3,0.9c0,0.5,0.2,0.8,0.5,1.1s0.8,0.5,1.3,0.7
		c0.5,0.2,1.2,0.3,1.9,0.5s1.4,0.3,2.1,0.5c0.7,0.2,1.5,0.4,2.2,0.6c0.7,0.2,1.3,0.6,1.9,1c0.6,0.4,1,0.9,1.3,1.5
		c0.3,0.6,0.5,1.3,0.5,2.2c0,1.2-0.2,2.2-0.7,3.1c-0.5,0.8-1.1,1.5-1.9,2s-1.7,0.9-2.7,1.1s-2.1,0.3-3.1,0.3c-1.1,0-2.1-0.1-3.2-0.3
		c-1-0.2-2-0.6-2.8-1.1c-0.8-0.5-1.5-1.2-2-2c-0.5-0.8-0.8-1.9-0.8-3.1h4.9C261,35.2,261.2,35.7,261.4,36.1z"/>
	<path class="st0" d="M289.8,38.3c-0.6,1-1.4,1.7-2.4,2.2c-1,0.4-2.1,0.7-3.3,0.7c-1.4,0-2.6-0.3-3.7-0.8c-1.1-0.5-1.9-1.3-2.6-2.2
		c-0.7-0.9-1.2-2-1.5-3.2c-0.3-1.2-0.5-2.4-0.5-3.7c0-1.2,0.2-2.5,0.5-3.6c0.3-1.2,0.9-2.2,1.5-3.1c0.7-0.9,1.5-1.6,2.6-2.1
		c1-0.5,2.2-0.8,3.6-0.8c1.1,0,2.2,0.2,3.1,0.7c1,0.5,1.8,1.2,2.4,2.1h0.1V15h5.1v25.7h-4.9L289.8,38.3L289.8,38.3z M289.6,29.1
		c-0.1-0.7-0.4-1.3-0.7-1.9c-0.3-0.5-0.8-1-1.4-1.3c-0.6-0.3-1.2-0.5-2.1-0.5c-0.8,0-1.5,0.2-2.1,0.5c-0.6,0.3-1,0.8-1.4,1.3
		c-0.3,0.6-0.6,1.2-0.8,1.9c-0.2,0.7-0.2,1.4-0.2,2.2c0,0.7,0.1,1.4,0.3,2.2c0.2,0.7,0.4,1.4,0.8,1.9c0.4,0.6,0.8,1,1.4,1.4
		c0.6,0.3,1.2,0.5,2,0.5c0.8,0,1.5-0.2,2.1-0.5c0.6-0.3,1-0.8,1.4-1.4c0.3-0.6,0.6-1.2,0.7-1.9c0.1-0.7,0.2-1.5,0.2-2.2
		S289.7,29.8,289.6,29.1z"/>
	<path class="st0" d="M298.8,27.3c0.5-1.2,1.1-2.2,1.9-3.1c0.8-0.9,1.8-1.5,3-2c1.2-0.5,2.5-0.7,4-0.7c1.5,0,2.8,0.2,4,0.7
		c1.2,0.5,2.2,1.1,3,2c0.8,0.9,1.5,1.9,1.9,3.1c0.5,1.2,0.7,2.6,0.7,4c0,1.5-0.2,2.8-0.7,4c-0.5,1.2-1.1,2.2-1.9,3.1
		c-0.8,0.9-1.9,1.5-3,2s-2.5,0.7-4,0.7c-1.5,0-2.8-0.2-4-0.7c-1.2-0.5-2.2-1.1-3-2c-0.8-0.9-1.5-1.9-1.9-3.1s-0.7-2.5-0.7-4
		C298.2,29.9,298.4,28.6,298.8,27.3z M303.5,33.6c0.1,0.7,0.4,1.3,0.7,1.9c0.3,0.6,0.8,1,1.4,1.4c0.6,0.3,1.3,0.5,2.2,0.5
		c0.9,0,1.6-0.2,2.2-0.5c0.6-0.3,1.1-0.8,1.4-1.4c0.3-0.6,0.6-1.2,0.7-1.9c0.1-0.7,0.2-1.4,0.2-2.2c0-0.7-0.1-1.5-0.2-2.2
		c-0.1-0.7-0.4-1.4-0.7-1.9c-0.3-0.6-0.8-1-1.4-1.4c-0.6-0.3-1.3-0.5-2.2-0.5c-0.9,0-1.6,0.2-2.2,0.5c-0.6,0.3-1,0.8-1.4,1.4
		c-0.3,0.6-0.6,1.2-0.7,1.9c-0.1,0.7-0.2,1.5-0.2,2.2C303.3,32.1,303.3,32.9,303.5,33.6z"/>
	<path class="st0" d="M325.9,22.1v2.5h0.1c0.7-1,1.5-1.7,2.4-2.2c0.9-0.5,2-0.8,3.3-0.8c1.2,0,2.2,0.2,3.2,0.7
		c1,0.5,1.7,1.3,2.2,2.4c0.6-0.8,1.3-1.5,2.2-2.2c0.9-0.6,2.1-0.9,3.4-0.9c1,0,1.9,0.1,2.7,0.4c0.8,0.2,1.6,0.6,2.2,1.2
		c0.6,0.5,1.1,1.2,1.4,2.1c0.3,0.9,0.5,1.9,0.5,3.1v12.5h-5.1V30.1c0-0.6,0-1.2-0.1-1.8c0-0.6-0.2-1-0.4-1.4c-0.2-0.4-0.5-0.7-1-1
		c-0.4-0.2-1-0.4-1.7-0.4c-0.7,0-1.3,0.1-1.7,0.4c-0.4,0.3-0.8,0.6-1,1.1c-0.3,0.4-0.4,0.9-0.5,1.5c-0.1,0.6-0.1,1.1-0.1,1.7v10.4
		h-5.1V30.2c0-0.6,0-1.1,0-1.6s-0.1-1-0.3-1.5c-0.2-0.5-0.5-0.8-0.9-1.1s-1-0.4-1.9-0.4c-0.2,0-0.6,0.1-1,0.2s-0.8,0.3-1.2,0.6
		c-0.4,0.3-0.7,0.7-1,1.3c-0.3,0.6-0.4,1.3-0.4,2.2v10.8h-5.1V22.1H325.9z"/>
</g>
<g>
	<path class="st0" d="M47.8,61.5v-3.4h3.1v-1.4c0-1.7,0.5-3,1.5-4.1c1-1.1,2.6-1.6,4.7-1.6c0.5,0,0.9,0,1.4,0.1
		c0.5,0,0.9,0.1,1.3,0.1v3.8c-0.6-0.1-1.2-0.1-1.9-0.1c-0.7,0-1.2,0.2-1.5,0.5C56.1,55.6,56,56.2,56,57v1.1h3.5v3.4H56v15.2h-5.1
		V61.5H47.8z"/>
	<path class="st0" d="M62,63.3c0.5-1.2,1.1-2.2,1.9-3.1c0.8-0.9,1.8-1.5,3-2c1.2-0.5,2.5-0.7,4-0.7c1.5,0,2.8,0.2,4,0.7s2.2,1.1,3,2
		c0.8,0.9,1.5,1.9,1.9,3.1c0.5,1.2,0.7,2.6,0.7,4c0,1.5-0.2,2.8-0.7,4c-0.5,1.2-1.1,2.2-1.9,3.1c-0.8,0.9-1.9,1.5-3,2
		c-1.2,0.5-2.5,0.7-4,0.7c-1.5,0-2.8-0.2-4-0.7c-1.2-0.5-2.2-1.1-3-2c-0.8-0.9-1.5-1.9-1.9-3.1s-0.7-2.5-0.7-4
		C61.4,65.9,61.6,64.6,62,63.3z M66.7,69.6c0.1,0.7,0.4,1.3,0.7,1.9c0.3,0.6,0.8,1,1.4,1.4c0.6,0.3,1.3,0.5,2.2,0.5
		c0.9,0,1.6-0.2,2.2-0.5c0.6-0.3,1.1-0.8,1.4-1.4c0.3-0.6,0.6-1.2,0.7-1.9c0.1-0.7,0.2-1.4,0.2-2.2c0-0.7-0.1-1.5-0.2-2.2
		c-0.1-0.7-0.4-1.4-0.7-1.9c-0.3-0.6-0.8-1-1.4-1.4c-0.6-0.3-1.3-0.5-2.2-0.5c-0.9,0-1.6,0.2-2.2,0.5c-0.6,0.3-1,0.8-1.4,1.4
		c-0.3,0.6-0.6,1.2-0.7,1.9c-0.1,0.7-0.2,1.5-0.2,2.2C66.5,68.1,66.5,68.9,66.7,69.6z"/>
	<path class="st0" d="M89,58.1v3.5H89c0.2-0.6,0.6-1.1,1-1.6c0.4-0.5,0.9-0.9,1.4-1.3c0.5-0.3,1.1-0.6,1.7-0.8
		c0.6-0.2,1.2-0.3,1.9-0.3c0.3,0,0.7,0.1,1.1,0.2v4.8c-0.2,0-0.5-0.1-0.9-0.1c-0.3,0-0.7-0.1-1-0.1c-0.9,0-1.7,0.2-2.4,0.5
		c-0.6,0.3-1.2,0.7-1.6,1.3s-0.7,1.2-0.8,1.9c-0.2,0.7-0.3,1.5-0.3,2.3v8.4h-5.1V58.1H89z"/>
	<path class="st0" d="M120.1,51c1.7,0,3.2,0.3,4.6,0.8c1.4,0.5,2.7,1.3,3.7,2.4c1,1.1,1.9,2.4,2.4,4c0.6,1.6,0.9,3.4,0.9,5.6
		c0,1.9-0.2,3.6-0.7,5.2c-0.5,1.6-1.2,3-2.2,4.1c-1,1.2-2.2,2.1-3.6,2.7c-1.5,0.7-3.2,1-5.1,1H109V51H120.1z M119.7,71.9
		c0.8,0,1.6-0.1,2.4-0.4c0.8-0.3,1.5-0.7,2.1-1.3c0.6-0.6,1.1-1.4,1.4-2.4c0.4-1,0.5-2.2,0.5-3.6c0-1.3-0.1-2.5-0.4-3.5
		s-0.7-1.9-1.2-2.7c-0.6-0.7-1.3-1.3-2.3-1.7c-0.9-0.4-2.1-0.6-3.5-0.6h-4v16.2H119.7z"/>
	<path class="st0" d="M140.8,72.2c0.8,0.7,1.9,1.1,3.3,1.1c1,0,1.9-0.3,2.7-0.8c0.7-0.5,1.2-1.1,1.4-1.6h4.5
		c-0.7,2.2-1.8,3.8-3.3,4.8c-1.5,1-3.3,1.4-5.4,1.4c-1.5,0-2.8-0.2-4-0.7c-1.2-0.5-2.2-1.1-3-2c-0.8-0.9-1.4-1.9-1.9-3.1
		c-0.4-1.2-0.7-2.5-0.7-4c0-1.4,0.2-2.7,0.7-3.9c0.5-1.2,1.1-2.2,1.9-3.1c0.8-0.9,1.8-1.6,3-2.1c1.2-0.5,2.5-0.8,3.9-0.8
		c1.6,0,3,0.3,4.1,0.9c1.2,0.6,2.1,1.4,2.9,2.5c0.8,1,1.3,2.2,1.6,3.5c0.3,1.3,0.5,2.7,0.4,4.1h-13.4
		C139.6,70.3,140,71.5,140.8,72.2z M146.5,62.4c-0.6-0.7-1.5-1-2.8-1c-0.8,0-1.5,0.1-2,0.4c-0.5,0.3-1,0.6-1.3,1
		c-0.3,0.4-0.6,0.8-0.7,1.3c-0.1,0.5-0.2,0.9-0.2,1.2h8.3C147.6,64.1,147.2,63.1,146.5,62.4z"/>
	<path class="st0" d="M161,58.1v2.6h0.1c0.6-1.1,1.5-1.9,2.5-2.4c1-0.5,2.1-0.7,3.2-0.7c1.4,0,2.5,0.2,3.4,0.6s1.6,0.9,2.1,1.5
		s0.9,1.5,1.1,2.4c0.2,0.9,0.3,2,0.3,3.1v11.4h-5.1V66.2c0-1.5-0.2-2.7-0.7-3.4s-1.3-1.1-2.6-1.1c-1.4,0-2.4,0.4-3,1.2
		c-0.6,0.8-0.9,2.2-0.9,4.1v9.8h-5.1V58.1H161z"/>
	<path class="st0" d="M187.9,58.1v3.4h-3.7v9.2c0,0.9,0.1,1.4,0.4,1.7s0.9,0.4,1.7,0.4c0.3,0,0.6,0,0.8,0c0.3,0,0.5-0.1,0.8-0.1v4
		c-0.4,0.1-0.9,0.1-1.4,0.1c-0.5,0-1,0-1.5,0c-0.8,0-1.5-0.1-2.2-0.2c-0.7-0.1-1.3-0.3-1.9-0.6c-0.5-0.3-1-0.8-1.3-1.3
		c-0.3-0.6-0.5-1.3-0.5-2.3v-11h-3.1v-3.4h3.1v-5.6h5.1v5.6H187.9z"/>
	<path class="st0" d="M190.7,55.2V51h5.1v4.2H190.7z M195.8,58.1v18.6h-5.1V58.1H195.8z"/>
	<path class="st0" d="M204.3,72.1c0.2,0.4,0.5,0.7,0.9,1s0.8,0.4,1.2,0.6c0.5,0.1,1,0.2,1.5,0.2c0.4,0,0.7,0,1.1-0.1
		s0.8-0.2,1.1-0.4c0.3-0.2,0.6-0.4,0.8-0.7c0.2-0.3,0.3-0.7,0.3-1.1c0-0.8-0.5-1.3-1.5-1.7c-1-0.4-2.4-0.8-4.3-1.2
		c-0.7-0.2-1.5-0.4-2.2-0.6c-0.7-0.2-1.3-0.5-1.9-0.9c-0.6-0.4-1-0.8-1.3-1.4c-0.3-0.6-0.5-1.3-0.5-2.1c0-1.2,0.2-2.2,0.7-3
		c0.5-0.8,1.1-1.4,1.9-1.8c0.8-0.4,1.6-0.8,2.6-0.9c1-0.2,1.9-0.3,3-0.3c1,0,2,0.1,2.9,0.3c0.9,0.2,1.8,0.5,2.5,1
		c0.7,0.5,1.4,1.1,1.9,1.8c0.5,0.8,0.8,1.7,0.9,2.9H211c-0.1-1-0.4-1.7-1.1-2c-0.7-0.3-1.5-0.5-2.4-0.5c-0.3,0-0.6,0-0.9,0.1
		c-0.3,0-0.6,0.1-0.9,0.2c-0.3,0.1-0.5,0.3-0.7,0.5c-0.2,0.2-0.3,0.5-0.3,0.9c0,0.5,0.2,0.8,0.5,1.1c0.3,0.3,0.8,0.5,1.3,0.7
		c0.5,0.2,1.2,0.3,1.9,0.5c0.7,0.1,1.4,0.3,2.1,0.5c0.7,0.2,1.5,0.4,2.2,0.6c0.7,0.2,1.3,0.6,1.9,1c0.6,0.4,1,0.9,1.3,1.5
		c0.3,0.6,0.5,1.3,0.5,2.2c0,1.2-0.2,2.2-0.7,3.1c-0.5,0.8-1.1,1.5-1.9,2s-1.7,0.9-2.7,1.1c-1,0.2-2.1,0.3-3.1,0.3
		c-1.1,0-2.1-0.1-3.2-0.3c-1-0.2-2-0.6-2.8-1.1c-0.8-0.5-1.5-1.2-2-2c-0.5-0.8-0.8-1.9-0.8-3.1h4.9
		C203.9,71.2,204.1,71.7,204.3,72.1z"/>
	<path class="st0" d="M229.7,58.1v3.4H226v9.2c0,0.9,0.1,1.4,0.4,1.7s0.9,0.4,1.7,0.4c0.3,0,0.6,0,0.8,0c0.3,0,0.5-0.1,0.8-0.1v4
		c-0.4,0.1-0.9,0.1-1.4,0.1c-0.5,0-1,0-1.5,0c-0.8,0-1.5-0.1-2.2-0.2c-0.7-0.1-1.3-0.3-1.9-0.6c-0.5-0.3-1-0.8-1.3-1.3
		c-0.3-0.6-0.5-1.3-0.5-2.3v-11h-3.1v-3.4h3.1v-5.6h5.1v5.6H229.7z"/>
	<path class="st0" d="M236.7,72.1c0.2,0.4,0.5,0.7,0.9,1s0.8,0.4,1.2,0.6c0.5,0.1,1,0.2,1.5,0.2c0.4,0,0.7,0,1.1-0.1
		s0.8-0.2,1.1-0.4c0.3-0.2,0.6-0.4,0.8-0.7c0.2-0.3,0.3-0.7,0.3-1.1c0-0.8-0.5-1.3-1.5-1.7c-1-0.4-2.4-0.8-4.3-1.2
		c-0.7-0.2-1.5-0.4-2.2-0.6c-0.7-0.2-1.3-0.5-1.9-0.9c-0.6-0.4-1-0.8-1.3-1.4c-0.3-0.6-0.5-1.3-0.5-2.1c0-1.2,0.2-2.2,0.7-3
		c0.5-0.8,1.1-1.4,1.9-1.8c0.8-0.4,1.6-0.8,2.6-0.9c1-0.2,1.9-0.3,3-0.3c1,0,2,0.1,2.9,0.3c0.9,0.2,1.8,0.5,2.5,1
		c0.7,0.5,1.4,1.1,1.9,1.8c0.5,0.8,0.8,1.7,0.9,2.9h-4.9c-0.1-1-0.4-1.7-1.1-2c-0.7-0.3-1.5-0.5-2.4-0.5c-0.3,0-0.6,0-0.9,0.1
		c-0.3,0-0.6,0.1-0.9,0.2c-0.3,0.1-0.5,0.3-0.7,0.5c-0.2,0.2-0.3,0.5-0.3,0.9c0,0.5,0.2,0.8,0.5,1.1c0.3,0.3,0.8,0.5,1.3,0.7
		c0.5,0.2,1.2,0.3,1.9,0.5c0.7,0.1,1.4,0.3,2.1,0.5c0.7,0.2,1.5,0.4,2.2,0.6c0.7,0.2,1.3,0.6,1.9,1c0.6,0.4,1,0.9,1.3,1.5
		c0.3,0.6,0.5,1.3,0.5,2.2c0,1.2-0.2,2.2-0.7,3.1c-0.5,0.8-1.1,1.5-1.9,2s-1.7,0.9-2.7,1.1c-1,0.2-2.1,0.3-3.1,0.3
		c-1.1,0-2.1-0.1-3.2-0.3c-1-0.2-2-0.6-2.8-1.1c-0.8-0.5-1.5-1.2-2-2c-0.5-0.8-0.8-1.9-0.8-3.1h4.9
		C236.3,71.2,236.4,71.7,236.7,72.1z"/>
</g>
</svg>
