<?xml version="1.0" encoding="utf-8"?>
<!-- Generator: Adobe Illustrator 26.5.0, SVG Export Plug-In . SVG Version: 6.00 Build 0)  -->
<svg version="1.1" id="Layer_1" xmlns="http://www.w3.org/2000/svg" xmlns:xlink="http://www.w3.org/1999/xlink" x="0px" y="0px"
	 viewBox="0 0 728 90" style="enable-background:new 0 0 728 90;" xml:space="preserve">
<style type="text/css">
	.st0{fill:#339933;}
	.st1{fill:#231F20;}
</style>
<g>
	<path class="st0" d="M56,14.3V40h-5.7V14.3H56z"/>
	<path class="st0" d="M58.4,24.8v-3.4h3.1V20c0-1.7,0.5-3,1.5-4.1c1-1.1,2.6-1.6,4.7-1.6c0.5,0,0.9,0,1.4,0.1s0.9,0.1,1.3,0.1v3.8
		c-0.6-0.1-1.2-0.1-1.9-0.1c-0.7,0-1.2,0.2-1.5,0.5c-0.3,0.3-0.5,0.9-0.5,1.6v1.1h3.5v3.4h-3.5V40h-5.1V24.8H58.4z"/>
	<path class="st0" d="M92.6,21.4v3.4h-3.7V34c0,0.9,0.1,1.4,0.4,1.7s0.9,0.4,1.7,0.4c0.3,0,0.6,0,0.8,0c0.3,0,0.5-0.1,0.8-0.1v4
		c-0.4,0.1-0.9,0.1-1.4,0.1c-0.5,0-1,0-1.5,0c-0.8,0-1.5-0.1-2.2-0.2c-0.7-0.1-1.3-0.3-1.9-0.6s-1-0.8-1.3-1.3
		c-0.3-0.6-0.5-1.3-0.5-2.3v-11h-3.1v-3.4h3.1v-5.6h5.1v5.6H92.6z"/>
	<path class="st0" d="M100.2,14.3V24h0.1c0.6-1.1,1.5-1.9,2.5-2.4c1-0.5,2-0.7,3-0.7c1.4,0,2.5,0.2,3.4,0.6c0.9,0.4,1.6,0.9,2.1,1.5
		s0.9,1.5,1.1,2.4c0.2,0.9,0.3,2,0.3,3.1V40h-5.1V29.5c0-1.5-0.2-2.7-0.7-3.4c-0.5-0.8-1.3-1.1-2.6-1.1c-1.4,0-2.4,0.4-3,1.2
		c-0.6,0.8-0.9,2.2-0.9,4.1V40H95V14.3H100.2z"/>
	<path class="st0" d="M121.9,35.6c0.8,0.7,1.9,1.1,3.3,1.1c1,0,1.9-0.3,2.7-0.8c0.7-0.5,1.2-1.1,1.4-1.6h4.5
		c-0.7,2.2-1.8,3.8-3.3,4.8c-1.5,1-3.3,1.4-5.4,1.4c-1.5,0-2.8-0.2-4-0.7c-1.2-0.5-2.2-1.1-3-2c-0.8-0.9-1.4-1.9-1.9-3.1
		c-0.4-1.2-0.7-2.5-0.7-4c0-1.4,0.2-2.7,0.7-3.9c0.5-1.2,1.1-2.2,1.9-3.1c0.8-0.9,1.8-1.6,3-2.1c1.2-0.5,2.5-0.8,3.9-0.8
		c1.6,0,3,0.3,4.1,0.9c1.2,0.6,2.1,1.4,2.9,2.5c0.8,1,1.3,2.2,1.6,3.5c0.3,1.3,0.5,2.7,0.4,4.1h-13.4
		C120.7,33.6,121.1,34.8,121.9,35.6z M127.6,25.8c-0.6-0.7-1.5-1-2.8-1c-0.8,0-1.5,0.1-2,0.4c-0.5,0.3-1,0.6-1.3,1
		c-0.3,0.4-0.6,0.8-0.7,1.3c-0.1,0.5-0.2,0.9-0.2,1.2h8.3C128.7,27.4,128.3,26.4,127.6,25.8z"/>
</g>
<g>
	<path class="st1" d="M161.5,14.3c1.2,0,2.2,0.2,3.1,0.6c0.9,0.4,1.7,0.9,2.4,1.5c0.7,0.6,1.2,1.4,1.5,2.2c0.3,0.9,0.5,1.8,0.5,2.8
		c0,1.5-0.3,2.8-1,3.9c-0.6,1.1-1.7,1.9-3.1,2.5v0.1c0.7,0.2,1.3,0.5,1.7,0.9c0.5,0.4,0.8,0.9,1.1,1.4s0.5,1.1,0.6,1.8
		c0.1,0.6,0.2,1.3,0.3,1.9c0,0.4,0,0.9,0.1,1.4c0,0.6,0.1,1.1,0.1,1.7c0.1,0.6,0.2,1.1,0.3,1.6c0.1,0.5,0.3,1,0.6,1.3h-5.7
		c-0.3-0.8-0.5-1.8-0.6-2.9c-0.1-1.1-0.2-2.2-0.3-3.2c-0.2-1.3-0.6-2.3-1.2-3c-0.6-0.6-1.6-0.9-3.1-0.9h-5.7v10h-5.7V14.3H161.5z
		 M159.5,25.9c1.3,0,2.3-0.3,2.9-0.9s1-1.5,1-2.8c0-1.2-0.3-2.2-1-2.7s-1.6-0.8-2.9-0.8h-6.2v7.2H159.5z"/>
	<path class="st1" d="M192.8,14.3v4.8h-13.6v5.5h12.5V29h-12.5v6.3h13.9V40h-19.5V14.3H192.8z"/>
	<path class="st1" d="M194.9,19.1v-4.8H216v4.8h-7.7v21h-5.7v-21H194.9z"/>
	<path class="st1" d="M228.4,14.3L238,40h-5.9l-1.9-5.7h-9.6l-2,5.7h-5.7l9.7-25.7H228.4z M228.8,30.1l-3.2-9.4h-0.1l-3.3,9.4H228.8
		z"/>
	<path class="st1" d="M245.9,14.3V40h-5.7V14.3H245.9z"/>
	<path class="st1" d="M256.5,14.3l10.7,17.2h0.1V14.3h5.3V40h-5.7l-10.7-17.2h-0.1V40h-5.3V14.3H256.5z"/>
	<path class="st1" d="M296.8,14.3v4.8h-13.6v5.5h12.5V29h-12.5v6.3h13.9V40h-19.5V14.3H296.8z"/>
	<path class="st1" d="M314.8,14.3c1.2,0,2.2,0.2,3.1,0.6c0.9,0.4,1.7,0.9,2.4,1.5c0.7,0.6,1.2,1.4,1.5,2.2c0.3,0.9,0.5,1.8,0.5,2.8
		c0,1.5-0.3,2.8-1,3.9c-0.6,1.1-1.7,1.9-3.1,2.5v0.1c0.7,0.2,1.3,0.5,1.7,0.9c0.5,0.4,0.8,0.9,1.1,1.4s0.5,1.1,0.6,1.8
		c0.1,0.6,0.2,1.3,0.3,1.9c0,0.4,0,0.9,0.1,1.4c0,0.6,0.1,1.1,0.1,1.7c0.1,0.6,0.2,1.1,0.3,1.6c0.1,0.5,0.3,1,0.6,1.3h-5.7
		c-0.3-0.8-0.5-1.8-0.6-2.9c-0.1-1.1-0.2-2.2-0.3-3.2c-0.2-1.3-0.6-2.3-1.2-3c-0.6-0.6-1.6-0.9-3.1-0.9h-5.7v10h-5.7V14.3H314.8z
		 M312.7,25.9c1.3,0,2.3-0.3,2.9-0.9s1-1.5,1-2.8c0-1.2-0.3-2.2-1-2.7s-1.6-0.8-2.9-0.8h-6.2v7.2H312.7z"/>
	<path class="st1" d="M355,14.3v4.8h-12.4V25h10.8v4.4h-10.8V40h-5.7V14.3H355z"/>
	<path class="st1" d="M363.9,14.3V40h-5.7V14.3H363.9z"/>
	<path class="st1" d="M366.8,19.1v-4.8h21.1v4.8h-7.7v21h-5.7v-21H366.8z"/>
	<path class="st1" d="M395.2,33.7c0.3,0.6,0.7,1.1,1.2,1.5c0.5,0.4,1.1,0.6,1.8,0.8c0.7,0.2,1.4,0.3,2.2,0.3c0.5,0,1,0,1.6-0.1
		c0.6-0.1,1.1-0.2,1.6-0.5c0.5-0.2,0.9-0.6,1.3-1c0.3-0.4,0.5-1,0.5-1.6c0-0.7-0.2-1.3-0.7-1.7c-0.4-0.4-1-0.8-1.7-1.1
		s-1.5-0.5-2.4-0.8c-0.9-0.2-1.8-0.5-2.8-0.7c-1-0.2-1.9-0.5-2.8-0.9c-0.9-0.3-1.7-0.8-2.4-1.4c-0.7-0.6-1.3-1.2-1.7-2.1
		c-0.4-0.8-0.7-1.8-0.7-3c0-1.3,0.3-2.5,0.8-3.4c0.6-1,1.3-1.8,2.2-2.4c0.9-0.6,1.9-1.1,3.1-1.4c1.2-0.3,2.3-0.5,3.5-0.5
		c1.3,0,2.6,0.1,3.9,0.4c1.2,0.3,2.3,0.8,3.3,1.5c1,0.7,1.7,1.5,2.3,2.6c0.6,1,0.8,2.3,0.8,3.8h-5.5c0-0.8-0.2-1.4-0.5-1.9
		c-0.3-0.5-0.6-0.9-1.1-1.2c-0.5-0.3-1-0.5-1.6-0.6c-0.6-0.1-1.2-0.2-1.9-0.2c-0.5,0-0.9,0-1.4,0.1c-0.5,0.1-0.9,0.3-1.2,0.5
		c-0.4,0.2-0.7,0.5-0.9,0.9s-0.4,0.8-0.4,1.4c0,0.5,0.1,0.9,0.3,1.2c0.2,0.3,0.6,0.6,1.1,0.9c0.6,0.3,1.3,0.5,2.3,0.8
		c1,0.3,2.3,0.6,3.9,1c0.5,0.1,1.1,0.3,2,0.5c0.9,0.3,1.7,0.7,2.5,1.2c0.8,0.6,1.6,1.3,2.2,2.2c0.6,0.9,0.9,2.1,0.9,3.5
		c0,1.2-0.2,2.3-0.7,3.3c-0.5,1-1.1,1.9-2,2.6c-0.9,0.7-2,1.3-3.3,1.7s-2.9,0.6-4.6,0.6c-1.4,0-2.8-0.2-4.1-0.5s-2.5-0.9-3.5-1.6
		c-1-0.7-1.8-1.7-2.4-2.8c-0.6-1.2-0.9-2.5-0.9-4.1h5.5C394.7,32.4,394.9,33.1,395.2,33.7z"/>
	<path class="st1" d="M419.6,34.5V40c0,0.8-0.1,1.6-0.4,2.2c-0.3,0.7-0.7,1.3-1.2,1.8c-0.5,0.5-1.1,0.9-1.8,1.2
		c-0.7,0.3-1.4,0.5-2.2,0.7v-2.6c0.4-0.1,0.7-0.2,1-0.4s0.6-0.5,0.8-0.8c0.2-0.3,0.4-0.6,0.5-1s0.2-0.8,0.1-1.1h-2.6v-5.5H419.6z"/>
</g>
<g>
	<path class="st0" d="M69.2,76l-4.4-17.5h-0.1L60.5,76h-5.7l-6.8-25.7h5.7l4.1,17.5h0.1l4.5-17.5h5.3L71.9,68h0.1l4.2-17.7h5.5
		L74.8,76H69.2z"/>
	<path class="st0" d="M103.5,50.3v4.8H89.9v5.5h12.5V65H89.9v6.3h13.9V76H84.3V50.3H103.5z"/>
	<path class="st0" d="M120.4,50.3L130,76h-5.9l-1.9-5.7h-9.6l-2,5.7h-5.7l9.7-25.7H120.4z M120.8,66.1l-3.2-9.4h-0.1l-3.3,9.4H120.8
		z"/>
	<path class="st0" d="M146.1,50.3c1.2,0,2.2,0.2,3.1,0.6c0.9,0.4,1.7,0.9,2.4,1.5c0.7,0.6,1.2,1.4,1.5,2.2c0.3,0.9,0.5,1.8,0.5,2.8
		c0,1.5-0.3,2.8-1,3.9c-0.6,1.1-1.7,1.9-3.1,2.5v0.1c0.7,0.2,1.3,0.5,1.7,0.9c0.5,0.4,0.8,0.9,1.1,1.4s0.5,1.1,0.6,1.8
		c0.1,0.6,0.2,1.3,0.3,1.9c0,0.4,0,0.9,0.1,1.4c0,0.6,0.1,1.1,0.1,1.7c0.1,0.6,0.2,1.1,0.3,1.6c0.1,0.5,0.3,1,0.6,1.3h-5.7
		c-0.3-0.8-0.5-1.8-0.6-2.9s-0.2-2.2-0.3-3.2c-0.2-1.3-0.6-2.3-1.2-3c-0.6-0.6-1.6-0.9-3.1-0.9h-5.7v10h-5.7V50.3H146.1z
		 M144.1,61.9c1.3,0,2.3-0.3,2.9-0.9c0.6-0.6,1-1.5,1-2.8c0-1.2-0.3-2.2-1-2.7c-0.6-0.6-1.6-0.8-2.9-0.8h-6.2v7.2H144.1z"/>
	<path class="st0" d="M173.9,50.3V76h-5.7V50.3H173.9z"/>
	<path class="st0" d="M176.9,55.1v-4.8h21.1v4.8h-7.7v21h-5.7v-21H176.9z"/>
	<path class="st0" d="M202.2,70.5V76h-5.7v-5.5H202.2z"/>
</g>
</svg>
