<?xml version="1.0" encoding="utf-8"?>
<!-- Generator: Adobe Illustrator 26.5.0, SVG Export Plug-In . SVG Version: 6.00 Build 0)  -->
<svg version="1.1" id="Layer_1" xmlns="http://www.w3.org/2000/svg" xmlns:xlink="http://www.w3.org/1999/xlink" x="0px" y="0px"
	 viewBox="0 0 728 90" style="enable-background:new 0 0 728 90;" xml:space="preserve">
<style type="text/css">
	.st0{fill:#231F20;}
</style>
<g>
	<path class="st0" d="M267.4,11.6l6.4,17.1h-3.9l-1.3-3.8h-6.4l-1.3,3.8H257l6.5-17.1H267.4z M267.6,22.1l-2.2-6.3h0l-2.2,6.3H267.6
		z"/>
	<path class="st0" d="M277.9,16.3v1.7h0.1c0.4-0.7,1-1.2,1.7-1.6c0.7-0.3,1.4-0.5,2.1-0.5c0.9,0,1.7,0.1,2.2,0.4
		c0.6,0.2,1,0.6,1.4,1s0.6,1,0.7,1.6c0.1,0.6,0.2,1.3,0.2,2.1v7.6h-3.4v-7c0-1-0.2-1.8-0.5-2.3c-0.3-0.5-0.9-0.8-1.7-0.8
		c-0.9,0-1.6,0.3-2,0.8c-0.4,0.6-0.6,1.5-0.6,2.7v6.5h-3.4V16.3H277.9z"/>
	<path class="st0" d="M297.5,27.2c-0.4,0.7-0.9,1.2-1.6,1.5c-0.6,0.3-1.4,0.4-2.2,0.4c-0.9,0-1.7-0.2-2.4-0.5
		c-0.7-0.4-1.3-0.8-1.7-1.5c-0.5-0.6-0.8-1.3-1-2.1c-0.2-0.8-0.3-1.6-0.3-2.5c0-0.8,0.1-1.6,0.3-2.4c0.2-0.8,0.6-1.5,1-2.1
		s1-1.1,1.7-1.4s1.5-0.5,2.4-0.5c0.7,0,1.4,0.2,2.1,0.5s1.2,0.8,1.6,1.4h0v-6.2h3.4v17.1h-3.2L297.5,27.2L297.5,27.2z M297.4,21
		c-0.1-0.5-0.3-0.9-0.5-1.2c-0.2-0.4-0.5-0.7-0.9-0.9s-0.8-0.3-1.4-0.3s-1,0.1-1.4,0.3c-0.4,0.2-0.7,0.5-0.9,0.9
		c-0.2,0.4-0.4,0.8-0.5,1.3c-0.1,0.5-0.2,1-0.2,1.5c0,0.5,0.1,1,0.2,1.4c0.1,0.5,0.3,0.9,0.5,1.3c0.2,0.4,0.6,0.7,0.9,0.9
		c0.4,0.2,0.8,0.3,1.4,0.3c0.6,0,1-0.1,1.4-0.3c0.4-0.2,0.7-0.5,0.9-0.9s0.4-0.8,0.5-1.3s0.1-1,0.1-1.5
		C297.5,22,297.4,21.5,297.4,21z"/>
	<path class="st0" d="M312.8,16.3v1.6h0c0.4-0.7,0.9-1.2,1.6-1.5c0.6-0.3,1.3-0.5,2.1-0.5c1,0,1.8,0.2,2.5,0.6s1.3,0.9,1.8,1.5
		c0.5,0.6,0.8,1.3,1,2.1c0.2,0.8,0.3,1.7,0.3,2.5c0,0.8-0.1,1.6-0.3,2.4s-0.6,1.4-1,2s-1,1.1-1.7,1.4c-0.7,0.4-1.5,0.5-2.4,0.5
		c-0.8,0-1.5-0.2-2.1-0.5c-0.6-0.3-1.2-0.8-1.6-1.4h0v5.9h-3.4V16.3H312.8z M317.3,26.2c0.4-0.2,0.7-0.5,0.9-0.9
		c0.2-0.4,0.4-0.8,0.5-1.3c0.1-0.5,0.1-1,0.1-1.5c0-0.5-0.1-1-0.2-1.5s-0.3-0.9-0.5-1.3c-0.2-0.4-0.5-0.7-0.9-0.9
		c-0.4-0.2-0.8-0.3-1.4-0.3c-0.6,0-1,0.1-1.4,0.3c-0.4,0.2-0.7,0.5-0.9,0.9c-0.2,0.4-0.4,0.8-0.5,1.3c-0.1,0.5-0.1,1-0.1,1.5
		c0,0.5,0.1,1,0.2,1.5c0.1,0.5,0.3,0.9,0.5,1.3c0.2,0.4,0.5,0.7,0.9,0.9s0.8,0.3,1.4,0.3C316.4,26.5,316.9,26.4,317.3,26.2z"/>
	<path class="st0" d="M327.3,16.3v2.3h0c0.2-0.4,0.4-0.7,0.6-1.1c0.3-0.3,0.6-0.6,0.9-0.8c0.4-0.2,0.7-0.4,1.1-0.5s0.8-0.2,1.2-0.2
		c0.2,0,0.5,0,0.7,0.1v3.2c-0.2,0-0.4-0.1-0.6-0.1s-0.4,0-0.6,0c-0.6,0-1.2,0.1-1.6,0.3c-0.4,0.2-0.8,0.5-1,0.9
		c-0.3,0.4-0.5,0.8-0.6,1.3c-0.1,0.5-0.2,1-0.2,1.6v5.6H324V16.3H327.3z"/>
	<path class="st0" d="M332.8,19.8c0.3-0.8,0.7-1.5,1.3-2.1c0.6-0.6,1.2-1,2-1.3c0.8-0.3,1.7-0.5,2.6-0.5s1.9,0.2,2.7,0.5
		s1.5,0.8,2,1.3c0.6,0.6,1,1.3,1.3,2.1c0.3,0.8,0.5,1.7,0.5,2.7s-0.2,1.9-0.5,2.7c-0.3,0.8-0.7,1.5-1.3,2.1c-0.6,0.6-1.2,1-2,1.3
		s-1.7,0.5-2.7,0.5s-1.9-0.2-2.6-0.5c-0.8-0.3-1.5-0.7-2-1.3c-0.6-0.6-1-1.3-1.3-2.1c-0.3-0.8-0.5-1.7-0.5-2.7
		S332.5,20.7,332.8,19.8z M335.9,24c0.1,0.5,0.3,0.9,0.5,1.3c0.2,0.4,0.5,0.7,0.9,0.9c0.4,0.2,0.9,0.3,1.4,0.3
		c0.6,0,1.1-0.1,1.5-0.3s0.7-0.5,0.9-0.9s0.4-0.8,0.5-1.3c0.1-0.5,0.1-1,0.1-1.5s0-1-0.1-1.5c-0.1-0.5-0.3-0.9-0.5-1.3
		c-0.2-0.4-0.5-0.7-0.9-0.9c-0.4-0.2-0.9-0.3-1.5-0.3c-0.6,0-1.1,0.1-1.4,0.3c-0.4,0.2-0.7,0.5-0.9,0.9c-0.2,0.4-0.4,0.8-0.5,1.3
		c-0.1,0.5-0.1,1-0.1,1.5S335.8,23.5,335.9,24z"/>
	<path class="st0" d="M354,16.3v2.3h-2.5v6.1c0,0.6,0.1,1,0.3,1.2c0.2,0.2,0.6,0.3,1.2,0.3c0.2,0,0.4,0,0.6,0c0.2,0,0.3,0,0.5-0.1
		v2.6c-0.3,0-0.6,0.1-1,0.1c-0.4,0-0.7,0-1,0c-0.5,0-1,0-1.5-0.1c-0.5-0.1-0.9-0.2-1.2-0.4c-0.4-0.2-0.6-0.5-0.9-0.9
		c-0.2-0.4-0.3-0.9-0.3-1.5v-7.3H346v-2.3h2.1v-3.7h3.4v3.7H354z"/>
	<path class="st0" d="M359.1,25.8c0.5,0.5,1.2,0.7,2.2,0.7c0.7,0,1.3-0.2,1.8-0.5c0.5-0.3,0.8-0.7,0.9-1.1h3
		c-0.5,1.5-1.2,2.6-2.2,3.2c-1,0.6-2.2,1-3.6,1c-1,0-1.9-0.2-2.6-0.5c-0.8-0.3-1.4-0.8-2-1.3c-0.5-0.6-1-1.3-1.3-2.1
		c-0.3-0.8-0.4-1.7-0.4-2.6c0-0.9,0.2-1.8,0.5-2.6c0.3-0.8,0.7-1.5,1.3-2.1c0.6-0.6,1.2-1,2-1.4c0.8-0.3,1.6-0.5,2.6-0.5
		c1.1,0,2,0.2,2.8,0.6c0.8,0.4,1.4,1,1.9,1.6s0.9,1.5,1.1,2.4c0.2,0.9,0.3,1.8,0.2,2.8h-9C358.3,24.5,358.5,25.3,359.1,25.8z
		 M362.9,19.2c-0.4-0.4-1-0.7-1.9-0.7c-0.5,0-1,0.1-1.4,0.3s-0.6,0.4-0.9,0.7c-0.2,0.3-0.4,0.6-0.5,0.9c-0.1,0.3-0.1,0.6-0.2,0.8
		h5.5C363.6,20.3,363.3,19.7,362.9,19.2z"/>
	<path class="st0" d="M374.9,18.6c-0.5,0-1,0.1-1.4,0.4c-0.4,0.2-0.7,0.6-0.9,1c-0.2,0.4-0.4,0.8-0.5,1.3c-0.1,0.5-0.1,0.9-0.1,1.4
		c0,0.4,0,0.9,0.1,1.4c0.1,0.5,0.3,0.9,0.5,1.3c0.2,0.4,0.5,0.7,0.9,0.9c0.4,0.2,0.8,0.4,1.3,0.4c0.8,0,1.4-0.2,1.9-0.7
		c0.4-0.5,0.7-1.1,0.8-1.8h3.3c-0.2,1.6-0.9,2.9-1.9,3.8c-1.1,0.9-2.4,1.3-4.1,1.3c-0.9,0-1.8-0.2-2.6-0.5c-0.8-0.3-1.4-0.7-2-1.3
		s-1-1.2-1.3-2c-0.3-0.8-0.5-1.6-0.5-2.6c0-1,0.1-1.9,0.4-2.7c0.3-0.8,0.7-1.5,1.2-2.1c0.5-0.6,1.2-1.1,2-1.4
		c0.8-0.3,1.7-0.5,2.7-0.5c0.7,0,1.4,0.1,2.1,0.3c0.7,0.2,1.3,0.5,1.8,0.9c0.5,0.4,1,0.9,1.3,1.5c0.3,0.6,0.5,1.3,0.6,2.1h-3.3
		C377.2,19.3,376.4,18.6,374.9,18.6z"/>
	<path class="st0" d="M389.3,16.3v2.3h-2.5v6.1c0,0.6,0.1,1,0.3,1.2c0.2,0.2,0.6,0.3,1.2,0.3c0.2,0,0.4,0,0.6,0c0.2,0,0.3,0,0.5-0.1
		v2.6c-0.3,0-0.6,0.1-1,0.1c-0.4,0-0.7,0-1,0c-0.5,0-1,0-1.5-0.1c-0.5-0.1-0.9-0.2-1.2-0.4c-0.4-0.2-0.6-0.5-0.9-0.9
		c-0.2-0.4-0.3-0.9-0.3-1.5v-7.3h-2.1v-2.3h2.1v-3.7h3.4v3.7H389.3z"/>
	<path class="st0" d="M401.8,32.4c-0.7,0.4-1.6,0.6-2.7,0.6c-0.4,0-0.7,0-1,0c-0.3,0-0.7-0.1-1-0.1v-2.8c0.3,0,0.6,0.1,1,0.1
		c0.3,0,0.7,0,1,0c0.4,0,0.8-0.2,1-0.5s0.3-0.6,0.3-1c0-0.3,0-0.5-0.1-0.8l-4.3-11.6h3.6l2.8,8.5h0l2.7-8.5h3.5l-5.2,13.9
		C402.9,31.3,402.4,32,401.8,32.4z"/>
	<path class="st0" d="M409.5,19.8c0.3-0.8,0.7-1.5,1.3-2.1c0.6-0.6,1.2-1,2-1.3s1.7-0.5,2.6-0.5c1,0,1.9,0.2,2.7,0.5s1.5,0.8,2,1.3
		c0.6,0.6,1,1.3,1.3,2.1c0.3,0.8,0.5,1.7,0.5,2.7s-0.2,1.9-0.5,2.7c-0.3,0.8-0.7,1.5-1.3,2.1c-0.6,0.6-1.2,1-2,1.3s-1.7,0.5-2.7,0.5
		c-1,0-1.9-0.2-2.6-0.5s-1.5-0.7-2-1.3c-0.6-0.6-1-1.3-1.3-2.1c-0.3-0.8-0.5-1.7-0.5-2.7S409.2,20.7,409.5,19.8z M412.6,24
		c0.1,0.5,0.3,0.9,0.5,1.3c0.2,0.4,0.5,0.7,0.9,0.9s0.9,0.3,1.4,0.3s1.1-0.1,1.5-0.3c0.4-0.2,0.7-0.5,0.9-0.9
		c0.2-0.4,0.4-0.8,0.5-1.3c0.1-0.5,0.1-1,0.1-1.5s0-1-0.1-1.5c-0.1-0.5-0.3-0.9-0.5-1.3c-0.2-0.4-0.5-0.7-0.9-0.9
		c-0.4-0.2-0.9-0.3-1.5-0.3s-1.1,0.1-1.4,0.3c-0.4,0.2-0.7,0.5-0.9,0.9c-0.2,0.4-0.4,0.8-0.5,1.3c-0.1,0.5-0.1,1-0.1,1.5
		S412.5,23.5,412.6,24z"/>
	<path class="st0" d="M432.3,28.7V27h-0.1c-0.4,0.7-1,1.2-1.7,1.6c-0.7,0.3-1.4,0.5-2.1,0.5c-0.9,0-1.7-0.1-2.2-0.4
		c-0.6-0.2-1-0.6-1.4-1s-0.6-1-0.7-1.6c-0.1-0.6-0.2-1.3-0.2-2.1v-7.6h3.4v7c0,1,0.2,1.8,0.5,2.3s0.9,0.8,1.7,0.8
		c0.9,0,1.6-0.3,2-0.8c0.4-0.6,0.6-1.5,0.6-2.7v-6.5h3.4v12.4H432.3z"/>
	<path class="st0" d="M441.1,16.3v2.3h0c0.2-0.4,0.4-0.7,0.6-1.1c0.3-0.3,0.6-0.6,0.9-0.8c0.4-0.2,0.7-0.4,1.1-0.5
		c0.4-0.1,0.8-0.2,1.2-0.2c0.2,0,0.5,0,0.7,0.1v3.2c-0.2,0-0.4-0.1-0.6-0.1c-0.2,0-0.4,0-0.6,0c-0.6,0-1.2,0.1-1.6,0.3
		c-0.4,0.2-0.8,0.5-1,0.9c-0.3,0.4-0.5,0.8-0.6,1.3c-0.1,0.5-0.2,1-0.2,1.6v5.6h-3.4V16.3H441.1z"/>
	<path class="st0" d="M449.9,25.7c0.2,0.3,0.3,0.5,0.6,0.6s0.5,0.3,0.8,0.4c0.3,0.1,0.6,0.1,1,0.1c0.2,0,0.5,0,0.8-0.1
		c0.3-0.1,0.5-0.1,0.7-0.3c0.2-0.1,0.4-0.3,0.5-0.5c0.1-0.2,0.2-0.5,0.2-0.8c0-0.5-0.3-0.9-1-1.2c-0.7-0.3-1.6-0.5-2.8-0.8
		c-0.5-0.1-1-0.2-1.5-0.4c-0.5-0.2-0.9-0.4-1.3-0.6s-0.7-0.6-0.9-0.9c-0.2-0.4-0.3-0.8-0.3-1.4c0-0.8,0.2-1.5,0.5-2
		c0.3-0.5,0.7-0.9,1.2-1.2c0.5-0.3,1.1-0.5,1.7-0.6c0.6-0.1,1.3-0.2,2-0.2s1.3,0.1,2,0.2s1.2,0.3,1.7,0.6c0.5,0.3,0.9,0.7,1.2,1.2
		s0.5,1.1,0.6,1.9h-3.2c0-0.7-0.3-1.1-0.7-1.3c-0.4-0.2-1-0.3-1.6-0.3c-0.2,0-0.4,0-0.6,0c-0.2,0-0.4,0.1-0.6,0.2s-0.3,0.2-0.5,0.3
		s-0.2,0.4-0.2,0.6c0,0.3,0.1,0.6,0.3,0.7c0.2,0.2,0.5,0.3,0.9,0.5c0.4,0.1,0.8,0.2,1.2,0.3c0.5,0.1,0.9,0.2,1.4,0.3
		c0.5,0.1,1,0.2,1.5,0.4c0.5,0.2,0.9,0.4,1.3,0.6s0.7,0.6,0.9,1c0.2,0.4,0.3,0.9,0.3,1.5c0,0.8-0.2,1.5-0.5,2.1
		c-0.3,0.6-0.8,1-1.3,1.3s-1.1,0.6-1.8,0.7c-0.7,0.1-1.4,0.2-2.1,0.2c-0.7,0-1.4-0.1-2.1-0.2c-0.7-0.1-1.3-0.4-1.8-0.7
		s-1-0.8-1.3-1.3c-0.3-0.6-0.5-1.2-0.6-2.1h3.2C449.6,25.1,449.7,25.4,449.9,25.7z"/>
	<path class="st0" d="M463.3,25.8c0.5,0.5,1.2,0.7,2.2,0.7c0.7,0,1.3-0.2,1.8-0.5c0.5-0.3,0.8-0.7,0.9-1.1h3
		c-0.5,1.5-1.2,2.6-2.2,3.2c-1,0.6-2.2,1-3.6,1c-1,0-1.9-0.2-2.6-0.5c-0.8-0.3-1.4-0.8-2-1.3c-0.5-0.6-1-1.3-1.3-2.1
		c-0.3-0.8-0.4-1.7-0.4-2.6c0-0.9,0.2-1.8,0.5-2.6c0.3-0.8,0.7-1.5,1.3-2.1c0.6-0.6,1.2-1,2-1.4c0.8-0.3,1.6-0.5,2.6-0.5
		c1.1,0,2,0.2,2.8,0.6c0.8,0.4,1.4,1,1.9,1.6s0.9,1.5,1.1,2.4c0.2,0.9,0.3,1.8,0.2,2.8h-9C462.5,24.5,462.8,25.3,463.3,25.8z
		 M467.2,19.2c-0.4-0.4-1-0.7-1.9-0.7c-0.5,0-1,0.1-1.4,0.3s-0.6,0.4-0.9,0.7s-0.4,0.6-0.5,0.9c-0.1,0.3-0.1,0.6-0.2,0.8h5.5
		C467.9,20.3,467.6,19.7,467.2,19.2z"/>
	<path class="st0" d="M476.7,11.6v17.1h-3.4V11.6H476.7z"/>
	<path class="st0" d="M477.9,18.6v-2.3h2v-1c0-1.1,0.3-2,1-2.7c0.7-0.7,1.7-1.1,3.1-1.1c0.3,0,0.6,0,0.9,0c0.3,0,0.6,0,0.9,0.1v2.5
		c-0.4,0-0.8-0.1-1.2-0.1c-0.5,0-0.8,0.1-1,0.3c-0.2,0.2-0.3,0.6-0.3,1.1v0.7h2.4v2.3h-2.4v10.1h-3.4V18.6H477.9z"/>
</g>
<g>
	<path class="st0" d="M282.6,42.6v-2.3h2v-1c0-1.1,0.3-2,1-2.7c0.7-0.7,1.7-1.1,3.1-1.1c0.3,0,0.6,0,0.9,0c0.3,0,0.6,0,0.9,0.1v2.5
		c-0.4,0-0.8-0.1-1.2-0.1c-0.5,0-0.8,0.1-1,0.3c-0.2,0.2-0.3,0.6-0.3,1.1v0.7h2.4v2.3h-2.4v10.1h-3.4V42.6H282.6z"/>
	<path class="st0" d="M295,40.3v2.3h0c0.2-0.4,0.4-0.7,0.6-1.1c0.3-0.3,0.6-0.6,0.9-0.8c0.4-0.2,0.7-0.4,1.1-0.5s0.8-0.2,1.2-0.2
		c0.2,0,0.5,0,0.7,0.1v3.2c-0.2,0-0.4-0.1-0.6-0.1s-0.4,0-0.6,0c-0.6,0-1.2,0.1-1.6,0.3c-0.4,0.2-0.8,0.5-1,0.9
		c-0.3,0.4-0.5,0.8-0.6,1.3c-0.1,0.5-0.2,1-0.2,1.6v5.6h-3.4V40.3H295z"/>
	<path class="st0" d="M300.5,43.8c0.3-0.8,0.7-1.5,1.3-2.1c0.6-0.6,1.2-1,2-1.3c0.8-0.3,1.7-0.5,2.6-0.5s1.9,0.2,2.7,0.5
		s1.5,0.8,2,1.3c0.6,0.6,1,1.3,1.3,2.1c0.3,0.8,0.5,1.7,0.5,2.7s-0.2,1.9-0.5,2.7c-0.3,0.8-0.7,1.5-1.3,2.1c-0.6,0.6-1.2,1-2,1.3
		s-1.7,0.5-2.7,0.5s-1.9-0.2-2.6-0.5c-0.8-0.3-1.5-0.7-2-1.3c-0.6-0.6-1-1.3-1.3-2.1c-0.3-0.8-0.5-1.7-0.5-2.7
		S300.2,44.7,300.5,43.8z M303.6,48c0.1,0.5,0.3,0.9,0.5,1.3c0.2,0.4,0.5,0.7,0.9,0.9c0.4,0.2,0.9,0.3,1.4,0.3
		c0.6,0,1.1-0.1,1.5-0.3c0.4-0.2,0.7-0.5,0.9-0.9s0.4-0.8,0.5-1.3c0.1-0.5,0.1-1,0.1-1.5c0-0.5,0-1-0.1-1.5
		c-0.1-0.5-0.3-0.9-0.5-1.3c-0.2-0.4-0.5-0.7-0.9-0.9c-0.4-0.2-0.9-0.3-1.5-0.3c-0.6,0-1.1,0.1-1.4,0.3c-0.4,0.2-0.7,0.5-0.9,0.9
		c-0.2,0.4-0.4,0.8-0.5,1.3c-0.1,0.5-0.1,1-0.1,1.5C303.4,47,303.5,47.5,303.6,48z"/>
	<path class="st0" d="M318.1,40.3V42h0c0.4-0.6,1-1.1,1.6-1.5c0.6-0.4,1.4-0.5,2.2-0.5c0.8,0,1.5,0.2,2.1,0.5
		c0.6,0.3,1.1,0.8,1.5,1.6c0.4-0.5,0.9-1,1.5-1.4c0.6-0.4,1.4-0.6,2.2-0.6c0.7,0,1.3,0.1,1.8,0.2c0.6,0.2,1,0.4,1.4,0.8
		c0.4,0.4,0.7,0.8,0.9,1.4c0.2,0.6,0.3,1.3,0.3,2.1v8.3h-3.4v-7c0-0.4,0-0.8,0-1.2c0-0.4-0.1-0.7-0.3-1c-0.1-0.3-0.4-0.5-0.6-0.6
		c-0.3-0.2-0.7-0.2-1.1-0.2s-0.9,0.1-1.2,0.3c-0.3,0.2-0.5,0.4-0.7,0.7c-0.2,0.3-0.3,0.6-0.3,1c-0.1,0.4-0.1,0.8-0.1,1.1v6.9h-3.4
		v-7c0-0.4,0-0.7,0-1.1c0-0.4-0.1-0.7-0.2-1c-0.1-0.3-0.3-0.5-0.6-0.7s-0.7-0.3-1.2-0.3c-0.2,0-0.4,0-0.6,0.1
		c-0.3,0.1-0.5,0.2-0.8,0.4c-0.2,0.2-0.5,0.5-0.6,0.9c-0.2,0.4-0.3,0.9-0.3,1.5v7.2h-3.4V40.3H318.1z"/>
	<path class="st0" d="M351.2,52.7V51h-0.1c-0.4,0.7-1,1.2-1.7,1.6s-1.4,0.5-2.1,0.5c-0.9,0-1.7-0.1-2.2-0.4s-1-0.6-1.4-1
		c-0.3-0.4-0.6-1-0.7-1.6c-0.1-0.6-0.2-1.3-0.2-2.1v-7.6h3.4v7c0,1,0.2,1.8,0.5,2.3c0.3,0.5,0.9,0.8,1.7,0.8c0.9,0,1.6-0.3,2-0.8
		c0.4-0.6,0.6-1.5,0.6-2.7v-6.5h3.4v12.4H351.2z"/>
	<path class="st0" d="M360,40.3v1.7h0.1c0.4-0.7,1-1.2,1.7-1.6c0.7-0.3,1.4-0.5,2.1-0.5c0.9,0,1.7,0.1,2.2,0.4c0.6,0.2,1,0.6,1.4,1
		s0.6,1,0.7,1.6c0.1,0.6,0.2,1.3,0.2,2.1v7.6H365v-7c0-1-0.2-1.8-0.5-2.3c-0.3-0.5-0.9-0.8-1.7-0.8c-0.9,0-1.6,0.3-2,0.8
		c-0.4,0.6-0.6,1.5-0.6,2.7v6.5h-3.4V40.3H360z"/>
	<path class="st0" d="M376.7,42.6c-0.5,0-1,0.1-1.4,0.4c-0.4,0.2-0.7,0.6-0.9,1c-0.2,0.4-0.4,0.8-0.5,1.3c-0.1,0.5-0.1,0.9-0.1,1.4
		c0,0.4,0,0.9,0.1,1.4c0.1,0.5,0.3,0.9,0.5,1.3c0.2,0.4,0.5,0.7,0.9,0.9s0.8,0.4,1.3,0.4c0.8,0,1.4-0.2,1.9-0.7
		c0.4-0.5,0.7-1.1,0.8-1.8h3.3c-0.2,1.6-0.9,2.9-1.9,3.8c-1.1,0.9-2.4,1.3-4.1,1.3c-0.9,0-1.8-0.2-2.6-0.5c-0.8-0.3-1.4-0.7-2-1.3
		c-0.5-0.6-1-1.2-1.3-2c-0.3-0.8-0.5-1.6-0.5-2.6c0-1,0.1-1.9,0.4-2.7c0.3-0.8,0.7-1.5,1.2-2.1c0.5-0.6,1.2-1.1,2-1.4
		c0.8-0.3,1.7-0.5,2.7-0.5c0.7,0,1.4,0.1,2.1,0.3c0.7,0.2,1.3,0.5,1.8,0.9c0.5,0.4,1,0.9,1.3,1.5c0.3,0.6,0.5,1.3,0.6,2.1h-3.3
		C379,43.3,378.2,42.6,376.7,42.6z"/>
	<path class="st0" d="M384.4,43.8c0.3-0.8,0.7-1.5,1.3-2.1c0.6-0.6,1.2-1,2-1.3s1.7-0.5,2.6-0.5c1,0,1.9,0.2,2.7,0.5s1.5,0.8,2,1.3
		c0.6,0.6,1,1.3,1.3,2.1c0.3,0.8,0.5,1.7,0.5,2.7s-0.2,1.9-0.5,2.7s-0.7,1.5-1.3,2.1c-0.6,0.6-1.2,1-2,1.3s-1.7,0.5-2.7,0.5
		c-1,0-1.9-0.2-2.6-0.5s-1.5-0.7-2-1.3c-0.6-0.6-1-1.3-1.3-2.1c-0.3-0.8-0.5-1.7-0.5-2.7S384.1,44.7,384.4,43.8z M387.5,48
		c0.1,0.5,0.3,0.9,0.5,1.3c0.2,0.4,0.5,0.7,0.9,0.9c0.4,0.2,0.9,0.3,1.4,0.3s1.1-0.1,1.5-0.3c0.4-0.2,0.7-0.5,0.9-0.9
		c0.2-0.4,0.4-0.8,0.5-1.3c0.1-0.5,0.1-1,0.1-1.5c0-0.5,0-1-0.1-1.5c-0.1-0.5-0.3-0.9-0.5-1.3c-0.2-0.4-0.5-0.7-0.9-0.9
		c-0.4-0.2-0.9-0.3-1.5-0.3s-1.1,0.1-1.4,0.3c-0.4,0.2-0.7,0.5-0.9,0.9c-0.2,0.4-0.4,0.8-0.5,1.3c-0.1,0.5-0.1,1-0.1,1.5
		C387.4,47,387.4,47.5,387.5,48z"/>
	<path class="st0" d="M401.9,52.7l-4.2-12.4h3.6l2.6,8.5h0l2.6-8.5h3.4l-4.2,12.4H401.9z"/>
	<path class="st0" d="M414.7,49.8c0.5,0.5,1.2,0.7,2.2,0.7c0.7,0,1.3-0.2,1.8-0.5c0.5-0.3,0.8-0.7,0.9-1.1h3
		c-0.5,1.5-1.2,2.6-2.2,3.2c-1,0.6-2.2,1-3.6,1c-1,0-1.9-0.2-2.6-0.5c-0.8-0.3-1.4-0.8-2-1.3c-0.5-0.6-1-1.3-1.3-2.1
		s-0.4-1.7-0.4-2.6c0-0.9,0.2-1.8,0.5-2.6c0.3-0.8,0.7-1.5,1.3-2.1c0.6-0.6,1.2-1,2-1.4c0.8-0.3,1.6-0.5,2.6-0.5
		c1.1,0,2,0.2,2.8,0.6c0.8,0.4,1.4,1,1.9,1.6s0.9,1.5,1.1,2.4c0.2,0.9,0.3,1.8,0.2,2.8h-9C413.9,48.5,414.2,49.3,414.7,49.8z
		 M418.6,43.2c-0.4-0.4-1-0.7-1.9-0.7c-0.5,0-1,0.1-1.4,0.3s-0.6,0.4-0.9,0.7s-0.4,0.6-0.5,0.9c-0.1,0.3-0.1,0.6-0.2,0.8h5.5
		C419.3,44.3,419,43.7,418.6,43.2z"/>
	<path class="st0" d="M427.9,40.3v2.3h0c0.2-0.4,0.4-0.7,0.6-1.1c0.3-0.3,0.6-0.6,0.9-0.8c0.4-0.2,0.7-0.4,1.1-0.5
		c0.4-0.1,0.8-0.2,1.2-0.2c0.2,0,0.5,0,0.7,0.1v3.2c-0.2,0-0.4-0.1-0.6-0.1c-0.2,0-0.4,0-0.6,0c-0.6,0-1.2,0.1-1.6,0.3
		c-0.4,0.2-0.8,0.5-1,0.9c-0.3,0.4-0.5,0.8-0.6,1.3c-0.1,0.5-0.2,1-0.2,1.6v5.6h-3.4V40.3H427.9z"/>
	<path class="st0" d="M437,49.8c0.5,0.5,1.2,0.7,2.2,0.7c0.7,0,1.3-0.2,1.8-0.5c0.5-0.3,0.8-0.7,0.9-1.1h3c-0.5,1.5-1.2,2.6-2.2,3.2
		c-1,0.6-2.2,1-3.6,1c-1,0-1.9-0.2-2.6-0.5c-0.8-0.3-1.4-0.8-2-1.3c-0.5-0.6-1-1.3-1.3-2.1s-0.4-1.7-0.4-2.6c0-0.9,0.2-1.8,0.5-2.6
		c0.3-0.8,0.7-1.5,1.3-2.1c0.6-0.6,1.2-1,2-1.4c0.8-0.3,1.6-0.5,2.6-0.5c1.1,0,2,0.2,2.8,0.6c0.8,0.4,1.4,1,1.9,1.6s0.9,1.5,1.1,2.4
		c0.2,0.9,0.3,1.8,0.2,2.8h-9C436.2,48.5,436.4,49.3,437,49.8z M440.8,43.2c-0.4-0.4-1-0.7-1.9-0.7c-0.5,0-1,0.1-1.4,0.3
		s-0.6,0.4-0.9,0.7s-0.4,0.6-0.5,0.9c-0.1,0.3-0.1,0.6-0.2,0.8h5.5C441.5,44.3,441.2,43.7,440.8,43.2z"/>
	<path class="st0" d="M455.7,51.2c-0.4,0.7-0.9,1.2-1.6,1.5c-0.6,0.3-1.4,0.4-2.2,0.4c-0.9,0-1.7-0.2-2.4-0.5
		c-0.7-0.4-1.3-0.8-1.7-1.5c-0.5-0.6-0.8-1.3-1-2.1c-0.2-0.8-0.3-1.6-0.3-2.5c0-0.8,0.1-1.6,0.3-2.4c0.2-0.8,0.6-1.5,1-2.1
		c0.5-0.6,1-1.1,1.7-1.4c0.7-0.4,1.5-0.5,2.4-0.5c0.7,0,1.4,0.2,2.1,0.5c0.7,0.3,1.2,0.8,1.6,1.4h0v-6.2h3.4v17.1h-3.2L455.7,51.2
		L455.7,51.2z M455.5,45c-0.1-0.5-0.3-0.9-0.5-1.2c-0.2-0.4-0.5-0.7-0.9-0.9c-0.4-0.2-0.8-0.3-1.4-0.3c-0.6,0-1,0.1-1.4,0.3
		s-0.7,0.5-0.9,0.9c-0.2,0.4-0.4,0.8-0.5,1.3c-0.1,0.5-0.2,1-0.2,1.5c0,0.5,0.1,1,0.2,1.4c0.1,0.5,0.3,0.9,0.5,1.3s0.6,0.7,0.9,0.9
		c0.4,0.2,0.8,0.3,1.4,0.3c0.6,0,1-0.1,1.4-0.3c0.4-0.2,0.7-0.5,0.9-0.9c0.2-0.4,0.4-0.8,0.5-1.3c0.1-0.5,0.1-1,0.1-1.5
		C455.7,46,455.6,45.5,455.5,45z"/>
</g>
<g>
	<path class="st0" d="M274.9,64.3V66h0c0.4-0.6,1-1.1,1.6-1.5c0.6-0.4,1.4-0.5,2.2-0.5c0.8,0,1.5,0.2,2.1,0.5
		c0.6,0.3,1.1,0.8,1.5,1.6c0.4-0.5,0.9-1,1.5-1.4c0.6-0.4,1.4-0.6,2.2-0.6c0.7,0,1.3,0.1,1.8,0.2c0.6,0.2,1,0.4,1.4,0.8
		c0.4,0.4,0.7,0.8,0.9,1.4c0.2,0.6,0.3,1.3,0.3,2.1v8.3h-3.4v-7c0-0.4,0-0.8,0-1.2c0-0.4-0.1-0.7-0.3-1c-0.1-0.3-0.4-0.5-0.6-0.6
		c-0.3-0.2-0.7-0.2-1.1-0.2s-0.9,0.1-1.2,0.3c-0.3,0.2-0.5,0.4-0.7,0.7s-0.3,0.6-0.3,1c-0.1,0.4-0.1,0.8-0.1,1.1v6.9h-3.4v-7
		c0-0.4,0-0.7,0-1.1c0-0.4-0.1-0.7-0.2-1s-0.3-0.5-0.6-0.7c-0.3-0.2-0.7-0.3-1.2-0.3c-0.2,0-0.4,0-0.6,0.1c-0.3,0.1-0.5,0.2-0.8,0.4
		c-0.2,0.2-0.5,0.5-0.6,0.9c-0.2,0.4-0.3,0.9-0.3,1.5v7.2h-3.4V64.3H274.9z"/>
	<path class="st0" d="M296.8,73.8c0.5,0.5,1.2,0.7,2.2,0.7c0.7,0,1.3-0.2,1.8-0.5c0.5-0.3,0.8-0.7,0.9-1.1h3
		c-0.5,1.5-1.2,2.6-2.2,3.2c-1,0.6-2.2,1-3.6,1c-1,0-1.9-0.2-2.6-0.5c-0.8-0.3-1.4-0.8-2-1.3s-1-1.3-1.3-2.1
		c-0.3-0.8-0.4-1.7-0.4-2.6c0-0.9,0.2-1.8,0.5-2.6c0.3-0.8,0.7-1.5,1.3-2.1c0.6-0.6,1.2-1,2-1.4c0.8-0.3,1.6-0.5,2.6-0.5
		c1.1,0,2,0.2,2.8,0.6c0.8,0.4,1.4,1,1.9,1.6c0.5,0.7,0.9,1.5,1.1,2.4s0.3,1.8,0.2,2.8h-9C296,72.5,296.2,73.3,296.8,73.8z
		 M300.6,67.2c-0.4-0.4-1-0.7-1.9-0.7c-0.5,0-1,0.1-1.4,0.3c-0.4,0.2-0.6,0.4-0.9,0.7c-0.2,0.3-0.4,0.6-0.5,0.9s-0.1,0.6-0.2,0.8
		h5.5C301.3,68.3,301,67.7,300.6,67.2z"/>
	<path class="st0" d="M315.5,75.2c-0.4,0.7-0.9,1.2-1.6,1.5c-0.6,0.3-1.4,0.4-2.2,0.4c-0.9,0-1.7-0.2-2.4-0.5
		c-0.7-0.4-1.3-0.8-1.7-1.5c-0.5-0.6-0.8-1.3-1-2.1c-0.2-0.8-0.3-1.6-0.3-2.5c0-0.8,0.1-1.6,0.3-2.4c0.2-0.8,0.6-1.5,1-2.1
		c0.5-0.6,1-1.1,1.7-1.4s1.5-0.5,2.4-0.5c0.7,0,1.4,0.2,2.1,0.5c0.7,0.3,1.2,0.8,1.6,1.4h0v-6.2h3.4v17.1h-3.2L315.5,75.2
		L315.5,75.2z M315.3,69c-0.1-0.5-0.3-0.9-0.5-1.2s-0.5-0.7-0.9-0.9s-0.8-0.3-1.4-0.3s-1,0.1-1.4,0.3c-0.4,0.2-0.7,0.5-0.9,0.9
		s-0.4,0.8-0.5,1.3c-0.1,0.5-0.2,1-0.2,1.5c0,0.5,0.1,1,0.2,1.4c0.1,0.5,0.3,0.9,0.5,1.3s0.6,0.7,0.9,0.9c0.4,0.2,0.8,0.3,1.4,0.3
		c0.6,0,1-0.1,1.4-0.3c0.4-0.2,0.7-0.5,0.9-0.9s0.4-0.8,0.5-1.3c0.1-0.5,0.1-1,0.1-1.5C315.5,70,315.4,69.5,315.3,69z"/>
	<path class="st0" d="M321.2,62.4v-2.8h3.4v2.8H321.2z M324.6,64.3v12.4h-3.4V64.3H324.6z"/>
	<path class="st0" d="M333,66.6c-0.5,0-1,0.1-1.4,0.4c-0.4,0.2-0.7,0.6-0.9,1c-0.2,0.4-0.4,0.8-0.5,1.3c-0.1,0.5-0.1,0.9-0.1,1.4
		c0,0.4,0,0.9,0.1,1.4c0.1,0.5,0.3,0.9,0.5,1.3c0.2,0.4,0.5,0.7,0.9,0.9c0.4,0.2,0.8,0.4,1.3,0.4c0.8,0,1.4-0.2,1.9-0.7
		c0.4-0.5,0.7-1.1,0.8-1.8h3.3c-0.2,1.6-0.9,2.9-1.9,3.8c-1.1,0.9-2.4,1.3-4.1,1.3c-0.9,0-1.8-0.2-2.6-0.5c-0.8-0.3-1.4-0.7-2-1.3
		c-0.5-0.6-1-1.2-1.3-2c-0.3-0.8-0.5-1.6-0.5-2.6c0-1,0.1-1.9,0.4-2.7c0.3-0.8,0.7-1.5,1.2-2.1s1.2-1.1,2-1.4
		c0.8-0.3,1.7-0.5,2.7-0.5c0.7,0,1.4,0.1,2.1,0.3c0.7,0.2,1.3,0.5,1.8,0.9c0.5,0.4,1,0.9,1.3,1.5s0.5,1.3,0.6,2.1h-3.3
		C335.3,67.3,334.5,66.6,333,66.6z"/>
	<path class="st0" d="M340.5,68.1c0-0.8,0.2-1.5,0.6-2c0.4-0.5,0.8-1,1.3-1.3c0.5-0.3,1.2-0.5,1.8-0.7c0.7-0.1,1.4-0.2,2.1-0.2
		c0.6,0,1.3,0,1.9,0.1c0.6,0.1,1.2,0.3,1.8,0.5c0.5,0.3,1,0.6,1.3,1.1c0.3,0.5,0.5,1.1,0.5,1.8V74c0,0.6,0,1.1,0.1,1.6
		c0.1,0.5,0.2,0.9,0.3,1.2h-3.5c-0.1-0.2-0.1-0.4-0.2-0.6s-0.1-0.4-0.1-0.6c-0.5,0.6-1.2,1-1.9,1.2c-0.7,0.2-1.5,0.3-2.3,0.3
		c-0.6,0-1.1-0.1-1.7-0.2c-0.5-0.1-1-0.4-1.3-0.7c-0.4-0.3-0.7-0.7-0.9-1.2c-0.2-0.5-0.3-1-0.3-1.7c0-0.7,0.1-1.3,0.4-1.7
		c0.2-0.5,0.6-0.8,1-1.1c0.4-0.3,0.8-0.5,1.3-0.6c0.5-0.1,1-0.2,1.5-0.3c0.5-0.1,1-0.1,1.5-0.2c0.5,0,0.9-0.1,1.3-0.2
		c0.4-0.1,0.7-0.2,0.9-0.4c0.2-0.2,0.3-0.5,0.3-0.8c0-0.4-0.1-0.7-0.2-0.9c-0.1-0.2-0.3-0.4-0.5-0.5s-0.4-0.2-0.7-0.2
		c-0.3,0-0.5-0.1-0.9-0.1c-0.7,0-1.2,0.1-1.6,0.4c-0.4,0.3-0.6,0.8-0.7,1.4H340.5z M348.4,70.7c-0.1,0.1-0.3,0.2-0.5,0.3
		c-0.2,0.1-0.4,0.1-0.7,0.2c-0.2,0-0.5,0.1-0.8,0.1s-0.5,0.1-0.8,0.1c-0.3,0-0.5,0.1-0.8,0.2s-0.5,0.2-0.6,0.3
		c-0.2,0.1-0.3,0.3-0.4,0.5c-0.1,0.2-0.2,0.5-0.2,0.8c0,0.3,0.1,0.6,0.2,0.8c0.1,0.2,0.3,0.4,0.5,0.5c0.2,0.1,0.4,0.2,0.7,0.3
		c0.3,0,0.5,0.1,0.8,0.1c0.7,0,1.2-0.1,1.6-0.3c0.4-0.2,0.6-0.5,0.8-0.8c0.2-0.3,0.3-0.6,0.3-0.9c0-0.3,0.1-0.6,0.1-0.8V70.7z"/>
	<path class="st0" d="M357.7,59.6v17.1h-3.4V59.6H357.7z"/>
	<path class="st0" d="M370.3,73.8c0.5,0.5,1.2,0.7,2.2,0.7c0.7,0,1.3-0.2,1.8-0.5c0.5-0.3,0.8-0.7,0.9-1.1h3
		c-0.5,1.5-1.2,2.6-2.2,3.2c-1,0.6-2.2,1-3.6,1c-1,0-1.9-0.2-2.6-0.5c-0.8-0.3-1.4-0.8-2-1.3c-0.5-0.6-1-1.3-1.3-2.1
		s-0.4-1.7-0.4-2.6c0-0.9,0.2-1.8,0.5-2.6c0.3-0.8,0.7-1.5,1.3-2.1c0.6-0.6,1.2-1,2-1.4c0.8-0.3,1.6-0.5,2.6-0.5
		c1.1,0,2,0.2,2.8,0.6s1.4,1,1.9,1.6c0.5,0.7,0.9,1.5,1.1,2.4c0.2,0.9,0.3,1.8,0.2,2.8h-9C369.5,72.5,369.8,73.3,370.3,73.8z
		 M374.1,67.2c-0.4-0.4-1-0.7-1.9-0.7c-0.5,0-1,0.1-1.4,0.3c-0.4,0.2-0.6,0.4-0.9,0.7s-0.4,0.6-0.5,0.9s-0.1,0.6-0.2,0.8h5.5
		C374.8,68.3,374.5,67.7,374.1,67.2z"/>
	<path class="st0" d="M379.3,64.3h3.9l2.2,3.2l2.2-3.2h3.8l-4.1,5.8l4.6,6.6h-3.9l-2.6-3.9l-2.6,3.9h-3.8l4.5-6.5L379.3,64.3z"/>
	<path class="st0" d="M396.1,64.3v1.6h0c0.4-0.7,0.9-1.2,1.6-1.5c0.6-0.3,1.3-0.5,2.1-0.5c1,0,1.8,0.2,2.5,0.6
		c0.7,0.4,1.3,0.9,1.8,1.5c0.5,0.6,0.8,1.3,1,2.1c0.2,0.8,0.3,1.7,0.3,2.5c0,0.8-0.1,1.6-0.3,2.4c-0.2,0.8-0.6,1.4-1,2
		c-0.5,0.6-1,1.1-1.7,1.4c-0.7,0.4-1.5,0.5-2.4,0.5c-0.8,0-1.5-0.2-2.1-0.5c-0.6-0.3-1.2-0.8-1.6-1.4h0v5.9h-3.4V64.3H396.1z
		 M400.5,74.2c0.4-0.2,0.7-0.5,0.9-0.9c0.2-0.4,0.4-0.8,0.5-1.3c0.1-0.5,0.1-1,0.1-1.5s-0.1-1-0.2-1.5c-0.1-0.5-0.3-0.9-0.5-1.3
		s-0.5-0.7-0.9-0.9c-0.4-0.2-0.8-0.3-1.4-0.3c-0.6,0-1,0.1-1.4,0.3c-0.4,0.2-0.7,0.5-0.9,0.9c-0.2,0.4-0.4,0.8-0.5,1.3
		c-0.1,0.5-0.1,1-0.1,1.5c0,0.5,0.1,1,0.2,1.5c0.1,0.5,0.3,0.9,0.5,1.3c0.2,0.4,0.5,0.7,0.9,0.9c0.4,0.2,0.8,0.3,1.4,0.3
		C399.7,74.5,400.2,74.4,400.5,74.2z"/>
	<path class="st0" d="M411,73.8c0.5,0.5,1.2,0.7,2.2,0.7c0.7,0,1.3-0.2,1.8-0.5c0.5-0.3,0.8-0.7,0.9-1.1h3c-0.5,1.5-1.2,2.6-2.2,3.2
		c-1,0.6-2.2,1-3.6,1c-1,0-1.9-0.2-2.6-0.5c-0.8-0.3-1.4-0.8-2-1.3c-0.5-0.6-1-1.3-1.3-2.1s-0.4-1.7-0.4-2.6c0-0.9,0.2-1.8,0.5-2.6
		c0.3-0.8,0.7-1.5,1.3-2.1c0.6-0.6,1.2-1,2-1.4c0.8-0.3,1.6-0.5,2.6-0.5c1.1,0,2,0.2,2.8,0.6s1.4,1,1.9,1.6c0.5,0.7,0.9,1.5,1.1,2.4
		c0.2,0.9,0.3,1.8,0.2,2.8h-9C410.2,72.5,410.5,73.3,411,73.8z M414.8,67.2c-0.4-0.4-1-0.7-1.9-0.7c-0.5,0-1,0.1-1.4,0.3
		c-0.4,0.2-0.6,0.4-0.9,0.7s-0.4,0.6-0.5,0.9s-0.1,0.6-0.2,0.8h5.5C415.5,68.3,415.2,67.7,414.8,67.2z"/>
	<path class="st0" d="M424.1,64.3v1.7h0.1c0.4-0.7,1-1.2,1.7-1.6c0.7-0.3,1.4-0.5,2.1-0.5c0.9,0,1.7,0.1,2.2,0.4s1,0.6,1.4,1
		s0.6,1,0.7,1.6c0.1,0.6,0.2,1.3,0.2,2.1v7.6h-3.4v-7c0-1-0.2-1.8-0.5-2.3s-0.9-0.8-1.7-0.8c-0.9,0-1.6,0.3-2,0.8
		c-0.4,0.6-0.6,1.5-0.6,2.7v6.5h-3.4V64.3H424.1z"/>
	<path class="st0" d="M437.8,73.7c0.2,0.3,0.3,0.5,0.6,0.6s0.5,0.3,0.8,0.4c0.3,0.1,0.6,0.1,1,0.1c0.2,0,0.5,0,0.8-0.1
		c0.3-0.1,0.5-0.1,0.7-0.3c0.2-0.1,0.4-0.3,0.5-0.5c0.1-0.2,0.2-0.5,0.2-0.8c0-0.5-0.3-0.9-1-1.2c-0.7-0.3-1.6-0.5-2.8-0.8
		c-0.5-0.1-1-0.2-1.5-0.4s-0.9-0.4-1.3-0.6c-0.4-0.2-0.7-0.6-0.9-0.9c-0.2-0.4-0.3-0.8-0.3-1.4c0-0.8,0.2-1.5,0.5-2
		c0.3-0.5,0.7-0.9,1.2-1.2c0.5-0.3,1.1-0.5,1.7-0.6c0.6-0.1,1.3-0.2,2-0.2s1.3,0.1,2,0.2s1.2,0.3,1.7,0.6c0.5,0.3,0.9,0.7,1.2,1.2
		s0.5,1.1,0.6,1.9h-3.2c0-0.7-0.3-1.1-0.7-1.3c-0.4-0.2-1-0.3-1.6-0.3c-0.2,0-0.4,0-0.6,0c-0.2,0-0.4,0.1-0.6,0.2
		c-0.2,0.1-0.3,0.2-0.5,0.3s-0.2,0.4-0.2,0.6c0,0.3,0.1,0.6,0.3,0.7c0.2,0.2,0.5,0.3,0.9,0.5c0.4,0.1,0.8,0.2,1.2,0.3
		c0.5,0.1,0.9,0.2,1.4,0.3c0.5,0.1,1,0.2,1.5,0.4s0.9,0.4,1.3,0.6s0.7,0.6,0.9,1c0.2,0.4,0.3,0.9,0.3,1.5c0,0.8-0.2,1.5-0.5,2.1
		c-0.3,0.6-0.8,1-1.3,1.3s-1.1,0.6-1.8,0.7c-0.7,0.1-1.4,0.2-2.1,0.2c-0.7,0-1.4-0.1-2.1-0.2c-0.7-0.1-1.3-0.4-1.8-0.7
		s-1-0.8-1.3-1.3s-0.5-1.2-0.6-2.1h3.2C437.5,73.1,437.6,73.4,437.8,73.7z"/>
	<path class="st0" d="M451.2,73.8c0.5,0.5,1.2,0.7,2.2,0.7c0.7,0,1.3-0.2,1.8-0.5c0.5-0.3,0.8-0.7,0.9-1.1h3
		c-0.5,1.5-1.2,2.6-2.2,3.2c-1,0.6-2.2,1-3.6,1c-1,0-1.9-0.2-2.6-0.5c-0.8-0.3-1.4-0.8-2-1.3c-0.5-0.6-1-1.3-1.3-2.1
		s-0.4-1.7-0.4-2.6c0-0.9,0.2-1.8,0.5-2.6c0.3-0.8,0.7-1.5,1.3-2.1c0.6-0.6,1.2-1,2-1.4c0.8-0.3,1.6-0.5,2.6-0.5
		c1.1,0,2,0.2,2.8,0.6s1.4,1,1.9,1.6c0.5,0.7,0.9,1.5,1.1,2.4c0.2,0.9,0.3,1.8,0.2,2.8h-9C450.4,72.5,450.7,73.3,451.2,73.8z
		 M455.1,67.2c-0.4-0.4-1-0.7-1.9-0.7c-0.5,0-1,0.1-1.4,0.3c-0.4,0.2-0.6,0.4-0.9,0.7s-0.4,0.6-0.5,0.9s-0.1,0.6-0.2,0.8h5.5
		C455.8,68.3,455.5,67.7,455.1,67.2z"/>
	<path class="st0" d="M464,73.7c0.2,0.3,0.3,0.5,0.6,0.6s0.5,0.3,0.8,0.4c0.3,0.1,0.6,0.1,1,0.1c0.2,0,0.5,0,0.8-0.1
		c0.3-0.1,0.5-0.1,0.7-0.3c0.2-0.1,0.4-0.3,0.5-0.5c0.1-0.2,0.2-0.5,0.2-0.8c0-0.5-0.3-0.9-1-1.2c-0.7-0.3-1.6-0.5-2.8-0.8
		c-0.5-0.1-1-0.2-1.5-0.4s-0.9-0.4-1.3-0.6c-0.4-0.2-0.7-0.6-0.9-0.9c-0.2-0.4-0.3-0.8-0.3-1.4c0-0.8,0.2-1.5,0.5-2
		c0.3-0.5,0.7-0.9,1.2-1.2c0.5-0.3,1.1-0.5,1.7-0.6c0.6-0.1,1.3-0.2,2-0.2s1.3,0.1,2,0.2s1.2,0.3,1.7,0.6c0.5,0.3,0.9,0.7,1.2,1.2
		s0.5,1.1,0.6,1.9h-3.2c0-0.7-0.3-1.1-0.7-1.3c-0.4-0.2-1-0.3-1.6-0.3c-0.2,0-0.4,0-0.6,0c-0.2,0-0.4,0.1-0.6,0.2
		c-0.2,0.1-0.3,0.2-0.5,0.3s-0.2,0.4-0.2,0.6c0,0.3,0.1,0.6,0.3,0.7c0.2,0.2,0.5,0.3,0.9,0.5c0.4,0.1,0.8,0.2,1.2,0.3
		c0.5,0.1,0.9,0.2,1.4,0.3c0.5,0.1,1,0.2,1.5,0.4s0.9,0.4,1.3,0.6s0.7,0.6,0.9,1c0.2,0.4,0.3,0.9,0.3,1.5c0,0.8-0.2,1.5-0.5,2.1
		c-0.3,0.6-0.8,1-1.3,1.3s-1.1,0.6-1.8,0.7c-0.7,0.1-1.4,0.2-2.1,0.2c-0.7,0-1.4-0.1-2.1-0.2c-0.7-0.1-1.3-0.4-1.8-0.7
		s-1-0.8-1.3-1.3s-0.5-1.2-0.6-2.1h3.2C463.8,73.1,463.8,73.4,464,73.7z"/>
</g>
</svg>
