<?xml version="1.0" encoding="utf-8"?>
<!-- Generator: Adobe Illustrator 26.5.0, SVG Export Plug-In . SVG Version: 6.00 Build 0)  -->
<svg version="1.1" id="Layer_1" xmlns="http://www.w3.org/2000/svg" xmlns:xlink="http://www.w3.org/1999/xlink" x="0px" y="0px"
	 viewBox="0 0 728 90" style="enable-background:new 0 0 728 90;" xml:space="preserve">
<style type="text/css">
	.st0{fill:#339933;}
	.st1{fill:#FFFFFF;}
</style>
<path class="st0" d="M555.8,14.3c-9.2,0-16.7,7.5-16.7,16.7s7.5,16.7,16.7,16.7h125c9.2,0,16.7-7.5,16.7-16.7s-7.5-16.7-16.7-16.7
	H555.8z"/>
<g>
	<path class="st1" d="M574.4,25v8.1h4.9V35h-7.1V25H574.4z"/>
	<path class="st1" d="M588,25v1.8h-5.3V29h4.8v1.7h-4.8v2.4h5.4V35h-7.6V25H588z"/>
	<path class="st1" d="M594.6,25l3.7,10H596l-0.8-2.2h-3.7l-0.8,2.2h-2.2l3.8-10H594.6z M594.7,31.2l-1.3-3.7h0l-1.3,3.7H594.7z"/>
	<path class="st1" d="M604.6,25c0.4,0,0.9,0.1,1.2,0.2c0.4,0.1,0.7,0.3,0.9,0.6s0.5,0.5,0.6,0.9c0.1,0.3,0.2,0.7,0.2,1.1
		c0,0.6-0.1,1.1-0.4,1.5s-0.7,0.8-1.2,1v0c0.3,0.1,0.5,0.2,0.7,0.3c0.2,0.2,0.3,0.3,0.4,0.5c0.1,0.2,0.2,0.4,0.2,0.7
		c0.1,0.3,0.1,0.5,0.1,0.8c0,0.2,0,0.3,0,0.6c0,0.2,0,0.4,0,0.7c0,0.2,0.1,0.4,0.1,0.6c0.1,0.2,0.1,0.4,0.2,0.5h-2.2
		c-0.1-0.3-0.2-0.7-0.2-1.1c0-0.4-0.1-0.9-0.1-1.3c-0.1-0.5-0.2-0.9-0.5-1.1c-0.2-0.2-0.6-0.4-1.2-0.4h-2.2V35h-2.2V25H604.6z
		 M603.8,29.6c0.5,0,0.9-0.1,1.1-0.3s0.4-0.6,0.4-1.1c0-0.5-0.1-0.8-0.4-1.1s-0.6-0.3-1.1-0.3h-2.4v2.8H603.8z"/>
	<path class="st1" d="M611.5,25l4.2,6.7h0V25h2.1v10h-2.2l-4.2-6.7h0V35h-2.1V25H611.5z"/>
	<path class="st1" d="M626.7,25l2.3,6.9h0l2.2-6.9h3.1v10h-2.1V28h0l-2.5,7.1h-1.7l-2.5-7h0v7h-2.1V25H626.7z"/>
	<path class="st1" d="M636.2,28c0.2-0.6,0.5-1.2,1-1.7s0.9-0.8,1.5-1.1c0.6-0.3,1.3-0.4,2.1-0.4c0.8,0,1.5,0.1,2.1,0.4
		c0.6,0.3,1.1,0.6,1.5,1.1s0.7,1,1,1.7c0.2,0.6,0.3,1.3,0.3,2.1c0,0.7-0.1,1.4-0.3,2c-0.2,0.6-0.5,1.2-1,1.6s-0.9,0.8-1.5,1.1
		c-0.6,0.3-1.3,0.4-2.1,0.4c-0.8,0-1.5-0.1-2.1-0.4c-0.6-0.3-1.1-0.6-1.5-1.1s-0.7-1-1-1.6c-0.2-0.6-0.3-1.3-0.3-2
		C635.8,29.3,635.9,28.6,636.2,28z M638.2,31.3c0.1,0.4,0.3,0.8,0.5,1.1c0.2,0.3,0.5,0.6,0.8,0.8c0.3,0.2,0.8,0.3,1.3,0.3
		c0.5,0,0.9-0.1,1.3-0.3c0.3-0.2,0.6-0.4,0.8-0.8c0.2-0.3,0.4-0.7,0.5-1.1c0.1-0.4,0.1-0.8,0.1-1.2c0-0.4,0-0.9-0.1-1.3
		c-0.1-0.4-0.3-0.8-0.5-1.1c-0.2-0.3-0.5-0.6-0.8-0.8c-0.3-0.2-0.8-0.3-1.3-0.3c-0.5,0-0.9,0.1-1.3,0.3c-0.3,0.2-0.6,0.4-0.8,0.8
		c-0.2,0.3-0.4,0.7-0.5,1.1s-0.1,0.8-0.1,1.3C638,30.5,638.1,30.9,638.2,31.3z"/>
	<path class="st1" d="M652.5,25c0.4,0,0.9,0.1,1.2,0.2c0.4,0.1,0.7,0.3,0.9,0.6s0.5,0.5,0.6,0.9c0.1,0.3,0.2,0.7,0.2,1.1
		c0,0.6-0.1,1.1-0.4,1.5s-0.7,0.8-1.2,1v0c0.3,0.1,0.5,0.2,0.7,0.3c0.2,0.2,0.3,0.3,0.4,0.5c0.1,0.2,0.2,0.4,0.2,0.7
		c0.1,0.3,0.1,0.5,0.1,0.8c0,0.2,0,0.3,0,0.6c0,0.2,0,0.4,0,0.7c0,0.2,0.1,0.4,0.1,0.6c0.1,0.2,0.1,0.4,0.2,0.5h-2.2
		c-0.1-0.3-0.2-0.7-0.2-1.1c0-0.4-0.1-0.9-0.1-1.3c-0.1-0.5-0.2-0.9-0.5-1.1c-0.2-0.2-0.6-0.4-1.2-0.4h-2.2V35h-2.2V25H652.5z
		 M651.8,29.6c0.5,0,0.9-0.1,1.1-0.3s0.4-0.6,0.4-1.1c0-0.5-0.1-0.8-0.4-1.1s-0.6-0.3-1.1-0.3h-2.4v2.8H651.8z"/>
	<path class="st1" d="M664.7,25v1.8h-5.3V29h4.8v1.7h-4.8v2.4h5.4V35h-7.6V25H664.7z"/>
</g>
</svg>
