<?xml version="1.0" encoding="utf-8"?>
<!-- Generator: Adobe Illustrator 26.5.0, SVG Export Plug-In . SVG Version: 6.00 Build 0)  -->
<svg version="1.1" id="Layer_1" xmlns="http://www.w3.org/2000/svg" xmlns:xlink="http://www.w3.org/1999/xlink" x="0px" y="0px"
	 viewBox="0 0 728 90" style="enable-background:new 0 0 728 90;" xml:space="preserve">
<style type="text/css">
	.st0{fill:#349946;}
	.st1{fill:#231F20;}
	.st2{fill:none;}
</style>
<path class="st0" d="M30.2,63.9h-2.5l-0.8-2.3h-4.9l-0.8,2.3h-2.5l4.3-11.4h1.8c0.6,0,1,0.2,1.1,0.6c0.2,0.4,2.1,5.5,2.1,5.5h-2.3
	l-1.4-3.8l-1.8,4.8h4.9c0.7,0,1,0.2,1.2,0.8L30.2,63.9z"/>
<path class="st0" d="M51.7,63.9h-2.5l-0.8-2.3h-4.9l-0.8,2.3h-2.5l4.3-11.4h1.8c0.6,0,1,0.2,1.1,0.6c0.2,0.4,2.1,5.5,2.1,5.5h-2.3
	L46,54.8l-1.8,4.8h4.9c0.7,0,1,0.2,1.2,0.8L51.7,63.9z"/>
<path class="st0" d="M31,52.5h4.5c3.5,0,5.2,1.9,5.2,5.7c0,2.1-0.7,3.7-1.9,4.7c-1.1,0.9-2.3,1-4,1H31V52.5z M35.1,61.9
	c2.2,0,3.1-1.1,3.1-3.6c0-2.5-0.9-3.7-2.8-3.7h-2.2v7.3H35.1z"/>
<g>
	<path class="st1" d="M71,63.8h-1.8l-0.7-8.1l-2.8,8.1h-1.5l-2.8-8.1l-0.7,8.1H59l1-10.8h2l2.9,8.3l2.8-8.3h2L71,63.8z"/>
	<path class="st1" d="M79.8,59.8c0,0.1,0,0.2,0,0.4s0,0.2,0,0.3h-5.3c0,0.6,0.2,1,0.5,1.5c0.4,0.5,1,0.7,1.7,0.7
		c0.6,0,1.4-0.2,2.2-0.6l0.6,1.2c-0.8,0.6-1.8,0.9-2.9,0.9c-1.2,0-2.2-0.4-2.8-1.2c-0.7-0.7-1-1.7-1-2.9c0-1.2,0.3-2.2,1-3
		s1.6-1.2,2.7-1.2c1.1,0,1.9,0.4,2.5,1.1C79.5,57.5,79.8,58.5,79.8,59.8z M78.2,59.1c0-0.5-0.1-0.9-0.3-1.3
		c-0.3-0.5-0.8-0.8-1.4-0.8c-0.5,0-1,0.2-1.4,0.6s-0.6,0.9-0.7,1.5H78.2z"/>
	<path class="st1" d="M92.7,63.8H91v-4.5c0-0.9-0.1-1.5-0.3-1.7c-0.2-0.3-0.5-0.4-1-0.4c-0.5,0-1.1,0.2-1.8,0.6
		c0.1,0.2,0.1,0.8,0.1,1.8v4.2h-1.8v-4.3c0-1-0.1-1.7-0.4-1.9c-0.2-0.2-0.5-0.3-0.9-0.3c-0.6,0-1.1,0.2-1.7,0.5v6h-1.8v-7.9h1.6v0.6
		c0.7-0.5,1.5-0.8,2.3-0.8c0.8,0,1.5,0.3,1.9,0.9c0.9-0.6,1.8-0.9,2.6-0.9c0.8,0,1.5,0.2,2,0.7c0.4,0.4,0.6,0.9,0.7,1.5
		c0.1,0.4,0.1,1,0.1,2V63.8z"/>
	<path class="st1" d="M101.9,59.7c0,1.3-0.4,2.3-1.1,3.1c-0.8,0.8-1.8,1.2-3,1.2c-0.9,0-1.9-0.2-3.1-0.6V52.1h1.8v4.2
		c0.6-0.4,1.3-0.6,2-0.6c1,0,1.8,0.4,2.5,1.1C101.6,57.5,101.9,58.5,101.9,59.7z M100.1,59.7c0-0.8-0.2-1.4-0.6-1.9
		c-0.4-0.4-0.8-0.6-1.4-0.6c-0.6,0-1.1,0.2-1.7,0.6v4.6c0.5,0.1,0.9,0.2,1.3,0.2c0.7,0,1.3-0.3,1.7-0.8
		C99.9,61.3,100.1,60.6,100.1,59.7z"/>
	<path class="st1" d="M110.4,59.8c0,0.1,0,0.2,0,0.4s0,0.2,0,0.3H105c0,0.6,0.2,1,0.5,1.5c0.4,0.5,1,0.7,1.7,0.7
		c0.6,0,1.4-0.2,2.2-0.6l0.6,1.2c-0.8,0.6-1.8,0.9-2.9,0.9c-1.2,0-2.2-0.4-2.8-1.2c-0.7-0.7-1-1.7-1-2.9c0-1.2,0.3-2.2,1-3
		s1.6-1.2,2.7-1.2c1.1,0,1.9,0.4,2.5,1.1C110.1,57.5,110.4,58.5,110.4,59.8z M108.7,59.1c0-0.5-0.1-0.9-0.3-1.3
		c-0.3-0.5-0.8-0.8-1.4-0.8c-0.5,0-1,0.2-1.4,0.6s-0.6,0.9-0.7,1.5H108.7z"/>
	<path class="st1" d="M117.1,55.9l-0.4,1.4c-0.2,0-0.3,0-0.5,0c-1,0-1.7,0.4-2.3,1.2v5.4h-1.8v-7.9h1.6v1c0.1-0.2,0.4-0.4,0.7-0.6
		c0.6-0.4,1.2-0.6,1.9-0.6C116.5,55.7,116.8,55.8,117.1,55.9z"/>
</g>
<g>
	<path class="st1" d="M123.5,61.6c0,0.8-0.3,1.4-0.8,1.8c-0.6,0.4-1.3,0.7-2.2,0.7c-0.7,0-1.4-0.1-2-0.4c-0.4-0.2-0.7-0.3-0.8-0.5
		l0.6-1.2c0.8,0.4,1.5,0.6,2.1,0.6c0.4,0,0.8-0.1,1-0.3c0.2-0.2,0.4-0.4,0.4-0.7c0-0.3-0.2-0.5-0.5-0.7c-0.1-0.1-0.6-0.3-1.2-0.6
		c-0.6-0.3-1.1-0.5-1.4-0.8c-0.5-0.4-0.7-0.9-0.7-1.6c0-0.7,0.3-1.3,0.8-1.7c0.5-0.4,1.2-0.6,2.1-0.6c1.1,0,2,0.2,2.6,0.7l-0.6,1.1
		c-0.6-0.4-1.2-0.5-1.8-0.5c-0.8,0-1.3,0.3-1.3,0.9c0,0.3,0.1,0.5,0.4,0.7c0.2,0.1,0.5,0.3,1,0.5c0.8,0.3,1.3,0.6,1.6,0.8
		C123.3,60.3,123.5,60.9,123.5,61.6z"/>
	<path class="st1" d="M131.3,63.8h-1.9V53.1h1.9V63.8z"/>
	<path class="st1" d="M140.2,63.8h-1.8v-4.3c0-1-0.1-1.7-0.4-1.9c-0.2-0.2-0.6-0.4-1-0.4c-0.5,0-1.1,0.2-1.8,0.6v6h-1.8v-7.9h1.6
		v0.6c0.7-0.5,1.5-0.8,2.3-0.8c0.8,0,1.5,0.2,2,0.7c0.4,0.4,0.6,0.8,0.7,1.4c0.1,0.3,0.1,0.9,0.1,1.6V63.8z"/>
	<path class="st1" d="M147.5,61.6c0,0.8-0.3,1.4-0.8,1.8c-0.6,0.4-1.3,0.7-2.2,0.7c-0.7,0-1.4-0.1-2-0.4c-0.4-0.2-0.7-0.3-0.8-0.5
		l0.6-1.2c0.8,0.4,1.5,0.6,2.1,0.6c0.4,0,0.8-0.1,1-0.3c0.2-0.2,0.4-0.4,0.4-0.7c0-0.3-0.2-0.5-0.5-0.7c-0.1-0.1-0.6-0.3-1.2-0.6
		c-0.6-0.3-1.1-0.5-1.4-0.8c-0.5-0.4-0.7-0.9-0.7-1.6c0-0.7,0.3-1.3,0.8-1.7c0.5-0.4,1.2-0.6,2.1-0.6c1.1,0,2,0.2,2.6,0.7l-0.6,1.1
		c-0.6-0.4-1.2-0.5-1.8-0.5c-0.8,0-1.3,0.3-1.3,0.9c0,0.3,0.1,0.5,0.4,0.7c0.2,0.1,0.5,0.3,1,0.5c0.8,0.3,1.3,0.6,1.6,0.8
		C147.2,60.3,147.5,60.9,147.5,61.6z"/>
	<path class="st1" d="M155.9,63.8h-1.6v-0.6c-0.7,0.5-1.5,0.8-2.3,0.8c-0.8,0-1.5-0.2-2-0.7c-0.4-0.4-0.6-0.8-0.7-1.4
		c-0.1-0.3-0.1-0.9-0.1-1.6v-4.4h1.8v4.3c0,0.5,0,0.9,0,1.1c0.1,0.4,0.2,0.8,0.4,0.9c0.2,0.2,0.5,0.3,0.9,0.3c0.5,0,1-0.2,1.7-0.6
		v-6h1.8V63.8z"/>
	<path class="st1" d="M162.9,55.9l-0.4,1.4c-0.2,0-0.3,0-0.5,0c-1,0-1.7,0.4-2.3,1.2v5.4H158v-7.9h1.6v1c0.1-0.2,0.4-0.4,0.7-0.6
		c0.6-0.4,1.2-0.6,1.9-0.6C162.4,55.7,162.7,55.8,162.9,55.9z"/>
</g>
<g>
	<path class="st1" d="M169.9,63.8h-1.6v-0.6c-0.8,0.5-1.6,0.7-2.3,0.7c-0.8,0-1.4-0.2-1.8-0.7c-0.5-0.5-0.7-1.1-0.7-1.8
		c0-1.8,1.5-2.8,4.4-2.8h0.3v-0.3c0-0.5-0.1-0.8-0.3-1c-0.2-0.2-0.7-0.4-1.3-0.4c-0.7,0-1.4,0.2-2.1,0.6l-0.6-1.1
		c0.2-0.2,0.5-0.3,0.8-0.5c0.6-0.3,1.3-0.4,2.1-0.4c1.1,0,1.9,0.3,2.5,0.8c0.3,0.3,0.5,0.6,0.5,1c0.1,0.3,0.1,0.7,0.1,1.4V63.8z
		 M168.2,62.1V60h-0.4c-1.2,0-2.1,0.2-2.5,0.6c-0.2,0.2-0.3,0.5-0.3,0.8c0,0.4,0.1,0.7,0.4,0.9c0.3,0.2,0.6,0.3,1,0.3
		C167,62.6,167.6,62.4,168.2,62.1z"/>
	<path class="st1" d="M178.5,63.8h-1.8v-4.3c0-1-0.1-1.7-0.4-1.9c-0.2-0.2-0.6-0.4-1-0.4c-0.5,0-1.1,0.2-1.8,0.6v6h-1.8v-7.9h1.6
		v0.6c0.7-0.5,1.5-0.8,2.3-0.8c0.8,0,1.5,0.2,2,0.7c0.4,0.4,0.6,0.8,0.7,1.4c0.1,0.3,0.1,0.9,0.1,1.6V63.8z"/>
	<path class="st1" d="M186.9,63.1c-0.1,0.1-0.4,0.3-0.8,0.5c-0.7,0.3-1.4,0.4-2.1,0.4c-1.2,0-2.1-0.4-2.9-1.1
		c-0.7-0.7-1.1-1.7-1.1-2.9c0-1.2,0.4-2.3,1.2-3.1c0.8-0.8,1.8-1.2,2.9-1.2c0.7,0,1.3,0.1,1.9,0.4c0.4,0.2,0.6,0.3,0.8,0.5l-0.7,1.1
		c-0.5-0.4-1.1-0.5-1.8-0.5c-0.7,0-1.3,0.3-1.8,0.8c-0.4,0.5-0.6,1.1-0.6,1.8c0,0.8,0.2,1.4,0.6,1.9c0.4,0.5,1,0.7,1.7,0.7
		c0.6,0,1.3-0.2,2-0.6L186.9,63.1z"/>
</g>
<g>
	<path class="st1" d="M194.8,59.8c0,0.1,0,0.2,0,0.4s0,0.2,0,0.3h-5.3c0,0.6,0.2,1,0.5,1.5c0.4,0.5,1,0.7,1.7,0.7
		c0.6,0,1.4-0.2,2.2-0.6l0.6,1.2c-0.8,0.6-1.8,0.9-2.9,0.9c-1.2,0-2.2-0.4-2.8-1.2c-0.7-0.7-1-1.7-1-2.9c0-1.2,0.3-2.2,1-3
		s1.6-1.2,2.7-1.2c1.1,0,1.9,0.4,2.5,1.1C194.5,57.5,194.8,58.5,194.8,59.8z M193.2,59.1c0-0.5-0.1-0.9-0.3-1.3
		c-0.3-0.5-0.8-0.8-1.4-0.8c-0.5,0-1,0.2-1.4,0.6s-0.6,0.9-0.7,1.5H193.2z"/>
	<path class="st1" d="M207.8,56.3c0,1-0.3,1.8-0.9,2.4c-0.5,0.5-1,0.7-1.7,0.9c-0.4,0.1-1.1,0.1-2,0.1h-0.8v4.1h-1.8V53.1h2.9
		c0.9,0,1.5,0,2,0.1c0.6,0.1,1.1,0.4,1.5,0.8C207.5,54.6,207.8,55.3,207.8,56.3z M205.9,56.3c0-0.6-0.2-1-0.5-1.4
		c-0.3-0.3-1-0.4-2-0.4h-1v3.7h0.8c1.2,0,1.9-0.2,2.3-0.5S205.9,56.9,205.9,56.3z"/>
	<path class="st1" d="M211.5,63.8h-1.8V52.1h1.8V63.8z"/>
	<path class="st1" d="M219.6,63.8H218v-0.6c-0.8,0.5-1.6,0.7-2.3,0.7c-0.8,0-1.4-0.2-1.8-0.7c-0.5-0.5-0.7-1.1-0.7-1.8
		c0-1.8,1.5-2.8,4.4-2.8h0.3v-0.3c0-0.5-0.1-0.8-0.3-1c-0.2-0.2-0.7-0.4-1.3-0.4c-0.7,0-1.4,0.2-2.1,0.6l-0.6-1.1
		c0.2-0.2,0.5-0.3,0.8-0.5c0.6-0.3,1.3-0.4,2.1-0.4c1.1,0,1.9,0.3,2.5,0.8c0.3,0.3,0.5,0.6,0.5,1c0.1,0.3,0.1,0.7,0.1,1.4V63.8z
		 M217.9,62.1V60h-0.4c-1.2,0-2.1,0.2-2.5,0.6c-0.2,0.2-0.3,0.5-0.3,0.8c0,0.4,0.1,0.7,0.4,0.9c0.3,0.2,0.6,0.3,1,0.3
		C216.7,62.6,217.2,62.4,217.9,62.1z"/>
	<path class="st1" d="M228.2,63.8h-1.8v-4.3c0-1-0.1-1.7-0.4-1.9c-0.2-0.2-0.6-0.4-1-0.4c-0.5,0-1.1,0.2-1.8,0.6v6h-1.8v-7.9h1.6
		v0.6c0.7-0.5,1.5-0.8,2.3-0.8c0.8,0,1.5,0.2,2,0.7c0.4,0.4,0.6,0.8,0.7,1.4c0.1,0.3,0.1,0.9,0.1,1.6V63.8z"/>
	<path class="st1" d="M235.5,61.6c0,0.8-0.3,1.4-0.8,1.8c-0.6,0.4-1.3,0.7-2.2,0.7c-0.7,0-1.4-0.1-2-0.4c-0.4-0.2-0.7-0.3-0.8-0.5
		l0.6-1.2c0.8,0.4,1.5,0.6,2.1,0.6c0.4,0,0.8-0.1,1-0.3c0.2-0.2,0.4-0.4,0.4-0.7c0-0.3-0.2-0.5-0.5-0.7c-0.1-0.1-0.6-0.3-1.2-0.6
		c-0.6-0.3-1.1-0.5-1.4-0.8c-0.5-0.4-0.7-0.9-0.7-1.6c0-0.7,0.3-1.3,0.8-1.7c0.5-0.4,1.2-0.6,2.1-0.6c1.1,0,2,0.2,2.6,0.7l-0.6,1.1
		c-0.6-0.4-1.2-0.5-1.8-0.5c-0.8,0-1.3,0.3-1.3,0.9c0,0.3,0.1,0.5,0.4,0.7c0.2,0.1,0.5,0.3,1,0.5c0.8,0.3,1.3,0.6,1.6,0.8
		C235.2,60.3,235.5,60.9,235.5,61.6z"/>
</g>
<path class="st0" d="M53.3,64c-0.8,0-1.4-0.6-1.4-1.4c0-0.8,0.6-1.4,1.4-1.4c0.8,0,1.4,0.6,1.4,1.4C54.7,63.4,54.1,64,53.3,64
	 M53.3,61.6c-0.6,0-1,0.4-1,1c0,0.6,0.5,1,1,1c0.6,0,1-0.4,1-1C54.4,62,53.9,61.6,53.3,61.6 M53.7,63.3l-0.2-0.4
	c-0.1-0.2-0.1-0.2-0.3-0.2h0v0.6h-0.3v-1.4h0.4c0.2,0,0.3,0,0.4,0.1c0.1,0.1,0.1,0.2,0.1,0.3c0,0.1-0.1,0.3-0.2,0.3
	c0.1,0,0.1,0.1,0.1,0.2l0.2,0.5H53.7z M53.4,62.2c-0.1,0-0.1,0-0.2,0h-0.1v0.3c0.1,0,0.2,0,0.3,0c0.1,0,0.2-0.1,0.2-0.2
	C53.6,62.2,53.5,62.2,53.4,62.2"/>
<rect x="18.8" y="50.4" class="st2" width="217" height="14.9"/>
</svg>
