<?xml version="1.0" encoding="utf-8"?>
<!-- Generator: Adobe Illustrator 25.4.6, SVG Export Plug-In . SVG Version: 6.00 Build 0)  -->
<svg version="1.1" id="Layer_1" xmlns="http://www.w3.org/2000/svg" xmlns:xlink="http://www.w3.org/1999/xlink" x="0px" y="0px"
	 viewBox="0 0 300 250" style="enable-background:new 0 0 300 250;" xml:space="preserve">
<style type="text/css">
	.st0{fill:#339933;}
	.st1{fill:#373535;}
</style>
<g>
	<path class="st0" d="M25.8,77c1.3,0,2.5,0.2,3.6,0.6c1.1,0.4,2.1,1,2.9,1.8s1.4,1.8,1.9,3.1c0.5,1.2,0.7,2.7,0.7,4.3
		c0,1.5-0.2,2.8-0.6,4s-0.9,2.3-1.7,3.2s-1.7,1.6-2.8,2.1c-1.1,0.5-2.5,0.8-4,0.8h-8.6V77H25.8z M25.5,93.3c0.6,0,1.3-0.1,1.8-0.3
		c0.6-0.2,1.1-0.5,1.6-1c0.5-0.5,0.8-1.1,1.1-1.9c0.3-0.8,0.4-1.7,0.4-2.8c0-1-0.1-1.9-0.3-2.7s-0.5-1.5-1-2.1c-0.4-0.6-1-1-1.8-1.3
		s-1.6-0.5-2.7-0.5h-3.1v12.6H25.5z"/>
	<path class="st0" d="M37.8,82.9c0.4-1.3,1.1-2.4,1.9-3.3s1.9-1.7,3.1-2.2c1.2-0.5,2.6-0.8,4.1-0.8c1.5,0,2.9,0.3,4.1,0.8
		c1.2,0.5,2.2,1.3,3.1,2.2c0.8,1,1.5,2.1,1.9,3.3c0.4,1.3,0.7,2.7,0.7,4.2c0,1.5-0.2,2.8-0.7,4.1c-0.4,1.3-1.1,2.4-1.9,3.3
		c-0.8,0.9-1.9,1.7-3.1,2.2c-1.2,0.5-2.6,0.8-4.1,0.8c-1.5,0-2.9-0.3-4.1-0.8c-1.2-0.5-2.3-1.3-3.1-2.2c-0.8-0.9-1.5-2-1.9-3.3
		c-0.4-1.3-0.7-2.6-0.7-4.1C37.1,85.6,37.3,84.2,37.8,82.9z M41.8,89.5c0.2,0.8,0.5,1.5,0.9,2.1c0.4,0.6,1,1.1,1.7,1.5
		c0.7,0.4,1.5,0.6,2.5,0.6c1,0,1.8-0.2,2.5-0.6c0.7-0.4,1.3-0.9,1.7-1.5s0.7-1.3,0.9-2.1c0.2-0.8,0.3-1.6,0.3-2.5
		c0-0.9-0.1-1.7-0.3-2.5c-0.2-0.8-0.5-1.6-0.9-2.2c-0.4-0.6-1-1.2-1.7-1.5c-0.7-0.4-1.5-0.6-2.5-0.6c-1,0-1.8,0.2-2.5,0.6
		c-0.7,0.4-1.3,0.9-1.7,1.5c-0.4,0.6-0.7,1.4-0.9,2.2c-0.2,0.8-0.3,1.7-0.3,2.5C41.5,87.9,41.6,88.7,41.8,89.5z"/>
	<path class="st0" d="M64.1,77l8.3,13.4h0.1V77h4.1v20h-4.4l-8.3-13.4h-0.1V97h-4.1V77H64.1z"/>
	<path class="st0" d="M84.4,77v4.3c0,0.6-0.1,1.2-0.3,1.7c-0.2,0.5-0.5,1-0.8,1.4c-0.4,0.4-0.8,0.8-1.3,1c-0.5,0.3-1,0.4-1.6,0.5
		v-1.8c0.7-0.2,1.2-0.6,1.5-1.1c0.3-0.5,0.4-1.1,0.4-1.8h-1.8V77H84.4z"/>
	<path class="st0" d="M86.7,80.7V77h16.4v3.7h-6V97h-4.4V80.7H86.7z"/>
	<path class="st0" d="M116.7,77v7.3h0.1c0.5-0.7,1.1-1.3,2-1.6c0.8-0.3,1.7-0.5,2.6-0.5c0.7,0,1.4,0.1,2.2,0.4
		c0.7,0.3,1.3,0.8,1.9,1.4c0.6,0.6,1,1.4,1.4,2.4c0.4,1,0.5,2.1,0.5,3.4c0,1.3-0.2,2.5-0.5,3.4s-0.8,1.8-1.4,2.4
		c-0.6,0.6-1.2,1.1-1.9,1.4c-0.7,0.3-1.4,0.4-2.2,0.4c-1.1,0-2-0.2-2.9-0.5s-1.5-0.9-1.9-1.7h-0.1V97h-3.8V77H116.7z M123.2,88
		c-0.1-0.6-0.3-1.1-0.6-1.5c-0.3-0.4-0.6-0.8-1-1c-0.4-0.3-0.9-0.4-1.5-0.4c-0.6,0-1.1,0.1-1.5,0.4c-0.4,0.3-0.8,0.6-1.1,1
		c-0.3,0.4-0.5,0.9-0.6,1.5c-0.1,0.6-0.2,1.1-0.2,1.8c0,0.6,0.1,1.2,0.2,1.7c0.1,0.6,0.3,1.1,0.6,1.5c0.3,0.4,0.6,0.8,1.1,1
		c0.4,0.3,0.9,0.4,1.5,0.4c0.6,0,1.1-0.1,1.5-0.4c0.4-0.3,0.8-0.6,1-1c0.3-0.4,0.5-0.9,0.6-1.5c0.1-0.6,0.2-1.1,0.2-1.7
		C123.4,89.1,123.3,88.6,123.2,88z"/>
	<path class="st0" d="M130,80.3V77h4v3.3H130z M133.9,82.5V97h-4V82.5H133.9z"/>
	<path class="st0" d="M145,82.5v2.7h-2.9v7.2c0,0.7,0.1,1.1,0.3,1.3c0.2,0.2,0.7,0.3,1.3,0.3c0.2,0,0.4,0,0.6,0c0.2,0,0.4,0,0.6-0.1
		V97c-0.3,0.1-0.7,0.1-1.1,0.1s-0.8,0-1.2,0c-0.6,0-1.2,0-1.8-0.1s-1-0.2-1.5-0.5c-0.4-0.2-0.8-0.6-1-1c-0.2-0.4-0.4-1-0.4-1.8v-8.5
		h-2.4v-2.7h2.4v-4.3h4v4.3H145z"/>
	<path class="st0" d="M151.2,93.5c0.6,0.6,1.5,0.9,2.6,0.9c0.8,0,1.5-0.2,2.1-0.6c0.6-0.4,0.9-0.8,1.1-1.3h3.5
		c-0.6,1.7-1.4,3-2.6,3.7c-1.2,0.7-2.6,1.1-4.2,1.1c-1.1,0-2.2-0.2-3.1-0.5c-0.9-0.4-1.7-0.9-2.3-1.6c-0.6-0.7-1.1-1.5-1.5-2.4
		c-0.3-0.9-0.5-2-0.5-3.1c0-1.1,0.2-2.1,0.5-3c0.4-0.9,0.9-1.7,1.5-2.4c0.7-0.7,1.4-1.2,2.3-1.6c0.9-0.4,1.9-0.6,3-0.6
		c1.2,0,2.3,0.2,3.2,0.7c0.9,0.5,1.7,1.1,2.3,1.9s1,1.7,1.3,2.7c0.3,1,0.4,2.1,0.3,3.2h-10.4C150.3,92,150.6,92.9,151.2,93.5z
		 M155.7,85.9c-0.5-0.5-1.2-0.8-2.2-0.8c-0.6,0-1.2,0.1-1.6,0.3c-0.4,0.2-0.8,0.5-1,0.8s-0.4,0.7-0.5,1c-0.1,0.4-0.2,0.7-0.2,1h6.5
		C156.5,87.2,156.2,86.4,155.7,85.9z"/>
	<path class="st0" d="M178.7,82.5v2.7h-2.9v7.2c0,0.7,0.1,1.1,0.3,1.3c0.2,0.2,0.7,0.3,1.3,0.3c0.2,0,0.4,0,0.6,0
		c0.2,0,0.4,0,0.6-0.1V97c-0.3,0.1-0.7,0.1-1.1,0.1s-0.8,0-1.2,0c-0.6,0-1.2,0-1.8-0.1s-1-0.2-1.5-0.5c-0.4-0.2-0.8-0.6-1-1
		c-0.2-0.4-0.4-1-0.4-1.8v-8.5h-2.4v-2.7h2.4v-4.3h4v4.3H178.7z"/>
	<path class="st0" d="M184.6,77v7.5h0.1c0.5-0.8,1.1-1.5,1.9-1.8c0.8-0.4,1.5-0.6,2.3-0.6c1.1,0,1.9,0.1,2.6,0.4
		c0.7,0.3,1.2,0.7,1.6,1.2c0.4,0.5,0.7,1.1,0.8,1.9c0.2,0.7,0.2,1.6,0.2,2.5V97h-4v-8.2c0-1.2-0.2-2.1-0.6-2.7s-1-0.9-2-0.9
		c-1.1,0-1.9,0.3-2.4,1s-0.7,1.7-0.7,3.2V97h-4V77H184.6z"/>
	<path class="st0" d="M201.5,93.5c0.6,0.6,1.5,0.9,2.6,0.9c0.8,0,1.5-0.2,2.1-0.6c0.6-0.4,0.9-0.8,1.1-1.3h3.5
		c-0.6,1.7-1.4,3-2.6,3.7c-1.2,0.7-2.6,1.1-4.2,1.1c-1.1,0-2.2-0.2-3.1-0.5c-0.9-0.4-1.7-0.9-2.3-1.6c-0.6-0.7-1.1-1.5-1.5-2.4
		c-0.3-0.9-0.5-2-0.5-3.1c0-1.1,0.2-2.1,0.5-3c0.4-0.9,0.9-1.7,1.5-2.4c0.7-0.7,1.4-1.2,2.3-1.6c0.9-0.4,1.9-0.6,3-0.6
		c1.2,0,2.3,0.2,3.2,0.7c0.9,0.5,1.7,1.1,2.3,1.9s1,1.7,1.3,2.7c0.3,1,0.4,2.1,0.3,3.2h-10.4C200.6,92,200.9,92.9,201.5,93.5z
		 M206,85.9c-0.5-0.5-1.2-0.8-2.2-0.8c-0.6,0-1.2,0.1-1.6,0.3c-0.4,0.2-0.8,0.5-1,0.8s-0.4,0.7-0.5,1c-0.1,0.4-0.2,0.7-0.2,1h6.5
		C206.8,87.2,206.5,86.4,206,85.9z"/>
	<path class="st0" d="M225.1,77v7.5h0.1c0.5-0.8,1.1-1.5,1.9-1.8c0.8-0.4,1.5-0.6,2.3-0.6c1.1,0,1.9,0.1,2.6,0.4
		c0.7,0.3,1.2,0.7,1.6,1.2c0.4,0.5,0.7,1.1,0.8,1.9c0.2,0.7,0.2,1.6,0.2,2.5V97h-4v-8.2c0-1.2-0.2-2.1-0.6-2.7s-1-0.9-2-0.9
		c-1.1,0-1.9,0.3-2.4,1s-0.7,1.7-0.7,3.2V97h-4V77H225.1z"/>
	<path class="st0" d="M237.5,87c0.1-0.9,0.3-1.7,0.7-2.3c0.4-0.6,0.9-1.1,1.6-1.5c0.6-0.4,1.3-0.6,2.1-0.8c0.8-0.2,1.6-0.2,2.4-0.2
		c0.7,0,1.5,0.1,2.2,0.2c0.7,0.1,1.4,0.3,2,0.6c0.6,0.3,1.1,0.7,1.5,1.2c0.4,0.5,0.6,1.2,0.6,2.1v7.5c0,0.7,0,1.3,0.1,1.9
		c0.1,0.6,0.2,1,0.4,1.3h-4c-0.1-0.2-0.1-0.5-0.2-0.7c0-0.2-0.1-0.5-0.1-0.7c-0.6,0.7-1.4,1.1-2.2,1.4s-1.7,0.4-2.6,0.4
		c-0.7,0-1.3-0.1-1.9-0.3s-1.1-0.4-1.6-0.8s-0.8-0.8-1-1.3c-0.3-0.5-0.4-1.2-0.4-1.9c0-0.8,0.1-1.5,0.4-2c0.3-0.5,0.7-1,1.1-1.3
		c0.5-0.3,1-0.6,1.6-0.7c0.6-0.2,1.2-0.3,1.8-0.4c0.6-0.1,1.2-0.2,1.8-0.2c0.6-0.1,1.1-0.1,1.5-0.3c0.4-0.1,0.8-0.3,1.1-0.5
		c0.3-0.2,0.4-0.5,0.4-0.9c0-0.4-0.1-0.8-0.2-1c-0.1-0.3-0.3-0.4-0.6-0.6s-0.5-0.2-0.8-0.3c-0.3,0-0.6-0.1-1-0.1
		c-0.8,0-1.4,0.2-1.8,0.5c-0.4,0.3-0.7,0.9-0.8,1.7H237.5z M246.7,89.9c-0.2,0.1-0.4,0.3-0.6,0.4s-0.5,0.2-0.8,0.2
		c-0.3,0.1-0.6,0.1-0.9,0.1s-0.6,0.1-1,0.1c-0.3,0.1-0.6,0.1-0.9,0.2c-0.3,0.1-0.5,0.2-0.8,0.4c-0.2,0.2-0.4,0.4-0.5,0.6
		c-0.1,0.2-0.2,0.6-0.2,0.9c0,0.4,0.1,0.7,0.2,0.9c0.1,0.2,0.3,0.4,0.5,0.6c0.2,0.1,0.5,0.2,0.8,0.3s0.6,0.1,0.9,0.1
		c0.8,0,1.4-0.1,1.8-0.4c0.4-0.3,0.7-0.6,1-0.9c0.2-0.4,0.3-0.7,0.4-1.1c0-0.4,0.1-0.7,0.1-0.9V89.9z"/>
	<path class="st0" d="M257.6,82.5v2h0.1c0.5-0.8,1.2-1.5,2-1.8c0.8-0.4,1.6-0.6,2.5-0.6c1.1,0,1.9,0.1,2.6,0.4
		c0.7,0.3,1.2,0.7,1.6,1.2c0.4,0.5,0.7,1.1,0.8,1.9c0.2,0.7,0.2,1.6,0.2,2.5V97h-4v-8.2c0-1.2-0.2-2.1-0.6-2.7s-1-0.9-2-0.9
		c-1.1,0-1.9,0.3-2.4,1s-0.7,1.7-0.7,3.2V97h-4V82.5H257.6z"/>
	<path class="st0" d="M280.7,95.1c-0.5,0.8-1.1,1.3-1.8,1.7s-1.6,0.5-2.6,0.5c-1.1,0-2-0.2-2.9-0.6s-1.5-1-2-1.7
		c-0.5-0.7-0.9-1.5-1.2-2.5c-0.3-0.9-0.4-1.9-0.4-2.9c0-1,0.1-1.9,0.4-2.8c0.3-0.9,0.7-1.7,1.2-2.4s1.2-1.2,2-1.7
		c0.8-0.4,1.7-0.6,2.8-0.6c0.9,0,1.7,0.2,2.5,0.5c0.8,0.4,1.4,0.9,1.8,1.6h0.1V77h4v20h-3.8L280.7,95.1L280.7,95.1z M280.5,88
		c-0.1-0.6-0.3-1-0.6-1.5s-0.6-0.8-1-1c-0.4-0.3-1-0.4-1.6-0.4s-1.2,0.1-1.7,0.4c-0.4,0.3-0.8,0.6-1.1,1c-0.3,0.4-0.5,0.9-0.6,1.5
		c-0.1,0.6-0.2,1.1-0.2,1.7c0,0.6,0.1,1.1,0.2,1.7c0.1,0.6,0.3,1.1,0.6,1.5c0.3,0.4,0.7,0.8,1.1,1.1s1,0.4,1.6,0.4
		c0.7,0,1.2-0.1,1.6-0.4c0.4-0.3,0.8-0.6,1-1c0.3-0.4,0.4-0.9,0.6-1.5s0.2-1.1,0.2-1.7S280.6,88.5,280.5,88z"/>
</g>
<g>
	<path class="st1" d="M60.3,111.5v2.7h-2.9v7.2c0,0.7,0.1,1.1,0.3,1.3c0.2,0.2,0.7,0.3,1.3,0.3c0.2,0,0.4,0,0.6,0
		c0.2,0,0.4,0,0.6-0.1v3.1c-0.3,0.1-0.7,0.1-1.1,0.1c-0.4,0-0.8,0-1.2,0c-0.6,0-1.2,0-1.8-0.1c-0.6-0.1-1-0.2-1.5-0.5s-0.8-0.6-1-1
		c-0.2-0.4-0.4-1-0.4-1.8v-8.5H51v-2.7h2.4v-4.3h4v4.3H60.3z"/>
	<path class="st1" d="M66.1,106v7.5h0.1c0.5-0.8,1.1-1.5,1.9-1.8c0.8-0.4,1.5-0.6,2.3-0.6c1.1,0,1.9,0.1,2.6,0.4
		c0.7,0.3,1.2,0.7,1.6,1.2c0.4,0.5,0.7,1.1,0.8,1.9c0.2,0.7,0.2,1.6,0.2,2.5v8.9h-4v-8.2c0-1.2-0.2-2.1-0.6-2.7
		c-0.4-0.6-1-0.9-2-0.9c-1.1,0-1.9,0.3-2.4,1s-0.7,1.7-0.7,3.2v7.6h-4v-20H66.1z"/>
	<path class="st1" d="M78.6,116c0.1-0.9,0.3-1.7,0.7-2.3c0.4-0.6,0.9-1.1,1.6-1.5c0.6-0.4,1.3-0.6,2.1-0.8s1.6-0.2,2.4-0.2
		c0.7,0,1.5,0.1,2.2,0.2s1.4,0.3,2,0.6c0.6,0.3,1.1,0.7,1.5,1.2c0.4,0.5,0.6,1.2,0.6,2.1v7.5c0,0.7,0,1.3,0.1,1.9
		c0.1,0.6,0.2,1,0.4,1.3h-4c-0.1-0.2-0.1-0.5-0.2-0.7c0-0.2-0.1-0.5-0.1-0.7c-0.6,0.7-1.4,1.1-2.2,1.4c-0.9,0.3-1.7,0.4-2.6,0.4
		c-0.7,0-1.3-0.1-1.9-0.3c-0.6-0.2-1.1-0.4-1.6-0.8c-0.4-0.4-0.8-0.8-1.1-1.3c-0.3-0.5-0.4-1.2-0.4-1.9c0-0.8,0.1-1.5,0.4-2
		c0.3-0.5,0.7-1,1.1-1.3c0.5-0.3,1-0.6,1.6-0.7s1.2-0.3,1.8-0.4c0.6-0.1,1.2-0.2,1.8-0.2c0.6-0.1,1.1-0.1,1.5-0.3
		c0.4-0.1,0.8-0.3,1.1-0.5c0.3-0.2,0.4-0.5,0.4-0.9c0-0.4-0.1-0.8-0.2-1c-0.1-0.3-0.3-0.4-0.6-0.6s-0.5-0.2-0.8-0.3
		c-0.3,0-0.6-0.1-1-0.1c-0.8,0-1.4,0.2-1.8,0.5c-0.4,0.3-0.7,0.9-0.8,1.7H78.6z M87.8,118.9c-0.2,0.1-0.4,0.3-0.6,0.4
		s-0.5,0.2-0.8,0.2c-0.3,0.1-0.6,0.1-0.9,0.1s-0.6,0.1-1,0.1c-0.3,0.1-0.6,0.1-0.9,0.2c-0.3,0.1-0.5,0.2-0.8,0.4
		c-0.2,0.2-0.4,0.4-0.5,0.6c-0.1,0.2-0.2,0.6-0.2,0.9c0,0.4,0.1,0.7,0.2,0.9c0.1,0.2,0.3,0.4,0.5,0.6s0.5,0.2,0.8,0.3
		s0.6,0.1,0.9,0.1c0.8,0,1.4-0.1,1.8-0.4c0.4-0.3,0.7-0.6,1-0.9c0.2-0.4,0.3-0.7,0.4-1.1c0-0.4,0.1-0.7,0.1-0.9V118.9z"/>
	<path class="st1" d="M102.8,111.5v2.7h-2.9v7.2c0,0.7,0.1,1.1,0.3,1.3c0.2,0.2,0.7,0.3,1.3,0.3c0.2,0,0.4,0,0.6,0
		c0.2,0,0.4,0,0.6-0.1v3.1c-0.3,0.1-0.7,0.1-1.1,0.1c-0.4,0-0.8,0-1.2,0c-0.6,0-1.2,0-1.8-0.1c-0.6-0.1-1-0.2-1.5-0.5s-0.8-0.6-1-1
		c-0.2-0.4-0.4-1-0.4-1.8v-8.5h-2.4v-2.7h2.4v-4.3h4v4.3H102.8z"/>
	<path class="st1" d="M123.7,106c0.9,0,1.7,0.1,2.4,0.4c0.7,0.3,1.3,0.7,1.8,1.2c0.5,0.5,0.9,1.1,1.2,1.8c0.3,0.7,0.4,1.4,0.4,2.1
		c0,1.2-0.2,2.2-0.7,3.1s-1.3,1.5-2.4,2v0.1c0.5,0.1,1,0.4,1.3,0.7c0.4,0.3,0.6,0.7,0.9,1.1c0.2,0.4,0.4,0.9,0.5,1.4
		c0.1,0.5,0.2,1,0.2,1.5c0,0.3,0,0.7,0.1,1.1c0,0.4,0.1,0.9,0.1,1.3c0,0.4,0.1,0.9,0.2,1.3c0.1,0.4,0.3,0.7,0.5,1h-4.4
		c-0.2-0.6-0.4-1.4-0.4-2.3c-0.1-0.9-0.1-1.7-0.3-2.5c-0.1-1-0.5-1.8-1-2.3c-0.5-0.5-1.3-0.7-2.4-0.7h-4.4v7.8h-4.4v-20H123.7z
		 M122.1,115c1,0,1.8-0.2,2.3-0.7c0.5-0.4,0.8-1.2,0.8-2.2c0-1-0.3-1.7-0.8-2.1c-0.5-0.4-1.3-0.7-2.3-0.7h-4.8v5.6H122.1z"/>
	<path class="st1" d="M148.1,106v3.7h-10.6v4.3h9.7v3.4h-9.7v4.9h10.8v3.7h-15.2v-20H148.1z"/>
	<path class="st1" d="M157.4,106l4.7,13.7h0.1l4.4-13.7h6.2v20h-4.1v-14.2h-0.1l-4.9,14.2h-3.4l-4.9-14h-0.1v14h-4.1v-20H157.4z"/>
	<path class="st1" d="M176.5,111.9c0.4-1.3,1.1-2.4,1.9-3.3s1.9-1.7,3.1-2.2s2.6-0.8,4.1-0.8c1.5,0,2.9,0.3,4.1,0.8
		c1.2,0.5,2.2,1.3,3.1,2.2s1.5,2.1,1.9,3.3c0.4,1.3,0.7,2.7,0.7,4.2c0,1.5-0.2,2.8-0.7,4.1c-0.4,1.3-1.1,2.4-1.9,3.3
		c-0.8,0.9-1.9,1.7-3.1,2.2c-1.2,0.5-2.6,0.8-4.1,0.8c-1.5,0-2.9-0.3-4.1-0.8c-1.2-0.5-2.3-1.3-3.1-2.2c-0.8-0.9-1.5-2-1.9-3.3
		c-0.4-1.3-0.7-2.6-0.7-4.1C175.8,114.6,176,113.2,176.5,111.9z M180.5,118.5c0.2,0.8,0.5,1.5,0.9,2.1c0.4,0.6,1,1.1,1.7,1.5
		c0.7,0.4,1.5,0.6,2.5,0.6s1.8-0.2,2.5-0.6c0.7-0.4,1.2-0.9,1.7-1.5s0.7-1.3,0.9-2.1c0.2-0.8,0.3-1.6,0.3-2.5c0-0.9-0.1-1.7-0.3-2.5
		c-0.2-0.8-0.5-1.6-0.9-2.2c-0.4-0.6-1-1.2-1.7-1.5c-0.7-0.4-1.5-0.6-2.5-0.6s-1.8,0.2-2.5,0.6c-0.7,0.4-1.3,0.9-1.7,1.5
		c-0.4,0.6-0.7,1.4-0.9,2.2c-0.2,0.8-0.3,1.7-0.3,2.5C180.2,116.9,180.3,117.7,180.5,118.5z"/>
	<path class="st1" d="M202.8,126l-6.5-20h4.5l4.5,14.1h0.1l4.5-14.1h4.5l-6.6,20H202.8z"/>
	<path class="st1" d="M231,106v3.7h-10.6v4.3h9.7v3.4h-9.7v4.9h10.8v3.7h-15.2v-20H231z"/>
	<path class="st1" d="M237.6,121.1c0.2,0.5,0.6,0.8,1,1.1c0.4,0.3,0.9,0.5,1.4,0.6s1.1,0.2,1.7,0.2c0.4,0,0.8,0,1.3-0.1
		c0.4-0.1,0.9-0.2,1.3-0.4c0.4-0.2,0.7-0.4,1-0.8c0.3-0.3,0.4-0.7,0.4-1.2c0-0.5-0.2-1-0.5-1.3c-0.3-0.3-0.8-0.6-1.4-0.8
		c-0.6-0.2-1.2-0.4-1.9-0.6c-0.7-0.2-1.4-0.4-2.2-0.6c-0.7-0.2-1.5-0.4-2.2-0.7c-0.7-0.3-1.3-0.6-1.9-1.1c-0.6-0.4-1-1-1.4-1.6
		c-0.3-0.6-0.5-1.4-0.5-2.3c0-1,0.2-1.9,0.7-2.7c0.4-0.8,1-1.4,1.7-1.9c0.7-0.5,1.5-0.9,2.4-1.1c0.9-0.2,1.8-0.4,2.7-0.4
		c1,0,2,0.1,3,0.3c1,0.2,1.8,0.6,2.6,1.1c0.7,0.5,1.3,1.2,1.8,2s0.7,1.8,0.7,3h-4.3c0-0.6-0.2-1.1-0.4-1.5c-0.2-0.4-0.5-0.7-0.9-0.9
		s-0.8-0.4-1.2-0.5c-0.5-0.1-1-0.1-1.5-0.1c-0.4,0-0.7,0-1.1,0.1c-0.4,0.1-0.7,0.2-1,0.4s-0.5,0.4-0.7,0.7c-0.2,0.3-0.3,0.6-0.3,1.1
		c0,0.4,0.1,0.7,0.2,1c0.1,0.2,0.4,0.5,0.9,0.7c0.4,0.2,1,0.4,1.8,0.6c0.8,0.2,1.8,0.5,3,0.8c0.4,0.1,0.9,0.2,1.6,0.4
		c0.7,0.2,1.3,0.5,2,0.9c0.7,0.4,1.2,1,1.7,1.7c0.5,0.7,0.7,1.6,0.7,2.8c0,0.9-0.2,1.8-0.5,2.5c-0.4,0.8-0.9,1.5-1.6,2
		c-0.7,0.6-1.6,1-2.6,1.3c-1,0.3-2.2,0.5-3.6,0.5c-1.1,0-2.2-0.1-3.2-0.4c-1-0.3-2-0.7-2.7-1.3c-0.8-0.6-1.4-1.3-1.9-2.2
		s-0.7-2-0.7-3.2h4.3C237.2,120,237.3,120.6,237.6,121.1z"/>
</g>
<g>
	<path class="st1" d="M81.3,140.5v2.7h-2.9v7.2c0,0.7,0.1,1.1,0.3,1.3c0.2,0.2,0.7,0.3,1.3,0.3c0.2,0,0.4,0,0.6,0
		c0.2,0,0.4,0,0.6-0.1v3.1c-0.3,0.1-0.7,0.1-1.1,0.1c-0.4,0-0.8,0-1.2,0c-0.6,0-1.2,0-1.8-0.1c-0.6-0.1-1-0.2-1.5-0.5
		c-0.4-0.2-0.8-0.6-1-1c-0.2-0.4-0.4-1-0.4-1.8v-8.5H72v-2.7h2.4v-4.3h4v4.3H81.3z"/>
	<path class="st1" d="M87.1,135v7.5h0.1c0.5-0.8,1.1-1.5,1.9-1.8c0.8-0.4,1.5-0.6,2.3-0.6c1.1,0,1.9,0.1,2.6,0.4
		c0.7,0.3,1.2,0.7,1.6,1.2c0.4,0.5,0.7,1.1,0.8,1.9c0.2,0.7,0.2,1.6,0.2,2.4v8.9h-4v-8.2c0-1.2-0.2-2.1-0.6-2.7
		c-0.4-0.6-1-0.9-2-0.9c-1.1,0-1.9,0.3-2.4,1c-0.5,0.6-0.7,1.7-0.7,3.2v7.6h-4v-20H87.1z"/>
	<path class="st1" d="M104,151.5c0.6,0.6,1.5,0.9,2.6,0.9c0.8,0,1.5-0.2,2.1-0.6c0.6-0.4,0.9-0.8,1.1-1.3h3.5
		c-0.6,1.7-1.4,3-2.6,3.7c-1.2,0.7-2.6,1.1-4.2,1.1c-1.1,0-2.2-0.2-3.1-0.5c-0.9-0.4-1.7-0.9-2.3-1.6s-1.1-1.5-1.5-2.4
		c-0.3-0.9-0.5-2-0.5-3.1c0-1.1,0.2-2.1,0.5-3c0.4-0.9,0.9-1.7,1.5-2.4c0.7-0.7,1.4-1.2,2.3-1.6c0.9-0.4,1.9-0.6,3-0.6
		c1.2,0,2.3,0.2,3.2,0.7c0.9,0.5,1.7,1.1,2.3,1.9c0.6,0.8,1,1.7,1.3,2.7c0.3,1,0.4,2.1,0.3,3.2H103C103.1,150,103.4,151,104,151.5z
		 M108.5,143.9c-0.5-0.5-1.2-0.8-2.2-0.8c-0.6,0-1.2,0.1-1.6,0.3c-0.4,0.2-0.8,0.5-1,0.8s-0.4,0.7-0.5,1c-0.1,0.4-0.2,0.7-0.2,1h6.5
		C109.3,145.2,109,144.4,108.5,143.9z"/>
	<path class="st1" d="M122.5,138.7V135h16.4v3.7h-6V155h-4.4v-16.3H122.5z"/>
	<path class="st1" d="M148.5,135l7.5,20h-4.6l-1.5-4.5h-7.5l-1.6,4.5h-4.4l7.6-20H148.5z M148.8,147.3l-2.5-7.3h-0.1l-2.6,7.3H148.8
		z"/>
	<path class="st1" d="M168.5,135c0.9,0,1.7,0.1,2.4,0.4c0.7,0.3,1.3,0.7,1.8,1.2c0.5,0.5,0.9,1.1,1.2,1.8c0.3,0.7,0.4,1.4,0.4,2.1
		c0,1.2-0.2,2.2-0.7,3.1c-0.5,0.9-1.3,1.5-2.4,2v0.1c0.5,0.1,1,0.4,1.3,0.7c0.4,0.3,0.6,0.7,0.9,1.1c0.2,0.4,0.4,0.9,0.5,1.4
		s0.2,1,0.2,1.5c0,0.3,0,0.7,0.1,1.1c0,0.4,0.1,0.9,0.1,1.3s0.1,0.9,0.2,1.3c0.1,0.4,0.3,0.7,0.5,1h-4.4c-0.2-0.6-0.4-1.4-0.4-2.3
		c-0.1-0.9-0.1-1.7-0.3-2.5c-0.1-1-0.5-1.8-1-2.3s-1.3-0.7-2.4-0.7h-4.4v7.8h-4.4v-20H168.5z M167,144.1c1,0,1.8-0.2,2.3-0.7
		s0.8-1.2,0.8-2.2c0-1-0.3-1.7-0.8-2.1s-1.3-0.7-2.3-0.7h-4.8v5.6H167z"/>
	<path class="st1" d="M175.9,138.7V135h16.4v3.7h-6V155h-4.4v-16.3H175.9z"/>
	<path class="st1" d="M202,135l7.5,20h-4.6l-1.5-4.5h-7.5l-1.6,4.5h-4.4l7.6-20H202z M202.3,147.3l-2.5-7.3h-0.1l-2.6,7.3H202.3z"/>
	<path class="st1" d="M222,135c0.9,0,1.7,0.1,2.4,0.4c0.7,0.3,1.3,0.7,1.8,1.2c0.5,0.5,0.9,1.1,1.2,1.8c0.3,0.7,0.4,1.4,0.4,2.1
		c0,1.2-0.2,2.2-0.7,3.1c-0.5,0.9-1.3,1.5-2.4,2v0.1c0.5,0.1,1,0.4,1.3,0.7c0.4,0.3,0.6,0.7,0.9,1.1c0.2,0.4,0.4,0.9,0.5,1.4
		s0.2,1,0.2,1.5c0,0.3,0,0.7,0.1,1.1c0,0.4,0.1,0.9,0.1,1.3s0.1,0.9,0.2,1.3c0.1,0.4,0.3,0.7,0.5,1H224c-0.2-0.6-0.4-1.4-0.4-2.3
		c-0.1-0.9-0.1-1.7-0.3-2.5c-0.1-1-0.5-1.8-1-2.3s-1.3-0.7-2.4-0.7h-4.4v7.8h-4.4v-20H222z M220.4,144.1c1,0,1.8-0.2,2.3-0.7
		s0.8-1.2,0.8-2.2c0-1-0.3-1.7-0.8-2.1s-1.3-0.7-2.3-0.7h-4.8v5.6H220.4z"/>
</g>
</svg>
