<?xml version="1.0" encoding="utf-8"?>
<!-- Generator: Adobe Illustrator 25.4.6, SVG Export Plug-In . SVG Version: 6.00 Build 0)  -->
<svg version="1.1" id="Layer_1" xmlns="http://www.w3.org/2000/svg" xmlns:xlink="http://www.w3.org/1999/xlink" x="0px" y="0px"
	 viewBox="0 0 300 250" style="enable-background:new 0 0 300 250;" xml:space="preserve">
<style type="text/css">
	.st0{clip-path:url(#SVGID_00000087409196678525065000000001914332672451266995_);fill:#439D51;}
	.st1{fill:#FFFFFF;}
</style>
<g>
	<defs>
		<rect id="SVGID_1_" x="71.1" y="176.1" width="158.4" height="33.4"/>
	</defs>
	<clipPath id="SVGID_00000031901763738264230940000016512315913150544541_">
		<use xlink:href="#SVGID_1_"  style="overflow:visible;"/>
	</clipPath>
	<path style="clip-path:url(#SVGID_00000031901763738264230940000016512315913150544541_);fill:#439D51;" d="M229.5,192.8
		c0,9.2-8.6,16.7-19.2,16.7h-120c-10.5,0-19.2-7.5-19.2-16.7s8.6-16.7,19.2-16.7h120C220.9,176.1,229.5,183.6,229.5,192.8"/>
</g>
<g>
	<path class="st1" d="M107.9,198.5l-3.4-10.7h2.4l2.4,7.5h0l2.4-7.5h2.4l-3.5,10.7H107.9z"/>
	<path class="st1" d="M117.4,187.8v10.7H115v-10.7H117.4z"/>
	<path class="st1" d="M127.4,187.8v2h-5.6v2.3h5.2v1.8h-5.2v2.6h5.7v2h-8.1v-10.7H127.4z"/>
	<path class="st1" d="M136.9,198.5l-1.8-7.2h0l-1.8,7.2h-2.4l-2.8-10.7h2.3l1.7,7.2h0l1.8-7.2h2.2l1.8,7.3h0l1.7-7.3h2.3l-2.9,10.7
		H136.9z"/>
	<path class="st1" d="M152.1,187.8c0.7,0,1.2,0.1,1.7,0.3c0.5,0.2,0.8,0.5,1.1,0.8c0.3,0.3,0.5,0.7,0.6,1.1c0.1,0.4,0.2,0.8,0.2,1.3
		c0,0.4-0.1,0.8-0.2,1.3c-0.1,0.4-0.3,0.8-0.6,1.1s-0.7,0.6-1.1,0.8c-0.5,0.2-1,0.3-1.7,0.3h-2.5v3.8h-2.3v-10.7H152.1z
		 M151.5,192.8c0.3,0,0.5,0,0.8-0.1c0.2,0,0.5-0.1,0.7-0.2c0.2-0.1,0.3-0.3,0.5-0.5s0.2-0.5,0.2-0.8s-0.1-0.6-0.2-0.8
		s-0.3-0.4-0.5-0.5c-0.2-0.1-0.4-0.2-0.7-0.2c-0.2,0-0.5-0.1-0.8-0.1h-1.8v3.2H151.5z"/>
	<path class="st1" d="M159.6,187.8v8.7h5.2v2h-7.5v-10.7H159.6z"/>
	<path class="st1" d="M171.4,187.8l4,10.7H173l-0.8-2.4h-4l-0.8,2.4H165l4-10.7H171.4z M171.6,194.4l-1.3-3.9h0l-1.4,3.9H171.6z"/>
	<path class="st1" d="M178.7,187.8l4.4,7.1h0v-7.1h2.2v10.7H183l-4.4-7.1h0v7.1h-2.2v-10.7H178.7z"/>
	<path class="st1" d="M189.2,195.9c0.1,0.2,0.3,0.5,0.5,0.6c0.2,0.2,0.5,0.3,0.8,0.3c0.3,0.1,0.6,0.1,0.9,0.1c0.2,0,0.4,0,0.7-0.1
		s0.5-0.1,0.7-0.2c0.2-0.1,0.4-0.2,0.5-0.4c0.1-0.2,0.2-0.4,0.2-0.7c0-0.3-0.1-0.5-0.3-0.7c-0.2-0.2-0.4-0.3-0.7-0.4
		c-0.3-0.1-0.6-0.2-1-0.3c-0.4-0.1-0.8-0.2-1.1-0.3c-0.4-0.1-0.8-0.2-1.2-0.4c-0.4-0.1-0.7-0.3-1-0.6c-0.3-0.2-0.5-0.5-0.7-0.9
		c-0.2-0.3-0.3-0.8-0.3-1.2c0-0.5,0.1-1,0.4-1.4c0.2-0.4,0.5-0.7,0.9-1c0.4-0.3,0.8-0.5,1.3-0.6s1-0.2,1.4-0.2
		c0.6,0,1.1,0.1,1.6,0.2c0.5,0.1,1,0.3,1.4,0.6s0.7,0.6,0.9,1.1s0.4,1,0.4,1.6h-2.3c0-0.3-0.1-0.6-0.2-0.8s-0.3-0.4-0.5-0.5
		c-0.2-0.1-0.4-0.2-0.6-0.3c-0.2,0-0.5-0.1-0.8-0.1c-0.2,0-0.4,0-0.6,0.1s-0.4,0.1-0.5,0.2s-0.3,0.2-0.4,0.4
		c-0.1,0.1-0.1,0.3-0.1,0.6c0,0.2,0,0.4,0.1,0.5c0.1,0.1,0.2,0.2,0.5,0.4s0.6,0.2,1,0.3s1,0.2,1.6,0.4c0.2,0,0.5,0.1,0.8,0.2
		s0.7,0.3,1.1,0.5c0.3,0.2,0.6,0.5,0.9,0.9s0.4,0.9,0.4,1.5c0,0.5-0.1,0.9-0.3,1.4c-0.2,0.4-0.5,0.8-0.8,1.1
		c-0.4,0.3-0.8,0.5-1.4,0.7s-1.2,0.3-1.9,0.3c-0.6,0-1.2-0.1-1.7-0.2c-0.6-0.1-1-0.4-1.5-0.7s-0.8-0.7-1-1.2c-0.2-0.5-0.4-1-0.4-1.7
		h2.3C189,195.3,189,195.6,189.2,195.9z"/>
</g>
</svg>
