<?xml version="1.0" encoding="utf-8"?>
<!-- Generator: Adobe Illustrator 26.3.1, SVG Export Plug-In . SVG Version: 6.00 Build 0)  -->
<svg version="1.1" id="Layer_1" xmlns="http://www.w3.org/2000/svg" xmlns:xlink="http://www.w3.org/1999/xlink" x="0px" y="0px"
	 viewBox="0 0 300 250" style="enable-background:new 0 0 300 250;" xml:space="preserve">
<style type="text/css">
	.st0{clip-path:url(#SVGID_00000107551213189485789520000006584731235811588775_);fill:#231F20;}
	.st1{clip-path:url(#SVGID_00000107551213189485789520000006584731235811588775_);fill:#00B2EE;}
</style>
<g>
	<defs>
		<rect id="SVGID_1_" x="107.3" y="9.3" width="87.2" height="29.7"/>
	</defs>
	<clipPath id="SVGID_00000030465092520182428900000009848540324215350966_">
		<use xlink:href="#SVGID_1_"  style="overflow:visible;"/>
	</clipPath>
	<path style="clip-path:url(#SVGID_00000030465092520182428900000009848540324215350966_);fill:#231F20;" d="M107.9,25.3h4.7
		c3.7,0,4.4,2.4,4.4,4c0,1.6-0.7,4-4.4,4h-2.4v5h-2.3V25.3z M110.1,31.4h2.3c1,0,2.3-0.5,2.3-2.1c0-1.7-1-2.1-2.2-2.1h-2.3V31.4z"/>
	<path style="clip-path:url(#SVGID_00000030465092520182428900000009848540324215350966_);fill:#231F20;" d="M118.3,28.9h1.9v1.8h0
		c0.2-1,1.5-2.1,2.8-2.1c0.5,0,0.6,0,0.8,0.1v2c-0.3,0-0.6-0.1-0.9-0.1c-1.4,0-2.6,1.1-2.6,3.2v4.5h-2.1V28.9z"/>
	<path style="clip-path:url(#SVGID_00000030465092520182428900000009848540324215350966_);fill:#231F20;" d="M124.1,33.6
		c0-2.9,1.7-5,4.8-5c3,0,4.8,2.1,4.8,5c0,2.9-1.7,5-4.8,5C125.8,38.5,124.1,36.5,124.1,33.6 M131.5,33.6c0-1.6-0.8-3.3-2.7-3.3
		s-2.7,1.7-2.7,3.3c0,1.6,0.8,3.3,2.7,3.3S131.5,35.2,131.5,33.6"/>
	<path style="clip-path:url(#SVGID_00000030465092520182428900000009848540324215350966_);fill:#231F20;" d="M133.9,28.9h1.7V26h2
		v2.8h1.9v1.5h-1.9v5c0,0.9,0.1,1.3,1,1.3c0.3,0,0.6,0,0.9-0.1v1.6c-0.5,0-0.9,0.1-1.3,0.1c-2.2,0-2.6-0.8-2.6-2.4v-5.6h-1.6V28.9z"
		/>
	<path style="clip-path:url(#SVGID_00000030465092520182428900000009848540324215350966_);fill:#231F20;" d="M142.4,34.1
		c0,1.5,0.8,2.8,2.5,2.8c1.2,0,1.9-0.5,2.3-1.6h2c-0.5,2.1-2.2,3.2-4.3,3.2c-2.9,0-4.6-2.1-4.6-5c0-2.7,1.7-5,4.6-5
		c3,0,4.8,2.7,4.4,5.5H142.4z M147.3,32.7c-0.1-1.3-1-2.5-2.4-2.5c-1.4,0-2.4,1.1-2.5,2.5H147.3z"/>
	<path style="clip-path:url(#SVGID_00000030465092520182428900000009848540324215350966_);fill:#231F20;" d="M157.2,32
		c-0.2-1.1-1-1.8-2.1-1.8c-1.1,0-2.6,0.6-2.6,3.4c0,1.6,0.7,3.2,2.5,3.2c1.2,0,2-0.8,2.2-2.1h2.1c-0.4,2.4-1.9,3.8-4.3,3.8
		c-2.9,0-4.6-2.1-4.6-4.9c0-2.8,1.5-5.1,4.6-5.1c2.2,0,4,1.1,4.2,3.4H157.2z"/>
	<path style="clip-path:url(#SVGID_00000030465092520182428900000009848540324215350966_);fill:#231F20;" d="M159.8,28.9h1.6V26h2.1
		v2.8h1.9v1.5h-1.9v5c0,0.9,0.1,1.3,1,1.3c0.3,0,0.6,0,0.9-0.1v1.6c-0.5,0-0.9,0.1-1.3,0.1c-2.2,0-2.6-0.8-2.6-2.4v-5.6h-1.6V28.9z"
		/>
	<path style="clip-path:url(#SVGID_00000030465092520182428900000009848540324215350966_);fill:#231F20;" d="M167.7,25.3h2.1v2h-2.1
		V25.3z M167.7,28.9h2.1v9.4h-2.1V28.9z"/>
	<polygon style="clip-path:url(#SVGID_00000030465092520182428900000009848540324215350966_);fill:#231F20;" points="171.3,28.9 
		173.5,28.9 176.5,36.1 176.5,36.1 179.3,28.9 181.5,28.9 177.6,38.3 175.2,38.3 	"/>
	<path style="clip-path:url(#SVGID_00000030465092520182428900000009848540324215350966_);fill:#231F20;" d="M184.1,34.1
		c0,1.5,0.8,2.8,2.5,2.8c1.2,0,1.9-0.5,2.3-1.6h2c-0.5,2.1-2.2,3.2-4.3,3.2c-2.9,0-4.6-2.1-4.6-5c0-2.7,1.7-5,4.6-5
		c3,0,4.8,2.7,4.4,5.5H184.1z M188.9,32.7c-0.1-1.3-1-2.5-2.4-2.5c-1.4,0-2.4,1.1-2.5,2.5H188.9z"/>
	<path style="clip-path:url(#SVGID_00000030465092520182428900000009848540324215350966_);fill:#00B2EE;" d="M163.8,23.1
		c-1.4-5.2-5.5-9.2-10.6-10.5c-0.5-1.6-2-2.8-3.7-2.8c-1.8,0-3.2,1.2-3.7,2.8c-5.1,1.3-9.3,5.4-10.6,10.5l-0.2,0.6h3.2l0.1-0.3
		c1.2-3.8,4.2-6.7,7.9-7.7c0.7,1.1,1.9,1.9,3.3,1.9s2.7-0.8,3.3-1.9c3.7,1.1,6.7,4,7.9,7.7l0.1,0.3h3.2L163.8,23.1z"/>
	<path style="clip-path:url(#SVGID_00000030465092520182428900000009848540324215350966_);fill:#231F20;" d="M193.2,36.7
		c0.5,0,0.9,0.4,0.9,0.9c0,0.5-0.4,0.9-0.9,0.9s-0.9-0.4-0.9-0.9C192.2,37.1,192.6,36.7,193.2,36.7 M193.9,37.6
		c0-0.4-0.3-0.8-0.8-0.8c-0.4,0-0.8,0.3-0.8,0.8c0,0.4,0.3,0.8,0.8,0.8C193.6,38.4,193.9,38,193.9,37.6 M192.8,37.1h0.4
		c0.2,0,0.4,0.1,0.4,0.3c0,0.2-0.1,0.3-0.3,0.3l0.3,0.5h-0.2l-0.3-0.5H193v0.5h-0.2V37.1z M193.1,37.6c0.1,0,0.3,0,0.3-0.2
		c0-0.1-0.1-0.2-0.2-0.2H193v0.3H193.1z"/>
</g>
</svg>
