<?xml version="1.0" encoding="utf-8"?>
<!-- Generator: Adobe Illustrator 25.4.6, SVG Export Plug-In . SVG Version: 6.00 Build 0)  -->
<svg version="1.1" id="Layer_1" xmlns="http://www.w3.org/2000/svg" xmlns:xlink="http://www.w3.org/1999/xlink" x="0px" y="0px"
	 viewBox="0 0 300 250" style="enable-background:new 0 0 300 250;" xml:space="preserve">
<style type="text/css">
	.st0{fill:#339933;}
</style>
<g>
	<path class="st0" d="M58.5,232c0.3-0.8,0.7-1.5,1.2-2c0.5-0.6,1.1-1,1.9-1.4c0.7-0.3,1.6-0.5,2.5-0.5c0.9,0,1.8,0.2,2.5,0.5
		c0.7,0.3,1.4,0.8,1.9,1.4c0.5,0.6,0.9,1.3,1.2,2c0.3,0.8,0.4,1.6,0.4,2.5c0,0.9-0.1,1.7-0.4,2.5c-0.3,0.8-0.7,1.4-1.2,2
		c-0.5,0.6-1.1,1-1.9,1.3c-0.7,0.3-1.6,0.5-2.5,0.5c-0.9,0-1.8-0.2-2.5-0.5c-0.7-0.3-1.4-0.8-1.9-1.3c-0.5-0.6-0.9-1.2-1.2-2
		c-0.3-0.8-0.4-1.6-0.4-2.5C58.1,233.6,58.3,232.8,58.5,232z M61,236c0.1,0.5,0.3,0.9,0.6,1.3c0.3,0.4,0.6,0.7,1,0.9
		c0.4,0.2,0.9,0.3,1.5,0.3s1.1-0.1,1.5-0.3c0.4-0.2,0.8-0.5,1-0.9c0.3-0.4,0.5-0.8,0.6-1.3s0.2-1,0.2-1.5c0-0.5-0.1-1-0.2-1.5
		c-0.1-0.5-0.3-0.9-0.6-1.3c-0.3-0.4-0.6-0.7-1-0.9c-0.4-0.2-0.9-0.3-1.5-0.3s-1.1,0.1-1.5,0.3c-0.4,0.2-0.8,0.5-1,0.9
		s-0.5,0.8-0.6,1.3c-0.1,0.5-0.2,1-0.2,1.5C60.8,235,60.9,235.5,61,236z"/>
	<path class="st0" d="M73.9,231.7v1.2H74c0.3-0.5,0.7-0.9,1.2-1.1c0.5-0.2,1-0.3,1.5-0.3c0.6,0,1.2,0.1,1.6,0.3
		c0.4,0.2,0.7,0.4,1,0.7c0.2,0.3,0.4,0.7,0.5,1.1c0.1,0.4,0.1,0.9,0.1,1.5v5.4h-2.4v-5c0-0.7-0.1-1.3-0.3-1.6
		c-0.2-0.4-0.6-0.5-1.2-0.5c-0.7,0-1.1,0.2-1.4,0.6c-0.3,0.4-0.4,1-0.4,1.9v4.6h-2.4v-8.8H73.9z"/>
	<path class="st0" d="M84.2,228.4v12.1h-2.4v-12.1H84.2z"/>
	<path class="st0" d="M89.4,243.1c-0.5,0.3-1.1,0.5-1.9,0.5c-0.2,0-0.5,0-0.7,0c-0.2,0-0.5,0-0.7-0.1v-2c0.2,0,0.5,0,0.7,0.1
		c0.2,0,0.5,0,0.7,0c0.3,0,0.6-0.2,0.7-0.4c0.2-0.2,0.2-0.5,0.2-0.7c0-0.2,0-0.4-0.1-0.5l-3.1-8.2h2.6l2,6h0l1.9-6h2.5l-3.7,9.9
		C90.2,242.3,89.8,242.8,89.4,243.1z"/>
	<path class="st0" d="M98.7,233.3v-1.6h1.4v-0.7c0-0.8,0.2-1.4,0.7-1.9c0.5-0.5,1.2-0.7,2.2-0.7c0.2,0,0.4,0,0.6,0
		c0.2,0,0.4,0,0.6,0v1.8c-0.3,0-0.6-0.1-0.9-0.1c-0.3,0-0.6,0.1-0.7,0.2c-0.1,0.2-0.2,0.4-0.2,0.8v0.5h1.7v1.6h-1.7v7.2h-2.4v-7.2
		H98.7z"/>
	<path class="st0" d="M105.4,234.2c0.2-0.6,0.5-1.1,0.9-1.5c0.4-0.4,0.9-0.7,1.4-0.9s1.2-0.3,1.9-0.3c0.7,0,1.3,0.1,1.9,0.3
		s1,0.5,1.4,0.9c0.4,0.4,0.7,0.9,0.9,1.5s0.3,1.2,0.3,1.9c0,0.7-0.1,1.3-0.3,1.9c-0.2,0.6-0.5,1.1-0.9,1.5c-0.4,0.4-0.9,0.7-1.4,0.9
		c-0.6,0.2-1.2,0.3-1.9,0.3c-0.7,0-1.3-0.1-1.9-0.3c-0.6-0.2-1-0.5-1.4-0.9c-0.4-0.4-0.7-0.9-0.9-1.5c-0.2-0.6-0.3-1.2-0.3-1.9
		C105,235.4,105.2,234.8,105.4,234.2z M107.6,237.2c0.1,0.3,0.2,0.6,0.3,0.9c0.2,0.3,0.4,0.5,0.7,0.6c0.3,0.2,0.6,0.2,1,0.2
		c0.4,0,0.8-0.1,1-0.2c0.3-0.2,0.5-0.4,0.7-0.6c0.2-0.3,0.3-0.6,0.3-0.9s0.1-0.7,0.1-1s0-0.7-0.1-1s-0.2-0.6-0.3-0.9
		c-0.2-0.3-0.4-0.5-0.7-0.6c-0.3-0.2-0.6-0.2-1-0.2c-0.4,0-0.7,0.1-1,0.2c-0.3,0.2-0.5,0.4-0.7,0.6c-0.2,0.3-0.3,0.6-0.3,0.9
		s-0.1,0.7-0.1,1S107.5,236.8,107.6,237.2z"/>
	<path class="st0" d="M118,231.7v1.6h0c0.1-0.3,0.3-0.5,0.5-0.8c0.2-0.2,0.4-0.4,0.7-0.6c0.2-0.2,0.5-0.3,0.8-0.4s0.6-0.1,0.9-0.1
		c0.2,0,0.3,0,0.5,0.1v2.2c-0.1,0-0.2,0-0.4-0.1c-0.2,0-0.3,0-0.5,0c-0.4,0-0.8,0.1-1.1,0.2c-0.3,0.1-0.6,0.3-0.7,0.6
		c-0.2,0.3-0.3,0.6-0.4,0.9c-0.1,0.3-0.1,0.7-0.1,1.1v4h-2.4v-8.8H118z"/>
	<path class="st0" d="M133.3,228.4l4.5,12.1h-2.8l-0.9-2.7h-4.5l-1,2.7H126l4.6-12.1H133.3z M133.5,235.8l-1.5-4.5h0l-1.6,4.5H133.5
		z"/>
	<path class="st0" d="M144.2,228.4c0.8,0,1.5,0.1,2.2,0.4s1.3,0.6,1.8,1.1c0.5,0.5,0.9,1.1,1.2,1.9c0.3,0.7,0.4,1.6,0.4,2.6
		c0,0.9-0.1,1.7-0.3,2.4c-0.2,0.7-0.6,1.4-1,1.9s-1,1-1.7,1.3c-0.7,0.3-1.5,0.5-2.4,0.5h-5.2v-12.1H144.2z M144,238.3
		c0.4,0,0.8-0.1,1.1-0.2c0.4-0.1,0.7-0.3,1-0.6c0.3-0.3,0.5-0.7,0.7-1.1s0.3-1,0.3-1.7c0-0.6-0.1-1.2-0.2-1.7
		c-0.1-0.5-0.3-0.9-0.6-1.3c-0.3-0.4-0.6-0.6-1.1-0.8c-0.4-0.2-1-0.3-1.7-0.3h-1.9v7.6H144z"/>
	<path class="st0" d="M157.6,228.4l4.5,12.1h-2.8l-0.9-2.7h-4.5l-1,2.7h-2.7l4.6-12.1H157.6z M157.7,235.8l-1.5-4.5h0l-1.6,4.5
		H157.7z"/>
	<path class="st0" d="M171.7,228.4l2.8,8.3h0l2.7-8.3h3.8v12.1h-2.5v-8.6h0l-3,8.6h-2.1l-3-8.5h0v8.5h-2.5v-12.1H171.7z"/>
	<path class="st0" d="M185.7,238.4c0.4,0.4,0.9,0.5,1.6,0.5c0.5,0,0.9-0.1,1.3-0.4c0.4-0.2,0.6-0.5,0.6-0.8h2.1
		c-0.3,1.1-0.9,1.8-1.6,2.3c-0.7,0.5-1.6,0.7-2.5,0.7c-0.7,0-1.3-0.1-1.9-0.3c-0.6-0.2-1-0.5-1.4-0.9c-0.4-0.4-0.7-0.9-0.9-1.5
		c-0.2-0.6-0.3-1.2-0.3-1.9c0-0.7,0.1-1.3,0.3-1.8c0.2-0.6,0.5-1.1,0.9-1.5c0.4-0.4,0.9-0.7,1.4-1s1.2-0.4,1.8-0.4
		c0.7,0,1.4,0.1,2,0.4c0.6,0.3,1,0.7,1.4,1.2c0.4,0.5,0.6,1,0.8,1.7c0.2,0.6,0.2,1.3,0.2,2h-6.3
		C185.1,237.5,185.3,238.1,185.7,238.4z M188.4,233.8c-0.3-0.3-0.7-0.5-1.3-0.5c-0.4,0-0.7,0.1-1,0.2c-0.3,0.1-0.5,0.3-0.6,0.5
		c-0.2,0.2-0.3,0.4-0.3,0.6c-0.1,0.2-0.1,0.4-0.1,0.6h3.9C188.9,234.6,188.7,234.1,188.4,233.8z"/>
	<path class="st0" d="M195.2,231.7v1.2h0c0.3-0.5,0.7-0.8,1.1-1.1c0.4-0.2,1-0.4,1.5-0.4c0.6,0,1.1,0.1,1.5,0.3
		c0.5,0.2,0.8,0.6,1,1.1c0.3-0.4,0.6-0.7,1.1-1c0.4-0.3,1-0.4,1.6-0.4c0.5,0,0.9,0.1,1.3,0.2c0.4,0.1,0.7,0.3,1,0.5
		c0.3,0.2,0.5,0.6,0.7,1c0.2,0.4,0.2,0.9,0.2,1.5v5.9h-2.4v-5c0-0.3,0-0.6,0-0.8c0-0.3-0.1-0.5-0.2-0.7c-0.1-0.2-0.3-0.3-0.5-0.5
		s-0.5-0.2-0.8-0.2c-0.3,0-0.6,0.1-0.8,0.2c-0.2,0.1-0.4,0.3-0.5,0.5c-0.1,0.2-0.2,0.4-0.2,0.7c0,0.3-0.1,0.5-0.1,0.8v4.9h-2.4v-4.9
		c0-0.3,0-0.5,0-0.8c0-0.3-0.1-0.5-0.1-0.7c-0.1-0.2-0.2-0.4-0.4-0.5c-0.2-0.1-0.5-0.2-0.9-0.2c-0.1,0-0.3,0-0.5,0.1
		c-0.2,0.1-0.4,0.1-0.5,0.3c-0.2,0.1-0.3,0.3-0.5,0.6s-0.2,0.6-0.2,1v5.1h-2.4v-8.8H195.2z"/>
	<path class="st0" d="M210.6,228.4v4.4h0c0.3-0.5,0.7-0.8,1.2-1c0.5-0.2,1-0.3,1.6-0.3c0.4,0,0.9,0.1,1.3,0.3s0.8,0.5,1.2,0.8
		s0.6,0.9,0.8,1.4c0.2,0.6,0.3,1.3,0.3,2.1s-0.1,1.5-0.3,2.1c-0.2,0.6-0.5,1.1-0.8,1.4s-0.7,0.7-1.2,0.8c-0.4,0.2-0.9,0.3-1.3,0.3
		c-0.6,0-1.2-0.1-1.7-0.3c-0.5-0.2-0.9-0.5-1.2-1h0v1.1h-2.3v-12.1H210.6z M214.6,235.1c-0.1-0.3-0.2-0.6-0.4-0.9
		c-0.2-0.3-0.4-0.5-0.6-0.6s-0.6-0.2-0.9-0.2c-0.4,0-0.7,0.1-0.9,0.2s-0.5,0.4-0.6,0.6c-0.2,0.3-0.3,0.6-0.4,0.9
		c-0.1,0.3-0.1,0.7-0.1,1.1c0,0.4,0,0.7,0.1,1.1c0.1,0.3,0.2,0.6,0.4,0.9s0.4,0.5,0.6,0.6s0.6,0.2,0.9,0.2c0.4,0,0.7-0.1,0.9-0.2
		s0.5-0.4,0.6-0.6s0.3-0.6,0.4-0.9c0.1-0.3,0.1-0.7,0.1-1.1C214.7,235.8,214.6,235.4,214.6,235.1z"/>
	<path class="st0" d="M221.2,238.4c0.4,0.4,0.9,0.5,1.6,0.5c0.5,0,0.9-0.1,1.3-0.4c0.4-0.2,0.6-0.5,0.6-0.8h2.1
		c-0.3,1.1-0.9,1.8-1.6,2.3c-0.7,0.5-1.6,0.7-2.5,0.7c-0.7,0-1.3-0.1-1.9-0.3c-0.6-0.2-1-0.5-1.4-0.9c-0.4-0.4-0.7-0.9-0.9-1.5
		c-0.2-0.6-0.3-1.2-0.3-1.9c0-0.7,0.1-1.3,0.3-1.8c0.2-0.6,0.5-1.1,0.9-1.5c0.4-0.4,0.9-0.7,1.4-1s1.2-0.4,1.8-0.4
		c0.7,0,1.4,0.1,2,0.4c0.6,0.3,1,0.7,1.4,1.2c0.4,0.5,0.6,1,0.8,1.7c0.2,0.6,0.2,1.3,0.2,2h-6.3
		C220.6,237.5,220.8,238.1,221.2,238.4z M223.9,233.8c-0.3-0.3-0.7-0.5-1.3-0.5c-0.4,0-0.7,0.1-1,0.2c-0.3,0.1-0.5,0.3-0.6,0.5
		c-0.2,0.2-0.3,0.4-0.3,0.6c-0.1,0.2-0.1,0.4-0.1,0.6h3.9C224.4,234.6,224.2,234.1,223.9,233.8z"/>
	<path class="st0" d="M230.7,231.7v1.6h0c0.1-0.3,0.3-0.5,0.5-0.8c0.2-0.2,0.4-0.4,0.7-0.6c0.2-0.2,0.5-0.3,0.8-0.4s0.6-0.1,0.9-0.1
		c0.2,0,0.3,0,0.5,0.1v2.2c-0.1,0-0.2,0-0.4-0.1c-0.2,0-0.3,0-0.5,0c-0.4,0-0.8,0.1-1.1,0.2c-0.3,0.1-0.6,0.3-0.7,0.6
		c-0.2,0.3-0.3,0.6-0.4,0.9c-0.1,0.3-0.1,0.7-0.1,1.1v4h-2.4v-8.8H230.7z"/>
	<path class="st0" d="M237,238.3c0.1,0.2,0.2,0.3,0.4,0.5s0.4,0.2,0.6,0.3c0.2,0.1,0.5,0.1,0.7,0.1c0.2,0,0.3,0,0.5-0.1
		c0.2,0,0.4-0.1,0.5-0.2c0.2-0.1,0.3-0.2,0.4-0.3c0.1-0.1,0.2-0.3,0.2-0.5c0-0.4-0.2-0.6-0.7-0.8c-0.5-0.2-1.2-0.4-2-0.5
		c-0.4-0.1-0.7-0.2-1-0.3c-0.3-0.1-0.6-0.2-0.9-0.4c-0.3-0.2-0.5-0.4-0.6-0.7c-0.2-0.3-0.2-0.6-0.2-1c0-0.6,0.1-1,0.3-1.4
		c0.2-0.4,0.5-0.6,0.9-0.9c0.4-0.2,0.8-0.4,1.2-0.4s0.9-0.1,1.4-0.1c0.5,0,0.9,0,1.4,0.1c0.4,0.1,0.8,0.2,1.2,0.5
		c0.4,0.2,0.6,0.5,0.9,0.9c0.2,0.4,0.4,0.8,0.4,1.4h-2.3c0-0.5-0.2-0.8-0.5-0.9c-0.3-0.2-0.7-0.2-1.1-0.2c-0.1,0-0.3,0-0.4,0
		c-0.2,0-0.3,0.1-0.4,0.1c-0.1,0.1-0.2,0.1-0.3,0.2s-0.1,0.3-0.1,0.4c0,0.2,0.1,0.4,0.2,0.5c0.2,0.1,0.4,0.2,0.6,0.3
		s0.5,0.2,0.9,0.2c0.3,0.1,0.7,0.1,1,0.2c0.4,0.1,0.7,0.2,1,0.3c0.3,0.1,0.6,0.3,0.9,0.5c0.3,0.2,0.5,0.4,0.6,0.7
		c0.2,0.3,0.2,0.6,0.2,1c0,0.6-0.1,1.1-0.3,1.5c-0.2,0.4-0.5,0.7-0.9,0.9s-0.8,0.4-1.3,0.5c-0.5,0.1-1,0.1-1.5,0.1
		c-0.5,0-1-0.1-1.5-0.2c-0.5-0.1-0.9-0.3-1.3-0.5c-0.4-0.2-0.7-0.6-0.9-0.9c-0.2-0.4-0.4-0.9-0.4-1.5h2.3
		C236.9,237.9,236.9,238.2,237,238.3z"/>
</g>
</svg>
