<svg id="Layer_1" xmlns="http://www.w3.org/2000/svg" viewBox="0 0 320 50"><style>.st0{fill:#393}.st1{fill:#231f20}</style><path class="st0" d="M13.8 13.2v3.7h3.9v-3.7h2.1v9.7h-2.1v-4.2h-3.9v4.2h-2.1v-9.7h2.1zM21.4 18c0-.5.1-.8.3-1.1.2-.3.5-.5.8-.7.3-.2.7-.3 1-.4.4-.1.8-.1 1.2-.1.4 0 .7 0 1.1.1.4 0 .7.1 1 .3.3.1.5.3.7.6.2.3.3.6.3 1v3.6c0 .3 0 .6.1.9 0 .3.1.5.2.6H26c0-.1-.1-.2-.1-.3v-.3c-.3.3-.7.5-1.1.7-.4.1-.8.1-1.2.1-.3 0-.6 0-.9-.1-.3-.1-.5-.2-.8-.4-.2-.2-.4-.4-.5-.6-.1-.3-.2-.6-.2-.9 0-.4.1-.7.2-1s.3-.5.5-.6c.2-.2.5-.3.8-.3.3-.1.6-.1.9-.2s.6-.1.9-.1c.3 0 .5-.1.7-.1.2-.1.4-.1.5-.2.1-.1.2-.3.2-.5s0-.4-.1-.5l-.3-.3c-.1-.1-.2-.1-.4-.1h-.5c-.4 0-.7.1-.9.2s-.3.4-.4.8h-1.9zm4.4 1.4c-.1.1-.2.1-.3.2-.1 0-.3.1-.4.1-.1 0-.3 0-.4.1s-.3 0-.5.1c-.1 0-.3.1-.4.1-.1 0-.3.1-.4.2l-.3.3c-.1.1-.1.3-.1.4 0 .2 0 .3.1.4s.1.2.3.3c.1.1.2.1.4.1h.4c.4 0 .7-.1.9-.2.2-.1.4-.3.5-.5s.2-.4.2-.5v-1.1zM31 22.8l-2.4-7h2l1.5 4.8 1.5-4.8h1.9l-2.4 7H31zM38.3 21.2c.3.3.7.4 1.2.4.4 0 .7-.1 1-.3.3-.2.5-.4.5-.6h1.7c-.3.8-.7 1.4-1.2 1.8s-1.2.5-2 .5c-.5 0-1-.1-1.5-.3-.4-.2-.8-.4-1.1-.8-.3-.3-.5-.7-.7-1.2-.2-.5-.2-.9-.2-1.5 0-.5.1-1 .3-1.5.2-.5.4-.8.7-1.2.3-.3.7-.6 1.1-.8.4-.2.9-.3 1.5-.3s1.1.1 1.6.3c.4.2.8.5 1.1.9.3.4.5.8.6 1.3.1.5.2 1 .1 1.6h-5c-.1.9 0 1.4.3 1.7zm2.2-3.7c-.2-.3-.6-.4-1-.4-.3 0-.6.1-.8.2-.2.1-.4.2-.5.4-.1.2-.2.3-.3.5 0 .2-.1.3-.1.5H41c-.1-.6-.3-1-.5-1.2zM46.9 13.2h2.4l2.3 3.8 2.2-3.8h2.4l-3.6 5.9v3.7h-2.1V19l-3.6-5.8zM56.9 16.1c.2-.6.5-1.2.9-1.6.4-.5.9-.8 1.5-1.1.6-.3 1.3-.4 2-.4s1.4.1 2 .4c.6.3 1.1.6 1.5 1.1.4.5.7 1 .9 1.6s.3 1.3.3 2-.1 1.4-.3 2c-.2.6-.5 1.1-.9 1.6s-.9.8-1.5 1.1-1.3.4-2 .4-1.4-.1-2-.4-1.1-.6-1.5-1.1c-.4-.5-.7-1-.9-1.6-.2-.6-.3-1.3-.3-2 0-.8.1-1.4.3-2zm1.9 3.1c.1.4.2.7.5 1 .2.3.5.6.8.7.3.2.7.3 1.2.3s.9-.1 1.2-.3c.3-.2.6-.4.8-.7.2-.3.4-.7.5-1s.1-.8.1-1.2c0-.4 0-.8-.1-1.2s-.2-.8-.5-1.1c-.2-.3-.5-.6-.8-.7-.3-.2-.7-.3-1.2-.3s-.9.1-1.2.3c-.3.2-.6.4-.8.7-.2.3-.4.7-.5 1.1-.1.4-.1.8-.1 1.2 0 .5 0 .9.1 1.2zM74.6 22.1c-.7.6-1.7 1-3 1s-2.3-.3-3-.9c-.7-.6-1.1-1.6-1.1-2.9v-6h2.1v6c0 .3 0 .5.1.8 0 .3.1.5.3.7.1.2.3.4.6.5s.6.2 1 .2c.8 0 1.3-.2 1.6-.5.3-.3.4-.9.4-1.6v-6h2.1v6c0 1.1-.4 2.1-1.1 2.7zM82.7 13.2c.4 0 .8.1 1.2.2.3.1.6.3.9.6.2.2.4.5.6.8.1.3.2.7.2 1 0 .6-.1 1.1-.4 1.5s-.6.7-1.2.9c.3.1.5.2.6.3.2.1.3.3.4.5.1.2.2.4.2.7s.1.5.1.7v1.1c0 .2.1.4.1.6 0 .2.1.4.2.5h-2.1c-.1-.3-.2-.7-.2-1.1 0-.4-.1-.8-.1-1.2-.1-.5-.2-.9-.5-1.1s-.6-.4-1.1-.4h-2.1v3.8h-2.1v-9.7h5.3zm-.7 4.4c.5 0 .9-.1 1.1-.3.2-.2.4-.6.4-1.1 0-.5-.1-.8-.4-1-.2-.2-.6-.3-1.1-.3h-2.3v2.7H82zM97.2 15.8c-.1-.2-.3-.4-.5-.5-.2-.2-.4-.3-.6-.4-.2-.1-.5-.1-.8-.1-.5 0-.9.1-1.2.3-.3.2-.6.4-.8.7-.2.3-.4.7-.5 1.1-.1.4-.1.8-.1 1.2 0 .4 0 .8.1 1.2.1.4.2.7.5 1 .2.3.5.6.8.7.3.2.7.3 1.2.3.6 0 1.2-.2 1.5-.6.4-.4.6-.9.7-1.6h2.1c-.1.6-.2 1.1-.4 1.6s-.5.9-.9 1.2-.8.6-1.3.8c-.5.2-1 .3-1.6.3-.7 0-1.4-.1-2-.4s-1.1-.6-1.5-1.1c-.4-.5-.7-1-.9-1.6-.2-.6-.3-1.3-.3-2s.1-1.4.3-2 .5-1.2.9-1.6c.4-.5.9-.8 1.5-1.1.6-.3 1.3-.4 2-.4.5 0 1 .1 1.5.2.5.2.9.4 1.3.7.4.3.7.7.9 1.1s.4.9.5 1.5h-2.1c-.1-.1-.1-.3-.3-.5zM105.9 13.2l3.6 9.7h-2.2l-.7-2.1H103l-.8 2.1H100l3.6-9.7h2.3zm.1 5.9l-1.2-3.5-1.3 3.5h2.5zM112.4 13.2v4l3.8-4h2.6L115 17l4.1 5.8h-2.7l-2.9-4.3-1.2 1.2v3.1h-2.1v-9.7h2.2zM127.3 13.2V15h-5.1v2h4.7v1.6h-4.7V21h5.2v1.8h-7.3v-9.7h7.2z"/><g><path class="st1" d="M11.4 32c0-.5.1-.8.3-1.1.2-.3.5-.5.8-.7.3-.2.7-.3 1-.4.4-.1.8-.1 1.2-.1.4 0 .7 0 1.1.1.4 0 .7.1 1 .3.3.1.5.3.7.6.2.3.3.6.3 1v3.6c0 .3 0 .6.1.9 0 .3.1.5.2.6H16c0-.1-.1-.2-.1-.3v-.3c-.3.3-.7.5-1.1.7s-.8.1-1.3.1c-.3 0-.6 0-.9-.1-.3-.1-.5-.2-.8-.4-.2-.2-.4-.4-.5-.6-.1-.3-.2-.6-.2-.9 0-.4.1-.7.2-1s.3-.5.5-.6.5-.3.8-.3c.3-.1.6-.1.9-.2.3 0 .6-.1.9-.1.3 0 .5-.1.7-.1.2-.1.4-.1.5-.2.1-.1.2-.3.2-.5s0-.4-.1-.5l-.3-.3c-.1-.1-.2-.2-.4-.2h-.5c-.4 0-.7.1-.9.2-.2.2-.3.4-.4.8h-1.8zm4.4 1.4c-.1.1-.2.1-.3.2-.1 0-.3.1-.4.1-.1 0-.3 0-.4.1-.2 0-.3 0-.5.1-.1 0-.3.1-.4.1s-.3.1-.4.2l-.3.3c-.1.1-.1.3-.1.4 0 .2 0 .3.1.4s.1.2.3.3c.1.1.2.1.4.1h.4c.4 0 .7-.1.9-.2.2-.1.4-.3.5-.5.1-.2.2-.4.2-.5v-1.1zM20.9 29.9v1c.2-.4.6-.7.9-.9.4-.2.8-.3 1.2-.3.5 0 .9.1 1.3.2.3.1.6.3.8.6.2.2.3.5.4.9.1.4.1.8.1 1.2v4.3h-1.9V33c0-.6-.1-1-.3-1.3-.2-.3-.5-.4-1-.4s-.9.2-1.1.5c-.2.2-.3.7-.3 1.4v3.7h-1.9v-7h1.8zM31.9 36c-.2.4-.5.7-.9.8-.4.2-.8.2-1.2.2-.5 0-1-.1-1.4-.3-.4-.2-.7-.5-1-.8-.3-.3-.5-.7-.6-1.2-.1-.5-.2-.9-.2-1.4 0-.5.1-.9.2-1.4s.3-.8.6-1.2c.3-.3.6-.6 1-.8.4-.2.8-.3 1.4-.3.4 0 .8.1 1.2.3s.7.4.9.8v-3.5h1.9v9.7H32l-.1-.9zm0-3.5c-.1-.3-.1-.5-.3-.7-.1-.2-.3-.4-.5-.5-.2-.1-.5-.2-.8-.2s-.6.1-.8.2c-.2.1-.4.3-.5.5-.1.2-.2.4-.3.7-.1.3-.1.5-.1.8 0 .3 0 .5.1.8.1.3.2.5.3.7s.3.4.5.5c.2.1.5.2.8.2.3 0 .6-.1.8-.2s.4-.3.5-.5c.1-.2.2-.5.3-.7.1-.3.1-.5.1-.8-.1-.3-.1-.5-.1-.8zM41.1 27.2v4l3.8-4h2.6L43.7 31l4.1 5.8h-2.7l-2.9-4.3-1.2 1.2v3.1h-2v-9.7h2.1zM55.8 27.2V29h-5.1v2h4.7v1.6h-4.7V35h5.2v1.8h-7.3v-9.7h7.2zM64.4 27.2V29h-5.1v2H64v1.6h-4.7V35h5.2v1.8h-7.3v-9.7h7.2zM70.2 27.2c.6 0 1.1.1 1.5.3.4.2.8.4 1 .7.3.3.5.6.6 1 .1.4.2.8.2 1.1 0 .4-.1.8-.2 1.1s-.3.7-.6 1c-.3.3-.6.5-1 .7-.4.2-.9.3-1.5.3H68v3.5h-2.1v-9.7h4.3zm-.6 4.5c.2 0 .5 0 .7-.1.2 0 .4-.1.6-.2.2-.1.3-.2.4-.4.1-.2.2-.4.2-.7 0-.3-.1-.6-.2-.7s-.2-.3-.4-.4c-.2-.1-.4-.2-.6-.2-.2 0-.5-.1-.7-.1H68v2.9h1.6zM80.7 38.9c-.4.2-.9.4-1.5.4H78v-1.6c.2 0 .4 0 .6.1h.6c.3 0 .4-.1.6-.3.1-.2.2-.4.2-.6 0-.2 0-.3-.1-.4l-2.4-6.6h2l1.6 4.8 1.5-4.8h2l-2.9 7.9c-.3.5-.6.9-1 1.1zM85.1 31.8c.2-.5.4-.8.7-1.2.3-.3.7-.6 1.1-.7s.9-.3 1.5-.3c.5 0 1 .1 1.5.3.4.2.8.4 1.1.7.3.3.6.7.7 1.2.2.5.3 1 .3 1.5s-.1 1.1-.3 1.5c-.2.5-.4.8-.7 1.2-.3.3-.7.6-1.1.7-.4.2-.9.3-1.5.3-.5 0-1-.1-1.5-.3s-.8-.4-1.1-.7c-.3-.3-.6-.7-.7-1.2-.2-.5-.3-1-.3-1.5s.1-1 .3-1.5zm1.7 2.4c.1.3.1.5.3.7.1.2.3.4.5.5s.5.2.8.2.6-.1.8-.2c.2-.1.4-.3.5-.5.1-.2.2-.5.3-.7.1-.3.1-.5.1-.8s0-.6-.1-.8c-.1-.3-.1-.5-.3-.7-.1-.2-.3-.4-.5-.5-.2-.1-.5-.2-.8-.2s-.6.1-.8.2c-.2.1-.4.3-.5.5-.1.2-.2.4-.3.7s-.1.5-.1.8.1.5.1.8zM97.9 36.8v-1c-.2.4-.6.7-.9.9-.4.2-.8.3-1.2.3-.5 0-.9-.1-1.3-.2-.3-.1-.6-.3-.8-.6-.2-.2-.3-.5-.4-.9-.1-.4-.1-.8-.1-1.2v-4.3h1.9v3.9c0 .6.1 1 .3 1.3.2.3.5.4 1 .4s.9-.2 1.1-.5.4-.8.4-1.5v-3.7h1.9v7h-1.9zM102.9 29.9v1.3c.1-.2.2-.4.4-.6l.5-.5.6-.3c.2-.1.5-.1.7-.1.1 0 .3 0 .4.1v1.8h-.7c-.4 0-.6.1-.9.2-.2.1-.4.3-.6.5-.1.2-.3.4-.3.7-.1.3-.1.6-.1.9V37H101v-7h1.9zM109.9 28.8v-1.6h1.9v1.6h-1.9zm1.9 1.1v7h-1.9v-7h1.9zM115 29.9v1c.2-.4.6-.7.9-.9.4-.2.8-.3 1.2-.3.5 0 .9.1 1.3.2.3.1.6.3.8.6.2.2.3.5.4.9.1.4.1.8.1 1.2v4.3h-1.9V33c0-.6-.1-1-.3-1.3-.2-.3-.5-.4-1-.4s-.9.2-1.1.5c-.2.3-.4.8-.4 1.5V37h-1.9v-7h1.9zM124.4 31.1c-.3 0-.6.1-.8.2-.2.1-.4.3-.5.5-.1.2-.2.5-.3.7s-.1.5-.1.8c0 .3 0 .5.1.8.1.3.1.5.3.7.1.2.3.4.5.5.2.1.5.2.8.2.5 0 .8-.1 1.1-.4s.4-.6.5-1h1.9c-.1.9-.5 1.6-1.1 2.1-.6.5-1.4.7-2.3.7-.5 0-1-.1-1.4-.3-.4-.2-.8-.4-1.1-.7-.3-.3-.5-.7-.7-1.1-.2-.4-.3-.9-.3-1.4 0-.5.1-1 .2-1.5s.4-.9.7-1.2c.3-.3.7-.6 1.1-.8.4-.2.9-.3 1.5-.3.4 0 .8.1 1.2.2.4.1.7.3 1 .5.3.2.5.5.7.8.2.3.3.7.3 1.2h-1.9c-.1-.8-.6-1.2-1.4-1.2zM128.8 28.8v-1.6h1.9v1.6h-1.9zm1.9 1.1v7h-1.9v-7h1.9zM133.7 35.1c.1.1.2.3.3.4s.3.2.5.2.4.1.5.1h.4c.1 0 .3-.1.4-.1l.3-.3c.1-.1.1-.3.1-.4 0-.3-.2-.5-.6-.6-.4-.1-.9-.3-1.6-.4-.3-.1-.6-.1-.8-.2-.3-.1-.5-.2-.7-.3-.2-.1-.4-.3-.5-.5-.1-.2-.2-.5-.2-.8 0-.5.1-.8.3-1.1.2-.3.4-.5.7-.7.3-.2.6-.3 1-.4s.7-.1 1.1-.1.7 0 1.1.1.7.2 1 .4.5.4.7.7c.2.3.3.6.3 1.1h-1.8c0-.4-.2-.6-.4-.8-.3-.1-.5-.2-.9-.2h-.4c-.1 0-.2 0-.3.1s-.2.1-.3.2-.1.2-.1.3c0 .2.1.3.2.4.1.1.3.2.5.3.2.1.4.1.7.2.3.1.5.1.8.2.3.1.6.1.8.2s.5.2.7.4c.2.1.4.3.5.6.1.2.2.5.2.8 0 .5-.1.8-.3 1.2-.2.3-.4.6-.7.8s-.6.3-1 .4c-.4.1-.8.1-1.2.1-.4 0-.8 0-1.2-.1-.4-.1-.7-.2-1-.4-.3-.2-.5-.4-.7-.8s-.3-.7-.3-1.2h1.8c0-.1 0 .1.1.2zM139.3 31.8c.2-.5.4-.8.7-1.2.3-.3.7-.6 1.1-.7s.9-.3 1.5-.3c.5 0 1 .1 1.5.3.4.2.8.4 1.1.7.3.3.6.7.7 1.2.2.5.3 1 .3 1.5s-.1 1.1-.3 1.5c-.2.5-.4.8-.7 1.2-.3.3-.7.6-1.1.7-.4.2-.9.3-1.5.3-.5 0-1-.1-1.5-.3s-.8-.4-1.1-.7c-.3-.3-.6-.7-.7-1.2-.2-.5-.3-1-.3-1.5s.1-1 .3-1.5zm1.7 2.4c.1.3.1.5.3.7.1.2.3.4.5.5s.5.2.8.2.6-.1.8-.2c.2-.1.4-.3.5-.5.1-.2.2-.5.3-.7.1-.3.1-.5.1-.8s0-.6-.1-.8c-.1-.3-.1-.5-.3-.7-.1-.2-.3-.4-.5-.5-.2-.1-.5-.2-.8-.2s-.6.1-.8.2c-.2.1-.4.3-.5.5-.1.2-.2.4-.3.7s-.1.5-.1.8.1.5.1.8zM149.2 29.9v1.3c.1-.2.2-.4.4-.6l.5-.5.6-.3c.2-.1.5-.1.7-.1.1 0 .3 0 .4.1v1.8h-.7c-.4 0-.6.1-.9.2-.2.1-.4.3-.6.5-.1.2-.3.4-.3.7-.1.3-.1.6-.1.9V37h-1.9v-7h1.9zM154.1 35.1c.1.1.2.3.3.4s.3.2.5.2.4.1.5.1h.4c.1 0 .3-.1.4-.1l.3-.3c.1-.1.1-.3.1-.4 0-.3-.2-.5-.6-.6-.4-.1-.9-.3-1.6-.4-.3-.1-.6-.1-.8-.2-.3-.1-.5-.2-.7-.3-.2-.1-.4-.3-.5-.5-.1-.2-.2-.5-.2-.8 0-.5.1-.8.3-1.1.2-.3.4-.5.7-.7.3-.2.6-.3 1-.4s.7-.1 1.1-.1.7 0 1.1.1.7.2 1 .4.5.4.7.7c.2.3.3.6.3 1.1h-1.8c0-.4-.2-.6-.4-.8-.3-.1-.6-.2-.9-.2h-.4c-.1 0-.2 0-.3.1s-.2.1-.3.2-.1.2-.1.3c0 .2.1.3.2.4.1.1.3.2.5.3.2.1.4.1.7.2.3.1.5.1.8.2.3.1.6.1.8.2s.5.2.7.4c.2.1.4.3.5.6.1.2.2.5.2.8 0 .5-.1.8-.3 1.2-.2.3-.4.6-.7.8s-.6.3-1 .4c-.4.1-.8.1-1.2.1-.4 0-.8 0-1.2-.1-.4-.1-.7-.2-1-.4-.3-.2-.5-.4-.7-.8s-.3-.7-.3-1.2h1.8c0-.1 0 .1.1.2zM161.8 34.8v2.1c0 .3-.1.6-.2.8-.1.3-.3.5-.5.7-.2.2-.4.3-.7.5-.3.1-.5.2-.8.2v-1c.1 0 .3-.1.4-.2l.3-.3c.1-.1.2-.2.2-.4 0-.1.1-.3.1-.4h-1v-2.1h2.2zM165 29v-1.8h7.9V29H170v7.9h-2.1V29H165zM173.8 30.1c.2-.6.5-1.2.9-1.6s.9-.8 1.5-1.1c.6-.3 1.3-.4 2-.4s1.4.1 2 .4c.6.3 1.1.6 1.5 1.1s.7 1 .9 1.6c.2.6.3 1.3.3 2s-.1 1.4-.3 2c-.2.6-.5 1.1-.9 1.6s-.9.8-1.5 1.1c-.6.3-1.3.4-2 .4s-1.4-.1-2-.4c-.6-.3-1.1-.6-1.5-1.1-.4-.5-.7-1-.9-1.6-.2-.6-.3-1.3-.3-2-.1-.8 0-1.4.3-2zm1.9 3.1c.1.4.2.7.5 1 .2.3.5.6.8.7.3.2.7.3 1.2.3s.9-.1 1.2-.3c.3-.2.6-.4.8-.7.2-.3.4-.7.5-1 .1-.4.1-.8.1-1.2 0-.4 0-.8-.1-1.2s-.2-.8-.5-1.1c-.2-.3-.5-.6-.8-.7-.3-.2-.7-.3-1.2-.3s-.9.1-1.2.3c-.3.2-.6.4-.8.7-.2.3-.4.7-.5 1.1s-.1.8-.1 1.2c0 .5 0 .9.1 1.2zM184.2 30.1c.2-.6.5-1.2.9-1.6s.9-.8 1.5-1.1c.6-.3 1.3-.4 2-.4s1.4.1 2 .4c.6.3 1.1.6 1.5 1.1s.7 1 .9 1.6c.2.6.3 1.3.3 2s-.1 1.4-.3 2c-.2.6-.5 1.1-.9 1.6s-.9.8-1.5 1.1c-.6.3-1.3.4-2 .4s-1.4-.1-2-.4c-.6-.3-1.1-.6-1.5-1.1-.4-.5-.7-1-.9-1.6-.2-.6-.3-1.3-.3-2-.1-.8 0-1.4.3-2zm1.9 3.1c.1.4.2.7.5 1 .2.3.5.6.8.7.3.2.7.3 1.2.3s.9-.1 1.2-.3c.3-.2.6-.4.8-.7.2-.3.4-.7.5-1 .1-.4.1-.8.1-1.2 0-.4 0-.8-.1-1.2s-.2-.8-.5-1.1c-.2-.3-.5-.6-.8-.7-.3-.2-.7-.3-1.2-.3s-.9.1-1.2.3c-.3.2-.6.4-.8.7-.2.3-.4.7-.5 1.1s-.1.8-.1 1.2c0 .5 0 .9.1 1.2z"/></g></svg>