<svg id="Layer_1" xmlns="http://www.w3.org/2000/svg" viewBox="0 0 320 50"><style>.st0{fill:#231f20}</style><path class="st0" d="M16.8 12.5l3.6 9.7h-2.2l-.7-2.2h-3.6l-.8 2.1H11l3.6-9.7h2.2zm.1 5.9l-1.2-3.5-1.3 3.5h2.5zM22.8 15.2v1c.2-.4.6-.7.9-.9.4-.2.8-.3 1.2-.3.5 0 .9.1 1.3.2.3.1.6.3.8.6.2.2.3.5.4.9s.1.8.1 1.2v4.3h-1.9v-3.9c0-.6-.1-1-.3-1.3-.2-.3-.5-.4-1-.4s-.9.2-1.1.5c-.2.3-.4.8-.4 1.5v3.7h-1.9v-7h1.9zM33.8 21.3c-.2.4-.5.7-.9.8-.4.2-.8.2-1.2.2-.5 0-1-.1-1.4-.3s-.7-.5-1-.8c-.3-.3-.5-.7-.6-1.2s-.2-.9-.2-1.4c0-.5.1-.9.2-1.4s.3-.8.6-1.2c.3-.3.6-.6 1-.8.4-.2.8-.3 1.4-.3.4 0 .8.1 1.2.3s.7.4.9.8v-3.5h1.9v9.7h-1.8l-.1-.9zm-.1-3.5c-.1-.3-.1-.5-.3-.7-.1-.2-.3-.4-.5-.5-.2-.1-.5-.2-.8-.2s-.6.1-.8.2c-.2.1-.4.3-.5.5-.1.2-.2.4-.3.7-.1.3-.1.5-.1.8 0 .3 0 .5.1.8.1.3.2.5.3.7.1.2.3.4.5.5.2.1.5.2.8.2.3 0 .6-.1.8-.2.2-.1.4-.3.5-.5.1-.2.2-.5.3-.7s.1-.5.1-.8 0-.5-.1-.8zM47.2 22.7c-.1.4-.2.7-.5 1-.3.3-.6.6-1.1.8-.5.2-1.1.3-1.9.3-.3 0-.7 0-1-.1-.4-.1-.7-.2-1-.4-.3-.2-.5-.4-.7-.7-.2-.3-.3-.6-.3-1h1.9c.1.4.3.6.5.8s.6.2.9.2c.5 0 .9-.2 1.2-.5.2-.3.4-.7.4-1.2V21c-.2.4-.5.6-.9.8-.4.2-.8.3-1.2.3-.5 0-1-.1-1.4-.3-.4-.2-.7-.4-.9-.8-.2-.3-.4-.7-.5-1.1-.1-.4-.2-.9-.2-1.4 0-.5.1-.9.2-1.3s.3-.8.6-1.1c.3-.3.6-.6.9-.8.4-.2.8-.3 1.3-.3s.9.1 1.2.3c.3.2.6.5.9.9v-.9h1.8v6.5c-.1.2-.1.5-.2.9zm-2.6-2.3c.2-.1.4-.3.5-.4s.2-.4.3-.6c.1-.2.1-.5.1-.7 0-.3 0-.6-.1-.8-.1-.3-.1-.5-.3-.7-.1-.2-.3-.4-.5-.5-.2-.1-.5-.2-.8-.2-.3 0-.5.1-.7.2-.2.1-.4.3-.5.4l-.3.6c-.1.2-.1.5-.1.8 0 .3 0 .5.1.8 0 .2.1.5.3.7s.3.4.5.5c.2.1.4.2.7.2.3-.2.6-.2.8-.3zM50.8 20.5c.3.3.7.4 1.2.4.4 0 .7-.1 1-.3.3-.2.5-.4.5-.6h1.7c-.3.8-.7 1.4-1.2 1.8s-1.2.5-2 .5c-.5 0-1-.1-1.5-.3-.4-.2-.8-.4-1.1-.8-.3-.3-.5-.7-.7-1.2-.2-.5-.2-.9-.2-1.5 0-.5.1-1 .3-1.5.2-.5.4-.8.7-1.2.3-.3.7-.6 1.1-.8.4-.2.9-.3 1.5-.3s1.1.1 1.6.3c.4.2.8.5 1.1.9.3.4.5.8.6 1.3.1.5.2 1 .1 1.6h-5c-.2 1 0 1.4.3 1.7zm2.1-3.7c-.2-.3-.6-.4-1-.4-.3 0-.6.1-.8.2-.2.1-.4.2-.5.4-.1.2-.2.3-.3.5 0 .2-.1.3-.1.5h3.1c0-.6-.1-.9-.4-1.2zM60.2 15.2v1.3h-1.4V20c0 .3.1.5.2.6.1.1.3.2.6.2h.6v1.5c-.2 0-.3 0-.5.1h-.6c-.3 0-.6 0-.8-.1-.3 0-.5-.1-.7-.2-.2-.1-.4-.3-.5-.5-.1-.2-.2-.5-.2-.9v-4.1h-1.2v-1.3h1.2v-2.1h1.9v2.1h1.4zM69.5 24.6v-3.3c-.2.4-.5.6-.9.8-.4.2-.8.2-1.3.2-.3 0-.7-.1-1-.2-.3-.1-.7-.3-1-.6-.3-.3-.5-.7-.7-1.1-.2-.5-.3-1-.3-1.7 0-.5.1-.9.2-1.4.1-.5.3-.8.6-1.2.3-.3.6-.6 1-.8.4-.2.9-.3 1.4-.3.4 0 .8.1 1.2.2.4.2.7.4.9.8v-.9h1.8v9.4h-1.9zm-3.2-5.1c.1.3.1.5.3.7.1.2.3.4.5.5.2.1.5.2.8.2s.6-.1.8-.2c.2-.1.4-.3.5-.5.1-.2.2-.4.3-.7s.1-.5.1-.8c0-.3 0-.5-.1-.8-.1-.3-.2-.5-.3-.7-.1-.2-.3-.4-.5-.5-.2-.1-.5-.2-.8-.2-.3 0-.6.1-.8.2-.2.1-.4.3-.5.5-.1.2-.2.5-.3.7-.1.3-.1.5-.1.8.1.3.1.5.1.8zM77.5 22.2v-1c-.2.4-.6.7-.9.9-.4.2-.8.3-1.2.3-.5 0-.9-.1-1.3-.2-.3-.1-.6-.3-.8-.6-.2-.2-.3-.5-.4-.9-.1-.4-.1-.8-.1-1.2v-4.3h1.9v3.9c0 .6.1 1 .3 1.3.2.3.5.4 1 .4s.9-.2 1.1-.5.4-.8.4-1.5v-3.7h1.9v7h-1.9zM80.6 17.3c0-.5.1-.8.3-1.1.2-.3.5-.5.8-.7.3-.2.7-.3 1-.4.4-.1.8-.1 1.2-.1.4 0 .7 0 1.1.1.4 0 .7.1 1 .3.3.1.5.3.7.6.2.3.3.6.3 1v3.6c0 .3 0 .6.1.9 0 .3.1.5.2.6h-1.9c0-.1-.1-.2-.1-.3v-.3c-.3.3-.7.5-1.1.7-.4.1-.8.2-1.3.2-.3 0-.6 0-.9-.1-.3-.1-.5-.2-.8-.4-.2-.2-.4-.4-.5-.6-.1-.3-.2-.6-.2-.9 0-.4.1-.7.2-1s.3-.5.5-.6c.2-.2.5-.3.8-.3.3-.1.6-.1.9-.2s.6-.1.9-.1c.3 0 .5-.1.7-.1.2-.1.4-.1.5-.2.1-.1.2-.3.2-.5s0-.4-.1-.5l-.3-.3c-.1-.1-.2-.1-.4-.1h-.5c-.4 0-.7.1-.9.2s-.3.4-.4.8h-2zm4.4 1.5c-.1.1-.2.1-.3.2-.1 0-.3.1-.4.1-.1 0-.3 0-.4.1s-.3 0-.5.1c-.1 0-.3.1-.4.1-.1 0-.3.1-.4.2l-.3.3c-.1.1-.1.3-.1.4 0 .2 0 .3.1.4s.1.2.3.3h.8c.4 0 .7-.1.9-.2.2-.1.4-.3.5-.5s.2-.4.2-.5v-1zM90.3 12.5v9.7h-1.9v-9.7h1.9zM91.7 14.1v-1.6h1.9v1.6h-1.9zm1.9 1.1v7h-1.9v-7h1.9zM98.8 15.2v1.3h-1.4V20c0 .3.1.5.2.6.1.1.3.2.6.2h.6v1.5c-.2 0-.3 0-.5.1h-.6c-.3 0-.6 0-.8-.1-.3 0-.5-.1-.7-.2-.2-.1-.4-.3-.5-.5-.1-.2-.2-.5-.2-.9v-4.1h-1.2v-1.3h1.2v-2.1h1.9v2.1h1.4zM102.2 24.3c-.4.2-.9.4-1.5.4h-1.2V23c.2 0 .4 0 .6.1h.6c.3 0 .4-.1.6-.3.1-.2.2-.4.2-.6 0-.2 0-.3-.1-.4L99 15.2h2l1.6 4.8 1.5-4.8h2l-2.9 7.9c-.3.5-.6.9-1 1.2zM113.5 16.4c-.3 0-.6.1-.8.2-.2.1-.4.3-.5.5-.1.2-.2.5-.3.7-.1.3-.1.5-.1.8 0 .3 0 .5.1.8.1.3.1.5.3.7.1.2.3.4.5.5.2.1.5.2.8.2.5 0 .8-.1 1.1-.4s.4-.6.5-1h1.9c-.1.9-.5 1.6-1.1 2.1-.6.5-1.4.7-2.3.7-.5 0-1-.1-1.4-.3-.4-.2-.8-.4-1.1-.7-.3-.3-.5-.7-.7-1.1-.2-.4-.3-.9-.3-1.4 0-.5.1-1 .2-1.5.2-.5.4-.9.7-1.2.3-.3.7-.6 1.1-.8.4-.2.9-.3 1.5-.3.4 0 .8.1 1.2.2.4.1.7.3 1 .5.3.2.5.5.7.8.2.3.3.7.3 1.2h-1.9c-.1-.8-.6-1.2-1.4-1.2zM117.8 17.2c.2-.5.4-.8.7-1.2.3-.3.7-.6 1.1-.7s.9-.3 1.5-.3c.5 0 1 .1 1.5.3.4.2.8.4 1.1.7.3.3.6.7.7 1.2.2.5.3 1 .3 1.5 0 .6-.1 1.1-.3 1.5-.2.5-.4.8-.7 1.2-.3.3-.7.6-1.1.7-.4.2-.9.3-1.5.3-.5 0-1-.1-1.5-.3s-.8-.4-1.1-.7c-.3-.3-.6-.7-.7-1.2-.2-.5-.3-1-.3-1.5.1-.6.2-1.1.3-1.5zm1.8 2.3c.1.3.1.5.3.7.1.2.3.4.5.5.2.1.5.2.8.2s.6-.1.8-.2c.2-.1.4-.3.5-.5.1-.2.2-.5.3-.7.1-.3.1-.5.1-.8s0-.6-.1-.8c-.1-.3-.1-.5-.3-.7-.1-.2-.3-.4-.5-.5-.2-.1-.5-.2-.8-.2s-.6.1-.8.2c-.2.1-.4.3-.5.5-.1.2-.2.4-.3.7-.1.3-.1.5-.1.8s0 .5.1.8zM127.7 22.2l-2.4-7h2l1.5 4.8 1.5-4.8h1.9l-2.4 7h-2.1zM134.9 20.5c.3.3.7.4 1.2.4.4 0 .7-.1 1-.3.3-.2.5-.4.5-.6h1.7c-.3.8-.7 1.4-1.2 1.8s-1.2.5-2 .5c-.5 0-1-.1-1.5-.3-.4-.2-.8-.4-1.1-.8-.3-.3-.5-.7-.7-1.2-.2-.5-.2-.9-.2-1.5 0-.5.1-1 .3-1.5.2-.5.4-.8.7-1.2.3-.3.7-.6 1.1-.8.4-.2.9-.3 1.5-.3s1.1.1 1.6.3c.4.2.8.5 1.1.9.3.4.5.8.6 1.3.1.5.2 1 .1 1.6h-5c-.2 1 0 1.4.3 1.7zm2.2-3.7c-.2-.3-.6-.4-1-.4-.3 0-.6.1-.8.2-.2.1-.4.2-.5.4-.1.2-.2.3-.3.5 0 .2-.1.3-.1.5h3.1c-.1-.6-.2-.9-.4-1.2zM142.3 15.2v1.3c.1-.2.2-.4.4-.6l.5-.5.6-.3c.2-.1.5-.1.7-.1.1 0 .3 0 .4.1v1.8h-.7c-.4 0-.6.1-.9.2s-.4.3-.6.5c-.1.2-.3.4-.3.7-.1.3-.1.6-.1.9v3.1h-1.9v-7h1.9zM145.5 17.3c0-.5.1-.8.3-1.1.2-.3.5-.5.8-.7.3-.2.7-.3 1-.4.4-.1.8-.1 1.2-.1.4 0 .7 0 1.1.1.4 0 .7.1 1 .3.3.1.5.3.7.6.2.3.3.6.3 1v3.6c0 .3 0 .6.1.9 0 .3.1.5.2.6h-1.9c0-.1-.1-.2-.1-.3v-.3c-.3.3-.7.5-1.1.7-.4.1-.8.2-1.3.2-.3 0-.6 0-.9-.1-.3-.1-.5-.2-.8-.4-.2-.2-.4-.4-.5-.6-.1-.3-.2-.6-.2-.9 0-.4.1-.7.2-1s.3-.5.5-.6c.2-.2.5-.3.8-.3.3-.1.6-.1.9-.2s.6-.1.9-.1c.3 0 .5-.1.7-.1.2-.1.4-.1.5-.2.1-.1.2-.3.2-.5s0-.4-.1-.5l-.3-.3c-.1-.1-.2-.1-.4-.1h-.5c-.4 0-.7.1-.9.2s-.3.4-.4.8h-2zm4.5 1.5c-.1.1-.2.1-.3.2-.1 0-.3.1-.4.1-.1 0-.3 0-.4.1s-.3 0-.5.1c-.1 0-.3.1-.4.1-.1 0-.3.1-.4.2l-.3.3c-.1.1-.1.3-.1.4 0 .2 0 .3.1.4s.1.2.3.3c.1.1.2.1.4.1h.4c.4 0 .7-.1.9-.2.2-.1.4-.3.5-.5s.2-.4.2-.5v-1.1zM159.8 22.7c-.1.4-.2.7-.5 1-.3.3-.6.6-1.1.8-.5.2-1.1.3-1.9.3-.3 0-.7 0-1-.1-.4-.1-.7-.2-1-.4-.3-.2-.5-.4-.7-.7-.2-.3-.3-.6-.3-1h1.9c.1.4.3.6.5.8s.6.2.9.2c.5 0 .9-.2 1.2-.5.2-.3.4-.7.4-1.2V21c-.2.4-.5.6-.9.8s-.9.2-1.3.2c-.5 0-1-.1-1.4-.3-.4-.2-.7-.4-.9-.8-.2-.3-.4-.7-.5-1.1-.1-.4-.2-.9-.2-1.4 0-.5.1-.9.2-1.3s.3-.8.6-1.1c.3-.3.6-.6.9-.8.4-.2.8-.3 1.3-.3s.9.1 1.2.3c.3.2.6.5.9.9v-.9h1.8v6.5c.1.3 0 .6-.1 1zm-2.6-2.3c.2-.1.4-.3.5-.4l.3-.6c.1-.2.1-.5.1-.7 0-.3 0-.6-.1-.8-.1-.3-.1-.5-.3-.7-.1-.2-.3-.4-.5-.5s-.5-.2-.8-.2c-.3 0-.5.1-.7.2-.2.1-.4.3-.5.4l-.3.6c-.1.2-.1.5-.1.8 0 .3 0 .5.1.8 0 .2.1.5.3.7s.3.4.5.5c.2.1.4.2.7.2.4-.2.6-.2.8-.3zM163.4 20.5c.3.3.7.4 1.2.4.4 0 .7-.1 1-.3.3-.2.5-.4.5-.6h1.7c-.3.8-.7 1.4-1.2 1.8-.6.4-1.2.5-2 .5-.5 0-1-.1-1.5-.3s-.8-.4-1.1-.8c-.3-.3-.5-.7-.7-1.2-.2-.5-.2-.9-.2-1.5 0-.5.1-1 .3-1.5.2-.5.4-.8.7-1.2.3-.3.7-.6 1.1-.8.4-.2.9-.3 1.5-.3s1.1.1 1.6.3c.4.2.8.5 1.1.9.3.4.5.8.6 1.3s.2 1 .1 1.6h-5c-.1 1 0 1.4.3 1.7zm2.2-3.7c-.2-.3-.6-.4-1-.4-.3 0-.6.1-.8.2-.2.1-.4.2-.5.4-.1.2-.2.3-.3.5 0 .2-.1.3-.1.5h3.1c0-.6-.2-.9-.4-1.2z"/><g><path class="st0" d="M17.8 36.2l-1.2-4.7-1.2 4.7h-2l-2.2-7h2l1.3 4.7 1.2-4.7h1.9l1.2 4.7 1.3-4.7h2l-2.2 7h-2.1zM22.7 28.1v-1.6h1.9v1.6h-1.9zm2 1.1v7h-1.9v-7h1.9zM29.9 29.2v1.3h-1.4V34c0 .3.1.5.2.6.1.1.3.2.6.2h.6v1.5c-.2 0-.3 0-.5.1s-.4 0-.6 0c-.3 0-.6 0-.8-.1-.3 0-.5-.1-.7-.2-.2-.1-.4-.3-.5-.5-.1-.2-.2-.5-.2-.9v-4.1h-1.2v-1.3h1.2v-2.1h1.9v2.1h1.4zM32.6 26.5v3.6c.2-.4.6-.7.9-.9s.7-.3 1.1-.3c.5 0 .9.1 1.3.2.3.1.6.3.8.6.2.2.3.5.4.9.1.4.1.8.1 1.2v4.3h-1.9v-3.9c0-.6-.1-1-.3-1.3-.2-.3-.5-.4-1-.4s-.9.2-1.1.5c-.2.3-.4.8-.4 1.5v3.7h-1.9v-9.7h2zM44.2 34.5c.3.3.7.4 1.2.4.4 0 .7-.1 1-.3.3-.2.5-.4.5-.6h1.7c-.3.8-.7 1.4-1.2 1.8s-1.2.5-2 .5c-.5 0-1-.1-1.5-.3-.4-.2-.8-.4-1.1-.8s-.5-.7-.7-1.2c-.2-.5-.2-.9-.2-1.5 0-.5.1-1 .3-1.5.2-.5.4-.8.7-1.2.3-.3.7-.6 1.1-.8s.9-.3 1.5-.3 1.1.1 1.6.3c.4.2.8.5 1.1.9.3.4.5.8.6 1.3.1.5.2 1 .1 1.6h-5c-.1 1 .1 1.4.3 1.7zm2.2-3.7c-.2-.3-.6-.4-1-.4-.3 0-.6.1-.8.2s-.4.2-.5.4c-.1.2-.2.3-.3.5 0 .2-.1.3-.1.5h3.1c0-.5-.2-.9-.4-1.2zM49.3 29.2h2.2l1.2 1.8 1.2-1.8H56l-2.3 3.3 2.6 3.7h-2.2L52.7 34l-1.5 2.2h-2.1l2.5-3.7-2.3-3.3zM60.8 29.2v1.3h-1.4V34c0 .3.1.5.2.6.1.1.3.2.6.2h.6v1.5c-.2 0-.3 0-.5.1s-.4 0-.6 0c-.3 0-.6 0-.8-.1-.3 0-.5-.1-.7-.2-.2-.1-.4-.3-.5-.5-.1-.2-.2-.5-.2-.9v-4.1h-1.2v-1.3h1.2v-2.1h1.9v2.1h1.4zM63.4 29.2v1.3c.1-.2.2-.4.4-.6l.5-.5c.2-.2.4-.2.6-.3s.5-.1.7-.1c.1 0 .3 0 .4.1v1.8h-.7c-.4 0-.6.1-.9.2-.2.1-.4.3-.6.5-.1.2-.3.4-.3.7-.1.3-.1.6-.1.9v3.1h-1.9v-7h1.9zM66.7 31.3c0-.5.1-.8.3-1.1.2-.3.5-.5.8-.7.3-.2.7-.3 1-.4.4-.1.8-.1 1.2-.1.4 0 .7 0 1.1.1.4 0 .7.1 1 .3.3.1.5.3.7.6.2.3.3.6.3 1v3.6c0 .3 0 .6.1.9 0 .3.1.5.2.6h-1.9c0-.1-.1-.2-.1-.3v-.3c-.3.3-.7.5-1.1.7s-.8.2-1.3.2c-.3 0-.6 0-.9-.1-.3-.1-.5-.2-.8-.4-.2-.2-.4-.4-.5-.6-.1-.3-.2-.6-.2-.9 0-.4.1-.7.2-1s.3-.5.5-.6.5-.3.8-.3c.3-.1.6-.1.9-.2.3 0 .6-.1.9-.1.3 0 .5-.1.7-.1.2-.1.4-.1.5-.2.1-.1.2-.3.2-.5s0-.4-.1-.5l-.3-.3c-.1-.1-.2-.1-.4-.1H70c-.4 0-.7.1-.9.2-.2.2-.3.4-.4.8h-2zm4.4 1.5c-.1.1-.2.1-.3.2-.1 0-.3.1-.4.1-.1 0-.3 0-.4.1-.2 0-.3 0-.5.1-.1 0-.3.1-.4.1s-.3.1-.4.2l-.3.3c-.1.1-.1.3-.1.4 0 .2 0 .3.1.4s.1.2.3.3c.1.1.2.1.4.1h.4c.4 0 .7-.1.9-.2.2-.1.4-.3.5-.5.1-.2.2-.4.2-.5v-1.1zM76 34.4c.1.1.2.3.3.4s.3.2.5.2.4.1.5.1h.4c.1 0 .3-.1.4-.1l.3-.3c.1-.1.1-.3.1-.4 0-.3-.2-.5-.6-.6-.4-.1-.9-.3-1.6-.4-.3-.1-.6-.1-.8-.2-.3-.1-.5-.2-.7-.3-.2-.1-.4-.3-.5-.5-.1-.2-.2-.5-.2-.8 0-.5.1-.8.3-1.1.2-.3.4-.5.7-.7.3-.2.6-.3 1-.4s.7-.1 1.1-.1.7 0 1.1.1.7.2 1 .4.5.4.7.7c.2.3.3.6.3 1.1h-1.8c0-.4-.2-.6-.4-.8-.3-.1-.5-.2-.9-.2h-.4c-.1 0-.2 0-.3.1s-.2.1-.3.2-.1.2-.1.3c0 .2.1.3.2.4.1.1.3.2.5.3.2.1.4.1.7.2.3.1.5.1.8.2.3.1.6.1.8.2s.5.2.7.4c.2.1.4.3.5.6.1.2.2.5.2.8 0 .5-.1.8-.3 1.2-.2.3-.4.6-.7.8s-.6.3-1 .4c-.4.1-.8.1-1.2.1-.4 0-.8 0-1.2-.1-.4-.1-.7-.2-1-.4-.3-.2-.5-.4-.7-.8s-.3-.7-.3-1.2h1.8c0-.1 0 .1.1.2zM85.2 28.1v-1.6h1.9v1.6h-1.9zm1.9 1.1v7h-1.9v-7h1.9zM90.3 29.2v1c.2-.4.6-.7.9-.9.4-.2.8-.3 1.2-.3.5 0 .9.1 1.3.2.3.1.6.3.8.6.2.2.3.5.4.9.1.4.1.8.1 1.2v4.3h-1.9v-3.9c0-.6-.1-1-.3-1.3-.2-.3-.5-.4-1-.4s-.9.2-1.1.5c-.2.3-.4.8-.4 1.5v3.7h-1.9v-7h1.9zM99.7 30.5c-.3 0-.6.1-.8.2-.2.1-.4.3-.5.5-.1.2-.2.5-.3.7s-.1.5-.1.8c0 .3 0 .5.1.8.1.3.1.5.3.7.1.2.3.4.5.5.2.1.5.2.8.2.5 0 .8-.1 1.1-.4s.4-.6.5-1h1.9c-.1.9-.5 1.6-1.1 2.1-.6.5-1.4.7-2.3.7-.5 0-1-.1-1.4-.3-.4-.2-.8-.4-1.1-.7-.3-.3-.5-.7-.7-1.1-.2-.4-.3-.9-.3-1.4 0-.5.1-1 .2-1.5s.4-.9.7-1.2c.3-.3.7-.6 1.1-.8.4-.2.9-.3 1.5-.3.4 0 .8.1 1.2.2.4.1.7.3 1 .5.3.2.5.5.7.8.2.3.3.7.3 1.2h-1.9c-.1-.8-.5-1.2-1.4-1.2zM106 26.5v9.7h-1.9v-9.7h1.9zM112.1 36.2v-1c-.2.4-.6.7-.9.9-.4.2-.8.3-1.2.3-.5 0-.9-.1-1.3-.2-.3-.1-.6-.3-.8-.6-.2-.2-.3-.5-.4-.9-.1-.4-.1-.8-.1-1.2v-4.3h1.9v3.9c0 .6.1 1 .3 1.3.2.3.5.4 1 .4s.9-.2 1.1-.5.4-.8.4-1.5v-3.7h1.9v7h-1.9zM120.2 35.3c-.2.4-.5.7-.9.8-.4.2-.8.2-1.2.2-.5 0-1-.1-1.4-.3-.4-.2-.7-.5-1-.8-.3-.3-.5-.7-.6-1.2-.1-.5-.2-.9-.2-1.4 0-.5.1-.9.2-1.4s.3-.8.6-1.2c.3-.3.6-.6 1-.8.4-.2.8-.3 1.4-.3.4 0 .8.1 1.2.3.4.2.7.4.9.8v-3.5h1.9v9.7h-1.8l-.1-.9zm0-3.5c-.1-.3-.1-.5-.3-.7-.1-.2-.3-.4-.5-.5-.2-.1-.5-.2-.8-.2s-.6.1-.8.2c-.2.1-.4.3-.5.5-.1.2-.2.4-.3.7-.1.3-.1.5-.1.8 0 .3 0 .5.1.8.1.3.2.5.3.7s.3.4.5.5c.2.1.5.2.8.2.3 0 .6-.1.8-.2s.4-.3.5-.5c.1-.2.2-.5.3-.7.1-.3.1-.5.1-.8-.1-.2-.1-.5-.1-.8zM125.5 34.5c.3.3.7.4 1.2.4.4 0 .7-.1 1-.3.3-.2.5-.4.5-.6h1.7c-.3.8-.7 1.4-1.2 1.8s-1.2.5-2 .5c-.5 0-1-.1-1.5-.3-.4-.2-.8-.4-1.1-.8s-.5-.7-.7-1.2c-.2-.5-.2-.9-.2-1.5 0-.5.1-1 .3-1.5.2-.5.4-.8.7-1.2.3-.3.7-.6 1.1-.8s.9-.3 1.5-.3 1.1.1 1.6.3c.4.2.8.5 1.1.9.3.4.5.8.6 1.3.1.5.2 1 .1 1.6h-5c-.2 1 0 1.4.3 1.7zm2.1-3.7c-.2-.3-.6-.4-1-.4-.3 0-.6.1-.8.2s-.4.2-.5.4c-.1.2-.2.3-.3.5 0 .2-.1.3-.1.5h3.1c0-.5-.1-.9-.4-1.2zM136 35.3c-.2.4-.5.7-.9.8-.4.2-.8.2-1.2.2-.5 0-1-.1-1.4-.3-.4-.2-.7-.5-1-.8-.3-.3-.5-.7-.6-1.2-.1-.5-.2-.9-.2-1.4 0-.5.1-.9.2-1.4s.3-.8.6-1.2c.3-.3.6-.6 1-.8.4-.2.8-.3 1.4-.3.4 0 .8.1 1.2.3.4.2.7.4.9.8v-3.5h1.9v9.7H136v-.9zm-.1-3.5c-.1-.3-.1-.5-.3-.7-.1-.2-.3-.4-.5-.5-.2-.1-.5-.2-.8-.2s-.6.1-.8.2c-.2.1-.4.3-.5.5-.1.2-.2.4-.3.7-.1.3-.1.5-.1.8 0 .3 0 .5.1.8.1.3.2.5.3.7s.3.4.5.5c.2.1.5.2.8.2.3 0 .6-.1.8-.2s.4-.3.5-.5c.1-.2.2-.5.3-.7.1-.3.1-.5.1-.8 0-.2 0-.5-.1-.8zM141.4 34.1v2.1h-2.1v-2.1h2.1z"/></g></svg>