<svg id="Layer_1" xmlns="http://www.w3.org/2000/svg" viewBox="0 0 320 50"><style>.st0{fill:#393}</style><path class="st0" d="M16 12.5c.6 0 1.1.1 1.5.3.4.2.8.4 1 .7.3.3.5.6.6 1 .1.4.2.8.2 1.1 0 .4-.1.8-.2 1.1-.1.4-.3.7-.6 1-.3.3-.6.5-1 .7-.4.2-.9.3-1.5.3h-2.2v3.5h-2.1v-9.7H16zm-.6 4.6c.2 0 .5 0 .7-.1.2 0 .4-.1.6-.2.2-.1.3-.2.4-.4.1-.2.2-.4.2-.7 0-.3-.1-.6-.2-.7-.1-.2-.2-.3-.4-.4-.2-.1-.4-.2-.6-.2-.2 0-.5-.1-.7-.1h-1.6v2.9h1.6zM22.3 15.2v1.3c.1-.2.2-.4.4-.6l.5-.5.6-.3c.2-.1.5-.1.7-.1.1 0 .3 0 .4.1v1.8h-.7c-.4 0-.6.1-.9.2s-.4.3-.6.5c-.1.2-.3.4-.3.7-.1.3-.1.6-.1.9v3.1h-1.9v-7h1.9zM25.7 17.3c0-.5.1-.8.3-1.1.2-.3.5-.5.8-.7.3-.2.7-.3 1-.4.4-.1.8-.1 1.2-.1.4 0 .7 0 1.1.1.4 0 .7.1 1 .3.3.1.5.3.7.6.2.3.3.6.3 1v3.6c0 .3 0 .6.1.9 0 .3.1.5.2.6h-1.9c0-.1-.1-.2-.1-.3v-.3c-.3.3-.7.5-1.1.7-.4.1-.8.2-1.3.2-.3 0-.6 0-.9-.1-.3-.1-.5-.2-.8-.4-.2-.2-.4-.4-.5-.6-.1-.3-.2-.6-.2-.9 0-.4.1-.7.2-1s.3-.5.5-.6c.2-.2.5-.3.8-.3.3-.1.6-.1.9-.2s.6-.1.9-.1c.3 0 .5-.1.7-.1.2-.1.4-.1.5-.2.1-.1.2-.3.2-.5s0-.4-.1-.5l-.3-.3c-.1-.1-.2-.1-.4-.1H29c-.4 0-.7.1-.9.2s-.3.4-.4.8h-2zm4.4 1.5c-.1.1-.2.1-.3.2-.1 0-.3.1-.4.1-.1 0-.3 0-.4.1s-.3 0-.5.1c-.1 0-.3.1-.4.1-.1 0-.3.1-.4.2l-.3.3c-.1.1-.1.3-.1.4 0 .2 0 .3.1.4s.1.2.3.3c.1.1.2.1.4.1h.4c.4 0 .7-.1.9-.2.2-.1.4-.3.5-.5s.2-.4.2-.5v-1.1zM36.8 16.4c-.3 0-.6.1-.8.2-.2.1-.4.3-.5.5-.1.2-.2.5-.3.7-.1.3-.1.5-.1.8 0 .3 0 .5.1.8.1.3.1.5.3.7.1.2.3.4.5.5.2.1.5.2.8.2.5 0 .8-.1 1.1-.4s.4-.6.5-1h1.9c-.1.9-.5 1.6-1.1 2.1-.6.5-1.4.7-2.3.7-.5 0-1-.1-1.4-.3-.4-.2-.8-.4-1.1-.7-.3-.3-.5-.7-.7-1.1-.2-.4-.3-.9-.3-1.4 0-.5.1-1 .2-1.5.2-.5.4-.9.7-1.2.3-.3.7-.6 1.1-.8.4-.2.9-.3 1.5-.3.4 0 .8.1 1.2.2.4.1.7.3 1 .5.3.2.5.5.7.8.2.3.3.7.3 1.2h-1.9c-.1-.8-.6-1.2-1.4-1.2zM45.1 15.2v1.3h-1.4V20c0 .3.1.5.2.6.1.1.3.2.6.2h.6v1.5c-.2 0-.3 0-.5.1H44c-.3 0-.6 0-.8-.1-.3 0-.5-.1-.7-.2-.2-.1-.4-.3-.5-.5-.1-.2-.2-.5-.2-.9v-4.1h-1.2v-1.3h1.2v-2.1h1.9v2.1h1.4zM46.1 14.1v-1.6H48v1.6h-1.9zm1.9 1.1v7h-1.9v-7H48zM52.8 16.4c-.3 0-.6.1-.8.2-.2.1-.4.3-.5.5-.1.2-.2.5-.3.7-.1.3-.1.5-.1.8 0 .3 0 .5.1.8.1.3.1.5.3.7.1.2.3.4.5.5.2.1.5.2.8.2.5 0 .8-.1 1.1-.4s.4-.6.5-1h1.9c-.1.9-.5 1.6-1.1 2.1-.6.5-1.4.7-2.3.7-.5 0-1-.1-1.4-.3-.4-.2-.8-.4-1.1-.7-.3-.3-.5-.7-.7-1.1-.2-.4-.3-.9-.3-1.4 0-.5.1-1 .2-1.5.2-.5.4-.9.7-1.2.3-.3.7-.6 1.1-.8.4-.2.9-.3 1.5-.3.4 0 .8.1 1.2.2.4.1.7.3 1 .5.3.2.5.5.7.8.2.3.3.7.3 1.2h-1.9c-.1-.8-.5-1.2-1.4-1.2zM57.2 17.3c0-.5.1-.8.3-1.1.2-.3.5-.5.8-.7.3-.2.7-.3 1-.4.4-.1.8-.1 1.2-.1.4 0 .7 0 1.1.1.4 0 .7.1 1 .3.3.1.5.3.7.6.2.3.3.6.3 1v3.6c0 .3 0 .6.1.9 0 .3.1.5.2.6H62c0-.1-.1-.2-.1-.3v-.3c-.3.3-.7.5-1.1.7-.4.1-.8.2-1.3.2-.3 0-.6 0-.9-.1-.3-.1-.5-.2-.8-.4-.2-.2-.4-.4-.5-.6-.3-.4-.3-.7-.3-1 0-.4.1-.7.2-1s.3-.5.5-.6c.2-.2.5-.3.8-.3.3-.1.6-.1.9-.2s.6-.1.9-.1c.3 0 .5-.1.7-.1.2-.1.4-.1.5-.2.1-.1.2-.3.2-.5s0-.4-.1-.5l-.3-.3c-.1-.1-.2-.1-.4-.1h-.5c-.4 0-.7.1-.9.2s-.3.4-.4.8h-1.9zm4.4 1.5c-.1.1-.2.1-.3.2h-.4c-.1 0-.3 0-.4.1s-.3 0-.5.1c-.1 0-.3.1-.4.1-.1 0-.3.1-.4.2l-.3.3c-.1.1-.1.3-.1.4 0 .2 0 .3.1.4s.1.2.3.3c.1.1.2.1.4.1h.4c.4 0 .7-.1.9-.2.2-.1.4-.3.5-.5s.2-.4.2-.5v-1zM67 12.5v9.7h-1.9v-9.7H67zM79.5 22.2l-1.6-6.6-1.6 6.6h-2.1l-2.6-9.7h2.1l1.5 6.6 1.7-6.6h2l1.6 6.7 1.6-6.7h2.1l-2.6 9.7h-2.1zM85.1 14.1v-1.6H87v1.6h-1.9zm1.9 1.1v7h-1.9v-7H87zM90.1 20.4c.1.1.2.3.3.4.1.1.3.2.5.2s.4.1.5.1h.4c.1 0 .3-.1.4-.1l.3-.3c.1-.1.1-.3.1-.4 0-.3-.2-.5-.6-.6-.4-.1-.9-.3-1.6-.4-.1-.3-.4-.3-.7-.4-.3-.1-.5-.2-.7-.3-.2-.1-.4-.3-.5-.5-.1-.2-.2-.5-.2-.8 0-.5.1-.8.3-1.1.2-.3.4-.5.7-.7.3-.2.6-.3 1-.4.3-.1.7-.1 1.1-.1s.7 0 1.1.1c.4.1.7.2 1 .4s.5.4.7.7c.2.3.3.6.3 1.1h-1.8c0-.4-.2-.6-.4-.8-.3-.1-.5-.2-.9-.2H91c-.1 0-.2 0-.3.1-.1 0-.2.1-.3.2-.1.1-.1.2-.1.3 0 .2.1.3.2.4.1.1.3.2.5.3.2.1.4.1.7.2s.5.1.8.2c.3.1.6.1.8.2.3.1.5.2.7.4.2.1.4.3.5.6.1.2.2.5.2.8 0 .5-.1.8-.3 1.2-.2.3-.4.6-.7.8s-.6.3-1 .4c-.4.1-.8.1-1.2.1-.4 0-.8 0-1.2-.1-.4-.1-.7-.2-1-.4-.3-.2-.5-.4-.7-.8s-.3-.7-.3-1.2H90c0 .1 0 .3.1.4zM100.7 21.3c-.2.4-.5.7-.9.8-.4.2-.8.2-1.2.2-.5 0-1-.1-1.4-.3s-.7-.5-1-.8c-.3-.3-.5-.7-.6-1.2s-.2-.9-.2-1.4c0-.5.1-.9.2-1.4s.3-.8.6-1.2c.3-.3.6-.6 1-.8.4-.2.8-.3 1.4-.3.4 0 .8.1 1.2.3s.7.4.9.8v-3.5h1.9v9.7h-1.8l-.1-.9zm-.1-3.5c-.1-.3-.1-.5-.3-.7-.1-.2-.3-.4-.5-.5-.2-.1-.5-.2-.8-.2s-.6.1-.8.2c-.2.1-.4.3-.5.5-.1.2-.2.4-.3.7-.1.3-.1.5-.1.8 0 .3 0 .5.1.8.1.3.2.5.3.7.1.2.3.4.5.5.2.1.5.2.8.2.3 0 .6-.1.8-.2.2-.1.4-.3.5-.5.1-.2.2-.5.3-.7s.1-.5.1-.8 0-.5-.1-.8zM104.1 17.2c.2-.5.4-.8.7-1.2.3-.3.7-.6 1.1-.7s.9-.3 1.5-.3c.5 0 1 .1 1.5.3.4.2.8.4 1.1.7.3.3.6.7.7 1.2.2.5.3 1 .3 1.5 0 .6-.1 1.1-.3 1.5-.2.5-.4.8-.7 1.2-.3.3-.7.6-1.1.7-.4.2-.9.3-1.5.3-.5 0-1-.1-1.5-.3s-.8-.4-1.1-.7c-.3-.3-.6-.7-.7-1.2-.2-.5-.3-1-.3-1.5 0-.6.1-1.1.3-1.5zm1.7 2.3c.1.3.1.5.3.7.1.2.3.4.5.5.2.1.5.2.8.2s.6-.1.8-.2c.2-.1.4-.3.5-.5.1-.2.2-.5.3-.7.1-.3.1-.5.1-.8s0-.6-.1-.8c-.1-.3-.1-.5-.3-.7-.1-.2-.3-.4-.5-.5-.2-.1-.5-.2-.8-.2s-.6.1-.8.2c-.2.1-.4.3-.5.5-.1.2-.2.4-.3.7-.1.3-.1.5-.1.8s0 .5.1.8zM114.1 15.2v.9c.3-.4.6-.6.9-.8s.8-.3 1.2-.3c.4 0 .8.1 1.2.3.4.2.6.5.8.9.2-.3.5-.6.8-.8s.8-.4 1.3-.4c.4 0 .7 0 1 .1s.6.2.8.4.4.5.5.8c.1.3.2.7.2 1.2v4.7h-1.9v-4-.7c0-.2-.1-.4-.1-.5-.1-.2-.2-.3-.4-.4-.2-.1-.4-.1-.6-.1s-.5.1-.7.2c-.2.1-.3.2-.4.4-.1.2-.2.4-.2.6v4.5h-1.9v-3.9-.6c0-.2 0-.4-.1-.6-.1-.2-.2-.3-.3-.4s-.4-.2-.7-.2c-.1 0-.2 0-.4.1-.1 0-.3.1-.4.2-.1.1-.3.3-.4.5-.1.2-.1.5-.1.8v4.1h-1.9v-7h1.8z"/><g><path class="st0" d="M10.7 30.5v-1.3h1.1v-.5c0-.6.2-1.1.6-1.5.4-.4 1-.6 1.8-.6h1V28h-.7c-.3 0-.4.1-.6.2-.1.1-.2.3-.2.6v.4H15v1.3h-1.3v5.7h-1.9v-5.7h-1.1zM16 31.2c.2-.5.4-.8.7-1.2.3-.3.7-.6 1.1-.7s.9-.3 1.5-.3c.5 0 1 .1 1.5.3.4.2.8.4 1.1.7.3.3.6.7.7 1.2.2.5.3 1 .3 1.5s-.1 1.1-.3 1.5c-.2.5-.4.8-.7 1.2-.3.3-.7.6-1.1.7-.4.2-.9.3-1.5.3-.5 0-1-.1-1.5-.3s-.8-.4-1.1-.7c-.3-.3-.6-.7-.7-1.2-.2-.5-.3-1-.3-1.5s.1-1.1.3-1.5zm1.7 2.3c.1.3.1.5.3.7.1.2.3.4.5.5s.5.2.8.2.6-.1.8-.2c.2-.1.4-.3.5-.5.1-.2.2-.5.3-.7.1-.3.1-.5.1-.8s0-.6-.1-.8c-.1-.3-.1-.5-.3-.7-.1-.2-.3-.4-.5-.5-.2-.1-.5-.2-.8-.2s-.6.1-.8.2c-.2.1-.4.3-.5.5-.1.2-.2.4-.3.7s-.1.5-.1.8.1.5.1.8zM26 29.2v1.3c.1-.2.2-.4.4-.6l.5-.5.6-.3c.2-.1.5-.1.7-.1.1 0 .3 0 .4.1v1.8h-.7c-.4 0-.6.1-.9.2-.2.1-.4.3-.6.5-.1.2-.3.4-.3.7-.1.3-.1.6-.1.9v3.1h-1.9v-7H26zM37.6 26.5c.6 0 1.2.1 1.7.3s1 .5 1.4.9c.4.4.7.9.9 1.5.2.6.3 1.3.3 2.1 0 .7-.1 1.4-.3 1.9s-.5 1.1-.8 1.5c-.4.4-.8.8-1.4 1-.5.2-1.2.4-1.9.4h-4.2v-9.7h4.3zm-.1 7.9c.3 0 .6 0 .9-.1.3-.1.5-.3.8-.5.2-.2.4-.5.5-.9.1-.4.2-.8.2-1.4 0-.5 0-.9-.1-1.3s-.2-.7-.5-1c-.2-.3-.5-.5-.9-.6s-.8-.2-1.3-.2h-1.5v6.1h1.9zM45.3 34.5c.3.3.7.4 1.2.4.4 0 .7-.1 1-.3.3-.2.5-.4.5-.6h1.7c-.3.8-.7 1.4-1.2 1.8s-1.2.5-2 .5c-.5 0-1-.1-1.5-.3-.4-.2-.8-.4-1.1-.8s-.5-.7-.7-1.2c-.2-.5-.2-.9-.2-1.5 0-.5.1-1 .3-1.5.2-.5.4-.8.7-1.2.3-.3.7-.6 1.1-.8s.9-.3 1.5-.3 1.1.1 1.6.3c.4.2.8.5 1.1.9.3.4.5.8.6 1.3.1.5.2 1 .1 1.6h-5c-.1 1 0 1.4.3 1.7zm2.2-3.7c-.2-.3-.6-.4-1-.4-.3 0-.6.1-.8.2s-.4.2-.5.4c-.1.2-.2.3-.3.5 0 .2-.1.3-.1.5H48c-.1-.6-.3-.9-.5-1.2zM52.8 29.2v1c.2-.4.6-.7.9-.9.4-.2.8-.3 1.2-.3.5 0 .9.1 1.3.2.3.1.6.3.8.6.2.2.3.5.4.9.1.4.1.8.1 1.2v4.3h-1.9v-3.9c0-.6-.1-1-.3-1.3-.2-.3-.5-.4-1-.4s-.9.2-1.1.5c-.2.3-.4.8-.4 1.5v3.7H51v-7h1.8zM62.9 29.2v1.3h-1.4V34c0 .3.1.5.2.6.1.1.3.2.6.2h.6v1.5c-.2 0-.3 0-.5.1s-.4 0-.6 0c-.3 0-.6 0-.8-.1-.3 0-.5-.1-.7-.2-.2-.1-.4-.3-.5-.5-.1-.2-.2-.5-.2-.9v-4.1h-1.2v-1.3h1.2v-2.1h1.9v2.1h1.4zM63.8 28.1v-1.6h1.9v1.6h-1.9zm2 1.1v7h-1.9v-7h1.9zM68.9 34.4c.1.1.2.3.3.4s.3.2.5.2.4.1.5.1h.4c.1 0 .3-.1.4-.1l.3-.3c.1-.1.1-.3.1-.4 0-.3-.2-.5-.6-.6-.4-.1-.9-.3-1.6-.4-.2-.3-.4-.3-.7-.4-.3-.1-.5-.2-.7-.3-.2-.1-.4-.3-.5-.5-.1-.2-.2-.5-.2-.8 0-.5.1-.8.3-1.1.2-.3.4-.5.7-.7.3-.2.6-.3 1-.4s.7-.1 1.1-.1.7 0 1.1.1.7.2 1 .4.5.4.7.7c.2.3.3.6.3 1.1h-1.8c0-.4-.2-.6-.4-.8-.3-.1-.5-.2-.9-.2h-.4c-.1 0-.2 0-.3.1s-.2.1-.3.2-.2.2-.2.3c0 .2.1.3.2.4.1.1.3.2.5.3.2.1.4.1.7.2.3.1.5.1.8.2.3.1.6.1.8.2s.5.2.7.4c.2.1.4.3.5.6.1.2.2.5.2.8 0 .5-.1.8-.3 1.2-.2.3-.4.6-.7.8s-.6.3-1 .4c-.4.1-.8.1-1.2.1-.4 0-.8 0-1.2-.1-.4-.1-.7-.2-1-.4-.3-.2-.5-.4-.7-.8s-.3-.7-.3-1.2h1.8c0 .1 0 .3.1.4zM78.4 29.2v1.3H77V34c0 .3.1.5.2.6.1.1.3.2.6.2h.6v1.5c-.2 0-.3 0-.5.1s-.4 0-.6 0c-.3 0-.6 0-.8-.1-.3 0-.5-.1-.7-.2-.2-.1-.4-.3-.5-.5-.1-.2-.2-.5-.2-.9v-4.1h-1.2v-1.3H75v-2.1h2v2.1h1.4zM80.9 34.4c.1.1.2.3.3.4s.3.2.5.2.4.1.5.1h.4c.1 0 .3-.1.4-.1l.3-.3c.1-.1.1-.3.1-.4 0-.3-.2-.5-.6-.6-.4-.1-.9-.3-1.6-.4-.2-.3-.4-.3-.7-.4-.3-.1-.5-.2-.7-.3-.2-.1-.4-.3-.5-.5-.1-.2-.2-.5-.2-.8 0-.5.1-.8.3-1.1.2-.3.4-.5.7-.7.3-.2.6-.3 1-.4s.7-.1 1.1-.1.7 0 1.1.1.7.2 1 .4.5.4.7.7c.2.3.3.6.3 1.1h-1.8c0-.4-.2-.6-.4-.8-.3-.1-.5-.2-.9-.2h-.4c-.1 0-.2 0-.3.1s-.2.1-.3.2-.2.2-.2.3c0 .2.1.3.2.4.1.1.3.2.5.3.2.1.4.1.7.2.3.1.5.1.8.2.3.1.6.1.8.2s.5.2.7.4c.2.1.4.3.5.6.1.2.2.5.2.8 0 .5-.1.8-.3 1.2-.2.3-.4.6-.7.8s-.6.3-1 .4c-.4.1-.8.1-1.2.1-.4 0-.8 0-1.2-.1-.4-.1-.7-.2-1-.4-.3-.2-.5-.4-.7-.8s-.3-.7-.3-1.2h1.8c0 .1 0 .3.1.4z"/></g></svg>