<svg id="Layer_1" xmlns="http://www.w3.org/2000/svg" viewBox="0 0 320 50"><style>.st0{fill:#231f20}</style><path class="st0" d="M104 14.3v7.4h4.4v1.7H102v-9h2zM109.2 15.8v-1.5h1.8v1.5h-1.8zm1.8 1v6.5h-1.8v-6.5h1.8zM111.6 18v-1.2h1.1v-.5c0-.6.2-1.1.5-1.4s.9-.6 1.6-.6h1v1.3h-.7c-.2 0-.4.1-.5.2-.1.1-.2.3-.2.6v.4h1.2V18h-1.2v5.3h-1.8V18h-1zM118.3 21.8c.3.3.7.4 1.2.4.4 0 .7-.1.9-.3.3-.2.4-.4.5-.6h1.6c-.3.8-.6 1.3-1.2 1.7-.5.3-1.2.5-1.9.5-.5 0-1-.1-1.4-.2-.4-.2-.8-.4-1-.7s-.5-.7-.7-1.1c-.2-.4-.2-.9-.2-1.4 0-.5.1-.9.2-1.4s.4-.8.7-1.1c.3-.3.6-.5 1.1-.7s.9-.3 1.4-.3c.6 0 1 .1 1.5.3.4.2.8.5 1 .9.3.4.5.8.6 1.2s.2.9.1 1.5H118c-.1.6 0 1 .3 1.3zm2-3.5c-.2-.2-.5-.4-1-.4-.3 0-.5 0-.7.1-.2.1-.3.2-.5.4-.1.1-.2.3-.2.5s-.1.3-.1.4h2.9c0-.4-.1-.7-.4-1zM125.6 21.4v1.9c0 .3-.1.5-.2.8-.1.2-.2.4-.4.6-.2.2-.4.3-.6.4-.2.1-.5.2-.8.2v-.9c.1 0 .2-.1.4-.2l.3-.3c.1-.1.1-.2.2-.4 0-.1.1-.3.1-.4h-.9v-1.9h1.9zM134.4 14.3c.6 0 1.1.1 1.6.3.5.2.9.5 1.3.8.4.4.7.8.9 1.4.2.6.3 1.2.3 2 0 .7-.1 1.3-.3 1.8-.2.6-.4 1-.8 1.4s-.8.7-1.3 1c-.5.2-1.1.3-1.8.3h-3.9v-9h4zm-.1 7.4c.3 0 .6 0 .8-.1s.5-.2.7-.5c.2-.2.4-.5.5-.8.1-.3.2-.8.2-1.3s0-.9-.1-1.2c-.1-.4-.2-.7-.4-.9s-.5-.5-.8-.6c-.3-.1-.7-.2-1.2-.2h-1.4v5.7h1.7zM139.6 15.8v-1.5h1.8v1.5h-1.8zm1.8 1v6.5h-1.8v-6.5h1.8zM144.2 21.7c.1.1.2.3.3.3s.3.2.4.2c.2 0 .3.1.5.1h.4c.1 0 .3-.1.4-.1.1-.1.2-.1.3-.3s.1-.2.1-.4c0-.3-.2-.5-.5-.6-.4-.1-.9-.3-1.5-.4-.3-.1-.5-.1-.8-.2s-.5-.2-.7-.3c-.2-.1-.3-.3-.5-.5-.1-.2-.2-.4-.2-.7 0-.4.1-.8.2-1 .2-.3.4-.5.7-.6.3-.2.6-.3.9-.3.3-.1.7-.1 1-.1.4 0 .7 0 1 .1l.9.3c.3.2.5.4.7.6.2.3.3.6.3 1h-1.7c0-.3-.2-.6-.4-.7s-.5-.2-.8-.2h-.3c-.1 0-.2 0-.3.1-.1 0-.2.1-.2.2-.1.1-.1.2-.1.3 0 .2.1.3.2.4.1.1.3.2.5.2.2.1.4.1.7.2.2.1.5.1.7.2.3.1.5.1.8.2.2.1.5.2.7.3.2.1.3.3.5.5.1.2.2.5.2.8 0 .4-.1.8-.3 1.1-.2.3-.4.5-.7.7s-.6.3-1 .4c-.4.1-.7.1-1.1.1-.4 0-.8 0-1.1-.1-.4-.1-.7-.2-1-.4s-.5-.4-.7-.7c-.2-.3-.3-.7-.3-1.1h1.7c0 .1 0 .3.1.4zM149.3 18.8c0-.4.1-.8.3-1 .2-.3.4-.5.7-.7.3-.2.6-.3 1-.4.4-.1.7-.1 1.1-.1.3 0 .7 0 1 .1s.6.1.9.3c.3.1.5.3.7.6.2.2.3.6.3 1V22c0 .3 0 .6.1.8 0 .3.1.5.2.6h-1.8c0-.1-.1-.2-.1-.3v-.3c-.3.3-.6.5-1 .6-.4.1-.8.2-1.2.2-.3 0-.6 0-.9-.1-.3-.1-.5-.2-.7-.4s-.4-.4-.5-.6c-.1-.2-.2-.5-.2-.9s.1-.7.2-.9c.1-.2.3-.4.5-.6.2-.1.4-.3.7-.3.3-.1.5-.1.8-.2.3 0 .5-.1.8-.1s.5-.1.7-.1c.2-.1.4-.1.5-.2.1-.1.2-.2.2-.4s0-.3-.1-.5c-.1-.1-.1-.2-.3-.3-.1-.1-.2-.1-.4-.1h-.4c-.4 0-.6.1-.8.2-.2.2-.3.4-.4.8h-1.9zm4.1 1.3c-.1.1-.2.1-.3.2-.1 0-.2.1-.4.1-.1 0-.3 0-.4.1-.1 0-.3 0-.4.1-.1 0-.3.1-.4.1-.1 0-.2.1-.3.2-.1.1-.2.2-.2.3-.1.1-.1.2-.1.4s0 .3.1.4c.1.1.1.2.2.3.1.1.2.1.4.1h.4c.4 0 .6-.1.8-.2.2-.1.3-.3.4-.4.1-.2.1-.3.2-.5s0-.3 0-.4v-.8zM158.3 14.3v3.3c.2-.3.5-.6.9-.7.4-.2.8-.2 1.2-.2.3 0 .7.1 1 .2s.6.3.9.6c.3.3.5.6.6 1.1s.2.9.2 1.5-.1 1.1-.2 1.5c-.2.4-.4.8-.6 1.1-.3.3-.5.5-.9.6-.3.1-.6.2-1 .2-.5 0-.9-.1-1.3-.2-.4-.2-.7-.4-.9-.8v.8h-1.7v-9h1.8zm2.9 5c-.1-.3-.2-.5-.3-.7-.1-.2-.3-.3-.5-.5s-.4-.1-.6-.1c-.3 0-.5.1-.7.2-.2.1-.4.3-.5.5s-.2.4-.3.7c-.1.3-.1.5-.1.8 0 .3 0 .5.1.8.1.3.2.5.3.7s.3.3.5.5c.2.1.4.2.7.2.3 0 .5-.1.7-.2.2-.1.3-.3.5-.5.1-.2.2-.4.3-.7s.1-.5.1-.8c-.1-.4-.1-.7-.2-.9zM164.2 15.8v-1.5h1.8v1.5h-1.8zm1.8 1v6.5h-1.8v-6.5h1.8zM169.1 14.3v9h-1.8v-9h1.8zM170.4 15.8v-1.5h1.8v1.5h-1.8zm1.8 1v6.5h-1.8v-6.5h1.8zM177.1 16.8V18h-1.3v3.2c0 .3.1.5.2.6.1.1.3.2.6.2h.6v1.4c-.2 0-.3 0-.5.1h-.5c-.3 0-.5 0-.8-.1-.2 0-.5-.1-.7-.2s-.3-.3-.4-.5-.2-.5-.2-.8V18H173v-1.2h1.1v-2h1.8v2h1.2zM180.3 25.3c-.3.2-.8.3-1.4.3h-1v-1.5c.2 0 .3 0 .5.1h.5c.2 0 .4-.1.5-.3.1-.2.2-.3.2-.5 0-.1 0-.3-.1-.4l-2.3-6.1h1.9l1.5 4.5 1.4-4.5h1.9l-2.7 7.3c-.3.5-.6.8-.9 1.1zM187.6 18.8c0-.4.1-.8.3-1 .2-.3.4-.5.7-.7.3-.2.6-.3 1-.4.4-.1.7-.1 1.1-.1.3 0 .7 0 1 .1s.6.1.9.3.5.3.7.6.3.6.3 1v4.2c0 .3.1.5.2.6H192c0-.1-.1-.2-.1-.3v-.3c-.3.3-.6.5-1 .6-.4.1-.8.2-1.2.2-.3 0-.6 0-.9-.1-.3-.1-.5-.2-.7-.4s-.4-.4-.5-.6c-.1-.2-.2-.5-.2-.9s.1-.7.2-.9c.1-.2.3-.4.5-.6.2-.1.4-.3.7-.3.3-.1.5-.1.8-.2.3 0 .5-.1.8-.1s.5-.1.7-.1c.2-.1.4-.1.5-.2.1-.1.2-.2.2-.4s0-.3-.1-.5-.1-.2-.3-.3c-.1-.1-.2-.1-.4-.1h-.4c-.4 0-.6.1-.8.2-.2.2-.3.4-.4.8h-1.8zm4.1 1.3c-.1.1-.2.1-.3.2-.1 0-.2.1-.4.1-.1 0-.3 0-.4.1-.1 0-.3 0-.4.1-.1 0-.3.1-.4.1-.1 0-.2.1-.3.2-.1.1-.2.2-.2.3-.1.1-.1.2-.1.4s0 .3.1.4c.1.1.1.2.2.3.1.1.2.1.4.1h.4c.4 0 .6-.1.8-.2.2-.1.3-.3.4-.4.1-.2.1-.3.2-.5V20.1zM196.5 16.8v.9c.2-.4.5-.7.9-.8.4-.2.7-.3 1.1-.3.5 0 .9.1 1.2.2.3.1.5.3.7.5.2.2.3.5.4.8.1.3.1.7.1 1.1v4h-1.8v-3.7c0-.5-.1-.9-.3-1.2-.2-.3-.5-.4-.9-.4-.5 0-.8.1-1.1.4-.2.3-.3.8-.3 1.4v3.4h-1.8v-6.5h1.8zM206.8 22.5c-.2.4-.5.6-.8.8-.3.2-.7.2-1.2.2s-.9-.1-1.3-.3c-.4-.2-.7-.4-.9-.8-.2-.3-.4-.7-.5-1.1s-.2-.9-.2-1.3.1-.9.2-1.3.3-.8.5-1.1.5-.6.9-.8c.4-.2.8-.3 1.3-.3.4 0 .8.1 1.1.2.3.2.6.4.8.7v-3.3h1.8v9h-1.7v-.6zm0-3.2c-.1-.2-.1-.5-.3-.7l-.5-.5c-.2-.1-.4-.2-.7-.2s-.5.1-.7.2c-.2.1-.4.3-.5.5-.1.2-.2.4-.3.7s-.1.5-.1.8c0 .3 0 .5.1.8.1.3.2.5.3.7.1.2.3.4.5.5s.4.2.7.2c.3 0 .5-.1.7-.2.2-.1.4-.3.5-.5.1-.2.2-.4.3-.7 0-.3.1-.5.1-.8s-.1-.6-.1-.8z"/><g><path class="st0" d="M116.8 34.2c.1.2.3.4.4.5l.6.3c.2.1.5.1.8.1h.6c.2 0 .4-.1.6-.2.2-.1.3-.2.4-.3.1-.1.2-.3.2-.6 0-.2-.1-.4-.2-.6-.2-.2-.4-.3-.6-.4-.3-.1-.5-.2-.9-.3-.3-.1-.6-.2-1-.3-.3-.1-.7-.2-1-.3-.3-.1-.6-.3-.9-.5-.3-.2-.5-.4-.6-.7s-.2-.6-.2-1.1c0-.5.1-.9.3-1.2.2-.3.5-.6.8-.9s.7-.4 1.1-.5.8-.2 1.2-.2c.5 0 .9.1 1.4.2s.8.3 1.2.5c.3.2.6.5.8.9.2.4.3.8.3 1.3h-1.9c0-.3-.1-.5-.2-.7-.1-.2-.2-.3-.4-.4-.2-.1-.3-.2-.5-.2s-.4-.1-.7-.1c-.2 0-.3 0-.5.1-.2 0-.3.1-.4.2l-.3.3c-.1.1-.1.3-.1.5s0 .3.1.4c.1.1.2.2.4.3.2.1.5.2.8.3.3.1.8.2 1.4.4.2 0 .4.1.7.2.3.1.6.2.9.4.3.2.5.5.8.8s.3.7.3 1.2c0 .4-.1.8-.2 1.2-.2.4-.4.7-.7.9-.3.3-.7.5-1.2.6-.5.1-1 .2-1.6.2-.5 0-1-.1-1.4-.2s-.9-.3-1.2-.6c-.4-.3-.6-.6-.9-1s-.3-.9-.3-1.4h1.9c-.3.4-.2.7-.1.9zM127.6 36.4v-.9c-.2.4-.5.7-.9.8-.4.2-.7.3-1.1.3-.5 0-.9-.1-1.2-.2-.3-.1-.5-.3-.7-.5-.2-.2-.3-.5-.4-.8-.1-.3-.1-.7-.1-1.1v-4h1.8v3.7c0 .5.1.9.3 1.2.2.3.5.4.9.4.5 0 .8-.1 1.1-.4.2-.3.3-.8.3-1.4v-3.4h1.8v6.5h-1.8zM132.3 29.9v.8c.2-.4.5-.6.8-.8.3-.2.7-.2 1.1-.2.5 0 1 .1 1.3.3s.7.5.9.8c.2.3.4.7.5 1.1.1.4.2.9.2 1.3s-.1.9-.2 1.3-.3.8-.5 1.1c-.2.3-.5.6-.9.7-.4.2-.8.3-1.3.3-.4 0-.8-.1-1.1-.2s-.6-.4-.8-.7v3.1h-1.8V30h1.8zm2.3 5.2c.2-.1.4-.3.5-.5.1-.2.2-.4.3-.7.1-.3.1-.5.1-.8 0-.3 0-.5-.1-.8s-.1-.5-.3-.7c-.1-.2-.3-.4-.5-.5-.2-.1-.4-.2-.7-.2-.3 0-.5.1-.7.2-.2.1-.4.3-.5.5s-.2.4-.3.7c-.1.3-.1.5-.1.8 0 .3 0 .5.1.8.1.3.1.5.3.7l.5.5c.2.1.4.2.7.2.2-.1.5-.1.7-.2zM139.9 29.9v.8c.2-.4.5-.6.8-.8.3-.2.7-.2 1.1-.2.5 0 1 .1 1.3.3s.7.5.9.8c.2.3.4.7.5 1.1.1.4.2.9.2 1.3s-.1.9-.2 1.3-.3.8-.5 1.1c-.2.3-.5.6-.9.7-.4.2-.8.3-1.3.3-.4 0-.8-.1-1.1-.2s-.6-.4-.8-.7v3.1h-1.8V30h1.8zm2.3 5.2c.2-.1.4-.3.5-.5.1-.2.2-.4.3-.7.1-.3.1-.5.1-.8 0-.3 0-.5-.1-.8s-.1-.5-.3-.7c-.1-.2-.3-.4-.5-.5-.2-.1-.4-.2-.7-.2-.3 0-.5.1-.7.2-.2.1-.4.3-.5.5s-.2.4-.3.7c-.1.3-.1.5-.1.8 0 .3 0 .5.1.8.1.3.1.5.3.7l.5.5c.2.1.4.2.7.2.2-.1.5-.1.7-.2zM147.6 27.4v9h-1.8v-9h1.8zM150.8 34.8c.3.3.7.4 1.2.4.4 0 .7-.1.9-.3.3-.2.4-.4.5-.6h1.6c-.3.8-.6 1.3-1.2 1.7s-1.2.5-1.9.5c-.5 0-1-.1-1.4-.2-.4-.2-.8-.4-1-.7-.3-.3-.5-.7-.7-1.1-.2-.4-.2-.9-.2-1.4 0-.5.1-.9.2-1.4.2-.4.4-.8.7-1.1s.6-.5 1.1-.7.9-.3 1.4-.3c.6 0 1 .1 1.5.3.4.2.8.5 1 .9.3.4.5.8.6 1.2.1.5.2.9.1 1.5h-4.7c-.1.7 0 1.1.3 1.3zm2-3.4c-.2-.2-.5-.4-1-.4-.3 0-.5 0-.7.1-.2.1-.3.2-.5.4-.1.1-.2.3-.2.5s-.1.3-.1.4h2.9c0-.4-.1-.8-.4-1zM157.8 29.9v.9c.2-.3.5-.6.9-.8s.7-.3 1.1-.3c.4 0 .8.1 1.1.2.3.2.6.4.8.8.2-.3.5-.5.8-.8.3-.2.7-.3 1.2-.3.3 0 .7 0 1 .1.3.1.5.2.8.4.2.2.4.4.5.7s.2.7.2 1.1v4.4h-1.8v-3.7-.6c0-.2-.1-.4-.1-.5-.1-.1-.2-.3-.3-.3s-.3-.1-.6-.1-.5 0-.6.1c-.2.1-.3.2-.4.4-.1.2-.1.3-.2.5v4.2h-1.8v-3.7-.6c0-.2 0-.4-.1-.5s-.2-.3-.3-.4c-.1-.1-.4-.1-.7-.1-.1 0-.2 0-.3.1-.1 0-.3.1-.4.2-.1.1-.2.3-.3.5s-.1.5-.1.8v3.8h-1.8v-6.5h1.4zM169.3 34.8c.3.3.7.4 1.2.4.4 0 .7-.1.9-.3.3-.2.4-.4.5-.6h1.6c-.3.8-.6 1.3-1.2 1.7s-1.2.5-1.9.5c-.5 0-1-.1-1.4-.2s-.8-.4-1-.7c-.3-.3-.5-.7-.7-1.1-.2-.4-.2-.9-.2-1.4 0-.5.1-.9.2-1.4.2-.4.4-.8.7-1.1s.6-.5 1.1-.7c.4-.2.9-.3 1.4-.3.6 0 1 .1 1.5.3s.8.5 1 .9.5.8.6 1.2c.1.5.2.9.1 1.5H169c-.1.7 0 1.1.3 1.3zm2-3.4c-.2-.2-.5-.4-1-.4-.3 0-.5 0-.7.1s-.3.2-.5.4c-.1.1-.2.3-.2.5s-.1.3-.1.4h2.9c0-.4-.2-.8-.4-1zM176.2 29.9v.9c.2-.4.5-.7.9-.8.4-.2.7-.3 1.1-.3.5 0 .9.1 1.2.2s.5.3.7.5c.2.2.3.5.4.8.1.3.1.7.1 1.1v4h-1.8v-3.7c0-.5-.1-.9-.3-1.2-.2-.3-.5-.4-.9-.4-.5 0-.8.1-1.1.4-.2.3-.3.8-.3 1.4v3.4h-1.8v-6.5h1.8zM185.5 29.9v1.2h-1.3v3.2c0 .3.1.5.2.6.1.1.3.2.6.2h.6v1.4c-.2 0-.3 0-.5.1h-.5c-.3 0-.5 0-.8-.1-.2 0-.5-.1-.7-.2s-.3-.3-.4-.5-.2-.5-.2-.8v-3.9h-1.1v-1.2h1.1v-2h1.8v2h1.2zM186.1 31.9c0-.4.1-.8.3-1 .2-.3.4-.5.7-.7.3-.2.6-.3 1-.4.4-.1.7-.1 1.1-.1.3 0 .7 0 1 .1.3 0 .6.1.9.3s.5.3.7.6c.2.2.3.6.3 1v4.1c0 .3.1.5.2.6h-1.8c0-.1-.1-.2-.1-.3v-.3c-.3.3-.6.5-1 .6s-.8.2-1.2.2c-.3 0-.6 0-.9-.1-.3-.1-.5-.2-.7-.4-.2-.2-.4-.4-.5-.6-.1-.2-.2-.5-.2-.9s.1-.7.2-.9c.1-.2.3-.4.5-.6.2-.1.4-.2.7-.3.3-.1.5-.1.8-.2.3 0 .5-.1.8-.1s.5-.1.7-.1c.2-.1.4-.1.5-.2.1-.1.2-.2.2-.4s0-.3-.1-.5c-.1-.1-.1-.2-.3-.3-.1-.1-.2-.1-.4-.1h-.4c-.4 0-.6.1-.8.2-.2.2-.3.4-.4.8h-1.8zm4.2 1.3c-.1.1-.2.1-.3.2-.1 0-.2.1-.4.1-.1 0-.3 0-.4.1-.1 0-.3 0-.4.1-.1 0-.3.1-.4.1s-.2.1-.3.2c-.1.1-.2.2-.2.3-.1.1-.1.2-.1.4s0 .3.1.4c.1.1.1.2.2.3.1.1.2.1.4.1h.4c.4 0 .6-.1.8-.2.2-.1.3-.3.4-.4s.1-.3.2-.5V33.2zM195.2 27.4v9h-1.8v-9h1.8z"/></g></svg>