<svg id="Layer_1" xmlns="http://www.w3.org/2000/svg" xmlns:xlink="http://www.w3.org/1999/xlink" viewBox="0 0 320 50"><style>.st0{clip-path:url(#SVGID_00000039822391982353730180000004499706426595745965_);fill:#349946}.st1{fill:#fff}</style><defs><path id="SVGID_1_" d="M224.4 10.2h76.5v16.1h-76.5z"/></defs><clipPath id="SVGID_00000034062191974971639450000017830468314120766608_"><use xlink:href="#SVGID_1_" overflow="visible"/></clipPath><path d="M300.9 18.2c0 4.4-4.2 8.1-9.3 8.1h-57.9c-5.1 0-9.3-3.6-9.3-8.1s4.2-8.1 9.3-8.1h57.9c5.1.1 9.3 3.7 9.3 8.1" clip-path="url(#SVGID_00000034062191974971639450000017830468314120766608_)" fill="#349946"/><g><path class="st1" d="M242.2 21l-1.7-5.1h1.2l1.1 3.6 1.2-3.6h1.2l-1.7 5.1h-1.3zM246.8 15.8V21h-1.1v-5.1h1.1zM251.6 15.8v1h-2.7v1.1h2.5v.9h-2.5V20h2.8v1h-3.9v-5.1h3.8zM256.2 21l-.9-3.5-.9 3.5h-1.1l-1.4-5.1h1.1l.8 3.5.9-3.5h1.1l.9 3.5.8-3.5h1.1l-1.4 5.1h-1zM263.5 15.8c.3 0 .6 0 .8.1s.4.2.6.4c.1.2.2.3.3.5.1.2.1.4.1.6 0 .2 0 .4-.1.6-.1.2-.2.4-.3.5-.1.2-.3.3-.6.4s-.5.1-.8.1h-1.2v2h-1.1v-5.1h2.3zm-.3 2.4h.4c.1 0 .2-.1.3-.1.1-.1.2-.1.2-.2.1-.1.1-.2.1-.4s0-.3-.1-.4c-.1-.1-.1-.2-.2-.2-.1-.1-.2-.1-.3-.1h-1.3v1.5h.9zM267.2 15.8V20h2.5v1H266v-5.1h1.2zM272.9 15.8l1.9 5.1h-1.2l-.4-1.1h-1.9l-.4 1.1h-1.1l1.9-5.1h1.2zm0 3.2l-.6-1.9-.7 1.9h1.3zM276.3 15.8l2.1 3.4v-3.4h1.1V21h-1.1l-2.1-3.4V21h-1.1v-5.1h1.1zM281.4 19.7c.1.1.1.2.2.3.1.1.2.1.4.2.1 0 .3.1.4.1h.3c.1 0 .2 0 .3-.1.1 0 .2-.1.3-.2.1-.1.1-.2.1-.3 0-.1 0-.3-.1-.3s-.2-.2-.3-.2c-.1-.1-.3-.1-.5-.2-.2 0-.4-.1-.6-.1-.2 0-.4-.1-.6-.2-.2-.1-.3-.2-.5-.3-.1-.1-.3-.2-.3-.4-.1-.2-.1-.4-.1-.6 0-.3.1-.5.2-.7.1-.2.3-.4.4-.5l.6-.3c.2-.1.5-.1.7-.1.3 0 .5 0 .8.1s.5.2.7.3c.2.1.3.3.5.5.1.2.2.5.2.8h-1.1c0-.2 0-.3-.1-.4-.1-.1-.1-.2-.2-.2-.1-.1-.2-.1-.3-.1h-.7c-.1 0-.2.1-.2.1-.1 0-.1.1-.2.2 0 .1-.1.2-.1.3 0 .1 0 .2.1.2 0 .1.1.1.2.2s.3.1.5.2.5.1.8.2c.1 0 .2.1.4.1.2.1.3.1.5.2s.3.3.4.4c.1.2.2.4.2.7 0 .2 0 .5-.1.7-.1.2-.2.4-.4.5-.2.1-.4.3-.7.3s-.6.1-.9.1c-.3 0-.6 0-.8-.1-.3-.1-.5-.2-.7-.3-.2-.1-.4-.3-.5-.6s-.2-.5-.2-.8h1.1c-.2 0-.1.2-.1.3z"/></g></svg>