<svg id="Layer_1" xmlns="http://www.w3.org/2000/svg" viewBox="0 0 320 50"><style>.st0{fill:#349946}.st1{fill:#231f20}.st2{fill:none}</style><path class="st0" d="M13.4 31.7h-1l-.3-.9h-1.9l-.3.9h-1l1.7-4.5h.7c.2 0 .4.1.5.2.1.2.8 2.2.8 2.2h-.9l-.5-1.5-.7 1.9h1.9c.3 0 .4.1.5.3l.5 1.4zM21.8 31.7h-1l-.3-.9h-1.9l-.3.9h-1l1.7-4.5h.7c.2 0 .4.1.5.2.1.2.8 2.2.8 2.2h-.9l-.5-1.5-.7 1.9h1.9c.3 0 .4.1.5.3l.5 1.4zM13.7 27.2h1.8c1.4 0 2 .7 2 2.2 0 .8-.3 1.5-.7 1.8-.4.3-.9.4-1.6.4h-1.5v-4.4zm1.6 3.7c.9 0 1.2-.4 1.2-1.4 0-1-.3-1.5-1.1-1.5h-.9v2.9h.8z"/><path class="st1" d="M29.4 31.7h-.7l-.3-3.2-1.1 3.2h-.6l-1.1-3.2-.3 3.2h-.7l.4-4.2h.8l1.2 3.3 1.1-3.3h.9l.4 4.2zM32.9 30.1v.2h-2.1c0 .2.1.4.2.6.2.2.4.3.7.3.3 0 .5-.1.8-.2l.2.5c-.3.2-.7.3-1.1.3-.5 0-.8-.2-1.1-.5-.3-.3-.4-.7-.4-1.1 0-.5.1-.9.4-1.2s.6-.5 1.1-.5c.4 0 .7.1 1 .4.2.3.3.7.3 1.2zm-.7-.3c0-.2 0-.4-.1-.5-.1-.2-.3-.3-.5-.3s-.4.1-.5.2-.2.3-.3.6h1.4zM37.9 31.7h-.7v-1.8c0-.4 0-.6-.1-.7s-.2-.2-.4-.2-.4.1-.7.2v2.3h-.7V30c0-.4 0-.7-.1-.8-.1-.1-.2-.1-.3-.1-.2 0-.5.1-.7.2v2.4h-.7v-3.1h.6v.2c.3-.2.6-.3.9-.3.3 0 .6.1.8.3.4-.2.7-.3 1-.3.3 0 .6.1.8.3.1.1.2.3.3.6v2.3zM41.5 30.1c0 .5-.1.9-.4 1.2-.3.3-.7.5-1.2.5-.3 0-.7-.1-1.2-.2v-4.4h.7v1.6c.2-.2.5-.2.8-.2.4 0 .7.1 1 .4s.3.6.3 1.1zm-.7 0c0-.3-.1-.6-.2-.7-.1-.2-.3-.3-.6-.3-.2 0-.4.1-.7.2v1.8c.2.1.4.1.5.1.3 0 .5-.1.7-.3s.3-.5.3-.8zM44.9 30.1v.2h-2.1c0 .2.1.4.2.6.2.2.4.3.7.3.3 0 .5-.1.8-.2l.2.5c-.3.2-.7.3-1.1.3-.5 0-.8-.2-1.1-.5-.3-.3-.4-.7-.4-1.1 0-.5.1-.9.4-1.2s.6-.5 1.1-.5c.4 0 .7.1 1 .4.1.3.3.7.3 1.2zm-.7-.3c0-.2 0-.4-.1-.5-.1-.2-.3-.3-.6-.3-.2 0-.4.1-.5.2s-.2.3-.3.6h1.5zM47.5 28.6l-.2.5h-.2c-.4 0-.7.2-.9.5v2.1h-.7v-3.1h.6v.4c.1-.1.1-.2.3-.3.2-.2.5-.2.7-.2.2 0 .3 0 .4.1z"/><g><path class="st1" d="M50 30.8c0 .3-.1.5-.3.7-.2.2-.5.3-.8.3-.3 0-.5-.1-.8-.2-.2-.1-.3-.1-.3-.2l.2-.4c.3.2.6.2.8.2.2 0 .3 0 .4-.1.1-.1.1-.2.1-.3 0-.1-.1-.2-.2-.3-.1 0-.2-.1-.5-.2-.2-.1-.4-.2-.5-.3-.2-.2-.3-.4-.3-.6 0-.3.1-.5.3-.7.2-.2.5-.3.8-.3.4 0 .8.1 1 .3l-.2.4c-.2 0-.4-.1-.7-.1-.3 0-.5.1-.5.3 0 .1.1.2.2.3.1 0 .2.1.4.2.3.1.5.2.6.3.2.2.3.4.3.7zM53.1 31.7h-.7v-4.2h.7v4.2zM56.6 31.7h-.7V30c0-.4 0-.7-.1-.8-.1-.1-.2-.1-.4-.1s-.4.1-.7.2v2.4H54v-3.1h.6v.2c.3-.2.6-.3.9-.3.3 0 .6.1.8.3.1.1.2.3.3.5v2.4zM59.4 30.8c0 .3-.1.5-.3.7-.2.2-.5.3-.8.3-.3 0-.5-.1-.8-.2-.2-.1-.3-.1-.3-.2l.2-.5c.3.2.6.2.8.2.2 0 .3 0 .4-.1.1-.1.1-.2.1-.3 0-.1-.1-.2-.2-.3-.1 0-.2-.1-.5-.2-.2-.1-.4-.2-.5-.3-.2-.2-.3-.4-.3-.6 0-.3.1-.5.3-.7.2-.2.5-.3.8-.3.4 0 .8.1 1 .3l-.2.4c-.2-.1-.5-.2-.7-.2-.3 0-.5.1-.5.3 0 .1.1.2.2.3.1 0 .2.1.4.2.3.1.5.2.6.3.2.4.3.6.3.9zM62.7 31.7h-.6v-.2c-.3.2-.6.3-.9.3-.3 0-.6-.1-.8-.3-.1-.1-.2-.3-.3-.5v-2.3h.7v2.1c0 .2.1.3.2.4.1.1.2.1.4.1s.4-.1.7-.2v-2.4h.7v3zM65.5 28.6l-.2.5h-.2c-.4 0-.7.2-.9.5v2.1h-.7v-3.1h.6v.4c.1-.1.1-.2.3-.3.2-.2.5-.2.7-.2.2 0 .3 0 .4.1z"/></g><g><path class="st1" d="M68.2 31.7h-.6v-.2c-.3.2-.6.3-.9.3-.3 0-.5-.1-.7-.3-.2-.2-.3-.4-.3-.7 0-.7.6-1.1 1.7-1.1h.1v-.1c0-.2 0-.3-.1-.4 0-.1-.2-.2-.4-.2-.3 0-.6.1-.8.2l-.2-.5c.1-.1.2-.1.3-.2.2-.1.5-.2.8-.2.4 0 .7.1 1 .3.1.1.2.2.2.4v2.7zm-.6-.7v-.8h-.1c-.5 0-.8.1-1 .2-.1.1-.1.2-.1.3 0 .2.1.3.2.3s.2.1.4.1c.1.1.3 0 .6-.1zM71.6 31.7h-.7V30c0-.4 0-.7-.1-.8-.1-.1-.2-.1-.4-.1s-.4.1-.7.2v2.4H69v-3.1h.6v.2c.3-.2.6-.3.9-.3.3 0 .6.1.8.3.1.1.2.3.3.5v2.4zM74.9 31.4c0 .1-.2.1-.3.2-.3.1-.5.2-.8.2-.5 0-.8-.1-1.1-.4s-.4-.7-.4-1.1c0-.5.2-.9.5-1.2.3-.3.7-.5 1.2-.5.3 0 .5.1.7.2.2.1.3.1.3.2l-.3.4c-.2-.1-.4-.2-.7-.2-.3 0-.5.1-.7.3-.2.2-.2.4-.2.7 0 .3.1.6.2.8.2.2.4.3.7.3.2 0 .5-.1.8-.2l.1.3z"/></g><g><path class="st1" d="M78 30.1v.2h-2.1c0 .2.1.4.2.6.2.2.4.3.7.3.3 0 .5-.1.8-.2l.2.5c-.3.2-.7.3-1.1.3-.5 0-.8-.2-1.1-.5-.3-.3-.4-.7-.4-1.1 0-.5.1-.9.4-1.2s.6-.5 1.1-.5c.4 0 .7.1 1 .4.2.3.3.7.3 1.2zm-.6-.3c0-.2 0-.4-.1-.5-.1-.2-.3-.3-.5-.3s-.4.1-.5.2-.2.3-.3.6h1.4zM83.1 28.7c0 .4-.1.7-.4.9-.2.2-.4.3-.7.3-.2 0-.4.1-.8.1H81v1.6h-.7v-4.2h1.1c.3 0 .6 0 .8.1l.6.3c.2.2.3.5.3.9zm-.7 0c0-.2-.1-.4-.2-.5-.1-.1-.4-.2-.8-.2H81v1.4h.3c.5 0 .8-.1.9-.2s.2-.2.2-.5zM84.5 31.7h-.7v-4.6h.7v4.6zM87.7 31.7h-.6v-.2c-.3.2-.6.3-.9.3-.3 0-.5-.1-.7-.3-.2-.2-.3-.4-.3-.7 0-.7.6-1.1 1.7-1.1h.1v-.1c0-.2 0-.3-.1-.4-.1-.1-.3-.1-.5-.1-.3 0-.6.1-.8.2l-.2-.5c.1-.1.2-.1.3-.2.2-.1.5-.2.8-.2.4 0 .7.1 1 .3.1.1.2.2.2.4v2.6zm-.6-.7v-.8H87c-.5 0-.8.1-1 .2-.1.1-.1.2-.1.3 0 .2.1.3.2.3s.2.1.4.1c.1.1.3 0 .6-.1zM91.1 31.7h-.7V30c0-.4 0-.7-.1-.8-.1-.1-.2-.1-.4-.1s-.4.1-.7.2v2.4h-.7v-3.1h.6v.2c.3-.2.6-.3.9-.3.3 0 .6.1.8.3.1.1.2.3.3.5v2.4zM94 30.8c0 .3-.1.5-.3.7-.2.2-.5.3-.8.3-.3 0-.5-.1-.8-.2-.2-.1-.3-.1-.3-.2l.2-.5c.3.2.6.2.8.2.2 0 .3 0 .4-.1.1-.1.1-.2.1-.3 0-.1-.1-.2-.2-.3-.1 0-.2-.1-.5-.2-.2-.1-.4-.2-.5-.3-.2-.2-.3-.4-.3-.6 0-.3.1-.5.3-.7.2-.2.5-.3.8-.3.4 0 .8.1 1 .3l-.2.4c-.3.1-.5 0-.7 0-.3 0-.5.1-.5.3 0 .1.1.2.2.3.1 0 .2.1.4.2.3.1.5.2.6.3.2.2.3.4.3.7z"/></g><path class="st0" d="M22.5 31.7c-.3 0-.5-.2-.5-.5s.2-.5.5-.5.5.2.5.5-.2.5-.5.5m0-.9c-.2 0-.4.2-.4.4s.2.4.4.4.4-.2.4-.4-.2-.4-.4-.4m.1.7l-.1-.1c0-.1 0-.1-.1-.1v.2h-.1v-.6H22.6l.1.1c0 .1 0 .1-.1.1l.1.1.1.2h-.2zm-.1-.5h-.1v.1h.1s.1 0 0-.1c.1.1 0 0 0 0"/><path class="st2" d="M8.9 26.4h85.2v5.9H8.9z"/></svg>