<svg id="Layer_1" xmlns="http://www.w3.org/2000/svg" xmlns:xlink="http://www.w3.org/1999/xlink" viewBox="0 0 320 50"><style>.st0,.st1{clip-path:url(#SVGID_00000057112382666624202100000007217639626346738103_);fill:#231f20}.st1{fill:#00b2ee}</style><defs><path id="SVGID_1_" d="M36.8 14.1h30.1v10.2H36.8z"/></defs><clipPath id="SVGID_00000032624548305559470880000005622201810996617108_"><use xlink:href="#SVGID_1_" overflow="visible"/></clipPath><path d="M37 19.6h1.6c1.3 0 1.5.8 1.5 1.4 0 .6-.2 1.4-1.5 1.4h-.8v1.7H37v-4.5zm.8 2.1h.8c.4 0 .8-.2.8-.7 0-.6-.4-.7-.8-.7h-.8v1.4zM40.6 20.8h.7v.6c.1-.3.5-.7.9-.7h.3v.7h-.3c-.5 0-.9.4-.9 1.1V24h-.7v-3.2zM42.6 22.5c0-1 .6-1.7 1.6-1.7s1.6.7 1.6 1.7-.6 1.7-1.6 1.7-1.6-.7-1.6-1.7m2.6 0c0-.6-.3-1.1-.9-1.1-.6 0-.9.6-.9 1.1 0 .6.3 1.2.9 1.2.6-.1.9-.7.9-1.2M46 20.8h.6v-1h.7v1h.6v.5h-.6V23c0 .3 0 .4.3.4h.3v.6h-.5c-.7 0-.9-.3-.9-.8v-1.9H46v-.5zM48.9 22.6c0 .5.3 1 .9 1 .4 0 .7-.2.8-.5h.7c-.2.7-.8 1.1-1.5 1.1-1 0-1.6-.7-1.6-1.7 0-.9.6-1.7 1.6-1.7s1.7.9 1.5 1.9h-2.4zm1.7-.4c0-.5-.3-.9-.8-.9s-.8.4-.9.9h1.7zM54 21.9c-.1-.4-.3-.6-.7-.6-.4 0-.9.2-.9 1.2 0 .5.2 1.1.9 1.1.4 0 .7-.3.8-.7h.7c-.1.8-.7 1.3-1.5 1.3-1 0-1.6-.7-1.6-1.7s.5-1.7 1.6-1.7c.8 0 1.4.4 1.5 1.2H54zM54.9 20.8h.5v-1h.7v1h.6v.5h-.6V23c0 .3 0 .4.3.4h.3v.6h-.5c-.7 0-.9-.3-.9-.8v-1.9h-.5v-.5zM57.7 19.6h.7v.7h-.7v-.7zm0 1.2h.7V24h-.7v-3.2zM58.9 20.8h.8l1 2.5 1-2.5h.7l-1.3 3.3h-.8zM63.3 22.6c0 .5.3 1 .9 1 .4 0 .7-.2.8-.5h.7c-.2.7-.8 1.1-1.5 1.1-1 0-1.6-.7-1.6-1.7 0-.9.6-1.7 1.6-1.7s1.7.9 1.5 1.9h-2.4zm1.7-.4c0-.5-.3-.9-.8-.9s-.8.4-.9.9H65z" clip-path="url(#SVGID_00000032624548305559470880000005622201810996617108_)" fill="#231f20"/><path d="M56.3 18.9c-.5-1.8-1.9-3.2-3.7-3.6-.2-.6-.7-1-1.3-1s-1.1.4-1.3 1c-1.8.5-3.2 1.9-3.7 3.6l-.1.2h1.1V19c.4-1.3 1.4-2.3 2.7-2.7.2.4.7.7 1.1.7.5 0 .9-.3 1.1-.7 1.3.4 2.3 1.4 2.7 2.7v.1H56l.3-.2z" clip-path="url(#SVGID_00000032624548305559470880000005622201810996617108_)" fill="#00b2ee"/><path d="M66.4 23.5c.2 0 .3.1.3.3 0 .2-.1.3-.3.3-.2 0-.3-.1-.3-.3 0-.1.2-.3.3-.3m.3.3c0-.1-.1-.3-.3-.3-.1 0-.3.1-.3.3 0 .1.1.3.3.3.2 0 .3-.1.3-.3m-.4-.1h.1c.1 0 .1 0 .1.1s0 .1-.1.1l.1.2h-.1l-.1-.2h-.1v.1h-.1v-.3zm.1.1c.1 0 .1 0 0 0 .1-.1.1-.1 0-.1h-.1l.1.1z" clip-path="url(#SVGID_00000032624548305559470880000005622201810996617108_)" fill="#231f20"/></svg>