<svg id="Layer_1" xmlns="http://www.w3.org/2000/svg" viewBox="0 0 320 50"><style>.st0{fill:#393}</style><path class="st0" d="M218.4 34.7c.1-.4.3-.7.6-1s.5-.5.9-.7c.4-.2.8-.2 1.2-.2.5 0 .9.1 1.2.2.4.2.7.4.9.7s.4.6.6 1c.1.4.2.8.2 1.2 0 .4-.1.8-.2 1.2-.1.4-.3.7-.6 1s-.5.5-.9.6c-.4.2-.8.2-1.2.2-.4 0-.9-.1-1.2-.2s-.7-.4-.9-.6-.4-.6-.6-1-.2-.8-.2-1.2c0-.4 0-.8.2-1.2zm1.1 1.9c.1.2.1.4.3.6.1.2.3.3.5.4.2.1.4.2.7.2s.5-.1.7-.2c.2-.1.4-.3.5-.4l.3-.6c.1-.2.1-.5.1-.7 0-.3 0-.5-.1-.7-.1-.2-.1-.5-.3-.6s-.3-.3-.5-.5-.4-.2-.7-.2-.5.1-.7.2c-.2.1-.4.3-.5.5l-.3.6c-.1.2-.1.5-.1.7.1.3.1.5.1.7zM225.8 34.6v.6c.1-.2.3-.4.6-.5.2-.1.5-.2.7-.2.3 0 .6 0 .8.1.2.1.4.2.5.4.1.2.2.3.2.5s.1.5.1.7v2.6h-1.2v-2.4c0-.3-.1-.6-.2-.8-.1-.2-.3-.3-.6-.3s-.5.1-.7.3c-.1.2-.2.5-.2.9v2.2h-1.2v-4.2h1.2zM230.8 33v5.9h-1.2V33h1.2zM233.2 40.1c-.2.1-.5.2-.9.2h-.8v-1h.6c.2 0 .3-.1.3-.2.1-.1.1-.2.1-.3v-.3l-1.5-4h1.2l1 2.9.9-2.9h1.2l-1.8 4.8c.1.4 0 .6-.3.8zM237.8 35.4v-.8h.7v-.3c0-.4.1-.7.4-.9.2-.2.6-.4 1.1-.4h.6v.9h-.4c-.2 0-.3 0-.3.1-.1.1-.1.2-.1.4v.3h.8v.8h-.8V39h-1.2v-3.5h-.8zM241 35.8c.1-.3.3-.5.4-.7s.4-.3.7-.5c.3-.1.6-.2.9-.2s.6.1.9.2c.3.1.5.3.7.5s.3.4.4.7c.1.3.2.6.2.9s-.1.6-.2.9c-.1.3-.3.5-.4.7s-.4.3-.7.4c-.3.1-.6.2-.9.2s-.6-.1-.9-.2c-.3-.1-.5-.3-.7-.4s-.3-.4-.4-.7-.2-.6-.2-.9.1-.6.2-.9zm1 1.4c0 .2.1.3.2.4l.3.3c.1.1.3.1.5.1s.4 0 .5-.1l.3-.3c.1-.1.1-.3.2-.4v-.5-.5c0-.2-.1-.3-.2-.4l-.3-.3c-.1-.1-.3-.1-.5-.1s-.4 0-.5.1l-.3.3c-.1.1-.1.3-.2.4s0 .3 0 .5v.5zM247.1 34.6v.8c.1-.1.1-.3.2-.4l.3-.3c.1-.1.2-.1.4-.2s.3-.1.4-.1h.3v1.1h-.4c-.2 0-.4 0-.5.1-.1.1-.3.2-.4.3-.1.1-.2.3-.2.4s-.1.3-.1.5v1.9H246v-4.2h1.1zM254.5 33l2.2 5.9h-1.3l-.4-1.3h-2.2l-.5 1.3H251l2.2-5.9h1.3zm0 3.6l-.7-2.2-.8 2.2h1.5zM259.7 33c.4 0 .7.1 1.1.2s.6.3.8.5c.2.2.4.5.6.9s.2.8.2 1.3c0 .4-.1.8-.2 1.2-.1.4-.3.7-.5.9-.2.3-.5.5-.8.6-.3.2-.7.2-1.2.2h-2.5V33h2.5zm-.1 4.8c.2 0 .4 0 .5-.1.2-.1.3-.2.5-.3.1-.1.2-.3.3-.5s.1-.5.1-.8c0-.3 0-.6-.1-.8l-.3-.6c-.1-.2-.3-.3-.5-.4-.2-.1-.5-.1-.8-.1h-.9v3.7h1.2zM266.2 33l2.2 5.9H267l-.4-1.3h-2.2l-.5 1.3h-1.3l2.2-5.9h1.4zm0 3.6l-.7-2.2-.8 2.2h1.5zM273 33l1.4 4 1.3-4h1.8v5.9h-1.2v-4.2l-1.4 4.2h-1l-1.4-4.1v4.1h-1.2V33h1.7zM279.7 37.8c.2.2.4.3.8.3.2 0 .4-.1.6-.2.2-.1.3-.2.3-.4h1c-.2.5-.4.9-.8 1.1-.3.2-.8.3-1.2.3-.3 0-.6-.1-.9-.2-.3-.1-.5-.3-.7-.5-.2-.2-.3-.4-.4-.7-.1-.3-.2-.6-.2-.9 0-.3.1-.6.2-.9.1-.3.3-.5.4-.7.2-.2.4-.4.7-.5.3-.1.6-.2.9-.2.4 0 .7.1.9.2.3.1.5.3.7.6.2.2.3.5.4.8.1.3.1.6.1.9h-3.1c.1.6.1.8.3 1zm1.3-2.2c-.1-.2-.4-.2-.6-.2-.2 0-.3 0-.5.1-.1.1-.2.1-.3.2-.1.1-.1.2-.2.3 0 .1 0 .2-.1.3h1.9c.1-.3 0-.6-.2-.7zM284.3 34.6v.6c.2-.2.3-.4.6-.5.2-.1.5-.2.7-.2.3 0 .5.1.7.2.2.1.4.3.5.6.1-.2.3-.4.5-.5.2-.1.5-.2.8-.2.2 0 .4 0 .6.1s.4.1.5.3.2.3.3.5c.1.2.1.4.1.7V39h-1.2v-2.4-.4c0-.1 0-.2-.1-.3 0-.1-.1-.2-.2-.2s-.2-.1-.4-.1-.3 0-.4.1c-.1.1-.2.1-.2.2-.1.1-.1.2-.1.3V39h-1.2v-2.4-.4c0-.1 0-.2-.1-.3s-.1-.2-.2-.2c-.1-.1-.2-.1-.4-.1h-.2c-.1 0-.2.1-.3.1s-.2.2-.2.3c-.1.1-.1.3-.1.5V39h-1.2v-4.2h1.2zM291.8 33v2.1c.1-.2.3-.4.6-.5.2-.1.5-.2.8-.2.2 0 .4 0 .6.1.2.1.4.2.6.4s.3.4.4.7c.1.3.2.6.2 1s-.1.7-.2 1c-.1.3-.2.5-.4.7s-.4.3-.6.4c-.2.1-.4.1-.6.1-.3 0-.6 0-.8-.1-.2-.1-.4-.3-.6-.5v.5h-1.1V33h1.1zm1.9 3.2c0-.2-.1-.3-.2-.4l-.3-.3c-.1-.1-.3-.1-.4-.1-.2 0-.3 0-.4.1l-.3.3c-.1.1-.1.3-.2.4 0 .2-.1.3-.1.5s0 .3.1.5.1.3.2.4l.3.3c.1.1.3.1.4.1.2 0 .3 0 .4-.1l.3-.3c.1-.1.1-.3.2-.4s.1-.3.1-.5c-.1-.2-.1-.3-.1-.5zM296.9 37.8c.2.2.4.3.8.3.2 0 .4-.1.6-.2.2-.1.3-.2.3-.4h1c-.2.5-.4.9-.8 1.1-.3.2-.8.3-1.2.3-.3 0-.6-.1-.9-.2-.3-.1-.5-.3-.7-.5-.2-.2-.3-.4-.4-.7-.1-.3-.2-.6-.2-.9 0-.3.1-.6.2-.9.1-.3.3-.5.4-.7.2-.2.4-.4.7-.5.3-.1.6-.2.9-.2.4 0 .7.1.9.2.3.1.5.3.7.6.2.2.3.5.4.8.1.3.1.6.1.9h-3.1c0 .6.1.8.3 1zm1.3-2.2c-.1-.2-.4-.2-.6-.2-.2 0-.3 0-.5.1-.1.1-.2.1-.3.2-.1.1-.1.2-.2.3 0 .1 0 .2-.1.3h1.9c0-.3-.1-.6-.2-.7zM301.5 34.6v.8c.1-.1.1-.3.2-.4l.3-.3c.1-.1.2-.1.4-.2s.3-.1.4-.1h.3v1.1h-.4c-.2 0-.4 0-.5.1-.1.1-.3.2-.4.3-.1.1-.2.3-.2.4s-.1.3-.1.5v1.9h-1.2v-4.2h1.2zM304.5 37.8c.1.1.1.2.2.2s.2.1.3.1h.6c.1 0 .2 0 .2-.1s.1-.1.2-.2c0-.1.1-.2.1-.3 0-.2-.1-.3-.3-.4-.2-.1-.6-.2-1-.3-.2 0-.3-.1-.5-.1s-.3-.1-.4-.2l-.3-.3c-.1-.1-.1-.3-.1-.5 0-.3.1-.5.2-.7.1-.2.2-.3.4-.4.2-.1.4-.2.6-.2s.4-.1.7-.1c.2 0 .5 0 .7.1s.4.1.6.2c.2.1.3.2.4.4.1.2.2.4.2.7H306c0-.2-.1-.4-.3-.5s-.3-.1-.5-.1h-.2c-.1 0-.1 0-.2.1-.1 0-.1.1-.2.1 0 .1-.1.1-.1.2s0 .2.1.3c.1.1.2.1.3.2s.3.1.4.1c.2 0 .3.1.5.1s.3.1.5.1.3.1.4.2l.3.3c.1.1.1.3.1.5 0 .3-.1.5-.2.7-.1.2-.3.3-.4.5s-.4.2-.6.2c-.2 0-.5.1-.7.1-.2 0-.5 0-.7-.1-.2 0-.4-.1-.6-.2-.2-.1-.3-.3-.5-.5-.1-.2-.2-.4-.2-.7h1.1c.1.3.2.4.2.5z"/></svg>