<svg id="Layer_1" xmlns="http://www.w3.org/2000/svg" xmlns:xlink="http://www.w3.org/1999/xlink" viewBox="0 0 160 600"><style>.st0{clip-path:url(#SVGID_00000159471385515365765380000010225486882444691121_);fill:#439d51}.st1{fill:#fff}</style><defs><path id="SVGID_1_" d="M20.4 412.1h118.5v25H20.4z"/></defs><clipPath id="SVGID_00000091700177199779887170000000448443878510844593_"><use xlink:href="#SVGID_1_" overflow="visible"/></clipPath><path d="M138.9 424.6c0 6.9-6.5 12.5-14.3 12.5H34.8c-7.9 0-14.3-5.6-14.3-12.5s6.5-12.5 14.3-12.5h89.8c7.9 0 14.3 5.6 14.3 12.5" clip-path="url(#SVGID_00000091700177199779887170000000448443878510844593_)" fill="#439d51"/><g><path class="st1" d="M49.7 420.9v1.5h-3.8v1.8h3.3v1.4h-3.3v3.3h-1.8v-8h5.6zM55 420.9c.4 0 .7.1 1 .2.3.1.5.3.7.5s.4.4.5.7c.1.3.2.5.2.9 0 .5-.1.9-.3 1.2-.2.3-.5.6-1 .8.2.1.4.2.5.3.1.1.3.3.3.4.1.2.2.4.2.6s.1.4.1.6v.9c0 .2 0 .3.1.5 0 .2.1.3.2.4h-1.8c-.1-.3-.2-.6-.2-.9 0-.3-.1-.7-.1-1-.1-.4-.2-.7-.4-.9-.2-.2-.5-.3-.9-.3h-1.8v3.1h-1.8v-8H55zm-.6 3.6c.4 0 .7-.1.9-.3.2-.2.3-.5.3-.9s-.1-.7-.3-.8c-.2-.2-.5-.3-.9-.3h-1.9v2.2h1.9zM64.7 420.9v1.5h-4.2v1.7h3.9v1.4h-3.9v2h4.3v1.5h-6v-8h5.9zM72 420.9v1.5h-4.2v1.7h3.9v1.4h-3.9v2h4.3v1.5h-6v-8H72zM81.8 428.6c-.5.3-1.2.5-1.9.5-.6 0-1.2-.1-1.6-.3s-.9-.5-1.2-.9c-.3-.4-.6-.8-.8-1.3-.2-.5-.3-1-.3-1.6 0-.6.1-1.1.3-1.7.2-.5.4-1 .8-1.3.3-.4.7-.7 1.2-.9.5-.2 1-.3 1.6-.3.6 0 1.2.1 1.7.3.5.2.9.5 1.2.9.3.4.6.8.8 1.3.2.5.3 1.1.3 1.7 0 .6-.1 1.1-.3 1.6-.2.5-.4.9-.8 1.3l1 .9-.8.8-1.2-1zm-.2-1.9c.1-.2.3-.4.4-.7.1-.3.1-.7.1-1.1 0-.3 0-.7-.1-1-.1-.3-.2-.6-.4-.9s-.4-.5-.7-.6c-.3-.2-.6-.2-1-.2s-.7.1-1 .2-.5.4-.7.6c-.2.3-.3.5-.4.9-.1.3-.1.7-.1 1 0 .3 0 .7.1 1s.2.6.4.9c.2.3.4.5.7.6s.6.2 1 .2h.4c.1 0 .2 0 .3-.1l-.7-.7.8-.9.9.8zM90.9 428.2c-.6.5-1.4.8-2.5.8s-1.9-.3-2.5-.8c-.6-.5-.9-1.3-.9-2.4v-5h1.8v5c0 .2 0 .4.1.6 0 .2.1.4.2.6s.3.3.5.4.5.2.9.2c.6 0 1.1-.1 1.3-.4.2-.3.4-.7.4-1.3v-5H92v5c-.2 1-.5 1.8-1.1 2.3zM93.2 423.2c.2-.5.4-1 .8-1.3.3-.4.7-.7 1.2-.9.5-.2 1-.3 1.6-.3.6 0 1.2.1 1.7.3.5.2.9.5 1.2.9.3.4.6.8.8 1.3.2.5.3 1.1.3 1.7 0 .6-.1 1.1-.3 1.6-.2.5-.4.9-.8 1.3-.3.4-.7.7-1.2.9s-1 .3-1.7.3c-.6 0-1.2-.1-1.6-.3s-.9-.5-1.2-.9c-.3-.4-.6-.8-.8-1.3-.2-.5-.3-1-.3-1.6 0-.6.1-1.2.3-1.7zm1.6 2.7c.1.3.2.6.4.9.2.3.4.5.7.6s.6.2 1 .2.7-.1 1-.2c.3-.2.5-.4.7-.6s.3-.5.4-.9.1-.6.1-1c0-.3 0-.7-.1-1s-.2-.6-.4-.9-.4-.5-.7-.6c-.3-.2-.6-.2-1-.2s-.7.1-1 .2c-.3.2-.5.4-.7.6-.2.3-.3.5-.4.9s-.1.7-.1 1c0 .3 0 .7.1 1zM101.3 422.3v-1.5h6.5v1.5h-2.4v6.5h-1.8v-6.5h-2.3zM114.7 420.9v1.5h-4.2v1.7h3.9v1.4h-3.9v2h4.3v1.5h-6v-8h5.9z"/></g></svg>