<?xml version="1.0" encoding="utf-8"?>
<!-- Generator: Adobe Illustrator 25.4.1, SVG Export Plug-In . SVG Version: 6.00 Build 0)  -->
<svg version="1.1" id="Layer_1" xmlns="http://www.w3.org/2000/svg" xmlns:xlink="http://www.w3.org/1999/xlink" x="0px" y="0px"
	 viewBox="0 0 728 90" style="enable-background:new 0 0 728 90;" xml:space="preserve">
<style type="text/css">
	.st0{font-family:'HelveticaNeue-BoldItalic';}
	.st1{font-size:23px;}
</style>
<g>
	<path d="M32.8,19.7c0.7,0,1.4,0.1,2,0.4c0.6,0.2,1.1,0.6,1.5,1c0.4,0.4,0.7,0.9,1,1.4c0.2,0.5,0.3,1.1,0.3,1.8c0,1-0.2,1.8-0.6,2.5
		c-0.4,0.7-1.1,1.2-2,1.6v0c0.4,0.1,0.8,0.3,1.1,0.6c0.3,0.3,0.5,0.6,0.7,0.9c0.2,0.3,0.3,0.7,0.4,1.1c0.1,0.4,0.1,0.8,0.2,1.2
		c0,0.3,0,0.6,0,0.9s0,0.7,0.1,1.1c0,0.4,0.1,0.7,0.2,1c0.1,0.3,0.2,0.6,0.4,0.8h-3.6c-0.2-0.5-0.3-1.1-0.4-1.9s-0.1-1.4-0.2-2.1
		c-0.1-0.9-0.4-1.5-0.8-1.9c-0.4-0.4-1.1-0.6-2-0.6h-3.6v6.4H24V19.7H32.8z M31.6,27.1c0.8,0,1.4-0.2,1.9-0.6s0.6-1,0.6-1.8
		c0-0.8-0.2-1.4-0.6-1.7c-0.4-0.4-1-0.5-1.9-0.5h-4v4.6H31.6z"/>
	<path d="M43.7,33.2c0.5,0.5,1.2,0.7,2.1,0.7c0.7,0,1.2-0.2,1.7-0.5c0.5-0.3,0.8-0.7,0.9-1h2.9c-0.5,1.4-1.2,2.4-2.1,3.1
		c-1,0.6-2.1,0.9-3.5,0.9c-0.9,0-1.8-0.1-2.5-0.4c-0.8-0.3-1.4-0.7-1.9-1.3c-0.5-0.6-0.9-1.2-1.2-2s-0.4-1.6-0.4-2.5
		c0-0.9,0.1-1.7,0.4-2.5c0.3-0.8,0.7-1.4,1.2-2c0.5-0.6,1.2-1,1.9-1.3c0.7-0.3,1.6-0.5,2.5-0.5c1,0,1.9,0.2,2.6,0.6s1.4,0.9,1.9,1.6
		s0.8,1.4,1,2.3c0.2,0.8,0.3,1.7,0.2,2.6h-8.6C43,32,43.3,32.8,43.7,33.2z M47.4,27c-0.4-0.4-1-0.6-1.8-0.6c-0.5,0-1,0.1-1.3,0.3
		c-0.3,0.2-0.6,0.4-0.8,0.7s-0.4,0.5-0.4,0.8c-0.1,0.3-0.1,0.6-0.1,0.8h5.3C48.1,28,47.8,27.4,47.4,27z"/>
	<path d="M53.3,27.8c0-0.8,0.2-1.4,0.6-1.9c0.3-0.5,0.8-0.9,1.3-1.2s1.1-0.5,1.8-0.7c0.7-0.1,1.3-0.2,2-0.2c0.6,0,1.2,0,1.8,0.1
		c0.6,0.1,1.2,0.2,1.7,0.5s0.9,0.6,1.2,1c0.3,0.4,0.5,1,0.5,1.7v6.2c0,0.5,0,1.1,0.1,1.5c0.1,0.5,0.2,0.9,0.3,1.1h-3.3
		c-0.1-0.2-0.1-0.4-0.1-0.6c0-0.2-0.1-0.4-0.1-0.6c-0.5,0.5-1.1,0.9-1.8,1.1s-1.4,0.3-2.2,0.3c-0.6,0-1.1-0.1-1.6-0.2
		c-0.5-0.1-0.9-0.4-1.3-0.6c-0.4-0.3-0.7-0.7-0.9-1.1s-0.3-1-0.3-1.6c0-0.7,0.1-1.2,0.4-1.7s0.5-0.8,0.9-1c0.4-0.3,0.8-0.5,1.3-0.6
		c0.5-0.1,1-0.2,1.5-0.3c0.5-0.1,1-0.1,1.4-0.2c0.5,0,0.9-0.1,1.3-0.2c0.4-0.1,0.7-0.2,0.9-0.4c0.2-0.2,0.3-0.4,0.3-0.8
		c0-0.4-0.1-0.6-0.2-0.8c-0.1-0.2-0.3-0.4-0.5-0.5c-0.2-0.1-0.4-0.2-0.7-0.2c-0.3,0-0.5-0.1-0.8-0.1c-0.6,0-1.2,0.1-1.5,0.4
		c-0.4,0.3-0.6,0.7-0.6,1.4H53.3z M60.9,30.3c-0.1,0.1-0.3,0.2-0.5,0.3c-0.2,0.1-0.4,0.1-0.7,0.2s-0.5,0.1-0.7,0.1
		c-0.3,0-0.5,0.1-0.8,0.1c-0.2,0-0.5,0.1-0.7,0.2s-0.4,0.2-0.6,0.3s-0.3,0.3-0.4,0.5c-0.1,0.2-0.2,0.5-0.2,0.8
		c0,0.3,0.1,0.5,0.2,0.7c0.1,0.2,0.3,0.4,0.4,0.5c0.2,0.1,0.4,0.2,0.6,0.2c0.2,0,0.5,0.1,0.8,0.1c0.6,0,1.1-0.1,1.5-0.3
		c0.4-0.2,0.6-0.5,0.8-0.8c0.2-0.3,0.3-0.6,0.3-0.9s0.1-0.6,0.1-0.7V30.3z"/>
	<path d="M75.1,34.6c-0.4,0.6-0.9,1.1-1.5,1.4c-0.6,0.3-1.3,0.4-2.1,0.4c-0.9,0-1.7-0.2-2.3-0.5c-0.7-0.3-1.2-0.8-1.7-1.4
		c-0.4-0.6-0.8-1.3-1-2c-0.2-0.8-0.3-1.6-0.3-2.4c0-0.8,0.1-1.6,0.3-2.3s0.6-1.4,1-2c0.4-0.6,1-1,1.6-1.4c0.7-0.3,1.4-0.5,2.3-0.5
		c0.7,0,1.4,0.1,2,0.4c0.6,0.3,1.1,0.7,1.5,1.3h0v-6h3.3v16.4h-3.1L75.1,34.6L75.1,34.6z M75,28.7c-0.1-0.5-0.2-0.9-0.5-1.2
		c-0.2-0.3-0.5-0.6-0.9-0.8c-0.4-0.2-0.8-0.3-1.3-0.3s-1,0.1-1.4,0.3c-0.4,0.2-0.7,0.5-0.9,0.9c-0.2,0.4-0.4,0.8-0.5,1.2
		c-0.1,0.5-0.1,0.9-0.1,1.4c0,0.5,0.1,0.9,0.2,1.4c0.1,0.5,0.3,0.9,0.5,1.2c0.2,0.4,0.5,0.7,0.9,0.9c0.4,0.2,0.8,0.3,1.3,0.3
		c0.5,0,1-0.1,1.3-0.3c0.4-0.2,0.6-0.5,0.9-0.9c0.2-0.4,0.4-0.8,0.5-1.2c0.1-0.5,0.1-0.9,0.1-1.4S75,29.1,75,28.7z"/>
	<path d="M80.9,27.9v-3.5h3.6v3.5H80.9z M84.5,32.5v3.5h-3.6v-3.5H84.5z"/>
</g>
<g>
	<path d="M93.5,22.7l0.6-3h13.7l-0.6,3h-4.9l-2.8,13.4h-3.6l2.8-13.4H93.5z"/>
	<path d="M112.7,19.7l-1.2,5.9h0c0.1-0.2,0.3-0.4,0.5-0.6s0.5-0.4,0.8-0.6c0.3-0.2,0.7-0.3,1.1-0.4c0.4-0.1,0.9-0.2,1.4-0.2
		c2.3,0,3.5,1.1,3.5,3.2c0,0.1,0,0.3,0,0.5c0,0.2-0.1,0.4-0.1,0.6c0,0.2-0.1,0.4-0.1,0.6c0,0.2-0.1,0.3-0.1,0.4l-1.5,7h-3.3l1.4-7
		c0-0.2,0.1-0.4,0.1-0.7c0.1-0.3,0.1-0.5,0.1-0.7c0-0.4-0.2-0.6-0.5-0.9c-0.3-0.2-0.7-0.3-1.1-0.3c-0.5,0-0.9,0.1-1.3,0.3
		c-0.4,0.2-0.7,0.4-1,0.7c-0.3,0.3-0.5,0.7-0.7,1.1c-0.2,0.4-0.3,0.8-0.4,1.2l-1.3,6.3h-3.2l3.4-16.4H112.7z"/>
	<path d="M123.7,31.1c0,0.1,0,0.1,0,0.2v0.3c0,0.7,0.2,1.2,0.6,1.7c0.4,0.4,1.1,0.6,2,0.6c0.3,0,0.6,0,0.9-0.1
		c0.3-0.1,0.5-0.2,0.7-0.4s0.4-0.3,0.5-0.5c0.1-0.2,0.3-0.4,0.4-0.6h3.3c-0.3,0.7-0.6,1.3-0.9,1.8c-0.4,0.5-0.8,0.9-1.3,1.3
		c-0.5,0.3-1.1,0.6-1.7,0.8c-0.7,0.2-1.4,0.3-2.3,0.3c-0.8,0-1.5-0.1-2.2-0.3c-0.7-0.2-1.2-0.5-1.7-1s-0.8-1-1.1-1.6
		s-0.4-1.4-0.4-2.3c0-1,0.2-1.9,0.5-2.7c0.3-0.9,0.7-1.7,1.3-2.3c0.6-0.7,1.2-1.2,2.1-1.6c0.8-0.4,1.7-0.6,2.7-0.6
		c0.8,0,1.6,0.1,2.3,0.3c0.7,0.2,1.3,0.5,1.7,1c0.5,0.4,0.9,1,1.1,1.6s0.4,1.4,0.4,2.3c0,0.6-0.1,1.2-0.2,1.9h-8.8
		C123.7,31,123.7,31.1,123.7,31.1z M129.5,27.9c-0.1-0.3-0.2-0.6-0.3-0.8c-0.2-0.2-0.4-0.4-0.7-0.6c-0.3-0.1-0.7-0.2-1.1-0.2
		c-0.5,0-0.9,0.1-1.2,0.2c-0.4,0.1-0.7,0.3-0.9,0.6c-0.3,0.2-0.5,0.5-0.7,0.8c-0.2,0.3-0.3,0.6-0.4,1h5.5
		C129.5,28.5,129.5,28.2,129.5,27.9z"/>
	<path d="M138.9,24.2l-0.5,2.1l0,0c0.4-0.8,0.9-1.5,1.7-1.9c0.7-0.4,1.6-0.6,2.4-0.6c0.3,0,0.7,0,1,0.1l-0.7,3.2
		c-0.2,0-0.5-0.1-0.7-0.1s-0.5-0.1-0.7-0.1c-0.6,0-1.2,0.1-1.6,0.3c-0.4,0.2-0.8,0.5-1.1,0.9c-0.3,0.4-0.5,0.8-0.7,1.3
		c-0.2,0.5-0.3,1-0.4,1.5l-1.1,5.3h-3.2l2.5-11.9H138.9z"/>
	<path d="M145.5,31.1c0,0.1,0,0.1,0,0.2v0.3c0,0.7,0.2,1.2,0.6,1.7c0.4,0.4,1.1,0.6,2,0.6c0.3,0,0.6,0,0.9-0.1
		c0.3-0.1,0.5-0.2,0.7-0.4s0.4-0.3,0.5-0.5c0.1-0.2,0.3-0.4,0.4-0.6h3.3c-0.3,0.7-0.6,1.3-0.9,1.8c-0.4,0.5-0.8,0.9-1.3,1.3
		c-0.5,0.3-1.1,0.6-1.7,0.8c-0.7,0.2-1.4,0.3-2.3,0.3c-0.8,0-1.5-0.1-2.2-0.3c-0.7-0.2-1.2-0.5-1.7-1s-0.8-1-1.1-1.6
		s-0.4-1.4-0.4-2.3c0-1,0.2-1.9,0.5-2.7c0.3-0.9,0.7-1.7,1.3-2.3c0.6-0.7,1.2-1.2,2.1-1.6c0.8-0.4,1.7-0.6,2.7-0.6
		c0.8,0,1.6,0.1,2.3,0.3c0.7,0.2,1.3,0.5,1.7,1c0.5,0.4,0.9,1,1.1,1.6s0.4,1.4,0.4,2.3c0,0.6-0.1,1.2-0.2,1.9h-8.8
		C145.5,31,145.5,31.1,145.5,31.1z M151.2,27.9c-0.1-0.3-0.2-0.6-0.3-0.8c-0.2-0.2-0.4-0.4-0.7-0.6c-0.3-0.1-0.7-0.2-1.1-0.2
		c-0.5,0-0.9,0.1-1.2,0.2c-0.4,0.1-0.7,0.3-0.9,0.6c-0.3,0.2-0.5,0.5-0.7,0.8c-0.2,0.3-0.3,0.6-0.4,1h5.5
		C151.3,28.5,151.2,28.2,151.2,27.9z"/>
	<path d="M162.2,19.7l-0.7,3.5c-0.1,0.5-0.3,1-0.5,1.5c-0.2,0.5-0.5,0.9-0.8,1.2c-0.3,0.3-0.8,0.6-1.3,0.8c-0.5,0.2-1.1,0.3-1.9,0.4
		l0.3-1.6c0.7-0.1,1.2-0.4,1.4-0.7s0.5-0.9,0.6-1.5h-1.6l0.7-3.5H162.2z"/>
	<path d="M167.6,26.5c-0.3-0.3-0.7-0.4-1.4-0.4c-0.6,0-1.1,0.1-1.4,0.3c-0.4,0.2-0.6,0.5-0.6,0.9c0,0.3,0.1,0.5,0.3,0.7
		s0.6,0.4,1.2,0.5l1.6,0.5c0.4,0.1,0.9,0.3,1.2,0.5c0.4,0.2,0.7,0.4,1,0.7c0.3,0.3,0.5,0.6,0.7,1c0.2,0.4,0.2,0.8,0.2,1.3
		c0,0.7-0.2,1.4-0.5,1.9c-0.3,0.5-0.8,0.9-1.3,1.3c-0.5,0.3-1.1,0.6-1.8,0.7c-0.7,0.1-1.4,0.2-2,0.2c-0.6,0-1.2-0.1-1.8-0.2
		c-0.6-0.1-1.1-0.3-1.6-0.6c-0.5-0.3-0.9-0.7-1.2-1.1c-0.3-0.5-0.5-1.1-0.5-1.8v-0.5h3v0.4c0,0.3,0.1,0.5,0.2,0.7
		c0.1,0.2,0.3,0.4,0.5,0.5c0.2,0.1,0.5,0.2,0.8,0.3c0.3,0.1,0.6,0.1,0.8,0.1c0.2,0,0.5,0,0.7-0.1c0.2,0,0.5-0.1,0.7-0.2
		c0.2-0.1,0.4-0.3,0.5-0.4c0.1-0.2,0.2-0.4,0.2-0.7c0-0.4-0.1-0.7-0.3-0.9c-0.2-0.2-0.5-0.3-0.9-0.4l-2.5-0.8
		c-0.4-0.1-0.8-0.3-1.1-0.4c-0.3-0.2-0.6-0.3-0.8-0.6c-0.2-0.2-0.4-0.5-0.5-0.8c-0.1-0.3-0.2-0.7-0.2-1.2c0-0.7,0.2-1.3,0.5-1.8
		c0.3-0.5,0.8-0.9,1.3-1.2c0.5-0.3,1.1-0.5,1.7-0.6c0.6-0.1,1.2-0.2,1.8-0.2c0.6,0,1.3,0.1,1.9,0.2c0.6,0.1,1.1,0.3,1.6,0.6
		s0.8,0.7,1.1,1.2c0.3,0.5,0.4,1.1,0.4,1.9h-3C168.1,27.2,167.9,26.8,167.6,26.5z"/>
	<path d="M185.4,19.7l4.5,11.7h0l2.3-11.7h3.3l-3.5,16.4h-3.6L184,24.6h0l-2.3,11.5h-3.4l3.4-16.4H185.4z"/>
	<path d="M196.1,28.4c0.3-0.9,0.8-1.7,1.4-2.4c0.6-0.7,1.3-1.2,2.2-1.6s1.8-0.6,2.9-0.6c0.8,0,1.6,0.1,2.2,0.3
		c0.7,0.2,1.3,0.5,1.8,0.9c0.5,0.4,0.9,0.9,1.1,1.6c0.3,0.6,0.4,1.4,0.4,2.2c0,1-0.2,2-0.5,2.9c-0.3,0.9-0.8,1.7-1.4,2.4
		c-0.6,0.7-1.3,1.2-2.2,1.6c-0.9,0.4-1.8,0.6-2.9,0.6c-1.7,0-3-0.4-4-1.3c-1-0.9-1.5-2.1-1.5-3.8C195.6,30.3,195.7,29.3,196.1,28.4z
		 M199,32.3c0.1,0.3,0.2,0.6,0.4,0.9c0.2,0.2,0.4,0.4,0.7,0.6c0.3,0.1,0.6,0.2,1,0.2c0.6,0,1.1-0.2,1.6-0.5s0.8-0.7,1.1-1.2
		c0.3-0.5,0.5-1,0.6-1.6c0.1-0.6,0.2-1.1,0.2-1.6c0-0.8-0.2-1.4-0.5-1.9c-0.4-0.5-1-0.7-1.9-0.7c-0.6,0-1.1,0.2-1.6,0.5
		s-0.8,0.7-1.1,1.2c-0.3,0.5-0.5,1-0.6,1.6c-0.1,0.6-0.2,1.1-0.2,1.6C198.9,31.6,198.9,32,199,32.3z"/>
	<path d="M225.7,19.7c0.8,0,1.6,0.1,2.2,0.2c0.7,0.1,1.2,0.3,1.7,0.6s0.8,0.7,1.1,1.2c0.2,0.5,0.4,1.1,0.4,1.9
		c0,0.5-0.1,0.9-0.2,1.3c-0.1,0.4-0.3,0.8-0.6,1.2s-0.6,0.6-1,0.9c-0.4,0.2-0.8,0.4-1.3,0.4v0c0.8,0.2,1.4,0.6,1.8,1.2
		s0.6,1.3,0.6,2.1c0,0.9-0.2,1.7-0.5,2.3c-0.3,0.7-0.8,1.2-1.4,1.7c-0.6,0.4-1.2,0.8-2,1c-0.8,0.2-1.5,0.3-2.4,0.3h-8.7l3.4-16.4
		H225.7z M223.9,33.3c0.8,0,1.5-0.2,2-0.7c0.5-0.4,0.8-1.1,0.8-2c0-0.4-0.1-0.8-0.3-1c-0.2-0.2-0.4-0.4-0.7-0.6s-0.6-0.2-0.9-0.2
		c-0.3,0-0.7,0-1,0h-3.5l-1,4.5H223.9z M224.9,26.3c0.7,0,1.2-0.2,1.7-0.5c0.5-0.4,0.7-0.9,0.7-1.6c0-0.6-0.2-1.1-0.5-1.3
		c-0.3-0.2-0.8-0.4-1.4-0.4h-3.8l-0.8,3.8H224.9z"/>
	<path d="M235.4,31.1c0,0.1,0,0.1,0,0.2v0.3c0,0.7,0.2,1.2,0.6,1.7c0.4,0.4,1.1,0.6,2,0.6c0.3,0,0.6,0,0.9-0.1
		c0.3-0.1,0.5-0.2,0.7-0.4s0.4-0.3,0.5-0.5c0.1-0.2,0.3-0.4,0.4-0.6h3.3c-0.3,0.7-0.6,1.3-0.9,1.8c-0.4,0.5-0.8,0.9-1.3,1.3
		c-0.5,0.3-1.1,0.6-1.7,0.8c-0.7,0.2-1.4,0.3-2.3,0.3c-0.8,0-1.5-0.1-2.2-0.3c-0.7-0.2-1.2-0.5-1.7-1s-0.8-1-1.1-1.6
		s-0.4-1.4-0.4-2.3c0-1,0.2-1.9,0.5-2.7c0.3-0.9,0.7-1.7,1.3-2.3c0.6-0.7,1.2-1.2,2.1-1.6c0.8-0.4,1.7-0.6,2.7-0.6
		c0.8,0,1.6,0.1,2.3,0.3c0.7,0.2,1.3,0.5,1.7,1c0.5,0.4,0.9,1,1.1,1.6s0.4,1.4,0.4,2.3c0,0.6-0.1,1.2-0.2,1.9h-8.8
		C235.4,31,235.4,31.1,235.4,31.1z M241.1,27.9c-0.1-0.3-0.2-0.6-0.3-0.8c-0.2-0.2-0.4-0.4-0.7-0.6c-0.3-0.1-0.7-0.2-1.1-0.2
		c-0.5,0-0.9,0.1-1.2,0.2c-0.4,0.1-0.7,0.3-0.9,0.6c-0.3,0.2-0.5,0.5-0.7,0.8c-0.2,0.3-0.3,0.6-0.4,1h5.5
		C241.2,28.5,241.2,28.2,241.1,27.9z"/>
	<path d="M253.9,24.2l-0.5,2.2h-2.3l-1.2,5.9c0,0.1-0.1,0.2-0.1,0.3c0,0.1,0,0.2,0,0.2c0,0.2,0,0.4,0.1,0.5c0.1,0.1,0.2,0.2,0.3,0.3
		c0.1,0.1,0.2,0.1,0.4,0.1c0.1,0,0.3,0,0.4,0c0.4,0,0.8,0,1.2-0.1l-0.6,2.5c-0.3,0-0.7,0.1-1,0.1c-0.3,0-0.7,0-1,0
		c-0.4,0-0.8,0-1.1-0.1c-0.4-0.1-0.7-0.2-1-0.4c-0.3-0.2-0.5-0.4-0.7-0.7c-0.2-0.3-0.3-0.7-0.2-1.2c0-0.2,0-0.3,0-0.5
		c0-0.2,0.1-0.4,0.1-0.6l1.3-6.4h-2.1l0.5-2.2h2.1l0.7-3.6h3.3l-0.7,3.6H253.9z"/>
	<path d="M262.5,24.2l-0.5,2.2h-2.3l-1.2,5.9c0,0.1-0.1,0.2-0.1,0.3c0,0.1,0,0.2,0,0.2c0,0.2,0,0.4,0.1,0.5c0.1,0.1,0.2,0.2,0.3,0.3
		c0.1,0.1,0.2,0.1,0.4,0.1c0.1,0,0.3,0,0.4,0c0.4,0,0.8,0,1.2-0.1l-0.6,2.5c-0.3,0-0.7,0.1-1,0.1c-0.3,0-0.7,0-1,0
		c-0.4,0-0.8,0-1.1-0.1c-0.4-0.1-0.7-0.2-1-0.4c-0.3-0.2-0.5-0.4-0.7-0.7c-0.2-0.3-0.3-0.7-0.2-1.2c0-0.2,0-0.3,0-0.5
		c0-0.2,0.1-0.4,0.1-0.6l1.3-6.4h-2.1l0.5-2.2h2.1l0.7-3.6h3.3l-0.7,3.6H262.5z"/>
	<path d="M265.6,31.1c0,0.1,0,0.1,0,0.2v0.3c0,0.7,0.2,1.2,0.6,1.7c0.4,0.4,1.1,0.6,2,0.6c0.3,0,0.6,0,0.9-0.1
		c0.3-0.1,0.5-0.2,0.7-0.4s0.4-0.3,0.5-0.5c0.1-0.2,0.3-0.4,0.4-0.6h3.3c-0.3,0.7-0.6,1.3-0.9,1.8c-0.4,0.5-0.8,0.9-1.3,1.3
		c-0.5,0.3-1.1,0.6-1.7,0.8c-0.7,0.2-1.4,0.3-2.3,0.3c-0.8,0-1.5-0.1-2.2-0.3c-0.7-0.2-1.2-0.5-1.7-1s-0.8-1-1.1-1.6
		s-0.4-1.4-0.4-2.3c0-1,0.2-1.9,0.5-2.7c0.3-0.9,0.7-1.7,1.3-2.3c0.6-0.7,1.2-1.2,2.1-1.6c0.8-0.4,1.7-0.6,2.7-0.6
		c0.8,0,1.6,0.1,2.3,0.3c0.7,0.2,1.3,0.5,1.7,1c0.5,0.4,0.9,1,1.1,1.6s0.4,1.4,0.4,2.3c0,0.6-0.1,1.2-0.2,1.9h-8.8
		C265.6,31,265.6,31.1,265.6,31.1z M271.3,27.9c-0.1-0.3-0.2-0.6-0.3-0.8c-0.2-0.2-0.4-0.4-0.7-0.6c-0.3-0.1-0.7-0.2-1.1-0.2
		c-0.5,0-0.9,0.1-1.2,0.2c-0.4,0.1-0.7,0.3-0.9,0.6c-0.3,0.2-0.5,0.5-0.7,0.8c-0.2,0.3-0.3,0.6-0.4,1h5.5
		C271.4,28.5,271.4,28.2,271.3,27.9z"/>
	<path d="M280.7,24.2l-0.5,2.1l0,0c0.4-0.8,0.9-1.5,1.7-1.9c0.7-0.4,1.6-0.6,2.4-0.6c0.3,0,0.7,0,1,0.1l-0.7,3.2
		c-0.2,0-0.5-0.1-0.7-0.1s-0.5-0.1-0.7-0.1c-0.6,0-1.2,0.1-1.6,0.3c-0.4,0.2-0.8,0.5-1.1,0.9c-0.3,0.4-0.5,0.8-0.7,1.3
		c-0.2,0.5-0.3,1-0.4,1.5l-1.1,5.3h-3.2l2.5-11.9H280.7z"/>
	<path d="M292,22.7l0.6-3h13.7l-0.6,3h-4.9L298,36.1h-3.6l2.8-13.4H292z"/>
	<path d="M310.4,24.2l-2.5,11.9h-3.3l2.5-11.9H310.4z M307.4,22.3l0.6-2.7h3.3l-0.6,2.7H307.4z"/>
	<path d="M316.1,24.2l-0.4,1.7h0c0.5-0.7,1.1-1.2,1.8-1.5c0.7-0.3,1.5-0.5,2.4-0.5c0.7,0,1.4,0.2,1.9,0.5c0.5,0.3,0.9,0.9,1,1.6
		c0.2-0.3,0.5-0.6,0.8-0.8c0.3-0.3,0.6-0.5,1-0.7c0.4-0.2,0.7-0.3,1.1-0.4c0.4-0.1,0.8-0.1,1.2-0.1c0.5,0,0.9,0.1,1.3,0.2
		s0.8,0.3,1.2,0.6c0.3,0.2,0.6,0.6,0.8,0.9c0.2,0.4,0.3,0.8,0.3,1.3c0,0.4,0,0.7-0.1,1.1c-0.1,0.4-0.2,0.7-0.2,1.1l-1.5,7h-3.3
		l1.6-7.5c0.1-0.3,0.1-0.6,0.1-0.9c0-0.4-0.1-0.7-0.4-0.9c-0.3-0.2-0.6-0.4-1-0.4c-0.4,0-0.8,0.1-1.2,0.3c-0.3,0.2-0.6,0.5-0.9,0.8
		c-0.3,0.3-0.5,0.7-0.6,1c-0.2,0.4-0.3,0.8-0.4,1.1l-1.3,6.4h-3.3l1.6-7.5c0.1-0.3,0.1-0.6,0.1-0.9c0-0.4-0.1-0.7-0.4-0.9
		c-0.3-0.2-0.6-0.4-1-0.4c-0.4,0-0.8,0.1-1.2,0.3c-0.3,0.2-0.6,0.5-0.9,0.8c-0.3,0.3-0.5,0.7-0.6,1c-0.2,0.4-0.3,0.8-0.4,1.1
		l-1.3,6.4h-3.2l2.5-11.9H316.1z"/>
	<path d="M335,31.1c0,0.1,0,0.1,0,0.2v0.3c0,0.7,0.2,1.2,0.6,1.7c0.4,0.4,1.1,0.6,2,0.6c0.3,0,0.6,0,0.9-0.1
		c0.3-0.1,0.5-0.2,0.7-0.4s0.4-0.3,0.5-0.5c0.1-0.2,0.3-0.4,0.4-0.6h3.3c-0.3,0.7-0.6,1.3-0.9,1.8c-0.4,0.5-0.8,0.9-1.3,1.3
		c-0.5,0.3-1.1,0.6-1.7,0.8c-0.7,0.2-1.4,0.3-2.3,0.3c-0.8,0-1.5-0.1-2.2-0.3c-0.7-0.2-1.2-0.5-1.7-1s-0.8-1-1.1-1.6
		s-0.4-1.4-0.4-2.3c0-1,0.2-1.9,0.5-2.7c0.3-0.9,0.7-1.7,1.3-2.3c0.6-0.7,1.2-1.2,2.1-1.6c0.8-0.4,1.7-0.6,2.7-0.6
		c0.8,0,1.6,0.1,2.3,0.3c0.7,0.2,1.3,0.5,1.7,1c0.5,0.4,0.9,1,1.1,1.6s0.4,1.4,0.4,2.3c0,0.6-0.1,1.2-0.2,1.9H335
		C335,31,335,31.1,335,31.1z M340.7,27.9c-0.1-0.3-0.2-0.6-0.3-0.8c-0.2-0.2-0.4-0.4-0.7-0.6c-0.3-0.1-0.7-0.2-1.1-0.2
		c-0.5,0-0.9,0.1-1.2,0.2c-0.4,0.1-0.7,0.3-0.9,0.6c-0.3,0.2-0.5,0.5-0.7,0.8c-0.2,0.3-0.3,0.6-0.4,1h5.5
		C340.8,28.5,340.8,28.2,340.7,27.9z"/>
</g>
<text transform="matrix(1 0 0 1 351.2319 36.0771)" class="st0 st1"> </text>
<g>
	<path d="M31.1,50.2l-0.5,2.2h-2.3l-1.2,5.9c0,0.1-0.1,0.2-0.1,0.3c0,0.1,0,0.2,0,0.2c0,0.2,0,0.4,0.1,0.5c0.1,0.1,0.2,0.2,0.3,0.3
		c0.1,0.1,0.2,0.1,0.4,0.1c0.1,0,0.3,0,0.4,0c0.4,0,0.8,0,1.2-0.1l-0.6,2.5c-0.3,0-0.7,0.1-1,0.1c-0.3,0-0.7,0-1,0
		c-0.4,0-0.8,0-1.1-0.1c-0.4-0.1-0.7-0.2-1-0.4c-0.3-0.2-0.5-0.4-0.7-0.7s-0.3-0.7-0.2-1.2c0-0.2,0-0.3,0-0.5c0-0.2,0.1-0.4,0.1-0.6
		l1.3-6.4h-2.1l0.5-2.2h2.1l0.7-3.6h3.3l-0.7,3.6H31.1z"/>
	<path d="M31.6,54.4c0.3-0.9,0.8-1.7,1.4-2.4c0.6-0.7,1.3-1.2,2.2-1.6c0.8-0.4,1.8-0.6,2.9-0.6c0.8,0,1.6,0.1,2.2,0.3
		c0.7,0.2,1.3,0.5,1.8,0.9s0.9,0.9,1.1,1.6c0.3,0.6,0.4,1.4,0.4,2.2c0,1-0.2,2-0.5,2.9s-0.8,1.7-1.4,2.4c-0.6,0.7-1.3,1.2-2.2,1.6
		c-0.9,0.4-1.8,0.6-2.9,0.6c-1.7,0-3-0.4-4-1.3c-1-0.9-1.5-2.1-1.5-3.8C31.1,56.2,31.3,55.3,31.6,54.4z M34.6,58.3
		c0.1,0.3,0.2,0.6,0.4,0.9c0.2,0.2,0.4,0.4,0.7,0.6c0.3,0.1,0.6,0.2,1,0.2c0.6,0,1.1-0.2,1.6-0.5c0.4-0.3,0.8-0.7,1.1-1.2
		c0.3-0.5,0.5-1,0.6-1.6c0.1-0.6,0.2-1.1,0.2-1.6c0-0.8-0.2-1.4-0.5-1.9c-0.4-0.5-1-0.7-1.9-0.7c-0.6,0-1.1,0.2-1.6,0.5
		c-0.4,0.3-0.8,0.7-1.1,1.2c-0.3,0.5-0.5,1-0.6,1.6c-0.1,0.6-0.2,1.1-0.2,1.6C34.4,57.6,34.5,58,34.6,58.3z"/>
	<path d="M61.2,45.6c0.8,0,1.6,0.1,2.2,0.2s1.2,0.3,1.7,0.6c0.5,0.3,0.8,0.7,1.1,1.2c0.2,0.5,0.4,1.1,0.4,1.9c0,0.5-0.1,0.9-0.2,1.3
		c-0.1,0.4-0.3,0.8-0.6,1.2s-0.6,0.6-1,0.9c-0.4,0.2-0.8,0.4-1.3,0.4v0c0.8,0.2,1.4,0.6,1.8,1.2s0.6,1.3,0.6,2.1
		c0,0.9-0.2,1.7-0.5,2.3c-0.3,0.7-0.8,1.2-1.4,1.7c-0.6,0.4-1.2,0.8-2,1c-0.8,0.2-1.5,0.3-2.4,0.3h-8.7l3.4-16.4H61.2z M59.5,59.3
		c0.8,0,1.5-0.2,2-0.7c0.5-0.4,0.8-1.1,0.8-2c0-0.4-0.1-0.8-0.3-1c-0.2-0.2-0.4-0.4-0.7-0.6s-0.6-0.2-0.9-0.2c-0.3,0-0.7,0-1,0h-3.5
		l-1,4.5H59.5z M60.5,52.3c0.7,0,1.2-0.2,1.7-0.5c0.5-0.4,0.7-0.9,0.7-1.6c0-0.6-0.2-1.1-0.5-1.3c-0.3-0.2-0.8-0.4-1.4-0.4h-3.8
		l-0.8,3.8H60.5z"/>
	<path d="M75.4,62.1l0.4-1.7h0c-1.1,1.3-2.4,2-4.2,2c-2.3,0-3.5-1.1-3.5-3.2c0-0.1,0-0.3,0-0.5c0-0.2,0.1-0.4,0.1-0.6
		c0-0.2,0.1-0.4,0.1-0.6c0-0.2,0.1-0.3,0.1-0.4l1.5-7h3.3l-1.4,7c0,0.1-0.1,0.2-0.1,0.3c0,0.1,0,0.3-0.1,0.4c0,0.1,0,0.3,0,0.4
		c0,0.1,0,0.2,0,0.3c0,0.4,0.2,0.6,0.5,0.9c0.3,0.2,0.7,0.3,1.1,0.3c0.5,0,0.9-0.1,1.3-0.3c0.4-0.2,0.7-0.4,1-0.7
		c0.3-0.3,0.5-0.7,0.7-1.1c0.2-0.4,0.3-0.8,0.4-1.2l1.3-6.3H81l-2.5,11.9H75.4z"/>
	<path d="M85.7,65c-0.3,0.3-0.6,0.6-1,0.8c-0.4,0.2-0.8,0.3-1.2,0.4c-0.5,0.1-1,0.1-1.6,0.1c-0.3,0-0.6,0-0.9,0
		c-0.3,0-0.6-0.1-0.9-0.1l0.6-2.7c0.2,0,0.4,0,0.7,0.1c0.2,0,0.4,0.1,0.7,0.1c0.4,0,0.7-0.1,0.9-0.2c0.2-0.1,0.4-0.3,0.6-0.4
		c0.1-0.2,0.3-0.3,0.4-0.5c0.1-0.2,0.2-0.3,0.3-0.5l-2.1-11.8h3.4l1,8.5h0l4.1-8.5h3.4l-7.6,13.5C86.3,64.2,86,64.6,85.7,65z"/>
	<path d="M106.9,45.6L104.1,59h7.9l-0.6,3H99.9l3.4-16.4H106.9z"/>
	<path d="M118.7,50.2l-2.5,11.9h-3.3l2.5-11.9H118.7z M115.8,48.3l0.6-2.7h3.3l-0.6,2.7H115.8z"/>
	<path d="M119.6,52.4l0.5-2.2h2c0.2-0.8,0.3-1.4,0.5-2c0.2-0.6,0.4-1.1,0.8-1.5c0.3-0.4,0.7-0.7,1.3-0.9c0.5-0.2,1.2-0.3,2.1-0.3
		c0.4,0,0.7,0,1.1,0c0.4,0,0.7,0.1,1.1,0.1l-0.5,2.3c-0.2,0-0.3,0-0.5,0c-0.2,0-0.4,0-0.5,0c-0.4,0-0.7,0-0.9,0.1s-0.4,0.2-0.5,0.4
		c-0.1,0.2-0.2,0.4-0.3,0.7c-0.1,0.3-0.1,0.6-0.2,0.9h2.3l-0.5,2.2h-2.3l-2,9.7h-3.3l2-9.7H119.6z"/>
	<path d="M130.5,57.1c0,0.1,0,0.1,0,0.2v0.3c0,0.7,0.2,1.2,0.6,1.7c0.4,0.4,1.1,0.6,2,0.6c0.3,0,0.6,0,0.9-0.1
		c0.3-0.1,0.5-0.2,0.7-0.4s0.4-0.3,0.5-0.5c0.1-0.2,0.3-0.4,0.4-0.6h3.3c-0.3,0.7-0.6,1.3-0.9,1.8c-0.4,0.5-0.8,0.9-1.3,1.3
		s-1.1,0.6-1.7,0.8c-0.7,0.2-1.4,0.3-2.3,0.3c-0.8,0-1.5-0.1-2.2-0.3c-0.7-0.2-1.2-0.5-1.7-1c-0.5-0.4-0.8-1-1.1-1.6
		c-0.3-0.6-0.4-1.4-0.4-2.3c0-1,0.2-1.9,0.5-2.7s0.7-1.7,1.3-2.3c0.6-0.7,1.2-1.2,2.1-1.6c0.8-0.4,1.7-0.6,2.7-0.6
		c0.8,0,1.6,0.1,2.3,0.3s1.3,0.5,1.7,1c0.5,0.4,0.9,1,1.1,1.6s0.4,1.4,0.4,2.3c0,0.6-0.1,1.2-0.2,1.9h-8.8
		C130.6,57,130.5,57.1,130.5,57.1z M136.3,53.9c-0.1-0.3-0.2-0.6-0.3-0.8c-0.2-0.2-0.4-0.4-0.7-0.6c-0.3-0.1-0.7-0.2-1.1-0.2
		c-0.5,0-0.9,0.1-1.2,0.2c-0.4,0.1-0.7,0.3-0.9,0.6c-0.3,0.2-0.5,0.5-0.7,0.8c-0.2,0.3-0.3,0.6-0.4,1h5.5
		C136.4,54.5,136.3,54.2,136.3,53.9z"/>
	<path d="M153.8,45.6l-3.5,16.4h-3.6l3.4-16.4H153.8z"/>
	<path d="M158.9,50.2l-0.4,1.7h0c1.1-1.3,2.4-2,4.2-2c2.3,0,3.5,1.1,3.5,3.2c0,0.1,0,0.3,0,0.5c0,0.2-0.1,0.4-0.1,0.6
		c0,0.2-0.1,0.4-0.1,0.6c0,0.2-0.1,0.3-0.1,0.4l-1.5,7h-3.3l1.4-7c0-0.2,0.1-0.4,0.1-0.7c0.1-0.3,0.1-0.5,0.1-0.7
		c0-0.4-0.2-0.6-0.5-0.9c-0.3-0.2-0.7-0.3-1.1-0.3c-0.5,0-0.9,0.1-1.3,0.3c-0.4,0.2-0.7,0.4-1,0.7c-0.3,0.3-0.5,0.7-0.7,1.1
		c-0.2,0.4-0.3,0.8-0.4,1.2l-1.3,6.3h-3.2l2.5-11.9H158.9z"/>
	<path d="M175.3,52.5c-0.3-0.3-0.7-0.4-1.4-0.4c-0.6,0-1.1,0.1-1.4,0.3c-0.4,0.2-0.6,0.5-0.6,0.9c0,0.3,0.1,0.5,0.3,0.7
		c0.2,0.2,0.6,0.4,1.2,0.5l1.6,0.5c0.4,0.1,0.9,0.3,1.2,0.5c0.4,0.2,0.7,0.4,1,0.7c0.3,0.3,0.5,0.6,0.7,1c0.2,0.4,0.2,0.8,0.2,1.3
		c0,0.7-0.2,1.4-0.5,1.9c-0.3,0.5-0.8,0.9-1.3,1.3c-0.5,0.3-1.1,0.6-1.8,0.7c-0.7,0.1-1.4,0.2-2,0.2c-0.6,0-1.2-0.1-1.8-0.2
		c-0.6-0.1-1.1-0.3-1.6-0.6c-0.5-0.3-0.9-0.7-1.2-1.1s-0.5-1.1-0.5-1.8v-0.5h3v0.4c0,0.3,0.1,0.5,0.2,0.7c0.1,0.2,0.3,0.4,0.5,0.5
		c0.2,0.1,0.5,0.2,0.8,0.3c0.3,0.1,0.6,0.1,0.8,0.1c0.2,0,0.5,0,0.7-0.1c0.2,0,0.5-0.1,0.7-0.2c0.2-0.1,0.4-0.3,0.5-0.4
		c0.1-0.2,0.2-0.4,0.2-0.7c0-0.4-0.1-0.7-0.3-0.9s-0.5-0.3-0.9-0.4l-2.5-0.8c-0.4-0.1-0.8-0.3-1.1-0.4c-0.3-0.2-0.6-0.3-0.8-0.6
		c-0.2-0.2-0.4-0.5-0.5-0.8c-0.1-0.3-0.2-0.7-0.2-1.2c0-0.7,0.2-1.3,0.5-1.8s0.8-0.9,1.3-1.2c0.5-0.3,1.1-0.5,1.7-0.6
		c0.6-0.1,1.2-0.2,1.8-0.2c0.6,0,1.3,0.1,1.9,0.2c0.6,0.1,1.1,0.3,1.6,0.6c0.5,0.3,0.8,0.7,1.1,1.2c0.3,0.5,0.4,1.1,0.4,1.9h-3
		C175.7,53.1,175.6,52.7,175.3,52.5z"/>
	<path d="M187.4,62.1l0.4-1.7h0c-1.1,1.3-2.4,2-4.2,2c-2.3,0-3.5-1.1-3.5-3.2c0-0.1,0-0.3,0-0.5c0-0.2,0.1-0.4,0.1-0.6
		c0-0.2,0.1-0.4,0.1-0.6c0-0.2,0.1-0.3,0.1-0.4l1.5-7h3.3l-1.4,7c0,0.1-0.1,0.2-0.1,0.3c0,0.1,0,0.3-0.1,0.4c0,0.1,0,0.3,0,0.4
		c0,0.1,0,0.2,0,0.3c0,0.4,0.2,0.6,0.5,0.9c0.3,0.2,0.7,0.3,1.1,0.3c0.5,0,0.9-0.1,1.3-0.3c0.4-0.2,0.7-0.4,1-0.7
		c0.3-0.3,0.5-0.7,0.7-1.1c0.2-0.4,0.3-0.8,0.4-1.2l1.3-6.3h3.3l-2.5,11.9H187.4z"/>
	<path d="M198.9,50.2l-0.5,2.1l0,0c0.4-0.8,0.9-1.5,1.7-1.9s1.6-0.6,2.4-0.6c0.3,0,0.7,0,1,0.1l-0.7,3.2c-0.2,0-0.5-0.1-0.7-0.1
		c-0.2,0-0.5-0.1-0.7-0.1c-0.6,0-1.2,0.1-1.6,0.3c-0.4,0.2-0.8,0.5-1.1,0.9c-0.3,0.4-0.5,0.8-0.7,1.3s-0.3,1-0.4,1.5l-1.1,5.3h-3.2
		l2.5-11.9H198.9z"/>
	<path d="M204.7,51.9c0.4-0.5,0.8-0.9,1.3-1.2c0.5-0.3,1.1-0.5,1.7-0.7c0.6-0.1,1.3-0.2,2-0.2c0.5,0,1.1,0,1.7,0.1
		c0.6,0.1,1.1,0.2,1.6,0.4c0.5,0.2,0.9,0.5,1.2,0.9c0.3,0.4,0.5,0.9,0.4,1.6c0,0.6-0.1,1.2-0.3,2l-1.1,4.8c-0.1,0.2-0.1,0.5-0.1,0.8
		c0,0.3,0,0.6,0,0.8c0,0.2,0,0.4,0.1,0.7h-3.3v-1.2c-0.4,0.5-1,0.9-1.6,1.1s-1.3,0.4-2,0.4c-0.6,0-1.2-0.1-1.7-0.3
		c-0.5-0.2-0.9-0.4-1.2-0.7c-0.3-0.3-0.6-0.6-0.7-1c-0.2-0.4-0.2-0.8-0.2-1.2c0-1.2,0.4-2.1,1.2-2.8c0.8-0.7,1.9-1.1,3.3-1.3
		c0.8-0.1,1.4-0.2,2-0.2c0.6,0,1-0.1,1.4-0.2c0.4-0.1,0.7-0.2,0.8-0.4c0.2-0.2,0.3-0.5,0.3-0.9c0-0.3-0.1-0.6-0.2-0.7
		c-0.1-0.2-0.3-0.3-0.5-0.4s-0.4-0.2-0.7-0.2c-0.2,0-0.5-0.1-0.7-0.1c-0.6,0-1.1,0.1-1.6,0.4c-0.5,0.3-0.7,0.7-0.9,1.3H204
		C204.1,53,204.3,52.4,204.7,51.9z M209.5,56.8c-0.5,0.1-1,0.1-1.4,0.1c-0.3,0-0.6,0.1-0.9,0.1c-0.3,0.1-0.5,0.2-0.8,0.3
		c-0.2,0.1-0.4,0.3-0.5,0.6c-0.1,0.2-0.2,0.5-0.2,0.9c0,0.4,0.2,0.8,0.5,1c0.4,0.2,0.8,0.3,1.3,0.3c0.5,0,0.9-0.1,1.3-0.2
		c0.3-0.2,0.6-0.4,0.9-0.6s0.4-0.5,0.6-0.9c0.1-0.3,0.3-0.6,0.3-1l0.3-1.2C210.4,56.6,210,56.8,209.5,56.8z"/>
	<path d="M221.1,50.2l-0.4,1.7h0c1.1-1.3,2.4-2,4.2-2c2.3,0,3.5,1.1,3.5,3.2c0,0.1,0,0.3,0,0.5c0,0.2-0.1,0.4-0.1,0.6
		c0,0.2-0.1,0.4-0.1,0.6c0,0.2-0.1,0.3-0.1,0.4l-1.5,7h-3.3l1.4-7c0-0.2,0.1-0.4,0.1-0.7c0.1-0.3,0.1-0.5,0.1-0.7
		c0-0.4-0.2-0.6-0.5-0.9c-0.3-0.2-0.7-0.3-1.1-0.3c-0.5,0-0.9,0.1-1.3,0.3c-0.4,0.2-0.7,0.4-1,0.7c-0.3,0.3-0.5,0.7-0.7,1.1
		c-0.2,0.4-0.3,0.8-0.4,1.2l-1.3,6.3h-3.2l2.5-11.9H221.1z"/>
	<path d="M238.3,52.8c-0.4-0.3-0.9-0.5-1.6-0.5c-0.6,0-1.1,0.2-1.6,0.5c-0.4,0.3-0.8,0.7-1,1.3s-0.4,1.1-0.6,1.6
		c-0.1,0.6-0.2,1.1-0.2,1.6c0,0.4,0,0.7,0.1,1c0.1,0.3,0.2,0.6,0.4,0.8c0.2,0.2,0.4,0.4,0.7,0.6c0.3,0.1,0.6,0.2,1,0.2
		c0.4,0,0.7-0.1,1-0.2c0.3-0.1,0.5-0.3,0.8-0.5s0.4-0.4,0.6-0.7c0.1-0.3,0.3-0.5,0.4-0.8h3.3c-0.5,1.5-1.2,2.6-2.3,3.4
		c-1,0.8-2.3,1.2-3.9,1.2c-1.7,0-3-0.4-3.9-1.2c-0.9-0.8-1.4-2.1-1.4-3.9c0-1,0.1-2,0.4-2.9c0.3-0.9,0.7-1.7,1.3-2.4
		c0.6-0.7,1.3-1.2,2.1-1.6c0.8-0.4,1.8-0.6,2.9-0.6c0.7,0,1.4,0.1,2,0.3s1.2,0.4,1.7,0.8s0.9,0.8,1.1,1.4s0.4,1.2,0.4,2h-3.3
		C238.9,53.6,238.7,53.1,238.3,52.8z"/>
	<path d="M246,57.1c0,0.1,0,0.1,0,0.2v0.3c0,0.7,0.2,1.2,0.6,1.7c0.4,0.4,1.1,0.6,2,0.6c0.3,0,0.6,0,0.9-0.1
		c0.3-0.1,0.5-0.2,0.7-0.4s0.4-0.3,0.5-0.5c0.1-0.2,0.3-0.4,0.4-0.6h3.3c-0.3,0.7-0.6,1.3-0.9,1.8c-0.4,0.5-0.8,0.9-1.3,1.3
		s-1.1,0.6-1.7,0.8c-0.7,0.2-1.4,0.3-2.3,0.3c-0.8,0-1.5-0.1-2.2-0.3c-0.7-0.2-1.2-0.5-1.7-1c-0.5-0.4-0.8-1-1.1-1.6
		c-0.3-0.6-0.4-1.4-0.4-2.3c0-1,0.2-1.9,0.5-2.7s0.7-1.7,1.3-2.3c0.6-0.7,1.2-1.2,2.1-1.6c0.8-0.4,1.7-0.6,2.7-0.6
		c0.8,0,1.6,0.1,2.3,0.3s1.3,0.5,1.7,1c0.5,0.4,0.9,1,1.1,1.6s0.4,1.4,0.4,2.3c0,0.6-0.1,1.2-0.2,1.9H246C246,57,246,57.1,246,57.1z
		 M251.7,53.9c-0.1-0.3-0.2-0.6-0.3-0.8c-0.2-0.2-0.4-0.4-0.7-0.6c-0.3-0.1-0.7-0.2-1.1-0.2c-0.5,0-0.9,0.1-1.2,0.2
		c-0.4,0.1-0.7,0.3-0.9,0.6c-0.3,0.2-0.5,0.5-0.7,0.8c-0.2,0.3-0.3,0.6-0.4,1h5.5C251.8,54.5,251.8,54.2,251.7,53.9z"/>
	<path d="M260.1,58.5l-0.8,3.5h-3.6l0.7-3.5H260.1z M259.4,57.1h-1.6l0.6-7l0.9-4.5h3.5l-1,4.5L259.4,57.1z"/>
</g>
</svg>
