<?xml version="1.0" encoding="utf-8"?>
<!-- Generator: Adobe Illustrator 25.4.1, SVG Export Plug-In . SVG Version: 6.00 Build 0)  -->
<svg version="1.1" id="Layer_1" xmlns="http://www.w3.org/2000/svg" xmlns:xlink="http://www.w3.org/1999/xlink" x="0px" y="0px"
	 viewBox="0 0 728 90" style="enable-background:new 0 0 728 90;" xml:space="preserve">
<style type="text/css">
	.st0{fill:#231F20;}
</style>
<g>
	<path class="st0" d="M33.7,33.2c-0.8,0.3-1.6,0.5-2.4,0.5c-1.3,0-2.4-0.2-3.4-0.7c-1-0.4-1.9-1-2.5-1.8s-1.2-1.7-1.6-2.7
		c-0.4-1-0.6-2.2-0.6-3.3c0-1.2,0.2-2.4,0.6-3.4c0.4-1,0.9-2,1.6-2.7c0.7-0.8,1.5-1.4,2.5-1.8c1-0.4,2.1-0.7,3.4-0.7
		c0.8,0,1.7,0.1,2.4,0.4c0.8,0.3,1.5,0.6,2.1,1.1c0.6,0.5,1.2,1.1,1.6,1.8s0.7,1.5,0.8,2.5h-3.5c-0.2-0.9-0.6-1.6-1.2-2.1
		c-0.6-0.5-1.4-0.7-2.2-0.7c-0.8,0-1.5,0.2-2.1,0.5c-0.6,0.3-1,0.7-1.4,1.3c-0.4,0.5-0.6,1.1-0.8,1.8s-0.2,1.4-0.2,2.1
		c0,0.7,0.1,1.4,0.2,2s0.4,1.2,0.8,1.8c0.4,0.5,0.8,0.9,1.4,1.3c0.6,0.3,1.3,0.5,2.1,0.5c1.2,0,2.1-0.3,2.8-0.9
		c0.7-0.6,1-1.5,1.1-2.6h-3.6v-2.7h6.9v8.9h-2.3l-0.4-1.9C35.2,32.3,34.5,32.9,33.7,33.2z"/>
	<path class="st0" d="M44.4,30.5c0.5,0.5,1.2,0.7,2.1,0.7c0.7,0,1.2-0.2,1.7-0.5c0.5-0.3,0.8-0.7,0.9-1H52c-0.5,1.4-1.2,2.4-2.1,3.1
		c-1,0.6-2.1,0.9-3.5,0.9c-0.9,0-1.8-0.1-2.5-0.4c-0.8-0.3-1.4-0.7-1.9-1.3c-0.5-0.6-0.9-1.2-1.2-2s-0.4-1.6-0.4-2.5
		c0-0.9,0.1-1.7,0.4-2.5c0.3-0.8,0.7-1.4,1.2-2c0.5-0.6,1.2-1,1.9-1.3c0.7-0.3,1.6-0.5,2.5-0.5c1,0,1.9,0.2,2.6,0.6s1.4,0.9,1.9,1.6
		s0.8,1.4,1,2.3c0.2,0.8,0.3,1.7,0.2,2.6h-8.6C43.6,29.2,43.9,30,44.4,30.5z M48.1,24.2c-0.4-0.4-1-0.6-1.8-0.6
		c-0.5,0-1,0.1-1.3,0.3c-0.3,0.2-0.6,0.4-0.8,0.7s-0.4,0.5-0.4,0.8c-0.1,0.3-0.1,0.6-0.1,0.8h5.3C48.8,25.3,48.5,24.6,48.1,24.2z"/>
	<path class="st0" d="M60.4,21.4v2.2H58v5.9c0,0.6,0.1,0.9,0.3,1.1c0.2,0.2,0.6,0.3,1.1,0.3c0.2,0,0.4,0,0.5,0c0.2,0,0.3,0,0.5-0.1
		v2.5c-0.3,0-0.6,0.1-0.9,0.1c-0.3,0-0.7,0-1,0c-0.5,0-1,0-1.4-0.1c-0.5-0.1-0.9-0.2-1.2-0.4c-0.3-0.2-0.6-0.5-0.8-0.9
		c-0.2-0.4-0.3-0.9-0.3-1.4v-7h-2v-2.2h2v-3.6H58v3.6H60.4z"/>
	<path class="st0" d="M68.3,21.4v2.2h-2.4v5.9c0,0.6,0.1,0.9,0.3,1.1c0.2,0.2,0.6,0.3,1.1,0.3c0.2,0,0.4,0,0.5,0
		c0.2,0,0.3,0,0.5-0.1v2.5c-0.3,0-0.6,0.1-0.9,0.1c-0.3,0-0.7,0-1,0c-0.5,0-1,0-1.4-0.1c-0.5-0.1-0.9-0.2-1.2-0.4
		c-0.3-0.2-0.6-0.5-0.8-0.9c-0.2-0.4-0.3-0.9-0.3-1.4v-7h-2v-2.2h2v-3.6h3.3v3.6H68.3z"/>
	<path class="st0" d="M69.8,19.6v-2.7H73v2.7H69.8z M73,21.4v11.9h-3.3V21.4H73z"/>
	<path class="st0" d="M78.5,21.4v1.7h0.1c0.4-0.7,1-1.2,1.6-1.5c0.7-0.3,1.3-0.5,2-0.5c0.9,0,1.6,0.1,2.2,0.4c0.6,0.2,1,0.6,1.3,1
		c0.3,0.4,0.5,0.9,0.7,1.5c0.1,0.6,0.2,1.3,0.2,2v7.3h-3.3v-6.7c0-1-0.2-1.7-0.5-2.2s-0.9-0.7-1.6-0.7c-0.9,0-1.5,0.3-1.9,0.8
		c-0.4,0.5-0.6,1.4-0.6,2.6v6.2h-3.3V21.4H78.5z"/>
	<path class="st0" d="M100,34.2c-0.1,0.6-0.4,1.2-0.8,1.7c-0.4,0.5-1.1,1-1.9,1.3c-0.8,0.4-1.9,0.6-3.3,0.6c-0.6,0-1.2-0.1-1.8-0.2
		c-0.6-0.1-1.2-0.4-1.7-0.7s-0.9-0.7-1.2-1.2c-0.3-0.5-0.5-1.1-0.6-1.7h3.2c0.2,0.6,0.5,1,0.9,1.3s1,0.4,1.5,0.4
		c0.9,0,1.6-0.3,2-0.8c0.4-0.6,0.6-1.2,0.6-2.1v-1.6h0c-0.4,0.6-0.9,1.1-1.5,1.4c-0.7,0.3-1.3,0.4-2.1,0.4c-0.9,0-1.7-0.2-2.3-0.5
		c-0.6-0.3-1.2-0.7-1.6-1.3c-0.4-0.5-0.7-1.2-0.9-1.9c-0.2-0.7-0.3-1.5-0.3-2.3c0-0.8,0.1-1.5,0.3-2.2c0.2-0.7,0.5-1.3,1-1.9
		c0.4-0.5,1-1,1.6-1.3c0.6-0.3,1.4-0.5,2.2-0.5c0.8,0,1.5,0.1,2.1,0.4c0.6,0.3,1.1,0.8,1.5,1.5h0v-1.6h3.1v11.1
		C100.2,33,100.2,33.6,100,34.2z M95.6,30.2c0.4-0.2,0.6-0.4,0.9-0.7s0.4-0.7,0.5-1c0.1-0.4,0.2-0.8,0.2-1.2c0-0.5,0-1-0.1-1.4
		c-0.1-0.4-0.2-0.8-0.5-1.2c-0.2-0.3-0.5-0.6-0.9-0.8c-0.4-0.2-0.8-0.3-1.3-0.3c-0.5,0-0.9,0.1-1.2,0.3c-0.3,0.2-0.6,0.4-0.8,0.7
		c-0.2,0.3-0.4,0.7-0.5,1.1c-0.1,0.4-0.1,0.8-0.1,1.3c0,0.4,0,0.9,0.1,1.3c0.1,0.4,0.2,0.8,0.4,1.1c0.2,0.3,0.5,0.6,0.8,0.8
		c0.3,0.2,0.8,0.3,1.3,0.3C94.8,30.5,95.2,30.4,95.6,30.2z"/>
	<path class="st0" d="M112.2,16.9v16.4h-3.3V16.9H112.2z"/>
	<path class="st0" d="M114.6,24.8c0.3-0.8,0.7-1.4,1.2-2c0.5-0.5,1.2-1,1.9-1.3c0.8-0.3,1.6-0.4,2.5-0.4c0.9,0,1.8,0.1,2.5,0.4
		c0.8,0.3,1.4,0.7,1.9,1.3c0.5,0.5,1,1.2,1.2,2c0.3,0.8,0.4,1.6,0.4,2.6c0,1-0.1,1.8-0.4,2.6c-0.3,0.8-0.7,1.4-1.2,2
		c-0.5,0.5-1.2,1-1.9,1.3c-0.8,0.3-1.6,0.4-2.5,0.4c-0.9,0-1.8-0.1-2.5-0.4c-0.8-0.3-1.4-0.7-1.9-1.3c-0.5-0.5-1-1.2-1.2-2
		c-0.3-0.8-0.4-1.6-0.4-2.6C114.2,26.4,114.3,25.6,114.6,24.8z M117.6,28.8c0.1,0.5,0.2,0.9,0.5,1.2c0.2,0.4,0.5,0.6,0.9,0.9
		c0.4,0.2,0.8,0.3,1.4,0.3c0.6,0,1-0.1,1.4-0.3c0.4-0.2,0.7-0.5,0.9-0.9c0.2-0.4,0.4-0.8,0.5-1.2c0.1-0.5,0.1-0.9,0.1-1.4
		c0-0.5,0-0.9-0.1-1.4c-0.1-0.5-0.2-0.9-0.5-1.2c-0.2-0.4-0.5-0.6-0.9-0.9c-0.4-0.2-0.8-0.3-1.4-0.3c-0.6,0-1,0.1-1.4,0.3
		c-0.4,0.2-0.7,0.5-0.9,0.9c-0.2,0.4-0.4,0.8-0.5,1.2c-0.1,0.5-0.1,0.9-0.1,1.4C117.4,27.9,117.5,28.3,117.6,28.8z"/>
	<path class="st0" d="M138.6,33.3l-2.1-8h0l-2,8H131l-3.8-11.9h3.4l2.2,8.1h0l2-8.1h3.2l2,8.1h0l2.2-8.1h3.4L142,33.3H138.6z"/>
	<path class="st0" d="M153.8,25.6v2.8h-6.9v-2.8H153.8z"/>
	<path class="st0" d="M161.7,23.6c-0.5,0-1,0.1-1.3,0.4c-0.4,0.2-0.6,0.5-0.9,0.9c-0.2,0.4-0.4,0.8-0.5,1.2
		c-0.1,0.5-0.1,0.9-0.1,1.3c0,0.4,0,0.9,0.1,1.3c0.1,0.4,0.2,0.8,0.4,1.2c0.2,0.4,0.5,0.7,0.8,0.9c0.4,0.2,0.8,0.3,1.3,0.3
		c0.8,0,1.4-0.2,1.8-0.7c0.4-0.4,0.7-1,0.8-1.8h3.2c-0.2,1.6-0.8,2.8-1.8,3.6c-1,0.8-2.3,1.2-3.9,1.2c-0.9,0-1.7-0.1-2.4-0.4
		c-0.7-0.3-1.4-0.7-1.9-1.3c-0.5-0.5-0.9-1.2-1.2-1.9c-0.3-0.7-0.4-1.6-0.4-2.4c0-0.9,0.1-1.8,0.4-2.6c0.3-0.8,0.7-1.5,1.2-2
		c0.5-0.6,1.2-1,1.9-1.3c0.8-0.3,1.6-0.5,2.6-0.5c0.7,0,1.4,0.1,2,0.3c0.7,0.2,1.2,0.5,1.7,0.8c0.5,0.4,0.9,0.8,1.3,1.4
		c0.3,0.6,0.5,1.2,0.6,2h-3.2C163.9,24.2,163.1,23.6,161.7,23.6z"/>
	<path class="st0" d="M169.1,24.8c0.3-0.8,0.7-1.4,1.2-2c0.5-0.5,1.2-1,1.9-1.3c0.8-0.3,1.6-0.4,2.5-0.4c0.9,0,1.8,0.1,2.5,0.4
		c0.8,0.3,1.4,0.7,1.9,1.3c0.5,0.5,1,1.2,1.2,2c0.3,0.8,0.4,1.6,0.4,2.6c0,1-0.1,1.8-0.4,2.6c-0.3,0.8-0.7,1.4-1.2,2
		c-0.5,0.5-1.2,1-1.9,1.3c-0.8,0.3-1.6,0.4-2.5,0.4c-0.9,0-1.8-0.1-2.5-0.4c-0.8-0.3-1.4-0.7-1.9-1.3c-0.5-0.5-1-1.2-1.2-2
		c-0.3-0.8-0.4-1.6-0.4-2.6C168.6,26.4,168.8,25.6,169.1,24.8z M172,28.8c0.1,0.5,0.2,0.9,0.5,1.2c0.2,0.4,0.5,0.6,0.9,0.9
		c0.4,0.2,0.8,0.3,1.4,0.3c0.6,0,1-0.1,1.4-0.3c0.4-0.2,0.7-0.5,0.9-0.9c0.2-0.4,0.4-0.8,0.5-1.2c0.1-0.5,0.1-0.9,0.1-1.4
		c0-0.5,0-0.9-0.1-1.4c-0.1-0.5-0.2-0.9-0.5-1.2c-0.2-0.4-0.5-0.6-0.9-0.9c-0.4-0.2-0.8-0.3-1.4-0.3c-0.6,0-1,0.1-1.4,0.3
		c-0.4,0.2-0.7,0.5-0.9,0.9c-0.2,0.4-0.4,0.8-0.5,1.2c-0.1,0.5-0.1,0.9-0.1,1.4C171.9,27.9,172,28.3,172,28.8z"/>
	<path class="st0" d="M185.6,30.4c0.1,0.3,0.3,0.5,0.6,0.6s0.5,0.3,0.8,0.4c0.3,0.1,0.6,0.1,0.9,0.1c0.2,0,0.5,0,0.7-0.1
		s0.5-0.1,0.7-0.3c0.2-0.1,0.4-0.3,0.5-0.5c0.1-0.2,0.2-0.4,0.2-0.7c0-0.5-0.3-0.9-1-1.1s-1.6-0.5-2.7-0.7c-0.5-0.1-0.9-0.2-1.4-0.4
		c-0.5-0.1-0.9-0.3-1.2-0.6c-0.4-0.2-0.6-0.5-0.9-0.9c-0.2-0.4-0.3-0.8-0.3-1.3c0-0.8,0.1-1.4,0.4-1.9c0.3-0.5,0.7-0.9,1.2-1.2
		c0.5-0.3,1-0.5,1.7-0.6c0.6-0.1,1.2-0.2,1.9-0.2s1.3,0.1,1.9,0.2c0.6,0.1,1.1,0.3,1.6,0.6c0.5,0.3,0.9,0.7,1.2,1.2s0.5,1.1,0.6,1.8
		h-3.1c0-0.6-0.3-1.1-0.7-1.3s-0.9-0.3-1.5-0.3c-0.2,0-0.4,0-0.6,0c-0.2,0-0.4,0.1-0.6,0.1c-0.2,0.1-0.3,0.2-0.4,0.3
		c-0.1,0.1-0.2,0.3-0.2,0.6c0,0.3,0.1,0.5,0.3,0.7s0.5,0.3,0.8,0.4c0.3,0.1,0.7,0.2,1.2,0.3c0.4,0.1,0.9,0.2,1.4,0.3
		c0.5,0.1,0.9,0.2,1.4,0.4c0.5,0.2,0.9,0.4,1.2,0.6c0.4,0.3,0.6,0.6,0.9,0.9c0.2,0.4,0.3,0.8,0.3,1.4c0,0.8-0.2,1.4-0.5,2
		c-0.3,0.5-0.7,1-1.2,1.3c-0.5,0.3-1.1,0.5-1.7,0.7c-0.7,0.1-1.3,0.2-2,0.2c-0.7,0-1.4-0.1-2-0.2c-0.7-0.1-1.2-0.4-1.8-0.7
		c-0.5-0.3-0.9-0.7-1.3-1.3c-0.3-0.5-0.5-1.2-0.5-2h3.1C185.4,29.8,185.5,30.1,185.6,30.4z"/>
	<path class="st0" d="M201.5,21.4v2.2h-2.4v5.9c0,0.6,0.1,0.9,0.3,1.1c0.2,0.2,0.6,0.3,1.1,0.3c0.2,0,0.4,0,0.5,0
		c0.2,0,0.3,0,0.5-0.1v2.5c-0.3,0-0.6,0.1-0.9,0.1c-0.3,0-0.7,0-1,0c-0.5,0-1,0-1.4-0.1c-0.5-0.1-0.9-0.2-1.2-0.4
		c-0.3-0.2-0.6-0.5-0.8-0.9c-0.2-0.4-0.3-0.9-0.3-1.4v-7h-2v-2.2h2v-3.6h3.3v3.6H201.5z"/>
	<path class="st0" d="M206.7,29.8v3.5c0,0.5-0.1,1-0.3,1.4c-0.2,0.4-0.4,0.8-0.8,1.1c-0.3,0.3-0.7,0.6-1.1,0.8s-0.9,0.3-1.4,0.4
		v-1.7c0.2,0,0.4-0.1,0.7-0.3c0.2-0.1,0.4-0.3,0.5-0.5c0.2-0.2,0.3-0.4,0.3-0.6c0.1-0.2,0.1-0.5,0.1-0.7h-1.7v-3.5H206.7z"/>
	<path class="st0" d="M218.5,16.9v6.2h0.1c0.4-0.7,0.9-1.2,1.6-1.5c0.6-0.3,1.3-0.5,1.9-0.5c0.9,0,1.6,0.1,2.2,0.4
		c0.6,0.2,1,0.6,1.3,1c0.3,0.4,0.5,0.9,0.7,1.5c0.1,0.6,0.2,1.3,0.2,2v7.3h-3.3v-6.7c0-1-0.2-1.7-0.5-2.2s-0.9-0.7-1.6-0.7
		c-0.9,0-1.5,0.3-1.9,0.8c-0.4,0.5-0.6,1.4-0.6,2.6v6.2h-3.3V16.9H218.5z"/>
	<path class="st0" d="M228.8,19.6v-2.7h3.3v2.7H228.8z M232,21.4v11.9h-3.3V21.4H232z"/>
	<path class="st0" d="M245.6,34.2c-0.1,0.6-0.4,1.2-0.8,1.7c-0.4,0.5-1.1,1-1.9,1.3c-0.8,0.4-1.9,0.6-3.3,0.6
		c-0.6,0-1.2-0.1-1.8-0.2c-0.6-0.1-1.2-0.4-1.7-0.7s-0.9-0.7-1.2-1.2c-0.3-0.5-0.5-1.1-0.6-1.7h3.2c0.2,0.6,0.5,1,0.9,1.3
		s1,0.4,1.5,0.4c0.9,0,1.6-0.3,2-0.8c0.4-0.6,0.6-1.2,0.6-2.1v-1.6h0c-0.4,0.6-0.9,1.1-1.5,1.4c-0.7,0.3-1.3,0.4-2.1,0.4
		c-0.9,0-1.7-0.2-2.3-0.5c-0.6-0.3-1.2-0.7-1.6-1.3c-0.4-0.5-0.7-1.2-0.9-1.9c-0.2-0.7-0.3-1.5-0.3-2.3c0-0.8,0.1-1.5,0.3-2.2
		c0.2-0.7,0.5-1.3,1-1.9c0.4-0.5,1-1,1.6-1.3c0.6-0.3,1.4-0.5,2.2-0.5c0.8,0,1.5,0.1,2.1,0.4c0.6,0.3,1.1,0.8,1.5,1.5h0v-1.6h3.1
		v11.1C245.8,33,245.7,33.6,245.6,34.2z M241.1,30.2c0.4-0.2,0.6-0.4,0.9-0.7s0.4-0.7,0.5-1c0.1-0.4,0.2-0.8,0.2-1.2
		c0-0.5,0-1-0.1-1.4c-0.1-0.4-0.2-0.8-0.5-1.2c-0.2-0.3-0.5-0.6-0.9-0.8c-0.4-0.2-0.8-0.3-1.3-0.3c-0.5,0-0.9,0.1-1.2,0.3
		c-0.3,0.2-0.6,0.4-0.8,0.7c-0.2,0.3-0.4,0.7-0.5,1.1c-0.1,0.4-0.1,0.8-0.1,1.3c0,0.4,0,0.9,0.1,1.3c0.1,0.4,0.2,0.8,0.4,1.1
		c0.2,0.3,0.5,0.6,0.8,0.8c0.3,0.2,0.8,0.3,1.3,0.3C240.4,30.5,240.8,30.4,241.1,30.2z"/>
	<path class="st0" d="M251.5,16.9v6.2h0.1c0.4-0.7,0.9-1.2,1.6-1.5c0.6-0.3,1.3-0.5,1.9-0.5c0.9,0,1.6,0.1,2.2,0.4
		c0.6,0.2,1,0.6,1.3,1c0.3,0.4,0.5,0.9,0.7,1.5c0.1,0.6,0.2,1.3,0.2,2v7.3h-3.3v-6.7c0-1-0.2-1.7-0.5-2.2s-0.9-0.7-1.6-0.7
		c-0.9,0-1.5,0.3-1.9,0.8c-0.4,0.5-0.6,1.4-0.6,2.6v6.2h-3.3V16.9H251.5z"/>
	<path class="st0" d="M268.5,25.6v2.8h-6.9v-2.8H268.5z"/>
	<path class="st0" d="M279.1,37.5v-5.7h0c-0.4,0.6-0.9,1.1-1.6,1.4c-0.7,0.3-1.4,0.4-2.1,0.4c-0.6,0-1.1-0.1-1.7-0.3
		c-0.6-0.2-1.1-0.6-1.6-1s-0.9-1.1-1.2-1.9c-0.3-0.8-0.5-1.8-0.5-2.9c0-0.8,0.1-1.6,0.3-2.4c0.2-0.8,0.5-1.4,1-2
		c0.4-0.6,1-1.1,1.7-1.4c0.7-0.4,1.5-0.5,2.4-0.5c0.7,0,1.4,0.1,2.1,0.4c0.7,0.3,1.2,0.8,1.5,1.4h0v-1.5h3.1v16.1H279.1z
		 M273.7,28.8c0.1,0.5,0.2,0.9,0.5,1.2c0.2,0.4,0.5,0.6,0.9,0.9s0.8,0.3,1.3,0.3c0.5,0,1-0.1,1.3-0.3s0.7-0.5,0.9-0.8
		c0.2-0.3,0.4-0.7,0.5-1.2c0.1-0.5,0.1-0.9,0.1-1.4c0-0.5-0.1-0.9-0.1-1.4c-0.1-0.5-0.3-0.9-0.5-1.2c-0.2-0.4-0.5-0.7-0.9-0.9
		c-0.4-0.2-0.8-0.3-1.3-0.3c-0.5,0-1,0.1-1.4,0.3c-0.4,0.2-0.7,0.5-0.9,0.9s-0.4,0.8-0.5,1.2c-0.1,0.5-0.1,0.9-0.1,1.4
		C273.5,27.9,273.6,28.3,273.7,28.8z"/>
	<path class="st0" d="M292.7,33.3v-1.7h-0.1c-0.4,0.7-1,1.2-1.6,1.5s-1.3,0.5-2,0.5c-0.9,0-1.6-0.1-2.2-0.3c-0.6-0.2-1-0.6-1.3-1
		c-0.3-0.4-0.5-0.9-0.7-1.5c-0.1-0.6-0.2-1.3-0.2-2v-7.3h3.3v6.7c0,1,0.2,1.7,0.5,2.2s0.9,0.7,1.6,0.7c0.9,0,1.5-0.3,1.9-0.8
		c0.4-0.5,0.6-1.4,0.6-2.6v-6.2h3.3v11.9H292.7z"/>
	<path class="st0" d="M297.9,25.1c0-0.8,0.2-1.4,0.6-1.9c0.3-0.5,0.8-0.9,1.3-1.2s1.1-0.5,1.8-0.7c0.7-0.1,1.3-0.2,2-0.2
		c0.6,0,1.2,0,1.8,0.1c0.6,0.1,1.2,0.2,1.7,0.5s0.9,0.6,1.2,1c0.3,0.4,0.5,1,0.5,1.7v6.2c0,0.5,0,1.1,0.1,1.5
		c0.1,0.5,0.2,0.9,0.3,1.1h-3.3c-0.1-0.2-0.1-0.4-0.1-0.6c0-0.2-0.1-0.4-0.1-0.6c-0.5,0.5-1.1,0.9-1.8,1.1s-1.4,0.3-2.2,0.3
		c-0.6,0-1.1-0.1-1.6-0.2c-0.5-0.1-0.9-0.4-1.3-0.6c-0.4-0.3-0.7-0.7-0.9-1.1s-0.3-1-0.3-1.6c0-0.7,0.1-1.2,0.4-1.7s0.5-0.8,0.9-1
		c0.4-0.3,0.8-0.5,1.3-0.6c0.5-0.1,1-0.2,1.5-0.3c0.5-0.1,1-0.1,1.4-0.2c0.5,0,0.9-0.1,1.3-0.2c0.4-0.1,0.7-0.2,0.9-0.4
		c0.2-0.2,0.3-0.4,0.3-0.8c0-0.4-0.1-0.6-0.2-0.8c-0.1-0.2-0.3-0.4-0.5-0.5c-0.2-0.1-0.4-0.2-0.7-0.2c-0.3,0-0.5-0.1-0.8-0.1
		c-0.6,0-1.2,0.1-1.5,0.4c-0.4,0.3-0.6,0.7-0.6,1.4H297.9z M305.4,27.5c-0.1,0.1-0.3,0.2-0.5,0.3c-0.2,0.1-0.4,0.1-0.7,0.2
		s-0.5,0.1-0.7,0.1c-0.3,0-0.5,0.1-0.8,0.1c-0.2,0-0.5,0.1-0.7,0.2s-0.4,0.2-0.6,0.3s-0.3,0.3-0.4,0.5c-0.1,0.2-0.2,0.5-0.2,0.8
		c0,0.3,0.1,0.5,0.2,0.7c0.1,0.2,0.3,0.4,0.4,0.5c0.2,0.1,0.4,0.2,0.6,0.2c0.2,0,0.5,0.1,0.8,0.1c0.6,0,1.1-0.1,1.5-0.3
		c0.4-0.2,0.6-0.5,0.8-0.8c0.2-0.3,0.3-0.6,0.3-0.9s0.1-0.6,0.1-0.7V27.5z"/>
	<path class="st0" d="M314.4,16.9v16.4h-3.3V16.9H314.4z"/>
	<path class="st0" d="M316.8,19.6v-2.7h3.3v2.7H316.8z M320.1,21.4v11.9h-3.3V21.4H320.1z"/>
	<path class="st0" d="M329,21.4v2.2h-2.4v5.9c0,0.6,0.1,0.9,0.3,1.1c0.2,0.2,0.6,0.3,1.1,0.3c0.2,0,0.4,0,0.5,0c0.2,0,0.3,0,0.5-0.1
		v2.5c-0.3,0-0.6,0.1-0.9,0.1c-0.3,0-0.7,0-1,0c-0.5,0-1,0-1.4-0.1c-0.5-0.1-0.9-0.2-1.2-0.4c-0.3-0.2-0.6-0.5-0.8-0.9
		c-0.2-0.4-0.3-0.9-0.3-1.4v-7h-2v-2.2h2v-3.6h3.3v3.6H329z"/>
	<path class="st0" d="M334.7,36.9c-0.6,0.4-1.5,0.6-2.6,0.6c-0.3,0-0.7,0-1,0c-0.3,0-0.7,0-1-0.1v-2.7c0.3,0,0.6,0.1,0.9,0.1
		c0.3,0,0.6,0,1,0c0.4,0,0.7-0.2,1-0.5s0.3-0.6,0.3-1c0-0.3,0-0.5-0.1-0.7L329,21.4h3.5l2.7,8.1h0l2.6-8.1h3.4l-5,13.4
		C335.8,35.8,335.4,36.4,334.7,36.9z"/>
	<path class="st0" d="M353.9,23.6c-0.5,0-1,0.1-1.3,0.4c-0.4,0.2-0.6,0.5-0.9,0.9c-0.2,0.4-0.4,0.8-0.5,1.2
		c-0.1,0.5-0.1,0.9-0.1,1.3c0,0.4,0,0.9,0.1,1.3c0.1,0.4,0.2,0.8,0.4,1.2c0.2,0.4,0.5,0.7,0.8,0.9c0.4,0.2,0.8,0.3,1.3,0.3
		c0.8,0,1.4-0.2,1.8-0.7c0.4-0.4,0.7-1,0.8-1.8h3.2c-0.2,1.6-0.8,2.8-1.8,3.6c-1,0.8-2.3,1.2-3.9,1.2c-0.9,0-1.7-0.1-2.4-0.4
		c-0.7-0.3-1.4-0.7-1.9-1.3c-0.5-0.5-0.9-1.2-1.2-1.9c-0.3-0.7-0.4-1.6-0.4-2.4c0-0.9,0.1-1.8,0.4-2.6c0.3-0.8,0.7-1.5,1.2-2
		c0.5-0.6,1.2-1,1.9-1.3c0.8-0.3,1.6-0.5,2.6-0.5c0.7,0,1.4,0.1,2,0.3c0.7,0.2,1.2,0.5,1.7,0.8c0.5,0.4,0.9,0.8,1.3,1.4
		c0.3,0.6,0.5,1.2,0.6,2h-3.2C356.1,24.2,355.3,23.6,353.9,23.6z"/>
	<path class="st0" d="M361.3,24.8c0.3-0.8,0.7-1.4,1.2-2c0.5-0.5,1.2-1,1.9-1.3c0.8-0.3,1.6-0.4,2.5-0.4s1.8,0.1,2.5,0.4
		c0.8,0.3,1.4,0.7,1.9,1.3c0.5,0.5,0.9,1.2,1.2,2c0.3,0.8,0.4,1.6,0.4,2.6c0,1-0.1,1.8-0.4,2.6c-0.3,0.8-0.7,1.4-1.2,2
		c-0.5,0.5-1.2,1-1.9,1.3c-0.8,0.3-1.6,0.4-2.5,0.4s-1.8-0.1-2.5-0.4c-0.8-0.3-1.4-0.7-1.9-1.3c-0.5-0.5-1-1.2-1.2-2
		c-0.3-0.8-0.4-1.6-0.4-2.6C360.9,26.4,361,25.6,361.3,24.8z M364.3,28.8c0.1,0.5,0.2,0.9,0.5,1.2c0.2,0.4,0.5,0.6,0.9,0.9
		c0.4,0.2,0.8,0.3,1.4,0.3c0.6,0,1-0.1,1.4-0.3c0.4-0.2,0.7-0.5,0.9-0.9c0.2-0.4,0.4-0.8,0.5-1.2c0.1-0.5,0.1-0.9,0.1-1.4
		c0-0.5,0-0.9-0.1-1.4c-0.1-0.5-0.2-0.9-0.5-1.2c-0.2-0.4-0.5-0.6-0.9-0.9c-0.4-0.2-0.8-0.3-1.4-0.3c-0.6,0-1,0.1-1.4,0.3
		c-0.4,0.2-0.7,0.5-0.9,0.9c-0.2,0.4-0.4,0.8-0.5,1.2s-0.1,0.9-0.1,1.4C364.1,27.9,364.2,28.3,364.3,28.8z"/>
	<path class="st0" d="M378,33.3l-4.1-11.9h3.4l2.5,8.1h0l2.5-8.1h3.2l-4,11.9H378z"/>
	<path class="st0" d="M390.3,30.5c0.5,0.5,1.2,0.7,2.1,0.7c0.7,0,1.2-0.2,1.7-0.5s0.8-0.7,0.9-1h2.9c-0.5,1.4-1.2,2.4-2.1,3.1
		c-1,0.6-2.1,0.9-3.5,0.9c-0.9,0-1.8-0.1-2.5-0.4c-0.8-0.3-1.4-0.7-1.9-1.3c-0.5-0.6-0.9-1.2-1.2-2c-0.3-0.8-0.4-1.6-0.4-2.5
		c0-0.9,0.1-1.7,0.4-2.5c0.3-0.8,0.7-1.4,1.2-2c0.5-0.6,1.2-1,1.9-1.3c0.7-0.3,1.6-0.5,2.5-0.5c1,0,1.9,0.2,2.6,0.6s1.4,0.9,1.9,1.6
		c0.5,0.7,0.8,1.4,1,2.3c0.2,0.8,0.3,1.7,0.2,2.6h-8.6C389.5,29.2,389.8,30,390.3,30.5z M394,24.2c-0.4-0.4-1-0.6-1.8-0.6
		c-0.5,0-1,0.1-1.3,0.3s-0.6,0.4-0.8,0.7s-0.4,0.5-0.4,0.8c-0.1,0.3-0.1,0.6-0.1,0.8h5.3C394.6,25.3,394.4,24.6,394,24.2z"/>
	<path class="st0" d="M402.9,21.4v2.2h0c0.2-0.4,0.4-0.7,0.6-1c0.3-0.3,0.6-0.6,0.9-0.8c0.3-0.2,0.7-0.4,1.1-0.5
		c0.4-0.1,0.8-0.2,1.2-0.2c0.2,0,0.5,0,0.7,0.1v3c-0.2,0-0.3-0.1-0.6-0.1s-0.4,0-0.6,0c-0.6,0-1.1,0.1-1.5,0.3s-0.7,0.5-1,0.8
		c-0.3,0.3-0.4,0.7-0.5,1.2s-0.2,1-0.2,1.5v5.4h-3.3V21.4H402.9z"/>
	<path class="st0" d="M408.4,25.1c0-0.8,0.2-1.4,0.6-1.9s0.8-0.9,1.3-1.2s1.1-0.5,1.8-0.7c0.7-0.1,1.3-0.2,2-0.2
		c0.6,0,1.2,0,1.8,0.1c0.6,0.1,1.2,0.2,1.7,0.5c0.5,0.2,0.9,0.6,1.2,1c0.3,0.4,0.5,1,0.5,1.7v6.2c0,0.5,0,1.1,0.1,1.5
		s0.2,0.9,0.3,1.1h-3.3c-0.1-0.2-0.1-0.4-0.1-0.6c0-0.2-0.1-0.4-0.1-0.6c-0.5,0.5-1.1,0.9-1.8,1.1c-0.7,0.2-1.4,0.3-2.2,0.3
		c-0.6,0-1.1-0.1-1.6-0.2c-0.5-0.1-0.9-0.4-1.3-0.6c-0.4-0.3-0.7-0.7-0.9-1.1s-0.3-1-0.3-1.6c0-0.7,0.1-1.2,0.4-1.7
		c0.2-0.4,0.5-0.8,0.9-1c0.4-0.3,0.8-0.5,1.3-0.6c0.5-0.1,1-0.2,1.5-0.3c0.5-0.1,1-0.1,1.4-0.2s0.9-0.1,1.3-0.2
		c0.4-0.1,0.7-0.2,0.9-0.4s0.3-0.4,0.3-0.8c0-0.4-0.1-0.6-0.2-0.8s-0.3-0.4-0.5-0.5c-0.2-0.1-0.4-0.2-0.7-0.2
		c-0.3,0-0.5-0.1-0.8-0.1c-0.6,0-1.2,0.1-1.5,0.4c-0.4,0.3-0.6,0.7-0.6,1.4H408.4z M415.9,27.5c-0.1,0.1-0.3,0.2-0.5,0.3
		c-0.2,0.1-0.4,0.1-0.7,0.2c-0.2,0-0.5,0.1-0.7,0.1c-0.3,0-0.5,0.1-0.8,0.1c-0.2,0-0.5,0.1-0.7,0.2c-0.2,0.1-0.4,0.2-0.6,0.3
		c-0.2,0.1-0.3,0.3-0.4,0.5c-0.1,0.2-0.2,0.5-0.2,0.8c0,0.3,0.1,0.5,0.2,0.7c0.1,0.2,0.3,0.4,0.4,0.5c0.2,0.1,0.4,0.2,0.6,0.2
		s0.5,0.1,0.8,0.1c0.6,0,1.1-0.1,1.5-0.3c0.4-0.2,0.6-0.5,0.8-0.8c0.2-0.3,0.3-0.6,0.3-0.9c0-0.3,0.1-0.6,0.1-0.7V27.5z"/>
	<path class="st0" d="M432.8,34.2c-0.1,0.6-0.4,1.2-0.8,1.7c-0.4,0.5-1,1-1.9,1.3c-0.8,0.4-1.9,0.6-3.3,0.6c-0.6,0-1.2-0.1-1.8-0.2
		c-0.6-0.1-1.2-0.4-1.7-0.7s-0.9-0.7-1.2-1.2c-0.3-0.5-0.5-1.1-0.6-1.7h3.2c0.2,0.6,0.5,1,0.9,1.3c0.4,0.2,1,0.4,1.5,0.4
		c0.9,0,1.6-0.3,2-0.8c0.4-0.6,0.6-1.2,0.6-2.1v-1.6h0c-0.4,0.6-0.9,1.1-1.5,1.4c-0.7,0.3-1.3,0.4-2.1,0.4c-0.9,0-1.7-0.2-2.3-0.5
		c-0.6-0.3-1.2-0.7-1.6-1.3c-0.4-0.5-0.7-1.2-0.9-1.9c-0.2-0.7-0.3-1.5-0.3-2.3c0-0.8,0.1-1.5,0.3-2.2c0.2-0.7,0.5-1.3,1-1.9
		c0.4-0.5,1-1,1.6-1.3c0.6-0.3,1.4-0.5,2.2-0.5c0.8,0,1.5,0.1,2.1,0.4c0.6,0.3,1.1,0.8,1.5,1.5h0v-1.6h3.1v11.1
		C433,33,432.9,33.6,432.8,34.2z M428.3,30.2c0.4-0.2,0.6-0.4,0.9-0.7c0.2-0.3,0.4-0.7,0.5-1c0.1-0.4,0.2-0.8,0.2-1.2
		c0-0.5,0-1-0.1-1.4c-0.1-0.4-0.2-0.8-0.5-1.2c-0.2-0.3-0.5-0.6-0.9-0.8c-0.4-0.2-0.8-0.3-1.3-0.3c-0.5,0-0.9,0.1-1.2,0.3
		c-0.3,0.2-0.6,0.4-0.8,0.7c-0.2,0.3-0.4,0.7-0.5,1.1s-0.1,0.8-0.1,1.3c0,0.4,0,0.9,0.1,1.3c0.1,0.4,0.2,0.8,0.4,1.1
		c0.2,0.3,0.5,0.6,0.8,0.8c0.3,0.2,0.8,0.3,1.3,0.3C427.5,30.5,427.9,30.4,428.3,30.2z"/>
	<path class="st0" d="M438.8,30.5c0.5,0.5,1.2,0.7,2.1,0.7c0.7,0,1.2-0.2,1.7-0.5s0.8-0.7,0.9-1h2.9c-0.5,1.4-1.2,2.4-2.1,3.1
		c-1,0.6-2.1,0.9-3.5,0.9c-0.9,0-1.8-0.1-2.5-0.4c-0.8-0.3-1.4-0.7-1.9-1.3c-0.5-0.6-0.9-1.2-1.2-2c-0.3-0.8-0.4-1.6-0.4-2.5
		c0-0.9,0.1-1.7,0.4-2.5c0.3-0.8,0.7-1.4,1.2-2c0.5-0.6,1.2-1,1.9-1.3c0.7-0.3,1.6-0.5,2.5-0.5c1,0,1.9,0.2,2.6,0.6s1.4,0.9,1.9,1.6
		c0.5,0.7,0.8,1.4,1,2.3c0.2,0.8,0.3,1.7,0.2,2.6H438C438.1,29.2,438.4,30,438.8,30.5z M442.5,24.2c-0.4-0.4-1-0.6-1.8-0.6
		c-0.5,0-1,0.1-1.3,0.3s-0.6,0.4-0.8,0.7s-0.4,0.5-0.4,0.8c-0.1,0.3-0.1,0.6-0.1,0.8h5.3C443.2,25.3,442.9,24.6,442.5,24.2z"/>
	<path class="st0" d="M454.4,25.1c0-0.8,0.2-1.4,0.6-1.9s0.8-0.9,1.3-1.2s1.1-0.5,1.8-0.7c0.7-0.1,1.3-0.2,2-0.2
		c0.6,0,1.2,0,1.8,0.1c0.6,0.1,1.2,0.2,1.7,0.5c0.5,0.2,0.9,0.6,1.2,1c0.3,0.4,0.5,1,0.5,1.7v6.2c0,0.5,0,1.1,0.1,1.5
		s0.2,0.9,0.3,1.1h-3.3c-0.1-0.2-0.1-0.4-0.1-0.6c0-0.2-0.1-0.4-0.1-0.6c-0.5,0.5-1.1,0.9-1.8,1.1c-0.7,0.2-1.4,0.3-2.2,0.3
		c-0.6,0-1.1-0.1-1.6-0.2c-0.5-0.1-0.9-0.4-1.3-0.6c-0.4-0.3-0.7-0.7-0.9-1.1s-0.3-1-0.3-1.6c0-0.7,0.1-1.2,0.4-1.7
		c0.2-0.4,0.5-0.8,0.9-1c0.4-0.3,0.8-0.5,1.3-0.6c0.5-0.1,1-0.2,1.5-0.3c0.5-0.1,1-0.1,1.4-0.2s0.9-0.1,1.3-0.2
		c0.4-0.1,0.7-0.2,0.9-0.4s0.3-0.4,0.3-0.8c0-0.4-0.1-0.6-0.2-0.8s-0.3-0.4-0.5-0.5c-0.2-0.1-0.4-0.2-0.7-0.2
		c-0.3,0-0.5-0.1-0.8-0.1c-0.6,0-1.2,0.1-1.5,0.4c-0.4,0.3-0.6,0.7-0.6,1.4H454.4z M461.9,27.5c-0.1,0.1-0.3,0.2-0.5,0.3
		c-0.2,0.1-0.4,0.1-0.7,0.2c-0.2,0-0.5,0.1-0.7,0.1c-0.3,0-0.5,0.1-0.8,0.1c-0.2,0-0.5,0.1-0.7,0.2c-0.2,0.1-0.4,0.2-0.6,0.3
		c-0.2,0.1-0.3,0.3-0.4,0.5c-0.1,0.2-0.2,0.5-0.2,0.8c0,0.3,0.1,0.5,0.2,0.7c0.1,0.2,0.3,0.4,0.4,0.5c0.2,0.1,0.4,0.2,0.6,0.2
		s0.5,0.1,0.8,0.1c0.6,0,1.1-0.1,1.5-0.3c0.4-0.2,0.6-0.5,0.8-0.8c0.2-0.3,0.3-0.6,0.3-0.9c0-0.3,0.1-0.6,0.1-0.7V27.5z"/>
	<path class="st0" d="M474,21.4v2.2h-2.4v5.9c0,0.6,0.1,0.9,0.3,1.1c0.2,0.2,0.6,0.3,1.1,0.3c0.2,0,0.4,0,0.5,0c0.2,0,0.3,0,0.5-0.1
		v2.5c-0.3,0-0.6,0.1-0.9,0.1c-0.3,0-0.7,0-1,0c-0.5,0-1,0-1.4-0.1c-0.5-0.1-0.9-0.2-1.2-0.4c-0.3-0.2-0.6-0.5-0.8-0.9
		c-0.2-0.4-0.3-0.9-0.3-1.4v-7h-2v-2.2h2v-3.6h3.3v3.6H474z"/>
</g>
<path class="st0" d="M30.2,47.4v2.2h-2.4v5.9c0,0.6,0.1,0.9,0.3,1.1c0.2,0.2,0.6,0.3,1.1,0.3c0.2,0,0.4,0,0.5,0c0.2,0,0.3,0,0.5-0.1
	v2.5c-0.3,0-0.6,0.1-0.9,0.1c-0.3,0-0.7,0-1,0c-0.5,0-1,0-1.4-0.1c-0.5-0.1-0.9-0.2-1.2-0.4c-0.3-0.2-0.6-0.5-0.8-0.9
	c-0.2-0.4-0.3-0.9-0.3-1.4v-7h-2v-2.2h2v-3.6h3.3v3.6H30.2z M34.8,42.9v6.2h0.1c0.4-0.7,0.9-1.2,1.6-1.5c0.6-0.3,1.3-0.5,1.9-0.5
	c0.9,0,1.6,0.1,2.2,0.4c0.6,0.2,1,0.6,1.3,1c0.3,0.4,0.5,0.9,0.7,1.5c0.1,0.6,0.2,1.3,0.2,2v7.3h-3.3v-6.7c0-1-0.2-1.7-0.5-2.2
	c-0.3-0.5-0.9-0.7-1.6-0.7c-0.9,0-1.5,0.3-1.9,0.8c-0.4,0.5-0.6,1.4-0.6,2.6v6.2h-3.3V42.9H34.8z M48.4,56.5
	c0.5,0.5,1.2,0.7,2.1,0.7c0.7,0,1.2-0.2,1.7-0.5c0.5-0.3,0.8-0.7,0.9-1H56c-0.5,1.4-1.2,2.4-2.1,3.1c-1,0.6-2.1,0.9-3.5,0.9
	c-0.9,0-1.8-0.1-2.5-0.4c-0.8-0.3-1.4-0.7-1.9-1.3c-0.5-0.6-0.9-1.2-1.2-2c-0.3-0.8-0.4-1.6-0.4-2.5c0-0.9,0.1-1.7,0.4-2.5
	c0.3-0.8,0.7-1.4,1.2-2c0.5-0.6,1.2-1,1.9-1.3c0.7-0.3,1.6-0.5,2.5-0.5c1,0,1.9,0.2,2.6,0.6c0.8,0.4,1.4,0.9,1.9,1.6
	c0.5,0.7,0.8,1.4,1,2.3c0.2,0.8,0.3,1.7,0.2,2.6h-8.6C47.7,55.2,47.9,56,48.4,56.5z M52.1,50.2c-0.4-0.4-1-0.6-1.8-0.6
	c-0.5,0-1,0.1-1.3,0.3c-0.3,0.2-0.6,0.4-0.8,0.7c-0.2,0.3-0.4,0.5-0.4,0.8c-0.1,0.3-0.1,0.6-0.1,0.8h5.3
	C52.8,51.3,52.5,50.6,52.1,50.2z M66.8,56.3c0.1,0.3,0.3,0.5,0.6,0.6c0.2,0.2,0.5,0.3,0.8,0.4c0.3,0.1,0.6,0.1,0.9,0.1
	c0.2,0,0.5,0,0.7-0.1c0.3-0.1,0.5-0.1,0.7-0.3c0.2-0.1,0.4-0.3,0.5-0.5c0.1-0.2,0.2-0.4,0.2-0.7c0-0.5-0.3-0.9-1-1.1
	c-0.7-0.2-1.6-0.5-2.7-0.7c-0.5-0.1-0.9-0.2-1.4-0.4c-0.5-0.1-0.9-0.3-1.2-0.6c-0.4-0.2-0.6-0.5-0.9-0.9c-0.2-0.4-0.3-0.8-0.3-1.3
	c0-0.8,0.1-1.4,0.4-1.9c0.3-0.5,0.7-0.9,1.2-1.2c0.5-0.3,1-0.5,1.7-0.6c0.6-0.1,1.2-0.2,1.9-0.2c0.6,0,1.3,0.1,1.9,0.2
	c0.6,0.1,1.1,0.3,1.6,0.6c0.5,0.3,0.9,0.7,1.2,1.2c0.3,0.5,0.5,1.1,0.6,1.8h-3.1c0-0.6-0.3-1.1-0.7-1.3c-0.4-0.2-0.9-0.3-1.5-0.3
	c-0.2,0-0.4,0-0.6,0c-0.2,0-0.4,0.1-0.6,0.1c-0.2,0.1-0.3,0.2-0.4,0.3c-0.1,0.1-0.2,0.3-0.2,0.6c0,0.3,0.1,0.5,0.3,0.7
	c0.2,0.2,0.5,0.3,0.8,0.4c0.3,0.1,0.7,0.2,1.2,0.3c0.4,0.1,0.9,0.2,1.4,0.3c0.5,0.1,0.9,0.2,1.4,0.4c0.5,0.2,0.9,0.4,1.2,0.6
	c0.4,0.3,0.6,0.6,0.9,0.9c0.2,0.4,0.3,0.8,0.3,1.4c0,0.8-0.2,1.4-0.5,2c-0.3,0.5-0.7,1-1.2,1.3c-0.5,0.3-1.1,0.5-1.7,0.7
	c-0.7,0.1-1.3,0.2-2,0.2c-0.7,0-1.4-0.1-2-0.2c-0.7-0.1-1.2-0.4-1.8-0.7c-0.5-0.3-0.9-0.7-1.3-1.3c-0.3-0.5-0.5-1.2-0.5-2h3.1
	C66.6,55.8,66.7,56.1,66.8,56.3z M82.7,47.4v2.2h-2.4v5.9c0,0.6,0.1,0.9,0.3,1.1c0.2,0.2,0.6,0.3,1.1,0.3c0.2,0,0.4,0,0.5,0
	c0.2,0,0.3,0,0.5-0.1v2.5c-0.3,0-0.6,0.1-0.9,0.1c-0.3,0-0.7,0-1,0c-0.5,0-1,0-1.4-0.1c-0.5-0.1-0.9-0.2-1.2-0.4
	c-0.3-0.2-0.6-0.5-0.8-0.9c-0.2-0.4-0.3-0.9-0.3-1.4v-7h-2v-2.2h2v-3.6h3.3v3.6H82.7z M87.2,51.1c0.1-0.6,0.3-1.1,0.6-1.4
	c0.4-0.3,0.9-0.4,1.5-0.4c0.3,0,0.6,0,0.8,0.1c0.3,0,0.5,0.1,0.7,0.2c0.2,0.1,0.3,0.3,0.5,0.5s0.2,0.5,0.2,0.8
	c0,0.3-0.1,0.6-0.3,0.8c-0.2,0.2-0.5,0.3-0.9,0.4c-0.4,0.1-0.8,0.2-1.3,0.2c-0.5,0-1,0.1-1.4,0.2c-0.5,0.1-1,0.2-1.5,0.3
	c-0.5,0.1-0.9,0.3-1.3,0.6c-0.4,0.3-0.7,0.6-0.9,1c-0.2,0.4-0.4,1-0.4,1.7c0,0.6,0.1,1.1,0.3,1.6c0.2,0.4,0.5,0.8,0.9,1.1
	c0.4,0.3,0.8,0.5,1.3,0.6c0.5,0.1,1,0.2,1.6,0.2c0.7,0,1.5-0.1,2.2-0.3c0.7-0.2,1.3-0.6,1.8-1.1c0,0.2,0,0.4,0.1,0.6
	c0,0.2,0.1,0.4,0.1,0.6h3.3c-0.2-0.2-0.3-0.6-0.3-1.1c-0.1-0.5-0.1-1-0.1-1.5v-6.2c0-0.7-0.2-1.3-0.5-1.7s-0.7-0.8-1.2-1
	c-0.5-0.2-1.1-0.4-1.7-0.5c-0.6-0.1-1.2-0.1-1.8-0.1c-0.7,0-1.3,0.1-2,0.2c-0.7,0.1-1.2,0.3-1.8,0.7c-0.5,0.3-1,0.7-1.3,1.2
	c-0.3,0.5-0.5,1.1-0.6,1.9H87.2z M91.5,54.7c0,0.2,0,0.4-0.1,0.7c0,0.3-0.1,0.6-0.3,0.9c-0.2,0.3-0.4,0.6-0.8,0.8
	c-0.4,0.2-0.9,0.3-1.5,0.3c-0.3,0-0.5,0-0.8-0.1c-0.2,0-0.5-0.1-0.6-0.2s-0.3-0.3-0.4-0.5c-0.1-0.2-0.2-0.4-0.2-0.7
	c0-0.3,0.1-0.6,0.2-0.8c0.1-0.2,0.2-0.4,0.4-0.5c0.2-0.1,0.4-0.2,0.6-0.3c0.2-0.1,0.5-0.1,0.7-0.2c0.3,0,0.5-0.1,0.8-0.1
	c0.3,0,0.5-0.1,0.7-0.1c0.2,0,0.5-0.1,0.7-0.2s0.4-0.2,0.5-0.3V54.7z M100.1,47.4v2.2h0c0.2-0.4,0.4-0.7,0.6-1
	c0.3-0.3,0.6-0.6,0.9-0.8c0.3-0.2,0.7-0.4,1.1-0.5c0.4-0.1,0.8-0.2,1.2-0.2c0.2,0,0.5,0,0.7,0.1v3c-0.2,0-0.3-0.1-0.6-0.1
	c-0.2,0-0.4,0-0.6,0c-0.6,0-1.1,0.1-1.5,0.3c-0.4,0.2-0.7,0.5-1,0.8c-0.3,0.3-0.4,0.7-0.5,1.2c-0.1,0.5-0.2,1-0.2,1.5v5.4H97V47.4
	H100.1z M112.3,47.4v2.2h-2.4v5.9c0,0.6,0.1,0.9,0.3,1.1c0.2,0.2,0.6,0.3,1.1,0.3c0.2,0,0.4,0,0.5,0c0.2,0,0.3,0,0.5-0.1v2.5
	c-0.3,0-0.6,0.1-0.9,0.1c-0.3,0-0.7,0-1,0c-0.5,0-1,0-1.4-0.1c-0.5-0.1-0.9-0.2-1.2-0.4c-0.3-0.2-0.6-0.5-0.8-0.9
	c-0.2-0.4-0.3-0.9-0.3-1.4v-7h-2v-2.2h2v-3.6h3.3v3.6H112.3z M119.8,50.8c0.3-0.8,0.7-1.4,1.2-2c0.5-0.5,1.2-1,1.9-1.3
	c0.8-0.3,1.6-0.4,2.5-0.4c0.9,0,1.8,0.1,2.5,0.4s1.4,0.7,1.9,1.3c0.5,0.5,1,1.2,1.2,2c0.3,0.8,0.4,1.6,0.4,2.6c0,1-0.1,1.8-0.4,2.6
	c-0.3,0.8-0.7,1.4-1.2,2c-0.5,0.5-1.2,1-1.9,1.3s-1.6,0.4-2.5,0.4c-0.9,0-1.8-0.1-2.5-0.4c-0.8-0.3-1.4-0.7-1.9-1.3
	c-0.5-0.5-1-1.2-1.2-2c-0.3-0.8-0.4-1.6-0.4-2.6C119.4,52.4,119.6,51.6,119.8,50.8z M122.8,54.8c0.1,0.5,0.2,0.9,0.5,1.2
	c0.2,0.4,0.5,0.6,0.9,0.9c0.4,0.2,0.8,0.3,1.4,0.3s1-0.1,1.4-0.3c0.4-0.2,0.7-0.5,0.9-0.9c0.2-0.4,0.4-0.8,0.5-1.2
	c0.1-0.5,0.1-0.9,0.1-1.4c0-0.5,0-0.9-0.1-1.4c-0.1-0.5-0.2-0.9-0.5-1.2c-0.2-0.4-0.5-0.6-0.9-0.9c-0.4-0.2-0.8-0.3-1.4-0.3
	s-1,0.1-1.4,0.3c-0.4,0.2-0.7,0.5-0.9,0.9c-0.2,0.4-0.4,0.8-0.5,1.2c-0.1,0.5-0.1,0.9-0.1,1.4C122.7,53.8,122.7,54.3,122.8,54.8z
	 M132.4,49.6v-2.2h2v-0.9c0-1.1,0.3-1.9,1-2.6c0.7-0.7,1.7-1,3-1c0.3,0,0.6,0,0.9,0c0.3,0,0.6,0,0.9,0.1v2.4c-0.4,0-0.8-0.1-1.2-0.1
	c-0.4,0-0.8,0.1-1,0.3c-0.2,0.2-0.3,0.6-0.3,1v0.7h2.3v2.2h-2.3v9.7h-3.3v-9.7H132.4z M151.6,62.8c-0.6,0.4-1.5,0.6-2.6,0.6
	c-0.3,0-0.7,0-1,0c-0.3,0-0.7,0-1-0.1v-2.7c0.3,0,0.6,0.1,0.9,0.1c0.3,0,0.6,0,1,0c0.4,0,0.7-0.2,1-0.5c0.2-0.3,0.3-0.6,0.3-1
	c0-0.3,0-0.5-0.1-0.7l-4.2-11.2h3.5l2.7,8.1h0l2.6-8.1h3.4l-5,13.4C152.7,61.7,152.2,62.4,151.6,62.8z M159,50.8
	c0.3-0.8,0.7-1.4,1.2-2c0.5-0.5,1.2-1,1.9-1.3c0.8-0.3,1.6-0.4,2.5-0.4c0.9,0,1.8,0.1,2.5,0.4s1.4,0.7,1.9,1.3c0.5,0.5,1,1.2,1.2,2
	c0.3,0.8,0.4,1.6,0.4,2.6c0,1-0.1,1.8-0.4,2.6c-0.3,0.8-0.7,1.4-1.2,2c-0.5,0.5-1.2,1-1.9,1.3s-1.6,0.4-2.5,0.4
	c-0.9,0-1.8-0.1-2.5-0.4c-0.8-0.3-1.4-0.7-1.9-1.3c-0.5-0.5-1-1.2-1.2-2c-0.3-0.8-0.4-1.6-0.4-2.6C158.5,52.4,158.7,51.6,159,50.8z
	 M161.9,54.8c0.1,0.5,0.2,0.9,0.5,1.2c0.2,0.4,0.5,0.6,0.9,0.9c0.4,0.2,0.8,0.3,1.4,0.3s1-0.1,1.4-0.3c0.4-0.2,0.7-0.5,0.9-0.9
	c0.2-0.4,0.4-0.8,0.5-1.2c0.1-0.5,0.1-0.9,0.1-1.4c0-0.5,0-0.9-0.1-1.4c-0.1-0.5-0.2-0.9-0.5-1.2c-0.2-0.4-0.5-0.6-0.9-0.9
	c-0.4-0.2-0.8-0.3-1.4-0.3s-1,0.1-1.4,0.3c-0.4,0.2-0.7,0.5-0.9,0.9c-0.2,0.4-0.4,0.8-0.5,1.2c-0.1,0.5-0.1,0.9-0.1,1.4
	C161.8,53.8,161.8,54.3,161.9,54.8z M180.8,59.3v-1.7h-0.1c-0.4,0.7-1,1.2-1.6,1.5c-0.7,0.3-1.3,0.5-2,0.5c-0.9,0-1.6-0.1-2.2-0.3
	c-0.6-0.2-1-0.6-1.3-1c-0.3-0.4-0.5-0.9-0.7-1.5c-0.1-0.6-0.2-1.3-0.2-2v-7.3h3.3v6.7c0,1,0.2,1.7,0.5,2.2c0.3,0.5,0.9,0.7,1.6,0.7
	c0.9,0,1.5-0.3,1.9-0.8c0.4-0.5,0.6-1.4,0.6-2.6v-6.2h3.3v11.9H180.8z M189.2,47.4v2.2h0c0.2-0.4,0.4-0.7,0.6-1
	c0.3-0.3,0.6-0.6,0.9-0.8c0.3-0.2,0.7-0.4,1.1-0.5c0.4-0.1,0.8-0.2,1.2-0.2c0.2,0,0.5,0,0.7,0.1v3c-0.2,0-0.3-0.1-0.6-0.1
	c-0.2,0-0.4,0-0.6,0c-0.6,0-1.1,0.1-1.5,0.3c-0.4,0.2-0.7,0.5-1,0.8c-0.3,0.3-0.4,0.7-0.5,1.2c-0.1,0.5-0.2,1-0.2,1.5v5.4h-3.3V47.4
	H189.2z M206.7,49.6c-0.5,0-1,0.1-1.3,0.4c-0.4,0.2-0.6,0.5-0.9,0.9c-0.2,0.4-0.4,0.8-0.5,1.2c-0.1,0.5-0.1,0.9-0.1,1.3
	c0,0.4,0,0.9,0.1,1.3c0.1,0.4,0.2,0.8,0.4,1.2c0.2,0.4,0.5,0.7,0.8,0.9c0.4,0.2,0.8,0.3,1.3,0.3c0.8,0,1.4-0.2,1.8-0.7
	c0.4-0.4,0.7-1,0.8-1.8h3.2c-0.2,1.6-0.8,2.8-1.8,3.6c-1,0.8-2.3,1.2-3.9,1.2c-0.9,0-1.7-0.1-2.4-0.4c-0.7-0.3-1.4-0.7-1.9-1.3
	c-0.5-0.5-0.9-1.2-1.2-1.9c-0.3-0.7-0.4-1.6-0.4-2.4c0-0.9,0.1-1.8,0.4-2.6c0.3-0.8,0.7-1.5,1.2-2c0.5-0.6,1.2-1,1.9-1.3
	c0.8-0.3,1.6-0.5,2.6-0.5c0.7,0,1.4,0.1,2,0.3c0.7,0.2,1.2,0.5,1.7,0.8c0.5,0.4,0.9,0.8,1.3,1.4c0.3,0.6,0.5,1.2,0.6,2h-3.2
	C208.9,50.2,208.1,49.6,206.7,49.6L206.7,49.6z M217.1,51.1c0.1-0.6,0.3-1.1,0.6-1.4c0.4-0.3,0.9-0.4,1.5-0.4c0.3,0,0.6,0,0.8,0.1
	c0.3,0,0.5,0.1,0.7,0.2c0.2,0.1,0.3,0.3,0.5,0.5c0.1,0.2,0.2,0.5,0.2,0.8c0,0.3-0.1,0.6-0.3,0.8c-0.2,0.2-0.5,0.3-0.9,0.4
	c-0.4,0.1-0.8,0.2-1.3,0.2c-0.5,0-1,0.1-1.4,0.2c-0.5,0.1-1,0.2-1.5,0.3c-0.5,0.1-0.9,0.3-1.3,0.6c-0.4,0.3-0.7,0.6-0.9,1
	c-0.2,0.4-0.4,1-0.4,1.7c0,0.6,0.1,1.1,0.3,1.6c0.2,0.4,0.5,0.8,0.9,1.1c0.4,0.3,0.8,0.5,1.3,0.6c0.5,0.1,1,0.2,1.6,0.2
	c0.7,0,1.5-0.1,2.2-0.3c0.7-0.2,1.3-0.6,1.8-1.1c0,0.2,0,0.4,0.1,0.6c0,0.2,0.1,0.4,0.1,0.6h3.3c-0.2-0.2-0.3-0.6-0.3-1.1
	c-0.1-0.5-0.1-1-0.1-1.5v-6.2c0-0.7-0.2-1.3-0.5-1.7s-0.7-0.8-1.2-1c-0.5-0.2-1.1-0.4-1.7-0.5c-0.6-0.1-1.2-0.1-1.8-0.1
	c-0.7,0-1.3,0.1-2,0.2c-0.7,0.1-1.2,0.3-1.8,0.7c-0.5,0.3-1,0.7-1.3,1.2c-0.3,0.5-0.5,1.1-0.6,1.9H217.1z M221.4,54.7
	c0,0.2,0,0.4-0.1,0.7c0,0.3-0.1,0.6-0.3,0.9c-0.2,0.3-0.4,0.6-0.8,0.8c-0.4,0.2-0.9,0.3-1.5,0.3c-0.3,0-0.5,0-0.8-0.1
	c-0.2,0-0.5-0.1-0.6-0.2c-0.2-0.1-0.3-0.3-0.4-0.5c-0.1-0.2-0.2-0.4-0.2-0.7c0-0.3,0.1-0.6,0.2-0.8c0.1-0.2,0.2-0.4,0.4-0.5
	c0.2-0.1,0.4-0.2,0.6-0.3c0.2-0.1,0.5-0.1,0.7-0.2c0.3,0,0.5-0.1,0.8-0.1c0.3,0,0.5-0.1,0.7-0.1c0.2,0,0.5-0.1,0.7-0.2
	s0.4-0.2,0.5-0.3V54.7z M230.1,47.4v2.2h0c0.2-0.4,0.4-0.7,0.6-1c0.3-0.3,0.6-0.6,0.9-0.8c0.3-0.2,0.7-0.4,1.1-0.5
	c0.4-0.1,0.8-0.2,1.2-0.2c0.2,0,0.5,0,0.7,0.1v3c-0.2,0-0.3-0.1-0.6-0.1c-0.2,0-0.4,0-0.6,0c-0.6,0-1.1,0.1-1.5,0.3
	c-0.4,0.2-0.7,0.5-1,0.8c-0.3,0.3-0.4,0.7-0.5,1.2c-0.1,0.5-0.2,1-0.2,1.5v5.4H227V47.4H230.1z M238.8,56.5c0.5,0.5,1.2,0.7,2.1,0.7
	c0.7,0,1.2-0.2,1.7-0.5c0.5-0.3,0.8-0.7,0.9-1h2.9c-0.5,1.4-1.2,2.4-2.1,3.1c-1,0.6-2.1,0.9-3.4,0.9c-0.9,0-1.8-0.1-2.5-0.4
	c-0.8-0.3-1.4-0.7-1.9-1.3c-0.5-0.6-0.9-1.2-1.2-2c-0.3-0.8-0.4-1.6-0.4-2.5c0-0.9,0.1-1.7,0.4-2.5c0.3-0.8,0.7-1.4,1.2-2
	c0.5-0.6,1.2-1,1.9-1.3c0.7-0.3,1.6-0.5,2.5-0.5c1,0,1.9,0.2,2.6,0.6c0.8,0.4,1.4,0.9,1.9,1.6c0.5,0.7,0.8,1.4,1,2.3
	c0.2,0.8,0.3,1.7,0.2,2.6H238C238,55.2,238.3,56,238.8,56.5z M242.4,50.2c-0.4-0.4-1-0.6-1.8-0.6c-0.5,0-1,0.1-1.3,0.3
	c-0.3,0.2-0.6,0.4-0.8,0.7c-0.2,0.3-0.4,0.5-0.4,0.8c-0.1,0.3-0.1,0.6-0.1,0.8h5.3C243.1,51.3,242.8,50.6,242.4,50.2z M251.7,56.5
	c0.5,0.5,1.2,0.7,2.1,0.7c0.7,0,1.2-0.2,1.7-0.5c0.5-0.3,0.8-0.7,0.9-1h2.9c-0.5,1.4-1.2,2.4-2.1,3.1c-1,0.6-2.1,0.9-3.4,0.9
	c-0.9,0-1.8-0.1-2.5-0.4c-0.8-0.3-1.4-0.7-1.9-1.3c-0.5-0.6-0.9-1.2-1.2-2c-0.3-0.8-0.4-1.6-0.4-2.5c0-0.9,0.1-1.7,0.4-2.5
	c0.3-0.8,0.7-1.4,1.2-2c0.5-0.6,1.2-1,1.9-1.3c0.7-0.3,1.6-0.5,2.5-0.5c1,0,1.9,0.2,2.6,0.6c0.8,0.4,1.4,0.9,1.9,1.6
	c0.5,0.7,0.8,1.4,1,2.3c0.2,0.8,0.3,1.7,0.2,2.6h-8.6C251,55.2,251.2,56,251.7,56.5z M255.4,50.2c-0.4-0.4-1-0.6-1.8-0.6
	c-0.5,0-1,0.1-1.3,0.3c-0.3,0.2-0.6,0.4-0.8,0.7c-0.2,0.3-0.4,0.5-0.4,0.8c-0.1,0.3-0.1,0.6-0.1,0.8h5.3
	C256.1,51.3,255.8,50.6,255.4,50.2z M264.3,47.4v2.2h0c0.2-0.4,0.4-0.7,0.6-1c0.3-0.3,0.6-0.6,0.9-0.8c0.3-0.2,0.7-0.4,1.1-0.5
	c0.4-0.1,0.8-0.2,1.2-0.2c0.2,0,0.5,0,0.7,0.1v3c-0.2,0-0.3-0.1-0.6-0.1c-0.2,0-0.4,0-0.6,0c-0.6,0-1.1,0.1-1.5,0.3
	c-0.4,0.2-0.7,0.5-1,0.8s-0.4,0.7-0.5,1.2c-0.1,0.5-0.2,1-0.2,1.5v5.4h-3.3V47.4H264.3z M276.2,45.6v-2.7h3.3v2.7H276.2z
	 M279.4,47.4v11.9h-3.3V47.4H279.4z M284.5,56.3c0.1,0.3,0.3,0.5,0.6,0.6c0.2,0.2,0.5,0.3,0.8,0.4c0.3,0.1,0.6,0.1,0.9,0.1
	c0.2,0,0.5,0,0.7-0.1c0.3-0.1,0.5-0.1,0.7-0.3c0.2-0.1,0.4-0.3,0.5-0.5c0.1-0.2,0.2-0.4,0.2-0.7c0-0.5-0.3-0.9-1-1.1
	c-0.7-0.2-1.6-0.5-2.7-0.7c-0.5-0.1-0.9-0.2-1.4-0.4c-0.5-0.1-0.9-0.3-1.2-0.6c-0.4-0.2-0.6-0.5-0.9-0.9c-0.2-0.4-0.3-0.8-0.3-1.3
	c0-0.8,0.1-1.4,0.4-1.9c0.3-0.5,0.7-0.9,1.2-1.2c0.5-0.3,1-0.5,1.7-0.6c0.6-0.1,1.2-0.2,1.9-0.2c0.6,0,1.3,0.1,1.9,0.2
	c0.6,0.1,1.1,0.3,1.6,0.6c0.5,0.3,0.9,0.7,1.2,1.2c0.3,0.5,0.5,1.1,0.6,1.8h-3.1c0-0.6-0.3-1.1-0.7-1.3c-0.4-0.2-0.9-0.3-1.5-0.3
	c-0.2,0-0.4,0-0.6,0c-0.2,0-0.4,0.1-0.6,0.1c-0.2,0.1-0.3,0.2-0.4,0.3c-0.1,0.1-0.2,0.3-0.2,0.6c0,0.3,0.1,0.5,0.3,0.7
	c0.2,0.2,0.5,0.3,0.8,0.4c0.3,0.1,0.7,0.2,1.2,0.3c0.4,0.1,0.9,0.2,1.4,0.3c0.5,0.1,0.9,0.2,1.4,0.4c0.5,0.2,0.9,0.4,1.2,0.6
	c0.4,0.3,0.6,0.6,0.9,0.9c0.2,0.4,0.3,0.8,0.3,1.4c0,0.8-0.2,1.4-0.5,2c-0.3,0.5-0.7,1-1.2,1.3c-0.5,0.3-1.1,0.5-1.7,0.7
	c-0.7,0.1-1.3,0.2-2,0.2c-0.7,0-1.4-0.1-2-0.2c-0.7-0.1-1.2-0.4-1.8-0.7c-0.5-0.3-0.9-0.7-1.3-1.3c-0.3-0.5-0.5-1.2-0.5-2h3.1
	C284.3,55.8,284.4,56.1,284.5,56.3z M303.2,51.1c0.1-0.6,0.3-1.1,0.6-1.4c0.4-0.3,0.9-0.4,1.5-0.4c0.3,0,0.6,0,0.8,0.1
	c0.3,0,0.5,0.1,0.7,0.2c0.2,0.1,0.3,0.3,0.5,0.5c0.1,0.2,0.2,0.5,0.2,0.8c0,0.3-0.1,0.6-0.3,0.8c-0.2,0.2-0.5,0.3-0.9,0.4
	c-0.4,0.1-0.8,0.2-1.3,0.2c-0.5,0-1,0.1-1.4,0.2c-0.5,0.1-1,0.2-1.5,0.3c-0.5,0.1-0.9,0.3-1.3,0.6c-0.4,0.3-0.7,0.6-0.9,1
	c-0.2,0.4-0.4,1-0.4,1.7c0,0.6,0.1,1.1,0.3,1.6c0.2,0.4,0.5,0.8,0.9,1.1c0.4,0.3,0.8,0.5,1.3,0.6c0.5,0.1,1,0.2,1.6,0.2
	c0.7,0,1.5-0.1,2.2-0.3c0.7-0.2,1.3-0.6,1.8-1.1c0,0.2,0,0.4,0.1,0.6c0,0.2,0.1,0.4,0.1,0.6h3.3c-0.2-0.2-0.3-0.6-0.3-1.1
	c-0.1-0.5-0.1-1-0.1-1.5v-6.2c0-0.7-0.2-1.3-0.5-1.7s-0.7-0.8-1.2-1c-0.5-0.2-1.1-0.4-1.7-0.5c-0.6-0.1-1.2-0.1-1.8-0.1
	c-0.7,0-1.3,0.1-2,0.2c-0.7,0.1-1.2,0.3-1.8,0.7c-0.5,0.3-1,0.7-1.3,1.2c-0.3,0.5-0.5,1.1-0.6,1.9H303.2z M307.5,54.7
	c0,0.2,0,0.4-0.1,0.7c0,0.3-0.1,0.6-0.3,0.9c-0.2,0.3-0.4,0.6-0.8,0.8c-0.4,0.2-0.9,0.3-1.5,0.3c-0.3,0-0.5,0-0.8-0.1
	c-0.2,0-0.5-0.1-0.6-0.2c-0.2-0.1-0.3-0.3-0.4-0.5c-0.1-0.2-0.2-0.4-0.2-0.7c0-0.3,0.1-0.6,0.2-0.8c0.1-0.2,0.2-0.4,0.4-0.5
	c0.2-0.1,0.4-0.2,0.6-0.3c0.2-0.1,0.5-0.1,0.7-0.2c0.3,0,0.5-0.1,0.8-0.1c0.3,0,0.5-0.1,0.7-0.1c0.2,0,0.5-0.1,0.7-0.2
	s0.4-0.2,0.5-0.3V54.7z M330.4,60.2c-0.1,0.6-0.4,1.2-0.8,1.7c-0.4,0.5-1.1,1-1.9,1.3c-0.8,0.4-1.9,0.6-3.3,0.6
	c-0.6,0-1.2-0.1-1.8-0.2c-0.6-0.1-1.2-0.4-1.7-0.7c-0.5-0.3-0.9-0.7-1.2-1.2c-0.3-0.5-0.5-1.1-0.6-1.7h3.2c0.2,0.6,0.5,1,0.9,1.3
	c0.4,0.2,1,0.4,1.5,0.4c0.9,0,1.6-0.3,2-0.8c0.4-0.6,0.6-1.2,0.6-2.1v-1.6h0c-0.4,0.6-0.9,1.1-1.5,1.4c-0.7,0.3-1.3,0.4-2.1,0.4
	c-0.9,0-1.7-0.2-2.3-0.5c-0.6-0.3-1.2-0.7-1.6-1.3c-0.4-0.5-0.7-1.2-0.9-1.9c-0.2-0.7-0.3-1.5-0.3-2.3c0-0.8,0.1-1.5,0.3-2.2
	c0.2-0.7,0.5-1.3,1-1.9c0.4-0.5,1-1,1.6-1.3c0.6-0.3,1.4-0.5,2.2-0.5c0.8,0,1.5,0.1,2.1,0.4c0.6,0.3,1.1,0.8,1.5,1.5h0v-1.6h3.1
	v11.1C330.6,59,330.6,59.6,330.4,60.2z M326,56.2c0.4-0.2,0.6-0.4,0.9-0.7c0.2-0.3,0.4-0.7,0.5-1c0.1-0.4,0.2-0.8,0.2-1.2
	c0-0.5,0-1-0.1-1.4c-0.1-0.4-0.2-0.8-0.5-1.2c-0.2-0.3-0.5-0.6-0.9-0.8c-0.4-0.2-0.8-0.3-1.3-0.3c-0.5,0-0.9,0.1-1.2,0.3
	c-0.3,0.2-0.6,0.4-0.8,0.7c-0.2,0.3-0.4,0.7-0.5,1.1c-0.1,0.4-0.1,0.8-0.1,1.3c0,0.4,0,0.9,0.1,1.3c0.1,0.4,0.2,0.8,0.4,1.1
	c0.2,0.3,0.5,0.6,0.8,0.8c0.3,0.2,0.8,0.3,1.3,0.3C325.2,56.5,325.6,56.4,326,56.2z M333.1,50.8c0.3-0.8,0.7-1.4,1.2-2
	c0.5-0.5,1.2-1,1.9-1.3c0.8-0.3,1.6-0.4,2.5-0.4c0.9,0,1.8,0.1,2.5,0.4s1.4,0.7,1.9,1.3c0.5,0.5,1,1.2,1.2,2
	c0.3,0.8,0.4,1.6,0.4,2.6c0,1-0.1,1.8-0.4,2.6c-0.3,0.8-0.7,1.4-1.2,2c-0.5,0.5-1.2,1-1.9,1.3s-1.6,0.4-2.5,0.4
	c-0.9,0-1.8-0.1-2.5-0.4c-0.8-0.3-1.4-0.7-1.9-1.3c-0.5-0.5-1-1.2-1.2-2c-0.3-0.8-0.4-1.6-0.4-2.6C332.7,52.4,332.8,51.6,333.1,50.8
	z M336.1,54.8c0.1,0.5,0.2,0.9,0.5,1.2c0.2,0.4,0.5,0.6,0.9,0.9c0.4,0.2,0.8,0.3,1.4,0.3c0.6,0,1-0.1,1.4-0.3
	c0.4-0.2,0.7-0.5,0.9-0.9c0.2-0.4,0.4-0.8,0.5-1.2c0.1-0.5,0.1-0.9,0.1-1.4c0-0.5,0-0.9-0.1-1.4c-0.1-0.5-0.2-0.9-0.5-1.2
	c-0.2-0.4-0.5-0.6-0.9-0.9c-0.4-0.2-0.8-0.3-1.4-0.3c-0.6,0-1,0.1-1.4,0.3c-0.4,0.2-0.7,0.5-0.9,0.9c-0.2,0.4-0.4,0.8-0.5,1.2
	c-0.1,0.5-0.1,0.9-0.1,1.4C335.9,53.8,336,54.3,336.1,54.8z M346.9,50.8c0.3-0.8,0.7-1.4,1.2-2c0.5-0.5,1.2-1,1.9-1.3
	c0.8-0.3,1.6-0.4,2.5-0.4c0.9,0,1.8,0.1,2.5,0.4s1.4,0.7,1.9,1.3c0.5,0.5,1,1.2,1.2,2c0.3,0.8,0.4,1.6,0.4,2.6c0,1-0.1,1.8-0.4,2.6
	c-0.3,0.8-0.7,1.4-1.2,2c-0.5,0.5-1.2,1-1.9,1.3s-1.6,0.4-2.5,0.4c-0.9,0-1.8-0.1-2.5-0.4c-0.8-0.3-1.4-0.7-1.9-1.3
	c-0.5-0.5-1-1.2-1.2-2c-0.3-0.8-0.4-1.6-0.4-2.6C346.5,52.4,346.6,51.6,346.9,50.8z M349.9,54.8c0.1,0.5,0.2,0.9,0.5,1.2
	c0.2,0.4,0.5,0.6,0.9,0.9c0.4,0.2,0.8,0.3,1.4,0.3c0.6,0,1-0.1,1.4-0.3c0.4-0.2,0.7-0.5,0.9-0.9c0.2-0.4,0.4-0.8,0.5-1.2
	c0.1-0.5,0.1-0.9,0.1-1.4c0-0.5,0-0.9-0.1-1.4c-0.1-0.5-0.2-0.9-0.5-1.2c-0.2-0.4-0.5-0.6-0.9-0.9c-0.4-0.2-0.8-0.3-1.4-0.3
	c-0.6,0-1,0.1-1.4,0.3c-0.4,0.2-0.7,0.5-0.9,0.9c-0.2,0.4-0.4,0.8-0.5,1.2c-0.1,0.5-0.1,0.9-0.1,1.4
	C349.8,53.8,349.8,54.3,349.9,54.8z M369.1,57.8c-0.4,0.6-0.9,1.1-1.5,1.4c-0.6,0.3-1.3,0.4-2.1,0.4c-0.9,0-1.7-0.2-2.3-0.5
	c-0.7-0.3-1.2-0.8-1.7-1.4c-0.4-0.6-0.8-1.3-1-2c-0.2-0.8-0.3-1.6-0.3-2.4c0-0.8,0.1-1.6,0.3-2.3c0.2-0.7,0.6-1.4,1-2
	c0.4-0.6,1-1,1.6-1.4c0.7-0.3,1.4-0.5,2.3-0.5c0.7,0,1.4,0.1,2,0.4c0.6,0.3,1.1,0.7,1.5,1.3h0v-6h3.3v16.4h-3.1L369.1,57.8
	L369.1,57.8z M369,51.9c-0.1-0.5-0.2-0.9-0.5-1.2c-0.2-0.3-0.5-0.6-0.9-0.8c-0.4-0.2-0.8-0.3-1.3-0.3c-0.5,0-1,0.1-1.4,0.3
	c-0.4,0.2-0.7,0.5-0.9,0.9c-0.2,0.4-0.4,0.8-0.5,1.2c-0.1,0.5-0.1,0.9-0.1,1.4c0,0.5,0.1,0.9,0.2,1.4c0.1,0.5,0.3,0.9,0.5,1.2
	c0.2,0.4,0.5,0.7,0.9,0.9c0.4,0.2,0.8,0.3,1.3,0.3c0.5,0,1-0.1,1.3-0.3c0.4-0.2,0.6-0.5,0.9-0.9c0.2-0.4,0.4-0.8,0.5-1.2
	c0.1-0.5,0.1-0.9,0.1-1.4C369.1,52.8,369.1,52.4,369,51.9z M379.4,49.6v-2.2h2v-0.9c0-1.1,0.3-1.9,1-2.6c0.7-0.7,1.7-1,3-1
	c0.3,0,0.6,0,0.9,0c0.3,0,0.6,0,0.9,0.1v2.4c-0.4,0-0.8-0.1-1.2-0.1c-0.4,0-0.8,0.1-1,0.3c-0.2,0.2-0.3,0.6-0.3,1v0.7h2.3v2.2h-2.3
	v9.7h-3.3v-9.7H379.4z M388.9,45.6v-2.7h3.3v2.7H388.9z M392.1,47.4v11.9h-3.3V47.4H392.1z M397.6,47.4v2.2h0c0.2-0.4,0.4-0.7,0.6-1
	c0.3-0.3,0.6-0.6,0.9-0.8c0.3-0.2,0.7-0.4,1.1-0.5c0.4-0.1,0.8-0.2,1.2-0.2c0.2,0,0.5,0,0.7,0.1v3c-0.2,0-0.3-0.1-0.6-0.1
	c-0.2,0-0.4,0-0.6,0c-0.6,0-1.1,0.1-1.5,0.3c-0.4,0.2-0.7,0.5-1,0.8s-0.4,0.7-0.5,1.2c-0.1,0.5-0.2,1-0.2,1.5v5.4h-3.3V47.4H397.6z
	 M406,56.3c0.1,0.3,0.3,0.5,0.6,0.6c0.2,0.2,0.5,0.3,0.8,0.4c0.3,0.1,0.6,0.1,0.9,0.1c0.2,0,0.5,0,0.7-0.1c0.3-0.1,0.5-0.1,0.7-0.3
	c0.2-0.1,0.4-0.3,0.5-0.5c0.1-0.2,0.2-0.4,0.2-0.7c0-0.5-0.3-0.9-1-1.1c-0.7-0.2-1.6-0.5-2.7-0.7c-0.5-0.1-0.9-0.2-1.4-0.4
	c-0.5-0.1-0.9-0.3-1.2-0.6c-0.4-0.2-0.6-0.5-0.9-0.9c-0.2-0.4-0.3-0.8-0.3-1.3c0-0.8,0.1-1.4,0.4-1.9c0.3-0.5,0.7-0.9,1.2-1.2
	c0.5-0.3,1-0.5,1.7-0.6c0.6-0.1,1.2-0.2,1.9-0.2c0.6,0,1.3,0.1,1.9,0.2c0.6,0.1,1.1,0.3,1.6,0.6c0.5,0.3,0.9,0.7,1.2,1.2
	c0.3,0.5,0.5,1.1,0.6,1.8h-3.1c0-0.6-0.3-1.1-0.7-1.3c-0.4-0.2-0.9-0.3-1.5-0.3c-0.2,0-0.4,0-0.6,0c-0.2,0-0.4,0.1-0.6,0.1
	c-0.2,0.1-0.3,0.2-0.4,0.3c-0.1,0.1-0.2,0.3-0.2,0.6c0,0.3,0.1,0.5,0.3,0.7c0.2,0.2,0.5,0.3,0.8,0.4c0.3,0.1,0.7,0.2,1.2,0.3
	c0.4,0.1,0.9,0.2,1.4,0.3c0.5,0.1,0.9,0.2,1.4,0.4c0.5,0.2,0.9,0.4,1.2,0.6c0.4,0.3,0.6,0.6,0.9,0.9c0.2,0.4,0.3,0.8,0.3,1.4
	c0,0.8-0.2,1.4-0.5,2c-0.3,0.5-0.7,1-1.2,1.3c-0.5,0.3-1.1,0.5-1.7,0.7c-0.7,0.1-1.3,0.2-2,0.2c-0.7,0-1.4-0.1-2-0.2
	c-0.7-0.1-1.2-0.4-1.8-0.7c-0.5-0.3-0.9-0.7-1.3-1.3c-0.3-0.5-0.5-1.2-0.5-2h3.1C405.7,55.8,405.8,56.1,406,56.3z M421.9,47.4v2.2
	h-2.4v5.9c0,0.6,0.1,0.9,0.3,1.1c0.2,0.2,0.6,0.3,1.1,0.3c0.2,0,0.4,0,0.5,0c0.2,0,0.3,0,0.5-0.1v2.5c-0.3,0-0.6,0.1-0.9,0.1
	c-0.3,0-0.7,0-1,0c-0.5,0-1,0-1.4-0.1c-0.5-0.1-0.9-0.2-1.2-0.4c-0.3-0.2-0.6-0.5-0.8-0.9c-0.2-0.4-0.3-0.9-0.3-1.4v-7h-2v-2.2h2
	v-3.6h3.3v3.6H421.9z M432.1,56.3c0.1,0.3,0.3,0.5,0.6,0.6c0.2,0.2,0.5,0.3,0.8,0.4c0.3,0.1,0.6,0.1,0.9,0.1c0.2,0,0.5,0,0.7-0.1
	c0.3-0.1,0.5-0.1,0.7-0.3c0.2-0.1,0.4-0.3,0.5-0.5c0.1-0.2,0.2-0.4,0.2-0.7c0-0.5-0.3-0.9-1-1.1c-0.7-0.2-1.6-0.5-2.7-0.7
	c-0.5-0.1-0.9-0.2-1.4-0.4c-0.5-0.1-0.9-0.3-1.2-0.6c-0.4-0.2-0.6-0.5-0.9-0.9c-0.2-0.4-0.3-0.8-0.3-1.3c0-0.8,0.1-1.4,0.4-1.9
	c0.3-0.5,0.7-0.9,1.2-1.2c0.5-0.3,1-0.5,1.7-0.6c0.6-0.1,1.2-0.2,1.9-0.2c0.6,0,1.3,0.1,1.9,0.2c0.6,0.1,1.1,0.3,1.6,0.6
	c0.5,0.3,0.9,0.7,1.2,1.2c0.3,0.5,0.5,1.1,0.6,1.8h-3.1c0-0.6-0.3-1.1-0.7-1.3c-0.4-0.2-0.9-0.3-1.5-0.3c-0.2,0-0.4,0-0.6,0
	c-0.2,0-0.4,0.1-0.6,0.1c-0.2,0.1-0.3,0.2-0.4,0.3c-0.1,0.1-0.2,0.3-0.2,0.6c0,0.3,0.1,0.5,0.3,0.7c0.2,0.2,0.5,0.3,0.8,0.4
	c0.3,0.1,0.7,0.2,1.2,0.3c0.4,0.1,0.9,0.2,1.4,0.3c0.5,0.1,0.9,0.2,1.4,0.4c0.5,0.2,0.9,0.4,1.2,0.6c0.4,0.3,0.6,0.6,0.9,0.9
	c0.2,0.4,0.3,0.8,0.3,1.4c0,0.8-0.2,1.4-0.5,2c-0.3,0.5-0.7,1-1.2,1.3c-0.5,0.3-1.1,0.5-1.7,0.7c-0.7,0.1-1.3,0.2-2,0.2
	c-0.7,0-1.4-0.1-2-0.2c-0.7-0.1-1.2-0.4-1.8-0.7c-0.5-0.3-0.9-0.7-1.3-1.3c-0.3-0.5-0.5-1.2-0.5-2h3.1
	C431.9,55.8,432,56.1,432.1,56.3z M448,47.4v2.2h-2.4v5.9c0,0.6,0.1,0.9,0.3,1.1c0.2,0.2,0.6,0.3,1.1,0.3c0.2,0,0.4,0,0.5,0
	c0.2,0,0.3,0,0.5-0.1v2.5c-0.3,0-0.6,0.1-0.9,0.1c-0.3,0-0.7,0-1,0c-0.5,0-1,0-1.4-0.1c-0.5-0.1-0.9-0.2-1.2-0.4
	c-0.3-0.2-0.6-0.5-0.8-0.9c-0.2-0.4-0.3-0.9-0.3-1.4v-7h-2v-2.2h2v-3.6h3.3v3.6H448z M452.8,56.5c0.5,0.5,1.2,0.7,2.1,0.7
	c0.7,0,1.2-0.2,1.7-0.5c0.5-0.3,0.8-0.7,0.9-1h2.9c-0.5,1.4-1.2,2.4-2.1,3.1c-1,0.6-2.1,0.9-3.4,0.9c-0.9,0-1.8-0.1-2.5-0.4
	c-0.8-0.3-1.4-0.7-1.9-1.3c-0.5-0.6-0.9-1.2-1.2-2c-0.3-0.8-0.4-1.6-0.4-2.5c0-0.9,0.1-1.7,0.4-2.5c0.3-0.8,0.7-1.4,1.2-2
	c0.5-0.6,1.2-1,1.9-1.3c0.7-0.3,1.6-0.5,2.5-0.5c1,0,1.9,0.2,2.6,0.6c0.8,0.4,1.4,0.9,1.9,1.6c0.5,0.7,0.8,1.4,1,2.3
	c0.2,0.8,0.3,1.7,0.2,2.6H452C452.1,55.2,452.4,56,452.8,56.5z M456.5,50.2c-0.4-0.4-1-0.6-1.8-0.6c-0.5,0-1,0.1-1.3,0.3
	c-0.3,0.2-0.6,0.4-0.8,0.7c-0.2,0.3-0.4,0.5-0.4,0.8c-0.1,0.3-0.1,0.6-0.1,0.8h5.3C457.2,51.3,456.9,50.6,456.5,50.2z M465.4,47.4
	v1.5h0c0.4-0.6,0.9-1.1,1.5-1.4c0.6-0.3,1.3-0.4,2-0.4c0.9,0,1.7,0.2,2.4,0.5c0.7,0.4,1.2,0.8,1.7,1.4c0.4,0.6,0.8,1.3,1,2
	c0.2,0.8,0.3,1.6,0.3,2.4c0,0.8-0.1,1.6-0.3,2.3c-0.2,0.7-0.5,1.4-1,2c-0.4,0.6-1,1-1.6,1.4c-0.7,0.3-1.4,0.5-2.3,0.5
	c-0.7,0-1.4-0.1-2-0.4c-0.6-0.3-1.1-0.7-1.5-1.3h0v5.6h-3.3V47.4H465.4z M469.7,56.8c0.4-0.2,0.7-0.5,0.9-0.8
	c0.2-0.3,0.4-0.7,0.5-1.2s0.1-0.9,0.1-1.4c0-0.5,0-0.9-0.1-1.4c-0.1-0.5-0.3-0.9-0.5-1.2c-0.2-0.4-0.5-0.7-0.9-0.9
	c-0.4-0.2-0.8-0.3-1.3-0.3c-0.5,0-1,0.1-1.3,0.3c-0.4,0.2-0.7,0.5-0.9,0.9c-0.2,0.4-0.4,0.8-0.5,1.2c-0.1,0.5-0.1,0.9-0.1,1.4
	c0,0.5,0,0.9,0.1,1.4c0.1,0.5,0.3,0.9,0.5,1.2c0.2,0.3,0.5,0.6,0.9,0.8c0.4,0.2,0.8,0.3,1.3,0.3C468.9,57.2,469.3,57.1,469.7,56.8z
	 M479.9,55.8v3.5h-3.6v-3.5H479.9z"/>
</svg>
