<?xml version="1.0" encoding="utf-8"?>
<!-- Generator: Adobe Illustrator 25.4.1, SVG Export Plug-In . SVG Version: 6.00 Build 0)  -->
<svg version="1.1" id="Layer_1" xmlns="http://www.w3.org/2000/svg" xmlns:xlink="http://www.w3.org/1999/xlink" x="0px" y="0px"
	 viewBox="0 0 728 90" style="enable-background:new 0 0 728 90;" xml:space="preserve">
<style type="text/css">
	.st0{fill:#339933;}
</style>
<g>
	<path class="st0" d="M36.3,35c1.3,0,2.5,0.2,3.4,0.6c0.9,0.4,1.7,0.9,2.3,1.5c0.6,0.6,1,1.4,1.3,2.2c0.3,0.8,0.4,1.7,0.4,2.6
		c0,0.9-0.1,1.7-0.4,2.5S42.6,46,42,46.6c-0.6,0.6-1.4,1.2-2.3,1.5c-0.9,0.4-2.1,0.6-3.4,0.6h-5v7.7h-4.7V35H36.3z M35,45.1
		c0.5,0,1.1,0,1.6-0.1c0.5-0.1,0.9-0.2,1.3-0.5s0.7-0.6,0.9-1s0.3-1,0.3-1.6c0-0.7-0.1-1.2-0.3-1.7c-0.2-0.4-0.5-0.7-0.9-1
		s-0.8-0.4-1.3-0.5c-0.5-0.1-1-0.1-1.6-0.1h-3.7v6.4H35z"/>
	<path class="st0" d="M50.3,40.9v2.9h0.1c0.2-0.5,0.5-0.9,0.8-1.3c0.3-0.4,0.7-0.8,1.2-1.1c0.4-0.3,0.9-0.5,1.4-0.7
		c0.5-0.2,1-0.2,1.6-0.2c0.3,0,0.6,0.1,0.9,0.2v4c-0.2,0-0.4-0.1-0.7-0.1c-0.3,0-0.6,0-0.8,0c-0.8,0-1.4,0.1-2,0.4s-1,0.6-1.3,1.1
		c-0.3,0.4-0.6,1-0.7,1.6c-0.1,0.6-0.2,1.3-0.2,2v7h-4.3V40.9H50.3z"/>
	<path class="st0" d="M57.7,45.7c0.1-1,0.3-1.8,0.8-2.5s1-1.2,1.7-1.6c0.7-0.4,1.4-0.7,2.3-0.9c0.8-0.2,1.7-0.3,2.6-0.3
		c0.8,0,1.6,0.1,2.4,0.2c0.8,0.1,1.5,0.3,2.2,0.6c0.7,0.3,1.2,0.8,1.6,1.3c0.4,0.6,0.6,1.3,0.6,2.3V53c0,0.7,0,1.4,0.1,2
		c0.1,0.6,0.2,1.1,0.4,1.4H68c-0.1-0.2-0.1-0.5-0.2-0.7c-0.1-0.2-0.1-0.5-0.1-0.8c-0.7,0.7-1.5,1.2-2.4,1.5
		c-0.9,0.3-1.9,0.4-2.8,0.4c-0.7,0-1.4-0.1-2.1-0.3s-1.2-0.5-1.7-0.8c-0.5-0.4-0.9-0.9-1.1-1.4c-0.3-0.6-0.4-1.3-0.4-2.1
		c0-0.9,0.2-1.6,0.5-2.2c0.3-0.6,0.7-1,1.2-1.4c0.5-0.3,1-0.6,1.7-0.8c0.6-0.2,1.3-0.3,1.9-0.4c0.6-0.1,1.3-0.2,1.9-0.2
		c0.6-0.1,1.2-0.2,1.6-0.3s0.9-0.3,1.1-0.5c0.3-0.2,0.4-0.6,0.4-1c0-0.5-0.1-0.8-0.2-1.1c-0.2-0.3-0.4-0.5-0.6-0.6
		c-0.3-0.1-0.5-0.2-0.9-0.3s-0.7-0.1-1.1-0.1c-0.8,0-1.5,0.2-2,0.5s-0.8,1-0.8,1.8H57.7z M67.5,48.8c-0.2,0.2-0.4,0.3-0.7,0.4
		s-0.6,0.2-0.9,0.2c-0.3,0.1-0.6,0.1-1,0.2s-0.7,0.1-1,0.1c-0.3,0.1-0.6,0.1-0.9,0.2c-0.3,0.1-0.6,0.2-0.8,0.4s-0.4,0.4-0.6,0.6
		c-0.1,0.3-0.2,0.6-0.2,1c0,0.4,0.1,0.7,0.2,1c0.1,0.3,0.3,0.5,0.6,0.6s0.5,0.3,0.8,0.3c0.3,0.1,0.6,0.1,1,0.1
		c0.8,0,1.5-0.1,1.9-0.4s0.8-0.6,1-1c0.2-0.4,0.4-0.8,0.4-1.2c0-0.4,0.1-0.7,0.1-1V48.8z"/>
	<path class="st0" d="M82.5,43.7c-0.7,0-1.2,0.2-1.7,0.5s-0.8,0.7-1.1,1.2s-0.5,1-0.6,1.6s-0.2,1.2-0.2,1.8c0,0.6,0.1,1.1,0.2,1.7
		s0.3,1.1,0.6,1.6s0.6,0.9,1.1,1.2s1,0.5,1.7,0.5c1,0,1.8-0.3,2.4-0.9c0.5-0.6,0.9-1.3,1-2.3h4.1c-0.3,2.1-1.1,3.6-2.4,4.7
		c-1.3,1.1-3,1.6-5.1,1.6c-1.2,0-2.2-0.2-3.2-0.6c-1-0.4-1.8-0.9-2.5-1.6c-0.7-0.7-1.2-1.5-1.6-2.5c-0.4-1-0.6-2-0.6-3.2
		c0-1.2,0.2-2.3,0.5-3.3c0.3-1,0.9-1.9,1.5-2.7c0.7-0.8,1.5-1.3,2.5-1.8c1-0.4,2.1-0.6,3.4-0.6c0.9,0,1.8,0.1,2.7,0.4
		c0.9,0.2,1.6,0.6,2.3,1.1c0.7,0.5,1.2,1.1,1.6,1.8c0.4,0.7,0.7,1.6,0.7,2.6h-4.2C85.4,44.6,84.3,43.7,82.5,43.7z"/>
	<path class="st0" d="M100.8,40.9v2.8h-3.1v7.7c0,0.7,0.1,1.2,0.4,1.4c0.2,0.2,0.7,0.4,1.4,0.4c0.2,0,0.5,0,0.7,0
		c0.2,0,0.4,0,0.6-0.1v3.3c-0.4,0.1-0.8,0.1-1.2,0.1c-0.4,0-0.9,0-1.3,0c-0.7,0-1.3,0-1.9-0.1c-0.6-0.1-1.1-0.3-1.6-0.5
		c-0.4-0.3-0.8-0.6-1.1-1.1c-0.3-0.5-0.4-1.1-0.4-1.9v-9.2h-2.6v-2.8h2.6v-4.7h4.3v4.7H100.8z"/>
	<path class="st0" d="M103,38.5V35h4.3v3.5H103z M107.3,40.9v15.5H103V40.9H107.3z"/>
	<path class="st0" d="M118,43.7c-0.7,0-1.2,0.2-1.7,0.5s-0.8,0.7-1.1,1.2s-0.5,1-0.6,1.6s-0.2,1.2-0.2,1.8c0,0.6,0.1,1.1,0.2,1.7
		s0.3,1.1,0.6,1.6s0.6,0.9,1.1,1.2s1,0.5,1.7,0.5c1,0,1.8-0.3,2.4-0.9c0.5-0.6,0.9-1.3,1-2.3h4.1c-0.3,2.1-1.1,3.6-2.4,4.7
		c-1.3,1.1-3,1.6-5.1,1.6c-1.2,0-2.2-0.2-3.2-0.6c-1-0.4-1.8-0.9-2.5-1.6c-0.7-0.7-1.2-1.5-1.6-2.5c-0.4-1-0.6-2-0.6-3.2
		c0-1.2,0.2-2.3,0.5-3.3c0.3-1,0.9-1.9,1.5-2.7c0.7-0.8,1.5-1.3,2.5-1.8c1-0.4,2.1-0.6,3.4-0.6c0.9,0,1.8,0.1,2.7,0.4
		c0.9,0.2,1.6,0.6,2.3,1.1c0.7,0.5,1.2,1.1,1.6,1.8c0.4,0.7,0.7,1.6,0.7,2.6h-4.2C120.9,44.6,119.8,43.7,118,43.7z"/>
	<path class="st0" d="M127.7,45.7c0.1-1,0.3-1.8,0.8-2.5s1-1.2,1.7-1.6c0.7-0.4,1.4-0.7,2.3-0.9c0.8-0.2,1.7-0.3,2.6-0.3
		c0.8,0,1.6,0.1,2.4,0.2c0.8,0.1,1.5,0.3,2.2,0.6c0.7,0.3,1.2,0.8,1.6,1.3c0.4,0.6,0.6,1.3,0.6,2.3V53c0,0.7,0,1.4,0.1,2
		c0.1,0.6,0.2,1.1,0.4,1.4H138c-0.1-0.2-0.1-0.5-0.2-0.7c-0.1-0.2-0.1-0.5-0.1-0.8c-0.7,0.7-1.5,1.2-2.4,1.5
		c-0.9,0.3-1.9,0.4-2.8,0.4c-0.7,0-1.4-0.1-2.1-0.3s-1.2-0.5-1.7-0.8c-0.5-0.4-0.9-0.9-1.1-1.4c-0.3-0.6-0.4-1.3-0.4-2.1
		c0-0.9,0.2-1.6,0.5-2.2c0.3-0.6,0.7-1,1.2-1.4c0.5-0.3,1-0.6,1.7-0.8c0.6-0.2,1.3-0.3,1.9-0.4c0.6-0.1,1.3-0.2,1.9-0.2
		c0.6-0.1,1.2-0.2,1.6-0.3s0.9-0.3,1.1-0.5c0.3-0.2,0.4-0.6,0.4-1c0-0.5-0.1-0.8-0.2-1.1c-0.2-0.3-0.4-0.5-0.6-0.6
		c-0.3-0.1-0.5-0.2-0.9-0.3s-0.7-0.1-1.1-0.1c-0.8,0-1.5,0.2-2,0.5s-0.8,1-0.8,1.8H127.7z M137.5,48.8c-0.2,0.2-0.4,0.3-0.7,0.4
		s-0.6,0.2-0.9,0.2c-0.3,0.1-0.6,0.1-1,0.2s-0.7,0.1-1,0.1c-0.3,0.1-0.6,0.1-0.9,0.2c-0.3,0.1-0.6,0.2-0.8,0.4s-0.4,0.4-0.6,0.6
		c-0.1,0.3-0.2,0.6-0.2,1c0,0.4,0.1,0.7,0.2,1c0.1,0.3,0.3,0.5,0.6,0.6s0.5,0.3,0.8,0.3c0.3,0.1,0.6,0.1,1,0.1
		c0.8,0,1.5-0.1,1.9-0.4s0.8-0.6,1-1c0.2-0.4,0.4-0.8,0.4-1.2c0-0.4,0.1-0.7,0.1-1V48.8z"/>
	<path class="st0" d="M149.4,35v21.4h-4.3V35H149.4z"/>
	<path class="st0" d="M177.3,56.4l-3.6-14.6h-0.1L170,56.4h-4.8L159.6,35h4.7l3.4,14.6h0.1l3.7-14.6h4.4l3.7,14.8h0.1l3.5-14.8h4.6
		L182,56.4H177.3z"/>
	<path class="st0" d="M189.6,38.5V35h4.3v3.5H189.6z M193.8,40.9v15.5h-4.3V40.9H193.8z"/>
	<path class="st0" d="M200.8,52.5c0.2,0.3,0.4,0.6,0.7,0.8c0.3,0.2,0.6,0.4,1,0.5c0.4,0.1,0.8,0.2,1.2,0.2c0.3,0,0.6,0,0.9-0.1
		c0.3-0.1,0.6-0.2,0.9-0.3c0.3-0.1,0.5-0.3,0.7-0.6s0.3-0.6,0.3-0.9c0-0.6-0.4-1.1-1.3-1.4c-0.9-0.3-2-0.6-3.6-1
		c-0.6-0.1-1.2-0.3-1.8-0.5c-0.6-0.2-1.1-0.4-1.6-0.8c-0.5-0.3-0.8-0.7-1.1-1.2c-0.3-0.5-0.4-1-0.4-1.7c0-1,0.2-1.8,0.6-2.5
		c0.4-0.6,0.9-1.1,1.5-1.5s1.4-0.6,2.2-0.8c0.8-0.1,1.6-0.2,2.5-0.2s1.7,0.1,2.4,0.2c0.8,0.2,1.5,0.4,2.1,0.8
		c0.6,0.4,1.1,0.9,1.5,1.5c0.4,0.6,0.7,1.4,0.7,2.4h-4c-0.1-0.8-0.4-1.4-0.9-1.7c-0.6-0.3-1.2-0.4-2-0.4c-0.2,0-0.5,0-0.8,0
		c-0.3,0-0.5,0.1-0.8,0.2s-0.4,0.2-0.6,0.4c-0.2,0.2-0.2,0.4-0.2,0.8c0,0.4,0.1,0.7,0.4,0.9c0.3,0.2,0.6,0.4,1.1,0.6
		c0.5,0.2,1,0.3,1.5,0.4s1.2,0.2,1.8,0.4c0.6,0.1,1.2,0.3,1.8,0.5c0.6,0.2,1.1,0.5,1.6,0.8c0.5,0.3,0.8,0.7,1.1,1.2
		c0.3,0.5,0.4,1.1,0.4,1.8c0,1-0.2,1.9-0.6,2.6c-0.4,0.7-0.9,1.2-1.6,1.7s-1.4,0.7-2.3,0.9s-1.7,0.3-2.6,0.3c-0.9,0-1.8-0.1-2.6-0.3
		c-0.9-0.2-1.6-0.5-2.3-0.9c-0.7-0.4-1.2-1-1.6-1.7c-0.4-0.7-0.7-1.6-0.7-2.6h4C200.5,51.8,200.6,52.2,200.8,52.5z"/>
	<path class="st0" d="M224.3,54.4c-0.5,0.8-1.2,1.4-2,1.8s-1.7,0.6-2.7,0.6c-1.2,0-2.2-0.2-3.1-0.7c-0.9-0.5-1.6-1.1-2.2-1.8
		c-0.6-0.8-1-1.7-1.3-2.7c-0.3-1-0.4-2-0.4-3.1c0-1,0.1-2,0.4-3c0.3-1,0.7-1.8,1.3-2.6c0.6-0.7,1.3-1.3,2.1-1.8
		c0.9-0.5,1.9-0.7,3-0.7c0.9,0,1.8,0.2,2.6,0.6c0.8,0.4,1.5,1,2,1.7h0.1V35h4.3v21.4h-4.1L224.3,54.4L224.3,54.4z M224.1,46.8
		c-0.1-0.6-0.3-1.1-0.6-1.6c-0.3-0.4-0.7-0.8-1.1-1.1c-0.5-0.3-1-0.4-1.7-0.4c-0.7,0-1.3,0.1-1.8,0.4s-0.9,0.6-1.2,1.1
		c-0.3,0.5-0.5,1-0.6,1.6c-0.1,0.6-0.2,1.2-0.2,1.8c0,0.6,0.1,1.2,0.2,1.8c0.1,0.6,0.4,1.1,0.7,1.6c0.3,0.5,0.7,0.9,1.2,1.1
		c0.5,0.3,1,0.4,1.7,0.4c0.7,0,1.3-0.1,1.8-0.4c0.5-0.3,0.8-0.7,1.1-1.1c0.3-0.5,0.5-1,0.6-1.6c0.1-0.6,0.2-1.2,0.2-1.9
		S224.3,47.3,224.1,46.8z"/>
	<path class="st0" d="M231.7,45.3c0.4-1,0.9-1.9,1.6-2.6c0.7-0.7,1.5-1.3,2.5-1.7c1-0.4,2.1-0.6,3.3-0.6c1.2,0,2.3,0.2,3.3,0.6
		c1,0.4,1.8,0.9,2.5,1.7c0.7,0.7,1.2,1.6,1.6,2.6c0.4,1,0.6,2.1,0.6,3.4c0,1.2-0.2,2.4-0.6,3.4c-0.4,1-0.9,1.9-1.6,2.6
		c-0.7,0.7-1.5,1.3-2.5,1.6c-1,0.4-2.1,0.6-3.3,0.6c-1.2,0-2.3-0.2-3.3-0.6c-1-0.4-1.8-0.9-2.5-1.6c-0.7-0.7-1.2-1.6-1.6-2.6
		s-0.6-2.1-0.6-3.4C231.2,47.4,231.3,46.3,231.7,45.3z M235.6,50.5c0.1,0.6,0.3,1.1,0.6,1.6s0.7,0.8,1.2,1.1s1.1,0.4,1.8,0.4
		c0.7,0,1.3-0.1,1.8-0.4s0.9-0.7,1.2-1.1s0.5-1,0.6-1.6s0.2-1.2,0.2-1.8c0-0.6-0.1-1.2-0.2-1.8c-0.1-0.6-0.3-1.1-0.6-1.6
		c-0.3-0.5-0.7-0.8-1.2-1.1c-0.5-0.3-1.1-0.4-1.8-0.4c-0.7,0-1.3,0.1-1.8,0.4c-0.5,0.3-0.9,0.7-1.2,1.1c-0.3,0.5-0.5,1-0.6,1.6
		c-0.1,0.6-0.2,1.2-0.2,1.8C235.4,49.3,235.5,49.9,235.6,50.5z"/>
	<path class="st0" d="M254.1,40.9V43h0.1c0.6-0.8,1.2-1.4,2-1.9c0.8-0.4,1.7-0.7,2.7-0.7c1,0,1.9,0.2,2.7,0.6s1.4,1,1.8,2
		c0.5-0.7,1.1-1.3,1.9-1.8s1.7-0.8,2.8-0.8c0.8,0,1.6,0.1,2.3,0.3c0.7,0.2,1.3,0.5,1.8,1c0.5,0.4,0.9,1,1.2,1.7
		c0.3,0.7,0.4,1.6,0.4,2.6v10.4h-4.3v-8.8c0-0.5,0-1-0.1-1.5c0-0.5-0.1-0.9-0.3-1.2c-0.2-0.3-0.4-0.6-0.8-0.8
		c-0.4-0.2-0.8-0.3-1.4-0.3c-0.6,0-1.1,0.1-1.5,0.3c-0.4,0.2-0.7,0.5-0.9,0.9c-0.2,0.4-0.4,0.8-0.4,1.3c-0.1,0.5-0.1,0.9-0.1,1.4
		v8.6h-4.3v-8.7c0-0.5,0-0.9,0-1.4c0-0.4-0.1-0.9-0.3-1.2c-0.1-0.4-0.4-0.7-0.8-0.9c-0.4-0.2-0.9-0.3-1.5-0.3c-0.2,0-0.5,0-0.8,0.1
		s-0.6,0.3-1,0.5c-0.3,0.2-0.6,0.6-0.8,1.1c-0.2,0.5-0.3,1.1-0.3,1.8v9h-4.3V40.9H254.1z"/>
	<path class="st0" d="M283.9,43.7v-2.8h2.5v-1.2c0-1.4,0.4-2.5,1.3-3.4c0.9-0.9,2.2-1.3,3.9-1.3c0.4,0,0.8,0,1.1,0s0.8,0.1,1.1,0.1
		v3.2c-0.5-0.1-1-0.1-1.6-0.1c-0.6,0-1,0.1-1.2,0.4c-0.3,0.3-0.4,0.7-0.4,1.4v0.9h2.9v2.8h-2.9v12.7h-4.3V43.7H283.9z"/>
	<path class="st0" d="M295.6,45.3c0.4-1,0.9-1.9,1.6-2.6c0.7-0.7,1.5-1.3,2.5-1.7c1-0.4,2.1-0.6,3.3-0.6c1.2,0,2.3,0.2,3.3,0.6
		c1,0.4,1.8,0.9,2.5,1.7c0.7,0.7,1.2,1.6,1.6,2.6c0.4,1,0.6,2.1,0.6,3.4c0,1.2-0.2,2.4-0.6,3.4c-0.4,1-0.9,1.9-1.6,2.6
		c-0.7,0.7-1.5,1.3-2.5,1.6c-1,0.4-2.1,0.6-3.3,0.6c-1.2,0-2.3-0.2-3.3-0.6c-1-0.4-1.8-0.9-2.5-1.6c-0.7-0.7-1.2-1.6-1.6-2.6
		s-0.6-2.1-0.6-3.4C295,47.4,295.2,46.3,295.6,45.3z M299.4,50.5c0.1,0.6,0.3,1.1,0.6,1.6s0.7,0.8,1.2,1.1s1.1,0.4,1.8,0.4
		c0.7,0,1.3-0.1,1.8-0.4s0.9-0.7,1.2-1.1s0.5-1,0.6-1.6s0.2-1.2,0.2-1.8c0-0.6-0.1-1.2-0.2-1.8c-0.1-0.6-0.3-1.1-0.6-1.6
		c-0.3-0.5-0.7-0.8-1.2-1.1c-0.5-0.3-1.1-0.4-1.8-0.4c-0.7,0-1.3,0.1-1.8,0.4c-0.5,0.3-0.9,0.7-1.2,1.1c-0.3,0.5-0.5,1-0.6,1.6
		c-0.1,0.6-0.2,1.2-0.2,1.8C299.2,49.3,299.3,49.9,299.4,50.5z"/>
	<path class="st0" d="M317.8,40.9v2.9h0.1c0.2-0.5,0.5-0.9,0.8-1.3c0.3-0.4,0.7-0.8,1.2-1.1c0.4-0.3,0.9-0.5,1.4-0.7
		c0.5-0.2,1-0.2,1.6-0.2c0.3,0,0.6,0.1,0.9,0.2v4c-0.2,0-0.4-0.1-0.7-0.1c-0.3,0-0.6,0-0.8,0c-0.8,0-1.4,0.1-2,0.4s-1,0.6-1.3,1.1
		c-0.3,0.4-0.6,1-0.7,1.6c-0.1,0.6-0.2,1.3-0.2,2v7h-4.3V40.9H317.8z"/>
	<path class="st0" d="M343.5,35c1.4,0,2.7,0.2,3.9,0.7c1.2,0.4,2.2,1.1,3.1,2s1.5,2,2,3.3c0.5,1.3,0.7,2.9,0.7,4.6
		c0,1.6-0.2,3-0.6,4.3c-0.4,1.3-1,2.5-1.8,3.4c-0.8,1-1.8,1.7-3,2.3c-1.2,0.6-2.6,0.8-4.3,0.8h-9.2V35H343.5z M343.2,52.4
		c0.7,0,1.3-0.1,2-0.3c0.6-0.2,1.2-0.6,1.7-1.1s0.9-1.2,1.2-2c0.3-0.8,0.4-1.8,0.4-3c0-1.1-0.1-2.1-0.3-2.9c-0.2-0.9-0.6-1.6-1-2.2
		c-0.5-0.6-1.1-1.1-1.9-1.4s-1.8-0.5-2.9-0.5H339v13.5H343.2z"/>
	<path class="st0" d="M360.6,52.7c0.6,0.6,1.6,0.9,2.8,0.9c0.9,0,1.6-0.2,2.2-0.6c0.6-0.4,1-0.9,1.1-1.4h3.8c-0.6,1.9-1.5,3.2-2.8,4
		s-2.7,1.2-4.5,1.2c-1.2,0-2.3-0.2-3.3-0.6c-1-0.4-1.8-0.9-2.5-1.7c-0.7-0.7-1.2-1.6-1.6-2.6c-0.4-1-0.6-2.1-0.6-3.3
		c0-1.2,0.2-2.2,0.6-3.2c0.4-1,0.9-1.9,1.6-2.6c0.7-0.7,1.5-1.3,2.5-1.7c1-0.4,2-0.6,3.2-0.6c1.3,0,2.5,0.3,3.5,0.8
		c1,0.5,1.8,1.2,2.4,2.1s1.1,1.8,1.4,2.9s0.4,2.2,0.3,3.5h-11.2C359.6,51.1,360,52.1,360.6,52.7z M365.4,44.5
		c-0.5-0.6-1.3-0.8-2.3-0.8c-0.7,0-1.2,0.1-1.7,0.3c-0.4,0.2-0.8,0.5-1.1,0.9c-0.3,0.3-0.5,0.7-0.6,1.1c-0.1,0.4-0.2,0.7-0.2,1h6.9
		C366.3,45.9,365.9,45.1,365.4,44.5z"/>
	<path class="st0" d="M377.3,40.9v2.2h0.1c0.5-0.9,1.2-1.6,2.1-2c0.9-0.4,1.7-0.6,2.6-0.6c1.1,0,2.1,0.2,2.8,0.5s1.3,0.7,1.7,1.3
		c0.4,0.6,0.7,1.2,0.9,2s0.3,1.7,0.3,2.6v9.5h-4.3v-8.8c0-1.3-0.2-2.2-0.6-2.9c-0.4-0.6-1.1-0.9-2.1-0.9c-1.2,0-2,0.3-2.5,1
		c-0.5,0.7-0.8,1.8-0.8,3.4v8.1h-4.3V40.9H377.3z"/>
	<path class="st0" d="M399.6,40.9v2.8h-3.1v7.7c0,0.7,0.1,1.2,0.4,1.4s0.7,0.4,1.4,0.4c0.2,0,0.5,0,0.7,0c0.2,0,0.4,0,0.6-0.1v3.3
		c-0.4,0.1-0.8,0.1-1.2,0.1c-0.4,0-0.9,0-1.3,0c-0.7,0-1.3,0-1.9-0.1c-0.6-0.1-1.1-0.3-1.6-0.5s-0.8-0.6-1.1-1.1
		c-0.3-0.5-0.4-1.1-0.4-1.9v-9.2h-2.6v-2.8h2.6v-4.7h4.3v4.7H399.6z"/>
	<path class="st0" d="M401.7,38.5V35h4.3v3.5H401.7z M406,40.9v15.5h-4.3V40.9H406z"/>
	<path class="st0" d="M412.9,52.5c0.2,0.3,0.4,0.6,0.7,0.8c0.3,0.2,0.6,0.4,1,0.5c0.4,0.1,0.8,0.2,1.2,0.2c0.3,0,0.6,0,0.9-0.1
		c0.3-0.1,0.6-0.2,0.9-0.3c0.3-0.1,0.5-0.3,0.7-0.6s0.3-0.6,0.3-0.9c0-0.6-0.4-1.1-1.3-1.4c-0.9-0.3-2-0.6-3.6-1
		c-0.6-0.1-1.2-0.3-1.8-0.5s-1.1-0.4-1.6-0.8c-0.5-0.3-0.8-0.7-1.1-1.2c-0.3-0.5-0.4-1-0.4-1.7c0-1,0.2-1.8,0.6-2.5
		c0.4-0.6,0.9-1.1,1.5-1.5c0.6-0.4,1.4-0.6,2.2-0.8s1.6-0.2,2.5-0.2c0.8,0,1.7,0.1,2.4,0.2c0.8,0.2,1.5,0.4,2.1,0.8s1.1,0.9,1.5,1.5
		c0.4,0.6,0.7,1.4,0.7,2.4h-4.1c-0.1-0.8-0.4-1.4-0.9-1.7c-0.6-0.3-1.2-0.4-2-0.4c-0.2,0-0.5,0-0.8,0c-0.3,0-0.5,0.1-0.8,0.2
		c-0.2,0.1-0.4,0.2-0.6,0.4c-0.2,0.2-0.2,0.4-0.2,0.8c0,0.4,0.1,0.7,0.4,0.9c0.3,0.2,0.6,0.4,1.1,0.6s1,0.3,1.5,0.4s1.2,0.2,1.8,0.4
		c0.6,0.1,1.2,0.3,1.8,0.5c0.6,0.2,1.1,0.5,1.6,0.8s0.8,0.7,1.1,1.2c0.3,0.5,0.4,1.1,0.4,1.8c0,1-0.2,1.9-0.6,2.6s-0.9,1.2-1.6,1.7
		c-0.7,0.4-1.4,0.7-2.3,0.9c-0.9,0.2-1.7,0.3-2.6,0.3c-0.9,0-1.8-0.1-2.6-0.3c-0.9-0.2-1.6-0.5-2.3-0.9s-1.2-1-1.6-1.7
		c-0.4-0.7-0.7-1.6-0.7-2.6h4C412.6,51.8,412.7,52.2,412.9,52.5z"/>
	<path class="st0" d="M434,40.9v2.8h-3.1v7.7c0,0.7,0.1,1.2,0.4,1.4s0.7,0.4,1.4,0.4c0.2,0,0.5,0,0.7,0c0.2,0,0.4,0,0.6-0.1v3.3
		c-0.4,0.1-0.8,0.1-1.2,0.1c-0.4,0-0.9,0-1.3,0c-0.7,0-1.3,0-1.9-0.1c-0.6-0.1-1.1-0.3-1.6-0.5s-0.8-0.6-1.1-1.1
		c-0.3-0.5-0.4-1.1-0.4-1.9v-9.2H424v-2.8h2.6v-4.7h4.3v4.7H434z"/>
	<path class="st0" d="M439.6,52.5c0.2,0.3,0.4,0.6,0.7,0.8c0.3,0.2,0.6,0.4,1,0.5c0.4,0.1,0.8,0.2,1.2,0.2c0.3,0,0.6,0,0.9-0.1
		c0.3-0.1,0.6-0.2,0.9-0.3c0.3-0.1,0.5-0.3,0.7-0.6s0.3-0.6,0.3-0.9c0-0.6-0.4-1.1-1.3-1.4c-0.9-0.3-2-0.6-3.6-1
		c-0.6-0.1-1.2-0.3-1.8-0.5s-1.1-0.4-1.6-0.8c-0.5-0.3-0.8-0.7-1.1-1.2c-0.3-0.5-0.4-1-0.4-1.7c0-1,0.2-1.8,0.6-2.5
		c0.4-0.6,0.9-1.1,1.5-1.5c0.6-0.4,1.4-0.6,2.2-0.8s1.6-0.2,2.5-0.2c0.8,0,1.7,0.1,2.4,0.2c0.8,0.2,1.5,0.4,2.1,0.8s1.1,0.9,1.5,1.5
		c0.4,0.6,0.7,1.4,0.7,2.4h-4.1c-0.1-0.8-0.4-1.4-0.9-1.7c-0.6-0.3-1.2-0.4-2-0.4c-0.2,0-0.5,0-0.8,0c-0.3,0-0.5,0.1-0.8,0.2
		c-0.2,0.1-0.4,0.2-0.6,0.4c-0.2,0.2-0.2,0.4-0.2,0.8c0,0.4,0.1,0.7,0.4,0.9c0.3,0.2,0.6,0.4,1.1,0.6s1,0.3,1.5,0.4s1.2,0.2,1.8,0.4
		c0.6,0.1,1.2,0.3,1.8,0.5c0.6,0.2,1.1,0.5,1.6,0.8s0.8,0.7,1.1,1.2c0.3,0.5,0.4,1.1,0.4,1.8c0,1-0.2,1.9-0.6,2.6s-0.9,1.2-1.6,1.7
		c-0.7,0.4-1.4,0.7-2.3,0.9c-0.9,0.2-1.7,0.3-2.6,0.3c-0.9,0-1.8-0.1-2.6-0.3c-0.9-0.2-1.6-0.5-2.3-0.9s-1.2-1-1.6-1.7
		c-0.4-0.7-0.7-1.6-0.7-2.6h4C439.3,51.8,439.4,52.2,439.6,52.5z"/>
</g>
</svg>
