<?xml version="1.0" encoding="utf-8"?>
<!-- Generator: Adobe Illustrator 25.4.1, SVG Export Plug-In . SVG Version: 6.00 Build 0)  -->
<svg version="1.1" id="Layer_1" xmlns="http://www.w3.org/2000/svg" xmlns:xlink="http://www.w3.org/1999/xlink" x="0px" y="0px"
	 viewBox="0 0 728 90" style="enable-background:new 0 0 728 90;" xml:space="preserve">
<style type="text/css">
	.st0{fill:#339933;}
</style>
<g>
	<path class="st0" d="M36.1,19.1l8.2,21.8h-5l-1.6-4.9h-8.2l-1.7,4.9h-4.8l8.2-21.8H36.1z M36.3,32.5l-2.7-8h-0.1l-2.8,8H36.3z"/>
	<path class="st0" d="M67.2,36.4c-0.1,0.9-0.5,1.7-1,2.4c-0.5,0.7-1.2,1.4-2.2,1.9c-1,0.5-2.3,0.7-3.9,0.7c-0.9,0-1.8-0.1-2.7-0.4
		c-0.9-0.3-1.6-0.7-2.3-1.2c-0.7-0.5-1.2-1.2-1.6-2.1c-0.4-0.8-0.6-1.9-0.6-3.1v-1.9h4.3v1c0,0.5,0,1,0.1,1.5
		c0.1,0.4,0.2,0.8,0.4,1.1c0.2,0.3,0.5,0.6,0.8,0.7c0.4,0.2,0.8,0.3,1.4,0.3c0.6,0,1.1-0.1,1.5-0.3c0.3-0.2,0.6-0.5,0.7-0.9
		c0.2-0.4,0.2-0.7,0.3-1.2c0-0.4,0-0.8,0-1.2V19.1h4.8V34C67.4,34.8,67.3,35.5,67.2,36.4z"/>
	<path class="st0" d="M71.4,25.6c0.5-1.4,1.2-2.6,2.1-3.6c0.9-1,2-1.9,3.4-2.4c1.3-0.6,2.8-0.9,4.5-0.9c1.7,0,3.2,0.3,4.5,0.9
		c1.3,0.6,2.4,1.4,3.4,2.4s1.6,2.3,2.1,3.6c0.5,1.4,0.7,2.9,0.7,4.5c0,1.6-0.2,3.1-0.7,4.4s-1.2,2.6-2.1,3.6s-2,1.8-3.4,2.4
		c-1.3,0.6-2.8,0.9-4.5,0.9c-1.7,0-3.2-0.3-4.5-0.9c-1.3-0.6-2.5-1.4-3.4-2.4c-0.9-1-1.6-2.2-2.1-3.6s-0.7-2.9-0.7-4.4
		C70.6,28.5,70.9,27,71.4,25.6z M75.8,32.8c0.2,0.9,0.6,1.6,1,2.3c0.5,0.7,1.1,1.2,1.8,1.7c0.8,0.4,1.7,0.6,2.7,0.6
		c1.1,0,2-0.2,2.7-0.6c0.8-0.4,1.4-1,1.8-1.7c0.5-0.7,0.8-1.5,1-2.3c0.2-0.9,0.3-1.8,0.3-2.7c0-1-0.1-1.9-0.3-2.8
		c-0.2-0.9-0.6-1.7-1-2.4s-1.1-1.3-1.8-1.7c-0.8-0.4-1.7-0.6-2.7-0.6c-1.1,0-2,0.2-2.7,0.6c-0.8,0.4-1.4,1-1.8,1.7
		c-0.5,0.7-0.8,1.5-1,2.4c-0.2,0.9-0.3,1.8-0.3,2.8C75.4,31,75.6,31.9,75.8,32.8z"/>
	<path class="st0" d="M111.4,39.3c-1.6,1.4-3.9,2.2-6.8,2.2c-3,0-5.2-0.7-6.9-2.1c-1.6-1.4-2.4-3.6-2.4-6.6V19.1h4.8v13.6
		c0,0.6,0.1,1.2,0.2,1.7c0.1,0.6,0.3,1.1,0.6,1.5c0.3,0.4,0.8,0.8,1.4,1.1c0.6,0.3,1.4,0.4,2.3,0.4c1.7,0,2.9-0.4,3.5-1.1
		c0.7-0.8,1-2,1-3.6V19.1h4.8v13.6C113.9,35.6,113,37.8,111.4,39.3z"/>
	<path class="st0" d="M129.7,19.1c1,0,1.9,0.2,2.6,0.5c0.8,0.3,1.5,0.7,2,1.3c0.6,0.5,1,1.2,1.3,1.9c0.3,0.7,0.4,1.5,0.4,2.3
		c0,1.3-0.3,2.4-0.8,3.3s-1.4,1.6-2.6,2.1v0.1c0.6,0.2,1.1,0.4,1.5,0.7c0.4,0.3,0.7,0.7,0.9,1.2c0.2,0.5,0.4,1,0.5,1.5
		c0.1,0.5,0.2,1.1,0.2,1.6c0,0.3,0,0.8,0.1,1.2c0,0.5,0.1,0.9,0.1,1.4c0.1,0.5,0.1,1,0.2,1.4c0.1,0.4,0.3,0.8,0.5,1.1H132
		c-0.3-0.7-0.4-1.5-0.5-2.5c-0.1-1-0.2-1.9-0.3-2.7c-0.2-1.1-0.5-2-1-2.5c-0.5-0.5-1.4-0.8-2.6-0.8h-4.8v8.5H118V19.1H129.7z
		 M128,29c1.1,0,1.9-0.2,2.5-0.7s0.8-1.3,0.8-2.4c0-1.1-0.3-1.8-0.8-2.3c-0.5-0.5-1.4-0.7-2.5-0.7h-5.3V29H128z"/>
	<path class="st0" d="M144.8,19.1l9.1,14.6h0.1V19.1h4.5v21.8h-4.8l-9.1-14.6h-0.1v14.6H140V19.1H144.8z"/>
	<path class="st0" d="M179,19.1v4h-11.5v4.7H178v3.7h-10.6v5.3h11.8v4h-16.6V19.1H179z"/>
	<path class="st0" d="M180.1,19.1h5.4l5.1,8.6l5.1-8.6h5.3l-8.1,13.4v8.4h-4.8v-8.5L180.1,19.1z"/>
	<path class="st0" d="M211,29.6c0.4-1,0.9-1.9,1.6-2.6c0.7-0.7,1.6-1.3,2.6-1.7c1-0.4,2.1-0.6,3.4-0.6c1.2,0,2.4,0.2,3.4,0.6
		c1,0.4,1.9,1,2.6,1.7c0.7,0.7,1.3,1.6,1.6,2.6c0.4,1,0.6,2.2,0.6,3.4s-0.2,2.4-0.6,3.4c-0.4,1-0.9,1.9-1.6,2.6
		c-0.7,0.7-1.6,1.3-2.6,1.7c-1,0.4-2.1,0.6-3.4,0.6c-1.2,0-2.4-0.2-3.4-0.6c-1-0.4-1.9-0.9-2.6-1.7c-0.7-0.7-1.3-1.6-1.6-2.6
		c-0.4-1-0.6-2.2-0.6-3.4S210.6,30.6,211,29.6z M214.9,34.9c0.1,0.6,0.3,1.1,0.6,1.6c0.3,0.5,0.7,0.9,1.2,1.1s1.1,0.4,1.8,0.4
		c0.7,0,1.3-0.1,1.8-0.4c0.5-0.3,0.9-0.7,1.2-1.1c0.3-0.5,0.5-1,0.6-1.6c0.1-0.6,0.2-1.2,0.2-1.8c0-0.6-0.1-1.3-0.2-1.9
		c-0.1-0.6-0.3-1.2-0.6-1.6c-0.3-0.5-0.7-0.9-1.2-1.1c-0.5-0.3-1.1-0.4-1.8-0.4c-0.7,0-1.3,0.1-1.8,0.4c-0.5,0.3-0.9,0.7-1.2,1.1
		c-0.3,0.5-0.5,1-0.6,1.6c-0.1,0.6-0.2,1.2-0.2,1.9C214.7,33.7,214.8,34.3,214.9,34.9z"/>
	<path class="st0" d="M227.9,28v-2.9h2.6v-1.2c0-1.4,0.4-2.6,1.3-3.5c0.9-0.9,2.2-1.3,4-1.3c0.4,0,0.8,0,1.2,0
		c0.4,0,0.8,0.1,1.1,0.1v3.2c-0.5-0.1-1-0.1-1.6-0.1c-0.6,0-1,0.1-1.3,0.4c-0.3,0.3-0.4,0.7-0.4,1.4v0.9h3V28h-3v12.9h-4.3V28H227.9
		z"/>
	<path class="st0" d="M248,30c0.1-1,0.3-1.9,0.8-2.5c0.4-0.7,1-1.2,1.7-1.6c0.7-0.4,1.5-0.7,2.3-0.9c0.9-0.2,1.7-0.3,2.6-0.3
		c0.8,0,1.6,0.1,2.4,0.2c0.8,0.1,1.6,0.3,2.2,0.7c0.7,0.3,1.2,0.8,1.6,1.4c0.4,0.6,0.6,1.3,0.6,2.3v8.2c0,0.7,0,1.4,0.1,2
		c0.1,0.7,0.2,1.1,0.4,1.5h-4.4c-0.1-0.2-0.1-0.5-0.2-0.7c-0.1-0.3-0.1-0.5-0.1-0.8c-0.7,0.7-1.5,1.2-2.4,1.5
		c-0.9,0.3-1.9,0.4-2.9,0.4c-0.8,0-1.5-0.1-2.1-0.3c-0.7-0.2-1.2-0.5-1.7-0.9s-0.9-0.9-1.1-1.5c-0.3-0.6-0.4-1.3-0.4-2.1
		c0-0.9,0.2-1.6,0.5-2.2c0.3-0.6,0.7-1,1.2-1.4c0.5-0.3,1.1-0.6,1.7-0.8c0.6-0.2,1.3-0.3,1.9-0.4c0.7-0.1,1.3-0.2,1.9-0.2
		c0.6-0.1,1.2-0.2,1.7-0.3c0.5-0.1,0.9-0.3,1.2-0.5s0.4-0.6,0.4-1c0-0.5-0.1-0.8-0.2-1.1c-0.2-0.3-0.4-0.5-0.6-0.6
		c-0.3-0.2-0.5-0.3-0.9-0.3s-0.7-0.1-1.1-0.1c-0.9,0-1.5,0.2-2,0.5c-0.5,0.4-0.8,1-0.9,1.8H248z M258,33.2c-0.2,0.2-0.4,0.3-0.7,0.4
		c-0.3,0.1-0.6,0.2-0.9,0.2c-0.3,0.1-0.6,0.1-1,0.2c-0.3,0-0.7,0.1-1,0.2c-0.3,0.1-0.6,0.1-1,0.2c-0.3,0.1-0.6,0.2-0.8,0.4
		c-0.2,0.2-0.4,0.4-0.6,0.7c-0.1,0.3-0.2,0.6-0.2,1c0,0.4,0.1,0.7,0.2,1c0.1,0.3,0.3,0.5,0.6,0.6c0.2,0.2,0.5,0.3,0.9,0.3
		c0.3,0.1,0.7,0.1,1,0.1c0.9,0,1.5-0.1,2-0.4c0.5-0.3,0.8-0.6,1-1c0.2-0.4,0.4-0.8,0.4-1.2c0.1-0.4,0.1-0.7,0.1-1V33.2z"/>
	<path class="st0" d="M273,23.1v-4h17.9v4h-6.5v17.8h-4.8V23.1H273z"/>
	<path class="st0" d="M298.1,19.1v8.4h8.8v-8.4h4.8v21.8H307v-9.4h-8.8v9.4h-4.8V19.1H298.1z"/>
	<path class="st0" d="M315.8,25.6c0.5-1.4,1.2-2.6,2.1-3.6c0.9-1,2-1.9,3.4-2.4c1.3-0.6,2.8-0.9,4.5-0.9c1.7,0,3.2,0.3,4.5,0.9
		c1.3,0.6,2.4,1.4,3.4,2.4s1.6,2.3,2.1,3.6c0.5,1.4,0.7,2.9,0.7,4.5c0,1.6-0.2,3.1-0.7,4.4s-1.2,2.6-2.1,3.6s-2,1.8-3.4,2.4
		c-1.3,0.6-2.8,0.9-4.5,0.9c-1.7,0-3.2-0.3-4.5-0.9c-1.3-0.6-2.5-1.4-3.4-2.4c-0.9-1-1.6-2.2-2.1-3.6s-0.7-2.9-0.7-4.4
		C315,28.5,315.3,27,315.8,25.6z M320.1,32.8c0.2,0.9,0.6,1.6,1,2.3c0.5,0.7,1.1,1.2,1.8,1.7c0.8,0.4,1.7,0.6,2.7,0.6
		c1.1,0,2-0.2,2.7-0.6c0.8-0.4,1.4-1,1.8-1.7c0.5-0.7,0.8-1.5,1-2.3c0.2-0.9,0.3-1.8,0.3-2.7c0-1-0.1-1.9-0.3-2.8
		c-0.2-0.9-0.6-1.7-1-2.4s-1.1-1.3-1.8-1.7c-0.8-0.4-1.7-0.6-2.7-0.6c-1.1,0-2,0.2-2.7,0.6c-0.8,0.4-1.4,1-1.8,1.7
		c-0.5,0.7-0.8,1.5-1,2.4c-0.2,0.9-0.3,1.8-0.3,2.8C319.8,31,319.9,31.9,320.1,32.8z"/>
	<path class="st0" d="M355.8,39.3c-1.6,1.4-3.9,2.2-6.8,2.2c-3,0-5.2-0.7-6.9-2.1c-1.6-1.4-2.4-3.6-2.4-6.6V19.1h4.8v13.6
		c0,0.6,0.1,1.2,0.2,1.7c0.1,0.6,0.3,1.1,0.6,1.5c0.3,0.4,0.8,0.8,1.4,1.1c0.6,0.3,1.4,0.4,2.3,0.4c1.7,0,2.9-0.4,3.5-1.1
		c0.7-0.8,1-2,1-3.6V19.1h4.8v13.6C358.2,35.6,357.4,37.8,355.8,39.3z"/>
	<path class="st0" d="M366,35.5c0.3,0.5,0.6,0.9,1.1,1.2c0.4,0.3,1,0.5,1.5,0.7c0.6,0.2,1.2,0.2,1.8,0.2c0.4,0,0.9,0,1.4-0.1
		c0.5-0.1,0.9-0.2,1.4-0.4s0.8-0.5,1.1-0.8c0.3-0.4,0.4-0.8,0.4-1.4c0-0.6-0.2-1.1-0.6-1.4c-0.4-0.4-0.9-0.7-1.5-0.9
		c-0.6-0.2-1.3-0.5-2.1-0.6s-1.6-0.4-2.4-0.6c-0.8-0.2-1.6-0.5-2.4-0.7c-0.8-0.3-1.5-0.7-2.1-1.1c-0.6-0.5-1.1-1.1-1.5-1.8
		c-0.4-0.7-0.6-1.6-0.6-2.6c0-1.1,0.2-2.1,0.7-2.9s1.1-1.5,1.9-2.1c0.8-0.5,1.6-1,2.6-1.2c1-0.3,2-0.4,2.9-0.4
		c1.1,0,2.2,0.1,3.3,0.4c1,0.3,2,0.7,2.8,1.2c0.8,0.6,1.5,1.3,1.9,2.2s0.7,2,0.7,3.2H374c0-0.7-0.2-1.2-0.4-1.6
		c-0.2-0.4-0.5-0.8-0.9-1c-0.4-0.2-0.8-0.4-1.3-0.5s-1-0.2-1.6-0.2c-0.4,0-0.8,0-1.2,0.1c-0.4,0.1-0.7,0.2-1.1,0.4
		c-0.3,0.2-0.6,0.5-0.8,0.8c-0.2,0.3-0.3,0.7-0.3,1.2c0,0.4,0.1,0.8,0.2,1c0.2,0.3,0.5,0.5,1,0.7c0.5,0.2,1.1,0.4,2,0.7
		c0.8,0.2,1.9,0.5,3.3,0.9c0.4,0.1,1,0.2,1.7,0.4c0.7,0.2,1.4,0.6,2.2,1c0.7,0.5,1.3,1.1,1.8,1.9s0.8,1.8,0.8,3c0,1-0.2,1.9-0.6,2.8
		c-0.4,0.9-1,1.6-1.7,2.2c-0.8,0.6-1.7,1.1-2.8,1.5c-1.1,0.3-2.4,0.5-3.9,0.5c-1.2,0-2.4-0.1-3.5-0.4c-1.1-0.3-2.1-0.8-3-1.4
		c-0.9-0.6-1.6-1.4-2.1-2.4S361,35,361,33.7h4.6C365.6,34.4,365.8,35,366,35.5z"/>
	<path class="st0" d="M393.1,19.1l8.2,21.8h-5l-1.6-4.9h-8.2l-1.7,4.9h-4.8l8.2-21.8H393.1z M393.3,32.5l-2.7-8h-0.1l-2.8,8H393.3z"
		/>
	<path class="st0" d="M407.9,19.1l9.1,14.6h0.1V19.1h4.5v21.8h-4.8l-9.1-14.6h-0.1v14.6h-4.5V19.1H407.9z"/>
	<path class="st0" d="M435.1,19.1c1.4,0,2.7,0.2,3.9,0.7c1.2,0.4,2.3,1.1,3.1,2s1.6,2,2.1,3.4c0.5,1.3,0.7,2.9,0.7,4.7
		c0,1.6-0.2,3.1-0.6,4.4c-0.4,1.3-1,2.5-1.8,3.5c-0.8,1-1.9,1.7-3.1,2.3c-1.2,0.6-2.7,0.8-4.4,0.8h-9.4V19.1H435.1z M434.8,36.9
		c0.7,0,1.4-0.1,2-0.3c0.7-0.2,1.2-0.6,1.7-1.1s0.9-1.2,1.2-2c0.3-0.8,0.5-1.9,0.5-3.1c0-1.1-0.1-2.1-0.3-3s-0.6-1.6-1.1-2.3
		c-0.5-0.6-1.1-1.1-1.9-1.5c-0.8-0.3-1.8-0.5-3-0.5h-3.4v13.7H434.8z"/>
	<path class="st0" d="M460.5,35.5c0.3,0.5,0.6,0.9,1.1,1.2c0.4,0.3,1,0.5,1.5,0.7c0.6,0.2,1.2,0.2,1.8,0.2c0.4,0,0.9,0,1.4-0.1
		c0.5-0.1,0.9-0.2,1.4-0.4s0.8-0.5,1.1-0.8c0.3-0.4,0.4-0.8,0.4-1.4c0-0.6-0.2-1.1-0.6-1.4c-0.4-0.4-0.9-0.7-1.5-0.9
		c-0.6-0.2-1.3-0.5-2.1-0.6s-1.6-0.4-2.4-0.6c-0.8-0.2-1.6-0.5-2.4-0.7c-0.8-0.3-1.5-0.7-2.1-1.1c-0.6-0.5-1.1-1.1-1.5-1.8
		c-0.4-0.7-0.6-1.6-0.6-2.6c0-1.1,0.2-2.1,0.7-2.9s1.1-1.5,1.9-2.1c0.8-0.5,1.6-1,2.6-1.2c1-0.3,2-0.4,2.9-0.4
		c1.1,0,2.2,0.1,3.3,0.4c1,0.3,2,0.7,2.8,1.2c0.8,0.6,1.5,1.3,1.9,2.2s0.7,2,0.7,3.2h-4.6c0-0.7-0.2-1.2-0.4-1.6
		c-0.2-0.4-0.5-0.8-0.9-1c-0.4-0.2-0.8-0.4-1.3-0.5s-1-0.2-1.6-0.2c-0.4,0-0.8,0-1.2,0.1c-0.4,0.1-0.7,0.2-1.1,0.4
		c-0.3,0.2-0.6,0.5-0.8,0.8c-0.2,0.3-0.3,0.7-0.3,1.2c0,0.4,0.1,0.8,0.2,1c0.2,0.3,0.5,0.5,1,0.7c0.5,0.2,1.1,0.4,2,0.7
		c0.8,0.2,1.9,0.5,3.3,0.9c0.4,0.1,1,0.2,1.7,0.4c0.7,0.2,1.4,0.6,2.2,1c0.7,0.5,1.3,1.1,1.8,1.9s0.8,1.8,0.8,3c0,1-0.2,1.9-0.6,2.8
		c-0.4,0.9-1,1.6-1.7,2.2c-0.8,0.6-1.7,1.1-2.8,1.5c-1.1,0.3-2.4,0.5-3.9,0.5c-1.2,0-2.4-0.1-3.5-0.4c-1.1-0.3-2.1-0.8-3-1.4
		c-0.9-0.6-1.6-1.4-2.1-2.4s-0.8-2.1-0.7-3.5h4.6C460.1,34.4,460.3,35,460.5,35.5z"/>
	<path class="st0" d="M483.4,19.1l5.1,15h0.1l4.8-15h6.8v21.8h-4.5V25.5h-0.1l-5.3,15.5h-3.7l-5.3-15.3h-0.1v15.3h-4.5V19.1H483.4z"
		/>
	<path class="st0" d="M509.2,19.1v21.8h-4.8V19.1H509.2z"/>
	<path class="st0" d="M518.2,19.1v17.8h10.6v4h-15.4V19.1H518.2z"/>
	<path class="st0" d="M547.8,19.1v4h-11.5v4.7h10.6v3.7h-10.6v5.3h11.8v4h-16.6V19.1H547.8z"/>
	<path class="st0" d="M555,35.5c0.3,0.5,0.6,0.9,1.1,1.2c0.4,0.3,1,0.5,1.5,0.7c0.6,0.2,1.2,0.2,1.8,0.2c0.4,0,0.9,0,1.4-0.1
		c0.5-0.1,0.9-0.2,1.4-0.4s0.8-0.5,1.1-0.8c0.3-0.4,0.4-0.8,0.4-1.4c0-0.6-0.2-1.1-0.6-1.4c-0.4-0.4-0.9-0.7-1.5-0.9
		c-0.6-0.2-1.3-0.5-2.1-0.6s-1.6-0.4-2.4-0.6c-0.8-0.2-1.6-0.5-2.4-0.7c-0.8-0.3-1.5-0.7-2.1-1.1c-0.6-0.5-1.1-1.1-1.5-1.8
		c-0.4-0.7-0.6-1.6-0.6-2.6c0-1.1,0.2-2.1,0.7-2.9s1.1-1.5,1.9-2.1c0.8-0.5,1.6-1,2.6-1.2c1-0.3,2-0.4,2.9-0.4
		c1.1,0,2.2,0.1,3.3,0.4c1,0.3,2,0.7,2.8,1.2c0.8,0.6,1.5,1.3,1.9,2.2s0.7,2,0.7,3.2h-4.6c0-0.7-0.2-1.2-0.4-1.6
		c-0.2-0.4-0.5-0.8-0.9-1c-0.4-0.2-0.8-0.4-1.3-0.5s-1-0.2-1.6-0.2c-0.4,0-0.8,0-1.2,0.1c-0.4,0.1-0.7,0.2-1.1,0.4
		c-0.3,0.2-0.6,0.5-0.8,0.8c-0.2,0.3-0.3,0.7-0.3,1.2c0,0.4,0.1,0.8,0.2,1c0.2,0.3,0.5,0.5,1,0.7c0.5,0.2,1.1,0.4,2,0.7
		c0.8,0.2,1.9,0.5,3.3,0.9c0.4,0.1,1,0.2,1.7,0.4c0.7,0.2,1.4,0.6,2.2,1c0.7,0.5,1.3,1.1,1.8,1.9s0.8,1.8,0.8,3c0,1-0.2,1.9-0.6,2.8
		c-0.4,0.9-1,1.6-1.7,2.2c-0.8,0.6-1.7,1.1-2.8,1.5c-1.1,0.3-2.4,0.5-3.9,0.5c-1.2,0-2.4-0.1-3.5-0.4c-1.1-0.3-2.1-0.8-3-1.4
		c-0.9-0.6-1.6-1.4-2.1-2.4s-0.8-2.1-0.7-3.5h4.6C554.6,34.4,554.7,35,555,35.5z"/>
</g>
<g>
	<path d="M29.1,49.7v7.9h0.1c0.5-0.8,1.2-1.4,2.2-1.8c0.9-0.4,1.8-0.6,2.8-0.6c0.8,0,1.6,0.2,2.4,0.5c0.8,0.3,1.5,0.8,2.1,1.5
		c0.6,0.7,1.1,1.5,1.5,2.6c0.4,1,0.6,2.3,0.6,3.7c0,1.4-0.2,2.7-0.6,3.7c-0.4,1-0.9,1.9-1.5,2.6c-0.6,0.7-1.3,1.2-2.1,1.5
		c-0.8,0.3-1.6,0.5-2.4,0.5c-1.2,0-2.2-0.2-3.1-0.5c-0.9-0.4-1.6-1-2.1-1.9h-0.1v2h-4.1V49.7H29.1z M36.1,61.7
		C36,61,35.7,60.5,35.4,60c-0.3-0.5-0.7-0.8-1.1-1.1c-0.5-0.3-1-0.4-1.7-0.4c-0.6,0-1.2,0.1-1.6,0.4c-0.5,0.3-0.9,0.6-1.2,1.1
		c-0.3,0.5-0.5,1-0.7,1.6c-0.1,0.6-0.2,1.3-0.2,1.9c0,0.7,0.1,1.3,0.2,1.9c0.1,0.6,0.4,1.2,0.7,1.6c0.3,0.5,0.7,0.8,1.2,1.1
		c0.5,0.3,1,0.4,1.6,0.4c0.7,0,1.2-0.1,1.7-0.4c0.5-0.3,0.8-0.6,1.1-1.1c0.3-0.5,0.5-1,0.7-1.6c0.1-0.6,0.2-1.2,0.2-1.9
		C36.3,62.9,36.2,62.3,36.1,61.7z"/>
	<path d="M48,67.7c0.7,0.6,1.6,0.9,2.8,0.9c0.9,0,1.6-0.2,2.3-0.7c0.6-0.4,1-0.9,1.2-1.4h3.8c-0.6,1.9-1.5,3.2-2.8,4.1
		s-2.8,1.2-4.6,1.2c-1.2,0-2.4-0.2-3.4-0.6c-1-0.4-1.8-1-2.5-1.7c-0.7-0.7-1.2-1.6-1.6-2.6c-0.4-1-0.6-2.1-0.6-3.4
		c0-1.2,0.2-2.3,0.6-3.3c0.4-1,0.9-1.9,1.6-2.6s1.6-1.3,2.6-1.8s2.1-0.6,3.3-0.6c1.3,0,2.5,0.3,3.5,0.8c1,0.5,1.8,1.2,2.5,2.1
		c0.6,0.9,1.1,1.9,1.4,3c0.3,1.1,0.4,2.3,0.3,3.5H47C47,66,47.4,67,48,67.7z M52.9,59.4c-0.5-0.6-1.3-0.9-2.4-0.9
		c-0.7,0-1.3,0.1-1.7,0.4c-0.5,0.2-0.8,0.5-1.1,0.9c-0.3,0.3-0.5,0.7-0.6,1.1c-0.1,0.4-0.2,0.7-0.2,1H54
		C53.8,60.8,53.5,59.9,52.9,59.4z"/>
	<path d="M75.9,72.6c-0.2,0.8-0.5,1.6-1.1,2.3c-0.6,0.7-1.4,1.3-2.5,1.8c-1.1,0.5-2.5,0.7-4.3,0.7c-0.8,0-1.6-0.1-2.4-0.3
		c-0.8-0.2-1.5-0.5-2.2-0.9c-0.7-0.4-1.2-0.9-1.6-1.6C61.3,74,61,73.2,61,72.3h4.3c0.2,0.8,0.6,1.4,1.2,1.7c0.6,0.3,1.3,0.5,2,0.5
		c1.2,0,2.1-0.4,2.7-1.1c0.6-0.7,0.8-1.7,0.8-2.8v-2.1h-0.1c-0.5,0.8-1.1,1.5-2,1.8c-0.9,0.4-1.8,0.6-2.7,0.6
		c-1.2,0-2.2-0.2-3.1-0.6c-0.9-0.4-1.6-1-2.1-1.7c-0.5-0.7-1-1.6-1.2-2.5c-0.3-1-0.4-2-0.4-3.1c0-1,0.1-2,0.4-2.9
		c0.3-0.9,0.7-1.8,1.3-2.5c0.6-0.7,1.3-1.3,2.1-1.7c0.8-0.4,1.8-0.6,2.9-0.6c1,0,1.9,0.2,2.7,0.6c0.8,0.4,1.4,1,2,2H72v-2.1h4.1
		v14.8C76.1,71.1,76,71.8,75.9,72.6z M69.9,67.4c0.5-0.2,0.9-0.6,1.2-1c0.3-0.4,0.5-0.9,0.7-1.4c0.2-0.5,0.2-1.1,0.2-1.6
		c0-0.7-0.1-1.3-0.2-1.8c-0.1-0.6-0.3-1.1-0.6-1.5c-0.3-0.4-0.7-0.8-1.1-1.1c-0.5-0.3-1.1-0.4-1.8-0.4c-0.6,0-1.1,0.1-1.6,0.4
		c-0.4,0.2-0.8,0.6-1.1,1c-0.3,0.4-0.5,0.9-0.6,1.4c-0.1,0.5-0.2,1.1-0.2,1.7c0,0.6,0.1,1.1,0.2,1.7c0.1,0.6,0.3,1.1,0.6,1.5
		c0.3,0.4,0.6,0.8,1.1,1.1c0.4,0.3,1,0.4,1.7,0.4C68.9,67.7,69.4,67.6,69.9,67.4z"/>
	<path d="M79.7,53.2v-3.6h4.3v3.6H79.7z M84.1,55.7v15.8h-4.3V55.7H84.1z"/>
	<path d="M91.6,55.7v2.2h0.1c0.5-0.9,1.3-1.6,2.1-2c0.9-0.4,1.8-0.6,2.7-0.6c1.2,0,2.1,0.2,2.9,0.5c0.7,0.3,1.3,0.8,1.8,1.3
		c0.4,0.6,0.7,1.2,0.9,2c0.2,0.8,0.3,1.7,0.3,2.7v9.7H98v-8.9c0-1.3-0.2-2.3-0.6-2.9c-0.4-0.6-1.1-1-2.2-1c-1.2,0-2,0.4-2.6,1.1
		c-0.5,0.7-0.8,1.9-0.8,3.5v8.3h-4.3V55.7H91.6z"/>
	<path d="M109.2,67.5c0.2,0.3,0.4,0.6,0.7,0.8c0.3,0.2,0.7,0.4,1.1,0.5c0.4,0.1,0.8,0.2,1.2,0.2c0.3,0,0.6,0,1-0.1s0.6-0.2,0.9-0.3
		c0.3-0.2,0.5-0.4,0.7-0.6s0.3-0.6,0.3-1c0-0.7-0.4-1.1-1.3-1.5c-0.9-0.3-2.1-0.7-3.6-1c-0.6-0.1-1.2-0.3-1.8-0.5
		c-0.6-0.2-1.1-0.4-1.6-0.8c-0.5-0.3-0.8-0.7-1.1-1.2s-0.4-1.1-0.4-1.8c0-1,0.2-1.9,0.6-2.5c0.4-0.7,0.9-1.2,1.6-1.5
		c0.7-0.4,1.4-0.6,2.2-0.8c0.8-0.2,1.6-0.2,2.5-0.2c0.9,0,1.7,0.1,2.5,0.2c0.8,0.2,1.5,0.4,2.2,0.8c0.6,0.4,1.2,0.9,1.6,1.5
		c0.4,0.6,0.7,1.5,0.7,2.4h-4.1c-0.1-0.8-0.4-1.4-0.9-1.7c-0.6-0.3-1.2-0.4-2-0.4c-0.2,0-0.5,0-0.8,0c-0.3,0-0.5,0.1-0.8,0.2
		c-0.2,0.1-0.4,0.2-0.6,0.4c-0.2,0.2-0.2,0.5-0.2,0.8c0,0.4,0.1,0.7,0.4,0.9c0.3,0.2,0.7,0.4,1.1,0.6c0.5,0.2,1,0.3,1.6,0.4
		c0.6,0.1,1.2,0.3,1.8,0.4c0.6,0.1,1.2,0.3,1.8,0.5c0.6,0.2,1.1,0.5,1.6,0.8c0.5,0.3,0.8,0.8,1.1,1.3c0.3,0.5,0.4,1.1,0.4,1.8
		c0,1-0.2,1.9-0.6,2.6c-0.4,0.7-1,1.3-1.6,1.7c-0.7,0.4-1.4,0.7-2.3,0.9c-0.9,0.2-1.7,0.3-2.6,0.3c-0.9,0-1.8-0.1-2.7-0.3
		c-0.9-0.2-1.7-0.5-2.3-0.9s-1.2-1-1.7-1.7c-0.4-0.7-0.7-1.6-0.7-2.6h4.1C108.9,66.8,109,67.2,109.2,67.5z"/>
	<path d="M144.1,71.5l-2.8-10.6h-0.1l-2.7,10.6H134l-5-15.8h4.6l2.9,10.7h0.1l2.6-10.7h4.2l2.7,10.7h0.1l2.9-10.7h4.5l-5,15.8H144.1
		z"/>
	<path d="M155.5,53.2v-3.6h4.3v3.6H155.5z M159.8,55.7v15.8h-4.3V55.7H159.8z"/>
	<path d="M171.9,55.7v2.9h-3.2v7.8c0,0.7,0.1,1.2,0.4,1.5c0.2,0.2,0.7,0.4,1.5,0.4c0.2,0,0.5,0,0.7,0c0.2,0,0.4,0,0.6-0.1v3.4
		c-0.4,0.1-0.8,0.1-1.2,0.1s-0.9,0-1.3,0c-0.7,0-1.3,0-1.9-0.1c-0.6-0.1-1.1-0.3-1.6-0.5c-0.5-0.3-0.8-0.6-1.1-1.1
		c-0.3-0.5-0.4-1.1-0.4-1.9v-9.3h-2.6v-2.9h2.6v-4.7h4.3v4.7H171.9z"/>
	<path d="M178.3,49.7v8.2h0.1c0.5-0.9,1.3-1.6,2.1-2c0.9-0.4,1.7-0.6,2.5-0.6c1.2,0,2.1,0.2,2.9,0.5c0.7,0.3,1.3,0.8,1.8,1.3
		c0.4,0.6,0.7,1.2,0.9,2c0.2,0.8,0.3,1.7,0.3,2.7v9.7h-4.3v-8.9c0-1.3-0.2-2.3-0.6-2.9c-0.4-0.6-1.1-1-2.2-1c-1.2,0-2,0.4-2.6,1.1
		c-0.5,0.7-0.8,1.9-0.8,3.5v8.3H174V49.7H178.3z"/>
	<path d="M200.4,60.5c0.1-1,0.3-1.9,0.8-2.5s1-1.2,1.7-1.6c0.7-0.4,1.5-0.7,2.3-0.9c0.9-0.2,1.7-0.3,2.6-0.3c0.8,0,1.6,0.1,2.4,0.2
		c0.8,0.1,1.6,0.3,2.2,0.7c0.7,0.3,1.2,0.8,1.6,1.4c0.4,0.6,0.6,1.3,0.6,2.3v8.2c0,0.7,0,1.4,0.1,2c0.1,0.7,0.2,1.1,0.4,1.5h-4.4
		c-0.1-0.2-0.1-0.5-0.2-0.7c-0.1-0.3-0.1-0.5-0.1-0.8c-0.7,0.7-1.5,1.2-2.4,1.5c-0.9,0.3-1.9,0.4-2.9,0.4c-0.8,0-1.5-0.1-2.1-0.3
		c-0.7-0.2-1.2-0.5-1.7-0.9c-0.5-0.4-0.9-0.9-1.1-1.5c-0.3-0.6-0.4-1.3-0.4-2.1c0-0.9,0.2-1.6,0.5-2.2c0.3-0.6,0.7-1,1.2-1.4
		c0.5-0.3,1.1-0.6,1.7-0.8c0.6-0.2,1.3-0.3,1.9-0.4c0.7-0.1,1.3-0.2,1.9-0.2c0.6-0.1,1.2-0.2,1.7-0.3c0.5-0.1,0.9-0.3,1.2-0.5
		s0.4-0.6,0.4-1c0-0.5-0.1-0.8-0.2-1.1c-0.2-0.3-0.4-0.5-0.6-0.6c-0.3-0.2-0.5-0.3-0.9-0.3s-0.7-0.1-1.1-0.1c-0.9,0-1.5,0.2-2,0.5
		c-0.5,0.4-0.8,1-0.9,1.8H200.4z M210.4,63.7c-0.2,0.2-0.4,0.3-0.7,0.4s-0.6,0.2-0.9,0.2c-0.3,0.1-0.6,0.1-1,0.2
		c-0.3,0-0.7,0.1-1,0.2c-0.3,0.1-0.6,0.1-1,0.2c-0.3,0.1-0.6,0.2-0.8,0.4c-0.2,0.2-0.4,0.4-0.6,0.7c-0.1,0.3-0.2,0.6-0.2,1
		c0,0.4,0.1,0.7,0.2,1c0.1,0.3,0.3,0.5,0.6,0.6c0.2,0.2,0.5,0.3,0.9,0.3c0.3,0.1,0.7,0.1,1,0.1c0.9,0,1.5-0.1,2-0.4
		c0.5-0.3,0.8-0.6,1-1c0.2-0.4,0.4-0.8,0.4-1.2s0.1-0.7,0.1-1V63.7z"/>
	<path d="M230.2,67.5c0.2,0.3,0.4,0.6,0.7,0.8c0.3,0.2,0.7,0.4,1.1,0.5c0.4,0.1,0.8,0.2,1.2,0.2c0.3,0,0.6,0,1-0.1s0.6-0.2,0.9-0.3
		c0.3-0.2,0.5-0.4,0.7-0.6s0.3-0.6,0.3-1c0-0.7-0.4-1.1-1.3-1.5c-0.9-0.3-2.1-0.7-3.6-1c-0.6-0.1-1.2-0.3-1.8-0.5
		c-0.6-0.2-1.1-0.4-1.6-0.8c-0.5-0.3-0.8-0.7-1.1-1.2s-0.4-1.1-0.4-1.8c0-1,0.2-1.9,0.6-2.5c0.4-0.7,0.9-1.2,1.6-1.5
		c0.7-0.4,1.4-0.6,2.2-0.8c0.8-0.2,1.6-0.2,2.5-0.2c0.9,0,1.7,0.1,2.5,0.2c0.8,0.2,1.5,0.4,2.2,0.8c0.6,0.4,1.2,0.9,1.6,1.5
		c0.4,0.6,0.7,1.5,0.7,2.4h-4.1c-0.1-0.8-0.4-1.4-0.9-1.7c-0.6-0.3-1.2-0.4-2-0.4c-0.2,0-0.5,0-0.8,0c-0.3,0-0.5,0.1-0.8,0.2
		c-0.2,0.1-0.4,0.2-0.6,0.4c-0.2,0.2-0.2,0.5-0.2,0.8c0,0.4,0.1,0.7,0.4,0.9c0.3,0.2,0.7,0.4,1.1,0.6c0.5,0.2,1,0.3,1.6,0.4
		c0.6,0.1,1.2,0.3,1.8,0.4c0.6,0.1,1.2,0.3,1.8,0.5c0.6,0.2,1.1,0.5,1.6,0.8c0.5,0.3,0.8,0.8,1.1,1.3c0.3,0.5,0.4,1.1,0.4,1.8
		c0,1-0.2,1.9-0.6,2.6c-0.4,0.7-1,1.3-1.6,1.7c-0.7,0.4-1.4,0.7-2.3,0.9c-0.9,0.2-1.7,0.3-2.6,0.3c-0.9,0-1.8-0.1-2.7-0.3
		c-0.9-0.2-1.7-0.5-2.3-0.9s-1.2-1-1.7-1.7c-0.4-0.7-0.7-1.6-0.7-2.6h4.1C230,66.8,230.1,67.2,230.2,67.5z"/>
	<path d="M243.1,53.2v-3.6h4.3v3.6H243.1z M247.5,55.7v15.8h-4.3V55.7H247.5z"/>
	<path d="M255,55.7v2.2h0.1c0.5-0.9,1.3-1.6,2.1-2c0.9-0.4,1.8-0.6,2.7-0.6c1.2,0,2.1,0.2,2.9,0.5c0.7,0.3,1.3,0.8,1.8,1.3
		c0.4,0.6,0.7,1.2,0.9,2c0.2,0.8,0.3,1.7,0.3,2.7v9.7h-4.3v-8.9c0-1.3-0.2-2.3-0.6-2.9c-0.4-0.6-1.1-1-2.2-1c-1.2,0-2,0.4-2.6,1.1
		c-0.5,0.7-0.8,1.9-0.8,3.5v8.3h-4.3V55.7H255z"/>
	<path d="M283.9,72.6c-0.2,0.8-0.5,1.6-1.1,2.3c-0.6,0.7-1.4,1.3-2.5,1.8c-1.1,0.5-2.5,0.7-4.3,0.7c-0.8,0-1.6-0.1-2.4-0.3
		c-0.8-0.2-1.5-0.5-2.2-0.9c-0.7-0.4-1.2-0.9-1.6-1.6c-0.4-0.6-0.7-1.4-0.7-2.3h4.3c0.2,0.8,0.6,1.4,1.2,1.7c0.6,0.3,1.3,0.5,2,0.5
		c1.2,0,2.1-0.4,2.7-1.1c0.6-0.7,0.8-1.7,0.8-2.8v-2.1H280c-0.5,0.8-1.1,1.5-2,1.8c-0.9,0.4-1.8,0.6-2.7,0.6c-1.2,0-2.2-0.2-3.1-0.6
		c-0.9-0.4-1.6-1-2.1-1.7c-0.5-0.7-1-1.6-1.2-2.5c-0.3-1-0.4-2-0.4-3.1c0-1,0.1-2,0.4-2.9c0.3-0.9,0.7-1.8,1.3-2.5
		c0.6-0.7,1.3-1.3,2.1-1.7c0.8-0.4,1.8-0.6,2.9-0.6c1,0,1.9,0.2,2.7,0.6c0.8,0.4,1.4,1,2,2h0.1v-2.1h4.1v14.8
		C284.2,71.1,284.1,71.8,283.9,72.6z M278,67.4c0.5-0.2,0.9-0.6,1.2-1c0.3-0.4,0.5-0.9,0.7-1.4c0.2-0.5,0.2-1.1,0.2-1.6
		c0-0.7-0.1-1.3-0.2-1.8c-0.1-0.6-0.3-1.1-0.6-1.5c-0.3-0.4-0.7-0.8-1.1-1.1c-0.5-0.3-1.1-0.4-1.8-0.4c-0.6,0-1.1,0.1-1.6,0.4
		c-0.4,0.2-0.8,0.6-1.1,1c-0.3,0.4-0.5,0.9-0.6,1.4c-0.1,0.5-0.2,1.1-0.2,1.7c0,0.6,0.1,1.1,0.2,1.7c0.1,0.6,0.3,1.1,0.6,1.5
		c0.3,0.4,0.6,0.8,1.1,1.1c0.4,0.3,1,0.4,1.7,0.4C277,67.7,277.5,67.6,278,67.4z"/>
	<path d="M292.1,49.7v21.8h-4.3V49.7H292.1z"/>
	<path d="M300.2,67.7c0.7,0.6,1.6,0.9,2.8,0.9c0.9,0,1.6-0.2,2.3-0.7c0.6-0.4,1-0.9,1.2-1.4h3.8c-0.6,1.9-1.5,3.2-2.8,4.1
		s-2.8,1.2-4.6,1.2c-1.2,0-2.4-0.2-3.4-0.6c-1-0.4-1.8-1-2.5-1.7c-0.7-0.7-1.2-1.6-1.6-2.6c-0.4-1-0.6-2.1-0.6-3.4
		c0-1.2,0.2-2.3,0.6-3.3c0.4-1,0.9-1.9,1.6-2.6s1.6-1.3,2.6-1.8s2.1-0.6,3.3-0.6c1.3,0,2.5,0.3,3.5,0.8c1,0.5,1.8,1.2,2.5,2.1
		c0.6,0.9,1.1,1.9,1.4,3c0.3,1.1,0.4,2.3,0.3,3.5h-11.4C299.2,66,299.5,67,300.2,67.7z M305.1,59.4c-0.5-0.6-1.3-0.9-2.4-0.9
		c-0.7,0-1.3,0.1-1.7,0.4c-0.5,0.2-0.8,0.5-1.1,0.9c-0.3,0.3-0.5,0.7-0.6,1.1c-0.1,0.4-0.2,0.7-0.2,1h7.1
		C306,60.8,305.6,59.9,305.1,59.4z"/>
	<path d="M325.7,66.1c0.3,0.5,0.6,0.9,1.1,1.2c0.4,0.3,1,0.5,1.5,0.7c0.6,0.2,1.2,0.2,1.8,0.2c0.4,0,0.9,0,1.4-0.1s0.9-0.2,1.4-0.4
		c0.4-0.2,0.8-0.5,1.1-0.8c0.3-0.4,0.4-0.8,0.4-1.4c0-0.6-0.2-1.1-0.6-1.4c-0.4-0.4-0.9-0.7-1.5-0.9s-1.3-0.5-2.1-0.6
		c-0.8-0.2-1.6-0.4-2.4-0.6c-0.8-0.2-1.6-0.5-2.4-0.7c-0.8-0.3-1.5-0.7-2.1-1.1c-0.6-0.5-1.1-1.1-1.5-1.8c-0.4-0.7-0.6-1.6-0.6-2.5
		c0-1.1,0.2-2.1,0.7-2.9s1.1-1.5,1.9-2.1s1.6-1,2.6-1.2s2-0.4,2.9-0.4c1.1,0,2.2,0.1,3.3,0.4c1,0.3,2,0.7,2.8,1.2
		c0.8,0.6,1.5,1.3,1.9,2.2c0.5,0.9,0.7,2,0.7,3.2h-4.6c0-0.7-0.2-1.2-0.4-1.6c-0.2-0.4-0.5-0.8-0.9-1c-0.4-0.2-0.8-0.4-1.3-0.5
		c-0.5-0.1-1-0.2-1.6-0.2c-0.4,0-0.8,0-1.2,0.1c-0.4,0.1-0.7,0.2-1.1,0.4c-0.3,0.2-0.6,0.5-0.8,0.8c-0.2,0.3-0.3,0.7-0.3,1.2
		c0,0.4,0.1,0.8,0.2,1c0.2,0.3,0.5,0.5,1,0.7c0.5,0.2,1.1,0.4,2,0.7c0.8,0.2,1.9,0.5,3.3,0.9c0.4,0.1,1,0.2,1.7,0.4
		c0.7,0.2,1.4,0.6,2.2,1c0.7,0.5,1.3,1.1,1.8,1.9c0.5,0.8,0.8,1.8,0.8,3c0,1-0.2,1.9-0.6,2.8c-0.4,0.9-1,1.6-1.7,2.2
		s-1.7,1.1-2.8,1.5c-1.1,0.3-2.4,0.5-3.9,0.5c-1.2,0-2.4-0.1-3.5-0.4c-1.1-0.3-2.1-0.8-3-1.4c-0.9-0.6-1.6-1.4-2.1-2.4
		s-0.8-2.1-0.7-3.5h4.6C325.3,65,325.4,65.6,325.7,66.1z"/>
	<path d="M340.1,53.7v-4H358v4h-6.5v17.8h-4.8V53.7H340.1z"/>
	<path d="M376.8,49.7v4h-11.5v4.7h10.6v3.7h-10.6v5.3H377v4h-16.6V49.7H376.8z"/>
	<path d="M390.1,49.7c1.4,0,2.5,0.2,3.5,0.6c1,0.4,1.7,0.9,2.3,1.6s1,1.4,1.3,2.2c0.3,0.8,0.4,1.7,0.4,2.6c0,0.9-0.1,1.7-0.4,2.6
		c-0.3,0.8-0.7,1.6-1.3,2.2s-1.4,1.2-2.3,1.6c-1,0.4-2.1,0.6-3.5,0.6h-5v7.8h-4.8V49.7H390.1z M388.8,59.9c0.5,0,1.1,0,1.6-0.1
		s1-0.2,1.3-0.5c0.4-0.2,0.7-0.6,0.9-1s0.4-1,0.4-1.7c0-0.7-0.1-1.3-0.4-1.7s-0.5-0.8-0.9-1c-0.4-0.2-0.8-0.4-1.3-0.5
		s-1-0.1-1.6-0.1h-3.7v6.5H388.8z"/>
</g>
</svg>
