<?xml version="1.0" encoding="utf-8"?>
<!-- Generator: Adobe Illustrator 25.4.1, SVG Export Plug-In . SVG Version: 6.00 Build 0)  -->
<svg version="1.1" id="Layer_1" xmlns="http://www.w3.org/2000/svg" xmlns:xlink="http://www.w3.org/1999/xlink" x="0px" y="0px"
	 viewBox="0 0 728 90" style="enable-background:new 0 0 728 90;" xml:space="preserve">
<style type="text/css">
	.st0{clip-path:url(#SVGID_00000031909219139171846900000012649543742197545357_);fill:#349946;}
	.st1{fill:#FFFFFF;}
</style>
<g>
	<defs>
		<rect id="SVGID_1_" x="535.7" y="12.1" width="116.3" height="24.5"/>
	</defs>
	<clipPath id="SVGID_00000053538864648708228780000004364553531799635610_">
		<use xlink:href="#SVGID_1_"  style="overflow:visible;"/>
	</clipPath>
	<path style="clip-path:url(#SVGID_00000053538864648708228780000004364553531799635610_);fill:#349946;" d="M652,24.4
		c0,6.7-6.3,12.3-14.1,12.3h-88.2c-7.7,0-14.1-5.5-14.1-12.3s6.3-12.3,14.1-12.3h88.2C645.7,12.1,652,17.6,652,24.4"/>
</g>
<g>
	<path class="st1" d="M558.6,20.7c0.3,0,0.7,0.1,0.9,0.2s0.5,0.3,0.7,0.5s0.4,0.4,0.5,0.7c0.1,0.3,0.2,0.5,0.2,0.8
		c0,0.5-0.1,0.9-0.3,1.2c-0.2,0.3-0.5,0.6-0.9,0.8v0c0.2,0.1,0.4,0.1,0.5,0.3s0.3,0.3,0.3,0.4c0.1,0.2,0.2,0.3,0.2,0.5
		s0.1,0.4,0.1,0.6c0,0.1,0,0.3,0,0.4c0,0.2,0,0.3,0,0.5c0,0.2,0,0.3,0.1,0.5c0,0.2,0.1,0.3,0.2,0.4h-1.7c-0.1-0.2-0.2-0.5-0.2-0.9
		c0-0.3-0.1-0.7-0.1-1c-0.1-0.4-0.2-0.7-0.4-0.9c-0.2-0.2-0.5-0.3-0.9-0.3h-1.7v3.1h-1.7v-7.8H558.6z M558,24.2
		c0.4,0,0.7-0.1,0.9-0.3s0.3-0.5,0.3-0.9c0-0.4-0.1-0.7-0.3-0.8c-0.2-0.2-0.5-0.3-0.9-0.3h-1.9v2.2H558z"/>
	<path class="st1" d="M568.1,20.7v1.4H564v1.7h3.8v1.3H564v1.9h4.2v1.4h-5.9v-7.8H568.1z"/>
	<path class="st1" d="M573.3,20.7l2.9,7.8h-1.8l-0.6-1.7h-2.9l-0.6,1.7h-1.7l3-7.8H573.3z M573.4,25.5l-1-2.9h0l-1,2.9H573.4z"/>
	<path class="st1" d="M580.2,20.7c0.5,0,1,0.1,1.4,0.2s0.8,0.4,1.1,0.7c0.3,0.3,0.6,0.7,0.7,1.2s0.3,1,0.3,1.7
		c0,0.6-0.1,1.1-0.2,1.6c-0.1,0.5-0.4,0.9-0.7,1.2s-0.7,0.6-1.1,0.8c-0.4,0.2-1,0.3-1.6,0.3h-3.4v-7.8H580.2z M580.1,27.1
		c0.2,0,0.5,0,0.7-0.1c0.2-0.1,0.4-0.2,0.6-0.4s0.3-0.4,0.4-0.7c0.1-0.3,0.2-0.7,0.2-1.1c0-0.4,0-0.8-0.1-1.1
		c-0.1-0.3-0.2-0.6-0.4-0.8c-0.2-0.2-0.4-0.4-0.7-0.5c-0.3-0.1-0.6-0.2-1.1-0.2h-1.2v4.9H580.1z"/>
	<path class="st1" d="M591.9,20.7l2.9,7.8h-1.8l-0.6-1.7h-2.9l-0.6,1.7h-1.7l3-7.8H591.9z M592,25.5l-1-2.9h0l-1,2.9H592z"/>
	<path class="st1" d="M599.8,20.7c0.3,0,0.7,0.1,0.9,0.2s0.5,0.3,0.7,0.5s0.4,0.4,0.5,0.7c0.1,0.3,0.2,0.5,0.2,0.8
		c0,0.5-0.1,0.9-0.3,1.2c-0.2,0.3-0.5,0.6-0.9,0.8v0c0.2,0.1,0.4,0.1,0.5,0.3s0.3,0.3,0.3,0.4c0.1,0.2,0.2,0.3,0.2,0.5
		s0.1,0.4,0.1,0.6c0,0.1,0,0.3,0,0.4c0,0.2,0,0.3,0,0.5c0,0.2,0,0.3,0.1,0.5c0,0.2,0.1,0.3,0.2,0.4h-1.7c-0.1-0.2-0.2-0.5-0.2-0.9
		c0-0.3-0.1-0.7-0.1-1c-0.1-0.4-0.2-0.7-0.4-0.9c-0.2-0.2-0.5-0.3-0.9-0.3h-1.7v3.1h-1.7v-7.8H599.8z M599.1,24.2
		c0.4,0,0.7-0.1,0.9-0.3s0.3-0.5,0.3-0.9c0-0.4-0.1-0.7-0.3-0.8c-0.2-0.2-0.5-0.3-0.9-0.3h-1.9v2.2H599.1z"/>
</g>
<g>
	<path class="st1" d="M602.6,22.2v-1.4h6.4v1.4h-2.3v6.4H605v-6.4H602.6z"/>
	<path class="st1" d="M611.7,20.7v7.8h-1.7v-7.8H611.7z"/>
	<path class="st1" d="M618.2,22.8c-0.1-0.2-0.2-0.3-0.4-0.4s-0.3-0.2-0.5-0.3s-0.4-0.1-0.6-0.1c-0.4,0-0.7,0.1-1,0.2
		c-0.3,0.1-0.5,0.4-0.7,0.6s-0.3,0.5-0.4,0.9c-0.1,0.3-0.1,0.7-0.1,1c0,0.3,0,0.6,0.1,1c0.1,0.3,0.2,0.6,0.4,0.8
		c0.2,0.2,0.4,0.4,0.7,0.6c0.3,0.1,0.6,0.2,1,0.2c0.5,0,0.9-0.2,1.2-0.5s0.5-0.7,0.5-1.3h1.7c0,0.5-0.2,0.9-0.3,1.3
		c-0.2,0.4-0.4,0.7-0.7,1c-0.3,0.3-0.7,0.5-1.1,0.6c-0.4,0.1-0.8,0.2-1.3,0.2c-0.6,0-1.1-0.1-1.6-0.3c-0.5-0.2-0.9-0.5-1.2-0.9
		c-0.3-0.4-0.6-0.8-0.8-1.3c-0.2-0.5-0.3-1-0.3-1.6c0-0.6,0.1-1.1,0.3-1.6c0.2-0.5,0.4-0.9,0.8-1.3c0.3-0.4,0.7-0.7,1.2-0.9
		c0.5-0.2,1-0.3,1.6-0.3c0.4,0,0.8,0.1,1.2,0.2c0.4,0.1,0.7,0.3,1,0.5c0.3,0.2,0.6,0.5,0.8,0.9c0.2,0.4,0.3,0.8,0.4,1.2h-1.7
		C618.4,23.1,618.3,23,618.2,22.8z"/>
	<path class="st1" d="M623,20.7v6.4h3.8v1.4h-5.5v-7.8H623z"/>
	<path class="st1" d="M633.6,20.7v1.4h-4.1v1.7h3.8v1.3h-3.8v1.9h4.2v1.4h-5.9v-7.8H633.6z"/>
</g>
</svg>
