<?xml version="1.0" encoding="utf-8"?>
<!-- Generator: Adobe Illustrator 25.4.1, SVG Export Plug-In . SVG Version: 6.00 Build 0)  -->
<svg version="1.1" id="Layer_1" xmlns="http://www.w3.org/2000/svg" xmlns:xlink="http://www.w3.org/1999/xlink" x="0px" y="0px"
	 viewBox="0 0 728 90" style="enable-background:new 0 0 728 90;" xml:space="preserve">
<style type="text/css">
	.st0{clip-path:url(#SVGID_00000019657319711727581130000004702117890930018181_);fill:#231F20;}
	.st1{clip-path:url(#SVGID_00000019657319711727581130000004702117890930018181_);fill:#00B2EE;}
</style>
<g>
	<defs>
		<rect id="SVGID_1_" x="560.8" y="41.5" width="64.2" height="21.8"/>
	</defs>
	<clipPath id="SVGID_00000168838421177712252070000008189711974936928400_">
		<use xlink:href="#SVGID_1_"  style="overflow:visible;"/>
	</clipPath>
	<path style="clip-path:url(#SVGID_00000168838421177712252070000008189711974936928400_);fill:#231F20;" d="M561.2,53.2h3.4
		c2.7,0,3.3,1.8,3.3,3c0,1.2-0.5,2.9-3.3,2.9h-1.8v3.7h-1.7V53.2z M562.9,57.8h1.7c0.8,0,1.7-0.4,1.7-1.6c0-1.3-0.8-1.6-1.6-1.6
		h-1.7V57.8z"/>
	<path style="clip-path:url(#SVGID_00000168838421177712252070000008189711974936928400_);fill:#231F20;" d="M568.9,55.9h1.4v1.3h0
		c0.2-0.7,1.1-1.5,2-1.5c0.3,0,0.4,0,0.6,0v1.5c-0.2,0-0.4-0.1-0.7-0.1c-1,0-1.9,0.8-1.9,2.4v3.3h-1.5V55.9z"/>
	<path style="clip-path:url(#SVGID_00000168838421177712252070000008189711974936928400_);fill:#231F20;" d="M573.2,59.3
		c0-2.1,1.3-3.6,3.5-3.6c2.2,0,3.5,1.5,3.5,3.6c0,2.1-1.3,3.7-3.5,3.7C574.5,63,573.2,61.5,573.2,59.3 M578.6,59.3
		c0-1.2-0.6-2.4-2-2.4s-2,1.2-2,2.4c0,1.2,0.6,2.5,2,2.5S578.6,60.5,578.6,59.3"/>
	<path style="clip-path:url(#SVGID_00000168838421177712252070000008189711974936928400_);fill:#231F20;" d="M580.4,55.9h1.2v-2.1
		h1.5v2.1h1.4V57h-1.4v3.7c0,0.6,0.1,1,0.7,1c0.2,0,0.4,0,0.6-0.1v1.2c-0.3,0-0.7,0.1-1,0.1c-1.6,0-1.9-0.6-1.9-1.8V57h-1.2V55.9z"
		/>
	<path style="clip-path:url(#SVGID_00000168838421177712252070000008189711974936928400_);fill:#231F20;" d="M586.6,59.7
		c0,1.1,0.6,2,1.9,2c0.9,0,1.4-0.4,1.7-1.2h1.4c-0.3,1.5-1.6,2.4-3.1,2.4c-2.2,0-3.4-1.5-3.4-3.6c0-2,1.3-3.7,3.4-3.7
		c2.2,0,3.5,2,3.3,4H586.6z M590.2,58.7c-0.1-1-0.7-1.8-1.7-1.8c-1.1,0-1.8,0.8-1.8,1.8H590.2z"/>
	<path style="clip-path:url(#SVGID_00000168838421177712252070000008189711974936928400_);fill:#231F20;" d="M597.5,58.2
		c-0.1-0.8-0.7-1.3-1.6-1.3c-0.8,0-1.9,0.4-1.9,2.5c0,1.2,0.5,2.4,1.8,2.4c0.9,0,1.5-0.6,1.6-1.6h1.5c-0.3,1.8-1.4,2.8-3.2,2.8
		c-2.2,0-3.4-1.5-3.4-3.6c0-2.1,1.1-3.7,3.4-3.7c1.6,0,3,0.8,3.1,2.5H597.5z"/>
	<path style="clip-path:url(#SVGID_00000168838421177712252070000008189711974936928400_);fill:#231F20;" d="M599.4,55.9h1.2v-2.1
		h1.5v2.1h1.4V57h-1.4v3.7c0,0.6,0.1,1,0.7,1c0.2,0,0.4,0,0.6-0.1v1.2c-0.3,0-0.7,0.1-1,0.1c-1.6,0-1.9-0.6-1.9-1.8V57h-1.2V55.9z"
		/>
	<path style="clip-path:url(#SVGID_00000168838421177712252070000008189711974936928400_);fill:#231F20;" d="M605.3,53.2h1.5v1.4
		h-1.5V53.2z M605.3,55.9h1.5v6.9h-1.5V55.9z"/>
	<polygon style="clip-path:url(#SVGID_00000168838421177712252070000008189711974936928400_);fill:#231F20;" points="607.9,55.9 
		609.5,55.9 611.7,61.2 611.7,61.2 613.8,55.9 615.4,55.9 612.5,62.8 610.8,62.8 	"/>
	<path style="clip-path:url(#SVGID_00000168838421177712252070000008189711974936928400_);fill:#231F20;" d="M617.3,59.7
		c0,1.1,0.6,2,1.9,2c0.9,0,1.4-0.4,1.7-1.2h1.4c-0.3,1.5-1.6,2.4-3.1,2.4c-2.2,0-3.4-1.5-3.4-3.6c0-2,1.3-3.7,3.3-3.7
		c2.2,0,3.5,2,3.3,4H617.3z M620.9,58.7c-0.1-1-0.7-1.8-1.7-1.8c-1.1,0-1.8,0.8-1.8,1.8H620.9z"/>
	<path style="clip-path:url(#SVGID_00000168838421177712252070000008189711974936928400_);fill:#00B2EE;" d="M602.4,51.6
		c-1-3.8-4-6.8-7.8-7.8c-0.3-1.2-1.4-2-2.7-2c-1.3,0-2.4,0.9-2.7,2c-3.8,1-6.8,3.9-7.8,7.8l-0.1,0.4h2.3l0.1-0.2
		c0.9-2.8,3.1-4.9,5.8-5.7c0.5,0.8,1.4,1.4,2.4,1.4c1,0,2-0.6,2.5-1.4c2.7,0.8,4.9,2.9,5.8,5.7l0.1,0.2h2.3L602.4,51.6z"/>
	<path style="clip-path:url(#SVGID_00000168838421177712252070000008189711974936928400_);fill:#231F20;" d="M624,61.6
		c0.4,0,0.7,0.3,0.7,0.7S624.4,63,624,63c-0.4,0-0.7-0.3-0.7-0.7S623.6,61.6,624,61.6 M624.5,62.3c0-0.3-0.2-0.6-0.6-0.6
		s-0.6,0.3-0.6,0.6c0,0.3,0.2,0.6,0.6,0.6S624.5,62.6,624.5,62.3 M623.7,61.9h0.3c0.2,0,0.3,0.1,0.3,0.2c0,0.1-0.1,0.2-0.2,0.2
		l0.2,0.3h-0.1l-0.2-0.3h-0.1v0.3h-0.1V61.9z M624,62.3c0.1,0,0.2,0,0.2-0.1c0-0.1-0.1-0.1-0.2-0.1h-0.2v0.2H624z"/>
</g>
</svg>
