<svg id="Layer_1" xmlns="http://www.w3.org/2000/svg" xmlns:xlink="http://www.w3.org/1999/xlink" viewBox="0 0 320 50"><style>.st0,.st1{clip-path:url(#SVGID_00000070805500666856423120000004476757371564978367_);fill:#231f20}.st1{fill:#22b0e6}</style><defs><path id="SVGID_1_" d="M233.1 23.1H271V36h-37.9z"/></defs><clipPath id="SVGID_00000132055436503269989000000007643085041670464670_"><use xlink:href="#SVGID_1_" overflow="visible"/></clipPath><path d="M233.3 30h2c1.6 0 1.9 1 1.9 1.7s-.3 1.7-1.9 1.7h-1v2.2h-1V30zm1 2.7h1c.4 0 1-.2 1-.9s-.4-.9-1-.9h-1v1.8zM237.9 31.5h.8v.8c.1-.4.6-.9 1.2-.9h.3v.9h-.4c-.6 0-1.1.5-1.1 1.4v1.9h-.9v-4.1zM240.4 33.6c0-1.2.8-2.2 2.1-2.2s2.1.9 2.1 2.2c0 1.3-.8 2.2-2.1 2.2-1.4-.1-2.1-1-2.1-2.2m3.2 0c0-.7-.4-1.4-1.2-1.4-.8 0-1.2.7-1.2 1.4s.4 1.4 1.2 1.4c.9 0 1.2-.7 1.2-1.4M244.6 31.5h.7v-1.2h.9v1.2h.8v.7h-.8v2.2c0 .4 0 .6.4.6h.4v.7h-.6c-.9 0-1.1-.4-1.1-1v-2.4h-.7v-.8zM248.3 33.8c0 .6.3 1.2 1.1 1.2.5 0 .8-.2 1-.7h.9c-.2.9-1 1.4-1.9 1.4-1.3 0-2-.9-2-2.2 0-1.2.8-2.2 2-2.2 1.3 0 2.1 1.2 1.9 2.4h-3zm2.1-.6c0-.6-.4-1.1-1-1.1s-1.1.5-1.1 1.1h2.1zM254.7 32.9c-.1-.5-.4-.8-.9-.8s-1.1.2-1.1 1.5c0 .7.3 1.4 1.1 1.4.5 0 .9-.3 1-.9h.9c-.2 1.1-.8 1.6-1.9 1.6-1.3 0-2-.9-2-2.1 0-1.2.7-2.2 2-2.2.9 0 1.8.5 1.8 1.5h-.9zM255.9 31.5h.7v-1.2h.9v1.2h.8v.7h-.8v2.2c0 .4 0 .6.4.6h.4v.7h-.6c-.9 0-1.1-.4-1.1-1v-2.4h-.7v-.8zM259.3 30h.9v.9h-.9V30zm0 1.5h.9v4.1h-.9v-4.1zM260.9 31.5h.9l1.3 3.2 1.2-3.2h1l-1.7 4.1h-1zM266.4 33.8c0 .6.3 1.2 1.1 1.2.5 0 .8-.2 1-.7h.9c-.2.9-1 1.4-1.9 1.4-1.3 0-2-.9-2-2.2 0-1.2.8-2.2 2-2.2 1.3 0 2.1 1.2 1.9 2.4h-3zm2.1-.6c0-.6-.4-1.1-1-1.1s-1.1.5-1.1 1.1h2.1z" clip-path="url(#SVGID_00000132055436503269989000000007643085041670464670_)" fill="#231f20"/><path d="M257.6 29c-.6-2.2-2.4-4-4.6-4.6-.2-.7-.8-1.2-1.6-1.2s-1.4.5-1.6 1.2c-2.2.6-4 2.3-4.6 4.6l-.1.3h1.4v-.1c.5-1.6 1.8-2.9 3.4-3.4.3.5.8.8 1.4.8.6 0 1.2-.3 1.4-.8 1.6.5 2.9 1.7 3.4 3.4v.1h1.4l.1-.3z" clip-path="url(#SVGID_00000132055436503269989000000007643085041670464670_)" fill="#22b0e6"/><path d="M270.4 34.9c.2 0 .4.2.4.4s-.2.4-.4.4-.4-.2-.4-.4.1-.4.4-.4m.3.4c0-.2-.1-.3-.3-.3-.2 0-.3.2-.3.3s.1.3.3.3c.1.1.3-.1.3-.3m-.5-.2h.2c.1 0 .2 0 .2.1s-.1.1-.1.1l.1.2h-.1l-.1-.2h-.1v.2h-.1v-.4zm.1.2c.1 0 .1 0 .1-.1s-.1-.1-.1-.1h-.1l.1.2z" clip-path="url(#SVGID_00000132055436503269989000000007643085041670464670_)" fill="#231f20"/></svg>