<svg id="Layer_1" xmlns="http://www.w3.org/2000/svg" viewBox="0 0 160 600"><style>.st0{fill:#349946}</style><path class="st0" d="M19.3 133.1l6.7 18h-4.1l-1.4-4h-6.7l-1.4 4h-4l6.8-18h4.1zm.2 11l-2.3-6.6h-.1l-2.3 6.6h4.7zM44.9 147.3c-.1.7-.4 1.4-.8 2-.4.6-1 1.1-1.8 1.5-.8.4-1.9.6-3.2.6-.8 0-1.5-.1-2.2-.3-.7-.2-1.3-.5-1.9-1-.6-.4-1-1-1.3-1.7-.3-.7-.5-1.5-.5-2.5v-1.6h3.6v.8c0 .4 0 .8.1 1.2s.2.7.4.9.4.5.7.6c.3.2.7.2 1.1.2.5 0 .9-.1 1.2-.3.3-.2.5-.4.6-.7.1-.3.2-.6.2-1v-13.1H45v12.3c.1.7 0 1.4-.1 2.1zM48.4 138.4c.4-1.1 1-2.1 1.7-3s1.7-1.5 2.8-2 2.3-.7 3.7-.7c1.4 0 2.6.2 3.7.7 1.1.5 2 1.2 2.8 2 .8.9 1.3 1.9 1.7 3 .4 1.1.6 2.4.6 3.7 0 1.3-.2 2.5-.6 3.7s-1 2.1-1.7 3c-.8.8-1.7 1.5-2.8 2-1.1.5-2.3.7-3.7.7-1.4 0-2.6-.2-3.7-.7-1.1-.5-2-1.1-2.8-2-.8-.8-1.3-1.8-1.7-3s-.6-2.4-.6-3.7c-.1-1.3.1-2.6.6-3.7zm3.6 5.9c.2.7.5 1.4.8 1.9.4.6.9 1 1.5 1.4.6.3 1.4.5 2.3.5.9 0 1.6-.2 2.3-.5.6-.3 1.1-.8 1.5-1.4.4-.6.7-1.2.8-1.9.2-.7.3-1.4.3-2.2 0-.8-.1-1.6-.3-2.3-.2-.7-.5-1.4-.8-2-.4-.6-.9-1-1.5-1.4-.6-.3-1.4-.5-2.3-.5-.9 0-1.6.2-2.3.5-.6.3-1.1.8-1.5 1.4-.4.6-.7 1.2-.8 2-.2.7-.3 1.5-.3 2.3 0 .8.1 1.5.3 2.2zM81.3 149.6c-1.4 1.2-3.2 1.8-5.6 1.8-2.4 0-4.3-.6-5.6-1.8-1.3-1.2-2-3-2-5.4V133H72v11.2c0 .5 0 1 .1 1.4.1.5.3.9.5 1.2.3.4.6.7 1.1.9.5.2 1.1.3 1.9.3 1.4 0 2.4-.3 2.9-.9.5-.6.8-1.6.8-3v-11.2h3.9v11.2c.1 2.6-.6 4.4-1.9 5.5zM96.4 133.1c.8 0 1.5.1 2.2.4.6.3 1.2.6 1.7 1.1s.8 1 1.1 1.6c.2.6.4 1.2.4 1.9 0 1.1-.2 2-.7 2.7-.4.8-1.2 1.4-2.2 1.8v.1c.5.1.9.3 1.2.6.3.3.6.6.8 1 .2.4.3.8.4 1.2s.2.9.2 1.4c0 .3 0 .6.1 1 0 .4 0 .8.1 1.2s.1.8.2 1.1c.1.4.2.7.4.9h-3.9c-.2-.6-.4-1.2-.4-2s-.1-1.5-.2-2.3c-.1-.9-.4-1.6-.9-2.1-.4-.4-1.1-.7-2.1-.7h-3.9v7H87v-18h9.4zm-1.4 8.1c.9 0 1.6-.2 2-.6.5-.4.7-1.1.7-2 0-.9-.2-1.5-.7-1.9-.5-.4-1.1-.6-2-.6h-4.3v5.1H95zM108.8 133.1l7.5 12h.1v-12h3.7v18h-3.9l-7.5-12v12H105v-18h3.8zM136.9 133.1v3.3h-9.5v3.8h8.7v3.1h-8.7v4.4h9.7v3.3h-13.6v-18h13.4zM137.9 133.1h4.4l4.2 7.1 4.2-7.1h4.4l-6.7 11.1v6.9h-3.9v-7l-6.6-11z"/><g><path class="st0" d="M10 168.3c.3-.8.8-1.6 1.4-2.2.6-.6 1.3-1.1 2.1-1.4.8-.3 1.7-.5 2.8-.5s1.9.2 2.8.5c.8.3 1.5.8 2.1 1.4.6.6 1 1.3 1.4 2.2.3.8.5 1.8.5 2.8 0 1-.2 2-.5 2.8-.3.8-.8 1.6-1.4 2.1-.6.6-1.3 1.1-2.1 1.4-.8.3-1.8.5-2.8.5s-1.9-.2-2.8-.5c-.8-.3-1.5-.8-2.1-1.4-.6-.6-1-1.3-1.4-2.1s-.5-1.8-.5-2.8c.1-1 .2-2 .5-2.8zm3.3 4.4c.1.5.3.9.5 1.3s.6.7 1 .9c.4.2.9.4 1.5.4s1.1-.1 1.5-.4c.4-.2.7-.5 1-.9.2-.4.4-.8.5-1.3.1-.5.2-1 .2-1.5s-.1-1-.2-1.5-.3-.9-.5-1.3-.6-.7-1-.9c-.4-.2-.9-.4-1.5-.4s-1.1.1-1.5.4c-.4.2-.7.6-1 .9-.2.4-.4.8-.5 1.3s-.2 1-.2 1.5.1 1 .2 1.5zM24 167v-2.4h2.1v-1c0-1.2.4-2.1 1.1-2.8.7-.7 1.8-1.1 3.3-1.1h1c.3 0 .6 0 .9.1v2.7c-.4-.1-.9-.1-1.3-.1-.5 0-.8.1-1 .3-.2.2-.3.6-.3 1.1v.8h2.5v2.4h-2.5v10.6h-3.6V167H24zM40.5 168.6c.1-.8.3-1.5.6-2.1s.8-1 1.4-1.3 1.2-.6 1.9-.7c.7-.1 1.4-.2 2.1-.2.7 0 1.3 0 2 .1s1.3.3 1.8.5 1 .6 1.4 1.1c.4.5.5 1.1.5 1.9v6.8c0 .6 0 1.1.1 1.7.1.5.2.9.4 1.2h-3.6c-.1-.2-.1-.4-.2-.6 0-.2-.1-.4-.1-.6-.6.6-1.2 1-2 1.2-.8.2-1.6.4-2.4.4-.6 0-1.2-.1-1.7-.2-.5-.2-1-.4-1.4-.7-.4-.3-.7-.7-.9-1.2-.2-.5-.3-1.1-.3-1.7 0-.7.1-1.3.4-1.8.3-.5.6-.9 1-1.1.4-.3.9-.5 1.4-.6.5-.1 1.1-.3 1.6-.3.5-.1 1.1-.2 1.6-.2.5-.1 1-.1 1.4-.2s.7-.2 1-.4c.2-.2.3-.5.3-.8 0-.4-.1-.7-.2-.9-.1-.2-.3-.4-.5-.5-.2-.1-.5-.2-.7-.3-.3 0-.6-.1-.9-.1-.7 0-1.3.2-1.7.5-.4.3-.6.8-.7 1.5h-3.6zm8.3 2.7c-.2.1-.3.2-.6.3-.2.1-.5.1-.7.2-.3.1-.5.1-.8.1-.3 0-.6.1-.9.1-.3.1-.5.1-.8.2-.3.1-.5.2-.7.3-.2.1-.3.3-.5.5-.1.2-.2.5-.2.8 0 .3.1.6.2.8.1.2.3.4.5.5.2.1.4.2.7.3s.5.1.8.1c.7 0 1.2-.1 1.6-.4.4-.2.7-.5.9-.8.2-.3.3-.7.3-1 0-.3.1-.6.1-.8v-1.2z"/></g><g><path class="st0" d="M8.9 189.6v-3.3h14.7v3.3h-5.4v14.6h-3.9v-14.6H8.9zM29.6 186.3v6.9h7.3v-6.9h3.9v18h-3.9v-7.7h-7.3v7.7h-3.9v-18h3.9zM44.2 191.6c.4-1.1 1-2.1 1.7-3s1.7-1.5 2.8-2 2.3-.7 3.7-.7c1.4 0 2.6.2 3.7.7 1.1.5 2 1.2 2.8 2s1.3 1.9 1.7 3c.4 1.1.6 2.4.6 3.7 0 1.3-.2 2.5-.6 3.7s-1 2.1-1.7 3c-.8.8-1.7 1.5-2.8 2-1.1.5-2.3.7-3.7.7-1.4 0-2.6-.2-3.7-.7-1.1-.5-2-1.1-2.8-2-.8-.8-1.3-1.8-1.7-3s-.6-2.4-.6-3.7c-.1-1.3.1-2.6.6-3.7zm3.6 5.9c.2.7.5 1.4.8 1.9.4.6.9 1 1.5 1.4.6.3 1.4.5 2.3.5.9 0 1.6-.2 2.3-.5.6-.3 1.1-.8 1.5-1.4.4-.6.7-1.2.8-1.9.2-.7.3-1.4.3-2.2 0-.8-.1-1.6-.3-2.3-.2-.7-.5-1.4-.8-2-.4-.6-.9-1-1.5-1.4-.6-.3-1.4-.5-2.3-.5-.9 0-1.6.2-2.3.5-.6.3-1.1.8-1.5 1.4-.4.6-.7 1.2-.8 2-.2.7-.3 1.5-.3 2.3 0 .8.1 1.5.3 2.2zM77.1 202.9c-1.4 1.2-3.2 1.8-5.6 1.8-2.4 0-4.3-.6-5.6-1.8-1.3-1.2-2-3-2-5.4v-11.2h3.9v11.2c0 .5 0 1 .1 1.4.1.5.3.9.5 1.2.3.4.6.7 1.1.9.5.2 1.1.3 1.9.3 1.4 0 2.4-.3 2.9-.9.5-.6.8-1.6.8-3v-11.2H79v11.2c.1 2.5-.6 4.3-1.9 5.5zM85.5 199.8c.2.4.5.8.9 1 .4.3.8.5 1.3.6.5.1 1 .2 1.5.2.4 0 .7 0 1.1-.1s.8-.2 1.1-.3c.4-.2.6-.4.9-.7.2-.3.4-.7.4-1.1 0-.5-.2-.9-.5-1.2-.3-.3-.7-.6-1.2-.8-.5-.2-1.1-.4-1.7-.5-.6-.2-1.3-.3-1.9-.5-.7-.2-1.3-.4-2-.6-.6-.2-1.2-.6-1.7-.9-.5-.4-.9-.9-1.2-1.4-.3-.6-.5-1.3-.5-2.1 0-.9.2-1.7.6-2.4.4-.7.9-1.2 1.5-1.7s1.4-.8 2.2-1 1.6-.3 2.4-.3c.9 0 1.8.1 2.7.3.9.2 1.6.5 2.3 1 .7.5 1.2 1.1 1.6 1.8.4.7.6 1.6.6 2.7h-3.8c0-.5-.1-1-.3-1.3s-.4-.6-.8-.8-.7-.3-1.1-.4c-.4-.1-.9-.1-1.3-.1-.3 0-.6 0-1 .1s-.6.2-.9.4c-.3.2-.5.4-.6.6s-.3.6-.3 1 .1.6.2.9c.1.2.4.4.8.6.4.2.9.4 1.6.6s1.6.4 2.7.7c.3.1.8.2 1.4.4.6.2 1.2.5 1.8.8.6.4 1.1.9 1.5 1.5.4.6.6 1.5.6 2.5 0 .8-.2 1.6-.5 2.3s-.8 1.3-1.4 1.8c-.6.5-1.4.9-2.3 1.2-.9.3-2 .4-3.2.4-1 0-1.9-.1-2.9-.4-.9-.2-1.8-.6-2.5-1.1-.7-.5-1.3-1.2-1.7-2s-.6-1.8-.6-2.9h3.8c.1.3.2.8.4 1.2zM107.8 186.3l6.7 18h-4.1l-1.4-4h-6.7l-1.4 4h-4l6.8-18h4.1zm.2 11l-2.3-6.6-2.3 6.6h4.6zM120 186.3l7.5 12h.1v-12h3.7v18h-3.9l-7.5-12v12h-3.7v-18h3.8zM142.4 186.3c1.2 0 2.2.2 3.2.6 1 .4 1.9.9 2.6 1.7.7.7 1.3 1.7 1.7 2.8.4 1.1.6 2.4.6 3.9 0 1.3-.2 2.5-.5 3.6s-.8 2.1-1.5 2.9-1.5 1.4-2.5 1.9-2.2.7-3.6.7h-7.7v-18h7.7zm-.2 14.6c.6 0 1.1-.1 1.7-.3.5-.2 1-.5 1.4-.9.4-.4.8-1 1-1.7.3-.7.4-1.5.4-2.5 0-.9-.1-1.7-.3-2.5-.2-.7-.5-1.4-.9-1.9s-.9-.9-1.6-1.2c-.7-.3-1.5-.4-2.5-.4h-2.8v11.3h3.6z"/></g><g><path class="st0" d="M13.3 226.4c.2.4.5.8.9 1 .4.3.8.5 1.3.6.5.1 1 .2 1.5.2.4 0 .7 0 1.1-.1s.8-.2 1.1-.3c.4-.2.6-.4.9-.7.2-.3.4-.7.4-1.1 0-.5-.2-.9-.5-1.2-.3-.3-.7-.6-1.2-.8-.5-.2-1.1-.4-1.7-.5-.6-.2-1.3-.3-1.9-.5-.7-.2-1.3-.4-2-.6-.6-.2-1.2-.6-1.7-.9-.5-.4-.9-.9-1.2-1.4-.3-.6-.5-1.3-.5-2.1 0-.9.2-1.7.6-2.4.4-.7.9-1.2 1.5-1.7s1.4-.8 2.2-1 1.6-.3 2.4-.3c.9 0 1.8.1 2.7.3.9.2 1.6.5 2.3 1 .7.5 1.2 1.1 1.6 1.8.4.7.6 1.6.6 2.7h-3.8c0-.5-.1-1-.3-1.3-.2-.4-.4-.6-.8-.8-.3-.2-.7-.3-1.1-.4-.4-.1-.9-.1-1.3-.1-.3 0-.6 0-1 .1-.3.1-.6.2-.9.4s-.5.4-.6.6-.3.6-.3 1 .1.6.2.9.4.4.8.6.9.4 1.6.6c.7.2 1.6.4 2.7.7.3.1.8.2 1.4.4.6.2 1.2.5 1.8.8.6.4 1.1.9 1.5 1.5.4.6.6 1.5.6 2.5 0 .8-.2 1.6-.5 2.3-.3.7-.8 1.3-1.4 1.8-.6.5-1.4.9-2.3 1.2-.9.3-2 .4-3.2.4-1 0-1.9-.1-2.9-.4-.9-.2-1.8-.6-2.5-1.1-.7-.5-1.3-1.2-1.7-2-.4-.8-.6-1.8-.6-2.9H13c0 .3.1.8.3 1.2zM32.2 212.9l4.2 12.3h.1l4-12.3H46v18h-3.7v-12.7h-.1l-4.4 12.7h-3l-4.4-12.6h-.1v12.6h-3.7v-18h5.6zM53.4 212.9v18h-3.9v-18h3.9zM60.8 212.9v14.6h8.8v3.3H56.9v-18h3.9zM85.2 212.9v3.3h-9.5v3.8h8.7v3.1h-8.7v4.4h9.7v3.3H71.8v-18h13.4zM91.1 226.4c.2.4.5.8.9 1 .4.3.8.5 1.3.6.5.1 1 .2 1.5.2.4 0 .7 0 1.1-.1s.8-.2 1.1-.3c.4-.2.6-.4.9-.7.2-.3.4-.7.4-1.1 0-.5-.2-.9-.5-1.2-.3-.3-.7-.6-1.2-.8-.5-.2-1.1-.4-1.7-.5-.6-.2-1.3-.3-1.9-.5-.7-.2-1.3-.4-2-.6-.6-.2-1.2-.6-1.7-.9-.5-.4-.9-.9-1.2-1.4-.3-.6-.5-1.3-.5-2.1 0-.9.2-1.7.6-2.4.4-.7.9-1.2 1.5-1.7s1.4-.8 2.2-1 1.6-.3 2.4-.3c.9 0 1.8.1 2.7.3.9.2 1.6.5 2.3 1 .7.5 1.2 1.1 1.6 1.8.4.7.6 1.6.6 2.7h-3.8c0-.5-.1-1-.3-1.3s-.4-.6-.8-.8-.7-.3-1.1-.4c-.4-.1-.9-.1-1.3-.1-.3 0-.6 0-1 .1s-.6.2-.9.4c-.3.2-.5.4-.6.6s-.3.6-.3 1 .1.6.2.9c.1.2.4.4.8.6.4.2.9.4 1.6.6s1.6.4 2.7.7c.3.1.8.2 1.4.4.6.2 1.2.5 1.8.8.6.4 1.1.9 1.5 1.5.4.6.6 1.5.6 2.5 0 .8-.2 1.6-.5 2.3s-.8 1.3-1.4 1.8c-.6.5-1.4.9-2.3 1.2-.9.3-2 .4-3.2.4-1 0-1.9-.1-2.9-.4-.9-.2-1.8-.6-2.5-1.1-.7-.5-1.3-1.2-1.7-2s-.6-1.8-.6-2.9h3.8c.1.3.2.8.4 1.2z"/></g><g><path d="M13.5 240.5v6.5h.1c.4-.7 1-1.2 1.8-1.5.7-.3 1.5-.5 2.3-.5.7 0 1.3.1 1.9.4.6.3 1.2.7 1.7 1.2.5.6.9 1.3 1.2 2.1.3.9.5 1.9.5 3.1 0 1.2-.2 2.2-.5 3.1-.3.9-.7 1.6-1.2 2.1-.5.6-1.1 1-1.7 1.2-.6.3-1.3.4-1.9.4-1 0-1.8-.2-2.6-.5s-1.3-.8-1.7-1.5h-.1v1.7H10v-18h3.5zm5.8 9.8c-.1-.5-.3-.9-.6-1.3s-.6-.7-.9-.9c-.4-.2-.8-.3-1.4-.3-.5 0-1 .1-1.4.3-.4.2-.7.5-1 .9-.3.4-.4.8-.6 1.3s-.2 1-.2 1.6c0 .5.1 1.1.2 1.6s.3.9.6 1.3.6.7 1 .9c.4.2.8.3 1.4.3.5 0 1-.1 1.4-.3.4-.2.7-.5.9-.9.3-.4.4-.8.6-1.3s.2-1 .2-1.6c0-.5-.1-1.1-.2-1.6zM29.1 255.3c.5.5 1.3.8 2.3.8.7 0 1.3-.2 1.9-.5.5-.4.8-.7 1-1.1h3.1c-.5 1.6-1.3 2.7-2.3 3.3-1 .7-2.3 1-3.8 1-1 0-1.9-.2-2.8-.5-.8-.3-1.5-.8-2.1-1.4-.6-.6-1-1.3-1.3-2.2-.3-.8-.5-1.8-.5-2.8 0-1 .2-1.9.5-2.7.3-.8.8-1.6 1.4-2.2.6-.6 1.3-1.1 2.1-1.4.8-.4 1.7-.5 2.7-.5 1.1 0 2.1.2 2.9.6.8.4 1.5 1 2 1.7s.9 1.5 1.1 2.5c.2.9.3 1.9.3 2.9h-9.4c.1 1.1.4 2 .9 2.5zm4.1-6.8c-.4-.5-1.1-.7-1.9-.7-.6 0-1 .1-1.4.3-.4.2-.7.4-.9.7-.2.3-.4.6-.5.9-.1.3-.1.6-.2.9h5.8c-.2-1-.5-1.7-.9-2.1zM52 259.4c-.1.7-.4 1.3-.9 1.9-.5.6-1.1 1.1-2 1.5-.9.4-2.1.6-3.6.6-.6 0-1.3-.1-1.9-.2-.7-.2-1.3-.4-1.8-.7-.5-.3-1-.8-1.4-1.3-.4-.5-.6-1.2-.6-1.9h3.5c.2.7.5 1.1 1 1.4.5.3 1 .4 1.7.4 1 0 1.7-.3 2.2-.9.5-.6.7-1.4.7-2.3V256h-.1c-.4.7-.9 1.2-1.6 1.5-.7.3-1.5.5-2.2.5-1 0-1.8-.2-2.5-.5s-1.3-.8-1.7-1.4c-.5-.6-.8-1.3-1-2.1-.2-.8-.3-1.6-.3-2.5 0-.8.1-1.6.4-2.4.2-.8.6-1.5 1.1-2.1.5-.6 1.1-1.1 1.7-1.4.7-.4 1.5-.5 2.4-.5.9 0 1.6.2 2.3.5.6.3 1.2.9 1.6 1.6h.1v-1.7h3.4v12.2c-.3.4-.3 1-.5 1.7zm-4.9-4.4c.4-.2.7-.5 1-.8s.4-.7.6-1.1c.1-.4.2-.9.2-1.3 0-.5-.1-1-.2-1.5s-.3-.9-.5-1.3-.5-.7-.9-.9c-.4-.2-.9-.3-1.5-.3-.5 0-.9.1-1.3.3-.4.2-.7.5-.9.8-.2.3-.4.7-.5 1.2-.1.4-.2.9-.2 1.4 0 .5 0 .9.1 1.4.1.5.3.9.5 1.2s.5.7.9.9c.4.2.8.4 1.4.4.5-.1 1-.2 1.3-.4zM55.2 243.4v-2.9h3.6v2.9h-3.6zm3.6 2v13h-3.6v-13h3.6zM65 245.4v1.8h.1c.5-.8 1-1.3 1.8-1.6.7-.3 1.5-.5 2.2-.5 1 0 1.7.1 2.3.4.6.3 1.1.6 1.4 1.1.4.5.6 1 .7 1.7.1.7.2 1.4.2 2.2v8h-3.6v-7.3c0-1.1-.2-1.9-.5-2.4s-.9-.8-1.8-.8c-1 0-1.7.3-2.1.9-.4.6-.7 1.5-.7 2.9v6.8h-3.6v-13H65zM79.5 255.2c.2.3.4.5.6.7.3.2.5.3.9.4.3.1.7.1 1 .1.3 0 .5 0 .8-.1.3-.1.5-.2.8-.3.2-.1.4-.3.6-.5.2-.2.2-.5.2-.8 0-.5-.4-.9-1.1-1.2-.7-.3-1.7-.5-3-.8-.5-.1-1-.3-1.5-.4-.5-.2-.9-.4-1.3-.6-.4-.3-.7-.6-.9-1-.2-.4-.4-.9-.4-1.4 0-.8.2-1.5.5-2.1.3-.5.8-1 1.3-1.3.5-.3 1.1-.5 1.8-.7.7-.1 1.4-.2 2.1-.2s1.4.1 2 .2c.7.1 1.3.4 1.8.7.5.3 1 .7 1.3 1.3.3.5.5 1.2.6 2h-3.4c-.1-.7-.3-1.2-.8-1.4-.5-.2-1-.4-1.7-.4H81c-.2 0-.4.1-.6.2-.2.1-.4.2-.5.4-.1.2-.2.4-.2.6 0 .3.1.6.4.8.2.2.5.4.9.5s.8.2 1.3.3l1.5.3c.5.1 1 .3 1.5.4.5.2.9.4 1.3.7.4.3.7.6.9 1 .2.4.4.9.4 1.5 0 .9-.2 1.6-.5 2.1-.3.6-.8 1-1.3 1.4-.6.4-1.2.6-1.9.7-.7.1-1.4.2-2.2.2-.8 0-1.5-.1-2.2-.2-.7-.2-1.4-.4-1.9-.8s-1-.8-1.4-1.4c-.4-.6-.6-1.3-.6-2.2h3.4c0 .7.1 1 .2 1.3zM108.2 258.4l-2.3-8.7h-.1l-2.2 8.7h-3.7l-4.1-13h3.8l2.4 8.8 2.2-8.8h3.5l2.2 8.8 2.4-8.8h3.7l-4.1 13h-3.7zM117.6 243.4v-2.9h3.6v2.9h-3.6zm3.5 2v13h-3.6v-13h3.6zM131.1 245.4v2.4h-2.6v6.4c0 .6.1 1 .3 1.2s.6.3 1.2.3h.6c.2 0 .4 0 .5-.1v2.8c-.3.1-.6.1-1 .1H129c-.6 0-1.1 0-1.6-.1s-.9-.2-1.3-.4-.7-.5-.9-.9c-.2-.4-.3-.9-.3-1.6v-7.7h-2.2v-2.4h2.2v-3.9h3.6v3.9h2.6zM136.4 240.5v6.8h.1c.5-.8 1-1.3 1.7-1.6.7-.3 1.4-.5 2.1-.5 1 0 1.7.1 2.4.4.6.3 1.1.6 1.4 1.1.4.5.6 1 .7 1.7.1.7.2 1.4.2 2.2v8h-3.6v-7.3c0-1.1-.2-1.9-.5-2.4s-.9-.8-1.8-.8c-1 0-1.7.3-2.1.9-.4.6-.7 1.5-.7 2.9v6.8h-3.6v-18h3.7z"/></g><g><path d="M9.8 277c.1-.8.3-1.5.6-2.1s.8-1 1.4-1.3 1.2-.6 1.9-.7c.7-.1 1.4-.2 2.1-.2.7 0 1.3 0 2 .1s1.3.3 1.8.5 1 .6 1.4 1.1c.4.5.5 1.1.5 1.9v6.8c0 .6 0 1.1.1 1.7.1.5.2.9.4 1.2h-3.6c-.1-.2-.1-.4-.2-.6 0-.2-.1-.4-.1-.6-.6.6-1.2 1-2 1.2-.8.2-1.6.4-2.4.4-.6 0-1.2-.1-1.7-.2-.5-.2-1-.4-1.4-.7-.4-.3-.7-.7-.9-1.2-.2-.5-.3-1.1-.3-1.7 0-.7.1-1.3.4-1.8.3-.5.6-.9 1-1.1.4-.3.9-.5 1.4-.6.5-.1 1.1-.3 1.6-.3.5-.1 1.1-.2 1.6-.2.5-.1 1-.1 1.4-.2s.7-.2 1-.4c.2-.2.3-.5.3-.8 0-.4-.1-.7-.2-.9-.1-.2-.3-.4-.5-.5-.2-.1-.5-.2-.7-.3-.3 0-.6-.1-.9-.1-.7 0-1.3.2-1.7.5-.4.3-.6.8-.7 1.5H9.8zm8.3 2.6c-.2.1-.3.2-.6.3-.2.1-.5.1-.7.2-.3.1-.5.1-.8.1-.3 0-.6.1-.9.1-.3.1-.5.1-.8.2-.3.1-.5.2-.7.3-.2.1-.3.3-.5.5-.1.2-.2.5-.2.8 0 .3.1.6.2.8.1.2.3.4.5.5.2.1.4.2.7.3s.5.1.8.1c.7 0 1.2-.1 1.6-.4.4-.2.7-.5.9-.8.2-.3.3-.7.3-1 0-.3.1-.6.1-.8v-1.2zM34.4 282.8c.2.3.4.5.6.7.3.2.5.3.9.4.3.1.7.1 1 .1.3 0 .5 0 .8-.1.3-.1.5-.2.8-.3.2-.1.4-.3.6-.5.2-.2.2-.5.2-.8 0-.5-.4-.9-1.1-1.2-.7-.3-1.7-.5-3-.8-.5-.1-1-.3-1.5-.4-.5-.2-.9-.4-1.3-.6-.4-.3-.7-.6-.9-1-.2-.4-.4-.9-.4-1.4 0-.8.2-1.5.5-2.1.3-.5.8-1 1.3-1.3.5-.3 1.1-.5 1.8-.7.7-.1 1.4-.2 2.1-.2s1.4.1 2 .2c.7.1 1.3.4 1.8.7s1 .7 1.3 1.3c.3.5.5 1.2.6 2H39c-.1-.7-.3-1.2-.8-1.4-.5-.2-1-.4-1.7-.4h-.7c-.2 0-.4.1-.6.2-.2.1-.4.2-.5.4-.1.2-.2.4-.2.6 0 .3.1.6.4.8.2.2.5.4.9.5.4.1.8.2 1.3.3l1.5.3c.5.1 1 .3 1.5.4.5.2.9.4 1.3.7.4.3.7.6.9 1 .2.4.4.9.4 1.5 0 .9-.2 1.6-.5 2.1-.3.6-.8 1-1.3 1.4s-1.2.6-1.9.7c-.7.1-1.4.2-2.2.2-.8 0-1.5-.1-2.2-.2s-1.4-.4-1.9-.8c-.6-.4-1-.8-1.4-1.4-.4-.6-.6-1.3-.6-2.2h3.4c0 .6.1 1 .3 1.3zM45 271v-3h3.6v2.9H45zm3.6 2v13H45v-13h3.6zM54.8 273v1.8h.1c.5-.8 1-1.3 1.8-1.6.7-.3 1.5-.5 2.2-.5 1 0 1.7.1 2.4.4.6.3 1.1.6 1.4 1.1.4.5.6 1 .7 1.7.1.7.2 1.4.2 2.2v8H60v-7.3c0-1.1-.2-1.9-.5-2.4s-.9-.8-1.8-.8c-1 0-1.7.3-2.1.9-.4.6-.7 1.5-.7 2.9v6.8h-3.6v-13h3.5zM78.6 286.9c-.1.7-.4 1.3-.9 1.9-.5.6-1.1 1.1-2 1.5s-2.1.6-3.6.6c-.6 0-1.3-.1-1.9-.2-.7-.2-1.3-.4-1.8-.7s-1-.8-1.4-1.3c-.4-.5-.6-1.2-.6-1.9h3.5c.2.7.5 1.1 1 1.4.5.3 1 .4 1.7.4 1 0 1.7-.3 2.2-.9s.7-1.4.7-2.3v-1.7c-.4.7-.9 1.2-1.6 1.5-.7.3-1.5.5-2.2.5-1 0-1.8-.2-2.5-.5s-1.3-.8-1.7-1.4c-.5-.6-.8-1.3-1-2.1-.2-.8-.3-1.6-.3-2.5 0-.8.1-1.6.4-2.4.2-.8.6-1.5 1.1-2.1.5-.6 1.1-1.1 1.7-1.4.7-.4 1.5-.5 2.4-.5.9 0 1.6.2 2.2.5s1.2.9 1.6 1.6V273H79v12.2c-.2.5-.3 1.1-.4 1.7zm-4.9-4.3c.4-.2.7-.5 1-.8.3-.3.4-.7.6-1.1.1-.4.2-.9.2-1.3 0-.5 0-1-.2-1.5s-.3-.9-.5-1.3-.5-.7-.9-.9c-.4-.2-.9-.3-1.5-.3-.5 0-.9.1-1.3.3-.4.2-.7.5-.9.8-.2.3-.4.7-.5 1.2-.1.4-.2.9-.2 1.4 0 .5 0 .9.1 1.4s.3.9.5 1.2c.2.4.5.7.9.9.4.2.8.4 1.4.4.4-.1.9-.2 1.3-.4zM85.3 268v18h-3.6v-18h3.6zM92 282.9c.5.5 1.3.8 2.3.8.7 0 1.3-.2 1.9-.5s.8-.7 1-1.1h3.1c-.5 1.6-1.3 2.7-2.3 3.3-1 .7-2.3 1-3.8 1-1 0-1.9-.2-2.8-.5-.8-.3-1.5-.8-2.1-1.4-.6-.6-1-1.3-1.3-2.2-.3-.8-.5-1.8-.5-2.8 0-1 .2-1.9.5-2.7.3-.8.8-1.6 1.4-2.2.6-.6 1.3-1.1 2.1-1.4s1.7-.5 2.7-.5c1.1 0 2.1.2 2.9.6.8.4 1.5 1 2 1.7s.9 1.5 1.1 2.5c.2.9.3 1.9.3 2.9h-9.4c0 1.1.3 1.9.9 2.5zm4-6.9c-.4-.5-1.1-.7-1.9-.7-.6 0-1 .1-1.4.3-.4.2-.7.4-.9.7-.2.3-.4.6-.5.9-.1.3-.1.6-.2.9h5.8c-.2-.9-.5-1.6-.9-2.1z"/></g><g><path d="M13.3 309.1c.2.4.5.8.9 1s.8.5 1.3.6c.5.1 1 .2 1.5.2.4 0 .7 0 1.1-.1.4-.1.8-.2 1.1-.3.4-.2.6-.4.9-.7.2-.3.4-.7.4-1.1 0-.5-.2-.9-.5-1.2-.3-.3-.7-.6-1.2-.8-.5-.2-1.1-.4-1.7-.5-.6-.2-1.3-.3-1.9-.5-.7-.2-1.3-.4-2-.6-.6-.2-1.2-.6-1.7-.9-.5-.4-.9-.9-1.2-1.4-.3-.6-.5-1.3-.5-2.1 0-.9.2-1.7.6-2.4.4-.7.9-1.2 1.5-1.7s1.4-.8 2.2-1 1.6-.3 2.4-.3c.9 0 1.8.1 2.7.3.9.2 1.6.5 2.3 1 .7.5 1.2 1.1 1.6 1.8.4.7.6 1.6.6 2.7h-3.8c0-.5-.1-1-.3-1.3-.2-.4-.4-.6-.8-.8-.3-.2-.7-.3-1.1-.4-.4-.1-.9-.1-1.3-.1-.3 0-.6 0-1 .1-.3.1-.6.2-.9.4s-.5.4-.6.6-.3.6-.3 1 .1.6.2.9c.1.2.4.4.8.6.4.2.9.4 1.6.6.7.2 1.6.4 2.7.7.3.1.8.2 1.4.4.6.2 1.2.5 1.8.8.6.4 1.1.9 1.5 1.5.4.6.6 1.5.6 2.5 0 .8-.2 1.6-.5 2.3-.3.7-.8 1.3-1.4 1.8-.6.5-1.4.9-2.3 1.2-.9.3-2 .4-3.2.4-1 0-1.9-.1-2.9-.4-.9-.2-1.8-.6-2.5-1.1-.7-.5-1.3-1.2-1.7-2-.4-.8-.6-1.8-.6-2.9H13c0 .3.1.8.3 1.2zM25.2 298.9v-3.3H40v3.3h-5.4v14.6h-3.9v-14.6h-5.5zM55.4 295.6v3.3H46v3.8h8.7v3.1H46v4.4h9.7v3.3H42v-18h13.4zM66.4 295.6c1.1 0 2.1.2 2.9.5.8.3 1.4.8 1.9 1.3s.9 1.1 1.1 1.8c.2.7.3 1.4.3 2.1 0 .7-.1 1.4-.3 2.1s-.6 1.3-1.1 1.8c-.5.5-1.1 1-1.9 1.3-.8.3-1.7.5-2.9.5h-4.1v6.4h-3.9v-18h8zm-1.1 8.4c.5 0 .9 0 1.3-.1s.8-.2 1.1-.4c.3-.2.6-.5.8-.8.2-.4.3-.8.3-1.4 0-.6-.1-1-.3-1.4s-.4-.6-.8-.8c-.3-.2-.7-.3-1.1-.4-.4-.1-.9-.1-1.3-.1h-3.1v5.4h3.1z"/></g></svg>