<svg xmlns="http://www.w3.org/2000/svg" viewBox="0 0 160 600"><path d="M21 150.2c-.8.3-1.6.5-2.4.5-1.3 0-2.4-.2-3.4-.7-1-.4-1.9-1-2.5-1.8s-1.2-1.7-1.6-2.7c-.4-1-.6-2.2-.6-3.3 0-1.2.2-2.4.6-3.4.4-1 .9-2 1.6-2.7.7-.8 1.5-1.4 2.5-1.8 1-.4 2.1-.7 3.4-.7.8 0 1.7.1 2.4.4.8.3 1.5.6 2.1 1.1.6.5 1.2 1.1 1.6 1.8s.7 1.5.8 2.5H22c-.2-.9-.6-1.6-1.2-2.1s-1.4-.7-2.2-.7c-.8 0-1.5.2-2.1.5-.6.3-1 .7-1.4 1.3-.4.5-.6 1.1-.8 1.8s-.2 1.4-.2 2.1c0 .7.1 1.4.2 2s.4 1.2.8 1.8c.4.5.8.9 1.4 1.3.6.3 1.3.5 2.1.5 1.2 0 2.1-.3 2.8-.9.7-.6 1-1.5 1.1-2.6h-3.6v-2.7h6.9v8.9h-2.3l-.4-1.9c-.6.6-1.3 1.1-2.1 1.5zM31.7 147.4c.5.5 1.2.7 2.1.7.7 0 1.2-.2 1.7-.5s.8-.7.9-1h2.9c-.5 1.4-1.2 2.4-2.1 3.1-1 .6-2.1.9-3.5.9-.9 0-1.8-.1-2.5-.4-.8-.3-1.4-.7-1.9-1.3-.5-.6-.9-1.2-1.2-2s-.4-1.6-.4-2.5c0-.9.1-1.7.4-2.5.3-.8.7-1.4 1.2-2 .5-.6 1.2-1 1.9-1.3.7-.3 1.6-.5 2.5-.5 1 0 1.9.2 2.6.6s1.4.9 1.9 1.6.8 1.4 1 2.3c.2.8.3 1.7.2 2.6h-8.6c.1 1 .4 1.8.9 2.2zm3.7-6.2c-.4-.4-1-.6-1.8-.6-.5 0-1 .1-1.3.3-.3.2-.6.4-.8.7s-.4.5-.4.8c-.1.3-.1.6-.1.8h5.3c-.3-1-.5-1.6-.9-2zM47.7 138.4v2.2h-2.4v5.9c0 .6.1.9.3 1.1.2.2.6.3 1.1.3h.5c.2 0 .3 0 .5-.1v2.5c-.3 0-.6.1-.9.1h-1c-.5 0-1 0-1.4-.1-.5-.1-.9-.2-1.2-.4-.3-.2-.6-.5-.8-.9-.2-.4-.3-.9-.3-1.4v-7h-2v-2.2h2v-3.6h3.3v3.6h2.3zM55.6 138.4v2.2h-2.4v5.9c0 .6.1.9.3 1.1.2.2.6.3 1.1.3h.5c.2 0 .3 0 .5-.1v2.5c-.3 0-.6.1-.9.1h-1c-.5 0-1 0-1.4-.1-.5-.1-.9-.2-1.2-.4-.3-.2-.6-.5-.8-.9-.2-.4-.3-.9-.3-1.4v-7h-2v-2.2h2v-3.6h3.3v3.6h2.3zM57.1 136.6v-2.7h3.3v2.7h-3.3zm3.2 1.8v11.9H57v-11.9h3.3zM65.8 138.4v1.7h.1c.4-.7.9-1.2 1.6-1.5.7-.3 1.3-.5 2-.5.9 0 1.6.1 2.2.4.6.2 1 .6 1.3 1 .3.4.5.9.7 1.5.1.6.2 1.3.2 2v7.3h-3.3v-6.7c0-1-.2-1.7-.5-2.2s-.8-.7-1.6-.7c-.9 0-1.5.3-1.9.8-.4.5-.6 1.4-.6 2.6v6.2h-3.3v-11.9h3.1zM87.3 151.2c-.1.6-.4 1.2-.8 1.7s-1 1-1.9 1.3c-.8.4-1.9.6-3.3.6-.6 0-1.2-.1-1.8-.2-.6-.1-1.2-.4-1.7-.7s-.9-.7-1.2-1.2c-.3-.5-.5-1.1-.6-1.7h3.2c.2.6.5 1 .9 1.3.4.2 1 .4 1.5.4.9 0 1.6-.3 2-.8.4-.6.6-1.2.6-2.1v-1.6c-.4.6-.9 1.1-1.5 1.4-.7.3-1.3.4-2.1.4-.9 0-1.7-.2-2.3-.5-.6-.3-1.2-.7-1.6-1.3-.4-.5-.7-1.2-.9-1.9-.2-.7-.3-1.5-.3-2.3 0-.8.1-1.5.3-2.2.2-.7.5-1.3 1-1.9.4-.5 1-1 1.6-1.3.6-.3 1.4-.5 2.2-.5.8 0 1.5.1 2.1.4.6.3 1.1.8 1.5 1.5v-1.6h3.1v11.1c.2.5.2 1.1 0 1.7zm-4.4-4c.4-.2.6-.4.9-.7.2-.3.4-.7.5-1 .1-.4.2-.8.2-1.2 0-.5 0-1-.1-1.4-.1-.4-.2-.8-.5-1.2-.2-.3-.5-.6-.9-.8-.4-.2-.8-.3-1.3-.3s-.9.1-1.2.3c-.3.2-.6.4-.8.7-.2.3-.4.7-.5 1.1s-.1.8-.1 1.3c0 .4 0 .9.1 1.3s.2.8.4 1.1c.2.3.5.6.8.8.3.2.8.3 1.3.3.4 0 .8-.1 1.2-.3zM14.3 159.9v16.4H11v-16.4h3.3zM16.7 167.8c.3-.8.7-1.4 1.2-2 .5-.5 1.2-1 1.9-1.3.8-.3 1.6-.4 2.5-.4.9 0 1.8.1 2.5.4.8.3 1.4.7 1.9 1.3.5.5 1 1.2 1.2 2 .3.8.4 1.6.4 2.6s-.1 1.8-.4 2.6c-.3.8-.7 1.4-1.2 2-.5.5-1.2 1-1.9 1.3-.8.3-1.6.4-2.5.4-.9 0-1.8-.1-2.5-.4-.8-.3-1.4-.7-1.9-1.3-.5-.5-1-1.2-1.2-2-.3-.8-.4-1.6-.4-2.6s.2-1.9.4-2.6zm3 3.9c.1.5.2.9.5 1.2.2.4.5.6.9.9.4.2.8.3 1.4.3.6 0 1-.1 1.4-.3.4-.2.7-.5.9-.9.2-.4.4-.8.5-1.2.1-.5.1-.9.1-1.4 0-.5 0-.9-.1-1.4-.1-.5-.2-.9-.5-1.2-.2-.4-.5-.6-.9-.9-.4-.2-.8-.3-1.4-.3-.6 0-1 .1-1.4.3-.4.2-.7.5-.9.9-.2.4-.4.8-.5 1.2-.1.5-.1.9-.1 1.4 0 .5 0 1 .1 1.4zM40.8 176.3l-2.1-8-2 8h-3.4l-3.8-11.9h3.4l2.2 8.1 2-8.1h3.2l2 8.1 2.2-8.1h3.4l-3.7 11.9h-3.4zM55.9 168.6v2.8H49v-2.8h6.9zM63.9 166.5c-.5 0-1 .1-1.3.4-.4.2-.6.5-.9.9-.2.4-.4.8-.5 1.2-.1.5-.1.9-.1 1.3s0 .9.1 1.3.2.8.4 1.2c.2.4.5.7.8.9.4.2.8.3 1.3.3.8 0 1.4-.2 1.8-.7.4-.4.7-1 .8-1.8h3.2c-.2 1.6-.8 2.8-1.8 3.6-1 .8-2.3 1.2-3.9 1.2-.9 0-1.7-.1-2.4-.4-.7-.3-1.4-.7-1.9-1.3-.5-.5-.9-1.2-1.2-1.9-.3-.7-.4-1.6-.4-2.4 0-.9.1-1.8.4-2.6.3-.8.7-1.5 1.2-2 .5-.6 1.2-1 1.9-1.3.8-.3 1.6-.5 2.6-.5.7 0 1.4.1 2 .3.7.2 1.2.5 1.7.8.5.4.9.8 1.3 1.4s.5 1.2.6 2h-3.2c-.3-1.2-1.1-1.9-2.5-1.9zM71.3 167.8c.3-.8.7-1.4 1.2-2 .5-.5 1.2-1 1.9-1.3.8-.3 1.6-.4 2.5-.4s1.8.1 2.5.4c.8.3 1.4.7 1.9 1.3.5.5 1 1.2 1.2 2 .3.8.4 1.6.4 2.6s-.1 1.8-.4 2.6c-.3.8-.7 1.4-1.2 2-.5.5-1.2 1-1.9 1.3-.8.3-1.6.4-2.5.4s-1.8-.1-2.5-.4c-.8-.3-1.4-.7-1.9-1.3-.5-.5-1-1.2-1.2-2-.3-.8-.4-1.6-.4-2.6-.1-1 .1-1.9.4-2.6zm2.9 3.9c.1.5.2.9.5 1.2.2.4.5.6.9.9s.8.3 1.4.3c.6 0 1-.1 1.4-.3s.7-.5.9-.9c.2-.4.4-.8.5-1.2.1-.5.1-.9.1-1.4 0-.5 0-.9-.1-1.4-.1-.5-.2-.9-.5-1.2-.2-.4-.5-.6-.9-.9s-.8-.3-1.4-.3c-.6 0-1 .1-1.4.3s-.7.5-.9.9c-.2.4-.4.8-.5 1.2-.1.5-.1.9-.1 1.4 0 .5 0 1 .1 1.4zM87.8 173.3c.1.3.3.5.6.6.2.2.5.3.8.4.3.1.6.1.9.1.2 0 .5 0 .7-.1s.5-.1.7-.3c.2-.1.4-.3.5-.5.1-.2.2-.4.2-.7 0-.5-.3-.9-1-1.1s-1.6-.5-2.7-.7c-.5-.1-.9-.2-1.4-.4-.5-.1-.9-.3-1.2-.6-.4-.2-.6-.5-.9-.9s-.3-.8-.3-1.3c0-.8.1-1.4.4-1.9s.7-.9 1.2-1.2c.5-.3 1-.5 1.7-.6.6-.1 1.2-.2 1.9-.2.6 0 1.3.1 1.9.2s1.1.3 1.6.6.9.7 1.2 1.2c.3.5.5 1.1.6 1.8H92c0-.6-.3-1.1-.7-1.3-.4-.2-.9-.3-1.5-.3h-.6c-.2 0-.4.1-.6.1-.2.1-.3.2-.4.3-.1.1-.2.3-.2.6s.1.5.3.7c.2.2.5.3.8.4.3.1.7.2 1.2.3.4.1.9.2 1.4.3.5.1.9.2 1.4.4.5.2.9.4 1.2.6s.6.6.9.9c.2.4.3.8.3 1.4 0 .8-.2 1.4-.5 2-.3.5-.7 1-1.2 1.3-.5.3-1.1.5-1.7.7-.7.1-1.3.2-2 .2s-1.4-.1-2-.2c-.7-.1-1.2-.4-1.8-.7-.5-.3-.9-.7-1.3-1.3-.3-.5-.5-1.2-.5-2h3.1c0 .7 0 1 .2 1.2zM103.7 164.4v2.2h-2.4v5.9c0 .6.1.9.3 1.1.2.2.6.3 1.1.3h.5c.2 0 .3 0 .5-.1v2.5c-.3 0-.6.1-.9.1h-1c-.5 0-1 0-1.4-.1-.5-.1-.9-.2-1.2-.4-.3-.2-.6-.5-.8-.9-.2-.4-.3-.9-.3-1.4v-7h-2v-2.2h2v-3.6h3.3v3.6h2.3zM108.8 172.7v3.5c0 .5-.1 1-.3 1.4-.2.4-.4.8-.8 1.1-.3.3-.7.6-1.1.8-.4.2-.9.3-1.4.4v-1.7c.2 0 .4-.1.7-.3.2-.1.4-.3.5-.5.2-.2.3-.4.3-.6.1-.2.1-.5.1-.7h-1.7v-3.5h3.7z"/><g><path d="M14.2 185.9v6.2h.1c.4-.7.9-1.2 1.6-1.5.6-.3 1.3-.5 1.9-.5.9 0 1.6.1 2.2.4.6.2 1 .6 1.3 1 .3.4.5.9.7 1.5.1.6.2 1.3.2 2v7.3h-3.3v-6.7c0-1-.2-1.7-.5-2.2s-.9-.7-1.6-.7c-.9 0-1.5.3-1.9.8-.4.5-.6 1.4-.6 2.6v6.2H11v-16.4h3.2zM24.5 188.5v-2.7h3.3v2.7h-3.3zm3.2 1.9v11.9h-3.3v-11.9h3.3zM41.3 203.2c-.1.6-.4 1.2-.8 1.7s-1.1 1-1.9 1.3c-.8.4-1.9.6-3.3.6-.6 0-1.2-.1-1.8-.2-.6-.1-1.2-.4-1.7-.7s-.9-.7-1.2-1.2c-.3-.5-.5-1.1-.6-1.7h3.2c.2.6.5 1 .9 1.3s1 .4 1.5.4c.9 0 1.6-.3 2-.8.4-.6.6-1.2.6-2.1v-1.6c-.4.6-.9 1.1-1.5 1.4-.7.3-1.3.4-2.1.4-.9 0-1.7-.2-2.3-.5-.6-.3-1.2-.7-1.6-1.3-.4-.5-.7-1.2-.9-1.9-.2-.7-.3-1.5-.3-2.3 0-.8.1-1.5.3-2.2.2-.7.5-1.3 1-1.9.4-.5 1-1 1.6-1.3.6-.3 1.4-.5 2.2-.5.8 0 1.5.1 2.1.4.6.3 1.1.8 1.5 1.5v-1.6h3.1v11.1c.2.5.2 1 0 1.7zm-4.4-4c.4-.2.6-.4.9-.7s.4-.7.5-1c.1-.4.2-.8.2-1.2 0-.5 0-1-.1-1.4-.1-.4-.2-.8-.5-1.2-.2-.3-.5-.6-.9-.8-.4-.2-.8-.3-1.3-.3s-.9.1-1.2.3c-.3.2-.6.4-.8.7-.2.3-.4.7-.5 1.1-.1.4-.1.8-.1 1.3 0 .4 0 .9.1 1.3s.2.8.4 1.1c.2.3.5.6.8.8.3.2.8.3 1.3.3.4 0 .8-.1 1.2-.3zM47.2 185.9v6.2h.1c.4-.7.9-1.2 1.6-1.5.6-.3 1.3-.5 1.9-.5.9 0 1.6.1 2.2.4.6.2 1 .6 1.3 1 .3.4.5.9.7 1.5.1.6.2 1.3.2 2v7.3h-3.3v-6.7c0-1-.2-1.7-.5-2.2s-.9-.7-1.6-.7c-.9 0-1.5.3-1.9.8-.4.5-.6 1.4-.6 2.6v6.2H44v-16.4h3.2zM64.3 194.6v2.8h-6.9v-2.8h6.9zM74.8 206.4v-5.7c-.4.6-.9 1.1-1.6 1.4-.7.3-1.4.4-2.1.4-.6 0-1.1-.1-1.7-.3-.6-.2-1.1-.6-1.6-1-.5-.5-.9-1.1-1.2-1.9-.3-.8-.5-1.8-.5-2.9 0-.8.1-1.6.3-2.4s.5-1.4 1-2c.4-.6 1-1.1 1.7-1.4.7-.4 1.5-.5 2.4-.5.7 0 1.4.1 2.1.4.7.3 1.2.8 1.5 1.4v-1.5h3.1v16.1h-3.4zm-5.4-8.7c.1.5.2.9.5 1.2.2.4.5.6.9.9.4.2.8.3 1.3.3s1-.1 1.3-.3c.4-.2.7-.5.9-.8.2-.3.4-.7.5-1.2.1-.5.2-.9.2-1.4 0-.5-.1-.9-.2-1.4s-.3-.9-.5-1.2c-.2-.4-.5-.7-.9-.9-.4-.2-.8-.3-1.3-.3s-1 .1-1.4.3c-.4.2-.7.5-.9.9s-.4.8-.5 1.2c-.1.5-.2.9-.2 1.4.2.4.2.9.3 1.3zM88.4 202.3v-1.7h-.1c-.4.7-1 1.2-1.6 1.5-.7.3-1.3.5-2 .5-.9 0-1.6-.1-2.2-.3s-1-.6-1.3-1c-.3-.4-.5-.9-.7-1.5-.1-.6-.2-1.3-.2-2v-7.3h3.3v6.7c0 1 .2 1.7.5 2.2s.9.7 1.6.7c.9 0 1.5-.3 1.9-.8.4-.5.6-1.4.6-2.6v-6.2h3.3v11.9h-3.1zM93.7 194c0-.8.2-1.4.6-1.9s.8-.9 1.3-1.2 1.1-.5 1.8-.7c.7-.1 1.3-.2 2-.2.6 0 1.2 0 1.8.1.6.1 1.2.2 1.7.5.5.2.9.6 1.2 1 .3.4.5 1 .5 1.7v6.2c0 .5 0 1.1.1 1.5s.2.9.3 1.1h-3.3c-.1-.2-.1-.4-.1-.6 0-.2-.1-.4-.1-.6-.5.5-1.1.9-1.8 1.1-.7.2-1.4.3-2.2.3-.6 0-1.1-.1-1.6-.2s-.9-.4-1.3-.6c-.4-.3-.7-.7-.9-1.1s-.3-1-.3-1.6c0-.7.1-1.2.4-1.7.2-.4.5-.8.9-1 .4-.3.8-.5 1.3-.6l1.5-.3c.5-.1 1-.1 1.4-.2s.9-.1 1.3-.2.7-.2.9-.4.3-.4.3-.8-.1-.6-.2-.8-.3-.4-.5-.5c-.2-.1-.4-.2-.7-.2-.3 0-.5-.1-.8-.1-.6 0-1.2.1-1.5.4-.4.3-.6.7-.6 1.4h-3.4zm7.5 2.5c-.1.1-.3.2-.5.3-.2.1-.4.1-.7.2-.2 0-.5.1-.7.1-.3 0-.5.1-.8.1-.2 0-.5.1-.7.2l-.6.3c-.2.1-.3.3-.4.5-.1.2-.2.5-.2.8 0 .3.1.5.2.7.1.2.3.4.4.5.2.1.4.2.6.2s.5.1.8.1c.6 0 1.1-.1 1.5-.3.4-.2.6-.5.8-.8.2-.3.3-.6.3-.9 0-.3.1-.6.1-.7v-1.3zM110.1 185.9v16.4h-3.3v-16.4h3.3zM112.6 188.5v-2.7h3.3v2.7h-3.3zm3.2 1.9v11.9h-3.3v-11.9h3.3zM124.7 190.4v2.2h-2.4v5.9c0 .6.1.9.3 1.1.2.2.6.3 1.1.3h.5c.2 0 .3 0 .5-.1v2.5c-.3 0-.6.1-.9.1h-1c-.5 0-1 0-1.4-.1-.5-.1-.9-.2-1.2-.4-.3-.2-.6-.5-.8-.9-.2-.4-.3-.9-.3-1.4v-7h-2v-2.2h2v-3.6h3.3v3.6h2.3zM130.5 205.8c-.6.4-1.5.6-2.6.6h-1c-.3 0-.7 0-1-.1v-2.7c.3 0 .6.1.9.1h1c.4 0 .7-.2 1-.5.2-.3.3-.6.3-1 0-.3 0-.5-.1-.7l-4.2-11.2h3.5l2.7 8.1 2.6-8.1h3.4l-5 13.4c-.4 1-.9 1.7-1.5 2.1z"/></g><g><path d="M16.6 218.5c-.5 0-1 .1-1.3.4-.4.2-.6.5-.9.9-.2.4-.4.8-.5 1.2-.1.5-.1.9-.1 1.3s0 .9.1 1.3.2.8.4 1.2c.2.4.5.7.8.9.4.2.8.3 1.3.3.8 0 1.4-.2 1.8-.7.4-.4.7-1 .8-1.8h3.2c-.2 1.6-.8 2.8-1.8 3.6-1 .8-2.3 1.2-3.9 1.2-.9 0-1.7-.1-2.4-.4-.7-.3-1.4-.7-1.9-1.3-.5-.5-.9-1.2-1.2-1.9-.3-.7-.4-1.6-.4-2.4 0-.9.1-1.8.4-2.6.3-.8.7-1.5 1.2-2 .5-.6 1.2-1 1.9-1.3.8-.3 1.6-.5 2.6-.5.7 0 1.4.1 2 .3.7.2 1.2.5 1.7.8.5.4.9.8 1.3 1.4.3.6.5 1.2.6 2H19c-.2-1.2-1-1.9-2.4-1.9zM24 219.7c.3-.8.7-1.4 1.2-2 .5-.5 1.2-1 1.9-1.3.8-.3 1.6-.4 2.5-.4.9 0 1.8.1 2.5.4.8.3 1.4.7 1.9 1.3.5.5 1 1.2 1.2 2 .3.8.4 1.6.4 2.6s-.1 1.8-.4 2.6c-.3.8-.7 1.4-1.2 2-.5.5-1.2 1-1.9 1.3-.8.3-1.6.4-2.5.4-.9 0-1.8-.1-2.5-.4-.8-.3-1.4-.7-1.9-1.3-.5-.5-1-1.2-1.2-2-.3-.8-.4-1.6-.4-2.6 0-.9.1-1.8.4-2.6zm3 4c.1.5.2.9.5 1.2.2.4.5.6.9.9.4.2.8.3 1.4.3.6 0 1-.1 1.4-.3.4-.2.7-.5.9-.9.2-.4.4-.8.5-1.2.1-.5.1-.9.1-1.4 0-.5 0-.9-.1-1.4-.1-.5-.2-.9-.5-1.2-.2-.4-.5-.6-.9-.9-.4-.2-.8-.3-1.4-.3-.6 0-1 .1-1.4.3-.4.2-.7.5-.9.9-.2.4-.4.8-.5 1.2-.1.5-.1.9-.1 1.4-.1.5 0 1 .1 1.4zM40.7 228.3l-4.1-11.9H40l2.5 8.1 2.5-8.1h3.2l-4 11.9h-3.5zM53 225.4c.5.5 1.2.7 2.1.7.7 0 1.2-.2 1.7-.5s.8-.7.9-1h2.9c-.5 1.4-1.2 2.4-2.1 3.1-1 .6-2.1.9-3.5.9-.9 0-1.8-.1-2.5-.4-.8-.3-1.4-.7-1.9-1.3-.5-.6-.9-1.2-1.2-2s-.4-1.6-.4-2.5c0-.9.1-1.7.4-2.5.3-.8.7-1.4 1.2-2 .5-.6 1.2-1 1.9-1.3.7-.3 1.6-.5 2.5-.5 1 0 1.9.2 2.6.6s1.4.9 1.9 1.6.8 1.4 1 2.3c.2.8.3 1.7.2 2.6h-8.6c.2 1 .4 1.7.9 2.2zm3.7-6.2c-.4-.4-1-.6-1.8-.6-.5 0-1 .1-1.3.3-.3.2-.6.4-.8.7s-.4.5-.4.8c-.1.3-.1.6-.1.8h5.3c-.2-1-.5-1.6-.9-2zM65.6 216.4v2.2c.2-.4.4-.7.6-1 .3-.3.6-.6.9-.8.3-.2.7-.4 1.1-.5.4-.1.8-.2 1.2-.2.2 0 .5 0 .7.1v3c-.2 0-.3-.1-.6-.1h-.6c-.6 0-1.1.1-1.5.3s-.7.5-1 .8c-.3.3-.4.7-.5 1.2s-.2 1-.2 1.5v5.4h-3.3v-11.9h3.2zM71.1 220c0-.8.2-1.4.6-1.9s.8-.9 1.3-1.2 1.1-.5 1.8-.7c.7-.1 1.3-.2 2-.2.6 0 1.2 0 1.8.1.6.1 1.2.2 1.7.5.5.2.9.6 1.2 1 .3.4.5 1 .5 1.7v6.2c0 .5 0 1.1.1 1.5s.2.9.3 1.1h-3.3c-.1-.2-.1-.4-.1-.6 0-.2-.1-.4-.1-.6-.5.5-1.1.9-1.8 1.1-.7.2-1.4.3-2.2.3-.6 0-1.1-.1-1.6-.2s-.9-.4-1.3-.6c-.4-.3-.7-.7-.9-1.1s-.3-1-.3-1.6c0-.7.1-1.2.4-1.7.2-.4.5-.8.9-1 .4-.3.8-.5 1.3-.6l1.5-.3c.5-.1 1-.1 1.4-.2s.9-.1 1.3-.2.7-.2.9-.4.3-.4.3-.8-.1-.6-.2-.8-.3-.4-.5-.5c-.2-.1-.4-.2-.7-.2-.3 0-.5-.1-.8-.1-.6 0-1.2.1-1.5.4-.4.3-.6.7-.6 1.4h-3.4zm7.6 2.5c-.1.1-.3.2-.5.3-.2.1-.4.1-.7.2-.2 0-.5.1-.7.1-.3 0-.5.1-.8.1-.2 0-.5.1-.7.2l-.6.3c-.2.1-.3.3-.4.5-.1.2-.2.5-.2.8 0 .3.1.5.2.7.1.2.3.4.4.5.2.1.4.2.6.2s.5.1.8.1c.6 0 1.1-.1 1.5-.3.4-.2.6-.5.8-.8.2-.3.3-.6.3-.9 0-.3.1-.6.1-.7v-1.3zM95.5 229.1c-.1.6-.4 1.2-.8 1.7s-1 1-1.9 1.3c-.8.4-1.9.6-3.3.6-.6 0-1.2-.1-1.8-.2-.6-.1-1.2-.4-1.7-.7s-.9-.7-1.2-1.2c-.3-.5-.5-1.1-.6-1.7h3.2c.2.6.5 1 .9 1.3.4.2 1 .4 1.5.4.9 0 1.6-.3 2-.8.4-.6.6-1.2.6-2.1v-1.6c-.4.6-.9 1.1-1.5 1.4-.7.3-1.3.4-2.1.4-.9 0-1.7-.2-2.3-.5-.6-.3-1.2-.7-1.6-1.3-.4-.5-.7-1.2-.9-1.9-.2-.7-.3-1.5-.3-2.3 0-.8.1-1.5.3-2.2.2-.7.5-1.3 1-1.9.4-.5 1-1 1.6-1.3.6-.3 1.4-.5 2.2-.5.8 0 1.5.1 2.1.4.6.3 1.1.8 1.5 1.5v-1.6h3.1v11.1c.2.6.1 1.1 0 1.7zm-4.5-3.9c.4-.2.6-.4.9-.7.2-.3.4-.7.5-1 .1-.4.2-.8.2-1.2 0-.5 0-1-.1-1.4-.1-.4-.2-.8-.5-1.2-.2-.3-.5-.6-.9-.8-.4-.2-.8-.3-1.3-.3s-.9.1-1.2.3c-.3.2-.6.4-.8.7-.2.3-.4.7-.5 1.1s-.1.8-.1 1.3c0 .4 0 .9.1 1.3s.2.8.4 1.1c.2.3.5.6.8.8.3.2.8.3 1.3.3s.9-.1 1.2-.3zM101.6 225.4c.5.5 1.2.7 2.1.7.7 0 1.2-.2 1.7-.5s.8-.7.9-1h2.9c-.5 1.4-1.2 2.4-2.1 3.1-1 .6-2.1.9-3.5.9-.9 0-1.8-.1-2.5-.4-.8-.3-1.4-.7-1.9-1.3-.5-.6-.9-1.2-1.2-2-.3-.8-.4-1.6-.4-2.5 0-.9.1-1.7.4-2.5.3-.8.7-1.4 1.2-2 .5-.6 1.2-1 1.9-1.3.7-.3 1.6-.5 2.5-.5 1 0 1.9.2 2.6.6s1.4.9 1.9 1.6c.5.7.8 1.4 1 2.3.2.8.3 1.7.2 2.6h-8.6c.1 1 .4 1.7.9 2.2zm3.7-6.2c-.4-.4-1-.6-1.8-.6-.5 0-1 .1-1.3.3s-.6.4-.8.7-.4.5-.4.8c-.1.3-.1.6-.1.8h5.3c-.3-1-.5-1.6-.9-2zM117.1 220c0-.8.2-1.4.6-1.9s.8-.9 1.3-1.2 1.1-.5 1.8-.7c.7-.1 1.3-.2 2-.2.6 0 1.2 0 1.8.1.6.1 1.2.2 1.7.5.5.2.9.6 1.2 1 .3.4.5 1 .5 1.7v6.2c0 .5 0 1.1.1 1.5s.2.9.3 1.1H125c-.1-.2-.1-.4-.1-.6 0-.2-.1-.4-.1-.6-.5.5-1.1.9-1.8 1.1-.7.2-1.4.3-2.2.3-.6 0-1.1-.1-1.6-.2s-.9-.4-1.3-.6c-.4-.3-.7-.7-.9-1.1s-.3-1-.3-1.6c0-.7.1-1.2.4-1.7.2-.4.5-.8.9-1 .4-.3.8-.5 1.3-.6l1.5-.3c.5-.1 1-.1 1.4-.2s.9-.1 1.3-.2.7-.2.9-.4.3-.4.3-.8-.1-.6-.2-.8-.3-.4-.5-.5c-.2-.1-.4-.2-.7-.2-.3 0-.5-.1-.8-.1-.6 0-1.2.1-1.5.4-.4.3-.6.7-.6 1.4h-3.3zm7.6 2.5c-.1.1-.3.2-.5.3-.2.1-.4.1-.7.2-.2 0-.5.1-.7.1-.3 0-.5.1-.8.1-.2 0-.5.1-.7.2l-.6.3c-.2.1-.3.3-.4.5-.1.2-.2.5-.2.8 0 .3.1.5.2.7.1.2.3.4.4.5.2.1.4.2.6.2s.5.1.8.1c.6 0 1.1-.1 1.5-.3.4-.2.6-.5.8-.8.2-.3.3-.6.3-.9 0-.3.1-.6.1-.7v-1.3zM136.8 216.4v2.2h-2.4v5.9c0 .6.1.9.3 1.1.2.2.6.3 1.1.3h.5c.2 0 .3 0 .5-.1v2.5c-.3 0-.6.1-.9.1h-1c-.5 0-1 0-1.4-.1-.5-.1-.9-.2-1.2-.4-.3-.2-.6-.5-.8-.9-.2-.4-.3-.9-.3-1.4v-7h-2v-2.2h2v-3.6h3.3v3.6h2.3z"/></g><g><path d="M17.5 242.4v2.2h-2.4v5.9c0 .6.1.9.3 1.1.2.2.6.3 1.1.3h.5c.2 0 .3 0 .5-.1v2.5c-.3 0-.6.1-.9.1h-1c-.5 0-1 0-1.4-.1-.5-.1-.9-.2-1.2-.4-.3-.2-.6-.5-.8-.9-.2-.4-.3-.9-.3-1.4v-7h-2v-2.2h2v-3.6h3.3v3.6h2.3zM22.1 237.8v6.2h.1c.4-.7.9-1.2 1.6-1.5.6-.3 1.3-.5 1.9-.5.9 0 1.6.1 2.2.4.6.2 1 .6 1.3 1 .3.4.5.9.7 1.5.1.6.2 1.3.2 2v7.3h-3.3v-6.7c0-1-.2-1.7-.5-2.2s-.9-.7-1.6-.7c-.9 0-1.5.3-1.9.8-.4.5-.6 1.4-.6 2.6v6.2h-3.3v-16.4h3.2zM35.8 251.4c.5.5 1.2.7 2.1.7.7 0 1.2-.2 1.7-.5s.8-.7.9-1h2.9c-.5 1.4-1.2 2.4-2.1 3.1-1 .6-2.1.9-3.5.9-.9 0-1.8-.1-2.5-.4-.8-.3-1.4-.7-1.9-1.3-.5-.6-.9-1.2-1.2-2s-.4-1.6-.4-2.5c0-.9.1-1.7.4-2.5.3-.8.7-1.4 1.2-2 .5-.6 1.2-1 1.9-1.3.7-.3 1.6-.5 2.5-.5 1 0 1.9.2 2.6.6s1.4.9 1.9 1.6.8 1.4 1 2.3c.2.8.3 1.7.2 2.6H35c0 1 .3 1.7.8 2.2zm3.7-6.2c-.4-.4-1-.6-1.8-.6-.5 0-1 .1-1.3.3-.3.2-.6.4-.8.7s-.4.5-.4.8c-.1.3-.1.6-.1.8h5.3c-.3-1-.6-1.6-.9-2zM54.2 251.3c.1.3.3.5.6.6s.5.3.8.4c.3.1.6.1.9.1.2 0 .5 0 .7-.1s.5-.1.7-.3c.2-.1.4-.3.5-.5.1-.2.2-.4.2-.7 0-.5-.3-.9-1-1.1s-1.6-.5-2.7-.7c-.5-.1-.9-.2-1.4-.4-.5-.1-.9-.3-1.2-.6-.4-.2-.6-.5-.9-.9-.2-.4-.3-.8-.3-1.3 0-.8.1-1.4.4-1.9.3-.5.7-.9 1.2-1.2.5-.3 1-.5 1.7-.6.6-.1 1.2-.2 1.9-.2s1.3.1 1.9.2c.6.1 1.1.3 1.6.6s.9.7 1.2 1.2.5 1.1.6 1.8h-3.1c0-.6-.3-1.1-.7-1.3s-.9-.3-1.5-.3h-.6c-.2 0-.4.1-.6.1-.2.1-.3.2-.4.3-.1.1-.2.3-.2.6s.1.5.3.7.5.3.8.4c.3.1.7.2 1.2.3.4.1.9.2 1.4.3.5.1.9.2 1.4.4.5.2.9.4 1.2.6.4.3.6.6.9.9.2.4.3.8.3 1.4 0 .8-.2 1.4-.5 2-.3.5-.7 1-1.2 1.3-.5.3-1.1.5-1.7.7-.7.1-1.3.2-2 .2s-1.4-.1-2-.2c-.7-.1-1.2-.4-1.8-.7-.5-.3-.9-.7-1.3-1.3-.3-.5-.5-1.2-.5-2h3c0 .6.1 1 .2 1.2zM70.1 242.4v2.2h-2.4v5.9c0 .6.1.9.3 1.1.2.2.6.3 1.1.3h.5c.2 0 .3 0 .5-.1v2.5c-.3 0-.6.1-.9.1h-1c-.5 0-1 0-1.4-.1-.5-.1-.9-.2-1.2-.4-.3-.2-.6-.5-.8-.9-.2-.4-.3-.9-.3-1.4v-7h-2v-2.2h2v-3.6h3.3v3.6h2.3zM71.3 246c0-.8.2-1.4.6-1.9s.8-.9 1.3-1.2 1.1-.5 1.8-.7c.7-.1 1.3-.2 2-.2.6 0 1.2 0 1.8.1.6.1 1.2.2 1.7.5.5.2.9.6 1.2 1 .3.4.5 1 .5 1.7v6.2c0 .5 0 1.1.1 1.5s.2.9.3 1.1h-3.3c-.1-.2-.1-.4-.1-.6 0-.2-.1-.4-.1-.6-.5.5-1.1.9-1.8 1.1-.7.2-1.4.3-2.2.3-.6 0-1.1-.1-1.6-.2s-.9-.4-1.3-.6c-.4-.3-.7-.7-.9-1.1s-.3-1-.3-1.6c0-.7.1-1.2.4-1.7.2-.4.5-.8.9-1 .4-.3.8-.5 1.3-.6l1.5-.3c.5-.1 1-.1 1.4-.2s.9-.1 1.3-.2.7-.2.9-.4.3-.4.3-.8-.1-.6-.2-.8-.3-.4-.5-.5c-.2-.1-.4-.2-.7-.2-.3 0-.5-.1-.8-.1-.6 0-1.2.1-1.5.4-.4.3-.6.7-.6 1.4h-3.4zm7.6 2.4c-.1.1-.3.2-.5.3-.2.1-.4.1-.7.2-.2 0-.5.1-.7.1-.3 0-.5.1-.8.1-.2 0-.5.1-.7.2l-.6.3c-.2.1-.3.3-.4.5-.1.2-.2.5-.2.8 0 .3.1.5.2.7.1.2.3.4.4.5.2.1.4.2.6.2s.5.1.8.1c.6 0 1.1-.1 1.5-.3.4-.2.6-.5.8-.8.2-.3.3-.6.3-.9 0-.3.1-.6.1-.7v-1.3zM87.6 242.4v2.2c.2-.4.4-.7.6-1 .3-.3.6-.6.9-.8.3-.2.7-.4 1.1-.5.4-.1.8-.2 1.2-.2.2 0 .5 0 .7.1v3c-.2 0-.3-.1-.6-.1h-.6c-.6 0-1.1.1-1.5.3s-.7.5-1 .8c-.3.3-.4.7-.5 1.2s-.2 1-.2 1.5v5.4h-3.3v-11.9h3.2zM99.8 242.4v2.2h-2.4v5.9c0 .6.1.9.3 1.1.2.2.6.3 1.1.3h.5c.2 0 .3 0 .5-.1v2.5c-.3 0-.6.1-.9.1h-1c-.5 0-1 0-1.4-.1-.5-.1-.9-.2-1.2-.4-.3-.2-.6-.5-.8-.9-.2-.4-.3-.9-.3-1.4v-7h-2v-2.2h2v-3.6h3.3v3.6h2.3zM107.4 245.7c.3-.8.7-1.4 1.2-2 .5-.5 1.2-1 1.9-1.3.8-.3 1.6-.4 2.5-.4s1.8.1 2.5.4c.8.3 1.4.7 1.9 1.3.5.5 1 1.2 1.2 2 .3.8.4 1.6.4 2.6s-.1 1.8-.4 2.6c-.3.8-.7 1.4-1.2 2-.5.5-1.2 1-1.9 1.3-.8.3-1.6.4-2.5.4s-1.8-.1-2.5-.4c-.8-.3-1.4-.7-1.9-1.3-.5-.5-1-1.2-1.2-2-.3-.8-.4-1.6-.4-2.6-.1-.9.1-1.8.4-2.6zm2.9 4c.1.5.2.9.5 1.2.2.4.5.6.9.9s.8.3 1.4.3c.6 0 1-.1 1.4-.3s.7-.5.9-.9c.2-.4.4-.8.5-1.2.1-.5.1-.9.1-1.4 0-.5 0-.9-.1-1.4-.1-.5-.2-.9-.5-1.2-.2-.4-.5-.6-.9-.9s-.8-.3-1.4-.3c-.6 0-1 .1-1.4.3s-.7.5-.9.9c-.2.4-.4.8-.5 1.2-.1.5-.1.9-.1 1.4 0 .5 0 1 .1 1.4zM119.9 244.6v-2.2h2v-.9c0-1.1.3-1.9 1-2.6.7-.7 1.7-1 3-1h.9c.3 0 .6 0 .9.1v2.4c-.4 0-.8-.1-1.2-.1-.4 0-.8.1-1 .3-.2.2-.3.6-.3 1v.7h2.3v2.2h-2.3v9.7h-3.3v-9.7h-2z"/></g><g><path d="M15.3 283.8c-.6.4-1.5.6-2.6.6h-1c-.3 0-.7 0-1-.1v-2.7c.3 0 .6.1.9.1h1c.4 0 .7-.2 1-.5s.3-.6.3-1c0-.3 0-.5-.1-.7l-4.2-11.2h3.5l2.7 8.1 2.6-8.1h3.4l-5 13.4c-.3 1-.8 1.7-1.5 2.1zM22.7 271.7c.3-.8.7-1.4 1.2-2 .5-.5 1.2-1 1.9-1.3.8-.3 1.6-.4 2.5-.4.9 0 1.8.1 2.5.4.8.3 1.4.7 1.9 1.3.5.5 1 1.2 1.2 2 .3.8.4 1.6.4 2.6s-.1 1.8-.4 2.6c-.3.8-.7 1.4-1.2 2-.5.5-1.2 1-1.9 1.3-.8.3-1.6.4-2.5.4-.9 0-1.8-.1-2.5-.4-.8-.3-1.4-.7-1.9-1.3-.5-.5-1-1.2-1.2-2-.3-.8-.4-1.6-.4-2.6 0-.9.2-1.8.4-2.6zm3 4c.1.5.2.9.5 1.2.2.4.5.6.9.9.4.2.8.3 1.4.3.6 0 1-.1 1.4-.3.4-.2.7-.5.9-.9.2-.4.4-.8.5-1.2.1-.5.1-.9.1-1.4 0-.5 0-.9-.1-1.4-.1-.5-.2-.9-.5-1.2-.2-.4-.5-.6-.9-.9-.4-.2-.8-.3-1.4-.3-.6 0-1 .1-1.4.3-.4.2-.7.5-.9.9-.2.4-.4.8-.5 1.2-.1.5-.1.9-.1 1.4 0 .5 0 1 .1 1.4zM44.6 280.2v-1.7h-.1c-.4.7-1 1.2-1.6 1.5s-1.3.5-2 .5c-.9 0-1.6-.1-2.2-.3-.6-.2-1-.6-1.3-1-.3-.4-.5-.9-.7-1.5-.1-.6-.2-1.3-.2-2v-7.3h3.3v6.7c0 1 .2 1.7.5 2.2s.9.7 1.6.7c.9 0 1.5-.3 1.9-.8.4-.5.6-1.4.6-2.6v-6.2h3.3v11.9h-3.1zM53.1 268.4v2.2c.2-.4.4-.7.6-1 .3-.3.6-.6.9-.8.3-.2.7-.4 1.1-.5.4-.1.8-.2 1.2-.2.2 0 .5 0 .7.1v3c-.2 0-.3-.1-.6-.1h-.6c-.6 0-1.1.1-1.5.3s-.7.5-1 .8-.4.7-.5 1.2c-.1.5-.2 1-.2 1.5v5.4H50v-11.9h3.1zM70.6 270.5c-.5 0-1 .1-1.3.4-.4.2-.6.5-.9.9-.2.4-.4.8-.5 1.2-.1.5-.1.9-.1 1.3s0 .9.1 1.3.2.8.4 1.2c.2.4.5.7.8.9s.8.3 1.3.3c.8 0 1.4-.2 1.8-.7s.7-1 .8-1.8h3.2c-.2 1.6-.8 2.8-1.8 3.6-1 .8-2.3 1.2-3.9 1.2-.9 0-1.7-.1-2.4-.4-.7-.3-1.4-.7-1.9-1.3-.5-.5-.9-1.2-1.2-1.9-.3-.7-.4-1.6-.4-2.4 0-.9.1-1.8.4-2.6.3-.8.7-1.5 1.2-2 .5-.6 1.2-1 1.9-1.3.8-.3 1.6-.5 2.6-.5.7 0 1.4.1 2 .3.7.2 1.2.5 1.7.8.5.4.9.8 1.3 1.4.3.6.5 1.2.6 2H73c-.2-1.2-1-1.9-2.4-1.9zM77.7 272c0-.8.2-1.4.6-1.9s.8-.9 1.3-1.2 1.1-.5 1.8-.7c.7-.1 1.3-.2 2-.2.6 0 1.2 0 1.8.1.6.1 1.2.2 1.7.5.5.2.9.6 1.2 1 .3.4.5 1 .5 1.7v6.2c0 .5 0 1.1.1 1.5s.2.9.3 1.1h-3.3c-.1-.2-.1-.4-.1-.6 0-.2-.1-.4-.1-.6-.5.5-1.1.9-1.8 1.1-.7.2-1.4.3-2.2.3-.6 0-1.1-.1-1.6-.2s-.9-.4-1.3-.6c-.4-.3-.7-.7-.9-1.1s-.3-1-.3-1.6c0-.7.1-1.2.4-1.7.2-.4.5-.8.9-1 .4-.3.8-.5 1.3-.6l1.5-.3c.5-.1 1-.1 1.4-.2s.9-.1 1.3-.2.7-.2.9-.4.3-.4.3-.8-.1-.6-.2-.8-.3-.4-.5-.5c-.2-.1-.4-.2-.7-.2-.3 0-.5-.1-.8-.1-.6 0-1.2.1-1.5.4-.4.3-.6.7-.6 1.4h-3.4zm7.6 2.4c-.1.1-.3.2-.5.3-.2.1-.4.1-.7.2-.2 0-.5.1-.7.1-.3 0-.5.1-.8.1-.2 0-.5.1-.7.2l-.6.3c-.2.1-.3.3-.4.5-.1.2-.2.5-.2.8 0 .3.1.5.2.7.1.2.3.4.4.5.2.1.4.2.6.2s.5.1.8.1c.6 0 1.1-.1 1.5-.3.4-.2.6-.5.8-.8.2-.3.3-.6.3-.9 0-.3.1-.6.1-.7v-1.3zM94 268.4v2.2c.2-.4.4-.7.6-1 .3-.3.6-.6.9-.8.3-.2.7-.4 1.1-.5.4-.1.8-.2 1.2-.2.2 0 .5 0 .7.1v3c-.2 0-.3-.1-.6-.1h-.6c-.6 0-1.1.1-1.5.3s-.7.5-1 .8c-.3.3-.4.7-.5 1.2s-.2 1-.2 1.5v5.4h-3.3v-11.9H94zM102.7 277.4c.5.5 1.2.7 2.1.7.7 0 1.2-.2 1.7-.5s.8-.7.9-1h2.9c-.5 1.4-1.2 2.4-2.1 3.1-1 .6-2.1.9-3.5.9-.9 0-1.8-.1-2.5-.4-.8-.3-1.4-.7-1.9-1.3-.5-.6-.9-1.2-1.2-2-.3-.8-.4-1.6-.4-2.5 0-.9.1-1.7.4-2.5.3-.8.7-1.4 1.2-2 .5-.6 1.2-1 1.9-1.3.7-.3 1.6-.5 2.5-.5 1 0 1.9.2 2.6.6s1.4.9 1.9 1.6c.5.7.8 1.4 1 2.3.2.8.3 1.7.2 2.6h-8.6c.1 1 .4 1.7.9 2.2zm3.7-6.3c-.4-.4-1-.6-1.8-.6-.5 0-1 .1-1.3.3s-.6.4-.8.7-.4.5-.4.8c-.1.3-.1.6-.1.8h5.3c-.3-.9-.5-1.5-.9-2zM115.7 277.4c.5.5 1.2.7 2.1.7.7 0 1.2-.2 1.7-.5s.8-.7.9-1h2.9c-.5 1.4-1.2 2.4-2.1 3.1-1 .6-2.1.9-3.5.9-.9 0-1.8-.1-2.5-.4-.8-.3-1.4-.7-1.9-1.3-.5-.6-.9-1.2-1.2-2-.3-.8-.4-1.6-.4-2.5 0-.9.1-1.7.4-2.5.3-.8.7-1.4 1.2-2 .5-.6 1.2-1 1.9-1.3.7-.3 1.6-.5 2.5-.5 1 0 1.9.2 2.6.6s1.4.9 1.9 1.6c.5.7.8 1.4 1 2.3.2.8.3 1.7.2 2.6h-8.6c.1 1 .4 1.7.9 2.2zm3.7-6.3c-.4-.4-1-.6-1.8-.6-.5 0-1 .1-1.3.3s-.6.4-.8.7-.4.5-.4.8c-.1.3-.1.6-.1.8h5.3c-.3-.9-.5-1.5-.9-2zM128.3 268.4v2.2c.2-.4.4-.7.6-1 .3-.3.6-.6.9-.8.3-.2.7-.4 1.1-.5.4-.1.8-.2 1.2-.2.2 0 .5 0 .7.1v3c-.2 0-.3-.1-.6-.1h-.6c-.6 0-1.1.1-1.5.3s-.7.5-1 .8c-.3.3-.4.7-.5 1.2s-.2 1-.2 1.5v5.4h-3.3v-11.9h3.2z"/></g><g><path d="M11 292.5v-2.7h3.3v2.7H11zm3.3 1.8v11.9H11v-11.9h3.3zM19.4 303.3c.1.3.3.5.6.6.2.2.5.3.8.4.3.1.6.1.9.1.2 0 .5 0 .7-.1s.5-.1.7-.3.4-.3.5-.5c.1-.2.2-.4.2-.7 0-.5-.3-.9-1-1.1-.7-.2-1.6-.5-2.7-.7-.5-.1-.9-.2-1.4-.4-.5-.1-.9-.3-1.2-.6-.4-.2-.6-.5-.9-.9-.2-.4-.3-.8-.3-1.3 0-.8.1-1.4.4-1.9.3-.5.7-.9 1.2-1.2.5-.3 1-.5 1.7-.6.6-.1 1.2-.2 1.9-.2s1.3.1 1.9.2c.6.1 1.1.3 1.6.6s.9.7 1.2 1.2.5 1.1.6 1.8h-3.1c0-.6-.3-1.1-.7-1.3s-.9-.3-1.5-.3h-.6c-.2 0-.4.1-.6.1-.2.1-.3.2-.4.3-.1.1-.2.3-.2.6s.1.5.3.7.5.3.8.4c.3.1.7.2 1.2.3.4.1.9.2 1.4.3.5.1.9.2 1.4.4.5.2.9.4 1.2.6.4.3.6.6.9.9.2.4.3.8.3 1.4 0 .8-.2 1.4-.5 2-.3.5-.7 1-1.2 1.3s-1.1.5-1.7.7c-.7.1-1.3.2-2 .2s-1.4-.1-2-.2c-.7-.1-1.2-.4-1.8-.7-.5-.3-.9-.7-1.3-1.3-.3-.5-.5-1.2-.5-2h3.1c-.1.6 0 .9.1 1.2zM34.9 298c0-.8.2-1.4.6-1.9.3-.5.8-.9 1.3-1.2s1.1-.5 1.8-.7c.7-.1 1.3-.2 2-.2.6 0 1.2 0 1.8.1.6.1 1.2.2 1.7.5s.9.6 1.2 1c.3.4.5 1 .5 1.7v6.2c0 .5 0 1 .1 1.5s.2.9.3 1.1h-3.3c-.1-.2-.1-.4-.1-.6 0-.2-.1-.4-.1-.6-.5.5-1.1.9-1.8 1.1-.7.2-1.4.3-2.2.3-.6 0-1.1-.1-1.6-.2s-.9-.4-1.3-.6c-.4-.3-.7-.7-.9-1.1-.2-.4-.3-1-.3-1.6 0-.7.1-1.2.4-1.7.2-.4.5-.8.9-1 .4-.3.8-.5 1.3-.6l1.5-.3c.5-.1 1-.1 1.4-.2.5 0 .9-.1 1.3-.2s.7-.2.9-.4c.2-.2.3-.4.3-.8s-.1-.6-.2-.8c-.1-.2-.3-.4-.5-.5-.2-.1-.4-.2-.7-.2-.3 0-.5-.1-.8-.1-.6 0-1.2.1-1.5.4-.4.3-.6.7-.6 1.4h-3.4zm7.5 2.4c-.1.1-.3.2-.5.3-.2.1-.4.1-.7.2-.2 0-.5.1-.7.1-.3 0-.5.1-.8.1-.2 0-.5.1-.7.2l-.6.3c-.2.1-.3.3-.4.5-.1.2-.2.5-.2.8 0 .3.1.5.2.7.1.2.3.4.4.5.2.1.4.2.6.2.2 0 .5.1.8.1.6 0 1.1-.1 1.5-.3.4-.2.6-.5.8-.8.2-.3.3-.6.3-.9 0-.3.1-.6.1-.7v-1.3zM65.4 307.1c-.1.6-.4 1.2-.8 1.7s-1.1 1-1.9 1.3c-.8.4-1.9.6-3.3.6-.6 0-1.2-.1-1.8-.2-.6-.1-1.2-.4-1.7-.7s-.9-.7-1.2-1.2c-.3-.5-.5-1.1-.6-1.7h3.2c.2.6.5 1 .9 1.3s1 .4 1.5.4c.9 0 1.6-.3 2-.8.4-.6.6-1.2.6-2.1v-1.6c-.4.6-.9 1.1-1.5 1.4-.7.3-1.3.4-2.1.4-.9 0-1.7-.2-2.3-.5-.6-.3-1.2-.7-1.6-1.3-.4-.5-.7-1.2-.9-1.9-.2-.7-.3-1.5-.3-2.3 0-.8.1-1.5.3-2.2.2-.7.5-1.3 1-1.9.4-.5 1-1 1.6-1.3.6-.3 1.4-.5 2.2-.5.8 0 1.5.1 2.1.4.6.3 1.1.8 1.5 1.5v-1.6h3.1v11.1c.2.6.2 1.1 0 1.7zm-4.4-3.9c.4-.2.6-.4.9-.7.2-.3.4-.7.5-1 .1-.4.2-.8.2-1.2 0-.5 0-1-.1-1.4-.1-.4-.2-.8-.5-1.2-.2-.3-.5-.6-.9-.8-.4-.2-.8-.3-1.3-.3s-.9.1-1.2.3c-.3.2-.6.4-.8.7-.2.3-.4.7-.5 1.1-.1.4-.1.8-.1 1.3 0 .4 0 .9.1 1.3s.2.8.4 1.1c.2.3.5.6.8.8.3.2.8.3 1.3.3l1.2-.3zM68.1 297.7c.3-.8.7-1.4 1.2-2 .5-.5 1.2-1 1.9-1.3.8-.3 1.6-.4 2.5-.4s1.8.1 2.5.4c.8.3 1.4.7 1.9 1.3.5.5 1 1.2 1.2 2 .3.8.4 1.6.4 2.6s-.1 1.8-.4 2.6c-.3.8-.7 1.4-1.2 2-.5.5-1.2 1-1.9 1.3s-1.6.4-2.5.4-1.8-.1-2.5-.4c-.8-.3-1.4-.7-1.9-1.3-.5-.5-1-1.2-1.2-2-.3-.8-.4-1.6-.4-2.6s.1-1.8.4-2.6zm2.9 4c.1.5.2.9.5 1.2.2.4.5.6.9.9s.8.3 1.4.3c.6 0 1-.1 1.4-.3s.7-.5.9-.9c.2-.4.4-.8.5-1.2.1-.5.1-.9.1-1.4s0-.9-.1-1.4c-.1-.5-.2-.9-.5-1.2-.2-.4-.5-.6-.9-.9s-.8-.3-1.4-.3c-.6 0-1 .1-1.4.3s-.7.5-.9.9c-.2.4-.4.8-.5 1.2-.1.5-.1.9-.1 1.4s.1.9.1 1.4zM81.9 297.7c.3-.8.7-1.4 1.2-2 .5-.5 1.2-1 1.9-1.3.8-.3 1.6-.4 2.5-.4s1.8.1 2.5.4c.8.3 1.4.7 1.9 1.3.5.5 1 1.2 1.2 2 .3.8.4 1.6.4 2.6s-.1 1.8-.4 2.6c-.3.8-.7 1.4-1.2 2-.5.5-1.2 1-1.9 1.3s-1.6.4-2.5.4-1.8-.1-2.5-.4c-.8-.3-1.4-.7-1.9-1.3-.5-.5-1-1.2-1.2-2-.3-.8-.4-1.6-.4-2.6s.1-1.8.4-2.6zm3 4c.1.5.2.9.5 1.2.2.4.5.6.9.9s.8.3 1.4.3c.6 0 1-.1 1.4-.3s.7-.5.9-.9c.2-.4.4-.8.5-1.2.1-.5.1-.9.1-1.4s0-.9-.1-1.4c-.1-.5-.2-.9-.5-1.2-.2-.4-.5-.6-.9-.9s-.8-.3-1.4-.3c-.6 0-1 .1-1.4.3s-.7.5-.9.9c-.2.4-.4.8-.5 1.2-.1.5-.1.9-.1 1.4s0 .9.1 1.4zM104.1 304.7c-.4.6-.9 1.1-1.5 1.4-.6.3-1.3.4-2.1.4-.9 0-1.7-.2-2.3-.5-.7-.3-1.2-.8-1.7-1.4-.4-.6-.8-1.3-1-2-.2-.8-.3-1.6-.3-2.4 0-.8.1-1.6.3-2.3s.6-1.4 1-2c.4-.6 1-1 1.6-1.4.7-.3 1.4-.5 2.3-.5.7 0 1.4.1 2 .4.6.3 1.1.7 1.5 1.3v-6h3.3v16.4h-3.1v-1.4zm-.1-5.9c-.1-.5-.2-.9-.5-1.2-.2-.3-.5-.6-.9-.8-.4-.2-.8-.3-1.3-.3s-1 .1-1.4.3c-.4.2-.7.5-.9.9-.2.4-.4.8-.5 1.2-.1.5-.1.9-.1 1.4 0 .5.1.9.2 1.4s.3.9.5 1.2c.2.4.5.7.9.9.4.2.8.3 1.3.3s1-.1 1.3-.3.6-.5.9-.9.4-.8.5-1.2.1-.9.1-1.4 0-1-.1-1.5z"/></g><path d="M9.7 322.5v-2.2h2v-.9c0-1.1.3-1.9 1-2.6.7-.7 1.7-1 3-1h.9c.3 0 .6 0 .9.1v2.4c-.4 0-.8-.1-1.2-.1-.4 0-.8.1-1 .3-.2.2-.3.6-.3 1v.7h2.3v2.2H15v9.7h-3.3v-9.7h-2zm9.5-4v-2.7h3.3v2.7h-3.3zm3.2 1.8v11.9h-3.3v-11.9h3.3zm5.5 0v2.2c.2-.4.4-.7.6-1 .3-.3.6-.6.9-.8.3-.2.7-.4 1.1-.5.4-.1.8-.2 1.2-.2.2 0 .5 0 .7.1v3c-.2 0-.3-.1-.6-.1h-.6c-.6 0-1.1.1-1.5.3-.4.2-.7.5-1 .8-.3.3-.4.7-.5 1.2-.1.5-.2 1-.2 1.5v5.4h-3.3v-11.9h3.2zm8.3 9c.1.3.3.5.6.6s.5.3.8.4c.3.1.6.1.9.1.2 0 .5 0 .7-.1.3-.1.5-.1.7-.3s.4-.3.5-.5c.1-.2.2-.4.2-.7 0-.5-.3-.9-1-1.1-.7-.2-1.6-.5-2.7-.7-.5-.1-.9-.2-1.4-.4-.5-.1-.9-.3-1.2-.6-.4-.2-.6-.5-.9-.9-.2-.4-.3-.8-.3-1.3 0-.8.1-1.4.4-1.9.3-.5.7-.9 1.2-1.2.5-.3 1-.5 1.7-.6.6-.1 1.2-.2 1.9-.2s1.3.1 1.9.2c.6.1 1.1.3 1.6.6s.9.7 1.2 1.2c.3.5.5 1.1.6 1.8h-3.1c0-.6-.3-1.1-.7-1.3-.4-.2-.9-.3-1.5-.3h-.6c-.2 0-.4.1-.6.1-.2.1-.3.2-.4.3-.1.1-.2.3-.2.6s.1.5.3.7c.2.2.5.3.8.4.3.1.7.2 1.2.3.4.1.9.2 1.4.3.5.1.9.2 1.4.4.5.2.9.4 1.2.6.4.3.6.6.9.9.2.4.3.8.3 1.4 0 .8-.2 1.4-.5 2-.3.5-.7 1-1.2 1.3-.5.3-1.1.5-1.7.7-.7.1-1.3.2-2 .2s-1.4-.1-2-.2c-.7-.1-1.2-.4-1.8-.7-.5-.3-.9-.7-1.3-1.3-.3-.5-.5-1.2-.5-2h3c0 .6.1.9.2 1.2zm15.9-9v2.2h-2.4v5.9c0 .6.1.9.3 1.1.2.2.6.3 1.1.3h.5c.2 0 .3 0 .5-.1v2.5c-.3 0-.6.1-.9.1h-1c-.5 0-1 0-1.4-.1-.5-.1-.9-.2-1.2-.4-.3-.2-.6-.5-.8-.9-.2-.4-.3-.9-.3-1.4v-7h-2v-2.2h2v-3.6h3.3v3.6h2.3zm10.3 9c.1.3.3.5.6.6.2.2.5.3.8.4.3.1.6.1.9.1.2 0 .5 0 .7-.1.3-.1.5-.1.7-.3s.4-.3.5-.5c.1-.2.2-.4.2-.7 0-.5-.3-.9-1-1.1-.7-.2-1.6-.5-2.7-.7-.5-.1-.9-.2-1.4-.4-.5-.1-.9-.3-1.2-.6-.4-.2-.6-.5-.9-.9-.2-.4-.3-.8-.3-1.3 0-.8.1-1.4.4-1.9.3-.5.7-.9 1.2-1.2.5-.3 1-.5 1.7-.6.6-.1 1.2-.2 1.9-.2.6 0 1.3.1 1.9.2.6.1 1.1.3 1.6.6s.9.7 1.2 1.2c.3.5.5 1.1.6 1.8h-3.1c0-.6-.3-1.1-.7-1.3-.4-.2-.9-.3-1.5-.3h-.6c-.2 0-.4.1-.6.1-.2.1-.3.2-.4.3-.1.1-.2.3-.2.6s.1.5.3.7c.2.2.5.3.8.4.3.1.7.2 1.2.3.4.1.9.2 1.4.3.5.1.9.2 1.4.4.5.2.9.4 1.2.6.4.3.6.6.9.9.2.4.3.8.3 1.4 0 .8-.2 1.4-.5 2-.3.5-.7 1-1.2 1.3-.5.3-1.1.5-1.7.7-.7.1-1.3.2-2 .2s-1.4-.1-2-.2c-.7-.1-1.2-.4-1.8-.7-.5-.3-.9-.7-1.3-1.3-.3-.5-.5-1.2-.5-2h3.1c-.1.6-.1.9.1 1.2zm15.9-9v2.2h-2.4v5.9c0 .6.1.9.3 1.1.2.2.6.3 1.1.3h.5c.2 0 .3 0 .5-.1v2.5c-.3 0-.6.1-.9.1h-1c-.5 0-1 0-1.4-.1-.5-.1-.9-.2-1.2-.4-.3-.2-.6-.5-.8-.9-.2-.4-.3-.9-.3-1.4v-7h-2v-2.2h2v-3.6H76v3.6h2.3zm4.8 9.1c.5.5 1.2.7 2.1.7.7 0 1.2-.2 1.7-.5s.8-.7.9-1h2.9c-.5 1.4-1.2 2.4-2.1 3.1-1 .6-2.1.9-3.5.9-.9 0-1.8-.1-2.5-.4-.8-.3-1.4-.7-1.9-1.3-.5-.6-.9-1.2-1.2-2-.3-.8-.4-1.6-.4-2.5 0-.9.1-1.7.4-2.5.3-.8.7-1.4 1.2-2 .5-.6 1.2-1 1.9-1.3.7-.3 1.6-.5 2.5-.5 1 0 1.9.2 2.6.6.8.4 1.4.9 1.9 1.6.5.7.8 1.4 1 2.3.2.8.3 1.7.2 2.6h-8.6c.2.9.4 1.7.9 2.2zm3.7-6.3c-.4-.4-1-.6-1.8-.6-.5 0-1 .1-1.3.3-.3.2-.6.4-.8.7-.2.3-.4.5-.4.8-.1.3-.1.6-.1.8h5.3c-.2-.9-.5-1.5-.9-2zm8.9-2.8v1.5c.4-.6.9-1.1 1.5-1.4.6-.3 1.3-.4 2-.4.9 0 1.7.2 2.4.5.7.4 1.2.8 1.7 1.4.4.6.8 1.3 1 2 .2.8.3 1.6.3 2.4 0 .8-.1 1.6-.3 2.3-.2.7-.5 1.4-1 2-.4.6-1 1-1.6 1.4-.7.3-1.4.5-2.3.5-.7 0-1.4-.1-2-.4-.6-.3-1.1-.7-1.5-1.3v5.6h-3.3v-16.1h3.1zm4.2 9.5c.4-.2.7-.5.9-.8.2-.3.4-.7.5-1.2.1-.5.1-.9.1-1.4 0-.5 0-.9-.1-1.4-.1-.5-.3-.9-.5-1.2-.2-.4-.5-.7-.9-.9-.4-.2-.8-.3-1.3-.3s-1 .1-1.3.3c-.4.2-.7.5-.9.9-.2.4-.4.8-.5 1.2-.1.5-.1.9-.1 1.4 0 .5 0 .9.1 1.4.1.5.3.9.5 1.2.2.3.5.6.9.8.4.2.8.3 1.3.3s1-.1 1.3-.3zm10.3-1.1v3.5h-3.6v-3.5h3.6z"/></svg>