<svg xmlns="http://www.w3.org/2000/svg" viewBox="0 0 160 600"><path d="M15.5 162.9c.7 0 1.4.1 2 .4.6.2 1.1.6 1.5 1 .4.4.7.9 1 1.4.2.5.3 1.1.3 1.8 0 1-.2 1.8-.6 2.5-.4.7-1.1 1.2-2 1.6.4.1.8.3 1.1.6.3.3.5.6.7.9.2.3.3.7.4 1.1.1.4.1.8.2 1.2v.9c0 .3 0 .7.1 1.1 0 .4.1.7.2 1 .1.3.2.6.4.8h-3.6c-.2-.5-.3-1.1-.4-1.9s-.1-1.4-.2-2.1c-.1-.9-.4-1.5-.8-1.9-.4-.4-1.1-.6-2-.6h-3.6v6.4H6.6v-16.4h8.9zm-1.3 7.4c.8 0 1.4-.2 1.9-.6s.6-1 .6-1.8-.2-1.4-.6-1.7c-.4-.4-1-.5-1.9-.5h-4v4.6h4zM26.4 176.4c.5.5 1.2.7 2.1.7.7 0 1.2-.2 1.7-.5s.8-.7.9-1H34c-.5 1.4-1.2 2.4-2.1 3.1-1 .6-2.1.9-3.5.9-.9 0-1.8-.1-2.5-.4-.8-.3-1.4-.7-1.9-1.3-.5-.6-.9-1.2-1.2-2s-.4-1.6-.4-2.5c0-.9.1-1.7.4-2.5.3-.8.7-1.4 1.2-2 .5-.6 1.2-1 1.9-1.3.7-.3 1.6-.5 2.5-.5 1 0 1.9.2 2.6.6s1.4.9 1.9 1.6.8 1.4 1 2.3c.2.8.3 1.7.2 2.6h-8.6c.1 1 .4 1.8.9 2.2zm3.6-6.2c-.4-.4-1-.6-1.8-.6-.5 0-1 .1-1.3.3-.3.2-.6.4-.8.7s-.4.5-.4.8c-.1.3-.1.6-.1.8h5.3c-.2-1-.5-1.6-.9-2zM35.9 171.1c0-.8.2-1.4.6-1.9.3-.5.8-.9 1.3-1.2s1.1-.5 1.8-.7c.7-.1 1.3-.2 2-.2.6 0 1.2 0 1.8.1.6.1 1.2.2 1.7.5s.9.6 1.2 1c.3.4.5 1 .5 1.7v6.2c0 .5 0 1.1.1 1.5.1.5.2.9.3 1.1h-3.3c-.1-.2-.1-.4-.1-.6 0-.2-.1-.4-.1-.6-.5.5-1.1.9-1.8 1.1s-1.4.3-2.2.3c-.6 0-1.1-.1-1.6-.2s-.9-.4-1.3-.6c-.4-.3-.7-.7-.9-1.1s-.3-1-.3-1.6c0-.7.1-1.2.4-1.7s.5-.8.9-1c.4-.3.8-.5 1.3-.6l1.5-.3c.5-.1 1-.1 1.4-.2.5 0 .9-.1 1.3-.2s.7-.2.9-.4c.2-.2.3-.4.3-.8s-.1-.6-.2-.8c-.1-.2-.3-.4-.5-.5-.2-.1-.4-.2-.7-.2-.3 0-.5-.1-.8-.1-.6 0-1.2.1-1.5.4-.4.3-.6.7-.6 1.4h-3.4zm7.6 2.4c-.1.1-.3.2-.5.3-.2.1-.4.1-.7.2s-.5.1-.7.1c-.3 0-.5.1-.8.1-.2 0-.5.1-.7.2l-.6.3c-.2.1-.3.3-.4.5-.1.2-.2.5-.2.8 0 .3.1.5.2.7.1.2.3.4.4.5.2.1.4.2.6.2.2 0 .5.1.8.1.6 0 1.1-.1 1.5-.3.4-.2.6-.5.8-.8.2-.3.3-.6.3-.9s.1-.6.1-.7v-1.3zM57.7 177.8c-.4.6-.9 1.1-1.5 1.4-.6.3-1.3.4-2.1.4-.9 0-1.7-.2-2.3-.5-.7-.3-1.2-.8-1.7-1.4-.4-.6-.8-1.3-1-2-.2-.8-.3-1.6-.3-2.4 0-.8.1-1.6.3-2.3s.6-1.4 1-2c.4-.6 1-1 1.6-1.4.7-.3 1.4-.5 2.3-.5.7 0 1.4.1 2 .4.6.3 1.1.7 1.5 1.3v-6h3.3v16.4h-3.1v-1.4zm-.1-5.9c-.1-.5-.2-.9-.5-1.2-.2-.3-.5-.6-.9-.8-.4-.2-.8-.3-1.3-.3s-1 .1-1.4.3c-.4.2-.7.5-.9.9-.2.4-.4.8-.5 1.2-.1.5-.1.9-.1 1.4 0 .5.1.9.2 1.4.1.5.3.9.5 1.2.2.4.5.7.9.9.4.2.8.3 1.3.3s1-.1 1.3-.3c.4-.2.6-.5.9-.9.2-.4.4-.8.5-1.2.1-.5.1-.9.1-1.4s0-1-.1-1.5zM63.5 171.2v-3.5h3.6v3.5h-3.6zm3.6 4.6v3.5h-3.6v-3.5h3.6zM76.1 165.9l.6-3h13.7l-.6 3h-4.9l-2.8 13.4h-3.6l2.8-13.4h-5.2zM95.3 162.9l-1.2 5.9c.1-.2.3-.4.5-.6.2-.2.5-.4.8-.6.3-.2.7-.3 1.1-.4.4-.1.9-.2 1.4-.2 2.3 0 3.5 1.1 3.5 3.2v.5c0 .2-.1.4-.1.6 0 .2-.1.4-.1.6 0 .2-.1.3-.1.4l-1.5 7h-3.3l1.4-7c0-.2.1-.4.1-.7.1-.3.1-.5.1-.7 0-.4-.2-.6-.5-.9-.3-.2-.7-.3-1.1-.3-.5 0-.9.1-1.3.3-.4.2-.7.4-1 .7-.3.3-.5.7-.7 1.1-.2.4-.3.8-.4 1.2l-1.3 6.3h-3.2l3.4-16.4h3.5zM106.3 174.4v.5c0 .7.2 1.2.6 1.7.4.4 1.1.6 2 .6.3 0 .6 0 .9-.1.3-.1.5-.2.7-.4.2-.2.4-.3.5-.5.1-.2.3-.4.4-.6h3.3c-.3.7-.6 1.3-.9 1.8s-.8.9-1.3 1.3c-.5.3-1.1.6-1.7.8-.7.2-1.4.3-2.3.3-.8 0-1.5-.1-2.2-.3-.7-.2-1.2-.5-1.7-1s-.8-1-1.1-1.6-.4-1.4-.4-2.3c0-1 .2-1.9.5-2.7.3-.9.7-1.7 1.3-2.3.6-.7 1.2-1.2 2.1-1.6s1.7-.6 2.7-.6c.8 0 1.6.1 2.3.3.7.2 1.3.5 1.7 1 .5.4.9 1 1.1 1.6.3.7.4 1.4.4 2.3 0 .6-.1 1.2-.2 1.9h-8.8c.1-.3.1-.2.1-.1zm5.8-3.2c-.1-.3-.2-.6-.3-.8s-.4-.4-.7-.6c-.3-.1-.7-.2-1.2-.2s-.9.1-1.2.2c-.4.1-.7.3-.9.6s-.5.5-.7.8c-.2.3-.3.6-.4 1h5.5c-.1-.4-.1-.7-.1-1zM121.5 167.4l-.5 2.1c.4-.8.9-1.5 1.7-1.9.7-.4 1.6-.6 2.4-.6.3 0 .7 0 1 .1l-.7 3.2c-.2 0-.5-.1-.7-.1s-.5-.1-.7-.1c-.6 0-1.2.1-1.6.3-.4.2-.8.5-1.1.9s-.5.8-.7 1.3c-.2.5-.3 1-.4 1.5l-1.1 5.3h-3.2l2.5-11.9h3.1zM128.1 174.4v.5c0 .7.2 1.2.6 1.7.4.4 1.1.6 2 .6.3 0 .6 0 .9-.1.3-.1.5-.2.7-.4.2-.2.4-.3.5-.5.1-.2.3-.4.4-.6h3.3c-.3.7-.6 1.3-.9 1.8s-.8.9-1.3 1.3c-.5.3-1.1.6-1.7.8-.7.2-1.4.3-2.3.3-.8 0-1.5-.1-2.2-.3-.7-.2-1.2-.5-1.7-1s-.8-1-1.1-1.6-.4-1.4-.4-2.3c0-1 .2-1.9.5-2.7.3-.9.7-1.7 1.3-2.3.6-.7 1.2-1.2 2.1-1.6s1.7-.6 2.7-.6c.8 0 1.6.1 2.3.3.7.2 1.3.5 1.7 1 .5.4.9 1 1.1 1.6.3.7.4 1.4.4 2.3 0 .6-.1 1.2-.2 1.9H128c.1-.3.1-.2.1-.1zm5.7-3.2c-.1-.3-.2-.6-.3-.8s-.4-.4-.7-.6c-.3-.1-.7-.2-1.2-.2s-.9.1-1.2.2c-.4.1-.7.3-.9.6s-.5.5-.7.8c-.2.3-.3.6-.4 1h5.5c0-.4 0-.7-.1-1zM144.8 162.9l-.7 3.5c-.1.5-.3 1-.5 1.5s-.5.9-.8 1.2c-.3.3-.8.6-1.3.8s-1.1.3-1.9.4l.3-1.6c.7-.1 1.2-.4 1.4-.7.3-.4.5-.9.6-1.5h-1.6l.7-3.5h3.8zM150.3 169.7c-.3-.3-.7-.4-1.4-.4-.6 0-1.1.1-1.4.3-.4.2-.6.5-.6.9 0 .3.1.5.3.7.2.2.6.4 1.2.5l1.6.5c.4.1.9.3 1.2.5s.7.4 1 .7c.3.3.5.6.7 1 .2.4.2.8.2 1.3 0 .7-.2 1.4-.5 1.9s-.8.9-1.3 1.3c-.5.3-1.1.6-1.8.7-.7.1-1.4.2-2 .2-.6 0-1.2-.1-1.8-.2-.6-.1-1.1-.3-1.6-.6s-.9-.7-1.2-1.1c-.3-.5-.5-1.1-.5-1.8v-.5h3v.4c0 .3.1.5.2.7s.3.4.5.5c.2.1.5.2.8.3.3.1.6.1.8.1.2 0 .5 0 .7-.1s.5-.1.7-.2c.2-.1.4-.3.5-.4.1-.2.2-.4.2-.7 0-.4-.1-.7-.3-.9-.2-.2-.5-.3-.9-.4l-2.5-.8c-.4-.1-.8-.3-1.1-.4-.3-.2-.6-.3-.8-.6-.2-.2-.4-.5-.5-.8-.1-.3-.2-.7-.2-1.2 0-.7.2-1.3.5-1.8s.8-.9 1.3-1.2 1.1-.5 1.7-.6c.6-.1 1.2-.2 1.8-.2.6 0 1.3.1 1.9.2s1.1.3 1.6.6.8.7 1.1 1.2c.3.5.4 1.1.4 1.9h-3c-.1-.8-.3-1.2-.5-1.5z"/><g><path d="M33.9 188.9l4.5 11.7 2.3-11.7H44l-3.5 16.4h-3.6l-4.5-11.5-2.4 11.5h-3.4l3.4-16.4h3.9zM44.5 197.6c.3-.9.8-1.7 1.4-2.4.6-.7 1.3-1.2 2.2-1.6s1.8-.6 2.9-.6c.8 0 1.6.1 2.2.3.7.2 1.3.5 1.8.9s.9.9 1.1 1.6c.3.6.4 1.4.4 2.2 0 1-.2 2-.5 2.9-.3.9-.8 1.7-1.4 2.4-.6.7-1.3 1.2-2.2 1.6-.9.4-1.8.6-2.9.6-1.7 0-3-.4-4-1.3s-1.5-2.1-1.5-3.8c0-.9.2-1.9.5-2.8zm2.9 3.9c.1.3.2.6.4.9.2.2.4.4.7.6.3.1.6.2 1 .2.6 0 1.1-.2 1.6-.5s.8-.7 1.1-1.2c.3-.5.5-1 .6-1.6.1-.6.2-1.1.2-1.6 0-.8-.2-1.4-.5-1.9-.4-.5-1-.7-1.9-.7-.6 0-1.1.2-1.6.5s-.8.7-1.1 1.2c-.3.5-.5 1-.6 1.6-.1.6-.2 1.1-.2 1.6.2.2.2.6.3.9zM74.1 188.9c.8 0 1.6.1 2.2.2.7.1 1.2.3 1.7.6s.8.7 1.1 1.2c.2.5.4 1.1.4 1.9 0 .5-.1.9-.2 1.3s-.3.8-.6 1.2-.6.6-1 .9-.8.4-1.3.4c.8.2 1.4.6 1.8 1.2s.6 1.3.6 2.1c0 .9-.2 1.7-.5 2.3-.3.7-.8 1.2-1.4 1.7s-1.2.8-2 1c-.8.2-1.5.3-2.4.3h-8.7l3.4-16.4h6.9zm-1.8 13.6c.8 0 1.5-.2 2-.7.5-.4.8-1.1.8-2 0-.4-.1-.8-.3-1-.2-.2-.4-.4-.7-.6-.3-.1-.6-.2-.9-.2h-4.5l-1 4.5h4.6zm1.1-7c.7 0 1.2-.2 1.7-.5.5-.4.7-.9.7-1.6 0-.6-.2-1.1-.5-1.3-.3-.2-.8-.4-1.4-.4h-3.8l-.8 3.8h4.1zM83.8 200.3v.5c0 .7.2 1.2.6 1.7.4.4 1.1.6 2 .6.3 0 .6 0 .9-.1.3-.1.5-.2.7-.4.2-.2.4-.3.5-.5.1-.2.3-.4.4-.6h3.3c-.3.7-.6 1.3-.9 1.8s-.8.9-1.3 1.3c-.5.3-1.1.6-1.7.8-.7.2-1.4.3-2.3.3-.8 0-1.5-.1-2.2-.3-.7-.2-1.2-.5-1.7-1s-.8-1-1.1-1.6c-.3-.6-.4-1.4-.4-2.3 0-1 .2-1.9.5-2.7.3-.9.7-1.7 1.3-2.3.6-.7 1.2-1.2 2.1-1.6s1.7-.6 2.7-.6c.8 0 1.6.1 2.3.3.7.2 1.3.5 1.7 1 .5.4.9 1 1.1 1.6.3.7.4 1.4.4 2.3 0 .6-.1 1.2-.2 1.9h-8.8c.1-.2.1-.1.1-.1zm5.7-3.1c-.1-.3-.2-.6-.3-.8s-.4-.4-.7-.6c-.3-.1-.7-.2-1.2-.2s-.9.1-1.2.2c-.4.1-.7.3-.9.6s-.5.5-.7.8c-.2.3-.3.6-.4 1h5.5c0-.4 0-.7-.1-1zM102.4 193.4l-.5 2.2h-2.3l-1.2 5.9c0 .1-.1.2-.1.3v.2c0 .2 0 .4.1.5l.3.3c.1.1.2.1.4.1h.4c.4 0 .8 0 1.2-.1l-.6 2.5c-.3 0-.7.1-1 .1h-1c-.4 0-.8 0-1.1-.1-.4-.1-.7-.2-1-.4-.3-.2-.5-.4-.7-.7-.2-.3-.3-.7-.2-1.2v-.5c0-.2.1-.4.1-.6l1.3-6.4h-2.1l.5-2.2H97l.7-3.6h3.3l-.7 3.6h2.1zM110.9 193.4l-.5 2.2H108l-1.2 5.9c0 .1-.1.2-.1.3v.2c0 .2 0 .4.1.5l.3.3c.1.1.2.1.4.1h.4c.4 0 .8 0 1.2-.1l-.6 2.5c-.3 0-.7.1-1 .1h-1c-.4 0-.8 0-1.1-.1-.4-.1-.7-.2-1-.4-.3-.2-.5-.4-.7-.7-.2-.3-.3-.7-.2-1.2v-.5c0-.2.1-.4.1-.6l1.3-6.4h-2.1l.5-2.2h2.1l.7-3.6h3.3l-.7 3.6h2.2zM114 200.3v.5c0 .7.2 1.2.6 1.7.4.4 1.1.6 2 .6.3 0 .6 0 .9-.1.3-.1.5-.2.7-.4.2-.2.4-.3.5-.5.1-.2.3-.4.4-.6h3.3c-.3.7-.6 1.3-.9 1.8s-.8.9-1.3 1.3c-.5.3-1.1.6-1.7.8-.7.2-1.4.3-2.3.3-.8 0-1.5-.1-2.2-.3-.7-.2-1.2-.5-1.7-1s-.8-1-1.1-1.6-.4-1.4-.4-2.3c0-1 .2-1.9.5-2.7.3-.9.7-1.7 1.3-2.3.6-.7 1.2-1.2 2.1-1.6s1.7-.6 2.7-.6c.8 0 1.6.1 2.3.3.7.2 1.3.5 1.7 1 .5.4.9 1 1.1 1.6.3.7.4 1.4.4 2.3 0 .6-.1 1.2-.2 1.9H114v-.1zm5.7-3.1c-.1-.3-.2-.6-.3-.8s-.4-.4-.7-.6c-.3-.1-.7-.2-1.2-.2s-.9.1-1.2.2c-.4.1-.7.3-.9.6s-.5.5-.7.8c-.2.3-.3.6-.4 1h5.5c0-.4 0-.7-.1-1zM129.2 193.4l-.5 2.1c.4-.8.9-1.5 1.7-1.9.7-.4 1.6-.6 2.4-.6.3 0 .7 0 1 .1l-.7 3.2c-.2 0-.5-.1-.7-.1s-.5-.1-.7-.1c-.6 0-1.2.1-1.6.3-.4.2-.8.5-1.1.9s-.5.8-.7 1.3c-.2.5-.3 1-.4 1.5l-1.1 5.3h-3.2l2.5-11.9h3.1z"/></g><g><path d="M39.7 217.9l.6-3H54l-.6 3h-4.9l-2.8 13.4H42l2.8-13.4h-5.1zM58 219.4l-2.5 11.9h-3.3l2.5-11.9H58zm-2.9-1.9l.6-2.7H59l-.6 2.7h-3.3zM63.8 219.4l-.4 1.7c.5-.7 1.1-1.2 1.8-1.5s1.5-.5 2.4-.5c.7 0 1.4.2 1.9.5s.8.9 1 1.6c.2-.3.5-.6.8-.8s.6-.5 1-.7c.4-.2.7-.3 1.1-.4.4-.1.8-.1 1.2-.1.5 0 .9.1 1.3.2s.8.3 1.2.6c.3.2.6.6.8.9.2.4.3.8.3 1.3 0 .4 0 .7-.1 1.1-.1.4-.2.7-.2 1.1l-1.5 7h-3.3l1.6-7.5c.1-.3.1-.6.1-.9 0-.4-.1-.7-.4-.9-.3-.2-.6-.4-1-.4s-.8.1-1.2.3-.6.5-.9.8c-.3.3-.5.7-.6 1-.2.4-.3.8-.4 1.1l-1.3 6.4h-3.3l1.6-7.5c.1-.3.1-.6.1-.9 0-.4-.1-.7-.4-.9-.3-.2-.6-.4-1-.4s-.8.1-1.2.3c-.3.2-.6.5-.9.8-.3.3-.5.7-.6 1-.2.4-.3.8-.4 1.1l-1.3 6.4h-3.2l2.5-11.9h2.9zM82.7 226.3v.5c0 .7.2 1.2.6 1.7.4.4 1.1.6 2 .6.3 0 .6 0 .9-.1.3-.1.5-.2.7-.4.2-.2.4-.3.5-.5.1-.2.3-.4.4-.6H91c-.3.7-.6 1.3-.9 1.8s-.8.9-1.3 1.3c-.5.3-1.1.6-1.7.8-.7.2-1.4.3-2.3.3-.8 0-1.5-.1-2.2-.3-.7-.2-1.2-.5-1.7-1-.5-.4-.8-1-1.1-1.6s-.4-1.4-.4-2.3c0-1 .2-1.9.5-2.7.3-.9.7-1.7 1.3-2.3.6-.7 1.2-1.2 2.1-1.6s1.7-.6 2.7-.6c.8 0 1.6.1 2.3.3.7.2 1.3.5 1.7 1 .5.4.9 1 1.1 1.6.3.7.4 1.4.4 2.3 0 .6-.1 1.2-.2 1.9h-8.8c.2-.2.2-.1.2-.1zm5.7-3.2c-.1-.3-.2-.6-.3-.8s-.4-.4-.7-.6c-.3-.1-.7-.2-1.2-.2s-.9.1-1.2.2c-.4.1-.7.3-.9.6s-.5.5-.7.8c-.2.3-.3.6-.4 1h5.5c0-.3 0-.7-.1-1zM107.7 219.4l-.5 2.2h-2.3l-1.2 5.9c0 .1-.1.2-.1.3v.2c0 .2 0 .4.1.5l.3.3c.1.1.2.1.4.1h.4c.4 0 .8 0 1.2-.1l-.6 2.5c-.3 0-.7.1-1 .1h-1c-.4 0-.8 0-1.1-.1-.4-.1-.7-.2-1-.4-.3-.2-.5-.4-.7-.7-.2-.3-.3-.7-.2-1.2v-.5c0-.2.1-.4.1-.6l1.3-6.4h-2.1l.5-2.2h2.1l.7-3.6h3.3l-.7 3.6h2.1zM108.1 223.6c.3-.9.8-1.7 1.4-2.4.6-.7 1.3-1.2 2.2-1.6.8-.4 1.8-.6 2.9-.6.8 0 1.6.1 2.2.3.7.2 1.3.5 1.8.9s.9.9 1.1 1.6c.3.6.4 1.4.4 2.2 0 1-.2 2-.5 2.9-.3.9-.8 1.7-1.4 2.4-.6.7-1.3 1.2-2.2 1.6-.9.4-1.8.6-2.9.6-1.7 0-3-.4-4-1.3s-1.5-2.1-1.5-3.8c.1-.9.2-1.9.5-2.8zm3 3.9c.1.3.2.6.4.9s.4.4.7.6c.3.1.6.2 1 .2.6 0 1.1-.2 1.6-.5.4-.3.8-.7 1.1-1.2.3-.5.5-1 .6-1.6.1-.6.2-1.1.2-1.6 0-.8-.2-1.4-.5-1.9-.4-.5-1-.7-1.9-.7-.6 0-1.1.2-1.6.5-.4.3-.8.7-1.1 1.2-.3.5-.5 1-.6 1.6-.1.6-.2 1.1-.2 1.6.1.2.2.6.3.9z"/></g><g><path d="M45.3 240.8c.8 0 1.6.1 2.2.2.7.1 1.2.3 1.7.6s.8.7 1.1 1.2c.2.5.4 1.1.4 1.9 0 .5-.1.9-.2 1.3s-.3.8-.6 1.2-.6.6-1 .9c-.4.2-.8.4-1.3.4.8.2 1.4.6 1.8 1.2s.6 1.3.6 2.1c0 .9-.2 1.7-.5 2.3-.3.7-.8 1.2-1.4 1.7-.6.4-1.2.8-2 1-.8.2-1.5.3-2.4.3H35l3.4-16.4h6.9zm-1.7 13.7c.8 0 1.5-.2 2-.7.5-.4.8-1.1.8-2 0-.4-.1-.8-.3-1-.2-.2-.4-.4-.7-.6s-.6-.2-.9-.2H40l-1 4.5h4.6zm1-7c.7 0 1.2-.2 1.7-.5.5-.4.7-.9.7-1.6 0-.6-.2-1.1-.5-1.3-.3-.2-.8-.4-1.4-.4h-3.8l-.8 3.8h4.1zM59.5 257.3l.4-1.7c-1.1 1.3-2.4 2-4.2 2-2.3 0-3.5-1.1-3.5-3.2v-.5c0-.2.1-.4.1-.6 0-.2.1-.4.1-.6 0-.2.1-.3.1-.4l1.5-7h3.3l-1.4 7c0 .1-.1.2-.1.3s0 .3-.1.4 0 .3 0 .4v.3c0 .4.2.6.5.9.3.2.7.3 1.1.3.5 0 .9-.1 1.3-.3.4-.2.7-.4 1-.7.3-.3.5-.7.7-1.1.2-.4.3-.8.4-1.2l1.3-6.3h3.3l-2.5 11.9h-3.3zM69.8 260.2c-.3.3-.6.6-1 .8-.4.2-.8.3-1.2.4s-1 .1-1.6.1h-.9c-.3 0-.6-.1-.9-.1l.6-2.7c.2 0 .4 0 .7.1.2 0 .4.1.7.1.4 0 .7-.1.9-.2.2-.1.4-.3.6-.4.1-.2.3-.3.4-.5.1-.2.2-.3.3-.5l-2.1-11.8h3.4l1 8.5 4.1-8.5h3.5L70.7 259l-.9 1.2zM91 240.8l-2.8 13.4h7.9l-.6 3H84l3.4-16.4H91zM102.8 245.4l-2.5 11.9H97l2.5-11.9h3.3zm-2.9-1.9l.6-2.7h3.3l-.6 2.7h-3.3zM103.7 247.6l.5-2.2h2c.2-.8.3-1.4.5-2 .2-.6.4-1.1.8-1.5.3-.4.7-.7 1.3-.9.5-.2 1.2-.3 2.1-.3h1.1c.4 0 .7.1 1.1.1l-.5 2.3h-1c-.4 0-.7.1-.9.1-.2.1-.4.2-.5.4-.1.2-.2.4-.3.7-.1.3-.1.6-.2.9h2.3l-.5 2.2h-2.3l-2 9.7h-3.3l2-9.7h-2.2zM114.6 252.3v.5c0 .7.2 1.2.6 1.7.4.4 1.1.6 2 .6.3 0 .6 0 .9-.1.3-.1.5-.2.7-.4.2-.2.4-.3.5-.5.1-.2.3-.4.4-.6h3.3c-.3.7-.6 1.3-.9 1.8s-.8.9-1.3 1.3c-.5.3-1.1.6-1.7.8-.7.2-1.4.3-2.3.3-.8 0-1.5-.1-2.2-.3-.7-.2-1.2-.5-1.7-1s-.8-1-1.1-1.6-.4-1.4-.4-2.3c0-1 .2-1.9.5-2.7.3-.9.7-1.7 1.3-2.3.6-.7 1.2-1.2 2.1-1.6s1.7-.6 2.7-.6c.8 0 1.6.1 2.3.3.7.2 1.3.5 1.7 1 .5.4.9 1 1.1 1.6.3.7.4 1.4.4 2.3 0 .6-.1 1.2-.2 1.9h-8.8l.1-.1zm5.8-3.2c-.1-.3-.2-.6-.3-.8s-.4-.4-.7-.6c-.3-.1-.7-.2-1.2-.2s-.9.1-1.2.2c-.4.1-.7.3-.9.6s-.5.5-.7.8c-.2.3-.3.6-.4 1h5.5c0-.4-.1-.7-.1-1z"/></g><g><path d="M28.9 266.8l-3.5 16.4h-3.6l3.4-16.4h3.7zM34 271.4l-.4 1.7c1.1-1.3 2.4-2 4.2-2 2.3 0 3.5 1.1 3.5 3.2v.5c0 .2-.1.4-.1.6 0 .2-.1.4-.1.6 0 .2-.1.3-.1.4l-1.5 7h-3.3l1.4-7c0-.2.1-.4.1-.7.1-.3.1-.5.1-.7 0-.4-.2-.6-.5-.9-.3-.2-.7-.3-1.1-.3-.5 0-.9.1-1.3.3-.4.2-.7.4-1 .7-.3.3-.5.7-.7 1.1-.2.4-.3.8-.4 1.2l-1.3 6.3h-3.2l2.5-11.9H34zM50.4 273.7c-.3-.3-.7-.4-1.4-.4-.6 0-1.1.1-1.4.3-.4.2-.6.5-.6.9 0 .3.1.5.3.7s.6.4 1.2.5l1.6.5c.4.1.9.3 1.2.5.4.2.7.4 1 .7.3.3.5.6.7 1 .2.4.2.8.2 1.3 0 .7-.2 1.4-.5 1.9s-.8.9-1.3 1.3c-.5.3-1.1.6-1.8.7-.7.1-1.4.2-2 .2-.6 0-1.2-.1-1.8-.2-.6-.1-1.1-.3-1.6-.6s-.9-.7-1.2-1.1c-.3-.5-.5-1.1-.5-1.8v-.5h3v.4c0 .3.1.5.2.7.1.2.3.4.5.5.2.1.5.2.8.3.3.1.6.1.8.1.2 0 .5 0 .7-.1.2 0 .5-.1.7-.2.2-.1.4-.3.5-.4.1-.2.2-.4.2-.7 0-.4-.1-.7-.3-.9-.2-.2-.5-.3-.9-.4l-2.5-.8c-.4-.1-.8-.3-1.1-.4-.3-.2-.6-.3-.8-.6-.2-.2-.4-.5-.5-.8-.1-.3-.2-.7-.2-1.2 0-.7.2-1.3.5-1.8s.8-.9 1.3-1.2c.5-.3 1.1-.5 1.7-.6.6-.1 1.2-.2 1.8-.2.6 0 1.3.1 1.9.2.6.1 1.1.3 1.6.6s.8.7 1.1 1.2c.3.5.4 1.1.4 1.9h-3c-.1-.9-.3-1.3-.5-1.5zM62.5 283.3l.4-1.7c-1.1 1.3-2.4 2-4.2 2-2.3 0-3.5-1.1-3.5-3.2v-.5c0-.2.1-.4.1-.6 0-.2.1-.4.1-.6 0-.2.1-.3.1-.4l1.5-7h3.3l-1.4 7c0 .1-.1.2-.1.3s0 .3-.1.4 0 .3 0 .4v.3c0 .4.2.6.5.9.3.2.7.3 1.1.3.5 0 .9-.1 1.3-.3.4-.2.7-.4 1-.7.3-.3.5-.7.7-1.1.2-.4.3-.8.4-1.2l1.3-6.3h3.3l-2.5 11.9h-3.3zM74 271.4l-.5 2.1c.4-.8.9-1.5 1.7-1.9.7-.4 1.6-.6 2.4-.6.3 0 .7 0 1 .1l-.7 3.2c-.2 0-.5-.1-.7-.1s-.5-.1-.7-.1c-.6 0-1.2.1-1.6.3-.4.2-.8.5-1.1.9s-.5.8-.7 1.3c-.2.5-.3 1-.4 1.5l-1.1 5.3h-3.2l2.5-11.9H74zM79.7 273.1c.4-.5.8-.9 1.3-1.2.5-.3 1.1-.5 1.7-.7.6-.1 1.3-.2 2-.2.5 0 1.1 0 1.7.1.6.1 1.1.2 1.6.4s.9.5 1.2.9c.3.4.5.9.4 1.6 0 .6-.1 1.2-.3 2l-1.1 4.8c-.1.2-.1.5-.1.8v.8c0 .2 0 .4.1.7H85v-1.2c-.4.5-1 .9-1.6 1.1-.6.2-1.3.4-2 .4-.6 0-1.2-.1-1.7-.3-.5-.2-.9-.4-1.2-.7-.3-.3-.6-.6-.7-1-.2-.4-.2-.8-.2-1.2 0-1.1.4-2.1 1.2-2.8.8-.7 1.9-1.1 3.3-1.3.8-.1 1.4-.2 2-.2s1-.1 1.4-.2c.4-.1.7-.2.8-.4.2-.2.3-.5.3-.9 0-.3-.1-.6-.2-.7-.1-.2-.3-.3-.5-.4-.2-.1-.4-.2-.7-.2-.2 0-.5-.1-.7-.1-.6 0-1.1.1-1.6.4-.5.3-.7.7-.9 1.3h-3c.1-.5.4-1.1.7-1.6zm4.9 4.9c-.5.1-1 .1-1.4.1-.3 0-.6.1-.9.1s-.5.2-.8.3c-.2.1-.4.3-.5.6-.1.2-.2.5-.2.9s.2.8.5 1c.4.2.8.3 1.3.3s.9-.1 1.3-.2l.9-.6c.2-.3.4-.5.6-.9.1-.3.3-.6.3-1l.3-1.1c-.5.3-.9.5-1.4.5zM96.2 271.4l-.4 1.7c1.1-1.3 2.4-2 4.2-2 2.3 0 3.5 1.1 3.5 3.2v.5c0 .2-.1.4-.1.6 0 .2-.1.4-.1.6 0 .2-.1.3-.1.4l-1.5 7h-3.3l1.4-7c0-.2.1-.4.1-.7.1-.3.1-.5.1-.7 0-.4-.2-.6-.5-.9-.3-.2-.7-.3-1.1-.3-.5 0-.9.1-1.3.3-.4.2-.7.4-1 .7-.3.3-.5.7-.7 1.1-.2.4-.3.8-.4 1.2l-1.3 6.3h-3.2l2.5-11.9h3.2zM113.4 274c-.4-.3-.9-.5-1.6-.5-.6 0-1.1.2-1.6.5-.4.3-.8.7-1 1.3-.3.5-.4 1.1-.6 1.6-.1.6-.2 1.1-.2 1.6 0 .4 0 .7.1 1 .1.3.2.6.4.8s.4.4.7.6c.3.1.6.2 1 .2s.7-.1 1-.2c.3-.1.5-.3.8-.5.2-.2.4-.4.6-.7s.3-.5.4-.8h3.3c-.5 1.5-1.2 2.6-2.3 3.4-1 .8-2.3 1.2-3.9 1.2-1.7 0-3-.4-3.9-1.2-.9-.8-1.4-2.1-1.4-3.9 0-1 .1-2 .4-2.9s.7-1.7 1.3-2.4c.6-.7 1.3-1.2 2.1-1.6s1.8-.6 2.9-.6c.7 0 1.4.1 2 .3.6.2 1.2.4 1.7.8s.9.8 1.2 1.4c.3.6.4 1.2.4 2h-3.3c0-.6-.2-1.1-.5-1.4zM121 278.3v.5c0 .7.2 1.2.6 1.7.4.4 1.1.6 2 .6.3 0 .6 0 .9-.1.3-.1.5-.2.7-.4.2-.2.4-.3.5-.5.1-.2.3-.4.4-.6h3.3c-.3.7-.6 1.3-.9 1.8s-.8.9-1.3 1.3c-.5.3-1.1.6-1.7.8-.7.2-1.4.3-2.3.3-.8 0-1.5-.1-2.2-.3-.7-.2-1.2-.5-1.7-1s-.8-1-1.1-1.6-.4-1.4-.4-2.3c0-1 .2-1.9.5-2.7.3-.9.7-1.7 1.3-2.3.6-.7 1.2-1.2 2.1-1.6s1.7-.6 2.7-.6c.8 0 1.6.1 2.3.3.7.2 1.3.5 1.7 1 .5.4.9 1 1.1 1.6.3.7.4 1.4.4 2.3 0 .6-.1 1.2-.2 1.9h-8.8l.1-.1zm5.8-3.2c-.1-.3-.2-.6-.3-.8s-.4-.4-.7-.6c-.3-.1-.7-.2-1.2-.2s-.9.1-1.2.2c-.4.1-.7.3-.9.6s-.5.5-.7.8c-.2.3-.3.6-.4 1h5.5c0-.4-.1-.7-.1-1zM135.2 279.7l-.8 3.5h-3.6l.7-3.5h3.7zm-.8-1.4h-1.6l.6-7 .9-4.5h3.5l-1 4.5-2.4 7z"/></g></svg>