<svg id="Layer_1" xmlns="http://www.w3.org/2000/svg" xmlns:xlink="http://www.w3.org/1999/xlink" viewBox="0 0 160 600"><style>.st0{clip-path:url(#SVGID_00000104687272528819427590000011073792690154241689_);fill:#349946}.st1{fill:#fff}</style><defs><path id="SVGID_1_" d="M12.8 337.9h133.8v28.2H12.8z"/></defs><clipPath id="SVGID_00000002364914759101117970000014596017819877455496_"><use xlink:href="#SVGID_1_" overflow="visible"/></clipPath><path d="M146.7 352c0 7.8-7.3 14.1-16.2 14.1H29.1c-8.9 0-16.2-6.3-16.2-14.1s7.3-14.1 16.2-14.1h101.4c8.9 0 16.2 6.3 16.2 14.1" clip-path="url(#SVGID_00000002364914759101117970000014596017819877455496_)" fill="#349946"/><g><path class="st1" d="M39.2 347.8c.4 0 .8.1 1.1.2.3.1.6.3.8.5s.4.5.5.8c.1.3.2.6.2 1 0 .5-.1 1-.3 1.4-.2.4-.6.7-1.1.9l.6.3c.2.1.3.3.4.5.1.2.2.4.2.6 0 .2.1.5.1.7v1.1c0 .2.1.4.1.6 0 .2.1.3.2.5h-2c-.1-.3-.2-.6-.2-1s-.1-.8-.1-1.1c-.1-.5-.2-.8-.4-1-.2-.2-.6-.3-1.1-.3h-2v3.5h-2v-9h5zm-.7 4c.5 0 .8-.1 1-.3.2-.2.3-.5.3-1 0-.4-.1-.8-.3-1-.2-.2-.6-.3-1-.3h-2.2v2.5h2.2zM50.1 347.8v1.7h-4.8v1.9h4.4v1.5h-4.4v2.2h4.9v1.7h-6.8v-9h6.7zM56.1 347.8l3.4 9h-2.1l-.7-2h-3.4l-.7 2h-2l3.4-9h2.1zm.1 5.5L55 350l-1.2 3.3h2.4zM64.1 347.8c.6 0 1.1.1 1.6.3.5.2.9.5 1.3.8.4.4.7.8.9 1.4.2.6.3 1.2.3 2 0 .7-.1 1.3-.3 1.8-.2.6-.4 1-.8 1.4s-.8.7-1.3 1c-.5.2-1.1.3-1.8.3h-3.9v-9h4zm-.1 7.3c.3 0 .6 0 .8-.1.3-.1.5-.2.7-.5.2-.2.4-.5.5-.8.1-.3.2-.8.2-1.3s0-.9-.1-1.2c-.1-.4-.2-.7-.4-.9-.2-.3-.5-.5-.8-.6s-.7-.2-1.2-.2h-1.4v5.7H64zM77.5 347.8l3.4 9h-2.1l-.7-2h-3.4l-.7 2h-2l3.4-9h2.1zm.2 5.5l-1.1-3.3-1.2 3.3h2.3zM86.5 347.8c.4 0 .8.1 1.1.2.3.1.6.3.8.5s.4.5.5.8c.1.3.2.6.2 1 0 .5-.1 1-.3 1.4s-.6.7-1.1.9l.6.3c.2.1.3.3.4.5.1.2.2.4.2.6 0 .2.1.5.1.7v1.1c0 .2.1.4.1.6 0 .2.1.3.2.5h-2c-.1-.3-.2-.6-.2-1s-.1-.8-.1-1.1c-.1-.5-.2-.8-.4-1-.2-.2-.6-.3-1.1-.3h-2v3.5h-2v-9h5zm-.7 4c.5 0 .8-.1 1-.3.2-.2.3-.5.3-1 0-.4-.1-.8-.3-1-.2-.2-.6-.3-1-.3h-2.2v2.5h2.2z"/></g><g><path class="st1" d="M89.9 349.4v-1.7h7.4v1.7h-2.7v7.3h-2v-7.3h-2.7zM100.2 347.8v9h-2v-9h2zM107.8 350.2c-.1-.2-.3-.4-.4-.5-.2-.1-.4-.3-.6-.3-.2-.1-.5-.1-.7-.1-.4 0-.8.1-1.1.3-.3.2-.6.4-.8.7s-.3.6-.4 1c-.1.4-.1.8-.1 1.1 0 .4 0 .7.1 1.1.1.4.2.7.4 1 .2.3.4.5.8.7.3.2.7.3 1.1.3.6 0 1.1-.2 1.4-.6.3-.4.5-.9.6-1.5h1.9c-.1.6-.2 1.1-.4 1.5-.2.5-.5.8-.8 1.2-.3.3-.7.6-1.2.7-.5.2-1 .3-1.5.3-.7 0-1.3-.1-1.9-.4-.6-.2-1-.6-1.4-1-.4-.4-.7-.9-.9-1.5-.2-.6-.3-1.2-.3-1.8 0-.7.1-1.3.3-1.9.2-.6.5-1.1.9-1.5s.8-.8 1.4-1c.6-.2 1.2-.4 1.9-.4.5 0 1 .1 1.4.2.4.1.8.4 1.2.6.3.3.6.6.9 1 .2.4.4.9.4 1.4h-2c0-.2-.1-.4-.2-.6zM113.3 347.8v7.3h4.4v1.7h-6.4v-9h2zM125.5 347.8v1.7h-4.8v1.9h4.4v1.5h-4.4v2.2h4.9v1.7h-6.8v-9h6.7z"/></g></svg>