<svg id="Layer_1" xmlns="http://www.w3.org/2000/svg" viewBox="0 0 160 600"><style>.st0{fill:#349946}.st1{fill:#231f20}.st2{fill:none}</style><path class="st0" d="M17.2 442.3h-1.6l-.5-1.5h-3.2l-.5 1.5H9.7l2.8-7.5h1.2c.4 0 .7.1.8.4.1.3 1.4 3.6 1.4 3.6h-1.5l-.9-2.5-1.2 3.2h3.3c.4 0 .7.1.8.5l.8 2.3zM31.3 442.3h-1.6l-.5-1.5H26l-.5 1.5h-1.6l2.8-7.5h1.2c.4 0 .7.1.8.4.1.3 1.4 3.6 1.4 3.6h-1.5l-.9-2.5-1.2 3.2h3.3c.4 0 .7.1.8.5l.7 2.3zM17.7 434.8h2.9c2.3 0 3.4 1.2 3.4 3.8 0 1.4-.4 2.5-1.2 3.1-.7.6-1.5.7-2.6.7h-2.5v-7.6zm2.7 6.1c1.4 0 2-.7 2-2.4s-.6-2.4-1.8-2.4h-1.4v4.8h1.2z"/><path class="st1" d="M44.1 442.2h-1.2l-.5-5.4-1.8 5.4h-1l-1.9-5.4-.4 5.4h-1.1l.7-7.1h1.3l1.9 5.5 1.9-5.5h1.3l.8 7.1zM49.9 439.6v.4h-3.5c0 .4.1.7.3 1 .3.3.7.5 1.2.5.4 0 .9-.1 1.4-.4l.4.8c-.5.4-1.2.6-1.9.6-.8 0-1.4-.3-1.9-.8-.4-.5-.7-1.1-.7-1.9 0-.8.2-1.5.7-2 .5-.5 1-.8 1.8-.8.7 0 1.3.2 1.6.7s.6 1 .6 1.9zm-1.1-.5c0-.3-.1-.6-.2-.8-.2-.3-.5-.5-.9-.5s-.7.1-.9.4-.4.6-.4 1h2.4zM58.4 442.2h-1.2v-2.9c0-.6-.1-1-.2-1.2-.1-.2-.4-.3-.6-.3-.4 0-.7.1-1.2.4 0 .1.1.5.1 1.2v2.8h-1.2v-2.9c0-.7-.1-1.1-.2-1.3-.1-.1-.3-.2-.6-.2-.4 0-.8.1-1.1.4v4H51V437h1v.4c.5-.4 1-.5 1.5-.5s1 .2 1.3.6c.6-.4 1.2-.6 1.7-.6s1 .2 1.3.5c.2.2.4.6.5 1 0 .2.1.7.1 1.3v2.5zM64.5 439.5c0 .9-.2 1.5-.7 2.1s-1.2.8-2 .8c-.6 0-1.3-.1-2-.4v-7.4H61v2.7c.4-.3.9-.4 1.3-.4.7 0 1.2.2 1.6.7s.6 1.1.6 1.9zm-1.2 0c0-.5-.1-.9-.4-1.2-.2-.3-.6-.4-.9-.4-.4 0-.7.1-1.1.4v3c.3.1.6.1.9.1.5 0 .8-.2 1.1-.5.2-.4.4-.8.4-1.4zM70 439.6v.4h-3.5c0 .4.1.7.3 1 .3.3.7.5 1.2.5.4 0 .9-.1 1.4-.4l.4.8c-.5.4-1.2.6-1.9.6-.8 0-1.4-.3-1.9-.8-.4-.5-.7-1.1-.7-1.9 0-.8.2-1.5.7-2 .5-.5 1-.8 1.8-.8.7 0 1.3.2 1.6.7.4.4.6 1 .6 1.9zm-1.1-.5c0-.3-.1-.6-.2-.8-.2-.3-.5-.5-.9-.5s-.7.1-.9.4-.4.6-.4 1h2.4zM74.4 437l-.3.9h-.4c-.6 0-1.1.3-1.5.8v3.6H71V437h1v.7c.1-.1.2-.3.5-.4.4-.3.8-.4 1.2-.4.4 0 .6 0 .7.1z"/><g><path class="st1" d="M78.7 440.7c0 .5-.2.9-.6 1.2-.4.3-.8.4-1.4.4-.5 0-.9-.1-1.3-.3-.3-.1-.4-.2-.6-.3l.4-.8c.5.3 1 .4 1.4.4.3 0 .5-.1.7-.2.2-.1.2-.3.2-.5s-.1-.3-.3-.5c-.1-.1-.4-.2-.8-.4s-.7-.3-.9-.5c-.3-.3-.5-.6-.5-1 0-.5.2-.8.5-1.1.4-.3.8-.4 1.4-.4.7 0 1.3.2 1.7.5l-.4.7c-.4-.2-.8-.4-1.2-.4-.6 0-.8.2-.8.6 0 .2.1.3.3.4.1.1.3.2.7.3.5.2.9.4 1.1.6.2.5.4.9.4 1.3zM83.8 442.2h-1.2v-7.1h1.2v7.1zM89.7 442.2h-1.2v-2.8c0-.7-.1-1.1-.2-1.3-.2-.2-.4-.2-.7-.2-.4 0-.7.1-1.2.4v4h-1.2V437h1v.4c.5-.4 1-.5 1.5-.5s1 .2 1.3.5c.2.2.4.5.5.9 0 .2.1.6.1 1.1v2.8zM94.5 440.7c0 .5-.2.9-.6 1.2-.4.3-.8.4-1.4.4-.5 0-.9-.1-1.3-.3-.3-.1-.4-.2-.6-.3l.4-.8c.5.3 1 .4 1.4.4.3 0 .5-.1.7-.2.2-.1.2-.3.2-.5s-.1-.3-.3-.5c-.1-.1-.4-.2-.8-.4s-.7-.3-.9-.5c-.3-.3-.5-.6-.5-1 0-.5.2-.8.5-1.1.4-.3.8-.4 1.4-.4.7 0 1.3.2 1.7.5l-.4.7c-.4-.2-.8-.4-1.2-.4-.6 0-.8.2-.8.6 0 .2.1.3.3.4.1.1.3.2.7.3.5.2.9.4 1.1.6.2.5.4.9.4 1.3zM100.1 442.2h-1v-.4c-.5.4-1 .5-1.5.5s-1-.2-1.3-.5c-.2-.2-.4-.5-.5-.9 0-.2-.1-.6-.1-1.1V437h1.2v3.5c0 .3.1.5.3.6s.4.2.6.2c.3 0 .7-.1 1.1-.4v-4h1.2v5.3zM104.7 437l-.3.9h-.4c-.6 0-1.1.3-1.5.8v3.6h-1.2V437h1v.7c.1-.1.2-.3.5-.4.4-.3.8-.4 1.2-.4.3 0 .5 0 .7.1z"/></g><g><path class="st1" d="M109.3 442.2h-1v-.4c-.5.3-1 .5-1.5.5s-.9-.2-1.2-.5c-.3-.3-.5-.7-.5-1.2 0-1.2 1-1.8 2.9-1.8h.2v-.2c0-.3-.1-.5-.2-.7-.2-.2-.4-.2-.8-.2-.5 0-.9.1-1.4.4l-.4-.8c.1-.1.3-.2.6-.3.4-.2.9-.3 1.4-.3.7 0 1.2.2 1.6.6.2.2.3.4.4.7 0 .2.1.5.1.9v3.3zm-1.1-1.1v-1.4h-.2c-.8 0-1.4.1-1.6.4-.1.1-.2.3-.2.5 0 .3.1.5.3.6.2.1.4.2.7.2.2 0 .5-.1 1-.3zM115 442.2h-1.2v-2.8c0-.7-.1-1.1-.2-1.3-.2-.2-.4-.2-.7-.2-.4 0-.7.1-1.2.4v4h-1.2V437h1v.4c.5-.4 1-.5 1.5-.5s1 .2 1.3.5c.2.2.4.5.5.9 0 .2.1.6.1 1.1v2.8zM120.5 441.7c-.1.1-.3.2-.5.3-.4.2-.9.3-1.4.3-.8 0-1.4-.2-1.9-.7-.5-.5-.7-1.1-.7-1.9 0-.8.3-1.5.8-2s1.2-.8 1.9-.8c.4 0 .8.1 1.2.3.3.1.4.2.5.3l-.5.7c-.4-.2-.8-.4-1.2-.4-.5 0-.9.2-1.2.5-.3.3-.4.7-.4 1.2s.1 1 .4 1.3c.3.3.7.5 1.1.5.4 0 .8-.1 1.3-.4l.6.8z"/></g><g><path class="st1" d="M125.7 439.6v.4h-3.5c0 .4.1.7.3 1 .3.3.7.5 1.2.5.4 0 .9-.1 1.4-.4l.4.8c-.5.4-1.2.6-1.9.6-.8 0-1.4-.3-1.9-.8-.4-.5-.7-1.1-.7-1.9 0-.8.2-1.5.7-2 .5-.5 1-.8 1.8-.8.7 0 1.3.2 1.6.7.5.4.6 1 .6 1.9zm-1.1-.5c0-.3-.1-.6-.2-.8-.2-.3-.5-.5-.9-.5s-.7.1-.9.4-.4.6-.4 1h2.4zM134.3 437.2c0 .7-.2 1.2-.6 1.6-.3.3-.7.5-1.1.6-.3.1-.7.1-1.3.1h-.5v2.7h-1.2v-7.1h1.9c.6 0 1 0 1.3.1.4.1.7.3 1 .5.3.4.5.9.5 1.5zm-1.2.1c0-.4-.1-.7-.3-.9-.2-.2-.6-.3-1.3-.3h-.7v2.4h.5c.8 0 1.3-.1 1.5-.3s.3-.5.3-.9zM136.7 442.2h-1.2v-7.7h1.2v7.7zM142.1 442.2h-1v-.4c-.5.3-1 .5-1.5.5s-.9-.2-1.2-.5c-.3-.3-.5-.7-.5-1.2 0-1.2 1-1.8 2.9-1.8h.2v-.2c0-.3-.1-.5-.2-.7-.2-.2-.4-.2-.8-.2-.5 0-.9.1-1.4.4l-.4-.8c.1-.1.3-.2.6-.3.4-.2.9-.3 1.4-.3.7 0 1.2.2 1.6.6.2.2.3.4.4.7 0 .2.1.5.1.9v3.3zm-1.2-1.1v-1.4h-.2c-.8 0-1.4.1-1.6.4-.1.1-.2.3-.2.5 0 .3.1.5.3.6.2.1.4.2.7.2.2 0 .6-.1 1-.3zM147.7 442.2h-1.2v-2.8c0-.7-.1-1.1-.2-1.3-.2-.2-.4-.2-.7-.2-.4 0-.7.1-1.2.4v4h-1.2V437h1v.4c.5-.4 1-.5 1.5-.5s1 .2 1.3.5c.2.2.4.5.5.9 0 .2.1.6.1 1.1v2.8zM152.5 440.7c0 .5-.2.9-.6 1.2-.4.3-.8.4-1.4.4-.5 0-.9-.1-1.3-.3-.3-.1-.4-.2-.6-.3l.4-.8c.5.3 1 .4 1.4.4.3 0 .5-.1.7-.2.2-.1.2-.3.2-.5s-.1-.3-.3-.5c-.1-.1-.4-.2-.8-.4s-.7-.3-.9-.5c-.3-.3-.5-.6-.5-1 0-.5.2-.8.5-1.1.4-.3.8-.4 1.4-.4.7 0 1.3.2 1.7.5l-.4.7c-.4-.2-.8-.4-1.2-.4-.6 0-.8.2-.8.6 0 .2.1.3.3.4.1.1.3.2.7.3.5.2.9.4 1.1.6.3.5.4.9.4 1.3z"/></g><path class="st0" d="M32.4 442.3c-.5 0-.9-.4-.9-.9s.4-.9.9-.9.9.4.9.9-.4.9-.9.9m0-1.5c-.4 0-.7.3-.7.7 0 .4.3.7.7.7.4 0 .7-.3.7-.7 0-.5-.3-.7-.7-.7m.2 1.1l-.1-.2c-.1-.1-.1-.1-.2-.1v.4h-.2v-1h.2c.1 0 .2 0 .3.1.1.1.1.1.1.2s0 .2-.2.2l.1.1.1.3h-.1zm-.1-.8h-.2v.2h.2s.1 0 0-.2c.1.1 0 0 0 0"/><path class="st2" d="M-.3 433.3h160v12.2H-.3z"/></svg>