<svg id="Layer_1" xmlns="http://www.w3.org/2000/svg" viewBox="0 0 320 50"><style>.st0{fill:#393}.st1{fill:#373535}</style><path class="st0" d="M16.8 5.7l3.6 9.7h-2.2l-.7-2.1h-3.6l-.8 2.1H11l3.6-9.7h2.2zm.1 6l-1.2-3.5-1.3 3.5h2.5zM30.5 13.4c-.1.4-.2.7-.4 1.1-.2.3-.5.6-1 .8-.4.2-1 .3-1.7.3-.4 0-.8-.1-1.2-.2-.4-.1-.7-.3-1-.5-.3-.2-.5-.5-.7-.9s-.3-.8-.3-1.4v-.8h1.9v.4c0 .2 0 .5.1.6s.1.4.2.5c.1.1.2.2.4.3.2.1.4.1.6.1.3 0 .5 0 .6-.1s.3-.2.3-.4c.1-.2.1-.3.1-.5v-7h2.1v6.6c.1.4.1.7 0 1.1zM32.4 8.6c.2-.6.5-1.2.9-1.6.4-.5.9-.8 1.5-1.1.6-.3 1.3-.4 2-.4s1.4.1 2 .4c.6.3 1.1.6 1.5 1.1.4.5.7 1 .9 1.6s.3 1.3.3 2-.1 1.4-.3 2c-.2.6-.5 1.1-.9 1.6s-.9.8-1.5 1.1-1.3.4-2 .4-1.4-.1-2-.4-1.1-.6-1.5-1.1c-.4-.5-.7-1-.9-1.6-.2-.6-.3-1.3-.3-2s.1-1.4.3-2zm1.9 3.2c.1.4.2.7.5 1 .2.3.5.6.8.7.3.2.7.3 1.2.3s.9-.1 1.2-.3c.3-.2.6-.4.8-.7.2-.3.4-.7.5-1s.1-.8.1-1.2c0-.4 0-.8-.1-1.2s-.2-.8-.5-1.1c-.2-.3-.4-.5-.8-.7-.3-.2-.7-.3-1.2-.3s-.9.1-1.2.3c-.3.2-.6.4-.8.7-.2.3-.4.7-.5 1.1-.1.4-.1.8-.1 1.2 0 .4 0 .8.1 1.2zM50.1 14.7c-.7.6-1.7 1-3 1s-2.3-.3-3-.9c-.8-.8-1.1-1.7-1.1-3.1v-6h2.1v6c0 .3 0 .5.1.8 0 .3.1.5.3.7.1.2.3.4.6.5s.6.2 1 .2c.8 0 1.3-.2 1.6-.5.3-.3.4-.9.4-1.6v-6h2.1v6c0 1.2-.4 2.2-1.1 2.9zM58.2 5.7c.4 0 .8.1 1.2.2.3.1.6.3.9.6.2.2.4.5.6.8.1.3.2.7.2 1 0 .6-.1 1.1-.4 1.5s-.6.7-1.2.9c.3.1.5.2.6.3.2.1.3.3.4.5.1.2.2.4.2.7s.1.5.1.7V14c0 .2.1.4.1.6 0 .2.1.4.2.5H59c-.1-.3-.2-.7-.2-1.1 0-.4-.1-.8-.1-1.2-.1-.5-.2-.9-.5-1.1s-.6-.4-1.1-.4H55v3.8h-2V5.7h5.2zm-.7 4.4c.5 0 .9-.1 1.1-.3.2-.2.4-.6.4-1.1 0-.5-.1-.8-.4-1-.2-.2-.6-.3-1.1-.3h-2.3v2.7h2.3zM64.9 5.7l4 6.5V5.7h2v9.7h-2.1l-4-6.5v6.5h-2V5.7h2.1zM80 5.7v1.8h-5.1v2.1h4.7v1.6h-4.7v2.4h5.2v1.8h-7.3V5.7H80zM80.5 5.7h2.4l2.3 3.8 2.2-3.8h2.4l-3.6 5.9v3.7h-2.1v-3.8l-3.6-5.8zM94.2 10.4c.2-.5.4-.8.7-1.2.3-.3.7-.6 1.1-.7s.9-.3 1.5-.3c.5 0 1 .1 1.5.3.4.2.8.4 1.1.7.3.3.6.7.7 1.2.2.5.3 1 .3 1.5 0 .6-.1 1.1-.3 1.5-.2.5-.4.8-.7 1.2-.3.3-.7.6-1.1.7-.4.2-.9.3-1.5.3-.5 0-1-.1-1.5-.3s-.8-.4-1.1-.7c-.3-.3-.6-.7-.7-1.2-.2-.5-.3-1-.3-1.5 0-.6.1-1.1.3-1.5zm1.7 2.3c.1.3.1.5.3.7.1.2.3.4.5.5.2.1.5.2.8.2s.6-.1.8-.2c.2-.1.4-.3.5-.5.1-.2.2-.5.3-.7.1-.3.1-.5.1-.8s0-.6-.1-.8c-.1-.3-.1-.5-.3-.7-.1-.2-.3-.4-.5-.5-.2-.1-.5-.2-.8-.2s-.6.1-.8.2c-.2.1-.4.3-.5.5-.1.2-.2.4-.3.7-.1.3-.1.5-.1.8s.1.6.1.8zM101.7 9.7V8.4h1.1v-.5c0-.6.2-1.1.6-1.5.4-.4 1-.6 1.8-.6h1v1.4h-.7c-.3 0-.4.1-.6.2-.1.1-.2.3-.2.6v.4h1.3v1.3h-1.3v5.7h-1.9V9.7h-1.1zM110.6 10.5c0-.5.1-.8.3-1.1.2-.3.5-.5.8-.7.3-.2.7-.3 1-.4.4-.1.8-.1 1.2-.1.4 0 .7 0 1.1.1.4 0 .7.1 1 .3.3.1.5.3.7.6.2.3.3.6.3 1v3.6c0 .3 0 .6.1.9 0 .3.1.5.2.6h-1.9c0-.1-.1-.2-.1-.3v-.3c-.3.3-.7.5-1.1.7-.4.1-.8.2-1.3.2-.3 0-.6 0-.9-.1-.3-.1-.5-.2-.8-.4-.2-.2-.4-.4-.5-.6-.1-.3-.2-.6-.2-.9 0-.4.1-.7.2-1s.3-.5.5-.6c.2-.2.5-.3.8-.3.3-.1.6-.1.9-.2s.6-.1.9-.1c.3 0 .5-.1.7-.1.2-.1.4-.1.5-.2.1-.1.2-.3.2-.5s0-.4-.1-.5l-.3-.3c-.1-.1-.2-.1-.4-.1h-.5c-.4 0-.7.1-.9.2s-.3.4-.4.8h-2zM115 12c-.1.1-.2.1-.3.2-.1 0-.3.1-.4.1-.1 0-.3 0-.4.1s-.3 0-.5.1c-.1 0-.3.1-.4.1-.1 0-.3.1-.4.2l-.3.3c-.1.1-.1.3-.1.4 0 .2 0 .3.1.4s.1.2.3.3c.1.1.2.1.4.1h.4c.4 0 .7-.1.9-.2.2-.1.4-.3.5-.5s.2-.4.2-.5V12z"/><g><path class="st0" d="M11.2 21.5v-1.8h7.9v1.8h-2.9v7.9h-2.1v-7.9h-2.9zM22.3 19.7v3.7h3.9v-3.7h2.1v9.7h-2.1v-4.2h-3.9v4.2h-2.1v-9.7h2.1zM30.1 22.6c.2-.6.5-1.2.9-1.6.4-.5.9-.8 1.5-1.1.6-.3 1.3-.4 2-.4s1.4.1 2 .4c.6.3 1.1.6 1.5 1.1.4.5.7 1 .9 1.6s.3 1.3.3 2-.1 1.4-.3 2-.5 1.1-.9 1.6-.9.8-1.5 1.1-1.3.4-2 .4-1.4-.1-2-.4-1.1-.6-1.5-1.1c-.4-.5-.7-1-.9-1.6s-.3-1.3-.3-2 .1-1.4.3-2zm2 3.2c.1.4.2.7.5 1 .2.3.5.6.8.7.3.2.7.3 1.2.3s.9-.1 1.2-.3c.3-.2.6-.4.8-.7.2-.3.4-.7.5-1 .1-.4.1-.8.1-1.2 0-.4 0-.8-.1-1.2s-.2-.8-.5-1.1c-.2-.3-.5-.6-.8-.7-.3-.2-.7-.3-1.2-.3s-.9.1-1.2.3c-.3.2-.6.4-.8.7-.2.3-.4.7-.5 1.1-.1.4-.1.8-.1 1.2-.1.4 0 .8.1 1.2zM47.9 28.7c-.7.6-1.7 1-3 1s-2.3-.3-3-.9-1.1-1.6-1.1-2.9v-6h2.1v6c0 .3 0 .5.1.8 0 .3.1.5.3.7.1.2.3.4.6.5.3.1.6.2 1 .2.8 0 1.3-.2 1.6-.5.3-.3.4-.9.4-1.6v-6H49v6c-.1 1-.4 2-1.1 2.7zM52.4 27c.1.2.3.4.5.5s.4.2.7.3c.3.1.5.1.8.1h.6c.2 0 .4-.1.6-.2.2-.1.3-.2.5-.4.1-.2.2-.4.2-.6 0-.3-.1-.5-.2-.6-.2-.2-.4-.3-.7-.4l-.9-.3c-.3-.1-.7-.2-1-.3-.4-.1-.7-.2-1.1-.3-.3-.1-.6-.3-.9-.5-.3-.2-.5-.5-.7-.8-.2-.3-.2-.7-.2-1.1 0-.5.1-.9.3-1.3.2-.4.5-.7.8-.9.3-.2.7-.4 1.2-.5.4-.1.9-.2 1.3-.2.5 0 1 .1 1.5.2s.9.3 1.2.5.6.6.9 1 .3.9.3 1.4H56c0-.3-.1-.5-.2-.7-.1-.2-.2-.3-.4-.4-.2-.1-.4-.2-.6-.2-.2 0-.5-.1-.7-.1-.2 0-.3 0-.5.1-.2 0-.3.1-.5.2-.1.1-.3.2-.3.3-.1.1-.1.3-.1.5s0 .3.1.5c.1.1.2.2.4.3.2.1.5.2.9.3s.9.2 1.5.4c.2 0 .4.1.8.2s.6.2 1 .5c.3.2.6.5.8.8.2.3.3.8.3 1.3 0 .4-.1.9-.3 1.2-.2.4-.4.7-.8 1-.3.3-.8.5-1.3.6s-1.1.2-1.7.2c-.5 0-1-.1-1.5-.2s-.9-.3-1.3-.6-.7-.6-.9-1.1c-.2-.4-.3-.9-.3-1.5h2.1c-.3.3-.2.6-.1.8zM64.4 19.7l3.6 9.7h-2.2l-.8-2.2h-3.6l-.8 2.1h-2.1l3.6-9.7h2.3zm.1 6l-1.2-3.5-1.3 3.5h2.5zM70.9 19.7l4 6.5v-6.5h2v9.7h-2.1l-4-6.5v6.5h-2v-9.7h2.1zM83 19.7c.6 0 1.2.1 1.7.3s1 .5 1.4.9c.4.4.7.9.9 1.5.2.6.3 1.3.3 2.1 0 .7-.1 1.4-.3 1.9-.2.6-.5 1.1-.8 1.5-.4.4-.8.8-1.4 1-.5.2-1.2.4-1.9.4h-4.2v-9.7H83zm-.2 7.9c.3 0 .6 0 .9-.1.3-.1.5-.3.8-.5.2-.2.4-.5.5-.9.1-.4.2-.8.2-1.4 0-.5 0-.9-.1-1.3s-.2-.7-.5-1-.5-.5-.9-.6c-.4-.1-.8-.2-1.3-.2h-1.5v6.1h1.9zM94.2 27c.1.2.3.4.5.5s.4.2.7.3c.3.1.5.1.8.1h.6c.2 0 .4-.1.6-.2.2-.1.3-.2.5-.4.1-.2.2-.4.2-.6 0-.3-.1-.5-.2-.6-.2-.2-.4-.3-.7-.4l-.9-.3c-.3-.1-.7-.2-1-.3-.4-.1-.7-.2-1.1-.3-.3-.1-.6-.3-.9-.5-.3-.2-.5-.5-.7-.8-.2-.3-.2-.7-.2-1.1 0-.5.1-.9.3-1.3.2-.4.5-.7.8-.9.3-.2.7-.4 1.2-.5.4-.1.9-.2 1.3-.2.5 0 1 .1 1.5.2s.9.3 1.2.5.6.6.9 1 .3.9.3 1.4h-2.1c0-.3-.1-.5-.2-.7-.1-.2-.2-.3-.4-.4-.2-.1-.4-.2-.6-.2-.2 0-.5-.1-.7-.1-.2 0-.3 0-.5.1-.2 0-.3.1-.5.2-.1.1-.3.2-.3.3-.1.1-.1.3-.1.5s0 .3.1.5c.1.1.2.2.4.3.2.1.5.2.9.3s.9.2 1.5.4c.2 0 .4.1.8.2s.6.2 1 .5c.3.2.6.5.8.8.2.3.3.8.3 1.3 0 .4-.1.9-.3 1.2-.2.4-.4.7-.8 1-.3.3-.8.5-1.3.6s-1.1.2-1.7.2c-.5 0-1-.1-1.5-.2s-.9-.3-1.3-.6-.7-.6-.9-1.1c-.2-.4-.3-.9-.3-1.5H94c0 .3.1.6.2.8zM104.4 19.7l2.3 6.6 2.1-6.6h3v9.7h-2v-6.8l-2.4 6.8h-1.6l-2.4-6.8v6.8h-2v-9.7h3zM115.7 19.7v9.7h-2.1v-9.7h2.1zM119.7 19.7v7.9h4.7v1.8h-6.8v-9.7h2.1zM132.8 19.7v1.8h-5.1v2.1h4.7v1.6h-4.7v2.4h5.2v1.8h-7.3v-9.7h7.2zM136 27c.1.2.3.4.5.5s.4.2.7.3c.3.1.5.1.8.1h.6c.2 0 .4-.1.6-.2.2-.1.3-.2.5-.4.1-.2.2-.4.2-.6 0-.3-.1-.5-.2-.6-.2-.2-.4-.3-.7-.4l-.9-.3c-.3-.1-.7-.2-1-.3-.4-.1-.7-.2-1.1-.3-.3-.1-.6-.3-.9-.5-.3-.2-.5-.5-.7-.8-.2-.3-.2-.7-.2-1.1 0-.5.1-.9.3-1.3.2-.4.5-.7.8-.9.3-.2.7-.4 1.2-.5.4-.1.9-.2 1.3-.2.5 0 1 .1 1.5.2s.9.3 1.2.5.6.6.9 1 .3.9.3 1.4h-2.1c0-.3-.1-.5-.2-.7-.1-.2-.2-.3-.4-.4-.2-.1-.4-.2-.6-.2-.2 0-.5-.1-.7-.1-.2 0-.3 0-.5.1-.2 0-.3.1-.5.2-.1.1-.3.2-.3.3-.1.1-.1.3-.1.5s0 .3.1.5c.1.1.2.2.4.3.2.1.5.2.9.3s.9.2 1.5.4c.2 0 .4.1.8.2s.6.2 1 .5c.3.2.6.5.8.8.2.3.3.8.3 1.3 0 .4-.1.9-.3 1.2-.2.4-.4.7-.8 1-.3.3-.8.5-1.3.6s-1.1.2-1.7.2c-.5 0-1-.1-1.5-.2s-.9-.3-1.3-.6-.7-.6-.9-1.1c-.2-.4-.3-.9-.3-1.5h2.1c-.3.3-.2.6-.1.8z"/></g><g><path class="st1" d="M13.7 33.4V37c.2-.4.6-.6 1-.8.4-.2.8-.3 1.2-.3.4 0 .7.1 1 .2.3.1.7.4.9.7.3.3.5.7.7 1.1.2.5.3 1 .3 1.7s-.1 1.2-.3 1.7c-.2.5-.4.8-.7 1.1-.3.3-.6.5-.9.7-.3.1-.7.2-1 .2-.5 0-1-.1-1.4-.2-.4-.2-.7-.4-.9-.8v.9h-1.8v-9.7h1.9zm3.1 5.3c-.1-.3-.2-.5-.3-.7-.1-.2-.3-.4-.5-.5-.2-.1-.4-.2-.7-.2-.3 0-.5.1-.7.2-.2.1-.4.3-.5.5-.1.2-.2.4-.3.7s-.1.6-.1.9c0 .3 0 .6.1.8s.2.5.3.7.3.4.5.5c.2.1.5.2.7.2.3 0 .5-.1.7-.2.2-.1.4-.3.5-.5.1-.2.2-.4.3-.7s.1-.5.1-.8c0-.3 0-.6-.1-.9zM22.1 41.4c.3.3.7.4 1.2.4.4 0 .7-.1 1-.3.3-.2.5-.4.5-.6h1.7c-.3.8-.7 1.4-1.2 1.8s-1.2.5-2 .5c-.5 0-1-.1-1.5-.3-.4-.2-.8-.4-1.1-.8s-.5-.7-.7-1.2c-.2-.5-.2-.9-.2-1.5 0-.5.1-1 .3-1.5.2-.5.4-.8.7-1.2.3-.3.7-.6 1.1-.8s.9-.3 1.5-.3 1.1.1 1.6.3c.4.2.8.5 1.1.9.3.4.5.8.6 1.3.1.5.2 1 .1 1.6h-5c-.2 1 0 1.4.3 1.7zm2.1-3.7c-.2-.3-.6-.4-1-.4-.3 0-.6.1-.8.2s-.4.2-.5.4c-.1.2-.2.3-.3.5 0 .2-.1.3-.1.5h3.1c0-.5-.1-.9-.4-1.2zM34.4 43.6c-.1.4-.2.7-.5 1-.3.3-.6.6-1.1.8-.5.2-1.1.3-1.9.3-.3 0-.7 0-1-.1-.4-.1-.7-.2-1-.4-.3-.2-.5-.4-.7-.7-.2-.3-.3-.6-.3-1h1.9c.1.4.3.6.5.8.3.1.6.2.9.2.5 0 .9-.2 1.2-.5.2-.3.4-.7.4-1.2v-.9c-.2.4-.5.6-.9.8-.4.2-.8.3-1.2.3-.5 0-1-.1-1.4-.3s-.7-.4-.9-.8c-.2-.3-.4-.7-.5-1.1-.1-.4-.2-.9-.2-1.4 0-.5.1-.9.2-1.3s.3-.8.6-1.1c.3-.3.6-.6.9-.8.4-.2.8-.3 1.3-.3s.9.1 1.2.3c.3.2.6.5.9.9v-.9h1.8v6.5c-.1.2-.1.5-.2.9zm-2.6-2.3c.2-.1.4-.3.5-.4l.3-.6c.1-.2.1-.5.1-.7 0-.3 0-.6-.1-.8-.1-.3-.1-.5-.3-.7-.1-.2-.3-.4-.5-.5-.2-.1-.5-.2-.8-.2-.3 0-.5.1-.7.2-.2.1-.4.3-.5.4l-.3.6c-.1.2-.1.5-.1.8 0 .3 0 .5.1.8 0 .2.1.5.3.7.1.2.3.4.5.5.2.1.4.2.7.2.3-.2.5-.2.8-.3zM36.1 35v-1.6H38V35h-1.9zm1.9 1.1v7h-1.9v-7H38zM41.4 36.1v1c.2-.4.6-.7.9-.9.4-.2.8-.3 1.2-.3.5 0 .9.1 1.3.2.3.1.6.3.8.6.2.2.3.5.4.9.1.4.1.8.1 1.2v4.3h-1.9v-3.9c0-.6-.1-1-.3-1.3-.2-.3-.5-.4-1-.4s-.9.2-1.1.5c-.2.3-.4.8-.4 1.5v3.7h-1.9v-7h1.9zM49.2 41.4c.1.1.2.3.3.4s.3.2.5.2.4.1.5.1h.4c.1 0 .3-.1.4-.1l.3-.3c.1-.1.1-.3.1-.4 0-.3-.2-.5-.6-.6-.4-.1-.9-.3-1.6-.4-.3-.1-.6-.1-.8-.2-.3-.1-.5-.2-.7-.3-.2-.1-.4-.3-.5-.5-.1-.2-.2-.5-.2-.8 0-.5.1-.8.3-1.1.2-.3.4-.5.7-.7.3-.2.6-.3 1-.4s.7-.1 1.1-.1.7 0 1.1.1.7.2 1 .4.5.4.7.7c.2.3.3.6.3 1.1h-1.8c0-.4-.2-.6-.4-.8-.3-.1-.5-.2-.9-.2H50c-.1 0-.2 0-.3.1s-.2.1-.3.2-.1.2-.1.3c0 .2.1.3.2.4.1.1.3.2.5.3.2.1.4.1.7.2.3.1.5.1.8.2.3.1.6.1.8.2s.5.2.7.4c.2.1.4.3.5.6.1.2.2.5.2.8 0 .5-.1.8-.3 1.2-.2.3-.4.6-.7.8s-.6.3-1 .4c-.4.1-.8.1-1.2.1-.4 0-.8 0-1.2-.1-.4-.1-.7-.2-1-.4-.3-.2-.5-.4-.7-.8s-.3-.7-.3-1.2H49c0-.2.1 0 .2.2zM64.6 43.1l-1.2-4.7-1.2 4.7h-2l-2.2-7h2l1.3 4.7 1.2-4.7h1.9l1.2 4.7 1.3-4.7h2l-2.2 7h-2.1zM69.6 35v-1.6h1.9V35h-1.9zm1.9 1.1v7h-1.9v-7h1.9zM76.9 36.1v1.3h-1.4v3.5c0 .3.1.5.2.6.1.1.3.2.6.2h.6v1.5c-.2 0-.3 0-.5.1s-.4 0-.6 0c-.3 0-.6 0-.8-.1-.3 0-.5-.1-.7-.2-.2-.1-.4-.3-.5-.5-.1-.2-.2-.5-.2-.9v-4.1h-1.2v-1.3h1.2V34h1.9v2.1h1.4zM79.7 33.4V37c.2-.4.6-.7.9-.9s.7-.3 1.1-.3c.5 0 .9.1 1.3.2.3.1.6.3.8.6.2.2.3.5.4.9.1.4.1.8.1 1.2V43h-1.9v-3.9c0-.6-.1-1-.3-1.3-.2-.3-.5-.4-1-.4s-.9.2-1.1.5c-.2.3-.4.8-.4 1.5v3.7h-1.9v-9.7h2zM89.5 38.2c0-.5.1-.8.3-1.1.2-.3.5-.5.8-.7.3-.2.7-.3 1-.4.4-.1.8-.1 1.2-.1.4 0 .7 0 1.1.1.4 0 .7.1 1 .3.3.1.5.3.7.6.2.3.3.6.3 1v3.6c0 .3 0 .6.1.9 0 .3.1.5.2.6h-1.9c0-.1-.1-.2-.1-.3v-.3c-.3.3-.7.5-1.1.7s-.8.2-1.3.2c-.3 0-.6 0-.9-.1-.3-.1-.5-.2-.8-.4-.2-.2-.4-.4-.5-.6-.1-.3-.2-.6-.2-.9 0-.4.1-.7.2-1s.3-.5.5-.6.5-.3.8-.3c.3-.1.6-.1.9-.2.3 0 .6-.1.9-.1.3 0 .5-.1.7-.1.2-.1.4-.1.5-.2.1-.1.2-.3.2-.5s0-.4-.1-.5l-.3-.3c-.1-.1-.2-.1-.4-.1h-.5c-.4 0-.7.1-.9.2-.2.2-.3.4-.4.8h-2zm4.4 1.5c-.1.1-.2.1-.3.2-.1 0-.3.1-.4.1-.1 0-.3 0-.4.1-.2 0-.3 0-.5.1-.1 0-.3.1-.4.1s-.3.1-.4.2l-.3.3c-.1.1-.1.3-.1.4 0 .2 0 .3.1.4s.1.2.3.3c.1.1.2.1.4.1h.4c.4 0 .7-.1.9-.2.2-.1.4-.3.5-.5.1-.2.2-.4.2-.5v-1.1zM102.7 41.4c.1.1.2.3.3.4s.3.2.5.2.4.1.5.1h.4c.1 0 .3-.1.4-.1l.3-.3c.1-.1.1-.3.1-.4 0-.3-.2-.5-.6-.6-.4-.1-.9-.3-1.6-.4-.3-.1-.6-.1-.8-.2-.3-.1-.5-.2-.7-.3-.2-.1-.4-.3-.5-.5-.1-.2-.2-.5-.2-.8 0-.5.1-.8.3-1.1.2-.3.4-.5.7-.7.3-.2.6-.3 1-.4s.7-.1 1.1-.1.7 0 1.1.1.7.2 1 .4.5.4.7.7c.2.3.3.6.3 1.1h-1.8c0-.4-.2-.6-.4-.8-.3-.1-.5-.2-.9-.2h-.4c-.1 0-.2 0-.3.1s-.2.1-.3.2-.1.2-.1.3c0 .2.1.3.2.4.1.1.3.2.5.3.2.1.4.1.7.2.3.1.5.1.8.2.3.1.6.1.8.2s.5.2.7.4c.2.1.4.3.5.6.1.2.2.5.2.8 0 .5-.1.8-.3 1.2-.2.3-.4.6-.7.8s-.6.3-1 .4c-.4.1-.8.1-1.2.1-.4 0-.8 0-1.2-.1-.4-.1-.7-.2-1-.4-.3-.2-.5-.4-.7-.8s-.3-.7-.3-1.2h1.8c0-.2 0 0 .1.2zM108.4 35v-1.6h1.9V35h-1.9zm1.9 1.1v7h-1.9v-7h1.9zM113.7 36.1v1c.2-.4.6-.7.9-.9.4-.2.8-.3 1.2-.3.5 0 .9.1 1.3.2.3.1.6.3.8.6.2.2.3.5.4.9.1.4.1.8.1 1.2v4.3h-1.9v-3.9c0-.6-.1-1-.3-1.3-.2-.3-.5-.4-1-.4s-.9.2-1.1.5c-.2.3-.4.8-.4 1.5v3.7h-1.9v-7h1.9zM126.5 43.6c-.1.4-.2.7-.5 1-.3.3-.6.6-1.1.8-.5.2-1.1.3-1.9.3-.3 0-.7 0-1-.1-.4-.1-.7-.2-1-.4-.3-.2-.5-.4-.7-.7-.2-.3-.3-.6-.3-1h1.9c.1.4.3.6.5.8.3.1.6.2.9.2.5 0 .9-.2 1.2-.5.2-.3.4-.7.4-1.2v-.9c-.2.4-.5.6-.9.8-.4.2-.8.3-1.2.3-.5 0-1-.1-1.4-.3s-.7-.4-.9-.8c-.2-.3-.4-.7-.5-1.1-.1-.4-.2-.9-.2-1.4 0-.5.1-.9.2-1.3s.3-.8.6-1.1c.3-.3.6-.6.9-.8.4-.2.8-.3 1.3-.3s.9.1 1.2.3c.3.2.6.5.9.9v-.9h1.8v6.5c-.1.2-.2.5-.2.9zm-2.7-2.3c.2-.1.4-.3.5-.4l.3-.6c.1-.2.1-.5.1-.7 0-.3 0-.6-.1-.8-.1-.3-.1-.5-.3-.7-.1-.2-.3-.4-.5-.5-.2-.1-.5-.2-.8-.2-.3 0-.5.1-.7.2-.2.1-.4.3-.5.4l-.3.6c-.1.2-.1.5-.1.8 0 .3 0 .5.1.8 0 .2.1.5.3.7.1.2.3.4.5.5.2.1.4.2.7.2.4-.2.6-.2.8-.3zM130.1 33.4v9.7h-1.9v-9.7h1.9zM133.7 41.4c.3.3.7.4 1.2.4.4 0 .7-.1 1-.3.3-.2.5-.4.5-.6h1.7c-.3.8-.7 1.4-1.2 1.8s-1.2.5-2 .5c-.5 0-1-.1-1.5-.3-.4-.2-.8-.4-1.1-.8s-.5-.7-.7-1.2c-.2-.5-.2-.9-.2-1.5 0-.5.1-1 .3-1.5.2-.5.4-.8.7-1.2.3-.3.7-.6 1.1-.8s.9-.3 1.5-.3 1.1.1 1.6.3c.4.2.8.5 1.1.9.3.4.5.8.6 1.3.1.5.2 1 .1 1.6h-5c-.2 1 0 1.4.3 1.7zm2.1-3.7c-.2-.3-.6-.4-1-.4-.3 0-.6.1-.8.2s-.4.2-.5.4c-.1.2-.2.3-.3.5 0 .2-.1.3-.1.5h3.1c0-.5-.1-.9-.4-1.2zM144.9 40.7c.1.2.3.4.5.5s.4.2.7.3c.3.1.5.1.8.1h.6c.2 0 .4-.1.6-.2.2-.1.3-.2.5-.4.1-.2.2-.4.2-.6 0-.3-.1-.5-.2-.6-.2-.2-.4-.3-.7-.4l-.9-.3c-.3-.1-.7-.2-1-.3-.4-.1-.7-.2-1.1-.3-.3-.1-.6-.3-.9-.5-.3-.2-.5-.5-.7-.8-.2-.3-.2-.7-.2-1.1 0-.5.1-.9.3-1.3s.5-.7.8-.9c.3-.2.7-.4 1.2-.5s.9-.2 1.3-.2c.5 0 1 .1 1.5.2s.9.3 1.2.5.6.6.9 1c.2.4.3.9.3 1.4h-2.1c0-.3-.1-.5-.2-.7s-.2-.3-.4-.4c-.2-.1-.4-.2-.6-.2s-.5-.1-.7-.1c-.2 0-.3 0-.5.1-.2 0-.3.1-.5.2s-.3.2-.3.3c-.1.1-.1.3-.1.5s0 .3.1.5c.1.1.2.2.4.3.2.1.5.2.9.3.4.1.9.2 1.5.4.2 0 .4.1.8.2.3.1.6.2 1 .5.3.2.6.5.8.8.2.3.3.8.3 1.3 0 .4-.1.9-.3 1.2-.2.4-.4.7-.8 1-.3.3-.8.5-1.3.6s-1.1.2-1.7.2c-.5 0-1-.1-1.5-.2s-.9-.3-1.3-.6-.7-.6-.9-1.1c-.2-.4-.3-.9-.3-1.5h2.1c-.2.3-.2.6-.1.8zM151.3 35.2v-1.8h7.9v1.8h-2.9v7.9h-2.1v-7.9h-2.9zM167.6 33.4v1.8h-5.1v2.1h4.7v1.6h-4.7v2.4h5.2v1.8h-7.3v-9.7h7.2zM173.5 33.4c.6 0 1.1.1 1.5.3.4.2.8.4 1 .7.3.3.5.6.6 1 .1.4.2.8.2 1.1 0 .4-.1.8-.2 1.1-.1.4-.3.7-.6 1-.3.3-.6.5-1 .7-.4.2-.9.3-1.5.3h-2.2v3.5h-2.1v-9.7h4.3zm-.6 4.6c.2 0 .5 0 .7-.1.2 0 .4-.1.6-.2.2-.1.3-.2.4-.4.1-.2.2-.4.2-.7 0-.3-.1-.6-.2-.7-.1-.2-.2-.3-.4-.4-.2-.1-.4-.2-.6-.2-.2 0-.5-.1-.7-.1h-1.6V38h1.6z"/></g></svg>