<?xml version="1.0" encoding="utf-8"?>
<!-- Generator: Adobe Illustrator 25.4.1, SVG Export Plug-In . SVG Version: 6.00 Build 0)  -->
<svg version="1.1" id="Layer_1" xmlns="http://www.w3.org/2000/svg" xmlns:xlink="http://www.w3.org/1999/xlink" x="0px" y="0px"
	 viewBox="0 0 320 50" style="enable-background:new 0 0 320 50;" xml:space="preserve">
<style type="text/css">
	.st0{fill:#339933;}
</style>
<g>
	<path class="st0" d="M21.9,10.5c0.8,0,1.4,0.1,1.9,0.3c0.5,0.2,1,0.5,1.3,0.9c0.3,0.4,0.6,0.8,0.7,1.2c0.2,0.5,0.2,1,0.2,1.5
		c0,0.5-0.1,1-0.2,1.4c-0.2,0.5-0.4,0.9-0.7,1.3c-0.3,0.4-0.8,0.7-1.3,0.9c-0.5,0.2-1.2,0.3-1.9,0.3h-2.8v4.4h-2.7V10.5H21.9z
		 M21.2,16.2c0.3,0,0.6,0,0.9-0.1c0.3,0,0.5-0.1,0.8-0.3c0.2-0.1,0.4-0.3,0.5-0.6c0.1-0.2,0.2-0.6,0.2-0.9c0-0.4-0.1-0.7-0.2-0.9
		c-0.1-0.2-0.3-0.4-0.5-0.6c-0.2-0.1-0.5-0.2-0.8-0.3c-0.3,0-0.6-0.1-0.9-0.1h-2.1v3.7H21.2z"/>
	<path class="st0" d="M29.9,13.8v1.6h0c0.1-0.3,0.3-0.5,0.5-0.8c0.2-0.2,0.4-0.4,0.7-0.6c0.3-0.2,0.5-0.3,0.8-0.4
		c0.3-0.1,0.6-0.1,0.9-0.1c0.2,0,0.3,0,0.5,0.1v2.3c-0.1,0-0.3,0-0.4-0.1c-0.2,0-0.3,0-0.5,0c-0.4,0-0.8,0.1-1.1,0.2
		c-0.3,0.1-0.6,0.4-0.7,0.6c-0.2,0.3-0.3,0.6-0.4,0.9C30,17.9,30,18.3,30,18.7v4h-2.4v-8.8H29.9z"/>
	<path class="st0" d="M34.1,16.6c0-0.6,0.2-1,0.4-1.4c0.3-0.4,0.6-0.7,1-0.9c0.4-0.2,0.8-0.4,1.3-0.5c0.5-0.1,1-0.1,1.5-0.1
		c0.4,0,0.9,0,1.4,0.1s0.9,0.2,1.2,0.4c0.4,0.2,0.7,0.4,0.9,0.8c0.2,0.3,0.4,0.8,0.4,1.3v4.6c0,0.4,0,0.8,0.1,1.1
		c0,0.4,0.1,0.6,0.2,0.8H40c0-0.1-0.1-0.3-0.1-0.4s0-0.3-0.1-0.4c-0.4,0.4-0.8,0.7-1.4,0.8s-1.1,0.2-1.6,0.2c-0.4,0-0.8-0.1-1.2-0.2
		s-0.7-0.3-1-0.5c-0.3-0.2-0.5-0.5-0.6-0.8s-0.2-0.7-0.2-1.2c0-0.5,0.1-0.9,0.3-1.2s0.4-0.6,0.7-0.8c0.3-0.2,0.6-0.3,1-0.4
		c0.4-0.1,0.7-0.2,1.1-0.2s0.7-0.1,1.1-0.1s0.7-0.1,0.9-0.2c0.3-0.1,0.5-0.2,0.6-0.3c0.2-0.1,0.2-0.3,0.2-0.6c0-0.3,0-0.5-0.1-0.6
		c-0.1-0.2-0.2-0.3-0.3-0.4s-0.3-0.1-0.5-0.2c-0.2,0-0.4,0-0.6,0c-0.5,0-0.9,0.1-1.1,0.3c-0.3,0.2-0.4,0.5-0.5,1H34.1z M39.7,18.3
		c-0.1,0.1-0.2,0.2-0.4,0.2s-0.3,0.1-0.5,0.1s-0.4,0.1-0.6,0.1c-0.2,0-0.4,0.1-0.6,0.1c-0.2,0-0.4,0.1-0.5,0.1s-0.3,0.1-0.5,0.2
		c-0.1,0.1-0.2,0.2-0.3,0.4c-0.1,0.1-0.1,0.3-0.1,0.6c0,0.2,0,0.4,0.1,0.5c0.1,0.1,0.2,0.3,0.3,0.4c0.1,0.1,0.3,0.1,0.5,0.2
		c0.2,0,0.4,0.1,0.6,0.1c0.5,0,0.8-0.1,1.1-0.2c0.3-0.2,0.5-0.4,0.6-0.6c0.1-0.2,0.2-0.4,0.2-0.7c0-0.2,0-0.4,0-0.5V18.3z"/>
	<path class="st0" d="M48.3,15.4c-0.4,0-0.7,0.1-1,0.3s-0.5,0.4-0.6,0.7c-0.2,0.3-0.3,0.6-0.4,0.9s-0.1,0.7-0.1,1c0,0.3,0,0.6,0.1,1
		c0.1,0.3,0.2,0.6,0.3,0.9c0.2,0.3,0.4,0.5,0.6,0.7c0.3,0.2,0.6,0.3,1,0.3c0.6,0,1-0.2,1.3-0.5c0.3-0.3,0.5-0.8,0.6-1.3h2.3
		c-0.2,1.2-0.6,2.1-1.4,2.7s-1.7,0.9-2.9,0.9c-0.7,0-1.3-0.1-1.8-0.3c-0.6-0.2-1-0.5-1.4-0.9c-0.4-0.4-0.7-0.9-0.9-1.4
		c-0.2-0.6-0.3-1.2-0.3-1.8c0-0.7,0.1-1.3,0.3-1.9c0.2-0.6,0.5-1.1,0.9-1.5s0.9-0.8,1.4-1c0.6-0.2,1.2-0.4,1.9-0.4
		c0.5,0,1,0.1,1.5,0.2c0.5,0.1,0.9,0.3,1.3,0.6c0.4,0.3,0.7,0.6,0.9,1c0.2,0.4,0.4,0.9,0.4,1.5H50C49.9,15.9,49.3,15.4,48.3,15.4z"
		/>
	<path class="st0" d="M58.7,13.8v1.6h-1.8v4.4c0,0.4,0.1,0.7,0.2,0.8c0.1,0.1,0.4,0.2,0.8,0.2c0.1,0,0.3,0,0.4,0
		c0.1,0,0.2,0,0.4-0.1v1.9c-0.2,0-0.4,0.1-0.7,0.1c-0.3,0-0.5,0-0.7,0c-0.4,0-0.7,0-1.1-0.1c-0.3-0.1-0.6-0.2-0.9-0.3
		c-0.3-0.1-0.5-0.4-0.6-0.6c-0.1-0.3-0.2-0.6-0.2-1.1v-5.2H53v-1.6h1.5v-2.7h2.4v2.7H58.7z"/>
	<path class="st0" d="M59.9,12.5v-2h2.4v2H59.9z M62.4,13.8v8.8h-2.4v-8.8H62.4z"/>
	<path class="st0" d="M68.5,15.4c-0.4,0-0.7,0.1-1,0.3s-0.5,0.4-0.6,0.7c-0.2,0.3-0.3,0.6-0.4,0.9s-0.1,0.7-0.1,1c0,0.3,0,0.6,0.1,1
		c0.1,0.3,0.2,0.6,0.3,0.9c0.2,0.3,0.4,0.5,0.6,0.7c0.3,0.2,0.6,0.3,1,0.3c0.6,0,1-0.2,1.3-0.5c0.3-0.3,0.5-0.8,0.6-1.3h2.3
		c-0.2,1.2-0.6,2.1-1.4,2.7s-1.7,0.9-2.9,0.9c-0.7,0-1.3-0.1-1.8-0.3c-0.6-0.2-1-0.5-1.4-0.9c-0.4-0.4-0.7-0.9-0.9-1.4
		C64.1,19.7,64,19,64,18.4c0-0.7,0.1-1.3,0.3-1.9c0.2-0.6,0.5-1.1,0.9-1.5s0.9-0.8,1.4-1c0.6-0.2,1.2-0.4,1.9-0.4
		c0.5,0,1,0.1,1.5,0.2c0.5,0.1,0.9,0.3,1.3,0.6c0.4,0.3,0.7,0.6,0.9,1c0.2,0.4,0.4,0.9,0.4,1.5h-2.4C70.1,15.9,69.5,15.4,68.5,15.4z
		"/>
	<path class="st0" d="M74,16.6c0-0.6,0.2-1,0.4-1.4c0.3-0.4,0.6-0.7,1-0.9c0.4-0.2,0.8-0.4,1.3-0.5c0.5-0.1,1-0.1,1.5-0.1
		c0.4,0,0.9,0,1.4,0.1s0.9,0.2,1.2,0.4c0.4,0.2,0.7,0.4,0.9,0.8c0.2,0.3,0.4,0.8,0.4,1.3v4.6c0,0.4,0,0.8,0.1,1.1
		c0,0.4,0.1,0.6,0.2,0.8h-2.5c0-0.1-0.1-0.3-0.1-0.4s0-0.3-0.1-0.4c-0.4,0.4-0.8,0.7-1.4,0.8s-1.1,0.2-1.6,0.2
		c-0.4,0-0.8-0.1-1.2-0.2s-0.7-0.3-1-0.5c-0.3-0.2-0.5-0.5-0.6-0.8s-0.2-0.7-0.2-1.2c0-0.5,0.1-0.9,0.3-1.2s0.4-0.6,0.7-0.8
		c0.3-0.2,0.6-0.3,1-0.4c0.4-0.1,0.7-0.2,1.1-0.2s0.7-0.1,1.1-0.1s0.7-0.1,0.9-0.2c0.3-0.1,0.5-0.2,0.6-0.3c0.2-0.1,0.2-0.3,0.2-0.6
		c0-0.3,0-0.5-0.1-0.6c-0.1-0.2-0.2-0.3-0.3-0.4s-0.3-0.1-0.5-0.2c-0.2,0-0.4,0-0.6,0c-0.5,0-0.9,0.1-1.1,0.3
		c-0.3,0.2-0.4,0.5-0.5,1H74z M79.6,18.3c-0.1,0.1-0.2,0.2-0.4,0.2s-0.3,0.1-0.5,0.1s-0.4,0.1-0.6,0.1c-0.2,0-0.4,0.1-0.6,0.1
		c-0.2,0-0.4,0.1-0.5,0.1s-0.3,0.1-0.5,0.2c-0.1,0.1-0.2,0.2-0.3,0.4c-0.1,0.1-0.1,0.3-0.1,0.6c0,0.2,0,0.4,0.1,0.5
		c0.1,0.1,0.2,0.3,0.3,0.4c0.1,0.1,0.3,0.1,0.5,0.2c0.2,0,0.4,0.1,0.6,0.1c0.5,0,0.8-0.1,1.1-0.2c0.3-0.2,0.5-0.4,0.6-0.6
		c0.1-0.2,0.2-0.4,0.2-0.7c0-0.2,0-0.4,0-0.5V18.3z"/>
	<path class="st0" d="M86.4,10.5v12.2H84V10.5H86.4z"/>
	<path class="st0" d="M102.3,22.7l-2.1-8.3h0l-2,8.3h-2.7l-3.2-12.2h2.7l1.9,8.3h0l2.1-8.3h2.5l2.1,8.4h0l2-8.4h2.6L105,22.7H102.3z
		"/>
	<path class="st0" d="M109.3,12.5v-2h2.4v2H109.3z M111.7,13.8v8.8h-2.4v-8.8H111.7z"/>
	<path class="st0" d="M115.7,20.5c0.1,0.2,0.2,0.3,0.4,0.5c0.2,0.1,0.4,0.2,0.6,0.3c0.2,0.1,0.5,0.1,0.7,0.1c0.2,0,0.4,0,0.5-0.1
		c0.2,0,0.4-0.1,0.5-0.2c0.2-0.1,0.3-0.2,0.4-0.3s0.2-0.3,0.2-0.5c0-0.4-0.2-0.6-0.7-0.8c-0.5-0.2-1.2-0.4-2-0.5
		c-0.4-0.1-0.7-0.2-1-0.3c-0.3-0.1-0.6-0.3-0.9-0.4c-0.3-0.2-0.5-0.4-0.6-0.7c-0.2-0.3-0.2-0.6-0.2-1c0-0.6,0.1-1,0.3-1.4
		c0.2-0.4,0.5-0.7,0.9-0.9c0.4-0.2,0.8-0.4,1.2-0.4c0.5-0.1,0.9-0.1,1.4-0.1s0.9,0,1.4,0.1c0.5,0.1,0.9,0.2,1.2,0.5
		c0.4,0.2,0.6,0.5,0.9,0.9c0.2,0.4,0.4,0.8,0.4,1.4h-2.3c0-0.5-0.2-0.8-0.5-0.9c-0.3-0.2-0.7-0.2-1.1-0.2c-0.1,0-0.3,0-0.4,0
		s-0.3,0.1-0.4,0.1c-0.1,0.1-0.2,0.1-0.3,0.2c-0.1,0.1-0.1,0.3-0.1,0.4c0,0.2,0.1,0.4,0.2,0.5s0.4,0.2,0.6,0.3
		c0.3,0.1,0.5,0.2,0.9,0.2c0.3,0.1,0.7,0.1,1,0.2c0.4,0.1,0.7,0.2,1,0.3c0.3,0.1,0.6,0.3,0.9,0.5c0.3,0.2,0.5,0.4,0.6,0.7
		s0.2,0.6,0.2,1c0,0.6-0.1,1.1-0.4,1.5s-0.5,0.7-0.9,0.9c-0.4,0.2-0.8,0.4-1.3,0.5c-0.5,0.1-1,0.1-1.5,0.1c-0.5,0-1-0.1-1.5-0.2
		c-0.5-0.1-0.9-0.3-1.3-0.5c-0.4-0.2-0.7-0.6-0.9-0.9s-0.4-0.9-0.4-1.5h2.3C115.5,20.1,115.6,20.3,115.7,20.5z"/>
	<path class="st0" d="M129.1,21.5c-0.3,0.5-0.7,0.8-1.1,1s-1,0.3-1.6,0.3c-0.7,0-1.2-0.1-1.7-0.4c-0.5-0.3-0.9-0.6-1.2-1
		c-0.3-0.4-0.6-0.9-0.7-1.5c-0.2-0.6-0.2-1.2-0.2-1.8c0-0.6,0.1-1.2,0.2-1.7c0.2-0.6,0.4-1,0.7-1.5c0.3-0.4,0.7-0.8,1.2-1
		c0.5-0.3,1.1-0.4,1.7-0.4c0.5,0,1,0.1,1.5,0.3s0.8,0.6,1.1,1h0v-4.4h2.4v12.2h-2.3L129.1,21.5L129.1,21.5z M129,17.2
		c-0.1-0.3-0.2-0.6-0.4-0.9c-0.2-0.3-0.4-0.5-0.6-0.6c-0.3-0.2-0.6-0.2-1-0.2c-0.4,0-0.7,0.1-1,0.2c-0.3,0.2-0.5,0.4-0.7,0.6
		c-0.2,0.3-0.3,0.6-0.4,0.9s-0.1,0.7-0.1,1.1c0,0.3,0,0.7,0.1,1c0.1,0.3,0.2,0.6,0.4,0.9c0.2,0.3,0.4,0.5,0.7,0.6
		c0.3,0.2,0.6,0.2,1,0.2c0.4,0,0.7-0.1,1-0.2s0.5-0.4,0.6-0.6c0.2-0.3,0.3-0.6,0.3-0.9c0.1-0.3,0.1-0.7,0.1-1.1
		C129.1,17.9,129.1,17.5,129,17.2z"/>
	<path class="st0" d="M133.3,16.3c0.2-0.6,0.5-1.1,0.9-1.5c0.4-0.4,0.9-0.7,1.4-0.9c0.6-0.2,1.2-0.3,1.9-0.3c0.7,0,1.3,0.1,1.9,0.3
		s1,0.5,1.4,0.9c0.4,0.4,0.7,0.9,0.9,1.5c0.2,0.6,0.3,1.2,0.3,1.9s-0.1,1.3-0.3,1.9c-0.2,0.6-0.5,1.1-0.9,1.5
		c-0.4,0.4-0.9,0.7-1.4,0.9c-0.6,0.2-1.2,0.3-1.9,0.3c-0.7,0-1.3-0.1-1.9-0.3c-0.6-0.2-1-0.5-1.4-0.9c-0.4-0.4-0.7-0.9-0.9-1.5
		c-0.2-0.6-0.3-1.2-0.3-1.9S133.1,16.9,133.3,16.3z M135.5,19.3c0.1,0.3,0.2,0.6,0.4,0.9c0.2,0.3,0.4,0.5,0.7,0.6
		c0.3,0.2,0.6,0.2,1,0.2s0.8-0.1,1-0.2c0.3-0.2,0.5-0.4,0.7-0.6c0.2-0.3,0.3-0.6,0.4-0.9s0.1-0.7,0.1-1c0-0.4,0-0.7-0.1-1
		c-0.1-0.3-0.2-0.6-0.4-0.9c-0.2-0.3-0.4-0.5-0.7-0.6c-0.3-0.2-0.6-0.2-1-0.2s-0.8,0.1-1,0.2c-0.3,0.2-0.5,0.4-0.7,0.6
		c-0.2,0.3-0.3,0.6-0.4,0.9c-0.1,0.3-0.1,0.7-0.1,1C135.4,18.6,135.5,19,135.5,19.3z"/>
	<path class="st0" d="M146.1,13.8V15h0c0.3-0.5,0.7-0.8,1.2-1.1c0.5-0.3,1-0.4,1.5-0.4c0.6,0,1.1,0.1,1.5,0.3
		c0.5,0.2,0.8,0.6,1.1,1.1c0.3-0.4,0.6-0.7,1.1-1c0.4-0.3,1-0.4,1.6-0.4c0.5,0,0.9,0.1,1.3,0.2c0.4,0.1,0.7,0.3,1,0.5
		c0.3,0.3,0.5,0.6,0.7,1c0.2,0.4,0.2,0.9,0.2,1.5v5.9h-2.4v-5c0-0.3,0-0.6,0-0.8c0-0.3-0.1-0.5-0.2-0.7c-0.1-0.2-0.3-0.3-0.5-0.5
		c-0.2-0.1-0.5-0.2-0.8-0.2s-0.6,0.1-0.8,0.2c-0.2,0.1-0.4,0.3-0.5,0.5c-0.1,0.2-0.2,0.5-0.2,0.7c0,0.3-0.1,0.5-0.1,0.8v4.9h-2.4v-5
		c0-0.3,0-0.5,0-0.8c0-0.3-0.1-0.5-0.1-0.7s-0.2-0.4-0.4-0.5c-0.2-0.1-0.5-0.2-0.9-0.2c-0.1,0-0.3,0-0.5,0.1
		c-0.2,0.1-0.4,0.1-0.5,0.3c-0.2,0.1-0.3,0.3-0.5,0.6s-0.2,0.6-0.2,1.1v5.1h-2.4v-8.8H146.1z"/>
</g>
<g>
	<path class="st0" d="M15.2,32.6v-1.6h1.5v-0.7c0-0.8,0.2-1.4,0.7-1.9c0.5-0.5,1.2-0.8,2.2-0.8c0.2,0,0.4,0,0.6,0c0.2,0,0.4,0,0.6,0
		v1.8c-0.3,0-0.6-0.1-0.9-0.1c-0.3,0-0.6,0.1-0.7,0.2c-0.1,0.2-0.2,0.4-0.2,0.8v0.5h1.7v1.6h-1.7v7.2h-2.4v-7.2H15.2z"/>
	<path class="st0" d="M21.9,33.4c0.2-0.6,0.5-1.1,0.9-1.5c0.4-0.4,0.9-0.7,1.4-0.9c0.6-0.2,1.2-0.3,1.9-0.3c0.7,0,1.3,0.1,1.9,0.3
		s1,0.5,1.4,0.9c0.4,0.4,0.7,0.9,0.9,1.5c0.2,0.6,0.3,1.2,0.3,1.9s-0.1,1.3-0.3,1.9c-0.2,0.6-0.5,1.1-0.9,1.5
		c-0.4,0.4-0.9,0.7-1.4,0.9S26.8,40,26.1,40c-0.7,0-1.3-0.1-1.9-0.3c-0.6-0.2-1-0.5-1.4-0.9c-0.4-0.4-0.7-0.9-0.9-1.5
		c-0.2-0.6-0.3-1.2-0.3-1.9S21.7,34,21.9,33.4z M24.1,36.4c0.1,0.3,0.2,0.6,0.4,0.9c0.2,0.3,0.4,0.5,0.7,0.6c0.3,0.2,0.6,0.2,1,0.2
		s0.8-0.1,1-0.2c0.3-0.2,0.5-0.4,0.7-0.6c0.2-0.3,0.3-0.6,0.4-0.9c0.1-0.3,0.1-0.7,0.1-1s0-0.7-0.1-1c-0.1-0.3-0.2-0.6-0.4-0.9
		c-0.2-0.3-0.4-0.5-0.7-0.6c-0.3-0.2-0.6-0.2-1-0.2s-0.8,0.1-1,0.2c-0.3,0.2-0.5,0.4-0.7,0.6c-0.2,0.3-0.3,0.6-0.4,0.9
		C24,34.7,24,35,24,35.4S24,36.1,24.1,36.4z"/>
	<path class="st0" d="M34.6,30.9v1.6h0c0.1-0.3,0.3-0.5,0.5-0.8c0.2-0.2,0.4-0.4,0.7-0.6c0.3-0.2,0.5-0.3,0.8-0.4
		c0.3-0.1,0.6-0.1,0.9-0.1c0.2,0,0.3,0,0.5,0.1V33c-0.1,0-0.3,0-0.4-0.1c-0.2,0-0.3,0-0.5,0c-0.4,0-0.8,0.1-1.1,0.2
		c-0.3,0.1-0.6,0.4-0.7,0.6c-0.2,0.3-0.3,0.6-0.4,0.9c-0.1,0.3-0.1,0.7-0.1,1.1v4h-2.4v-8.8H34.6z"/>
	<path class="st0" d="M49.2,27.6c0.8,0,1.5,0.1,2.2,0.4c0.7,0.3,1.3,0.6,1.8,1.1c0.5,0.5,0.9,1.1,1.2,1.9c0.3,0.8,0.4,1.6,0.4,2.7
		c0,0.9-0.1,1.7-0.3,2.5c-0.2,0.8-0.6,1.4-1,2c-0.5,0.5-1,1-1.7,1.3c-0.7,0.3-1.5,0.5-2.4,0.5H44V27.6H49.2z M49,37.5
		c0.4,0,0.8-0.1,1.1-0.2c0.4-0.1,0.7-0.3,1-0.6c0.3-0.3,0.5-0.7,0.7-1.1c0.2-0.5,0.3-1,0.3-1.7c0-0.6-0.1-1.2-0.2-1.7
		c-0.1-0.5-0.3-0.9-0.6-1.3c-0.3-0.4-0.6-0.6-1.1-0.8c-0.5-0.2-1-0.3-1.7-0.3h-1.9v7.7H49z"/>
	<path class="st0" d="M59,37.7c0.4,0.4,0.9,0.5,1.6,0.5c0.5,0,0.9-0.1,1.3-0.4s0.6-0.5,0.6-0.8h2.1c-0.3,1.1-0.9,1.8-1.6,2.3
		S61.5,40,60.5,40c-0.7,0-1.3-0.1-1.9-0.3c-0.6-0.2-1-0.5-1.4-0.9s-0.7-0.9-0.9-1.5s-0.3-1.2-0.3-1.9c0-0.7,0.1-1.3,0.3-1.8
		c0.2-0.6,0.5-1.1,0.9-1.5c0.4-0.4,0.9-0.7,1.4-1c0.6-0.2,1.2-0.4,1.8-0.4c0.8,0,1.4,0.1,2,0.4s1,0.7,1.4,1.2c0.4,0.5,0.6,1,0.8,1.7
		c0.2,0.6,0.2,1.3,0.2,2h-6.4C58.4,36.7,58.6,37.3,59,37.7z M61.7,33c-0.3-0.3-0.7-0.5-1.3-0.5c-0.4,0-0.7,0.1-1,0.2
		c-0.3,0.1-0.5,0.3-0.6,0.5c-0.2,0.2-0.3,0.4-0.3,0.6c-0.1,0.2-0.1,0.4-0.1,0.6h4C62.2,33.8,62,33.3,61.7,33z"/>
	<path class="st0" d="M68.5,30.9v1.2h0.1c0.3-0.5,0.7-0.9,1.2-1.1c0.5-0.2,1-0.4,1.5-0.4c0.6,0,1.2,0.1,1.6,0.3
		c0.4,0.2,0.7,0.4,1,0.7c0.2,0.3,0.4,0.7,0.5,1.1c0.1,0.5,0.1,0.9,0.1,1.5v5.4h-2.4v-5c0-0.7-0.1-1.3-0.3-1.6s-0.6-0.5-1.2-0.5
		c-0.7,0-1.1,0.2-1.4,0.6c-0.3,0.4-0.4,1-0.4,1.9v4.6h-2.4v-8.8H68.5z"/>
	<path class="st0" d="M81.2,30.9v1.6h-1.8v4.4c0,0.4,0.1,0.7,0.2,0.8c0.1,0.1,0.4,0.2,0.8,0.2c0.1,0,0.3,0,0.4,0
		c0.1,0,0.2,0,0.4-0.1v1.9c-0.2,0-0.4,0.1-0.7,0.1c-0.3,0-0.5,0-0.7,0c-0.4,0-0.7,0-1.1-0.1c-0.3-0.1-0.6-0.2-0.9-0.3
		c-0.3-0.1-0.5-0.4-0.6-0.6c-0.1-0.3-0.2-0.6-0.2-1.1v-5.2h-1.5v-1.6H77v-2.7h2.4v2.7H81.2z"/>
	<path class="st0" d="M82.4,29.6v-2h2.4v2H82.4z M84.9,30.9v8.8h-2.4v-8.8H84.9z"/>
	<path class="st0" d="M88.8,37.6c0.1,0.2,0.2,0.3,0.4,0.5c0.2,0.1,0.4,0.2,0.6,0.3c0.2,0.1,0.5,0.1,0.7,0.1c0.2,0,0.4,0,0.5-0.1
		c0.2,0,0.4-0.1,0.5-0.2c0.2-0.1,0.3-0.2,0.4-0.3s0.2-0.3,0.2-0.5c0-0.4-0.2-0.6-0.7-0.8c-0.5-0.2-1.2-0.4-2-0.5
		c-0.4-0.1-0.7-0.2-1-0.3c-0.3-0.1-0.6-0.3-0.9-0.4c-0.3-0.2-0.5-0.4-0.6-0.7c-0.2-0.3-0.2-0.6-0.2-1c0-0.6,0.1-1,0.3-1.4
		c0.2-0.4,0.5-0.7,0.9-0.9c0.4-0.2,0.8-0.4,1.2-0.4c0.5-0.1,0.9-0.1,1.4-0.1s0.9,0,1.4,0.1c0.5,0.1,0.9,0.2,1.2,0.5
		c0.4,0.2,0.6,0.5,0.9,0.9c0.2,0.4,0.4,0.8,0.4,1.4H92c0-0.5-0.2-0.8-0.5-0.9c-0.3-0.2-0.7-0.2-1.1-0.2c-0.1,0-0.3,0-0.4,0
		c-0.2,0-0.3,0.1-0.4,0.1c-0.1,0.1-0.2,0.1-0.3,0.2C89,32.8,89,33,89,33.1c0,0.2,0.1,0.4,0.2,0.5s0.4,0.2,0.6,0.3
		c0.3,0.1,0.5,0.2,0.9,0.2c0.3,0.1,0.7,0.1,1,0.2c0.4,0.1,0.7,0.2,1,0.3c0.3,0.1,0.6,0.3,0.9,0.5c0.3,0.2,0.5,0.4,0.6,0.7
		s0.2,0.6,0.2,1c0,0.6-0.1,1.1-0.4,1.5s-0.5,0.7-0.9,0.9s-0.8,0.4-1.3,0.5S91,40,90.5,40c-0.5,0-1-0.1-1.5-0.2
		c-0.5-0.1-0.9-0.3-1.3-0.5c-0.4-0.2-0.7-0.6-0.9-0.9c-0.2-0.4-0.4-0.9-0.4-1.5h2.3C88.7,37.2,88.7,37.4,88.8,37.6z"/>
	<path class="st0" d="M100.8,30.9v1.6H99v4.4c0,0.4,0.1,0.7,0.2,0.8c0.1,0.1,0.4,0.2,0.8,0.2c0.1,0,0.3,0,0.4,0c0.1,0,0.2,0,0.4-0.1
		v1.9c-0.2,0-0.4,0.1-0.7,0.1c-0.3,0-0.5,0-0.7,0c-0.4,0-0.7,0-1.1-0.1c-0.3-0.1-0.6-0.2-0.9-0.3c-0.3-0.1-0.5-0.4-0.6-0.6
		c-0.1-0.3-0.2-0.6-0.2-1.1v-5.2h-1.5v-1.6h1.5v-2.7H99v2.7H100.8z"/>
	<path class="st0" d="M104,37.6c0.1,0.2,0.2,0.3,0.4,0.5c0.2,0.1,0.4,0.2,0.6,0.3c0.2,0.1,0.5,0.1,0.7,0.1c0.2,0,0.4,0,0.5-0.1
		c0.2,0,0.4-0.1,0.5-0.2c0.2-0.1,0.3-0.2,0.4-0.3s0.2-0.3,0.2-0.5c0-0.4-0.2-0.6-0.7-0.8c-0.5-0.2-1.2-0.4-2-0.5
		c-0.4-0.1-0.7-0.2-1-0.3c-0.3-0.1-0.6-0.3-0.9-0.4c-0.3-0.2-0.5-0.4-0.6-0.7c-0.2-0.3-0.2-0.6-0.2-1c0-0.6,0.1-1,0.3-1.4
		c0.2-0.4,0.5-0.7,0.9-0.9c0.4-0.2,0.8-0.4,1.2-0.4c0.5-0.1,0.9-0.1,1.4-0.1s0.9,0,1.4,0.1c0.5,0.1,0.9,0.2,1.2,0.5
		c0.4,0.2,0.6,0.5,0.9,0.9c0.2,0.4,0.4,0.8,0.4,1.4h-2.3c0-0.5-0.2-0.8-0.5-0.9c-0.3-0.2-0.7-0.2-1.1-0.2c-0.1,0-0.3,0-0.4,0
		c-0.2,0-0.3,0.1-0.4,0.1c-0.1,0.1-0.2,0.1-0.3,0.2c-0.1,0.1-0.1,0.3-0.1,0.4c0,0.2,0.1,0.4,0.2,0.5s0.4,0.2,0.6,0.3
		c0.3,0.1,0.5,0.2,0.9,0.2c0.3,0.1,0.7,0.1,1,0.2c0.4,0.1,0.7,0.2,1,0.3c0.3,0.1,0.6,0.3,0.9,0.5c0.3,0.2,0.5,0.4,0.6,0.7
		s0.2,0.6,0.2,1c0,0.6-0.1,1.1-0.4,1.5s-0.5,0.7-0.9,0.9s-0.8,0.4-1.3,0.5s-1,0.1-1.5,0.1c-0.5,0-1-0.1-1.5-0.2
		c-0.5-0.1-0.9-0.3-1.3-0.5c-0.4-0.2-0.7-0.6-0.9-0.9c-0.2-0.4-0.4-0.9-0.4-1.5h2.3C103.9,37.2,103.9,37.4,104,37.6z"/>
</g>
</svg>
