<?xml version="1.0" encoding="utf-8"?>
<!-- Generator: Adobe Illustrator 25.4.1, SVG Export Plug-In . SVG Version: 6.00 Build 0)  -->
<svg version="1.1" id="Layer_1" xmlns="http://www.w3.org/2000/svg" xmlns:xlink="http://www.w3.org/1999/xlink" x="0px" y="0px"
	 viewBox="0 0 320 50" style="enable-background:new 0 0 320 50;" xml:space="preserve">
<style type="text/css">
	.st0{fill:#231F20;}
</style>
<g>
	<path class="st0" d="M19.7,7.2v5.8l5.5-5.8h3.9l-5.5,5.5l6,8.5h-3.9L21.5,15l-1.8,1.8v4.5h-3.1v-14H19.7z"/>
	<path class="st0" d="M33.5,18.8c0.4,0.4,1,0.6,1.8,0.6c0.6,0,1-0.1,1.5-0.4c0.4-0.3,0.7-0.6,0.7-0.9H40c-0.4,1.2-1,2.1-1.8,2.6
		c-0.8,0.5-1.8,0.8-2.9,0.8c-0.8,0-1.5-0.1-2.2-0.4c-0.6-0.3-1.2-0.6-1.6-1.1c-0.4-0.5-0.8-1-1-1.7C30.2,17.7,30,17,30,16.2
		c0-0.8,0.1-1.5,0.4-2.1c0.2-0.7,0.6-1.2,1.1-1.7c0.5-0.5,1-0.9,1.6-1.1c0.6-0.3,1.3-0.4,2.1-0.4c0.9,0,1.6,0.2,2.3,0.5
		c0.6,0.3,1.2,0.8,1.6,1.3c0.4,0.6,0.7,1.2,0.9,1.9c0.2,0.7,0.2,1.5,0.2,2.3h-7.3C32.9,17.8,33.1,18.4,33.5,18.8z M36.7,13.5
		c-0.3-0.4-0.8-0.6-1.5-0.6c-0.4,0-0.8,0.1-1.1,0.2c-0.3,0.2-0.5,0.3-0.7,0.6C33.2,14,33,14.2,33,14.4c-0.1,0.2-0.1,0.5-0.1,0.7h4.5
		C37.2,14.4,37,13.9,36.7,13.5z"/>
	<path class="st0" d="M44.8,18.8c0.4,0.4,1,0.6,1.8,0.6c0.6,0,1-0.1,1.5-0.4c0.4-0.3,0.7-0.6,0.7-0.9h2.5c-0.4,1.2-1,2.1-1.8,2.6
		c-0.8,0.5-1.8,0.8-2.9,0.8c-0.8,0-1.5-0.1-2.2-0.4c-0.6-0.3-1.2-0.6-1.6-1.1c-0.4-0.5-0.8-1-1-1.7c-0.2-0.7-0.4-1.4-0.4-2.2
		c0-0.8,0.1-1.5,0.4-2.1c0.2-0.7,0.6-1.2,1.1-1.7c0.5-0.5,1-0.9,1.6-1.1c0.6-0.3,1.3-0.4,2.1-0.4c0.9,0,1.6,0.2,2.3,0.5
		c0.6,0.3,1.2,0.8,1.6,1.3c0.4,0.6,0.7,1.2,0.9,1.9c0.2,0.7,0.2,1.5,0.2,2.3h-7.3C44.2,17.8,44.4,18.4,44.8,18.8z M48,13.5
		c-0.3-0.4-0.8-0.6-1.5-0.6c-0.4,0-0.8,0.1-1.1,0.2c-0.3,0.2-0.5,0.3-0.7,0.6c-0.2,0.2-0.3,0.5-0.4,0.7c-0.1,0.2-0.1,0.5-0.1,0.7
		h4.5C48.5,14.4,48.3,13.9,48,13.5z"/>
	<path class="st0" d="M55.8,11.1v1.3h0c0.3-0.6,0.8-1,1.3-1.2s1.1-0.4,1.7-0.4c0.8,0,1.5,0.2,2.1,0.5c0.6,0.3,1.1,0.7,1.4,1.2
		c0.4,0.5,0.7,1.1,0.8,1.7c0.2,0.7,0.3,1.4,0.3,2.1c0,0.7-0.1,1.3-0.3,2c-0.2,0.6-0.5,1.2-0.8,1.7s-0.8,0.9-1.4,1.2
		c-0.6,0.3-1.2,0.4-2,0.4c-0.6,0-1.2-0.1-1.7-0.4c-0.5-0.3-1-0.6-1.3-1.1h0v4.8h-2.8V11.1H55.8z M59.4,19.2c0.3-0.2,0.6-0.4,0.7-0.7
		s0.3-0.6,0.4-1s0.1-0.8,0.1-1.2s0-0.8-0.1-1.2c-0.1-0.4-0.2-0.7-0.4-1.1c-0.2-0.3-0.4-0.6-0.8-0.7c-0.3-0.2-0.7-0.3-1.1-0.3
		c-0.5,0-0.8,0.1-1.1,0.3c-0.3,0.2-0.6,0.4-0.7,0.7c-0.2,0.3-0.3,0.6-0.4,1c-0.1,0.4-0.1,0.8-0.1,1.2c0,0.4,0,0.8,0.1,1.2
		c0.1,0.4,0.2,0.7,0.4,1s0.4,0.5,0.8,0.7c0.3,0.2,0.7,0.3,1.1,0.3C58.7,19.5,59.1,19.4,59.4,19.2z"/>
	<path class="st0" d="M79.9,11c-0.2-0.3-0.4-0.6-0.7-0.8c-0.3-0.2-0.6-0.4-0.9-0.5c-0.3-0.1-0.7-0.2-1.1-0.2c-0.7,0-1.3,0.1-1.8,0.4
		c-0.5,0.3-0.9,0.6-1.2,1.1c-0.3,0.5-0.5,1-0.7,1.5c-0.1,0.6-0.2,1.2-0.2,1.8c0,0.6,0.1,1.2,0.2,1.7c0.1,0.6,0.4,1.1,0.7,1.5
		c0.3,0.4,0.7,0.8,1.2,1.1c0.5,0.3,1.1,0.4,1.8,0.4c0.9,0,1.7-0.3,2.2-0.9s0.9-1.3,1-2.3h3c-0.1,0.9-0.3,1.7-0.6,2.4
		c-0.3,0.7-0.8,1.3-1.3,1.8c-0.5,0.5-1.2,0.9-1.9,1.1c-0.7,0.3-1.5,0.4-2.4,0.4c-1.1,0-2-0.2-2.9-0.6s-1.6-0.9-2.2-1.5
		s-1-1.4-1.4-2.3c-0.3-0.9-0.5-1.8-0.5-2.9c0-1,0.2-2,0.5-2.9c0.3-0.9,0.8-1.7,1.4-2.3s1.3-1.2,2.2-1.6c0.9-0.4,1.8-0.6,2.9-0.6
		c0.8,0,1.5,0.1,2.2,0.3c0.7,0.2,1.3,0.5,1.8,1c0.5,0.4,1,1,1.3,1.6c0.4,0.6,0.6,1.4,0.7,2.2h-3C80.2,11.6,80.1,11.3,79.9,11z"/>
	<path class="st0" d="M92.4,7.2l5.2,14h-3.2l-1.1-3.1h-5.2l-1.1,3.1H84l5.3-14H92.4z M92.6,15.9l-1.8-5.2h0L89,15.9H92.6z"/>
	<path class="st0" d="M102,7.2v11.4h6.8v2.6h-9.9v-14H102z"/>
	<path class="st0" d="M114.9,7.2l3.3,9.7h0l3.1-9.7h4.3v14h-2.9v-9.9h0l-3.4,9.9h-2.4l-3.4-9.9h0v9.9h-2.9v-14H114.9z"/>
</g>
</svg>
