<?xml version="1.0" encoding="utf-8"?>
<!-- Generator: Adobe Illustrator 25.4.1, SVG Export Plug-In . SVG Version: 6.00 Build 0)  -->
<svg version="1.1" id="Layer_1" xmlns="http://www.w3.org/2000/svg" xmlns:xlink="http://www.w3.org/1999/xlink" x="0px" y="0px"
	 viewBox="0 0 320 50" style="enable-background:new 0 0 320 50;" xml:space="preserve">
<style type="text/css">
	.st0{clip-path:url(#SVGID_00000036931298117763202920000017666234423375060610_);fill:#349946;}
	.st1{fill:#FFFFFF;}
</style>
<g>
	<defs>
		<rect id="SVGID_1_" x="216" y="6.3" width="68.6" height="14.5"/>
	</defs>
	<clipPath id="SVGID_00000168795531047722811270000015809230079888352687_">
		<use xlink:href="#SVGID_1_"  style="overflow:visible;"/>
	</clipPath>
	<path style="clip-path:url(#SVGID_00000168795531047722811270000015809230079888352687_);fill:#349946;" d="M284.6,13.5
		c0,4-3.7,7.2-8.3,7.2h-52c-4.6,0-8.3-3.3-8.3-7.2s3.7-7.2,8.3-7.2h52C280.9,6.3,284.6,9.5,284.6,13.5"/>
</g>
<g>
	<path class="st1" d="M230.7,15.9l-0.8-3.1h0l-0.8,3.1h-1l-1.2-4.6h1l0.7,3.1h0l0.8-3.1h1l0.8,3.2h0l0.8-3.2h1l-1.2,4.6H230.7z"/>
	<path class="st1" d="M235.6,11.3l1.7,4.6h-1.1l-0.3-1h-1.7l-0.4,1h-1l1.7-4.6H235.6z M235.6,14.2l-0.6-1.7h0l-0.6,1.7H235.6z"/>
</g>
<g>
	<path class="st1" d="M236.7,12.2v-0.9h3.8v0.9h-1.4v3.8h-1v-3.8H236.7z"/>
	<path class="st1" d="M244,12.6c-0.1-0.1-0.1-0.2-0.2-0.3c-0.1-0.1-0.2-0.1-0.3-0.2s-0.2-0.1-0.4-0.1c-0.2,0-0.4,0-0.6,0.1
		c-0.2,0.1-0.3,0.2-0.4,0.4c-0.1,0.1-0.2,0.3-0.2,0.5c0,0.2-0.1,0.4-0.1,0.6c0,0.2,0,0.4,0.1,0.6c0,0.2,0.1,0.3,0.2,0.5
		c0.1,0.1,0.2,0.3,0.4,0.4s0.4,0.1,0.6,0.1c0.3,0,0.6-0.1,0.7-0.3c0.2-0.2,0.3-0.4,0.3-0.8h1c0,0.3-0.1,0.5-0.2,0.8
		c-0.1,0.2-0.2,0.4-0.4,0.6c-0.2,0.2-0.4,0.3-0.6,0.4s-0.5,0.1-0.8,0.1c-0.4,0-0.7-0.1-1-0.2c-0.3-0.1-0.5-0.3-0.7-0.5
		c-0.2-0.2-0.3-0.5-0.4-0.8c-0.1-0.3-0.2-0.6-0.2-0.9c0-0.3,0.1-0.7,0.2-1c0.1-0.3,0.3-0.6,0.4-0.8c0.2-0.2,0.4-0.4,0.7-0.5
		c0.3-0.1,0.6-0.2,1-0.2c0.3,0,0.5,0,0.7,0.1s0.4,0.2,0.6,0.3s0.3,0.3,0.4,0.5c0.1,0.2,0.2,0.4,0.2,0.7h-1
		C244.1,12.8,244.1,12.7,244,12.6z"/>
	<path class="st1" d="M246.9,11.3v1.8h1.9v-1.8h1v4.6h-1v-2h-1.9v2h-1v-4.6H246.9z"/>
	<path class="st1" d="M255.2,15.9l-1.5-4.6h1l1,3.2h0l1-3.2h1l-1.5,4.6H255.2z"/>
	<path class="st1" d="M259.3,11.3v4.6h-1v-4.6H259.3z"/>
	<path class="st1" d="M262.2,11.3c0.3,0,0.6,0,0.8,0.1s0.5,0.2,0.7,0.4c0.2,0.2,0.3,0.4,0.4,0.7c0.1,0.3,0.2,0.6,0.2,1
		c0,0.3,0,0.6-0.1,0.9c-0.1,0.3-0.2,0.5-0.4,0.7c-0.2,0.2-0.4,0.4-0.7,0.5s-0.6,0.2-0.9,0.2h-2v-4.6H262.2z M262.1,15.1
		c0.1,0,0.3,0,0.4-0.1c0.1,0,0.3-0.1,0.4-0.2s0.2-0.3,0.3-0.4c0.1-0.2,0.1-0.4,0.1-0.6c0-0.2,0-0.4-0.1-0.6c0-0.2-0.1-0.3-0.2-0.5
		c-0.1-0.1-0.2-0.2-0.4-0.3c-0.2-0.1-0.4-0.1-0.6-0.1h-0.7v2.9H262.1z"/>
	<path class="st1" d="M268.5,11.3v0.9H266v1h2.2V14H266v1.1h2.5v0.9H265v-4.6H268.5z"/>
	<path class="st1" d="M269.1,12.7c0.1-0.3,0.3-0.6,0.4-0.8c0.2-0.2,0.4-0.4,0.7-0.5c0.3-0.1,0.6-0.2,1-0.2c0.4,0,0.7,0.1,1,0.2
		c0.3,0.1,0.5,0.3,0.7,0.5c0.2,0.2,0.3,0.5,0.4,0.8c0.1,0.3,0.2,0.6,0.2,1c0,0.3-0.1,0.6-0.2,0.9c-0.1,0.3-0.3,0.5-0.4,0.8
		c-0.2,0.2-0.4,0.4-0.7,0.5c-0.3,0.1-0.6,0.2-1,0.2c-0.4,0-0.7-0.1-1-0.2c-0.3-0.1-0.5-0.3-0.7-0.5c-0.2-0.2-0.3-0.5-0.4-0.8
		c-0.1-0.3-0.2-0.6-0.2-0.9C269,13.3,269,13,269.1,12.7z M270.1,14.2c0,0.2,0.1,0.3,0.2,0.5c0.1,0.1,0.2,0.3,0.4,0.4
		s0.4,0.1,0.6,0.1s0.4,0,0.6-0.1c0.2-0.1,0.3-0.2,0.4-0.4c0.1-0.1,0.2-0.3,0.2-0.5c0-0.2,0.1-0.4,0.1-0.6c0-0.2,0-0.4-0.1-0.6
		c0-0.2-0.1-0.4-0.2-0.5c-0.1-0.1-0.2-0.3-0.4-0.4c-0.2-0.1-0.4-0.1-0.6-0.1s-0.4,0-0.6,0.1c-0.2,0.1-0.3,0.2-0.4,0.4
		c-0.1,0.1-0.2,0.3-0.2,0.5c0,0.2-0.1,0.4-0.1,0.6C270,13.9,270,14,270.1,14.2z"/>
</g>
</svg>
