<?xml version="1.0" encoding="utf-8"?>
<!-- Generator: Adobe Illustrator 25.4.1, SVG Export Plug-In . SVG Version: 6.00 Build 0)  -->
<svg version="1.1" id="Layer_1" xmlns="http://www.w3.org/2000/svg" xmlns:xlink="http://www.w3.org/1999/xlink" x="0px" y="0px"
	 viewBox="0 0 320 50" style="enable-background:new 0 0 320 50;" xml:space="preserve">
<style type="text/css">
	.st0{fill:#349946;}
	.st1{fill:#231F20;}
</style>
<path class="st0" d="M199.2,45.3h-1.3l-0.4-1.2h-2.5l-0.4,1.2h-1.3l2.2-5.9h0.9c0.3,0,0.5,0.1,0.6,0.3c0.1,0.2,1.1,2.9,1.1,2.9h-1.2
	l-0.7-2l-0.9,2.5h2.6c0.3,0,0.5,0.1,0.6,0.4L199.2,45.3z"/>
<path class="st0" d="M210.4,45.3h-1.3l-0.4-1.2h-2.5l-0.4,1.2h-1.3l2.2-5.9h0.9c0.3,0,0.5,0.1,0.6,0.3c0.1,0.2,1.1,2.9,1.1,2.9h-1.2
	l-0.7-2l-0.9,2.5h2.6c0.3,0,0.5,0.1,0.6,0.4L210.4,45.3z"/>
<path class="st0" d="M199.6,39.3h2.3c1.8,0,2.7,1,2.7,3c0,1.1-0.3,1.9-1,2.4c-0.6,0.5-1.2,0.5-2.1,0.5h-2V39.3z M201.7,44.2
	c1.1,0,1.6-0.6,1.6-1.9c0-1.3-0.5-1.9-1.5-1.9h-1.1v3.8H201.7z"/>
<g>
	<path class="st1" d="M220.4,45.2h-0.9l-0.4-4.2l-1.4,4.2h-0.8l-1.5-4.2l-0.3,4.2h-0.9l0.5-5.6h1.1l1.5,4.3l1.5-4.3h1.1L220.4,45.2z
		"/>
	<path class="st1" d="M225,43.1c0,0,0,0.1,0,0.2c0,0.1,0,0.1,0,0.1h-2.8c0,0.3,0.1,0.5,0.3,0.8c0.2,0.3,0.5,0.4,0.9,0.4
		c0.3,0,0.7-0.1,1.1-0.3l0.3,0.6c-0.4,0.3-0.9,0.4-1.5,0.4c-0.6,0-1.1-0.2-1.5-0.6c-0.3-0.4-0.5-0.9-0.5-1.5c0-0.6,0.2-1.2,0.5-1.6
		c0.4-0.4,0.8-0.6,1.4-0.6c0.6,0,1,0.2,1.3,0.6C224.9,41.9,225,42.4,225,43.1z M224.1,42.7c0-0.3-0.1-0.5-0.2-0.7
		c-0.2-0.3-0.4-0.4-0.7-0.4c-0.3,0-0.5,0.1-0.7,0.3c-0.2,0.2-0.3,0.4-0.3,0.8H224.1z"/>
	<path class="st1" d="M231.7,45.2h-0.9v-2.3c0-0.5-0.1-0.8-0.2-0.9c-0.1-0.1-0.3-0.2-0.5-0.2c-0.3,0-0.6,0.1-0.9,0.3
		c0,0.1,0.1,0.4,0.1,0.9v2.2h-0.9v-2.3c0-0.5-0.1-0.9-0.2-1c-0.1-0.1-0.3-0.2-0.5-0.2c-0.3,0-0.6,0.1-0.9,0.3v3.1h-0.9v-4.1h0.8v0.3
		c0.4-0.3,0.8-0.4,1.2-0.4c0.4,0,0.8,0.2,1,0.5c0.5-0.3,0.9-0.5,1.4-0.5c0.4,0,0.8,0.1,1,0.4c0.2,0.2,0.3,0.5,0.4,0.8
		c0,0.2,0.1,0.5,0.1,1V45.2z"/>
	<path class="st1" d="M236.5,43.1c0,0.7-0.2,1.2-0.6,1.6s-0.9,0.6-1.6,0.6c-0.5,0-1-0.1-1.6-0.3v-5.9h0.9v2.2
		c0.3-0.2,0.7-0.3,1.1-0.3c0.5,0,0.9,0.2,1.3,0.6C236.3,41.9,236.5,42.4,236.5,43.1z M235.6,43.1c0-0.4-0.1-0.7-0.3-1
		c-0.2-0.2-0.4-0.3-0.7-0.3c-0.3,0-0.6,0.1-0.9,0.3v2.4c0.2,0.1,0.5,0.1,0.7,0.1c0.4,0,0.7-0.1,0.9-0.4
		C235.5,43.9,235.6,43.5,235.6,43.1z"/>
	<path class="st1" d="M240.9,43.1c0,0,0,0.1,0,0.2c0,0.1,0,0.1,0,0.1h-2.8c0,0.3,0.1,0.5,0.3,0.8c0.2,0.3,0.5,0.4,0.9,0.4
		c0.3,0,0.7-0.1,1.1-0.3l0.3,0.6c-0.4,0.3-0.9,0.4-1.5,0.4c-0.6,0-1.1-0.2-1.5-0.6c-0.3-0.4-0.5-0.9-0.5-1.5c0-0.6,0.2-1.2,0.5-1.6
		c0.4-0.4,0.8-0.6,1.4-0.6c0.6,0,1,0.2,1.3,0.6C240.8,41.9,240.9,42.4,240.9,43.1z M240,42.7c0-0.3-0.1-0.5-0.2-0.7
		c-0.2-0.3-0.4-0.4-0.7-0.4c-0.3,0-0.5,0.1-0.7,0.3c-0.2,0.2-0.3,0.4-0.3,0.8H240z"/>
	<path class="st1" d="M244.4,41.1l-0.2,0.7c-0.1,0-0.2,0-0.3,0c-0.5,0-0.9,0.2-1.2,0.6v2.8h-0.9v-4.1h0.8v0.5
		c0.1-0.1,0.2-0.2,0.4-0.3c0.3-0.2,0.6-0.3,1-0.3C244.1,41,244.3,41,244.4,41.1z"/>
</g>
<g>
	<path class="st1" d="M247.8,44c0,0.4-0.1,0.7-0.4,0.9c-0.3,0.2-0.7,0.3-1.1,0.3c-0.4,0-0.7-0.1-1.1-0.2c-0.2-0.1-0.4-0.2-0.4-0.2
		l0.3-0.6c0.4,0.2,0.8,0.3,1.1,0.3c0.2,0,0.4,0,0.5-0.1c0.1-0.1,0.2-0.2,0.2-0.4c0-0.1-0.1-0.3-0.2-0.4c-0.1-0.1-0.3-0.2-0.6-0.3
		c-0.3-0.1-0.6-0.3-0.7-0.4c-0.2-0.2-0.4-0.5-0.4-0.8c0-0.4,0.1-0.7,0.4-0.9c0.3-0.2,0.6-0.3,1.1-0.3c0.6,0,1,0.1,1.3,0.4l-0.3,0.6
		c-0.3-0.2-0.6-0.3-1-0.3c-0.4,0-0.7,0.2-0.7,0.5c0,0.1,0.1,0.2,0.2,0.3c0.1,0.1,0.3,0.1,0.5,0.3c0.4,0.2,0.7,0.3,0.8,0.4
		C247.6,43.4,247.8,43.7,247.8,44z"/>
	<path class="st1" d="M251.8,45.2h-1v-5.6h1V45.2z"/>
	<path class="st1" d="M256.5,45.2h-0.9V43c0-0.5-0.1-0.9-0.2-1c-0.1-0.1-0.3-0.2-0.5-0.2c-0.3,0-0.6,0.1-0.9,0.3v3.1H253v-4.1h0.8
		v0.3c0.4-0.3,0.8-0.4,1.2-0.4c0.4,0,0.8,0.1,1,0.4c0.2,0.2,0.3,0.4,0.4,0.7c0,0.2,0,0.4,0,0.8V45.2z"/>
	<path class="st1" d="M260.2,44c0,0.4-0.1,0.7-0.4,0.9c-0.3,0.2-0.7,0.3-1.1,0.3c-0.4,0-0.7-0.1-1.1-0.2c-0.2-0.1-0.4-0.2-0.4-0.2
		l0.3-0.6c0.4,0.2,0.8,0.3,1.1,0.3c0.2,0,0.4,0,0.5-0.1c0.1-0.1,0.2-0.2,0.2-0.4c0-0.1-0.1-0.3-0.2-0.4c-0.1-0.1-0.3-0.2-0.6-0.3
		c-0.3-0.1-0.6-0.3-0.7-0.4c-0.2-0.2-0.4-0.5-0.4-0.8c0-0.4,0.1-0.7,0.4-0.9c0.3-0.2,0.6-0.3,1.1-0.3c0.6,0,1,0.1,1.3,0.4l-0.3,0.6
		c-0.3-0.2-0.6-0.3-1-0.3c-0.4,0-0.7,0.2-0.7,0.5c0,0.1,0.1,0.2,0.2,0.3c0.1,0.1,0.3,0.1,0.5,0.3c0.4,0.2,0.7,0.3,0.8,0.4
		C260.1,43.4,260.2,43.7,260.2,44z"/>
	<path class="st1" d="M264.6,45.2h-0.8v-0.3c-0.4,0.3-0.8,0.4-1.2,0.4c-0.4,0-0.8-0.1-1-0.4c-0.2-0.2-0.3-0.4-0.4-0.7
		c0-0.2-0.1-0.4-0.1-0.8v-2.3h0.9v2.2c0,0.3,0,0.5,0,0.6c0,0.2,0.1,0.4,0.2,0.5c0.1,0.1,0.3,0.1,0.5,0.1c0.2,0,0.5-0.1,0.9-0.3v-3.1
		h0.9V45.2z"/>
	<path class="st1" d="M268.3,41.1l-0.2,0.7c-0.1,0-0.2,0-0.3,0c-0.5,0-0.9,0.2-1.2,0.6v2.8h-0.9v-4.1h0.8v0.5
		c0.1-0.1,0.2-0.2,0.4-0.3c0.3-0.2,0.6-0.3,1-0.3C268,41,268.2,41,268.3,41.1z"/>
</g>
<g>
	<path class="st1" d="M271.9,45.2h-0.8v-0.3c-0.4,0.3-0.8,0.4-1.2,0.4c-0.4,0-0.7-0.1-1-0.4s-0.4-0.6-0.4-0.9c0-1,0.8-1.4,2.3-1.4
		h0.2v-0.2c0-0.3,0-0.4-0.1-0.5c-0.1-0.1-0.3-0.2-0.7-0.2c-0.4,0-0.7,0.1-1.1,0.3l-0.3-0.6c0.1-0.1,0.2-0.2,0.4-0.2
		c0.3-0.1,0.7-0.2,1.1-0.2c0.6,0,1,0.1,1.3,0.4c0.1,0.1,0.2,0.3,0.3,0.5c0,0.1,0,0.4,0,0.7V45.2z M271,44.3v-1.1h-0.2
		c-0.6,0-1.1,0.1-1.3,0.3c-0.1,0.1-0.2,0.2-0.2,0.4c0,0.2,0.1,0.4,0.2,0.5c0.1,0.1,0.3,0.2,0.5,0.2C270.4,44.6,270.7,44.5,271,44.3z
		"/>
	<path class="st1" d="M276.4,45.2h-0.9V43c0-0.5-0.1-0.9-0.2-1c-0.1-0.1-0.3-0.2-0.5-0.2c-0.3,0-0.6,0.1-0.9,0.3v3.1h-0.9v-4.1h0.8
		v0.3c0.4-0.3,0.8-0.4,1.2-0.4c0.4,0,0.8,0.1,1,0.4c0.2,0.2,0.3,0.4,0.4,0.7c0,0.2,0,0.4,0,0.8V45.2z"/>
	<path class="st1" d="M280.8,44.8c-0.1,0.1-0.2,0.2-0.4,0.3c-0.3,0.2-0.7,0.2-1.1,0.2c-0.6,0-1.1-0.2-1.5-0.6
		c-0.4-0.4-0.6-0.9-0.6-1.5c0-0.6,0.2-1.2,0.6-1.6c0.4-0.4,0.9-0.6,1.5-0.6c0.3,0,0.7,0.1,1,0.2c0.2,0.1,0.3,0.2,0.4,0.3l-0.4,0.6
		c-0.3-0.2-0.6-0.3-0.9-0.3c-0.4,0-0.7,0.1-0.9,0.4c-0.2,0.3-0.3,0.6-0.3,1c0,0.4,0.1,0.8,0.3,1s0.5,0.4,0.9,0.4
		c0.3,0,0.7-0.1,1-0.3L280.8,44.8z"/>
</g>
<g>
	<path class="st1" d="M284.9,43.1c0,0,0,0.1,0,0.2c0,0.1,0,0.1,0,0.1h-2.8c0,0.3,0.1,0.5,0.3,0.8c0.2,0.3,0.5,0.4,0.9,0.4
		c0.3,0,0.7-0.1,1.1-0.3l0.3,0.6c-0.4,0.3-0.9,0.4-1.5,0.4c-0.6,0-1.1-0.2-1.5-0.6c-0.3-0.4-0.5-0.9-0.5-1.5c0-0.6,0.2-1.2,0.5-1.6
		c0.4-0.4,0.8-0.6,1.4-0.6c0.6,0,1,0.2,1.3,0.6C284.7,41.9,284.9,42.4,284.9,43.1z M284,42.7c0-0.3-0.1-0.5-0.2-0.7
		c-0.2-0.3-0.4-0.4-0.7-0.4c-0.3,0-0.5,0.1-0.7,0.3c-0.2,0.2-0.3,0.4-0.3,0.8H284z"/>
	<path class="st1" d="M291.7,41.3c0,0.5-0.2,0.9-0.5,1.3c-0.2,0.2-0.5,0.4-0.9,0.5c-0.2,0-0.6,0.1-1,0.1h-0.4v2.1h-1v-5.6h1.5
		c0.5,0,0.8,0,1,0.1c0.3,0.1,0.6,0.2,0.8,0.4C291.5,40.4,291.7,40.8,291.7,41.3z M290.7,41.3c0-0.3-0.1-0.5-0.3-0.7
		c-0.2-0.2-0.5-0.2-1-0.2h-0.5v1.9h0.4c0.6,0,1-0.1,1.2-0.3S290.7,41.6,290.7,41.3z"/>
	<path class="st1" d="M293.6,45.2h-0.9v-6.1h0.9V45.2z"/>
	<path class="st1" d="M297.8,45.2H297v-0.3c-0.4,0.3-0.8,0.4-1.2,0.4c-0.4,0-0.7-0.1-1-0.4s-0.4-0.6-0.4-0.9c0-1,0.8-1.4,2.3-1.4
		h0.2v-0.2c0-0.3,0-0.4-0.1-0.5c-0.1-0.1-0.3-0.2-0.7-0.2c-0.4,0-0.7,0.1-1.1,0.3l-0.3-0.6c0.1-0.1,0.2-0.2,0.4-0.2
		c0.3-0.1,0.7-0.2,1.1-0.2c0.6,0,1,0.1,1.3,0.4c0.1,0.1,0.2,0.3,0.3,0.5c0,0.1,0,0.4,0,0.7V45.2z M296.9,44.3v-1.1h-0.2
		c-0.6,0-1.1,0.1-1.3,0.3c-0.1,0.1-0.2,0.2-0.2,0.4c0,0.2,0.1,0.4,0.2,0.5c0.1,0.1,0.3,0.2,0.5,0.2
		C296.3,44.6,296.6,44.5,296.9,44.3z"/>
	<path class="st1" d="M302.3,45.2h-0.9V43c0-0.5-0.1-0.9-0.2-1c-0.1-0.1-0.3-0.2-0.5-0.2c-0.3,0-0.6,0.1-0.9,0.3v3.1h-0.9v-4.1h0.8
		v0.3c0.4-0.3,0.8-0.4,1.2-0.4c0.4,0,0.8,0.1,1,0.4c0.2,0.2,0.3,0.4,0.4,0.7c0,0.2,0,0.4,0,0.8V45.2z"/>
	<path class="st1" d="M306.1,44c0,0.4-0.1,0.7-0.4,0.9c-0.3,0.2-0.7,0.3-1.1,0.3c-0.4,0-0.7-0.1-1.1-0.2c-0.2-0.1-0.4-0.2-0.4-0.2
		l0.3-0.6c0.4,0.2,0.8,0.3,1.1,0.3c0.2,0,0.4,0,0.5-0.1c0.1-0.1,0.2-0.2,0.2-0.4c0-0.1-0.1-0.3-0.2-0.4c-0.1-0.1-0.3-0.2-0.6-0.3
		c-0.3-0.1-0.6-0.3-0.7-0.4c-0.2-0.2-0.4-0.5-0.4-0.8c0-0.4,0.1-0.7,0.4-0.9c0.3-0.2,0.6-0.3,1.1-0.3c0.6,0,1,0.1,1.3,0.4l-0.3,0.6
		c-0.3-0.2-0.6-0.3-1-0.3c-0.4,0-0.7,0.2-0.7,0.5c0,0.1,0.1,0.2,0.2,0.3c0.1,0.1,0.3,0.1,0.5,0.3c0.4,0.2,0.7,0.3,0.8,0.4
		C305.9,43.4,306.1,43.7,306.1,44z"/>
</g>
<path class="st0" d="M211.2,45.3c-0.4,0-0.7-0.3-0.7-0.7s0.3-0.7,0.7-0.7c0.4,0,0.7,0.3,0.7,0.7S211.6,45.3,211.2,45.3 M211.2,44.1
	c-0.3,0-0.5,0.2-0.5,0.5s0.2,0.5,0.5,0.5c0.3,0,0.5-0.2,0.5-0.5S211.5,44.1,211.2,44.1 M211.4,44.9l-0.1-0.2c0-0.1-0.1-0.1-0.2-0.1
	h0v0.3H211v-0.7h0.2c0.1,0,0.2,0,0.2,0.1c0,0,0.1,0.1,0.1,0.2c0,0.1,0,0.1-0.1,0.2c0,0,0.1,0.1,0.1,0.1l0.1,0.3H211.4z M211.3,44.3
	c0,0-0.1,0-0.1,0h-0.1v0.2c0,0,0.1,0,0.1,0C211.3,44.5,211.3,44.5,211.3,44.3C211.3,44.4,211.3,44.4,211.3,44.3"/>
</svg>
