<?xml version="1.0" encoding="utf-8"?>
<!-- Generator: Adobe Illustrator 25.4.1, SVG Export Plug-In . SVG Version: 6.00 Build 0)  -->
<svg version="1.1" id="Layer_1" xmlns="http://www.w3.org/2000/svg" xmlns:xlink="http://www.w3.org/1999/xlink" x="0px" y="0px"
	 viewBox="0 0 320 50" style="enable-background:new 0 0 320 50;" xml:space="preserve">
<style type="text/css">
	.st0{clip-path:url(#SVGID_00000145025435166766479790000015734445608653175720_);fill:#231F20;}
	.st1{clip-path:url(#SVGID_00000145025435166766479790000015734445608653175720_);fill:#00B2EE;}
</style>
<g>
	<defs>
		<rect id="SVGID_1_" x="230.8" y="23.8" width="37.9" height="12.9"/>
	</defs>
	<clipPath id="SVGID_00000077325576846832601020000003966601143784662692_">
		<use xlink:href="#SVGID_1_"  style="overflow:visible;"/>
	</clipPath>
	<path style="clip-path:url(#SVGID_00000077325576846832601020000003966601143784662692_);fill:#231F20;" d="M231.1,30.7h2
		c1.6,0,1.9,1,1.9,1.7c0,0.7-0.3,1.7-1.9,1.7h-1v2.2h-1V30.7z M232,33.4h1c0.4,0,1-0.2,1-0.9c0-0.7-0.4-0.9-1-0.9h-1V33.4z"/>
	<path style="clip-path:url(#SVGID_00000077325576846832601020000003966601143784662692_);fill:#231F20;" d="M235.6,32.3h0.8v0.8h0
		c0.1-0.4,0.6-0.9,1.2-0.9c0.2,0,0.3,0,0.3,0V33c-0.1,0-0.3,0-0.4,0c-0.6,0-1.1,0.5-1.1,1.4v1.9h-0.9V32.3z"/>
	<path style="clip-path:url(#SVGID_00000077325576846832601020000003966601143784662692_);fill:#231F20;" d="M238.1,34.3
		c0-1.2,0.8-2.1,2.1-2.1c1.3,0,2.1,0.9,2.1,2.1c0,1.3-0.8,2.2-2.1,2.2C238.9,36.5,238.1,35.6,238.1,34.3 M241.3,34.3
		c0-0.7-0.4-1.4-1.2-1.4c-0.8,0-1.2,0.7-1.2,1.4c0,0.7,0.4,1.4,1.2,1.4C241,35.7,241.3,35,241.3,34.3"/>
	<path style="clip-path:url(#SVGID_00000077325576846832601020000003966601143784662692_);fill:#231F20;" d="M242.4,32.3h0.7V31h0.9
		v1.2h0.8v0.7h-0.8v2.2c0,0.4,0,0.6,0.4,0.6c0.1,0,0.3,0,0.4,0v0.7c-0.2,0-0.4,0-0.6,0c-0.9,0-1.1-0.4-1.1-1v-2.4h-0.7V32.3z"/>
	<path style="clip-path:url(#SVGID_00000077325576846832601020000003966601143784662692_);fill:#231F20;" d="M246.1,34.5
		c0,0.6,0.3,1.2,1.1,1.2c0.5,0,0.8-0.2,1-0.7h0.9c-0.2,0.9-1,1.4-1.9,1.4c-1.3,0-2-0.9-2-2.1c0-1.2,0.8-2.2,2-2.2
		c1.3,0,2.1,1.2,1.9,2.4H246.1z M248.2,33.9c0-0.6-0.4-1.1-1-1.1c-0.6,0-1.1,0.5-1.1,1.1H248.2z"/>
	<path style="clip-path:url(#SVGID_00000077325576846832601020000003966601143784662692_);fill:#231F20;" d="M252.5,33.6
		c-0.1-0.5-0.4-0.8-0.9-0.8c-0.5,0-1.1,0.2-1.1,1.5c0,0.7,0.3,1.4,1.1,1.4c0.5,0,0.9-0.3,1-0.9h0.9c-0.2,1.1-0.8,1.6-1.9,1.6
		c-1.3,0-2-0.9-2-2.1c0-1.2,0.7-2.2,2-2.2c0.9,0,1.8,0.5,1.8,1.5H252.5z"/>
	<path style="clip-path:url(#SVGID_00000077325576846832601020000003966601143784662692_);fill:#231F20;" d="M253.6,32.3h0.7V31h0.9
		v1.2h0.8v0.7h-0.8v2.2c0,0.4,0,0.6,0.4,0.6c0.1,0,0.3,0,0.4,0v0.7c-0.2,0-0.4,0-0.6,0c-0.9,0-1.1-0.4-1.1-1v-2.4h-0.7V32.3z"/>
	<path style="clip-path:url(#SVGID_00000077325576846832601020000003966601143784662692_);fill:#231F20;" d="M257,30.7h0.9v0.9H257
		V30.7z M257,32.3h0.9v4.1H257V32.3z"/>
	<polygon style="clip-path:url(#SVGID_00000077325576846832601020000003966601143784662692_);fill:#231F20;" points="258.6,32.3 
		259.6,32.3 260.8,35.4 260.9,35.4 262.1,32.3 263,32.3 261.3,36.3 260.3,36.3 	"/>
	<path style="clip-path:url(#SVGID_00000077325576846832601020000003966601143784662692_);fill:#231F20;" d="M264.1,34.5
		c0,0.6,0.3,1.2,1.1,1.2c0.5,0,0.8-0.2,1-0.7h0.9c-0.2,0.9-1,1.4-1.9,1.4c-1.3,0-2-0.9-2-2.1c0-1.2,0.8-2.2,2-2.2
		c1.3,0,2.1,1.2,1.9,2.4H264.1z M266.3,33.9c0-0.6-0.4-1.1-1-1.1c-0.6,0-1.1,0.5-1.1,1.1H266.3z"/>
	<path style="clip-path:url(#SVGID_00000077325576846832601020000003966601143784662692_);fill:#00B2EE;" d="M255.3,29.8
		c-0.6-2.2-2.4-4-4.6-4.6c-0.2-0.7-0.8-1.2-1.6-1.2c-0.8,0-1.4,0.5-1.6,1.2c-2.2,0.6-4,2.3-4.6,4.6l-0.1,0.3h1.4l0-0.1
		c0.5-1.6,1.8-2.9,3.4-3.4c0.3,0.5,0.8,0.8,1.4,0.8c0.6,0,1.2-0.3,1.4-0.8c1.6,0.5,2.9,1.7,3.4,3.4l0,0.1h1.4L255.3,29.8z"/>
	<path style="clip-path:url(#SVGID_00000077325576846832601020000003966601143784662692_);fill:#231F20;" d="M268.1,35.7
		c0.2,0,0.4,0.2,0.4,0.4s-0.2,0.4-0.4,0.4c-0.2,0-0.4-0.2-0.4-0.4S267.9,35.7,268.1,35.7 M268.4,36.1c0-0.2-0.1-0.3-0.3-0.3
		c-0.2,0-0.3,0.2-0.3,0.3c0,0.2,0.1,0.3,0.3,0.3C268.3,36.4,268.4,36.2,268.4,36.1 M267.9,35.8h0.2c0.1,0,0.2,0,0.2,0.1
		c0,0.1-0.1,0.1-0.1,0.1l0.1,0.2h-0.1l-0.1-0.2H268v0.2h-0.1V35.8z M268.1,36c0.1,0,0.1,0,0.1-0.1c0-0.1-0.1-0.1-0.1-0.1H268
		L268.1,36L268.1,36z"/>
</g>
</svg>
