<svg id="Layer_1" xmlns="http://www.w3.org/2000/svg" viewBox="0 0 320 50"><style>.st0{fill:#231f20}</style><path class="st0" d="M131 18.9c.1.2.2.3.4.5l.6.3c.2.1.5.1.7.1h.5c.2 0 .4-.1.5-.2s.3-.2.4-.3.2-.3.2-.5-.1-.4-.2-.5c-.1-.1-.3-.3-.6-.3-.2-.1-.5-.2-.8-.2-.3-.1-.6-.1-.9-.2l-.9-.3c-.3-.1-.6-.3-.8-.4-.2-.2-.4-.4-.6-.7-.1-.3-.2-.6-.2-1s.1-.8.3-1.1c.2-.3.4-.6.7-.8.3-.2.6-.4 1-.5s.7-.1 1.1-.1c.4 0 .8 0 1.2.1.4.1.7.3 1.1.5s.5.5.7.8.3.7.3 1.2H134c0-.2-.1-.4-.2-.6-.1-.2-.2-.3-.4-.4-.1-.1-.3-.2-.5-.2s-.4-.1-.6-.1h-.4c-.1 0-.3.1-.4.2l-.3.3c-.1.1-.1.3-.1.4 0 .2 0 .3.1.4.1.1.2.2.4.3.2.1.4.2.7.3.3.1.7.2 1.2.3.2 0 .4.1.6.2s.5.2.8.4c.3.2.5.4.7.7.2.3.3.7.3 1.1 0 .4-.1.7-.2 1-.1.3-.4.6-.6.8s-.6.4-1.1.5c-.4.1-.9.2-1.5.2-.5 0-.9-.1-1.3-.2s-.8-.3-1.1-.5-.6-.5-.8-.9c-.2-.4-.3-.8-.3-1.3h1.7c.2.3.2.5.3.7zM140.8 20.9v-.8c-.2.3-.5.6-.8.7-.3.2-.7.2-1 .2-.4 0-.8-.1-1.1-.2-.3-.1-.5-.3-.7-.5s-.3-.5-.3-.8c-.1-.3-.1-.6-.1-1V15h1.6v3.4c0 .5.1.9.2 1.1s.4.4.8.4.8-.1 1-.4c.2-.3.3-.7.3-1.3V15h1.6v5.9h-1.5zM145.1 15v.8c.2-.3.5-.6.8-.7.3-.1.6-.2 1-.2.5 0 .9.1 1.2.3s.6.4.8.7c.2.3.4.6.5 1s.2.8.2 1.2c0 .4-.1.8-.2 1.2-.1.4-.3.7-.5 1-.2.3-.5.5-.8.7s-.7.3-1.1.3c-.4 0-.7-.1-1-.2-.3-.1-.6-.4-.8-.7V23h-1.6v-8h1.5zm2.1 4.7c.2-.1.3-.2.4-.4.1-.2.2-.4.2-.6 0-.2.1-.5.1-.7 0-.2 0-.5-.1-.7-.1-.2-.1-.4-.2-.6-.1-.2-.3-.3-.4-.4-.2-.1-.4-.2-.7-.2-.3 0-.5.1-.7.2-.2.1-.3.3-.4.4-.1.2-.2.4-.2.6s-.1.5-.1.7c0 .2 0 .5.1.7 0 .2.1.4.2.6.1.2.3.3.4.4s.4.2.7.2c.3-.1.5-.1.7-.2zM152 15v.8c.2-.3.5-.6.8-.7.3-.1.6-.2 1-.2.5 0 .9.1 1.2.3s.6.4.8.7c.2.3.4.6.5 1s.2.8.2 1.2c0 .4-.1.8-.2 1.2-.1.4-.3.7-.5 1-.2.3-.5.5-.8.7s-.7.3-1.1.3c-.4 0-.7-.1-1-.2-.3-.1-.6-.4-.8-.7V23h-1.6v-8h1.5zm2.1 4.7c.2-.1.3-.2.4-.4.1-.2.2-.4.2-.6 0-.2.1-.5.1-.7 0-.2 0-.5-.1-.7-.1-.2-.1-.4-.2-.6-.1-.2-.3-.3-.4-.4-.2-.1-.4-.2-.7-.2-.3 0-.5.1-.7.2-.2.1-.3.3-.4.4-.1.2-.2.4-.2.6s-.1.5-.1.7c0 .2 0 .5.1.7 0 .2.1.4.2.6.1.2.3.3.4.4s.4.2.7.2c.3-.1.5-.1.7-.2zM159 12.7v8.2h-1.6v-8.2h1.6zM162 19.5c.2.2.6.4 1.1.4.3 0 .6-.1.9-.2.2-.2.4-.3.4-.5h1.4c-.2.7-.6 1.2-1.1 1.5-.5.3-1.1.5-1.7.5-.5 0-.9-.1-1.3-.2s-.7-.4-1-.6c-.3-.3-.5-.6-.6-1-.1-.4-.2-.8-.2-1.3 0-.4.1-.9.2-1.2s.4-.7.6-1c.3-.3.6-.5 1-.7.4-.2.8-.2 1.2-.2.5 0 .9.1 1.3.3.4.2.7.5.9.8.2.3.4.7.5 1.1.1.4.1.9.1 1.3h-4.3c.2.4.3.7.6 1zm1.8-3.1c-.2-.2-.5-.3-.9-.3-.3 0-.5 0-.6.1-.2.1-.3.2-.4.3s-.2.3-.2.4-.1.3-.1.4h2.7c-.2-.4-.3-.7-.5-.9zM168.3 15v.8c.2-.3.5-.5.8-.7.3-.2.7-.3 1-.3.4 0 .7.1 1 .2.3.1.5.4.7.8.2-.3.4-.5.7-.7.3-.2.7-.3 1.1-.3.3 0 .6 0 .9.1.3.1.5.2.7.4.2.2.3.4.4.7.1.3.2.6.2 1v4h-1.6v-3.4-.6c0-.2-.1-.3-.1-.5l-.3-.3c-.1-.1-.3-.1-.5-.1s-.4 0-.6.1c-.1.1-.3.2-.3.3-.1.1-.1.3-.2.5v3.8h-1.6v-3.3-.5c0-.2 0-.3-.1-.5-.1-.1-.2-.3-.3-.4-.1-.1-.3-.1-.6-.1-.1 0-.2 0-.3.1-.1 0-.2.1-.4.2-.1.1-.2.2-.3.4-.1.2-.1.4-.1.7v3.5h-1.6V15h1.4zM178.8 19.5c.2.2.6.4 1.1.4.3 0 .6-.1.9-.2.2-.2.4-.3.4-.5h1.4c-.2.7-.6 1.2-1.1 1.5-.5.3-1.1.5-1.7.5-.5 0-.9-.1-1.3-.2s-.7-.4-1-.6c-.3-.3-.5-.6-.6-1-.1-.4-.2-.8-.2-1.3 0-.4.1-.9.2-1.2s.4-.7.6-1 .6-.5 1-.7c.4-.2.8-.2 1.2-.2.5 0 .9.1 1.3.3.4.2.7.5.9.8.2.3.4.7.5 1.1.1.4.1.9.1 1.3h-4.3c.2.4.3.7.6 1zm1.8-3.1c-.2-.2-.5-.3-.9-.3-.3 0-.5 0-.6.1-.2.1-.3.2-.4.3s-.2.3-.2.4-.1.3-.1.4h2.7c-.1-.4-.3-.7-.5-.9zM185.1 15v.8c.2-.3.5-.6.8-.8.3-.2.7-.2 1-.2.4 0 .8.1 1.1.2.3.1.5.3.7.5s.3.5.3.8.1.6.1 1V21h-1.6v-3.4c0-.5-.1-.9-.2-1.1-.2-.2-.4-.4-.8-.4s-.8.1-1 .4c-.2.3-.3.7-.3 1.3v3.1h-1.6V15h1.5zM193.5 15v1.1h-1.2V19c0 .3 0 .5.1.6.1.1.3.1.6.1h.5V21h-1c-.3 0-.5 0-.7-.1-.2 0-.4-.1-.6-.2-.2-.1-.3-.2-.4-.4s-.1-.4-.1-.7v-3.5h-1V15h1v-1.8h1.6V15h1.2zM194.1 16.8c0-.4.1-.7.3-1 .2-.3.4-.5.6-.6.3-.2.6-.3.9-.3.3-.1.7-.1 1-.1.3 0 .6 0 .9.1.3 0 .6.1.8.2s.5.3.6.5c.2.2.2.5.2.9V20.4c0 .2.1.4.2.6h-1.7c0-.1-.1-.2-.1-.3v-.3c-.3.3-.6.5-.9.6-.4.1-.7.2-1.1.2-.3 0-.5 0-.8-.1-.2-.1-.5-.2-.6-.3-.2-.1-.3-.3-.4-.6-.1-.2-.2-.5-.2-.8 0-.3.1-.6.2-.8.1-.2.3-.4.5-.5l.6-.3c.2-.1.5-.1.7-.2.2 0 .5-.1.7-.1.2 0 .4-.1.6-.1.2 0 .3-.1.4-.2.1-.1.2-.2.1-.4 0-.2 0-.3-.1-.4-.1-.1-.1-.2-.2-.2-.1-.1-.2-.1-.3-.1h-.4c-.3 0-.6.1-.8.2-.2.1-.3.4-.3.7h-1.4zm3.8 1.2c-.1.1-.2.1-.3.1-.1 0-.2.1-.3.1-.1 0-.2 0-.4.1-.1 0-.3 0-.4.1-.1 0-.2.1-.4.1-.1 0-.2.1-.3.2-.1.1-.2.1-.2.2s-.1.2-.1.4c0 .1 0 .3.1.4s.1.2.2.2c.1.1.2.1.3.1h.4c.3 0 .6-.1.7-.2.2-.1.3-.2.4-.4.1-.1.1-.3.2-.5V18zM202.4 12.7v8.2h-1.6v-8.2h1.6z"/><g><path class="st0" d="M120.5 25.2l1.9 5.6 1.8-5.6h2.5v8.2H125v-5.8l-2 5.8h-1.4l-2-5.8v5.8h-1.7v-8.2h2.6zM129.8 32c.2.2.6.4 1.1.4.3 0 .6-.1.9-.2s.4-.3.4-.5h1.4c-.2.7-.6 1.2-1.1 1.5-.5.3-1.1.5-1.7.5-.5 0-.9-.1-1.3-.2s-.7-.4-1-.6-.5-.6-.6-1c-.1-.4-.2-.8-.2-1.3 0-.4.1-.9.2-1.2.1-.4.4-.7.6-1 .3-.3.6-.5 1-.7.4-.2.8-.2 1.2-.2.5 0 .9.1 1.3.3.4.2.7.5.9.8.2.3.4.7.5 1.1.1.4.1.9.1 1.3h-4.3c.2.4.4.7.6 1zm1.9-3.1c-.2-.2-.5-.3-.9-.3-.3 0-.5 0-.6.1-.2.1-.3.2-.4.3-.1.1-.2.3-.2.4 0 .1-.1.3-.1.4h2.7c-.2-.4-.3-.7-.5-.9zM138.8 32.6c-.2.3-.4.6-.8.7s-.7.2-1.1.2c-.4 0-.8-.1-1.2-.3s-.6-.4-.8-.7c-.2-.3-.4-.6-.5-1-.1-.4-.2-.8-.2-1.2 0-.4.1-.8.2-1.2s.3-.7.5-1c.2-.3.5-.5.8-.7.3-.2.7-.3 1.1-.3.4 0 .7.1 1 .2.3.1.6.4.8.7v-3h1.6v8.2h-1.6l.2-.6zm-.1-2.9c0-.2-.1-.4-.2-.6s-.3-.3-.4-.4-.4-.2-.7-.2c-.3 0-.5.1-.7.2-.2.1-.3.2-.4.4-.1.2-.2.4-.2.6 0 .2-.1.5-.1.7 0 .2 0 .5.1.7.1.2.1.4.3.6.1.2.3.3.4.4s.4.2.6.2c.3 0 .5-.1.7-.2s.3-.3.4-.4c.1-.2.2-.4.2-.6 0-.2.1-.5.1-.7 0-.2 0-.5-.1-.7zM141.5 26.5v-1.3h1.6v1.3h-1.6zm1.7 1v5.9h-1.6v-5.9h1.6zM147.2 28.5c-.3 0-.5.1-.7.2-.2.1-.3.3-.4.5-.1.2-.2.4-.2.6 0 .2-.1.5-.1.7 0 .2 0 .4.1.7 0 .2.1.4.2.6.1.2.2.3.4.4.2.1.4.2.6.2.4 0 .7-.1.9-.3s.3-.5.4-.9h1.6c-.1.8-.4 1.4-.9 1.8-.5.4-1.2.6-1.9.6-.4 0-.9-.1-1.2-.2-.4-.1-.7-.4-.9-.6-.3-.3-.5-.6-.6-1-.1-.4-.2-.8-.2-1.2 0-.5.1-.9.2-1.3s.3-.7.6-1c.3-.3.6-.5 1-.7.4-.2.8-.2 1.3-.2.4 0 .7 0 1 .1.3.1.6.2.9.4.3.2.5.4.6.7.2.3.3.6.3 1h-1.6c-.3-.7-.7-1.1-1.4-1.1zM150.8 29.3c0-.4.1-.7.3-1s.4-.5.6-.6.6-.3.9-.3c.3-.1.7-.1 1-.1.3 0 .6 0 .9.1s.6.1.8.2c.3.1.5.3.6.5.2.2.2.5.2.9V32.9c0 .3.1.4.2.6h-1.7c0-.1-.1-.2-.1-.3v-.3c-.3.3-.6.5-.9.6-.4.1-.7.2-1.1.2-.3 0-.5 0-.8-.1-.2-.1-.5-.2-.6-.3-.2-.1-.3-.3-.4-.6-.1-.2-.2-.5-.2-.8 0-.3.1-.6.2-.8.1-.2.3-.4.5-.5l.6-.3c.2-.1.5-.1.7-.2.2 0 .5-.1.7-.1.2 0 .4-.1.6-.1.2 0 .3-.1.4-.2s.2-.2.1-.4c0-.2 0-.3-.1-.4s-.1-.2-.2-.2c-.1-.1-.2-.1-.3-.1h-.4c-.3 0-.6.1-.8.2-.2.1-.3.4-.3.7h-1.4zm3.7 1.2c-.1.1-.2.1-.3.1s-.2.1-.3.1c-.1 0-.2 0-.4.1s-.3 0-.4.1c-.1 0-.2.1-.4.1-.1 0-.2.1-.3.2-.1.1-.2.1-.2.2s-.1.2-.1.4c0 .1 0 .3.1.4s.1.2.2.2c.1.1.2.1.3.1h.4c.3 0 .6-.1.7-.2s.3-.2.4-.4c.1-.1.1-.3.2-.5v-.9zM159 25.2v8.2h-1.6v-8.2h1.6zM168.7 27.4c-.1-.2-.2-.3-.4-.5-.2-.1-.3-.2-.5-.3-.2-.1-.4-.1-.6-.1-.4 0-.8.1-1 .2-.3.2-.5.4-.7.6-.2.3-.3.6-.4.9s-.1.7-.1 1c0 .3 0 .7.1 1 .1.3.2.6.4.9.2.3.4.5.7.6.3.2.6.2 1 .2.6 0 1-.2 1.3-.5.3-.3.5-.8.6-1.3h1.7c0 .5-.2 1-.4 1.4-.2.4-.4.8-.8 1.1s-.7.5-1.1.7c-.4.2-.9.2-1.4.2-.6 0-1.2-.1-1.7-.3s-.9-.5-1.3-.9c-.3-.4-.6-.8-.8-1.4-.2-.5-.3-1.1-.3-1.7 0-.6.1-1.2.3-1.7.2-.5.4-1 .8-1.4.3-.4.8-.7 1.3-.9.5-.2 1.1-.3 1.7-.3.5 0 .9.1 1.3.2s.8.3 1.1.6c.3.2.6.6.8.9.2.4.3.8.4 1.3H169c-.1-.2-.2-.3-.3-.5zM171.7 29.1c.1-.4.4-.7.6-1 .3-.3.6-.5 1-.6.4-.1.8-.2 1.3-.2s.9.1 1.3.2.7.4 1 .6c.3.3.5.6.6 1 .1.4.2.8.2 1.3s-.1.9-.2 1.3-.4.7-.6 1c-.3.3-.6.5-1 .6s-.8.2-1.3.2-.9-.1-1.3-.2-.7-.4-1-.6c-.3-.3-.5-.6-.6-1-.1-.4-.2-.8-.2-1.3s.1-.9.2-1.3zm1.5 2c0 .2.1.4.2.6.1.2.3.3.4.4.2.1.4.2.7.2.3 0 .5-.1.7-.2s.3-.3.4-.4c.1-.2.2-.4.2-.6 0-.2.1-.5.1-.7 0-.2 0-.5-.1-.7 0-.2-.1-.4-.2-.6-.1-.2-.3-.3-.4-.4s-.4-.2-.7-.2c-.3 0-.5.1-.7.2-.2.1-.3.3-.4.4-.1.2-.2.4-.2.6 0 .2-.1.5-.1.7 0 .3.1.5.1.7zM180.1 33.4l-2-5.9h1.7l1.3 4.1 1.3-4.1h1.6l-2 5.9h-1.9zM186.2 32c.2.2.6.4 1.1.4.3 0 .6-.1.9-.2.2-.2.4-.3.4-.5h1.4c-.2.7-.6 1.2-1.1 1.5-.5.3-1.1.5-1.7.5-.5 0-.9-.1-1.3-.2s-.7-.4-1-.6c-.3-.3-.5-.6-.6-1-.1-.4-.2-.8-.2-1.3 0-.4.1-.9.2-1.2.1-.4.4-.7.6-1 .3-.3.6-.5 1-.7.4-.2.8-.2 1.2-.2.5 0 .9.1 1.3.3.4.2.7.5.9.8.2.3.4.7.5 1.1.1.4.1.9.1 1.3h-4.3c.3.4.4.7.6 1zm1.9-3.1c-.2-.2-.5-.3-.9-.3-.3 0-.5 0-.6.1-.2.1-.3.2-.4.3-.1.1-.2.3-.2.4s-.1.3-.1.4h2.7c-.2-.4-.3-.7-.5-.9zM192.5 27.5v1.1c.1-.2.2-.4.3-.5.1-.2.3-.3.4-.4.2-.1.3-.2.5-.3.2-.1.4-.1.6-.1.1 0 .2 0 .4.1v1.5h-.6c-.3 0-.6 0-.8.1-.2.1-.4.2-.5.4l-.3.6c-.1.2-.1.5-.1.7v2.7H191v-5.9h1.5zM195.3 29.3c0-.4.1-.7.3-1 .2-.3.4-.5.6-.6s.6-.3.9-.3c.3-.1.7-.1 1-.1.3 0 .6 0 .9.1s.6.1.8.2c.3.1.5.3.6.5s.2.5.2.9V32.9c0 .3.1.4.2.6h-1.7c0-.1-.1-.2-.1-.3v-.3c-.3.3-.6.5-.9.6s-.7.2-1.1.2c-.3 0-.5 0-.8-.1s-.5-.2-.6-.3c-.2-.1-.3-.3-.4-.6-.1-.2-.2-.5-.2-.8 0-.3.1-.6.2-.8.1-.2.3-.4.5-.5l.6-.3c.2-.1.5-.1.7-.2.2 0 .5-.1.7-.1.2 0 .4-.1.6-.1.2 0 .3-.1.4-.2s.2-.2.1-.4c0-.2 0-.3-.1-.4-.1-.1-.1-.2-.2-.2s-.2-.1-.3-.1h-.4c-.3 0-.6.1-.8.2-.2.1-.3.4-.3.7h-1.4zm3.8 1.2c-.1.1-.2.1-.3.1s-.2.1-.3.1c-.1 0-.2 0-.4.1-.1 0-.3 0-.4.1-.1 0-.2.1-.4.1-.1 0-.2.1-.3.2-.1.1-.2.1-.2.2s-.1.2-.1.4c0 .1 0 .3.1.4s.1.2.2.2.2.1.3.1h.4c.3 0 .6-.1.7-.2.2-.1.3-.2.4-.4.1-.1.1-.3.2-.5v-.9zM207.5 33.8c-.1.3-.2.6-.4.9-.2.3-.5.5-.9.7-.4.2-1 .3-1.6.3-.3 0-.6 0-.9-.1-.3-.1-.6-.2-.8-.3s-.5-.4-.6-.6c-.2-.2-.3-.5-.3-.9h1.6c.1.3.2.5.4.6.2.1.5.2.8.2.5 0 .8-.1 1-.4.2-.3.3-.6.3-1v-.8c-.2.3-.4.5-.8.7s-.7.2-1 .2c-.4 0-.8-.1-1.2-.2-.3-.2-.6-.4-.8-.6-.2-.3-.4-.6-.5-1-.1-.4-.1-.7-.1-1.2 0-.4.1-.8.2-1.1.1-.4.3-.7.5-.9.2-.3.5-.5.8-.7.3-.2.7-.2 1.1-.2.4 0 .7.1 1 .2.3.1.5.4.7.7v-.8h1.6V33c0 .3-.1.5-.1.8zm-2.3-1.9c.2-.1.3-.2.4-.4.1-.2.2-.3.3-.5.1-.2.1-.4.1-.6 0-.2 0-.5-.1-.7s-.1-.4-.2-.6c-.1-.2-.2-.3-.4-.4-.2-.1-.4-.1-.7-.1-.2 0-.4 0-.6.1-.2.1-.3.2-.4.4-.1.2-.2.3-.2.5s-.1.4-.1.6c0 .2 0 .4.1.6 0 .2.1.4.2.6.1.2.2.3.4.4.2.1.4.2.6.2.3 0 .5 0 .6-.1zM210.5 32c.2.2.6.4 1.1.4.3 0 .6-.1.9-.2.2-.2.4-.3.4-.5h1.4c-.2.7-.6 1.2-1.1 1.5-.5.3-1.1.5-1.7.5-.5 0-.9-.1-1.3-.2s-.7-.4-1-.6c-.3-.3-.5-.6-.6-1-.1-.4-.2-.8-.2-1.3 0-.4.1-.9.2-1.2.1-.4.4-.7.6-1 .3-.3.6-.5 1-.7.4-.2.8-.2 1.2-.2.5 0 .9.1 1.3.3.4.2.7.5.9.8.2.3.4.7.5 1.1.1.4.1.9.1 1.3h-4.3c.2.4.4.7.6 1zm1.9-3.1c-.2-.2-.5-.3-.9-.3-.3 0-.5 0-.6.1-.2.1-.3.2-.4.3-.1.1-.2.3-.2.4s-.1.3-.1.4h2.7c-.2-.4-.3-.7-.5-.9z"/></g></svg>