<svg xmlns="http://www.w3.org/2000/svg" viewBox="0 0 300 250"><path d="M80.6 32.9c.7 0 1.4.1 2 .4.6.2 1.1.6 1.5 1 .4.4.7.9 1 1.4.2.5.3 1.1.3 1.8 0 1-.2 1.8-.6 2.5-.4.7-1.1 1.2-2 1.6.4.1.8.3 1.1.6.3.3.5.6.7.9.2.3.3.7.4 1.1.1.4.1.8.2 1.2v.9c0 .4 0 .7.1 1.1 0 .4.1.7.2 1 .1.3.2.6.4.8h-3.6c-.2-.5-.3-1.1-.4-1.9 0-.7-.1-1.4-.2-2.1-.1-.9-.4-1.5-.8-1.9-.4-.4-1-.6-1.9-.6h-3.6v6.4h-3.6V32.9h8.8zm-1.3 7.4c.8 0 1.4-.2 1.9-.6s.6-1 .6-1.8-.2-1.4-.6-1.7c-.4-.4-1-.5-1.9-.5h-3.9v4.6h3.9zM91.1 46.4c.5.5 1.2.7 2.1.7.7 0 1.2-.2 1.7-.5s.8-.7.9-1h2.9c-.5 1.4-1.2 2.4-2.1 3-.9.6-2.1.9-3.4.9-.9 0-1.8-.1-2.5-.4-.7-.3-1.4-.7-1.9-1.3-.5-.5-.9-1.2-1.2-2-.3-.8-.4-1.6-.4-2.5 0-.9.1-1.7.4-2.5.3-.8.7-1.4 1.2-2 .5-.6 1.2-1 1.9-1.3.7-.3 1.6-.5 2.5-.5 1 0 1.9.2 2.6.6.7.4 1.4.9 1.8 1.6.5.7.8 1.4 1 2.2.2.8.3 1.7.2 2.6h-8.6c.1 1.1.4 1.9.9 2.4zm3.6-6.2c-.4-.4-1-.6-1.8-.6-.5 0-1 .1-1.3.3s-.6.4-.8.7c-.2.3-.4.5-.4.8-.1.3-.1.5-.1.8h5.3c-.2-1-.5-1.6-.9-2zM100.2 41c0-.8.2-1.4.6-1.9.3-.5.8-.9 1.3-1.2s1.1-.5 1.8-.7 1.3-.2 2-.2c.6 0 1.2 0 1.8.1s1.2.2 1.7.5c.5.2.9.6 1.2 1 .3.4.5 1 .5 1.7v6.2c0 .5 0 1 .1 1.5s.2.9.3 1.1H108c-.1-.2-.1-.4-.1-.6 0-.2-.1-.4-.1-.6-.5.5-1.1.9-1.8 1.1-.7.2-1.4.3-2.2.3-.6 0-1.1-.1-1.6-.2s-.9-.4-1.3-.6c-.4-.3-.7-.7-.9-1.1-.2-.4-.3-1-.3-1.6 0-.7.1-1.2.4-1.7.2-.4.5-.8.9-1 .4-.3.8-.5 1.3-.6l1.5-.3c.5-.1 1-.1 1.4-.2.5 0 .9-.1 1.3-.2s.7-.2.9-.4c.2-.2.3-.4.3-.8s-.1-.6-.2-.8c-.1-.2-.3-.4-.5-.5-.2-.1-.4-.2-.7-.2-.3 0-.5-.1-.8-.1-.6 0-1.1.1-1.5.4-.4.3-.6.7-.6 1.4h-3.2zm7.5 2.4c-.1.1-.3.2-.5.3-.2.1-.4.1-.7.2-.2 0-.5.1-.7.1-.3 0-.5.1-.8.1-.2 0-.5.1-.7.2l-.6.3c-.2.1-.3.3-.4.5s-.2.5-.2.8c0 .3.1.5.2.7.1.2.3.4.4.5.2.1.4.2.6.2.2 0 .5.1.8.1.6 0 1.1-.1 1.5-.3.4-.2.6-.5.8-.8.2-.3.3-.6.3-.9s.1-.6.1-.7v-1.3zM121.4 47.7c-.4.6-.9 1.1-1.5 1.4-.6.3-1.3.4-2.1.4-.9 0-1.7-.2-2.3-.5s-1.2-.8-1.7-1.4c-.4-.6-.8-1.3-1-2-.2-.8-.3-1.6-.3-2.4 0-.8.1-1.6.3-2.3.2-.7.6-1.4 1-2 .4-.6 1-1 1.6-1.4s1.4-.5 2.3-.5c.7 0 1.4.1 2 .4.6.3 1.1.7 1.5 1.3v-6h3.3v16.4h-3.1v-1.4zm-.1-5.8c-.1-.5-.2-.8-.5-1.2-.2-.3-.5-.6-.9-.8-.4-.2-.8-.3-1.3-.3s-1 .1-1.4.3c-.4.2-.7.5-.9.8-.2.4-.4.8-.5 1.2-.1.5-.1.9-.1 1.4 0 .5.1.9.2 1.4s.3.9.5 1.2c.2.4.5.6.9.9.4.2.8.3 1.3.3s1-.1 1.3-.3.6-.5.9-.9c.2-.4.4-.8.5-1.2s.1-.9.1-1.4c0-.5 0-1-.1-1.4zM126.7 41.1v-3.5h3.6v3.5h-3.6zm3.6 4.6v3.5h-3.6v-3.5h3.6z"/><g><path d="M147 32.9c.8 0 1.6.1 2.3.2.7.2 1.3.4 1.8.8s.9.9 1.2 1.5c.3.6.4 1.4.4 2.3 0 .9-.2 1.7-.5 2.4s-.8 1.3-1.4 1.8c-.6.5-1.3.9-2 1.1s-1.6.4-2.4.4H142l-1.2 5.9H137l3.4-16.4h6.6zm-.9 7.7c.9 0 1.6-.2 2.2-.7.5-.5.8-1.2.8-2.2 0-.4-.1-.8-.2-1-.1-.3-.3-.5-.6-.6-.2-.1-.5-.2-.8-.3-.3-.1-.6-.1-.9-.1h-3.1l-1 4.9h3.6zM157.2 37.4l-.5 2.1c.4-.8.9-1.4 1.7-1.9s1.5-.6 2.4-.6c.3 0 .7 0 1 .1l-.7 3.2c-.2 0-.5-.1-.7-.1-.2 0-.5-.1-.7-.1-.6 0-1.2.1-1.6.3s-.8.5-1.1.9c-.3.4-.5.8-.7 1.2-.2.5-.3 1-.4 1.5l-1.1 5.2h-3.2l2.5-11.9h3.1zM162.5 39.1c.4-.5.8-.9 1.3-1.2s1.1-.5 1.7-.7 1.3-.2 1.9-.2c.5 0 1.1 0 1.7.1.6.1 1.1.2 1.6.4s.9.5 1.2.9c.3.4.5.9.4 1.6 0 .6-.1 1.2-.3 2l-1.1 4.8c-.1.2-.1.5-.1.8v.8c0 .2 0 .4.1.7h-3.3v-1.2c-.4.5-1 .9-1.6 1.1-.6.2-1.3.4-2 .4-.6 0-1.2-.1-1.7-.3s-.9-.4-1.2-.7c-.3-.3-.6-.6-.7-1-.2-.4-.2-.8-.2-1.2 0-1.1.4-2.1 1.2-2.8s1.9-1.1 3.3-1.3c.8-.1 1.4-.2 2-.2.6 0 1-.1 1.4-.2.4-.1.7-.2.8-.4s.3-.5.3-.9c0-.3-.1-.6-.2-.7-.1-.2-.3-.3-.5-.4s-.4-.2-.7-.2c-.2 0-.5-.1-.7-.1-.6 0-1.1.1-1.6.4-.5.3-.7.7-.8 1.3h-3c.2-.5.4-1.1.8-1.6zm4.8 4.9c-.5.1-.9.1-1.4.1-.3 0-.6.1-.9.1s-.5.2-.8.3c-.2.1-.4.3-.5.6-.1.2-.2.5-.2.9s.2.8.5 1c.4.2.8.3 1.2.3.5 0 .9-.1 1.3-.2l.9-.6c.2-.3.4-.5.6-.9.1-.3.3-.6.3-1l.3-1.1c-.3.3-.8.4-1.3.5zM181.6 40c-.4-.3-.9-.5-1.6-.5-.6 0-1.1.2-1.6.5s-.8.7-1 1.2-.4 1.1-.6 1.6c-.1.6-.2 1.1-.2 1.6 0 .4 0 .7.1 1 .1.3.2.6.4.8.2.2.4.4.7.5.3.1.6.2 1 .2s.7-.1 1-.2c.3-.1.5-.3.8-.5.2-.2.4-.4.5-.7.1-.3.3-.5.4-.8h3.3c-.5 1.5-1.2 2.6-2.3 3.4-1 .8-2.3 1.2-3.9 1.2-1.7 0-3-.4-3.9-1.2-.9-.8-1.4-2.1-1.4-3.8 0-1 .1-2 .4-2.9.3-.9.7-1.7 1.3-2.4.6-.7 1.3-1.2 2.1-1.6s1.8-.6 2.8-.6c.7 0 1.4.1 2 .3.6.2 1.2.4 1.7.8s.9.8 1.1 1.4c.3.6.4 1.2.4 2h-3.3c.3-.5.1-1-.2-1.3zM194.1 37.4l-.5 2.2h-2.3l-1.2 5.9c0 .1-.1.2-.1.3v.2c0 .2 0 .4.1.5l.3.3c.1.1.2.1.4.1h.4c.4 0 .8 0 1.2-.1l-.5 2.5c-.3 0-.7.1-1 .1h-1c-.4 0-.8 0-1.1-.1-.4-.1-.7-.2-1-.4-.3-.2-.5-.4-.7-.7-.2-.3-.3-.7-.2-1.2v-.5c0-.2.1-.4.1-.6l1.3-6.3H186l.5-2.2h2.1l.7-3.6h3.3l-.7 3.6h2.2zM199 37.4l-2.5 11.9h-3.3l2.5-11.9h3.3zm-2.9-1.9l.6-2.7h3.3l-.6 2.7h-3.3zM207.4 40c-.4-.3-.9-.5-1.6-.5-.6 0-1.1.2-1.6.5s-.8.7-1 1.2-.4 1.1-.6 1.6c-.1.6-.2 1.1-.2 1.6 0 .4 0 .7.1 1 .1.3.2.6.4.8.2.2.4.4.7.5.3.1.6.2 1 .2s.7-.1 1-.2c.3-.1.5-.3.8-.5.2-.2.4-.4.5-.7.1-.3.3-.5.4-.8h3.3c-.5 1.5-1.2 2.6-2.3 3.4-1 .8-2.3 1.2-3.9 1.2-1.7 0-3-.4-3.9-1.2-.9-.8-1.4-2.1-1.4-3.8 0-1 .1-2 .4-2.9.3-.9.7-1.7 1.3-2.4.6-.7 1.3-1.2 2.1-1.6s1.8-.6 2.8-.6c.7 0 1.4.1 2 .3.6.2 1.2.4 1.7.8s.9.8 1.1 1.4c.3.6.4 1.2.4 2H208c0-.5-.2-1-.6-1.3zM213.3 39.1c.4-.5.8-.9 1.3-1.2s1.1-.5 1.7-.7 1.3-.2 1.9-.2c.5 0 1.1 0 1.7.1.6.1 1.1.2 1.6.4s.9.5 1.2.9c.3.4.5.9.4 1.6 0 .6-.1 1.2-.3 2l-1.1 4.8c-.1.2-.1.5-.1.8v.8c0 .2 0 .4.1.7h-3.3v-1.2c-.4.5-1 .9-1.6 1.1-.6.2-1.3.4-2 .4-.6 0-1.2-.1-1.7-.3s-.9-.4-1.2-.7c-.3-.3-.6-.6-.7-1-.2-.4-.2-.8-.2-1.2 0-1.1.4-2.1 1.2-2.8s1.9-1.1 3.3-1.3c.8-.1 1.4-.2 2-.2.6 0 1-.1 1.4-.2.4-.1.7-.2.8-.4s.3-.5.3-.9c0-.3-.1-.6-.2-.7-.1-.2-.3-.3-.5-.4s-.4-.2-.7-.2c-.2 0-.5-.1-.7-.1-.6 0-1.1.1-1.6.4-.5.3-.7.7-.8 1.3h-3c.3-.5.5-1.1.8-1.6zm4.9 4.9c-.5.1-.9.1-1.4.1-.3 0-.6.1-.9.1s-.5.2-.8.3c-.2.1-.4.3-.5.6-.1.2-.2.5-.2.9s.2.8.5 1c.4.2.8.3 1.2.3.5 0 .9-.1 1.3-.2l.9-.6c.2-.3.4-.5.6-.9.1-.3.3-.6.3-1l.3-1.1c-.4.3-.8.4-1.3.5zM230.5 32.9L227 49.2h-3.2l3.5-16.4h3.2z"/></g><g><path d="M44.5 65c.4-.5.8-.9 1.3-1.2s1.1-.5 1.7-.7c.6-.1 1.3-.2 1.9-.2.5 0 1.1 0 1.7.1.6.1 1.1.2 1.6.4s.9.5 1.2.9c.3.4.5.9.4 1.6 0 .6-.1 1.2-.3 2l-1.1 4.8c.1.4.1.6.1.9v.8c0 .2 0 .4.1.7h-3.3V74c-.4.5-1 .9-1.6 1.1-.6.2-1.3.4-2 .4-.6 0-1.2-.1-1.7-.3s-.9-.4-1.2-.7-.6-.6-.7-1c-.2-.4-.2-.8-.2-1.2 0-1.1.4-2.1 1.2-2.8s1.9-1.1 3.3-1.3c.8-.1 1.4-.2 2-.2.6 0 1-.1 1.4-.2.4-.1.7-.2.8-.4.2-.2.3-.5.3-.9 0-.3-.1-.6-.2-.7-.1-.2-.3-.3-.5-.4-.2-.1-.4-.2-.7-.2-.2 0-.5-.1-.7-.1-.6 0-1.1.1-1.6.4s-.7.7-.8 1.3h-3c.1-.7.3-1.3.6-1.8zm4.9 4.9c-.5 0-.9.1-1.4.1-.3 0-.6.1-.9.1-.3.1-.5.2-.8.3-.2.1-.4.3-.5.6-.1.2-.2.5-.2.9s.2.8.5 1c.4.2.8.3 1.2.3.5 0 .9-.1 1.3-.2l.9-.6c.2-.3.4-.5.6-.9.1-.3.3-.6.3-1l.3-1.1c-.4.3-.8.4-1.3.5zM63.5 73.6c-.4.6-.9 1.1-1.5 1.4-.6.3-1.3.4-2.1.4-1.4 0-2.5-.4-3.3-1.2s-1.2-2-1.2-3.4c0-1 .1-1.9.4-2.9.3-.9.7-1.8 1.2-2.5s1.2-1.3 2-1.8 1.8-.7 2.9-.7c.7 0 1.3.2 2 .5.6.3 1.1.8 1.3 1.4l1.3-6.1h3.3l-3.5 16.4h-3.1l.3-1.5zm-2.9-7.7c-.5.3-.8.7-1.1 1.2-.3.5-.5 1-.6 1.6-.1.6-.2 1.1-.2 1.7 0 .4 0 .7.1 1 .1.3.2.6.4.8.2.2.4.4.7.6.3.1.6.2 1 .2.6 0 1.1-.2 1.6-.5.4-.3.8-.7 1.1-1.2.3-.5.5-1.1.7-1.6.1-.6.2-1.1.2-1.6 0-.8-.2-1.4-.6-1.9s-1-.7-1.8-.7c-.5-.1-1 .1-1.5.4zM71 75.1l-1.6-11.9h3.3l.7 8.4 4.2-8.4H81l-6.5 11.9H71zM85.7 63.3l-2.5 11.9H80l2.5-11.9h3.2zm-2.9-1.9l.6-2.7h3.3l-.6 2.7h-3.3zM94.2 65.9c-.4-.3-.9-.5-1.6-.5-.6 0-1.1.2-1.6.5-.4.3-.8.7-1 1.2s-.4 1.1-.6 1.6c-.1.6-.2 1.1-.2 1.6 0 .4 0 .7.1 1 .1.3.2.6.4.8.2.2.4.4.7.5.3.1.6.2 1 .2s.7-.1 1-.2c.3-.1.5-.3.8-.5.2-.2.4-.4.6-.7.1-.3.3-.5.4-.8h3.3c-.5 1.5-1.2 2.6-2.3 3.4-1 .8-2.3 1.2-3.9 1.2-1.7 0-3-.4-3.9-1.2-.9-.8-1.4-2.1-1.4-3.8 0-1 .1-2 .4-2.9s.7-1.7 1.3-2.4c.6-.7 1.3-1.2 2.1-1.6.8-.4 1.8-.6 2.8-.6.7 0 1.4.1 2 .3.6.2 1.2.4 1.7.8s.9.8 1.1 1.4c.3.6.4 1.2.4 2h-3.3c.2-.5 0-1-.3-1.3zM101.4 70.2v.5c0 .7.2 1.2.6 1.7.4.4 1.1.6 2 .6.3 0 .6 0 .9-.1.3-.1.5-.2.7-.4.2-.2.4-.3.5-.5.1-.2.3-.4.4-.6h3.3c-.3.7-.6 1.3-.9 1.8-.4.5-.8.9-1.3 1.3-.5.3-1.1.6-1.7.8s-1.4.3-2.3.3c-.8 0-1.5-.1-2.2-.3-.6-.2-1.2-.5-1.7-1s-.8-1-1.1-1.6c-.3-.6-.4-1.4-.4-2.2 0-.9.2-1.9.5-2.7.3-.9.7-1.7 1.3-2.3.6-.7 1.2-1.2 2.1-1.6.8-.4 1.7-.6 2.7-.6.8 0 1.6.1 2.3.3s1.3.5 1.7 1 .9 1 1.1 1.6c.3.6.4 1.4.4 2.3 0 .6-.1 1.2-.2 1.9h-8.7v-.2zm5.7-3.2c-.1-.3-.2-.6-.3-.8-.2-.2-.4-.4-.7-.6-.3-.1-.7-.2-1.1-.2-.5 0-.9.1-1.2.2-.4.1-.7.3-.9.6-.3.2-.5.5-.7.8-.2.3-.3.6-.4 1h5.4c0-.4-.1-.7-.1-1zM117.2 65.5l.5-2.2h1.9c.2-.8.3-1.4.5-2s.4-1.1.8-1.5.7-.7 1.3-.9c.5-.2 1.2-.3 2.1-.3h1.1c.4 0 .7.1 1.1.1L126 61h-1c-.4 0-.7 0-.9.1-.2.1-.4.2-.5.4-.1.2-.2.4-.3.7-.1.3-.1.6-.2.9h2.3l-.5 2.2h-2.3l-2 9.7H117l2-9.7h-1.8zM125 67.5c.3-.9.8-1.7 1.4-2.3.6-.7 1.3-1.2 2.1-1.6s1.8-.6 2.8-.6c.8 0 1.6.1 2.2.3.7.2 1.3.5 1.8.9s.9.9 1.1 1.6c.3.6.4 1.4.4 2.2 0 1-.2 2-.5 2.9-.3.9-.8 1.7-1.4 2.4-.6.7-1.3 1.2-2.2 1.6s-1.8.6-2.9.6c-1.7 0-3-.4-4-1.3-1-.8-1.5-2.1-1.5-3.8.2-1.1.4-2 .7-2.9zm2.9 3.9c.1.3.2.6.4.8.2.2.4.4.7.6.3.1.6.2 1 .2.6 0 1.1-.2 1.6-.5s.8-.7 1.1-1.2c.3-.5.5-1 .6-1.6.1-.6.2-1.1.2-1.6 0-.8-.2-1.4-.5-1.9-.4-.5-1-.7-1.8-.7-.6 0-1.1.2-1.5.5s-.8.7-1.1 1.2-.5 1-.6 1.6c-.1.6-.2 1.1-.2 1.6 0 .3 0 .6.1 1zM142.7 63.3l-.5 2.1c.4-.8.9-1.4 1.7-1.9s1.5-.6 2.4-.6c.3 0 .7 0 1 .1l-.7 3.2c-.2 0-.5-.1-.7-.1-.2 0-.5-.1-.7-.1-.6 0-1.2.1-1.6.3s-.8.5-1.1.9c-.3.4-.5.8-.7 1.2-.2.5-.3 1-.4 1.5l-1.1 5.2h-3.2l2.5-11.9h3.1zM157.2 63.3l-.4 1.7c.5-.7 1.1-1.2 1.8-1.5.7-.3 1.5-.5 2.4-.5.7 0 1.4.2 1.9.5s.8.8 1 1.6c.2-.3.5-.6.8-.8.3-.3.6-.5 1-.7.4-.2.7-.3 1.1-.4s.8-.1 1.2-.1c.5 0 .9.1 1.3.2s.8.3 1.2.6c.3.2.6.6.8.9.2.4.3.8.3 1.3 0 .4 0 .7-.1 1.1-.1.4-.2.7-.2 1.1l-1.5 7h-3.3l1.6-7.5c.1-.3.1-.6.1-.8 0-.4-.1-.6-.4-.9-.3-.2-.6-.4-1-.4s-.8.1-1.2.3c-.3.2-.6.5-.9.8-.3.3-.5.7-.6 1-.2.4-.3.8-.4 1.1l-1.3 6.3H159l1.6-7.5c.1-.3.1-.6.1-.8 0-.4-.1-.6-.4-.9s-.6-.4-1-.4-.8.1-1.2.3c-.3.2-.6.5-.9.8-.3.3-.5.7-.6 1-.2.4-.3.8-.4 1.1l-1.3 6.3h-3.2l2.5-11.9h3zM174.3 65c.4-.5.8-.9 1.3-1.2s1.1-.5 1.7-.7 1.3-.2 1.9-.2c.5 0 1.1 0 1.7.1.6.1 1.1.2 1.6.4s.9.5 1.2.9c.3.4.5.9.4 1.6 0 .6-.1 1.2-.3 2l-1.1 4.8c-.1.2-.1.5-.1.8v.8c0 .2 0 .4.1.7h-3.3v-1c-.4.5-1 .9-1.6 1.1-.6.2-1.3.4-2 .4-.6 0-1.2-.1-1.7-.3s-.9-.4-1.2-.7c-.3-.3-.6-.6-.7-1-.2-.4-.2-.8-.2-1.2 0-1.1.4-2.1 1.2-2.8s1.9-1.1 3.3-1.3c.8-.1 1.4-.2 2-.2.6 0 1-.1 1.4-.2.4-.1.7-.2.8-.4s.3-.5.3-.9c0-.3-.1-.6-.2-.7-.1-.2-.3-.3-.5-.4s-.4-.2-.7-.2c-.2 0-.5-.1-.7-.1-.6 0-1.1.1-1.6.4-.5.3-.7.7-.8 1.3h-3c.2-.7.4-1.3.8-1.8zm4.8 4.9c-.5.1-.9.1-1.4.1-.3 0-.6.1-.9.1s-.5.2-.8.3c-.2.1-.4.3-.5.6-.1.2-.2.5-.2.9s.2.8.5 1c.4.2.8.3 1.2.3.5 0 .9-.1 1.3-.2l.9-.6c.2-.3.4-.5.6-.9.1-.3.3-.6.3-1l.3-1.1c-.4.3-.8.4-1.3.5zM190.2 63.3l-.4 1.7c1.1-1.3 2.4-2 4.1-2 2.3 0 3.5 1.1 3.5 3.2v.5c0 .2-.1.4-.1.6 0 .2-.1.4-.1.6s-.1.3-.1.4l-1.5 6.9h-3.3l1.4-6.9c0-.2.1-.4.1-.7.1-.3.1-.5.1-.7 0-.4-.2-.6-.5-.9-.3-.2-.7-.3-1.1-.3-.5 0-.9.1-1.3.3-.4.2-.7.4-1 .7-.3.3-.5.7-.7 1.1-.2.4-.3.8-.4 1.2l-1.3 6.3h-3.2l2.5-11.9h3.3zM200.5 65c.4-.5.8-.9 1.3-1.2s1.1-.5 1.7-.7 1.3-.2 1.9-.2c.5 0 1.1 0 1.7.1.6.1 1.1.2 1.6.4s.9.5 1.2.9c.3.4.5.9.4 1.6 0 .6-.1 1.2-.3 2l-1.1 4.8c-.1.2-.1.5-.1.8v.8c0 .2 0 .4.1.7h-3.3v-1c-.4.5-1 .9-1.6 1.1-.6.2-1.3.4-2 .4-.6 0-1.2-.1-1.7-.3s-.9-.4-1.2-.7c-.3-.3-.6-.6-.7-1-.2-.4-.2-.8-.2-1.2 0-1.1.4-2.1 1.2-2.8s1.9-1.1 3.3-1.3c.8-.1 1.4-.2 2-.2.6 0 1-.1 1.4-.2.4-.1.7-.2.8-.4s.3-.5.3-.9c0-.3-.1-.6-.2-.7-.1-.2-.3-.3-.5-.4s-.4-.2-.7-.2c-.2 0-.5-.1-.7-.1-.6 0-1.1.1-1.6.4-.5.3-.7.7-.8 1.3h-3c.3-.7.5-1.3.8-1.8zm4.9 4.9c-.5.1-.9.1-1.4.1-.3 0-.6.1-.9.1s-.5.2-.8.3c-.2.1-.4.3-.5.6-.1.2-.2.5-.2.9s.2.8.5 1c.4.2.8.3 1.2.3.5 0 .9-.1 1.3-.2l.9-.6c.2-.3.4-.5.6-.9.1-.3.3-.6.3-1l.3-1.1c-.4.3-.8.4-1.3.5zM221.6 76.8c-.3.6-.8 1.2-1.3 1.6s-1.2.7-1.9.9c-.7.2-1.6.3-2.6.3-.6 0-1.2-.1-1.8-.2s-1.1-.4-1.6-.7c-.5-.3-.9-.7-1.2-1.2s-.4-1.1-.4-1.8h3.2c0 .3 0 .6.2.8.1.2.3.4.5.5.2.1.4.2.7.3.3.1.5.1.8.1.5 0 1-.1 1.3-.3.3-.2.6-.5.9-.9.2-.4.5-.8.6-1.3.2-.5.3-1 .5-1.6-.8 1.1-1.9 1.7-3.3 1.7-.7 0-1.3-.1-1.9-.3-.6-.2-1-.6-1.4-1s-.7-.9-.9-1.5c-.2-.6-.3-1.2-.3-2 0-.9.1-1.7.4-2.6.3-.8.7-1.6 1.2-2.3.5-.7 1.1-1.2 1.9-1.7s1.6-.6 2.5-.6c.8 0 1.6.2 2.2.5.6.3 1.1.9 1.4 1.7l.4-1.8h3.1l-2.4 11.2c-.2.8-.5 1.6-.8 2.2zm-4.9-11c-.4.3-.8.7-1 1.1-.3.4-.5.9-.6 1.4-.1.5-.2 1-.2 1.5 0 .4 0 .7.1 1 .1.3.2.6.4.8.2.2.4.4.7.6.3.1.6.2 1 .2.6 0 1.1-.1 1.5-.4s.8-.6 1.1-1.1c.3-.4.5-.9.6-1.5.1-.5.2-1.1.2-1.6 0-.7-.2-1.4-.6-1.8-.4-.5-1-.7-1.8-.7-.5.1-1 .3-1.4.5zM230.3 63.3l-2.5 11.9h-3.3l2.5-11.9h3.3zm-2.9-1.9l.6-2.7h3.3l-.6 2.7h-3.3zM235.6 63.3l-.4 1.7c1.1-1.3 2.4-2 4.1-2 2.3 0 3.5 1.1 3.5 3.2v.5c0 .2-.1.4-.1.6 0 .2-.1.4-.1.6s-.1.3-.1.4l-1.5 6.9h-3.3l1.4-6.9c0-.2.1-.4.1-.7.1-.3.1-.5.1-.7 0-.4-.2-.6-.5-.9-.3-.2-.7-.3-1.1-.3-.5 0-.9.1-1.3.3-.4.2-.7.4-1 .7-.3.3-.5.7-.7 1.1-.2.4-.3.8-.4 1.2l-1.3 6.3h-3l2.5-11.9h3.1zM254.2 76.8c-.3.6-.8 1.2-1.3 1.6s-1.2.7-1.9.9c-.7.2-1.6.3-2.6.3-.6 0-1.2-.1-1.8-.2s-1.1-.4-1.6-.7c-.5-.3-.9-.7-1.2-1.2s-.4-1.1-.4-1.8h3.2c0 .3 0 .6.2.8.1.2.3.4.5.5.2.1.4.2.7.3.3.1.5.1.8.1.5 0 1-.1 1.3-.3.3-.2.6-.5.9-.9.2-.4.5-.8.6-1.3.2-.5.3-1 .5-1.6-.8 1.1-1.9 1.7-3.3 1.7-.7 0-1.3-.1-1.9-.3-.6-.2-1-.6-1.4-1s-.7-.9-.9-1.5c-.2-.6-.3-1.2-.3-2 0-.9.1-1.7.4-2.6.3-.8.7-1.6 1.2-2.3.5-.7 1.1-1.2 1.9-1.7s1.6-.6 2.5-.6c.8 0 1.6.2 2.2.5.6.3 1.1.9 1.4 1.7l.4-1.8h3.1L255 74.5c-.2.9-.5 1.7-.8 2.3zm-4.9-11c-.4.3-.8.7-1 1.1-.3.4-.5.9-.6 1.4-.1.5-.2 1-.2 1.5 0 .4 0 .7.1 1 .1.3.2.6.4.8.2.2.4.4.7.6.3.1.6.2 1 .2.6 0 1.1-.1 1.5-.4s.8-.6 1.1-1.1c.3-.4.5-.9.6-1.5.1-.5.2-1.1.2-1.6 0-.7-.2-1.4-.6-1.8-.4-.5-1-.7-1.8-.7-.5.1-1 .3-1.4.5z"/></g><g><path d="M68.2 84.7L64.7 101h-3.2L65 84.7h3.2zM72.8 89.2L70.3 101H67l2.5-11.9h3.3zm-2.9-1.8l.6-2.7h3.3l-.6 2.7h-3.3zM73.3 91.4l.5-2.2h1.9c.2-.8.3-1.4.5-2s.4-1.1.8-1.5.7-.7 1.3-.9c.5-.2 1.2-.3 2.1-.3h1.1c.4 0 .7.1 1.1.1l-.5 2.3h-1c-.4 0-.7 0-.9.1-.2.1-.4.2-.5.4-.1.2-.2.4-.3.7-.1.3-.1.6-.2.9h2.3l-.5 2.2h-2.3l-2 9.7h-3.3l2-9.7h-2.1zM83.7 96.1v.5c0 .7.2 1.2.6 1.7.4.4 1.1.6 2 .6.3 0 .6 0 .9-.1.3-.1.5-.2.7-.4.2-.2.4-.3.5-.5.1-.2.3-.4.4-.6H92c-.3.7-.6 1.3-.9 1.8-.4.5-.8.9-1.3 1.3-.5.3-1.1.6-1.7.8s-1.4.3-2.3.3c-.8 0-1.5-.1-2.2-.3-.6-.2-1.2-.5-1.7-1s-.8-1-1.1-1.6c-.3-.6-.4-1.4-.4-2.2 0-.9.2-1.9.5-2.7.3-.9.7-1.7 1.3-2.3.6-.7 1.2-1.2 2.1-1.6.8-.4 1.7-.6 2.7-.6.8 0 1.6.1 2.3.3s1.3.5 1.7 1 .9 1 1.1 1.6c.3.6.4 1.4.4 2.3 0 .6-.1 1.2-.2 1.9h-8.7c.1-.3.1-.3.1-.2zm5.8-3.2c-.1-.3-.2-.6-.3-.8-.2-.2-.4-.4-.7-.6-.3-.1-.7-.2-1.1-.2-.5 0-.9.1-1.2.2-.4.1-.7.3-.9.6-.3.2-.5.5-.7.8-.2.3-.3.6-.4 1h5.4c-.1-.4-.1-.7-.1-1zM104.6 89.2l-2.5 11.9h-3.3l2.5-11.9h3.3zm-2.9-1.8l.6-2.7h3.3l-.6 2.7h-3.3zM109.9 89.2l-.4 1.7c1.1-1.3 2.4-2 4.1-2 2.3 0 3.5 1.1 3.5 3.2v.5c0 .2-.1.4-.1.6s-.1.4-.1.6c0 .2-.1.3-.1.4l-1.5 6.9H112l1.4-6.9c0-.2.1-.4.1-.7.1-.3.1-.5.1-.7 0-.4-.2-.6-.5-.9-.3-.2-.7-.3-1.1-.3-.5 0-.9.1-1.3.3-.4.2-.7.4-1 .7-.3.3-.5.7-.7 1.1s-.3.8-.4 1.2l-1.3 6.3h-3.2l2.5-11.9h3.3zM125.7 91.5c-.3-.3-.7-.4-1.4-.4-.6 0-1.1.1-1.4.3-.4.2-.6.5-.6.9 0 .3.1.5.3.7.2.2.6.4 1.2.5l1.6.5c.4.1.9.3 1.2.5.4.2.7.4 1 .7.3.3.5.6.7 1 .2.4.2.8.2 1.3 0 .7-.2 1.4-.5 1.9s-.8.9-1.3 1.2c-.5.3-1.1.6-1.8.7-.7.1-1.4.2-2 .2-.6 0-1.2-.1-1.8-.2-.6-.1-1.1-.3-1.6-.6s-.9-.7-1.2-1.1c-.3-.5-.5-1.1-.5-1.8v-.5h3v.4c0 .3.1.5.2.7.1.2.3.4.5.5.2.1.5.2.8.3s.6.1.8.1c.2 0 .5 0 .7-.1.2 0 .5-.1.7-.2.2-.1.4-.3.5-.4.1-.2.2-.4.2-.7 0-.4-.1-.7-.3-.9-.2-.2-.5-.3-.8-.4l-2.5-.8c-.4-.1-.8-.3-1.1-.4-.3-.2-.6-.3-.8-.6-.2-.2-.4-.5-.5-.8s-.2-.7-.2-1.2c0-.7.2-1.3.5-1.8s.8-.9 1.3-1.2c.5-.3 1.1-.5 1.7-.6.6-.1 1.2-.2 1.8-.2.6 0 1.3.1 1.9.2.6.1 1.1.3 1.6.6s.8.7 1.1 1.2c.3.5.4 1.1.4 1.9h-3c-.1-.8-.3-1.2-.6-1.4zM137.4 101l.4-1.7c-1.1 1.3-2.4 1.9-4.1 1.9-2.3 0-3.5-1.1-3.5-3.2v-.5c0-.2.1-.4.1-.6 0-.2.1-.4.1-.6 0-.2.1-.3.1-.4L132 89h3.3l-1.4 6.9c0 .1-.1.2-.1.3 0 .1 0 .3-.1.4v.7c0 .4.2.6.5.9.3.2.7.3 1.1.3.5 0 .9-.1 1.3-.3.4-.2.7-.4 1-.7.3-.3.5-.7.7-1.1.2-.4.3-.8.4-1.2l1.3-6.3h3.3l-2.5 11.9h-3.4zM148.4 89.2l-.5 2.1c.4-.8.9-1.4 1.7-1.9s1.5-.6 2.4-.6c.3 0 .7 0 1 .1l-.7 3.2c-.2 0-.5-.1-.7-.1-.2 0-.5-.1-.7-.1-.6 0-1.2.1-1.6.3s-.8.5-1.1.9c-.3.4-.5.8-.7 1.2-.2.5-.3 1-.4 1.5L146 101h-3.2l2.5-11.9h3.1zM153.7 90.9c.4-.5.8-.9 1.3-1.2s1.1-.5 1.7-.7 1.3-.2 1.9-.2c.5 0 1.1 0 1.7.1.6.1 1.1.2 1.6.4s.9.5 1.2.9c.3.4.5.9.4 1.6 0 .6-.1 1.2-.3 2l-1.1 4.8c-.1.2-.1.5-.1.8v.8c0 .2 0 .4.1.7h-3.3v-1.2c-.4.5-1 .9-1.6 1.1-.6.2-1.3.4-2 .4-.6 0-1.2-.1-1.7-.3s-.9-.4-1.2-.7c-.3-.3-.6-.6-.7-1-.2-.4-.2-.8-.2-1.2 0-1.1.4-2.1 1.2-2.8s1.9-1.1 3.3-1.3c.8-.1 1.4-.2 2-.2.6 0 1-.1 1.4-.2.4-.1.7-.2.8-.4s.3-.5.3-.9c0-.3-.1-.6-.2-.7-.1-.2-.3-.3-.5-.4s-.4-.2-.7-.2c-.2 0-.5-.1-.7-.1-.6 0-1.1.1-1.6.4-.5.3-.7.7-.8 1.3h-3c.2-.5.4-1.1.8-1.6zm4.8 4.9c-.5.1-.9.1-1.4.1-.3 0-.6.1-.9.1s-.5.2-.8.3c-.2.1-.4.3-.5.6-.1.2-.2.5-.2.9s.2.8.5 1c.4.2.8.3 1.2.3.5 0 .9-.1 1.3-.2l.9-.6c.2-.3.4-.5.6-.9.1-.3.3-.6.3-1l.3-1.1c-.4.3-.8.4-1.3.5zM169.6 89.2l-.4 1.7c1.1-1.3 2.4-2 4.1-2 2.3 0 3.5 1.1 3.5 3.2v.5c0 .2-.1.4-.1.6 0 .2-.1.4-.1.6s-.1.3-.1.4l-1.5 6.9h-3.3l1.4-6.9c0-.2.1-.4.1-.7.1-.3.1-.5.1-.7 0-.4-.2-.6-.5-.9-.3-.2-.7-.3-1.1-.3-.5 0-.9.1-1.3.3-.4.2-.7.4-1 .7-.3.3-.5.7-.7 1.1-.2.4-.3.8-.4 1.2l-1.3 6.3h-3.2l2.5-11.9h3.3zM186.3 91.8c-.4-.3-.9-.5-1.6-.5-.6 0-1.1.2-1.6.5s-.8.7-1 1.2-.4 1.1-.6 1.6c-.1.6-.2 1.1-.2 1.6 0 .4 0 .7.1 1 .1.3.2.6.4.8.2.2.4.4.7.5.3.1.6.2 1 .2s.7-.1 1-.2c.3-.1.5-.3.8-.5.2-.2.4-.4.5-.7.1-.3.3-.5.4-.8h3.3c-.5 1.5-1.2 2.6-2.3 3.4-1 .8-2.3 1.2-3.9 1.2-1.7 0-3-.4-3.9-1.2-.9-.8-1.4-2.1-1.4-3.8 0-1 .1-2 .4-2.9.3-.9.7-1.7 1.3-2.4.6-.7 1.3-1.2 2.1-1.6s1.8-.6 2.8-.6c.7 0 1.4.1 2 .3.6.2 1.2.4 1.7.8s.9.8 1.1 1.4c.3.6.4 1.2.4 2h-3.3c.4-.5.2-1-.2-1.3zM193.5 96.1v.5c0 .7.2 1.2.6 1.7.4.4 1.1.6 2 .6.3 0 .6 0 .9-.1.3-.1.5-.2.7-.4.2-.2.4-.3.5-.5.1-.2.3-.4.4-.6h3.3c-.3.7-.6 1.3-.9 1.8-.4.5-.8.9-1.3 1.3s-1.1.6-1.7.8c-.7.2-1.4.3-2.3.3-.8 0-1.5-.1-2.2-.3s-1.2-.5-1.7-1c-.5-.4-.8-1-1.1-1.6-.3-.6-.4-1.4-.4-2.2 0-.9.2-1.9.5-2.7.3-.9.7-1.7 1.3-2.3.6-.7 1.2-1.2 2.1-1.6.8-.4 1.7-.6 2.7-.6.8 0 1.6.1 2.3.3.7.2 1.3.5 1.7 1s.9 1 1.1 1.6c.3.6.4 1.4.4 2.3 0 .6-.1 1.2-.2 1.9h-8.7v-.2zm5.7-3.2c-.1-.3-.2-.6-.3-.8-.2-.2-.4-.4-.7-.6-.3-.1-.7-.2-1.1-.2-.5 0-.9.1-1.2.2-.4.1-.7.3-.9.6s-.5.5-.7.8c-.2.3-.3.6-.4 1h5.4c0-.4 0-.7-.1-1zM209.3 91.4l.5-2.2h1.9c.2-.8.3-1.4.5-2 .2-.6.4-1.1.8-1.5s.7-.7 1.3-.9c.5-.2 1.2-.3 2.1-.3h1.1c.4 0 .7.1 1.1.1l-.5 2.3h-1c-.4 0-.7 0-.9.1-.2.1-.4.2-.5.4-.1.2-.2.4-.3.7-.1.3-.1.6-.2.9h2.3l-.5 2.2h-2.3l-2 9.7h-3.3l2-9.7h-2.1zM217.1 93.4c.3-.9.8-1.7 1.4-2.3.6-.7 1.3-1.2 2.1-1.6.8-.4 1.8-.6 2.8-.6.8 0 1.6.1 2.2.3.7.2 1.3.5 1.8.9s.9.9 1.1 1.6c.3.6.4 1.4.4 2.2 0 1-.2 2-.5 2.9-.3.9-.8 1.7-1.4 2.4-.6.7-1.3 1.2-2.2 1.6-.8.4-1.8.6-2.9.6-1.7 0-3-.4-4-1.3-1-.8-1.5-2.1-1.5-3.8.3-1.1.4-2 .7-2.9zm3 3.9c.1.3.2.6.4.8.2.2.4.4.7.6.3.1.6.2 1 .2.6 0 1.1-.2 1.6-.5s.8-.7 1.1-1.2c.3-.5.5-1 .6-1.6.1-.6.2-1.1.2-1.6 0-.8-.2-1.4-.5-1.9-.4-.5-1-.7-1.8-.7-.6 0-1.1.2-1.5.5s-.8.7-1.1 1.2-.5 1-.6 1.6c-.1.6-.2 1.1-.2 1.6-.1.3 0 .6.1 1zM234.9 89.2l-.5 2.1c.4-.8.9-1.4 1.7-1.9s1.5-.6 2.4-.6c.3 0 .7 0 1 .1l-.7 3.2c-.2 0-.5-.1-.7-.1-.2 0-.5-.1-.7-.1-.6 0-1.2.1-1.6.3s-.8.5-1.1.9c-.3.4-.5.8-.7 1.2-.2.5-.3 1-.4 1.5l-1.1 5.2h-3.2l2.5-11.9h3.1z"/></g><g><path d="M71.9 125.4c-.4.6-.9 1.1-1.5 1.4-.6.3-1.3.4-2.1.4-1.4 0-2.5-.4-3.3-1.2s-1.2-2-1.2-3.4c0-1 .1-1.9.4-2.9.3-.9.7-1.8 1.2-2.5s1.2-1.3 2-1.8 1.8-.7 2.9-.7c.7 0 1.3.2 2 .5.6.3 1.1.8 1.3 1.4l1.3-6.1h3.3l-3.5 16.4h-3.1l.3-1.5zm-2.8-7.7c-.5.3-.8.7-1.1 1.2-.3.5-.5 1-.6 1.6-.1.6-.2 1.1-.2 1.7 0 .4 0 .7.1 1 .1.3.2.6.4.8.2.2.4.4.7.6.3.1.6.2 1 .2.6 0 1.1-.2 1.6-.5.4-.3.8-.7 1.1-1.2.3-.5.5-1.1.7-1.6.1-.6.2-1.1.2-1.6 0-.8-.2-1.4-.6-1.9s-1-.7-1.8-.7c-.5-.1-1.1.1-1.5.4zM80.5 122v.5c0 .7.2 1.2.6 1.7.4.4 1.1.6 2 .6.3 0 .6 0 .9-.1.3-.1.5-.2.7-.4.2-.2.4-.3.5-.5.1-.2.3-.4.4-.6h3.3c-.3.7-.6 1.3-.9 1.8-.4.5-.8.9-1.3 1.3-.5.3-1.1.6-1.7.8s-1.4.3-2.3.3c-.8 0-1.5-.1-2.2-.3-.6-.2-1.2-.5-1.7-1s-.8-1-1.1-1.6c-.3-.6-.4-1.4-.4-2.2 0-.9.2-1.9.5-2.7.3-.9.7-1.7 1.3-2.3.6-.7 1.2-1.2 2.1-1.6.8-.4 1.7-.6 2.7-.6.8 0 1.6.1 2.3.3s1.3.5 1.7 1 .9 1 1.1 1.6c.3.6.4 1.4.4 2.3 0 .6-.1 1.2-.2 1.9h-8.7v-.2zm5.8-3.2c-.1-.3-.2-.6-.3-.8-.2-.2-.4-.4-.7-.6-.3-.1-.7-.2-1.1-.2-.5 0-.9.1-1.2.2-.4.1-.7.3-.9.6-.3.2-.5.5-.7.8-.2.3-.3.6-.4 1h5.4c-.1-.4-.1-.7-.1-1zM95.2 115.1l-.4 1.7c1.1-1.3 2.4-2 4.1-2 2.3 0 3.5 1.1 3.5 3.2v.5c0 .2-.1.4-.1.6s-.1.4-.1.6c0 .2-.1.3-.1.4l-1.5 6.9h-3.3l1.4-6.9c0-.2.1-.4.1-.7.1-.3.1-.5.1-.7 0-.4-.2-.6-.5-.9-.3-.2-.7-.3-1.1-.3-.5 0-.9.1-1.3.3-.4.2-.7.4-1 .7-.3.3-.5.7-.7 1.1s-.3.8-.4 1.2l-1.3 6.3h-3.2l2.5-11.9h3.3zM112.2 115.1l-.5 2.2h-2.3l-1.2 5.9c0 .1-.1.2-.1.3v.2c0 .2 0 .4.1.5l.3.3c.1.1.2.1.4.1h.4c.4 0 .8 0 1.2-.1l-.6 2.5c-.3 0-.7.1-1 .1h-1c-.4 0-.8 0-1.1-.1-.4-.1-.7-.2-1-.4-.3-.2-.5-.4-.7-.7-.2-.3-.3-.7-.2-1.2v-.5c0-.2.1-.4.1-.6l1.3-6.3H104l.5-2.2h2.1l.7-3.6h3.3l-.7 3.6h2.3zM117 115.1l-2.5 11.9h-3.3l2.5-11.9h3.3zm-2.9-1.8l.6-2.7h3.3l-.6 2.7h-3.3zM124.6 117.4c-.3-.3-.7-.4-1.4-.4-.6 0-1.1.1-1.4.3-.4.2-.6.5-.6.9 0 .3.1.5.3.7.2.2.6.4 1.2.5l1.6.5c.4.1.9.3 1.2.5.4.2.7.4 1 .7.3.3.5.6.7 1 .2.4.2.8.2 1.3 0 .7-.2 1.4-.5 1.9s-.8.9-1.3 1.2c-.5.3-1.1.5-1.8.7-.7.1-1.4.2-2 .2-.6 0-1.2-.1-1.8-.2-.6-.1-1.1-.3-1.6-.6s-.9-.7-1.2-1.1c-.3-.5-.5-1.1-.5-1.8v-.5h3v.4c0 .3.1.5.2.7.1.2.3.4.5.5.2.1.5.2.8.3s.6.1.8.1c.2 0 .5 0 .7-.1.2 0 .5-.1.7-.2.2-.1.4-.3.5-.4.1-.2.2-.4.2-.7 0-.4-.1-.7-.3-.9-.2-.2-.5-.3-.8-.4l-2.5-.8c-.4-.1-.8-.3-1.1-.4-.3-.2-.6-.3-.8-.6-.2-.2-.4-.5-.5-.8s-.2-.7-.2-1.2c0-.7.2-1.3.5-1.8s.8-.9 1.3-1.2c.5-.3 1.1-.5 1.7-.6.6-.1 1.2-.2 1.8-.2.6 0 1.3.1 1.9.2.6.1 1.1.3 1.6.6s.8.7 1.1 1.2c.3.5.4 1.1.4 1.9h-3c-.1-.8-.3-1.1-.6-1.4zM137.2 115.1l-.5 2.2h-2.3l-1.2 5.9c0 .1-.1.2-.1.3v.2c0 .2 0 .4.1.5l.3.3c.1.1.2.1.4.1h.4c.4 0 .8 0 1.2-.1l-.6 2.5c-.3 0-.7.1-1 .1h-1c-.4 0-.8 0-1.1-.1-.4-.1-.7-.2-1-.4-.3-.2-.5-.4-.7-.7-.2-.3-.3-.7-.2-1.2v-.5c0-.2.1-.4.1-.6l1.3-6.3H129l.5-2.2h2.1l.7-3.6h3.3l-.7 3.6h2.3zM144.1 117.4c-.3-.3-.7-.4-1.4-.4-.6 0-1.1.1-1.4.3-.4.2-.6.5-.6.9 0 .3.1.5.3.7.2.2.6.4 1.2.5l1.6.5c.4.1.9.3 1.2.5.4.2.7.4 1 .7.3.3.5.6.7 1 .2.4.2.8.2 1.3 0 .7-.2 1.4-.5 1.9s-.8.9-1.3 1.2c-.5.3-1.1.5-1.8.7-.7.1-1.4.2-2 .2-.6 0-1.2-.1-1.8-.2-.6-.1-1.1-.3-1.6-.6s-.9-.7-1.2-1.1c-.3-.5-.5-1.1-.5-1.8v-.5h3v.4c0 .3.1.5.2.7.1.2.3.4.5.5.2.1.5.2.8.3s.6.1.8.1c.2 0 .5 0 .7-.1.2 0 .5-.1.7-.2.2-.1.4-.3.5-.4s.2-.4.2-.7c0-.4-.1-.7-.3-.9s-.5-.3-.8-.4l-2.5-.8c-.4-.1-.8-.3-1.1-.4-.3-.2-.6-.3-.8-.6-.2-.2-.4-.5-.5-.8s-.2-.7-.2-1.2c0-.7.2-1.3.5-1.8s.8-.9 1.3-1.2c.5-.3 1.1-.5 1.7-.6.6-.1 1.2-.2 1.8-.2.6 0 1.3.1 1.9.2.6.1 1.1.3 1.6.6s.8.7 1.1 1.2c.3.5.4 1.1.4 1.9h-3c-.2-.8-.3-1.1-.6-1.4zM154.6 119.3c.3-.9.8-1.7 1.4-2.3.6-.7 1.3-1.2 2.1-1.6.8-.4 1.8-.6 2.8-.6.8 0 1.6.1 2.2.3.7.2 1.3.5 1.8.9s.9.9 1.1 1.6c.3.6.4 1.4.4 2.2 0 1-.2 2-.5 2.9-.3.9-.8 1.7-1.4 2.4-.6.7-1.3 1.2-2.2 1.6-.8.4-1.8.6-2.9.6-1.7 0-3-.4-4-1.3-1-.8-1.5-2.1-1.5-3.8.2-1.1.3-2 .7-2.9zm2.9 3.9c.1.3.2.6.4.8.2.2.4.4.7.6.3.1.6.2 1 .2.6 0 1.1-.2 1.6-.5s.8-.7 1.1-1.2c.3-.5.5-1 .6-1.6.1-.6.2-1.1.2-1.6 0-.8-.2-1.4-.5-1.9-.4-.5-1-.7-1.8-.7-.6 0-1.1.2-1.5.5s-.8.7-1.1 1.2-.5 1-.6 1.6c-.1.6-.2 1.1-.2 1.6-.1.3 0 .6.1 1zM169.3 126.9l-1.6-11.9h3.3l.7 8.4 4.2-8.4h3.4l-6.5 11.9h-3.5zM181.8 122v.5c0 .7.2 1.2.6 1.7.4.4 1.1.6 2 .6.3 0 .6 0 .9-.1.3-.1.5-.2.7-.4.2-.2.4-.3.5-.5.1-.2.3-.4.4-.6h3.3c-.3.7-.6 1.3-.9 1.8-.4.5-.8.9-1.3 1.3s-1.1.6-1.7.8c-.7.2-1.4.3-2.3.3-.8 0-1.5-.1-2.2-.3-.6-.2-1.2-.5-1.7-1-.5-.4-.8-1-1.1-1.6-.3-.6-.4-1.4-.4-2.2 0-.9.2-1.9.5-2.7.3-.9.7-1.7 1.3-2.3.6-.7 1.2-1.2 2.1-1.6.8-.4 1.7-.6 2.7-.6.8 0 1.6.1 2.3.3.7.2 1.3.5 1.7 1s.9 1 1.1 1.6c.3.6.4 1.4.4 2.3 0 .6-.1 1.2-.2 1.9h-8.7v-.2zm5.7-3.2c-.1-.3-.2-.6-.3-.8-.2-.2-.4-.4-.7-.6-.3-.1-.7-.2-1.1-.2-.5 0-.9.1-1.2.2-.4.1-.7.3-.9.6s-.5.5-.7.8c-.2.3-.3.6-.4 1h5.4c0-.4 0-.7-.1-1zM196.5 115.1l-.5 2.1c.4-.8.9-1.4 1.7-1.9s1.5-.6 2.4-.6c.3 0 .7 0 1 .1l-.7 3.2c-.2 0-.5-.1-.7-.1-.2 0-.5-.1-.7-.1-.6 0-1.2.1-1.6.3s-.8.5-1.1.9c-.3.4-.5.8-.7 1.2-.2.5-.3 1-.4 1.5l-1.1 5.2h-3.2l2.5-11.9h3.1zM218 120.5l-.6 2.7h-2.1l-.8 3.7h-3.1l.8-3.7h-7.4l.6-3 9.4-9.4h3.2l-2 9.7h2zm-3.9-6.1l-6.1 6.2h4.8l1.3-6.2z"/><path d="M218 118.7c.1-.8.3-1.6.6-2.4.3-.8.6-1.5 1-2.2.4-.7.9-1.3 1.5-1.8s1.2-.9 1.9-1.2c.7-.3 1.5-.5 2.3-.5.9 0 1.7.1 2.4.4.7.3 1.2.7 1.7 1.2.4.5.8 1.2 1 1.9.2.7.3 1.6.3 2.5 0 .8-.1 1.6-.2 2.4s-.3 1.6-.6 2.4c-.3.8-.6 1.5-1.1 2.2s-.9 1.3-1.5 1.8-1.2.9-2 1.2-1.6.5-2.5.5c-.9 0-1.7-.2-2.3-.5-.6-.3-1.2-.8-1.6-1.3-.4-.6-.7-1.2-.9-2s-.3-1.5-.3-2.3c.1-.7.2-1.5.3-2.3zm3.1 4.1c.1.3.2.6.4.9.2.3.4.5.7.6.3.2.7.2 1.1.2.5 0 1-.2 1.5-.5.4-.3.8-.7 1.1-1.2.3-.5.6-1.1.8-1.7.2-.6.4-1.3.5-1.9l.3-1.8c.1-.6.1-1 .1-1.4 0-.4 0-.8-.1-1.1s-.2-.7-.4-.9c-.2-.3-.4-.5-.7-.6-.3-.2-.7-.2-1.1-.2-.5 0-1 .2-1.4.5-.4.3-.8.7-1.1 1.2s-.6 1.1-.8 1.7-.4 1.3-.5 1.9l-.3 1.8c-.1.6-.1 1-.1 1.4-.1.4 0 .8 0 1.1zM234.3 123.4l-.8 3.5h-3.6l.7-3.5h3.7z"/></g></svg>