<svg id="Layer_1" xmlns="http://www.w3.org/2000/svg" viewBox="0 0 300 250"><style>.st0{fill:#231f20}</style><path class="st0" d="M27.2 68.8L31 80l3.6-11.3h5.1v16.4h-3.4V73.5l-4 11.6h-2.8l-4-11.5v11.5h-3.4V68.8h5.1zM42.3 76.9c0-.8.2-1.4.6-1.9.3-.5.8-.9 1.3-1.2s1.1-.5 1.8-.7 1.3-.2 2-.2c.6 0 1.2 0 1.8.1s1.2.2 1.7.5c.5.2.9.6 1.2 1 .3.4.5 1 .5 1.7v6.2c0 .5 0 1 .1 1.5s.2.9.3 1.1h-3.3c-.1-.2-.1-.4-.1-.6 0-.2-.1-.4-.1-.6-.5.5-1.1.9-1.8 1.1-.7.2-1.4.3-2.2.3-.6 0-1.1-.1-1.6-.2s-.9-.4-1.3-.6c-.4-.3-.7-.7-.9-1.1-.2-.4-.3-1-.3-1.6 0-.7.1-1.2.4-1.7.2-.4.5-.8.9-1 .4-.3.8-.5 1.3-.6l1.5-.3c.5-.1 1-.1 1.4-.2.5 0 .9-.1 1.3-.2s.7-.2.9-.4c.2-.2.3-.4.3-.8s-.1-.6-.2-.8c-.1-.2-.3-.4-.5-.5-.2-.1-.4-.2-.7-.2-.3 0-.5-.1-.8-.1-.6 0-1.1.1-1.5.4-.4.3-.6.7-.6 1.4h-3.4zm7.5 2.4c-.1.1-.3.2-.5.3-.2.1-.4.1-.7.2-.2 0-.5.1-.7.1-.3 0-.5.1-.8.1-.2 0-.5.1-.7.2l-.6.3c-.2.1-.3.3-.4.5s-.2.5-.2.8c0 .3.1.5.2.7.1.2.3.4.4.5.2.1.4.2.6.2.2 0 .5.1.8.1.6 0 1.1-.1 1.5-.3.4-.2.6-.5.8-.8.2-.3.3-.6.3-.9s.1-.6.1-.7v-1.3zM59.1 68.8v8.8l4.1-4.3H67l-4.5 4.4 5 7.5h-3.9l-3.3-5.3-1.2 1.1v4.1h-3.3V68.8h3.3zM68.7 71.4v-2.7H72v2.7h-3.3zm3.2 1.9v11.9h-3.3V73.3h3.3zM77.5 73.3V75h.1c.4-.7.9-1.2 1.6-1.5.7-.3 1.3-.5 2-.5.9 0 1.6.1 2.1.4.6.2 1 .6 1.3 1s.5.9.7 1.5c.1.6.2 1.3.2 2v7.3h-3.3v-6.7c0-1-.2-1.7-.5-2.2-.3-.5-.8-.7-1.6-.7-.9 0-1.5.3-1.9.8s-.6 1.4-.6 2.6v6.2h-3.3V73.3h3.2zM99.1 86c-.1.6-.4 1.2-.8 1.7s-1 1-1.9 1.3-1.9.6-3.3.6c-.6 0-1.2-.1-1.8-.2-.6-.1-1.2-.4-1.7-.7-.5-.3-.9-.7-1.2-1.2s-.5-1.1-.6-1.7H91c.2.6.5 1 .9 1.3.4.2 1 .4 1.5.4.9 0 1.6-.3 2-.8.4-.6.6-1.2.6-2.1V83c-.4.6-.9 1.1-1.5 1.4-.6.3-1.3.4-2.1.4-.9 0-1.7-.2-2.3-.5-.6-.3-1.2-.7-1.6-1.3-.4-.5-.7-1.2-.9-1.9-.2-.7-.3-1.5-.3-2.3 0-.8.1-1.5.3-2.2.2-.7.5-1.3 1-1.9.4-.5 1-1 1.6-1.3.6-.3 1.4-.5 2.2-.5.8 0 1.5.1 2.1.4.6.3 1.1.8 1.5 1.5v-1.6h3.1v11.1c.2.5.1 1.1 0 1.7zm-4.5-4c.4-.2.6-.4.9-.7.2-.3.4-.7.5-1 .1-.4.2-.8.2-1.2 0-.5 0-1-.1-1.4s-.2-.8-.5-1.2c-.2-.3-.5-.6-.8-.8-.4-.2-.8-.3-1.3-.3s-.9.1-1.2.3c-.3.2-.6.4-.8.7-.2.3-.4.7-.5 1.1-.1.4-.1.8-.1 1.3 0 .4 0 .9.1 1.3s.2.8.4 1.1c.2.3.5.6.8.8.3.2.8.3 1.3.3.4 0 .8-.1 1.1-.3zM110.8 82.2c.1.3.3.5.6.6.2.2.5.3.8.4s.6.1.9.1c.2 0 .5 0 .7-.1.3-.1.5-.1.7-.3.2-.1.4-.3.5-.5s.2-.4.2-.7c0-.5-.3-.9-1-1.1-.6-.2-1.6-.5-2.7-.7-.5-.1-.9-.2-1.4-.4-.5-.1-.9-.3-1.2-.6-.4-.2-.6-.5-.8-.9-.2-.4-.3-.8-.3-1.3 0-.8.1-1.4.4-1.9.3-.5.7-.9 1.2-1.2.5-.3 1-.5 1.7-.6.6-.1 1.2-.2 1.9-.2.6 0 1.3.1 1.9.2.6.1 1.1.3 1.6.6s.9.7 1.2 1.2c.3.5.5 1.1.6 1.8H115c0-.6-.3-1.1-.7-1.3-.4-.2-.9-.3-1.5-.3h-.6c-.2 0-.4.1-.6.1-.2.1-.3.2-.4.3-.1.1-.2.3-.2.6s.1.5.3.7c.2.2.5.3.8.4.3.1.7.2 1.2.3.4.1.9.2 1.4.3.5.1.9.2 1.4.4.5.2.9.4 1.2.6.4.3.6.6.8.9s.3.8.3 1.4c0 .8-.2 1.4-.5 2-.3.5-.7 1-1.2 1.3-.5.3-1.1.5-1.7.7-.6.1-1.3.2-2 .2s-1.4-.1-2-.2c-.7-.1-1.2-.4-1.8-.7-.5-.3-.9-.7-1.3-1.3-.3-.5-.5-1.2-.5-2h3.1c0 .6.1.9.3 1.2zM128.3 85.1v-1.7h-.1c-.4.7-.9 1.2-1.6 1.5-.7.3-1.3.5-2 .5-.9 0-1.6-.1-2.1-.3-.6-.2-1-.6-1.3-1s-.5-.9-.7-1.5c-.1-.6-.2-1.3-.2-2v-7.3h3.3V80c0 1 .2 1.7.5 2.2.3.5.8.7 1.6.7.9 0 1.5-.3 1.9-.8.4-.5.6-1.4.6-2.6v-6.2h3.3v11.9h-3.2zM136.8 73.3v2.2c.2-.4.4-.7.6-1 .3-.3.6-.6.9-.8.3-.2.7-.4 1.1-.5.4-.1.8-.2 1.2-.2.2 0 .5 0 .7.1v3c-.2 0-.3-.1-.5-.1h-.6c-.6 0-1.1.1-1.5.3-.4.2-.7.5-1 .8-.3.3-.4.7-.5 1.2s-.2 1-.2 1.5v5.3h-3.3V73.3h3.1zM145.6 82.3c.5.5 1.2.7 2.1.7.7 0 1.2-.2 1.7-.5s.8-.7.9-1h2.9c-.5 1.4-1.2 2.4-2.1 3-.9.6-2.1.9-3.4.9-.9 0-1.8-.1-2.5-.4-.7-.3-1.4-.7-1.9-1.3-.5-.5-.9-1.2-1.2-2-.3-.8-.4-1.6-.4-2.5 0-.9.1-1.7.4-2.5.3-.8.7-1.4 1.2-2 .5-.6 1.2-1 1.9-1.3.7-.3 1.6-.5 2.5-.5 1 0 1.9.2 2.6.6s1.4.9 1.8 1.6c.5.7.8 1.4 1 2.2.2.8.3 1.7.2 2.6h-8.5c.1 1.1.4 1.9.8 2.4zm3.7-6.3c-.4-.4-1-.6-1.8-.6-.5 0-1 .1-1.3.3-.3.2-.6.4-.8.7-.2.3-.4.5-.4.8-.1.3-.1.5-.1.8h5.3c-.2-.9-.5-1.5-.9-2zM165.9 88.6c-.6.4-1.5.6-2.6.6h-1c-.3 0-.7 0-1-.1v-2.7c.3 0 .6.1.9.1h1c.4 0 .7-.2 1-.5.2-.3.3-.6.3-1 0-.3 0-.5-.1-.7l-4.1-11.1h3.5l2.7 8.1 2.6-8.1h3.4l-5 13.3c-.5 1-1 1.7-1.6 2.1zM173.4 76.6c.3-.8.7-1.4 1.2-2 .5-.5 1.2-1 1.9-1.3s1.6-.4 2.5-.4c.9 0 1.8.1 2.5.4s1.4.7 1.9 1.3c.5.5.9 1.2 1.2 2 .3.8.4 1.6.4 2.6 0 .9-.1 1.8-.4 2.6s-.7 1.4-1.2 2c-.5.5-1.2 1-1.9 1.2s-1.6.4-2.5.4c-.9 0-1.8-.1-2.5-.4s-1.4-.7-1.9-1.2-.9-1.2-1.2-2-.4-1.6-.4-2.6c-.1-.9.1-1.8.4-2.6zm2.9 4c.1.5.2.9.5 1.2.2.4.5.6.9.9.4.2.8.3 1.4.3.6 0 1-.1 1.4-.3.4-.2.7-.5.9-.9.2-.4.4-.8.5-1.2.1-.5.1-.9.1-1.4s0-.9-.1-1.4-.2-.9-.5-1.2-.5-.6-.9-.9c-.4-.2-.8-.3-1.4-.3-.5 0-1 .1-1.4.3-.4.2-.7.5-.9.9s-.4.8-.5 1.2-.1.9-.1 1.4 0 .9.1 1.4zM195.2 85.1v-1.7h-.1c-.4.7-.9 1.2-1.6 1.5-.7.3-1.3.5-2 .5-.9 0-1.6-.1-2.1-.3-.6-.2-1-.6-1.3-1-.3-.4-.5-.9-.7-1.5-.1-.6-.2-1.3-.2-2v-7.3h3.3V80c0 1 .2 1.7.5 2.2.3.5.8.7 1.6.7.9 0 1.5-.3 1.9-.8.4-.5.6-1.4.6-2.6v-6.2h3.3v11.9h-3.2zM203.8 73.3v2.2c.2-.4.4-.7.6-1 .3-.3.6-.6.9-.8.3-.2.7-.4 1.1-.5.4-.1.8-.2 1.2-.2.2 0 .5 0 .7.1v3c-.2 0-.3-.1-.5-.1h-.6c-.6 0-1.1.1-1.5.3-.4.2-.7.5-1 .8-.3.3-.4.7-.5 1.2-.1.5-.2 1-.2 1.5v5.3h-3.3V73.3h3.1z"/><g><path class="st0" d="M25.1 94.7V111h-3.3V94.7h3.3zM27.7 97.3v-2.7H31v2.7h-3.3zm3.2 1.9V111h-3.3V99.2h3.3zM32.2 101.3v-2.2h1.9v-.9c0-1.1.3-1.9 1-2.6.7-.7 1.7-1 3-1h.9c.3 0 .6 0 .8.1v2.4c-.4 0-.8-.1-1.2-.1-.4 0-.8.1-1 .3-.2.2-.3.6-.3 1v.7h2.2v2.2h-2.2v9.7H34v-9.7h-1.8zM44.4 108.2c.5.5 1.2.7 2.1.7.7 0 1.2-.2 1.7-.5s.8-.7.9-1H52c-.5 1.4-1.2 2.4-2.1 3-.9.6-2.1.9-3.4.9-.9 0-1.8-.1-2.5-.4-.7-.3-1.4-.7-1.9-1.3-.5-.5-.9-1.2-1.2-2-.3-.8-.4-1.6-.4-2.5 0-.9.1-1.7.4-2.5.3-.8.7-1.4 1.2-2 .5-.6 1.2-1 1.9-1.3.7-.3 1.6-.5 2.5-.5 1 0 1.9.2 2.6.6.7.4 1.4.9 1.8 1.6.5.7.8 1.4 1 2.2.2.8.3 1.7.2 2.6h-8.6c.2 1.1.4 1.9.9 2.4zm3.7-6.3c-.4-.4-1-.6-1.8-.6-.5 0-1 .1-1.3.3s-.6.4-.8.7c-.2.3-.4.5-.4.8-.1.3-.1.5-.1.8H49c-.2-.9-.5-1.5-.9-2zM60.4 97.3v-2.7h3.3v2.7h-3.3zm3.2 1.9V111h-3.3V99.2h3.3zM69.2 99.2v1.7h.1c.4-.7.9-1.2 1.6-1.5.7-.3 1.3-.5 2-.5.9 0 1.6.1 2.1.4.6.2 1 .6 1.3 1s.5.9.7 1.5c.1.6.2 1.3.2 2v7.3h-3.3v-6.7c0-1-.2-1.7-.5-2.2-.3-.5-.8-.7-1.6-.7-.9 0-1.5.3-1.9.8s-.6 1.4-.6 2.6v6.2H66V99.2h3.2zM82.3 108.1c.1.3.3.5.6.6.2.2.5.3.8.4s.6.1.9.1c.2 0 .5 0 .7-.1.3-.1.5-.1.7-.3.2-.1.4-.3.5-.5s.2-.4.2-.7c0-.5-.3-.9-1-1.1-.6-.2-1.6-.5-2.7-.7-.5-.1-.9-.2-1.4-.4-.5-.1-.9-.3-1.2-.6-.4-.2-.6-.5-.8-.9-.2-.4-.3-.8-.3-1.3 0-.8.1-1.4.4-1.9.3-.5.7-.9 1.2-1.2.5-.3 1-.5 1.7-.6.6-.1 1.2-.2 1.9-.2.6 0 1.3.1 1.9.2.6.1 1.1.3 1.6.6s.9.7 1.2 1.2c.3.5.5 1.1.6 1.8h-3.1c0-.6-.3-1.1-.7-1.3-.4-.2-.9-.3-1.5-.3h-.6c-.2 0-.4.1-.6.1-.2.1-.3.2-.4.3-.1.1-.2.3-.2.6s.1.5.3.7c.2.2.5.3.8.4.3.1.7.2 1.2.3.4.1.9.2 1.4.3.5.1.9.2 1.4.4.5.2.9.4 1.2.6.4.3.6.6.8.9s.3.8.3 1.4c0 .8-.2 1.4-.5 2-.3.5-.7 1-1.2 1.3-.5.3-1.1.5-1.7.7-.6.1-1.3.2-2 .2s-1.4-.1-2-.2c-.7-.1-1.2-.4-1.8-.7-.5-.3-.9-.7-1.3-1.3-.3-.5-.5-1.2-.5-2h3.1c-.1.6 0 .9.1 1.2zM99.8 111v-1.7h-.1c-.4.7-.9 1.2-1.6 1.5-.7.3-1.3.5-2 .5-.9 0-1.6-.1-2.1-.3-.6-.2-1-.6-1.3-1s-.5-.9-.7-1.5c-.1-.6-.2-1.3-.2-2v-7.3h3.3v6.7c0 1 .2 1.7.5 2.2.3.5.8.7 1.6.7.9 0 1.5-.3 1.9-.8.4-.5.6-1.4.6-2.6v-6.2h3.3V111h-3.2zM108.4 99.2v2.2c.2-.4.4-.7.6-1 .3-.3.6-.6.9-.8.3-.2.7-.4 1.1-.5.4-.1.8-.2 1.2-.2.2 0 .5 0 .7.1v3c-.2 0-.3-.1-.5-.1h-.6c-.6 0-1.1.1-1.5.3-.4.2-.7.5-1 .8-.3.3-.4.7-.5 1.2s-.2 1-.2 1.5v5.3h-3.3V99.2h3.1zM114 102.8c0-.8.2-1.4.6-1.9.3-.5.8-.9 1.3-1.2s1.1-.5 1.8-.7 1.3-.2 2-.2c.6 0 1.2 0 1.8.1s1.2.2 1.7.5c.5.2.9.6 1.2 1 .3.4.5 1 .5 1.7v6.2c0 .5 0 1 .1 1.5s.2.9.3 1.1H122c-.1-.2-.1-.4-.1-.6 0-.2-.1-.4-.1-.6-.5.5-1.1.9-1.8 1.1-.7.2-1.4.3-2.2.3-.6 0-1.1-.1-1.6-.2s-.9-.4-1.3-.6c-.4-.3-.7-.7-.9-1.1-.2-.4-.3-1-.3-1.6 0-.7.1-1.2.4-1.7.2-.4.5-.8.9-1 .4-.3.8-.5 1.3-.6l1.5-.3c.5-.1 1-.1 1.4-.2.5 0 .9-.1 1.3-.2s.7-.2.9-.4c.2-.2.3-.4.3-.8s-.1-.6-.2-.8c-.1-.2-.3-.4-.5-.5-.2-.1-.4-.2-.7-.2-.3 0-.5-.1-.8-.1-.6 0-1.1.1-1.5.4-.4.3-.6.7-.6 1.4H114zm7.5 2.4c-.1.1-.3.2-.5.3-.2.1-.4.1-.7.2-.2 0-.5.1-.7.1-.3 0-.5.1-.8.1-.2 0-.5.1-.7.2l-.6.3c-.2.1-.3.3-.4.5s-.2.5-.2.8c0 .3.1.5.2.7.1.2.3.4.4.5.2.1.4.2.6.2.2 0 .5.1.8.1.6 0 1.1-.1 1.5-.3.4-.2.6-.5.8-.8.2-.3.3-.6.3-.9s.1-.6.1-.7v-1.3zM130.3 99.2v1.7h.1c.4-.7.9-1.2 1.6-1.5.7-.3 1.3-.5 2-.5.9 0 1.6.1 2.1.4.6.2 1 .6 1.3 1s.5.9.7 1.5c.1.6.2 1.3.2 2v7.3H135v-6.7c0-1-.2-1.7-.5-2.2-.3-.5-.8-.7-1.6-.7-.9 0-1.5.3-1.9.8s-.6 1.4-.6 2.6v6.2h-3.3V99.2h3.2zM146.4 101.3c-.5 0-1 .1-1.3.4-.4.2-.6.5-.9.9-.2.4-.4.8-.5 1.2-.1.5-.1.9-.1 1.3s0 .9.1 1.3.2.8.4 1.2c.2.4.5.7.8.9.3.2.8.3 1.3.3.8 0 1.4-.2 1.8-.7s.7-1 .8-1.8h3.1c-.2 1.6-.8 2.8-1.8 3.6s-2.3 1.2-3.9 1.2c-.9 0-1.7-.1-2.4-.4-.7-.3-1.4-.7-1.9-1.2s-.9-1.2-1.2-1.9c-.3-.7-.4-1.6-.4-2.4 0-.9.1-1.8.4-2.6.3-.8.7-1.5 1.2-2 .5-.6 1.2-1 1.9-1.3.7-.3 1.6-.5 2.6-.5.7 0 1.4.1 2 .3.7.2 1.2.5 1.7.8.5.4.9.8 1.2 1.4.3.6.5 1.2.6 2h-3.2c-.2-1.3-1-2-2.3-2zM157.2 108.2c.5.5 1.2.7 2.1.7.7 0 1.2-.2 1.7-.5s.8-.7.9-1h2.9c-.5 1.4-1.2 2.4-2.1 3-.9.6-2.1.9-3.4.9-.9 0-1.8-.1-2.5-.4-.7-.3-1.4-.7-1.9-1.3-.5-.5-.9-1.2-1.2-2-.3-.8-.4-1.6-.4-2.5 0-.9.1-1.7.4-2.5.3-.8.7-1.4 1.2-2 .5-.6 1.2-1 1.9-1.3.7-.3 1.6-.5 2.5-.5 1 0 1.9.2 2.6.6s1.4.9 1.8 1.6c.5.7.8 1.4 1 2.2.2.8.3 1.7.2 2.6h-8.5c.1 1.1.4 1.9.8 2.4zm3.7-6.3c-.4-.4-1-.6-1.8-.6-.5 0-1 .1-1.3.3-.3.2-.6.4-.8.7-.2.3-.4.5-.4.8-.1.3-.1.5-.1.8h5.3c-.2-.9-.5-1.5-.9-2zM173.2 97.3v-2.7h3.3v2.7h-3.3zm3.2 1.9V111h-3.3V99.2h3.3zM181.6 108.1c.1.3.3.5.6.6.2.2.5.3.8.4.3.1.6.1.9.1.2 0 .5 0 .7-.1.3-.1.5-.1.7-.3.2-.1.4-.3.5-.5s.2-.4.2-.7c0-.5-.3-.9-1-1.1-.7-.2-1.6-.5-2.7-.7-.5-.1-.9-.2-1.4-.4-.5-.1-.9-.3-1.2-.6-.4-.2-.6-.5-.8-.9-.2-.4-.3-.8-.3-1.3 0-.8.1-1.4.4-1.9.3-.5.7-.9 1.2-1.2.5-.3 1-.5 1.7-.6.6-.1 1.2-.2 1.9-.2s1.3.1 1.9.2c.6.1 1.1.3 1.6.6s.9.7 1.2 1.2c.3.5.5 1.1.6 1.8H186c0-.6-.3-1.1-.7-1.3-.4-.2-.9-.3-1.5-.3h-.6c-.2 0-.4.1-.6.1-.2.1-.3.2-.4.3-.1.1-.2.3-.2.6s.1.5.3.7c.2.2.5.3.8.4.3.1.7.2 1.2.3.4.1.9.2 1.4.3.5.1.9.2 1.4.4.5.2.9.4 1.2.6.4.3.6.6.8.9.2.4.3.8.3 1.4 0 .8-.2 1.4-.5 2s-.7 1-1.2 1.3c-.5.3-1.1.5-1.7.7-.6.1-1.3.2-2 .2s-1.4-.1-2-.2c-.7-.1-1.2-.4-1.8-.7-.5-.3-.9-.7-1.3-1.3-.3-.5-.5-1.2-.5-2h3.1c-.1.6 0 .9.1 1.2zM200.1 108.1c.1.3.3.5.6.6.2.2.5.3.8.4.3.1.6.1.9.1.2 0 .5 0 .7-.1.3-.1.5-.1.7-.3.2-.1.4-.3.5-.5s.2-.4.2-.7c0-.5-.3-.9-1-1.1-.7-.2-1.6-.5-2.7-.7-.5-.1-.9-.2-1.4-.4-.5-.1-.9-.3-1.2-.6-.4-.2-.6-.5-.8-.9-.2-.4-.3-.8-.3-1.3 0-.8.1-1.4.4-1.9.3-.5.7-.9 1.2-1.2.5-.3 1-.5 1.7-.6.6-.1 1.2-.2 1.9-.2s1.3.1 1.9.2c.6.1 1.1.3 1.6.6s.9.7 1.2 1.2c.3.5.5 1.1.6 1.8h-3.1c0-.6-.3-1.1-.7-1.3-.4-.2-.9-.3-1.5-.3h-.6c-.2 0-.4.1-.6.1-.2.1-.3.2-.4.3-.1.1-.2.3-.2.6s.1.5.3.7c.2.2.5.3.8.4.3.1.7.2 1.2.3.4.1.9.2 1.4.3.5.1.9.2 1.4.4.5.2.9.4 1.2.6.4.3.6.6.8.9.2.4.3.8.3 1.4 0 .8-.2 1.4-.5 2s-.7 1-1.2 1.3c-.5.3-1.1.5-1.7.7-.6.1-1.3.2-2 .2s-1.4-.1-2-.2c-.7-.1-1.2-.4-1.8-.7-.5-.3-.9-.7-1.3-1.3-.3-.5-.5-1.2-.5-2h3.1c-.1.6 0 .9.1 1.2zM216.1 99.2v2.2h-2.4v5.9c0 .6.1.9.3 1.1.2.2.6.3 1.1.3h.5c.1 0 .3 0 .5-.1v2.5c-.3 0-.6.1-.9.1h-1c-.5 0-1 0-1.4-.1-.5-.1-.8-.2-1.2-.4-.3-.2-.6-.5-.8-.8-.2-.4-.3-.8-.3-1.4v-7h-2v-2.2h2v-3.6h3.3v3.6h2.3zM217.7 97.3v-2.7h3.3v2.7h-3.3zm3.2 1.9V111h-3.3V99.2h3.3zM226.7 94.7V111h-3.3V94.7h3.3zM232.5 94.7V111h-3.3V94.7h3.3z"/></g><g><path class="st0" d="M21.9 123.2v-2.7h3.3v2.7h-3.3zm3.2 1.9V137h-3.3v-11.9h3.3zM30.7 125.1v1.7h.1c.4-.7.9-1.2 1.6-1.5.7-.3 1.3-.5 2-.5.9 0 1.6.1 2.1.4.6.2 1 .6 1.3 1 .3.4.5.9.7 1.5s.2 1.3.2 2v7.3h-3.3v-6.7c0-1-.2-1.7-.5-2.2-.3-.5-.8-.7-1.6-.7-.9 0-1.5.3-1.9.8-.4.5-.6 1.4-.6 2.6v6.2h-3.3v-11.9h3.2zM50.1 134c.1.3.3.5.6.6.2.2.5.3.8.4.3.1.6.1.9.1.2 0 .5 0 .7-.1.3-.1.5-.1.7-.3.2-.1.4-.3.5-.5s.2-.4.2-.7c0-.5-.3-.9-1-1.1-.6-.2-1.6-.5-2.7-.7-.5-.1-.9-.2-1.4-.4-.5-.1-.9-.3-1.2-.6-.4-.2-.6-.5-.8-.9-.2-.4-.3-.8-.3-1.3 0-.8.1-1.4.4-1.9.3-.5.7-.9 1.2-1.2.5-.3 1-.5 1.7-.6.6-.1 1.2-.2 1.9-.2.6 0 1.3.1 1.9.2.6.1 1.1.3 1.6.6s.9.7 1.2 1.2c.3.5.5 1.1.6 1.8h-3.1c0-.6-.3-1.1-.7-1.3s-.9-.3-1.5-.3h-.6c-.2 0-.4.1-.6.1-.2.1-.3.2-.4.3-.1.1-.2.3-.2.6s.1.5.3.7.5.3.8.4c.3.1.7.2 1.2.3.4.1.9.2 1.4.3.5.1.9.2 1.4.4.5.2.9.4 1.2.6s.6.6.8.9c.2.4.3.8.3 1.4 0 .8-.2 1.4-.5 2-.3.5-.7 1-1.2 1.3-.5.3-1.1.5-1.7.7-.6.1-1.3.2-2 .2s-1.4-.1-2-.2c-.7-.1-1.2-.4-1.8-.7-.5-.3-.9-.7-1.3-1.3-.3-.5-.5-1.2-.5-2H50c-.1.6-.1.9.1 1.2zM63.9 140.5c-.6.4-1.5.6-2.6.6h-1c-.3 0-.7 0-1-.1v-2.7c.3 0 .6.1.9.1h1c.4 0 .7-.2 1-.5.2-.3.3-.6.3-1 0-.3 0-.5-.1-.7l-4.1-11.1h3.5l2.7 8.1 2.6-8.1h3.4l-5 13.3c-.4 1-.9 1.6-1.6 2.1zM74.4 125.1v1.7h.1c.4-.7.9-1.2 1.6-1.5.7-.3 1.3-.5 2-.5.9 0 1.6.1 2.1.4.6.2 1 .6 1.3 1 .3.4.5.9.7 1.5s.2 1.3.2 2v7.3h-3.3v-6.7c0-1-.2-1.7-.5-2.2-.3-.5-.8-.7-1.6-.7-.9 0-1.5.3-1.9.8-.4.5-.6 1.4-.6 2.6v6.2h-3.3v-11.9h3.2zM90.5 127.2c-.5 0-1 .1-1.3.4-.4.2-.6.5-.9.9-.2.4-.4.8-.5 1.2-.1.5-.1.9-.1 1.3s0 .9.1 1.3.2.8.4 1.2c.2.4.5.7.8.9s.8.3 1.3.3c.8 0 1.4-.2 1.8-.7s.7-1 .8-1.8H96c-.2 1.6-.8 2.8-1.8 3.6s-2.3 1.2-3.9 1.2c-.9 0-1.7-.1-2.4-.4-.7-.3-1.4-.7-1.9-1.2s-.9-1.2-1.2-1.9c-.3-.7-.4-1.6-.4-2.4 0-.9.1-1.8.4-2.6.3-.8.7-1.5 1.2-2s1.2-1 1.9-1.3c.7-.3 1.6-.5 2.6-.5.7 0 1.4.1 2 .3.6.2 1.2.5 1.7.8.5.4.9.8 1.2 1.4s.5 1.2.6 2h-3.2c-.1-1.3-.9-2-2.3-2zM114.4 136.9l-2.1-8-2 8h-3.4l-3.8-11.9h3.4l2.2 8 2-8h3.2l2 8 2.2-8h3.3l-3.7 11.9h-3.3zM122.8 123.2v-2.7h3.3v2.7h-3.3zm3.3 1.9V137h-3.3v-11.9h3.3zM135.1 125.1v2.2h-2.4v5.9c0 .6.1.9.3 1.1.2.2.6.3 1.1.3h.5c.2 0 .3 0 .5-.1v2.5c-.3 0-.6.1-.9.1h-1c-.5 0-1 0-1.4-.1-.5-.1-.8-.2-1.2-.4-.3-.2-.6-.5-.8-.8-.2-.4-.3-.8-.3-1.4v-7h-2v-2.2h2v-3.6h3.3v3.6h2.3zM139.8 120.6v6.2h.1c.4-.7.9-1.2 1.6-1.5.6-.3 1.3-.5 1.9-.5.9 0 1.6.1 2.1.4.6.2 1 .6 1.3 1 .3.4.5.9.7 1.5.1.6.2 1.3.2 2v7.3h-3.3v-6.7c0-1-.2-1.7-.5-2.2s-.8-.7-1.6-.7c-.9 0-1.5.3-1.9.8-.4.5-.6 1.4-.6 2.6v6.2h-3.3v-16.4h3.3zM160.7 140.5c-.6.4-1.5.6-2.6.6h-1c-.3 0-.7 0-1-.1v-2.7c.3 0 .6.1.9.1h1c.4 0 .7-.2 1-.5.2-.3.3-.6.3-1 0-.3 0-.5-.1-.7l-4.1-11.1h3.5l2.7 8.1 2.6-8.1h3.4l-5 13.3c-.5 1-1 1.6-1.6 2.1zM168.2 128.4c.3-.8.7-1.4 1.2-2 .5-.5 1.2-1 1.9-1.3s1.6-.4 2.5-.4c.9 0 1.8.1 2.5.4s1.4.7 1.9 1.3c.5.5.9 1.2 1.2 2 .3.8.4 1.6.4 2.6s-.1 1.8-.4 2.6c-.3.8-.7 1.4-1.2 2-.5.5-1.2 1-1.9 1.2s-1.6.4-2.5.4c-.9 0-1.8-.1-2.5-.4s-1.4-.7-1.9-1.2-.9-1.2-1.2-2c-.3-.8-.4-1.6-.4-2.6s.1-1.8.4-2.6zm2.9 4c.1.5.2.9.5 1.2.2.4.5.6.9.9.4.2.8.3 1.4.3.6 0 1-.1 1.4-.3.4-.2.7-.5.9-.9.2-.4.4-.8.5-1.2.1-.5.1-.9.1-1.4s0-.9-.1-1.4c-.1-.5-.2-.9-.5-1.2s-.5-.6-.9-.9c-.4-.2-.8-.3-1.4-.3-.5 0-1 .1-1.4.3-.4.2-.7.5-.9.9s-.4.8-.5 1.2c-.1.5-.1.9-.1 1.4s0 .9.1 1.4zM190 136.9v-1.7h-.1c-.4.7-.9 1.2-1.6 1.5-.7.3-1.3.5-2 .5-.9 0-1.6-.1-2.1-.3s-1-.6-1.3-1c-.3-.4-.5-.9-.7-1.5s-.2-1.3-.2-2v-7.3h3.3v6.7c0 1 .2 1.7.5 2.2s.8.7 1.6.7c.9 0 1.5-.3 1.9-.8.4-.5.6-1.4.6-2.6v-6.2h3.3V137H190zM198.6 125.1v2.2c.2-.4.4-.7.6-1 .3-.3.6-.6.9-.8.3-.2.7-.4 1.1-.5.4-.1.8-.2 1.2-.2.2 0 .5 0 .7.1v3c-.2 0-.3-.1-.5-.1h-.6c-.6 0-1.1.1-1.5.3-.4.2-.7.5-1 .8-.3.3-.4.7-.5 1.2-.1.5-.2 1-.2 1.5v5.3h-3.3V125h3.1zM221.8 137.8c-.1.6-.4 1.2-.8 1.7s-1 1-1.9 1.3c-.8.4-1.9.5-3.3.5-.6 0-1.2-.1-1.8-.2-.6-.1-1.2-.4-1.7-.7-.5-.3-.9-.7-1.2-1.2-.3-.5-.5-1.1-.6-1.7h3.2c.2.6.5 1 .9 1.3.4.2 1 .4 1.5.4.9 0 1.6-.3 2-.8.4-.5.6-1.2.6-2.1v-1.6c-.4.6-.9 1.1-1.5 1.4s-1.3.4-2.1.4c-.9 0-1.7-.2-2.3-.5s-1.2-.7-1.6-1.3c-.4-.5-.7-1.2-.9-1.9-.2-.7-.3-1.5-.3-2.3 0-.8.1-1.5.3-2.2.2-.7.5-1.3 1-1.9.4-.5 1-1 1.6-1.3.6-.3 1.4-.5 2.2-.5.8 0 1.5.1 2.1.4.6.3 1.1.8 1.5 1.5v-1.6h3.1V136c.2.6.1 1.2 0 1.8zm-4.5-3.9c.4-.2.6-.4.9-.7.2-.3.4-.7.5-1 .1-.4.2-.8.2-1.2 0-.5 0-1-.1-1.4s-.2-.8-.5-1.2c-.2-.3-.5-.6-.8-.8-.4-.2-.8-.3-1.3-.3s-.9.1-1.2.3c-.3.2-.6.4-.8.7-.2.3-.4.7-.5 1.1-.1.4-.1.8-.1 1.3 0 .4 0 .9.1 1.3s.2.8.4 1.1c.2.3.5.6.8.8.3.2.8.3 1.3.3.4-.1.8-.2 1.1-.3zM224.6 128.4c.3-.8.7-1.4 1.2-2 .5-.5 1.2-1 1.9-1.3s1.6-.4 2.5-.4c.9 0 1.8.1 2.5.4s1.4.7 1.9 1.3c.5.5.9 1.2 1.2 2 .3.8.4 1.6.4 2.6s-.1 1.8-.4 2.6c-.3.8-.7 1.4-1.2 2-.5.5-1.2 1-1.9 1.2s-1.6.4-2.5.4c-.9 0-1.8-.1-2.5-.4s-1.4-.7-1.9-1.2-.9-1.2-1.2-2c-.3-.8-.4-1.6-.4-2.6s.1-1.8.4-2.6zm2.9 4c.1.5.2.9.5 1.2.2.4.5.6.9.9.4.2.8.3 1.4.3.6 0 1-.1 1.4-.3.4-.2.7-.5.9-.9.2-.4.4-.8.5-1.2.1-.5.1-.9.1-1.4s0-.9-.1-1.4c-.1-.5-.2-.9-.5-1.2s-.5-.6-.9-.9c-.4-.2-.8-.3-1.4-.3-.5 0-1 .1-1.4.3-.4.2-.7.5-.9.9s-.4.8-.5 1.2c-.1.5-.1.9-.1 1.4s0 .9.1 1.4zM238.3 128.7c0-.8.2-1.4.6-1.9.3-.5.8-.9 1.3-1.2s1.1-.5 1.8-.7c.6-.1 1.3-.2 2-.2.6 0 1.2 0 1.8.1s1.2.2 1.7.5c.5.2.9.6 1.2 1 .3.4.5 1 .5 1.7v6.2c0 .5 0 1 .1 1.5s.2.9.3 1.1h-3.3c-.1-.2-.1-.4-.1-.6s-.1-.4-.1-.6c-.5.5-1.1.9-1.8 1.1-.7.2-1.4.3-2.2.3-.6 0-1.1-.1-1.6-.2s-.9-.4-1.3-.6c-.4-.3-.7-.7-.9-1.1s-.3-1-.3-1.6c0-.7.1-1.2.4-1.7.2-.4.5-.8.9-1 .4-.3.8-.5 1.3-.6l1.5-.3c.5-.1 1-.1 1.4-.2s.9-.1 1.3-.2.7-.2.9-.4c.2-.2.3-.4.3-.8s-.1-.6-.2-.8c-.1-.2-.3-.4-.5-.5-.2-.1-.4-.2-.7-.2-.3 0-.5-.1-.8-.1-.6 0-1.1.1-1.5.4-.4.3-.6.7-.6 1.4h-3.4zm7.5 2.4c-.1.1-.3.2-.5.3-.2.1-.4.1-.7.2-.2 0-.5.1-.7.1-.3 0-.5.1-.8.1-.2 0-.5.1-.7.2l-.6.3c-.2.1-.3.3-.4.5-.1.2-.2.5-.2.8 0 .3.1.5.2.7.1.2.3.4.4.5.2.1.4.2.6.2.2 0 .5.1.8.1.6 0 1.1-.1 1.5-.3s.6-.5.8-.8.3-.6.3-.9.1-.6.1-.7v-1.3zM254.8 120.6V137h-3.3v-16.4h3.3zM260 134c.1.3.3.5.6.6.2.2.5.3.8.4.3.1.6.1.9.1.2 0 .5 0 .7-.1.3-.1.5-.1.7-.3.2-.1.4-.3.5-.5s.2-.4.2-.7c0-.5-.3-.9-1-1.1-.7-.2-1.6-.5-2.7-.7-.5-.1-.9-.2-1.4-.4-.5-.1-.9-.3-1.2-.6-.4-.2-.6-.5-.8-.9-.2-.4-.3-.8-.3-1.3 0-.8.1-1.4.4-1.9.3-.5.7-.9 1.2-1.2.5-.3 1-.5 1.7-.6.6-.1 1.2-.2 1.9-.2s1.3.1 1.9.2c.6.1 1.1.3 1.6.6s.9.7 1.2 1.2c.3.5.5 1.1.6 1.8h-3.1c0-.6-.3-1.1-.7-1.3s-.9-.3-1.5-.3h-.6c-.2 0-.4.1-.6.1-.2.1-.3.2-.4.3s-.2.3-.2.6.1.5.3.7.5.3.8.4c.3.1.7.2 1.2.3s.9.2 1.4.3c.5.1.9.2 1.4.4.5.2.9.4 1.2.6s.6.6.8.9c.2.4.3.8.3 1.4 0 .8-.2 1.4-.5 2-.3.5-.7 1-1.2 1.3-.5.3-1.1.5-1.7.7-.6.1-1.3.2-2 .2s-1.4-.1-2-.2-1.2-.4-1.8-.7c-.5-.3-.9-.7-1.3-1.3-.3-.5-.5-1.2-.5-2h3.1c-.1.6-.1.9.1 1.2z"/></g><g><path class="st0" d="M21.9 149.1v-2.7h3.3v2.7h-3.3zm3.2 1.9v11.9h-3.3V151h3.3zM30.3 159.9c.1.3.3.5.6.6.2.2.5.3.8.4.3.1.6.1.9.1.2 0 .5 0 .7-.1.3-.1.5-.1.7-.3.2-.1.4-.3.5-.5s.2-.4.2-.7c0-.5-.3-.9-1-1.1-.6-.2-1.6-.5-2.7-.7-.5-.1-.9-.2-1.4-.4-.5-.1-.9-.3-1.2-.6-.4-.2-.6-.5-.8-.9-.2-.4-.3-.8-.3-1.3 0-.8.1-1.4.4-1.9.3-.5.7-.9 1.2-1.2.5-.3 1-.5 1.7-.6.6-.1 1.2-.2 1.9-.2.6 0 1.3.1 1.9.2.6.1 1.1.3 1.6.6s.9.7 1.2 1.2c.3.5.5 1.1.6 1.8h-3.1c0-.6-.3-1.1-.7-1.3s-.9-.3-1.5-.3h-.6c-.2 0-.4.1-.6.1-.2.1-.3.2-.4.3-.1.1-.2.3-.2.6s.1.5.3.7.5.3.8.4c.3.1.7.2 1.2.3.4.1.9.2 1.4.3.5.1.9.2 1.4.4.5.2.9.4 1.2.6s.6.6.8.9c.2.4.3.8.3 1.4 0 .8-.2 1.4-.5 2-.3.5-.7 1-1.2 1.3-.5.3-1.1.5-1.7.7-.6.1-1.3.2-2 .2s-1.4-.1-2-.2c-.7-.1-1.2-.4-1.8-.7-.5-.3-.9-.7-1.3-1.3-.3-.5-.5-1.2-.5-2h3.1c-.1.6 0 .9.1 1.2zM45.9 154.6c0-.8.2-1.4.6-1.9.3-.5.8-.9 1.3-1.2s1.1-.5 1.8-.7c.6-.1 1.3-.2 2-.2.6 0 1.2 0 1.8.1s1.2.2 1.7.5c.5.2.9.6 1.2 1 .3.4.5 1 .5 1.7v6.2c0 .5 0 1 .1 1.5s.2.9.3 1.1h-3.3c-.1-.2-.1-.4-.1-.6 0-.2-.1-.4-.1-.6-.5.5-1.1.9-1.8 1.1-.7.2-1.4.3-2.2.3-.6 0-1.1-.1-1.6-.2s-.9-.4-1.3-.6c-.4-.3-.7-.7-.9-1.1-.2-.4-.3-1-.3-1.6 0-.7.1-1.2.4-1.7.2-.4.5-.8.9-1 .4-.3.8-.5 1.3-.6l1.5-.3c.5-.1 1-.1 1.4-.2.5 0 .9-.1 1.3-.2s.7-.2.9-.4c.2-.2.3-.4.3-.8s-.1-.6-.2-.8c-.1-.2-.3-.4-.5-.5-.2-.1-.4-.2-.7-.2-.3 0-.5-.1-.8-.1-.6 0-1.1.1-1.5.4-.4.3-.6.7-.6 1.4h-3.4zm7.5 2.4c-.1.1-.3.2-.5.3-.2.1-.4.1-.7.2-.2 0-.5.1-.7.1-.3 0-.5.1-.8.1-.2 0-.5.1-.7.2l-.6.3c-.2.1-.3.3-.4.5s-.2.5-.2.8c0 .3.1.5.2.7.1.2.3.4.4.5.2.1.4.2.6.2.2 0 .5.1.8.1.6 0 1.1-.1 1.5-.3s.6-.5.8-.8c.2-.3.3-.6.3-.9s.1-.6.1-.7V157zM76.6 163.7c-.1.6-.4 1.2-.8 1.7s-1 1-1.9 1.3c-.8.4-1.9.5-3.3.5-.6 0-1.2-.1-1.8-.2s-1.2-.4-1.7-.7-.9-.7-1.2-1.2-.5-1.1-.6-1.7h3.2c.2.6.5 1 .9 1.3.4.2 1 .4 1.5.4.9 0 1.6-.3 2-.8.4-.5.6-1.2.6-2.1v-1.6c-.4.6-.9 1.1-1.5 1.4-.6.3-1.3.4-2.1.4-.9 0-1.7-.2-2.3-.5-.6-.3-1.2-.7-1.6-1.3-.4-.5-.7-1.2-.9-1.9-.2-.7-.3-1.5-.3-2.3 0-.8.1-1.5.3-2.2.2-.7.5-1.3 1-1.9.4-.5 1-1 1.6-1.3.6-.3 1.4-.5 2.2-.5.8 0 1.5.1 2.1.4.6.3 1.1.8 1.5 1.5V151h3.1v11.1c.2.4.1 1 0 1.6zm-4.4-3.9c.4-.2.6-.4.9-.7.2-.3.4-.7.5-1 .1-.4.2-.8.2-1.2 0-.5 0-1-.1-1.4s-.2-.8-.5-1.2c-.2-.3-.5-.6-.8-.8-.4-.2-.8-.3-1.3-.3s-.9.1-1.2.3-.6.4-.8.7-.4.7-.5 1.1c-.1.4-.1.8-.1 1.3 0 .4 0 .9.1 1.3s.2.8.4 1.1c.2.3.5.6.8.8.3.2.8.3 1.3.3.3-.1.7-.2 1.1-.3zM79.4 154.3c.3-.8.7-1.4 1.2-2 .5-.5 1.2-1 1.9-1.3.7-.3 1.6-.4 2.5-.4.9 0 1.8.1 2.5.4.8.3 1.4.7 1.9 1.3.5.5.9 1.2 1.2 2 .3.8.4 1.6.4 2.6s-.1 1.8-.4 2.6c-.3.8-.7 1.4-1.2 2-.5.5-1.2 1-1.9 1.2s-1.6.4-2.5.4c-.9 0-1.8-.1-2.5-.4-.7-.3-1.4-.7-1.9-1.2s-.9-1.2-1.2-2c-.3-.8-.4-1.6-.4-2.6s.1-1.8.4-2.6zm2.9 4c.1.5.2.9.5 1.2.2.4.5.6.9.9.4.2.8.3 1.4.3.5 0 1-.1 1.4-.3.4-.2.7-.5.9-.9.2-.4.4-.8.5-1.2.1-.5.1-.9.1-1.4s0-.9-.1-1.4c-.1-.5-.2-.9-.5-1.2-.2-.4-.5-.6-.9-.9-.4-.2-.8-.3-1.4-.3-.6 0-1 .1-1.4.3s-.7.5-.9.9-.4.8-.5 1.2c-.1.5-.1.9-.1 1.4s0 .9.1 1.4zM93.3 154.3c.3-.8.7-1.4 1.2-2 .5-.5 1.2-1 1.9-1.3.7-.3 1.6-.4 2.5-.4.9 0 1.8.1 2.5.4.8.3 1.4.7 1.9 1.3.5.5.9 1.2 1.2 2 .3.8.4 1.6.4 2.6s-.1 1.8-.4 2.6c-.3.8-.7 1.4-1.2 2-.5.5-1.2 1-1.9 1.2s-1.6.4-2.5.4c-.9 0-1.8-.1-2.5-.4-.7-.3-1.4-.7-1.9-1.2s-.9-1.2-1.2-2c-.3-.8-.4-1.6-.4-2.6s.1-1.8.4-2.6zm2.9 4c.1.5.2.9.5 1.2.2.4.5.6.9.9.4.2.8.3 1.4.3.5 0 1-.1 1.4-.3.4-.2.7-.5.9-.9.2-.4.4-.8.5-1.2.1-.5.1-.9.1-1.4s0-.9-.1-1.4c-.1-.5-.2-.9-.5-1.2-.2-.4-.5-.6-.9-.9-.4-.2-.8-.3-1.4-.3-.6 0-1 .1-1.4.3s-.7.5-.9.9-.4.8-.5 1.2c-.1.5-.1.9-.1 1.4s.1.9.1 1.4zM115.5 161.3c-.4.6-.9 1.1-1.5 1.4-.6.3-1.3.4-2.1.4-.9 0-1.7-.2-2.3-.5s-1.2-.8-1.7-1.4c-.4-.6-.8-1.3-1-2-.2-.8-.3-1.6-.3-2.4 0-.8.1-1.6.3-2.3.2-.7.6-1.4 1-2s1-1 1.6-1.4 1.4-.5 2.3-.5c.7 0 1.4.1 2 .4.6.3 1.1.7 1.5 1.3v-6h3.3v16.4h-3.1v-1.4zm-.1-5.8c-.1-.5-.2-.8-.5-1.2s-.5-.6-.9-.8c-.4-.2-.8-.3-1.3-.3s-1 .1-1.4.3-.7.5-.9.8c-.2.4-.4.8-.5 1.2-.1.5-.1.9-.1 1.4 0 .5.1.9.2 1.4.1.5.3.9.5 1.2.2.4.5.6.9.9s.8.3 1.3.3 1-.1 1.3-.3c.4-.2.6-.5.9-.9.2-.4.4-.8.5-1.2.1-.5.1-.9.1-1.4s0-1-.1-1.4zM130.4 151v1.5c.4-.6.9-1.1 1.5-1.4s1.3-.4 2-.4c.9 0 1.7.2 2.4.5.7.4 1.2.8 1.7 1.4.4.6.8 1.3 1 2 .2.8.3 1.6.3 2.4 0 .8-.1 1.6-.3 2.3-.2.7-.5 1.4-1 1.9s-1 1-1.6 1.4-1.4.5-2.3.5c-.7 0-1.4-.1-2-.4-.6-.3-1.1-.7-1.5-1.3v5.6h-3.3v-16h3.1zm4.2 9.4c.4-.2.6-.5.9-.8s.4-.7.5-1.2c.1-.5.1-.9.1-1.4 0-.5 0-.9-.1-1.4-.1-.5-.3-.9-.5-1.2s-.5-.6-.9-.9c-.4-.2-.8-.3-1.3-.3s-1 .1-1.3.3c-.4.2-.6.5-.9.9-.2.4-.4.8-.5 1.2-.1.5-.1.9-.1 1.4 0 .5 0 .9.1 1.4.1.5.3.9.5 1.2.2.3.5.6.9.8.4.2.8.3 1.3.3s.9-.1 1.3-.3zM144.5 146.5v16.4h-3.3v-16.4h3.3zM146.8 154.6c0-.8.2-1.4.6-1.9.3-.5.8-.9 1.3-1.2s1.1-.5 1.8-.7c.6-.1 1.3-.2 2-.2.6 0 1.2 0 1.8.1s1.2.2 1.7.5c.5.2.9.6 1.2 1 .3.4.5 1 .5 1.7v6.2c0 .5 0 1 .1 1.5s.2.9.3 1.1h-3.3c-.1-.2-.1-.4-.1-.6s-.1-.4-.1-.6c-.5.5-1.1.9-1.8 1.1-.7.2-1.4.3-2.2.3-.6 0-1.1-.1-1.6-.2s-.9-.4-1.3-.6c-.4-.3-.7-.7-.9-1.1s-.3-1-.3-1.6c0-.7.1-1.2.4-1.7.2-.4.5-.8.9-1 .4-.3.8-.5 1.3-.6l1.5-.3c.5-.1 1-.1 1.4-.2s.9-.1 1.3-.2.7-.2.9-.4c.2-.2.3-.4.3-.8s-.1-.6-.2-.8c-.1-.2-.3-.4-.5-.5-.2-.1-.4-.2-.7-.2-.3 0-.5-.1-.8-.1-.6 0-1.1.1-1.5.4-.4.3-.6.7-.6 1.4h-3.4zm7.6 2.4c-.1.1-.3.2-.5.3-.2.1-.4.1-.7.2-.2 0-.5.1-.7.1-.3 0-.5.1-.8.1-.2 0-.5.1-.7.2l-.6.3c-.2.1-.3.3-.4.5-.1.2-.2.5-.2.8 0 .3.1.5.2.7.1.2.3.4.4.5.2.1.4.2.6.2.2 0 .5.1.8.1.6 0 1.1-.1 1.5-.3s.6-.5.8-.8.3-.6.3-.9.1-.6.1-.7V157zM163.1 151v1.7h.1c.4-.7.9-1.2 1.6-1.5s1.3-.5 2-.5c.9 0 1.6.1 2.1.4.6.2 1 .6 1.3 1 .3.4.5.9.7 1.5.1.6.2 1.3.2 2v7.3h-3.3v-6.7c0-1-.2-1.7-.5-2.2s-.8-.7-1.6-.7c-.9 0-1.5.3-1.9.8-.4.5-.6 1.4-.6 2.6v6.2H160V151h3.1zM177.3 159.3v3.5c0 .5-.1 1-.3 1.4-.2.4-.4.8-.8 1.1-.3.3-.7.6-1.1.8s-.9.3-1.4.4V165c.2 0 .4-.1.7-.3.2-.1.4-.3.5-.5.2-.2.3-.4.3-.6.1-.2.1-.5.1-.7h-1.7v-3.5h3.7zM192.6 151v2.2h-2.4v5.9c0 .6.1.9.3 1.1.2.2.6.3 1.1.3h.5c.2 0 .3 0 .5-.1v2.5c-.3 0-.6.1-.9.1h-1c-.5 0-1 0-1.4-.1-.5-.1-.8-.2-1.2-.4-.3-.2-.6-.5-.8-.8-.2-.4-.3-.8-.3-1.4v-7h-2V151h2v-3.6h3.3v3.6h2.3zM194.1 154.3c.3-.8.7-1.4 1.2-2 .5-.5 1.2-1 1.9-1.3.7-.3 1.6-.4 2.5-.4.9 0 1.8.1 2.5.4.8.3 1.4.7 1.9 1.3.5.5.9 1.2 1.2 2 .3.8.4 1.6.4 2.6s-.1 1.8-.4 2.6c-.3.8-.7 1.4-1.2 2-.5.5-1.2 1-1.9 1.2s-1.6.4-2.5.4c-.9 0-1.8-.1-2.5-.4s-1.4-.7-1.9-1.2-.9-1.2-1.2-2c-.3-.8-.4-1.6-.4-2.6s.2-1.8.4-2.6zm3 4c.1.5.2.9.5 1.2.2.4.5.6.9.9.4.2.8.3 1.4.3.6 0 1-.1 1.4-.3.4-.2.7-.5.9-.9.2-.4.4-.8.5-1.2.1-.5.1-.9.1-1.4s0-.9-.1-1.4c-.1-.5-.2-.9-.5-1.2s-.5-.6-.9-.9c-.4-.2-.8-.3-1.4-.3-.5 0-1 .1-1.4.3-.4.2-.7.5-.9.9s-.4.8-.5 1.2c-.1.5-.1.9-.1 1.4s0 .9.1 1.4zM208 154.3c.3-.8.7-1.4 1.2-2 .5-.5 1.2-1 1.9-1.3.7-.3 1.6-.4 2.5-.4.9 0 1.8.1 2.5.4.8.3 1.4.7 1.9 1.3.5.5.9 1.2 1.2 2 .3.8.4 1.6.4 2.6s-.1 1.8-.4 2.6c-.3.8-.7 1.4-1.2 2-.5.5-1.2 1-1.9 1.2s-1.6.4-2.5.4c-.9 0-1.8-.1-2.5-.4s-1.4-.7-1.9-1.2-.9-1.2-1.2-2c-.3-.8-.4-1.6-.4-2.6s.1-1.8.4-2.6zm3 4c.1.5.2.9.5 1.2.2.4.5.6.9.9.4.2.8.3 1.4.3.6 0 1-.1 1.4-.3.4-.2.7-.5.9-.9.2-.4.4-.8.5-1.2.1-.5.1-.9.1-1.4s0-.9-.1-1.4c-.1-.5-.2-.9-.5-1.2s-.5-.6-.9-.9c-.4-.2-.8-.3-1.4-.3-.5 0-1 .1-1.4.3-.4.2-.7.5-.9.9s-.4.8-.5 1.2c-.1.5-.1.9-.1 1.4s0 .9.1 1.4zM225.6 159.3v3.5H222v-3.5h3.6z"/></g></svg>