<svg id="Layer_1" xmlns="http://www.w3.org/2000/svg" viewBox="0 0 300 250"><style>.st0{fill:#393}</style><path class="st0" d="M36.5 96c1.3 0 2.5.2 3.4.6s1.7.9 2.3 1.5c.6.6 1 1.4 1.3 2.2s.4 1.7.4 2.5c0 .9-.1 1.7-.4 2.5s-.7 1.6-1.3 2.2c-.6.6-1.4 1.2-2.3 1.5s-2.1.6-3.4.6h-4.9v7.7h-4.7V96h9.6zm-1.2 10.1c.5 0 1.1 0 1.6-.1s.9-.2 1.3-.5c.4-.2.7-.6.9-1 .2-.4.3-1 .3-1.6s-.1-1.2-.3-1.6c-.2-.4-.5-.7-.9-1-.4-.2-.8-.4-1.3-.5-.5-.1-1-.1-1.6-.1h-3.6v6.4h3.6zM50.4 101.9v2.9h.1c.2-.5.5-.9.8-1.3.3-.4.7-.8 1.2-1 .4-.3.9-.5 1.4-.7.5-.2 1-.2 1.6-.2.3 0 .6 0 .9.1v3.9c-.2 0-.4-.1-.7-.1h-.8c-.8 0-1.4.1-2 .4-.5.3-1 .6-1.3 1.1-.3.4-.6 1-.7 1.6-.1.6-.2 1.2-.2 1.9v7h-4.2V102h3.9zM57.9 106.7c.1-1 .3-1.8.7-2.5s1-1.2 1.7-1.6c.7-.4 1.4-.7 2.3-.9.8-.2 1.7-.3 2.6-.3.8 0 1.6.1 2.4.2.8.1 1.5.3 2.2.6.7.3 1.2.8 1.6 1.3.4.6.6 1.3.6 2.3v8c0 .7 0 1.4.1 2 .1.6.2 1.1.4 1.4h-4.3c-.1-.2-.1-.5-.2-.7-.1-.2-.1-.5-.1-.8-.7.7-1.5 1.2-2.4 1.5-.9.3-1.9.4-2.8.4-.7 0-1.4-.1-2.1-.3-.6-.2-1.2-.5-1.7-.8-.5-.4-.9-.9-1.1-1.4-.3-.6-.4-1.3-.4-2.1 0-.9.2-1.6.5-2.2.3-.6.7-1 1.2-1.4.5-.3 1-.6 1.7-.8.6-.2 1.3-.3 1.9-.4.6-.1 1.3-.2 1.9-.2.6-.1 1.2-.1 1.6-.3s.9-.3 1.1-.5c.3-.2.4-.6.4-1 0-.5-.1-.8-.2-1.1s-.3-.5-.6-.6c-.2-.1-.5-.2-.9-.3-.3 0-.7-.1-1.1-.1-.8 0-1.5.2-2 .5s-.8 1-.8 1.8h-4.2zm9.8 3.1c-.2.2-.4.3-.7.4-.3.1-.6.2-.9.2-.3.1-.6.1-1 .1s-.7.1-1 .1c-.3.1-.6.1-.9.2s-.6.2-.8.4l-.6.6c-.1.3-.2.6-.2 1s.1.7.2 1c.1.3.3.5.6.6.2.1.5.3.8.3.3.1.6.1 1 .1.8 0 1.5-.1 1.9-.4.5-.3.8-.6 1-1s.4-.8.4-1.2c0-.4.1-.7.1-1v-1.4zM82.6 104.7c-.7 0-1.2.2-1.7.5s-.8.7-1.1 1.2c-.3.5-.5 1-.6 1.6-.1.6-.2 1.2-.2 1.7 0 .6.1 1.1.2 1.7.1.6.3 1.1.6 1.6s.6.9 1.1 1.2c.5.3 1 .4 1.7.4 1 0 1.8-.3 2.3-.9.5-.6.9-1.3 1-2.3H90c-.3 2.1-1.1 3.6-2.4 4.7-1.3 1.1-3 1.6-5.1 1.6-1.2 0-2.2-.2-3.2-.6-1-.4-1.8-.9-2.5-1.6-.7-.7-1.2-1.5-1.6-2.5-.4-1-.6-2-.6-3.2 0-1.2.2-2.3.5-3.3s.9-1.9 1.5-2.7c.7-.7 1.5-1.3 2.5-1.7 1-.4 2.1-.6 3.3-.6.9 0 1.8.1 2.6.4.8.2 1.6.6 2.3 1.1.7.5 1.2 1.1 1.6 1.8.4.7.7 1.6.7 2.6h-4.2c0-1.8-1-2.7-2.8-2.7zM100.9 101.9v2.8h-3.1v7.7c0 .7.1 1.2.4 1.4.2.2.7.4 1.4.4h.7c.2 0 .4 0 .6-.1v3.3c-.4.1-.8.1-1.2.1h-1.3c-.7 0-1.3 0-1.9-.1-.6-.1-1.1-.3-1.6-.5-.4-.3-.8-.6-1.1-1.1-.3-.5-.4-1.1-.4-1.9v-9.1h-2.6V102h2.6v-4.6h4.2v4.6h3.3zM103 99.5V96h4.2v3.5H103zm4.3 2.4v15.5H103v-15.5h4.3zM118 104.7c-.7 0-1.2.2-1.7.5s-.8.7-1.1 1.2c-.3.5-.5 1-.6 1.6-.1.6-.2 1.2-.2 1.7 0 .6.1 1.1.2 1.7.1.6.3 1.1.6 1.6s.6.9 1.1 1.2c.5.3 1 .4 1.7.4 1 0 1.8-.3 2.3-.9.5-.6.9-1.3 1-2.3h4.1c-.3 2.1-1.1 3.6-2.4 4.7-1.3 1.1-3 1.6-5.1 1.6-1.2 0-2.2-.2-3.2-.6-1-.4-1.8-.9-2.5-1.6-.7-.7-1.2-1.5-1.6-2.5-.4-1-.6-2-.6-3.2 0-1.2.2-2.3.5-3.3s.9-1.9 1.5-2.7c.7-.7 1.5-1.3 2.5-1.7 1-.4 2.1-.6 3.3-.6.9 0 1.8.1 2.6.4.8.2 1.6.6 2.3 1.1.7.5 1.2 1.1 1.6 1.8.4.7.7 1.6.7 2.6h-4.2c0-1.8-1-2.7-2.8-2.7zM127.6 106.7c.1-1 .3-1.8.7-2.5s1-1.2 1.7-1.6c.7-.4 1.4-.7 2.3-.9.8-.2 1.7-.3 2.6-.3.8 0 1.6.1 2.4.2.8.1 1.5.3 2.2.6.7.3 1.2.8 1.6 1.3.4.6.6 1.3.6 2.3v8c0 .7 0 1.4.1 2 .1.6.2 1.1.4 1.4h-4.3c-.1-.2-.1-.5-.2-.7-.1-.2-.1-.5-.1-.8-.7.7-1.5 1.2-2.4 1.5-.9.3-1.9.4-2.8.4-.7 0-1.4-.1-2.1-.3-.6-.2-1.2-.5-1.7-.8-.5-.4-.9-.9-1.1-1.4-.3-.6-.4-1.3-.4-2.1 0-.9.2-1.6.5-2.2.3-.6.7-1 1.2-1.4.5-.3 1-.6 1.7-.8.6-.2 1.3-.3 1.9-.4.6-.1 1.3-.2 1.9-.2.6-.1 1.2-.1 1.6-.3s.9-.3 1.1-.5c.3-.2.4-.6.4-1 0-.5-.1-.8-.2-1.1s-.3-.5-.6-.6c-.2-.1-.5-.2-.9-.3-.3 0-.7-.1-1.1-.1-.8 0-1.5.2-2 .5s-.8 1-.8 1.8h-4.2zm9.8 3.1c-.2.2-.4.3-.7.4-.3.1-.6.2-.9.2-.3.1-.6.1-1 .1s-.7.1-1 .1c-.3.1-.6.1-.9.2s-.6.2-.8.4l-.6.6c-.1.3-.2.6-.2 1s.1.7.2 1c.1.3.3.5.6.6.2.1.5.3.8.3.3.1.6.1 1 .1.8 0 1.5-.1 1.9-.4.5-.3.8-.6 1-1s.4-.8.4-1.2c0-.4.1-.7.1-1v-1.4zM149.3 96v21.3H145V96h4.3zM177.1 117.4l-3.6-14.5h-.1l-3.6 14.5H165L159.4 96h4.7l3.4 14.5h.1l3.7-14.5h4.4l3.6 14.7h.1l3.5-14.7h4.6l-5.7 21.3h-4.7zM189.3 99.5V96h4.2v3.5h-4.2zm4.2 2.4v15.5h-4.2v-15.5h4.2zM200.5 113.5c.2.3.4.6.7.8.3.2.6.4 1 .5.4.1.8.1 1.2.1.3 0 .6 0 .9-.1l.9-.3c.3-.1.5-.3.7-.6.2-.2.3-.6.3-.9 0-.6-.4-1.1-1.3-1.4-.8-.3-2-.6-3.5-1-.6-.1-1.2-.3-1.8-.5s-1.1-.4-1.6-.7c-.5-.3-.8-.7-1.1-1.2s-.4-1-.4-1.7c0-1 .2-1.8.6-2.5.4-.6.9-1.1 1.5-1.5.6-.4 1.4-.6 2.2-.8.8-.1 1.6-.2 2.5-.2s1.6.1 2.4.2 1.5.4 2.1.8c.6.4 1.1.9 1.5 1.5.4.6.7 1.4.7 2.4h-4c-.1-.8-.4-1.4-.9-1.7-.6-.3-1.2-.4-2-.4h-.8c-.3 0-.5.1-.8.2-.2.1-.4.2-.6.4-.2.2-.2.4-.2.8s.1.7.4.9c.3.2.6.4 1.1.6.4.1 1 .3 1.5.4s1.2.2 1.8.4c.6.1 1.2.3 1.8.5.6.2 1.1.5 1.6.8.5.3.8.7 1.1 1.2.3.5.4 1.1.4 1.8 0 1-.2 1.9-.6 2.6-.4.7-.9 1.2-1.6 1.7-.7.4-1.4.7-2.3.9-.8.2-1.7.3-2.6.3-.9 0-1.8-.1-2.6-.3-.9-.2-1.6-.5-2.3-.9s-1.2-1-1.6-1.7c-.4-.7-.7-1.5-.7-2.6h4c.1.5.2.9.4 1.2zM223.9 115.4c-.5.8-1.2 1.4-2 1.8-.8.4-1.7.6-2.7.6-1.2 0-2.2-.2-3-.7-.9-.4-1.6-1.1-2.2-1.8-.6-.8-1-1.6-1.3-2.6-.3-1-.4-2-.4-3.1 0-1 .1-2 .4-3 .3-1 .7-1.8 1.3-2.6.6-.7 1.3-1.3 2.1-1.8.9-.4 1.9-.7 3-.7.9 0 1.8.2 2.6.6s1.5 1 2 1.7h.1V96h4.2v21.3h-4l-.1-1.9zm-.2-7.7c-.1-.6-.3-1.1-.6-1.6-.3-.4-.7-.8-1.1-1.1-.5-.3-1-.4-1.7-.4s-1.3.1-1.8.4c-.5.3-.9.6-1.2 1.1s-.5 1-.6 1.6-.2 1.2-.2 1.8c0 .6.1 1.2.2 1.8.1.6.4 1.1.7 1.6.3.5.7.8 1.2 1.1.5.3 1 .4 1.7.4s1.3-.1 1.8-.4c.5-.3.8-.7 1.1-1.1.3-.5.5-1 .6-1.6.1-.6.2-1.2.2-1.9-.1-.5-.1-1.1-.3-1.7zM231.3 106.3c.4-1 .9-1.9 1.6-2.6.7-.7 1.5-1.3 2.5-1.6s2.1-.6 3.3-.6 2.3.2 3.3.6c1 .4 1.8.9 2.5 1.6.7.7 1.2 1.6 1.6 2.6.4 1 .6 2.1.6 3.4s-.2 2.4-.6 3.3c-.4 1-.9 1.8-1.6 2.6-.7.7-1.5 1.3-2.5 1.6-1 .4-2.1.6-3.3.6s-2.3-.2-3.3-.6-1.8-.9-2.5-1.6c-.7-.7-1.2-1.6-1.6-2.6-.4-1-.6-2.1-.6-3.3s.2-2.4.6-3.4zm3.9 5.1c.1.6.3 1.1.6 1.6s.7.8 1.2 1.1c.5.3 1.1.4 1.8.4s1.3-.1 1.8-.4c.5-.3.9-.7 1.2-1.1.3-.5.5-1 .6-1.6.1-.6.2-1.2.2-1.8s-.1-1.2-.2-1.8c-.1-.6-.3-1.1-.6-1.6s-.7-.8-1.2-1.1c-.5-.3-1.1-.4-1.8-.4s-1.3.1-1.8.4-.9.7-1.2 1.1c-.3.5-.5 1-.6 1.6-.1.6-.2 1.2-.2 1.8s0 1.3.2 1.8zM253.6 101.9v2.1h.1c.6-.8 1.2-1.4 2-1.9s1.7-.7 2.7-.7c1 0 1.9.2 2.7.6.8.4 1.4 1 1.8 2 .5-.7 1.1-1.3 1.9-1.8.8-.5 1.7-.8 2.8-.8.8 0 1.6.1 2.3.3.7.2 1.3.5 1.8 1 .5.4.9 1 1.2 1.7.3.7.4 1.6.4 2.6v10.3H269v-8.8c0-.5 0-1-.1-1.5 0-.5-.1-.9-.3-1.2-.2-.3-.4-.6-.8-.8-.3-.2-.8-.3-1.4-.3s-1.1.1-1.5.3c-.4.2-.7.5-.9.9-.2.4-.3.8-.4 1.3-.1.5-.1.9-.1 1.4v8.6h-4.2v-8.7-1.4c0-.5-.1-.9-.3-1.2-.1-.4-.4-.7-.7-.9-.3-.2-.9-.3-1.5-.3-.2 0-.5 0-.8.1-.3.1-.6.3-1 .5-.3.2-.6.6-.8 1.1-.2.5-.3 1.1-.3 1.8v9h-4.2v-15.5h3.9z"/><g><path class="st0" d="M66.9 134.6v-2.8h2.5v-1.2c0-1.4.4-2.5 1.3-3.4.9-.9 2.2-1.3 3.9-1.3h1.1c.4 0 .7.1 1.1.1v3.2c-.5-.1-1-.1-1.6-.1-.6 0-1 .1-1.2.4-.2.3-.4.7-.4 1.4v.9h2.9v2.8h-2.9v12.6h-4.2v-12.6h-2.5zM78.5 136.2c.4-1 .9-1.9 1.6-2.6.7-.7 1.5-1.3 2.5-1.6 1-.4 2.1-.6 3.3-.6s2.3.2 3.3.6c1 .4 1.8.9 2.5 1.6.7.7 1.2 1.6 1.6 2.6.4 1 .6 2.1.6 3.4s-.2 2.4-.6 3.3c-.4 1-.9 1.8-1.6 2.6-.7.7-1.5 1.3-2.5 1.6-1 .4-2.1.6-3.3.6s-2.3-.2-3.3-.6c-1-.4-1.8-.9-2.5-1.6-.7-.7-1.2-1.6-1.6-2.6-.4-1-.6-2.1-.6-3.3s.2-2.4.6-3.4zm3.9 5.1c.1.6.3 1.1.6 1.6s.7.8 1.2 1.1c.5.3 1.1.4 1.8.4s1.3-.1 1.8-.4c.5-.3.9-.7 1.2-1.1.3-.5.5-1 .6-1.6.1-.6.2-1.2.2-1.8s-.1-1.2-.2-1.8c-.1-.6-.3-1.1-.6-1.6s-.7-.8-1.2-1.1c-.5-.3-1.1-.4-1.8-.4s-1.3.1-1.8.4c-.5.3-.9.7-1.2 1.1-.3.5-.5 1-.6 1.6-.1.6-.2 1.2-.2 1.8s.1 1.3.2 1.8zM100.7 131.8v2.9h.1c.2-.5.5-.9.8-1.3.3-.4.7-.8 1.2-1 .4-.3.9-.5 1.4-.7.5-.2 1-.2 1.6-.2.3 0 .6.1.9.1v3.9c-.2 0-.4-.1-.7-.1h-.8c-.8 0-1.4.1-2 .4s-1 .6-1.3 1.1c-.3.4-.6 1-.7 1.6s-.2 1.2-.2 1.9v7h-4.2v-15.5h3.9zM126.3 125.9c1.4 0 2.7.2 3.8.7 1.2.4 2.2 1.1 3.1 2s1.5 2 2 3.3c.5 1.3.7 2.9.7 4.6 0 1.6-.2 3-.6 4.3-.4 1.3-1 2.5-1.8 3.4-.8 1-1.8 1.7-3 2.3-1.2.5-2.6.8-4.3.8H117V126h9.3zm-.3 17.4c.7 0 1.3-.1 2-.3.6-.2 1.2-.6 1.7-1.1.5-.5.9-1.2 1.2-2 .3-.8.4-1.8.4-3 0-1.1-.1-2-.3-2.9-.2-.9-.6-1.6-1-2.2-.5-.6-1.1-1.1-1.9-1.4s-1.8-.5-2.9-.5h-3.3v13.5h4.1zM143.3 143.5c.6.6 1.6.9 2.8.9.9 0 1.6-.2 2.2-.6.6-.4 1-.9 1.1-1.4h3.7c-.6 1.9-1.5 3.2-2.8 4-1.2.8-2.7 1.2-4.5 1.2-1.2 0-2.3-.2-3.3-.6s-1.8-.9-2.5-1.7c-.7-.7-1.2-1.6-1.6-2.6-.4-1-.6-2.1-.6-3.3 0-1.2.2-2.2.6-3.2.4-1 .9-1.9 1.6-2.6.7-.7 1.5-1.3 2.5-1.7 1-.4 2-.6 3.2-.6 1.3 0 2.5.3 3.4.8 1 .5 1.8 1.2 2.4 2 .6.9 1.1 1.8 1.4 2.9.3 1.1.4 2.2.3 3.4H142c.4 1.5.7 2.5 1.3 3.1zm4.8-8.1c-.5-.6-1.3-.8-2.3-.8-.7 0-1.2.1-1.7.3-.4.2-.8.5-1.1.9-.3.3-.5.7-.6 1.1-.1.4-.2.7-.2 1h6.9c-.1-1.1-.5-1.9-1-2.5zM160 131.8v2.2h.1c.5-.9 1.2-1.5 2.1-2 .9-.4 1.7-.6 2.6-.6 1.1 0 2.1.2 2.8.5.7.3 1.3.7 1.7 1.3.4.5.7 1.2.9 2s.3 1.7.3 2.6v9.5h-4.2v-8.7c0-1.3-.2-2.2-.6-2.9-.4-.6-1.1-.9-2.1-.9-1.2 0-2 .3-2.5 1s-.8 1.8-.8 3.4v8.1H156v-15.5h4zM182.2 131.8v2.8h-3.1v7.7c0 .7.1 1.2.4 1.4s.7.4 1.4.4h.7c.2 0 .4 0 .6-.1v3.3c-.4.1-.8.1-1.2.1h-1.3c-.7 0-1.3 0-1.9-.1-.6-.1-1.1-.3-1.6-.5-.4-.3-.8-.6-1.1-1.1-.3-.5-.4-1.1-.4-1.9v-9.1h-2.6v-2.8h2.6v-4.6h4.2v4.6h3.3zM184.3 129.4v-3.5h4.2v3.5h-4.2zm4.3 2.4v15.5h-4.2v-15.5h4.2zM195.5 143.4c.2.3.4.6.7.8.3.2.6.4 1 .5s.8.1 1.2.1c.3 0 .6 0 .9-.1l.9-.3c.3-.1.5-.3.7-.6.2-.2.3-.6.3-.9 0-.6-.4-1.1-1.3-1.4-.8-.3-2-.6-3.5-1-.6-.1-1.2-.3-1.8-.5s-1.1-.4-1.6-.7c-.5-.3-.8-.7-1.1-1.2-.3-.5-.4-1-.4-1.7 0-1 .2-1.8.6-2.5.4-.6.9-1.1 1.5-1.5.6-.4 1.4-.6 2.2-.8.8-.1 1.6-.2 2.5-.2s1.6.1 2.4.2c.8.2 1.5.4 2.1.8.6.4 1.1.9 1.5 1.5.4.6.7 1.4.7 2.4h-4c-.1-.8-.4-1.4-.9-1.7-.6-.3-1.2-.4-2-.4h-.8c-.3 0-.5.1-.8.2-.2.1-.4.2-.6.4-.2.2-.2.4-.2.8s.1.7.4.9c.3.2.6.4 1.1.6s1 .3 1.5.4c.6.1 1.2.2 1.8.4.6.1 1.2.3 1.8.5.6.2 1.1.5 1.6.8.5.3.8.7 1.1 1.2.3.5.4 1.1.4 1.8 0 1-.2 1.9-.6 2.6-.4.7-.9 1.2-1.6 1.7-.7.4-1.4.7-2.3.9s-1.7.3-2.6.3c-.9 0-1.8-.1-2.6-.3-.9-.2-1.6-.5-2.3-.9s-1.2-1-1.6-1.7-.7-1.5-.7-2.6h4c.1.5.2.9.4 1.2zM216.5 131.8v2.8h-3.1v7.7c0 .7.1 1.2.4 1.4s.7.4 1.4.4h.7c.2 0 .4 0 .6-.1v3.3c-.4.1-.8.1-1.2.1H214c-.7 0-1.3 0-1.9-.1-.6-.1-1.1-.3-1.6-.5-.4-.3-.8-.6-1.1-1.1-.3-.5-.4-1.1-.4-1.9v-9.1h-2.6v-2.8h2.6v-4.6h4.2v4.6h3.3zM222.1 143.4c.2.3.4.6.7.8.3.2.6.4 1 .5s.8.1 1.2.1c.3 0 .6 0 .9-.1l.9-.3c.3-.1.5-.3.7-.6.2-.2.3-.6.3-.9 0-.6-.4-1.1-1.3-1.4-.8-.3-2-.6-3.5-1-.6-.1-1.2-.3-1.8-.5s-1.1-.4-1.6-.7c-.5-.3-.8-.7-1.1-1.2-.3-.5-.4-1-.4-1.7 0-1 .2-1.8.6-2.5.4-.6.9-1.1 1.5-1.5.6-.4 1.4-.6 2.2-.8.8-.1 1.6-.2 2.5-.2s1.6.1 2.4.2c.8.2 1.5.4 2.1.8.6.4 1.1.9 1.5 1.5.4.6.7 1.4.7 2.4h-4c-.1-.8-.4-1.4-.9-1.7-.6-.3-1.2-.4-2-.4h-.8c-.3 0-.5.1-.8.2-.2.1-.4.2-.6.4-.2.2-.2.4-.2.8s.1.7.4.9c.3.2.6.4 1.1.6s1 .3 1.5.4c.6.1 1.2.2 1.8.4.6.1 1.2.3 1.8.5.6.2 1.1.5 1.6.8.5.3.8.7 1.1 1.2.3.5.4 1.1.4 1.8 0 1-.2 1.9-.6 2.6-.4.7-.9 1.2-1.6 1.7-.7.4-1.4.7-2.3.9s-1.7.3-2.6.3c-.9 0-1.8-.1-2.6-.3-.9-.2-1.6-.5-2.3-.9s-1.2-1-1.6-1.7-.7-1.5-.7-2.6h4c.1.5.2.9.4 1.2z"/></g></svg>