<svg id="Layer_1" xmlns="http://www.w3.org/2000/svg" viewBox="0 0 320 50"><style>.st0{fill:#393}</style><path class="st0" d="M17.5 8.1c.8 0 1.5.1 2.1.4.6.2 1.1.6 1.4 1 .4.4.6.8.8 1.4s.2 1 .2 1.6c0 .5-.1 1.1-.2 1.6s-.4 1-.8 1.4-.8.7-1.4 1c-.6.2-1.3.4-2.1.4h-3.1v4.7h-2.9V8.1h6zm-.8 6.3c.3 0 .7 0 1-.1s.6-.1.8-.3c.2-.1.4-.3.6-.6.1-.3.2-.6.2-1s-.1-.8-.2-1c-.1-.3-.3-.5-.6-.6-.2-.1-.5-.2-.8-.3s-.6-.1-1-.1h-2.3v4h2.3zM26.1 11.8v1.8c.1-.3.3-.6.5-.8.2-.3.4-.5.7-.6.3-.2.6-.3.9-.4.3-.1.6-.1 1-.1.2 0 .4 0 .6.1v2.4c-.1 0-.3 0-.4-.1h-.5c-.5 0-.9.1-1.2.2-.3.2-.6.4-.8.7-.2.3-.3.6-.4 1-.1.4-.1.8-.1 1.2v4.3h-2.6v-9.6h2.3zM30.7 14.7c0-.6.2-1.1.5-1.5.3-.4.6-.7 1-1 .4-.2.9-.4 1.4-.5.5-.1 1.1-.2 1.6-.2s1 0 1.5.1.9.2 1.4.4c.4.2.7.5 1 .8.3.4.4.8.4 1.4v5c0 .4 0 .8.1 1.2 0 .4.1.7.3.9H37c0-.1-.1-.3-.1-.5s-.1-.3-.1-.5c-.4.4-.9.7-1.5.9-.6.2-1.1.3-1.7.3-.5 0-.9-.1-1.3-.2s-.7-.3-1-.5c-.3-.2-.5-.5-.7-.9-.2-.4-.2-.8-.2-1.3s.1-1 .3-1.3c.2-.4.4-.6.7-.8.3-.2.6-.4 1-.5.4-.1.8-.2 1.2-.2.4-.1.8-.1 1.2-.1.4 0 .7-.1 1-.2.3-.1.5-.2.7-.3.2-.1.3-.3.2-.6 0-.3 0-.5-.1-.7-.1-.2-.2-.3-.4-.4-.2-.1-.3-.2-.5-.2H35c-.5 0-.9.1-1.2.3-.3.2-.5.6-.5 1.1h-2.6zm6 2c-.1.1-.2.2-.4.2s-.3.1-.5.1-.4.1-.6.1c-.2 0-.4.1-.6.1-.2 0-.4.1-.6.1-.2.1-.4.1-.5.2-.1.1-.3.2-.3.4-.2.3-.2.5-.2.7 0 .2 0 .4.1.6.1.2.2.3.4.4.1.1.3.2.5.2s.4.1.6.1c.5 0 .9-.1 1.2-.3s.5-.4.6-.6c.1-.2.2-.5.2-.7v-1.6zM46 13.5c-.4 0-.8.1-1.1.3-.3.2-.5.4-.7.7-.2.3-.3.6-.4 1-.1.4-.1.7-.1 1.1 0 .3 0 .7.1 1.1.1.4.2.7.4 1 .2.3.4.5.7.7s.6.3 1 .3c.6 0 1.1-.2 1.5-.5.3-.4.6-.8.6-1.4h2.5c-.2 1.3-.7 2.2-1.5 2.9s-1.9 1-3.1 1c-.7 0-1.4-.1-2-.4-.6-.2-1.1-.6-1.5-1-.4-.4-.7-.9-1-1.5-.2-.6-.4-1.3-.4-2s.1-1.4.3-2.1c.2-.6.5-1.2 1-1.6.4-.5.9-.8 1.5-1.1.6-.3 1.3-.4 2.1-.4.6 0 1.1.1 1.6.2s1 .4 1.4.7c.4.3.7.7 1 1.1.3.5.4 1 .4 1.6h-2.6c0-1.1-.6-1.7-1.7-1.7zM57.3 11.8v1.8h-1.9v4.7c0 .4.1.7.2.9.1.1.4.2.9.2h.4c.1 0 .3 0 .4-.1v2c-.2 0-.5.1-.7.1h-.8c-.4 0-.8 0-1.2-.1s-.7-.2-1-.3c-.3-.2-.5-.4-.7-.7s-.2-.7-.2-1.2v-5.6h-1.6v-1.8h1.6V8.9h2.6v2.9h2zM58.6 10.3V8.1h2.6v2.2h-2.6zm2.6 1.5v9.6h-2.6v-9.6h2.6zM67.9 13.5c-.4 0-.8.1-1.1.3-.3.2-.5.4-.7.7-.2.3-.3.6-.4 1-.1.4-.1.7-.1 1.1 0 .3 0 .7.1 1.1.1.4.2.7.4 1 .2.3.4.5.7.7s.6.3 1 .3c.6 0 1.1-.2 1.5-.5.3-.4.6-.8.6-1.4h2.5c-.2 1.3-.7 2.2-1.5 2.9s-1.9 1-3.1 1c-.7 0-1.4-.1-2-.4-.6-.2-1.1-.6-1.5-1-.4-.4-.7-.9-1-1.5-.2-.6-.4-1.3-.4-2s.1-1.4.3-2.1c.2-.6.5-1.2 1-1.6.4-.5.9-.8 1.5-1.1.6-.3 1.3-.4 2.1-.4.6 0 1.1.1 1.6.2s1 .4 1.4.7c.4.3.7.7 1 1.1.3.5.4 1 .4 1.6h-2.6c0-1.1-.6-1.7-1.7-1.7zM73.8 14.7c0-.6.2-1.1.5-1.5.3-.4.6-.7 1-1 .4-.2.9-.4 1.4-.5.5-.1 1.1-.2 1.6-.2s1 0 1.5.1.9.2 1.4.4c.4.2.7.5 1 .8.3.4.4.8.4 1.4v5c0 .4 0 .8.1 1.2 0 .4.1.7.3.9h-2.7c0-.1-.1-.3-.1-.5s-.1-.3-.1-.5c-.4.4-.9.7-1.5.9-.6.2-1.1.3-1.7.3-.5 0-.9-.1-1.3-.2s-.7-.3-1-.5c-.3-.2-.5-.5-.7-.9-.2-.4-.2-.8-.2-1.3s.1-1 .3-1.3c.2-.4.4-.6.7-.8.3-.2.6-.4 1-.5.4-.1.8-.2 1.2-.2.4-.1.8-.1 1.2-.1.4 0 .7-.1 1-.2.3-.1.5-.2.7-.3.2-.1.3-.3.2-.6 0-.3 0-.5-.1-.7-.1-.2-.2-.3-.4-.4-.2-.1-.3-.2-.5-.2h-.7c-.5 0-.9.1-1.2.3-.3.2-.5.6-.5 1.1h-2.8zm6.1 2c-.1.1-.2.2-.4.2s-.4.1-.6.1c-.2 0-.4.1-.6.1-.2 0-.4.1-.6.1-.2 0-.4.1-.6.1-.2.1-.4.1-.5.2-.1.1-.3.2-.3.4-.1.2-.1.4-.1.6 0 .2 0 .4.1.6.1.2.2.3.4.4.1.1.3.2.5.2s.4.1.6.1c.5 0 .9-.1 1.2-.3s.5-.4.6-.6c.1-.2.2-.5.2-.7v-1.5zM87.2 8.1v13.2h-2.6V8.1h2.6zM104.4 21.3l-2.2-9-2.2 9h-3L93.5 8.1h2.9l2.1 9 2.3-9h2.7l2.3 9.1 2.2-9.1h2.8l-3.6 13.2h-2.8zM112 10.3V8.1h2.6v2.2H112zm2.6 1.5v9.6H112v-9.6h2.6zM118.9 19c.1.2.3.4.5.5l.6.3c.2.1.5.1.7.1.2 0 .4 0 .6-.1.2 0 .4-.1.6-.2.2-.1.3-.2.4-.4s.2-.3.2-.6c0-.4-.3-.7-.8-.9-.5-.2-1.3-.4-2.2-.6-.4-.1-.8-.2-1.1-.3-.4-.1-.7-.3-1-.5-.3-.2-.5-.4-.7-.7-.2-.3-.3-.6-.3-1.1 0-.6.1-1.1.4-1.5.2-.4.6-.7 1-.9.4-.2.8-.4 1.3-.5.5-.1 1-.1 1.5-.1s1 0 1.5.1.9.3 1.3.5.7.5 1 .9.4.9.5 1.5h-2.5c0-.5-.2-.8-.6-1-.3-.2-.8-.3-1.2-.3h-.5c-.2 0-.3.1-.5.1-.1.1-.3.2-.4.3-.1.1-.1.3-.1.5s.1.4.3.6c.2.1.4.3.7.4.3.1.6.2 1 .2.4.1.7.2 1.1.2.4.1.8.2 1.1.3.4.1.7.3 1 .5.3.2.5.5.7.8.2.3.3.7.3 1.1 0 .6-.1 1.2-.4 1.6s-.6.8-1 1c-.4.3-.9.4-1.4.5-.5.1-1.1.2-1.6.2-.6 0-1.1-.1-1.6-.2s-1-.3-1.4-.6c-.4-.3-.8-.6-1-1-.3-.4-.4-1-.4-1.6h2.5c-.3.4-.2.7-.1.9zM133.4 20.1c-.3.5-.7.9-1.2 1.1s-1.1.3-1.7.3c-.7 0-1.3-.1-1.9-.4-.5-.3-1-.7-1.3-1.1-.4-.5-.6-1-.8-1.6-.2-.6-.3-1.3-.3-1.9 0-.6.1-1.3.3-1.9.2-.6.4-1.1.8-1.6s.8-.8 1.3-1.1 1.1-.4 1.9-.4c.6 0 1.1.1 1.6.4.5.2.9.6 1.2 1.1V8.1h2.6v13.2h-2.5v-1.2zm-.1-4.7c-.1-.4-.2-.7-.4-1-.2-.3-.4-.5-.7-.7s-.6-.3-1.1-.3c-.4 0-.8.1-1.1.3s-.5.4-.7.7-.3.6-.4 1c-.1.4-.1.7-.1 1.1 0 .4 0 .7.1 1.1.1.4.2.7.4 1 .2.3.4.5.7.7.3.2.6.3 1 .3s.8-.1 1.1-.3c.3-.2.5-.4.7-.7.2-.3.3-.6.4-1 .1-.4.1-.8.1-1.1.1-.4.1-.7 0-1.1zM138 14.5c.2-.6.6-1.2 1-1.6.4-.4.9-.8 1.6-1 .6-.2 1.3-.4 2-.4.8 0 1.4.1 2 .4.6.2 1.1.6 1.6 1 .4.4.8 1 1 1.6.2.6.4 1.3.4 2.1s-.1 1.5-.4 2.1c-.2.6-.6 1.1-1 1.6s-1 .8-1.6 1c-.6.2-1.3.4-2 .4-.8 0-1.4-.1-2-.4-.6-.2-1.1-.6-1.6-1-.4-.4-.8-1-1-1.6-.2-.6-.4-1.3-.4-2.1s.1-1.5.4-2.1zm2.4 3.2c.1.4.2.7.4 1 .2.3.4.5.7.7.3.2.7.3 1.1.3s.8-.1 1.1-.3c.3-.2.5-.4.7-.7.2-.3.3-.6.4-1 .1-.4.1-.7.1-1.1s0-.8-.1-1.1c-.1-.4-.2-.7-.4-1-.2-.3-.4-.5-.7-.7s-.7-.3-1.1-.3-.8.1-1.1.3c-.3.2-.5.4-.7.7-.2.3-.3.6-.4 1-.1.4-.1.7-.1 1.1s0 .7.1 1.1zM151.8 11.8v1.3c.3-.5.8-.9 1.2-1.1.5-.3 1-.4 1.7-.4.6 0 1.2.1 1.7.4.5.2.9.6 1.1 1.2.3-.4.7-.8 1.2-1.1s1.1-.5 1.7-.5c.5 0 1 .1 1.4.2.4.1.8.3 1.1.6.3.3.5.6.7 1.1.2.4.3 1 .3 1.6v6.4h-2.6v-5.4-.9c0-.3-.1-.5-.2-.7-.1-.2-.3-.4-.5-.5-.2-.1-.5-.2-.9-.2s-.7.1-.9.2c-.2.1-.4.3-.5.6-.1.2-.2.5-.3.8 0 .3-.1.6-.1.9v5.3h-2.6V16v-.8c0-.3-.1-.5-.2-.8-.1-.2-.2-.4-.5-.6s-.5-.2-1-.2c-.1 0-.3 0-.5.1l-.6.3c-.2.1-.4.4-.5.7-.1.3-.2.7-.2 1.1v5.5h-2.6v-9.6h2.6z"/><g><path class="st0" d="M10.2 32v-1.8h1.6v-.7c0-.9.3-1.5.8-2.1.5-.5 1.3-.8 2.4-.8h1.4v2c-.3 0-.6-.1-1-.1s-.6.1-.8.2c-.2.2-.2.4-.2.8v.6h1.8V32h-1.8v7.8h-2.6V32h-1.6zM17.4 33c.2-.6.6-1.2 1-1.6.4-.4.9-.8 1.6-1 .6-.2 1.3-.4 2-.4.8 0 1.4.1 2 .4.6.2 1.1.6 1.6 1 .4.4.8 1 1 1.6.2.6.4 1.3.4 2.1s-.1 1.5-.4 2.1c-.2.6-.6 1.1-1 1.6s-1 .8-1.6 1c-.6.2-1.3.4-2 .4-.8 0-1.4-.1-2-.4-.6-.2-1.1-.6-1.6-1-.4-.4-.8-1-1-1.6-.2-.6-.4-1.3-.4-2.1.1-.8.2-1.5.4-2.1zm2.4 3.2c.1.4.2.7.4 1 .2.3.4.5.7.7.3.2.7.3 1.1.3s.8-.1 1.1-.3.5-.4.7-.7c.2-.3.3-.6.4-1 .1-.4.1-.7.1-1.1 0-.4 0-.8-.1-1.1-.1-.4-.2-.7-.4-1-.2-.3-.4-.5-.7-.7-.2-.2-.6-.3-1.1-.3s-.8.1-1.1.3c-.3.2-.5.4-.7.7-.2.3-.3.6-.4 1-.1.4-.1.7-.1 1.1 0 .4.1.7.1 1.1zM31.2 30.3v1.8c.1-.3.3-.6.5-.8.2-.3.4-.5.7-.6s.6-.3.9-.4c.3-.1.6-.1 1-.1.2 0 .4 0 .6.1v2.4c-.1 0-.3 0-.4-.1s-.3 0-.5 0c-.5 0-.9.1-1.2.2s-.6.4-.8.7c-.2.3-.3.6-.4 1s-.1.8-.1 1.2V40h-2.6v-9.6h2.3zM47 26.6c.9 0 1.6.1 2.4.4s1.4.7 1.9 1.2 1 1.2 1.3 2c.3.8.5 1.8.5 2.9 0 1-.1 1.9-.4 2.7-.2.8-.6 1.5-1.1 2.1-.5.6-1.1 1.1-1.9 1.4-.7.3-1.6.5-2.6.5h-5.7V26.6H47zm-.2 10.8c.4 0 .8-.1 1.2-.2.4-.1.7-.4 1.1-.7s.6-.7.7-1.2.3-1.1.3-1.9c0-.7-.1-1.3-.2-1.8s-.3-1-.6-1.4c-.3-.4-.7-.7-1.2-.9-.5-.2-1.1-.3-1.8-.3h-2.1v8.3h2.6zM57.6 37.6c.4.4 1 .6 1.7.6.5 0 1-.1 1.4-.4s.6-.5.7-.8h2.3c-.4 1.1-.9 2-1.7 2.5s-1.7.7-2.8.7c-.8 0-1.4-.1-2-.4-.6-.2-1.1-.6-1.5-1-.4-.4-.7-1-1-1.6-.2-.6-.3-1.3-.3-2s.1-1.4.4-2c.2-.6.6-1.1 1-1.6s.9-.8 1.5-1.1c.6-.3 1.3-.4 2-.4.8 0 1.5.2 2.1.5s1.1.7 1.5 1.3c.4.5.7 1.1.8 1.8.2.7.2 1.4.2 2.1H57c-.1.8.2 1.4.6 1.8zm2.9-5.1c-.3-.3-.8-.5-1.4-.5-.4 0-.8.1-1 .2s-.5.3-.7.5c-.2.2-.3.4-.4.7-.1.2-.1.4-.1.6h4.3c-.1-.6-.4-1.1-.7-1.5zM67.9 30.3v1.3h.1c.3-.6.8-1 1.3-1.2.5-.3 1.1-.4 1.6-.4.7 0 1.3.1 1.7.3.5.2.8.5 1.1.8.3.3.4.8.5 1.2.1.5.2 1 .2 1.6v5.9h-2.6v-5.4c0-.8-.1-1.4-.4-1.8-.2-.4-.7-.6-1.3-.6-.7 0-1.2.2-1.6.6s-.5 1.3-.5 2.2v5h-2.6v-9.6h2.5zM81.6 30.3V32h-1.9v4.7c0 .4.1.7.2.9.1.1.4.2.9.2h.4c.1 0 .3 0 .4-.1v2c-.2 0-.5.1-.7.1h-.8c-.4 0-.8 0-1.2-.1-.4-.1-.7-.2-1-.3-.3-.2-.5-.4-.7-.7s-.2-.5-.2-1V32h-1.6v-1.8H77v-2.9h2.6v2.9h2zM82.9 28.8v-2.2h2.6v2.2h-2.6zm2.6 1.5v9.6h-2.6v-9.6h2.6zM89.8 37.5c.1.2.3.4.5.5l.6.3c.2.1.5.1.7.1.2 0 .4 0 .6-.1.2 0 .4-.1.6-.2s.3-.2.4-.4.2-.3.2-.6c0-.4-.3-.7-.8-.9-.5-.2-1.3-.4-2.2-.6-.4-.1-.8-.2-1.1-.3-.4-.1-.7-.3-1-.5-.3-.2-.5-.4-.7-.7-.2-.3-.3-.6-.3-1.1 0-.6.1-1.1.4-1.5.2-.4.6-.7 1-.9.4-.2.8-.4 1.3-.5s1-.1 1.5-.1 1 0 1.5.1.9.3 1.3.5.7.5 1 .9c.3.4.4.9.5 1.5h-2.5c0-.5-.2-.8-.6-1s-.8-.3-1.2-.3H91c-.2 0-.3.1-.5.1-.1.1-.3.2-.4.3-.1.1-.1.3-.1.5s.1.4.3.6c.2.1.4.3.7.4.3.1.6.2 1 .2.4.1.7.2 1.1.2.4.1.8.2 1.1.3.4.1.7.3 1 .5.3.2.5.5.7.8.2.3.3.7.3 1.1 0 .6-.1 1.2-.4 1.6s-.6.8-1 1c-.4.3-.9.4-1.4.5-.5.1-1.1.2-1.6.2-.6 0-1.1-.1-1.6-.2s-1-.3-1.4-.6c-.4-.3-.8-.6-1-1s-.4-1-.4-1.6h2.5c-.2.4-.2.7-.1.9zM102.8 30.3V32h-1.9v4.7c0 .4.1.7.2.9.1.1.4.2.9.2h.4c.1 0 .3 0 .4-.1v2c-.2 0-.5.1-.7.1h-.8c-.4 0-.8 0-1.2-.1-.4-.1-.7-.2-1-.3-.3-.2-.5-.4-.7-.7s-.2-.7-.2-1.2V32h-1.6v-1.8h1.6v-2.9h2.6v2.9h2zM106.3 37.5c.1.2.3.4.5.5l.6.3c.2.1.5.1.7.1.2 0 .4 0 .6-.1.2 0 .4-.1.6-.2s.3-.2.4-.4.2-.3.2-.6c0-.4-.3-.7-.8-.9-.5-.2-1.3-.4-2.2-.6-.4-.1-.8-.2-1.1-.3-.4-.1-.7-.3-1-.5-.3-.2-.5-.4-.7-.7-.2-.3-.3-.6-.3-1.1 0-.6.1-1.1.4-1.5.2-.4.6-.7 1-.9.4-.2.8-.4 1.3-.5s1-.1 1.5-.1 1 0 1.5.1.9.3 1.3.5.7.5 1 .9c.3.4.4.9.5 1.5h-2.5c0-.5-.2-.8-.6-1s-.8-.3-1.2-.3h-.5c-.2 0-.3.1-.5.1-.1.1-.3.2-.4.3-.1.1-.1.3-.1.5s.1.4.3.6c.2.1.4.3.7.4.3.1.6.2 1 .2.4.1.7.2 1.1.2.4.1.8.2 1.1.3.4.1.7.3 1 .5.3.2.5.5.7.8.2.3.3.7.3 1.1 0 .6-.1 1.2-.4 1.6s-.6.8-1 1c-.4.3-.9.4-1.4.5-.5.1-1.1.2-1.6.2-.6 0-1.1-.1-1.6-.2s-1-.3-1.4-.6c-.4-.3-.8-.6-1-1s-.4-1-.4-1.6h2.5c-.3.4-.2.7-.1.9z"/></g></svg>