<svg id="Layer_1" xmlns="http://www.w3.org/2000/svg" viewBox="0 0 320 50"><style>.st0{fill:#393}.st1{fill:#231f20}</style><path class="st0" d="M14.4 8.1v13.2h-2.9V8.1h2.9zM15.7 13.5v-1.8h1.6V11c0-.9.3-1.5.8-2.1.5-.5 1.3-.8 2.4-.8h1.4v2c-.3 0-.6-.1-1-.1s-.6.1-.8.2-.2.4-.2.8v.6h1.8v1.8h-1.8v7.8h-2.6v-7.8h-1.6zM33.2 11.8v1.8h-1.9v4.7c0 .4.1.7.2.9.1.1.4.2.9.2h.4c.1 0 .3 0 .4-.1v2c-.2 0-.5.1-.7.1h-.8c-.4 0-.8 0-1.2-.1s-.7-.2-1-.3c-.3-.2-.5-.4-.7-.7s-.2-.7-.2-1.2v-5.6H27v-1.8h1.6V8.9h2.6v2.9h2zM37.1 8.1v5h.1c.3-.6.8-1 1.3-1.2.5-.3 1-.4 1.5-.4.7 0 1.3.1 1.7.3s.8.5 1.1.8c.3.3.4.8.5 1.2.1.5.2 1 .2 1.6v5.9h-2.6v-5.4c0-.8-.1-1.4-.4-1.8-.2-.4-.7-.6-1.3-.6-.7 0-1.2.2-1.6.6s-.5 1.1-.5 2.1v5h-2.6V8.1h2.6zM48.3 19.1c.4.4 1 .6 1.7.6.5 0 1-.1 1.4-.4s.6-.5.7-.8h2.3c-.4 1.1-.9 2-1.7 2.5-.8.5-1.7.7-2.8.7-.8 0-1.4-.1-2-.4-.6-.2-1.1-.6-1.5-1-.4-.4-.7-1-1-1.6-.2-.6-.3-1.3-.3-2s.1-1.4.4-2c.2-.6.6-1.1 1-1.6s.9-.8 1.5-1.1c.6-.3 1.3-.4 2-.4.8 0 1.5.2 2.1.5s1.1.7 1.5 1.3c.4.5.7 1.1.8 1.8s.2 1.4.2 2.1h-6.9c0 .8.2 1.4.6 1.8zm3-5.1c-.3-.3-.8-.5-1.4-.5-.4 0-.8.1-1 .2-.3.1-.5.3-.7.5-.2.2-.3.4-.4.7s-.1.4-.1.6H52c-.2-.6-.4-1.1-.7-1.5z"/><g><path class="st1" d="M68.6 8.1c.6 0 1.1.1 1.6.3.5.2.9.5 1.2.8.3.3.6.7.8 1.2.2.4.3.9.3 1.4 0 .8-.2 1.4-.5 2-.3.6-.9 1-1.6 1.3.4.1.7.2.9.5s.4.4.6.7c.1.3.3.6.3.9.1.3.1.7.1 1v.7c0 .3 0 .6.1.9s.1.6.1.8c.1.3.2.5.3.7H70c-.2-.4-.3-.9-.3-1.5s-.1-1.1-.2-1.7c-.1-.7-.3-1.2-.6-1.5-.3-.3-.8-.5-1.6-.5h-2.9v5.2h-2.9V8.1h7.1zm-1 6c.7 0 1.2-.1 1.5-.4.3-.3.5-.8.5-1.4 0-.6-.2-1.1-.5-1.4-.3-.3-.8-.4-1.5-.4h-3.2v3.7h3.2zM84.8 8.1v2.4h-7v2.8h6.4v2.3h-6.4v3.2h7.1v2.4h-10V8.1h9.9zM85.8 10.6V8.1h10.8v2.4h-4v10.8h-2.9V10.6h-3.9zM103.1 8.1l4.9 13.2h-3l-1-2.9h-4.9l-1 2.9h-2.9l5-13.2h2.9zm.1 8.1l-1.7-4.8-1.7 4.8h3.4zM112.1 8.1v13.2h-2.9V8.1h2.9zM117.5 8.1L123 17V8.1h2.7v13.2h-2.9l-5.5-8.8v8.8h-2.7V8.1h2.9zM138.2 8.1v2.4h-7v2.8h6.4v2.3h-6.4v3.2h7.1v2.4h-10V8.1h9.9zM147.4 8.1c.6 0 1.1.1 1.6.3.5.2.9.5 1.2.8.3.3.6.7.8 1.2.2.4.3.9.3 1.4 0 .8-.2 1.4-.5 2s-.9 1-1.6 1.3c.4.1.7.2.9.5s.4.4.6.7c.1.3.3.6.3.9s.1.7.1 1v.7c0 .3 0 .6.1.9s.1.6.1.8c.1.3.2.5.3.7h-2.9c-.2-.4-.3-.9-.3-1.5s-.1-1.1-.2-1.7c-.1-.7-.3-1.2-.6-1.5-.3-.3-.8-.5-1.6-.5h-2.9v5.2h-2.9V8.1h7.2zm-1 6c.7 0 1.2-.1 1.5-.4.3-.3.5-.8.5-1.4 0-.6-.2-1.1-.5-1.4-.3-.3-.8-.4-1.5-.4h-3.2v3.7h3.2zM168.1 8.1v2.4h-6.4v3.1h5.5v2.3h-5.5v5.5h-2.9V8.1h9.3zM172.7 8.1v13.2h-2.9V8.1h2.9zM174.2 10.6V8.1H185v2.4h-4v10.8h-2.9V10.6h-3.9zM188.8 18.1c.2.3.4.6.6.7.3.2.6.3.9.4.4.1.7.1 1.1.1.3 0 .5 0 .8-.1.3 0 .6-.1.8-.2.3-.1.5-.3.6-.5s.3-.5.3-.8c0-.4-.1-.6-.3-.9s-.5-.4-.9-.6-.8-.3-1.3-.4c-.5-.1-.9-.2-1.4-.4-.5-.1-1-.3-1.4-.5s-.9-.4-1.3-.7c-.4-.3-.7-.6-.9-1.1-.2-.4-.3-.9-.3-1.5 0-.7.1-1.3.4-1.8.3-.5.7-.9 1.1-1.2.5-.3 1-.6 1.6-.7.6-.2 1.2-.2 1.8-.2.7 0 1.4.1 2 .2.6.2 1.2.4 1.7.7s.9.8 1.2 1.3.4 1.2.4 2h-2.8c0-.4-.1-.7-.2-1s-.3-.5-.6-.6-.5-.3-.8-.3c-.3-.1-.6-.1-1-.1-.2 0-.5 0-.7.1s-.4.1-.6.3c-.2.1-.3.3-.5.5-.1.2-.2.4-.2.7 0 .3 0 .5.1.6.1.2.3.3.6.4s.7.3 1.2.4c.5.1 1.2.3 2 .5.2 0 .6.1 1 .3.4.1.9.3 1.3.6s.8.7 1.1 1.1.5 1.1.5 1.8c0 .6-.1 1.2-.4 1.7-.2.5-.6 1-1 1.3-.5.4-1 .7-1.7.9s-1.5.3-2.4.3c-.7 0-1.4-.1-2.1-.3-.7-.2-1.3-.5-1.8-.8s-.9-.9-1.2-1.5c-.3-.6-.5-1.3-.4-2.1h2.8c0 .7.1 1.1.3 1.4zM201.3 18.5v2.8c0 .4-.1.8-.2 1.2s-.4.7-.6.9c-.3.3-.6.5-.9.6s-.7.3-1.1.3V23c.2 0 .4-.1.5-.2.2-.1.3-.2.4-.4.1-.2.2-.3.3-.5.1-.2.1-.4.1-.6h-1.3v-2.8h2.8z"/></g><g><path class="st0" d="M21.2 39.8l-2.2-9-2.2 9h-2.9l-3.5-13.2h2.9l2.1 9 2.3-9h2.7l2.3 9.1 2.2-9.1h2.8l-3.6 13.2h-2.9zM38.9 26.6V29h-7v2.8h6.4v2.3h-6.4v3.2H39v2.4H29V26.6h9.9zM47.5 26.6l4.9 13.2h-3l-1-2.9h-4.9l-1 2.9h-2.9l5-13.2h2.9zm.2 8.1L46 29.9l-1.7 4.8h3.4zM60.8 26.6c.6 0 1.1.1 1.6.3.5.2.9.5 1.2.8.3.3.6.7.8 1.2s.3.9.3 1.4c0 .8-.2 1.4-.5 2-.3.6-.9 1-1.6 1.3.4.1.7.2.9.5s.4.4.6.7c.1.3.3.6.3.9.1.3.1.7.1 1v.7c0 .3 0 .6.1.9 0 .3.1.6.1.8.1.3.2.5.3.7h-2.9c-.2-.4-.3-.9-.3-1.5s-.1-1.1-.2-1.7c-.1-.7-.3-1.2-.6-1.5-.3-.3-.8-.5-1.6-.5h-2.9v5.2h-2.9V26.6h7.2zm-1.1 6c.7 0 1.2-.1 1.5-.4s.5-.8.5-1.4c0-.6-.2-1.1-.5-1.4-.3-.3-.8-.4-1.5-.4h-3.2v3.7h3.2zM75 26.6v13.2h-2.9V26.6H75zM76.6 29.1v-2.4h10.8v2.4h-4v10.8h-2.9V29.1h-3.9zM89.6 37v2.8h-2.9V37h2.9z"/></g></svg>