<svg id="Layer_1" xmlns="http://www.w3.org/2000/svg" viewBox="0 0 320 50"><style>.st0{fill:#231f20}</style><path class="st0" d="M116.1 9.2l3.1 8.2h-1.9l-.6-1.8h-3.1l-.6 1.8h-1.8l3.1-8.2h1.8zm.1 5l-1-3-1.1 3h2.1zM121.1 11.4v.8c.2-.3.5-.6.8-.8.3-.2.7-.2 1-.2.4 0 .8.1 1.1.2.3.1.5.3.7.5.2.2.3.5.3.8.1.3.1.6.1 1v3.7h-1.6V14c0-.5-.1-.9-.2-1.1-.2-.2-.4-.4-.8-.4s-.8.1-1 .4c-.2.3-.3.7-.3 1.3v3.1h-1.6v-5.9h1.5zM130.5 16.6c-.2.3-.4.6-.8.7-.3.1-.7.2-1.1.2-.4 0-.8-.1-1.2-.3-.3-.2-.6-.4-.8-.7-.2-.3-.4-.6-.5-1-.1-.4-.2-.8-.2-1.2 0-.4.1-.8.2-1.2s.3-.7.5-1c.2-.3.5-.5.8-.7s.7-.3 1.1-.3c.4 0 .7.1 1 .2.3.1.6.4.8.7V9h1.6v8.2h-1.6l.2-.6zm-.1-2.9c0-.2-.1-.4-.2-.6-.1-.2-.3-.3-.4-.4s-.4-.2-.7-.2c-.3 0-.5.1-.7.2-.2.1-.3.2-.4.4-.1.2-.2.4-.2.6s-.1.5-.1.7c0 .2 0 .5.1.7s.1.4.3.6c.1.2.3.3.4.4.2.1.4.2.6.2.3 0 .5-.1.7-.2s.3-.3.4-.4.2-.4.2-.6.1-.5.1-.7c0-.3 0-.5-.1-.7zM137.8 11.4v.8c.2-.3.5-.6.8-.7.3-.1.6-.2 1-.2.5 0 .9.1 1.2.3s.6.4.8.7c.2.3.4.6.5 1s.2.8.2 1.2c0 .4-.1.8-.2 1.2-.1.4-.3.7-.5 1-.2.3-.5.5-.8.7s-.7.3-1.1.3c-.4 0-.7-.1-1-.2-.3-.1-.6-.4-.8-.7v2.8h-1.6v-8h1.5zm2.2 4.7c.2-.1.3-.2.4-.4.1-.2.2-.4.2-.6 0-.2.1-.5.1-.7 0-.2 0-.5-.1-.7-.1-.2-.1-.4-.2-.6-.1-.2-.3-.3-.4-.4-.2-.1-.4-.2-.7-.2-.3 0-.5.1-.7.2-.2.1-.3.3-.4.4-.1.2-.2.4-.2.6s-.1.5-.1.7c0 .2 0 .5.1.7 0 .2.1.4.2.6.1.2.3.3.4.4s.4.2.7.2c.3 0 .5 0 .7-.2zM144.8 11.4v1.1c.1-.2.2-.4.3-.5l.4-.4c.2-.1.3-.2.5-.3.2-.1.4-.1.6-.1.1 0 .2 0 .4.1v1.5h-.6c-.3 0-.6 0-.8.1s-.4.2-.5.4l-.3.6c-.1.2-.1.5-.1.7v2.7h-1.6v-5.9h1.7zM147.4 13.1c.1-.4.4-.7.6-1 .3-.3.6-.5 1-.6.4-.1.8-.2 1.3-.2s.9.1 1.3.2.7.4 1 .6c.3.3.5.6.6 1 .1.4.2.8.2 1.3s-.1.9-.2 1.3-.4.7-.6 1c-.3.3-.6.5-1 .6s-.8.2-1.3.2-.9-.1-1.3-.2-.7-.4-1-.6c-.3-.3-.5-.6-.6-1-.1-.4-.2-.8-.2-1.3s.1-.9.2-1.3zm1.5 2c0 .2.1.4.2.6.1.2.3.3.4.4s.4.2.7.2c.3 0 .5-.1.7-.2s.3-.3.4-.4c.1-.2.2-.4.2-.6 0-.2.1-.5.1-.7 0-.2 0-.5-.1-.7 0-.2-.1-.4-.2-.6-.1-.2-.3-.3-.4-.4-.2-.1-.4-.2-.7-.2-.3 0-.5.1-.7.2-.2.1-.3.3-.4.4-.1.2-.2.4-.2.6 0 .2-.1.5-.1.7 0 .2 0 .5.1.7zM157.5 11.4v1.1h-1.2v2.9c0 .3 0 .5.1.6.1.1.3.1.6.1h.5v1.3h-1c-.3 0-.5 0-.7-.1-.2 0-.4-.1-.6-.2s-.3-.2-.4-.4-.1-.4-.1-.7v-3.5h-1v-1.1h1V9.6h1.6v1.8h1.2zM160 16c.2.2.6.4 1.1.4.3 0 .6-.1.9-.2.2-.2.4-.3.4-.5h1.4c-.2.7-.6 1.2-1.1 1.5-.5.3-1.1.5-1.7.5-.5 0-.9-.1-1.3-.2s-.7-.4-1-.6-.5-.6-.6-1c-.1-.4-.2-.8-.2-1.3 0-.4.1-.9.2-1.2.1-.4.4-.7.6-1 .3-.3.6-.5 1-.7.4-.2.8-.2 1.2-.2.5 0 .9.1 1.3.3.4.2.7.5.9.8.2.3.4.7.5 1.1.1.4.1.9.1 1.3h-4.3c.2.3.3.7.6 1zm1.8-3.2c-.2-.2-.5-.3-.9-.3-.3 0-.5 0-.7.1-.2.1-.3.2-.4.3s-.2.3-.2.4c0 .1-.1.3-.1.4h2.7c0-.3-.2-.7-.4-.9zM167.6 12.5c-.3 0-.5.1-.7.2-.2.1-.3.3-.4.5-.1.2-.2.4-.2.6s-.1.5-.1.7c0 .2 0 .4.1.7 0 .2.1.4.2.6s.2.3.4.4c.2.1.4.2.6.2.4 0 .7-.1.9-.3.2-.2.3-.5.4-.9h1.6c-.1.8-.4 1.4-.9 1.8s-1.2.6-1.9.6c-.4 0-.9-.1-1.2-.2s-.7-.4-.9-.6c-.3-.3-.5-.6-.6-1-.1-.4-.2-.8-.2-1.2 0-.5.1-.9.2-1.3s.3-.7.6-1 .6-.5 1-.7c.4-.2.8-.2 1.3-.2.4 0 .7 0 1 .1.3.1.6.2.9.4.3.2.5.4.6.7s.3.6.3 1H169c-.3-.8-.7-1.1-1.4-1.1zM174.5 11.4v1.1h-1.2v2.9c0 .3 0 .5.1.6.1.1.3.1.6.1h.5v1.3h-1c-.3 0-.5 0-.7-.1-.2 0-.4-.1-.6-.2-.2-.1-.3-.2-.4-.4s-.1-.4-.1-.7v-3.5h-1v-1.1h1V9.6h1.6v1.8h1.2zM180.5 19.1c-.3.2-.8.3-1.3.3h-1v-1.3h1c.2 0 .4-.1.5-.3s.2-.3.2-.5c0-.1 0-.3-.1-.4l-2.1-5.6h1.7l1.3 4.1 1.3-4.1h1.7l-2.5 6.7c-.2.6-.4.9-.7 1.1zM184.2 13.1c.1-.4.4-.7.6-1 .3-.3.6-.5 1-.6.4-.1.8-.2 1.3-.2s.9.1 1.3.2.7.4 1 .6c.3.3.5.6.6 1s.2.8.2 1.3-.1.9-.2 1.3-.4.7-.6 1c-.3.3-.6.5-1 .6s-.8.2-1.3.2-.9-.1-1.3-.2-.7-.4-1-.6c-.3-.3-.5-.6-.6-1-.1-.4-.2-.8-.2-1.3-.1-.5 0-.9.2-1.3zm1.4 2c0 .2.1.4.2.6.1.2.3.3.4.4.2.1.4.2.7.2.3 0 .5-.1.7-.2s.3-.3.4-.4.2-.4.2-.6c0-.2.1-.5.1-.7 0-.2 0-.5-.1-.7s-.1-.4-.2-.6-.3-.3-.4-.4c-.2-.1-.4-.2-.7-.2-.3 0-.5.1-.7.2-.2.1-.3.3-.4.4-.1.2-.2.4-.2.6s-.1.5-.1.7c.1.2.1.5.1.7zM195.1 17.4v-.8c-.2.3-.5.6-.8.7-.3.2-.7.2-1 .2-.4 0-.8-.1-1.1-.2-.3-.1-.5-.3-.7-.5-.2-.2-.3-.5-.3-.8s-.1-.6-.1-1v-3.7h1.6v3.4c0 .5.1.9.2 1.1.2.2.4.4.8.4s.8-.1 1-.4c.2-.3.3-.7.3-1.3v-3.1h1.6v5.9h-1.5zM199.3 11.4v1.1c.1-.2.2-.4.3-.5.1-.2.3-.3.4-.4.2-.1.3-.2.5-.3.2-.1.4-.1.6-.1.1 0 .2 0 .4.1v1.5h-.6c-.3 0-.6 0-.8.1-.2.1-.4.2-.5.4l-.3.6c-.1.2-.1.5-.1.7v2.7h-1.6v-5.9h1.7zM203.5 15.9l.3.3c.1.1.2.1.4.2.1 0 .3.1.5.1h.4c.1 0 .2-.1.3-.1s.2-.1.3-.2.1-.2.1-.4-.2-.4-.5-.6c-.3-.1-.8-.2-1.4-.4-.2-.1-.5-.1-.7-.2l-.6-.3c-.2-.1-.3-.3-.4-.4s-.2-.4-.2-.7c0-.4.1-.7.2-.9.2-.2.3-.4.6-.6.2-.1.5-.2.8-.3.3-.1.6-.1.9-.1.3 0 .6 0 .9.1.3.1.6.2.8.3.2.1.4.3.6.6.2.2.3.5.3.9h-1.6c0-.3-.1-.5-.4-.6-.2-.1-.5-.2-.8-.2h-.3c-.1 0-.2 0-.3.1-.1 0-.2.1-.2.2-.1.1-.1.2-.1.3 0 .1.1.3.2.4s.2.2.4.2c.2.1.4.1.6.2s.4.1.7.1c.2.1.5.1.7.2l.6.3c.2.1.3.3.4.5.1.2.2.4.2.7 0 .4-.1.7-.2 1s-.4.5-.6.6-.5.3-.9.3c-.3.1-.7.1-1 .1-.3 0-.7 0-1-.1l-.9-.3c-.3-.2-.5-.4-.6-.6-.2-.3-.3-.6-.3-1h1.6c.1 0 .1.2.2.3zM209.9 16c.2.2.6.4 1.1.4.3 0 .6-.1.9-.2.2-.2.4-.3.4-.5h1.4c-.2.7-.6 1.2-1.1 1.5-.5.3-1.1.5-1.7.5-.5 0-.9-.1-1.3-.2s-.7-.4-1-.6c-.3-.3-.5-.6-.6-1-.1-.4-.2-.8-.2-1.3 0-.4.1-.9.2-1.2s.4-.7.6-1 .6-.5 1-.7c.4-.2.8-.2 1.2-.2.5 0 .9.1 1.3.3.4.2.7.5.9.8.2.3.4.7.5 1.1.1.4.1.9.1 1.3h-4.3c.3.3.4.7.6 1zm1.9-3.2c-.2-.2-.5-.3-.9-.3-.3 0-.5 0-.6.1-.2.1-.3.2-.4.3s-.2.3-.2.4-.1.3-.1.4h2.7c-.2-.3-.3-.7-.5-.9zM216.4 9.2v8.2h-1.6V9.2h1.6zM216.9 12.5v-1.1h1V11c0-.5.2-1 .5-1.3.3-.3.8-.5 1.5-.5h.8v1.2h-.6c-.2 0-.4.1-.5.2s-.1.3-.1.5v.4h1.1v1.1h-1.1v4.9h-1.6v-4.9h-1z"/><g><path class="st0" d="M123.4 24v-1.1h1v-.5c0-.5.2-1 .5-1.3.3-.3.8-.5 1.5-.5h.8v1.2h-.6c-.2 0-.4.1-.5.2-.1.1-.1.3-.1.5v.4h1.1V24H126v4.9h-1.6V24h-1zM129.3 22.9V24c.1-.2.2-.4.3-.5l.4-.4c.2-.1.3-.2.5-.3.2-.1.4-.1.6-.1.1 0 .2 0 .4.1v1.5h-.6c-.3 0-.6 0-.8.1s-.4.2-.5.4l-.3.6c-.1.2-.1.5-.1.7v2.7h-1.6v-5.9h1.7zM131.9 24.6c.1-.4.4-.7.6-1 .3-.3.6-.5 1-.6.4-.1.8-.2 1.3-.2s.9.1 1.3.2.7.4 1 .6c.3.3.5.6.6 1 .1.4.2.8.2 1.3s-.1.9-.2 1.3-.4.7-.6 1c-.3.3-.6.5-1 .6s-.8.2-1.3.2-.9-.1-1.3-.2-.7-.4-1-.6c-.3-.3-.5-.6-.6-1-.1-.4-.2-.8-.2-1.3s.1-.9.2-1.3zm1.5 2c0 .2.1.4.2.6.1.2.3.3.4.4s.4.2.7.2c.3 0 .5-.1.7-.2s.3-.3.4-.4c.1-.2.2-.4.2-.6 0-.2.1-.5.1-.7s0-.5-.1-.7c0-.2-.1-.4-.2-.6-.1-.2-.3-.3-.4-.4-.2-.1-.4-.2-.7-.2-.3 0-.5.1-.7.2-.2.1-.3.3-.4.4-.1.2-.2.4-.2.6 0 .2-.1.5-.1.7s.1.5.1.7zM140.4 22.9v.8c.2-.3.5-.5.8-.7.3-.2.6-.3 1-.3s.7.1 1 .2c.3.1.5.4.7.8.2-.3.4-.5.7-.7.3-.2.7-.3 1.1-.3.3 0 .6 0 .9.1.3.1.5.2.7.4.2.2.3.4.4.7.1.3.2.6.2 1v4h-1.6v-3.4-.6c0-.2-.1-.3-.1-.5l-.3-.3c-.1-.1-.3-.1-.5-.1s-.4 0-.6.1c-.1.1-.3.2-.3.3-.1.1-.1.3-.2.5v3.8h-1.6v-3.3-.5c0-.2 0-.3-.1-.5s-.2-.3-.3-.4c-.1-.1-.3-.1-.6-.1-.1 0-.2 0-.3.1-.1 0-.2.1-.4.2-.1.1-.2.2-.3.4-.1.2-.1.4-.1.7v3.5H139v-5.9h1.4zM156.2 28.9V28c-.2.3-.5.6-.8.7-.3.2-.7.2-1 .2-.4 0-.8-.1-1.1-.2-.3-.1-.5-.3-.7-.5s-.3-.5-.3-.8c-.1-.3-.1-.6-.1-1v-3.7h1.6v3.4c0 .5.1.9.2 1.1s.4.4.8.4.8-.1 1-.4c.2-.3.3-.7.3-1.3v-3.1h1.6v5.9h-1.5zM160.5 22.9v.8c.2-.3.5-.6.8-.8.3-.2.7-.2 1-.2.4 0 .8.1 1.1.2.3.1.5.3.7.5s.3.5.3.8.1.6.1 1v3.7h-1.6v-3.4c0-.5-.1-.9-.2-1.1-.2-.2-.4-.4-.8-.4s-.8.1-1 .4c-.2.3-.3.7-.3 1.3v3.1H159v-5.9h1.5zM168.5 24c-.3 0-.5.1-.7.2-.2.1-.3.3-.4.5-.1.2-.2.4-.2.6s-.1.5-.1.7c0 .2 0 .4.1.7 0 .2.1.4.2.6.1.2.2.3.4.4.2.1.4.2.6.2.4 0 .7-.1.9-.3.2-.2.3-.5.4-.9h1.6c-.1.8-.4 1.4-.9 1.8s-1.2.6-1.9.6c-.4 0-.9-.1-1.2-.2-.4-.1-.7-.4-.9-.6s-.5-.6-.6-1-.2-.8-.2-1.2c0-.5.1-.9.2-1.3s.3-.7.6-1 .6-.5 1-.7c.4-.2.8-.2 1.3-.2.4 0 .7 0 1 .1.3.1.6.2.9.4.3.2.5.4.6.7s.3.6.3 1h-1.6c-.3-.8-.7-1.1-1.4-1.1zM172.2 24.6c.1-.4.4-.7.6-1 .3-.3.6-.5 1-.6.4-.1.8-.2 1.3-.2s.9.1 1.3.2.7.4 1 .6c.3.3.5.6.6 1s.2.8.2 1.3-.1.9-.2 1.3-.4.7-.6 1c-.3.3-.6.5-1 .6s-.9.2-1.4.2c-.5 0-.9-.1-1.3-.2s-.7-.4-1-.6c-.3-.3-.5-.6-.6-1-.1-.4-.2-.8-.2-1.3.1-.5.1-.9.3-1.3zm1.5 2c0 .2.1.4.2.6.1.2.3.3.4.4.2.1.4.2.7.2.3 0 .5-.1.7-.2s.3-.3.4-.4c.1-.2.2-.4.2-.6 0-.2.1-.5.1-.7s0-.5-.1-.7-.1-.4-.2-.6-.3-.3-.4-.4c-.2-.1-.4-.2-.7-.2-.3 0-.5.1-.7.2-.2.1-.3.3-.4.4-.1.2-.2.4-.2.6s-.1.5-.1.7 0 .5.1.7zM180.5 28.9l-2-5.9h1.7l1.3 4.1 1.3-4.1h1.6l-2 5.9h-1.9zM186.7 27.5c.2.2.6.4 1.1.4.3 0 .6-.1.9-.2.2-.2.4-.3.4-.5h1.4c-.2.7-.6 1.2-1.1 1.5-.5.3-1.1.5-1.7.5-.5 0-.9-.1-1.3-.2s-.7-.4-1-.6c-.3-.3-.5-.6-.6-1-.1-.4-.2-.8-.2-1.3 0-.4.1-.9.2-1.2s.4-.7.6-1 .6-.5 1-.7c.4-.2.8-.2 1.2-.2.5 0 .9.1 1.3.3.4.2.7.5.9.8.2.3.4.7.5 1.1.1.4.1.9.1 1.3h-4.3c.2.3.3.7.6 1zm1.8-3.2c-.2-.2-.5-.3-.9-.3-.3 0-.5 0-.6.1-.2.1-.3.2-.4.3s-.2.3-.2.4-.1.3-.1.4h2.7c-.1-.3-.3-.7-.5-.9zM193 22.9V24c.1-.2.2-.4.3-.5.1-.2.3-.3.4-.4.2-.1.3-.2.5-.3.2-.1.4-.1.6-.1.1 0 .2 0 .4.1v1.5h-.6c-.3 0-.6 0-.8.1-.2.1-.4.2-.5.4l-.3.6c-.1.2-.1.5-.1.7v2.7h-1.6v-5.9h1.7zM197.3 27.5c.2.2.6.4 1.1.4.3 0 .6-.1.9-.2.2-.2.4-.3.4-.5h1.4c-.2.7-.6 1.2-1.1 1.5-.5.3-1.1.5-1.7.5-.5 0-.9-.1-1.3-.2s-.7-.4-1-.6c-.3-.3-.5-.6-.6-1-.1-.4-.2-.8-.2-1.3 0-.4.1-.9.2-1.2s.4-.7.6-1 .6-.5 1-.7c.4-.2.8-.2 1.2-.2.5 0 .9.1 1.3.3.4.2.7.5.9.8.2.3.4.7.5 1.1.1.4.1.9.1 1.3h-4.3c.2.3.4.7.6 1zm1.9-3.2c-.2-.2-.5-.3-.9-.3-.3 0-.5 0-.6.1-.2.1-.3.2-.4.3s-.2.3-.2.4-.1.3-.1.4h2.7c-.2-.3-.3-.7-.5-.9zM206.3 28.1c-.2.3-.4.6-.8.7s-.7.2-1.1.2c-.4 0-.8-.1-1.2-.3-.3-.2-.6-.4-.8-.7s-.4-.6-.5-1c-.1-.4-.2-.8-.2-1.2 0-.4.1-.8.2-1.2.1-.4.3-.7.5-1s.5-.5.8-.7c.3-.2.7-.3 1.2-.3.4 0 .7.1 1 .2s.6.4.8.7v-3h1.6v8.2h-1.6l.1-.6zm-.1-2.9c0-.2-.1-.4-.2-.6-.1-.2-.3-.3-.4-.4s-.4-.2-.7-.2-.5.1-.7.2c-.2.1-.3.2-.4.4s-.2.4-.2.6c-.1.2-.1.5-.1.7 0 .2 0 .5.1.7.1.2.1.4.3.6.1.2.3.3.4.4.2.1.4.2.6.2.3 0 .5-.1.7-.2.2-.1.3-.3.4-.4.1-.2.2-.4.2-.6 0-.2.1-.5.1-.7 0-.3 0-.5-.1-.7z"/></g><g><path class="st0" d="M119.7 34.4v.8c.2-.3.5-.5.8-.7.3-.2.6-.3 1-.3s.7.1 1 .2.5.4.7.8c.2-.3.4-.5.7-.7.3-.2.7-.3 1.1-.3.3 0 .6 0 .9.1.3.1.5.2.7.4.2.2.3.4.4.7.1.3.2.6.2 1v4h-1.6V37v-.6c0-.2-.1-.3-.1-.5l-.3-.3c-.1-.1-.3-.1-.5-.1s-.4 0-.6.1c-.1.1-.3.2-.3.3-.1.1-.1.3-.2.5v3.8H122V37v-.5c0-.2 0-.3-.1-.5-.1-.1-.2-.3-.3-.4-.1-.1-.3-.1-.6-.1-.1 0-.2 0-.3.1s-.2.1-.4.2c-.1.1-.2.2-.3.4-.1.2-.1.4-.1.7v3.5h-1.6v-5.9h1.4zM130.2 39c.2.2.6.4 1.1.4.3 0 .6-.1.9-.2s.4-.3.4-.5h1.4c-.2.7-.6 1.2-1.1 1.5-.5.3-1.1.5-1.7.5-.5 0-.9-.1-1.3-.2s-.7-.4-1-.6-.5-.6-.6-1c-.1-.4-.2-.8-.2-1.3 0-.4.1-.9.2-1.2.1-.4.4-.7.6-1 .3-.3.6-.5 1-.7.4-.2.8-.2 1.2-.2.5 0 .9.1 1.3.3s.7.5.9.8c.2.3.4.7.5 1.1.1.4.1.9.1 1.3h-4.3c.2.3.3.7.6 1zm1.8-3.2c-.2-.2-.5-.3-.9-.3-.3 0-.5 0-.6.1-.2.1-.3.2-.4.3-.1.1-.2.3-.2.4 0 .1-.1.3-.1.4h2.7c-.2-.3-.3-.7-.5-.9zM139.1 39.6c-.2.3-.4.6-.8.7s-.7.2-1.1.2c-.4 0-.8-.1-1.2-.3s-.6-.4-.8-.7c-.2-.3-.4-.6-.5-1-.1-.4-.2-.8-.2-1.2 0-.4.1-.8.2-1.2.1-.4.3-.7.5-1 .2-.3.5-.5.8-.7s.7-.3 1.1-.3c.4 0 .7.1 1 .2.3.1.6.4.8.7v-3h1.6v8.2h-1.6l.2-.6zm0-2.9c0-.2-.1-.4-.2-.6-.1-.2-.3-.3-.4-.4s-.4-.2-.7-.2c-.3 0-.5.1-.7.2-.2.1-.3.2-.4.4-.1.2-.2.4-.2.6 0 .2-.1.5-.1.7 0 .2 0 .5.1.7.1.2.1.4.3.6.1.2.3.3.4.4s.4.2.6.2c.3 0 .5-.1.7-.2s.3-.3.4-.4c.1-.2.2-.4.2-.6 0-.2.1-.5.1-.7-.1-.3-.1-.5-.1-.7zM141.9 33.5v-1.3h1.6v1.3h-1.6zm1.6.9v5.9h-1.6v-5.9h1.6zM147.5 35.5c-.3 0-.5.1-.7.2-.2.1-.3.3-.4.5-.1.2-.2.4-.2.6 0 .2-.1.5-.1.7 0 .2 0 .4.1.7 0 .2.1.4.2.6.1.2.2.3.4.4.2.1.4.2.6.2.4 0 .7-.1.9-.3s.3-.5.4-.9h1.6c-.1.8-.4 1.4-.9 1.8-.5.4-1.2.6-1.9.6-.4 0-.9-.1-1.2-.2-.4-.1-.7-.4-.9-.6-.3-.3-.5-.6-.6-1-.1-.4-.2-.8-.2-1.2 0-.5.1-.9.2-1.3s.3-.7.6-1c.3-.3.6-.5 1-.7.4-.2.8-.2 1.3-.2.4 0 .7 0 1 .1s.6.2.9.4c.3.2.5.4.6.7.2.3.3.6.3 1h-1.6c-.3-.8-.7-1.1-1.4-1.1zM151.1 36.3c0-.4.1-.7.3-1s.4-.5.6-.6.6-.3.9-.3c.3-.1.7-.1 1-.1.3 0 .6 0 .9.1s.6.1.8.2c.3.1.5.3.6.5.2.2.2.5.2.9V39.9c0 .3.1.4.2.6h-1.7c0-.1-.1-.2-.1-.3v-.3c-.3.3-.6.5-.9.6-.4.1-.7.2-1.1.2-.3 0-.5 0-.8-.1-.2-.1-.5-.2-.6-.3-.2-.1-.3-.3-.4-.6-.1-.2-.2-.5-.2-.8 0-.3.1-.6.2-.8.1-.2.3-.4.5-.5l.6-.3c.2-.1.5-.1.7-.2.2 0 .5-.1.7-.1.2 0 .4-.1.6-.1.2 0 .3-.1.4-.2.1-.1.2-.2.1-.4 0-.2 0-.3-.1-.4s-.1-.2-.2-.2c-.1-.1-.2-.1-.3-.1h-.4c-.3 0-.6.1-.8.2-.2.1-.3.4-.3.7h-1.4zm3.8 1.2c-.1.1-.2.1-.3.1s-.2.1-.3.1c-.1 0-.2 0-.4.1s-.3 0-.4.1c-.1 0-.2.1-.4.1-.1 0-.2.1-.3.2-.1.1-.2.1-.2.2s-.1.2-.1.4c0 .1 0 .3.1.4s.1.2.2.2c.1.1.2.1.3.1h.4c.3 0 .6-.1.7-.2s.3-.2.4-.4c.1-.1.1-.3.2-.5v-.9zM159.4 32.2v8.2h-1.6v-8.2h1.6zM165.4 39c.2.2.6.4 1.1.4.3 0 .6-.1.9-.2.2-.2.4-.3.4-.5h1.4c-.2.7-.6 1.2-1.1 1.5-.5.3-1.1.5-1.7.5-.5 0-.9-.1-1.3-.2s-.7-.4-1-.6c-.3-.3-.5-.6-.6-1-.1-.4-.2-.8-.2-1.3 0-.4.1-.9.2-1.2.1-.4.4-.7.6-1 .3-.3.6-.5 1-.7.4-.2.8-.2 1.2-.2.5 0 .9.1 1.3.3.4.2.7.5.9.8.2.3.4.7.5 1.1s.1.9.1 1.3H165c0 .3.1.7.4 1zm1.8-3.2c-.2-.2-.5-.3-.9-.3-.3 0-.5 0-.6.1-.2.1-.3.2-.4.3-.1.1-.2.3-.2.4s-.1.3-.1.4h2.7c-.2-.3-.3-.7-.5-.9zM169.7 34.4h1.9l1 1.6 1-1.6h1.8l-2 2.8 2.2 3.2h-1.9l-1.2-1.9-1.2 1.9h-1.8l2.1-3.1-1.9-2.9zM177.7 34.4v.8c.2-.3.5-.6.8-.7s.6-.2 1-.2c.5 0 .9.1 1.2.3.3.2.6.4.8.7.2.3.4.6.5 1 .1.4.2.8.2 1.2 0 .4-.1.8-.2 1.1s-.3.7-.5 1c-.2.3-.5.5-.8.7-.3.2-.7.3-1.1.3-.4 0-.7-.1-1-.2-.3-.1-.6-.4-.8-.7v2.8h-1.6v-8h1.5zm2.2 4.7c.2-.1.3-.2.4-.4.1-.2.2-.4.2-.6 0-.2.1-.5.1-.7 0-.2 0-.5-.1-.7 0-.2-.1-.4-.2-.6-.1-.2-.3-.3-.4-.4-.2-.1-.4-.2-.7-.2-.3 0-.5.1-.7.2-.2.1-.3.3-.4.4-.1.2-.2.4-.2.6 0 .2-.1.5-.1.7 0 .2 0 .5.1.7 0 .2.1.4.2.6.1.2.3.3.4.4.2.1.4.2.7.2.3 0 .5 0 .7-.2zM184.8 39c.2.2.6.4 1.1.4.3 0 .6-.1.9-.2.2-.2.4-.3.4-.5h1.4c-.2.7-.6 1.2-1.1 1.5-.5.3-1.1.5-1.7.5-.5 0-.9-.1-1.3-.2s-.7-.4-1-.6c-.3-.3-.5-.6-.6-1-.1-.4-.2-.8-.2-1.3 0-.4.1-.9.2-1.2.1-.4.4-.7.6-1 .3-.3.6-.5 1-.7.4-.2.8-.2 1.2-.2.5 0 .9.1 1.3.3.4.2.7.5.9.8.2.3.4.7.5 1.1s.1.9.1 1.3h-4.3c.3.3.4.7.6 1zm1.9-3.2c-.2-.2-.5-.3-.9-.3-.3 0-.5 0-.6.1-.2.1-.3.2-.4.3-.1.1-.2.3-.2.4s-.1.3-.1.4h2.7c-.2-.3-.3-.7-.5-.9zM191.1 34.4v.8c.2-.3.5-.6.8-.8.3-.2.7-.2 1-.2.4 0 .8.1 1.1.2.3.1.5.3.7.5s.3.5.3.8.1.6.1 1v3.7h-1.6V37c0-.5-.1-.9-.2-1.1-.2-.2-.4-.4-.8-.4s-.8.1-1 .4-.3.7-.3 1.3v3.1h-1.6v-5.9h1.5zM197.7 38.9l.3.3c.1.1.2.1.4.2.1 0 .3.1.5.1h.4c.1 0 .2-.1.3-.1.1-.1.2-.1.3-.2s.1-.2.1-.4-.2-.4-.5-.6c-.3-.1-.8-.2-1.4-.4-.2-.1-.5-.1-.7-.2l-.6-.3c-.2-.1-.3-.3-.4-.4s-.2-.4-.2-.7c0-.4.1-.7.2-.9.2-.2.3-.4.6-.6.2-.1.5-.2.8-.3s.6-.1.9-.1c.3 0 .6 0 .9.1s.6.2.8.3c.2.1.4.3.6.6.2.2.3.5.3.9h-1.6c0-.3-.1-.5-.4-.6-.2-.1-.5-.2-.8-.2h-.3c-.1 0-.2 0-.3.1s-.2.1-.2.2c-.1.1-.1.2-.1.3 0 .1.1.3.2.4s.2.2.4.2c.2.1.4.1.6.2.2 0 .4.1.7.1.2.1.5.1.7.2l.6.3c.2.1.3.3.4.5.1.2.2.4.2.7 0 .4-.1.7-.2 1s-.4.5-.6.6c-.3.2-.5.3-.9.3-.3.1-.7.1-1 .1-.3 0-.7 0-1-.1l-.9-.3c-.3-.1-.5-.4-.6-.6s-.3-.6-.3-1h1.6c.1 0 .1.2.2.3zM204.1 39c.2.2.6.4 1.1.4.3 0 .6-.1.9-.2.2-.2.4-.3.4-.5h1.4c-.2.7-.6 1.2-1.1 1.5-.5.3-1.1.5-1.7.5-.5 0-.9-.1-1.3-.2s-.7-.4-1-.6c-.3-.3-.5-.6-.6-1-.1-.4-.2-.8-.2-1.3 0-.4.1-.9.2-1.2.1-.4.4-.7.6-1 .3-.3.6-.5 1-.7.4-.2.8-.2 1.2-.2.5 0 .9.1 1.3.3.4.2.7.5.9.8.2.3.4.7.5 1.1s.1.9.1 1.3h-4.3c.3.3.4.7.6 1zm1.9-3.2c-.2-.2-.5-.3-.9-.3-.3 0-.5 0-.6.1-.2.1-.3.2-.4.3-.1.1-.2.3-.2.4s-.1.3-.1.4h2.7c-.2-.3-.3-.7-.5-.9zM210.3 38.9l.3.3c.1.1.2.1.4.2.1 0 .3.1.5.1h.4c.1 0 .2-.1.3-.1.1-.1.2-.1.3-.2s.1-.2.1-.4-.2-.4-.5-.6c-.3-.1-.8-.2-1.4-.4-.2-.1-.5-.1-.7-.2l-.6-.3c-.2-.1-.3-.3-.4-.4s-.2-.4-.2-.7c0-.4.1-.7.2-.9.2-.2.3-.4.6-.6.2-.1.5-.2.8-.3s.6-.1.9-.1c.3 0 .6 0 .9.1s.6.2.8.3c.2.1.4.3.6.6.2.2.3.5.3.9h-1.6c0-.3-.1-.5-.4-.6-.2-.1-.5-.2-.8-.2h-.3c-.1 0-.2 0-.3.1s-.2.1-.2.2c-.1.1-.1.2-.1.3 0 .1.1.3.2.4s.2.2.4.2c.2.1.4.1.6.2.2 0 .4.1.7.1.2.1.5.1.7.2l.6.3c.2.1.3.3.4.5.1.2.2.4.2.7 0 .4-.1.7-.2 1s-.4.5-.6.6c-.3.2-.5.3-.9.3-.3.1-.7.1-1 .1-.3 0-.7 0-1-.1l-.9-.3c-.3-.1-.5-.4-.6-.6s-.3-.6-.3-1h1.6s.1.2.2.3z"/></g></svg>