<svg id="Layer_1" xmlns="http://www.w3.org/2000/svg" viewBox="0 0 320 50"><style>.st0{fill:#393}.st1{fill:#fff}</style><path class="st0" d="M243.5 8.2c-4.6 0-8.4 3.8-8.4 8.4 0 4.6 3.8 8.4 8.4 8.4H300c4.6 0 8.4-3.8 8.4-8.4 0-4.6-3.8-8.4-8.4-8.4h-56.5z"/><path class="st1" d="M246.8 13.8v4.6h2.8v1h-4v-5.7h1.2zM254.5 13.8v1h-3V16h2.7v1h-2.7v1.4h3.1v1h-4.3v-5.7h4.2zM258.3 13.8l2.1 5.7h-1.3l-.4-1.3h-2.1l-.4 1.3h-1.3l2.1-5.7h1.3zm0 3.5l-.7-2.1-.7 2.1h1.4zM263.9 13.8c.3 0 .5 0 .7.1.2.1.4.2.5.3.1.1.3.3.3.5.1.2.1.4.1.6 0 .3-.1.6-.2.9-.1.2-.4.4-.7.6.2 0 .3.1.4.2s.2.2.2.3.1.2.1.4 0 .3.1.4v.7c0 .1 0 .2.1.4s.1.2.1.3h-1.2c-.1-.2-.1-.4-.1-.6 0-.2 0-.5-.1-.7 0-.3-.1-.5-.3-.7s-.4-.2-.7-.2H262v2.2h-1.2v-5.7h3.1zm-.4 2.6c.3 0 .5-.1.6-.2.1-.1.2-.3.2-.6s-.1-.5-.2-.6c-.1-.1-.4-.2-.6-.2h-1.4v1.6h1.4zM267.9 13.8l2.4 3.8v-3.8h1.2v5.7h-1.2l-2.4-3.8v3.8h-1.2v-5.7h1.2zM276.5 13.8l1.3 3.9 1.3-3.9h1.8v5.7h-1.2v-4l-1.4 4h-1l-1.4-4v4h-1.2v-5.7h1.8zM281.9 15.5c.1-.4.3-.7.5-.9s.5-.5.9-.6c.3-.2.7-.2 1.2-.2.4 0 .8.1 1.2.2l.9.6c.3.2.4.6.5.9.1.4.2.8.2 1.2 0 .4-.1.8-.2 1.2-.1.4-.3.7-.5.9-.2.3-.5.5-.9.6-.3.2-.7.2-1.2.2-.4 0-.8-.1-1.2-.2s-.6-.4-.9-.6c-.2-.3-.4-.6-.5-.9-.1-.4-.2-.7-.2-1.2 0-.4 0-.8.2-1.2zm1.1 1.9c.1.2.1.4.3.6.1.2.3.3.5.4.2.1.4.2.7.2.3 0 .5-.1.7-.2.2-.1.4-.3.5-.4l.3-.6c.1-.2.1-.5.1-.7 0-.2 0-.5-.1-.7-.1-.2-.1-.4-.3-.6s-.3-.3-.5-.4c-.2-.1-.4-.2-.7-.2-.3 0-.5.1-.7.2-.2.1-.4.3-.5.4s-.2.4-.3.6-.1.5-.1.7c0 .2 0 .5.1.7zM291.1 13.8c.3 0 .5 0 .7.1.2.1.4.2.5.3.1.1.3.3.3.5.1.2.1.4.1.6 0 .3-.1.6-.2.9-.1.2-.4.4-.7.6.2 0 .3.1.4.2s.2.2.2.3.1.2.1.4 0 .3.1.4v.7c0 .1 0 .2.1.4s.1.2.1.3h-1.2c-.1-.2-.1-.4-.1-.6 0-.2 0-.5-.1-.7 0-.3-.1-.5-.3-.7s-.4-.2-.7-.2h-1.2v2.2H288v-5.7h3.1zm-.4 2.6c.3 0 .5-.1.6-.2.1-.1.2-.3.2-.6s-.1-.5-.2-.6c-.1-.1-.4-.2-.6-.2h-1.4v1.6h1.4zM298.1 13.8v1h-3V16h2.7v1h-2.7v1.4h3.1v1h-4.3v-5.7h4.2z"/></svg>