<?xml version="1.0" encoding="utf-8"?>
<!-- Generator: Adobe Illustrator 25.4.6, SVG Export Plug-In . SVG Version: 6.00 Build 0)  -->
<svg version="1.1" id="Layer_1" xmlns="http://www.w3.org/2000/svg" xmlns:xlink="http://www.w3.org/1999/xlink" x="0px" y="0px"
	 viewBox="0 0 728 90" style="enable-background:new 0 0 728 90;" xml:space="preserve">
<g>
	<path d="M261.2,20.7v15.7h9.4V40h-13.6V20.7H261.2z"/>
	<path d="M272.7,23.9v-3.2h3.8v3.2H272.7z M276.5,26v14h-3.8V26H276.5z"/>
	<path d="M278.1,28.6V26h2.3v-1.1c0-1.2,0.4-2.3,1.2-3.1c0.8-0.8,1.9-1.2,3.5-1.2c0.3,0,0.7,0,1,0c0.3,0,0.7,0,1,0.1v2.9
		c-0.5-0.1-0.9-0.1-1.4-0.1c-0.5,0-0.9,0.1-1.1,0.4c-0.2,0.2-0.3,0.7-0.3,1.2V26h2.6v2.6h-2.6V40h-3.8V28.6H278.1z"/>
	<path d="M292.6,36.6c0.6,0.6,1.4,0.8,2.5,0.8c0.8,0,1.4-0.2,2-0.6c0.6-0.4,0.9-0.8,1-1.2h3.4c-0.5,1.7-1.4,2.9-2.5,3.6
		c-1.1,0.7-2.5,1.1-4,1.1c-1.1,0-2.1-0.2-3-0.5c-0.9-0.4-1.6-0.9-2.2-1.5c-0.6-0.6-1.1-1.4-1.4-2.3c-0.3-0.9-0.5-1.9-0.5-3
		c0-1,0.2-2,0.5-2.9s0.8-1.7,1.5-2.3c0.6-0.7,1.4-1.2,2.3-1.6s1.8-0.6,2.9-0.6c1.2,0,2.2,0.2,3.1,0.7c0.9,0.5,1.6,1.1,2.2,1.8
		s1,1.7,1.2,2.6c0.3,1,0.3,2,0.3,3.1h-10.1C291.7,35.2,292,36.1,292.6,36.6z M296.9,29.3c-0.5-0.5-1.2-0.8-2.1-0.8
		c-0.6,0-1.1,0.1-1.5,0.3c-0.4,0.2-0.7,0.5-1,0.8c-0.2,0.3-0.4,0.6-0.5,1c-0.1,0.3-0.2,0.6-0.2,0.9h6.2
		C297.7,30.5,297.4,29.8,296.9,29.3z"/>
	<path d="M308.4,35.8V40c0,0.6-0.1,1.2-0.3,1.7s-0.5,1-0.9,1.3s-0.8,0.7-1.3,0.9c-0.5,0.2-1.1,0.4-1.6,0.5v-1.9
		c0.3-0.1,0.5-0.2,0.8-0.3c0.2-0.2,0.5-0.4,0.6-0.6c0.2-0.2,0.3-0.5,0.4-0.8c0.1-0.3,0.1-0.6,0.1-0.9h-1.9v-4.2H308.4z"/>
	<path d="M327.7,20.7c1.2,0,2.4,0.2,3.5,0.6c1.1,0.4,2,1,2.8,1.8c0.8,0.8,1.4,1.8,1.8,3c0.4,1.2,0.7,2.6,0.7,4.2
		c0,1.4-0.2,2.7-0.5,3.9c-0.4,1.2-0.9,2.2-1.6,3.1c-0.7,0.9-1.6,1.5-2.7,2c-1.1,0.5-2.4,0.7-3.8,0.7h-8.3V20.7H327.7z M327.4,36.4
		c0.6,0,1.2-0.1,1.8-0.3c0.6-0.2,1.1-0.5,1.5-1c0.4-0.5,0.8-1.1,1.1-1.8c0.3-0.7,0.4-1.6,0.4-2.7c0-1-0.1-1.8-0.3-2.6
		c-0.2-0.8-0.5-1.5-0.9-2c-0.4-0.6-1-1-1.7-1.3s-1.6-0.4-2.6-0.4h-3v12.1H327.4z"/>
	<path d="M339.1,23.9v-3.2h3.8v3.2H339.1z M343,26v14h-3.8V26H343z"/>
	<path d="M349.2,36.5c0.2,0.3,0.4,0.5,0.7,0.7c0.3,0.2,0.6,0.3,0.9,0.4s0.7,0.1,1.1,0.1c0.3,0,0.6,0,0.9-0.1
		c0.3-0.1,0.6-0.2,0.8-0.3c0.2-0.1,0.4-0.3,0.6-0.5c0.2-0.2,0.2-0.5,0.2-0.9c0-0.6-0.4-1-1.1-1.3c-0.8-0.3-1.8-0.6-3.2-0.9
		c-0.6-0.1-1.1-0.3-1.6-0.4c-0.5-0.2-1-0.4-1.4-0.7c-0.4-0.3-0.7-0.6-1-1.1c-0.3-0.4-0.4-0.9-0.4-1.6c0-0.9,0.2-1.6,0.5-2.2
		c0.4-0.6,0.8-1,1.4-1.4c0.6-0.3,1.2-0.6,1.9-0.7c0.7-0.1,1.5-0.2,2.2-0.2c0.8,0,1.5,0.1,2.2,0.2c0.7,0.1,1.3,0.4,1.9,0.7
		c0.6,0.3,1,0.8,1.4,1.4c0.4,0.6,0.6,1.3,0.7,2.1h-3.6c-0.1-0.7-0.3-1.2-0.8-1.5c-0.5-0.3-1.1-0.4-1.8-0.4c-0.2,0-0.5,0-0.7,0
		c-0.3,0-0.5,0.1-0.7,0.2c-0.2,0.1-0.4,0.2-0.5,0.4c-0.1,0.2-0.2,0.4-0.2,0.7c0,0.3,0.1,0.6,0.4,0.8c0.3,0.2,0.6,0.4,1,0.5
		c0.4,0.1,0.9,0.3,1.4,0.4s1.1,0.2,1.6,0.4c0.6,0.1,1.1,0.3,1.6,0.5c0.5,0.2,1,0.4,1.4,0.7c0.4,0.3,0.7,0.7,1,1.1
		c0.3,0.4,0.4,1,0.4,1.6c0,0.9-0.2,1.7-0.6,2.3c-0.4,0.6-0.8,1.1-1.4,1.5c-0.6,0.4-1.3,0.6-2,0.8c-0.8,0.2-1.5,0.2-2.3,0.2
		c-0.8,0-1.6-0.1-2.4-0.2s-1.5-0.4-2.1-0.8s-1.1-0.9-1.5-1.5c-0.4-0.6-0.6-1.4-0.6-2.3h3.6C349,35.8,349,36.2,349.2,36.5z"/>
	<path d="M360.3,30.3c0.1-0.9,0.3-1.6,0.7-2.2c0.4-0.6,0.9-1.1,1.5-1.4c0.6-0.4,1.3-0.6,2.1-0.8c0.8-0.2,1.5-0.2,2.3-0.2
		c0.7,0,1.4,0,2.1,0.1c0.7,0.1,1.4,0.3,2,0.6c0.6,0.3,1.1,0.7,1.5,1.2c0.4,0.5,0.6,1.2,0.6,2v7.3c0,0.6,0,1.2,0.1,1.8s0.2,1,0.4,1.3
		h-3.9c-0.1-0.2-0.1-0.4-0.2-0.7c0-0.2-0.1-0.5-0.1-0.7c-0.6,0.6-1.3,1.1-2.2,1.3c-0.8,0.3-1.7,0.4-2.5,0.4c-0.7,0-1.3-0.1-1.9-0.2
		s-1.1-0.4-1.5-0.8c-0.4-0.3-0.8-0.8-1-1.3s-0.4-1.1-0.4-1.9c0-0.8,0.1-1.4,0.4-2c0.3-0.5,0.6-0.9,1.1-1.2c0.4-0.3,0.9-0.5,1.5-0.7
		c0.6-0.2,1.1-0.3,1.7-0.4c0.6-0.1,1.1-0.2,1.7-0.2c0.6-0.1,1.1-0.1,1.5-0.2c0.4-0.1,0.8-0.3,1-0.5c0.3-0.2,0.4-0.5,0.4-0.9
		c0-0.4-0.1-0.7-0.2-1c-0.1-0.2-0.3-0.4-0.5-0.6c-0.2-0.1-0.5-0.2-0.8-0.3c-0.3,0-0.6-0.1-1-0.1c-0.8,0-1.3,0.2-1.8,0.5
		c-0.4,0.3-0.7,0.9-0.8,1.6H360.3z M369.2,33.1c-0.2,0.1-0.4,0.3-0.6,0.3c-0.2,0.1-0.5,0.1-0.8,0.2c-0.3,0.1-0.6,0.1-0.9,0.1
		s-0.6,0.1-0.9,0.1c-0.3,0.1-0.6,0.1-0.9,0.2c-0.3,0.1-0.5,0.2-0.7,0.4c-0.2,0.2-0.4,0.3-0.5,0.6s-0.2,0.5-0.2,0.9
		c0,0.3,0.1,0.6,0.2,0.9s0.3,0.4,0.5,0.6c0.2,0.1,0.5,0.2,0.8,0.3c0.3,0.1,0.6,0.1,0.9,0.1c0.8,0,1.3-0.1,1.8-0.4
		c0.4-0.3,0.7-0.6,0.9-0.9c0.2-0.4,0.3-0.7,0.4-1.1c0-0.4,0.1-0.6,0.1-0.9V33.1z"/>
	<path d="M379.8,20.7v7h0.1c0.5-0.7,1.1-1.2,1.9-1.6s1.6-0.5,2.5-0.5c0.7,0,1.4,0.1,2.1,0.4c0.7,0.3,1.3,0.7,1.8,1.3
		c0.5,0.6,1,1.4,1.3,2.3s0.5,2,0.5,3.3c0,1.3-0.2,2.4-0.5,3.3c-0.3,0.9-0.8,1.7-1.3,2.3c-0.5,0.6-1.2,1-1.8,1.3
		c-0.7,0.3-1.4,0.4-2.1,0.4c-1,0-1.9-0.2-2.8-0.5c-0.8-0.3-1.4-0.9-1.8-1.6h-0.1V40H376V20.7H379.8z M386,31.3
		c-0.1-0.5-0.3-1-0.6-1.4c-0.3-0.4-0.6-0.7-1-1s-0.9-0.4-1.5-0.4c-0.6,0-1,0.1-1.5,0.4s-0.8,0.6-1,1c-0.3,0.4-0.5,0.9-0.6,1.4
		s-0.2,1.1-0.2,1.7c0,0.6,0.1,1.1,0.2,1.7s0.3,1,0.6,1.4c0.3,0.4,0.6,0.7,1,1s0.9,0.4,1.5,0.4c0.6,0,1.1-0.1,1.5-0.4s0.7-0.6,1-1
		c0.3-0.4,0.5-0.9,0.6-1.4s0.2-1.1,0.2-1.7C386.2,32.4,386.2,31.8,386,31.3z"/>
	<path d="M392.6,23.9v-3.2h3.8v3.2H392.6z M396.4,26v14h-3.8V26H396.4z"/>
	<path d="M403.4,20.7V40h-3.8V20.7H403.4z"/>
	<path d="M406.5,23.9v-3.2h3.8v3.2H406.5z M410.4,26v14h-3.8V26H410.4z"/>
	<path d="M421,26v2.6h-2.8v6.9c0,0.6,0.1,1.1,0.3,1.3c0.2,0.2,0.6,0.3,1.3,0.3c0.2,0,0.4,0,0.6,0c0.2,0,0.4,0,0.6-0.1v3
		c-0.3,0.1-0.7,0.1-1.1,0.1c-0.4,0-0.8,0-1.2,0c-0.6,0-1.2,0-1.7-0.1s-1-0.2-1.4-0.5c-0.4-0.2-0.7-0.6-1-1c-0.2-0.4-0.4-1-0.4-1.7
		v-8.2h-2.3V26h2.3v-4.2h3.8V26H421z"/>
	<path d="M428,44.1c-0.7,0.5-1.8,0.7-3.1,0.7c-0.4,0-0.8,0-1.2,0c-0.4,0-0.8-0.1-1.2-0.1v-3.2c0.4,0,0.7,0.1,1.1,0.1
		c0.4,0,0.8,0,1.1,0c0.5-0.1,0.9-0.3,1.1-0.6s0.4-0.7,0.4-1.1c0-0.3-0.1-0.6-0.2-0.9L421.3,26h4.1l3.2,9.6h0.1l3.1-9.6h4l-5.8,15.7
		C429.4,42.8,428.8,43.6,428,44.1z"/>
	<path d="M444.2,30.3c0.1-0.9,0.3-1.6,0.7-2.2c0.4-0.6,0.9-1.1,1.5-1.4c0.6-0.4,1.3-0.6,2.1-0.8c0.8-0.2,1.5-0.2,2.3-0.2
		c0.7,0,1.4,0,2.1,0.1c0.7,0.1,1.4,0.3,2,0.6c0.6,0.3,1.1,0.7,1.5,1.2c0.4,0.5,0.6,1.2,0.6,2v7.3c0,0.6,0,1.2,0.1,1.8s0.2,1,0.4,1.3
		h-3.9c-0.1-0.2-0.1-0.4-0.2-0.7c0-0.2-0.1-0.5-0.1-0.7c-0.6,0.6-1.3,1.1-2.2,1.3c-0.8,0.3-1.7,0.4-2.5,0.4c-0.7,0-1.3-0.1-1.9-0.2
		s-1.1-0.4-1.5-0.8c-0.4-0.3-0.8-0.8-1-1.3s-0.4-1.1-0.4-1.9c0-0.8,0.1-1.4,0.4-2c0.3-0.5,0.6-0.9,1.1-1.2c0.4-0.3,0.9-0.5,1.5-0.7
		c0.6-0.2,1.1-0.3,1.7-0.4c0.6-0.1,1.1-0.2,1.7-0.2c0.6-0.1,1.1-0.1,1.5-0.2c0.4-0.1,0.8-0.3,1-0.5c0.3-0.2,0.4-0.5,0.4-0.9
		c0-0.4-0.1-0.7-0.2-1c-0.1-0.2-0.3-0.4-0.5-0.6c-0.2-0.1-0.5-0.2-0.8-0.3c-0.3,0-0.6-0.1-1-0.1c-0.8,0-1.3,0.2-1.8,0.5
		c-0.4,0.3-0.7,0.9-0.8,1.6H444.2z M453.1,33.1c-0.2,0.1-0.4,0.3-0.6,0.3c-0.2,0.1-0.5,0.1-0.8,0.2c-0.3,0.1-0.6,0.1-0.9,0.1
		s-0.6,0.1-0.9,0.1c-0.3,0.1-0.6,0.1-0.9,0.2c-0.3,0.1-0.5,0.2-0.7,0.4c-0.2,0.2-0.4,0.3-0.5,0.6s-0.2,0.5-0.2,0.9
		c0,0.3,0.1,0.6,0.2,0.9s0.3,0.4,0.5,0.6c0.2,0.1,0.5,0.2,0.8,0.3c0.3,0.1,0.6,0.1,0.9,0.1c0.8,0,1.3-0.1,1.8-0.4
		c0.4-0.3,0.7-0.6,0.9-0.9c0.2-0.4,0.3-0.7,0.4-1.1c0-0.4,0.1-0.6,0.1-0.9V33.1z"/>
	<path d="M463.5,26V28h0.1c0.5-0.8,1.1-1.4,1.9-1.8c0.8-0.4,1.6-0.6,2.4-0.6c1,0,1.9,0.1,2.5,0.4c0.7,0.3,1.2,0.7,1.6,1.2
		s0.6,1.1,0.8,1.8c0.2,0.7,0.2,1.5,0.2,2.4V40h-3.8v-7.9c0-1.2-0.2-2-0.5-2.6s-1-0.9-1.9-0.9c-1,0-1.8,0.3-2.3,0.9
		c-0.5,0.6-0.7,1.6-0.7,3.1V40h-3.8V26H463.5z"/>
	<path d="M485.8,38.2c-0.5,0.8-1,1.3-1.8,1.6c-0.7,0.3-1.6,0.5-2.5,0.5c-1,0-2-0.2-2.8-0.6c-0.8-0.4-1.4-1-2-1.6
		c-0.5-0.7-0.9-1.5-1.2-2.4c-0.3-0.9-0.4-1.8-0.4-2.8c0-0.9,0.1-1.8,0.4-2.7c0.3-0.9,0.6-1.6,1.2-2.3c0.5-0.7,1.2-1.2,1.9-1.6
		c0.8-0.4,1.7-0.6,2.7-0.6c0.8,0,1.6,0.2,2.4,0.5s1.3,0.9,1.8,1.6h0.1v-7h3.8V40h-3.6L485.8,38.2L485.8,38.2z M485.7,31.3
		c-0.1-0.5-0.3-1-0.6-1.4s-0.6-0.7-1-1s-0.9-0.4-1.6-0.4c-0.6,0-1.2,0.1-1.6,0.4c-0.4,0.3-0.8,0.6-1,1s-0.5,0.9-0.6,1.4
		s-0.2,1.1-0.2,1.7c0,0.5,0.1,1.1,0.2,1.6s0.3,1,0.6,1.4c0.3,0.4,0.6,0.8,1.1,1c0.4,0.3,0.9,0.4,1.5,0.4c0.6,0,1.2-0.1,1.6-0.4
		c0.4-0.3,0.8-0.6,1-1s0.4-0.9,0.5-1.4s0.2-1.1,0.2-1.7C485.8,32.4,485.8,31.8,485.7,31.3z"/>
</g>
<g>
	<path d="M289.6,63.2c0.2,0.5,0.5,0.8,0.9,1.1c0.4,0.3,0.8,0.5,1.4,0.6c0.5,0.1,1.1,0.2,1.6,0.2c0.4,0,0.8,0,1.2-0.1
		c0.4-0.1,0.8-0.2,1.2-0.4c0.4-0.2,0.7-0.4,0.9-0.7c0.3-0.3,0.4-0.7,0.4-1.2c0-0.5-0.2-0.9-0.5-1.3c-0.3-0.3-0.8-0.6-1.3-0.8
		c-0.5-0.2-1.2-0.4-1.8-0.6s-1.4-0.3-2.1-0.5c-0.7-0.2-1.4-0.4-2.1-0.7c-0.7-0.3-1.3-0.6-1.8-1s-1-0.9-1.3-1.6s-0.5-1.4-0.5-2.3
		c0-1,0.2-1.8,0.6-2.6c0.4-0.7,1-1.3,1.7-1.8c0.7-0.5,1.5-0.8,2.3-1.1c0.9-0.2,1.7-0.3,2.6-0.3c1,0,2,0.1,2.9,0.3
		c0.9,0.2,1.8,0.6,2.5,1.1c0.7,0.5,1.3,1.1,1.7,1.9c0.4,0.8,0.6,1.7,0.6,2.8h-4.1c0-0.6-0.2-1.1-0.4-1.4s-0.5-0.7-0.8-0.9
		c-0.3-0.2-0.7-0.4-1.2-0.5c-0.4-0.1-0.9-0.1-1.4-0.1c-0.3,0-0.7,0-1,0.1c-0.3,0.1-0.7,0.2-0.9,0.4c-0.3,0.2-0.5,0.4-0.7,0.7
		c-0.2,0.3-0.3,0.6-0.3,1c0,0.4,0.1,0.7,0.2,0.9c0.1,0.2,0.4,0.5,0.9,0.6c0.4,0.2,1,0.4,1.8,0.6c0.7,0.2,1.7,0.5,2.9,0.8
		c0.4,0.1,0.9,0.2,1.5,0.4c0.6,0.2,1.3,0.5,1.9,0.9c0.6,0.4,1.2,1,1.6,1.7c0.5,0.7,0.7,1.6,0.7,2.7c0,0.9-0.2,1.7-0.5,2.5
		c-0.3,0.8-0.9,1.4-1.5,2c-0.7,0.5-1.5,1-2.5,1.3c-1,0.3-2.2,0.5-3.5,0.5c-1.1,0-2.1-0.1-3.1-0.4s-1.9-0.7-2.6-1.2
		c-0.8-0.6-1.4-1.3-1.8-2.1c-0.5-0.9-0.7-1.9-0.6-3.1h4.1C289.3,62.2,289.4,62.8,289.6,63.2z"/>
	<path d="M313,68V66h-0.1c-0.5,0.8-1.1,1.4-1.9,1.8c-0.8,0.4-1.6,0.5-2.4,0.5c-1,0-1.9-0.1-2.5-0.4c-0.7-0.3-1.2-0.7-1.6-1.1
		s-0.6-1.1-0.8-1.8c-0.2-0.7-0.2-1.5-0.2-2.4V54h3.8v7.9c0,1.2,0.2,2,0.5,2.6c0.4,0.6,1,0.8,1.9,0.8c1,0,1.8-0.3,2.3-0.9
		c0.5-0.6,0.7-1.6,0.7-3.1V54h3.8v14H313z"/>
	<path d="M323.2,54v1.8h0.1c0.5-0.8,1.1-1.3,1.8-1.6c0.7-0.3,1.5-0.5,2.4-0.5c1.1,0,2,0.2,2.8,0.6s1.4,1,2,1.6
		c0.5,0.7,0.9,1.5,1.2,2.4c0.3,0.9,0.4,1.9,0.4,2.8c0,0.9-0.1,1.8-0.4,2.7c-0.3,0.9-0.6,1.6-1.1,2.3c-0.5,0.7-1.2,1.2-1.9,1.6
		s-1.7,0.6-2.7,0.6c-0.9,0-1.7-0.2-2.4-0.5c-0.7-0.4-1.3-0.9-1.8-1.6h-0.1v6.6h-3.8V54H323.2z M328.2,65.1c0.4-0.3,0.8-0.6,1-1
		c0.3-0.4,0.4-0.9,0.6-1.4s0.2-1.1,0.2-1.6c0-0.6-0.1-1.1-0.2-1.6s-0.3-1-0.6-1.4s-0.6-0.8-1-1c-0.4-0.3-0.9-0.4-1.6-0.4
		c-0.6,0-1.2,0.1-1.6,0.4c-0.4,0.3-0.8,0.6-1,1c-0.3,0.4-0.4,0.9-0.6,1.4s-0.2,1.1-0.2,1.7c0,0.6,0.1,1.1,0.2,1.6
		c0.1,0.5,0.3,1,0.6,1.4c0.3,0.4,0.6,0.7,1,1s1,0.4,1.6,0.4C327.2,65.5,327.7,65.3,328.2,65.1z"/>
	<path d="M339.7,54v1.8h0.1c0.5-0.8,1.1-1.3,1.8-1.6c0.7-0.3,1.5-0.5,2.4-0.5c1.1,0,2,0.2,2.8,0.6s1.4,1,2,1.6
		c0.5,0.7,0.9,1.5,1.2,2.4c0.3,0.9,0.4,1.9,0.4,2.8c0,0.9-0.1,1.8-0.4,2.7c-0.3,0.9-0.6,1.6-1.1,2.3c-0.5,0.7-1.2,1.2-1.9,1.6
		s-1.7,0.6-2.7,0.6c-0.9,0-1.7-0.2-2.4-0.5c-0.7-0.4-1.3-0.9-1.8-1.6h-0.1v6.6H336V54H339.7z M344.7,65.1c0.4-0.3,0.8-0.6,1-1
		c0.3-0.4,0.4-0.9,0.6-1.4s0.2-1.1,0.2-1.6c0-0.6-0.1-1.1-0.2-1.6s-0.3-1-0.6-1.4s-0.6-0.8-1-1c-0.4-0.3-0.9-0.4-1.6-0.4
		c-0.6,0-1.2,0.1-1.6,0.4c-0.4,0.3-0.8,0.6-1,1c-0.3,0.4-0.4,0.9-0.6,1.4s-0.2,1.1-0.2,1.7c0,0.6,0.1,1.1,0.2,1.6
		c0.1,0.5,0.3,1,0.6,1.4c0.3,0.4,0.6,0.7,1,1s1,0.4,1.6,0.4C343.7,65.5,344.2,65.3,344.7,65.1z"/>
	<path d="M356.5,48.7V68h-3.8V48.7H356.5z"/>
	<path d="M363.6,64.6c0.6,0.6,1.4,0.8,2.5,0.8c0.8,0,1.4-0.2,2-0.6c0.6-0.4,0.9-0.8,1-1.2h3.4c-0.5,1.7-1.4,2.9-2.5,3.6
		s-2.5,1.1-4,1.1c-1.1,0-2.1-0.2-3-0.5c-0.9-0.4-1.6-0.9-2.2-1.5c-0.6-0.6-1.1-1.4-1.4-2.3c-0.3-0.9-0.5-1.9-0.5-3
		c0-1,0.2-2,0.5-2.9s0.8-1.7,1.5-2.3c0.6-0.7,1.4-1.2,2.3-1.6c0.9-0.4,1.8-0.6,2.9-0.6c1.2,0,2.2,0.2,3.1,0.7s1.6,1.1,2.2,1.8
		c0.6,0.8,1,1.7,1.2,2.6c0.3,1,0.3,2,0.3,3.1h-10.1C362.7,63.2,363,64.1,363.6,64.6z M367.9,57.3c-0.5-0.5-1.2-0.8-2.1-0.8
		c-0.6,0-1.1,0.1-1.5,0.3c-0.4,0.2-0.7,0.5-1,0.8c-0.2,0.3-0.4,0.6-0.5,1c-0.1,0.3-0.2,0.6-0.2,0.9h6.2
		C368.7,58.5,368.4,57.8,367.9,57.3z"/>
	<path d="M378.7,54v1.9h0.1c0.5-0.7,1.1-1.3,1.8-1.7c0.7-0.4,1.5-0.6,2.4-0.6c0.9,0,1.7,0.2,2.4,0.5c0.7,0.3,1.3,0.9,1.7,1.8
		c0.4-0.6,1-1.2,1.7-1.6s1.6-0.7,2.5-0.7c0.7,0,1.4,0.1,2.1,0.3c0.6,0.2,1.2,0.5,1.6,0.9c0.5,0.4,0.8,0.9,1.1,1.6s0.4,1.4,0.4,2.3
		V68h-3.8v-7.9c0-0.5,0-0.9-0.1-1.3c0-0.4-0.1-0.8-0.3-1.1c-0.2-0.3-0.4-0.5-0.7-0.7c-0.3-0.2-0.7-0.3-1.3-0.3s-1,0.1-1.3,0.3
		c-0.3,0.2-0.6,0.5-0.8,0.8c-0.2,0.3-0.3,0.7-0.4,1.1c-0.1,0.4-0.1,0.9-0.1,1.3V68h-3.8v-7.8c0-0.4,0-0.8,0-1.2
		c0-0.4-0.1-0.8-0.2-1.1s-0.4-0.6-0.7-0.8c-0.3-0.2-0.8-0.3-1.4-0.3c-0.2,0-0.4,0-0.7,0.1s-0.6,0.2-0.9,0.5c-0.3,0.2-0.5,0.5-0.7,1
		c-0.2,0.4-0.3,1-0.3,1.7V68h-3.8V54H378.7z"/>
	<path d="M403.6,64.6c0.6,0.6,1.4,0.8,2.5,0.8c0.8,0,1.4-0.2,2-0.6c0.6-0.4,0.9-0.8,1-1.2h3.4c-0.5,1.7-1.4,2.9-2.5,3.6
		s-2.5,1.1-4,1.1c-1.1,0-2.1-0.2-3-0.5c-0.9-0.4-1.6-0.9-2.2-1.5c-0.6-0.6-1.1-1.4-1.4-2.3c-0.3-0.9-0.5-1.9-0.5-3
		c0-1,0.2-2,0.5-2.9s0.8-1.7,1.5-2.3c0.6-0.7,1.4-1.2,2.3-1.6c0.9-0.4,1.8-0.6,2.9-0.6c1.2,0,2.2,0.2,3.1,0.7s1.6,1.1,2.2,1.8
		c0.6,0.8,1,1.7,1.2,2.6c0.3,1,0.3,2,0.3,3.1h-10.1C402.7,63.2,403,64.1,403.6,64.6z M407.9,57.3c-0.5-0.5-1.2-0.8-2.1-0.8
		c-0.6,0-1.1,0.1-1.5,0.3c-0.4,0.2-0.7,0.5-1,0.8c-0.2,0.3-0.4,0.6-0.5,1c-0.1,0.3-0.2,0.6-0.2,0.9h6.2
		C408.7,58.5,408.3,57.8,407.9,57.3z"/>
	<path d="M418.6,54V56h0.1c0.5-0.8,1.1-1.4,1.9-1.8c0.8-0.4,1.6-0.6,2.4-0.6c1,0,1.9,0.1,2.5,0.4c0.7,0.3,1.2,0.7,1.6,1.2
		c0.4,0.5,0.6,1.1,0.8,1.8s0.2,1.5,0.2,2.4V68h-3.8v-7.9c0-1.2-0.2-2-0.5-2.6c-0.4-0.6-1-0.9-1.9-0.9c-1,0-1.8,0.3-2.3,0.9
		c-0.5,0.6-0.7,1.6-0.7,3.1V68h-3.8V54H418.6z"/>
	<path d="M438.6,54v2.6h-2.8v6.9c0,0.6,0.1,1.1,0.3,1.3c0.2,0.2,0.6,0.3,1.3,0.3c0.2,0,0.4,0,0.6,0s0.4,0,0.6-0.1v3
		c-0.3,0.1-0.7,0.1-1.1,0.1c-0.4,0-0.8,0-1.2,0c-0.6,0-1.2,0-1.7-0.1s-1-0.2-1.4-0.5c-0.4-0.2-0.7-0.6-1-1c-0.2-0.4-0.4-1-0.4-1.7
		v-8.2h-2.3V54h2.3v-4.2h3.8V54H438.6z"/>
	<path d="M440.3,58.3c0.1-0.9,0.3-1.6,0.7-2.2c0.4-0.6,0.9-1.1,1.5-1.4c0.6-0.4,1.3-0.6,2.1-0.8c0.8-0.2,1.5-0.2,2.3-0.2
		c0.7,0,1.4,0,2.1,0.1c0.7,0.1,1.4,0.3,2,0.6c0.6,0.3,1.1,0.7,1.5,1.2c0.4,0.5,0.6,1.2,0.6,2v7.3c0,0.6,0,1.2,0.1,1.8s0.2,1,0.4,1.3
		h-3.9c-0.1-0.2-0.1-0.4-0.2-0.7c0-0.2-0.1-0.5-0.1-0.7c-0.6,0.6-1.3,1.1-2.2,1.3c-0.8,0.3-1.7,0.4-2.5,0.4c-0.7,0-1.3-0.1-1.9-0.2
		c-0.6-0.2-1.1-0.4-1.5-0.8c-0.4-0.3-0.8-0.8-1-1.3c-0.2-0.5-0.4-1.1-0.4-1.9c0-0.8,0.1-1.4,0.4-2s0.6-0.9,1.1-1.2
		c0.4-0.3,0.9-0.5,1.5-0.7c0.6-0.2,1.1-0.3,1.7-0.4s1.1-0.2,1.7-0.2c0.6-0.1,1.1-0.1,1.5-0.2c0.4-0.1,0.8-0.3,1-0.5s0.4-0.5,0.4-0.9
		c0-0.4-0.1-0.7-0.2-1c-0.1-0.2-0.3-0.4-0.5-0.6c-0.2-0.1-0.5-0.2-0.8-0.3c-0.3,0-0.6-0.1-1-0.1c-0.8,0-1.3,0.2-1.8,0.5
		c-0.4,0.3-0.7,0.9-0.8,1.6H440.3z M449.2,61.1c-0.2,0.1-0.4,0.3-0.6,0.3c-0.2,0.1-0.5,0.1-0.8,0.2c-0.3,0.1-0.6,0.1-0.9,0.1
		c-0.3,0-0.6,0.1-0.9,0.1c-0.3,0.1-0.6,0.1-0.9,0.2s-0.5,0.2-0.7,0.4c-0.2,0.2-0.4,0.3-0.5,0.6c-0.1,0.2-0.2,0.5-0.2,0.9
		c0,0.3,0.1,0.6,0.2,0.9c0.1,0.2,0.3,0.4,0.5,0.6c0.2,0.1,0.5,0.2,0.8,0.3c0.3,0.1,0.6,0.1,0.9,0.1c0.8,0,1.3-0.1,1.8-0.4
		c0.4-0.3,0.7-0.6,0.9-0.9c0.2-0.4,0.3-0.7,0.4-1.1c0-0.4,0.1-0.6,0.1-0.9V61.1z"/>
	<path d="M459.9,48.7V68h-3.8V48.7H459.9z"/>
</g>
</svg>
