<?xml version="1.0" encoding="utf-8"?>
<!-- Generator: Adobe Illustrator 25.4.6, SVG Export Plug-In . SVG Version: 6.00 Build 0)  -->
<svg version="1.1" id="Layer_1" xmlns="http://www.w3.org/2000/svg" xmlns:xlink="http://www.w3.org/1999/xlink" x="0px" y="0px"
	 viewBox="0 0 728 90" style="enable-background:new 0 0 728 90;" xml:space="preserve">
<style type="text/css">
	.st0{fill:#339933;}
	.st1{fill:#373535;}
</style>
<g>
	<path class="st0" d="M34.4,18.7L41.6,38h-4.4l-1.5-4.3h-7.2L27,38h-4.3L30,18.7H34.4z M34.6,30.5l-2.4-7.1h-0.1l-2.5,7.1H34.6z"/>
	<path class="st0" d="M61.8,34c-0.1,0.8-0.4,1.5-0.9,2.1c-0.5,0.7-1.1,1.2-1.9,1.6s-2,0.7-3.4,0.7c-0.8,0-1.6-0.1-2.3-0.3
		c-0.8-0.2-1.4-0.6-2-1.1c-0.6-0.5-1.1-1.1-1.4-1.8c-0.4-0.7-0.5-1.7-0.5-2.7v-1.7h3.8v0.9c0,0.5,0,0.9,0.1,1.3
		c0.1,0.4,0.2,0.7,0.4,1c0.2,0.3,0.4,0.5,0.7,0.7c0.3,0.2,0.7,0.2,1.2,0.2c0.6,0,1-0.1,1.3-0.3s0.5-0.5,0.7-0.8
		c0.1-0.3,0.2-0.7,0.2-1c0-0.4,0-0.7,0-1.1v-13H62v13.2C62,32.5,62,33.2,61.8,34z"/>
	<path class="st0" d="M65.6,24.4c0.4-1.2,1.1-2.3,1.9-3.2s1.8-1.6,3-2.2c1.2-0.5,2.5-0.8,4-0.8c1.5,0,2.8,0.3,4,0.8
		c1.2,0.5,2.2,1.2,3,2.2c0.8,0.9,1.4,2,1.9,3.2s0.6,2.6,0.6,4c0,1.4-0.2,2.7-0.6,3.9c-0.4,1.2-1.1,2.3-1.9,3.2
		c-0.8,0.9-1.8,1.6-3,2.1c-1.2,0.5-2.5,0.8-4,0.8c-1.5,0-2.8-0.3-4-0.8c-1.2-0.5-2.2-1.2-3-2.1c-0.8-0.9-1.4-2-1.9-3.2
		c-0.4-1.2-0.6-2.5-0.6-3.9C64.9,27,65.1,25.6,65.6,24.4z M69.4,30.8c0.2,0.8,0.5,1.5,0.9,2.1c0.4,0.6,1,1.1,1.6,1.5
		c0.7,0.4,1.5,0.6,2.4,0.6s1.8-0.2,2.4-0.6c0.7-0.4,1.2-0.9,1.6-1.5c0.4-0.6,0.7-1.3,0.9-2.1s0.3-1.6,0.3-2.4c0-0.8-0.1-1.7-0.3-2.5
		c-0.2-0.8-0.5-1.5-0.9-2.1c-0.4-0.6-1-1.1-1.6-1.5c-0.7-0.4-1.5-0.6-2.4-0.6S72.6,22,72,22.3c-0.7,0.4-1.2,0.9-1.6,1.5
		c-0.4,0.6-0.7,1.3-0.9,2.1c-0.2,0.8-0.3,1.6-0.3,2.5C69.2,29.2,69.3,30,69.4,30.8z"/>
	<path class="st0" d="M100.9,36.5c-1.5,1.3-3.5,1.9-6,1.9c-2.6,0-4.6-0.6-6.1-1.9c-1.4-1.3-2.1-3.2-2.1-5.8v-12h4.2v12
		c0,0.5,0,1,0.1,1.5c0.1,0.5,0.3,0.9,0.6,1.3c0.3,0.4,0.7,0.7,1.2,0.9c0.5,0.2,1.2,0.4,2.1,0.4c1.5,0,2.6-0.3,3.1-1
		c0.6-0.7,0.9-1.7,0.9-3.2v-12h4.2v12C103.1,33.3,102.4,35.2,100.9,36.5z"/>
	<path class="st0" d="M117.2,18.7c0.9,0,1.6,0.1,2.3,0.4c0.7,0.3,1.3,0.7,1.8,1.1c0.5,0.5,0.9,1,1.1,1.7c0.3,0.6,0.4,1.3,0.4,2.1
		c0,1.1-0.2,2.1-0.7,2.9c-0.5,0.8-1.3,1.5-2.3,1.9v0.1c0.5,0.1,1,0.4,1.3,0.7c0.3,0.3,0.6,0.6,0.8,1.1c0.2,0.4,0.4,0.9,0.5,1.3
		c0.1,0.5,0.2,1,0.2,1.5c0,0.3,0,0.7,0.1,1.1c0,0.4,0,0.8,0.1,1.3c0,0.4,0.1,0.8,0.2,1.2c0.1,0.4,0.2,0.7,0.4,1h-4.2
		c-0.2-0.6-0.4-1.3-0.4-2.2c-0.1-0.8-0.1-1.7-0.2-2.4c-0.1-1-0.5-1.7-0.9-2.2c-0.5-0.5-1.2-0.7-2.3-0.7H111V38h-4.2V18.7H117.2z
		 M115.7,27.4c1,0,1.7-0.2,2.2-0.6c0.5-0.4,0.7-1.1,0.7-2.1c0-0.9-0.2-1.6-0.7-2c-0.5-0.4-1.2-0.6-2.2-0.6H111v5.4H115.7z"/>
	<path class="st0" d="M130.5,18.7l8,12.9h0.1V18.7h4V38h-4.2l-8-12.9h-0.1V38h-4V18.7H130.5z"/>
	<path class="st0" d="M160.7,18.7v3.6h-10.2v4.1h9.3v3.3h-9.3v4.7h10.4V38h-14.6V18.7H160.7z"/>
	<path class="st0" d="M161.7,18.7h4.8l4.5,7.6l4.5-7.6h4.7L173,30.6V38h-4.2v-7.5L161.7,18.7z"/>
	<path class="st0" d="M185.6,28c0.3-0.9,0.8-1.7,1.5-2.3c0.6-0.6,1.4-1.1,2.3-1.5c0.9-0.4,1.9-0.5,3-0.5c1.1,0,2.1,0.2,3,0.5
		c0.9,0.4,1.7,0.8,2.3,1.5c0.6,0.6,1.1,1.4,1.5,2.3c0.3,0.9,0.5,1.9,0.5,3s-0.2,2.1-0.5,3c-0.3,0.9-0.8,1.7-1.5,2.3
		c-0.6,0.6-1.4,1.1-2.3,1.5c-0.9,0.3-1.9,0.5-3,0.5c-1.1,0-2.1-0.2-3-0.5c-0.9-0.3-1.6-0.8-2.3-1.5c-0.6-0.6-1.1-1.4-1.5-2.3
		c-0.3-0.9-0.5-1.9-0.5-3S185.2,28.9,185.6,28z M189.1,32.6c0.1,0.5,0.3,1,0.6,1.4c0.3,0.4,0.6,0.8,1,1c0.4,0.3,1,0.4,1.6,0.4
		s1.2-0.1,1.6-0.4c0.4-0.3,0.8-0.6,1.1-1c0.3-0.4,0.4-0.9,0.6-1.4c0.1-0.5,0.2-1.1,0.2-1.6s-0.1-1.1-0.2-1.6c-0.1-0.5-0.3-1-0.6-1.4
		c-0.3-0.4-0.6-0.8-1.1-1c-0.4-0.3-1-0.4-1.6-0.4s-1.2,0.1-1.6,0.4c-0.4,0.3-0.8,0.6-1,1c-0.3,0.4-0.4,0.9-0.6,1.4
		c-0.1,0.5-0.2,1.1-0.2,1.6S189,32.1,189.1,32.6z"/>
	<path class="st0" d="M200.5,26.6V24h2.3v-1.1c0-1.2,0.4-2.3,1.2-3.1c0.8-0.8,1.9-1.2,3.5-1.2c0.3,0,0.7,0,1,0c0.3,0,0.7,0,1,0.1
		v2.9c-0.5-0.1-0.9-0.1-1.4-0.1c-0.5,0-0.9,0.1-1.1,0.4c-0.2,0.2-0.3,0.7-0.3,1.2V24h2.6v2.6h-2.6V38h-3.8V26.6H200.5z"/>
	<path class="st0" d="M218.3,28.3c0.1-0.9,0.3-1.6,0.7-2.2c0.4-0.6,0.9-1.1,1.5-1.4c0.6-0.4,1.3-0.6,2.1-0.8s1.5-0.2,2.3-0.2
		c0.7,0,1.4,0,2.1,0.1c0.7,0.1,1.4,0.3,2,0.6c0.6,0.3,1.1,0.7,1.5,1.2c0.4,0.5,0.6,1.2,0.6,2v7.3c0,0.6,0,1.2,0.1,1.8
		c0.1,0.6,0.2,1,0.4,1.3h-3.9c-0.1-0.2-0.1-0.4-0.2-0.7c0-0.2-0.1-0.5-0.1-0.7c-0.6,0.6-1.3,1.1-2.2,1.3s-1.7,0.4-2.5,0.4
		c-0.7,0-1.3-0.1-1.9-0.2s-1.1-0.4-1.5-0.8c-0.4-0.3-0.8-0.8-1-1.3s-0.4-1.1-0.4-1.9c0-0.8,0.1-1.4,0.4-2c0.3-0.5,0.6-0.9,1.1-1.2
		c0.4-0.3,0.9-0.5,1.5-0.7c0.6-0.2,1.1-0.3,1.7-0.4c0.6-0.1,1.1-0.2,1.7-0.2c0.6-0.1,1.1-0.1,1.5-0.2s0.8-0.3,1-0.5
		c0.3-0.2,0.4-0.5,0.4-0.9c0-0.4-0.1-0.7-0.2-1c-0.1-0.2-0.3-0.4-0.5-0.6c-0.2-0.1-0.5-0.2-0.8-0.3c-0.3,0-0.6-0.1-1-0.1
		c-0.8,0-1.4,0.2-1.8,0.5c-0.4,0.3-0.7,0.9-0.8,1.6H218.3z M227.2,31.1c-0.2,0.1-0.4,0.3-0.6,0.3s-0.5,0.1-0.8,0.2
		c-0.3,0.1-0.6,0.1-0.9,0.1s-0.6,0.1-0.9,0.1c-0.3,0.1-0.6,0.1-0.9,0.2c-0.3,0.1-0.5,0.2-0.7,0.4c-0.2,0.2-0.4,0.3-0.5,0.6
		c-0.1,0.2-0.2,0.5-0.2,0.9c0,0.3,0.1,0.6,0.2,0.9c0.1,0.2,0.3,0.4,0.5,0.6c0.2,0.1,0.5,0.2,0.8,0.3c0.3,0.1,0.6,0.1,0.9,0.1
		c0.8,0,1.3-0.1,1.8-0.4c0.4-0.3,0.7-0.6,0.9-0.9c0.2-0.4,0.3-0.7,0.4-1.1c0-0.4,0.1-0.6,0.1-0.9V31.1z"/>
	<path class="st0" d="M239,22.3v-3.6h15.8v3.6h-5.8V38h-4.2V22.3H239z"/>
	<path class="st0" d="M261.3,18.7v7.4h7.8v-7.4h4.2V38h-4.2v-8.3h-7.8V38h-4.2V18.7H261.3z"/>
	<path class="st0" d="M276.9,24.4c0.4-1.2,1.1-2.3,1.9-3.2s1.8-1.6,3-2.2c1.2-0.5,2.5-0.8,4-0.8c1.5,0,2.8,0.3,4,0.8
		c1.2,0.5,2.2,1.2,3,2.2c0.8,0.9,1.4,2,1.9,3.2s0.6,2.6,0.6,4c0,1.4-0.2,2.7-0.6,3.9c-0.4,1.2-1.1,2.3-1.9,3.2
		c-0.8,0.9-1.8,1.6-3,2.1c-1.2,0.5-2.5,0.8-4,0.8c-1.5,0-2.8-0.3-4-0.8c-1.2-0.5-2.2-1.2-3-2.1c-0.8-0.9-1.4-2-1.9-3.2
		c-0.4-1.2-0.6-2.5-0.6-3.9C276.2,27,276.4,25.6,276.9,24.4z M280.7,30.8c0.2,0.8,0.5,1.5,0.9,2.1c0.4,0.6,1,1.1,1.6,1.5
		c0.7,0.4,1.5,0.6,2.4,0.6s1.8-0.2,2.4-0.6c0.7-0.4,1.2-0.9,1.6-1.5c0.4-0.6,0.7-1.3,0.9-2.1s0.3-1.6,0.3-2.4c0-0.8-0.1-1.7-0.3-2.5
		c-0.2-0.8-0.5-1.5-0.9-2.1c-0.4-0.6-1-1.1-1.6-1.5c-0.7-0.4-1.5-0.6-2.4-0.6s-1.8,0.2-2.4,0.6c-0.7,0.4-1.2,0.9-1.6,1.5
		c-0.4,0.6-0.7,1.3-0.9,2.1c-0.2,0.8-0.3,1.6-0.3,2.5C280.5,29.2,280.6,30,280.7,30.8z"/>
	<path class="st0" d="M312.2,36.5c-1.5,1.3-3.5,1.9-6,1.9c-2.6,0-4.6-0.6-6.1-1.9c-1.4-1.3-2.1-3.2-2.1-5.8v-12h4.2v12
		c0,0.5,0,1,0.1,1.5c0.1,0.5,0.3,0.9,0.6,1.3c0.3,0.4,0.7,0.7,1.2,0.9c0.5,0.2,1.2,0.4,2.1,0.4c1.5,0,2.6-0.3,3.1-1
		c0.6-0.7,0.9-1.7,0.9-3.2v-12h4.2v12C314.4,33.3,313.7,35.2,312.2,36.5z"/>
	<path class="st0" d="M321.3,33.2c0.2,0.5,0.5,0.8,0.9,1.1c0.4,0.3,0.8,0.5,1.4,0.6c0.5,0.1,1.1,0.2,1.6,0.2c0.4,0,0.8,0,1.2-0.1
		c0.4-0.1,0.8-0.2,1.2-0.4c0.4-0.2,0.7-0.4,0.9-0.7c0.3-0.3,0.4-0.7,0.4-1.2c0-0.5-0.2-0.9-0.5-1.3c-0.3-0.3-0.8-0.6-1.3-0.8
		c-0.5-0.2-1.2-0.4-1.8-0.6c-0.7-0.2-1.4-0.3-2.1-0.5c-0.7-0.2-1.4-0.4-2.1-0.7c-0.7-0.3-1.3-0.6-1.8-1c-0.5-0.4-1-0.9-1.3-1.6
		s-0.5-1.4-0.5-2.3c0-1,0.2-1.8,0.6-2.6c0.4-0.7,1-1.3,1.7-1.8c0.7-0.5,1.5-0.8,2.3-1.1c0.9-0.2,1.7-0.4,2.6-0.4c1,0,2,0.1,2.9,0.3
		c0.9,0.2,1.8,0.6,2.5,1.1c0.7,0.5,1.3,1.1,1.7,1.9s0.6,1.7,0.6,2.8h-4.1c0-0.6-0.2-1.1-0.4-1.4s-0.5-0.7-0.8-0.9
		c-0.3-0.2-0.7-0.4-1.2-0.5c-0.4-0.1-0.9-0.1-1.4-0.1c-0.3,0-0.7,0-1,0.1c-0.3,0.1-0.7,0.2-0.9,0.4c-0.3,0.2-0.5,0.4-0.7,0.7
		c-0.2,0.3-0.3,0.6-0.3,1c0,0.4,0.1,0.7,0.2,0.9c0.1,0.2,0.4,0.5,0.9,0.6c0.4,0.2,1,0.4,1.8,0.6c0.7,0.2,1.7,0.5,2.9,0.8
		c0.4,0.1,0.9,0.2,1.5,0.4c0.6,0.2,1.3,0.5,1.9,0.9c0.6,0.4,1.2,1,1.6,1.7s0.7,1.6,0.7,2.7c0,0.9-0.2,1.7-0.5,2.5s-0.9,1.4-1.5,2
		c-0.7,0.5-1.5,1-2.5,1.3c-1,0.3-2.2,0.5-3.5,0.5c-1.1,0-2.1-0.1-3.1-0.4s-1.9-0.7-2.6-1.2c-0.8-0.6-1.4-1.3-1.8-2.1
		c-0.5-0.9-0.7-1.9-0.6-3.1h4.1C321,32.2,321.1,32.8,321.3,33.2z"/>
	<path class="st0" d="M345.2,18.7l7.2,19.3H348l-1.5-4.3h-7.2l-1.5,4.3h-4.3l7.3-19.3H345.2z M345.5,30.5l-2.4-7.1H343l-2.5,7.1
		H345.5z"/>
	<path class="st0" d="M358.3,18.7l8,12.9h0.1V18.7h4V38h-4.2l-8-12.9h-0.1V38h-4V18.7H358.3z"/>
	<path class="st0" d="M382.4,18.7c1.2,0,2.4,0.2,3.5,0.6c1.1,0.4,2,1,2.8,1.8s1.4,1.8,1.8,3c0.4,1.2,0.7,2.6,0.7,4.2
		c0,1.4-0.2,2.7-0.5,3.9s-0.9,2.2-1.6,3.1c-0.7,0.9-1.6,1.5-2.7,2c-1.1,0.5-2.4,0.7-3.8,0.7h-8.3V18.7H382.4z M382.1,34.4
		c0.6,0,1.2-0.1,1.8-0.3s1.1-0.5,1.5-1c0.4-0.5,0.8-1.1,1.1-1.8c0.3-0.7,0.4-1.6,0.4-2.7c0-1-0.1-1.8-0.3-2.6
		c-0.2-0.8-0.5-1.5-0.9-2c-0.4-0.6-1-1-1.7-1.3c-0.7-0.3-1.6-0.4-2.6-0.4h-3v12.1H382.1z"/>
	<path class="st0" d="M404.9,33.2c0.2,0.5,0.5,0.8,0.9,1.1c0.4,0.3,0.8,0.5,1.4,0.6c0.5,0.1,1.1,0.2,1.6,0.2c0.4,0,0.8,0,1.2-0.1
		c0.4-0.1,0.8-0.2,1.2-0.4c0.4-0.2,0.7-0.4,0.9-0.7c0.3-0.3,0.4-0.7,0.4-1.2c0-0.5-0.2-0.9-0.5-1.3c-0.3-0.3-0.8-0.6-1.3-0.8
		c-0.5-0.2-1.2-0.4-1.8-0.6c-0.7-0.2-1.4-0.3-2.1-0.5c-0.7-0.2-1.4-0.4-2.1-0.7c-0.7-0.3-1.3-0.6-1.8-1c-0.5-0.4-1-0.9-1.3-1.6
		c-0.3-0.6-0.5-1.4-0.5-2.3c0-1,0.2-1.8,0.6-2.6s1-1.3,1.7-1.8c0.7-0.5,1.5-0.8,2.3-1.1c0.9-0.2,1.7-0.4,2.6-0.4c1,0,2,0.1,2.9,0.3
		s1.8,0.6,2.5,1.1c0.7,0.5,1.3,1.1,1.7,1.9c0.4,0.8,0.6,1.7,0.6,2.8h-4.1c0-0.6-0.2-1.1-0.4-1.4c-0.2-0.4-0.5-0.7-0.8-0.9
		c-0.3-0.2-0.7-0.4-1.2-0.5c-0.4-0.1-0.9-0.1-1.4-0.1c-0.3,0-0.7,0-1,0.1c-0.3,0.1-0.7,0.2-0.9,0.4c-0.3,0.2-0.5,0.4-0.7,0.7
		c-0.2,0.3-0.3,0.6-0.3,1c0,0.4,0.1,0.7,0.2,0.9c0.1,0.2,0.4,0.5,0.9,0.6c0.4,0.2,1,0.4,1.8,0.6c0.7,0.2,1.7,0.5,2.9,0.8
		c0.4,0.1,0.9,0.2,1.5,0.4c0.6,0.2,1.3,0.5,1.9,0.9s1.2,1,1.6,1.7s0.7,1.6,0.7,2.7c0,0.9-0.2,1.7-0.5,2.5c-0.3,0.8-0.9,1.4-1.5,2
		c-0.7,0.5-1.5,1-2.5,1.3c-1,0.3-2.2,0.5-3.5,0.5c-1.1,0-2.1-0.1-3.1-0.4s-1.9-0.7-2.6-1.2c-0.8-0.6-1.4-1.3-1.8-2.1
		c-0.5-0.9-0.7-1.9-0.6-3.1h4.1C404.5,32.2,404.6,32.8,404.9,33.2z"/>
	<path class="st0" d="M425.1,18.7l4.5,13.3h0.1l4.3-13.3h6V38h-4V24.3h-0.1L431.1,38h-3.3l-4.7-13.5h-0.1V38h-4V18.7H425.1z"/>
	<path class="st0" d="M447.9,18.7V38h-4.2V18.7H447.9z"/>
	<path class="st0" d="M455.8,18.7v15.7h9.4V38h-13.6V18.7H455.8z"/>
	<path class="st0" d="M482,18.7v3.6h-10.2v4.1h9.3v3.3h-9.3v4.7h10.4V38h-14.6V18.7H482z"/>
	<path class="st0" d="M488.3,33.2c0.2,0.5,0.5,0.8,0.9,1.1c0.4,0.3,0.8,0.5,1.4,0.6c0.5,0.1,1.1,0.2,1.6,0.2c0.4,0,0.8,0,1.2-0.1
		c0.4-0.1,0.8-0.2,1.2-0.4c0.4-0.2,0.7-0.4,0.9-0.7c0.3-0.3,0.4-0.7,0.4-1.2c0-0.5-0.2-0.9-0.5-1.3c-0.3-0.3-0.8-0.6-1.3-0.8
		c-0.5-0.2-1.2-0.4-1.8-0.6c-0.7-0.2-1.4-0.3-2.1-0.5c-0.7-0.2-1.4-0.4-2.1-0.7c-0.7-0.3-1.3-0.6-1.8-1c-0.5-0.4-1-0.9-1.3-1.6
		c-0.3-0.6-0.5-1.4-0.5-2.3c0-1,0.2-1.8,0.6-2.6s1-1.3,1.7-1.8c0.7-0.5,1.5-0.8,2.3-1.1c0.9-0.2,1.7-0.4,2.6-0.4c1,0,2,0.1,2.9,0.3
		s1.8,0.6,2.5,1.1c0.7,0.5,1.3,1.1,1.7,1.9c0.4,0.8,0.6,1.7,0.6,2.8h-4.1c0-0.6-0.2-1.1-0.4-1.4c-0.2-0.4-0.5-0.7-0.8-0.9
		c-0.3-0.2-0.7-0.4-1.2-0.5c-0.4-0.1-0.9-0.1-1.4-0.1c-0.3,0-0.7,0-1,0.1c-0.3,0.1-0.7,0.2-0.9,0.4c-0.3,0.2-0.5,0.4-0.7,0.7
		c-0.2,0.3-0.3,0.6-0.3,1c0,0.4,0.1,0.7,0.2,0.9c0.1,0.2,0.4,0.5,0.9,0.6c0.4,0.2,1,0.4,1.8,0.6c0.7,0.2,1.7,0.5,2.9,0.8
		c0.4,0.1,0.9,0.2,1.5,0.4c0.6,0.2,1.3,0.5,1.9,0.9s1.2,1,1.6,1.7s0.7,1.6,0.7,2.7c0,0.9-0.2,1.7-0.5,2.5c-0.3,0.8-0.9,1.4-1.5,2
		c-0.7,0.5-1.5,1-2.5,1.3c-1,0.3-2.2,0.5-3.5,0.5c-1.1,0-2.1-0.1-3.1-0.4s-1.9-0.7-2.6-1.2c-0.8-0.6-1.4-1.3-1.8-2.1
		c-0.5-0.9-0.7-1.9-0.6-3.1h4.1C488,32.2,488.1,32.8,488.3,33.2z"/>
</g>
<g>
	<path class="st1" d="M28.2,46.7v7h0.1c0.5-0.7,1.1-1.2,1.9-1.6c0.8-0.3,1.6-0.5,2.5-0.5c0.7,0,1.4,0.1,2.1,0.4
		c0.7,0.3,1.3,0.7,1.8,1.3c0.5,0.6,1,1.4,1.3,2.3c0.3,0.9,0.5,2,0.5,3.3s-0.2,2.4-0.5,3.3c-0.3,0.9-0.8,1.7-1.3,2.3
		c-0.5,0.6-1.2,1-1.8,1.3c-0.7,0.3-1.4,0.4-2.1,0.4c-1,0-1.9-0.2-2.8-0.5c-0.8-0.3-1.4-0.9-1.8-1.6H28V66h-3.6V46.7H28.2z
		 M34.4,57.3c-0.1-0.5-0.3-1-0.6-1.4c-0.3-0.4-0.6-0.7-1-1s-0.9-0.4-1.5-0.4c-0.6,0-1,0.1-1.5,0.4s-0.8,0.6-1,1
		c-0.3,0.4-0.5,0.9-0.6,1.4C28.1,57.8,28,58.4,28,59c0,0.6,0.1,1.1,0.2,1.7c0.1,0.5,0.3,1,0.6,1.4s0.6,0.7,1,1s0.9,0.4,1.5,0.4
		c0.6,0,1.1-0.1,1.5-0.4s0.7-0.6,1-1s0.5-0.9,0.6-1.4s0.2-1.1,0.2-1.7C34.6,58.4,34.5,57.8,34.4,57.3z"/>
	<path class="st1" d="M44.9,62.6c0.6,0.6,1.4,0.8,2.5,0.8c0.8,0,1.4-0.2,2-0.6c0.6-0.4,0.9-0.8,1-1.2h3.4c-0.5,1.7-1.4,2.9-2.5,3.6
		c-1.1,0.7-2.5,1.1-4,1.1c-1.1,0-2.1-0.2-3-0.5s-1.6-0.9-2.2-1.5c-0.6-0.6-1.1-1.4-1.4-2.3c-0.3-0.9-0.5-1.9-0.5-3
		c0-1,0.2-2,0.5-2.9c0.3-0.9,0.8-1.7,1.5-2.3c0.6-0.7,1.4-1.2,2.3-1.6s1.8-0.6,2.9-0.6c1.2,0,2.2,0.2,3.1,0.7
		c0.9,0.5,1.6,1.1,2.2,1.8c0.6,0.8,1,1.7,1.2,2.6c0.3,1,0.3,2,0.3,3.1H44C44.1,61.2,44.4,62.1,44.9,62.6z M49.3,55.3
		c-0.5-0.5-1.2-0.8-2.1-0.8c-0.6,0-1.1,0.1-1.5,0.3c-0.4,0.2-0.7,0.5-1,0.8c-0.2,0.3-0.4,0.6-0.5,1c-0.1,0.3-0.2,0.6-0.2,0.9h6.2
		C50.1,56.5,49.7,55.8,49.3,55.3z"/>
	<path class="st1" d="M69.5,67c-0.2,0.7-0.5,1.4-1,2c-0.5,0.6-1.2,1.1-2.2,1.6c-1,0.4-2.2,0.6-3.8,0.6c-0.7,0-1.4-0.1-2.1-0.3
		s-1.4-0.4-1.9-0.8c-0.6-0.4-1.1-0.8-1.5-1.4c-0.4-0.6-0.6-1.2-0.7-2h3.8c0.2,0.7,0.5,1.2,1.1,1.5c0.5,0.3,1.1,0.4,1.8,0.4
		c1.1,0,1.9-0.3,2.4-1c0.5-0.6,0.7-1.5,0.7-2.5v-1.8h-0.1c-0.4,0.7-1,1.3-1.8,1.6c-0.8,0.4-1.6,0.5-2.4,0.5c-1,0-1.9-0.2-2.7-0.6
		c-0.8-0.4-1.4-0.9-1.9-1.5c-0.5-0.6-0.8-1.4-1.1-2.2c-0.2-0.9-0.3-1.8-0.3-2.7c0-0.9,0.1-1.8,0.4-2.6c0.3-0.8,0.6-1.6,1.1-2.2
		c0.5-0.6,1.1-1.1,1.9-1.5c0.7-0.4,1.6-0.6,2.6-0.6c0.9,0,1.7,0.2,2.4,0.5c0.7,0.3,1.3,0.9,1.7,1.7h0.1V52h3.6v13.1
		C69.8,65.6,69.7,66.3,69.5,67z M64.3,62.4c0.4-0.2,0.8-0.5,1-0.9c0.3-0.4,0.5-0.8,0.6-1.2c0.1-0.5,0.2-0.9,0.2-1.4
		c0-0.6-0.1-1.1-0.2-1.6c-0.1-0.5-0.3-1-0.5-1.4c-0.3-0.4-0.6-0.7-1-0.9c-0.4-0.2-0.9-0.4-1.6-0.4c-0.5,0-1,0.1-1.4,0.3
		c-0.4,0.2-0.7,0.5-1,0.9c-0.3,0.4-0.5,0.8-0.6,1.3c-0.1,0.5-0.2,1-0.2,1.5c0,0.5,0,1,0.1,1.5s0.3,0.9,0.5,1.3c0.2,0.4,0.6,0.7,1,1
		c0.4,0.3,0.9,0.4,1.5,0.4C63.4,62.7,63.9,62.6,64.3,62.4z"/>
	<path class="st1" d="M72.9,49.8v-3.2h3.8v3.2H72.9z M76.8,52v14h-3.8V52H76.8z"/>
	<path class="st1" d="M83.4,52V54h0.1c0.5-0.8,1.1-1.4,1.9-1.8c0.8-0.4,1.6-0.6,2.4-0.6c1,0,1.9,0.1,2.5,0.4
		c0.7,0.3,1.2,0.7,1.6,1.2s0.6,1.1,0.8,1.8c0.2,0.7,0.2,1.5,0.2,2.4V66h-3.8v-7.9c0-1.2-0.2-2-0.5-2.6c-0.4-0.6-1-0.9-1.9-0.9
		c-1,0-1.8,0.3-2.3,0.9c-0.5,0.6-0.7,1.6-0.7,3.1V66h-3.8V52H83.4z"/>
	<path class="st1" d="M99,62.5c0.2,0.3,0.4,0.5,0.7,0.7c0.3,0.2,0.6,0.3,0.9,0.4s0.7,0.1,1.1,0.1c0.3,0,0.6,0,0.9-0.1
		c0.3-0.1,0.6-0.2,0.8-0.3c0.2-0.1,0.4-0.3,0.6-0.5c0.2-0.2,0.2-0.5,0.2-0.9c0-0.6-0.4-1-1.1-1.3c-0.8-0.3-1.8-0.6-3.2-0.9
		c-0.6-0.1-1.1-0.3-1.6-0.4c-0.5-0.2-1-0.4-1.4-0.7c-0.4-0.3-0.7-0.6-1-1.1s-0.4-0.9-0.4-1.6c0-0.9,0.2-1.6,0.5-2.2
		c0.4-0.6,0.8-1,1.4-1.4s1.2-0.6,1.9-0.7s1.5-0.2,2.2-0.2c0.8,0,1.5,0.1,2.2,0.2c0.7,0.1,1.3,0.4,1.9,0.7c0.6,0.3,1,0.8,1.4,1.4
		c0.4,0.6,0.6,1.3,0.7,2.1H104c-0.1-0.7-0.3-1.2-0.8-1.5c-0.5-0.3-1.1-0.4-1.8-0.4c-0.2,0-0.5,0-0.7,0c-0.3,0-0.5,0.1-0.7,0.2
		c-0.2,0.1-0.4,0.2-0.5,0.4c-0.1,0.2-0.2,0.4-0.2,0.7c0,0.3,0.1,0.6,0.4,0.8c0.3,0.2,0.6,0.4,1,0.5c0.4,0.1,0.9,0.3,1.4,0.4
		c0.5,0.1,1.1,0.2,1.6,0.4c0.6,0.1,1.1,0.3,1.6,0.5c0.5,0.2,1,0.4,1.4,0.7s0.7,0.7,1,1.1c0.3,0.4,0.4,1,0.4,1.6
		c0,0.9-0.2,1.7-0.6,2.3c-0.4,0.6-0.9,1.1-1.4,1.5c-0.6,0.4-1.3,0.6-2,0.8c-0.8,0.2-1.5,0.2-2.3,0.2c-0.8,0-1.6-0.1-2.4-0.2
		s-1.5-0.4-2.1-0.8s-1.1-0.9-1.5-1.5c-0.4-0.6-0.6-1.4-0.6-2.3h3.6C98.8,61.8,98.9,62.2,99,62.5z"/>
	<path class="st1" d="M129.8,66l-2.5-9.4h-0.1l-2.4,9.4h-4l-4.4-14h4l2.6,9.5h0.1l2.3-9.5h3.7l2.4,9.5h0.1l2.6-9.5h3.9l-4.4,14
		H129.8z"/>
	<path class="st1" d="M139.9,49.8v-3.2h3.8v3.2H139.9z M143.7,52v14h-3.8V52H143.7z"/>
	<path class="st1" d="M154.4,52v2.6h-2.8v6.9c0,0.6,0.1,1.1,0.3,1.3c0.2,0.2,0.6,0.3,1.3,0.3c0.2,0,0.4,0,0.6,0c0.2,0,0.4,0,0.6-0.1
		v3c-0.3,0.1-0.7,0.1-1.1,0.1s-0.8,0-1.2,0c-0.6,0-1.2,0-1.7-0.1s-1-0.2-1.4-0.5c-0.4-0.2-0.7-0.6-1-1c-0.2-0.4-0.4-1-0.4-1.7v-8.2
		h-2.3V52h2.3v-4.2h3.8V52H154.4z"/>
	<path class="st1" d="M160.1,46.7V54h0.1c0.5-0.8,1.1-1.4,1.9-1.8c0.8-0.4,1.5-0.6,2.2-0.6c1,0,1.9,0.1,2.5,0.4
		c0.7,0.3,1.2,0.7,1.6,1.2s0.6,1.1,0.8,1.8c0.2,0.7,0.2,1.5,0.2,2.4V66h-3.8v-7.9c0-1.2-0.2-2-0.5-2.6c-0.4-0.6-1-0.9-1.9-0.9
		c-1,0-1.8,0.3-2.3,0.9c-0.5,0.6-0.7,1.6-0.7,3.1V66h-3.8V46.7H160.1z"/>
	<path class="st1" d="M179.6,56.3c0.1-0.9,0.3-1.6,0.7-2.2c0.4-0.6,0.9-1.1,1.5-1.4s1.3-0.6,2.1-0.8c0.8-0.2,1.5-0.2,2.3-0.2
		c0.7,0,1.4,0,2.1,0.1c0.7,0.1,1.4,0.3,2,0.6c0.6,0.3,1.1,0.7,1.5,1.2c0.4,0.5,0.6,1.2,0.6,2v7.3c0,0.6,0,1.2,0.1,1.8
		c0.1,0.6,0.2,1,0.4,1.3h-3.9c-0.1-0.2-0.1-0.4-0.2-0.7c0-0.2-0.1-0.5-0.1-0.7c-0.6,0.6-1.3,1.1-2.2,1.3s-1.7,0.4-2.5,0.4
		c-0.7,0-1.3-0.1-1.9-0.2s-1.1-0.4-1.5-0.8c-0.4-0.3-0.8-0.8-1-1.3c-0.2-0.5-0.4-1.1-0.4-1.9c0-0.8,0.1-1.4,0.4-2
		c0.3-0.5,0.6-0.9,1.1-1.2c0.4-0.3,0.9-0.5,1.5-0.7c0.6-0.2,1.1-0.3,1.7-0.4s1.1-0.2,1.7-0.2c0.6-0.1,1.1-0.1,1.5-0.2
		c0.4-0.1,0.8-0.3,1-0.5s0.4-0.5,0.4-0.9c0-0.4-0.1-0.7-0.2-1c-0.1-0.2-0.3-0.4-0.5-0.6c-0.2-0.1-0.5-0.2-0.8-0.3
		c-0.3,0-0.6-0.1-1-0.1c-0.8,0-1.4,0.2-1.8,0.5c-0.4,0.3-0.7,0.9-0.8,1.6H179.6z M188.5,59.1c-0.2,0.1-0.4,0.3-0.6,0.3
		s-0.5,0.1-0.8,0.2c-0.3,0.1-0.6,0.1-0.9,0.1s-0.6,0.1-0.9,0.1c-0.3,0.1-0.6,0.1-0.9,0.2c-0.3,0.1-0.5,0.2-0.7,0.4
		c-0.2,0.2-0.4,0.3-0.5,0.6c-0.1,0.2-0.2,0.5-0.2,0.9c0,0.3,0.1,0.6,0.2,0.9c0.1,0.2,0.3,0.4,0.5,0.6c0.2,0.1,0.5,0.2,0.8,0.3
		c0.3,0.1,0.6,0.1,0.9,0.1c0.8,0,1.3-0.1,1.8-0.4c0.4-0.3,0.7-0.6,0.9-0.9c0.2-0.4,0.3-0.7,0.4-1.1s0.1-0.6,0.1-0.9V59.1z"/>
	<path class="st1" d="M206,62.5c0.2,0.3,0.4,0.5,0.7,0.7c0.3,0.2,0.6,0.3,0.9,0.4s0.7,0.1,1.1,0.1c0.3,0,0.6,0,0.9-0.1
		c0.3-0.1,0.6-0.2,0.8-0.3c0.2-0.1,0.4-0.3,0.6-0.5c0.2-0.2,0.2-0.5,0.2-0.9c0-0.6-0.4-1-1.1-1.3c-0.8-0.3-1.8-0.6-3.2-0.9
		c-0.6-0.1-1.1-0.3-1.6-0.4c-0.5-0.2-1-0.4-1.4-0.7c-0.4-0.3-0.7-0.6-1-1.1s-0.4-0.9-0.4-1.6c0-0.9,0.2-1.6,0.5-2.2
		c0.4-0.6,0.8-1,1.4-1.4s1.2-0.6,1.9-0.7s1.5-0.2,2.2-0.2c0.8,0,1.5,0.1,2.2,0.2c0.7,0.1,1.3,0.4,1.9,0.7c0.6,0.3,1,0.8,1.4,1.4
		c0.4,0.6,0.6,1.3,0.7,2.1H211c-0.1-0.7-0.3-1.2-0.8-1.5c-0.5-0.3-1.1-0.4-1.8-0.4c-0.2,0-0.5,0-0.7,0c-0.3,0-0.5,0.1-0.7,0.2
		c-0.2,0.1-0.4,0.2-0.5,0.4c-0.1,0.2-0.2,0.4-0.2,0.7c0,0.3,0.1,0.6,0.4,0.8c0.3,0.2,0.6,0.4,1,0.5c0.4,0.1,0.9,0.3,1.4,0.4
		c0.5,0.1,1.1,0.2,1.6,0.4c0.6,0.1,1.1,0.3,1.6,0.5c0.5,0.2,1,0.4,1.4,0.7s0.7,0.7,1,1.1c0.3,0.4,0.4,1,0.4,1.6
		c0,0.9-0.2,1.7-0.6,2.3c-0.4,0.6-0.9,1.1-1.4,1.5c-0.6,0.4-1.3,0.6-2,0.8c-0.8,0.2-1.5,0.2-2.3,0.2c-0.8,0-1.6-0.1-2.4-0.2
		s-1.5-0.4-2.1-0.8s-1.1-0.9-1.5-1.5c-0.4-0.6-0.6-1.4-0.6-2.3h3.6C205.8,61.8,205.8,62.2,206,62.5z"/>
	<path class="st1" d="M217.4,49.8v-3.2h3.8v3.2H217.4z M221.2,52v14h-3.8V52H221.2z"/>
	<path class="st1" d="M227.9,52V54h0.1c0.5-0.8,1.1-1.4,1.9-1.8c0.8-0.4,1.6-0.6,2.4-0.6c1,0,1.9,0.1,2.5,0.4
		c0.7,0.3,1.2,0.7,1.6,1.2s0.6,1.1,0.8,1.8c0.2,0.7,0.2,1.5,0.2,2.4V66h-3.8v-7.9c0-1.2-0.2-2-0.5-2.6c-0.4-0.6-1-0.9-1.9-0.9
		c-1,0-1.8,0.3-2.3,0.9c-0.5,0.6-0.7,1.6-0.7,3.1V66h-3.8V52H227.9z"/>
	<path class="st1" d="M253.4,67c-0.2,0.7-0.5,1.4-1,2c-0.5,0.6-1.2,1.1-2.2,1.6c-1,0.4-2.2,0.6-3.8,0.6c-0.7,0-1.4-0.1-2.1-0.3
		s-1.4-0.4-1.9-0.8c-0.6-0.4-1.1-0.8-1.5-1.4c-0.4-0.6-0.6-1.2-0.7-2h3.8c0.2,0.7,0.5,1.2,1.1,1.5c0.5,0.3,1.1,0.4,1.8,0.4
		c1.1,0,1.9-0.3,2.4-1c0.5-0.6,0.7-1.5,0.7-2.5v-1.8H250c-0.4,0.7-1,1.3-1.8,1.6c-0.8,0.4-1.6,0.5-2.4,0.5c-1,0-1.9-0.2-2.7-0.6
		c-0.8-0.4-1.4-0.9-1.9-1.5c-0.5-0.6-0.8-1.4-1.1-2.2c-0.2-0.9-0.3-1.8-0.3-2.7c0-0.9,0.1-1.8,0.4-2.6c0.3-0.8,0.6-1.6,1.1-2.2
		c0.5-0.6,1.1-1.1,1.9-1.5c0.7-0.4,1.6-0.6,2.6-0.6c0.9,0,1.7,0.2,2.4,0.5c0.7,0.3,1.3,0.9,1.7,1.7h0.1V52h3.6v13.1
		C253.7,65.6,253.6,66.3,253.4,67z M248.2,62.4c0.4-0.2,0.8-0.5,1-0.9c0.3-0.4,0.5-0.8,0.6-1.2c0.1-0.5,0.2-0.9,0.2-1.4
		c0-0.6-0.1-1.1-0.2-1.6c-0.1-0.5-0.3-1-0.5-1.4c-0.3-0.4-0.6-0.7-1-0.9c-0.4-0.2-0.9-0.4-1.6-0.4c-0.5,0-1,0.1-1.4,0.3
		c-0.4,0.2-0.7,0.5-1,0.9c-0.3,0.4-0.5,0.8-0.6,1.3c-0.1,0.5-0.2,1-0.2,1.5c0,0.5,0,1,0.1,1.5s0.3,0.9,0.5,1.3c0.2,0.4,0.6,0.7,1,1
		c0.4,0.3,0.9,0.4,1.5,0.4C247.3,62.7,247.8,62.6,248.2,62.4z"/>
	<path class="st1" d="M260.7,46.7V66h-3.8V46.7H260.7z"/>
	<path class="st1" d="M267.8,62.6c0.6,0.6,1.4,0.8,2.5,0.8c0.8,0,1.4-0.2,2-0.6c0.6-0.4,0.9-0.8,1-1.2h3.4c-0.5,1.7-1.4,2.9-2.5,3.6
		c-1.1,0.7-2.5,1.1-4,1.1c-1.1,0-2.1-0.2-3-0.5s-1.6-0.9-2.2-1.5c-0.6-0.6-1.1-1.4-1.4-2.3c-0.3-0.9-0.5-1.9-0.5-3
		c0-1,0.2-2,0.5-2.9c0.3-0.9,0.8-1.7,1.5-2.3c0.6-0.7,1.4-1.2,2.3-1.6s1.8-0.6,2.9-0.6c1.2,0,2.2,0.2,3.1,0.7
		c0.9,0.5,1.6,1.1,2.2,1.8c0.6,0.8,1,1.7,1.2,2.6c0.3,1,0.3,2,0.3,3.1h-10.1C266.9,61.2,267.2,62.1,267.8,62.6z M272.2,55.3
		c-0.5-0.5-1.2-0.8-2.1-0.8c-0.6,0-1.1,0.1-1.5,0.3c-0.4,0.2-0.7,0.5-1,0.8c-0.2,0.3-0.4,0.6-0.5,1c-0.1,0.3-0.2,0.6-0.2,0.9h6.2
		C272.9,56.5,272.6,55.8,272.2,55.3z"/>
	<path class="st1" d="M290.4,61.2c0.2,0.5,0.5,0.8,0.9,1.1c0.4,0.3,0.8,0.5,1.4,0.6c0.5,0.1,1.1,0.2,1.6,0.2c0.4,0,0.8,0,1.2-0.1
		c0.4-0.1,0.8-0.2,1.2-0.4c0.4-0.2,0.7-0.4,0.9-0.7c0.3-0.3,0.4-0.7,0.4-1.2c0-0.5-0.2-0.9-0.5-1.3c-0.3-0.3-0.8-0.6-1.3-0.8
		s-1.2-0.4-1.8-0.6c-0.7-0.2-1.4-0.3-2.1-0.5c-0.7-0.2-1.4-0.4-2.1-0.7c-0.7-0.3-1.3-0.6-1.8-1c-0.5-0.4-1-0.9-1.3-1.6
		s-0.5-1.4-0.5-2.3c0-1,0.2-1.8,0.6-2.6c0.4-0.7,1-1.3,1.7-1.8c0.7-0.5,1.5-0.8,2.3-1.1c0.9-0.2,1.7-0.4,2.6-0.4c1,0,2,0.1,2.9,0.3
		c0.9,0.2,1.8,0.6,2.5,1.1c0.7,0.5,1.3,1.1,1.7,1.9s0.6,1.7,0.6,2.8h-4.1c0-0.6-0.2-1.1-0.4-1.4s-0.5-0.7-0.8-0.9
		c-0.3-0.2-0.7-0.4-1.2-0.5c-0.4-0.1-0.9-0.1-1.4-0.1c-0.3,0-0.7,0-1,0.1c-0.3,0.1-0.7,0.2-0.9,0.4c-0.3,0.2-0.5,0.4-0.7,0.7
		c-0.2,0.3-0.3,0.6-0.3,1c0,0.4,0.1,0.7,0.2,0.9c0.1,0.2,0.4,0.5,0.9,0.6c0.4,0.2,1,0.4,1.8,0.6c0.7,0.2,1.7,0.5,2.9,0.8
		c0.4,0.1,0.9,0.2,1.5,0.4c0.6,0.2,1.3,0.5,1.9,0.9c0.6,0.4,1.2,1,1.6,1.7c0.5,0.7,0.7,1.6,0.7,2.7c0,0.9-0.2,1.7-0.5,2.5
		s-0.9,1.4-1.5,2c-0.7,0.5-1.5,1-2.5,1.3s-2.2,0.5-3.5,0.5c-1.1,0-2.1-0.1-3.1-0.4s-1.9-0.7-2.6-1.2c-0.8-0.6-1.4-1.3-1.8-2.1
		c-0.5-0.9-0.7-1.9-0.6-3.1h4.1C290,60.2,290.1,60.8,290.4,61.2z"/>
	<path class="st1" d="M303.1,50.3v-3.6h15.8v3.6h-5.8V66h-4.2V50.3H303.1z"/>
	<path class="st1" d="M335.6,46.7v3.6h-10.2v4.1h9.3v3.3h-9.3v4.7h10.4V66h-14.6V46.7H335.6z"/>
	<path class="st1" d="M347.3,46.7c1.2,0,2.2,0.2,3.1,0.5c0.8,0.4,1.5,0.8,2.1,1.4c0.5,0.6,0.9,1.2,1.2,2c0.2,0.7,0.4,1.5,0.4,2.3
		c0,0.8-0.1,1.5-0.4,2.3c-0.2,0.7-0.6,1.4-1.2,2c-0.5,0.6-1.2,1-2.1,1.4c-0.8,0.4-1.9,0.5-3.1,0.5h-4.5V66h-4.2V46.7H347.3z
		 M346.2,55.8c0.5,0,1,0,1.4-0.1c0.4-0.1,0.8-0.2,1.2-0.4s0.6-0.5,0.8-0.9c0.2-0.4,0.3-0.9,0.3-1.5c0-0.6-0.1-1.1-0.3-1.5
		c-0.2-0.4-0.5-0.7-0.8-0.9c-0.3-0.2-0.7-0.3-1.2-0.4s-0.9-0.1-1.4-0.1h-3.3v5.8H346.2z"/>
</g>
</svg>
