<?xml version="1.0" encoding="utf-8"?>
<!-- Generator: Adobe Illustrator 25.4.6, SVG Export Plug-In . SVG Version: 6.00 Build 0)  -->
<svg version="1.1" id="Layer_1" xmlns="http://www.w3.org/2000/svg" xmlns:xlink="http://www.w3.org/1999/xlink" x="0px" y="0px"
	 viewBox="0 0 728 90" style="enable-background:new 0 0 728 90;" xml:space="preserve">
<style type="text/css">
	.st0{fill:#373535;}
</style>
<g>
	<path class="st0" d="M34.7,19l7.2,19.3h-4.4L36,34h-7.2l-1.5,4.3H23L30.3,19H34.7z M34.9,30.9l-2.4-7.1h-0.1l-2.5,7.1H34.9z"/>
	<path class="st0" d="M46.5,24.4v1.9h0.1c0.5-0.8,1.1-1.4,1.9-1.8c0.8-0.4,1.6-0.6,2.4-0.6c1,0,1.9,0.1,2.5,0.4
		c0.7,0.3,1.2,0.7,1.6,1.2s0.6,1.1,0.8,1.8c0.2,0.7,0.2,1.5,0.2,2.4v8.6h-3.8v-7.9c0-1.2-0.2-2-0.5-2.6c-0.4-0.6-1-0.9-1.9-0.9
		c-1,0-1.8,0.3-2.3,0.9c-0.5,0.6-0.7,1.6-0.7,3.1v7.3h-3.8v-14H46.5z"/>
	<path class="st0" d="M68.5,36.5c-0.5,0.8-1,1.3-1.8,1.6s-1.6,0.5-2.5,0.5c-1,0-2-0.2-2.8-0.6c-0.8-0.4-1.4-1-2-1.6
		s-0.9-1.5-1.2-2.4c-0.3-0.9-0.4-1.8-0.4-2.8c0-0.9,0.1-1.8,0.4-2.7c0.3-0.9,0.6-1.6,1.2-2.3c0.5-0.7,1.2-1.2,1.9-1.6
		c0.8-0.4,1.7-0.6,2.7-0.6c0.8,0,1.6,0.2,2.4,0.5c0.7,0.4,1.3,0.9,1.8,1.6h0.1v-7h3.8v19.3h-3.6L68.5,36.5L68.5,36.5z M68.4,29.6
		c-0.1-0.5-0.3-1-0.6-1.4c-0.3-0.4-0.6-0.7-1-1c-0.4-0.3-0.9-0.4-1.6-0.4c-0.6,0-1.2,0.1-1.6,0.4s-0.8,0.6-1,1
		c-0.3,0.4-0.5,0.9-0.6,1.4c-0.1,0.5-0.2,1.1-0.2,1.7c0,0.5,0.1,1.1,0.2,1.6c0.1,0.5,0.3,1,0.6,1.4c0.3,0.4,0.6,0.8,1.1,1
		s0.9,0.4,1.5,0.4c0.6,0,1.2-0.1,1.6-0.4c0.4-0.3,0.8-0.6,1-1c0.3-0.4,0.4-0.9,0.5-1.4s0.2-1.1,0.2-1.7
		C68.5,30.7,68.5,30.2,68.4,29.6z"/>
	<path class="st0" d="M94.1,38.3L91.7,29h-0.1l-2.4,9.4h-4l-4.4-14h4l2.6,9.5h0.1l2.3-9.5h3.7l2.4,9.5H96l2.6-9.5h3.9l-4.4,14H94.1z
		"/>
	<path class="st0" d="M104,22.2V19h3.8v3.2H104z M107.8,24.4v14H104v-14H107.8z"/>
	<path class="st0" d="M118.2,24.4v2.6h-2.8v6.9c0,0.6,0.1,1.1,0.3,1.3c0.2,0.2,0.6,0.3,1.3,0.3c0.2,0,0.4,0,0.6,0
		c0.2,0,0.4,0,0.6-0.1v3c-0.3,0.1-0.7,0.1-1.1,0.1c-0.4,0-0.8,0-1.2,0c-0.6,0-1.2,0-1.7-0.1s-1-0.2-1.4-0.5c-0.4-0.2-0.7-0.6-1-1
		s-0.4-1-0.4-1.7v-8.2h-2.3v-2.6h2.3v-4.2h3.8v4.2H118.2z"/>
	<path class="st0" d="M123.7,19v7.3h0.1c0.5-0.8,1.1-1.4,1.9-1.8c0.8-0.4,1.5-0.6,2.2-0.6c1,0,1.9,0.1,2.5,0.4
		c0.7,0.3,1.2,0.7,1.6,1.2s0.6,1.1,0.8,1.8c0.2,0.7,0.2,1.5,0.2,2.4v8.6h-3.8v-7.9c0-1.2-0.2-2-0.5-2.6c-0.4-0.6-1-0.9-1.9-0.9
		c-1,0-1.8,0.3-2.3,0.9c-0.5,0.6-0.7,1.6-0.7,3.1v7.3h-3.8V19H123.7z"/>
	<path class="st0" d="M142.7,28.7c0.1-0.9,0.3-1.6,0.7-2.2c0.4-0.6,0.9-1.1,1.5-1.4c0.6-0.4,1.3-0.6,2.1-0.8s1.5-0.2,2.3-0.2
		c0.7,0,1.4,0,2.1,0.1c0.7,0.1,1.4,0.3,2,0.6c0.6,0.3,1.1,0.7,1.5,1.2c0.4,0.5,0.6,1.2,0.6,2v7.3c0,0.6,0,1.2,0.1,1.8
		c0.1,0.6,0.2,1,0.4,1.3h-3.9c-0.1-0.2-0.1-0.4-0.2-0.7c0-0.2-0.1-0.5-0.1-0.7c-0.6,0.6-1.3,1.1-2.2,1.3s-1.7,0.4-2.5,0.4
		c-0.7,0-1.3-0.1-1.9-0.2s-1.1-0.4-1.5-0.8c-0.4-0.3-0.8-0.8-1-1.3s-0.4-1.1-0.4-1.9c0-0.8,0.1-1.4,0.4-2c0.3-0.5,0.6-0.9,1.1-1.2
		c0.4-0.3,0.9-0.5,1.5-0.7c0.6-0.2,1.1-0.3,1.7-0.4c0.6-0.1,1.1-0.2,1.7-0.2c0.6-0.1,1.1-0.1,1.5-0.2s0.8-0.3,1-0.5
		c0.3-0.2,0.4-0.5,0.4-0.9c0-0.4-0.1-0.7-0.2-1c-0.1-0.2-0.3-0.4-0.5-0.6c-0.2-0.1-0.5-0.2-0.8-0.3c-0.3,0-0.6-0.1-1-0.1
		c-0.8,0-1.4,0.2-1.8,0.5c-0.4,0.3-0.7,0.9-0.8,1.6H142.7z M151.5,31.5c-0.2,0.1-0.4,0.3-0.6,0.3s-0.5,0.1-0.8,0.2
		c-0.3,0.1-0.6,0.1-0.9,0.1s-0.6,0.1-0.9,0.1c-0.3,0.1-0.6,0.1-0.9,0.2c-0.3,0.1-0.5,0.2-0.7,0.4c-0.2,0.2-0.4,0.3-0.5,0.6
		c-0.1,0.2-0.2,0.5-0.2,0.9c0,0.3,0.1,0.6,0.2,0.9c0.1,0.2,0.3,0.4,0.5,0.6c0.2,0.1,0.5,0.2,0.8,0.3c0.3,0.1,0.6,0.1,0.9,0.1
		c0.8,0,1.3-0.1,1.8-0.4c0.4-0.3,0.7-0.6,0.9-0.9c0.2-0.4,0.3-0.7,0.4-1.1c0-0.4,0.1-0.6,0.1-0.9V31.5z"/>
	<path class="st0" d="M161.7,24.4v1.9h0.1c0.5-0.8,1.1-1.4,1.9-1.8c0.8-0.4,1.6-0.6,2.4-0.6c1,0,1.9,0.1,2.5,0.4
		c0.7,0.3,1.2,0.7,1.6,1.2s0.6,1.1,0.8,1.8c0.2,0.7,0.2,1.5,0.2,2.4v8.6h-3.8v-7.9c0-1.2-0.2-2-0.5-2.6c-0.4-0.6-1-0.9-1.9-0.9
		c-1,0-1.8,0.3-2.3,0.9c-0.5,0.6-0.7,1.6-0.7,3.1v7.3h-3.8v-14H161.7z"/>
	<path class="st0" d="M191.1,19l7.2,19.3h-4.4l-1.5-4.3h-7.2l-1.5,4.3h-4.3l7.3-19.3H191.1z M191.3,30.9l-2.4-7.1h-0.1l-2.5,7.1
		H191.3z"/>
	<path class="st0" d="M212.8,30.1V33h-5.4v5.4h-2.9V33h-5.4v-2.9h5.4v-5.4h2.9v5.4H212.8z"/>
	<path class="st0" d="M226.1,24.4V27h0.1c0.2-0.4,0.4-0.8,0.7-1.2c0.3-0.4,0.7-0.7,1.1-0.9c0.4-0.3,0.8-0.5,1.3-0.6
		c0.4-0.1,0.9-0.2,1.4-0.2c0.3,0,0.5,0,0.8,0.1v3.6c-0.2,0-0.4-0.1-0.6-0.1s-0.5,0-0.7,0c-0.7,0-1.3,0.1-1.8,0.4s-0.9,0.6-1.2,1
		c-0.3,0.4-0.5,0.9-0.6,1.4s-0.2,1.1-0.2,1.8v6.3h-3.8v-14H226.1z"/>
	<path class="st0" d="M232.6,28.7c0.1-0.9,0.3-1.6,0.7-2.2c0.4-0.6,0.9-1.1,1.5-1.4c0.6-0.4,1.3-0.6,2.1-0.8s1.5-0.2,2.3-0.2
		c0.7,0,1.4,0,2.1,0.1c0.7,0.1,1.4,0.3,2,0.6c0.6,0.3,1.1,0.7,1.5,1.2c0.4,0.5,0.6,1.2,0.6,2v7.3c0,0.6,0,1.2,0.1,1.8
		c0.1,0.6,0.2,1,0.4,1.3h-3.9c-0.1-0.2-0.1-0.4-0.2-0.7c0-0.2-0.1-0.5-0.1-0.7c-0.6,0.6-1.3,1.1-2.2,1.3s-1.7,0.4-2.5,0.4
		c-0.7,0-1.3-0.1-1.9-0.2s-1.1-0.4-1.5-0.8c-0.4-0.3-0.8-0.8-1-1.3s-0.4-1.1-0.4-1.9c0-0.8,0.1-1.4,0.4-2c0.3-0.5,0.6-0.9,1.1-1.2
		c0.4-0.3,0.9-0.5,1.5-0.7c0.6-0.2,1.1-0.3,1.7-0.4c0.6-0.1,1.1-0.2,1.7-0.2c0.6-0.1,1.1-0.1,1.5-0.2s0.8-0.3,1-0.5
		c0.3-0.2,0.4-0.5,0.4-0.9c0-0.4-0.1-0.7-0.2-1c-0.1-0.2-0.3-0.4-0.5-0.6c-0.2-0.1-0.5-0.2-0.8-0.3c-0.3,0-0.6-0.1-1-0.1
		c-0.8,0-1.4,0.2-1.8,0.5c-0.4,0.3-0.7,0.9-0.8,1.6H232.6z M241.5,31.5c-0.2,0.1-0.4,0.3-0.6,0.3s-0.5,0.1-0.8,0.2
		c-0.3,0.1-0.6,0.1-0.9,0.1s-0.6,0.1-0.9,0.1c-0.3,0.1-0.6,0.1-0.9,0.2c-0.3,0.1-0.5,0.2-0.7,0.4c-0.2,0.2-0.4,0.3-0.5,0.6
		c-0.1,0.2-0.2,0.5-0.2,0.9c0,0.3,0.1,0.6,0.2,0.9c0.1,0.2,0.3,0.4,0.5,0.6c0.2,0.1,0.5,0.2,0.8,0.3c0.3,0.1,0.6,0.1,0.9,0.1
		c0.8,0,1.3-0.1,1.8-0.4c0.4-0.3,0.7-0.6,0.9-0.9c0.2-0.4,0.3-0.7,0.4-1.1c0-0.4,0.1-0.6,0.1-0.9V31.5z"/>
	<path class="st0" d="M255.7,24.4v2.6h-2.8v6.9c0,0.6,0.1,1.1,0.3,1.3c0.2,0.2,0.6,0.3,1.3,0.3c0.2,0,0.4,0,0.6,0
		c0.2,0,0.4,0,0.6-0.1v3c-0.3,0.1-0.7,0.1-1.1,0.1c-0.4,0-0.8,0-1.2,0c-0.6,0-1.2,0-1.7-0.1s-1-0.2-1.4-0.5c-0.4-0.2-0.7-0.6-1-1
		s-0.4-1-0.4-1.7v-8.2h-2.3v-2.6h2.3v-4.2h3.8v4.2H255.7z"/>
	<path class="st0" d="M261.4,35c0.6,0.6,1.4,0.8,2.5,0.8c0.8,0,1.4-0.2,2-0.6c0.6-0.4,0.9-0.8,1-1.2h3.4c-0.5,1.7-1.4,2.9-2.5,3.6
		c-1.1,0.7-2.5,1.1-4,1.1c-1.1,0-2.1-0.2-3-0.5c-0.9-0.4-1.6-0.9-2.2-1.5c-0.6-0.6-1.1-1.4-1.4-2.3c-0.3-0.9-0.5-1.9-0.5-3
		c0-1,0.2-2,0.5-2.9s0.8-1.7,1.5-2.3c0.6-0.7,1.4-1.2,2.3-1.6s1.8-0.6,2.9-0.6c1.2,0,2.2,0.2,3.1,0.7c0.9,0.5,1.6,1.1,2.2,1.8
		s1,1.7,1.2,2.6c0.3,1,0.3,2,0.3,3.1h-10.1C260.5,33.5,260.8,34.4,261.4,35z M265.7,27.6c-0.5-0.5-1.2-0.8-2.1-0.8
		c-0.6,0-1.1,0.1-1.5,0.3c-0.4,0.2-0.7,0.5-1,0.8c-0.2,0.3-0.4,0.6-0.5,1c-0.1,0.3-0.2,0.6-0.2,0.9h6.2
		C266.5,28.9,266.2,28.1,265.7,27.6z"/>
	<path class="st0" d="M282.4,36.5c-0.5,0.8-1,1.3-1.8,1.6s-1.6,0.5-2.5,0.5c-1,0-2-0.2-2.8-0.6c-0.8-0.4-1.4-1-2-1.6
		s-0.9-1.5-1.2-2.4c-0.3-0.9-0.4-1.8-0.4-2.8c0-0.9,0.1-1.8,0.4-2.7c0.3-0.9,0.6-1.6,1.2-2.3c0.5-0.7,1.2-1.2,1.9-1.6
		c0.8-0.4,1.7-0.6,2.7-0.6c0.8,0,1.6,0.2,2.4,0.5c0.7,0.4,1.3,0.9,1.8,1.6h0.1v-7h3.8v19.3h-3.6L282.4,36.5L282.4,36.5z M282.3,29.6
		c-0.1-0.5-0.3-1-0.6-1.4c-0.3-0.4-0.6-0.7-1-1c-0.4-0.3-0.9-0.4-1.6-0.4c-0.6,0-1.2,0.1-1.6,0.4s-0.8,0.6-1,1
		c-0.3,0.4-0.5,0.9-0.6,1.4c-0.1,0.5-0.2,1.1-0.2,1.7c0,0.5,0.1,1.1,0.2,1.6c0.1,0.5,0.3,1,0.6,1.4c0.3,0.4,0.6,0.8,1.1,1
		s0.9,0.4,1.5,0.4c0.6,0,1.2-0.1,1.6-0.4c0.4-0.3,0.8-0.6,1-1c0.3-0.4,0.4-0.9,0.5-1.4s0.2-1.1,0.2-1.7
		C282.4,30.7,282.4,30.2,282.3,29.6z"/>
</g>
<g>
	<path class="st0" d="M24.8,50.2V47h3.8v3.2H24.8z M28.6,52.4v14h-3.8v-14H28.6z"/>
	<path class="st0" d="M35,52.4v1.9h0.1c0.5-0.8,1.1-1.4,1.9-1.8c0.8-0.4,1.6-0.6,2.4-0.6c1,0,1.9,0.1,2.5,0.4
		c0.7,0.3,1.2,0.7,1.6,1.2s0.6,1.1,0.8,1.8c0.2,0.7,0.2,1.5,0.2,2.4v8.6h-3.8v-7.9c0-1.2-0.2-2-0.5-2.6c-0.4-0.6-1-0.9-1.9-0.9
		c-1,0-1.8,0.3-2.3,0.9c-0.5,0.6-0.7,1.6-0.7,3.1v7.3h-3.8v-14H35z"/>
	<path class="st0" d="M50.3,62.9c0.2,0.3,0.4,0.5,0.7,0.7c0.3,0.2,0.6,0.3,0.9,0.4c0.4,0.1,0.7,0.1,1.1,0.1c0.3,0,0.6,0,0.9-0.1
		c0.3-0.1,0.6-0.2,0.8-0.3c0.2-0.1,0.4-0.3,0.6-0.5c0.2-0.2,0.2-0.5,0.2-0.9c0-0.6-0.4-1-1.1-1.3s-1.8-0.6-3.2-0.9
		c-0.6-0.1-1.1-0.3-1.6-0.4c-0.5-0.2-1-0.4-1.4-0.7s-0.7-0.6-1-1.1c-0.3-0.4-0.4-0.9-0.4-1.6c0-0.9,0.2-1.6,0.5-2.2
		c0.4-0.6,0.8-1,1.4-1.4c0.6-0.3,1.2-0.6,1.9-0.7c0.7-0.1,1.5-0.2,2.2-0.2c0.8,0,1.5,0.1,2.2,0.2c0.7,0.1,1.3,0.4,1.9,0.7
		c0.6,0.3,1,0.8,1.4,1.4s0.6,1.3,0.7,2.1h-3.6c-0.1-0.7-0.3-1.2-0.8-1.5s-1.1-0.4-1.8-0.4c-0.2,0-0.5,0-0.7,0
		c-0.3,0-0.5,0.1-0.7,0.2c-0.2,0.1-0.4,0.2-0.5,0.4c-0.1,0.2-0.2,0.4-0.2,0.7c0,0.3,0.1,0.6,0.4,0.8s0.6,0.4,1,0.5
		c0.4,0.1,0.9,0.3,1.4,0.4c0.5,0.1,1.1,0.2,1.6,0.4c0.6,0.1,1.1,0.3,1.6,0.5c0.5,0.2,1,0.4,1.4,0.7c0.4,0.3,0.7,0.7,1,1.1
		s0.4,1,0.4,1.6c0,0.9-0.2,1.7-0.6,2.3c-0.4,0.6-0.9,1.1-1.4,1.5c-0.6,0.4-1.3,0.6-2,0.8c-0.8,0.2-1.5,0.2-2.3,0.2
		c-0.8,0-1.6-0.1-2.4-0.2c-0.8-0.2-1.5-0.4-2.1-0.8s-1.1-0.9-1.5-1.5c-0.4-0.6-0.6-1.4-0.6-2.3h3.6C50.1,62.2,50.2,62.6,50.3,62.9z"
		/>
	<path class="st0" d="M70.8,66.3v-1.9h-0.1c-0.5,0.8-1.1,1.4-1.9,1.8c-0.8,0.4-1.6,0.5-2.4,0.5c-1,0-1.9-0.1-2.5-0.4
		c-0.7-0.3-1.2-0.7-1.6-1.1s-0.6-1.1-0.8-1.8c-0.2-0.7-0.2-1.5-0.2-2.4v-8.6h3.8v7.9c0,1.2,0.2,2,0.5,2.6c0.4,0.6,1,0.8,1.9,0.8
		c1,0,1.8-0.3,2.3-0.9c0.5-0.6,0.7-1.6,0.7-3.1v-7.3h3.8v14H70.8z"/>
	<path class="st0" d="M80.8,52.4V55h0.1c0.2-0.4,0.4-0.8,0.7-1.2c0.3-0.4,0.7-0.7,1.1-0.9c0.4-0.3,0.8-0.5,1.3-0.6
		c0.4-0.1,0.9-0.2,1.4-0.2c0.3,0,0.5,0,0.8,0.1v3.6c-0.2,0-0.4-0.1-0.6-0.1c-0.3,0-0.5,0-0.7,0c-0.7,0-1.3,0.1-1.8,0.4
		c-0.5,0.2-0.9,0.6-1.2,1c-0.3,0.4-0.5,0.9-0.6,1.4S81,59.4,81,60v6.3h-3.8v-14H80.8z"/>
	<path class="st0" d="M87.2,56.7c0.1-0.9,0.3-1.6,0.7-2.2c0.4-0.6,0.9-1.1,1.5-1.4c0.6-0.4,1.3-0.6,2.1-0.8c0.8-0.2,1.5-0.2,2.3-0.2
		c0.7,0,1.4,0,2.1,0.1c0.7,0.1,1.4,0.3,2,0.6c0.6,0.3,1.1,0.7,1.5,1.2s0.6,1.2,0.6,2v7.3c0,0.6,0,1.2,0.1,1.8c0.1,0.6,0.2,1,0.4,1.3
		h-3.9c-0.1-0.2-0.1-0.4-0.2-0.7c0-0.2-0.1-0.5-0.1-0.7c-0.6,0.6-1.3,1.1-2.2,1.3s-1.7,0.4-2.5,0.4c-0.7,0-1.3-0.1-1.9-0.2
		c-0.6-0.2-1.1-0.4-1.5-0.8c-0.4-0.3-0.8-0.8-1-1.3c-0.2-0.5-0.4-1.1-0.4-1.9c0-0.8,0.1-1.4,0.4-2c0.3-0.5,0.6-0.9,1.1-1.2
		c0.4-0.3,0.9-0.5,1.5-0.7c0.6-0.2,1.1-0.3,1.7-0.4c0.6-0.1,1.1-0.2,1.7-0.2c0.6-0.1,1.1-0.1,1.5-0.2c0.4-0.1,0.8-0.3,1-0.5
		c0.3-0.2,0.4-0.5,0.4-0.9c0-0.4-0.1-0.7-0.2-1c-0.1-0.2-0.3-0.4-0.5-0.6c-0.2-0.1-0.5-0.2-0.8-0.3s-0.6-0.1-1-0.1
		c-0.8,0-1.4,0.2-1.8,0.5c-0.4,0.3-0.7,0.9-0.8,1.6H87.2z M96.1,59.5c-0.2,0.1-0.4,0.3-0.6,0.3C95.2,59.9,95,60,94.7,60
		c-0.3,0.1-0.6,0.1-0.9,0.1c-0.3,0-0.6,0.1-0.9,0.1c-0.3,0.1-0.6,0.1-0.9,0.2c-0.3,0.1-0.5,0.2-0.7,0.4c-0.2,0.2-0.4,0.3-0.5,0.6
		c-0.1,0.2-0.2,0.5-0.2,0.9c0,0.3,0.1,0.6,0.2,0.9c0.1,0.2,0.3,0.4,0.5,0.6c0.2,0.1,0.5,0.2,0.8,0.3c0.3,0.1,0.6,0.1,0.9,0.1
		c0.8,0,1.3-0.1,1.8-0.4c0.4-0.3,0.7-0.6,0.9-0.9c0.2-0.4,0.3-0.7,0.4-1.1c0-0.4,0.1-0.6,0.1-0.9V59.5z"/>
	<path class="st0" d="M106.3,52.4v1.9h0.1c0.5-0.8,1.1-1.4,1.9-1.8c0.8-0.4,1.6-0.6,2.4-0.6c1,0,1.9,0.1,2.5,0.4
		c0.7,0.3,1.2,0.7,1.6,1.2s0.6,1.1,0.8,1.8c0.2,0.7,0.2,1.5,0.2,2.4v8.6h-3.8v-7.9c0-1.2-0.2-2-0.5-2.6c-0.4-0.6-1-0.9-1.9-0.9
		c-1,0-1.8,0.3-2.3,0.9c-0.5,0.6-0.7,1.6-0.7,3.1v7.3h-3.8v-14H106.3z"/>
	<path class="st0" d="M125.1,54.9c-0.6,0-1.1,0.1-1.5,0.4s-0.8,0.6-1,1.1c-0.3,0.4-0.4,0.9-0.6,1.5s-0.2,1.1-0.2,1.6
		c0,0.5,0.1,1,0.2,1.5c0.1,0.5,0.3,1,0.5,1.4c0.2,0.4,0.6,0.8,1,1c0.4,0.3,0.9,0.4,1.5,0.4c0.9,0,1.6-0.3,2.1-0.8
		c0.5-0.5,0.8-1.2,0.9-2.1h3.7c-0.3,1.9-1,3.3-2.2,4.2c-1.2,1-2.7,1.5-4.6,1.5c-1,0-2-0.2-2.9-0.5c-0.9-0.4-1.6-0.8-2.2-1.5
		c-0.6-0.6-1.1-1.4-1.4-2.3c-0.3-0.9-0.5-1.8-0.5-2.9c0-1.1,0.2-2.1,0.5-3c0.3-0.9,0.8-1.7,1.4-2.4c0.6-0.7,1.4-1.2,2.2-1.6
		s1.9-0.6,3-0.6c0.8,0,1.6,0.1,2.4,0.3s1.4,0.5,2.1,1c0.6,0.4,1.1,1,1.5,1.6s0.6,1.4,0.6,2.3h-3.8C127.7,55.7,126.7,54.9,125.1,54.9
		z"/>
	<path class="st0" d="M137.8,63c0.6,0.6,1.4,0.8,2.5,0.8c0.8,0,1.4-0.2,2-0.6c0.6-0.4,0.9-0.8,1-1.2h3.4c-0.5,1.7-1.4,2.9-2.5,3.6
		c-1.1,0.7-2.5,1.1-4,1.1c-1.1,0-2.1-0.2-3-0.5c-0.9-0.4-1.6-0.9-2.2-1.5c-0.6-0.6-1.1-1.4-1.4-2.3c-0.3-0.9-0.5-1.9-0.5-3
		c0-1,0.2-2,0.5-2.9c0.3-0.9,0.8-1.7,1.5-2.3c0.6-0.7,1.4-1.2,2.3-1.6s1.8-0.6,2.9-0.6c1.2,0,2.2,0.2,3.1,0.7
		c0.9,0.5,1.6,1.1,2.2,1.8c0.6,0.8,1,1.7,1.2,2.6c0.3,1,0.3,2,0.3,3.1h-10.1C136.9,61.5,137.2,62.4,137.8,63z M142.1,55.6
		c-0.5-0.5-1.2-0.8-2.1-0.8c-0.6,0-1.1,0.1-1.5,0.3c-0.4,0.2-0.7,0.5-1,0.8c-0.2,0.3-0.4,0.6-0.5,1c-0.1,0.3-0.2,0.6-0.2,0.9h6.2
		C142.9,56.9,142.6,56.1,142.1,55.6z"/>
	<path class="st0" d="M162.8,54.9c-0.6,0-1.1,0.1-1.5,0.4s-0.8,0.6-1,1.1c-0.3,0.4-0.4,0.9-0.6,1.5s-0.2,1.1-0.2,1.6
		c0,0.5,0.1,1,0.2,1.5c0.1,0.5,0.3,1,0.5,1.4c0.2,0.4,0.6,0.8,1,1c0.4,0.3,0.9,0.4,1.5,0.4c0.9,0,1.6-0.3,2.1-0.8
		c0.5-0.5,0.8-1.2,0.9-2.1h3.7c-0.3,1.9-1,3.3-2.2,4.2c-1.2,1-2.7,1.5-4.6,1.5c-1,0-2-0.2-2.9-0.5c-0.9-0.4-1.6-0.8-2.2-1.5
		c-0.6-0.6-1.1-1.4-1.4-2.3c-0.3-0.9-0.5-1.8-0.5-2.9c0-1.1,0.2-2.1,0.5-3c0.3-0.9,0.8-1.7,1.4-2.4c0.6-0.7,1.4-1.2,2.2-1.6
		s1.9-0.6,3-0.6c0.8,0,1.6,0.1,2.4,0.3s1.4,0.5,2.1,1c0.6,0.4,1.1,1,1.5,1.6s0.6,1.4,0.6,2.3h-3.8C165.4,55.7,164.5,54.9,162.8,54.9
		z"/>
	<path class="st0" d="M171.5,56.3c0.3-0.9,0.8-1.7,1.5-2.3c0.6-0.6,1.4-1.1,2.3-1.5c0.9-0.4,1.9-0.5,3-0.5c1.1,0,2.1,0.2,3,0.5
		c0.9,0.4,1.7,0.8,2.3,1.5c0.6,0.6,1.1,1.4,1.5,2.3c0.3,0.9,0.5,1.9,0.5,3s-0.2,2.1-0.5,3c-0.3,0.9-0.8,1.7-1.5,2.3
		c-0.6,0.6-1.4,1.1-2.3,1.5c-0.9,0.3-1.9,0.5-3,0.5c-1.1,0-2.1-0.2-3-0.5c-0.9-0.3-1.6-0.8-2.3-1.5c-0.6-0.6-1.1-1.4-1.5-2.3
		c-0.3-0.9-0.5-1.9-0.5-3S171.2,57.2,171.5,56.3z M175,61c0.1,0.5,0.3,1,0.6,1.4c0.3,0.4,0.6,0.8,1,1c0.4,0.3,1,0.4,1.6,0.4
		s1.2-0.1,1.6-0.4c0.4-0.3,0.8-0.6,1.1-1c0.3-0.4,0.4-0.9,0.6-1.4c0.1-0.5,0.2-1.1,0.2-1.6s-0.1-1.1-0.2-1.6c-0.1-0.5-0.3-1-0.6-1.4
		c-0.3-0.4-0.6-0.8-1.1-1c-0.4-0.3-1-0.4-1.6-0.4s-1.2,0.1-1.6,0.4c-0.4,0.3-0.8,0.6-1,1c-0.3,0.4-0.4,0.9-0.6,1.4
		c-0.1,0.5-0.2,1.1-0.2,1.6S174.9,60.5,175,61z"/>
	<path class="st0" d="M191.4,52.4v1.9h0.1c0.5-0.7,1.1-1.3,1.8-1.7c0.7-0.4,1.5-0.6,2.4-0.6c0.9,0,1.7,0.2,2.4,0.5
		c0.7,0.3,1.3,0.9,1.7,1.8c0.4-0.6,1-1.2,1.7-1.6c0.7-0.5,1.6-0.7,2.5-0.7c0.7,0,1.4,0.1,2.1,0.3c0.6,0.2,1.2,0.5,1.6,0.9
		c0.4,0.4,0.8,0.9,1.1,1.6c0.3,0.6,0.4,1.4,0.4,2.3v9.3h-3.8v-7.9c0-0.5,0-0.9-0.1-1.3s-0.1-0.8-0.3-1.1s-0.4-0.5-0.7-0.7
		c-0.3-0.2-0.7-0.3-1.3-0.3s-1,0.1-1.3,0.3s-0.6,0.5-0.8,0.8s-0.3,0.7-0.4,1.1c-0.1,0.4-0.1,0.9-0.1,1.3v7.8h-3.8v-7.8
		c0-0.4,0-0.8,0-1.2c0-0.4-0.1-0.8-0.2-1.1c-0.1-0.3-0.4-0.6-0.7-0.8s-0.8-0.3-1.4-0.3c-0.2,0-0.4,0-0.7,0.1
		c-0.3,0.1-0.6,0.2-0.9,0.5c-0.3,0.2-0.5,0.5-0.7,1c-0.2,0.4-0.3,1-0.3,1.7v8.1h-3.8v-14H191.4z"/>
	<path class="st0" d="M215.5,52.4v1.8h0.1c0.5-0.8,1.1-1.3,1.8-1.6c0.7-0.3,1.5-0.5,2.4-0.5c1.1,0,2,0.2,2.8,0.6s1.4,1,2,1.6
		c0.5,0.7,0.9,1.5,1.2,2.4c0.3,0.9,0.4,1.9,0.4,2.8c0,0.9-0.1,1.8-0.4,2.7c-0.3,0.9-0.6,1.6-1.1,2.3c-0.5,0.7-1.2,1.2-1.9,1.6
		s-1.7,0.6-2.7,0.6c-0.9,0-1.7-0.2-2.4-0.5c-0.7-0.4-1.3-0.9-1.8-1.6h-0.1v6.6h-3.8V52.4H215.5z M220.5,63.4c0.4-0.3,0.8-0.6,1-1
		c0.3-0.4,0.4-0.9,0.6-1.4s0.2-1.1,0.2-1.6s-0.1-1.1-0.2-1.6s-0.3-1-0.6-1.4s-0.6-0.8-1-1c-0.4-0.3-0.9-0.4-1.6-0.4
		c-0.6,0-1.2,0.1-1.6,0.4c-0.4,0.3-0.8,0.6-1,1c-0.3,0.4-0.4,0.9-0.6,1.4c-0.1,0.5-0.2,1.1-0.2,1.7c0,0.6,0.1,1.1,0.2,1.6
		c0.1,0.5,0.3,1,0.6,1.4c0.3,0.4,0.6,0.7,1,1s1,0.4,1.6,0.4C219.5,63.8,220.1,63.7,220.5,63.4z"/>
	<path class="st0" d="M227.9,56.7c0.1-0.9,0.3-1.6,0.7-2.2c0.4-0.6,0.9-1.1,1.5-1.4c0.6-0.4,1.3-0.6,2.1-0.8
		c0.8-0.2,1.5-0.2,2.3-0.2c0.7,0,1.4,0,2.1,0.1c0.7,0.1,1.4,0.3,2,0.6c0.6,0.3,1.1,0.7,1.5,1.2s0.6,1.2,0.6,2v7.3
		c0,0.6,0,1.2,0.1,1.8c0.1,0.6,0.2,1,0.4,1.3h-3.9c-0.1-0.2-0.1-0.4-0.2-0.7c0-0.2-0.1-0.5-0.1-0.7c-0.6,0.6-1.3,1.1-2.2,1.3
		s-1.7,0.4-2.5,0.4c-0.7,0-1.3-0.1-1.9-0.2c-0.6-0.2-1.1-0.4-1.5-0.8c-0.4-0.3-0.8-0.8-1-1.3c-0.2-0.5-0.4-1.1-0.4-1.9
		c0-0.8,0.1-1.4,0.4-2c0.3-0.5,0.6-0.9,1.1-1.2c0.4-0.3,0.9-0.5,1.5-0.7c0.6-0.2,1.1-0.3,1.7-0.4c0.6-0.1,1.1-0.2,1.7-0.2
		c0.6-0.1,1.1-0.1,1.5-0.2c0.4-0.1,0.8-0.3,1-0.5c0.3-0.2,0.4-0.5,0.4-0.9c0-0.4-0.1-0.7-0.2-1c-0.1-0.2-0.3-0.4-0.5-0.6
		c-0.2-0.1-0.5-0.2-0.8-0.3s-0.6-0.1-1-0.1c-0.8,0-1.4,0.2-1.8,0.5c-0.4,0.3-0.7,0.9-0.8,1.6H227.9z M236.8,59.5
		c-0.2,0.1-0.4,0.3-0.6,0.3c-0.2,0.1-0.5,0.1-0.8,0.2c-0.3,0.1-0.6,0.1-0.9,0.1c-0.3,0-0.6,0.1-0.9,0.1c-0.3,0.1-0.6,0.1-0.9,0.2
		c-0.3,0.1-0.5,0.2-0.7,0.4c-0.2,0.2-0.4,0.3-0.5,0.6c-0.1,0.2-0.2,0.5-0.2,0.9c0,0.3,0.1,0.6,0.2,0.9c0.1,0.2,0.3,0.4,0.5,0.6
		c0.2,0.1,0.5,0.2,0.8,0.3c0.3,0.1,0.6,0.1,0.9,0.1c0.8,0,1.3-0.1,1.8-0.4c0.4-0.3,0.7-0.6,0.9-0.9c0.2-0.4,0.3-0.7,0.4-1.1
		c0-0.4,0.1-0.6,0.1-0.9V59.5z"/>
	<path class="st0" d="M247,52.4v1.9h0.1c0.5-0.8,1.1-1.4,1.9-1.8c0.8-0.4,1.6-0.6,2.4-0.6c1,0,1.9,0.1,2.5,0.4
		c0.7,0.3,1.2,0.7,1.6,1.2s0.6,1.1,0.8,1.8c0.2,0.7,0.2,1.5,0.2,2.4v8.6h-3.8v-7.9c0-1.2-0.2-2-0.5-2.6c-0.4-0.6-1-0.9-1.9-0.9
		c-1,0-1.8,0.3-2.3,0.9c-0.5,0.6-0.7,1.6-0.7,3.1v7.3h-3.8v-14H247z"/>
	<path class="st0" d="M264.3,70.5c-0.7,0.5-1.8,0.7-3.1,0.7c-0.4,0-0.8,0-1.2,0c-0.4,0-0.8-0.1-1.2-0.1v-3.2c0.4,0,0.7,0.1,1.1,0.1
		s0.8,0,1.1,0c0.5-0.1,0.9-0.3,1.1-0.6c0.2-0.3,0.4-0.7,0.4-1.1c0-0.3-0.1-0.6-0.2-0.9l-4.9-13.1h4.1l3.2,9.6h0.1l3.1-9.6h4
		L266,68.1C265.6,69.2,265,70,264.3,70.5z"/>
	<path class="st0" d="M275.3,62.2v4.2H271v-4.2H275.3z"/>
</g>
</svg>
