<?xml version="1.0" encoding="utf-8"?>
<!-- Generator: Adobe Illustrator 25.4.6, SVG Export Plug-In . SVG Version: 6.00 Build 0)  -->
<svg version="1.1" id="Layer_1" xmlns="http://www.w3.org/2000/svg" xmlns:xlink="http://www.w3.org/1999/xlink" x="0px" y="0px"
	 viewBox="0 0 728 90" style="enable-background:new 0 0 728 90;" xml:space="preserve">
<style type="text/css">
	.st0{fill:#339933;}
</style>
<g>
	<path class="st0" d="M33.4,19.7c1.2,0,2.2,0.2,3.1,0.5s1.5,0.8,2.1,1.4c0.5,0.6,0.9,1.2,1.2,2c0.2,0.7,0.4,1.5,0.4,2.3
		c0,0.8-0.1,1.5-0.4,2.3c-0.2,0.7-0.6,1.4-1.2,2c-0.5,0.6-1.2,1-2.1,1.4s-1.9,0.5-3.1,0.5H29V39h-4.2V19.7H33.4z M32.3,28.8
		c0.5,0,1,0,1.4-0.1c0.4-0.1,0.8-0.2,1.2-0.4s0.6-0.5,0.8-0.9c0.2-0.4,0.3-0.9,0.3-1.5c0-0.6-0.1-1.1-0.3-1.5
		c-0.2-0.4-0.5-0.7-0.8-0.9c-0.3-0.2-0.7-0.3-1.2-0.4C33.2,23,32.8,23,32.3,23H29v5.8H32.3z"/>
	<path class="st0" d="M46,25v2.6h0.1c0.2-0.4,0.4-0.8,0.7-1.2c0.3-0.4,0.7-0.7,1.1-0.9c0.4-0.3,0.8-0.5,1.3-0.6
		c0.4-0.1,0.9-0.2,1.4-0.2c0.3,0,0.5,0,0.8,0.1v3.6c-0.2,0-0.4-0.1-0.6-0.1s-0.5,0-0.7,0c-0.7,0-1.3,0.1-1.8,0.4s-0.9,0.6-1.2,1
		c-0.3,0.4-0.5,0.9-0.6,1.4s-0.2,1.1-0.2,1.8V39h-3.8V25H46z"/>
	<path class="st0" d="M52.7,29.3c0.1-0.9,0.3-1.6,0.7-2.2c0.4-0.6,0.9-1.1,1.5-1.4c0.6-0.4,1.3-0.6,2.1-0.8s1.5-0.2,2.3-0.2
		c0.7,0,1.4,0,2.1,0.1c0.7,0.1,1.4,0.3,2,0.6c0.6,0.3,1.1,0.7,1.5,1.2c0.4,0.5,0.6,1.2,0.6,2v7.3c0,0.6,0,1.2,0.1,1.8
		c0.1,0.6,0.2,1,0.4,1.3H62c-0.1-0.2-0.1-0.4-0.2-0.7c0-0.2-0.1-0.5-0.1-0.7c-0.6,0.6-1.3,1.1-2.2,1.3s-1.7,0.4-2.5,0.4
		c-0.7,0-1.3-0.1-1.9-0.2s-1.1-0.4-1.5-0.8c-0.4-0.3-0.8-0.8-1-1.3s-0.4-1.1-0.4-1.9c0-0.8,0.1-1.4,0.4-2c0.3-0.5,0.6-0.9,1.1-1.2
		c0.4-0.3,0.9-0.5,1.5-0.7c0.6-0.2,1.1-0.3,1.7-0.4c0.6-0.1,1.1-0.2,1.7-0.2c0.6-0.1,1.1-0.1,1.5-0.2s0.8-0.3,1-0.5
		c0.3-0.2,0.4-0.5,0.4-0.9c0-0.4-0.1-0.7-0.2-1c-0.1-0.2-0.3-0.4-0.5-0.6c-0.2-0.1-0.5-0.2-0.8-0.3c-0.3,0-0.6-0.1-1-0.1
		c-0.8,0-1.4,0.2-1.8,0.5c-0.4,0.3-0.7,0.9-0.8,1.6H52.7z M61.5,32.1c-0.2,0.1-0.4,0.3-0.6,0.3s-0.5,0.1-0.8,0.2
		c-0.3,0.1-0.6,0.1-0.9,0.1s-0.6,0.1-0.9,0.1c-0.3,0.1-0.6,0.1-0.9,0.2c-0.3,0.1-0.5,0.2-0.7,0.4c-0.2,0.2-0.4,0.3-0.5,0.6
		c-0.1,0.2-0.2,0.5-0.2,0.9c0,0.3,0.1,0.6,0.2,0.9c0.1,0.2,0.3,0.4,0.5,0.6c0.2,0.1,0.5,0.2,0.8,0.3c0.3,0.1,0.6,0.1,0.9,0.1
		c0.8,0,1.3-0.1,1.8-0.4c0.4-0.3,0.7-0.6,0.9-0.9c0.2-0.4,0.3-0.7,0.4-1.1c0-0.4,0.1-0.6,0.1-0.9V32.1z"/>
	<path class="st0" d="M75,27.5c-0.6,0-1.1,0.1-1.5,0.4s-0.8,0.6-1,1.1c-0.3,0.4-0.4,0.9-0.6,1.5c-0.1,0.5-0.2,1.1-0.2,1.6
		c0,0.5,0.1,1,0.2,1.5c0.1,0.5,0.3,1,0.5,1.4c0.2,0.4,0.6,0.8,1,1c0.4,0.3,0.9,0.4,1.5,0.4c0.9,0,1.6-0.3,2.1-0.8
		c0.5-0.5,0.8-1.2,0.9-2.1h3.7c-0.3,1.9-1,3.3-2.2,4.2s-2.7,1.5-4.6,1.5c-1,0-2-0.2-2.9-0.5c-0.9-0.4-1.6-0.8-2.2-1.5
		c-0.6-0.6-1.1-1.4-1.4-2.3c-0.3-0.9-0.5-1.8-0.5-2.9c0-1.1,0.2-2.1,0.5-3c0.3-0.9,0.8-1.7,1.4-2.4c0.6-0.7,1.4-1.2,2.2-1.6
		s1.9-0.6,3-0.6c0.8,0,1.6,0.1,2.4,0.3c0.8,0.2,1.4,0.5,2.1,1c0.6,0.4,1.1,1,1.5,1.6s0.6,1.4,0.6,2.3h-3.8
		C77.6,28.3,76.7,27.5,75,27.5z"/>
	<path class="st0" d="M91.5,25v2.6h-2.8v6.9c0,0.6,0.1,1.1,0.3,1.3c0.2,0.2,0.6,0.3,1.3,0.3c0.2,0,0.4,0,0.6,0c0.2,0,0.4,0,0.6-0.1
		v3c-0.3,0.1-0.7,0.1-1.1,0.1c-0.4,0-0.8,0-1.2,0c-0.6,0-1.2,0-1.7-0.1s-1-0.2-1.4-0.5c-0.4-0.2-0.7-0.6-1-1s-0.4-1-0.4-1.7v-8.2
		h-2.3V25h2.3v-4.2h3.8V25H91.5z"/>
	<path class="st0" d="M93.5,22.9v-3.2h3.8v3.2H93.5z M97.3,25v14h-3.8V25H97.3z"/>
	<path class="st0" d="M107,27.5c-0.6,0-1.1,0.1-1.5,0.4s-0.8,0.6-1,1.1c-0.3,0.4-0.4,0.9-0.6,1.5c-0.1,0.5-0.2,1.1-0.2,1.6
		c0,0.5,0.1,1,0.2,1.5c0.1,0.5,0.3,1,0.5,1.4c0.2,0.4,0.6,0.8,1,1c0.4,0.3,0.9,0.4,1.5,0.4c0.9,0,1.6-0.3,2.1-0.8
		c0.5-0.5,0.8-1.2,0.9-2.1h3.7c-0.3,1.9-1,3.3-2.2,4.2s-2.7,1.5-4.6,1.5c-1,0-2-0.2-2.9-0.5c-0.9-0.4-1.6-0.8-2.2-1.5
		c-0.6-0.6-1.1-1.4-1.4-2.3c-0.3-0.9-0.5-1.8-0.5-2.9c0-1.1,0.2-2.1,0.5-3c0.3-0.9,0.8-1.7,1.4-2.4c0.6-0.7,1.4-1.2,2.2-1.6
		s1.9-0.6,3-0.6c0.8,0,1.6,0.1,2.4,0.3c0.8,0.2,1.4,0.5,2.1,1c0.6,0.4,1.1,1,1.5,1.6s0.6,1.4,0.6,2.3h-3.8
		C109.6,28.3,108.6,27.5,107,27.5z"/>
	<path class="st0" d="M115.7,29.3c0.1-0.9,0.3-1.6,0.7-2.2c0.4-0.6,0.9-1.1,1.5-1.4c0.6-0.4,1.3-0.6,2.1-0.8s1.5-0.2,2.3-0.2
		c0.7,0,1.4,0,2.1,0.1c0.7,0.1,1.4,0.3,2,0.6c0.6,0.3,1.1,0.7,1.5,1.2c0.4,0.5,0.6,1.2,0.6,2v7.3c0,0.6,0,1.2,0.1,1.8
		c0.1,0.6,0.2,1,0.4,1.3h-3.9c-0.1-0.2-0.1-0.4-0.2-0.7c0-0.2-0.1-0.5-0.1-0.7c-0.6,0.6-1.3,1.1-2.2,1.3s-1.7,0.4-2.5,0.4
		c-0.7,0-1.3-0.1-1.9-0.2s-1.1-0.4-1.5-0.8c-0.4-0.3-0.8-0.8-1-1.3s-0.4-1.1-0.4-1.9c0-0.8,0.1-1.4,0.4-2c0.3-0.5,0.6-0.9,1.1-1.2
		c0.4-0.3,0.9-0.5,1.5-0.7c0.6-0.2,1.1-0.3,1.7-0.4c0.6-0.1,1.1-0.2,1.7-0.2c0.6-0.1,1.1-0.1,1.5-0.2s0.8-0.3,1-0.5
		c0.3-0.2,0.4-0.5,0.4-0.9c0-0.4-0.1-0.7-0.2-1c-0.1-0.2-0.3-0.4-0.5-0.6c-0.2-0.1-0.5-0.2-0.8-0.3c-0.3,0-0.6-0.1-1-0.1
		c-0.8,0-1.4,0.2-1.8,0.5c-0.4,0.3-0.7,0.9-0.8,1.6H115.7z M124.5,32.1c-0.2,0.1-0.4,0.3-0.6,0.3s-0.5,0.1-0.8,0.2
		c-0.3,0.1-0.6,0.1-0.9,0.1s-0.6,0.1-0.9,0.1c-0.3,0.1-0.6,0.1-0.9,0.2c-0.3,0.1-0.5,0.2-0.7,0.4c-0.2,0.2-0.4,0.3-0.5,0.6
		c-0.1,0.2-0.2,0.5-0.2,0.9c0,0.3,0.1,0.6,0.2,0.9c0.1,0.2,0.3,0.4,0.5,0.6c0.2,0.1,0.5,0.2,0.8,0.3c0.3,0.1,0.6,0.1,0.9,0.1
		c0.8,0,1.3-0.1,1.8-0.4c0.4-0.3,0.7-0.6,0.9-0.9c0.2-0.4,0.3-0.7,0.4-1.1c0-0.4,0.1-0.6,0.1-0.9V32.1z"/>
	<path class="st0" d="M135.3,19.7V39h-3.8V19.7H135.3z"/>
	<path class="st0" d="M160.3,39l-3.3-13.1H157L153.8,39h-4.3l-5.1-19.3h4.2l3.1,13.1h0.1l3.3-13.1h4l3.3,13.3h0.1l3.2-13.3h4.2
		L164.6,39H160.3z"/>
	<path class="st0" d="M171.4,22.9v-3.2h3.8v3.2H171.4z M175.2,25v14h-3.8V25H175.2z"/>
	<path class="st0" d="M181.5,35.5c0.2,0.3,0.4,0.5,0.7,0.7c0.3,0.2,0.6,0.3,0.9,0.4s0.7,0.1,1.1,0.1c0.3,0,0.6,0,0.9-0.1
		c0.3-0.1,0.6-0.2,0.8-0.3c0.2-0.1,0.4-0.3,0.6-0.5c0.2-0.2,0.2-0.5,0.2-0.9c0-0.6-0.4-1-1.1-1.3c-0.8-0.3-1.8-0.6-3.2-0.9
		c-0.6-0.1-1.1-0.3-1.6-0.4c-0.5-0.2-1-0.4-1.4-0.7c-0.4-0.3-0.7-0.6-1-1.1c-0.3-0.4-0.4-0.9-0.4-1.6c0-0.9,0.2-1.6,0.5-2.2
		c0.4-0.6,0.8-1,1.4-1.4c0.6-0.3,1.2-0.6,1.9-0.7c0.7-0.1,1.5-0.2,2.2-0.2c0.8,0,1.5,0.1,2.2,0.2c0.7,0.1,1.3,0.4,1.9,0.7
		c0.6,0.3,1,0.8,1.4,1.4c0.4,0.6,0.6,1.3,0.7,2.1h-3.6c-0.1-0.7-0.3-1.2-0.8-1.5c-0.5-0.3-1.1-0.4-1.8-0.4c-0.2,0-0.5,0-0.7,0
		c-0.3,0-0.5,0.1-0.7,0.2c-0.2,0.1-0.4,0.2-0.5,0.4c-0.1,0.2-0.2,0.4-0.2,0.7c0,0.3,0.1,0.6,0.4,0.8c0.3,0.2,0.6,0.4,1,0.5
		c0.4,0.1,0.9,0.3,1.4,0.4s1.1,0.2,1.6,0.4c0.6,0.1,1.1,0.3,1.6,0.5c0.5,0.2,1,0.4,1.4,0.7c0.4,0.3,0.7,0.7,1,1.1
		c0.3,0.4,0.4,1,0.4,1.6c0,0.9-0.2,1.7-0.6,2.3c-0.4,0.6-0.9,1.1-1.4,1.5c-0.6,0.4-1.3,0.6-2,0.8c-0.8,0.2-1.5,0.2-2.3,0.2
		c-0.8,0-1.6-0.1-2.4-0.2s-1.5-0.4-2.1-0.8s-1.1-0.9-1.5-1.5c-0.4-0.6-0.6-1.4-0.6-2.3h3.6C181.2,34.8,181.3,35.2,181.5,35.5z"/>
	<path class="st0" d="M202.6,37.2c-0.5,0.8-1,1.3-1.8,1.6s-1.6,0.5-2.5,0.5c-1,0-2-0.2-2.8-0.6c-0.8-0.4-1.4-1-2-1.6
		s-0.9-1.5-1.2-2.4c-0.3-0.9-0.4-1.8-0.4-2.8c0-0.9,0.1-1.8,0.4-2.7c0.3-0.9,0.6-1.6,1.2-2.3c0.5-0.7,1.2-1.2,1.9-1.6
		c0.8-0.4,1.7-0.6,2.7-0.6c0.8,0,1.6,0.2,2.4,0.5c0.7,0.4,1.3,0.9,1.8,1.6h0.1v-7h3.8V39h-3.6L202.6,37.2L202.6,37.2z M202.5,30.3
		c-0.1-0.5-0.3-1-0.6-1.4c-0.3-0.4-0.6-0.7-1-1c-0.4-0.3-0.9-0.4-1.6-0.4c-0.6,0-1.2,0.1-1.6,0.4s-0.8,0.6-1,1
		c-0.3,0.4-0.5,0.9-0.6,1.4c-0.1,0.5-0.2,1.1-0.2,1.7c0,0.5,0.1,1.1,0.2,1.6c0.1,0.5,0.3,1,0.6,1.4c0.3,0.4,0.6,0.8,1.1,1
		s0.9,0.4,1.5,0.4c0.6,0,1.2-0.1,1.6-0.4c0.4-0.3,0.8-0.6,1-1c0.3-0.4,0.4-0.9,0.5-1.4s0.2-1.1,0.2-1.7
		C202.6,31.4,202.6,30.8,202.5,30.3z"/>
	<path class="st0" d="M209.3,29c0.3-0.9,0.8-1.7,1.5-2.3c0.6-0.6,1.4-1.1,2.3-1.5c0.9-0.4,1.9-0.5,3-0.5c1.1,0,2.1,0.2,3,0.5
		c0.9,0.4,1.7,0.8,2.3,1.5c0.6,0.6,1.1,1.4,1.5,2.3c0.3,0.9,0.5,1.9,0.5,3s-0.2,2.1-0.5,3c-0.3,0.9-0.8,1.7-1.5,2.3
		c-0.6,0.6-1.4,1.1-2.3,1.5c-0.9,0.3-1.9,0.5-3,0.5c-1.1,0-2.1-0.2-3-0.5c-0.9-0.3-1.6-0.8-2.3-1.5c-0.6-0.6-1.1-1.4-1.5-2.3
		c-0.3-0.9-0.5-1.9-0.5-3S209,29.9,209.3,29z M212.8,33.6c0.1,0.5,0.3,1,0.6,1.4c0.3,0.4,0.6,0.8,1,1c0.4,0.3,1,0.4,1.6,0.4
		s1.2-0.1,1.6-0.4c0.4-0.3,0.8-0.6,1.1-1c0.3-0.4,0.4-0.9,0.6-1.4c0.1-0.5,0.2-1.1,0.2-1.6s-0.1-1.1-0.2-1.6c-0.1-0.5-0.3-1-0.6-1.4
		c-0.3-0.4-0.6-0.8-1.1-1c-0.4-0.3-1-0.4-1.6-0.4s-1.2,0.1-1.6,0.4c-0.4,0.3-0.8,0.6-1,1c-0.3,0.4-0.4,0.9-0.6,1.4
		c-0.1,0.5-0.2,1.1-0.2,1.6S212.7,33.1,212.8,33.6z"/>
	<path class="st0" d="M229.5,25v1.9h0.1c0.5-0.7,1.1-1.3,1.8-1.7c0.7-0.4,1.5-0.6,2.4-0.6c0.9,0,1.7,0.2,2.4,0.5
		c0.7,0.3,1.3,0.9,1.7,1.8c0.4-0.6,1-1.2,1.7-1.6c0.7-0.5,1.6-0.7,2.5-0.7c0.7,0,1.4,0.1,2.1,0.3c0.6,0.2,1.2,0.5,1.6,0.9
		c0.4,0.4,0.8,0.9,1.1,1.6c0.3,0.6,0.4,1.4,0.4,2.3V39h-3.8v-7.9c0-0.5,0-0.9-0.1-1.3s-0.1-0.8-0.3-1.1c-0.2-0.3-0.4-0.5-0.7-0.7
		c-0.3-0.2-0.7-0.3-1.3-0.3s-1,0.1-1.3,0.3c-0.3,0.2-0.6,0.5-0.8,0.8s-0.3,0.7-0.4,1.1c-0.1,0.4-0.1,0.9-0.1,1.3V39h-3.8v-7.8
		c0-0.4,0-0.8,0-1.2c0-0.4-0.1-0.8-0.2-1.1c-0.1-0.3-0.4-0.6-0.7-0.8c-0.3-0.2-0.8-0.3-1.4-0.3c-0.2,0-0.4,0-0.7,0.1
		c-0.3,0.1-0.6,0.2-0.9,0.5c-0.3,0.2-0.5,0.5-0.7,1c-0.2,0.4-0.3,1-0.3,1.7V39h-3.8V25H229.5z"/>
</g>
<g>
	<path class="st0" d="M22.9,55.6V53h2.3v-1.1c0-1.2,0.4-2.3,1.2-3.1c0.8-0.8,1.9-1.2,3.5-1.2c0.3,0,0.7,0,1,0c0.3,0,0.7,0,1,0.1v2.9
		c-0.5-0.1-0.9-0.1-1.4-0.1c-0.5,0-0.9,0.1-1.1,0.4S29,51.6,29,52.2V53h2.6v2.6H29V67h-3.8V55.6H22.9z"/>
	<path class="st0" d="M33.4,57c0.3-0.9,0.8-1.7,1.5-2.3c0.6-0.6,1.4-1.1,2.3-1.5c0.9-0.4,1.9-0.5,3-0.5c1.1,0,2.1,0.2,3,0.5
		c0.9,0.4,1.7,0.8,2.3,1.5c0.6,0.6,1.1,1.4,1.5,2.3c0.3,0.9,0.5,1.9,0.5,3s-0.2,2.1-0.5,3c-0.3,0.9-0.8,1.7-1.5,2.3
		c-0.6,0.6-1.4,1.1-2.3,1.5c-0.9,0.3-1.9,0.5-3,0.5c-1.1,0-2.1-0.2-3-0.5c-0.9-0.3-1.6-0.8-2.3-1.5c-0.6-0.6-1.1-1.4-1.5-2.3
		c-0.3-0.9-0.5-1.9-0.5-3S33.1,57.9,33.4,57z M36.9,61.6c0.1,0.5,0.3,1,0.6,1.4c0.3,0.4,0.6,0.8,1,1c0.4,0.3,1,0.4,1.6,0.4
		s1.2-0.1,1.6-0.4c0.4-0.3,0.8-0.6,1.1-1c0.3-0.4,0.4-0.9,0.6-1.4c0.1-0.5,0.2-1.1,0.2-1.6s-0.1-1.1-0.2-1.6s-0.3-1-0.6-1.4
		c-0.3-0.4-0.6-0.8-1.1-1c-0.4-0.3-1-0.4-1.6-0.4s-1.2,0.1-1.6,0.4c-0.4,0.3-0.8,0.6-1,1c-0.3,0.4-0.4,0.9-0.6,1.4s-0.2,1.1-0.2,1.6
		S36.8,61.1,36.9,61.6z"/>
	<path class="st0" d="M53.5,53v2.6h0.1c0.2-0.4,0.4-0.8,0.7-1.2c0.3-0.4,0.7-0.7,1.1-0.9c0.4-0.3,0.8-0.5,1.3-0.6
		c0.4-0.1,0.9-0.2,1.4-0.2c0.3,0,0.5,0,0.8,0.1v3.6c-0.2,0-0.4-0.1-0.6-0.1s-0.5,0-0.7,0c-0.7,0-1.3,0.1-1.8,0.4
		c-0.5,0.2-0.9,0.6-1.2,1c-0.3,0.4-0.5,0.9-0.6,1.4s-0.2,1.1-0.2,1.8V67h-3.8V53H53.5z"/>
	<path class="st0" d="M76.6,47.7c1.2,0,2.4,0.2,3.5,0.6c1.1,0.4,2,1,2.8,1.8c0.8,0.8,1.4,1.8,1.8,3c0.4,1.2,0.7,2.6,0.7,4.2
		c0,1.4-0.2,2.7-0.5,3.9c-0.4,1.2-0.9,2.2-1.6,3.1c-0.7,0.9-1.6,1.5-2.7,2C79.3,66.7,78,67,76.6,67h-8.3V47.7H76.6z M76.3,63.4
		c0.6,0,1.2-0.1,1.8-0.3c0.6-0.2,1.1-0.5,1.5-1c0.4-0.5,0.8-1.1,1.1-1.8s0.4-1.6,0.4-2.7c0-1-0.1-1.8-0.3-2.6s-0.5-1.5-0.9-2
		c-0.4-0.6-1-1-1.7-1.3s-1.6-0.4-2.6-0.4h-3v12.1H76.3z"/>
	<path class="st0" d="M92,63.6c0.6,0.6,1.4,0.8,2.5,0.8c0.8,0,1.4-0.2,2-0.6c0.6-0.4,0.9-0.8,1-1.2h3.4c-0.5,1.7-1.4,2.9-2.5,3.6
		c-1.1,0.7-2.5,1.1-4,1.1c-1.1,0-2.1-0.2-3-0.5c-0.9-0.4-1.6-0.9-2.2-1.5c-0.6-0.6-1.1-1.4-1.4-2.3c-0.3-0.9-0.5-1.9-0.5-3
		c0-1,0.2-2,0.5-2.9s0.8-1.7,1.5-2.3c0.6-0.7,1.4-1.2,2.3-1.6c0.9-0.4,1.8-0.6,2.9-0.6c1.2,0,2.2,0.2,3.1,0.7
		c0.9,0.5,1.6,1.1,2.2,1.8c0.6,0.8,1,1.7,1.2,2.6c0.3,1,0.3,2,0.3,3.1H91C91.1,62.2,91.4,63.1,92,63.6z M96.3,56.3
		c-0.5-0.5-1.2-0.8-2.1-0.8c-0.6,0-1.1,0.1-1.5,0.3c-0.4,0.2-0.7,0.5-1,0.8c-0.2,0.3-0.4,0.6-0.5,1c-0.1,0.3-0.2,0.6-0.2,0.9h6.2
		C97.1,57.5,96.7,56.8,96.3,56.3z"/>
	<path class="st0" d="M107,53V55h0.1c0.5-0.8,1.1-1.4,1.9-1.8c0.8-0.4,1.6-0.6,2.4-0.6c1,0,1.9,0.1,2.5,0.4c0.7,0.3,1.2,0.7,1.6,1.2
		c0.4,0.5,0.6,1.1,0.8,1.8c0.2,0.7,0.2,1.5,0.2,2.4V67h-3.8v-7.9c0-1.2-0.2-2-0.5-2.6c-0.4-0.6-1-0.9-1.9-0.9c-1,0-1.8,0.3-2.3,0.9
		c-0.5,0.6-0.7,1.6-0.7,3.1V67h-3.8V53H107z"/>
	<path class="st0" d="M127,53v2.6h-2.8v6.9c0,0.6,0.1,1.1,0.3,1.3c0.2,0.2,0.6,0.3,1.3,0.3c0.2,0,0.4,0,0.6,0c0.2,0,0.4,0,0.6-0.1v3
		c-0.3,0.1-0.7,0.1-1.1,0.1c-0.4,0-0.8,0-1.2,0c-0.6,0-1.2,0-1.7-0.1s-1-0.2-1.4-0.5c-0.4-0.2-0.7-0.6-1-1s-0.4-1-0.4-1.7v-8.2h-2.3
		V53h2.3v-4.2h3.8V53H127z"/>
	<path class="st0" d="M129,50.8v-3.2h3.8v3.2H129z M132.8,53v14H129V53H132.8z"/>
	<path class="st0" d="M139.1,63.5c0.2,0.3,0.4,0.5,0.7,0.7c0.3,0.2,0.6,0.3,0.9,0.4c0.4,0.1,0.7,0.1,1.1,0.1c0.3,0,0.6,0,0.9-0.1
		c0.3-0.1,0.6-0.2,0.8-0.3c0.2-0.1,0.4-0.3,0.6-0.5c0.2-0.2,0.2-0.5,0.2-0.9c0-0.6-0.4-1-1.1-1.3s-1.8-0.6-3.2-0.9
		c-0.6-0.1-1.1-0.3-1.6-0.4c-0.5-0.2-1-0.4-1.4-0.7c-0.4-0.3-0.7-0.6-1-1.1c-0.3-0.4-0.4-0.9-0.4-1.6c0-0.9,0.2-1.6,0.5-2.2
		c0.4-0.6,0.8-1,1.4-1.4s1.2-0.6,1.9-0.7c0.7-0.1,1.5-0.2,2.2-0.2c0.8,0,1.5,0.1,2.2,0.2c0.7,0.1,1.3,0.4,1.9,0.7
		c0.6,0.3,1,0.8,1.4,1.4c0.4,0.6,0.6,1.3,0.7,2.1h-3.6c-0.1-0.7-0.3-1.2-0.8-1.5c-0.5-0.3-1.1-0.4-1.8-0.4c-0.2,0-0.5,0-0.7,0
		c-0.3,0-0.5,0.1-0.7,0.2c-0.2,0.1-0.4,0.2-0.5,0.4c-0.1,0.2-0.2,0.4-0.2,0.7c0,0.3,0.1,0.6,0.4,0.8c0.3,0.2,0.6,0.4,1,0.5
		c0.4,0.1,0.9,0.3,1.4,0.4s1.1,0.2,1.6,0.4c0.6,0.1,1.1,0.3,1.6,0.5c0.5,0.2,1,0.4,1.4,0.7s0.7,0.7,1,1.1s0.4,1,0.4,1.6
		c0,0.9-0.2,1.7-0.6,2.3c-0.4,0.6-0.9,1.1-1.4,1.5c-0.6,0.4-1.3,0.6-2,0.8c-0.8,0.2-1.5,0.2-2.3,0.2c-0.8,0-1.6-0.1-2.4-0.2
		c-0.8-0.2-1.5-0.4-2.1-0.8s-1.1-0.9-1.5-1.5c-0.4-0.6-0.6-1.4-0.6-2.3h3.6C138.8,62.8,138.9,63.2,139.1,63.5z"/>
	<path class="st0" d="M158,53v2.6h-2.8v6.9c0,0.6,0.1,1.1,0.3,1.3c0.2,0.2,0.6,0.3,1.3,0.3c0.2,0,0.4,0,0.6,0c0.2,0,0.4,0,0.6-0.1v3
		c-0.3,0.1-0.7,0.1-1.1,0.1c-0.4,0-0.8,0-1.2,0c-0.6,0-1.2,0-1.7-0.1s-1-0.2-1.4-0.5c-0.4-0.2-0.7-0.6-1-1s-0.4-1-0.4-1.7v-8.2H149
		V53h2.3v-4.2h3.8V53H158z"/>
	<path class="st0" d="M163.1,63.5c0.2,0.3,0.4,0.5,0.7,0.7c0.3,0.2,0.6,0.3,0.9,0.4c0.4,0.1,0.7,0.1,1.1,0.1c0.3,0,0.6,0,0.9-0.1
		c0.3-0.1,0.6-0.2,0.8-0.3c0.2-0.1,0.4-0.3,0.6-0.5c0.2-0.2,0.2-0.5,0.2-0.9c0-0.6-0.4-1-1.1-1.3s-1.8-0.6-3.2-0.9
		c-0.6-0.1-1.1-0.3-1.6-0.4c-0.5-0.2-1-0.4-1.4-0.7c-0.4-0.3-0.7-0.6-1-1.1c-0.3-0.4-0.4-0.9-0.4-1.6c0-0.9,0.2-1.6,0.5-2.2
		c0.4-0.6,0.8-1,1.4-1.4s1.2-0.6,1.9-0.7c0.7-0.1,1.5-0.2,2.2-0.2c0.8,0,1.5,0.1,2.2,0.2c0.7,0.1,1.3,0.4,1.9,0.7
		c0.6,0.3,1,0.8,1.4,1.4c0.4,0.6,0.6,1.3,0.7,2.1h-3.6c-0.1-0.7-0.3-1.2-0.8-1.5c-0.5-0.3-1.1-0.4-1.8-0.4c-0.2,0-0.5,0-0.7,0
		c-0.3,0-0.5,0.1-0.7,0.2c-0.2,0.1-0.4,0.2-0.5,0.4c-0.1,0.2-0.2,0.4-0.2,0.7c0,0.3,0.1,0.6,0.4,0.8c0.3,0.2,0.6,0.4,1,0.5
		c0.4,0.1,0.9,0.3,1.4,0.4s1.1,0.2,1.6,0.4c0.6,0.1,1.1,0.3,1.6,0.5c0.5,0.2,1,0.4,1.4,0.7s0.7,0.7,1,1.1s0.4,1,0.4,1.6
		c0,0.9-0.2,1.7-0.6,2.3c-0.4,0.6-0.9,1.1-1.4,1.5c-0.6,0.4-1.3,0.6-2,0.8c-0.8,0.2-1.5,0.2-2.3,0.2c-0.8,0-1.6-0.1-2.4-0.2
		c-0.8-0.2-1.5-0.4-2.1-0.8s-1.1-0.9-1.5-1.5c-0.4-0.6-0.6-1.4-0.6-2.3h3.6C162.8,62.8,162.9,63.2,163.1,63.5z"/>
</g>
</svg>
