<?xml version="1.0" encoding="utf-8"?>
<!-- Generator: Adobe Illustrator 25.4.6, SVG Export Plug-In . SVG Version: 6.00 Build 0)  -->
<svg version="1.1" id="Layer_1" xmlns="http://www.w3.org/2000/svg" xmlns:xlink="http://www.w3.org/1999/xlink" x="0px" y="0px"
	 viewBox="0 0 728 90" style="enable-background:new 0 0 728 90;" xml:space="preserve">
<style type="text/css">
	.st0{clip-path:url(#SVGID_00000178922693552914771430000003590435930678851736_);fill:#439D51;}
	.st1{fill:#FFFFFF;}
</style>
<g>
	<defs>
		<rect id="SVGID_1_" x="531.6" y="15.7" width="158.4" height="33.4"/>
	</defs>
	<clipPath id="SVGID_00000147222636040750486150000000223524849659166865_">
		<use xlink:href="#SVGID_1_"  style="overflow:visible;"/>
	</clipPath>
	<path style="clip-path:url(#SVGID_00000147222636040750486150000000223524849659166865_);fill:#439D51;" d="M690,32.4
		c0,9.2-8.6,16.7-19.2,16.7h-120c-10.5,0-19.2-7.5-19.2-16.7s8.6-16.7,19.2-16.7h120C681.3,15.7,690,23.2,690,32.4"/>
</g>
<g>
	<path class="st1" d="M570.7,27.4v2h-5.1v2.5h4.5v1.8h-4.5v4.4h-2.3V27.4H570.7z"/>
	<path class="st1" d="M577.8,27.4c0.5,0,0.9,0.1,1.3,0.2c0.4,0.2,0.7,0.4,1,0.6s0.5,0.6,0.6,0.9c0.1,0.4,0.2,0.7,0.2,1.1
		c0,0.6-0.1,1.2-0.4,1.6s-0.7,0.8-1.3,1v0c0.3,0.1,0.5,0.2,0.7,0.4c0.2,0.2,0.3,0.4,0.5,0.6c0.1,0.2,0.2,0.5,0.3,0.7
		c0.1,0.3,0.1,0.5,0.1,0.8c0,0.2,0,0.4,0,0.6c0,0.2,0,0.5,0.1,0.7c0,0.2,0.1,0.5,0.1,0.7s0.1,0.4,0.2,0.5h-2.3
		c-0.1-0.3-0.2-0.7-0.2-1.2c0-0.5-0.1-0.9-0.1-1.3c-0.1-0.6-0.2-1-0.5-1.2c-0.3-0.3-0.7-0.4-1.3-0.4h-2.3v4.2H572V27.4H577.8z
		 M577,32.2c0.5,0,0.9-0.1,1.2-0.4c0.3-0.2,0.4-0.6,0.4-1.2c0-0.5-0.1-0.9-0.4-1.1c-0.3-0.2-0.7-0.4-1.2-0.4h-2.6v3H577z"/>
	<path class="st1" d="M590.8,27.4v2h-5.6v2.3h5.2v1.8h-5.2v2.6h5.7v2h-8.1V27.4H590.8z"/>
	<path class="st1" d="M600.4,27.4v2h-5.6v2.3h5.2v1.8h-5.2v2.6h5.7v2h-8.1V27.4H600.4z"/>
	<path class="st1" d="M613.6,37.7c-0.7,0.4-1.6,0.6-2.6,0.6c-0.8,0-1.5-0.1-2.2-0.4c-0.7-0.3-1.2-0.7-1.6-1.2
		c-0.4-0.5-0.8-1.1-1-1.8c-0.2-0.7-0.4-1.4-0.4-2.2c0-0.8,0.1-1.5,0.4-2.2s0.6-1.3,1-1.8c0.4-0.5,1-0.9,1.6-1.2
		c0.7-0.3,1.4-0.4,2.2-0.4c0.8,0,1.6,0.1,2.2,0.4c0.6,0.3,1.2,0.7,1.6,1.2c0.4,0.5,0.8,1.1,1,1.8c0.2,0.7,0.4,1.4,0.4,2.2
		c0,0.8-0.1,1.5-0.4,2.2c-0.2,0.7-0.6,1.3-1,1.8l1.3,1.2l-1.1,1.1L613.6,37.7z M613.3,35.2c0.2-0.3,0.4-0.6,0.5-1s0.2-0.9,0.2-1.4
		c0-0.5-0.1-0.9-0.2-1.4c-0.1-0.4-0.3-0.8-0.5-1.2s-0.5-0.6-0.9-0.8c-0.4-0.2-0.8-0.3-1.3-0.3c-0.5,0-1,0.1-1.3,0.3
		c-0.4,0.2-0.7,0.5-0.9,0.8c-0.2,0.3-0.4,0.7-0.5,1.2c-0.1,0.4-0.2,0.9-0.2,1.4c0,0.4,0.1,0.9,0.2,1.3s0.3,0.8,0.5,1.1
		c0.2,0.3,0.5,0.6,0.9,0.8c0.4,0.2,0.8,0.3,1.3,0.3c0.2,0,0.4,0,0.6,0c0.1,0,0.3-0.1,0.4-0.1l-1-0.9l1.1-1.2L613.3,35.2z"/>
	<path class="st1" d="M625.7,37.2c-0.8,0.7-1.9,1.1-3.3,1.1c-1.4,0-2.6-0.3-3.3-1c-0.8-0.7-1.2-1.8-1.2-3.2v-6.6h2.3V34
		c0,0.3,0,0.6,0.1,0.9c0,0.3,0.2,0.5,0.3,0.7s0.4,0.4,0.7,0.5s0.7,0.2,1.1,0.2c0.8,0,1.4-0.2,1.7-0.6c0.3-0.4,0.5-1,0.5-1.8v-6.6
		h2.3V34C626.9,35.5,626.5,36.5,625.7,37.2z"/>
	<path class="st1" d="M628.8,30.6c0.2-0.7,0.6-1.3,1-1.8c0.4-0.5,1-0.9,1.6-1.2c0.7-0.3,1.4-0.4,2.2-0.4c0.8,0,1.6,0.1,2.2,0.4
		c0.6,0.3,1.2,0.7,1.6,1.2c0.4,0.5,0.8,1.1,1,1.8c0.2,0.7,0.4,1.4,0.4,2.2c0,0.8-0.1,1.5-0.4,2.2c-0.2,0.7-0.6,1.3-1,1.8
		c-0.4,0.5-1,0.9-1.6,1.2c-0.6,0.3-1.4,0.4-2.2,0.4c-0.8,0-1.5-0.1-2.2-0.4c-0.7-0.3-1.2-0.7-1.6-1.2c-0.4-0.5-0.8-1.1-1-1.8
		c-0.2-0.7-0.4-1.4-0.4-2.2C628.5,32,628.6,31.2,628.8,30.6z M631,34.1c0.1,0.4,0.3,0.8,0.5,1.1c0.2,0.3,0.5,0.6,0.9,0.8
		c0.4,0.2,0.8,0.3,1.3,0.3c0.5,0,1-0.1,1.3-0.3c0.4-0.2,0.7-0.5,0.9-0.8s0.4-0.7,0.5-1.1s0.2-0.9,0.2-1.3c0-0.5-0.1-0.9-0.2-1.4
		s-0.3-0.8-0.5-1.2c-0.2-0.3-0.5-0.6-0.9-0.8c-0.4-0.2-0.8-0.3-1.3-0.3c-0.5,0-1,0.1-1.3,0.3c-0.4,0.2-0.7,0.5-0.9,0.8
		c-0.2,0.3-0.4,0.7-0.5,1.2s-0.2,0.9-0.2,1.4C630.8,33.2,630.9,33.7,631,34.1z"/>
	<path class="st1" d="M639.7,29.4v-2h8.7v2h-3.2v8.7h-2.3v-8.7H639.7z"/>
	<path class="st1" d="M657.6,27.4v2H652v2.3h5.2v1.8H652v2.6h5.7v2h-8.1V27.4H657.6z"/>
</g>
</svg>
