<?xml version="1.0" encoding="utf-8"?>
<!-- Generator: Adobe Illustrator 25.4.6, SVG Export Plug-In . SVG Version: 6.00 Build 0)  -->
<svg version="1.1" id="Layer_1" xmlns="http://www.w3.org/2000/svg" xmlns:xlink="http://www.w3.org/1999/xlink" x="0px" y="0px"
	 viewBox="0 0 728 90" style="enable-background:new 0 0 728 90;" xml:space="preserve">
<style type="text/css">
	.st0{fill:#439D51;}
	.st1{fill:#373535;}
	.st2{fill:none;}
</style>
<path class="st0" d="M27.1,62.2h-2.5l-0.8-2.4h-5L18,62.2h-2.5l4.4-11.6h1.8c0.6,0,1,0.2,1.2,0.6c0.2,0.4,2.2,5.6,2.2,5.6h-2.3
	L21.3,53l-1.8,4.9h5c0.7,0,1,0.2,1.2,0.8L27.1,62.2z"/>
<path class="st0" d="M49,62.2h-2.5l-0.8-2.4h-5l-0.8,2.4h-2.5l4.4-11.6h1.8c0.6,0,1,0.2,1.2,0.6c0.2,0.4,2.2,5.6,2.2,5.6h-2.3
	L43.2,53l-1.8,4.9h5c0.7,0,1,0.2,1.2,0.8L49,62.2z"/>
<path class="st0" d="M27.9,50.7h4.5c3.5,0,5.3,1.9,5.3,5.8c0,2.2-0.7,3.8-1.9,4.8c-1.1,0.9-2.4,1-4,1h-3.9V50.7z M32.1,60.1
	c2.2,0,3.1-1.1,3.1-3.7c0-2.6-0.9-3.8-2.9-3.8h-2.2v7.5H32.1z"/>
<g>
	<path class="st1" d="M68.7,62.1h-1.8l-0.8-8.3l-2.8,8.3h-1.6l-2.9-8.3l-0.7,8.3h-1.7l1.1-11h2.1l3,8.5l2.9-8.5h2.1L68.7,62.1z"/>
	<path class="st1" d="M77.7,58c0,0.1,0,0.2,0,0.4c0,0.1,0,0.2,0,0.3h-5.4c0,0.6,0.2,1.1,0.5,1.5c0.4,0.5,1,0.7,1.8,0.7
		c0.7,0,1.4-0.2,2.2-0.6l0.6,1.2c-0.8,0.6-1.8,0.9-3,0.9c-1.2,0-2.2-0.4-2.9-1.2c-0.7-0.8-1-1.7-1-3c0-1.3,0.4-2.3,1.1-3.1
		c0.7-0.8,1.6-1.2,2.7-1.2c1.1,0,1.9,0.4,2.5,1.1C77.4,55.7,77.7,56.7,77.7,58z M76,57.3c0-0.5-0.1-0.9-0.3-1.3
		c-0.3-0.5-0.8-0.8-1.4-0.8c-0.6,0-1,0.2-1.4,0.6c-0.4,0.4-0.6,0.9-0.7,1.5H76z"/>
	<path class="st1" d="M90.8,62.1H89v-4.5c0-0.9-0.1-1.5-0.3-1.8c-0.2-0.3-0.5-0.4-1-0.4c-0.6,0-1.2,0.2-1.8,0.6
		c0.1,0.2,0.1,0.8,0.1,1.8v4.3h-1.8v-4.4c0-1-0.1-1.7-0.4-2c-0.2-0.2-0.5-0.3-0.9-0.3c-0.6,0-1.2,0.2-1.7,0.6v6.2h-1.8v-8H81v0.6
		c0.7-0.5,1.5-0.8,2.4-0.8c0.8,0,1.5,0.3,2,0.9c0.9-0.6,1.8-0.9,2.7-0.9c0.8,0,1.5,0.2,2,0.7c0.4,0.4,0.6,0.9,0.8,1.5
		c0.1,0.4,0.1,1.1,0.1,2V62.1z"/>
	<path class="st1" d="M100.1,57.9c0,1.3-0.4,2.4-1.2,3.2c-0.8,0.8-1.8,1.2-3,1.2c-0.9,0-1.9-0.2-3.2-0.6V50.3h1.8v4.2
		c0.6-0.4,1.3-0.6,2.1-0.6c1,0,1.9,0.4,2.5,1.1C99.8,55.7,100.1,56.7,100.1,57.9z M98.3,58c0-0.8-0.2-1.5-0.6-1.9
		c-0.4-0.4-0.9-0.7-1.4-0.7c-0.6,0-1.1,0.2-1.7,0.6v4.7c0.5,0.1,0.9,0.2,1.3,0.2c0.7,0,1.3-0.3,1.7-0.8C98.1,59.5,98.3,58.8,98.3,58
		z"/>
	<path class="st1" d="M108.7,58c0,0.1,0,0.2,0,0.4c0,0.1,0,0.2,0,0.3h-5.4c0,0.6,0.2,1.1,0.5,1.5c0.4,0.5,1,0.7,1.8,0.7
		c0.7,0,1.4-0.2,2.2-0.6l0.6,1.2c-0.8,0.6-1.8,0.9-3,0.9c-1.2,0-2.2-0.4-2.9-1.2c-0.7-0.8-1-1.7-1-3c0-1.3,0.4-2.3,1.1-3.1
		c0.7-0.8,1.6-1.2,2.7-1.2c1.1,0,1.9,0.4,2.5,1.1C108.4,55.7,108.7,56.7,108.7,58z M107,57.3c0-0.5-0.1-0.9-0.3-1.3
		c-0.3-0.5-0.8-0.8-1.4-0.8c-0.6,0-1,0.2-1.4,0.6c-0.4,0.4-0.6,0.9-0.7,1.5H107z"/>
	<path class="st1" d="M115.6,54.1l-0.4,1.4c-0.2,0-0.3,0-0.5,0c-1,0-1.7,0.4-2.3,1.2v5.5h-1.8v-8h1.6v1c0.1-0.2,0.4-0.4,0.7-0.7
		c0.6-0.4,1.2-0.6,1.9-0.6C115,53.9,115.3,53.9,115.6,54.1z"/>
</g>
<g>
	<path class="st1" d="M122.2,59.8c0,0.8-0.3,1.4-0.9,1.8c-0.6,0.5-1.3,0.7-2.2,0.7c-0.7,0-1.4-0.1-2.1-0.4c-0.4-0.2-0.7-0.3-0.9-0.5
		l0.6-1.2c0.8,0.4,1.5,0.6,2.1,0.6c0.4,0,0.8-0.1,1-0.3s0.4-0.4,0.4-0.7s-0.2-0.5-0.5-0.7c-0.1-0.1-0.6-0.3-1.3-0.6
		c-0.6-0.3-1.1-0.5-1.4-0.8c-0.5-0.4-0.7-0.9-0.7-1.6c0-0.7,0.3-1.3,0.8-1.7c0.5-0.4,1.3-0.7,2.2-0.7c1.1,0,2,0.2,2.6,0.7l-0.6,1.2
		c-0.6-0.4-1.3-0.5-1.9-0.5c-0.9,0-1.3,0.3-1.3,0.9c0,0.3,0.1,0.5,0.4,0.7c0.2,0.1,0.5,0.3,1,0.5c0.8,0.3,1.4,0.6,1.6,0.9
		C121.9,58.6,122.2,59.1,122.2,59.8z"/>
	<path class="st1" d="M130,62.1h-1.9v-11h1.9V62.1z"/>
	<path class="st1" d="M139.1,62.1h-1.8v-4.4c0-1.1-0.1-1.7-0.4-2c-0.2-0.2-0.6-0.4-1-0.4c-0.6,0-1.2,0.2-1.8,0.6v6.1h-1.8v-8h1.6
		v0.6c0.8-0.5,1.6-0.8,2.4-0.8c0.8,0,1.5,0.2,2,0.7c0.4,0.4,0.6,0.8,0.7,1.4c0.1,0.3,0.1,0.9,0.1,1.6V62.1z"/>
	<path class="st1" d="M146.5,59.8c0,0.8-0.3,1.4-0.9,1.8c-0.6,0.5-1.3,0.7-2.2,0.7c-0.7,0-1.4-0.1-2.1-0.4c-0.4-0.2-0.7-0.3-0.9-0.5
		l0.6-1.2c0.8,0.4,1.5,0.6,2.1,0.6c0.4,0,0.8-0.1,1-0.3s0.4-0.4,0.4-0.7s-0.2-0.5-0.5-0.7c-0.1-0.1-0.6-0.3-1.3-0.6
		c-0.6-0.3-1.1-0.5-1.4-0.8c-0.5-0.4-0.7-0.9-0.7-1.6c0-0.7,0.3-1.3,0.8-1.7c0.5-0.4,1.3-0.7,2.2-0.7c1.1,0,2,0.2,2.6,0.7l-0.6,1.2
		c-0.6-0.4-1.3-0.5-1.9-0.5c-0.9,0-1.3,0.3-1.3,0.9c0,0.3,0.1,0.5,0.4,0.7c0.2,0.1,0.5,0.3,1,0.5c0.8,0.3,1.4,0.6,1.6,0.9
		C146.3,58.6,146.5,59.1,146.5,59.8z"/>
	<path class="st1" d="M155.1,62.1h-1.6v-0.6c-0.7,0.5-1.5,0.8-2.4,0.8c-0.8,0-1.5-0.2-2-0.7c-0.4-0.4-0.6-0.8-0.7-1.4
		c-0.1-0.3-0.1-0.9-0.1-1.6v-4.5h1.8v4.4c0,0.5,0,0.9,0,1.1c0.1,0.5,0.2,0.8,0.4,1c0.2,0.2,0.5,0.3,1,0.3c0.5,0,1-0.2,1.8-0.6v-6.1
		h1.8V62.1z"/>
	<path class="st1" d="M162.3,54.1l-0.4,1.4c-0.2,0-0.3,0-0.5,0c-1,0-1.7,0.4-2.3,1.2v5.5h-1.8v-8h1.6v1c0.1-0.2,0.4-0.4,0.7-0.7
		c0.6-0.4,1.2-0.6,1.9-0.6C161.7,53.9,162,53.9,162.3,54.1z"/>
</g>
<g>
	<path class="st1" d="M169.4,62.1h-1.6v-0.6c-0.8,0.5-1.6,0.8-2.4,0.8c-0.8,0-1.4-0.2-1.9-0.7c-0.5-0.5-0.7-1.1-0.7-1.8
		c0-1.9,1.5-2.8,4.5-2.8h0.3v-0.3c0-0.5-0.1-0.8-0.3-1c-0.2-0.2-0.7-0.4-1.3-0.4c-0.7,0-1.4,0.2-2.2,0.6l-0.6-1.2
		c0.2-0.2,0.5-0.3,0.9-0.5c0.6-0.3,1.3-0.4,2.1-0.4c1.1,0,1.9,0.3,2.5,0.9c0.3,0.3,0.5,0.6,0.5,1.1c0.1,0.3,0.1,0.7,0.1,1.4V62.1z
		 M167.7,60.4v-2.1h-0.4c-1.3,0-2.1,0.2-2.5,0.6c-0.2,0.2-0.3,0.5-0.3,0.8c0,0.4,0.1,0.7,0.4,0.9c0.3,0.2,0.6,0.3,1,0.3
		C166.4,60.9,167,60.7,167.7,60.4z"/>
	<path class="st1" d="M178.1,62.1h-1.8v-4.4c0-1.1-0.1-1.7-0.4-2c-0.2-0.2-0.6-0.4-1-0.4c-0.6,0-1.2,0.2-1.8,0.6v6.1h-1.8v-8h1.6
		v0.6c0.8-0.5,1.6-0.8,2.4-0.8c0.8,0,1.5,0.2,2,0.7c0.4,0.4,0.6,0.8,0.7,1.4c0.1,0.3,0.1,0.9,0.1,1.6V62.1z"/>
	<path class="st1" d="M186.7,61.4c-0.1,0.1-0.4,0.3-0.8,0.5c-0.7,0.3-1.4,0.4-2.1,0.4c-1.2,0-2.2-0.4-2.9-1.1
		c-0.7-0.8-1.1-1.8-1.1-3c0-1.3,0.4-2.3,1.2-3.1c0.8-0.8,1.8-1.2,3-1.2c0.7,0,1.3,0.1,1.9,0.4c0.4,0.2,0.7,0.4,0.8,0.5l-0.7,1.1
		c-0.6-0.4-1.2-0.6-1.8-0.6c-0.7,0-1.4,0.3-1.8,0.8c-0.4,0.5-0.6,1.1-0.6,1.9c0,0.8,0.2,1.5,0.6,2c0.4,0.5,1,0.8,1.8,0.8
		c0.6,0,1.3-0.2,2-0.6L186.7,61.4z"/>
</g>
<g>
	<path class="st1" d="M194.8,58c0,0.1,0,0.2,0,0.4c0,0.1,0,0.2,0,0.3h-5.4c0,0.6,0.2,1.1,0.5,1.5c0.4,0.5,1,0.7,1.8,0.7
		c0.7,0,1.4-0.2,2.2-0.6l0.6,1.2c-0.8,0.6-1.8,0.9-3,0.9c-1.2,0-2.2-0.4-2.9-1.2c-0.7-0.8-1-1.7-1-3c0-1.3,0.4-2.3,1.1-3.1
		c0.7-0.8,1.6-1.2,2.7-1.2c1.1,0,1.9,0.4,2.5,1.1C194.5,55.7,194.8,56.7,194.8,58z M193.1,57.3c0-0.5-0.1-0.9-0.3-1.3
		c-0.3-0.5-0.8-0.8-1.4-0.8c-0.6,0-1,0.2-1.4,0.6c-0.4,0.4-0.6,0.9-0.7,1.5H193.1z"/>
	<path class="st1" d="M208,54.5c0,1-0.3,1.8-0.9,2.5c-0.5,0.5-1,0.8-1.7,0.9c-0.4,0.1-1.1,0.1-2,0.1h-0.8v4.2h-1.9v-11h2.9
		c0.9,0,1.6,0,2,0.1c0.6,0.1,1.2,0.4,1.5,0.8C207.7,52.7,208,53.5,208,54.5z M206.1,54.5c0-0.6-0.2-1-0.5-1.4c-0.3-0.3-1-0.4-2-0.4
		h-1v3.8h0.8c1.2,0,2-0.2,2.3-0.5C205.9,55.6,206.1,55.1,206.1,54.5z"/>
	<path class="st1" d="M211.7,62.1h-1.8V50.3h1.8V62.1z"/>
	<path class="st1" d="M220,62.1h-1.6v-0.6c-0.8,0.5-1.6,0.8-2.4,0.8c-0.8,0-1.4-0.2-1.9-0.7c-0.5-0.5-0.7-1.1-0.7-1.8
		c0-1.9,1.5-2.8,4.5-2.8h0.3v-0.3c0-0.5-0.1-0.8-0.3-1c-0.2-0.2-0.7-0.4-1.3-0.4c-0.7,0-1.4,0.2-2.2,0.6l-0.6-1.2
		c0.2-0.2,0.5-0.3,0.9-0.5c0.6-0.3,1.3-0.4,2.1-0.4c1.1,0,1.9,0.3,2.5,0.9c0.3,0.3,0.5,0.6,0.5,1.1c0.1,0.3,0.1,0.7,0.1,1.4V62.1z
		 M218.2,60.4v-2.1h-0.4c-1.3,0-2.1,0.2-2.5,0.6c-0.2,0.2-0.3,0.5-0.3,0.8c0,0.4,0.1,0.7,0.4,0.9c0.3,0.2,0.6,0.3,1,0.3
		C217,60.9,217.6,60.7,218.2,60.4z"/>
	<path class="st1" d="M228.7,62.1h-1.8v-4.4c0-1.1-0.1-1.7-0.4-2c-0.2-0.2-0.6-0.4-1-0.4c-0.6,0-1.2,0.2-1.8,0.6v6.1h-1.8v-8h1.6
		v0.6c0.8-0.5,1.6-0.8,2.4-0.8c0.8,0,1.5,0.2,2,0.7c0.4,0.4,0.6,0.8,0.7,1.4c0.1,0.3,0.1,0.9,0.1,1.6V62.1z"/>
	<path class="st1" d="M236.1,59.8c0,0.8-0.3,1.4-0.9,1.8c-0.6,0.5-1.3,0.7-2.2,0.7c-0.7,0-1.4-0.1-2.1-0.4c-0.4-0.2-0.7-0.3-0.9-0.5
		l0.6-1.2c0.8,0.4,1.5,0.6,2.1,0.6c0.4,0,0.8-0.1,1-0.3s0.4-0.4,0.4-0.7s-0.2-0.5-0.5-0.7c-0.1-0.1-0.6-0.3-1.3-0.6
		c-0.6-0.3-1.1-0.5-1.4-0.8c-0.5-0.4-0.7-0.9-0.7-1.6c0-0.7,0.3-1.3,0.8-1.7c0.5-0.4,1.3-0.7,2.2-0.7c1.1,0,2,0.2,2.6,0.7l-0.6,1.2
		c-0.6-0.4-1.3-0.5-1.9-0.5c-0.9,0-1.3,0.3-1.3,0.9c0,0.3,0.1,0.5,0.4,0.7c0.2,0.1,0.5,0.3,1,0.5c0.8,0.3,1.4,0.6,1.6,0.9
		C235.9,58.6,236.1,59.1,236.1,59.8z"/>
</g>
<path class="st0" d="M50.7,62.3c-0.8,0-1.4-0.6-1.4-1.4c0-0.8,0.6-1.4,1.4-1.4c0.8,0,1.4,0.6,1.4,1.4C52,61.7,51.4,62.3,50.7,62.3
	 M50.7,59.9c-0.6,0-1,0.5-1,1c0,0.6,0.5,1,1,1c0.6,0,1-0.4,1-1C51.7,60.3,51.2,59.9,50.7,59.9 M51,61.6l-0.2-0.4
	c-0.1-0.2-0.1-0.2-0.3-0.2h0v0.6h-0.3v-1.4h0.4c0.2,0,0.3,0,0.5,0.1c0.1,0.1,0.1,0.2,0.1,0.3c0,0.1-0.1,0.3-0.2,0.3
	c0.1,0,0.1,0.1,0.1,0.2l0.2,0.5H51z M50.8,60.5c-0.1,0-0.1,0-0.2,0h-0.1v0.4c0.1,0,0.2,0,0.3,0c0.1,0,0.2-0.1,0.2-0.2
	C50.9,60.5,50.8,60.5,50.8,60.5"/>
<rect x="15.5" y="48.4" class="st2" width="221" height="15.2"/>
</svg>
