<?xml version="1.0" encoding="utf-8"?>
<!-- Generator: Adobe Illustrator 25.4.6, SVG Export Plug-In . SVG Version: 6.00 Build 0)  -->
<svg version="1.1" id="Layer_1" xmlns="http://www.w3.org/2000/svg" xmlns:xlink="http://www.w3.org/1999/xlink" x="0px" y="0px"
	 viewBox="0 0 728 90" style="enable-background:new 0 0 728 90;" xml:space="preserve">
<style type="text/css">
	.st0{clip-path:url(#SVGID_00000176035311362274644020000013965446174813782435_);fill:#231F20;}
	.st1{clip-path:url(#SVGID_00000176035311362274644020000013965446174813782435_);fill:#00B2EE;}
</style>
<g>
	<defs>
		<rect id="SVGID_1_" x="87.9" y="16.5" width="78.1" height="26.5"/>
	</defs>
	<clipPath id="SVGID_00000050638006231035740880000003445643004875168660_">
		<use xlink:href="#SVGID_1_"  style="overflow:visible;"/>
	</clipPath>
	<path style="clip-path:url(#SVGID_00000050638006231035740880000003445643004875168660_);fill:#231F20;" d="M88.4,30.8h4.2
		c3.3,0,4,2.2,4,3.6c0,1.4-0.6,3.6-4,3.6h-2.1v4.5h-2V30.8z M90.5,36.3h2c0.9,0,2-0.5,2-1.9c0-1.5-0.9-1.9-2-1.9h-2.1V36.3z"/>
	<path style="clip-path:url(#SVGID_00000050638006231035740880000003445643004875168660_);fill:#231F20;" d="M97.8,34h1.7v1.6h0
		c0.2-0.9,1.3-1.9,2.5-1.9c0.4,0,0.5,0,0.7,0v1.8c-0.3,0-0.5-0.1-0.8-0.1c-1.3,0-2.3,1-2.3,2.9v4h-1.9V34z"/>
	<path style="clip-path:url(#SVGID_00000050638006231035740880000003445643004875168660_);fill:#231F20;" d="M103,38.2
		c0-2.6,1.5-4.4,4.3-4.4c2.7,0,4.3,1.9,4.3,4.4c0,2.6-1.5,4.4-4.3,4.4C104.5,42.7,103,40.8,103,38.2 M109.6,38.2c0-1.4-0.7-3-2.4-3
		c-1.7,0-2.4,1.5-2.4,3c0,1.5,0.7,3,2.4,3C108.9,41.2,109.6,39.7,109.6,38.2"/>
	<path style="clip-path:url(#SVGID_00000050638006231035740880000003445643004875168660_);fill:#231F20;" d="M111.7,34h1.5v-2.5h1.8
		V34h1.7v1.4H115v4.5c0,0.8,0.1,1.2,0.9,1.2c0.3,0,0.5,0,0.8-0.1v1.4c-0.4,0-0.8,0.1-1.2,0.1c-1.9,0-2.3-0.7-2.3-2.2v-5h-1.4V34z"/>
	<path style="clip-path:url(#SVGID_00000050638006231035740880000003445643004875168660_);fill:#231F20;" d="M119.3,38.7
		c0,1.3,0.7,2.5,2.3,2.5c1.1,0,1.7-0.5,2.1-1.4h1.8c-0.4,1.8-2,2.9-3.8,2.9c-2.6,0-4.1-1.8-4.1-4.4c0-2.4,1.6-4.4,4.1-4.4
		c2.7,0,4.3,2.4,4,4.9H119.3z M123.7,37.5c-0.1-1.2-0.9-2.2-2.1-2.2c-1.3,0-2.2,1-2.2,2.2H123.7z"/>
	<path style="clip-path:url(#SVGID_00000050638006231035740880000003445643004875168660_);fill:#231F20;" d="M132.5,36.8
		c-0.1-1-0.9-1.6-1.9-1.6c-1,0-2.3,0.5-2.3,3.1c0,1.4,0.6,2.9,2.2,2.9c1.1,0,1.8-0.7,2-1.9h1.9c-0.3,2.2-1.7,3.4-3.9,3.4
		c-2.6,0-4.1-1.9-4.1-4.3c0-2.5,1.4-4.5,4.2-4.5c2,0,3.6,1,3.8,3H132.5z"/>
	<path style="clip-path:url(#SVGID_00000050638006231035740880000003445643004875168660_);fill:#231F20;" d="M134.9,34h1.4v-2.5h1.9
		V34h1.7v1.4h-1.7v4.5c0,0.8,0.1,1.2,0.9,1.2c0.3,0,0.5,0,0.8-0.1v1.4c-0.4,0-0.8,0.1-1.2,0.1c-1.9,0-2.3-0.7-2.3-2.2v-5h-1.4V34z"
		/>
	<path style="clip-path:url(#SVGID_00000050638006231035740880000003445643004875168660_);fill:#231F20;" d="M142,30.8h1.9v1.8H142
		V30.8z M142,34h1.9v8.4H142V34z"/>
	<polygon style="clip-path:url(#SVGID_00000050638006231035740880000003445643004875168660_);fill:#231F20;" points="145.2,34 
		147.2,34 149.8,40.5 149.8,40.5 152.4,34 154.3,34 150.8,42.4 148.7,42.4 	"/>
	<path style="clip-path:url(#SVGID_00000050638006231035740880000003445643004875168660_);fill:#231F20;" d="M156.6,38.7
		c0,1.3,0.7,2.5,2.3,2.5c1.1,0,1.7-0.5,2.1-1.4h1.8c-0.4,1.8-2,2.9-3.8,2.9c-2.6,0-4.1-1.8-4.1-4.4c0-2.4,1.6-4.4,4.1-4.4
		c2.7,0,4.3,2.4,4,4.9H156.6z M160.9,37.5c-0.1-1.2-0.9-2.2-2.1-2.2c-1.3,0-2.2,1-2.2,2.2H160.9z"/>
	<path style="clip-path:url(#SVGID_00000050638006231035740880000003445643004875168660_);fill:#00B2EE;" d="M138.5,28.9
		c-1.2-4.6-4.9-8.3-9.5-9.4c-0.4-1.4-1.7-2.5-3.3-2.5s-2.9,1-3.3,2.5c-4.6,1.2-8.3,4.8-9.5,9.4l-0.1,0.5h2.8l0.1-0.3
		c1.1-3.4,3.7-6,7.1-6.9c0.6,1,1.7,1.7,3,1.7c1.3,0,2.4-0.7,3-1.7c3.3,1,6,3.6,7.1,6.9l0.1,0.3h2.8L138.5,28.9z"/>
	<path style="clip-path:url(#SVGID_00000050638006231035740880000003445643004875168660_);fill:#231F20;" d="M164.7,41
		c0.5,0,0.8,0.4,0.8,0.8c0,0.5-0.4,0.8-0.8,0.8s-0.8-0.4-0.8-0.8C163.9,41.4,164.3,41,164.7,41 M165.4,41.8c0-0.4-0.3-0.7-0.7-0.7
		s-0.7,0.3-0.7,0.7c0,0.4,0.3,0.7,0.7,0.7S165.4,42.2,165.4,41.8 M164.4,41.3h0.4c0.2,0,0.3,0.1,0.3,0.3c0,0.2-0.1,0.3-0.3,0.3
		l0.3,0.4H165l-0.3-0.4h-0.2v0.4h-0.1V41.3z M164.7,41.8c0.1,0,0.3,0,0.3-0.2c0-0.1-0.1-0.1-0.2-0.1h-0.2v0.3H164.7z"/>
</g>
</svg>
