<?xml version="1.0" encoding="utf-8"?>
<!-- Generator: Adobe Illustrator 25.4.1, SVG Export Plug-In . SVG Version: 6.00 Build 0)  -->
<svg version="1.1" id="Layer_1" xmlns="http://www.w3.org/2000/svg" xmlns:xlink="http://www.w3.org/1999/xlink" x="0px" y="0px"
	 viewBox="0 0 160 600" style="enable-background:new 0 0 160 600;" xml:space="preserve">
<style type="text/css">
	.st0{fill:#349946;}
</style>
<g>
	<path class="st0" d="M19.3,133.1l6.7,18h-4.1l-1.4-4h-6.7l-1.4,4h-4l6.8-18H19.3z M19.5,144.1l-2.3-6.6h-0.1l-2.3,6.6H19.5z"/>
	<path class="st0" d="M44.9,147.3c-0.1,0.7-0.4,1.4-0.8,2c-0.4,0.6-1,1.1-1.8,1.5c-0.8,0.4-1.9,0.6-3.2,0.6c-0.8,0-1.5-0.1-2.2-0.3
		c-0.7-0.2-1.3-0.5-1.9-1c-0.6-0.4-1-1-1.3-1.7c-0.3-0.7-0.5-1.5-0.5-2.5v-1.6h3.6v0.8c0,0.4,0,0.8,0.1,1.2s0.2,0.7,0.4,0.9
		s0.4,0.5,0.7,0.6c0.3,0.2,0.7,0.2,1.1,0.2c0.5,0,0.9-0.1,1.2-0.3c0.3-0.2,0.5-0.4,0.6-0.7c0.1-0.3,0.2-0.6,0.2-1c0-0.3,0-0.7,0-1
		v-12.1h3.9v12.3C45.1,145.9,45,146.6,44.9,147.3z"/>
	<path class="st0" d="M48.4,138.4c0.4-1.1,1-2.1,1.7-3s1.7-1.5,2.8-2s2.3-0.7,3.7-0.7c1.4,0,2.6,0.2,3.7,0.7c1.1,0.5,2,1.2,2.8,2
		c0.8,0.9,1.3,1.9,1.7,3c0.4,1.1,0.6,2.4,0.6,3.7c0,1.3-0.2,2.5-0.6,3.7s-1,2.1-1.7,3c-0.8,0.8-1.7,1.5-2.8,2
		c-1.1,0.5-2.3,0.7-3.7,0.7c-1.4,0-2.6-0.2-3.7-0.7c-1.1-0.5-2-1.1-2.8-2c-0.8-0.8-1.3-1.8-1.7-3s-0.6-2.4-0.6-3.7
		C47.7,140.8,47.9,139.5,48.4,138.4z M52,144.3c0.2,0.7,0.5,1.4,0.8,1.9c0.4,0.6,0.9,1,1.5,1.4c0.6,0.3,1.4,0.5,2.3,0.5
		c0.9,0,1.6-0.2,2.3-0.5c0.6-0.3,1.1-0.8,1.5-1.4c0.4-0.6,0.7-1.2,0.8-1.9c0.2-0.7,0.3-1.4,0.3-2.2c0-0.8-0.1-1.6-0.3-2.3
		c-0.2-0.7-0.5-1.4-0.8-2c-0.4-0.6-0.9-1-1.5-1.4c-0.6-0.3-1.4-0.5-2.3-0.5c-0.9,0-1.6,0.2-2.3,0.5c-0.6,0.3-1.1,0.8-1.5,1.4
		c-0.4,0.6-0.7,1.2-0.8,2c-0.2,0.7-0.3,1.5-0.3,2.3C51.7,142.9,51.8,143.6,52,144.3z"/>
	<path class="st0" d="M81.3,149.6c-1.4,1.2-3.2,1.8-5.6,1.8c-2.4,0-4.3-0.6-5.6-1.8c-1.3-1.2-2-3-2-5.4v-11.2H72v11.2
		c0,0.5,0,1,0.1,1.4c0.1,0.5,0.3,0.9,0.5,1.2c0.3,0.4,0.6,0.7,1.1,0.9c0.5,0.2,1.1,0.3,1.9,0.3c1.4,0,2.4-0.3,2.9-0.9
		c0.5-0.6,0.8-1.6,0.8-3v-11.2h3.9v11.2C83.3,146.7,82.6,148.5,81.3,149.6z"/>
	<path class="st0" d="M96.4,133.1c0.8,0,1.5,0.1,2.2,0.4c0.6,0.3,1.2,0.6,1.7,1.1s0.8,1,1.1,1.6c0.2,0.6,0.4,1.2,0.4,1.9
		c0,1.1-0.2,2-0.7,2.7c-0.4,0.8-1.2,1.4-2.2,1.8v0.1c0.5,0.1,0.9,0.3,1.2,0.6c0.3,0.3,0.6,0.6,0.8,1c0.2,0.4,0.3,0.8,0.4,1.2
		s0.2,0.9,0.2,1.4c0,0.3,0,0.6,0.1,1c0,0.4,0,0.8,0.1,1.2s0.1,0.8,0.2,1.1c0.1,0.4,0.2,0.7,0.4,0.9h-3.9c-0.2-0.6-0.4-1.2-0.4-2
		c0-0.8-0.1-1.5-0.2-2.3c-0.1-0.9-0.4-1.6-0.9-2.1c-0.4-0.4-1.1-0.7-2.1-0.7h-3.9v7h-3.9v-18H96.4z M95,141.2c0.9,0,1.6-0.2,2-0.6
		c0.5-0.4,0.7-1.1,0.7-2c0-0.9-0.2-1.5-0.7-1.9c-0.5-0.4-1.1-0.6-2-0.6h-4.3v5.1H95z"/>
	<path class="st0" d="M108.8,133.1l7.5,12h0.1v-12h3.7v18h-3.9l-7.5-12h0v12h-3.7v-18H108.8z"/>
	<path class="st0" d="M136.9,133.1v3.3h-9.5v3.8h8.7v3.1h-8.7v4.4h9.7v3.3h-13.6v-18H136.9z"/>
	<path class="st0" d="M137.9,133.1h4.4l4.2,7.1l4.2-7.1h4.4l-6.7,11.1v6.9h-3.9v-7L137.9,133.1z"/>
</g>
<g>
	<path class="st0" d="M10,168.3c0.3-0.8,0.8-1.6,1.4-2.2c0.6-0.6,1.3-1.1,2.1-1.4c0.8-0.3,1.7-0.5,2.8-0.5s1.9,0.2,2.8,0.5
		c0.8,0.3,1.5,0.8,2.1,1.4c0.6,0.6,1,1.3,1.4,2.2c0.3,0.8,0.5,1.8,0.5,2.8c0,1-0.2,2-0.5,2.8c-0.3,0.8-0.8,1.6-1.4,2.1
		c-0.6,0.6-1.3,1.1-2.1,1.4c-0.8,0.3-1.8,0.5-2.8,0.5s-1.9-0.2-2.8-0.5c-0.8-0.3-1.5-0.8-2.1-1.4c-0.6-0.6-1-1.3-1.4-2.1
		s-0.5-1.8-0.5-2.8C9.6,170.1,9.7,169.1,10,168.3z M13.3,172.7c0.1,0.5,0.3,0.9,0.5,1.3c0.2,0.4,0.6,0.7,1,0.9
		c0.4,0.2,0.9,0.4,1.5,0.4s1.1-0.1,1.5-0.4c0.4-0.2,0.7-0.5,1-0.9c0.2-0.4,0.4-0.8,0.5-1.3c0.1-0.5,0.2-1,0.2-1.5s-0.1-1-0.2-1.5
		s-0.3-0.9-0.5-1.3c-0.2-0.4-0.6-0.7-1-0.9c-0.4-0.2-0.9-0.4-1.5-0.4s-1.1,0.1-1.5,0.4c-0.4,0.2-0.7,0.6-1,0.9
		c-0.2,0.4-0.4,0.8-0.5,1.3s-0.2,1-0.2,1.5S13.2,172.2,13.3,172.7z"/>
	<path class="st0" d="M24,167v-2.4h2.1v-1c0-1.2,0.4-2.1,1.1-2.8c0.7-0.7,1.8-1.1,3.3-1.1c0.3,0,0.6,0,1,0c0.3,0,0.6,0,0.9,0.1v2.7
		c-0.4-0.1-0.9-0.1-1.3-0.1c-0.5,0-0.8,0.1-1,0.3c-0.2,0.2-0.3,0.6-0.3,1.1v0.8h2.5v2.4h-2.5v10.6h-3.6V167H24z"/>
	<path class="st0" d="M40.5,168.6c0.1-0.8,0.3-1.5,0.6-2.1s0.8-1,1.4-1.3s1.2-0.6,1.9-0.7c0.7-0.1,1.4-0.2,2.1-0.2
		c0.7,0,1.3,0,2,0.1c0.7,0.1,1.3,0.3,1.8,0.5s1,0.6,1.4,1.1c0.4,0.5,0.5,1.1,0.5,1.9v6.8c0,0.6,0,1.1,0.1,1.7
		c0.1,0.5,0.2,0.9,0.4,1.2h-3.6c-0.1-0.2-0.1-0.4-0.2-0.6c0-0.2-0.1-0.4-0.1-0.6c-0.6,0.6-1.2,1-2,1.2c-0.8,0.2-1.6,0.4-2.4,0.4
		c-0.6,0-1.2-0.1-1.7-0.2c-0.5-0.2-1-0.4-1.4-0.7c-0.4-0.3-0.7-0.7-0.9-1.2c-0.2-0.5-0.3-1.1-0.3-1.7c0-0.7,0.1-1.3,0.4-1.8
		c0.3-0.5,0.6-0.9,1-1.1c0.4-0.3,0.9-0.5,1.4-0.6c0.5-0.1,1.1-0.3,1.6-0.3c0.5-0.1,1.1-0.2,1.6-0.2c0.5-0.1,1-0.1,1.4-0.2
		s0.7-0.2,1-0.4c0.2-0.2,0.3-0.5,0.3-0.8c0-0.4-0.1-0.7-0.2-0.9c-0.1-0.2-0.3-0.4-0.5-0.5c-0.2-0.1-0.5-0.2-0.7-0.3
		c-0.3,0-0.6-0.1-0.9-0.1c-0.7,0-1.3,0.2-1.7,0.5c-0.4,0.3-0.6,0.8-0.7,1.5H40.5z M48.8,171.3c-0.2,0.1-0.3,0.2-0.6,0.3
		c-0.2,0.1-0.5,0.1-0.7,0.2c-0.3,0.1-0.5,0.1-0.8,0.1c-0.3,0-0.6,0.1-0.9,0.1c-0.3,0.1-0.5,0.1-0.8,0.2c-0.3,0.1-0.5,0.2-0.7,0.3
		c-0.2,0.1-0.3,0.3-0.5,0.5c-0.1,0.2-0.2,0.5-0.2,0.8c0,0.3,0.1,0.6,0.2,0.8c0.1,0.2,0.3,0.4,0.5,0.5c0.2,0.1,0.4,0.2,0.7,0.3
		s0.5,0.1,0.8,0.1c0.7,0,1.2-0.1,1.6-0.4c0.4-0.2,0.7-0.5,0.9-0.8c0.2-0.3,0.3-0.7,0.3-1c0-0.3,0.1-0.6,0.1-0.8V171.3z"/>
</g>
<g>
	<path class="st0" d="M8.9,189.6v-3.3h14.7v3.3h-5.4v14.6h-3.9v-14.6H8.9z"/>
	<path class="st0" d="M29.6,186.3v6.9h7.3v-6.9h3.9v18h-3.9v-7.7h-7.3v7.7h-3.9v-18H29.6z"/>
	<path class="st0" d="M44.2,191.6c0.4-1.1,1-2.1,1.7-3s1.7-1.5,2.8-2s2.3-0.7,3.7-0.7c1.4,0,2.6,0.2,3.7,0.7c1.1,0.5,2,1.2,2.8,2
		s1.3,1.9,1.7,3c0.4,1.1,0.6,2.4,0.6,3.7c0,1.3-0.2,2.5-0.6,3.7s-1,2.1-1.7,3c-0.8,0.8-1.7,1.5-2.8,2c-1.1,0.5-2.3,0.7-3.7,0.7
		c-1.4,0-2.6-0.2-3.7-0.7c-1.1-0.5-2-1.1-2.8-2c-0.8-0.8-1.3-1.8-1.7-3s-0.6-2.4-0.6-3.7C43.5,194,43.7,192.7,44.2,191.6z
		 M47.8,197.5c0.2,0.7,0.5,1.4,0.8,1.9c0.4,0.6,0.9,1,1.5,1.4c0.6,0.3,1.4,0.5,2.3,0.5c0.9,0,1.6-0.2,2.3-0.5
		c0.6-0.3,1.1-0.8,1.5-1.4c0.4-0.6,0.7-1.2,0.8-1.9c0.2-0.7,0.3-1.4,0.3-2.2c0-0.8-0.1-1.6-0.3-2.3c-0.2-0.7-0.5-1.4-0.8-2
		c-0.4-0.6-0.9-1-1.5-1.4c-0.6-0.3-1.4-0.5-2.3-0.5c-0.9,0-1.6,0.2-2.3,0.5c-0.6,0.3-1.1,0.8-1.5,1.4c-0.4,0.6-0.7,1.2-0.8,2
		c-0.2,0.7-0.3,1.5-0.3,2.3C47.5,196.1,47.6,196.8,47.8,197.5z"/>
	<path class="st0" d="M77.1,202.9c-1.4,1.2-3.2,1.8-5.6,1.8c-2.4,0-4.3-0.6-5.6-1.8c-1.3-1.2-2-3-2-5.4v-11.2h3.9v11.2
		c0,0.5,0,1,0.1,1.4c0.1,0.5,0.3,0.9,0.5,1.2c0.3,0.4,0.6,0.7,1.1,0.9c0.5,0.2,1.1,0.3,1.9,0.3c1.4,0,2.4-0.3,2.9-0.9
		c0.5-0.6,0.8-1.6,0.8-3v-11.2h3.9v11.2C79.1,199.9,78.4,201.7,77.1,202.9z"/>
	<path class="st0" d="M85.5,199.8c0.2,0.4,0.5,0.8,0.9,1c0.4,0.3,0.8,0.5,1.3,0.6c0.5,0.1,1,0.2,1.5,0.2c0.4,0,0.7,0,1.1-0.1
		s0.8-0.2,1.1-0.3c0.4-0.2,0.6-0.4,0.9-0.7c0.2-0.3,0.4-0.7,0.4-1.1c0-0.5-0.2-0.9-0.5-1.2c-0.3-0.3-0.7-0.6-1.2-0.8
		c-0.5-0.2-1.1-0.4-1.7-0.5c-0.6-0.2-1.3-0.3-1.9-0.5c-0.7-0.2-1.3-0.4-2-0.6c-0.6-0.2-1.2-0.6-1.7-0.9c-0.5-0.4-0.9-0.9-1.2-1.4
		c-0.3-0.6-0.5-1.3-0.5-2.1c0-0.9,0.2-1.7,0.6-2.4c0.4-0.7,0.9-1.2,1.5-1.7c0.6-0.5,1.4-0.8,2.2-1s1.6-0.3,2.4-0.3
		c0.9,0,1.8,0.1,2.7,0.3c0.9,0.2,1.6,0.5,2.3,1c0.7,0.5,1.2,1.1,1.6,1.8c0.4,0.7,0.6,1.6,0.6,2.7h-3.8c0-0.5-0.1-1-0.3-1.3
		s-0.4-0.6-0.8-0.8s-0.7-0.3-1.1-0.4c-0.4-0.1-0.9-0.1-1.3-0.1c-0.3,0-0.6,0-1,0.1s-0.6,0.2-0.9,0.4c-0.3,0.2-0.5,0.4-0.6,0.6
		s-0.3,0.6-0.3,1c0,0.4,0.1,0.6,0.2,0.9c0.1,0.2,0.4,0.4,0.8,0.6c0.4,0.2,0.9,0.4,1.6,0.6s1.6,0.4,2.7,0.7c0.3,0.1,0.8,0.2,1.4,0.4
		c0.6,0.2,1.2,0.5,1.8,0.8c0.6,0.4,1.1,0.9,1.5,1.5c0.4,0.6,0.6,1.5,0.6,2.5c0,0.8-0.2,1.6-0.5,2.3s-0.8,1.3-1.4,1.8
		c-0.6,0.5-1.4,0.9-2.3,1.2c-0.9,0.3-2,0.4-3.2,0.4c-1,0-1.9-0.1-2.9-0.4c-0.9-0.2-1.8-0.6-2.5-1.1c-0.7-0.5-1.3-1.2-1.7-2
		s-0.6-1.8-0.6-2.9h3.8C85.2,198.9,85.3,199.4,85.5,199.8z"/>
	<path class="st0" d="M107.8,186.3l6.7,18h-4.1l-1.4-4h-6.7l-1.4,4h-4l6.8-18H107.8z M108,197.3l-2.3-6.6h0l-2.3,6.6H108z"/>
	<path class="st0" d="M120,186.3l7.5,12h0.1v-12h3.7v18h-3.9l-7.5-12h0v12h-3.7v-18H120z"/>
	<path class="st0" d="M142.4,186.3c1.2,0,2.2,0.2,3.2,0.6c1,0.4,1.9,0.9,2.6,1.7c0.7,0.7,1.3,1.7,1.7,2.8c0.4,1.1,0.6,2.4,0.6,3.9
		c0,1.3-0.2,2.5-0.5,3.6c-0.3,1.1-0.8,2.1-1.5,2.9s-1.5,1.4-2.5,1.9s-2.2,0.7-3.6,0.7h-7.7v-18H142.4z M142.2,200.9
		c0.6,0,1.1-0.1,1.7-0.3c0.5-0.2,1-0.5,1.4-0.9c0.4-0.4,0.8-1,1-1.7c0.3-0.7,0.4-1.5,0.4-2.5c0-0.9-0.1-1.7-0.3-2.5
		c-0.2-0.7-0.5-1.4-0.9-1.9s-0.9-0.9-1.6-1.2c-0.7-0.3-1.5-0.4-2.5-0.4h-2.8v11.3H142.2z"/>
</g>
<g>
	<path class="st0" d="M13.3,226.4c0.2,0.4,0.5,0.8,0.9,1c0.4,0.3,0.8,0.5,1.3,0.6c0.5,0.1,1,0.2,1.5,0.2c0.4,0,0.7,0,1.1-0.1
		s0.8-0.2,1.1-0.3c0.4-0.2,0.6-0.4,0.9-0.7c0.2-0.3,0.4-0.7,0.4-1.1c0-0.5-0.2-0.9-0.5-1.2c-0.3-0.3-0.7-0.6-1.2-0.8
		c-0.5-0.2-1.1-0.4-1.7-0.5c-0.6-0.2-1.3-0.3-1.9-0.5c-0.7-0.2-1.3-0.4-2-0.6c-0.6-0.2-1.2-0.6-1.7-0.9c-0.5-0.4-0.9-0.9-1.2-1.4
		c-0.3-0.6-0.5-1.3-0.5-2.1c0-0.9,0.2-1.7,0.6-2.4c0.4-0.7,0.9-1.2,1.5-1.7c0.6-0.5,1.4-0.8,2.2-1s1.6-0.3,2.4-0.3
		c0.9,0,1.8,0.1,2.7,0.3c0.9,0.2,1.6,0.5,2.3,1c0.7,0.5,1.2,1.1,1.6,1.8c0.4,0.7,0.6,1.6,0.6,2.7h-3.8c0-0.5-0.1-1-0.3-1.3
		c-0.2-0.4-0.4-0.6-0.8-0.8c-0.3-0.2-0.7-0.3-1.1-0.4c-0.4-0.1-0.9-0.1-1.3-0.1c-0.3,0-0.6,0-1,0.1c-0.3,0.1-0.6,0.2-0.9,0.4
		s-0.5,0.4-0.6,0.6s-0.3,0.6-0.3,1c0,0.4,0.1,0.6,0.2,0.9s0.4,0.4,0.8,0.6s0.9,0.4,1.6,0.6c0.7,0.2,1.6,0.4,2.7,0.7
		c0.3,0.1,0.8,0.2,1.4,0.4c0.6,0.2,1.2,0.5,1.8,0.8c0.6,0.4,1.1,0.9,1.5,1.5c0.4,0.6,0.6,1.5,0.6,2.5c0,0.8-0.2,1.6-0.5,2.3
		c-0.3,0.7-0.8,1.3-1.4,1.8c-0.6,0.5-1.4,0.9-2.3,1.2c-0.9,0.3-2,0.4-3.2,0.4c-1,0-1.9-0.1-2.9-0.4c-0.9-0.2-1.8-0.6-2.5-1.1
		c-0.7-0.5-1.3-1.2-1.7-2c-0.4-0.8-0.6-1.8-0.6-2.9H13C13,225.5,13.1,226,13.3,226.4z"/>
	<path class="st0" d="M32.2,212.9l4.2,12.3h0.1l4-12.3H46v18h-3.7v-12.7h-0.1l-4.4,12.7h-3l-4.4-12.6h-0.1v12.6h-3.7v-18H32.2z"/>
	<path class="st0" d="M53.4,212.9v18h-3.9v-18H53.4z"/>
	<path class="st0" d="M60.8,212.9v14.6h8.8v3.3H56.9v-18H60.8z"/>
	<path class="st0" d="M85.2,212.9v3.3h-9.5v3.8h8.7v3.1h-8.7v4.4h9.7v3.3H71.8v-18H85.2z"/>
	<path class="st0" d="M91.1,226.4c0.2,0.4,0.5,0.8,0.9,1c0.4,0.3,0.8,0.5,1.3,0.6c0.5,0.1,1,0.2,1.5,0.2c0.4,0,0.7,0,1.1-0.1
		s0.8-0.2,1.1-0.3c0.4-0.2,0.6-0.4,0.9-0.7c0.2-0.3,0.4-0.7,0.4-1.1c0-0.5-0.2-0.9-0.5-1.2c-0.3-0.3-0.7-0.6-1.2-0.8
		c-0.5-0.2-1.1-0.4-1.7-0.5c-0.6-0.2-1.3-0.3-1.9-0.5c-0.7-0.2-1.3-0.4-2-0.6c-0.6-0.2-1.2-0.6-1.7-0.9c-0.5-0.4-0.9-0.9-1.2-1.4
		c-0.3-0.6-0.5-1.3-0.5-2.1c0-0.9,0.2-1.7,0.6-2.4c0.4-0.7,0.9-1.2,1.5-1.7c0.6-0.5,1.4-0.8,2.2-1s1.6-0.3,2.4-0.3
		c0.9,0,1.8,0.1,2.7,0.3c0.9,0.2,1.6,0.5,2.3,1c0.7,0.5,1.2,1.1,1.6,1.8c0.4,0.7,0.6,1.6,0.6,2.7h-3.8c0-0.5-0.1-1-0.3-1.3
		s-0.4-0.6-0.8-0.8s-0.7-0.3-1.1-0.4c-0.4-0.1-0.9-0.1-1.3-0.1c-0.3,0-0.6,0-1,0.1s-0.6,0.2-0.9,0.4c-0.3,0.2-0.5,0.4-0.6,0.6
		s-0.3,0.6-0.3,1c0,0.4,0.1,0.6,0.2,0.9c0.1,0.2,0.4,0.4,0.8,0.6c0.4,0.2,0.9,0.4,1.6,0.6s1.6,0.4,2.7,0.7c0.3,0.1,0.8,0.2,1.4,0.4
		c0.6,0.2,1.2,0.5,1.8,0.8c0.6,0.4,1.1,0.9,1.5,1.5c0.4,0.6,0.6,1.5,0.6,2.5c0,0.8-0.2,1.6-0.5,2.3s-0.8,1.3-1.4,1.8
		c-0.6,0.5-1.4,0.9-2.3,1.2c-0.9,0.3-2,0.4-3.2,0.4c-1,0-1.9-0.1-2.9-0.4c-0.9-0.2-1.8-0.6-2.5-1.1c-0.7-0.5-1.3-1.2-1.7-2
		s-0.6-1.8-0.6-2.9h3.8C90.8,225.5,90.9,226,91.1,226.4z"/>
</g>
<g>
	<path d="M13.5,240.5v6.5h0.1c0.4-0.7,1-1.2,1.8-1.5c0.7-0.3,1.5-0.5,2.3-0.5c0.7,0,1.3,0.1,1.9,0.4c0.6,0.3,1.2,0.7,1.7,1.2
		c0.5,0.6,0.9,1.3,1.2,2.1c0.3,0.9,0.5,1.9,0.5,3.1c0,1.2-0.2,2.2-0.5,3.1c-0.3,0.9-0.7,1.6-1.2,2.1c-0.5,0.6-1.1,1-1.7,1.2
		c-0.6,0.3-1.3,0.4-1.9,0.4c-1,0-1.8-0.2-2.6-0.5c-0.8-0.3-1.3-0.8-1.7-1.5h-0.1v1.7H10v-18H13.5z M19.3,250.3
		c-0.1-0.5-0.3-0.9-0.6-1.3c-0.3-0.4-0.6-0.7-0.9-0.9c-0.4-0.2-0.8-0.3-1.4-0.3c-0.5,0-1,0.1-1.4,0.3c-0.4,0.2-0.7,0.5-1,0.9
		c-0.3,0.4-0.4,0.8-0.6,1.3s-0.2,1-0.2,1.6c0,0.5,0.1,1.1,0.2,1.6s0.3,0.9,0.6,1.3c0.3,0.4,0.6,0.7,1,0.9c0.4,0.2,0.8,0.3,1.4,0.3
		c0.5,0,1-0.1,1.4-0.3c0.4-0.2,0.7-0.5,0.9-0.9c0.3-0.4,0.4-0.8,0.6-1.3s0.2-1,0.2-1.6C19.5,251.4,19.4,250.8,19.3,250.3z"/>
	<path d="M29.1,255.3c0.5,0.5,1.3,0.8,2.3,0.8c0.7,0,1.3-0.2,1.9-0.5c0.5-0.4,0.8-0.7,1-1.1h3.1c-0.5,1.6-1.3,2.7-2.3,3.3
		c-1,0.7-2.3,1-3.8,1c-1,0-1.9-0.2-2.8-0.5c-0.8-0.3-1.5-0.8-2.1-1.4c-0.6-0.6-1-1.3-1.3-2.2c-0.3-0.8-0.5-1.8-0.5-2.8
		c0-1,0.2-1.9,0.5-2.7c0.3-0.8,0.8-1.6,1.4-2.2c0.6-0.6,1.3-1.1,2.1-1.4c0.8-0.4,1.7-0.5,2.7-0.5c1.1,0,2.1,0.2,2.9,0.6
		c0.8,0.4,1.5,1,2,1.7c0.5,0.7,0.9,1.5,1.1,2.5c0.2,0.9,0.3,1.9,0.3,2.9h-9.4C28.3,253.9,28.6,254.8,29.1,255.3z M33.2,248.5
		c-0.4-0.5-1.1-0.7-1.9-0.7c-0.6,0-1,0.1-1.4,0.3c-0.4,0.2-0.7,0.4-0.9,0.7c-0.2,0.3-0.4,0.6-0.5,0.9c-0.1,0.3-0.1,0.6-0.2,0.9h5.8
		C33.9,249.6,33.6,248.9,33.2,248.5z"/>
	<path d="M52,259.4c-0.1,0.7-0.4,1.3-0.9,1.9c-0.5,0.6-1.1,1.1-2,1.5c-0.9,0.4-2.1,0.6-3.6,0.6c-0.6,0-1.3-0.1-1.9-0.2
		c-0.7-0.2-1.3-0.4-1.8-0.7c-0.5-0.3-1-0.8-1.4-1.3c-0.4-0.5-0.6-1.2-0.6-1.9h3.5c0.2,0.7,0.5,1.1,1,1.4c0.5,0.3,1,0.4,1.7,0.4
		c1,0,1.7-0.3,2.2-0.9c0.5-0.6,0.7-1.4,0.7-2.3V256h-0.1c-0.4,0.7-0.9,1.2-1.6,1.5c-0.7,0.3-1.5,0.5-2.2,0.5c-1,0-1.8-0.2-2.5-0.5
		c-0.7-0.3-1.3-0.8-1.7-1.4c-0.5-0.6-0.8-1.3-1-2.1c-0.2-0.8-0.3-1.6-0.3-2.5c0-0.8,0.1-1.6,0.4-2.4c0.2-0.8,0.6-1.5,1.1-2.1
		c0.5-0.6,1.1-1.1,1.7-1.4c0.7-0.4,1.5-0.5,2.4-0.5c0.9,0,1.6,0.2,2.3,0.5c0.6,0.3,1.2,0.9,1.6,1.6h0.1v-1.7h3.4v12.2
		C52.2,258.1,52.2,258.7,52,259.4z M47.1,255c0.4-0.2,0.7-0.5,1-0.8s0.4-0.7,0.6-1.1c0.1-0.4,0.2-0.9,0.2-1.3c0-0.5-0.1-1-0.2-1.5
		c-0.1-0.5-0.3-0.9-0.5-1.3c-0.2-0.4-0.5-0.7-0.9-0.9c-0.4-0.2-0.9-0.3-1.5-0.3c-0.5,0-0.9,0.1-1.3,0.3c-0.4,0.2-0.7,0.5-0.9,0.8
		c-0.2,0.3-0.4,0.7-0.5,1.2c-0.1,0.4-0.2,0.9-0.2,1.4c0,0.5,0,0.9,0.1,1.4c0.1,0.5,0.3,0.9,0.5,1.2s0.5,0.7,0.9,0.9
		c0.4,0.2,0.8,0.4,1.4,0.4C46.3,255.3,46.8,255.2,47.1,255z"/>
	<path d="M55.2,243.4v-2.9h3.6v2.9H55.2z M58.8,245.4v13h-3.6v-13H58.8z"/>
	<path d="M65,245.4v1.8h0.1c0.5-0.8,1-1.3,1.8-1.6c0.7-0.3,1.5-0.5,2.2-0.5c1,0,1.7,0.1,2.3,0.4c0.6,0.3,1.1,0.6,1.4,1.1
		c0.4,0.5,0.6,1,0.7,1.7c0.1,0.7,0.2,1.4,0.2,2.2v8h-3.6v-7.3c0-1.1-0.2-1.9-0.5-2.4c-0.3-0.5-0.9-0.8-1.8-0.8c-1,0-1.7,0.3-2.1,0.9
		c-0.4,0.6-0.7,1.5-0.7,2.9v6.8h-3.6v-13H65z"/>
	<path d="M79.5,255.2c0.2,0.3,0.4,0.5,0.6,0.7c0.3,0.2,0.5,0.3,0.9,0.4c0.3,0.1,0.7,0.1,1,0.1c0.3,0,0.5,0,0.8-0.1
		c0.3-0.1,0.5-0.2,0.8-0.3c0.2-0.1,0.4-0.3,0.6-0.5c0.2-0.2,0.2-0.5,0.2-0.8c0-0.5-0.4-0.9-1.1-1.2c-0.7-0.3-1.7-0.5-3-0.8
		c-0.5-0.1-1-0.3-1.5-0.4c-0.5-0.2-0.9-0.4-1.3-0.6c-0.4-0.3-0.7-0.6-0.9-1c-0.2-0.4-0.4-0.9-0.4-1.4c0-0.8,0.2-1.5,0.5-2.1
		c0.3-0.5,0.8-1,1.3-1.3c0.5-0.3,1.1-0.5,1.8-0.7c0.7-0.1,1.4-0.2,2.1-0.2s1.4,0.1,2,0.2c0.7,0.1,1.3,0.4,1.8,0.7
		c0.5,0.3,1,0.7,1.3,1.3c0.3,0.5,0.5,1.2,0.6,2h-3.4c-0.1-0.7-0.3-1.2-0.8-1.4c-0.5-0.2-1-0.4-1.7-0.4c-0.2,0-0.4,0-0.7,0
		c-0.2,0-0.4,0.1-0.6,0.2c-0.2,0.1-0.4,0.2-0.5,0.4c-0.1,0.2-0.2,0.4-0.2,0.6c0,0.3,0.1,0.6,0.4,0.8c0.2,0.2,0.5,0.4,0.9,0.5
		s0.8,0.2,1.3,0.3s1,0.2,1.5,0.3c0.5,0.1,1,0.3,1.5,0.4c0.5,0.2,0.9,0.4,1.3,0.7c0.4,0.3,0.7,0.6,0.9,1c0.2,0.4,0.4,0.9,0.4,1.5
		c0,0.9-0.2,1.6-0.5,2.1c-0.3,0.6-0.8,1-1.3,1.4c-0.6,0.4-1.2,0.6-1.9,0.7c-0.7,0.1-1.4,0.2-2.2,0.2c-0.8,0-1.5-0.1-2.2-0.2
		c-0.7-0.2-1.4-0.4-1.9-0.8s-1-0.8-1.4-1.4c-0.4-0.6-0.6-1.3-0.6-2.2h3.4C79.3,254.6,79.4,254.9,79.5,255.2z"/>
	<path d="M108.2,258.4l-2.3-8.7h-0.1l-2.2,8.7h-3.7l-4.1-13h3.8l2.4,8.8h0l2.2-8.8h3.5l2.2,8.8h0l2.4-8.8h3.7l-4.1,13H108.2z"/>
	<path d="M117.6,243.4v-2.9h3.6v2.9H117.6z M121.1,245.4v13h-3.6v-13H121.1z"/>
	<path d="M131.1,245.4v2.4h-2.6v6.4c0,0.6,0.1,1,0.3,1.2s0.6,0.3,1.2,0.3c0.2,0,0.4,0,0.6,0s0.4,0,0.5-0.1v2.8
		c-0.3,0.1-0.6,0.1-1,0.1c-0.4,0-0.7,0-1.1,0c-0.6,0-1.1,0-1.6-0.1c-0.5-0.1-0.9-0.2-1.3-0.4c-0.4-0.2-0.7-0.5-0.9-0.9
		c-0.2-0.4-0.3-0.9-0.3-1.6v-7.7h-2.2v-2.4h2.2v-3.9h3.6v3.9H131.1z"/>
	<path d="M136.4,240.5v6.8h0.1c0.5-0.8,1-1.3,1.7-1.6c0.7-0.3,1.4-0.5,2.1-0.5c1,0,1.7,0.1,2.4,0.4c0.6,0.3,1.1,0.6,1.4,1.1
		c0.4,0.5,0.6,1,0.7,1.7c0.1,0.7,0.2,1.4,0.2,2.2v8h-3.6v-7.3c0-1.1-0.2-1.9-0.5-2.4c-0.3-0.5-0.9-0.8-1.8-0.8c-1,0-1.7,0.3-2.1,0.9
		c-0.4,0.6-0.7,1.5-0.7,2.9v6.8h-3.6v-18H136.4z"/>
</g>
<g>
	<path d="M9.8,277c0.1-0.8,0.3-1.5,0.6-2.1s0.8-1,1.4-1.3s1.2-0.6,1.9-0.7c0.7-0.1,1.4-0.2,2.1-0.2c0.7,0,1.3,0,2,0.1
		c0.7,0.1,1.3,0.3,1.8,0.5s1,0.6,1.4,1.1c0.4,0.5,0.5,1.1,0.5,1.9v6.8c0,0.6,0,1.1,0.1,1.7c0.1,0.5,0.2,0.9,0.4,1.2h-3.6
		c-0.1-0.2-0.1-0.4-0.2-0.6c0-0.2-0.1-0.4-0.1-0.6c-0.6,0.6-1.2,1-2,1.2c-0.8,0.2-1.6,0.4-2.4,0.4c-0.6,0-1.2-0.1-1.7-0.2
		c-0.5-0.2-1-0.4-1.4-0.7c-0.4-0.3-0.7-0.7-0.9-1.2c-0.2-0.5-0.3-1.1-0.3-1.7c0-0.7,0.1-1.3,0.4-1.8c0.3-0.5,0.6-0.9,1-1.1
		c0.4-0.3,0.9-0.5,1.4-0.6c0.5-0.1,1.1-0.3,1.6-0.3c0.5-0.1,1.1-0.2,1.6-0.2c0.5-0.1,1-0.1,1.4-0.2s0.7-0.2,1-0.4
		c0.2-0.2,0.3-0.5,0.3-0.8c0-0.4-0.1-0.7-0.2-0.9c-0.1-0.2-0.3-0.4-0.5-0.5c-0.2-0.1-0.5-0.2-0.7-0.3c-0.3,0-0.6-0.1-0.9-0.1
		c-0.7,0-1.3,0.2-1.7,0.5c-0.4,0.3-0.6,0.8-0.7,1.5H9.8z M18.1,279.6c-0.2,0.1-0.3,0.2-0.6,0.3c-0.2,0.1-0.5,0.1-0.7,0.2
		c-0.3,0.1-0.5,0.1-0.8,0.1c-0.3,0-0.6,0.1-0.9,0.1c-0.3,0.1-0.5,0.1-0.8,0.2c-0.3,0.1-0.5,0.2-0.7,0.3c-0.2,0.1-0.3,0.3-0.5,0.5
		c-0.1,0.2-0.2,0.5-0.2,0.8c0,0.3,0.1,0.6,0.2,0.8c0.1,0.2,0.3,0.4,0.5,0.5c0.2,0.1,0.4,0.2,0.7,0.3s0.5,0.1,0.8,0.1
		c0.7,0,1.2-0.1,1.6-0.4c0.4-0.2,0.7-0.5,0.9-0.8c0.2-0.3,0.3-0.7,0.3-1c0-0.3,0.1-0.6,0.1-0.8V279.6z"/>
	<path d="M34.4,282.8c0.2,0.3,0.4,0.5,0.6,0.7c0.3,0.2,0.5,0.3,0.9,0.4c0.3,0.1,0.7,0.1,1,0.1c0.3,0,0.5,0,0.8-0.1
		c0.3-0.1,0.5-0.2,0.8-0.3c0.2-0.1,0.4-0.3,0.6-0.5c0.2-0.2,0.2-0.5,0.2-0.8c0-0.5-0.4-0.9-1.1-1.2c-0.7-0.3-1.7-0.5-3-0.8
		c-0.5-0.1-1-0.3-1.5-0.4c-0.5-0.2-0.9-0.4-1.3-0.6c-0.4-0.3-0.7-0.6-0.9-1c-0.2-0.4-0.4-0.9-0.4-1.4c0-0.8,0.2-1.5,0.5-2.1
		c0.3-0.5,0.8-1,1.3-1.3c0.5-0.3,1.1-0.5,1.8-0.7c0.7-0.1,1.4-0.2,2.1-0.2s1.4,0.1,2,0.2c0.7,0.1,1.3,0.4,1.8,0.7s1,0.7,1.3,1.3
		c0.3,0.5,0.5,1.2,0.6,2H39c-0.1-0.7-0.3-1.2-0.8-1.4c-0.5-0.2-1-0.4-1.7-0.4c-0.2,0-0.4,0-0.7,0c-0.2,0-0.4,0.1-0.6,0.2
		c-0.2,0.1-0.4,0.2-0.5,0.4c-0.1,0.2-0.2,0.4-0.2,0.6c0,0.3,0.1,0.6,0.4,0.8c0.2,0.2,0.5,0.4,0.9,0.5c0.4,0.1,0.8,0.2,1.3,0.3
		s1,0.2,1.5,0.3c0.5,0.1,1,0.3,1.5,0.4c0.5,0.2,0.9,0.4,1.3,0.7c0.4,0.3,0.7,0.6,0.9,1c0.2,0.4,0.4,0.9,0.4,1.5
		c0,0.9-0.2,1.6-0.5,2.1c-0.3,0.6-0.8,1-1.3,1.4s-1.2,0.6-1.9,0.7c-0.7,0.1-1.4,0.2-2.2,0.2c-0.8,0-1.5-0.1-2.2-0.2
		s-1.4-0.4-1.9-0.8c-0.6-0.4-1-0.8-1.4-1.4c-0.4-0.6-0.6-1.3-0.6-2.2h3.4C34.1,282.1,34.2,282.5,34.4,282.8z"/>
	<path d="M45,271V268h3.6v2.9H45z M48.6,273v13H45v-13H48.6z"/>
	<path d="M54.8,273v1.8h0.1c0.5-0.8,1-1.3,1.8-1.6c0.7-0.3,1.5-0.5,2.2-0.5c1,0,1.7,0.1,2.4,0.4c0.6,0.3,1.1,0.6,1.4,1.1
		c0.4,0.5,0.6,1,0.7,1.7c0.1,0.7,0.2,1.4,0.2,2.2v8H60v-7.3c0-1.1-0.2-1.9-0.5-2.4c-0.3-0.5-0.9-0.8-1.8-0.8c-1,0-1.7,0.3-2.1,0.9
		c-0.4,0.6-0.7,1.5-0.7,2.9v6.8h-3.6v-13H54.8z"/>
	<path d="M78.6,286.9c-0.1,0.7-0.4,1.3-0.9,1.9c-0.5,0.6-1.1,1.1-2,1.5s-2.1,0.6-3.6,0.6c-0.6,0-1.3-0.1-1.9-0.2
		c-0.7-0.2-1.3-0.4-1.8-0.7s-1-0.8-1.4-1.3c-0.4-0.5-0.6-1.2-0.6-1.9h3.5c0.2,0.7,0.5,1.1,1,1.4c0.5,0.3,1,0.4,1.7,0.4
		c1,0,1.7-0.3,2.2-0.9s0.7-1.4,0.7-2.3v-1.7h0c-0.4,0.7-0.9,1.2-1.6,1.5c-0.7,0.3-1.5,0.5-2.2,0.5c-1,0-1.8-0.2-2.5-0.5
		c-0.7-0.3-1.3-0.8-1.7-1.4c-0.5-0.6-0.8-1.3-1-2.1c-0.2-0.8-0.3-1.6-0.3-2.5c0-0.8,0.1-1.6,0.4-2.4c0.2-0.8,0.6-1.5,1.1-2.1
		c0.5-0.6,1.1-1.1,1.7-1.4c0.7-0.4,1.5-0.5,2.4-0.5c0.9,0,1.6,0.2,2.2,0.5s1.2,0.9,1.6,1.6h0V273h3.4v12.2
		C78.8,285.7,78.7,286.3,78.6,286.9z M73.7,282.6c0.4-0.2,0.7-0.5,1-0.8c0.3-0.3,0.4-0.7,0.6-1.1c0.1-0.4,0.2-0.9,0.2-1.3
		c0-0.5,0-1-0.2-1.5s-0.3-0.9-0.5-1.3c-0.2-0.4-0.5-0.7-0.9-0.9c-0.4-0.2-0.9-0.3-1.5-0.3c-0.5,0-0.9,0.1-1.3,0.3
		c-0.4,0.2-0.7,0.5-0.9,0.8c-0.2,0.3-0.4,0.7-0.5,1.2c-0.1,0.4-0.2,0.9-0.2,1.4c0,0.5,0,0.9,0.1,1.4s0.3,0.9,0.5,1.2
		c0.2,0.4,0.5,0.7,0.9,0.9c0.4,0.2,0.8,0.4,1.4,0.4C72.8,282.9,73.3,282.8,73.7,282.6z"/>
	<path d="M85.3,268v18h-3.6v-18H85.3z"/>
	<path d="M92,282.9c0.5,0.5,1.3,0.8,2.3,0.8c0.7,0,1.3-0.2,1.9-0.5s0.8-0.7,1-1.1h3.1c-0.5,1.6-1.3,2.7-2.3,3.3c-1,0.7-2.3,1-3.8,1
		c-1,0-1.9-0.2-2.8-0.5c-0.8-0.3-1.5-0.8-2.1-1.4c-0.6-0.6-1-1.3-1.3-2.2c-0.3-0.8-0.5-1.8-0.5-2.8c0-1,0.2-1.9,0.5-2.7
		c0.3-0.8,0.8-1.6,1.4-2.2c0.6-0.6,1.3-1.1,2.1-1.4s1.7-0.5,2.7-0.5c1.1,0,2.1,0.2,2.9,0.6c0.8,0.4,1.5,1,2,1.7
		c0.5,0.7,0.9,1.5,1.1,2.5c0.2,0.9,0.3,1.9,0.3,2.9h-9.4C91.1,281.5,91.4,282.3,92,282.9z M96,276c-0.4-0.5-1.1-0.7-1.9-0.7
		c-0.6,0-1,0.1-1.4,0.3c-0.4,0.2-0.7,0.4-0.9,0.7c-0.2,0.3-0.4,0.6-0.5,0.9c-0.1,0.3-0.1,0.6-0.2,0.9h5.8
		C96.7,277.2,96.4,276.5,96,276z"/>
</g>
<g>
	<path d="M13.3,309.1c0.2,0.4,0.5,0.8,0.9,1s0.8,0.5,1.3,0.6c0.5,0.1,1,0.2,1.5,0.2c0.4,0,0.7,0,1.1-0.1c0.4-0.1,0.8-0.2,1.1-0.3
		c0.4-0.2,0.6-0.4,0.9-0.7c0.2-0.3,0.4-0.7,0.4-1.1c0-0.5-0.2-0.9-0.5-1.2c-0.3-0.3-0.7-0.6-1.2-0.8c-0.5-0.2-1.1-0.4-1.7-0.5
		c-0.6-0.2-1.3-0.3-1.9-0.5c-0.7-0.2-1.3-0.4-2-0.6c-0.6-0.2-1.2-0.6-1.7-0.9c-0.5-0.4-0.9-0.9-1.2-1.4c-0.3-0.6-0.5-1.3-0.5-2.1
		c0-0.9,0.2-1.7,0.6-2.4c0.4-0.7,0.9-1.2,1.5-1.7c0.6-0.5,1.4-0.8,2.2-1s1.6-0.3,2.4-0.3c0.9,0,1.8,0.1,2.7,0.3
		c0.9,0.2,1.6,0.5,2.3,1c0.7,0.5,1.2,1.1,1.6,1.8c0.4,0.7,0.6,1.6,0.6,2.7h-3.8c0-0.5-0.1-1-0.3-1.3c-0.2-0.4-0.4-0.6-0.8-0.8
		c-0.3-0.2-0.7-0.3-1.1-0.4c-0.4-0.1-0.9-0.1-1.3-0.1c-0.3,0-0.6,0-1,0.1c-0.3,0.1-0.6,0.2-0.9,0.4s-0.5,0.4-0.6,0.6s-0.3,0.6-0.3,1
		c0,0.4,0.1,0.6,0.2,0.9c0.1,0.2,0.4,0.4,0.8,0.6c0.4,0.2,0.9,0.4,1.6,0.6c0.7,0.2,1.6,0.4,2.7,0.7c0.3,0.1,0.8,0.2,1.4,0.4
		c0.6,0.2,1.2,0.5,1.8,0.8c0.6,0.4,1.1,0.9,1.5,1.5c0.4,0.6,0.6,1.5,0.6,2.5c0,0.8-0.2,1.6-0.5,2.3c-0.3,0.7-0.8,1.3-1.4,1.8
		c-0.6,0.5-1.4,0.9-2.3,1.2c-0.9,0.3-2,0.4-3.2,0.4c-1,0-1.9-0.1-2.9-0.4c-0.9-0.2-1.8-0.6-2.5-1.1c-0.7-0.5-1.3-1.2-1.7-2
		c-0.4-0.8-0.6-1.8-0.6-2.9H13C13,308.2,13.1,308.7,13.3,309.1z"/>
	<path d="M25.2,298.9v-3.3H40v3.3h-5.4v14.6h-3.9v-14.6H25.2z"/>
	<path d="M55.4,295.6v3.3H46v3.8h8.7v3.1H46v4.4h9.7v3.3H42v-18H55.4z"/>
	<path d="M66.4,295.6c1.1,0,2.1,0.2,2.9,0.5c0.8,0.3,1.4,0.8,1.9,1.3c0.5,0.5,0.9,1.1,1.1,1.8c0.2,0.7,0.3,1.4,0.3,2.1
		c0,0.7-0.1,1.4-0.3,2.1s-0.6,1.3-1.1,1.8c-0.5,0.5-1.1,1-1.9,1.3c-0.8,0.3-1.7,0.5-2.9,0.5h-4.1v6.4h-3.9v-18H66.4z M65.3,304
		c0.5,0,0.9,0,1.3-0.1c0.4-0.1,0.8-0.2,1.1-0.4c0.3-0.2,0.6-0.5,0.8-0.8c0.2-0.4,0.3-0.8,0.3-1.4c0-0.6-0.1-1-0.3-1.4
		s-0.4-0.6-0.8-0.8c-0.3-0.2-0.7-0.3-1.1-0.4c-0.4-0.1-0.9-0.1-1.3-0.1h-3.1v5.4H65.3z"/>
</g>
</svg>
