<?xml version="1.0" encoding="utf-8"?>
<!-- Generator: Adobe Illustrator 25.4.1, SVG Export Plug-In . SVG Version: 6.00 Build 0)  -->
<svg version="1.1" id="Layer_1" xmlns="http://www.w3.org/2000/svg" xmlns:xlink="http://www.w3.org/1999/xlink" x="0px" y="0px"
	 viewBox="0 0 160 600" style="enable-background:new 0 0 160 600;" xml:space="preserve">
<g>
	<path d="M15.5,162.9c0.7,0,1.4,0.1,2,0.4c0.6,0.2,1.1,0.6,1.5,1c0.4,0.4,0.7,0.9,1,1.4c0.2,0.5,0.3,1.1,0.3,1.8
		c0,1-0.2,1.8-0.6,2.5c-0.4,0.7-1.1,1.2-2,1.6v0c0.4,0.1,0.8,0.3,1.1,0.6c0.3,0.3,0.5,0.6,0.7,0.9c0.2,0.3,0.3,0.7,0.4,1.1
		c0.1,0.4,0.1,0.8,0.2,1.2c0,0.3,0,0.6,0,0.9s0,0.7,0.1,1.1c0,0.4,0.1,0.7,0.2,1c0.1,0.3,0.2,0.6,0.4,0.8h-3.6
		c-0.2-0.5-0.3-1.1-0.4-1.9s-0.1-1.4-0.2-2.1c-0.1-0.9-0.4-1.5-0.8-1.9c-0.4-0.4-1.1-0.6-2-0.6h-3.6v6.4H6.6v-16.4H15.5z
		 M14.2,170.3c0.8,0,1.4-0.2,1.9-0.6s0.6-1,0.6-1.8c0-0.8-0.2-1.4-0.6-1.7c-0.4-0.4-1-0.5-1.9-0.5h-4v4.6H14.2z"/>
	<path d="M26.4,176.4c0.5,0.5,1.2,0.7,2.1,0.7c0.7,0,1.2-0.2,1.7-0.5c0.5-0.3,0.8-0.7,0.9-1h2.9c-0.5,1.4-1.2,2.4-2.1,3.1
		c-1,0.6-2.1,0.9-3.5,0.9c-0.9,0-1.8-0.1-2.5-0.4c-0.8-0.3-1.4-0.7-1.9-1.3c-0.5-0.6-0.9-1.2-1.2-2s-0.4-1.6-0.4-2.5
		c0-0.9,0.1-1.7,0.4-2.5c0.3-0.8,0.7-1.4,1.2-2c0.5-0.6,1.2-1,1.9-1.3c0.7-0.3,1.6-0.5,2.5-0.5c1,0,1.9,0.2,2.6,0.6s1.4,0.9,1.9,1.6
		s0.8,1.4,1,2.3c0.2,0.8,0.3,1.7,0.2,2.6h-8.6C25.6,175.2,25.9,176,26.4,176.4z M30,170.2c-0.4-0.4-1-0.6-1.8-0.6
		c-0.5,0-1,0.1-1.3,0.3c-0.3,0.2-0.6,0.4-0.8,0.7s-0.4,0.5-0.4,0.8c-0.1,0.3-0.1,0.6-0.1,0.8h5.3C30.7,171.2,30.4,170.6,30,170.2z"
		/>
	<path d="M35.9,171.1c0-0.8,0.2-1.4,0.6-1.9c0.3-0.5,0.8-0.9,1.3-1.2s1.1-0.5,1.8-0.7c0.7-0.1,1.3-0.2,2-0.2c0.6,0,1.2,0,1.8,0.1
		c0.6,0.1,1.2,0.2,1.7,0.5s0.9,0.6,1.2,1c0.3,0.4,0.5,1,0.5,1.7v6.2c0,0.5,0,1.1,0.1,1.5c0.1,0.5,0.2,0.9,0.3,1.1h-3.3
		c-0.1-0.2-0.1-0.4-0.1-0.6c0-0.2-0.1-0.4-0.1-0.6c-0.5,0.5-1.1,0.9-1.8,1.1s-1.4,0.3-2.2,0.3c-0.6,0-1.1-0.1-1.6-0.2
		c-0.5-0.1-0.9-0.4-1.3-0.6c-0.4-0.3-0.7-0.7-0.9-1.1s-0.3-1-0.3-1.6c0-0.7,0.1-1.2,0.4-1.7s0.5-0.8,0.9-1c0.4-0.3,0.8-0.5,1.3-0.6
		c0.5-0.1,1-0.2,1.5-0.3c0.5-0.1,1-0.1,1.4-0.2c0.5,0,0.9-0.1,1.3-0.2c0.4-0.1,0.7-0.2,0.9-0.4c0.2-0.2,0.3-0.4,0.3-0.8
		c0-0.4-0.1-0.6-0.2-0.8c-0.1-0.2-0.3-0.4-0.5-0.5c-0.2-0.1-0.4-0.2-0.7-0.2c-0.3,0-0.5-0.1-0.8-0.1c-0.6,0-1.2,0.1-1.5,0.4
		c-0.4,0.3-0.6,0.7-0.6,1.4H35.9z M43.5,173.5c-0.1,0.1-0.3,0.2-0.5,0.3c-0.2,0.1-0.4,0.1-0.7,0.2s-0.5,0.1-0.7,0.1
		c-0.3,0-0.5,0.1-0.8,0.1c-0.2,0-0.5,0.1-0.7,0.2s-0.4,0.2-0.6,0.3s-0.3,0.3-0.4,0.5c-0.1,0.2-0.2,0.5-0.2,0.8
		c0,0.3,0.1,0.5,0.2,0.7c0.1,0.2,0.3,0.4,0.4,0.5c0.2,0.1,0.4,0.2,0.6,0.2c0.2,0,0.5,0.1,0.8,0.1c0.6,0,1.1-0.1,1.5-0.3
		c0.4-0.2,0.6-0.5,0.8-0.8c0.2-0.3,0.3-0.6,0.3-0.9s0.1-0.6,0.1-0.7V173.5z"/>
	<path d="M57.7,177.8c-0.4,0.6-0.9,1.1-1.5,1.4c-0.6,0.3-1.3,0.4-2.1,0.4c-0.9,0-1.7-0.2-2.3-0.5c-0.7-0.3-1.2-0.8-1.7-1.4
		c-0.4-0.6-0.8-1.3-1-2c-0.2-0.8-0.3-1.6-0.3-2.4c0-0.8,0.1-1.6,0.3-2.3s0.6-1.4,1-2c0.4-0.6,1-1,1.6-1.4c0.7-0.3,1.4-0.5,2.3-0.5
		c0.7,0,1.4,0.1,2,0.4c0.6,0.3,1.1,0.7,1.5,1.3h0v-6h3.3v16.4h-3.1L57.7,177.8L57.7,177.8z M57.6,171.9c-0.1-0.5-0.2-0.9-0.5-1.2
		c-0.2-0.3-0.5-0.6-0.9-0.8c-0.4-0.2-0.8-0.3-1.3-0.3s-1,0.1-1.4,0.3c-0.4,0.2-0.7,0.5-0.9,0.9c-0.2,0.4-0.4,0.8-0.5,1.2
		c-0.1,0.5-0.1,0.9-0.1,1.4c0,0.5,0.1,0.9,0.2,1.4c0.1,0.5,0.3,0.9,0.5,1.2c0.2,0.4,0.5,0.7,0.9,0.9c0.4,0.2,0.8,0.3,1.3,0.3
		c0.5,0,1-0.1,1.3-0.3c0.4-0.2,0.6-0.5,0.9-0.9c0.2-0.4,0.4-0.8,0.5-1.2c0.1-0.5,0.1-0.9,0.1-1.4S57.7,172.4,57.6,171.9z"/>
	<path d="M63.5,171.2v-3.5h3.6v3.5H63.5z M67.1,175.8v3.5h-3.6v-3.5H67.1z"/>
</g>
<g>
	<path d="M76.1,165.9l0.6-3h13.7l-0.6,3h-4.9l-2.8,13.4h-3.6l2.8-13.4H76.1z"/>
	<path d="M95.3,162.9l-1.2,5.9h0c0.1-0.2,0.3-0.4,0.5-0.6c0.2-0.2,0.5-0.4,0.8-0.6c0.3-0.2,0.7-0.3,1.1-0.4c0.4-0.1,0.9-0.2,1.4-0.2
		c2.3,0,3.5,1.1,3.5,3.2c0,0.1,0,0.3,0,0.5c0,0.2-0.1,0.4-0.1,0.6c0,0.2-0.1,0.4-0.1,0.6c0,0.2-0.1,0.3-0.1,0.4l-1.5,7h-3.3l1.4-7
		c0-0.2,0.1-0.4,0.1-0.7c0.1-0.3,0.1-0.5,0.1-0.7c0-0.4-0.2-0.6-0.5-0.9c-0.3-0.2-0.7-0.3-1.1-0.3c-0.5,0-0.9,0.1-1.3,0.3
		c-0.4,0.2-0.7,0.4-1,0.7c-0.3,0.3-0.5,0.7-0.7,1.1c-0.2,0.4-0.3,0.8-0.4,1.2l-1.3,6.3h-3.2l3.4-16.4H95.3z"/>
	<path d="M106.3,174.4c0,0.1,0,0.1,0,0.2v0.3c0,0.7,0.2,1.2,0.6,1.7c0.4,0.4,1.1,0.6,2,0.6c0.3,0,0.6,0,0.9-0.1
		c0.3-0.1,0.5-0.2,0.7-0.4c0.2-0.2,0.4-0.3,0.5-0.5c0.1-0.2,0.3-0.4,0.4-0.6h3.3c-0.3,0.7-0.6,1.3-0.9,1.8s-0.8,0.9-1.3,1.3
		c-0.5,0.3-1.1,0.6-1.7,0.8c-0.7,0.2-1.4,0.3-2.3,0.3c-0.8,0-1.5-0.1-2.2-0.3c-0.7-0.2-1.2-0.5-1.7-1s-0.8-1-1.1-1.6
		s-0.4-1.4-0.4-2.3c0-1,0.2-1.9,0.5-2.7c0.3-0.9,0.7-1.7,1.3-2.3c0.6-0.7,1.2-1.2,2.1-1.6s1.7-0.6,2.7-0.6c0.8,0,1.6,0.1,2.3,0.3
		c0.7,0.2,1.3,0.5,1.7,1c0.5,0.4,0.9,1,1.1,1.6c0.3,0.7,0.4,1.4,0.4,2.3c0,0.6-0.1,1.2-0.2,1.9h-8.8
		C106.3,174.2,106.3,174.3,106.3,174.4z M112.1,171.2c-0.1-0.3-0.2-0.6-0.3-0.8s-0.4-0.4-0.7-0.6c-0.3-0.1-0.7-0.2-1.2-0.2
		c-0.5,0-0.9,0.1-1.2,0.2c-0.4,0.1-0.7,0.3-0.9,0.6s-0.5,0.5-0.7,0.8c-0.2,0.3-0.3,0.6-0.4,1h5.5
		C112.1,171.8,112.1,171.5,112.1,171.2z"/>
	<path d="M121.5,167.4l-0.5,2.1l0,0c0.4-0.8,0.9-1.5,1.7-1.9c0.7-0.4,1.6-0.6,2.4-0.6c0.3,0,0.7,0,1,0.1l-0.7,3.2
		c-0.2,0-0.5-0.1-0.7-0.1s-0.5-0.1-0.7-0.1c-0.6,0-1.2,0.1-1.6,0.3c-0.4,0.2-0.8,0.5-1.1,0.9s-0.5,0.8-0.7,1.3
		c-0.2,0.5-0.3,1-0.4,1.5l-1.1,5.3h-3.2l2.5-11.9H121.5z"/>
	<path d="M128.1,174.4c0,0.1,0,0.1,0,0.2v0.3c0,0.7,0.2,1.2,0.6,1.7c0.4,0.4,1.1,0.6,2,0.6c0.3,0,0.6,0,0.9-0.1
		c0.3-0.1,0.5-0.2,0.7-0.4c0.2-0.2,0.4-0.3,0.5-0.5c0.1-0.2,0.3-0.4,0.4-0.6h3.3c-0.3,0.7-0.6,1.3-0.9,1.8s-0.8,0.9-1.3,1.3
		c-0.5,0.3-1.1,0.6-1.7,0.8c-0.7,0.2-1.4,0.3-2.3,0.3c-0.8,0-1.5-0.1-2.2-0.3c-0.7-0.2-1.2-0.5-1.7-1s-0.8-1-1.1-1.6
		s-0.4-1.4-0.4-2.3c0-1,0.2-1.9,0.5-2.7c0.3-0.9,0.7-1.7,1.3-2.3c0.6-0.7,1.2-1.2,2.1-1.6s1.7-0.6,2.7-0.6c0.8,0,1.6,0.1,2.3,0.3
		c0.7,0.2,1.3,0.5,1.7,1c0.5,0.4,0.9,1,1.1,1.6c0.3,0.7,0.4,1.4,0.4,2.3c0,0.6-0.1,1.2-0.2,1.9h-8.8
		C128.1,174.2,128.1,174.3,128.1,174.4z M133.8,171.2c-0.1-0.3-0.2-0.6-0.3-0.8s-0.4-0.4-0.7-0.6c-0.3-0.1-0.7-0.2-1.2-0.2
		c-0.5,0-0.9,0.1-1.2,0.2c-0.4,0.1-0.7,0.3-0.9,0.6s-0.5,0.5-0.7,0.8c-0.2,0.3-0.3,0.6-0.4,1h5.5
		C133.9,171.8,133.9,171.5,133.8,171.2z"/>
	<path d="M144.8,162.9l-0.7,3.5c-0.1,0.5-0.3,1-0.5,1.5s-0.5,0.9-0.8,1.2c-0.3,0.3-0.8,0.6-1.3,0.8s-1.1,0.3-1.9,0.4l0.3-1.6
		c0.7-0.1,1.2-0.4,1.4-0.7c0.3-0.4,0.5-0.9,0.6-1.5h-1.6l0.7-3.5H144.8z"/>
	<path d="M150.3,169.7c-0.3-0.3-0.7-0.4-1.4-0.4c-0.6,0-1.1,0.1-1.4,0.3c-0.4,0.2-0.6,0.5-0.6,0.9c0,0.3,0.1,0.5,0.3,0.7
		c0.2,0.2,0.6,0.4,1.2,0.5l1.6,0.5c0.4,0.1,0.9,0.3,1.2,0.5s0.7,0.4,1,0.7c0.3,0.3,0.5,0.6,0.7,1c0.2,0.4,0.2,0.8,0.2,1.3
		c0,0.7-0.2,1.4-0.5,1.9c-0.3,0.5-0.8,0.9-1.3,1.3c-0.5,0.3-1.1,0.6-1.8,0.7c-0.7,0.1-1.4,0.2-2,0.2c-0.6,0-1.2-0.1-1.8-0.2
		c-0.6-0.1-1.1-0.3-1.6-0.6c-0.5-0.3-0.9-0.7-1.2-1.1c-0.3-0.5-0.5-1.1-0.5-1.8v-0.5h3v0.4c0,0.3,0.1,0.5,0.2,0.7s0.3,0.4,0.5,0.5
		c0.2,0.1,0.5,0.2,0.8,0.3c0.3,0.1,0.6,0.1,0.8,0.1c0.2,0,0.5,0,0.7-0.1s0.5-0.1,0.7-0.2c0.2-0.1,0.4-0.3,0.5-0.4
		c0.1-0.2,0.2-0.4,0.2-0.7c0-0.4-0.1-0.7-0.3-0.9c-0.2-0.2-0.5-0.3-0.9-0.4l-2.5-0.8c-0.4-0.1-0.8-0.3-1.1-0.4
		c-0.3-0.2-0.6-0.3-0.8-0.6c-0.2-0.2-0.4-0.5-0.5-0.8c-0.1-0.3-0.2-0.7-0.2-1.2c0-0.7,0.2-1.3,0.5-1.8c0.3-0.5,0.8-0.9,1.3-1.2
		s1.1-0.5,1.7-0.6c0.6-0.1,1.2-0.2,1.8-0.2c0.6,0,1.3,0.1,1.9,0.2s1.1,0.3,1.6,0.6s0.8,0.7,1.1,1.2c0.3,0.5,0.4,1.1,0.4,1.9h-3
		C150.7,170.4,150.5,170,150.3,169.7z"/>
</g>
<g>
	<path d="M33.9,188.9l4.5,11.7h0l2.3-11.7H44l-3.5,16.4h-3.6l-4.5-11.5h0L30,205.3h-3.4l3.4-16.4H33.9z"/>
	<path d="M44.5,197.6c0.3-0.9,0.8-1.7,1.4-2.4c0.6-0.7,1.3-1.2,2.2-1.6s1.8-0.6,2.9-0.6c0.8,0,1.6,0.1,2.2,0.3
		c0.7,0.2,1.3,0.5,1.8,0.9c0.5,0.4,0.9,0.9,1.1,1.6c0.3,0.6,0.4,1.4,0.4,2.2c0,1-0.2,2-0.5,2.9c-0.3,0.9-0.8,1.7-1.4,2.4
		c-0.6,0.7-1.3,1.2-2.2,1.6c-0.9,0.4-1.8,0.6-2.9,0.6c-1.7,0-3-0.4-4-1.3c-1-0.9-1.5-2.1-1.5-3.8C44,199.5,44.2,198.5,44.5,197.6z
		 M47.4,201.5c0.1,0.3,0.2,0.6,0.4,0.9c0.2,0.2,0.4,0.4,0.7,0.6c0.3,0.1,0.6,0.2,1,0.2c0.6,0,1.1-0.2,1.6-0.5s0.8-0.7,1.1-1.2
		c0.3-0.5,0.5-1,0.6-1.6c0.1-0.6,0.2-1.1,0.2-1.6c0-0.8-0.2-1.4-0.5-1.9c-0.4-0.5-1-0.7-1.9-0.7c-0.6,0-1.1,0.2-1.6,0.5
		s-0.8,0.7-1.1,1.2c-0.3,0.5-0.5,1-0.6,1.6c-0.1,0.6-0.2,1.1-0.2,1.6C47.3,200.8,47.3,201.2,47.4,201.5z"/>
	<path d="M74.1,188.9c0.8,0,1.6,0.1,2.2,0.2c0.7,0.1,1.2,0.3,1.7,0.6s0.8,0.7,1.1,1.2c0.2,0.5,0.4,1.1,0.4,1.9
		c0,0.5-0.1,0.9-0.2,1.3c-0.1,0.4-0.3,0.8-0.6,1.2s-0.6,0.6-1,0.9s-0.8,0.4-1.3,0.4v0c0.8,0.2,1.4,0.6,1.8,1.2s0.6,1.3,0.6,2.1
		c0,0.9-0.2,1.7-0.5,2.3c-0.3,0.7-0.8,1.2-1.4,1.7s-1.2,0.8-2,1c-0.8,0.2-1.5,0.3-2.4,0.3h-8.7l3.4-16.4H74.1z M72.3,202.5
		c0.8,0,1.5-0.2,2-0.7c0.5-0.4,0.8-1.1,0.8-2c0-0.4-0.1-0.8-0.3-1c-0.2-0.2-0.4-0.4-0.7-0.6c-0.3-0.1-0.6-0.2-0.9-0.2
		c-0.3,0-0.7,0-1,0h-3.5l-1,4.5H72.3z M73.4,195.5c0.7,0,1.2-0.2,1.7-0.5c0.5-0.4,0.7-0.9,0.7-1.6c0-0.6-0.2-1.1-0.5-1.3
		c-0.3-0.2-0.8-0.4-1.4-0.4h-3.8l-0.8,3.8H73.4z"/>
	<path d="M83.8,200.3c0,0.1,0,0.1,0,0.2v0.3c0,0.7,0.2,1.2,0.6,1.7c0.4,0.4,1.1,0.6,2,0.6c0.3,0,0.6,0,0.9-0.1
		c0.3-0.1,0.5-0.2,0.7-0.4c0.2-0.2,0.4-0.3,0.5-0.5c0.1-0.2,0.3-0.4,0.4-0.6h3.3c-0.3,0.7-0.6,1.3-0.9,1.8s-0.8,0.9-1.3,1.3
		c-0.5,0.3-1.1,0.6-1.7,0.8c-0.7,0.2-1.4,0.3-2.3,0.3c-0.8,0-1.5-0.1-2.2-0.3c-0.7-0.2-1.2-0.5-1.7-1s-0.8-1-1.1-1.6
		c-0.3-0.6-0.4-1.4-0.4-2.3c0-1,0.2-1.9,0.5-2.7c0.3-0.9,0.7-1.7,1.3-2.3c0.6-0.7,1.2-1.2,2.1-1.6s1.7-0.6,2.7-0.6
		c0.8,0,1.6,0.1,2.3,0.3c0.7,0.2,1.3,0.5,1.7,1c0.5,0.4,0.9,1,1.1,1.6c0.3,0.7,0.4,1.4,0.4,2.3c0,0.6-0.1,1.2-0.2,1.9h-8.8
		C83.8,200.2,83.8,200.3,83.8,200.3z M89.5,197.2c-0.1-0.3-0.2-0.6-0.3-0.8s-0.4-0.4-0.7-0.6c-0.3-0.1-0.7-0.2-1.2-0.2
		c-0.5,0-0.9,0.1-1.2,0.2c-0.4,0.1-0.7,0.3-0.9,0.6s-0.5,0.5-0.7,0.8c-0.2,0.3-0.3,0.6-0.4,1h5.5C89.6,197.8,89.6,197.5,89.5,197.2z
		"/>
	<path d="M102.4,193.4l-0.5,2.2h-2.3l-1.2,5.9c0,0.1-0.1,0.2-0.1,0.3c0,0.1,0,0.2,0,0.2c0,0.2,0,0.4,0.1,0.5
		c0.1,0.1,0.2,0.2,0.3,0.3c0.1,0.1,0.2,0.1,0.4,0.1c0.1,0,0.3,0,0.4,0c0.4,0,0.8,0,1.2-0.1l-0.6,2.5c-0.3,0-0.7,0.1-1,0.1
		c-0.3,0-0.7,0-1,0c-0.4,0-0.8,0-1.1-0.1c-0.4-0.1-0.7-0.2-1-0.4c-0.3-0.2-0.5-0.4-0.7-0.7c-0.2-0.3-0.3-0.7-0.2-1.2
		c0-0.2,0-0.3,0-0.5c0-0.2,0.1-0.4,0.1-0.6l1.3-6.4h-2.1l0.5-2.2h2.1l0.7-3.6h3.3l-0.7,3.6H102.4z"/>
	<path d="M110.9,193.4l-0.5,2.2H108l-1.2,5.9c0,0.1-0.1,0.2-0.1,0.3c0,0.1,0,0.2,0,0.2c0,0.2,0,0.4,0.1,0.5c0.1,0.1,0.2,0.2,0.3,0.3
		c0.1,0.1,0.2,0.1,0.4,0.1c0.1,0,0.3,0,0.4,0c0.4,0,0.8,0,1.2-0.1l-0.6,2.5c-0.3,0-0.7,0.1-1,0.1c-0.3,0-0.7,0-1,0
		c-0.4,0-0.8,0-1.1-0.1c-0.4-0.1-0.7-0.2-1-0.4c-0.3-0.2-0.5-0.4-0.7-0.7c-0.2-0.3-0.3-0.7-0.2-1.2c0-0.2,0-0.3,0-0.5
		c0-0.2,0.1-0.4,0.1-0.6l1.3-6.4h-2.1l0.5-2.2h2.1l0.7-3.6h3.3l-0.7,3.6H110.9z"/>
	<path d="M114,200.3c0,0.1,0,0.1,0,0.2v0.3c0,0.7,0.2,1.2,0.6,1.7c0.4,0.4,1.1,0.6,2,0.6c0.3,0,0.6,0,0.9-0.1
		c0.3-0.1,0.5-0.2,0.7-0.4c0.2-0.2,0.4-0.3,0.5-0.5c0.1-0.2,0.3-0.4,0.4-0.6h3.3c-0.3,0.7-0.6,1.3-0.9,1.8s-0.8,0.9-1.3,1.3
		c-0.5,0.3-1.1,0.6-1.7,0.8c-0.7,0.2-1.4,0.3-2.3,0.3c-0.8,0-1.5-0.1-2.2-0.3c-0.7-0.2-1.2-0.5-1.7-1s-0.8-1-1.1-1.6
		s-0.4-1.4-0.4-2.3c0-1,0.2-1.9,0.5-2.7c0.3-0.9,0.7-1.7,1.3-2.3c0.6-0.7,1.2-1.2,2.1-1.6s1.7-0.6,2.7-0.6c0.8,0,1.6,0.1,2.3,0.3
		c0.7,0.2,1.3,0.5,1.7,1c0.5,0.4,0.9,1,1.1,1.6c0.3,0.7,0.4,1.4,0.4,2.3c0,0.6-0.1,1.2-0.2,1.9H114C114,200.2,114,200.3,114,200.3z
		 M119.7,197.2c-0.1-0.3-0.2-0.6-0.3-0.8s-0.4-0.4-0.7-0.6c-0.3-0.1-0.7-0.2-1.2-0.2c-0.5,0-0.9,0.1-1.2,0.2
		c-0.4,0.1-0.7,0.3-0.9,0.6s-0.5,0.5-0.7,0.8c-0.2,0.3-0.3,0.6-0.4,1h5.5C119.8,197.8,119.8,197.5,119.7,197.2z"/>
	<path d="M129.2,193.4l-0.5,2.1l0,0c0.4-0.8,0.9-1.5,1.7-1.9c0.7-0.4,1.6-0.6,2.4-0.6c0.3,0,0.7,0,1,0.1l-0.7,3.2
		c-0.2,0-0.5-0.1-0.7-0.1s-0.5-0.1-0.7-0.1c-0.6,0-1.2,0.1-1.6,0.3c-0.4,0.2-0.8,0.5-1.1,0.9s-0.5,0.8-0.7,1.3
		c-0.2,0.5-0.3,1-0.4,1.5l-1.1,5.3h-3.2l2.5-11.9H129.2z"/>
</g>
<g>
	<path d="M39.7,217.9l0.6-3H54l-0.6,3h-4.9l-2.8,13.4H42l2.8-13.4H39.7z"/>
	<path d="M58,219.4l-2.5,11.9h-3.3l2.5-11.9H58z M55.1,217.5l0.6-2.7H59l-0.6,2.7H55.1z"/>
	<path d="M63.8,219.4l-0.4,1.7h0c0.5-0.7,1.1-1.2,1.8-1.5s1.5-0.5,2.4-0.5c0.7,0,1.4,0.2,1.9,0.5c0.5,0.3,0.8,0.9,1,1.6
		c0.2-0.3,0.5-0.6,0.8-0.8s0.6-0.5,1-0.7c0.4-0.2,0.7-0.3,1.1-0.4c0.4-0.1,0.8-0.1,1.2-0.1c0.5,0,0.9,0.1,1.3,0.2
		c0.4,0.1,0.8,0.3,1.2,0.6c0.3,0.2,0.6,0.6,0.8,0.9c0.2,0.4,0.3,0.8,0.3,1.3c0,0.4,0,0.7-0.1,1.1c-0.1,0.4-0.2,0.7-0.2,1.1l-1.5,7
		h-3.3l1.6-7.5c0.1-0.3,0.1-0.6,0.1-0.9c0-0.4-0.1-0.7-0.4-0.9c-0.3-0.2-0.6-0.4-1-0.4c-0.4,0-0.8,0.1-1.2,0.3s-0.6,0.5-0.9,0.8
		c-0.3,0.3-0.5,0.7-0.6,1c-0.2,0.4-0.3,0.8-0.4,1.1l-1.3,6.4h-3.3l1.6-7.5c0.1-0.3,0.1-0.6,0.1-0.9c0-0.4-0.1-0.7-0.4-0.9
		c-0.3-0.2-0.6-0.4-1-0.4c-0.4,0-0.8,0.1-1.2,0.3c-0.3,0.2-0.6,0.5-0.9,0.8c-0.3,0.3-0.5,0.7-0.6,1c-0.2,0.4-0.3,0.8-0.4,1.1
		l-1.3,6.4h-3.2l2.5-11.9H63.8z"/>
	<path d="M82.7,226.3c0,0.1,0,0.1,0,0.2v0.3c0,0.7,0.2,1.2,0.6,1.7c0.4,0.4,1.1,0.6,2,0.6c0.3,0,0.6,0,0.9-0.1
		c0.3-0.1,0.5-0.2,0.7-0.4c0.2-0.2,0.4-0.3,0.5-0.5c0.1-0.2,0.3-0.4,0.4-0.6H91c-0.3,0.7-0.6,1.3-0.9,1.8s-0.8,0.9-1.3,1.3
		c-0.5,0.3-1.1,0.6-1.7,0.8c-0.7,0.2-1.4,0.3-2.3,0.3c-0.8,0-1.5-0.1-2.2-0.3c-0.7-0.2-1.2-0.5-1.7-1c-0.5-0.4-0.8-1-1.1-1.6
		s-0.4-1.4-0.4-2.3c0-1,0.2-1.9,0.5-2.7c0.3-0.9,0.7-1.7,1.3-2.3c0.6-0.7,1.2-1.2,2.1-1.6s1.7-0.6,2.7-0.6c0.8,0,1.6,0.1,2.3,0.3
		c0.7,0.2,1.3,0.5,1.7,1c0.5,0.4,0.9,1,1.1,1.6c0.3,0.7,0.4,1.4,0.4,2.3c0,0.6-0.1,1.2-0.2,1.9h-8.8
		C82.7,226.2,82.7,226.3,82.7,226.3z M88.4,223.1c-0.1-0.3-0.2-0.6-0.3-0.8s-0.4-0.4-0.7-0.6c-0.3-0.1-0.7-0.2-1.2-0.2
		c-0.5,0-0.9,0.1-1.2,0.2c-0.4,0.1-0.7,0.3-0.9,0.6s-0.5,0.5-0.7,0.8c-0.2,0.3-0.3,0.6-0.4,1h5.5C88.5,223.8,88.5,223.4,88.4,223.1z
		"/>
	<path d="M107.7,219.4l-0.5,2.2h-2.3l-1.2,5.9c0,0.1-0.1,0.2-0.1,0.3c0,0.1,0,0.2,0,0.2c0,0.2,0,0.4,0.1,0.5
		c0.1,0.1,0.2,0.2,0.3,0.3c0.1,0.1,0.2,0.1,0.4,0.1c0.1,0,0.3,0,0.4,0c0.4,0,0.8,0,1.2-0.1l-0.6,2.5c-0.3,0-0.7,0.1-1,0.1
		c-0.3,0-0.7,0-1,0c-0.4,0-0.8,0-1.1-0.1c-0.4-0.1-0.7-0.2-1-0.4c-0.3-0.2-0.5-0.4-0.7-0.7c-0.2-0.3-0.3-0.7-0.2-1.2
		c0-0.2,0-0.3,0-0.5c0-0.2,0.1-0.4,0.1-0.6l1.3-6.4h-2.1l0.5-2.2h2.1l0.7-3.6h3.3l-0.7,3.6H107.7z"/>
	<path d="M108.1,223.6c0.3-0.9,0.8-1.7,1.4-2.4c0.6-0.7,1.3-1.2,2.2-1.6c0.8-0.4,1.8-0.6,2.9-0.6c0.8,0,1.6,0.1,2.2,0.3
		c0.7,0.2,1.3,0.5,1.8,0.9c0.5,0.4,0.9,0.9,1.1,1.6c0.3,0.6,0.4,1.4,0.4,2.2c0,1-0.2,2-0.5,2.9c-0.3,0.9-0.8,1.7-1.4,2.4
		c-0.6,0.7-1.3,1.2-2.2,1.6c-0.9,0.4-1.8,0.6-2.9,0.6c-1.7,0-3-0.4-4-1.3c-1-0.9-1.5-2.1-1.5-3.8
		C107.7,225.5,107.8,224.5,108.1,223.6z M111.1,227.5c0.1,0.3,0.2,0.6,0.4,0.9s0.4,0.4,0.7,0.6c0.3,0.1,0.6,0.2,1,0.2
		c0.6,0,1.1-0.2,1.6-0.5c0.4-0.3,0.8-0.7,1.1-1.2c0.3-0.5,0.5-1,0.6-1.6c0.1-0.6,0.2-1.1,0.2-1.6c0-0.8-0.2-1.4-0.5-1.9
		c-0.4-0.5-1-0.7-1.9-0.7c-0.6,0-1.1,0.2-1.6,0.5c-0.4,0.3-0.8,0.7-1.1,1.2c-0.3,0.5-0.5,1-0.6,1.6c-0.1,0.6-0.2,1.1-0.2,1.6
		C110.9,226.8,111,227.2,111.1,227.5z"/>
</g>
<g>
	<path d="M45.3,240.8c0.8,0,1.6,0.1,2.2,0.2c0.7,0.1,1.2,0.3,1.7,0.6s0.8,0.7,1.1,1.2c0.2,0.5,0.4,1.1,0.4,1.9
		c0,0.5-0.1,0.9-0.2,1.3c-0.1,0.4-0.3,0.8-0.6,1.2s-0.6,0.6-1,0.9c-0.4,0.2-0.8,0.4-1.3,0.4v0c0.8,0.2,1.4,0.6,1.8,1.2
		s0.6,1.3,0.6,2.1c0,0.9-0.2,1.7-0.5,2.3c-0.3,0.7-0.8,1.2-1.4,1.7c-0.6,0.4-1.2,0.8-2,1c-0.8,0.2-1.5,0.3-2.4,0.3H35l3.4-16.4H45.3
		z M43.6,254.5c0.8,0,1.5-0.2,2-0.7c0.5-0.4,0.8-1.1,0.8-2c0-0.4-0.1-0.8-0.3-1c-0.2-0.2-0.4-0.4-0.7-0.6s-0.6-0.2-0.9-0.2
		c-0.3,0-0.7,0-1,0H40l-1,4.5H43.6z M44.6,247.5c0.7,0,1.2-0.2,1.7-0.5c0.5-0.4,0.7-0.9,0.7-1.6c0-0.6-0.2-1.1-0.5-1.3
		c-0.3-0.2-0.8-0.4-1.4-0.4h-3.8l-0.8,3.8H44.6z"/>
	<path d="M59.5,257.3l0.4-1.7h0c-1.1,1.3-2.4,2-4.2,2c-2.3,0-3.5-1.1-3.5-3.2c0-0.1,0-0.3,0-0.5c0-0.2,0.1-0.4,0.1-0.6
		c0-0.2,0.1-0.4,0.1-0.6c0-0.2,0.1-0.3,0.1-0.4l1.5-7h3.3l-1.4,7c0,0.1-0.1,0.2-0.1,0.3s0,0.3-0.1,0.4s0,0.3,0,0.4
		c0,0.1,0,0.2,0,0.3c0,0.4,0.2,0.6,0.5,0.9c0.3,0.2,0.7,0.3,1.1,0.3c0.5,0,0.9-0.1,1.3-0.3c0.4-0.2,0.7-0.4,1-0.7
		c0.3-0.3,0.5-0.7,0.7-1.1c0.2-0.4,0.3-0.8,0.4-1.2l1.3-6.3h3.3l-2.5,11.9H59.5z"/>
	<path d="M69.8,260.2c-0.3,0.3-0.6,0.6-1,0.8c-0.4,0.2-0.8,0.3-1.2,0.4s-1,0.1-1.6,0.1c-0.3,0-0.6,0-0.9,0c-0.3,0-0.6-0.1-0.9-0.1
		l0.6-2.7c0.2,0,0.4,0,0.7,0.1c0.2,0,0.4,0.1,0.7,0.1c0.4,0,0.7-0.1,0.9-0.2c0.2-0.1,0.4-0.3,0.6-0.4c0.1-0.2,0.3-0.3,0.4-0.5
		c0.1-0.2,0.2-0.3,0.3-0.5l-2.1-11.8h3.4l1,8.5h0l4.1-8.5h3.5l-7.6,13.5C70.4,259.4,70.1,259.8,69.8,260.2z"/>
	<path d="M91,240.8l-2.8,13.4h7.9l-0.6,3H84l3.4-16.4H91z"/>
	<path d="M102.8,245.4l-2.5,11.9H97l2.5-11.9H102.8z M99.9,243.5l0.6-2.7h3.3l-0.6,2.7H99.9z"/>
	<path d="M103.7,247.6l0.5-2.2h2c0.2-0.8,0.3-1.4,0.5-2c0.2-0.6,0.4-1.1,0.8-1.5c0.3-0.4,0.7-0.7,1.3-0.9c0.5-0.2,1.2-0.3,2.1-0.3
		c0.4,0,0.7,0,1.1,0c0.4,0,0.7,0.1,1.1,0.1l-0.5,2.3c-0.2,0-0.3,0-0.5,0c-0.2,0-0.4,0-0.5,0c-0.4,0-0.7,0.1-0.9,0.1
		c-0.2,0.1-0.4,0.2-0.5,0.4c-0.1,0.2-0.2,0.4-0.3,0.7c-0.1,0.3-0.1,0.6-0.2,0.9h2.3l-0.5,2.2h-2.3l-2,9.7h-3.3l2-9.7H103.7z"/>
	<path d="M114.6,252.3c0,0.1,0,0.1,0,0.2v0.3c0,0.7,0.2,1.2,0.6,1.7c0.4,0.4,1.1,0.6,2,0.6c0.3,0,0.6,0,0.9-0.1
		c0.3-0.1,0.5-0.2,0.7-0.4c0.2-0.2,0.4-0.3,0.5-0.5c0.1-0.2,0.3-0.4,0.4-0.6h3.3c-0.3,0.7-0.6,1.3-0.9,1.8s-0.8,0.9-1.3,1.3
		c-0.5,0.3-1.1,0.6-1.7,0.8c-0.7,0.2-1.4,0.3-2.3,0.3c-0.8,0-1.5-0.1-2.2-0.3c-0.7-0.2-1.2-0.5-1.7-1s-0.8-1-1.1-1.6
		s-0.4-1.4-0.4-2.3c0-1,0.2-1.9,0.5-2.7c0.3-0.9,0.7-1.7,1.3-2.3c0.6-0.7,1.2-1.2,2.1-1.6s1.7-0.6,2.7-0.6c0.8,0,1.6,0.1,2.3,0.3
		c0.7,0.2,1.3,0.5,1.7,1c0.5,0.4,0.9,1,1.1,1.6c0.3,0.7,0.4,1.4,0.4,2.3c0,0.6-0.1,1.2-0.2,1.9h-8.8
		C114.7,252.2,114.6,252.3,114.6,252.3z M120.4,249.1c-0.1-0.3-0.2-0.6-0.3-0.8s-0.4-0.4-0.7-0.6c-0.3-0.1-0.7-0.2-1.2-0.2
		c-0.5,0-0.9,0.1-1.2,0.2c-0.4,0.1-0.7,0.3-0.9,0.6s-0.5,0.5-0.7,0.8c-0.2,0.3-0.3,0.6-0.4,1h5.5
		C120.5,249.7,120.4,249.4,120.4,249.1z"/>
</g>
<g>
	<path d="M28.9,266.8l-3.5,16.4h-3.6l3.4-16.4H28.9z"/>
	<path d="M34,271.4l-0.4,1.7h0c1.1-1.3,2.4-2,4.2-2c2.3,0,3.5,1.1,3.5,3.2c0,0.1,0,0.3,0,0.5c0,0.2-0.1,0.4-0.1,0.6
		c0,0.2-0.1,0.4-0.1,0.6c0,0.2-0.1,0.3-0.1,0.4l-1.5,7h-3.3l1.4-7c0-0.2,0.1-0.4,0.1-0.7c0.1-0.3,0.1-0.5,0.1-0.7
		c0-0.4-0.2-0.6-0.5-0.9c-0.3-0.2-0.7-0.3-1.1-0.3c-0.5,0-0.9,0.1-1.3,0.3c-0.4,0.2-0.7,0.4-1,0.7c-0.3,0.3-0.5,0.7-0.7,1.1
		c-0.2,0.4-0.3,0.8-0.4,1.2l-1.3,6.3h-3.2l2.5-11.9H34z"/>
	<path d="M50.4,273.7c-0.3-0.3-0.7-0.4-1.4-0.4c-0.6,0-1.1,0.1-1.4,0.3c-0.4,0.2-0.6,0.5-0.6,0.9c0,0.3,0.1,0.5,0.3,0.7
		s0.6,0.4,1.2,0.5l1.6,0.5c0.4,0.1,0.9,0.3,1.2,0.5c0.4,0.2,0.7,0.4,1,0.7c0.3,0.3,0.5,0.6,0.7,1c0.2,0.4,0.2,0.8,0.2,1.3
		c0,0.7-0.2,1.4-0.5,1.9c-0.3,0.5-0.8,0.9-1.3,1.3c-0.5,0.3-1.1,0.6-1.8,0.7c-0.7,0.1-1.4,0.2-2,0.2c-0.6,0-1.2-0.1-1.8-0.2
		c-0.6-0.1-1.1-0.3-1.6-0.6c-0.5-0.3-0.9-0.7-1.2-1.1c-0.3-0.5-0.5-1.1-0.5-1.8v-0.5h3v0.4c0,0.3,0.1,0.5,0.2,0.7
		c0.1,0.2,0.3,0.4,0.5,0.5c0.2,0.1,0.5,0.2,0.8,0.3c0.3,0.1,0.6,0.1,0.8,0.1c0.2,0,0.5,0,0.7-0.1c0.2,0,0.5-0.1,0.7-0.2
		c0.2-0.1,0.4-0.3,0.5-0.4c0.1-0.2,0.2-0.4,0.2-0.7c0-0.4-0.1-0.7-0.3-0.9c-0.2-0.2-0.5-0.3-0.9-0.4l-2.5-0.8
		c-0.4-0.1-0.8-0.3-1.1-0.4c-0.3-0.2-0.6-0.3-0.8-0.6c-0.2-0.2-0.4-0.5-0.5-0.8c-0.1-0.3-0.2-0.7-0.2-1.2c0-0.7,0.2-1.3,0.5-1.8
		c0.3-0.5,0.8-0.9,1.3-1.2c0.5-0.3,1.1-0.5,1.7-0.6c0.6-0.1,1.2-0.2,1.8-0.2c0.6,0,1.3,0.1,1.9,0.2c0.6,0.1,1.1,0.3,1.6,0.6
		s0.8,0.7,1.1,1.2c0.3,0.5,0.4,1.1,0.4,1.9h-3C50.8,274.3,50.6,273.9,50.4,273.7z"/>
	<path d="M62.5,283.3l0.4-1.7h0c-1.1,1.3-2.4,2-4.2,2c-2.3,0-3.5-1.1-3.5-3.2c0-0.1,0-0.3,0-0.5c0-0.2,0.1-0.4,0.1-0.6
		c0-0.2,0.1-0.4,0.1-0.6c0-0.2,0.1-0.3,0.1-0.4l1.5-7h3.3l-1.4,7c0,0.1-0.1,0.2-0.1,0.3s0,0.3-0.1,0.4s0,0.3,0,0.4
		c0,0.1,0,0.2,0,0.3c0,0.4,0.2,0.6,0.5,0.9c0.3,0.2,0.7,0.3,1.1,0.3c0.5,0,0.9-0.1,1.3-0.3c0.4-0.2,0.7-0.4,1-0.7
		c0.3-0.3,0.5-0.7,0.7-1.1c0.2-0.4,0.3-0.8,0.4-1.2l1.3-6.3h3.3l-2.5,11.9H62.5z"/>
	<path d="M74,271.4l-0.5,2.1l0,0c0.4-0.8,0.9-1.5,1.7-1.9c0.7-0.4,1.6-0.6,2.4-0.6c0.3,0,0.7,0,1,0.1l-0.7,3.2
		c-0.2,0-0.5-0.1-0.7-0.1s-0.5-0.1-0.7-0.1c-0.6,0-1.2,0.1-1.6,0.3c-0.4,0.2-0.8,0.5-1.1,0.9s-0.5,0.8-0.7,1.3
		c-0.2,0.5-0.3,1-0.4,1.5l-1.1,5.3h-3.2l2.5-11.9H74z"/>
	<path d="M79.7,273.1c0.4-0.5,0.8-0.9,1.3-1.2c0.5-0.3,1.1-0.5,1.7-0.7c0.6-0.1,1.3-0.2,2-0.2c0.5,0,1.1,0,1.7,0.1
		c0.6,0.1,1.1,0.2,1.6,0.4c0.5,0.2,0.9,0.5,1.2,0.9c0.3,0.4,0.5,0.9,0.4,1.6c0,0.6-0.1,1.2-0.3,2l-1.1,4.8c-0.1,0.2-0.1,0.5-0.1,0.8
		s0,0.6,0,0.8c0,0.2,0,0.4,0.1,0.7H85v-1.2c-0.4,0.5-1,0.9-1.6,1.1c-0.6,0.2-1.3,0.4-2,0.4c-0.6,0-1.2-0.1-1.7-0.3
		c-0.5-0.2-0.9-0.4-1.2-0.7c-0.3-0.3-0.6-0.6-0.7-1c-0.2-0.4-0.2-0.8-0.2-1.2c0-1.1,0.4-2.1,1.2-2.8c0.8-0.7,1.9-1.1,3.3-1.3
		c0.8-0.1,1.4-0.2,2-0.2s1-0.1,1.4-0.2c0.4-0.1,0.7-0.2,0.8-0.4c0.2-0.2,0.3-0.5,0.3-0.9c0-0.3-0.1-0.6-0.2-0.7
		c-0.1-0.2-0.3-0.3-0.5-0.4c-0.2-0.1-0.4-0.2-0.7-0.2c-0.2,0-0.5-0.1-0.7-0.1c-0.6,0-1.1,0.1-1.6,0.4c-0.5,0.3-0.7,0.7-0.9,1.3H79
		C79.1,274.2,79.4,273.6,79.7,273.1z M84.6,278c-0.5,0.1-1,0.1-1.4,0.1c-0.3,0-0.6,0.1-0.9,0.1s-0.5,0.2-0.8,0.3
		c-0.2,0.1-0.4,0.3-0.5,0.6c-0.1,0.2-0.2,0.5-0.2,0.9c0,0.4,0.2,0.8,0.5,1c0.4,0.2,0.8,0.3,1.3,0.3c0.5,0,0.9-0.1,1.3-0.2
		c0.3-0.2,0.6-0.4,0.9-0.6c0.2-0.3,0.4-0.5,0.6-0.9c0.1-0.3,0.3-0.6,0.3-1l0.3-1.1C85.5,277.8,85.1,278,84.6,278z"/>
	<path d="M96.2,271.4l-0.4,1.7h0c1.1-1.3,2.4-2,4.2-2c2.3,0,3.5,1.1,3.5,3.2c0,0.1,0,0.3,0,0.5c0,0.2-0.1,0.4-0.1,0.6
		c0,0.2-0.1,0.4-0.1,0.6c0,0.2-0.1,0.3-0.1,0.4l-1.5,7h-3.3l1.4-7c0-0.2,0.1-0.4,0.1-0.7c0.1-0.3,0.1-0.5,0.1-0.7
		c0-0.4-0.2-0.6-0.5-0.9c-0.3-0.2-0.7-0.3-1.1-0.3c-0.5,0-0.9,0.1-1.3,0.3c-0.4,0.2-0.7,0.4-1,0.7c-0.3,0.3-0.5,0.7-0.7,1.1
		c-0.2,0.4-0.3,0.8-0.4,1.2l-1.3,6.3h-3.2l2.5-11.9H96.2z"/>
	<path d="M113.4,274c-0.4-0.3-0.9-0.5-1.6-0.5c-0.6,0-1.1,0.2-1.6,0.5c-0.4,0.3-0.8,0.7-1,1.3c-0.3,0.5-0.4,1.1-0.6,1.6
		c-0.1,0.6-0.2,1.1-0.2,1.6c0,0.4,0,0.7,0.1,1c0.1,0.3,0.2,0.6,0.4,0.8s0.4,0.4,0.7,0.6c0.3,0.1,0.6,0.2,1,0.2c0.4,0,0.7-0.1,1-0.2
		c0.3-0.1,0.5-0.3,0.8-0.5c0.2-0.2,0.4-0.4,0.6-0.7s0.3-0.5,0.4-0.8h3.3c-0.5,1.5-1.2,2.6-2.3,3.4c-1,0.8-2.3,1.2-3.9,1.2
		c-1.7,0-3-0.4-3.9-1.2c-0.9-0.8-1.4-2.1-1.4-3.9c0-1,0.1-2,0.4-2.9s0.7-1.7,1.3-2.4c0.6-0.7,1.3-1.2,2.1-1.6s1.8-0.6,2.9-0.6
		c0.7,0,1.4,0.1,2,0.3c0.6,0.2,1.2,0.4,1.7,0.8c0.5,0.4,0.9,0.8,1.2,1.4c0.3,0.6,0.4,1.2,0.4,2h-3.3
		C113.9,274.8,113.7,274.3,113.4,274z"/>
	<path d="M121,278.3c0,0.1,0,0.1,0,0.2v0.3c0,0.7,0.2,1.2,0.6,1.7c0.4,0.4,1.1,0.6,2,0.6c0.3,0,0.6,0,0.9-0.1
		c0.3-0.1,0.5-0.2,0.7-0.4c0.2-0.2,0.4-0.3,0.5-0.5c0.1-0.2,0.3-0.4,0.4-0.6h3.3c-0.3,0.7-0.6,1.3-0.9,1.8s-0.8,0.9-1.3,1.3
		c-0.5,0.3-1.1,0.6-1.7,0.8c-0.7,0.2-1.4,0.3-2.3,0.3c-0.8,0-1.5-0.1-2.2-0.3c-0.7-0.2-1.2-0.5-1.7-1s-0.8-1-1.1-1.6
		s-0.4-1.4-0.4-2.3c0-1,0.2-1.9,0.5-2.7c0.3-0.9,0.7-1.7,1.3-2.3c0.6-0.7,1.2-1.2,2.1-1.6s1.7-0.6,2.7-0.6c0.8,0,1.6,0.1,2.3,0.3
		c0.7,0.2,1.3,0.5,1.7,1c0.5,0.4,0.9,1,1.1,1.6c0.3,0.7,0.4,1.4,0.4,2.3c0,0.6-0.1,1.2-0.2,1.9h-8.8
		C121.1,278.2,121,278.3,121,278.3z M126.8,275.1c-0.1-0.3-0.2-0.6-0.3-0.8s-0.4-0.4-0.7-0.6c-0.3-0.1-0.7-0.2-1.2-0.2
		c-0.5,0-0.9,0.1-1.2,0.2c-0.4,0.1-0.7,0.3-0.9,0.6s-0.5,0.5-0.7,0.8c-0.2,0.3-0.3,0.6-0.4,1h5.5
		C126.9,275.7,126.8,275.4,126.8,275.1z"/>
	<path d="M135.2,279.7l-0.8,3.5h-3.6l0.7-3.5H135.2z M134.4,278.3h-1.6l0.6-7l0.9-4.5h3.5l-1,4.5L134.4,278.3z"/>
</g>
</svg>
