<?xml version="1.0" encoding="utf-8"?>
<!-- Generator: Adobe Illustrator 25.4.1, SVG Export Plug-In . SVG Version: 6.00 Build 0)  -->
<svg version="1.1" id="Layer_1" xmlns="http://www.w3.org/2000/svg" xmlns:xlink="http://www.w3.org/1999/xlink" x="0px" y="0px"
	 viewBox="0 0 160 600" style="enable-background:new 0 0 160 600;" xml:space="preserve">
<style type="text/css">
	.st0{fill:#349946;}
</style>
<g>
	<path class="st0" d="M28.2,133.2c1.3,0,2.5,0.2,3.4,0.6c0.9,0.4,1.7,0.9,2.3,1.5c0.6,0.6,1,1.4,1.3,2.2c0.3,0.8,0.4,1.7,0.4,2.6
		c0,0.9-0.1,1.7-0.4,2.5c-0.3,0.8-0.7,1.6-1.3,2.2c-0.6,0.6-1.4,1.2-2.3,1.5c-0.9,0.4-2.1,0.6-3.4,0.6h-5v7.7h-4.7v-21.4H28.2z
		 M26.9,143.3c0.5,0,1.1,0,1.6-0.1c0.5-0.1,0.9-0.2,1.3-0.5s0.7-0.6,0.9-1s0.3-1,0.3-1.6c0-0.7-0.1-1.2-0.3-1.7
		c-0.2-0.4-0.5-0.7-0.9-1S29,137,28.5,137c-0.5-0.1-1-0.1-1.6-0.1h-3.7v6.4H26.9z"/>
	<path class="st0" d="M42.2,139.1v2.9h0.1c0.2-0.5,0.5-0.9,0.8-1.3c0.3-0.4,0.7-0.8,1.2-1.1c0.4-0.3,0.9-0.5,1.4-0.7
		c0.5-0.2,1-0.2,1.6-0.2c0.3,0,0.6,0.1,0.9,0.2v4c-0.2,0-0.4-0.1-0.7-0.1c-0.3,0-0.6,0-0.8,0c-0.8,0-1.4,0.1-2,0.4
		c-0.5,0.3-1,0.6-1.3,1.1c-0.3,0.5-0.6,1-0.7,1.6c-0.1,0.6-0.2,1.2-0.2,1.9v7h-4.3v-15.5H42.2z"/>
	<path class="st0" d="M49.6,143.9c0.1-1,0.3-1.8,0.8-2.5s1-1.2,1.7-1.6c0.7-0.4,1.4-0.7,2.3-0.9c0.8-0.2,1.7-0.3,2.6-0.3
		c0.8,0,1.6,0.1,2.4,0.2c0.8,0.1,1.5,0.3,2.2,0.6c0.7,0.3,1.2,0.8,1.6,1.3c0.4,0.6,0.6,1.3,0.6,2.3v8.1c0,0.7,0,1.4,0.1,2
		c0.1,0.6,0.2,1.1,0.4,1.4h-4.3c-0.1-0.2-0.1-0.5-0.2-0.7c-0.1-0.2-0.1-0.5-0.1-0.8c-0.7,0.7-1.5,1.2-2.4,1.5
		c-0.9,0.3-1.9,0.4-2.8,0.4c-0.7,0-1.4-0.1-2.1-0.3c-0.6-0.2-1.2-0.5-1.7-0.8c-0.5-0.4-0.9-0.9-1.1-1.4c-0.3-0.6-0.4-1.3-0.4-2.1
		c0-0.9,0.2-1.6,0.5-2.2c0.3-0.6,0.7-1,1.2-1.4c0.5-0.3,1-0.6,1.7-0.8c0.6-0.2,1.3-0.3,1.9-0.4c0.6-0.1,1.3-0.2,1.9-0.2
		c0.6-0.1,1.2-0.1,1.6-0.3c0.5-0.1,0.9-0.3,1.1-0.5c0.3-0.2,0.4-0.6,0.4-1c0-0.5-0.1-0.8-0.2-1.1c-0.2-0.3-0.4-0.5-0.6-0.6
		c-0.3-0.1-0.5-0.2-0.9-0.3s-0.7-0.1-1.1-0.1c-0.8,0-1.5,0.2-2,0.5s-0.8,1-0.8,1.8H49.6z M59.4,147c-0.2,0.2-0.4,0.3-0.7,0.4
		c-0.3,0.1-0.6,0.2-0.9,0.2c-0.3,0.1-0.6,0.1-1,0.2s-0.7,0.1-1,0.1c-0.3,0.1-0.6,0.1-0.9,0.2c-0.3,0.1-0.6,0.2-0.8,0.4
		s-0.4,0.4-0.6,0.6c-0.1,0.3-0.2,0.6-0.2,1c0,0.4,0.1,0.7,0.2,1c0.1,0.3,0.3,0.5,0.6,0.6s0.5,0.3,0.8,0.3s0.6,0.1,1,0.1
		c0.8,0,1.5-0.1,1.9-0.4c0.5-0.3,0.8-0.6,1-1s0.4-0.8,0.4-1.2c0-0.4,0.1-0.7,0.1-1V147z"/>
	<path class="st0" d="M74.4,141.9c-0.7,0-1.2,0.2-1.7,0.5c-0.5,0.3-0.8,0.7-1.1,1.2c-0.3,0.5-0.5,1-0.6,1.6
		c-0.1,0.6-0.2,1.2-0.2,1.8c0,0.6,0.1,1.1,0.2,1.7c0.1,0.6,0.3,1.1,0.6,1.6c0.3,0.5,0.6,0.9,1.1,1.2c0.5,0.3,1,0.5,1.7,0.5
		c1,0,1.8-0.3,2.4-0.9s0.9-1.3,1-2.3h4.1c-0.3,2.1-1.1,3.6-2.4,4.7s-3,1.6-5.1,1.6c-1.2,0-2.2-0.2-3.2-0.6c-1-0.4-1.8-0.9-2.5-1.6
		c-0.7-0.7-1.2-1.5-1.6-2.5c-0.4-1-0.6-2-0.6-3.2c0-1.2,0.2-2.3,0.5-3.3c0.3-1,0.9-1.9,1.5-2.7s1.5-1.3,2.5-1.8
		c1-0.4,2.1-0.6,3.4-0.6c0.9,0,1.8,0.1,2.7,0.4c0.8,0.2,1.6,0.6,2.3,1.1c0.7,0.5,1.2,1.1,1.6,1.8c0.4,0.7,0.7,1.6,0.7,2.6h-4.2
		C77.3,142.8,76.2,141.9,74.4,141.9z"/>
	<path class="st0" d="M92.7,139.1v2.8h-3.1v7.7c0,0.7,0.1,1.2,0.4,1.4c0.2,0.2,0.7,0.4,1.4,0.4c0.2,0,0.5,0,0.7,0
		c0.2,0,0.4,0,0.6-0.1v3.3c-0.4,0.1-0.8,0.1-1.2,0.1c-0.4,0-0.9,0-1.3,0c-0.7,0-1.3,0-1.9-0.1c-0.6-0.1-1.1-0.3-1.6-0.5
		s-0.8-0.6-1.1-1.1c-0.3-0.5-0.4-1.1-0.4-1.9v-9.2h-2.6v-2.8h2.6v-4.7h4.3v4.7H92.7z"/>
	<path class="st0" d="M94.9,136.7v-3.5h4.3v3.5H94.9z M99.2,139.1v15.5h-4.3v-15.5H99.2z"/>
	<path class="st0" d="M109.9,141.9c-0.7,0-1.2,0.2-1.7,0.5c-0.5,0.3-0.8,0.7-1.1,1.2c-0.3,0.5-0.5,1-0.6,1.6
		c-0.1,0.6-0.2,1.2-0.2,1.8c0,0.6,0.1,1.1,0.2,1.7c0.1,0.6,0.3,1.1,0.6,1.6c0.3,0.5,0.6,0.9,1.1,1.2c0.5,0.3,1,0.5,1.7,0.5
		c1,0,1.8-0.3,2.4-0.9s0.9-1.3,1-2.3h4.1c-0.3,2.1-1.1,3.6-2.4,4.7s-3,1.6-5.1,1.6c-1.2,0-2.2-0.2-3.2-0.6c-1-0.4-1.8-0.9-2.5-1.6
		c-0.7-0.7-1.2-1.5-1.6-2.5c-0.4-1-0.6-2-0.6-3.2c0-1.2,0.2-2.3,0.5-3.3c0.3-1,0.9-1.9,1.5-2.7s1.5-1.3,2.5-1.8
		c1-0.4,2.1-0.6,3.4-0.6c0.9,0,1.8,0.1,2.7,0.4c0.8,0.2,1.6,0.6,2.3,1.1c0.7,0.5,1.2,1.1,1.6,1.8c0.4,0.7,0.7,1.6,0.7,2.6h-4.2
		C112.8,142.8,111.7,141.9,109.9,141.9z"/>
	<path class="st0" d="M119.6,143.9c0.1-1,0.3-1.8,0.8-2.5c0.4-0.7,1-1.2,1.7-1.6c0.7-0.4,1.4-0.7,2.3-0.9c0.8-0.2,1.7-0.3,2.6-0.3
		c0.8,0,1.6,0.1,2.4,0.2c0.8,0.1,1.5,0.3,2.2,0.6c0.7,0.3,1.2,0.8,1.6,1.3c0.4,0.6,0.6,1.3,0.6,2.3v8.1c0,0.7,0,1.4,0.1,2
		c0.1,0.6,0.2,1.1,0.4,1.4h-4.3c-0.1-0.2-0.1-0.5-0.2-0.7c-0.1-0.2-0.1-0.5-0.1-0.8c-0.7,0.7-1.5,1.2-2.4,1.5
		c-0.9,0.3-1.9,0.4-2.8,0.4c-0.7,0-1.4-0.1-2.1-0.3c-0.6-0.2-1.2-0.5-1.7-0.8c-0.5-0.4-0.9-0.9-1.1-1.4c-0.3-0.6-0.4-1.3-0.4-2.1
		c0-0.9,0.2-1.6,0.5-2.2c0.3-0.6,0.7-1,1.2-1.4c0.5-0.3,1-0.6,1.7-0.8c0.6-0.2,1.3-0.3,1.9-0.4c0.6-0.1,1.3-0.2,1.9-0.2
		s1.2-0.1,1.7-0.3c0.5-0.1,0.9-0.3,1.1-0.5c0.3-0.2,0.4-0.6,0.4-1c0-0.5-0.1-0.8-0.2-1.1c-0.1-0.3-0.3-0.5-0.6-0.6s-0.5-0.2-0.9-0.3
		s-0.7-0.1-1.1-0.1c-0.8,0-1.5,0.2-2,0.5c-0.5,0.4-0.8,1-0.8,1.8H119.6z M129.4,147c-0.2,0.2-0.4,0.3-0.7,0.4
		c-0.3,0.1-0.6,0.2-0.9,0.2c-0.3,0.1-0.6,0.1-1,0.2s-0.7,0.1-1,0.1c-0.3,0.1-0.6,0.1-0.9,0.2c-0.3,0.1-0.6,0.2-0.8,0.4
		c-0.2,0.2-0.4,0.4-0.6,0.6c-0.1,0.3-0.2,0.6-0.2,1c0,0.4,0.1,0.7,0.2,1c0.1,0.3,0.3,0.5,0.6,0.6s0.5,0.3,0.8,0.3s0.6,0.1,1,0.1
		c0.8,0,1.5-0.1,2-0.4c0.5-0.3,0.8-0.6,1-1s0.4-0.8,0.4-1.2c0-0.4,0.1-0.7,0.1-1V147z"/>
	<path class="st0" d="M141.3,133.2v21.4h-4.3v-21.4H141.3z"/>
</g>
<g>
	<path class="st0" d="M39.5,184.6L35.9,170h-0.1l-3.6,14.6h-4.8l-5.7-21.4h4.7l3.4,14.6H30l3.7-14.6h4.4l3.7,14.8h0.1l3.5-14.8H50
		l-5.8,21.4H39.5z"/>
	<path class="st0" d="M51.8,166.7v-3.5h4.3v3.5H51.8z M56.1,169.1v15.5h-4.3v-15.5H56.1z"/>
	<path class="st0" d="M63,180.7c0.2,0.3,0.4,0.6,0.7,0.8c0.3,0.2,0.6,0.4,1,0.5c0.4,0.1,0.8,0.1,1.2,0.1c0.3,0,0.6,0,0.9-0.1
		c0.3-0.1,0.6-0.2,0.9-0.3c0.3-0.1,0.5-0.3,0.7-0.6s0.3-0.6,0.3-0.9c0-0.6-0.4-1.1-1.3-1.4c-0.9-0.3-2-0.6-3.6-1
		c-0.6-0.1-1.2-0.3-1.8-0.5c-0.6-0.2-1.1-0.4-1.6-0.8c-0.5-0.3-0.8-0.7-1.1-1.2c-0.3-0.5-0.4-1-0.4-1.7c0-1,0.2-1.8,0.6-2.5
		c0.4-0.6,0.9-1.1,1.5-1.5s1.4-0.6,2.2-0.8c0.8-0.1,1.6-0.2,2.5-0.2c0.8,0,1.7,0.1,2.4,0.2c0.8,0.2,1.5,0.4,2.1,0.8s1.1,0.9,1.5,1.5
		c0.4,0.6,0.7,1.4,0.7,2.4h-4.1c-0.1-0.8-0.4-1.4-0.9-1.7c-0.6-0.3-1.2-0.4-2-0.4c-0.2,0-0.5,0-0.8,0c-0.3,0-0.5,0.1-0.8,0.2
		s-0.4,0.2-0.6,0.4c-0.2,0.2-0.2,0.4-0.2,0.8c0,0.4,0.1,0.7,0.4,0.9c0.3,0.2,0.6,0.4,1.1,0.6c0.5,0.1,1,0.3,1.5,0.4
		c0.6,0.1,1.2,0.3,1.8,0.4c0.6,0.1,1.2,0.3,1.8,0.5c0.6,0.2,1.1,0.5,1.6,0.8s0.8,0.7,1.1,1.2c0.3,0.5,0.4,1.1,0.4,1.8
		c0,1-0.2,1.9-0.6,2.6s-0.9,1.2-1.6,1.7c-0.7,0.4-1.4,0.7-2.3,0.9c-0.9,0.2-1.7,0.3-2.6,0.3c-0.9,0-1.8-0.1-2.6-0.3
		c-0.9-0.2-1.6-0.5-2.3-0.9c-0.7-0.4-1.2-1-1.6-1.7c-0.4-0.7-0.7-1.6-0.7-2.6h4C62.7,180,62.8,180.4,63,180.7z"/>
	<path class="st0" d="M86.6,182.6c-0.5,0.8-1.2,1.4-2,1.8c-0.8,0.4-1.7,0.6-2.7,0.6c-1.2,0-2.2-0.2-3.1-0.7
		c-0.9-0.4-1.6-1.1-2.2-1.8c-0.6-0.8-1-1.7-1.3-2.7c-0.3-1-0.4-2-0.4-3.1c0-1,0.1-2,0.4-3s0.7-1.8,1.3-2.6c0.6-0.7,1.3-1.3,2.1-1.8
		c0.9-0.5,1.9-0.7,3-0.7c0.9,0,1.8,0.2,2.6,0.6c0.8,0.4,1.5,1,2,1.7h0.1v-7.8h4.3v21.4h-4L86.6,182.6L86.6,182.6z M86.4,174.9
		c-0.1-0.6-0.3-1.1-0.6-1.6c-0.3-0.4-0.7-0.8-1.1-1.1s-1-0.4-1.7-0.4s-1.3,0.1-1.8,0.4c-0.5,0.3-0.9,0.6-1.2,1.1
		c-0.3,0.5-0.5,1-0.6,1.6c-0.1,0.6-0.2,1.2-0.2,1.8c0,0.6,0.1,1.2,0.2,1.8c0.1,0.6,0.4,1.1,0.7,1.6c0.3,0.5,0.7,0.9,1.2,1.1
		c0.5,0.3,1,0.4,1.7,0.4c0.7,0,1.3-0.1,1.8-0.4c0.5-0.3,0.8-0.7,1.1-1.1c0.3-0.5,0.5-1,0.6-1.6s0.2-1.2,0.2-1.9
		S86.5,175.5,86.4,174.9z"/>
	<path class="st0" d="M94,173.5c0.4-1,0.9-1.9,1.6-2.6s1.5-1.3,2.5-1.7c1-0.4,2.1-0.6,3.3-0.6c1.2,0,2.3,0.2,3.3,0.6
		c1,0.4,1.8,0.9,2.5,1.7s1.2,1.6,1.6,2.6c0.4,1,0.6,2.1,0.6,3.4c0,1.2-0.2,2.4-0.6,3.4s-0.9,1.9-1.6,2.6s-1.5,1.3-2.5,1.6
		c-1,0.4-2.1,0.6-3.3,0.6c-1.2,0-2.3-0.2-3.3-0.6c-1-0.4-1.8-0.9-2.5-1.6s-1.2-1.6-1.6-2.6s-0.6-2.1-0.6-3.4
		C93.4,175.6,93.6,174.5,94,173.5z M97.8,178.7c0.1,0.6,0.3,1.1,0.6,1.6c0.3,0.5,0.7,0.8,1.2,1.1c0.5,0.3,1.1,0.4,1.8,0.4
		c0.7,0,1.3-0.1,1.8-0.4c0.5-0.3,0.9-0.7,1.2-1.1c0.3-0.5,0.5-1,0.6-1.6s0.2-1.2,0.2-1.8c0-0.6-0.1-1.2-0.2-1.8
		c-0.1-0.6-0.3-1.1-0.6-1.6c-0.3-0.5-0.7-0.8-1.2-1.1c-0.5-0.3-1.1-0.4-1.8-0.4c-0.7,0-1.3,0.1-1.8,0.4c-0.5,0.3-0.9,0.7-1.2,1.1
		c-0.3,0.5-0.5,1-0.6,1.6c-0.1,0.6-0.2,1.2-0.2,1.8C97.7,177.5,97.7,178.1,97.8,178.7z"/>
	<path class="st0" d="M116.3,169.1v2.1h0.1c0.6-0.8,1.2-1.4,2-1.9c0.8-0.4,1.7-0.7,2.7-0.7c1,0,1.9,0.2,2.7,0.6c0.8,0.4,1.4,1,1.8,2
		c0.5-0.7,1.1-1.3,1.9-1.8s1.7-0.8,2.8-0.8c0.8,0,1.6,0.1,2.3,0.3c0.7,0.2,1.3,0.5,1.8,1s0.9,1,1.2,1.7s0.4,1.6,0.4,2.6v10.4h-4.3
		v-8.8c0-0.5,0-1-0.1-1.5s-0.2-0.9-0.3-1.2c-0.2-0.3-0.4-0.6-0.8-0.8c-0.4-0.2-0.8-0.3-1.4-0.3c-0.6,0-1.1,0.1-1.5,0.3
		c-0.4,0.2-0.7,0.5-0.9,0.9c-0.2,0.4-0.4,0.8-0.4,1.3c-0.1,0.5-0.1,0.9-0.1,1.4v8.6H122v-8.7c0-0.5,0-0.9,0-1.4
		c0-0.5-0.1-0.9-0.3-1.2c-0.1-0.4-0.4-0.7-0.8-0.9c-0.3-0.2-0.9-0.3-1.5-0.3c-0.2,0-0.5,0-0.8,0.1s-0.7,0.3-1,0.5
		c-0.3,0.2-0.6,0.6-0.8,1.1c-0.2,0.5-0.3,1.1-0.3,1.8v9h-4.3v-15.5H116.3z"/>
</g>
<g>
	<path class="st0" d="M59.8,201.9v-2.8h2.5v-1.2c0-1.4,0.4-2.5,1.3-3.4c0.9-0.9,2.2-1.3,3.9-1.3c0.4,0,0.8,0,1.1,0s0.8,0.1,1.1,0.1
		v3.2c-0.5-0.1-1-0.1-1.6-0.1c-0.6,0-1,0.1-1.2,0.4s-0.4,0.7-0.4,1.4v0.9h2.9v2.8h-2.9v12.7h-4.3v-12.7H59.8z"/>
	<path class="st0" d="M71.5,203.5c0.4-1,0.9-1.9,1.6-2.6s1.5-1.3,2.5-1.7c1-0.4,2.1-0.6,3.3-0.6c1.2,0,2.3,0.2,3.3,0.6
		c1,0.4,1.8,0.9,2.5,1.7s1.2,1.6,1.6,2.6c0.4,1,0.6,2.1,0.6,3.4c0,1.2-0.2,2.4-0.6,3.4s-0.9,1.9-1.6,2.6s-1.5,1.3-2.5,1.6
		c-1,0.4-2.1,0.6-3.3,0.6c-1.2,0-2.3-0.2-3.3-0.6c-1-0.4-1.8-0.9-2.5-1.6s-1.2-1.6-1.6-2.6s-0.6-2.1-0.6-3.4
		C70.9,205.6,71.1,204.5,71.5,203.5z M75.3,208.7c0.1,0.6,0.3,1.1,0.6,1.6c0.3,0.5,0.7,0.8,1.2,1.1c0.5,0.3,1.1,0.4,1.8,0.4
		c0.7,0,1.3-0.1,1.8-0.4c0.5-0.3,0.9-0.7,1.2-1.1c0.3-0.5,0.5-1,0.6-1.6s0.2-1.2,0.2-1.8c0-0.6-0.1-1.2-0.2-1.8
		c-0.1-0.6-0.3-1.1-0.6-1.6c-0.3-0.5-0.7-0.8-1.2-1.1c-0.5-0.3-1.1-0.4-1.8-0.4c-0.7,0-1.3,0.1-1.8,0.4c-0.5,0.3-0.9,0.7-1.2,1.1
		c-0.3,0.5-0.5,1-0.6,1.6c-0.1,0.6-0.2,1.2-0.2,1.8C75.2,207.5,75.2,208.1,75.3,208.7z"/>
	<path class="st0" d="M93.8,199.1v2.9h0.1c0.2-0.5,0.5-0.9,0.8-1.3c0.3-0.4,0.7-0.8,1.2-1.1c0.4-0.3,0.9-0.5,1.4-0.7
		c0.5-0.2,1-0.2,1.6-0.2c0.3,0,0.6,0.1,0.9,0.2v4c-0.2,0-0.4-0.1-0.7-0.1c-0.3,0-0.5,0-0.8,0c-0.8,0-1.4,0.1-2,0.4
		c-0.5,0.3-1,0.6-1.3,1.1c-0.3,0.5-0.6,1-0.7,1.6s-0.2,1.2-0.2,1.9v7h-4.3v-15.5H93.8z"/>
</g>
<g>
	<path class="st0" d="M31.9,223.2c1.4,0,2.7,0.2,3.9,0.7c1.2,0.4,2.2,1.1,3.1,2s1.5,2,2,3.3c0.5,1.3,0.7,2.9,0.7,4.6
		c0,1.6-0.2,3-0.6,4.3c-0.4,1.3-1,2.5-1.8,3.4c-0.8,1-1.8,1.7-3,2.3c-1.2,0.6-2.6,0.8-4.3,0.8h-9.2v-21.4H31.9z M31.6,240.6
		c0.7,0,1.3-0.1,2-0.3c0.6-0.2,1.2-0.6,1.7-1.1c0.5-0.5,0.9-1.2,1.2-2c0.3-0.8,0.4-1.8,0.4-3c0-1.1-0.1-2.1-0.3-2.9
		c-0.2-0.9-0.6-1.6-1-2.2c-0.5-0.6-1.1-1.1-1.9-1.4s-1.8-0.5-2.9-0.5h-3.4v13.5H31.6z"/>
	<path class="st0" d="M49,240.9c0.6,0.6,1.6,0.9,2.8,0.9c0.9,0,1.6-0.2,2.2-0.6c0.6-0.4,1-0.9,1.1-1.4h3.8c-0.6,1.9-1.5,3.2-2.8,4
		c-1.2,0.8-2.7,1.2-4.5,1.2c-1.2,0-2.3-0.2-3.3-0.6c-1-0.4-1.8-0.9-2.5-1.7c-0.7-0.7-1.2-1.6-1.6-2.6c-0.4-1-0.6-2.1-0.6-3.3
		c0-1.2,0.2-2.2,0.6-3.2c0.4-1,0.9-1.9,1.6-2.6c0.7-0.7,1.5-1.3,2.5-1.7c1-0.4,2-0.6,3.2-0.6c1.3,0,2.5,0.3,3.5,0.8
		c1,0.5,1.8,1.2,2.4,2.1c0.6,0.9,1.1,1.8,1.4,2.9c0.3,1.1,0.4,2.2,0.3,3.4H48C48,239.3,48.4,240.3,49,240.9z M53.8,232.7
		c-0.5-0.6-1.3-0.8-2.3-0.8c-0.7,0-1.2,0.1-1.7,0.3c-0.5,0.2-0.8,0.5-1.1,0.9c-0.3,0.3-0.5,0.7-0.6,1.1c-0.1,0.4-0.2,0.7-0.2,1h6.9
		C54.7,234.1,54.4,233.3,53.8,232.7z"/>
	<path class="st0" d="M65.7,229.1v2.2h0.1c0.5-0.9,1.2-1.6,2.1-2c0.9-0.4,1.7-0.6,2.6-0.6c1.1,0,2.1,0.2,2.8,0.5s1.3,0.7,1.7,1.3
		c0.4,0.6,0.7,1.2,0.9,2c0.2,0.8,0.3,1.7,0.3,2.6v9.5H72v-8.8c0-1.3-0.2-2.2-0.6-2.9c-0.4-0.6-1.1-0.9-2.1-0.9c-1.2,0-2,0.3-2.5,1
		c-0.5,0.7-0.8,1.8-0.8,3.4v8.1h-4.3v-15.5H65.7z"/>
	<path class="st0" d="M88,229.1v2.8h-3.1v7.7c0,0.7,0.1,1.2,0.4,1.4c0.2,0.2,0.7,0.4,1.4,0.4c0.2,0,0.5,0,0.7,0c0.2,0,0.4,0,0.6-0.1
		v3.3c-0.4,0.1-0.8,0.1-1.2,0.1c-0.4,0-0.9,0-1.3,0c-0.7,0-1.3,0-1.9-0.1c-0.6-0.1-1.1-0.3-1.6-0.5s-0.8-0.6-1.1-1.1
		c-0.3-0.5-0.4-1.1-0.4-1.9v-9.2H78v-2.8h2.6v-4.7h4.3v4.7H88z"/>
	<path class="st0" d="M90.2,226.7v-3.5h4.3v3.5H90.2z M94.4,229.1v15.5h-4.3v-15.5H94.4z"/>
	<path class="st0" d="M101.4,240.7c0.2,0.3,0.4,0.6,0.7,0.8c0.3,0.2,0.6,0.4,1,0.5c0.4,0.1,0.8,0.1,1.2,0.1c0.3,0,0.6,0,0.9-0.1
		c0.3-0.1,0.6-0.2,0.9-0.3c0.3-0.1,0.5-0.3,0.7-0.6s0.3-0.6,0.3-0.9c0-0.6-0.4-1.1-1.3-1.4c-0.9-0.3-2-0.6-3.6-1
		c-0.6-0.1-1.2-0.3-1.8-0.5c-0.6-0.2-1.1-0.4-1.6-0.8c-0.5-0.3-0.8-0.7-1.1-1.2c-0.3-0.5-0.4-1-0.4-1.7c0-1,0.2-1.8,0.6-2.5
		c0.4-0.6,0.9-1.1,1.5-1.5c0.6-0.4,1.4-0.6,2.2-0.8s1.6-0.2,2.5-0.2c0.8,0,1.7,0.1,2.4,0.2c0.8,0.2,1.5,0.4,2.1,0.8s1.1,0.9,1.5,1.5
		c0.4,0.6,0.7,1.4,0.7,2.4h-4.1c-0.1-0.8-0.4-1.4-0.9-1.7c-0.6-0.3-1.2-0.4-2-0.4c-0.2,0-0.5,0-0.8,0c-0.3,0-0.5,0.1-0.8,0.2
		c-0.2,0.1-0.4,0.2-0.6,0.4c-0.2,0.2-0.2,0.4-0.2,0.8c0,0.4,0.1,0.7,0.4,0.9c0.3,0.2,0.6,0.4,1.1,0.6s1,0.3,1.5,0.4
		c0.6,0.1,1.2,0.3,1.8,0.4c0.6,0.1,1.2,0.3,1.8,0.5c0.6,0.2,1.1,0.5,1.6,0.8s0.8,0.7,1.1,1.2c0.3,0.5,0.4,1.1,0.4,1.8
		c0,1-0.2,1.9-0.6,2.6s-0.9,1.2-1.6,1.7c-0.7,0.4-1.4,0.7-2.3,0.9c-0.9,0.2-1.7,0.3-2.6,0.3c-0.9,0-1.8-0.1-2.6-0.3
		c-0.9-0.2-1.6-0.5-2.3-0.9c-0.7-0.4-1.2-1-1.6-1.7c-0.4-0.7-0.7-1.6-0.7-2.6h4C101.1,240,101.2,240.4,101.4,240.7z"/>
	<path class="st0" d="M122.4,229.1v2.8h-3.1v7.7c0,0.7,0.1,1.2,0.4,1.4c0.2,0.2,0.7,0.4,1.4,0.4c0.2,0,0.5,0,0.7,0
		c0.2,0,0.4,0,0.6-0.1v3.3c-0.4,0.1-0.8,0.1-1.2,0.1c-0.4,0-0.9,0-1.3,0c-0.7,0-1.3,0-1.9-0.1c-0.6-0.1-1.1-0.3-1.6-0.5
		s-0.8-0.6-1.1-1.1c-0.3-0.5-0.4-1.1-0.4-1.9v-9.2h-2.6v-2.8h2.6v-4.7h4.3v4.7H122.4z"/>
	<path class="st0" d="M128,240.7c0.2,0.3,0.4,0.6,0.7,0.8c0.3,0.2,0.6,0.4,1,0.5c0.4,0.1,0.8,0.1,1.2,0.1c0.3,0,0.6,0,0.9-0.1
		c0.3-0.1,0.6-0.2,0.9-0.3c0.3-0.1,0.5-0.3,0.7-0.6s0.3-0.6,0.3-0.9c0-0.6-0.4-1.1-1.3-1.4c-0.9-0.3-2-0.6-3.6-1
		c-0.6-0.1-1.2-0.3-1.8-0.5c-0.6-0.2-1.1-0.4-1.6-0.8c-0.5-0.3-0.8-0.7-1.1-1.2c-0.3-0.5-0.4-1-0.4-1.7c0-1,0.2-1.8,0.6-2.5
		c0.4-0.6,0.9-1.1,1.5-1.5c0.6-0.4,1.4-0.6,2.2-0.8s1.6-0.2,2.5-0.2c0.8,0,1.7,0.1,2.4,0.2c0.8,0.2,1.5,0.4,2.1,0.8s1.1,0.9,1.5,1.5
		c0.4,0.6,0.7,1.4,0.7,2.4h-4.1c-0.1-0.8-0.4-1.4-0.9-1.7c-0.6-0.3-1.2-0.4-2-0.4c-0.2,0-0.5,0-0.8,0c-0.3,0-0.5,0.1-0.8,0.2
		c-0.2,0.1-0.4,0.2-0.6,0.4c-0.2,0.2-0.2,0.4-0.2,0.8c0,0.4,0.1,0.7,0.4,0.9c0.3,0.2,0.6,0.4,1.1,0.6s1,0.3,1.5,0.4
		c0.6,0.1,1.2,0.3,1.8,0.4c0.6,0.1,1.2,0.3,1.8,0.5c0.6,0.2,1.1,0.5,1.6,0.8s0.8,0.7,1.1,1.2c0.3,0.5,0.4,1.1,0.4,1.8
		c0,1-0.2,1.9-0.6,2.6s-0.9,1.2-1.6,1.7c-0.7,0.4-1.4,0.7-2.3,0.9c-0.9,0.2-1.7,0.3-2.6,0.3c-0.9,0-1.8-0.1-2.6-0.3
		c-0.9-0.2-1.6-0.5-2.3-0.9c-0.7-0.4-1.2-1-1.6-1.7c-0.4-0.7-0.7-1.6-0.7-2.6h4C127.7,240,127.8,240.4,128,240.7z"/>
</g>
</svg>
