<?xml version="1.0" encoding="utf-8"?>
<!-- Generator: Adobe Illustrator 25.4.1, SVG Export Plug-In . SVG Version: 6.00 Build 0)  -->
<svg version="1.1" id="Layer_1" xmlns="http://www.w3.org/2000/svg" xmlns:xlink="http://www.w3.org/1999/xlink" x="0px" y="0px"
	 viewBox="0 0 160 600" style="enable-background:new 0 0 160 600;" xml:space="preserve">
<style type="text/css">
	.st0{clip-path:url(#SVGID_00000104687272528819427590000011073792690154241689_);fill:#349946;}
	.st1{fill:#FFFFFF;}
</style>
<g>
	<defs>
		<rect id="SVGID_1_" x="12.8" y="337.9" width="133.8" height="28.2"/>
	</defs>
	<clipPath id="SVGID_00000002364914759101117970000014596017819877455496_">
		<use xlink:href="#SVGID_1_"  style="overflow:visible;"/>
	</clipPath>
	<path style="clip-path:url(#SVGID_00000002364914759101117970000014596017819877455496_);fill:#349946;" d="M146.7,352
		c0,7.8-7.3,14.1-16.2,14.1H29.1c-8.9,0-16.2-6.3-16.2-14.1c0-7.8,7.3-14.1,16.2-14.1h101.4C139.4,337.9,146.7,344.2,146.7,352"/>
</g>
<g>
	<path class="st1" d="M39.2,347.8c0.4,0,0.8,0.1,1.1,0.2c0.3,0.1,0.6,0.3,0.8,0.5s0.4,0.5,0.5,0.8c0.1,0.3,0.2,0.6,0.2,1
		c0,0.5-0.1,1-0.3,1.4c-0.2,0.4-0.6,0.7-1.1,0.9v0c0.2,0.1,0.4,0.2,0.6,0.3c0.2,0.1,0.3,0.3,0.4,0.5c0.1,0.2,0.2,0.4,0.2,0.6
		c0,0.2,0.1,0.5,0.1,0.7c0,0.1,0,0.3,0,0.5s0,0.4,0,0.6c0,0.2,0.1,0.4,0.1,0.6c0,0.2,0.1,0.3,0.2,0.5h-2c-0.1-0.3-0.2-0.6-0.2-1
		c0-0.4-0.1-0.8-0.1-1.1c-0.1-0.5-0.2-0.8-0.4-1c-0.2-0.2-0.6-0.3-1.1-0.3h-2v3.5h-2v-9H39.2z M38.5,351.8c0.5,0,0.8-0.1,1-0.3
		c0.2-0.2,0.3-0.5,0.3-1c0-0.4-0.1-0.8-0.3-1c-0.2-0.2-0.6-0.3-1-0.3h-2.2v2.5H38.5z"/>
	<path class="st1" d="M50.1,347.8v1.7h-4.8v1.9h4.4v1.5h-4.4v2.2h4.9v1.7h-6.8v-9H50.1z"/>
	<path class="st1" d="M56.1,347.8l3.4,9h-2.1l-0.7-2h-3.4l-0.7,2h-2l3.4-9H56.1z M56.2,353.3L55,350h0l-1.2,3.3H56.2z"/>
	<path class="st1" d="M64.1,347.8c0.6,0,1.1,0.1,1.6,0.3c0.5,0.2,0.9,0.5,1.3,0.8c0.4,0.4,0.7,0.8,0.9,1.4c0.2,0.6,0.3,1.2,0.3,2
		c0,0.7-0.1,1.3-0.3,1.8c-0.2,0.6-0.4,1-0.8,1.4s-0.8,0.7-1.3,1c-0.5,0.2-1.1,0.3-1.8,0.3h-3.9v-9H64.1z M64,355.1
		c0.3,0,0.6,0,0.8-0.1c0.3-0.1,0.5-0.2,0.7-0.5c0.2-0.2,0.4-0.5,0.5-0.8c0.1-0.3,0.2-0.8,0.2-1.3c0-0.5,0-0.9-0.1-1.2
		c-0.1-0.4-0.2-0.7-0.4-0.9c-0.2-0.3-0.5-0.5-0.8-0.6s-0.7-0.2-1.2-0.2h-1.4v5.7H64z"/>
	<path class="st1" d="M77.5,347.8l3.4,9h-2.1l-0.7-2h-3.4l-0.7,2h-2l3.4-9H77.5z M77.7,353.3l-1.1-3.3h0l-1.2,3.3H77.7z"/>
	<path class="st1" d="M86.5,347.8c0.4,0,0.8,0.1,1.1,0.2c0.3,0.1,0.6,0.3,0.8,0.5s0.4,0.5,0.5,0.8c0.1,0.3,0.2,0.6,0.2,1
		c0,0.5-0.1,1-0.3,1.4s-0.6,0.7-1.1,0.9v0c0.2,0.1,0.4,0.2,0.6,0.3c0.2,0.1,0.3,0.3,0.4,0.5c0.1,0.2,0.2,0.4,0.2,0.6
		c0,0.2,0.1,0.5,0.1,0.7c0,0.1,0,0.3,0,0.5c0,0.2,0,0.4,0,0.6c0,0.2,0.1,0.4,0.1,0.6c0,0.2,0.1,0.3,0.2,0.5h-2
		c-0.1-0.3-0.2-0.6-0.2-1c0-0.4-0.1-0.8-0.1-1.1c-0.1-0.5-0.2-0.8-0.4-1c-0.2-0.2-0.6-0.3-1.1-0.3h-2v3.5h-2v-9H86.5z M85.8,351.8
		c0.5,0,0.8-0.1,1-0.3c0.2-0.2,0.3-0.5,0.3-1c0-0.4-0.1-0.8-0.3-1c-0.2-0.2-0.6-0.3-1-0.3h-2.2v2.5H85.8z"/>
</g>
<g>
	<path class="st1" d="M89.9,349.4v-1.7h7.4v1.7h-2.7v7.3h-2v-7.3H89.9z"/>
	<path class="st1" d="M100.2,347.8v9h-2v-9H100.2z"/>
	<path class="st1" d="M107.8,350.2c-0.1-0.2-0.3-0.4-0.4-0.5c-0.2-0.1-0.4-0.3-0.6-0.3c-0.2-0.1-0.5-0.1-0.7-0.1
		c-0.4,0-0.8,0.1-1.1,0.3c-0.3,0.2-0.6,0.4-0.8,0.7s-0.3,0.6-0.4,1c-0.1,0.4-0.1,0.8-0.1,1.1c0,0.4,0,0.7,0.1,1.1
		c0.1,0.4,0.2,0.7,0.4,1c0.2,0.3,0.4,0.5,0.8,0.7c0.3,0.2,0.7,0.3,1.1,0.3c0.6,0,1.1-0.2,1.4-0.6c0.3-0.4,0.5-0.9,0.6-1.5h1.9
		c-0.1,0.6-0.2,1.1-0.4,1.5c-0.2,0.5-0.5,0.8-0.8,1.2c-0.3,0.3-0.7,0.6-1.2,0.7c-0.5,0.2-1,0.3-1.5,0.3c-0.7,0-1.3-0.1-1.9-0.4
		c-0.6-0.2-1-0.6-1.4-1c-0.4-0.4-0.7-0.9-0.9-1.5c-0.2-0.6-0.3-1.2-0.3-1.8c0-0.7,0.1-1.3,0.3-1.9c0.2-0.6,0.5-1.1,0.9-1.5
		s0.8-0.8,1.4-1c0.6-0.2,1.2-0.4,1.9-0.4c0.5,0,1,0.1,1.4,0.2c0.4,0.1,0.8,0.4,1.2,0.6c0.3,0.3,0.6,0.6,0.9,1
		c0.2,0.4,0.4,0.9,0.4,1.4H108C108,350.6,107.9,350.4,107.8,350.2z"/>
	<path class="st1" d="M113.3,347.8v7.3h4.4v1.7h-6.4v-9H113.3z"/>
	<path class="st1" d="M125.5,347.8v1.7h-4.8v1.9h4.4v1.5h-4.4v2.2h4.9v1.7h-6.8v-9H125.5z"/>
</g>
</svg>
