<?xml version="1.0" encoding="utf-8"?>
<!-- Generator: Adobe Illustrator 25.4.1, SVG Export Plug-In . SVG Version: 6.00 Build 0)  -->
<svg version="1.1" id="Layer_1" xmlns="http://www.w3.org/2000/svg" xmlns:xlink="http://www.w3.org/1999/xlink" x="0px" y="0px"
	 viewBox="0 0 160 600" style="enable-background:new 0 0 160 600;" xml:space="preserve">
<style type="text/css">
	.st0{clip-path:url(#SVGID_00000018943245589633164550000007934144172598151053_);fill:#231F20;}
	.st1{clip-path:url(#SVGID_00000018943245589633164550000007934144172598151053_);fill:#22B0E6;}
</style>
<g>
	<defs>
		<rect id="SVGID_1_" x="51.8" y="405.9" width="55.9" height="19"/>
	</defs>
	<clipPath id="SVGID_00000059311160633588557470000000782031721336657579_">
		<use xlink:href="#SVGID_1_"  style="overflow:visible;"/>
	</clipPath>
	<path style="clip-path:url(#SVGID_00000059311160633588557470000000782031721336657579_);fill:#231F20;" d="M52.2,416.1h3
		c2.4,0,2.8,1.5,2.8,2.6c0,1-0.5,2.6-2.8,2.6h-1.5v3.2h-1.5V416.1z M53.7,420h1.5c0.7,0,1.5-0.3,1.5-1.4c0-1.1-0.7-1.4-1.4-1.4h-1.5
		V420z"/>
	<path style="clip-path:url(#SVGID_00000059311160633588557470000000782031721336657579_);fill:#231F20;" d="M58.9,418.4h1.2v1.2h0
		c0.2-0.6,0.9-1.3,1.8-1.3c0.3,0,0.4,0,0.5,0v1.3c-0.2,0-0.4-0.1-0.6-0.1c-0.9,0-1.6,0.7-1.6,2.1v2.9h-1.3V418.4z"/>
	<path style="clip-path:url(#SVGID_00000059311160633588557470000000782031721336657579_);fill:#231F20;" d="M62.6,421.4
		c0-1.8,1.1-3.2,3-3.2s3,1.3,3,3.2c0,1.9-1.1,3.2-3,3.2S62.6,423.2,62.6,421.4 M67.4,421.4c0-1-0.5-2.1-1.7-2.1s-1.7,1.1-1.7,2.1
		c0,1.1,0.5,2.1,1.7,2.1S67.4,422.4,67.4,421.4"/>
	<path style="clip-path:url(#SVGID_00000059311160633588557470000000782031721336657579_);fill:#231F20;" d="M68.9,418.4H70v-1.8
		h1.3v1.8h1.2v1h-1.2v3.2c0,0.5,0,0.8,0.6,0.8c0.2,0,0.4,0,0.6,0v1c-0.3,0-0.6,0.1-0.9,0.1c-1.4,0-1.6-0.5-1.7-1.5v-3.6h-1V418.4z"
		/>
	<path style="clip-path:url(#SVGID_00000059311160633588557470000000782031721336657579_);fill:#231F20;" d="M74.3,421.7
		c0,0.9,0.5,1.8,1.6,1.8c0.8,0,1.2-0.3,1.5-1h1.3c-0.3,1.3-1.4,2.1-2.7,2.1c-1.9,0-3-1.3-3-3.2c0-1.7,1.1-3.2,2.9-3.2
		c1.9,0,3.1,1.7,2.8,3.5H74.3z M77.4,420.9c0-0.8-0.6-1.6-1.5-1.6c-0.9,0-1.6,0.7-1.6,1.6H77.4z"/>
	<path style="clip-path:url(#SVGID_00000059311160633588557470000000782031721336657579_);fill:#231F20;" d="M83.8,420.4
		c-0.1-0.7-0.6-1.1-1.4-1.1c-0.7,0-1.7,0.4-1.7,2.2c0,1,0.4,2.1,1.6,2.1c0.8,0,1.3-0.5,1.4-1.4h1.3c-0.2,1.6-1.2,2.4-2.8,2.4
		c-1.9,0-2.9-1.3-2.9-3.1c0-1.8,1-3.2,3-3.2c1.4,0,2.6,0.7,2.7,2.2H83.8z"/>
	<path style="clip-path:url(#SVGID_00000059311160633588557470000000782031721336657579_);fill:#231F20;" d="M85.5,418.4h1v-1.8h1.3
		v1.8H89v1h-1.2v3.2c0,0.5,0,0.8,0.6,0.8c0.2,0,0.4,0,0.6,0v1c-0.3,0-0.6,0.1-0.9,0.1c-1.4,0-1.6-0.5-1.7-1.5v-3.6h-1V418.4z"/>
	<path style="clip-path:url(#SVGID_00000059311160633588557470000000782031721336657579_);fill:#231F20;" d="M90.6,416.1h1.3v1.3
		h-1.3V416.1z M90.6,418.4h1.3v6h-1.3V418.4z"/>
	<polygon style="clip-path:url(#SVGID_00000059311160633588557470000000782031721336657579_);fill:#231F20;" points="92.8,418.4 
		94.3,418.4 96.2,423 96.2,423 98,418.4 99.4,418.4 96.9,424.4 95.4,424.4 	"/>
	<path style="clip-path:url(#SVGID_00000059311160633588557470000000782031721336657579_);fill:#231F20;" d="M101,421.7
		c0,0.9,0.5,1.8,1.6,1.8c0.8,0,1.2-0.3,1.5-1h1.3c-0.3,1.3-1.4,2.1-2.7,2.1c-1.9,0-3-1.3-3-3.2c0-1.7,1.1-3.2,2.9-3.2
		c1.9,0,3.1,1.7,2.8,3.5H101z M104.1,420.9c0-0.8-0.6-1.6-1.5-1.6c-0.9,0-1.6,0.7-1.6,1.6H104.1z"/>
	<path style="clip-path:url(#SVGID_00000059311160633588557470000000782031721336657579_);fill:#22B0E6;" d="M88,414.7
		c-0.9-3.3-3.5-5.9-6.8-6.8c-0.3-1-1.2-1.8-2.4-1.8s-2.1,0.7-2.4,1.8c-3.3,0.8-5.9,3.4-6.8,6.8l-0.1,0.4h2l0.1-0.2
		c0.8-2.4,2.7-4.3,5.1-5c0.4,0.7,1.2,1.2,2.1,1.2c0.9,0,1.7-0.5,2.1-1.2c2.4,0.7,4.3,2.5,5.1,5l0.1,0.2h2L88,414.7z"/>
	<path style="clip-path:url(#SVGID_00000059311160633588557470000000782031721336657579_);fill:#231F20;" d="M106.9,423.4
		c0.3,0,0.6,0.3,0.6,0.6c0,0.3-0.3,0.6-0.6,0.6c-0.3,0-0.6-0.3-0.6-0.6C106.3,423.7,106.5,423.4,106.9,423.4 M107.3,424
		c0-0.3-0.2-0.5-0.5-0.5c-0.3,0-0.5,0.2-0.5,0.5c0,0.3,0.2,0.5,0.5,0.5C107.1,424.5,107.3,424.3,107.3,424 M106.6,423.6h0.3
		c0.2,0,0.2,0.1,0.2,0.2c0,0.1-0.1,0.2-0.2,0.2l0.2,0.3H107l-0.2-0.3h-0.1v0.3h-0.1V423.6z M106.8,423.9c0.1,0,0.2,0,0.2-0.1
		c0-0.1-0.1-0.1-0.1-0.1h-0.1v0.2H106.8z"/>
</g>
</svg>
