<svg id="Layer_1" xmlns="http://www.w3.org/2000/svg" viewBox="0 0 300 600"><style>.st0{fill:#393}.st1{fill:#231f20}</style><path class="st0" d="M119.7 143.3v8.4h8.9v-8.4h4.8v22h-4.8v-9.5h-8.9v9.5h-4.8v-22h4.8zM137 154.2c.1-1 .3-1.9.8-2.6.5-.7 1-1.2 1.7-1.6.7-.4 1.5-.7 2.4-.9.9-.2 1.8-.3 2.6-.3s1.6.1 2.4.2c.8.1 1.6.3 2.2.7.7.3 1.2.8 1.7 1.4.4.6.6 1.4.6 2.3v8.3c0 .7 0 1.4.1 2.1.1.7.2 1.2.4 1.5h-4.4c-.1-.2-.1-.5-.2-.8-.1-.3-.1-.5-.1-.8-.7.7-1.5 1.2-2.5 1.5-.9.3-1.9.4-2.9.4-.8 0-1.5-.1-2.1-.3-.7-.2-1.2-.5-1.7-.9s-.9-.9-1.2-1.5c-.3-.6-.4-1.3-.4-2.1 0-.9.2-1.6.5-2.2.3-.6.7-1.1 1.2-1.4.5-.3 1.1-.6 1.7-.8.6-.2 1.3-.3 2-.4.7-.1 1.3-.2 1.9-.2.6-.1 1.2-.2 1.7-.3.5-.1.9-.3 1.2-.5.3-.2.4-.6.4-1 0-.5-.1-.8-.2-1.1s-.4-.5-.6-.6c-.3-.2-.6-.3-.9-.3s-.7-.1-1.1-.1c-.9 0-1.5.2-2 .6-.5.4-.8 1-.9 1.8H137zm10.1 3.3c-.2.2-.4.3-.7.4-.3.1-.6.2-.9.2s-.7.1-1 .2c-.3 0-.7.1-1 .2-.3.1-.7.1-1 .2-.3.1-.6.2-.8.4s-.4.4-.6.7c-.1.3-.2.6-.2 1s.1.7.2 1c.1.3.3.5.6.6s.5.3.9.3c.3.1.7.1 1 .1.9 0 1.5-.1 2-.4.5-.3.8-.6 1-1 .2-.4.4-.8.4-1.2.1-.4.1-.7.1-1v-1.7zM158.8 165.3l-5.5-15.9h4.6l3.4 10.9h.1l3.4-10.9h4.3l-5.4 15.9h-4.9zM175.6 161.4c.7.6 1.6 1 2.8 1 .9 0 1.6-.2 2.3-.7.6-.4 1-.9 1.2-1.4h3.8c-.6 1.9-1.6 3.3-2.8 4.1-1.3.8-2.8 1.2-4.6 1.2-1.3 0-2.4-.2-3.4-.6-1-.4-1.9-1-2.6-1.7-.7-.7-1.2-1.6-1.6-2.6-.4-1-.6-2.2-.6-3.4 0-1.2.2-2.3.6-3.3.4-1 .9-1.9 1.7-2.7.7-.7 1.6-1.3 2.6-1.8 1-.4 2.1-.6 3.3-.6 1.4 0 2.5.3 3.5.8s1.8 1.2 2.5 2.1 1.1 1.9 1.4 3c.3 1.1.4 2.3.3 3.5h-11.5c.1 1.5.4 2.5 1.1 3.1zm4.9-8.3c-.5-.6-1.3-.9-2.4-.9-.7 0-1.3.1-1.7.4-.5.2-.8.5-1.1.9-.3.3-.5.7-.6 1.1s-.2.7-.2 1h7.1c-.2-1.1-.6-2-1.1-2.5z"/><g><path class="st0" d="M57.4 175.2h5.4l5.1 8.7 5.1-8.7h5.4l-8.2 13.6v8.4h-4.8v-8.6l-8-13.4zM80.1 181.7c.5-1.4 1.2-2.6 2.1-3.7.9-1 2.1-1.9 3.4-2.5 1.3-.6 2.9-.9 4.5-.9 1.7 0 3.2.3 4.6.9 1.3.6 2.5 1.4 3.4 2.5.9 1 1.6 2.3 2.1 3.7.5 1.4.7 2.9.7 4.6 0 1.6-.2 3.1-.7 4.5-.5 1.4-1.2 2.6-2.1 3.6-.9 1-2.1 1.8-3.4 2.4-1.3.6-2.9.9-4.6.9-1.7 0-3.2-.3-4.5-.9-1.3-.6-2.5-1.4-3.4-2.4-.9-1-1.6-2.2-2.1-3.6s-.7-2.9-.7-4.5c0-1.7.3-3.2.7-4.6zm4.5 7.3c.2.9.6 1.7 1 2.4.5.7 1.1 1.3 1.8 1.7s1.7.6 2.8.6 2-.2 2.8-.6c.8-.4 1.4-1 1.8-1.7.5-.7.8-1.5 1-2.4.2-.9.3-1.8.3-2.7 0-1-.1-1.9-.3-2.8-.2-.9-.6-1.7-1-2.4-.5-.7-1.1-1.3-1.8-1.7-.8-.4-1.7-.6-2.8-.6s-2 .2-2.8.6c-.8.4-1.4 1-1.8 1.7-.5.7-.8 1.5-1 2.4-.2.9-.3 1.8-.3 2.8-.1.9.1 1.8.3 2.7zM120.5 195.5c-1.7 1.4-4 2.2-6.9 2.2-3 0-5.3-.7-6.9-2.2-1.6-1.4-2.4-3.7-2.4-6.7v-13.7h4.8v13.7c0 .6.1 1.2.2 1.8.1.6.3 1.1.6 1.5.3.4.8.8 1.4 1.1.6.3 1.4.4 2.4.4 1.7 0 2.9-.4 3.6-1.2.7-.8 1-2 1-3.6v-13.7h4.8v13.7c-.1 3-.9 5.2-2.6 6.7zM139 175.2c1 0 1.9.2 2.7.5.8.3 1.5.8 2 1.3.6.6 1 1.2 1.3 1.9.3.7.4 1.5.4 2.4 0 1.3-.3 2.4-.8 3.4-.5.9-1.4 1.7-2.7 2.2v.1c.6.2 1.1.4 1.5.8s.7.7 1 1.2.4 1 .5 1.5c.1.6.2 1.1.2 1.7 0 .3 0 .8.1 1.2 0 .5.1 1 .1 1.4.1.5.1 1 .2 1.4s.3.8.5 1.1h-4.8c-.3-.7-.4-1.5-.5-2.5-.1-1-.2-1.9-.3-2.8-.2-1.1-.5-2-1-2.5s-1.4-.8-2.6-.8H132v8.6h-4.8v-22H139zm-1.7 9.9c1.1 0 1.9-.2 2.5-.7.6-.5.8-1.3.8-2.4 0-1.1-.3-1.8-.8-2.3-.6-.5-1.4-.7-2.5-.7H132v6.2h5.3zM172.1 181c-.3-.5-.6-.9-1.1-1.2-.4-.3-.9-.6-1.5-.8-.5-.2-1.1-.3-1.7-.3-1.1 0-2 .2-2.8.6-.8.4-1.4 1-1.8 1.7-.5.7-.8 1.5-1 2.4-.2.9-.3 1.8-.3 2.8 0 .9.1 1.8.3 2.7.2.9.6 1.7 1 2.4.5.7 1.1 1.3 1.8 1.7s1.7.6 2.8.6c1.5 0 2.6-.5 3.5-1.4.8-.9 1.3-2.1 1.5-3.6h4.7c-.1 1.4-.4 2.6-1 3.7-.5 1.1-1.2 2.1-2 2.8-.8.8-1.8 1.4-3 1.8-1.1.4-2.4.6-3.7.6-1.7 0-3.2-.3-4.5-.9-1.3-.6-2.5-1.4-3.4-2.4-.9-1-1.6-2.2-2.1-3.6s-.7-2.9-.7-4.5.2-3.2.7-4.6c.5-1.4 1.2-2.6 2.1-3.7.9-1 2.1-1.9 3.4-2.5 1.3-.6 2.9-.9 4.5-.9 1.2 0 2.4.2 3.4.5 1.1.3 2 .9 2.9 1.5.9.7 1.6 1.5 2.1 2.5.6 1 .9 2.1 1 3.4h-4.7c0-.3-.2-.8-.4-1.3zM191.7 175.2l8.2 22h-5l-1.7-4.9H185l-1.7 4.9h-4.9l8.3-22h5zm.3 13.5l-2.8-8.1h-.1l-2.9 8.1h5.8zM206.7 175.2v9.1l8.6-9.1h6l-8.6 8.7 9.4 13.3H216l-6.6-9.9-2.8 2.8v7.1h-4.8v-22h4.9zM240.6 175.2v4.1H229v4.7h10.7v3.8H229v5.4h11.9v4.1h-16.7v-22h16.4z"/></g><g><path class="st1" d="M41.5 218.6c.1-1 .3-1.9.8-2.6.5-.7 1-1.2 1.7-1.6.7-.4 1.5-.7 2.4-.9.9-.2 1.8-.3 2.6-.3s1.6.1 2.4.2c.8.1 1.6.3 2.2.7.7.3 1.2.8 1.7 1.4.4.6.6 1.4.6 2.3v8.3c0 .7 0 1.4.1 2.1.1.7.2 1.2.4 1.5H52c-.1-.2-.1-.5-.2-.8-.1-.3-.1-.5-.1-.8-.7.7-1.5 1.2-2.5 1.5-.9.3-1.9.4-2.9.4-.8 0-1.5-.1-2.1-.3-.7-.2-1.2-.5-1.7-.9s-.9-.9-1.2-1.5c-.3-.6-.4-1.3-.4-2.1 0-.9.2-1.6.5-2.2.3-.6.7-1.1 1.2-1.4.5-.3 1.1-.6 1.7-.8.6-.2 1.3-.3 2-.4.7-.1 1.3-.2 1.9-.2.6-.1 1.2-.2 1.7-.3.5-.1.9-.3 1.2-.5.3-.2.4-.6.4-1 0-.5-.1-.8-.2-1.1-.2-.3-.4-.5-.6-.6-.3-.2-.6-.3-.9-.3-.3-.1-.7-.1-1.1-.1-.9 0-1.5.2-2 .6s-.8 1-.9 1.8h-4.3zm10.1 3.3c-.2.2-.4.3-.7.4-.3.1-.6.2-.9.2-.3.1-.7.1-1 .2-.3 0-.7.1-1 .2-.3.1-.7.1-1 .2-.3.1-.6.2-.8.4-.2.2-.4.4-.6.7-.1.3-.2.6-.2 1s.1.7.2 1c.1.3.3.5.6.6.2.2.5.3.9.3.3.1.7.1 1 .1.9 0 1.5-.1 2-.4.5-.3.8-.6 1-1 .2-.4.4-.8.4-1.2.1-.4.1-.7.1-1v-1.7zM63.5 213.7v2.2h.1c.6-.9 1.3-1.6 2.2-2 .9-.4 1.8-.6 2.7-.6 1.2 0 2.1.2 2.9.5.7.3 1.3.8 1.8 1.3.4.6.7 1.3.9 2.1.2.8.3 1.7.3 2.7v9.8H70v-9c0-1.3-.2-2.3-.6-2.9-.4-.6-1.1-1-2.2-1-1.2 0-2.1.4-2.6 1.1-.5.7-.8 1.9-.8 3.5v8.3h-4.4v-15.9h4.1zM88.9 227.6c-.5.9-1.2 1.5-2 1.9s-1.8.6-2.8.6c-1.2 0-2.2-.2-3.1-.7-.9-.5-1.6-1.1-2.2-1.9-.6-.8-1-1.7-1.3-2.7-.3-1-.4-2.1-.4-3.2s.1-2.1.4-3.1c.3-1 .7-1.9 1.3-2.6.6-.8 1.3-1.4 2.2-1.8.9-.5 1.9-.7 3.1-.7.9 0 1.8.2 2.7.6.9.4 1.5 1 2 1.8h.1v-8h4.4v22H89l-.1-2.2zm-.2-7.8c-.1-.6-.3-1.1-.6-1.6s-.7-.8-1.2-1.1c-.5-.3-1.1-.4-1.8-.4s-1.3.1-1.8.4-.9.7-1.2 1.1c-.3.5-.5 1-.6 1.6-.1.6-.2 1.2-.2 1.9 0 .6.1 1.2.2 1.8.1.6.4 1.2.7 1.6.3.5.7.9 1.2 1.2.5.3 1.1.4 1.7.4.7 0 1.3-.1 1.8-.4.5-.3.9-.7 1.2-1.2.3-.5.5-1 .6-1.6.1-.6.2-1.3.2-1.9s-.1-1.2-.2-1.8zM110.3 207.7v9.1l8.6-9.1h6l-8.6 8.7 9.4 13.3h-6.1l-6.6-9.9-2.8 2.8v7.1h-4.8v-22h4.9zM144.1 207.7v4.1h-11.6v4.7h10.7v3.8h-10.7v5.4h11.9v4.1h-16.7v-22h16.4zM164.1 207.7v4.1h-11.6v4.7h10.7v3.8h-10.7v5.4h11.9v4.1h-16.7v-22h16.4zM177.5 207.7c1.4 0 2.5.2 3.5.6s1.8.9 2.4 1.6 1 1.4 1.3 2.2c.3.8.4 1.7.4 2.6 0 .9-.1 1.8-.4 2.6-.3.9-.7 1.6-1.3 2.3-.6.7-1.4 1.2-2.4 1.6s-2.1.6-3.5.6h-5.1v7.9h-4.8v-22h9.9zm-1.3 10.3c.6 0 1.1 0 1.6-.1s1-.2 1.4-.5c.4-.2.7-.6.9-1s.4-1 .4-1.7-.1-1.3-.4-1.7-.5-.8-.9-1c-.4-.2-.8-.4-1.4-.5-.5-.1-1-.1-1.6-.1h-3.8v6.6h3.8zM202.1 234.4c-.8.6-2 .8-3.5.8h-1.3c-.4 0-.9-.1-1.3-.1v-3.6c.4 0 .8.1 1.3.1.4 0 .9.1 1.3 0 .6-.1 1-.3 1.3-.7.3-.4.4-.8.4-1.3 0-.3-.1-.7-.2-1l-5.6-14.9h4.7l3.6 10.9h.1l3.5-10.9h4.5l-6.7 17.9c-.6 1.3-1.2 2.3-2.1 2.8zM212.3 218.3c.4-1 .9-1.9 1.7-2.6.7-.7 1.6-1.3 2.6-1.7s2.1-.6 3.4-.6c1.3 0 2.4.2 3.4.6 1 .4 1.9 1 2.6 1.7.7.7 1.3 1.6 1.7 2.6.4 1 .6 2.2.6 3.5 0 1.3-.2 2.4-.6 3.4-.4 1-.9 1.9-1.7 2.6-.7.7-1.6 1.3-2.6 1.7-1 .4-2.2.6-3.4.6-1.3 0-2.4-.2-3.4-.6-1-.4-1.9-.9-2.6-1.7-.7-.7-1.3-1.6-1.7-2.6-.4-1-.6-2.2-.6-3.4 0-1.4.2-2.5.6-3.5zm4 5.3c.1.6.3 1.2.6 1.6.3.5.7.9 1.2 1.2s1.1.4 1.8.4 1.4-.1 1.9-.4c.5-.3.9-.7 1.2-1.2.3-.5.5-1 .6-1.6.1-.6.2-1.2.2-1.9 0-.6-.1-1.3-.2-1.9s-.3-1.2-.6-1.6c-.3-.5-.7-.9-1.2-1.2-.5-.3-1.1-.4-1.9-.4-.7 0-1.4.1-1.8.4-.5.3-.9.7-1.2 1.2-.3.5-.5 1-.6 1.6s-.2 1.2-.2 1.9.1 1.3.2 1.9zM241.8 229.7v-2.2h-.1c-.6.9-1.3 1.6-2.2 2-.9.4-1.8.6-2.7.6-1.2 0-2.1-.2-2.9-.5-.8-.3-1.3-.7-1.8-1.3-.4-.6-.7-1.3-.9-2.1s-.3-1.7-.3-2.7v-9.8h4.4v9c0 1.3.2 2.3.6 2.9.4.6 1.1 1 2.2 1 1.2 0 2.1-.4 2.6-1.1s.8-1.9.8-3.5v-8.3h4.4v15.9h-4.1zM253.5 213.7v3h.1c.2-.5.5-.9.8-1.4.3-.4.7-.8 1.2-1.1.5-.3.9-.5 1.4-.7.5-.2 1-.2 1.6-.2.3 0 .6.1 1 .2v4.1c-.2 0-.5-.1-.7-.1h-.8c-.8 0-1.5.1-2 .4-.6.3-1 .6-1.3 1.1s-.6 1-.7 1.6c-.1.6-.2 1.3-.2 2v7.2h-4.4v-15.9h4z"/></g><g><path class="st1" d="M51.8 243.8v-3.6h4.4v3.6h-4.4zm4.4 2.4v15.9h-4.4v-15.9h4.4zM63.8 246.2v2.2h.1c.6-.9 1.3-1.6 2.2-2 .9-.4 1.8-.6 2.7-.6 1.2 0 2.1.2 2.9.5.7.3 1.3.8 1.8 1.3.4.6.7 1.3.9 2.1.2.8.3 1.7.3 2.7v9.8h-4.4v-9c0-1.3-.2-2.3-.6-2.9-.4-.6-1.1-1-2.2-1-1.2 0-2.1.4-2.6 1.1-.5.7-.8 1.9-.8 3.5v8.3h-4.4v-15.9h4.1zM85.5 249.1c-.7 0-1.3.2-1.8.5s-.9.7-1.2 1.2c-.3.5-.5 1.1-.6 1.7-.1.6-.2 1.2-.2 1.8 0 .6.1 1.2.2 1.8.1.6.3 1.1.6 1.6s.7.9 1.1 1.2c.5.3 1 .5 1.7.5 1 0 1.9-.3 2.4-.9.6-.6.9-1.4 1.1-2.4H93c-.3 2.1-1.1 3.7-2.5 4.8-1.4 1.1-3.1 1.7-5.2 1.7-1.2 0-2.3-.2-3.3-.6-1-.4-1.8-1-2.5-1.7s-1.2-1.6-1.6-2.6c-.4-1-.6-2.1-.6-3.3 0-1.2.2-2.4.5-3.4.4-1.1.9-2 1.6-2.7s1.6-1.4 2.6-1.8c1-.4 2.2-.6 3.4-.6.9 0 1.9.1 2.7.4.9.2 1.7.6 2.3 1.1.7.5 1.2 1.1 1.7 1.9.4.8.7 1.6.7 2.7h-4.3c0-2-1.1-2.9-3-2.9zM95.7 243.8v-3.6h4.4v3.6h-4.4zm4.4 2.4v15.9h-4.4v-15.9h4.4zM107.2 258.2c.2.3.4.6.8.8.3.2.7.4 1.1.5.4.1.8.2 1.2.2.3 0 .6 0 1-.1l.9-.3c.3-.2.5-.4.7-.6.2-.3.3-.6.3-1 0-.7-.4-1.1-1.3-1.5-.9-.3-2.1-.7-3.6-1-.6-.1-1.3-.3-1.9-.5-.6-.2-1.1-.5-1.6-.8-.5-.3-.9-.7-1.1-1.2-.3-.5-.4-1.1-.4-1.8 0-1 .2-1.9.6-2.5.4-.7.9-1.2 1.6-1.6.7-.4 1.4-.6 2.2-.8.8-.2 1.7-.2 2.5-.2s1.7.1 2.5.2c.8.2 1.5.4 2.2.8.6.4 1.2.9 1.6 1.6.4.6.7 1.5.8 2.4h-4.2c-.1-.8-.4-1.4-1-1.7-.6-.3-1.3-.4-2-.4h-.8c-.3 0-.5.1-.8.2-.2.1-.4.3-.6.4-.2.2-.2.5-.2.8 0 .4.1.7.4 1s.7.4 1.1.6 1 .3 1.6.4c.6.1 1.2.3 1.8.4.6.1 1.3.3 1.9.5.6.2 1.1.5 1.6.8.5.3.9.8 1.1 1.3.3.5.4 1.1.4 1.9 0 1-.2 1.9-.6 2.6-.4.7-1 1.3-1.6 1.7s-1.5.7-2.3.9c-.9.2-1.8.3-2.7.3-.9 0-1.8-.1-2.7-.3-.9-.2-1.7-.5-2.4-.9s-1.3-1-1.7-1.7c-.4-.7-.7-1.6-.7-2.7h4.2c-.2.6-.1 1 .1 1.3zM120.2 250.8c.4-1 .9-1.9 1.7-2.6.7-.7 1.6-1.3 2.6-1.7 1-.4 2.1-.6 3.4-.6 1.3 0 2.4.2 3.4.6s1.9 1 2.6 1.7c.7.7 1.3 1.6 1.7 2.6.4 1 .6 2.2.6 3.5 0 1.3-.2 2.4-.6 3.4s-.9 1.9-1.7 2.6c-.7.7-1.6 1.3-2.6 1.7-1 .4-2.2.6-3.4.6-1.3 0-2.4-.2-3.4-.6-1-.4-1.9-.9-2.6-1.7-.7-.7-1.3-1.6-1.7-2.6s-.6-2.2-.6-3.4c0-1.4.2-2.5.6-3.5zm3.9 5.3c.1.6.3 1.2.6 1.6.3.5.7.9 1.2 1.2s1.1.4 1.8.4 1.4-.1 1.9-.4c.5-.3.9-.7 1.2-1.2.3-.5.5-1 .6-1.6.1-.6.2-1.2.2-1.9 0-.6-.1-1.3-.2-1.9-.1-.6-.3-1.2-.6-1.6-.3-.5-.7-.9-1.2-1.2-.5-.3-1.1-.4-1.9-.4s-1.4.1-1.8.4c-.5.3-.9.7-1.2 1.2-.3.5-.5 1-.6 1.6-.1.6-.2 1.2-.2 1.9s.1 1.3.2 1.9zM143 246.2v3h.1c.2-.5.5-.9.8-1.4.3-.4.8-.8 1.2-1.1.5-.3.9-.5 1.4-.7.5-.2 1-.2 1.6-.2.3 0 .6.1 1 .2v4.1c-.2 0-.5-.1-.7-.1h-.8c-.8 0-1.5.1-2 .4-.6.3-1 .6-1.3 1.1-.3.5-.6 1-.7 1.6-.1.6-.2 1.3-.2 2v7.2H139v-15.9h4zM154.5 258.2c.2.3.4.6.8.8.3.2.7.4 1.1.5.4.1.8.2 1.2.2.3 0 .6 0 1-.1l.9-.3c.3-.1.5-.4.7-.6.2-.3.3-.6.3-1 0-.7-.4-1.1-1.3-1.5-.9-.3-2.1-.7-3.6-1-.6-.1-1.3-.3-1.9-.5-.6-.2-1.1-.5-1.6-.8-.5-.3-.9-.7-1.1-1.2-.3-.5-.4-1.1-.4-1.8 0-1 .2-1.9.6-2.5.4-.7.9-1.2 1.6-1.6.7-.4 1.4-.6 2.2-.8.8-.2 1.7-.2 2.5-.2.9 0 1.7.1 2.5.2.8.2 1.5.4 2.2.8.6.4 1.2.9 1.6 1.6.4.6.7 1.5.8 2.4h-4.2c-.1-.8-.4-1.4-1-1.7-.6-.3-1.3-.4-2-.4h-.8c-.3 0-.5.1-.8.2-.2.1-.4.3-.6.4-.2.2-.2.5-.2.8 0 .4.1.7.4 1s.7.4 1.1.6 1 .3 1.6.4c.6.1 1.2.3 1.8.4.6.1 1.3.3 1.9.5.6.2 1.1.5 1.6.8.5.3.9.8 1.1 1.3.3.5.4 1.1.4 1.9 0 1-.2 1.9-.6 2.6s-1 1.3-1.6 1.7-1.5.7-2.3.9c-.9.2-1.8.3-2.7.3-.9 0-1.8-.1-2.7-.3-.9-.2-1.7-.5-2.4-.9s-1.3-1-1.7-1.7c-.4-.7-.7-1.6-.7-2.7h4.2c-.1.6-.1 1 .1 1.3zM172.5 257.4v4.7c0 .7-.1 1.3-.4 1.9-.3.6-.6 1.1-1 1.5-.4.4-.9.8-1.5 1.1-.6.3-1.2.5-1.9.6V265c.3-.1.6-.2.9-.4.3-.2.5-.4.7-.7.2-.3.4-.5.5-.9.1-.3.1-.6.1-1h-2.2v-4.7h4.8zM183.3 244.2v-4.1h18v4.1h-6.6v17.9h-4.8v-17.9h-6.6zM203.6 246.7c.5-1.4 1.2-2.6 2.1-3.7.9-1 2.1-1.9 3.4-2.5 1.3-.6 2.9-.9 4.5-.9 1.7 0 3.2.3 4.6.9 1.3.6 2.5 1.4 3.4 2.5.9 1 1.6 2.3 2.1 3.7.5 1.4.7 2.9.7 4.6 0 1.6-.2 3.1-.7 4.5-.5 1.4-1.2 2.6-2.1 3.6-.9 1-2.1 1.8-3.4 2.4-1.3.6-2.9.9-4.6.9-1.7 0-3.2-.3-4.5-.9-1.3-.6-2.5-1.4-3.4-2.4-.9-1-1.6-2.2-2.1-3.6s-.7-2.9-.7-4.5c0-1.7.2-3.2.7-4.6zm4.4 7.3c.2.9.6 1.7 1 2.4.5.7 1.1 1.3 1.8 1.7s1.7.6 2.8.6c1.1 0 2-.2 2.8-.6s1.4-1 1.8-1.7c.5-.7.8-1.5 1-2.4s.3-1.8.3-2.7c0-1-.1-1.9-.3-2.8-.2-.9-.6-1.7-1-2.4-.5-.7-1.1-1.3-1.8-1.7-.8-.4-1.7-.6-2.8-.6-1.1 0-2 .2-2.8.6-.8.4-1.4 1-1.8 1.7-.5.7-.8 1.5-1 2.4-.2.9-.3 1.8-.3 2.8 0 .9.1 1.8.3 2.7zM227.6 246.7c.5-1.4 1.2-2.6 2.1-3.7.9-1 2.1-1.9 3.4-2.5 1.3-.6 2.9-.9 4.5-.9 1.7 0 3.2.3 4.6.9 1.3.6 2.5 1.4 3.4 2.5.9 1 1.6 2.3 2.1 3.7.5 1.4.7 2.9.7 4.6 0 1.6-.2 3.1-.7 4.5-.5 1.4-1.2 2.6-2.1 3.6-.9 1-2.1 1.8-3.4 2.4-1.3.6-2.9.9-4.6.9-1.7 0-3.2-.3-4.5-.9-1.3-.6-2.5-1.4-3.4-2.4-.9-1-1.6-2.2-2.1-3.6s-.7-2.9-.7-4.5c-.1-1.7.2-3.2.7-4.6zm4.4 7.3c.2.9.6 1.7 1 2.4.5.7 1.1 1.3 1.8 1.7s1.7.6 2.8.6c1.1 0 2-.2 2.8-.6s1.4-1 1.8-1.7c.5-.7.8-1.5 1-2.4s.3-1.8.3-2.7c0-1-.1-1.9-.3-2.8-.2-.9-.6-1.7-1-2.4-.5-.7-1.1-1.3-1.8-1.7-.8-.4-1.7-.6-2.8-.6-1.1 0-2 .2-2.8.6-.8.4-1.4 1-1.8 1.7-.5.7-.8 1.5-1 2.4-.2.9-.3 1.8-.3 2.8 0 .9.1 1.8.3 2.7z"/></g></svg>