<svg xmlns="http://www.w3.org/2000/svg" viewBox="0 0 300 600"><path d="M22.3 190v18H33v4.1H17.5v-22h4.8zM35.4 193.6V190h4.4v3.6h-4.4zm4.4 2.5V212h-4.4v-15.9h4.4zM41.6 199v-2.9h2.6v-1.2c0-1.4.4-2.6 1.3-3.5.9-.9 2.2-1.4 4-1.4h1.2c.4 0 .8.1 1.1.1v3.3c-.5-.1-1-.1-1.6-.1-.6 0-1 .1-1.3.4s-.4.7-.4 1.4v1h3v2.9h-3v13h-4.4v-13h-2.5zM58.2 208.2c.7.6 1.6 1 2.8 1 .9 0 1.6-.2 2.3-.7.6-.4 1-.9 1.2-1.4h3.9c-.6 1.9-1.6 3.3-2.8 4.1-1.3.8-2.8 1.2-4.6 1.2-1.3 0-2.4-.2-3.4-.6-1-.4-1.9-1-2.6-1.7-.7-.7-1.2-1.6-1.6-2.6-.4-1-.6-2.2-.6-3.4 0-1.2.2-2.3.6-3.3.4-1 .9-1.9 1.7-2.7.7-.7 1.6-1.3 2.6-1.8 1-.4 2.1-.6 3.3-.6 1.4 0 2.5.3 3.5.8s1.8 1.2 2.5 2.1c.6.9 1.1 1.9 1.4 3 .3 1.1.4 2.3.3 3.5H57.1c0 1.4.4 2.5 1.1 3.1zm4.9-8.4c-.5-.6-1.3-.9-2.4-.9-.7 0-1.3.1-1.7.4-.5.2-.8.5-1.1.9s-.5.7-.6 1.1-.2.7-.2 1h7.1c-.2-1.1-.6-1.9-1.1-2.5zM76.2 207.3v4.7c0 .7-.1 1.3-.4 1.9-.3.6-.6 1.1-1 1.5-.4.4-.9.8-1.5 1.1-.6.3-1.2.5-1.9.6v-2.2c.3-.1.6-.2.9-.4.3-.2.5-.4.7-.7.2-.3.4-.5.5-.9.1-.3.1-.6.1-1h-2.2v-4.7h4.8zM98.2 190c1.4 0 2.7.2 4 .7s2.3 1.1 3.2 2c.9.9 1.6 2 2.1 3.4s.8 2.9.8 4.8c0 1.6-.2 3.1-.6 4.4s-1 2.5-1.9 3.5c-.8 1-1.9 1.8-3.1 2.3-1.2.6-2.7.8-4.4.8h-9.5v-22h9.4zm-.3 18c.7 0 1.4-.1 2-.3.7-.2 1.2-.6 1.8-1.1.5-.5.9-1.2 1.2-2 .3-.8.5-1.9.5-3.1 0-1.1-.1-2.1-.3-3-.2-.9-.6-1.7-1.1-2.3-.5-.6-1.1-1.1-2-1.5-.8-.3-1.8-.5-3-.5h-3.4V208h4.3zM111.2 193.6V190h4.4v3.6h-4.4zm4.4 2.5V212h-4.4v-15.9h4.4zM122.7 208.1c.2.3.4.6.8.8.3.2.7.4 1.1.5.4.1.8.2 1.2.2.3 0 .6 0 1-.1l.9-.3c.3-.2.5-.4.7-.6.2-.3.3-.6.3-1 0-.7-.4-1.1-1.3-1.5-.9-.3-2.1-.7-3.6-1-.6-.1-1.3-.3-1.9-.5-.6-.2-1.1-.5-1.6-.8-.5-.3-.9-.7-1.1-1.2-.3-.5-.4-1.1-.4-1.8 0-1 .2-1.9.6-2.5.4-.7.9-1.2 1.6-1.6.7-.4 1.4-.6 2.2-.8.8-.2 1.7-.2 2.5-.2s1.7.1 2.5.2c.8.2 1.5.4 2.2.8.6.4 1.2.9 1.6 1.6.4.6.7 1.5.8 2.4h-4.2c-.1-.8-.4-1.4-1-1.7-.6-.3-1.3-.4-2-.4h-.8c-.3 0-.5.1-.8.2-.2.1-.4.3-.6.4-.2.2-.2.5-.2.8 0 .4.1.7.4 1s.7.4 1.1.6 1 .3 1.6.4c.6.1 1.2.3 1.8.4.6.1 1.3.3 1.9.5.6.2 1.1.5 1.6.8.5.3.9.8 1.1 1.3.3.5.4 1.1.4 1.9 0 1-.2 1.9-.6 2.6-.4.7-1 1.3-1.6 1.7s-1.5.7-2.3.9c-.9.2-1.8.3-2.7.3-.9 0-1.8-.1-2.7-.3-.9-.2-1.7-.5-2.4-.9s-1.3-1-1.7-1.7c-.4-.7-.7-1.6-.7-2.7h4.2c-.2.5-.1.9.1 1.3zM135.4 201c.1-1 .3-1.9.8-2.6.5-.7 1-1.2 1.7-1.6.7-.4 1.5-.7 2.4-.9s1.8-.3 2.6-.3 1.6.1 2.4.2c.8.1 1.6.3 2.2.7.7.3 1.2.8 1.7 1.4.4.6.6 1.4.6 2.3v8.3c0 .7 0 1.4.1 2.1.1.7.2 1.2.4 1.5H146c-.1-.2-.1-.5-.2-.8-.1-.3-.1-.5-.1-.8-.7.7-1.5 1.2-2.5 1.5-.9.3-1.9.4-2.9.4-.8 0-1.5-.1-2.1-.3-.7-.2-1.2-.5-1.7-.9s-.9-.9-1.2-1.5c-.3-.6-.4-1.3-.4-2.1 0-.9.2-1.6.5-2.2.3-.6.7-1.1 1.2-1.4.5-.3 1.1-.6 1.7-.8.6-.2 1.3-.3 2-.4.7-.1 1.3-.2 1.9-.2.6-.1 1.2-.2 1.7-.3.5-.1.9-.3 1.2-.5.3-.2.4-.6.4-1 0-.5-.1-.8-.2-1.1s-.4-.5-.6-.6c-.3-.2-.6-.3-.9-.3s-.7-.1-1.1-.1c-.9 0-1.5.2-2 .6-.5.4-.8 1-.9 1.8h-4.4zm10.1 3.2c-.2.2-.4.3-.7.4-.3.1-.6.2-.9.2s-.7.1-1 .2c-.3 0-.7.1-1 .2-.3.1-.7.1-1 .2-.3.1-.6.2-.8.4s-.4.4-.6.7c-.1.3-.2.6-.2 1s.1.7.2 1c.1.3.3.5.6.6s.5.3.9.3c.3.1.7.1 1 .1.9 0 1.5-.1 2-.4.5-.3.8-.6 1-1 .2-.4.4-.8.4-1.2.1-.4.1-.7.1-1v-1.7zM157.6 190v8h.1c.5-.8 1.3-1.4 2.2-1.8.9-.4 1.9-.6 2.8-.6.8 0 1.6.2 2.4.5s1.5.8 2.1 1.5c.6.7 1.1 1.5 1.5 2.6.4 1.1.6 2.3.6 3.8s-.2 2.7-.6 3.8c-.4 1.1-.9 1.9-1.5 2.6-.6.7-1.3 1.2-2.1 1.5s-1.6.5-2.4.5c-1.2 0-2.2-.2-3.1-.6-.9-.4-1.6-1-2.1-1.9h-.1v2h-4.2v-22h4.4zm7.1 12.1c-.1-.6-.4-1.2-.7-1.6-.3-.5-.7-.8-1.2-1.1-.5-.3-1-.4-1.7-.4-.6 0-1.2.1-1.7.4-.5.3-.9.7-1.2 1.1-.3.5-.5 1-.7 1.6-.1.6-.2 1.3-.2 1.9 0 .7.1 1.3.2 1.9.1.6.4 1.2.7 1.6.3.5.7.8 1.2 1.1s1 .4 1.7.4 1.2-.1 1.7-.4.8-.7 1.2-1.1c.3-.5.5-1 .7-1.6.1-.6.2-1.3.2-1.9 0-.6 0-1.2-.2-1.9zM172.2 193.6V190h4.4v3.6h-4.4zm4.4 2.5V212h-4.4v-15.9h4.4zM184.5 190v22h-4.4v-22h4.4zM188.1 193.6V190h4.4v3.6h-4.4zm4.4 2.5V212h-4.4v-15.9h4.4zM204.7 196.1v2.9h-3.2v7.9c0 .7.1 1.2.4 1.5.2.2.7.4 1.5.4h.7c.2 0 .4-.1.6-.1v3.4c-.4.1-.8.1-1.2.1h-1.3c-.7 0-1.3 0-1.9-.1-.6-.1-1.1-.3-1.6-.5-.5-.3-.8-.6-1.1-1.1-.3-.5-.4-1.1-.4-1.9V199h-2.6v-2.9h2.6v-4.8h4.4v4.8h3.1zM212.7 216.8c-.8.6-2 .8-3.5.8h-1.3c-.4 0-.9-.1-1.3-.1v-3.6c.4 0 .8.1 1.3.1.4 0 .9.1 1.3 0 .6-.1 1-.3 1.3-.7.3-.4.4-.8.4-1.3 0-.3-.1-.7-.2-1l-5.6-14.9h4.7l3.6 10.9h.1l3.5-10.9h4.5l-6.7 17.9c-.6 1.3-1.3 2.2-2.1 2.8zM231.1 201c.1-1 .3-1.9.8-2.6.5-.7 1-1.2 1.7-1.6.7-.4 1.5-.7 2.4-.9s1.8-.3 2.6-.3 1.6.1 2.4.2c.8.1 1.6.3 2.2.7.7.3 1.2.8 1.7 1.4.4.6.6 1.4.6 2.3v8.3c0 .7 0 1.4.1 2.1.1.7.2 1.2.4 1.5h-4.4c-.1-.2-.1-.5-.2-.8-.1-.3-.1-.5-.1-.8-.7.7-1.5 1.2-2.5 1.5-.9.3-1.9.4-2.9.4-.8 0-1.5-.1-2.1-.3-.7-.2-1.2-.5-1.7-.9s-.9-.9-1.2-1.5c-.3-.6-.4-1.3-.4-2.1 0-.9.2-1.6.5-2.2.3-.6.7-1.1 1.2-1.4.5-.3 1.1-.6 1.7-.8.6-.2 1.3-.3 2-.4.7-.1 1.3-.2 1.9-.2.6-.1 1.2-.2 1.7-.3.5-.1.9-.3 1.2-.5.3-.2.4-.6.4-1 0-.5-.1-.8-.2-1.1s-.4-.5-.6-.6c-.3-.2-.6-.3-.9-.3s-.7-.1-1.1-.1c-.9 0-1.5.2-2 .6-.5.4-.8 1-.9 1.8h-4.3zm10.1 3.2c-.2.2-.4.3-.7.4-.3.1-.6.2-.9.2s-.7.1-1 .2c-.3 0-.7.1-1 .2-.3.1-.7.1-1 .2-.3.1-.6.2-.8.4s-.4.4-.6.7c-.1.3-.2.6-.2 1s.1.7.2 1c.1.3.3.5.6.6s.5.3.9.3c.3.1.7.1 1 .1.9 0 1.5-.1 2-.4.5-.3.8-.6 1-1 .2-.4.4-.8.4-1.2.1-.4.1-.7.1-1v-1.7zM253.2 196.1v2.2h.1c.6-.9 1.3-1.6 2.2-2 .9-.4 1.8-.6 2.7-.6 1.2 0 2.1.2 2.9.5.7.3 1.3.8 1.8 1.3.4.6.7 1.3.9 2.1.2.8.3 1.7.3 2.7v9.8h-4.4v-9c0-1.3-.2-2.3-.6-2.9s-1.1-1-2.2-1c-1.2 0-2.1.4-2.6 1.1-.5.7-.8 1.9-.8 3.5v8.3H249v-15.9h4.2zM278.6 210c-.5.9-1.2 1.5-2 1.9-.8.4-1.8.6-2.8.6-1.2 0-2.2-.2-3.1-.7s-1.6-1.1-2.2-1.9c-.6-.8-1-1.7-1.3-2.7-.3-1-.4-2.1-.4-3.2s.1-2.1.4-3.1c.3-1 .7-1.9 1.3-2.6.6-.8 1.3-1.4 2.2-1.8.9-.5 1.9-.7 3.1-.7.9 0 1.8.2 2.7.6.9.4 1.5 1 2 1.8h.1v-8h4.4v22h-4.2l-.2-2.2zm-.2-7.9c-.1-.6-.3-1.1-.6-1.6s-.7-.8-1.2-1.1c-.5-.3-1.1-.4-1.8-.4s-1.3.1-1.8.4c-.5.3-.9.7-1.2 1.1-.3.5-.5 1-.6 1.6-.1.6-.2 1.2-.2 1.9 0 .6.1 1.2.2 1.8.1.6.4 1.2.7 1.6.3.5.7.9 1.2 1.2.5.3 1.1.4 1.7.4.7 0 1.3-.1 1.8-.4s.9-.7 1.2-1.2c.3-.5.5-1 .6-1.6.1-.6.2-1.3.2-1.9s-.1-1.2-.2-1.8z"/><g><path d="M54.8 238.5c.3.5.6.9 1.1 1.2.4.3 1 .6 1.6.7.6.2 1.2.2 1.8.2.4 0 .9 0 1.4-.1.5-.1 1-.2 1.4-.4.4-.2.8-.5 1.1-.8.3-.4.4-.8.4-1.4 0-.6-.2-1.1-.6-1.4s-.9-.7-1.5-.9c-.6-.2-1.3-.5-2.1-.6l-2.4-.6c-.8-.2-1.6-.5-2.4-.8-.8-.3-1.5-.7-2.1-1.2-.6-.5-1.1-1.1-1.5-1.8-.4-.7-.6-1.6-.6-2.6 0-1.1.2-2.1.7-2.9s1.1-1.5 1.9-2.1c.8-.6 1.7-1 2.6-1.2 1-.3 2-.4 3-.4 1.1 0 2.3.1 3.3.4 1.1.3 2 .7 2.8 1.2.8.6 1.5 1.3 2 2.2.5.9.7 2 .7 3.2h-4.7c0-.7-.2-1.2-.4-1.6-.2-.4-.5-.8-.9-1-.4-.2-.8-.4-1.3-.5-.5-.1-1.1-.2-1.6-.2-.4 0-.8 0-1.2.1s-.7.2-1.1.4c-.3.2-.6.5-.8.8-.2.3-.3.7-.3 1.2 0 .4.1.8.2 1 .2.3.5.5 1 .7.5.2 1.1.5 2 .7.9.2 2 .5 3.3.9.4.1 1 .2 1.7.4s1.5.6 2.2 1c.7.5 1.3 1.1 1.9 1.9.5.8.8 1.8.8 3 0 1-.2 1.9-.6 2.8-.4.9-1 1.6-1.7 2.2s-1.7 1.1-2.9 1.5c-1.1.3-2.5.5-4 .5-1.2 0-2.4-.1-3.5-.4s-2.1-.8-3-1.4c-.9-.6-1.6-1.4-2.1-2.4s-.8-2.2-.7-3.5h4.7c0 .9.1 1.5.4 2zM81.4 243.9v-2.2h-.1c-.6.9-1.3 1.6-2.2 2-.9.4-1.8.6-2.7.6-1.2 0-2.1-.2-2.9-.5s-1.3-.7-1.8-1.3c-.4-.6-.7-1.3-.9-2.1s-.3-1.7-.3-2.7V228H75v9c0 1.3.2 2.3.6 2.9.4.6 1.1 1 2.2 1 1.2 0 2.1-.4 2.6-1.1.5-.7.8-1.9.8-3.5V228h4.4v15.9h-4.2zM93 228v2h.1c.5-.9 1.2-1.5 2-1.9.8-.4 1.7-.6 2.7-.6 1.3 0 2.3.2 3.2.7.9.5 1.7 1.1 2.2 1.9.6.8 1 1.7 1.3 2.7.3 1 .4 2.1.4 3.2s-.1 2.1-.4 3.1-.7 1.9-1.3 2.6c-.6.8-1.3 1.4-2.2 1.8-.9.5-1.9.7-3.1.7-1 0-1.9-.2-2.7-.6s-1.5-1-2-1.8h-.1v7.5h-4.4V228H93zm5.7 12.6c.5-.3.9-.7 1.2-1.1.3-.5.5-1 .6-1.6.1-.6.2-1.2.2-1.9 0-.6-.1-1.3-.2-1.9-.1-.6-.4-1.2-.7-1.6-.3-.5-.7-.9-1.2-1.2-.5-.3-1.1-.4-1.8-.4s-1.3.1-1.8.4c-.5.3-.9.7-1.2 1.2-.3.5-.5 1-.6 1.6-.1.6-.2 1.3-.2 1.9 0 .6.1 1.3.2 1.9.1.6.3 1.2.6 1.6.3.5.7.8 1.2 1.1s1.1.4 1.8.4c.8.1 1.4-.1 1.9-.4zM111.9 228v2h.1c.5-.9 1.2-1.5 2-1.9.8-.4 1.7-.6 2.7-.6 1.3 0 2.3.2 3.2.7.9.5 1.7 1.1 2.2 1.9.6.8 1 1.7 1.3 2.7.3 1 .4 2.1.4 3.2s-.1 2.1-.4 3.1-.7 1.9-1.3 2.6c-.6.8-1.3 1.4-2.2 1.8-.9.5-1.9.7-3.1.7-1 0-1.9-.2-2.7-.6s-1.5-1-2-1.8h-.1v7.5h-4.4V228h4.3zm5.6 12.6c.5-.3.9-.7 1.2-1.1.3-.5.5-1 .6-1.6.1-.6.2-1.2.2-1.9 0-.6-.1-1.3-.2-1.9-.1-.6-.4-1.2-.7-1.6-.3-.5-.7-.9-1.2-1.2-.5-.3-1.1-.4-1.8-.4s-1.3.1-1.8.4c-.5.3-.9.7-1.2 1.2-.3.5-.5 1-.6 1.6-.1.6-.2 1.3-.2 1.9 0 .6.1 1.3.2 1.9.1.6.3 1.2.6 1.6.3.5.7.8 1.2 1.1s1.1.4 1.8.4c.9.1 1.5-.1 1.9-.4zM131 221.9v22h-4.4v-22h4.4zM139.2 240.1c.7.6 1.6 1 2.8 1 .9 0 1.6-.2 2.3-.7.6-.4 1-.9 1.2-1.4h3.8c-.6 1.9-1.6 3.3-2.8 4.1-1.3.8-2.8 1.2-4.6 1.2-1.3 0-2.4-.2-3.4-.6-1-.4-1.9-1-2.6-1.7-.7-.7-1.2-1.6-1.6-2.6-.4-1-.6-2.2-.6-3.4 0-1.2.2-2.3.6-3.3.4-1 .9-1.9 1.7-2.7.7-.7 1.6-1.3 2.6-1.8 1-.4 2.1-.6 3.3-.6 1.4 0 2.5.3 3.5.8s1.8 1.2 2.5 2.1 1.1 1.9 1.4 3c.3 1.1.4 2.3.3 3.5h-11.5c0 1.4.4 2.5 1.1 3.1zm4.9-8.4c-.5-.6-1.3-.9-2.4-.9-.7 0-1.3.1-1.7.4-.5.2-.8.5-1.1.9-.3.3-.5.7-.6 1.1s-.2.7-.2 1h7.1c-.2-1.1-.6-1.9-1.1-2.5zM156.4 228v2.2h.1c.6-.8 1.3-1.5 2.1-1.9.8-.5 1.7-.7 2.8-.7 1 0 1.9.2 2.8.6.8.4 1.5 1.1 1.9 2.1.5-.7 1.1-1.3 1.9-1.8.8-.5 1.8-.8 2.9-.8.8 0 1.6.1 2.3.3.7.2 1.3.5 1.8 1s.9 1 1.2 1.8c.3.7.4 1.6.4 2.6v10.7h-4.4v-9c0-.5 0-1-.1-1.5 0-.5-.2-.9-.3-1.2-.2-.3-.5-.6-.8-.8-.4-.2-.8-.3-1.5-.3s-1.1.1-1.5.4-.7.5-.9.9c-.2.4-.4.8-.4 1.3-.1.5-.1 1-.1 1.5v8.9h-4.4V235v-1.4c0-.5-.1-.9-.3-1.3-.2-.4-.4-.7-.8-.9s-.9-.4-1.6-.4c-.2 0-.5 0-.8.1s-.7.3-1 .5c-.3.3-.6.6-.8 1.1-.2.5-.3 1.1-.3 1.9v9.2h-4.4V228h4.2zM184.7 240.1c.7.6 1.6 1 2.8 1 .9 0 1.6-.2 2.3-.7.6-.4 1-.9 1.2-1.4h3.8c-.6 1.9-1.6 3.3-2.8 4.1-1.3.8-2.8 1.2-4.6 1.2-1.3 0-2.4-.2-3.4-.6-1-.4-1.9-1-2.6-1.7-.7-.7-1.2-1.6-1.6-2.6-.4-1-.6-2.2-.6-3.4 0-1.2.2-2.3.6-3.3.4-1 .9-1.9 1.7-2.7.7-.7 1.6-1.3 2.6-1.8 1-.4 2.1-.6 3.3-.6 1.4 0 2.5.3 3.5.8s1.8 1.2 2.5 2.1 1.1 1.9 1.4 3c.3 1.1.4 2.3.3 3.5h-11.5c.1 1.4.5 2.5 1.1 3.1zm5-8.4c-.5-.6-1.3-.9-2.4-.9-.7 0-1.3.1-1.7.4-.5.2-.8.5-1.1.9-.3.3-.5.7-.6 1.1s-.2.7-.2 1h7.1c-.2-1.1-.6-1.9-1.1-2.5zM201.9 228v2.2h.1c.6-.9 1.3-1.6 2.2-2 .9-.4 1.8-.6 2.7-.6 1.2 0 2.1.2 2.9.5.7.3 1.3.8 1.8 1.3.4.6.7 1.3.9 2.1.2.8.3 1.7.3 2.7v9.8h-4.4v-9c0-1.3-.2-2.3-.6-2.9s-1.1-1-2.2-1c-1.2 0-2.1.4-2.6 1.1-.5.7-.8 1.9-.8 3.5v8.3h-4.4v-16h4.1zM224.7 228v2.9h-3.2v7.9c0 .7.1 1.2.4 1.5.2.2.7.4 1.5.4h.7c.2 0 .4-.1.6-.1v3.4c-.4.1-.8.1-1.2.1h-1.3c-.7 0-1.3 0-1.9-.1-.6-.1-1.1-.3-1.6-.5-.5-.3-.8-.6-1.1-1.1-.3-.5-.4-1.1-.4-1.9v-9.4h-2.6V228h2.6v-4.8h4.4v4.8h3.1zM226.7 232.9c.1-1 .3-1.9.8-2.6.5-.7 1-1.2 1.7-1.6.7-.4 1.5-.7 2.4-.9s1.8-.3 2.6-.3 1.6.1 2.4.2c.8.1 1.6.3 2.2.7.7.3 1.2.8 1.7 1.4.4.6.6 1.4.6 2.3v8.3c0 .7 0 1.4.1 2.1.1.7.2 1.2.4 1.5h-4.4c-.1-.2-.1-.5-.2-.8-.1-.3-.1-.5-.1-.8-.7.7-1.5 1.2-2.5 1.5-.9.3-1.9.4-2.9.4-.8 0-1.5-.1-2.1-.3-.7-.2-1.2-.5-1.7-.9s-.9-.9-1.2-1.5c-.3-.6-.4-1.3-.4-2.1 0-.9.2-1.6.5-2.2.3-.6.7-1.1 1.2-1.4.5-.3 1.1-.6 1.7-.8.6-.2 1.3-.3 2-.4.7-.1 1.3-.2 1.9-.2.6-.1 1.2-.2 1.7-.3.5-.1.9-.3 1.2-.5.3-.2.4-.6.4-1 0-.5-.1-.8-.2-1.1s-.4-.5-.6-.6c-.3-.2-.6-.3-.9-.3s-.7-.1-1.1-.1c-.9 0-1.5.2-2 .6-.5.4-.8 1-.9 1.8h-4.3zm10.1 3.2c-.2.2-.4.3-.7.4-.3.1-.6.2-.9.2s-.7.1-1 .2c-.3 0-.7.1-1 .2-.3.1-.7.1-1 .2-.3.1-.6.2-.8.4s-.4.4-.6.7c-.1.3-.2.6-.2 1s.1.7.2 1c.1.3.3.5.6.6s.5.3.9.3c.3.1.7.1 1 .1.9 0 1.5-.1 2-.4.5-.3.8-.6 1-1 .2-.4.4-.8.4-1.2.1-.4.1-.7.1-1v-1.7zM249 221.9v22h-4.4v-22h4.4z"/></g></svg>