<svg id="Layer_1" xmlns="http://www.w3.org/2000/svg" viewBox="0 0 300 600"><style>.st0{fill:#231f20}</style><path class="st0" d="M55.2 174.3l8.2 22h-5l-1.7-4.9h-8.2l-1.7 4.9H42l8.3-22h4.9zm.3 13.5l-2.8-8.1h-.1l-2.9 8.1h5.8zM68.8 180.4v2.2h.1c.6-.9 1.3-1.6 2.2-2 .9-.4 1.8-.6 2.7-.6 1.2 0 2.1.2 2.9.5.7.3 1.3.8 1.8 1.3.4.6.7 1.3.9 2.1.2.8.3 1.7.3 2.7v9.8h-4.4v-9c0-1.3-.2-2.3-.6-2.9-.4-.6-1.1-1-2.2-1-1.2 0-2.1.4-2.6 1.1-.5.7-.8 1.9-.8 3.5v8.3h-4.4v-15.9h4.1zM93.9 194.3c-.5.9-1.2 1.5-2 1.9s-1.8.6-2.8.6c-1.2 0-2.2-.2-3.1-.7-.9-.5-1.6-1.1-2.2-1.9-.6-.8-1-1.7-1.3-2.7-.3-1-.4-2.1-.4-3.2s.1-2.1.4-3.1c.3-1 .7-1.9 1.3-2.6.6-.8 1.3-1.4 2.2-1.8.9-.5 1.9-.7 3.1-.7.9 0 1.8.2 2.7.6.9.4 1.5 1 2 1.8h.1v-8h4.4v22H94l-.1-2.2zm-.2-7.9c-.1-.6-.3-1.1-.6-1.6s-.7-.8-1.2-1.1c-.5-.3-1.1-.4-1.8-.4s-1.3.1-1.8.4-.9.7-1.2 1.1c-.3.5-.5 1-.6 1.6-.1.6-.2 1.2-.2 1.9 0 .6.1 1.2.2 1.8.1.6.4 1.2.7 1.6.3.5.7.9 1.2 1.2.5.3 1.1.4 1.7.4.7 0 1.3-.1 1.8-.4.5-.3.9-.7 1.2-1.2.3-.5.5-1 .6-1.6.1-.6.2-1.3.2-1.9s0-1.2-.2-1.8zM124.5 197.5c-.2.8-.5 1.6-1.1 2.3-.6.7-1.4 1.3-2.5 1.8s-2.5.7-4.4.7c-.8 0-1.6-.1-2.4-.3-.8-.2-1.6-.5-2.2-.9-.7-.4-1.2-.9-1.7-1.6-.4-.6-.7-1.4-.8-2.3h4.3c.2.8.6 1.4 1.2 1.7s1.3.5 2.1.5c1.2 0 2.1-.4 2.7-1.1.6-.7.8-1.7.8-2.8v-2.1h-.1c-.5.8-1.1 1.5-2 1.9-.9.4-1.8.6-2.8.6-1.2 0-2.2-.2-3.1-.6-.9-.4-1.6-1-2.1-1.7-.6-.7-1-1.6-1.2-2.6-.3-1-.4-2-.4-3.1 0-1 .1-2 .4-3 .3-1 .7-1.8 1.3-2.5.6-.7 1.3-1.3 2.1-1.7s1.8-.6 2.9-.6c1 0 2 .2 2.8.6.8.4 1.5 1 2 2h.1v-2.1h4.2v14.9c.2.4.1 1.2-.1 2zm-6-5.3c.5-.2.9-.6 1.2-1 .3-.4.5-.9.7-1.4.2-.5.2-1.1.2-1.6 0-.7-.1-1.3-.2-1.9-.1-.6-.3-1.1-.6-1.6s-.7-.8-1.1-1.1c-.5-.3-1.1-.4-1.8-.4-.6 0-1.1.1-1.6.4-.4.2-.8.6-1.1 1-.3.4-.5.9-.6 1.4-.1.5-.2 1.1-.2 1.7 0 .6.1 1.1.2 1.7.1.6.3 1.1.6 1.5.3.5.6.8 1.1 1.1.5.3 1 .4 1.7.4.5.1 1 0 1.5-.2zM132.6 192.5c.7.6 1.6 1 2.8 1 .9 0 1.6-.2 2.3-.7.6-.4 1-.9 1.2-1.4h3.8c-.6 1.9-1.6 3.3-2.8 4.1s-2.8 1.2-4.6 1.2c-1.3 0-2.4-.2-3.4-.6-1-.4-1.9-1-2.6-1.7-.7-.7-1.2-1.6-1.6-2.6-.4-1-.6-2.2-.6-3.4 0-1.2.2-2.3.6-3.3.4-1 .9-1.9 1.7-2.7.7-.7 1.6-1.3 2.6-1.8 1-.4 2.1-.6 3.3-.6 1.4 0 2.5.3 3.5.8s1.8 1.2 2.5 2.1c.6.9 1.1 1.9 1.4 3 .3 1.1.4 2.3.3 3.5h-11.5c.1 1.4.5 2.5 1.1 3.1zm5-8.4c-.5-.6-1.3-.9-2.4-.9-.7 0-1.3.1-1.7.4-.5.2-.8.5-1.1.9s-.5.7-.6 1.1-.2.7-.2 1h7.1c-.2-1.1-.6-1.9-1.1-2.5zM154.1 180.4v2.9h-3.2v7.9c0 .7.1 1.2.4 1.5.2.2.7.4 1.5.4h.7c.2 0 .4-.1.6-.1v3.4c-.4.1-.8.1-1.2.1h-1.3c-.7 0-1.3 0-1.9-.1-.6-.1-1.1-.3-1.6-.5-.5-.3-.8-.6-1.1-1.1-.3-.5-.4-1.1-.4-1.9v-9.4H144v-2.9h2.6v-4.8h4.4v4.8h3.1zM175.3 201.9v-7.6h-.1c-.5.9-1.2 1.5-2.2 1.8-.9.4-1.9.6-2.9.6-.7 0-1.5-.1-2.3-.4-.8-.3-1.5-.7-2.2-1.4s-1.2-1.5-1.6-2.6c-.4-1.1-.6-2.4-.6-3.9 0-1.1.1-2.1.4-3.2.3-1 .7-1.9 1.3-2.7.6-.8 1.3-1.4 2.2-1.9.9-.5 1.9-.7 3.2-.7 1 0 1.9.2 2.8.6.9.4 1.6 1 2 1.9h.1v-2h4.2v21.5h-4.3zm-7.2-11.7c.1.6.3 1.2.6 1.6.3.5.7.9 1.2 1.2s1.1.4 1.8.4 1.3-.1 1.8-.4.9-.6 1.2-1.1c.3-.5.5-1 .6-1.6.1-.6.2-1.2.2-1.9 0-.6-.1-1.2-.2-1.8-.1-.6-.3-1.2-.6-1.7s-.7-.9-1.2-1.2c-.5-.3-1.1-.5-1.7-.5-.7 0-1.3.1-1.8.4s-.9.7-1.2 1.2c-.3.5-.5 1-.7 1.6-.1.6-.2 1.2-.2 1.9s0 1.3.2 1.9zM193.5 196.3v-2.2h-.1c-.6.9-1.3 1.6-2.2 2-.9.4-1.8.6-2.7.6-1.2 0-2.1-.2-2.9-.5-.8-.3-1.3-.7-1.8-1.3-.4-.6-.7-1.3-.9-2.1s-.3-1.7-.3-2.7v-9.8h4.4v9c0 1.3.2 2.3.6 2.9.4.6 1.1 1 2.2 1 1.2 0 2.1-.4 2.6-1.1s.8-1.9.8-3.5v-8.3h4.4v15.9h-4.1zM200.5 185.3c.1-1 .3-1.9.8-2.6.5-.7 1-1.2 1.7-1.6.7-.4 1.5-.7 2.4-.9s1.8-.3 2.6-.3 1.6.1 2.4.2c.8.1 1.6.3 2.2.7.7.3 1.2.8 1.7 1.4.4.6.6 1.4.6 2.3v8.3c0 .7 0 1.4.1 2.1.1.7.2 1.2.4 1.5H211c-.1-.2-.1-.5-.2-.8-.1-.3-.1-.5-.1-.8-.7.7-1.5 1.2-2.5 1.5-.9.3-1.9.4-2.9.4-.8 0-1.5-.1-2.1-.3-.7-.2-1.2-.5-1.7-.9s-.9-.9-1.2-1.5c-.3-.6-.4-1.3-.4-2.1 0-.9.2-1.6.5-2.2.3-.6.7-1.1 1.2-1.4.5-.3 1.1-.6 1.7-.8.6-.2 1.3-.3 2-.4.7-.1 1.3-.2 1.9-.2.6-.1 1.2-.2 1.7-.3.5-.1.9-.3 1.2-.5.3-.2.4-.6.4-1 0-.5-.1-.8-.2-1.1s-.4-.5-.6-.6c-.3-.2-.6-.3-.9-.3s-.7-.1-1.1-.1c-.9 0-1.5.2-2 .6-.5.4-.8 1-.9 1.8h-4.3zm10.1 3.2c-.2.2-.4.3-.7.4-.3.1-.6.2-.9.2s-.7.1-1 .2c-.3 0-.7.1-1 .2-.3.1-.7.1-1 .2-.3.1-.6.2-.8.4s-.4.4-.6.7c-.1.3-.2.6-.2 1s.1.7.2 1c.1.3.3.5.6.6s.5.3.9.3c.3.1.7.1 1 .1.9 0 1.5-.1 2-.4.5-.3.8-.6 1-1 .2-.4.4-.8.4-1.2.1-.4.1-.7.1-1v-1.7zM222.6 174.3v22h-4.4v-22h4.4zM225.8 177.9v-3.6h4.4v3.6h-4.4zm4.4 2.5v15.9h-4.4v-15.9h4.4zM242.1 180.4v2.9h-3.2v7.9c0 .7.1 1.2.4 1.5.2.2.7.4 1.5.4h.7c.2 0 .4-.1.6-.1v3.4c-.4.1-.8.1-1.2.1h-1.3c-.7 0-1.3 0-1.9-.1-.6-.1-1.1-.3-1.6-.5-.5-.3-.8-.6-1.1-1.1-.3-.5-.4-1.1-.4-1.9v-9.4H232v-2.9h2.6v-4.8h4.4v4.8h3.1zM249.8 201c-.8.6-2 .8-3.5.8H245c-.4 0-.9-.1-1.3-.1v-3.6c.4 0 .8.1 1.3.1.4 0 .9.1 1.3 0 .6-.1 1-.3 1.3-.7.3-.4.4-.8.4-1.3 0-.3-.1-.7-.2-1l-5.6-14.9h4.7l3.6 10.9h.1l3.5-10.9h4.5l-6.7 17.9c-.6 1.4-1.2 2.3-2.1 2.8z"/><g><path class="st0" d="M57.7 215.1c-.7 0-1.3.2-1.8.5s-.9.7-1.2 1.2c-.3.5-.5 1.1-.6 1.7-.1.6-.2 1.2-.2 1.8 0 .6.1 1.2.2 1.8.1.6.3 1.1.6 1.6s.7.9 1.1 1.2c.5.3 1 .5 1.7.5 1 0 1.9-.3 2.4-.9.6-.6.9-1.4 1.1-2.4h4.2c-.3 2.1-1.1 3.7-2.5 4.8-1.4 1.1-3.1 1.7-5.2 1.7-1.2 0-2.3-.2-3.3-.6-1-.4-1.8-1-2.5-1.7s-1.2-1.6-1.6-2.6c-.4-1-.6-2.1-.6-3.3 0-1.2.2-2.4.5-3.4.4-1.1.9-2 1.6-2.7s1.6-1.4 2.6-1.8c1-.4 2.2-.6 3.4-.6.9 0 1.9.1 2.7.4.9.2 1.7.6 2.3 1.1.7.5 1.2 1.1 1.7 1.9.4.8.7 1.6.7 2.7h-4.3c-.1-1.9-1.2-2.9-3-2.9zM67.6 216.8c.4-1 .9-1.9 1.7-2.6.7-.7 1.6-1.3 2.6-1.7 1-.4 2.1-.6 3.4-.6 1.3 0 2.4.2 3.4.6s1.9 1 2.6 1.7c.7.7 1.3 1.6 1.7 2.6.4 1 .6 2.2.6 3.5 0 1.3-.2 2.4-.6 3.4s-.9 1.9-1.7 2.6c-.7.7-1.6 1.3-2.6 1.7-1 .4-2.2.6-3.4.6-1.3 0-2.4-.2-3.4-.6-1-.4-1.9-.9-2.6-1.7-.7-.7-1.3-1.6-1.7-2.6s-.6-2.2-.6-3.4c0-1.3.2-2.5.6-3.5zm3.9 5.3c.1.6.3 1.2.6 1.6.3.5.7.9 1.2 1.2s1.1.4 1.8.4 1.4-.1 1.9-.4c.5-.3.9-.7 1.2-1.2.3-.5.5-1 .6-1.6.1-.6.2-1.2.2-1.9 0-.6-.1-1.3-.2-1.9-.1-.6-.3-1.2-.6-1.6-.3-.5-.7-.9-1.2-1.2-.5-.3-1.1-.4-1.9-.4s-1.4.1-1.8.4c-.5.3-.9.7-1.2 1.2-.3.5-.5 1-.6 1.6-.1.6-.2 1.2-.2 1.9s.1 1.3.2 1.9zM89.9 228.2l-5.5-15.9H89l3.4 10.9h.1l3.4-10.9h4.3l-5.4 15.9h-4.9zM106.4 224.4c.7.6 1.6 1 2.8 1 .9 0 1.6-.2 2.3-.7.6-.4 1-.9 1.2-1.4h3.9c-.6 1.9-1.6 3.3-2.8 4.1-1.3.8-2.8 1.2-4.6 1.2-1.3 0-2.4-.2-3.4-.6-1-.4-1.9-1-2.6-1.7-.7-.7-1.2-1.6-1.6-2.6-.4-1-.6-2.2-.6-3.4 0-1.2.2-2.3.6-3.3.4-1 .9-1.9 1.7-2.7.7-.7 1.6-1.3 2.6-1.8 1-.4 2.1-.6 3.3-.6 1.4 0 2.5.3 3.5.8s1.8 1.2 2.5 2.1c.6.9 1.1 1.9 1.4 3 .3 1.1.4 2.3.3 3.5h-11.5c0 1.4.4 2.5 1 3.1zm5-8.4c-.5-.6-1.3-.9-2.4-.9-.7 0-1.3.1-1.7.4-.5.2-.8.5-1.1.9s-.5.7-.6 1.1-.2.7-.2 1h7.1c-.2-1.1-.6-1.9-1.1-2.5zM123.3 212.3v3h.1c.2-.5.5-.9.8-1.4.3-.4.7-.8 1.2-1.1.5-.3.9-.5 1.4-.7.5-.2 1-.2 1.6-.2.3 0 .6.1 1 .2v4.1c-.2 0-.5-.1-.7-.1h-.8c-.8 0-1.5.1-2 .4-.6.3-1 .6-1.3 1.1s-.6 1-.7 1.6c-.1.6-.2 1.3-.2 2v7.2h-4.4v-15.9h4zM130.7 217.2c.1-1 .3-1.9.8-2.6.5-.7 1-1.2 1.7-1.6.7-.4 1.5-.7 2.4-.9.9-.2 1.8-.3 2.6-.3s1.6.1 2.4.2c.8.1 1.6.3 2.2.7.7.3 1.2.8 1.7 1.4.4.6.6 1.4.6 2.3v8.3c0 .7 0 1.4.1 2.1.1.7.2 1.2.4 1.5h-4.4c-.1-.2-.1-.5-.2-.8-.1-.3-.1-.5-.1-.8-.7.7-1.5 1.2-2.5 1.5-.9.3-1.9.4-2.9.4-.8 0-1.5-.1-2.1-.3-.7-.2-1.2-.5-1.7-.9s-.9-.9-1.2-1.5c-.3-.6-.4-1.3-.4-2.1 0-.9.2-1.6.5-2.2.3-.6.7-1.1 1.2-1.4.5-.3 1.1-.6 1.7-.8.6-.2 1.3-.3 2-.4.7-.1 1.3-.2 1.9-.2.6-.1 1.2-.2 1.7-.3.5-.1.9-.3 1.2-.5.3-.2.4-.6.4-1 0-.5-.1-.8-.2-1.1-.2-.3-.4-.5-.6-.6-.3-.2-.6-.3-.9-.3-.3-.1-.7-.1-1.1-.1-.9 0-1.5.2-2 .6s-.8 1-.9 1.8h-4.3zm10.1 3.2c-.2.2-.4.3-.7.4-.3.1-.6.2-.9.2-.3.1-.7.1-1 .2-.3 0-.7.1-1 .2-.3.1-.7.1-1 .2-.3.1-.6.2-.8.4-.2.2-.4.4-.6.7-.1.3-.2.6-.2 1s.1.7.2 1c.1.3.3.5.6.6.2.2.5.3.9.3.3.1.7.1 1 .1.9 0 1.5-.1 2-.4.5-.3.8-.6 1-1 .2-.4.4-.8.4-1.2.1-.4.1-.7.1-1v-1.7zM163.3 229.4c-.2.8-.5 1.6-1.1 2.3-.6.7-1.4 1.3-2.5 1.8s-2.5.7-4.4.7c-.8 0-1.6-.1-2.4-.3-.8-.2-1.5-.5-2.2-.9-.7-.4-1.2-.9-1.7-1.6-.4-.6-.7-1.4-.8-2.3h4.3c.2.8.6 1.4 1.2 1.7.6.3 1.3.5 2.1.5 1.2 0 2.1-.4 2.7-1.1.6-.7.8-1.7.8-2.8v-2.1h-.1c-.5.8-1.1 1.5-2 1.9s-1.8.6-2.8.6c-1.2 0-2.2-.2-3.1-.6-.9-.4-1.6-1-2.1-1.7-.6-.7-1-1.6-1.2-2.6-.3-1-.4-2-.4-3.1 0-1 .1-2 .4-3 .3-1 .7-1.8 1.3-2.5.6-.7 1.3-1.3 2.1-1.7.9-.4 1.8-.6 2.9-.6 1 0 2 .2 2.8.6.8.4 1.5 1 2 2h.1v-2.1h4.2v14.9c.2.4.1 1.2-.1 2zm-6-5.3c.5-.2.9-.6 1.2-1 .3-.4.5-.9.7-1.4.2-.5.2-1.1.2-1.6 0-.7-.1-1.3-.2-1.9-.1-.6-.3-1.1-.6-1.6s-.7-.8-1.1-1.1c-.5-.3-1.1-.4-1.8-.4-.6 0-1.1.1-1.6.4-.4.2-.8.6-1.1 1s-.5.9-.6 1.4c-.1.5-.2 1.1-.2 1.7 0 .6.1 1.1.2 1.7.1.6.3 1.1.6 1.5s.6.8 1.1 1.1c.5.3 1 .4 1.7.4.5.1 1 0 1.5-.2zM171.5 224.4c.7.6 1.6 1 2.8 1 .9 0 1.6-.2 2.3-.7.6-.4 1-.9 1.2-1.4h3.8c-.6 1.9-1.6 3.3-2.8 4.1-1.3.8-2.8 1.2-4.6 1.2-1.3 0-2.4-.2-3.4-.6-1-.4-1.9-1-2.6-1.7-.7-.7-1.2-1.6-1.6-2.6-.4-1-.6-2.2-.6-3.4 0-1.2.2-2.3.6-3.3.4-1 .9-1.9 1.7-2.7.7-.7 1.6-1.3 2.6-1.8 1-.4 2.1-.6 3.3-.6 1.4 0 2.5.3 3.5.8s1.8 1.2 2.5 2.1 1.1 1.9 1.4 3c.3 1.1.4 2.3.3 3.5h-11.5c.1 1.4.4 2.5 1.1 3.1zm4.9-8.4c-.5-.6-1.3-.9-2.4-.9-.7 0-1.3.1-1.7.4-.5.2-.8.5-1.1.9-.3.3-.5.7-.6 1.1s-.2.7-.2 1h7.1c-.2-1.1-.6-1.9-1.1-2.5zM206.2 228.2l-2.8-10.7h-.1l-2.7 10.7H196l-5.1-15.9h4.6l2.9 10.8h.1l2.6-10.8h4.2l2.7 10.8h.1l2.9-10.8h4.5l-5 15.9h-4.3zM217.3 209.8v-3.6h4.4v3.6h-4.4zm4.4 2.5v15.9h-4.4v-15.9h4.4zM233.6 212.3v2.9h-3.2v7.9c0 .7.1 1.2.4 1.5.2.2.7.4 1.5.4h.7c.2 0 .4-.1.6-.1v3.4c-.4.1-.8.1-1.2.1h-1.3c-.7 0-1.3 0-1.9-.1-.6-.1-1.1-.3-1.6-.5-.5-.3-.8-.6-1.1-1.1-.3-.5-.4-1.1-.4-1.9v-9.4h-2.6v-2.9h2.6v-4.8h4.4v4.8h3.1zM239.8 206.2v8.3h.1c.6-.9 1.3-1.6 2.1-2 .9-.4 1.7-.6 2.5-.6 1.2 0 2.1.2 2.9.5.7.3 1.3.8 1.8 1.3.4.6.7 1.3.9 2.1.2.8.3 1.7.3 2.7v9.8H246v-9c0-1.3-.2-2.3-.6-2.9s-1.1-1-2.2-1c-1.2 0-2.1.4-2.6 1.1-.5.7-.8 1.9-.8 3.5v8.3h-4.4v-22h4.4z"/></g><g><path class="st0" d="M41.8 256.3c.7.6 1.6 1 2.8 1 .9 0 1.6-.2 2.3-.7.6-.4 1-.9 1.2-1.4H52c-.6 1.9-1.6 3.3-2.8 4.1-1.3.8-2.8 1.2-4.6 1.2-1.3 0-2.4-.2-3.4-.6-1-.4-1.9-1-2.6-1.7-.7-.7-1.2-1.6-1.6-2.6-.4-1-.6-2.2-.6-3.4 0-1.2.2-2.3.6-3.3.4-1 .9-1.9 1.7-2.7.7-.7 1.6-1.3 2.6-1.8 1-.4 2.1-.6 3.3-.6 1.4 0 2.5.3 3.5.8s1.8 1.2 2.5 2.1c.6.9 1.1 1.9 1.4 3 .3 1.1.4 2.3.3 3.5H40.7c.1 1.4.5 2.5 1.1 3.1zm5-8.4c-.5-.6-1.3-.9-2.4-.9-.7 0-1.3.1-1.7.4-.5.2-.8.5-1.1.9s-.5.7-.6 1.1-.2.7-.2 1h7.1c-.2-1.1-.6-1.9-1.1-2.5zM53.4 244.2h5l2.8 4.2 2.8-4.2h4.8l-5.2 7.5 5.9 8.5h-5l-3.3-5-3.3 5H53l5.7-8.4-5.3-7.6zM79.6 244.2v2.9h-3.2v7.9c0 .7.1 1.2.4 1.5.2.2.7.4 1.5.4h.7c.2 0 .4-.1.6-.1v3.4c-.4.1-.8.1-1.2.1h-1.3c-.7 0-1.3 0-1.9-.1-.6-.1-1.1-.3-1.6-.5-.5-.3-.8-.6-1.1-1.1-.3-.5-.4-1.1-.4-1.9v-9.4h-2.6v-2.9H72v-4.8h4.4v4.8h3.2zM85.5 244.2v3h.1c.2-.5.5-.9.8-1.4.3-.4.7-.8 1.2-1.1.5-.3.9-.5 1.4-.7.5-.2 1-.2 1.6-.2.3 0 .6.1 1 .2v4.1c-.2 0-.5-.1-.7-.1h-.8c-.8 0-1.5.1-2 .4-.6.3-1 .6-1.3 1.1s-.6 1-.7 1.6c-.1.6-.2 1.3-.2 2v7.2h-4.4v-15.9h4zM92.9 249.1c.1-1 .3-1.9.8-2.6.5-.7 1-1.2 1.7-1.6.7-.4 1.5-.7 2.4-.9.9-.2 1.8-.3 2.6-.3s1.6.1 2.4.2c.8.1 1.6.3 2.2.7.7.3 1.2.8 1.7 1.4.4.6.6 1.4.6 2.3v8.3c0 .7 0 1.4.1 2.1.1.7.2 1.2.4 1.5h-4.4c-.1-.2-.1-.5-.2-.8-.1-.3-.1-.5-.1-.8-.7.7-1.5 1.2-2.5 1.5-.9.3-1.9.4-2.9.4-.8 0-1.5-.1-2.1-.3-.7-.2-1.2-.5-1.7-.9s-.9-.9-1.2-1.5c-.3-.6-.4-1.3-.4-2.1 0-.9.2-1.6.5-2.2.3-.6.7-1.1 1.2-1.4.5-.3 1.1-.6 1.7-.8.6-.2 1.3-.3 2-.4.7-.1 1.3-.2 1.9-.2.6-.1 1.2-.2 1.7-.3.5-.1.9-.3 1.2-.5.3-.2.4-.6.4-1 0-.5-.1-.8-.2-1.1-.2-.3-.4-.5-.6-.6-.3-.2-.6-.3-.9-.3-.3-.1-.7-.1-1.1-.1-.9 0-1.5.2-2 .6s-.8 1-.9 1.8h-4.3zm10.1 3.2c-.2.2-.4.3-.7.4-.3.1-.6.2-.9.2-.3.1-.7.1-1 .2-.3 0-.7.1-1 .2-.3.1-.7.1-1 .2-.3.1-.6.2-.8.4-.2.2-.4.4-.6.7-.1.3-.2.6-.2 1s.1.7.2 1c.1.3.3.5.6.6.2.2.5.3.9.3.3.1.7.1 1 .1.9 0 1.5-.1 2-.4.5-.3.8-.6 1-1 .2-.4.4-.8.4-1.2.1-.4.1-.7.1-1v-1.7zM114.2 256.1c.2.3.4.6.8.8.3.2.7.4 1.1.5.4.1.8.2 1.2.2.3 0 .6 0 1-.1l.9-.3c.3-.2.5-.4.7-.6.2-.3.3-.6.3-1 0-.7-.4-1.1-1.3-1.5-.9-.3-2.1-.7-3.6-1-.6-.1-1.3-.3-1.9-.5-.6-.2-1.1-.5-1.6-.8-.5-.3-.9-.7-1.1-1.2-.3-.5-.4-1.1-.4-1.8 0-1 .2-1.9.6-2.5.4-.7.9-1.2 1.6-1.6.7-.4 1.4-.6 2.2-.8.8-.2 1.7-.2 2.5-.2s1.7.1 2.5.2c.8.2 1.5.4 2.2.8.6.4 1.2.9 1.6 1.6.4.6.7 1.5.8 2.4h-4.2c-.1-.8-.4-1.4-1-1.7-.6-.3-1.3-.4-2-.4h-.8c-.3 0-.5.1-.8.2-.2.1-.4.3-.6.4-.2.2-.2.5-.2.8 0 .4.1.7.4 1s.7.4 1.1.6 1 .3 1.6.4c.6.1 1.2.3 1.8.4.6.1 1.3.3 1.9.5.6.2 1.1.5 1.6.8.5.3.9.8 1.1 1.3.3.5.4 1.1.4 1.9 0 1-.2 1.9-.6 2.6-.4.7-1 1.3-1.6 1.7s-1.5.7-2.3.9c-.9.2-1.8.3-2.7.3-.9 0-1.8-.1-2.7-.3-.9-.2-1.7-.5-2.4-.9s-1.3-1-1.7-1.7c-.4-.7-.7-1.6-.7-2.7h4.2c-.2.6-.1 1 .1 1.3zM135.1 241.7v-3.6h4.4v3.6h-4.4zm4.4 2.5v15.9h-4.4v-15.9h4.4zM146.8 244.2v2.2h.1c.6-.9 1.3-1.6 2.2-2 .9-.4 1.8-.6 2.7-.6 1.2 0 2.1.2 2.9.5.7.3 1.3.8 1.8 1.3.4.6.7 1.3.9 2.1.2.8.3 1.7.3 2.7v9.8h-4.4v-9c0-1.3-.2-2.3-.6-2.9s-1.1-1-2.2-1c-1.2 0-2.1.4-2.6 1.1-.5.7-.8 1.9-.8 3.5v8.3h-4.4v-15.9h4.1zM168.3 247c-.7 0-1.3.2-1.8.5s-.9.7-1.2 1.2c-.3.5-.5 1.1-.6 1.7-.1.6-.2 1.2-.2 1.8 0 .6.1 1.2.2 1.8.1.6.3 1.1.6 1.6s.7.9 1.1 1.2c.5.3 1 .5 1.7.5 1 0 1.9-.3 2.4-.9.6-.6.9-1.4 1.1-2.4h4.2c-.3 2.1-1.1 3.7-2.5 4.8-1.4 1.1-3.1 1.7-5.2 1.7-1.2 0-2.3-.2-3.3-.6s-1.8-1-2.5-1.7-1.2-1.6-1.6-2.6c-.4-1-.6-2.1-.6-3.3 0-1.2.2-2.4.5-3.4.4-1.1.9-2 1.6-2.7.7-.8 1.5-1.4 2.6-1.8s2.2-.6 3.5-.6c.9 0 1.9.1 2.7.4.9.2 1.7.6 2.3 1.1.7.5 1.2 1.1 1.7 1.9.4.8.7 1.6.7 2.7h-4.3c-.2-1.9-1.3-2.9-3.1-2.9zM182.5 238.1v22h-4.4v-22h4.4zM196.5 260.1v-2.2h-.1c-.6.9-1.3 1.6-2.2 2-.9.4-1.8.6-2.7.6-1.2 0-2.1-.2-2.9-.5-.8-.3-1.3-.7-1.8-1.3-.4-.6-.7-1.3-.9-2.1s-.3-1.7-.3-2.7v-9.8h4.4v9c0 1.3.2 2.3.6 2.9.4.6 1.1 1 2.2 1 1.2 0 2.1-.4 2.6-1.1s.8-1.9.8-3.5v-8.3h4.4V260h-4.1zM215 258.1c-.5.9-1.2 1.5-2 1.9-.8.4-1.8.6-2.8.6-1.2 0-2.2-.2-3.1-.7s-1.6-1.1-2.2-1.9c-.6-.8-1-1.7-1.3-2.7-.3-1-.4-2.1-.4-3.2s.1-2.1.4-3.1c.3-1 .7-1.9 1.3-2.6.6-.8 1.3-1.4 2.2-1.8.9-.5 1.9-.7 3.1-.7.9 0 1.8.2 2.7.6.9.4 1.5 1 2 1.8h.1v-8h4.4v22H215v-2.2zm-.2-7.9c-.1-.6-.3-1.1-.6-1.6s-.7-.8-1.2-1.1c-.5-.3-1.1-.4-1.8-.4s-1.3.1-1.8.4c-.5.3-.9.7-1.2 1.1-.3.5-.5 1-.6 1.6-.1.6-.2 1.2-.2 1.9 0 .6.1 1.2.2 1.8.1.6.4 1.2.7 1.6.3.5.7.9 1.2 1.2.5.3 1.1.4 1.7.4.7 0 1.3-.1 1.8-.4s.9-.7 1.2-1.2c.3-.5.5-1 .6-1.6.1-.6.2-1.3.2-1.9s-.1-1.2-.2-1.8zM226.9 256.3c.7.6 1.6 1 2.8 1 .9 0 1.6-.2 2.3-.7.6-.4 1-.9 1.2-1.4h3.8c-.6 1.9-1.6 3.3-2.8 4.1-1.3.8-2.8 1.2-4.6 1.2-1.3 0-2.4-.2-3.4-.6-1-.4-1.9-1-2.6-1.7-.7-.7-1.2-1.6-1.6-2.6-.4-1-.6-2.2-.6-3.4 0-1.2.2-2.3.6-3.3.4-1 .9-1.9 1.7-2.7.7-.7 1.6-1.3 2.6-1.8 1-.4 2.1-.6 3.3-.6 1.4 0 2.5.3 3.5.8s1.8 1.2 2.5 2.1 1.1 1.9 1.4 3c.3 1.1.4 2.3.3 3.5h-11.5c0 1.4.4 2.5 1.1 3.1zm4.9-8.4c-.5-.6-1.3-.9-2.4-.9-.7 0-1.3.1-1.7.4-.5.2-.8.5-1.1.9-.3.3-.5.7-.6 1.1s-.2.7-.2 1h7.1c-.2-1.1-.6-1.9-1.1-2.5zM250.9 258.1c-.5.9-1.2 1.5-2 1.9-.8.4-1.8.6-2.8.6-1.2 0-2.2-.2-3.1-.7s-1.6-1.1-2.2-1.9c-.6-.8-1-1.7-1.3-2.7-.3-1-.4-2.1-.4-3.2s.1-2.1.4-3.1c.3-1 .7-1.9 1.3-2.6.6-.8 1.3-1.4 2.2-1.8.9-.5 1.9-.7 3.1-.7.9 0 1.8.2 2.7.6.9.4 1.5 1 2 1.8h.1v-8h4.4v22H251l-.1-2.2zm-.2-7.9c-.1-.6-.3-1.1-.6-1.6s-.7-.8-1.2-1.1c-.5-.3-1.1-.4-1.8-.4s-1.3.1-1.8.4c-.5.3-.9.7-1.2 1.1-.3.5-.5 1-.6 1.6-.1.6-.2 1.2-.2 1.9 0 .6.1 1.2.2 1.8.1.6.4 1.2.7 1.6.3.5.7.9 1.2 1.2.5.3 1.1.4 1.7.4.7 0 1.3-.1 1.8-.4s.9-.7 1.2-1.2c.3-.5.5-1 .6-1.6.1-.6.2-1.3.2-1.9s-.1-1.2-.2-1.8zM263.1 255.4v4.7h-4.8v-4.7h4.8z"/></g></svg>