<svg id="Layer_1" xmlns="http://www.w3.org/2000/svg" xmlns:xlink="http://www.w3.org/1999/xlink" viewBox="0 0 300 600"><style>.st0{clip-path:url(#SVGID_00000129196948549318256270000010091047082692182672_);fill:#349946}.st1{fill:#fff}</style><defs><path id="SVGID_1_" d="M63.5 428.8h174.2v36.7H63.5z"/></defs><clipPath id="SVGID_00000065064987476315061820000014342824115380716733_"><use xlink:href="#SVGID_1_" overflow="visible"/></clipPath><path d="M237.8 447.1c0 10.1-9.5 18.4-21.1 18.4h-132c-11.6 0-21.1-8.3-21.1-18.4s9.5-18.4 21.1-18.4h132c11.6.1 21.1 8.3 21.1 18.4" clip-path="url(#SVGID_00000065064987476315061820000014342824115380716733_)" fill="#349946"/><g><path class="st1" d="M104 453.4l-3.8-11.7h2.6l2.6 8.2 2.6-8.2h2.7l-3.9 11.7H104zM114.4 441.7v11.7h-2.6v-11.7h2.6zM125.4 441.7v2.2h-6.2v2.5h5.7v2h-5.7v2.9h6.3v2.2h-8.9v-11.7h8.8zM135.9 453.4l-2-8-2 8h-2.6l-3.1-11.7h2.6l1.9 8 2-8h2.4l2 8.1 1.9-8.1h2.5l-3.2 11.7h-2.4zM152.6 441.7c.7 0 1.4.1 1.9.3.5.2.9.5 1.3.8.3.4.6.8.7 1.2s.2.9.2 1.4c0 .5-.1.9-.2 1.4s-.4.9-.7 1.2c-.3.3-.7.6-1.3.8-.5.2-1.1.3-1.9.3h-2.7v4.2h-2.6v-11.7h5.3zm-.7 5.5c.3 0 .6 0 .9-.1.3 0 .5-.1.7-.3.2-.1.4-.3.5-.5.1-.2.2-.5.2-.9s-.1-.7-.2-.9c-.1-.2-.3-.4-.5-.5s-.4-.2-.7-.3c-.3 0-.6-.1-.9-.1h-2v3.5h2zM160.8 441.7v9.5h5.7v2.2h-8.3v-11.7h2.6zM173.8 441.7l4.4 11.7h-2.7l-.9-2.6h-4.4l-.9 2.6h-2.6l4.4-11.7h2.7zm.2 7.1l-1.5-4.3-1.5 4.3h3zM181.8 441.7l4.9 7.9v-7.9h2.4v11.7h-2.6l-4.9-7.8v7.8h-2.4v-11.7h2.6zM193.4 450.5c.1.3.3.5.6.7.2.2.5.3.8.4s.6.1 1 .1c.2 0 .5 0 .7-.1s.5-.1.7-.2.4-.3.6-.5.2-.4.2-.7c0-.3-.1-.6-.3-.8-.2-.2-.5-.4-.8-.5-.3-.1-.7-.2-1.1-.3s-.8-.2-1.3-.3c-.4-.1-.9-.2-1.3-.4s-.8-.4-1.1-.6-.6-.6-.8-.9c-.2-.4-.3-.8-.3-1.4 0-.6.1-1.1.4-1.6.3-.4.6-.8 1-1.1.4-.3.9-.5 1.4-.7.5-.1 1-.2 1.6-.2.6 0 1.2.1 1.8.2s1.1.4 1.5.7c.4.3.8.7 1 1.2.3.5.4 1.1.4 1.7h-2.5c0-.3-.1-.6-.2-.9-.1-.2-.3-.4-.5-.5-.2-.1-.4-.2-.7-.3-.3-.1-.6-.1-.9-.1-.2 0-.4 0-.6.1-.2 0-.4.1-.6.2-.2.1-.3.2-.4.4s-.2.4-.2.6c0 .2 0 .4.1.6.1.1.3.3.5.4s.6.2 1.1.4 1 .3 1.8.5c.2 0 .5.1.9.2s.8.3 1.2.5c.4.3.7.6 1 1 .3.4.4 1 .4 1.6 0 .5-.1 1-.3 1.5-.2.5-.5.9-.9 1.2-.4.3-.9.6-1.5.8-.6.2-1.3.3-2.1.3-.6 0-1.3-.1-1.9-.2-.6-.2-1.1-.4-1.6-.7-.5-.3-.8-.8-1.1-1.3-.3-.5-.4-1.1-.4-1.9h2.5c-.1.3 0 .6.2.9z"/></g></svg>