<?xml version="1.0" encoding="utf-8"?>
<!-- Generator: Adobe Illustrator 25.4.6, SVG Export Plug-In . SVG Version: 6.00 Build 0)  -->
<svg version="1.1" id="Layer_1" xmlns="http://www.w3.org/2000/svg" xmlns:xlink="http://www.w3.org/1999/xlink" x="0px" y="0px"
	 viewBox="0 0 320 50" style="enable-background:new 0 0 320 50;" xml:space="preserve">
<style type="text/css">
	.st0{fill:#373535;}
</style>
<g>
	<path class="st0" d="M15.5,10.9l3.6,9.7h-2.2l-0.7-2.1h-3.6l-0.8,2.1H9.6l3.6-9.7H15.5z M15.6,16.9l-1.2-3.5h0l-1.3,3.5H15.6z"/>
	<path class="st0" d="M21.4,13.6v1h0c0.2-0.4,0.6-0.7,0.9-0.9c0.4-0.2,0.8-0.3,1.2-0.3c0.5,0,0.9,0.1,1.3,0.2
		c0.3,0.1,0.6,0.3,0.8,0.6c0.2,0.2,0.3,0.5,0.4,0.9s0.1,0.8,0.1,1.2v4.3h-1.9v-3.9c0-0.6-0.1-1-0.3-1.3c-0.2-0.3-0.5-0.4-1-0.4
		c-0.5,0-0.9,0.2-1.1,0.5c-0.2,0.3-0.4,0.8-0.4,1.5v3.7h-1.9v-7H21.4z"/>
	<path class="st0" d="M32.4,19.7c-0.2,0.4-0.5,0.7-0.9,0.8c-0.4,0.2-0.8,0.2-1.2,0.2c-0.5,0-1-0.1-1.4-0.3s-0.7-0.5-1-0.8
		c-0.3-0.3-0.5-0.7-0.6-1.2s-0.2-0.9-0.2-1.4c0-0.5,0.1-0.9,0.2-1.4s0.3-0.8,0.6-1.2c0.3-0.3,0.6-0.6,1-0.8c0.4-0.2,0.8-0.3,1.4-0.3
		c0.4,0,0.8,0.1,1.2,0.3s0.7,0.4,0.9,0.8h0v-3.5h1.9v9.7h-1.8L32.4,19.7L32.4,19.7z M32.3,16.2c-0.1-0.3-0.1-0.5-0.3-0.7
		c-0.1-0.2-0.3-0.4-0.5-0.5c-0.2-0.1-0.5-0.2-0.8-0.2S30.2,14.9,30,15c-0.2,0.1-0.4,0.3-0.5,0.5c-0.1,0.2-0.2,0.4-0.3,0.7
		c-0.1,0.3-0.1,0.5-0.1,0.8c0,0.3,0,0.5,0.1,0.8c0.1,0.3,0.2,0.5,0.3,0.7c0.1,0.2,0.3,0.4,0.5,0.5c0.2,0.1,0.5,0.2,0.8,0.2
		c0.3,0,0.6-0.1,0.8-0.2c0.2-0.1,0.4-0.3,0.5-0.5c0.1-0.2,0.2-0.5,0.3-0.7s0.1-0.5,0.1-0.8S32.4,16.5,32.3,16.2z"/>
	<path class="st0" d="M45.8,21.1c-0.1,0.4-0.2,0.7-0.5,1c-0.3,0.3-0.6,0.6-1.1,0.8c-0.5,0.2-1.1,0.3-1.9,0.3c-0.3,0-0.7,0-1-0.1
		c-0.4-0.1-0.7-0.2-1-0.4c-0.3-0.2-0.5-0.4-0.7-0.7c-0.2-0.3-0.3-0.6-0.3-1h1.9c0.1,0.4,0.3,0.6,0.5,0.8s0.6,0.2,0.9,0.2
		c0.5,0,0.9-0.2,1.2-0.5c0.2-0.3,0.4-0.7,0.4-1.2v-0.9h0c-0.2,0.4-0.5,0.6-0.9,0.8c-0.4,0.2-0.8,0.3-1.2,0.3c-0.5,0-1-0.1-1.4-0.3
		c-0.4-0.2-0.7-0.4-0.9-0.8c-0.2-0.3-0.4-0.7-0.5-1.1c-0.1-0.4-0.2-0.9-0.2-1.4c0-0.5,0.1-0.9,0.2-1.3c0.1-0.4,0.3-0.8,0.6-1.1
		c0.3-0.3,0.6-0.6,0.9-0.8c0.4-0.2,0.8-0.3,1.3-0.3c0.5,0,0.9,0.1,1.2,0.3c0.3,0.2,0.6,0.5,0.9,0.9h0v-0.9H46v6.5
		C46,20.4,45.9,20.7,45.8,21.1z M43.2,18.8c0.2-0.1,0.4-0.3,0.5-0.4S44,18,44,17.7c0.1-0.2,0.1-0.5,0.1-0.7c0-0.3,0-0.6-0.1-0.8
		c-0.1-0.3-0.1-0.5-0.3-0.7c-0.1-0.2-0.3-0.4-0.5-0.5c-0.2-0.1-0.5-0.2-0.8-0.2c-0.3,0-0.5,0.1-0.7,0.2c-0.2,0.1-0.4,0.3-0.5,0.4
		c-0.1,0.2-0.2,0.4-0.3,0.6c-0.1,0.2-0.1,0.5-0.1,0.8c0,0.3,0,0.5,0.1,0.8c0,0.2,0.1,0.5,0.3,0.7s0.3,0.4,0.5,0.5
		c0.2,0.1,0.4,0.2,0.7,0.2C42.8,18.9,43,18.9,43.2,18.8z"/>
	<path class="st0" d="M49.4,18.9c0.3,0.3,0.7,0.4,1.2,0.4c0.4,0,0.7-0.1,1-0.3c0.3-0.2,0.5-0.4,0.5-0.6h1.7
		c-0.3,0.8-0.7,1.4-1.2,1.8s-1.2,0.5-2,0.5c-0.5,0-1-0.1-1.5-0.3c-0.4-0.2-0.8-0.4-1.1-0.8c-0.3-0.3-0.5-0.7-0.7-1.2
		c-0.2-0.5-0.2-0.9-0.2-1.5c0-0.5,0.1-1,0.3-1.5c0.2-0.5,0.4-0.8,0.7-1.2c0.3-0.3,0.7-0.6,1.1-0.8c0.4-0.2,0.9-0.3,1.5-0.3
		c0.6,0,1.1,0.1,1.6,0.3c0.4,0.2,0.8,0.5,1.1,0.9c0.3,0.4,0.5,0.8,0.6,1.3c0.1,0.5,0.2,1,0.1,1.6h-5C49,18.2,49.1,18.6,49.4,18.9z
		 M51.6,15.2c-0.2-0.3-0.6-0.4-1-0.4c-0.3,0-0.6,0.1-0.8,0.2c-0.2,0.1-0.4,0.2-0.5,0.4c-0.1,0.2-0.2,0.3-0.3,0.5
		c0,0.2-0.1,0.3-0.1,0.5h3.1C52,15.9,51.8,15.5,51.6,15.2z"/>
	<path class="st0" d="M58.8,13.6v1.3h-1.4v3.5c0,0.3,0.1,0.5,0.2,0.6c0.1,0.1,0.3,0.2,0.6,0.2c0.1,0,0.2,0,0.3,0c0.1,0,0.2,0,0.3,0
		v1.5c-0.2,0-0.3,0-0.5,0.1c-0.2,0-0.4,0-0.6,0c-0.3,0-0.6,0-0.8-0.1c-0.3,0-0.5-0.1-0.7-0.2c-0.2-0.1-0.4-0.3-0.5-0.5
		c-0.1-0.2-0.2-0.5-0.2-0.9v-4.1h-1.2v-1.3h1.2v-2.1h1.9v2.1H58.8z"/>
	<path class="st0" d="M68.2,23v-3.3h0c-0.2,0.4-0.5,0.6-0.9,0.8c-0.4,0.2-0.8,0.2-1.3,0.2c-0.3,0-0.7-0.1-1-0.2
		c-0.3-0.1-0.7-0.3-1-0.6c-0.3-0.3-0.5-0.7-0.7-1.1c-0.2-0.5-0.3-1-0.3-1.7c0-0.5,0.1-0.9,0.2-1.4c0.1-0.5,0.3-0.8,0.6-1.2
		c0.3-0.3,0.6-0.6,1-0.8c0.4-0.2,0.9-0.3,1.4-0.3c0.4,0,0.8,0.1,1.2,0.2c0.4,0.2,0.7,0.4,0.9,0.8h0v-0.9h1.8V23H68.2z M65,17.9
		c0.1,0.3,0.1,0.5,0.3,0.7c0.1,0.2,0.3,0.4,0.5,0.5c0.2,0.1,0.5,0.2,0.8,0.2s0.6-0.1,0.8-0.2c0.2-0.1,0.4-0.3,0.5-0.5
		c0.1-0.2,0.2-0.4,0.3-0.7s0.1-0.5,0.1-0.8c0-0.3,0-0.5-0.1-0.8c-0.1-0.3-0.2-0.5-0.3-0.7c-0.1-0.2-0.3-0.4-0.5-0.5
		c-0.2-0.1-0.5-0.2-0.8-0.2c-0.3,0-0.6,0.1-0.8,0.2c-0.2,0.1-0.4,0.3-0.5,0.5C65.1,15.8,65,16,65,16.3c-0.1,0.3-0.1,0.5-0.1,0.8
		C64.9,17.4,64.9,17.7,65,17.9z"/>
	<path class="st0" d="M76.1,20.6v-1h0c-0.2,0.4-0.6,0.7-0.9,0.9c-0.4,0.2-0.8,0.3-1.2,0.3c-0.5,0-0.9-0.1-1.3-0.2
		c-0.3-0.1-0.6-0.3-0.8-0.6c-0.2-0.2-0.3-0.5-0.4-0.9c-0.1-0.4-0.1-0.8-0.1-1.2v-4.3h1.9v3.9c0,0.6,0.1,1,0.3,1.3
		c0.2,0.3,0.5,0.4,1,0.4c0.5,0,0.9-0.2,1.1-0.5S76,18,76,17.3v-3.7h1.9v7H76.1z"/>
	<path class="st0" d="M79.2,15.8c0-0.5,0.1-0.8,0.3-1.1c0.2-0.3,0.5-0.5,0.8-0.7c0.3-0.2,0.7-0.3,1-0.4c0.4-0.1,0.8-0.1,1.2-0.1
		c0.4,0,0.7,0,1.1,0.1c0.4,0,0.7,0.1,1,0.3c0.3,0.1,0.5,0.3,0.7,0.6c0.2,0.3,0.3,0.6,0.3,1V19c0,0.3,0,0.6,0.1,0.9
		c0,0.3,0.1,0.5,0.2,0.6h-1.9c0-0.1-0.1-0.2-0.1-0.3s0-0.2,0-0.3c-0.3,0.3-0.7,0.5-1.1,0.7c-0.4,0.1-0.8,0.2-1.3,0.2
		c-0.3,0-0.6,0-0.9-0.1c-0.3-0.1-0.5-0.2-0.8-0.4c-0.2-0.2-0.4-0.4-0.5-0.6C79,19.4,79,19,79,18.7c0-0.4,0.1-0.7,0.2-1
		s0.3-0.5,0.5-0.6c0.2-0.2,0.5-0.3,0.8-0.3c0.3-0.1,0.6-0.1,0.9-0.2s0.6-0.1,0.9-0.1c0.3,0,0.5-0.1,0.7-0.1c0.2-0.1,0.4-0.1,0.5-0.2
		c0.1-0.1,0.2-0.3,0.2-0.5c0-0.2,0-0.4-0.1-0.5c-0.1-0.1-0.2-0.2-0.3-0.3c-0.1-0.1-0.2-0.1-0.4-0.1c-0.1,0-0.3,0-0.5,0
		c-0.4,0-0.7,0.1-0.9,0.2s-0.3,0.4-0.4,0.8H79.2z M83.6,17.2c-0.1,0.1-0.2,0.1-0.3,0.2c-0.1,0-0.3,0.1-0.4,0.1c-0.1,0-0.3,0-0.4,0.1
		s-0.3,0-0.5,0.1c-0.1,0-0.3,0.1-0.4,0.1c-0.1,0-0.3,0.1-0.4,0.2c-0.1,0.1-0.2,0.2-0.3,0.3c-0.1,0.1-0.1,0.3-0.1,0.4
		c0,0.2,0,0.3,0.1,0.4s0.1,0.2,0.3,0.3c0.1,0.1,0.2,0.1,0.4,0.1c0.1,0,0.3,0,0.4,0c0.4,0,0.7-0.1,0.9-0.2c0.2-0.1,0.4-0.3,0.5-0.5
		s0.2-0.4,0.2-0.5c0-0.2,0-0.3,0-0.4V17.2z"/>
	<path class="st0" d="M88.9,10.9v9.7H87v-9.7H88.9z"/>
	<path class="st0" d="M90.3,12.5v-1.6h1.9v1.6H90.3z M92.3,13.6v7h-1.9v-7H92.3z"/>
	<path class="st0" d="M97.5,13.6v1.3h-1.4v3.5c0,0.3,0.1,0.5,0.2,0.6c0.1,0.1,0.3,0.2,0.6,0.2c0.1,0,0.2,0,0.3,0c0.1,0,0.2,0,0.3,0
		v1.5c-0.2,0-0.3,0-0.5,0.1c-0.2,0-0.4,0-0.6,0c-0.3,0-0.6,0-0.8-0.1c-0.3,0-0.5-0.1-0.7-0.2c-0.2-0.1-0.4-0.3-0.5-0.5
		c-0.1-0.2-0.2-0.5-0.2-0.9v-4.1H93v-1.3h1.2v-2.1h1.9v2.1H97.5z"/>
	<path class="st0" d="M100.9,22.7c-0.4,0.2-0.9,0.4-1.5,0.4c-0.2,0-0.4,0-0.6,0s-0.4,0-0.6,0v-1.6c0.2,0,0.4,0,0.6,0.1
		c0.2,0,0.4,0,0.6,0c0.3,0,0.4-0.1,0.6-0.3c0.1-0.2,0.2-0.4,0.2-0.6c0-0.2,0-0.3-0.1-0.4l-2.4-6.6h2l1.6,4.8h0l1.5-4.8h2l-2.9,7.9
		C101.5,22,101.2,22.4,100.9,22.7z"/>
	<path class="st0" d="M112.1,14.9c-0.3,0-0.6,0.1-0.8,0.2c-0.2,0.1-0.4,0.3-0.5,0.5c-0.1,0.2-0.2,0.5-0.3,0.7
		c-0.1,0.3-0.1,0.5-0.1,0.8c0,0.3,0,0.5,0.1,0.8c0.1,0.3,0.1,0.5,0.3,0.7c0.1,0.2,0.3,0.4,0.5,0.5c0.2,0.1,0.5,0.2,0.8,0.2
		c0.5,0,0.8-0.1,1.1-0.4s0.4-0.6,0.5-1h1.9c-0.1,0.9-0.5,1.6-1.1,2.1c-0.6,0.5-1.4,0.7-2.3,0.7c-0.5,0-1-0.1-1.4-0.3
		c-0.4-0.2-0.8-0.4-1.1-0.7c-0.3-0.3-0.5-0.7-0.7-1.1c-0.2-0.4-0.3-0.9-0.3-1.4c0-0.5,0.1-1,0.2-1.5c0.2-0.5,0.4-0.9,0.7-1.2
		c0.3-0.3,0.7-0.6,1.1-0.8c0.4-0.2,0.9-0.3,1.5-0.3c0.4,0,0.8,0.1,1.2,0.2c0.4,0.1,0.7,0.3,1,0.5c0.3,0.2,0.5,0.5,0.7,0.8
		c0.2,0.3,0.3,0.7,0.3,1.2h-1.9C113.4,15.3,112.9,14.9,112.1,14.9z"/>
	<path class="st0" d="M116.5,15.6c0.2-0.5,0.4-0.8,0.7-1.2c0.3-0.3,0.7-0.6,1.1-0.7s0.9-0.3,1.5-0.3c0.5,0,1,0.1,1.5,0.3
		c0.4,0.2,0.8,0.4,1.1,0.7c0.3,0.3,0.6,0.7,0.7,1.2c0.2,0.5,0.3,1,0.3,1.5c0,0.6-0.1,1.1-0.3,1.5c-0.2,0.5-0.4,0.8-0.7,1.2
		c-0.3,0.3-0.7,0.6-1.1,0.7c-0.4,0.2-0.9,0.3-1.5,0.3c-0.5,0-1-0.1-1.5-0.3s-0.8-0.4-1.1-0.7c-0.3-0.3-0.6-0.7-0.7-1.2
		c-0.2-0.5-0.3-1-0.3-1.5C116.2,16.5,116.3,16,116.5,15.6z M118.2,17.9c0.1,0.3,0.1,0.5,0.3,0.7c0.1,0.2,0.3,0.4,0.5,0.5
		c0.2,0.1,0.5,0.2,0.8,0.2s0.6-0.1,0.8-0.2c0.2-0.1,0.4-0.3,0.5-0.5c0.1-0.2,0.2-0.5,0.3-0.7c0.1-0.3,0.1-0.5,0.1-0.8s0-0.6-0.1-0.8
		c-0.1-0.3-0.1-0.5-0.3-0.7c-0.1-0.2-0.3-0.4-0.5-0.5c-0.2-0.1-0.5-0.2-0.8-0.2s-0.6,0.1-0.8,0.2c-0.2,0.1-0.4,0.3-0.5,0.5
		c-0.1,0.2-0.2,0.4-0.3,0.7c-0.1,0.3-0.1,0.5-0.1,0.8S118.2,17.7,118.2,17.9z"/>
	<path class="st0" d="M126.3,20.6l-2.4-7h2l1.5,4.8h0l1.5-4.8h1.9l-2.4,7H126.3z"/>
	<path class="st0" d="M133.5,18.9c0.3,0.3,0.7,0.4,1.2,0.4c0.4,0,0.7-0.1,1-0.3c0.3-0.2,0.5-0.4,0.5-0.6h1.7
		c-0.3,0.8-0.7,1.4-1.2,1.8s-1.2,0.5-2,0.5c-0.5,0-1-0.1-1.5-0.3c-0.4-0.2-0.8-0.4-1.1-0.8c-0.3-0.3-0.5-0.7-0.7-1.2
		c-0.2-0.5-0.2-0.9-0.2-1.5c0-0.5,0.1-1,0.3-1.5c0.2-0.5,0.4-0.8,0.7-1.2c0.3-0.3,0.7-0.6,1.1-0.8c0.4-0.2,0.9-0.3,1.5-0.3
		c0.6,0,1.1,0.1,1.6,0.3c0.4,0.2,0.8,0.5,1.1,0.9c0.3,0.4,0.5,0.8,0.6,1.3c0.1,0.5,0.2,1,0.1,1.6h-5
		C133.1,18.2,133.2,18.6,133.5,18.9z M135.7,15.2c-0.2-0.3-0.6-0.4-1-0.4c-0.3,0-0.6,0.1-0.8,0.2c-0.2,0.1-0.4,0.2-0.5,0.4
		c-0.1,0.2-0.2,0.3-0.3,0.5c0,0.2-0.1,0.3-0.1,0.5h3.1C136.1,15.9,135.9,15.5,135.7,15.2z"/>
	<path class="st0" d="M140.9,13.6v1.3h0c0.1-0.2,0.2-0.4,0.4-0.6c0.2-0.2,0.3-0.3,0.5-0.5c0.2-0.1,0.4-0.2,0.6-0.3
		c0.2-0.1,0.5-0.1,0.7-0.1c0.1,0,0.3,0,0.4,0.1v1.8c-0.1,0-0.2,0-0.3,0c-0.1,0-0.2,0-0.4,0c-0.4,0-0.6,0.1-0.9,0.2s-0.4,0.3-0.6,0.5
		c-0.1,0.2-0.3,0.4-0.3,0.7c-0.1,0.3-0.1,0.6-0.1,0.9v3.1h-1.9v-7H140.9z"/>
	<path class="st0" d="M144.2,15.8c0-0.5,0.1-0.8,0.3-1.1c0.2-0.3,0.5-0.5,0.8-0.7c0.3-0.2,0.7-0.3,1-0.4c0.4-0.1,0.8-0.1,1.2-0.1
		c0.4,0,0.7,0,1.1,0.1c0.4,0,0.7,0.1,1,0.3c0.3,0.1,0.5,0.3,0.7,0.6c0.2,0.3,0.3,0.6,0.3,1V19c0,0.3,0,0.6,0.1,0.9
		c0,0.3,0.1,0.5,0.2,0.6h-1.9c0-0.1-0.1-0.2-0.1-0.3s0-0.2,0-0.3c-0.3,0.3-0.7,0.5-1.1,0.7c-0.4,0.1-0.8,0.2-1.3,0.2
		c-0.3,0-0.6,0-0.9-0.1c-0.3-0.1-0.5-0.2-0.8-0.4c-0.2-0.2-0.4-0.4-0.5-0.6c-0.1-0.3-0.2-0.6-0.2-0.9c0-0.4,0.1-0.7,0.2-1
		s0.3-0.5,0.5-0.6c0.2-0.2,0.5-0.3,0.8-0.3c0.3-0.1,0.6-0.1,0.9-0.2s0.6-0.1,0.9-0.1c0.3,0,0.5-0.1,0.7-0.1c0.2-0.1,0.4-0.1,0.5-0.2
		c0.1-0.1,0.2-0.3,0.2-0.5c0-0.2,0-0.4-0.1-0.5c-0.1-0.1-0.2-0.2-0.3-0.3c-0.1-0.1-0.2-0.1-0.4-0.1c-0.1,0-0.3,0-0.5,0
		c-0.4,0-0.7,0.1-0.9,0.2s-0.3,0.4-0.4,0.8H144.2z M148.6,17.2c-0.1,0.1-0.2,0.1-0.3,0.2c-0.1,0-0.3,0.1-0.4,0.1
		c-0.1,0-0.3,0-0.4,0.1s-0.3,0-0.5,0.1c-0.1,0-0.3,0.1-0.4,0.1c-0.1,0-0.3,0.1-0.4,0.2c-0.1,0.1-0.2,0.2-0.3,0.3
		c-0.1,0.1-0.1,0.3-0.1,0.4c0,0.2,0,0.3,0.1,0.4s0.1,0.2,0.3,0.3c0.1,0.1,0.2,0.1,0.4,0.1c0.1,0,0.3,0,0.4,0c0.4,0,0.7-0.1,0.9-0.2
		c0.2-0.1,0.4-0.3,0.5-0.5s0.2-0.4,0.2-0.5c0-0.2,0-0.3,0-0.4V17.2z"/>
	<path class="st0" d="M158.5,21.1c-0.1,0.4-0.2,0.7-0.5,1c-0.3,0.3-0.6,0.6-1.1,0.8c-0.5,0.2-1.1,0.3-1.9,0.3c-0.3,0-0.7,0-1-0.1
		c-0.4-0.1-0.7-0.2-1-0.4c-0.3-0.2-0.5-0.4-0.7-0.7c-0.2-0.3-0.3-0.6-0.3-1h1.9c0.1,0.4,0.3,0.6,0.5,0.8s0.6,0.2,0.9,0.2
		c0.5,0,0.9-0.2,1.2-0.5c0.2-0.3,0.4-0.7,0.4-1.2v-0.9h0c-0.2,0.4-0.5,0.6-0.9,0.8s-0.8,0.3-1.2,0.3c-0.5,0-1-0.1-1.4-0.3
		c-0.4-0.2-0.7-0.4-0.9-0.8c-0.2-0.3-0.4-0.7-0.5-1.1c-0.1-0.4-0.2-0.9-0.2-1.4c0-0.5,0.1-0.9,0.2-1.3c0.1-0.4,0.3-0.8,0.6-1.1
		c0.3-0.3,0.6-0.6,0.9-0.8c0.4-0.2,0.8-0.3,1.3-0.3c0.5,0,0.9,0.1,1.2,0.3c0.3,0.2,0.6,0.5,0.9,0.9h0v-0.9h1.8v6.5
		C158.6,20.4,158.6,20.7,158.5,21.1z M155.9,18.8c0.2-0.1,0.4-0.3,0.5-0.4c0.1-0.2,0.2-0.4,0.3-0.6c0.1-0.2,0.1-0.5,0.1-0.7
		c0-0.3,0-0.6-0.1-0.8c-0.1-0.3-0.1-0.5-0.3-0.7c-0.1-0.2-0.3-0.4-0.5-0.5s-0.5-0.2-0.8-0.2c-0.3,0-0.5,0.1-0.7,0.2
		c-0.2,0.1-0.4,0.3-0.5,0.4c-0.1,0.2-0.2,0.4-0.3,0.6c-0.1,0.2-0.1,0.5-0.1,0.8c0,0.3,0,0.5,0.1,0.8c0,0.2,0.1,0.5,0.3,0.7
		s0.3,0.4,0.5,0.5c0.2,0.1,0.4,0.2,0.7,0.2C155.4,18.9,155.6,18.9,155.9,18.8z"/>
	<path class="st0" d="M162.1,18.9c0.3,0.3,0.7,0.4,1.2,0.4c0.4,0,0.7-0.1,1-0.3c0.3-0.2,0.5-0.4,0.5-0.6h1.7
		c-0.3,0.8-0.7,1.4-1.2,1.8c-0.6,0.4-1.2,0.5-2,0.5c-0.5,0-1-0.1-1.5-0.3s-0.8-0.4-1.1-0.8c-0.3-0.3-0.5-0.7-0.7-1.2
		c-0.2-0.5-0.2-0.9-0.2-1.5c0-0.5,0.1-1,0.3-1.5c0.2-0.5,0.4-0.8,0.7-1.2c0.3-0.3,0.7-0.6,1.1-0.8c0.4-0.2,0.9-0.3,1.5-0.3
		c0.6,0,1.1,0.1,1.6,0.3c0.4,0.2,0.8,0.5,1.1,0.9c0.3,0.4,0.5,0.8,0.6,1.3s0.2,1,0.1,1.6h-5C161.6,18.2,161.8,18.6,162.1,18.9z
		 M164.2,15.2c-0.2-0.3-0.6-0.4-1-0.4c-0.3,0-0.6,0.1-0.8,0.2c-0.2,0.1-0.4,0.2-0.5,0.4c-0.1,0.2-0.2,0.3-0.3,0.5
		c0,0.2-0.1,0.3-0.1,0.5h3.1C164.6,15.9,164.5,15.5,164.2,15.2z"/>
</g>
<path class="st0" d="M14.3,27.6v1.3h-1.4v3.5c0,0.3,0.1,0.5,0.2,0.6c0.1,0.1,0.3,0.2,0.6,0.2c0.1,0,0.2,0,0.3,0c0.1,0,0.2,0,0.3,0
	v1.5c-0.2,0-0.3,0-0.5,0.1c-0.2,0-0.4,0-0.6,0c-0.3,0-0.6,0-0.8-0.1c-0.3,0-0.5-0.1-0.7-0.2c-0.2-0.1-0.4-0.3-0.5-0.5
	C11,33.6,11,33.4,11,33v-4.1H9.8v-1.3H11v-2.1h1.9v2.1H14.3z M17,24.9v3.6h0c0.2-0.4,0.6-0.7,0.9-0.9c0.4-0.2,0.7-0.3,1.1-0.3
	c0.5,0,0.9,0.1,1.3,0.2c0.3,0.1,0.6,0.3,0.8,0.6c0.2,0.2,0.3,0.5,0.4,0.9c0.1,0.4,0.1,0.8,0.1,1.2v4.3h-1.9v-3.9
	c0-0.6-0.1-1-0.3-1.3c-0.2-0.3-0.5-0.4-1-0.4c-0.5,0-0.9,0.2-1.1,0.5c-0.2,0.3-0.4,0.8-0.4,1.5v3.7h-1.9v-9.7H17z M24.8,29.8
	c0-0.4,0.2-0.6,0.4-0.8c0.2-0.2,0.5-0.2,0.9-0.2c0.2,0,0.3,0,0.5,0c0.1,0,0.3,0.1,0.4,0.1c0.1,0.1,0.2,0.2,0.3,0.3
	c0.1,0.1,0.1,0.3,0.1,0.5c0,0.2,0,0.3-0.2,0.5c-0.1,0.1-0.3,0.2-0.5,0.2s-0.5,0.1-0.7,0.1c-0.3,0-0.6,0.1-0.9,0.1
	c-0.3,0-0.6,0.1-0.9,0.2c-0.3,0.1-0.5,0.2-0.8,0.3c-0.2,0.2-0.4,0.4-0.5,0.6c-0.1,0.3-0.2,0.6-0.2,1c0,0.4,0.1,0.7,0.2,0.9
	c0.1,0.3,0.3,0.5,0.5,0.6c0.2,0.2,0.5,0.3,0.8,0.4c0.3,0.1,0.6,0.1,0.9,0.1c0.4,0,0.9-0.1,1.3-0.2c0.4-0.1,0.8-0.3,1.1-0.7
	c0,0.1,0,0.2,0,0.3c0,0.1,0.1,0.2,0.1,0.3h1.9c-0.1-0.1-0.2-0.4-0.2-0.6c0-0.3-0.1-0.6-0.1-0.9v-3.6c0-0.4-0.1-0.8-0.3-1
	c-0.2-0.3-0.4-0.5-0.7-0.6c-0.3-0.1-0.6-0.2-1-0.3c-0.4,0-0.7-0.1-1.1-0.1c-0.4,0-0.8,0-1.2,0.1c-0.4,0.1-0.7,0.2-1,0.4
	c-0.3,0.2-0.6,0.4-0.8,0.7c-0.2,0.3-0.3,0.7-0.3,1.1H24.8z M27.3,31.9c0,0.1,0,0.3,0,0.4c0,0.2-0.1,0.4-0.2,0.5
	c-0.1,0.2-0.3,0.3-0.5,0.5c-0.2,0.1-0.5,0.2-0.9,0.2c-0.2,0-0.3,0-0.4,0c-0.1,0-0.3-0.1-0.4-0.1c-0.1-0.1-0.2-0.2-0.3-0.3
	c-0.1-0.1-0.1-0.3-0.1-0.4c0-0.2,0-0.3,0.1-0.4c0.1-0.1,0.1-0.2,0.3-0.3c0.1-0.1,0.2-0.1,0.4-0.2c0.1,0,0.3-0.1,0.4-0.1
	c0.2,0,0.3,0,0.5-0.1c0.2,0,0.3,0,0.4-0.1c0.1,0,0.3-0.1,0.4-0.1c0.1,0,0.2-0.1,0.3-0.2V31.9z M34.4,27.6v1.3H33v3.5
	c0,0.3,0.1,0.5,0.2,0.6s0.3,0.2,0.6,0.2c0.1,0,0.2,0,0.3,0c0.1,0,0.2,0,0.3,0v1.5c-0.2,0-0.3,0-0.5,0.1c-0.2,0-0.4,0-0.6,0
	c-0.3,0-0.6,0-0.8-0.1c-0.3,0-0.5-0.1-0.7-0.2c-0.2-0.1-0.4-0.3-0.5-0.5c-0.1-0.2-0.2-0.5-0.2-0.9v-4.1h-1.2v-1.3h1.2v-2.1H33v2.1
	H34.4z M37.3,24.9V27c0,0.3,0,0.6-0.1,0.8c-0.1,0.3-0.2,0.5-0.4,0.7c-0.2,0.2-0.4,0.4-0.6,0.5c-0.2,0.1-0.5,0.2-0.8,0.3v-0.9
	c0.3-0.1,0.6-0.3,0.7-0.5c0.1-0.2,0.2-0.5,0.2-0.8h-0.9v-2.1H37.3z M39.4,32.9c0.1,0.1,0.2,0.3,0.3,0.4c0.1,0.1,0.3,0.2,0.5,0.2
	c0.2,0,0.4,0.1,0.5,0.1c0.1,0,0.3,0,0.4,0c0.1,0,0.3-0.1,0.4-0.1c0.1-0.1,0.2-0.2,0.3-0.3c0.1-0.1,0.1-0.3,0.1-0.4
	c0-0.3-0.2-0.5-0.6-0.6c-0.4-0.1-0.9-0.3-1.6-0.4c-0.3-0.1-0.6-0.1-0.8-0.2c-0.3-0.1-0.5-0.2-0.7-0.3c-0.2-0.1-0.4-0.3-0.5-0.5
	c-0.1-0.2-0.2-0.5-0.2-0.8c0-0.5,0.1-0.8,0.3-1.1c0.2-0.3,0.4-0.5,0.7-0.7c0.3-0.2,0.6-0.3,1-0.4c0.4-0.1,0.7-0.1,1.1-0.1
	c0.4,0,0.7,0,1.1,0.1c0.4,0.1,0.7,0.2,1,0.4c0.3,0.2,0.5,0.4,0.7,0.7c0.2,0.3,0.3,0.6,0.3,1.1h-1.8c0-0.4-0.2-0.6-0.4-0.8
	c-0.3-0.1-0.5-0.2-0.9-0.2c-0.1,0-0.2,0-0.4,0c-0.1,0-0.2,0-0.3,0.1c-0.1,0-0.2,0.1-0.3,0.2c-0.1,0.1-0.1,0.2-0.1,0.3
	c0,0.2,0.1,0.3,0.2,0.4c0.1,0.1,0.3,0.2,0.5,0.3s0.4,0.1,0.7,0.2c0.3,0.1,0.5,0.1,0.8,0.2c0.3,0.1,0.6,0.1,0.8,0.2
	c0.3,0.1,0.5,0.2,0.7,0.4c0.2,0.1,0.4,0.3,0.5,0.6c0.1,0.2,0.2,0.5,0.2,0.8c0,0.5-0.1,0.8-0.3,1.2c-0.2,0.3-0.4,0.6-0.7,0.8
	s-0.6,0.3-1,0.4c-0.4,0.1-0.8,0.1-1.2,0.1c-0.4,0-0.8,0-1.2-0.1c-0.4-0.1-0.7-0.2-1-0.4c-0.3-0.2-0.5-0.4-0.7-0.8
	c-0.2-0.3-0.3-0.7-0.3-1.2h1.8C39.3,32.5,39.3,32.7,39.4,32.9z M50.4,29.8c0-0.4,0.2-0.6,0.4-0.8c0.2-0.2,0.5-0.2,0.9-0.2
	c0.2,0,0.3,0,0.5,0c0.1,0,0.3,0.1,0.4,0.1c0.1,0.1,0.2,0.2,0.3,0.3c0.1,0.1,0.1,0.3,0.1,0.5c0,0.2,0,0.3-0.2,0.5
	c-0.1,0.1-0.3,0.2-0.5,0.2c-0.2,0.1-0.5,0.1-0.7,0.1c-0.3,0-0.6,0.1-0.9,0.1c-0.3,0-0.6,0.1-0.9,0.2c-0.3,0.1-0.5,0.2-0.8,0.3
	c-0.2,0.2-0.4,0.4-0.5,0.6c-0.1,0.3-0.2,0.6-0.2,1c0,0.4,0.1,0.7,0.2,0.9c0.1,0.3,0.3,0.5,0.5,0.6c0.2,0.2,0.5,0.3,0.8,0.4
	c0.3,0.1,0.6,0.1,0.9,0.1c0.4,0,0.9-0.1,1.3-0.2c0.4-0.1,0.8-0.3,1.1-0.7c0,0.1,0,0.2,0,0.3c0,0.1,0.1,0.2,0.1,0.3h1.9
	c-0.1-0.1-0.2-0.4-0.2-0.6c0-0.3-0.1-0.6-0.1-0.9v-3.6c0-0.4-0.1-0.8-0.3-1c-0.2-0.3-0.4-0.5-0.7-0.6c-0.3-0.1-0.6-0.2-1-0.3
	c-0.4,0-0.7-0.1-1.1-0.1c-0.4,0-0.8,0-1.2,0.1c-0.4,0.1-0.7,0.2-1,0.4c-0.3,0.2-0.6,0.4-0.8,0.7c-0.2,0.3-0.3,0.7-0.3,1.1H50.4z
	 M52.9,31.9c0,0.1,0,0.3,0,0.4c0,0.2-0.1,0.4-0.2,0.5c-0.1,0.2-0.3,0.3-0.5,0.5c-0.2,0.1-0.5,0.2-0.9,0.2c-0.2,0-0.3,0-0.4,0
	c-0.1,0-0.3-0.1-0.4-0.1c-0.1-0.1-0.2-0.2-0.3-0.3c-0.1-0.1-0.1-0.3-0.1-0.4c0-0.2,0-0.3,0.1-0.4c0.1-0.1,0.1-0.2,0.3-0.3
	c0.1-0.1,0.2-0.1,0.4-0.2c0.1,0,0.3-0.1,0.4-0.1c0.2,0,0.3,0,0.5-0.1c0.2,0,0.3,0,0.4-0.1c0.1,0,0.3-0.1,0.4-0.1
	c0.1,0,0.2-0.1,0.3-0.2V31.9z M58.2,24.9v9.7h-1.9v-9.7H58.2z M61.2,32.9c0.1,0.1,0.2,0.3,0.3,0.4c0.1,0.1,0.3,0.2,0.5,0.2
	c0.2,0,0.4,0.1,0.5,0.1c0.1,0,0.3,0,0.4,0c0.1,0,0.3-0.1,0.4-0.1c0.1-0.1,0.2-0.2,0.3-0.3c0.1-0.1,0.1-0.3,0.1-0.4
	c0-0.3-0.2-0.5-0.6-0.6c-0.4-0.1-0.9-0.3-1.6-0.4c-0.3-0.1-0.6-0.1-0.8-0.2c-0.3-0.1-0.5-0.2-0.7-0.3c-0.2-0.1-0.4-0.3-0.5-0.5
	c-0.1-0.2-0.2-0.5-0.2-0.8c0-0.5,0.1-0.8,0.3-1.1c0.2-0.3,0.4-0.5,0.7-0.7c0.3-0.2,0.6-0.3,1-0.4c0.4-0.1,0.7-0.1,1.1-0.1
	s0.7,0,1.1,0.1c0.4,0.1,0.7,0.2,1,0.4c0.3,0.2,0.5,0.4,0.7,0.7c0.2,0.3,0.3,0.6,0.3,1.1h-1.8c0-0.4-0.2-0.6-0.4-0.8
	c-0.3-0.1-0.5-0.2-0.9-0.2c-0.1,0-0.2,0-0.4,0c-0.1,0-0.2,0-0.3,0.1c-0.1,0-0.2,0.1-0.3,0.2c-0.1,0.1-0.1,0.2-0.1,0.3
	c0,0.2,0.1,0.3,0.2,0.4c0.1,0.1,0.3,0.2,0.5,0.3c0.2,0.1,0.4,0.1,0.7,0.2c0.3,0.1,0.5,0.1,0.8,0.2c0.3,0.1,0.6,0.1,0.8,0.2
	c0.3,0.1,0.5,0.2,0.7,0.4c0.2,0.1,0.4,0.3,0.5,0.6c0.1,0.2,0.2,0.5,0.2,0.8c0,0.5-0.1,0.8-0.3,1.2c-0.2,0.3-0.4,0.6-0.7,0.8
	c-0.3,0.2-0.6,0.3-1,0.4c-0.4,0.1-0.8,0.1-1.2,0.1c-0.4,0-0.8,0-1.2-0.1c-0.4-0.1-0.7-0.2-1-0.4c-0.3-0.2-0.5-0.4-0.7-0.8
	c-0.2-0.3-0.3-0.7-0.3-1.2H61C61,32.5,61.1,32.7,61.2,32.9z M66.7,29.6c0.2-0.5,0.4-0.8,0.7-1.2c0.3-0.3,0.7-0.6,1.1-0.7
	c0.4-0.2,0.9-0.3,1.5-0.3c0.5,0,1,0.1,1.5,0.3s0.8,0.4,1.1,0.7c0.3,0.3,0.6,0.7,0.7,1.2c0.2,0.5,0.3,1,0.3,1.5
	c0,0.6-0.1,1.1-0.3,1.5c-0.2,0.5-0.4,0.8-0.7,1.2c-0.3,0.3-0.7,0.6-1.1,0.7c-0.4,0.2-0.9,0.3-1.5,0.3c-0.5,0-1-0.1-1.5-0.3
	c-0.4-0.2-0.8-0.4-1.1-0.7c-0.3-0.3-0.6-0.7-0.7-1.2c-0.2-0.5-0.3-1-0.3-1.5C66.4,30.5,66.5,30,66.7,29.6z M68.4,31.9
	c0.1,0.3,0.1,0.5,0.3,0.7c0.1,0.2,0.3,0.4,0.5,0.5c0.2,0.1,0.5,0.2,0.8,0.2c0.3,0,0.6-0.1,0.8-0.2c0.2-0.1,0.4-0.3,0.5-0.5
	c0.1-0.2,0.2-0.5,0.3-0.7c0.1-0.3,0.1-0.5,0.1-0.8c0-0.3,0-0.6-0.1-0.8c-0.1-0.3-0.1-0.5-0.3-0.7c-0.1-0.2-0.3-0.4-0.5-0.5
	c-0.2-0.1-0.5-0.2-0.8-0.2c-0.3,0-0.6,0.1-0.8,0.2c-0.2,0.1-0.4,0.3-0.5,0.5c-0.1,0.2-0.2,0.4-0.3,0.7c-0.1,0.3-0.1,0.5-0.1,0.8
	C68.4,31.4,68.4,31.7,68.4,31.9z M80.2,29.8c0-0.4,0.2-0.6,0.4-0.8c0.2-0.2,0.5-0.2,0.9-0.2c0.2,0,0.3,0,0.5,0
	c0.1,0,0.3,0.1,0.4,0.1c0.1,0.1,0.2,0.2,0.3,0.3c0.1,0.1,0.1,0.3,0.1,0.5c0,0.2,0,0.3-0.2,0.5c-0.1,0.1-0.3,0.2-0.5,0.2
	s-0.5,0.1-0.7,0.1c-0.3,0-0.6,0.1-0.9,0.1c-0.3,0-0.6,0.1-0.9,0.2c-0.3,0.1-0.5,0.2-0.8,0.3c-0.2,0.2-0.4,0.4-0.5,0.6
	c-0.1,0.3-0.2,0.6-0.2,1c0,0.4,0.1,0.7,0.2,0.9c0.1,0.3,0.3,0.5,0.5,0.6c0.2,0.2,0.5,0.3,0.8,0.4c0.3,0.1,0.6,0.1,0.9,0.1
	c0.4,0,0.9-0.1,1.3-0.2c0.4-0.1,0.8-0.3,1.1-0.7c0,0.1,0,0.2,0,0.3c0,0.1,0.1,0.2,0.1,0.3h1.9c-0.1-0.1-0.2-0.4-0.2-0.6
	c0-0.3-0.1-0.6-0.1-0.9v-3.6c0-0.4-0.1-0.8-0.3-1c-0.2-0.3-0.4-0.5-0.7-0.6c-0.3-0.1-0.6-0.2-1-0.3c-0.4,0-0.7-0.1-1.1-0.1
	c-0.4,0-0.8,0-1.2,0.1c-0.4,0.1-0.7,0.2-1,0.4c-0.3,0.2-0.6,0.4-0.8,0.7c-0.2,0.3-0.3,0.7-0.3,1.1H80.2z M82.8,31.9
	c0,0.1,0,0.3,0,0.4c0,0.2-0.1,0.4-0.2,0.5c-0.1,0.2-0.3,0.3-0.5,0.5c-0.2,0.1-0.5,0.2-0.9,0.2c-0.2,0-0.3,0-0.4,0
	c-0.1,0-0.3-0.1-0.4-0.1c-0.1-0.1-0.2-0.2-0.3-0.3c-0.1-0.1-0.1-0.3-0.1-0.4c0-0.2,0-0.3,0.1-0.4c0.1-0.1,0.1-0.2,0.3-0.3
	c0.1-0.1,0.2-0.1,0.4-0.2c0.1,0,0.3-0.1,0.4-0.1c0.2,0,0.3,0,0.5-0.1c0.2,0,0.3,0,0.4-0.1c0.1,0,0.3-0.1,0.4-0.1
	c0.1,0,0.2-0.1,0.3-0.2V31.9z M90.5,34.6h1.9v-5.7h1.3v-1.3h-1.3v-0.4c0-0.3,0.1-0.5,0.2-0.6c0.1-0.1,0.3-0.2,0.6-0.2
	c0.2,0,0.5,0,0.7,0V25c-0.2,0-0.3,0-0.5,0c-0.2,0-0.3,0-0.5,0c-0.8,0-1.4,0.2-1.8,0.6c-0.4,0.4-0.6,0.9-0.6,1.5v0.5h-2.2v-0.4
	c0-0.3,0.1-0.5,0.2-0.6c0.1-0.1,0.3-0.2,0.6-0.2c0.2,0,0.5,0,0.7,0V25c-0.2,0-0.3,0-0.5,0c-0.2,0-0.3,0-0.5,0
	c-0.8,0-1.4,0.2-1.8,0.6c-0.4,0.4-0.6,0.9-0.6,1.5v0.5h-1.1v1.3h1.1v5.7h1.9v-5.7h2.2V34.6z M94.5,29.6c0.2-0.5,0.4-0.8,0.7-1.2
	c0.3-0.3,0.7-0.6,1.1-0.7c0.4-0.2,0.9-0.3,1.5-0.3c0.5,0,1,0.1,1.5,0.3s0.8,0.4,1.1,0.7c0.3,0.3,0.6,0.7,0.7,1.2
	c0.2,0.5,0.3,1,0.3,1.5c0,0.6-0.1,1.1-0.3,1.5c-0.2,0.5-0.4,0.8-0.7,1.2c-0.3,0.3-0.7,0.6-1.1,0.7c-0.4,0.2-0.9,0.3-1.5,0.3
	c-0.5,0-1-0.1-1.5-0.3c-0.4-0.2-0.8-0.4-1.1-0.7c-0.3-0.3-0.6-0.7-0.7-1.2c-0.2-0.5-0.3-1-0.3-1.5C94.3,30.5,94.4,30,94.5,29.6z
	 M96.3,31.9c0.1,0.3,0.1,0.5,0.3,0.7c0.1,0.2,0.3,0.4,0.5,0.5c0.2,0.1,0.5,0.2,0.8,0.2c0.3,0,0.6-0.1,0.8-0.2
	c0.2-0.1,0.4-0.3,0.5-0.5c0.1-0.2,0.2-0.5,0.3-0.7c0.1-0.3,0.1-0.5,0.1-0.8c0-0.3,0-0.6-0.1-0.8c-0.1-0.3-0.1-0.5-0.3-0.7
	c-0.1-0.2-0.3-0.4-0.5-0.5c-0.2-0.1-0.5-0.2-0.8-0.2c-0.3,0-0.6,0.1-0.8,0.2c-0.2,0.1-0.4,0.3-0.5,0.5c-0.1,0.2-0.2,0.4-0.3,0.7
	c-0.1,0.3-0.1,0.5-0.1,0.8C96.2,31.4,96.2,31.7,96.3,31.9z M104.4,27.6v1.3h0c0.1-0.2,0.2-0.4,0.4-0.6c0.2-0.2,0.3-0.3,0.5-0.5
	c0.2-0.1,0.4-0.2,0.6-0.3c0.2-0.1,0.5-0.1,0.7-0.1c0.1,0,0.3,0,0.4,0.1v1.8c-0.1,0-0.2,0-0.3,0c-0.1,0-0.2,0-0.4,0
	c-0.4,0-0.6,0.1-0.9,0.2c-0.2,0.1-0.4,0.3-0.6,0.5s-0.3,0.4-0.3,0.7c-0.1,0.3-0.1,0.6-0.1,0.9v3.1h-1.9v-7H104.4z M112.5,33.7
	c-0.2,0.4-0.5,0.7-0.9,0.8s-0.8,0.3-1.2,0.3c-0.5,0-1-0.1-1.4-0.3c-0.4-0.2-0.7-0.5-1-0.8c-0.3-0.3-0.5-0.7-0.6-1.2
	c-0.1-0.5-0.2-0.9-0.2-1.4c0-0.5,0.1-0.9,0.2-1.4c0.1-0.4,0.3-0.8,0.6-1.2c0.3-0.3,0.6-0.6,1-0.8c0.4-0.2,0.8-0.3,1.4-0.3
	c0.4,0,0.8,0.1,1.2,0.3c0.4,0.2,0.7,0.4,0.9,0.8h0v-3.5h1.9v9.7h-1.8L112.5,33.7L112.5,33.7z M112.4,30.2c-0.1-0.3-0.1-0.5-0.3-0.7
	c-0.1-0.2-0.3-0.4-0.5-0.5c-0.2-0.1-0.5-0.2-0.8-0.2c-0.3,0-0.6,0.1-0.8,0.2c-0.2,0.1-0.4,0.3-0.5,0.5c-0.1,0.2-0.2,0.4-0.3,0.7
	c-0.1,0.3-0.1,0.5-0.1,0.8c0,0.3,0,0.5,0.1,0.8c0.1,0.3,0.2,0.5,0.3,0.7c0.1,0.2,0.3,0.4,0.5,0.5c0.2,0.1,0.5,0.2,0.8,0.2
	c0.3,0,0.6-0.1,0.8-0.2c0.2-0.1,0.4-0.3,0.5-0.5c0.1-0.2,0.2-0.5,0.3-0.7c0.1-0.3,0.1-0.5,0.1-0.8C112.5,30.8,112.4,30.5,112.4,30.2
	z M117.5,29.8c0-0.4,0.2-0.6,0.4-0.8c0.2-0.2,0.5-0.2,0.9-0.2c0.2,0,0.3,0,0.5,0c0.1,0,0.3,0.1,0.4,0.1c0.1,0.1,0.2,0.2,0.3,0.3
	c0.1,0.1,0.1,0.3,0.1,0.5c0,0.2,0,0.3-0.2,0.5c-0.1,0.1-0.3,0.2-0.5,0.2s-0.5,0.1-0.7,0.1c-0.3,0-0.6,0.1-0.9,0.1
	c-0.3,0-0.6,0.1-0.9,0.2c-0.3,0.1-0.5,0.2-0.8,0.3c-0.2,0.2-0.4,0.4-0.5,0.6c-0.1,0.3-0.2,0.6-0.2,1c0,0.4,0.1,0.7,0.2,0.9
	c0.1,0.3,0.3,0.5,0.5,0.6c0.2,0.2,0.5,0.3,0.8,0.4c0.3,0.1,0.6,0.1,0.9,0.1c0.4,0,0.9-0.1,1.3-0.2c0.4-0.1,0.8-0.3,1.1-0.7
	c0,0.1,0,0.2,0,0.3c0,0.1,0.1,0.2,0.1,0.3h1.9c-0.1-0.1-0.2-0.4-0.2-0.6c0-0.3-0.1-0.6-0.1-0.9v-3.6c0-0.4-0.1-0.8-0.3-1
	c-0.2-0.3-0.4-0.5-0.7-0.6c-0.3-0.1-0.6-0.2-1-0.3c-0.4,0-0.7-0.1-1.1-0.1c-0.4,0-0.8,0-1.2,0.1c-0.4,0.1-0.7,0.2-1,0.4
	c-0.3,0.2-0.6,0.4-0.8,0.7c-0.2,0.3-0.3,0.7-0.3,1.1H117.5z M120,31.9c0,0.1,0,0.3,0,0.4c0,0.2-0.1,0.4-0.2,0.5
	c-0.1,0.2-0.3,0.3-0.5,0.5c-0.2,0.1-0.5,0.2-0.9,0.2c-0.2,0-0.3,0-0.4,0c-0.1,0-0.3-0.1-0.4-0.1c-0.1-0.1-0.2-0.2-0.3-0.3
	c-0.1-0.1-0.1-0.3-0.1-0.4c0-0.2,0-0.3,0.1-0.4c0.1-0.1,0.1-0.2,0.3-0.3c0.1-0.1,0.2-0.1,0.4-0.2c0.1,0,0.3-0.1,0.4-0.1
	c0.2,0,0.3,0,0.5-0.1c0.2,0,0.3,0,0.4-0.1c0.1,0,0.3-0.1,0.4-0.1c0.1,0,0.2-0.1,0.3-0.2V31.9z M125.2,24.9v3.5h0
	c0.2-0.4,0.6-0.6,1-0.8c0.4-0.2,0.8-0.3,1.3-0.3c0.4,0,0.7,0.1,1,0.2c0.3,0.1,0.7,0.4,0.9,0.7c0.3,0.3,0.5,0.7,0.7,1.1
	c0.2,0.5,0.3,1,0.3,1.7c0,0.6-0.1,1.2-0.3,1.7c-0.2,0.5-0.4,0.8-0.7,1.1c-0.3,0.3-0.6,0.5-0.9,0.7c-0.3,0.1-0.7,0.2-1,0.2
	c-0.5,0-1-0.1-1.4-0.2c-0.4-0.2-0.7-0.4-0.9-0.8h0v0.9h-1.8v-9.7H125.2z M128.3,30.3c-0.1-0.3-0.2-0.5-0.3-0.7
	c-0.1-0.2-0.3-0.4-0.5-0.5c-0.2-0.1-0.4-0.2-0.7-0.2c-0.3,0-0.5,0.1-0.7,0.2c-0.2,0.1-0.4,0.3-0.5,0.5c-0.1,0.2-0.2,0.4-0.3,0.7
	c-0.1,0.3-0.1,0.6-0.1,0.9c0,0.3,0,0.6,0.1,0.8c0.1,0.3,0.2,0.5,0.3,0.7c0.1,0.2,0.3,0.4,0.5,0.5c0.2,0.1,0.5,0.2,0.7,0.2
	c0.3,0,0.5-0.1,0.7-0.2c0.2-0.1,0.4-0.3,0.5-0.5c0.1-0.2,0.2-0.4,0.3-0.7c0.1-0.3,0.1-0.5,0.1-0.8C128.4,30.8,128.3,30.5,128.3,30.3
	z M133.3,24.9v9.7h-1.9v-9.7H133.3z M136.8,32.9c0.3,0.3,0.7,0.4,1.2,0.4c0.4,0,0.7-0.1,1-0.3c0.3-0.2,0.5-0.4,0.5-0.6h1.7
	c-0.3,0.8-0.7,1.4-1.2,1.8c-0.6,0.4-1.2,0.5-2,0.5c-0.5,0-1-0.1-1.5-0.3c-0.4-0.2-0.8-0.4-1.1-0.8c-0.3-0.3-0.5-0.7-0.7-1.2
	c-0.2-0.5-0.3-0.9-0.3-1.5c0-0.5,0.1-1,0.3-1.5c0.2-0.5,0.4-0.8,0.7-1.2c0.3-0.3,0.7-0.6,1.1-0.8c0.4-0.2,0.9-0.3,1.5-0.3
	c0.6,0,1.1,0.1,1.6,0.3c0.4,0.2,0.8,0.5,1.1,0.9c0.3,0.4,0.5,0.8,0.6,1.3c0.1,0.5,0.2,1,0.1,1.6h-5
	C136.3,32.2,136.5,32.6,136.8,32.9z M138.9,29.2c-0.2-0.3-0.6-0.4-1-0.4c-0.3,0-0.6,0.1-0.8,0.2c-0.2,0.1-0.4,0.2-0.5,0.4
	c-0.1,0.2-0.2,0.3-0.3,0.5c0,0.2-0.1,0.3-0.1,0.5h3.1C139.3,29.9,139.2,29.5,138.9,29.2z M144.5,32.5v2.1h-2.1v-2.1H144.5z"/>
</svg>
