<?xml version="1.0" encoding="utf-8"?>
<!-- Generator: Adobe Illustrator 25.4.6, SVG Export Plug-In . SVG Version: 6.00 Build 0)  -->
<svg version="1.1" id="Layer_1" xmlns="http://www.w3.org/2000/svg" xmlns:xlink="http://www.w3.org/1999/xlink" x="0px" y="0px"
	 viewBox="0 0 320 50" style="enable-background:new 0 0 320 50;" xml:space="preserve">
<style type="text/css">
	.st0{fill:#439D51;}
	.st1{fill:#373535;}
	.st2{fill:none;}
</style>
<path class="st0" d="M13.3,31.8h-1l-0.3-0.9h-1.9l-0.3,0.9h-1l1.7-4.5h0.7c0.2,0,0.4,0.1,0.5,0.2c0.1,0.2,0.8,2.2,0.8,2.2h-0.9
	l-0.5-1.5l-0.7,1.9h1.9c0.3,0,0.4,0.1,0.5,0.3L13.3,31.8z"/>
<path class="st0" d="M21.8,31.8h-1l-0.3-0.9h-1.9l-0.3,0.9h-1l1.7-4.5h0.7c0.2,0,0.4,0.1,0.5,0.2c0.1,0.2,0.8,2.2,0.8,2.2h-0.9
	l-0.5-1.5l-0.7,1.9h1.9c0.3,0,0.4,0.1,0.5,0.3L21.8,31.8z"/>
<path class="st0" d="M13.6,27.3h1.8c1.4,0,2,0.7,2,2.2c0,0.8-0.3,1.5-0.7,1.8c-0.4,0.3-0.9,0.4-1.6,0.4h-1.5V27.3z M15.3,31
	c0.9,0,1.2-0.4,1.2-1.4c0-1-0.3-1.5-1.1-1.5h-0.9V31H15.3z"/>
<g>
	<path class="st1" d="M29.4,31.8h-0.7l-0.3-3.2l-1.1,3.2h-0.6l-1.1-3.2l-0.3,3.2h-0.7l0.4-4.2h0.8l1.2,3.3l1.1-3.3h0.8L29.4,31.8z"
		/>
	<path class="st1" d="M32.8,30.2c0,0,0,0.1,0,0.1c0,0.1,0,0.1,0,0.1h-2.1c0,0.2,0.1,0.4,0.2,0.6c0.2,0.2,0.4,0.3,0.7,0.3
		c0.3,0,0.5-0.1,0.8-0.2l0.2,0.5c-0.3,0.2-0.7,0.3-1.1,0.3c-0.5,0-0.8-0.2-1.1-0.5c-0.3-0.3-0.4-0.7-0.4-1.1c0-0.5,0.1-0.9,0.4-1.2
		s0.6-0.5,1.1-0.5c0.4,0,0.7,0.1,1,0.4C32.7,29.3,32.8,29.7,32.8,30.2z M32.2,29.9c0-0.2,0-0.4-0.1-0.5c-0.1-0.2-0.3-0.3-0.5-0.3
		c-0.2,0-0.4,0.1-0.5,0.2s-0.2,0.3-0.3,0.6H32.2z"/>
	<path class="st1" d="M37.9,31.8h-0.7V30c0-0.4,0-0.6-0.1-0.7s-0.2-0.2-0.4-0.2c-0.2,0-0.4,0.1-0.7,0.2c0,0.1,0,0.3,0,0.7v1.6h-0.7
		v-1.7c0-0.4,0-0.7-0.1-0.8c-0.1-0.1-0.2-0.1-0.3-0.1c-0.2,0-0.5,0.1-0.7,0.2v2.4h-0.7v-3.1h0.6v0.2c0.3-0.2,0.6-0.3,0.9-0.3
		c0.3,0,0.6,0.1,0.8,0.3c0.4-0.2,0.7-0.3,1-0.3c0.3,0,0.6,0.1,0.8,0.3c0.1,0.1,0.2,0.3,0.3,0.6c0,0.1,0,0.4,0,0.8V31.8z"/>
	<path class="st1" d="M41.5,30.2c0,0.5-0.1,0.9-0.4,1.2c-0.3,0.3-0.7,0.5-1.2,0.5c-0.3,0-0.7-0.1-1.2-0.2v-4.4h0.7v1.6
		c0.2-0.2,0.5-0.2,0.8-0.2c0.4,0,0.7,0.1,1,0.4S41.5,29.7,41.5,30.2z M40.8,30.2c0-0.3-0.1-0.6-0.2-0.7c-0.1-0.2-0.3-0.3-0.6-0.3
		c-0.2,0-0.4,0.1-0.7,0.2v1.8c0.2,0.1,0.4,0.1,0.5,0.1c0.3,0,0.5-0.1,0.7-0.3S40.8,30.5,40.8,30.2z"/>
	<path class="st1" d="M44.8,30.2c0,0,0,0.1,0,0.1c0,0.1,0,0.1,0,0.1h-2.1c0,0.2,0.1,0.4,0.2,0.6c0.2,0.2,0.4,0.3,0.7,0.3
		c0.3,0,0.5-0.1,0.8-0.2l0.2,0.5c-0.3,0.2-0.7,0.3-1.1,0.3c-0.5,0-0.8-0.2-1.1-0.5c-0.3-0.3-0.4-0.7-0.4-1.1c0-0.5,0.1-0.9,0.4-1.2
		s0.6-0.5,1.1-0.5c0.4,0,0.7,0.1,1,0.4C44.7,29.3,44.8,29.7,44.8,30.2z M44.2,29.9c0-0.2,0-0.4-0.1-0.5c-0.1-0.2-0.3-0.3-0.5-0.3
		c-0.2,0-0.4,0.1-0.5,0.2s-0.2,0.3-0.3,0.6H44.2z"/>
	<path class="st1" d="M47.4,28.7l-0.2,0.5c-0.1,0-0.1,0-0.2,0c-0.4,0-0.7,0.2-0.9,0.5v2.1h-0.7v-3.1h0.6v0.4
		c0.1-0.1,0.1-0.2,0.3-0.3c0.2-0.2,0.5-0.2,0.7-0.2C47.2,28.6,47.3,28.6,47.4,28.7z"/>
</g>
<g>
	<path class="st1" d="M50,30.9c0,0.3-0.1,0.5-0.3,0.7c-0.2,0.2-0.5,0.3-0.8,0.3c-0.3,0-0.5-0.1-0.8-0.2c-0.2-0.1-0.3-0.1-0.3-0.2
		l0.2-0.5c0.3,0.2,0.6,0.2,0.8,0.2c0.2,0,0.3,0,0.4-0.1c0.1-0.1,0.1-0.2,0.1-0.3c0-0.1-0.1-0.2-0.2-0.3c-0.1,0-0.2-0.1-0.5-0.2
		c-0.2-0.1-0.4-0.2-0.5-0.3c-0.2-0.2-0.3-0.4-0.3-0.6c0-0.3,0.1-0.5,0.3-0.7c0.2-0.2,0.5-0.3,0.8-0.3c0.4,0,0.8,0.1,1,0.3l-0.2,0.4
		c-0.2-0.1-0.5-0.2-0.7-0.2c-0.3,0-0.5,0.1-0.5,0.3c0,0.1,0.1,0.2,0.2,0.3c0.1,0,0.2,0.1,0.4,0.2c0.3,0.1,0.5,0.2,0.6,0.3
		C49.9,30.4,50,30.6,50,30.9z"/>
	<path class="st1" d="M53,31.8h-0.7v-4.2H53V31.8z"/>
	<path class="st1" d="M56.5,31.8h-0.7v-1.7c0-0.4,0-0.7-0.1-0.8c-0.1-0.1-0.2-0.1-0.4-0.1c-0.2,0-0.4,0.1-0.7,0.2v2.4h-0.7v-3.1h0.6
		v0.2c0.3-0.2,0.6-0.3,0.9-0.3c0.3,0,0.6,0.1,0.8,0.3c0.1,0.1,0.2,0.3,0.3,0.5c0,0.1,0,0.3,0,0.6V31.8z"/>
	<path class="st1" d="M59.4,30.9c0,0.3-0.1,0.5-0.3,0.7c-0.2,0.2-0.5,0.3-0.8,0.3c-0.3,0-0.5-0.1-0.8-0.2c-0.2-0.1-0.3-0.1-0.3-0.2
		l0.2-0.5c0.3,0.2,0.6,0.2,0.8,0.2c0.2,0,0.3,0,0.4-0.1c0.1-0.1,0.1-0.2,0.1-0.3c0-0.1-0.1-0.2-0.2-0.3c-0.1,0-0.2-0.1-0.5-0.2
		c-0.2-0.1-0.4-0.2-0.5-0.3c-0.2-0.2-0.3-0.4-0.3-0.6c0-0.3,0.1-0.5,0.3-0.7c0.2-0.2,0.5-0.3,0.8-0.3c0.4,0,0.8,0.1,1,0.3l-0.2,0.4
		c-0.2-0.1-0.5-0.2-0.7-0.2c-0.3,0-0.5,0.1-0.5,0.3c0,0.1,0.1,0.2,0.2,0.3c0.1,0,0.2,0.1,0.4,0.2c0.3,0.1,0.5,0.2,0.6,0.3
		C59.3,30.4,59.4,30.6,59.4,30.9z"/>
	<path class="st1" d="M62.7,31.8h-0.6v-0.2c-0.3,0.2-0.6,0.3-0.9,0.3c-0.3,0-0.6-0.1-0.8-0.3c-0.1-0.1-0.2-0.3-0.3-0.5
		c0-0.1,0-0.3,0-0.6v-1.7h0.7v1.7c0,0.2,0,0.4,0,0.4c0,0.2,0.1,0.3,0.2,0.4c0.1,0.1,0.2,0.1,0.4,0.1c0.2,0,0.4-0.1,0.7-0.2v-2.4h0.7
		V31.8z"/>
	<path class="st1" d="M65.4,28.7l-0.2,0.5c-0.1,0-0.1,0-0.2,0c-0.4,0-0.7,0.2-0.9,0.5v2.1h-0.7v-3.1h0.6v0.4
		c0.1-0.1,0.1-0.2,0.3-0.3c0.2-0.2,0.5-0.2,0.7-0.2C65.2,28.6,65.3,28.6,65.4,28.7z"/>
</g>
<g>
	<path class="st1" d="M68.2,31.8h-0.6v-0.2c-0.3,0.2-0.6,0.3-0.9,0.3c-0.3,0-0.5-0.1-0.7-0.3c-0.2-0.2-0.3-0.4-0.3-0.7
		c0-0.7,0.6-1.1,1.7-1.1h0.1v-0.1c0-0.2,0-0.3-0.1-0.4c-0.1-0.1-0.3-0.1-0.5-0.1c-0.3,0-0.6,0.1-0.8,0.2l-0.2-0.5
		c0.1-0.1,0.2-0.1,0.3-0.2c0.2-0.1,0.5-0.2,0.8-0.2c0.4,0,0.7,0.1,1,0.3c0.1,0.1,0.2,0.2,0.2,0.4c0,0.1,0,0.3,0,0.5V31.8z
		 M67.5,31.1v-0.8h-0.1c-0.5,0-0.8,0.1-1,0.2c-0.1,0.1-0.1,0.2-0.1,0.3c0,0.2,0.1,0.3,0.2,0.3s0.2,0.1,0.4,0.1
		C67,31.3,67.3,31.2,67.5,31.1z"/>
	<path class="st1" d="M71.6,31.8h-0.7v-1.7c0-0.4,0-0.7-0.1-0.8c-0.1-0.1-0.2-0.1-0.4-0.1c-0.2,0-0.4,0.1-0.7,0.2v2.4h-0.7v-3.1h0.6
		v0.2c0.3-0.2,0.6-0.3,0.9-0.3c0.3,0,0.6,0.1,0.8,0.3c0.1,0.1,0.2,0.3,0.3,0.5c0,0.1,0,0.3,0,0.6V31.8z"/>
	<path class="st1" d="M74.9,31.5c0,0.1-0.2,0.1-0.3,0.2c-0.3,0.1-0.5,0.2-0.8,0.2c-0.5,0-0.8-0.1-1.1-0.4s-0.4-0.7-0.4-1.1
		c0-0.5,0.2-0.9,0.5-1.2c0.3-0.3,0.7-0.5,1.2-0.5c0.3,0,0.5,0.1,0.7,0.2c0.2,0.1,0.3,0.1,0.3,0.2l-0.3,0.4c-0.2-0.1-0.4-0.2-0.7-0.2
		c-0.3,0-0.5,0.1-0.7,0.3c-0.2,0.2-0.2,0.4-0.2,0.7c0,0.3,0.1,0.6,0.2,0.8c0.2,0.2,0.4,0.3,0.7,0.3c0.2,0,0.5-0.1,0.8-0.2L74.9,31.5
		z"/>
</g>
<g>
	<path class="st1" d="M78,30.2c0,0,0,0.1,0,0.1c0,0.1,0,0.1,0,0.1h-2.1c0,0.2,0.1,0.4,0.2,0.6c0.2,0.2,0.4,0.3,0.7,0.3
		c0.3,0,0.5-0.1,0.8-0.2l0.2,0.5c-0.3,0.2-0.7,0.3-1.1,0.3c-0.5,0-0.8-0.2-1.1-0.5c-0.3-0.3-0.4-0.7-0.4-1.1c0-0.5,0.1-0.9,0.4-1.2
		s0.6-0.5,1.1-0.5c0.4,0,0.7,0.1,1,0.4C77.9,29.3,78,29.7,78,30.2z M77.3,29.9c0-0.2,0-0.4-0.1-0.5c-0.1-0.2-0.3-0.3-0.5-0.3
		c-0.2,0-0.4,0.1-0.5,0.2s-0.2,0.3-0.3,0.6H77.3z"/>
	<path class="st1" d="M83.1,28.8c0,0.4-0.1,0.7-0.4,0.9c-0.2,0.2-0.4,0.3-0.7,0.3c-0.2,0-0.4,0.1-0.8,0.1h-0.3v1.6h-0.7v-4.2h1.1
		c0.3,0,0.6,0,0.8,0.1c0.2,0.1,0.4,0.2,0.6,0.3C82.9,28.1,83.1,28.4,83.1,28.8z M82.3,28.8c0-0.2-0.1-0.4-0.2-0.5
		c-0.1-0.1-0.4-0.2-0.8-0.2h-0.4v1.4h0.3c0.5,0,0.8-0.1,0.9-0.2S82.3,29.1,82.3,28.8z"/>
	<path class="st1" d="M84.5,31.8h-0.7v-4.6h0.7V31.8z"/>
	<path class="st1" d="M87.7,31.8h-0.6v-0.2c-0.3,0.2-0.6,0.3-0.9,0.3c-0.3,0-0.5-0.1-0.7-0.3c-0.2-0.2-0.3-0.4-0.3-0.7
		c0-0.7,0.6-1.1,1.7-1.1H87v-0.1c0-0.2,0-0.3-0.1-0.4c-0.1-0.1-0.3-0.1-0.5-0.1c-0.3,0-0.6,0.1-0.8,0.2l-0.2-0.5
		c0.1-0.1,0.2-0.1,0.3-0.2c0.2-0.1,0.5-0.2,0.8-0.2c0.4,0,0.7,0.1,1,0.3c0.1,0.1,0.2,0.2,0.2,0.4c0,0.1,0,0.3,0,0.5V31.8z M87,31.1
		v-0.8h-0.1c-0.5,0-0.8,0.1-1,0.2c-0.1,0.1-0.1,0.2-0.1,0.3c0,0.2,0.1,0.3,0.2,0.3s0.2,0.1,0.4,0.1C86.5,31.3,86.8,31.2,87,31.1z"/>
	<path class="st1" d="M91.1,31.8h-0.7v-1.7c0-0.4,0-0.7-0.1-0.8c-0.1-0.1-0.2-0.1-0.4-0.1c-0.2,0-0.4,0.1-0.7,0.2v2.4h-0.7v-3.1h0.6
		v0.2c0.3-0.2,0.6-0.3,0.9-0.3c0.3,0,0.6,0.1,0.8,0.3c0.1,0.1,0.2,0.3,0.3,0.5c0,0.1,0,0.3,0,0.6V31.8z"/>
	<path class="st1" d="M93.9,30.9c0,0.3-0.1,0.5-0.3,0.7c-0.2,0.2-0.5,0.3-0.8,0.3c-0.3,0-0.5-0.1-0.8-0.2c-0.2-0.1-0.3-0.1-0.3-0.2
		l0.2-0.5c0.3,0.2,0.6,0.2,0.8,0.2c0.2,0,0.3,0,0.4-0.1c0.1-0.1,0.1-0.2,0.1-0.3c0-0.1-0.1-0.2-0.2-0.3c-0.1,0-0.2-0.1-0.5-0.2
		c-0.2-0.1-0.4-0.2-0.5-0.3c-0.2-0.2-0.3-0.4-0.3-0.6c0-0.3,0.1-0.5,0.3-0.7c0.2-0.2,0.5-0.3,0.8-0.3c0.4,0,0.8,0.1,1,0.3l-0.2,0.4
		c-0.2-0.1-0.5-0.2-0.7-0.2c-0.3,0-0.5,0.1-0.5,0.3c0,0.1,0.1,0.2,0.2,0.3c0.1,0,0.2,0.1,0.4,0.2c0.3,0.1,0.5,0.2,0.6,0.3
		C93.8,30.4,93.9,30.6,93.9,30.9z"/>
</g>
<path class="st0" d="M22.4,31.8c-0.3,0-0.5-0.2-0.5-0.5c0-0.3,0.2-0.5,0.5-0.5c0.3,0,0.5,0.2,0.5,0.5C23,31.6,22.7,31.8,22.4,31.8
	 M22.4,30.9c-0.2,0-0.4,0.2-0.4,0.4c0,0.2,0.2,0.4,0.4,0.4c0.2,0,0.4-0.2,0.4-0.4C22.8,31.1,22.6,30.9,22.4,30.9 M22.5,31.6
	l-0.1-0.1c0-0.1,0-0.1-0.1-0.1h0v0.2h-0.1V31h0.1c0.1,0,0.1,0,0.2,0c0,0,0.1,0.1,0.1,0.1c0,0.1,0,0.1-0.1,0.1c0,0,0,0,0.1,0.1
	l0.1,0.2H22.5z M22.5,31.1C22.4,31.1,22.4,31.1,22.5,31.1l-0.1,0v0.1c0,0,0.1,0,0.1,0C22.5,31.2,22.5,31.2,22.5,31.1
	C22.5,31.1,22.5,31.1,22.5,31.1"/>
<rect x="8.9" y="26.5" class="st2" width="85.2" height="5.9"/>
</svg>
