<?xml version="1.0" encoding="utf-8"?>
<!-- Generator: Adobe Illustrator 25.4.6, SVG Export Plug-In . SVG Version: 6.00 Build 0)  -->
<svg version="1.1" id="Layer_1" xmlns="http://www.w3.org/2000/svg" xmlns:xlink="http://www.w3.org/1999/xlink" x="0px" y="0px"
	 viewBox="0 0 320 50" style="enable-background:new 0 0 320 50;" xml:space="preserve">
<style type="text/css">
	.st0{fill:#339933;}
</style>
<g>
	<path class="st0" d="M218.7,34.8c0.1-0.4,0.3-0.7,0.6-1s0.5-0.5,0.9-0.7c0.4-0.2,0.8-0.2,1.2-0.2c0.5,0,0.9,0.1,1.2,0.2
		c0.4,0.2,0.7,0.4,0.9,0.7s0.4,0.6,0.6,1c0.1,0.4,0.2,0.8,0.2,1.2c0,0.4-0.1,0.8-0.2,1.2c-0.1,0.4-0.3,0.7-0.6,1s-0.5,0.5-0.9,0.6
		c-0.4,0.2-0.8,0.2-1.2,0.2c-0.4,0-0.9-0.1-1.2-0.2s-0.7-0.4-0.9-0.6s-0.4-0.6-0.6-1s-0.2-0.8-0.2-1.2
		C218.5,35.6,218.5,35.2,218.7,34.8z M219.8,36.7c0.1,0.2,0.1,0.4,0.3,0.6c0.1,0.2,0.3,0.3,0.5,0.4c0.2,0.1,0.4,0.2,0.7,0.2
		s0.5-0.1,0.7-0.2c0.2-0.1,0.4-0.3,0.5-0.4c0.1-0.2,0.2-0.4,0.3-0.6c0.1-0.2,0.1-0.5,0.1-0.7c0-0.3,0-0.5-0.1-0.7
		c-0.1-0.2-0.1-0.5-0.3-0.6s-0.3-0.3-0.5-0.5s-0.4-0.2-0.7-0.2s-0.5,0.1-0.7,0.2c-0.2,0.1-0.4,0.3-0.5,0.5s-0.2,0.4-0.3,0.6
		c-0.1,0.2-0.1,0.5-0.1,0.7C219.8,36.3,219.8,36.5,219.8,36.7z"/>
	<path class="st0" d="M226.1,34.7v0.6h0c0.1-0.2,0.3-0.4,0.6-0.5c0.2-0.1,0.5-0.2,0.7-0.2c0.3,0,0.6,0,0.8,0.1
		c0.2,0.1,0.4,0.2,0.5,0.4c0.1,0.2,0.2,0.3,0.2,0.5c0,0.2,0.1,0.5,0.1,0.7v2.6h-1.2v-2.4c0-0.3-0.1-0.6-0.2-0.8
		c-0.1-0.2-0.3-0.3-0.6-0.3c-0.3,0-0.5,0.1-0.7,0.3c-0.1,0.2-0.2,0.5-0.2,0.9v2.2H225v-4.2H226.1z"/>
	<path class="st0" d="M231.1,33.1v5.9h-1.2v-5.9H231.1z"/>
	<path class="st0" d="M233.5,40.2c-0.2,0.1-0.5,0.2-0.9,0.2c-0.1,0-0.2,0-0.4,0c-0.1,0-0.2,0-0.4,0v-1c0.1,0,0.2,0,0.3,0
		c0.1,0,0.2,0,0.3,0c0.2,0,0.3-0.1,0.3-0.2c0.1-0.1,0.1-0.2,0.1-0.3c0-0.1,0-0.2,0-0.3l-1.5-4h1.2l1,2.9h0l0.9-2.9h1.2l-1.8,4.8
		C233.9,39.8,233.8,40,233.5,40.2z"/>
	<path class="st0" d="M238.1,35.5v-0.8h0.7v-0.3c0-0.4,0.1-0.7,0.4-0.9c0.2-0.2,0.6-0.4,1.1-0.4c0.1,0,0.2,0,0.3,0
		c0.1,0,0.2,0,0.3,0V34c-0.1,0-0.3,0-0.4,0c-0.2,0-0.3,0-0.3,0.1c-0.1,0.1-0.1,0.2-0.1,0.4v0.3h0.8v0.8h-0.8v3.5h-1.2v-3.5H238.1z"
		/>
	<path class="st0" d="M241.3,35.9c0.1-0.3,0.3-0.5,0.4-0.7s0.4-0.3,0.7-0.5c0.3-0.1,0.6-0.2,0.9-0.2s0.6,0.1,0.9,0.2
		c0.3,0.1,0.5,0.3,0.7,0.5s0.3,0.4,0.4,0.7c0.1,0.3,0.2,0.6,0.2,0.9s-0.1,0.6-0.2,0.9c-0.1,0.3-0.3,0.5-0.4,0.7s-0.4,0.3-0.7,0.4
		c-0.3,0.1-0.6,0.2-0.9,0.2s-0.6-0.1-0.9-0.2c-0.3-0.1-0.5-0.3-0.7-0.4s-0.3-0.4-0.4-0.7s-0.2-0.6-0.2-0.9S241.2,36.2,241.3,35.9z
		 M242.3,37.3c0,0.2,0.1,0.3,0.2,0.4c0.1,0.1,0.2,0.2,0.3,0.3c0.1,0.1,0.3,0.1,0.5,0.1s0.4,0,0.5-0.1c0.1-0.1,0.2-0.2,0.3-0.3
		c0.1-0.1,0.1-0.3,0.2-0.4c0-0.2,0-0.3,0-0.5s0-0.3,0-0.5c0-0.2-0.1-0.3-0.2-0.4s-0.2-0.2-0.3-0.3c-0.1-0.1-0.3-0.1-0.5-0.1
		s-0.4,0-0.5,0.1c-0.1,0.1-0.2,0.2-0.3,0.3s-0.1,0.3-0.2,0.4s0,0.3,0,0.5S242.3,37.1,242.3,37.3z"/>
	<path class="st0" d="M247.4,34.7v0.8h0c0.1-0.1,0.1-0.3,0.2-0.4s0.2-0.2,0.3-0.3c0.1-0.1,0.2-0.1,0.4-0.2s0.3-0.1,0.4-0.1
		c0.1,0,0.2,0,0.3,0v1.1c-0.1,0-0.1,0-0.2,0c-0.1,0-0.2,0-0.2,0c-0.2,0-0.4,0-0.5,0.1c-0.1,0.1-0.3,0.2-0.4,0.3
		c-0.1,0.1-0.2,0.3-0.2,0.4s-0.1,0.3-0.1,0.5v1.9h-1.2v-4.2H247.4z"/>
	<path class="st0" d="M254.8,33.1l2.2,5.9h-1.3l-0.4-1.3H253l-0.5,1.3h-1.3l2.2-5.9H254.8z M254.9,36.7l-0.7-2.2h0l-0.8,2.2H254.9z"
		/>
	<path class="st0" d="M260,33.1c0.4,0,0.7,0.1,1.1,0.2s0.6,0.3,0.8,0.5c0.2,0.2,0.4,0.5,0.6,0.9s0.2,0.8,0.2,1.3
		c0,0.4-0.1,0.8-0.2,1.2c-0.1,0.4-0.3,0.7-0.5,0.9c-0.2,0.3-0.5,0.5-0.8,0.6c-0.3,0.2-0.7,0.2-1.2,0.2h-2.5v-5.9H260z M259.9,37.8
		c0.2,0,0.4,0,0.5-0.1c0.2-0.1,0.3-0.2,0.5-0.3c0.1-0.1,0.2-0.3,0.3-0.5s0.1-0.5,0.1-0.8c0-0.3,0-0.6-0.1-0.8s-0.2-0.4-0.3-0.6
		c-0.1-0.2-0.3-0.3-0.5-0.4c-0.2-0.1-0.5-0.1-0.8-0.1h-0.9v3.7H259.9z"/>
	<path class="st0" d="M266.5,33.1l2.2,5.9h-1.3l-0.4-1.3h-2.2l-0.5,1.3h-1.3l2.2-5.9H266.5z M266.6,36.7l-0.7-2.2h0l-0.8,2.2H266.6z
		"/>
	<path class="st0" d="M273.3,33.1l1.4,4h0l1.3-4h1.8v5.9h-1.2v-4.2h0l-1.4,4.2h-1l-1.4-4.1h0v4.1h-1.2v-5.9H273.3z"/>
	<path class="st0" d="M280,37.9c0.2,0.2,0.4,0.3,0.8,0.3c0.2,0,0.4-0.1,0.6-0.2c0.2-0.1,0.3-0.2,0.3-0.4h1c-0.2,0.5-0.4,0.9-0.8,1.1
		c-0.3,0.2-0.8,0.3-1.2,0.3c-0.3,0-0.6-0.1-0.9-0.2c-0.3-0.1-0.5-0.3-0.7-0.5c-0.2-0.2-0.3-0.4-0.4-0.7c-0.1-0.3-0.2-0.6-0.2-0.9
		c0-0.3,0.1-0.6,0.2-0.9c0.1-0.3,0.3-0.5,0.4-0.7c0.2-0.2,0.4-0.4,0.7-0.5c0.3-0.1,0.6-0.2,0.9-0.2c0.4,0,0.7,0.1,0.9,0.2
		c0.3,0.1,0.5,0.3,0.7,0.6c0.2,0.2,0.3,0.5,0.4,0.8c0.1,0.3,0.1,0.6,0.1,0.9h-3.1C279.8,37.5,279.9,37.7,280,37.9z M281.3,35.7
		c-0.1-0.2-0.4-0.2-0.6-0.2c-0.2,0-0.3,0-0.5,0.1c-0.1,0.1-0.2,0.1-0.3,0.2c-0.1,0.1-0.1,0.2-0.2,0.3c0,0.1,0,0.2-0.1,0.3h1.9
		C281.6,36.1,281.5,35.8,281.3,35.7z"/>
	<path class="st0" d="M284.6,34.7v0.6h0c0.2-0.2,0.3-0.4,0.6-0.5c0.2-0.1,0.5-0.2,0.7-0.2c0.3,0,0.5,0.1,0.7,0.2
		c0.2,0.1,0.4,0.3,0.5,0.6c0.1-0.2,0.3-0.4,0.5-0.5c0.2-0.1,0.5-0.2,0.8-0.2c0.2,0,0.4,0,0.6,0.1s0.4,0.1,0.5,0.3s0.2,0.3,0.3,0.5
		c0.1,0.2,0.1,0.4,0.1,0.7v2.8h-1.2v-2.4c0-0.1,0-0.3,0-0.4s0-0.2-0.1-0.3c0-0.1-0.1-0.2-0.2-0.2s-0.2-0.1-0.4-0.1s-0.3,0-0.4,0.1
		c-0.1,0.1-0.2,0.1-0.2,0.2c-0.1,0.1-0.1,0.2-0.1,0.3c0,0.1,0,0.3,0,0.4v2.4h-1.2v-2.4c0-0.1,0-0.2,0-0.4c0-0.1,0-0.2-0.1-0.3
		s-0.1-0.2-0.2-0.2c-0.1-0.1-0.2-0.1-0.4-0.1c-0.1,0-0.1,0-0.2,0c-0.1,0-0.2,0.1-0.3,0.1s-0.2,0.2-0.2,0.3c-0.1,0.1-0.1,0.3-0.1,0.5
		v2.5h-1.2v-4.2H284.6z"/>
	<path class="st0" d="M292.1,33.1v2.1h0c0.1-0.2,0.3-0.4,0.6-0.5c0.2-0.1,0.5-0.2,0.8-0.2c0.2,0,0.4,0,0.6,0.1
		c0.2,0.1,0.4,0.2,0.6,0.4s0.3,0.4,0.4,0.7c0.1,0.3,0.2,0.6,0.2,1c0,0.4-0.1,0.7-0.2,1c-0.1,0.3-0.2,0.5-0.4,0.7s-0.4,0.3-0.6,0.4
		c-0.2,0.1-0.4,0.1-0.6,0.1c-0.3,0-0.6,0-0.8-0.1c-0.2-0.1-0.4-0.3-0.6-0.5h0v0.5h-1.1v-5.9H292.1z M294,36.3c0-0.2-0.1-0.3-0.2-0.4
		s-0.2-0.2-0.3-0.3c-0.1-0.1-0.3-0.1-0.4-0.1c-0.2,0-0.3,0-0.4,0.1c-0.1,0.1-0.2,0.2-0.3,0.3s-0.1,0.3-0.2,0.4
		c0,0.2-0.1,0.3-0.1,0.5c0,0.2,0,0.3,0.1,0.5s0.1,0.3,0.2,0.4c0.1,0.1,0.2,0.2,0.3,0.3s0.3,0.1,0.4,0.1c0.2,0,0.3,0,0.4-0.1
		s0.2-0.2,0.3-0.3c0.1-0.1,0.1-0.3,0.2-0.4s0.1-0.3,0.1-0.5C294,36.6,294,36.5,294,36.3z"/>
	<path class="st0" d="M297.2,37.9c0.2,0.2,0.4,0.3,0.8,0.3c0.2,0,0.4-0.1,0.6-0.2c0.2-0.1,0.3-0.2,0.3-0.4h1
		c-0.2,0.5-0.4,0.9-0.8,1.1c-0.3,0.2-0.8,0.3-1.2,0.3c-0.3,0-0.6-0.1-0.9-0.2c-0.3-0.1-0.5-0.3-0.7-0.5c-0.2-0.2-0.3-0.4-0.4-0.7
		c-0.1-0.3-0.2-0.6-0.2-0.9c0-0.3,0.1-0.6,0.2-0.9c0.1-0.3,0.3-0.5,0.4-0.7c0.2-0.2,0.4-0.4,0.7-0.5c0.3-0.1,0.6-0.2,0.9-0.2
		c0.4,0,0.7,0.1,0.9,0.2c0.3,0.1,0.5,0.3,0.7,0.6c0.2,0.2,0.3,0.5,0.4,0.8c0.1,0.3,0.1,0.6,0.1,0.9h-3.1
		C296.9,37.5,297,37.7,297.2,37.9z M298.5,35.7c-0.1-0.2-0.4-0.2-0.6-0.2c-0.2,0-0.3,0-0.5,0.1c-0.1,0.1-0.2,0.1-0.3,0.2
		c-0.1,0.1-0.1,0.2-0.2,0.3c0,0.1,0,0.2-0.1,0.3h1.9C298.7,36.1,298.6,35.8,298.5,35.7z"/>
	<path class="st0" d="M301.8,34.7v0.8h0c0.1-0.1,0.1-0.3,0.2-0.4s0.2-0.2,0.3-0.3c0.1-0.1,0.2-0.1,0.4-0.2s0.3-0.1,0.4-0.1
		c0.1,0,0.2,0,0.3,0v1.1c-0.1,0-0.1,0-0.2,0c-0.1,0-0.2,0-0.2,0c-0.2,0-0.4,0-0.5,0.1c-0.1,0.1-0.3,0.2-0.4,0.3
		c-0.1,0.1-0.2,0.3-0.2,0.4s-0.1,0.3-0.1,0.5v1.9h-1.2v-4.2H301.8z"/>
	<path class="st0" d="M304.8,37.9c0.1,0.1,0.1,0.2,0.2,0.2s0.2,0.1,0.3,0.1s0.2,0,0.3,0c0.1,0,0.2,0,0.3,0c0.1,0,0.2,0,0.2-0.1
		s0.1-0.1,0.2-0.2c0-0.1,0.1-0.2,0.1-0.3c0-0.2-0.1-0.3-0.3-0.4c-0.2-0.1-0.6-0.2-1-0.3c-0.2,0-0.3-0.1-0.5-0.1s-0.3-0.1-0.4-0.2
		s-0.2-0.2-0.3-0.3c-0.1-0.1-0.1-0.3-0.1-0.5c0-0.3,0.1-0.5,0.2-0.7c0.1-0.2,0.2-0.3,0.4-0.4c0.2-0.1,0.4-0.2,0.6-0.2
		s0.4-0.1,0.7-0.1c0.2,0,0.5,0,0.7,0.1s0.4,0.1,0.6,0.2c0.2,0.1,0.3,0.2,0.4,0.4c0.1,0.2,0.2,0.4,0.2,0.7h-1.1
		c0-0.2-0.1-0.4-0.3-0.5s-0.3-0.1-0.5-0.1c-0.1,0-0.1,0-0.2,0c-0.1,0-0.1,0-0.2,0.1c-0.1,0-0.1,0.1-0.2,0.1c0,0.1-0.1,0.1-0.1,0.2
		c0,0.1,0,0.2,0.1,0.3c0.1,0.1,0.2,0.1,0.3,0.2s0.3,0.1,0.4,0.1c0.2,0,0.3,0.1,0.5,0.1c0.2,0,0.3,0.1,0.5,0.1s0.3,0.1,0.4,0.2
		c0.1,0.1,0.2,0.2,0.3,0.3c0.1,0.1,0.1,0.3,0.1,0.5c0,0.3-0.1,0.5-0.2,0.7c-0.1,0.2-0.3,0.3-0.4,0.5s-0.4,0.2-0.6,0.2
		c-0.2,0-0.5,0.1-0.7,0.1c-0.2,0-0.5,0-0.7-0.1c-0.2,0-0.4-0.1-0.6-0.2c-0.2-0.1-0.3-0.3-0.5-0.5c-0.1-0.2-0.2-0.4-0.2-0.7h1.1
		C304.7,37.7,304.8,37.8,304.8,37.9z"/>
</g>
</svg>
