<svg baseProfile="tiny" xmlns="http://www.w3.org/2000/svg" viewBox="0 0 160 600" overflow="visible"><path d="M13.8 187.3h4.6l4.3 7.3 4.3-7.3h4.6l-6.9 11.4v7.1h-4.1v-7.2l-6.8-11.3zM29.7 196.2c.3-.9.8-1.6 1.4-2.2.6-.6 1.3-1.1 2.2-1.4.8-.3 1.8-.5 2.9-.5 1.1 0 2 .2 2.9.5.9.3 1.6.8 2.2 1.4.6.6 1.1 1.4 1.4 2.2s.5 1.9.5 2.9-.2 2-.5 2.9-.8 1.6-1.4 2.2c-.6.6-1.3 1.1-2.2 1.4-.9.3-1.8.5-2.9.5-1.1 0-2-.2-2.9-.5-.8-.3-1.6-.8-2.2-1.4-.6-.6-1.1-1.4-1.4-2.2-.3-.9-.5-1.8-.5-2.9s.2-2 .5-2.9zm3.4 4.5c.1.5.3 1 .5 1.4.3.4.6.7 1 1 .4.2.9.4 1.6.4s1.1-.1 1.6-.4c.4-.2.8-.6 1-1 .3-.4.4-.9.5-1.4s.2-1 .2-1.6c0-.5-.1-1.1-.2-1.6s-.3-1-.5-1.4c-.3-.4-.6-.7-1-1-.4-.3-.9-.4-1.6-.4s-1.1.1-1.6.4c-.4.3-.8.6-1 1-.3.4-.4.9-.5 1.4s-.2 1-.2 1.6c0 .6.1 1.1.2 1.6zM54.4 205.9V204h-.1c-.5.8-1.1 1.3-1.8 1.7-.7.3-1.5.5-2.3.5-1 0-1.8-.1-2.4-.4-.6-.3-1.1-.6-1.5-1.1-.4-.5-.6-1.1-.8-1.7-.1-.7-.2-1.4-.2-2.3v-8.3H49v7.6c0 1.1.2 1.9.5 2.5.3.5 1 .8 1.8.8 1 0 1.7-.3 2.2-.9.5-.6.7-1.6.7-3v-7h3.7v13.4h-3.5zM79.8 192.3c-.2-.4-.5-.7-.9-1-.4-.3-.8-.5-1.2-.7-.5-.2-.9-.2-1.4-.2-.9 0-1.7.2-2.3.5-.6.4-1.2.8-1.6 1.4-.4.6-.7 1.3-.9 2-.2.8-.3 1.6-.3 2.4 0 .8.1 1.5.3 2.3.2.7.5 1.4.9 2s.9 1.1 1.6 1.4c.6.4 1.4.5 2.3.5 1.2 0 2.2-.4 2.9-1.1s1.1-1.8 1.3-3h4c-.1 1.2-.4 2.2-.8 3.1s-1 1.7-1.7 2.4-1.5 1.2-2.5 1.5-2 .5-3.1.5c-1.4 0-2.7-.2-3.8-.7-1.1-.5-2.1-1.2-2.9-2-.8-.9-1.4-1.9-1.8-3.1s-.9-2.5-.9-3.8c0-1.4.2-2.7.6-3.9.4-1.2 1-2.2 1.8-3.1.8-.9 1.7-1.6 2.9-2.1 1.1-.5 2.4-.8 3.8-.8 1 0 2 .1 2.9.4.9.3 1.7.7 2.4 1.3.7.6 1.3 1.3 1.8 2.1s.8 1.8.9 2.9h-4c.1-.4-.1-.8-.3-1.2zM96.1 187.3l6.9 18.6h-4.2l-1.4-4.1h-6.9l-1.5 4.1h-4.1l7-18.6h4.2zm.3 11.4l-2.3-6.8H94l-2.4 6.8h4.8zM108.5 187.3l7.7 12.5h.1v-12.5h3.8v18.6H116l-7.7-12.4h-.1v12.4h-3.8v-18.6h4.1zM127.1 187.3v4c0 .6-.1 1.1-.2 1.6-.2.5-.4.9-.8 1.3-.3.4-.7.7-1.2.9-.5.3-1 .4-1.5.5v-1.7c.7-.2 1.1-.6 1.4-1 .2-.4.4-1 .4-1.6h-1.7v-4h3.6zM129 190.7v-3.4h15.2v3.4h-5.6v15.1h-4.1v-15.1H129z"/><g><path d="M47.4 231c-.1.7-.4 1.4-.8 2-.4.6-1.1 1.2-1.9 1.6-.8.4-1.9.6-3.3.6-.8 0-1.5-.1-2.3-.3-.7-.2-1.4-.6-1.9-1-.6-.5-1-1-1.4-1.8s-.5-1.6-.5-2.6V228H39v.8c0 .5 0 .9.1 1.2.1.4.2.7.4 1s.4.5.7.6c.3.2.7.2 1.2.2s1-.1 1.2-.3c.3-.2.5-.4.6-.7.1-.3.2-.6.2-1v-13.5h4.1V229c.1.6.1 1.3-.1 2zM64.6 233.4c-1.4 1.2-3.3 1.8-5.8 1.8s-4.5-.6-5.8-1.8c-1.4-1.2-2.1-3.1-2.1-5.6v-11.5H55v11.5c0 .5 0 1 .1 1.5s.3.9.5 1.3c.3.4.7.7 1.2.9.5.2 1.2.4 2 .4 1.5 0 2.5-.3 3-1 .6-.7.8-1.7.8-3.1v-11.5h4.1v11.5c0 2.6-.7 4.4-2.1 5.6zM78 216.3c1.2 0 2.3.2 3.3.6 1 .4 1.9 1 2.7 1.7s1.3 1.7 1.8 2.9.6 2.5.6 4c0 1.4-.2 2.6-.5 3.7s-.9 2.1-1.6 3c-.7.8-1.6 1.5-2.6 2s-2.3.7-3.7.7h-8v-18.6h8zm-.3 15.1c.6 0 1.2-.1 1.7-.3.6-.2 1-.5 1.5-.9s.8-1 1-1.7c.3-.7.4-1.6.4-2.6 0-.9-.1-1.8-.3-2.5-.2-.8-.5-1.4-.9-1.9s-1-.9-1.7-1.2c-.7-.3-1.5-.4-2.5-.4H74v11.7h3.7zM100 234.7c-.9.4-1.8.6-2.7.6-1.4 0-2.7-.2-3.8-.7-1.1-.5-2.1-1.2-2.9-2-.8-.9-1.4-1.9-1.8-3.1s-.6-2.4-.6-3.8.2-2.7.6-3.9c.4-1.2 1-2.2 1.8-3.1.8-.9 1.7-1.6 2.9-2.1 1.1-.5 2.4-.8 3.8-.8 1 0 1.9.1 2.8.4.9.3 1.7.7 2.4 1.3s1.3 1.2 1.8 2.1c.5.8.8 1.8.9 2.8h-3.9c-.2-1-.7-1.8-1.4-2.3s-1.5-.8-2.5-.8c-.9 0-1.7.2-2.3.5-.6.4-1.2.8-1.6 1.4-.4.6-.7 1.3-.9 2-.2.8-.3 1.6-.3 2.4 0 .8.1 1.5.3 2.3.2.7.5 1.4.9 2s.9 1.1 1.6 1.4c.6.4 1.4.5 2.3.5 1.4 0 2.4-.3 3.1-1 .7-.7 1.2-1.7 1.3-3h-4.1v-3h7.8v10h-2.6l-.4-2.1c-.8 1-1.6 1.7-2.5 2zM122.4 216.3v3.4h-9.8v4h9v3.2h-9v4.5h10v3.4h-14.1v-18.6h13.9z"/></g><g fill="#349946"><path d="M7.5 254.5c.1-.9.3-1.6.6-2.2.4-.6.9-1 1.5-1.4.6-.3 1.3-.6 2-.7.7-.1 1.5-.2 2.2-.2.7 0 1.4 0 2.1.1.7.1 1.3.3 1.9.6.6.3 1 .7 1.4 1.2.4.5.5 1.1.5 2v7c0 .6 0 1.2.1 1.7.1.6.2 1 .4 1.2h-3.7c-.1-.2-.1-.4-.2-.6 0-.2-.1-.4-.1-.7-.6.6-1.3 1-2.1 1.3-.8.2-1.6.4-2.4.4-.6 0-1.2-.1-1.8-.2s-1-.4-1.5-.7c-.4-.3-.7-.7-1-1.2-.2-.5-.4-1.1-.4-1.8 0-.8.1-1.4.4-1.9.3-.5.6-.9 1-1.2.4-.3.9-.5 1.5-.7.5-.1 1.1-.3 1.7-.4.6-.1 1.1-.2 1.6-.2.5-.1 1-.1 1.4-.2s.7-.3 1-.5c.2-.2.4-.5.3-.9 0-.4-.1-.7-.2-.9-.1-.2-.3-.4-.5-.5-.2-.1-.5-.2-.8-.3-.3 0-.6-.1-.9-.1-.7 0-1.3.2-1.7.5s-.7.8-.7 1.6H7.5zm8.5 2.8l-.6.3c-.2.1-.5.1-.8.2-.3.1-.6.1-.8.1-.3 0-.6.1-.9.1-.3.1-.6.1-.8.2-.3.1-.5.2-.7.4-.2.1-.4.3-.5.6-.1.2-.2.5-.2.9 0 .3.1.6.2.8.1.2.3.4.5.5s.5.2.7.3c.3.1.6.1.9.1.7 0 1.3-.1 1.7-.4.4-.2.7-.5.9-.9.2-.3.3-.7.4-1 0-.3.1-.6.1-.8v-1.4zM26.3 248.7v-3.4h15.2v3.4H36v15.1h-4.1v-15.1h-5.6zM43.2 250.8c.4-1.2 1-2.2 1.8-3.1.8-.9 1.7-1.6 2.9-2.1 1.1-.5 2.4-.8 3.8-.8s2.7.3 3.8.8c1.1.5 2.1 1.2 2.9 2.1.8.9 1.4 1.9 1.8 3.1.4 1.2.6 2.5.6 3.9s-.2 2.6-.6 3.8-1 2.2-1.8 3.1c-.8.9-1.7 1.5-2.9 2-1.1.5-2.4.7-3.8.7s-2.7-.2-3.8-.7c-1.1-.5-2.1-1.2-2.9-2-.8-.9-1.4-1.9-1.8-3.1s-.6-2.4-.6-3.8.2-2.7.6-3.9zm3.8 6.1c.2.7.5 1.4.9 2 .4.6.9 1.1 1.6 1.4.6.4 1.4.5 2.3.5s1.7-.2 2.3-.5c.6-.4 1.2-.8 1.6-1.4.4-.6.7-1.3.9-2 .2-.7.3-1.5.3-2.3 0-.8-.1-1.6-.3-2.4-.2-.8-.5-1.4-.9-2-.4-.6-.9-1.1-1.6-1.4-.6-.4-1.4-.5-2.3-.5s-1.7.2-2.3.5c-.6.4-1.2.8-1.6 1.4-.4.6-.7 1.3-.9 2-.2.8-.3 1.6-.3 2.4 0 .8.1 1.6.3 2.3zM63.2 250.8c.4-1.2 1-2.2 1.8-3.1.8-.9 1.7-1.6 2.9-2.1 1.1-.5 2.4-.8 3.8-.8s2.7.3 3.8.8c1.1.5 2.1 1.2 2.9 2.1.8.9 1.4 1.9 1.8 3.1.4 1.2.6 2.5.6 3.9s-.2 2.6-.6 3.8-1 2.2-1.8 3.1c-.8.9-1.7 1.5-2.9 2-1.1.5-2.4.7-3.8.7s-2.7-.2-3.8-.7c-1.1-.5-2.1-1.2-2.9-2-.8-.9-1.4-1.9-1.8-3.1s-.6-2.4-.6-3.8.2-2.7.6-3.9zm3.7 6.1c.2.7.5 1.4.9 2s.9 1.1 1.6 1.4c.6.4 1.4.5 2.3.5.9 0 1.7-.2 2.3-.5.6-.4 1.2-.8 1.6-1.4s.7-1.3.9-2c.2-.7.3-1.5.3-2.3 0-.8-.1-1.6-.3-2.4-.2-.8-.5-1.4-.9-2-.4-.6-.9-1.1-1.6-1.4-.6-.4-1.4-.5-2.3-.5-.9 0-1.7.2-2.3.5-.6.4-1.2.8-1.6 1.4-.4.6-.7 1.3-.9 2-.2.8-.3 1.6-.3 2.4.1.8.2 1.6.3 2.3zM81.9 248.7v-3.4h15.2v3.4h-5.6v15.1h-4.1v-15.1h-5.5zM103.1 245.3v7.1h7.5v-7.1h4.1v18.6h-4.1v-8h-7.5v8H99v-18.6h4.1zM128.3 245.3v6.8h.1c.5-.7 1.1-1.2 1.8-1.5.8-.3 1.6-.5 2.4-.5.7 0 1.3.1 2 .4.7.3 1.3.7 1.8 1.3.5.6 1 1.3 1.3 2.2.3.9.5 2 .5 3.2 0 1.2-.2 2.3-.5 3.2s-.8 1.6-1.3 2.2c-.5.6-1.1 1-1.8 1.3-.7.3-1.3.4-2 .4-1 0-1.9-.2-2.7-.5-.8-.3-1.4-.8-1.8-1.6h-.1v1.7h-3.5v-18.6h3.8zm6 10.2c-.1-.5-.3-1-.6-1.4-.3-.4-.6-.7-1-.9-.4-.2-.9-.4-1.4-.4-.5 0-1 .1-1.4.4-.4.2-.7.6-1 .9-.3.4-.5.9-.6 1.4-.1.5-.2 1.1-.2 1.6 0 .6.1 1.1.2 1.6s.3 1 .6 1.4c.3.4.6.7 1 .9.4.2.9.4 1.4.4.6 0 1-.1 1.4-.4.4-.2.7-.5 1-.9s.5-.9.6-1.4c.1-.5.2-1.1.2-1.6s-.1-1.1-.2-1.6zM145.2 267.9c-.7.5-1.7.7-3 .7h-1.1c-.4 0-.8-.1-1.1-.1v-3c.3 0 .7.1 1.1.1h1.1c.5-.1.8-.2 1.1-.6.2-.3.4-.7.4-1.1 0-.3-.1-.6-.2-.8l-4.7-12.6h3.9l3 9.2h.1l2.9-9.2h3.8l-5.6 15.1c-.4 1-.9 1.8-1.7 2.3z"/></g><g fill="#349946"><path d="M7.4 277.3v-3h3.7v3H7.4zm3.7 2.1v13.4H7.4v-13.4h3.7zM21.2 279.4v2.5h-2.7v6.7c0 .6.1 1 .3 1.2s.6.3 1.2.3h.6c.2 0 .4 0 .5-.1v2.9c-.3.1-.7.1-1 .1H19c-.6 0-1.1 0-1.6-.1s-1-.2-1.4-.5c-.4-.2-.7-.5-.9-1-.2-.4-.3-1-.3-1.6v-7.9h-2.2v-2.5h2.2v-4h3.7v4h2.7zM25.8 289.5c.2.3.4.5.6.7.3.2.6.3.9.4s.7.1 1.1.1c.3 0 .5 0 .8-.1s.5-.2.8-.3c.2-.1.4-.3.6-.5.2-.2.2-.5.2-.8 0-.6-.4-1-1.1-1.2-.7-.3-1.8-.6-3.1-.8-.5-.1-1.1-.3-1.6-.4-.5-.2-1-.4-1.4-.6-.4-.3-.7-.6-1-1-.2-.4-.4-.9-.4-1.5 0-.9.2-1.6.5-2.1.3-.6.8-1 1.3-1.3.6-.3 1.2-.5 1.9-.7.7-.1 1.4-.2 2.1-.2s1.4.1 2.1.2c.7.1 1.3.4 1.8.7.5.3 1 .8 1.3 1.3.4.5.6 1.2.6 2.1h-3.5c-.1-.7-.3-1.2-.8-1.4-.5-.3-1.1-.4-1.7-.4h-.7c-.2 0-.5.1-.7.2-.2.1-.4.2-.5.4-.1.2-.2.4-.2.7 0 .3.1.6.4.8.2.2.6.4.9.5.4.1.8.2 1.3.4l1.5.3c.5.1 1.1.3 1.6.4.5.2 1 .4 1.4.7s.7.6 1 1.1c.2.4.4.9.4 1.6 0 .9-.2 1.6-.5 2.2-.4.6-.8 1.1-1.4 1.4-.6.4-1.2.6-2 .8-.7.1-1.5.2-2.2.2-.8 0-1.5-.1-2.3-.2-.7-.2-1.4-.4-2-.8-.6-.4-1.1-.8-1.4-1.4-.4-.6-.6-1.3-.6-2.2h3.5c.2.1.3.4.5.7zM47.8 292.8l-6-18.6H46l4.1 13.1h.1l4.2-13.1h4.2l-6.2 18.6h-4.6zM73.8 274.3v3.4H64v4h9v3.2h-9v4.5h10v3.4H59.9v-18.6h13.9zM80.6 274.3l7.7 12.5h.1v-12.5h3.8v18.6h-4.1l-7.7-12.4h-.1v12.4h-3.8v-18.6h4.1zM109.4 274.3v3.4h-9.8v4h9v3.2h-9v4.5h10v3.4H95.5v-18.6h13.9zM126 274.3v3.4h-9.8v4h9v3.2h-9v4.5h10v3.4h-14.1v-18.6H126zM138.7 274.3c.8 0 1.6.1 2.2.4.7.3 1.2.6 1.7 1.1.5.5.8 1 1.1 1.6.3.6.4 1.3.4 2 0 1.1-.2 2-.7 2.8s-1.2 1.4-2.2 1.8v.1c.5.1.9.4 1.2.6.3.3.6.6.8 1 .2.4.4.8.5 1.3.1.5.2.9.2 1.4 0 .3 0 .6.1 1 0 .4 0 .8.1 1.2 0 .4.1.8.2 1.2.1.4.2.7.4.9h-4.1c-.2-.6-.4-1.3-.4-2.1-.1-.8-.1-1.6-.2-2.3-.1-1-.4-1.7-.9-2.1-.5-.5-1.2-.7-2.2-.7h-4.1v7.3h-4.1v-18.6h10zm-1.4 8.4c.9 0 1.6-.2 2.1-.6s.7-1.1.7-2c0-.9-.2-1.6-.7-2s-1.2-.6-2.1-.6h-4.5v5.2h4.5zM151.1 288.8v4H147v-4h4.1z"/></g></svg>