<svg id="Layer_1" xmlns="http://www.w3.org/2000/svg" viewBox="0 0 160 600"><style>.st0{fill:#349946}.st1{fill:#fff}</style><path class="st0" d="M25.6 458.3c-7.9 0-14.3 6.4-14.3 14.3s6.4 14.3 14.3 14.3h107.3c7.9 0 14.3-6.4 14.3-14.3s-6.4-14.3-14.3-14.3H25.6z"/><path class="st1" d="M41.5 467.5v7h4.2v1.6h-6.1v-8.6h1.9zM53.2 467.5v1.6h-4.5v1.8h4.2v1.5h-4.2v2.1h4.6v1.6h-6.5v-8.6h6.4zM58.8 467.5l3.2 8.6h-2l-.6-1.9h-3.2l-.7 1.9h-1.9l3.2-8.6h2zm.2 5.3l-1.1-3.1-1.1 3.1H59zM67.4 467.5c.4 0 .7.1 1 .2.3.1.6.3.8.5.2.2.4.5.5.8s.2.6.2.9c0 .5-.1.9-.3 1.3-.2.4-.6.6-1 .8l.6.3c.2.1.3.3.4.5.1.2.2.4.2.6s.1.4.1.6v1.1c0 .2.1.4.1.5 0 .2.1.3.2.4h-1.9c-.1-.3-.2-.6-.2-1s-.1-.7-.1-1.1c-.1-.4-.2-.8-.4-1-.2-.2-.5-.3-1-.3h-1.9v3.4h-1.9v-8.6h4.6zm-.6 3.9c.4 0 .8-.1 1-.3.2-.2.3-.5.3-.9s-.1-.7-.3-.9c-.2-.2-.5-.3-1-.3h-2.1v2.4h2.1zM73.4 467.5l3.6 5.8v-5.8h1.8v8.6h-1.9l-3.6-5.7v5.7h-1.8v-8.6h1.9zM86.4 467.5l2 5.9 1.9-5.9H93v8.6h-1.8V470l-2.1 6.1h-1.5l-2.1-6v6h-1.8v-8.6h2.7zM94.5 470.1c.2-.5.5-1 .8-1.4.4-.4.8-.7 1.3-1 .5-.2 1.1-.3 1.8-.3s1.3.1 1.8.3c.5.2 1 .6 1.3 1 .4.4.6.9.8 1.4s.3 1.1.3 1.8c0 .6-.1 1.2-.3 1.7-.2.5-.5 1-.8 1.4-.4.4-.8.7-1.3.9-.5.2-1.1.3-1.8.3s-1.2-.1-1.8-.3c-.5-.2-1-.5-1.3-.9-.4-.4-.6-.9-.8-1.4-.2-.5-.3-1.1-.3-1.7 0-.7.1-1.3.3-1.8zm1.8 2.8c.1.3.2.6.4.9.2.3.4.5.7.7.3.2.7.2 1.1.2.4 0 .8-.1 1.1-.2.3-.2.5-.4.7-.7.2-.3.3-.6.4-.9.1-.3.1-.7.1-1.1 0-.4 0-.7-.1-1.1-.1-.4-.2-.7-.4-.9-.2-.3-.4-.5-.7-.7-.3-.2-.7-.2-1.1-.2-.4 0-.8.1-1.1.2-.3.2-.5.4-.7.7-.2.3-.3.6-.4.9s-.1.7-.1 1.1c-.1.4 0 .8.1 1.1zM108.6 467.5c.4 0 .7.1 1 .2.3.1.6.3.8.5.2.2.4.5.5.8s.2.6.2.9c0 .5-.1.9-.3 1.3-.2.4-.6.6-1 .8l.6.3c.2.1.3.3.4.5.1.2.2.4.2.6s.1.4.1.6v1.1c0 .2.1.4.1.5 0 .2.1.3.2.4h-1.9c-.1-.3-.2-.6-.2-1s-.1-.7-.1-1.1c-.1-.4-.2-.8-.4-1-.2-.2-.5-.3-1-.3h-1.9v3.4H104v-8.6h4.6zm-.7 3.9c.4 0 .8-.1 1-.3.2-.2.3-.5.3-.9s-.1-.7-.3-.9c-.2-.2-.5-.3-1-.3h-2.1v2.4h2.1zM119.1 467.5v1.6h-4.5v1.8h4.2v1.5h-4.2v2.1h4.6v1.6h-6.5v-8.6h6.4z"/></svg>