<svg id="Layer_1" xmlns="http://www.w3.org/2000/svg" xmlns:xlink="http://www.w3.org/1999/xlink" viewBox="0 0 160 600"><style>.st0{fill:#349946}.st0,.st1{clip-path:url(#SVGID_00000123400634092682756080000007859688981721581228_)}.st2{fill:#231f20}</style><defs><path id="SVGID_1_" d="M6.2 56.9h146.1V67H6.2z"/></defs><clipPath id="SVGID_00000064316643549666397710000013130279679222817192_"><use xlink:href="#SVGID_1_" overflow="visible"/></clipPath><path d="M13.9 66h-1.7l-.5-1.6H8.4L7.9 66H6.2l2.9-7.7h1.2c.4 0 .7.1.8.4.1.3 1.4 3.7 1.4 3.7H11l-1-2.5-1.2 3.3h3.3c.4 0 .7.1.8.5l1 2.3zM28.4 66h-1.7l-.5-1.6h-3.3l-.5 1.6h-1.7l2.9-7.7h1.2c.4 0 .7.1.8.4.1.3 1.4 3.7 1.4 3.7h-1.5l-.9-2.6-1.2 3.3h3.3c.4 0 .7.1.8.5l.9 2.4zM14.4 58.3h3c2.3 0 3.5 1.2 3.5 3.8 0 1.4-.4 2.5-1.2 3.1-.8.7-1.6.8-2.7.8h-2.6v-7.7zm2.8 6.3c1.5 0 2.1-.7 2.1-2.4s-.6-2.5-1.9-2.5H16v4.9h1.2z" clip-path="url(#SVGID_00000064316643549666397710000013130279679222817192_)" fill="#349946"/><g clip-path="url(#SVGID_00000064316643549666397710000013130279679222817192_)"><path class="st2" d="M41.4 65.9h-1.2l-.5-5.5-1.9 5.5h-1l-1.9-5.5-.4 5.5h-1.1l.7-7.3h1.4l2 5.6 1.9-5.6h1.4l.6 7.3zM47.3 63.2v.4h-3.6c0 .4.1.7.3 1 .3.3.7.5 1.2.5.4 0 .9-.1 1.5-.4l.4.8c-.5.4-1.2.6-2 .6s-1.5-.3-1.9-.8c-.4-.5-.7-1.2-.7-2s.2-1.5.7-2 1.1-.8 1.8-.8 1.3.2 1.7.7c.4.5.6 1.1.6 2zm-1.1-.5c0-.3-.1-.6-.2-.8-.2-.3-.5-.5-.9-.5s-.7.1-.9.4c-.2.2-.4.6-.4 1h2.4zM56 65.9h-1.2v-3c0-.6-.1-1-.2-1.2-.1-.2-.4-.3-.7-.3-.4 0-.8.1-1.2.4.1.1.1.5.1 1.2v2.8h-1.2V63c0-.7-.1-1.1-.2-1.3-.1-.1-.3-.2-.6-.2-.4 0-.8.1-1.1.4V66h-1.2v-5.3h1v.3c.5-.4 1-.5 1.6-.5.6 0 1 .2 1.3.6.6-.4 1.2-.6 1.8-.6.6 0 1 .2 1.3.5.3.3.4.6.5 1 0 .3.1.7.1 1.3v2.6zM62.2 63.2c0 .9-.3 1.6-.8 2.1s-1.2.8-2 .8c-.6 0-1.3-.1-2.1-.4v-7.6h1.2v2.8c.4-.3.9-.4 1.4-.4.7 0 1.2.2 1.7.7.4.5.6 1.1.6 2zm-1.2 0c0-.5-.1-1-.4-1.3-.2-.3-.6-.4-.9-.4-.4 0-.8.1-1.1.4V65c.3.1.6.1.9.1.5 0 .9-.2 1.1-.5.2-.4.4-.9.4-1.4zM67.9 63.2v.4h-3.6c0 .4.1.7.3 1 .3.3.7.5 1.2.5.4 0 .9-.1 1.5-.4l.4.8c-.5.4-1.2.6-2 .6s-1.5-.3-1.9-.8c-.4-.5-.7-1.2-.7-2s.2-1.5.7-2 1.1-.8 1.8-.8 1.3.2 1.7.7c.4.5.6 1.1.6 2zm-1.1-.5c0-.3-.1-.6-.2-.8-.2-.3-.5-.5-.9-.5s-.7.1-.9.4c-.2.2-.4.6-.4 1h2.4zM72.4 60.6l-.3.9h-.4c-.6 0-1.2.3-1.5.8v3.6H69v-5.3h1v.7c.1-.1.2-.3.5-.4.4-.3.8-.4 1.3-.4.2 0 .4 0 .6.1z"/></g><g clip-path="url(#SVGID_00000064316643549666397710000013130279679222817192_)"><path class="st2" d="M76.8 64.4c0 .5-.2.9-.6 1.2s-.9.4-1.5.4c-.5 0-.9-.1-1.4-.3-.3-.1-.5-.2-.6-.3l.4-.8c.5.3 1 .4 1.4.4.3 0 .5-.1.7-.2.2-.1.2-.3.2-.5s-.1-.3-.3-.5c-.1-.1-.4-.2-.8-.4s-.7-.4-.9-.5c-.3-.3-.5-.6-.5-1.1 0-.5.2-.9.5-1.2.4-.3.8-.4 1.4-.4.7 0 1.3.2 1.7.5l-.4.8c-.4-.2-.8-.4-1.2-.4-.6 0-.8.2-.8.6 0 .2.1.3.3.4.1.1.3.2.7.3.5.2.9.4 1.1.6.4.6.6.9.6 1.4zM82 65.9h-1.3v-7.3H82v7.3zM88 65.9h-1.2V63c0-.7-.1-1.1-.2-1.3-.2-.2-.4-.2-.7-.2-.4 0-.8.1-1.2.4v4h-1.2v-5.3h1v.4c.5-.4 1-.5 1.6-.5.6 0 1 .2 1.3.5.2.2.4.6.5.9 0 .2.1.6.1 1.1v2.9zM92.9 64.4c0 .5-.2.9-.6 1.2s-.9.4-1.5.4c-.5 0-.9-.1-1.4-.3-.3-.1-.5-.2-.6-.3l.4-.8c.5.3 1 .4 1.4.4.3 0 .5-.1.7-.2.2-.1.2-.3.2-.5s-.1-.3-.3-.5c-.1-.1-.4-.2-.8-.4s-.7-.4-.9-.5c-.3-.3-.5-.6-.5-1.1 0-.5.2-.9.5-1.2.4-.3.8-.4 1.4-.4.7 0 1.3.2 1.7.5l-.4.8c-.4-.2-.8-.4-1.2-.4-.6 0-.8.2-.8.6 0 .2.1.3.3.4.1.1.3.2.7.3.5.2.9.4 1.1.6.4.6.6.9.6 1.4zM98.5 65.9h-1v-.4c-.5.4-1 .5-1.6.5-.6 0-1-.2-1.3-.5-.2-.2-.4-.6-.5-.9 0-.2-.1-.6-.1-1.1v-3h1.2V64.1c0 .3.1.5.3.6.1.1.4.2.6.2.3 0 .7-.1 1.2-.4v-4h1.2v5.4zM103.3 60.6l-.3.9h-.4c-.6 0-1.2.3-1.5.8v3.6h-1.2v-5.3h1v.7c.1-.1.2-.3.5-.4.4-.3.8-.4 1.3-.4.2 0 .4 0 .6.1z"/></g><g clip-path="url(#SVGID_00000064316643549666397710000013130279679222817192_)"><path class="st2" d="M108 65.9h-1v-.4c-.5.3-1 .5-1.6.5-.5 0-.9-.2-1.2-.5-.3-.3-.5-.7-.5-1.2 0-1.2 1-1.9 3-1.9h.2v-.2c0-.3-.1-.5-.2-.7-.2-.2-.4-.2-.9-.2s-1 .1-1.4.4l-.4-.7c.1-.1.3-.2.6-.3.4-.2.9-.3 1.4-.3.7 0 1.3.2 1.7.6.2.2.3.4.4.7 0 .2.1.5.1.9v3.3zm-1.2-1.1v-1.4h-.2c-.8 0-1.4.1-1.7.4-.1.1-.2.3-.2.5 0 .3.1.5.3.6s.4.2.7.2c.3 0 .7-.1 1.1-.3zM113.8 65.9h-1.2V63c0-.7-.1-1.1-.2-1.3-.2-.2-.4-.2-.7-.2-.4 0-.8.1-1.2.4v4h-1.2v-5.3h1v.4c.5-.4 1-.5 1.6-.5.6 0 1 .2 1.3.5.2.2.4.6.5.9 0 .2.1.6.1 1.1v2.9zM119.4 65.4c-.1.1-.3.2-.5.3-.4.2-.9.3-1.4.3-.8 0-1.4-.3-1.9-.8s-.7-1.2-.7-2 .3-1.5.8-2.1c.5-.5 1.2-.8 2-.8.4 0 .9.1 1.3.3.3.1.4.2.5.3l-.5.8c-.4-.2-.8-.4-1.2-.4-.5 0-.9.2-1.2.6-.3.3-.4.8-.4 1.2 0 .5.1 1 .4 1.3s.7.5 1.2.5c.4 0 .8-.1 1.3-.4l.3.9z"/></g><g clip-path="url(#SVGID_00000064316643549666397710000013130279679222817192_)"><path class="st2" d="M124.8 63.2v.4h-3.6c0 .4.1.7.3 1 .3.3.7.5 1.2.5.4 0 .9-.1 1.5-.4l.4.8c-.5.4-1.2.6-2 .6s-1.5-.3-1.9-.8c-.4-.5-.7-1.2-.7-2s.2-1.5.7-2c.5-.5 1.1-.8 1.8-.8s1.3.2 1.7.7c.4.5.6 1.1.6 2zm-1.2-.5c0-.3-.1-.6-.2-.8-.2-.3-.5-.5-.9-.5s-.7.1-.9.4c-.2.2-.4.6-.4 1h2.4zM133.5 60.8c0 .7-.2 1.2-.6 1.6-.3.3-.7.5-1.1.6-.3.1-.7.1-1.3.1h-.5v2.8h-1.2v-7.3h1.9c.6 0 1 0 1.3.1.4.1.8.3 1 .5.3.5.5 1 .5 1.6zm-1.3.1c0-.4-.1-.7-.3-.9-.2-.2-.6-.3-1.3-.3h-.7v2.5h.5c.8 0 1.3-.1 1.5-.3.2-.3.3-.6.3-1zM136 65.9h-1.2V58h1.2v7.9zM141.4 65.9h-1v-.4c-.5.3-1 .5-1.6.5-.5 0-.9-.2-1.2-.5-.3-.3-.5-.7-.5-1.2 0-1.2 1-1.9 3-1.9h.2v-.2c0-.3-.1-.5-.2-.7-.2-.2-.4-.2-.9-.2s-1 .1-1.4.4l-.4-.8c.1-.1.3-.2.6-.3.4-.2.9-.3 1.4-.3.7 0 1.3.2 1.7.6.2.2.3.4.4.7 0 .2.1.5.1.9v3.4zm-1.1-1.1v-1.4h-.3c-.8 0-1.4.1-1.7.4-.1.1-.2.3-.2.5 0 .3.1.5.3.6s.4.2.7.2c.4 0 .8-.1 1.2-.3zM147.2 65.9H146V63c0-.7-.1-1.1-.2-1.3-.2-.2-.4-.2-.7-.2-.4 0-.8.1-1.2.4v4h-1.2v-5.3h1v.4c.5-.4 1-.5 1.6-.5.6 0 1 .2 1.3.5.2.2.4.6.5.9 0 .2.1.6.1 1.1v2.9zM152.1 64.4c0 .5-.2.9-.6 1.2s-.9.4-1.5.4c-.5 0-.9-.1-1.4-.3-.3-.1-.5-.2-.6-.3l.4-.8c.5.3 1 .4 1.4.4.3 0 .5-.1.7-.2.2-.1.2-.3.2-.5s-.1-.3-.3-.5c-.1-.1-.4-.2-.8-.4s-.7-.4-.9-.5c-.3-.3-.5-.6-.5-1.1 0-.5.2-.9.5-1.2.4-.3.8-.4 1.4-.4.7 0 1.3.2 1.7.5l-.4.8c-.4-.2-.8-.4-1.2-.4-.6 0-.8.2-.8.6 0 .2.1.3.3.4.1.1.3.2.7.3.5.2.9.4 1.1.6.5.6.6.9.6 1.4z"/></g><path d="M29.5 66c-.5 0-.9-.4-.9-.9s.4-.9.9-.9.9.4.9.9-.4.9-.9.9m0-1.6c-.4 0-.7.3-.7.7s.3.7.7.7c.4 0 .7-.3.7-.7s-.3-.7-.7-.7m.2 1.2l-.1-.2c-.1-.1-.1-.1-.2-.1v.4h-.2v-1h.2c.1 0 .2 0 .3.1.1.1.1.1.1.2s0 .2-.2.2l.1.1.1.3h-.1zm-.2-.8h-.2v.2h.2c.1 0 .1 0 0-.2.1 0 .1 0 0 0" clip-path="url(#SVGID_00000064316643549666397710000013130279679222817192_)" fill="#349946"/></svg>