<svg id="Layer_1" xmlns="http://www.w3.org/2000/svg" xmlns:xlink="http://www.w3.org/1999/xlink" viewBox="0 0 160 600"><style>.st0,.st1{clip-path:url(#SVGID_00000087376031647899646830000012489948768116774019_);fill:#231f20}.st1{fill:#22b0e6}</style><defs><path id="SVGID_1_" d="M54.1 35.8h51.6v17.5H54.1z"/></defs><clipPath id="SVGID_00000005969728913321094450000014576706779691624069_"><use xlink:href="#SVGID_1_" overflow="visible"/></clipPath><path d="M54.4 45.2h2.8c2.2 0 2.6 1.4 2.6 2.4 0 .9-.4 2.4-2.6 2.4h-1.4v3h-1.3v-7.8zm1.4 3.6h1.3c.6 0 1.3-.3 1.3-1.3s-.6-1.3-1.3-1.3h-1.4v2.6zM60.6 47.3h1.2v1.1c.1-.6.9-1.2 1.6-1.2h.5v1.2c-.2 0-.4-.1-.5-.1-.8 0-1.5.7-1.5 1.9v2.7h-1.2v-5.6zM64.1 50.1c0-1.7 1-2.9 2.8-2.9 1.8 0 2.8 1.2 2.8 2.9s-1 2.9-2.8 2.9c-1.8 0-2.8-1.2-2.8-2.9m4.4 0c0-1-.5-2-1.6-2s-1.6 1-1.6 2 .5 2 1.6 2 1.6-1 1.6-2M69.8 47.3h1v-1.7H72v1.7h1.1v.9H72v3c0 .5 0 .8.6.8h.5v.9c-.3 0-.5.1-.8.1-1.3 0-1.5-.5-1.5-1.4v-3.3h-.9v-1zM74.9 50.4c0 .9.5 1.6 1.5 1.6.7 0 1.1-.3 1.4-.9H79c-.3 1.2-1.3 1.9-2.5 1.9-1.7 0-2.7-1.2-2.7-2.9 0-1.6 1-2.9 2.7-2.9 1.8 0 2.8 1.6 2.6 3.3h-4.2zm2.9-.8c0-.8-.6-1.5-1.4-1.5-.9 0-1.4.6-1.5 1.5h2.9zM83.6 49.2c-.1-.7-.6-1-1.3-1-.6 0-1.5.3-1.5 2 0 .9.4 1.9 1.5 1.9.7 0 1.2-.5 1.3-1.3h1.2c-.2 1.4-1.1 2.2-2.6 2.2-1.7 0-2.7-1.2-2.7-2.9s.9-3 2.7-3c1.3 0 2.4.6 2.5 2h-1.1zM85.2 47.3h.9v-1.7h1.2v1.7h1.1v.9h-1.1v3c0 .5 0 .8.6.8h.5v.9c-.3 0-.5.1-.8.1-1.3 0-1.5-.5-1.5-1.4v-3.3h-.9v-1zM89.9 45.2h1.2v1.2h-1.2v-1.2zm0 2.1h1.2v5.6h-1.2v-5.6zM92 47.3h1.3l1.7 4.3h.1l1.6-4.3H98l-2.3 5.6h-1.4zM99.5 50.4c0 .9.5 1.6 1.5 1.6.7 0 1.1-.3 1.4-.9h1.2c-.3 1.2-1.3 1.9-2.5 1.9-1.7 0-2.7-1.2-2.7-2.9 0-1.6 1-2.9 2.7-2.9 1.8 0 2.8 1.6 2.6 3.3h-4.2zm2.9-.8c0-.8-.6-1.5-1.4-1.5-.9 0-1.4.6-1.5 1.5h2.9z" clip-path="url(#SVGID_00000005969728913321094450000014576706779691624069_)" fill="#231f20"/><path d="M87.5 43.9c-.8-3.1-3.2-5.5-6.3-6.2-.2-1-1.1-1.7-2.2-1.7-1 0-1.9.7-2.2 1.6-3 .8-5.5 3.2-6.3 6.2l-.1.3h1.9l.1-.2c.7-2.2 2.5-3.9 4.7-4.6.4.7 1.1 1.1 2 1.1.8 0 1.6-.5 2-1.1 2.2.6 4 2.4 4.7 4.6l.1.2h1.9l-.3-.2z" clip-path="url(#SVGID_00000005969728913321094450000014576706779691624069_)" fill="#22b0e6"/><path d="M104.9 51.9c.3 0 .5.2.5.5s-.2.5-.5.5-.5-.2-.5-.5c0-.2.2-.5.5-.5m.5.6c0-.3-.2-.5-.4-.5s-.5.2-.5.5.2.5.5.5c.2-.1.4-.3.4-.5m-.7-.3h.2c.1 0 .2.1.2.2s-.1.2-.2.2l.2.3h-.1l-.2-.3h-.1v.3h-.1v-.7zm.2.3c.1 0 .2 0 .2-.1s-.1-.1-.1-.1h-.1v.2z" clip-path="url(#SVGID_00000005969728913321094450000014576706779691624069_)" fill="#231f20"/></svg>