<?xml version="1.0" encoding="utf-8"?>
<!-- Generator: Adobe Illustrator 25.4.1, SVG Export Plug-In . SVG Version: 6.00 Build 0)  -->
<svg version="1.1" id="Layer_1" xmlns="http://www.w3.org/2000/svg" xmlns:xlink="http://www.w3.org/1999/xlink" x="0px" y="0px"
	 viewBox="0 0 300 50" style="enable-background:new 0 0 300 50;" xml:space="preserve">
<style type="text/css">
	.st0{fill:#349946;}
</style>
<path d="M16,8.2l3.1,8.2h-1.9l-0.6-1.8h-3.1l-0.6,1.8h-1.8l3.1-8.2H16z M16.1,13.2l-1-3h0l-1.1,3H16.1z M20.9,10.5v0.8h0
	c0.2-0.3,0.5-0.6,0.8-0.7c0.3-0.2,0.7-0.2,1-0.2c0.4,0,0.8,0.1,1.1,0.2c0.3,0.1,0.5,0.3,0.7,0.5c0.2,0.2,0.3,0.5,0.3,0.8
	c0.1,0.3,0.1,0.6,0.1,1v3.6h-1.6V13c0-0.5-0.1-0.9-0.2-1.1c-0.2-0.2-0.4-0.4-0.8-0.4c-0.4,0-0.8,0.1-1,0.4c-0.2,0.3-0.3,0.7-0.3,1.3
	v3.1h-1.6v-5.9H20.9z M30.1,15.6c-0.2,0.3-0.4,0.6-0.7,0.7s-0.7,0.2-1,0.2c-0.4,0-0.8-0.1-1.2-0.3c-0.3-0.2-0.6-0.4-0.8-0.7
	c-0.2-0.3-0.4-0.6-0.5-1c-0.1-0.4-0.2-0.8-0.2-1.2c0-0.4,0.1-0.8,0.2-1.1c0.1-0.4,0.3-0.7,0.5-1c0.2-0.3,0.5-0.5,0.8-0.7
	c0.3-0.2,0.7-0.3,1.1-0.3c0.4,0,0.7,0.1,1,0.2c0.3,0.1,0.6,0.4,0.7,0.7h0v-3h1.6v8.2h-1.5L30.1,15.6L30.1,15.6z M30.1,12.7
	c0-0.2-0.1-0.4-0.2-0.6c-0.1-0.2-0.3-0.3-0.4-0.4c-0.2-0.1-0.4-0.2-0.7-0.2c-0.3,0-0.5,0.1-0.7,0.2c-0.2,0.1-0.3,0.2-0.4,0.4
	c-0.1,0.2-0.2,0.4-0.2,0.6c0,0.2-0.1,0.5-0.1,0.7c0,0.2,0,0.5,0.1,0.7c0.1,0.2,0.1,0.4,0.3,0.6c0.1,0.2,0.3,0.3,0.4,0.4
	c0.2,0.1,0.4,0.2,0.6,0.2c0.3,0,0.5-0.1,0.7-0.2c0.2-0.1,0.3-0.2,0.4-0.4c0.1-0.2,0.2-0.4,0.2-0.6c0-0.2,0.1-0.5,0.1-0.7
	C30.1,13.2,30.1,12.9,30.1,12.7z M35,11.5v-1.1h1V10c0-0.5,0.2-1,0.5-1.3c0.3-0.3,0.8-0.5,1.5-0.5c0.1,0,0.3,0,0.4,0
	c0.1,0,0.3,0,0.4,0v1.2c-0.2,0-0.4,0-0.6,0c-0.2,0-0.4,0.1-0.5,0.2c-0.1,0.1-0.1,0.3-0.1,0.5v0.4h1.1v1.1h-1.1v4.8H36v-4.8H35z
	 M39.7,9.5V8.2h1.6v1.3H39.7z M41.3,10.5v5.9h-1.6v-5.9H41.3z M43.9,10.5v0.8h0c0.2-0.3,0.5-0.6,0.8-0.7c0.3-0.2,0.7-0.2,1-0.2
	c0.4,0,0.8,0.1,1.1,0.2c0.3,0.1,0.5,0.3,0.7,0.5c0.2,0.2,0.3,0.5,0.3,0.8c0.1,0.3,0.1,0.6,0.1,1v3.6h-1.6V13c0-0.5-0.1-0.9-0.2-1.1
	c-0.2-0.2-0.4-0.4-0.8-0.4c-0.4,0-0.8,0.1-1,0.4c-0.2,0.3-0.3,0.7-0.3,1.3v3.1h-1.6v-5.9H43.9z M53.1,15.6c-0.2,0.3-0.4,0.6-0.7,0.7
	s-0.7,0.2-1,0.2c-0.4,0-0.8-0.1-1.2-0.3c-0.3-0.2-0.6-0.4-0.8-0.7c-0.2-0.3-0.4-0.6-0.5-1c-0.1-0.4-0.2-0.8-0.2-1.2
	c0-0.4,0.1-0.8,0.2-1.1c0.1-0.4,0.3-0.7,0.5-1c0.2-0.3,0.5-0.5,0.8-0.7c0.3-0.2,0.7-0.3,1.1-0.3c0.4,0,0.7,0.1,1,0.2
	c0.3,0.1,0.6,0.4,0.7,0.7h0v-3h1.6v8.2h-1.5L53.1,15.6L53.1,15.6z M53.1,12.7c0-0.2-0.1-0.4-0.2-0.6c-0.1-0.2-0.3-0.3-0.4-0.4
	c-0.2-0.1-0.4-0.2-0.7-0.2c-0.3,0-0.5,0.1-0.7,0.2c-0.2,0.1-0.3,0.2-0.4,0.4c-0.1,0.2-0.2,0.4-0.2,0.6c0,0.2-0.1,0.5-0.1,0.7
	c0,0.2,0,0.5,0.1,0.7c0.1,0.2,0.1,0.4,0.3,0.6c0.1,0.2,0.3,0.3,0.4,0.4c0.2,0.1,0.4,0.2,0.6,0.2c0.3,0,0.5-0.1,0.7-0.2
	c0.2-0.1,0.3-0.2,0.4-0.4c0.1-0.2,0.2-0.4,0.2-0.6c0-0.2,0.1-0.5,0.1-0.7C53.1,13.2,53.1,12.9,53.1,12.7z M61.9,10.5v1.1h-1.2v2.9
	c0,0.3,0,0.5,0.1,0.5c0.1,0.1,0.3,0.1,0.5,0.1c0.1,0,0.2,0,0.3,0c0.1,0,0.2,0,0.2,0v1.3c-0.1,0-0.3,0-0.5,0c-0.2,0-0.3,0-0.5,0
	c-0.3,0-0.5,0-0.7-0.1c-0.2,0-0.4-0.1-0.6-0.2c-0.2-0.1-0.3-0.2-0.4-0.4c-0.1-0.2-0.1-0.4-0.1-0.7v-3.5h-1v-1.1h1V8.7h1.6v1.8H61.9z
	 M64.1,8.2v3.1h0c0.2-0.3,0.5-0.6,0.8-0.7c0.3-0.2,0.6-0.2,0.9-0.2c0.4,0,0.8,0.1,1.1,0.2c0.3,0.1,0.5,0.3,0.7,0.5
	c0.2,0.2,0.3,0.5,0.3,0.8c0.1,0.3,0.1,0.6,0.1,1v3.6h-1.6V13c0-0.5-0.1-0.9-0.2-1.1c-0.2-0.2-0.4-0.4-0.8-0.4c-0.4,0-0.8,0.1-1,0.4
	c-0.2,0.3-0.3,0.7-0.3,1.3v3.1h-1.6V8.2H64.1z M70.7,15c0.2,0.2,0.6,0.4,1.1,0.4c0.3,0,0.6-0.1,0.8-0.2c0.2-0.2,0.4-0.3,0.4-0.5h1.4
	c-0.2,0.7-0.6,1.2-1.1,1.5c-0.5,0.3-1,0.5-1.7,0.5c-0.5,0-0.9-0.1-1.3-0.2c-0.4-0.1-0.7-0.4-0.9-0.6c-0.3-0.3-0.5-0.6-0.6-1
	c-0.1-0.4-0.2-0.8-0.2-1.3c0-0.4,0.1-0.9,0.2-1.2c0.1-0.4,0.4-0.7,0.6-1c0.3-0.3,0.6-0.5,1-0.7c0.4-0.2,0.8-0.2,1.2-0.2
	c0.5,0,0.9,0.1,1.3,0.3c0.4,0.2,0.7,0.5,0.9,0.8c0.2,0.3,0.4,0.7,0.5,1.1c0.1,0.4,0.1,0.9,0.1,1.3h-4.3C70.4,14.3,70.5,14.7,70.7,15
	z M72.6,11.8c-0.2-0.2-0.5-0.3-0.9-0.3c-0.3,0-0.5,0-0.6,0.1c-0.2,0.1-0.3,0.2-0.4,0.3c-0.1,0.1-0.2,0.3-0.2,0.4
	c0,0.1-0.1,0.3-0.1,0.4H73C72.9,12.4,72.8,12.1,72.6,11.8z M79.9,8.2v3h0c0.2-0.3,0.5-0.5,0.8-0.7c0.3-0.1,0.7-0.2,1.1-0.2
	c0.3,0,0.6,0.1,0.9,0.2c0.3,0.1,0.6,0.3,0.8,0.6c0.2,0.3,0.4,0.6,0.6,1c0.1,0.4,0.2,0.9,0.2,1.4c0,0.5-0.1,1-0.2,1.4
	c-0.1,0.4-0.3,0.7-0.6,1c-0.2,0.3-0.5,0.4-0.8,0.6c-0.3,0.1-0.6,0.2-0.9,0.2c-0.4,0-0.8-0.1-1.2-0.2c-0.3-0.1-0.6-0.4-0.8-0.7h0v0.8
	h-1.5V8.2H79.9z M82.6,12.7c-0.1-0.2-0.1-0.4-0.3-0.6c-0.1-0.2-0.3-0.3-0.4-0.4c-0.2-0.1-0.4-0.2-0.6-0.2c-0.2,0-0.4,0.1-0.6,0.2
	c-0.2,0.1-0.3,0.2-0.4,0.4c-0.1,0.2-0.2,0.4-0.3,0.6c-0.1,0.2-0.1,0.5-0.1,0.7c0,0.2,0,0.5,0.1,0.7c0.1,0.2,0.1,0.4,0.3,0.6
	c0.1,0.2,0.3,0.3,0.4,0.4c0.2,0.1,0.4,0.2,0.6,0.2c0.2,0,0.5-0.1,0.6-0.2c0.2-0.1,0.3-0.2,0.4-0.4c0.1-0.2,0.2-0.4,0.3-0.6
	c0.1-0.2,0.1-0.5,0.1-0.7C82.6,13.2,82.6,12.9,82.6,12.7z M86.8,15c0.2,0.2,0.6,0.4,1.1,0.4c0.3,0,0.6-0.1,0.8-0.2
	c0.2-0.2,0.4-0.3,0.4-0.5h1.4c-0.2,0.7-0.6,1.2-1.1,1.5c-0.5,0.3-1,0.5-1.7,0.5c-0.5,0-0.9-0.1-1.3-0.2c-0.4-0.1-0.7-0.4-0.9-0.6
	c-0.3-0.3-0.5-0.6-0.6-1c-0.1-0.4-0.2-0.8-0.2-1.3c0-0.4,0.1-0.9,0.2-1.2c0.1-0.4,0.4-0.7,0.6-1c0.3-0.3,0.6-0.5,1-0.7
	c0.4-0.2,0.8-0.2,1.2-0.2c0.5,0,0.9,0.1,1.3,0.3c0.4,0.2,0.7,0.5,0.9,0.8c0.2,0.3,0.4,0.7,0.5,1.1c0.1,0.4,0.1,0.9,0.1,1.3h-4.3
	C86.4,14.3,86.6,14.7,86.8,15z M88.6,11.8c-0.2-0.2-0.5-0.3-0.9-0.3c-0.3,0-0.5,0-0.6,0.1c-0.2,0.1-0.3,0.2-0.4,0.3
	c-0.1,0.1-0.2,0.3-0.2,0.4c0,0.1-0.1,0.3-0.1,0.4H89C89,12.4,88.8,12.1,88.6,11.8z M92.8,14.9c0.1,0.1,0.2,0.2,0.3,0.3
	c0.1,0.1,0.2,0.1,0.4,0.2c0.1,0,0.3,0.1,0.5,0.1c0.1,0,0.2,0,0.4,0c0.1,0,0.2-0.1,0.3-0.1c0.1-0.1,0.2-0.1,0.3-0.2
	c0.1-0.1,0.1-0.2,0.1-0.4c0-0.2-0.2-0.4-0.5-0.5c-0.3-0.1-0.8-0.2-1.4-0.4c-0.2-0.1-0.5-0.1-0.7-0.2c-0.2-0.1-0.4-0.2-0.6-0.3
	c-0.2-0.1-0.3-0.3-0.4-0.4c-0.1-0.2-0.2-0.4-0.2-0.7c0-0.4,0.1-0.7,0.2-0.9c0.1-0.2,0.3-0.4,0.6-0.6c0.2-0.1,0.5-0.2,0.8-0.3
	c0.3-0.1,0.6-0.1,0.9-0.1s0.6,0,0.9,0.1c0.3,0.1,0.6,0.2,0.8,0.3c0.2,0.1,0.4,0.3,0.6,0.6c0.2,0.2,0.2,0.5,0.3,0.9h-1.5
	c0-0.3-0.1-0.5-0.4-0.6c-0.2-0.1-0.5-0.2-0.8-0.2c-0.1,0-0.2,0-0.3,0c-0.1,0-0.2,0-0.3,0.1c-0.1,0-0.2,0.1-0.2,0.2
	c-0.1,0.1-0.1,0.2-0.1,0.3c0,0.1,0.1,0.3,0.2,0.4c0.1,0.1,0.2,0.2,0.4,0.2c0.2,0.1,0.4,0.1,0.6,0.2c0.2,0,0.4,0.1,0.7,0.1
	c0.2,0.1,0.5,0.1,0.7,0.2c0.2,0.1,0.4,0.2,0.6,0.3c0.2,0.1,0.3,0.3,0.4,0.5c0.1,0.2,0.2,0.4,0.2,0.7c0,0.4-0.1,0.7-0.2,1
	c-0.2,0.3-0.4,0.5-0.6,0.6c-0.3,0.2-0.5,0.3-0.9,0.3c-0.3,0.1-0.7,0.1-1,0.1c-0.3,0-0.7,0-1-0.1c-0.3-0.1-0.6-0.2-0.9-0.3
	c-0.3-0.2-0.5-0.4-0.6-0.6c-0.2-0.3-0.3-0.6-0.3-1h1.5C92.7,14.6,92.7,14.8,92.8,14.9z M100.6,10.5v1.1h-1.2v2.9
	c0,0.3,0,0.5,0.1,0.5c0.1,0.1,0.3,0.1,0.5,0.1c0.1,0,0.2,0,0.3,0c0.1,0,0.2,0,0.2,0v1.3c-0.1,0-0.3,0-0.5,0c-0.2,0-0.3,0-0.5,0
	c-0.3,0-0.5,0-0.7-0.1c-0.2,0-0.4-0.1-0.6-0.2c-0.2-0.1-0.3-0.2-0.4-0.4c-0.1-0.2-0.1-0.4-0.1-0.7v-3.5h-1v-1.1h1V8.7h1.6v1.8H100.6
	z M105.6,10.5v1.1h0c0.1-0.2,0.2-0.4,0.3-0.5c0.1-0.2,0.3-0.3,0.4-0.4c0.2-0.1,0.3-0.2,0.5-0.3c0.2-0.1,0.4-0.1,0.6-0.1
	c0.1,0,0.2,0,0.4,0.1v1.5c-0.1,0-0.2,0-0.3,0c-0.1,0-0.2,0-0.3,0c-0.3,0-0.5,0-0.8,0.1c-0.2,0.1-0.4,0.2-0.5,0.4s-0.2,0.4-0.3,0.6
	c-0.1,0.2-0.1,0.5-0.1,0.7v2.7h-1.6v-5.9H105.6z M109.8,12.3c0-0.3,0.1-0.5,0.3-0.7c0.2-0.1,0.4-0.2,0.8-0.2c0.1,0,0.3,0,0.4,0
	c0.1,0,0.2,0.1,0.3,0.1c0.1,0.1,0.2,0.1,0.2,0.2c0.1,0.1,0.1,0.2,0.1,0.4c0,0.2,0,0.3-0.1,0.4c-0.1,0.1-0.3,0.2-0.4,0.2
	c-0.2,0-0.4,0.1-0.6,0.1c-0.2,0-0.5,0.1-0.7,0.1c-0.2,0-0.5,0.1-0.7,0.2c-0.2,0.1-0.5,0.2-0.6,0.3c-0.2,0.1-0.3,0.3-0.5,0.5
	c-0.1,0.2-0.2,0.5-0.2,0.8c0,0.3,0.1,0.6,0.2,0.8c0.1,0.2,0.2,0.4,0.4,0.5c0.2,0.1,0.4,0.3,0.6,0.3c0.2,0.1,0.5,0.1,0.8,0.1
	c0.4,0,0.7-0.1,1.1-0.2c0.4-0.1,0.7-0.3,0.9-0.6c0,0.1,0,0.2,0,0.3c0,0.1,0,0.2,0.1,0.3h1.6c-0.1-0.1-0.1-0.3-0.2-0.5
	c0-0.2,0-0.5,0-0.8V12c0-0.4-0.1-0.6-0.2-0.9c-0.2-0.2-0.4-0.4-0.6-0.5c-0.3-0.1-0.5-0.2-0.8-0.2c-0.3,0-0.6-0.1-0.9-0.1
	c-0.3,0-0.7,0-1,0.1c-0.3,0.1-0.6,0.2-0.9,0.3c-0.3,0.2-0.5,0.4-0.6,0.6c-0.2,0.3-0.3,0.6-0.3,0.9H109.8z M112,14.1
	c0,0.1,0,0.2,0,0.4c0,0.2-0.1,0.3-0.2,0.5c-0.1,0.1-0.2,0.3-0.4,0.4c-0.2,0.1-0.4,0.2-0.7,0.2c-0.1,0-0.3,0-0.4,0
	c-0.1,0-0.2-0.1-0.3-0.1c-0.1-0.1-0.2-0.1-0.2-0.2c-0.1-0.1-0.1-0.2-0.1-0.4c0-0.2,0-0.3,0.1-0.4c0.1-0.1,0.1-0.2,0.2-0.2
	c0.1-0.1,0.2-0.1,0.3-0.2c0.1,0,0.2-0.1,0.4-0.1c0.1,0,0.3,0,0.4-0.1c0.1,0,0.3,0,0.4-0.1c0.1,0,0.2-0.1,0.3-0.1
	c0.1,0,0.2-0.1,0.3-0.1V14.1z M117.9,10.5v1.1h-1.2v2.9c0,0.3,0,0.5,0.1,0.5c0.1,0.1,0.3,0.1,0.5,0.1c0.1,0,0.2,0,0.3,0
	c0.1,0,0.2,0,0.2,0v1.3c-0.1,0-0.3,0-0.5,0c-0.2,0-0.3,0-0.5,0c-0.3,0-0.5,0-0.7-0.1c-0.2,0-0.4-0.1-0.6-0.2
	c-0.2-0.1-0.3-0.2-0.4-0.4c-0.1-0.2-0.1-0.4-0.1-0.7v-3.5h-1v-1.1h1V8.7h1.6v1.8H117.9z M120.1,15c0.2,0.2,0.6,0.4,1.1,0.4
	c0.3,0,0.6-0.1,0.8-0.2c0.2-0.2,0.4-0.3,0.4-0.5h1.4c-0.2,0.7-0.6,1.2-1.1,1.5c-0.5,0.3-1,0.5-1.7,0.5c-0.5,0-0.9-0.1-1.3-0.2
	c-0.4-0.1-0.7-0.4-0.9-0.6c-0.3-0.3-0.5-0.6-0.6-1c-0.1-0.4-0.2-0.8-0.2-1.3c0-0.4,0.1-0.9,0.2-1.2c0.1-0.4,0.4-0.7,0.6-1
	c0.3-0.3,0.6-0.5,1-0.7c0.4-0.2,0.8-0.2,1.2-0.2c0.5,0,0.9,0.1,1.3,0.3c0.4,0.2,0.7,0.5,0.9,0.8c0.2,0.3,0.4,0.7,0.5,1.1
	c0.1,0.4,0.1,0.9,0.1,1.3h-4.3C119.8,14.3,119.9,14.7,120.1,15z M122,11.8c-0.2-0.2-0.5-0.3-0.9-0.3c-0.3,0-0.5,0-0.6,0.1
	c-0.2,0.1-0.3,0.2-0.4,0.3c-0.1,0.1-0.2,0.3-0.2,0.4c0,0.1-0.1,0.3-0.1,0.4h2.6C122.3,12.4,122.2,12.1,122,11.8z M126.1,14.9
	c0.1,0.1,0.2,0.2,0.3,0.3c0.1,0.1,0.2,0.1,0.4,0.2c0.1,0,0.3,0.1,0.5,0.1c0.1,0,0.2,0,0.4,0c0.1,0,0.2-0.1,0.3-0.1
	c0.1-0.1,0.2-0.1,0.3-0.2c0.1-0.1,0.1-0.2,0.1-0.4c0-0.2-0.2-0.4-0.5-0.5c-0.3-0.1-0.8-0.2-1.4-0.4c-0.2-0.1-0.5-0.1-0.7-0.2
	c-0.2-0.1-0.4-0.2-0.6-0.3c-0.2-0.1-0.3-0.3-0.4-0.4c-0.1-0.2-0.2-0.4-0.2-0.7c0-0.4,0.1-0.7,0.2-0.9c0.1-0.2,0.3-0.4,0.6-0.6
	c0.2-0.1,0.5-0.2,0.8-0.3c0.3-0.1,0.6-0.1,0.9-0.1s0.6,0,0.9,0.1c0.3,0.1,0.6,0.2,0.8,0.3c0.2,0.1,0.4,0.3,0.6,0.6
	c0.2,0.2,0.2,0.5,0.3,0.9h-1.5c0-0.3-0.1-0.5-0.4-0.6c-0.2-0.1-0.5-0.2-0.8-0.2c-0.1,0-0.2,0-0.3,0c-0.1,0-0.2,0-0.3,0.1
	c-0.1,0-0.2,0.1-0.2,0.2c-0.1,0.1-0.1,0.2-0.1,0.3c0,0.1,0.1,0.3,0.2,0.4c0.1,0.1,0.2,0.2,0.4,0.2s0.4,0.1,0.6,0.2
	c0.2,0,0.4,0.1,0.7,0.1c0.2,0.1,0.5,0.1,0.7,0.2c0.2,0.1,0.4,0.2,0.6,0.3c0.2,0.1,0.3,0.3,0.4,0.5c0.1,0.2,0.2,0.4,0.2,0.7
	c0,0.4-0.1,0.7-0.2,1c-0.2,0.3-0.4,0.5-0.6,0.6c-0.3,0.2-0.5,0.3-0.9,0.3c-0.3,0.1-0.7,0.1-1,0.1c-0.3,0-0.7,0-1-0.1
	c-0.3-0.1-0.6-0.2-0.9-0.3c-0.3-0.2-0.5-0.4-0.6-0.6c-0.2-0.3-0.3-0.6-0.3-1h1.5C126,14.6,126,14.8,126.1,14.9z"/>
<g>
	<path d="M15,22.4v1.1h-1.2v2.9c0,0.3,0,0.5,0.1,0.5c0.1,0.1,0.3,0.1,0.5,0.1c0.1,0,0.2,0,0.3,0c0.1,0,0.2,0,0.2,0v1.3
		c-0.1,0-0.3,0-0.5,0c-0.2,0-0.3,0-0.5,0c-0.3,0-0.5,0-0.7-0.1s-0.4-0.1-0.6-0.2c-0.2-0.1-0.3-0.2-0.4-0.4c-0.1-0.2-0.1-0.4-0.1-0.7
		v-3.5h-1v-1.1h1v-1.8h1.6v1.8H15z"/>
	<path d="M15.6,24.1c0.1-0.4,0.4-0.7,0.6-1c0.3-0.3,0.6-0.5,1-0.6c0.4-0.1,0.8-0.2,1.3-0.2c0.5,0,0.9,0.1,1.3,0.2
		c0.4,0.1,0.7,0.4,1,0.6c0.3,0.3,0.5,0.6,0.6,1c0.1,0.4,0.2,0.8,0.2,1.3c0,0.5-0.1,0.9-0.2,1.3c-0.1,0.4-0.4,0.7-0.6,1
		c-0.3,0.3-0.6,0.5-1,0.6c-0.4,0.1-0.8,0.2-1.3,0.2c-0.5,0-0.9-0.1-1.3-0.2c-0.4-0.1-0.7-0.4-1-0.6c-0.3-0.3-0.5-0.6-0.6-1
		s-0.2-0.8-0.2-1.3C15.4,24.9,15.5,24.5,15.6,24.1z M17.1,26.1c0,0.2,0.1,0.4,0.2,0.6c0.1,0.2,0.3,0.3,0.4,0.4s0.4,0.2,0.7,0.2
		c0.3,0,0.5-0.1,0.7-0.2c0.2-0.1,0.3-0.2,0.4-0.4c0.1-0.2,0.2-0.4,0.2-0.6c0-0.2,0.1-0.5,0.1-0.7c0-0.2,0-0.5-0.1-0.7
		c0-0.2-0.1-0.4-0.2-0.6c-0.1-0.2-0.3-0.3-0.4-0.4c-0.2-0.1-0.4-0.2-0.7-0.2c-0.3,0-0.5,0.1-0.7,0.2c-0.2,0.1-0.3,0.3-0.4,0.4
		s-0.2,0.4-0.2,0.6c0,0.2-0.1,0.5-0.1,0.7C17,25.6,17,25.8,17.1,26.1z"/>
	<path d="M26.8,22.4v0.8h0c0.2-0.3,0.4-0.6,0.8-0.7c0.3-0.1,0.6-0.2,1-0.2c0.5,0,0.9,0.1,1.2,0.3c0.3,0.2,0.6,0.4,0.8,0.7
		c0.2,0.3,0.4,0.6,0.5,1c0.1,0.4,0.2,0.8,0.2,1.2c0,0.4-0.1,0.8-0.2,1.1c-0.1,0.4-0.3,0.7-0.5,1s-0.5,0.5-0.8,0.7
		c-0.3,0.2-0.7,0.3-1.1,0.3c-0.4,0-0.7-0.1-1-0.2c-0.3-0.1-0.6-0.4-0.8-0.7h0v2.8h-1.6v-8H26.8z M28.9,27.1c0.2-0.1,0.3-0.2,0.4-0.4
		c0.1-0.2,0.2-0.4,0.2-0.6c0-0.2,0.1-0.5,0.1-0.7s0-0.5-0.1-0.7c0-0.2-0.1-0.4-0.2-0.6s-0.3-0.3-0.4-0.4c-0.2-0.1-0.4-0.2-0.7-0.2
		c-0.3,0-0.5,0.1-0.7,0.2c-0.2,0.1-0.3,0.3-0.4,0.4c-0.1,0.2-0.2,0.4-0.2,0.6c0,0.2-0.1,0.5-0.1,0.7c0,0.2,0,0.5,0.1,0.7
		c0,0.2,0.1,0.4,0.2,0.6c0.1,0.2,0.3,0.3,0.4,0.4s0.4,0.2,0.7,0.2C28.5,27.3,28.8,27.2,28.9,27.1z"/>
	<path d="M33.6,22.4v1.1h0c0.1-0.2,0.2-0.4,0.3-0.5c0.1-0.2,0.3-0.3,0.4-0.4c0.2-0.1,0.3-0.2,0.5-0.3s0.4-0.1,0.6-0.1
		c0.1,0,0.2,0,0.4,0.1v1.5c-0.1,0-0.2,0-0.3,0c-0.1,0-0.2,0-0.3,0c-0.3,0-0.5,0-0.8,0.1c-0.2,0.1-0.4,0.2-0.5,0.4
		c-0.1,0.2-0.2,0.4-0.3,0.6c-0.1,0.2-0.1,0.5-0.1,0.7v2.7H32v-5.9H33.6z"/>
	<path d="M36.1,24.1c0.1-0.4,0.4-0.7,0.6-1c0.3-0.3,0.6-0.5,1-0.6c0.4-0.1,0.8-0.2,1.3-0.2c0.5,0,0.9,0.1,1.3,0.2
		c0.4,0.1,0.7,0.4,1,0.6c0.3,0.3,0.5,0.6,0.6,1c0.1,0.4,0.2,0.8,0.2,1.3c0,0.5-0.1,0.9-0.2,1.3c-0.1,0.4-0.4,0.7-0.6,1
		c-0.3,0.3-0.6,0.5-1,0.6c-0.4,0.1-0.8,0.2-1.3,0.2c-0.5,0-0.9-0.1-1.3-0.2c-0.4-0.1-0.7-0.4-1-0.6c-0.3-0.3-0.5-0.6-0.6-1
		s-0.2-0.8-0.2-1.3C35.9,24.9,36,24.5,36.1,24.1z M37.6,26.1c0,0.2,0.1,0.4,0.2,0.6c0.1,0.2,0.3,0.3,0.4,0.4s0.4,0.2,0.7,0.2
		c0.3,0,0.5-0.1,0.7-0.2c0.2-0.1,0.3-0.2,0.4-0.4c0.1-0.2,0.2-0.4,0.2-0.6c0-0.2,0.1-0.5,0.1-0.7c0-0.2,0-0.5-0.1-0.7
		c0-0.2-0.1-0.4-0.2-0.6c-0.1-0.2-0.3-0.3-0.4-0.4c-0.2-0.1-0.4-0.2-0.7-0.2c-0.3,0-0.5,0.1-0.7,0.2c-0.2,0.1-0.3,0.3-0.4,0.4
		s-0.2,0.4-0.2,0.6c0,0.2-0.1,0.5-0.1,0.7C37.5,25.6,37.5,25.8,37.6,26.1z"/>
	<path d="M46.1,22.4v1.1h-1.2v2.9c0,0.3,0,0.5,0.1,0.5c0.1,0.1,0.3,0.1,0.5,0.1c0.1,0,0.2,0,0.3,0c0.1,0,0.2,0,0.2,0v1.3
		c-0.1,0-0.3,0-0.5,0c-0.2,0-0.3,0-0.5,0c-0.3,0-0.5,0-0.7-0.1s-0.4-0.1-0.6-0.2c-0.2-0.1-0.3-0.2-0.4-0.4c-0.1-0.2-0.1-0.4-0.1-0.7
		v-3.5h-1v-1.1h1v-1.8h1.6v1.8H46.1z"/>
	<path d="M48.4,26.9c0.2,0.2,0.6,0.4,1.1,0.4c0.3,0,0.6-0.1,0.8-0.2s0.4-0.3,0.4-0.5h1.4c-0.2,0.7-0.6,1.2-1.1,1.5s-1,0.5-1.7,0.5
		c-0.5,0-0.9-0.1-1.3-0.2c-0.4-0.1-0.7-0.4-0.9-0.6s-0.5-0.6-0.6-1c-0.1-0.4-0.2-0.8-0.2-1.3c0-0.4,0.1-0.9,0.2-1.2
		c0.1-0.4,0.4-0.7,0.6-1c0.3-0.3,0.6-0.5,1-0.7c0.4-0.2,0.8-0.2,1.2-0.2c0.5,0,0.9,0.1,1.3,0.3s0.7,0.5,0.9,0.8
		c0.2,0.3,0.4,0.7,0.5,1.1c0.1,0.4,0.1,0.9,0.1,1.3H48C48,26.3,48.1,26.7,48.4,26.9z M50.2,23.8c-0.2-0.2-0.5-0.3-0.9-0.3
		c-0.3,0-0.5,0-0.6,0.1c-0.2,0.1-0.3,0.2-0.4,0.3c-0.1,0.1-0.2,0.3-0.2,0.4c0,0.1-0.1,0.3-0.1,0.4h2.6C50.5,24.3,50.4,24,50.2,23.8z
		"/>
	<path d="M55.8,23.5c-0.3,0-0.5,0.1-0.7,0.2c-0.2,0.1-0.3,0.3-0.4,0.5s-0.2,0.4-0.2,0.6s-0.1,0.4-0.1,0.7c0,0.2,0,0.4,0.1,0.7
		c0,0.2,0.1,0.4,0.2,0.6c0.1,0.2,0.2,0.3,0.4,0.4c0.2,0.1,0.4,0.2,0.6,0.2c0.4,0,0.7-0.1,0.9-0.3c0.2-0.2,0.3-0.5,0.4-0.9h1.6
		c-0.1,0.8-0.4,1.4-0.9,1.8c-0.5,0.4-1.1,0.6-1.9,0.6c-0.4,0-0.8-0.1-1.2-0.2c-0.4-0.1-0.7-0.4-0.9-0.6c-0.3-0.3-0.5-0.6-0.6-1
		c-0.1-0.4-0.2-0.8-0.2-1.2c0-0.5,0.1-0.9,0.2-1.3c0.1-0.4,0.3-0.7,0.6-1c0.3-0.3,0.6-0.5,0.9-0.7c0.4-0.2,0.8-0.2,1.3-0.2
		c0.4,0,0.7,0,1,0.1c0.3,0.1,0.6,0.2,0.9,0.4c0.3,0.2,0.5,0.4,0.6,0.7c0.2,0.3,0.3,0.6,0.3,1H57C56.9,23.8,56.5,23.5,55.8,23.5z"/>
	<path d="M62.6,22.4v1.1h-1.2v2.9c0,0.3,0,0.5,0.1,0.5c0.1,0.1,0.3,0.1,0.5,0.1c0.1,0,0.2,0,0.3,0c0.1,0,0.2,0,0.2,0v1.3
		c-0.1,0-0.3,0-0.5,0c-0.2,0-0.3,0-0.5,0c-0.3,0-0.5,0-0.7-0.1s-0.4-0.1-0.6-0.2c-0.2-0.1-0.3-0.2-0.4-0.4c-0.1-0.2-0.1-0.4-0.1-0.7
		v-3.5h-1v-1.1h1v-1.8h1.6v1.8H62.6z"/>
	<path d="M68.3,30.1c-0.3,0.2-0.7,0.3-1.3,0.3c-0.2,0-0.3,0-0.5,0c-0.2,0-0.3,0-0.5,0V29c0.2,0,0.3,0,0.5,0c0.2,0,0.3,0,0.5,0
		c0.2,0,0.4-0.1,0.5-0.3s0.2-0.3,0.2-0.5c0-0.1,0-0.3-0.1-0.4l-2.1-5.5h1.7l1.3,4h0l1.3-4h1.7L69,29.1
		C68.8,29.5,68.6,29.9,68.3,30.1z"/>
	<path d="M71.8,24.1c0.1-0.4,0.4-0.7,0.6-1c0.3-0.3,0.6-0.5,1-0.6c0.4-0.1,0.8-0.2,1.3-0.2c0.5,0,0.9,0.1,1.3,0.2
		c0.4,0.1,0.7,0.4,1,0.6c0.3,0.3,0.5,0.6,0.6,1c0.1,0.4,0.2,0.8,0.2,1.3c0,0.5-0.1,0.9-0.2,1.3c-0.1,0.4-0.4,0.7-0.6,1
		c-0.3,0.3-0.6,0.5-1,0.6c-0.4,0.1-0.8,0.2-1.3,0.2c-0.5,0-0.9-0.1-1.3-0.2c-0.4-0.1-0.7-0.4-1-0.6c-0.3-0.3-0.5-0.6-0.6-1
		s-0.2-0.8-0.2-1.3C71.6,24.9,71.7,24.5,71.8,24.1z M73.3,26.1c0,0.2,0.1,0.4,0.2,0.6c0.1,0.2,0.3,0.3,0.4,0.4s0.4,0.2,0.7,0.2
		c0.3,0,0.5-0.1,0.7-0.2c0.2-0.1,0.3-0.2,0.4-0.4c0.1-0.2,0.2-0.4,0.2-0.6c0-0.2,0.1-0.5,0.1-0.7c0-0.2,0-0.5-0.1-0.7
		c0-0.2-0.1-0.4-0.2-0.6c-0.1-0.2-0.3-0.3-0.4-0.4c-0.2-0.1-0.4-0.2-0.7-0.2c-0.3,0-0.5,0.1-0.7,0.2c-0.2,0.1-0.3,0.3-0.4,0.4
		s-0.2,0.4-0.2,0.6c0,0.2-0.1,0.5-0.1,0.7C73.2,25.6,73.3,25.8,73.3,26.1z"/>
	<path d="M82.6,28.3v-0.8h0c-0.2,0.3-0.5,0.6-0.8,0.7c-0.3,0.2-0.7,0.2-1,0.2c-0.4,0-0.8-0.1-1.1-0.2c-0.3-0.1-0.5-0.3-0.7-0.5
		s-0.3-0.5-0.3-0.8c-0.1-0.3-0.1-0.6-0.1-1v-3.6h1.6v3.3c0,0.5,0.1,0.9,0.2,1.1c0.2,0.2,0.4,0.4,0.8,0.4c0.4,0,0.8-0.1,1-0.4
		c0.2-0.3,0.3-0.7,0.3-1.3v-3.1h1.6v5.9H82.6z"/>
	<path d="M86.7,22.4v1.1h0c0.1-0.2,0.2-0.4,0.3-0.5c0.1-0.2,0.3-0.3,0.4-0.4c0.2-0.1,0.3-0.2,0.5-0.3s0.4-0.1,0.6-0.1
		c0.1,0,0.2,0,0.4,0.1v1.5c-0.1,0-0.2,0-0.3,0c-0.1,0-0.2,0-0.3,0c-0.3,0-0.5,0-0.8,0.1c-0.2,0.1-0.4,0.2-0.5,0.4
		c-0.1,0.2-0.2,0.4-0.3,0.6c-0.1,0.2-0.1,0.5-0.1,0.7v2.7h-1.6v-5.9H86.7z"/>
	<path d="M92.4,21.5v-1.3H94v1.3H92.4z M94,22.4v5.9h-1.6v-5.9H94z"/>
	<path d="M96.6,22.4v0.8h0c0.2-0.3,0.5-0.6,0.8-0.7c0.3-0.2,0.7-0.2,1-0.2c0.4,0,0.8,0.1,1.1,0.2s0.5,0.3,0.7,0.5
		c0.2,0.2,0.3,0.5,0.3,0.8c0.1,0.3,0.1,0.6,0.1,1v3.6H99V25c0-0.5-0.1-0.9-0.2-1.1s-0.4-0.4-0.8-0.4c-0.4,0-0.8,0.1-1,0.4
		s-0.3,0.7-0.3,1.3v3.1H95v-5.9H96.6z"/>
	<path d="M104.4,23.5c-0.3,0-0.5,0.1-0.7,0.2c-0.2,0.1-0.3,0.3-0.4,0.5s-0.2,0.4-0.2,0.6s-0.1,0.4-0.1,0.7c0,0.2,0,0.4,0.1,0.7
		c0,0.2,0.1,0.4,0.2,0.6c0.1,0.2,0.2,0.3,0.4,0.4c0.2,0.1,0.4,0.2,0.6,0.2c0.4,0,0.7-0.1,0.9-0.3c0.2-0.2,0.3-0.5,0.4-0.9h1.6
		c-0.1,0.8-0.4,1.4-0.9,1.8c-0.5,0.4-1.1,0.6-1.9,0.6c-0.4,0-0.8-0.1-1.2-0.2c-0.4-0.1-0.7-0.4-0.9-0.6c-0.3-0.3-0.5-0.6-0.6-1
		c-0.1-0.4-0.2-0.8-0.2-1.2c0-0.5,0.1-0.9,0.2-1.3c0.1-0.4,0.3-0.7,0.6-1c0.3-0.3,0.6-0.5,0.9-0.7c0.4-0.2,0.8-0.2,1.3-0.2
		c0.4,0,0.7,0,1,0.1c0.3,0.1,0.6,0.2,0.9,0.4c0.3,0.2,0.5,0.4,0.6,0.7c0.2,0.3,0.3,0.6,0.3,1h-1.6C105.5,23.8,105.1,23.5,104.4,23.5
		z"/>
	<path d="M108,24.1c0.1-0.4,0.4-0.7,0.6-1c0.3-0.3,0.6-0.5,1-0.6c0.4-0.1,0.8-0.2,1.3-0.2c0.5,0,0.9,0.1,1.3,0.2
		c0.4,0.1,0.7,0.4,1,0.6c0.3,0.3,0.5,0.6,0.6,1c0.1,0.4,0.2,0.8,0.2,1.3c0,0.5-0.1,0.9-0.2,1.3c-0.1,0.4-0.4,0.7-0.6,1
		c-0.3,0.3-0.6,0.5-1,0.6c-0.4,0.1-0.8,0.2-1.3,0.2c-0.5,0-0.9-0.1-1.3-0.2c-0.4-0.1-0.7-0.4-1-0.6c-0.3-0.3-0.5-0.6-0.6-1
		s-0.2-0.8-0.2-1.3C107.8,24.9,107.8,24.5,108,24.1z M109.5,26.1c0,0.2,0.1,0.4,0.2,0.6c0.1,0.2,0.3,0.3,0.4,0.4s0.4,0.2,0.7,0.2
		c0.3,0,0.5-0.1,0.7-0.2c0.2-0.1,0.3-0.2,0.4-0.4c0.1-0.2,0.2-0.4,0.2-0.6c0-0.2,0.1-0.5,0.1-0.7c0-0.2,0-0.5-0.1-0.7
		c0-0.2-0.1-0.4-0.2-0.6c-0.1-0.2-0.3-0.3-0.4-0.4c-0.2-0.1-0.4-0.2-0.7-0.2c-0.3,0-0.5,0.1-0.7,0.2c-0.2,0.1-0.3,0.3-0.4,0.4
		s-0.2,0.4-0.2,0.6c0,0.2-0.1,0.5-0.1,0.7C109.4,25.6,109.4,25.8,109.5,26.1z"/>
	<path d="M116.3,22.4v0.8h0c0.2-0.3,0.5-0.5,0.8-0.7c0.3-0.2,0.6-0.3,1-0.3c0.4,0,0.7,0.1,1,0.2c0.3,0.1,0.5,0.4,0.7,0.8
		c0.2-0.3,0.4-0.5,0.7-0.7c0.3-0.2,0.7-0.3,1.1-0.3c0.3,0,0.6,0,0.9,0.1s0.5,0.2,0.7,0.4c0.2,0.2,0.3,0.4,0.4,0.7
		c0.1,0.3,0.2,0.6,0.2,1v4h-1.6V25c0-0.2,0-0.4,0-0.6s-0.1-0.3-0.1-0.5c-0.1-0.1-0.2-0.2-0.3-0.3c-0.1-0.1-0.3-0.1-0.5-0.1
		c-0.2,0-0.4,0-0.6,0.1c-0.1,0.1-0.3,0.2-0.3,0.3s-0.1,0.3-0.2,0.5c0,0.2,0,0.4,0,0.5v3.3h-1.6V25c0-0.2,0-0.3,0-0.5
		c0-0.2,0-0.3-0.1-0.5s-0.2-0.3-0.3-0.3c-0.1-0.1-0.3-0.1-0.6-0.1c-0.1,0-0.2,0-0.3,0.1c-0.1,0-0.2,0.1-0.4,0.2s-0.2,0.2-0.3,0.4
		c-0.1,0.2-0.1,0.4-0.1,0.7v3.4h-1.6v-5.9H116.3z"/>
	<path d="M126.6,26.9c0.2,0.2,0.6,0.4,1.1,0.4c0.3,0,0.6-0.1,0.8-0.2s0.4-0.3,0.4-0.5h1.4c-0.2,0.7-0.6,1.2-1.1,1.5s-1,0.5-1.7,0.5
		c-0.5,0-0.9-0.1-1.3-0.2c-0.4-0.1-0.7-0.4-0.9-0.6s-0.5-0.6-0.6-1c-0.1-0.4-0.2-0.8-0.2-1.3c0-0.4,0.1-0.9,0.2-1.2
		c0.1-0.4,0.4-0.7,0.6-1c0.3-0.3,0.6-0.5,1-0.7c0.4-0.2,0.8-0.2,1.2-0.2c0.5,0,0.9,0.1,1.3,0.3s0.7,0.5,0.9,0.8
		c0.2,0.3,0.4,0.7,0.5,1.1c0.1,0.4,0.1,0.9,0.1,1.3h-4.3C126.2,26.3,126.3,26.7,126.6,26.9z M128.4,23.8c-0.2-0.2-0.5-0.3-0.9-0.3
		c-0.3,0-0.5,0-0.6,0.1c-0.2,0.1-0.3,0.2-0.4,0.3c-0.1,0.1-0.2,0.3-0.2,0.4c0,0.1-0.1,0.3-0.1,0.4h2.6
		C128.8,24.3,128.6,24,128.4,23.8z"/>
	<path d="M133.1,26.6v1.8h-1.8v-1.8H133.1z"/>
</g>
<g>
	<path class="st0" d="M11.9,36.5c0.2-0.5,0.4-1,0.8-1.4c0.3-0.4,0.8-0.7,1.3-0.9s1.1-0.3,1.7-0.3c0.6,0,1.2,0.1,1.7,0.3
		s0.9,0.5,1.3,0.9s0.6,0.8,0.8,1.4c0.2,0.5,0.3,1.1,0.3,1.7c0,0.6-0.1,1.1-0.3,1.7s-0.4,1-0.8,1.3c-0.3,0.4-0.8,0.7-1.3,0.9
		c-0.5,0.2-1.1,0.3-1.7,0.3c-0.6,0-1.2-0.1-1.7-0.3c-0.5-0.2-0.9-0.5-1.3-0.9c-0.3-0.4-0.6-0.8-0.8-1.3c-0.2-0.5-0.3-1.1-0.3-1.7
		C11.6,37.6,11.7,37.1,11.9,36.5z M13.5,39.2c0.1,0.3,0.2,0.6,0.4,0.9c0.2,0.3,0.4,0.5,0.7,0.6s0.6,0.2,1,0.2s0.7-0.1,1-0.2
		c0.3-0.2,0.5-0.4,0.7-0.6c0.2-0.3,0.3-0.6,0.4-0.9s0.1-0.7,0.1-1c0-0.4,0-0.7-0.1-1s-0.2-0.6-0.4-0.9c-0.2-0.3-0.4-0.5-0.7-0.6
		c-0.3-0.2-0.6-0.2-1-0.2s-0.7,0.1-1,0.2c-0.3,0.2-0.5,0.4-0.7,0.6c-0.2,0.3-0.3,0.6-0.4,0.9s-0.1,0.7-0.1,1
		C13.4,38.6,13.4,38.9,13.5,39.2z"/>
	<path class="st0" d="M22,36.4v0.8h0c0.2-0.3,0.5-0.6,0.8-0.7c0.3-0.2,0.7-0.2,1-0.2c0.4,0,0.8,0.1,1.1,0.2s0.5,0.3,0.7,0.5
		s0.3,0.5,0.3,0.8c0.1,0.3,0.1,0.6,0.1,1v3.6h-1.6v-3.3c0-0.5-0.1-0.9-0.2-1.1s-0.4-0.4-0.8-0.4c-0.4,0-0.8,0.1-1,0.4
		c-0.2,0.3-0.3,0.7-0.3,1.3v3.1h-1.6v-5.9H22z"/>
	<path class="st0" d="M28.7,34.1v8.2H27v-8.2H28.7z"/>
	<path class="st0" d="M31.9,44c-0.3,0.2-0.7,0.3-1.3,0.3c-0.2,0-0.3,0-0.5,0c-0.2,0-0.3,0-0.5,0V43c0.2,0,0.3,0,0.5,0
		c0.2,0,0.3,0,0.5,0c0.2,0,0.4-0.1,0.5-0.3s0.2-0.3,0.2-0.5c0-0.1,0-0.3-0.1-0.4L29,36.4h1.7l1.3,4h0l1.3-4h1.7L32.6,43
		C32.5,43.5,32.2,43.8,31.9,44z"/>
	<path class="st0" d="M37.8,37.5v-1.1h1v-0.5c0-0.5,0.2-1,0.5-1.3c0.3-0.3,0.8-0.5,1.5-0.5c0.1,0,0.3,0,0.4,0c0.1,0,0.3,0,0.4,0v1.2
		c-0.2,0-0.4,0-0.6,0c-0.2,0-0.4,0.1-0.5,0.2c-0.1,0.1-0.1,0.3-0.1,0.5v0.4h1.1v1.1h-1.1v4.8h-1.6v-4.8H37.8z"/>
	<path class="st0" d="M42,38c0.1-0.4,0.4-0.7,0.6-1c0.3-0.3,0.6-0.5,1-0.6s0.8-0.2,1.3-0.2c0.5,0,0.9,0.1,1.3,0.2s0.7,0.4,1,0.6
		c0.3,0.3,0.5,0.6,0.6,1c0.1,0.4,0.2,0.8,0.2,1.3s-0.1,0.9-0.2,1.3c-0.1,0.4-0.4,0.7-0.6,1c-0.3,0.3-0.6,0.5-1,0.6
		c-0.4,0.1-0.8,0.2-1.3,0.2c-0.5,0-0.9-0.1-1.3-0.2c-0.4-0.1-0.7-0.4-1-0.6c-0.3-0.3-0.5-0.6-0.6-1c-0.1-0.4-0.2-0.8-0.2-1.3
		S41.9,38.4,42,38z M43.5,40c0,0.2,0.1,0.4,0.2,0.6c0.1,0.2,0.3,0.3,0.4,0.4s0.4,0.2,0.7,0.2c0.3,0,0.5-0.1,0.7-0.2
		c0.2-0.1,0.3-0.2,0.4-0.4c0.1-0.2,0.2-0.4,0.2-0.6c0-0.2,0.1-0.5,0.1-0.7s0-0.5-0.1-0.7c0-0.2-0.1-0.4-0.2-0.6
		c-0.1-0.2-0.3-0.3-0.4-0.4c-0.2-0.1-0.4-0.2-0.7-0.2c-0.3,0-0.5,0.1-0.7,0.2s-0.3,0.3-0.4,0.4s-0.2,0.4-0.2,0.6
		c0,0.2-0.1,0.5-0.1,0.7S43.4,39.8,43.5,40z"/>
	<path class="st0" d="M50.3,36.4v1.1h0c0.1-0.2,0.2-0.4,0.3-0.5c0.1-0.2,0.3-0.3,0.4-0.4c0.2-0.1,0.3-0.2,0.5-0.3
		c0.2-0.1,0.4-0.1,0.6-0.1c0.1,0,0.2,0,0.4,0.1v1.5c-0.1,0-0.2,0-0.3,0c-0.1,0-0.2,0-0.3,0c-0.3,0-0.5,0-0.8,0.1
		c-0.2,0.1-0.4,0.2-0.5,0.4c-0.1,0.2-0.2,0.4-0.3,0.6c-0.1,0.2-0.1,0.5-0.1,0.7v2.7h-1.6v-5.9H50.3z"/>
	<path class="st0" d="M60.1,34.1l3.1,8.2h-1.9l-0.6-1.8h-3.1L57,42.3h-1.8l3.1-8.2H60.1z M60.2,39.1l-1-3h0l-1.1,3H60.2z"/>
	<path class="st0" d="M67.2,34.1c0.5,0,1,0.1,1.5,0.3s0.8,0.4,1.2,0.8c0.3,0.3,0.6,0.8,0.8,1.3c0.2,0.5,0.3,1.1,0.3,1.8
		c0,0.6-0.1,1.1-0.2,1.6c-0.2,0.5-0.4,0.9-0.7,1.3c-0.3,0.4-0.7,0.7-1.2,0.9s-1,0.3-1.6,0.3h-3.5v-8.2H67.2z M67.1,40.8
		c0.3,0,0.5,0,0.8-0.1c0.2-0.1,0.5-0.2,0.7-0.4c0.2-0.2,0.3-0.4,0.5-0.8c0.1-0.3,0.2-0.7,0.2-1.1c0-0.4,0-0.8-0.1-1.1
		c-0.1-0.3-0.2-0.6-0.4-0.9s-0.4-0.4-0.7-0.5c-0.3-0.1-0.7-0.2-1.1-0.2h-1.3v5.1H67.1z"/>
	<path class="st0" d="M76,34.1l3.1,8.2h-1.9l-0.6-1.8h-3.1l-0.6,1.8h-1.8l3.1-8.2H76z M76.1,39.1l-1-3h0l-1.1,3H76.1z"/>
	<path class="st0" d="M85,34.1l1.9,5.6h0l1.8-5.6h2.5v8.2h-1.7v-5.8h0l-2,5.8h-1.4l-2-5.7h0v5.7h-1.7v-8.2H85z"/>
	<path class="st0" d="M94.2,40.9c0.2,0.2,0.6,0.4,1.1,0.4c0.3,0,0.6-0.1,0.8-0.2s0.4-0.3,0.4-0.5H98c-0.2,0.7-0.6,1.2-1.1,1.5
		s-1,0.5-1.7,0.5c-0.5,0-0.9-0.1-1.3-0.2c-0.4-0.1-0.7-0.4-0.9-0.6s-0.5-0.6-0.6-1c-0.1-0.4-0.2-0.8-0.2-1.3c0-0.4,0.1-0.9,0.2-1.2
		c0.1-0.4,0.4-0.7,0.6-1c0.3-0.3,0.6-0.5,1-0.7c0.4-0.2,0.8-0.2,1.2-0.2c0.5,0,0.9,0.1,1.3,0.3s0.7,0.5,0.9,0.8
		c0.2,0.3,0.4,0.7,0.5,1.1c0.1,0.4,0.1,0.9,0.1,1.3h-4.3C93.8,40.2,94,40.6,94.2,40.9z M96,37.8c-0.2-0.2-0.5-0.3-0.9-0.3
		c-0.3,0-0.5,0-0.6,0.1c-0.2,0.1-0.3,0.2-0.4,0.3c-0.1,0.1-0.2,0.3-0.2,0.4s-0.1,0.3-0.1,0.4h2.6C96.4,38.3,96.2,38,96,37.8z"/>
	<path class="st0" d="M100.4,36.4v0.8h0c0.2-0.3,0.5-0.5,0.8-0.7c0.3-0.2,0.6-0.3,1-0.3c0.4,0,0.7,0.1,1,0.2
		c0.3,0.1,0.5,0.4,0.7,0.8c0.2-0.3,0.4-0.5,0.7-0.7c0.3-0.2,0.7-0.3,1.1-0.3c0.3,0,0.6,0,0.9,0.1s0.5,0.2,0.7,0.4
		c0.2,0.2,0.3,0.4,0.4,0.7s0.2,0.6,0.2,1v4h-1.6v-3.4c0-0.2,0-0.4,0-0.6c0-0.2-0.1-0.3-0.1-0.5c-0.1-0.1-0.2-0.2-0.3-0.3
		c-0.1-0.1-0.3-0.1-0.5-0.1c-0.2,0-0.4,0-0.6,0.1c-0.1,0.1-0.3,0.2-0.3,0.3c-0.1,0.1-0.1,0.3-0.2,0.5c0,0.2,0,0.4,0,0.5v3.3h-1.6V39
		c0-0.2,0-0.3,0-0.5c0-0.2,0-0.3-0.1-0.5c-0.1-0.1-0.2-0.3-0.3-0.3c-0.1-0.1-0.3-0.1-0.6-0.1c-0.1,0-0.2,0-0.3,0.1s-0.2,0.1-0.4,0.2
		c-0.1,0.1-0.2,0.2-0.3,0.4c-0.1,0.2-0.1,0.4-0.1,0.7v3.4h-1.6v-5.9H100.4z"/>
	<path class="st0" d="M110.6,34.1v3h0c0.2-0.3,0.5-0.5,0.8-0.7c0.3-0.1,0.7-0.2,1.1-0.2c0.3,0,0.6,0.1,0.9,0.2
		c0.3,0.1,0.6,0.3,0.8,0.6c0.2,0.3,0.4,0.6,0.6,1s0.2,0.9,0.2,1.4c0,0.5-0.1,1-0.2,1.4c-0.1,0.4-0.3,0.7-0.6,1
		c-0.2,0.3-0.5,0.4-0.8,0.6c-0.3,0.1-0.6,0.2-0.9,0.2c-0.4,0-0.8-0.1-1.2-0.2c-0.3-0.1-0.6-0.4-0.8-0.7h0v0.8H109v-8.2H110.6z
		 M113.2,38.6c-0.1-0.2-0.1-0.4-0.3-0.6c-0.1-0.2-0.3-0.3-0.4-0.4c-0.2-0.1-0.4-0.2-0.6-0.2c-0.2,0-0.4,0.1-0.6,0.2
		c-0.2,0.1-0.3,0.2-0.4,0.4c-0.1,0.2-0.2,0.4-0.3,0.6c-0.1,0.2-0.1,0.5-0.1,0.7c0,0.2,0,0.5,0.1,0.7c0.1,0.2,0.1,0.4,0.3,0.6
		c0.1,0.2,0.3,0.3,0.4,0.4c0.2,0.1,0.4,0.2,0.6,0.2c0.2,0,0.5-0.1,0.6-0.2c0.2-0.1,0.3-0.2,0.4-0.4c0.1-0.2,0.2-0.4,0.3-0.6
		c0.1-0.2,0.1-0.5,0.1-0.7C113.3,39.1,113.3,38.8,113.2,38.6z"/>
	<path class="st0" d="M117.5,40.9c0.2,0.2,0.6,0.4,1.1,0.4c0.3,0,0.6-0.1,0.8-0.2s0.4-0.3,0.4-0.5h1.4c-0.2,0.7-0.6,1.2-1.1,1.5
		s-1,0.5-1.7,0.5c-0.5,0-0.9-0.1-1.3-0.2c-0.4-0.1-0.7-0.4-0.9-0.6s-0.5-0.6-0.6-1c-0.1-0.4-0.2-0.8-0.2-1.3c0-0.4,0.1-0.9,0.2-1.2
		c0.1-0.4,0.4-0.7,0.6-1c0.3-0.3,0.6-0.5,1-0.7c0.4-0.2,0.8-0.2,1.2-0.2c0.5,0,0.9,0.1,1.3,0.3s0.7,0.5,0.9,0.8
		c0.2,0.3,0.4,0.7,0.5,1.1c0.1,0.4,0.1,0.9,0.1,1.3h-4.3C117.1,40.2,117.2,40.6,117.5,40.9z M119.3,37.8c-0.2-0.2-0.5-0.3-0.9-0.3
		c-0.3,0-0.5,0-0.6,0.1c-0.2,0.1-0.3,0.2-0.4,0.3c-0.1,0.1-0.2,0.3-0.2,0.4s-0.1,0.3-0.1,0.4h2.6C119.6,38.3,119.5,38,119.3,37.8z"
		/>
	<path class="st0" d="M123.6,36.4v1.1h0c0.1-0.2,0.2-0.4,0.3-0.5c0.1-0.2,0.3-0.3,0.4-0.4c0.2-0.1,0.3-0.2,0.5-0.3
		c0.2-0.1,0.4-0.1,0.6-0.1c0.1,0,0.2,0,0.4,0.1v1.5c-0.1,0-0.2,0-0.3,0c-0.1,0-0.2,0-0.3,0c-0.3,0-0.5,0-0.8,0.1
		c-0.2,0.1-0.4,0.2-0.5,0.4c-0.1,0.2-0.2,0.4-0.3,0.6c-0.1,0.2-0.1,0.5-0.1,0.7v2.7h-1.6v-5.9H123.6z"/>
	<path class="st0" d="M127.7,40.8c0.1,0.1,0.2,0.2,0.3,0.3s0.2,0.1,0.4,0.2c0.1,0,0.3,0.1,0.5,0.1c0.1,0,0.2,0,0.4,0
		c0.1,0,0.2-0.1,0.3-0.1c0.1-0.1,0.2-0.1,0.3-0.2c0.1-0.1,0.1-0.2,0.1-0.4c0-0.2-0.2-0.4-0.5-0.5s-0.8-0.2-1.4-0.4
		c-0.2-0.1-0.5-0.1-0.7-0.2c-0.2-0.1-0.4-0.2-0.6-0.3s-0.3-0.3-0.4-0.4c-0.1-0.2-0.2-0.4-0.2-0.7c0-0.4,0.1-0.7,0.2-0.9
		c0.1-0.2,0.3-0.4,0.6-0.6c0.2-0.1,0.5-0.2,0.8-0.3c0.3-0.1,0.6-0.1,0.9-0.1s0.6,0,0.9,0.1c0.3,0.1,0.6,0.2,0.8,0.3
		c0.2,0.1,0.4,0.3,0.6,0.6s0.2,0.5,0.3,0.9h-1.5c0-0.3-0.1-0.5-0.4-0.6c-0.2-0.1-0.5-0.2-0.8-0.2c-0.1,0-0.2,0-0.3,0s-0.2,0-0.3,0.1
		c-0.1,0-0.2,0.1-0.2,0.2s-0.1,0.2-0.1,0.3c0,0.1,0.1,0.3,0.2,0.4c0.1,0.1,0.2,0.2,0.4,0.2c0.2,0.1,0.4,0.1,0.6,0.2s0.4,0.1,0.7,0.1
		c0.2,0.1,0.5,0.1,0.7,0.2c0.2,0.1,0.4,0.2,0.6,0.3s0.3,0.3,0.4,0.5c0.1,0.2,0.2,0.4,0.2,0.7c0,0.4-0.1,0.7-0.2,1
		c-0.2,0.3-0.4,0.5-0.6,0.6c-0.3,0.2-0.5,0.3-0.9,0.3c-0.3,0.1-0.7,0.1-1,0.1c-0.3,0-0.7,0-1-0.1s-0.6-0.2-0.9-0.3
		c-0.3-0.2-0.5-0.4-0.6-0.6c-0.2-0.3-0.3-0.6-0.3-1h1.5C127.5,40.5,127.6,40.7,127.7,40.8z"/>
</g>
</svg>
