<?xml version="1.0" encoding="utf-8"?>
<!-- Generator: Adobe Illustrator 25.4.1, SVG Export Plug-In . SVG Version: 6.00 Build 0)  -->
<svg version="1.1" id="Layer_1" xmlns="http://www.w3.org/2000/svg" xmlns:xlink="http://www.w3.org/1999/xlink" x="0px" y="0px"
	 viewBox="0 0 300 50" style="enable-background:new 0 0 300 50;" xml:space="preserve">
<style type="text/css">
	.st0{fill:#349946;}
</style>
<g>
	<path class="st0" d="M12,33.5c0-0.7,0.2-1.2,0.5-1.6c0.3-0.4,0.7-0.8,1.1-1c0.4-0.3,0.9-0.4,1.5-0.6c0.6-0.1,1.1-0.2,1.7-0.2
		c0.5,0,1,0,1.6,0.1c0.5,0.1,1,0.2,1.4,0.4s0.8,0.5,1.1,0.9c0.3,0.4,0.4,0.9,0.4,1.5v5.3c0,0.5,0,0.9,0.1,1.3
		c0.1,0.4,0.1,0.7,0.3,0.9h-2.8c-0.1-0.2-0.1-0.3-0.1-0.5s-0.1-0.3-0.1-0.5c-0.4,0.5-1,0.8-1.6,1s-1.2,0.3-1.8,0.3
		c-0.5,0-0.9-0.1-1.4-0.2c-0.4-0.1-0.8-0.3-1.1-0.6s-0.6-0.6-0.7-0.9c-0.2-0.4-0.3-0.8-0.3-1.4c0-0.6,0.1-1.1,0.3-1.4
		c0.2-0.4,0.5-0.7,0.8-0.9s0.7-0.4,1.1-0.5c0.4-0.1,0.8-0.2,1.2-0.3c0.4-0.1,0.8-0.1,1.2-0.2c0.4,0,0.8-0.1,1.1-0.2
		c0.3-0.1,0.6-0.2,0.7-0.3s0.3-0.4,0.3-0.7c0-0.3,0-0.5-0.1-0.7c-0.1-0.2-0.2-0.3-0.4-0.4c-0.2-0.1-0.4-0.2-0.6-0.2
		c-0.2,0-0.4,0-0.7,0c-0.6,0-1,0.1-1.3,0.4c-0.3,0.2-0.5,0.6-0.6,1.2H12z M18.4,35.6c-0.1,0.1-0.3,0.2-0.4,0.2s-0.4,0.1-0.6,0.1
		S17,36,16.8,36.1c-0.2,0-0.4,0.1-0.7,0.1c-0.2,0-0.4,0.1-0.6,0.2c-0.2,0.1-0.4,0.2-0.5,0.3c-0.2,0.1-0.3,0.3-0.4,0.4
		c-0.1,0.2-0.1,0.4-0.1,0.6c0,0.2,0,0.5,0.1,0.6c0.1,0.2,0.2,0.3,0.4,0.4c0.2,0.1,0.3,0.2,0.6,0.2c0.2,0,0.4,0.1,0.6,0.1
		c0.6,0,1-0.1,1.3-0.3c0.3-0.2,0.5-0.4,0.7-0.7c0.1-0.3,0.2-0.5,0.3-0.8c0-0.3,0-0.5,0-0.6V35.6z"/>
	<path class="st0" d="M26,30.4v1.4h0.1c0.4-0.6,0.8-1,1.4-1.3c0.6-0.3,1.1-0.4,1.7-0.4c0.7,0,1.4,0.1,1.8,0.3
		c0.5,0.2,0.9,0.5,1.1,0.8c0.3,0.4,0.5,0.8,0.6,1.3s0.2,1.1,0.2,1.7v6.3h-2.8v-5.7c0-0.8-0.1-1.5-0.4-1.9c-0.3-0.4-0.7-0.6-1.4-0.6
		c-0.8,0-1.3,0.2-1.7,0.7s-0.5,1.2-0.5,2.2v5.3h-2.8V30.4H26z"/>
	<path class="st0" d="M42.2,39.2c-0.3,0.6-0.8,0.9-1.3,1.2c-0.5,0.2-1.1,0.4-1.8,0.4c-0.8,0-1.4-0.1-2-0.4s-1.1-0.7-1.4-1.2
		c-0.4-0.5-0.7-1.1-0.8-1.7s-0.3-1.3-0.3-2c0-0.7,0.1-1.3,0.3-2s0.5-1.2,0.8-1.7c0.4-0.5,0.8-0.9,1.4-1.2c0.6-0.3,1.2-0.4,2-0.4
		c0.6,0,1.2,0.1,1.7,0.4c0.5,0.3,1,0.6,1.3,1.1h0v-5.1h2.8v14h-2.7L42.2,39.2L42.2,39.2z M42.1,34.2c-0.1-0.4-0.2-0.7-0.4-1
		c-0.2-0.3-0.4-0.5-0.7-0.7c-0.3-0.2-0.7-0.3-1.1-0.3c-0.5,0-0.8,0.1-1.2,0.3s-0.6,0.4-0.8,0.7c-0.2,0.3-0.3,0.6-0.4,1
		c-0.1,0.4-0.1,0.8-0.1,1.2c0,0.4,0,0.8,0.1,1.2c0.1,0.4,0.2,0.7,0.4,1.1c0.2,0.3,0.5,0.6,0.8,0.7c0.3,0.2,0.7,0.3,1.1,0.3
		c0.5,0,0.8-0.1,1.2-0.3c0.3-0.2,0.6-0.4,0.7-0.7s0.3-0.7,0.4-1.1c0.1-0.4,0.1-0.8,0.1-1.2C42.2,35,42.2,34.6,42.1,34.2z"/>
	<path class="st0" d="M57.4,32.2c-0.4,0-0.8,0.1-1.1,0.3c-0.3,0.2-0.5,0.5-0.7,0.8c-0.2,0.3-0.3,0.7-0.4,1.1S55,35.1,55,35.5
		c0,0.4,0,0.7,0.1,1.1c0.1,0.4,0.2,0.7,0.4,1c0.2,0.3,0.4,0.6,0.7,0.8c0.3,0.2,0.7,0.3,1.1,0.3c0.7,0,1.2-0.2,1.5-0.6
		c0.4-0.4,0.6-0.9,0.7-1.5h2.7C62,38,61.5,39,60.6,39.7c-0.9,0.7-2,1.1-3.3,1.1c-0.8,0-1.5-0.1-2.1-0.4s-1.2-0.6-1.6-1.1
		s-0.8-1-1-1.6s-0.4-1.3-0.4-2.1c0-0.8,0.1-1.5,0.3-2.2c0.2-0.7,0.6-1.3,1-1.8c0.4-0.5,1-0.9,1.6-1.2s1.4-0.4,2.2-0.4
		c0.6,0,1.2,0.1,1.7,0.2c0.6,0.2,1.1,0.4,1.5,0.7c0.4,0.3,0.8,0.7,1.1,1.2c0.3,0.5,0.4,1,0.5,1.7h-2.7
		C59.2,32.8,58.5,32.2,57.4,32.2z"/>
	<path class="st0" d="M63.7,33.5c0-0.7,0.2-1.2,0.5-1.6c0.3-0.4,0.7-0.8,1.1-1c0.4-0.3,0.9-0.4,1.5-0.6c0.6-0.1,1.1-0.2,1.7-0.2
		c0.5,0,1,0,1.6,0.1c0.5,0.1,1,0.2,1.4,0.4s0.8,0.5,1.1,0.9c0.3,0.4,0.4,0.9,0.4,1.5v5.3c0,0.5,0,0.9,0.1,1.3
		c0.1,0.4,0.1,0.7,0.3,0.9h-2.8c-0.1-0.2-0.1-0.3-0.1-0.5s-0.1-0.3-0.1-0.5c-0.4,0.5-1,0.8-1.6,1s-1.2,0.3-1.8,0.3
		c-0.5,0-0.9-0.1-1.4-0.2c-0.4-0.1-0.8-0.3-1.1-0.6s-0.6-0.6-0.7-0.9c-0.2-0.4-0.3-0.8-0.3-1.4c0-0.6,0.1-1.1,0.3-1.4
		c0.2-0.4,0.5-0.7,0.8-0.9s0.7-0.4,1.1-0.5c0.4-0.1,0.8-0.2,1.2-0.3c0.4-0.1,0.8-0.1,1.2-0.2c0.4,0,0.8-0.1,1.1-0.2
		c0.3-0.1,0.6-0.2,0.7-0.3s0.3-0.4,0.3-0.7c0-0.3,0-0.5-0.1-0.7c-0.1-0.2-0.2-0.3-0.4-0.4c-0.2-0.1-0.4-0.2-0.6-0.2
		c-0.2,0-0.4,0-0.7,0c-0.6,0-1,0.1-1.3,0.4c-0.3,0.2-0.5,0.6-0.6,1.2H63.7z M70.1,35.6c-0.1,0.1-0.3,0.2-0.4,0.2s-0.4,0.1-0.6,0.1
		s-0.4,0.1-0.6,0.1c-0.2,0-0.4,0.1-0.7,0.1c-0.2,0-0.4,0.1-0.6,0.2c-0.2,0.1-0.4,0.2-0.5,0.3c-0.2,0.1-0.3,0.3-0.4,0.4
		c-0.1,0.2-0.1,0.4-0.1,0.6c0,0.2,0,0.5,0.1,0.6c0.1,0.2,0.2,0.3,0.4,0.4c0.2,0.1,0.3,0.2,0.6,0.2c0.2,0,0.4,0.1,0.6,0.1
		c0.6,0,1-0.1,1.3-0.3c0.3-0.2,0.5-0.4,0.7-0.7c0.1-0.3,0.2-0.5,0.3-0.8c0-0.3,0-0.5,0-0.6V35.6z"/>
	<path class="st0" d="M77.7,30.4v1.9h0c0.1-0.3,0.3-0.6,0.5-0.9c0.2-0.3,0.5-0.5,0.8-0.7c0.3-0.2,0.6-0.3,0.9-0.4
		c0.3-0.1,0.7-0.2,1-0.2c0.2,0,0.4,0,0.6,0.1v2.6c-0.1,0-0.3,0-0.5-0.1s-0.4,0-0.5,0c-0.5,0-0.9,0.1-1.3,0.3
		c-0.4,0.2-0.6,0.4-0.9,0.7s-0.4,0.6-0.5,1c-0.1,0.4-0.1,0.8-0.1,1.3v4.6h-2.8V30.4H77.7z"/>
	<path class="st0" d="M85.4,30.4v1.9h0c0.1-0.3,0.3-0.6,0.5-0.9c0.2-0.3,0.5-0.5,0.8-0.7c0.3-0.2,0.6-0.3,0.9-0.4
		c0.3-0.1,0.7-0.2,1-0.2c0.2,0,0.4,0,0.6,0.1v2.6c-0.1,0-0.3,0-0.5-0.1s-0.4,0-0.5,0c-0.5,0-0.9,0.1-1.3,0.3
		c-0.4,0.2-0.6,0.4-0.9,0.7s-0.4,0.6-0.5,1c-0.1,0.4-0.1,0.8-0.1,1.3v4.6h-2.8V30.4H85.4z"/>
	<path class="st0" d="M94.1,43.6c-0.5,0.4-1.3,0.5-2.2,0.5c-0.3,0-0.6,0-0.9,0s-0.6,0-0.9-0.1v-2.3c0.3,0,0.5,0.1,0.8,0.1
		c0.3,0,0.6,0,0.8,0c0.4,0,0.6-0.2,0.8-0.4c0.2-0.2,0.3-0.5,0.3-0.8c0-0.2,0-0.4-0.1-0.6l-3.6-9.5h3l2.3,7h0l2.2-7h2.9l-4.2,11.4
		C95.1,42.6,94.7,43.2,94.1,43.6z"/>
	<path class="st0" d="M116.2,26.5v2.6h-6.8v3.2h5.9v2.4h-5.9v5.8h-3.1v-14H116.2z"/>
	<path class="st0" d="M121.1,26.5v11.4h6.8v2.6H118v-14H121.1z"/>
	<path class="st0" d="M129.5,30.7c0.3-0.9,0.8-1.7,1.4-2.3c0.6-0.7,1.3-1.2,2.2-1.6s1.8-0.6,2.9-0.6c1.1,0,2.1,0.2,2.9,0.6
		c0.9,0.4,1.6,0.9,2.2,1.6c0.6,0.7,1,1.5,1.4,2.3c0.3,0.9,0.5,1.9,0.5,2.9c0,1-0.2,2-0.5,2.9s-0.8,1.7-1.4,2.3s-1.3,1.2-2.2,1.5
		c-0.9,0.4-1.8,0.6-2.9,0.6c-1.1,0-2-0.2-2.9-0.6c-0.9-0.4-1.6-0.9-2.2-1.5s-1-1.4-1.4-2.3c-0.3-0.9-0.5-1.8-0.5-2.9
		C129,32.5,129.2,31.6,129.5,30.7z M132.3,35.3c0.1,0.6,0.4,1.1,0.7,1.5c0.3,0.4,0.7,0.8,1.2,1.1s1.1,0.4,1.8,0.4s1.3-0.1,1.8-0.4
		s0.9-0.6,1.2-1.1c0.3-0.4,0.5-0.9,0.7-1.5c0.1-0.6,0.2-1.1,0.2-1.7c0-0.6-0.1-1.2-0.2-1.8s-0.4-1.1-0.7-1.5
		c-0.3-0.5-0.7-0.8-1.2-1.1s-1.1-0.4-1.8-0.4s-1.3,0.1-1.8,0.4s-0.9,0.6-1.2,1.1c-0.3,0.5-0.5,1-0.7,1.5c-0.1,0.6-0.2,1.2-0.2,1.8
		C132.1,34.2,132.2,34.7,132.3,35.3z"/>
	<path class="st0" d="M147.3,37.1c0.2,0.3,0.4,0.6,0.7,0.8c0.3,0.2,0.6,0.4,1,0.5c0.4,0.1,0.8,0.1,1.2,0.1c0.3,0,0.6,0,0.9-0.1
		s0.6-0.1,0.9-0.3s0.5-0.3,0.7-0.5s0.3-0.5,0.3-0.9c0-0.4-0.1-0.7-0.4-0.9c-0.2-0.2-0.6-0.4-1-0.6s-0.8-0.3-1.3-0.4s-1-0.2-1.5-0.4
		c-0.5-0.1-1-0.3-1.5-0.5c-0.5-0.2-0.9-0.4-1.3-0.7c-0.4-0.3-0.7-0.7-1-1.1c-0.2-0.5-0.4-1-0.4-1.6c0-0.7,0.2-1.3,0.5-1.9
		c0.3-0.5,0.7-1,1.2-1.3c0.5-0.4,1.1-0.6,1.7-0.8c0.6-0.2,1.3-0.3,1.9-0.3c0.7,0,1.4,0.1,2.1,0.2c0.7,0.2,1.3,0.4,1.8,0.8
		s0.9,0.8,1.2,1.4c0.3,0.6,0.5,1.3,0.5,2.1h-3c0-0.4-0.1-0.8-0.3-1c-0.2-0.3-0.4-0.5-0.6-0.6s-0.5-0.3-0.9-0.3s-0.7-0.1-1.1-0.1
		c-0.2,0-0.5,0-0.7,0.1c-0.2,0.1-0.5,0.1-0.7,0.3c-0.2,0.1-0.4,0.3-0.5,0.5c-0.1,0.2-0.2,0.4-0.2,0.7c0,0.3,0.1,0.5,0.2,0.7
		c0.1,0.2,0.3,0.3,0.6,0.5c0.3,0.1,0.7,0.3,1.3,0.4c0.5,0.1,1.3,0.3,2.1,0.6c0.3,0.1,0.6,0.1,1.1,0.3c0.5,0.1,0.9,0.4,1.4,0.7
		c0.5,0.3,0.9,0.7,1.2,1.2c0.3,0.5,0.5,1.2,0.5,1.9c0,0.6-0.1,1.2-0.4,1.8c-0.2,0.6-0.6,1-1.1,1.4c-0.5,0.4-1.1,0.7-1.8,0.9
		s-1.6,0.3-2.5,0.3c-0.8,0-1.5-0.1-2.3-0.3c-0.7-0.2-1.4-0.5-1.9-0.9c-0.6-0.4-1-0.9-1.3-1.6c-0.3-0.6-0.5-1.4-0.5-2.2h3
		C147,36.4,147.1,36.8,147.3,37.1z"/>
	<path class="st0" d="M160.1,37.1c0.2,0.3,0.4,0.6,0.7,0.8c0.3,0.2,0.6,0.4,1,0.5c0.4,0.1,0.8,0.1,1.2,0.1c0.3,0,0.6,0,0.9-0.1
		s0.6-0.1,0.9-0.3s0.5-0.3,0.7-0.5s0.3-0.5,0.3-0.9c0-0.4-0.1-0.7-0.4-0.9c-0.2-0.2-0.6-0.4-1-0.6s-0.8-0.3-1.3-0.4s-1-0.2-1.5-0.4
		c-0.5-0.1-1-0.3-1.5-0.5c-0.5-0.2-0.9-0.4-1.3-0.7c-0.4-0.3-0.7-0.7-1-1.1c-0.2-0.5-0.4-1-0.4-1.6c0-0.7,0.2-1.3,0.5-1.9
		c0.3-0.5,0.7-1,1.2-1.3c0.5-0.4,1.1-0.6,1.7-0.8c0.6-0.2,1.3-0.3,1.9-0.3c0.7,0,1.4,0.1,2.1,0.2c0.7,0.2,1.3,0.4,1.8,0.8
		s0.9,0.8,1.2,1.4c0.3,0.6,0.5,1.3,0.5,2.1h-3c0-0.4-0.1-0.8-0.3-1c-0.2-0.3-0.4-0.5-0.6-0.6s-0.5-0.3-0.9-0.3s-0.7-0.1-1.1-0.1
		c-0.2,0-0.5,0-0.7,0.1c-0.2,0.1-0.5,0.1-0.7,0.3c-0.2,0.1-0.4,0.3-0.5,0.5c-0.1,0.2-0.2,0.4-0.2,0.7c0,0.3,0.1,0.5,0.2,0.7
		c0.1,0.2,0.3,0.3,0.6,0.5c0.3,0.1,0.7,0.3,1.3,0.4c0.5,0.1,1.3,0.3,2.1,0.6c0.3,0.1,0.6,0.1,1.1,0.3c0.5,0.1,0.9,0.4,1.4,0.7
		c0.5,0.3,0.9,0.7,1.2,1.2c0.3,0.5,0.5,1.2,0.5,1.9c0,0.6-0.1,1.2-0.4,1.8c-0.2,0.6-0.6,1-1.1,1.4c-0.5,0.4-1.1,0.7-1.8,0.9
		s-1.6,0.3-2.5,0.3c-0.8,0-1.5-0.1-2.3-0.3c-0.7-0.2-1.4-0.5-1.9-0.9c-0.6-0.4-1-0.9-1.3-1.6c-0.3-0.6-0.5-1.4-0.5-2.2h3
		C159.8,36.4,159.9,36.8,160.1,37.1z"/>
</g>
</svg>
