<?xml version="1.0" encoding="utf-8"?>
<!-- Generator: Adobe Illustrator 25.4.1, SVG Export Plug-In . SVG Version: 6.00 Build 0)  -->
<svg version="1.1" id="Layer_1" xmlns="http://www.w3.org/2000/svg" xmlns:xlink="http://www.w3.org/1999/xlink" x="0px" y="0px"
	 viewBox="0 0 300 50" style="enable-background:new 0 0 300 50;" xml:space="preserve">
<style type="text/css">
	.st0{clip-path:url(#SVGID_00000020366608215892943220000015435284035386323860_);fill:#349946;}
	.st1{fill:#FFFFFF;}
</style>
<g>
	<defs>
		<rect id="SVGID_1_" x="202.1" y="6.3" width="68.6" height="14.5"/>
	</defs>
	<clipPath id="SVGID_00000080915190570218554450000014948641509424952229_">
		<use xlink:href="#SVGID_1_"  style="overflow:visible;"/>
	</clipPath>
	<path style="clip-path:url(#SVGID_00000080915190570218554450000014948641509424952229_);fill:#349946;" d="M270.7,13.5
		c0,4-3.7,7.2-8.3,7.2h-52c-4.6,0-8.3-3.3-8.3-7.2s3.7-7.2,8.3-7.2h52C267,6.3,270.7,9.5,270.7,13.5"/>
</g>
<g>
	<path class="st1" d="M216.8,15.9l-0.8-3.1h0l-0.8,3.1h-1l-1.2-4.6h1l0.7,3.1h0l0.8-3.1h1l0.8,3.2h0l0.8-3.2h1l-1.2,4.6H216.8z"/>
	<path class="st1" d="M221.7,11.3l1.7,4.6h-1.1l-0.3-1h-1.7l-0.4,1h-1l1.7-4.6H221.7z M221.7,14.2l-0.6-1.7h0l-0.6,1.7H221.7z"/>
</g>
<g>
	<path class="st1" d="M222.8,12.2v-0.9h3.8v0.9h-1.4v3.8h-1v-3.8H222.8z"/>
	<path class="st1" d="M230.1,12.6c-0.1-0.1-0.1-0.2-0.2-0.3c-0.1-0.1-0.2-0.1-0.3-0.2s-0.2-0.1-0.4-0.1c-0.2,0-0.4,0-0.6,0.1
		c-0.2,0.1-0.3,0.2-0.4,0.4c-0.1,0.1-0.2,0.3-0.2,0.5c0,0.2-0.1,0.4-0.1,0.6c0,0.2,0,0.4,0.1,0.6c0,0.2,0.1,0.3,0.2,0.5
		c0.1,0.1,0.2,0.3,0.4,0.4s0.4,0.1,0.6,0.1c0.3,0,0.6-0.1,0.7-0.3c0.2-0.2,0.3-0.4,0.3-0.8h1c0,0.3-0.1,0.5-0.2,0.8
		c-0.1,0.2-0.2,0.4-0.4,0.6c-0.2,0.2-0.4,0.3-0.6,0.4s-0.5,0.1-0.8,0.1c-0.4,0-0.7-0.1-1-0.2c-0.3-0.1-0.5-0.3-0.7-0.5
		c-0.2-0.2-0.3-0.5-0.4-0.8c-0.1-0.3-0.2-0.6-0.2-0.9c0-0.3,0.1-0.7,0.2-1c0.1-0.3,0.3-0.6,0.4-0.8c0.2-0.2,0.4-0.4,0.7-0.5
		c0.3-0.1,0.6-0.2,1-0.2c0.3,0,0.5,0,0.7,0.1s0.4,0.2,0.6,0.3s0.3,0.3,0.4,0.5c0.1,0.2,0.2,0.4,0.2,0.7h-1
		C230.2,12.8,230.2,12.7,230.1,12.6z"/>
	<path class="st1" d="M232.9,11.3v1.8h1.9v-1.8h1v4.6h-1v-2h-1.9v2h-1v-4.6H232.9z"/>
	<path class="st1" d="M241.3,15.9l-1.5-4.6h1l1,3.2h0l1-3.2h1l-1.5,4.6H241.3z"/>
	<path class="st1" d="M245.4,11.3v4.6h-1v-4.6H245.4z"/>
	<path class="st1" d="M248.3,11.3c0.3,0,0.6,0,0.8,0.1s0.5,0.2,0.7,0.4c0.2,0.2,0.3,0.4,0.4,0.7c0.1,0.3,0.2,0.6,0.2,1
		c0,0.3,0,0.6-0.1,0.9c-0.1,0.3-0.2,0.5-0.4,0.7c-0.2,0.2-0.4,0.4-0.7,0.5s-0.6,0.2-0.9,0.2h-2v-4.6H248.3z M248.2,15.1
		c0.1,0,0.3,0,0.4-0.1c0.1,0,0.3-0.1,0.4-0.2s0.2-0.3,0.3-0.4c0.1-0.2,0.1-0.4,0.1-0.6c0-0.2,0-0.4-0.1-0.6c0-0.2-0.1-0.3-0.2-0.5
		c-0.1-0.1-0.2-0.2-0.4-0.3c-0.2-0.1-0.4-0.1-0.6-0.1h-0.7v2.9H248.2z"/>
	<path class="st1" d="M254.5,11.3v0.9h-2.4v1h2.2V14h-2.2v1.1h2.5v0.9h-3.5v-4.6H254.5z"/>
	<path class="st1" d="M255.2,12.7c0.1-0.3,0.3-0.6,0.4-0.8c0.2-0.2,0.4-0.4,0.7-0.5c0.3-0.1,0.6-0.2,1-0.2c0.4,0,0.7,0.1,1,0.2
		c0.3,0.1,0.5,0.3,0.7,0.5c0.2,0.2,0.3,0.5,0.4,0.8c0.1,0.3,0.2,0.6,0.2,1c0,0.3-0.1,0.6-0.2,0.9c-0.1,0.3-0.3,0.5-0.4,0.8
		c-0.2,0.2-0.4,0.4-0.7,0.5c-0.3,0.1-0.6,0.2-1,0.2c-0.4,0-0.7-0.1-1-0.2c-0.3-0.1-0.5-0.3-0.7-0.5c-0.2-0.2-0.3-0.5-0.4-0.8
		c-0.1-0.3-0.2-0.6-0.2-0.9C255.1,13.3,255.1,13,255.2,12.7z M256.2,14.2c0,0.2,0.1,0.3,0.2,0.5c0.1,0.1,0.2,0.3,0.4,0.4
		s0.4,0.1,0.6,0.1s0.4,0,0.6-0.1c0.2-0.1,0.3-0.2,0.4-0.4c0.1-0.1,0.2-0.3,0.2-0.5c0-0.2,0.1-0.4,0.1-0.6c0-0.2,0-0.4-0.1-0.6
		c0-0.2-0.1-0.4-0.2-0.5c-0.1-0.1-0.2-0.3-0.4-0.4c-0.2-0.1-0.4-0.1-0.6-0.1s-0.4,0-0.6,0.1c-0.2,0.1-0.3,0.2-0.4,0.4
		c-0.1,0.1-0.2,0.3-0.2,0.5c0,0.2-0.1,0.4-0.1,0.6C256.1,13.9,256.1,14,256.2,14.2z"/>
</g>
</svg>
