<?xml version="1.0" encoding="utf-8"?>
<!-- Generator: Adobe Illustrator 25.4.1, SVG Export Plug-In . SVG Version: 6.00 Build 0)  -->
<svg version="1.1" id="Layer_1" xmlns="http://www.w3.org/2000/svg" xmlns:xlink="http://www.w3.org/1999/xlink" x="0px" y="0px"
	 viewBox="0 0 300 50" style="enable-background:new 0 0 300 50;" xml:space="preserve">
<style type="text/css">
	.st0{fill:#349946;}
	.st1{fill:#231F20;}
</style>
<path class="st0" d="M185.3,45.3H184l-0.4-1.2h-2.5l-0.4,1.2h-1.3l2.2-5.9h0.9c0.3,0,0.5,0.1,0.6,0.3c0.1,0.2,1.1,2.9,1.1,2.9h-1.2
	l-0.7-2l-0.9,2.5h2.6c0.3,0,0.5,0.1,0.6,0.4L185.3,45.3z"/>
<path class="st0" d="M196.5,45.3h-1.3l-0.4-1.2h-2.5l-0.4,1.2h-1.3l2.2-5.9h0.9c0.3,0,0.5,0.1,0.6,0.3c0.1,0.2,1.1,2.9,1.1,2.9h-1.2
	l-0.7-2l-0.9,2.5h2.6c0.3,0,0.5,0.1,0.6,0.4L196.5,45.3z"/>
<path class="st0" d="M185.7,39.3h2.3c1.8,0,2.7,1,2.7,3c0,1.1-0.3,1.9-1,2.4c-0.6,0.5-1.2,0.5-2.1,0.5h-2V39.3z M187.9,44.2
	c1.1,0,1.6-0.6,1.6-1.9c0-1.3-0.5-1.9-1.5-1.9h-1.1v3.8H187.9z"/>
<g>
	<path class="st1" d="M206.6,45.2h-0.9l-0.4-4.2l-1.4,4.2H203l-1.5-4.2l-0.3,4.2h-0.9l0.5-5.6h1.1l1.5,4.3l1.5-4.3h1.1L206.6,45.2z"
		/>
	<path class="st1" d="M211.2,43.1c0,0,0,0.1,0,0.2c0,0.1,0,0.1,0,0.1h-2.8c0,0.3,0.1,0.5,0.3,0.8c0.2,0.3,0.5,0.4,0.9,0.4
		c0.3,0,0.7-0.1,1.1-0.3l0.3,0.6c-0.4,0.3-0.9,0.4-1.5,0.4c-0.6,0-1.1-0.2-1.5-0.6c-0.3-0.4-0.5-0.9-0.5-1.5c0-0.6,0.2-1.2,0.5-1.6
		c0.4-0.4,0.8-0.6,1.4-0.6c0.6,0,1,0.2,1.3,0.6C211,41.9,211.2,42.4,211.2,43.1z M210.3,42.7c0-0.3-0.1-0.5-0.2-0.7
		c-0.2-0.3-0.4-0.4-0.7-0.4c-0.3,0-0.5,0.1-0.7,0.3c-0.2,0.2-0.3,0.4-0.3,0.8H210.3z"/>
	<path class="st1" d="M217.9,45.2H217v-2.3c0-0.5-0.1-0.8-0.2-0.9c-0.1-0.1-0.3-0.2-0.5-0.2c-0.3,0-0.6,0.1-0.9,0.3
		c0,0.1,0.1,0.4,0.1,0.9v2.2h-0.9v-2.3c0-0.5-0.1-0.9-0.2-1c-0.1-0.1-0.3-0.2-0.5-0.2c-0.3,0-0.6,0.1-0.9,0.3v3.1h-0.9v-4.1h0.8v0.3
		c0.4-0.3,0.8-0.4,1.2-0.4c0.4,0,0.8,0.2,1,0.5c0.5-0.3,0.9-0.5,1.4-0.5c0.4,0,0.8,0.1,1,0.4c0.2,0.2,0.3,0.5,0.4,0.8
		c0,0.2,0.1,0.5,0.1,1V45.2z"/>
	<path class="st1" d="M222.7,43.1c0,0.7-0.2,1.2-0.6,1.6s-0.9,0.6-1.6,0.6c-0.5,0-1-0.1-1.6-0.3v-5.9h0.9v2.2
		c0.3-0.2,0.7-0.3,1.1-0.3c0.5,0,0.9,0.2,1.3,0.6C222.5,41.9,222.7,42.4,222.7,43.1z M221.7,43.1c0-0.4-0.1-0.7-0.3-1
		c-0.2-0.2-0.4-0.3-0.7-0.3c-0.3,0-0.6,0.1-0.9,0.3v2.4c0.2,0.1,0.5,0.1,0.7,0.1c0.4,0,0.7-0.1,0.9-0.4
		C221.6,43.9,221.7,43.5,221.7,43.1z"/>
	<path class="st1" d="M227.1,43.1c0,0,0,0.1,0,0.2c0,0.1,0,0.1,0,0.1h-2.8c0,0.3,0.1,0.5,0.3,0.8c0.2,0.3,0.5,0.4,0.9,0.4
		c0.3,0,0.7-0.1,1.1-0.3l0.3,0.6c-0.4,0.3-0.9,0.4-1.5,0.4c-0.6,0-1.1-0.2-1.5-0.6c-0.3-0.4-0.5-0.9-0.5-1.5c0-0.6,0.2-1.2,0.5-1.6
		c0.4-0.4,0.8-0.6,1.4-0.6c0.6,0,1,0.2,1.3,0.6C226.9,41.9,227.1,42.4,227.1,43.1z M226.2,42.7c0-0.3-0.1-0.5-0.2-0.7
		c-0.2-0.3-0.4-0.4-0.7-0.4c-0.3,0-0.5,0.1-0.7,0.3c-0.2,0.2-0.3,0.4-0.3,0.8H226.2z"/>
	<path class="st1" d="M230.6,41.1l-0.2,0.7c-0.1,0-0.2,0-0.3,0c-0.5,0-0.9,0.2-1.2,0.6v2.8H228v-4.1h0.8v0.5
		c0.1-0.1,0.2-0.2,0.4-0.3c0.3-0.2,0.6-0.3,1-0.3C230.3,41,230.4,41,230.6,41.1z"/>
</g>
<g>
	<path class="st1" d="M233.9,44c0,0.4-0.1,0.7-0.4,0.9c-0.3,0.2-0.7,0.3-1.1,0.3c-0.4,0-0.7-0.1-1.1-0.2c-0.2-0.1-0.4-0.2-0.4-0.2
		l0.3-0.6c0.4,0.2,0.8,0.3,1.1,0.3c0.2,0,0.4,0,0.5-0.1c0.1-0.1,0.2-0.2,0.2-0.4c0-0.1-0.1-0.3-0.2-0.4c-0.1-0.1-0.3-0.2-0.6-0.3
		c-0.3-0.1-0.6-0.3-0.7-0.4c-0.2-0.2-0.4-0.5-0.4-0.8c0-0.4,0.1-0.7,0.4-0.9c0.3-0.2,0.6-0.3,1.1-0.3c0.6,0,1,0.1,1.3,0.4l-0.3,0.6
		c-0.3-0.2-0.6-0.3-1-0.3c-0.4,0-0.7,0.2-0.7,0.5c0,0.1,0.1,0.2,0.2,0.3c0.1,0.1,0.3,0.1,0.5,0.3c0.4,0.2,0.7,0.3,0.8,0.4
		C233.8,43.4,233.9,43.7,233.9,44z"/>
	<path class="st1" d="M238,45.2h-1v-5.6h1V45.2z"/>
	<path class="st1" d="M242.6,45.2h-0.9V43c0-0.5-0.1-0.9-0.2-1c-0.1-0.1-0.3-0.2-0.5-0.2c-0.3,0-0.6,0.1-0.9,0.3v3.1h-0.9v-4.1h0.8
		v0.3c0.4-0.3,0.8-0.4,1.2-0.4c0.4,0,0.8,0.1,1,0.4c0.2,0.2,0.3,0.4,0.4,0.7c0,0.2,0,0.4,0,0.8V45.2z"/>
	<path class="st1" d="M246.4,44c0,0.4-0.1,0.7-0.4,0.9c-0.3,0.2-0.7,0.3-1.1,0.3c-0.4,0-0.7-0.1-1.1-0.2c-0.2-0.1-0.4-0.2-0.4-0.2
		l0.3-0.6c0.4,0.2,0.8,0.3,1.1,0.3c0.2,0,0.4,0,0.5-0.1c0.1-0.1,0.2-0.2,0.2-0.4c0-0.1-0.1-0.3-0.2-0.4c-0.1-0.1-0.3-0.2-0.6-0.3
		c-0.3-0.1-0.6-0.3-0.7-0.4c-0.2-0.2-0.4-0.5-0.4-0.8c0-0.4,0.1-0.7,0.4-0.9c0.3-0.2,0.6-0.3,1.1-0.3c0.6,0,1,0.1,1.3,0.4l-0.3,0.6
		c-0.3-0.2-0.6-0.3-1-0.3c-0.4,0-0.7,0.2-0.7,0.5c0,0.1,0.1,0.2,0.2,0.3c0.1,0.1,0.3,0.1,0.5,0.3c0.4,0.2,0.7,0.3,0.8,0.4
		C246.3,43.4,246.4,43.7,246.4,44z"/>
	<path class="st1" d="M250.8,45.2H250v-0.3c-0.4,0.3-0.8,0.4-1.2,0.4c-0.4,0-0.8-0.1-1-0.4c-0.2-0.2-0.3-0.4-0.4-0.7
		c0-0.2-0.1-0.4-0.1-0.8v-2.3h0.9v2.2c0,0.3,0,0.5,0,0.6c0,0.2,0.1,0.4,0.2,0.5c0.1,0.1,0.3,0.1,0.5,0.1c0.2,0,0.5-0.1,0.9-0.3v-3.1
		h0.9V45.2z"/>
	<path class="st1" d="M254.5,41.1l-0.2,0.7c-0.1,0-0.2,0-0.3,0c-0.5,0-0.9,0.2-1.2,0.6v2.8h-0.9v-4.1h0.8v0.5
		c0.1-0.1,0.2-0.2,0.4-0.3c0.3-0.2,0.6-0.3,1-0.3C254.2,41,254.3,41,254.5,41.1z"/>
</g>
<g>
	<path class="st1" d="M258.1,45.2h-0.8v-0.3c-0.4,0.3-0.8,0.4-1.2,0.4c-0.4,0-0.7-0.1-1-0.4s-0.4-0.6-0.4-0.9c0-1,0.8-1.4,2.3-1.4
		h0.2v-0.2c0-0.3,0-0.4-0.1-0.5c-0.1-0.1-0.3-0.2-0.7-0.2c-0.4,0-0.7,0.1-1.1,0.3l-0.3-0.6c0.1-0.1,0.2-0.2,0.4-0.2
		c0.3-0.1,0.7-0.2,1.1-0.2c0.6,0,1,0.1,1.3,0.4c0.1,0.1,0.2,0.3,0.3,0.5c0,0.1,0,0.4,0,0.7V45.2z M257.2,44.3v-1.1H257
		c-0.6,0-1.1,0.1-1.3,0.3c-0.1,0.1-0.2,0.2-0.2,0.4c0,0.2,0.1,0.4,0.2,0.5c0.1,0.1,0.3,0.2,0.5,0.2
		C256.6,44.6,256.9,44.5,257.2,44.3z"/>
	<path class="st1" d="M262.6,45.2h-0.9V43c0-0.5-0.1-0.9-0.2-1c-0.1-0.1-0.3-0.2-0.5-0.2c-0.3,0-0.6,0.1-0.9,0.3v3.1h-0.9v-4.1h0.8
		v0.3c0.4-0.3,0.8-0.4,1.2-0.4c0.4,0,0.8,0.1,1,0.4c0.2,0.2,0.3,0.4,0.4,0.7c0,0.2,0,0.4,0,0.8V45.2z"/>
	<path class="st1" d="M266.9,44.8c-0.1,0.1-0.2,0.2-0.4,0.3c-0.3,0.2-0.7,0.2-1.1,0.2c-0.6,0-1.1-0.2-1.5-0.6
		c-0.4-0.4-0.6-0.9-0.6-1.5c0-0.6,0.2-1.2,0.6-1.6c0.4-0.4,0.9-0.6,1.5-0.6c0.3,0,0.7,0.1,1,0.2c0.2,0.1,0.3,0.2,0.4,0.3l-0.4,0.6
		c-0.3-0.2-0.6-0.3-0.9-0.3c-0.4,0-0.7,0.1-0.9,0.4c-0.2,0.3-0.3,0.6-0.3,1c0,0.4,0.1,0.8,0.3,1s0.5,0.4,0.9,0.4
		c0.3,0,0.7-0.1,1-0.3L266.9,44.8z"/>
</g>
<g>
	<path class="st1" d="M271.1,43.1c0,0,0,0.1,0,0.2c0,0.1,0,0.1,0,0.1h-2.8c0,0.3,0.1,0.5,0.3,0.8c0.2,0.3,0.5,0.4,0.9,0.4
		c0.3,0,0.7-0.1,1.1-0.3l0.3,0.6c-0.4,0.3-0.9,0.4-1.5,0.4c-0.6,0-1.1-0.2-1.5-0.6c-0.3-0.4-0.5-0.9-0.5-1.5c0-0.6,0.2-1.2,0.5-1.6
		c0.4-0.4,0.8-0.6,1.4-0.6c0.6,0,1,0.2,1.3,0.6C270.9,41.9,271.1,42.4,271.1,43.1z M270.2,42.7c0-0.3-0.1-0.5-0.2-0.7
		c-0.2-0.3-0.4-0.4-0.7-0.4c-0.3,0-0.5,0.1-0.7,0.3c-0.2,0.2-0.3,0.4-0.3,0.8H270.2z"/>
	<path class="st1" d="M277.8,41.3c0,0.5-0.2,0.9-0.5,1.3c-0.2,0.2-0.5,0.4-0.9,0.5c-0.2,0-0.6,0.1-1,0.1H275v2.1h-1v-5.6h1.5
		c0.5,0,0.8,0,1,0.1c0.3,0.1,0.6,0.2,0.8,0.4C277.7,40.4,277.8,40.8,277.8,41.3z M276.8,41.3c0-0.3-0.1-0.5-0.3-0.7
		c-0.2-0.2-0.5-0.2-1-0.2H275v1.9h0.4c0.6,0,1-0.1,1.2-0.3S276.8,41.6,276.8,41.3z"/>
	<path class="st1" d="M279.7,45.2h-0.9v-6.1h0.9V45.2z"/>
	<path class="st1" d="M283.9,45.2h-0.8v-0.3c-0.4,0.3-0.8,0.4-1.2,0.4c-0.4,0-0.7-0.1-1-0.4s-0.4-0.6-0.4-0.9c0-1,0.8-1.4,2.3-1.4
		h0.2v-0.2c0-0.3,0-0.4-0.1-0.5c-0.1-0.1-0.3-0.2-0.7-0.2c-0.4,0-0.7,0.1-1.1,0.3l-0.3-0.6c0.1-0.1,0.2-0.2,0.4-0.2
		c0.3-0.1,0.7-0.2,1.1-0.2c0.6,0,1,0.1,1.3,0.4c0.1,0.1,0.2,0.3,0.3,0.5c0,0.1,0,0.4,0,0.7V45.2z M283.1,44.3v-1.1h-0.2
		c-0.6,0-1.1,0.1-1.3,0.3c-0.1,0.1-0.2,0.2-0.2,0.4c0,0.2,0.1,0.4,0.2,0.5c0.1,0.1,0.3,0.2,0.5,0.2
		C282.4,44.6,282.7,44.5,283.1,44.3z"/>
	<path class="st1" d="M288.4,45.2h-0.9V43c0-0.5-0.1-0.9-0.2-1c-0.1-0.1-0.3-0.2-0.5-0.2c-0.3,0-0.6,0.1-0.9,0.3v3.1H285v-4.1h0.8
		v0.3c0.4-0.3,0.8-0.4,1.2-0.4c0.4,0,0.8,0.1,1,0.4c0.2,0.2,0.3,0.4,0.4,0.7c0,0.2,0,0.4,0,0.8V45.2z"/>
	<path class="st1" d="M292.2,44c0,0.4-0.1,0.7-0.4,0.9c-0.3,0.2-0.7,0.3-1.1,0.3c-0.4,0-0.7-0.1-1.1-0.2c-0.2-0.1-0.4-0.2-0.4-0.2
		l0.3-0.6c0.4,0.2,0.8,0.3,1.1,0.3c0.2,0,0.4,0,0.5-0.1c0.1-0.1,0.2-0.2,0.2-0.4c0-0.1-0.1-0.3-0.2-0.4c-0.1-0.1-0.3-0.2-0.6-0.3
		c-0.3-0.1-0.6-0.3-0.7-0.4c-0.2-0.2-0.4-0.5-0.4-0.8c0-0.4,0.1-0.7,0.4-0.9c0.3-0.2,0.6-0.3,1.1-0.3c0.6,0,1,0.1,1.3,0.4l-0.3,0.6
		c-0.3-0.2-0.6-0.3-1-0.3c-0.4,0-0.7,0.2-0.7,0.5c0,0.1,0.1,0.2,0.2,0.3c0.1,0.1,0.3,0.1,0.5,0.3c0.4,0.2,0.7,0.3,0.8,0.4
		C292.1,43.4,292.2,43.7,292.2,44z"/>
</g>
<path class="st0" d="M197.4,45.3c-0.4,0-0.7-0.3-0.7-0.7s0.3-0.7,0.7-0.7c0.4,0,0.7,0.3,0.7,0.7S197.8,45.3,197.4,45.3 M197.4,44.1
	c-0.3,0-0.5,0.2-0.5,0.5s0.2,0.5,0.5,0.5c0.3,0,0.5-0.2,0.5-0.5S197.7,44.1,197.4,44.1 M197.5,44.9l-0.1-0.2c0-0.1-0.1-0.1-0.2-0.1
	h0v0.3h-0.1v-0.7h0.2c0.1,0,0.2,0,0.2,0.1c0,0,0.1,0.1,0.1,0.2c0,0.1,0,0.1-0.1,0.2c0,0,0.1,0.1,0.1,0.1l0.1,0.3H197.5z M197.4,44.3
	c0,0-0.1,0-0.1,0h-0.1v0.2c0,0,0.1,0,0.1,0C197.5,44.5,197.5,44.5,197.4,44.3C197.5,44.4,197.5,44.4,197.4,44.3"/>
</svg>
