<?xml version="1.0" encoding="utf-8"?>
<!-- Generator: Adobe Illustrator 25.4.1, SVG Export Plug-In . SVG Version: 6.00 Build 0)  -->
<svg version="1.1" id="Layer_1" xmlns="http://www.w3.org/2000/svg" xmlns:xlink="http://www.w3.org/1999/xlink" x="0px" y="0px"
	 viewBox="0 0 300 50" style="enable-background:new 0 0 300 50;" xml:space="preserve">
<style type="text/css">
	.st0{clip-path:url(#SVGID_00000078044028599671531330000002560744423022863504_);fill:#231F20;}
	.st1{clip-path:url(#SVGID_00000078044028599671531330000002560744423022863504_);fill:#22B0E6;}
</style>
<g>
	<defs>
		<rect id="SVGID_1_" x="216.9" y="23.8" width="37.9" height="12.9"/>
	</defs>
	<clipPath id="SVGID_00000106108370865279214240000003306811762895189151_">
		<use xlink:href="#SVGID_1_"  style="overflow:visible;"/>
	</clipPath>
	<path style="clip-path:url(#SVGID_00000106108370865279214240000003306811762895189151_);fill:#231F20;" d="M217.1,30.7h2
		c1.6,0,1.9,1,1.9,1.7c0,0.7-0.3,1.7-1.9,1.7h-1v2.2h-1V30.7z M218.1,33.4h1c0.4,0,1-0.2,1-0.9c0-0.7-0.4-0.9-1-0.9h-1V33.4z"/>
	<path style="clip-path:url(#SVGID_00000106108370865279214240000003306811762895189151_);fill:#231F20;" d="M221.7,32.3h0.8v0.8h0
		c0.1-0.4,0.6-0.9,1.2-0.9c0.2,0,0.3,0,0.3,0V33c-0.1,0-0.3,0-0.4,0c-0.6,0-1.1,0.5-1.1,1.4v1.9h-0.9V32.3z"/>
	<path style="clip-path:url(#SVGID_00000106108370865279214240000003306811762895189151_);fill:#231F20;" d="M224.2,34.3
		c0-1.2,0.8-2.1,2.1-2.1c1.3,0,2.1,0.9,2.1,2.1c0,1.3-0.8,2.2-2.1,2.2C225,36.5,224.2,35.6,224.2,34.3 M227.4,34.3
		c0-0.7-0.4-1.4-1.2-1.4c-0.8,0-1.2,0.7-1.2,1.4c0,0.7,0.4,1.4,1.2,1.4C227.1,35.7,227.4,35,227.4,34.3"/>
	<path style="clip-path:url(#SVGID_00000106108370865279214240000003306811762895189151_);fill:#231F20;" d="M228.4,32.3h0.7V31h0.9
		v1.2h0.8v0.7H230v2.2c0,0.4,0,0.6,0.4,0.6c0.1,0,0.3,0,0.4,0v0.7c-0.2,0-0.4,0-0.6,0c-0.9,0-1.1-0.4-1.1-1v-2.4h-0.7V32.3z"/>
	<path style="clip-path:url(#SVGID_00000106108370865279214240000003306811762895189151_);fill:#231F20;" d="M232.1,34.5
		c0,0.6,0.3,1.2,1.1,1.2c0.5,0,0.8-0.2,1-0.7h0.9c-0.2,0.9-1,1.4-1.9,1.4c-1.3,0-2-0.9-2-2.1c0-1.2,0.8-2.2,2-2.2
		c1.3,0,2.1,1.2,1.9,2.4H232.1z M234.2,33.9c0-0.6-0.4-1.1-1-1.1c-0.6,0-1.1,0.5-1.1,1.1H234.2z"/>
	<path style="clip-path:url(#SVGID_00000106108370865279214240000003306811762895189151_);fill:#231F20;" d="M238.6,33.6
		c-0.1-0.5-0.4-0.8-0.9-0.8c-0.5,0-1.1,0.2-1.1,1.5c0,0.7,0.3,1.4,1.1,1.4c0.5,0,0.9-0.3,1-0.9h0.9c-0.2,1.1-0.8,1.6-1.9,1.6
		c-1.3,0-2-0.9-2-2.1c0-1.2,0.7-2.2,2-2.2c0.9,0,1.8,0.5,1.8,1.5H238.6z"/>
	<path style="clip-path:url(#SVGID_00000106108370865279214240000003306811762895189151_);fill:#231F20;" d="M239.7,32.3h0.7V31h0.9
		v1.2h0.8v0.7h-0.8v2.2c0,0.4,0,0.6,0.4,0.6c0.1,0,0.3,0,0.4,0v0.7c-0.2,0-0.4,0-0.6,0c-0.9,0-1.1-0.4-1.1-1v-2.4h-0.7V32.3z"/>
	<path style="clip-path:url(#SVGID_00000106108370865279214240000003306811762895189151_);fill:#231F20;" d="M243.1,30.7h0.9v0.9
		h-0.9V30.7z M243.1,32.3h0.9v4.1h-0.9V32.3z"/>
	<polygon style="clip-path:url(#SVGID_00000106108370865279214240000003306811762895189151_);fill:#231F20;" points="244.7,32.3 
		245.7,32.3 246.9,35.4 246.9,35.4 248.2,32.3 249.1,32.3 247.4,36.3 246.4,36.3 	"/>
	<path style="clip-path:url(#SVGID_00000106108370865279214240000003306811762895189151_);fill:#231F20;" d="M250.2,34.5
		c0,0.6,0.3,1.2,1.1,1.2c0.5,0,0.8-0.2,1-0.7h0.9c-0.2,0.9-1,1.4-1.9,1.4c-1.3,0-2-0.9-2-2.1c0-1.2,0.8-2.2,2-2.2
		c1.3,0,2.1,1.2,1.9,2.4H250.2z M252.3,33.9c0-0.6-0.4-1.1-1-1.1c-0.6,0-1.1,0.5-1.1,1.1H252.3z"/>
	<path style="clip-path:url(#SVGID_00000106108370865279214240000003306811762895189151_);fill:#22B0E6;" d="M241.4,29.8
		c-0.6-2.2-2.4-4-4.6-4.6c-0.2-0.7-0.8-1.2-1.6-1.2c-0.8,0-1.4,0.5-1.6,1.2c-2.2,0.6-4,2.3-4.6,4.6l-0.1,0.3h1.4l0-0.1
		c0.5-1.6,1.8-2.9,3.4-3.4c0.3,0.5,0.8,0.8,1.4,0.8c0.6,0,1.2-0.3,1.4-0.8c1.6,0.5,2.9,1.7,3.4,3.4l0,0.1h1.4L241.4,29.8z"/>
	<path style="clip-path:url(#SVGID_00000106108370865279214240000003306811762895189151_);fill:#231F20;" d="M254.2,35.7
		c0.2,0,0.4,0.2,0.4,0.4s-0.2,0.4-0.4,0.4c-0.2,0-0.4-0.2-0.4-0.4S254,35.7,254.2,35.7 M254.5,36.1c0-0.2-0.1-0.3-0.3-0.3
		c-0.2,0-0.3,0.2-0.3,0.3c0,0.2,0.1,0.3,0.3,0.3C254.4,36.4,254.5,36.2,254.5,36.1 M254,35.8h0.2c0.1,0,0.2,0,0.2,0.1
		c0,0.1-0.1,0.1-0.1,0.1l0.1,0.2h-0.1l-0.1-0.2h-0.1v0.2H254V35.8z M254.2,36c0.1,0,0.1,0,0.1-0.1c0-0.1-0.1-0.1-0.1-0.1h-0.1
		L254.2,36L254.2,36z"/>
</g>
</svg>
