<svg id="Layer_1" xmlns="http://www.w3.org/2000/svg" viewBox="0 0 300 250"><style>.st0{fill:#231f20}</style><path class="st0" d="M32.6 89.2c-.8.3-1.6.5-2.4.5-1.3 0-2.4-.2-3.4-.7s-1.8-1-2.5-1.8-1.2-1.7-1.6-2.7c-.4-1-.6-2.1-.6-3.3 0-1.2.2-2.4.6-3.4s.9-2 1.6-2.7c.7-.8 1.5-1.4 2.5-1.8s2.1-.7 3.4-.7c.8 0 1.7.1 2.4.4.8.3 1.5.6 2.1 1.1.6.5 1.2 1.1 1.6 1.8s.7 1.5.8 2.5h-3.4c-.2-.9-.6-1.6-1.2-2.1s-1.4-.7-2.2-.7c-.8 0-1.5.2-2.1.5-.6.3-1 .7-1.4 1.3-.4.5-.6 1.1-.8 1.8-.2.7-.2 1.4-.2 2.1 0 .7.1 1.4.2 2 .2.6.4 1.2.8 1.8.4.5.8.9 1.4 1.2.6.3 1.3.5 2.1.5 1.2 0 2.1-.3 2.8-.9.6-.6 1-1.5 1.1-2.6h-3.6v-2.7h6.9v8.8h-2.3l-.4-1.9c-.7.8-1.4 1.3-2.2 1.7zM43.3 86.5c.5.5 1.2.7 2.1.7.7 0 1.2-.2 1.7-.5s.8-.7.9-1h2.9c-.5 1.4-1.2 2.4-2.1 3-.9.6-2.1.9-3.4.9-.9 0-1.8-.1-2.5-.4-.7-.3-1.4-.7-1.9-1.3-.5-.5-.9-1.2-1.2-2-.3-.8-.4-1.6-.4-2.5 0-.9.1-1.7.4-2.5.3-.8.7-1.4 1.2-2 .5-.6 1.2-1 1.9-1.3.7-.3 1.6-.5 2.5-.5 1 0 1.9.2 2.6.6.7.4 1.4.9 1.8 1.6s.8 1.4 1 2.2c.2.8.3 1.7.2 2.6h-8.6c.2 1.1.4 1.9.9 2.4zm3.7-6.3c-.4-.4-1-.6-1.8-.6-.5 0-1 .1-1.3.3s-.6.4-.8.7c-.2.3-.4.5-.4.8-.1.3-.1.5-.1.8h5.3c-.2-.9-.5-1.5-.9-2zM59.4 77.4v2.2H57v5.9c0 .6.1.9.3 1.1.2.2.5.3 1.1.3h.5c.2 0 .3 0 .5-.1v2.5c-.3 0-.6.1-.9.1h-1c-.5 0-1 0-1.4-.1-.5-.1-.8-.2-1.2-.4-.3-.2-.6-.5-.8-.8s-.3-.8-.3-1.4v-7h-2v-2.2h2v-3.6H57v3.6h2.4zM67.4 77.4v2.2H65v5.9c0 .6.1.9.3 1.1.2.2.5.3 1.1.3h.5c.2 0 .3 0 .5-.1v2.5c-.3 0-.6.1-.9.1h-1c-.5 0-1 0-1.4-.1-.5-.1-.8-.2-1.2-.4-.3-.2-.6-.5-.8-.8s-.3-.8-.3-1.4v-7h-2v-2.2h2v-3.6H65v3.6h2.4zM69 75.6v-2.7h3.3v2.7H69zm3.2 1.8v11.9H69V77.4h3.2zM77.8 77.4v1.7h.1c.4-.7.9-1.2 1.6-1.5.7-.3 1.3-.5 2-.5.9 0 1.6.1 2.1.4.6.2 1 .6 1.3 1 .3.4.5.9.7 1.5.1.6.2 1.3.2 2v7.3h-3.3v-6.7c0-1-.2-1.7-.5-2.2-.3-.5-.8-.7-1.6-.7-.9 0-1.5.3-1.9.8s-.6 1.4-.6 2.6v6.2h-3.3V77.4h3.2zM99.4 90.2c-.1.6-.4 1.2-.8 1.7s-1 1-1.9 1.3-1.9.5-3.3.5c-.6 0-1.2-.1-1.8-.2-.6-.1-1.2-.4-1.7-.7-.5-.3-.9-.7-1.2-1.2s-.5-1.1-.6-1.7h3.2c.2.6.5 1 .9 1.3.4.2 1 .4 1.5.4.9 0 1.6-.3 2-.8.4-.6.6-1.2.6-2.1v-1.6c-.4.6-.9 1.1-1.5 1.4-.6.3-1.3.4-2.1.4-.9 0-1.7-.2-2.3-.5-.6-.3-1.2-.7-1.6-1.3-.4-.5-.7-1.2-.9-1.9-.2-.7-.3-1.5-.3-2.3 0-.8.1-1.5.3-2.2.2-.7.5-1.3 1-1.9.4-.5 1-1 1.6-1.3.6-.3 1.4-.5 2.2-.5.8 0 1.5.1 2.1.4.6.3 1.1.8 1.5 1.5v-1.6h3.1v11.1c.2.6.1 1.2 0 1.8zm-4.5-4c.4-.2.6-.4.9-.7.2-.3.4-.7.5-1 .1-.4.2-.8.2-1.2 0-.5 0-1-.1-1.4s-.2-.8-.5-1.2c-.2-.3-.5-.6-.8-.8-.4-.2-.8-.3-1.3-.3s-.9.1-1.2.3c-.3.2-.6.4-.8.7-.2.3-.4.7-.5 1.1-.1.4-.1.8-.1 1.3 0 .4 0 .9.1 1.3s.2.8.4 1.1c.2.3.5.6.8.8.3.2.8.3 1.3.3.3 0 .8-.1 1.1-.3zM111.7 72.9v16.4h-3.3V72.9h3.3zM114.2 80.8c.3-.8.7-1.4 1.2-2 .5-.5 1.2-1 1.9-1.3.7-.3 1.6-.4 2.5-.4.9 0 1.8.1 2.5.4s1.4.7 1.9 1.3c.5.5.9 1.2 1.2 2 .3.8.4 1.6.4 2.6 0 .9-.1 1.8-.4 2.6-.3.8-.7 1.4-1.2 2-.5.5-1.2 1-1.9 1.2s-1.6.4-2.5.4c-.9 0-1.8-.1-2.5-.4-.7-.3-1.4-.7-1.9-1.2s-.9-1.2-1.2-2c-.3-.8-.4-1.6-.4-2.6s.1-1.8.4-2.6zm3 4c.1.5.2.9.5 1.2.2.4.5.6.9.9s.8.3 1.4.3c.5 0 1-.1 1.4-.3.4-.2.7-.5.9-.9.2-.4.4-.8.5-1.2.1-.5.1-.9.1-1.4s0-.9-.1-1.4-.2-.9-.5-1.2c-.2-.4-.5-.6-.9-.9-.4-.2-.8-.3-1.4-.3-.6 0-1 .1-1.4.3s-.7.5-.9.9-.4.8-.5 1.2-.1.9-.1 1.4 0 .9.1 1.4zM138.2 89.3l-2.1-8-2 8h-3.4l-3.8-11.9h3.4l2.2 8 2-8h3.2l2 8 2.2-8h3.3l-3.7 11.9h-3.3zM153.5 81.6v2.8h-6.9v-2.8h6.9zM161.5 79.6c-.5 0-1 .1-1.3.4s-.6.5-.9.9c-.2.4-.4.8-.5 1.2-.1.5-.1.9-.1 1.3s0 .9.1 1.3.2.8.4 1.2c.2.4.5.7.8.9.4.2.8.3 1.3.3.8 0 1.4-.2 1.8-.7.4-.4.7-1 .8-1.8h3.1c-.2 1.6-.8 2.8-1.8 3.6-1 .8-2.3 1.2-3.9 1.2-.9 0-1.7-.1-2.4-.4-.7-.3-1.4-.7-1.9-1.2s-.9-1.2-1.2-1.9c-.3-.7-.4-1.6-.4-2.4 0-.9.1-1.8.4-2.6.3-.8.7-1.5 1.2-2 .5-.6 1.2-1 1.9-1.3.7-.3 1.6-.5 2.6-.5.7 0 1.4.1 2 .3s1.2.5 1.7.8.9.8 1.2 1.4c.3.6.5 1.2.6 2h-3.2c-.1-1.3-.9-2-2.3-2zM168.9 80.8c.3-.8.7-1.4 1.2-2 .5-.5 1.2-1 1.9-1.3s1.6-.4 2.5-.4c.9 0 1.8.1 2.5.4s1.4.7 1.9 1.3c.5.5.9 1.2 1.2 2 .3.8.4 1.6.4 2.6 0 .9-.1 1.8-.4 2.6s-.7 1.4-1.2 2c-.5.5-1.2 1-1.9 1.2s-1.6.4-2.5.4c-.9 0-1.8-.1-2.5-.4s-1.4-.7-1.9-1.2-.9-1.2-1.2-2-.4-1.6-.4-2.6.2-1.8.4-2.6zm3 4c.1.5.2.9.5 1.2.2.4.5.6.9.9.4.2.8.3 1.4.3.6 0 1-.1 1.4-.3.4-.2.7-.5.9-.9.2-.4.4-.8.5-1.2.1-.5.1-.9.1-1.4s0-.9-.1-1.4-.2-.9-.5-1.2-.5-.6-.9-.9c-.4-.2-.8-.3-1.4-.3-.5 0-1 .1-1.4.3-.4.2-.7.5-.9.9s-.4.8-.5 1.2-.1.9-.1 1.4 0 .9.1 1.4zM185.5 86.4c.1.3.3.5.6.6.2.2.5.3.8.4.3.1.6.1.9.1.2 0 .5 0 .7-.1.3-.1.5-.1.7-.3.2-.1.4-.3.5-.5s.2-.4.2-.7c0-.5-.3-.9-1-1.1-.7-.2-1.6-.5-2.7-.7-.5-.1-.9-.2-1.4-.4-.5-.1-.9-.3-1.2-.6-.4-.2-.6-.5-.8-.9-.2-.4-.3-.8-.3-1.3 0-.8.1-1.4.4-1.9.3-.5.7-.9 1.2-1.2.5-.3 1-.5 1.7-.6.6-.1 1.2-.2 1.9-.2s1.3.1 1.9.2c.6.1 1.1.3 1.6.6s.9.7 1.2 1.2c.3.5.5 1.1.6 1.8h-3.1c0-.6-.3-1.1-.7-1.3-.4-.2-.9-.3-1.5-.3h-.6c-.2 0-.4.1-.6.1-.2.1-.3.2-.4.3-.1.1-.2.3-.2.6s.1.5.3.7c.2.2.5.3.8.4.3.1.7.2 1.2.3.4.1.9.2 1.4.3.5.1.9.2 1.4.4.5.2.9.4 1.2.6s.6.6.8.9c.2.4.3.8.3 1.4 0 .8-.2 1.4-.5 2s-.7 1-1.2 1.3c-.5.3-1.1.5-1.7.7-.6.1-1.3.2-2 .2s-1.4-.1-2-.2c-.7-.1-1.2-.4-1.8-.7-.5-.3-.9-.7-1.3-1.3-.3-.5-.5-1.2-.5-2h3.1c-.1.6 0 .9.1 1.2zM201.5 77.4v2.2h-2.4v5.9c0 .6.1.9.3 1.1.2.2.6.3 1.1.3h.5c.1 0 .3 0 .5-.1v2.5c-.3 0-.6.1-.9.1h-1c-.5 0-1 0-1.4-.1-.5-.1-.8-.2-1.2-.4-.3-.2-.6-.5-.8-.8-.2-.4-.3-.8-.3-1.4v-7h-2v-2.2h2v-3.6h3.3v3.6h2.3zM206.7 85.8v3.5c0 .5-.1 1-.3 1.4-.2.4-.4.8-.8 1.1-.3.3-.7.6-1.1.8-.4.2-.9.3-1.4.4v-1.7c.2 0 .4-.1.7-.3.2-.1.4-.3.5-.5.2-.2.3-.4.3-.6.1-.2.1-.5.1-.7H203v-3.5h3.7z"/><g><path class="st0" d="M25.8 98.8v6.2h.1c.4-.7.9-1.2 1.6-1.5.6-.3 1.3-.5 1.9-.5.9 0 1.6.1 2.1.4.6.2 1 .6 1.3 1 .3.4.5.9.7 1.5.1.6.2 1.3.2 2v7.3h-3.3v-6.7c0-1-.2-1.7-.5-2.2-.3-.5-.8-.7-1.6-.7-.9 0-1.5.3-1.9.8s-.6 1.4-.6 2.6v6.2h-3.3V98.8h3.3zM36.1 101.5v-2.7h3.3v2.7h-3.3zm3.3 1.9v11.9h-3.3v-11.9h3.3zM53 116.1c-.1.6-.4 1.2-.8 1.7s-1 1-1.9 1.3-1.9.5-3.3.5c-.6 0-1.2-.1-1.8-.2-.6-.1-1.2-.4-1.7-.7-.5-.3-.9-.7-1.2-1.2s-.5-1.1-.6-1.7h3.2c.2.6.5 1 .9 1.3.4.2 1 .4 1.5.4.9 0 1.6-.3 2-.8.4-.6.6-1.2.6-2.1V113c-.4.6-.9 1.1-1.5 1.4-.6.3-1.3.4-2.1.4-.9 0-1.7-.2-2.3-.5-.6-.3-1.2-.7-1.6-1.3-.4-.5-.7-1.2-.9-1.9-.2-.7-.3-1.5-.3-2.3 0-.8.1-1.5.3-2.2.2-.7.5-1.3 1-1.9.4-.5 1-1 1.6-1.3.6-.3 1.4-.5 2.2-.5.8 0 1.5.1 2.1.4.6.3 1.1.8 1.5 1.5v-1.6H53v11.1c.2.6.2 1.2 0 1.8zm-4.4-4c.4-.2.6-.4.9-.7.2-.3.4-.7.5-1 .1-.4.2-.8.2-1.2 0-.5 0-1-.1-1.4s-.2-.8-.5-1.2c-.2-.3-.5-.6-.8-.8-.4-.2-.8-.3-1.3-.3s-.9.1-1.2.3c-.3.2-.6.4-.8.7-.2.3-.4.7-.5 1.1-.1.4-.1.8-.1 1.3 0 .4 0 .9.1 1.3s.2.8.4 1.1c.2.3.5.6.8.8.3.2.8.3 1.3.3.3 0 .7-.1 1.1-.3zM59 98.8v6.2h.1c.4-.7.9-1.2 1.6-1.5.6-.3 1.3-.5 1.9-.5.9 0 1.6.1 2.1.4.6.2 1 .6 1.3 1 .3.4.5.9.7 1.5.1.6.2 1.3.2 2v7.3h-3.3v-6.7c0-1-.2-1.7-.5-2.2-.3-.5-.8-.7-1.6-.7-.9 0-1.5.3-1.9.8s-.6 1.4-.6 2.6v6.2h-3.3V98.8H59zM76.1 107.5v2.8h-6.9v-2.8h6.9zM86.8 119.4v-5.6c-.4.6-.9 1.1-1.6 1.4-.7.3-1.4.4-2.1.4-.5 0-1.1-.1-1.7-.3-.6-.2-1.1-.6-1.6-1s-.9-1.1-1.2-1.9c-.3-.8-.5-1.8-.5-2.9 0-.8.1-1.6.3-2.4.2-.8.5-1.4 1-2s1-1.1 1.7-1.4c.7-.4 1.4-.5 2.3-.5.7 0 1.4.1 2.1.4.6.3 1.2.8 1.5 1.4v-1.5h3v16h-3.2zm-5.4-8.7c.1.5.2.9.5 1.2.2.4.5.6.9.9.4.2.8.3 1.3.3s1-.1 1.3-.3c.4-.2.6-.5.9-.8s.4-.7.5-1.2c.1-.5.1-.9.1-1.4 0-.5 0-.9-.1-1.4-.1-.5-.3-.9-.5-1.2-.2-.4-.5-.7-.9-.9-.4-.2-.8-.3-1.3-.3s-1 .1-1.4.3c-.4.2-.7.5-.9.9-.2.4-.4.8-.5 1.2-.1.5-.1.9-.1 1.4 0 .4.1.8.2 1.3zM100.4 115.2v-1.7h-.1c-.4.7-.9 1.2-1.6 1.5-.7.3-1.3.5-2 .5-.9 0-1.6-.1-2.1-.3-.6-.2-1-.6-1.3-1s-.5-.9-.7-1.5-.2-1.3-.2-2v-7.3h3.3v6.7c0 1 .2 1.7.5 2.2.3.5.8.7 1.6.7.9 0 1.5-.3 1.9-.8.4-.5.6-1.4.6-2.6v-6.2h3.3v11.9h-3.2zM105.7 107c0-.8.2-1.4.6-1.9.3-.5.8-.9 1.3-1.2s1.1-.5 1.8-.7 1.3-.2 2-.2c.6 0 1.2 0 1.8.1.6.1 1.2.2 1.7.5.5.2.9.6 1.2 1s.5 1 .5 1.7v6.2c0 .5 0 1 .1 1.5s.2.9.3 1.1h-3.3c-.1-.2-.1-.4-.1-.6 0-.2-.1-.4-.1-.6-.5.5-1.1.9-1.8 1.1-.7.2-1.4.3-2.2.3-.6 0-1.1-.1-1.6-.2s-.9-.4-1.3-.6c-.4-.3-.7-.7-.9-1.1-.2-.4-.3-1-.3-1.6 0-.7.1-1.2.4-1.7.2-.4.5-.8.9-1 .4-.3.8-.5 1.3-.6l1.5-.3c.5-.1 1-.1 1.4-.2.5 0 .9-.1 1.3-.2s.7-.2.9-.4c.2-.2.3-.4.3-.8s-.1-.6-.2-.8c-.1-.2-.3-.4-.5-.5-.2-.1-.4-.2-.7-.2-.3 0-.5-.1-.8-.1-.6 0-1.1.1-1.5.4-.4.3-.6.7-.6 1.4h-3.4zm7.6 2.4c-.1.1-.3.2-.5.3-.2.1-.4.1-.7.2-.2 0-.5.1-.7.1-.3 0-.5.1-.8.1-.2 0-.5.1-.7.2l-.6.3c-.2.1-.3.3-.4.5s-.2.5-.2.8c0 .3.1.5.2.7.1.2.3.4.4.5.2.1.4.2.6.2.2 0 .5.1.8.1.6 0 1.1-.1 1.5-.3.4-.2.6-.5.8-.8.2-.3.3-.6.3-.9s.1-.6.1-.7v-1.3zM122.3 98.8v16.4H119V98.8h3.3zM124.8 101.5v-2.7h3.3v2.7h-3.3zm3.3 1.9v11.9h-3.3v-11.9h3.3zM137.1 103.4v2.2h-2.4v5.9c0 .6.1.9.3 1.1.2.2.5.3 1.1.3h.5c.2 0 .3 0 .5-.1v2.5c-.3 0-.6.1-.9.1h-1c-.5 0-1 0-1.4-.1-.5-.1-.8-.2-1.2-.4-.3-.2-.6-.5-.8-.8s-.3-.8-.3-1.4v-7h-2v-2.2h2v-3.6h3.3v3.6h2.3zM142.9 118.7c-.6.4-1.5.6-2.6.6h-1c-.3 0-.7 0-1-.1v-2.7c.3 0 .6.1.9.1h1c.4 0 .7-.2 1-.5.2-.3.3-.6.3-1 0-.3 0-.5-.1-.7l-4.1-11.1h3.5l2.7 8.1 2.6-8.1h3.4l-5 13.3c-.5 1-1 1.7-1.6 2.1zM162.2 105.5c-.5 0-1 .1-1.3.4s-.6.5-.9.9c-.2.4-.4.8-.5 1.2-.1.5-.1.9-.1 1.3s0 .9.1 1.3.2.8.4 1.2c.2.4.5.7.8.9.4.2.8.3 1.3.3.8 0 1.4-.2 1.8-.7.4-.4.7-1 .8-1.8h3.1c-.2 1.6-.8 2.8-1.8 3.6-1 .8-2.3 1.2-3.9 1.2-.9 0-1.7-.1-2.4-.4-.7-.3-1.4-.7-1.9-1.2s-.9-1.2-1.2-1.9c-.3-.7-.4-1.6-.4-2.4 0-.9.1-1.8.4-2.6.3-.8.7-1.5 1.2-2 .5-.6 1.2-1 1.9-1.3.7-.3 1.6-.5 2.6-.5.7 0 1.4.1 2 .3s1.2.5 1.7.8.9.8 1.2 1.4c.3.6.5 1.2.6 2h-3.2c-.1-1.3-.9-2-2.3-2zM169.7 106.7c.3-.8.7-1.4 1.2-2 .5-.5 1.2-1 1.9-1.3s1.6-.4 2.5-.4c.9 0 1.8.1 2.5.4s1.4.7 1.9 1.3c.5.5.9 1.2 1.2 2 .3.8.4 1.6.4 2.6 0 .9-.1 1.8-.4 2.6s-.7 1.4-1.2 2c-.5.5-1.2 1-1.9 1.2s-1.6.4-2.5.4c-.9 0-1.8-.1-2.5-.4s-1.4-.7-1.9-1.2-.9-1.2-1.2-2-.4-1.6-.4-2.6.1-1.8.4-2.6zm3 4c.1.5.2.9.5 1.2.2.4.5.6.9.9.4.2.8.3 1.4.3.6 0 1-.1 1.4-.3.4-.2.7-.5.9-.9.2-.4.4-.8.5-1.2.1-.5.1-.9.1-1.4s0-.9-.1-1.4-.2-.9-.5-1.2-.5-.6-.9-.9c-.4-.2-.8-.3-1.4-.3-.5 0-1 .1-1.4.3-.4.2-.7.5-.9.9s-.4.8-.5 1.2-.1.9-.1 1.4 0 .9.1 1.4zM186.5 115.2l-4.1-11.9h3.4l2.5 8.1 2.5-8.1h3.2l-4 11.9h-3.5zM198.9 112.4c.5.5 1.2.7 2.1.7.7 0 1.2-.2 1.7-.5s.8-.7.9-1h2.9c-.5 1.4-1.2 2.4-2.1 3-.9.6-2.1.9-3.4.9-.9 0-1.8-.1-2.5-.4-.7-.3-1.4-.7-1.9-1.3-.5-.5-.9-1.2-1.2-2-.3-.8-.4-1.6-.4-2.5 0-.9.1-1.7.4-2.5.3-.8.7-1.4 1.2-2 .5-.6 1.2-1 1.9-1.3.7-.3 1.6-.5 2.5-.5 1 0 1.9.2 2.6.6s1.4.9 1.8 1.6.8 1.4 1 2.2c.2.8.3 1.7.2 2.6h-8.5c0 1.1.3 1.9.8 2.4zm3.6-6.3c-.4-.4-1-.6-1.8-.6-.5 0-1 .1-1.3.3-.3.2-.6.4-.8.7-.2.3-.4.5-.4.8-.1.3-.1.5-.1.8h5.3c-.2-.9-.5-1.5-.9-2zM211.5 103.4v2.2c.2-.4.4-.7.6-1 .3-.3.6-.6.9-.8.3-.2.7-.4 1.1-.5.4-.1.8-.2 1.2-.2.2 0 .5 0 .7.1v3c-.2 0-.3-.1-.5-.1h-.6c-.6 0-1.1.1-1.5.3-.4.2-.7.5-1 .8-.3.3-.4.7-.5 1.2-.1.5-.2 1-.2 1.5v5.3h-3.3v-11.9h3.1zM217.1 107c0-.8.2-1.4.6-1.9.3-.5.8-.9 1.3-1.2s1.1-.5 1.8-.7c.6-.1 1.3-.2 2-.2.6 0 1.2 0 1.8.1s1.2.2 1.7.5c.5.2.9.6 1.2 1s.5 1 .5 1.7v6.2c0 .5 0 1 .1 1.5s.2.9.3 1.1H225c-.1-.2-.1-.4-.1-.6 0-.2-.1-.4-.1-.6-.5.5-1.1.9-1.8 1.1-.7.2-1.4.3-2.2.3-.6 0-1.1-.1-1.6-.2s-.9-.4-1.3-.6c-.4-.3-.7-.7-.9-1.1-.2-.4-.3-1-.3-1.6 0-.7.1-1.2.4-1.7.2-.4.5-.8.9-1 .4-.3.8-.5 1.3-.6l1.5-.3c.5-.1 1-.1 1.4-.2.5 0 .9-.1 1.3-.2s.7-.2.9-.4c.2-.2.3-.4.3-.8s-.1-.6-.2-.8c-.1-.2-.3-.4-.5-.5-.2-.1-.4-.2-.7-.2-.3 0-.5-.1-.8-.1-.6 0-1.1.1-1.5.4-.4.3-.6.7-.6 1.4h-3.3zm7.5 2.4c-.1.1-.3.2-.5.3-.2.1-.4.1-.7.2-.2 0-.5.1-.7.1-.3 0-.5.1-.8.1-.2 0-.5.1-.7.2l-.6.3c-.2.1-.3.3-.4.5-.1.2-.2.5-.2.8 0 .3.1.5.2.7.1.2.3.4.4.5.2.1.4.2.6.2.2 0 .5.1.8.1.6 0 1.1-.1 1.5-.3.4-.2.6-.5.8-.8.2-.3.3-.6.3-.9s.1-.6.1-.7v-1.3zM241.5 116.1c-.1.6-.4 1.2-.8 1.7s-1 1-1.9 1.3c-.8.4-1.9.5-3.3.5-.6 0-1.2-.1-1.8-.2-.6-.1-1.2-.4-1.7-.7-.5-.3-.9-.7-1.2-1.2-.3-.5-.5-1.1-.6-1.7h3.2c.2.6.5 1 .9 1.3.4.2 1 .4 1.5.4.9 0 1.6-.3 2-.8.4-.6.6-1.2.6-2.1V113c-.4.6-.9 1.1-1.5 1.4-.6.3-1.3.4-2.1.4-.9 0-1.7-.2-2.3-.5-.6-.3-1.2-.7-1.6-1.3-.4-.5-.7-1.2-.9-1.9-.2-.7-.3-1.5-.3-2.3 0-.8.1-1.5.3-2.2.2-.7.5-1.3 1-1.9s1-1 1.6-1.3c.6-.3 1.4-.5 2.2-.5.8 0 1.5.1 2.1.4.6.3 1.1.8 1.5 1.5v-1.6h3.1v11.1c.2.6.2 1.2 0 1.8zm-4.4-4c.4-.2.6-.4.9-.7.2-.3.4-.7.5-1 .1-.4.2-.8.2-1.2 0-.5 0-1-.1-1.4s-.2-.8-.5-1.2c-.2-.3-.5-.6-.8-.8-.4-.2-.8-.3-1.3-.3s-.9.1-1.2.3c-.3.2-.6.4-.8.7-.2.3-.4.7-.5 1.1-.1.4-.1.8-.1 1.3 0 .4 0 .9.1 1.3s.2.8.4 1.1c.2.3.5.6.8.8.3.2.8.3 1.3.3.3 0 .7-.1 1.1-.3zM247.7 112.4c.5.5 1.2.7 2.1.7.7 0 1.2-.2 1.7-.5s.8-.7.9-1h2.9c-.5 1.4-1.2 2.4-2.1 3-.9.6-2.1.9-3.4.9-.9 0-1.8-.1-2.5-.4-.7-.3-1.4-.7-1.9-1.3-.5-.5-.9-1.2-1.2-2-.3-.8-.4-1.6-.4-2.5 0-.9.1-1.7.4-2.5.3-.8.7-1.4 1.2-2 .5-.6 1.2-1 1.9-1.3.7-.3 1.6-.5 2.5-.5 1 0 1.9.2 2.6.6s1.4.9 1.8 1.6.8 1.4 1 2.2c.2.8.3 1.7.2 2.6h-8.5c.1 1.1.3 1.9.8 2.4zm3.7-6.3c-.4-.4-1-.6-1.8-.6-.5 0-1 .1-1.3.3-.3.2-.6.4-.8.7-.2.3-.4.5-.4.8-.1.3-.1.5-.1.8h5.3c-.2-.9-.5-1.5-.9-2zM263.4 107c0-.8.2-1.4.6-1.9.3-.5.8-.9 1.3-1.2s1.1-.5 1.8-.7c.6-.1 1.3-.2 2-.2.6 0 1.2 0 1.8.1s1.2.2 1.7.5c.5.2.9.6 1.2 1s.5 1 .5 1.7v6.2c0 .5 0 1 .1 1.5s.2.9.3 1.1h-3.3c-.1-.2-.1-.4-.1-.6 0-.2-.1-.4-.1-.6-.5.5-1.1.9-1.8 1.1-.7.2-1.4.3-2.2.3-.6 0-1.1-.1-1.6-.2s-.9-.4-1.3-.6c-.4-.3-.7-.7-.9-1.1-.2-.4-.3-1-.3-1.6 0-.7.1-1.2.4-1.7.2-.4.5-.8.9-1 .4-.3.8-.5 1.3-.6l1.5-.3c.5-.1 1-.1 1.4-.2.5 0 .9-.1 1.3-.2s.7-.2.9-.4c.2-.2.3-.4.3-.8s-.1-.6-.2-.8c-.1-.2-.3-.4-.5-.5-.2-.1-.4-.2-.7-.2-.3 0-.5-.1-.8-.1-.6 0-1.1.1-1.5.4-.4.3-.6.7-.6 1.4h-3.4zm7.5 2.4c-.1.1-.3.2-.5.3-.2.1-.4.1-.7.2-.2 0-.5.1-.7.1-.3 0-.5.1-.8.1-.2 0-.5.1-.7.2l-.6.3c-.2.1-.3.3-.4.5-.1.2-.2.5-.2.8 0 .3.1.5.2.7.1.2.3.4.4.5.2.1.4.2.6.2.2 0 .5.1.8.1.6 0 1.1-.1 1.5-.3.4-.2.6-.5.8-.8.2-.3.3-.6.3-.9s.1-.6.1-.7v-1.3zM283.1 103.4v2.2h-2.4v5.9c0 .6.1.9.3 1.1.2.2.6.3 1.1.3h.5c.1 0 .3 0 .5-.1v2.5c-.3 0-.6.1-.9.1h-1c-.5 0-1 0-1.4-.1-.5-.1-.8-.2-1.2-.4-.3-.2-.6-.5-.8-.8-.2-.4-.3-.8-.3-1.4v-7h-2v-2.2h2v-3.6h3.3v3.6h2.3z"/></g><g><path class="st0" d="M29 129.3v2.2h-2.4v5.9c0 .6.1.9.3 1.1.2.2.5.3 1.1.3h.5c.2 0 .3 0 .5-.1v2.5c-.3 0-.6.1-.9.1h-1c-.5 0-1 0-1.4-.1-.5-.1-.8-.2-1.2-.4-.3-.2-.6-.5-.8-.8-.2-.4-.3-.8-.3-1.4v-7h-2v-2.2h2v-3.6h3.3v3.6H29zM33.8 124.7v6.2h.1c.4-.7.9-1.2 1.6-1.5.6-.3 1.3-.5 1.9-.5.9 0 1.6.1 2.1.4.6.2 1 .6 1.3 1 .3.4.5.9.7 1.5.1.6.2 1.3.2 2v7.3h-3.3v-6.7c0-1-.2-1.7-.5-2.2-.3-.5-.8-.7-1.6-.7-.9 0-1.5.3-1.9.8-.4.5-.6 1.4-.6 2.6v6.2h-3.3v-16.4h3.3zM47.5 138.3c.5.5 1.2.7 2.1.7.7 0 1.2-.2 1.7-.5s.8-.7.9-1H55c-.5 1.4-1.2 2.4-2.1 3-.9.6-2.1.9-3.4.9-.9 0-1.8-.1-2.5-.4-.7-.3-1.4-.7-1.9-1.3-.5-.6-.9-1.2-1.2-2-.3-.8-.4-1.6-.4-2.5 0-.9.1-1.7.4-2.5.3-.8.7-1.4 1.2-2 .5-.6 1.2-1 1.9-1.3.7-.3 1.6-.5 2.5-.5 1 0 1.9.2 2.6.6.7.4 1.4.9 1.8 1.6.5.7.8 1.4 1 2.2.2.8.3 1.7.2 2.6h-8.6c.2 1.1.5 1.9 1 2.4zm3.7-6.3c-.4-.4-1-.6-1.8-.6-.5 0-1 .1-1.3.3-.3.2-.6.4-.8.7-.2.3-.4.5-.4.8-.1.3-.1.6-.1.8H52c-.2-.9-.4-1.5-.8-2zM66.1 138.2c.1.3.3.5.6.6.2.2.5.3.8.4.3.1.6.1.9.1.2 0 .5 0 .7-.1s.5-.1.7-.3c.2-.1.4-.3.5-.5.1-.2.2-.4.2-.7 0-.5-.3-.9-1-1.1-.6-.2-1.6-.5-2.7-.7-.5-.1-.9-.2-1.4-.4-.5-.1-.9-.3-1.2-.6-.4-.2-.6-.5-.8-.9-.2-.4-.3-.8-.3-1.3 0-.8.1-1.4.4-1.9.3-.5.7-.9 1.2-1.2.5-.3 1-.5 1.7-.6.6-.1 1.2-.2 1.9-.2.6 0 1.3.1 1.9.2.6.1 1.1.3 1.6.6s.9.7 1.2 1.2c.3.5.5 1.1.6 1.8h-3.1c0-.6-.3-1.1-.7-1.3s-.9-.3-1.5-.3h-.6c-.2 0-.4.1-.6.1-.2.1-.3.2-.4.3-.1.1-.2.3-.2.6s.1.5.3.7.5.3.8.4c.3.1.7.2 1.2.3.4.1.9.2 1.4.3.5.1.9.2 1.4.4.5.2.9.4 1.2.6s.6.6.8.9c.2.4.3.8.3 1.4 0 .8-.2 1.4-.5 2-.3.5-.7 1-1.2 1.3-.5.3-1.1.5-1.7.7-.6.1-1.3.2-2 .2s-1.4-.1-2-.2c-.7-.1-1.2-.4-1.8-.7-.5-.3-.9-.7-1.3-1.3-.3-.5-.5-1.2-.5-2H66c-.1.6 0 .9.1 1.2zM82.1 129.3v2.2h-2.4v5.9c0 .6.1.9.3 1.1.2.2.5.3 1.1.3h.5c.2 0 .3 0 .5-.1v2.5c-.3 0-.6.1-.9.1h-1c-.5 0-1 0-1.4-.1-.5-.1-.8-.2-1.2-.4-.3-.2-.6-.5-.8-.8-.2-.4-.3-.8-.3-1.4v-7h-2v-2.2h2v-3.6h3.3v3.6h2.3zM83.4 132.9c0-.8.2-1.4.6-1.9.3-.5.8-.9 1.3-1.2.5-.3 1.1-.5 1.8-.7.6-.1 1.3-.2 2-.2.6 0 1.2 0 1.8.1.6.1 1.2.2 1.7.5.5.2.9.6 1.2 1s.5 1 .5 1.7v6.2c0 .5 0 1 .1 1.5s.2.9.3 1.1h-3.3c-.1-.2-.1-.4-.1-.6 0-.2-.1-.4-.1-.6-.5.5-1.1.9-1.8 1.1-.7.2-1.4.3-2.2.3-.6 0-1.1-.1-1.6-.2s-.9-.4-1.3-.6c-.4-.3-.7-.7-.9-1.1-.2-.4-.3-1-.3-1.6 0-.7.1-1.2.4-1.7.2-.4.5-.8.9-1 .4-.3.8-.5 1.3-.6l1.5-.3c.5-.1 1-.1 1.4-.2s.9-.1 1.3-.2.7-.2.9-.4.3-.4.3-.8-.1-.6-.2-.8c-.1-.2-.3-.4-.5-.5-.2-.1-.4-.2-.7-.2-.3 0-.5-.1-.8-.1-.6 0-1.1.1-1.5.4-.4.3-.6.7-.6 1.4h-3.4zm7.5 2.4c-.1.1-.3.2-.5.3-.2.1-.4.1-.7.2-.2 0-.5.1-.7.1-.3 0-.5.1-.8.1-.2 0-.5.1-.7.2l-.6.3c-.2.1-.3.3-.4.5s-.2.5-.2.8c0 .3.1.5.2.7.1.2.3.4.4.5.2.1.4.2.6.2.2 0 .5.1.8.1.6 0 1.1-.1 1.5-.3s.6-.5.8-.8c.2-.3.3-.6.3-.9s.1-.6.1-.7v-1.3zM99.7 129.3v2.2c.2-.4.4-.7.6-1 .3-.3.6-.6.9-.8.3-.2.7-.4 1.1-.5.4-.1.8-.2 1.2-.2.2 0 .5 0 .7.1v3c-.2 0-.3-.1-.6-.1h-.6c-.6 0-1.1.1-1.5.3-.4.2-.7.5-1 .8-.3.3-.4.7-.5 1.2s-.2 1-.2 1.5v5.3h-3.3v-11.9h3.2zM112 129.3v2.2h-2.4v5.9c0 .6.1.9.3 1.1.2.2.5.3 1.1.3h.5c.2 0 .3 0 .5-.1v2.5c-.3 0-.6.1-.9.1h-1c-.5 0-1 0-1.4-.1-.5-.1-.8-.2-1.2-.4-.3-.2-.6-.5-.8-.8-.2-.4-.3-.8-.3-1.4v-7h-2v-2.2h2v-3.6h3.3v3.6h2.3zM119.8 132.6c.3-.8.7-1.4 1.2-2 .5-.5 1.2-1 1.9-1.3.7-.3 1.6-.4 2.5-.4.9 0 1.8.1 2.5.4.8.3 1.4.7 1.9 1.3.5.5.9 1.2 1.2 2 .3.8.4 1.6.4 2.6s-.1 1.8-.4 2.6c-.3.8-.7 1.4-1.2 2-.5.5-1.2 1-1.9 1.2s-1.6.4-2.5.4c-.9 0-1.8-.1-2.5-.4-.7-.3-1.4-.7-1.9-1.2s-.9-1.2-1.2-2c-.3-.8-.4-1.6-.4-2.6s.1-1.8.4-2.6zm2.9 4c.1.5.2.9.5 1.2.2.4.5.6.9.9.4.2.8.3 1.4.3.5 0 1-.1 1.4-.3.4-.2.7-.5.9-.9.2-.4.4-.8.5-1.2.1-.5.1-.9.1-1.4s0-.9-.1-1.4c-.1-.5-.2-.9-.5-1.2-.2-.4-.5-.6-.9-.9-.4-.2-.8-.3-1.4-.3-.6 0-1 .1-1.4.3s-.7.5-.9.9-.4.8-.5 1.2c-.1.5-.1.9-.1 1.4s0 .9.1 1.4zM132.4 131.4v-2.2h1.9v-.9c0-1.1.3-1.9 1-2.6.7-.7 1.7-1 3-1h.9c.3 0 .6 0 .8.1v2.4c-.4 0-.8-.1-1.2-.1-.4 0-.8.1-1 .3-.2.2-.3.6-.3 1v.7h2.2v2.2h-2.2v9.7h-3.3v-9.7h-1.8zM151.8 144.6c-.6.4-1.5.6-2.6.6h-1c-.3 0-.7 0-1-.1v-2.7c.3 0 .6.1.9.1h1c.4 0 .7-.2 1-.5.2-.3.3-.6.3-1 0-.3 0-.5-.1-.7l-4.1-11.1h3.5l2.7 8.1 2.6-8.1h3.4l-5 13.3c-.5 1-1 1.7-1.6 2.1zM159.2 132.6c.3-.8.7-1.4 1.2-2 .5-.5 1.2-1 1.9-1.3.7-.3 1.6-.4 2.5-.4.9 0 1.8.1 2.5.4.8.3 1.4.7 1.9 1.3.5.5.9 1.2 1.2 2 .3.8.4 1.6.4 2.6s-.1 1.8-.4 2.6c-.3.8-.7 1.4-1.2 2-.5.5-1.2 1-1.9 1.2s-1.6.4-2.5.4c-.9 0-1.8-.1-2.5-.4s-1.4-.7-1.9-1.2-.9-1.2-1.2-2c-.3-.8-.4-1.6-.4-2.6s.2-1.8.4-2.6zm3 4c.1.5.2.9.5 1.2.2.4.5.6.9.9.4.2.8.3 1.4.3.6 0 1-.1 1.4-.3.4-.2.7-.5.9-.9.2-.4.4-.8.5-1.2.1-.5.1-.9.1-1.4s0-.9-.1-1.4c-.1-.5-.2-.9-.5-1.2s-.5-.6-.9-.9c-.4-.2-.8-.3-1.4-.3-.5 0-1 .1-1.4.3-.4.2-.7.5-.9.9s-.4.8-.5 1.2c-.1.5-.1.9-.1 1.4s0 .9.1 1.4zM181.1 141.1v-1.7h-.1c-.4.7-.9 1.2-1.6 1.5-.7.3-1.3.5-2 .5-.9 0-1.6-.1-2.1-.3s-1-.6-1.3-1c-.3-.4-.5-.9-.7-1.5s-.2-1.3-.2-2v-7.3h3.3v6.7c0 1 .2 1.7.5 2.2s.8.7 1.6.7c.9 0 1.5-.3 1.9-.8.4-.5.6-1.4.6-2.6v-6.2h3.3v11.9h-3.2zM189.7 129.3v2.2c.2-.4.4-.7.6-1 .3-.3.6-.6.9-.8.3-.2.7-.4 1.1-.5.4-.1.8-.2 1.2-.2.2 0 .5 0 .7.1v3c-.2 0-.3-.1-.5-.1h-.6c-.6 0-1.1.1-1.5.3-.4.2-.7.5-1 .8-.3.3-.4.7-.5 1.2-.1.5-.2 1-.2 1.5v5.3h-3.3v-11.9h3.1zM207.3 131.4c-.5 0-1 .1-1.3.4-.4.2-.6.5-.9.9-.2.4-.4.8-.5 1.2-.1.5-.1.9-.1 1.3s0 .9.1 1.3.2.8.4 1.2c.2.4.5.7.8.9s.8.3 1.3.3c.8 0 1.4-.2 1.8-.7.4-.4.7-1 .8-1.8h3.1c-.2 1.6-.8 2.8-1.8 3.6-1 .8-2.3 1.2-3.9 1.2-.9 0-1.7-.1-2.4-.4-.7-.3-1.4-.7-1.9-1.2s-.9-1.2-1.2-1.9-.4-1.6-.4-2.4c0-.9.1-1.8.4-2.6.3-.8.7-1.5 1.2-2 .5-.6 1.2-1 1.9-1.3.7-.3 1.6-.5 2.6-.5.7 0 1.4.1 2 .3.6.2 1.2.5 1.7.8.5.4.9.8 1.2 1.4.3.6.5 1.2.6 2h-3.2c-.1-1.3-.9-2-2.3-2zM214.6 132.9c0-.8.2-1.4.6-1.9.3-.5.8-.9 1.3-1.2.5-.3 1.1-.5 1.8-.7.6-.1 1.3-.2 2-.2.6 0 1.2 0 1.8.1s1.2.2 1.7.5c.5.2.9.6 1.2 1s.5 1 .5 1.7v6.2c0 .5 0 1 .1 1.5s.2.9.3 1.1h-3.3c-.1-.2-.1-.4-.1-.6s-.1-.4-.1-.6c-.5.5-1.1.9-1.8 1.1-.7.2-1.4.3-2.2.3-.6 0-1.1-.1-1.6-.2s-.9-.4-1.3-.6c-.4-.3-.7-.7-.9-1.1s-.3-1-.3-1.6c0-.7.1-1.2.4-1.7.2-.4.5-.8.9-1 .4-.3.8-.5 1.3-.6l1.5-.3c.5-.1 1-.1 1.4-.2.5 0 .9-.1 1.3-.2s.7-.2.9-.4c.2-.2.3-.4.3-.8s-.1-.6-.2-.8c-.1-.2-.3-.4-.5-.5-.2-.1-.4-.2-.7-.2-.3 0-.5-.1-.8-.1-.6 0-1.1.1-1.5.4-.4.3-.6.7-.6 1.4h-3.4zm7.5 2.4c-.1.1-.3.2-.5.3-.2.1-.4.1-.7.2-.2 0-.5.1-.7.1-.3 0-.5.1-.8.1-.2 0-.5.1-.7.2l-.6.3c-.2.1-.3.3-.4.5-.1.2-.2.5-.2.8 0 .3.1.5.2.7.1.2.3.4.4.5.2.1.4.2.6.2.2 0 .5.1.8.1.6 0 1.1-.1 1.5-.3s.6-.5.8-.8.3-.6.3-.9.1-.6.1-.7v-1.3zM230.9 129.3v2.2c.2-.4.4-.7.6-1 .3-.3.6-.6.9-.8.3-.2.7-.4 1.1-.5.4-.1.8-.2 1.2-.2.2 0 .5 0 .7.1v3c-.2 0-.3-.1-.5-.1h-.6c-.6 0-1.1.1-1.5.3-.4.2-.7.5-1 .8-.3.3-.4.7-.5 1.2-.1.5-.2 1-.2 1.5v5.3h-3.3v-11.9h3.1zM239.7 138.3c.5.5 1.2.7 2.1.7.7 0 1.2-.2 1.7-.5s.8-.7.9-1h2.9c-.5 1.4-1.2 2.4-2.1 3-.9.6-2.1.9-3.4.9-.9 0-1.8-.1-2.5-.4-.7-.3-1.4-.7-1.9-1.3-.5-.6-.9-1.2-1.2-2-.3-.8-.4-1.6-.4-2.5 0-.9.1-1.7.4-2.5.3-.8.7-1.4 1.2-2 .5-.6 1.2-1 1.9-1.3.7-.3 1.6-.5 2.5-.5 1 0 1.9.2 2.6.6s1.4.9 1.8 1.6c.5.7.8 1.4 1 2.2.2.8.3 1.7.2 2.6h-8.5c0 1.1.3 1.9.8 2.4zm3.7-6.3c-.4-.4-1-.6-1.8-.6-.5 0-1 .1-1.3.3-.3.2-.6.4-.8.7-.2.3-.4.5-.4.8-.1.3-.1.6-.1.8h5.3c-.3-.9-.5-1.5-.9-2zM252.8 138.3c.5.5 1.2.7 2.1.7.7 0 1.2-.2 1.7-.5s.8-.7.9-1h2.9c-.5 1.4-1.2 2.4-2.1 3-.9.6-2.1.9-3.4.9-.9 0-1.8-.1-2.5-.4-.7-.3-1.4-.7-1.9-1.3-.5-.6-.9-1.2-1.2-2-.3-.8-.4-1.6-.4-2.5 0-.9.1-1.7.4-2.5.3-.8.7-1.4 1.2-2 .5-.6 1.2-1 1.9-1.3.7-.3 1.6-.5 2.5-.5 1 0 1.9.2 2.6.6s1.4.9 1.8 1.6c.5.7.8 1.4 1 2.2.2.8.3 1.7.2 2.6H252c0 1.1.3 1.9.8 2.4zm3.7-6.3c-.4-.4-1-.6-1.8-.6-.5 0-1 .1-1.3.3-.3.2-.6.4-.8.7-.2.3-.4.5-.4.8-.1.3-.1.6-.1.8h5.3c-.3-.9-.6-1.5-.9-2zM265.4 129.3v2.2c.2-.4.4-.7.6-1 .3-.3.6-.6.9-.8.3-.2.7-.4 1.1-.5.4-.1.8-.2 1.2-.2.2 0 .5 0 .7.1v3c-.2 0-.3-.1-.5-.1h-.6c-.6 0-1.1.1-1.5.3-.4.2-.7.5-1 .8-.3.3-.4.7-.5 1.2-.1.5-.2 1-.2 1.5v5.3h-3.3v-11.9h3.1z"/></g><path class="st0" d="M22.6 153.3v-2.7h3.3v2.7h-3.3zm3.3 1.9V167h-3.3v-11.9h3.3zm5.2 8.9c.1.3.3.5.6.6s.5.3.8.4c.3.1.6.1.9.1.2 0 .5 0 .7-.1.3-.1.5-.1.7-.3.2-.1.4-.3.5-.5.1-.2.2-.4.2-.7 0-.5-.3-.9-1-1.1-.6-.2-1.6-.5-2.7-.7-.5-.1-.9-.2-1.4-.4-.5-.1-.9-.3-1.2-.6-.4-.2-.6-.5-.8-.9-.2-.4-.3-.8-.3-1.3 0-.8.1-1.4.4-1.9.3-.5.7-.9 1.2-1.2.5-.3 1-.5 1.7-.6.6-.1 1.2-.2 1.9-.2s1.3.1 1.9.2c.6.1 1.1.3 1.6.6s.9.7 1.2 1.2c.3.5.5 1.1.6 1.8h-3.1c0-.6-.3-1.1-.7-1.3-.4-.2-.9-.3-1.5-.3h-.6c-.2 0-.4.1-.6.1-.2.1-.3.2-.4.3-.1.1-.2.3-.2.6s.1.5.3.7c.2.2.5.3.8.4.3.1.7.2 1.2.3.4.1.9.2 1.4.3.5.1.9.2 1.4.4.5.2.9.4 1.2.6.4.3.6.6.8.9.2.4.3.8.3 1.4 0 .8-.2 1.4-.5 2-.3.5-.7 1-1.2 1.3-.5.3-1.1.5-1.7.7-.6.1-1.3.2-2 .2s-1.4-.1-2-.2c-.7-.1-1.2-.4-1.8-.7-.5-.3-.9-.7-1.3-1.3-.3-.5-.5-1.2-.5-2H31c-.1.6-.1.9.1 1.2zm18.8-5.3c.1-.6.3-1.1.6-1.4s.9-.4 1.5-.4c.3 0 .6 0 .8.1.3 0 .5.1.7.2.2.1.3.3.5.5.1.2.2.5.2.8 0 .3-.1.6-.3.8-.2.2-.5.3-.9.4-.4.1-.8.2-1.3.2s-1 .1-1.4.2l-1.5.3c-.5.1-.9.3-1.3.6s-.7.6-.9 1c-.2.4-.4 1-.4 1.7 0 .6.1 1.1.3 1.6.2.4.5.8.9 1.1.4.3.8.5 1.3.6.5.1 1 .2 1.6.2.7 0 1.5-.1 2.2-.3.7-.2 1.3-.6 1.8-1.1 0 .2 0 .4.1.6 0 .2.1.4.1.6h3.3c-.2-.2-.3-.6-.3-1.1-.1-.5-.1-1-.1-1.5v-6.2c0-.7-.2-1.3-.5-1.7-.3-.4-.7-.8-1.2-1-.5-.2-1.1-.4-1.7-.5-.6-.1-1.2-.1-1.8-.1-.7 0-1.3.1-2 .2-.6.1-1.2.3-1.8.7-.5.3-.9.7-1.3 1.2-.3.5-.5 1.1-.6 1.9h3.4zm4.3 3.6c0 .2 0 .4-.1.7 0 .3-.1.6-.3.9-.2.3-.4.6-.8.8-.4.2-.8.3-1.5.3-.3 0-.5 0-.8-.1-.2 0-.5-.1-.6-.2s-.3-.3-.4-.5c-.1-.2-.2-.4-.2-.7 0-.3.1-.6.2-.8.1-.2.2-.4.4-.5l.6-.3c.2-.1.5-.1.7-.2.3 0 .5-.1.8-.1.3 0 .5-.1.7-.1.2 0 .5-.1.7-.2s.4-.2.5-.3v1.3zm23.1 5.5c-.1.6-.4 1.2-.8 1.7s-1 1-1.9 1.3c-.8.4-1.9.6-3.3.6-.6 0-1.2-.1-1.8-.2-.6-.1-1.2-.4-1.7-.7-.5-.3-.9-.7-1.2-1.2-.3-.5-.5-1.1-.6-1.7h3.2c.2.6.5 1 .9 1.3.4.2 1 .4 1.5.4.9 0 1.6-.3 2-.8.4-.6.6-1.2.6-2.1v-1.6c-.4.6-.9 1.1-1.5 1.4-.6.3-1.3.4-2.1.4-.9 0-1.7-.2-2.3-.5-.6-.3-1.2-.7-1.6-1.3-.4-.5-.7-1.2-.9-1.9-.2-.7-.3-1.5-.3-2.3 0-.8.1-1.5.3-2.2.2-.7.5-1.3 1-1.9.4-.5 1-1 1.6-1.3.6-.3 1.4-.5 2.2-.5.8 0 1.5.1 2.1.4.6.3 1.1.8 1.5 1.5v-1.6h3.1v11.1c.2.5.1 1.1 0 1.7zm-4.5-4c.4-.2.6-.4.9-.7.2-.3.4-.7.5-1s.2-.8.2-1.2c0-.5 0-1-.1-1.4-.1-.4-.2-.8-.5-1.2-.2-.3-.5-.6-.8-.8-.4-.2-.8-.3-1.3-.3s-.9.1-1.2.3c-.3.2-.6.4-.8.7-.2.3-.4.7-.5 1.1-.1.4-.1.8-.1 1.3 0 .4 0 .9.1 1.3s.2.8.4 1.1c.2.3.5.6.8.8.3.2.8.3 1.3.3.4 0 .8-.1 1.1-.3zm7.2-5.4c.3-.8.7-1.4 1.2-2 .5-.5 1.2-1 1.9-1.3.7-.3 1.6-.4 2.5-.4.9 0 1.8.1 2.5.4.8.3 1.4.7 1.9 1.3.5.5.9 1.2 1.2 2 .3.8.4 1.6.4 2.6 0 .9-.1 1.8-.4 2.6-.3.8-.7 1.4-1.2 2-.5.5-1.2 1-1.9 1.2-.8.3-1.6.4-2.5.4-.9 0-1.8-.1-2.5-.4-.7-.3-1.4-.7-1.9-1.2s-.9-1.2-1.2-2c-.3-.8-.4-1.6-.4-2.6s.2-1.8.4-2.6zm3 4c.1.5.2.9.5 1.2.2.4.5.6.9.9.4.2.8.3 1.4.3s1-.1 1.4-.3c.4-.2.7-.5.9-.9.2-.4.4-.8.5-1.2.1-.5.1-.9.1-1.4 0-.5 0-.9-.1-1.4s-.2-.9-.5-1.2c-.2-.4-.5-.6-.9-.9-.4-.2-.8-.3-1.4-.3s-1 .1-1.4.3c-.4.2-.7.5-.9.9-.2.4-.4.8-.5 1.2-.1.5-.1.9-.1 1.4 0 .5 0 .9.1 1.4zm10.9-4c.3-.8.7-1.4 1.2-2 .5-.5 1.2-1 1.9-1.3.7-.3 1.6-.4 2.5-.4.9 0 1.8.1 2.5.4.8.3 1.4.7 1.9 1.3.5.5.9 1.2 1.2 2 .3.8.4 1.6.4 2.6 0 .9-.1 1.8-.4 2.6-.3.8-.7 1.4-1.2 2-.5.5-1.2 1-1.9 1.2-.8.3-1.6.4-2.5.4-.9 0-1.8-.1-2.5-.4-.7-.3-1.4-.7-1.9-1.2s-.9-1.2-1.2-2c-.3-.8-.4-1.6-.4-2.6s.2-1.8.4-2.6zm3 4c.1.5.2.9.5 1.2.2.4.5.6.9.9.4.2.8.3 1.4.3s1-.1 1.4-.3c.4-.2.7-.5.9-.9.2-.4.4-.8.5-1.2.1-.5.1-.9.1-1.4 0-.5 0-.9-.1-1.4s-.2-.9-.5-1.2c-.2-.4-.5-.6-.9-.9-.4-.2-.8-.3-1.4-.3s-1 .1-1.4.3c-.4.2-.7.5-.9.9-.2.4-.4.8-.5 1.2-.1.5-.1.9-.1 1.4 0 .5 0 .9.1 1.4zm19.3 3c-.4.6-.9 1.1-1.5 1.4-.6.3-1.3.4-2.1.4-.9 0-1.7-.2-2.3-.5-.7-.3-1.2-.8-1.7-1.4-.4-.6-.8-1.3-1-2-.2-.8-.3-1.6-.3-2.4 0-.8.1-1.6.3-2.3.2-.7.6-1.4 1-2 .4-.6 1-1 1.6-1.4.7-.3 1.4-.5 2.3-.5.7 0 1.4.1 2 .4.6.3 1.1.7 1.5 1.3v-6h3.3V167h-3.1v-1.5zm-.2-5.9c-.1-.5-.2-.8-.5-1.2-.2-.3-.5-.6-.9-.8-.4-.2-.8-.3-1.3-.3s-1 .1-1.4.3c-.4.2-.7.5-.9.8-.2.4-.4.8-.5 1.2-.1.5-.1.9-.1 1.4 0 .5.1.9.2 1.4.1.5.3.9.5 1.2.2.4.5.6.9.9.4.2.8.3 1.3.3s1-.1 1.3-.3c.4-.2.6-.5.9-.9.2-.4.4-.8.5-1.2.1-.5.1-.9.1-1.4.1-.4 0-.9-.1-1.4zm10.7-2.3v-2.2h1.9v-.9c0-1.1.3-1.9 1-2.6.7-.7 1.7-1 3-1h.9c.3 0 .6 0 .8.1v2.4c-.4 0-.8-.1-1.2-.1-.4 0-.8.1-1 .3-.2.2-.3.6-.3 1v.7h2.2v2.2h-2.2v9.7h-3.3v-9.7h-1.8zm9.4-4v-2.7h3.3v2.7h-3.3zm3.3 1.9V167h-3.3v-11.9h3.3zm5.5 0v2.2c.2-.4.4-.7.6-1 .3-.3.6-.6.9-.8.3-.2.7-.4 1.1-.5.4-.1.8-.2 1.2-.2.2 0 .5 0 .7.1v3c-.2 0-.3-.1-.6-.1h-.6c-.6 0-1.1.1-1.5.3-.4.2-.7.5-1 .8s-.4.7-.5 1.2c-.1.5-.2 1-.2 1.5v5.3h-3.3v-11.9h3.2zm8.4 8.9c.1.3.3.5.6.6.2.2.5.3.8.4.3.1.6.1.9.1.2 0 .5 0 .7-.1.3-.1.5-.1.7-.3.2-.1.4-.3.5-.5.1-.2.2-.4.2-.7 0-.5-.3-.9-1-1.1-.6-.2-1.6-.5-2.7-.7-.5-.1-.9-.2-1.4-.4-.5-.1-.9-.3-1.2-.6-.4-.2-.6-.5-.8-.9-.2-.4-.3-.8-.3-1.3 0-.8.1-1.4.4-1.9.3-.5.7-.9 1.2-1.2.5-.3 1-.5 1.7-.6.6-.1 1.2-.2 1.9-.2.6 0 1.3.1 1.9.2.6.1 1.1.3 1.6.6s.9.7 1.2 1.2c.3.5.5 1.1.6 1.8h-3.1c0-.6-.3-1.1-.7-1.3-.4-.2-.9-.3-1.5-.3h-.6c-.2 0-.4.1-.6.1-.2.1-.3.2-.4.3-.1.1-.2.3-.2.6s.1.5.3.7c.2.2.5.3.8.4.3.1.7.2 1.2.3.4.1.9.2 1.4.3.5.1.9.2 1.4.4.5.2.9.4 1.2.6.4.3.6.6.8.9.2.4.3.8.3 1.4 0 .8-.2 1.4-.5 2-.3.5-.7 1-1.2 1.3-.5.3-1.1.5-1.7.7-.6.1-1.3.2-2 .2s-1.4-.1-2-.2c-.7-.1-1.2-.4-1.8-.7-.5-.3-.9-.7-1.3-1.3-.3-.5-.5-1.2-.5-2h3.1c-.1.6 0 .9.1 1.2zm16-8.9v2.2h-2.4v5.9c0 .6.1.9.3 1.1s.6.3 1.1.3h.5c.2 0 .3 0 .5-.1v2.5c-.3 0-.6.1-.9.1h-1c-.5 0-1 0-1.4-.1-.5-.1-.8-.2-1.2-.4-.3-.2-.6-.5-.8-.8-.2-.4-.3-.8-.3-1.4v-7h-2v-2.2h2v-3.6h3.3v3.6h2.3zm10.5 8.9c.1.3.3.5.6.6.2.2.5.3.8.4.3.1.6.1.9.1.2 0 .5 0 .7-.1.3-.1.5-.1.7-.3.2-.1.4-.3.5-.5.1-.2.2-.4.2-.7 0-.5-.3-.9-1-1.1-.6-.2-1.6-.5-2.7-.7-.5-.1-.9-.2-1.4-.4-.5-.1-.9-.3-1.2-.6-.4-.2-.6-.5-.8-.9-.2-.4-.3-.8-.3-1.3 0-.8.1-1.4.4-1.9.3-.5.7-.9 1.2-1.2.5-.3 1-.5 1.7-.6.6-.1 1.2-.2 1.9-.2.6 0 1.3.1 1.9.2.6.1 1.1.3 1.6.6s.9.7 1.2 1.2c.3.5.5 1.1.6 1.8H184c0-.6-.3-1.1-.7-1.3-.4-.2-.9-.3-1.5-.3h-.6c-.2 0-.4.1-.6.1-.2.1-.3.2-.4.3-.1.1-.2.3-.2.6s.1.5.3.7c.2.2.5.3.8.4.3.1.7.2 1.2.3.4.1.9.2 1.4.3.5.1.9.2 1.4.4.5.2.9.4 1.2.6.4.3.6.6.8.9.2.4.3.8.3 1.4 0 .8-.2 1.4-.5 2-.3.5-.7 1-1.2 1.3-.5.3-1.1.5-1.7.7-.6.1-1.3.2-2 .2s-1.4-.1-2-.2c-.7-.1-1.2-.4-1.8-.7-.5-.3-.9-.7-1.3-1.3-.3-.5-.5-1.2-.5-2h3.1c0 .6.1.9.3 1.2zm15.9-8.9v2.2h-2.4v5.9c0 .6.1.9.3 1.1s.6.3 1.1.3h.5c.2 0 .3 0 .5-.1v2.5c-.3 0-.6.1-.9.1h-1c-.5 0-1 0-1.4-.1-.5-.1-.8-.2-1.2-.4-.3-.2-.6-.5-.8-.8-.2-.4-.3-.8-.3-1.4v-7h-2v-2.2h2v-3.6h3.3v3.6h2.3zm4.9 9c.5.5 1.2.7 2.1.7.7 0 1.2-.2 1.7-.5s.8-.7.9-1h2.9c-.5 1.4-1.2 2.4-2.1 3-.9.6-2.1.9-3.4.9-.9 0-1.8-.1-2.5-.4-.7-.3-1.4-.7-1.9-1.3-.5-.6-.9-1.2-1.2-2-.3-.8-.4-1.6-.4-2.5 0-.9.1-1.7.4-2.5.3-.8.7-1.4 1.2-2 .5-.6 1.2-1 1.9-1.3.7-.3 1.6-.5 2.5-.5 1 0 1.9.2 2.6.6.7.4 1.4.9 1.8 1.6.5.7.8 1.4 1 2.2.2.8.3 1.7.2 2.6h-8.6c.2 1.1.5 1.9.9 2.4zm3.7-6.3c-.4-.4-1-.6-1.8-.6-.5 0-1 .1-1.3.3-.3.2-.6.4-.8.7-.2.3-.4.5-.4.8-.1.3-.1.6-.1.8h5.3c-.2-.9-.5-1.5-.9-2zm9-2.7v1.5c.4-.6.9-1.1 1.5-1.4.6-.3 1.3-.4 2-.4.9 0 1.7.2 2.4.5.7.4 1.2.8 1.7 1.4.4.6.8 1.3 1 2 .2.8.3 1.6.3 2.4 0 .8-.1 1.6-.3 2.3-.2.7-.5 1.4-1 1.9-.4.6-1 1-1.6 1.4-.6.3-1.4.5-2.3.5-.7 0-1.4-.1-2-.4-.6-.3-1.1-.7-1.5-1.3v5.6h-3.3v-16h3.1zm4.2 9.4c.4-.2.6-.5.9-.8.2-.3.4-.7.5-1.2s.1-.9.1-1.4c0-.5 0-.9-.1-1.4-.1-.5-.3-.9-.5-1.2-.2-.4-.5-.6-.9-.9-.4-.2-.8-.3-1.3-.3s-1 .1-1.3.3c-.4.2-.6.5-.9.9-.2.4-.4.8-.5 1.2s-.1.9-.1 1.4c0 .5 0 .9.1 1.4.1.5.3.9.5 1.2.2.3.5.6.9.8.4.2.8.3 1.3.3s1-.1 1.3-.3zm10.3-1.1v3.5h-3.6v-3.5h3.6z"/></svg>