<svg id="Layer_1" xmlns="http://www.w3.org/2000/svg" viewBox="0 0 300 250"><style>.st0{fill:#393}</style><path class="st0" d="M30.1 50.4l8.5 22.8h-5.2l-1.7-5.1h-8.5l-1.8 5.1h-5L25 50.4h5.1zm.3 13.9L27.5 56h-.1l-3 8.4h6zM62.6 68.4c-.1.9-.5 1.7-1 2.5s-1.3 1.4-2.3 1.9c-1 .5-2.3.8-4.1.8-1 0-1.9-.1-2.8-.4s-1.7-.6-2.4-1.2-1.3-1.3-1.7-2.2c-.4-.9-.6-2-.6-3.2v-2h4.5v1c0 .6 0 1.1.1 1.5.1.5.2.9.4 1.2.2.3.5.6.9.8s.9.3 1.5.3c.7 0 1.2-.1 1.5-.4.4-.2.6-.5.8-.9.2-.4.3-.8.3-1.2V50.4h5V66c.1.7 0 1.5-.1 2.4zM67 57.1c.5-1.5 1.2-2.7 2.2-3.8 1-1.1 2.1-1.9 3.5-2.6 1.4-.6 3-.9 4.7-.9 1.8 0 3.3.3 4.7.9 1.4.6 2.6 1.5 3.5 2.6 1 1.1 1.7 2.4 2.2 3.8s.8 3 .8 4.7c0 1.7-.3 3.2-.8 4.6-.5 1.4-1.2 2.7-2.2 3.7-1 1.1-2.1 1.9-3.5 2.5-1.4.6-3 .9-4.7.9-1.7 0-3.3-.3-4.7-.9-1.4-.6-2.6-1.4-3.5-2.5-1-1.1-1.7-2.3-2.2-3.7-.5-1.4-.8-3-.8-4.6 0-1.6.3-3.2.8-4.7zm4.6 7.5c.2.9.6 1.7 1.1 2.4.5.7 1.1 1.3 1.9 1.7.8.4 1.7.7 2.9.7s2.1-.2 2.9-.7c.8-.4 1.4-1 1.9-1.7s.8-1.5 1.1-2.4c.2-.9.3-1.8.3-2.8 0-1-.1-2-.3-2.9-.2-.9-.6-1.8-1.1-2.5s-1.1-1.3-1.9-1.8c-.8-.4-1.7-.7-2.9-.7s-2.1.2-2.9.7c-.8.4-1.4 1-1.9 1.8-.5.7-.8 1.6-1.1 2.5-.2.9-.3 1.9-.3 2.9-.1 1 0 1.9.3 2.8zM108.8 71.4c-1.7 1.5-4.1 2.2-7.1 2.2-3.1 0-5.5-.7-7.2-2.2-1.7-1.5-2.5-3.8-2.5-6.9V50.4h5v14.2c0 .6.1 1.2.2 1.8.1.6.3 1.1.7 1.6.3.5.8.8 1.4 1.1s1.4.4 2.4.4c1.8 0 3-.4 3.7-1.2.7-.8 1-2 1-3.7V50.4h5v14.2c-.1 3-.9 5.3-2.6 6.8zM127.9 50.4c1 0 1.9.2 2.8.5s1.5.8 2.1 1.4c.6.6 1 1.2 1.3 2 .3.8.5 1.6.5 2.4 0 1.3-.3 2.5-.8 3.5-.6 1-1.5 1.7-2.8 2.2v.1c.6.2 1.1.4 1.5.8.4.4.7.8 1 1.2.3.5.4 1 .6 1.6.1.6.2 1.1.2 1.7 0 .4 0 .8.1 1.3 0 .5.1 1 .1 1.5.1.5.1 1 .3 1.5.1.5.3.8.5 1.2h-5c-.3-.7-.4-1.6-.5-2.6-.1-1-.2-2-.3-2.9-.2-1.2-.5-2.1-1.1-2.6-.6-.6-1.5-.8-2.7-.8h-5v8.9h-5V50.4h12.2zm-1.8 10.3c1.1 0 2-.3 2.6-.8.6-.5.9-1.3.9-2.5 0-1.1-.3-1.9-.9-2.4-.6-.5-1.4-.7-2.6-.7h-5.5v6.4h5.5zM143.7 50.4l9.5 15.3h.1V50.4h4.7v22.8h-5L143.5 58h-.1v15.2h-4.7V50.4h5zM179.3 50.4v4.2h-12v4.9h11v3.9h-11V69h12.3v4.2h-17.3V50.4h17zM180.5 50.4h5.6l5.3 9 5.3-9h5.6l-8.5 14v8.7h-5v-8.9l-8.3-13.8z"/><g><path class="st0" d="M18.4 91.2c.4-1.1 1-2 1.7-2.7.7-.8 1.6-1.3 2.7-1.8 1-.4 2.2-.6 3.5-.6s2.5.2 3.5.6c1.1.4 2 1 2.7 1.8.7.8 1.3 1.7 1.7 2.7.4 1.1.6 2.3.6 3.6 0 1.3-.2 2.5-.6 3.6-.4 1.1-1 2-1.7 2.7-.7.8-1.6 1.3-2.7 1.7-1.1.4-2.2.6-3.5.6s-2.5-.2-3.5-.6c-1-.4-1.9-1-2.7-1.7-.7-.8-1.3-1.7-1.7-2.7-.4-1.1-.6-2.3-.6-3.6 0-1.3.2-2.5.6-3.6zm4.1 5.5c.1.6.3 1.2.7 1.7.3.5.7.9 1.2 1.2.5.3 1.1.4 1.9.4.8 0 1.4-.1 1.9-.4.5-.3.9-.7 1.2-1.2s.5-1.1.7-1.7c.1-.6.2-1.3.2-1.9 0-.7-.1-1.3-.2-1.9-.1-.6-.3-1.2-.7-1.7-.3-.5-.7-.9-1.2-1.2-.5-.3-1.2-.5-1.9-.5-.8 0-1.4.2-1.9.5s-.9.7-1.2 1.2c-.3.5-.5 1.1-.7 1.7s-.2 1.3-.2 1.9c0 .7.1 1.3.2 1.9zM36 89.6v-3h2.7v-1.3c0-1.5.5-2.7 1.4-3.6.9-.9 2.3-1.4 4.1-1.4h1.2c.4 0 .8.1 1.2.1v3.4c-.5-.1-1.1-.1-1.7-.1-.6 0-1.1.1-1.3.4-.3.3-.4.8-.4 1.5v1h3.1v3h-3.1V103h-4.5V89.6H36zM57.1 91.6c.1-1.1.3-1.9.8-2.6.5-.7 1.1-1.3 1.8-1.7.7-.4 1.5-.7 2.4-.9.9-.2 1.8-.3 2.7-.3.8 0 1.7.1 2.5.2.9.1 1.6.3 2.3.7.7.3 1.3.8 1.7 1.4.4.6.7 1.4.7 2.4v8.6c0 .7 0 1.5.1 2.1.1.7.2 1.2.4 1.5H68c-.1-.3-.2-.5-.2-.8-.1-.3-.1-.5-.1-.8-.7.7-1.6 1.3-2.6 1.6-1 .3-2 .4-3 .4-.8 0-1.5-.1-2.2-.3-.7-.2-1.3-.5-1.8-.9s-.9-.9-1.2-1.5c-.3-.6-.4-1.3-.4-2.2 0-.9.2-1.7.5-2.3.3-.6.8-1.1 1.3-1.5.5-.4 1.1-.6 1.8-.8s1.3-.3 2-.4 1.4-.2 2-.3c.7-.1 1.2-.2 1.8-.3.5-.1.9-.3 1.2-.6.3-.2.4-.6.4-1.1 0-.5-.1-.9-.2-1.2s-.4-.5-.6-.7c-.3-.2-.6-.3-.9-.3-.4-.1-.7-.1-1.1-.1-.9 0-1.6.2-2.1.6s-.8 1-.9 1.9h-4.6zM67.5 95c-.2.2-.4.3-.7.4s-.6.2-.9.2c-.3.1-.7.1-1 .2-.4 0-.7.1-1.1.2-.3.1-.7.1-1 .3-.3.1-.6.2-.9.4-.2.2-.4.4-.6.7-.1.3-.2.6-.2 1.1 0 .4.1.7.2 1 .1.3.4.5.6.7.3.2.6.3.9.3.3.1.7.1 1.1.1.9 0 1.6-.1 2.1-.4.5-.3.9-.7 1.1-1.1.2-.4.4-.8.4-1.3.1-.4.1-.8.1-1V95zM83.1 84.5v-4.2h18.7v4.2H95V103h-5V84.5h-6.9zM109.4 80.3V89h9.2v-8.7h5V103h-5v-9.8h-9.2v9.8h-5V80.3h5zM127.8 87c.5-1.5 1.2-2.7 2.2-3.8 1-1.1 2.1-1.9 3.5-2.6 1.4-.6 3-.9 4.7-.9 1.8 0 3.3.3 4.7.9 1.4.6 2.6 1.5 3.5 2.6 1 1.1 1.7 2.4 2.2 3.8.5 1.5.8 3 .8 4.7 0 1.7-.3 3.2-.8 4.6-.5 1.4-1.2 2.7-2.2 3.7-1 1.1-2.1 1.9-3.5 2.5-1.4.6-3 .9-4.7.9-1.7 0-3.3-.3-4.7-.9s-2.6-1.4-3.5-2.5c-1-1.1-1.7-2.3-2.2-3.7-.5-1.4-.8-3-.8-4.6 0-1.7.3-3.2.8-4.7zm4.6 7.5c.2.9.6 1.7 1.1 2.4.5.7 1.1 1.3 1.9 1.7.8.4 1.7.7 2.9.7s2.1-.2 2.9-.7c.8-.4 1.4-1 1.9-1.7s.8-1.5 1.1-2.4c.2-.9.3-1.8.3-2.8 0-1-.1-2-.3-2.9-.2-.9-.6-1.8-1.1-2.5s-1.1-1.3-1.9-1.8c-.8-.4-1.7-.7-2.9-.7s-2.1.2-2.9.7c-.8.4-1.4 1-1.9 1.8-.5.7-.8 1.6-1.1 2.5-.2.9-.3 1.9-.3 2.9-.1 1 .1 1.9.3 2.8zM169.6 101.3c-1.7 1.5-4.1 2.2-7.1 2.2-3.1 0-5.5-.7-7.2-2.2-1.7-1.5-2.5-3.8-2.5-6.9V80.3h5v14.2c0 .6.1 1.2.2 1.8s.3 1.1.7 1.6c.3.5.8.8 1.4 1.1.6.3 1.4.4 2.4.4 1.8 0 3-.4 3.7-1.2.7-.8 1-2 1-3.7V80.3h5v14.2c0 3-.9 5.3-2.6 6.8zM180.3 97.4c.3.5.6 1 1.1 1.3s1 .6 1.6.7c.6.2 1.3.2 1.9.2.4 0 .9 0 1.4-.1.5-.1 1-.2 1.4-.4.4-.2.8-.5 1.1-.9.3-.4.4-.8.4-1.4 0-.6-.2-1.1-.6-1.5s-.9-.7-1.5-1c-.6-.3-1.4-.5-2.2-.7-.8-.2-1.6-.4-2.5-.6-.9-.2-1.7-.5-2.5-.8-.8-.3-1.5-.7-2.2-1.2-.6-.5-1.2-1.1-1.5-1.8-.4-.7-.6-1.6-.6-2.7 0-1.2.2-2.2.7-3 .5-.9 1.2-1.6 2-2.2.8-.6 1.7-1 2.7-1.3 1-.3 2-.4 3.1-.4 1.2 0 2.3.1 3.4.4 1.1.3 2.1.7 2.9 1.3s1.5 1.4 2 2.3c.5.9.8 2 .8 3.4h-4.8c0-.7-.2-1.2-.4-1.7-.2-.4-.6-.8-1-1.1-.4-.3-.9-.4-1.4-.5-.5-.1-1.1-.2-1.7-.2-.4 0-.8 0-1.2.1-.4.1-.8.2-1.1.4-.3.2-.6.5-.8.8s-.3.7-.3 1.2c0 .4.1.8.3 1.1.2.3.5.5 1 .8.5.2 1.2.5 2.1.7.9.2 2 .5 3.5.9.4.1 1 .2 1.8.5s1.5.6 2.2 1.1c.7.5 1.4 1.1 1.9 2 .5.8.8 1.9.8 3.1 0 1-.2 2-.6 2.9-.4.9-1 1.7-1.8 2.3-.8.6-1.8 1.2-3 1.5-1.2.4-2.5.5-4.1.5-1.3 0-2.5-.2-3.7-.5-1.2-.3-2.2-.8-3.1-1.5-.9-.7-1.6-1.5-2.2-2.5-.5-1-.8-2.2-.8-3.6h4.8c.3.9.4 1.6.7 2.1zM208.5 80.3L217 103h-5.2l-1.7-5.1h-8.5l-1.8 5.1h-5l8.6-22.8h5.1zm.3 13.9l-2.9-8.4h-.1l-3 8.4h6zM224 80.3l9.5 15.3h.1V80.3h4.7V103h-5l-9.5-15.2h-.1V103H219V80.3h5zM252.5 80.3c1.5 0 2.8.2 4.1.7 1.3.5 2.4 1.2 3.3 2.1.9.9 1.6 2.1 2.2 3.5.5 1.4.8 3.1.8 4.9 0 1.7-.2 3.2-.6 4.6-.4 1.4-1.1 2.6-1.9 3.6-.9 1-1.9 1.8-3.2 2.4-1.3.6-2.8.9-4.5.9h-9.8V80.3h9.6zm-.4 18.5c.7 0 1.4-.1 2.1-.4s1.3-.6 1.8-1.2c.5-.5 1-1.2 1.3-2.1.3-.9.5-1.9.5-3.2 0-1.1-.1-2.2-.3-3.1-.2-.9-.6-1.7-1.1-2.4-.5-.7-1.2-1.2-2-1.5-.8-.4-1.9-.5-3.1-.5h-3.6v14.4h4.4z"/></g><g><path class="st0" d="M22.6 127.3c.3.5.6 1 1.1 1.3.5.3 1 .6 1.6.7.6.2 1.3.2 1.9.2.4 0 .9 0 1.4-.1s1-.2 1.4-.4c.4-.2.8-.5 1.1-.9.3-.4.4-.8.4-1.4 0-.6-.2-1.1-.6-1.5-.4-.4-.9-.7-1.5-1-.6-.3-1.4-.5-2.2-.7-.8-.2-1.6-.4-2.5-.6-.9-.2-1.7-.5-2.5-.8-.8-.3-1.5-.7-2.2-1.2-.6-.5-1.2-1.1-1.5-1.8-.4-.7-.6-1.6-.6-2.7 0-1.2.2-2.2.7-3 .5-.9 1.2-1.6 2-2.2.8-.6 1.7-1 2.7-1.3 1-.3 2-.4 3.1-.4 1.2 0 2.3.1 3.4.4 1.1.3 2.1.7 2.9 1.3.9.6 1.5 1.4 2 2.3s.7 2 .7 3.4h-4.8c0-.7-.2-1.2-.4-1.7-.2-.4-.6-.8-1-1.1-.4-.3-.9-.4-1.4-.5-.5-.1-1.1-.2-1.7-.2-.4 0-.8 0-1.2.1s-.8.2-1.1.4c-.3.2-.6.5-.8.8s-.3.7-.3 1.2c0 .4.1.8.3 1.1.2.3.5.5 1 .8.5.2 1.2.5 2.1.7.9.2 2 .5 3.5.9.4.1 1 .2 1.8.5.8.2 1.5.6 2.2 1.1.7.5 1.4 1.1 1.9 2 .5.8.8 1.9.8 3.1 0 1-.2 2-.6 2.9-.4.9-1 1.7-1.8 2.3s-1.8 1.2-3 1.5-2.5.5-4.1.5c-1.3 0-2.5-.2-3.7-.5s-2.2-.8-3.1-1.5c-.9-.7-1.6-1.5-2.2-2.5-.5-1-.8-2.2-.8-3.6h4.8c.4.9.5 1.6.8 2.1zM46.5 110.1l5.3 15.7h.1l5-15.7h7v22.8h-4.7v-16.1h-.1l-5.6 16.1h-3.9l-5.6-16h-.1v16h-4.7v-22.8h7.3zM73.4 110.1v22.8h-5v-22.8h5zM82.8 110.1v18.6h11.1v4.2H77.8v-22.8h5zM113.7 110.1v4.2h-12v4.9h11v3.9h-11v5.6H114v4.2H96.7v-22.8h17zM121.2 127.3c.3.5.6 1 1.1 1.3.5.3 1 .6 1.6.7.6.2 1.3.2 1.9.2.4 0 .9 0 1.4-.1s1-.2 1.4-.4c.4-.2.8-.5 1.1-.9.3-.4.4-.8.4-1.4 0-.6-.2-1.1-.6-1.5-.4-.4-.9-.7-1.5-1-.6-.3-1.4-.5-2.2-.7-.8-.2-1.6-.4-2.5-.6-.9-.2-1.7-.5-2.5-.8-.8-.3-1.5-.7-2.2-1.2-.6-.5-1.2-1.1-1.5-1.8-.4-.7-.6-1.6-.6-2.7 0-1.2.2-2.2.7-3 .5-.9 1.2-1.6 2-2.2.8-.6 1.7-1 2.7-1.3 1-.3 2-.4 3.1-.4 1.2 0 2.3.1 3.4.4 1.1.3 2.1.7 2.9 1.3.9.6 1.5 1.4 2 2.3.5.9.8 2 .8 3.4h-4.8c0-.7-.2-1.2-.4-1.7-.2-.4-.6-.8-1-1.1-.4-.3-.9-.4-1.4-.5-.5-.1-1.1-.2-1.7-.2-.4 0-.8 0-1.2.1s-.8.2-1.1.4c-.3.2-.6.5-.8.8s-.3.7-.3 1.2c0 .4.1.8.3 1.1.2.3.5.5 1 .8.5.2 1.2.5 2.1.7.9.2 2 .5 3.5.9.4.1 1 .2 1.8.5.8.2 1.5.6 2.2 1.1.7.5 1.4 1.1 1.9 2 .5.8.8 1.9.8 3.1 0 1-.2 2-.6 2.9-.4.9-1 1.7-1.8 2.3s-1.8 1.2-3 1.5-2.5.5-4.1.5c-1.3 0-2.5-.2-3.7-.5s-2.2-.8-3.1-1.5c-.9-.7-1.6-1.5-2.2-2.5-.5-1-.8-2.2-.8-3.6h4.8c.3.9.4 1.6.7 2.1z"/></g><g><path d="M22.8 140v8.3h.1c.6-.8 1.3-1.5 2.2-1.9.9-.4 1.9-.6 3-.6.8 0 1.6.2 2.5.5.8.3 1.5.9 2.2 1.6.6.7 1.2 1.6 1.6 2.7.4 1.1.6 2.4.6 3.9s-.2 2.8-.6 3.9c-.4 1.1-.9 2-1.6 2.7-.6.7-1.4 1.2-2.2 1.6-.8.3-1.6.5-2.5.5-1.2 0-2.3-.2-3.3-.6-1-.4-1.7-1-2.2-1.9h-.1v2.1h-4.3V140h4.6zm7.3 12.6c-.1-.6-.4-1.2-.7-1.7s-.7-.9-1.2-1.2c-.5-.3-1.1-.4-1.7-.4-.7 0-1.2.1-1.7.4-.5.3-.9.7-1.2 1.2-.3.5-.6 1.1-.7 1.7-.1.6-.2 1.3-.2 2s.1 1.3.2 2c.1.6.4 1.2.7 1.7.3.5.7.9 1.2 1.2.5.3 1.1.4 1.7.4.7 0 1.3-.1 1.7-.4.5-.3.9-.7 1.2-1.2s.6-1.1.7-1.7c.1-.6.2-1.3.2-2 .1-.7 0-1.4-.2-2zM42.6 158.8c.7.7 1.7 1 2.9 1 .9 0 1.7-.2 2.4-.7.7-.5 1.1-.9 1.2-1.5h4c-.6 2-1.6 3.4-2.9 4.2-1.3.9-2.9 1.3-4.8 1.3-1.3 0-2.5-.2-3.5-.6-1-.4-1.9-1-2.6-1.8-.7-.8-1.3-1.7-1.7-2.7-.4-1.1-.6-2.2-.6-3.5 0-1.2.2-2.4.6-3.4.4-1.1 1-2 1.7-2.8.7-.8 1.6-1.4 2.7-1.8 1-.4 2.2-.7 3.4-.7 1.4 0 2.6.3 3.7.8 1 .5 1.9 1.3 2.6 2.2.7.9 1.2 2 1.5 3.1.3 1.2.4 2.4.3 3.7h-12c.1 1.5.4 2.6 1.1 3.2zm5.1-8.6c-.5-.6-1.4-.9-2.5-.9-.7 0-1.3.1-1.8.4-.5.2-.9.5-1.1.9-.3.4-.5.7-.6 1.1-.1.4-.2.8-.2 1.1h7.4c-.2-1.2-.6-2-1.2-2.6zM71.7 164c-.2.9-.6 1.6-1.2 2.4-.6.7-1.5 1.4-2.6 1.9s-2.6.8-4.5.8c-.8 0-1.6-.1-2.5-.3s-1.6-.5-2.3-.9c-.7-.4-1.3-1-1.7-1.6-.5-.7-.7-1.5-.8-2.4h4.5c.2.9.6 1.4 1.2 1.8.6.3 1.3.5 2.1.5 1.3 0 2.2-.4 2.8-1.1.6-.8.9-1.7.8-2.9V160h-.1c-.5.9-1.2 1.5-2.1 1.9-.9.4-1.9.6-2.9.6-1.2 0-2.3-.2-3.2-.7s-1.6-1-2.2-1.8c-.6-.8-1-1.6-1.3-2.6-.3-1-.4-2.1-.4-3.2s.2-2.1.5-3.1.8-1.9 1.4-2.6c.6-.8 1.3-1.4 2.2-1.8.9-.4 1.9-.7 3-.7s2 .2 2.9.6c.8.4 1.5 1.1 2.1 2h.1v-2.2h4.3v15.4c.1.6 0 1.4-.1 2.2zm-6.2-5.5c.5-.3.9-.6 1.2-1s.6-.9.7-1.5c.2-.5.2-1.1.2-1.7 0-.7-.1-1.3-.2-1.9-.1-.6-.3-1.1-.6-1.6s-.7-.8-1.2-1.1c-.5-.3-1.1-.4-1.9-.4-.6 0-1.2.1-1.6.4-.5.3-.8.6-1.1 1-.3.4-.5.9-.7 1.5-.1.6-.2 1.2-.2 1.8 0 .6.1 1.2.2 1.8.1.6.3 1.1.6 1.6s.7.9 1.1 1.1c.5.3 1.1.4 1.8.4.6 0 1.2-.1 1.7-.4zM75.7 143.8V140h4.5v3.7h-4.5zm4.5 2.5v16.5h-4.5v-16.5h4.5zM88.1 146.3v2.3h.1c.6-1 1.3-1.7 2.2-2.1.9-.4 1.8-.7 2.8-.7 1.2 0 2.2.2 3 .5.8.3 1.4.8 1.8 1.4.4.6.8 1.3.9 2.1s.3 1.8.3 2.8v10.1h-4.5v-9.3c0-1.4-.2-2.4-.6-3s-1.2-1-2.3-1c-1.2 0-2.1.4-2.7 1.1-.6.7-.8 1.9-.8 3.6v8.6h-4.5v-16.5h4.3zM106.5 158.7c.2.4.5.6.8.9.3.2.7.4 1.1.5.4.1.8.2 1.3.2.3 0 .7 0 1-.1.4-.1.7-.2 1-.4s.5-.4.7-.6.3-.6.3-1c0-.7-.5-1.2-1.4-1.5-.9-.3-2.2-.7-3.8-1-.7-.1-1.3-.3-1.9-.5-.6-.2-1.2-.5-1.7-.8-.5-.3-.9-.7-1.2-1.2-.3-.5-.4-1.1-.4-1.8 0-1.1.2-1.9.6-2.6s1-1.2 1.6-1.6c.7-.4 1.4-.7 2.3-.8.9-.2 1.7-.2 2.6-.2s1.8.1 2.6.3 1.6.5 2.2.9c.7.4 1.2.9 1.6 1.6.4.7.7 1.5.8 2.5h-4.3c-.1-.9-.4-1.5-1-1.8-.6-.3-1.3-.5-2.1-.5h-.8c-.3 0-.6.1-.8.2-.2.1-.5.3-.6.5-.2.2-.3.5-.3.8 0 .4.1.7.4 1s.7.5 1.2.6c.5.2 1 .3 1.6.4.6.1 1.2.3 1.9.4.7.1 1.3.3 1.9.5.6.2 1.2.5 1.7.8.5.4.9.8 1.2 1.3.3.5.4 1.2.4 1.9 0 1.1-.2 2-.7 2.7-.4.7-1 1.3-1.7 1.8-.7.4-1.5.8-2.4.9-.9.2-1.8.3-2.8.3-1 0-1.9-.1-2.8-.3-.9-.2-1.7-.5-2.4-1s-1.3-1-1.8-1.8c-.5-.7-.7-1.7-.7-2.8h4.3c.2.5.3.9.5 1.3zM142.9 162.8l-2.9-11.1h-.1l-2.8 11.1h-4.7l-5.2-16.5h4.8l3 11.2h.1l2.7-11.2h4.4l2.8 11.2h.1l3-11.2h4.7l-5.2 16.5h-4.7zM154.8 143.8V140h4.5v3.7h-4.5zm4.5 2.5v16.5h-4.5v-16.5h4.5zM171.9 146.3v3h-3.3v8.2c0 .8.1 1.3.4 1.5.3.3.8.4 1.5.4h.7c.2 0 .5-.1.7-.1v3.5c-.4.1-.8.1-1.3.1h-1.4c-.7 0-1.4 0-2-.1-.6-.1-1.2-.3-1.7-.6s-.9-.7-1.1-1.2c-.3-.5-.4-1.2-.4-2v-9.7h-2.7v-3h2.7v-4.9h4.5v4.9h3.4zM178.6 140v8.6h.1c.6-1 1.3-1.7 2.2-2.1.9-.4 1.8-.7 2.6-.7 1.2 0 2.2.2 3 .5.8.3 1.4.8 1.8 1.4s.8 1.3.9 2.1.3 1.8.3 2.8v10.1H185v-9.3c0-1.4-.2-2.4-.6-3-.4-.7-1.2-1-2.3-1-1.2 0-2.1.4-2.7 1.1s-.8 1.9-.8 3.6v8.6h-4.5V140h4.5z"/></g><g><path d="M18.1 181.3c.1-1.1.3-1.9.8-2.6.5-.7 1.1-1.3 1.8-1.7.7-.4 1.5-.7 2.4-.9s1.8-.3 2.7-.3c.8 0 1.7.1 2.5.2.9.1 1.6.3 2.3.7.7.3 1.3.8 1.7 1.4.4.6.7 1.4.7 2.4v8.6c0 .7 0 1.5.1 2.1.1.7.2 1.2.4 1.5h-4.6c-.1-.3-.2-.5-.2-.8s-.1-.5-.1-.8c-.7.7-1.6 1.3-2.6 1.6-1 .3-2 .4-3 .4-.8 0-1.5-.1-2.2-.3-.7-.2-1.3-.5-1.8-.9s-.9-.9-1.2-1.5c-.3-.6-.4-1.4-.4-2.2 0-.9.2-1.7.5-2.3.3-.6.8-1.1 1.3-1.5s1.1-.6 1.8-.8 1.3-.3 2-.4 1.4-.2 2-.3c.7-.1 1.2-.2 1.8-.3.5-.1.9-.3 1.2-.6.3-.2.4-.6.4-1.1 0-.5-.1-.9-.2-1.2s-.4-.5-.6-.7c-.3-.2-.6-.3-.9-.3-.4-.1-.7-.1-1.1-.1-.9 0-1.6.2-2.1.6s-.8 1-.9 1.9h-4.5zm10.5 3.3c-.2.2-.4.3-.7.4s-.6.2-.9.2c-.3.1-.7.1-1 .2-.4 0-.7.1-1.1.2-.3.1-.7.1-1 .3s-.6.2-.9.4c-.2.2-.4.4-.6.7-.1.3-.2.6-.2 1.1 0 .4.1.7.2 1 .1.3.4.5.6.7.3.2.6.3.9.3.3.1.7.1 1.1.1.9 0 1.6-.1 2.1-.4.5-.3.9-.7 1.1-1.1.2-.4.4-.8.4-1.3.1-.4.1-.8.1-1v-1.8zM49.3 188.6c.2.4.5.6.8.9.3.2.7.4 1.1.5.4.1.8.2 1.3.2.3 0 .7 0 1-.1.4-.1.7-.2 1-.4s.5-.4.7-.6.3-.6.3-1c0-.7-.5-1.2-1.4-1.5-.9-.3-2.2-.7-3.8-1-.7-.1-1.3-.3-1.9-.5-.6-.2-1.2-.5-1.7-.8-.5-.3-.9-.7-1.2-1.2-.3-.5-.4-1.1-.4-1.8 0-1.1.2-1.9.6-2.6s1-1.2 1.6-1.6c.7-.4 1.4-.7 2.3-.8.9-.2 1.7-.2 2.6-.2s1.8.1 2.6.3 1.6.5 2.2.9c.7.4 1.2.9 1.6 1.6.4.7.7 1.5.8 2.5h-4.3c-.1-.9-.4-1.5-1-1.8-.6-.3-1.3-.5-2.1-.5h-.8c-.3 0-.6.1-.8.2-.2.1-.5.3-.6.5-.2.2-.3.5-.3.8 0 .4.1.7.4 1s.7.5 1.2.6c.5.2 1 .3 1.6.4.6.1 1.2.3 1.9.4.7.1 1.3.3 1.9.5.6.2 1.2.5 1.7.8.5.4.9.8 1.2 1.3.3.5.4 1.2.4 1.9 0 1.1-.2 2-.7 2.7-.4.7-1 1.3-1.7 1.8-.7.4-1.5.8-2.4.9-.9.2-1.8.3-2.8.3-1 0-1.9-.1-2.8-.3-.9-.2-1.7-.5-2.4-1s-1.3-1-1.8-1.8c-.5-.7-.7-1.7-.7-2.8H49c0 .5.1.9.3 1.3zM62.7 173.6v-3.7h4.5v3.7h-4.5zm4.5 2.6v16.5h-4.5v-16.5h4.5zM75.1 176.2v2.3h.1c.6-1 1.3-1.7 2.2-2.1.9-.4 1.8-.7 2.8-.7 1.2 0 2.2.2 3 .5.8.3 1.4.8 1.8 1.4.4.6.8 1.3.9 2.1s.3 1.8.3 2.8v10.1h-4.5v-9.3c0-1.4-.2-2.4-.6-3s-1.2-1-2.3-1c-1.2 0-2.1.4-2.7 1.1-.6.7-.8 1.9-.8 3.6v8.6h-4.5v-16.5h4.3zM105.3 193.9c-.2.9-.6 1.6-1.2 2.4-.6.7-1.5 1.4-2.6 1.9s-2.6.8-4.5.8c-.8 0-1.6-.1-2.5-.3s-1.6-.5-2.3-.9c-.7-.4-1.3-1-1.7-1.6-.5-.7-.7-1.5-.8-2.4h4.5c.2.9.6 1.4 1.2 1.8.6.3 1.3.5 2.1.5 1.3 0 2.2-.4 2.8-1.1.6-.8.9-1.7.8-2.9v-2.2h-.1c-.5.9-1.2 1.5-2.1 1.9-.9.4-1.9.6-2.9.6-1.2 0-2.3-.2-3.2-.7s-1.6-1-2.2-1.8c-.6-.8-1-1.6-1.3-2.6-.3-1-.4-2.1-.4-3.2s.2-2.1.5-3.1.8-1.9 1.4-2.6c.6-.8 1.3-1.4 2.2-1.8.9-.4 1.9-.7 3-.7s2 .2 2.9.6c.8.4 1.5 1.1 2.1 2h.1v-2.2h4.3v15.4c.2.6.1 1.3-.1 2.2zm-6.2-5.5c.5-.3.9-.6 1.2-1s.6-.9.7-1.5c.2-.5.2-1.1.2-1.7 0-.7-.1-1.3-.2-1.9-.1-.6-.3-1.1-.6-1.6s-.7-.8-1.2-1.1c-.5-.3-1.1-.4-1.9-.4-.6 0-1.2.1-1.6.4-.5.3-.8.6-1.1 1-.3.4-.5.9-.7 1.5-.1.6-.2 1.2-.2 1.8 0 .6.1 1.2.2 1.8.1.6.3 1.1.6 1.6s.7.9 1.1 1.1c.5.3 1.1.4 1.8.4.6 0 1.2-.1 1.7-.4zM113.9 169.9v22.8h-4.5v-22.8h4.5zM122.3 188.7c.7.7 1.7 1 2.9 1 .9 0 1.7-.2 2.4-.7.7-.5 1.1-.9 1.2-1.5h4c-.6 2-1.6 3.4-2.9 4.2-1.3.9-2.9 1.3-4.8 1.3-1.3 0-2.5-.2-3.5-.6-1-.4-1.9-1-2.6-1.8-.7-.8-1.3-1.7-1.7-2.7-.4-1.1-.6-2.2-.6-3.5 0-1.2.2-2.4.6-3.4.4-1.1 1-2 1.7-2.8.7-.8 1.6-1.4 2.7-1.8 1-.4 2.2-.7 3.4-.7 1.4 0 2.6.3 3.7.8 1 .5 1.9 1.3 2.6 2.2.7.9 1.2 2 1.5 3.1.3 1.2.4 2.4.3 3.7h-11.9c-.1 1.5.3 2.6 1 3.2zm5.1-8.7c-.5-.6-1.4-.9-2.5-.9-.7 0-1.3.1-1.8.4-.5.2-.9.5-1.1.9-.3.4-.5.7-.6 1.1-.1.4-.2.8-.2 1.1h7.4c-.3-1.1-.7-2-1.2-2.6zM148.9 187.1c.3.5.6 1 1.1 1.3.5.3 1 .6 1.6.7.6.2 1.3.2 1.9.2.4 0 .9 0 1.4-.1.5-.1 1-.2 1.4-.4s.8-.5 1.1-.9.4-.8.4-1.4c0-.6-.2-1.1-.6-1.5s-.9-.7-1.5-1c-.6-.3-1.4-.5-2.2-.7-.8-.2-1.6-.4-2.5-.6-.9-.2-1.7-.5-2.5-.8-.8-.3-1.5-.7-2.2-1.2s-1.2-1.1-1.5-1.8c-.4-.7-.6-1.6-.6-2.7 0-1.2.2-2.2.7-3 .5-.9 1.2-1.6 2-2.2.8-.6 1.7-1 2.7-1.3 1-.3 2-.4 3.1-.4 1.2 0 2.3.1 3.4.4 1.1.3 2.1.7 2.9 1.3.9.6 1.5 1.4 2 2.3.5.9.8 2 .8 3.4H157c0-.7-.2-1.2-.4-1.7-.2-.4-.6-.8-1-1.1-.4-.3-.9-.4-1.4-.5-.5-.1-1.1-.2-1.7-.2-.4 0-.8 0-1.2.1-.4.1-.8.2-1.1.4-.3.2-.6.5-.8.8-.2.3-.3.7-.3 1.2 0 .4.1.8.3 1.1.2.3.5.5 1 .8.5.2 1.2.5 2.1.7.9.2 2 .5 3.5.9.4.1 1 .2 1.8.5.8.2 1.5.6 2.2 1.1.7.5 1.4 1.1 1.9 2 .5.8.8 1.9.8 3.1 0 1-.2 2-.6 2.9-.4.9-1 1.7-1.8 2.3-.8.6-1.8 1.2-3 1.5-1.2.4-2.5.5-4.1.5-1.3 0-2.5-.2-3.7-.5-1.2-.3-2.2-.8-3.1-1.5-.9-.7-1.6-1.5-2.2-2.5-.5-1-.8-2.2-.8-3.6h4.8c.3.9.4 1.5.7 2.1zM164 174.1v-4.2h18.7v4.2h-6.8v18.6h-5v-18.6H164zM202.3 169.9v4.2h-12v4.9h11v3.9h-11v5.6h12.3v4.2h-17.3v-22.8h17zM216.2 169.9c1.4 0 2.6.2 3.6.6 1 .4 1.8 1 2.4 1.6.6.7 1.1 1.5 1.4 2.3s.4 1.8.4 2.7c0 .9-.1 1.8-.4 2.7-.3.9-.7 1.7-1.4 2.3-.6.7-1.4 1.2-2.4 1.6-1 .4-2.2.6-3.6.6h-5.3v8.2h-5v-22.8h10.3zm-1.4 10.7c.6 0 1.1 0 1.7-.1s1-.2 1.4-.5c.4-.2.7-.6 1-1s.4-1 .4-1.8-.1-1.3-.4-1.8c-.2-.4-.6-.8-1-1-.4-.2-.9-.4-1.4-.5s-1.1-.1-1.7-.1h-3.9v6.8h3.9z"/></g></svg>