<svg xmlns="http://www.w3.org/2000/svg" viewBox="0 0 300 250"><path d="M85.9 52.8c.7 0 1.4.1 2 .4.6.2 1.1.6 1.5 1 .4.4.7.9 1 1.4.2.5.3 1.1.3 1.8 0 1-.2 1.8-.6 2.5-.4.7-1.1 1.2-2 1.6.4.1.8.3 1.1.6.3.3.5.6.7.9.2.3.3.7.4 1.1.1.4.1.8.2 1.2v.9c0 .4 0 .7.1 1.1 0 .4.1.7.2 1 .1.3.2.6.4.8h-3.6c-.2-.5-.3-1.1-.4-1.9 0-.7-.1-1.4-.2-2.1-.1-.9-.4-1.5-.8-1.9-.4-.4-1-.6-1.9-.6h-3.6V69h-3.6V52.8h8.8zm-1.3 7.4c.8 0 1.4-.2 1.9-.6.4-.4.6-1 .6-1.8s-.2-1.4-.6-1.7c-.4-.4-1-.5-1.9-.5h-3.9v4.6h3.9zM96.8 66.3c.5.5 1.2.7 2.1.7.7 0 1.2-.2 1.7-.5s.8-.7.9-1h2.9c-.5 1.4-1.2 2.4-2.1 3-.9.6-2.1.9-3.4.9-.9 0-1.8-.1-2.5-.4-.7-.3-1.4-.7-1.9-1.3-.5-.5-.9-1.2-1.2-2-.3-.8-.4-1.6-.4-2.5 0-.9.1-1.7.4-2.5.3-.8.7-1.4 1.2-2 .5-.6 1.2-1 1.9-1.3.7-.3 1.6-.5 2.5-.5 1 0 1.9.2 2.6.6.7.4 1.4.9 1.8 1.6s.8 1.4 1 2.2c.2.8.3 1.7.2 2.6H96c0 1.2.3 1.9.8 2.4zm3.6-6.2c-.4-.4-1-.6-1.8-.6-.5 0-1 .1-1.3.3s-.6.4-.8.7c-.2.3-.4.5-.4.8-.1.2-.1.4-.1.7h5.3c-.2-.9-.5-1.5-.9-1.9zM106.3 61c0-.8.2-1.4.6-1.9.3-.5.8-.9 1.3-1.2s1.1-.5 1.8-.7 1.3-.2 2-.2c.6 0 1.2 0 1.8.1.6.1 1.2.2 1.7.5.5.2.9.6 1.2 1s.5 1 .5 1.7v6.2c0 .5 0 1 .1 1.5s.2.9.3 1.1h-3.3c-.1-.2-.1-.4-.1-.6 0-.2-.1-.4-.1-.6-.5.5-1.1.9-1.8 1.1-.7.2-1.4.3-2.2.3-.6 0-1.1-.1-1.6-.2s-.9-.4-1.3-.6c-.4-.3-.7-.7-.9-1.1-.2-.4-.3-1-.3-1.6 0-.7.1-1.2.4-1.7.2-.4.5-.8.9-1 .4-.3.8-.5 1.3-.6l1.5-.3c.5-.1 1-.1 1.4-.2.5 0 .9-.1 1.3-.2s.7-.2.9-.4c.2-.2.3-.4.3-.8s-.1-.6-.2-.8c-.1-.2-.3-.4-.5-.5-.2-.1-.4-.2-.7-.2-.3 0-.5-.1-.8-.1-.6 0-1.1.1-1.5.4-.4.3-.6.7-.6 1.4h-3.4zm7.5 2.4c-.1.1-.3.2-.5.3-.2.1-.4.1-.7.2-.2 0-.5.1-.7.1-.3 0-.5.1-.8.1-.2 0-.5.1-.7.2l-.6.3c-.2.1-.3.3-.4.5s-.2.5-.2.8c0 .3.1.5.2.7.1.2.3.4.4.5.2.1.4.2.6.2.2 0 .5.1.8.1.6 0 1.1-.1 1.5-.3.4-.2.6-.5.8-.8.2-.3.3-.6.3-.9s.1-.6.1-.7v-1.3zM128 67.7c-.4.6-.9 1.1-1.5 1.4-.6.3-1.3.4-2.1.4-.9 0-1.7-.2-2.3-.5s-1.2-.8-1.7-1.4c-.4-.6-.8-1.3-1-2-.2-.8-.3-1.6-.3-2.4 0-.8.1-1.6.3-2.3.2-.7.6-1.4 1-2 .4-.6 1-1 1.6-1.4s1.4-.5 2.3-.5c.7 0 1.4.1 2 .4.6.3 1.1.7 1.5 1.3v-6h3.3v16.4H128v-1.4zm-.1-5.9c-.1-.5-.2-.8-.5-1.2-.2-.3-.5-.6-.9-.8-.4-.2-.8-.3-1.3-.3s-1 .1-1.4.3c-.4.2-.7.5-.9.8-.2.4-.4.8-.5 1.2-.1.5-.1.9-.1 1.4 0 .5.1.9.2 1.4s.3.9.5 1.2c.2.4.5.6.9.9.4.2.8.3 1.3.3s1-.1 1.3-.3c.4-.2.6-.5.9-.9.2-.4.4-.8.5-1.2.1-.5.1-.9.1-1.4 0-.5 0-1-.1-1.4zM133.8 61.1v-3.5h3.6v3.5h-3.6zm3.6 4.5v3.5h-3.6v-3.5h3.6z"/><g><path d="M146.3 55.8l.6-3h13.7l-.6 3h-4.9l-2.8 13.3h-3.6l2.8-13.3h-5.2zM165.5 52.8l-1.2 5.9c.1-.2.3-.4.5-.6.2-.2.5-.4.8-.6.3-.2.7-.3 1.1-.4.4-.1.9-.2 1.4-.2 2.3 0 3.5 1.1 3.5 3.2v.5c0 .2-.1.4-.1.6 0 .2-.1.4-.1.6s-.1.3-.1.4l-1.5 6.9h-3.3l1.4-6.9c0-.2.1-.4.1-.7.1-.3.1-.5.1-.7 0-.4-.2-.6-.5-.9-.3-.2-.7-.3-1.1-.3-.5 0-.9.1-1.3.3-.4.2-.7.4-1 .7-.3.3-.5.7-.7 1.1-.2.4-.3.8-.4 1.2l-1.3 6.3h-3.2l3.4-16.4h3.5zM176.5 64.2v.5c0 .7.2 1.2.6 1.7s1.1.6 2 .6c.3 0 .6 0 .9-.1.3-.1.5-.2.7-.4.2-.2.4-.3.5-.5.1-.2.3-.4.4-.6h3.3c-.3.7-.6 1.3-.9 1.8s-.8.9-1.3 1.3-1.1.6-1.7.8c-.7.2-1.4.3-2.3.3-.8 0-1.5-.1-2.2-.3s-1.2-.5-1.7-1c-.5-.4-.8-1-1.1-1.6-.3-.6-.4-1.4-.4-2.2 0-.9.2-1.9.5-2.7.3-.9.7-1.7 1.3-2.3.6-.7 1.2-1.2 2.1-1.6.8-.4 1.7-.6 2.7-.6.8 0 1.6.1 2.3.3.7.2 1.3.5 1.7 1s.9 1 1.1 1.6c.3.6.4 1.4.4 2.3 0 .6-.1 1.2-.2 1.9h-8.7v-.2zm5.7-3.1c-.1-.3-.2-.6-.3-.8-.2-.2-.4-.4-.7-.6-.3-.1-.7-.2-1.1-.2-.5 0-.9.1-1.2.2-.4.1-.7.3-.9.6-.3.2-.5.5-.7.8-.2.3-.3.6-.4 1h5.4c0-.4-.1-.7-.1-1zM191.6 57.3l-.5 2.1c.4-.8.9-1.4 1.7-1.9s1.5-.6 2.4-.6c.3 0 .7 0 1 .1l-.7 3.2c-.2 0-.5-.1-.7-.1-.2 0-.5-.1-.7-.1-.6 0-1.2.1-1.6.3s-.8.5-1.1.9-.5.8-.7 1.2c-.2.5-.3 1-.4 1.5l-1.1 5.2H186l2.5-11.9h3.1zM198.1 64.2v.5c0 .7.2 1.2.6 1.7s1.1.6 2 .6c.3 0 .6 0 .9-.1.3-.1.5-.2.7-.4.2-.2.4-.3.5-.5.1-.2.3-.4.4-.6h3.3c-.3.7-.6 1.3-.9 1.8s-.8.9-1.3 1.3-1.1.6-1.7.8c-.7.2-1.4.3-2.3.3-.8 0-1.5-.1-2.2-.3s-1.2-.5-1.7-1c-.5-.4-.8-1-1.1-1.6-.3-.6-.4-1.4-.4-2.2 0-.9.2-1.9.5-2.7.3-.9.7-1.7 1.3-2.3.6-.7 1.2-1.2 2.1-1.6.8-.4 1.7-.6 2.7-.6.8 0 1.6.1 2.3.3.7.2 1.3.5 1.7 1s.9 1 1.1 1.6c.3.6.4 1.4.4 2.3 0 .6-.1 1.2-.2 1.9h-8.7c.1-.3 0-.2 0-.2zm5.8-3.1c-.1-.3-.2-.6-.3-.8-.2-.2-.4-.4-.7-.6-.3-.1-.7-.2-1.1-.2-.5 0-.9.1-1.2.2-.4.1-.7.3-.9.6-.3.2-.5.5-.7.8-.2.3-.3.6-.4 1h5.4c-.1-.4-.1-.7-.1-1zM214.8 52.8l-.7 3.5c-.1.5-.3 1-.5 1.5s-.5.8-.8 1.2c-.3.3-.8.6-1.3.8-.5.2-1.1.3-1.9.4l.3-1.6c.7-.1 1.1-.4 1.4-.7.3-.4.5-.9.6-1.5h-1.6l.7-3.5h3.8zM220.3 59.6c-.3-.3-.7-.4-1.4-.4-.6 0-1.1.1-1.4.3-.4.2-.6.5-.6.9 0 .3.1.5.3.7.2.2.6.4 1.2.5l1.6.5c.4.1.9.3 1.2.5.4.2.7.4 1 .7.3.3.5.6.7 1 .2.4.2.8.2 1.3 0 .7-.2 1.4-.5 1.9s-.8.9-1.3 1.2c-.5.3-1.1.6-1.8.7-.7.1-1.4.2-2 .2-.6 0-1.2-.1-1.8-.2-.6-.1-1.1-.3-1.6-.6s-.9-.7-1.2-1.1c-.3-.5-.5-1.1-.5-1.8v-.5h3v.4c0 .3.1.5.2.7.1.2.3.4.5.5s.5.2.8.3c.3.1.6.1.8.1.2 0 .5 0 .7-.1.2 0 .5-.1.7-.2.2-.1.4-.3.5-.4s.2-.4.2-.7c0-.4-.1-.7-.3-.9-.2-.2-.5-.3-.8-.4l-2.5-.8c-.4-.1-.8-.3-1.1-.4s-.6-.3-.8-.6c-.2-.2-.4-.5-.5-.8-.1-.3-.2-.7-.2-1.2 0-.7.2-1.3.5-1.8s.8-.9 1.3-1.2 1.1-.5 1.7-.6c.6-.1 1.2-.2 1.8-.2.6 0 1.3.1 1.9.2.6.1 1.1.3 1.6.6s.8.7 1.1 1.2c.3.5.4 1.1.4 1.9h-3c-.2-.7-.3-1.1-.6-1.4z"/></g><g><path d="M59.9 78.7l4.4 11.6 2.3-11.6H70l-3.5 16.4H63l-4.5-11.5-2.3 11.5h-3.3l3.4-16.4h3.6zM70.5 87.4c.3-.9.8-1.7 1.4-2.3.6-.7 1.3-1.2 2.1-1.6s1.8-.6 2.8-.6c.8 0 1.6.1 2.2.3.7.2 1.3.5 1.8.9s.9.9 1.1 1.6c.3.6.4 1.4.4 2.2 0 1-.2 2-.5 2.9-.3.9-.8 1.7-1.4 2.4-.6.7-1.3 1.2-2.2 1.6s-1.8.6-2.9.6c-1.7 0-3-.4-4-1.3-1-.8-1.5-2.1-1.5-3.8.2-1 .4-2 .7-2.9zm2.9 3.9c.1.3.2.6.4.8.2.2.4.4.7.6.3.1.6.2 1 .2.6 0 1.1-.2 1.6-.5s.8-.7 1.1-1.2c.3-.5.5-1 .6-1.6.1-.6.2-1.1.2-1.6 0-.8-.2-1.4-.5-1.9-.4-.5-1-.7-1.8-.7-.6 0-1.1.2-1.5.5-.4.3-.8.7-1.1 1.2-.3.5-.5 1-.6 1.6-.1.6-.2 1.1-.2 1.6 0 .3 0 .7.1 1zM100 78.7c.8 0 1.6.1 2.2.2.7.1 1.2.3 1.7.6s.8.7 1.1 1.2c.2.5.4 1.1.4 1.9 0 .5-.1.9-.2 1.3s-.3.8-.6 1.2c-.3.3-.6.6-1 .9-.4.2-.8.4-1.3.4.8.2 1.4.6 1.8 1.2.4.6.6 1.3.6 2.1 0 .9-.2 1.7-.5 2.3-.3.7-.8 1.2-1.4 1.7-.6.4-1.2.8-2 1-.7.2-1.5.3-2.4.3h-8.7l3.4-16.4h6.9zm-1.8 13.6c.8 0 1.5-.2 2-.7.5-.4.8-1.1.8-2 0-.4-.1-.8-.3-1-.2-.2-.4-.4-.7-.6-.3-.1-.6-.2-.9-.2h-4.5l-1 4.5h4.6zm1.1-7c.7 0 1.2-.2 1.7-.5s.7-.9.7-1.6c0-.6-.2-1.1-.5-1.3-.3-.2-.8-.4-1.4-.4H96l-.8 3.8h4.1zM109.6 90.1v.5c0 .7.2 1.2.6 1.7.4.4 1.1.6 2 .6.3 0 .6 0 .9-.1.3-.1.5-.2.7-.4.2-.2.4-.3.5-.5.1-.2.3-.4.4-.6h3.3c-.3.7-.6 1.3-.9 1.8-.4.5-.8.9-1.3 1.3-.5.3-1.1.6-1.7.8s-1.4.3-2.3.3c-.8 0-1.5-.1-2.2-.3-.6-.2-1.2-.5-1.7-1s-.8-1-1.1-1.6c-.3-.6-.4-1.4-.4-2.2 0-.9.2-1.9.5-2.7.3-.9.7-1.7 1.3-2.3.6-.7 1.2-1.2 2.1-1.6.8-.4 1.7-.6 2.7-.6.8 0 1.6.1 2.3.3.7.2 1.3.5 1.7 1s.9 1 1.1 1.6c.3.6.4 1.4.4 2.3 0 .6-.1 1.2-.2 1.9h-8.7c.1-.3 0-.2 0-.2zm5.8-3.1c-.1-.3-.2-.6-.3-.8-.2-.2-.4-.4-.7-.6-.3-.1-.7-.2-1.1-.2-.5 0-.9.1-1.2.2-.4.1-.7.3-.9.6-.3.2-.5.5-.7.8-.2.3-.3.6-.4 1h5.4c-.1-.4-.1-.7-.1-1zM128.2 83.2l-.5 2.2h-2.3l-1.2 5.9c0 .1-.1.2-.1.3v.2c0 .2 0 .4.1.5l.3.3c.1.1.2.1.4.1h.4c.4 0 .8 0 1.2-.1l-.6 2.5c-.3 0-.7.1-1 .1h-1c-.4 0-.8 0-1.1-.1s-.7-.2-1-.4c-.3-.2-.5-.4-.7-.7-.2-.3-.3-.7-.2-1.2v-.5c0-.2.1-.4.1-.6l1.3-6.3H120l.5-2.2h2.1l.7-3.6h3.3l-.7 3.6h2.3zM136.6 83.2l-.5 2.2h-2.3l-1.2 5.9c0 .1-.1.2-.1.3v.2c0 .2 0 .4.1.5l.3.3c.1.1.2.1.4.1h.4c.4 0 .8 0 1.2-.1l-.6 2.5c-.3 0-.7.1-1 .1h-1c-.4 0-.8 0-1.1-.1s-.7-.2-1-.4c-.3-.2-.5-.4-.7-.7-.2-.3-.3-.7-.2-1.2v-.5c0-.2.1-.4.1-.6l1.3-6.3h-2.1l.5-2.2h2.1l.7-3.6h3.3l-.7 3.6h2.1zM139.8 90.1v.5c0 .7.2 1.2.6 1.7.4.4 1.1.6 2 .6.3 0 .6 0 .9-.1.3-.1.5-.2.7-.4.2-.2.4-.3.5-.5.1-.2.3-.4.4-.6h3.3c-.3.7-.6 1.3-.9 1.8s-.8.9-1.3 1.3c-.5.3-1.1.6-1.7.8s-1.4.3-2.3.3c-.8 0-1.5-.1-2.2-.3-.6-.2-1.2-.5-1.7-1s-.8-1-1.1-1.6c-.3-.6-.4-1.4-.4-2.2 0-.9.2-1.9.5-2.7.3-.9.7-1.7 1.3-2.3.6-.7 1.2-1.2 2.1-1.6.8-.4 1.7-.6 2.7-.6.8 0 1.6.1 2.3.3.7.2 1.3.5 1.7 1 .5.4.9 1 1.1 1.6.3.6.4 1.4.4 2.3 0 .6-.1 1.2-.2 1.9h-8.7v-.2zm5.7-3.1c-.1-.3-.2-.6-.3-.8-.2-.2-.4-.4-.7-.6-.3-.1-.7-.2-1.1-.2-.5 0-.9.1-1.2.2-.4.1-.7.3-.9.6-.3.2-.5.5-.7.8-.2.3-.3.6-.4 1h5.4c0-.4-.1-.7-.1-1zM154.9 83.2l-.5 2.1c.4-.8.9-1.4 1.7-1.9s1.5-.6 2.4-.6c.3 0 .7 0 1 .1l-.7 3.2c-.2 0-.5-.1-.7-.1-.2 0-.5-.1-.7-.1-.6 0-1.2.1-1.6.3s-.8.5-1.1.9-.5.8-.7 1.2c-.2.5-.3 1-.4 1.5l-1.1 5.2h-3.2l2.5-11.9h3.1zM166.1 81.7l.6-3h13.7l-.6 3h-4.9L172.1 95h-3.6l2.8-13.3h-5.2zM184.4 83.2l-2.5 11.9h-3.3l2.5-11.9h3.3zm-2.9-1.8l.6-2.7h3.3l-.6 2.7h-3.3zM190.1 83.2l-.4 1.7c.5-.7 1.1-1.2 1.8-1.5.7-.3 1.5-.5 2.4-.5.7 0 1.4.2 1.9.5s.8.8 1 1.6c.2-.3.5-.6.8-.8.3-.3.6-.5 1-.7.4-.2.7-.3 1.1-.4.4-.1.8-.1 1.2-.1.5 0 .9.1 1.3.2s.8.3 1.2.6c.3.2.6.6.8.9.2.4.3.8.3 1.3 0 .4 0 .7-.1 1.1-.1.4-.2.7-.2 1.1l-1.5 7h-3.3l1.6-7.5c.1-.3.1-.6.1-.8 0-.4-.1-.6-.4-.9-.3-.2-.6-.4-1-.4s-.8.1-1.2.3c-.3.2-.6.5-.9.8-.3.3-.5.7-.6 1-.2.4-.3.8-.4 1.1l-1.3 6.3H192l1.6-7.5c.1-.3.1-.6.1-.8 0-.4-.1-.6-.4-.9s-.6-.4-1-.4-.8.1-1.2.3c-.3.2-.6.5-.9.8-.3.3-.5.7-.6 1-.2.4-.3.8-.4 1.1l-1.3 6.3h-3.2l2.5-11.9h2.9zM208.9 90.1v.5c0 .7.2 1.2.6 1.7s1.1.6 2 .6c.3 0 .6 0 .9-.1.3-.1.5-.2.7-.4.2-.2.4-.3.5-.5.1-.2.3-.4.4-.6h3.3c-.3.7-.6 1.3-.9 1.8s-.8.9-1.3 1.3-1.1.6-1.7.8c-.7.2-1.4.3-2.3.3-.8 0-1.5-.1-2.2-.3s-1.2-.5-1.7-1c-.5-.4-.8-1-1.1-1.6-.3-.6-.4-1.4-.4-2.2 0-.9.2-1.9.5-2.7.3-.9.7-1.7 1.3-2.3.6-.7 1.2-1.2 2.1-1.6.8-.4 1.7-.6 2.7-.6.8 0 1.6.1 2.3.3.7.2 1.3.5 1.7 1s.9 1 1.1 1.6c.3.6.4 1.4.4 2.3 0 .6-.1 1.2-.2 1.9H209c0-.3-.1-.2-.1-.2zm5.8-3.1c-.1-.3-.2-.6-.3-.8-.2-.2-.4-.4-.7-.6-.3-.1-.7-.2-1.1-.2-.5 0-.9.1-1.2.2-.4.1-.7.3-.9.6-.3.2-.5.5-.7.8-.2.3-.3.6-.4 1h5.4c-.1-.4-.1-.7-.1-1zM233.8 83.2l-.5 2.2H231l-1.2 5.9c0 .1-.1.2-.1.3v.2c0 .2 0 .4.1.5l.3.3c.1.1.2.1.4.1h.4c.4 0 .8 0 1.2-.1l-.5 2.5c-.3 0-.7.1-1 .1h-1c-.4 0-.8 0-1.1-.1-.4-.1-.7-.2-1-.4-.3-.2-.5-.4-.7-.7-.2-.3-.3-.7-.2-1.2v-.5c0-.2.1-.4.1-.6l1.3-6.3h-2.1l.5-2.2h2.1l.7-3.6h3.3l-.7 3.6h2zM234.3 87.4c.3-.9.8-1.7 1.4-2.3.6-.7 1.3-1.2 2.1-1.6.8-.4 1.8-.6 2.8-.6.8 0 1.6.1 2.2.3.7.2 1.3.5 1.8.9s.9.9 1.1 1.6c.3.6.4 1.4.4 2.2 0 1-.2 2-.5 2.9-.3.9-.8 1.7-1.4 2.4-.6.7-1.3 1.2-2.2 1.6-.8.4-1.8.6-2.9.6-1.7 0-3-.4-4-1.3-1-.8-1.5-2.1-1.5-3.8.2-1 .4-2 .7-2.9zm2.9 3.9c.1.3.2.6.4.8.2.2.4.4.7.6.3.1.6.2 1 .2.6 0 1.1-.2 1.6-.5s.8-.7 1.1-1.2c.3-.5.5-1 .6-1.6.1-.6.2-1.1.2-1.6 0-.8-.2-1.4-.5-1.9-.4-.5-1-.7-1.8-.7-.6 0-1.1.2-1.5.5-.4.3-.8.7-1.1 1.2-.3.5-.5 1-.6 1.6-.1.6-.2 1.1-.2 1.6 0 .3 0 .7.1 1z"/></g><g><path d="M54.7 104.6c.8 0 1.6.1 2.2.2.7.1 1.2.3 1.7.6s.8.7 1.1 1.2c.2.5.4 1.1.4 1.9 0 .5-.1.9-.2 1.3s-.3.8-.6 1.2c-.3.3-.6.6-1 .9-.4.2-.8.4-1.3.4.8.2 1.4.6 1.8 1.2.4.6.6 1.3.6 2.1 0 .9-.2 1.7-.5 2.3-.3.7-.8 1.2-1.4 1.7-.6.4-1.2.8-2 1-.7.2-1.5.3-2.4.3h-8.7l3.4-16.4h6.9zM53 118.2c.8 0 1.5-.2 2-.7.5-.4.8-1.1.8-2 0-.4-.1-.8-.3-1-.2-.2-.4-.4-.7-.6-.3-.1-.6-.2-.9-.2h-4.5l-1 4.5H53zm1-7c.7 0 1.2-.2 1.7-.5s.7-.9.7-1.6c0-.6-.2-1.1-.5-1.3-.3-.2-.8-.4-1.4-.4h-3.8l-.8 3.8H54zM68.9 121l.4-1.7c-1.1 1.3-2.4 1.9-4.1 1.9-2.3 0-3.5-1.1-3.5-3.2v-.5c0-.2.1-.4.1-.6 0-.2.1-.4.1-.6 0-.2.1-.3.1-.4l1.5-6.9h3.3l-1.4 6.9c0 .1-.1.2-.1.3 0 .1 0 .3-.1.4v.7c0 .4.2.6.5.9.3.2.7.3 1.1.3.5 0 .9-.1 1.3-.3.4-.2.7-.4 1-.7.3-.3.5-.7.7-1.1.2-.4.3-.8.4-1.2l1.3-6.3h3.3L72 121h-3.1zM79.1 123.9c-.3.3-.6.6-1 .8-.4.2-.8.3-1.2.4s-1 .1-1.6.1h-.8c-.3 0-.6-.1-.9-.1l.6-2.7c.2 0 .4 0 .7.1s.4.1.7.1c.4 0 .7-.1.9-.2.2-.1.4-.3.6-.4.1-.2.3-.3.4-.5.1-.2.2-.3.3-.5l-2.1-11.7H79l1 8.5 4.1-8.5h3.4L80 122.6c-.3.5-.6.9-.9 1.3zM100.3 104.6l-2.8 13.3h7.9l-.6 3H93.3l3.4-16.4h3.6zM112 109.1l-2.5 11.9h-3.3l2.5-11.9h3.3zm-2.9-1.8l.6-2.7h3.3l-.6 2.7h-3.3zM112.9 111.3l.5-2.2h1.9c.2-.8.3-1.4.5-2s.4-1.1.8-1.5c.3-.4.7-.7 1.3-.9.5-.2 1.2-.3 2.1-.3h1.1c.4 0 .7.1 1.1.1l-.5 2.3h-1c-.4 0-.7 0-.9.1-.2.1-.4.2-.5.4-.1.2-.2.4-.3.7s-.1.6-.2.9h2.3l-.5 2.2h-2.3l-2 9.7H113l2-9.7h-2.1zM123.9 116v.5c0 .7.2 1.2.6 1.7.4.4 1.1.6 2 .6.3 0 .6 0 .9-.1.3-.1.5-.2.7-.4.2-.2.4-.3.5-.5.1-.2.3-.4.4-.6h3.3c-.3.7-.6 1.3-.9 1.8-.4.5-.8.9-1.3 1.3-.5.3-1.1.6-1.7.8s-1.4.3-2.3.3c-.8 0-1.5-.1-2.2-.3-.6-.2-1.2-.5-1.7-1s-.8-1-1.1-1.6c-.3-.6-.4-1.4-.4-2.2 0-.9.2-1.9.5-2.7.3-.9.7-1.7 1.3-2.3.6-.7 1.2-1.2 2.1-1.6.8-.4 1.7-.6 2.7-.6.8 0 1.6.1 2.3.3.7.2 1.3.5 1.7 1s.9 1 1.1 1.6c.3.6.4 1.4.4 2.3 0 .6-.1 1.2-.2 1.9h-8.7v-.2zm5.7-3.1c-.1-.3-.2-.6-.3-.8-.2-.2-.4-.4-.7-.6-.3-.1-.7-.2-1.1-.2-.5 0-.9.1-1.2.2-.4.1-.7.3-.9.6-.3.2-.5.5-.7.8-.2.3-.3.6-.4 1h5.4c0-.4-.1-.7-.1-1zM147 104.6l-3.5 16.4H140l3.4-16.4h3.6zM152.1 109.1l-.4 1.7c1.1-1.3 2.4-2 4.1-2 2.3 0 3.5 1.1 3.5 3.2v.5c0 .2-.1.4-.1.6 0 .2-.1.4-.1.6s-.1.3-.1.4l-1.5 6.9h-3.3l1.4-6.9c0-.2.1-.4.1-.7.1-.3.1-.5.1-.7 0-.4-.2-.6-.5-.9-.3-.2-.7-.3-1.1-.3-.5 0-.9.1-1.3.3-.4.2-.7.4-1 .7-.3.3-.5.7-.7 1.1-.2.4-.3.8-.4 1.2l-1.3 6.3h-3.2l2.5-11.9h3.3zM168.5 111.4c-.3-.3-.7-.4-1.4-.4-.6 0-1.1.1-1.4.3-.4.2-.6.5-.6.9 0 .3.1.5.3.7.2.2.6.4 1.2.5l1.6.5c.4.1.9.3 1.2.5.4.2.7.4 1 .7.3.3.5.6.7 1 .2.4.2.8.2 1.3 0 .7-.2 1.4-.5 1.9s-.8.9-1.3 1.2c-.5.3-1.1.6-1.8.7-.7.1-1.4.2-2 .2-.6 0-1.2-.1-1.8-.2-.6-.1-1.1-.3-1.6-.6s-.9-.7-1.2-1.1c-.3-.5-.5-1.1-.5-1.8v-.5h3v.4c0 .3.1.5.2.7.1.2.3.4.5.5s.5.2.8.3c.3.1.6.1.8.1.2 0 .5 0 .7-.1.2 0 .5-.1.7-.2.2-.1.4-.3.5-.4s.2-.4.2-.7c0-.4-.1-.7-.3-.9-.2-.2-.5-.3-.8-.4l-2.5-.8c-.4-.1-.8-.3-1.1-.4s-.6-.3-.8-.6c-.2-.2-.4-.5-.5-.8-.1-.3-.2-.7-.2-1.2 0-.7.2-1.3.5-1.8s.8-.9 1.3-1.2 1.1-.5 1.7-.6c.6-.1 1.2-.2 1.8-.2.6 0 1.3.1 1.9.2.6.1 1.1.3 1.6.6s.8.7 1.1 1.2c.3.5.4 1.1.4 1.9h-3c-.2-.7-.4-1.1-.6-1.4zM180.6 121l.4-1.7c-1.1 1.3-2.4 1.9-4.1 1.9-2.3 0-3.5-1.1-3.5-3.2v-.5c0-.2.1-.4.1-.6 0-.2.1-.4.1-.6 0-.2.1-.3.1-.4l1.5-6.9h3.3l-1.4 6.9c0 .1-.1.2-.1.3 0 .1 0 .3-.1.4v.7c0 .4.2.6.5.9.3.2.7.3 1.1.3.5 0 .9-.1 1.3-.3.4-.2.7-.4 1-.7s.5-.7.7-1.1c.2-.4.3-.8.4-1.2l1.3-6.3h3.3l-2.5 11.9h-3.4zM192 109.1l-.5 2.1c.4-.8.9-1.4 1.7-1.9s1.5-.6 2.4-.6c.3 0 .7 0 1 .1l-.6 3.2c-.2 0-.5-.1-.7-.1-.2 0-.5-.1-.7-.1-.6 0-1.2.1-1.6.3s-.8.5-1.1.9-.5.8-.7 1.2c-.2.5-.3 1-.4 1.5l-1.1 5.2h-3.2L189 109h3zM197.7 110.9c.4-.5.8-.9 1.3-1.2s1.1-.5 1.7-.7 1.3-.2 1.9-.2c.5 0 1.1 0 1.7.1.6.1 1.1.2 1.6.4s.9.5 1.2.9.5.9.4 1.6c0 .6-.1 1.2-.3 2l-1.1 4.8c-.1.2-.1.5-.1.8v.8c0 .2 0 .4.1.7H203v-1.2c-.4.5-1 .9-1.6 1.1-.6.2-1.3.4-2 .4-.6 0-1.2-.1-1.7-.3s-.9-.4-1.2-.7c-.3-.3-.6-.6-.7-1-.2-.4-.2-.8-.2-1.2 0-1.1.4-2.1 1.2-2.8s1.9-1.1 3.3-1.3c.8-.1 1.4-.2 2-.2.6 0 1-.1 1.4-.2.4-.1.7-.2.8-.4s.3-.5.3-.9c0-.3-.1-.6-.2-.7-.1-.2-.3-.3-.5-.4s-.4-.2-.7-.2c-.2 0-.5-.1-.7-.1-.6 0-1.1.1-1.6.4-.5.3-.7.7-.8 1.3h-3c0-.5.3-1.2.6-1.6zm4.9 4.8c-.5.1-.9.1-1.4.1-.3 0-.6.1-.9.1s-.5.2-.8.3c-.2.1-.4.3-.5.6-.1.2-.2.5-.2.9s.2.8.5 1c.4.2.8.3 1.2.3.5 0 .9-.1 1.3-.2l.9-.6c.2-.3.4-.5.6-.9.1-.3.3-.6.3-1l.3-1.1c-.4.3-.9.5-1.3.5zM214.1 109.1l-.4 1.7c1.1-1.3 2.4-2 4.1-2 2.3 0 3.5 1.1 3.5 3.2v.5c0 .2-.1.4-.1.6 0 .2-.1.4-.1.6s-.1.3-.1.4l-1.5 6.9h-3.3l1.4-6.9c0-.2.1-.4.1-.7.1-.3.1-.5.1-.7 0-.4-.2-.6-.5-.9-.3-.2-.7-.3-1.1-.3-.5 0-.9.1-1.3.3-.4.2-.7.4-1 .7-.3.3-.5.7-.7 1.1-.2.4-.3.8-.4 1.2l-1.3 6.3h-3.2l2.5-11.9h3.3zM231.3 111.7c-.4-.3-.9-.5-1.6-.5-.6 0-1.1.2-1.6.5-.4.3-.8.7-1 1.2s-.4 1.1-.6 1.6c-.1.6-.2 1.1-.2 1.6 0 .4 0 .7.1 1 .1.3.2.6.4.8.2.2.4.4.7.5.3.1.6.2 1 .2s.7-.1 1-.2c.3-.1.5-.3.8-.5s.4-.4.6-.7c.1-.3.3-.5.4-.8h3.3c-.5 1.5-1.2 2.6-2.3 3.4-1 .8-2.3 1.2-3.9 1.2-1.7 0-3-.4-3.9-1.2-.9-.8-1.4-2.1-1.4-3.8 0-1 .1-2 .4-2.9.3-.9.7-1.7 1.3-2.4.6-.7 1.3-1.2 2.1-1.6s1.8-.6 2.8-.6c.7 0 1.4.1 2 .3.6.2 1.2.4 1.7.8s.9.8 1.1 1.4c.3.6.4 1.2.4 2h-3.3c.2-.5 0-1-.3-1.3zM238.9 116v.5c0 .7.2 1.2.6 1.7s1.1.6 2 .6c.3 0 .6 0 .9-.1.3-.1.5-.2.7-.4.2-.2.4-.3.5-.5.1-.2.3-.4.4-.6h3.3c-.3.7-.6 1.3-.9 1.8s-.8.9-1.3 1.3-1.1.6-1.7.8c-.7.2-1.4.3-2.3.3-.8 0-1.5-.1-2.2-.3s-1.2-.5-1.7-1c-.5-.4-.8-1-1.1-1.6-.3-.6-.4-1.4-.4-2.2 0-.9.2-1.9.5-2.7.3-.9.7-1.7 1.3-2.3.6-.7 1.2-1.2 2.1-1.6.8-.4 1.7-.6 2.7-.6.8 0 1.6.1 2.3.3.7.2 1.3.5 1.7 1s.9 1 1.1 1.6c.3.6.4 1.4.4 2.3 0 .6-.1 1.2-.2 1.9h-8.7v-.2zm5.7-3.1c-.1-.3-.2-.6-.3-.8-.2-.2-.4-.4-.7-.6-.3-.1-.7-.2-1.1-.2-.5 0-.9.1-1.2.2-.4.1-.7.3-.9.6-.3.2-.5.5-.7.8-.2.3-.3.6-.4 1h5.4c0-.4 0-.7-.1-1zM253 117.4l-.8 3.5h-3.6l.7-3.5h3.7zm-.8-1.3h-1.6l.6-7 .9-4.4h3.5l-1 4.4-2.4 7z"/></g></svg>