<svg id="Layer_1" xmlns="http://www.w3.org/2000/svg" xmlns:xlink="http://www.w3.org/1999/xlink" viewBox="0 0 300 250"><style>.st0{clip-path:url(#SVGID_00000119091576881122402100000014414865472825916828_);fill:#349946}.st1{fill:#fff}</style><defs><path id="SVGID_1_" d="M71.7 146.6h156.6v33H71.7z"/></defs><clipPath id="SVGID_00000170268631757333477680000001344898588082781856_"><use xlink:href="#SVGID_1_" overflow="visible"/></clipPath><path d="M228.3 163.1c0 9.1-8.5 16.5-19 16.5H90.7c-10.4 0-19-7.4-19-16.5s8.5-16.5 19-16.5h118.7c10.4 0 18.9 7.5 18.9 16.5" clip-path="url(#SVGID_00000170268631757333477680000001344898588082781856_)" fill="#349946"/><g><path class="st1" d="M102.5 158.2c.5 0 .9.1 1.3.2s.7.4 1 .6c.3.3.5.6.6.9.1.3.2.7.2 1.1 0 .6-.1 1.2-.4 1.6-.3.5-.7.8-1.3 1 .3.1.5.2.7.4.2.2.3.4.5.6.1.2.2.5.3.7.1.3.1.5.1.8v.6c0 .2 0 .5.1.7 0 .2.1.5.1.7.1.2.1.4.2.5h-2.3c-.1-.3-.2-.7-.2-1.2s-.1-.9-.1-1.3c-.1-.5-.2-1-.5-1.2s-.7-.4-1.3-.4h-2.3v4.1h-2.3v-10.5h5.6zm-.8 4.8c.5 0 .9-.1 1.2-.4.3-.2.4-.6.4-1.2 0-.5-.1-.9-.4-1.1-.3-.2-.7-.3-1.2-.3h-2.5v3h2.5zM115.3 158.2v1.9h-5.6v2.3h5.1v1.8h-5.1v2.6h5.7v1.9h-8v-10.5h7.9zM122.3 158.2l3.9 10.5h-2.4l-.8-2.3h-3.9l-.8 2.3H116l4-10.5h2.3zm.1 6.5l-1.3-3.9-1.4 3.9h2.7zM131.7 158.2c.7 0 1.3.1 1.9.3.6.2 1.1.5 1.5 1s.8 1 1 1.6c.2.6.4 1.4.4 2.3 0 .8-.1 1.5-.3 2.1-.2.6-.5 1.2-.9 1.7s-.9.8-1.5 1.1c-.6.3-1.3.4-2.1.4h-4.5v-10.5h4.5zm-.2 8.6c.3 0 .7-.1 1-.2.3-.1.6-.3.8-.5.2-.3.4-.6.6-1s.2-.9.2-1.5c0-.5-.1-1-.2-1.4-.1-.4-.3-.8-.5-1.1-.2-.3-.5-.5-.9-.7-.4-.2-.9-.2-1.4-.2h-1.7v6.6h2.1zM147.4 158.2l3.9 10.5h-2.4l-.8-2.3h-3.9l-.8 2.3H141l4-10.5h2.4zm.1 6.5l-1.3-3.9-1.4 3.9h2.7zM157.9 158.2c.5 0 .9.1 1.3.2s.7.4 1 .6c.3.3.5.6.6.9.1.3.2.7.2 1.1 0 .6-.1 1.2-.4 1.6s-.7.8-1.3 1c.3.1.5.2.7.4.2.2.3.4.5.6.1.2.2.5.3.7s.1.5.1.8v.6c0 .2 0 .5.1.7 0 .2.1.5.1.7.1.2.1.4.2.5H159c-.1-.3-.2-.7-.2-1.2s-.1-.9-.1-1.3c-.1-.5-.2-1-.5-1.2s-.7-.4-1.3-.4h-2.3v4.1h-2.3v-10.5h5.6zm-.8 4.8c.5 0 .9-.1 1.2-.4.3-.2.4-.6.4-1.2 0-.5-.1-.9-.4-1.1-.3-.2-.7-.3-1.2-.3h-2.5v3h2.5z"/></g><g><path class="st1" d="M161.8 160.2v-1.9h8.6v1.9h-3.2v8.6H165v-8.6h-3.2zM174 158.2v10.5h-2.3v-10.5h2.3zM182.8 161c-.1-.2-.3-.4-.5-.6-.2-.2-.4-.3-.7-.4s-.5-.1-.8-.1c-.5 0-1 .1-1.3.3-.4.2-.7.5-.9.8-.2.3-.4.7-.5 1.2-.1.4-.2.9-.2 1.3s.1.9.2 1.3.3.8.5 1.1c.2.3.5.6.9.8.4.2.8.3 1.3.3.7 0 1.3-.2 1.7-.6s.6-1 .7-1.7h2.2c-.1.7-.2 1.3-.5 1.8s-.6 1-1 1.4c-.4.4-.9.7-1.4.9-.5.2-1.1.3-1.8.3-.8 0-1.5-.1-2.2-.4-.6-.3-1.2-.7-1.6-1.2-.4-.5-.8-1.1-1-1.7-.2-.7-.4-1.4-.4-2.1 0-.8.1-1.5.4-2.2.2-.7.6-1.3 1-1.8s1-.9 1.6-1.2c.6-.3 1.4-.4 2.2-.4.6 0 1.1.1 1.6.3.5.2 1 .4 1.4.7.4.3.7.7 1 1.2s.4 1 .5 1.6H183c0-.4-.1-.7-.2-.9zM189.2 158.2v8.6h5.1v1.9h-7.4v-10.5h2.3zM203.5 158.2v1.9H198v2.3h5.1v1.8H198v2.6h5.7v1.9h-8v-10.5h7.8z"/></g></svg>