<svg id="Layer_1" xmlns="http://www.w3.org/2000/svg" xmlns:xlink="http://www.w3.org/1999/xlink" viewBox="0 0 300 250"><style>.st0,.st1{clip-path:url(#SVGID_00000003092686887563898770000005112579094643813044_);fill:#231f20}.st1{fill:#00b2ee}</style><defs><path id="SVGID_1_" d="M113.5 189.9h73v24.8h-73z"/></defs><clipPath id="SVGID_00000020359612242507231940000001998850269291355795_"><use xlink:href="#SVGID_1_" overflow="visible"/></clipPath><path d="M114 203.2h3.9c3.1 0 3.7 2 3.7 3.4 0 1.3-.6 3.4-3.7 3.3h-2v4.2H114v-10.9zm1.9 5.2h1.9c.9 0 1.9-.4 1.9-1.8s-.9-1.8-1.9-1.8h-1.9v3.6zM122.7 206.2h1.6v1.5c.2-.8 1.2-1.7 2.3-1.7h.7v1.7c-.2 0-.5-.1-.7-.1-1.2 0-2.1 1-2.1 2.7v3.8h-1.7v-7.9zM127.6 210.2c0-2.4 1.4-4.1 4-4.1 2.5 0 4 1.7 4 4.1 0 2.4-1.4 4.2-4 4.2-2.6-.1-4-1.8-4-4.2m6.2 0c0-1.4-.7-2.8-2.2-2.8-1.6 0-2.2 1.4-2.2 2.8s.7 2.8 2.2 2.8c1.5 0 2.2-1.5 2.2-2.8M135.8 206.2h1.4v-2.4h1.7v2.4h1.6v1.3h-1.6v4.2c0 .7.1 1.1.8 1.1.2 0 .5 0 .7-.1v1.3c-.4 0-.7.1-1.1.1-1.8 0-2.1-.7-2.2-2v-4.7h-1.3v-1.2zM142.9 210.6c0 1.2.7 2.3 2.1 2.3 1 0 1.6-.4 1.9-1.3h1.6c-.4 1.7-1.8 2.7-3.6 2.7-2.5 0-3.9-1.7-3.9-4.1 0-2.2 1.5-4.2 3.8-4.2 2.5 0 4 2.2 3.7 4.6h-5.6zm4.1-1.1c-.1-1.1-.8-2.1-2-2.1s-2 .9-2.1 2.1h4.1zM155.3 208.9c-.1-1-.8-1.5-1.8-1.5-.9 0-2.2.5-2.2 2.9 0 1.3.6 2.7 2.1 2.7 1 0 1.7-.7 1.9-1.8h1.7c-.3 2-1.6 3.2-3.6 3.2-2.5 0-3.8-1.8-3.8-4.1 0-2.4 1.3-4.2 3.9-4.2 1.8 0 3.4.9 3.6 2.9h-1.8zM157.5 206.2h1.3v-2.4h1.7v2.4h1.6v1.3h-1.6v4.2c0 .7.1 1.1.8 1.1.2 0 .5 0 .7-.1v1.3c-.4 0-.7.1-1.1.1-1.8 0-2.2-.7-2.2-2v-4.7h-1.3v-1.2zM164.1 203.2h1.7v1.6h-1.7v-1.6zm0 3h1.7v7.9h-1.7v-7.9zM167.1 206.2h1.9l2.4 6.1h.1l2.3-6.1h1.8l-3.2 7.9h-2zM177.8 210.6c0 1.2.7 2.3 2.1 2.3 1 0 1.6-.4 1.9-1.3h1.6c-.4 1.7-1.8 2.7-3.6 2.7-2.5 0-3.9-1.7-3.9-4.1 0-2.2 1.5-4.2 3.8-4.2 2.5 0 4 2.2 3.7 4.6h-5.6zm4.1-1.1c-.1-1.1-.8-2.1-2-2.1s-2 .9-2.1 2.1h4.1z" clip-path="url(#SVGID_00000020359612242507231940000001998850269291355795_)" fill="#231f20"/><path d="M160.8 201.4c-1.2-4.3-4.6-7.7-8.9-8.8-.4-1.3-1.6-2.3-3.1-2.3s-2.7 1-3.1 2.3c-4.3 1.1-7.8 4.5-8.9 8.8l-.1.5h2.6l.1-.3c1-3.2 3.5-5.6 6.6-6.5.6 1 1.6 1.6 2.8 1.6 1.2 0 2.2-.6 2.8-1.6 3.1.9 5.6 3.3 6.6 6.5l.1.3h2.6l-.1-.5z" clip-path="url(#SVGID_00000020359612242507231940000001998850269291355795_)" fill="#00b2ee"/><path d="M185.4 212.8c.4 0 .8.3.8.8 0 .4-.3.8-.8.8-.4 0-.8-.3-.8-.8s.4-.8.8-.8m.6.8c0-.4-.3-.6-.6-.6s-.6.3-.6.6c0 .4.3.6.6.6s.6-.3.6-.6m-.9-.5h.4c.2 0 .3.1.3.3 0 .2-.1.2-.2.3l.3.4h-.1l-.2-.4h-.1v.4h-.1v-1zm.3.4c.1 0 .2 0 .2-.1s-.1-.1-.2-.1h-.2v.3h.2z" clip-path="url(#SVGID_00000020359612242507231940000001998850269291355795_)" fill="#231f20"/></svg>