<svg id="Layer_1" xmlns="http://www.w3.org/2000/svg" viewBox="0 0 728 90"><style>.st0{fill:#393}</style><path class="st0" d="M33.4 19.7c1.2 0 2.2.2 3.1.5s1.5.8 2.1 1.4c.5.6.9 1.2 1.2 2 .2.7.4 1.5.4 2.3 0 .8-.1 1.5-.4 2.3-.2.7-.6 1.4-1.2 2-.5.6-1.2 1-2.1 1.4s-1.9.5-3.1.5H29V39h-4.2V19.7h8.6zm-1.1 9.1c.5 0 1 0 1.4-.1.4-.1.8-.2 1.2-.4s.6-.5.8-.9c.2-.4.3-.9.3-1.5s-.1-1.1-.3-1.5c-.2-.4-.5-.7-.8-.9-.3-.2-.7-.3-1.2-.4-.5-.1-.9-.1-1.4-.1H29v5.8h3.3zM46 25v2.6h.1c.2-.4.4-.8.7-1.2.3-.4.7-.7 1.1-.9.4-.3.8-.5 1.3-.6.4-.1.9-.2 1.4-.2.3 0 .5 0 .8.1v3.6c-.2 0-.4-.1-.6-.1h-.7c-.7 0-1.3.1-1.8.4s-.9.6-1.2 1c-.3.4-.5.9-.6 1.4s-.2 1.1-.2 1.8V39h-3.8V25H46zM52.7 29.3c.1-.9.3-1.6.7-2.2.4-.6.9-1.1 1.5-1.4.6-.4 1.3-.6 2.1-.8s1.5-.2 2.3-.2c.7 0 1.4 0 2.1.1.7.1 1.4.3 2 .6.6.3 1.1.7 1.5 1.2.4.5.6 1.2.6 2v7.3c0 .6 0 1.2.1 1.8.1.6.2 1 .4 1.3h-4c-.1-.2-.1-.4-.2-.7 0-.2-.1-.5-.1-.7-.6.6-1.3 1.1-2.2 1.3s-1.7.4-2.5.4c-.7 0-1.3-.1-1.9-.2s-1.1-.4-1.5-.8c-.4-.3-.8-.8-1-1.3s-.4-1.1-.4-1.9c0-.8.1-1.4.4-2 .3-.5.6-.9 1.1-1.2.4-.3.9-.5 1.5-.7.6-.2 1.1-.3 1.7-.4.6-.1 1.1-.2 1.7-.2.6-.1 1.1-.1 1.5-.2s.8-.3 1-.5c.3-.2.4-.5.4-.9s-.1-.7-.2-1c-.1-.2-.3-.4-.5-.6-.2-.1-.5-.2-.8-.3-.3 0-.6-.1-1-.1-.8 0-1.4.2-1.8.5-.4.3-.7.9-.8 1.6h-3.7zm8.8 2.8c-.2.1-.4.3-.6.3s-.5.1-.8.2c-.3.1-.6.1-.9.1s-.6.1-.9.1c-.3.1-.6.1-.9.2-.3.1-.5.2-.7.4-.2.2-.4.3-.5.6-.1.2-.2.5-.2.9 0 .3.1.6.2.9.1.2.3.4.5.6.2.1.5.2.8.3.3.1.6.1.9.1.8 0 1.3-.1 1.8-.4.4-.3.7-.6.9-.9.2-.4.3-.7.4-1.1 0-.4.1-.6.1-.9v-1.4zM75 27.5c-.6 0-1.1.1-1.5.4s-.8.6-1 1.1c-.3.4-.4.9-.6 1.5-.1.5-.2 1.1-.2 1.6s.1 1 .2 1.5.3 1 .5 1.4c.2.4.6.8 1 1 .4.3.9.4 1.5.4.9 0 1.6-.3 2.1-.8s.8-1.2.9-2.1h3.7c-.3 1.9-1 3.3-2.2 4.2s-2.7 1.5-4.6 1.5c-1 0-2-.2-2.9-.5-.9-.4-1.6-.8-2.2-1.5-.6-.6-1.1-1.4-1.4-2.3-.3-.9-.5-1.8-.5-2.9 0-1.1.2-2.1.5-3 .3-.9.8-1.7 1.4-2.4.6-.7 1.4-1.2 2.2-1.6s1.9-.6 3-.6c.8 0 1.6.1 2.4.3.8.2 1.4.5 2.1 1 .6.4 1.1 1 1.5 1.6s.6 1.4.6 2.3h-3.8c-.1-1.3-1-2.1-2.7-2.1zM91.5 25v2.6h-2.8v6.9c0 .6.1 1.1.3 1.3.2.2.6.3 1.3.3h.6c.2 0 .4 0 .6-.1v3c-.3.1-.7.1-1.1.1h-1.2c-.6 0-1.2 0-1.7-.1s-1-.2-1.4-.5c-.4-.2-.7-.6-1-1s-.4-1-.4-1.7v-8.2h-2.3V25h2.3v-4.2h3.8V25h3zM93.5 22.9v-3.2h3.8v3.2h-3.8zm3.8 2.1v14h-3.8V25h3.8zM107 27.5c-.6 0-1.1.1-1.5.4s-.8.6-1 1.1c-.3.4-.4.9-.6 1.5-.1.5-.2 1.1-.2 1.6s.1 1 .2 1.5.3 1 .5 1.4c.2.4.6.8 1 1 .4.3.9.4 1.5.4.9 0 1.6-.3 2.1-.8s.8-1.2.9-2.1h3.7c-.3 1.9-1 3.3-2.2 4.2s-2.7 1.5-4.6 1.5c-1 0-2-.2-2.9-.5-.9-.4-1.6-.8-2.2-1.5-.6-.6-1.1-1.4-1.4-2.3-.3-.9-.5-1.8-.5-2.9 0-1.1.2-2.1.5-3 .3-.9.8-1.7 1.4-2.4.6-.7 1.4-1.2 2.2-1.6s1.9-.6 3-.6c.8 0 1.6.1 2.4.3.8.2 1.4.5 2.1 1 .6.4 1.1 1 1.5 1.6s.6 1.4.6 2.3h-3.8c-.1-1.3-1.1-2.1-2.7-2.1zM115.7 29.3c.1-.9.3-1.6.7-2.2.4-.6.9-1.1 1.5-1.4.6-.4 1.3-.6 2.1-.8s1.5-.2 2.3-.2c.7 0 1.4 0 2.1.1.7.1 1.4.3 2 .6.6.3 1.1.7 1.5 1.2.4.5.6 1.2.6 2v7.3c0 .6 0 1.2.1 1.8.1.6.2 1 .4 1.3h-3.9c-.1-.2-.1-.4-.2-.7 0-.2-.1-.5-.1-.7-.6.6-1.3 1.1-2.2 1.3s-1.7.4-2.5.4c-.7 0-1.3-.1-1.9-.2s-1.1-.4-1.5-.8c-.4-.3-.8-.8-1-1.3s-.4-1.1-.4-1.9c0-.8.1-1.4.4-2 .3-.5.6-.9 1.1-1.2.4-.3.9-.5 1.5-.7.6-.2 1.1-.3 1.7-.4.6-.1 1.1-.2 1.7-.2.6-.1 1.1-.1 1.5-.2s.8-.3 1-.5c.3-.2.4-.5.4-.9s-.1-.7-.2-1c-.1-.2-.3-.4-.5-.6-.2-.1-.5-.2-.8-.3-.3 0-.6-.1-1-.1-.8 0-1.4.2-1.8.5-.4.3-.7.9-.8 1.6h-3.8zm8.8 2.8c-.2.1-.4.3-.6.3s-.5.1-.8.2c-.3.1-.6.1-.9.1s-.6.1-.9.1c-.3.1-.6.1-.9.2-.3.1-.5.2-.7.4-.2.2-.4.3-.5.6-.1.2-.2.5-.2.9 0 .3.1.6.2.9.1.2.3.4.5.6.2.1.5.2.8.3.3.1.6.1.9.1.8 0 1.3-.1 1.8-.4.4-.3.7-.6.9-.9.2-.4.3-.7.4-1.1 0-.4.1-.6.1-.9v-1.4zM135.3 19.7V39h-3.8V19.7h3.8zM160.3 39L157 25.9 153.8 39h-4.3l-5.1-19.3h4.2l3.1 13.1h.1l3.3-13.1h4l3.3 13.3h.1l3.2-13.3h4.2L164.6 39h-4.3zM171.4 22.9v-3.2h3.8v3.2h-3.8zm3.8 2.1v14h-3.8V25h3.8zM181.5 35.5c.2.3.4.5.7.7.3.2.6.3.9.4s.7.1 1.1.1c.3 0 .6 0 .9-.1.3-.1.6-.2.8-.3.2-.1.4-.3.6-.5.2-.2.2-.5.2-.9 0-.6-.4-1-1.1-1.3-.8-.3-1.8-.6-3.2-.9-.6-.1-1.1-.3-1.6-.4-.5-.2-1-.4-1.4-.7-.4-.3-.7-.6-1-1.1-.3-.4-.4-.9-.4-1.6 0-.9.2-1.6.5-2.2.4-.6.8-1 1.4-1.4.6-.3 1.2-.6 1.9-.7.7-.1 1.5-.2 2.2-.2.8 0 1.5.1 2.2.2.7.1 1.3.4 1.9.7.6.3 1 .8 1.4 1.4.4.6.6 1.3.7 2.1h-3.6c-.1-.7-.3-1.2-.8-1.5-.5-.3-1.1-.4-1.8-.4h-.7c-.3 0-.5.1-.7.2-.2.1-.4.2-.5.4-.1.2-.2.4-.2.7 0 .3.1.6.4.8.3.2.6.4 1 .5.4.1.9.3 1.4.4s1.1.2 1.6.4c.6.1 1.1.3 1.6.5s1 .4 1.4.7c.4.3.7.7 1 1.1.3.4.4 1 .4 1.6 0 .9-.2 1.7-.6 2.3-.4.6-.9 1.1-1.4 1.5-.6.4-1.3.6-2 .8-.8.2-1.5.2-2.3.2-.8 0-1.6-.1-2.4-.2s-1.5-.4-2.1-.8-1.1-.9-1.5-1.5c-.4-.6-.6-1.4-.6-2.3h3.6c-.2.6-.1 1 .1 1.3zM202.6 37.2c-.5.8-1 1.3-1.8 1.6s-1.6.5-2.5.5c-1 0-2-.2-2.8-.6-.8-.4-1.4-1-2-1.6s-.9-1.5-1.2-2.4c-.3-.9-.4-1.8-.4-2.8 0-.9.1-1.8.4-2.7.3-.9.6-1.6 1.2-2.3.5-.7 1.2-1.2 1.9-1.6.8-.4 1.7-.6 2.7-.6.8 0 1.6.2 2.4.5.7.4 1.3.9 1.8 1.6h.1v-7h3.8V39h-3.6v-1.8zm-.1-6.9c-.1-.5-.3-1-.6-1.4-.3-.4-.6-.7-1-1-.4-.3-.9-.4-1.6-.4-.6 0-1.2.1-1.6.4s-.8.6-1 1c-.3.4-.5.9-.6 1.4-.1.5-.2 1.1-.2 1.7 0 .5.1 1.1.2 1.6s.3 1 .6 1.4c.3.4.6.8 1.1 1s.9.4 1.5.4 1.2-.1 1.6-.4c.4-.3.8-.6 1-1 .3-.4.4-.9.5-1.4s.2-1.1.2-1.7c0-.5 0-1.1-.1-1.6zM209.3 29c.3-.9.8-1.7 1.5-2.3.6-.6 1.4-1.1 2.3-1.5.9-.4 1.9-.5 3-.5s2.1.2 3 .5c.9.4 1.7.8 2.3 1.5.6.6 1.1 1.4 1.5 2.3.3.9.5 1.9.5 3s-.2 2.1-.5 3c-.3.9-.8 1.7-1.5 2.3-.6.6-1.4 1.1-2.3 1.5-.9.3-1.9.5-3 .5s-2.1-.2-3-.5c-.9-.3-1.6-.8-2.3-1.5-.6-.6-1.1-1.4-1.5-2.3-.3-.9-.5-1.9-.5-3s.2-2.1.5-3zm3.5 4.6c.1.5.3 1 .6 1.4.3.4.6.8 1 1 .4.3 1 .4 1.6.4s1.2-.1 1.6-.4c.4-.3.8-.6 1.1-1 .3-.4.4-.9.6-1.4.1-.5.2-1.1.2-1.6s-.1-1.1-.2-1.6-.3-1-.6-1.4c-.3-.4-.6-.8-1.1-1-.4-.3-1-.4-1.6-.4s-1.2.1-1.6.4c-.4.3-.8.6-1 1-.3.4-.4.9-.6 1.4-.1.5-.2 1.1-.2 1.6s.1 1.1.2 1.6zM229.5 25v1.9h.1c.5-.7 1.1-1.3 1.8-1.7.7-.4 1.5-.6 2.4-.6.9 0 1.7.2 2.4.5s1.3.9 1.7 1.8c.4-.6 1-1.2 1.7-1.6.7-.5 1.6-.7 2.5-.7.7 0 1.4.1 2.1.3.6.2 1.2.5 1.6.9.4.4.8.9 1.1 1.6.3.6.4 1.4.4 2.3V39h-3.8v-7.9c0-.5 0-.9-.1-1.3s-.1-.8-.3-1.1c-.2-.3-.4-.5-.7-.7-.3-.2-.7-.3-1.3-.3s-1 .1-1.3.3c-.3.2-.6.5-.8.8s-.3.7-.4 1.1c-.1.4-.1.9-.1 1.3V39h-3.8v-7.8V30c0-.4-.1-.8-.2-1.1-.1-.3-.4-.6-.7-.8-.3-.2-.8-.3-1.4-.3-.2 0-.4 0-.7.1-.3.1-.6.2-.9.5-.3.2-.5.5-.7 1-.2.4-.3 1-.3 1.7V39H226V25h3.5z"/><g><path class="st0" d="M22.9 55.6V53h2.3v-1.1c0-1.2.4-2.3 1.2-3.1.8-.8 1.9-1.2 3.5-1.2h1c.3 0 .7 0 1 .1v2.9c-.5-.1-.9-.1-1.4-.1-.5 0-.9.1-1.1.4s-.4.7-.4 1.3v.8h2.6v2.6H29V67h-3.8V55.6h-2.3zM33.4 57c.3-.9.8-1.7 1.5-2.3.6-.6 1.4-1.1 2.3-1.5.9-.4 1.9-.5 3-.5s2.1.2 3 .5c.9.4 1.7.8 2.3 1.5.6.6 1.1 1.4 1.5 2.3.3.9.5 1.9.5 3s-.2 2.1-.5 3c-.3.9-.8 1.7-1.5 2.3-.6.6-1.4 1.1-2.3 1.5-.9.3-1.9.5-3 .5s-2.1-.2-3-.5c-.9-.3-1.6-.8-2.3-1.5-.6-.6-1.1-1.4-1.5-2.3-.3-.9-.5-1.9-.5-3s.2-2.1.5-3zm3.5 4.6c.1.5.3 1 .6 1.4.3.4.6.8 1 1 .4.3 1 .4 1.6.4s1.2-.1 1.6-.4c.4-.3.8-.6 1.1-1 .3-.4.4-.9.6-1.4.1-.5.2-1.1.2-1.6s-.1-1.1-.2-1.6-.3-1-.6-1.4c-.3-.4-.6-.8-1.1-1-.4-.3-1-.4-1.6-.4s-1.2.1-1.6.4c-.4.3-.8.6-1 1-.3.4-.4.9-.6 1.4s-.2 1.1-.2 1.6.1 1.1.2 1.6zM53.5 53v2.6h.1c.2-.4.4-.8.7-1.2.3-.4.7-.7 1.1-.9.4-.3.8-.5 1.3-.6.4-.1.9-.2 1.4-.2.3 0 .5 0 .8.1v3.6c-.2 0-.4-.1-.6-.1h-.7c-.7 0-1.3.1-1.8.4-.5.2-.9.6-1.2 1-.3.4-.5.9-.6 1.4s-.2 1.1-.2 1.8V67H50V53h3.5zM76.6 47.7c1.2 0 2.4.2 3.5.6 1.1.4 2 1 2.8 1.8.8.8 1.4 1.8 1.8 3 .4 1.2.7 2.6.7 4.2a16 16 0 0 1-.5 3.9c-.4 1.2-.9 2.2-1.6 3.1-.7.9-1.6 1.5-2.7 2-1.3.4-2.6.7-4 .7h-8.3V47.7h8.3zm-.3 15.7c.6 0 1.2-.1 1.8-.3.6-.2 1.1-.5 1.5-1 .4-.5.8-1.1 1.1-1.8s.4-1.6.4-2.7c0-1-.1-1.8-.3-2.6s-.5-1.5-.9-2c-.4-.6-1-1-1.7-1.3s-1.6-.4-2.6-.4h-3v12.1h3.7zM92 63.6c.6.6 1.4.8 2.5.8.8 0 1.4-.2 2-.6.6-.4.9-.8 1-1.2h3.4c-.5 1.7-1.4 2.9-2.5 3.6-1.1.7-2.5 1.1-4 1.1-1.1 0-2.1-.2-3-.5-.9-.4-1.6-.9-2.2-1.5-.6-.6-1.1-1.4-1.4-2.3-.3-.9-.5-1.9-.5-3 0-1 .2-2 .5-2.9s.8-1.7 1.5-2.3c.6-.7 1.4-1.2 2.3-1.6.9-.4 1.8-.6 2.9-.6 1.2 0 2.2.2 3.1.7.9.5 1.6 1.1 2.2 1.8.6.8 1 1.7 1.2 2.6.3 1 .3 2 .3 3.1H91c.1 1.4.4 2.3 1 2.8zm4.3-7.3c-.5-.5-1.2-.8-2.1-.8-.6 0-1.1.1-1.5.3-.4.2-.7.5-1 .8-.2.3-.4.6-.5 1-.1.3-.2.6-.2.9h6.2c-.1-1-.5-1.7-.9-2.2zM107 53v2h.1c.5-.8 1.1-1.4 1.9-1.8.8-.4 1.6-.6 2.4-.6 1 0 1.9.1 2.5.4.7.3 1.2.7 1.6 1.2.4.5.6 1.1.8 1.8.2.7.2 1.5.2 2.4V67h-3.8v-7.9c0-1.2-.2-2-.5-2.6-.4-.6-1-.9-1.9-.9-1 0-1.8.3-2.3.9-.5.6-.7 1.6-.7 3.1V67h-3.8V53h3.5zM127 53v2.6h-2.8v6.9c0 .6.1 1.1.3 1.3.2.2.6.3 1.3.3h.6c.2 0 .4 0 .6-.1v3c-.3.1-.7.1-1.1.1h-1.2c-.6 0-1.2 0-1.7-.1s-1-.2-1.4-.5c-.4-.2-.7-.6-1-1s-.4-1-.4-1.7v-8.2h-2.3V53h2.3v-4.2h3.8V53h3zM129 50.8v-3.2h3.8v3.2H129zm3.8 2.2v14H129V53h3.8zM139.1 63.5c.2.3.4.5.7.7.3.2.6.3.9.4.4.1.7.1 1.1.1.3 0 .6 0 .9-.1.3-.1.6-.2.8-.3.2-.1.4-.3.6-.5.2-.2.2-.5.2-.9 0-.6-.4-1-1.1-1.3s-1.8-.6-3.2-.9c-.6-.1-1.1-.3-1.6-.4-.5-.2-1-.4-1.4-.7-.4-.3-.7-.6-1-1.1-.3-.4-.4-.9-.4-1.6 0-.9.2-1.6.5-2.2.4-.6.8-1 1.4-1.4s1.2-.6 1.9-.7c.7-.1 1.5-.2 2.2-.2.8 0 1.5.1 2.2.2.7.1 1.3.4 1.9.7.6.3 1 .8 1.4 1.4.4.6.6 1.3.7 2.1h-3.6c-.1-.7-.3-1.2-.8-1.5-.5-.3-1.1-.4-1.8-.4h-.7c-.3 0-.5.1-.7.2-.2.1-.4.2-.5.4-.1.2-.2.4-.2.7 0 .3.1.6.4.8.3.2.6.4 1 .5.4.1.9.3 1.4.4s1.1.2 1.6.4c.6.1 1.1.3 1.6.5s1 .4 1.4.7.7.7 1 1.1.4 1 .4 1.6c0 .9-.2 1.7-.6 2.3-.4.6-.9 1.1-1.4 1.5-.6.4-1.3.6-2 .8-.8.2-1.5.2-2.3.2-.8 0-1.6-.1-2.4-.2-.8-.2-1.5-.4-2.1-.8s-1.1-.9-1.5-1.5c-.4-.6-.6-1.4-.6-2.3h3.6c-.2.6-.1 1 .1 1.3zM158 53v2.6h-2.8v6.9c0 .6.1 1.1.3 1.3.2.2.6.3 1.3.3h.6c.2 0 .4 0 .6-.1v3c-.3.1-.7.1-1.1.1h-1.2c-.6 0-1.2 0-1.7-.1s-1-.2-1.4-.5c-.4-.2-.7-.6-1-1s-.4-1-.4-1.7v-8.2H149V53h2.3v-4.2h3.8V53h2.9zM163.1 63.5c.2.3.4.5.7.7.3.2.6.3.9.4.4.1.7.1 1.1.1.3 0 .6 0 .9-.1.3-.1.6-.2.8-.3.2-.1.4-.3.6-.5.2-.2.2-.5.2-.9 0-.6-.4-1-1.1-1.3s-1.8-.6-3.2-.9c-.6-.1-1.1-.3-1.6-.4-.5-.2-1-.4-1.4-.7-.4-.3-.7-.6-1-1.1-.3-.4-.4-.9-.4-1.6 0-.9.2-1.6.5-2.2.4-.6.8-1 1.4-1.4s1.2-.6 1.9-.7c.7-.1 1.5-.2 2.2-.2.8 0 1.5.1 2.2.2.7.1 1.3.4 1.9.7.6.3 1 .8 1.4 1.4.4.6.6 1.3.7 2.1h-3.6c-.1-.7-.3-1.2-.8-1.5-.5-.3-1.1-.4-1.8-.4h-.7c-.3 0-.5.1-.7.2-.2.1-.4.2-.5.4-.1.2-.2.4-.2.7 0 .3.1.6.4.8.3.2.6.4 1 .5.4.1.9.3 1.4.4s1.1.2 1.6.4c.6.1 1.1.3 1.6.5s1 .4 1.4.7.7.7 1 1.1.4 1 .4 1.6c0 .9-.2 1.7-.6 2.3-.4.6-.9 1.1-1.4 1.5-.6.4-1.3.6-2 .8-.8.2-1.5.2-2.3.2-.8 0-1.6-.1-2.4-.2-.8-.2-1.5-.4-2.1-.8s-1.1-.9-1.5-1.5c-.4-.6-.6-1.4-.6-2.3h3.6c-.2.6-.1 1 .1 1.3z"/></g></svg>