<svg id="Layer_1" xmlns="http://www.w3.org/2000/svg" viewBox="0 0 728 90"><style>.st0{fill:#393}.st1{fill:#231f20}</style><path class="st0" d="M29.3 19v15.7h9.4v3.6H25V19h4.3zM55.5 19v3.6H45.3v4.1h9.3V30h-9.3v4.7h10.4v3.6H41.1V19h14.4zM68.2 19l7.2 19.3H71L69.5 34h-7.2l-1.5 4.3h-4.3L63.8 19h4.4zm.2 11.9L66 23.8h-.1l-2.5 7.1h5zM80 38.3L73.8 19h4.3l4.3 13.6h.1L86.8 19h4.4l-6.4 19.3H80zM107.3 19v3.6H97.1v4.1h9.3V30h-9.3v4.7h10.4v3.6H92.8V19h14.5zM121.1 24.4v1.9h.1c.5-.8 1.1-1.4 1.9-1.8.8-.4 1.6-.6 2.4-.6 1 0 1.9.1 2.5.4.7.3 1.2.7 1.6 1.2s.6 1.1.8 1.8c.2.7.2 1.5.2 2.4v8.6h-3.8v-7.9c0-1.2-.2-2-.5-2.6-.4-.6-1-.9-1.9-.9-1 0-1.8.3-2.3.9-.5.6-.7 1.6-.7 3.1v7.3h-3.8v-14h3.5zM133.5 28.3c.3-.9.8-1.7 1.5-2.3.6-.6 1.4-1.1 2.3-1.5.9-.4 1.9-.5 3-.5s2.1.2 3 .5c.9.4 1.7.8 2.3 1.5.6.6 1.1 1.4 1.5 2.3.3.9.5 1.9.5 3s-.2 2.1-.5 3c-.3.9-.8 1.7-1.5 2.3-.6.6-1.4 1.1-2.3 1.5-.9.3-1.9.5-3 .5s-2.1-.2-3-.5c-.9-.3-1.6-.8-2.3-1.5-.6-.6-1.1-1.4-1.5-2.3-.3-.9-.5-1.9-.5-3s.2-2.1.5-3zM137 33c.1.5.3 1 .6 1.4.3.4.6.8 1 1 .4.3 1 .4 1.6.4s1.2-.1 1.6-.4c.4-.3.8-.6 1.1-1 .3-.4.4-.9.6-1.4.1-.5.2-1.1.2-1.6s-.1-1.1-.2-1.6-.3-1-.6-1.4c-.3-.4-.6-.8-1.1-1-.4-.3-1-.4-1.6-.4s-1.2.1-1.6.4c-.4.3-.8.6-1 1-.3.4-.4.9-.6 1.4-.1.5-.2 1.1-.2 1.6s.1 1.1.2 1.6zM156.3 22.6V19h15.8v3.6h-5.8v15.7h-4.2V22.6h-5.8zM174.2 24.8c.4-1.2 1.1-2.3 1.9-3.2s1.8-1.6 3-2.2c1.2-.5 2.5-.8 4-.8s2.8.3 4 .8c1.2.5 2.2 1.2 3 2.2.8.9 1.4 2 1.9 3.2s.6 2.6.6 4-.2 2.7-.6 3.9c-.4 1.2-1.1 2.3-1.9 3.2-.8.9-1.8 1.6-3 2.1s-2.5.8-4 .8-2.8-.3-4-.8c-1.2-.5-2.2-1.2-3-2.1-.8-.9-1.4-2-1.9-3.2-.4-1.2-.6-2.5-.6-3.9-.1-1.5.1-2.8.6-4zm3.8 6.3c.2.8.5 1.5.9 2.1.4.6 1 1.1 1.6 1.5.7.4 1.5.6 2.4.6s1.8-.2 2.4-.6c.7-.4 1.2-.9 1.6-1.5.4-.6.7-1.3.9-2.1s.3-1.6.3-2.4c0-.8-.1-1.7-.3-2.5-.2-.8-.5-1.5-.9-2.1-.4-.6-1-1.1-1.6-1.5-.7-.4-1.5-.6-2.4-.6s-1.8.2-2.4.6c-.7.4-1.2.9-1.6 1.5-.4.6-.7 1.3-.9 2.1-.2.8-.3 1.6-.3 2.5.1.9.2 1.7.3 2.4zM195.2 24.8c.4-1.2 1.1-2.3 1.9-3.2s1.8-1.6 3-2.2c1.2-.5 2.5-.8 4-.8s2.8.3 4 .8c1.2.5 2.2 1.2 3 2.2.8.9 1.4 2 1.9 3.2s.6 2.6.6 4-.2 2.7-.6 3.9c-.4 1.2-1.1 2.3-1.9 3.2-.8.9-1.8 1.6-3 2.1s-2.5.8-4 .8-2.8-.3-4-.8c-1.2-.5-2.2-1.2-3-2.1-.8-.9-1.4-2-1.9-3.2-.4-1.2-.6-2.5-.6-3.9-.1-1.5.1-2.8.6-4zm3.8 6.3c.2.8.5 1.5.9 2.1.4.6 1 1.1 1.6 1.5.7.4 1.5.6 2.4.6s1.8-.2 2.4-.6c.7-.4 1.2-.9 1.6-1.5.4-.6.7-1.3.9-2.1s.3-1.6.3-2.4c0-.8-.1-1.7-.3-2.5-.2-.8-.5-1.5-.9-2.1-.4-.6-1-1.1-1.6-1.5-.7-.4-1.5-.6-2.4-.6s-1.8.2-2.4.6c-.7.4-1.2.9-1.6 1.5-.4.6-.7 1.3-.9 2.1-.2.8-.3 1.6-.3 2.5.1.9.2 1.7.3 2.4zM214.9 22.6V19h15.8v3.6h-5.8v15.7h-4.2V22.6h-5.8zM237.1 19v7.4h7.8V19h4.2v19.3h-4.2V30h-7.8v8.3h-4.2V19h4.2z"/><g><path class="st1" d="M39.2 64.9c-1.5 1.3-3.5 1.9-6 1.9-2.6 0-4.6-.6-6.1-1.9-1.4-1.3-2.1-3.2-2.1-5.9V47h4.2v12c0 .5 0 1 .1 1.5s.3.9.6 1.3.7.7 1.2.9c.5.2 1.2.4 2.1.4 1.5 0 2.6-.3 3.1-1 .6-.7.9-1.7.9-3.2V47h4.2v12c0 2.6-.7 4.6-2.2 5.9zM49.3 47l8 12.9h.1V47h4v19.3h-4.2l-8-12.9H49v12.9h-4V47h4.3zM74.1 47c.9 0 1.8.1 2.5.2.8.2 1.4.4 1.9.8s1 .9 1.3 1.5c.3.6.4 1.4.4 2.3 0 1-.2 1.8-.7 2.4-.4.6-1.1 1.2-2 1.6 1.2.3 2.1.9 2.7 1.8.6.9.9 1.9.9 3.1 0 1-.2 1.8-.6 2.5s-.9 1.3-1.5 1.7c-.6.5-1.4.8-2.2 1-.8.2-1.7.3-2.5.3H65V47h9.1zm-.5 7.8c.8 0 1.4-.2 1.9-.5.5-.4.7-.9.7-1.8 0-.5-.1-.8-.2-1.1-.2-.3-.4-.5-.6-.7s-.6-.3-.9-.3c-.4-.1-.7-.1-1.1-.1h-4v4.5h4.2zm.2 8.2c.4 0 .8 0 1.2-.1.4-.1.7-.2 1-.4.3-.2.5-.4.7-.8.2-.3.3-.7.3-1.2 0-1-.3-1.7-.8-2.1-.6-.4-1.3-.6-2.2-.6h-4.6V63h4.4zM94.5 47c.9 0 1.6.1 2.3.4s1.3.7 1.8 1.1c.5.5.9 1 1.1 1.7s.4 1.3.4 2.1c0 1.1-.2 2.1-.7 2.9-.5.8-1.3 1.5-2.3 1.9v.1c.5.1 1 .4 1.3.7.3.3.6.6.8 1.1.2.4.4.9.5 1.3.1.5.2 1 .2 1.5 0 .3 0 .7.1 1.1 0 .4 0 .8.1 1.3 0 .4.1.8.2 1.2.1.4.2.7.4 1h-4.2c-.2-.6-.4-1.3-.4-2.2-.1-.8-.1-1.7-.2-2.4-.1-1-.5-1.7-.9-2.2-.5-.5-1.2-.7-2.3-.7h-4.2v7.5h-4.2V47h10.2zM93 55.8c1 0 1.7-.2 2.2-.6.5-.4.7-1.1.7-2.1 0-.9-.2-1.6-.7-2-.5-.4-1.2-.6-2.2-.6h-4.6v5.4H93zM117.7 64.9c-1.5 1.3-3.5 1.9-6 1.9-2.6 0-4.6-.6-6.1-1.9-1.4-1.3-2.1-3.2-2.1-5.8V47h4.2v12c0 .5 0 1 .1 1.5s.3.9.6 1.3.7.7 1.2.9c.5.2 1.2.4 2.1.4 1.5 0 2.6-.3 3.1-1 .6-.7.9-1.7.9-3.2V47h4.2v12c0 2.6-.7 4.6-2.2 5.9zM126.8 61.6c.2.5.5.8.9 1.1.4.3.8.5 1.4.6.5.1 1.1.2 1.6.2.4 0 .8 0 1.2-.1.4-.1.8-.2 1.2-.4.4-.2.7-.4.9-.7.3-.3.4-.7.4-1.2s-.2-.9-.5-1.3c-.3-.3-.8-.6-1.3-.8-.5-.2-1.2-.4-1.8-.6s-1.4-.3-2.1-.5c-.7-.2-1.4-.4-2.1-.7-.7-.3-1.3-.6-1.8-1s-1-.9-1.3-1.6-.5-1.4-.5-2.3c0-1 .2-1.8.6-2.6.4-.7 1-1.3 1.7-1.8s1.5-.8 2.3-1.1c.9-.2 1.7-.4 2.6-.4 1 0 2 .1 2.9.3.9.2 1.8.6 2.5 1.1.7.5 1.3 1.1 1.7 1.9.4.8.6 1.7.6 2.8h-4.1c0-.6-.2-1.1-.4-1.4s-.5-.7-.8-.9c-.3-.2-.7-.4-1.2-.5-.4-.1-.9-.1-1.4-.1-.3 0-.7 0-1 .1-.3.1-.7.2-.9.4-.3.2-.5.4-.7.7-.2.3-.3.6-.3 1s.1.7.2.9c.1.2.4.5.9.6.4.2 1 .4 1.8.6.7.2 1.7.5 2.9.8.4.1.9.2 1.5.4s1.3.5 1.9.9c.6.4 1.2 1 1.6 1.7.5.7.7 1.6.7 2.7 0 .9-.2 1.7-.5 2.5s-.9 1.4-1.5 2c-.7.5-1.5 1-2.5 1.3-1 .3-2.2.5-3.5.5-1.1 0-2.1-.1-3.1-.4s-1.9-.7-2.6-1.2c-.8-.6-1.4-1.3-1.8-2.1-.5-.9-.7-1.9-.6-3.1h4.1c-.1.7 0 1.2.2 1.7zM145.3 47v7.4h7.8V47h4.2v19.3h-4.2V58h-7.8v8.3h-4.2V47h4.2zM175.5 47v3.6h-10.2v4.1h9.3V58h-9.3v4.7h10.4v3.6h-14.6V47h14.4zM186.9 47c1.2 0 2.4.2 3.5.6 1.1.4 2 1 2.8 1.8.8.8 1.4 1.8 1.8 3 .4 1.2.7 2.6.7 4.2a16 16 0 0 1-.5 3.9c-.4 1.2-.9 2.2-1.6 3.1-.7.9-1.6 1.5-2.7 2s-2.4.7-3.8.7h-8.3V47h8.1zm-.3 15.8c.6 0 1.2-.1 1.8-.3.6-.2 1.1-.5 1.5-1 .4-.5.8-1.1 1.1-1.8s.4-1.6.4-2.7c0-1-.1-1.8-.3-2.6s-.5-1.5-.9-2c-.4-.6-1-1-1.7-1.3s-1.6-.4-2.6-.4h-3v12.1h3.7z"/></g></svg>