<svg id="Layer_1" xmlns="http://www.w3.org/2000/svg" viewBox="0 0 300 250"><style>.st0{fill:#393}.st1{fill:#373535}</style><path class="st0" d="M39 77.1v16.3h9.7v3.7H34.6v-20H39zM66.2 77.1v3.7H55.6v4.3h9.7v3.4h-9.7v4.9h10.8v3.7H51.2v-20h15zM79.4 77.1l7.5 20h-4.6l-1.5-4.5h-7.5l-1.6 4.5h-4.4l7.6-20h4.5zm.2 12.3L77.1 82H77l-2.6 7.3h5.2zM91.6 97.1l-6.5-20h4.5l4.5 14.1h.1l4.5-14.1h4.5l-6.6 20h-5zM119.9 77.1v3.7h-10.6v4.3h9.7v3.4h-9.7v4.9h10.8v3.7h-15.2v-20h15zM134.2 82.6v2h.1c.5-.8 1.2-1.5 2-1.8.8-.4 1.6-.6 2.5-.6 1.1 0 1.9.1 2.6.4.7.3 1.2.7 1.6 1.2.4.5.7 1.1.8 1.9.2.7.2 1.6.2 2.5v8.9h-4v-8.2c0-1.2-.2-2.1-.6-2.7-.4-.6-1-.9-2-.9-1.1 0-1.9.3-2.4 1s-.7 1.7-.7 3.2v7.6h-4V82.6h3.9zM147.1 86.7c.4-.9.9-1.7 1.5-2.4.7-.7 1.4-1.2 2.4-1.5.9-.4 1.9-.5 3.1-.5s2.2.2 3.1.5c.9.4 1.7.9 2.4 1.5.7.7 1.2 1.5 1.5 2.4.4.9.5 2 .5 3.1 0 1.2-.2 2.2-.5 3.1-.4.9-.9 1.7-1.5 2.4s-1.4 1.2-2.4 1.5-2 .5-3.1.5-2.2-.2-3.1-.5c-.9-.4-1.7-.9-2.4-1.5-.7-.7-1.2-1.5-1.5-2.4-.4-.9-.5-2-.5-3.1s.2-2.1.5-3.1zm3.6 4.9c.1.6.3 1 .6 1.5.3.4.6.8 1.1 1 .4.3 1 .4 1.7.4s1.2-.1 1.7-.4c.5-.3.8-.6 1.1-1s.5-.9.6-1.5c.1-.6.2-1.1.2-1.7 0-.6-.1-1.1-.2-1.7-.1-.6-.3-1.1-.6-1.5-.3-.4-.6-.8-1.1-1-.5-.3-1-.4-1.7-.4s-1.2.1-1.7.4c-.4.3-.8.6-1.1 1-.3.4-.5.9-.6 1.5s-.2 1.1-.2 1.7c.1.6.1 1.1.2 1.7zM170.8 80.8v-3.7h16.4v3.7h-6v16.3h-4.4V80.8h-6zM189.3 83c.4-1.3 1.1-2.4 1.9-3.3s1.9-1.7 3.1-2.2 2.6-.8 4.1-.8c1.5 0 2.9.3 4.1.8 1.2.5 2.2 1.3 3.1 2.2s1.5 2.1 1.9 3.3c.4 1.3.7 2.7.7 4.2s-.2 2.8-.7 4.1c-.4 1.3-1.1 2.4-1.9 3.3-.8.9-1.9 1.7-3.1 2.2-1.2.5-2.6.8-4.1.8-1.5 0-2.9-.3-4.1-.8-1.2-.5-2.3-1.3-3.1-2.2-.8-.9-1.5-2-1.9-3.3-.4-1.3-.7-2.6-.7-4.1 0-1.5.2-2.9.7-4.2zm4 6.6c.2.8.5 1.5.9 2.1.4.6 1 1.1 1.7 1.5.7.4 1.5.6 2.5.6s1.8-.2 2.5-.6c.7-.4 1.2-.9 1.7-1.5s.7-1.3.9-2.1c.2-.8.3-1.6.3-2.5 0-.9-.1-1.7-.3-2.5-.2-.8-.5-1.6-.9-2.2-.4-.6-1-1.2-1.7-1.5-.7-.4-1.5-.6-2.5-.6s-1.8.2-2.5.6c-.7.4-1.3.9-1.7 1.5-.4.6-.7 1.4-.9 2.2-.2.8-.3 1.7-.3 2.5 0 .9.1 1.7.3 2.5zM211 83c.4-1.3 1.1-2.4 1.9-3.3s1.9-1.7 3.1-2.2 2.6-.8 4.1-.8c1.5 0 2.9.3 4.1.8 1.2.5 2.2 1.3 3.1 2.2s1.5 2.1 1.9 3.3c.4 1.3.7 2.7.7 4.2s-.2 2.8-.7 4.1c-.4 1.3-1.1 2.4-1.9 3.3-.8.9-1.9 1.7-3.1 2.2-1.2.5-2.6.8-4.1.8-1.5 0-2.9-.3-4.1-.8-1.2-.5-2.3-1.3-3.1-2.2-.8-.9-1.5-2-1.9-3.3-.4-1.3-.7-2.6-.7-4.1.1-1.5.3-2.9.7-4.2zm4.1 6.6c.2.8.5 1.5.9 2.1.4.6 1 1.1 1.7 1.5.7.4 1.5.6 2.5.6s1.8-.2 2.5-.6c.7-.4 1.2-.9 1.7-1.5s.7-1.3.9-2.1c.2-.8.3-1.6.3-2.5 0-.9-.1-1.7-.3-2.5-.2-.8-.5-1.6-.9-2.2-.4-.6-1-1.2-1.7-1.5-.7-.4-1.5-.6-2.5-.6s-1.8.2-2.5.6c-.7.4-1.3.9-1.7 1.5-.4.6-.7 1.4-.9 2.2-.2.8-.3 1.7-.3 2.5 0 .9.1 1.7.3 2.5zM231.4 80.8v-3.7h16.4v3.7h-6v16.3h-4.4V80.8h-6zM254.5 77.1v7.7h8.1v-7.7h4.4v20h-4.4v-8.6h-8.1v8.6h-4.4v-20h4.4z"/><g><path class="st1" d="M81.3 124.6c-1.5 1.3-3.6 2-6.3 2-2.7 0-4.8-.7-6.3-2s-2.2-3.3-2.2-6v-12.4H71v12.4c0 .5 0 1.1.1 1.6s.3 1 .6 1.4c.3.4.7.7 1.2 1 .5.3 1.2.4 2.1.4 1.6 0 2.7-.3 3.2-1 .6-.7.9-1.8.9-3.3v-12.4h4.4v12.4c.1 2.6-.6 4.6-2.2 5.9zM91.8 106.1l8.3 13.4h.1v-13.4h4.1v20h-4.4l-8.3-13.4h-.1v13.4h-4.1v-20h4.4zM117.5 106.1c1 0 1.8.1 2.6.3.8.2 1.5.4 2 .8.6.4 1 .9 1.3 1.5.3.6.5 1.4.5 2.4s-.2 1.8-.7 2.5c-.5.7-1.1 1.2-2 1.7 1.2.4 2.2 1 2.8 1.9.6.9.9 2 .9 3.2 0 1-.2 1.9-.6 2.6-.4.7-.9 1.3-1.6 1.8-.7.5-1.4.8-2.3 1s-1.7.3-2.6.3h-9.7v-20h9.4zm-.5 8.1c.8 0 1.4-.2 1.9-.6.5-.4.8-1 .8-1.8 0-.5-.1-.8-.3-1.1-.2-.3-.4-.5-.7-.7-.3-.2-.6-.3-1-.4-.4-.1-.7-.1-1.1-.1h-4.1v4.7h4.5zm.2 8.5c.4 0 .8 0 1.2-.1.4-.1.7-.2 1-.4.3-.2.5-.5.7-.8.2-.3.3-.8.3-1.3 0-1-.3-1.8-.9-2.2-.6-.4-1.3-.7-2.3-.7h-4.8v5.5h4.8zM138.6 106.1c.9 0 1.7.1 2.4.4.7.3 1.3.7 1.8 1.2s.9 1.1 1.2 1.8c.3.7.4 1.4.4 2.1 0 1.2-.2 2.2-.7 3.1s-1.3 1.5-2.4 2v.1c.5.1 1 .4 1.3.7.4.3.6.7.9 1.1.2.4.4.9.5 1.4.1.5.2 1 .2 1.5 0 .3 0 .7.1 1.1 0 .4.1.9.1 1.3s.1.9.2 1.3.3.7.5 1h-4.4c-.2-.6-.4-1.4-.4-2.3-.1-.9-.1-1.7-.3-2.5-.1-1-.5-1.8-1-2.3-.5-.5-1.3-.7-2.4-.7h-4.4v7.8h-4.4v-20h10.8zm-1.5 9.1c1 0 1.8-.2 2.3-.7.5-.4.8-1.2.8-2.2 0-1-.3-1.7-.8-2.1-.5-.4-1.3-.7-2.3-.7h-4.8v5.6h4.8zM162.8 124.6c-1.5 1.3-3.6 2-6.3 2-2.7 0-4.8-.7-6.3-2s-2.2-3.3-2.2-6v-12.4h4.4v12.4c0 .5 0 1.1.1 1.6s.3 1 .6 1.4c.3.4.7.7 1.2 1s1.2.4 2.1.4c1.6 0 2.7-.3 3.2-1 .6-.7.9-1.8.9-3.3v-12.4h4.4v12.4c.1 2.6-.6 4.6-2.1 5.9zM172.2 121.2c.2.5.6.8 1 1.1.4.3.9.5 1.4.6s1.1.2 1.7.2c.4 0 .8 0 1.3-.1.4-.1.9-.2 1.3-.4s.7-.4 1-.8c.3-.3.4-.7.4-1.2s-.2-1-.5-1.3c-.3-.3-.8-.6-1.4-.8-.6-.2-1.2-.4-1.9-.6-.7-.2-1.4-.4-2.2-.6-.7-.2-1.5-.4-2.2-.7-.7-.3-1.3-.6-1.9-1.1-.6-.4-1-1-1.4-1.6-.3-.6-.5-1.4-.5-2.3 0-1 .2-1.9.7-2.7.4-.8 1-1.4 1.7-1.9s1.5-.9 2.4-1.1c.9-.2 1.8-.4 2.7-.4 1 0 2 .1 3 .3 1 .2 1.8.6 2.6 1.1.7.5 1.3 1.2 1.8 2s.7 1.8.7 3h-4.3c0-.6-.2-1.1-.4-1.5-.2-.4-.5-.7-.9-.9s-.8-.4-1.2-.5c-.5-.1-1-.1-1.5-.1-.4 0-.7 0-1.1.1-.4.1-.7.2-1 .4s-.5.4-.7.7c-.2.3-.3.6-.3 1.1 0 .4.1.7.2 1 .1.2.4.5.9.7.4.2 1 .4 1.8.6.8.2 1.8.5 3 .8.4.1.9.2 1.6.4.7.2 1.3.5 2 .9s1.2 1 1.7 1.7.7 1.6.7 2.8c0 .9-.2 1.8-.5 2.5-.4.8-.9 1.5-1.6 2-.7.6-1.6 1-2.6 1.3-1 .3-2.2.5-3.6.5-1.1 0-2.2-.1-3.2-.4-1-.3-2-.7-2.7-1.3-.8-.6-1.4-1.3-1.9-2.2s-.7-2-.7-3.2h4.3c-.1.8 0 1.4.3 1.9zM191.4 106.1v7.7h8.1v-7.7h4.4v20h-4.4v-8.6h-8.1v8.6H187v-20h4.4zM222.7 106.1v3.7h-10.6v4.3h9.7v3.4h-9.7v4.9h10.8v3.7h-15.2v-20h15zM234.5 106.1c1.3 0 2.5.2 3.6.6 1.1.4 2.1 1 2.9 1.8.8.8 1.4 1.8 1.9 3.1.5 1.2.7 2.7.7 4.3 0 1.5-.2 2.8-.6 4-.4 1.2-.9 2.3-1.7 3.2s-1.7 1.6-2.8 2.1c-1.1.5-2.5.8-4 .8h-8.6v-20h8.6zm-.3 16.3c.6 0 1.2-.1 1.8-.3.6-.2 1.1-.5 1.6-1s.8-1.1 1.1-1.9c.3-.8.4-1.7.4-2.8 0-1-.1-1.9-.3-2.7-.2-.8-.5-1.5-1-2.1-.4-.6-1-1-1.8-1.3-.7-.3-1.6-.5-2.7-.5h-3.1v12.6h4z"/></g></svg>