<svg id="Layer_1" xmlns="http://www.w3.org/2000/svg" xmlns:xlink="http://www.w3.org/1999/xlink" viewBox="0 0 728 90"><style>.st0,.st1{clip-path:url(#SVGID_00000150091393936848688170000003081451026534296754_);fill:#231f20}.st1{fill:#00b2ee}</style><defs><path id="SVGID_1_" d="M88.1 16.6h78.1v26.5H88.1z"/></defs><clipPath id="SVGID_00000147193614894461312760000005290488988483864975_"><use xlink:href="#SVGID_1_" overflow="visible"/></clipPath><path d="M88.7 30.8h4.2c3.3 0 4 2.2 4 3.6s-.6 3.6-4 3.6h-2.1v4.5h-2V30.8zm2 5.5h2c.9 0 2-.5 2-1.9 0-1.5-.9-1.9-2-1.9h-2.1v3.8zM98 34.1h1.7v1.6c.2-.9 1.3-1.9 2.5-1.9h.7v1.8c-.3 0-.5-.1-.8-.1-1.3 0-2.3 1-2.3 2.9v4H98v-8.3zM103.2 38.3c0-2.6 1.5-4.4 4.3-4.4 2.7 0 4.3 1.9 4.3 4.4 0 2.6-1.5 4.4-4.3 4.4-2.7 0-4.3-1.9-4.3-4.4m6.7 0c0-1.4-.7-3-2.4-3s-2.4 1.5-2.4 3 .7 3 2.4 3c1.6-.1 2.4-1.6 2.4-3M112 34.1h1.5v-2.5h1.8v2.5h1.7v1.4h-1.7V40c0 .8.1 1.2.9 1.2.3 0 .5 0 .8-.1v1.4c-.4 0-.8.1-1.2.1-1.9 0-2.3-.7-2.3-2.2v-5H112v-1.3zM119.6 38.7c0 1.3.7 2.5 2.3 2.5 1.1 0 1.7-.5 2.1-1.4h1.8c-.4 1.8-2 2.9-3.8 2.9-2.6 0-4.1-1.8-4.1-4.4 0-2.4 1.6-4.4 4.1-4.4 2.7 0 4.3 2.4 4 4.9h-6.4zm4.3-1.2c-.1-1.2-.9-2.2-2.1-2.2-1.3 0-2.2 1-2.2 2.2h4.3zM132.8 36.9c-.1-1-.9-1.6-1.9-1.6-1 0-2.3.5-2.3 3.1 0 1.4.6 2.9 2.2 2.9 1.1 0 1.8-.7 2-1.9h1.9c-.3 2.2-1.7 3.4-3.9 3.4-2.6 0-4.1-1.9-4.1-4.3 0-2.5 1.4-4.5 4.2-4.5 2 0 3.6 1 3.8 3h-1.9zM135.1 34.1h1.4v-2.5h1.9v2.5h1.7v1.4h-1.7V40c0 .8.1 1.2.9 1.2.3 0 .5 0 .8-.1v1.4c-.4 0-.8.1-1.2.1-1.9 0-2.3-.7-2.3-2.2v-5h-1.4v-1.3zM142.2 30.8h1.9v1.8h-1.9v-1.8zm0 3.2h1.9v8.4h-1.9V34zM145.4 34.1h2l2.7 6.4 2.5-6.4h1.9l-3.5 8.4h-2zM156.9 38.7c0 1.3.7 2.5 2.3 2.5 1.1 0 1.7-.5 2.1-1.4h1.8c-.4 1.8-2 2.9-3.8 2.9-2.6 0-4.1-1.8-4.1-4.4 0-2.4 1.6-4.4 4.1-4.4 2.7 0 4.3 2.4 4 4.9h-6.4zm4.3-1.2c-.1-1.2-.9-2.2-2.1-2.2-1.3 0-2.2 1-2.2 2.2h4.3z" clip-path="url(#SVGID_00000147193614894461312760000005290488988483864975_)" fill="#231f20"/><path d="M138.7 28.9c-1.2-4.6-4.9-8.3-9.5-9.4-.4-1.4-1.7-2.5-3.3-2.5s-2.9 1-3.3 2.5c-4.6 1.2-8.3 4.8-9.5 9.4l-.1.5h2.8l.1-.3c1.1-3.4 3.7-6 7.1-6.9.6 1 1.7 1.7 3 1.7s2.4-.7 3-1.7c3.3 1 6 3.6 7.1 6.9l.1.3h2.8l-.3-.5z" clip-path="url(#SVGID_00000147193614894461312760000005290488988483864975_)" fill="#00b2ee"/><path d="M165 41c.5 0 .8.4.8.8 0 .5-.4.8-.8.8s-.8-.4-.8-.8.3-.8.8-.8m.7.9c0-.4-.3-.7-.7-.7s-.7.3-.7.7c0 .4.3.7.7.7s.7-.3.7-.7m-1-.5h.4c.2 0 .3.1.3.3 0 .2-.1.3-.3.3l.3.4h-.1l-.3-.4h-.2v.4h-.1v-1zm.3.4c.1 0 .3 0 .3-.2 0-.1-.1-.1-.2-.1h-.2v.3h.1z" clip-path="url(#SVGID_00000147193614894461312760000005290488988483864975_)" fill="#231f20"/></svg>