<?xml version="1.0" encoding="utf-8"?>
<!-- Generator: Adobe Illustrator 26.3.1, SVG Export Plug-In . SVG Version: 6.00 Build 0)  -->
<svg version="1.1" id="Layer_1" xmlns="http://www.w3.org/2000/svg" xmlns:xlink="http://www.w3.org/1999/xlink" x="0px" y="0px"
	 viewBox="0 0 300 250" style="enable-background:new 0 0 300 250;" xml:space="preserve">
<style type="text/css">
	.st0{fill:#339933;}
	.st1{fill:#231F20;}
</style>
<g>
	<path class="st0" d="M51.8,46.9l7.5,20h-4.6l-1.5-4.5h-7.5l-1.6,4.5h-4.4l7.6-20H51.8z M52.1,59.1l-2.5-7.3h-0.1l-2.6,7.3H52.1z"/>
	<path class="st0" d="M80.3,62.7c-0.1,0.8-0.4,1.5-0.9,2.2c-0.5,0.7-1.1,1.3-2,1.7c-0.9,0.5-2.1,0.7-3.6,0.7c-0.8,0-1.7-0.1-2.4-0.4
		c-0.8-0.2-1.5-0.6-2.1-1.1c-0.6-0.5-1.1-1.1-1.5-1.9c-0.4-0.8-0.6-1.7-0.6-2.8v-1.7h4v0.9c0,0.5,0,0.9,0.1,1.3
		c0.1,0.4,0.2,0.8,0.4,1c0.2,0.3,0.4,0.5,0.8,0.7c0.3,0.2,0.8,0.3,1.3,0.3c0.6,0,1-0.1,1.3-0.3s0.5-0.5,0.7-0.8
		c0.1-0.3,0.2-0.7,0.3-1.1c0-0.4,0-0.8,0-1.1V46.9h4.4v13.7C80.5,61.2,80.5,61.9,80.3,62.7z"/>
	<path class="st0" d="M84.2,52.8c0.4-1.3,1.1-2.4,1.9-3.3s1.9-1.7,3.1-2.2c1.2-0.5,2.6-0.8,4.1-0.8c1.5,0,2.9,0.3,4.1,0.8
		c1.2,0.5,2.2,1.3,3.1,2.2c0.8,1,1.5,2.1,1.9,3.3c0.4,1.3,0.7,2.7,0.7,4.2c0,1.5-0.2,2.8-0.7,4.1c-0.4,1.3-1.1,2.4-1.9,3.3
		c-0.8,0.9-1.9,1.7-3.1,2.2c-1.2,0.5-2.6,0.8-4.1,0.8c-1.5,0-2.9-0.3-4.1-0.8C88,66,87,65.2,86.1,64.3c-0.8-0.9-1.5-2-1.9-3.3
		c-0.4-1.3-0.7-2.6-0.7-4.1C83.5,55.4,83.7,54.1,84.2,52.8z M88.2,59.4c0.2,0.8,0.5,1.5,0.9,2.1c0.4,0.6,1,1.1,1.7,1.5
		c0.7,0.4,1.5,0.6,2.5,0.6c1,0,1.8-0.2,2.5-0.6c0.7-0.4,1.3-0.9,1.7-1.5s0.7-1.3,0.9-2.1c0.2-0.8,0.3-1.6,0.3-2.5
		c0-0.9-0.1-1.7-0.3-2.5c-0.2-0.8-0.5-1.6-0.9-2.2c-0.4-0.6-1-1.2-1.7-1.5c-0.7-0.4-1.5-0.6-2.5-0.6c-1,0-1.8,0.2-2.5,0.6
		c-0.7,0.4-1.3,0.9-1.7,1.5c-0.4,0.6-0.7,1.4-0.9,2.2c-0.2,0.8-0.3,1.7-0.3,2.5C87.9,57.8,88,58.6,88.2,59.4z"/>
	<path class="st0" d="M120.9,65.3c-1.5,1.3-3.6,2-6.3,2c-2.7,0-4.8-0.7-6.3-2c-1.5-1.3-2.2-3.3-2.2-6V46.9h4.4v12.4
		c0,0.5,0,1.1,0.1,1.6s0.3,1,0.6,1.4c0.3,0.4,0.7,0.7,1.2,1c0.5,0.3,1.2,0.4,2.1,0.4c1.6,0,2.7-0.3,3.2-1c0.6-0.7,0.9-1.8,0.9-3.3
		V46.9h4.4v12.4C123.1,62,122.4,64,120.9,65.3z"/>
	<path class="st0" d="M137.7,46.9c0.9,0,1.7,0.1,2.4,0.4c0.7,0.3,1.3,0.7,1.8,1.2c0.5,0.5,0.9,1.1,1.2,1.8c0.3,0.7,0.4,1.4,0.4,2.1
		c0,1.2-0.2,2.2-0.7,3.1c-0.5,0.9-1.3,1.5-2.4,2v0.1c0.5,0.1,1,0.4,1.3,0.7c0.4,0.3,0.6,0.7,0.9,1.1s0.4,0.9,0.5,1.4
		c0.1,0.5,0.2,1,0.2,1.5c0,0.3,0,0.7,0.1,1.1c0,0.4,0.1,0.9,0.1,1.3c0,0.4,0.1,0.9,0.2,1.3c0.1,0.4,0.3,0.7,0.5,1h-4.4
		c-0.2-0.6-0.4-1.4-0.4-2.3c-0.1-0.9-0.1-1.7-0.3-2.5c-0.1-1-0.5-1.8-1-2.3c-0.5-0.5-1.3-0.7-2.4-0.7h-4.4v7.8h-4.4v-20H137.7z
		 M136.1,55.9c1,0,1.8-0.2,2.3-0.7c0.5-0.4,0.8-1.2,0.8-2.2c0-1-0.3-1.7-0.8-2.1c-0.5-0.4-1.3-0.7-2.3-0.7h-4.8v5.6H136.1z"/>
	<path class="st0" d="M151.5,46.9l8.3,13.4h0.1V46.9h4.1v20h-4.4l-8.3-13.4h-0.1v13.4h-4.1v-20H151.5z"/>
	<path class="st0" d="M182.8,46.9v3.7h-10.6v4.3h9.7v3.4h-9.7v4.9h10.8v3.7h-15.2v-20H182.8z"/>
	<path class="st0" d="M183.9,46.9h4.9l4.7,7.9l4.6-7.9h4.9l-7.4,12.3v7.7h-4.4v-7.8L183.9,46.9z"/>
	<path class="st0" d="M212.2,56.5c0.4-0.9,0.9-1.7,1.5-2.4c0.7-0.7,1.4-1.2,2.4-1.5c0.9-0.4,1.9-0.5,3.1-0.5s2.2,0.2,3.1,0.5
		c0.9,0.4,1.7,0.9,2.4,1.5c0.7,0.7,1.2,1.5,1.5,2.4c0.4,0.9,0.5,2,0.5,3.1c0,1.2-0.2,2.2-0.5,3.1c-0.4,0.9-0.9,1.7-1.5,2.4
		s-1.4,1.2-2.4,1.5s-2,0.5-3.1,0.5s-2.2-0.2-3.1-0.5c-0.9-0.4-1.7-0.9-2.4-1.5c-0.7-0.7-1.2-1.5-1.5-2.4c-0.4-0.9-0.5-2-0.5-3.1
		C211.6,58.5,211.8,57.4,212.2,56.5z M215.8,61.3c0.1,0.6,0.3,1,0.6,1.5c0.3,0.4,0.6,0.8,1.1,1c0.4,0.3,1,0.4,1.7,0.4
		s1.2-0.1,1.7-0.4c0.5-0.3,0.8-0.6,1.1-1s0.5-0.9,0.6-1.5c0.1-0.6,0.2-1.1,0.2-1.7c0-0.6-0.1-1.1-0.2-1.7c-0.1-0.6-0.3-1.1-0.6-1.5
		c-0.3-0.4-0.6-0.8-1.1-1c-0.5-0.3-1-0.4-1.7-0.4s-1.2,0.1-1.7,0.4c-0.4,0.3-0.8,0.6-1.1,1c-0.3,0.4-0.5,0.9-0.6,1.5
		s-0.2,1.1-0.2,1.7C215.6,60.2,215.7,60.8,215.8,61.3z"/>
	<path class="st0" d="M227.7,55v-2.7h2.4v-1.1c0-1.3,0.4-2.3,1.2-3.2s2-1.2,3.6-1.2c0.4,0,0.7,0,1.1,0c0.4,0,0.7,0.1,1,0.1v3
		c-0.5-0.1-1-0.1-1.5-0.1c-0.5,0-0.9,0.1-1.2,0.4s-0.3,0.7-0.3,1.3v0.9h2.7V55H234v11.8h-4V55H227.7z"/>
	<path class="st0" d="M246.1,56.8c0.1-0.9,0.3-1.7,0.7-2.3c0.4-0.6,0.9-1.1,1.6-1.5c0.6-0.4,1.3-0.6,2.1-0.8
		c0.8-0.2,1.6-0.2,2.4-0.2c0.7,0,1.5,0.1,2.2,0.2c0.7,0.1,1.4,0.3,2,0.6c0.6,0.3,1.1,0.7,1.5,1.2c0.4,0.5,0.6,1.2,0.6,2.1v7.5
		c0,0.7,0,1.3,0.1,1.9c0.1,0.6,0.2,1,0.4,1.3h-4c-0.1-0.2-0.1-0.5-0.2-0.7c0-0.2-0.1-0.5-0.1-0.7c-0.6,0.7-1.4,1.1-2.2,1.4
		s-1.7,0.4-2.6,0.4c-0.7,0-1.3-0.1-1.9-0.3s-1.1-0.4-1.6-0.8s-0.8-0.8-1-1.3c-0.3-0.5-0.4-1.2-0.4-1.9c0-0.8,0.1-1.5,0.4-2
		c0.3-0.5,0.7-1,1.1-1.3c0.5-0.3,1-0.6,1.6-0.7c0.6-0.2,1.2-0.3,1.8-0.4c0.6-0.1,1.2-0.2,1.8-0.2c0.6-0.1,1.1-0.1,1.5-0.3
		c0.4-0.1,0.8-0.3,1.1-0.5c0.3-0.2,0.4-0.5,0.4-0.9c0-0.4-0.1-0.8-0.2-1c-0.1-0.3-0.3-0.4-0.6-0.6s-0.5-0.2-0.8-0.3
		c-0.3,0-0.6-0.1-1-0.1c-0.8,0-1.4,0.2-1.8,0.5c-0.4,0.3-0.7,0.9-0.8,1.7H246.1z M255.3,59.8c-0.2,0.1-0.4,0.3-0.6,0.4
		s-0.5,0.2-0.8,0.2c-0.3,0.1-0.6,0.1-0.9,0.1s-0.6,0.1-1,0.1c-0.3,0.1-0.6,0.1-0.9,0.2c-0.3,0.1-0.5,0.2-0.8,0.4
		c-0.2,0.2-0.4,0.4-0.5,0.6c-0.1,0.2-0.2,0.6-0.2,0.9c0,0.4,0.1,0.7,0.2,0.9c0.1,0.2,0.3,0.4,0.5,0.6c0.2,0.1,0.5,0.2,0.8,0.3
		s0.6,0.1,0.9,0.1c0.8,0,1.4-0.1,1.8-0.4c0.4-0.3,0.7-0.6,1-0.9c0.2-0.4,0.3-0.7,0.4-1.1c0-0.4,0.1-0.7,0.1-0.9V59.8z"/>
</g>
<g>
	<path class="st0" d="M14.9,79.6v-3.7h16.4v3.7h-6v16.3h-4.4V79.6H14.9z"/>
	<path class="st0" d="M37.9,75.9v7.7H46v-7.7h4.4v20H46v-8.6h-8.1v8.6h-4.4v-20H37.9z"/>
	<path class="st0" d="M54.1,81.8c0.4-1.3,1.1-2.4,1.9-3.3s1.9-1.7,3.1-2.2c1.2-0.5,2.6-0.8,4.1-0.8c1.5,0,2.9,0.3,4.1,0.8
		c1.2,0.5,2.2,1.3,3.1,2.2c0.8,1,1.5,2.1,1.9,3.3c0.4,1.3,0.7,2.7,0.7,4.2c0,1.5-0.2,2.8-0.7,4.1c-0.4,1.3-1.1,2.4-1.9,3.3
		c-0.8,0.9-1.9,1.7-3.1,2.2c-1.2,0.5-2.6,0.8-4.1,0.8c-1.5,0-2.9-0.3-4.1-0.8c-1.2-0.5-2.3-1.3-3.1-2.2c-0.8-0.9-1.5-2-1.9-3.3
		c-0.4-1.3-0.7-2.6-0.7-4.1C53.4,84.5,53.6,83.1,54.1,81.8z M58.1,88.4c0.2,0.8,0.5,1.5,0.9,2.1c0.4,0.6,1,1.1,1.7,1.5
		c0.7,0.4,1.5,0.6,2.5,0.6c1,0,1.8-0.2,2.5-0.6c0.7-0.4,1.3-0.9,1.7-1.5s0.7-1.3,0.9-2.1c0.2-0.8,0.3-1.6,0.3-2.5
		c0-0.9-0.1-1.7-0.3-2.5c-0.2-0.8-0.5-1.6-0.9-2.2c-0.4-0.6-1-1.2-1.7-1.5c-0.7-0.4-1.5-0.6-2.5-0.6c-1,0-1.8,0.2-2.5,0.6
		c-0.7,0.4-1.3,0.9-1.7,1.5c-0.4,0.6-0.7,1.4-0.9,2.2c-0.2,0.8-0.3,1.7-0.3,2.5C57.8,86.8,57.9,87.6,58.1,88.4z"/>
	<path class="st0" d="M90.8,94.3c-1.5,1.3-3.6,2-6.3,2c-2.7,0-4.8-0.7-6.3-2C76.7,93,76,91,76,88.3V75.9h4.4v12.4
		c0,0.5,0,1.1,0.1,1.6s0.3,1,0.6,1.4c0.3,0.4,0.7,0.7,1.2,1c0.5,0.3,1.2,0.4,2.1,0.4c1.6,0,2.7-0.3,3.2-1c0.6-0.7,0.9-1.8,0.9-3.3
		V75.9H93v12.4C93,91,92.3,93,90.8,94.3z"/>
	<path class="st0" d="M100.2,90.9c0.2,0.5,0.6,0.8,1,1.1c0.4,0.3,0.9,0.5,1.4,0.6s1.1,0.2,1.7,0.2c0.4,0,0.8,0,1.3-0.1
		c0.4-0.1,0.9-0.2,1.3-0.4c0.4-0.2,0.7-0.4,1-0.8c0.3-0.3,0.4-0.7,0.4-1.2c0-0.5-0.2-1-0.5-1.3c-0.3-0.3-0.8-0.6-1.4-0.8
		s-1.2-0.4-1.9-0.6c-0.7-0.2-1.4-0.4-2.2-0.6c-0.7-0.2-1.5-0.4-2.2-0.7c-0.7-0.3-1.3-0.6-1.9-1.1c-0.6-0.4-1-1-1.4-1.6
		s-0.5-1.4-0.5-2.3c0-1,0.2-1.9,0.7-2.7c0.4-0.8,1-1.4,1.7-1.9c0.7-0.5,1.5-0.9,2.4-1.1c0.9-0.2,1.8-0.4,2.7-0.4c1,0,2,0.1,3,0.3
		c1,0.2,1.8,0.6,2.6,1.1c0.7,0.5,1.3,1.2,1.8,2c0.4,0.8,0.7,1.8,0.7,3h-4.3c0-0.6-0.2-1.1-0.4-1.5c-0.2-0.4-0.5-0.7-0.9-0.9
		s-0.8-0.4-1.2-0.5c-0.5-0.1-1-0.1-1.5-0.1c-0.4,0-0.7,0-1.1,0.1c-0.4,0.1-0.7,0.2-1,0.4c-0.3,0.2-0.5,0.4-0.7,0.7
		c-0.2,0.3-0.3,0.6-0.3,1.1c0,0.4,0.1,0.7,0.2,1c0.1,0.2,0.4,0.5,0.9,0.7c0.4,0.2,1,0.4,1.8,0.6c0.8,0.2,1.8,0.5,3,0.8
		c0.4,0.1,0.9,0.2,1.6,0.4c0.7,0.2,1.3,0.5,2,0.9c0.7,0.4,1.2,1,1.7,1.7s0.7,1.6,0.7,2.8c0,0.9-0.2,1.8-0.5,2.5
		c-0.4,0.8-0.9,1.5-1.6,2c-0.7,0.6-1.6,1-2.6,1.3c-1,0.3-2.2,0.5-3.6,0.5c-1.1,0-2.2-0.1-3.2-0.4s-2-0.7-2.7-1.3s-1.4-1.3-1.9-2.2
		c-0.5-0.9-0.7-2-0.7-3.2h4.3C99.8,89.9,99.9,90.5,100.2,90.9z"/>
	<path class="st0" d="M125,75.9l7.5,20h-4.6l-1.5-4.5h-7.5l-1.6,4.5h-4.4l7.6-20H125z M125.2,88.1l-2.5-7.3h-0.1l-2.6,7.3H125.2z"/>
	<path class="st0" d="M138.5,75.9l8.3,13.4h0.1V75.9h4.1v20h-4.4l-8.3-13.4h-0.1v13.4h-4.1v-20H138.5z"/>
	<path class="st0" d="M163.5,75.9c1.3,0,2.5,0.2,3.6,0.6c1.1,0.4,2.1,1,2.9,1.8c0.8,0.8,1.4,1.8,1.9,3.1c0.5,1.2,0.7,2.7,0.7,4.3
		c0,1.5-0.2,2.8-0.6,4c-0.4,1.2-0.9,2.3-1.7,3.2s-1.7,1.6-2.8,2.1c-1.1,0.5-2.5,0.8-4,0.8h-8.6v-20H163.5z M163.2,92.2
		c0.6,0,1.2-0.1,1.8-0.3c0.6-0.2,1.1-0.5,1.6-1c0.5-0.5,0.8-1.1,1.1-1.9c0.3-0.8,0.4-1.7,0.4-2.8c0-1-0.1-1.9-0.3-2.7
		c-0.2-0.8-0.5-1.5-1-2.1c-0.4-0.6-1-1-1.8-1.3c-0.7-0.3-1.6-0.5-2.7-0.5h-3.1v12.6H163.2z"/>
	<path class="st0" d="M186.8,90.9c0.2,0.5,0.6,0.8,1,1.1c0.4,0.3,0.9,0.5,1.4,0.6s1.1,0.2,1.7,0.2c0.4,0,0.8,0,1.3-0.1
		c0.4-0.1,0.9-0.2,1.3-0.4c0.4-0.2,0.7-0.4,1-0.8c0.3-0.3,0.4-0.7,0.4-1.2c0-0.5-0.2-1-0.5-1.3c-0.3-0.3-0.8-0.6-1.4-0.8
		c-0.6-0.2-1.2-0.4-1.9-0.6c-0.7-0.2-1.4-0.4-2.2-0.6c-0.7-0.2-1.5-0.4-2.2-0.7c-0.7-0.3-1.3-0.6-1.9-1.1c-0.6-0.4-1-1-1.4-1.6
		c-0.3-0.6-0.5-1.4-0.5-2.3c0-1,0.2-1.9,0.7-2.7c0.4-0.8,1-1.4,1.7-1.9c0.7-0.5,1.5-0.9,2.4-1.1c0.9-0.2,1.8-0.4,2.7-0.4
		c1,0,2,0.1,3,0.3c1,0.2,1.8,0.6,2.6,1.1c0.7,0.5,1.3,1.2,1.8,2s0.7,1.8,0.7,3h-4.3c0-0.6-0.2-1.1-0.4-1.5c-0.2-0.4-0.5-0.7-0.9-0.9
		s-0.8-0.4-1.2-0.5c-0.5-0.1-1-0.1-1.5-0.1c-0.4,0-0.7,0-1.1,0.1c-0.4,0.1-0.7,0.2-1,0.4s-0.5,0.4-0.7,0.7c-0.2,0.3-0.3,0.6-0.3,1.1
		c0,0.4,0.1,0.7,0.2,1c0.1,0.2,0.4,0.5,0.9,0.7c0.4,0.2,1,0.4,1.8,0.6c0.8,0.2,1.8,0.5,3,0.8c0.4,0.1,0.9,0.2,1.6,0.4
		c0.7,0.2,1.3,0.5,2,0.9c0.7,0.4,1.2,1,1.7,1.7c0.5,0.7,0.7,1.6,0.7,2.8c0,0.9-0.2,1.8-0.5,2.5c-0.4,0.8-0.9,1.5-1.6,2
		s-1.6,1-2.6,1.3c-1,0.3-2.2,0.5-3.6,0.5c-1.1,0-2.2-0.1-3.2-0.4c-1-0.3-2-0.7-2.7-1.3c-0.8-0.6-1.4-1.3-1.9-2.2s-0.7-2-0.7-3.2h4.3
		C186.5,89.9,186.6,90.5,186.8,90.9z"/>
	<path class="st0" d="M207.8,75.9l4.7,13.7h0.1l4.4-13.7h6.2v20H219V81.7H219l-4.9,14.2h-3.4l-4.9-14h-0.1v14h-4.1v-20H207.8z"/>
	<path class="st0" d="M231.4,75.9v20H227v-20H231.4z"/>
	<path class="st0" d="M239.7,75.9v16.3h9.7v3.7h-14.1v-20H239.7z"/>
	<path class="st0" d="M266.8,75.9v3.7h-10.6v4.3h9.7v3.4h-9.7v4.9h10.8v3.7h-15.2v-20H266.8z"/>
	<path class="st0" d="M273.4,90.9c0.2,0.5,0.6,0.8,1,1.1c0.4,0.3,0.9,0.5,1.4,0.6s1.1,0.2,1.7,0.2c0.4,0,0.8,0,1.3-0.1
		c0.4-0.1,0.9-0.2,1.3-0.4c0.4-0.2,0.7-0.4,1-0.8c0.3-0.3,0.4-0.7,0.4-1.2c0-0.5-0.2-1-0.5-1.3c-0.3-0.3-0.8-0.6-1.4-0.8
		c-0.6-0.2-1.2-0.4-1.9-0.6c-0.7-0.2-1.4-0.4-2.2-0.6c-0.7-0.2-1.5-0.4-2.2-0.7c-0.7-0.3-1.3-0.6-1.9-1.1c-0.6-0.4-1-1-1.4-1.6
		c-0.3-0.6-0.5-1.4-0.5-2.3c0-1,0.2-1.9,0.7-2.7c0.4-0.8,1-1.4,1.7-1.9c0.7-0.5,1.5-0.9,2.4-1.1c0.9-0.2,1.8-0.4,2.7-0.4
		c1,0,2,0.1,3,0.3c1,0.2,1.8,0.6,2.6,1.1c0.7,0.5,1.3,1.2,1.8,2s0.7,1.8,0.7,3h-4.3c0-0.6-0.2-1.1-0.4-1.5c-0.2-0.4-0.5-0.7-0.9-0.9
		s-0.8-0.4-1.2-0.5c-0.5-0.1-1-0.1-1.5-0.1c-0.4,0-0.7,0-1.1,0.1c-0.4,0.1-0.7,0.2-1,0.4s-0.5,0.4-0.7,0.7c-0.2,0.3-0.3,0.6-0.3,1.1
		c0,0.4,0.1,0.7,0.2,1c0.1,0.2,0.4,0.5,0.9,0.7c0.4,0.2,1,0.4,1.8,0.6c0.8,0.2,1.8,0.5,3,0.8c0.4,0.1,0.9,0.2,1.6,0.4
		c0.7,0.2,1.3,0.5,2,0.9c0.7,0.4,1.2,1,1.7,1.7c0.5,0.7,0.7,1.6,0.7,2.8c0,0.9-0.2,1.8-0.5,2.5c-0.4,0.8-0.9,1.5-1.6,2
		s-1.6,1-2.6,1.3c-1,0.3-2.2,0.5-3.6,0.5c-1.1,0-2.2-0.1-3.2-0.4c-1-0.3-2-0.7-2.7-1.3c-0.8-0.6-1.4-1.3-1.9-2.2s-0.7-2-0.7-3.2h4.3
		C273,89.9,273.1,90.5,273.4,90.9z"/>
</g>
<g>
	<path class="st1" d="M67.3,102.9v7.3h0.1c0.5-0.7,1.1-1.3,2-1.6c0.8-0.3,1.7-0.5,2.6-0.5c0.7,0,1.4,0.1,2.2,0.4
		c0.7,0.3,1.3,0.8,1.9,1.4c0.6,0.6,1,1.4,1.4,2.4c0.4,1,0.5,2.1,0.5,3.4c0,1.3-0.2,2.5-0.5,3.4s-0.8,1.8-1.4,2.4
		c-0.6,0.6-1.2,1.1-1.9,1.4c-0.7,0.3-1.4,0.4-2.2,0.4c-1.1,0-2-0.2-2.9-0.5s-1.5-0.9-1.9-1.7h-0.1v1.8h-3.8v-20H67.3z M73.7,113.9
		c-0.1-0.6-0.3-1.1-0.6-1.5c-0.3-0.4-0.6-0.8-1-1c-0.4-0.3-0.9-0.4-1.5-0.4c-0.6,0-1.1,0.1-1.5,0.4c-0.4,0.3-0.8,0.6-1.1,1
		c-0.3,0.4-0.5,0.9-0.6,1.5c-0.1,0.6-0.2,1.1-0.2,1.8c0,0.6,0.1,1.2,0.2,1.7c0.1,0.6,0.3,1.1,0.6,1.5c0.3,0.4,0.6,0.8,1.1,1
		c0.4,0.3,0.9,0.4,1.5,0.4c0.6,0,1.1-0.1,1.5-0.4c0.4-0.3,0.8-0.6,1-1c0.3-0.4,0.5-0.9,0.6-1.5c0.1-0.6,0.2-1.1,0.2-1.7
		C73.9,115,73.8,114.4,73.7,113.9z"/>
	<path class="st1" d="M84.6,119.4c0.6,0.6,1.5,0.9,2.6,0.9c0.8,0,1.5-0.2,2.1-0.6c0.6-0.4,0.9-0.8,1.1-1.3h3.5
		c-0.6,1.7-1.4,3-2.6,3.7s-2.6,1.1-4.2,1.1c-1.1,0-2.2-0.2-3.1-0.5c-0.9-0.4-1.7-0.9-2.3-1.6c-0.6-0.7-1.1-1.5-1.5-2.4
		c-0.3-0.9-0.5-2-0.5-3.1c0-1.1,0.2-2.1,0.5-3c0.4-0.9,0.9-1.7,1.5-2.4c0.7-0.7,1.4-1.2,2.3-1.6c0.9-0.4,1.9-0.6,3-0.6
		c1.2,0,2.3,0.2,3.2,0.7c0.9,0.5,1.7,1.1,2.3,1.9c0.6,0.8,1,1.7,1.3,2.7c0.3,1,0.4,2.1,0.3,3.2H83.7C83.7,117.9,84,118.8,84.6,119.4
		z M89.1,111.8c-0.5-0.5-1.2-0.8-2.2-0.8c-0.6,0-1.2,0.1-1.6,0.3c-0.4,0.2-0.8,0.5-1,0.8s-0.4,0.7-0.5,1c-0.1,0.4-0.2,0.7-0.2,1h6.5
		C89.9,113,89.6,112.3,89.1,111.8z"/>
	<path class="st1" d="M110.1,123.9c-0.2,0.7-0.5,1.4-1,2.1c-0.5,0.6-1.3,1.2-2.3,1.6c-1,0.4-2.3,0.7-4,0.7c-0.7,0-1.4-0.1-2.2-0.3
		c-0.7-0.2-1.4-0.5-2-0.8c-0.6-0.4-1.1-0.9-1.5-1.4c-0.4-0.6-0.6-1.3-0.7-2.1h3.9c0.2,0.7,0.6,1.3,1.1,1.6c0.5,0.3,1.2,0.4,1.9,0.4
		c1.1,0,1.9-0.3,2.4-1s0.8-1.5,0.7-2.5v-1.9h-0.1c-0.4,0.8-1,1.3-1.8,1.7c-0.8,0.4-1.6,0.5-2.5,0.5c-1.1,0-2-0.2-2.8-0.6
		c-0.8-0.4-1.4-0.9-1.9-1.6s-0.9-1.4-1.1-2.3c-0.2-0.9-0.4-1.8-0.4-2.8c0-0.9,0.1-1.8,0.4-2.7c0.3-0.9,0.7-1.6,1.2-2.3
		c0.5-0.7,1.2-1.2,1.9-1.6c0.8-0.4,1.7-0.6,2.7-0.6c1,0,1.8,0.2,2.5,0.5c0.7,0.4,1.3,1,1.8,1.8h0.1v-1.9h3.8v13.6
		C110.4,122.5,110.3,123.2,110.1,123.9z M104.7,119.1c0.4-0.2,0.8-0.5,1.1-0.9c0.3-0.4,0.5-0.8,0.6-1.3s0.2-1,0.2-1.5
		c0-0.6-0.1-1.2-0.2-1.7c-0.1-0.5-0.3-1-0.6-1.4c-0.3-0.4-0.6-0.7-1-1s-1-0.4-1.6-0.4c-0.6,0-1,0.1-1.4,0.3c-0.4,0.2-0.7,0.5-1,0.9
		c-0.3,0.4-0.5,0.8-0.6,1.3c-0.1,0.5-0.2,1-0.2,1.6c0,0.5,0.1,1,0.2,1.6c0.1,0.5,0.3,1,0.5,1.4s0.6,0.7,1,1c0.4,0.3,0.9,0.4,1.5,0.4
		C103.8,119.4,104.3,119.3,104.7,119.1z"/>
	<path class="st1" d="M113.7,106.1v-3.3h4v3.3H113.7z M117.7,108.4v14.5h-4v-14.5H117.7z"/>
	<path class="st1" d="M124.6,108.4v2h0.1c0.5-0.8,1.2-1.5,2-1.8c0.8-0.4,1.6-0.6,2.5-0.6c1.1,0,1.9,0.1,2.6,0.4
		c0.7,0.3,1.2,0.7,1.6,1.2c0.4,0.5,0.7,1.1,0.8,1.9c0.2,0.7,0.2,1.6,0.2,2.5v8.9h-4v-8.2c0-1.2-0.2-2.1-0.6-2.7
		c-0.4-0.6-1-0.9-2-0.9c-1.1,0-1.9,0.3-2.4,1s-0.7,1.7-0.7,3.2v7.6h-4v-14.5H124.6z"/>
	<path class="st1" d="M140.7,119.3c0.2,0.3,0.4,0.6,0.7,0.8c0.3,0.2,0.6,0.3,1,0.4c0.4,0.1,0.7,0.1,1.1,0.1c0.3,0,0.6,0,0.9-0.1
		c0.3-0.1,0.6-0.2,0.8-0.3c0.3-0.1,0.5-0.3,0.6-0.6s0.3-0.5,0.3-0.9c0-0.6-0.4-1-1.2-1.3c-0.8-0.3-1.9-0.6-3.3-0.9
		c-0.6-0.1-1.1-0.3-1.7-0.5c-0.6-0.2-1-0.4-1.5-0.7c-0.4-0.3-0.8-0.7-1-1.1c-0.3-0.4-0.4-1-0.4-1.6c0-0.9,0.2-1.7,0.5-2.3
		c0.4-0.6,0.8-1.1,1.4-1.4c0.6-0.3,1.3-0.6,2-0.7c0.7-0.1,1.5-0.2,2.3-0.2s1.5,0.1,2.3,0.2c0.7,0.1,1.4,0.4,2,0.8
		c0.6,0.4,1.1,0.8,1.4,1.4c0.4,0.6,0.6,1.3,0.7,2.2h-3.8c-0.1-0.8-0.3-1.3-0.9-1.6s-1.1-0.4-1.8-0.4c-0.2,0-0.5,0-0.7,0
		c-0.3,0-0.5,0.1-0.7,0.2c-0.2,0.1-0.4,0.2-0.5,0.4c-0.1,0.2-0.2,0.4-0.2,0.7c0,0.4,0.1,0.6,0.4,0.9s0.6,0.4,1,0.5
		c0.4,0.1,0.9,0.3,1.4,0.4c0.5,0.1,1.1,0.2,1.7,0.4c0.6,0.1,1.1,0.3,1.7,0.5c0.5,0.2,1,0.4,1.5,0.7c0.4,0.3,0.8,0.7,1,1.1
		c0.3,0.5,0.4,1,0.4,1.7c0,1-0.2,1.8-0.6,2.4c-0.4,0.6-0.9,1.2-1.5,1.6c-0.6,0.4-1.3,0.7-2.1,0.8c-0.8,0.2-1.6,0.2-2.4,0.2
		c-0.8,0-1.7-0.1-2.5-0.3c-0.8-0.2-1.5-0.4-2.1-0.8s-1.1-0.9-1.5-1.6c-0.4-0.6-0.6-1.5-0.7-2.4h3.8
		C140.5,118.6,140.6,118.9,140.7,119.3z"/>
	<path class="st1" d="M172.7,122.8l-2.6-9.7H170l-2.5,9.7h-4.1l-4.6-14.5h4.2l2.7,9.8h0.1l2.4-9.8h3.9l2.5,9.8h0.1l2.7-9.8h4.1
		l-4.6,14.5H172.7z"/>
	<path class="st1" d="M183.1,106.1v-3.3h4v3.3H183.1z M187.1,108.4v14.5h-4v-14.5H187.1z"/>
	<path class="st1" d="M198.2,108.4v2.7h-2.9v7.2c0,0.7,0.1,1.1,0.3,1.3c0.2,0.2,0.7,0.3,1.3,0.3c0.2,0,0.4,0,0.6,0
		c0.2,0,0.4,0,0.6-0.1v3.1c-0.3,0.1-0.7,0.1-1.1,0.1s-0.8,0-1.2,0c-0.6,0-1.2,0-1.8-0.1s-1-0.2-1.5-0.5c-0.4-0.2-0.8-0.6-1-1
		c-0.2-0.4-0.4-1-0.4-1.8V111h-2.4v-2.7h2.4V104h4v4.3H198.2z"/>
	<path class="st1" d="M204.1,102.9v7.5h0.1c0.5-0.8,1.1-1.5,1.9-1.8c0.8-0.4,1.5-0.6,2.3-0.6c1.1,0,1.9,0.1,2.6,0.4
		c0.7,0.3,1.2,0.7,1.6,1.2c0.4,0.5,0.7,1.1,0.8,1.9c0.2,0.7,0.2,1.6,0.2,2.5v8.9h-4v-8.2c0-1.2-0.2-2.1-0.6-2.7s-1-0.9-2-0.9
		c-1.1,0-1.9,0.3-2.4,1s-0.7,1.7-0.7,3.2v7.6h-4v-20H204.1z"/>
	<path class="st1" d="M224.3,112.8c0.1-0.9,0.3-1.7,0.7-2.3c0.4-0.6,0.9-1.1,1.6-1.5c0.6-0.4,1.3-0.6,2.1-0.8
		c0.8-0.2,1.6-0.2,2.4-0.2c0.7,0,1.5,0.1,2.2,0.2c0.7,0.1,1.4,0.3,2,0.6c0.6,0.3,1.1,0.7,1.5,1.2c0.4,0.5,0.6,1.2,0.6,2.1v7.5
		c0,0.7,0,1.3,0.1,1.9c0.1,0.6,0.2,1,0.4,1.3h-4c-0.1-0.2-0.1-0.5-0.2-0.7c0-0.2-0.1-0.5-0.1-0.7c-0.6,0.7-1.4,1.1-2.2,1.4
		s-1.7,0.4-2.6,0.4c-0.7,0-1.3-0.1-1.9-0.3s-1.1-0.4-1.6-0.8s-0.8-0.8-1-1.3c-0.3-0.5-0.4-1.2-0.4-1.9c0-0.8,0.1-1.5,0.4-2
		c0.3-0.5,0.7-1,1.1-1.3c0.5-0.3,1-0.6,1.6-0.7c0.6-0.2,1.2-0.3,1.8-0.4c0.6-0.1,1.2-0.2,1.8-0.2c0.6-0.1,1.1-0.1,1.5-0.3
		c0.4-0.1,0.8-0.3,1.1-0.5c0.3-0.2,0.4-0.5,0.4-0.9c0-0.4-0.1-0.8-0.2-1c-0.1-0.3-0.3-0.4-0.6-0.6s-0.5-0.2-0.8-0.3
		c-0.3,0-0.6-0.1-1-0.1c-0.8,0-1.4,0.2-1.8,0.5c-0.4,0.3-0.7,0.9-0.8,1.7H224.3z M233.5,115.8c-0.2,0.1-0.4,0.3-0.6,0.4
		s-0.5,0.2-0.8,0.2c-0.3,0.1-0.6,0.1-0.9,0.1s-0.6,0.1-1,0.1c-0.3,0.1-0.6,0.1-0.9,0.2c-0.3,0.1-0.5,0.2-0.8,0.4
		c-0.2,0.2-0.4,0.4-0.5,0.6c-0.1,0.2-0.2,0.6-0.2,0.9c0,0.4,0.1,0.7,0.2,0.9c0.1,0.2,0.3,0.4,0.5,0.6c0.2,0.1,0.5,0.2,0.8,0.3
		s0.6,0.1,0.9,0.1c0.8,0,1.4-0.1,1.8-0.4c0.4-0.3,0.7-0.6,1-0.9c0.2-0.4,0.3-0.7,0.4-1.1c0-0.4,0.1-0.7,0.1-0.9V115.8z"/>
</g>
<g>
	<path class="st1" d="M75.7,148.3c0.2,0.3,0.4,0.6,0.7,0.8c0.3,0.2,0.6,0.3,1,0.4c0.4,0.1,0.7,0.1,1.1,0.1c0.3,0,0.6,0,0.9-0.1
		s0.6-0.2,0.8-0.3c0.3-0.1,0.5-0.3,0.6-0.6c0.2-0.2,0.3-0.5,0.3-0.9c0-0.6-0.4-1-1.2-1.3c-0.8-0.3-1.9-0.6-3.3-0.9
		c-0.6-0.1-1.1-0.3-1.7-0.5c-0.6-0.2-1-0.4-1.5-0.7c-0.4-0.3-0.8-0.7-1-1.1c-0.3-0.4-0.4-1-0.4-1.6c0-0.9,0.2-1.7,0.5-2.3
		c0.4-0.6,0.8-1.1,1.4-1.4c0.6-0.3,1.3-0.6,2-0.7c0.7-0.1,1.5-0.2,2.3-0.2c0.8,0,1.5,0.1,2.3,0.2c0.7,0.1,1.4,0.4,2,0.8
		c0.6,0.4,1.1,0.8,1.4,1.4c0.4,0.6,0.6,1.3,0.7,2.2h-3.8c-0.1-0.8-0.3-1.3-0.9-1.6c-0.5-0.3-1.1-0.4-1.8-0.4c-0.2,0-0.5,0-0.7,0
		c-0.3,0-0.5,0.1-0.7,0.2c-0.2,0.1-0.4,0.2-0.5,0.4c-0.1,0.2-0.2,0.4-0.2,0.7c0,0.4,0.1,0.6,0.4,0.9c0.3,0.2,0.6,0.4,1,0.5
		c0.4,0.1,0.9,0.3,1.4,0.4c0.5,0.1,1.1,0.2,1.7,0.4c0.6,0.1,1.1,0.3,1.7,0.5c0.6,0.2,1,0.4,1.5,0.7c0.4,0.3,0.8,0.7,1,1.1
		c0.3,0.5,0.4,1,0.4,1.7c0,1-0.2,1.8-0.6,2.4c-0.4,0.6-0.9,1.2-1.5,1.6c-0.6,0.4-1.3,0.7-2.1,0.8c-0.8,0.2-1.6,0.2-2.4,0.2
		c-0.8,0-1.7-0.1-2.5-0.3s-1.5-0.4-2.1-0.8c-0.6-0.4-1.1-0.9-1.5-1.6c-0.4-0.6-0.6-1.5-0.7-2.4h3.8C75.4,147.6,75.5,148,75.7,148.3z
		"/>
	<path class="st1" d="M87.5,135.1v-3.3h4v3.3H87.5z M91.4,137.4v14.5h-4v-14.5H91.4z"/>
	<path class="st1" d="M98.4,137.4v2h0.1c0.5-0.8,1.2-1.5,2-1.8c0.8-0.4,1.6-0.6,2.5-0.6c1.1,0,1.9,0.1,2.6,0.4
		c0.7,0.3,1.2,0.7,1.6,1.2c0.4,0.5,0.7,1.1,0.8,1.9c0.2,0.7,0.2,1.6,0.2,2.4v8.9h-4v-8.2c0-1.2-0.2-2.1-0.6-2.7
		c-0.4-0.6-1-0.9-2-0.9c-1.1,0-1.9,0.3-2.4,1c-0.5,0.6-0.7,1.7-0.7,3.2v7.6h-4v-14.5H98.4z"/>
	<path class="st1" d="M124.9,152.9c-0.2,0.7-0.5,1.4-1,2.1c-0.5,0.6-1.3,1.2-2.3,1.6c-1,0.4-2.3,0.7-4,0.7c-0.7,0-1.4-0.1-2.2-0.3
		c-0.7-0.2-1.4-0.5-2-0.8c-0.6-0.4-1.1-0.9-1.5-1.4c-0.4-0.6-0.6-1.3-0.7-2.1h3.9c0.2,0.7,0.6,1.3,1.1,1.6c0.5,0.3,1.2,0.4,1.9,0.4
		c1.1,0,1.9-0.3,2.4-1s0.8-1.5,0.7-2.5v-1.9h-0.1c-0.4,0.8-1,1.3-1.8,1.7s-1.6,0.5-2.5,0.5c-1.1,0-2-0.2-2.8-0.6
		c-0.8-0.4-1.4-0.9-1.9-1.6c-0.5-0.7-0.9-1.4-1.1-2.3c-0.2-0.9-0.4-1.8-0.4-2.8c0-0.9,0.1-1.8,0.4-2.7c0.3-0.9,0.7-1.6,1.2-2.3
		c0.5-0.7,1.2-1.2,1.9-1.6c0.8-0.4,1.7-0.6,2.7-0.6c1,0,1.8,0.2,2.5,0.5c0.7,0.4,1.3,1,1.8,1.8h0.1v-1.9h3.8v13.6
		C125.1,151.5,125,152.2,124.9,152.9z M119.4,148.1c0.4-0.2,0.8-0.5,1.1-0.9c0.3-0.4,0.5-0.8,0.6-1.3c0.1-0.5,0.2-1,0.2-1.5
		c0-0.6-0.1-1.2-0.2-1.7s-0.3-1-0.6-1.4c-0.3-0.4-0.6-0.7-1-1s-1-0.4-1.6-0.4c-0.6,0-1,0.1-1.4,0.3c-0.4,0.2-0.7,0.5-1,0.9
		c-0.3,0.4-0.5,0.8-0.6,1.3c-0.1,0.5-0.2,1-0.2,1.6c0,0.5,0.1,1,0.2,1.6c0.1,0.5,0.3,1,0.5,1.4c0.3,0.4,0.6,0.7,1,1
		c0.4,0.3,0.9,0.4,1.5,0.4C118.5,148.4,119,148.3,119.4,148.1z"/>
	<path class="st1" d="M132.4,131.9v20h-4v-20H132.4z"/>
	<path class="st1" d="M139.8,148.4c0.6,0.6,1.5,0.9,2.6,0.9c0.8,0,1.5-0.2,2.1-0.6c0.6-0.4,0.9-0.8,1.1-1.3h3.5
		c-0.6,1.7-1.4,3-2.6,3.7c-1.2,0.7-2.6,1.1-4.2,1.1c-1.1,0-2.2-0.2-3.1-0.5c-0.9-0.4-1.7-0.9-2.3-1.6s-1.1-1.5-1.5-2.4
		c-0.3-0.9-0.5-2-0.5-3.1c0-1.1,0.2-2.1,0.5-3s0.9-1.7,1.5-2.4c0.7-0.7,1.4-1.2,2.3-1.6c0.9-0.4,1.9-0.6,3-0.6
		c1.2,0,2.3,0.2,3.2,0.7c0.9,0.5,1.7,1.1,2.3,1.9c0.6,0.8,1,1.7,1.3,2.7c0.3,1,0.4,2.1,0.3,3.2h-10.4
		C138.9,146.9,139.2,147.8,139.8,148.4z M144.3,140.8c-0.5-0.5-1.2-0.8-2.2-0.8c-0.6,0-1.2,0.1-1.6,0.3s-0.8,0.5-1,0.8
		s-0.4,0.7-0.5,1s-0.2,0.7-0.2,1h6.5C145.1,142.1,144.7,141.3,144.3,140.8z"/>
	<path class="st1" d="M163.2,146.9c0.2,0.5,0.6,0.8,1,1.1c0.4,0.3,0.9,0.5,1.4,0.6c0.5,0.1,1.1,0.2,1.7,0.2c0.4,0,0.8,0,1.3-0.1
		c0.4-0.1,0.9-0.2,1.3-0.4s0.7-0.4,1-0.8c0.3-0.3,0.4-0.7,0.4-1.2c0-0.5-0.2-1-0.5-1.3c-0.3-0.3-0.8-0.6-1.4-0.8
		c-0.6-0.2-1.2-0.4-1.9-0.6c-0.7-0.2-1.4-0.4-2.2-0.6c-0.7-0.2-1.5-0.4-2.2-0.7c-0.7-0.3-1.3-0.6-1.9-1c-0.6-0.4-1-1-1.4-1.6
		c-0.3-0.6-0.5-1.4-0.5-2.3c0-1,0.2-1.9,0.7-2.7s1-1.4,1.7-1.9c0.7-0.5,1.5-0.9,2.4-1.1c0.9-0.2,1.8-0.4,2.7-0.4c1,0,2,0.1,3,0.3
		c1,0.2,1.8,0.6,2.6,1.1c0.7,0.5,1.3,1.2,1.8,2c0.4,0.8,0.7,1.8,0.7,3h-4.3c0-0.6-0.2-1.1-0.4-1.5c-0.2-0.4-0.5-0.7-0.9-0.9
		c-0.4-0.2-0.8-0.4-1.2-0.5c-0.5-0.1-1-0.1-1.5-0.1c-0.4,0-0.7,0-1.1,0.1c-0.4,0.1-0.7,0.2-1,0.4s-0.5,0.4-0.7,0.7
		c-0.2,0.3-0.3,0.6-0.3,1.1c0,0.4,0.1,0.7,0.2,1c0.1,0.2,0.4,0.5,0.9,0.7c0.4,0.2,1,0.4,1.8,0.6c0.8,0.2,1.8,0.5,3,0.8
		c0.4,0.1,0.9,0.2,1.6,0.4c0.7,0.2,1.3,0.5,2,0.9c0.7,0.4,1.2,1,1.7,1.7c0.5,0.7,0.7,1.6,0.7,2.8c0,0.9-0.2,1.8-0.5,2.5
		s-0.9,1.5-1.6,2c-0.7,0.6-1.6,1-2.6,1.3c-1,0.3-2.2,0.5-3.6,0.5c-1.1,0-2.2-0.1-3.2-0.4c-1-0.3-2-0.7-2.7-1.3
		c-0.8-0.6-1.4-1.3-1.9-2.2c-0.5-0.9-0.7-2-0.7-3.2h4.3C162.8,145.9,162.9,146.5,163.2,146.9z"/>
	<path class="st1" d="M176.4,135.6v-3.7h16.4v3.7h-6v16.3h-4.4v-16.3H176.4z"/>
	<path class="st1" d="M210,131.9v3.7h-10.6v4.3h9.7v3.4h-9.7v4.9h10.8v3.7h-15.2v-20H210z"/>
	<path class="st1" d="M222.2,131.9c1.2,0,2.3,0.2,3.2,0.5c0.9,0.4,1.6,0.8,2.1,1.4c0.5,0.6,1,1.3,1.2,2s0.4,1.6,0.4,2.4
		c0,0.8-0.1,1.6-0.4,2.4s-0.7,1.5-1.2,2.1c-0.6,0.6-1.3,1.1-2.1,1.4c-0.9,0.4-1.9,0.5-3.2,0.5h-4.6v7.2h-4.4v-20H222.2z M221,141.3
		c0.5,0,1,0,1.5-0.1c0.5-0.1,0.9-0.2,1.2-0.4s0.6-0.5,0.9-0.9c0.2-0.4,0.3-0.9,0.3-1.5s-0.1-1.1-0.3-1.5c-0.2-0.4-0.5-0.7-0.9-0.9
		c-0.4-0.2-0.8-0.4-1.2-0.4c-0.5-0.1-1-0.1-1.5-0.1h-3.4v6H221z"/>
</g>
</svg>
