<?xml version="1.0" encoding="utf-8"?>
<!-- Generator: Adobe Illustrator 26.3.1, SVG Export Plug-In . SVG Version: 6.00 Build 0)  -->
<svg version="1.1" id="Layer_1" xmlns="http://www.w3.org/2000/svg" xmlns:xlink="http://www.w3.org/1999/xlink" x="0px" y="0px"
	 viewBox="0 0 300 250" style="enable-background:new 0 0 300 250;" xml:space="preserve">
<style type="text/css">
	.st0{clip-path:url(#SVGID_00000132773899126681258900000017791685157948913564_);fill:#349946;}
	.st1{fill:#FFFFFF;}
</style>
<g>
	<defs>
		<rect id="SVGID_1_" x="70.8" y="175.3" width="158.4" height="33.4"/>
	</defs>
	<clipPath id="SVGID_00000016781984127260529210000010020017134885469610_">
		<use xlink:href="#SVGID_1_"  style="overflow:visible;"/>
	</clipPath>
	<path style="clip-path:url(#SVGID_00000016781984127260529210000010020017134885469610_);fill:#349946;" d="M229.2,192
		c0,9.2-8.6,16.7-19.2,16.7H90c-10.5,0-19.2-7.5-19.2-16.7c0-9.2,8.6-16.7,19.2-16.7h120C220.6,175.3,229.2,182.8,229.2,192"/>
</g>
<g>
	<path class="st1" d="M109.9,187v2h-5.1v2.5h4.5v1.8h-4.5v4.4h-2.3V187H109.9z"/>
	<path class="st1" d="M117,187c0.5,0,0.9,0.1,1.3,0.2s0.7,0.4,1,0.6s0.5,0.6,0.6,0.9c0.1,0.4,0.2,0.7,0.2,1.1c0,0.6-0.1,1.2-0.4,1.6
		c-0.3,0.5-0.7,0.8-1.3,1v0c0.3,0.1,0.5,0.2,0.7,0.4s0.3,0.4,0.5,0.6c0.1,0.2,0.2,0.5,0.3,0.7s0.1,0.5,0.1,0.8c0,0.2,0,0.4,0,0.6
		c0,0.2,0,0.5,0.1,0.7c0,0.2,0.1,0.5,0.1,0.7c0.1,0.2,0.1,0.4,0.2,0.5h-2.3c-0.1-0.3-0.2-0.7-0.2-1.2s-0.1-0.9-0.1-1.3
		c-0.1-0.6-0.2-1-0.5-1.2c-0.3-0.3-0.7-0.4-1.3-0.4h-2.3v4.2h-2.3V187H117z M116.2,191.8c0.5,0,0.9-0.1,1.2-0.4s0.4-0.6,0.4-1.2
		c0-0.5-0.1-0.9-0.4-1.1c-0.3-0.2-0.7-0.4-1.2-0.4h-2.6v3H116.2z"/>
	<path class="st1" d="M130,187v2h-5.6v2.3h5.2v1.8h-5.2v2.6h5.7v2h-8.1V187H130z"/>
	<path class="st1" d="M139.7,187v2h-5.6v2.3h5.2v1.8h-5.2v2.6h5.7v2h-8.1V187H139.7z"/>
	<path class="st1" d="M152.9,197.3c-0.7,0.4-1.6,0.6-2.6,0.6c-0.8,0-1.5-0.1-2.2-0.4s-1.2-0.7-1.6-1.2s-0.8-1.1-1-1.8
		c-0.2-0.7-0.4-1.4-0.4-2.2c0-0.8,0.1-1.5,0.4-2.2c0.2-0.7,0.6-1.3,1-1.8c0.4-0.5,1-0.9,1.6-1.2c0.7-0.3,1.4-0.4,2.2-0.4
		c0.8,0,1.6,0.1,2.2,0.4c0.6,0.3,1.2,0.7,1.6,1.2c0.4,0.5,0.8,1.1,1,1.8c0.2,0.7,0.4,1.4,0.4,2.2c0,0.8-0.1,1.5-0.4,2.2
		c-0.2,0.7-0.6,1.3-1,1.8l1.3,1.2l-1.1,1.1L152.9,197.3z M152.5,194.8c0.2-0.3,0.4-0.6,0.5-1c0.1-0.4,0.2-0.9,0.2-1.4
		c0-0.5-0.1-0.9-0.2-1.4s-0.3-0.8-0.5-1.2c-0.2-0.3-0.5-0.6-0.9-0.8c-0.4-0.2-0.8-0.3-1.3-0.3c-0.5,0-1,0.1-1.3,0.3
		c-0.4,0.2-0.7,0.5-0.9,0.8c-0.2,0.3-0.4,0.7-0.5,1.2s-0.2,0.9-0.2,1.4c0,0.4,0.1,0.9,0.2,1.3s0.3,0.8,0.5,1.1
		c0.2,0.3,0.5,0.6,0.9,0.8c0.4,0.2,0.8,0.3,1.3,0.3c0.2,0,0.4,0,0.6,0s0.3-0.1,0.4-0.1l-1-0.9l1.1-1.2L152.5,194.8z"/>
	<path class="st1" d="M165,196.9c-0.8,0.7-1.9,1.1-3.3,1.1c-1.4,0-2.6-0.3-3.3-1c-0.8-0.7-1.2-1.8-1.2-3.2V187h2.3v6.6
		c0,0.3,0,0.6,0.1,0.9c0,0.3,0.2,0.5,0.3,0.7s0.4,0.4,0.7,0.5c0.3,0.1,0.7,0.2,1.1,0.2c0.8,0,1.4-0.2,1.7-0.6c0.3-0.4,0.5-1,0.5-1.8
		V187h2.3v6.6C166.2,195.1,165.8,196.2,165,196.9z"/>
	<path class="st1" d="M168.1,190.2c0.2-0.7,0.6-1.3,1-1.8c0.4-0.5,1-0.9,1.6-1.2c0.7-0.3,1.4-0.4,2.2-0.4c0.8,0,1.6,0.1,2.2,0.4
		c0.6,0.3,1.2,0.7,1.6,1.2c0.4,0.5,0.8,1.1,1,1.8c0.2,0.7,0.4,1.4,0.4,2.2c0,0.8-0.1,1.5-0.4,2.2c-0.2,0.7-0.6,1.3-1,1.8
		c-0.4,0.5-1,0.9-1.6,1.2s-1.4,0.4-2.2,0.4c-0.8,0-1.5-0.1-2.2-0.4s-1.2-0.7-1.6-1.2s-0.8-1.1-1-1.8c-0.2-0.7-0.4-1.4-0.4-2.2
		C167.7,191.6,167.8,190.9,168.1,190.2z M170.2,193.7c0.1,0.4,0.3,0.8,0.5,1.1c0.2,0.3,0.5,0.6,0.9,0.8c0.4,0.2,0.8,0.3,1.3,0.3
		c0.5,0,1-0.1,1.3-0.3c0.4-0.2,0.7-0.5,0.9-0.8s0.4-0.7,0.5-1.1c0.1-0.4,0.2-0.9,0.2-1.3c0-0.5-0.1-0.9-0.2-1.4s-0.3-0.8-0.5-1.2
		c-0.2-0.3-0.5-0.6-0.9-0.8c-0.4-0.2-0.8-0.3-1.3-0.3c-0.5,0-1,0.1-1.3,0.3c-0.4,0.2-0.7,0.5-0.9,0.8c-0.2,0.3-0.4,0.7-0.5,1.2
		s-0.2,0.9-0.2,1.4C170.1,192.8,170.1,193.3,170.2,193.7z"/>
	<path class="st1" d="M179,189v-2h8.7v2h-3.2v8.7h-2.3V189H179z"/>
	<path class="st1" d="M196.9,187v2h-5.6v2.3h5.2v1.8h-5.2v2.6h5.7v2h-8.1V187H196.9z"/>
</g>
</svg>
