<?xml version="1.0" encoding="utf-8"?>
<!-- Generator: Adobe Illustrator 26.3.1, SVG Export Plug-In . SVG Version: 6.00 Build 0)  -->
<svg version="1.1" id="Layer_1" xmlns="http://www.w3.org/2000/svg" xmlns:xlink="http://www.w3.org/1999/xlink" x="0px" y="0px"
	 viewBox="0 0 300 250" style="enable-background:new 0 0 300 250;" xml:space="preserve">
<style type="text/css">
	.st0{fill:#349946;}
	.st1{fill:#231F20;}
	.st2{fill:none;}
</style>
<path class="st0" d="M39.3,60.4h-2.8l-0.9-2.7h-5.5l-0.9,2.7h-2.8l4.9-13h2c0.7,0,1.1,0.2,1.3,0.7c0.2,0.5,2.4,6.3,2.4,6.3h-2.6
	l-1.6-4.4l-2,5.5h5.6c0.8,0,1.2,0.2,1.4,0.9L39.3,60.4z"/>
<path class="st0" d="M63.8,60.4H61l-0.9-2.7h-5.5l-0.9,2.7h-2.8l4.9-13h2c0.7,0,1.1,0.2,1.3,0.7c0.2,0.5,2.4,6.3,2.4,6.3h-2.6
	l-1.6-4.4l-2,5.5h5.6c0.8,0,1.2,0.2,1.4,0.9L63.8,60.4z"/>
<path class="st0" d="M40.2,47.5h5.1c4,0,5.9,2.1,5.9,6.5c0,2.4-0.8,4.2-2.1,5.3c-1.3,1-2.7,1.2-4.5,1.2h-4.4V47.5z M45,58.1
	c2.5,0,3.5-1.2,3.5-4.1c0-2.9-1-4.2-3.2-4.2h-2.5v8.3H45z"/>
<g>
	<path class="st1" d="M85.8,60.3h-2l-0.8-9.3l-3.1,9.3H78l-3.2-9.3l-0.8,9.3h-1.9l1.2-12.3h2.3l3.3,9.4l3.2-9.4h2.3L85.8,60.3z"/>
	<path class="st1" d="M95.8,55.7c0,0.1,0,0.2,0,0.4c0,0.2,0,0.3,0,0.3h-6.1c0,0.6,0.2,1.2,0.6,1.7c0.5,0.6,1.1,0.8,2,0.8
		c0.7,0,1.6-0.2,2.5-0.7l0.7,1.3c-0.9,0.6-2,1-3.3,1c-1.4,0-2.5-0.4-3.2-1.3c-0.8-0.8-1.1-1.9-1.1-3.3c0-1.4,0.4-2.6,1.2-3.5
		c0.8-0.9,1.8-1.3,3.1-1.3c1.2,0,2.2,0.4,2.8,1.2C95.5,53.1,95.8,54.3,95.8,55.7z M93.9,54.9c0-0.6-0.1-1-0.3-1.4
		c-0.3-0.6-0.9-0.9-1.6-0.9c-0.6,0-1.1,0.2-1.6,0.6c-0.4,0.4-0.7,1-0.7,1.7H93.9z"/>
	<path class="st1" d="M110.5,60.3h-2v-5.1c0-1-0.1-1.7-0.4-2c-0.2-0.3-0.6-0.4-1.1-0.4c-0.6,0-1.3,0.2-2,0.7c0.1,0.2,0.1,0.9,0.1,2
		v4.8h-2v-4.9c0-1.2-0.1-1.9-0.4-2.2c-0.2-0.2-0.6-0.4-1-0.4c-0.7,0-1.3,0.2-1.9,0.6v6.9h-2v-9h1.8V52c0.8-0.6,1.7-0.9,2.6-0.9
		c0.9,0,1.7,0.3,2.2,1c1-0.7,2-1,3-1c0.9,0,1.7,0.3,2.2,0.8c0.4,0.4,0.7,1,0.8,1.7c0.1,0.4,0.1,1.2,0.1,2.3V60.3z"/>
	<path class="st1" d="M121,55.6c0,1.5-0.4,2.7-1.3,3.6c-0.9,0.9-2,1.4-3.4,1.4c-1,0-2.2-0.2-3.5-0.7V47h2v4.7
		c0.7-0.5,1.5-0.7,2.3-0.7c1.1,0,2.1,0.4,2.8,1.2C120.6,53.1,121,54.2,121,55.6z M118.9,55.7c0-0.9-0.2-1.6-0.7-2.2
		c-0.4-0.5-1-0.7-1.6-0.7c-0.6,0-1.3,0.2-1.9,0.6v5.3c0.5,0.2,1,0.2,1.5,0.2c0.8,0,1.5-0.3,1.9-0.9
		C118.7,57.4,118.9,56.6,118.9,55.7z"/>
	<path class="st1" d="M130.6,55.7c0,0.1,0,0.2,0,0.4c0,0.2,0,0.3,0,0.3h-6.1c0,0.6,0.2,1.2,0.6,1.7c0.5,0.6,1.1,0.8,2,0.8
		c0.7,0,1.6-0.2,2.5-0.7l0.7,1.3c-0.9,0.6-2,1-3.3,1c-1.4,0-2.5-0.4-3.2-1.3c-0.8-0.8-1.1-1.9-1.1-3.3c0-1.4,0.4-2.6,1.2-3.5
		c0.8-0.9,1.8-1.3,3.1-1.3c1.2,0,2.2,0.4,2.8,1.2C130.2,53.1,130.6,54.3,130.6,55.7z M128.7,54.9c0-0.6-0.1-1-0.3-1.4
		c-0.3-0.6-0.9-0.9-1.6-0.9c-0.6,0-1.1,0.2-1.6,0.6c-0.4,0.4-0.7,1-0.7,1.7H128.7z"/>
	<path class="st1" d="M138.2,51.3l-0.5,1.6c-0.2,0-0.4-0.1-0.6-0.1c-1.1,0-2,0.5-2.6,1.4v6.1h-2v-9h1.8v1.1c0.1-0.2,0.4-0.5,0.8-0.7
		c0.6-0.4,1.4-0.7,2.1-0.7C137.6,51.1,137.9,51.2,138.2,51.3z"/>
</g>
<g>
	<path class="st1" d="M145.6,57.7c0,0.9-0.3,1.6-1,2.1c-0.6,0.5-1.5,0.8-2.5,0.8c-0.8,0-1.6-0.1-2.3-0.4c-0.5-0.2-0.8-0.4-1-0.5
		l0.7-1.3c0.9,0.5,1.7,0.7,2.4,0.7c0.5,0,0.9-0.1,1.2-0.3c0.3-0.2,0.4-0.5,0.4-0.8s-0.2-0.6-0.5-0.8c-0.2-0.1-0.6-0.3-1.4-0.7
		c-0.7-0.3-1.2-0.6-1.6-0.9c-0.5-0.5-0.8-1.1-0.8-1.8c0-0.8,0.3-1.5,0.9-1.9s1.4-0.7,2.4-0.7c1.3,0,2.2,0.3,2.9,0.8l-0.7,1.3
		c-0.7-0.4-1.4-0.6-2.1-0.6c-1,0-1.4,0.3-1.4,1c0,0.3,0.2,0.5,0.5,0.8c0.2,0.1,0.6,0.3,1.1,0.6c0.9,0.4,1.5,0.7,1.8,1
		C145.3,56.3,145.6,57,145.6,57.7z"/>
	<path class="st1" d="M154.4,60.3h-2.1V48.1h2.1V60.3z"/>
	<path class="st1" d="M164.6,60.3h-2v-4.9c0-1.2-0.1-1.9-0.4-2.2c-0.3-0.3-0.7-0.4-1.1-0.4c-0.6,0-1.3,0.2-2,0.7v6.8h-2v-9h1.8V52
		c0.8-0.6,1.7-0.9,2.7-0.9c0.9,0,1.7,0.3,2.2,0.8c0.4,0.4,0.7,0.9,0.8,1.5c0.1,0.4,0.1,1,0.1,1.8V60.3z"/>
	<path class="st1" d="M172.8,57.7c0,0.9-0.3,1.6-1,2.1c-0.6,0.5-1.5,0.8-2.5,0.8c-0.8,0-1.6-0.1-2.3-0.4c-0.5-0.2-0.8-0.4-1-0.5
		l0.7-1.3c0.9,0.5,1.7,0.7,2.4,0.7c0.5,0,0.9-0.1,1.2-0.3c0.3-0.2,0.4-0.5,0.4-0.8s-0.2-0.6-0.5-0.8c-0.2-0.1-0.6-0.3-1.4-0.7
		c-0.7-0.3-1.2-0.6-1.6-0.9c-0.5-0.5-0.8-1.1-0.8-1.8c0-0.8,0.3-1.5,0.9-1.9c0.6-0.5,1.4-0.7,2.4-0.7c1.3,0,2.2,0.3,2.9,0.8
		l-0.7,1.3c-0.7-0.4-1.4-0.6-2.1-0.6c-1,0-1.4,0.3-1.4,1c0,0.3,0.2,0.5,0.5,0.8c0.2,0.1,0.6,0.3,1.1,0.6c0.9,0.4,1.5,0.7,1.8,1
		C172.5,56.3,172.8,57,172.8,57.7z"/>
	<path class="st1" d="M182.4,60.3h-1.8v-0.7c-0.8,0.6-1.7,0.9-2.7,0.9c-0.9,0-1.7-0.3-2.2-0.8c-0.4-0.4-0.7-0.9-0.8-1.5
		c-0.1-0.4-0.1-1-0.1-1.8v-5h2v4.9c0,0.6,0,1,0,1.2c0.1,0.5,0.2,0.9,0.5,1.1c0.3,0.2,0.6,0.3,1.1,0.3c0.5,0,1.2-0.2,2-0.7v-6.8h2
		V60.3z"/>
	<path class="st1" d="M190.4,51.3l-0.5,1.6c-0.2,0-0.4-0.1-0.6-0.1c-1.1,0-2,0.5-2.6,1.4v6.1h-2v-9h1.8v1.1c0.1-0.2,0.4-0.5,0.8-0.7
		c0.6-0.4,1.4-0.7,2.1-0.7C189.8,51.1,190.1,51.2,190.4,51.3z"/>
</g>
<g>
	<path class="st1" d="M198.3,60.3h-1.8v-0.7c-0.9,0.6-1.8,0.8-2.6,0.8c-0.9,0-1.6-0.3-2.1-0.8c-0.5-0.5-0.8-1.2-0.8-2
		c0-2.1,1.7-3.1,5.1-3.1h0.3v-0.3c0-0.6-0.1-0.9-0.3-1.1c-0.3-0.3-0.8-0.4-1.5-0.4c-0.8,0-1.6,0.2-2.4,0.7l-0.7-1.3
		c0.2-0.2,0.5-0.4,1-0.5c0.7-0.3,1.5-0.4,2.3-0.4c1.2,0,2.2,0.3,2.8,1c0.3,0.3,0.5,0.7,0.6,1.2c0.1,0.3,0.1,0.8,0.1,1.6V60.3z
		 M196.4,58.3V56H196c-1.4,0-2.3,0.2-2.8,0.7c-0.2,0.2-0.3,0.5-0.3,0.9c0,0.4,0.1,0.8,0.5,1c0.3,0.2,0.7,0.3,1.1,0.3
		C195,58.9,195.7,58.7,196.4,58.3z"/>
	<path class="st1" d="M208.1,60.3h-2v-4.9c0-1.2-0.1-1.9-0.4-2.2c-0.3-0.3-0.7-0.4-1.1-0.4c-0.6,0-1.3,0.2-2,0.7v6.8h-2v-9h1.8V52
		c0.8-0.6,1.7-0.9,2.7-0.9c0.9,0,1.7,0.3,2.2,0.8c0.4,0.4,0.7,0.9,0.8,1.5c0.1,0.4,0.1,1,0.1,1.8V60.3z"/>
	<path class="st1" d="M217.7,59.5c-0.1,0.1-0.4,0.3-0.9,0.6c-0.7,0.3-1.5,0.5-2.4,0.5c-1.3,0-2.4-0.4-3.2-1.3
		c-0.8-0.9-1.2-2-1.2-3.3c0-1.4,0.4-2.6,1.3-3.5c0.9-0.9,2-1.4,3.3-1.4c0.8,0,1.5,0.2,2.1,0.5c0.4,0.2,0.7,0.4,0.9,0.6l-0.8,1.3
		c-0.6-0.4-1.3-0.6-2-0.6c-0.8,0-1.5,0.3-2,0.9c-0.5,0.6-0.7,1.3-0.7,2.1c0,0.9,0.2,1.6,0.7,2.2c0.5,0.6,1.1,0.8,2,0.8
		c0.7,0,1.4-0.2,2.3-0.7L217.7,59.5z"/>
</g>
<g>
	<path class="st1" d="M226.7,55.7c0,0.1,0,0.2,0,0.4c0,0.2,0,0.3,0,0.3h-6.1c0,0.6,0.2,1.2,0.6,1.7c0.5,0.6,1.1,0.8,2,0.8
		c0.7,0,1.6-0.2,2.5-0.7l0.7,1.3c-0.9,0.6-2,1-3.3,1c-1.4,0-2.5-0.4-3.2-1.3c-0.8-0.8-1.1-1.9-1.1-3.3c0-1.4,0.4-2.6,1.2-3.5
		c0.8-0.9,1.8-1.3,3.1-1.3c1.2,0,2.2,0.4,2.8,1.2C226.4,53.1,226.7,54.3,226.7,55.7z M224.8,54.9c0-0.6-0.1-1-0.3-1.4
		c-0.3-0.6-0.9-0.9-1.6-0.9c-0.6,0-1.1,0.2-1.6,0.6c-0.4,0.4-0.7,1-0.7,1.7H224.8z"/>
	<path class="st1" d="M241.5,51.7c0,1.1-0.3,2-1,2.7c-0.5,0.5-1.1,0.9-1.9,1c-0.5,0.1-1.2,0.1-2.3,0.1h-0.9v4.7h-2.1V48.1h3.3
		c1,0,1.7,0.1,2.2,0.2c0.7,0.1,1.3,0.4,1.7,0.9C241.2,49.8,241.5,50.7,241.5,51.7z M239.3,51.8c0-0.6-0.2-1.2-0.6-1.5
		c-0.3-0.3-1.1-0.5-2.3-0.5h-1.2v4.2h0.9c1.3,0,2.2-0.2,2.6-0.6C239.2,53,239.3,52.5,239.3,51.8z"/>
	<path class="st1" d="M245.7,60.3h-2V47h2V60.3z"/>
	<path class="st1" d="M254.9,60.3h-1.8v-0.7c-0.9,0.6-1.8,0.8-2.6,0.8c-0.9,0-1.6-0.3-2.1-0.8c-0.5-0.5-0.8-1.2-0.8-2
		c0-2.1,1.7-3.1,5.1-3.1h0.3v-0.3c0-0.6-0.1-0.9-0.3-1.1c-0.3-0.3-0.8-0.4-1.5-0.4c-0.8,0-1.6,0.2-2.4,0.7l-0.7-1.3
		c0.2-0.2,0.5-0.4,1-0.5c0.7-0.3,1.5-0.4,2.3-0.4c1.2,0,2.2,0.3,2.8,1c0.3,0.3,0.5,0.7,0.6,1.2c0.1,0.3,0.1,0.8,0.1,1.6V60.3z
		 M253,58.3V56h-0.4c-1.4,0-2.3,0.2-2.8,0.7c-0.2,0.2-0.3,0.5-0.3,0.9c0,0.4,0.1,0.8,0.5,1c0.3,0.2,0.7,0.3,1.1,0.3
		C251.6,58.9,252.2,58.7,253,58.3z"/>
	<path class="st1" d="M264.7,60.3h-2v-4.9c0-1.2-0.1-1.9-0.4-2.2c-0.3-0.3-0.7-0.4-1.1-0.4c-0.6,0-1.3,0.2-2,0.7v6.8h-2v-9h1.8V52
		c0.8-0.6,1.7-0.9,2.7-0.9c0.9,0,1.7,0.3,2.2,0.8c0.4,0.4,0.7,0.9,0.8,1.5c0.1,0.4,0.1,1,0.1,1.8V60.3z"/>
	<path class="st1" d="M273,57.7c0,0.9-0.3,1.6-1,2.1c-0.6,0.5-1.5,0.8-2.5,0.8c-0.8,0-1.6-0.1-2.3-0.4c-0.5-0.2-0.8-0.4-1-0.5
		l0.7-1.3c0.9,0.5,1.7,0.7,2.4,0.7c0.5,0,0.9-0.1,1.2-0.3c0.3-0.2,0.4-0.5,0.4-0.8s-0.2-0.6-0.5-0.8c-0.2-0.1-0.6-0.3-1.4-0.7
		c-0.7-0.3-1.2-0.6-1.6-0.9c-0.5-0.5-0.8-1.1-0.8-1.8c0-0.8,0.3-1.5,0.9-1.9c0.6-0.5,1.4-0.7,2.4-0.7c1.3,0,2.2,0.3,2.9,0.8
		l-0.7,1.3c-0.7-0.4-1.4-0.6-2.1-0.6c-1,0-1.4,0.3-1.4,1c0,0.3,0.2,0.5,0.5,0.8c0.2,0.1,0.6,0.3,1.1,0.6c0.9,0.4,1.5,0.7,1.8,1
		C272.7,56.3,273,57,273,57.7z"/>
</g>
<path class="st0" d="M65.7,60.5c-0.9,0-1.5-0.7-1.5-1.5c0-0.9,0.7-1.5,1.5-1.5c0.9,0,1.5,0.7,1.5,1.5C67.2,59.8,66.5,60.5,65.7,60.5
	 M65.7,57.8c-0.7,0-1.2,0.5-1.2,1.2c0,0.6,0.5,1.1,1.2,1.1c0.6,0,1.2-0.5,1.2-1.1C66.8,58.3,66.3,57.8,65.7,57.8 M66,59.7l-0.2-0.4
	c-0.1-0.2-0.1-0.2-0.3-0.2h-0.1v0.6h-0.3v-1.6h0.4c0.2,0,0.4,0,0.5,0.1c0.1,0.1,0.2,0.2,0.2,0.3c0,0.2-0.1,0.3-0.3,0.4
	c0.1,0,0.1,0.1,0.2,0.2l0.2,0.6H66z M65.8,58.4c-0.1,0-0.2,0-0.2,0h-0.1v0.4c0.1,0,0.2,0,0.3,0c0.1,0,0.2-0.1,0.2-0.2
	C65.9,58.5,65.9,58.5,65.8,58.4"/>
<rect x="26.4" y="45" class="st2" width="247" height="17"/>
</svg>
