<svg xmlns="http://www.w3.org/2000/svg" viewBox="0 0 300 600"><path d="M45 140.5c-1.3.5-2.5.8-3.8.8-2 0-3.8-.4-5.5-1.1-1.6-.7-3-1.7-4.1-2.9-1.1-1.2-2-2.7-2.6-4.3-.6-1.7-.9-3.5-.9-5.4 0-2 .3-3.8.9-5.5.6-1.7 1.4-3.2 2.6-4.4 1.1-1.3 2.5-2.2 4.1-3 1.6-.7 3.4-1.1 5.5-1.1 1.4 0 2.7.2 3.9.6 1.3.4 2.4 1 3.4 1.8s1.9 1.8 2.5 2.9c.7 1.2 1.1 2.5 1.2 4h-5.5c-.3-1.5-1-2.6-2-3.3-1-.7-2.2-1.1-3.6-1.1-1.3 0-2.4.3-3.3.8-.9.5-1.7 1.2-2.2 2s-1 1.8-1.2 2.9-.4 2.2-.4 3.4c0 1.1.1 2.2.4 3.2s.7 2 1.2 2.8c.6.8 1.3 1.5 2.2 2 .9.5 2 .8 3.3.8 1.9 0 3.4-.5 4.5-1.5 1-1 1.7-2.4 1.8-4.2h-5.8v-4.3h11.1v14.3H49l-.6-3c-1 1.3-2.1 2.2-3.4 2.8zM62.2 136.1c.8.8 1.9 1.1 3.4 1.1 1.1 0 2-.3 2.7-.8.8-.5 1.2-1.1 1.4-1.7h4.6c-.7 2.3-1.9 3.9-3.4 4.9-1.5 1-3.4 1.5-5.6 1.5-1.5 0-2.9-.2-4.1-.7-1.2-.5-2.2-1.2-3.1-2.1-.8-.9-1.5-1.9-1.9-3.2-.5-1.2-.7-2.6-.7-4.1 0-1.4.2-2.8.7-4 .5-1.2 1.1-2.3 2-3.2.9-.9 1.9-1.6 3.1-2.1s2.5-.8 4-.8c1.6 0 3 .3 4.3.9 1.2.6 2.2 1.5 3 2.5.8 1.1 1.3 2.3 1.7 3.6.3 1.4.5 2.8.4 4.3H60.9c.1 1.9.5 3.1 1.3 3.9zm5.9-10.1c-.6-.7-1.6-1-2.9-1-.8 0-1.5.1-2.1.4-.6.3-1 .6-1.3 1.1-.3.4-.6.9-.7 1.3-.1.5-.2.9-.2 1.3h8.5c-.2-1.4-.7-2.4-1.3-3.1zM88 121.5v3.5h-3.8v9.5c0 .9.1 1.5.4 1.8.3.3.9.4 1.8.4h.9c.3 0 .5-.1.8-.1v4.1c-.4.1-.9.1-1.5.1H85c-.8 0-1.6-.1-2.3-.2-.7-.1-1.4-.3-1.9-.6-.6-.3-1-.8-1.3-1.4-.3-.6-.5-1.4-.5-2.3V125h-3.2v-3.5H79v-5.7h5.3v5.7H88zM100.7 121.5v3.5h-3.8v9.5c0 .9.1 1.5.4 1.8.3.3.9.4 1.8.4h.9c.3 0 .5-.1.8-.1v4.1c-.4.1-.9.1-1.5.1h-1.6c-.8 0-1.6-.1-2.3-.2-.7-.1-1.4-.3-1.9-.6-.6-.3-1-.8-1.3-1.4-.3-.6-.5-1.4-.5-2.3V125h-3.2v-3.5h3.2v-5.7H97v5.7h3.7zM103 118.6v-4.3h5.3v4.3H103zm5.2 2.9v19.1H103v-19.1h5.2zM117 121.5v2.7h.1c.7-1.1 1.5-1.9 2.6-2.4s2.1-.8 3.3-.8c1.4 0 2.6.2 3.5.6.9.4 1.6.9 2.1 1.6.5.7.9 1.5 1.1 2.5.2 1 .3 2.1.3 3.2v11.8h-5.3v-10.8c0-1.6-.2-2.8-.7-3.5-.5-.8-1.4-1.2-2.6-1.2-1.4 0-2.5.4-3.1 1.3-.6.9-1 2.3-1 4.2v10H112v-19.1h5zM151.7 142.1c-.2 1-.7 1.9-1.3 2.8-.7.9-1.7 1.6-3 2.2-1.3.6-3.1.9-5.3.9-.9 0-1.9-.1-2.9-.4s-1.9-.6-2.7-1.1c-.8-.5-1.5-1.1-2-1.9-.5-.8-.8-1.7-.9-2.8h5.2c.2 1 .7 1.7 1.4 2.1.7.4 1.5.6 2.5.6 1.5 0 2.6-.4 3.2-1.3.7-.9 1-2 1-3.4v-2.5h-.1c-.6 1-1.4 1.8-2.4 2.2s-2.2.7-3.3.7c-1.4 0-2.7-.3-3.7-.8s-1.9-1.2-2.6-2.1c-.7-.9-1.2-1.9-1.5-3.1-.3-1.2-.5-2.4-.5-3.7 0-1.2.2-2.4.5-3.6.4-1.1.9-2.2 1.6-3 .7-.9 1.5-1.6 2.6-2.1 1-.5 2.2-.8 3.5-.8 1.3 0 2.4.2 3.3.7.9.5 1.7 1.3 2.4 2.4h.1v-2.6h5v17.9c.2.8.1 1.7-.1 2.7zm-7.2-6.4c.6-.3 1-.7 1.4-1.2.4-.5.6-1.1.8-1.7.2-.6.3-1.3.3-2 0-.8-.1-1.5-.2-2.2-.1-.7-.4-1.3-.7-1.9-.3-.5-.8-1-1.4-1.3-.6-.3-1.3-.5-2.1-.5-.7 0-1.4.1-1.9.4s-1 .7-1.3 1.2c-.4.5-.6 1.1-.8 1.7-.2.7-.2 1.3-.2 2.1 0 .7.1 1.4.2 2.1.1.7.4 1.3.7 1.8.3.5.8 1 1.3 1.3.5.3 1.2.5 2 .5.7.1 1.3 0 1.9-.3zM34.2 156.2v26.4H29v-26.4h5.2zM38.1 168.9c.5-1.2 1.1-2.3 2-3.2.9-.9 1.9-1.6 3.1-2 1.2-.5 2.6-.7 4.1-.7 1.5 0 2.9.2 4.1.7 1.2.5 2.3 1.2 3.1 2 .9.9 1.5 1.9 2 3.2.5 1.2.7 2.6.7 4.2 0 1.5-.2 2.9-.7 4.1-.5 1.2-1.1 2.3-2 3.2-.9.9-1.9 1.5-3.1 2s-2.6.7-4.1.7c-1.5 0-2.9-.2-4.1-.7s-2.2-1.1-3.1-2c-.9-.9-1.5-1.9-2-3.2-.5-1.2-.7-2.6-.7-4.1 0-1.5.3-2.9.7-4.2zm4.8 6.4c.1.7.4 1.4.8 2 .4.6.8 1 1.4 1.4.6.3 1.3.5 2.2.5.9 0 1.6-.2 2.2-.5.6-.3 1.1-.8 1.4-1.4.4-.6.6-1.2.8-2 .1-.7.2-1.5.2-2.2 0-.8-.1-1.5-.2-2.3-.1-.7-.4-1.4-.8-2-.4-.6-.8-1-1.4-1.4-.6-.4-1.4-.5-2.2-.5-.9 0-1.6.2-2.2.5-.6.4-1.1.8-1.4 1.4-.4.6-.6 1.2-.8 2-.1.7-.2 1.5-.2 2.3 0 .8.1 1.5.2 2.2zM76.8 182.7l-3.4-12.8h-.1L70 182.7h-5.4l-6.1-19.1H64l3.5 13h.1l3.2-13h5.1l3.3 12.9h.1l3.5-12.9h5.4l-6 19.1h-5.4zM101.1 170.3v4.5H90v-4.5h11.1zM113.9 167c-.8 0-1.5.2-2.1.6s-1 .9-1.4 1.5c-.4.6-.6 1.3-.8 2-.1.7-.2 1.4-.2 2.2 0 .7.1 1.4.2 2.1s.4 1.4.7 1.9.8 1.1 1.4 1.4c.6.4 1.3.6 2.1.6 1.3 0 2.2-.4 2.9-1.1.7-.7 1.1-1.6 1.3-2.8h5.1c-.3 2.5-1.3 4.5-3 5.8s-3.7 2-6.3 2c-1.4 0-2.7-.2-3.9-.7-1.2-.5-2.2-1.2-3.1-2-.8-.9-1.5-1.9-2-3.1-.5-1.2-.7-2.5-.7-3.9 0-1.5.2-2.9.6-4.1.4-1.3 1.1-2.4 1.9-3.3.8-.9 1.9-1.6 3.1-2.2s2.6-.8 4.1-.8c1.1 0 2.2.1 3.3.4 1 .3 2 .7 2.8 1.4.8.6 1.5 1.4 2 2.3.5.9.8 2 .9 3.2h-5.1c-.3-2.3-1.6-3.4-3.8-3.4zM125.8 168.9c.5-1.2 1.1-2.3 2-3.2.9-.9 1.9-1.6 3.1-2 1.2-.5 2.6-.7 4.1-.7 1.5 0 2.9.2 4.1.7 1.2.5 2.3 1.2 3.1 2 .9.9 1.5 1.9 2 3.2.5 1.2.7 2.6.7 4.2 0 1.5-.2 2.9-.7 4.1-.5 1.2-1.1 2.3-2 3.2s-1.9 1.5-3.1 2c-1.2.5-2.6.7-4.1.7-1.5 0-2.9-.2-4.1-.7s-2.2-1.1-3.1-2c-.9-.9-1.5-1.9-2-3.2-.5-1.2-.7-2.6-.7-4.1 0-1.5.2-2.9.7-4.2zm4.8 6.4c.1.7.4 1.4.8 2 .4.6.8 1 1.4 1.4.6.3 1.3.5 2.2.5.9 0 1.6-.2 2.2-.5.6-.3 1.1-.8 1.4-1.4.4-.6.6-1.2.8-2 .1-.7.2-1.5.2-2.2 0-.8-.1-1.5-.2-2.3-.1-.7-.4-1.4-.8-2-.4-.6-.8-1-1.4-1.4-.6-.4-1.4-.5-2.2-.5-.9 0-1.6.2-2.2.5-.6.4-1.1.8-1.4 1.4-.4.6-.6 1.2-.8 2-.1.7-.2 1.5-.2 2.3-.1.8 0 1.5.2 2.2zM152.3 177.9c.2.4.5.7.9 1 .4.3.8.5 1.3.6.5.1 1 .2 1.5.2.4 0 .8 0 1.2-.1.4-.1.8-.2 1.1-.4.3-.2.6-.4.8-.7.2-.3.3-.7.3-1.2 0-.8-.5-1.4-1.6-1.8-1-.4-2.5-.8-4.4-1.2-.8-.2-1.5-.4-2.2-.6-.7-.2-1.4-.5-1.9-.9-.6-.4-1-.9-1.4-1.4-.3-.6-.5-1.3-.5-2.1 0-1.2.2-2.2.7-3 .5-.8 1.1-1.4 1.9-1.9.8-.5 1.7-.8 2.7-1s2-.3 3-.3 2 .1 3 .3c1 .2 1.8.5 2.6 1s1.4 1.1 1.9 1.9c.5.8.8 1.8.9 2.9h-5c-.1-1-.5-1.7-1.1-2.1-.7-.4-1.5-.5-2.4-.5-.3 0-.6 0-1 .1-.3 0-.7.1-.9.2-.3.1-.5.3-.7.5-.2.2-.3.5-.3.9 0 .5.2.9.5 1.1.3.3.8.5 1.4.7.6.2 1.2.4 1.9.5.7.1 1.4.3 2.2.5.8.2 1.5.4 2.2.6.7.2 1.4.6 1.9 1 .6.4 1 .9 1.4 1.5.3.6.5 1.4.5 2.2 0 1.3-.3 2.3-.8 3.2s-1.2 1.5-2 2.1c-.8.5-1.7.9-2.8 1.1-1 .2-2.1.3-3.2.3s-2.2-.1-3.3-.3-2-.6-2.8-1.1c-.8-.5-1.5-1.2-2-2.1s-.8-1.9-.9-3.2h5c.1.6.2 1.1.4 1.5zM178 163.5v3.5h-3.8v9.5c0 .9.1 1.5.4 1.8.3.3.9.4 1.8.4h.9c.3 0 .5-.1.8-.1v4.1c-.4.1-.9.1-1.5.1H175c-.8 0-1.6-.1-2.3-.2s-1.4-.3-1.9-.6c-.6-.3-1-.8-1.3-1.4-.3-.6-.5-1.4-.5-2.3V167h-3.2v-3.5h3.2v-5.7h5.3v5.7h3.7zM186.2 177v5.7c0 .8-.2 1.6-.5 2.3s-.7 1.3-1.2 1.8-1.1.9-1.8 1.3-1.4.6-2.2.7v-2.7c.4-.1.7-.2 1.1-.4s.6-.5.9-.8c.2-.3.4-.7.6-1 .1-.4.2-.8.1-1.2h-2.7V177h5.7z"/><g><path d="M34.1 198.2v10h.1c.7-1.1 1.5-1.9 2.6-2.4 1-.5 2-.8 3-.8 1.4 0 2.6.2 3.5.6.9.4 1.6.9 2.1 1.6.5.7.9 1.5 1.1 2.5.2 1 .3 2.1.3 3.2v11.8h-5.3v-10.8c0-1.6-.2-2.8-.7-3.5-.5-.8-1.4-1.2-2.6-1.2-1.4 0-2.5.4-3.1 1.3-.6.9-1 2.3-1 4.2v10h-5.3v-26.4h5.3zM50.6 202.6v-4.3h5.3v4.3h-5.3zm5.2 2.9v19.1h-5.3v-19.1h5.3zM77.7 226.1c-.2 1-.7 1.9-1.4 2.8-.7.9-1.7 1.6-3 2.2-1.3.6-3.1.9-5.3.9-.9 0-1.9-.1-2.9-.4-1-.2-1.9-.6-2.7-1.1-.8-.5-1.5-1.1-2-1.9-.5-.8-.8-1.7-.9-2.8h5.2c.2 1 .7 1.7 1.4 2.1.7.4 1.5.6 2.5.6 1.5 0 2.6-.4 3.2-1.3.7-.9 1-2 1-3.4v-2.5h-.1c-.6 1-1.4 1.8-2.4 2.2-1 .5-2.2.7-3.3.7-1.4 0-2.7-.3-3.7-.8s-1.9-1.2-2.6-2.1c-.7-.9-1.2-1.9-1.5-3.1-.3-1.2-.5-2.4-.5-3.7 0-1.2.2-2.4.5-3.6.4-1.1.9-2.2 1.6-3 .7-.9 1.5-1.6 2.6-2.1 1-.5 2.2-.8 3.5-.8 1.3 0 2.4.2 3.3.7.9.5 1.7 1.3 2.4 2.4h.4v-2.6h5v17.9c0 .8-.1 1.7-.3 2.7zm-7.2-6.4c.6-.3 1-.7 1.4-1.2.4-.5.6-1.1.8-1.7.2-.6.3-1.3.3-2 0-.8-.1-1.5-.2-2.2s-.4-1.3-.7-1.9c-.3-.5-.8-1-1.4-1.3-.6-.3-1.3-.5-2.1-.5-.7 0-1.4.1-1.9.4s-1 .7-1.3 1.2c-.4.5-.6 1.1-.8 1.7-.2.7-.2 1.3-.2 2.1 0 .7.1 1.4.2 2.1.1.7.4 1.3.7 1.8s.8 1 1.3 1.3c.5.3 1.2.5 2 .5.7.1 1.3 0 1.9-.3zM87.1 198.2v10h.1c.7-1.1 1.5-1.9 2.6-2.4 1-.5 2-.8 3-.8 1.4 0 2.6.2 3.5.6.9.4 1.6.9 2.1 1.6.5.7.9 1.5 1.1 2.5.2 1 .3 2.1.3 3.2v11.8h-5.3v-10.8c0-1.6-.2-2.8-.7-3.5-.5-.8-1.4-1.2-2.6-1.2-1.4 0-2.5.4-3.1 1.3-.6.9-1 2.3-1 4.2v10h-5.3v-26.4h5.3zM114.6 212.3v4.5h-11.1v-4.5h11.1zM131.6 231.3v-9.1h-.1c-.6 1-1.5 1.8-2.6 2.2s-2.3.7-3.4.7c-.9 0-1.8-.2-2.8-.5s-1.8-.9-2.6-1.7c-.8-.8-1.4-1.8-2-3.1-.5-1.3-.8-2.8-.8-4.7 0-1.3.2-2.6.5-3.8.3-1.2.9-2.3 1.6-3.3.7-.9 1.6-1.7 2.7-2.3 1.1-.6 2.3-.9 3.8-.9 1.2 0 2.3.2 3.3.7 1 .5 1.9 1.2 2.5 2.3h.1v-2.4h5v25.8h-5.2zm-8.8-14c.1.7.4 1.4.8 2 .4.6.8 1 1.4 1.4.6.3 1.3.5 2.2.5s1.6-.2 2.2-.5 1-.8 1.4-1.3c.4-.6.6-1.2.8-1.9.2-.7.2-1.5.2-2.3 0-.7-.1-1.5-.2-2.2-.2-.7-.4-1.4-.8-2-.3-.6-.8-1.1-1.4-1.4-.6-.4-1.3-.6-2.1-.6-.9 0-1.6.2-2.2.5-.6.3-1.1.8-1.4 1.4-.4.6-.6 1.2-.8 2-.2.7-.2 1.5-.2 2.3-.1.7 0 1.4.1 2.1zM153.3 224.6V222h-.1c-.7 1.1-1.5 1.9-2.6 2.4s-2.1.7-3.3.7c-1.4 0-2.6-.2-3.5-.6-.9-.4-1.6-.9-2.1-1.6-.5-.7-.9-1.5-1.1-2.5-.2-1-.3-2.1-.3-3.2v-11.8h5.3v10.8c0 1.6.2 2.8.7 3.5.5.8 1.4 1.2 2.6 1.2 1.4 0 2.5-.4 3.1-1.3s1-2.3 1-4.2v-10h5.3v19.1h-5zM161.8 211.4c.1-1.2.4-2.3.9-3.1.5-.8 1.2-1.5 2.1-2 .8-.5 1.8-.8 2.8-1.1 1-.2 2.1-.3 3.2-.3 1 0 1.9.1 2.9.2s1.9.4 2.7.8c.8.4 1.5.9 2 1.6.5.7.8 1.6.8 2.8v10c0 .9 0 1.7.1 2.5s.3 1.4.5 1.8h-5.3c-.1-.3-.2-.6-.2-.9-.1-.3-.1-.6-.1-.9-.8.9-1.8 1.5-3 1.8s-2.3.5-3.5.5c-.9 0-1.8-.1-2.6-.3-.8-.2-1.5-.6-2.1-1-.6-.5-1.1-1.1-1.4-1.8-.3-.7-.5-1.6-.5-2.6 0-1.1.2-2 .6-2.7.4-.7.9-1.3 1.5-1.7.6-.4 1.3-.7 2.1-.9.8-.2 1.6-.4 2.3-.5.8-.1 1.6-.2 2.3-.3.8-.1 1.4-.2 2-.3.6-.1 1.1-.4 1.4-.6.3-.3.5-.7.5-1.2 0-.6-.1-1-.3-1.4-.2-.3-.4-.6-.7-.8s-.7-.3-1.1-.4c-.4-.1-.8-.1-1.3-.1-1 0-1.8.2-2.4.7-.6.4-.9 1.2-1 2.2h-5.2zm12.1 3.9c-.2.2-.5.4-.8.5s-.7.2-1.1.3c-.4.1-.8.1-1.2.2-.4 0-.8.1-1.3.2l-1.2.3c-.4.1-.7.3-1 .5-.3.2-.5.5-.7.8-.2.3-.3.7-.3 1.2s.1.9.3 1.2c.2.3.4.6.7.8.3.2.6.3 1 .4.4.1.8.1 1.2.1 1 0 1.8-.2 2.4-.5.6-.3 1-.8 1.3-1.2.3-.5.4-1 .5-1.5.1-.5.1-.9.1-1.2v-2.1zM188.3 198.2v26.4H183v-26.4h5.3zM192.2 202.6v-4.3h5.3v4.3h-5.3zm5.3 2.9v19.1h-5.3v-19.1h5.3zM211.8 205.5v3.5H208v9.5c0 .9.1 1.5.4 1.8.3.3.9.4 1.8.4h.9c.3 0 .5-.1.8-.1v4.1c-.4.1-.9.1-1.5.1h-1.6c-.8 0-1.6-.1-2.3-.2s-1.4-.3-1.9-.6c-.6-.3-1-.8-1.3-1.4-.3-.6-.5-1.4-.5-2.3V209h-3.2v-3.5h3.2v-5.7h5.3v5.7h3.7zM221 230.3c-1 .7-2.4 1-4.2 1-.5 0-1.1 0-1.6-.1s-1.1-.1-1.6-.1v-4.3c.5 0 1 .1 1.5.1s1 .1 1.6 0c.7-.1 1.2-.3 1.5-.8.3-.5.5-1 .5-1.6 0-.4-.1-.8-.2-1.2l-6.7-17.9h5.6l4.3 13.1h.1l4.2-13.1h5.4l-8 21.5c-.6 1.7-1.4 2.8-2.4 3.4z"/></g><g><path d="M37.9 251c-.8 0-1.5.2-2.1.6s-1 .9-1.4 1.5c-.4.6-.6 1.3-.8 2-.1.7-.2 1.4-.2 2.2 0 .7.1 1.4.2 2.1s.4 1.4.7 1.9.8 1.1 1.4 1.4c.6.4 1.3.6 2.1.6 1.3 0 2.2-.4 2.9-1.1.7-.7 1.1-1.6 1.3-2.8h5.1c-.3 2.5-1.3 4.5-3 5.8s-3.7 2-6.3 2c-1.4 0-2.7-.2-3.9-.7-1.2-.5-2.2-1.2-3.1-2-.8-.9-1.5-1.9-2-3.1-.5-1.2-.7-2.5-.7-3.9 0-1.5.2-2.9.6-4.1.4-1.3 1.1-2.4 1.9-3.3.8-.9 1.9-1.6 3.1-2.2s2.6-.8 4.1-.8c1.1 0 2.2.1 3.3.4 1 .3 2 .7 2.8 1.4.8.6 1.5 1.4 2 2.3.5.9.8 2 .9 3.2h-5.1c-.2-2.3-1.5-3.4-3.8-3.4zM49.8 252.9c.5-1.2 1.1-2.3 2-3.2.9-.9 1.9-1.6 3.1-2 1.2-.5 2.6-.7 4.1-.7 1.5 0 2.9.2 4.1.7 1.2.5 2.3 1.2 3.1 2 .9.9 1.5 1.9 2 3.2.5 1.2.7 2.6.7 4.2 0 1.5-.2 2.9-.7 4.1-.5 1.2-1.1 2.3-2 3.2-.9.9-1.9 1.5-3.1 2s-2.6.7-4.1.7c-1.5 0-2.9-.2-4.1-.7s-2.2-1.1-3.1-2c-.9-.9-1.5-1.9-2-3.2-.5-1.2-.7-2.6-.7-4.1 0-1.5.3-2.9.7-4.2zm4.8 6.4c.1.7.4 1.4.8 2 .4.6.8 1 1.4 1.4.6.3 1.3.5 2.2.5.9 0 1.6-.2 2.2-.5.6-.3 1.1-.8 1.4-1.4.4-.6.6-1.2.8-2 .1-.7.2-1.5.2-2.2 0-.8-.1-1.5-.2-2.3-.1-.7-.4-1.4-.8-2-.4-.6-.8-1-1.4-1.4-.6-.4-1.4-.5-2.2-.5-.9 0-1.6.2-2.2.5-.6.4-1.1.8-1.4 1.4-.4.6-.6 1.2-.8 2-.1.7-.2 1.5-.2 2.3 0 .8 0 1.5.2 2.2zM76.7 266.6l-6.5-19.1h5.5l4 13.1h.1l4-13.1H89l-6.5 19.1h-5.8zM96.5 262.1c.8.8 1.9 1.1 3.4 1.1 1.1 0 2-.3 2.7-.8.8-.5 1.2-1.1 1.4-1.7h4.6c-.7 2.3-1.9 3.9-3.4 4.9-1.5 1-3.4 1.5-5.6 1.5-1.5 0-2.9-.2-4.1-.7-1.2-.5-2.2-1.2-3.1-2.1-.8-.9-1.5-1.9-1.9-3.2-.5-1.2-.7-2.6-.7-4.1 0-1.4.2-2.8.7-4 .5-1.2 1.1-2.3 2-3.2.9-.9 1.9-1.6 3.1-2.1s2.5-.8 4-.8c1.6 0 3 .3 4.3.9 1.2.6 2.2 1.5 3 2.5.8 1.1 1.3 2.3 1.7 3.6.3 1.4.5 2.8.4 4.3H95.2c.1 1.9.5 3.1 1.3 3.9zm6-10.1c-.6-.7-1.6-1-2.9-1-.8 0-1.5.1-2.1.4-.6.3-1 .6-1.3 1.1-.3.4-.6.9-.7 1.3-.1.5-.2.9-.2 1.3h8.5c-.3-1.4-.7-2.4-1.3-3.1zM116.8 247.5v3.6h.1c.2-.6.6-1.1 1-1.6s.9-.9 1.4-1.3c.5-.4 1.1-.6 1.7-.8.6-.2 1.3-.3 1.9-.3.3 0 .7.1 1.1.2v4.9c-.2 0-.5-.1-.9-.1-.3 0-.7-.1-1-.1-1 0-1.8.2-2.4.5-.7.3-1.2.8-1.6 1.3-.4.6-.7 1.2-.9 1.9-.2.7-.3 1.5-.3 2.4v8.6h-5.3v-19.1h5.2zM125.6 253.4c.1-1.2.4-2.3.9-3.1.5-.8 1.2-1.5 2.1-2 .8-.5 1.8-.8 2.8-1.1 1-.2 2.1-.3 3.2-.3 1 0 1.9.1 2.9.2s1.9.4 2.7.8c.8.4 1.5.9 2 1.6.5.7.8 1.6.8 2.8v10c0 .9 0 1.7.1 2.5s.3 1.4.5 1.8h-5.3c-.1-.3-.2-.6-.2-.9-.1-.3-.1-.6-.1-.9-.8.9-1.8 1.5-3 1.8-1.1.3-2.3.5-3.5.5-.9 0-1.8-.1-2.6-.3-.8-.2-1.5-.6-2.1-1-.6-.5-1.1-1.1-1.4-1.8-.3-.7-.5-1.6-.5-2.6 0-1.1.2-2 .6-2.7s.9-1.3 1.5-1.7c.6-.4 1.3-.7 2.1-.9.8-.2 1.6-.4 2.3-.5.8-.1 1.6-.2 2.3-.3.8-.1 1.4-.2 2-.3.6-.1 1.1-.4 1.4-.6.3-.3.5-.7.5-1.2 0-.6-.1-1-.3-1.4-.2-.3-.4-.6-.7-.8-.3-.2-.7-.3-1.1-.4-.4-.1-.8-.1-1.3-.1-1 0-1.8.2-2.4.7-.6.4-.9 1.2-1 2.2h-5.2zm12.2 3.9c-.2.2-.5.4-.8.5s-.7.2-1.1.3c-.4.1-.8.1-1.2.2-.4 0-.8.1-1.3.2l-1.2.3c-.4.1-.7.3-1 .5-.3.2-.5.5-.7.8-.2.3-.3.7-.3 1.2s.1.9.3 1.2c.2.3.4.6.7.8s.6.3 1 .4c.4.1.8.1 1.2.1 1 0 1.8-.2 2.4-.5.6-.3 1-.8 1.3-1.2s.4-1 .5-1.5c.1-.5.1-.9.1-1.2v-2.1zM164.8 268c-.2 1-.7 1.9-1.4 2.8s-1.7 1.6-3 2.2c-1.3.6-3.1.9-5.3.9-.9 0-1.9-.1-2.9-.4s-1.9-.6-2.7-1.1c-.8-.5-1.5-1.1-2-1.9-.5-.8-.8-1.7-.9-2.8h5.2c.2 1 .7 1.7 1.4 2.1.7.4 1.5.6 2.5.6 1.5 0 2.6-.4 3.2-1.3.7-.9 1-2 1-3.4v-2.5h-.1c-.6 1-1.4 1.8-2.4 2.2-1 .5-2.2.7-3.3.7-1.4 0-2.7-.3-3.7-.8s-1.9-1.2-2.6-2.1c-.7-.9-1.2-1.9-1.5-3.1-.3-1.2-.5-2.4-.5-3.7 0-1.2.2-2.4.5-3.6s.9-2.2 1.6-3 1.5-1.6 2.6-2.1c1-.5 2.2-.8 3.5-.8 1.3 0 2.4.2 3.3.7.9.5 1.7 1.3 2.4 2.4h.1v-2.6h5v17.9c.3.9.2 1.8 0 2.7zm-7.2-6.3c.6-.3 1-.7 1.4-1.2.4-.5.6-1.1.8-1.7.2-.6.3-1.3.3-2 0-.8-.1-1.5-.2-2.2-.1-.7-.4-1.3-.7-1.9-.3-.5-.8-1-1.4-1.3-.6-.3-1.3-.5-2.1-.5-.7 0-1.4.1-1.9.4-.5.3-1 .7-1.3 1.2-.4.5-.6 1.1-.8 1.7-.2.7-.2 1.3-.2 2.1 0 .7.1 1.4.2 2.1.1.7.4 1.3.7 1.8s.8 1 1.3 1.3c.5.3 1.2.5 2 .5.7.1 1.4 0 1.9-.3zM174.7 262.1c.8.8 1.9 1.1 3.4 1.1 1.1 0 2-.3 2.7-.8.8-.5 1.2-1.1 1.4-1.7h4.6c-.7 2.3-1.9 3.9-3.4 4.9-1.5 1-3.4 1.5-5.5 1.5-1.5 0-2.9-.2-4.1-.7-1.2-.5-2.2-1.2-3.1-2.1-.8-.9-1.5-1.9-1.9-3.2-.5-1.2-.7-2.6-.7-4.1 0-1.4.2-2.8.7-4 .5-1.2 1.1-2.3 2-3.2.9-.9 1.9-1.6 3.1-2.1s2.5-.8 4-.8c1.6 0 3 .3 4.3.9s2.2 1.5 3 2.5c.8 1.1 1.3 2.3 1.7 3.6.3 1.4.5 2.8.4 4.3h-13.8c-.1 1.9.4 3.1 1.2 3.9zm5.9-10.1c-.6-.7-1.6-1-2.9-1-.8 0-1.5.1-2.1.4-.6.3-1 .6-1.3 1.1-.3.4-.6.9-.7 1.3-.1.5-.2.9-.2 1.3h8.5c-.2-1.4-.7-2.4-1.3-3.1zM199.6 253.4c.1-1.2.4-2.3.9-3.1.5-.8 1.2-1.5 2.1-2 .8-.5 1.8-.8 2.8-1.1 1-.2 2.1-.3 3.2-.3 1 0 1.9.1 2.9.2s1.9.4 2.7.8c.8.4 1.5.9 2 1.6.5.7.8 1.6.8 2.8v10c0 .9 0 1.7.1 2.5s.3 1.4.5 1.8h-5.3c-.1-.3-.2-.6-.2-.9-.1-.3-.1-.6-.1-.9-.8.9-1.8 1.5-3 1.8s-2.3.5-3.5.5c-.9 0-1.8-.1-2.6-.3-.8-.2-1.5-.6-2.1-1-.6-.5-1.1-1.1-1.4-1.8-.3-.7-.5-1.6-.5-2.6 0-1.1.2-2 .6-2.7.4-.7.9-1.3 1.5-1.7.6-.4 1.3-.7 2.1-.9.8-.2 1.6-.4 2.3-.5.8-.1 1.6-.2 2.3-.3.8-.1 1.4-.2 2-.3.6-.1 1.1-.4 1.4-.6.3-.3.5-.7.5-1.2 0-.6-.1-1-.3-1.4-.2-.3-.4-.6-.7-.8s-.7-.3-1.1-.4c-.4-.1-.8-.1-1.3-.1-1 0-1.8.2-2.4.7-.6.4-.9 1.2-1 2.2h-5.2zm12.2 3.9c-.2.2-.5.4-.8.5s-.7.2-1.1.3c-.4.1-.8.1-1.2.2-.4 0-.8.1-1.3.2l-1.2.3c-.4.1-.7.3-1 .5-.3.2-.5.5-.7.8-.2.3-.3.7-.3 1.2s.1.9.3 1.2c.2.3.4.6.7.8.3.2.6.3 1 .4.4.1.8.1 1.2.1 1 0 1.8-.2 2.4-.5.6-.3 1-.8 1.3-1.2.3-.5.4-1 .5-1.5.1-.5.1-.9.1-1.2v-2.1zM231.3 247.5v3.5h-3.8v9.5c0 .9.1 1.5.4 1.8.3.3.9.4 1.8.4h.9c.3 0 .5-.1.8-.1v4.1c-.4.1-.9.1-1.5.1h-1.6c-.8 0-1.6-.1-2.3-.2s-1.4-.3-1.9-.6c-.6-.3-1-.8-1.3-1.4-.3-.6-.5-1.4-.5-2.3V251H219v-3.5h3.2v-5.7h5.3v5.7h3.8z"/></g><g><path d="M39.3 289.5v3.5h-3.8v9.5c0 .9.1 1.5.4 1.8s.9.4 1.8.4h.9c.3 0 .5-.1.8-.1v4.1c-.4.1-.9.1-1.5.1h-1.6c-.8 0-1.6-.1-2.3-.2-.7-.1-1.4-.3-1.9-.6-.6-.3-1-.8-1.3-1.4-.3-.6-.5-1.4-.5-2.3V293H27v-3.5h3.2v-5.7h5.3v5.7h3.8zM46.8 282.2v10h.1c.7-1.1 1.5-1.9 2.6-2.4 1-.5 2-.8 3-.8 1.4 0 2.6.2 3.5.6.9.4 1.6.9 2.1 1.6.5.7.9 1.5 1.1 2.5.2 1 .3 2.1.3 3.2v11.8h-5.3v-10.8c0-1.6-.2-2.8-.7-3.5-.5-.8-1.4-1.2-2.6-1.2-1.4 0-2.5.4-3.1 1.3-.6.9-1 2.3-1 4.2v10h-5.3v-26.4h5.3zM68.7 304c.8.8 1.9 1.1 3.4 1.1 1.1 0 2-.3 2.7-.8.8-.5 1.2-1.1 1.4-1.7h4.6c-.7 2.3-1.9 3.9-3.4 4.9-1.5 1-3.4 1.5-5.6 1.5-1.5 0-2.9-.2-4.1-.7-1.2-.5-2.2-1.2-3.1-2.1-.8-.9-1.5-1.9-1.9-3.2s-.7-2.6-.7-4.1c0-1.4.2-2.8.7-4 .5-1.2 1.1-2.3 2-3.2.9-.9 1.9-1.6 3.1-2.1s2.5-.8 4-.8c1.6 0 3 .3 4.3.9 1.2.6 2.2 1.5 3 2.5.8 1.1 1.3 2.3 1.7 3.6.3 1.4.5 2.8.4 4.3H67.4c.1 2 .5 3.2 1.3 3.9zm6-10c-.6-.7-1.6-1-2.9-1-.8 0-1.5.1-2.1.4-.6.3-1 .6-1.3 1.1-.3.4-.6.9-.7 1.3-.1.5-.2.9-.2 1.3H76c-.3-1.4-.7-2.4-1.3-3.1zM98.4 303.9c.2.4.5.7.9 1 .4.3.8.5 1.3.6s1 .2 1.5.2c.4 0 .8 0 1.2-.1.4-.1.8-.2 1.1-.4.3-.2.6-.4.8-.7s.3-.7.3-1.2c0-.8-.5-1.4-1.6-1.8-1-.4-2.5-.8-4.4-1.2-.8-.2-1.5-.4-2.2-.6-.7-.2-1.4-.5-1.9-.9-.6-.4-1-.9-1.4-1.4-.3-.6-.5-1.3-.5-2.1 0-1.2.2-2.2.7-3 .5-.8 1.1-1.4 1.9-1.9.8-.5 1.7-.8 2.7-1 1-.2 2-.3 3-.3s2 .1 3 .3c1 .2 1.8.5 2.6 1s1.4 1.1 1.9 1.9c.5.8.8 1.8.9 2.9h-5c-.1-1-.5-1.7-1.1-2.1-.7-.4-1.5-.5-2.4-.5-.3 0-.6 0-1 .1-.3 0-.7.1-.9.2-.3.1-.5.3-.7.5-.2.2-.3.5-.3.9 0 .5.2.9.5 1.1.3.3.8.5 1.4.7.6.2 1.2.4 1.9.5.7.1 1.4.3 2.2.5.8.2 1.5.4 2.2.6s1.4.6 1.9 1c.6.4 1 .9 1.4 1.5.3.6.5 1.4.5 2.2 0 1.3-.3 2.3-.8 3.2-.5.9-1.2 1.5-2 2.1-.8.5-1.7.9-2.8 1.1-1 .2-2.1.3-3.2.3s-2.2-.1-3.3-.3c-1.1-.2-2-.6-2.8-1.1-.8-.5-1.5-1.2-2-2.1-.5-.9-.8-1.9-.9-3.2h5c0 .6.1 1.1.4 1.5zM124 289.5v3.5h-3.8v9.5c0 .9.1 1.5.4 1.8s.9.4 1.8.4h.9c.3 0 .5-.1.8-.1v4.1c-.4.1-.9.1-1.5.1H121c-.8 0-1.6-.1-2.3-.2-.7-.1-1.4-.3-1.9-.6-.6-.3-1-.8-1.3-1.4-.3-.6-.5-1.4-.5-2.3V293h-3.2v-3.5h3.2v-5.7h5.3v5.7h3.7zM126 295.4c.1-1.2.4-2.3.9-3.1.5-.8 1.2-1.5 2.1-2 .8-.5 1.8-.8 2.8-1.1 1-.2 2.1-.3 3.2-.3 1 0 1.9.1 2.9.2s1.9.4 2.7.8c.8.4 1.5.9 2 1.6.5.7.8 1.6.8 2.8v10c0 .9 0 1.7.1 2.5s.3 1.4.5 1.8h-5.3c-.1-.3-.2-.6-.2-.9-.1-.3-.1-.6-.1-.9-.8.9-1.8 1.5-3 1.8-1.1.3-2.3.5-3.5.5-.9 0-1.8-.1-2.6-.3-.8-.2-1.5-.6-2.1-1-.6-.5-1.1-1.1-1.4-1.8-.3-.7-.5-1.6-.5-2.6 0-1.1.2-2 .6-2.7s.9-1.3 1.5-1.7c.6-.4 1.3-.7 2.1-.9.8-.2 1.6-.4 2.3-.5.8-.1 1.6-.2 2.3-.3.8-.1 1.4-.2 2-.3.6-.1 1.1-.4 1.4-.6.3-.3.5-.7.5-1.2 0-.6-.1-1-.3-1.4-.2-.3-.4-.6-.7-.8-.3-.2-.7-.3-1.1-.4-.4-.1-.8-.1-1.3-.1-1 0-1.8.2-2.4.7-.6.4-.9 1.2-1 2.2H126zm12.1 3.9c-.2.2-.5.4-.8.5s-.7.2-1.1.3c-.4.1-.8.1-1.2.2-.4 0-.8.1-1.3.2l-1.2.3c-.4.1-.7.3-1 .5-.3.2-.5.5-.7.8-.2.3-.3.7-.3 1.2s.1.9.3 1.2c.2.3.4.6.7.8.3.2.6.3 1 .4.4.1.8.1 1.2.1 1 0 1.8-.2 2.4-.5.6-.3 1-.8 1.3-1.2.3-.5.4-1 .5-1.5s.1-.9.1-1.2v-2.1zM152.1 289.5v3.6h.1c.2-.6.6-1.1 1-1.6s.9-.9 1.4-1.3c.5-.4 1.1-.6 1.7-.8.6-.2 1.3-.3 1.9-.3.3 0 .7.1 1.1.2v4.9c-.2 0-.5-.1-.9-.1s-.7-.1-1-.1c-1 0-1.8.2-2.4.5-.7.3-1.2.8-1.6 1.3-.4.6-.7 1.2-.9 1.9-.2.7-.3 1.5-.3 2.4v8.6h-5.3v-19.1h5.2zM171.7 289.5v3.5h-3.8v9.5c0 .9.1 1.5.4 1.8.3.3.9.4 1.8.4h.9c.3 0 .5-.1.8-.1v4.1c-.4.1-.9.1-1.5.1h-1.6c-.8 0-1.6-.1-2.3-.2s-1.4-.3-1.9-.6c-.6-.3-1-.8-1.3-1.4s-.5-1.4-.5-2.3V293h-3.2v-3.5h3.2v-5.7h5.3v5.7h3.7zM183.9 294.9c.5-1.2 1.1-2.3 2-3.2.9-.9 1.9-1.6 3.1-2 1.2-.5 2.6-.7 4.1-.7 1.5 0 2.9.2 4.1.7 1.2.5 2.3 1.2 3.1 2 .9.9 1.5 1.9 2 3.2.5 1.2.7 2.6.7 4.2s-.2 2.9-.7 4.1c-.5 1.2-1.1 2.3-2 3.2s-1.9 1.5-3.1 2c-1.2.5-2.6.7-4.1.7-1.5 0-2.9-.2-4.1-.7-1.2-.5-2.2-1.1-3.1-2-.9-.9-1.5-1.9-2-3.2-.5-1.2-.7-2.6-.7-4.1s.2-2.9.7-4.2zm4.8 6.4c.1.7.4 1.4.8 2 .4.6.8 1 1.4 1.4.6.3 1.3.5 2.2.5s1.6-.2 2.2-.5c.6-.3 1.1-.8 1.4-1.4.4-.6.6-1.2.8-2 .1-.7.2-1.5.2-2.2 0-.8-.1-1.5-.2-2.3-.1-.7-.4-1.4-.8-2-.4-.6-.8-1-1.4-1.4-.6-.4-1.4-.5-2.2-.5s-1.6.2-2.2.5c-.6.4-1.1.8-1.4 1.4-.4.6-.6 1.2-.8 2-.1.7-.2 1.5-.2 2.3 0 .8 0 1.5.2 2.2zM204.1 293v-3.5h3.1V288c0-1.7.5-3.1 1.6-4.2s2.7-1.6 4.8-1.6c.5 0 .9 0 1.4.1.5 0 .9.1 1.4.1v3.9c-.6-.1-1.3-.1-1.9-.1-.7 0-1.2.2-1.5.5s-.5.9-.5 1.7v1.1h3.6v3.5h-3.6v15.6h-5.3V293h-3.1z"/></g><g><path d="M35.9 356.3c-1 .7-2.4 1-4.2 1-.5 0-1.1 0-1.6-.1-.5 0-1.1-.1-1.6-.1v-4.3c.5 0 1 .1 1.5.1s1 .1 1.6 0c.7-.1 1.2-.3 1.5-.8s.5-1 .5-1.6c0-.4-.1-.8-.2-1.2l-6.7-17.9h5.6l4.3 13.1h.1l4.2-13.1h5.4l-8 21.5c-.6 1.7-1.4 2.8-2.4 3.4zM47.8 336.9c.5-1.2 1.1-2.3 2-3.2.9-.9 1.9-1.6 3.1-2 1.2-.5 2.6-.7 4.1-.7 1.5 0 2.9.2 4.1.7 1.2.5 2.3 1.2 3.1 2 .9.9 1.5 1.9 2 3.2.5 1.2.7 2.6.7 4.2s-.2 2.9-.7 4.1c-.5 1.2-1.1 2.3-2 3.2-.9.9-1.9 1.5-3.1 2-1.2.5-2.6.7-4.1.7-1.5 0-2.9-.2-4.1-.7-1.2-.5-2.2-1.1-3.1-2-.9-.9-1.5-1.9-2-3.2-.5-1.2-.7-2.6-.7-4.1s.2-2.9.7-4.2zm4.8 6.4c.1.7.4 1.4.8 2 .4.6.8 1 1.4 1.4.6.3 1.3.5 2.2.5.9 0 1.6-.2 2.2-.5.6-.3 1.1-.8 1.4-1.4.4-.6.6-1.2.8-2s.2-1.5.2-2.2-.1-1.5-.2-2.3c-.1-.7-.4-1.4-.8-2-.4-.6-.8-1-1.4-1.4-.6-.4-1.4-.5-2.2-.5-.9 0-1.6.2-2.2.5-.6.4-1.1.8-1.4 1.4-.4.6-.6 1.2-.8 2-.1.7-.2 1.5-.2 2.3s0 1.5.2 2.2zM82.9 350.6V348h-.1c-.7 1.1-1.5 1.9-2.6 2.4s-2.1.7-3.3.7c-1.4 0-2.6-.2-3.5-.6-.9-.4-1.6-.9-2.1-1.6-.5-.7-.9-1.5-1.1-2.5-.2-1-.3-2.1-.3-3.2v-11.8h5.3v10.8c0 1.6.2 2.8.7 3.5.5.8 1.4 1.2 2.6 1.2 1.4 0 2.5-.4 3.1-1.3.6-.9 1-2.3 1-4.2v-10h5.3v19.1h-5zM96.6 331.5v3.6h.1c.2-.6.6-1.1 1-1.6s.9-.9 1.4-1.3c.5-.4 1.1-.6 1.7-.8.6-.2 1.3-.3 1.9-.3.3 0 .7.1 1.1.2v4.9c-.2 0-.5-.1-.9-.1-.3 0-.7-.1-1-.1-1 0-1.8.2-2.4.5-.7.3-1.2.8-1.6 1.3-.4.6-.7 1.2-.9 1.9-.2.7-.3 1.5-.3 2.4v8.6h-5.3v-19.1h5.2zM124.7 334.9c-.8 0-1.5.2-2.1.6s-1 .9-1.4 1.5c-.4.6-.6 1.3-.8 2-.1.7-.2 1.4-.2 2.2 0 .7.1 1.4.2 2.1.1.7.4 1.4.7 1.9.3.6.8 1.1 1.4 1.4.6.4 1.3.6 2.1.6 1.3 0 2.2-.4 2.9-1.1.7-.7 1.1-1.6 1.3-2.8h5.1c-.3 2.5-1.3 4.5-3 5.8s-3.7 2-6.3 2c-1.4 0-2.7-.2-3.9-.7-1.2-.5-2.2-1.2-3.1-2-.8-.9-1.5-1.9-2-3.1-.5-1.2-.7-2.5-.7-3.9 0-1.5.2-2.9.6-4.1.4-1.3 1.1-2.4 1.9-3.3.8-.9 1.9-1.6 3.1-2.2 1.2-.5 2.6-.8 4.1-.8 1.1 0 2.2.1 3.3.4 1 .3 2 .7 2.8 1.4.8.6 1.5 1.4 2 2.3.5.9.8 2 .9 3.2h-5.1c-.3-2.3-1.6-3.4-3.8-3.4zM136.2 337.4c.1-1.2.4-2.3.9-3.1.5-.8 1.2-1.5 2.1-2 .8-.5 1.8-.8 2.8-1.1 1-.2 2.1-.3 3.2-.3 1 0 1.9.1 2.9.2s1.9.4 2.7.8c.8.4 1.5.9 2 1.6.5.7.8 1.6.8 2.8v10c0 .9 0 1.7.1 2.5s.3 1.4.5 1.8h-5.3c-.1-.3-.2-.6-.2-.9s-.1-.6-.1-.9c-.8.9-1.8 1.5-3 1.8-1.1.3-2.3.5-3.5.5-.9 0-1.8-.1-2.6-.3-.8-.2-1.5-.6-2.1-1-.6-.5-1.1-1.1-1.4-1.8-.3-.7-.5-1.6-.5-2.6 0-1.1.2-2 .6-2.7s.9-1.3 1.5-1.7c.6-.4 1.3-.7 2.1-.9.8-.2 1.6-.4 2.3-.5.8-.1 1.6-.2 2.3-.3s1.4-.2 2-.3c.6-.1 1.1-.4 1.4-.6.3-.3.5-.7.5-1.2 0-.6-.1-1-.3-1.4s-.4-.6-.7-.8c-.3-.2-.7-.3-1.1-.4-.4-.1-.8-.1-1.3-.1-1 0-1.8.2-2.4.7-.6.4-.9 1.2-1 2.2h-5.2zm12.2 3.9c-.2.2-.5.4-.8.5-.3.1-.7.2-1.1.3-.4.1-.8.1-1.2.2-.4 0-.8.1-1.3.2l-1.2.3c-.4.1-.7.3-1 .5-.3.2-.5.5-.7.8-.2.3-.3.7-.3 1.2s.1.9.3 1.2.4.6.7.8c.3.2.6.3 1 .4.4.1.8.1 1.2.1 1 0 1.8-.2 2.4-.5.6-.3 1-.8 1.3-1.2.3-.5.4-1 .5-1.5.1-.5.1-.9.1-1.2v-2.1zM162.3 331.5v3.6h.1c.2-.6.6-1.1 1-1.6s.9-.9 1.4-1.3c.5-.4 1.1-.6 1.7-.8.6-.2 1.3-.3 1.9-.3.3 0 .7.1 1.1.2v4.9c-.2 0-.5-.1-.9-.1-.3 0-.7-.1-1-.1-1 0-1.8.2-2.4.5-.7.3-1.2.8-1.6 1.3-.4.6-.7 1.2-.9 1.9-.2.7-.3 1.5-.3 2.4v8.6h-5.3v-19.1h5.2zM176.4 346c.8.8 1.9 1.1 3.4 1.1 1.1 0 2-.3 2.7-.8s1.2-1.1 1.4-1.7h4.6c-.7 2.3-1.9 3.9-3.4 4.9-1.5 1-3.4 1.5-5.5 1.5-1.5 0-2.9-.2-4.1-.7-1.2-.5-2.2-1.2-3.1-2.1-.8-.9-1.5-1.9-1.9-3.2-.5-1.2-.7-2.6-.7-4.1 0-1.4.2-2.8.7-4 .5-1.2 1.1-2.3 2-3.2.9-.9 1.9-1.6 3.1-2.1 1.2-.5 2.5-.8 4-.8 1.6 0 3 .3 4.3.9s2.2 1.5 3 2.5c.8 1.1 1.3 2.3 1.7 3.6s.5 2.8.4 4.3h-13.8c-.1 1.9.4 3.2 1.2 3.9zm5.9-10c-.6-.7-1.6-1-2.9-1-.8 0-1.5.1-2.1.4-.6.3-1 .6-1.3 1.1-.3.4-.6.9-.7 1.3s-.2.9-.2 1.3h8.5c-.2-1.4-.7-2.4-1.3-3.1zM197.3 346c.8.8 1.9 1.1 3.4 1.1 1.1 0 2-.3 2.7-.8s1.2-1.1 1.4-1.7h4.6c-.7 2.3-1.9 3.9-3.4 4.9-1.5 1-3.4 1.5-5.5 1.5-1.5 0-2.9-.2-4.1-.7-1.2-.5-2.2-1.2-3.1-2.1-.8-.9-1.5-1.9-1.9-3.2-.5-1.2-.7-2.6-.7-4.1 0-1.4.2-2.8.7-4 .5-1.2 1.1-2.3 2-3.2.9-.9 1.9-1.6 3.1-2.1 1.2-.5 2.5-.8 4-.8 1.6 0 3 .3 4.3.9s2.2 1.5 3 2.5c.8 1.1 1.3 2.3 1.7 3.6s.5 2.8.4 4.3H196c0 1.9.5 3.2 1.3 3.9zm5.9-10c-.6-.7-1.6-1-2.9-1-.8 0-1.5.1-2.1.4-.6.3-1 .6-1.3 1.1-.3.4-.6.9-.7 1.3s-.2.9-.2 1.3h8.5c-.2-1.4-.7-2.4-1.3-3.1zM217.5 331.5v3.6h.1c.2-.6.6-1.1 1-1.6s.9-.9 1.4-1.3c.5-.4 1.1-.6 1.7-.8.6-.2 1.3-.3 1.9-.3.3 0 .7.1 1.1.2v4.9c-.2 0-.5-.1-.9-.1-.3 0-.7-.1-1-.1-1 0-1.8.2-2.4.5-.7.3-1.2.8-1.6 1.3-.4.6-.7 1.2-.9 1.9-.2.7-.3 1.5-.3 2.4v8.6h-5.3v-19.1h5.2z"/></g><g><path d="M29 370.5v-4.3h5.3v4.3H29zm5.2 3v19.1H29v-19.1h5.2zM42.4 387.9c.2.4.5.7.9 1 .4.3.8.5 1.3.6s1 .2 1.5.2c.4 0 .8 0 1.2-.1.4-.1.8-.2 1.1-.4.3-.2.6-.4.8-.7s.3-.7.3-1.2c0-.8-.5-1.4-1.6-1.8-1-.4-2.5-.8-4.4-1.2-.8-.2-1.5-.4-2.2-.6-.7-.2-1.4-.5-1.9-.9-.6-.4-1-.9-1.4-1.4-.3-.6-.5-1.3-.5-2.1 0-1.2.2-2.2.7-3 .5-.8 1.1-1.4 1.9-1.9.8-.5 1.7-.8 2.7-1 1-.2 2-.3 3-.3s2 .1 3 .3c1 .2 1.8.5 2.6 1s1.4 1.1 1.9 1.9c.5.8.8 1.8.9 2.9h-5c-.1-1-.5-1.7-1.1-2.1-.7-.4-1.5-.5-2.4-.5-.3 0-.6 0-1 .1-.3 0-.7.1-.9.2-.3.1-.5.3-.7.5-.2.2-.3.5-.3.9 0 .5.2.9.5 1.1.3.3.8.5 1.4.7.6.2 1.2.4 1.9.5.7.1 1.4.3 2.2.5.8.2 1.5.4 2.2.6.7.2 1.4.6 1.9 1 .6.4 1 .9 1.4 1.5.3.6.5 1.4.5 2.2 0 1.3-.3 2.3-.8 3.2-.5.9-1.2 1.5-2 2.1-.8.5-1.7.9-2.8 1.1-1 .2-2.1.3-3.2.3s-2.2-.1-3.3-.3c-1.1-.2-2-.6-2.8-1.1-.8-.5-1.5-1.2-2-2.1-.5-.9-.8-1.9-.9-3.2h5c.1.6.2 1.1.4 1.5zM67.2 379.4c.1-1.2.4-2.3.9-3.1.5-.8 1.2-1.5 2.1-2 .8-.5 1.8-.8 2.8-1.1 1-.2 2.1-.3 3.2-.3 1 0 1.9.1 2.9.2s1.9.4 2.7.8c.8.4 1.5.9 2 1.6.5.7.8 1.6.8 2.8v10c0 .9 0 1.7.1 2.5s.3 1.4.5 1.8H80c-.1-.3-.2-.6-.2-.9-.1-.3-.1-.6-.1-.9-.8.9-1.8 1.5-3 1.8-1.1.3-2.3.5-3.5.5-.9 0-1.8-.1-2.6-.3-.8-.2-1.5-.6-2.1-1-.6-.5-1.1-1.1-1.4-1.8-.3-.7-.5-1.6-.5-2.6 0-1.1.2-2 .6-2.7s.9-1.3 1.5-1.7c.6-.4 1.3-.7 2.1-.9.8-.2 1.6-.4 2.3-.5.8-.1 1.6-.2 2.3-.3.8-.1 1.4-.2 2-.3.6-.1 1.1-.4 1.4-.6.3-.3.5-.7.5-1.2 0-.6-.1-1-.3-1.4-.2-.3-.4-.6-.7-.8-.3-.2-.7-.3-1.1-.4-.4-.1-.8-.1-1.3-.1-1 0-1.8.2-2.4.7-.6.4-.9 1.2-1 2.2h-5.3zm12.2 3.9c-.2.2-.5.4-.8.5s-.7.2-1.1.3-.8.1-1.2.2c-.4 0-.8.1-1.3.2l-1.2.3c-.4.1-.7.3-1 .5-.3.2-.5.5-.7.8-.2.3-.3.7-.3 1.2s.1.9.3 1.2c.2.3.4.6.7.8.3.2.6.3 1 .4.4.1.8.1 1.2.1 1 0 1.8-.2 2.4-.5.6-.3 1-.8 1.3-1.2.3-.5.4-1 .5-1.5s.1-.9.1-1.2v-2.1zM116.4 394c-.2 1-.7 1.9-1.4 2.8-.7.9-1.7 1.6-3 2.2-1.3.6-3.1.9-5.3.9-.9 0-1.9-.1-2.9-.4-1-.2-1.9-.6-2.7-1.1-.8-.5-1.5-1.1-2-1.9-.5-.8-.8-1.7-.9-2.8h5.2c.2 1 .7 1.7 1.4 2.1.7.4 1.5.6 2.5.6 1.5 0 2.6-.4 3.2-1.3.7-.9 1-2 1-3.4v-2.5h-.1c-.6 1-1.4 1.8-2.4 2.2-1 .5-2.2.7-3.3.7-1.4 0-2.7-.3-3.7-.8s-1.9-1.2-2.6-2.1c-.7-.9-1.2-1.9-1.5-3.1-.3-1.2-.5-2.4-.5-3.7 0-1.2.2-2.4.5-3.6.4-1.1.9-2.2 1.6-3 .7-.9 1.5-1.6 2.6-2.1 1-.5 2.2-.8 3.5-.8 1.3 0 2.4.2 3.3.7.9.5 1.7 1.3 2.4 2.4h.1v-2.6h5v17.9c.3.9.2 1.7 0 2.7zm-7.2-6.3c.6-.3 1-.7 1.4-1.2.4-.5.6-1.1.8-1.7.2-.6.3-1.3.3-2 0-.8-.1-1.5-.2-2.2-.1-.7-.4-1.3-.7-1.9-.3-.5-.8-1-1.4-1.3-.6-.3-1.3-.5-2.1-.5-.7 0-1.4.1-1.9.4s-1 .7-1.3 1.2c-.4.5-.6 1.1-.8 1.7-.2.7-.2 1.3-.2 2.1 0 .7.1 1.4.2 2.1s.4 1.3.7 1.8c.3.5.8 1 1.3 1.3.5.3 1.2.5 2 .5.6.1 1.3 0 1.9-.3zM120.6 378.9c.5-1.2 1.1-2.3 2-3.2.9-.9 1.9-1.6 3.1-2 1.2-.5 2.6-.7 4.1-.7 1.5 0 2.9.2 4.1.7 1.2.5 2.3 1.2 3.1 2 .9.9 1.5 1.9 2 3.2.5 1.2.7 2.6.7 4.2s-.2 2.9-.7 4.1c-.5 1.2-1.1 2.3-2 3.2-.9.9-1.9 1.5-3.1 2-1.2.5-2.6.7-4.1.7-1.5 0-2.9-.2-4.1-.7-1.2-.5-2.2-1.1-3.1-2-.9-.9-1.5-1.9-2-3.2-.5-1.2-.7-2.6-.7-4.1s.3-2.9.7-4.2zm4.8 6.4c.1.7.4 1.4.8 2 .4.6.8 1 1.4 1.4.6.3 1.3.5 2.2.5.9 0 1.6-.2 2.2-.5.6-.3 1.1-.8 1.4-1.4.4-.6.6-1.2.8-2s.2-1.5.2-2.2-.1-1.5-.2-2.3c-.1-.7-.4-1.4-.8-2-.4-.6-.8-1-1.4-1.4-.6-.4-1.4-.5-2.2-.5-.9 0-1.6.2-2.2.5-.6.4-1.1.8-1.4 1.4-.4.6-.6 1.2-.8 2-.1.7-.2 1.5-.2 2.3s.1 1.5.2 2.2zM142.9 378.9c.5-1.2 1.1-2.3 2-3.2.9-.9 1.9-1.6 3.1-2 1.2-.5 2.6-.7 4.1-.7 1.5 0 2.9.2 4.1.7 1.2.5 2.3 1.2 3.1 2 .9.9 1.5 1.9 2 3.2.5 1.2.7 2.6.7 4.2s-.2 2.9-.7 4.1c-.5 1.2-1.1 2.3-2 3.2s-1.9 1.5-3.1 2c-1.2.5-2.6.7-4.1.7-1.5 0-2.9-.2-4.1-.7-1.2-.5-2.2-1.1-3.1-2-.9-.9-1.5-1.9-2-3.2-.5-1.2-.7-2.6-.7-4.1s.2-2.9.7-4.2zm4.8 6.4c.1.7.4 1.4.8 2 .4.6.8 1 1.4 1.4.6.3 1.3.5 2.2.5s1.6-.2 2.2-.5c.6-.3 1.1-.8 1.4-1.4.4-.6.6-1.2.8-2 .1-.7.2-1.5.2-2.2s-.1-1.5-.2-2.3c-.1-.7-.4-1.4-.8-2-.4-.6-.8-1-1.4-1.4s-1.4-.5-2.2-.5-1.6.2-2.2.5c-.6.4-1.1.8-1.4 1.4-.4.6-.6 1.2-.8 2-.1.7-.2 1.5-.2 2.3s0 1.5.2 2.2zM178.7 390.2c-.6 1-1.4 1.8-2.4 2.2s-2.1.7-3.4.7c-1.4 0-2.7-.3-3.8-.8-1.1-.6-2-1.3-2.7-2.3-.7-.9-1.2-2-1.6-3.3-.4-1.2-.5-2.5-.5-3.8 0-1.3.2-2.5.5-3.7.4-1.2.9-2.3 1.6-3.2.7-.9 1.6-1.6 2.6-2.2s2.3-.8 3.7-.8c1.1 0 2.2.2 3.2.7 1 .5 1.8 1.2 2.4 2.1h.1v-9.6h5.3v26.4h-5v-2.4zm-.3-9.5c-.1-.7-.4-1.4-.8-1.9-.4-.6-.8-1-1.4-1.4s-1.3-.5-2.1-.5c-.9 0-1.6.2-2.2.5s-1.1.8-1.4 1.4-.6 1.2-.8 1.9c-.2.7-.2 1.5-.2 2.3 0 .7.1 1.5.3 2.2.2.7.4 1.4.8 2 .4.6.9 1 1.4 1.4.6.4 1.3.5 2.1.5.9 0 1.6-.2 2.2-.5.6-.3 1-.8 1.4-1.4.3-.6.6-1.2.7-2 .1-.7.2-1.5.2-2.3.1-.7 0-1.4-.2-2.2z"/></g><path d="M26.8 419v-3.5H30V414c0-1.7.5-3.1 1.6-4.2s2.7-1.6 4.8-1.6c.5 0 .9 0 1.4.1.5 0 .9.1 1.4.1v3.9c-.6-.1-1.3-.1-1.9-.1-.7 0-1.2.2-1.5.5-.3.3-.5.9-.5 1.7v1.1h3.6v3.5h-3.6v15.6H30V419h-3.2zm15.2-6.5v-4.3h5.3v4.3H42zm5.3 3v19.1H42v-19.1h5.3zm8.7 0v3.6h.1c.2-.6.6-1.1 1-1.6s.9-.9 1.4-1.3c.5-.4 1.1-.6 1.7-.8.6-.2 1.3-.3 1.9-.3.3 0 .7.1 1.1.2v4.9c-.2 0-.5-.1-.9-.1-.3 0-.7-.1-1-.1-1 0-1.8.2-2.4.5-.7.3-1.2.8-1.6 1.3-.4.6-.7 1.2-.9 1.9-.2.7-.3 1.5-.3 2.4v8.6H51v-19.1h5zm13.5 14.4c.2.4.5.7.9 1 .4.3.8.5 1.3.6.5.1 1 .2 1.5.2.4 0 .8 0 1.2-.1.4-.1.8-.2 1.1-.4.3-.2.6-.4.8-.7.2-.3.3-.7.3-1.2 0-.8-.5-1.4-1.6-1.8-1-.4-2.5-.8-4.4-1.2-.8-.2-1.5-.4-2.2-.6-.7-.2-1.4-.5-1.9-.9-.6-.4-1-.9-1.4-1.4-.3-.6-.5-1.3-.5-2.1 0-1.2.2-2.2.7-3 .5-.8 1.1-1.4 1.9-1.9.8-.5 1.7-.8 2.7-1 1-.2 2-.3 3-.3s2 .1 3 .3c1 .2 1.8.5 2.6 1s1.4 1.1 1.9 1.9c.5.8.8 1.8.9 2.9h-5c-.1-1-.5-1.7-1.1-2.1-.7-.4-1.5-.5-2.4-.5-.3 0-.6 0-1 .1-.3 0-.7.1-.9.2-.3.1-.5.3-.7.5-.2.2-.3.5-.3.9 0 .5.2.9.5 1.1.3.3.8.5 1.4.7.6.2 1.2.4 1.9.5.7.1 1.4.3 2.2.5.8.2 1.5.4 2.2.6.7.2 1.4.6 1.9 1 .6.4 1 .9 1.4 1.5.3.6.5 1.4.5 2.2 0 1.3-.3 2.3-.8 3.2-.5.9-1.2 1.5-2 2.1-.8.5-1.7.9-2.8 1.1-1 .2-2.1.3-3.2.3s-2.2-.1-3.3-.3c-1.1-.2-2-.6-2.8-1.1-.8-.5-1.5-1.2-2-2.1-.5-.9-.8-1.9-.9-3.2h5c0 .6.2 1.1.4 1.5zm25.6-14.4v3.5h-3.8v9.5c0 .9.1 1.5.4 1.8.3.3.9.4 1.8.4h.9c.3 0 .5-.1.8-.1v4.1c-.4.1-.9.1-1.5.1h-1.6c-.8 0-1.6-.1-2.3-.2-.7-.1-1.4-.3-1.9-.6-.6-.3-1-.8-1.3-1.4-.3-.6-.5-1.4-.5-2.3V419h-3.2v-3.5H86v-5.7h5.3v5.7h3.8zm16.5 14.4c.2.4.5.7.9 1 .4.3.8.5 1.3.6.5.1 1 .2 1.5.2.4 0 .8 0 1.2-.1.4-.1.8-.2 1.1-.4.3-.2.6-.4.8-.7.2-.3.3-.7.3-1.2 0-.8-.5-1.4-1.6-1.8-1-.4-2.5-.8-4.4-1.2-.8-.2-1.5-.4-2.2-.6-.7-.2-1.4-.5-1.9-.9-.6-.4-1-.9-1.4-1.4-.3-.6-.5-1.3-.5-2.1 0-1.2.2-2.2.7-3 .5-.8 1.1-1.4 1.9-1.9.8-.5 1.7-.8 2.7-1 1-.2 2-.3 3-.3s2 .1 3 .3c1 .2 1.8.5 2.6 1s1.4 1.1 1.9 1.9c.5.8.8 1.8.9 2.9h-5c-.1-1-.5-1.7-1.1-2.1-.7-.4-1.5-.5-2.4-.5-.3 0-.6 0-1 .1-.3 0-.7.1-.9.2-.3.1-.5.3-.7.5-.2.2-.3.5-.3.9 0 .5.2.9.5 1.1.3.3.8.5 1.4.7.6.2 1.2.4 1.9.5.7.1 1.4.3 2.2.5.8.2 1.5.4 2.2.6.7.2 1.4.6 1.9 1 .6.4 1 .9 1.4 1.5.3.6.5 1.4.5 2.2 0 1.3-.3 2.3-.8 3.2-.5.9-1.2 1.5-2 2.1-.8.5-1.7.9-2.8 1.1-1 .2-2.1.3-3.2.3s-2.2-.1-3.3-.3c-1.1-.2-2-.6-2.8-1.1-.8-.5-1.5-1.2-2-2.1-.5-.9-.8-1.9-.9-3.2h5c0 .6.1 1.1.4 1.5zm25.5-14.4v3.5h-3.8v9.5c0 .9.1 1.5.4 1.8.3.3.9.4 1.8.4h.9c.3 0 .5-.1.8-.1v4.1c-.4.1-.9.1-1.5.1h-1.6c-.8 0-1.6-.1-2.3-.2-.7-.1-1.4-.3-1.9-.6-.6-.3-1-.8-1.3-1.4-.3-.6-.5-1.4-.5-2.3V419h-3.2v-3.5h3.2v-5.7h5.3v5.7h3.7zm7.8 14.5c.8.8 1.9 1.1 3.4 1.1 1.1 0 2-.3 2.7-.8.8-.5 1.2-1.1 1.4-1.7h4.6c-.7 2.3-1.9 3.9-3.4 4.9-1.5 1-3.4 1.5-5.6 1.5-1.5 0-2.9-.2-4.1-.7-1.2-.5-2.2-1.2-3.1-2.1-.8-.9-1.5-1.9-1.9-3.2-.5-1.2-.7-2.6-.7-4.1 0-1.4.2-2.8.7-4 .5-1.2 1.1-2.3 2-3.2.9-.9 1.9-1.6 3.1-2.1 1.2-.5 2.5-.8 4-.8 1.6 0 3 .3 4.3.9 1.2.6 2.2 1.5 3 2.5.8 1.1 1.3 2.3 1.7 3.6.3 1.4.5 2.8.4 4.3h-13.8c.1 1.9.5 3.2 1.3 3.9zm6-10c-.6-.7-1.6-1-2.9-1-.8 0-1.5.1-2.1.4-.6.3-1 .6-1.3 1.1-.3.4-.6.9-.7 1.3-.1.5-.2.9-.2 1.3h8.5c-.3-1.4-.7-2.4-1.3-3.1zm14.3-4.5v2.4h.1c.6-1 1.5-1.8 2.4-2.3 1-.5 2.1-.7 3.3-.7 1.5 0 2.8.3 3.9.9 1.1.6 2 1.3 2.7 2.3.7.9 1.2 2 1.6 3.3.3 1.2.5 2.5.5 3.9 0 1.3-.2 2.5-.5 3.7-.3 1.2-.9 2.2-1.6 3.1-.7.9-1.6 1.6-2.6 2.2-1 .5-2.3.8-3.7.8-1.2 0-2.3-.2-3.3-.7-1-.5-1.8-1.2-2.5-2.1h-.1v9.1h-5.3v-25.8h5.1zm6.8 15.2c.6-.3 1-.8 1.4-1.4.4-.6.6-1.2.8-1.9.1-.7.2-1.5.2-2.3 0-.8-.1-1.5-.2-2.3-.2-.7-.4-1.4-.8-2-.4-.6-.8-1-1.4-1.4-.6-.4-1.3-.5-2.1-.5-.9 0-1.6.2-2.2.5-.6.4-1 .8-1.4 1.4-.4.6-.6 1.2-.8 2s-.2 1.5-.2 2.3c0 .8.1 1.5.2 2.3.2.7.4 1.4.8 1.9.4.6.8 1 1.4 1.4.6.3 1.3.5 2.1.5.9 0 1.6-.2 2.2-.5zm16.4-1.8v5.7h-5.8v-5.7h5.8z"/></svg>