<svg xmlns="http://www.w3.org/2000/svg" viewBox="0 0 300 600"><path d="M46.9 142c1.2 0 2.3.2 3.2.6.9.4 1.8.9 2.4 1.6.7.7 1.2 1.4 1.6 2.3.4.9.5 1.8.5 2.8 0 1.6-.3 2.9-1 4s-1.7 2-3.2 2.6v.1c.7.2 1.3.5 1.8.9s.9.9 1.1 1.4.5 1.2.6 1.8c.1.7.2 1.3.3 2 0 .4 0 .9.1 1.5 0 .6.1 1.1.1 1.7.1.6.2 1.2.3 1.7.1.5.3 1 .6 1.4h-5.8c-.3-.8-.5-1.8-.6-3-.1-1.2-.2-2.3-.3-3.3-.2-1.4-.6-2.4-1.3-3-.6-.6-1.7-1-3.1-1h-5.8v10.3h-5.8V142h14.3zm-2.1 12c1.3 0 2.3-.3 3-.9s1-1.6 1-2.9c0-1.3-.3-2.2-1-2.8-.7-.6-1.7-.9-3-.9h-6.4v7.4h6.4zM64.4 163.9c.8.8 1.9 1.1 3.4 1.1 1.1 0 2-.3 2.7-.8.8-.5 1.2-1.1 1.4-1.7h4.6c-.7 2.3-1.9 3.9-3.4 4.9-1.5 1-3.4 1.5-5.6 1.5-1.5 0-2.9-.2-4.1-.7-1.2-.5-2.2-1.2-3.1-2.1-.8-.9-1.5-1.9-1.9-3.2-.5-1.2-.7-2.6-.7-4.1 0-1.4.2-2.8.7-4 .5-1.2 1.1-2.3 2-3.2.9-.9 1.9-1.6 3.1-2.1s2.5-.8 4-.8c1.6 0 3 .3 4.3.9 1.2.6 2.2 1.5 3 2.5.8 1.1 1.3 2.3 1.7 3.6.3 1.4.5 2.8.4 4.3H63.1c.1 1.9.5 3.1 1.3 3.9zm5.9-10.1c-.6-.7-1.6-1-2.9-1-.8 0-1.5.1-2.1.4-.6.3-1 .6-1.3 1.1-.3.4-.6.9-.7 1.3-.1.5-.2.9-.2 1.3h8.5c-.2-1.4-.6-2.4-1.3-3.1zM79.8 155.2c.1-1.2.4-2.3.9-3.1.5-.8 1.2-1.5 2.1-2 .8-.5 1.8-.8 2.8-1.1 1-.2 2.1-.3 3.2-.3 1 0 1.9.1 2.9.2s1.9.4 2.7.8c.8.4 1.5.9 2 1.6s.8 1.6.8 2.8v10c0 .9 0 1.7.1 2.5s.3 1.4.5 1.8h-5.3c-.1-.3-.2-.6-.2-.9-.1-.3-.1-.6-.1-.9-.8.9-1.8 1.5-3 1.8-1.1.3-2.3.5-3.5.5-.9 0-1.8-.1-2.6-.3-.8-.2-1.5-.6-2.1-1-.6-.5-1.1-1.1-1.4-1.8-.3-.7-.5-1.6-.5-2.6 0-1.1.2-2 .6-2.7s.9-1.3 1.5-1.7c.6-.4 1.3-.7 2.1-.9.8-.2 1.6-.4 2.3-.5.8-.1 1.6-.2 2.3-.3.8-.1 1.4-.2 2-.3.6-.1 1.1-.4 1.4-.6.3-.3.5-.7.5-1.2 0-.6-.1-1-.3-1.4-.2-.3-.4-.6-.7-.8-.3-.2-.7-.3-1.1-.4-.4-.1-.8-.1-1.3-.1-1 0-1.8.2-2.4.7-.6.4-.9 1.2-1 2.2h-5.2zm12.1 3.9c-.2.2-.5.4-.8.5s-.7.2-1.1.3c-.4.1-.8.1-1.2.2-.4 0-.8.1-1.3.2l-1.2.3c-.4.1-.7.3-1 .5-.3.2-.5.5-.7.8-.2.3-.3.7-.3 1.2s.1.9.3 1.2c.2.3.4.6.7.8s.6.3 1 .4c.4.1.8.1 1.2.1 1 0 1.8-.2 2.4-.5.6-.3 1-.8 1.3-1.2s.4-1 .5-1.5c.1-.5.1-.9.1-1.2v-2.1zM114.8 166c-.6 1-1.4 1.8-2.4 2.2s-2.1.7-3.4.7c-1.4 0-2.7-.3-3.8-.8-1.1-.6-2-1.3-2.7-2.3-.7-.9-1.2-2-1.6-3.3-.4-1.2-.5-2.5-.5-3.8 0-1.3.2-2.5.5-3.7.4-1.2.9-2.3 1.6-3.2s1.6-1.6 2.6-2.2c1.1-.6 2.3-.8 3.7-.8 1.1 0 2.2.2 3.2.7 1 .5 1.8 1.2 2.4 2.1h.1V142h5.3v26.4h-5V166zm-.2-9.4c-.1-.7-.4-1.4-.8-1.9-.4-.6-.8-1-1.4-1.4-.6-.3-1.3-.5-2.1-.5-.9 0-1.6.2-2.2.5-.6.3-1.1.8-1.4 1.4-.4.6-.6 1.2-.8 1.9-.2.7-.2 1.5-.2 2.3 0 .7.1 1.5.3 2.2.2.7.5 1.4.8 2s.9 1 1.4 1.4c.6.4 1.3.5 2.1.5.9 0 1.6-.2 2.2-.5.6-.3 1-.8 1.4-1.4.3-.6.6-1.2.7-2 .1-.7.2-1.5.2-2.3 0-.8 0-1.5-.2-2.2zM124.1 155.4v-5.7h5.8v5.7h-5.8zm5.8 7.4v5.7h-5.8v-5.7h5.8z"/><g><path d="M144.4 146.9l1-4.9h22.1l-1 4.9h-7.9l-4.5 21.5h-5.8l4.5-21.5h-8.4zM175.4 142l-2 9.5h.1c.2-.3.5-.6.9-.9.4-.3.8-.6 1.3-.9.5-.3 1.1-.5 1.8-.7s1.5-.3 2.3-.3c3.7 0 5.6 1.7 5.6 5.1 0 .2 0 .5-.1.8 0 .3-.1.6-.2.9-.1.3-.1.6-.2.9-.1.3-.1.5-.1.7l-2.4 11.2h-5.3l2.3-11.2c0-.3.1-.7.2-1.2s.1-.9.1-1.1c0-.6-.3-1-.8-1.4-.5-.4-1.1-.6-1.7-.6-.8 0-1.5.2-2.1.5-.6.3-1.1.7-1.6 1.2-.4.5-.8 1.1-1.1 1.7-.3.6-.5 1.3-.6 2l-2.1 10.2h-5.2L170 142h5.4zM193.1 160.5v.8c0 1.1.3 2 1 2.7.7.7 1.8 1 3.2 1 .5 0 1-.1 1.4-.2.4-.2.8-.4 1.1-.6.3-.2.6-.5.8-.9.2-.3.5-.6.6-.9h5.3c-.4 1.1-.9 2-1.5 2.8-.6.8-1.2 1.5-2 2.1-.8.6-1.7 1-2.8 1.2-1 .3-2.3.4-3.6.4-1.3 0-2.4-.2-3.5-.5-1-.3-1.9-.9-2.7-1.6-.7-.7-1.3-1.6-1.7-2.6-.4-1-.6-2.2-.6-3.6 0-1.5.2-3 .7-4.4.5-1.4 1.2-2.7 2.1-3.8.9-1.1 2-2 3.3-2.6 1.3-.7 2.8-1 4.4-1 1.3 0 2.5.2 3.6.5s2 .9 2.8 1.6c.8.7 1.4 1.6 1.8 2.6.4 1 .6 2.3.6 3.6 0 .9-.1 1.9-.3 3H193c.1.2.1.3.1.4zm9.2-5.1c-.1-.5-.3-.9-.5-1.3s-.6-.7-1.1-.9c-.5-.2-1.1-.4-1.8-.4s-1.4.1-2 .3-1.1.5-1.5.9c-.4.4-.8.8-1.1 1.3-.3.5-.5 1-.7 1.6h8.8c0-.6 0-1-.1-1.5zM217.4 149.3l-.8 3.4.1.1c.6-1.3 1.5-2.3 2.7-3 1.2-.7 2.5-1 3.9-1 .5 0 1.1 0 1.6.1l-1.1 5.1c-.4-.1-.7-.1-1.1-.2-.4-.1-.7-.1-1.1-.1-1 0-1.9.2-2.6.5-.7.3-1.3.8-1.8 1.4-.5.6-.9 1.3-1.1 2-.3.8-.5 1.5-.7 2.3l-1.8 8.5h-5.2l4-19.1h5zM228 160.5v.8c0 1.1.3 2 1 2.7.7.7 1.8 1 3.2 1 .5 0 1-.1 1.4-.2.4-.2.8-.4 1.1-.6.3-.2.6-.5.8-.9.2-.3.5-.6.6-.9h5.3c-.4 1.1-.9 2-1.5 2.8-.6.8-1.2 1.5-2 2.1-.8.6-1.7 1-2.8 1.2-1 .3-2.3.4-3.6.4-1.3 0-2.4-.2-3.5-.5-1-.3-1.9-.9-2.7-1.6-.7-.7-1.3-1.6-1.7-2.6-.4-1-.6-2.2-.6-3.6 0-1.5.2-3 .7-4.4.5-1.4 1.2-2.7 2.1-3.8.9-1.1 2-2 3.3-2.6 1.3-.7 2.8-1 4.4-1 1.3 0 2.5.2 3.6.5s2 .9 2.8 1.6c.8.7 1.4 1.6 1.8 2.6.4 1 .6 2.3.6 3.6 0 .9-.1 1.9-.3 3h-14.1c.1.2.1.3.1.4zm9.3-5.1c-.1-.5-.3-.9-.5-1.3s-.6-.7-1.1-.9c-.5-.2-1.1-.4-1.8-.4s-1.4.1-2 .3-1.1.5-1.5.9c-.4.4-.8.8-1.1 1.3-.3.5-.5 1-.7 1.6h8.8c0-.6-.1-1-.1-1.5zM255 142l-1.2 5.7c-.2.8-.4 1.6-.7 2.3-.3.7-.8 1.4-1.3 1.9-.5.6-1.2 1-2.1 1.3-.8.3-1.8.5-3.1.6l.6-2.6c1.1-.2 1.9-.6 2.3-1.1.5-.6.8-1.4 1-2.4h-2.6l1.2-5.7h5.9zM263.7 153c-.5-.5-1.2-.7-2.2-.7-.9 0-1.7.1-2.3.4-.6.3-.9.8-.9 1.5 0 .4.2.8.5 1.1.4.3 1 .6 1.9.9l2.6.9c.7.2 1.4.5 2 .8s1.1.7 1.6 1.1c.5.4.8.9 1.1 1.5.3.6.4 1.3.4 2.1 0 1.2-.3 2.2-.8 3-.5.8-1.2 1.5-2.1 2-.9.5-1.8.9-2.9 1.1-1.1.2-2.2.3-3.3.3-.9 0-1.9-.1-2.8-.3s-1.8-.5-2.6-1-1.4-1.1-1.9-1.8-.7-1.7-.7-2.8v-.8h4.8v.6c0 .4.1.8.3 1.1.2.3.5.6.9.8.4.2.8.4 1.2.5.5.1.9.2 1.4.2.4 0 .8 0 1.2-.1.4-.1.8-.2 1.1-.4.3-.2.6-.4.8-.7.2-.3.3-.6.3-1.1 0-.7-.2-1.1-.5-1.4s-.8-.5-1.4-.7l-4-1.3c-.7-.2-1.3-.5-1.8-.7-.5-.2-.9-.6-1.3-.9-.4-.4-.6-.8-.8-1.3-.2-.5-.3-1.2-.3-1.9 0-1.1.3-2.1.8-2.8.5-.8 1.2-1.4 2.1-1.9.8-.5 1.8-.8 2.8-1 1-.2 2-.3 2.9-.3 1 0 2 .1 3 .3 1 .2 1.8.5 2.5.9.7.5 1.3 1.1 1.7 1.9.4.8.6 1.8.6 3h-4.9c-.3-1-.5-1.6-1-2.1z"/></g><g><path d="M27.9 184l7.2 18.8h.1L39 184h5.3l-5.6 26.4h-5.8l-7.3-18.5h-.1l-3.8 18.5h-5.4l5.5-26.4h6.1zM45 198.1c.5-1.4 1.2-2.7 2.2-3.8.9-1.1 2.1-1.9 3.5-2.6 1.4-.6 2.9-.9 4.6-.9 1.3 0 2.5.2 3.6.5s2 .8 2.8 1.5c.8.7 1.4 1.5 1.8 2.5.4 1 .6 2.2.6 3.6 0 1.7-.3 3.2-.8 4.7s-1.2 2.7-2.2 3.8c-1 1.1-2.1 1.9-3.5 2.6-1.4.6-2.9.9-4.7.9-2.7 0-4.8-.7-6.4-2.1-1.6-1.4-2.4-3.4-2.4-6.2.1-1.5.4-3.1.9-4.5zm4.7 6.2c.2.5.4 1 .7 1.4.3.4.7.7 1.2.9.5.2 1 .4 1.6.4 1 0 1.8-.3 2.5-.8s1.3-1.2 1.7-2c.5-.8.8-1.7 1-2.6s.3-1.8.3-2.6c0-1.3-.3-2.3-.9-3.1-.6-.8-1.6-1.1-3-1.1-1 0-1.8.3-2.5.8s-1.3 1.2-1.7 2c-.4.8-.8 1.6-1 2.6-.2.9-.3 1.8-.3 2.6.2.5.2 1 .4 1.5zM92.6 184c1.3 0 2.5.1 3.6.3 1.1.2 2 .5 2.7.9s1.3 1.1 1.7 1.9c.4.8.6 1.8.6 3.1 0 .7-.1 1.5-.3 2.2-.2.7-.5 1.3-1 1.9-.4.6-.9 1-1.6 1.4-.6.4-1.3.6-2.1.7v.1c1.3.3 2.2 1 2.9 2 .7 1 1 2.1 1 3.4 0 1.4-.3 2.7-.8 3.8-.6 1.1-1.3 2-2.2 2.7-.9.7-2 1.3-3.2 1.6-1.2.4-2.5.6-3.8.6H76l5.5-26.4h11.1zm-2.8 21.9c1.3 0 2.4-.4 3.3-1.1.9-.7 1.3-1.8 1.3-3.2 0-.7-.1-1.2-.4-1.6-.3-.4-.6-.7-1.1-.9-.4-.2-.9-.3-1.5-.4-.5 0-1.1-.1-1.6-.1H84l-1.6 7.3h7.4zm1.6-11.2c1.1 0 2-.3 2.8-.9.8-.6 1.2-1.4 1.2-2.6 0-1-.3-1.7-.8-2.1-.6-.4-1.3-.6-2.2-.6h-6.1l-1.3 6.2h6.4zM108.2 202.5v.8c0 1.1.3 2 1 2.7.7.7 1.8 1 3.2 1 .5 0 1-.1 1.4-.2.4-.2.8-.4 1.1-.6.3-.2.6-.5.8-.9l.6-.9h5.3c-.4 1.1-.9 2-1.5 2.8-.6.8-1.2 1.5-2 2.1s-1.7 1-2.8 1.2c-1 .3-2.3.4-3.6.4-1.3 0-2.4-.2-3.5-.5s-1.9-.9-2.7-1.6c-.7-.7-1.3-1.6-1.7-2.6-.4-1-.6-2.2-.6-3.6 0-1.5.2-3 .7-4.4.5-1.4 1.2-2.7 2.1-3.8.9-1.1 2-2 3.3-2.6 1.3-.7 2.8-1 4.4-1 1.3 0 2.5.2 3.6.5s2 .9 2.8 1.6c.8.7 1.4 1.6 1.8 2.6.4 1 .6 2.3.6 3.6 0 .9-.1 1.9-.3 3h-14.1c.1.2.1.3.1.4zm9.2-5.1c-.1-.5-.3-.9-.5-1.3s-.6-.7-1.1-.9c-.5-.2-1.1-.4-1.9-.4-.7 0-1.4.1-2 .3-.6.2-1.1.5-1.5.9-.4.4-.8.8-1.1 1.3-.3.5-.5 1-.7 1.6h8.8c.1-.6.1-1.1 0-1.5zM138.1 191.3l-.8 3.5h-3.7l-2 9.5c0 .2-.1.4-.1.5v.4c0 .3.1.6.2.8s.3.3.4.4c.2.1.4.2.6.2h.6c.6 0 1.3 0 1.9-.1l-.9 4c-.5 0-1.1.1-1.6.1s-1.1.1-1.7.1c-.6 0-1.2-.1-1.8-.2-.6-.1-1.1-.3-1.6-.6s-.9-.7-1.1-1.2c-.3-.5-.4-1.1-.4-1.9 0-.2 0-.5.1-.8 0-.3.1-.6.2-1l2.1-10.2h-3.4l.8-3.5h3.4l1.2-5.8h5.3l-1.2 5.8h3.5zM151.8 191.3l-.8 3.5h-3.7l-2 9.5c0 .2-.1.4-.1.5v.4c0 .3.1.6.2.8s.3.3.4.4c.2.1.4.2.6.2h.6c.6 0 1.3 0 1.9-.1l-.9 4c-.5 0-1.1.1-1.6.1s-1.1.1-1.7.1c-.6 0-1.2-.1-1.8-.2-.6-.1-1.1-.3-1.6-.6s-.9-.7-1.1-1.2c-.3-.5-.4-1.1-.4-1.9 0-.2 0-.5.1-.8 0-.3.1-.6.2-1l2.1-10.2h-3.4l.8-3.5h3.4l1.2-5.8h5.3l-1.2 5.8h3.5zM156.8 202.5v.8c0 1.1.3 2 1 2.7.7.7 1.8 1 3.2 1 .5 0 1-.1 1.4-.2.4-.2.8-.4 1.1-.6.3-.2.6-.5.8-.9.2-.3.5-.6.6-.9h5.3c-.4 1.1-.9 2-1.5 2.8-.6.8-1.2 1.5-2 2.1-.8.6-1.7 1-2.8 1.2-1 .3-2.3.4-3.6.4-1.3 0-2.4-.2-3.5-.5-1-.3-1.9-.9-2.7-1.6-.7-.7-1.3-1.6-1.7-2.6-.4-1-.6-2.2-.6-3.6 0-1.5.2-3 .7-4.4.5-1.4 1.2-2.7 2.1-3.8.9-1.1 2-2 3.3-2.6 1.3-.7 2.8-1 4.4-1 1.3 0 2.5.2 3.6.5s2 .9 2.8 1.6c.8.7 1.4 1.6 1.8 2.6.4 1 .6 2.3.6 3.6 0 .9-.1 1.9-.3 3h-14.1c.1.2.1.3.1.4zm9.2-5.1c-.1-.5-.3-.9-.5-1.3s-.6-.7-1.1-.9c-.5-.2-1.1-.4-1.8-.4s-1.4.1-2 .3-1.1.5-1.5.9c-.4.4-.8.8-1.1 1.3-.3.5-.5 1-.7 1.6h8.8c.1-.6 0-1.1-.1-1.5zM181.2 191.3l-.8 3.4.1.1c.6-1.3 1.5-2.3 2.7-3 1.2-.7 2.5-1 3.9-1 .5 0 1.1 0 1.6.1l-1.1 5.1c-.4-.1-.7-.1-1.1-.2-.4-.1-.7-.1-1.1-.1-1 0-1.9.2-2.6.5-.7.3-1.3.8-1.8 1.4-.5.6-.9 1.3-1.1 2-.3.8-.5 1.5-.7 2.3l-1.8 8.5h-5.2l4-19.1h5zM199.3 188.9l1-4.9h22.1l-1 4.9h-7.9l-4.5 21.5h-5.8l4.5-21.5h-8.4zM228.8 191.3l-4.1 19.1h-5.3l4-19.1h5.4zm-4.7-2.9l1-4.3h5.3l-1 4.3h-5.3zM238.1 191.3l-.6 2.7h.1c.8-1.1 1.8-1.9 2.9-2.4 1.1-.5 2.4-.8 3.8-.8 1.2 0 2.2.3 3 .8s1.4 1.4 1.6 2.6c.3-.5.7-.9 1.2-1.4.5-.4 1-.8 1.6-1.1.6-.3 1.2-.5 1.8-.7.6-.2 1.3-.2 1.9-.2.7 0 1.5.1 2.2.3.7.2 1.3.5 1.9.9.5.4 1 .9 1.3 1.5.3.6.5 1.3.5 2.1 0 .6-.1 1.2-.2 1.8-.1.6-.2 1.2-.4 1.8l-2.4 11.2H253l2.5-12.1c.1-.5.1-.9.1-1.4 0-.6-.2-1-.6-1.4-.4-.4-1-.6-1.6-.6-.7 0-1.3.2-1.9.5-.6.3-1 .8-1.4 1.3-.4.5-.7 1.1-1 1.7-.3.6-.5 1.2-.6 1.8l-2.1 10.2H241l2.5-12.1c.1-.5.1-.9.1-1.4 0-.6-.2-1-.6-1.4-.4-.4-1-.6-1.6-.6-.7 0-1.3.2-1.9.5-.6.3-1 .8-1.4 1.3-.4.5-.7 1.1-1 1.7-.3.6-.5 1.2-.6 1.8l-2.1 10.2h-5.2l4-19.1h4.9zM268.5 202.5v.8c0 1.1.3 2 1 2.7.7.7 1.8 1 3.2 1 .5 0 1-.1 1.4-.2.4-.2.8-.4 1.1-.6.3-.2.6-.5.8-.9.2-.3.5-.6.6-.9h5.3c-.4 1.1-.9 2-1.5 2.8-.6.8-1.2 1.5-2 2.1-.8.6-1.7 1-2.8 1.2-1 .3-2.3.4-3.6.4-1.3 0-2.4-.2-3.5-.5-1-.3-1.9-.9-2.7-1.6-.7-.7-1.3-1.6-1.7-2.6-.4-1-.6-2.2-.6-3.6 0-1.5.2-3 .7-4.4.5-1.4 1.2-2.7 2.1-3.8.9-1.1 2-2 3.3-2.6 1.3-.7 2.8-1 4.4-1 1.3 0 2.5.2 3.6.5s2 .9 2.8 1.6c.8.7 1.4 1.6 1.8 2.6.4 1 .6 2.3.6 3.6 0 .9-.1 1.9-.3 3h-14.1c.1.2.1.3.1.4zm9.2-5.1c-.1-.5-.3-.9-.5-1.3s-.6-.7-1.1-.9c-.5-.2-1.1-.4-1.8-.4s-1.4.1-2 .3-1.1.5-1.5.9c-.4.4-.8.8-1.1 1.3-.3.5-.5 1-.7 1.6h8.8c0-.6 0-1.1-.1-1.5z"/></g><g><path d="M69.5 233.3l-.8 3.5H65l-2 9.5c0 .2-.1.4-.1.5v.4c0 .3.1.6.2.8.1.2.3.3.4.4.2.1.4.2.6.2h.6c.6 0 1.3 0 1.9-.1l-.9 4c-.5 0-1.1.1-1.6.1s-1.1.1-1.7.1c-.6 0-1.2-.1-1.8-.2-.6-.1-1.1-.3-1.6-.6s-.9-.7-1.1-1.2c-.3-.5-.4-1.1-.4-1.9 0-.2 0-.5.1-.8 0-.3.1-.6.2-1l2.1-10.2h-3.4l.8-3.5h3.4l1.2-5.8h5.3l-1.2 5.8h3.5zM70.3 240.1c.5-1.4 1.2-2.7 2.2-3.8.9-1.1 2.1-1.9 3.5-2.6 1.4-.6 2.9-.9 4.6-.9 1.3 0 2.5.2 3.6.5s2 .8 2.8 1.5c.8.7 1.4 1.5 1.8 2.5.4 1 .6 2.2.6 3.6 0 1.7-.3 3.2-.8 4.7s-1.2 2.7-2.2 3.8c-1 1.1-2.1 1.9-3.5 2.6-1.4.6-2.9.9-4.7.9-2.7 0-4.8-.7-6.4-2.1-1.6-1.4-2.4-3.4-2.4-6.2.1-1.5.4-3.1.9-4.5zm4.7 6.2c.2.5.4 1 .7 1.4.3.4.7.7 1.2.9.5.2 1 .4 1.6.4 1 0 1.8-.3 2.5-.8s1.3-1.2 1.7-2c.5-.8.8-1.7 1-2.6s.3-1.8.3-2.6c0-1.3-.3-2.3-.9-3.1-.6-.8-1.6-1.1-3-1.1-1 0-1.8.3-2.5.8s-1.3 1.2-1.7 2c-.4.8-.8 1.6-1 2.6-.2.9-.3 1.8-.3 2.6.2.5.2 1 .4 1.5zM117.9 226c1.3 0 2.5.1 3.6.3 1.1.2 2 .5 2.7.9s1.3 1.1 1.7 1.9c.4.8.6 1.8.6 3.1 0 .7-.1 1.5-.3 2.2-.2.7-.5 1.3-1 1.9-.4.6-.9 1-1.6 1.4-.6.4-1.3.6-2.1.7v.1c1.3.3 2.2 1 2.9 2 .7 1 1 2.1 1 3.4 0 1.4-.3 2.7-.8 3.8-.6 1.1-1.3 2-2.2 2.7-.9.7-2 1.3-3.2 1.6-1.2.4-2.5.6-3.8.6h-14.1l5.5-26.4h11.1zm-2.8 21.9c1.3 0 2.4-.4 3.3-1.1.9-.7 1.3-1.8 1.3-3.2 0-.7-.1-1.2-.4-1.6-.3-.4-.6-.7-1.1-.9-.4-.2-.9-.3-1.5-.4-.5 0-1.1-.1-1.6-.1h-5.7l-1.6 7.3h7.3zm1.6-11.2c1.1 0 2-.3 2.8-.9.8-.6 1.2-1.4 1.2-2.6 0-1-.3-1.7-.8-2.1-.6-.4-1.3-.6-2.2-.6h-6.1l-1.3 6.2h6.4zM140.7 252.4l.6-2.7h-.1c-1.7 2.1-3.9 3.1-6.7 3.1-3.7 0-5.6-1.7-5.6-5.1 0-.2 0-.4.1-.8 0-.3.1-.6.1-.9.1-.3.1-.6.2-.9.1-.3.1-.5.2-.7l2.4-11.2h5.3l-2.3 11.2c0 .1-.1.3-.1.5s-.1.4-.1.6c0 .2-.1.4-.1.6v.5c0 .6.3 1 .8 1.4.5.4 1.1.6 1.7.6.8 0 1.5-.2 2.1-.5.6-.3 1.1-.7 1.6-1.2.4-.5.8-1.1 1.1-1.7.3-.6.5-1.3.6-2l2.1-10.2h5.3l-4 19.1h-5.2zM157.2 257.1c-.5.5-1 .9-1.6 1.2s-1.2.5-1.9.6c-.7.1-1.6.2-2.6.2-.4 0-.9 0-1.4-.1-.5 0-.9-.1-1.4-.1l.9-4.4c.3 0 .7 0 1.1.1.4.1.7.1 1.1.1.6 0 1.1-.1 1.5-.3.4-.2.7-.4.9-.7.2-.3.4-.5.6-.8.2-.3.3-.6.5-.8l-3.4-18.9h5.4l1.7 13.7h.1l6.6-13.7h5.5L158.6 255c-.4.9-.9 1.6-1.4 2.1zM191.4 226l-4.5 21.5h12.8l-1 4.9h-18.6l5.5-26.4h5.8zM210.3 233.3l-4.1 19.1H201l4-19.1h5.3zm-4.7-2.9l1-4.3h5.3l-1 4.3h-5.3zM211.8 236.8l.7-3.5h3.1c.2-1.2.5-2.3.8-3.2.3-.9.7-1.7 1.2-2.3.5-.6 1.2-1.1 2.1-1.4.9-.3 2-.5 3.3-.5.6 0 1.1 0 1.7.1.6 0 1.2.1 1.7.2l-.8 3.8c-.3 0-.6 0-.9-.1h-.9c-.7 0-1.2.1-1.5.2-.3.2-.6.4-.8.7-.2.3-.3.7-.4 1.1-.1.4-.2.9-.4 1.5h3.7l-.7 3.5h-3.8l-3.3 15.6h-5.3l3.3-15.6h-2.8zM229.4 244.5v.8c0 1.1.3 2 1 2.7.7.7 1.8 1 3.2 1 .5 0 1-.1 1.4-.2.4-.2.8-.4 1.1-.6.3-.2.6-.5.8-.9.2-.3.5-.6.6-.9h5.3c-.4 1.1-.9 2-1.5 2.8-.6.8-1.2 1.5-2 2.1-.8.6-1.7 1-2.8 1.2-1 .3-2.3.4-3.6.4-1.3 0-2.4-.2-3.5-.5-1-.3-1.9-.9-2.7-1.6-.7-.7-1.3-1.6-1.7-2.6-.4-1-.6-2.2-.6-3.6 0-1.5.2-3 .7-4.4.5-1.4 1.2-2.7 2.1-3.8.9-1.1 2-2 3.3-2.6 1.3-.7 2.8-1 4.4-1 1.3 0 2.5.2 3.6.5s2 .9 2.8 1.6c.8.7 1.4 1.6 1.8 2.6.4 1 .6 2.3.6 3.6 0 .9-.1 1.9-.3 3h-14.1c.1.2.1.3.1.4zm9.3-5.1c-.1-.5-.3-.9-.5-1.3s-.6-.7-1.1-.9c-.5-.2-1.1-.4-1.8-.4s-1.4.1-2 .3-1.1.5-1.5.9c-.4.4-.8.8-1.1 1.3-.3.5-.5 1-.7 1.6h8.8c0-.6-.1-1.1-.1-1.5z"/></g><g><path d="M68.4 268l-5.6 26.4H57l5.5-26.4h5.9zM76.7 275.3l-.6 2.7h.1c1.7-2.1 3.9-3.2 6.7-3.2 3.7 0 5.6 1.7 5.6 5.1 0 .2 0 .5-.1.8 0 .3-.1.6-.2.9-.1.3-.1.6-.2.9-.1.3-.1.5-.1.7l-2.4 11.2h-5.3l2.3-11.2c0-.3.1-.7.2-1.2s.1-.9.1-1.1c0-.6-.3-1-.8-1.4-.5-.4-1.1-.6-1.7-.6-.8 0-1.5.2-2.1.5-.6.3-1.1.7-1.6 1.2-.4.5-.8 1.1-1.1 1.7-.3.6-.5 1.3-.6 2l-2.1 10.2h-5.2l4-19.1h5.1zM103 279c-.5-.5-1.2-.7-2.2-.7-.9 0-1.7.1-2.3.4-.6.3-.9.8-.9 1.5 0 .4.2.8.5 1.1.4.3 1 .6 1.9.9l2.6.9c.7.2 1.4.5 2 .8.6.3 1.1.7 1.6 1.1.5.4.8.9 1.1 1.5.3.6.4 1.3.4 2.1 0 1.2-.3 2.2-.8 3-.5.8-1.2 1.5-2.1 2-.9.5-1.8.9-2.9 1.1-1.1.2-2.2.3-3.3.3-.9 0-1.9-.1-2.8-.3s-1.8-.5-2.6-1-1.4-1.1-1.9-1.8-.7-1.7-.7-2.8v-.8h4.8v.6c0 .4.1.8.3 1.1.2.3.5.6.9.8.4.2.8.4 1.2.5.5.1.9.2 1.4.2.4 0 .8 0 1.2-.1.4-.1.8-.2 1.1-.4.3-.2.6-.4.8-.7.2-.3.3-.6.3-1.1 0-.7-.2-1.1-.5-1.4-.3-.3-.8-.5-1.4-.7l-4-1.3c-.7-.2-1.3-.5-1.8-.7-.5-.2-.9-.6-1.3-.9-.4-.4-.6-.8-.8-1.3-.2-.5-.3-1.2-.3-1.9 0-1.1.3-2.1.8-2.8.5-.8 1.2-1.4 2.1-1.9.8-.5 1.8-.8 2.8-1 1-.2 2-.3 2.9-.3 1 0 2 .1 3 .3 1 .2 1.8.5 2.5.9.7.5 1.3 1.1 1.7 1.9.4.8.6 1.8.6 3H104c-.3-1-.5-1.7-1-2.1zM122.6 294.4l.6-2.7h-.1c-1.7 2.1-3.9 3.1-6.7 3.1-3.7 0-5.6-1.7-5.6-5.1 0-.2 0-.4.1-.8 0-.3.1-.6.1-.9.1-.3.1-.6.2-.9.1-.3.1-.5.2-.7l2.4-11.2h5.3l-2.3 11.2c0 .1-.1.3-.1.5s-.1.4-.1.6c0 .2-.1.4-.1.6v.5c0 .6.3 1 .8 1.4.5.4 1.1.6 1.7.6.8 0 1.5-.2 2.1-.5.6-.3 1.1-.7 1.6-1.2.4-.5.8-1.1 1.1-1.7.3-.6.5-1.3.6-2l2.1-10.2h5.3l-4 19.1h-5.2zM141.1 275.3l-.8 3.4.1.1c.6-1.3 1.5-2.3 2.7-3 1.2-.7 2.5-1 3.9-1 .5 0 1.1 0 1.6.1l-1.1 5.1c-.4-.1-.7-.1-1.1-.2-.4-.1-.7-.1-1.1-.1-1 0-1.9.2-2.6.5-.7.3-1.3.8-1.8 1.4-.5.6-.9 1.3-1.1 2-.3.8-.5 1.5-.7 2.3l-1.8 8.5h-5.2l4-19.1h5zM150.2 278.1c.6-.8 1.3-1.4 2.1-1.9s1.7-.8 2.7-1.1c1-.2 2.1-.3 3.1-.3.9 0 1.8.1 2.7.2.9.1 1.8.4 2.6.7.8.4 1.4.9 1.9 1.5.5.7.7 1.5.7 2.6 0 .9-.1 2-.4 3.2l-1.7 7.7c-.1.3-.2.8-.2 1.3s-.1.9-.1 1.3c0 .3.1.7.2 1.1h-5.3v-1.9c-.7.8-1.6 1.4-2.6 1.8-1 .4-2.1.6-3.2.6-1 0-1.9-.1-2.7-.4-.8-.3-1.4-.6-1.9-1.1-.5-.5-.9-1-1.1-1.6-.2-.6-.4-1.2-.4-1.9 0-1.8.6-3.3 1.9-4.4s3.1-1.8 5.4-2.1c1.2-.1 2.3-.3 3.2-.3.9-.1 1.7-.2 2.3-.4.6-.2 1.1-.4 1.4-.7.3-.3.4-.8.4-1.4 0-.5-.1-.9-.3-1.2-.2-.3-.5-.5-.8-.7-.3-.2-.7-.3-1.1-.4-.4-.1-.7-.1-1.1-.1-.9 0-1.8.2-2.5.7s-1.2 1.2-1.4 2.1h-4.9c.2-1.1.6-2.1 1.1-2.9zm7.9 7.9c-.8.1-1.5.2-2.3.2-.5 0-1 .1-1.4.2-.5.1-.9.3-1.2.5-.4.2-.6.5-.9.9-.2.4-.3.9-.3 1.5 0 .7.3 1.3.9 1.6.6.4 1.3.5 2 .5.8 0 1.5-.1 2.1-.4.6-.3 1-.6 1.4-1 .4-.4.7-.9.9-1.4s.4-1 .6-1.6l.5-1.8c-.8.5-1.5.7-2.3.8zM176.7 275.3l-.6 2.7h.1c1.7-2.1 3.9-3.2 6.7-3.2 3.7 0 5.6 1.7 5.6 5.1 0 .2 0 .5-.1.8 0 .3-.1.6-.2.9-.1.3-.1.6-.2.9-.1.3-.1.5-.1.7l-2.4 11.2h-5.3l2.3-11.2c0-.3.1-.7.2-1.2s.1-.9.1-1.1c0-.6-.3-1-.8-1.4-.5-.4-1.1-.6-1.7-.6-.8 0-1.5.2-2.1.5-.6.3-1.1.7-1.6 1.2-.4.5-.8 1.1-1.1 1.7-.3.6-.5 1.3-.6 2l-2.1 10.2h-5.2l4-19.1h5.1zM204.4 279.5c-.6-.5-1.5-.7-2.6-.7-1 0-1.8.3-2.5.8s-1.2 1.2-1.7 2c-.4.8-.7 1.7-.9 2.6-.2.9-.3 1.8-.3 2.6 0 .6.1 1.1.2 1.6s.3.9.6 1.3.7.7 1.1.9c.5.2 1 .3 1.7.3.6 0 1.1-.1 1.6-.3.5-.2.9-.5 1.2-.8.4-.3.7-.7.9-1.1.2-.4.4-.9.6-1.4h5.3c-.8 2.4-2 4.2-3.6 5.5s-3.7 1.9-6.2 1.9c-2.7 0-4.8-.7-6.3-2s-2.2-3.4-2.2-6.2c0-1.6.2-3.2.7-4.6.5-1.4 1.2-2.7 2.1-3.8.9-1.1 2.1-2 3.4-2.6s2.9-.9 4.6-.9c1.2 0 2.3.1 3.3.4 1 .3 1.9.7 2.7 1.3.8.6 1.4 1.3 1.8 2.2.5.9.7 2 .7 3.3h-5.3c0-1-.3-1.8-.9-2.3zM216.7 286.5v.8c0 1.1.3 2 1 2.7.7.7 1.8 1 3.2 1 .5 0 1-.1 1.4-.2.4-.2.8-.4 1.1-.6.3-.2.6-.5.8-.9.2-.3.5-.6.6-.9h5.3c-.4 1.1-.9 2-1.5 2.8-.6.8-1.2 1.5-2 2.1-.8.6-1.7 1-2.8 1.2-1 .3-2.3.4-3.6.4-1.3 0-2.4-.2-3.5-.5-1-.3-1.9-.9-2.7-1.6-.7-.7-1.3-1.6-1.7-2.6-.4-1-.6-2.2-.6-3.6 0-1.5.2-3 .7-4.4.5-1.4 1.2-2.7 2.1-3.8.9-1.1 2-2 3.3-2.6 1.3-.7 2.8-1 4.4-1 1.3 0 2.5.2 3.6.5s2 .9 2.8 1.6c.8.7 1.4 1.6 1.8 2.6.4 1 .6 2.3.6 3.6 0 .9-.1 1.9-.3 3h-14.1c.1.2.1.3.1.4zm9.3-5.1c-.1-.5-.3-.9-.5-1.3s-.6-.7-1.1-.9c-.5-.2-1.1-.4-1.8-.4s-1.4.1-2 .3-1.1.5-1.5.9c-.4.4-.8.8-1.1 1.3-.3.5-.5 1-.7 1.6h8.8c0-.6 0-1.1-.1-1.5zM239.5 288.7l-1.2 5.7h-5.8l1.2-5.7h5.8zm-1.2-2.2h-2.6l.9-11.3 1.5-7.2h5.6l-1.6 7.2-3.8 11.3z"/></g></svg>