<svg id="Layer_1" xmlns="http://www.w3.org/2000/svg" viewBox="0 0 300 600"><style>.st0{fill:#349946}</style><path class="st0" d="M44.3 112.1l11 29.4h-6.7l-2.2-6.5h-11l-2.3 6.5h-6.5l11.1-29.4h6.6zm.4 18L41 119.3h-.1l-3.8 10.8h7.6zM86.2 135.4c-.2 1.2-.6 2.2-1.3 3.2-.7 1-1.7 1.8-3 2.5s-3 1-5.2 1c-1.2 0-2.4-.2-3.6-.5-1.2-.3-2.2-.9-3.1-1.6-.9-.7-1.6-1.7-2.2-2.8-.5-1.1-.8-2.5-.8-4.1v-2.6h5.8v1.3c0 .7.1 1.4.2 2 .1.6.3 1.1.6 1.5.3.4.7.8 1.1 1 .5.2 1.1.4 1.9.4.9 0 1.5-.2 2-.5s.8-.7 1-1.2c.2-.5.3-1 .4-1.6 0-.6.1-1.1.1-1.6V112h6.5v20.1c-.1 1.1-.2 2.1-.4 3.3zM91.9 120.8c.7-1.9 1.6-3.5 2.8-4.9 1.2-1.4 2.8-2.5 4.6-3.3 1.8-.8 3.8-1.2 6.1-1.2s4.3.4 6.1 1.2c1.8.8 3.3 1.9 4.5 3.3 1.2 1.4 2.2 3 2.8 4.9.7 1.9 1 3.9 1 6.1 0 2.1-.3 4.1-1 6-.7 1.9-1.6 3.5-2.8 4.8-1.2 1.4-2.7 2.5-4.5 3.2-1.8.8-3.8 1.2-6.1 1.2s-4.3-.4-6.1-1.2c-1.8-.8-3.3-1.9-4.6-3.2-1.2-1.4-2.2-3-2.8-4.8-.7-1.9-1-3.9-1-6 0-2.2.3-4.2 1-6.1zm5.9 9.7c.3 1.2.7 2.2 1.4 3.1.6.9 1.5 1.7 2.5 2.2 1 .6 2.3.8 3.7.8 1.5 0 2.7-.3 3.7-.8 1-.6 1.8-1.3 2.5-2.2.6-.9 1.1-2 1.4-3.1.3-1.2.4-2.4.4-3.6 0-1.3-.1-2.5-.4-3.7-.3-1.2-.7-2.3-1.4-3.2-.6-.9-1.5-1.7-2.5-2.3-1-.6-2.3-.8-3.7-.8-1.5 0-2.7.3-3.7.8-1 .6-1.8 1.3-2.5 2.3-.6.9-1.1 2-1.4 3.2-.3 1.2-.4 2.5-.4 3.7 0 1.2.1 2.4.4 3.6zM145.9 139.2c-2.2 1.9-5.3 2.9-9.2 2.9-4 0-7.1-1-9.2-2.9-2.2-1.9-3.3-4.9-3.3-8.9V112h6.5v18.3c0 .8.1 1.6.2 2.3.1.8.4 1.4.9 2 .4.6 1 1.1 1.8 1.4.8.4 1.8.6 3.1.6 2.3 0 3.9-.5 4.8-1.5.9-1 1.3-2.6 1.3-4.8V112h6.5v18.3c-.1 4-1.2 7-3.4 8.9zM170.6 112.1c1.3 0 2.5.2 3.6.6 1.1.4 2 1 2.7 1.8.8.7 1.3 1.6 1.7 2.6.4 1 .6 2 .6 3.1 0 1.7-.4 3.2-1.1 4.5-.7 1.3-1.9 2.2-3.6 2.9v.1c.8.2 1.5.6 2 1 .5.5.9 1 1.3 1.6.3.6.6 1.3.7 2 .2.7.3 1.5.3 2.2 0 .5.1 1 .1 1.6 0 .6.1 1.3.1 1.9.1.7.2 1.3.3 1.9.2.6.4 1.1.7 1.5h-6.5c-.4-.9-.6-2-.7-3.3-.1-1.3-.2-2.5-.4-3.7-.2-1.5-.7-2.7-1.4-3.4-.7-.7-1.9-1.1-3.5-1.1H161v11.5h-6.5V112h16.1zm-2.3 13.3c1.5 0 2.6-.3 3.3-1 .7-.7 1.1-1.7 1.1-3.2 0-1.4-.4-2.5-1.1-3.1-.7-.6-1.9-1-3.3-1h-7.1v8.3h7.1zM190.9 112.1l12.3 19.7h.1v-19.7h6.1v29.4h-6.5l-12.2-19.7h-.1v19.7h-6.1v-29.4h6.4zM237 112.1v5.4h-15.5v6.3h14.2v5h-14.2v7.2h15.9v5.4H215V112h22zM238.5 112.1h7.2l6.9 11.6 6.8-11.6h7.2l-10.9 18.1v11.3h-6.5V130l-10.7-17.9z"/><g><path class="st0" d="M29.2 166.1c.5-1.4 1.3-2.6 2.2-3.5 1-1 2.1-1.7 3.5-2.3 1.3-.5 2.9-.8 4.5-.8 1.7 0 3.2.3 4.6.8 1.4.5 2.5 1.3 3.5 2.3 1 1 1.7 2.2 2.2 3.5.5 1.4.8 2.9.8 4.6 0 1.7-.3 3.2-.8 4.6-.5 1.4-1.3 2.5-2.2 3.5-1 1-2.1 1.7-3.5 2.2s-2.9.8-4.6.8c-1.7 0-3.2-.3-4.5-.8-1.3-.5-2.5-1.3-3.5-2.2-1-1-1.7-2.1-2.2-3.5-.5-1.4-.8-2.9-.8-4.6 0-1.7.2-3.2.8-4.6zm5.3 7.1c.2.8.4 1.5.8 2.2.4.6.9 1.2 1.6 1.5.7.4 1.5.6 2.5.6s1.8-.2 2.5-.6c.7-.4 1.2-.9 1.6-1.5.4-.6.7-1.4.8-2.2.2-.8.2-1.6.2-2.5 0-.9-.1-1.7-.2-2.5-.2-.8-.4-1.6-.8-2.2-.4-.6-.9-1.1-1.6-1.5-.7-.4-1.5-.6-2.5-.6s-1.8.2-2.5.6c-.7.4-1.2.9-1.6 1.5-.4.6-.7 1.4-.8 2.2-.2.8-.2 1.7-.2 2.5-.1.9 0 1.7.2 2.5zM52 164v-3.9h3.5v-1.6c0-1.9.6-3.4 1.8-4.7s3-1.8 5.4-1.8c.5 0 1 0 1.6.1.5 0 1 .1 1.5.1v4.4c-.7-.1-1.4-.1-2.1-.1-.8 0-1.4.2-1.7.6s-.5 1-.5 1.9v1.3h4v3.9h-4v17.4h-5.8V164H52zM79.1 166.6c.1-1.4.4-2.5 1-3.4.6-.9 1.4-1.6 2.3-2.2.9-.5 2-.9 3.1-1.2 1.2-.2 2.3-.4 3.5-.4 1.1 0 2.2.1 3.3.2 1.1.2 2.1.4 3 .9.9.4 1.6 1 2.2 1.8.6.8.9 1.8.9 3.1v11.1c0 1 .1 1.9.2 2.8.1.9.3 1.5.6 2h-5.9c-.1-.3-.2-.7-.3-1-.1-.3-.1-.7-.1-1.1-.9 1-2 1.6-3.3 2-1.3.4-2.6.6-3.9.6-1 0-2-.1-2.8-.4-.9-.2-1.6-.6-2.3-1.2-.7-.5-1.2-1.2-1.5-2-.4-.8-.6-1.7-.6-2.8 0-1.2.2-2.2.6-3 .4-.8 1-1.4 1.6-1.9.7-.5 1.4-.8 2.3-1 .9-.2 1.7-.4 2.6-.6.9-.1 1.7-.2 2.6-.3.9-.1 1.6-.2 2.3-.4.7-.2 1.2-.4 1.6-.7.4-.3.6-.8.5-1.4 0-.6-.1-1.1-.3-1.5-.2-.4-.5-.7-.8-.9-.3-.2-.7-.3-1.2-.4-.5-.1-.9-.1-1.5-.1-1.2 0-2.1.2-2.7.7-.7.5-1 1.3-1.2 2.5h-5.8zm13.5 4.3c-.2.2-.6.4-.9.5s-.8.2-1.2.3c-.4.1-.9.2-1.3.2-.5.1-.9.1-1.4.2-.4.1-.9.2-1.3.3-.4.1-.8.3-1.1.6-.3.2-.6.5-.8.9-.2.4-.3.8-.3 1.4 0 .5.1 1 .3 1.3.2.4.5.6.8.8.3.2.7.3 1.2.4.4.1.9.1 1.4.1 1.2 0 2-.2 2.7-.6.6-.4 1.1-.8 1.4-1.4.3-.5.5-1.1.6-1.6.1-.5.1-1 .1-1.3v-2.1z"/></g><g><path class="st0" d="M27.3 197.3v-5.4h24.1v5.4h-8.8v24h-6.5v-24h-8.8zM61.3 191.8v11.3h11.9v-11.3h6.5v29.4h-6.5v-12.7H61.3v12.7h-6.5v-29.4h6.5zM85 200.5c.7-1.9 1.6-3.5 2.8-4.9 1.2-1.4 2.8-2.5 4.6-3.3 1.8-.8 3.8-1.2 6.1-1.2s4.3.4 6.1 1.2c1.8.8 3.3 1.9 4.5 3.3 1.2 1.4 2.2 3 2.8 4.9.7 1.9 1 3.9 1 6.1 0 2.1-.3 4.1-1 6-.7 1.9-1.6 3.5-2.8 4.8-1.2 1.4-2.7 2.5-4.5 3.2-1.8.8-3.8 1.2-6.1 1.2s-4.3-.4-6.1-1.2c-1.8-.8-3.3-1.9-4.6-3.2-1.2-1.4-2.2-3-2.8-4.8-.7-1.9-1-3.9-1-6s.4-4.2 1-6.1zm5.9 9.8c.3 1.2.7 2.2 1.4 3.1.6.9 1.5 1.7 2.5 2.2 1 .6 2.3.8 3.7.8 1.5 0 2.7-.3 3.7-.8 1-.6 1.8-1.3 2.5-2.2.6-.9 1.1-2 1.4-3.1.3-1.2.4-2.4.4-3.6 0-1.3-.1-2.5-.4-3.7-.3-1.2-.7-2.3-1.4-3.2-.6-.9-1.5-1.7-2.5-2.3-1-.6-2.3-.8-3.7-.8-1.5 0-2.7.3-3.7.8-1 .6-1.8 1.3-2.5 2.3-.6.9-1.1 2-1.4 3.2-.3 1.2-.4 2.5-.4 3.7 0 1.2.2 2.4.4 3.6zM139 219c-2.2 1.9-5.3 2.9-9.2 2.9-4 0-7.1-1-9.2-2.9-2.2-1.9-3.3-4.9-3.3-8.9v-18.3h6.5v18.3c0 .8.1 1.6.2 2.3.1.8.4 1.4.9 2 .4.6 1 1.1 1.8 1.4.8.4 1.8.6 3.2.6 2.3 0 3.9-.5 4.8-1.5.9-1 1.3-2.6 1.3-4.8v-18.3h6.5v18.3c-.2 4-1.3 6.9-3.5 8.9zM152.8 214c.4.7.8 1.2 1.4 1.7.6.4 1.3.7 2.1.9.8.2 1.6.3 2.5.3.6 0 1.2 0 1.9-.1s1.3-.3 1.9-.6c.6-.3 1.1-.7 1.4-1.1.4-.5.6-1.1.6-1.8 0-.8-.3-1.4-.8-1.9s-1.2-.9-2-1.2c-.8-.3-1.8-.6-2.8-.9-1-.2-2.1-.5-3.2-.8-1.1-.3-2.2-.6-3.2-1s-2-.9-2.8-1.5c-.8-.6-1.5-1.4-2-2.4-.5-.9-.8-2.1-.8-3.4 0-1.5.3-2.8 1-3.9.6-1.1 1.5-2 2.5-2.8 1-.7 2.2-1.3 3.5-1.6 1.3-.4 2.6-.5 4-.5 1.5 0 3 .2 4.4.5s2.7.9 3.8 1.7c1.1.8 2 1.8 2.6 2.9.6 1.2 1 2.6 1 4.3h-6.3c-.1-.9-.2-1.6-.6-2.2-.3-.6-.7-1-1.3-1.4-.5-.3-1.1-.6-1.8-.7-.7-.1-1.4-.2-2.2-.2-.5 0-1 .1-1.6.2-.5.1-1 .3-1.4.6-.4.3-.8.6-1 1-.3.4-.4.9-.4 1.6 0 .6.1 1 .3 1.4.2.4.7.7 1.3 1 .6.3 1.5.6 2.7.9 1.1.3 2.6.7 4.5 1.2.5.1 1.3.3 2.3.6 1 .3 1.9.7 2.9 1.4 1 .6 1.8 1.5 2.5 2.5.7 1.1 1.1 2.4 1.1 4.1 0 1.3-.3 2.6-.8 3.7-.5 1.2-1.3 2.1-2.3 3-1 .8-2.3 1.5-3.8 2s-3.3.7-5.3.7c-1.6 0-3.2-.2-4.7-.6-1.5-.4-2.9-1-4-1.9-1.2-.9-2.1-1.9-2.8-3.3-.7-1.3-1-2.9-1-4.7h6.3c-.1.8.1 1.6.4 2.3zM189.3 191.8l11 29.4h-6.7l-2.2-6.5h-11l-2.3 6.5h-6.5l11.1-29.4h6.6zm.3 18.1l-3.7-10.8h-.1l-3.8 10.8h7.6zM209.2 191.8l12.3 19.7h.1v-19.7h6.1v29.4h-6.5L209 201.5h-.1v19.7h-6.1v-29.4h6.4zM246 191.8c1.9 0 3.7.3 5.3.9 1.6.6 3 1.5 4.2 2.7 1.2 1.2 2.1 2.7 2.8 4.5.7 1.8 1 3.9 1 6.4 0 2.1-.3 4.1-.8 5.9-.5 1.8-1.4 3.4-2.5 4.7-1.1 1.3-2.5 2.4-4.2 3.1-1.7.8-3.6 1.1-5.9 1.1h-12.7v-29.4H246zm-.5 24c.9 0 1.8-.2 2.7-.5.9-.3 1.7-.8 2.3-1.5.7-.7 1.2-1.6 1.6-2.7.4-1.1.6-2.5.6-4.1 0-1.5-.1-2.8-.4-4-.3-1.2-.8-2.2-1.4-3.1-.7-.9-1.5-1.5-2.6-2s-2.4-.7-4-.7h-4.6v18.5h5.8z"/></g><g><path class="st0" d="M34.6 253.8c.4.7.8 1.2 1.4 1.7.6.4 1.3.7 2.1.9.8.2 1.6.3 2.5.3.6 0 1.2 0 1.9-.1s1.3-.3 1.9-.6c.6-.3 1.1-.7 1.4-1.1.4-.5.6-1.1.6-1.8 0-.8-.3-1.4-.8-1.9s-1.2-.9-2-1.2c-.8-.3-1.8-.6-2.8-.9-1-.2-2.1-.5-3.2-.8-1.1-.3-2.2-.6-3.2-1s-2-.9-2.8-1.5c-.8-.6-1.5-1.4-2-2.4-.5-.9-.8-2.1-.8-3.4 0-1.5.3-2.8 1-3.9.6-1.1 1.5-2 2.5-2.8 1-.7 2.2-1.3 3.5-1.6 1.3-.4 2.6-.5 4-.5 1.5 0 3 .2 4.4.5 1.4.3 2.7.9 3.8 1.7 1.1.8 2 1.8 2.6 2.9.6 1.2 1 2.6 1 4.3h-6.3c-.1-.9-.2-1.6-.6-2.2-.3-.6-.7-1-1.3-1.4-.5-.3-1.1-.6-1.8-.7-.7-.1-1.4-.2-2.2-.2-.5 0-1 .1-1.6.2-.5.1-1 .3-1.4.6-.4.3-.8.6-1 1-.3.4-.4.9-.4 1.6 0 .6.1 1 .3 1.4.2.4.7.7 1.3 1 .6.3 1.5.6 2.7.9 1.1.3 2.6.7 4.5 1.2.5.1 1.3.3 2.3.6 1 .3 1.9.7 2.9 1.4 1 .6 1.8 1.5 2.5 2.5.7 1.1 1 2.4 1 4.1 0 1.3-.3 2.6-.8 3.7-.5 1.2-1.3 2.1-2.3 3-1 .8-2.3 1.5-3.8 2s-3.3.7-5.3.7c-1.6 0-3.2-.2-4.7-.6-1.5-.4-2.9-1-4-1.9-1.2-.9-2.1-1.9-2.8-3.3-.7-1.3-1-2.9-1-4.7h6.3c0 .8.1 1.7.5 2.3zM65.5 231.7l6.9 20.2h.1l6.5-20.2h9v29.4h-6v-20.8h-.1l-7.2 20.8h-5l-7.2-20.6h-.1v20.6h-6.1v-29.4h9.2zM100.2 231.7v29.4h-6.5v-29.4h6.5zM112.3 231.7v24h14.3v5.4h-20.8v-29.4h6.5zM152.3 231.7v5.4h-15.5v6.3H151v5h-14.2v7.2h15.9v5.4h-22.3v-29.4h21.9zM161.9 253.8c.4.7.8 1.2 1.4 1.7.6.4 1.3.7 2.1.9.8.2 1.6.3 2.5.3.6 0 1.2 0 1.9-.1s1.3-.3 1.9-.6c.6-.3 1.1-.7 1.4-1.1.4-.5.6-1.1.6-1.8 0-.8-.3-1.4-.8-1.9s-1.2-.9-2-1.2c-.8-.3-1.8-.6-2.8-.9-1-.2-2.1-.5-3.2-.8-1.1-.3-2.2-.6-3.2-1s-2-.9-2.8-1.5c-.8-.6-1.5-1.4-2-2.4-.5-.9-.8-2.1-.8-3.4 0-1.5.3-2.8 1-3.9.6-1.1 1.5-2 2.5-2.8 1-.7 2.2-1.3 3.5-1.6 1.3-.4 2.6-.5 4-.5 1.5 0 3 .2 4.4.5s2.7.9 3.8 1.7c1.1.8 2 1.8 2.6 2.9.6 1.2 1 2.6 1 4.3h-6.3c-.1-.9-.2-1.6-.6-2.2-.3-.6-.7-1-1.3-1.4-.5-.3-1.1-.6-1.8-.7-.7-.1-1.4-.2-2.2-.2-.5 0-1 .1-1.6.2-.5.1-1 .3-1.4.6-.4.3-.8.6-1 1-.3.4-.4.9-.4 1.6 0 .6.1 1 .3 1.4.2.4.7.7 1.3 1 .6.3 1.5.6 2.7.9 1.1.3 2.6.7 4.5 1.2.5.1 1.3.3 2.3.6 1 .3 1.9.7 2.9 1.4 1 .6 1.8 1.5 2.5 2.5.7 1.1 1.1 2.4 1.1 4.1 0 1.3-.3 2.6-.8 3.7-.5 1.2-1.3 2.1-2.3 3-1 .8-2.3 1.5-3.8 2s-3.3.7-5.3.7c-1.6 0-3.2-.2-4.7-.6-1.5-.4-2.9-1-4-1.9-1.2-.9-2.1-1.9-2.8-3.3-.7-1.3-1-2.9-1-4.7h6.3c-.1.8.1 1.7.4 2.3z"/></g><g><path d="M34.9 271.5v10.7h.1c.7-1.1 1.7-1.9 2.9-2.4s2.5-.8 3.8-.8c1.1 0 2.1.2 3.2.7 1 .4 2 1.1 2.8 2 .8.9 1.5 2.1 2 3.5s.8 3.1.8 5-.3 3.6-.8 5-1.2 2.6-2 3.5c-.8.9-1.8 1.6-2.8 2-1 .4-2.1.7-3.2.7-1.6 0-3-.2-4.2-.7s-2.2-1.3-2.8-2.5h-.1v2.7H29v-29.4h5.9zm9.4 16.2c-.2-.8-.5-1.6-.9-2.2-.4-.6-.9-1.1-1.5-1.5s-1.4-.6-2.2-.6c-.9 0-1.6.2-2.2.6-.6.4-1.2.9-1.6 1.5-.4.6-.7 1.4-.9 2.2-.2.8-.3 1.7-.3 2.6 0 .9.1 1.7.3 2.6.2.8.5 1.6.9 2.2.4.6.9 1.1 1.6 1.5.6.4 1.4.6 2.2.6.9 0 1.6-.2 2.2-.6s1.1-.9 1.5-1.5c.4-.6.7-1.4.9-2.2.2-.8.3-1.7.3-2.6 0-.9-.1-1.7-.3-2.6zM60.4 295.8c.9.9 2.1 1.3 3.8 1.3 1.2 0 2.2-.3 3-.9.9-.6 1.4-1.2 1.6-1.9H74c-.8 2.6-2.1 4.4-3.8 5.5-1.7 1.1-3.8 1.6-6.2 1.6-1.7 0-3.2-.3-4.5-.8-1.3-.5-2.5-1.3-3.4-2.3-.9-1-1.7-2.2-2.2-3.5-.5-1.4-.8-2.9-.8-4.5s.3-3.1.8-4.4c.5-1.4 1.3-2.6 2.2-3.6 1-1 2.1-1.8 3.4-2.4 1.3-.6 2.8-.9 4.4-.9 1.8 0 3.4.4 4.7 1 1.3.7 2.5 1.6 3.3 2.8.9 1.2 1.5 2.5 1.9 4 .4 1.5.5 3.1.4 4.7H59c.1 2.1.6 3.5 1.4 4.3zm6.7-11.2c-.7-.8-1.8-1.2-3.2-1.2-.9 0-1.7.2-2.3.5-.6.3-1.1.7-1.5 1.2s-.6 1-.8 1.5c-.2.5-.2 1-.3 1.4h9.5c-.3-1.5-.7-2.6-1.4-3.4zM97.9 302.5c-.2 1.1-.7 2.1-1.5 3.1-.8.9-1.9 1.8-3.3 2.4-1.5.7-3.4 1-5.8 1-1 0-2.1-.1-3.2-.4-1.1-.3-2.1-.7-3-1.2-.9-.5-1.6-1.3-2.2-2.1-.6-.9-.9-1.9-1-3.1h5.8c.3 1.1.8 1.9 1.6 2.3.8.4 1.7.6 2.8.6 1.6 0 2.8-.5 3.6-1.5.8-1 1.1-2.2 1.1-3.7V297h-.1c-.6 1.1-1.5 2-2.7 2.5-1.2.5-2.4.8-3.7.8-1.6 0-3-.3-4.1-.8-1.2-.6-2.1-1.3-2.8-2.3-.7-1-1.3-2.1-1.6-3.4-.3-1.3-.5-2.7-.5-4.1 0-1.4.2-2.7.6-4 .4-1.3 1-2.4 1.8-3.4s1.7-1.8 2.9-2.3c1.1-.6 2.4-.9 3.9-.9 1.4 0 2.6.3 3.7.8s1.9 1.4 2.7 2.6h.1v-2.8h5.6v19.9c-.3.8-.4 1.8-.7 2.9zm-8-7.1c.6-.3 1.2-.8 1.6-1.3.4-.5.7-1.2.9-1.9.2-.7.3-1.4.3-2.2 0-.9-.1-1.7-.2-2.5s-.4-1.5-.8-2.1c-.4-.6-.9-1.1-1.5-1.4-.6-.4-1.4-.5-2.4-.5-.8 0-1.5.2-2.1.5-.6.3-1.1.8-1.5 1.3-.4.6-.7 1.2-.9 1.9-.2.7-.3 1.5-.3 2.3 0 .8.1 1.5.2 2.3.2.8.4 1.4.8 2 .4.6.9 1.1 1.5 1.5.6.4 1.4.6 2.3.6.8 0 1.5-.1 2.1-.5zM103.1 276.4v-4.8h5.8v4.8h-5.8zm5.9 3.3V301h-5.8v-21.3h5.8zM119.2 279.7v3h.1c.7-1.2 1.7-2.1 2.9-2.7 1.2-.6 2.4-.8 3.6-.8 1.6 0 2.8.2 3.9.6 1 .4 1.8 1 2.4 1.8.6.8 1 1.7 1.2 2.8.2 1.1.4 2.3.4 3.6v13.1h-5.8v-12c0-1.8-.3-3.1-.8-3.9-.5-.9-1.5-1.3-2.9-1.3-1.6 0-2.7.5-3.5 1.4-.7.9-1.1 2.5-1.1 4.7v11.2h-5.8v-21.3h5.4zM142.9 295.7c.3.5.6.8 1 1.1.4.3.9.5 1.4.6.5.1 1.1.2 1.7.2.4 0 .8 0 1.3-.1s.9-.2 1.2-.5c.4-.2.7-.5.9-.8s.4-.8.4-1.3c0-.9-.6-1.5-1.8-2-1.2-.4-2.8-.9-4.9-1.3-.9-.2-1.7-.4-2.5-.7-.8-.3-1.5-.6-2.2-1-.6-.4-1.1-1-1.5-1.6-.4-.6-.6-1.4-.6-2.4 0-1.4.3-2.5.8-3.4.5-.9 1.2-1.6 2.1-2.1.9-.5 1.9-.9 3-1.1 1.1-.2 2.2-.3 3.4-.3s2.3.1 3.4.3c1.1.2 2.1.6 2.9 1.1.9.5 1.6 1.2 2.1 2.1.6.9.9 2 1 3.3h-5.6c-.1-1.1-.5-1.9-1.3-2.3-.8-.4-1.7-.6-2.7-.6-.3 0-.7 0-1.1.1-.4 0-.7.1-1 .3-.3.1-.6.3-.8.6-.2.3-.3.6-.3 1 0 .5.2.9.6 1.3.4.3.9.6 1.5.8.6.2 1.3.4 2.1.6.8.2 1.6.3 2.4.5.9.2 1.7.4 2.5.7.8.3 1.5.6 2.2 1.1.6.5 1.1 1 1.5 1.7.4.7.6 1.5.6 2.5 0 1.4-.3 2.6-.8 3.5-.6.9-1.3 1.7-2.2 2.3-.9.6-1.9 1-3.1 1.2-1.2.2-2.4.3-3.6.3-1.2 0-2.4-.1-3.6-.4-1.2-.2-2.2-.7-3.2-1.2-.9-.6-1.7-1.3-2.3-2.3-.6-.9-.9-2.1-1-3.6h5.6c.2.8.3 1.3.5 1.8zM189.9 300.9l-3.8-14.3h-.1l-3.6 14.3h-6.1l-6.8-21.3h6.2l3.9 14.5h.1l3.5-14.5h5.7l3.6 14.4h.1l3.9-14.4h6l-6.7 21.3h-5.9zM205.3 276.4v-4.8h5.8v4.8h-5.8zm5.8 3.3V301h-5.8v-21.3h5.8zM227.4 279.7v3.9h-4.3v10.5c0 1 .2 1.6.5 2 .3.3 1 .5 2 .5h.9c.3 0 .6-.1.9-.1v4.5c-.5.1-1 .1-1.6.2H224c-.9 0-1.8-.1-2.6-.2s-1.5-.4-2.1-.7c-.6-.4-1.1-.9-1.5-1.5s-.5-1.5-.5-2.6v-12.6h-3.5v-3.9h3.5v-6.4h5.8v6.4h4.3zM236.1 271.5v11.1h.1c.7-1.2 1.7-2.1 2.8-2.7 1.2-.6 2.3-.8 3.4-.8 1.6 0 2.8.2 3.9.6 1 .4 1.8 1 2.4 1.8.6.8 1 1.7 1.2 2.8.2 1.1.3 2.3.3 3.6V301h-5.8v-12c0-1.8-.3-3.1-.8-3.9-.5-.9-1.5-1.3-2.9-1.3-1.6 0-2.7.5-3.5 1.4-.7.9-1.1 2.5-1.1 4.7v11.2h-5.8v-29.4h5.8z"/></g><g><path d="M28.8 326.1c.1-1.4.4-2.5 1-3.4.6-.9 1.4-1.6 2.3-2.2.9-.5 2-.9 3.1-1.2 1.2-.2 2.3-.3 3.5-.3 1.1 0 2.2.1 3.3.2 1.1.2 2.1.4 3 .9.9.4 1.6 1.1 2.2 1.8s.9 1.8.9 3.1v11.1c0 1 .1 1.9.2 2.8.1.9.3 1.5.6 2H43c-.1-.3-.2-.7-.3-1-.1-.3-.1-.7-.1-1-.9 1-2 1.6-3.3 2-1.3.4-2.6.6-3.9.6-1 0-2-.1-2.8-.4-.9-.2-1.6-.6-2.3-1.2-.7-.5-1.2-1.2-1.5-2-.4-.8-.6-1.7-.6-2.8 0-1.2.2-2.2.6-3 .4-.8 1-1.4 1.6-1.9.7-.5 1.4-.8 2.3-1s1.7-.4 2.6-.6c.9-.1 1.7-.2 2.6-.3.9-.1 1.6-.2 2.3-.4.7-.2 1.2-.4 1.6-.7.4-.3.6-.8.5-1.4 0-.6-.1-1.1-.3-1.5-.2-.4-.5-.7-.8-.9-.3-.2-.7-.3-1.2-.4-.5-.1-.9-.1-1.5-.1-1.2 0-2.1.2-2.7.7-.7.5-1 1.3-1.2 2.5h-5.8zm13.5 4.3c-.2.2-.6.4-.9.5l-1.2.3c-.4.1-.9.2-1.3.2-.5.1-.9.1-1.4.2-.4.1-.9.2-1.3.3-.4.1-.8.3-1.1.6-.3.2-.6.5-.8.9-.2.4-.3.8-.3 1.4 0 .5.1 1 .3 1.3.2.4.5.6.8.8.3.2.7.4 1.2.4.4.1.9.1 1.4.1 1.2 0 2-.2 2.7-.6.6-.4 1.1-.8 1.4-1.4.3-.5.5-1.1.6-1.6.1-.5.1-1 .1-1.3v-2.1zM69 335.5c.3.5.6.8 1 1.1.4.3.9.5 1.4.6s1.1.2 1.7.2c.4 0 .8 0 1.3-.1s.9-.2 1.2-.5.7-.5.9-.8c.2-.3.4-.8.4-1.3 0-.9-.6-1.5-1.8-2-1.2-.4-2.8-.9-4.9-1.3-.9-.2-1.7-.4-2.5-.7-.8-.3-1.5-.6-2.2-1-.6-.4-1.1-1-1.5-1.6-.4-.6-.6-1.4-.6-2.4 0-1.4.3-2.5.8-3.4.5-.9 1.2-1.6 2.1-2.1.9-.5 1.9-.9 3-1.1 1.1-.2 2.2-.3 3.4-.3 1.2 0 2.3.1 3.4.3 1.1.2 2.1.6 2.9 1.1.9.5 1.6 1.2 2.1 2.1.6.9.9 2 1 3.3h-5.6c-.1-1.1-.5-1.9-1.3-2.3-.8-.4-1.7-.6-2.7-.6-.3 0-.7 0-1.1.1-.4 0-.7.1-1 .3-.3.1-.6.3-.8.6-.2.3-.3.6-.3 1.1 0 .5.2.9.6 1.3.4.3.9.6 1.5.8s1.3.4 2.1.6c.8.2 1.6.3 2.4.5.9.2 1.7.4 2.5.7.8.3 1.5.6 2.2 1.1.6.5 1.1 1 1.5 1.7.4.7.6 1.5.6 2.5 0 1.4-.3 2.6-.8 3.5-.6.9-1.3 1.7-2.2 2.3s-1.9 1-3.1 1.2c-1.2.2-2.4.3-3.6.3-1.2 0-2.4-.1-3.6-.4-1.2-.2-2.2-.7-3.1-1.2-.9-.6-1.7-1.3-2.3-2.3-.6-.9-.9-2.1-1-3.6h5.6c0 .7.2 1.3.4 1.7zM86.4 316.2v-4.8h5.8v4.8h-5.8zm5.8 3.3v21.3h-5.8v-21.3h5.8zM102.4 319.5v3h.1c.7-1.2 1.7-2.1 2.9-2.7 1.2-.6 2.4-.8 3.6-.8 1.6 0 2.8.2 3.9.6 1 .4 1.8 1 2.4 1.8.6.8 1 1.7 1.2 2.8.2 1.1.4 2.3.4 3.6v13.1H111v-12c0-1.8-.3-3.1-.8-3.9-.5-.9-1.5-1.3-2.9-1.3-1.6 0-2.7.5-3.5 1.4-.7.9-1.1 2.5-1.1 4.7V341h-5.8v-21.3h5.5zM141.4 342.4c-.2 1.1-.7 2.1-1.5 3.1-.8.9-1.9 1.8-3.3 2.4-1.5.7-3.4 1-5.8 1-1 0-2.1-.1-3.2-.4-1.1-.3-2.1-.7-3-1.2-.9-.5-1.6-1.3-2.2-2.1-.6-.9-.9-1.9-1-3.1h5.8c.3 1.1.8 1.9 1.6 2.3.8.4 1.7.6 2.8.6 1.6 0 2.8-.5 3.6-1.5.8-1 1.1-2.2 1.1-3.7V337h-.1c-.6 1.1-1.5 2-2.7 2.5-1.2.5-2.4.8-3.7.8-1.6 0-3-.3-4.1-.8-1.2-.6-2.1-1.3-2.8-2.3s-1.3-2.1-1.6-3.4c-.3-1.3-.5-2.7-.5-4.1 0-1.4.2-2.7.6-4 .4-1.3 1-2.4 1.8-3.4s1.7-1.8 2.9-2.3c1.1-.6 2.4-.9 3.9-.9 1.4 0 2.6.3 3.7.8s1.9 1.4 2.7 2.6h.1v-2.8h5.6v19.9c-.4.7-.5 1.7-.7 2.8zm-8-7.1c.6-.3 1.2-.8 1.6-1.3.4-.5.7-1.2.9-1.9s.3-1.4.3-2.2c0-.9-.1-1.7-.2-2.5s-.4-1.5-.8-2.1c-.4-.6-.9-1.1-1.5-1.4-.6-.4-1.4-.5-2.4-.5-.8 0-1.5.2-2.1.5-.6.3-1.1.8-1.5 1.3-.4.6-.7 1.2-.9 1.9-.2.7-.3 1.5-.3 2.3 0 .8.1 1.5.2 2.3.2.8.4 1.4.8 2 .4.6.9 1.1 1.5 1.5.6.4 1.4.6 2.3.6.7 0 1.4-.2 2.1-.5zM152.4 311.4v29.4h-5.8v-29.4h5.8zM163.3 335.7c.9.9 2.1 1.3 3.8 1.3 1.2 0 2.2-.3 3-.9.9-.6 1.4-1.2 1.6-1.9h5.1c-.8 2.6-2.1 4.4-3.8 5.5s-3.8 1.6-6.2 1.6c-1.7 0-3.2-.3-4.5-.8s-2.5-1.3-3.4-2.3c-.9-1-1.7-2.2-2.2-3.5-.5-1.4-.8-2.9-.8-4.5s.3-3.1.8-4.4c.5-1.4 1.3-2.6 2.2-3.6s2.1-1.8 3.4-2.4c1.3-.6 2.8-.9 4.4-.9 1.8 0 3.4.3 4.7 1 1.3.7 2.5 1.6 3.3 2.8.9 1.2 1.5 2.5 1.9 4 .4 1.5.5 3.1.4 4.7h-15.4c.3 2.1.8 3.4 1.7 4.3zm6.6-11.2c-.7-.8-1.8-1.2-3.2-1.2-.9 0-1.7.2-2.3.5-.6.3-1.1.7-1.5 1.2-.4.5-.6 1-.8 1.5-.2.5-.2 1-.3 1.4h9.5c-.2-1.5-.7-2.6-1.4-3.4zM197.7 333.6c.4.7.8 1.2 1.4 1.7.6.4 1.3.7 2.1.9.8.2 1.6.3 2.5.3.6 0 1.2 0 1.9-.1s1.3-.3 1.9-.6c.6-.3 1.1-.7 1.4-1.1.4-.5.6-1.1.6-1.8 0-.8-.3-1.4-.8-1.9s-1.2-.9-2-1.2c-.8-.3-1.8-.6-2.8-.9-1-.2-2.1-.5-3.2-.8-1.1-.3-2.2-.6-3.2-1s-2-.9-2.8-1.5c-.8-.6-1.5-1.4-2-2.4-.5-.9-.8-2.1-.8-3.4 0-1.5.3-2.8 1-3.9.6-1.1 1.5-2 2.5-2.8 1-.7 2.2-1.3 3.5-1.6 1.3-.4 2.6-.5 4-.5 1.5 0 3 .2 4.4.5 1.4.3 2.7.9 3.8 1.7s2 1.8 2.6 2.9c.6 1.2 1 2.6 1 4.3h-6.3c-.1-.9-.2-1.6-.6-2.2s-.7-1-1.3-1.4c-.5-.3-1.1-.6-1.8-.7-.7-.1-1.4-.2-2.2-.2-.5 0-1 .1-1.6.2-.5.1-1 .3-1.4.6s-.8.6-1 1c-.3.4-.4.9-.4 1.6 0 .6.1 1 .3 1.4.2.4.7.7 1.3 1 .6.3 1.5.6 2.7.9 1.1.3 2.6.7 4.5 1.2.5.1 1.3.3 2.3.6 1 .3 1.9.7 2.9 1.4 1 .6 1.8 1.5 2.5 2.5.7 1.1 1.1 2.4 1.1 4.1 0 1.3-.3 2.6-.8 3.7-.5 1.2-1.3 2.1-2.3 3-1 .8-2.3 1.5-3.8 2s-3.3.7-5.3.7c-1.6 0-3.2-.2-4.7-.6-1.5-.4-2.9-1-4-1.9s-2.1-1.9-2.8-3.3c-.7-1.3-1-2.9-1-4.7h6.3c-.1.7 0 1.6.4 2.3zM217.2 316.8v-5.4h24.1v5.4h-8.8v24H226v-24h-8.8zM266.6 311.4v5.4h-15.5v6.3h14.2v5h-14.2v7.2H267v5.4h-22.3v-29.4h21.9zM284.6 311.4c1.8 0 3.4.3 4.7.8 1.3.5 2.3 1.2 3.1 2.1.8.9 1.4 1.9 1.8 3 .4 1.1.6 2.3.6 3.5 0 1.2-.2 2.3-.6 3.5-.4 1.1-1 2.1-1.8 3s-1.9 1.6-3.1 2.1c-1.3.5-2.9.8-4.7.8h-6.8v10.5h-6.5v-29.4h13.3zm-1.8 13.8c.7 0 1.5-.1 2.1-.2s1.3-.3 1.8-.6.9-.8 1.3-1.3c.3-.6.5-1.3.5-2.3s-.2-1.7-.5-2.3c-.3-.6-.7-1-1.3-1.3-.5-.3-1.1-.5-1.8-.6-.7-.1-1.4-.2-2.1-.2h-5v8.8h5z"/></g></svg>