<svg id="Layer_1" xmlns="http://www.w3.org/2000/svg" xmlns:xlink="http://www.w3.org/1999/xlink" viewBox="0 0 300 600"><style>.st0{clip-path:url(#SVGID_00000075151831659475797800000002600536270602151848_);fill:#349946}.st1{fill:#fff}</style><defs><path id="SVGID_1_" d="M43.1 361.4h214.2v45.1H43.1z"/></defs><clipPath id="SVGID_00000042004519227078977660000013625948628537366972_"><use xlink:href="#SVGID_1_" overflow="visible"/></clipPath><path d="M257.3 383.9c0 12.4-11.7 22.6-25.9 22.6H69.1c-14.3 0-25.9-10.2-25.9-22.6s11.7-22.6 25.9-22.6h162.3c14.2.1 25.9 10.2 25.9 22.6" clip-path="url(#SVGID_00000042004519227078977660000013625948628537366972_)" fill="#349946"/><g><path class="st1" d="M85.2 377.2c.6 0 1.2.1 1.7.3.5.2 1 .5 1.3.9.4.4.7.8.8 1.3.2.5.3 1 .3 1.5 0 .8-.2 1.6-.5 2.2-.4.6-.9 1.1-1.7 1.4.4.1.7.3 1 .5.3.2.5.5.6.8.2.3.3.6.4 1 .1.4.1.7.2 1.1v.8c0 .3 0 .6.1.9 0 .3.1.6.2.9s.2.5.3.7h-3.2c-.2-.5-.3-1-.3-1.6 0-.6-.1-1.2-.2-1.8-.1-.8-.3-1.3-.7-1.7-.4-.3-.9-.5-1.7-.5h-3.2v5.6h-3.2v-14.4h7.8zm-1.1 6.5c.7 0 1.3-.2 1.6-.5.4-.3.5-.8.5-1.6 0-.7-.2-1.2-.5-1.5-.4-.3-.9-.5-1.6-.5h-3.5v4.1h3.5zM102.8 377.2v2.7h-7.6v3.1h7v2.5h-7v3.5h7.8v2.7H92v-14.4h10.8zM112.3 377.2l5.4 14.4h-3.3l-1.1-3.2h-5.4l-1.1 3.2h-3.2l5.4-14.4h3.3zm.2 8.8l-1.8-5.3-1.9 5.3h3.7zM125.1 377.2c.9 0 1.8.1 2.6.4.8.3 1.5.7 2.1 1.3.6.6 1 1.3 1.4 2.2.3.9.5 1.9.5 3.1 0 1-.1 2-.4 2.9-.3.9-.7 1.7-1.2 2.3s-1.2 1.2-2 1.5c-.8.4-1.8.6-2.9.6H119v-14.4h6.1zm-.2 11.8c.5 0 .9-.1 1.3-.2s.8-.4 1.1-.7.6-.8.8-1.3c.2-.6.3-1.2.3-2 0-.7-.1-1.4-.2-2-.1-.6-.4-1.1-.7-1.5s-.8-.7-1.3-1c-.5-.2-1.2-.3-2-.3h-2.3v9.1h3zM146.7 377.2l5.4 14.4h-3.3l-1.1-3.2h-5.4l-1.1 3.2H138l5.4-14.4h3.3zm.1 8.8l-1.8-5.3-1.9 5.3h3.7zM161.1 377.2c.6 0 1.2.1 1.7.3.5.2 1 .5 1.3.9.4.4.7.8.8 1.3.2.5.3 1 .3 1.5 0 .8-.2 1.6-.5 2.2-.4.6-.9 1.1-1.7 1.4.4.1.7.3 1 .5.3.2.5.5.6.8.2.3.3.6.4 1s.1.7.2 1.1v.8c0 .3 0 .6.1.9 0 .3.1.6.2.9.1.3.2.5.3.7h-3.2c-.2-.5-.3-1-.3-1.6 0-.6-.1-1.2-.2-1.8-.1-.8-.3-1.3-.7-1.7s-.9-.5-1.7-.5h-3.2v5.6h-3.2v-14.4h7.8zm-1.2 6.5c.7 0 1.3-.2 1.6-.5.4-.3.5-.8.5-1.6 0-.7-.2-1.2-.5-1.5-.4-.3-.9-.5-1.6-.5h-3.5v4.1h3.5z"/></g><g><path class="st1" d="M166.4 379.9v-2.7h11.8v2.7h-4.3v11.7h-3.2v-11.7h-4.3zM183 377.2v14.4h-3.2v-14.4h3.2zM195 381.1c-.2-.3-.4-.6-.7-.8-.3-.2-.6-.4-1-.5-.4-.1-.7-.2-1.1-.2-.7 0-1.3.1-1.8.4-.5.3-.9.6-1.2 1.1-.3.5-.5 1-.7 1.6-.1.6-.2 1.2-.2 1.8 0 .6.1 1.2.2 1.8.1.6.4 1.1.7 1.5.3.5.7.8 1.2 1.1.5.3 1.1.4 1.8.4 1 0 1.7-.3 2.3-.9.5-.6.9-1.4 1-2.3h3.1c-.1.9-.3 1.7-.6 2.4s-.8 1.3-1.3 1.9c-.6.5-1.2.9-1.9 1.2-.7.3-1.6.4-2.4.4-1.1 0-2.1-.2-3-.6-.9-.4-1.6-.9-2.2-1.6-.6-.7-1.1-1.5-1.4-2.4-.3-.9-.5-1.9-.5-2.9 0-1.1.2-2.1.5-3 .3-.9.8-1.7 1.4-2.4.6-.7 1.3-1.2 2.2-1.6s1.9-.6 3-.6c.8 0 1.5.1 2.2.3s1.3.6 1.9 1c.6.4 1 1 1.4 1.6.4.6.6 1.4.7 2.2h-3.1c-.2-.3-.3-.6-.5-.9zM203.9 377.2V389h7v2.7h-10.2v-14.4h3.2zM223.4 377.2v2.7h-7.6v3.1h7v2.5h-7v3.5h7.8v2.7h-10.9v-14.4h10.7z"/></g></svg>