<svg id="Layer_1" xmlns="http://www.w3.org/2000/svg" xmlns:xlink="http://www.w3.org/1999/xlink" viewBox="0 0 300 600"><style>.st0,.st1{clip-path:url(#SVGID_00000054985873450831395270000017667840302681883028_);fill:#231f20}.st1{fill:#22b0e6}</style><defs><path id="SVGID_1_" d="M106.2 464.3h88v29.9h-88z"/></defs><clipPath id="SVGID_00000072251123211460619830000013428117410062402966_"><use xlink:href="#SVGID_1_" overflow="visible"/></clipPath><path d="M106.8 480.4h4.7c3.7 0 4.5 2.4 4.5 4.1 0 1.6-.7 4-4.5 4h-2.4v5h-2.3v-13.1zm2.3 6.2h2.3c1 0 2.3-.5 2.3-2.2 0-1.7-1-2.2-2.3-2.2h-2.3v4.4zM117.4 484h2v1.8c.2-1 1.5-2.1 2.8-2.1.5 0 .6 0 .8.1v2c-.3 0-.6-.1-.9-.1-1.4 0-2.6 1.2-2.6 3.3v4.5h-2.1V484zM123.2 488.8c0-2.9 1.7-5 4.8-5 3.1 0 4.8 2.1 4.8 5s-1.7 5-4.8 5c-3 0-4.8-2.1-4.8-5m7.5 0c0-1.6-.8-3.3-2.7-3.3-1.9 0-2.7 1.7-2.7 3.3 0 1.7.8 3.4 2.7 3.4 1.9-.1 2.7-1.8 2.7-3.4M133.1 484h1.7v-2.8h2v2.8h1.9v1.6h-1.9v5.1c0 .9.1 1.3 1 1.3.3 0 .6 0 .9-.1v1.6c-.5 0-.9.1-1.4.1-2.2 0-2.6-.8-2.6-2.4v-5.6h-1.6V484zM141.7 489.3c0 1.5.8 2.8 2.6 2.8 1.2 0 1.9-.5 2.3-1.6h2c-.5 2.1-2.2 3.2-4.3 3.2-3 0-4.6-2.1-4.6-5 0-2.7 1.8-5 4.6-5 3 0 4.8 2.7 4.5 5.5h-7.1zm4.9-1.4c-.1-1.3-1-2.5-2.4-2.5-1.5 0-2.4 1.1-2.5 2.5h4.9zM156.6 487.2c-.2-1.2-1-1.8-2.2-1.8-1.1 0-2.6.6-2.6 3.5 0 1.6.7 3.3 2.5 3.3 1.2 0 2.1-.8 2.3-2.2h2.1c-.4 2.5-1.9 3.8-4.4 3.8-3 0-4.6-2.1-4.6-4.9 0-2.9 1.6-5.1 4.7-5.1 2.2 0 4.1 1.1 4.3 3.4h-2.1zM159.2 484h1.6v-2.8h2.1v2.8h1.9v1.6h-1.9v5.1c0 .9.1 1.3 1 1.3.3 0 .6 0 .9-.1v1.6c-.5 0-.9.1-1.4.1-2.2 0-2.6-.8-2.6-2.4v-5.6h-1.6V484zM167.2 480.4h2.1v2h-2.1v-2zm0 3.6h2.1v9.5h-2.1V484zM170.8 484h2.3l2.9 7.3h.1l2.8-7.3h2.2l-4 9.5h-2.3zM183.7 489.3c0 1.5.8 2.8 2.6 2.8 1.2 0 1.9-.5 2.3-1.6h2c-.5 2.1-2.2 3.2-4.3 3.2-3 0-4.6-2.1-4.6-5 0-2.7 1.8-5 4.6-5 3 0 4.8 2.7 4.5 5.5h-7.1zm4.9-1.4c-.1-1.3-1-2.5-2.4-2.5-1.5 0-2.4 1.1-2.5 2.5h4.9z" clip-path="url(#SVGID_00000072251123211460619830000013428117410062402966_)" fill="#231f20"/><path d="M163.2 478.2c-1.4-5.2-5.5-9.3-10.7-10.6-.5-1.6-2-2.8-3.7-2.8-1.8 0-3.3 1.2-3.7 2.8-5.2 1.3-9.3 5.4-10.7 10.6l-.2.6h3.2l.1-.3c1.2-3.8 4.2-6.7 8-7.8.7 1.2 1.9 1.9 3.4 1.9 1.4 0 2.7-.8 3.4-1.9 3.8 1.1 6.8 4 8 7.8l.1.3h3.2l-.4-.6z" clip-path="url(#SVGID_00000072251123211460619830000013428117410062402966_)" fill="#22b0e6"/><path d="M192.9 491.9c.5 0 .9.4.9.9s-.4.9-.9.9-.9-.4-.9-.9c-.1-.5.3-.9.9-.9m.7.9c0-.4-.3-.8-.8-.8-.4 0-.8.3-.8.8 0 .4.3.8.8.8s.8-.3.8-.8m-1.1-.5h.4c.2 0 .4.1.4.3 0 .2-.1.3-.3.3l.3.5h-.2l-.3-.5h-.2v.5h-.2v-1.1zm.3.5c.2 0 .3 0 .3-.2 0-.1-.1-.2-.2-.2h-.2v.3h.1z" clip-path="url(#SVGID_00000072251123211460619830000013428117410062402966_)" fill="#231f20"/></svg>