<?xml version="1.0" encoding="utf-8"?>
<!-- Generator: Adobe Illustrator 25.4.6, SVG Export Plug-In . SVG Version: 6.00 Build 0)  -->
<svg version="1.1" id="Layer_1" xmlns="http://www.w3.org/2000/svg" xmlns:xlink="http://www.w3.org/1999/xlink" x="0px" y="0px"
	 viewBox="0 0 300 600" style="enable-background:new 0 0 300 600;" xml:space="preserve">
<style type="text/css">
	.st0{fill:#339933;}
	.st1{fill:#373535;}
</style>
<g>
	<path class="st0" d="M54.5,143.5l8.2,22h-5l-1.7-4.9h-8.2l-1.7,4.9h-4.9l8.3-22H54.5z M54.8,157l-2.8-8.1H52l-2.9,8.1H54.8z"/>
	<path class="st0" d="M85.9,160.9c-0.1,0.9-0.5,1.7-1,2.4c-0.5,0.8-1.3,1.4-2.2,1.9s-2.3,0.8-3.9,0.8c-0.9,0-1.8-0.1-2.7-0.4
		c-0.9-0.3-1.6-0.7-2.3-1.2s-1.2-1.2-1.6-2.1c-0.4-0.9-0.6-1.9-0.6-3.1v-1.9h4.4v1c0,0.5,0,1,0.1,1.5c0.1,0.5,0.2,0.8,0.4,1.2
		c0.2,0.3,0.5,0.6,0.8,0.8c0.4,0.2,0.8,0.3,1.4,0.3c0.6,0,1.1-0.1,1.5-0.3c0.3-0.2,0.6-0.5,0.8-0.9c0.2-0.4,0.2-0.7,0.3-1.2
		c0-0.4,0-0.8,0-1.2v-14.8h4.8v15.1C86.1,159.2,86,160,85.9,160.9z"/>
	<path class="st0" d="M90.1,150c0.5-1.4,1.2-2.6,2.1-3.7c0.9-1,2.1-1.9,3.4-2.5c1.3-0.6,2.9-0.9,4.5-0.9c1.7,0,3.2,0.3,4.6,0.9
		c1.3,0.6,2.5,1.4,3.4,2.5c0.9,1,1.6,2.3,2.1,3.7c0.5,1.4,0.7,2.9,0.7,4.6c0,1.6-0.2,3.1-0.7,4.5c-0.5,1.4-1.2,2.6-2.1,3.6
		c-0.9,1-2.1,1.8-3.4,2.4c-1.3,0.6-2.9,0.9-4.6,0.9c-1.7,0-3.2-0.3-4.5-0.9c-1.3-0.6-2.5-1.4-3.4-2.4c-0.9-1-1.6-2.2-2.1-3.6
		c-0.5-1.4-0.7-2.9-0.7-4.5C89.4,152.9,89.6,151.4,90.1,150z M94.5,157.2c0.2,0.9,0.6,1.7,1,2.4c0.5,0.7,1.1,1.3,1.8,1.7
		s1.7,0.6,2.8,0.6s2-0.2,2.8-0.6c0.8-0.4,1.4-1,1.8-1.7c0.5-0.7,0.8-1.5,1-2.4c0.2-0.9,0.3-1.8,0.3-2.7c0-1-0.1-1.9-0.3-2.8
		c-0.2-0.9-0.6-1.7-1-2.4c-0.5-0.7-1.1-1.3-1.8-1.7c-0.8-0.4-1.7-0.6-2.8-0.6s-2,0.2-2.8,0.6c-0.8,0.4-1.4,1-1.8,1.7
		c-0.5,0.7-0.8,1.5-1,2.4c-0.2,0.9-0.3,1.8-0.3,2.8C94.2,155.5,94.3,156.4,94.5,157.2z"/>
	<path class="st0" d="M130.5,163.8c-1.7,1.4-4,2.2-6.9,2.2c-3,0-5.3-0.7-6.9-2.2c-1.6-1.4-2.4-3.7-2.4-6.7v-13.7h4.8v13.7
		c0,0.6,0.1,1.2,0.2,1.8c0.1,0.6,0.3,1.1,0.6,1.5c0.3,0.4,0.8,0.8,1.4,1.1c0.6,0.3,1.4,0.4,2.4,0.4c1.7,0,2.9-0.4,3.6-1.2
		c0.7-0.8,1-2,1-3.6v-13.7h4.8v13.7C133,160.1,132.1,162.3,130.5,163.8z"/>
	<path class="st0" d="M149,143.5c1,0,1.9,0.2,2.7,0.5c0.8,0.3,1.5,0.8,2,1.3c0.6,0.6,1,1.2,1.3,1.9c0.3,0.7,0.4,1.5,0.4,2.4
		c0,1.3-0.3,2.4-0.8,3.4c-0.5,0.9-1.4,1.7-2.7,2.2v0.1c0.6,0.2,1.1,0.4,1.5,0.8c0.4,0.3,0.7,0.7,1,1.2s0.4,1,0.5,1.5
		c0.1,0.6,0.2,1.1,0.2,1.7c0,0.3,0,0.8,0.1,1.2c0,0.5,0.1,1,0.1,1.4c0.1,0.5,0.1,1,0.2,1.4c0.1,0.4,0.3,0.8,0.5,1.1h-4.8
		c-0.3-0.7-0.4-1.5-0.5-2.5c-0.1-1-0.2-1.9-0.3-2.8c-0.2-1.1-0.5-2-1-2.5c-0.5-0.5-1.4-0.8-2.6-0.8H142v8.6h-4.8v-22H149z
		 M147.3,153.4c1.1,0,1.9-0.2,2.5-0.7c0.6-0.5,0.8-1.3,0.8-2.4c0-1.1-0.3-1.8-0.8-2.3s-1.4-0.7-2.5-0.7H142v6.2H147.3z"/>
	<path class="st0" d="M164.2,143.5l9.2,14.8h0.1v-14.8h4.5v22h-4.8l-9.1-14.7h-0.1v14.7h-4.5v-22H164.2z"/>
	<path class="st0" d="M198.6,143.5v4.1H187v4.7h10.7v3.8H187v5.4h11.9v4.1h-16.7v-22H198.6z"/>
	<path class="st0" d="M199.8,143.5h5.4l5.1,8.7l5.1-8.7h5.4l-8.2,13.6v8.4h-4.8v-8.6L199.8,143.5z"/>
	<path class="st0" d="M230.9,154c0.4-1,0.9-1.9,1.7-2.6c0.7-0.7,1.6-1.3,2.6-1.7s2.1-0.6,3.4-0.6c1.3,0,2.4,0.2,3.4,0.6
		c1,0.4,1.9,1,2.6,1.7c0.7,0.7,1.3,1.6,1.7,2.6c0.4,1,0.6,2.2,0.6,3.5c0,1.3-0.2,2.4-0.6,3.4c-0.4,1-0.9,1.9-1.7,2.6
		c-0.7,0.7-1.6,1.3-2.6,1.7c-1,0.4-2.2,0.6-3.4,0.6c-1.3,0-2.4-0.2-3.4-0.6c-1-0.4-1.9-0.9-2.6-1.7c-0.7-0.7-1.3-1.6-1.7-2.6
		c-0.4-1-0.6-2.2-0.6-3.4C230.3,156.2,230.5,155.1,230.9,154z M234.8,159.4c0.1,0.6,0.3,1.2,0.6,1.6c0.3,0.5,0.7,0.9,1.2,1.2
		s1.1,0.4,1.8,0.4c0.7,0,1.4-0.1,1.9-0.4c0.5-0.3,0.9-0.7,1.2-1.2c0.3-0.5,0.5-1,0.6-1.6c0.1-0.6,0.2-1.2,0.2-1.9
		c0-0.6-0.1-1.3-0.2-1.9s-0.3-1.2-0.6-1.6c-0.3-0.5-0.7-0.9-1.2-1.2c-0.5-0.3-1.1-0.4-1.9-0.4c-0.7,0-1.4,0.1-1.8,0.4
		c-0.5,0.3-0.9,0.7-1.2,1.2c-0.3,0.5-0.5,1-0.6,1.6s-0.2,1.2-0.2,1.9C234.7,158.1,234.7,158.8,234.8,159.4z"/>
	<path class="st0" d="M247.9,152.5v-2.9h2.6v-1.2c0-1.4,0.4-2.6,1.3-3.5c0.9-0.9,2.2-1.4,4-1.4c0.4,0,0.8,0,1.2,0
		c0.4,0,0.8,0.1,1.1,0.1v3.3c-0.5-0.1-1-0.1-1.6-0.1c-0.6,0-1,0.1-1.3,0.4c-0.3,0.3-0.4,0.7-0.4,1.4v1h3v2.9h-3v13h-4.4v-13H247.9z"
		/>
</g>
<g>
	<path class="st0" d="M50.6,186.3c0.1-1,0.3-1.9,0.8-2.6c0.5-0.7,1-1.2,1.7-1.6c0.7-0.4,1.5-0.7,2.4-0.9c0.9-0.2,1.8-0.3,2.6-0.3
		c0.8,0,1.6,0.1,2.4,0.2c0.8,0.1,1.6,0.3,2.2,0.7c0.7,0.3,1.2,0.8,1.7,1.4c0.4,0.6,0.6,1.4,0.6,2.3v8.3c0,0.7,0,1.4,0.1,2.1
		c0.1,0.7,0.2,1.2,0.4,1.5h-4.4c-0.1-0.2-0.1-0.5-0.2-0.8c-0.1-0.3-0.1-0.5-0.1-0.8c-0.7,0.7-1.5,1.2-2.5,1.5
		c-0.9,0.3-1.9,0.4-2.9,0.4c-0.8,0-1.5-0.1-2.1-0.3c-0.7-0.2-1.2-0.5-1.7-0.9c-0.5-0.4-0.9-0.9-1.2-1.5c-0.3-0.6-0.4-1.3-0.4-2.1
		c0-0.9,0.2-1.6,0.5-2.2c0.3-0.6,0.7-1.1,1.2-1.4c0.5-0.3,1.1-0.6,1.7-0.8c0.6-0.2,1.3-0.3,2-0.4c0.7-0.1,1.3-0.2,1.9-0.2
		c0.6-0.1,1.2-0.2,1.7-0.3c0.5-0.1,0.9-0.3,1.2-0.5c0.3-0.2,0.4-0.6,0.4-1c0-0.5-0.1-0.8-0.2-1.1c-0.2-0.3-0.4-0.5-0.6-0.6
		c-0.3-0.2-0.6-0.3-0.9-0.3c-0.3-0.1-0.7-0.1-1.1-0.1c-0.9,0-1.5,0.2-2,0.6s-0.8,1-0.9,1.8H50.6z M60.7,189.6
		c-0.2,0.2-0.4,0.3-0.7,0.4c-0.3,0.1-0.6,0.2-0.9,0.2c-0.3,0.1-0.7,0.1-1,0.2c-0.3,0-0.7,0.1-1,0.2c-0.3,0.1-0.7,0.1-1,0.2
		c-0.3,0.1-0.6,0.2-0.8,0.4c-0.2,0.2-0.4,0.4-0.6,0.7c-0.1,0.3-0.2,0.6-0.2,1c0,0.4,0.1,0.7,0.2,1c0.1,0.3,0.3,0.5,0.6,0.6
		c0.2,0.2,0.5,0.3,0.9,0.3c0.3,0.1,0.7,0.1,1,0.1c0.9,0,1.5-0.1,2-0.4c0.5-0.3,0.8-0.6,1-1c0.2-0.4,0.4-0.8,0.4-1.2
		c0.1-0.4,0.1-0.7,0.1-1V189.6z"/>
	<path class="st0" d="M75.7,179.4v-4.1h18v4.1h-6.6v17.9h-4.8v-17.9H75.7z"/>
	<path class="st0" d="M101.1,175.4v8.4h8.9v-8.4h4.8v22H110v-9.5h-8.9v9.5h-4.8v-22H101.1z"/>
	<path class="st0" d="M118.9,181.9c0.5-1.4,1.2-2.6,2.1-3.7c0.9-1,2.1-1.9,3.4-2.5c1.3-0.6,2.9-0.9,4.5-0.9c1.7,0,3.2,0.3,4.6,0.9
		c1.3,0.6,2.5,1.4,3.4,2.5c0.9,1,1.6,2.3,2.1,3.7c0.5,1.4,0.7,2.9,0.7,4.6c0,1.6-0.2,3.1-0.7,4.5c-0.5,1.4-1.2,2.6-2.1,3.6
		c-0.9,1-2.1,1.8-3.4,2.4c-1.3,0.6-2.9,0.9-4.6,0.9c-1.7,0-3.2-0.3-4.5-0.9c-1.3-0.6-2.5-1.4-3.4-2.4c-0.9-1-1.6-2.2-2.1-3.6
		c-0.5-1.4-0.7-2.9-0.7-4.5C118.2,184.8,118.4,183.3,118.9,181.9z M123.3,189.1c0.2,0.9,0.6,1.7,1,2.4c0.5,0.7,1.1,1.3,1.8,1.7
		s1.7,0.6,2.8,0.6s2-0.2,2.8-0.6c0.8-0.4,1.4-1,1.8-1.7c0.5-0.7,0.8-1.5,1-2.4c0.2-0.9,0.3-1.8,0.3-2.7c0-1-0.1-1.9-0.3-2.8
		c-0.2-0.9-0.6-1.7-1-2.4c-0.5-0.7-1.1-1.3-1.8-1.7c-0.8-0.4-1.7-0.6-2.8-0.6s-2,0.2-2.8,0.6c-0.8,0.4-1.4,1-1.8,1.7
		c-0.5,0.7-0.8,1.5-1,2.4c-0.2,0.9-0.3,1.8-0.3,2.8C123,187.4,123.1,188.3,123.3,189.1z"/>
	<path class="st0" d="M159.2,195.7c-1.7,1.4-4,2.2-6.9,2.2c-3,0-5.3-0.7-6.9-2.2c-1.6-1.4-2.4-3.7-2.4-6.7v-13.7h4.8V189
		c0,0.6,0.1,1.2,0.2,1.8c0.1,0.6,0.3,1.1,0.6,1.5s0.8,0.8,1.4,1.1c0.6,0.3,1.4,0.4,2.4,0.4c1.7,0,2.9-0.4,3.6-1.2s1-2,1-3.6v-13.7
		h4.8V189C161.7,192,160.9,194.2,159.2,195.7z"/>
	<path class="st0" d="M169.6,191.9c0.3,0.5,0.6,0.9,1.1,1.2s1,0.6,1.6,0.7c0.6,0.2,1.2,0.2,1.8,0.2c0.4,0,0.9,0,1.4-0.1
		c0.5-0.1,1-0.2,1.4-0.4c0.4-0.2,0.8-0.5,1.1-0.8c0.3-0.4,0.4-0.8,0.4-1.4c0-0.6-0.2-1.1-0.6-1.4c-0.4-0.4-0.9-0.7-1.5-0.9
		c-0.6-0.2-1.3-0.5-2.1-0.6c-0.8-0.2-1.6-0.4-2.4-0.6c-0.8-0.2-1.6-0.5-2.4-0.8c-0.8-0.3-1.5-0.7-2.1-1.2c-0.6-0.5-1.1-1.1-1.5-1.8
		c-0.4-0.7-0.6-1.6-0.6-2.6c0-1.1,0.2-2.1,0.7-2.9s1.1-1.5,1.9-2.1c0.8-0.6,1.7-1,2.6-1.2c1-0.3,2-0.4,3-0.4c1.1,0,2.3,0.1,3.3,0.4
		c1.1,0.3,2,0.7,2.8,1.2c0.8,0.6,1.5,1.3,2,2.2s0.7,2,0.7,3.2h-4.7c0-0.7-0.2-1.2-0.4-1.6c-0.2-0.4-0.5-0.8-0.9-1
		c-0.4-0.2-0.8-0.4-1.3-0.5c-0.5-0.1-1.1-0.2-1.6-0.2c-0.4,0-0.8,0-1.2,0.1c-0.4,0.1-0.7,0.2-1.1,0.4c-0.3,0.2-0.6,0.5-0.8,0.8
		c-0.2,0.3-0.3,0.7-0.3,1.2c0,0.4,0.1,0.8,0.2,1c0.2,0.3,0.5,0.5,1,0.7c0.5,0.2,1.1,0.5,2,0.7c0.9,0.2,2,0.5,3.3,0.9
		c0.4,0.1,1,0.2,1.7,0.4c0.7,0.2,1.5,0.6,2.2,1c0.7,0.5,1.3,1.1,1.9,1.9c0.5,0.8,0.8,1.8,0.8,3c0,1-0.2,1.9-0.6,2.8
		c-0.4,0.9-1,1.6-1.7,2.2c-0.8,0.6-1.7,1.1-2.9,1.5c-1.1,0.3-2.5,0.5-4,0.5c-1.2,0-2.4-0.1-3.5-0.4s-2.1-0.8-3-1.4
		c-0.9-0.6-1.6-1.4-2.1-2.4c-0.5-1-0.8-2.2-0.7-3.5h4.7C169.2,190.8,169.3,191.4,169.6,191.9z"/>
	<path class="st0" d="M196.9,175.4l8.2,22h-5l-1.7-4.9h-8.2l-1.7,4.9h-4.9l8.3-22H196.9z M197.1,188.9l-2.8-8.1h-0.1l-2.9,8.1H197.1
		z"/>
	<path class="st0" d="M211.8,175.4l9.2,14.8h0.1v-14.8h4.5v22h-4.8l-9.1-14.7h-0.1v14.7H207v-22H211.8z"/>
	<path class="st0" d="M239.3,175.4c1.4,0,2.7,0.2,4,0.7s2.3,1.1,3.2,2c0.9,0.9,1.6,2,2.1,3.4c0.5,1.4,0.8,2.9,0.8,4.8
		c0,1.6-0.2,3.1-0.6,4.4s-1,2.5-1.9,3.5c-0.8,1-1.9,1.8-3.1,2.3c-1.2,0.6-2.7,0.8-4.4,0.8h-9.5v-22H239.3z M239,193.3
		c0.7,0,1.4-0.1,2-0.3c0.7-0.2,1.2-0.6,1.8-1.1c0.5-0.5,0.9-1.2,1.2-2c0.3-0.8,0.5-1.9,0.5-3.1c0-1.1-0.1-2.1-0.3-3
		c-0.2-0.9-0.6-1.7-1.1-2.3c-0.5-0.6-1.1-1.1-2-1.5s-1.8-0.5-3-0.5h-3.4v13.9H239z"/>
</g>
<g>
	<path class="st0" d="M98,223.8c0.3,0.5,0.6,0.9,1.1,1.2c0.4,0.3,1,0.6,1.6,0.7c0.6,0.2,1.2,0.2,1.8,0.2c0.4,0,0.9,0,1.4-0.1
		c0.5-0.1,1-0.2,1.4-0.4c0.4-0.2,0.8-0.5,1.1-0.8c0.3-0.4,0.4-0.8,0.4-1.4c0-0.6-0.2-1.1-0.6-1.4s-0.9-0.7-1.5-0.9
		c-0.6-0.2-1.3-0.5-2.1-0.6c-0.8-0.2-1.6-0.4-2.4-0.6c-0.8-0.2-1.6-0.5-2.4-0.8c-0.8-0.3-1.5-0.7-2.1-1.2c-0.6-0.5-1.1-1.1-1.5-1.8
		c-0.4-0.7-0.6-1.6-0.6-2.6c0-1.1,0.2-2.1,0.7-2.9s1.1-1.5,1.9-2.1c0.8-0.6,1.7-1,2.6-1.2c1-0.3,2-0.4,3-0.4c1.1,0,2.3,0.1,3.3,0.4
		c1.1,0.3,2,0.7,2.8,1.2c0.8,0.6,1.5,1.3,2,2.2c0.5,0.9,0.7,2,0.7,3.2H106c0-0.7-0.2-1.2-0.4-1.6c-0.2-0.4-0.5-0.8-0.9-1
		c-0.4-0.2-0.8-0.4-1.3-0.5c-0.5-0.1-1.1-0.2-1.6-0.2c-0.4,0-0.8,0-1.2,0.1s-0.7,0.2-1.1,0.4c-0.3,0.2-0.6,0.5-0.8,0.8
		c-0.2,0.3-0.3,0.7-0.3,1.2c0,0.4,0.1,0.8,0.2,1c0.2,0.3,0.5,0.5,1,0.7c0.5,0.2,1.1,0.5,2,0.7c0.9,0.2,2,0.5,3.3,0.9
		c0.4,0.1,1,0.2,1.7,0.4c0.7,0.2,1.5,0.6,2.2,1c0.7,0.5,1.3,1.1,1.9,1.9c0.5,0.8,0.8,1.8,0.8,3c0,1-0.2,1.9-0.6,2.8
		c-0.4,0.9-1,1.6-1.7,2.2s-1.7,1.1-2.9,1.5c-1.1,0.3-2.5,0.5-4,0.5c-1.2,0-2.4-0.1-3.5-0.4s-2.1-0.8-3-1.4c-0.9-0.6-1.6-1.4-2.1-2.4
		c-0.5-1-0.8-2.2-0.7-3.5h4.7C97.6,222.7,97.8,223.3,98,223.8z"/>
	<path class="st0" d="M121.1,207.3l5.1,15.1h0.1l4.9-15.1h6.8v22h-4.5v-15.6h-0.1l-5.4,15.6h-3.7l-5.4-15.4h-0.1v15.4h-4.5v-22
		H121.1z"/>
	<path class="st0" d="M147.1,207.3v22h-4.8v-22H147.1z"/>
	<path class="st0" d="M156.2,207.3v17.9h10.7v4.1h-15.6v-22H156.2z"/>
	<path class="st0" d="M186,207.3v4.1h-11.6v4.7h10.7v3.8h-10.7v5.4h11.9v4.1h-16.7v-22H186z"/>
	<path class="st0" d="M193.3,223.8c0.3,0.5,0.6,0.9,1.1,1.2s1,0.6,1.6,0.7c0.6,0.2,1.2,0.2,1.8,0.2c0.4,0,0.9,0,1.4-0.1
		c0.5-0.1,1-0.2,1.4-0.4c0.4-0.2,0.8-0.5,1.1-0.8c0.3-0.4,0.4-0.8,0.4-1.4c0-0.6-0.2-1.1-0.6-1.4c-0.4-0.4-0.9-0.7-1.5-0.9
		c-0.6-0.2-1.3-0.5-2.1-0.6c-0.8-0.2-1.6-0.4-2.4-0.6c-0.8-0.2-1.6-0.5-2.4-0.8c-0.8-0.3-1.5-0.7-2.1-1.2c-0.6-0.5-1.1-1.1-1.5-1.8
		c-0.4-0.7-0.6-1.6-0.6-2.6c0-1.1,0.2-2.1,0.7-2.9s1.1-1.5,1.9-2.1c0.8-0.6,1.7-1,2.6-1.2c1-0.3,2-0.4,3-0.4c1.1,0,2.3,0.1,3.3,0.4
		c1.1,0.3,2,0.7,2.8,1.2c0.8,0.6,1.5,1.3,2,2.2s0.7,2,0.7,3.2h-4.7c0-0.7-0.2-1.2-0.4-1.6c-0.2-0.4-0.5-0.8-0.9-1
		c-0.4-0.2-0.8-0.4-1.3-0.5c-0.5-0.1-1.1-0.2-1.6-0.2c-0.4,0-0.8,0-1.2,0.1c-0.4,0.1-0.7,0.2-1.1,0.4c-0.3,0.2-0.6,0.5-0.8,0.8
		c-0.2,0.3-0.3,0.7-0.3,1.2c0,0.4,0.1,0.8,0.2,1c0.2,0.3,0.5,0.5,1,0.7c0.5,0.2,1.1,0.5,2,0.7c0.9,0.2,2,0.5,3.3,0.9
		c0.4,0.1,1,0.2,1.7,0.4c0.7,0.2,1.5,0.6,2.2,1c0.7,0.5,1.3,1.1,1.9,1.9c0.5,0.8,0.8,1.8,0.8,3c0,1-0.2,1.9-0.6,2.8
		c-0.4,0.9-1,1.6-1.7,2.2c-0.8,0.6-1.7,1.1-2.9,1.5c-1.1,0.3-2.5,0.5-4,0.5c-1.2,0-2.4-0.1-3.5-0.4s-2.1-0.8-3-1.4
		c-0.9-0.6-1.6-1.4-2.1-2.4c-0.5-1-0.8-2.2-0.7-3.5h4.7C192.9,222.7,193,223.3,193.3,223.8z"/>
</g>
<g>
	<path class="st1" d="M58.3,239.8v8h0.1c0.5-0.8,1.3-1.4,2.2-1.8c0.9-0.4,1.9-0.6,2.8-0.6c0.8,0,1.6,0.2,2.4,0.5s1.5,0.8,2.1,1.5
		c0.6,0.7,1.1,1.5,1.5,2.6c0.4,1.1,0.6,2.3,0.6,3.8s-0.2,2.7-0.6,3.8c-0.4,1.1-0.9,1.9-1.5,2.6c-0.6,0.7-1.3,1.2-2.1,1.5
		s-1.6,0.5-2.4,0.5c-1.2,0-2.2-0.2-3.1-0.6c-0.9-0.4-1.6-1-2.1-1.9h-0.1v2H54v-22H58.3z M65.4,251.9c-0.1-0.6-0.4-1.2-0.7-1.6
		c-0.3-0.5-0.7-0.8-1.2-1.1c-0.5-0.3-1-0.4-1.7-0.4c-0.6,0-1.2,0.1-1.7,0.4c-0.5,0.3-0.9,0.7-1.2,1.1c-0.3,0.5-0.5,1-0.7,1.6
		c-0.1,0.6-0.2,1.3-0.2,1.9c0,0.7,0.1,1.3,0.2,1.9c0.1,0.6,0.4,1.2,0.7,1.6c0.3,0.5,0.7,0.8,1.2,1.1c0.5,0.3,1,0.4,1.7,0.4
		c0.7,0,1.2-0.1,1.7-0.4s0.8-0.7,1.2-1.1c0.3-0.5,0.5-1,0.7-1.6c0.1-0.6,0.2-1.3,0.2-1.9C65.6,253.1,65.6,252.5,65.4,251.9z"/>
	<path class="st1" d="M77.5,257.9c0.7,0.6,1.6,1,2.8,1c0.9,0,1.6-0.2,2.3-0.7c0.6-0.4,1-0.9,1.2-1.4h3.9c-0.6,1.9-1.6,3.3-2.8,4.1
		c-1.3,0.8-2.8,1.2-4.6,1.2c-1.3,0-2.4-0.2-3.4-0.6c-1-0.4-1.9-1-2.6-1.7c-0.7-0.7-1.2-1.6-1.6-2.6c-0.4-1-0.6-2.2-0.6-3.4
		c0-1.2,0.2-2.3,0.6-3.3c0.4-1,0.9-1.9,1.7-2.7c0.7-0.7,1.6-1.3,2.6-1.8c1-0.4,2.1-0.6,3.3-0.6c1.4,0,2.5,0.3,3.5,0.8
		c1,0.5,1.8,1.2,2.5,2.1c0.6,0.9,1.1,1.9,1.4,3c0.3,1.1,0.4,2.3,0.3,3.5H76.4C76.5,256.3,76.8,257.3,77.5,257.9z M82.4,249.6
		c-0.5-0.6-1.3-0.9-2.4-0.9c-0.7,0-1.3,0.1-1.7,0.4c-0.5,0.2-0.8,0.5-1.1,0.9s-0.5,0.7-0.6,1.1s-0.2,0.7-0.2,1h7.1
		C83.3,251,82.9,250.1,82.4,249.6z"/>
	<path class="st1" d="M105.5,262.9c-0.2,0.8-0.5,1.6-1.1,2.3c-0.6,0.7-1.4,1.3-2.5,1.8c-1.1,0.5-2.5,0.7-4.4,0.7
		c-0.8,0-1.6-0.1-2.4-0.3c-0.8-0.2-1.6-0.5-2.2-0.9c-0.7-0.4-1.2-0.9-1.7-1.6c-0.4-0.6-0.7-1.4-0.8-2.3h4.3c0.2,0.8,0.6,1.4,1.2,1.7
		s1.3,0.5,2.1,0.5c1.2,0,2.1-0.4,2.7-1.1c0.6-0.7,0.8-1.7,0.8-2.8v-2.1h-0.1c-0.5,0.8-1.1,1.5-2,1.9c-0.9,0.4-1.8,0.6-2.8,0.6
		c-1.2,0-2.2-0.2-3.1-0.6c-0.9-0.4-1.6-1-2.1-1.7c-0.6-0.7-1-1.6-1.2-2.6c-0.3-1-0.4-2-0.4-3.1c0-1,0.1-2,0.4-3
		c0.3-1,0.7-1.8,1.3-2.5c0.6-0.7,1.3-1.3,2.1-1.7s1.8-0.6,2.9-0.6c1,0,2,0.2,2.8,0.6c0.8,0.4,1.5,1,2,2h0.1v-2.1h4.2v14.9
		C105.8,261.4,105.7,262.1,105.5,262.9z M99.5,257.6c0.5-0.2,0.9-0.6,1.2-1c0.3-0.4,0.5-0.9,0.7-1.4c0.2-0.5,0.2-1.1,0.2-1.6
		c0-0.7-0.1-1.3-0.2-1.9c-0.1-0.6-0.3-1.1-0.6-1.6c-0.3-0.5-0.7-0.8-1.1-1.1c-0.5-0.3-1.1-0.4-1.8-0.4c-0.6,0-1.1,0.1-1.6,0.4
		c-0.4,0.2-0.8,0.6-1.1,1c-0.3,0.4-0.5,0.9-0.6,1.4c-0.1,0.5-0.2,1.1-0.2,1.7c0,0.6,0.1,1.1,0.2,1.7c0.1,0.6,0.3,1.1,0.6,1.5
		c0.3,0.5,0.6,0.8,1.1,1.1c0.5,0.3,1,0.4,1.7,0.4C98.5,258,99.1,257.9,99.5,257.6z"/>
	<path class="st1" d="M109.4,243.4v-3.6h4.4v3.6H109.4z M113.8,245.8v15.9h-4.4v-15.9H113.8z"/>
	<path class="st1" d="M121.4,245.8v2.2h0.1c0.6-0.9,1.3-1.6,2.2-2c0.9-0.4,1.8-0.6,2.7-0.6c1.2,0,2.1,0.2,2.9,0.5
		c0.7,0.3,1.3,0.8,1.8,1.3c0.4,0.6,0.7,1.3,0.9,2.1c0.2,0.8,0.3,1.7,0.3,2.7v9.8h-4.4v-9c0-1.3-0.2-2.3-0.6-2.9
		c-0.4-0.6-1.1-1-2.2-1c-1.2,0-2.1,0.4-2.6,1.1c-0.5,0.7-0.8,1.9-0.8,3.5v8.3h-4.4v-15.9H121.4z"/>
	<path class="st1" d="M139.2,257.8c0.2,0.3,0.4,0.6,0.8,0.8c0.3,0.2,0.7,0.4,1.1,0.5c0.4,0.1,0.8,0.2,1.2,0.2c0.3,0,0.6,0,1-0.1
		c0.3-0.1,0.6-0.2,0.9-0.3s0.5-0.4,0.7-0.6c0.2-0.3,0.3-0.6,0.3-1c0-0.7-0.4-1.1-1.3-1.5c-0.9-0.3-2.1-0.7-3.6-1
		c-0.6-0.1-1.3-0.3-1.9-0.5c-0.6-0.2-1.1-0.5-1.6-0.8c-0.5-0.3-0.9-0.7-1.1-1.2c-0.3-0.5-0.4-1.1-0.4-1.8c0-1,0.2-1.9,0.6-2.5
		c0.4-0.7,0.9-1.2,1.6-1.6c0.7-0.4,1.4-0.6,2.2-0.8c0.8-0.2,1.7-0.2,2.5-0.2c0.9,0,1.7,0.1,2.5,0.2c0.8,0.2,1.5,0.4,2.2,0.8
		c0.6,0.4,1.2,0.9,1.6,1.6c0.4,0.6,0.7,1.5,0.8,2.4h-4.2c-0.1-0.8-0.4-1.4-1-1.7c-0.6-0.3-1.3-0.4-2-0.4c-0.2,0-0.5,0-0.8,0
		c-0.3,0-0.5,0.1-0.8,0.2c-0.2,0.1-0.4,0.3-0.6,0.4c-0.2,0.2-0.2,0.5-0.2,0.8c0,0.4,0.1,0.7,0.4,1s0.7,0.4,1.1,0.6
		c0.5,0.2,1,0.3,1.6,0.4c0.6,0.1,1.2,0.3,1.8,0.4c0.6,0.1,1.3,0.3,1.9,0.5c0.6,0.2,1.1,0.5,1.6,0.8c0.5,0.3,0.9,0.8,1.1,1.3
		c0.3,0.5,0.4,1.1,0.4,1.9c0,1-0.2,1.9-0.6,2.6c-0.4,0.7-1,1.3-1.6,1.7s-1.5,0.7-2.3,0.9s-1.8,0.3-2.7,0.3c-0.9,0-1.8-0.1-2.7-0.3
		c-0.9-0.2-1.7-0.5-2.4-0.9c-0.7-0.4-1.3-1-1.7-1.7c-0.4-0.7-0.7-1.6-0.7-2.7h4.2C138.9,257.1,139,257.5,139.2,257.8z"/>
	<path class="st1" d="M174.3,261.8l-2.8-10.7h-0.1l-2.7,10.7h-4.5l-5.1-15.9h4.6l2.9,10.8h0.1l2.6-10.8h4.2l2.7,10.8h0.1l2.9-10.8
		h4.5l-5,15.9H174.3z"/>
	<path class="st1" d="M185.8,243.4v-3.6h4.4v3.6H185.8z M190.2,245.8v15.9h-4.4v-15.9H190.2z"/>
	<path class="st1" d="M202.4,245.8v2.9h-3.2v7.9c0,0.7,0.1,1.2,0.4,1.5c0.2,0.2,0.7,0.4,1.5,0.4c0.2,0,0.5,0,0.7,0
		c0.2,0,0.4-0.1,0.6-0.1v3.4c-0.4,0.1-0.8,0.1-1.2,0.1c-0.5,0-0.9,0-1.3,0c-0.7,0-1.3,0-1.9-0.1c-0.6-0.1-1.1-0.3-1.6-0.5
		c-0.5-0.3-0.8-0.6-1.1-1.1c-0.3-0.5-0.4-1.1-0.4-1.9v-9.4h-2.6v-2.9h2.6v-4.8h4.4v4.8H202.4z"/>
	<path class="st1" d="M208.8,239.8v8.3h0.1c0.6-0.9,1.3-1.6,2.1-2c0.9-0.4,1.7-0.6,2.5-0.6c1.2,0,2.1,0.2,2.9,0.5
		c0.7,0.3,1.3,0.8,1.8,1.3c0.4,0.6,0.7,1.3,0.9,2.1c0.2,0.8,0.3,1.7,0.3,2.7v9.8H215v-9c0-1.3-0.2-2.3-0.6-2.9s-1.1-1-2.2-1
		c-1.2,0-2.1,0.4-2.6,1.1c-0.5,0.7-0.8,1.9-0.8,3.5v8.3h-4.4v-22H208.8z"/>
	<path class="st1" d="M231.1,250.7c0.1-1,0.3-1.9,0.8-2.6c0.5-0.7,1-1.2,1.7-1.6c0.7-0.4,1.5-0.7,2.4-0.9s1.8-0.3,2.6-0.3
		c0.8,0,1.6,0.1,2.4,0.2c0.8,0.1,1.6,0.3,2.2,0.7c0.7,0.3,1.2,0.8,1.7,1.4c0.4,0.6,0.6,1.4,0.6,2.3v8.3c0,0.7,0,1.4,0.1,2.1
		c0.1,0.7,0.2,1.2,0.4,1.5h-4.4c-0.1-0.2-0.1-0.5-0.2-0.8c-0.1-0.3-0.1-0.5-0.1-0.8c-0.7,0.7-1.5,1.2-2.5,1.5
		c-0.9,0.3-1.9,0.4-2.9,0.4c-0.8,0-1.5-0.1-2.1-0.3c-0.7-0.2-1.2-0.5-1.7-0.9c-0.5-0.4-0.9-0.9-1.2-1.5c-0.3-0.6-0.4-1.3-0.4-2.1
		c0-0.9,0.2-1.6,0.5-2.2c0.3-0.6,0.7-1.1,1.2-1.4c0.5-0.3,1.1-0.6,1.7-0.8c0.6-0.2,1.3-0.3,2-0.4c0.7-0.1,1.3-0.2,1.9-0.2
		c0.6-0.1,1.2-0.2,1.7-0.3c0.5-0.1,0.9-0.3,1.2-0.5c0.3-0.2,0.4-0.6,0.4-1c0-0.5-0.1-0.8-0.2-1.1s-0.4-0.5-0.6-0.6
		c-0.3-0.2-0.6-0.3-0.9-0.3s-0.7-0.1-1.1-0.1c-0.9,0-1.5,0.2-2,0.6c-0.5,0.4-0.8,1-0.9,1.8H231.1z M241.2,254
		c-0.2,0.2-0.4,0.3-0.7,0.4c-0.3,0.1-0.6,0.2-0.9,0.2s-0.7,0.1-1,0.2c-0.3,0-0.7,0.1-1,0.2c-0.3,0.1-0.7,0.1-1,0.2
		c-0.3,0.1-0.6,0.2-0.8,0.4s-0.4,0.4-0.6,0.7c-0.1,0.3-0.2,0.6-0.2,1c0,0.4,0.1,0.7,0.2,1c0.1,0.3,0.3,0.5,0.6,0.6s0.5,0.3,0.9,0.3
		c0.3,0.1,0.7,0.1,1,0.1c0.9,0,1.5-0.1,2-0.4c0.5-0.3,0.8-0.6,1-1c0.2-0.4,0.4-0.8,0.4-1.2c0.1-0.4,0.1-0.7,0.1-1V254z"/>
</g>
<g>
	<path class="st1" d="M67.6,290.3c0.2,0.3,0.4,0.6,0.8,0.8c0.3,0.2,0.7,0.4,1.1,0.5c0.4,0.1,0.8,0.2,1.2,0.2c0.3,0,0.6,0,1-0.1
		c0.3-0.1,0.6-0.2,0.9-0.3c0.3-0.2,0.5-0.4,0.7-0.6c0.2-0.3,0.3-0.6,0.3-1c0-0.7-0.4-1.1-1.3-1.5c-0.9-0.3-2.1-0.7-3.6-1
		c-0.6-0.1-1.3-0.3-1.9-0.5c-0.6-0.2-1.1-0.5-1.6-0.8c-0.5-0.3-0.9-0.7-1.1-1.2c-0.3-0.5-0.4-1.1-0.4-1.8c0-1,0.2-1.9,0.6-2.5
		c0.4-0.7,0.9-1.2,1.6-1.6c0.7-0.4,1.4-0.6,2.2-0.8c0.8-0.2,1.7-0.2,2.5-0.2s1.7,0.1,2.5,0.2c0.8,0.2,1.5,0.4,2.2,0.8
		c0.6,0.4,1.2,0.9,1.6,1.6c0.4,0.6,0.7,1.5,0.8,2.4h-4.2c-0.1-0.8-0.4-1.4-1-1.7c-0.6-0.3-1.3-0.4-2-0.4c-0.2,0-0.5,0-0.8,0
		c-0.3,0-0.5,0.1-0.8,0.2c-0.2,0.1-0.4,0.3-0.6,0.4c-0.2,0.2-0.2,0.5-0.2,0.8c0,0.4,0.1,0.7,0.4,1s0.7,0.4,1.1,0.6s1,0.3,1.6,0.4
		c0.6,0.1,1.2,0.3,1.8,0.4c0.6,0.1,1.3,0.3,1.9,0.5c0.6,0.2,1.1,0.5,1.6,0.8c0.5,0.3,0.9,0.8,1.1,1.3c0.3,0.5,0.4,1.1,0.4,1.9
		c0,1-0.2,1.9-0.6,2.6c-0.4,0.7-1,1.3-1.6,1.7s-1.5,0.7-2.3,0.9c-0.9,0.2-1.8,0.3-2.7,0.3c-0.9,0-1.8-0.1-2.7-0.3
		c-0.9-0.2-1.7-0.5-2.4-0.9c-0.7-0.4-1.3-1-1.7-1.7c-0.4-0.7-0.7-1.6-0.7-2.7h4.2C67.3,289.5,67.4,290,67.6,290.3z"/>
	<path class="st1" d="M80.6,275.9v-3.6H85v3.6H80.6z M85,278.3v15.9h-4.4v-15.9H85z"/>
	<path class="st1" d="M92.6,278.3v2.2h0.1c0.6-0.9,1.3-1.6,2.2-2c0.9-0.4,1.8-0.6,2.7-0.6c1.2,0,2.1,0.2,2.9,0.5
		c0.7,0.3,1.3,0.8,1.8,1.3c0.4,0.6,0.7,1.3,0.9,2.1c0.2,0.8,0.3,1.7,0.3,2.7v9.8H99v-9c0-1.3-0.2-2.3-0.6-2.9c-0.4-0.6-1.1-1-2.2-1
		c-1.2,0-2.1,0.4-2.6,1.1c-0.5,0.7-0.8,1.9-0.8,3.5v8.3h-4.4v-15.9H92.6z"/>
	<path class="st1" d="M121.7,295.4c-0.2,0.8-0.5,1.6-1.1,2.3c-0.6,0.7-1.4,1.3-2.5,1.8c-1.1,0.5-2.5,0.7-4.4,0.7
		c-0.8,0-1.6-0.1-2.4-0.3c-0.8-0.2-1.6-0.5-2.2-0.9c-0.7-0.4-1.2-0.9-1.7-1.6c-0.4-0.6-0.7-1.4-0.8-2.3h4.3c0.2,0.8,0.6,1.4,1.2,1.7
		s1.3,0.5,2.1,0.5c1.2,0,2.1-0.4,2.7-1.1c0.6-0.7,0.8-1.7,0.8-2.8v-2.1h-0.1c-0.5,0.8-1.1,1.5-2,1.9c-0.9,0.4-1.8,0.6-2.8,0.6
		c-1.2,0-2.2-0.2-3.1-0.6c-0.9-0.4-1.6-1-2.1-1.7c-0.6-0.7-1-1.6-1.2-2.6c-0.3-1-0.4-2-0.4-3.1c0-1,0.1-2,0.4-3
		c0.3-1,0.7-1.8,1.3-2.5c0.6-0.7,1.3-1.3,2.1-1.7s1.8-0.6,2.9-0.6c1,0,2,0.2,2.8,0.6c0.8,0.4,1.5,1,2,2h0.1v-2.1h4.2v14.9
		C122,293.9,121.9,294.6,121.7,295.4z M115.7,290.1c0.5-0.2,0.9-0.6,1.2-1c0.3-0.4,0.5-0.9,0.7-1.4c0.2-0.5,0.2-1.1,0.2-1.6
		c0-0.7-0.1-1.3-0.2-1.9c-0.1-0.6-0.3-1.1-0.6-1.6c-0.3-0.5-0.7-0.8-1.1-1.1c-0.5-0.3-1.1-0.4-1.8-0.4c-0.6,0-1.1,0.1-1.6,0.4
		c-0.4,0.2-0.8,0.6-1.1,1c-0.3,0.4-0.5,0.9-0.6,1.4c-0.1,0.5-0.2,1.1-0.2,1.7c0,0.6,0.1,1.1,0.2,1.7c0.1,0.6,0.3,1.1,0.6,1.5
		c0.3,0.5,0.6,0.8,1.1,1.1c0.5,0.3,1,0.4,1.7,0.4C114.7,290.5,115.3,290.4,115.7,290.1z"/>
	<path class="st1" d="M130,272.3v22h-4.4v-22H130z"/>
	<path class="st1" d="M138.1,290.4c0.7,0.6,1.6,1,2.8,1c0.9,0,1.6-0.2,2.3-0.7c0.6-0.4,1-0.9,1.2-1.4h3.8c-0.6,1.9-1.6,3.3-2.8,4.1
		c-1.3,0.8-2.8,1.2-4.6,1.2c-1.3,0-2.4-0.2-3.4-0.6c-1-0.4-1.9-1-2.6-1.7c-0.7-0.7-1.2-1.6-1.6-2.6c-0.4-1-0.6-2.2-0.6-3.4
		c0-1.2,0.2-2.3,0.6-3.3c0.4-1,0.9-1.9,1.7-2.7c0.7-0.7,1.6-1.3,2.6-1.8c1-0.4,2.1-0.6,3.3-0.6c1.4,0,2.5,0.3,3.5,0.8
		s1.8,1.2,2.5,2.1s1.1,1.9,1.4,3c0.3,1.1,0.4,2.3,0.3,3.5H137C137.1,288.8,137.5,289.8,138.1,290.4z M143.1,282
		c-0.5-0.6-1.3-0.9-2.4-0.9c-0.7,0-1.3,0.1-1.7,0.4c-0.5,0.2-0.8,0.5-1.1,0.9s-0.5,0.7-0.6,1.1s-0.2,0.7-0.2,1h7.1
		C144,283.5,143.6,282.6,143.1,282z"/>
	<path class="st1" d="M163.8,288.8c0.3,0.5,0.6,0.9,1.1,1.2s1,0.6,1.6,0.7c0.6,0.2,1.2,0.2,1.8,0.2c0.4,0,0.9,0,1.4-0.1
		c0.5-0.1,1-0.2,1.4-0.4c0.4-0.2,0.8-0.5,1.1-0.8c0.3-0.4,0.4-0.8,0.4-1.4c0-0.6-0.2-1.1-0.6-1.4c-0.4-0.4-0.9-0.7-1.5-0.9
		c-0.6-0.2-1.3-0.5-2.1-0.6c-0.8-0.2-1.6-0.4-2.4-0.6c-0.8-0.2-1.6-0.5-2.4-0.8c-0.8-0.3-1.5-0.7-2.1-1.2c-0.6-0.5-1.1-1.1-1.5-1.8
		c-0.4-0.7-0.6-1.6-0.6-2.6c0-1.1,0.2-2.1,0.7-2.9s1.1-1.5,1.9-2.1c0.8-0.6,1.7-1,2.6-1.2c1-0.3,2-0.4,3-0.4c1.1,0,2.3,0.1,3.3,0.4
		c1.1,0.3,2,0.7,2.8,1.2c0.8,0.6,1.5,1.3,2,2.2s0.7,2,0.7,3.2h-4.7c0-0.7-0.2-1.2-0.4-1.6c-0.2-0.4-0.5-0.8-0.9-1
		c-0.4-0.2-0.8-0.4-1.3-0.5c-0.5-0.1-1.1-0.2-1.6-0.2c-0.4,0-0.8,0-1.2,0.1c-0.4,0.1-0.7,0.2-1.1,0.4c-0.3,0.2-0.6,0.5-0.8,0.8
		c-0.2,0.3-0.3,0.7-0.3,1.2c0,0.4,0.1,0.8,0.2,1c0.2,0.3,0.5,0.5,1,0.7c0.5,0.2,1.1,0.5,2,0.7c0.9,0.2,2,0.5,3.3,0.9
		c0.4,0.1,1,0.2,1.7,0.4c0.7,0.2,1.5,0.6,2.2,1c0.7,0.5,1.3,1.1,1.9,1.9c0.5,0.8,0.8,1.8,0.8,3c0,1-0.2,1.9-0.6,2.8
		c-0.4,0.9-1,1.6-1.7,2.2c-0.8,0.6-1.7,1.1-2.9,1.5c-1.1,0.3-2.5,0.5-4,0.5c-1.2,0-2.4-0.1-3.5-0.4s-2.1-0.8-3-1.4
		c-0.9-0.6-1.6-1.4-2.1-2.4c-0.5-1-0.8-2.2-0.7-3.5h4.7C163.4,287.7,163.6,288.3,163.8,288.8z"/>
	<path class="st1" d="M178.4,276.3v-4.1h18v4.1h-6.6v17.9H185v-17.9H178.4z"/>
	<path class="st1" d="M215.4,272.3v4.1h-11.6v4.7h10.7v3.8h-10.7v5.4h11.9v4.1h-16.7v-22H215.4z"/>
	<path class="st1" d="M228.8,272.3c1.4,0,2.5,0.2,3.5,0.6s1.8,0.9,2.4,1.6s1,1.4,1.3,2.2c0.3,0.8,0.4,1.7,0.4,2.6
		c0,0.9-0.1,1.8-0.4,2.6c-0.3,0.9-0.7,1.6-1.3,2.3c-0.6,0.7-1.4,1.2-2.4,1.6s-2.1,0.6-3.5,0.6h-5.1v7.9h-4.8v-22H228.8z
		 M227.5,282.6c0.6,0,1.1,0,1.6-0.1c0.5-0.1,1-0.2,1.4-0.5c0.4-0.2,0.7-0.6,0.9-1s0.4-1,0.4-1.7c0-0.7-0.1-1.3-0.4-1.7
		s-0.5-0.8-0.9-1c-0.4-0.2-0.8-0.4-1.4-0.5c-0.5-0.1-1-0.1-1.6-0.1h-3.8v6.6H227.5z"/>
</g>
</svg>
