<?xml version="1.0" encoding="utf-8"?>
<!-- Generator: Adobe Illustrator 25.4.6, SVG Export Plug-In . SVG Version: 6.00 Build 0)  -->
<svg version="1.1" id="Layer_1" xmlns="http://www.w3.org/2000/svg" xmlns:xlink="http://www.w3.org/1999/xlink" x="0px" y="0px"
	 viewBox="0 0 300 600" style="enable-background:new 0 0 300 600;" xml:space="preserve">
<style type="text/css">
	.st0{clip-path:url(#SVGID_00000106130286849666606770000002298000458317506956_);fill:#231F20;}
	.st1{clip-path:url(#SVGID_00000106130286849666606770000002298000458317506956_);fill:#00B2EE;}
</style>
<g>
	<defs>
		<rect id="SVGID_1_" x="103.6" y="36.5" width="96" height="32.6"/>
	</defs>
	<clipPath id="SVGID_00000077292729560909080420000003066274043495823806_">
		<use xlink:href="#SVGID_1_"  style="overflow:visible;"/>
	</clipPath>
	<path style="clip-path:url(#SVGID_00000077292729560909080420000003066274043495823806_);fill:#231F20;" d="M104.2,54h5.1
		c4.1,0,4.9,2.6,4.9,4.4c0,1.8-0.8,4.4-4.9,4.4h-2.6v5.5h-2.5V54z M106.7,60.8h2.5c1.1,0,2.5-0.6,2.5-2.4c0-1.9-1.1-2.4-2.5-2.4
		h-2.5V60.8z"/>
	<path style="clip-path:url(#SVGID_00000077292729560909080420000003066274043495823806_);fill:#231F20;" d="M115.7,57.9h2.1v2h0
		c0.3-1.1,1.6-2.3,3-2.3c0.5,0,0.7,0,0.9,0.1v2.2c-0.3,0-0.7-0.1-1-0.1c-1.6,0-2.8,1.3-2.8,3.5v4.9h-2.3V57.9z"/>
	<path style="clip-path:url(#SVGID_00000077292729560909080420000003066274043495823806_);fill:#231F20;" d="M122.1,63.1
		c0-3.2,1.9-5.4,5.2-5.4c3.3,0,5.2,2.3,5.2,5.4c0,3.2-1.9,5.5-5.2,5.5C124,68.6,122.1,66.3,122.1,63.1 M130.3,63.1
		c0-1.8-0.9-3.6-2.9-3.6c-2,0-2.9,1.9-2.9,3.6c0,1.8,0.9,3.7,2.9,3.7C129.4,66.8,130.3,64.9,130.3,63.1"/>
	<path style="clip-path:url(#SVGID_00000077292729560909080420000003066274043495823806_);fill:#231F20;" d="M132.9,57.9h1.8v-3.1
		h2.2v3.1h2.1v1.7h-2.1v5.5c0,0.9,0.1,1.4,1.1,1.4c0.3,0,0.6,0,1-0.1v1.8c-0.5,0-1,0.1-1.5,0.1c-2.4,0-2.8-0.9-2.9-2.6v-6.1h-1.7
		V57.9z"/>
	<path style="clip-path:url(#SVGID_00000077292729560909080420000003066274043495823806_);fill:#231F20;" d="M142.2,63.7
		c0,1.6,0.9,3.1,2.8,3.1c1.3,0,2.1-0.6,2.5-1.7h2.2c-0.5,2.3-2.4,3.5-4.7,3.5c-3.2,0-5.1-2.3-5.1-5.4c0-2.9,1.9-5.5,5-5.5
		c3.3,0,5.3,2.9,4.9,6H142.2z M147.6,62.2c-0.1-1.4-1.1-2.7-2.6-2.7c-1.6,0-2.7,1.2-2.7,2.7H147.6z"/>
	<path style="clip-path:url(#SVGID_00000077292729560909080420000003066274043495823806_);fill:#231F20;" d="M158.5,61.4
		c-0.2-1.3-1.1-1.9-2.4-1.9c-1.2,0-2.8,0.6-2.8,3.8c0,1.7,0.8,3.5,2.7,3.5c1.3,0,2.2-0.9,2.5-2.4h2.3c-0.4,2.7-2.1,4.2-4.7,4.2
		c-3.2,0-5-2.3-5-5.3c0-3.1,1.7-5.6,5.1-5.6c2.4,0,4.4,1.2,4.7,3.7H158.5z"/>
	<path style="clip-path:url(#SVGID_00000077292729560909080420000003066274043495823806_);fill:#231F20;" d="M161.4,57.9h1.7v-3.1
		h2.3v3.1h2.1v1.7h-2.1v5.5c0,0.9,0.1,1.4,1.1,1.4c0.3,0,0.6,0,1-0.1v1.8c-0.5,0-1,0.1-1.5,0.1c-2.4,0-2.8-0.9-2.9-2.6v-6.1h-1.7
		V57.9z"/>
	<path style="clip-path:url(#SVGID_00000077292729560909080420000003066274043495823806_);fill:#231F20;" d="M170.1,54h2.3v2.2h-2.3
		V54z M170.1,57.9h2.3v10.4h-2.3V57.9z"/>
	<polygon style="clip-path:url(#SVGID_00000077292729560909080420000003066274043495823806_);fill:#231F20;" points="174,57.9 
		176.5,57.9 179.7,65.9 179.7,65.9 182.8,57.9 185.2,57.9 180.9,68.3 178.4,68.3 	"/>
	<path style="clip-path:url(#SVGID_00000077292729560909080420000003066274043495823806_);fill:#231F20;" d="M188.1,63.7
		c0,1.6,0.9,3.1,2.8,3.1c1.3,0,2.1-0.6,2.5-1.7h2.2c-0.5,2.3-2.4,3.5-4.7,3.5c-3.2,0-5.1-2.3-5.1-5.4c0-2.9,1.9-5.5,5-5.5
		c3.3,0,5.3,2.9,4.9,6H188.1z M193.4,62.2c-0.1-1.4-1.1-2.7-2.6-2.7c-1.6,0-2.7,1.2-2.7,2.7H193.4z"/>
	<path style="clip-path:url(#SVGID_00000077292729560909080420000003066274043495823806_);fill:#00B2EE;" d="M165.8,51.6
		c-1.5-5.7-6-10.1-11.7-11.6c-0.5-1.8-2.1-3-4.1-3c-1.9,0-3.6,1.3-4.1,3c-5.7,1.5-10.2,5.9-11.7,11.6l-0.2,0.6h3.5l0.1-0.4
		c1.3-4.1,4.6-7.3,8.7-8.5c0.7,1.3,2.1,2.1,3.7,2.1s2.9-0.8,3.7-2.1c4.1,1.2,7.4,4.4,8.7,8.5l0.1,0.4h3.5L165.8,51.6z"/>
	<path style="clip-path:url(#SVGID_00000077292729560909080420000003066274043495823806_);fill:#231F20;" d="M198.1,66.5
		c0.6,0,1,0.5,1,1c0,0.6-0.5,1-1,1c-0.6,0-1-0.5-1-1C197,67,197.5,66.5,198.1,66.5 M198.9,67.6c0-0.5-0.4-0.9-0.8-0.9
		c-0.5,0-0.8,0.4-0.8,0.9c0,0.5,0.4,0.9,0.8,0.9C198.5,68.4,198.9,68,198.9,67.6 M197.7,67h0.5c0.3,0,0.4,0.1,0.4,0.3
		c0,0.2-0.1,0.3-0.3,0.3l0.3,0.5h-0.2l-0.3-0.5h-0.2v0.5h-0.2V67z M198,67.5c0.2,0,0.3,0,0.3-0.2c0-0.2-0.1-0.2-0.3-0.2h-0.2v0.4
		H198z"/>
</g>
</svg>
