<svg id="Layer_1" xmlns="http://www.w3.org/2000/svg" viewBox="0 0 728 90"><style>.st0{fill:#231f20}.st1{fill:#393}</style><path class="st0" d="M40.1 15.4v3.7H29.6v4.3h9.6v3.4h-9.6v4.9h10.7v3.7H25.2v-20h14.9zM46.4 35.3l-4.9-14.4h4.1l3 9.8h.1l3-9.8h3.9l-4.9 14.4h-4.3zM61.5 31.8c.6.6 1.4.9 2.6.9.8 0 1.5-.2 2.1-.6.6-.4.9-.8 1.1-1.3h3.5c-.6 1.7-1.4 3-2.6 3.7-1.2.7-2.5 1.1-4.2 1.1-1.1 0-2.2-.2-3.1-.5-.9-.4-1.7-.9-2.3-1.5-.6-.7-1.1-1.5-1.5-2.4-.3-.9-.5-1.9-.5-3.1 0-1.1.2-2.1.5-3 .4-.9.9-1.7 1.5-2.4s1.4-1.2 2.3-1.6c.9-.4 1.9-.6 3-.6 1.2 0 2.3.2 3.2.7.9.5 1.7 1.1 2.2 1.9s1 1.7 1.3 2.7c.3 1 .4 2.1.3 3.2H60.6c0 1.3.4 2.2.9 2.8zm4.5-7.6c-.5-.5-1.2-.8-2.2-.8-.6 0-1.2.1-1.6.3-.4.2-.8.5-1 .8-.3.3-.4.7-.5 1-.1.4-.2.7-.2.9H67c-.2-.9-.5-1.6-1-2.2zM77.1 20.9v2h.1c.5-.8 1.2-1.4 1.9-1.8.8-.4 1.6-.6 2.5-.6 1.1 0 1.9.1 2.6.4.7.3 1.2.7 1.6 1.2.4.5.7 1.1.8 1.9.2.7.2 1.5.2 2.4v8.9h-4v-8.1c0-1.2-.2-2.1-.6-2.7s-1-.9-2-.9c-1.1 0-1.9.3-2.3 1-.5.6-.7 1.7-.7 3.2v7.5h-4V20.9h3.9zM105.5 20.9v2.6h-2.9v7.1c0 .7.1 1.1.3 1.3.2.2.7.3 1.3.3h.6c.2 0 .4 0 .6-.1v3.1c-.3.1-.7.1-1.1.1h-1.2c-.6 0-1.2 0-1.7-.1s-1-.2-1.4-.5c-.4-.2-.7-.6-1-1-.2-.4-.4-1-.4-1.8v-8.5h-2.4v-2.6h2.4v-4.3h4v4.3h2.9zM111.3 15.4v7.5h.1c.5-.8 1.1-1.4 1.9-1.8.8-.4 1.5-.6 2.3-.6 1.1 0 1.9.1 2.6.4.7.3 1.2.7 1.6 1.2.4.5.7 1.1.8 1.9.2.7.2 1.5.2 2.4v8.9h-4v-8.1c0-1.2-.2-2.1-.6-2.7s-1-.9-2-.9c-1.1 0-1.9.3-2.3 1-.5.6-.7 1.7-.7 3.2v7.5h-4V15.4h4.1zM128.1 31.8c.6.6 1.4.9 2.6.9.8 0 1.5-.2 2.1-.6.6-.4.9-.8 1.1-1.3h3.5c-.6 1.7-1.4 3-2.6 3.7-1.2.7-2.5 1.1-4.2 1.1-1.1 0-2.2-.2-3.1-.5-.9-.4-1.7-.9-2.3-1.5-.6-.7-1.1-1.5-1.5-2.4-.3-.9-.5-1.9-.5-3.1 0-1.1.2-2.1.5-3 .4-.9.9-1.7 1.5-2.4s1.4-1.2 2.3-1.6c.9-.4 1.9-.6 3-.6 1.2 0 2.3.2 3.2.7.9.5 1.7 1.1 2.2 1.9s1 1.7 1.3 2.7c.3 1 .4 2.1.3 3.2h-10.4c.1 1.3.4 2.2 1 2.8zm4.5-7.6c-.5-.5-1.2-.8-2.2-.8-.6 0-1.2.1-1.6.3-.4.2-.8.5-1 .8-.3.3-.4.7-.5 1-.1.4-.2.7-.2.9h6.4c-.1-.9-.4-1.6-.9-2.2zM157.4 15.4c.9 0 1.8.1 2.6.3s1.4.4 2 .8 1 .9 1.3 1.5c.3.6.5 1.4.5 2.3 0 1-.2 1.8-.7 2.5-.5.7-1.1 1.2-2 1.6 1.2.4 2.1 1 2.7 1.9.6.9.9 1.9.9 3.2 0 1-.2 1.9-.6 2.6-.4.7-.9 1.3-1.6 1.8-.7.5-1.4.8-2.3 1-.8.2-1.7.3-2.6.3H148V15.4h9.4zm-.6 8c.8 0 1.4-.2 1.9-.6.5-.4.8-1 .8-1.8 0-.5-.1-.8-.3-1.1-.2-.3-.4-.5-.7-.7-.3-.2-.6-.3-1-.3-.4-.1-.7-.1-1.1-.1h-4.1v4.7h4.5zm.3 8.5c.4 0 .8 0 1.2-.1.4-.1.7-.2 1-.4.3-.2.5-.5.7-.8.2-.3.3-.8.3-1.3 0-1-.3-1.7-.9-2.2-.6-.4-1.3-.7-2.3-.7h-4.8v5.5h4.8zM182.5 15.4v3.7H172v4.3h9.6v3.4H172v4.9h10.7v3.7h-15.1v-20h14.9zM189 30.4c.2.5.6.8 1 1.1.4.3.9.5 1.4.6.5.1 1.1.2 1.7.2.4 0 .8 0 1.3-.1.4-.1.9-.2 1.3-.4s.7-.4 1-.8c.3-.3.4-.7.4-1.2s-.2-1-.5-1.3c-.3-.3-.8-.6-1.4-.8-.6-.2-1.2-.4-1.9-.6l-2.1-.6c-.7-.2-1.5-.4-2.2-.7s-1.3-.6-1.9-1c-.6-.4-1-1-1.4-1.6-.3-.6-.5-1.4-.5-2.3 0-1 .2-1.9.7-2.7.4-.8 1-1.4 1.7-1.9s1.5-.9 2.4-1.1 1.8-.4 2.7-.4c1 0 2 .1 3 .3 1 .2 1.8.6 2.5 1.1.7.5 1.3 1.2 1.8 2 .4.8.7 1.8.7 2.9h-4.2c0-.6-.2-1.1-.4-1.5-.2-.4-.5-.7-.8-.9-.4-.2-.8-.4-1.2-.5s-1-.1-1.5-.1c-.4 0-.7 0-1.1.1-.4.1-.7.2-1 .4-.3.2-.5.4-.7.7s-.3.6-.3 1.1c0 .4.1.7.2.9s.4.5.9.7c.4.2 1 .4 1.8.6.8.2 1.8.5 3 .8.4.1.9.2 1.5.4.7.2 1.3.5 2 .9.6.4 1.2 1 1.7 1.7s.7 1.6.7 2.7c0 .9-.2 1.8-.5 2.5s-.9 1.5-1.6 2-1.6 1-2.6 1.3c-1 .3-2.2.5-3.6.5-1.1 0-2.2-.1-3.2-.4-1-.3-1.9-.7-2.7-1.3-.8-.6-1.4-1.3-1.9-2.2-.5-.9-.7-1.9-.7-3.2h4.2c0 1 .1 1.6.3 2.1zM202.2 19.1v-3.7h16.3v3.7h-6v16.2h-4.4V19.1h-5.9zM225.1 26v3.4h-8.4V26h8.4zM232.2 15.4v19.9h-4V15.4h4zM235.1 25.3c.1-.9.3-1.7.7-2.3.4-.6.9-1.1 1.6-1.5.6-.4 1.3-.6 2.1-.8.8-.2 1.6-.2 2.4-.2.7 0 1.5.1 2.2.2.7.1 1.4.3 2 .6.6.3 1.1.7 1.5 1.2.4.5.6 1.2.6 2.1v7.5c0 .6 0 1.3.1 1.9.1.6.2 1 .4 1.3h-4c-.1-.2-.1-.4-.2-.7 0-.2-.1-.5-.1-.7-.6.7-1.4 1.1-2.2 1.4-.9.3-1.7.4-2.6.4-.7 0-1.3-.1-1.9-.3-.6-.2-1.1-.4-1.6-.8-.4-.4-.8-.8-1-1.3-.3-.5-.4-1.2-.4-1.9 0-.8.1-1.5.4-2 .3-.5.7-1 1.1-1.3.5-.3 1-.6 1.6-.7.6-.2 1.2-.3 1.8-.4.6-.1 1.2-.2 1.8-.2.6-.1 1.1-.1 1.5-.3.4-.1.8-.3 1.1-.5.3-.2.4-.5.4-.9s-.1-.8-.2-1c-.1-.3-.3-.4-.6-.6-.2-.1-.5-.2-.8-.3-.3 0-.6-.1-1-.1-.8 0-1.4.2-1.8.5-.4.3-.7.9-.8 1.7h-4.1zm9.2 2.9c-.2.1-.4.3-.6.3s-.5.2-.8.2c-.3.1-.6.1-.9.1-.3 0-.6.1-.9.1-.3.1-.6.1-.9.2-.3.1-.5.2-.8.4-.2.2-.4.4-.5.6s-.2.5-.2.9.1.6.2.9c.1.2.3.4.5.6s.5.2.8.3c.3.1.6.1.9.1.8 0 1.4-.1 1.8-.4.4-.3.7-.6.9-.9.2-.4.3-.7.4-1.1 0-.4.1-.7.1-.9v-1.4zM251.4 18.6v-3.3h4v3.3h-4zm3.9 2.3v14.4h-4V20.9h4zM268.7 33.4c-.5.8-1.1 1.3-1.8 1.7s-1.6.5-2.5.5c-1.1 0-2-.2-2.8-.6-.8-.4-1.5-1-2-1.7s-.9-1.5-1.2-2.5c-.3-.9-.4-1.9-.4-2.9s.1-1.9.4-2.8.7-1.7 1.2-2.4 1.2-1.2 2-1.7c.8-.4 1.7-.6 2.8-.6.9 0 1.7.2 2.4.5.8.4 1.4.9 1.8 1.6h.1v-7.2h4v19.9h-3.8l-.2-1.8zm-.2-7.1c-.1-.5-.3-1-.6-1.4-.3-.4-.6-.8-1-1-.4-.3-1-.4-1.6-.4-.7 0-1.2.1-1.6.4-.4.3-.8.6-1.1 1-.3.4-.5.9-.6 1.5-.1.5-.2 1.1-.2 1.7 0 .6.1 1.1.2 1.7s.3 1.1.6 1.5c.3.4.6.8 1.1 1.1.4.3 1 .4 1.6.4.6 0 1.2-.1 1.6-.4.4-.3.8-.6 1-1 .3-.4.4-.9.6-1.5s.2-1.1.2-1.7-.1-1.3-.2-1.9zM292.6 15.4c1.2 0 2.3.2 3.2.5.9.4 1.6.8 2.1 1.4.5.6.9 1.3 1.2 2 .3.8.4 1.6.4 2.4 0 .8-.1 1.6-.4 2.4-.3.8-.7 1.5-1.2 2-.5.6-1.3 1.1-2.1 1.4-.9.4-1.9.5-3.2.5H288v7.1h-4.4V15.4h9zm-1.2 9.3c.5 0 1 0 1.4-.1.5-.1.9-.2 1.2-.4.4-.2.6-.5.8-.9.2-.4.3-.9.3-1.5s-.1-1.1-.3-1.5c-.2-.4-.5-.7-.8-.9-.4-.2-.8-.4-1.2-.4-.5-.1-.9-.1-1.4-.1H288v6h3.4zM306.6 15.4v16.2h9.7v3.7h-14.1V15.4h4.4zM328.6 15.4l7.4 19.9h-4.5l-1.5-4.4h-7.4l-1.6 4.4h-4.4l7.5-19.9h4.5zm.3 12.2l-2.5-7.3h-.1l-2.6 7.3h5.2zM342.2 15.4l8.3 13.3h.1V15.4h4.1v19.9h-4.4L342 21.9h-.1v13.3h-4.1V15.4h4.4zM361.8 30.4c.2.5.6.8 1 1.1.4.3.9.5 1.4.6.5.1 1.1.2 1.7.2.4 0 .8 0 1.3-.1s.9-.2 1.3-.4.7-.4 1-.8c.3-.3.4-.7.4-1.2s-.2-1-.5-1.3c-.3-.3-.8-.6-1.4-.8-.6-.2-1.2-.4-1.9-.6l-2.1-.6c-.7-.2-1.5-.4-2.2-.7-.7-.3-1.3-.6-1.9-1-.6-.4-1-1-1.4-1.6-.3-.6-.5-1.4-.5-2.3 0-1 .2-1.9.7-2.7.4-.8 1-1.4 1.7-1.9s1.5-.9 2.4-1.1c.9-.2 1.8-.4 2.7-.4 1 0 2 .1 3 .3 1 .2 1.8.6 2.5 1.1.7.5 1.3 1.2 1.8 2 .4.8.7 1.8.7 2.9H369c0-.6-.2-1.1-.4-1.5-.2-.4-.5-.7-.8-.9-.4-.2-.8-.4-1.2-.5s-1-.1-1.5-.1c-.4 0-.7 0-1.1.1-.4.1-.7.2-1 .4-.3.2-.5.4-.7.7-.2.3-.3.6-.3 1.1 0 .4.1.7.2.9.1.2.4.5.9.7.4.2 1 .4 1.8.6.8.2 1.8.5 3 .8.4.1.9.2 1.5.4.7.2 1.3.5 2 .9.6.4 1.2 1 1.7 1.7s.7 1.6.7 2.7c0 .9-.2 1.8-.5 2.5-.4.8-.9 1.5-1.6 2-.7.6-1.6 1-2.6 1.3s-2.2.5-3.6.5c-1.1 0-2.2-.1-3.2-.4-1-.3-1.9-.7-2.7-1.3-.8-.6-1.4-1.3-1.9-2.2-.5-.9-.7-1.9-.7-3.2h4.2c.2 1 .3 1.6.6 2.1zM383.9 24.9c.4-.9.9-1.7 1.5-2.4.7-.7 1.4-1.2 2.3-1.5.9-.4 1.9-.5 3.1-.5 1.1 0 2.2.2 3.1.5.9.4 1.7.9 2.4 1.5.6.7 1.2 1.5 1.5 2.4.4.9.5 2 .5 3.1 0 1.2-.2 2.2-.5 3.1-.4.9-.9 1.7-1.5 2.4-.7.7-1.4 1.2-2.4 1.5s-1.9.5-3.1.5c-1.1 0-2.2-.2-3.1-.5-.9-.4-1.7-.9-2.3-1.5-.6-.7-1.2-1.5-1.5-2.4-.4-.9-.5-2-.5-3.1s.2-2.1.5-3.1zm3.6 4.9c.1.5.3 1 .6 1.5.3.4.6.8 1.1 1 .4.3 1 .4 1.7.4s1.2-.1 1.7-.4c.5-.3.8-.6 1.1-1 .3-.4.5-.9.6-1.5s.2-1.1.2-1.7c0-.6-.1-1.1-.2-1.7-.1-.6-.3-1-.6-1.5-.3-.4-.6-.8-1.1-1-.5-.3-1-.4-1.7-.4s-1.2.1-1.7.4c-.4.3-.8.6-1.1 1-.3.4-.5.9-.6 1.5-.1.6-.2 1.1-.2 1.7.1.6.1 1.1.2 1.7zM399.4 23.5v-2.6h2.4v-1.1c0-1.3.4-2.3 1.2-3.1.8-.8 2-1.2 3.6-1.2h1.1c.4 0 .7.1 1 .1v3c-.5-.1-.9-.1-1.4-.1-.5 0-.9.1-1.2.4-.2.3-.3.7-.3 1.3v.9h2.7v2.6h-2.7v11.8h-4v-12h-2.4zM421.7 20.9v1.9h.1c.5-.7 1.1-1.3 1.9-1.7.7-.4 1.6-.6 2.5-.6.9 0 1.7.2 2.5.5.8.4 1.3 1 1.7 1.9.4-.6 1-1.2 1.7-1.7s1.6-.7 2.6-.7c.8 0 1.5.1 2.1.3.7.2 1.2.5 1.7.9s.8.9 1.1 1.6c.3.7.4 1.5.4 2.4v9.6h-4v-8.2c0-.5 0-.9-.1-1.4 0-.4-.1-.8-.3-1.1-.2-.3-.4-.6-.7-.8-.3-.2-.8-.3-1.3-.3-.6 0-1 .1-1.4.3-.3.2-.6.5-.8.8-.2.3-.3.7-.4 1.2-.1.4-.1.9-.1 1.3v8h-4V27v-1.3c0-.4-.1-.8-.2-1.2-.1-.4-.4-.6-.7-.8-.3-.2-.8-.3-1.4-.3-.2 0-.4 0-.7.1-.3.1-.6.2-.9.5-.3.2-.5.6-.7 1-.2.4-.3 1-.3 1.7v8.4h-4V20.9h3.7zM443.2 18.6v-3.3h4v3.3h-4zm4 2.3v14.4h-4V20.9h4zM457.2 23.5c-.6 0-1.2.1-1.6.4-.4.3-.8.7-1 1.1-.3.5-.5 1-.6 1.5-.1.5-.2 1.1-.2 1.6s.1 1 .2 1.6c.1.5.3 1 .5 1.5.3.4.6.8 1 1.1.4.3.9.4 1.6.4.9 0 1.7-.3 2.2-.8.5-.5.8-1.2 1-2.1h3.8c-.3 1.9-1 3.4-2.2 4.4-1.2 1-2.8 1.5-4.7 1.5-1.1 0-2.1-.2-3-.5-.9-.4-1.7-.9-2.3-1.5-.6-.6-1.1-1.4-1.5-2.3-.4-.9-.5-1.9-.5-3s.2-2.1.5-3.1.8-1.8 1.4-2.5c.6-.7 1.4-1.2 2.3-1.6.9-.4 2-.6 3.1-.6.9 0 1.7.1 2.5.3.8.2 1.5.6 2.1 1 .6.5 1.1 1 1.5 1.7.4.7.6 1.5.7 2.4h-3.9c-.3-1.7-1.2-2.5-2.9-2.5zM470.5 31.8c.6.6 1.4.9 2.6.9.8 0 1.5-.2 2.1-.6.6-.4.9-.8 1.1-1.3h3.5c-.6 1.7-1.4 3-2.6 3.7-1.2.7-2.5 1.1-4.2 1.1-1.1 0-2.2-.2-3.1-.5-.9-.4-1.7-.9-2.3-1.5-.6-.7-1.1-1.5-1.5-2.4-.3-.9-.5-1.9-.5-3.1 0-1.1.2-2.1.5-3 .4-.9.9-1.7 1.5-2.4s1.4-1.2 2.3-1.6c.9-.4 1.9-.6 3-.6 1.2 0 2.3.2 3.2.7.9.5 1.7 1.1 2.2 1.9s1 1.7 1.3 2.7c.3 1 .4 2.1.3 3.2h-10.4c.1 1.3.4 2.2 1 2.8zm4.5-7.6c-.5-.5-1.2-.8-2.2-.8-.6 0-1.2.1-1.6.3-.4.2-.8.5-1 .8-.3.3-.4.7-.5 1-.1.4-.2.7-.2.9h6.4c-.1-.9-.4-1.6-.9-2.2zM489.8 25.3c.1-.9.3-1.7.7-2.3.4-.6.9-1.1 1.6-1.5.6-.4 1.3-.6 2.1-.8.8-.2 1.6-.2 2.4-.2.7 0 1.5.1 2.2.2.7.1 1.4.3 2 .6.6.3 1.1.7 1.5 1.2.4.5.6 1.2.6 2.1v7.5c0 .6 0 1.3.1 1.9.1.6.2 1 .4 1.3h-4c-.1-.2-.1-.4-.2-.7 0-.2-.1-.5-.1-.7-.6.7-1.4 1.1-2.2 1.4-.9.3-1.7.4-2.6.4-.7 0-1.3-.1-1.9-.3-.6-.2-1.1-.4-1.6-.8-.4-.4-.8-.8-1-1.3-.3-.5-.4-1.2-.4-1.9 0-.8.1-1.5.4-2 .3-.5.7-1 1.1-1.3.5-.3 1-.6 1.6-.7.6-.2 1.2-.3 1.8-.4.6-.1 1.2-.2 1.8-.2.6-.1 1.1-.1 1.5-.3.4-.1.8-.3 1.1-.5.3-.2.4-.5.4-.9s-.1-.8-.2-1c-.1-.3-.3-.4-.6-.6-.2-.1-.5-.2-.8-.3-.3 0-.6-.1-1-.1-.8 0-1.4.2-1.8.5-.4.3-.7.9-.8 1.7h-4.1zm9.2 2.9c-.2.1-.4.3-.6.3s-.5.2-.8.2-.6.1-.9.1c-.3 0-.6.1-.9.1-.3.1-.6.1-.9.2-.3.1-.5.2-.8.4-.2.2-.4.4-.5.6-.1.2-.2.5-.2.9s.1.6.2.9c.1.2.3.4.5.6.2.1.5.2.8.3s.6.1.9.1c.8 0 1.4-.1 1.8-.4.4-.3.7-.6.9-.9.2-.4.3-.7.4-1.1 0-.4.1-.7.1-.9v-1.4zM509.7 20.9v2h.1c.5-.8 1.2-1.4 2-1.8.8-.4 1.6-.6 2.5-.6 1.1 0 1.9.1 2.6.4.7.3 1.2.7 1.6 1.2.4.5.7 1.1.8 1.9.2.7.2 1.5.2 2.4v8.9h-4v-8.1c0-1.2-.2-2.1-.6-2.7s-1-.9-2-.9c-1.1 0-1.9.3-2.3 1-.5.6-.7 1.7-.7 3.2v7.5h-4V20.9h3.8zM532.7 33.4c-.5.8-1.1 1.3-1.8 1.7s-1.6.5-2.5.5c-1.1 0-2-.2-2.8-.6-.8-.4-1.5-1-2-1.7s-.9-1.5-1.2-2.5c-.3-.9-.4-1.9-.4-2.9s.1-1.9.4-2.8c.3-.9.7-1.7 1.2-2.4s1.2-1.2 2-1.7c.8-.4 1.7-.6 2.8-.6.9 0 1.7.2 2.4.5.8.4 1.4.9 1.8 1.6h.1v-7.2h4v19.9h-3.8l-.2-1.8zm-.1-7.1c-.1-.5-.3-1-.6-1.4-.3-.4-.6-.8-1-1-.4-.3-1-.4-1.6-.4-.7 0-1.2.1-1.6.4-.4.3-.8.6-1.1 1-.3.4-.5.9-.6 1.5-.1.5-.2 1.1-.2 1.7 0 .6.1 1.1.2 1.7.1.6.3 1.1.6 1.5.3.4.7.8 1.1 1.1.4.3 1 .4 1.6.4.6 0 1.2-.1 1.6-.4.4-.3.8-.6 1-1 .3-.4.4-.9.6-1.5s.2-1.1.2-1.7-.1-1.3-.2-1.9z"/><g><path class="st0" d="M33.8 43.2c1.3 0 2.5.2 3.6.6s2.1 1 2.9 1.8c.8.8 1.4 1.8 1.9 3.1s.7 2.7.7 4.3c0 1.4-.2 2.8-.6 4-.4 1.2-.9 2.3-1.7 3.2-.8.9-1.7 1.6-2.8 2.1-1.1.5-2.4.8-4 .8h-8.6V43.2h8.6zm-.3 16.2c.6 0 1.2-.1 1.8-.3s1.1-.5 1.6-1 .8-1.1 1.1-1.9c.3-.8.4-1.7.4-2.8 0-1-.1-1.9-.3-2.7-.2-.8-.5-1.5-1-2.1-.4-.6-1-1-1.8-1.3-.7-.3-1.6-.5-2.7-.5h-3.1v12.5h4zM60.7 43.2v3.7H50.2v4.3h9.6v3.4h-9.6v4.9h10.7v3.7H45.8v-20h14.9zM68.2 43.2l8.3 13.3h.1V43.2h4.1v19.9h-4.4L68 49.8v13.3h-4.1V43.2h4.3zM83 46.9v-3.7h16.3v3.7h-6v16.2h-4.4V46.9H83zM105.9 43.2v19.9h-4.4V43.2h4.4zM113.1 58.2c.2.5.6.8 1 1.1s.9.5 1.4.6c.5.1 1.1.2 1.7.2.4 0 .8 0 1.3-.1.4-.1.9-.2 1.3-.4s.7-.4 1-.8c.3-.3.4-.7.4-1.2s-.2-1-.5-1.3c-.3-.3-.8-.6-1.4-.8-.6-.2-1.2-.4-1.9-.6l-2.1-.6c-.7-.2-1.5-.4-2.2-.7s-1.3-.6-1.9-1c-.6-.4-1-1-1.4-1.6-.3-.6-.5-1.4-.5-2.3 0-1 .2-1.9.7-2.7.4-.8 1-1.4 1.7-1.9s1.5-.9 2.4-1.1 1.8-.4 2.7-.4c1 0 2 .1 3 .3 1 .2 1.8.6 2.5 1.1.7.5 1.3 1.2 1.8 2 .4.8.7 1.8.7 2.9h-4.2c0-.6-.2-1.1-.4-1.5-.2-.4-.5-.7-.8-.9s-.8-.4-1.2-.5c-.5-.1-1-.1-1.5-.1-.4 0-.7 0-1.1.1-.4.1-.7.2-1 .4-.3.2-.5.4-.7.7s-.3.6-.3 1.1c0 .4.1.7.2.9.1.2.4.5.9.7.4.2 1 .4 1.8.6.8.2 1.8.5 3 .8.4.1.9.2 1.5.4.7.2 1.3.5 2 .9.6.4 1.2 1 1.7 1.7s.7 1.6.7 2.7c0 .9-.2 1.8-.5 2.5-.4.8-.9 1.5-1.6 2s-1.6 1-2.6 1.3c-1 .3-2.2.5-3.6.5-1.1 0-2.2-.1-3.2-.4-1-.3-1.9-.7-2.7-1.3-.8-.6-1.4-1.3-1.9-2.2-.5-.9-.7-1.9-.7-3.2h4.2c-.1 1.1.1 1.6.3 2.1zM126.3 46.9v-3.7h16.3v3.7h-6v16.2h-4.4V46.9h-5.9zM148.2 58.2c.2.5.6.8 1 1.1s.9.5 1.4.6c.5.1 1.1.2 1.7.2.4 0 .8 0 1.3-.1.4-.1.9-.2 1.3-.4s.7-.4 1-.8c.3-.3.4-.7.4-1.2s-.2-1-.5-1.3c-.3-.3-.8-.6-1.4-.8-.6-.2-1.2-.4-1.9-.6l-2.1-.6c-.7-.2-1.5-.4-2.2-.7s-1.3-.6-1.9-1c-.6-.4-1-1-1.4-1.6-.3-.6-.5-1.4-.5-2.3 0-1 .2-1.9.7-2.7.4-.8 1-1.4 1.7-1.9s1.5-.9 2.4-1.1 1.8-.4 2.7-.4c1 0 2 .1 3 .3 1 .2 1.8.6 2.5 1.1.7.5 1.3 1.2 1.8 2 .4.8.7 1.8.7 2.9h-4.2c0-.6-.2-1.1-.4-1.5-.2-.4-.5-.7-.8-.9s-.8-.4-1.2-.5c-.5-.1-1-.1-1.5-.1-.4 0-.7 0-1.1.1-.4.1-.7.2-1 .4-.3.2-.5.4-.7.7s-.3.6-.3 1.1c0 .4.1.7.2.9.1.2.4.5.9.7.4.2 1 .4 1.8.6.8.2 1.8.5 3 .8.4.1.9.2 1.5.4.7.2 1.3.5 2 .9.6.4 1.2 1 1.7 1.7s.7 1.6.7 2.7c0 .9-.2 1.8-.5 2.5-.4.8-.9 1.5-1.6 2s-1.6 1-2.6 1.3c-1 .3-2.2.5-3.6.5-1.1 0-2.2-.1-3.2-.4-1-.3-1.9-.7-2.7-1.3-.8-.6-1.4-1.3-1.9-2.2-.5-.9-.7-1.9-.7-3.2h4.2c-.1 1.1 0 1.6.3 2.1z"/></g><g><path class="st1" d="M177.1 51.3c-.6 0-1.2.1-1.6.4-.4.3-.8.7-1 1.1-.3.5-.5 1-.6 1.5-.1.5-.2 1.1-.2 1.6s.1 1 .2 1.6c.1.5.3 1 .5 1.5.3.4.6.8 1 1.1.4.3.9.4 1.6.4.9 0 1.7-.3 2.2-.8.5-.5.8-1.2 1-2.1h3.8c-.3 1.9-1 3.4-2.2 4.4-1.2 1-2.8 1.5-4.7 1.5-1.1 0-2.1-.2-3-.5-.9-.4-1.7-.9-2.3-1.5-.6-.6-1.1-1.4-1.5-2.3-.4-.9-.5-1.9-.5-3s.2-2.1.5-3.1.8-1.8 1.4-2.5c.6-.7 1.4-1.2 2.3-1.6.9-.4 1.9-.6 3.1-.6.9 0 1.7.1 2.5.3s1.5.6 2.1 1c.6.5 1.1 1 1.5 1.7.4.7.6 1.5.7 2.4H180c-.2-1.7-1.2-2.5-2.9-2.5zM186.1 53.1c.1-.9.3-1.7.7-2.3.4-.6.9-1.1 1.6-1.5.6-.4 1.3-.6 2.1-.8.8-.2 1.6-.2 2.4-.2.7 0 1.5.1 2.2.2.7.1 1.4.3 2 .6.6.3 1.1.7 1.5 1.2.4.5.6 1.2.6 2.1v7.5c0 .7 0 1.3.1 1.9.1.6.2 1 .4 1.3h-4c-.1-.2-.1-.5-.2-.7 0-.2-.1-.5-.1-.7-.6.7-1.4 1.1-2.2 1.4-.9.3-1.7.4-2.6.4-.7 0-1.3-.1-1.9-.3-.6-.2-1.1-.4-1.6-.8s-.8-.8-1-1.3-.4-1.2-.4-1.9c0-.8.1-1.5.4-2 .3-.5.7-1 1.1-1.3.5-.3 1-.6 1.6-.7.6-.2 1.2-.3 1.8-.4s1.2-.2 1.8-.2c.6-.1 1.1-.1 1.5-.3.4-.1.8-.3 1.1-.5.3-.2.4-.5.4-.9s-.1-.8-.2-1c-.1-.3-.3-.4-.6-.6-.2-.1-.5-.2-.8-.3-.3 0-.6-.1-1-.1-.8 0-1.4.2-1.8.5-.4.3-.7.9-.8 1.7h-4.1zm9.1 3c-.2.1-.4.3-.6.3-.3.1-.5.2-.8.2-.3.1-.6.1-.9.1-.3 0-.6.1-.9.1-.3.1-.6.1-.9.2-.3.1-.5.2-.8.4-.2.2-.4.4-.5.6s-.2.5-.2.9.1.7.2.9c.1.2.3.4.5.6s.5.2.8.3c.3.1.6.1.9.1.8 0 1.4-.1 1.8-.4.4-.3.7-.6.9-.9.2-.4.3-.7.4-1.1 0-.4.1-.7.1-.9v-1.4zM206 48.7v2h.1c.5-.8 1.2-1.4 1.9-1.8s1.6-.6 2.5-.6c1.1 0 1.9.1 2.6.4.7.3 1.2.7 1.6 1.2.4.5.7 1.1.8 1.9s.2 1.5.2 2.4v8.9h-4V55c0-1.2-.2-2.1-.6-2.7-.4-.6-1-.9-2-.9-1.1 0-1.9.3-2.3 1-.5.6-.7 1.7-.7 3.2v7.5h-4V48.7h3.9zM229.8 59.5c.2.3.4.6.7.8.3.2.6.3 1 .4.4.1.7.1 1.1.1.3 0 .6 0 .9-.1.3-.1.6-.2.8-.3.3-.1.5-.3.6-.6.2-.2.3-.5.3-.9 0-.6-.4-1-1.2-1.3-.8-.3-1.9-.6-3.3-.9-.6-.1-1.1-.3-1.7-.5-.5-.2-1-.4-1.5-.7-.4-.3-.8-.6-1-1.1-.3-.4-.4-1-.4-1.6 0-.9.2-1.7.5-2.3.4-.6.8-1.1 1.4-1.4.6-.3 1.3-.6 2-.7.7-.1 1.5-.2 2.3-.2s1.5.1 2.3.2c.7.1 1.4.4 2 .8.6.4 1.1.8 1.4 1.4.4.6.6 1.3.7 2.2H235c-.1-.8-.3-1.3-.9-1.5-.5-.3-1.1-.4-1.8-.4h-.7c-.3 0-.5.1-.7.2-.2.1-.4.2-.5.4-.1.2-.2.4-.2.7 0 .4.1.6.4.9.3.2.6.4 1 .5.4.1.9.3 1.4.4.5.1 1.1.2 1.6.4.6.1 1.1.3 1.7.5.5.2 1 .4 1.5.7.4.3.8.7 1 1.1.3.5.4 1 .4 1.7 0 .9-.2 1.7-.6 2.4-.4.6-.9 1.2-1.5 1.5-.6.4-1.3.7-2.1.8-.8.2-1.6.2-2.4.2-.8 0-1.7-.1-2.5-.3-.8-.2-1.5-.4-2.1-.8-.6-.4-1.1-.9-1.5-1.5s-.6-1.4-.7-2.4h3.8c-.1.6 0 .9.2 1.2zM241.5 52.8c.4-.9.9-1.7 1.5-2.4s1.4-1.2 2.3-1.5c.9-.4 1.9-.5 3.1-.5 1.1 0 2.2.2 3.1.5s1.7.9 2.4 1.5c.6.7 1.2 1.5 1.5 2.4.4.9.5 2 .5 3.1 0 1.2-.2 2.2-.5 3.1-.4.9-.9 1.7-1.5 2.4-.7.7-1.4 1.2-2.4 1.5s-1.9.5-3.1.5c-1.1 0-2.2-.2-3.1-.5-.9-.4-1.7-.9-2.3-1.5-.6-.7-1.2-1.5-1.5-2.4-.4-.9-.5-2-.5-3.1s.2-2.2.5-3.1zm3.6 4.8c.1.5.3 1 .6 1.5.3.4.6.8 1.1 1 .4.3 1 .4 1.7.4s1.2-.1 1.7-.4.8-.6 1.1-1c.3-.4.5-.9.6-1.5s.2-1.1.2-1.7c0-.6-.1-1.1-.2-1.7s-.3-1-.6-1.5c-.3-.4-.6-.8-1.1-1-.5-.3-1-.4-1.7-.4s-1.2.1-1.7.4c-.4.3-.8.6-1.1 1-.3.4-.5.9-.6 1.5-.1.6-.2 1.1-.2 1.7 0 .6.1 1.2.2 1.7zM262.3 48.7v2h.1c.5-.7 1.1-1.3 1.9-1.7.7-.4 1.6-.6 2.5-.6.9 0 1.7.2 2.5.5s1.3 1 1.7 1.9c.4-.6 1-1.2 1.7-1.7s1.6-.7 2.6-.7c.8 0 1.5.1 2.1.3.6.2 1.2.5 1.7.9s.8.9 1.1 1.6c.3.7.4 1.5.4 2.4v9.6h-4V55c0-.5 0-.9-.1-1.4 0-.4-.1-.8-.3-1.1-.2-.3-.4-.6-.7-.8-.3-.2-.8-.3-1.3-.3s-1 .1-1.4.3c-.3.2-.6.5-.8.8-.2.3-.3.7-.4 1.2-.1.4-.1.9-.1 1.3v8h-4v-8-1.3c0-.4-.1-.8-.2-1.2-.1-.4-.4-.6-.7-.8-.3-.2-.8-.3-1.4-.3-.2 0-.4 0-.7.1-.3.1-.6.2-.9.5-.3.2-.5.6-.7 1s-.3 1-.3 1.7v8.4h-4V48.7h3.7zM287.9 59.7c.6.6 1.4.9 2.6.9.8 0 1.5-.2 2.1-.6.6-.4.9-.8 1.1-1.3h3.5c-.6 1.7-1.4 3-2.6 3.7-1.2.7-2.5 1.1-4.2 1.1-1.1 0-2.2-.2-3.1-.5-.9-.4-1.7-.9-2.3-1.5-.6-.7-1.1-1.5-1.5-2.4-.3-.9-.5-1.9-.5-3.1 0-1.1.2-2.1.5-3 .4-.9.9-1.7 1.5-2.4s1.4-1.2 2.3-1.6c.9-.4 1.9-.6 3-.6 1.2 0 2.3.2 3.2.7.9.5 1.7 1.1 2.2 1.9s1 1.7 1.3 2.7c.3 1 .4 2.1.3 3.2h-10.4c.1 1.3.4 2.2 1 2.8zm4.5-7.6c-.5-.5-1.2-.8-2.2-.8-.6 0-1.2.1-1.6.3-.4.2-.8.5-1 .8-.3.3-.4.7-.5 1-.1.4-.2.7-.2.9h6.4c-.1-.9-.5-1.7-.9-2.2zM307.6 48.7v2.6h-2.9v7.1c0 .7.1 1.1.3 1.3.2.2.7.3 1.3.3h.6c.2 0 .4 0 .6-.1V63c-.3.1-.7.1-1.1.1h-1.2c-.6 0-1.2 0-1.7-.1s-1-.2-1.4-.5c-.4-.2-.7-.6-1-1-.2-.4-.4-1-.4-1.8v-8.5h-2.4v-2.6h2.4v-4.3h4v4.3h2.9zM309.6 46.5v-3.3h4v3.3h-4zm3.9 2.2v14.4h-4V48.7h4zM320.5 48.7v2h.1c.5-.7 1.1-1.3 1.9-1.7.7-.4 1.6-.6 2.5-.6.9 0 1.7.2 2.5.5s1.3 1 1.7 1.9c.4-.6 1-1.2 1.7-1.7s1.6-.7 2.6-.7c.8 0 1.5.1 2.1.3.6.2 1.2.5 1.7.9s.8.9 1.1 1.6c.3.7.4 1.5.4 2.4v9.6h-4V55c0-.5 0-.9-.1-1.4 0-.4-.1-.8-.3-1.1-.2-.3-.4-.6-.7-.8-.3-.2-.8-.3-1.3-.3s-1 .1-1.4.3c-.3.2-.6.5-.8.8-.2.3-.3.7-.4 1.2-.1.4-.1.9-.1 1.3v8h-4v-8-1.3c0-.4-.1-.8-.2-1.2-.1-.4-.4-.6-.7-.8-.3-.2-.8-.3-1.4-.3-.2 0-.4 0-.7.1-.3.1-.6.2-.9.5-.3.2-.5.6-.7 1s-.3 1-.3 1.7v8.4h-4V48.7h3.7zM346.1 59.7c.6.6 1.4.9 2.6.9.8 0 1.5-.2 2.1-.6.6-.4.9-.8 1.1-1.3h3.5c-.6 1.7-1.4 3-2.6 3.7-1.2.7-2.5 1.1-4.2 1.1-1.1 0-2.2-.2-3.1-.5-.9-.4-1.7-.9-2.3-1.5-.6-.7-1.1-1.5-1.5-2.4-.3-.9-.5-1.9-.5-3.1 0-1.1.2-2.1.5-3 .4-.9.9-1.7 1.5-2.4s1.4-1.2 2.3-1.6c.9-.4 1.9-.6 3-.6 1.2 0 2.3.2 3.2.7.9.5 1.7 1.1 2.2 1.9s1 1.7 1.3 2.7c.3 1 .4 2.1.3 3.2h-10.4c.1 1.3.4 2.2 1 2.8zm4.5-7.6c-.5-.5-1.2-.8-2.2-.8-.6 0-1.2.1-1.6.3-.4.2-.8.5-1 .8-.3.3-.4.7-.5 1-.1.4-.2.7-.2.9h6.4c-.1-.9-.4-1.7-.9-2.2zM361.2 59.5c.2.3.4.6.7.8.3.2.6.3 1 .4.4.1.7.1 1.1.1.3 0 .6 0 .9-.1.3-.1.6-.2.8-.3.3-.1.5-.3.6-.6.2-.2.2-.5.2-.9 0-.6-.4-1-1.2-1.3-.8-.3-1.9-.6-3.3-.9-.6-.1-1.1-.3-1.7-.5-.5-.2-1-.4-1.5-.7-.4-.3-.8-.6-1-1.1s-.4-1-.4-1.6c0-.9.2-1.7.5-2.3.4-.6.8-1.1 1.4-1.4.6-.3 1.3-.6 2-.7s1.5-.2 2.3-.2c.8 0 1.5.1 2.3.2.7.1 1.4.4 2 .8.6.4 1.1.8 1.4 1.4.4.6.6 1.3.7 2.2h-3.8c-.1-.8-.3-1.3-.9-1.5-.5-.3-1.1-.4-1.8-.4h-.7c-.3 0-.5.1-.7.2-.2.1-.4.2-.5.4-.1.2-.2.4-.2.7 0 .4.1.6.4.9s.6.4 1 .5c.4.1.9.3 1.4.4.5.1 1.1.2 1.6.4.6.1 1.1.3 1.7.5s1 .4 1.5.7c.4.3.8.7 1 1.1.3.5.4 1 .4 1.7 0 .9-.2 1.7-.6 2.4s-.9 1.2-1.5 1.5c-.6.4-1.3.7-2.1.8-.8.2-1.6.2-2.4.2-.8 0-1.7-.1-2.5-.3s-1.5-.4-2.1-.8c-.6-.4-1.1-.9-1.5-1.5s-.6-1.4-.7-2.4h3.8c.1.6.2.9.4 1.2zM393.7 48.5c-.3-.4-.6-.8-1-1.1-.4-.3-.8-.6-1.3-.7s-1-.3-1.5-.3c-1 0-1.8.2-2.5.6-.7.4-1.2.9-1.7 1.5-.4.6-.7 1.4-.9 2.2-.2.8-.3 1.7-.3 2.5s.1 1.6.3 2.4c.2.8.5 1.5.9 2.1.4.6 1 1.1 1.7 1.5.7.4 1.5.6 2.5.6 1.3 0 2.4-.4 3.1-1.2s1.2-1.9 1.4-3.2h4.2c-.1 1.2-.4 2.4-.9 3.4s-1.1 1.9-1.8 2.6c-.8.7-1.7 1.2-2.7 1.6-1 .4-2.1.6-3.4.6-1.5 0-2.9-.3-4.1-.8-1.2-.5-2.2-1.3-3.1-2.2-.8-.9-1.5-2-1.9-3.3s-.7-2.6-.7-4.1c0-1.5.2-2.9.7-4.1s1.1-2.4 1.9-3.3c.8-.9 1.9-1.7 3.1-2.2 1.2-.5 2.6-.8 4.1-.8 1.1 0 2.1.2 3.1.5s1.8.8 2.6 1.4c.8.6 1.4 1.4 1.9 2.2.5.9.8 1.9.9 3.1h-4.2c.1-.6-.1-1.1-.4-1.5zM406 43.2v7.6h8v-7.6h4.4v19.9H414v-8.6h-8v8.6h-4.4V43.2h4.4zM432.2 43.2l7.4 19.9h-4.5l-1.5-4.4h-7.4l-1.6 4.4h-4.4l7.5-19.9h4.5zm.2 12.2l-2.5-7.3h-.1l-2.6 7.3h5.2zM445.7 43.2l8.3 13.3h.1V43.2h4.1v19.9h-4.4l-8.3-13.3h-.1v13.3h-4.1V43.2h4.4zM473.7 63c-.9.4-1.9.6-2.9.6-1.5 0-2.9-.3-4.1-.8-1.2-.5-2.2-1.3-3.1-2.2-.8-.9-1.5-2-1.9-3.3s-.7-2.6-.7-4.1c0-1.5.2-2.9.7-4.1s1.1-2.4 1.9-3.3c.8-.9 1.9-1.7 3.1-2.2 1.2-.5 2.6-.8 4.1-.8 1 0 2 .2 3 .5s1.8.8 2.6 1.4c.8.6 1.4 1.3 1.9 2.2.5.9.8 1.9.9 3H475c-.3-1.1-.8-1.9-1.5-2.5-.7-.6-1.6-.8-2.7-.8-1 0-1.8.2-2.5.6-.7.4-1.2.9-1.7 1.5-.4.6-.7 1.4-.9 2.2-.2.8-.3 1.7-.3 2.5s.1 1.6.3 2.4c.2.8.5 1.5.9 2.1.4.6 1 1.1 1.7 1.5.7.4 1.5.6 2.5.6 1.4 0 2.6-.4 3.4-1.1.8-.7 1.2-1.8 1.4-3.2h-4.4v-3.3h8.4v10.8h-2.8l-.4-2.3c-.8 1-1.7 1.7-2.7 2.1zM498 43.2v3.7h-10.5v4.3h9.6v3.4h-9.6v4.9h10.7v3.7h-15.1v-20H498z"/></g></svg>