<svg id="Layer_1" xmlns="http://www.w3.org/2000/svg" viewBox="0 0 728 90"><style>.st0{fill:#231f20}</style><path class="st0" d="M28.9 19.1l3.8 11.3 3.6-11.3h5.1v16.4H38V23.9l-4 11.6h-2.8l-4-11.5v11.5h-3.4V19.1h5.1zM43.9 27.3c0-.8.2-1.4.6-1.9.3-.5.8-.9 1.3-1.2s1.1-.5 1.8-.7c.7-.1 1.3-.2 2-.2.6 0 1.2 0 1.8.1.6.1 1.2.2 1.7.5s.9.6 1.2 1c.3.4.5 1 .5 1.7v6.2c0 .5 0 1.1.1 1.5.1.5.2.9.3 1.1h-3.3c-.1-.2-.1-.4-.1-.6 0-.2-.1-.4-.1-.6-.5.5-1.1.9-1.8 1.1s-1.4.3-2.2.3c-.6 0-1.1-.1-1.6-.2s-.9-.4-1.3-.6c-.4-.3-.7-.7-.9-1.1s-.3-1-.3-1.6c0-.7.1-1.2.4-1.7s.5-.8.9-1c.4-.3.8-.5 1.3-.6l1.5-.3c.5-.1 1-.1 1.4-.2.5 0 .9-.1 1.3-.2s.7-.2.9-.4c.2-.2.3-.4.3-.8s-.1-.6-.2-.8c-.1-.2-.3-.4-.5-.5-.2-.1-.4-.2-.7-.2-.3 0-.5-.1-.8-.1-.6 0-1.2.1-1.5.4-.4.3-.6.7-.6 1.4h-3.4zm7.6 2.4c-.1.2-.3.3-.5.3-.2.1-.4.1-.7.2s-.5.1-.7.1c-.3 0-.5.1-.8.1-.2 0-.5.1-.7.2l-.6.3c-.2.1-.3.3-.4.5-.1.2-.2.5-.2.8 0 .3.1.5.2.7.1.2.3.4.4.5.2.1.4.2.6.2.2 0 .5.1.8.1.6 0 1.1-.1 1.5-.3.4-.2.6-.5.8-.8.2-.3.3-.6.3-.9s.1-.6.1-.7v-1.3zM60.6 19.1V28l4.1-4.3h3.9L64.1 28l5 7.5h-4l-3.3-5.3-1.3 1.2v4.1h-3.3V19.1h3.4zM70.2 21.8v-2.7h3.3v2.7h-3.3zm3.2 1.9v11.9h-3.3V23.7h3.3zM78.9 23.7v1.7h.1c.4-.7 1-1.2 1.6-1.5.7-.3 1.3-.5 2-.5.9 0 1.6.1 2.2.4.6.2 1 .6 1.3 1 .3.4.5.9.7 1.5.1.6.2 1.3.2 2v7.3h-3.3v-6.7c0-1-.2-1.7-.5-2.2s-.9-.7-1.6-.7c-.9 0-1.5.3-1.9.8-.4.5-.6 1.4-.6 2.6v6.2h-3.3V23.7h3.1zM100.4 36.4c-.1.6-.4 1.2-.8 1.7s-1.1 1-1.9 1.3c-.8.4-1.9.6-3.3.6-.6 0-1.2-.1-1.8-.2-.6-.1-1.2-.4-1.7-.7s-.9-.7-1.2-1.2c-.3-.5-.5-1.1-.6-1.7h3.2c.2.6.5 1 .9 1.3s1 .4 1.5.4c.9 0 1.6-.3 2-.8.4-.6.6-1.2.6-2.1v-1.6c-.4.6-.9 1.1-1.5 1.4-.7.3-1.3.4-2.1.4-.9 0-1.7-.2-2.3-.5-.4-.3-.9-.7-1.4-1.2-.4-.5-.7-1.2-.9-1.9-.2-.7-.3-1.5-.3-2.3 0-.8.1-1.5.3-2.2.2-.7.5-1.3 1-1.9.4-.5 1-1 1.6-1.3.6-.3 1.4-.5 2.2-.5.8 0 1.5.1 2.1.4.6.3 1.1.8 1.5 1.5v-1.6h3.1v11.1c0 .5 0 1-.2 1.6zM96 32.5c.4-.2.6-.4.9-.7s.4-.7.5-1c.1-.4.2-.8.2-1.2 0-.5 0-1-.1-1.4-.1-.4-.2-.8-.5-1.2-.2-.3-.5-.6-.9-.8-.4-.2-.8-.3-1.3-.3s-.9.1-1.2.3c-.3.2-.6.4-.8.7-.2.3-.4.7-.5 1.1-.1.4-.1.8-.1 1.3 0 .4 0 .9.1 1.3s.2.8.4 1.1c.2.3.5.6.8.8.3.2.8.3 1.3.3.4 0 .8-.1 1.2-.3zM112 32.6c.1.3.3.5.6.6s.5.3.8.4c.3.1.6.1.9.1.2 0 .5 0 .7-.1s.5-.1.7-.3c.2-.1.4-.3.5-.5.1-.2.2-.4.2-.7 0-.5-.3-.9-1-1.1s-1.6-.5-2.7-.7c-.5-.1-.9-.2-1.4-.4-.5-.1-.9-.3-1.2-.6-.4-.2-.6-.5-.9-.9-.2-.4-.3-.8-.3-1.3 0-.8.1-1.4.4-1.9.3-.5.7-.9 1.2-1.2.5-.3 1-.5 1.7-.6.6-.1 1.2-.2 1.9-.2s1.3.1 1.9.2c.6.1 1.1.3 1.6.6s.9.7 1.2 1.2.5 1.1.6 1.8h-3.1c0-.6-.3-1.1-.7-1.3s-.9-.3-1.5-.3h-.6c-.2 0-.4.1-.6.1-.2.1-.3.2-.4.3-.1.1-.2.3-.2.6s.1.5.3.7.5.3.8.4c.3.1.7.2 1.2.3.4.1.9.2 1.4.3.5.1.9.2 1.4.4.5.2.9.4 1.2.6.4.3.6.6.9.9.2.4.3.8.3 1.4 0 .8-.2 1.4-.5 2-.3.5-.7 1-1.2 1.3-.5.3-1.1.5-1.7.7-.7.1-1.3.2-2 .2s-1.4-.1-2-.2c-.7-.1-1.2-.4-1.8-.7-.5-.3-.9-.7-1.3-1.3-.3-.5-.5-1.2-.5-2h3.1c-.1.7-.1 1 .1 1.2zM129.4 35.6v-1.7h-.1c-.4.7-1 1.2-1.6 1.5s-1.3.5-2 .5c-.9 0-1.6-.1-2.2-.3-.6-.2-1-.6-1.3-1-.3-.4-.5-.9-.7-1.5-.1-.6-.2-1.3-.2-2v-7.3h3.3v6.7c0 1 .2 1.7.5 2.2s.9.7 1.6.7c.9 0 1.5-.3 1.9-.8.4-.5.6-1.4.6-2.6v-6.2h3.3v11.9h-3.1zM137.9 23.7v2.2c.2-.4.4-.7.6-1 .3-.3.6-.6.9-.8.3-.2.7-.4 1.1-.5.4-.1.8-.2 1.2-.2.2 0 .5 0 .7.1v3c-.2 0-.3-.1-.6-.1h-.6c-.6 0-1.1.1-1.5.3s-.7.5-1 .8-.4.7-.5 1.2c-.1.5-.2 1-.2 1.5v5.4h-3.3V23.7h3.2zM146.6 32.7c.5.5 1.2.7 2.1.7.7 0 1.2-.2 1.7-.5s.8-.7.9-1h2.9c-.5 1.4-1.2 2.4-2.1 3.1-1 .6-2.1.9-3.5.9-.9 0-1.8-.1-2.5-.4-.8-.3-1.4-.7-1.9-1.3-.5-.6-.9-1.2-1.2-2s-.4-1.6-.4-2.5c0-.9.1-1.7.4-2.5.3-.8.7-1.4 1.2-2 .5-.6 1.2-1 1.9-1.3.7-.3 1.6-.5 2.5-.5 1 0 1.9.2 2.6.6s1.4.9 1.9 1.6.8 1.4 1 2.3c.2.8.3 1.7.2 2.6h-8.6c.2 1 .4 1.7.9 2.2zm3.7-6.2c-.4-.4-1-.6-1.8-.6-.5 0-1 .1-1.3.3-.3.2-.6.4-.8.7s-.4.5-.4.8c-.1.3-.1.6-.1.8h5.3c-.2-1-.5-1.6-.9-2zM166.7 39.1c-.6.4-1.5.6-2.6.6h-1c-.3 0-.7 0-1-.1v-2.7c.3 0 .6.1.9.1h1c.4 0 .7-.2 1-.5s.3-.6.3-1c0-.3 0-.5-.1-.7L161 23.6h3.5l2.7 8.1 2.6-8.1h3.4l-5 13.4c-.4 1-.9 1.7-1.5 2.1zM174.1 27c.3-.8.7-1.4 1.2-2 .5-.5 1.2-1 1.9-1.3.8-.3 1.6-.4 2.5-.4.9 0 1.8.1 2.5.4.8.3 1.4.7 1.9 1.3.5.5 1 1.2 1.2 2 .3.8.4 1.6.4 2.6s-.1 1.8-.4 2.6c-.3.8-.7 1.4-1.2 2-.5.5-1.2 1-1.9 1.3-.8.3-1.6.4-2.5.4-.9 0-1.8-.1-2.5-.4-.8-.3-1.4-.7-1.9-1.3-.5-.5-1-1.2-1.2-2-.3-.8-.4-1.6-.4-2.6-.1-.9.1-1.8.4-2.6zm2.9 4c.1.5.2.9.5 1.2.2.4.5.6.9.9.4.2.8.3 1.4.3.6 0 1-.1 1.4-.3.4-.2.7-.5.9-.9.2-.4.4-.8.5-1.2.1-.5.1-.9.1-1.4 0-.5 0-.9-.1-1.4-.1-.5-.2-.9-.5-1.2-.2-.4-.5-.6-.9-.9-.4-.2-.8-.3-1.4-.3-.6 0-1 .1-1.4.3-.4.2-.7.5-.9.9-.2.4-.4.8-.5 1.2-.1.5-.1.9-.1 1.4 0 .5.1 1 .1 1.4zM195.9 35.6v-1.7h-.1c-.4.7-1 1.2-1.6 1.5s-1.3.5-2 .5c-.9 0-1.6-.1-2.2-.3-.6-.2-1-.6-1.3-1-.3-.4-.5-.9-.7-1.5-.1-.6-.2-1.3-.2-2v-7.3h3.3v6.7c0 1 .2 1.7.5 2.2s.9.7 1.6.7c.9 0 1.5-.3 1.9-.8.4-.5.6-1.4.6-2.6v-6.2h3.3v11.9h-3.1zM204.4 23.7v2.2c.2-.4.4-.7.6-1 .3-.3.6-.6.9-.8.3-.2.7-.4 1.1-.5.4-.1.8-.2 1.2-.2.2 0 .5 0 .7.1v3c-.2 0-.3-.1-.6-.1h-.6c-.6 0-1.1.1-1.5.3s-.7.5-1 .8-.4.7-.5 1.2c-.1.5-.2 1-.2 1.5v5.4h-3.3V23.7h3.2zM219.6 19.1v16.4h-3.3V19.1h3.3zM222 21.8v-2.7h3.3v2.7H222zm3.3 1.9v11.9H222V23.7h3.3zM226.4 25.9v-2.2h2v-.9c0-1.1.3-1.9 1-2.6.7-.7 1.7-1 3-1h.9c.3 0 .6 0 .9.1v2.4c-.4 0-.8-.1-1.2-.1-.4 0-.8.1-1 .3s-.3.6-.3 1v.7h2.3v2.2h-2.3v9.7h-3.3v-9.7h-2zM238.5 32.7c.5.5 1.2.7 2.1.7.7 0 1.2-.2 1.7-.5s.8-.7.9-1h2.9c-.5 1.4-1.2 2.4-2.1 3.1-1 .6-2.1.9-3.5.9-.9 0-1.8-.1-2.5-.4-.8-.3-1.4-.7-1.9-1.3-.5-.6-.9-1.2-1.2-2s-.4-1.6-.4-2.5c0-.9.1-1.7.4-2.5.3-.8.7-1.4 1.2-2 .5-.6 1.2-1 1.9-1.3.7-.3 1.6-.5 2.5-.5 1 0 1.9.2 2.6.6s1.4.9 1.9 1.6.8 1.4 1 2.3c.2.8.3 1.7.2 2.6h-8.6c.2 1 .5 1.7.9 2.2zm3.7-6.2c-.4-.4-1-.6-1.8-.6-.5 0-1 .1-1.3.3-.3.2-.6.4-.8.7s-.4.5-.4.8c-.1.3-.1.6-.1.8h5.3c-.2-1-.5-1.6-.9-2zM254.3 21.8v-2.7h3.3v2.7h-3.3zm3.3 1.9v11.9h-3.3V23.7h3.3zM263 23.7v1.7h.1c.4-.7 1-1.2 1.6-1.5.7-.3 1.3-.5 2-.5.9 0 1.6.1 2.2.4.6.2 1 .6 1.3 1 .3.4.5.9.7 1.5.1.6.2 1.3.2 2v7.3h-3.3v-6.7c0-1-.2-1.7-.5-2.2s-.9-.7-1.6-.7c-.9 0-1.5.3-1.9.8-.4.5-.6 1.4-.6 2.6v6.2h-3.3V23.7h3.1zM276.1 32.6c.1.3.3.5.6.6s.5.3.8.4c.3.1.6.1.9.1.2 0 .5 0 .7-.1s.5-.1.7-.3c.2-.1.4-.3.5-.5.1-.2.2-.4.2-.7 0-.5-.3-.9-1-1.1s-1.6-.5-2.7-.7c-.5-.1-.9-.2-1.4-.4-.5-.1-.9-.3-1.2-.6-.4-.2-.6-.5-.9-.9-.2-.4-.3-.8-.3-1.3 0-.8.1-1.4.4-1.9.3-.5.7-.9 1.2-1.2.5-.3 1-.5 1.7-.6.6-.1 1.2-.2 1.9-.2s1.3.1 1.9.2c.6.1 1.1.3 1.6.6s.9.7 1.2 1.2.5 1.1.6 1.8h-3.1c0-.6-.3-1.1-.7-1.3s-.9-.3-1.5-.3h-.6c-.2 0-.4.1-.6.1-.2.1-.3.2-.4.3-.1.1-.2.3-.2.6s.1.5.3.7.5.3.8.4c.3.1.7.2 1.2.3.4.1.9.2 1.4.3.5.1.9.2 1.4.4.5.2.9.4 1.2.6.4.3.6.6.9.9.2.4.3.8.3 1.4 0 .8-.2 1.4-.5 2-.3.5-.7 1-1.2 1.3-.5.3-1.1.5-1.7.7-.7.1-1.3.2-2 .2s-1.4-.1-2-.2c-.7-.1-1.2-.4-1.8-.7-.5-.3-.9-.7-1.3-1.3-.3-.5-.5-1.2-.5-2h3.1c-.1.7 0 1 .1 1.2zM293.6 35.6v-1.7h-.1c-.4.7-1 1.2-1.6 1.5s-1.3.5-2 .5c-.9 0-1.6-.1-2.2-.3-.6-.2-1-.6-1.3-1-.3-.4-.5-.9-.7-1.5-.1-.6-.2-1.3-.2-2v-7.3h3.3v6.7c0 1 .2 1.7.5 2.2s.9.7 1.6.7c.9 0 1.5-.3 1.9-.8.4-.5.6-1.4.6-2.6v-6.2h3.3v11.9h-3.1zM302.1 23.7v2.2c.2-.4.4-.7.6-1 .3-.3.6-.6.9-.8.3-.2.7-.4 1.1-.5.4-.1.8-.2 1.2-.2.2 0 .5 0 .7.1v3c-.2 0-.3-.1-.6-.1h-.6c-.6 0-1.1.1-1.5.3s-.7.5-1 .8-.4.7-.5 1.2c-.1.5-.2 1-.2 1.5v5.4h-3.3V23.7h3.2zM307.5 27.3c0-.8.2-1.4.6-1.9.3-.5.8-.9 1.3-1.2s1.1-.5 1.8-.7c.7-.1 1.3-.2 2-.2.6 0 1.2 0 1.8.1.6.1 1.2.2 1.7.5s.9.6 1.2 1c.3.4.5 1 .5 1.7v6.2c0 .5 0 1.1.1 1.5.1.5.2.9.3 1.1h-3.3c-.1-.2-.1-.4-.1-.6 0-.2-.1-.4-.1-.6-.5.5-1.1.9-1.8 1.1s-1.4.3-2.2.3c-.6 0-1.1-.1-1.6-.2s-.9-.4-1.3-.6c-.4-.3-.7-.7-.9-1.1s-.3-1-.3-1.6c0-.7.1-1.2.4-1.7s.5-.8.9-1c.4-.3.8-.5 1.3-.6l1.5-.3c.5-.1 1-.1 1.4-.2.5 0 .9-.1 1.3-.2s.7-.2.9-.4c.2-.2.3-.4.3-.8s-.1-.6-.2-.8c-.1-.2-.3-.4-.5-.5-.2-.1-.4-.2-.7-.2-.3 0-.5-.1-.8-.1-.6 0-1.2.1-1.5.4-.4.3-.6.7-.6 1.4h-3.4zm7.6 2.4c-.1.1-.3.2-.5.3-.2.1-.4.1-.7.2s-.5.1-.7.1c-.3 0-.5.1-.8.1-.2 0-.5.1-.7.2l-.6.3c-.2.1-.3.3-.4.5-.1.2-.2.5-.2.8 0 .3.1.5.2.7.1.2.3.4.4.5.2.1.4.2.6.2.2 0 .5.1.8.1.6 0 1.1-.1 1.5-.3.4-.2.6-.5.8-.8.2-.3.3-.6.3-.9s.1-.6.1-.7v-1.3zM323.8 23.7v1.7h.1c.4-.7 1-1.2 1.6-1.5.7-.3 1.3-.5 2-.5.9 0 1.6.1 2.2.4.6.2 1 .6 1.3 1 .3.4.5.9.7 1.5.1.6.2 1.3.2 2v7.3h-3.3v-6.7c0-1-.2-1.7-.5-2.2s-.9-.7-1.6-.7c-.9 0-1.5.3-1.9.8-.4.5-.6 1.4-.6 2.6v6.2h-3.3V23.7h3.1zM339.8 25.8c-.5 0-1 .1-1.3.4-.4.2-.6.5-.9.9-.2.4-.4.8-.5 1.2-.1.5-.1.9-.1 1.3s0 .9.1 1.3.2.8.4 1.2c.2.4.5.7.8.9.4.2.8.3 1.3.3.8 0 1.4-.2 1.8-.7.4-.4.7-1 .8-1.8h3.2c-.2 1.6-.8 2.8-1.8 3.6-1 .8-2.3 1.2-3.9 1.2-.9 0-1.7-.1-2.4-.4-.7-.3-1.4-.7-1.9-1.3-.5-.5-.9-1.2-1.2-1.9-.3-.7-.4-1.6-.4-2.4 0-.9.1-1.8.4-2.6.3-.8.7-1.5 1.2-2 .5-.6 1.2-1 1.9-1.3.8-.3 1.6-.5 2.6-.5.7 0 1.4.1 2 .3.7.2 1.2.5 1.7.8.5.4.9.8 1.3 1.4.3.6.5 1.2.6 2h-3.2c-.3-1.2-1.1-1.9-2.5-1.9zM350.6 32.7c.5.5 1.2.7 2.1.7.7 0 1.2-.2 1.7-.5s.8-.7.9-1h2.9c-.5 1.4-1.2 2.4-2.1 3.1-1 .6-2.1.9-3.5.9-.9 0-1.8-.1-2.5-.4-.8-.3-1.4-.7-1.9-1.3-.5-.6-.9-1.2-1.2-2s-.4-1.6-.4-2.5c0-.9.1-1.7.4-2.5.3-.8.7-1.4 1.2-2 .5-.6 1.2-1 1.9-1.3.7-.3 1.6-.5 2.5-.5 1 0 1.9.2 2.6.6s1.4.9 1.9 1.6.8 1.4 1 2.3c.2.8.3 1.7.2 2.6h-8.6c.1 1 .4 1.7.9 2.2zm3.7-6.2c-.4-.4-1-.6-1.8-.6-.5 0-1 .1-1.3.3-.3.2-.6.4-.8.7s-.4.5-.4.8c-.1.3-.1.6-.1.8h5.3c-.2-1-.5-1.6-.9-2zM366.4 21.8v-2.7h3.3v2.7h-3.3zm3.2 1.9v11.9h-3.3V23.7h3.3zM374.7 32.6c.1.3.3.5.6.6.2.2.5.3.8.4.3.1.6.1.9.1.2 0 .5 0 .7-.1s.5-.1.7-.3c.2-.1.4-.3.5-.5.1-.2.2-.4.2-.7 0-.5-.3-.9-1-1.1s-1.6-.5-2.7-.7c-.5-.1-.9-.2-1.4-.4-.5-.1-.9-.3-1.2-.6-.4-.2-.6-.5-.9-.9s-.3-.8-.3-1.3c0-.8.1-1.4.4-1.9s.7-.9 1.2-1.2c.5-.3 1-.5 1.7-.6.6-.1 1.2-.2 1.9-.2.6 0 1.3.1 1.9.2s1.1.3 1.6.6.9.7 1.2 1.2c.3.5.5 1.1.6 1.8H379c0-.6-.3-1.1-.7-1.3-.4-.2-.9-.3-1.5-.3h-.6c-.2 0-.4.1-.6.1-.2.1-.3.2-.4.3-.1.1-.2.3-.2.6s.1.5.3.7c.2.2.5.3.8.4.3.1.7.2 1.2.3.4.1.9.2 1.4.3.5.1.9.2 1.4.4.5.2.9.4 1.2.6s.6.6.9.9c.2.4.3.8.3 1.4 0 .8-.2 1.4-.5 2-.3.5-.7 1-1.2 1.3-.5.3-1.1.5-1.7.7-.7.1-1.3.2-2 .2s-1.4-.1-2-.2c-.7-.1-1.2-.4-1.8-.7-.5-.3-.9-.7-1.3-1.3-.3-.5-.5-1.2-.5-2h3.1c-.1.7 0 1 .1 1.2zM393 32.6c.1.3.3.5.6.6.2.2.5.3.8.4.3.1.6.1.9.1.2 0 .5 0 .7-.1s.5-.1.7-.3c.2-.1.4-.3.5-.5.1-.2.2-.4.2-.7 0-.5-.3-.9-1-1.1s-1.6-.5-2.7-.7c-.5-.1-.9-.2-1.4-.4-.5-.1-.9-.3-1.2-.6-.4-.2-.6-.5-.9-.9s-.3-.8-.3-1.3c0-.8.1-1.4.4-1.9s.7-.9 1.2-1.2c.5-.3 1-.5 1.7-.6.6-.1 1.2-.2 1.9-.2.6 0 1.3.1 1.9.2s1.1.3 1.6.6.9.7 1.2 1.2c.3.5.5 1.1.6 1.8h-3.1c0-.6-.3-1.1-.7-1.3-.4-.2-.9-.3-1.5-.3h-.6c-.2 0-.4.1-.6.1-.2.1-.3.2-.4.3-.1.1-.2.3-.2.6s.1.5.3.7c.2.2.5.3.8.4.3.1.7.2 1.2.3.4.1.9.2 1.4.3.5.1.9.2 1.4.4.5.2.9.4 1.2.6s.6.6.9.9c.2.4.3.8.3 1.4 0 .8-.2 1.4-.5 2-.3.5-.7 1-1.2 1.3-.5.3-1.1.5-1.7.7-.7.1-1.3.2-2 .2s-1.4-.1-2-.2c-.7-.1-1.2-.4-1.8-.7-.5-.3-.9-.7-1.3-1.3-.3-.5-.5-1.2-.5-2h3.1c-.1.7 0 1 .1 1.2zM409 23.7v2.2h-2.4v5.9c0 .6.1.9.3 1.1.2.2.6.3 1.1.3h.5c.2 0 .3 0 .5-.1v2.5c-.3 0-.6.1-.9.1h-1c-.5 0-1 0-1.4-.1-.5-.1-.9-.2-1.2-.4-.3-.2-.6-.5-.8-.9-.2-.4-.3-.9-.3-1.4v-7h-2v-2.2h2v-3.6h3.3v3.6h2.3zM410.4 21.8v-2.7h3.3v2.7h-3.3zm3.3 1.9v11.9h-3.3V23.7h3.3zM419.4 19.1v16.4h-3.3V19.1h3.3zM425.1 19.1v16.4h-3.3V19.1h3.3zM433.7 21.8v-2.7h3.3v2.7h-3.3zm3.3 1.9v11.9h-3.3V23.7h3.3zM442.4 23.7v1.7h.1c.4-.7 1-1.2 1.6-1.5.7-.3 1.3-.5 2-.5.9 0 1.6.1 2.2.4s1 .6 1.3 1c.3.4.5.9.7 1.5.1.6.2 1.3.2 2v7.3h-3.3v-6.7c0-1-.2-1.7-.5-2.2s-.9-.7-1.6-.7c-.9 0-1.5.3-1.9.8-.4.5-.6 1.4-.6 2.6v6.2h-3.3V23.7h3.1z"/><g><path class="st0" d="M26.2 58.6c.1.3.3.5.6.6.2.2.5.3.8.4.3.1.6.1.9.1.2 0 .5 0 .7-.1s.5-.1.7-.3.4-.3.5-.5c.1-.2.2-.4.2-.7 0-.5-.3-.9-1-1.1-.7-.2-1.6-.5-2.7-.7-.5-.1-.9-.2-1.4-.4-.5-.1-.9-.3-1.2-.6-.4-.2-.6-.5-.9-.9-.2-.4-.3-.8-.3-1.3 0-.8.1-1.4.4-1.9.3-.5.7-.9 1.2-1.2.5-.3 1-.5 1.7-.6.6-.1 1.2-.2 1.9-.2s1.3.1 1.9.2c.6.1 1.1.3 1.6.6s.9.7 1.2 1.2c.3.5.5 1.1.6 1.8h-3.1c0-.6-.3-1.1-.7-1.3s-.9-.3-1.5-.3h-.6c-.2 0-.4.1-.6.1-.2.1-.3.2-.4.3-.1.1-.2.3-.2.6s.1.5.3.7.5.3.8.4c.3.1.7.2 1.2.3.4.1.9.2 1.4.3.5.1.9.2 1.4.4.5.2.9.4 1.2.6.4.3.6.6.9.9.2.4.3.8.3 1.4 0 .8-.2 1.4-.5 2-.3.5-.7 1-1.2 1.3s-1.1.5-1.7.7c-.7.1-1.3.2-2 .2s-1.4-.1-2-.2c-.7-.1-1.2-.4-1.8-.7-.5-.3-.9-.7-1.3-1.3-.3-.5-.5-1.2-.5-2h3c0 .6 0 .9.2 1.2zM40 65.1c-.6.4-1.5.6-2.6.6h-1c-.3 0-.7-.1-1-.1v-2.7c.3 0 .6.1.9.1h1c.4 0 .7-.2 1-.5s.3-.6.3-1c0-.3 0-.5-.1-.7l-4.2-11.2h3.5l2.7 8.1 2.6-8.1h3.4l-5 13.4c-.4 1-.9 1.7-1.5 2.1zM50.4 49.7v1.7h.1c.4-.7 1-1.2 1.6-1.5s1.3-.5 2-.5c.9 0 1.6.1 2.2.4.6.2 1 .6 1.3 1 .3.4.5.9.7 1.5.1.6.2 1.3.2 2v7.3h-3.3v-6.7c0-1-.2-1.7-.5-2.2-.3-.5-.9-.7-1.6-.7-.9 0-1.5.3-1.9.8-.4.5-.6 1.4-.6 2.6v6.2h-3.3V49.7h3.1zM66.4 51.8c-.5 0-1 .1-1.3.4-.4.2-.6.5-.9.9-.2.4-.4.8-.5 1.2-.1.5-.1.9-.1 1.3s0 .9.1 1.3.2.8.4 1.2.5.7.8.9c.4.2.8.3 1.3.3.8 0 1.4-.2 1.8-.7.4-.4.7-1 .8-1.8H72c-.2 1.6-.8 2.8-1.8 3.6-1 .8-2.3 1.2-3.9 1.2-.9 0-1.7-.1-2.4-.4-.7-.3-1.4-.7-1.9-1.3-.5-.5-.9-1.2-1.2-1.9-.3-.7-.4-1.6-.4-2.5 0-.9.1-1.8.4-2.6.3-.8.7-1.5 1.2-2 .5-.6 1.2-1 1.9-1.3.8-.3 1.6-.5 2.6-.5.7 0 1.4.1 2 .3.7.2 1.2.5 1.7.8.5.4.9.8 1.3 1.4.3.6.5 1.2.6 2h-3.2c-.3-1.1-1.1-1.8-2.5-1.8zM90.1 61.6l-2.1-8-2 8h-3.4l-3.8-11.9h3.4l2.2 8.1 2-8.1h3.2l2 8 2.2-8h3.4l-3.7 11.9h-3.4zM98.5 47.8v-2.7h3.3v2.7h-3.3zm3.3 1.9v11.9h-3.3V49.7h3.3zM110.6 49.7v2.2h-2.4v5.9c0 .6.1.9.3 1.1.2.2.6.3 1.1.3h.5c.2 0 .3 0 .5-.1v2.5c-.3 0-.6.1-.9.1h-1c-.5 0-1 0-1.4-.1-.5-.1-.9-.2-1.2-.4-.3-.2-.6-.5-.8-.9-.2-.4-.3-.9-.3-1.4v-7h-2v-2.2h2v-3.6h3.3v3.6h2.3zM115.3 45.1v6.2h.1c.4-.7.9-1.2 1.6-1.5s1.3-.5 1.9-.5c.9 0 1.6.1 2.2.4.6.2 1 .6 1.3 1 .3.4.5.9.7 1.5.1.6.2 1.3.2 2v7.3H120v-6.7c0-1-.2-1.7-.5-2.2-.3-.5-.9-.7-1.6-.7-.9 0-1.5.3-1.9.8-.4.5-.6 1.4-.6 2.6v6.2H112V45.1h3.3zM136 65.1c-.6.4-1.5.6-2.6.6h-1c-.3 0-.7-.1-1-.1v-2.7c.3 0 .6.1.9.1h1c.4 0 .7-.2 1-.5s.3-.6.3-1c0-.3 0-.5-.1-.7l-4.2-11.2h3.5l2.7 8.1 2.6-8.1h3.4l-5 13.4c-.4 1-.9 1.7-1.5 2.1zM143.4 53c.3-.8.7-1.4 1.2-2 .5-.5 1.2-1 1.9-1.3s1.6-.4 2.5-.4c.9 0 1.8.1 2.5.4.8.3 1.4.7 1.9 1.3.5.5 1 1.2 1.2 2 .3.8.4 1.6.4 2.6s-.1 1.8-.4 2.6c-.3.8-.7 1.4-1.2 2-.5.5-1.2 1-1.9 1.3-.8.3-1.6.4-2.5.4-.9 0-1.8-.1-2.5-.4s-1.4-.7-1.9-1.3c-.5-.5-1-1.2-1.2-2-.3-.8-.4-1.6-.4-2.6 0-.9.1-1.8.4-2.6zm3 4c.1.5.2.9.5 1.2.2.4.5.6.9.9.4.2.8.3 1.4.3.6 0 1-.1 1.4-.3.4-.2.7-.5.9-.9.2-.4.4-.8.5-1.2.1-.5.1-.9.1-1.4 0-.5 0-.9-.1-1.4-.1-.5-.2-.9-.5-1.2-.2-.4-.5-.6-.9-.9-.4-.2-.8-.3-1.4-.3-.6 0-1 .1-1.4.3-.4.2-.7.5-.9.9-.2.4-.4.8-.5 1.2-.1.5-.1.9-.1 1.4-.1.5 0 1 .1 1.4zM165.2 61.6v-1.7h-.1c-.4.7-1 1.2-1.6 1.5s-1.3.5-2 .5c-.9 0-1.6-.1-2.2-.3-.6-.2-1-.6-1.3-1-.3-.4-.5-.9-.7-1.5-.1-.6-.2-1.3-.2-2v-7.3h3.3v6.7c0 1 .2 1.7.5 2.2s.9.7 1.6.7c.9 0 1.5-.3 1.9-.8.4-.5.6-1.4.6-2.6v-6.2h3.3v11.9h-3.1zM173.7 49.7v2.2c.2-.4.4-.7.6-1 .3-.3.6-.6.9-.8.3-.2.7-.4 1.1-.5.4-.1.8-.2 1.2-.2.2 0 .5 0 .7.1v3c-.2 0-.3-.1-.6-.1h-.6c-.6 0-1.1.1-1.5.3s-.7.5-1 .8-.4.7-.5 1.2c-.1.5-.2 1-.2 1.5v5.4h-3.3V49.7h3.2zM196.7 62.4c-.1.6-.4 1.2-.8 1.7s-1.1 1-1.9 1.3c-.8.4-1.9.6-3.3.6-.6 0-1.2-.1-1.8-.2-.6-.1-1.2-.4-1.7-.7s-.9-.7-1.2-1.2c-.3-.5-.5-1.1-.6-1.7h3.2c.2.6.5 1 .9 1.3s1 .4 1.5.4c.9 0 1.6-.3 2-.8.4-.6.6-1.2.6-2.1v-1.6c-.4.6-.9 1.1-1.5 1.4-.7.3-1.3.4-2.1.4-.9 0-1.7-.2-2.3-.5-.6-.3-1.2-.7-1.6-1.3-.4-.5-.7-1.2-.9-1.9-.2-.7-.3-1.5-.3-2.3 0-.8.1-1.5.3-2.2.2-.7.5-1.3 1-1.9.4-.5 1-1 1.6-1.3.6-.3 1.4-.5 2.2-.5.8 0 1.5.1 2.1.4.6.3 1.1.8 1.5 1.5v-1.6h3.1v11.1c.2.6.2 1.1 0 1.7zm-4.4-3.9c.4-.2.6-.4.9-.7.2-.3.4-.7.5-1 .1-.4.2-.8.2-1.2 0-.5 0-1-.1-1.4-.1-.4-.2-.8-.5-1.2-.2-.3-.5-.6-.9-.8-.4-.2-.8-.3-1.3-.3s-.9.1-1.2.3c-.3.2-.6.4-.8.7-.2.3-.4.7-.5 1.1-.1.4-.1.8-.1 1.3 0 .4 0 .9.1 1.3s.2.8.4 1.1c.2.3.5.6.8.8.3.2.8.3 1.3.3.4-.1.8-.1 1.2-.3zM199.4 53c.3-.8.7-1.4 1.2-2 .5-.5 1.2-1 1.9-1.3s1.6-.4 2.5-.4c.9 0 1.8.1 2.5.4.8.3 1.4.7 1.9 1.3.5.5 1 1.2 1.2 2 .3.8.4 1.6.4 2.6s-.1 1.8-.4 2.6c-.3.8-.7 1.4-1.2 2-.5.5-1.2 1-1.9 1.3-.8.3-1.6.4-2.5.4-.9 0-1.8-.1-2.5-.4s-1.4-.7-1.9-1.3c-.5-.5-1-1.2-1.2-2-.3-.8-.4-1.6-.4-2.6 0-.9.1-1.8.4-2.6zm3 4c.1.5.2.9.5 1.2.2.4.5.6.9.9.4.2.8.3 1.4.3.6 0 1-.1 1.4-.3.4-.2.7-.5.9-.9.2-.4.4-.8.5-1.2.1-.5.1-.9.1-1.4 0-.5 0-.9-.1-1.4-.1-.5-.2-.9-.5-1.2-.2-.4-.5-.6-.9-.9-.4-.2-.8-.3-1.4-.3-.6 0-1 .1-1.4.3-.4.2-.7.5-.9.9-.2.4-.4.8-.5 1.2-.1.5-.1.9-.1 1.4-.1.5 0 1 .1 1.4zM213 53.3c0-.8.2-1.4.6-1.9.3-.5.8-.9 1.3-1.2.5-.3 1.1-.5 1.8-.7.7-.1 1.3-.2 2-.2.6 0 1.2 0 1.8.1.6.1 1.2.2 1.7.5s.9.6 1.2 1c.3.4.5 1 .5 1.7v6.2c0 .5 0 1 .1 1.5s.2.9.3 1.1H221c-.1-.2-.1-.4-.1-.6 0-.2-.1-.4-.1-.6-.5.5-1.1.9-1.8 1.1-.7.2-1.4.3-2.2.3-.6 0-1.1-.1-1.6-.2s-.9-.4-1.3-.6c-.4-.3-.7-.7-.9-1.1-.2-.4-.3-1-.3-1.6 0-.7.1-1.2.4-1.7.2-.4.5-.8.9-1 .4-.3.8-.5 1.3-.6l1.5-.3c.5-.1 1-.1 1.4-.2.5 0 .9-.1 1.3-.2s.7-.2.9-.4c.2-.2.3-.4.3-.8s-.1-.6-.2-.8c-.1-.2-.3-.4-.5-.5-.2-.1-.4-.2-.7-.2-.3 0-.5-.1-.8-.1-.6 0-1.2.1-1.5.4-.4.3-.6.7-.6 1.4H213zm7.6 2.4c-.1.1-.3.2-.5.3-.2.1-.4.1-.7.2s-.5.1-.7.1c-.3 0-.5.1-.8.1-.2 0-.5.1-.7.2l-.6.3c-.2.1-.3.3-.4.5-.1.2-.2.5-.2.8 0 .3.1.5.2.7.1.2.3.4.4.5.2.1.4.2.6.2.2 0 .5.1.8.1.6 0 1.1-.1 1.5-.3.4-.2.6-.5.8-.8.2-.3.3-.6.3-.9 0-.3.1-.6.1-.7v-1.3zM229.5 45.1v16.4h-3.3V45.1h3.3zM234.6 58.6c.1.3.3.5.6.6.2.2.5.3.8.4.3.1.6.1.9.1.2 0 .5 0 .7-.1s.5-.1.7-.3.4-.3.5-.5c.1-.2.2-.4.2-.7 0-.5-.3-.9-1-1.1-.7-.2-1.6-.5-2.7-.7-.5-.1-.9-.2-1.4-.4-.5-.1-.9-.3-1.2-.6-.4-.2-.6-.5-.9-.9-.2-.4-.3-.8-.3-1.3 0-.8.1-1.4.4-1.9.3-.5.7-.9 1.2-1.2.5-.3 1-.5 1.7-.6.6-.1 1.2-.2 1.9-.2s1.3.1 1.9.2c.6.1 1.1.3 1.6.6s.9.7 1.2 1.2c.3.5.5 1.1.6 1.8h-3.1c0-.6-.3-1.1-.7-1.3s-.9-.3-1.5-.3h-.6c-.2 0-.4.1-.6.1-.2.1-.3.2-.4.3-.1.1-.2.3-.2.6s.1.5.3.7.5.3.8.4c.3.1.7.2 1.2.3.4.1.9.2 1.4.3.5.1.9.2 1.4.4.5.2.9.4 1.2.6.4.3.6.6.9.9.2.4.3.8.3 1.4 0 .8-.2 1.4-.5 2-.3.5-.7 1-1.2 1.3s-1.1.5-1.7.7c-.7.1-1.3.2-2 .2s-1.4-.1-2-.2c-.7-.1-1.2-.4-1.8-.7-.5-.3-.9-.7-1.3-1.3-.3-.5-.5-1.2-.5-2h3.1c-.1.6 0 .9.1 1.2zM250.3 47.8v-2.7h3.3v2.7h-3.3zm3.2 1.9v11.9h-3.3V49.7h3.3zM258.6 58.6c.1.3.3.5.6.6.2.2.5.3.8.4.3.1.6.1.9.1.2 0 .5 0 .7-.1s.5-.1.7-.3.4-.3.5-.5c.1-.2.2-.4.2-.7 0-.5-.3-.9-1-1.1-.7-.2-1.6-.5-2.7-.7-.5-.1-.9-.2-1.4-.4-.5-.1-.9-.3-1.2-.6-.4-.2-.6-.5-.9-.9-.2-.4-.3-.8-.3-1.3 0-.8.1-1.4.4-1.9.3-.5.7-.9 1.2-1.2.5-.3 1-.5 1.7-.6.6-.1 1.2-.2 1.9-.2s1.3.1 1.9.2c.6.1 1.1.3 1.6.6s.9.7 1.2 1.2c.3.5.5 1.1.6 1.8h-3.1c0-.6-.3-1.1-.7-1.3s-.9-.3-1.5-.3h-.6c-.2 0-.4.1-.6.1-.2.1-.3.2-.4.3-.1.1-.2.3-.2.6s.1.5.3.7.5.3.8.4c.3.1.7.2 1.2.3.4.1.9.2 1.4.3.5.1.9.2 1.4.4.5.2.9.4 1.2.6.4.3.6.6.9.9.2.4.3.8.3 1.4 0 .8-.2 1.4-.5 2-.3.5-.7 1-1.2 1.3s-1.1.5-1.7.7c-.7.1-1.3.2-2 .2s-1.4-.1-2-.2c-.7-.1-1.2-.4-1.8-.7-.5-.3-.9-.7-1.3-1.3-.3-.5-.5-1.2-.5-2h3.1c-.1.6 0 .9.1 1.2zM274.1 53.3c0-.8.2-1.4.6-1.9.3-.5.8-.9 1.3-1.2.5-.3 1.1-.5 1.8-.7.7-.1 1.3-.2 2-.2.6 0 1.2 0 1.8.1.6.1 1.2.2 1.7.5s.9.6 1.2 1c.3.4.5 1 .5 1.7v6.2c0 .5 0 1 .1 1.5s.2.9.3 1.1H282c-.1-.2-.1-.4-.1-.6 0-.2-.1-.4-.1-.6-.5.5-1.1.9-1.8 1.1-.7.2-1.4.3-2.2.3-.6 0-1.1-.1-1.6-.2s-.9-.4-1.3-.6c-.4-.3-.7-.7-.9-1.1-.2-.4-.3-1-.3-1.6 0-.7.1-1.2.4-1.7.2-.4.5-.8.9-1 .4-.3.8-.5 1.3-.6l1.5-.3c.5-.1 1-.1 1.4-.2.5 0 .9-.1 1.3-.2s.7-.2.9-.4c.2-.2.3-.4.3-.8s-.1-.6-.2-.8c-.1-.2-.3-.4-.5-.5-.2-.1-.4-.2-.7-.2-.3 0-.5-.1-.8-.1-.6 0-1.2.1-1.5.4-.4.3-.6.7-.6 1.4h-3.3zm7.5 2.4c-.1.1-.3.2-.5.3-.2.1-.4.1-.7.2s-.5.1-.7.1c-.3 0-.5.1-.8.1-.2 0-.5.1-.7.2l-.6.3c-.2.1-.3.3-.4.5-.1.2-.2.5-.2.8 0 .3.1.5.2.7.1.2.3.4.4.5.2.1.4.2.6.2.2 0 .5.1.8.1.6 0 1.1-.1 1.5-.3.4-.2.6-.5.8-.8.2-.3.3-.6.3-.9 0-.3.1-.6.1-.7v-1.3zM304.6 62.4c-.1.6-.4 1.2-.8 1.7s-1.1 1-1.9 1.3c-.8.4-1.9.6-3.3.6-.6 0-1.2-.1-1.8-.2-.6-.1-1.2-.4-1.7-.7s-.9-.7-1.2-1.2c-.3-.5-.5-1.1-.6-1.7h3.2c.2.6.5 1 .9 1.3s1 .4 1.5.4c.9 0 1.6-.3 2-.8.4-.6.6-1.2.6-2.1v-1.6c-.4.6-.9 1.1-1.5 1.4-.7.3-1.3.4-2.1.4-.9 0-1.7-.2-2.3-.5-.6-.3-1.2-.7-1.6-1.3-.4-.5-.7-1.2-.9-1.9-.2-.7-.3-1.5-.3-2.3 0-.8.1-1.5.3-2.2.2-.7.5-1.3 1-1.9.4-.5 1-1 1.6-1.3.6-.3 1.4-.5 2.2-.5.8 0 1.5.1 2.1.4.6.3 1.1.8 1.5 1.5v-1.6h3.1v11.1c.2.6.2 1.1 0 1.7zm-4.4-3.9c.4-.2.6-.4.9-.7.2-.3.4-.7.5-1 .1-.4.2-.8.2-1.2 0-.5 0-1-.1-1.4-.1-.4-.2-.8-.5-1.2-.2-.3-.5-.6-.9-.8-.4-.2-.8-.3-1.3-.3s-.9.1-1.2.3c-.3.2-.6.4-.8.7-.2.3-.4.7-.5 1.1-.1.4-.1.8-.1 1.3 0 .4 0 .9.1 1.3s.2.8.4 1.1c.2.3.5.6.8.8.3.2.8.3 1.3.3.4-.1.8-.1 1.2-.3zM307.3 53c.3-.8.7-1.4 1.2-2 .5-.5 1.2-1 1.9-1.3s1.6-.4 2.5-.4c.9 0 1.8.1 2.5.4.8.3 1.4.7 1.9 1.3.5.5 1 1.2 1.2 2 .3.8.4 1.6.4 2.6s-.1 1.8-.4 2.6c-.3.8-.7 1.4-1.2 2-.5.5-1.2 1-1.9 1.3-.8.3-1.6.4-2.5.4-.9 0-1.8-.1-2.5-.4s-1.4-.7-1.9-1.3c-.5-.5-1-1.2-1.2-2-.3-.8-.4-1.6-.4-2.6 0-.9.1-1.8.4-2.6zm3 4c.1.5.2.9.5 1.2.2.4.5.6.9.9.4.2.8.3 1.4.3.6 0 1-.1 1.4-.3.4-.2.7-.5.9-.9.2-.4.4-.8.5-1.2.1-.5.1-.9.1-1.4 0-.5 0-.9-.1-1.4-.1-.5-.2-.9-.5-1.2-.2-.4-.5-.6-.9-.9-.4-.2-.8-.3-1.4-.3-.6 0-1 .1-1.4.3-.4.2-.7.5-.9.9-.2.4-.4.8-.5 1.2-.1.5-.1.9-.1 1.4-.1.5 0 1 .1 1.4zM321.1 53c.3-.8.7-1.4 1.2-2 .5-.5 1.2-1 1.9-1.3s1.6-.4 2.5-.4c.9 0 1.8.1 2.5.4.8.3 1.4.7 1.9 1.3.5.5 1 1.2 1.2 2 .3.8.4 1.6.4 2.6s-.1 1.8-.4 2.6c-.3.8-.7 1.4-1.2 2-.5.5-1.2 1-1.9 1.3-.8.3-1.6.4-2.5.4-.9 0-1.8-.1-2.5-.4s-1.4-.7-1.9-1.3c-.5-.5-1-1.2-1.2-2-.3-.8-.4-1.6-.4-2.6 0-.9.1-1.8.4-2.6zm3 4c.1.5.2.9.5 1.2.2.4.5.6.9.9.4.2.8.3 1.4.3.6 0 1-.1 1.4-.3.4-.2.7-.5.9-.9.2-.4.4-.8.5-1.2.1-.5.1-.9.1-1.4 0-.5 0-.9-.1-1.4-.1-.5-.2-.9-.5-1.2-.2-.4-.5-.6-.9-.9-.4-.2-.8-.3-1.4-.3-.6 0-1 .1-1.4.3-.4.2-.7.5-.9.9-.2.4-.4.8-.5 1.2-.1.5-.1.9-.1 1.4-.1.5 0 1 .1 1.4zM343.3 60c-.4.6-.9 1.1-1.5 1.4-.6.3-1.3.4-2.1.4-.9 0-1.7-.2-2.3-.5-.7-.3-1.2-.8-1.7-1.4-.4-.6-.8-1.3-1-2-.2-.8-.3-1.6-.3-2.4 0-.8.1-1.6.3-2.3s.6-1.4 1-2 1-1 1.6-1.4c.7-.3 1.4-.5 2.3-.5.7 0 1.4.1 2 .4.6.3 1.1.7 1.5 1.3v-6h3.3v16.4h-3.1V60zm-.1-5.8c-.1-.5-.2-.9-.5-1.2-.2-.3-.5-.6-.9-.8-.4-.2-.8-.3-1.3-.3s-1 .1-1.4.3-.7.5-.9.9-.4.8-.5 1.2-.1.9-.1 1.4c0 .5.1.9.2 1.4.1.5.3.9.5 1.2.2.4.5.7.9.9.4.2.8.3 1.3.3s1-.1 1.3-.3c.4-.2.6-.5.9-.9.2-.4.4-.8.5-1.2.1-.5.1-.9.1-1.4 0-.6 0-1.1-.1-1.5zM358 49.7v1.5c.4-.6.9-1.1 1.5-1.4.6-.3 1.3-.4 2-.4.9 0 1.7.2 2.4.5s1.2.8 1.7 1.4c.4.6.8 1.3 1 2s.3 1.6.3 2.4c0 .8-.1 1.6-.3 2.3-.2.7-.5 1.4-1 2-.4.6-1 1-1.6 1.4s-1.4.5-2.3.5c-.7 0-1.4-.1-2-.4s-1.1-.7-1.5-1.3v5.6h-3.3V49.7h3.1zm4.2 9.4c.4-.2.7-.5.9-.8.2-.3.4-.7.5-1.2.1-.5.1-.9.1-1.4 0-.5 0-.9-.1-1.4-.1-.5-.3-.9-.5-1.2-.2-.4-.5-.7-.9-.9-.4-.2-.8-.3-1.3-.3s-1 .1-1.3.3c-.4.2-.7.5-.9.9s-.4.8-.5 1.2c-.1.5-.1.9-.1 1.4 0 .5 0 .9.1 1.4.1.5.3.9.5 1.2.2.3.5.6.9.8.4.2.8.3 1.3.3s1-.1 1.3-.3zM372.1 45.1v16.4h-3.3V45.1h3.3zM374.3 53.3c0-.8.2-1.4.6-1.9.3-.5.8-.9 1.3-1.2.5-.3 1.1-.5 1.8-.7.7-.1 1.3-.2 2-.2.6 0 1.2 0 1.8.1.6.1 1.2.2 1.7.5.5.2.9.6 1.2 1 .3.4.5 1 .5 1.7v6.2c0 .5 0 1 .1 1.5s.2.9.3 1.1h-3.3c-.1-.2-.1-.4-.1-.6s-.1-.4-.1-.6c-.5.5-1.1.9-1.8 1.1-.7.2-1.4.3-2.2.3-.6 0-1.1-.1-1.6-.2s-.9-.4-1.3-.6-.7-.7-.9-1.1c-.2-.4-.3-1-.3-1.6 0-.7.1-1.2.4-1.7.2-.4.5-.8.9-1 .4-.3.8-.5 1.3-.6l1.5-.3c.5-.1 1-.1 1.4-.2s.9-.1 1.3-.2.7-.2.9-.4c.2-.2.3-.4.3-.8s-.1-.6-.2-.8-.3-.4-.5-.5c-.2-.1-.4-.2-.7-.2-.3 0-.5-.1-.8-.1-.6 0-1.2.1-1.5.4-.4.3-.6.7-.6 1.4h-3.4zm7.5 2.4c-.1.1-.3.2-.5.3-.2.1-.4.1-.7.2-.2 0-.5.1-.7.1-.3 0-.5.1-.8.1-.2 0-.5.1-.7.2l-.6.3c-.2.1-.3.3-.4.5s-.2.5-.2.8c0 .3.1.5.2.7s.3.4.4.5c.2.1.4.2.6.2s.5.1.8.1c.6 0 1.1-.1 1.5-.3s.6-.5.8-.8c.2-.3.3-.6.3-.9 0-.3.1-.6.1-.7v-1.3zM390.5 49.7v1.7h.1c.4-.7 1-1.2 1.6-1.5.7-.3 1.3-.5 2-.5.9 0 1.6.1 2.2.4.6.2 1 .6 1.3 1 .3.4.5.9.7 1.5.1.6.2 1.3.2 2v7.3h-3.3v-6.7c0-1-.2-1.7-.5-2.2-.3-.5-.9-.7-1.6-.7-.9 0-1.5.3-1.9.8-.4.5-.6 1.4-.6 2.6v6.2h-3.3V49.7h3.1zM404.6 58v3.5c0 .5-.1 1-.3 1.4-.2.4-.4.8-.8 1.1s-.7.6-1.1.8c-.4.2-.9.3-1.4.4v-1.7c.2 0 .4-.1.7-.3.2-.1.4-.3.5-.5s.3-.4.3-.6c.1-.2.1-.5.1-.7H401V58h3.6zM419.7 49.7v2.2h-2.4v5.9c0 .6.1.9.3 1.1.2.2.6.3 1.1.3h.5c.1 0 .3 0 .5-.1v2.5c-.3 0-.6.1-.9.1h-1c-.5 0-1 0-1.4-.1-.5-.1-.9-.2-1.2-.4s-.6-.5-.8-.9-.3-.9-.3-1.4v-7h-2v-2.2h2v-3.6h3.3v3.6h2.3zM421.2 53c.3-.8.7-1.4 1.2-2 .5-.5 1.2-1 1.9-1.3.8-.3 1.6-.4 2.5-.4s1.8.1 2.5.4 1.4.7 1.9 1.3c.5.5 1 1.2 1.2 2 .3.8.4 1.6.4 2.6s-.1 1.8-.4 2.6c-.3.8-.7 1.4-1.2 2-.5.5-1.2 1-1.9 1.3s-1.6.4-2.5.4-1.8-.1-2.5-.4c-.8-.3-1.4-.7-1.9-1.3-.5-.5-1-1.2-1.2-2-.3-.8-.4-1.6-.4-2.6-.1-.9.1-1.8.4-2.6zm2.9 4c.1.5.2.9.5 1.2.2.4.5.6.9.9s.8.3 1.4.3c.6 0 1-.1 1.4-.3s.7-.5.9-.9c.2-.4.4-.8.5-1.2.1-.5.1-.9.1-1.4 0-.5 0-.9-.1-1.4-.1-.5-.2-.9-.5-1.2-.2-.4-.5-.6-.9-.9-.4-.2-.8-.3-1.4-.3-.6 0-1 .1-1.4.3-.4.2-.7.5-.9.9-.2.4-.4.8-.5 1.2-.1.5-.1.9-.1 1.4 0 .5 0 1 .1 1.4zM435 53c.3-.8.7-1.4 1.2-2 .5-.5 1.2-1 1.9-1.3.8-.3 1.6-.4 2.5-.4s1.8.1 2.5.4 1.4.7 1.9 1.3c.5.5 1 1.2 1.2 2 .3.8.4 1.6.4 2.6s-.1 1.8-.4 2.6c-.3.8-.7 1.4-1.2 2-.5.5-1.2 1-1.9 1.3s-1.6.4-2.5.4-1.8-.1-2.5-.4c-.8-.3-1.4-.7-1.9-1.3-.5-.5-1-1.2-1.2-2-.3-.8-.4-1.6-.4-2.6 0-.9.1-1.8.4-2.6zm3 4c.1.5.2.9.5 1.2.2.4.5.6.9.9s.8.3 1.4.3c.6 0 1-.1 1.4-.3s.7-.5.9-.9c.2-.4.4-.8.5-1.2.1-.5.1-.9.1-1.4 0-.5 0-.9-.1-1.4-.1-.5-.2-.9-.5-1.2-.2-.4-.5-.6-.9-.9-.4-.2-.8-.3-1.4-.3-.6 0-1 .1-1.4.3-.4.2-.7.5-.9.9-.2.4-.4.8-.5 1.2-.1.5-.1.9-.1 1.4-.1.5 0 1 .1 1.4zM452.5 58v3.5h-3.6V58h3.6z"/></g></svg>