<svg xmlns="http://www.w3.org/2000/svg" viewBox="0 0 728 90"><path d="M32.6 19.2c.7 0 1.4.1 2 .4.6.2 1.1.6 1.5 1 .4.4.7.9 1 1.4.2.5.3 1.1.3 1.8 0 1-.2 1.8-.6 2.5-.4.7-1.1 1.2-2 1.6.4.1.8.3 1.1.6.3.3.5.6.7.9.2.3.3.7.4 1.1.1.4.1.8.2 1.2v.9c0 .3 0 .7.1 1.1 0 .4.1.7.2 1 .1.3.2.6.4.8h-3.6c-.2-.5-.3-1.1-.4-1.9s-.1-1.4-.2-2.1c-.1-.9-.4-1.5-.8-1.9-.4-.4-1.1-.6-2-.6h-3.6v6.4h-3.6V19.2h8.9zm-1.3 7.4c.8 0 1.4-.2 1.9-.6s.6-1 .6-1.8-.2-1.4-.6-1.7c-.4-.4-1-.5-1.9-.5h-4v4.6h4zM43.5 32.7c.5.5 1.2.7 2.1.7.7 0 1.2-.2 1.7-.5s.8-.7.9-1h2.9c-.5 1.4-1.2 2.4-2.1 3.1-1 .6-2.1.9-3.5.9-.9 0-1.8-.1-2.5-.4-.8-.3-1.4-.7-1.9-1.3-.5-.6-.9-1.2-1.2-2s-.4-1.6-.4-2.5c0-.9.1-1.7.4-2.5.3-.8.7-1.4 1.2-2 .5-.6 1.2-1 1.9-1.3.7-.3 1.6-.5 2.5-.5 1 0 1.9.2 2.6.6s1.4.9 1.9 1.6.8 1.4 1 2.3c.2.8.3 1.7.2 2.6h-8.6c.2 1 .4 1.7.9 2.2zm3.7-6.2c-.4-.4-1-.6-1.8-.6-.5 0-1 .1-1.3.3-.3.2-.6.4-.8.7s-.4.5-.4.8c-.1.3-.1.6-.1.8H48c-.1-1-.4-1.6-.8-2zM53.1 27.3c0-.8.2-1.4.6-1.9.3-.5.8-.9 1.3-1.2s1.1-.5 1.8-.7c.7-.1 1.3-.2 2-.2.6 0 1.2 0 1.8.1.6.1 1.2.2 1.7.5s.9.6 1.2 1c.3.4.5 1 .5 1.7v6.2c0 .5 0 1.1.1 1.5.1.5.2.9.3 1.1H61c-.1-.2-.1-.4-.1-.6 0-.2-.1-.4-.1-.6-.5.5-1.1.9-1.8 1.1s-1.4.3-2.2.3c-.6 0-1.1-.1-1.6-.2s-.9-.4-1.3-.6c-.4-.3-.7-.7-.9-1.1s-.3-1-.3-1.6c0-.7.1-1.2.4-1.7s.5-.8.9-1c.4-.3.8-.5 1.3-.6l1.5-.3c.5-.1 1-.1 1.4-.2.5 0 .9-.1 1.3-.2s.7-.2.9-.4c.2-.2.3-.4.3-.8s-.1-.6-.2-.8c-.1-.2-.3-.4-.5-.5-.2-.1-.4-.2-.7-.2-.3 0-.5-.1-.8-.1-.6 0-1.2.1-1.5.4-.4.3-.6.7-.6 1.4h-3.3zm7.5 2.5c-.1.1-.3.2-.5.3-.2.1-.4.1-.7.2s-.5.1-.7.1c-.3 0-.5.1-.8.1-.2 0-.5.1-.7.2l-.6.3c-.2.1-.3.3-.4.5-.2.1-.2.4-.2.7 0 .3.1.5.2.7.1.2.3.4.4.5.2.1.4.2.6.2.2 0 .5.1.8.1.6 0 1.1-.1 1.5-.3.4-.2.6-.5.8-.8.2-.3.3-.6.3-.9s.1-.6.1-.7v-1.2zM74.9 34.1c-.4.6-.9 1.1-1.5 1.4-.6.3-1.3.4-2.1.4-.9 0-1.7-.2-2.3-.5-.7-.3-1.2-.8-1.7-1.4-.4-.6-.8-1.3-1-2-.2-.8-.3-1.6-.3-2.4 0-.8.1-1.6.3-2.3s.6-1.4 1-2c.4-.6 1-1 1.6-1.4.7-.3 1.4-.5 2.3-.5.7 0 1.4.1 2 .4.6.3 1.1.7 1.5 1.3v-6H78v16.4h-3.1v-1.4zm-.2-5.9c-.1-.5-.2-.9-.5-1.2-.2-.3-.5-.6-.9-.8-.4-.2-.8-.3-1.3-.3s-1 .1-1.4.3c-.4.2-.7.5-.9.9-.2.4-.4.8-.5 1.2-.1.5-.1.9-.1 1.4 0 .5.1.9.2 1.4.1.5.3.9.5 1.2.2.4.5.7.9.9.4.2.8.3 1.3.3s1-.1 1.3-.3c.4-.2.6-.5.9-.9.2-.4.4-.8.5-1.2.1-.5.1-.9.1-1.4s0-1.1-.1-1.5zM80.7 27.4v-3.5h3.6v3.5h-3.6zm3.6 4.6v3.5h-3.6V32h3.6z"/><g><path d="M102 19.2c.8 0 1.6.1 2.3.2.7.2 1.3.4 1.8.8s.9.9 1.2 1.5.4 1.4.4 2.3c0 .9-.2 1.7-.5 2.4s-.8 1.3-1.4 1.8-1.3.9-2 1.1c-.8.3-1.6.4-2.4.4h-4.5l-1.2 5.9H92l3.4-16.4h6.6zm-.9 7.7c.9 0 1.6-.2 2.2-.7.5-.5.8-1.2.8-2.2 0-.4-.1-.8-.2-1-.1-.3-.3-.5-.6-.6-.2-.1-.5-.2-.8-.3-.3-.1-.6-.1-.9-.1h-3.1l-1 4.9h3.6zM112.7 23.7l-.5 2.1c.4-.8.9-1.5 1.7-1.9.7-.4 1.6-.6 2.4-.6.3 0 .7 0 1 .1l-.7 3.2c-.2 0-.5-.1-.7-.1s-.5-.1-.7-.1c-.6 0-1.2.1-1.6.3-.4.2-.8.5-1.1.9-.3.4-.5.8-.7 1.3-.2.5-.3 1-.4 1.5l-1.1 5.3h-3.2l2.5-11.9h3.1zM118.4 25.4c.4-.5.8-.9 1.3-1.2s1.1-.5 1.7-.7c.6-.1 1.3-.2 2-.2.5 0 1.1 0 1.7.1.6.1 1.1.2 1.6.4s.9.5 1.2.9c.3.4.5.9.4 1.6 0 .6-.1 1.2-.3 2l-1.1 4.8c-.1.2-.1.5-.1.8v.8c0 .2 0 .4.1.7h-3.3v-1.2c-.4.5-1 .9-1.6 1.1-.6.2-1.3.4-2 .4-.6 0-1.2-.1-1.7-.3-.5-.2-.9-.4-1.2-.7-.3-.3-.6-.6-.7-1-.2-.4-.2-.8-.2-1.2 0-1.1.4-2.1 1.2-2.8s1.9-1.1 3.3-1.3c.8-.1 1.4-.2 2-.2.6 0 1-.1 1.4-.2.4-.1.7-.2.8-.4s.3-.5.3-.9c0-.3-.1-.6-.2-.7-.1-.2-.3-.3-.5-.4-.2-.1-.4-.2-.7-.2-.2 0-.5-.1-.7-.1-.6 0-1.1.1-1.6.4-.5.3-.7.7-.9 1.3h-3.1c.3-.5.5-1.1.9-1.6zm4.9 4.9c-.5.1-1 .1-1.4.1-.3 0-.6.1-.9.1-.3.1-.5.2-.8.3-.2.1-.4.3-.5.6s-.2.5-.2.9.2.8.5 1c.4.2.8.3 1.3.3s.9-.1 1.3-.2l.9-.6c.3-.2.4-.5.6-.9.1-.3.3-.6.3-1l.3-1.1c-.5.3-1 .5-1.4.5zM138 26.3c-.4-.3-.9-.5-1.6-.5-.6 0-1.1.2-1.6.5-.4.3-.8.7-1 1.3s-.4 1.1-.6 1.6c-.1.6-.2 1.1-.2 1.6 0 .4 0 .7.1 1s.2.6.4.8.4.4.7.6c.3.1.6.2 1 .2s.7-.1 1-.2c.3-.1.5-.3.8-.5.2-.2.4-.4.6-.7.1-.3.3-.5.4-.8h3.3c-.5 1.5-1.2 2.6-2.3 3.4-1 .8-2.3 1.2-3.9 1.2-1.7 0-3-.4-3.9-1.2-.9-.8-1.4-2.1-1.4-3.9 0-1 .1-2 .4-2.9.3-.9.7-1.7 1.3-2.4.6-.7 1.3-1.2 2.1-1.6.8-.4 1.8-.6 2.9-.6.7 0 1.4.1 2 .3.6.2 1.2.4 1.7.8s.9.8 1.1 1.4.4 1.2.4 2h-3.3c.1-.6 0-1.1-.4-1.4zM151.1 23.7l-.5 2.2h-2.3l-1.2 5.9c0 .1-.1.2-.1.3v.2c0 .2 0 .4.1.5l.3.3c.1.1.2.1.4.1h.4c.4 0 .8 0 1.2-.1l-.6 2.5c-.3 0-.7.1-1 .1h-1c-.4 0-.8 0-1.1-.1-.4-.1-.7-.2-1-.4-.3-.2-.5-.4-.7-.7-.2-.3-.3-.7-.2-1.2v-.5c0-.2.1-.4.1-.6l1.3-6.4h-2.1l.5-2.2h2.1l.7-3.6h3.3l-.7 3.6h2.1zM156.4 23.7l-2.5 11.9h-3.3l2.5-11.9h3.3zm-3-1.9l.6-2.7h3.3l-.6 2.7h-3.3zM165.3 26.3c-.4-.3-.9-.5-1.6-.5-.6 0-1.1.2-1.6.5-.4.3-.8.7-1 1.3s-.4 1.1-.6 1.6c-.1.6-.2 1.1-.2 1.6 0 .4 0 .7.1 1s.2.6.4.8.4.4.7.6c.3.1.6.2 1 .2s.7-.1 1-.2c.3-.1.5-.3.8-.5.2-.2.4-.4.6-.7.1-.3.3-.5.4-.8h3.3c-.5 1.5-1.2 2.6-2.3 3.4-1 .8-2.3 1.2-3.9 1.2-1.7 0-3-.4-3.9-1.2-.9-.8-1.4-2.1-1.4-3.9 0-1 .1-2 .4-2.9.3-.9.7-1.7 1.3-2.4.6-.7 1.3-1.2 2.1-1.6.8-.4 1.8-.6 2.9-.6.7 0 1.4.1 2 .3.6.2 1.2.4 1.7.8s.9.8 1.1 1.4.4 1.2.4 2h-3.3c.1-.6-.1-1.1-.4-1.4zM171.6 25.4c.4-.5.8-.9 1.3-1.2s1.1-.5 1.7-.7c.6-.1 1.3-.2 2-.2.5 0 1.1 0 1.7.1.6.1 1.1.2 1.6.4s.9.5 1.2.9c.3.4.5.9.4 1.6 0 .6-.1 1.2-.3 2l-1.1 4.8c-.1.2-.1.5-.1.8v.8c0 .2 0 .4.1.7h-3.3v-1.2c-.4.5-1 .9-1.6 1.1-.6.2-1.3.4-2 .4-.6 0-1.2-.1-1.7-.3-.5-.2-.9-.4-1.2-.7-.3-.3-.6-.6-.7-1-.2-.4-.2-.8-.2-1.2 0-1.1.4-2.1 1.2-2.8s1.9-1.1 3.3-1.3c.8-.1 1.4-.2 2-.2.6 0 1-.1 1.4-.2.4-.1.7-.2.8-.4s.3-.5.3-.9c0-.3-.1-.6-.2-.7-.1-.2-.3-.3-.5-.4-.2-.1-.4-.2-.7-.2-.2 0-.5-.1-.7-.1-.6 0-1.1.1-1.6.4-.5.3-.7.7-.9 1.3h-3.1c.4-.5.6-1.1.9-1.6zm4.9 4.9c-.5.1-1 .1-1.4.1-.3 0-.6.1-.9.1-.3.1-.5.2-.8.3-.2.1-.4.3-.5.6s-.2.5-.2.9.2.8.5 1c.4.2.8.3 1.3.3s.9-.1 1.3-.2l.9-.6c.3-.2.4-.5.6-.9.1-.3.3-.6.3-1l.3-1.1c-.5.3-.9.5-1.4.5zM189.3 19.2l-3.5 16.4h-3.2l3.5-16.4h3.2zM197.2 25.4c.4-.5.8-.9 1.3-1.2s1.1-.5 1.7-.7c.6-.1 1.3-.2 2-.2.5 0 1.1 0 1.7.1.6.1 1.1.2 1.6.4s.9.5 1.2.9c.3.4.5.9.4 1.6 0 .6-.1 1.2-.3 2l-1.1 4.8c-.1.2-.1.5-.1.8v.8c0 .2 0 .4.1.7h-3.3v-1.2c-.4.5-1 .9-1.6 1.1-.6.2-1.3.4-2 .4-.6 0-1.2-.1-1.7-.3-.5-.2-.9-.4-1.2-.7-.3-.3-.6-.6-.7-1-.2-.4-.2-.8-.2-1.2 0-1.1.4-2.1 1.2-2.8s1.9-1.1 3.3-1.3c.8-.1 1.4-.2 2-.2.6 0 1-.1 1.4-.2.4-.1.7-.2.8-.4s.3-.5.3-.9c0-.3-.1-.6-.2-.7-.1-.2-.3-.3-.5-.4-.2-.1-.4-.2-.7-.2-.2 0-.5-.1-.7-.1-.6 0-1.1.1-1.6.4-.5.3-.7.7-.9 1.3h-3.1c.3-.5.5-1.1.9-1.6zm4.9 4.9c-.5.1-1 .1-1.4.1-.3 0-.6.1-.9.1-.3.1-.5.2-.8.3-.2.1-.4.3-.5.6s-.2.5-.2.9.2.8.5 1c.4.2.8.3 1.3.3s.9-.1 1.3-.2l.9-.6c.3-.2.4-.5.6-.9.1-.3.3-.6.3-1l.3-1.1c-.5.3-1 .5-1.4.5zM216.6 34.1c-.4.6-.9 1.1-1.5 1.4s-1.3.4-2.1.4c-1.4 0-2.6-.4-3.3-1.3-.8-.8-1.2-2-1.2-3.4 0-1 .1-1.9.4-2.9.3-.9.7-1.8 1.2-2.5s1.2-1.3 2-1.8 1.8-.7 2.9-.7c.7 0 1.4.2 2 .5.6.3 1.1.8 1.3 1.4l1.3-6.1h3.3l-3.5 16.4h-3.2l.4-1.4zm-2.8-7.8c-.5.3-.8.7-1.1 1.2-.3.5-.5 1-.6 1.6-.1.6-.2 1.1-.2 1.7 0 .4 0 .7.1 1 .1.3.2.6.4.8.2.2.4.4.7.6.3.1.6.2 1 .2.6 0 1.1-.2 1.6-.5s.8-.7 1.1-1.3c.3-.5.5-1.1.7-1.6.1-.6.2-1.1.2-1.6 0-.8-.2-1.4-.6-1.9s-1-.7-1.8-.7c-.5 0-1.1.2-1.5.5zM224.6 35.6L223 23.7h3.4l.7 8.5 4.2-8.5h3.4l-6.5 11.9h-3.6zM239.9 23.7l-2.5 11.9h-3.3l2.5-11.9h3.3zm-3-1.9l.6-2.7h3.3l-.6 2.7h-3.3zM248.7 26.3c-.4-.3-.9-.5-1.6-.5-.6 0-1.1.2-1.6.5-.4.3-.8.7-1 1.3s-.4 1.1-.6 1.6c-.1.6-.2 1.1-.2 1.6 0 .4 0 .7.1 1s.2.6.4.8.4.4.7.6c.3.1.6.2 1 .2s.7-.1 1-.2c.3-.1.5-.3.8-.5.2-.2.4-.4.6-.7.1-.3.3-.5.4-.8h3.3c-.5 1.5-1.2 2.6-2.3 3.4-1 .8-2.3 1.2-3.9 1.2-1.7 0-3-.4-3.9-1.2-.9-.8-1.4-2.1-1.4-3.9 0-1 .1-2 .4-2.9.3-.9.7-1.7 1.3-2.4.6-.7 1.3-1.2 2.1-1.6.8-.4 1.8-.6 2.9-.6.7 0 1.4.1 2 .3.6.2 1.2.4 1.7.8s.9.8 1.1 1.4.4 1.2.4 2h-3.3c.2-.6 0-1.1-.4-1.4zM256.4 30.6v.5c0 .7.2 1.2.6 1.7.4.4 1.1.6 2 .6.3 0 .6 0 .9-.1.3-.1.5-.2.7-.4s.4-.3.5-.5c.1-.2.3-.4.4-.6h3.3c-.3.7-.6 1.3-.9 1.8-.4.5-.8.9-1.3 1.3-.5.3-1.1.6-1.7.8-.7.2-1.4.3-2.3.3-.8 0-1.5-.1-2.2-.3-.7-.2-1.2-.5-1.7-1s-.8-1-1.1-1.6-.4-1.4-.4-2.3c0-1 .2-1.9.5-2.7.3-.9.7-1.7 1.3-2.3.6-.7 1.2-1.2 2.1-1.6.8-.4 1.7-.6 2.7-.6.8 0 1.6.1 2.3.3.7.2 1.3.5 1.7 1 .5.4.9 1 1.1 1.6s.4 1.4.4 2.3c0 .6-.1 1.2-.2 1.9h-8.8c.1-.2.1-.1.1-.1zm5.8-3.2c-.1-.3-.2-.6-.3-.8-.2-.2-.4-.4-.7-.6-.3-.1-.7-.2-1.1-.2-.5 0-.9.1-1.2.2-.4.1-.7.3-.9.6-.3.2-.5.5-.7.8-.2.3-.3.6-.4 1h5.5c-.2-.4-.2-.7-.2-1zM273.2 25.9l.5-2.2h2c.2-.8.3-1.4.5-2 .2-.6.4-1.1.8-1.5.3-.4.7-.7 1.3-.9.5-.2 1.2-.3 2.1-.3h1.1c.4 0 .7.1 1.1.1l-.5 2.3h-1c-.4 0-.7.1-.9.1-.2.1-.4.2-.5.4-.1.2-.2.4-.3.7-.1.3-.1.6-.2.9h2.3l-.5 2.2h-2.3l-2 9.7H273l2-9.7h-1.8zM281.5 27.9c.3-.9.8-1.7 1.4-2.4.6-.7 1.3-1.2 2.2-1.6s1.8-.6 2.9-.6c.8 0 1.6.1 2.2.3.7.2 1.3.5 1.8.9s.9.9 1.1 1.6c.3.6.4 1.4.4 2.2 0 1-.2 2-.5 2.9-.3.9-.8 1.7-1.4 2.4-.6.7-1.3 1.2-2.2 1.6-.9.4-1.8.6-2.9.6-1.7 0-3-.4-4-1.3s-1.5-2.1-1.5-3.8c0-.9.1-1.9.5-2.8zm2.9 3.9c.1.3.2.6.4.9.2.2.4.4.7.6.3.1.6.2 1 .2.6 0 1.1-.2 1.6-.5s.8-.7 1.1-1.2c.3-.5.5-1 .6-1.6.1-.6.2-1.1.2-1.6 0-.8-.2-1.4-.5-1.9-.4-.5-1-.7-1.9-.7-.6 0-1.1.2-1.6.5s-.8.7-1.1 1.2c-.3.5-.5 1-.6 1.6-.1.6-.2 1.1-.2 1.6.1.2.2.6.3.9zM299.7 23.7l-.5 2.1c.4-.8.9-1.5 1.7-1.9.7-.4 1.6-.6 2.4-.6.3 0 .7 0 1 .1l-.7 3.2c-.2 0-.5-.1-.7-.1s-.5-.1-.7-.1c-.6 0-1.2.1-1.6.3-.4.2-.8.5-1.1.9-.3.4-.5.8-.7 1.3-.2.5-.3 1-.4 1.5l-1.1 5.3h-3.2l2.5-11.9h3.1zM315.1 23.7l-.4 1.7c.5-.7 1.1-1.2 1.8-1.5.7-.3 1.5-.5 2.4-.5.7 0 1.4.2 1.9.5s.9.9 1 1.6c.2-.3.5-.6.8-.8.3-.3.6-.5 1-.7.4-.2.7-.3 1.1-.4.4-.1.8-.1 1.2-.1.5 0 .9.1 1.3.2s.8.3 1.2.6c.3.2.6.6.8.9.2.4.3.8.3 1.3 0 .4 0 .7-.1 1.1-.1.4-.2.7-.2 1.1l-1.5 7h-3.3l1.6-7.5c.1-.3.1-.6.1-.9 0-.4-.1-.7-.4-.9-.3-.2-.6-.4-1-.4s-.8.1-1.2.3c-.3.2-.6.5-.9.8-.3.3-.5.7-.6 1-.2.4-.3.8-.4 1.1l-1.3 6.4H317l1.6-7.5c.1-.3.1-.6.1-.9 0-.4-.1-.7-.4-.9-.3-.2-.6-.4-1-.4s-.8.1-1.2.3c-.3.2-.6.5-.9.8-.3.3-.5.7-.6 1-.2.4-.3.8-.4 1.1l-1.3 6.4h-3.2l2.5-11.9h2.9zM332.7 25.4c.4-.5.8-.9 1.3-1.2s1.1-.5 1.7-.7c.6-.1 1.3-.2 2-.2.5 0 1.1 0 1.7.1.6.1 1.1.2 1.6.4s.9.5 1.2.9c.3.4.5.9.4 1.6 0 .6-.1 1.2-.3 2l-1.1 4.8c-.1.2-.1.5-.1.8v.8c0 .2 0 .4.1.7h-3.3v-1.2c-.4.5-1 .9-1.6 1.1-.6.2-1.3.4-2 .4-.6 0-1.2-.1-1.7-.3-.5-.2-.9-.4-1.2-.7-.3-.3-.6-.6-.7-1-.2-.4-.2-.8-.2-1.2 0-1.1.4-2.1 1.2-2.8s1.9-1.1 3.3-1.3c.8-.1 1.4-.2 2-.2.6 0 1-.1 1.4-.2.4-.1.7-.2.8-.4s.3-.5.3-.9c0-.3-.1-.6-.2-.7-.1-.2-.3-.3-.5-.4-.2-.1-.4-.2-.7-.2-.2 0-.5-.1-.7-.1-.6 0-1.1.1-1.6.4-.5.3-.7.7-.9 1.3H332c.1-.5.3-1.1.7-1.6zm4.8 4.9c-.5.1-1 .1-1.4.1-.3 0-.6.1-.9.1-.3.1-.5.2-.8.3-.2.1-.4.3-.5.6s-.2.5-.2.9.2.8.5 1c.4.2.8.3 1.3.3s.9-.1 1.3-.2l.9-.6c.3-.2.4-.5.6-.9.1-.3.3-.6.3-1l.3-1.1c-.4.3-.9.5-1.4.5zM349.1 23.7l-.4 1.7c1.1-1.3 2.4-2 4.2-2 2.3 0 3.5 1.1 3.5 3.2v.5c0 .2-.1.4-.1.6 0 .2-.1.4-.1.6 0 .2-.1.3-.1.4l-1.5 7h-3.3l1.4-7c0-.2.1-.4.1-.7.1-.3.1-.5.1-.7 0-.4-.2-.6-.5-.9-.3-.2-.7-.3-1.1-.3-.5 0-.9.1-1.3.3-.4.2-.7.4-1 .7-.3.3-.5.7-.7 1.1-.2.4-.3.8-.4 1.2l-1.3 6.3h-3.2l2.5-11.9h3.2zM359.9 25.4c.4-.5.8-.9 1.3-1.2.5-.3 1.1-.5 1.7-.7.6-.1 1.3-.2 2-.2.5 0 1.1 0 1.7.1.6.1 1.1.2 1.6.4s.9.5 1.2.9c.3.4.5.9.4 1.6 0 .6-.1 1.2-.3 2l-1.1 4.8c-.1.2-.1.5-.1.8v.8c0 .2 0 .4.1.7h-3.3v-1.2c-.4.5-1 .9-1.6 1.1-.6.2-1.3.4-2 .4-.6 0-1.2-.1-1.7-.3-.5-.2-.9-.4-1.2-.7-.3-.3-.6-.6-.7-1-.2-.4-.2-.8-.2-1.2 0-1.1.4-2.1 1.2-2.8s1.9-1.1 3.3-1.3c.8-.1 1.4-.2 2-.2s1-.1 1.4-.2c.4-.1.7-.2.8-.4.2-.2.3-.5.3-.9 0-.3-.1-.6-.2-.7-.1-.2-.3-.3-.5-.4-.2-.1-.4-.2-.7-.2-.2 0-.5-.1-.7-.1-.6 0-1.1.1-1.6.4-.5.3-.7.7-.9 1.3H359c.3-.5.6-1.1.9-1.6zm4.9 4.9c-.5.1-1 .1-1.4.1-.3 0-.6.1-.9.1s-.5.2-.8.3c-.2.1-.4.3-.5.6-.1.2-.2.5-.2.9s.2.8.5 1 .8.3 1.3.3.9-.1 1.3-.2l.9-.6c.2-.3.4-.5.6-.9.1-.3.3-.6.3-1l.3-1.1c-.5.3-.9.5-1.4.5zM381.4 37.3c-.3.6-.8 1.2-1.3 1.6s-1.2.7-1.9.9c-.7.2-1.6.3-2.6.3-.6 0-1.2-.1-1.8-.2-.6-.1-1.2-.4-1.6-.7-.5-.3-.9-.7-1.2-1.2-.3-.5-.4-1.1-.4-1.8h3.2c0 .3 0 .6.2.8.1.2.3.4.5.5.2.1.4.2.7.3.3.1.5.1.8.1.5 0 1-.1 1.3-.3.3-.2.6-.5.9-.9.2-.4.5-.8.6-1.3.2-.5.3-1 .5-1.6-.8 1.1-1.9 1.7-3.3 1.7-.7 0-1.3-.1-1.9-.3s-1-.6-1.4-1c-.4-.4-.7-.9-.9-1.5s-.3-1.3-.3-2c0-.9.1-1.7.4-2.6.3-.9.7-1.6 1.2-2.3.5-.7 1.1-1.2 1.9-1.7.7-.4 1.6-.6 2.5-.6.8 0 1.6.2 2.2.5s1.1.9 1.4 1.7l.4-1.8h3.1L382.2 35c-.2.8-.4 1.6-.8 2.3zm-4.8-11c-.4.3-.8.7-1 1.1-.3.4-.5.9-.6 1.4-.1.5-.2 1-.2 1.5 0 .4 0 .7.1 1 .1.3.2.6.4.8.2.2.4.4.7.6s.6.2 1 .2c.6 0 1.1-.1 1.5-.4.4-.3.8-.6 1.1-1.1.3-.4.5-.9.6-1.5s.2-1.1.2-1.6c0-.8-.2-1.4-.6-1.9-.4-.5-1-.7-1.8-.7-.5.1-1 .3-1.4.6zM390.6 23.7l-2.5 11.9h-3.3l2.5-11.9h3.3zm-2.9-1.9l.6-2.7h3.3l-.6 2.7h-3.3zM396.4 23.7l-.4 1.7c1.1-1.3 2.4-2 4.2-2 2.3 0 3.5 1.1 3.5 3.2v.5c0 .2-.1.4-.1.6 0 .2-.1.4-.1.6 0 .2-.1.3-.1.4l-1.5 7h-3.3l1.4-7c0-.2.1-.4.1-.7.1-.3.1-.5.1-.7 0-.4-.2-.6-.5-.9-.3-.2-.7-.3-1.1-.3-.5 0-.9.1-1.3.3-.4.2-.7.4-1 .7-.3.3-.5.7-.7 1.1-.2.4-.3.8-.4 1.2l-1.3 6.3h-3.2l2.5-11.9h3.2zM415.5 37.3c-.3.6-.8 1.2-1.3 1.6s-1.2.7-1.9.9c-.7.2-1.6.3-2.6.3-.6 0-1.2-.1-1.8-.2-.6-.1-1.2-.4-1.6-.7-.5-.3-.9-.7-1.2-1.2-.3-.5-.4-1.1-.4-1.8h3.2c0 .3 0 .6.2.8.1.2.3.4.5.5.2.1.4.2.7.3.3.1.5.1.8.1.5 0 1-.1 1.3-.3.3-.2.6-.5.9-.9.2-.4.5-.8.6-1.3.2-.5.3-1 .5-1.6-.8 1.1-1.9 1.7-3.3 1.7-.7 0-1.3-.1-1.9-.3s-1-.6-1.4-1c-.4-.4-.7-.9-.9-1.5s-.3-1.3-.3-2c0-.9.1-1.7.4-2.6.3-.9.7-1.6 1.2-2.3.5-.7 1.1-1.2 1.9-1.7.7-.4 1.6-.6 2.5-.6.8 0 1.6.2 2.2.5s1.1.9 1.4 1.7l.4-1.8h3.1L416.3 35c-.2.8-.5 1.6-.8 2.3zm-4.8-11c-.4.3-.8.7-1 1.1-.3.4-.5.9-.6 1.4-.1.5-.2 1-.2 1.5 0 .4 0 .7.1 1 .1.3.2.6.4.8.2.2.4.4.7.6s.6.2 1 .2c.6 0 1.1-.1 1.5-.4.4-.3.8-.6 1.1-1.1.3-.4.5-.9.6-1.5s.2-1.1.2-1.6c0-.8-.2-1.4-.6-1.9-.4-.5-1-.7-1.8-.7-.6.1-1 .3-1.4.6z"/></g><g><path d="M28.7 45.1l-3.5 16.4H22l3.5-16.4h3.2zM33.7 49.7l-2.5 11.9h-3.3l2.5-11.9h3.3zm-2.9-1.9l.6-2.7h3.3l-.6 2.7h-3.3zM34.6 51.9l.5-2.2h2c.2-.8.3-1.4.5-2 .2-.6.4-1.1.8-1.5.3-.4.7-.7 1.3-.9.5-.2 1.2-.3 2.1-.3h1.1c.4 0 .7.1 1.1.1l-.5 2.3h-1c-.4 0-.7 0-.9.1s-.4.2-.5.4c-.1.2-.2.4-.3.7-.1.3-.1.6-.2.9h2.3l-.5 2.2h-2.3l-2 9.7h-3.3l2-9.7h-2.2zM45.6 56.6v.5c0 .7.2 1.2.6 1.7.4.4 1.1.6 2 .6.3 0 .6 0 .9-.1.3-.1.5-.2.7-.4s.4-.3.5-.5c.1-.2.3-.4.4-.6H54c-.3.7-.6 1.3-.9 1.8-.4.5-.8.9-1.3 1.3s-1.1.6-1.7.8c-.7.2-1.4.3-2.3.3-.8 0-1.5-.1-2.2-.3-.7-.2-1.2-.5-1.7-1-.5-.4-.8-1-1.1-1.6-.3-.6-.4-1.4-.4-2.3 0-1 .2-1.9.5-2.7s.7-1.7 1.3-2.3c.6-.7 1.2-1.2 2.1-1.6.8-.4 1.7-.6 2.7-.6.8 0 1.6.1 2.3.3s1.3.5 1.7 1c.5.4.9 1 1.1 1.6s.4 1.4.4 2.3c0 .6-.1 1.2-.2 1.9h-8.8c.1-.2.1-.1.1-.1zm5.7-3.2c-.1-.3-.2-.6-.3-.8-.2-.2-.4-.4-.7-.6-.3-.1-.7-.2-1.1-.2-.5 0-.9.1-1.2.2-.4.1-.7.3-.9.6-.3.2-.5.5-.7.8-.2.3-.3.6-.4 1h5.5c-.1-.4-.2-.7-.2-1zM67.3 49.7l-2.5 11.9h-3.3L64 49.7h3.3zm-2.9-1.9l.6-2.7h3.3l-.6 2.7h-3.3zM73.1 49.7l-.4 1.7c1.1-1.3 2.4-2 4.2-2 2.3 0 3.5 1.1 3.5 3.2v.5c0 .2-.1.4-.1.6 0 .2-.1.4-.1.6 0 .2-.1.3-.1.4l-1.5 7h-3.3l1.4-7c0-.2.1-.4.1-.7.1-.3.1-.5.1-.7 0-.4-.2-.6-.5-.9-.3-.2-.7-.3-1.1-.3-.5 0-.9.1-1.3.3-.4.2-.7.4-1 .7-.3.3-.5.7-.7 1.1-.2.4-.3.8-.4 1.2l-1.3 6.3h-3.2l2.6-12h3.1zM89.4 52c-.3-.3-.7-.4-1.4-.4-.6 0-1.1.1-1.4.3-.4.2-.6.5-.6.9 0 .3.1.5.3.7.2.2.6.4 1.2.5l1.6.5c.4.1.9.3 1.2.5.4.2.7.4 1 .7.3.3.5.6.7 1 .2.4.2.8.2 1.3 0 .7-.2 1.4-.5 1.9s-.8.9-1.3 1.3c-.5.3-1.1.6-1.8.7-.7.1-1.4.2-2 .2-.6 0-1.2-.1-1.8-.2-.6-.1-1.1-.3-1.6-.6s-.9-.7-1.2-1.1-.5-1.1-.5-1.8v-.5h3v.4c0 .3.1.5.2.7.1.2.3.4.5.5.2.1.5.2.8.3.3.1.6.1.8.1.2 0 .5 0 .7-.1.2 0 .5-.1.7-.2.2-.1.4-.3.5-.4.1-.2.2-.4.2-.7 0-.4-.1-.7-.3-.9s-.5-.3-.9-.4l-2.5-.8c-.4-.1-.8-.3-1.1-.4-.3-.2-.6-.3-.8-.6-.2-.2-.4-.5-.5-.8-.1-.3-.2-.7-.2-1.2 0-.7.2-1.3.5-1.8s.8-.9 1.3-1.2c.5-.3 1.1-.5 1.7-.6.6-.1 1.2-.2 1.8-.2.6 0 1.3.1 1.9.2.6.1 1.1.3 1.6.6s.8.7 1.1 1.2c.3.5.4 1.1.4 1.9h-3c0-.9-.2-1.3-.5-1.5zM101.6 61.6l.4-1.7c-1.1 1.3-2.4 2-4.2 2-2.3 0-3.5-1.1-3.5-3.2v-.5c0-.2.1-.4.1-.6 0-.2.1-.4.1-.6 0-.2.1-.3.1-.4l1.5-7h3.3l-1.4 7c0 .1-.1.2-.1.3 0 .1 0 .3-.1.4v.7c0 .4.2.6.5.9.3.2.7.3 1.1.3.5 0 .9-.1 1.3-.3.4-.2.7-.4 1-.7.3-.3.5-.7.7-1.1.2-.4.3-.8.4-1.2l1.3-6.3h3.3l-2.5 11.9h-3.3zM113.1 49.7l-.5 2.1c.4-.8.9-1.5 1.7-1.9s1.6-.6 2.4-.6c.3 0 .7 0 1 .1l-.7 3.2c-.2 0-.5-.1-.7-.1-.2 0-.5-.1-.7-.1-.6 0-1.2.1-1.6.3-.4.2-.8.5-1.1.9-.3.4-.5.8-.7 1.3s-.3 1-.4 1.5l-1.1 5.3h-3.2l2.5-11.9h3.1zM118.8 51.4c.4-.5.8-.9 1.3-1.2.5-.3 1.1-.5 1.7-.7.6-.1 1.3-.2 2-.2.5 0 1.1 0 1.7.1.6.1 1.1.2 1.6.4s.9.5 1.2.9c.3.4.5.9.4 1.6 0 .6-.1 1.2-.3 2l-1.1 4.8c-.1.2-.1.5-.1.8v.8c0 .2 0 .4.1.7H124v-1.2c-.4.5-1 .9-1.6 1.1s-1.3.4-2 .4c-.6 0-1.2-.1-1.7-.3-.5-.2-.9-.4-1.2-.7-.3-.3-.6-.6-.7-1-.2-.4-.2-.8-.2-1.2 0-1.2.4-2.1 1.2-2.8.8-.7 1.9-1.1 3.3-1.3.8-.1 1.4-.2 2-.2.6 0 1-.1 1.4-.2.4-.1.7-.2.8-.4.2-.2.3-.5.3-.9 0-.3-.1-.6-.2-.7-.1-.2-.3-.3-.5-.4s-.4-.2-.7-.2c-.2 0-.5-.1-.7-.1-.6 0-1.1.1-1.6.4-.5.3-.7.7-.9 1.3h-3.1c.3-.5.6-1.1.9-1.6zm4.9 4.9c-.5.1-1 .1-1.4.1-.3 0-.6.1-.9.1-.3.1-.5.2-.8.3-.2.1-.4.3-.5.6-.1.2-.2.5-.2.9s.2.8.5 1c.4.2.8.3 1.3.3s.9-.1 1.3-.2l.9-.6c.3-.2.4-.5.6-.9.1-.3.3-.6.3-1l.3-1.2c-.5.4-.9.6-1.4.6zM135.3 49.7l-.4 1.7c1.1-1.3 2.4-2 4.2-2 2.3 0 3.5 1.1 3.5 3.2v.5c0 .2-.1.4-.1.6 0 .2-.1.4-.1.6 0 .2-.1.3-.1.4l-1.5 7h-3.3l1.4-7c0-.2.1-.4.1-.7.1-.3.1-.5.1-.7 0-.4-.2-.6-.5-.9-.3-.2-.7-.3-1.1-.3-.5 0-.9.1-1.3.3-.4.2-.7.4-1 .7-.3.3-.5.7-.7 1.1-.2.4-.3.8-.4 1.2l-1.3 6.3h-3.2l2.5-11.9h3.2zM152.5 52.3c-.4-.3-.9-.5-1.6-.5-.6 0-1.1.2-1.6.5-.4.3-.8.7-1 1.3s-.4 1.1-.6 1.6c-.1.6-.2 1.1-.2 1.6 0 .4 0 .7.1 1 .1.3.2.6.4.8.2.2.4.4.7.6.3.1.6.2 1 .2s.7-.1 1-.2c.3-.1.5-.3.8-.5s.4-.4.6-.7c.1-.3.3-.5.4-.8h3.3c-.5 1.5-1.2 2.6-2.3 3.4-1 .8-2.3 1.2-3.9 1.2-1.7 0-3-.4-3.9-1.2-.9-.8-1.4-2.1-1.4-3.9 0-1 .1-2 .4-2.9.3-.9.7-1.7 1.3-2.4.6-.7 1.3-1.2 2.1-1.6.8-.4 1.8-.6 2.9-.6.7 0 1.4.1 2 .3s1.2.4 1.7.8.9.8 1.1 1.4.4 1.2.4 2H153c0-.6-.2-1.1-.5-1.4zM160.1 56.6v.5c0 .7.2 1.2.6 1.7.4.4 1.1.6 2 .6.3 0 .6 0 .9-.1.3-.1.5-.2.7-.4s.4-.3.5-.5c.1-.2.3-.4.4-.6h3.3c-.3.7-.6 1.3-.9 1.8-.4.5-.8.9-1.3 1.3s-1.1.6-1.7.8c-.7.2-1.4.3-2.3.3-.8 0-1.5-.1-2.2-.3-.7-.2-1.2-.5-1.7-1-.5-.4-.8-1-1.1-1.6-.3-.6-.4-1.4-.4-2.3 0-1 .2-1.9.5-2.7s.7-1.7 1.3-2.3c.6-.7 1.2-1.2 2.1-1.6.8-.4 1.7-.6 2.7-.6.8 0 1.6.1 2.3.3s1.3.5 1.7 1c.5.4.9 1 1.1 1.6s.4 1.4.4 2.3c0 .6-.1 1.2-.2 1.9H160c.1-.2.1-.1.1-.1zm5.8-3.2c-.1-.3-.2-.6-.3-.8-.2-.2-.4-.4-.7-.6-.3-.1-.7-.2-1.1-.2-.5 0-.9.1-1.2.2-.4.1-.7.3-.9.6-.3.2-.5.5-.7.8-.2.3-.3.6-.4 1h5.5c-.1-.4-.2-.7-.2-1zM176.9 51.9l.5-2.2h2c.2-.8.3-1.4.5-2 .2-.6.4-1.1.8-1.5.3-.4.7-.7 1.3-.9.5-.2 1.2-.3 2.1-.3h1.1c.4 0 .7.1 1.1.1l-.5 2.3h-1c-.4 0-.7 0-.9.1s-.4.2-.5.4c-.1.2-.2.4-.3.7-.1.3-.1.6-.2.9h2.3l-.5 2.2h-2.3l-2 9.7h-3.3l2-9.7h-2.2zM185.2 53.9c.3-.9.8-1.7 1.4-2.4.6-.7 1.3-1.2 2.2-1.6.8-.4 1.8-.6 2.9-.6.8 0 1.6.1 2.2.3.7.2 1.3.5 1.8.9s.9.9 1.1 1.6c.3.6.4 1.4.4 2.2 0 1-.2 2-.5 2.9s-.8 1.7-1.4 2.4c-.6.7-1.3 1.2-2.2 1.6-.9.4-1.8.6-2.9.6-1.7 0-3-.4-4-1.3s-1.5-2.1-1.5-3.8c0-1 .2-1.9.5-2.8zm2.9 3.9c.1.3.2.6.4.9.2.2.4.4.7.6.3.1.6.2 1 .2.6 0 1.1-.2 1.6-.5.4-.3.8-.7 1.1-1.2.3-.5.5-1 .6-1.6.1-.6.2-1.1.2-1.6 0-.8-.2-1.4-.5-1.9-.4-.5-1-.7-1.9-.7-.6 0-1.1.2-1.6.5-.4.3-.8.7-1.1 1.2-.3.5-.5 1-.6 1.6-.1.6-.2 1.1-.2 1.6.2.2.2.6.3.9zM203.4 49.7l-.5 2.1c.4-.8.9-1.5 1.7-1.9s1.6-.6 2.4-.6c.3 0 .7 0 1 .1l-.7 3.2c-.2 0-.5-.1-.7-.1-.2 0-.5-.1-.7-.1-.6 0-1.2.1-1.6.3-.4.2-.8.5-1.1.9-.3.4-.5.8-.7 1.3s-.3 1-.4 1.5l-1.1 5.3h-3.2l2.5-11.9h3.1zM221.8 60c-.4.6-.9 1.1-1.5 1.4-.6.3-1.3.4-2.1.4-1.4 0-2.6-.4-3.3-1.3-.8-.8-1.2-2-1.2-3.4 0-1 .1-1.9.4-2.9.3-.9.7-1.8 1.2-2.5s1.2-1.3 2-1.8 1.8-.7 2.9-.7c.7 0 1.4.2 2 .5.6.3 1.1.8 1.3 1.4l1.3-6.1h3.3l-3.5 16.4h-3.2l.4-1.4zm-2.9-7.7c-.5.3-.8.7-1.1 1.2-.3.5-.5 1-.6 1.6-.1.6-.2 1.1-.2 1.7 0 .4 0 .7.1 1 .1.3.2.6.4.8.2.2.4.4.7.6.3.1.6.2 1 .2.6 0 1.1-.2 1.6-.5.4-.3.8-.7 1.1-1.3s.5-1.1.7-1.6c.1-.6.2-1.1.2-1.6 0-.8-.2-1.4-.6-1.9-.4-.5-1-.7-1.8-.7-.5 0-1 .2-1.5.5zM230.9 56.6v.5c0 .7.2 1.2.6 1.7.4.4 1.1.6 2 .6.3 0 .6 0 .9-.1.3-.1.5-.2.7-.4s.4-.3.5-.5c.1-.2.3-.4.4-.6h3.3c-.3.7-.6 1.3-.9 1.8-.4.5-.8.9-1.3 1.3s-1.1.6-1.7.8c-.7.2-1.4.3-2.3.3-.8 0-1.5-.1-2.2-.3-.7-.2-1.2-.5-1.7-1-.5-.4-.8-1-1.1-1.6-.3-.6-.4-1.4-.4-2.3 0-1 .2-1.9.5-2.7s.7-1.7 1.3-2.3c.6-.7 1.2-1.2 2.1-1.6.8-.4 1.7-.6 2.7-.6.8 0 1.6.1 2.3.3s1.3.5 1.7 1c.5.4.9 1 1.1 1.6s.4 1.4.4 2.3c0 .6-.1 1.2-.2 1.9h-8.8c.1-.2.1-.1.1-.1zm5.7-3.2c-.1-.3-.2-.6-.3-.8-.2-.2-.4-.4-.7-.6-.3-.1-.7-.2-1.1-.2-.5 0-.9.1-1.2.2-.4.1-.7.3-.9.6-.3.2-.5.5-.7.8-.2.3-.3.6-.4 1h5.5c-.1-.4-.1-.7-.2-1zM246 49.7l-.4 1.7c1.1-1.3 2.4-2 4.2-2 2.3 0 3.5 1.1 3.5 3.2v.5c0 .2-.1.4-.1.6 0 .2-.1.4-.1.6 0 .2-.1.3-.1.4l-1.5 7h-3.3l1.4-7c0-.2.1-.4.1-.7.1-.3.1-.5.1-.7 0-.4-.2-.6-.5-.9-.3-.2-.7-.3-1.1-.3-.5 0-.9.1-1.3.3-.4.2-.7.4-1 .7-.3.3-.5.7-.7 1.1-.2.4-.3.8-.4 1.2l-1.3 6.3h-3.2l2.5-11.9h3.2zM263.5 49.7l-.5 2.2h-2.3l-1.2 5.9c0 .1-.1.2-.1.3v.2c0 .2 0 .4.1.5l.3.3c.1.1.2.1.4.1h.4c.4 0 .8 0 1.2-.1l-.6 2.5c-.3 0-.7.1-1 .1h-1c-.4 0-.8 0-1.1-.1-.4-.1-.7-.2-1-.4-.3-.2-.5-.4-.7-.7s-.3-.7-.2-1.2v-.5c0-.2.1-.4.1-.6l1.3-6.4h-2.1l.5-2.2h2.1l.7-3.6h3.3l-.7 3.6h2.1zM268.8 49.7l-2.5 11.9H263l2.5-11.9h3.3zm-2.9-1.9l.6-2.7h3.3l-.6 2.7h-3.3zM276.9 52c-.3-.3-.7-.4-1.4-.4-.6 0-1.1.1-1.4.3-.4.2-.6.5-.6.9 0 .3.1.5.3.7.2.2.6.4 1.2.5l1.6.5c.4.1.9.3 1.2.5.4.2.7.4 1 .7.3.3.5.6.7 1 .2.4.2.8.2 1.3 0 .7-.2 1.4-.5 1.9s-.8.9-1.3 1.3c-.5.3-1.1.6-1.8.7-.7.1-1.4.2-2 .2-.6 0-1.2-.1-1.8-.2-.6-.1-1.1-.3-1.6-.6s-.9-.7-1.2-1.1-.5-1.1-.5-1.8v-.5h3v.4c0 .3.1.5.2.7.1.2.3.4.5.5.2.1.5.2.8.3.3.1.6.1.8.1.2 0 .5 0 .7-.1.2 0 .5-.1.7-.2.2-.1.4-.3.5-.4.1-.2.2-.4.2-.7 0-.4-.1-.7-.3-.9s-.5-.3-.9-.4l-2.5-.8c-.4-.1-.8-.3-1.1-.4-.3-.2-.6-.3-.8-.6-.2-.2-.4-.5-.5-.8-.1-.3-.2-.7-.2-1.2 0-.7.2-1.3.5-1.8s.8-.9 1.3-1.2c.5-.3 1.1-.5 1.7-.6.6-.1 1.2-.2 1.8-.2.6 0 1.3.1 1.9.2.6.1 1.1.3 1.6.6s.8.7 1.1 1.2c.3.5.4 1.1.4 1.9h-3c-.1-.9-.2-1.3-.5-1.5zM289.9 49.7l-.5 2.2h-2.3l-1.2 5.9c0 .1-.1.2-.1.3v.2c0 .2 0 .4.1.5l.3.3c.1.1.2.1.4.1h.4c.4 0 .8 0 1.2-.1l-.6 2.5c-.3 0-.7.1-1 .1h-1c-.4 0-.8 0-1.1-.1-.4-.1-.7-.2-1-.4-.3-.2-.5-.4-.7-.7s-.3-.7-.2-1.2v-.5c0-.2.1-.4.1-.6l1.3-6.4h-2.1l.5-2.2h2.1l.7-3.6h3.3l-.7 3.6h2.1zM297.3 52c-.3-.3-.7-.4-1.4-.4-.6 0-1.1.1-1.4.3-.4.2-.6.5-.6.9 0 .3.1.5.3.7.2.2.6.4 1.2.5l1.6.5c.4.1.9.3 1.2.5.4.2.7.4 1 .7.3.3.5.6.7 1 .2.4.2.8.2 1.3 0 .7-.2 1.4-.5 1.9s-.8.9-1.3 1.3c-.5.3-1.1.6-1.8.7-.7.1-1.4.2-2 .2-.6 0-1.2-.1-1.8-.2-.6-.1-1.1-.3-1.6-.6s-.9-.7-1.2-1.1-.5-1.1-.5-1.8v-.5h3v.4c0 .3.1.5.2.7.1.2.3.4.5.5.2.1.5.2.8.3.3.1.6.1.8.1.2 0 .5 0 .7-.1.2 0 .5-.1.7-.2.2-.1.4-.3.5-.4.1-.2.2-.4.2-.7 0-.4-.1-.7-.3-.9s-.5-.3-.9-.4l-2.5-.8c-.4-.1-.8-.3-1.1-.4-.3-.2-.6-.3-.8-.6-.2-.2-.4-.5-.5-.8-.1-.3-.2-.7-.2-1.2 0-.7.2-1.3.5-1.8s.8-.9 1.3-1.2c.5-.3 1.1-.5 1.7-.6.6-.1 1.2-.2 1.8-.2.6 0 1.3.1 1.9.2.6.1 1.1.3 1.6.6s.8.7 1.1 1.2c.3.5.4 1.1.4 1.9h-3c0-.9-.2-1.3-.5-1.5zM308.7 53.9c.3-.9.8-1.7 1.4-2.4.6-.7 1.3-1.2 2.2-1.6.8-.4 1.8-.6 2.9-.6.8 0 1.6.1 2.2.3.7.2 1.3.5 1.8.9s.9.9 1.1 1.6c.3.6.4 1.4.4 2.2 0 1-.2 2-.5 2.9s-.8 1.7-1.4 2.4c-.6.7-1.3 1.2-2.2 1.6-.9.4-1.8.6-2.9.6-1.7 0-3-.4-4-1.3s-1.5-2.1-1.5-3.8c0-1 .2-1.9.5-2.8zm2.9 3.9c.1.3.2.6.4.9.2.2.4.4.7.6.3.1.6.2 1 .2.6 0 1.1-.2 1.6-.5.4-.3.8-.7 1.1-1.2.3-.5.5-1 .6-1.6.1-.6.2-1.1.2-1.6 0-.8-.2-1.4-.5-1.9-.4-.5-1-.7-1.9-.7-.6 0-1.1.2-1.6.5-.4.3-.8.7-1.1 1.2-.3.5-.5 1-.6 1.6-.1.6-.2 1.1-.2 1.6.2.2.2.6.3.9zM323.9 61.6l-1.6-11.9h3.4l.7 8.5 4.2-8.5h3.4l-6.5 11.9h-3.6zM336.9 56.6v.5c0 .7.2 1.2.6 1.7.4.4 1.1.6 2 .6.3 0 .6 0 .9-.1.3-.1.5-.2.7-.4s.4-.3.5-.5c.1-.2.3-.4.4-.6h3.3c-.3.7-.6 1.3-.9 1.8-.4.5-.8.9-1.3 1.3s-1.1.6-1.7.8c-.7.2-1.4.3-2.3.3-.8 0-1.5-.1-2.2-.3-.7-.2-1.2-.5-1.7-1-.5-.4-.8-1-1.1-1.6-.3-.6-.4-1.4-.4-2.3 0-1 .2-1.9.5-2.7s.7-1.7 1.3-2.3c.6-.7 1.2-1.2 2.1-1.6.8-.4 1.7-.6 2.7-.6.8 0 1.6.1 2.3.3s1.3.5 1.7 1c.5.4.9 1 1.1 1.6s.4 1.4.4 2.3c0 .6-.1 1.2-.2 1.9H337c-.1-.2-.1-.1-.1-.1zm5.8-3.2c-.1-.3-.2-.6-.3-.8-.2-.2-.4-.4-.7-.6-.3-.1-.7-.2-1.1-.2-.5 0-.9.1-1.2.2-.4.1-.7.3-.9.6-.3.2-.5.5-.7.8-.2.3-.3.6-.4 1h5.5c-.1-.4-.2-.7-.2-1zM352.1 49.7l-.5 2.1c.4-.8.9-1.5 1.7-1.9s1.6-.6 2.4-.6c.3 0 .7 0 1 .1l-.7 3.2c-.2 0-.5-.1-.7-.1-.2 0-.5-.1-.7-.1-.6 0-1.2.1-1.6.3-.4.2-.8.5-1.1.9-.3.4-.5.8-.7 1.3s-.3 1-.4 1.5l-1.1 5.3h-3.2l2.5-11.9h3.1zM374.6 55.2l-.6 2.7h-2.1l-.8 3.7H368l.8-3.7h-7.5l.6-3 9.4-9.4h3.2l-2 9.7h2.1zm-3.9-6.2l-6.1 6.2h4.8l1.3-6.2zM375 53.3c.1-.8.3-1.6.6-2.4.3-.8.6-1.5 1-2.2.4-.7.9-1.3 1.5-1.9.6-.5 1.2-.9 1.9-1.3.7-.3 1.5-.5 2.4-.5.9 0 1.7.1 2.4.4s1.2.7 1.7 1.3c.4.5.8 1.2 1 1.9.2.7.3 1.6.3 2.5 0 .8-.1 1.6-.2 2.4-.1.8-.3 1.6-.6 2.4-.3.8-.6 1.5-1.1 2.2-.4.7-.9 1.3-1.5 1.8s-1.2.9-2 1.2c-.7.3-1.6.5-2.5.5-.9 0-1.7-.2-2.4-.5s-1.2-.8-1.6-1.3c-.4-.6-.7-1.2-.9-2-.2-.7-.3-1.5-.3-2.4.1-.5.2-1.3.3-2.1zm3.2 4.2c.1.3.2.6.4.9.2.3.4.5.7.6.3.2.7.2 1.1.2.6 0 1-.2 1.5-.5.4-.3.8-.7 1.1-1.2.3-.5.6-1.1.8-1.7.2-.6.4-1.3.5-1.9l.3-1.8c.1-.6.1-1 .1-1.4 0-.4 0-.8-.1-1.1-.1-.4-.2-.7-.4-.9-.2-.3-.4-.5-.7-.6s-.7-.2-1.1-.2c-.5 0-1 .2-1.4.5-.4.3-.8.7-1.1 1.2s-.6 1.1-.8 1.7c-.2.6-.4 1.3-.5 1.9l-.3 1.8c-.1.6-.1 1-.1 1.4-.1.4-.1.7 0 1.1zM391.8 58l-.8 3.5h-3.6l.7-3.5h3.7z"/></g></svg>