<svg id="Layer_1" xmlns="http://www.w3.org/2000/svg" viewBox="0 0 728 90"><style>.st0{fill:#393}</style><path class="st0" d="M36.4 35.2c1.3 0 2.5.2 3.4.6.9.4 1.7.9 2.3 1.5.6.6 1 1.4 1.3 2.2.3.8.4 1.7.4 2.6 0 .9-.1 1.7-.4 2.5-.3.8-.7 1.6-1.3 2.2-.6.6-1.4 1.2-2.3 1.5-.9.4-2.1.6-3.4.6h-5v7.7h-4.7V35.2h9.7zm-1.3 10.1c.5 0 1.1 0 1.6-.1s.9-.2 1.3-.5.7-.6.9-1 .3-1 .3-1.6c0-.7-.1-1.2-.3-1.7-.2-.4-.5-.7-.9-1s-.8-.4-1.3-.5c-.5-.1-1-.1-1.6-.1h-3.7v6.4h3.7zM50.4 41.2V44h.1c.2-.5.5-.9.8-1.3.3-.4.7-.8 1.2-1.1.4-.3.9-.5 1.4-.7.5-.2 1-.2 1.6-.2.3 0 .6.1.9.2v4c-.2 0-.4-.1-.7-.1h-.8c-.8 0-1.4.1-2 .4-.5.3-1 .6-1.3 1.1-.3.4-.6 1-.7 1.6-.1.6-.2 1.3-.2 2v7h-4.3V41.2h4zM57.8 45.9c.1-1 .3-1.8.8-2.5s1-1.2 1.7-1.6c.7-.4 1.4-.7 2.3-.9.8-.2 1.7-.3 2.6-.3.8 0 1.6.1 2.4.2.8.1 1.5.3 2.2.6.7.3 1.2.8 1.6 1.3.4.6.6 1.3.6 2.3v8.1c0 .7 0 1.4.1 2 .1.6.2 1.1.4 1.4h-4.3c-.1-.2-.1-.5-.2-.7-.1-.2-.1-.5-.1-.8-.7.7-1.5 1.2-2.4 1.5-.9.3-1.9.4-2.8.4-.7 0-1.4-.1-2.1-.3s-1.2-.5-1.7-.8c-.5-.4-.9-.9-1.1-1.4-.3-.6-.4-1.3-.4-2.1 0-.9.2-1.6.5-2.2.3-.6.7-1 1.2-1.4.5-.3 1-.6 1.7-.8.6-.2 1.3-.3 1.9-.4.6-.1 1.3-.2 1.9-.2.6-.1 1.2-.2 1.6-.3s.9-.3 1.1-.5c.3-.2.4-.6.4-1 0-.5-.1-.8-.2-1.1-.2-.3-.4-.5-.6-.6-.3-.1-.5-.2-.9-.3s-.7-.1-1.1-.1c-.8 0-1.5.2-2 .5s-.8 1-.8 1.8h-4.3zm9.9 3.2c-.2.2-.4.3-.7.4s-.6.2-.9.2c-.3.1-.6.1-1 .2s-.7.1-1 .1c-.3.1-.6.1-.9.2-.3.1-.6.2-.8.4l-.6.6c-.1.3-.2.6-.2 1s.1.7.2 1c.1.3.3.5.6.6s.5.3.8.3c.3.1.6.1 1 .1.8 0 1.5-.1 1.9-.4s.8-.6 1-1c.2-.4.4-.8.4-1.2 0-.4.1-.7.1-1v-1.5zM82.6 43.9c-.7 0-1.2.2-1.7.5s-.8.7-1.1 1.2-.5 1-.6 1.6-.2 1.2-.2 1.8c0 .6.1 1.1.2 1.7s.3 1.1.6 1.6.6.9 1.1 1.2 1 .5 1.7.5c1 0 1.8-.3 2.4-.9.5-.6.9-1.3 1-2.3h4c-.3 2.1-1.1 3.6-2.4 4.7-1.3 1.1-3 1.6-5.1 1.6-1.2 0-2.2-.2-3.2-.6-1-.4-1.8-.9-2.5-1.6-.7-.7-1.2-1.5-1.6-2.5-.4-1-.6-2-.6-3.2 0-1.2.2-2.3.5-3.3s.9-1.9 1.5-2.7c.7-.8 1.5-1.3 2.5-1.8 1-.4 2.1-.6 3.4-.6.9 0 1.8.1 2.7.4.9.2 1.6.6 2.3 1.1.7.5 1.2 1.1 1.6 1.8.4.7.7 1.6.7 2.6h-4.2c-.1-1.9-1.2-2.8-3-2.8zM101 41.2V44h-3.1v7.7c0 .7.1 1.2.4 1.4.2.2.7.4 1.4.4h.7c.2 0 .4 0 .6-.1v3.3c-.4.1-.8.1-1.2.1h-1.3c-.7 0-1.3 0-1.9-.1-.6-.1-1.1-.3-1.6-.5-.4-.3-.8-.6-1.1-1.1-.3-.5-.4-1.1-.4-1.9V44H91v-2.8h2.6v-4.7h4.3v4.7h3.1zM103.1 38.8v-3.5h4.3v3.5h-4.3zm4.3 2.4v15.5h-4.3V41.2h4.3zM118.1 43.9c-.7 0-1.2.2-1.7.5s-.8.7-1.1 1.2-.5 1-.6 1.6-.2 1.2-.2 1.8c0 .6.1 1.1.2 1.7s.3 1.1.6 1.6.6.9 1.1 1.2 1 .5 1.7.5c1 0 1.8-.3 2.4-.9.5-.6.9-1.3 1-2.3h4.1c-.3 2.1-1.1 3.6-2.4 4.7-1.3 1.1-3 1.6-5.1 1.6-1.2 0-2.2-.2-3.2-.6-1-.4-1.8-.9-2.5-1.6-.7-.7-1.2-1.5-1.6-2.5-.4-1-.6-2-.6-3.2 0-1.2.2-2.3.5-3.3s.9-1.9 1.5-2.7c.7-.8 1.5-1.3 2.5-1.8 1-.4 2.1-.6 3.4-.6.9 0 1.8.1 2.7.4.9.2 1.6.6 2.3 1.1.7.5 1.2 1.1 1.6 1.8.4.7.7 1.6.7 2.6h-4.2c-.2-1.9-1.2-2.8-3.1-2.8zM127.8 45.9c.1-1 .3-1.8.8-2.5s1-1.2 1.7-1.6c.7-.4 1.4-.7 2.3-.9.8-.2 1.7-.3 2.6-.3.8 0 1.6.1 2.4.2.8.1 1.5.3 2.2.6.7.3 1.2.8 1.6 1.3.4.6.6 1.3.6 2.3v8.1c0 .7 0 1.4.1 2 .1.6.2 1.1.4 1.4h-4.3c-.1-.2-.1-.5-.2-.7-.1-.2-.1-.5-.1-.8-.7.7-1.5 1.2-2.4 1.5-.9.3-1.9.4-2.8.4-.7 0-1.4-.1-2.1-.3s-1.2-.5-1.7-.8c-.5-.4-.9-.9-1.1-1.4-.3-.6-.4-1.3-.4-2.1 0-.9.2-1.6.5-2.2.3-.6.7-1 1.2-1.4.5-.3 1-.6 1.7-.8.6-.2 1.3-.3 1.9-.4.6-.1 1.3-.2 1.9-.2.6-.1 1.2-.2 1.6-.3s.9-.3 1.1-.5c.3-.2.4-.6.4-1 0-.5-.1-.8-.2-1.1-.2-.3-.4-.5-.6-.6-.3-.1-.5-.2-.9-.3s-.7-.1-1.1-.1c-.8 0-1.5.2-2 .5s-.8 1-.8 1.8h-4.3zm9.8 3.2c-.2.2-.4.3-.7.4s-.6.2-.9.2c-.3.1-.6.1-1 .2s-.7.1-1 .1c-.3.1-.6.1-.9.2-.3.1-.6.2-.8.4l-.6.6c-.1.3-.2.6-.2 1s.1.7.2 1c.1.3.3.5.6.6s.5.3.8.3c.3.1.6.1 1 .1.8 0 1.5-.1 1.9-.4s.8-.6 1-1c.2-.4.4-.8.4-1.2 0-.4.1-.7.1-1v-1.5zM149.6 35.2v21.4h-4.3V35.2h4.3zM177.4 56.7l-3.6-14.6h-.1l-3.6 14.6h-4.8l-5.7-21.4h4.7l3.4 14.6h.1l3.7-14.6h4.4l3.7 14.8h.1l3.5-14.8h4.6L182 56.7h-4.6zM189.7 38.8v-3.5h4.3v3.5h-4.3zm4.3 2.4v15.5h-4.3V41.2h4.3zM200.9 52.8c.2.3.4.6.7.8.3.2.6.4 1 .5.4.1.8.2 1.2.2.3 0 .6 0 .9-.1l.9-.3c.3-.1.5-.3.7-.6s.3-.6.3-.9c0-.6-.4-1.1-1.3-1.4-.9-.3-2-.6-3.6-1-.6-.1-1.2-.3-1.8-.5-.6-.2-1.1-.4-1.6-.8-.5-.3-.8-.7-1.1-1.2-.3-.5-.4-1-.4-1.7 0-1 .2-1.8.6-2.5.4-.6.9-1.1 1.5-1.5s1.4-.6 2.2-.8c.8-.1 1.6-.2 2.5-.2s1.7.1 2.4.2c.8.2 1.5.4 2.1.8.6.4 1.1.9 1.5 1.5.4.6.7 1.4.7 2.4h-4c-.1-.8-.4-1.4-.9-1.7-.6-.3-1.2-.4-2-.4h-.8c-.3 0-.5.1-.8.2s-.4.2-.6.4c-.2.2-.2.4-.2.8s.1.7.4.9c.3.2.6.4 1.1.6.5.2 1 .3 1.5.4s1.2.2 1.8.4c.6.1 1.2.3 1.8.5.6.2 1.1.5 1.6.8.5.3.8.7 1.1 1.2.3.5.4 1.1.4 1.8 0 1-.2 1.9-.6 2.6-.4.7-.9 1.2-1.6 1.7s-1.4.7-2.3.9-1.7.3-2.6.3c-.9 0-1.8-.1-2.6-.3-.9-.2-1.6-.5-2.3-.9-.7-.4-1.2-1-1.6-1.7-.4-.7-.7-1.6-.7-2.6h4c.2.5.3.9.5 1.2zM224.4 54.7c-.5.8-1.2 1.4-2 1.8s-1.7.6-2.7.6c-1.2 0-2.2-.2-3.1-.7-.9-.5-1.6-1.1-2.2-1.8-.6-.8-1-1.7-1.3-2.7-.3-1-.4-2-.4-3.1 0-1 .1-2 .4-3 .3-1 .7-1.8 1.3-2.6.6-.7 1.3-1.3 2.1-1.8.9-.5 1.9-.7 3-.7.9 0 1.8.2 2.6.6.8.4 1.5 1 2 1.7h.1v-7.8h4.3v21.4h-4.1v-1.9zm-.1-7.7c-.1-.6-.3-1.1-.6-1.6-.3-.4-.7-.8-1.1-1.1-.5-.3-1-.4-1.7-.4s-1.3.1-1.8.4-.9.6-1.2 1.1c-.3.5-.5 1-.6 1.6-.1.6-.2 1.2-.2 1.8 0 .6.1 1.2.2 1.8.1.6.4 1.1.7 1.6.3.5.7.9 1.2 1.1.5.3 1 .4 1.7.4s1.3-.1 1.8-.4c.5-.3.8-.7 1.1-1.1.3-.5.5-1 .6-1.6.1-.6.2-1.2.2-1.9s-.2-1.1-.3-1.7zM231.8 45.6c.4-1 .9-1.9 1.6-2.6.7-.7 1.5-1.3 2.5-1.7 1-.4 2.1-.6 3.3-.6 1.2 0 2.3.2 3.3.6 1 .4 1.8.9 2.5 1.7.7.7 1.2 1.6 1.6 2.6.4 1 .6 2.1.6 3.4 0 1.2-.2 2.4-.6 3.4-.4 1-.9 1.9-1.6 2.6-.7.7-1.5 1.3-2.5 1.6-1 .4-2.1.6-3.3.6-1.2 0-2.3-.2-3.3-.6-1-.4-1.8-.9-2.5-1.6-.7-.7-1.2-1.6-1.6-2.6s-.6-2.1-.6-3.4c.1-1.3.3-2.4.6-3.4zm3.9 5.1c.1.6.3 1.1.6 1.6s.7.8 1.2 1.1 1.1.4 1.8.4 1.3-.1 1.8-.4.9-.7 1.2-1.1.5-1 .6-1.6.2-1.2.2-1.8c0-.6-.1-1.2-.2-1.8-.1-.6-.3-1.1-.6-1.6s-.7-.8-1.2-1.1c-.5-.3-1.1-.4-1.8-.4s-1.3.1-1.8.4c-.5.3-.9.7-1.2 1.1-.3.5-.5 1-.6 1.6-.1.6-.2 1.2-.2 1.8 0 .6.1 1.3.2 1.8zM254.2 41.2v2.1h.1c.6-.8 1.2-1.4 2-1.9.8-.4 1.7-.7 2.7-.7 1 0 1.9.2 2.7.6s1.4 1 1.8 2c.5-.7 1.1-1.3 1.9-1.8s1.7-.8 2.8-.8c.8 0 1.6.1 2.3.3.7.2 1.3.5 1.8 1 .5.4.9 1 1.2 1.7.3.7.4 1.6.4 2.6v10.4h-4.3v-8.8c0-.5 0-1-.1-1.5 0-.5-.1-.9-.3-1.2-.2-.3-.4-.6-.8-.8-.4-.2-.8-.3-1.4-.3-.6 0-1.1.1-1.5.3-.4.2-.7.5-.9.9-.2.4-.4.8-.4 1.3-.1.5-.1.9-.1 1.4v8.6h-4.3V48v-1.4c0-.4-.1-.9-.3-1.2-.1-.4-.4-.7-.8-.9-.4-.2-.9-.3-1.5-.3-.2 0-.5 0-.8.1s-.6.3-1 .5c-.3.2-.6.6-.8 1.1-.2.5-.3 1.1-.3 1.8v9H250V41.2h4.2zM284 44v-2.8h2.5V40c0-1.4.4-2.5 1.3-3.4.9-.9 2.2-1.3 3.9-1.3h1.1c.3 0 .8.1 1.1.1v3.2c-.5-.1-1-.1-1.6-.1-.6 0-1 .1-1.2.4-.3.3-.4.7-.4 1.4v.9h2.9V44h-2.9v12.7h-4.3V44H284zM295.7 45.6c.4-1 .9-1.9 1.6-2.6.7-.7 1.5-1.3 2.5-1.7 1-.4 2.1-.6 3.3-.6 1.2 0 2.3.2 3.3.6 1 .4 1.8.9 2.5 1.7.7.7 1.2 1.6 1.6 2.6.4 1 .6 2.1.6 3.4 0 1.2-.2 2.4-.6 3.4-.4 1-.9 1.9-1.6 2.6-.7.7-1.5 1.3-2.5 1.6-1 .4-2.1.6-3.3.6-1.2 0-2.3-.2-3.3-.6-1-.4-1.8-.9-2.5-1.6-.7-.7-1.2-1.6-1.6-2.6s-.6-2.1-.6-3.4c0-1.3.2-2.4.6-3.4zm3.8 5.1c.1.6.3 1.1.6 1.6s.7.8 1.2 1.1 1.1.4 1.8.4 1.3-.1 1.8-.4.9-.7 1.2-1.1.5-1 .6-1.6.2-1.2.2-1.8c0-.6-.1-1.2-.2-1.8-.1-.6-.3-1.1-.6-1.6s-.7-.8-1.2-1.1c-.5-.3-1.1-.4-1.8-.4s-1.3.1-1.8.4c-.5.3-.9.7-1.2 1.1-.3.5-.5 1-.6 1.6-.1.6-.2 1.2-.2 1.8.1.6.1 1.3.2 1.8zM318 41.2V44h.1c.2-.5.5-.9.8-1.3.3-.4.7-.8 1.2-1.1.4-.3.9-.5 1.4-.7.5-.2 1-.2 1.6-.2.3 0 .6.1.9.2v4c-.2 0-.4-.1-.7-.1h-.8c-.8 0-1.4.1-2 .4-.5.3-1 .6-1.3 1.1-.3.4-.6 1-.7 1.6-.1.6-.2 1.3-.2 2v7H314V41.2h4zM343.6 35.2c1.4 0 2.7.2 3.9.7 1.2.4 2.2 1.1 3.1 2s1.5 2 2 3.3c.5 1.3.7 2.9.7 4.6 0 1.6-.2 3-.6 4.3-.4 1.3-1 2.5-1.8 3.4-.8 1-1.8 1.7-3 2.3-1.2.6-2.6.8-4.3.8h-9.2V35.2h9.2zm-.3 17.5c.7 0 1.3-.1 2-.3.6-.2 1.2-.6 1.7-1.1s.9-1.2 1.2-2c.3-.8.4-1.8.4-3 0-1.1-.1-2.1-.3-2.9-.2-.9-.6-1.6-1-2.2-.5-.6-1.1-1.1-1.9-1.4s-1.8-.5-2.9-.5h-3.4v13.5h4.2zM360.7 53c.6.6 1.6.9 2.8.9.9 0 1.6-.2 2.2-.6.6-.4 1-.9 1.1-1.4h3.8c-.6 1.9-1.5 3.2-2.8 4s-2.7 1.2-4.5 1.2c-1.2 0-2.3-.2-3.3-.6-1-.4-1.8-.9-2.5-1.7-.7-.7-1.2-1.6-1.6-2.6-.4-1-.6-2.1-.6-3.3 0-1.2.2-2.2.6-3.2.4-1 .9-1.9 1.6-2.6.7-.7 1.5-1.3 2.5-1.7 1-.4 2-.6 3.2-.6 1.3 0 2.5.3 3.4.8 1 .5 1.8 1.2 2.4 2.1s1.1 1.8 1.4 2.9.4 2.2.3 3.5h-11.2c.2 1.2.6 2.2 1.2 2.9zm4.8-8.2c-.5-.6-1.3-.8-2.3-.8-.7 0-1.2.1-1.7.3-.4.2-.8.5-1.1.9-.3.3-.5.7-.6 1.1-.1.4-.2.7-.2 1h6.9c-.1-1.1-.5-1.9-1-2.5zM377.4 41.2v2.2h.1c.5-.9 1.2-1.6 2.1-2 .9-.4 1.7-.6 2.6-.6 1.1 0 2.1.2 2.8.5s1.3.7 1.7 1.3c.4.6.7 1.2.9 2 .2.8.3 1.7.3 2.6v9.5h-4.3v-8.8c0-1.3-.2-2.2-.6-2.9-.4-.6-1.1-.9-2.1-.9-1.2 0-2 .3-2.5 1s-.8 1.8-.8 3.4v8.1h-4.3V41.2h4.1zM399.7 41.2V44h-3.1v7.7c0 .7.1 1.2.4 1.4s.7.4 1.4.4h.7c.2 0 .4 0 .6-.1v3.3c-.4.1-.8.1-1.2.1h-1.3c-.7 0-1.3 0-1.9-.1-.6-.1-1.1-.3-1.6-.5s-.8-.6-1.1-1.1c-.3-.5-.4-1.1-.4-1.9V44h-2.6v-2.8h2.6v-4.7h4.3v4.7h3.2zM401.8 38.8v-3.5h4.3v3.5h-4.3zm4.3 2.4v15.5h-4.3V41.2h4.3zM413.1 52.8c.2.3.4.6.7.8.3.2.6.4 1 .5.4.1.8.2 1.2.2.3 0 .6 0 .9-.1l.9-.3c.3-.1.5-.3.7-.6s.3-.6.3-.9c0-.6-.4-1.1-1.3-1.4-.9-.3-2-.6-3.6-1-.6-.1-1.2-.3-1.8-.5s-1.1-.4-1.6-.8c-.5-.3-.8-.7-1.1-1.2-.3-.5-.4-1-.4-1.7 0-1 .2-1.8.6-2.5.4-.6.9-1.1 1.5-1.5.6-.4 1.4-.6 2.2-.8s1.6-.2 2.5-.2c.8 0 1.7.1 2.4.2.8.2 1.5.4 2.1.8s1.1.9 1.5 1.5c.4.6.7 1.4.7 2.4h-4.1c-.1-.8-.4-1.4-.9-1.7-.6-.3-1.2-.4-2-.4h-.8c-.3 0-.5.1-.8.2-.2.1-.4.2-.6.4-.2.2-.2.4-.2.8s.1.7.4.9c.3.2.6.4 1.1.6s1 .3 1.5.4 1.2.2 1.8.4c.6.1 1.2.3 1.8.5.6.2 1.1.5 1.6.8s.8.7 1.1 1.2c.3.5.4 1.1.4 1.8 0 1-.2 1.9-.6 2.6s-.9 1.2-1.6 1.7c-.7.4-1.4.7-2.3.9-.9.2-1.7.3-2.6.3-.9 0-1.8-.1-2.6-.3-.9-.2-1.6-.5-2.3-.9s-1.2-1-1.6-1.7c-.4-.7-.7-1.6-.7-2.6h4c.3.5.4.9.6 1.2zM434.1 41.2V44H431v7.7c0 .7.1 1.2.4 1.4s.7.4 1.4.4h.7c.2 0 .4 0 .6-.1v3.3c-.4.1-.8.1-1.2.1h-1.3c-.7 0-1.3 0-1.9-.1-.6-.1-1.1-.3-1.6-.5s-.8-.6-1.1-1.1c-.3-.5-.4-1.1-.4-1.9V44H424v-2.8h2.6v-4.7h4.3v4.7h3.2zM439.7 52.8c.2.3.4.6.7.8.3.2.6.4 1 .5.4.1.8.2 1.2.2.3 0 .6 0 .9-.1l.9-.3c.3-.1.5-.3.7-.6s.3-.6.3-.9c0-.6-.4-1.1-1.3-1.4-.9-.3-2-.6-3.6-1-.6-.1-1.2-.3-1.8-.5s-1.1-.4-1.6-.8c-.5-.3-.8-.7-1.1-1.2-.3-.5-.4-1-.4-1.7 0-1 .2-1.8.6-2.5.4-.6.9-1.1 1.5-1.5.6-.4 1.4-.6 2.2-.8s1.6-.2 2.5-.2c.8 0 1.7.1 2.4.2.8.2 1.5.4 2.1.8s1.1.9 1.5 1.5c.4.6.7 1.4.7 2.4H445c-.1-.8-.4-1.4-.9-1.7-.6-.3-1.2-.4-2-.4h-.8c-.3 0-.5.1-.8.2-.2.1-.4.2-.6.4-.2.2-.2.4-.2.8s.1.7.4.9c.3.2.6.4 1.1.6s1 .3 1.5.4 1.2.2 1.8.4c.6.1 1.2.3 1.8.5.6.2 1.1.5 1.6.8s.8.7 1.1 1.2c.3.5.4 1.1.4 1.8 0 1-.2 1.9-.6 2.6s-.9 1.2-1.6 1.7c-.7.4-1.4.7-2.3.9-.9.2-1.7.3-2.6.3-.9 0-1.8-.1-2.6-.3-.9-.2-1.6-.5-2.3-.9s-1.2-1-1.6-1.7c-.4-.7-.7-1.6-.7-2.6h4c.3.5.4.9.6 1.2z"/></svg>