<?xml version="1.0" encoding="utf-8"?>
<!-- Generator: Adobe Illustrator 26.3.1, SVG Export Plug-In . SVG Version: 6.00 Build 0)  -->
<svg version="1.1" id="Layer_1" xmlns="http://www.w3.org/2000/svg" xmlns:xlink="http://www.w3.org/1999/xlink" x="0px" y="0px"
	 viewBox="0 0 728 90" style="enable-background:new 0 0 728 90;" xml:space="preserve">
<style type="text/css">
	.st0{fill:#339933;}
	.st1{fill:#231F20;}
</style>
<g>
	<path class="st0" d="M29.2,18.9v7.4H37v-7.4h4.2v19.3H37v-8.3h-7.8v8.3H25V18.9H29.2z"/>
	<path class="st0" d="M44.4,28.6c0.1-0.9,0.3-1.6,0.7-2.2c0.4-0.6,0.9-1.1,1.5-1.4c0.6-0.4,1.3-0.6,2.1-0.8s1.5-0.2,2.3-0.2
		c0.7,0,1.4,0,2.1,0.1c0.7,0.1,1.4,0.3,2,0.6c0.6,0.3,1.1,0.7,1.5,1.2c0.4,0.5,0.6,1.2,0.6,2v7.3c0,0.6,0,1.2,0.1,1.8
		c0.1,0.6,0.2,1,0.4,1.3h-3.9c-0.1-0.2-0.1-0.4-0.2-0.7c0-0.2-0.1-0.5-0.1-0.7c-0.6,0.6-1.3,1.1-2.2,1.3s-1.7,0.4-2.5,0.4
		c-0.7,0-1.3-0.1-1.9-0.2s-1.1-0.4-1.5-0.8c-0.4-0.3-0.8-0.8-1-1.3S44,35.1,44,34.4c0-0.8,0.1-1.4,0.4-2c0.3-0.5,0.6-0.9,1.1-1.2
		c0.4-0.3,0.9-0.5,1.5-0.7c0.6-0.2,1.1-0.3,1.7-0.4c0.6-0.1,1.1-0.2,1.7-0.2c0.6-0.1,1.1-0.1,1.5-0.2s0.8-0.3,1-0.5
		c0.3-0.2,0.4-0.5,0.4-0.9c0-0.4-0.1-0.7-0.2-1c-0.1-0.2-0.3-0.4-0.5-0.6c-0.2-0.1-0.5-0.2-0.8-0.3c-0.3,0-0.6-0.1-1-0.1
		c-0.8,0-1.4,0.2-1.8,0.5c-0.4,0.3-0.7,0.9-0.8,1.6H44.4z M53.3,31.4c-0.2,0.1-0.4,0.3-0.6,0.3s-0.5,0.1-0.8,0.2
		C51.6,32,51.3,32,51,32.1s-0.6,0.1-0.9,0.1c-0.3,0.1-0.6,0.1-0.9,0.2c-0.3,0.1-0.5,0.2-0.7,0.4c-0.2,0.2-0.4,0.3-0.5,0.6
		c-0.1,0.2-0.2,0.5-0.2,0.9c0,0.3,0.1,0.6,0.2,0.9c0.1,0.2,0.3,0.4,0.5,0.6c0.2,0.1,0.5,0.2,0.8,0.3c0.3,0.1,0.6,0.1,0.9,0.1
		c0.8,0,1.3-0.1,1.8-0.4c0.4-0.3,0.7-0.6,0.9-0.9c0.2-0.4,0.3-0.7,0.4-1.1c0-0.4,0.1-0.6,0.1-0.9V31.4z"/>
	<path class="st0" d="M63.6,38.2l-4.8-14h4l2.9,9.5h0.1l2.9-9.5h3.8l-4.7,14H63.6z"/>
	<path class="st0" d="M78.2,34.9c0.6,0.6,1.4,0.8,2.5,0.8c0.8,0,1.4-0.2,2-0.6c0.6-0.4,0.9-0.8,1-1.2h3.4c-0.5,1.7-1.4,2.9-2.5,3.6
		c-1.1,0.7-2.5,1.1-4,1.1c-1.1,0-2.1-0.2-3-0.5c-0.9-0.4-1.6-0.9-2.2-1.5c-0.6-0.6-1.1-1.4-1.4-2.3c-0.3-0.9-0.5-1.9-0.5-3
		c0-1,0.2-2,0.5-2.9s0.8-1.7,1.5-2.3c0.6-0.7,1.4-1.2,2.3-1.6s1.8-0.6,2.9-0.6c1.2,0,2.2,0.2,3.1,0.7c0.9,0.5,1.6,1.1,2.2,1.8
		s1,1.7,1.2,2.6c0.3,1,0.3,2,0.3,3.1H77.3C77.4,33.4,77.7,34.3,78.2,34.9z M82.6,27.5c-0.5-0.5-1.2-0.8-2.1-0.8
		c-0.6,0-1.1,0.1-1.5,0.3c-0.4,0.2-0.7,0.5-1,0.8c-0.2,0.3-0.4,0.6-0.5,1c-0.1,0.3-0.2,0.6-0.2,0.9h6.2C83.4,28.8,83,28,82.6,27.5z"
		/>
	<path class="st0" d="M95.5,18.9h4.8l4.5,7.6l4.5-7.6h4.7l-7.2,11.9v7.4h-4.2v-7.5L95.5,18.9z"/>
	<path class="st0" d="M115.4,24.7c0.4-1.2,1.1-2.3,1.9-3.2s1.8-1.6,3-2.2c1.2-0.5,2.5-0.8,4-0.8c1.5,0,2.8,0.3,4,0.8
		c1.2,0.5,2.2,1.2,3,2.2c0.8,0.9,1.4,2,1.9,3.2s0.6,2.6,0.6,4c0,1.4-0.2,2.7-0.6,3.9c-0.4,1.2-1.1,2.3-1.9,3.2
		c-0.8,0.9-1.8,1.6-3,2.1c-1.2,0.5-2.5,0.8-4,0.8c-1.5,0-2.8-0.3-4-0.8c-1.2-0.5-2.2-1.2-3-2.1c-0.8-0.9-1.4-2-1.9-3.2
		c-0.4-1.2-0.6-2.5-0.6-3.9C114.7,27.2,114.9,25.9,115.4,24.7z M119.2,31c0.2,0.8,0.5,1.5,0.9,2.1c0.4,0.6,1,1.1,1.6,1.5
		c0.7,0.4,1.5,0.6,2.4,0.6s1.8-0.2,2.4-0.6c0.7-0.4,1.2-0.9,1.6-1.5c0.4-0.6,0.7-1.3,0.9-2.1s0.3-1.6,0.3-2.4c0-0.8-0.1-1.7-0.3-2.5
		c-0.2-0.8-0.5-1.5-0.9-2.1c-0.4-0.6-1-1.1-1.6-1.5c-0.7-0.4-1.5-0.6-2.4-0.6s-1.8,0.2-2.4,0.6c-0.7,0.4-1.2,0.9-1.6,1.5
		c-0.4,0.6-0.7,1.3-0.9,2.1c-0.2,0.8-0.3,1.6-0.3,2.5C119,29.5,119.1,30.3,119.2,31z"/>
	<path class="st0" d="M150.7,36.7c-1.5,1.3-3.5,1.9-6,1.9c-2.6,0-4.6-0.6-6.1-1.9c-1.4-1.3-2.1-3.2-2.1-5.8v-12h4.2v12
		c0,0.5,0,1,0.1,1.5c0.1,0.5,0.3,0.9,0.6,1.3c0.3,0.4,0.7,0.7,1.2,0.9c0.5,0.2,1.2,0.4,2.1,0.4c1.5,0,2.6-0.3,3.1-1
		c0.6-0.7,0.9-1.7,0.9-3.2v-12h4.2v12C152.9,33.5,152.2,35.5,150.7,36.7z"/>
	<path class="st0" d="M167,18.9c0.9,0,1.6,0.1,2.3,0.4c0.7,0.3,1.3,0.7,1.8,1.1c0.5,0.5,0.9,1,1.1,1.7c0.3,0.6,0.4,1.3,0.4,2.1
		c0,1.1-0.2,2.1-0.7,2.9c-0.5,0.8-1.3,1.5-2.3,1.9v0.1c0.5,0.1,1,0.4,1.3,0.7c0.3,0.3,0.6,0.6,0.8,1.1c0.2,0.4,0.4,0.9,0.5,1.3
		c0.1,0.5,0.2,1,0.2,1.5c0,0.3,0,0.7,0.1,1.1c0,0.4,0,0.8,0.1,1.3c0,0.4,0.1,0.8,0.2,1.2c0.1,0.4,0.2,0.7,0.4,1h-4.2
		c-0.2-0.6-0.4-1.3-0.4-2.2c-0.1-0.8-0.1-1.7-0.2-2.4c-0.1-1-0.5-1.7-0.9-2.2c-0.5-0.5-1.2-0.7-2.3-0.7h-4.2v7.5h-4.2V18.9H167z
		 M165.5,27.7c1,0,1.7-0.2,2.2-0.6c0.5-0.4,0.7-1.1,0.7-2.1c0-0.9-0.2-1.6-0.7-2c-0.5-0.4-1.2-0.6-2.2-0.6h-4.6v5.4H165.5z"/>
	<path class="st0" d="M195.9,24.1c-0.3-0.4-0.6-0.8-0.9-1.1c-0.4-0.3-0.8-0.5-1.3-0.7c-0.5-0.2-1-0.3-1.5-0.3c-1,0-1.8,0.2-2.4,0.6
		c-0.7,0.4-1.2,0.9-1.6,1.5c-0.4,0.6-0.7,1.3-0.9,2.1c-0.2,0.8-0.3,1.6-0.3,2.5c0,0.8,0.1,1.6,0.3,2.4s0.5,1.5,0.9,2.1
		c0.4,0.6,1,1.1,1.6,1.5c0.7,0.4,1.5,0.6,2.4,0.6c1.3,0,2.3-0.4,3-1.2c0.7-0.8,1.2-1.8,1.3-3.1h4.1c-0.1,1.2-0.4,2.3-0.8,3.3
		c-0.5,1-1,1.8-1.8,2.5s-1.6,1.2-2.6,1.6c-1,0.4-2.1,0.5-3.3,0.5c-1.5,0-2.8-0.3-4-0.8c-1.2-0.5-2.2-1.2-3-2.1
		c-0.8-0.9-1.4-2-1.9-3.2c-0.4-1.2-0.6-2.5-0.6-3.9c0-1.4,0.2-2.8,0.6-4c0.4-1.2,1.1-2.3,1.9-3.2s1.8-1.6,3-2.2
		c1.2-0.5,2.5-0.8,4-0.8c1.1,0,2.1,0.2,3,0.5c0.9,0.3,1.8,0.8,2.5,1.3s1.4,1.3,1.8,2.2c0.5,0.9,0.8,1.9,0.9,3h-4.1
		C196.3,24.9,196.2,24.5,195.9,24.1z"/>
	<path class="st0" d="M213.2,18.9l7.2,19.3H216l-1.5-4.3h-7.2l-1.5,4.3h-4.3l7.3-19.3H213.2z M213.4,30.8l-2.4-7.1h-0.1l-2.5,7.1
		H213.4z"/>
	<path class="st0" d="M226.3,18.9v8l7.5-8h5.3l-7.5,7.6l8.3,11.7h-5.3l-5.8-8.7l-2.4,2.5v6.2h-4.2V18.9H226.3z"/>
	<path class="st0" d="M256,18.9v3.6h-10.2v4.1h9.3v3.3h-9.3v4.7h10.4v3.6h-14.6V18.9H256z"/>
</g>
<g>
	<path class="st1" d="M24.4,56.6c0.1-0.9,0.3-1.6,0.7-2.2c0.4-0.6,0.9-1.1,1.5-1.4s1.3-0.6,2.1-0.8c0.8-0.2,1.5-0.2,2.3-0.2
		c0.7,0,1.4,0,2.1,0.1c0.7,0.1,1.4,0.3,2,0.6c0.6,0.3,1.1,0.7,1.5,1.2c0.4,0.5,0.6,1.2,0.6,2v7.3c0,0.6,0,1.2,0.1,1.8
		c0.1,0.6,0.2,1,0.4,1.3h-3.9c-0.1-0.2-0.1-0.4-0.2-0.7c0-0.2-0.1-0.5-0.1-0.7c-0.6,0.6-1.3,1.1-2.2,1.3s-1.7,0.4-2.5,0.4
		c-0.7,0-1.3-0.1-1.9-0.2c-0.6-0.2-1.1-0.4-1.5-0.8c-0.4-0.3-0.8-0.8-1-1.3c-0.2-0.5-0.4-1.1-0.4-1.9c0-0.8,0.1-1.4,0.4-2
		c0.3-0.5,0.6-0.9,1.1-1.2c0.4-0.3,0.9-0.5,1.5-0.7c0.6-0.2,1.1-0.3,1.7-0.4s1.1-0.2,1.7-0.2c0.6-0.1,1.1-0.1,1.5-0.2
		c0.4-0.1,0.8-0.3,1-0.5s0.4-0.5,0.4-0.9c0-0.4-0.1-0.7-0.2-1c-0.1-0.2-0.3-0.4-0.5-0.6c-0.2-0.1-0.5-0.2-0.8-0.3s-0.6-0.1-1-0.1
		c-0.8,0-1.4,0.2-1.8,0.5c-0.4,0.3-0.7,0.9-0.8,1.6H24.4z M33.3,59.4c-0.2,0.1-0.4,0.3-0.6,0.3s-0.5,0.1-0.8,0.2
		C31.6,60,31.3,60,31,60.1c-0.3,0-0.6,0.1-0.9,0.1c-0.3,0.1-0.6,0.1-0.9,0.2c-0.3,0.1-0.5,0.2-0.7,0.4c-0.2,0.2-0.4,0.3-0.5,0.6
		c-0.1,0.2-0.2,0.5-0.2,0.9c0,0.3,0.1,0.6,0.2,0.9c0.1,0.2,0.3,0.4,0.5,0.6c0.2,0.1,0.5,0.2,0.8,0.3c0.3,0.1,0.6,0.1,0.9,0.1
		c0.8,0,1.3-0.1,1.8-0.4c0.4-0.3,0.7-0.6,0.9-0.9c0.2-0.4,0.3-0.7,0.4-1.1c0-0.4,0.1-0.6,0.1-0.9V59.4z"/>
	<path class="st1" d="M43.7,52.3v1.9h0.1c0.5-0.8,1.1-1.4,1.9-1.8c0.8-0.4,1.6-0.6,2.4-0.6c1,0,1.9,0.1,2.5,0.4
		c0.7,0.3,1.2,0.7,1.6,1.2c0.4,0.5,0.6,1.1,0.8,1.8c0.2,0.7,0.2,1.5,0.2,2.4v8.6h-3.8v-7.9c0-1.2-0.2-2-0.5-2.6
		c-0.4-0.6-1-0.9-1.9-0.9c-1,0-1.8,0.3-2.3,0.9c-0.5,0.6-0.7,1.6-0.7,3.1v7.3h-3.8v-14H43.7z"/>
	<path class="st1" d="M66,64.4c-0.5,0.8-1,1.3-1.8,1.6s-1.6,0.5-2.5,0.5c-1,0-2-0.2-2.8-0.6c-0.8-0.4-1.4-1-2-1.6s-0.9-1.5-1.2-2.4
		c-0.3-0.9-0.4-1.8-0.4-2.8c0-0.9,0.1-1.8,0.4-2.7c0.3-0.9,0.6-1.6,1.2-2.3s1.2-1.2,1.9-1.6c0.8-0.4,1.7-0.6,2.7-0.6
		c0.8,0,1.6,0.2,2.4,0.5c0.7,0.4,1.3,0.9,1.8,1.6h0.1v-7h3.8v19.3h-3.6L66,64.4L66,64.4z M65.8,57.5c-0.1-0.5-0.3-1-0.6-1.4
		c-0.3-0.4-0.6-0.7-1-1c-0.4-0.3-0.9-0.4-1.6-0.4c-0.6,0-1.2,0.1-1.6,0.4c-0.4,0.3-0.8,0.6-1,1c-0.3,0.4-0.5,0.9-0.6,1.4
		c-0.1,0.5-0.2,1.1-0.2,1.7c0,0.5,0.1,1.1,0.2,1.6c0.1,0.5,0.3,1,0.6,1.4c0.3,0.4,0.6,0.8,1.1,1s0.9,0.4,1.5,0.4
		c0.6,0,1.2-0.1,1.6-0.4s0.8-0.6,1-1c0.3-0.4,0.4-0.9,0.5-1.4s0.2-1.1,0.2-1.7S66,58.1,65.8,57.5z"/>
	<path class="st1" d="M84.7,46.9v8l7.5-8h5.3L90,54.6l8.3,11.7H93l-5.8-8.7L84.7,60v6.2h-4.2V46.9H84.7z"/>
	<path class="st1" d="M114.4,46.9v3.6h-10.2v4.1h9.3v3.3h-9.3v4.7h10.4v3.6H100V46.9H114.4z"/>
	<path class="st1" d="M131.9,46.9v3.6h-10.2v4.1h9.3v3.3h-9.3v4.7h10.4v3.6h-14.6V46.9H131.9z"/>
	<path class="st1" d="M143.7,46.9c1.2,0,2.2,0.2,3.1,0.5c0.8,0.4,1.5,0.8,2.1,1.4c0.5,0.6,0.9,1.2,1.2,2c0.2,0.7,0.4,1.5,0.4,2.3
		c0,0.8-0.1,1.5-0.4,2.3c-0.2,0.7-0.6,1.4-1.2,2c-0.5,0.6-1.2,1-2.1,1.4s-1.9,0.5-3.1,0.5h-4.5v6.9H135V46.9H143.7z M142.5,56
		c0.5,0,1,0,1.4-0.1c0.4-0.1,0.8-0.2,1.2-0.4s0.6-0.5,0.8-0.9c0.2-0.4,0.3-0.9,0.3-1.5s-0.1-1.1-0.3-1.5c-0.2-0.4-0.5-0.7-0.8-0.9
		s-0.7-0.3-1.2-0.4c-0.4-0.1-0.9-0.1-1.4-0.1h-3.3V56H142.5z"/>
	<path class="st1" d="M165.3,70.4c-0.7,0.5-1.8,0.7-3.1,0.7c-0.4,0-0.8,0-1.2,0c-0.4,0-0.8-0.1-1.2-0.1v-3.2c0.4,0,0.7,0.1,1.1,0.1
		s0.8,0,1.1,0c0.5-0.1,0.9-0.3,1.1-0.6c0.2-0.3,0.4-0.7,0.4-1.1c0-0.3-0.1-0.6-0.2-0.9l-4.9-13.1h4.1l3.2,9.6h0.1l3.1-9.6h4
		L167,67.9C166.6,69.1,166,69.9,165.3,70.4z"/>
	<path class="st1" d="M174.2,56.2c0.3-0.9,0.8-1.7,1.5-2.3c0.6-0.6,1.4-1.1,2.3-1.5c0.9-0.4,1.9-0.5,3-0.5c1.1,0,2.1,0.2,3,0.5
		c0.9,0.4,1.7,0.8,2.3,1.5c0.6,0.6,1.1,1.4,1.5,2.3c0.3,0.9,0.5,1.9,0.5,3s-0.2,2.1-0.5,3c-0.3,0.9-0.8,1.7-1.5,2.3
		c-0.6,0.6-1.4,1.1-2.3,1.5c-0.9,0.3-1.9,0.5-3,0.5c-1.1,0-2.1-0.2-3-0.5c-0.9-0.3-1.6-0.8-2.3-1.5c-0.6-0.6-1.1-1.4-1.5-2.3
		c-0.3-0.9-0.5-1.9-0.5-3S173.9,57.1,174.2,56.2z M177.7,60.9c0.1,0.5,0.3,1,0.6,1.4c0.3,0.4,0.6,0.8,1,1c0.4,0.3,1,0.4,1.6,0.4
		s1.2-0.1,1.6-0.4c0.4-0.3,0.8-0.6,1.1-1c0.3-0.4,0.4-0.9,0.6-1.4c0.1-0.5,0.2-1.1,0.2-1.6s-0.1-1.1-0.2-1.6s-0.3-1-0.6-1.4
		c-0.3-0.4-0.6-0.8-1.1-1c-0.4-0.3-1-0.4-1.6-0.4s-1.2,0.1-1.6,0.4c-0.4,0.3-0.8,0.6-1,1c-0.3,0.4-0.4,0.9-0.6,1.4s-0.2,1.1-0.2,1.6
		S177.6,60.4,177.7,60.9z"/>
	<path class="st1" d="M200.1,66.2v-1.9H200c-0.5,0.8-1.1,1.4-1.9,1.8c-0.8,0.4-1.6,0.5-2.4,0.5c-1,0-1.9-0.1-2.5-0.4
		c-0.7-0.3-1.2-0.7-1.6-1.1s-0.6-1.1-0.8-1.8c-0.2-0.7-0.2-1.5-0.2-2.4v-8.6h3.8v7.9c0,1.2,0.2,2,0.5,2.6c0.4,0.6,1,0.8,1.9,0.8
		c1,0,1.8-0.3,2.3-0.9c0.5-0.6,0.7-1.6,0.7-3.1v-7.3h3.8v14H200.1z"/>
	<path class="st1" d="M210.3,52.3v2.6h0.1c0.2-0.4,0.4-0.8,0.7-1.2c0.3-0.4,0.7-0.7,1.1-0.9c0.4-0.3,0.8-0.5,1.3-0.6
		c0.4-0.1,0.9-0.2,1.4-0.2c0.3,0,0.5,0,0.8,0.1v3.6c-0.2,0-0.4-0.1-0.6-0.1s-0.5,0-0.7,0c-0.7,0-1.3,0.1-1.8,0.4
		c-0.5,0.2-0.9,0.6-1.2,1c-0.3,0.4-0.5,0.9-0.6,1.4s-0.2,1.1-0.2,1.8v6.3h-3.8v-14H210.3z"/>
	<path class="st1" d="M224.7,50.1v-3.2h3.8v3.2H224.7z M228.6,52.3v14h-3.8v-14H228.6z"/>
	<path class="st1" d="M235.2,52.3v1.9h0.1c0.5-0.8,1.1-1.4,1.9-1.8c0.8-0.4,1.6-0.6,2.4-0.6c1,0,1.9,0.1,2.5,0.4
		c0.7,0.3,1.2,0.7,1.6,1.2c0.4,0.5,0.6,1.1,0.8,1.8c0.2,0.7,0.2,1.5,0.2,2.4v8.6h-3.8v-7.9c0-1.2-0.2-2-0.5-2.6
		c-0.4-0.6-1-0.9-1.9-0.9c-1,0-1.8,0.3-2.3,0.9c-0.5,0.6-0.7,1.6-0.7,3.1v7.3h-3.8v-14H235.2z"/>
	<path class="st1" d="M254.3,54.8c-0.6,0-1.1,0.1-1.5,0.4s-0.8,0.6-1,1.1c-0.3,0.4-0.4,0.9-0.6,1.5s-0.2,1.1-0.2,1.6
		c0,0.5,0.1,1,0.2,1.5c0.1,0.5,0.3,1,0.5,1.4c0.2,0.4,0.6,0.8,1,1c0.4,0.3,0.9,0.4,1.5,0.4c0.9,0,1.6-0.3,2.1-0.8
		c0.5-0.5,0.8-1.2,0.9-2.1h3.7c-0.3,1.9-1,3.3-2.2,4.2c-1.2,1-2.7,1.5-4.6,1.5c-1,0-2-0.2-2.9-0.5c-0.9-0.4-1.6-0.8-2.2-1.5
		c-0.6-0.6-1.1-1.4-1.4-2.3c-0.3-0.9-0.5-1.8-0.5-2.9c0-1.1,0.2-2.1,0.5-3c0.3-0.9,0.8-1.7,1.4-2.4c0.6-0.7,1.4-1.2,2.2-1.6
		c0.9-0.4,1.9-0.6,3-0.6c0.8,0,1.6,0.1,2.4,0.3s1.4,0.5,2.1,1c0.6,0.4,1.1,1,1.5,1.6c0.4,0.7,0.6,1.4,0.6,2.3h-3.8
		C256.9,55.6,255.9,54.8,254.3,54.8z"/>
	<path class="st1" d="M263.2,50.1v-3.2h3.8v3.2H263.2z M267.1,52.3v14h-3.8v-14H267.1z"/>
	<path class="st1" d="M273.3,62.8c0.2,0.3,0.4,0.5,0.7,0.7c0.3,0.2,0.6,0.3,0.9,0.4c0.4,0.1,0.7,0.1,1.1,0.1c0.3,0,0.6,0,0.9-0.1
		c0.3-0.1,0.6-0.2,0.8-0.3c0.2-0.1,0.4-0.3,0.6-0.5c0.2-0.2,0.2-0.5,0.2-0.9c0-0.6-0.4-1-1.1-1.3s-1.8-0.6-3.2-0.9
		c-0.6-0.1-1.1-0.3-1.6-0.4c-0.5-0.2-1-0.4-1.4-0.7c-0.4-0.3-0.7-0.6-1-1.1c-0.3-0.4-0.4-0.9-0.4-1.6c0-0.9,0.2-1.6,0.5-2.2
		c0.4-0.6,0.8-1,1.4-1.4s1.2-0.6,1.9-0.7c0.7-0.1,1.5-0.2,2.2-0.2c0.8,0,1.5,0.1,2.2,0.2c0.7,0.1,1.3,0.4,1.9,0.7
		c0.6,0.3,1,0.8,1.4,1.4c0.4,0.6,0.6,1.3,0.7,2.1h-3.6c-0.1-0.7-0.3-1.2-0.8-1.5c-0.5-0.3-1.1-0.4-1.8-0.4c-0.2,0-0.5,0-0.7,0
		c-0.3,0-0.5,0.1-0.7,0.2c-0.2,0.1-0.4,0.2-0.5,0.4c-0.1,0.2-0.2,0.4-0.2,0.7c0,0.3,0.1,0.6,0.4,0.8c0.3,0.2,0.6,0.4,1,0.5
		c0.4,0.1,0.9,0.3,1.4,0.4s1.1,0.2,1.6,0.4c0.6,0.1,1.1,0.3,1.6,0.5c0.5,0.2,1,0.4,1.4,0.7s0.7,0.7,1,1.1s0.4,1,0.4,1.6
		c0,0.9-0.2,1.7-0.6,2.3c-0.4,0.6-0.9,1.1-1.4,1.5c-0.6,0.4-1.3,0.6-2,0.8c-0.8,0.2-1.5,0.2-2.3,0.2c-0.8,0-1.6-0.1-2.4-0.2
		c-0.8-0.2-1.5-0.4-2.1-0.8s-1.1-0.9-1.5-1.5c-0.4-0.6-0.6-1.4-0.6-2.3h3.6C273,62.1,273.1,62.5,273.3,62.8z"/>
	<path class="st1" d="M284.7,56.2c0.3-0.9,0.8-1.7,1.5-2.3c0.6-0.6,1.4-1.1,2.3-1.5c0.9-0.4,1.9-0.5,3-0.5c1.1,0,2.1,0.2,3,0.5
		c0.9,0.4,1.7,0.8,2.3,1.5c0.6,0.6,1.1,1.4,1.5,2.3c0.3,0.9,0.5,1.9,0.5,3s-0.2,2.1-0.5,3c-0.3,0.9-0.8,1.7-1.5,2.3
		c-0.6,0.6-1.4,1.1-2.3,1.5c-0.9,0.3-1.9,0.5-3,0.5c-1.1,0-2.1-0.2-3-0.5c-0.9-0.3-1.6-0.8-2.3-1.5c-0.6-0.6-1.1-1.4-1.5-2.3
		c-0.3-0.9-0.5-1.9-0.5-3S284.3,57.1,284.7,56.2z M288.1,60.9c0.1,0.5,0.3,1,0.6,1.4c0.3,0.4,0.6,0.8,1,1c0.4,0.3,1,0.4,1.6,0.4
		s1.2-0.1,1.6-0.4c0.4-0.3,0.8-0.6,1.1-1c0.3-0.4,0.4-0.9,0.6-1.4c0.1-0.5,0.2-1.1,0.2-1.6s-0.1-1.1-0.2-1.6s-0.3-1-0.6-1.4
		c-0.3-0.4-0.6-0.8-1.1-1c-0.4-0.3-1-0.4-1.6-0.4s-1.2,0.1-1.6,0.4c-0.4,0.3-0.8,0.6-1,1c-0.3,0.4-0.4,0.9-0.6,1.4s-0.2,1.1-0.2,1.6
		S288,60.4,288.1,60.9z"/>
	<path class="st1" d="M304.7,52.3v2.6h0.1c0.2-0.4,0.4-0.8,0.7-1.2c0.3-0.4,0.7-0.7,1.1-0.9c0.4-0.3,0.8-0.5,1.3-0.6
		c0.4-0.1,0.9-0.2,1.4-0.2c0.3,0,0.5,0,0.8,0.1v3.6c-0.2,0-0.4-0.1-0.6-0.1s-0.5,0-0.7,0c-0.7,0-1.3,0.1-1.8,0.4
		c-0.5,0.2-0.9,0.6-1.2,1c-0.3,0.4-0.5,0.9-0.6,1.4s-0.2,1.1-0.2,1.8v6.3h-3.8v-14H304.7z"/>
	<path class="st1" d="M314.8,62.8c0.2,0.3,0.4,0.5,0.7,0.7c0.3,0.2,0.6,0.3,0.9,0.4c0.4,0.1,0.7,0.1,1.1,0.1c0.3,0,0.6,0,0.9-0.1
		c0.3-0.1,0.6-0.2,0.8-0.3c0.2-0.1,0.4-0.3,0.6-0.5c0.2-0.2,0.2-0.5,0.2-0.9c0-0.6-0.4-1-1.1-1.3s-1.8-0.6-3.2-0.9
		c-0.6-0.1-1.1-0.3-1.6-0.4c-0.5-0.2-1-0.4-1.4-0.7c-0.4-0.3-0.7-0.6-1-1.1c-0.3-0.4-0.4-0.9-0.4-1.6c0-0.9,0.2-1.6,0.5-2.2
		c0.4-0.6,0.8-1,1.4-1.4s1.2-0.6,1.9-0.7c0.7-0.1,1.5-0.2,2.2-0.2c0.8,0,1.5,0.1,2.2,0.2c0.7,0.1,1.3,0.4,1.9,0.7
		c0.6,0.3,1,0.8,1.4,1.4c0.4,0.6,0.6,1.3,0.7,2.1h-3.6c-0.1-0.7-0.3-1.2-0.8-1.5c-0.5-0.3-1.1-0.4-1.8-0.4c-0.2,0-0.5,0-0.7,0
		c-0.3,0-0.5,0.1-0.7,0.2c-0.2,0.1-0.4,0.2-0.5,0.4c-0.1,0.2-0.2,0.4-0.2,0.7c0,0.3,0.1,0.6,0.4,0.8c0.3,0.2,0.6,0.4,1,0.5
		c0.4,0.1,0.9,0.3,1.4,0.4s1.1,0.2,1.6,0.4c0.6,0.1,1.1,0.3,1.6,0.5c0.5,0.2,1,0.4,1.4,0.7s0.7,0.7,1,1.1s0.4,1,0.4,1.6
		c0,0.9-0.2,1.7-0.6,2.3c-0.4,0.6-0.9,1.1-1.4,1.5c-0.6,0.4-1.3,0.6-2,0.8c-0.8,0.2-1.5,0.2-2.3,0.2c-0.8,0-1.6-0.1-2.4-0.2
		c-0.8-0.2-1.5-0.4-2.1-0.8s-1.1-0.9-1.5-1.5c-0.4-0.6-0.6-1.4-0.6-2.3h3.6C314.5,62.1,314.6,62.5,314.8,62.8z"/>
	<path class="st1" d="M330.5,62.1v4.2c0,0.6-0.1,1.2-0.3,1.7s-0.5,1-0.9,1.3s-0.8,0.7-1.3,0.9c-0.5,0.2-1.1,0.4-1.6,0.5v-1.9
		c0.3-0.1,0.5-0.2,0.8-0.3c0.2-0.2,0.5-0.4,0.6-0.6c0.2-0.2,0.3-0.5,0.4-0.8c0.1-0.3,0.1-0.6,0.1-0.9h-1.9v-4.2H330.5z"/>
	<path class="st1" d="M340,50.5v-3.6h15.8v3.6H350v15.7h-4.2V50.5H340z"/>
	<path class="st1" d="M357.8,52.7c0.4-1.2,1.1-2.3,1.9-3.2c0.8-0.9,1.8-1.6,3-2.2c1.2-0.5,2.5-0.8,4-0.8c1.5,0,2.8,0.3,4,0.8
		c1.2,0.5,2.2,1.2,3,2.2c0.8,0.9,1.4,2,1.9,3.2c0.4,1.2,0.6,2.6,0.6,4c0,1.4-0.2,2.7-0.6,3.9c-0.4,1.2-1.1,2.3-1.9,3.2
		c-0.8,0.9-1.8,1.6-3,2.1c-1.2,0.5-2.5,0.8-4,0.8c-1.5,0-2.8-0.3-4-0.8c-1.2-0.5-2.2-1.2-3-2.1c-0.8-0.9-1.4-2-1.9-3.2
		c-0.4-1.2-0.6-2.5-0.6-3.9C357.1,55.2,357.4,53.9,357.8,52.7z M361.7,59c0.2,0.8,0.5,1.5,0.9,2.1s1,1.1,1.6,1.5
		c0.7,0.4,1.5,0.6,2.4,0.6s1.8-0.2,2.4-0.6s1.2-0.9,1.6-1.5s0.7-1.3,0.9-2.1c0.2-0.8,0.3-1.6,0.3-2.4c0-0.8-0.1-1.7-0.3-2.5
		c-0.2-0.8-0.5-1.5-0.9-2.1s-1-1.1-1.6-1.5s-1.5-0.6-2.4-0.6s-1.8,0.2-2.4,0.6c-0.7,0.4-1.2,0.9-1.6,1.5s-0.7,1.3-0.9,2.1
		c-0.2,0.8-0.3,1.6-0.3,2.5C361.4,57.5,361.5,58.3,361.7,59z"/>
	<path class="st1" d="M378.8,52.7c0.4-1.2,1.1-2.3,1.9-3.2c0.8-0.9,1.8-1.6,3-2.2c1.2-0.5,2.5-0.8,4-0.8c1.5,0,2.8,0.3,4,0.8
		c1.2,0.5,2.2,1.2,3,2.2c0.8,0.9,1.4,2,1.9,3.2c0.4,1.2,0.6,2.6,0.6,4c0,1.4-0.2,2.7-0.6,3.9c-0.4,1.2-1.1,2.3-1.9,3.2
		c-0.8,0.9-1.8,1.6-3,2.1c-1.2,0.5-2.5,0.8-4,0.8c-1.5,0-2.8-0.3-4-0.8c-1.2-0.5-2.2-1.2-3-2.1c-0.8-0.9-1.4-2-1.9-3.2
		c-0.4-1.2-0.6-2.5-0.6-3.9C378.2,55.2,378.4,53.9,378.8,52.7z M382.7,59c0.2,0.8,0.5,1.5,0.9,2.1s1,1.1,1.6,1.5
		c0.7,0.4,1.5,0.6,2.4,0.6s1.8-0.2,2.4-0.6s1.2-0.9,1.6-1.5s0.7-1.3,0.9-2.1c0.2-0.8,0.3-1.6,0.3-2.4c0-0.8-0.1-1.7-0.3-2.5
		c-0.2-0.8-0.5-1.5-0.9-2.1s-1-1.1-1.6-1.5s-1.5-0.6-2.4-0.6s-1.8,0.2-2.4,0.6c-0.7,0.4-1.2,0.9-1.6,1.5s-0.7,1.3-0.9,2.1
		c-0.2,0.8-0.3,1.6-0.3,2.5C382.4,57.5,382.5,58.3,382.7,59z"/>
</g>
</svg>
