<?xml version="1.0" encoding="utf-8"?>
<!-- Generator: Adobe Illustrator 26.3.1, SVG Export Plug-In . SVG Version: 6.00 Build 0)  -->
<svg version="1.1" id="Layer_1" xmlns="http://www.w3.org/2000/svg" xmlns:xlink="http://www.w3.org/1999/xlink" x="0px" y="0px"
	 viewBox="0 0 728 90" style="enable-background:new 0 0 728 90;" xml:space="preserve">
<g>
	<path d="M261.5,21v15.7h9.4v3.6h-13.6V21H261.5z"/>
	<path d="M273,24.2V21h3.8v3.2H273z M276.8,26.4v14H273v-14H276.8z"/>
	<path d="M278.4,28.9v-2.6h2.3v-1.1c0-1.2,0.4-2.3,1.2-3.1c0.8-0.8,1.9-1.2,3.5-1.2c0.3,0,0.7,0,1,0c0.3,0,0.7,0,1,0.1V24
		c-0.5-0.1-0.9-0.1-1.4-0.1c-0.5,0-0.9,0.1-1.1,0.4c-0.2,0.2-0.3,0.7-0.3,1.2v0.8h2.6v2.6h-2.6v11.4h-3.8V28.9H278.4z"/>
	<path d="M292.9,37c0.6,0.6,1.4,0.8,2.5,0.8c0.8,0,1.4-0.2,2-0.6c0.6-0.4,0.9-0.8,1-1.2h3.4c-0.5,1.7-1.4,2.9-2.5,3.6
		c-1.1,0.7-2.5,1.1-4,1.1c-1.1,0-2.1-0.2-3-0.5c-0.9-0.4-1.6-0.9-2.2-1.5c-0.6-0.6-1.1-1.4-1.4-2.3c-0.3-0.9-0.5-1.9-0.5-3
		c0-1,0.2-2,0.5-2.9s0.8-1.7,1.5-2.3c0.6-0.7,1.4-1.2,2.3-1.6s1.8-0.6,2.9-0.6c1.2,0,2.2,0.2,3.1,0.7c0.9,0.5,1.6,1.1,2.2,1.8
		s1,1.7,1.2,2.6c0.3,1,0.3,2,0.3,3.1H292C292,35.5,292.3,36.4,292.9,37z M297.2,29.6c-0.5-0.5-1.2-0.8-2.1-0.8
		c-0.6,0-1.1,0.1-1.5,0.3c-0.4,0.2-0.7,0.5-1,0.8c-0.2,0.3-0.4,0.6-0.5,1c-0.1,0.3-0.2,0.6-0.2,0.9h6.2
		C298,30.9,297.7,30.1,297.2,29.6z"/>
	<path d="M308.7,36.2v4.2c0,0.6-0.1,1.2-0.3,1.7s-0.5,1-0.9,1.3s-0.8,0.7-1.3,0.9c-0.5,0.2-1.1,0.4-1.6,0.5v-1.9
		c0.3-0.1,0.5-0.2,0.8-0.3c0.2-0.2,0.5-0.4,0.6-0.6c0.2-0.2,0.3-0.5,0.4-0.8c0.1-0.3,0.1-0.6,0.1-0.9h-1.9v-4.2H308.7z"/>
	<path d="M328,21c1.2,0,2.4,0.2,3.5,0.6c1.1,0.4,2,1,2.8,1.8c0.8,0.8,1.4,1.8,1.8,3c0.4,1.2,0.7,2.6,0.7,4.2c0,1.4-0.2,2.7-0.5,3.9
		c-0.4,1.2-0.9,2.2-1.6,3.1c-0.7,0.9-1.6,1.5-2.7,2c-1.1,0.5-2.4,0.7-3.8,0.7h-8.3V21H328z M327.7,36.8c0.6,0,1.2-0.1,1.8-0.3
		c0.6-0.2,1.1-0.5,1.5-1c0.4-0.5,0.8-1.1,1.1-1.8c0.3-0.7,0.4-1.6,0.4-2.7c0-1-0.1-1.8-0.3-2.6c-0.2-0.8-0.5-1.5-0.9-2
		c-0.4-0.6-1-1-1.7-1.3s-1.6-0.4-2.6-0.4h-3v12.1H327.7z"/>
	<path d="M339.4,24.2V21h3.8v3.2H339.4z M343.3,26.4v14h-3.8v-14H343.3z"/>
	<path d="M349.5,36.9c0.2,0.3,0.4,0.5,0.7,0.7c0.3,0.2,0.6,0.3,0.9,0.4s0.7,0.1,1.1,0.1c0.3,0,0.6,0,0.9-0.1
		c0.3-0.1,0.6-0.2,0.8-0.3c0.2-0.1,0.4-0.3,0.6-0.5c0.2-0.2,0.2-0.5,0.2-0.9c0-0.6-0.4-1-1.1-1.3c-0.8-0.3-1.8-0.6-3.2-0.9
		c-0.6-0.1-1.1-0.3-1.6-0.4c-0.5-0.2-1-0.4-1.4-0.7c-0.4-0.3-0.7-0.6-1-1.1c-0.3-0.4-0.4-0.9-0.4-1.6c0-0.9,0.2-1.6,0.5-2.2
		c0.4-0.6,0.8-1,1.4-1.4c0.6-0.3,1.2-0.6,1.9-0.7c0.7-0.1,1.5-0.2,2.2-0.2c0.8,0,1.5,0.1,2.2,0.2c0.7,0.1,1.3,0.4,1.9,0.7
		c0.6,0.3,1,0.8,1.4,1.4c0.4,0.6,0.6,1.3,0.7,2.1h-3.6c-0.1-0.7-0.3-1.2-0.8-1.5c-0.5-0.3-1.1-0.4-1.8-0.4c-0.2,0-0.5,0-0.7,0
		c-0.3,0-0.5,0.1-0.7,0.2c-0.2,0.1-0.4,0.2-0.5,0.4c-0.1,0.2-0.2,0.4-0.2,0.7c0,0.3,0.1,0.6,0.4,0.8c0.3,0.2,0.6,0.4,1,0.5
		c0.4,0.1,0.9,0.3,1.4,0.4s1.1,0.2,1.6,0.4c0.6,0.1,1.1,0.3,1.6,0.5c0.5,0.2,1,0.4,1.4,0.7c0.4,0.3,0.7,0.7,1,1.1
		c0.3,0.4,0.4,1,0.4,1.6c0,0.9-0.2,1.7-0.6,2.3c-0.4,0.6-0.8,1.1-1.4,1.5c-0.6,0.4-1.3,0.6-2,0.8c-0.8,0.2-1.5,0.2-2.3,0.2
		c-0.8,0-1.6-0.1-2.4-0.2s-1.5-0.4-2.1-0.8s-1.1-0.9-1.5-1.5c-0.4-0.6-0.6-1.4-0.6-2.3h3.6C349.3,36.2,349.3,36.6,349.5,36.9z"/>
	<path d="M360.6,30.7c0.1-0.9,0.3-1.6,0.7-2.2c0.4-0.6,0.9-1.1,1.5-1.4c0.6-0.4,1.3-0.6,2.1-0.8c0.8-0.2,1.5-0.2,2.3-0.2
		c0.7,0,1.4,0,2.1,0.1c0.7,0.1,1.4,0.3,2,0.6c0.6,0.3,1.1,0.7,1.5,1.2c0.4,0.5,0.6,1.2,0.6,2v7.3c0,0.6,0,1.2,0.1,1.8s0.2,1,0.4,1.3
		h-3.9c-0.1-0.2-0.1-0.4-0.2-0.7c0-0.2-0.1-0.5-0.1-0.7c-0.6,0.6-1.3,1.1-2.2,1.3c-0.8,0.3-1.7,0.4-2.5,0.4c-0.7,0-1.3-0.1-1.9-0.2
		s-1.1-0.4-1.5-0.8c-0.4-0.3-0.8-0.8-1-1.3s-0.4-1.1-0.4-1.9c0-0.8,0.1-1.4,0.4-2c0.3-0.5,0.6-0.9,1.1-1.2c0.4-0.3,0.9-0.5,1.5-0.7
		c0.6-0.2,1.1-0.3,1.7-0.4c0.6-0.1,1.1-0.2,1.7-0.2c0.6-0.1,1.1-0.1,1.5-0.2c0.4-0.1,0.8-0.3,1-0.5c0.3-0.2,0.4-0.5,0.4-0.9
		c0-0.4-0.1-0.7-0.2-1c-0.1-0.2-0.3-0.4-0.5-0.6c-0.2-0.1-0.5-0.2-0.8-0.3c-0.3,0-0.6-0.1-1-0.1c-0.8,0-1.3,0.2-1.8,0.5
		c-0.4,0.3-0.7,0.9-0.8,1.6H360.6z M369.5,33.5c-0.2,0.1-0.4,0.3-0.6,0.3c-0.2,0.1-0.5,0.1-0.8,0.2c-0.3,0.1-0.6,0.1-0.9,0.1
		s-0.6,0.1-0.9,0.1c-0.3,0.1-0.6,0.1-0.9,0.2c-0.3,0.1-0.5,0.2-0.7,0.4c-0.2,0.2-0.4,0.3-0.5,0.6S364,36,364,36.4
		c0,0.3,0.1,0.6,0.2,0.9s0.3,0.4,0.5,0.6c0.2,0.1,0.5,0.2,0.8,0.3c0.3,0.1,0.6,0.1,0.9,0.1c0.8,0,1.3-0.1,1.8-0.4
		c0.4-0.3,0.7-0.6,0.9-0.9c0.2-0.4,0.3-0.7,0.4-1.1c0-0.4,0.1-0.6,0.1-0.9V33.5z"/>
	<path d="M380.1,21v7h0.1c0.5-0.7,1.1-1.2,1.9-1.6s1.6-0.5,2.5-0.5c0.7,0,1.4,0.1,2.1,0.4c0.7,0.3,1.3,0.7,1.8,1.3
		c0.5,0.6,1,1.4,1.3,2.3s0.5,2,0.5,3.3c0,1.3-0.2,2.4-0.5,3.3c-0.3,0.9-0.8,1.7-1.3,2.3c-0.5,0.6-1.2,1-1.8,1.3
		c-0.7,0.3-1.4,0.4-2.1,0.4c-1,0-1.9-0.2-2.8-0.5c-0.8-0.3-1.4-0.9-1.8-1.6h-0.1v1.8h-3.6V21H380.1z M386.3,31.7
		c-0.1-0.5-0.3-1-0.6-1.4c-0.3-0.4-0.6-0.7-1-1s-0.9-0.4-1.5-0.4c-0.6,0-1,0.1-1.5,0.4s-0.8,0.6-1,1c-0.3,0.4-0.5,0.9-0.6,1.4
		s-0.2,1.1-0.2,1.7c0,0.6,0.1,1.1,0.2,1.7s0.3,1,0.6,1.4c0.3,0.4,0.6,0.7,1,1s0.9,0.4,1.5,0.4c0.6,0,1.1-0.1,1.5-0.4s0.7-0.6,1-1
		c0.3-0.4,0.5-0.9,0.6-1.4s0.2-1.1,0.2-1.7C386.5,32.8,386.5,32.2,386.3,31.7z"/>
	<path d="M392.9,24.2V21h3.8v3.2H392.9z M396.7,26.4v14h-3.8v-14H396.7z"/>
	<path d="M403.7,21v19.3h-3.8V21H403.7z"/>
	<path d="M406.8,24.2V21h3.8v3.2H406.8z M410.7,26.4v14h-3.8v-14H410.7z"/>
	<path d="M421.3,26.4v2.6h-2.8v6.9c0,0.6,0.1,1.1,0.3,1.3c0.2,0.2,0.6,0.3,1.3,0.3c0.2,0,0.4,0,0.6,0c0.2,0,0.4,0,0.6-0.1v3
		c-0.3,0.1-0.7,0.1-1.1,0.1c-0.4,0-0.8,0-1.2,0c-0.6,0-1.2,0-1.7-0.1s-1-0.2-1.4-0.5c-0.4-0.2-0.7-0.6-1-1c-0.2-0.4-0.4-1-0.4-1.7
		v-8.2h-2.3v-2.6h2.3v-4.2h3.8v4.2H421.3z"/>
	<path d="M428.3,44.5c-0.7,0.5-1.8,0.7-3.1,0.7c-0.4,0-0.8,0-1.2,0c-0.4,0-0.8-0.1-1.2-0.1v-3.2c0.4,0,0.7,0.1,1.1,0.1
		c0.4,0,0.8,0,1.1,0c0.5-0.1,0.9-0.3,1.1-0.6s0.4-0.7,0.4-1.1c0-0.3-0.1-0.6-0.2-0.9l-4.9-13.1h4.1l3.2,9.6h0.1l3.1-9.6h4l-5.8,15.7
		C429.7,43.2,429.1,44,428.3,44.5z"/>
	<path d="M444.5,30.7c0.1-0.9,0.3-1.6,0.7-2.2c0.4-0.6,0.9-1.1,1.5-1.4c0.6-0.4,1.3-0.6,2.1-0.8c0.8-0.2,1.5-0.2,2.3-0.2
		c0.7,0,1.4,0,2.1,0.1c0.7,0.1,1.4,0.3,2,0.6c0.6,0.3,1.1,0.7,1.5,1.2c0.4,0.5,0.6,1.2,0.6,2v7.3c0,0.6,0,1.2,0.1,1.8s0.2,1,0.4,1.3
		h-3.9c-0.1-0.2-0.1-0.4-0.2-0.7c0-0.2-0.1-0.5-0.1-0.7c-0.6,0.6-1.3,1.1-2.2,1.3c-0.8,0.3-1.7,0.4-2.5,0.4c-0.7,0-1.3-0.1-1.9-0.2
		s-1.1-0.4-1.5-0.8c-0.4-0.3-0.8-0.8-1-1.3s-0.4-1.1-0.4-1.9c0-0.8,0.1-1.4,0.4-2c0.3-0.5,0.6-0.9,1.1-1.2c0.4-0.3,0.9-0.5,1.5-0.7
		c0.6-0.2,1.1-0.3,1.7-0.4c0.6-0.1,1.1-0.2,1.7-0.2c0.6-0.1,1.1-0.1,1.5-0.2c0.4-0.1,0.8-0.3,1-0.5c0.3-0.2,0.4-0.5,0.4-0.9
		c0-0.4-0.1-0.7-0.2-1c-0.1-0.2-0.3-0.4-0.5-0.6c-0.2-0.1-0.5-0.2-0.8-0.3c-0.3,0-0.6-0.1-1-0.1c-0.8,0-1.3,0.2-1.8,0.5
		c-0.4,0.3-0.7,0.9-0.8,1.6H444.5z M453.4,33.5c-0.2,0.1-0.4,0.3-0.6,0.3c-0.2,0.1-0.5,0.1-0.8,0.2c-0.3,0.1-0.6,0.1-0.9,0.1
		s-0.6,0.1-0.9,0.1c-0.3,0.1-0.6,0.1-0.9,0.2c-0.3,0.1-0.5,0.2-0.7,0.4c-0.2,0.2-0.4,0.3-0.5,0.6s-0.2,0.5-0.2,0.9
		c0,0.3,0.1,0.6,0.2,0.9s0.3,0.4,0.5,0.6c0.2,0.1,0.5,0.2,0.8,0.3c0.3,0.1,0.6,0.1,0.9,0.1c0.8,0,1.3-0.1,1.8-0.4
		c0.4-0.3,0.7-0.6,0.9-0.9c0.2-0.4,0.3-0.7,0.4-1.1c0-0.4,0.1-0.6,0.1-0.9V33.5z"/>
	<path d="M463.8,26.4v1.9h0.1c0.5-0.8,1.1-1.4,1.9-1.8c0.8-0.4,1.6-0.6,2.4-0.6c1,0,1.9,0.1,2.5,0.4c0.7,0.3,1.2,0.7,1.6,1.2
		s0.6,1.1,0.8,1.8c0.2,0.7,0.2,1.5,0.2,2.4v8.6h-3.8v-7.9c0-1.2-0.2-2-0.5-2.6s-1-0.9-1.9-0.9c-1,0-1.8,0.3-2.3,0.9
		c-0.5,0.6-0.7,1.6-0.7,3.1v7.3h-3.8v-14H463.8z"/>
	<path d="M486.1,38.5c-0.5,0.8-1,1.3-1.8,1.6c-0.7,0.3-1.6,0.5-2.5,0.5c-1,0-2-0.2-2.8-0.6c-0.8-0.4-1.4-1-2-1.6
		c-0.5-0.7-0.9-1.5-1.2-2.4c-0.3-0.9-0.4-1.8-0.4-2.8c0-0.9,0.1-1.8,0.4-2.7c0.3-0.9,0.6-1.6,1.2-2.3c0.5-0.7,1.2-1.2,1.9-1.6
		c0.8-0.4,1.7-0.6,2.7-0.6c0.8,0,1.6,0.2,2.4,0.5s1.3,0.9,1.8,1.6h0.1v-7h3.8v19.3h-3.6L486.1,38.5L486.1,38.5z M486,31.6
		c-0.1-0.5-0.3-1-0.6-1.4s-0.6-0.7-1-1s-0.9-0.4-1.6-0.4c-0.6,0-1.2,0.1-1.6,0.4c-0.4,0.3-0.8,0.6-1,1s-0.5,0.9-0.6,1.4
		s-0.2,1.1-0.2,1.7c0,0.5,0.1,1.1,0.2,1.6s0.3,1,0.6,1.4c0.3,0.4,0.6,0.8,1.1,1c0.4,0.3,0.9,0.4,1.5,0.4c0.6,0,1.2-0.1,1.6-0.4
		c0.4-0.3,0.8-0.6,1-1s0.4-0.9,0.5-1.4s0.2-1.1,0.2-1.7C486.1,32.7,486.1,32.2,486,31.6z"/>
</g>
<g>
	<path d="M289.9,63.6c0.2,0.5,0.5,0.8,0.9,1.1c0.4,0.3,0.8,0.5,1.4,0.6c0.5,0.1,1.1,0.2,1.6,0.2c0.4,0,0.8,0,1.2-0.1
		c0.4-0.1,0.8-0.2,1.2-0.4c0.4-0.2,0.7-0.4,0.9-0.7c0.3-0.3,0.4-0.7,0.4-1.2c0-0.5-0.2-0.9-0.5-1.3c-0.3-0.3-0.8-0.6-1.3-0.8
		c-0.5-0.2-1.2-0.4-1.8-0.6s-1.4-0.3-2.1-0.5c-0.7-0.2-1.4-0.4-2.1-0.7c-0.7-0.3-1.3-0.6-1.8-1s-1-0.9-1.3-1.6s-0.5-1.4-0.5-2.3
		c0-1,0.2-1.8,0.6-2.6c0.4-0.7,1-1.3,1.7-1.8c0.7-0.5,1.5-0.8,2.3-1.1c0.9-0.2,1.7-0.3,2.6-0.3c1,0,2,0.1,2.9,0.3
		c0.9,0.2,1.8,0.6,2.5,1.1c0.7,0.5,1.3,1.1,1.7,1.9c0.4,0.8,0.6,1.7,0.6,2.8H297c0-0.6-0.2-1.1-0.4-1.4s-0.5-0.7-0.8-0.9
		c-0.3-0.2-0.7-0.4-1.2-0.5c-0.4-0.1-0.9-0.1-1.4-0.1c-0.3,0-0.7,0-1,0.1c-0.3,0.1-0.7,0.2-0.9,0.4c-0.3,0.2-0.5,0.4-0.7,0.7
		c-0.2,0.3-0.3,0.6-0.3,1c0,0.4,0.1,0.7,0.2,0.9c0.1,0.2,0.4,0.5,0.9,0.6c0.4,0.2,1,0.4,1.8,0.6c0.7,0.2,1.7,0.5,2.9,0.8
		c0.4,0.1,0.9,0.2,1.5,0.4c0.6,0.2,1.3,0.5,1.9,0.9c0.6,0.4,1.2,1,1.6,1.7c0.5,0.7,0.7,1.6,0.7,2.7c0,0.9-0.2,1.7-0.5,2.5
		c-0.3,0.8-0.9,1.4-1.5,2c-0.7,0.5-1.5,1-2.5,1.3c-1,0.3-2.2,0.5-3.5,0.5c-1.1,0-2.1-0.1-3.1-0.4s-1.9-0.7-2.6-1.2
		c-0.8-0.6-1.4-1.3-1.8-2.1c-0.5-0.9-0.7-1.9-0.6-3.1h4.1C289.6,62.6,289.7,63.1,289.9,63.6z"/>
	<path d="M313.3,68.3v-1.9h-0.1c-0.5,0.8-1.1,1.4-1.9,1.8c-0.8,0.4-1.6,0.5-2.4,0.5c-1,0-1.9-0.1-2.5-0.4c-0.7-0.3-1.2-0.7-1.6-1.1
		s-0.6-1.1-0.8-1.8c-0.2-0.7-0.2-1.5-0.2-2.4v-8.6h3.8v7.9c0,1.2,0.2,2,0.5,2.6c0.4,0.6,1,0.8,1.9,0.8c1,0,1.8-0.3,2.3-0.9
		c0.5-0.6,0.7-1.6,0.7-3.1v-7.3h3.8v14H313.3z"/>
	<path d="M323.5,54.4v1.8h0.1c0.5-0.8,1.1-1.3,1.8-1.6c0.7-0.3,1.5-0.5,2.4-0.5c1.1,0,2,0.2,2.8,0.6s1.4,1,2,1.6
		c0.5,0.7,0.9,1.5,1.2,2.4c0.3,0.9,0.4,1.9,0.4,2.8c0,0.9-0.1,1.8-0.4,2.7c-0.3,0.9-0.6,1.6-1.1,2.3c-0.5,0.7-1.2,1.2-1.9,1.6
		s-1.7,0.6-2.7,0.6c-0.9,0-1.7-0.2-2.4-0.5c-0.7-0.4-1.3-0.9-1.8-1.6h-0.1v6.6h-3.8V54.4H323.5z M328.5,65.4c0.4-0.3,0.8-0.6,1-1
		c0.3-0.4,0.4-0.9,0.6-1.4s0.2-1.1,0.2-1.6c0-0.6-0.1-1.1-0.2-1.6s-0.3-1-0.6-1.4s-0.6-0.8-1-1c-0.4-0.3-0.9-0.4-1.6-0.4
		c-0.6,0-1.2,0.1-1.6,0.4c-0.4,0.3-0.8,0.6-1,1c-0.3,0.4-0.4,0.9-0.6,1.4s-0.2,1.1-0.2,1.7c0,0.6,0.1,1.1,0.2,1.6
		c0.1,0.5,0.3,1,0.6,1.4c0.3,0.4,0.6,0.7,1,1s1,0.4,1.6,0.4C327.5,65.8,328,65.7,328.5,65.4z"/>
	<path d="M340,54.4v1.8h0.1c0.5-0.8,1.1-1.3,1.8-1.6c0.7-0.3,1.5-0.5,2.4-0.5c1.1,0,2,0.2,2.8,0.6s1.4,1,2,1.6
		c0.5,0.7,0.9,1.5,1.2,2.4c0.3,0.9,0.4,1.9,0.4,2.8c0,0.9-0.1,1.8-0.4,2.7c-0.3,0.9-0.6,1.6-1.1,2.3c-0.5,0.7-1.2,1.2-1.9,1.6
		s-1.7,0.6-2.7,0.6c-0.9,0-1.7-0.2-2.4-0.5c-0.7-0.4-1.3-0.9-1.8-1.6h-0.1v6.6h-3.8V54.4H340z M345,65.4c0.4-0.3,0.8-0.6,1-1
		c0.3-0.4,0.4-0.9,0.6-1.4s0.2-1.1,0.2-1.6c0-0.6-0.1-1.1-0.2-1.6s-0.3-1-0.6-1.4s-0.6-0.8-1-1c-0.4-0.3-0.9-0.4-1.6-0.4
		c-0.6,0-1.2,0.1-1.6,0.4c-0.4,0.3-0.8,0.6-1,1c-0.3,0.4-0.4,0.9-0.6,1.4s-0.2,1.1-0.2,1.7c0,0.6,0.1,1.1,0.2,1.6
		c0.1,0.5,0.3,1,0.6,1.4c0.3,0.4,0.6,0.7,1,1s1,0.4,1.6,0.4C344,65.8,344.5,65.7,345,65.4z"/>
	<path d="M356.8,49v19.3h-3.8V49H356.8z"/>
	<path d="M363.9,65c0.6,0.6,1.4,0.8,2.5,0.8c0.8,0,1.4-0.2,2-0.6c0.6-0.4,0.9-0.8,1-1.2h3.4c-0.5,1.7-1.4,2.9-2.5,3.6
		s-2.5,1.1-4,1.1c-1.1,0-2.1-0.2-3-0.5c-0.9-0.4-1.6-0.9-2.2-1.5c-0.6-0.6-1.1-1.4-1.4-2.3c-0.3-0.9-0.5-1.9-0.5-3
		c0-1,0.2-2,0.5-2.9s0.8-1.7,1.5-2.3c0.6-0.7,1.4-1.2,2.3-1.6c0.9-0.4,1.8-0.6,2.9-0.6c1.2,0,2.2,0.2,3.1,0.7s1.6,1.1,2.2,1.8
		c0.6,0.8,1,1.7,1.2,2.6c0.3,1,0.3,2,0.3,3.1h-10.1C363,63.5,363.3,64.4,363.9,65z M368.2,57.6c-0.5-0.5-1.2-0.8-2.1-0.8
		c-0.6,0-1.1,0.1-1.5,0.3c-0.4,0.2-0.7,0.5-1,0.8c-0.2,0.3-0.4,0.6-0.5,1c-0.1,0.3-0.2,0.6-0.2,0.9h6.2
		C369,58.9,368.7,58.1,368.2,57.6z"/>
	<path d="M379,54.4v1.9h0.1c0.5-0.7,1.1-1.3,1.8-1.7c0.7-0.4,1.5-0.6,2.4-0.6c0.9,0,1.7,0.2,2.4,0.5c0.7,0.3,1.3,0.9,1.7,1.8
		c0.4-0.6,1-1.2,1.7-1.6s1.6-0.7,2.5-0.7c0.7,0,1.4,0.1,2.1,0.3c0.6,0.2,1.2,0.5,1.6,0.9c0.5,0.4,0.8,0.9,1.1,1.6s0.4,1.4,0.4,2.3
		v9.3h-3.8v-7.9c0-0.5,0-0.9-0.1-1.3c0-0.4-0.1-0.8-0.3-1.1c-0.2-0.3-0.4-0.5-0.7-0.7c-0.3-0.2-0.7-0.3-1.3-0.3s-1,0.1-1.3,0.3
		c-0.3,0.2-0.6,0.5-0.8,0.8c-0.2,0.3-0.3,0.7-0.4,1.1c-0.1,0.4-0.1,0.9-0.1,1.3v7.8h-3.8v-7.8c0-0.4,0-0.8,0-1.2
		c0-0.4-0.1-0.8-0.2-1.1s-0.4-0.6-0.7-0.8c-0.3-0.2-0.8-0.3-1.4-0.3c-0.2,0-0.4,0-0.7,0.1s-0.6,0.2-0.9,0.5c-0.3,0.2-0.5,0.5-0.7,1
		c-0.2,0.4-0.3,1-0.3,1.7v8.1h-3.8v-14H379z"/>
	<path d="M403.9,65c0.6,0.6,1.4,0.8,2.5,0.8c0.8,0,1.4-0.2,2-0.6c0.6-0.4,0.9-0.8,1-1.2h3.4c-0.5,1.7-1.4,2.9-2.5,3.6
		s-2.5,1.1-4,1.1c-1.1,0-2.1-0.2-3-0.5c-0.9-0.4-1.6-0.9-2.2-1.5c-0.6-0.6-1.1-1.4-1.4-2.3c-0.3-0.9-0.5-1.9-0.5-3
		c0-1,0.2-2,0.5-2.9s0.8-1.7,1.5-2.3c0.6-0.7,1.4-1.2,2.3-1.6c0.9-0.4,1.8-0.6,2.9-0.6c1.2,0,2.2,0.2,3.1,0.7s1.6,1.1,2.2,1.8
		c0.6,0.8,1,1.7,1.2,2.6c0.3,1,0.3,2,0.3,3.1h-10.1C403,63.5,403.3,64.4,403.9,65z M408.2,57.6c-0.5-0.5-1.2-0.8-2.1-0.8
		c-0.6,0-1.1,0.1-1.5,0.3c-0.4,0.2-0.7,0.5-1,0.8c-0.2,0.3-0.4,0.6-0.5,1c-0.1,0.3-0.2,0.6-0.2,0.9h6.2
		C409,58.9,408.6,58.1,408.2,57.6z"/>
	<path d="M418.9,54.4v1.9h0.1c0.5-0.8,1.1-1.4,1.9-1.8c0.8-0.4,1.6-0.6,2.4-0.6c1,0,1.9,0.1,2.5,0.4c0.7,0.3,1.2,0.7,1.6,1.2
		c0.4,0.5,0.6,1.1,0.8,1.8s0.2,1.5,0.2,2.4v8.6h-3.8v-7.9c0-1.2-0.2-2-0.5-2.6c-0.4-0.6-1-0.9-1.9-0.9c-1,0-1.8,0.3-2.3,0.9
		c-0.5,0.6-0.7,1.6-0.7,3.1v7.3h-3.8v-14H418.9z"/>
	<path d="M438.9,54.4v2.6h-2.8v6.9c0,0.6,0.1,1.1,0.3,1.3c0.2,0.2,0.6,0.3,1.3,0.3c0.2,0,0.4,0,0.6,0s0.4,0,0.6-0.1v3
		c-0.3,0.1-0.7,0.1-1.1,0.1c-0.4,0-0.8,0-1.2,0c-0.6,0-1.2,0-1.7-0.1s-1-0.2-1.4-0.5c-0.4-0.2-0.7-0.6-1-1c-0.2-0.4-0.4-1-0.4-1.7
		v-8.2H430v-2.6h2.3v-4.2h3.8v4.2H438.9z"/>
	<path d="M440.6,58.7c0.1-0.9,0.3-1.6,0.7-2.2c0.4-0.6,0.9-1.1,1.5-1.4c0.6-0.4,1.3-0.6,2.1-0.8c0.8-0.2,1.5-0.2,2.3-0.2
		c0.7,0,1.4,0,2.1,0.1c0.7,0.1,1.4,0.3,2,0.6c0.6,0.3,1.1,0.7,1.5,1.2c0.4,0.5,0.6,1.2,0.6,2v7.3c0,0.6,0,1.2,0.1,1.8s0.2,1,0.4,1.3
		h-3.9c-0.1-0.2-0.1-0.4-0.2-0.7c0-0.2-0.1-0.5-0.1-0.7c-0.6,0.6-1.3,1.1-2.2,1.3c-0.8,0.3-1.7,0.4-2.5,0.4c-0.7,0-1.3-0.1-1.9-0.2
		c-0.6-0.2-1.1-0.4-1.5-0.8c-0.4-0.3-0.8-0.8-1-1.3c-0.2-0.5-0.4-1.1-0.4-1.9c0-0.8,0.1-1.4,0.4-2s0.6-0.9,1.1-1.2
		c0.4-0.3,0.9-0.5,1.5-0.7c0.6-0.2,1.1-0.3,1.7-0.4s1.1-0.2,1.7-0.2c0.6-0.1,1.1-0.1,1.5-0.2c0.4-0.1,0.8-0.3,1-0.5s0.4-0.5,0.4-0.9
		c0-0.4-0.1-0.7-0.2-1c-0.1-0.2-0.3-0.4-0.5-0.6c-0.2-0.1-0.5-0.2-0.8-0.3c-0.3,0-0.6-0.1-1-0.1c-0.8,0-1.3,0.2-1.8,0.5
		c-0.4,0.3-0.7,0.9-0.8,1.6H440.6z M449.5,61.5c-0.2,0.1-0.4,0.3-0.6,0.3c-0.2,0.1-0.5,0.1-0.8,0.2c-0.3,0.1-0.6,0.1-0.9,0.1
		c-0.3,0-0.6,0.1-0.9,0.1c-0.3,0.1-0.6,0.1-0.9,0.2s-0.5,0.2-0.7,0.4c-0.2,0.2-0.4,0.3-0.5,0.6c-0.1,0.2-0.2,0.5-0.2,0.9
		c0,0.3,0.1,0.6,0.2,0.9c0.1,0.2,0.3,0.4,0.5,0.6c0.2,0.1,0.5,0.2,0.8,0.3c0.3,0.1,0.6,0.1,0.9,0.1c0.8,0,1.3-0.1,1.8-0.4
		c0.4-0.3,0.7-0.6,0.9-0.9c0.2-0.4,0.3-0.7,0.4-1.1c0-0.4,0.1-0.6,0.1-0.9V61.5z"/>
	<path d="M460.2,49v19.3h-3.8V49H460.2z"/>
</g>
</svg>
