<?xml version="1.0" encoding="utf-8"?>
<!-- Generator: Adobe Illustrator 26.3.1, SVG Export Plug-In . SVG Version: 6.00 Build 0)  -->
<svg version="1.1" id="Layer_1" xmlns="http://www.w3.org/2000/svg" xmlns:xlink="http://www.w3.org/1999/xlink" x="0px" y="0px"
	 viewBox="0 0 728 90" style="enable-background:new 0 0 728 90;" xml:space="preserve">
<style type="text/css">
	.st0{clip-path:url(#SVGID_00000092420316140203968560000013304593050630096040_);fill:#349946;}
	.st1{fill:#FFFFFF;}
</style>
<g>
	<defs>
		<rect id="SVGID_1_" x="531.8" y="15.9" width="158.4" height="33.4"/>
	</defs>
	<clipPath id="SVGID_00000119082493177248190500000013099852955095259008_">
		<use xlink:href="#SVGID_1_"  style="overflow:visible;"/>
	</clipPath>
	<path style="clip-path:url(#SVGID_00000119082493177248190500000013099852955095259008_);fill:#349946;" d="M690.2,32.6
		c0,9.2-8.6,16.7-19.2,16.7H551c-10.5,0-19.2-7.5-19.2-16.7s8.6-16.7,19.2-16.7h120C681.6,15.9,690.2,23.5,690.2,32.6"/>
</g>
<g>
	<path class="st1" d="M568.6,38.3l-3.4-10.7h2.4l2.4,7.5h0l2.4-7.5h2.4l-3.5,10.7H568.6z"/>
	<path class="st1" d="M578,27.7v10.7h-2.3V27.7H578z"/>
	<path class="st1" d="M588.1,27.7v2h-5.6v2.3h5.2v1.8h-5.2v2.6h5.7v2h-8.1V27.7H588.1z"/>
	<path class="st1" d="M597.6,38.3l-1.8-7.2h0l-1.8,7.2h-2.4l-2.8-10.7h2.3l1.7,7.2h0l1.8-7.2h2.2l1.8,7.3h0l1.7-7.3h2.3l-2.9,10.7
		H597.6z"/>
	<path class="st1" d="M612.8,27.7c0.7,0,1.2,0.1,1.7,0.3c0.5,0.2,0.8,0.4,1.1,0.8s0.5,0.7,0.6,1.1s0.2,0.8,0.2,1.3
		c0,0.4-0.1,0.8-0.2,1.3s-0.3,0.8-0.6,1.1c-0.3,0.3-0.7,0.6-1.1,0.8c-0.5,0.2-1,0.3-1.7,0.3h-2.5v3.8H608V27.7H612.8z M612.1,32.7
		c0.3,0,0.5,0,0.8-0.1c0.2,0,0.5-0.1,0.7-0.2c0.2-0.1,0.3-0.3,0.5-0.5s0.2-0.5,0.2-0.8s-0.1-0.6-0.2-0.8c-0.1-0.2-0.3-0.4-0.5-0.5
		c-0.2-0.1-0.4-0.2-0.7-0.2c-0.2,0-0.5-0.1-0.8-0.1h-1.8v3.2H612.1z"/>
	<path class="st1" d="M620.3,27.7v8.7h5.2v2h-7.5V27.7H620.3z"/>
	<path class="st1" d="M632.1,27.7l4,10.7h-2.4l-0.8-2.4h-4l-0.8,2.4h-2.4l4-10.7H632.1z M632.2,34.2l-1.3-3.9h0l-1.4,3.9H632.2z"/>
	<path class="st1" d="M639.3,27.7l4.4,7.1h0v-7.1h2.2v10.7h-2.3l-4.4-7.1h0v7.1H637V27.7H639.3z"/>
	<path class="st1" d="M649.8,35.7c0.1,0.2,0.3,0.5,0.5,0.6s0.5,0.3,0.8,0.3s0.6,0.1,0.9,0.1c0.2,0,0.4,0,0.7-0.1
		c0.2,0,0.5-0.1,0.7-0.2c0.2-0.1,0.4-0.2,0.5-0.4s0.2-0.4,0.2-0.7c0-0.3-0.1-0.5-0.3-0.7c-0.2-0.2-0.4-0.3-0.7-0.4
		c-0.3-0.1-0.6-0.2-1-0.3c-0.4-0.1-0.8-0.2-1.1-0.3c-0.4-0.1-0.8-0.2-1.2-0.4c-0.4-0.1-0.7-0.3-1-0.6c-0.3-0.2-0.5-0.5-0.7-0.9
		c-0.2-0.3-0.3-0.8-0.3-1.2c0-0.5,0.1-1,0.4-1.4s0.5-0.7,0.9-1c0.4-0.3,0.8-0.5,1.3-0.6s1-0.2,1.4-0.2c0.6,0,1.1,0.1,1.6,0.2
		c0.5,0.1,1,0.3,1.4,0.6s0.7,0.6,0.9,1.1s0.4,1,0.4,1.6h-2.3c0-0.3-0.1-0.6-0.2-0.8c-0.1-0.2-0.3-0.4-0.5-0.5
		c-0.2-0.1-0.4-0.2-0.6-0.3c-0.2,0-0.5-0.1-0.8-0.1c-0.2,0-0.4,0-0.6,0.1s-0.4,0.1-0.5,0.2c-0.2,0.1-0.3,0.2-0.4,0.4
		c-0.1,0.1-0.1,0.3-0.1,0.6c0,0.2,0,0.4,0.1,0.5s0.2,0.2,0.5,0.4s0.6,0.2,1,0.3s1,0.2,1.6,0.4c0.2,0,0.5,0.1,0.8,0.2
		s0.7,0.3,1.1,0.5c0.3,0.2,0.6,0.5,0.9,0.9c0.3,0.4,0.4,0.9,0.4,1.5c0,0.5-0.1,0.9-0.3,1.4c-0.2,0.4-0.5,0.8-0.8,1.1
		c-0.4,0.3-0.8,0.5-1.4,0.7c-0.6,0.2-1.2,0.3-1.9,0.3c-0.6,0-1.2-0.1-1.7-0.2s-1-0.4-1.5-0.7s-0.8-0.7-1-1.2c-0.2-0.5-0.4-1-0.4-1.7
		h2.3C649.6,35.1,649.7,35.4,649.8,35.7z"/>
</g>
</svg>
