<?xml version="1.0" encoding="utf-8"?>
<!-- Generator: Adobe Illustrator 26.3.1, SVG Export Plug-In . SVG Version: 6.00 Build 0)  -->
<svg version="1.1" id="Layer_1" xmlns="http://www.w3.org/2000/svg" xmlns:xlink="http://www.w3.org/1999/xlink" x="0px" y="0px"
	 viewBox="0 0 728 90" style="enable-background:new 0 0 728 90;" xml:space="preserve">
<style type="text/css">
	.st0{fill:#349946;}
	.st1{fill:#231F20;}
	.st2{fill:none;}
</style>
<path class="st0" d="M27.4,62.6h-2.5l-0.8-2.4h-5l-0.8,2.4h-2.5L20.2,51H22c0.6,0,1,0.2,1.2,0.6c0.2,0.4,2.2,5.6,2.2,5.6H23
	l-1.4-3.9l-1.8,4.9h5c0.7,0,1,0.2,1.2,0.8L27.4,62.6z"/>
<path class="st0" d="M49.3,62.6h-2.5L46,60.2h-5l-0.8,2.4h-2.5L42.1,51h1.8c0.6,0,1,0.2,1.2,0.6c0.2,0.4,2.2,5.6,2.2,5.6h-2.3
	l-1.4-3.9l-1.8,4.9h5c0.7,0,1,0.2,1.2,0.8L49.3,62.6z"/>
<path class="st0" d="M28.2,51h4.5c3.5,0,5.3,1.9,5.3,5.8c0,2.2-0.7,3.8-1.9,4.8c-1.1,0.9-2.4,1-4,1h-3.9V51z M32.4,60.5
	c2.2,0,3.1-1.1,3.1-3.7c0-2.6-0.9-3.8-2.9-3.8h-2.2v7.5H32.4z"/>
<g>
	<path class="st1" d="M69,62.5h-1.8l-0.8-8.3l-2.8,8.3H62l-2.9-8.3l-0.7,8.3h-1.7l1.1-11h2.1l3,8.5l2.9-8.5h2.1L69,62.5z"/>
	<path class="st1" d="M78,58.4c0,0.1,0,0.2,0,0.4c0,0.1,0,0.2,0,0.3h-5.4c0,0.6,0.2,1.1,0.5,1.5c0.4,0.5,1,0.7,1.8,0.7
		c0.7,0,1.4-0.2,2.2-0.6l0.6,1.2c-0.8,0.6-1.8,0.9-3,0.9c-1.2,0-2.2-0.4-2.9-1.2c-0.7-0.8-1-1.7-1-3c0-1.3,0.4-2.3,1.1-3.1
		c0.7-0.8,1.6-1.2,2.7-1.2c1.1,0,1.9,0.4,2.5,1.1C77.7,56.1,78,57.1,78,58.4z M76.3,57.7c0-0.5-0.1-0.9-0.3-1.3
		c-0.3-0.5-0.8-0.8-1.4-0.8c-0.6,0-1,0.2-1.4,0.6c-0.4,0.4-0.6,0.9-0.7,1.5H76.3z"/>
	<path class="st1" d="M91.1,62.5h-1.8V58c0-0.9-0.1-1.5-0.3-1.8c-0.2-0.3-0.5-0.4-1-0.4c-0.6,0-1.2,0.2-1.8,0.6
		c0.1,0.2,0.1,0.8,0.1,1.8v4.3h-1.8v-4.4c0-1-0.1-1.7-0.4-2c-0.2-0.2-0.5-0.3-0.9-0.3c-0.6,0-1.2,0.2-1.7,0.6v6.2h-1.8v-8h1.6v0.6
		c0.7-0.5,1.5-0.8,2.4-0.8c0.8,0,1.5,0.3,2,0.9c0.9-0.6,1.8-0.9,2.7-0.9c0.8,0,1.5,0.2,2,0.7c0.4,0.4,0.6,0.9,0.8,1.5
		c0.1,0.4,0.1,1.1,0.1,2V62.5z"/>
	<path class="st1" d="M100.4,58.3c0,1.3-0.4,2.4-1.2,3.2c-0.8,0.8-1.8,1.2-3,1.2c-0.9,0-1.9-0.2-3.2-0.6V50.6h1.8v4.2
		c0.6-0.4,1.3-0.6,2.1-0.6c1,0,1.9,0.4,2.5,1.1C100.1,56.1,100.4,57.1,100.4,58.3z M98.6,58.3c0-0.8-0.2-1.5-0.6-1.9
		c-0.4-0.4-0.9-0.7-1.4-0.7c-0.6,0-1.1,0.2-1.7,0.6V61c0.5,0.1,0.9,0.2,1.3,0.2c0.7,0,1.3-0.3,1.7-0.8
		C98.4,59.9,98.6,59.2,98.6,58.3z"/>
	<path class="st1" d="M109,58.4c0,0.1,0,0.2,0,0.4c0,0.1,0,0.2,0,0.3h-5.4c0,0.6,0.2,1.1,0.5,1.5c0.4,0.5,1,0.7,1.8,0.7
		c0.7,0,1.4-0.2,2.2-0.6l0.6,1.2c-0.8,0.6-1.8,0.9-3,0.9c-1.2,0-2.2-0.4-2.9-1.2c-0.7-0.8-1-1.7-1-3c0-1.3,0.4-2.3,1.1-3.1
		c0.7-0.8,1.6-1.2,2.7-1.2c1.1,0,1.9,0.4,2.5,1.1C108.7,56.1,109,57.1,109,58.4z M107.3,57.7c0-0.5-0.1-0.9-0.3-1.3
		c-0.3-0.5-0.8-0.8-1.4-0.8c-0.6,0-1,0.2-1.4,0.6c-0.4,0.4-0.6,0.9-0.7,1.5H107.3z"/>
	<path class="st1" d="M115.9,54.4l-0.4,1.4c-0.2,0-0.3,0-0.5,0c-1,0-1.7,0.4-2.3,1.2v5.5h-1.8v-8h1.6v1c0.1-0.2,0.4-0.4,0.7-0.7
		c0.6-0.4,1.2-0.6,1.9-0.6C115.3,54.2,115.6,54.3,115.9,54.4z"/>
</g>
<g>
	<path class="st1" d="M122.5,60.2c0,0.8-0.3,1.4-0.9,1.8c-0.6,0.5-1.3,0.7-2.2,0.7c-0.7,0-1.4-0.1-2.1-0.4c-0.4-0.2-0.7-0.3-0.9-0.5
		l0.6-1.2c0.8,0.4,1.5,0.6,2.1,0.6c0.4,0,0.8-0.1,1-0.3s0.4-0.4,0.4-0.7s-0.2-0.5-0.5-0.7c-0.1-0.1-0.6-0.3-1.3-0.6
		c-0.6-0.3-1.1-0.5-1.4-0.8c-0.5-0.4-0.7-0.9-0.7-1.6c0-0.7,0.3-1.3,0.8-1.7c0.5-0.4,1.3-0.7,2.2-0.7c1.1,0,2,0.2,2.6,0.7l-0.6,1.2
		c-0.6-0.4-1.3-0.5-1.9-0.5c-0.9,0-1.3,0.3-1.3,0.9c0,0.3,0.1,0.5,0.4,0.7c0.2,0.1,0.5,0.3,1,0.5c0.8,0.3,1.4,0.6,1.6,0.9
		C122.2,58.9,122.5,59.5,122.5,60.2z"/>
	<path class="st1" d="M130.3,62.5h-1.9v-11h1.9V62.5z"/>
	<path class="st1" d="M139.4,62.5h-1.8v-4.4c0-1.1-0.1-1.7-0.4-2c-0.2-0.2-0.6-0.4-1-0.4c-0.6,0-1.2,0.2-1.8,0.6v6.1h-1.8v-8h1.6
		v0.6c0.8-0.5,1.6-0.8,2.4-0.8c0.8,0,1.5,0.2,2,0.7c0.4,0.4,0.6,0.8,0.7,1.4c0.1,0.3,0.1,0.9,0.1,1.6V62.5z"/>
	<path class="st1" d="M146.8,60.2c0,0.8-0.3,1.4-0.9,1.8c-0.6,0.5-1.3,0.7-2.2,0.7c-0.7,0-1.4-0.1-2.1-0.4c-0.4-0.2-0.7-0.3-0.9-0.5
		l0.6-1.2c0.8,0.4,1.5,0.6,2.1,0.6c0.4,0,0.8-0.1,1-0.3s0.4-0.4,0.4-0.7s-0.2-0.5-0.5-0.7c-0.1-0.1-0.6-0.3-1.3-0.6
		c-0.6-0.3-1.1-0.5-1.4-0.8c-0.5-0.4-0.7-0.9-0.7-1.6c0-0.7,0.3-1.3,0.8-1.7c0.5-0.4,1.3-0.7,2.2-0.7c1.1,0,2,0.2,2.6,0.7l-0.6,1.2
		c-0.6-0.4-1.3-0.5-1.9-0.5c-0.9,0-1.3,0.3-1.3,0.9c0,0.3,0.1,0.5,0.4,0.7c0.2,0.1,0.5,0.3,1,0.5c0.8,0.3,1.4,0.6,1.6,0.9
		C146.6,58.9,146.8,59.5,146.8,60.2z"/>
	<path class="st1" d="M155.4,62.5h-1.6v-0.6c-0.7,0.5-1.5,0.8-2.4,0.8c-0.8,0-1.5-0.2-2-0.7c-0.4-0.4-0.6-0.8-0.7-1.4
		c-0.1-0.3-0.1-0.9-0.1-1.6v-4.5h1.8v4.4c0,0.5,0,0.9,0,1.1c0.1,0.5,0.2,0.8,0.4,1c0.2,0.2,0.5,0.3,1,0.3c0.5,0,1-0.2,1.8-0.6v-6.1
		h1.8V62.5z"/>
	<path class="st1" d="M162.6,54.4l-0.4,1.4c-0.2,0-0.3,0-0.5,0c-1,0-1.7,0.4-2.3,1.2v5.5h-1.8v-8h1.6v1c0.1-0.2,0.4-0.4,0.7-0.7
		c0.6-0.4,1.2-0.6,1.9-0.6C162,54.2,162.3,54.3,162.6,54.4z"/>
</g>
<g>
	<path class="st1" d="M169.7,62.5h-1.6v-0.6c-0.8,0.5-1.6,0.8-2.4,0.8c-0.8,0-1.4-0.2-1.9-0.7c-0.5-0.5-0.7-1.1-0.7-1.8
		c0-1.9,1.5-2.8,4.5-2.8h0.3V57c0-0.5-0.1-0.8-0.3-1c-0.2-0.2-0.7-0.4-1.3-0.4c-0.7,0-1.4,0.2-2.2,0.6l-0.6-1.2
		c0.2-0.2,0.5-0.3,0.9-0.5c0.6-0.3,1.3-0.4,2.1-0.4c1.1,0,1.9,0.3,2.5,0.9c0.3,0.3,0.5,0.6,0.5,1.1c0.1,0.3,0.1,0.7,0.1,1.4V62.5z
		 M168,60.7v-2.1h-0.4c-1.3,0-2.1,0.2-2.5,0.6c-0.2,0.2-0.3,0.5-0.3,0.8c0,0.4,0.1,0.7,0.4,0.9c0.3,0.2,0.6,0.3,1,0.3
		C166.7,61.3,167.3,61.1,168,60.7z"/>
	<path class="st1" d="M178.4,62.5h-1.8v-4.4c0-1.1-0.1-1.7-0.4-2c-0.2-0.2-0.6-0.4-1-0.4c-0.6,0-1.2,0.2-1.8,0.6v6.1h-1.8v-8h1.6
		v0.6c0.8-0.5,1.6-0.8,2.4-0.8c0.8,0,1.5,0.2,2,0.7c0.4,0.4,0.6,0.8,0.7,1.4c0.1,0.3,0.1,0.9,0.1,1.6V62.5z"/>
	<path class="st1" d="M187,61.8c-0.1,0.1-0.4,0.3-0.8,0.5c-0.7,0.3-1.4,0.4-2.1,0.4c-1.2,0-2.2-0.4-2.9-1.1c-0.7-0.8-1.1-1.8-1.1-3
		c0-1.3,0.4-2.3,1.2-3.1c0.8-0.8,1.8-1.2,3-1.2c0.7,0,1.3,0.1,1.9,0.4c0.4,0.2,0.7,0.4,0.8,0.5l-0.7,1.1c-0.6-0.4-1.2-0.6-1.8-0.6
		c-0.7,0-1.4,0.3-1.8,0.8c-0.4,0.5-0.6,1.1-0.6,1.9c0,0.8,0.2,1.5,0.6,2c0.4,0.5,1,0.8,1.8,0.8c0.6,0,1.3-0.2,2-0.6L187,61.8z"/>
</g>
<g>
	<path class="st1" d="M195.1,58.4c0,0.1,0,0.2,0,0.4c0,0.1,0,0.2,0,0.3h-5.4c0,0.6,0.2,1.1,0.5,1.5c0.4,0.5,1,0.7,1.8,0.7
		c0.7,0,1.4-0.2,2.2-0.6l0.6,1.2c-0.8,0.6-1.8,0.9-3,0.9c-1.2,0-2.2-0.4-2.9-1.2c-0.7-0.8-1-1.7-1-3c0-1.3,0.4-2.3,1.1-3.1
		c0.7-0.8,1.6-1.2,2.7-1.2c1.1,0,1.9,0.4,2.5,1.1C194.8,56.1,195.1,57.1,195.1,58.4z M193.4,57.7c0-0.5-0.1-0.9-0.3-1.3
		c-0.3-0.5-0.8-0.8-1.4-0.8c-0.6,0-1,0.2-1.4,0.6c-0.4,0.4-0.6,0.9-0.7,1.5H193.4z"/>
	<path class="st1" d="M208.3,54.8c0,1-0.3,1.8-0.9,2.5c-0.5,0.5-1,0.8-1.7,0.9c-0.4,0.1-1.1,0.1-2,0.1h-0.8v4.2h-1.9v-11h2.9
		c0.9,0,1.6,0,2,0.1c0.6,0.1,1.2,0.4,1.5,0.8C208,53.1,208.3,53.9,208.3,54.8z M206.4,54.9c0-0.6-0.2-1-0.5-1.4
		c-0.3-0.3-1-0.4-2-0.4h-1v3.8h0.8c1.2,0,2-0.2,2.3-0.5C206.2,55.9,206.4,55.5,206.4,54.9z"/>
	<path class="st1" d="M212,62.5h-1.8V50.6h1.8V62.5z"/>
	<path class="st1" d="M220.3,62.5h-1.6v-0.6c-0.8,0.5-1.6,0.8-2.4,0.8c-0.8,0-1.4-0.2-1.9-0.7c-0.5-0.5-0.7-1.1-0.7-1.8
		c0-1.9,1.5-2.8,4.5-2.8h0.3V57c0-0.5-0.1-0.8-0.3-1c-0.2-0.2-0.7-0.4-1.3-0.4c-0.7,0-1.4,0.2-2.2,0.6l-0.6-1.2
		c0.2-0.2,0.5-0.3,0.9-0.5c0.6-0.3,1.3-0.4,2.1-0.4c1.1,0,1.9,0.3,2.5,0.9c0.3,0.3,0.5,0.6,0.5,1.1c0.1,0.3,0.1,0.7,0.1,1.4V62.5z
		 M218.5,60.7v-2.1h-0.4c-1.3,0-2.1,0.2-2.5,0.6c-0.2,0.2-0.3,0.5-0.3,0.8c0,0.4,0.1,0.7,0.4,0.9c0.3,0.2,0.6,0.3,1,0.3
		C217.3,61.3,217.9,61.1,218.5,60.7z"/>
	<path class="st1" d="M229,62.5h-1.8v-4.4c0-1.1-0.1-1.7-0.4-2c-0.2-0.2-0.6-0.4-1-0.4c-0.6,0-1.2,0.2-1.8,0.6v6.1h-1.8v-8h1.6v0.6
		c0.8-0.5,1.6-0.8,2.4-0.8c0.8,0,1.5,0.2,2,0.7c0.4,0.4,0.6,0.8,0.7,1.4c0.1,0.3,0.1,0.9,0.1,1.6V62.5z"/>
	<path class="st1" d="M236.4,60.2c0,0.8-0.3,1.4-0.9,1.8c-0.6,0.5-1.3,0.7-2.2,0.7c-0.7,0-1.4-0.1-2.1-0.4c-0.4-0.2-0.7-0.3-0.9-0.5
		l0.6-1.2c0.8,0.4,1.5,0.6,2.1,0.6c0.4,0,0.8-0.1,1-0.3s0.4-0.4,0.4-0.7s-0.2-0.5-0.5-0.7c-0.1-0.1-0.6-0.3-1.3-0.6
		c-0.6-0.3-1.1-0.5-1.4-0.8c-0.5-0.4-0.7-0.9-0.7-1.6c0-0.7,0.3-1.3,0.8-1.7c0.5-0.4,1.3-0.7,2.2-0.7c1.1,0,2,0.2,2.6,0.7l-0.6,1.2
		c-0.6-0.4-1.3-0.5-1.9-0.5c-0.9,0-1.3,0.3-1.3,0.9c0,0.3,0.1,0.5,0.4,0.7c0.2,0.1,0.5,0.3,1,0.5c0.8,0.3,1.4,0.6,1.6,0.9
		C236.2,58.9,236.4,59.5,236.4,60.2z"/>
</g>
<path class="st0" d="M51,62.7c-0.8,0-1.4-0.6-1.4-1.4c0-0.8,0.6-1.4,1.4-1.4c0.8,0,1.4,0.6,1.4,1.4C52.3,62,51.7,62.7,51,62.7
	 M51,60.2c-0.6,0-1,0.5-1,1c0,0.6,0.5,1,1,1c0.6,0,1-0.4,1-1C52,60.7,51.5,60.2,51,60.2 M51.3,62l-0.2-0.4c-0.1-0.2-0.1-0.2-0.3-0.2
	h0V62h-0.3v-1.4h0.4c0.2,0,0.3,0,0.5,0.1c0.1,0.1,0.1,0.2,0.1,0.3c0,0.1-0.1,0.3-0.2,0.3c0.1,0,0.1,0.1,0.1,0.2l0.2,0.5H51.3z
	 M51.1,60.8c-0.1,0-0.1,0-0.2,0h-0.1v0.4c0.1,0,0.2,0,0.3,0c0.1,0,0.2-0.1,0.2-0.2C51.2,60.9,51.1,60.8,51.1,60.8"/>
<rect x="15.8" y="48.8" class="st2" width="221" height="15.2"/>
</svg>
