<?xml version="1.0" encoding="utf-8"?>
<!-- Generator: Adobe Illustrator 26.3.1, SVG Export Plug-In . SVG Version: 6.00 Build 0)  -->
<svg version="1.1" id="Layer_1" xmlns="http://www.w3.org/2000/svg" xmlns:xlink="http://www.w3.org/1999/xlink" x="0px" y="0px"
	 viewBox="0 0 728 90" style="enable-background:new 0 0 728 90;" xml:space="preserve">
<style type="text/css">
	.st0{clip-path:url(#SVGID_00000079456420685769428370000007471022302327550353_);fill:#231F20;}
	.st1{clip-path:url(#SVGID_00000079456420685769428370000007471022302327550353_);fill:#00B2EE;}
</style>
<g>
	<defs>
		<rect id="SVGID_1_" x="88.2" y="16.9" width="78.1" height="26.5"/>
	</defs>
	<clipPath id="SVGID_00000157288042739500753280000010751914042125318061_">
		<use xlink:href="#SVGID_1_"  style="overflow:visible;"/>
	</clipPath>
	<path style="clip-path:url(#SVGID_00000157288042739500753280000010751914042125318061_);fill:#231F20;" d="M88.7,31.1h4.2
		c3.3,0,4,2.2,4,3.6c0,1.4-0.6,3.6-4,3.6h-2.1v4.5h-2V31.1z M90.8,36.7h2c0.9,0,2-0.5,2-1.9c0-1.5-0.9-1.9-2-1.9h-2.1V36.7z"/>
	<path style="clip-path:url(#SVGID_00000157288042739500753280000010751914042125318061_);fill:#231F20;" d="M98.1,34.4h1.7V36h0
		c0.2-0.9,1.3-1.9,2.5-1.9c0.4,0,0.5,0,0.7,0V36c-0.3,0-0.5-0.1-0.8-0.1c-1.3,0-2.3,1-2.3,2.9v4h-1.9V34.4z"/>
	<path style="clip-path:url(#SVGID_00000157288042739500753280000010751914042125318061_);fill:#231F20;" d="M103.3,38.6
		c0-2.6,1.5-4.4,4.3-4.4c2.7,0,4.3,1.9,4.3,4.4c0,2.6-1.5,4.4-4.3,4.4C104.8,43,103.3,41.2,103.3,38.6 M109.9,38.6
		c0-1.4-0.7-3-2.4-3c-1.7,0-2.4,1.5-2.4,3c0,1.5,0.7,3,2.4,3C109.2,41.5,109.9,40,109.9,38.6"/>
	<path style="clip-path:url(#SVGID_00000157288042739500753280000010751914042125318061_);fill:#231F20;" d="M112,34.4h1.5v-2.5h1.8
		v2.5h1.7v1.4h-1.7v4.5c0,0.8,0.1,1.2,0.9,1.2c0.3,0,0.5,0,0.8-0.1v1.4c-0.4,0-0.8,0.1-1.2,0.1c-1.9,0-2.3-0.7-2.3-2.2v-5H112V34.4z
		"/>
	<path style="clip-path:url(#SVGID_00000157288042739500753280000010751914042125318061_);fill:#231F20;" d="M119.6,39
		c0,1.3,0.7,2.5,2.3,2.5c1.1,0,1.7-0.5,2.1-1.4h1.8c-0.4,1.8-2,2.9-3.8,2.9c-2.6,0-4.1-1.8-4.1-4.4c0-2.4,1.6-4.4,4.1-4.4
		c2.7,0,4.3,2.4,4,4.9H119.6z M124,37.8c-0.1-1.2-0.9-2.2-2.1-2.2c-1.3,0-2.2,1-2.2,2.2H124z"/>
	<path style="clip-path:url(#SVGID_00000157288042739500753280000010751914042125318061_);fill:#231F20;" d="M132.8,37.2
		c-0.1-1-0.9-1.6-1.9-1.6c-1,0-2.3,0.5-2.3,3.1c0,1.4,0.6,2.9,2.2,2.9c1.1,0,1.8-0.7,2-1.9h1.9c-0.3,2.2-1.7,3.4-3.9,3.4
		c-2.6,0-4.1-1.9-4.1-4.3c0-2.5,1.4-4.5,4.2-4.5c2,0,3.6,1,3.8,3H132.8z"/>
	<path style="clip-path:url(#SVGID_00000157288042739500753280000010751914042125318061_);fill:#231F20;" d="M135.2,34.4h1.4v-2.5
		h1.9v2.5h1.7v1.4h-1.7v4.5c0,0.8,0.1,1.2,0.9,1.2c0.3,0,0.5,0,0.8-0.1v1.4c-0.4,0-0.8,0.1-1.2,0.1c-1.9,0-2.3-0.7-2.3-2.2v-5h-1.4
		V34.4z"/>
	<path style="clip-path:url(#SVGID_00000157288042739500753280000010751914042125318061_);fill:#231F20;" d="M142.3,31.1h1.9v1.8
		h-1.9V31.1z M142.3,34.4h1.9v8.4h-1.9V34.4z"/>
	<polygon style="clip-path:url(#SVGID_00000157288042739500753280000010751914042125318061_);fill:#231F20;" points="145.5,34.4 
		147.5,34.4 150.1,40.8 150.1,40.8 152.7,34.4 154.6,34.4 151.1,42.8 149,42.8 	"/>
	<path style="clip-path:url(#SVGID_00000157288042739500753280000010751914042125318061_);fill:#231F20;" d="M156.9,39
		c0,1.3,0.7,2.5,2.3,2.5c1.1,0,1.7-0.5,2.1-1.4h1.8c-0.4,1.8-2,2.9-3.8,2.9c-2.6,0-4.1-1.8-4.1-4.4c0-2.4,1.6-4.4,4.1-4.4
		c2.7,0,4.3,2.4,4,4.9H156.9z M161.2,37.8c-0.1-1.2-0.9-2.2-2.1-2.2c-1.3,0-2.2,1-2.2,2.2H161.2z"/>
	<path style="clip-path:url(#SVGID_00000157288042739500753280000010751914042125318061_);fill:#00B2EE;" d="M138.8,29.2
		c-1.2-4.6-4.9-8.3-9.5-9.4c-0.4-1.4-1.7-2.5-3.3-2.5s-2.9,1-3.3,2.5c-4.6,1.2-8.3,4.8-9.5,9.4l-0.1,0.5h2.8l0.1-0.3
		c1.1-3.4,3.7-6,7.1-6.9c0.6,1,1.7,1.7,3,1.7c1.3,0,2.4-0.7,3-1.7c3.3,1,6,3.6,7.1,6.9l0.1,0.3h2.8L138.8,29.2z"/>
	<path style="clip-path:url(#SVGID_00000157288042739500753280000010751914042125318061_);fill:#231F20;" d="M165,41.4
		c0.5,0,0.8,0.4,0.8,0.8c0,0.5-0.4,0.8-0.8,0.8s-0.8-0.4-0.8-0.8C164.2,41.7,164.6,41.4,165,41.4 M165.7,42.2c0-0.4-0.3-0.7-0.7-0.7
		s-0.7,0.3-0.7,0.7c0,0.4,0.3,0.7,0.7,0.7S165.7,42.6,165.7,42.2 M164.7,41.7h0.4c0.2,0,0.3,0.1,0.3,0.3c0,0.2-0.1,0.3-0.3,0.3
		l0.3,0.4h-0.1l-0.3-0.4h-0.2v0.4h-0.1V41.7z M165,42.1c0.1,0,0.3,0,0.3-0.2c0-0.1-0.1-0.1-0.2-0.1h-0.2v0.3H165z"/>
</g>
</svg>
