<?xml version="1.0" encoding="utf-8"?>
<!-- Generator: Adobe Illustrator 26.5.0, SVG Export Plug-In . SVG Version: 6.00 Build 0)  -->
<svg version="1.1" baseProfile="tiny" id="Layer_1" xmlns="http://www.w3.org/2000/svg" xmlns:xlink="http://www.w3.org/1999/xlink"
	 x="0px" y="0px" viewBox="0 0 320 50" overflow="visible" xml:space="preserve">
<g>
	<path fill="#231F20" d="M135,14.8c-0.1-0.2-0.2-0.3-0.4-0.5c-0.2-0.1-0.3-0.2-0.5-0.3c-0.2-0.1-0.4-0.1-0.6-0.1
		c-0.4,0-0.8,0.1-1,0.2c-0.3,0.2-0.5,0.4-0.7,0.6c-0.2,0.3-0.3,0.6-0.4,0.9c-0.1,0.3-0.1,0.7-0.1,1c0,0.3,0,0.7,0.1,1
		c0.1,0.3,0.2,0.6,0.4,0.9c0.2,0.3,0.4,0.5,0.7,0.6s0.6,0.2,1,0.2c0.6,0,1-0.2,1.3-0.5s0.5-0.8,0.6-1.3h1.7c0,0.5-0.2,1-0.4,1.4
		c-0.2,0.4-0.4,0.8-0.8,1.1c-0.3,0.3-0.7,0.5-1.1,0.7c-0.4,0.2-0.9,0.2-1.4,0.2c-0.6,0-1.2-0.1-1.7-0.3c-0.5-0.2-0.9-0.5-1.3-0.9
		c-0.3-0.4-0.6-0.8-0.8-1.4c-0.2-0.5-0.3-1.1-0.3-1.7c0-0.6,0.1-1.2,0.3-1.7c0.2-0.5,0.4-1,0.8-1.4c0.3-0.4,0.8-0.7,1.3-0.9
		c0.5-0.2,1.1-0.3,1.7-0.3c0.5,0,0.9,0.1,1.3,0.2c0.4,0.1,0.8,0.3,1.1,0.6c0.3,0.2,0.6,0.6,0.8,0.9c0.2,0.4,0.3,0.8,0.4,1.3h-1.7
		C135.2,15.1,135.1,14.9,135,14.8z"/>
	<path fill="#231F20" d="M139.5,14.8v1.1h0c0.1-0.2,0.2-0.4,0.3-0.5s0.3-0.3,0.4-0.4c0.2-0.1,0.3-0.2,0.5-0.3
		c0.2-0.1,0.4-0.1,0.6-0.1c0.1,0,0.2,0,0.4,0.1v1.5c-0.1,0-0.2,0-0.3,0c-0.1,0-0.2,0-0.3,0c-0.3,0-0.6,0-0.8,0.1s-0.4,0.2-0.5,0.4
		c-0.1,0.2-0.2,0.4-0.3,0.6c-0.1,0.2-0.1,0.5-0.1,0.7v2.7H138v-5.9H139.5z"/>
	<path fill="#231F20" d="M142.4,13.9v-1.3h1.6v1.3H142.4z M144,14.8v5.9h-1.6v-5.9H144z"/>
	<path fill="#231F20" d="M148.5,14.8v1.1h-1.2v2.9c0,0.3,0,0.5,0.1,0.6c0.1,0.1,0.3,0.1,0.6,0.1c0.1,0,0.2,0,0.3,0s0.2,0,0.2,0v1.3
		c-0.1,0-0.3,0-0.5,0c-0.2,0-0.3,0-0.5,0c-0.3,0-0.5,0-0.7-0.1c-0.2,0-0.4-0.1-0.6-0.2s-0.3-0.2-0.4-0.4s-0.1-0.4-0.1-0.7v-3.5h-1
		v-1.1h1V13h1.6v1.8H148.5z"/>
	<path fill="#231F20" d="M149.2,13.9v-1.3h1.6v1.3H149.2z M150.8,14.8v5.9h-1.6v-5.9H150.8z"/>
	<path fill="#231F20" d="M154.8,15.9c-0.3,0-0.5,0.1-0.7,0.2c-0.2,0.1-0.3,0.3-0.4,0.5c-0.1,0.2-0.2,0.4-0.2,0.6
		c0,0.2-0.1,0.5-0.1,0.7c0,0.2,0,0.4,0.1,0.7c0,0.2,0.1,0.4,0.2,0.6s0.2,0.3,0.4,0.4c0.2,0.1,0.4,0.2,0.6,0.2c0.4,0,0.7-0.1,0.9-0.3
		c0.2-0.2,0.3-0.5,0.4-0.9h1.6c-0.1,0.8-0.4,1.4-0.9,1.8c-0.5,0.4-1.2,0.6-1.9,0.6c-0.4,0-0.9-0.1-1.2-0.2c-0.4-0.1-0.7-0.4-0.9-0.6
		c-0.3-0.3-0.5-0.6-0.6-1c-0.1-0.4-0.2-0.8-0.2-1.2c0-0.5,0.1-0.9,0.2-1.3c0.1-0.4,0.3-0.7,0.6-1s0.6-0.5,1-0.7
		c0.4-0.2,0.8-0.2,1.3-0.2c0.4,0,0.7,0,1,0.1c0.3,0.1,0.6,0.2,0.9,0.4c0.3,0.2,0.5,0.4,0.6,0.7c0.2,0.3,0.3,0.6,0.3,1h-1.6
		C155.9,16.2,155.5,15.9,154.8,15.9z"/>
	<path fill="#231F20" d="M158.4,16.7c0-0.4,0.1-0.7,0.3-1c0.2-0.3,0.4-0.5,0.6-0.6c0.3-0.2,0.6-0.3,0.9-0.3c0.3-0.1,0.7-0.1,1-0.1
		c0.3,0,0.6,0,0.9,0.1c0.3,0,0.6,0.1,0.8,0.2s0.5,0.3,0.6,0.5c0.2,0.2,0.2,0.5,0.2,0.9v3.1c0,0.3,0,0.5,0,0.8c0,0.2,0.1,0.4,0.2,0.6
		h-1.7c0-0.1-0.1-0.2-0.1-0.3c0-0.1,0-0.2,0-0.3c-0.3,0.3-0.6,0.5-0.9,0.6c-0.4,0.1-0.7,0.2-1.1,0.2c-0.3,0-0.5,0-0.8-0.1
		c-0.2-0.1-0.5-0.2-0.6-0.3s-0.3-0.3-0.4-0.6c-0.1-0.2-0.2-0.5-0.2-0.8c0-0.3,0.1-0.6,0.2-0.8c0.1-0.2,0.3-0.4,0.5-0.5
		c0.2-0.1,0.4-0.2,0.6-0.3c0.2-0.1,0.5-0.1,0.7-0.2c0.2,0,0.5-0.1,0.7-0.1c0.2,0,0.4-0.1,0.6-0.1c0.2,0,0.3-0.1,0.4-0.2
		c0.1-0.1,0.2-0.2,0.1-0.4c0-0.2,0-0.3-0.1-0.4c-0.1-0.1-0.1-0.2-0.2-0.2c-0.1-0.1-0.2-0.1-0.3-0.1c-0.1,0-0.3,0-0.4,0
		c-0.3,0-0.6,0.1-0.8,0.2c-0.2,0.1-0.3,0.4-0.3,0.7H158.4z M162.2,17.9c-0.1,0.1-0.2,0.1-0.3,0.1c-0.1,0-0.2,0.1-0.3,0.1
		c-0.1,0-0.2,0-0.4,0.1c-0.1,0-0.3,0-0.4,0.1c-0.1,0-0.2,0.1-0.4,0.1c-0.1,0-0.2,0.1-0.3,0.2c-0.1,0.1-0.2,0.1-0.2,0.2
		c-0.1,0.1-0.1,0.2-0.1,0.4c0,0.1,0,0.3,0.1,0.4c0.1,0.1,0.1,0.2,0.2,0.2c0.1,0.1,0.2,0.1,0.3,0.1s0.2,0,0.4,0
		c0.3,0,0.6-0.1,0.7-0.2c0.2-0.1,0.3-0.2,0.4-0.4c0.1-0.1,0.1-0.3,0.2-0.5c0-0.2,0-0.3,0-0.4V17.9z"/>
	<path fill="#231F20" d="M166.7,12.6v8.2H165v-8.2H166.7z"/>
	<path fill="#231F20" d="M172.9,12.6v8.2h-1.8v-8.2H172.9z"/>
	<path fill="#231F20" d="M175.9,12.6v8.2h-1.6v-8.2H175.9z"/>
	<path fill="#231F20" d="M178.8,12.6v8.2h-1.6v-8.2H178.8z"/>
	<path fill="#231F20" d="M181.5,14.8v0.8h0c0.2-0.3,0.5-0.6,0.8-0.8c0.3-0.2,0.7-0.2,1-0.2c0.4,0,0.8,0.1,1.1,0.2
		c0.3,0.1,0.5,0.3,0.7,0.5s0.3,0.5,0.3,0.8s0.1,0.6,0.1,1v3.7h-1.6v-3.4c0-0.5-0.1-0.9-0.2-1.1c-0.2-0.2-0.4-0.4-0.8-0.4
		c-0.4,0-0.8,0.1-1,0.4c-0.2,0.3-0.3,0.7-0.3,1.3v3.1h-1.6v-5.9H181.5z"/>
	<path fill="#231F20" d="M188.4,19.3c0.2,0.2,0.6,0.4,1.1,0.4c0.3,0,0.6-0.1,0.9-0.2c0.2-0.2,0.4-0.3,0.4-0.5h1.4
		c-0.2,0.7-0.6,1.2-1.1,1.5c-0.5,0.3-1.1,0.5-1.7,0.5c-0.5,0-0.9-0.1-1.3-0.2s-0.7-0.4-1-0.6c-0.3-0.3-0.5-0.6-0.6-1
		c-0.1-0.4-0.2-0.8-0.2-1.3c0-0.4,0.1-0.9,0.2-1.2s0.4-0.7,0.6-1s0.6-0.5,1-0.7c0.4-0.2,0.8-0.2,1.2-0.2c0.5,0,0.9,0.1,1.3,0.3
		c0.4,0.2,0.7,0.5,0.9,0.8c0.2,0.3,0.4,0.7,0.5,1.1c0.1,0.4,0.1,0.9,0.1,1.3H188C188,18.7,188.2,19.1,188.4,19.3z M190.2,16.2
		c-0.2-0.2-0.5-0.3-0.9-0.3c-0.3,0-0.5,0-0.6,0.1c-0.2,0.1-0.3,0.2-0.4,0.3s-0.2,0.3-0.2,0.4S188,17,188,17.2h2.7
		C190.6,16.7,190.4,16.4,190.2,16.2z"/>
	<path fill="#231F20" d="M194.5,19.3c0.1,0.1,0.2,0.2,0.3,0.3c0.1,0.1,0.2,0.1,0.4,0.2c0.1,0,0.3,0.1,0.5,0.1c0.1,0,0.2,0,0.4,0
		c0.1,0,0.2-0.1,0.3-0.1s0.2-0.1,0.3-0.2s0.1-0.2,0.1-0.4c0-0.2-0.2-0.4-0.5-0.6c-0.3-0.1-0.8-0.2-1.4-0.4c-0.2-0.1-0.5-0.1-0.7-0.2
		c-0.2-0.1-0.4-0.2-0.6-0.3c-0.2-0.1-0.3-0.3-0.4-0.4s-0.2-0.4-0.2-0.7c0-0.4,0.1-0.7,0.2-0.9c0.2-0.2,0.3-0.4,0.6-0.6
		c0.2-0.1,0.5-0.2,0.8-0.3c0.3-0.1,0.6-0.1,0.9-0.1c0.3,0,0.6,0,0.9,0.1c0.3,0.1,0.6,0.2,0.8,0.3c0.2,0.1,0.4,0.3,0.6,0.6
		c0.2,0.2,0.3,0.5,0.3,0.9h-1.6c0-0.3-0.1-0.5-0.4-0.6c-0.2-0.1-0.5-0.2-0.8-0.2c-0.1,0-0.2,0-0.3,0c-0.1,0-0.2,0-0.3,0.1
		c-0.1,0-0.2,0.1-0.2,0.2c-0.1,0.1-0.1,0.2-0.1,0.3c0,0.1,0.1,0.3,0.2,0.4s0.2,0.2,0.4,0.2c0.2,0.1,0.4,0.1,0.6,0.2s0.4,0.1,0.7,0.1
		c0.2,0.1,0.5,0.1,0.7,0.2c0.2,0.1,0.4,0.2,0.6,0.3c0.2,0.1,0.3,0.3,0.4,0.5c0.1,0.2,0.2,0.4,0.2,0.7c0,0.4-0.1,0.7-0.2,1
		s-0.4,0.5-0.6,0.6s-0.5,0.3-0.9,0.3c-0.3,0.1-0.7,0.1-1,0.1c-0.3,0-0.7,0-1-0.1c-0.3-0.1-0.6-0.2-0.9-0.3c-0.3-0.2-0.5-0.4-0.6-0.6
		c-0.2-0.3-0.3-0.6-0.3-1h1.6C194.4,19,194.5,19.2,194.5,19.3z"/>
	<path fill="#231F20" d="M200.6,19.3c0.1,0.1,0.2,0.2,0.3,0.3c0.1,0.1,0.2,0.1,0.4,0.2c0.1,0,0.3,0.1,0.5,0.1c0.1,0,0.2,0,0.4,0
		c0.1,0,0.2-0.1,0.3-0.1s0.2-0.1,0.3-0.2s0.1-0.2,0.1-0.4c0-0.2-0.2-0.4-0.5-0.6c-0.3-0.1-0.8-0.2-1.4-0.4c-0.2-0.1-0.5-0.1-0.7-0.2
		c-0.2-0.1-0.4-0.2-0.6-0.3c-0.2-0.1-0.3-0.3-0.4-0.4s-0.2-0.4-0.2-0.7c0-0.4,0.1-0.7,0.2-0.9c0.2-0.2,0.3-0.4,0.6-0.6
		c0.2-0.1,0.5-0.2,0.8-0.3c0.3-0.1,0.6-0.1,0.9-0.1c0.3,0,0.6,0,0.9,0.1c0.3,0.1,0.6,0.2,0.8,0.3c0.2,0.1,0.4,0.3,0.6,0.6
		c0.2,0.2,0.3,0.5,0.3,0.9h-1.6c0-0.3-0.1-0.5-0.4-0.6c-0.2-0.1-0.5-0.2-0.8-0.2c-0.1,0-0.2,0-0.3,0c-0.1,0-0.2,0-0.3,0.1
		c-0.1,0-0.2,0.1-0.2,0.2c-0.1,0.1-0.1,0.2-0.1,0.3c0,0.1,0.1,0.3,0.2,0.4s0.2,0.2,0.4,0.2c0.2,0.1,0.4,0.1,0.6,0.2s0.4,0.1,0.7,0.1
		c0.2,0.1,0.5,0.1,0.7,0.2c0.2,0.1,0.4,0.2,0.6,0.3c0.2,0.1,0.3,0.3,0.4,0.5c0.1,0.2,0.2,0.4,0.2,0.7c0,0.4-0.1,0.7-0.2,1
		s-0.4,0.5-0.6,0.6s-0.5,0.3-0.9,0.3c-0.3,0.1-0.7,0.1-1,0.1c-0.3,0-0.7,0-1-0.1c-0.3-0.1-0.6-0.2-0.9-0.3c-0.3-0.2-0.5-0.4-0.6-0.6
		c-0.2-0.3-0.3-0.6-0.3-1h1.6C200.5,19,200.5,19.2,200.6,19.3z"/>
</g>
<g>
	<path fill="#231F20" d="M142.7,25.1v8.2h-1.8v-8.2H142.7z"/>
	<path fill="#231F20" d="M145.6,27.3v0.8h0c0.2-0.3,0.5-0.6,0.8-0.8c0.3-0.2,0.7-0.2,1-0.2c0.4,0,0.8,0.1,1.1,0.2s0.5,0.3,0.7,0.5
		c0.2,0.2,0.3,0.5,0.3,0.8c0.1,0.3,0.1,0.6,0.1,1v3.7H148v-3.4c0-0.5-0.1-0.9-0.2-1.1s-0.4-0.4-0.8-0.4c-0.4,0-0.8,0.1-1,0.4
		c-0.2,0.3-0.3,0.7-0.3,1.3v3.1H144v-5.9H145.6z"/>
	<path fill="#231F20" d="M152.1,31.8c0.1,0.1,0.2,0.2,0.3,0.3c0.1,0.1,0.2,0.1,0.4,0.2c0.1,0,0.3,0.1,0.5,0.1c0.1,0,0.2,0,0.4,0
		c0.1,0,0.2-0.1,0.3-0.1c0.1-0.1,0.2-0.1,0.3-0.2s0.1-0.2,0.1-0.4c0-0.2-0.2-0.4-0.5-0.6c-0.3-0.1-0.8-0.2-1.4-0.4
		c-0.2-0.1-0.5-0.1-0.7-0.2c-0.2-0.1-0.4-0.2-0.6-0.3c-0.2-0.1-0.3-0.3-0.4-0.4s-0.2-0.4-0.2-0.7c0-0.4,0.1-0.7,0.2-0.9
		c0.1-0.2,0.3-0.4,0.6-0.6c0.2-0.1,0.5-0.2,0.8-0.3c0.3-0.1,0.6-0.1,0.9-0.1c0.3,0,0.6,0,0.9,0.1s0.6,0.2,0.8,0.3
		c0.2,0.1,0.4,0.3,0.6,0.6c0.2,0.2,0.3,0.5,0.3,0.9h-1.6c0-0.3-0.1-0.5-0.4-0.6c-0.2-0.1-0.5-0.2-0.8-0.2c-0.1,0-0.2,0-0.3,0
		c-0.1,0-0.2,0-0.3,0.1c-0.1,0-0.2,0.1-0.2,0.2c-0.1,0.1-0.1,0.2-0.1,0.3c0,0.1,0.1,0.3,0.2,0.4c0.1,0.1,0.2,0.2,0.4,0.2
		c0.2,0.1,0.4,0.1,0.6,0.2c0.2,0,0.4,0.1,0.7,0.2c0.2,0.1,0.5,0.1,0.7,0.2c0.2,0.1,0.4,0.2,0.6,0.3c0.2,0.1,0.3,0.3,0.4,0.5
		c0.1,0.2,0.2,0.4,0.2,0.7c0,0.4-0.1,0.7-0.2,1c-0.2,0.3-0.4,0.5-0.6,0.6c-0.3,0.2-0.5,0.3-0.9,0.3c-0.3,0.1-0.7,0.1-1,0.1
		c-0.3,0-0.7,0-1-0.1c-0.3-0.1-0.6-0.2-0.9-0.3s-0.5-0.4-0.6-0.6c-0.2-0.3-0.3-0.6-0.3-1h1.6C152,31.5,152.1,31.7,152.1,31.8z"/>
	<path fill="#231F20" d="M160.8,33.3v-0.8h0c-0.2,0.3-0.5,0.6-0.8,0.7c-0.3,0.2-0.7,0.2-1,0.2c-0.4,0-0.8-0.1-1.1-0.2
		c-0.3-0.1-0.5-0.3-0.7-0.5s-0.3-0.5-0.3-0.8c-0.1-0.3-0.1-0.6-0.1-1v-3.7h1.6v3.4c0,0.5,0.1,0.9,0.2,1.1s0.4,0.4,0.8,0.4
		c0.4,0,0.8-0.1,1-0.4s0.3-0.7,0.3-1.3v-3.1h1.6v5.9H160.8z"/>
	<path fill="#231F20" d="M165.1,27.3v1.1h0c0.1-0.2,0.2-0.4,0.3-0.5c0.1-0.2,0.3-0.3,0.4-0.4c0.2-0.1,0.3-0.2,0.5-0.3
		s0.4-0.1,0.6-0.1c0.1,0,0.2,0,0.4,0.1v1.5c-0.1,0-0.2,0-0.3,0c-0.1,0-0.2,0-0.3,0c-0.3,0-0.6,0-0.8,0.1c-0.2,0.1-0.4,0.2-0.5,0.4
		c-0.1,0.2-0.2,0.4-0.3,0.6c-0.1,0.2-0.1,0.5-0.1,0.7v2.7h-1.6v-5.9H165.1z"/>
	<path fill="#231F20" d="M167.8,29.2c0-0.4,0.1-0.7,0.3-1c0.2-0.3,0.4-0.5,0.6-0.6c0.3-0.2,0.6-0.3,0.9-0.3s0.7-0.1,1-0.1
		c0.3,0,0.6,0,0.9,0.1c0.3,0,0.6,0.1,0.8,0.2s0.5,0.3,0.6,0.5c0.2,0.2,0.2,0.5,0.2,0.9v3.1c0,0.3,0,0.5,0,0.8s0.1,0.4,0.2,0.6h-1.7
		c0-0.1-0.1-0.2-0.1-0.3c0-0.1,0-0.2,0-0.3c-0.3,0.3-0.6,0.5-0.9,0.6s-0.7,0.2-1.1,0.2c-0.3,0-0.5,0-0.8-0.1s-0.5-0.2-0.6-0.3
		c-0.2-0.1-0.3-0.3-0.4-0.6c-0.1-0.2-0.2-0.5-0.2-0.8c0-0.3,0.1-0.6,0.2-0.8c0.1-0.2,0.3-0.4,0.5-0.5c0.2-0.1,0.4-0.2,0.6-0.3
		c0.2-0.1,0.5-0.1,0.7-0.2c0.2,0,0.5-0.1,0.7-0.1c0.2,0,0.4-0.1,0.6-0.1c0.2,0,0.3-0.1,0.4-0.2c0.1-0.1,0.2-0.2,0.1-0.4
		c0-0.2,0-0.3-0.1-0.4c-0.1-0.1-0.1-0.2-0.2-0.2s-0.2-0.1-0.3-0.1c-0.1,0-0.3,0-0.4,0c-0.3,0-0.6,0.1-0.8,0.2
		c-0.2,0.1-0.3,0.4-0.3,0.7H167.8z M171.6,30.4c-0.1,0.1-0.2,0.1-0.3,0.1s-0.2,0.1-0.3,0.1c-0.1,0-0.2,0-0.4,0.1
		c-0.1,0-0.3,0-0.4,0.1c-0.1,0-0.2,0.1-0.4,0.1c-0.1,0-0.2,0.1-0.3,0.2c-0.1,0.1-0.2,0.1-0.2,0.2s-0.1,0.2-0.1,0.4
		c0,0.1,0,0.3,0.1,0.4s0.1,0.2,0.2,0.2s0.2,0.1,0.3,0.1c0.1,0,0.2,0,0.4,0c0.3,0,0.6-0.1,0.7-0.2c0.2-0.1,0.3-0.2,0.4-0.4
		c0.1-0.1,0.1-0.3,0.2-0.5c0-0.2,0-0.3,0-0.4V30.4z"/>
	<path fill="#231F20" d="M176,27.3v0.8h0c0.2-0.3,0.5-0.6,0.8-0.8c0.3-0.2,0.7-0.2,1-0.2c0.4,0,0.8,0.1,1.1,0.2
		c0.3,0.1,0.5,0.3,0.7,0.5s0.3,0.5,0.3,0.8s0.1,0.6,0.1,1v3.7h-1.6v-3.4c0-0.5-0.1-0.9-0.2-1.1c-0.2-0.2-0.4-0.4-0.8-0.4
		c-0.4,0-0.8,0.1-1,0.4c-0.2,0.3-0.3,0.7-0.3,1.3v3.1h-1.6v-5.9H176z"/>
	<path fill="#231F20" d="M184,28.4c-0.3,0-0.5,0.1-0.7,0.2c-0.2,0.1-0.3,0.3-0.4,0.5c-0.1,0.2-0.2,0.4-0.2,0.6
		c0,0.2-0.1,0.5-0.1,0.7c0,0.2,0,0.4,0.1,0.7c0,0.2,0.1,0.4,0.2,0.6c0.1,0.2,0.2,0.3,0.4,0.4c0.2,0.1,0.4,0.2,0.6,0.2
		c0.4,0,0.7-0.1,0.9-0.3c0.2-0.2,0.3-0.5,0.4-0.9h1.6c-0.1,0.8-0.4,1.4-0.9,1.8s-1.2,0.6-1.9,0.6c-0.4,0-0.9-0.1-1.2-0.2
		c-0.4-0.1-0.7-0.4-0.9-0.6s-0.5-0.6-0.6-1c-0.1-0.4-0.2-0.8-0.2-1.2c0-0.5,0.1-0.9,0.2-1.3c0.1-0.4,0.3-0.7,0.6-1s0.6-0.5,1-0.7
		c0.4-0.2,0.8-0.2,1.3-0.2c0.4,0,0.7,0,1,0.1c0.3,0.1,0.6,0.2,0.9,0.4c0.3,0.2,0.5,0.4,0.6,0.7c0.2,0.3,0.3,0.6,0.3,1h-1.6
		C185.1,28.7,184.7,28.4,184,28.4z"/>
	<path fill="#231F20" d="M189.4,31.8c0.2,0.2,0.6,0.4,1.1,0.4c0.3,0,0.6-0.1,0.9-0.2c0.2-0.2,0.4-0.3,0.4-0.5h1.4
		c-0.2,0.7-0.6,1.2-1.1,1.5c-0.5,0.3-1.1,0.5-1.7,0.5c-0.5,0-0.9-0.1-1.3-0.2c-0.4-0.1-0.7-0.4-1-0.6c-0.3-0.3-0.5-0.6-0.6-1
		c-0.1-0.4-0.2-0.8-0.2-1.3c0-0.4,0.1-0.9,0.2-1.2s0.4-0.7,0.6-1c0.3-0.3,0.6-0.5,1-0.7c0.4-0.2,0.8-0.2,1.2-0.2
		c0.5,0,0.9,0.1,1.3,0.3c0.4,0.2,0.7,0.5,0.9,0.8c0.2,0.3,0.4,0.7,0.5,1.1s0.1,0.9,0.1,1.3H189C189,31.2,189.1,31.6,189.4,31.8z
		 M191.2,28.7c-0.2-0.2-0.5-0.3-0.9-0.3c-0.3,0-0.5,0-0.6,0.1s-0.3,0.2-0.4,0.3s-0.2,0.3-0.2,0.4s-0.1,0.3-0.1,0.4h2.7
		C191.5,29.2,191.4,28.9,191.2,28.7z"/>
</g>
</svg>
