<?xml version="1.0" encoding="utf-8"?>
<!-- Generator: Adobe Illustrator 26.5.0, SVG Export Plug-In . SVG Version: 6.00 Build 0)  -->
<svg version="1.1" baseProfile="tiny" id="Layer_1" xmlns="http://www.w3.org/2000/svg" xmlns:xlink="http://www.w3.org/1999/xlink"
	 x="0px" y="0px" viewBox="0 0 320 50" overflow="visible" xml:space="preserve">
<g>
	<path fill="#231F20" d="M10.1,8.1h3.2l3,5.1l3-5.1h3.1L17.6,16v4.9h-2.8v-5L10.1,8.1z"/>
	<path fill="#231F20" d="M21.1,14.3c0.2-0.6,0.6-1.1,1-1.5c0.4-0.4,0.9-0.8,1.5-1s1.2-0.4,2-0.4c0.7,0,1.4,0.1,2,0.4s1.1,0.6,1.5,1
		c0.4,0.4,0.7,0.9,1,1.5c0.2,0.6,0.3,1.3,0.3,2c0,0.7-0.1,1.4-0.3,2c-0.2,0.6-0.6,1.1-1,1.5c-0.4,0.4-0.9,0.8-1.5,1
		c-0.6,0.2-1.3,0.3-2,0.3c-0.7,0-1.4-0.1-2-0.3c-0.6-0.2-1.1-0.6-1.5-1c-0.4-0.4-0.7-0.9-1-1.5s-0.3-1.3-0.3-2
		C20.8,15.5,20.9,14.9,21.1,14.3z M23.4,17.4c0.1,0.4,0.2,0.7,0.4,1c0.2,0.3,0.4,0.5,0.7,0.7s0.6,0.3,1.1,0.3c0.4,0,0.8-0.1,1.1-0.3
		c0.3-0.2,0.5-0.4,0.7-0.7c0.2-0.3,0.3-0.6,0.4-1c0.1-0.4,0.1-0.7,0.1-1.1c0-0.4,0-0.7-0.1-1.1c-0.1-0.4-0.2-0.7-0.4-1
		s-0.4-0.5-0.7-0.7c-0.3-0.2-0.7-0.3-1.1-0.3c-0.4,0-0.8,0.1-1.1,0.3c-0.3,0.2-0.5,0.4-0.7,0.7s-0.3,0.6-0.4,1
		c-0.1,0.4-0.1,0.7-0.1,1.1C23.3,16.7,23.4,17,23.4,17.4z"/>
	<path fill="#231F20" d="M38.2,20.9v-1.3h-0.1c-0.3,0.5-0.7,0.9-1.3,1.2c-0.5,0.2-1,0.4-1.6,0.4c-0.7,0-1.2-0.1-1.7-0.3
		c-0.4-0.2-0.8-0.4-1-0.8c-0.3-0.3-0.4-0.7-0.5-1.2s-0.2-1-0.2-1.6v-5.7h2.6v5.3c0,0.8,0.1,1.3,0.4,1.7c0.2,0.4,0.7,0.6,1.3,0.6
		c0.7,0,1.2-0.2,1.5-0.6c0.3-0.4,0.5-1.1,0.5-2v-4.9h2.6v9.3H38.2z"/>
	<path fill="#231F20" d="M55.7,11.5c-0.2-0.3-0.4-0.5-0.6-0.7s-0.5-0.4-0.9-0.5s-0.7-0.2-1-0.2c-0.6,0-1.2,0.1-1.6,0.4
		c-0.4,0.2-0.8,0.6-1.1,1c-0.3,0.4-0.5,0.9-0.6,1.4c-0.1,0.5-0.2,1.1-0.2,1.6c0,0.5,0.1,1.1,0.2,1.6s0.3,1,0.6,1.4
		c0.3,0.4,0.6,0.7,1.1,1c0.4,0.2,1,0.4,1.6,0.4c0.9,0,1.5-0.3,2-0.8c0.5-0.5,0.8-1.2,0.9-2.1h2.7c-0.1,0.8-0.3,1.5-0.6,2.2
		c-0.3,0.6-0.7,1.2-1.2,1.7c-0.5,0.5-1.1,0.8-1.7,1c-0.7,0.2-1.4,0.4-2.2,0.4c-1,0-1.9-0.2-2.7-0.5c-0.8-0.3-1.4-0.8-2-1.4
		c-0.5-0.6-1-1.3-1.2-2.1c-0.3-0.8-0.4-1.7-0.4-2.6c0-1,0.1-1.9,0.4-2.7c0.3-0.8,0.7-1.5,1.2-2.2c0.5-0.6,1.2-1.1,2-1.4
		c0.8-0.3,1.7-0.5,2.7-0.5c0.7,0,1.4,0.1,2,0.3c0.6,0.2,1.2,0.5,1.7,0.9c0.5,0.4,0.9,0.9,1.2,1.4c0.3,0.6,0.5,1.2,0.6,2H56
		C56,12.1,55.9,11.8,55.7,11.5z"/>
	<path fill="#231F20" d="M67.1,8.1l4.8,12.9h-2.9l-1-2.9h-4.8l-1,2.9h-2.8l4.9-12.9H67.1z M67.2,16l-1.6-4.7h0L63.9,16H67.2z"/>
	<path fill="#231F20" d="M75.6,8.1l5.4,8.6h0V8.1h2.6v12.9h-2.8l-5.3-8.6h0v8.6h-2.6V8.1H75.6z"/>
	<path fill="#231F20" d="M88.5,8.1v2.8c0,0.4,0,0.8-0.2,1.1s-0.3,0.7-0.5,0.9c-0.2,0.3-0.5,0.5-0.8,0.7c-0.3,0.2-0.7,0.3-1,0.3v-1.2
		c0.5-0.2,0.8-0.4,0.9-0.7c0.2-0.3,0.3-0.7,0.3-1.1h-1.2V8.1H88.5z"/>
	<path fill="#231F20" d="M89.8,10.5V8.1h10.5v2.4h-3.9v10.5h-2.8V10.5H89.8z"/>
	<path fill="#231F20" d="M113.8,18.3c-0.1,0.5-0.3,1-0.6,1.4c-0.3,0.4-0.7,0.8-1.3,1.1c-0.6,0.3-1.3,0.4-2.3,0.4
		c-0.5,0-1.1-0.1-1.6-0.2s-1-0.4-1.4-0.7c-0.4-0.3-0.7-0.7-1-1.2s-0.4-1.1-0.4-1.8v-1.1h2.6v0.6c0,0.3,0,0.6,0.1,0.9
		c0,0.3,0.1,0.5,0.3,0.7s0.3,0.3,0.5,0.4s0.5,0.2,0.8,0.2c0.4,0,0.7-0.1,0.9-0.2c0.2-0.1,0.4-0.3,0.4-0.5s0.1-0.4,0.2-0.7
		s0-0.5,0-0.7V8.1h2.8v8.8C114,17.3,113.9,17.8,113.8,18.3z"/>
	<path fill="#231F20" d="M125.7,20c-1,0.8-2.3,1.3-4,1.3c-1.7,0-3.1-0.4-4-1.3c-1-0.8-1.4-2.1-1.4-3.9v-8h2.8v8c0,0.3,0,0.7,0.1,1
		s0.2,0.6,0.4,0.9c0.2,0.3,0.5,0.5,0.8,0.6c0.3,0.2,0.8,0.2,1.4,0.2c1,0,1.7-0.2,2.1-0.7c0.4-0.4,0.6-1.2,0.6-2.1v-8h2.8v8
		C127.2,17.8,126.7,19.1,125.7,20z"/>
	<path fill="#231F20" d="M135,8.1c0.8,0,1.6,0.1,2.3,0.4c0.7,0.3,1.3,0.7,1.9,1.2c0.5,0.5,0.9,1.2,1.2,2s0.4,1.7,0.4,2.8
		c0,0.9-0.1,1.8-0.4,2.6c-0.2,0.8-0.6,1.5-1.1,2.1s-1.1,1-1.8,1.4c-0.7,0.3-1.6,0.5-2.6,0.5h-5.5V8.1H135z M134.8,18.6
		c0.4,0,0.8-0.1,1.2-0.2c0.4-0.1,0.7-0.4,1-0.7c0.3-0.3,0.5-0.7,0.7-1.2c0.2-0.5,0.3-1.1,0.3-1.8c0-0.6-0.1-1.2-0.2-1.8
		s-0.3-1-0.6-1.3c-0.3-0.4-0.7-0.7-1.1-0.9c-0.5-0.2-1.1-0.3-1.8-0.3h-2v8.1H134.8z"/>
	<path fill="#231F20" d="M150.2,20.8c-0.6,0.3-1.2,0.4-1.9,0.4c-1,0-1.9-0.2-2.7-0.5c-0.8-0.3-1.4-0.8-2-1.4c-0.5-0.6-1-1.3-1.2-2.1
		c-0.3-0.8-0.4-1.7-0.4-2.6c0-1,0.1-1.9,0.4-2.7c0.3-0.8,0.7-1.5,1.2-2.2c0.5-0.6,1.2-1.1,2-1.4c0.8-0.3,1.7-0.5,2.7-0.5
		c0.7,0,1.3,0.1,1.9,0.3c0.6,0.2,1.2,0.5,1.7,0.9c0.5,0.4,0.9,0.9,1.2,1.4s0.5,1.2,0.6,1.9h-2.7c-0.2-0.7-0.5-1.3-1-1.6
		c-0.5-0.4-1.1-0.5-1.7-0.5c-0.6,0-1.2,0.1-1.6,0.4c-0.4,0.2-0.8,0.6-1.1,1c-0.3,0.4-0.5,0.9-0.6,1.4c-0.1,0.5-0.2,1.1-0.2,1.6
		c0,0.5,0.1,1.1,0.2,1.6s0.3,1,0.6,1.4c0.3,0.4,0.6,0.7,1.1,1c0.4,0.2,1,0.4,1.6,0.4c0.9,0,1.7-0.2,2.2-0.7c0.5-0.5,0.8-1.2,0.9-2.1
		h-2.8V14h5.4v6.9h-1.8l-0.3-1.5C151.4,20.1,150.8,20.6,150.2,20.8z"/>
	<path fill="#231F20" d="M165.7,8.1v2.4h-6.8v2.8h6.2v2.2h-6.2v3.1h6.9v2.4h-9.8V8.1H165.7z"/>
</g>
<g>
	<path fill="#339933" d="M11.1,33c0-0.6,0.2-1.1,0.5-1.5c0.3-0.4,0.6-0.7,1-1c0.4-0.2,0.9-0.4,1.4-0.5c0.5-0.1,1-0.2,1.5-0.2
		c0.5,0,0.9,0,1.4,0.1c0.5,0.1,0.9,0.2,1.3,0.4c0.4,0.2,0.7,0.5,1,0.8c0.3,0.3,0.4,0.8,0.4,1.4v4.8c0,0.4,0,0.8,0.1,1.2
		c0,0.4,0.1,0.7,0.3,0.9h-2.6c0-0.1-0.1-0.3-0.1-0.4c0-0.1-0.1-0.3-0.1-0.5c-0.4,0.4-0.9,0.7-1.4,0.9c-0.6,0.2-1.1,0.3-1.7,0.3
		c-0.4,0-0.9-0.1-1.2-0.2c-0.4-0.1-0.7-0.3-1-0.5c-0.3-0.2-0.5-0.5-0.7-0.9c-0.2-0.3-0.2-0.8-0.2-1.2c0-0.5,0.1-1,0.3-1.3
		s0.4-0.6,0.7-0.8c0.3-0.2,0.6-0.4,1-0.5c0.4-0.1,0.8-0.2,1.1-0.2c0.4-0.1,0.8-0.1,1.1-0.1s0.7-0.1,1-0.2s0.5-0.2,0.7-0.3
		c0.2-0.1,0.2-0.3,0.2-0.6c0-0.3,0-0.5-0.1-0.7c-0.1-0.2-0.2-0.3-0.4-0.4s-0.3-0.1-0.5-0.2c-0.2,0-0.4,0-0.6,0
		c-0.5,0-0.9,0.1-1.2,0.3c-0.3,0.2-0.5,0.6-0.5,1.1H11.1z M17,34.9c-0.1,0.1-0.2,0.2-0.4,0.2c-0.2,0.1-0.3,0.1-0.5,0.1
		s-0.4,0.1-0.6,0.1c-0.2,0-0.4,0.1-0.6,0.1c-0.2,0-0.4,0.1-0.6,0.1c-0.2,0.1-0.3,0.1-0.5,0.2c-0.1,0.1-0.2,0.2-0.3,0.4
		c-0.1,0.2-0.1,0.4-0.1,0.6c0,0.2,0,0.4,0.1,0.6c0.1,0.2,0.2,0.3,0.3,0.4s0.3,0.2,0.5,0.2s0.4,0.1,0.6,0.1c0.5,0,0.9-0.1,1.2-0.3
		c0.3-0.2,0.5-0.4,0.6-0.6c0.1-0.2,0.2-0.5,0.2-0.7c0-0.2,0-0.4,0-0.6V34.9z"/>
	<path fill="#339933" d="M24.6,29v-2.4h10.5V29h-3.9v10.5h-2.8V29H24.6z"/>
	<path fill="#339933" d="M36.3,30.4c0.3-0.8,0.7-1.5,1.2-2.2c0.5-0.6,1.2-1.1,2-1.4c0.8-0.3,1.7-0.5,2.7-0.5c1,0,1.9,0.2,2.7,0.5
		c0.8,0.3,1.4,0.8,2,1.4c0.5,0.6,1,1.3,1.2,2.2c0.3,0.8,0.4,1.7,0.4,2.7c0,0.9-0.1,1.8-0.4,2.6c-0.3,0.8-0.7,1.5-1.2,2.1
		c-0.5,0.6-1.2,1.1-2,1.4c-0.8,0.3-1.7,0.5-2.7,0.5c-1,0-1.9-0.2-2.7-0.5c-0.8-0.3-1.4-0.8-2-1.4c-0.5-0.6-1-1.3-1.2-2.1
		c-0.3-0.8-0.4-1.7-0.4-2.6C35.8,32.1,36,31.2,36.3,30.4z M38.9,34.6c0.1,0.5,0.3,1,0.6,1.4c0.3,0.4,0.6,0.7,1.1,1
		c0.4,0.2,1,0.4,1.6,0.4c0.6,0,1.2-0.1,1.6-0.4c0.4-0.2,0.8-0.6,1.1-1c0.3-0.4,0.5-0.9,0.6-1.4s0.2-1,0.2-1.6c0-0.6-0.1-1.1-0.2-1.6
		s-0.3-1-0.6-1.4c-0.3-0.4-0.6-0.7-1.1-1c-0.4-0.2-1-0.4-1.6-0.4c-0.6,0-1.2,0.1-1.6,0.4s-0.8,0.6-1.1,1c-0.3,0.4-0.5,0.9-0.6,1.4
		s-0.2,1.1-0.2,1.6C38.7,33.6,38.7,34.1,38.9,34.6z"/>
	<path fill="#339933" d="M50.1,30.4c0.3-0.8,0.7-1.5,1.2-2.2c0.5-0.6,1.2-1.1,2-1.4c0.8-0.3,1.7-0.5,2.7-0.5c1,0,1.9,0.2,2.7,0.5
		c0.8,0.3,1.4,0.8,2,1.4c0.5,0.6,1,1.3,1.2,2.2c0.3,0.8,0.4,1.7,0.4,2.7c0,0.9-0.1,1.8-0.4,2.6c-0.3,0.8-0.7,1.5-1.2,2.1
		c-0.5,0.6-1.2,1.1-2,1.4c-0.8,0.3-1.7,0.5-2.7,0.5c-1,0-1.9-0.2-2.7-0.5c-0.8-0.3-1.4-0.8-2-1.4c-0.5-0.6-1-1.3-1.2-2.1
		c-0.3-0.8-0.4-1.7-0.4-2.6C49.7,32.1,49.8,31.2,50.1,30.4z M52.7,34.6c0.1,0.5,0.3,1,0.6,1.4c0.3,0.4,0.6,0.7,1.1,1
		c0.4,0.2,1,0.4,1.6,0.4c0.6,0,1.2-0.1,1.6-0.4c0.4-0.2,0.8-0.6,1.1-1c0.3-0.4,0.5-0.9,0.6-1.4s0.2-1,0.2-1.6c0-0.6-0.1-1.1-0.2-1.6
		s-0.3-1-0.6-1.4c-0.3-0.4-0.6-0.7-1.1-1c-0.4-0.2-1-0.4-1.6-0.4c-0.6,0-1.2,0.1-1.6,0.4s-0.8,0.6-1.1,1c-0.3,0.4-0.5,0.9-0.6,1.4
		s-0.2,1.1-0.2,1.6C52.5,33.6,52.6,34.1,52.7,34.6z"/>
	<path fill="#339933" d="M63,29v-2.4h10.5V29h-3.9v10.5h-2.8V29H63z"/>
	<path fill="#339933" d="M77.7,26.6v4.9h5.2v-4.9h2.8v12.9h-2.8v-5.5h-5.2v5.5h-2.8V26.6H77.7z"/>
	<path fill="#339933" d="M95.2,26.6v4.7h0c0.3-0.5,0.7-0.8,1.3-1.1c0.5-0.2,1.1-0.3,1.7-0.3c0.5,0,0.9,0.1,1.4,0.3
		c0.5,0.2,0.9,0.5,1.2,0.9c0.4,0.4,0.7,0.9,0.9,1.5s0.3,1.4,0.3,2.2c0,0.9-0.1,1.6-0.3,2.2s-0.5,1.1-0.9,1.5
		c-0.4,0.4-0.8,0.7-1.2,0.9c-0.5,0.2-0.9,0.3-1.4,0.3c-0.7,0-1.3-0.1-1.8-0.3s-0.9-0.6-1.2-1.1h0v1.2h-2.4V26.6H95.2z M99.3,33.7
		c-0.1-0.4-0.2-0.7-0.4-1c-0.2-0.3-0.4-0.5-0.7-0.7s-0.6-0.2-1-0.2c-0.4,0-0.7,0.1-1,0.2c-0.3,0.2-0.5,0.4-0.7,0.7
		c-0.2,0.3-0.3,0.6-0.4,1c-0.1,0.4-0.1,0.7-0.1,1.1c0,0.4,0,0.8,0.1,1.1c0.1,0.4,0.2,0.7,0.4,1c0.2,0.3,0.4,0.5,0.7,0.7
		c0.3,0.2,0.6,0.2,1,0.2c0.4,0,0.7-0.1,1-0.2s0.5-0.4,0.7-0.7c0.2-0.3,0.3-0.6,0.4-1c0.1-0.4,0.1-0.7,0.1-1.1
		C99.4,34.4,99.4,34,99.3,33.7z"/>
	<path fill="#339933" d="M106.9,42.2c-0.5,0.3-1.2,0.5-2.1,0.5c-0.3,0-0.5,0-0.8,0c-0.3,0-0.5,0-0.8-0.1v-2.1c0.2,0,0.5,0,0.7,0.1
		c0.3,0,0.5,0,0.8,0c0.3,0,0.6-0.2,0.7-0.4c0.2-0.2,0.2-0.5,0.2-0.8c0-0.2,0-0.4-0.1-0.6l-3.3-8.7h2.7l2.1,6.4h0l2-6.4h2.6L108,40.6
		C107.7,41.3,107.3,41.9,106.9,42.2z"/>
	<path fill="#339933" d="M117.5,28.7v-2.1h2.6v2.1H117.5z M120,30.1v9.3h-2.6v-9.3H120z"/>
	<path fill="#339933" d="M127,30.1v1.7h-1.9v4.6c0,0.4,0.1,0.7,0.2,0.9c0.1,0.1,0.4,0.2,0.9,0.2c0.1,0,0.3,0,0.4,0
		c0.1,0,0.3,0,0.4-0.1v2c-0.2,0-0.5,0.1-0.7,0.1c-0.3,0-0.5,0-0.8,0c-0.4,0-0.8,0-1.1-0.1c-0.4-0.1-0.7-0.2-0.9-0.3
		c-0.3-0.2-0.5-0.4-0.6-0.7c-0.2-0.3-0.2-0.7-0.2-1.1v-5.5H121v-1.7h1.5v-2.8h2.6v2.8H127z"/>
	<path fill="#339933" d="M130.2,37.1c0.1,0.2,0.3,0.4,0.4,0.5s0.4,0.2,0.6,0.3s0.5,0.1,0.7,0.1c0.2,0,0.4,0,0.6-0.1
		c0.2,0,0.4-0.1,0.5-0.2s0.3-0.2,0.4-0.4c0.1-0.1,0.2-0.3,0.2-0.6c0-0.4-0.3-0.7-0.8-0.9c-0.5-0.2-1.2-0.4-2.1-0.6
		c-0.4-0.1-0.7-0.2-1.1-0.3c-0.4-0.1-0.7-0.3-0.9-0.5c-0.3-0.2-0.5-0.4-0.7-0.7c-0.2-0.3-0.3-0.6-0.3-1c0-0.6,0.1-1.1,0.4-1.5
		c0.2-0.4,0.5-0.7,0.9-0.9c0.4-0.2,0.8-0.4,1.3-0.5s1-0.1,1.5-0.1s1,0,1.5,0.1c0.5,0.1,0.9,0.3,1.3,0.5c0.4,0.2,0.7,0.5,0.9,0.9
		c0.2,0.4,0.4,0.9,0.4,1.4h-2.4c0-0.5-0.2-0.8-0.6-1s-0.7-0.3-1.2-0.3c-0.1,0-0.3,0-0.5,0c-0.2,0-0.3,0.1-0.5,0.1
		c-0.1,0.1-0.3,0.1-0.4,0.3c-0.1,0.1-0.1,0.3-0.1,0.5c0,0.2,0.1,0.4,0.3,0.6c0.2,0.1,0.4,0.3,0.7,0.4s0.6,0.2,0.9,0.2
		s0.7,0.2,1.1,0.2c0.4,0.1,0.7,0.2,1.1,0.3s0.7,0.3,0.9,0.5c0.3,0.2,0.5,0.4,0.7,0.7c0.2,0.3,0.3,0.7,0.3,1.1c0,0.6-0.1,1.1-0.4,1.5
		s-0.6,0.7-1,1s-0.8,0.4-1.4,0.5c-0.5,0.1-1,0.2-1.6,0.2c-0.5,0-1.1-0.1-1.6-0.2c-0.5-0.1-1-0.3-1.4-0.5c-0.4-0.3-0.7-0.6-1-1
		c-0.3-0.4-0.4-0.9-0.4-1.6h2.4C130,36.7,130.1,36.9,130.2,37.1z"/>
	<path fill="#339933" d="M144.5,39.4l-4.2-12.9h2.9l2.9,9h0l2.9-9h2.9l-4.3,12.9H144.5z"/>
	<path fill="#339933" d="M162.5,26.6V29h-6.8v2.8h6.2v2.2h-6.2v3.2h6.9v2.4h-9.8V26.6H162.5z"/>
	<path fill="#339933" d="M167.2,26.6l5.4,8.6h0v-8.6h2.6v12.9h-2.8l-5.3-8.6h0v8.6h-2.6V26.6H167.2z"/>
	<path fill="#339933" d="M187.2,26.6V29h-6.8v2.8h6.2v2.2h-6.2v3.2h6.9v2.4h-9.8V26.6H187.2z"/>
	<path fill="#339933" d="M198.7,26.6V29h-6.8v2.8h6.2v2.2h-6.2v3.2h6.9v2.4h-9.8V26.6H198.7z"/>
	<path fill="#339933" d="M207.5,26.6c0.6,0,1.1,0.1,1.6,0.3c0.5,0.2,0.9,0.4,1.2,0.8c0.3,0.3,0.6,0.7,0.8,1.1s0.3,0.9,0.3,1.4
		c0,0.8-0.2,1.4-0.5,2c-0.3,0.6-0.8,1-1.6,1.3v0c0.3,0.1,0.6,0.2,0.9,0.4c0.2,0.2,0.4,0.4,0.6,0.7c0.1,0.3,0.2,0.6,0.3,0.9
		c0.1,0.3,0.1,0.6,0.1,1c0,0.2,0,0.4,0,0.7c0,0.3,0,0.6,0.1,0.8c0,0.3,0.1,0.6,0.1,0.8c0.1,0.3,0.2,0.5,0.3,0.7h-2.8
		c-0.2-0.4-0.3-0.9-0.3-1.5c0-0.6-0.1-1.1-0.2-1.6c-0.1-0.7-0.3-1.2-0.6-1.5c-0.3-0.3-0.8-0.5-1.5-0.5h-2.8v5h-2.8V26.6H207.5z
		 M206.5,32.4c0.6,0,1.1-0.1,1.5-0.4s0.5-0.8,0.5-1.4c0-0.6-0.2-1.1-0.5-1.4c-0.3-0.3-0.8-0.4-1.5-0.4h-3.1v3.6H206.5z"/>
	<path fill="#339933" d="M216,36.7v2.8h-2.8v-2.8H216z"/>
</g>
</svg>
