<?xml version="1.0" encoding="utf-8"?>
<!-- Generator: Adobe Illustrator 26.5.0, SVG Export Plug-In . SVG Version: 6.00 Build 0)  -->
<svg version="1.1" id="Layer_1" xmlns="http://www.w3.org/2000/svg" xmlns:xlink="http://www.w3.org/1999/xlink" x="0px" y="0px"
	 viewBox="0 0 320 50" style="enable-background:new 0 0 320 50;" xml:space="preserve">
<style type="text/css">
	.st0{fill:#339933;}
</style>
<g>
	<path class="st0" d="M17.5,8.1c0.8,0,1.5,0.1,2.1,0.4c0.6,0.2,1.1,0.6,1.4,1c0.4,0.4,0.6,0.8,0.8,1.4s0.2,1,0.2,1.6
		c0,0.5-0.1,1.1-0.2,1.6s-0.4,1-0.8,1.4s-0.8,0.7-1.4,1c-0.6,0.2-1.3,0.4-2.1,0.4h-3.1v4.7h-2.9V8.1H17.5z M16.7,14.4
		c0.3,0,0.7,0,1-0.1s0.6-0.1,0.8-0.3c0.2-0.1,0.4-0.3,0.6-0.6c0.1-0.3,0.2-0.6,0.2-1c0-0.4-0.1-0.8-0.2-1c-0.1-0.3-0.3-0.5-0.6-0.6
		c-0.2-0.1-0.5-0.2-0.8-0.3s-0.6-0.1-1-0.1h-2.3v4H16.7z"/>
	<path class="st0" d="M26.1,11.8v1.8h0c0.1-0.3,0.3-0.6,0.5-0.8c0.2-0.3,0.4-0.5,0.7-0.6c0.3-0.2,0.6-0.3,0.9-0.4
		c0.3-0.1,0.6-0.1,1-0.1c0.2,0,0.4,0,0.6,0.1v2.4c-0.1,0-0.3,0-0.4-0.1c-0.2,0-0.3,0-0.5,0c-0.5,0-0.9,0.1-1.2,0.2
		c-0.3,0.2-0.6,0.4-0.8,0.7c-0.2,0.3-0.3,0.6-0.4,1c-0.1,0.4-0.1,0.8-0.1,1.2v4.3h-2.6v-9.6H26.1z"/>
	<path class="st0" d="M30.7,14.7c0-0.6,0.2-1.1,0.5-1.5c0.3-0.4,0.6-0.7,1-1c0.4-0.2,0.9-0.4,1.4-0.5c0.5-0.1,1.1-0.2,1.6-0.2
		c0.5,0,1,0,1.5,0.1c0.5,0.1,0.9,0.2,1.4,0.4c0.4,0.2,0.7,0.5,1,0.8c0.3,0.4,0.4,0.8,0.4,1.4v5c0,0.4,0,0.8,0.1,1.2
		c0,0.4,0.1,0.7,0.3,0.9H37c0-0.1-0.1-0.3-0.1-0.5c0-0.2-0.1-0.3-0.1-0.5c-0.4,0.4-0.9,0.7-1.5,0.9c-0.6,0.2-1.1,0.3-1.7,0.3
		c-0.5,0-0.9-0.1-1.3-0.2c-0.4-0.1-0.7-0.3-1-0.5c-0.3-0.2-0.5-0.5-0.7-0.9c-0.2-0.4-0.2-0.8-0.2-1.3c0-0.5,0.1-1,0.3-1.3
		c0.2-0.4,0.4-0.6,0.7-0.8c0.3-0.2,0.6-0.4,1-0.5c0.4-0.1,0.8-0.2,1.2-0.2c0.4-0.1,0.8-0.1,1.2-0.1c0.4,0,0.7-0.1,1-0.2
		c0.3-0.1,0.5-0.2,0.7-0.3c0.2-0.1,0.3-0.3,0.2-0.6c0-0.3,0-0.5-0.1-0.7c-0.1-0.2-0.2-0.3-0.4-0.4c-0.2-0.1-0.3-0.2-0.5-0.2
		s-0.4,0-0.7,0c-0.5,0-0.9,0.1-1.2,0.3c-0.3,0.2-0.5,0.6-0.5,1.1H30.7z M36.7,16.7c-0.1,0.1-0.2,0.2-0.4,0.2S36,17,35.8,17
		c-0.2,0-0.4,0.1-0.6,0.1c-0.2,0-0.4,0.1-0.6,0.1c-0.2,0-0.4,0.1-0.6,0.1c-0.2,0.1-0.4,0.1-0.5,0.2c-0.1,0.1-0.3,0.2-0.3,0.4
		C33,18.2,33,18.4,33,18.6c0,0.2,0,0.4,0.1,0.6c0.1,0.2,0.2,0.3,0.4,0.4c0.1,0.1,0.3,0.2,0.5,0.2c0.2,0,0.4,0.1,0.6,0.1
		c0.5,0,0.9-0.1,1.2-0.3s0.5-0.4,0.6-0.6c0.1-0.2,0.2-0.5,0.2-0.7s0-0.4,0-0.6V16.7z"/>
	<path class="st0" d="M46,13.5c-0.4,0-0.8,0.1-1.1,0.3c-0.3,0.2-0.5,0.4-0.7,0.7c-0.2,0.3-0.3,0.6-0.4,1c-0.1,0.4-0.1,0.7-0.1,1.1
		c0,0.3,0,0.7,0.1,1.1c0.1,0.4,0.2,0.7,0.4,1c0.2,0.3,0.4,0.5,0.7,0.7s0.6,0.3,1,0.3c0.6,0,1.1-0.2,1.5-0.5c0.3-0.4,0.6-0.8,0.6-1.4
		h2.5c-0.2,1.3-0.7,2.2-1.5,2.9s-1.9,1-3.1,1c-0.7,0-1.4-0.1-2-0.4c-0.6-0.2-1.1-0.6-1.5-1c-0.4-0.4-0.7-0.9-1-1.5
		c-0.2-0.6-0.4-1.3-0.4-2c0-0.7,0.1-1.4,0.3-2.1c0.2-0.6,0.5-1.2,1-1.6c0.4-0.5,0.9-0.8,1.5-1.1c0.6-0.3,1.3-0.4,2.1-0.4
		c0.6,0,1.1,0.1,1.6,0.2s1,0.4,1.4,0.7c0.4,0.3,0.7,0.7,1,1.1c0.3,0.5,0.4,1,0.4,1.6h-2.6C47.7,14.1,47.1,13.5,46,13.5z"/>
	<path class="st0" d="M57.3,11.8v1.8h-1.9v4.7c0,0.4,0.1,0.7,0.2,0.9c0.1,0.1,0.4,0.2,0.9,0.2c0.1,0,0.3,0,0.4,0s0.3,0,0.4-0.1v2
		c-0.2,0-0.5,0.1-0.7,0.1c-0.3,0-0.5,0-0.8,0c-0.4,0-0.8,0-1.2-0.1s-0.7-0.2-1-0.3c-0.3-0.2-0.5-0.4-0.7-0.7s-0.2-0.7-0.2-1.2v-5.6
		h-1.6v-1.8h1.6V8.9h2.6v2.9H57.3z"/>
	<path class="st0" d="M58.6,10.3V8.1h2.6v2.2H58.6z M61.2,11.8v9.6h-2.6v-9.6H61.2z"/>
	<path class="st0" d="M67.9,13.5c-0.4,0-0.8,0.1-1.1,0.3c-0.3,0.2-0.5,0.4-0.7,0.7c-0.2,0.3-0.3,0.6-0.4,1c-0.1,0.4-0.1,0.7-0.1,1.1
		c0,0.3,0,0.7,0.1,1.1c0.1,0.4,0.2,0.7,0.4,1c0.2,0.3,0.4,0.5,0.7,0.7s0.6,0.3,1,0.3c0.6,0,1.1-0.2,1.5-0.5c0.3-0.4,0.6-0.8,0.6-1.4
		h2.5c-0.2,1.3-0.7,2.2-1.5,2.9s-1.9,1-3.1,1c-0.7,0-1.4-0.1-2-0.4c-0.6-0.2-1.1-0.6-1.5-1c-0.4-0.4-0.7-0.9-1-1.5
		c-0.2-0.6-0.4-1.3-0.4-2c0-0.7,0.1-1.4,0.3-2.1c0.2-0.6,0.5-1.2,1-1.6c0.4-0.5,0.9-0.8,1.5-1.1c0.6-0.3,1.3-0.4,2.1-0.4
		c0.6,0,1.1,0.1,1.6,0.2s1,0.4,1.4,0.7c0.4,0.3,0.7,0.7,1,1.1c0.3,0.5,0.4,1,0.4,1.6h-2.6C69.6,14.1,69,13.5,67.9,13.5z"/>
	<path class="st0" d="M73.8,14.7c0-0.6,0.2-1.1,0.5-1.5c0.3-0.4,0.6-0.7,1-1c0.4-0.2,0.9-0.4,1.4-0.5c0.5-0.1,1.1-0.2,1.6-0.2
		c0.5,0,1,0,1.5,0.1c0.5,0.1,0.9,0.2,1.4,0.4c0.4,0.2,0.7,0.5,1,0.8c0.3,0.4,0.4,0.8,0.4,1.4v5c0,0.4,0,0.8,0.1,1.2
		c0,0.4,0.1,0.7,0.3,0.9h-2.7c0-0.1-0.1-0.3-0.1-0.5c0-0.2-0.1-0.3-0.1-0.5c-0.4,0.4-0.9,0.7-1.5,0.9c-0.6,0.2-1.1,0.3-1.7,0.3
		c-0.5,0-0.9-0.1-1.3-0.2c-0.4-0.1-0.7-0.3-1-0.5c-0.3-0.2-0.5-0.5-0.7-0.9c-0.2-0.4-0.2-0.8-0.2-1.3c0-0.5,0.1-1,0.3-1.3
		c0.2-0.4,0.4-0.6,0.7-0.8c0.3-0.2,0.6-0.4,1-0.5c0.4-0.1,0.8-0.2,1.2-0.2c0.4-0.1,0.8-0.1,1.2-0.1c0.4,0,0.7-0.1,1-0.2
		c0.3-0.1,0.5-0.2,0.7-0.3c0.2-0.1,0.3-0.3,0.2-0.6c0-0.3,0-0.5-0.1-0.7c-0.1-0.2-0.2-0.3-0.4-0.4c-0.2-0.1-0.3-0.2-0.5-0.2
		s-0.4,0-0.7,0c-0.5,0-0.9,0.1-1.2,0.3c-0.3,0.2-0.5,0.6-0.5,1.1H73.8z M79.9,16.7c-0.1,0.1-0.2,0.2-0.4,0.2S79.1,17,78.9,17
		c-0.2,0-0.4,0.1-0.6,0.1c-0.2,0-0.4,0.1-0.6,0.1c-0.2,0-0.4,0.1-0.6,0.1c-0.2,0.1-0.4,0.1-0.5,0.2c-0.1,0.1-0.3,0.2-0.3,0.4
		c-0.1,0.2-0.1,0.4-0.1,0.6c0,0.2,0,0.4,0.1,0.6c0.1,0.2,0.2,0.3,0.4,0.4c0.1,0.1,0.3,0.2,0.5,0.2c0.2,0,0.4,0.1,0.6,0.1
		c0.5,0,0.9-0.1,1.2-0.3s0.5-0.4,0.6-0.6c0.1-0.2,0.2-0.5,0.2-0.7s0-0.4,0-0.6V16.7z"/>
	<path class="st0" d="M87.2,8.1v13.2h-2.6V8.1H87.2z"/>
	<path class="st0" d="M104.4,21.3l-2.2-9h0l-2.2,9H97L93.5,8.1h2.9l2.1,9h0l2.3-9h2.7l2.3,9.1h0l2.2-9.1h2.8l-3.6,13.2H104.4z"/>
	<path class="st0" d="M112,10.3V8.1h2.6v2.2H112z M114.6,11.8v9.6H112v-9.6H114.6z"/>
	<path class="st0" d="M118.9,19c0.1,0.2,0.3,0.4,0.5,0.5c0.2,0.1,0.4,0.2,0.6,0.3s0.5,0.1,0.7,0.1c0.2,0,0.4,0,0.6-0.1
		c0.2,0,0.4-0.1,0.6-0.2c0.2-0.1,0.3-0.2,0.4-0.4s0.2-0.3,0.2-0.6c0-0.4-0.3-0.7-0.8-0.9c-0.5-0.2-1.3-0.4-2.2-0.6
		c-0.4-0.1-0.8-0.2-1.1-0.3c-0.4-0.1-0.7-0.3-1-0.5c-0.3-0.2-0.5-0.4-0.7-0.7c-0.2-0.3-0.3-0.6-0.3-1.1c0-0.6,0.1-1.1,0.4-1.5
		c0.2-0.4,0.6-0.7,1-0.9c0.4-0.2,0.8-0.4,1.3-0.5c0.5-0.1,1-0.1,1.5-0.1s1,0,1.5,0.1s0.9,0.3,1.3,0.5s0.7,0.5,1,0.9s0.4,0.9,0.5,1.5
		h-2.5c0-0.5-0.2-0.8-0.6-1c-0.3-0.2-0.8-0.3-1.2-0.3c-0.1,0-0.3,0-0.5,0c-0.2,0-0.3,0.1-0.5,0.1c-0.1,0.1-0.3,0.2-0.4,0.3
		c-0.1,0.1-0.1,0.3-0.1,0.5c0,0.2,0.1,0.4,0.3,0.6c0.2,0.1,0.4,0.3,0.7,0.4c0.3,0.1,0.6,0.2,1,0.2c0.4,0.1,0.7,0.2,1.1,0.2
		c0.4,0.1,0.8,0.2,1.1,0.3c0.4,0.1,0.7,0.3,1,0.5c0.3,0.2,0.5,0.5,0.7,0.8c0.2,0.3,0.3,0.7,0.3,1.1c0,0.6-0.1,1.2-0.4,1.6
		s-0.6,0.8-1,1c-0.4,0.3-0.9,0.4-1.4,0.5c-0.5,0.1-1.1,0.2-1.6,0.2c-0.6,0-1.1-0.1-1.6-0.2c-0.5-0.1-1-0.3-1.4-0.6
		c-0.4-0.3-0.8-0.6-1-1c-0.3-0.4-0.4-1-0.4-1.6h2.5C118.7,18.5,118.8,18.8,118.9,19z"/>
	<path class="st0" d="M133.4,20.1c-0.3,0.5-0.7,0.9-1.2,1.1s-1.1,0.3-1.7,0.3c-0.7,0-1.3-0.1-1.9-0.4c-0.5-0.3-1-0.7-1.3-1.1
		c-0.4-0.5-0.6-1-0.8-1.6c-0.2-0.6-0.3-1.3-0.3-1.9c0-0.6,0.1-1.3,0.3-1.9c0.2-0.6,0.4-1.1,0.8-1.6c0.4-0.5,0.8-0.8,1.3-1.1
		s1.1-0.4,1.9-0.4c0.6,0,1.1,0.1,1.6,0.4c0.5,0.2,0.9,0.6,1.2,1.1h0V8.1h2.6v13.2h-2.5L133.4,20.1L133.4,20.1z M133.3,15.4
		c-0.1-0.4-0.2-0.7-0.4-1c-0.2-0.3-0.4-0.5-0.7-0.7s-0.6-0.3-1.1-0.3c-0.4,0-0.8,0.1-1.1,0.3s-0.5,0.4-0.7,0.7s-0.3,0.6-0.4,1
		c-0.1,0.4-0.1,0.7-0.1,1.1c0,0.4,0,0.7,0.1,1.1c0.1,0.4,0.2,0.7,0.4,1c0.2,0.3,0.4,0.5,0.7,0.7c0.3,0.2,0.6,0.3,1,0.3
		c0.4,0,0.8-0.1,1.1-0.3c0.3-0.2,0.5-0.4,0.7-0.7c0.2-0.3,0.3-0.6,0.4-1c0.1-0.4,0.1-0.8,0.1-1.1C133.4,16.1,133.4,15.8,133.3,15.4z
		"/>
	<path class="st0" d="M138,14.5c0.2-0.6,0.6-1.2,1-1.6c0.4-0.4,0.9-0.8,1.6-1c0.6-0.2,1.3-0.4,2-0.4c0.8,0,1.4,0.1,2,0.4
		c0.6,0.2,1.1,0.6,1.6,1c0.4,0.4,0.8,1,1,1.6c0.2,0.6,0.4,1.3,0.4,2.1s-0.1,1.5-0.4,2.1c-0.2,0.6-0.6,1.1-1,1.6s-1,0.8-1.6,1
		c-0.6,0.2-1.3,0.4-2,0.4c-0.8,0-1.4-0.1-2-0.4c-0.6-0.2-1.1-0.6-1.6-1c-0.4-0.4-0.8-1-1-1.6c-0.2-0.6-0.4-1.3-0.4-2.1
		S137.7,15.1,138,14.5z M140.4,17.7c0.1,0.4,0.2,0.7,0.4,1c0.2,0.3,0.4,0.5,0.7,0.7c0.3,0.2,0.7,0.3,1.1,0.3s0.8-0.1,1.1-0.3
		c0.3-0.2,0.5-0.4,0.7-0.7c0.2-0.3,0.3-0.6,0.4-1c0.1-0.4,0.1-0.7,0.1-1.1s0-0.8-0.1-1.1c-0.1-0.4-0.2-0.7-0.4-1
		c-0.2-0.3-0.4-0.5-0.7-0.7s-0.7-0.3-1.1-0.3s-0.8,0.1-1.1,0.3c-0.3,0.2-0.5,0.4-0.7,0.7c-0.2,0.3-0.3,0.6-0.4,1
		c-0.1,0.4-0.1,0.7-0.1,1.1S140.3,17.3,140.4,17.7z"/>
	<path class="st0" d="M151.8,11.8v1.3h0c0.3-0.5,0.8-0.9,1.2-1.1c0.5-0.3,1-0.4,1.7-0.4c0.6,0,1.2,0.1,1.7,0.4
		c0.5,0.2,0.9,0.6,1.1,1.2c0.3-0.4,0.7-0.8,1.2-1.1s1.1-0.5,1.7-0.5c0.5,0,1,0.1,1.4,0.2c0.4,0.1,0.8,0.3,1.1,0.6
		c0.3,0.3,0.5,0.6,0.7,1.1c0.2,0.4,0.3,1,0.3,1.6v6.4h-2.6v-5.4c0-0.3,0-0.6,0-0.9c0-0.3-0.1-0.5-0.2-0.7c-0.1-0.2-0.3-0.4-0.5-0.5
		c-0.2-0.1-0.5-0.2-0.9-0.2s-0.7,0.1-0.9,0.2c-0.2,0.1-0.4,0.3-0.5,0.6c-0.1,0.2-0.2,0.5-0.3,0.8c0,0.3-0.1,0.6-0.1,0.9v5.3h-2.6V16
		c0-0.3,0-0.6,0-0.8c0-0.3-0.1-0.5-0.2-0.8c-0.1-0.2-0.2-0.4-0.5-0.6s-0.5-0.2-1-0.2c-0.1,0-0.3,0-0.5,0.1c-0.2,0.1-0.4,0.2-0.6,0.3
		s-0.4,0.4-0.5,0.7c-0.1,0.3-0.2,0.7-0.2,1.1v5.5h-2.6v-9.6H151.8z"/>
</g>
<g>
	<path class="st0" d="M10.2,32v-1.8h1.6v-0.7c0-0.9,0.3-1.5,0.8-2.1c0.5-0.5,1.3-0.8,2.4-0.8c0.2,0,0.5,0,0.7,0c0.2,0,0.5,0,0.7,0v2
		c-0.3,0-0.6-0.1-1-0.1c-0.4,0-0.6,0.1-0.8,0.2c-0.2,0.2-0.2,0.4-0.2,0.8v0.6h1.8V32h-1.8v7.8h-2.6V32H10.2z"/>
	<path class="st0" d="M17.4,33c0.2-0.6,0.6-1.2,1-1.6c0.4-0.4,0.9-0.8,1.6-1c0.6-0.2,1.3-0.4,2-0.4c0.8,0,1.4,0.1,2,0.4
		c0.6,0.2,1.1,0.6,1.6,1c0.4,0.4,0.8,1,1,1.6c0.2,0.6,0.4,1.3,0.4,2.1c0,0.8-0.1,1.5-0.4,2.1c-0.2,0.6-0.6,1.1-1,1.6s-1,0.8-1.6,1
		c-0.6,0.2-1.3,0.4-2,0.4c-0.8,0-1.4-0.1-2-0.4c-0.6-0.2-1.1-0.6-1.6-1c-0.4-0.4-0.8-1-1-1.6c-0.2-0.6-0.4-1.3-0.4-2.1
		C17.1,34.3,17.2,33.6,17.4,33z M19.8,36.2c0.1,0.4,0.2,0.7,0.4,1c0.2,0.3,0.4,0.5,0.7,0.7c0.3,0.2,0.7,0.3,1.1,0.3s0.8-0.1,1.1-0.3
		s0.5-0.4,0.7-0.7c0.2-0.3,0.3-0.6,0.4-1c0.1-0.4,0.1-0.7,0.1-1.1c0-0.4,0-0.8-0.1-1.1c-0.1-0.4-0.2-0.7-0.4-1
		c-0.2-0.3-0.4-0.5-0.7-0.7C22.9,32.1,22.5,32,22,32s-0.8,0.1-1.1,0.3c-0.3,0.2-0.5,0.4-0.7,0.7c-0.2,0.3-0.3,0.6-0.4,1
		c-0.1,0.4-0.1,0.7-0.1,1.1C19.7,35.5,19.8,35.8,19.8,36.2z"/>
	<path class="st0" d="M31.2,30.3v1.8h0c0.1-0.3,0.3-0.6,0.5-0.8c0.2-0.3,0.4-0.5,0.7-0.6s0.6-0.3,0.9-0.4c0.3-0.1,0.6-0.1,1-0.1
		c0.2,0,0.4,0,0.6,0.1v2.4c-0.1,0-0.3,0-0.4-0.1s-0.3,0-0.5,0c-0.5,0-0.9,0.1-1.2,0.2s-0.6,0.4-0.8,0.7c-0.2,0.3-0.3,0.6-0.4,1
		s-0.1,0.8-0.1,1.2v4.3h-2.6v-9.6H31.2z"/>
	<path class="st0" d="M47,26.6c0.9,0,1.6,0.1,2.4,0.4s1.4,0.7,1.9,1.2s1,1.2,1.3,2c0.3,0.8,0.5,1.8,0.5,2.9c0,1-0.1,1.9-0.4,2.7
		c-0.2,0.8-0.6,1.5-1.1,2.1c-0.5,0.6-1.1,1.1-1.9,1.4c-0.7,0.3-1.6,0.5-2.6,0.5h-5.7V26.6H47z M46.8,37.4c0.4,0,0.8-0.1,1.2-0.2
		c0.4-0.1,0.7-0.4,1.1-0.7s0.6-0.7,0.7-1.2s0.3-1.1,0.3-1.9c0-0.7-0.1-1.3-0.2-1.8c-0.1-0.5-0.3-1-0.6-1.4c-0.3-0.4-0.7-0.7-1.2-0.9
		c-0.5-0.2-1.1-0.3-1.8-0.3h-2.1v8.3H46.8z"/>
	<path class="st0" d="M57.6,37.6c0.4,0.4,1,0.6,1.7,0.6c0.5,0,1-0.1,1.4-0.4s0.6-0.5,0.7-0.8h2.3c-0.4,1.1-0.9,2-1.7,2.5
		s-1.7,0.7-2.8,0.7c-0.8,0-1.4-0.1-2-0.4c-0.6-0.2-1.1-0.6-1.5-1c-0.4-0.4-0.7-1-1-1.6c-0.2-0.6-0.3-1.3-0.3-2c0-0.7,0.1-1.4,0.4-2
		c0.2-0.6,0.6-1.1,1-1.6c0.4-0.5,0.9-0.8,1.5-1.1c0.6-0.3,1.3-0.4,2-0.4c0.8,0,1.5,0.2,2.1,0.5s1.1,0.7,1.5,1.3
		c0.4,0.5,0.7,1.1,0.8,1.8c0.2,0.7,0.2,1.4,0.2,2.1h-6.9C56.9,36.6,57.2,37.2,57.6,37.6z M60.5,32.5c-0.3-0.3-0.8-0.5-1.4-0.5
		c-0.4,0-0.8,0.1-1,0.2s-0.5,0.3-0.7,0.5c-0.2,0.2-0.3,0.4-0.4,0.7c-0.1,0.2-0.1,0.4-0.1,0.6h4.3C61.1,33.4,60.8,32.9,60.5,32.5z"/>
	<path class="st0" d="M67.9,30.3v1.3h0.1c0.3-0.6,0.8-1,1.3-1.2c0.5-0.3,1.1-0.4,1.6-0.4c0.7,0,1.3,0.1,1.7,0.3
		c0.5,0.2,0.8,0.5,1.1,0.8c0.3,0.3,0.4,0.8,0.5,1.2c0.1,0.5,0.2,1,0.2,1.6v5.9h-2.6v-5.4c0-0.8-0.1-1.4-0.4-1.8
		c-0.2-0.4-0.7-0.6-1.3-0.6c-0.7,0-1.2,0.2-1.6,0.6S68,33.9,68,34.8v5h-2.6v-9.6H67.9z"/>
	<path class="st0" d="M81.6,30.3V32h-1.9v4.7c0,0.4,0.1,0.7,0.2,0.9c0.1,0.1,0.4,0.2,0.9,0.2c0.1,0,0.3,0,0.4,0c0.1,0,0.3,0,0.4-0.1
		v2c-0.2,0-0.5,0.1-0.7,0.1c-0.3,0-0.5,0-0.8,0c-0.4,0-0.8,0-1.2-0.1c-0.4-0.1-0.7-0.2-1-0.3c-0.3-0.2-0.5-0.4-0.7-0.7
		S77,38.2,77,37.7V32h-1.6v-1.8H77v-2.9h2.6v2.9H81.6z"/>
	<path class="st0" d="M82.9,28.8v-2.2h2.6v2.2H82.9z M85.5,30.3v9.6h-2.6v-9.6H85.5z"/>
	<path class="st0" d="M89.8,37.5c0.1,0.2,0.3,0.4,0.5,0.5c0.2,0.1,0.4,0.2,0.6,0.3s0.5,0.1,0.7,0.1c0.2,0,0.4,0,0.6-0.1
		c0.2,0,0.4-0.1,0.6-0.2s0.3-0.2,0.4-0.4s0.2-0.3,0.2-0.6c0-0.4-0.3-0.7-0.8-0.9c-0.5-0.2-1.3-0.4-2.2-0.6c-0.4-0.1-0.8-0.2-1.1-0.3
		c-0.4-0.1-0.7-0.3-1-0.5c-0.3-0.2-0.5-0.4-0.7-0.7c-0.2-0.3-0.3-0.6-0.3-1.1c0-0.6,0.1-1.1,0.4-1.5c0.2-0.4,0.6-0.7,1-0.9
		c0.4-0.2,0.8-0.4,1.3-0.5s1-0.1,1.5-0.1s1,0,1.5,0.1c0.5,0.1,0.9,0.3,1.3,0.5s0.7,0.5,1,0.9c0.3,0.4,0.4,0.9,0.5,1.5h-2.5
		c0-0.5-0.2-0.8-0.6-1s-0.8-0.3-1.2-0.3c-0.1,0-0.3,0-0.5,0c-0.2,0-0.3,0.1-0.5,0.1c-0.1,0.1-0.3,0.2-0.4,0.3
		c-0.1,0.1-0.1,0.3-0.1,0.5c0,0.2,0.1,0.4,0.3,0.6c0.2,0.1,0.4,0.3,0.7,0.4c0.3,0.1,0.6,0.2,1,0.2c0.4,0.1,0.7,0.2,1.1,0.2
		c0.4,0.1,0.8,0.2,1.1,0.3c0.4,0.1,0.7,0.3,1,0.5c0.3,0.2,0.5,0.5,0.7,0.8c0.2,0.3,0.3,0.7,0.3,1.1c0,0.6-0.1,1.2-0.4,1.6
		s-0.6,0.8-1,1c-0.4,0.3-0.9,0.4-1.4,0.5c-0.5,0.1-1.1,0.2-1.6,0.2c-0.6,0-1.1-0.1-1.6-0.2c-0.5-0.1-1-0.3-1.4-0.6
		c-0.4-0.3-0.8-0.6-1-1s-0.4-1-0.4-1.6h2.5C89.7,37,89.7,37.3,89.8,37.5z"/>
	<path class="st0" d="M102.8,30.3V32h-1.9v4.7c0,0.4,0.1,0.7,0.2,0.9c0.1,0.1,0.4,0.2,0.9,0.2c0.1,0,0.3,0,0.4,0
		c0.1,0,0.3,0,0.4-0.1v2c-0.2,0-0.5,0.1-0.7,0.1c-0.3,0-0.5,0-0.8,0c-0.4,0-0.8,0-1.2-0.1c-0.4-0.1-0.7-0.2-1-0.3
		c-0.3-0.2-0.5-0.4-0.7-0.7s-0.2-0.7-0.2-1.2V32h-1.6v-1.8h1.6v-2.9h2.6v2.9H102.8z"/>
	<path class="st0" d="M106.3,37.5c0.1,0.2,0.3,0.4,0.5,0.5c0.2,0.1,0.4,0.2,0.6,0.3s0.5,0.1,0.7,0.1c0.2,0,0.4,0,0.6-0.1
		c0.2,0,0.4-0.1,0.6-0.2s0.3-0.2,0.4-0.4s0.2-0.3,0.2-0.6c0-0.4-0.3-0.7-0.8-0.9c-0.5-0.2-1.3-0.4-2.2-0.6c-0.4-0.1-0.8-0.2-1.1-0.3
		c-0.4-0.1-0.7-0.3-1-0.5c-0.3-0.2-0.5-0.4-0.7-0.7c-0.2-0.3-0.3-0.6-0.3-1.1c0-0.6,0.1-1.1,0.4-1.5c0.2-0.4,0.6-0.7,1-0.9
		c0.4-0.2,0.8-0.4,1.3-0.5s1-0.1,1.5-0.1s1,0,1.5,0.1c0.5,0.1,0.9,0.3,1.3,0.5s0.7,0.5,1,0.9c0.3,0.4,0.4,0.9,0.5,1.5h-2.5
		c0-0.5-0.2-0.8-0.6-1s-0.8-0.3-1.2-0.3c-0.1,0-0.3,0-0.5,0c-0.2,0-0.3,0.1-0.5,0.1c-0.1,0.1-0.3,0.2-0.4,0.3
		c-0.1,0.1-0.1,0.3-0.1,0.5c0,0.2,0.1,0.4,0.3,0.6c0.2,0.1,0.4,0.3,0.7,0.4c0.3,0.1,0.6,0.2,1,0.2c0.4,0.1,0.7,0.2,1.1,0.2
		c0.4,0.1,0.8,0.2,1.1,0.3c0.4,0.1,0.7,0.3,1,0.5c0.3,0.2,0.5,0.5,0.7,0.8c0.2,0.3,0.3,0.7,0.3,1.1c0,0.6-0.1,1.2-0.4,1.6
		s-0.6,0.8-1,1c-0.4,0.3-0.9,0.4-1.4,0.5c-0.5,0.1-1.1,0.2-1.6,0.2c-0.6,0-1.1-0.1-1.6-0.2c-0.5-0.1-1-0.3-1.4-0.6
		c-0.4-0.3-0.8-0.6-1-1s-0.4-1-0.4-1.6h2.5C106.1,37,106.2,37.3,106.3,37.5z"/>
</g>
</svg>
