<?xml version="1.0" encoding="utf-8"?>
<!-- Generator: Adobe Illustrator 26.5.0, SVG Export Plug-In . SVG Version: 6.00 Build 0)  -->
<svg version="1.1" id="Layer_1" xmlns="http://www.w3.org/2000/svg" xmlns:xlink="http://www.w3.org/1999/xlink" x="0px" y="0px"
	 viewBox="0 0 320 50" style="enable-background:new 0 0 320 50;" xml:space="preserve">
<style type="text/css">
	.st0{clip-path:url(#SVGID_00000063626511156343010000000013376256390063146132_);fill:#231F20;}
	.st1{clip-path:url(#SVGID_00000063626511156343010000000013376256390063146132_);fill:#00B2EE;}
</style>
<g>
	<defs>
		<rect id="SVGID_1_" x="40" y="13.6" width="35" height="11.9"/>
	</defs>
	<clipPath id="SVGID_00000044893023288732850520000007243919907809042344_">
		<use xlink:href="#SVGID_1_"  style="overflow:visible;"/>
	</clipPath>
	<path style="clip-path:url(#SVGID_00000044893023288732850520000007243919907809042344_);fill:#231F20;" d="M40.2,20h1.9
		c1.5,0,1.8,1,1.8,1.6c0,0.6-0.3,1.6-1.8,1.6h-1v2h-0.9V20z M41.1,22.5H42c0.4,0,0.9-0.2,0.9-0.9c0-0.7-0.4-0.9-0.9-0.9h-0.9V22.5z"
		/>
	<path style="clip-path:url(#SVGID_00000044893023288732850520000007243919907809042344_);fill:#231F20;" d="M44.4,21.4h0.8v0.7h0
		c0.1-0.4,0.6-0.8,1.1-0.8c0.2,0,0.2,0,0.3,0v0.8c-0.1,0-0.2,0-0.4,0c-0.6,0-1,0.5-1,1.3v1.8h-0.8V21.4z"/>
	<path style="clip-path:url(#SVGID_00000044893023288732850520000007243919907809042344_);fill:#231F20;" d="M46.7,23.3
		c0-1.2,0.7-2,1.9-2s1.9,0.8,1.9,2c0,1.2-0.7,2-1.9,2S46.7,24.5,46.7,23.3 M49.7,23.3c0-0.6-0.3-1.3-1.1-1.3s-1.1,0.7-1.1,1.3
		c0,0.7,0.3,1.3,1.1,1.3S49.7,24,49.7,23.3"/>
	<path style="clip-path:url(#SVGID_00000044893023288732850520000007243919907809042344_);fill:#231F20;" d="M50.7,21.4h0.7v-1.1
		h0.8v1.1h0.8v0.6h-0.8v2c0,0.3,0,0.5,0.4,0.5c0.1,0,0.2,0,0.4,0v0.6c-0.2,0-0.4,0-0.5,0c-0.9,0-1-0.3-1-1v-2.2h-0.6V21.4z"/>
	<path style="clip-path:url(#SVGID_00000044893023288732850520000007243919907809042344_);fill:#231F20;" d="M54.1,23.5
		c0,0.6,0.3,1.1,1,1.1c0.5,0,0.8-0.2,0.9-0.6h0.8c-0.2,0.8-0.9,1.3-1.7,1.3c-1.2,0-1.8-0.8-1.8-2c0-1.1,0.7-2,1.8-2
		c1.2,0,1.9,1.1,1.8,2.2H54.1z M56,23c0-0.5-0.4-1-0.9-1c-0.6,0-1,0.4-1,1H56z"/>
	<path style="clip-path:url(#SVGID_00000044893023288732850520000007243919907809042344_);fill:#231F20;" d="M60,22.7
		c-0.1-0.5-0.4-0.7-0.9-0.7c-0.4,0-1,0.2-1,1.4c0,0.6,0.3,1.3,1,1.3c0.5,0,0.8-0.3,0.9-0.9h0.8c-0.2,1-0.8,1.5-1.7,1.5
		c-1.2,0-1.8-0.8-1.8-1.9c0-1.1,0.6-2,1.9-2c0.9,0,1.6,0.4,1.7,1.4H60z"/>
	<path style="clip-path:url(#SVGID_00000044893023288732850520000007243919907809042344_);fill:#231F20;" d="M61,21.4h0.6v-1.1h0.8
		v1.1h0.8v0.6h-0.8v2c0,0.3,0,0.5,0.4,0.5c0.1,0,0.2,0,0.3,0v0.6c-0.2,0-0.4,0-0.5,0c-0.9,0-1-0.3-1-1v-2.2H61V21.4z"/>
	<path style="clip-path:url(#SVGID_00000044893023288732850520000007243919907809042344_);fill:#231F20;" d="M64.2,20h0.8v0.8h-0.8
		V20z M64.2,21.4h0.8v3.8h-0.8V21.4z"/>
	<polygon style="clip-path:url(#SVGID_00000044893023288732850520000007243919907809042344_);fill:#231F20;" points="65.6,21.4 
		66.6,21.4 67.7,24.3 67.7,24.3 68.9,21.4 69.7,21.4 68.2,25.2 67.2,25.2 	"/>
	<path style="clip-path:url(#SVGID_00000044893023288732850520000007243919907809042344_);fill:#231F20;" d="M70.8,23.5
		c0,0.6,0.3,1.1,1,1.1c0.5,0,0.8-0.2,0.9-0.6h0.8c-0.2,0.8-0.9,1.3-1.7,1.3c-1.2,0-1.8-0.8-1.8-2c0-1.1,0.7-2,1.8-2
		c1.2,0,1.9,1.1,1.8,2.2H70.8z M72.7,23c0-0.5-0.4-1-0.9-1c-0.6,0-1,0.4-1,1H72.7z"/>
	<path style="clip-path:url(#SVGID_00000044893023288732850520000007243919907809042344_);fill:#00B2EE;" d="M62.6,19.1
		c-0.6-2.1-2.2-3.7-4.3-4.2c-0.2-0.6-0.8-1.1-1.5-1.1s-1.3,0.5-1.5,1.1c-2.1,0.5-3.7,2.1-4.3,4.2l-0.1,0.2h1.3l0-0.1
		c0.5-1.5,1.7-2.7,3.2-3.1c0.3,0.5,0.8,0.8,1.3,0.8s1.1-0.3,1.3-0.8c1.5,0.4,2.7,1.6,3.2,3.1l0,0.1h1.3L62.6,19.1z"/>
	<path style="clip-path:url(#SVGID_00000044893023288732850520000007243919907809042344_);fill:#231F20;" d="M74.4,24.6
		c0.2,0,0.4,0.2,0.4,0.4s-0.2,0.4-0.4,0.4c-0.2,0-0.4-0.2-0.4-0.4S74.2,24.6,74.4,24.6 M74.7,24.9c0-0.2-0.1-0.3-0.3-0.3
		s-0.3,0.1-0.3,0.3c0,0.2,0.1,0.3,0.3,0.3S74.7,25.1,74.7,24.9 M74.3,24.7h0.2c0.1,0,0.1,0,0.1,0.1c0,0.1-0.1,0.1-0.1,0.1l0.1,0.2
		h-0.1L74.4,25h-0.1v0.2h-0.1V24.7z M74.4,24.9c0.1,0,0.1,0,0.1-0.1c0-0.1,0-0.1-0.1-0.1h-0.1L74.4,24.9L74.4,24.9z"/>
</g>
</svg>
