<?xml version="1.0" encoding="utf-8"?>
<!-- Generator: Adobe Illustrator 25.4.1, SVG Export Plug-In . SVG Version: 6.00 Build 0)  -->
<svg version="1.1" id="Layer_1" xmlns="http://www.w3.org/2000/svg" xmlns:xlink="http://www.w3.org/1999/xlink" x="0px" y="0px"
	 viewBox="0 0 728 90" style="enable-background:new 0 0 728 90;" xml:space="preserve">
<g>
	<path d="M32.8,26.3v11.4l10.7-11.4h7.5L40.4,37.2l11.8,16.6h-7.6l-8.3-12.3l-3.5,3.5v8.8h-6V26.3H32.8z"/>
	<path d="M59.8,49c0.8,0.8,2,1.2,3.5,1.2c1.1,0,2.1-0.3,2.8-0.8c0.8-0.6,1.3-1.1,1.5-1.8h4.8c-0.8,2.4-1.9,4.1-3.5,5.1
		c-1.6,1-3.5,1.5-5.8,1.5c-1.6,0-3-0.2-4.2-0.8c-1.3-0.5-2.3-1.2-3.2-2.1c-0.9-0.9-1.5-2-2-3.3c-0.5-1.3-0.7-2.7-0.7-4.2
		c0-1.5,0.2-2.9,0.7-4.2c0.5-1.3,1.2-2.4,2.1-3.3c0.9-0.9,2-1.7,3.2-2.2c1.2-0.5,2.6-0.8,4.1-0.8c1.7,0,3.2,0.3,4.4,1
		c1.3,0.7,2.3,1.5,3.1,2.6c0.8,1.1,1.4,2.4,1.7,3.8c0.4,1.4,0.5,2.9,0.4,4.4H58.5C58.6,46.9,59,48.2,59.8,49z M66,38.6
		c-0.7-0.7-1.6-1.1-3-1.1c-0.9,0-1.6,0.1-2.2,0.4c-0.6,0.3-1,0.7-1.4,1.1c-0.3,0.4-0.6,0.9-0.7,1.4c-0.1,0.5-0.2,0.9-0.2,1.3h8.9
		C67.1,40.3,66.7,39.3,66,38.6z"/>
	<path d="M81.9,49c0.8,0.8,2,1.2,3.5,1.2c1.1,0,2.1-0.3,2.8-0.8c0.8-0.6,1.3-1.1,1.5-1.8h4.8c-0.8,2.4-1.9,4.1-3.5,5.1
		c-1.6,1-3.5,1.5-5.8,1.5c-1.6,0-3-0.2-4.2-0.8c-1.3-0.5-2.3-1.2-3.2-2.1c-0.9-0.9-1.5-2-2-3.3c-0.5-1.3-0.7-2.7-0.7-4.2
		c0-1.5,0.2-2.9,0.7-4.2c0.5-1.3,1.2-2.4,2.1-3.3c0.9-0.9,2-1.7,3.2-2.2c1.2-0.5,2.6-0.8,4.1-0.8c1.7,0,3.2,0.3,4.4,1
		c1.3,0.7,2.3,1.5,3.1,2.6c0.8,1.1,1.4,2.4,1.7,3.8c0.4,1.4,0.5,2.9,0.4,4.4H80.6C80.6,46.9,81.1,48.2,81.9,49z M88.1,38.6
		c-0.7-0.7-1.6-1.1-3-1.1c-0.9,0-1.6,0.1-2.2,0.4c-0.6,0.3-1,0.7-1.4,1.1c-0.3,0.4-0.6,0.9-0.7,1.4c-0.1,0.5-0.2,0.9-0.2,1.3h8.9
		C89.2,40.3,88.7,39.3,88.1,38.6z"/>
	<path d="M103.3,33.9v2.5h0.1c0.7-1.1,1.5-1.9,2.5-2.3c1-0.5,2.2-0.7,3.4-0.7c1.6,0,2.9,0.3,4,0.9c1.1,0.6,2.1,1.4,2.8,2.3
		c0.7,1,1.3,2.1,1.7,3.4c0.4,1.3,0.5,2.6,0.5,4.1c0,1.3-0.2,2.6-0.5,3.8c-0.4,1.2-0.9,2.3-1.6,3.3c-0.7,0.9-1.6,1.7-2.7,2.3
		c-1.1,0.6-2.4,0.8-3.8,0.8c-1.2,0-2.4-0.2-3.4-0.8c-1-0.5-1.9-1.2-2.6-2.2h-0.1v9.4h-5.5V33.9H103.3z M110.4,49.7
		c0.6-0.4,1.1-0.8,1.5-1.4c0.4-0.6,0.6-1.2,0.8-2c0.2-0.8,0.2-1.6,0.2-2.3c0-0.8-0.1-1.6-0.2-2.3c-0.2-0.8-0.4-1.5-0.8-2.1
		c-0.4-0.6-0.9-1.1-1.5-1.5c-0.6-0.4-1.3-0.6-2.2-0.6c-0.9,0-1.6,0.2-2.2,0.6c-0.6,0.4-1.1,0.9-1.5,1.4c-0.4,0.6-0.6,1.3-0.8,2
		c-0.2,0.8-0.2,1.6-0.2,2.4c0,0.8,0.1,1.6,0.2,2.3c0.2,0.8,0.4,1.4,0.8,2c0.4,0.6,0.9,1,1.5,1.4c0.6,0.4,1.4,0.5,2.2,0.5
		C109.1,50.2,109.8,50,110.4,49.7z"/>
	<path d="M150.5,33.7c-0.4-0.6-0.8-1.1-1.3-1.5c-0.5-0.4-1.1-0.8-1.8-1c-0.7-0.2-1.4-0.4-2.1-0.4c-1.4,0-2.5,0.3-3.5,0.8
		c-0.9,0.5-1.7,1.2-2.3,2.1c-0.6,0.9-1,1.9-1.3,3c-0.3,1.1-0.4,2.3-0.4,3.5c0,1.2,0.1,2.3,0.4,3.4c0.3,1.1,0.7,2.1,1.3,2.9
		c0.6,0.9,1.4,1.6,2.3,2.1c0.9,0.5,2.1,0.8,3.5,0.8c1.8,0,3.3-0.6,4.3-1.7c1-1.1,1.7-2.6,1.9-4.5h5.8c-0.2,1.7-0.6,3.3-1.2,4.7
		c-0.6,1.4-1.5,2.6-2.5,3.5c-1.1,1-2.3,1.7-3.7,2.2c-1.4,0.5-3,0.8-4.7,0.8c-2.1,0-4-0.4-5.7-1.1c-1.7-0.7-3.1-1.7-4.2-3
		s-2-2.8-2.7-4.5c-0.6-1.7-0.9-3.6-0.9-5.6c0-2.1,0.3-4,0.9-5.7c0.6-1.8,1.5-3.3,2.7-4.6c1.2-1.3,2.6-2.3,4.2-3.1
		c1.7-0.7,3.6-1.1,5.7-1.1c1.5,0,2.9,0.2,4.3,0.7c1.3,0.4,2.6,1.1,3.6,1.9c1.1,0.8,1.9,1.9,2.6,3.1c0.7,1.2,1.1,2.6,1.3,4.2h-5.8
		C151.1,34.9,150.9,34.2,150.5,33.7z"/>
	<path d="M175.1,26.3l10.3,27.5h-6.3l-2.1-6.1h-10.3l-2.2,6.1h-6.1l10.4-27.5H175.1z M175.4,43.2L172,33.1h-0.1l-3.6,10.1H175.4z"/>
	<path d="M193.8,26.3v22.4h13.4v5.1h-19.4V26.3H193.8z"/>
	<path d="M219,26.3l6.4,18.9h0.1l6.1-18.9h8.5v27.5h-5.7V34.3h-0.1l-6.7,19.5H223l-6.7-19.3h-0.1v19.3h-5.7V26.3H219z"/>
</g>
</svg>
