<?xml version="1.0" encoding="utf-8"?>
<!-- Generator: Adobe Illustrator 25.4.1, SVG Export Plug-In . SVG Version: 6.00 Build 0)  -->
<svg version="1.1" id="Layer_1" xmlns="http://www.w3.org/2000/svg" xmlns:xlink="http://www.w3.org/1999/xlink" x="0px" y="0px"
	 viewBox="0 0 728 90" style="enable-background:new 0 0 728 90;" xml:space="preserve">
<style type="text/css">
	.st0{fill:#349946;}
</style>
<path d="M35.2,23.3L41,39h-3.6l-1.2-3.5h-5.9L29.2,39h-3.5l5.9-15.7H35.2z M35.4,32.9l-2-5.8h0l-2,5.8H35.4z M44.6,27.6v1.6h0.1
	c0.4-0.7,0.9-1.1,1.5-1.4c0.6-0.3,1.3-0.5,1.9-0.5c0.8,0,1.5,0.1,2.1,0.3c0.5,0.2,1,0.5,1.3,0.9c0.3,0.4,0.5,0.9,0.6,1.5
	c0.1,0.6,0.2,1.2,0.2,1.9v7h-3.1v-6.4c0-0.9-0.1-1.6-0.4-2.1c-0.3-0.5-0.8-0.7-1.6-0.7c-0.9,0-1.5,0.3-1.8,0.8
	C45,31,44.8,31.8,44.8,33v6h-3.1V27.6H44.6z M62.3,37.5c-0.4,0.6-0.8,1.1-1.4,1.3c-0.6,0.3-1.3,0.4-2,0.4c-0.9,0-1.6-0.2-2.2-0.5
	C56,38.4,55.4,38,55,37.4c-0.4-0.6-0.7-1.2-0.9-1.9c-0.2-0.7-0.3-1.5-0.3-2.3c0-0.8,0.1-1.5,0.3-2.2c0.2-0.7,0.5-1.3,0.9-1.9
	c0.4-0.5,0.9-1,1.6-1.3c0.6-0.3,1.4-0.5,2.2-0.5c0.7,0,1.3,0.1,1.9,0.4c0.6,0.3,1.1,0.7,1.4,1.3h0v-5.7h3.1V39h-3L62.3,37.5
	L62.3,37.5z M62.2,31.9c-0.1-0.4-0.2-0.8-0.5-1.1c-0.2-0.3-0.5-0.6-0.8-0.8c-0.3-0.2-0.8-0.3-1.3-0.3c-0.5,0-0.9,0.1-1.3,0.3
	c-0.4,0.2-0.6,0.5-0.8,0.8c-0.2,0.3-0.4,0.7-0.5,1.2c-0.1,0.4-0.1,0.9-0.1,1.4c0,0.4,0.1,0.9,0.2,1.3c0.1,0.4,0.3,0.8,0.5,1.2
	c0.2,0.3,0.5,0.6,0.9,0.8c0.3,0.2,0.8,0.3,1.2,0.3c0.5,0,0.9-0.1,1.3-0.3c0.3-0.2,0.6-0.5,0.8-0.8c0.2-0.3,0.4-0.7,0.4-1.2
	s0.1-0.9,0.1-1.4C62.3,32.8,62.3,32.3,62.2,31.9z M71.7,29.7v-2.1h1.9v-0.9c0-1,0.3-1.8,0.9-2.5c0.6-0.6,1.6-1,2.9-1
	c0.3,0,0.6,0,0.8,0c0.3,0,0.6,0,0.8,0.1v2.3c-0.4,0-0.7-0.1-1.1-0.1c-0.4,0-0.7,0.1-0.9,0.3c-0.2,0.2-0.3,0.5-0.3,1v0.7h2.2v2.1
	h-2.2V39h-3.1v-9.3H71.7z M80.8,25.8v-2.6h3.1v2.6H80.8z M83.9,27.6V39h-3.1V27.6H83.9z M88.9,27.6v1.6H89c0.4-0.7,0.9-1.1,1.5-1.4
	c0.6-0.3,1.3-0.5,1.9-0.5c0.8,0,1.5,0.1,2.1,0.3c0.5,0.2,1,0.5,1.3,0.9c0.3,0.4,0.5,0.9,0.6,1.5c0.1,0.6,0.2,1.2,0.2,1.9v7h-3.1
	v-6.4c0-0.9-0.1-1.6-0.4-2.1c-0.3-0.5-0.8-0.7-1.6-0.7c-0.9,0-1.5,0.3-1.8,0.8c-0.4,0.5-0.6,1.3-0.6,2.5v6h-3.1V27.6H88.9z
	 M106.6,37.5c-0.4,0.6-0.8,1.1-1.4,1.3c-0.6,0.3-1.3,0.4-2,0.4c-0.9,0-1.6-0.2-2.2-0.5c-0.6-0.3-1.2-0.8-1.6-1.3
	c-0.4-0.6-0.7-1.2-0.9-1.9c-0.2-0.7-0.3-1.5-0.3-2.3c0-0.8,0.1-1.5,0.3-2.2c0.2-0.7,0.5-1.3,0.9-1.9c0.4-0.5,0.9-1,1.6-1.3
	c0.6-0.3,1.4-0.5,2.2-0.5c0.7,0,1.3,0.1,1.9,0.4c0.6,0.3,1.1,0.7,1.4,1.3h0v-5.7h3.1V39h-3L106.6,37.5L106.6,37.5z M106.5,31.9
	c-0.1-0.4-0.2-0.8-0.5-1.1c-0.2-0.3-0.5-0.6-0.8-0.8c-0.3-0.2-0.8-0.3-1.3-0.3c-0.5,0-0.9,0.1-1.3,0.3c-0.4,0.2-0.6,0.5-0.8,0.8
	c-0.2,0.3-0.4,0.7-0.5,1.2c-0.1,0.4-0.1,0.9-0.1,1.4c0,0.4,0.1,0.9,0.2,1.3c0.1,0.4,0.3,0.8,0.5,1.2c0.2,0.3,0.5,0.6,0.9,0.8
	c0.3,0.2,0.8,0.3,1.2,0.3c0.5,0,0.9-0.1,1.3-0.3c0.3-0.2,0.6-0.5,0.8-0.8c0.2-0.3,0.4-0.7,0.4-1.2s0.1-0.9,0.1-1.4
	C106.6,32.8,106.6,32.3,106.5,31.9z M123.5,27.6v2.1h-2.3v5.6c0,0.5,0.1,0.9,0.3,1.1c0.2,0.2,0.5,0.3,1.1,0.3c0.2,0,0.3,0,0.5,0
	c0.2,0,0.3,0,0.5-0.1V39c-0.3,0-0.6,0.1-0.9,0.1c-0.3,0-0.6,0-0.9,0c-0.5,0-0.9,0-1.4-0.1c-0.4-0.1-0.8-0.2-1.1-0.4
	c-0.3-0.2-0.6-0.5-0.8-0.8c-0.2-0.4-0.3-0.8-0.3-1.4v-6.7h-1.9v-2.1h1.9v-3.4h3.1v3.4H123.5z M127.7,23.3v5.9h0.1
	c0.4-0.7,0.9-1.1,1.5-1.4c0.6-0.3,1.2-0.5,1.8-0.5c0.8,0,1.5,0.1,2.1,0.3c0.5,0.2,1,0.5,1.3,0.9c0.3,0.4,0.5,0.9,0.6,1.5
	c0.1,0.6,0.2,1.2,0.2,1.9v7h-3.1v-6.4c0-0.9-0.1-1.6-0.4-2.1c-0.3-0.5-0.8-0.7-1.6-0.7c-0.9,0-1.5,0.3-1.8,0.8
	c-0.4,0.5-0.6,1.3-0.6,2.5v6h-3.1V23.3H127.7z M140.5,36.2c0.5,0.5,1.1,0.7,2,0.7c0.6,0,1.2-0.2,1.6-0.5c0.5-0.3,0.7-0.6,0.8-1h2.8
	c-0.4,1.4-1.1,2.3-2,2.9c-0.9,0.6-2,0.9-3.3,0.9c-0.9,0-1.7-0.1-2.4-0.4c-0.7-0.3-1.3-0.7-1.8-1.2c-0.5-0.5-0.9-1.2-1.2-1.9
	c-0.3-0.7-0.4-1.5-0.4-2.4c0-0.9,0.1-1.6,0.4-2.4c0.3-0.7,0.7-1.4,1.2-1.9c0.5-0.5,1.1-1,1.8-1.3c0.7-0.3,1.5-0.5,2.4-0.5
	c1,0,1.8,0.2,2.5,0.6c0.7,0.4,1.3,0.9,1.8,1.5c0.5,0.6,0.8,1.3,1,2.2c0.2,0.8,0.3,1.7,0.2,2.5h-8.2C139.8,35.1,140,35.8,140.5,36.2z
	 M144,30.3c-0.4-0.4-0.9-0.6-1.7-0.6c-0.5,0-0.9,0.1-1.2,0.3c-0.3,0.2-0.6,0.4-0.8,0.6c-0.2,0.2-0.3,0.5-0.4,0.8
	c-0.1,0.3-0.1,0.5-0.1,0.7h5.1C144.6,31.3,144.4,30.7,144,30.3z M158.1,23.3V29h0c0.4-0.6,0.9-1,1.6-1.3c0.7-0.3,1.3-0.4,2-0.4
	c0.6,0,1.1,0.1,1.7,0.4c0.6,0.2,1.1,0.6,1.5,1.1c0.4,0.5,0.8,1.1,1.1,1.9c0.3,0.8,0.4,1.7,0.4,2.7c0,1-0.1,1.9-0.4,2.7
	c-0.3,0.8-0.6,1.4-1.1,1.9c-0.4,0.5-0.9,0.8-1.5,1.1c-0.6,0.2-1.1,0.4-1.7,0.4c-0.8,0-1.6-0.1-2.2-0.4s-1.2-0.7-1.5-1.3h0V39h-3
	V23.3H158.1z M163.2,31.9c-0.1-0.4-0.3-0.8-0.5-1.2c-0.2-0.3-0.5-0.6-0.8-0.8c-0.3-0.2-0.7-0.3-1.2-0.3c-0.5,0-0.9,0.1-1.2,0.3
	c-0.3,0.2-0.6,0.5-0.8,0.8c-0.2,0.3-0.4,0.7-0.5,1.2c-0.1,0.4-0.2,0.9-0.2,1.4c0,0.5,0.1,0.9,0.2,1.4c0.1,0.4,0.3,0.8,0.5,1.2
	c0.2,0.3,0.5,0.6,0.8,0.8c0.3,0.2,0.7,0.3,1.2,0.3c0.5,0,0.9-0.1,1.2-0.3c0.3-0.2,0.6-0.5,0.8-0.8c0.2-0.3,0.4-0.7,0.5-1.2
	c0.1-0.4,0.2-0.9,0.2-1.4C163.3,32.8,163.3,32.3,163.2,31.9z M171.4,36.2c0.5,0.5,1.1,0.7,2,0.7c0.6,0,1.2-0.2,1.6-0.5
	c0.5-0.3,0.7-0.6,0.8-1h2.8c-0.4,1.4-1.1,2.3-2,2.9c-0.9,0.6-2,0.9-3.3,0.9c-0.9,0-1.7-0.1-2.4-0.4c-0.7-0.3-1.3-0.7-1.8-1.2
	c-0.5-0.5-0.9-1.2-1.2-1.9c-0.3-0.7-0.4-1.5-0.4-2.4c0-0.9,0.1-1.6,0.4-2.4c0.3-0.7,0.7-1.4,1.2-1.9c0.5-0.5,1.1-1,1.8-1.3
	c0.7-0.3,1.5-0.5,2.4-0.5c1,0,1.8,0.2,2.5,0.6c0.7,0.4,1.3,0.9,1.8,1.5c0.5,0.6,0.8,1.3,1,2.2c0.2,0.8,0.3,1.7,0.2,2.5h-8.2
	C170.6,35.1,170.9,35.8,171.4,36.2z M174.9,30.3c-0.4-0.4-0.9-0.6-1.7-0.6c-0.5,0-0.9,0.1-1.2,0.3c-0.3,0.2-0.6,0.4-0.8,0.6
	c-0.2,0.2-0.3,0.5-0.4,0.8c-0.1,0.3-0.1,0.5-0.1,0.7h5.1C175.5,31.3,175.3,30.7,174.9,30.3z M182.8,36.1c0.1,0.2,0.3,0.4,0.5,0.6
	c0.2,0.2,0.5,0.3,0.8,0.3c0.3,0.1,0.6,0.1,0.9,0.1c0.2,0,0.5,0,0.7-0.1c0.2-0.1,0.5-0.1,0.7-0.2c0.2-0.1,0.4-0.3,0.5-0.4
	c0.1-0.2,0.2-0.4,0.2-0.7c0-0.5-0.3-0.8-0.9-1.1c-0.6-0.2-1.5-0.5-2.6-0.7c-0.5-0.1-0.9-0.2-1.3-0.4c-0.4-0.1-0.8-0.3-1.2-0.6
	c-0.3-0.2-0.6-0.5-0.8-0.9c-0.2-0.3-0.3-0.8-0.3-1.3c0-0.7,0.1-1.3,0.4-1.8c0.3-0.5,0.7-0.8,1.1-1.1c0.5-0.3,1-0.5,1.6-0.6
	c0.6-0.1,1.2-0.2,1.8-0.2c0.6,0,1.2,0.1,1.8,0.2c0.6,0.1,1.1,0.3,1.6,0.6c0.5,0.3,0.8,0.6,1.1,1.1c0.3,0.5,0.5,1,0.5,1.7h-3
	c0-0.6-0.3-1-0.7-1.2c-0.4-0.2-0.9-0.3-1.5-0.3c-0.2,0-0.4,0-0.6,0c-0.2,0-0.4,0.1-0.6,0.1c-0.2,0.1-0.3,0.2-0.4,0.3
	c-0.1,0.1-0.2,0.3-0.2,0.6c0,0.3,0.1,0.5,0.3,0.7c0.2,0.2,0.5,0.3,0.8,0.4c0.3,0.1,0.7,0.2,1.1,0.3c0.4,0.1,0.9,0.2,1.3,0.3
	c0.5,0.1,0.9,0.2,1.3,0.4c0.4,0.1,0.8,0.3,1.2,0.6c0.3,0.2,0.6,0.5,0.8,0.9c0.2,0.4,0.3,0.8,0.3,1.3c0,0.7-0.2,1.4-0.5,1.9
	c-0.3,0.5-0.7,0.9-1.2,1.2c-0.5,0.3-1,0.5-1.7,0.6c-0.6,0.1-1.3,0.2-1.9,0.2c-0.7,0-1.3-0.1-1.9-0.2c-0.6-0.1-1.2-0.4-1.7-0.7
	c-0.5-0.3-0.9-0.7-1.2-1.2c-0.3-0.5-0.5-1.1-0.5-1.9h3C182.6,35.6,182.7,35.9,182.8,36.1z M197.8,27.6v2.1h-2.3v5.6
	c0,0.5,0.1,0.9,0.3,1.1c0.2,0.2,0.5,0.3,1.1,0.3c0.2,0,0.3,0,0.5,0c0.2,0,0.3,0,0.5-0.1V39c-0.3,0-0.6,0.1-0.9,0.1
	c-0.3,0-0.6,0-0.9,0c-0.5,0-0.9,0-1.4-0.1c-0.4-0.1-0.8-0.2-1.1-0.4c-0.3-0.2-0.6-0.5-0.8-0.8c-0.2-0.4-0.3-0.8-0.3-1.4v-6.7h-1.9
	v-2.1h1.9v-3.4h3.1v3.4H197.8z M207.5,27.6v2.1h0c0.1-0.4,0.3-0.7,0.6-1c0.2-0.3,0.5-0.6,0.9-0.8c0.3-0.2,0.7-0.4,1-0.5
	c0.4-0.1,0.7-0.2,1.1-0.2c0.2,0,0.4,0,0.7,0.1v2.9c-0.1,0-0.3-0.1-0.5-0.1c-0.2,0-0.4,0-0.6,0c-0.6,0-1.1,0.1-1.5,0.3
	c-0.4,0.2-0.7,0.5-1,0.8s-0.4,0.7-0.5,1.2c-0.1,0.4-0.2,0.9-0.2,1.4V39h-3.1V27.6H207.5z M215.7,31.1c0.1-0.6,0.3-1.1,0.6-1.3
	c0.4-0.3,0.8-0.4,1.5-0.4c0.3,0,0.5,0,0.8,0.1c0.2,0,0.5,0.1,0.6,0.2c0.2,0.1,0.3,0.3,0.4,0.5c0.1,0.2,0.2,0.5,0.2,0.8
	c0,0.3-0.1,0.6-0.3,0.7c-0.2,0.2-0.5,0.3-0.8,0.4c-0.4,0.1-0.8,0.2-1.2,0.2c-0.5,0-0.9,0.1-1.4,0.2c-0.5,0.1-0.9,0.2-1.4,0.3
	c-0.5,0.1-0.9,0.3-1.2,0.6c-0.4,0.2-0.7,0.6-0.9,1c-0.2,0.4-0.3,0.9-0.3,1.6c0,0.6,0.1,1.1,0.3,1.5c0.2,0.4,0.5,0.8,0.8,1.1
	c0.4,0.3,0.8,0.5,1.2,0.6c0.5,0.1,1,0.2,1.5,0.2c0.7,0,1.4-0.1,2.1-0.3c0.7-0.2,1.3-0.6,1.8-1.1c0,0.2,0,0.4,0.1,0.6
	c0,0.2,0.1,0.4,0.1,0.5h3.2c-0.1-0.2-0.2-0.6-0.3-1.1c-0.1-0.5-0.1-1-0.1-1.5v-5.9c0-0.7-0.2-1.2-0.5-1.7c-0.3-0.4-0.7-0.7-1.2-1
	c-0.5-0.2-1-0.4-1.6-0.5c-0.6-0.1-1.2-0.1-1.7-0.1c-0.6,0-1.3,0.1-1.9,0.2c-0.6,0.1-1.2,0.3-1.7,0.6c-0.5,0.3-0.9,0.7-1.2,1.2
	c-0.3,0.5-0.5,1.1-0.6,1.8H215.7z M219.8,34.6c0,0.2,0,0.4-0.1,0.7c0,0.3-0.1,0.6-0.3,0.9c-0.2,0.3-0.4,0.5-0.7,0.7
	c-0.3,0.2-0.8,0.3-1.4,0.3c-0.2,0-0.5,0-0.7-0.1c-0.2,0-0.4-0.1-0.6-0.2s-0.3-0.3-0.4-0.5c-0.1-0.2-0.2-0.4-0.2-0.7
	c0-0.3,0.1-0.5,0.2-0.7c0.1-0.2,0.2-0.3,0.4-0.5c0.2-0.1,0.4-0.2,0.6-0.3c0.2-0.1,0.5-0.1,0.7-0.2c0.2,0,0.5-0.1,0.7-0.1
	c0.2,0,0.5-0.1,0.7-0.1c0.2,0,0.4-0.1,0.6-0.2s0.4-0.2,0.5-0.3V34.6z M231.1,27.6v2.1h-2.3v5.6c0,0.5,0.1,0.9,0.3,1.1
	c0.2,0.2,0.5,0.3,1.1,0.3c0.2,0,0.3,0,0.5,0c0.2,0,0.3,0,0.5-0.1V39c-0.3,0-0.6,0.1-0.9,0.1c-0.3,0-0.6,0-0.9,0
	c-0.5,0-0.9,0-1.4-0.1c-0.4-0.1-0.8-0.2-1.1-0.4c-0.3-0.2-0.6-0.5-0.8-0.8c-0.2-0.4-0.3-0.8-0.3-1.4v-6.7h-1.9v-2.1h1.9v-3.4h3.1
	v3.4H231.1z M235.5,36.2c0.5,0.5,1.1,0.7,2,0.7c0.6,0,1.2-0.2,1.6-0.5c0.5-0.3,0.7-0.6,0.8-1h2.8c-0.4,1.4-1.1,2.3-2,2.9
	c-0.9,0.6-2,0.9-3.3,0.9c-0.9,0-1.7-0.1-2.4-0.4c-0.7-0.3-1.3-0.7-1.8-1.2c-0.5-0.5-0.9-1.2-1.2-1.9c-0.3-0.7-0.4-1.5-0.4-2.4
	c0-0.9,0.1-1.6,0.4-2.4c0.3-0.7,0.7-1.4,1.2-1.9c0.5-0.5,1.1-1,1.8-1.3c0.7-0.3,1.5-0.5,2.4-0.5c1,0,1.8,0.2,2.5,0.6
	c0.7,0.4,1.3,0.9,1.8,1.5c0.5,0.6,0.8,1.3,1,2.2c0.2,0.8,0.3,1.7,0.2,2.5h-8.2C234.8,35.1,235,35.8,235.5,36.2z M239,30.3
	c-0.4-0.4-0.9-0.6-1.7-0.6c-0.5,0-0.9,0.1-1.2,0.3c-0.3,0.2-0.6,0.4-0.8,0.6c-0.2,0.2-0.3,0.5-0.4,0.8c-0.1,0.3-0.1,0.5-0.1,0.7h5.1
	C239.7,31.3,239.4,30.7,239,30.3z M247,36.1c0.1,0.2,0.3,0.4,0.5,0.6c0.2,0.2,0.5,0.3,0.8,0.3c0.3,0.1,0.6,0.1,0.9,0.1
	c0.2,0,0.5,0,0.7-0.1c0.2-0.1,0.5-0.1,0.7-0.2c0.2-0.1,0.4-0.3,0.5-0.4c0.1-0.2,0.2-0.4,0.2-0.7c0-0.5-0.3-0.8-0.9-1.1
	c-0.6-0.2-1.5-0.5-2.6-0.7c-0.5-0.1-0.9-0.2-1.3-0.4c-0.4-0.1-0.8-0.3-1.2-0.6c-0.3-0.2-0.6-0.5-0.8-0.9c-0.2-0.3-0.3-0.8-0.3-1.3
	c0-0.7,0.1-1.3,0.4-1.8c0.3-0.5,0.7-0.8,1.1-1.1c0.5-0.3,1-0.5,1.6-0.6c0.6-0.1,1.2-0.2,1.8-0.2c0.6,0,1.2,0.1,1.8,0.2
	c0.6,0.1,1.1,0.3,1.6,0.6c0.5,0.3,0.8,0.6,1.1,1.1c0.3,0.5,0.5,1,0.5,1.7h-3c0-0.6-0.3-1-0.7-1.2c-0.4-0.2-0.9-0.3-1.5-0.3
	c-0.2,0-0.4,0-0.6,0c-0.2,0-0.4,0.1-0.6,0.1c-0.2,0.1-0.3,0.2-0.4,0.3c-0.1,0.1-0.2,0.3-0.2,0.6c0,0.3,0.1,0.5,0.3,0.7
	c0.2,0.2,0.5,0.3,0.8,0.4s0.7,0.2,1.1,0.3c0.4,0.1,0.9,0.2,1.3,0.3c0.5,0.1,0.9,0.2,1.3,0.4c0.4,0.1,0.8,0.3,1.2,0.6
	c0.3,0.2,0.6,0.5,0.8,0.9c0.2,0.4,0.3,0.8,0.3,1.3c0,0.7-0.2,1.4-0.5,1.9c-0.3,0.5-0.7,0.9-1.2,1.2s-1,0.5-1.7,0.6
	c-0.6,0.1-1.3,0.2-1.9,0.2c-0.7,0-1.3-0.1-1.9-0.2c-0.6-0.1-1.2-0.4-1.7-0.7c-0.5-0.3-0.9-0.7-1.2-1.2c-0.3-0.5-0.5-1.1-0.5-1.9h3
	C246.8,35.6,246.9,35.9,247,36.1z M267.7,27.6v2.1h-2.3v5.6c0,0.5,0.1,0.9,0.3,1.1c0.2,0.2,0.5,0.3,1.1,0.3c0.2,0,0.3,0,0.5,0
	c0.2,0,0.3,0,0.5-0.1V39c-0.3,0-0.6,0.1-0.9,0.1c-0.3,0-0.6,0-0.9,0c-0.5,0-0.9,0-1.4-0.1c-0.4-0.1-0.8-0.2-1.1-0.4
	c-0.3-0.2-0.6-0.5-0.8-0.8c-0.2-0.4-0.3-0.8-0.3-1.4v-6.7h-1.9v-2.1h1.9v-3.4h3.1v3.4H267.7z M268.8,30.8c0.3-0.7,0.7-1.4,1.2-1.9
	c0.5-0.5,1.1-0.9,1.8-1.2c0.7-0.3,1.5-0.4,2.4-0.4c0.9,0,1.7,0.1,2.4,0.4c0.7,0.3,1.3,0.7,1.9,1.2c0.5,0.5,0.9,1.2,1.2,1.9
	c0.3,0.7,0.4,1.6,0.4,2.5c0,0.9-0.1,1.7-0.4,2.5c-0.3,0.7-0.7,1.4-1.2,1.9c-0.5,0.5-1.1,0.9-1.9,1.2c-0.7,0.3-1.5,0.4-2.4,0.4
	c-0.9,0-1.7-0.1-2.4-0.4c-0.7-0.3-1.3-0.7-1.8-1.2c-0.5-0.5-0.9-1.1-1.2-1.9c-0.3-0.7-0.4-1.6-0.4-2.5
	C268.4,32.4,268.5,31.6,268.8,30.8z M271.6,34.6c0.1,0.4,0.2,0.8,0.5,1.2c0.2,0.3,0.5,0.6,0.8,0.8c0.4,0.2,0.8,0.3,1.3,0.3
	s1-0.1,1.3-0.3c0.4-0.2,0.6-0.5,0.9-0.8c0.2-0.3,0.4-0.7,0.5-1.2c0.1-0.4,0.1-0.9,0.1-1.3c0-0.5,0-0.9-0.1-1.3s-0.2-0.8-0.5-1.2
	c-0.2-0.3-0.5-0.6-0.9-0.8c-0.4-0.2-0.8-0.3-1.3-0.3s-1,0.1-1.3,0.3c-0.4,0.2-0.6,0.5-0.8,0.8c-0.2,0.3-0.4,0.7-0.5,1.2
	c-0.1,0.4-0.1,0.9-0.1,1.3C271.5,33.7,271.5,34.2,271.6,34.6z M290.4,27.6V29h0c0.4-0.6,0.9-1.1,1.5-1.3c0.6-0.3,1.2-0.4,1.9-0.4
	c0.9,0,1.7,0.2,2.3,0.5c0.6,0.3,1.2,0.8,1.6,1.3c0.4,0.6,0.7,1.2,0.9,1.9c0.2,0.7,0.3,1.5,0.3,2.3c0,0.8-0.1,1.5-0.3,2.2
	c-0.2,0.7-0.5,1.3-0.9,1.9c-0.4,0.5-0.9,1-1.6,1.3c-0.6,0.3-1.4,0.5-2.2,0.5c-0.7,0-1.4-0.1-1.9-0.4c-0.6-0.3-1.1-0.7-1.5-1.3h0V43
	h-3.1V27.6H290.4z M294.4,36.6c0.3-0.2,0.6-0.5,0.8-0.8c0.2-0.3,0.4-0.7,0.5-1.2c0.1-0.4,0.1-0.9,0.1-1.3c0-0.5,0-0.9-0.1-1.3
	c-0.1-0.4-0.3-0.8-0.5-1.2c-0.2-0.3-0.5-0.6-0.8-0.8c-0.3-0.2-0.8-0.3-1.3-0.3c-0.5,0-0.9,0.1-1.3,0.3c-0.3,0.2-0.6,0.5-0.8,0.8
	c-0.2,0.3-0.4,0.7-0.5,1.2s-0.1,0.9-0.1,1.4c0,0.5,0,0.9,0.1,1.3c0.1,0.4,0.2,0.8,0.5,1.2c0.2,0.3,0.5,0.6,0.8,0.8
	c0.4,0.2,0.8,0.3,1.3,0.3C293.7,36.9,294.1,36.8,294.4,36.6z M303.4,27.6v2.1h0c0.1-0.4,0.3-0.7,0.6-1c0.2-0.3,0.5-0.6,0.9-0.8
	c0.3-0.2,0.7-0.4,1-0.5c0.4-0.1,0.7-0.2,1.1-0.2c0.2,0,0.4,0,0.7,0.1v2.9c-0.1,0-0.3-0.1-0.5-0.1c-0.2,0-0.4,0-0.6,0
	c-0.6,0-1.1,0.1-1.5,0.3c-0.4,0.2-0.7,0.5-1,0.8c-0.2,0.3-0.4,0.7-0.5,1.2c-0.1,0.4-0.2,0.9-0.2,1.4V39h-3.1V27.6H303.4z
	 M308.2,30.8c0.3-0.7,0.7-1.4,1.2-1.9c0.5-0.5,1.1-0.9,1.8-1.2c0.7-0.3,1.5-0.4,2.4-0.4c0.9,0,1.7,0.1,2.4,0.4
	c0.7,0.3,1.3,0.7,1.9,1.2c0.5,0.5,0.9,1.2,1.2,1.9c0.3,0.7,0.4,1.6,0.4,2.5c0,0.9-0.1,1.7-0.4,2.5c-0.3,0.7-0.7,1.4-1.2,1.9
	c-0.5,0.5-1.1,0.9-1.9,1.2c-0.7,0.3-1.5,0.4-2.4,0.4c-0.9,0-1.7-0.1-2.4-0.4c-0.7-0.3-1.3-0.7-1.8-1.2c-0.5-0.5-0.9-1.1-1.2-1.9
	c-0.3-0.7-0.4-1.6-0.4-2.5C307.8,32.4,307.9,31.6,308.2,30.8z M311,34.6c0.1,0.4,0.2,0.8,0.5,1.2c0.2,0.3,0.5,0.6,0.8,0.8
	c0.4,0.2,0.8,0.3,1.3,0.3s1-0.1,1.3-0.3c0.4-0.2,0.6-0.5,0.9-0.8c0.2-0.3,0.4-0.7,0.5-1.2c0.1-0.4,0.1-0.9,0.1-1.3
	c0-0.5,0-0.9-0.1-1.3s-0.2-0.8-0.5-1.2c-0.2-0.3-0.5-0.6-0.9-0.8c-0.4-0.2-0.8-0.3-1.3-0.3s-1,0.1-1.3,0.3c-0.4,0.2-0.6,0.5-0.8,0.8
	c-0.2,0.3-0.4,0.7-0.5,1.2c-0.1,0.4-0.1,0.9-0.1,1.3C310.9,33.7,310.9,34.2,311,34.6z M327.4,27.6v2.1h-2.3v5.6
	c0,0.5,0.1,0.9,0.3,1.1c0.2,0.2,0.5,0.3,1.1,0.3c0.2,0,0.3,0,0.5,0c0.2,0,0.3,0,0.5-0.1V39c-0.3,0-0.6,0.1-0.9,0.1
	c-0.3,0-0.6,0-0.9,0c-0.5,0-0.9,0-1.4-0.1c-0.4-0.1-0.8-0.2-1.1-0.4c-0.3-0.2-0.6-0.5-0.8-0.8c-0.2-0.4-0.3-0.8-0.3-1.4v-6.7h-1.9
	v-2.1h1.9v-3.4h3.1v3.4H327.4z M331.8,36.2c0.5,0.5,1.1,0.7,2,0.7c0.6,0,1.2-0.2,1.6-0.5c0.5-0.3,0.7-0.6,0.8-1h2.8
	c-0.4,1.4-1.1,2.3-2,2.9c-0.9,0.6-2,0.9-3.3,0.9c-0.9,0-1.7-0.1-2.4-0.4c-0.7-0.3-1.3-0.7-1.8-1.2c-0.5-0.5-0.9-1.2-1.2-1.9
	c-0.3-0.7-0.4-1.5-0.4-2.4c0-0.9,0.1-1.6,0.4-2.4c0.3-0.7,0.7-1.4,1.2-1.9c0.5-0.5,1.1-1,1.8-1.3c0.7-0.3,1.5-0.5,2.4-0.5
	c1,0,1.8,0.2,2.5,0.6c0.7,0.4,1.3,0.9,1.8,1.5c0.5,0.6,0.8,1.3,1,2.2c0.2,0.8,0.3,1.7,0.2,2.5H331C331.1,35.1,331.3,35.8,331.8,36.2
	z M335.3,30.3c-0.4-0.4-0.9-0.6-1.7-0.6c-0.5,0-0.9,0.1-1.2,0.3c-0.3,0.2-0.6,0.4-0.8,0.6c-0.2,0.2-0.3,0.5-0.4,0.8
	c-0.1,0.3-0.1,0.5-0.1,0.7h5.1C336,31.3,335.7,30.7,335.3,30.3z M346.1,29.6c-0.5,0-0.9,0.1-1.3,0.3c-0.3,0.2-0.6,0.5-0.8,0.9
	c-0.2,0.4-0.4,0.8-0.5,1.2c-0.1,0.4-0.1,0.9-0.1,1.3c0,0.4,0,0.8,0.1,1.3c0.1,0.4,0.2,0.8,0.4,1.2c0.2,0.3,0.5,0.6,0.8,0.8
	c0.3,0.2,0.7,0.3,1.2,0.3c0.7,0,1.3-0.2,1.7-0.6c0.4-0.4,0.7-1,0.8-1.7h3c-0.2,1.5-0.8,2.7-1.8,3.5c-1,0.8-2.2,1.2-3.7,1.2
	c-0.9,0-1.6-0.1-2.3-0.4c-0.7-0.3-1.3-0.7-1.8-1.2c-0.5-0.5-0.9-1.1-1.2-1.8c-0.3-0.7-0.4-1.5-0.4-2.3c0-0.9,0.1-1.7,0.4-2.5
	c0.3-0.8,0.6-1.4,1.1-2c0.5-0.6,1.1-1,1.8-1.3c0.7-0.3,1.5-0.5,2.5-0.5c0.7,0,1.3,0.1,1.9,0.3c0.6,0.2,1.2,0.4,1.7,0.8
	c0.5,0.4,0.9,0.8,1.2,1.3c0.3,0.5,0.5,1.2,0.5,1.9h-3.1C348.2,30.3,347.4,29.6,346.1,29.6L346.1,29.6z M359.1,27.6v2.1h-2.3v5.6
	c0,0.5,0.1,0.9,0.3,1.1c0.2,0.2,0.5,0.3,1.1,0.3c0.2,0,0.3,0,0.5,0c0.2,0,0.3,0,0.5-0.1V39c-0.3,0-0.6,0.1-0.9,0.1
	c-0.3,0-0.6,0-0.9,0c-0.5,0-0.9,0-1.4-0.1c-0.4-0.1-0.8-0.2-1.1-0.4c-0.3-0.2-0.6-0.5-0.8-0.8c-0.2-0.4-0.3-0.8-0.3-1.4v-6.7h-1.9
	v-2.1h1.9v-3.4h3.1v3.4H359.1z M370,42.4c-0.6,0.4-1.4,0.6-2.5,0.6c-0.3,0-0.6,0-1,0c-0.3,0-0.6,0-1-0.1v-2.6c0.3,0,0.6,0.1,0.9,0.1
	c0.3,0,0.6,0,0.9,0c0.4,0,0.7-0.2,0.9-0.5c0.2-0.3,0.3-0.6,0.3-0.9c0-0.2,0-0.5-0.1-0.7l-4-10.7h3.3l2.6,7.8h0l2.5-7.8h3.2
	l-4.8,12.8C371.1,41.3,370.6,42,370,42.4z M376.9,30.8c0.3-0.7,0.7-1.4,1.2-1.9c0.5-0.5,1.1-0.9,1.8-1.2c0.7-0.3,1.5-0.4,2.4-0.4
	c0.9,0,1.7,0.1,2.4,0.4c0.7,0.3,1.3,0.7,1.9,1.2c0.5,0.5,0.9,1.2,1.2,1.9c0.3,0.7,0.4,1.6,0.4,2.5c0,0.9-0.1,1.7-0.4,2.5
	c-0.3,0.7-0.7,1.4-1.2,1.9c-0.5,0.5-1.1,0.9-1.9,1.2c-0.7,0.3-1.5,0.4-2.4,0.4c-0.9,0-1.7-0.1-2.4-0.4c-0.7-0.3-1.3-0.7-1.8-1.2
	c-0.5-0.5-0.9-1.1-1.2-1.9c-0.3-0.7-0.4-1.6-0.4-2.5C376.4,32.4,376.6,31.6,376.9,30.8z M379.7,34.6c0.1,0.4,0.2,0.8,0.5,1.2
	c0.2,0.3,0.5,0.6,0.8,0.8c0.4,0.2,0.8,0.3,1.3,0.3s1-0.1,1.3-0.3c0.4-0.2,0.6-0.5,0.9-0.8c0.2-0.3,0.4-0.7,0.5-1.2
	c0.1-0.4,0.1-0.9,0.1-1.3c0-0.5,0-0.9-0.1-1.3s-0.2-0.8-0.5-1.2c-0.2-0.3-0.5-0.6-0.9-0.8c-0.4-0.2-0.8-0.3-1.3-0.3s-1,0.1-1.3,0.3
	c-0.4,0.2-0.6,0.5-0.8,0.8c-0.2,0.3-0.4,0.7-0.5,1.2c-0.1,0.4-0.1,0.9-0.1,1.3C379.6,33.7,379.6,34.2,379.7,34.6z M397.5,39v-1.6
	h-0.1c-0.4,0.7-0.9,1.1-1.5,1.4c-0.6,0.3-1.3,0.4-1.9,0.4c-0.8,0-1.5-0.1-2.1-0.3c-0.5-0.2-1-0.5-1.3-0.9c-0.3-0.4-0.5-0.9-0.6-1.5
	c-0.1-0.6-0.2-1.2-0.2-1.9v-7h3.1V34c0,0.9,0.1,1.6,0.4,2.1c0.3,0.5,0.8,0.7,1.6,0.7c0.9,0,1.5-0.3,1.8-0.8c0.4-0.5,0.6-1.3,0.6-2.5
	v-6h3.1V39H397.5z M405.4,27.6v2.1h0c0.1-0.4,0.3-0.7,0.6-1c0.2-0.3,0.5-0.6,0.9-0.8c0.3-0.2,0.7-0.4,1-0.5c0.4-0.1,0.7-0.2,1.1-0.2
	c0.2,0,0.4,0,0.7,0.1v2.9c-0.1,0-0.3-0.1-0.5-0.1c-0.2,0-0.4,0-0.6,0c-0.6,0-1.1,0.1-1.5,0.3c-0.4,0.2-0.7,0.5-1,0.8
	c-0.2,0.3-0.4,0.7-0.5,1.2c-0.1,0.4-0.2,0.9-0.2,1.4V39h-3.1V27.6H405.4z M416.3,25.8v-2.6h3.1v2.6H416.3z M419.4,27.6V39h-3.1V27.6
	H419.4z M424.4,27.6v1.6h0.1c0.4-0.7,0.9-1.1,1.5-1.4c0.6-0.3,1.3-0.5,1.9-0.5c0.8,0,1.5,0.1,2.1,0.3c0.5,0.2,1,0.5,1.3,0.9
	c0.3,0.4,0.5,0.9,0.6,1.5c0.1,0.6,0.2,1.2,0.2,1.9v7H429v-6.4c0-0.9-0.1-1.6-0.4-2.1c-0.3-0.5-0.8-0.7-1.6-0.7
	c-0.9,0-1.5,0.3-1.8,0.8c-0.4,0.5-0.6,1.3-0.6,2.5v6h-3.1V27.6H424.4z M439.5,29.6c-0.5,0-0.9,0.1-1.3,0.3c-0.3,0.2-0.6,0.5-0.8,0.9
	c-0.2,0.4-0.4,0.8-0.5,1.2c-0.1,0.4-0.1,0.9-0.1,1.3c0,0.4,0,0.8,0.1,1.3c0.1,0.4,0.2,0.8,0.4,1.2c0.2,0.3,0.5,0.6,0.8,0.8
	c0.3,0.2,0.7,0.3,1.2,0.3c0.7,0,1.3-0.2,1.7-0.6c0.4-0.4,0.7-1,0.8-1.7h3c-0.2,1.5-0.8,2.7-1.8,3.5c-1,0.8-2.2,1.2-3.7,1.2
	c-0.9,0-1.6-0.1-2.3-0.4c-0.7-0.3-1.3-0.7-1.8-1.2c-0.5-0.5-0.9-1.1-1.2-1.8c-0.3-0.7-0.4-1.5-0.4-2.3c0-0.9,0.1-1.7,0.4-2.5
	c0.3-0.8,0.6-1.4,1.1-2c0.5-0.6,1.1-1,1.8-1.3c0.7-0.3,1.5-0.5,2.5-0.5c0.7,0,1.3,0.1,1.9,0.3c0.6,0.2,1.2,0.4,1.7,0.8
	c0.5,0.4,0.9,0.8,1.2,1.3c0.3,0.5,0.5,1.2,0.5,1.9h-3.1C441.6,30.3,440.8,29.6,439.5,29.6L439.5,29.6z M446.3,30.8
	c0.3-0.7,0.7-1.4,1.2-1.9c0.5-0.5,1.1-0.9,1.8-1.2c0.7-0.3,1.5-0.4,2.4-0.4c0.9,0,1.7,0.1,2.4,0.4c0.7,0.3,1.3,0.7,1.9,1.2
	c0.5,0.5,0.9,1.2,1.2,1.9c0.3,0.7,0.4,1.6,0.4,2.5c0,0.9-0.1,1.7-0.4,2.5c-0.3,0.7-0.7,1.4-1.2,1.9c-0.5,0.5-1.1,0.9-1.9,1.2
	c-0.7,0.3-1.5,0.4-2.4,0.4c-0.9,0-1.7-0.1-2.4-0.4c-0.7-0.3-1.3-0.7-1.8-1.2c-0.5-0.5-0.9-1.1-1.2-1.9c-0.3-0.7-0.4-1.6-0.4-2.5
	C445.9,32.4,446,31.6,446.3,30.8z M449.1,34.6c0.1,0.4,0.2,0.8,0.5,1.2c0.2,0.3,0.5,0.6,0.8,0.8c0.4,0.2,0.8,0.3,1.3,0.3
	s1-0.1,1.3-0.3c0.4-0.2,0.6-0.5,0.9-0.8c0.2-0.3,0.4-0.7,0.5-1.2c0.1-0.4,0.1-0.9,0.1-1.3c0-0.5,0-0.9-0.1-1.3s-0.2-0.8-0.5-1.2
	c-0.2-0.3-0.5-0.6-0.9-0.8c-0.4-0.2-0.8-0.3-1.3-0.3s-1,0.1-1.3,0.3c-0.4,0.2-0.6,0.5-0.8,0.8c-0.2,0.3-0.4,0.7-0.5,1.2
	c-0.1,0.4-0.1,0.9-0.1,1.3C449,33.7,449.1,34.2,449.1,34.6z M462.3,27.6v1.5h0c0.4-0.6,0.9-1,1.5-1.4c0.6-0.3,1.2-0.5,2-0.5
	c0.7,0,1.4,0.1,2,0.4c0.6,0.3,1,0.8,1.4,1.5c0.3-0.5,0.8-0.9,1.4-1.3c0.6-0.4,1.3-0.6,2.1-0.6c0.6,0,1.2,0.1,1.7,0.2
	c0.5,0.1,1,0.4,1.3,0.7c0.4,0.3,0.7,0.7,0.9,1.3c0.2,0.5,0.3,1.1,0.3,1.9V39h-3.1v-6.4c0-0.4,0-0.7,0-1.1c0-0.3-0.1-0.6-0.2-0.9
	c-0.1-0.2-0.3-0.4-0.6-0.6c-0.3-0.1-0.6-0.2-1-0.2s-0.8,0.1-1.1,0.3c-0.3,0.2-0.5,0.4-0.6,0.7c-0.2,0.3-0.3,0.6-0.3,0.9
	c-0.1,0.3-0.1,0.7-0.1,1V39h-3.1v-6.4c0-0.3,0-0.7,0-1c0-0.3-0.1-0.6-0.2-0.9c-0.1-0.3-0.3-0.5-0.6-0.7c-0.3-0.2-0.6-0.3-1.1-0.3
	c-0.1,0-0.3,0-0.6,0.1c-0.2,0.1-0.5,0.2-0.7,0.4c-0.2,0.2-0.4,0.4-0.6,0.8c-0.2,0.3-0.2,0.8-0.2,1.4V39h-3.1V27.6H462.3z
	 M482.1,36.2c0.5,0.5,1.1,0.7,2,0.7c0.6,0,1.2-0.2,1.6-0.5c0.5-0.3,0.7-0.6,0.8-1h2.8c-0.4,1.4-1.1,2.3-2,2.9
	c-0.9,0.6-2,0.9-3.3,0.9c-0.9,0-1.7-0.1-2.4-0.4c-0.7-0.3-1.3-0.7-1.8-1.2c-0.5-0.5-0.9-1.2-1.2-1.9c-0.3-0.7-0.4-1.5-0.4-2.4
	c0-0.9,0.1-1.6,0.4-2.4c0.3-0.7,0.7-1.4,1.2-1.9c0.5-0.5,1.1-1,1.8-1.3c0.7-0.3,1.5-0.5,2.4-0.5c1,0,1.8,0.2,2.5,0.6
	c0.7,0.4,1.3,0.9,1.8,1.5c0.5,0.6,0.8,1.3,1,2.2c0.2,0.8,0.3,1.7,0.2,2.5h-8.2C481.4,35.1,481.6,35.8,482.1,36.2z M485.6,30.3
	c-0.4-0.4-0.9-0.6-1.7-0.6c-0.5,0-0.9,0.1-1.2,0.3c-0.3,0.2-0.6,0.4-0.8,0.6c-0.2,0.2-0.3,0.5-0.4,0.8c-0.1,0.3-0.1,0.5-0.1,0.7h5.1
	C486.2,31.3,486,30.7,485.6,30.3z M494.5,35.6V39h-3.5v-3.4H494.5z"/>
<g>
	<path class="st0" d="M27.2,55.9c0.4-1,0.9-1.9,1.5-2.6c0.7-0.7,1.5-1.3,2.4-1.8s2-0.6,3.2-0.6c1.2,0,2.3,0.2,3.3,0.6s1.8,1,2.4,1.8
		c0.7,0.7,1.2,1.6,1.5,2.6s0.5,2.1,0.5,3.3c0,1.1-0.2,2.2-0.5,3.2s-0.9,1.9-1.5,2.6s-1.5,1.3-2.4,1.7s-2,0.6-3.3,0.6
		c-1.2,0-2.3-0.2-3.2-0.6s-1.8-1-2.4-1.7s-1.2-1.6-1.5-2.6s-0.5-2.1-0.5-3.2C26.7,58,26.8,57,27.2,55.9z M30.3,61.1
		c0.2,0.6,0.4,1.2,0.7,1.7c0.3,0.5,0.8,0.9,1.3,1.2c0.5,0.3,1.2,0.5,2,0.5c0.8,0,1.4-0.2,2-0.5c0.5-0.3,1-0.7,1.3-1.2
		s0.6-1.1,0.7-1.7c0.2-0.6,0.2-1.3,0.2-1.9c0-0.7-0.1-1.4-0.2-2c-0.2-0.6-0.4-1.2-0.7-1.7s-0.8-0.9-1.3-1.2c-0.5-0.3-1.2-0.5-2-0.5
		c-0.8,0-1.4,0.2-2,0.5c-0.5,0.3-1,0.7-1.3,1.2c-0.3,0.5-0.6,1.1-0.7,1.7s-0.2,1.3-0.2,2C30.1,59.9,30.2,60.5,30.3,61.1z"/>
	<path class="st0" d="M46.7,55.6v1.6h0.1c0.4-0.7,0.9-1.1,1.5-1.4s1.3-0.5,1.9-0.5c0.8,0,1.5,0.1,2.1,0.3c0.5,0.2,1,0.5,1.3,0.9
		c0.3,0.4,0.5,0.9,0.6,1.5c0.1,0.6,0.2,1.2,0.2,1.9v7h-3.1v-6.4c0-0.9-0.1-1.6-0.4-2.1c-0.3-0.5-0.8-0.7-1.6-0.7
		c-0.9,0-1.5,0.3-1.8,0.8C47,59,46.8,59.9,46.8,61v6h-3.1V55.6H46.7z"/>
	<path class="st0" d="M59.5,51.3V67h-3.1V51.3H59.5z"/>
	<path class="st0" d="M65.8,70.4c-0.6,0.4-1.4,0.6-2.5,0.6c-0.3,0-0.6,0-1,0c-0.3,0-0.6,0-1-0.1v-2.6c0.3,0,0.6,0.1,0.9,0.1
		c0.3,0,0.6,0,0.9,0c0.4,0,0.7-0.2,0.9-0.5c0.2-0.3,0.3-0.6,0.3-0.9c0-0.2,0-0.5-0.1-0.7l-4-10.7h3.3l2.6,7.8h0l2.5-7.8h3.2
		l-4.8,12.8C66.8,69.3,66.4,70,65.8,70.4z"/>
	<path class="st0" d="M77,57.7v-2.1h1.9v-0.9c0-1,0.3-1.8,0.9-2.5s1.6-1,2.9-1c0.3,0,0.6,0,0.8,0c0.3,0,0.6,0,0.8,0.1v2.3
		c-0.4,0-0.7-0.1-1.1-0.1c-0.4,0-0.7,0.1-0.9,0.3s-0.3,0.5-0.3,1v0.7h2.2v2.1H82V67h-3.1v-9.3H77z"/>
	<path class="st0" d="M85.2,58.9c0.3-0.7,0.7-1.4,1.2-1.9s1.1-0.9,1.8-1.2c0.7-0.3,1.5-0.4,2.4-0.4c0.9,0,1.7,0.1,2.4,0.4
		c0.7,0.3,1.3,0.7,1.9,1.2c0.5,0.5,0.9,1.2,1.2,1.9c0.3,0.7,0.4,1.6,0.4,2.5c0,0.9-0.1,1.7-0.4,2.5c-0.3,0.7-0.7,1.4-1.2,1.9
		c-0.5,0.5-1.1,0.9-1.9,1.2s-1.5,0.4-2.4,0.4c-0.9,0-1.7-0.1-2.4-0.4c-0.7-0.3-1.3-0.7-1.8-1.2s-0.9-1.1-1.2-1.9
		c-0.3-0.7-0.4-1.6-0.4-2.5C84.7,60.4,84.9,59.6,85.2,58.9z M88,62.7c0.1,0.4,0.2,0.8,0.5,1.2c0.2,0.3,0.5,0.6,0.8,0.8
		c0.4,0.2,0.8,0.3,1.3,0.3s1-0.1,1.3-0.3c0.4-0.2,0.6-0.5,0.9-0.8c0.2-0.3,0.4-0.7,0.5-1.2s0.1-0.9,0.1-1.3c0-0.5,0-0.9-0.1-1.3
		s-0.2-0.8-0.5-1.2c-0.2-0.3-0.5-0.6-0.9-0.8s-0.8-0.3-1.3-0.3s-1,0.1-1.3,0.3s-0.6,0.5-0.8,0.8c-0.2,0.3-0.4,0.7-0.5,1.2
		s-0.1,0.9-0.1,1.3C87.9,61.8,87.9,62.2,88,62.7z"/>
	<path class="st0" d="M101.1,55.6v2.1h0c0.1-0.4,0.3-0.7,0.6-1s0.5-0.6,0.9-0.8c0.3-0.2,0.7-0.4,1-0.5c0.4-0.1,0.7-0.2,1.1-0.2
		c0.2,0,0.4,0,0.7,0.1v2.9c-0.1,0-0.3-0.1-0.5-0.1c-0.2,0-0.4,0-0.6,0c-0.6,0-1.1,0.1-1.5,0.3c-0.4,0.2-0.7,0.5-1,0.8
		c-0.2,0.3-0.4,0.7-0.5,1.2c-0.1,0.4-0.2,0.9-0.2,1.4V67h-3.1V55.6H101.1z"/>
	<path class="st0" d="M120.1,51.3L126,67h-3.6l-1.2-3.5h-5.9l-1.2,3.5h-3.5l5.9-15.7H120.1z M120.3,60.9l-2-5.8h0l-2,5.8H120.3z"/>
	<path class="st0" d="M133.7,51.3c1,0,2,0.2,2.8,0.5c0.9,0.3,1.6,0.8,2.3,1.5c0.6,0.6,1.1,1.5,1.5,2.4c0.4,1,0.5,2.1,0.5,3.4
		c0,1.1-0.1,2.2-0.4,3.2c-0.3,1-0.7,1.8-1.3,2.5s-1.3,1.3-2.2,1.7c-0.9,0.4-1.9,0.6-3.1,0.6h-6.8V51.3H133.7z M133.4,64.1
		c0.5,0,1-0.1,1.5-0.2s0.9-0.4,1.3-0.8s0.7-0.9,0.9-1.5c0.2-0.6,0.3-1.3,0.3-2.2c0-0.8-0.1-1.5-0.2-2.1c-0.2-0.6-0.4-1.2-0.8-1.6
		c-0.4-0.5-0.8-0.8-1.4-1s-1.3-0.4-2.1-0.4h-2.5v9.9H133.4z"/>
	<path class="st0" d="M150.6,51.3l5.9,15.7h-3.6l-1.2-3.5h-5.9l-1.2,3.5h-3.5l5.9-15.7H150.6z M150.8,60.9l-2-5.8h0l-2,5.8H150.8z"
		/>
	<path class="st0" d="M167.9,51.3l3.7,10.8h0l3.5-10.8h4.9V67h-3.2V55.9h0L172.8,67h-2.7l-3.9-11h0v11h-3.2V51.3H167.9z"/>
	<path class="st0" d="M185.6,64.3c0.5,0.5,1.1,0.7,2,0.7c0.6,0,1.2-0.2,1.6-0.5s0.7-0.6,0.8-1h2.8c-0.4,1.4-1.1,2.3-2,2.9
		s-2,0.9-3.3,0.9c-0.9,0-1.7-0.1-2.4-0.4c-0.7-0.3-1.3-0.7-1.8-1.2c-0.5-0.5-0.9-1.2-1.2-1.9c-0.3-0.7-0.4-1.5-0.4-2.4
		c0-0.9,0.1-1.6,0.4-2.4s0.7-1.4,1.2-1.9c0.5-0.5,1.1-1,1.8-1.3c0.7-0.3,1.5-0.5,2.4-0.5c1,0,1.8,0.2,2.5,0.6
		c0.7,0.4,1.3,0.9,1.8,1.5c0.5,0.6,0.8,1.3,1,2.2c0.2,0.8,0.3,1.7,0.2,2.5h-8.2C184.9,63.1,185.1,63.8,185.6,64.3z M189.1,58.3
		c-0.4-0.4-0.9-0.6-1.7-0.6c-0.5,0-0.9,0.1-1.2,0.3c-0.3,0.2-0.6,0.4-0.8,0.6c-0.2,0.2-0.3,0.5-0.4,0.8c-0.1,0.3-0.1,0.5-0.1,0.7
		h5.1C189.8,59.3,189.5,58.7,189.1,58.3z"/>
	<path class="st0" d="M197.5,55.6v1.5h0c0.4-0.6,0.9-1,1.5-1.4c0.6-0.3,1.2-0.5,2-0.5c0.7,0,1.4,0.1,2,0.4c0.6,0.3,1,0.8,1.4,1.5
		c0.3-0.5,0.8-0.9,1.4-1.3c0.6-0.4,1.3-0.6,2.1-0.6c0.6,0,1.2,0.1,1.7,0.2c0.5,0.1,1,0.4,1.3,0.7c0.4,0.3,0.7,0.7,0.9,1.3
		c0.2,0.5,0.3,1.1,0.3,1.9V67h-3.1v-6.4c0-0.4,0-0.7,0-1.1s-0.1-0.6-0.2-0.9c-0.1-0.2-0.3-0.4-0.6-0.6s-0.6-0.2-1-0.2
		c-0.4,0-0.8,0.1-1.1,0.3s-0.5,0.4-0.6,0.7s-0.3,0.6-0.3,0.9c-0.1,0.3-0.1,0.7-0.1,1V67h-3.1v-6.4c0-0.3,0-0.7,0-1s-0.1-0.6-0.2-0.9
		c-0.1-0.3-0.3-0.5-0.6-0.7s-0.6-0.3-1.1-0.3c-0.1,0-0.3,0-0.6,0.1c-0.2,0.1-0.5,0.2-0.7,0.4c-0.2,0.2-0.4,0.4-0.6,0.8
		c-0.2,0.3-0.2,0.8-0.2,1.4V67h-3.1V55.6H197.5z"/>
	<path class="st0" d="M217.1,51.3V57h0c0.4-0.6,0.9-1,1.6-1.3s1.3-0.4,2-0.4c0.6,0,1.1,0.1,1.7,0.4c0.6,0.2,1.1,0.6,1.5,1.1
		c0.4,0.5,0.8,1.1,1.1,1.9s0.4,1.7,0.4,2.7c0,1-0.1,1.9-0.4,2.7c-0.3,0.8-0.6,1.4-1.1,1.9c-0.4,0.5-1,0.8-1.5,1.1
		c-0.6,0.2-1.1,0.4-1.7,0.4c-0.8,0-1.6-0.1-2.2-0.4c-0.7-0.3-1.2-0.7-1.5-1.3h0V67h-3V51.3H217.1z M222.2,59.9
		c-0.1-0.4-0.3-0.8-0.5-1.2c-0.2-0.3-0.5-0.6-0.8-0.8s-0.7-0.3-1.2-0.3c-0.5,0-0.9,0.1-1.2,0.3c-0.3,0.2-0.6,0.5-0.8,0.8
		c-0.2,0.3-0.4,0.7-0.5,1.2c-0.1,0.4-0.2,0.9-0.2,1.4c0,0.5,0.1,0.9,0.2,1.4c0.1,0.4,0.3,0.8,0.5,1.2c0.2,0.3,0.5,0.6,0.8,0.8
		c0.3,0.2,0.7,0.3,1.2,0.3c0.5,0,0.9-0.1,1.2-0.3s0.6-0.5,0.8-0.8c0.2-0.3,0.4-0.7,0.5-1.2c0.1-0.4,0.2-0.9,0.2-1.4
		C222.3,60.8,222.3,60.4,222.2,59.9z"/>
	<path class="st0" d="M230.3,64.3c0.5,0.5,1.1,0.7,2,0.7c0.6,0,1.2-0.2,1.6-0.5s0.7-0.6,0.8-1h2.8c-0.4,1.4-1.1,2.3-2,2.9
		s-2,0.9-3.3,0.9c-0.9,0-1.7-0.1-2.4-0.4c-0.7-0.3-1.3-0.7-1.8-1.2c-0.5-0.5-0.9-1.2-1.2-1.9c-0.3-0.7-0.4-1.5-0.4-2.4
		c0-0.9,0.1-1.6,0.4-2.4s0.7-1.4,1.2-1.9c0.5-0.5,1.1-1,1.8-1.3c0.7-0.3,1.5-0.5,2.4-0.5c1,0,1.8,0.2,2.5,0.6
		c0.7,0.4,1.3,0.9,1.8,1.5c0.5,0.6,0.8,1.3,1,2.2c0.2,0.8,0.3,1.7,0.2,2.5h-8.2C229.6,63.1,229.9,63.8,230.3,64.3z M233.9,58.3
		c-0.4-0.4-0.9-0.6-1.7-0.6c-0.5,0-0.9,0.1-1.2,0.3c-0.3,0.2-0.6,0.4-0.8,0.6c-0.2,0.2-0.3,0.5-0.4,0.8c-0.1,0.3-0.1,0.5-0.1,0.7
		h5.1C234.5,59.3,234.2,58.7,233.9,58.3z"/>
	<path class="st0" d="M242.2,55.6v2.1h0c0.1-0.4,0.3-0.7,0.6-1s0.5-0.6,0.9-0.8c0.3-0.2,0.7-0.4,1-0.5c0.4-0.1,0.7-0.2,1.1-0.2
		c0.2,0,0.4,0,0.7,0.1v2.9c-0.1,0-0.3-0.1-0.5-0.1c-0.2,0-0.4,0-0.6,0c-0.6,0-1.1,0.1-1.5,0.3c-0.4,0.2-0.7,0.5-1,0.8
		c-0.2,0.3-0.4,0.7-0.5,1.2c-0.1,0.4-0.2,0.9-0.2,1.4V67h-3.1V55.6H242.2z"/>
	<path class="st0" d="M250,64.2c0.1,0.2,0.3,0.4,0.5,0.6s0.5,0.3,0.8,0.3c0.3,0.1,0.6,0.1,0.9,0.1c0.2,0,0.5,0,0.7-0.1
		c0.2-0.1,0.5-0.1,0.7-0.2c0.2-0.1,0.4-0.3,0.5-0.4c0.1-0.2,0.2-0.4,0.2-0.7c0-0.5-0.3-0.8-0.9-1.1c-0.6-0.2-1.5-0.5-2.6-0.7
		c-0.5-0.1-0.9-0.2-1.3-0.4c-0.4-0.1-0.8-0.3-1.2-0.5s-0.6-0.5-0.8-0.9c-0.2-0.3-0.3-0.8-0.3-1.3c0-0.7,0.1-1.3,0.4-1.8
		c0.3-0.5,0.7-0.8,1.1-1.1s1-0.5,1.6-0.6c0.6-0.1,1.2-0.2,1.8-0.2c0.6,0,1.2,0.1,1.8,0.2c0.6,0.1,1.1,0.3,1.6,0.6s0.8,0.6,1.1,1.1
		c0.3,0.5,0.5,1,0.5,1.7h-3c0-0.6-0.3-1-0.7-1.2c-0.4-0.2-0.9-0.3-1.5-0.3c-0.2,0-0.4,0-0.6,0c-0.2,0-0.4,0.1-0.6,0.1
		s-0.3,0.2-0.4,0.3c-0.1,0.1-0.2,0.3-0.2,0.6c0,0.3,0.1,0.5,0.3,0.7c0.2,0.2,0.5,0.3,0.8,0.4c0.3,0.1,0.7,0.2,1.1,0.3
		c0.4,0.1,0.9,0.2,1.3,0.3c0.5,0.1,0.9,0.2,1.3,0.4c0.4,0.1,0.8,0.3,1.2,0.6c0.3,0.2,0.6,0.5,0.8,0.9c0.2,0.4,0.3,0.8,0.3,1.3
		c0,0.7-0.2,1.4-0.5,1.9s-0.7,0.9-1.2,1.2c-0.5,0.3-1,0.5-1.7,0.6c-0.6,0.1-1.3,0.2-1.9,0.2c-0.7,0-1.3-0.1-1.9-0.2
		c-0.6-0.1-1.2-0.4-1.7-0.7c-0.5-0.3-0.9-0.7-1.2-1.2c-0.3-0.5-0.5-1.1-0.5-1.9h3C249.8,63.6,249.8,63.9,250,64.2z"/>
</g>
</svg>
