<?xml version="1.0" encoding="utf-8"?>
<!-- Generator: Adobe Illustrator 25.4.1, SVG Export Plug-In . SVG Version: 6.00 Build 0)  -->
<svg version="1.1" id="Layer_1" xmlns="http://www.w3.org/2000/svg" xmlns:xlink="http://www.w3.org/1999/xlink" x="0px" y="0px"
	 viewBox="0 0 728 90" style="enable-background:new 0 0 728 90;" xml:space="preserve">
<style type="text/css">
	.st0{fill:#349946;}
</style>
<g>
	<path class="st0" d="M255.3,40c0.1-1.3,0.4-2.3,1-3.2c0.6-0.8,1.3-1.5,2.2-2c0.9-0.5,1.9-0.9,2.9-1.1s2.2-0.3,3.3-0.3
		c1,0,2,0.1,3,0.2c1,0.1,2,0.4,2.8,0.8c0.8,0.4,1.5,1,2.1,1.7c0.5,0.7,0.8,1.7,0.8,2.9v10.3c0,0.9,0.1,1.8,0.2,2.6
		c0.1,0.8,0.3,1.4,0.5,1.8h-5.5c-0.1-0.3-0.2-0.6-0.2-0.9c-0.1-0.3-0.1-0.6-0.1-1c-0.9,0.9-1.9,1.5-3.1,1.9
		c-1.2,0.4-2.4,0.5-3.6,0.5c-0.9,0-1.8-0.1-2.7-0.3c-0.8-0.2-1.5-0.6-2.2-1.1c-0.6-0.5-1.1-1.1-1.4-1.8c-0.3-0.7-0.5-1.6-0.5-2.7
		c0-1.1,0.2-2.1,0.6-2.8c0.4-0.7,0.9-1.3,1.5-1.7c0.6-0.4,1.3-0.8,2.2-1c0.8-0.2,1.6-0.4,2.4-0.5c0.8-0.1,1.6-0.2,2.4-0.3
		c0.8-0.1,1.5-0.2,2.1-0.3s1.1-0.4,1.5-0.7c0.4-0.3,0.5-0.7,0.5-1.3c0-0.6-0.1-1.1-0.3-1.4c-0.2-0.3-0.4-0.6-0.8-0.8
		c-0.3-0.2-0.7-0.3-1.1-0.4c-0.4-0.1-0.9-0.1-1.4-0.1c-1.1,0-1.9,0.2-2.5,0.7s-1,1.2-1.1,2.3H255.3z M267.9,44.1
		c-0.2,0.2-0.5,0.4-0.9,0.5c-0.3,0.1-0.7,0.2-1.1,0.3c-0.4,0.1-0.8,0.1-1.2,0.2c-0.4,0.1-0.9,0.1-1.3,0.2c-0.4,0.1-0.8,0.2-1.2,0.3
		c-0.4,0.1-0.7,0.3-1,0.5c-0.3,0.2-0.5,0.5-0.7,0.8c-0.2,0.3-0.3,0.8-0.3,1.3c0,0.5,0.1,0.9,0.3,1.2c0.2,0.3,0.4,0.6,0.7,0.8
		s0.7,0.3,1.1,0.4c0.4,0.1,0.8,0.1,1.3,0.1c1.1,0,1.9-0.2,2.5-0.5c0.6-0.4,1-0.8,1.3-1.3s0.5-1,0.5-1.5c0.1-0.5,0.1-0.9,0.1-1.2
		V44.1z"/>
	<path class="st0" d="M282.8,33.9v2.8h0.1c0.7-1.2,1.6-2,2.7-2.5c1.1-0.5,2.2-0.8,3.4-0.8c1.5,0,2.7,0.2,3.6,0.6
		c0.9,0.4,1.7,0.9,2.2,1.7c0.5,0.7,0.9,1.6,1.1,2.6c0.2,1,0.3,2.1,0.3,3.4v12.2h-5.5V42.6c0-1.6-0.3-2.9-0.8-3.7
		c-0.5-0.8-1.4-1.2-2.7-1.2c-1.5,0-2.6,0.4-3.2,1.3c-0.7,0.9-1,2.3-1,4.4v10.4h-5.5V33.9H282.8z"/>
	<path class="st0" d="M314.5,51.3c-0.6,1.1-1.5,1.9-2.5,2.3c-1,0.5-2.2,0.7-3.5,0.7c-1.5,0-2.8-0.3-3.9-0.9
		c-1.1-0.6-2.1-1.4-2.8-2.3c-0.7-1-1.3-2.1-1.7-3.4c-0.4-1.3-0.6-2.6-0.6-4c0-1.3,0.2-2.6,0.6-3.9c0.4-1.2,0.9-2.3,1.7-3.3
		c0.7-0.9,1.6-1.7,2.7-2.3c1.1-0.6,2.4-0.9,3.8-0.9c1.2,0,2.3,0.2,3.4,0.8c1.1,0.5,1.9,1.2,2.5,2.2h0.1v-10h5.5v27.5h-5.2
		L314.5,51.3L314.5,51.3z M314.3,41.4c-0.2-0.8-0.4-1.4-0.8-2c-0.4-0.6-0.9-1-1.4-1.4c-0.6-0.4-1.3-0.5-2.2-0.5
		c-0.9,0-1.7,0.2-2.3,0.5c-0.6,0.4-1.1,0.8-1.5,1.4c-0.4,0.6-0.6,1.3-0.8,2c-0.2,0.8-0.2,1.5-0.2,2.4c0,0.8,0.1,1.5,0.3,2.3
		c0.2,0.8,0.5,1.5,0.9,2.1c0.4,0.6,0.9,1.1,1.5,1.5c0.6,0.4,1.3,0.6,2.2,0.6c0.9,0,1.6-0.2,2.2-0.5c0.6-0.4,1.1-0.8,1.4-1.4
		c0.4-0.6,0.6-1.3,0.8-2.1c0.2-0.8,0.2-1.6,0.2-2.4C314.5,43,314.4,42.2,314.3,41.4z"/>
	<path class="st0" d="M344.1,37.5c-0.9,0-1.6,0.2-2.2,0.6c-0.6,0.4-1.1,0.9-1.4,1.5c-0.4,0.6-0.6,1.3-0.8,2.1
		c-0.2,0.8-0.2,1.5-0.2,2.2c0,0.7,0.1,1.4,0.2,2.2c0.2,0.7,0.4,1.4,0.7,2c0.3,0.6,0.8,1.1,1.4,1.5c0.6,0.4,1.3,0.6,2.2,0.6
		c1.3,0,2.3-0.4,3-1.1c0.7-0.7,1.1-1.7,1.3-2.9h5.3c-0.4,2.6-1.4,4.7-3.1,6c-1.7,1.4-3.9,2.1-6.5,2.1c-1.5,0-2.9-0.2-4.1-0.8
		c-1.2-0.5-2.3-1.2-3.2-2.1s-1.6-2-2-3.2c-0.5-1.2-0.7-2.6-0.7-4.1c0-1.5,0.2-3,0.7-4.3c0.4-1.3,1.1-2.5,2-3.4
		c0.9-1,1.9-1.7,3.2-2.2c1.3-0.5,2.7-0.8,4.3-0.8c1.2,0,2.3,0.2,3.4,0.5s2.1,0.8,2.9,1.4c0.9,0.6,1.6,1.4,2.1,2.3
		c0.5,0.9,0.8,2,0.9,3.3h-5.3C347.8,38.6,346.4,37.5,344.1,37.5z"/>
	<path class="st0" d="M356.4,40c0.1-1.3,0.4-2.3,1-3.2c0.6-0.8,1.3-1.5,2.2-2c0.9-0.5,1.9-0.9,2.9-1.1s2.2-0.3,3.3-0.3
		c1,0,2,0.1,3,0.2c1,0.1,2,0.4,2.8,0.8c0.8,0.4,1.5,1,2.1,1.7c0.5,0.7,0.8,1.7,0.8,2.9v10.3c0,0.9,0.1,1.8,0.2,2.6s0.3,1.4,0.5,1.8
		h-5.5c-0.1-0.3-0.2-0.6-0.2-0.9c-0.1-0.3-0.1-0.6-0.1-1c-0.9,0.9-1.9,1.5-3.1,1.9c-1.2,0.4-2.4,0.5-3.6,0.5c-0.9,0-1.8-0.1-2.7-0.3
		c-0.8-0.2-1.5-0.6-2.2-1.1c-0.6-0.5-1.1-1.1-1.4-1.8c-0.3-0.7-0.5-1.6-0.5-2.7c0-1.1,0.2-2.1,0.6-2.8c0.4-0.7,0.9-1.3,1.5-1.7
		c0.6-0.4,1.3-0.8,2.2-1s1.6-0.4,2.4-0.5s1.6-0.2,2.4-0.3c0.8-0.1,1.5-0.2,2.1-0.3s1.1-0.4,1.5-0.7c0.4-0.3,0.5-0.7,0.5-1.3
		c0-0.6-0.1-1.1-0.3-1.4c-0.2-0.3-0.4-0.6-0.8-0.8c-0.3-0.2-0.7-0.3-1.1-0.4c-0.4-0.1-0.9-0.1-1.4-0.1c-1.1,0-1.9,0.2-2.5,0.7
		c-0.6,0.5-1,1.2-1.1,2.3H356.4z M369.1,44.1c-0.2,0.2-0.5,0.4-0.9,0.5c-0.3,0.1-0.7,0.2-1.1,0.3c-0.4,0.1-0.8,0.1-1.2,0.2
		c-0.4,0.1-0.9,0.1-1.3,0.2c-0.4,0.1-0.8,0.2-1.2,0.3c-0.4,0.1-0.7,0.3-1,0.5c-0.3,0.2-0.5,0.5-0.7,0.8c-0.2,0.3-0.3,0.8-0.3,1.3
		c0,0.5,0.1,0.9,0.3,1.2c0.2,0.3,0.4,0.6,0.7,0.8s0.7,0.3,1.1,0.4s0.8,0.1,1.3,0.1c1.1,0,1.9-0.2,2.5-0.5c0.6-0.4,1-0.8,1.3-1.3
		s0.5-1,0.5-1.5c0.1-0.5,0.1-0.9,0.1-1.2V44.1z"/>
	<path class="st0" d="M383.9,33.9v3.7h0.1c0.3-0.6,0.6-1.2,1-1.7c0.4-0.5,0.9-1,1.5-1.3c0.6-0.4,1.2-0.7,1.8-0.9
		c0.6-0.2,1.3-0.3,2-0.3c0.4,0,0.8,0.1,1.2,0.2v5.1c-0.3-0.1-0.6-0.1-0.9-0.1s-0.7-0.1-1-0.1c-1,0-1.8,0.2-2.5,0.5
		c-0.7,0.3-1.2,0.8-1.7,1.4c-0.4,0.6-0.7,1.2-0.9,2c-0.2,0.8-0.3,1.6-0.3,2.5v9h-5.5V33.9H383.9z"/>
	<path class="st0" d="M398.9,33.9v3.7h0.1c0.3-0.6,0.6-1.2,1-1.7c0.4-0.5,0.9-1,1.5-1.3c0.6-0.4,1.2-0.7,1.8-0.9
		c0.6-0.2,1.3-0.3,2-0.3c0.4,0,0.8,0.1,1.2,0.2v5.1c-0.3-0.1-0.6-0.1-0.9-0.1s-0.7-0.1-1-0.1c-1,0-1.8,0.2-2.5,0.5
		c-0.7,0.3-1.2,0.8-1.7,1.4c-0.4,0.6-0.7,1.2-0.9,2c-0.2,0.8-0.3,1.6-0.3,2.5v9h-5.5V33.9H398.9z"/>
	<path class="st0" d="M416,59.7c-1.1,0.7-2.5,1-4.4,1c-0.6,0-1.1,0-1.7-0.1c-0.6,0-1.1-0.1-1.7-0.1v-4.5c0.5,0.1,1,0.1,1.6,0.2
		c0.5,0.1,1.1,0.1,1.6,0c0.7-0.1,1.2-0.4,1.6-0.8c0.3-0.5,0.5-1,0.5-1.6c0-0.4-0.1-0.8-0.2-1.2l-7-18.7h5.8l4.5,13.6h0.1l4.3-13.6
		h5.7l-8.3,22.3C417.9,57.9,417.1,59,416,59.7z"/>
	<path class="st0" d="M459.2,26.3v5.1h-13.3v6.3h11.5v4.7h-11.5v11.3h-6V26.3H459.2z"/>
	<path class="st0" d="M468.7,26.3v22.4h13.4v5.1h-19.4V26.3H468.7z"/>
	<path class="st0" d="M485.2,34.5c0.6-1.8,1.5-3.3,2.7-4.6c1.2-1.3,2.6-2.3,4.2-3.1c1.7-0.7,3.6-1.1,5.7-1.1c2.1,0,4,0.4,5.7,1.1
		c1.7,0.7,3.1,1.8,4.2,3.1c1.2,1.3,2,2.8,2.7,4.6c0.6,1.8,0.9,3.7,0.9,5.7c0,2-0.3,3.9-0.9,5.6c-0.6,1.7-1.5,3.2-2.7,4.5
		c-1.2,1.3-2.6,2.3-4.2,3c-1.7,0.7-3.6,1.1-5.7,1.1c-2.1,0-4-0.4-5.7-1.1c-1.7-0.7-3.1-1.7-4.2-3c-1.2-1.3-2-2.8-2.7-4.5
		c-0.6-1.7-0.9-3.6-0.9-5.6C484.3,38.1,484.6,36.2,485.2,34.5z M490.7,43.5c0.3,1.1,0.7,2.1,1.3,2.9c0.6,0.9,1.4,1.6,2.3,2.1
		c0.9,0.5,2.1,0.8,3.5,0.8c1.4,0,2.5-0.3,3.5-0.8c0.9-0.5,1.7-1.2,2.3-2.1c0.6-0.9,1-1.9,1.3-2.9c0.3-1.1,0.4-2.2,0.4-3.4
		c0-1.2-0.1-2.4-0.4-3.5c-0.3-1.1-0.7-2.1-1.3-3c-0.6-0.9-1.4-1.6-2.3-2.1c-0.9-0.5-2.1-0.8-3.5-0.8c-1.4,0-2.5,0.3-3.5,0.8
		c-0.9,0.5-1.7,1.2-2.3,2.1c-0.6,0.9-1,1.9-1.3,3c-0.3,1.1-0.4,2.3-0.4,3.5C490.3,41.3,490.5,42.5,490.7,43.5z"/>
	<path class="st0" d="M520,47c0.3,0.6,0.8,1.2,1.3,1.6c0.6,0.4,1.2,0.7,1.9,0.9c0.7,0.2,1.5,0.3,2.3,0.3c0.5,0,1.1,0,1.7-0.1
		c0.6-0.1,1.2-0.3,1.7-0.5c0.5-0.3,1-0.6,1.3-1.1c0.4-0.4,0.5-1,0.5-1.7c0-0.7-0.2-1.3-0.7-1.8s-1.1-0.8-1.9-1.2
		c-0.8-0.3-1.6-0.6-2.6-0.8c-1-0.2-2-0.5-3-0.8c-1-0.3-2-0.6-3-0.9c-1-0.4-1.8-0.9-2.6-1.4c-0.8-0.6-1.4-1.3-1.9-2.2
		c-0.5-0.9-0.7-2-0.7-3.2c0-1.4,0.3-2.6,0.9-3.7c0.6-1,1.4-1.9,2.4-2.6s2.1-1.2,3.3-1.5c1.2-0.3,2.5-0.5,3.7-0.5
		c1.4,0,2.8,0.2,4.1,0.5c1.3,0.3,2.5,0.8,3.5,1.6c1,0.7,1.8,1.6,2.4,2.7s0.9,2.5,0.9,4.1H530c-0.1-0.8-0.2-1.5-0.5-2
		c-0.3-0.5-0.7-1-1.2-1.3s-1-0.5-1.7-0.7c-0.6-0.1-1.3-0.2-2.1-0.2c-0.5,0-1,0.1-1.5,0.2c-0.5,0.1-0.9,0.3-1.3,0.5
		c-0.4,0.3-0.7,0.6-1,1c-0.3,0.4-0.4,0.9-0.4,1.5c0,0.5,0.1,1,0.3,1.3c0.2,0.3,0.6,0.6,1.2,0.9c0.6,0.3,1.4,0.6,2.5,0.8
		c1.1,0.3,2.5,0.6,4.2,1.1c0.5,0.1,1.2,0.3,2.1,0.6c0.9,0.3,1.8,0.7,2.7,1.3s1.7,1.4,2.3,2.4c0.7,1,1,2.2,1,3.8
		c0,1.3-0.2,2.4-0.7,3.5c-0.5,1.1-1.2,2-2.2,2.8c-1,0.8-2.2,1.4-3.6,1.8s-3.1,0.7-4.9,0.7c-1.5,0-3-0.2-4.4-0.6s-2.7-1-3.8-1.8
		c-1.1-0.8-2-1.8-2.6-3c-0.6-1.2-0.9-2.7-0.9-4.4h5.8C519.5,45.6,519.7,46.4,520,47z"/>
	<path class="st0" d="M545,47c0.3,0.6,0.8,1.2,1.3,1.6c0.6,0.4,1.2,0.7,1.9,0.9c0.7,0.2,1.5,0.3,2.3,0.3c0.5,0,1.1,0,1.7-0.1
		c0.6-0.1,1.2-0.3,1.7-0.5c0.5-0.3,1-0.6,1.3-1.1c0.4-0.4,0.5-1,0.5-1.7c0-0.7-0.2-1.3-0.7-1.8s-1.1-0.8-1.9-1.2
		c-0.8-0.3-1.6-0.6-2.6-0.8c-1-0.2-2-0.5-3-0.8c-1-0.3-2-0.6-3-0.9c-1-0.4-1.8-0.9-2.6-1.4c-0.8-0.6-1.4-1.3-1.9-2.2
		c-0.5-0.9-0.7-2-0.7-3.2c0-1.4,0.3-2.6,0.9-3.7c0.6-1,1.4-1.9,2.4-2.6s2.1-1.2,3.3-1.5c1.2-0.3,2.5-0.5,3.7-0.5
		c1.4,0,2.8,0.2,4.1,0.5c1.3,0.3,2.5,0.8,3.5,1.6c1,0.7,1.8,1.6,2.4,2.7s0.9,2.5,0.9,4.1H555c-0.1-0.8-0.2-1.5-0.5-2
		c-0.3-0.5-0.7-1-1.2-1.3s-1-0.5-1.7-0.7c-0.6-0.1-1.3-0.2-2.1-0.2c-0.5,0-1,0.1-1.5,0.2c-0.5,0.1-0.9,0.3-1.3,0.5
		c-0.4,0.3-0.7,0.6-1,1c-0.3,0.4-0.4,0.9-0.4,1.5c0,0.5,0.1,1,0.3,1.3c0.2,0.3,0.6,0.6,1.2,0.9c0.6,0.3,1.4,0.6,2.5,0.8
		c1.1,0.3,2.5,0.6,4.2,1.1c0.5,0.1,1.2,0.3,2.1,0.6c0.9,0.3,1.8,0.7,2.7,1.3s1.7,1.4,2.3,2.4c0.7,1,1,2.2,1,3.8
		c0,1.3-0.2,2.4-0.7,3.5c-0.5,1.1-1.2,2-2.2,2.8c-1,0.8-2.2,1.4-3.6,1.8s-3.1,0.7-4.9,0.7c-1.5,0-3-0.2-4.4-0.6s-2.7-1-3.8-1.8
		c-1.1-0.8-2-1.8-2.6-3c-0.6-1.2-0.9-2.7-0.9-4.4h5.8C544.5,45.6,544.6,46.4,545,47z"/>
</g>
</svg>
