<?xml version="1.0" encoding="utf-8"?>
<!-- Generator: Adobe Illustrator 25.4.1, SVG Export Plug-In . SVG Version: 6.00 Build 0)  -->
<svg version="1.1" id="Layer_1" xmlns="http://www.w3.org/2000/svg" xmlns:xlink="http://www.w3.org/1999/xlink" x="0px" y="0px"
	 viewBox="0 0 728 90" style="enable-background:new 0 0 728 90;" xml:space="preserve">
<style type="text/css">
	.st0{clip-path:url(#SVGID_00000130610033834515818890000018345324836918235310_);fill:#349946;}
	.st1{fill:#FFFFFF;}
</style>
<g>
	<defs>
		<rect id="SVGID_1_" x="547.9" y="12.6" width="116.3" height="24.5"/>
	</defs>
	<clipPath id="SVGID_00000083780859126424278710000007520993986978839723_">
		<use xlink:href="#SVGID_1_"  style="overflow:visible;"/>
	</clipPath>
	<path style="clip-path:url(#SVGID_00000083780859126424278710000007520993986978839723_);fill:#349946;" d="M664.2,24.9
		c0,6.7-6.3,12.3-14.1,12.3H562c-7.7,0-14.1-5.5-14.1-12.3s6.3-12.3,14.1-12.3h88.2C657.9,12.6,664.2,18.1,664.2,24.9"/>
</g>
<g>
	<path class="st1" d="M572.8,29l-1.3-5.3h0l-1.3,5.3h-1.7l-2.1-7.8h1.7l1.2,5.3h0l1.4-5.3h1.6l1.3,5.4h0l1.3-5.4h1.7l-2.1,7.8H572.8
		z"/>
	<path class="st1" d="M581.1,21.2L584,29h-1.8l-0.6-1.7h-2.9l-0.6,1.7h-1.7l3-7.8H581.1z M581.2,26l-1-2.9h0l-1,2.9H581.2z"/>
</g>
<g>
	<path class="st1" d="M583.1,22.7v-1.4h6.4v1.4h-2.3V29h-1.7v-6.4H583.1z"/>
	<path class="st1" d="M595.4,23.3c-0.1-0.2-0.2-0.3-0.4-0.4s-0.3-0.2-0.5-0.3s-0.4-0.1-0.6-0.1c-0.4,0-0.7,0.1-1,0.2
		c-0.3,0.1-0.5,0.4-0.7,0.6s-0.3,0.5-0.4,0.9c-0.1,0.3-0.1,0.7-0.1,1c0,0.3,0,0.6,0.1,1c0.1,0.3,0.2,0.6,0.4,0.8
		c0.2,0.2,0.4,0.4,0.7,0.6c0.3,0.1,0.6,0.2,1,0.2c0.5,0,0.9-0.2,1.2-0.5s0.5-0.7,0.5-1.3h1.7c0,0.5-0.2,0.9-0.3,1.3
		c-0.2,0.4-0.4,0.7-0.7,1c-0.3,0.3-0.7,0.5-1.1,0.6c-0.4,0.1-0.8,0.2-1.3,0.2c-0.6,0-1.1-0.1-1.6-0.3c-0.5-0.2-0.9-0.5-1.2-0.9
		c-0.3-0.4-0.6-0.8-0.8-1.3c-0.2-0.5-0.3-1-0.3-1.6c0-0.6,0.1-1.1,0.3-1.6c0.2-0.5,0.4-0.9,0.8-1.3c0.3-0.4,0.7-0.7,1.2-0.9
		c0.5-0.2,1-0.3,1.6-0.3c0.4,0,0.8,0.1,1.2,0.2c0.4,0.1,0.7,0.3,1,0.5c0.3,0.2,0.6,0.5,0.8,0.9c0.2,0.4,0.3,0.8,0.4,1.2h-1.7
		C595.5,23.6,595.5,23.5,595.4,23.3z"/>
	<path class="st1" d="M600.2,21.2v3h3.2v-3h1.7V29h-1.7v-3.4h-3.2V29h-1.7v-7.8H600.2z"/>
	<path class="st1" d="M614.4,29l-2.5-7.8h1.8l1.7,5.5h0l1.8-5.5h1.8l-2.6,7.8H614.4z"/>
	<path class="st1" d="M621.3,21.2V29h-1.7v-7.8H621.3z"/>
	<path class="st1" d="M626.2,21.2c0.5,0,1,0.1,1.4,0.2s0.8,0.4,1.1,0.7c0.3,0.3,0.6,0.7,0.7,1.2s0.3,1,0.3,1.7
		c0,0.6-0.1,1.1-0.2,1.6c-0.1,0.5-0.4,0.9-0.7,1.2s-0.7,0.6-1.1,0.8c-0.4,0.2-1,0.3-1.6,0.3h-3.4v-7.8H626.2z M626.1,27.6
		c0.2,0,0.5,0,0.7-0.1c0.2-0.1,0.4-0.2,0.6-0.4s0.3-0.4,0.4-0.7c0.1-0.3,0.2-0.7,0.2-1.1c0-0.4,0-0.8-0.1-1.1
		c-0.1-0.3-0.2-0.6-0.4-0.8c-0.2-0.2-0.4-0.4-0.7-0.5c-0.3-0.1-0.6-0.2-1.1-0.2h-1.2v4.9H626.1z"/>
	<path class="st1" d="M636.8,21.2v1.4h-4.1v1.7h3.8v1.3h-3.8v1.9h4.2V29h-5.9v-7.8H636.8z"/>
	<path class="st1" d="M638,23.5c0.2-0.5,0.4-0.9,0.8-1.3c0.3-0.4,0.7-0.7,1.2-0.9c0.5-0.2,1-0.3,1.6-0.3c0.6,0,1.1,0.1,1.6,0.3
		c0.5,0.2,0.9,0.5,1.2,0.9c0.3,0.4,0.6,0.8,0.8,1.3c0.2,0.5,0.3,1,0.3,1.6c0,0.6-0.1,1.1-0.3,1.6c-0.2,0.5-0.4,0.9-0.8,1.3
		c-0.3,0.4-0.7,0.7-1.2,0.9c-0.5,0.2-1,0.3-1.6,0.3c-0.6,0-1.1-0.1-1.6-0.3c-0.5-0.2-0.9-0.5-1.2-0.9c-0.3-0.4-0.6-0.8-0.8-1.3
		c-0.2-0.5-0.3-1-0.3-1.6C637.7,24.6,637.8,24,638,23.5z M639.5,26.1c0.1,0.3,0.2,0.6,0.4,0.8c0.2,0.2,0.4,0.4,0.7,0.6
		c0.3,0.1,0.6,0.2,1,0.2c0.4,0,0.7-0.1,1-0.2c0.3-0.1,0.5-0.3,0.7-0.6c0.2-0.2,0.3-0.5,0.4-0.8c0.1-0.3,0.1-0.6,0.1-1
		c0-0.3,0-0.7-0.1-1c-0.1-0.3-0.2-0.6-0.4-0.9s-0.4-0.5-0.7-0.6c-0.3-0.1-0.6-0.2-1-0.2c-0.4,0-0.7,0.1-1,0.2
		c-0.3,0.1-0.5,0.4-0.7,0.6s-0.3,0.5-0.4,0.9c-0.1,0.3-0.1,0.7-0.1,1C639.4,25.5,639.5,25.8,639.5,26.1z"/>
</g>
</svg>
