<?xml version="1.0" encoding="utf-8"?>
<!-- Generator: Adobe Illustrator 25.4.1, SVG Export Plug-In . SVG Version: 6.00 Build 0)  -->
<svg version="1.1" id="Layer_1" xmlns="http://www.w3.org/2000/svg" xmlns:xlink="http://www.w3.org/1999/xlink" x="0px" y="0px"
	 viewBox="0 0 728 90" style="enable-background:new 0 0 728 90;" xml:space="preserve">
<style type="text/css">
	.st0{fill:#349946;}
	.st1{fill:#231F20;}
</style>
<path class="st0" d="M520.7,80.1h-2.2l-0.7-2.1h-4.3l-0.7,2.1h-2.2l3.8-10h1.6c0.5,0,0.9,0.2,1,0.6c0.1,0.4,1.9,4.9,1.9,4.9h-2
	l-1.2-3.4l-1.6,4.3h4.3c0.6,0,0.9,0.2,1.1,0.7L520.7,80.1z"/>
<path class="st0" d="M539.7,80.1h-2.2l-0.7-2.1h-4.3l-0.7,2.1h-2.2l3.8-10h1.6c0.5,0,0.9,0.2,1,0.6c0.1,0.4,1.9,4.9,1.9,4.9h-2
	l-1.2-3.4l-1.6,4.3h4.3c0.6,0,0.9,0.2,1.1,0.7L539.7,80.1z"/>
<path class="st0" d="M521.4,70h3.9c3.1,0,4.6,1.6,4.6,5c0,1.9-0.6,3.3-1.6,4.1c-1,0.8-2.1,0.9-3.5,0.9h-3.4V70z M525.1,78.3
	c1.9,0,2.7-0.9,2.7-3.2c0-2.2-0.8-3.3-2.5-3.3h-1.9v6.5H525.1z"/>
<g>
	<path class="st1" d="M556.8,80h-1.6l-0.7-7.2l-2.4,7.2h-1.4l-2.5-7.2l-0.6,7.2h-1.5l0.9-9.5h1.8l2.6,7.3l2.5-7.3h1.8L556.8,80z"/>
	<path class="st1" d="M564.5,76.4c0,0.1,0,0.2,0,0.3c0,0.1,0,0.2,0,0.2h-4.7c0,0.5,0.1,0.9,0.4,1.3c0.4,0.4,0.9,0.6,1.5,0.6
		c0.6,0,1.2-0.2,1.9-0.5l0.5,1c-0.7,0.5-1.6,0.8-2.6,0.8c-1.1,0-1.9-0.3-2.5-1c-0.6-0.7-0.9-1.5-0.9-2.6c0-1.1,0.3-2,0.9-2.7
		c0.6-0.7,1.4-1,2.4-1c0.9,0,1.7,0.3,2.2,1S564.5,75.3,564.5,76.4z M563.1,75.8c0-0.4-0.1-0.8-0.3-1.1c-0.3-0.4-0.7-0.7-1.2-0.7
		c-0.5,0-0.9,0.2-1.2,0.5c-0.3,0.3-0.5,0.8-0.6,1.3H563.1z"/>
	<path class="st1" d="M575.9,80h-1.6v-3.9c0-0.8-0.1-1.3-0.3-1.5c-0.2-0.2-0.5-0.3-0.9-0.3c-0.5,0-1,0.2-1.6,0.5
		c0.1,0.2,0.1,0.7,0.1,1.6V80h-1.6v-3.8c0-0.9-0.1-1.5-0.3-1.7c-0.2-0.2-0.4-0.3-0.8-0.3c-0.5,0-1,0.2-1.5,0.5V80H566v-7h1.4v0.5
		c0.6-0.5,1.3-0.7,2-0.7c0.7,0,1.3,0.3,1.7,0.8c0.8-0.5,1.6-0.8,2.3-0.8c0.7,0,1.3,0.2,1.7,0.6c0.3,0.3,0.6,0.8,0.7,1.3
		c0.1,0.3,0.1,0.9,0.1,1.8V80z"/>
	<path class="st1" d="M584,76.4c0,1.1-0.3,2.1-1,2.8c-0.7,0.7-1.5,1.1-2.6,1.1c-0.8,0-1.7-0.2-2.7-0.5v-10h1.6v3.7
		c0.6-0.4,1.1-0.5,1.8-0.5c0.9,0,1.6,0.3,2.2,1S584,75.3,584,76.4z M582.4,76.4c0-0.7-0.2-1.3-0.5-1.7c-0.3-0.4-0.7-0.6-1.2-0.6
		c-0.5,0-1,0.2-1.5,0.5v4.1c0.4,0.1,0.8,0.2,1.2,0.2c0.6,0,1.1-0.2,1.5-0.7C582.3,77.7,582.4,77.1,582.4,76.4z"/>
	<path class="st1" d="M591.5,76.4c0,0.1,0,0.2,0,0.3c0,0.1,0,0.2,0,0.2h-4.7c0,0.5,0.1,0.9,0.4,1.3c0.4,0.4,0.9,0.6,1.5,0.6
		c0.6,0,1.2-0.2,1.9-0.5l0.5,1c-0.7,0.5-1.6,0.8-2.6,0.8c-1.1,0-1.9-0.3-2.5-1c-0.6-0.7-0.9-1.5-0.9-2.6c0-1.1,0.3-2,0.9-2.7
		c0.6-0.7,1.4-1,2.4-1c0.9,0,1.7,0.3,2.2,1S591.5,75.3,591.5,76.4z M590,75.8c0-0.4-0.1-0.8-0.3-1.1c-0.3-0.4-0.7-0.7-1.2-0.7
		c-0.5,0-0.9,0.2-1.2,0.5c-0.3,0.3-0.5,0.8-0.6,1.3H590z"/>
	<path class="st1" d="M597.4,73l-0.4,1.2c-0.1,0-0.3,0-0.5,0c-0.8,0-1.5,0.4-2,1.1V80H593v-7h1.4v0.9c0.1-0.2,0.3-0.4,0.6-0.6
		c0.5-0.3,1-0.5,1.6-0.5C596.9,72.8,597.1,72.9,597.4,73z"/>
</g>
<g>
	<path class="st1" d="M603.1,78c0,0.7-0.2,1.2-0.7,1.6s-1.1,0.6-1.9,0.6c-0.6,0-1.2-0.1-1.8-0.3c-0.4-0.1-0.6-0.3-0.7-0.4l0.6-1
		c0.7,0.4,1.3,0.5,1.8,0.5c0.4,0,0.7-0.1,0.9-0.2c0.2-0.2,0.3-0.4,0.3-0.6s-0.1-0.5-0.4-0.6c-0.1-0.1-0.5-0.3-1.1-0.5
		c-0.6-0.2-1-0.5-1.2-0.7c-0.4-0.4-0.6-0.8-0.6-1.4c0-0.6,0.2-1.1,0.7-1.5c0.5-0.4,1.1-0.6,1.9-0.6c1,0,1.7,0.2,2.3,0.6l-0.5,1
		c-0.6-0.3-1.1-0.5-1.6-0.5c-0.7,0-1.1,0.3-1.1,0.8c0,0.2,0.1,0.4,0.4,0.6c0.1,0.1,0.4,0.2,0.9,0.4c0.7,0.3,1.2,0.5,1.4,0.7
		C602.9,76.9,603.1,77.4,603.1,78z"/>
	<path class="st1" d="M609.9,80h-1.7v-9.5h1.7V80z"/>
	<path class="st1" d="M617.8,80h-1.6v-3.8c0-0.9-0.1-1.5-0.3-1.7c-0.2-0.2-0.5-0.3-0.9-0.3c-0.5,0-1,0.2-1.6,0.5V80h-1.6v-7h1.4v0.5
		c0.7-0.5,1.3-0.7,2.1-0.7c0.7,0,1.3,0.2,1.7,0.6c0.3,0.3,0.5,0.7,0.6,1.2c0.1,0.3,0.1,0.8,0.1,1.4V80z"/>
	<path class="st1" d="M624.2,78c0,0.7-0.2,1.2-0.7,1.6s-1.1,0.6-1.9,0.6c-0.6,0-1.2-0.1-1.8-0.3c-0.4-0.1-0.6-0.3-0.7-0.4l0.6-1
		c0.7,0.4,1.3,0.5,1.8,0.5c0.4,0,0.7-0.1,0.9-0.2c0.2-0.2,0.3-0.4,0.3-0.6s-0.1-0.5-0.4-0.6c-0.1-0.1-0.5-0.3-1.1-0.5
		c-0.6-0.2-1-0.5-1.2-0.7c-0.4-0.4-0.6-0.8-0.6-1.4c0-0.6,0.2-1.1,0.7-1.5c0.5-0.4,1.1-0.6,1.9-0.6c1,0,1.7,0.2,2.3,0.6l-0.5,1
		c-0.6-0.3-1.1-0.5-1.6-0.5c-0.7,0-1.1,0.3-1.1,0.8c0,0.2,0.1,0.4,0.4,0.6c0.1,0.1,0.4,0.2,0.9,0.4c0.7,0.3,1.2,0.5,1.4,0.7
		C624,76.9,624.2,77.4,624.2,78z"/>
	<path class="st1" d="M631.6,80h-1.4v-0.5c-0.6,0.5-1.3,0.7-2.1,0.7c-0.7,0-1.3-0.2-1.7-0.6c-0.3-0.3-0.5-0.7-0.6-1.2
		c-0.1-0.3-0.1-0.8-0.1-1.4V73h1.6v3.8c0,0.5,0,0.8,0,0.9c0,0.4,0.2,0.7,0.4,0.8c0.2,0.2,0.5,0.2,0.8,0.2c0.4,0,0.9-0.2,1.5-0.5V73
		h1.6V80z"/>
	<path class="st1" d="M637.9,73l-0.4,1.2c-0.1,0-0.3,0-0.5,0c-0.8,0-1.5,0.4-2,1.1V80h-1.6v-7h1.4v0.9c0.1-0.2,0.3-0.4,0.6-0.6
		c0.5-0.3,1-0.5,1.6-0.5C637.4,72.8,637.6,72.9,637.9,73z"/>
</g>
<g>
	<path class="st1" d="M644,80h-1.4v-0.5c-0.7,0.4-1.4,0.7-2.1,0.7c-0.7,0-1.2-0.2-1.6-0.6c-0.4-0.4-0.6-0.9-0.6-1.6
		c0-1.6,1.3-2.4,3.9-2.4h0.3v-0.3c0-0.4-0.1-0.7-0.2-0.9c-0.2-0.2-0.6-0.3-1.1-0.3c-0.6,0-1.2,0.2-1.9,0.5l-0.5-1
		c0.2-0.1,0.4-0.3,0.7-0.4c0.6-0.2,1.2-0.3,1.8-0.3c1,0,1.7,0.2,2.2,0.7c0.2,0.2,0.4,0.6,0.5,0.9c0,0.2,0.1,0.6,0.1,1.2V80z
		 M642.5,78.5v-1.8h-0.3c-1.1,0-1.8,0.2-2.2,0.5c-0.2,0.2-0.3,0.4-0.3,0.7c0,0.3,0.1,0.6,0.3,0.8c0.2,0.2,0.5,0.3,0.9,0.3
		C641.4,78.9,641.9,78.8,642.5,78.5z"/>
	<path class="st1" d="M651.6,80h-1.6v-3.8c0-0.9-0.1-1.5-0.3-1.7c-0.2-0.2-0.5-0.3-0.9-0.3c-0.5,0-1,0.2-1.6,0.5V80h-1.6v-7h1.4v0.5
		c0.7-0.5,1.3-0.7,2.1-0.7c0.7,0,1.3,0.2,1.7,0.6c0.3,0.3,0.5,0.7,0.6,1.2c0.1,0.3,0.1,0.8,0.1,1.4V80z"/>
	<path class="st1" d="M659,79.4c-0.1,0.1-0.3,0.3-0.7,0.4c-0.6,0.3-1.2,0.4-1.8,0.4c-1,0-1.9-0.3-2.5-1c-0.6-0.7-1-1.5-1-2.6
		c0-1.1,0.3-2,1-2.7c0.7-0.7,1.5-1.1,2.6-1.1c0.6,0,1.1,0.1,1.6,0.4c0.3,0.2,0.6,0.3,0.7,0.4l-0.6,1c-0.5-0.3-1-0.5-1.6-0.5
		c-0.6,0-1.2,0.2-1.6,0.7c-0.4,0.4-0.6,1-0.6,1.6c0,0.7,0.2,1.3,0.5,1.7c0.4,0.4,0.9,0.7,1.5,0.7c0.5,0,1.1-0.2,1.8-0.5L659,79.4z"
		/>
</g>
<g>
	<path class="st1" d="M666,76.4c0,0.1,0,0.2,0,0.3c0,0.1,0,0.2,0,0.2h-4.7c0,0.5,0.1,0.9,0.4,1.3c0.4,0.4,0.9,0.6,1.5,0.6
		c0.6,0,1.2-0.2,1.9-0.5l0.5,1c-0.7,0.5-1.6,0.8-2.6,0.8c-1.1,0-1.9-0.3-2.5-1c-0.6-0.7-0.9-1.5-0.9-2.6c0-1.1,0.3-2,0.9-2.7
		c0.6-0.7,1.4-1,2.4-1c0.9,0,1.7,0.3,2.2,1S666,75.3,666,76.4z M664.5,75.8c0-0.4-0.1-0.8-0.3-1.1c-0.3-0.4-0.7-0.7-1.2-0.7
		c-0.5,0-0.9,0.2-1.2,0.5c-0.3,0.3-0.5,0.8-0.6,1.3H664.5z"/>
	<path class="st1" d="M677.5,73.3c0,0.9-0.3,1.6-0.8,2.1c-0.4,0.4-0.9,0.7-1.5,0.8c-0.4,0.1-0.9,0.1-1.8,0.1h-0.7V80h-1.6v-9.5h2.5
		c0.8,0,1.3,0,1.7,0.1c0.6,0.1,1,0.3,1.3,0.7C677.2,71.8,677.5,72.5,677.5,73.3z M675.8,73.4c0-0.5-0.1-0.9-0.4-1.2
		c-0.3-0.3-0.8-0.4-1.8-0.4h-0.9V75h0.7c1,0,1.7-0.1,2-0.4C675.7,74.3,675.8,73.9,675.8,73.4z"/>
	<path class="st1" d="M680.7,80h-1.6V69.7h1.6V80z"/>
	<path class="st1" d="M687.9,80h-1.4v-0.5c-0.7,0.4-1.4,0.7-2.1,0.7c-0.7,0-1.2-0.2-1.6-0.6c-0.4-0.4-0.6-0.9-0.6-1.6
		c0-1.6,1.3-2.4,3.9-2.4h0.3v-0.3c0-0.4-0.1-0.7-0.2-0.9c-0.2-0.2-0.6-0.3-1.1-0.3c-0.6,0-1.2,0.2-1.9,0.5l-0.5-1
		c0.2-0.1,0.4-0.3,0.7-0.4c0.6-0.2,1.2-0.3,1.8-0.3c1,0,1.7,0.2,2.2,0.7c0.2,0.2,0.4,0.6,0.5,0.9c0,0.2,0.1,0.6,0.1,1.2V80z
		 M686.4,78.5v-1.8H686c-1.1,0-1.8,0.2-2.2,0.5c-0.2,0.2-0.3,0.4-0.3,0.7c0,0.3,0.1,0.6,0.3,0.8c0.2,0.2,0.5,0.3,0.9,0.3
		C685.3,78.9,685.8,78.8,686.4,78.5z"/>
	<path class="st1" d="M695.5,80h-1.6v-3.8c0-0.9-0.1-1.5-0.3-1.7c-0.2-0.2-0.5-0.3-0.9-0.3c-0.5,0-1,0.2-1.6,0.5V80h-1.6v-7h1.4v0.5
		c0.7-0.5,1.3-0.7,2.1-0.7c0.7,0,1.3,0.2,1.7,0.6c0.3,0.3,0.5,0.7,0.6,1.2c0.1,0.3,0.1,0.8,0.1,1.4V80z"/>
	<path class="st1" d="M701.9,78c0,0.7-0.2,1.2-0.7,1.6s-1.1,0.6-1.9,0.6c-0.6,0-1.2-0.1-1.8-0.3c-0.4-0.1-0.6-0.3-0.7-0.4l0.6-1
		c0.7,0.4,1.3,0.5,1.8,0.5c0.4,0,0.7-0.1,0.9-0.2c0.2-0.2,0.3-0.4,0.3-0.6s-0.1-0.5-0.4-0.6c-0.1-0.1-0.5-0.3-1.1-0.5
		c-0.6-0.2-1-0.5-1.2-0.7c-0.4-0.4-0.6-0.8-0.6-1.4c0-0.6,0.2-1.1,0.7-1.5c0.5-0.4,1.1-0.6,1.9-0.6c1,0,1.7,0.2,2.3,0.6l-0.5,1
		c-0.6-0.3-1.1-0.5-1.6-0.5c-0.7,0-1.1,0.3-1.1,0.8c0,0.2,0.1,0.4,0.4,0.6c0.1,0.1,0.4,0.2,0.9,0.4c0.7,0.3,1.2,0.5,1.4,0.7
		C701.6,76.9,701.9,77.4,701.9,78z"/>
</g>
<path class="st0" d="M541.1,80.1c-0.7,0-1.2-0.5-1.2-1.2s0.5-1.2,1.2-1.2s1.2,0.5,1.2,1.2S541.8,80.1,541.1,80.1 M541.1,78
	c-0.5,0-0.9,0.4-0.9,0.9s0.4,0.9,0.9,0.9s0.9-0.4,0.9-0.9S541.6,78,541.1,78 M541.4,79.5l-0.1-0.3c-0.1-0.2-0.1-0.2-0.3-0.2h0v0.5
	h-0.2v-1.2h0.3c0.2,0,0.3,0,0.4,0.1c0.1,0.1,0.1,0.2,0.1,0.3c0,0.1-0.1,0.2-0.2,0.3c0.1,0,0.1,0.1,0.1,0.1l0.2,0.4H541.4z
	 M541.2,78.5c-0.1,0-0.1,0-0.2,0H541v0.3c0.1,0,0.2,0,0.2,0c0.1,0,0.1-0.1,0.1-0.2C541.3,78.6,541.3,78.5,541.2,78.5"/>
</svg>
