<?xml version="1.0" encoding="utf-8"?>
<!-- Generator: Adobe Illustrator 25.4.1, SVG Export Plug-In . SVG Version: 6.00 Build 0)  -->
<svg version="1.1" id="Layer_1" xmlns="http://www.w3.org/2000/svg" xmlns:xlink="http://www.w3.org/1999/xlink" x="0px" y="0px"
	 viewBox="0 0 728 90" style="enable-background:new 0 0 728 90;" xml:space="preserve">
<style type="text/css">
	.st0{clip-path:url(#SVGID_00000109734301377113270010000007760929433896150455_);fill:#231F20;}
	.st1{clip-path:url(#SVGID_00000109734301377113270010000007760929433896150455_);fill:#22B0E6;}
</style>
<g>
	<defs>
		<rect id="SVGID_1_" x="574" y="42" width="64.2" height="21.8"/>
	</defs>
	<clipPath id="SVGID_00000013880833238279034090000007186709046018307248_">
		<use xlink:href="#SVGID_1_"  style="overflow:visible;"/>
	</clipPath>
	<path style="clip-path:url(#SVGID_00000013880833238279034090000007186709046018307248_);fill:#231F20;" d="M574.4,53.7h3.4
		c2.7,0,3.3,1.8,3.3,3c0,1.2-0.5,2.9-3.3,2.9h-1.8v3.7h-1.7V53.7z M576.1,58.3h1.7c0.8,0,1.7-0.4,1.7-1.6c0-1.3-0.8-1.6-1.6-1.6
		h-1.7V58.3z"/>
	<path style="clip-path:url(#SVGID_00000013880833238279034090000007186709046018307248_);fill:#231F20;" d="M582.1,56.4h1.4v1.3h0
		c0.2-0.7,1.1-1.5,2-1.5c0.3,0,0.4,0,0.6,0v1.5c-0.2,0-0.4-0.1-0.7-0.1c-1,0-1.9,0.8-1.9,2.4v3.3h-1.5V56.4z"/>
	<path style="clip-path:url(#SVGID_00000013880833238279034090000007186709046018307248_);fill:#231F20;" d="M586.4,59.8
		c0-2.1,1.3-3.6,3.5-3.6c2.2,0,3.5,1.5,3.5,3.6c0,2.1-1.3,3.7-3.5,3.7C587.6,63.5,586.4,62,586.4,59.8 M591.8,59.8
		c0-1.2-0.6-2.4-2-2.4s-2,1.2-2,2.4c0,1.2,0.6,2.5,2,2.5S591.8,61,591.8,59.8"/>
	<path style="clip-path:url(#SVGID_00000013880833238279034090000007186709046018307248_);fill:#231F20;" d="M593.6,56.4h1.2v-2.1
		h1.5v2.1h1.4v1.1h-1.4v3.7c0,0.6,0.1,1,0.7,1c0.2,0,0.4,0,0.6-0.1v1.2c-0.3,0-0.7,0.1-1,0.1c-1.6,0-1.9-0.6-1.9-1.8v-4.1h-1.2V56.4
		z"/>
	<path style="clip-path:url(#SVGID_00000013880833238279034090000007186709046018307248_);fill:#231F20;" d="M599.8,60.2
		c0,1.1,0.6,2,1.9,2c0.9,0,1.4-0.4,1.7-1.2h1.4c-0.3,1.5-1.6,2.4-3.1,2.4c-2.2,0-3.4-1.5-3.4-3.6c0-2,1.3-3.7,3.4-3.7
		c2.2,0,3.5,2,3.3,4H599.8z M603.4,59.2c-0.1-1-0.7-1.8-1.7-1.8c-1.1,0-1.8,0.8-1.8,1.8H603.4z"/>
	<path style="clip-path:url(#SVGID_00000013880833238279034090000007186709046018307248_);fill:#231F20;" d="M610.7,58.7
		c-0.1-0.8-0.7-1.3-1.6-1.3c-0.8,0-1.9,0.4-1.9,2.5c0,1.2,0.5,2.4,1.8,2.4c0.9,0,1.5-0.6,1.6-1.6h1.5c-0.3,1.8-1.4,2.8-3.2,2.8
		c-2.2,0-3.4-1.5-3.4-3.6c0-2.1,1.1-3.7,3.4-3.7c1.6,0,3,0.8,3.1,2.5H610.7z"/>
	<path style="clip-path:url(#SVGID_00000013880833238279034090000007186709046018307248_);fill:#231F20;" d="M612.6,56.4h1.2v-2.1
		h1.5v2.1h1.4v1.1h-1.4v3.7c0,0.6,0.1,1,0.7,1c0.2,0,0.4,0,0.6-0.1v1.2c-0.3,0-0.7,0.1-1,0.1c-1.6,0-1.9-0.6-1.9-1.8v-4.1h-1.2V56.4
		z"/>
	<path style="clip-path:url(#SVGID_00000013880833238279034090000007186709046018307248_);fill:#231F20;" d="M618.5,53.7h1.5v1.4
		h-1.5V53.7z M618.5,56.4h1.5v6.9h-1.5V56.4z"/>
	<polygon style="clip-path:url(#SVGID_00000013880833238279034090000007186709046018307248_);fill:#231F20;" points="621.1,56.4 
		622.7,56.4 624.9,61.7 624.9,61.7 627,56.4 628.6,56.4 625.7,63.3 624,63.3 	"/>
	<path style="clip-path:url(#SVGID_00000013880833238279034090000007186709046018307248_);fill:#231F20;" d="M630.5,60.2
		c0,1.1,0.6,2,1.9,2c0.9,0,1.4-0.4,1.7-1.2h1.4c-0.3,1.5-1.6,2.4-3.1,2.4c-2.2,0-3.4-1.5-3.4-3.6c0-2,1.3-3.7,3.3-3.7
		c2.2,0,3.5,2,3.3,4H630.5z M634.1,59.2c-0.1-1-0.7-1.8-1.7-1.8c-1.1,0-1.8,0.8-1.8,1.8H634.1z"/>
	<path style="clip-path:url(#SVGID_00000013880833238279034090000007186709046018307248_);fill:#22B0E6;" d="M615.6,52.1
		c-1-3.8-4-6.8-7.8-7.8c-0.3-1.2-1.4-2-2.7-2c-1.3,0-2.4,0.9-2.7,2c-3.8,1-6.8,3.9-7.8,7.8l-0.1,0.4h2.3l0.1-0.2
		c0.9-2.8,3.1-4.9,5.8-5.7c0.5,0.8,1.4,1.4,2.4,1.4c1,0,2-0.6,2.5-1.4c2.7,0.8,4.9,2.9,5.8,5.7l0.1,0.2h2.3L615.6,52.1z"/>
	<path style="clip-path:url(#SVGID_00000013880833238279034090000007186709046018307248_);fill:#231F20;" d="M637.2,62.1
		c0.4,0,0.7,0.3,0.7,0.7s-0.3,0.7-0.7,0.7c-0.4,0-0.7-0.3-0.7-0.7S636.8,62.1,637.2,62.1 M637.7,62.8c0-0.3-0.2-0.6-0.6-0.6
		s-0.6,0.3-0.6,0.6c0,0.3,0.2,0.6,0.6,0.6S637.7,63.1,637.7,62.8 M636.9,62.4h0.3c0.2,0,0.3,0.1,0.3,0.2c0,0.1-0.1,0.2-0.2,0.2
		l0.2,0.3h-0.1l-0.2-0.3H637v0.3h-0.1V62.4z M637.2,62.8c0.1,0,0.2,0,0.2-0.1c0-0.1-0.1-0.1-0.2-0.1H637v0.2H637.2z"/>
</g>
</svg>
