<?xml version="1.0" encoding="utf-8"?>
<!-- Generator: Adobe Illustrator 25.4.1, SVG Export Plug-In . SVG Version: 6.00 Build 0)  -->
<svg version="1.1" id="Layer_1" xmlns="http://www.w3.org/2000/svg" xmlns:xlink="http://www.w3.org/1999/xlink" x="0px" y="0px"
	 viewBox="0 0 300 250" style="enable-background:new 0 0 300 250;" xml:space="preserve">
<style type="text/css">
	.st0{fill:#349946;}
</style>
<path d="M26.7,44l5.9,15.7H29l-1.2-3.5H22l-1.2,3.5h-3.5L23.2,44H26.7z M26.9,53.6l-2-5.8h0l-2,5.8H26.9z M36.2,48.3v1.6h0.1
	c0.4-0.7,0.9-1.1,1.5-1.4c0.6-0.3,1.3-0.5,1.9-0.5c0.8,0,1.5,0.1,2.1,0.3c0.5,0.2,1,0.5,1.3,0.9c0.3,0.4,0.5,0.9,0.6,1.5
	c0.1,0.6,0.2,1.2,0.2,1.9v7h-3.1v-6.4c0-0.9-0.1-1.6-0.4-2.1c-0.3-0.5-0.8-0.7-1.6-0.7c-0.9,0-1.5,0.3-1.8,0.8
	c-0.4,0.5-0.6,1.3-0.6,2.5v6h-3.1V48.3H36.2z M53.9,58.2c-0.4,0.6-0.8,1.1-1.4,1.3c-0.6,0.3-1.3,0.4-2,0.4c-0.9,0-1.6-0.2-2.2-0.5
	c-0.6-0.3-1.2-0.8-1.6-1.3c-0.4-0.6-0.7-1.2-0.9-1.9c-0.2-0.7-0.3-1.5-0.3-2.3c0-0.8,0.1-1.5,0.3-2.2c0.2-0.7,0.5-1.3,0.9-1.9
	c0.4-0.5,0.9-1,1.6-1.3c0.6-0.3,1.4-0.5,2.2-0.5c0.7,0,1.3,0.1,1.9,0.4c0.6,0.3,1.1,0.7,1.4,1.3h0V44h3.1v15.7h-3L53.9,58.2
	L53.9,58.2z M53.8,52.6c-0.1-0.4-0.2-0.8-0.5-1.1c-0.2-0.3-0.5-0.6-0.8-0.8c-0.3-0.2-0.8-0.3-1.3-0.3c-0.5,0-0.9,0.1-1.3,0.3
	c-0.4,0.2-0.6,0.5-0.8,0.8c-0.2,0.3-0.4,0.7-0.5,1.2c-0.1,0.4-0.1,0.9-0.1,1.4c0,0.4,0.1,0.9,0.2,1.3c0.1,0.4,0.3,0.8,0.5,1.2
	c0.2,0.3,0.5,0.6,0.9,0.8c0.3,0.2,0.8,0.3,1.2,0.3c0.5,0,0.9-0.1,1.3-0.3c0.3-0.2,0.6-0.5,0.8-0.8c0.2-0.3,0.4-0.7,0.4-1.2
	s0.1-0.9,0.1-1.4C53.9,53.5,53.8,53.1,53.8,52.6z M63.3,50.4v-2.1h1.9v-0.9c0-1,0.3-1.8,0.9-2.5c0.6-0.6,1.6-1,2.9-1
	c0.3,0,0.6,0,0.8,0c0.3,0,0.5,0,0.8,0.1v2.3c-0.4,0-0.7-0.1-1.1-0.1c-0.4,0-0.7,0.1-0.9,0.3c-0.2,0.2-0.3,0.5-0.3,1v0.7h2.2v2.1
	h-2.2v9.3h-3.1v-9.3H63.3z M72.4,46.6V44h3.1v2.6H72.4z M75.5,48.3v11.4h-3.1V48.3H75.5z M80.5,48.3v1.6h0.1
	c0.4-0.7,0.9-1.1,1.5-1.4c0.6-0.3,1.3-0.5,1.9-0.5c0.8,0,1.5,0.1,2.1,0.3c0.5,0.2,1,0.5,1.3,0.9c0.3,0.4,0.5,0.9,0.6,1.5
	c0.1,0.6,0.2,1.2,0.2,1.9v7H85v-6.4c0-0.9-0.1-1.6-0.4-2.1c-0.3-0.5-0.8-0.7-1.6-0.7c-0.9,0-1.5,0.3-1.8,0.8
	c-0.4,0.5-0.6,1.3-0.6,2.5v6h-3.1V48.3H80.5z M98.2,58.2c-0.4,0.6-0.8,1.1-1.4,1.3c-0.6,0.3-1.3,0.4-2,0.4c-0.9,0-1.6-0.2-2.2-0.5
	c-0.6-0.3-1.2-0.8-1.6-1.3c-0.4-0.6-0.7-1.2-0.9-1.9c-0.2-0.7-0.3-1.5-0.3-2.3c0-0.8,0.1-1.5,0.3-2.2c0.2-0.7,0.5-1.3,0.9-1.9
	c0.4-0.5,0.9-1,1.6-1.3c0.6-0.3,1.4-0.5,2.2-0.5c0.7,0,1.3,0.1,1.9,0.4c0.6,0.3,1.1,0.7,1.4,1.3h0V44h3.1v15.7h-3L98.2,58.2
	L98.2,58.2z M98,52.6c-0.1-0.4-0.2-0.8-0.5-1.1c-0.2-0.3-0.5-0.6-0.8-0.8c-0.3-0.2-0.8-0.3-1.3-0.3c-0.5,0-0.9,0.1-1.3,0.3
	c-0.4,0.2-0.6,0.5-0.8,0.8c-0.2,0.3-0.4,0.7-0.5,1.2c-0.1,0.4-0.1,0.9-0.1,1.4c0,0.4,0.1,0.9,0.2,1.3c0.1,0.4,0.3,0.8,0.5,1.2
	c0.2,0.3,0.5,0.6,0.9,0.8c0.3,0.2,0.8,0.3,1.2,0.3c0.5,0,0.9-0.1,1.3-0.3c0.3-0.2,0.6-0.5,0.8-0.8c0.2-0.3,0.4-0.7,0.4-1.2
	c0.1-0.4,0.1-0.9,0.1-1.4C98.2,53.5,98.1,53.1,98,52.6z M115,48.3v2.1h-2.3V56c0,0.5,0.1,0.9,0.3,1.1c0.2,0.2,0.5,0.3,1.1,0.3
	c0.2,0,0.3,0,0.5,0c0.2,0,0.3,0,0.5-0.1v2.4c-0.3,0-0.6,0.1-0.9,0.1c-0.3,0-0.6,0-0.9,0c-0.5,0-0.9,0-1.4-0.1
	c-0.4-0.1-0.8-0.2-1.1-0.4c-0.3-0.2-0.6-0.5-0.8-0.8c-0.2-0.4-0.3-0.8-0.3-1.4v-6.7h-1.9v-2.1h1.9v-3.4h3.1v3.4H115z M119.2,44v5.9
	h0.1c0.4-0.7,0.9-1.1,1.5-1.4c0.6-0.3,1.2-0.5,1.8-0.5c0.8,0,1.5,0.1,2.1,0.3c0.5,0.2,1,0.5,1.3,0.9c0.3,0.4,0.5,0.9,0.6,1.5
	c0.1,0.6,0.2,1.2,0.2,1.9v7h-3.1v-6.4c0-0.9-0.1-1.6-0.4-2.1c-0.3-0.5-0.8-0.7-1.6-0.7c-0.9,0-1.5,0.3-1.8,0.8
	c-0.4,0.5-0.6,1.3-0.6,2.5v6h-3.1V44H119.2z M132,57c0.5,0.5,1.1,0.7,2,0.7c0.6,0,1.2-0.2,1.6-0.5c0.5-0.3,0.7-0.6,0.8-1h2.8
	c-0.4,1.4-1.1,2.3-2,2.9c-0.9,0.6-2,0.9-3.3,0.9c-0.9,0-1.7-0.1-2.4-0.4c-0.7-0.3-1.3-0.7-1.8-1.2c-0.5-0.5-0.9-1.2-1.2-1.9
	c-0.3-0.7-0.4-1.5-0.4-2.4c0-0.9,0.1-1.6,0.4-2.4c0.3-0.7,0.7-1.4,1.2-1.9c0.5-0.5,1.1-1,1.8-1.3c0.7-0.3,1.5-0.5,2.4-0.5
	c1,0,1.8,0.2,2.5,0.6c0.7,0.4,1.3,0.9,1.8,1.5c0.5,0.6,0.8,1.3,1,2.2c0.2,0.8,0.3,1.7,0.2,2.5h-8.2C131.3,55.8,131.6,56.5,132,57z
	 M135.6,51c-0.4-0.4-0.9-0.6-1.7-0.6c-0.5,0-0.9,0.1-1.2,0.3c-0.3,0.2-0.6,0.4-0.8,0.6c-0.2,0.2-0.3,0.5-0.4,0.8
	c-0.1,0.3-0.1,0.5-0.1,0.7h5.1C136.2,52,135.9,51.4,135.6,51z M149.7,44v5.7h0c0.4-0.6,0.9-1,1.6-1.3c0.7-0.3,1.3-0.4,2-0.4
	c0.6,0,1.1,0.1,1.7,0.4c0.6,0.2,1.1,0.6,1.5,1.1c0.4,0.5,0.8,1.1,1.1,1.9c0.3,0.8,0.4,1.7,0.4,2.7c0,1-0.1,1.9-0.4,2.7
	c-0.3,0.8-0.6,1.4-1.1,1.9c-0.4,0.5-0.9,0.8-1.5,1.1c-0.6,0.2-1.1,0.4-1.7,0.4c-0.8,0-1.6-0.1-2.2-0.4c-0.7-0.3-1.2-0.7-1.5-1.3h0
	v1.5h-3V44H149.7z M154.7,52.6c-0.1-0.4-0.3-0.8-0.5-1.2c-0.2-0.3-0.5-0.6-0.8-0.8s-0.7-0.3-1.2-0.3c-0.5,0-0.9,0.1-1.2,0.3
	c-0.3,0.2-0.6,0.5-0.8,0.8c-0.2,0.3-0.4,0.7-0.5,1.2c-0.1,0.4-0.2,0.9-0.2,1.4c0,0.5,0.1,0.9,0.2,1.4c0.1,0.4,0.3,0.8,0.5,1.2
	c0.2,0.3,0.5,0.6,0.8,0.8c0.3,0.2,0.7,0.3,1.2,0.3c0.5,0,0.9-0.1,1.2-0.3s0.6-0.5,0.8-0.8c0.2-0.3,0.4-0.7,0.5-1.2
	c0.1-0.4,0.2-0.9,0.2-1.4C154.9,53.5,154.8,53.1,154.7,52.6z M162.9,57c0.5,0.5,1.1,0.7,2,0.7c0.6,0,1.2-0.2,1.6-0.5
	c0.5-0.3,0.7-0.6,0.8-1h2.8c-0.4,1.4-1.1,2.3-2,2.9c-0.9,0.6-2,0.9-3.3,0.9c-0.9,0-1.7-0.1-2.4-0.4c-0.7-0.3-1.3-0.7-1.8-1.2
	c-0.5-0.5-0.9-1.2-1.2-1.9c-0.3-0.7-0.4-1.5-0.4-2.4c0-0.9,0.1-1.6,0.4-2.4c0.3-0.7,0.7-1.4,1.2-1.9c0.5-0.5,1.1-1,1.8-1.3
	c0.7-0.3,1.5-0.5,2.4-0.5c1,0,1.8,0.2,2.5,0.6c0.7,0.4,1.3,0.9,1.8,1.5c0.5,0.6,0.8,1.3,1,2.2c0.2,0.8,0.3,1.7,0.2,2.5h-8.2
	C162.2,55.8,162.4,56.5,162.9,57z M166.4,51c-0.4-0.4-0.9-0.6-1.7-0.6c-0.5,0-0.9,0.1-1.2,0.3c-0.3,0.2-0.6,0.4-0.8,0.6
	c-0.2,0.2-0.3,0.5-0.4,0.8c-0.1,0.3-0.1,0.5-0.1,0.7h5.1C167.1,52,166.8,51.4,166.4,51z M174.4,56.9c0.1,0.2,0.3,0.4,0.5,0.6
	c0.2,0.2,0.5,0.3,0.8,0.3c0.3,0.1,0.6,0.1,0.9,0.1c0.2,0,0.5,0,0.7-0.1c0.2-0.1,0.5-0.1,0.7-0.2c0.2-0.1,0.4-0.3,0.5-0.4
	c0.1-0.2,0.2-0.4,0.2-0.7c0-0.5-0.3-0.8-0.9-1.1c-0.6-0.2-1.5-0.5-2.6-0.7c-0.5-0.1-0.9-0.2-1.3-0.4c-0.4-0.1-0.8-0.3-1.2-0.6
	c-0.3-0.2-0.6-0.5-0.8-0.9c-0.2-0.3-0.3-0.8-0.3-1.3c0-0.7,0.1-1.3,0.4-1.8c0.3-0.5,0.7-0.8,1.1-1.1c0.5-0.3,1-0.5,1.6-0.6
	c0.6-0.1,1.2-0.2,1.8-0.2c0.6,0,1.2,0.1,1.8,0.2c0.6,0.1,1.1,0.3,1.6,0.6c0.5,0.3,0.8,0.6,1.1,1.1c0.3,0.5,0.5,1,0.5,1.7h-3
	c0-0.6-0.3-1-0.7-1.2c-0.4-0.2-0.9-0.3-1.5-0.3c-0.2,0-0.4,0-0.6,0c-0.2,0-0.4,0.1-0.6,0.1c-0.2,0.1-0.3,0.2-0.4,0.3
	c-0.1,0.1-0.2,0.3-0.2,0.6c0,0.3,0.1,0.5,0.3,0.7c0.2,0.2,0.5,0.3,0.8,0.4c0.3,0.1,0.7,0.2,1.1,0.3c0.4,0.1,0.9,0.2,1.3,0.3
	c0.5,0.1,0.9,0.2,1.3,0.4c0.4,0.1,0.8,0.3,1.2,0.6c0.3,0.2,0.6,0.5,0.8,0.9c0.2,0.4,0.3,0.8,0.3,1.3c0,0.7-0.2,1.4-0.5,1.9
	c-0.3,0.5-0.7,0.9-1.2,1.2c-0.5,0.3-1,0.5-1.7,0.6c-0.6,0.1-1.3,0.2-1.9,0.2c-0.7,0-1.3-0.1-1.9-0.2c-0.6-0.1-1.2-0.4-1.7-0.7
	c-0.5-0.3-0.9-0.7-1.2-1.2c-0.3-0.5-0.5-1.1-0.5-1.9h3C174.2,56.3,174.2,56.6,174.4,56.9z M189.4,48.3v2.1h-2.3V56
	c0,0.5,0.1,0.9,0.3,1.1c0.2,0.2,0.5,0.3,1.1,0.3c0.2,0,0.3,0,0.5,0c0.2,0,0.3,0,0.5-0.1v2.4c-0.3,0-0.6,0.1-0.9,0.1
	c-0.3,0-0.6,0-0.9,0c-0.5,0-0.9,0-1.4-0.1c-0.4-0.1-0.8-0.2-1.1-0.4c-0.3-0.2-0.6-0.5-0.8-0.8c-0.2-0.4-0.3-0.8-0.3-1.4v-6.7h-1.9
	v-2.1h1.9v-3.4h3.1v3.4H189.4z M199.1,48.3v2.1h0c0.1-0.4,0.3-0.7,0.6-1c0.2-0.3,0.5-0.6,0.9-0.8c0.3-0.2,0.7-0.4,1-0.5
	c0.4-0.1,0.7-0.2,1.1-0.2c0.2,0,0.4,0,0.7,0.1V51c-0.1,0-0.3-0.1-0.5-0.1c-0.2,0-0.4,0-0.6,0c-0.6,0-1.1,0.1-1.5,0.3
	c-0.4,0.2-0.7,0.5-1,0.8s-0.4,0.7-0.5,1.2c-0.1,0.4-0.2,0.9-0.2,1.4v5.1h-3.1V48.3H199.1z M207.2,51.8c0.1-0.6,0.3-1.1,0.6-1.3
	c0.4-0.3,0.8-0.4,1.5-0.4c0.3,0,0.5,0,0.8,0.1c0.2,0,0.5,0.1,0.6,0.2c0.2,0.1,0.3,0.3,0.4,0.5s0.2,0.5,0.2,0.8
	c0,0.3-0.1,0.6-0.3,0.7c-0.2,0.2-0.5,0.3-0.8,0.4c-0.4,0.1-0.8,0.2-1.2,0.2c-0.5,0-0.9,0.1-1.4,0.2c-0.5,0.1-0.9,0.2-1.4,0.3
	c-0.5,0.1-0.9,0.3-1.2,0.6c-0.4,0.2-0.7,0.6-0.9,1c-0.2,0.4-0.3,0.9-0.3,1.6c0,0.6,0.1,1.1,0.3,1.5c0.2,0.4,0.5,0.8,0.8,1.1
	c0.4,0.3,0.8,0.5,1.2,0.6c0.5,0.1,1,0.2,1.5,0.2c0.7,0,1.4-0.1,2.1-0.3c0.7-0.2,1.3-0.6,1.8-1.1c0,0.2,0,0.4,0.1,0.6
	c0,0.2,0.1,0.4,0.1,0.5h3.2c-0.1-0.2-0.2-0.6-0.3-1.1c-0.1-0.5-0.1-1-0.1-1.5v-5.9c0-0.7-0.2-1.2-0.5-1.7s-0.7-0.7-1.2-1
	c-0.5-0.2-1-0.4-1.6-0.5c-0.6-0.1-1.2-0.1-1.7-0.1c-0.6,0-1.3,0.1-1.9,0.2c-0.6,0.1-1.2,0.3-1.7,0.6c-0.5,0.3-0.9,0.7-1.2,1.2
	c-0.3,0.5-0.5,1.1-0.6,1.8H207.2z M211.3,55.3c0,0.2,0,0.4-0.1,0.7c0,0.3-0.1,0.6-0.3,0.9c-0.2,0.3-0.4,0.5-0.7,0.7
	c-0.3,0.2-0.8,0.3-1.4,0.3c-0.2,0-0.5,0-0.7-0.1c-0.2,0-0.4-0.1-0.6-0.2c-0.2-0.1-0.3-0.3-0.4-0.5c-0.1-0.2-0.2-0.4-0.2-0.7
	c0-0.3,0.1-0.5,0.2-0.7c0.1-0.2,0.2-0.3,0.4-0.5c0.2-0.1,0.4-0.2,0.6-0.3c0.2-0.1,0.5-0.1,0.7-0.2c0.2,0,0.5-0.1,0.7-0.1
	c0.2,0,0.5-0.1,0.7-0.1c0.2,0,0.4-0.1,0.6-0.2c0.2-0.1,0.4-0.2,0.5-0.3V55.3z M222.7,48.3v2.1h-2.3V56c0,0.5,0.1,0.9,0.3,1.1
	c0.2,0.2,0.5,0.3,1.1,0.3c0.2,0,0.3,0,0.5,0c0.2,0,0.3,0,0.5-0.1v2.4c-0.3,0-0.6,0.1-0.9,0.1c-0.3,0-0.6,0-0.9,0
	c-0.5,0-0.9,0-1.4-0.1c-0.4-0.1-0.8-0.2-1.1-0.4c-0.3-0.2-0.6-0.5-0.8-0.8c-0.2-0.4-0.3-0.8-0.3-1.4v-6.7h-1.9v-2.1h1.9v-3.4h3.1
	v3.4H222.7z M227.1,57c0.5,0.5,1.1,0.7,2,0.7c0.6,0,1.2-0.2,1.6-0.5c0.5-0.3,0.7-0.6,0.8-1h2.8c-0.4,1.4-1.1,2.3-2,2.9
	c-0.9,0.6-2,0.9-3.3,0.9c-0.9,0-1.7-0.1-2.4-0.4c-0.7-0.3-1.3-0.7-1.8-1.2c-0.5-0.5-0.9-1.2-1.2-1.9c-0.3-0.7-0.4-1.5-0.4-2.4
	c0-0.9,0.1-1.6,0.4-2.4c0.3-0.7,0.7-1.4,1.2-1.9c0.5-0.5,1.1-1,1.8-1.3c0.7-0.3,1.5-0.5,2.4-0.5c1,0,1.8,0.2,2.5,0.6
	c0.7,0.4,1.3,0.9,1.8,1.5c0.5,0.6,0.8,1.3,1,2.2c0.2,0.8,0.3,1.7,0.2,2.5h-8.2C226.3,55.8,226.6,56.5,227.1,57z M230.6,51
	c-0.4-0.4-0.9-0.6-1.7-0.6c-0.5,0-0.9,0.1-1.2,0.3c-0.3,0.2-0.6,0.4-0.8,0.6c-0.2,0.2-0.3,0.5-0.4,0.8c-0.1,0.3-0.1,0.5-0.1,0.7h5.1
	C231.2,52,231,51.4,230.6,51z M238.5,56.9c0.1,0.2,0.3,0.4,0.5,0.6c0.2,0.2,0.5,0.3,0.8,0.3c0.3,0.1,0.6,0.1,0.9,0.1
	c0.2,0,0.5,0,0.7-0.1c0.2-0.1,0.5-0.1,0.7-0.2c0.2-0.1,0.4-0.3,0.5-0.4c0.1-0.2,0.2-0.4,0.2-0.7c0-0.5-0.3-0.8-0.9-1.1
	c-0.6-0.2-1.5-0.5-2.6-0.7c-0.5-0.1-0.9-0.2-1.3-0.4c-0.4-0.1-0.8-0.3-1.2-0.6c-0.3-0.2-0.6-0.5-0.8-0.9c-0.2-0.3-0.3-0.8-0.3-1.3
	c0-0.7,0.1-1.3,0.4-1.8c0.3-0.5,0.7-0.8,1.1-1.1c0.5-0.3,1-0.5,1.6-0.6c0.6-0.1,1.2-0.2,1.8-0.2c0.6,0,1.2,0.1,1.8,0.2
	c0.6,0.1,1.1,0.3,1.6,0.6c0.5,0.3,0.8,0.6,1.1,1.1c0.3,0.5,0.5,1,0.5,1.7h-3c0-0.6-0.3-1-0.7-1.2c-0.4-0.2-0.9-0.3-1.5-0.3
	c-0.2,0-0.4,0-0.6,0c-0.2,0-0.4,0.1-0.6,0.1c-0.2,0.1-0.3,0.2-0.4,0.3c-0.1,0.1-0.2,0.3-0.2,0.6c0,0.3,0.1,0.5,0.3,0.7
	c0.2,0.2,0.5,0.3,0.8,0.4c0.3,0.1,0.7,0.2,1.1,0.3c0.4,0.1,0.9,0.2,1.3,0.3c0.5,0.1,0.9,0.2,1.3,0.4c0.4,0.1,0.8,0.3,1.2,0.6
	c0.3,0.2,0.6,0.5,0.8,0.9c0.2,0.4,0.3,0.8,0.3,1.3c0,0.7-0.2,1.4-0.5,1.9c-0.3,0.5-0.7,0.9-1.2,1.2c-0.5,0.3-1,0.5-1.7,0.6
	c-0.6,0.1-1.3,0.2-1.9,0.2c-0.7,0-1.3-0.1-1.9-0.2c-0.6-0.1-1.2-0.4-1.7-0.7c-0.5-0.3-0.9-0.7-1.2-1.2c-0.3-0.5-0.5-1.1-0.5-1.9h3
	C238.3,56.3,238.4,56.6,238.5,56.9z"/>
<g>
	<path d="M24.8,71.3v2.1h-2.3V79c0,0.5,0.1,0.9,0.3,1.1c0.2,0.2,0.5,0.3,1.1,0.3c0.2,0,0.3,0,0.5,0c0.2,0,0.3,0,0.5-0.1v2.4
		c-0.3,0-0.6,0.1-0.9,0.1c-0.3,0-0.6,0-0.9,0c-0.5,0-0.9,0-1.4-0.1c-0.4-0.1-0.8-0.2-1.1-0.4c-0.3-0.2-0.6-0.5-0.8-0.8
		c-0.2-0.4-0.3-0.8-0.3-1.4v-6.7h-1.9v-2.1h1.9v-3.4h3.1v3.4H24.8z"/>
	<path d="M26,74.5c0.3-0.7,0.7-1.4,1.2-1.9c0.5-0.5,1.1-0.9,1.8-1.2c0.7-0.3,1.5-0.4,2.4-0.4s1.7,0.1,2.4,0.4s1.3,0.7,1.9,1.2
		c0.5,0.5,0.9,1.2,1.2,1.9c0.3,0.7,0.4,1.6,0.4,2.5c0,0.9-0.1,1.7-0.4,2.5c-0.3,0.7-0.7,1.4-1.2,1.9c-0.5,0.5-1.1,0.9-1.9,1.2
		c-0.7,0.3-1.5,0.4-2.4,0.4s-1.7-0.1-2.4-0.4c-0.7-0.3-1.3-0.7-1.8-1.2c-0.5-0.5-0.9-1.1-1.2-1.9c-0.3-0.7-0.4-1.6-0.4-2.5
		C25.6,76.1,25.7,75.3,26,74.5z M28.8,78.3c0.1,0.4,0.2,0.8,0.5,1.2c0.2,0.3,0.5,0.6,0.8,0.8c0.4,0.2,0.8,0.3,1.3,0.3s1-0.1,1.3-0.3
		c0.4-0.2,0.6-0.5,0.9-0.8c0.2-0.3,0.4-0.7,0.5-1.2c0.1-0.4,0.1-0.9,0.1-1.3s0-0.9-0.1-1.3s-0.2-0.8-0.5-1.2
		c-0.2-0.3-0.5-0.6-0.9-0.8c-0.4-0.2-0.8-0.3-1.3-0.3s-1,0.1-1.3,0.3c-0.4,0.2-0.6,0.5-0.8,0.8c-0.2,0.3-0.4,0.7-0.5,1.2
		c-0.1,0.4-0.1,0.9-0.1,1.3S28.7,77.9,28.8,78.3z"/>
	<path d="M47.6,71.3v1.5h0c0.4-0.6,0.9-1.1,1.5-1.3c0.6-0.3,1.2-0.4,1.9-0.4c0.9,0,1.7,0.2,2.3,0.5s1.2,0.8,1.6,1.3
		c0.4,0.6,0.7,1.2,0.9,1.9c0.2,0.7,0.3,1.5,0.3,2.3c0,0.8-0.1,1.5-0.3,2.2c-0.2,0.7-0.5,1.3-0.9,1.9c-0.4,0.5-0.9,1-1.6,1.3
		C52.7,82.8,52,83,51.2,83c-0.7,0-1.4-0.1-1.9-0.4c-0.6-0.3-1.1-0.7-1.5-1.3h0v5.4h-3.1V71.3H47.6z M51.6,80.3
		c0.3-0.2,0.6-0.5,0.8-0.8c0.2-0.3,0.4-0.7,0.5-1.2S53,77.5,53,77s0-0.9-0.1-1.3c-0.1-0.4-0.3-0.8-0.5-1.2s-0.5-0.6-0.8-0.8
		c-0.3-0.2-0.8-0.3-1.3-0.3c-0.5,0-0.9,0.1-1.3,0.3c-0.3,0.2-0.6,0.5-0.8,0.8c-0.2,0.3-0.4,0.7-0.5,1.2s-0.1,0.9-0.1,1.4
		c0,0.5,0,0.9,0.1,1.3c0.1,0.4,0.2,0.8,0.5,1.2c0.2,0.3,0.5,0.6,0.8,0.8c0.4,0.2,0.8,0.3,1.3,0.3C50.8,80.6,51.3,80.5,51.6,80.3z"/>
	<path d="M60.6,71.3v2.1h0c0.1-0.4,0.3-0.7,0.6-1c0.2-0.3,0.5-0.6,0.9-0.8c0.3-0.2,0.7-0.4,1-0.5c0.4-0.1,0.7-0.2,1.1-0.2
		c0.2,0,0.4,0,0.7,0.1V74c-0.1,0-0.3-0.1-0.5-0.1s-0.4,0-0.6,0c-0.6,0-1.1,0.1-1.5,0.3c-0.4,0.2-0.7,0.5-1,0.8
		c-0.2,0.3-0.4,0.7-0.5,1.2s-0.2,0.9-0.2,1.4v5.1h-3.1V71.3H60.6z"/>
	<path d="M65.4,74.5c0.3-0.7,0.7-1.4,1.2-1.9c0.5-0.5,1.1-0.9,1.8-1.2c0.7-0.3,1.5-0.4,2.4-0.4s1.7,0.1,2.4,0.4s1.3,0.7,1.9,1.2
		c0.5,0.5,0.9,1.2,1.2,1.9c0.3,0.7,0.4,1.6,0.4,2.5c0,0.9-0.1,1.7-0.4,2.5c-0.3,0.7-0.7,1.4-1.2,1.9c-0.5,0.5-1.1,0.9-1.9,1.2
		c-0.7,0.3-1.5,0.4-2.4,0.4s-1.7-0.1-2.4-0.4c-0.7-0.3-1.3-0.7-1.8-1.2c-0.5-0.5-0.9-1.1-1.2-1.9C65.1,78.7,65,77.9,65,77
		C65,76.1,65.1,75.3,65.4,74.5z M68.2,78.3c0.1,0.4,0.2,0.8,0.5,1.2c0.2,0.3,0.5,0.6,0.8,0.8c0.4,0.2,0.8,0.3,1.3,0.3s1-0.1,1.3-0.3
		c0.4-0.2,0.6-0.5,0.9-0.8c0.2-0.3,0.4-0.7,0.5-1.2c0.1-0.4,0.1-0.9,0.1-1.3s0-0.9-0.1-1.3s-0.2-0.8-0.5-1.2
		c-0.2-0.3-0.5-0.6-0.9-0.8c-0.4-0.2-0.8-0.3-1.3-0.3s-1,0.1-1.3,0.3c-0.4,0.2-0.6,0.5-0.8,0.8c-0.2,0.3-0.4,0.7-0.5,1.2
		c-0.1,0.4-0.1,0.9-0.1,1.3S68.1,77.9,68.2,78.3z"/>
	<path d="M84.6,71.3v2.1h-2.3V79c0,0.5,0.1,0.9,0.3,1.1c0.2,0.2,0.5,0.3,1.1,0.3c0.2,0,0.3,0,0.5,0c0.2,0,0.3,0,0.5-0.1v2.4
		c-0.3,0-0.6,0.1-0.9,0.1c-0.3,0-0.6,0-0.9,0c-0.5,0-0.9,0-1.4-0.1c-0.4-0.1-0.8-0.2-1.1-0.4c-0.3-0.2-0.6-0.5-0.8-0.8
		c-0.2-0.4-0.3-0.8-0.3-1.4v-6.7h-1.9v-2.1h1.9v-3.4h3.1v3.4H84.6z"/>
	<path d="M89,80c0.5,0.5,1.1,0.7,2,0.7c0.6,0,1.2-0.2,1.6-0.5c0.5-0.3,0.7-0.6,0.8-1h2.8c-0.4,1.4-1.1,2.3-2,2.9
		c-0.9,0.6-2,0.9-3.3,0.9c-0.9,0-1.7-0.1-2.4-0.4s-1.3-0.7-1.8-1.2c-0.5-0.5-0.9-1.2-1.2-1.9s-0.4-1.5-0.4-2.4
		c0-0.9,0.1-1.6,0.4-2.4c0.3-0.7,0.7-1.4,1.2-1.9c0.5-0.5,1.1-1,1.8-1.3c0.7-0.3,1.5-0.5,2.4-0.5c1,0,1.8,0.2,2.5,0.6
		c0.7,0.4,1.3,0.9,1.8,1.5c0.5,0.6,0.8,1.3,1,2.2c0.2,0.8,0.3,1.6,0.2,2.5h-8.2C88.3,78.8,88.5,79.5,89,80z M92.5,74
		c-0.4-0.4-0.9-0.6-1.7-0.6c-0.5,0-0.9,0.1-1.2,0.3c-0.3,0.2-0.6,0.4-0.8,0.6c-0.2,0.2-0.3,0.5-0.4,0.8c-0.1,0.3-0.1,0.5-0.1,0.7
		h5.1C93.2,75,92.9,74.4,92.5,74z"/>
	<path d="M103.3,73.4c-0.5,0-0.9,0.1-1.3,0.3c-0.3,0.2-0.6,0.5-0.8,0.9c-0.2,0.4-0.4,0.8-0.5,1.2c-0.1,0.4-0.1,0.9-0.1,1.3
		c0,0.4,0,0.8,0.1,1.3c0.1,0.4,0.2,0.8,0.4,1.2c0.2,0.3,0.5,0.6,0.8,0.8c0.3,0.2,0.7,0.3,1.2,0.3c0.7,0,1.3-0.2,1.7-0.6
		c0.4-0.4,0.7-1,0.8-1.7h3c-0.2,1.5-0.8,2.7-1.8,3.5c-1,0.8-2.2,1.2-3.7,1.2c-0.9,0-1.6-0.1-2.3-0.4s-1.3-0.7-1.8-1.2
		s-0.9-1.1-1.2-1.8c-0.3-0.7-0.4-1.5-0.4-2.3c0-0.9,0.1-1.7,0.4-2.5c0.3-0.8,0.6-1.4,1.1-2c0.5-0.5,1.1-1,1.8-1.3
		c0.7-0.3,1.5-0.5,2.5-0.5c0.7,0,1.3,0.1,1.9,0.3c0.6,0.2,1.2,0.4,1.7,0.8c0.5,0.4,0.9,0.8,1.2,1.3c0.3,0.5,0.5,1.2,0.5,1.9h-3.1
		C105.4,74,104.6,73.4,103.3,73.4z"/>
	<path d="M116.3,71.3v2.1H114V79c0,0.5,0.1,0.9,0.3,1.1c0.2,0.2,0.5,0.3,1.1,0.3c0.2,0,0.3,0,0.5,0c0.2,0,0.3,0,0.5-0.1v2.4
		c-0.3,0-0.6,0.1-0.9,0.1c-0.3,0-0.6,0-0.9,0c-0.5,0-0.9,0-1.4-0.1c-0.4-0.1-0.8-0.2-1.1-0.4c-0.3-0.2-0.6-0.5-0.8-0.8
		c-0.2-0.4-0.3-0.8-0.3-1.4v-6.7H109v-2.1h1.9v-3.4h3.1v3.4H116.3z"/>
	<path d="M127.3,86.1c-0.6,0.4-1.4,0.6-2.5,0.6c-0.3,0-0.6,0-1,0c-0.3,0-0.6,0-1-0.1V84c0.3,0,0.6,0.1,0.9,0.1c0.3,0,0.6,0,0.9,0
		c0.4,0,0.7-0.2,0.9-0.5c0.2-0.3,0.3-0.6,0.3-0.9c0-0.2,0-0.5-0.1-0.7l-4-10.7h3.3l2.6,7.8h0l2.5-7.8h3.2l-4.8,12.8
		C128.4,85,127.9,85.7,127.3,86.1z"/>
	<path d="M134.1,74.5c0.3-0.7,0.7-1.4,1.2-1.9c0.5-0.5,1.1-0.9,1.8-1.2c0.7-0.3,1.5-0.4,2.4-0.4s1.7,0.1,2.4,0.4s1.3,0.7,1.9,1.2
		c0.5,0.5,0.9,1.2,1.2,1.9c0.3,0.7,0.4,1.6,0.4,2.5c0,0.9-0.1,1.7-0.4,2.5c-0.3,0.7-0.7,1.4-1.2,1.9c-0.5,0.5-1.1,0.9-1.9,1.2
		c-0.7,0.3-1.5,0.4-2.4,0.4s-1.7-0.1-2.4-0.4c-0.7-0.3-1.3-0.7-1.8-1.2c-0.5-0.5-0.9-1.1-1.2-1.9c-0.3-0.7-0.4-1.6-0.4-2.5
		C133.7,76.1,133.8,75.3,134.1,74.5z M137,78.3c0.1,0.4,0.2,0.8,0.5,1.2c0.2,0.3,0.5,0.6,0.8,0.8c0.4,0.2,0.8,0.3,1.3,0.3
		s1-0.1,1.3-0.3c0.4-0.2,0.6-0.5,0.9-0.8c0.2-0.3,0.4-0.7,0.5-1.2c0.1-0.4,0.1-0.9,0.1-1.3s0-0.9-0.1-1.3s-0.2-0.8-0.5-1.2
		c-0.2-0.3-0.5-0.6-0.9-0.8c-0.4-0.2-0.8-0.3-1.3-0.3s-1,0.1-1.3,0.3c-0.4,0.2-0.6,0.5-0.8,0.8c-0.2,0.3-0.4,0.7-0.5,1.2
		c-0.1,0.4-0.1,0.9-0.1,1.3S136.9,77.9,137,78.3z"/>
	<path d="M154.8,82.7v-1.6h-0.1c-0.4,0.7-0.9,1.1-1.5,1.4c-0.6,0.3-1.3,0.4-1.9,0.4c-0.8,0-1.5-0.1-2.1-0.3c-0.5-0.2-1-0.5-1.3-0.9
		c-0.3-0.4-0.5-0.9-0.6-1.5c-0.1-0.6-0.2-1.2-0.2-1.9v-7h3.1v6.4c0,0.9,0.1,1.6,0.4,2.1c0.3,0.5,0.8,0.7,1.6,0.7
		c0.8,0,1.5-0.3,1.8-0.8c0.4-0.5,0.6-1.3,0.6-2.5v-6h3.1v11.4H154.8z"/>
	<path d="M162.7,71.3v2.1h0c0.1-0.4,0.3-0.7,0.6-1c0.2-0.3,0.5-0.6,0.9-0.8c0.3-0.2,0.7-0.4,1-0.5c0.4-0.1,0.7-0.2,1.1-0.2
		c0.2,0,0.4,0,0.7,0.1V74c-0.1,0-0.3-0.1-0.5-0.1c-0.2,0-0.4,0-0.6,0c-0.6,0-1.1,0.1-1.5,0.3c-0.4,0.2-0.7,0.5-1,0.8
		c-0.2,0.3-0.4,0.7-0.5,1.2s-0.2,0.9-0.2,1.4v5.1h-3.1V71.3H162.7z"/>
	<path d="M173.6,69.6V67h3.1v2.6H173.6z M176.7,71.3v11.4h-3.1V71.3H176.7z"/>
	<path d="M181.7,71.3v1.6h0.1c0.4-0.7,0.9-1.1,1.5-1.4c0.6-0.3,1.3-0.5,1.9-0.5c0.8,0,1.5,0.1,2.1,0.3s1,0.5,1.3,0.9
		c0.3,0.4,0.5,0.9,0.6,1.5c0.1,0.6,0.2,1.2,0.2,1.9v7h-3.1v-6.4c0-0.9-0.1-1.6-0.4-2.1c-0.3-0.5-0.8-0.7-1.6-0.7
		c-0.9,0-1.5,0.3-1.8,0.8s-0.6,1.3-0.6,2.5v6h-3.1V71.3H181.7z"/>
	<path d="M196.8,73.4c-0.5,0-0.9,0.1-1.3,0.3c-0.3,0.2-0.6,0.5-0.8,0.9s-0.4,0.8-0.5,1.2s-0.1,0.9-0.1,1.3c0,0.4,0,0.8,0.1,1.3
		s0.2,0.8,0.4,1.2c0.2,0.3,0.5,0.6,0.8,0.8c0.3,0.2,0.7,0.3,1.2,0.3c0.7,0,1.3-0.2,1.7-0.6s0.7-1,0.8-1.7h3
		c-0.2,1.5-0.8,2.7-1.8,3.5s-2.2,1.2-3.7,1.2c-0.9,0-1.6-0.1-2.3-0.4c-0.7-0.3-1.3-0.7-1.8-1.2c-0.5-0.5-0.9-1.1-1.2-1.8
		c-0.3-0.7-0.4-1.5-0.4-2.3c0-0.9,0.1-1.7,0.4-2.5c0.3-0.8,0.6-1.4,1.1-2c0.5-0.5,1.1-1,1.8-1.3c0.7-0.3,1.5-0.5,2.5-0.5
		c0.7,0,1.3,0.1,1.9,0.3c0.6,0.2,1.2,0.4,1.7,0.8c0.5,0.4,0.9,0.8,1.2,1.3c0.3,0.5,0.5,1.2,0.5,1.9h-3.1
		C198.9,74,198.1,73.4,196.8,73.4z"/>
	<path d="M203.6,74.5c0.3-0.7,0.7-1.4,1.2-1.9c0.5-0.5,1.1-0.9,1.8-1.2s1.5-0.4,2.4-0.4s1.7,0.1,2.4,0.4c0.7,0.3,1.3,0.7,1.9,1.2
		s0.9,1.2,1.2,1.9c0.3,0.7,0.4,1.6,0.4,2.5c0,0.9-0.1,1.7-0.4,2.5c-0.3,0.7-0.7,1.4-1.2,1.9c-0.5,0.5-1.1,0.9-1.9,1.2
		c-0.7,0.3-1.5,0.4-2.4,0.4s-1.7-0.1-2.4-0.4c-0.7-0.3-1.3-0.7-1.8-1.2c-0.5-0.5-0.9-1.1-1.2-1.9s-0.4-1.6-0.4-2.5
		C203.2,76.1,203.4,75.3,203.6,74.5z M206.5,78.3c0.1,0.4,0.2,0.8,0.5,1.2c0.2,0.3,0.5,0.6,0.8,0.8c0.4,0.2,0.8,0.3,1.3,0.3
		s1-0.1,1.3-0.3c0.4-0.2,0.6-0.5,0.9-0.8c0.2-0.3,0.4-0.7,0.5-1.2c0.1-0.4,0.1-0.9,0.1-1.3s0-0.9-0.1-1.3c-0.1-0.4-0.2-0.8-0.5-1.2
		c-0.2-0.3-0.5-0.6-0.9-0.8c-0.4-0.2-0.8-0.3-1.3-0.3s-1,0.1-1.3,0.3c-0.4,0.2-0.6,0.5-0.8,0.8c-0.2,0.3-0.4,0.7-0.5,1.2
		s-0.1,0.9-0.1,1.3S206.4,77.9,206.5,78.3z"/>
	<path d="M219.6,71.3v1.5h0c0.4-0.6,0.9-1,1.5-1.4c0.6-0.3,1.2-0.5,2-0.5c0.7,0,1.4,0.1,2,0.4c0.6,0.3,1,0.8,1.4,1.5
		c0.3-0.5,0.8-0.9,1.4-1.3c0.6-0.4,1.3-0.6,2.1-0.6c0.6,0,1.2,0.1,1.7,0.2s1,0.4,1.3,0.7c0.4,0.3,0.7,0.7,0.9,1.3
		c0.2,0.5,0.3,1.1,0.3,1.9v7.6h-3.1v-6.4c0-0.4,0-0.7,0-1.1c0-0.3-0.1-0.6-0.2-0.9s-0.3-0.4-0.6-0.6c-0.3-0.1-0.6-0.2-1-0.2
		c-0.4,0-0.8,0.1-1.1,0.3s-0.5,0.4-0.6,0.7c-0.2,0.3-0.3,0.6-0.3,0.9c-0.1,0.3-0.1,0.7-0.1,1v6.3h-3.1v-6.4c0-0.3,0-0.7,0-1
		s-0.1-0.6-0.2-0.9c-0.1-0.3-0.3-0.5-0.6-0.7c-0.3-0.2-0.6-0.3-1.1-0.3c-0.1,0-0.3,0-0.6,0.1s-0.5,0.2-0.7,0.4
		c-0.2,0.2-0.4,0.4-0.6,0.8c-0.2,0.3-0.2,0.8-0.2,1.4v6.6h-3.1V71.3H219.6z"/>
	<path d="M239.4,80c0.5,0.5,1.1,0.7,2,0.7c0.6,0,1.2-0.2,1.6-0.5c0.5-0.3,0.7-0.6,0.8-1h2.8c-0.4,1.4-1.1,2.3-2,2.9
		c-0.9,0.6-2,0.9-3.3,0.9c-0.9,0-1.7-0.1-2.4-0.4c-0.7-0.3-1.3-0.7-1.8-1.2c-0.5-0.5-0.9-1.2-1.2-1.9s-0.4-1.5-0.4-2.4
		c0-0.9,0.1-1.6,0.4-2.4s0.7-1.4,1.2-1.9c0.5-0.5,1.1-1,1.8-1.3c0.7-0.3,1.5-0.5,2.4-0.5c1,0,1.8,0.2,2.5,0.6s1.3,0.9,1.8,1.5
		c0.5,0.6,0.8,1.3,1,2.2c0.2,0.8,0.3,1.6,0.2,2.5h-8.2C238.7,78.8,239,79.5,239.4,80z M243,74c-0.4-0.4-0.9-0.6-1.7-0.6
		c-0.5,0-0.9,0.1-1.2,0.3c-0.3,0.2-0.6,0.4-0.8,0.6c-0.2,0.2-0.3,0.5-0.4,0.8c-0.1,0.3-0.1,0.5-0.1,0.7h5.1
		C243.6,75,243.3,74.4,243,74z"/>
	<path d="M251.9,79.3v3.4h-3.5v-3.4H251.9z"/>
</g>
<g>
	<path class="st0" d="M18.8,101.6c0.4-1,0.9-1.9,1.5-2.6c0.7-0.7,1.5-1.3,2.4-1.8c1-0.4,2-0.6,3.2-0.6c1.2,0,2.3,0.2,3.3,0.6
		c1,0.4,1.8,1,2.4,1.8c0.7,0.7,1.2,1.6,1.5,2.6c0.4,1,0.5,2.1,0.5,3.3c0,1.1-0.2,2.2-0.5,3.2c-0.4,1-0.9,1.9-1.5,2.6
		c-0.7,0.7-1.5,1.3-2.4,1.7c-1,0.4-2,0.6-3.3,0.6c-1.2,0-2.3-0.2-3.2-0.6c-1-0.4-1.8-1-2.4-1.7c-0.7-0.7-1.2-1.6-1.5-2.6
		c-0.4-1-0.5-2.1-0.5-3.2C18.2,103.7,18.4,102.6,18.8,101.6z M21.9,106.8c0.2,0.6,0.4,1.2,0.7,1.7c0.3,0.5,0.8,0.9,1.3,1.2
		c0.5,0.3,1.2,0.5,2,0.5c0.8,0,1.4-0.2,2-0.5c0.5-0.3,1-0.7,1.3-1.2c0.3-0.5,0.6-1.1,0.7-1.7c0.2-0.6,0.2-1.3,0.2-1.9
		c0-0.7-0.1-1.4-0.2-2c-0.2-0.6-0.4-1.2-0.7-1.7s-0.8-0.9-1.3-1.2c-0.5-0.3-1.2-0.5-2-0.5c-0.8,0-1.4,0.2-2,0.5
		c-0.5,0.3-1,0.7-1.3,1.2s-0.6,1.1-0.7,1.7c-0.2,0.6-0.2,1.3-0.2,2C21.7,105.6,21.8,106.2,21.9,106.8z"/>
	<path class="st0" d="M38.2,101.3v1.6h0.1c0.4-0.7,0.9-1.1,1.5-1.4c0.6-0.3,1.3-0.5,1.9-0.5c0.8,0,1.5,0.1,2.1,0.3s1,0.5,1.3,0.9
		c0.3,0.4,0.5,0.9,0.6,1.5c0.1,0.6,0.2,1.2,0.2,1.9v7h-3.1v-6.4c0-0.9-0.1-1.6-0.4-2.1s-0.8-0.7-1.6-0.7c-0.9,0-1.5,0.3-1.8,0.8
		s-0.6,1.3-0.6,2.5v6h-3.1v-11.4H38.2z"/>
	<path class="st0" d="M51.1,97v15.7H48V97H51.1z"/>
	<path class="st0" d="M57.3,116.1c-0.6,0.4-1.4,0.6-2.5,0.6c-0.3,0-0.6,0-1,0c-0.3,0-0.6,0-1-0.1V114c0.3,0,0.6,0.1,0.9,0.1
		c0.3,0,0.6,0,0.9,0c0.4,0,0.7-0.2,0.9-0.5c0.2-0.3,0.3-0.6,0.3-0.9c0-0.2,0-0.5-0.1-0.7l-4-10.7h3.3l2.6,7.8h0l2.5-7.8h3.2
		l-4.8,12.8C58.4,115,57.9,115.7,57.3,116.1z"/>
	<path class="st0" d="M68.6,103.4v-2.1h1.9v-0.9c0-1,0.3-1.8,0.9-2.5c0.6-0.6,1.6-1,2.9-1c0.3,0,0.6,0,0.8,0c0.3,0,0.5,0,0.8,0.1
		v2.3c-0.4,0-0.7-0.1-1.1-0.1c-0.4,0-0.7,0.1-0.9,0.3c-0.2,0.2-0.3,0.5-0.3,1v0.7h2.2v2.1h-2.2v9.3h-3.1v-9.3H68.6z"/>
	<path class="st0" d="M76.7,104.5c0.3-0.7,0.7-1.4,1.2-1.9c0.5-0.5,1.1-0.9,1.8-1.2c0.7-0.3,1.5-0.4,2.4-0.4s1.7,0.1,2.4,0.4
		s1.3,0.7,1.9,1.2c0.5,0.5,0.9,1.2,1.2,1.9c0.3,0.7,0.4,1.6,0.4,2.5c0,0.9-0.1,1.7-0.4,2.5c-0.3,0.7-0.7,1.4-1.2,1.9
		c-0.5,0.5-1.1,0.9-1.9,1.2c-0.7,0.3-1.5,0.4-2.4,0.4s-1.7-0.1-2.4-0.4c-0.7-0.3-1.3-0.7-1.8-1.2c-0.5-0.5-0.9-1.1-1.2-1.9
		c-0.3-0.7-0.4-1.6-0.4-2.5C76.3,106.1,76.5,105.3,76.7,104.5z M79.6,108.4c0.1,0.4,0.2,0.8,0.5,1.2c0.2,0.3,0.5,0.6,0.8,0.8
		c0.4,0.2,0.8,0.3,1.3,0.3s1-0.1,1.3-0.3c0.4-0.2,0.6-0.5,0.9-0.8c0.2-0.3,0.4-0.7,0.5-1.2c0.1-0.4,0.1-0.9,0.1-1.3s0-0.9-0.1-1.3
		s-0.2-0.8-0.5-1.2c-0.2-0.3-0.5-0.6-0.9-0.8c-0.4-0.2-0.8-0.3-1.3-0.3s-1,0.1-1.3,0.3c-0.4,0.2-0.6,0.5-0.8,0.8
		c-0.2,0.3-0.4,0.7-0.5,1.2c-0.1,0.4-0.1,0.9-0.1,1.3S79.5,107.9,79.6,108.4z"/>
	<path class="st0" d="M92.6,101.3v2.1h0c0.1-0.4,0.3-0.7,0.6-1c0.2-0.3,0.5-0.6,0.9-0.8c0.3-0.2,0.7-0.4,1-0.5
		c0.4-0.1,0.7-0.2,1.1-0.2c0.2,0,0.4,0,0.7,0.1v2.9c-0.1,0-0.3-0.1-0.5-0.1s-0.4,0-0.6,0c-0.6,0-1.1,0.1-1.5,0.3
		c-0.4,0.2-0.7,0.5-1,0.8c-0.2,0.3-0.4,0.7-0.5,1.2s-0.2,0.9-0.2,1.4v5.1h-3.1v-11.4H92.6z"/>
	<path class="st0" d="M111.6,97l5.9,15.7h-3.6l-1.2-3.5h-5.9l-1.2,3.5h-3.5l5.9-15.7H111.6z M111.8,106.6l-2-5.8h0l-2,5.8H111.8z"/>
	<path class="st0" d="M125.2,97c1,0,2,0.2,2.8,0.5c0.9,0.3,1.6,0.8,2.3,1.5c0.6,0.6,1.1,1.5,1.5,2.4c0.4,1,0.5,2.1,0.5,3.4
		c0,1.1-0.1,2.2-0.4,3.2c-0.3,1-0.7,1.8-1.3,2.5c-0.6,0.7-1.3,1.3-2.2,1.7c-0.9,0.4-1.9,0.6-3.1,0.6h-6.8V97H125.2z M125,109.8
		c0.5,0,1-0.1,1.5-0.2c0.5-0.2,0.9-0.4,1.3-0.8s0.7-0.9,0.9-1.5c0.2-0.6,0.3-1.3,0.3-2.2c0-0.8-0.1-1.5-0.2-2.1
		c-0.2-0.6-0.4-1.2-0.8-1.6s-0.8-0.8-1.4-1c-0.6-0.2-1.3-0.4-2.1-0.4h-2.5v9.9H125z"/>
	<path class="st0" d="M142.1,97l5.9,15.7h-3.6l-1.2-3.5h-5.9l-1.2,3.5h-3.5l5.9-15.7H142.1z M142.3,106.6l-2-5.8h0l-2,5.8H142.3z"/>
	<path class="st0" d="M159.5,97l3.7,10.8h0l3.5-10.8h4.9v15.7h-3.2v-11.1h0l-3.9,11.1h-2.7l-3.9-11h0v11h-3.2V97H159.5z"/>
	<path class="st0" d="M177.1,110c0.5,0.5,1.1,0.7,2,0.7c0.6,0,1.2-0.2,1.6-0.5c0.5-0.3,0.7-0.6,0.8-1h2.8c-0.4,1.4-1.1,2.3-2,2.9
		c-0.9,0.6-2,0.9-3.3,0.9c-0.9,0-1.7-0.1-2.4-0.4c-0.7-0.3-1.3-0.7-1.8-1.2c-0.5-0.5-0.9-1.2-1.2-1.9s-0.4-1.5-0.4-2.4
		c0-0.9,0.1-1.6,0.4-2.4s0.7-1.4,1.2-1.9c0.5-0.5,1.1-1,1.8-1.3c0.7-0.3,1.5-0.5,2.4-0.5c1,0,1.8,0.2,2.5,0.6s1.3,0.9,1.8,1.5
		c0.5,0.6,0.8,1.3,1,2.2c0.2,0.8,0.3,1.6,0.2,2.5h-8.2C176.4,108.8,176.7,109.5,177.1,110z M180.7,104c-0.4-0.4-0.9-0.6-1.7-0.6
		c-0.5,0-0.9,0.1-1.2,0.3c-0.3,0.2-0.6,0.4-0.8,0.6c-0.2,0.2-0.3,0.5-0.4,0.8c-0.1,0.3-0.1,0.5-0.1,0.7h5.1
		C181.3,105,181,104.4,180.7,104z"/>
	<path class="st0" d="M189,101.3v1.5h0c0.4-0.6,0.9-1,1.5-1.4c0.6-0.3,1.2-0.5,2-0.5c0.7,0,1.4,0.1,2,0.4c0.6,0.3,1,0.8,1.4,1.5
		c0.3-0.5,0.8-0.9,1.4-1.3c0.6-0.4,1.3-0.6,2.1-0.6c0.6,0,1.2,0.1,1.7,0.2s1,0.4,1.3,0.7c0.4,0.3,0.7,0.7,0.9,1.3
		c0.2,0.5,0.3,1.1,0.3,1.9v7.6h-3.1v-6.4c0-0.4,0-0.7,0-1.1c0-0.3-0.1-0.6-0.2-0.9s-0.3-0.4-0.6-0.6c-0.3-0.1-0.6-0.2-1-0.2
		c-0.4,0-0.8,0.1-1.1,0.3s-0.5,0.4-0.6,0.7c-0.2,0.3-0.3,0.6-0.3,0.9c-0.1,0.3-0.1,0.7-0.1,1v6.3h-3.1v-6.4c0-0.3,0-0.7,0-1
		s-0.1-0.6-0.2-0.9c-0.1-0.3-0.3-0.5-0.6-0.7c-0.3-0.2-0.6-0.3-1.1-0.3c-0.1,0-0.3,0-0.6,0.1s-0.5,0.2-0.7,0.4
		c-0.2,0.2-0.4,0.4-0.6,0.8c-0.2,0.3-0.2,0.8-0.2,1.4v6.6h-3.1v-11.4H189z"/>
	<path class="st0" d="M208.6,97v5.7h0c0.4-0.6,0.9-1,1.6-1.3c0.7-0.3,1.3-0.4,2-0.4c0.6,0,1.1,0.1,1.7,0.4c0.6,0.2,1.1,0.6,1.5,1.1
		s0.8,1.1,1.1,1.9c0.3,0.8,0.4,1.7,0.4,2.7c0,1-0.1,1.9-0.4,2.7c-0.3,0.8-0.6,1.4-1.1,1.9s-0.9,0.8-1.5,1.1s-1.1,0.4-1.7,0.4
		c-0.8,0-1.6-0.1-2.2-0.4c-0.7-0.3-1.2-0.7-1.5-1.3h0v1.5h-3V97H208.6z M213.7,105.6c-0.1-0.4-0.3-0.8-0.5-1.2
		c-0.2-0.3-0.5-0.6-0.8-0.8c-0.3-0.2-0.7-0.3-1.2-0.3c-0.5,0-0.9,0.1-1.2,0.3c-0.3,0.2-0.6,0.5-0.8,0.8s-0.4,0.7-0.5,1.2
		c-0.1,0.4-0.2,0.9-0.2,1.4c0,0.5,0.1,0.9,0.2,1.4c0.1,0.4,0.3,0.8,0.5,1.2s0.5,0.6,0.8,0.8c0.3,0.2,0.7,0.3,1.2,0.3
		c0.5,0,0.9-0.1,1.2-0.3c0.3-0.2,0.6-0.5,0.8-0.8c0.2-0.3,0.4-0.7,0.5-1.2s0.2-0.9,0.2-1.4C213.9,106.5,213.8,106.1,213.7,105.6z"/>
	<path class="st0" d="M221.9,110c0.5,0.5,1.1,0.7,2,0.7c0.6,0,1.2-0.2,1.6-0.5c0.5-0.3,0.7-0.6,0.8-1h2.8c-0.4,1.4-1.1,2.3-2,2.9
		c-0.9,0.6-2,0.9-3.3,0.9c-0.9,0-1.7-0.1-2.4-0.4c-0.7-0.3-1.3-0.7-1.8-1.2c-0.5-0.5-0.9-1.2-1.2-1.9s-0.4-1.5-0.4-2.4
		c0-0.9,0.1-1.6,0.4-2.4s0.7-1.4,1.2-1.9c0.5-0.5,1.1-1,1.8-1.3c0.7-0.3,1.5-0.5,2.4-0.5c1,0,1.8,0.2,2.5,0.6s1.3,0.9,1.8,1.5
		c0.5,0.6,0.8,1.3,1,2.2c0.2,0.8,0.3,1.6,0.2,2.5h-8.2C221.1,108.8,221.4,109.5,221.9,110z M225.4,104c-0.4-0.4-0.9-0.6-1.7-0.6
		c-0.5,0-0.9,0.1-1.2,0.3c-0.3,0.2-0.6,0.4-0.8,0.6c-0.2,0.2-0.3,0.5-0.4,0.8c-0.1,0.3-0.1,0.5-0.1,0.7h5.1
		C226,105,225.8,104.4,225.4,104z"/>
	<path class="st0" d="M233.7,101.3v2.1h0c0.1-0.4,0.3-0.7,0.6-1c0.2-0.3,0.5-0.6,0.9-0.8c0.3-0.2,0.7-0.4,1-0.5
		c0.4-0.1,0.7-0.2,1.1-0.2c0.2,0,0.4,0,0.7,0.1v2.9c-0.1,0-0.3-0.1-0.5-0.1c-0.2,0-0.4,0-0.6,0c-0.6,0-1.1,0.1-1.5,0.3
		c-0.4,0.2-0.7,0.5-1,0.8c-0.2,0.3-0.4,0.7-0.5,1.2s-0.2,0.9-0.2,1.4v5.1h-3.1v-11.4H233.7z"/>
	<path class="st0" d="M241.5,109.9c0.1,0.2,0.3,0.4,0.5,0.6c0.2,0.2,0.5,0.3,0.8,0.3c0.3,0.1,0.6,0.1,0.9,0.1c0.2,0,0.5,0,0.7-0.1
		s0.5-0.1,0.7-0.2c0.2-0.1,0.4-0.3,0.5-0.4c0.1-0.2,0.2-0.4,0.2-0.7c0-0.5-0.3-0.8-0.9-1.1c-0.6-0.2-1.5-0.5-2.6-0.7
		c-0.5-0.1-0.9-0.2-1.3-0.4c-0.4-0.1-0.8-0.3-1.2-0.6c-0.3-0.2-0.6-0.5-0.8-0.9c-0.2-0.3-0.3-0.8-0.3-1.3c0-0.7,0.1-1.3,0.4-1.8
		c0.3-0.5,0.7-0.8,1.1-1.1s1-0.5,1.6-0.6s1.2-0.2,1.8-0.2c0.6,0,1.2,0.1,1.8,0.2c0.6,0.1,1.1,0.3,1.6,0.6c0.5,0.3,0.8,0.6,1.1,1.1
		c0.3,0.5,0.5,1,0.5,1.7h-3c0-0.6-0.3-1-0.7-1.2c-0.4-0.2-0.9-0.3-1.5-0.3c-0.2,0-0.4,0-0.6,0c-0.2,0-0.4,0.1-0.6,0.1
		c-0.2,0.1-0.3,0.2-0.4,0.3c-0.1,0.1-0.2,0.3-0.2,0.6c0,0.3,0.1,0.5,0.3,0.7s0.5,0.3,0.8,0.4c0.3,0.1,0.7,0.2,1.1,0.3
		c0.4,0.1,0.9,0.2,1.3,0.3c0.5,0.1,0.9,0.2,1.3,0.4c0.4,0.1,0.8,0.3,1.2,0.6c0.3,0.2,0.6,0.5,0.8,0.9c0.2,0.4,0.3,0.8,0.3,1.3
		c0,0.7-0.2,1.4-0.5,1.9s-0.7,0.9-1.2,1.2c-0.5,0.3-1,0.5-1.7,0.6s-1.3,0.2-1.9,0.2c-0.7,0-1.3-0.1-1.9-0.2
		c-0.6-0.1-1.2-0.4-1.7-0.7c-0.5-0.3-0.9-0.7-1.2-1.2s-0.5-1.1-0.5-1.9h3C241.3,109.3,241.4,109.6,241.5,109.9z"/>
</g>
</svg>
