<?xml version="1.0" encoding="utf-8"?>
<!-- Generator: Adobe Illustrator 25.4.1, SVG Export Plug-In . SVG Version: 6.00 Build 0)  -->
<svg version="1.1" id="Layer_1" xmlns="http://www.w3.org/2000/svg" xmlns:xlink="http://www.w3.org/1999/xlink" x="0px" y="0px"
	 viewBox="0 0 300 250" style="enable-background:new 0 0 300 250;" xml:space="preserve">
<style type="text/css">
	.st0{fill:#349946;}
</style>
<g>
	<path class="st0" d="M44.2,91.6c1.3,0,2.4,0.2,3.3,0.6c0.9,0.4,1.6,0.9,2.2,1.5c0.6,0.6,1,1.3,1.2,2.1c0.3,0.8,0.4,1.6,0.4,2.5
		c0,0.8-0.1,1.6-0.4,2.5c-0.3,0.8-0.7,1.5-1.2,2.1s-1.3,1.1-2.2,1.5c-0.9,0.4-2,0.6-3.3,0.6h-4.8v7.4h-4.6V91.6H44.2z M43,101.3
		c0.5,0,1,0,1.5-0.1c0.5-0.1,0.9-0.2,1.3-0.4c0.4-0.2,0.7-0.5,0.9-0.9c0.2-0.4,0.3-0.9,0.3-1.6s-0.1-1.2-0.3-1.6
		c-0.2-0.4-0.5-0.7-0.9-0.9c-0.4-0.2-0.8-0.4-1.3-0.4c-0.5-0.1-1-0.1-1.5-0.1h-3.5v6.2H43z"/>
	<path class="st0" d="M57.1,97.3v2.8h0.1c0.2-0.5,0.5-0.9,0.8-1.3c0.3-0.4,0.7-0.7,1.1-1c0.4-0.3,0.9-0.5,1.4-0.7
		c0.5-0.2,1-0.2,1.5-0.2c0.3,0,0.6,0,0.9,0.1v3.8c-0.2,0-0.4-0.1-0.7-0.1c-0.3,0-0.5,0-0.8,0c-0.8,0-1.4,0.1-1.9,0.4
		c-0.5,0.3-0.9,0.6-1.3,1c-0.3,0.4-0.5,0.9-0.7,1.5c-0.1,0.6-0.2,1.2-0.2,1.9v6.8h-4.1v-15H57.1z"/>
	<path class="st0" d="M63.8,101.9c0.1-1,0.3-1.8,0.7-2.4c0.4-0.6,1-1.1,1.6-1.5c0.7-0.4,1.4-0.7,2.2-0.8c0.8-0.2,1.6-0.2,2.5-0.2
		c0.8,0,1.5,0.1,2.3,0.2c0.8,0.1,1.5,0.3,2.1,0.6c0.6,0.3,1.2,0.7,1.6,1.3c0.4,0.6,0.6,1.3,0.6,2.2v7.8c0,0.7,0,1.3,0.1,1.9
		c0.1,0.6,0.2,1.1,0.4,1.4h-4.2c-0.1-0.2-0.1-0.5-0.2-0.7c0-0.2-0.1-0.5-0.1-0.7c-0.7,0.7-1.4,1.2-2.3,1.4s-1.8,0.4-2.7,0.4
		c-0.7,0-1.4-0.1-2-0.3c-0.6-0.2-1.2-0.4-1.6-0.8c-0.5-0.4-0.8-0.8-1.1-1.4c-0.3-0.6-0.4-1.2-0.4-2c0-0.9,0.1-1.6,0.4-2.1
		c0.3-0.6,0.7-1,1.2-1.3c0.5-0.3,1-0.6,1.6-0.7c0.6-0.2,1.2-0.3,1.8-0.4c0.6-0.1,1.2-0.2,1.8-0.2c0.6-0.1,1.1-0.1,1.6-0.3
		c0.5-0.1,0.8-0.3,1.1-0.5c0.3-0.2,0.4-0.5,0.4-1c0-0.4-0.1-0.8-0.2-1.1c-0.1-0.3-0.3-0.5-0.6-0.6c-0.2-0.1-0.5-0.2-0.8-0.3
		c-0.3,0-0.7-0.1-1-0.1c-0.8,0-1.4,0.2-1.9,0.5c-0.5,0.3-0.7,0.9-0.8,1.7H63.8z M73.3,104.9c-0.2,0.2-0.4,0.3-0.7,0.4
		c-0.3,0.1-0.5,0.2-0.8,0.2c-0.3,0.1-0.6,0.1-0.9,0.1s-0.7,0.1-1,0.1c-0.3,0.1-0.6,0.1-0.9,0.2s-0.6,0.2-0.8,0.4
		c-0.2,0.2-0.4,0.4-0.5,0.6c-0.1,0.3-0.2,0.6-0.2,1c0,0.4,0.1,0.7,0.2,0.9c0.1,0.3,0.3,0.4,0.6,0.6c0.2,0.1,0.5,0.2,0.8,0.3
		s0.6,0.1,1,0.1c0.8,0,1.4-0.1,1.9-0.4c0.4-0.3,0.8-0.6,1-1c0.2-0.4,0.3-0.8,0.4-1.1c0-0.4,0.1-0.7,0.1-0.9V104.9z"/>
	<path class="st0" d="M87.2,100c-0.7,0-1.2,0.1-1.7,0.4c-0.4,0.3-0.8,0.7-1.1,1.2c-0.3,0.5-0.5,1-0.6,1.6c-0.1,0.6-0.2,1.1-0.2,1.7
		c0,0.5,0.1,1.1,0.2,1.7c0.1,0.6,0.3,1.1,0.6,1.5c0.3,0.5,0.6,0.8,1.1,1.1c0.4,0.3,1,0.4,1.6,0.4c1,0,1.7-0.3,2.3-0.8
		c0.5-0.6,0.9-1.3,1-2.2h4c-0.3,2-1,3.5-2.3,4.6c-1.3,1-2.9,1.6-4.9,1.6c-1.1,0-2.2-0.2-3.1-0.6c-0.9-0.4-1.7-0.9-2.4-1.6
		c-0.7-0.7-1.2-1.5-1.5-2.4c-0.4-0.9-0.6-2-0.6-3.1c0-1.2,0.2-2.2,0.5-3.2c0.3-1,0.8-1.9,1.5-2.6c0.7-0.7,1.5-1.3,2.4-1.7
		c0.9-0.4,2-0.6,3.2-0.6c0.9,0,1.7,0.1,2.6,0.3c0.8,0.2,1.6,0.6,2.2,1.1c0.6,0.5,1.2,1.1,1.6,1.8c0.4,0.7,0.6,1.5,0.7,2.5h-4
		C90,100.8,89,100,87.2,100z"/>
	<path class="st0" d="M104.4,97.3v2.8h-3v7.4c0,0.7,0.1,1.2,0.3,1.4c0.2,0.2,0.7,0.3,1.4,0.3c0.2,0,0.5,0,0.7,0c0.2,0,0.4,0,0.6-0.1
		v3.2c-0.3,0.1-0.7,0.1-1.2,0.1c-0.4,0-0.8,0-1.2,0c-0.6,0-1.2,0-1.8-0.1c-0.6-0.1-1.1-0.3-1.5-0.5c-0.4-0.3-0.8-0.6-1-1.1
		c-0.3-0.5-0.4-1.1-0.4-1.8V100h-2.5v-2.8h2.5v-4.5h4.1v4.5H104.4z"/>
	<path class="st0" d="M105.9,95v-3.4h4.1V95H105.9z M110,97.3v15h-4.1v-15H110z"/>
	<path class="st0" d="M119.9,100c-0.7,0-1.2,0.1-1.7,0.4c-0.4,0.3-0.8,0.7-1.1,1.2c-0.3,0.5-0.5,1-0.6,1.6c-0.1,0.6-0.2,1.1-0.2,1.7
		c0,0.5,0.1,1.1,0.2,1.7c0.1,0.6,0.3,1.1,0.6,1.5c0.3,0.5,0.6,0.8,1.1,1.1c0.4,0.3,1,0.4,1.6,0.4c1,0,1.7-0.3,2.3-0.8
		c0.5-0.6,0.9-1.3,1-2.2h4c-0.3,2-1,3.5-2.3,4.6c-1.3,1-2.9,1.6-4.9,1.6c-1.1,0-2.2-0.2-3.1-0.6c-0.9-0.4-1.7-0.9-2.4-1.6
		c-0.7-0.7-1.2-1.5-1.5-2.4c-0.4-0.9-0.6-2-0.6-3.1c0-1.2,0.2-2.2,0.5-3.2c0.3-1,0.8-1.9,1.5-2.6c0.7-0.7,1.5-1.3,2.4-1.7
		c0.9-0.4,2-0.6,3.2-0.6c0.9,0,1.7,0.1,2.6,0.3c0.8,0.2,1.6,0.6,2.2,1.1c0.6,0.5,1.2,1.1,1.6,1.8c0.4,0.7,0.6,1.5,0.7,2.5h-4
		C122.6,100.8,121.6,100,119.9,100z"/>
	<path class="st0" d="M128.6,101.9c0.1-1,0.3-1.8,0.7-2.4c0.4-0.6,1-1.1,1.6-1.5c0.7-0.4,1.4-0.7,2.2-0.8c0.8-0.2,1.6-0.2,2.5-0.2
		c0.8,0,1.5,0.1,2.3,0.2c0.8,0.1,1.5,0.3,2.1,0.6c0.6,0.3,1.2,0.7,1.6,1.3c0.4,0.6,0.6,1.3,0.6,2.2v7.8c0,0.7,0,1.3,0.1,1.9
		c0.1,0.6,0.2,1.1,0.4,1.4h-4.2c-0.1-0.2-0.1-0.5-0.2-0.7c0-0.2-0.1-0.5-0.1-0.7c-0.7,0.7-1.4,1.2-2.3,1.4s-1.8,0.4-2.7,0.4
		c-0.7,0-1.4-0.1-2-0.3c-0.6-0.2-1.2-0.4-1.6-0.8c-0.5-0.4-0.8-0.8-1.1-1.4c-0.3-0.6-0.4-1.2-0.4-2c0-0.9,0.1-1.6,0.4-2.1
		c0.3-0.6,0.7-1,1.2-1.3c0.5-0.3,1-0.6,1.6-0.7c0.6-0.2,1.2-0.3,1.8-0.4c0.6-0.1,1.2-0.2,1.8-0.2c0.6-0.1,1.1-0.1,1.6-0.3
		c0.5-0.1,0.8-0.3,1.1-0.5c0.3-0.2,0.4-0.5,0.4-1c0-0.4-0.1-0.8-0.2-1.1c-0.1-0.3-0.3-0.5-0.6-0.6c-0.2-0.1-0.5-0.2-0.8-0.3
		c-0.3,0-0.7-0.1-1-0.1c-0.8,0-1.4,0.2-1.9,0.5c-0.5,0.3-0.7,0.9-0.8,1.7H128.6z M138.1,104.9c-0.2,0.2-0.4,0.3-0.7,0.4
		c-0.3,0.1-0.5,0.2-0.8,0.2c-0.3,0.1-0.6,0.1-0.9,0.1s-0.7,0.1-1,0.1c-0.3,0.1-0.6,0.1-0.9,0.2s-0.6,0.2-0.8,0.4
		c-0.2,0.2-0.4,0.4-0.5,0.6c-0.1,0.3-0.2,0.6-0.2,1c0,0.4,0.1,0.7,0.2,0.9c0.1,0.3,0.3,0.4,0.6,0.6c0.2,0.1,0.5,0.2,0.8,0.3
		s0.6,0.1,1,0.1c0.8,0,1.4-0.1,1.9-0.4c0.4-0.3,0.8-0.6,1-1c0.2-0.4,0.3-0.8,0.4-1.1c0-0.4,0.1-0.7,0.1-0.9V104.9z"/>
	<path class="st0" d="M149.1,91.6v20.7H145V91.6H149.1z"/>
	<path class="st0" d="M174.9,112.3l-3.5-14.1h-0.1l-3.5,14.1h-4.6l-5.5-20.7h4.6l3.3,14.1h0.1l3.6-14.1h4.3l3.5,14.3h0.1l3.4-14.3
		h4.5l-5.6,20.7H174.9z"/>
	<path class="st0" d="M186.2,95v-3.4h4.1V95H186.2z M190.3,97.3v15h-4.1v-15H190.3z"/>
	<path class="st0" d="M196.5,108.5c0.2,0.3,0.4,0.6,0.7,0.8c0.3,0.2,0.6,0.4,1,0.4c0.4,0.1,0.8,0.1,1.2,0.1c0.3,0,0.6,0,0.9-0.1
		c0.3-0.1,0.6-0.2,0.9-0.3c0.3-0.1,0.5-0.3,0.7-0.6c0.2-0.2,0.3-0.5,0.3-0.9c0-0.6-0.4-1.1-1.2-1.4c-0.8-0.3-2-0.6-3.4-0.9
		c-0.6-0.1-1.2-0.3-1.8-0.5c-0.6-0.2-1.1-0.4-1.5-0.7c-0.4-0.3-0.8-0.7-1.1-1.1c-0.3-0.5-0.4-1-0.4-1.7c0-1,0.2-1.8,0.6-2.4
		s0.9-1.1,1.5-1.5c0.6-0.4,1.3-0.6,2.1-0.8s1.6-0.2,2.4-0.2c0.8,0,1.6,0.1,2.4,0.2c0.8,0.2,1.4,0.4,2,0.8c0.6,0.4,1.1,0.9,1.5,1.5
		s0.6,1.4,0.7,2.3h-3.9c-0.1-0.8-0.4-1.3-0.9-1.6c-0.5-0.3-1.2-0.4-1.9-0.4c-0.2,0-0.5,0-0.8,0c-0.3,0-0.5,0.1-0.7,0.2
		c-0.2,0.1-0.4,0.2-0.6,0.4c-0.2,0.2-0.2,0.4-0.2,0.7c0,0.4,0.1,0.7,0.4,0.9s0.6,0.4,1.1,0.6s0.9,0.3,1.5,0.4s1.1,0.2,1.7,0.4
		c0.6,0.1,1.2,0.3,1.8,0.5s1.1,0.4,1.5,0.8c0.4,0.3,0.8,0.7,1.1,1.2c0.3,0.5,0.4,1.1,0.4,1.8c0,1-0.2,1.8-0.6,2.5
		c-0.4,0.7-0.9,1.2-1.6,1.6c-0.6,0.4-1.4,0.7-2.2,0.9c-0.8,0.2-1.7,0.2-2.5,0.2c-0.9,0-1.7-0.1-2.6-0.3c-0.8-0.2-1.6-0.5-2.2-0.9
		c-0.6-0.4-1.2-0.9-1.6-1.6s-0.6-1.5-0.7-2.5h3.9C196.2,107.8,196.3,108.2,196.5,108.5z"/>
	<path class="st0" d="M218.7,110.4c-0.5,0.8-1.1,1.4-1.9,1.8c-0.8,0.4-1.7,0.5-2.7,0.5c-1.1,0-2.1-0.2-3-0.7c-0.9-0.4-1.6-1-2.1-1.8
		c-0.6-0.7-1-1.6-1.2-2.6s-0.4-2-0.4-3c0-1,0.1-2,0.4-2.9c0.3-0.9,0.7-1.8,1.2-2.5c0.6-0.7,1.2-1.3,2.1-1.7s1.8-0.7,2.9-0.7
		c0.9,0,1.7,0.2,2.5,0.6c0.8,0.4,1.4,0.9,1.9,1.7h0.1v-7.5h4.1v20.7h-3.9L218.7,110.4L218.7,110.4z M218.5,103
		c-0.1-0.6-0.3-1.1-0.6-1.5s-0.6-0.8-1.1-1.1c-0.4-0.3-1-0.4-1.7-0.4s-1.2,0.1-1.7,0.4c-0.5,0.3-0.8,0.6-1.1,1.1
		c-0.3,0.4-0.5,1-0.6,1.5s-0.2,1.2-0.2,1.8c0,0.6,0.1,1.2,0.2,1.7c0.1,0.6,0.4,1.1,0.7,1.6c0.3,0.5,0.7,0.8,1.1,1.1
		c0.5,0.3,1,0.4,1.6,0.4c0.7,0,1.2-0.1,1.7-0.4c0.5-0.3,0.8-0.6,1.1-1.1c0.3-0.5,0.5-1,0.6-1.6c0.1-0.6,0.2-1.2,0.2-1.8
		C218.7,104.1,218.6,103.5,218.5,103z"/>
	<path class="st0" d="M225.2,101.5c0.4-1,0.9-1.8,1.6-2.5s1.5-1.2,2.4-1.6c0.9-0.4,2-0.6,3.2-0.6s2.2,0.2,3.2,0.6s1.8,0.9,2.5,1.6
		s1.2,1.5,1.6,2.5c0.4,1,0.6,2.1,0.6,3.3s-0.2,2.3-0.6,3.2c-0.4,1-0.9,1.8-1.6,2.5c-0.7,0.7-1.5,1.2-2.5,1.6c-1,0.4-2,0.6-3.2,0.6
		s-2.2-0.2-3.2-0.6c-0.9-0.4-1.8-0.9-2.4-1.6c-0.7-0.7-1.2-1.5-1.6-2.5c-0.4-1-0.6-2-0.6-3.2S224.9,102.5,225.2,101.5z M229,106.5
		c0.1,0.6,0.3,1.1,0.6,1.5c0.3,0.5,0.7,0.8,1.1,1.1c0.5,0.3,1,0.4,1.7,0.4c0.7,0,1.3-0.1,1.8-0.4c0.5-0.3,0.9-0.6,1.1-1.1
		c0.3-0.5,0.5-1,0.6-1.5c0.1-0.6,0.2-1.2,0.2-1.8c0-0.6-0.1-1.2-0.2-1.8s-0.3-1.1-0.6-1.5c-0.3-0.4-0.7-0.8-1.1-1.1
		s-1.1-0.4-1.8-0.4c-0.7,0-1.3,0.1-1.7,0.4c-0.5,0.3-0.8,0.6-1.1,1.1c-0.3,0.4-0.5,1-0.6,1.5c-0.1,0.6-0.2,1.2-0.2,1.8
		C228.8,105.4,228.9,106,229,106.5z"/>
	<path class="st0" d="M246.3,97.3v2h0.1c0.5-0.8,1.2-1.4,2-1.8c0.8-0.4,1.6-0.6,2.6-0.6c0.9,0,1.8,0.2,2.6,0.6
		c0.8,0.4,1.4,1,1.8,1.9c0.4-0.7,1-1.2,1.8-1.7c0.8-0.5,1.7-0.8,2.7-0.8c0.8,0,1.5,0.1,2.2,0.3c0.7,0.2,1.3,0.5,1.7,0.9
		c0.5,0.4,0.9,1,1.1,1.7c0.3,0.7,0.4,1.5,0.4,2.5v10h-4.1v-8.5c0-0.5,0-1-0.1-1.4c0-0.4-0.1-0.8-0.3-1.2c-0.2-0.3-0.4-0.6-0.8-0.8
		c-0.3-0.2-0.8-0.3-1.4-0.3s-1,0.1-1.4,0.3c-0.4,0.2-0.6,0.5-0.8,0.9c-0.2,0.4-0.3,0.8-0.4,1.2c-0.1,0.5-0.1,0.9-0.1,1.4v8.4h-4.1
		v-8.4c0-0.4,0-0.9,0-1.3s-0.1-0.8-0.2-1.2c-0.1-0.4-0.4-0.7-0.7-0.9c-0.3-0.2-0.8-0.3-1.5-0.3c-0.2,0-0.4,0-0.8,0.1
		s-0.6,0.3-0.9,0.5s-0.6,0.6-0.8,1c-0.2,0.5-0.3,1-0.3,1.8v8.7h-4.1v-15H246.3z"/>
</g>
<g>
	<path class="st0" d="M72.4,130v-2.8h2.5v-1.2c0-1.3,0.4-2.4,1.2-3.3c0.8-0.9,2.1-1.3,3.8-1.3c0.4,0,0.7,0,1.1,0
		c0.4,0,0.7,0.1,1.1,0.1v3.1c-0.5-0.1-1-0.1-1.5-0.1c-0.6,0-1,0.1-1.2,0.4s-0.4,0.7-0.4,1.3v0.9h2.8v2.8H79v12.2h-4.1V130H72.4z"/>
	<path class="st0" d="M83.2,131.5c0.4-1,0.9-1.8,1.6-2.5c0.7-0.7,1.5-1.2,2.4-1.6c0.9-0.4,2-0.6,3.2-0.6c1.2,0,2.2,0.2,3.2,0.6
		c1,0.4,1.8,0.9,2.5,1.6s1.2,1.5,1.6,2.5s0.6,2.1,0.6,3.3c0,1.2-0.2,2.3-0.6,3.2c-0.4,1-0.9,1.8-1.6,2.5c-0.7,0.7-1.5,1.2-2.5,1.6
		s-2,0.6-3.2,0.6c-1.2,0-2.2-0.2-3.2-0.6s-1.8-0.9-2.4-1.6c-0.7-0.7-1.2-1.5-1.6-2.5c-0.4-1-0.6-2-0.6-3.2
		C82.6,133.6,82.8,132.5,83.2,131.5z M86.9,136.5c0.1,0.6,0.3,1.1,0.6,1.5s0.7,0.8,1.1,1.1s1,0.4,1.7,0.4c0.7,0,1.3-0.1,1.8-0.4
		c0.5-0.3,0.9-0.6,1.1-1.1s0.5-1,0.6-1.5c0.1-0.6,0.2-1.2,0.2-1.8c0-0.6-0.1-1.2-0.2-1.8c-0.1-0.6-0.3-1.1-0.6-1.5
		c-0.3-0.4-0.7-0.8-1.1-1.1c-0.5-0.3-1.1-0.4-1.8-0.4c-0.7,0-1.3,0.1-1.7,0.4c-0.5,0.3-0.8,0.6-1.1,1.1c-0.3,0.4-0.5,1-0.6,1.5
		c-0.1,0.6-0.2,1.2-0.2,1.8C86.7,135.4,86.8,136,86.9,136.5z"/>
	<path class="st0" d="M104.1,127.3v2.8h0.1c0.2-0.5,0.5-0.9,0.8-1.3s0.7-0.7,1.1-1c0.4-0.3,0.9-0.5,1.4-0.7c0.5-0.2,1-0.2,1.5-0.2
		c0.3,0,0.6,0,0.9,0.1v3.8c-0.2,0-0.4-0.1-0.7-0.1c-0.3,0-0.5,0-0.8,0c-0.8,0-1.4,0.1-1.9,0.4c-0.5,0.3-0.9,0.6-1.3,1
		c-0.3,0.4-0.5,0.9-0.7,1.5c-0.1,0.6-0.2,1.2-0.2,1.9v6.8h-4.1v-15H104.1z"/>
	<path class="st0" d="M127.8,121.6c1.3,0,2.6,0.2,3.7,0.6c1.1,0.4,2.1,1.1,3,1.9s1.5,1.9,2,3.2c0.5,1.3,0.7,2.8,0.7,4.5
		c0,1.5-0.2,2.9-0.6,4.2c-0.4,1.3-1,2.4-1.8,3.3c-0.8,0.9-1.8,1.7-2.9,2.2c-1.2,0.5-2.5,0.8-4.1,0.8h-8.9v-20.7H127.8z M127.5,138.4
		c0.7,0,1.3-0.1,1.9-0.3c0.6-0.2,1.2-0.6,1.7-1.1c0.5-0.5,0.9-1.1,1.2-1.9s0.4-1.8,0.4-2.9c0-1-0.1-2-0.3-2.8
		c-0.2-0.8-0.5-1.6-1-2.2c-0.5-0.6-1.1-1.1-1.8-1.4s-1.7-0.5-2.8-0.5h-3.2v13H127.5z"/>
	<path class="st0" d="M143.8,138.7c0.6,0.6,1.5,0.9,2.7,0.9c0.8,0,1.5-0.2,2.1-0.6c0.6-0.4,1-0.9,1.1-1.3h3.6
		c-0.6,1.8-1.5,3.1-2.7,3.9c-1.2,0.8-2.6,1.2-4.3,1.2c-1.2,0-2.2-0.2-3.2-0.6s-1.8-0.9-2.4-1.6c-0.7-0.7-1.2-1.5-1.5-2.5
		c-0.4-1-0.5-2-0.5-3.2c0-1.1,0.2-2.2,0.6-3.1c0.4-1,0.9-1.8,1.6-2.5c0.7-0.7,1.5-1.3,2.4-1.7c0.9-0.4,2-0.6,3.1-0.6
		c1.3,0,2.4,0.2,3.3,0.7s1.7,1.2,2.3,2c0.6,0.8,1,1.8,1.3,2.8c0.3,1.1,0.4,2.2,0.3,3.3h-10.8C142.8,137.1,143.2,138.1,143.8,138.7z
		 M148.4,130.8c-0.5-0.5-1.2-0.8-2.2-0.8c-0.7,0-1.2,0.1-1.6,0.3c-0.4,0.2-0.8,0.5-1,0.8c-0.3,0.3-0.4,0.7-0.6,1s-0.2,0.7-0.2,1h6.7
		C149.3,132.1,148.9,131.3,148.4,130.8z"/>
	<path class="st0" d="M159.4,127.3v2.1h0.1c0.5-0.9,1.2-1.5,2-1.9c0.8-0.4,1.7-0.6,2.6-0.6c1.1,0,2,0.2,2.7,0.5s1.3,0.7,1.7,1.2
		c0.4,0.5,0.7,1.2,0.9,1.9c0.2,0.8,0.2,1.6,0.2,2.5v9.2h-4.1v-8.5c0-1.2-0.2-2.2-0.6-2.8c-0.4-0.6-1.1-0.9-2.1-0.9
		c-1.1,0-1.9,0.3-2.4,1c-0.5,0.7-0.8,1.8-0.8,3.3v7.9h-4.1v-15H159.4z"/>
	<path class="st0" d="M180.4,127.3v2.8h-3v7.4c0,0.7,0.1,1.2,0.3,1.4c0.2,0.2,0.7,0.3,1.4,0.3c0.2,0,0.5,0,0.7,0
		c0.2,0,0.4,0,0.6-0.1v3.2c-0.3,0.1-0.7,0.1-1.2,0.1c-0.4,0-0.8,0-1.2,0c-0.6,0-1.2,0-1.8-0.1s-1.1-0.3-1.5-0.5
		c-0.4-0.3-0.8-0.6-1-1.1c-0.3-0.5-0.4-1.1-0.4-1.8V130h-2.5v-2.8h2.5v-4.5h4.1v4.5H180.4z"/>
	<path class="st0" d="M181.9,124.9v-3.4h4.1v3.4H181.9z M186,127.3v15h-4.1v-15H186z"/>
	<path class="st0" d="M192.2,138.5c0.2,0.3,0.4,0.6,0.7,0.8s0.6,0.4,1,0.4s0.8,0.1,1.2,0.1c0.3,0,0.6,0,0.9-0.1
		c0.3-0.1,0.6-0.2,0.9-0.3c0.3-0.1,0.5-0.3,0.7-0.6c0.2-0.2,0.3-0.5,0.3-0.9c0-0.6-0.4-1.1-1.2-1.4c-0.8-0.3-2-0.6-3.4-0.9
		c-0.6-0.1-1.2-0.3-1.8-0.5s-1.1-0.4-1.5-0.7c-0.4-0.3-0.8-0.7-1.1-1.1c-0.3-0.5-0.4-1-0.4-1.7c0-1,0.2-1.8,0.6-2.4
		c0.4-0.6,0.9-1.1,1.5-1.5c0.6-0.4,1.3-0.6,2.1-0.8c0.8-0.1,1.6-0.2,2.4-0.2c0.8,0,1.6,0.1,2.4,0.2c0.8,0.2,1.4,0.4,2,0.8
		c0.6,0.4,1.1,0.9,1.5,1.5c0.4,0.6,0.6,1.4,0.7,2.3h-3.9c-0.1-0.8-0.4-1.3-0.9-1.6s-1.2-0.4-1.9-0.4c-0.2,0-0.5,0-0.8,0
		s-0.5,0.1-0.7,0.2c-0.2,0.1-0.4,0.2-0.6,0.4c-0.2,0.2-0.2,0.4-0.2,0.7c0,0.4,0.1,0.7,0.4,0.9c0.3,0.2,0.6,0.4,1.1,0.6
		c0.4,0.1,0.9,0.3,1.5,0.4c0.6,0.1,1.1,0.2,1.7,0.4c0.6,0.1,1.2,0.3,1.8,0.5c0.6,0.2,1.1,0.5,1.5,0.8c0.4,0.3,0.8,0.7,1.1,1.2
		c0.3,0.5,0.4,1.1,0.4,1.8c0,1-0.2,1.8-0.6,2.5c-0.4,0.7-0.9,1.2-1.6,1.6c-0.6,0.4-1.4,0.7-2.2,0.9c-0.8,0.2-1.7,0.2-2.5,0.2
		c-0.9,0-1.7-0.1-2.6-0.3s-1.6-0.5-2.2-0.9s-1.2-0.9-1.6-1.6s-0.6-1.5-0.7-2.5h3.9C191.9,137.8,192,138.2,192.2,138.5z"/>
	<path class="st0" d="M212,127.3v2.8h-3v7.4c0,0.7,0.1,1.2,0.3,1.4c0.2,0.2,0.7,0.3,1.4,0.3c0.2,0,0.5,0,0.7,0c0.2,0,0.4,0,0.6-0.1
		v3.2c-0.3,0.1-0.7,0.1-1.2,0.1c-0.4,0-0.8,0-1.2,0c-0.6,0-1.2,0-1.8-0.1s-1.1-0.3-1.5-0.5c-0.4-0.3-0.8-0.6-1-1.1
		c-0.3-0.5-0.4-1.1-0.4-1.8V130h-2.5v-2.8h2.5v-4.5h4.1v4.5H212z"/>
	<path class="st0" d="M216.9,138.5c0.2,0.3,0.4,0.6,0.7,0.8s0.6,0.4,1,0.4s0.8,0.1,1.2,0.1c0.3,0,0.6,0,0.9-0.1
		c0.3-0.1,0.6-0.2,0.9-0.3c0.3-0.1,0.5-0.3,0.7-0.6c0.2-0.2,0.3-0.5,0.3-0.9c0-0.6-0.4-1.1-1.2-1.4c-0.8-0.3-2-0.6-3.4-0.9
		c-0.6-0.1-1.2-0.3-1.8-0.5s-1.1-0.4-1.5-0.7c-0.4-0.3-0.8-0.7-1.1-1.1c-0.3-0.5-0.4-1-0.4-1.7c0-1,0.2-1.8,0.6-2.4
		c0.4-0.6,0.9-1.1,1.5-1.5c0.6-0.4,1.3-0.6,2.1-0.8c0.8-0.1,1.6-0.2,2.4-0.2c0.8,0,1.6,0.1,2.4,0.2c0.8,0.2,1.4,0.4,2,0.8
		c0.6,0.4,1.1,0.9,1.5,1.5c0.4,0.6,0.6,1.4,0.7,2.3h-3.9c-0.1-0.8-0.4-1.3-0.9-1.6s-1.2-0.4-1.9-0.4c-0.2,0-0.5,0-0.8,0
		s-0.5,0.1-0.7,0.2c-0.2,0.1-0.4,0.2-0.6,0.4c-0.2,0.2-0.2,0.4-0.2,0.7c0,0.4,0.1,0.7,0.4,0.9c0.3,0.2,0.6,0.4,1.1,0.6
		c0.4,0.1,0.9,0.3,1.5,0.4c0.6,0.1,1.1,0.2,1.7,0.4c0.6,0.1,1.2,0.3,1.8,0.5c0.6,0.2,1.1,0.5,1.5,0.8c0.4,0.3,0.8,0.7,1.1,1.2
		c0.3,0.5,0.4,1.1,0.4,1.8c0,1-0.2,1.8-0.6,2.5c-0.4,0.7-0.9,1.2-1.6,1.6c-0.6,0.4-1.4,0.7-2.2,0.9c-0.8,0.2-1.7,0.2-2.5,0.2
		c-0.9,0-1.7-0.1-2.6-0.3s-1.6-0.5-2.2-0.9s-1.2-0.9-1.6-1.6s-0.6-1.5-0.7-2.5h3.9C216.6,137.8,216.7,138.2,216.9,138.5z"/>
</g>
</svg>
