<?xml version="1.0" encoding="utf-8"?>
<!-- Generator: Adobe Illustrator 25.4.1, SVG Export Plug-In . SVG Version: 6.00 Build 0)  -->
<svg version="1.1" id="Layer_1" xmlns="http://www.w3.org/2000/svg" xmlns:xlink="http://www.w3.org/1999/xlink" x="0px" y="0px"
	 viewBox="0 0 300 250" style="enable-background:new 0 0 300 250;" xml:space="preserve">
<style type="text/css">
	.st0{fill:#349946;}
</style>
<g>
	<path class="st0" d="M19.6,126.3c0.1-1.3,0.4-2.4,1-3.2c0.6-0.9,1.3-1.5,2.2-2.1c0.9-0.5,1.9-0.9,3-1.1c1.1-0.2,2.2-0.3,3.3-0.3
		c1,0,2,0.1,3.1,0.2c1,0.1,2,0.4,2.8,0.8s1.6,1,2.1,1.7c0.5,0.7,0.8,1.7,0.8,2.9v10.5c0,0.9,0.1,1.8,0.2,2.6
		c0.1,0.8,0.3,1.5,0.5,1.9H33c-0.1-0.3-0.2-0.6-0.3-1c-0.1-0.3-0.1-0.7-0.1-1c-0.9,0.9-1.9,1.5-3.1,1.9c-1.2,0.4-2.4,0.5-3.7,0.5
		c-1,0-1.9-0.1-2.7-0.4c-0.8-0.2-1.6-0.6-2.2-1.1s-1.1-1.1-1.5-1.9s-0.5-1.7-0.5-2.7c0-1.1,0.2-2.1,0.6-2.8c0.4-0.7,0.9-1.3,1.6-1.8
		c0.6-0.4,1.4-0.8,2.2-1c0.8-0.2,1.6-0.4,2.5-0.5c0.8-0.1,1.7-0.2,2.5-0.3c0.8-0.1,1.5-0.2,2.1-0.4s1.1-0.4,1.5-0.7
		c0.4-0.3,0.5-0.7,0.5-1.3c0-0.6-0.1-1.1-0.3-1.4c-0.2-0.4-0.5-0.6-0.8-0.8c-0.3-0.2-0.7-0.3-1.1-0.4c-0.4-0.1-0.9-0.1-1.4-0.1
		c-1.1,0-2,0.2-2.6,0.7c-0.6,0.5-1,1.2-1.1,2.3H19.6z M32.4,130.4c-0.2,0.2-0.5,0.4-0.9,0.5c-0.4,0.1-0.7,0.2-1.1,0.3
		c-0.4,0.1-0.8,0.1-1.3,0.2c-0.4,0.1-0.9,0.1-1.3,0.2c-0.4,0.1-0.8,0.2-1.2,0.3c-0.4,0.1-0.8,0.3-1.1,0.5s-0.5,0.5-0.7,0.8
		c-0.2,0.3-0.3,0.8-0.3,1.3c0,0.5,0.1,0.9,0.3,1.2c0.2,0.3,0.4,0.6,0.7,0.8s0.7,0.3,1.1,0.4c0.4,0.1,0.8,0.1,1.3,0.1
		c1.1,0,1.9-0.2,2.5-0.5c0.6-0.4,1-0.8,1.3-1.3c0.3-0.5,0.5-1,0.5-1.5c0.1-0.5,0.1-0.9,0.1-1.2V130.4z"/>
	<path class="st0" d="M46.7,120.1v2.8h0.1c0.7-1.2,1.6-2,2.7-2.6c1.1-0.5,2.3-0.8,3.4-0.8c1.5,0,2.7,0.2,3.6,0.6
		c0.9,0.4,1.7,1,2.2,1.7c0.5,0.7,0.9,1.6,1.2,2.6c0.2,1,0.3,2.2,0.3,3.4v12.4h-5.5v-11.4c0-1.7-0.3-2.9-0.8-3.7
		c-0.5-0.8-1.4-1.2-2.8-1.2c-1.5,0-2.6,0.4-3.3,1.3c-0.7,0.9-1,2.4-1,4.4v10.6h-5.5v-20.2H46.7z"/>
	<path class="st0" d="M78.2,137.7c-0.7,1.1-1.5,1.9-2.6,2.4c-1.1,0.5-2.2,0.7-3.6,0.7c-1.5,0-2.8-0.3-4-0.9s-2.1-1.4-2.8-2.4
		c-0.7-1-1.3-2.2-1.7-3.5c-0.4-1.3-0.6-2.7-0.6-4.1c0-1.4,0.2-2.7,0.6-3.9c0.4-1.3,0.9-2.4,1.7-3.3c0.7-1,1.7-1.7,2.8-2.3
		c1.1-0.6,2.4-0.9,3.9-0.9c1.2,0,2.3,0.3,3.4,0.8c1.1,0.5,1.9,1.3,2.6,2.2H78v-10.1h5.5v27.8h-5.3L78.2,137.7L78.2,137.7z
		 M77.9,127.7c-0.2-0.8-0.4-1.4-0.8-2c-0.4-0.6-0.9-1.1-1.5-1.4c-0.6-0.4-1.4-0.5-2.3-0.5c-0.9,0-1.7,0.2-2.3,0.5
		c-0.6,0.4-1.1,0.8-1.5,1.4c-0.4,0.6-0.6,1.3-0.8,2c-0.2,0.8-0.3,1.6-0.3,2.4c0,0.8,0.1,1.6,0.3,2.3c0.2,0.8,0.5,1.5,0.9,2.1
		c0.4,0.6,0.9,1.1,1.5,1.5c0.6,0.4,1.3,0.6,2.2,0.6c0.9,0,1.7-0.2,2.3-0.5c0.6-0.4,1.1-0.9,1.5-1.5c0.4-0.6,0.6-1.3,0.8-2.1
		c0.2-0.8,0.2-1.6,0.2-2.4S78.1,128.5,77.9,127.7z"/>
	<path class="st0" d="M106.7,123.7c-0.9,0-1.6,0.2-2.2,0.6c-0.6,0.4-1.1,0.9-1.5,1.6c-0.4,0.6-0.6,1.3-0.8,2.1
		c-0.2,0.8-0.2,1.5-0.2,2.3c0,0.7,0.1,1.5,0.2,2.2c0.2,0.8,0.4,1.4,0.8,2c0.4,0.6,0.8,1.1,1.4,1.5c0.6,0.4,1.3,0.6,2.2,0.6
		c1.3,0,2.3-0.4,3.1-1.1c0.7-0.7,1.2-1.7,1.3-3h5.3c-0.4,2.7-1.4,4.7-3.1,6.1c-1.7,1.4-3.9,2.1-6.6,2.1c-1.5,0-2.9-0.3-4.2-0.8
		c-1.3-0.5-2.3-1.2-3.2-2.1c-0.9-0.9-1.6-2-2.1-3.3c-0.5-1.3-0.7-2.6-0.7-4.2c0-1.6,0.2-3,0.7-4.3c0.5-1.3,1.1-2.5,2-3.5
		c0.9-1,2-1.7,3.2-2.3c1.3-0.5,2.7-0.8,4.4-0.8c1.2,0,2.3,0.2,3.5,0.5c1.1,0.3,2.1,0.8,3,1.4c0.9,0.6,1.6,1.4,2.1,2.4
		c0.5,0.9,0.9,2.1,0.9,3.4h-5.4C110.4,124.9,109,123.7,106.7,123.7z"/>
	<path class="st0" d="M118.4,126.3c0.1-1.3,0.4-2.4,1-3.2c0.6-0.9,1.3-1.5,2.2-2.1c0.9-0.5,1.9-0.9,3-1.1c1.1-0.2,2.2-0.3,3.3-0.3
		c1,0,2,0.1,3.1,0.2c1,0.1,2,0.4,2.8,0.8c0.9,0.4,1.6,1,2.1,1.7c0.5,0.7,0.8,1.7,0.8,2.9v10.5c0,0.9,0.1,1.8,0.2,2.6
		c0.1,0.8,0.3,1.5,0.5,1.9h-5.6c-0.1-0.3-0.2-0.6-0.3-1s-0.1-0.7-0.1-1c-0.9,0.9-1.9,1.5-3.1,1.9c-1.2,0.4-2.4,0.5-3.7,0.5
		c-1,0-1.9-0.1-2.7-0.4c-0.8-0.2-1.6-0.6-2.2-1.1s-1.1-1.1-1.5-1.9s-0.5-1.7-0.5-2.7c0-1.1,0.2-2.1,0.6-2.8c0.4-0.7,0.9-1.3,1.6-1.8
		c0.6-0.4,1.4-0.8,2.2-1c0.8-0.2,1.6-0.4,2.5-0.5c0.8-0.1,1.7-0.2,2.5-0.3c0.8-0.1,1.5-0.2,2.1-0.4s1.1-0.4,1.5-0.7
		c0.4-0.3,0.5-0.7,0.5-1.3c0-0.6-0.1-1.1-0.3-1.4c-0.2-0.4-0.5-0.6-0.8-0.8c-0.3-0.2-0.7-0.3-1.1-0.4c-0.4-0.1-0.9-0.1-1.4-0.1
		c-1.1,0-2,0.2-2.6,0.7c-0.6,0.5-1,1.2-1.1,2.3H118.4z M131.2,130.4c-0.2,0.2-0.5,0.4-0.9,0.5c-0.4,0.1-0.7,0.2-1.1,0.3
		s-0.8,0.1-1.3,0.2c-0.4,0.1-0.9,0.1-1.3,0.2c-0.4,0.1-0.8,0.2-1.2,0.3c-0.4,0.1-0.8,0.3-1.1,0.5s-0.5,0.5-0.7,0.8
		c-0.2,0.3-0.3,0.8-0.3,1.3c0,0.5,0.1,0.9,0.3,1.2c0.2,0.3,0.4,0.6,0.7,0.8s0.7,0.3,1.1,0.4c0.4,0.1,0.8,0.1,1.3,0.1
		c1.1,0,1.9-0.2,2.5-0.5c0.6-0.4,1-0.8,1.3-1.3s0.5-1,0.5-1.5c0.1-0.5,0.1-0.9,0.1-1.2V130.4z"/>
	<path class="st0" d="M145.6,120.1v3.7h0.1c0.3-0.6,0.6-1.2,1.1-1.7c0.4-0.5,0.9-1,1.5-1.4c0.6-0.4,1.2-0.7,1.8-0.9
		c0.6-0.2,1.3-0.3,2-0.3c0.4,0,0.8,0.1,1.2,0.2v5.1c-0.3-0.1-0.6-0.1-0.9-0.1c-0.4,0-0.7-0.1-1.1-0.1c-1,0-1.9,0.2-2.6,0.5
		c-0.7,0.3-1.3,0.8-1.7,1.4c-0.4,0.6-0.7,1.3-0.9,2c-0.2,0.8-0.3,1.6-0.3,2.5v9.1h-5.5v-20.2H145.6z"/>
	<path class="st0" d="M160,120.1v3.7h0.1c0.3-0.6,0.6-1.2,1.1-1.7c0.4-0.5,0.9-1,1.5-1.4c0.6-0.4,1.2-0.7,1.8-0.9
		c0.6-0.2,1.3-0.3,2-0.3c0.4,0,0.8,0.1,1.2,0.2v5.1c-0.3-0.1-0.6-0.1-0.9-0.1c-0.4,0-0.7-0.1-1.1-0.1c-1,0-1.9,0.2-2.6,0.5
		c-0.7,0.3-1.3,0.8-1.7,1.4c-0.4,0.6-0.7,1.3-0.9,2c-0.2,0.8-0.3,1.6-0.3,2.5v9.1h-5.5v-20.2H160z"/>
	<path class="st0" d="M176.6,146.3c-1.1,0.7-2.5,1.1-4.4,1.1c-0.6,0-1.1,0-1.7-0.1c-0.6,0-1.1-0.1-1.7-0.1v-4.6
		c0.5,0.1,1.1,0.1,1.6,0.2c0.5,0.1,1.1,0.1,1.6,0c0.7-0.1,1.3-0.4,1.6-0.9c0.4-0.5,0.5-1,0.5-1.6c0-0.4-0.1-0.9-0.2-1.2l-7.1-18.9
		h5.9l4.6,13.8h0.1l4.4-13.8h5.7l-8.4,22.7C178.5,144.4,177.7,145.6,176.6,146.3z"/>
</g>
<g>
	<path class="st0" d="M40,149.5v5.1H26.5v6.4h11.7v4.8H26.5v11.5h-6.1v-27.8H40z"/>
	<path class="st0" d="M48.9,149.5v22.7h13.6v5.1H42.8v-27.8H48.9z"/>
	<path class="st0" d="M64.9,157.7c0.6-1.8,1.5-3.3,2.7-4.7s2.6-2.4,4.3-3.1c1.7-0.8,3.6-1.1,5.8-1.1c2.2,0,4.1,0.4,5.8,1.1
		c1.7,0.8,3.1,1.8,4.3,3.1s2.1,2.9,2.7,4.7c0.6,1.8,0.9,3.7,0.9,5.8c0,2-0.3,3.9-0.9,5.7s-1.5,3.3-2.7,4.6s-2.6,2.3-4.3,3.1
		c-1.7,0.7-3.6,1.1-5.8,1.1c-2.1,0-4-0.4-5.8-1.1c-1.7-0.7-3.1-1.8-4.3-3.1s-2.1-2.8-2.7-4.6s-0.9-3.6-0.9-5.7
		C64,161.4,64.3,159.5,64.9,157.7z M70.5,166.9c0.3,1.1,0.7,2.1,1.3,3c0.6,0.9,1.4,1.6,2.3,2.1c1,0.5,2.1,0.8,3.5,0.8
		c1.4,0,2.5-0.3,3.5-0.8c1-0.5,1.7-1.2,2.3-2.1c0.6-0.9,1-1.9,1.3-3c0.3-1.1,0.4-2.2,0.4-3.4c0-1.2-0.1-2.4-0.4-3.5
		c-0.3-1.1-0.7-2.2-1.3-3.1c-0.6-0.9-1.4-1.6-2.3-2.1c-1-0.5-2.1-0.8-3.5-0.8c-1.4,0-2.5,0.3-3.5,0.8c-1,0.5-1.7,1.2-2.3,2.1
		c-0.6,0.9-1,1.9-1.3,3.1c-0.3,1.1-0.4,2.3-0.4,3.5C70.1,164.7,70.2,165.8,70.5,166.9z"/>
	<path class="st0" d="M99.4,170.4c0.3,0.7,0.8,1.2,1.3,1.6s1.2,0.7,2,0.9c0.8,0.2,1.5,0.3,2.3,0.3c0.5,0,1.1,0,1.8-0.1
		c0.6-0.1,1.2-0.3,1.8-0.5s1-0.6,1.4-1.1c0.4-0.5,0.5-1,0.5-1.7c0-0.8-0.2-1.4-0.7-1.8c-0.5-0.5-1.1-0.9-1.9-1.2
		c-0.8-0.3-1.7-0.6-2.7-0.8c-1-0.2-2-0.5-3-0.8c-1-0.3-2.1-0.6-3-1c-1-0.4-1.9-0.9-2.7-1.5c-0.8-0.6-1.4-1.3-1.9-2.2
		c-0.5-0.9-0.7-2-0.7-3.3c0-1.4,0.3-2.7,0.9-3.7c0.6-1.1,1.4-1.9,2.4-2.6c1-0.7,2.1-1.2,3.4-1.6s2.5-0.5,3.7-0.5
		c1.5,0,2.9,0.2,4.2,0.5c1.3,0.3,2.5,0.9,3.6,1.6c1,0.7,1.9,1.7,2.5,2.8c0.6,1.1,0.9,2.5,0.9,4.1h-5.9c-0.1-0.8-0.2-1.5-0.5-2.1
		c-0.3-0.5-0.7-1-1.2-1.3c-0.5-0.3-1.1-0.5-1.7-0.7c-0.6-0.1-1.3-0.2-2.1-0.2c-0.5,0-1,0.1-1.5,0.2c-0.5,0.1-0.9,0.3-1.3,0.5
		c-0.4,0.3-0.7,0.6-1,1c-0.3,0.4-0.4,0.9-0.4,1.5c0,0.5,0.1,1,0.3,1.3s0.6,0.6,1.2,0.9s1.5,0.6,2.5,0.9c1.1,0.3,2.5,0.6,4.2,1.1
		c0.5,0.1,1.2,0.3,2.2,0.6c0.9,0.3,1.8,0.7,2.7,1.3c0.9,0.6,1.7,1.4,2.4,2.4s1,2.3,1,3.8c0,1.3-0.2,2.5-0.7,3.5
		c-0.5,1.1-1.2,2-2.2,2.8c-1,0.8-2.2,1.4-3.6,1.9c-1.4,0.4-3.1,0.7-5,0.7c-1.5,0-3-0.2-4.5-0.6c-1.4-0.4-2.7-1-3.8-1.8
		c-1.1-0.8-2-1.8-2.6-3.1c-0.7-1.2-1-2.7-0.9-4.4h5.9C98.9,169,99.1,169.8,99.4,170.4z"/>
	<path class="st0" d="M124,170.4c0.3,0.7,0.8,1.2,1.3,1.6s1.2,0.7,2,0.9c0.8,0.2,1.5,0.3,2.3,0.3c0.5,0,1.1,0,1.8-0.1
		c0.6-0.1,1.2-0.3,1.8-0.5s1-0.6,1.4-1.1c0.4-0.5,0.5-1,0.5-1.7c0-0.8-0.2-1.4-0.7-1.8c-0.5-0.5-1.1-0.9-1.9-1.2
		c-0.8-0.3-1.7-0.6-2.7-0.8c-1-0.2-2-0.5-3-0.8c-1-0.3-2.1-0.6-3-1c-1-0.4-1.9-0.9-2.7-1.5c-0.8-0.6-1.4-1.3-1.9-2.2
		c-0.5-0.9-0.7-2-0.7-3.3c0-1.4,0.3-2.7,0.9-3.7c0.6-1.1,1.4-1.9,2.4-2.6c1-0.7,2.1-1.2,3.4-1.6s2.5-0.5,3.7-0.5
		c1.5,0,2.9,0.2,4.2,0.5c1.3,0.3,2.5,0.9,3.6,1.6c1,0.7,1.9,1.7,2.5,2.8c0.6,1.1,0.9,2.5,0.9,4.1h-5.9c-0.1-0.8-0.2-1.5-0.5-2.1
		c-0.3-0.5-0.7-1-1.2-1.3c-0.5-0.3-1.1-0.5-1.7-0.7c-0.6-0.1-1.3-0.2-2.1-0.2c-0.5,0-1,0.1-1.5,0.2c-0.5,0.1-0.9,0.3-1.3,0.5
		c-0.4,0.3-0.7,0.6-1,1c-0.3,0.4-0.4,0.9-0.4,1.5c0,0.5,0.1,1,0.3,1.3s0.6,0.6,1.2,0.9s1.5,0.6,2.5,0.9c1.1,0.3,2.5,0.6,4.2,1.1
		c0.5,0.1,1.2,0.3,2.2,0.6s1.8,0.7,2.8,1.3c0.9,0.6,1.7,1.4,2.4,2.4s1,2.3,1,3.8c0,1.3-0.2,2.5-0.7,3.5s-1.2,2-2.2,2.8
		c-1,0.8-2.2,1.4-3.6,1.9c-1.4,0.4-3.1,0.7-5,0.7c-1.5,0-3-0.2-4.5-0.6c-1.4-0.4-2.7-1-3.8-1.8c-1.1-0.8-2-1.8-2.6-3.1
		c-0.7-1.2-1-2.7-0.9-4.4h5.9C123.5,169,123.7,169.8,124,170.4z"/>
</g>
</svg>
