<?xml version="1.0" encoding="utf-8"?>
<!-- Generator: Adobe Illustrator 25.4.1, SVG Export Plug-In . SVG Version: 6.00 Build 0)  -->
<svg version="1.1" id="Layer_1" xmlns="http://www.w3.org/2000/svg" xmlns:xlink="http://www.w3.org/1999/xlink" x="0px" y="0px"
	 viewBox="0 0 300 250" style="enable-background:new 0 0 300 250;" xml:space="preserve">
<g>
	<path d="M26.5,36.4V48l10.9-11.5H45l-10.9,11l11.9,16.8h-7.7L30,51.8l-3.5,3.5v9h-6.1V36.4H26.5z"/>
	<path d="M53.2,59.4c0.8,0.8,2,1.2,3.6,1.2c1.1,0,2.1-0.3,2.9-0.8c0.8-0.6,1.3-1.2,1.5-1.8H66c-0.8,2.4-2,4.1-3.6,5.2
		c-1.6,1-3.6,1.6-5.9,1.6c-1.6,0-3-0.3-4.3-0.8c-1.3-0.5-2.4-1.2-3.2-2.2c-0.9-0.9-1.6-2.1-2-3.4c-0.5-1.3-0.7-2.7-0.7-4.3
		c0-1.5,0.2-2.9,0.7-4.2c0.5-1.3,1.2-2.4,2.1-3.4c0.9-0.9,2-1.7,3.3-2.2c1.3-0.5,2.7-0.8,4.2-0.8c1.7,0,3.2,0.3,4.5,1
		c1.3,0.7,2.3,1.6,3.1,2.7c0.8,1.1,1.4,2.4,1.8,3.8c0.4,1.4,0.5,2.9,0.4,4.5H51.8C51.9,57.3,52.3,58.6,53.2,59.4z M59.4,48.8
		c-0.7-0.7-1.7-1.1-3-1.1c-0.9,0-1.6,0.1-2.2,0.4c-0.6,0.3-1.1,0.7-1.4,1.1c-0.4,0.4-0.6,0.9-0.7,1.4c-0.1,0.5-0.2,0.9-0.3,1.3h9
		C60.5,50.6,60.1,49.6,59.4,48.8z"/>
	<path d="M74.8,59.4c0.8,0.8,2,1.2,3.6,1.2c1.1,0,2.1-0.3,2.9-0.8c0.8-0.6,1.3-1.2,1.5-1.8h4.9c-0.8,2.4-2,4.1-3.6,5.2
		c-1.6,1-3.6,1.6-5.9,1.6c-1.6,0-3-0.3-4.3-0.8c-1.3-0.5-2.4-1.2-3.2-2.2c-0.9-0.9-1.6-2.1-2-3.4c-0.5-1.3-0.7-2.7-0.7-4.3
		c0-1.5,0.2-2.9,0.7-4.2c0.5-1.3,1.2-2.4,2.1-3.4c0.9-0.9,2-1.7,3.3-2.2c1.3-0.5,2.7-0.8,4.2-0.8c1.7,0,3.2,0.3,4.5,1
		c1.3,0.7,2.3,1.6,3.1,2.7c0.8,1.1,1.4,2.4,1.8,3.8c0.4,1.4,0.5,2.9,0.4,4.5H73.4C73.5,57.3,74,58.6,74.8,59.4z M81.1,48.8
		c-0.7-0.7-1.7-1.1-3-1.1c-0.9,0-1.6,0.1-2.2,0.4c-0.6,0.3-1.1,0.7-1.4,1.1c-0.4,0.4-0.6,0.9-0.7,1.4c-0.1,0.5-0.2,0.9-0.3,1.3h9
		C82.2,50.6,81.7,49.6,81.1,48.8z"/>
	<path d="M95.8,44.1v2.6h0.1c0.7-1.1,1.5-1.9,2.6-2.4c1-0.5,2.2-0.7,3.4-0.7c1.6,0,3,0.3,4.1,0.9c1.1,0.6,2.1,1.4,2.8,2.4
		c0.8,1,1.3,2.1,1.7,3.5c0.4,1.3,0.5,2.7,0.5,4.1c0,1.4-0.2,2.7-0.5,3.9c-0.4,1.2-0.9,2.4-1.7,3.3s-1.7,1.7-2.8,2.3
		c-1.1,0.6-2.4,0.9-3.9,0.9c-1.2,0-2.4-0.3-3.5-0.8c-1.1-0.5-1.9-1.3-2.6-2.2h-0.1v9.6h-5.5V44.1H95.8z M103,60.1
		c0.6-0.4,1.1-0.8,1.5-1.4s0.6-1.3,0.8-2c0.2-0.8,0.2-1.6,0.2-2.4c0-0.8-0.1-1.6-0.3-2.4c-0.2-0.8-0.4-1.5-0.8-2.1
		c-0.4-0.6-0.9-1.1-1.5-1.5c-0.6-0.4-1.4-0.6-2.2-0.6c-0.9,0-1.7,0.2-2.3,0.6c-0.6,0.4-1.1,0.9-1.5,1.5c-0.4,0.6-0.6,1.3-0.8,2.1
		c-0.2,0.8-0.2,1.6-0.2,2.4c0,0.8,0.1,1.6,0.3,2.4c0.2,0.8,0.4,1.5,0.8,2c0.4,0.6,0.9,1.1,1.5,1.4c0.6,0.4,1.4,0.5,2.3,0.5
		C101.6,60.6,102.4,60.5,103,60.1z"/>
</g>
<g>
	<path d="M38.3,82.9c-0.4-0.6-0.8-1.1-1.4-1.5c-0.5-0.4-1.2-0.8-1.9-1c-0.7-0.2-1.4-0.4-2.2-0.4c-1.4,0-2.5,0.3-3.5,0.8
		c-1,0.5-1.7,1.2-2.3,2.1s-1,1.9-1.3,3.1c-0.3,1.1-0.4,2.3-0.4,3.5c0,1.2,0.1,2.3,0.4,3.4c0.3,1.1,0.7,2.1,1.3,3
		c0.6,0.9,1.4,1.6,2.3,2.1c1,0.5,2.1,0.8,3.5,0.8c1.9,0,3.3-0.6,4.4-1.7c1.1-1.1,1.7-2.7,1.9-4.5h5.9c-0.2,1.7-0.6,3.3-1.2,4.7
		c-0.7,1.4-1.5,2.6-2.6,3.6c-1.1,1-2.3,1.7-3.7,2.3c-1.4,0.5-3,0.8-4.7,0.8c-2.1,0-4-0.4-5.8-1.1c-1.7-0.7-3.1-1.8-4.3-3.1
		c-1.2-1.3-2.1-2.8-2.7-4.6c-0.6-1.8-0.9-3.6-0.9-5.7c0-2.1,0.3-4,0.9-5.8c0.6-1.8,1.5-3.3,2.7-4.7c1.2-1.3,2.6-2.4,4.3-3.1
		c1.7-0.8,3.6-1.1,5.8-1.1c1.5,0,3,0.2,4.3,0.7c1.4,0.4,2.6,1.1,3.7,1.9c1.1,0.8,2,1.9,2.7,3.1s1.1,2.7,1.3,4.3H39
		C38.9,84.1,38.6,83.4,38.3,82.9z"/>
	<path d="M62.4,75.4l10.4,27.8h-6.4l-2.1-6.2H54l-2.2,6.2h-6.2l10.5-27.8H62.4z M62.8,92.5l-3.5-10.2h-0.1l-3.6,10.2H62.8z"/>
	<path d="M80.6,75.4v22.7h13.6v5.1H74.5V75.4H80.6z"/>
	<path d="M105.5,75.4l6.5,19.1h0.1l6.2-19.1h8.6v27.8h-5.7V83.5h-0.1l-6.8,19.7h-4.7l-6.8-19.5h-0.1v19.5h-5.7V75.4H105.5z"/>
</g>
</svg>
