<?xml version="1.0" encoding="utf-8"?>
<!-- Generator: Adobe Illustrator 25.4.1, SVG Export Plug-In . SVG Version: 6.00 Build 0)  -->
<svg version="1.1" id="Layer_1" xmlns="http://www.w3.org/2000/svg" xmlns:xlink="http://www.w3.org/1999/xlink" x="0px" y="0px"
	 viewBox="0 0 300 250" style="enable-background:new 0 0 300 250;" xml:space="preserve">
<style type="text/css">
	.st0{clip-path:url(#SVGID_00000013871835347843245650000015761983037899563402_);fill:#349946;}
	.st1{fill:#FFFFFF;}
</style>
<g>
	<defs>
		<rect id="SVGID_1_" x="17.4" y="168.8" width="150.1" height="31.6"/>
	</defs>
	<clipPath id="SVGID_00000124159344666030350350000012583076617149928351_">
		<use xlink:href="#SVGID_1_"  style="overflow:visible;"/>
	</clipPath>
	<path style="clip-path:url(#SVGID_00000124159344666030350350000012583076617149928351_);fill:#349946;" d="M167.5,184.6
		c0,8.7-8.2,15.8-18.2,15.8H35.6c-10,0-18.2-7.1-18.2-15.8s8.2-15.8,18.2-15.8h113.8C159.4,168.8,167.5,175.9,167.5,184.6"/>
</g>
<g>
	<path class="st1" d="M49.6,190l-1.7-6.9h0l-1.7,6.9h-2.2l-2.7-10.1h2.2l1.6,6.9h0l1.8-6.9h2.1l1.7,7h0l1.7-7h2.2L51.8,190H49.6z"/>
	<path class="st1" d="M60.2,179.9L64,190h-2.3l-0.8-2.2h-3.8l-0.8,2.2h-2.2l3.8-10.1H60.2z M60.3,186l-1.3-3.7h0l-1.3,3.7H60.3z"/>
</g>
<g>
	<path class="st1" d="M62.8,181.7v-1.9H71v1.9h-3v8.2h-2.2v-8.2H62.8z"/>
	<path class="st1" d="M78.7,182.5c-0.1-0.2-0.3-0.4-0.5-0.6c-0.2-0.2-0.4-0.3-0.7-0.4c-0.2-0.1-0.5-0.1-0.8-0.1
		c-0.5,0-0.9,0.1-1.3,0.3s-0.6,0.5-0.8,0.8s-0.4,0.7-0.5,1.1s-0.1,0.8-0.1,1.3c0,0.4,0,0.8,0.1,1.2c0.1,0.4,0.3,0.8,0.5,1.1
		s0.5,0.6,0.8,0.8s0.8,0.3,1.3,0.3c0.7,0,1.2-0.2,1.6-0.6c0.4-0.4,0.6-1,0.7-1.6h2.1c-0.1,0.6-0.2,1.2-0.4,1.7
		c-0.2,0.5-0.5,0.9-0.9,1.3c-0.4,0.4-0.8,0.6-1.4,0.8c-0.5,0.2-1.1,0.3-1.7,0.3c-0.8,0-1.5-0.1-2.1-0.4c-0.6-0.3-1.1-0.6-1.6-1.1
		c-0.4-0.5-0.7-1-1-1.7c-0.2-0.6-0.3-1.3-0.3-2.1c0-0.8,0.1-1.5,0.3-2.1c0.2-0.6,0.6-1.2,1-1.7c0.4-0.5,0.9-0.9,1.6-1.1
		c0.6-0.3,1.3-0.4,2.1-0.4c0.6,0,1.1,0.1,1.6,0.2c0.5,0.2,0.9,0.4,1.3,0.7c0.4,0.3,0.7,0.7,1,1.1c0.3,0.5,0.4,1,0.5,1.6h-2.1
		C78.9,183,78.8,182.8,78.7,182.5z"/>
	<path class="st1" d="M84.9,179.9v3.9H89v-3.9h2.2V190H89v-4.4h-4.1v4.4h-2.2v-10.1H84.9z"/>
	<path class="st1" d="M103.2,190l-3.3-10.1h2.3l2.2,7.1h0l2.3-7.1h2.3l-3.4,10.1H103.2z"/>
	<path class="st1" d="M112.1,179.9V190h-2.2v-10.1H112.1z"/>
	<path class="st1" d="M118.4,179.9c0.7,0,1.3,0.1,1.8,0.3c0.6,0.2,1,0.5,1.5,0.9s0.7,0.9,1,1.6s0.3,1.4,0.3,2.2c0,0.7-0.1,1.4-0.3,2
		s-0.5,1.2-0.9,1.6c-0.4,0.5-0.9,0.8-1.4,1.1c-0.6,0.3-1.2,0.4-2,0.4h-4.4v-10.1H118.4z M118.3,188.1c0.3,0,0.6-0.1,0.9-0.2
		c0.3-0.1,0.6-0.3,0.8-0.5c0.2-0.2,0.4-0.6,0.6-0.9c0.1-0.4,0.2-0.9,0.2-1.4c0-0.5,0-1-0.1-1.4c-0.1-0.4-0.3-0.8-0.5-1.1
		s-0.5-0.5-0.9-0.7s-0.8-0.2-1.4-0.2h-1.6v6.4H118.3z"/>
	<path class="st1" d="M132.1,179.9v1.9h-5.3v2.2h4.9v1.7h-4.9v2.5h5.4v1.9h-7.7v-10.1H132.1z"/>
	<path class="st1" d="M133.6,182.8c0.2-0.6,0.6-1.2,1-1.7c0.4-0.5,0.9-0.9,1.6-1.1c0.6-0.3,1.3-0.4,2.1-0.4c0.8,0,1.5,0.1,2.1,0.4
		c0.6,0.3,1.1,0.7,1.6,1.1s0.7,1,1,1.7c0.2,0.6,0.3,1.3,0.3,2.1c0,0.7-0.1,1.4-0.3,2.1c-0.2,0.6-0.6,1.2-1,1.7
		c-0.4,0.5-0.9,0.8-1.6,1.1c-0.6,0.3-1.3,0.4-2.1,0.4c-0.8,0-1.5-0.1-2.1-0.4c-0.6-0.3-1.1-0.6-1.6-1.1c-0.4-0.5-0.7-1-1-1.7
		c-0.2-0.6-0.3-1.3-0.3-2.1C133.3,184.2,133.4,183.5,133.6,182.8z M135.7,186.2c0.1,0.4,0.3,0.8,0.5,1.1s0.5,0.6,0.8,0.8
		s0.8,0.3,1.3,0.3c0.5,0,0.9-0.1,1.3-0.3c0.3-0.2,0.6-0.5,0.8-0.8s0.4-0.7,0.5-1.1c0.1-0.4,0.1-0.8,0.1-1.2c0-0.4,0-0.9-0.1-1.3
		c-0.1-0.4-0.3-0.8-0.5-1.1s-0.5-0.6-0.8-0.8c-0.3-0.2-0.8-0.3-1.3-0.3c-0.5,0-0.9,0.1-1.3,0.3s-0.6,0.5-0.8,0.8s-0.4,0.7-0.5,1.1
		s-0.1,0.8-0.1,1.3C135.5,185.4,135.6,185.8,135.7,186.2z"/>
</g>
</svg>
