<?xml version="1.0" encoding="utf-8"?>
<!-- Generator: Adobe Illustrator 25.4.1, SVG Export Plug-In . SVG Version: 6.00 Build 0)  -->
<svg version="1.1" id="Layer_1" xmlns="http://www.w3.org/2000/svg" xmlns:xlink="http://www.w3.org/1999/xlink" x="0px" y="0px"
	 viewBox="0 0 300 250" style="enable-background:new 0 0 300 250;" xml:space="preserve">
<style type="text/css">
	.st0{fill:#349946;}
	.st1{fill:#231F20;}
</style>
<path class="st0" d="M52.2,232.1h-2.5l-0.8-2.4h-4.9l-0.8,2.4h-2.5l4.3-11.4h1.8c0.6,0,1,0.2,1.2,0.6c0.2,0.4,2.1,5.5,2.1,5.5h-2.3
	l-1.4-3.9l-1.8,4.9h5c0.7,0,1,0.2,1.2,0.8L52.2,232.1z"/>
<path class="st0" d="M73.9,232.1h-2.5l-0.8-2.4h-4.9l-0.8,2.4h-2.5l4.3-11.4h1.8c0.6,0,1,0.2,1.2,0.6c0.2,0.4,2.1,5.5,2.1,5.5h-2.3
	l-1.4-3.9l-1.8,4.9h4.9c0.7,0,1,0.2,1.2,0.8L73.9,232.1z"/>
<path class="st0" d="M53,220.7h4.5c3.5,0,5.2,1.9,5.2,5.7c0,2.1-0.7,3.7-1.9,4.7c-1.1,0.9-2.4,1-4,1H53V220.7z M57.2,230.1
	c2.2,0,3.1-1.1,3.1-3.6c0-2.5-0.9-3.7-2.8-3.7h-2.2v7.4H57.2z"/>
<g>
	<path class="st1" d="M93.3,232h-1.8l-0.7-8.2L88,232h-1.5l-2.9-8.2l-0.7,8.2h-1.7l1.1-10.8h2l3,8.3l2.8-8.3h2L93.3,232z"/>
	<path class="st1" d="M102.1,228c0,0.1,0,0.2,0,0.4c0,0.1,0,0.2,0,0.3h-5.4c0,0.6,0.2,1,0.5,1.5c0.4,0.5,1,0.7,1.8,0.7
		c0.6,0,1.4-0.2,2.2-0.6l0.6,1.2c-0.8,0.6-1.8,0.9-2.9,0.9c-1.2,0-2.2-0.4-2.9-1.2c-0.7-0.7-1-1.7-1-2.9c0-1.2,0.3-2.3,1-3
		c0.7-0.8,1.6-1.2,2.7-1.2c1.1,0,1.9,0.4,2.5,1.1C101.8,225.7,102.1,226.7,102.1,228z M100.4,227.3c0-0.5-0.1-0.9-0.3-1.3
		c-0.3-0.5-0.8-0.8-1.4-0.8c-0.6,0-1,0.2-1.4,0.6s-0.6,0.9-0.7,1.5H100.4z"/>
	<path class="st1" d="M115.1,232h-1.8v-4.5c0-0.9-0.1-1.5-0.3-1.8c-0.2-0.3-0.5-0.4-1-0.4c-0.6,0-1.1,0.2-1.8,0.6
		c0.1,0.2,0.1,0.8,0.1,1.8v4.2h-1.8v-4.4c0-1-0.1-1.7-0.4-1.9c-0.2-0.2-0.5-0.3-0.9-0.3c-0.6,0-1.2,0.2-1.7,0.6v6.1h-1.8v-7.9h1.6
		v0.6c0.7-0.5,1.5-0.8,2.3-0.8c0.8,0,1.5,0.3,1.9,0.9c0.9-0.6,1.8-0.9,2.6-0.9c0.8,0,1.5,0.2,2,0.7c0.4,0.4,0.6,0.9,0.7,1.5
		c0.1,0.4,0.1,1,0.1,2V232z"/>
	<path class="st1" d="M124.3,227.9c0,1.3-0.4,2.3-1.1,3.1c-0.8,0.8-1.8,1.2-3,1.2c-0.9,0-1.9-0.2-3.1-0.6v-11.3h1.8v4.2
		c0.6-0.4,1.3-0.6,2-0.6c1,0,1.8,0.4,2.5,1.1C124,225.7,124.3,226.7,124.3,227.9z M122.5,227.9c0-0.8-0.2-1.4-0.6-1.9
		c-0.4-0.4-0.8-0.6-1.4-0.6c-0.6,0-1.1,0.2-1.7,0.6v4.6c0.5,0.1,0.9,0.2,1.3,0.2c0.7,0,1.3-0.3,1.7-0.8S122.5,228.8,122.5,227.9z"/>
	<path class="st1" d="M132.8,228c0,0.1,0,0.2,0,0.4c0,0.1,0,0.2,0,0.3h-5.4c0,0.6,0.2,1,0.5,1.5c0.4,0.5,1,0.7,1.8,0.7
		c0.6,0,1.4-0.2,2.2-0.6l0.6,1.2c-0.8,0.6-1.8,0.9-2.9,0.9c-1.2,0-2.2-0.4-2.9-1.2c-0.7-0.7-1-1.7-1-2.9c0-1.2,0.3-2.3,1-3
		c0.7-0.8,1.6-1.2,2.7-1.2c1.1,0,1.9,0.4,2.5,1.1C132.5,225.7,132.8,226.7,132.8,228z M131.1,227.3c0-0.5-0.1-0.9-0.3-1.3
		c-0.3-0.5-0.8-0.8-1.4-0.8c-0.6,0-1,0.2-1.4,0.6s-0.6,0.9-0.7,1.5H131.1z"/>
	<path class="st1" d="M139.5,224.1l-0.4,1.4c-0.2,0-0.3,0-0.5,0c-1,0-1.7,0.4-2.3,1.2v5.4h-1.8v-7.9h1.6v1c0.1-0.2,0.4-0.4,0.7-0.6
		c0.6-0.4,1.2-0.6,1.9-0.6C138.9,223.9,139.2,223.9,139.5,224.1z"/>
</g>
<g>
	<path class="st1" d="M146,229.8c0,0.8-0.3,1.4-0.8,1.8s-1.3,0.7-2.2,0.7c-0.7,0-1.4-0.1-2-0.4c-0.4-0.2-0.7-0.3-0.8-0.5l0.6-1.2
		c0.8,0.4,1.5,0.6,2.1,0.6c0.4,0,0.8-0.1,1-0.3c0.2-0.2,0.4-0.4,0.4-0.7c0-0.3-0.2-0.5-0.5-0.7c-0.1-0.1-0.6-0.3-1.2-0.6
		c-0.6-0.3-1.1-0.5-1.4-0.8c-0.5-0.4-0.7-0.9-0.7-1.6c0-0.7,0.3-1.3,0.8-1.7s1.2-0.6,2.1-0.6c1.1,0,2,0.2,2.6,0.7l-0.6,1.1
		c-0.6-0.4-1.2-0.5-1.8-0.5c-0.8,0-1.3,0.3-1.3,0.9c0,0.3,0.1,0.5,0.4,0.7c0.2,0.1,0.5,0.3,1,0.5c0.8,0.3,1.3,0.6,1.6,0.8
		C145.7,228.5,146,229.1,146,229.8z"/>
	<path class="st1" d="M153.8,232h-1.9v-10.8h1.9V232z"/>
	<path class="st1" d="M162.8,232H161v-4.3c0-1-0.1-1.7-0.4-1.9c-0.2-0.2-0.6-0.4-1-0.4c-0.6,0-1.1,0.2-1.8,0.6v6h-1.8v-7.9h1.6v0.6
		c0.7-0.5,1.5-0.8,2.4-0.8c0.8,0,1.5,0.2,2,0.7c0.4,0.4,0.6,0.8,0.7,1.4c0.1,0.3,0.1,0.9,0.1,1.6V232z"/>
	<path class="st1" d="M170.1,229.8c0,0.8-0.3,1.4-0.8,1.8s-1.3,0.7-2.2,0.7c-0.7,0-1.4-0.1-2-0.4c-0.4-0.2-0.7-0.3-0.8-0.5l0.6-1.2
		c0.8,0.4,1.5,0.6,2.1,0.6c0.4,0,0.8-0.1,1-0.3c0.2-0.2,0.4-0.4,0.4-0.7c0-0.3-0.2-0.5-0.5-0.7c-0.1-0.1-0.6-0.3-1.2-0.6
		c-0.6-0.3-1.1-0.5-1.4-0.8c-0.5-0.4-0.7-0.9-0.7-1.6c0-0.7,0.3-1.3,0.8-1.7c0.5-0.4,1.2-0.6,2.1-0.6c1.1,0,2,0.2,2.6,0.7l-0.6,1.1
		c-0.6-0.4-1.2-0.5-1.8-0.5c-0.8,0-1.3,0.3-1.3,0.9c0,0.3,0.1,0.5,0.4,0.7c0.2,0.1,0.5,0.3,1,0.5c0.8,0.3,1.3,0.6,1.6,0.8
		C169.8,228.5,170.1,229.1,170.1,229.8z"/>
	<path class="st1" d="M178.5,232h-1.6v-0.6c-0.7,0.5-1.5,0.8-2.4,0.8c-0.8,0-1.5-0.2-2-0.7c-0.4-0.4-0.6-0.8-0.7-1.4
		c-0.1-0.3-0.1-0.9-0.1-1.6v-4.4h1.8v4.3c0,0.5,0,0.9,0,1.1c0.1,0.4,0.2,0.8,0.4,0.9s0.5,0.3,0.9,0.3c0.5,0,1-0.2,1.7-0.6v-6h1.8
		V232z"/>
	<path class="st1" d="M185.6,224.1l-0.4,1.4c-0.2,0-0.3,0-0.5,0c-1,0-1.7,0.4-2.3,1.2v5.4h-1.8v-7.9h1.6v1c0.1-0.2,0.4-0.4,0.7-0.6
		c0.6-0.4,1.2-0.6,1.9-0.6C185,223.9,185.3,223.9,185.6,224.1z"/>
</g>
<g>
	<path class="st1" d="M192.6,232H191v-0.6c-0.8,0.5-1.6,0.7-2.3,0.7c-0.8,0-1.4-0.2-1.8-0.7s-0.7-1.1-0.7-1.8c0-1.8,1.5-2.8,4.5-2.8
		h0.3v-0.3c0-0.5-0.1-0.8-0.3-1c-0.2-0.2-0.7-0.4-1.3-0.4c-0.7,0-1.4,0.2-2.1,0.6l-0.6-1.2c0.2-0.2,0.5-0.3,0.8-0.5
		c0.6-0.3,1.3-0.4,2.1-0.4c1.1,0,1.9,0.3,2.5,0.8c0.3,0.3,0.5,0.6,0.5,1.1c0.1,0.3,0.1,0.7,0.1,1.4V232z M190.9,230.3v-2.1h-0.4
		c-1.2,0-2.1,0.2-2.5,0.6c-0.2,0.2-0.3,0.5-0.3,0.8c0,0.4,0.1,0.7,0.4,0.9c0.3,0.2,0.6,0.3,1,0.3
		C189.6,230.8,190.2,230.6,190.9,230.3z"/>
	<path class="st1" d="M201.2,232h-1.8v-4.3c0-1-0.1-1.7-0.4-1.9c-0.2-0.2-0.6-0.4-1-0.4c-0.6,0-1.1,0.2-1.8,0.6v6h-1.8v-7.9h1.6v0.6
		c0.7-0.5,1.5-0.8,2.4-0.8c0.8,0,1.5,0.2,2,0.7c0.4,0.4,0.6,0.8,0.7,1.4c0.1,0.3,0.1,0.9,0.1,1.6V232z"/>
	<path class="st1" d="M209.7,231.3c-0.1,0.1-0.4,0.3-0.8,0.5c-0.7,0.3-1.4,0.4-2.1,0.4c-1.2,0-2.1-0.4-2.9-1.1
		c-0.7-0.8-1.1-1.7-1.1-2.9c0-1.2,0.4-2.3,1.2-3.1c0.8-0.8,1.8-1.2,3-1.2c0.7,0,1.3,0.1,1.9,0.4c0.4,0.2,0.6,0.4,0.8,0.5l-0.7,1.1
		c-0.6-0.4-1.1-0.6-1.8-0.6c-0.7,0-1.3,0.3-1.8,0.8c-0.4,0.5-0.6,1.1-0.6,1.8c0,0.8,0.2,1.4,0.6,1.9c0.4,0.5,1,0.7,1.7,0.7
		c0.6,0,1.3-0.2,2-0.6L209.7,231.3z"/>
</g>
<g>
	<path class="st1" d="M217.6,228c0,0.1,0,0.2,0,0.4c0,0.1,0,0.2,0,0.3h-5.4c0,0.6,0.2,1,0.5,1.5c0.4,0.5,1,0.7,1.8,0.7
		c0.6,0,1.4-0.2,2.2-0.6l0.6,1.2c-0.8,0.6-1.8,0.9-2.9,0.9c-1.2,0-2.2-0.4-2.9-1.2c-0.7-0.7-1-1.7-1-2.9c0-1.2,0.3-2.3,1-3
		c0.7-0.8,1.6-1.2,2.7-1.2c1.1,0,1.9,0.4,2.5,1.1C217.3,225.7,217.6,226.7,217.6,228z M215.9,227.3c0-0.5-0.1-0.9-0.3-1.3
		c-0.3-0.5-0.8-0.8-1.4-0.8c-0.6,0-1,0.2-1.4,0.6s-0.6,0.9-0.7,1.5H215.9z"/>
	<path class="st1" d="M230.7,224.4c0,1-0.3,1.8-0.9,2.4c-0.5,0.5-1,0.8-1.7,0.9c-0.4,0.1-1.1,0.1-2,0.1h-0.8v4.1h-1.8v-10.8h2.9
		c0.9,0,1.5,0,2,0.1c0.6,0.1,1.1,0.4,1.5,0.8C230.4,222.7,230.7,223.5,230.7,224.4z M228.8,224.5c0-0.6-0.2-1-0.5-1.4
		c-0.3-0.3-1-0.4-2-0.4h-1v3.7h0.8c1.2,0,1.9-0.2,2.3-0.5S228.8,225.1,228.8,224.5z"/>
	<path class="st1" d="M234.3,232h-1.8v-11.7h1.8V232z"/>
	<path class="st1" d="M242.5,232h-1.6v-0.6c-0.8,0.5-1.6,0.7-2.3,0.7c-0.8,0-1.4-0.2-1.8-0.7s-0.7-1.1-0.7-1.8
		c0-1.8,1.5-2.8,4.5-2.8h0.3v-0.3c0-0.5-0.1-0.8-0.3-1c-0.2-0.2-0.7-0.4-1.3-0.4c-0.7,0-1.4,0.2-2.1,0.6l-0.6-1.2
		c0.2-0.2,0.5-0.3,0.8-0.5c0.6-0.3,1.3-0.4,2.1-0.4c1.1,0,1.9,0.3,2.5,0.8c0.3,0.3,0.5,0.6,0.5,1.1c0.1,0.3,0.1,0.7,0.1,1.4V232z
		 M240.8,230.3v-2.1h-0.4c-1.2,0-2.1,0.2-2.5,0.6c-0.2,0.2-0.3,0.5-0.3,0.8c0,0.4,0.1,0.7,0.4,0.9c0.3,0.2,0.6,0.3,1,0.3
		C239.5,230.8,240.1,230.6,240.8,230.3z"/>
	<path class="st1" d="M251.1,232h-1.8v-4.3c0-1-0.1-1.7-0.4-1.9c-0.2-0.2-0.6-0.4-1-0.4c-0.6,0-1.1,0.2-1.8,0.6v6h-1.8v-7.9h1.6v0.6
		c0.7-0.5,1.5-0.8,2.4-0.8c0.8,0,1.5,0.2,2,0.7c0.4,0.4,0.6,0.8,0.7,1.4c0.1,0.3,0.1,0.9,0.1,1.6V232z"/>
	<path class="st1" d="M258.4,229.8c0,0.8-0.3,1.4-0.8,1.8s-1.3,0.7-2.2,0.7c-0.7,0-1.4-0.1-2-0.4c-0.4-0.2-0.7-0.3-0.8-0.5l0.6-1.2
		c0.8,0.4,1.5,0.6,2.1,0.6c0.4,0,0.8-0.1,1-0.3c0.2-0.2,0.4-0.4,0.4-0.7c0-0.3-0.2-0.5-0.5-0.7c-0.1-0.1-0.6-0.3-1.2-0.6
		c-0.6-0.3-1.1-0.5-1.4-0.8c-0.5-0.4-0.7-0.9-0.7-1.6c0-0.7,0.3-1.3,0.8-1.7c0.5-0.4,1.2-0.6,2.1-0.6c1.1,0,2,0.2,2.6,0.7l-0.6,1.1
		c-0.6-0.4-1.2-0.5-1.8-0.5c-0.8,0-1.3,0.3-1.3,0.9c0,0.3,0.1,0.5,0.4,0.7c0.2,0.1,0.5,0.3,1,0.5c0.8,0.3,1.3,0.6,1.6,0.8
		C258.2,228.5,258.4,229.1,258.4,229.8z"/>
</g>
<path class="st0" d="M75.5,232.2c-0.8,0-1.4-0.6-1.4-1.4c0-0.8,0.6-1.4,1.4-1.4c0.8,0,1.4,0.6,1.4,1.4
	C76.9,231.6,76.2,232.2,75.5,232.2 M75.5,229.8c-0.6,0-1,0.4-1,1s0.5,1,1,1c0.6,0,1-0.4,1-1S76.1,229.8,75.5,229.8 M75.8,231.5
	l-0.2-0.4c-0.1-0.2-0.1-0.2-0.3-0.2h0v0.6H75v-1.4h0.4c0.2,0,0.3,0,0.5,0.1c0.1,0.1,0.1,0.2,0.1,0.3c0,0.1-0.1,0.3-0.2,0.3
	c0.1,0,0.1,0.1,0.1,0.2l0.2,0.5H75.8z M75.6,230.4c-0.1,0-0.1,0-0.2,0h-0.1v0.3c0.1,0,0.2,0,0.3,0c0.1,0,0.2-0.1,0.2-0.2
	C75.7,230.4,75.7,230.4,75.6,230.4"/>
</svg>
