<?xml version="1.0" encoding="utf-8"?>
<!-- Generator: Adobe Illustrator 25.4.1, SVG Export Plug-In . SVG Version: 6.00 Build 0)  -->
<svg version="1.1" id="Layer_1" xmlns="http://www.w3.org/2000/svg" xmlns:xlink="http://www.w3.org/1999/xlink" x="0px" y="0px"
	 viewBox="0 0 300 250" style="enable-background:new 0 0 300 250;" xml:space="preserve">
<style type="text/css">
	.st0{clip-path:url(#SVGID_00000045603011605926542130000010740216037387575215_);fill:#231F20;}
	.st1{clip-path:url(#SVGID_00000045603011605926542130000010740216037387575215_);fill:#22B0E6;}
</style>
<g>
	<defs>
		<rect id="SVGID_1_" x="200.5" y="168.8" width="84.2" height="28.9"/>
	</defs>
	<clipPath id="SVGID_00000079448932098124790680000010867890987645411230_">
		<use xlink:href="#SVGID_1_"  style="overflow:visible;"/>
	</clipPath>
	<path style="clip-path:url(#SVGID_00000079448932098124790680000010867890987645411230_);fill:#231F20;" d="M201,184.3h4.5
		c3.6,0,4.3,2.3,4.3,3.9c0,1.6-0.7,3.9-4.3,3.9h-2.3v4.9H201V184.3z M203.2,190.3h2.2c1,0,2.2-0.5,2.2-2.1c0-1.7-1-2.1-2.2-2.1h-2.2
		V190.3z"/>
	<path style="clip-path:url(#SVGID_00000079448932098124790680000010867890987645411230_);fill:#231F20;" d="M211.1,187.8h1.9v1.8h0
		c0.2-1,1.4-2,2.7-2c0.5,0,0.6,0,0.8,0.1v2c-0.3,0-0.6-0.1-0.9-0.1c-1.4,0-2.5,1.1-2.5,3.1v4.4h-2V187.8z"/>
	<path style="clip-path:url(#SVGID_00000079448932098124790680000010867890987645411230_);fill:#231F20;" d="M216.7,192.3
		c0-2.8,1.7-4.8,4.6-4.8c2.9,0,4.6,2,4.6,4.8c0,2.8-1.7,4.8-4.6,4.8C218.4,197.2,216.7,195.1,216.7,192.3 M223.9,192.3
		c0-1.6-0.8-3.2-2.6-3.2s-2.6,1.6-2.6,3.2c0,1.6,0.8,3.2,2.6,3.2S223.9,193.9,223.9,192.3"/>
	<path style="clip-path:url(#SVGID_00000079448932098124790680000010867890987645411230_);fill:#231F20;" d="M226.2,187.8h1.6V185
		h1.9v2.7h1.8v1.5h-1.8v4.9c0,0.8,0.1,1.3,1,1.3c0.3,0,0.6,0,0.8-0.1v1.6c-0.4,0-0.9,0.1-1.3,0.1c-2.1,0-2.5-0.8-2.5-2.3v-5.4h-1.5
		V187.8z"/>
	<path style="clip-path:url(#SVGID_00000079448932098124790680000010867890987645411230_);fill:#231F20;" d="M234.4,192.9
		c0,1.4,0.8,2.7,2.4,2.7c1.2,0,1.9-0.5,2.2-1.5h1.9c-0.4,2-2.1,3.1-4.1,3.1c-2.8,0-4.4-2-4.4-4.8c0-2.6,1.7-4.8,4.4-4.8
		c2.9,0,4.6,2.6,4.3,5.4H234.4z M239.1,191.5c-0.1-1.3-0.9-2.4-2.3-2.4c-1.4,0-2.3,1.1-2.4,2.4H239.1z"/>
	<path style="clip-path:url(#SVGID_00000079448932098124790680000010867890987645411230_);fill:#231F20;" d="M248.6,190.8
		c-0.2-1.1-1-1.7-2.1-1.7c-1,0-2.5,0.5-2.5,3.3c0,1.5,0.7,3.1,2.4,3.1c1.2,0,2-0.8,2.2-2.1h2c-0.4,2.4-1.8,3.7-4.2,3.7
		c-2.8,0-4.4-2-4.4-4.7c0-2.8,1.5-4.9,4.5-4.9c2.1,0,3.9,1.1,4.1,3.3H248.6z"/>
	<path style="clip-path:url(#SVGID_00000079448932098124790680000010867890987645411230_);fill:#231F20;" d="M251.2,187.8h1.5V185h2
		v2.7h1.8v1.5h-1.8v4.9c0,0.8,0.1,1.3,1,1.3c0.3,0,0.6,0,0.8-0.1v1.6c-0.4,0-0.9,0.1-1.3,0.1c-2.1,0-2.5-0.8-2.5-2.3v-5.4h-1.5
		V187.8z"/>
	<path style="clip-path:url(#SVGID_00000079448932098124790680000010867890987645411230_);fill:#231F20;" d="M258.8,184.3h2v1.9h-2
		V184.3z M258.8,187.8h2v9.2h-2V187.8z"/>
	<polygon style="clip-path:url(#SVGID_00000079448932098124790680000010867890987645411230_);fill:#231F20;" points="262.3,187.8 
		264.5,187.8 267.3,194.8 267.3,194.8 270,187.8 272.1,187.8 268.3,196.9 266.1,196.9 	"/>
	<path style="clip-path:url(#SVGID_00000079448932098124790680000010867890987645411230_);fill:#231F20;" d="M274.6,192.9
		c0,1.4,0.8,2.7,2.4,2.7c1.2,0,1.9-0.5,2.2-1.5h1.9c-0.4,2-2.1,3.1-4.1,3.1c-2.8,0-4.4-2-4.4-4.8c0-2.6,1.7-4.8,4.4-4.8
		c2.9,0,4.6,2.6,4.3,5.4H274.6z M279.3,191.5c-0.1-1.3-0.9-2.4-2.3-2.4c-1.4,0-2.3,1.1-2.4,2.4H279.3z"/>
	<path style="clip-path:url(#SVGID_00000079448932098124790680000010867890987645411230_);fill:#22B0E6;" d="M255,182.2
		c-1.3-5-5.3-9-10.3-10.3c-0.5-1.6-1.9-2.7-3.6-2.7c-1.7,0-3.1,1.1-3.6,2.7c-5,1.3-8.9,5.2-10.3,10.3l-0.1,0.6h3.1l0.1-0.3
		c1.2-3.7,4-6.5,7.6-7.5c0.6,1.1,1.8,1.9,3.2,1.9s2.6-0.7,3.2-1.9c3.6,1.1,6.5,3.9,7.6,7.5l0.1,0.3h3.1L255,182.2z"/>
	<path style="clip-path:url(#SVGID_00000079448932098124790680000010867890987645411230_);fill:#231F20;" d="M283.4,195.4
		c0.5,0,0.9,0.4,0.9,0.9c0,0.5-0.4,0.9-0.9,0.9c-0.5,0-0.9-0.4-0.9-0.9C282.5,195.8,282.9,195.4,283.4,195.4 M284.1,196.3
		c0-0.4-0.3-0.8-0.7-0.8c-0.4,0-0.7,0.3-0.7,0.8c0,0.4,0.3,0.8,0.7,0.8C283.8,197,284.1,196.7,284.1,196.3 M283,195.7h0.4
		c0.2,0,0.4,0.1,0.4,0.3c0,0.2-0.1,0.3-0.3,0.3l0.3,0.5h-0.2l-0.3-0.4h-0.2v0.4H283V195.7z M283.4,196.2c0.1,0,0.3,0,0.3-0.2
		c0-0.1-0.1-0.2-0.2-0.2h-0.2v0.3H283.4z"/>
</g>
</svg>
