<?xml version="1.0" encoding="utf-8"?>
<!-- Generator: Adobe Illustrator 26.5.0, SVG Export Plug-In . SVG Version: 6.00 Build 0)  -->
<svg version="1.1" baseProfile="tiny" id="Layer_1" xmlns="http://www.w3.org/2000/svg" xmlns:xlink="http://www.w3.org/1999/xlink"
	 x="0px" y="0px" viewBox="0 0 300 250" overflow="visible" xml:space="preserve">
<g>
	<path fill="#231F20" d="M20,58.1h4.9l4.7,7.9l4.6-7.9h4.9l-7.4,12.3V78h-4.4v-7.8L20,58.1z"/>
	<path fill="#231F20" d="M37.4,67.7c0.4-0.9,0.9-1.7,1.5-2.4c0.7-0.7,1.4-1.2,2.4-1.5c0.9-0.4,1.9-0.5,3.1-0.5
		c1.1,0,2.2,0.2,3.1,0.5c0.9,0.4,1.7,0.9,2.4,1.5c0.7,0.7,1.2,1.5,1.5,2.4c0.4,0.9,0.5,2,0.5,3.1c0,1.2-0.2,2.2-0.5,3.1
		c-0.4,0.9-0.9,1.7-1.5,2.4c-0.7,0.7-1.4,1.2-2.4,1.5c-0.9,0.4-2,0.5-3.1,0.5c-1.1,0-2.2-0.2-3.1-0.5s-1.7-0.9-2.4-1.5
		s-1.2-1.5-1.5-2.4c-0.4-0.9-0.5-2-0.5-3.1C36.9,69.7,37,68.6,37.4,67.7z M41,72.5c0.1,0.6,0.3,1,0.6,1.5c0.3,0.4,0.6,0.8,1.1,1
		c0.4,0.3,1,0.4,1.7,0.4s1.2-0.1,1.7-0.4c0.5-0.3,0.8-0.6,1.1-1c0.3-0.4,0.5-0.9,0.6-1.5c0.1-0.6,0.2-1.1,0.2-1.7
		c0-0.6-0.1-1.1-0.2-1.7c-0.1-0.6-0.3-1.1-0.6-1.5c-0.3-0.4-0.6-0.8-1.1-1s-1-0.4-1.7-0.4s-1.2,0.1-1.7,0.4c-0.4,0.3-0.8,0.6-1.1,1
		c-0.3,0.4-0.5,0.9-0.6,1.5s-0.2,1.1-0.2,1.7C40.8,71.4,40.9,72,41,72.5z"/>
	<path fill="#231F20" d="M64.2,78v-2h-0.1c-0.5,0.8-1.2,1.4-2,1.8c-0.8,0.4-1.6,0.6-2.5,0.6c-1.1,0-1.9-0.1-2.6-0.4
		c-0.7-0.3-1.2-0.7-1.6-1.2c-0.4-0.5-0.7-1.1-0.8-1.9c-0.2-0.7-0.2-1.6-0.2-2.4v-8.9h4v8.2c0,1.2,0.2,2.1,0.6,2.7s1,0.9,2,0.9
		c1.1,0,1.9-0.3,2.4-1c0.5-0.6,0.7-1.7,0.7-3.2v-7.6h4V78H64.2z"/>
	<path fill="#231F20" d="M92,63.4c-0.3-0.4-0.6-0.8-1-1.1c-0.4-0.3-0.8-0.6-1.3-0.7s-1-0.3-1.6-0.3c-1,0-1.8,0.2-2.5,0.6
		c-0.7,0.4-1.3,0.9-1.7,1.5c-0.4,0.6-0.7,1.4-0.9,2.2c-0.2,0.8-0.3,1.7-0.3,2.5c0,0.8,0.1,1.7,0.3,2.5c0.2,0.8,0.5,1.5,0.9,2.1
		c0.4,0.6,1,1.1,1.7,1.5c0.7,0.4,1.5,0.6,2.5,0.6c1.3,0,2.4-0.4,3.1-1.2c0.8-0.8,1.2-1.9,1.4-3.2H97c-0.1,1.3-0.4,2.4-0.9,3.4
		c-0.5,1-1.1,1.9-1.8,2.6s-1.7,1.3-2.7,1.6c-1,0.4-2.2,0.6-3.4,0.6c-1.5,0-2.9-0.3-4.1-0.8c-1.2-0.5-2.3-1.3-3.1-2.2
		c-0.8-0.9-1.5-2-1.9-3.3c-0.4-1.3-0.7-2.6-0.7-4.1c0-1.5,0.2-2.9,0.7-4.2c0.4-1.3,1.1-2.4,1.9-3.3s1.9-1.7,3.1-2.2
		c1.2-0.5,2.6-0.8,4.1-0.8c1.1,0,2.1,0.2,3.1,0.5c1,0.3,1.9,0.8,2.6,1.4c0.8,0.6,1.4,1.4,1.9,2.3s0.8,1.9,1,3.1h-4.3
		C92.5,64.3,92.3,63.8,92,63.4z"/>
	<path fill="#231F20" d="M109.9,58.1l7.5,20h-4.6l-1.5-4.5h-7.5l-1.6,4.5h-4.4l7.6-20H109.9z M110.2,70.3l-2.5-7.3h-0.1l-2.6,7.3
		H110.2z"/>
	<path fill="#231F20" d="M123.5,58.1l8.3,13.4h0.1V58.1h4.1v20h-4.4l-8.3-13.4h-0.1V78h-4.1v-20H123.5z"/>
	<path fill="#231F20" d="M143.8,58.1v4.3c0,0.6-0.1,1.2-0.3,1.7c-0.2,0.5-0.5,1-0.8,1.4s-0.8,0.8-1.3,1c-0.5,0.3-1,0.4-1.6,0.5v-1.8
		c0.7-0.2,1.2-0.6,1.5-1.1c0.3-0.5,0.4-1.1,0.4-1.8h-1.8v-4.3H143.8z"/>
	<path fill="#231F20" d="M146.1,61.8v-3.7h16.4v3.7h-6V78h-4.4V61.8H146.1z"/>
	<path fill="#231F20" d="M184.1,73.9c-0.1,0.8-0.4,1.5-0.9,2.2c-0.5,0.7-1.1,1.3-2,1.7c-0.9,0.5-2.1,0.7-3.6,0.7
		c-0.8,0-1.7-0.1-2.4-0.4c-0.8-0.2-1.5-0.6-2.1-1.1c-0.6-0.5-1.1-1.1-1.5-1.9c-0.4-0.8-0.6-1.7-0.6-2.8v-1.7h4v0.9
		c0,0.5,0,0.9,0.1,1.3c0.1,0.4,0.2,0.8,0.4,1c0.2,0.3,0.4,0.5,0.8,0.7c0.3,0.2,0.8,0.3,1.3,0.3c0.6,0,1-0.1,1.3-0.3s0.5-0.5,0.7-0.8
		c0.1-0.3,0.2-0.7,0.3-1.1c0-0.4,0-0.8,0-1.1V58.1h4.4v13.7C184.3,72.4,184.2,73.1,184.1,73.9z"/>
	<path fill="#231F20" d="M202.8,76.5c-1.5,1.3-3.6,2-6.3,2c-2.7,0-4.8-0.7-6.3-2c-1.5-1.3-2.2-3.3-2.2-6V58.1h4.4v12.4
		c0,0.5,0,1.1,0.1,1.6s0.3,1,0.6,1.4c0.3,0.4,0.7,0.7,1.2,1s1.2,0.4,2.1,0.4c1.6,0,2.7-0.3,3.2-1c0.6-0.7,0.9-1.8,0.9-3.3V58.1h4.4
		v12.4C205.1,73.2,204.4,75.2,202.8,76.5z"/>
	<path fill="#231F20" d="M217.5,58.1c1.3,0,2.5,0.2,3.6,0.6c1.1,0.4,2.1,1,2.9,1.8c0.8,0.8,1.4,1.8,1.9,3.1c0.5,1.2,0.7,2.7,0.7,4.3
		c0,1.5-0.2,2.8-0.6,4c-0.4,1.2-0.9,2.3-1.7,3.2s-1.7,1.6-2.8,2.1c-1.1,0.5-2.5,0.8-4,0.8h-8.6v-20H217.5z M217.2,74.4
		c0.6,0,1.2-0.1,1.8-0.3c0.6-0.2,1.1-0.5,1.6-1c0.5-0.5,0.8-1.1,1.1-1.9c0.3-0.8,0.4-1.7,0.4-2.8c0-1-0.1-1.9-0.3-2.7
		c-0.2-0.8-0.5-1.5-1-2.1c-0.4-0.6-1-1-1.8-1.3c-0.7-0.3-1.6-0.5-2.7-0.5h-3.1v12.6H217.2z"/>
	<path fill="#231F20" d="M241.5,77.9c-1,0.4-1.9,0.6-2.9,0.6c-1.5,0-2.9-0.3-4.1-0.8c-1.2-0.5-2.3-1.3-3.1-2.2
		c-0.8-0.9-1.5-2-1.9-3.3c-0.4-1.3-0.7-2.6-0.7-4.1c0-1.5,0.2-2.9,0.7-4.2c0.4-1.3,1.1-2.4,1.9-3.3s1.9-1.7,3.1-2.2s2.6-0.8,4.1-0.8
		c1,0,2,0.2,3,0.5c1,0.3,1.8,0.8,2.6,1.4c0.8,0.6,1.4,1.3,1.9,2.2c0.5,0.9,0.8,1.9,0.9,3h-4.2c-0.3-1.1-0.8-2-1.5-2.5
		c-0.7-0.6-1.7-0.8-2.7-0.8c-1,0-1.8,0.2-2.5,0.6c-0.7,0.4-1.3,0.9-1.7,1.5c-0.4,0.6-0.7,1.4-0.9,2.2c-0.2,0.8-0.3,1.7-0.3,2.5
		c0,0.8,0.1,1.7,0.3,2.5s0.5,1.5,0.9,2.1c0.4,0.6,1,1.1,1.7,1.5c0.7,0.4,1.5,0.6,2.5,0.6c1.5,0,2.6-0.4,3.4-1.1
		c0.8-0.7,1.3-1.8,1.4-3.2h-4.4v-3.3h8.4V78h-2.8l-0.4-2.3C243.3,76.8,242.4,77.5,241.5,77.9z"/>
	<path fill="#231F20" d="M265.8,58.1v3.7h-10.6V66h9.7v3.4h-9.7v4.9h10.8V78h-15.2v-20H265.8z"/>
</g>
<g>
	<path fill="#339933" d="M44.1,97c0.1-0.9,0.3-1.7,0.7-2.3c0.4-0.6,0.9-1.1,1.6-1.5c0.6-0.4,1.3-0.6,2.1-0.8s1.6-0.2,2.4-0.2
		c0.7,0,1.5,0.1,2.2,0.2s1.4,0.3,2,0.6c0.6,0.3,1.1,0.7,1.5,1.2c0.4,0.5,0.6,1.2,0.6,2.1v7.5c0,0.7,0,1.3,0.1,1.9
		c0.1,0.6,0.2,1,0.4,1.3h-4c-0.1-0.2-0.1-0.5-0.2-0.7c0-0.2-0.1-0.5-0.1-0.7c-0.6,0.7-1.4,1.1-2.2,1.4c-0.9,0.3-1.7,0.4-2.6,0.4
		c-0.7,0-1.3-0.1-1.9-0.3c-0.6-0.2-1.1-0.4-1.6-0.8c-0.4-0.4-0.8-0.8-1.1-1.3c-0.3-0.5-0.4-1.2-0.4-1.9c0-0.8,0.1-1.5,0.4-2
		c0.3-0.5,0.7-1,1.1-1.3c0.5-0.3,1-0.6,1.6-0.7s1.2-0.3,1.8-0.4c0.6-0.1,1.2-0.2,1.8-0.2c0.6-0.1,1.1-0.1,1.5-0.3
		c0.4-0.1,0.8-0.3,1.1-0.5c0.3-0.2,0.4-0.5,0.4-0.9c0-0.4-0.1-0.8-0.2-1c-0.1-0.3-0.3-0.4-0.6-0.6S52,95,51.7,94.9
		c-0.3,0-0.6-0.1-1-0.1c-0.8,0-1.4,0.2-1.8,0.5c-0.4,0.3-0.7,0.9-0.8,1.7H44.1z M53.3,100c-0.2,0.1-0.4,0.3-0.6,0.4
		s-0.5,0.2-0.8,0.2c-0.3,0.1-0.6,0.1-0.9,0.1s-0.6,0.1-1,0.1c-0.3,0.1-0.6,0.1-0.9,0.2c-0.3,0.1-0.5,0.2-0.8,0.4
		c-0.2,0.2-0.4,0.4-0.5,0.6c-0.1,0.2-0.2,0.6-0.2,0.9c0,0.4,0.1,0.7,0.2,0.9c0.1,0.2,0.3,0.4,0.5,0.6s0.5,0.2,0.8,0.3
		s0.6,0.1,0.9,0.1c0.8,0,1.4-0.1,1.8-0.4c0.4-0.3,0.7-0.6,1-0.9c0.2-0.4,0.3-0.7,0.4-1.1c0-0.4,0.1-0.7,0.1-0.9V100z"/>
	<path fill="#339933" d="M67,90.8v-3.7h16.4v3.7h-6v16.3H73V90.8H67z"/>
	<path fill="#339933" d="M85.5,93c0.4-1.3,1.1-2.4,1.9-3.3s1.9-1.7,3.1-2.2c1.2-0.5,2.6-0.8,4.1-0.8c1.5,0,2.9,0.3,4.1,0.8
		c1.2,0.5,2.2,1.3,3.1,2.2c0.8,1,1.5,2.1,1.9,3.3c0.4,1.3,0.7,2.7,0.7,4.2c0,1.5-0.2,2.8-0.7,4.1c-0.4,1.3-1.1,2.4-1.9,3.3
		c-0.8,0.9-1.9,1.7-3.1,2.2c-1.2,0.5-2.6,0.8-4.1,0.8c-1.5,0-2.9-0.3-4.1-0.8c-1.2-0.5-2.3-1.3-3.1-2.2c-0.8-0.9-1.5-2-1.9-3.3
		c-0.4-1.3-0.7-2.6-0.7-4.1C84.8,95.7,85,94.3,85.5,93z M89.5,99.6c0.2,0.8,0.5,1.5,0.9,2.1c0.4,0.6,1,1.1,1.7,1.5
		c0.7,0.4,1.5,0.6,2.5,0.6c1,0,1.8-0.2,2.5-0.6c0.7-0.4,1.3-0.9,1.7-1.5s0.7-1.3,0.9-2.1c0.2-0.8,0.3-1.6,0.3-2.5
		c0-0.9-0.1-1.7-0.3-2.5c-0.2-0.8-0.5-1.6-0.9-2.2c-0.4-0.6-1-1.2-1.7-1.5c-0.7-0.4-1.5-0.6-2.5-0.6c-1,0-1.8,0.2-2.5,0.6
		c-0.7,0.4-1.3,0.9-1.7,1.5c-0.4,0.6-0.7,1.4-0.9,2.2c-0.2,0.8-0.3,1.7-0.3,2.5C89.2,98,89.3,98.8,89.5,99.6z"/>
	<path fill="#339933" d="M107.3,93c0.4-1.3,1.1-2.4,1.9-3.3s1.9-1.7,3.1-2.2c1.2-0.5,2.6-0.8,4.1-0.8c1.5,0,2.9,0.3,4.1,0.8
		c1.2,0.5,2.2,1.3,3.1,2.2c0.8,1,1.5,2.1,1.9,3.3c0.4,1.3,0.7,2.7,0.7,4.2c0,1.5-0.2,2.8-0.7,4.1c-0.4,1.3-1.1,2.4-1.9,3.3
		c-0.8,0.9-1.9,1.7-3.1,2.2c-1.2,0.5-2.6,0.8-4.1,0.8c-1.5,0-2.9-0.3-4.1-0.8c-1.2-0.5-2.3-1.3-3.1-2.2c-0.8-0.9-1.5-2-1.9-3.3
		c-0.4-1.3-0.7-2.6-0.7-4.1C106.6,95.7,106.8,94.3,107.3,93z M111.3,99.6c0.2,0.8,0.5,1.5,0.9,2.1c0.4,0.6,1,1.1,1.7,1.5
		c0.7,0.4,1.5,0.6,2.5,0.6c1,0,1.8-0.2,2.5-0.6c0.7-0.4,1.3-0.9,1.7-1.5s0.7-1.3,0.9-2.1c0.2-0.8,0.3-1.6,0.3-2.5
		c0-0.9-0.1-1.7-0.3-2.5c-0.2-0.8-0.5-1.6-0.9-2.2c-0.4-0.6-1-1.2-1.7-1.5c-0.7-0.4-1.5-0.6-2.5-0.6c-1,0-1.8,0.2-2.5,0.6
		c-0.7,0.4-1.3,0.9-1.7,1.5c-0.4,0.6-0.7,1.4-0.9,2.2c-0.2,0.8-0.3,1.7-0.3,2.5C111,98,111.1,98.8,111.3,99.6z"/>
	<path fill="#339933" d="M127.7,90.8v-3.7h16.4v3.7h-6v16.3h-4.4V90.8H127.7z"/>
	<path fill="#339933" d="M150.8,87.1v7.7h8.1v-7.7h4.4v20h-4.4v-8.6h-8.1v8.6h-4.4v-20H150.8z"/>
	<path fill="#339933" d="M178.5,87.1v7.3h0.1c0.5-0.7,1.1-1.3,2-1.6c0.8-0.3,1.7-0.5,2.6-0.5c0.7,0,1.4,0.1,2.2,0.4
		c0.7,0.3,1.3,0.8,1.9,1.4c0.6,0.6,1,1.4,1.4,2.4c0.4,1,0.5,2.1,0.5,3.4c0,1.3-0.2,2.5-0.5,3.4c-0.4,1-0.8,1.8-1.4,2.4
		c-0.6,0.6-1.2,1.1-1.9,1.4c-0.7,0.3-1.4,0.4-2.2,0.4c-1.1,0-2-0.2-2.9-0.5s-1.5-0.9-1.9-1.7h-0.1v1.8h-3.8v-20H178.5z M184.9,98.1
		c-0.1-0.6-0.3-1.1-0.6-1.5c-0.3-0.4-0.6-0.8-1-1s-0.9-0.4-1.5-0.4c-0.6,0-1.1,0.1-1.5,0.4s-0.8,0.6-1.1,1c-0.3,0.4-0.5,0.9-0.6,1.5
		c-0.1,0.6-0.2,1.1-0.2,1.8c0,0.6,0.1,1.2,0.2,1.7c0.1,0.6,0.3,1.1,0.6,1.5c0.3,0.4,0.6,0.8,1.1,1s0.9,0.4,1.5,0.4
		c0.6,0,1.1-0.1,1.5-0.4s0.8-0.6,1-1c0.3-0.4,0.5-0.9,0.6-1.5c0.1-0.6,0.2-1.1,0.2-1.7C185.1,99.2,185,98.6,184.9,98.1z"/>
	<path fill="#339933" d="M196.9,111.4c-0.8,0.5-1.8,0.8-3.2,0.8c-0.4,0-0.8,0-1.2,0c-0.4,0-0.8-0.1-1.2-0.1v-3.3
		c0.4,0,0.8,0.1,1.1,0.1c0.4,0,0.8,0,1.2,0c0.5-0.1,0.9-0.3,1.2-0.6s0.4-0.7,0.4-1.2c0-0.3-0.1-0.6-0.2-0.9l-5.1-13.6h4.2l3.3,9.9
		h0.1l3.2-9.9h4.1l-6,16.3C198.3,110,197.7,110.9,196.9,111.4z"/>
	<path fill="#339933" d="M214,90.3v-3.3h4v3.3H214z M218,92.6v14.5h-4V92.6H218z"/>
	<path fill="#339933" d="M229.1,92.6v2.7h-2.9v7.2c0,0.7,0.1,1.1,0.3,1.3c0.2,0.2,0.7,0.3,1.3,0.3c0.2,0,0.4,0,0.6,0
		c0.2,0,0.4,0,0.6-0.1v3.1c-0.3,0.1-0.7,0.1-1.1,0.1s-0.8,0-1.2,0c-0.6,0-1.2,0-1.8-0.1s-1-0.2-1.5-0.5c-0.4-0.2-0.8-0.6-1-1
		c-0.2-0.4-0.4-1-0.4-1.8v-8.5h-2.4v-2.7h2.4v-4.3h4v4.3H229.1z"/>
	<path fill="#339933" d="M234.3,103.5c0.2,0.3,0.4,0.6,0.7,0.8c0.3,0.2,0.6,0.3,1,0.4c0.4,0.1,0.7,0.1,1.1,0.1c0.3,0,0.6,0,0.9-0.1
		c0.3-0.1,0.6-0.2,0.8-0.3c0.3-0.1,0.5-0.3,0.6-0.6s0.3-0.5,0.3-0.9c0-0.6-0.4-1-1.2-1.3c-0.8-0.3-1.9-0.6-3.3-0.9
		c-0.6-0.1-1.1-0.3-1.7-0.5c-0.6-0.2-1-0.4-1.5-0.7c-0.4-0.3-0.8-0.7-1-1.1c-0.3-0.4-0.4-1-0.4-1.6c0-0.9,0.2-1.7,0.5-2.3
		c0.4-0.6,0.8-1.1,1.4-1.4c0.6-0.3,1.3-0.6,2-0.7c0.7-0.1,1.5-0.2,2.3-0.2s1.5,0.1,2.3,0.2c0.7,0.1,1.4,0.4,2,0.8
		c0.6,0.4,1.1,0.8,1.4,1.4c0.4,0.6,0.6,1.3,0.7,2.2h-3.8c-0.1-0.8-0.3-1.3-0.9-1.6s-1.1-0.4-1.8-0.4c-0.2,0-0.5,0-0.7,0
		c-0.3,0-0.5,0.1-0.7,0.2c-0.2,0.1-0.4,0.2-0.5,0.4c-0.1,0.2-0.2,0.4-0.2,0.7c0,0.4,0.1,0.6,0.4,0.9s0.6,0.4,1,0.5
		c0.4,0.1,0.9,0.3,1.4,0.4c0.5,0.1,1.1,0.2,1.7,0.4c0.6,0.1,1.1,0.3,1.7,0.5c0.5,0.2,1,0.4,1.5,0.7c0.4,0.3,0.8,0.7,1,1.1
		c0.3,0.5,0.4,1,0.4,1.7c0,1-0.2,1.8-0.6,2.4c-0.4,0.6-0.9,1.2-1.5,1.6c-0.6,0.4-1.3,0.7-2.1,0.8c-0.8,0.2-1.6,0.2-2.4,0.2
		c-0.8,0-1.7-0.1-2.5-0.3c-0.8-0.2-1.5-0.4-2.1-0.8s-1.1-0.9-1.5-1.6c-0.4-0.6-0.6-1.5-0.7-2.4h3.8
		C234.1,102.8,234.1,103.2,234.3,103.5z"/>
</g>
<g>
	<path fill="#339933" d="M89.5,136.1l-6.5-20h4.5l4.5,14.1H92l4.5-14.1h4.5l-6.6,20H89.5z"/>
	<path fill="#339933" d="M117.7,116.1v3.7h-10.6v4.3h9.7v3.4h-9.7v4.9H118v3.7h-15.2v-20H117.7z"/>
	<path fill="#339933" d="M125.3,116.1l8.3,13.4h0.1v-13.4h4.1v20h-4.4l-8.3-13.4h-0.1v13.4h-4.1v-20H125.3z"/>
	<path fill="#339933" d="M156.6,116.1v3.7h-10.6v4.3h9.7v3.4h-9.7v4.9h10.8v3.7h-15.2v-20H156.6z"/>
	<path fill="#339933" d="M174.8,116.1v3.7h-10.6v4.3h9.7v3.4h-9.7v4.9H175v3.7h-15.2v-20H174.8z"/>
	<path fill="#339933" d="M188.8,116.1c0.9,0,1.7,0.1,2.4,0.4c0.7,0.3,1.3,0.7,1.8,1.2c0.5,0.5,0.9,1.1,1.2,1.8
		c0.3,0.7,0.4,1.4,0.4,2.1c0,1.2-0.2,2.2-0.7,3.1c-0.5,0.9-1.3,1.5-2.4,2v0.1c0.5,0.1,1,0.4,1.3,0.7c0.4,0.3,0.6,0.7,0.9,1.1
		c0.2,0.4,0.4,0.9,0.5,1.4s0.2,1,0.2,1.5c0,0.3,0,0.7,0.1,1.1c0,0.4,0.1,0.9,0.1,1.3s0.1,0.9,0.2,1.3c0.1,0.4,0.3,0.7,0.5,1h-4.4
		c-0.2-0.6-0.4-1.4-0.4-2.3c-0.1-0.9-0.1-1.7-0.3-2.5c-0.1-1-0.5-1.8-1-2.3s-1.3-0.7-2.4-0.7h-4.4v7.8H178v-20H188.8z M187.2,125.1
		c1,0,1.8-0.2,2.3-0.7c0.5-0.4,0.8-1.2,0.8-2.2c0-1-0.3-1.7-0.8-2.1c-0.5-0.4-1.3-0.7-2.3-0.7h-4.8v5.6H187.2z"/>
	<path fill="#339933" d="M202.3,131.8v4.3h-4.4v-4.3H202.3z"/>
</g>
</svg>
