<?xml version="1.0" encoding="utf-8"?>
<!-- Generator: Adobe Illustrator 26.5.0, SVG Export Plug-In . SVG Version: 6.00 Build 0)  -->
<svg version="1.1" baseProfile="tiny" id="Layer_1" xmlns="http://www.w3.org/2000/svg" xmlns:xlink="http://www.w3.org/1999/xlink"
	 x="0px" y="0px" viewBox="0 0 300 250" overflow="visible" xml:space="preserve">
<g>
	<path fill="#231F20" d="M53.2,82.1l6.5,17.4h-4l-1.3-3.9h-6.5l-1.4,3.9h-3.8l6.6-17.4H53.2z M53.4,92.7l-2.2-6.4h0l-2.3,6.4H53.4z"
		/>
	<path fill="#231F20" d="M63.9,86.9v1.8H64c0.4-0.7,1-1.3,1.7-1.6s1.4-0.5,2.1-0.5c0.9,0,1.7,0.1,2.3,0.4c0.6,0.3,1.1,0.6,1.4,1
		c0.3,0.4,0.6,1,0.7,1.6c0.1,0.6,0.2,1.4,0.2,2.1v7.7H69v-7.1c0-1-0.2-1.8-0.5-2.3s-0.9-0.8-1.7-0.8c-0.9,0-1.6,0.3-2,0.8
		c-0.4,0.6-0.6,1.5-0.6,2.8v6.6h-3.5V86.9H63.9z"/>
	<path fill="#231F20" d="M83.8,97.8c-0.4,0.7-0.9,1.2-1.6,1.5s-1.4,0.5-2.2,0.5c-0.9,0-1.8-0.2-2.5-0.5c-0.7-0.4-1.3-0.9-1.8-1.5
		c-0.5-0.6-0.8-1.3-1-2.2c-0.2-0.8-0.4-1.7-0.4-2.5c0-0.8,0.1-1.7,0.4-2.4c0.2-0.8,0.6-1.5,1-2.1c0.5-0.6,1-1.1,1.7-1.4
		c0.7-0.4,1.5-0.5,2.4-0.5c0.7,0,1.5,0.2,2.1,0.5c0.7,0.3,1.2,0.8,1.6,1.4h0v-6.3h3.5v17.4h-3.3L83.8,97.8L83.8,97.8z M83.7,91.6
		c-0.1-0.5-0.3-0.9-0.5-1.3c-0.2-0.4-0.5-0.7-0.9-0.9c-0.4-0.2-0.8-0.3-1.4-0.3c-0.6,0-1,0.1-1.4,0.3c-0.4,0.2-0.7,0.5-0.9,0.9
		c-0.2,0.4-0.4,0.8-0.5,1.3c-0.1,0.5-0.2,1-0.2,1.5c0,0.5,0.1,1,0.2,1.5c0.1,0.5,0.3,0.9,0.5,1.3c0.3,0.4,0.6,0.7,1,0.9
		c0.4,0.2,0.8,0.4,1.4,0.4c0.6,0,1-0.1,1.4-0.3s0.7-0.5,0.9-0.9c0.2-0.4,0.4-0.8,0.5-1.3s0.1-1,0.1-1.5
		C83.8,92.6,83.8,92.1,83.7,91.6z"/>
	<path fill="#231F20" d="M99.4,86.9v1.6h0c0.4-0.7,1-1.2,1.6-1.5c0.6-0.3,1.4-0.5,2.1-0.5c1,0,1.8,0.2,2.6,0.6
		c0.7,0.4,1.3,0.9,1.8,1.5c0.5,0.6,0.8,1.3,1,2.2c0.2,0.8,0.3,1.7,0.3,2.6c0,0.8-0.1,1.7-0.3,2.4c-0.2,0.8-0.6,1.5-1,2.1
		c-0.5,0.6-1,1.1-1.7,1.4c-0.7,0.4-1.5,0.5-2.4,0.5c-0.8,0-1.5-0.2-2.2-0.5c-0.7-0.3-1.2-0.8-1.6-1.4h0v6h-3.5v-17H99.4z
		 M103.9,96.8c0.4-0.2,0.7-0.5,0.9-0.9s0.4-0.8,0.5-1.3c0.1-0.5,0.1-1,0.1-1.5c0-0.5-0.1-1-0.2-1.5s-0.3-0.9-0.5-1.3
		c-0.2-0.4-0.6-0.7-0.9-0.9c-0.4-0.2-0.8-0.4-1.4-0.4c-0.6,0-1,0.1-1.4,0.4c-0.4,0.2-0.7,0.5-0.9,0.9c-0.2,0.4-0.4,0.8-0.5,1.3
		c-0.1,0.5-0.1,1-0.1,1.5c0,0.5,0.1,1,0.2,1.5c0.1,0.5,0.3,0.9,0.5,1.3c0.2,0.4,0.5,0.7,0.9,0.9c0.4,0.2,0.9,0.3,1.4,0.3
		C103,97.2,103.5,97.1,103.9,96.8z"/>
	<path fill="#231F20" d="M114,86.9v2.3h0c0.2-0.4,0.4-0.8,0.7-1.1c0.3-0.3,0.6-0.6,1-0.9c0.4-0.2,0.7-0.4,1.1-0.5
		c0.4-0.1,0.8-0.2,1.3-0.2c0.2,0,0.5,0,0.8,0.1v3.2c-0.2,0-0.4-0.1-0.6-0.1c-0.2,0-0.4,0-0.7,0c-0.6,0-1.2,0.1-1.6,0.3
		s-0.8,0.5-1.1,0.9c-0.3,0.4-0.5,0.8-0.6,1.3c-0.1,0.5-0.2,1-0.2,1.6v5.7h-3.5V86.9H114z"/>
	<path fill="#231F20" d="M119.6,90.4c0.3-0.8,0.7-1.5,1.3-2.1c0.6-0.6,1.2-1,2-1.3c0.8-0.3,1.7-0.5,2.7-0.5s1.9,0.2,2.7,0.5
		c0.8,0.3,1.5,0.8,2.1,1.3c0.6,0.6,1,1.3,1.3,2.1c0.3,0.8,0.5,1.7,0.5,2.7s-0.2,1.9-0.5,2.7c-0.3,0.8-0.7,1.5-1.3,2.1
		c-0.6,0.6-1.3,1-2.1,1.3c-0.8,0.3-1.7,0.5-2.7,0.5s-1.9-0.2-2.7-0.5c-0.8-0.3-1.5-0.8-2-1.3c-0.6-0.6-1-1.3-1.3-2.1
		c-0.3-0.8-0.5-1.7-0.5-2.7S119.3,91.2,119.6,90.4z M122.8,94.6c0.1,0.5,0.3,0.9,0.5,1.3c0.2,0.4,0.5,0.7,0.9,0.9s0.9,0.3,1.5,0.3
		c0.6,0,1.1-0.1,1.5-0.3c0.4-0.2,0.7-0.5,0.9-0.9c0.2-0.4,0.4-0.8,0.5-1.3s0.1-1,0.1-1.5s0-1-0.1-1.5c-0.1-0.5-0.3-0.9-0.5-1.3
		c-0.2-0.4-0.6-0.7-0.9-0.9c-0.4-0.2-0.9-0.4-1.5-0.4c-0.6,0-1.1,0.1-1.5,0.4c-0.4,0.2-0.7,0.5-0.9,0.9c-0.2,0.4-0.4,0.8-0.5,1.3
		c-0.1,0.5-0.1,1-0.1,1.5S122.7,94.2,122.8,94.6z"/>
	<path fill="#231F20" d="M141.1,86.9v2.3h-2.5v6.2c0,0.6,0.1,1,0.3,1.2s0.6,0.3,1.2,0.3c0.2,0,0.4,0,0.6,0c0.2,0,0.3,0,0.5-0.1v2.7
		c-0.3,0-0.6,0.1-1,0.1c-0.4,0-0.7,0-1,0c-0.5,0-1,0-1.5-0.1c-0.5-0.1-0.9-0.2-1.3-0.4c-0.4-0.2-0.7-0.5-0.9-0.9s-0.3-0.9-0.3-1.5
		v-7.4H133v-2.3h2.1v-3.8h3.5v3.8H141.1z"/>
	<path fill="#231F20" d="M146.3,96.4c0.5,0.5,1.3,0.8,2.2,0.8c0.7,0,1.3-0.2,1.8-0.5c0.5-0.3,0.8-0.7,0.9-1.1h3
		c-0.5,1.5-1.2,2.6-2.2,3.2c-1,0.6-2.2,1-3.7,1c-1,0-1.9-0.2-2.7-0.5c-0.8-0.3-1.5-0.8-2-1.4c-0.6-0.6-1-1.3-1.3-2.1
		c-0.3-0.8-0.5-1.7-0.5-2.7c0-0.9,0.2-1.8,0.5-2.6c0.3-0.8,0.7-1.5,1.3-2.1c0.6-0.6,1.2-1.1,2-1.4c0.8-0.3,1.7-0.5,2.6-0.5
		c1.1,0,2,0.2,2.8,0.6c0.8,0.4,1.4,1,2,1.7c0.5,0.7,0.9,1.5,1.1,2.4c0.2,0.9,0.3,1.8,0.2,2.8h-9.1C145.5,95.1,145.7,95.9,146.3,96.4
		z M150.2,89.8c-0.4-0.5-1-0.7-1.9-0.7c-0.6,0-1,0.1-1.4,0.3c-0.4,0.2-0.7,0.4-0.9,0.7c-0.2,0.3-0.4,0.6-0.5,0.9s-0.1,0.6-0.2,0.8
		h5.6C150.9,90.9,150.6,90.3,150.2,89.8z"/>
	<path fill="#231F20" d="M162.3,89.1c-0.6,0-1,0.1-1.4,0.4c-0.4,0.3-0.7,0.6-0.9,1s-0.4,0.8-0.5,1.3c-0.1,0.5-0.1,1-0.1,1.4
		c0,0.5,0,0.9,0.1,1.4c0.1,0.5,0.3,0.9,0.5,1.3c0.2,0.4,0.5,0.7,0.9,0.9c0.4,0.2,0.8,0.4,1.4,0.4c0.8,0,1.5-0.2,1.9-0.7
		c0.4-0.5,0.7-1.1,0.8-1.9h3.3c-0.2,1.7-0.9,2.9-1.9,3.8c-1.1,0.9-2.4,1.3-4.1,1.3c-0.9,0-1.8-0.2-2.6-0.5c-0.8-0.3-1.5-0.8-2-1.3
		c-0.6-0.6-1-1.2-1.3-2c-0.3-0.8-0.5-1.7-0.5-2.6c0-1,0.1-1.9,0.4-2.7c0.3-0.8,0.7-1.6,1.3-2.2s1.2-1.1,2-1.4
		c0.8-0.3,1.7-0.5,2.7-0.5c0.7,0,1.5,0.1,2.2,0.3c0.7,0.2,1.3,0.5,1.9,0.9c0.5,0.4,1,0.9,1.3,1.5s0.5,1.3,0.6,2.1h-3.4
		C164.7,89.8,163.8,89.1,162.3,89.1z"/>
	<path fill="#231F20" d="M177,86.9v2.3h-2.5v6.2c0,0.6,0.1,1,0.3,1.2c0.2,0.2,0.6,0.3,1.2,0.3c0.2,0,0.4,0,0.6,0s0.3,0,0.5-0.1v2.7
		c-0.3,0-0.6,0.1-1,0.1c-0.4,0-0.7,0-1,0c-0.5,0-1,0-1.5-0.1c-0.5-0.1-0.9-0.2-1.3-0.4c-0.4-0.2-0.7-0.5-0.9-0.9s-0.3-0.9-0.3-1.5
		v-7.4h-2.1v-2.3h2.1v-3.8h3.5v3.8H177z"/>
	<path fill="#231F20" d="M189.6,103.2c-0.7,0.4-1.6,0.7-2.8,0.7c-0.4,0-0.7,0-1.1,0c-0.3,0-0.7-0.1-1.1-0.1v-2.9
		c0.3,0,0.7,0.1,1,0.1c0.3,0,0.7,0,1,0c0.5,0,0.8-0.2,1-0.5c0.2-0.3,0.3-0.6,0.3-1c0-0.3,0-0.5-0.1-0.8l-4.4-11.8h3.7l2.8,8.6h0
		l2.8-8.6h3.6l-5.3,14.2C190.8,102,190.3,102.8,189.6,103.2z"/>
	<path fill="#231F20" d="M197.4,90.4c0.3-0.8,0.7-1.5,1.3-2.1s1.2-1,2-1.3c0.8-0.3,1.7-0.5,2.7-0.5s1.9,0.2,2.7,0.5
		c0.8,0.3,1.5,0.8,2.1,1.3s1,1.3,1.3,2.1c0.3,0.8,0.5,1.7,0.5,2.7s-0.2,1.9-0.5,2.7c-0.3,0.8-0.7,1.5-1.3,2.1
		c-0.6,0.6-1.3,1-2.1,1.3c-0.8,0.3-1.7,0.5-2.7,0.5s-1.9-0.2-2.7-0.5c-0.8-0.3-1.5-0.8-2-1.3c-0.6-0.6-1-1.3-1.3-2.1
		c-0.3-0.8-0.5-1.7-0.5-2.7S197.1,91.2,197.4,90.4z M200.6,94.6c0.1,0.5,0.3,0.9,0.5,1.3c0.2,0.4,0.5,0.7,0.9,0.9
		c0.4,0.2,0.9,0.3,1.5,0.3s1.1-0.1,1.5-0.3c0.4-0.2,0.7-0.5,1-0.9c0.2-0.4,0.4-0.8,0.5-1.3c0.1-0.5,0.1-1,0.1-1.5s0-1-0.1-1.5
		c-0.1-0.5-0.3-0.9-0.5-1.3c-0.2-0.4-0.6-0.7-1-0.9c-0.4-0.2-0.9-0.4-1.5-0.4s-1.1,0.1-1.5,0.4c-0.4,0.2-0.7,0.5-0.9,0.9
		c-0.2,0.4-0.4,0.8-0.5,1.3c-0.1,0.5-0.1,1-0.1,1.5S200.5,94.2,200.6,94.6z"/>
	<path fill="#231F20" d="M220.6,99.5v-1.8h-0.1c-0.4,0.7-1,1.3-1.7,1.6c-0.7,0.3-1.4,0.5-2.1,0.5c-0.9,0-1.7-0.1-2.3-0.4
		s-1.1-0.6-1.4-1c-0.3-0.4-0.6-1-0.7-1.6c-0.1-0.6-0.2-1.4-0.2-2.1v-7.7h3.5V94c0,1,0.2,1.8,0.5,2.3c0.3,0.5,0.9,0.8,1.7,0.8
		c0.9,0,1.6-0.3,2-0.8c0.4-0.6,0.6-1.5,0.6-2.8v-6.6h3.5v12.6H220.6z"/>
	<path fill="#231F20" d="M229.5,86.9v2.3h0c0.2-0.4,0.4-0.8,0.7-1.1s0.6-0.6,1-0.9c0.4-0.2,0.7-0.4,1.1-0.5c0.4-0.1,0.8-0.2,1.3-0.2
		c0.2,0,0.5,0,0.8,0.1v3.2c-0.2,0-0.4-0.1-0.6-0.1s-0.4,0-0.7,0c-0.6,0-1.2,0.1-1.6,0.3s-0.8,0.5-1.1,0.9c-0.3,0.4-0.5,0.8-0.6,1.3
		c-0.1,0.5-0.2,1-0.2,1.6v5.7h-3.5V86.9H229.5z"/>
	<path fill="#231F20" d="M238.4,96.3c0.2,0.3,0.4,0.5,0.6,0.7s0.5,0.3,0.8,0.4c0.3,0.1,0.6,0.1,1,0.1c0.2,0,0.5,0,0.8-0.1
		c0.3-0.1,0.5-0.1,0.7-0.3c0.2-0.1,0.4-0.3,0.5-0.5c0.1-0.2,0.2-0.5,0.2-0.8c0-0.5-0.3-0.9-1-1.2c-0.7-0.3-1.7-0.5-2.9-0.8
		c-0.5-0.1-1-0.2-1.5-0.4c-0.5-0.2-0.9-0.4-1.3-0.6c-0.4-0.3-0.7-0.6-0.9-1c-0.2-0.4-0.3-0.8-0.3-1.4c0-0.8,0.2-1.5,0.5-2
		c0.3-0.5,0.7-0.9,1.3-1.2c0.5-0.3,1.1-0.5,1.8-0.6c0.6-0.1,1.3-0.2,2-0.2c0.7,0,1.3,0.1,2,0.2c0.6,0.1,1.2,0.3,1.7,0.7
		c0.5,0.3,0.9,0.7,1.3,1.2c0.3,0.5,0.5,1.2,0.6,1.9h-3.3c0-0.7-0.3-1.1-0.8-1.4c-0.5-0.2-1-0.4-1.6-0.4c-0.2,0-0.4,0-0.6,0
		s-0.4,0.1-0.6,0.2c-0.2,0.1-0.3,0.2-0.5,0.4s-0.2,0.4-0.2,0.6c0,0.3,0.1,0.6,0.3,0.8c0.2,0.2,0.5,0.4,0.9,0.5
		c0.4,0.1,0.8,0.2,1.3,0.3c0.5,0.1,1,0.2,1.4,0.3c0.5,0.1,1,0.3,1.5,0.4c0.5,0.2,0.9,0.4,1.3,0.6c0.4,0.3,0.7,0.6,0.9,1
		c0.2,0.4,0.3,0.9,0.3,1.5c0,0.8-0.2,1.5-0.5,2.1c-0.3,0.6-0.8,1-1.3,1.4c-0.5,0.3-1.1,0.6-1.8,0.7c-0.7,0.1-1.4,0.2-2.1,0.2
		c-0.7,0-1.4-0.1-2.1-0.2c-0.7-0.1-1.3-0.4-1.9-0.7c-0.5-0.3-1-0.8-1.3-1.4c-0.3-0.6-0.5-1.3-0.6-2.1h3.3
		C238.2,95.7,238.3,96.1,238.4,96.3z"/>
	<path fill="#231F20" d="M252.1,96.4c0.5,0.5,1.3,0.8,2.2,0.8c0.7,0,1.3-0.2,1.8-0.5c0.5-0.3,0.8-0.7,0.9-1.1h3
		c-0.5,1.5-1.2,2.6-2.2,3.2c-1,0.6-2.2,1-3.7,1c-1,0-1.9-0.2-2.7-0.5c-0.8-0.3-1.5-0.8-2-1.4c-0.6-0.6-1-1.3-1.3-2.1
		c-0.3-0.8-0.5-1.7-0.5-2.7c0-0.9,0.2-1.8,0.5-2.6s0.7-1.5,1.3-2.1c0.6-0.6,1.2-1.1,2-1.4c0.8-0.3,1.7-0.5,2.6-0.5
		c1.1,0,2,0.2,2.8,0.6s1.5,1,2,1.7c0.5,0.7,0.9,1.5,1.1,2.4s0.3,1.8,0.2,2.8h-9.1C251.3,95.1,251.6,95.9,252.1,96.4z M256,89.8
		c-0.4-0.5-1-0.7-1.9-0.7c-0.6,0-1,0.1-1.4,0.3c-0.4,0.2-0.7,0.4-0.9,0.7c-0.2,0.3-0.4,0.6-0.5,0.9c-0.1,0.3-0.1,0.6-0.2,0.8h5.6
		C256.7,90.9,256.4,90.3,256,89.8z"/>
	<path fill="#231F20" d="M265.7,82.1v17.4h-3.5V82.1H265.7z"/>
	<path fill="#231F20" d="M266.9,89.2v-2.3h2.1v-1c0-1.1,0.3-2,1-2.8c0.7-0.7,1.8-1.1,3.2-1.1c0.3,0,0.6,0,0.9,0c0.3,0,0.6,0,0.9,0.1
		v2.6c-0.4,0-0.8-0.1-1.3-0.1c-0.5,0-0.8,0.1-1,0.3s-0.3,0.6-0.3,1.1v0.8h2.4v2.3h-2.4v10.3h-3.5V89.2H266.9z"/>
</g>
<g>
	<path fill="#231F20" d="M61.9,113.5v-2.3H64v-1c0-1.1,0.3-2,1-2.8c0.7-0.7,1.8-1.1,3.2-1.1c0.3,0,0.6,0,0.9,0s0.6,0,0.9,0.1v2.6
		c-0.4,0-0.8-0.1-1.3-0.1c-0.5,0-0.8,0.1-1,0.3s-0.3,0.6-0.3,1.1v0.8h2.4v2.3h-2.4v10.3H64v-10.3H61.9z"/>
	<path fill="#231F20" d="M74.4,111.2v2.3h0c0.2-0.4,0.4-0.8,0.7-1.1c0.3-0.3,0.6-0.6,1-0.9c0.4-0.2,0.7-0.4,1.1-0.5
		c0.4-0.1,0.8-0.2,1.3-0.2c0.2,0,0.5,0,0.8,0.1v3.2c-0.2,0-0.4-0.1-0.6-0.1c-0.2,0-0.4,0-0.7,0c-0.6,0-1.2,0.1-1.6,0.3
		s-0.8,0.5-1.1,0.9c-0.3,0.4-0.5,0.8-0.6,1.3c-0.1,0.5-0.2,1-0.2,1.6v5.7h-3.5v-12.6H74.4z"/>
	<path fill="#231F20" d="M80,114.8c0.3-0.8,0.7-1.5,1.3-2.1c0.6-0.6,1.2-1,2-1.3c0.8-0.3,1.7-0.5,2.7-0.5s1.9,0.2,2.7,0.5
		c0.8,0.3,1.5,0.8,2.1,1.3c0.6,0.6,1,1.3,1.3,2.1c0.3,0.8,0.5,1.7,0.5,2.7s-0.2,1.9-0.5,2.7c-0.3,0.8-0.7,1.5-1.3,2.1
		c-0.6,0.6-1.3,1-2.1,1.3c-0.8,0.3-1.7,0.5-2.7,0.5s-1.9-0.2-2.7-0.5c-0.8-0.3-1.5-0.8-2-1.3c-0.6-0.6-1-1.3-1.3-2.1
		c-0.3-0.8-0.5-1.7-0.5-2.7S79.7,115.6,80,114.8z M83.1,119c0.1,0.5,0.3,0.9,0.5,1.3c0.2,0.4,0.5,0.7,0.9,0.9s0.9,0.3,1.5,0.3
		c0.6,0,1.1-0.1,1.5-0.3c0.4-0.2,0.7-0.5,0.9-0.9c0.2-0.4,0.4-0.8,0.5-1.3s0.1-1,0.1-1.5s0-1-0.1-1.5c-0.1-0.5-0.3-0.9-0.5-1.3
		c-0.2-0.4-0.6-0.7-0.9-0.9c-0.4-0.2-0.9-0.4-1.5-0.4c-0.6,0-1.1,0.1-1.5,0.4c-0.4,0.2-0.7,0.5-0.9,0.9c-0.2,0.4-0.4,0.8-0.5,1.3
		c-0.1,0.5-0.1,1-0.1,1.5S83,118.5,83.1,119z"/>
	<path fill="#231F20" d="M97.9,111.2v1.7h0c0.5-0.6,1-1.2,1.6-1.5c0.6-0.4,1.4-0.5,2.2-0.5c0.8,0,1.5,0.2,2.2,0.5s1.2,0.9,1.5,1.6
		c0.4-0.6,0.9-1,1.5-1.5s1.4-0.6,2.3-0.6c0.7,0,1.3,0.1,1.9,0.2c0.6,0.2,1.1,0.4,1.5,0.8c0.4,0.4,0.7,0.8,1,1.4
		c0.2,0.6,0.3,1.3,0.3,2.1v8.4h-3.5v-7.1c0-0.4,0-0.8,0-1.2c0-0.4-0.1-0.7-0.3-1c-0.1-0.3-0.4-0.5-0.6-0.7c-0.3-0.2-0.7-0.2-1.2-0.2
		c-0.5,0-0.9,0.1-1.2,0.3c-0.3,0.2-0.5,0.4-0.7,0.7c-0.2,0.3-0.3,0.6-0.3,1c-0.1,0.4-0.1,0.8-0.1,1.2v7h-3.5v-7.1c0-0.4,0-0.7,0-1.1
		c0-0.4-0.1-0.7-0.2-1c-0.1-0.3-0.3-0.6-0.6-0.7c-0.3-0.2-0.7-0.3-1.3-0.3c-0.2,0-0.4,0-0.6,0.1s-0.5,0.2-0.8,0.4
		c-0.3,0.2-0.5,0.5-0.6,0.9c-0.2,0.4-0.3,0.9-0.3,1.5v7.3h-3.5v-12.6H97.9z"/>
	<path fill="#231F20" d="M131.5,123.8v-1.8h-0.1c-0.4,0.7-1,1.3-1.7,1.6s-1.4,0.5-2.1,0.5c-0.9,0-1.7-0.1-2.3-0.4s-1.1-0.6-1.4-1
		c-0.3-0.4-0.6-1-0.7-1.6c-0.1-0.6-0.2-1.4-0.2-2.1v-7.7h3.5v7.1c0,1,0.2,1.8,0.5,2.3c0.3,0.5,0.9,0.8,1.7,0.8c0.9,0,1.6-0.3,2-0.8
		c0.4-0.6,0.6-1.5,0.6-2.8v-6.6h3.5v12.6H131.5z"/>
	<path fill="#231F20" d="M140.5,111.2v1.8h0.1c0.4-0.7,1-1.3,1.7-1.6s1.4-0.5,2.1-0.5c0.9,0,1.7,0.1,2.3,0.4c0.6,0.3,1.1,0.6,1.4,1
		c0.3,0.4,0.6,1,0.7,1.6c0.1,0.6,0.2,1.4,0.2,2.1v7.7h-3.5v-7.1c0-1-0.2-1.8-0.5-2.3s-0.9-0.8-1.7-0.8c-0.9,0-1.6,0.3-2,0.8
		c-0.4,0.6-0.6,1.5-0.6,2.8v6.6h-3.5v-12.6H140.5z"/>
	<path fill="#231F20" d="M155.1,120.8c0.5,0.5,1.3,0.8,2.2,0.8c0.7,0,1.3-0.2,1.8-0.5c0.5-0.3,0.8-0.7,0.9-1.1h3
		c-0.5,1.5-1.2,2.6-2.2,3.2c-1,0.6-2.2,1-3.7,1c-1,0-1.9-0.2-2.7-0.5c-0.8-0.3-1.5-0.8-2-1.4c-0.6-0.6-1-1.3-1.3-2.1
		c-0.3-0.8-0.5-1.7-0.5-2.7c0-0.9,0.2-1.8,0.5-2.6s0.7-1.5,1.3-2.1c0.6-0.6,1.2-1.1,2-1.4c0.8-0.3,1.7-0.5,2.6-0.5
		c1.1,0,2,0.2,2.8,0.6s1.5,1,2,1.7c0.5,0.7,0.9,1.5,1.1,2.4s0.3,1.8,0.2,2.8h-9.1C154.3,119.5,154.6,120.3,155.1,120.8z M159,114.2
		c-0.4-0.5-1-0.7-1.9-0.7c-0.6,0-1,0.1-1.4,0.3c-0.4,0.2-0.7,0.4-0.9,0.7c-0.2,0.3-0.4,0.6-0.5,0.9c-0.1,0.3-0.1,0.6-0.2,0.8h5.6
		C159.7,115.3,159.4,114.6,159,114.2z"/>
	<path fill="#231F20" d="M164.2,111.2h3.9l2.2,3.3l2.2-3.3h3.8l-4.1,5.9l4.7,6.7H173l-2.6-4l-2.6,4h-3.9l4.5-6.6L164.2,111.2z"/>
	<path fill="#231F20" d="M181.3,111.2v1.6h0c0.4-0.7,1-1.2,1.6-1.5c0.6-0.3,1.4-0.5,2.1-0.5c1,0,1.8,0.2,2.6,0.6
		c0.7,0.4,1.3,0.9,1.8,1.5c0.5,0.6,0.8,1.3,1,2.2c0.2,0.8,0.3,1.7,0.3,2.6c0,0.8-0.1,1.7-0.3,2.4c-0.2,0.8-0.6,1.5-1,2.1
		c-0.5,0.6-1,1.1-1.7,1.4s-1.5,0.5-2.4,0.5c-0.8,0-1.5-0.2-2.2-0.5c-0.7-0.3-1.2-0.8-1.6-1.4h0v6H178v-17H181.3z M185.8,121.2
		c0.4-0.2,0.7-0.5,0.9-0.9c0.2-0.4,0.4-0.8,0.5-1.3c0.1-0.5,0.1-1,0.1-1.5c0-0.5-0.1-1-0.2-1.5c-0.1-0.5-0.3-0.9-0.5-1.3
		c-0.2-0.4-0.6-0.7-0.9-0.9c-0.4-0.2-0.8-0.4-1.4-0.4c-0.6,0-1,0.1-1.4,0.4c-0.4,0.2-0.7,0.5-0.9,0.9c-0.2,0.4-0.4,0.8-0.5,1.3
		c-0.1,0.5-0.1,1-0.1,1.5c0,0.5,0.1,1,0.2,1.5c0.1,0.5,0.3,0.9,0.5,1.3s0.5,0.7,0.9,0.9s0.9,0.3,1.4,0.3
		C184.9,121.5,185.4,121.4,185.8,121.2z"/>
	<path fill="#231F20" d="M196.4,120.8c0.5,0.5,1.3,0.8,2.2,0.8c0.7,0,1.3-0.2,1.8-0.5c0.5-0.3,0.8-0.7,0.9-1.1h3
		c-0.5,1.5-1.2,2.6-2.2,3.2c-1,0.6-2.2,1-3.7,1c-1,0-1.9-0.2-2.7-0.5c-0.8-0.3-1.5-0.8-2-1.4c-0.6-0.6-1-1.3-1.3-2.1
		c-0.3-0.8-0.5-1.7-0.5-2.7c0-0.9,0.2-1.8,0.5-2.6s0.7-1.5,1.3-2.1c0.6-0.6,1.2-1.1,2-1.4c0.8-0.3,1.7-0.5,2.6-0.5
		c1.1,0,2,0.2,2.8,0.6s1.5,1,2,1.7c0.5,0.7,0.9,1.5,1.1,2.4s0.3,1.8,0.2,2.8h-9.1C195.6,119.5,195.8,120.3,196.4,120.8z
		 M200.3,114.2c-0.4-0.5-1-0.7-1.9-0.7c-0.6,0-1,0.1-1.4,0.3c-0.4,0.2-0.7,0.4-0.9,0.7c-0.2,0.3-0.4,0.6-0.5,0.9
		c-0.1,0.3-0.1,0.6-0.2,0.8h5.6C201,115.3,200.7,114.6,200.3,114.2z"/>
	<path fill="#231F20" d="M212.4,113.5c-0.6,0-1,0.1-1.4,0.4c-0.4,0.3-0.7,0.6-0.9,1s-0.4,0.8-0.5,1.3c-0.1,0.5-0.1,1-0.1,1.4
		c0,0.5,0,0.9,0.1,1.4c0.1,0.5,0.3,0.9,0.5,1.3c0.2,0.4,0.5,0.7,0.9,0.9c0.4,0.2,0.8,0.4,1.4,0.4c0.8,0,1.5-0.2,1.9-0.7
		c0.4-0.5,0.7-1.1,0.8-1.9h3.3c-0.2,1.7-0.9,2.9-1.9,3.8c-1.1,0.9-2.4,1.3-4.1,1.3c-0.9,0-1.8-0.2-2.6-0.5c-0.8-0.3-1.5-0.8-2-1.3
		c-0.6-0.6-1-1.2-1.3-2c-0.3-0.8-0.5-1.7-0.5-2.6c0-1,0.1-1.9,0.4-2.7c0.3-0.8,0.7-1.6,1.3-2.2s1.2-1.1,2-1.4
		c0.8-0.3,1.7-0.5,2.7-0.5c0.7,0,1.5,0.1,2.2,0.3c0.7,0.2,1.3,0.5,1.9,0.9c0.5,0.4,1,0.9,1.3,1.5s0.5,1.3,0.6,2.1H215
		C214.8,114.2,213.9,113.5,212.4,113.5z"/>
	<path fill="#231F20" d="M227.1,111.2v2.3h-2.5v6.2c0,0.6,0.1,1,0.3,1.2c0.2,0.2,0.6,0.3,1.2,0.3c0.2,0,0.4,0,0.6,0s0.3,0,0.5-0.1
		v2.7c-0.3,0-0.6,0.1-1,0.1c-0.4,0-0.7,0-1,0c-0.5,0-1,0-1.5-0.1c-0.5-0.1-0.9-0.2-1.3-0.4c-0.4-0.2-0.7-0.5-0.9-0.9
		s-0.3-0.9-0.3-1.5v-7.4H219v-2.3h2.1v-3.8h3.5v3.8H227.1z"/>
	<path fill="#231F20" d="M232.2,120.8c0.5,0.5,1.3,0.8,2.2,0.8c0.7,0,1.3-0.2,1.8-0.5c0.5-0.3,0.8-0.7,0.9-1.1h3
		c-0.5,1.5-1.2,2.6-2.2,3.2c-1,0.6-2.2,1-3.7,1c-1,0-1.9-0.2-2.7-0.5c-0.8-0.3-1.5-0.8-2-1.4c-0.6-0.6-1-1.3-1.3-2.1
		c-0.3-0.8-0.5-1.7-0.5-2.7c0-0.9,0.2-1.8,0.5-2.6s0.7-1.5,1.3-2.1c0.6-0.6,1.2-1.1,2-1.4c0.8-0.3,1.7-0.5,2.6-0.5
		c1.1,0,2,0.2,2.8,0.6s1.5,1,2,1.7c0.5,0.7,0.9,1.5,1.1,2.4s0.3,1.8,0.2,2.8h-9.1C231.4,119.5,231.7,120.3,232.2,120.8z
		 M236.2,114.2c-0.4-0.5-1-0.7-1.9-0.7c-0.6,0-1,0.1-1.4,0.3c-0.4,0.2-0.7,0.4-0.9,0.7c-0.2,0.3-0.4,0.6-0.5,0.9
		c-0.1,0.3-0.1,0.6-0.2,0.8h5.6C236.9,115.3,236.6,114.6,236.2,114.2z"/>
	<path fill="#231F20" d="M251.2,122.2c-0.4,0.7-0.9,1.2-1.6,1.5c-0.7,0.3-1.4,0.5-2.2,0.5c-0.9,0-1.8-0.2-2.5-0.5s-1.3-0.9-1.8-1.5
		c-0.5-0.6-0.8-1.3-1-2.2s-0.4-1.7-0.4-2.5c0-0.8,0.1-1.7,0.4-2.4c0.2-0.8,0.6-1.5,1-2.1c0.5-0.6,1-1.1,1.7-1.4
		c0.7-0.4,1.5-0.5,2.4-0.5c0.7,0,1.5,0.2,2.1,0.5c0.7,0.3,1.2,0.8,1.6,1.4h0v-6.3h3.5v17.4h-3.3L251.2,122.2L251.2,122.2z
		 M251.1,116c-0.1-0.5-0.3-0.9-0.5-1.3c-0.2-0.4-0.5-0.7-0.9-0.9c-0.4-0.2-0.8-0.3-1.4-0.3s-1,0.1-1.4,0.3c-0.4,0.2-0.7,0.5-0.9,0.9
		c-0.2,0.4-0.4,0.8-0.5,1.3c-0.1,0.5-0.2,1-0.2,1.5c0,0.5,0.1,1,0.2,1.5c0.1,0.5,0.3,0.9,0.5,1.3c0.3,0.4,0.6,0.7,1,0.9
		s0.8,0.4,1.4,0.4c0.6,0,1-0.1,1.4-0.3c0.4-0.2,0.7-0.5,0.9-0.9c0.2-0.4,0.4-0.8,0.5-1.3s0.1-1,0.1-1.5
		C251.2,117,251.2,116.5,251.1,116z"/>
</g>
<g>
	<path fill="#231F20" d="M80.7,135.6v1.7h0c0.5-0.6,1-1.2,1.6-1.5c0.6-0.4,1.4-0.5,2.2-0.5c0.8,0,1.5,0.2,2.2,0.5
		c0.7,0.3,1.2,0.9,1.5,1.6c0.4-0.6,0.9-1,1.5-1.5c0.6-0.4,1.4-0.6,2.3-0.6c0.7,0,1.3,0.1,1.9,0.2c0.6,0.2,1.1,0.4,1.5,0.8
		c0.4,0.4,0.7,0.8,1,1.4c0.2,0.6,0.3,1.3,0.3,2.1v8.4h-3.5V141c0-0.4,0-0.8,0-1.2c0-0.4-0.1-0.7-0.3-1c-0.1-0.3-0.4-0.5-0.6-0.7
		s-0.7-0.2-1.2-0.2c-0.5,0-0.9,0.1-1.2,0.3c-0.3,0.2-0.5,0.4-0.7,0.7c-0.2,0.3-0.3,0.6-0.3,1c-0.1,0.4-0.1,0.8-0.1,1.2v7h-3.5v-7.1
		c0-0.4,0-0.7,0-1.1c0-0.4-0.1-0.7-0.2-1c-0.1-0.3-0.3-0.6-0.6-0.7c-0.3-0.2-0.7-0.3-1.3-0.3c-0.2,0-0.4,0-0.6,0.1
		c-0.3,0.1-0.5,0.2-0.8,0.4c-0.3,0.2-0.5,0.5-0.6,0.9c-0.2,0.4-0.3,0.9-0.3,1.5v7.3h-3.5v-12.6H80.7z"/>
	<path fill="#231F20" d="M102.9,145.2c0.5,0.5,1.3,0.8,2.2,0.8c0.7,0,1.3-0.2,1.8-0.5c0.5-0.3,0.8-0.7,0.9-1.1h3
		c-0.5,1.5-1.2,2.6-2.2,3.2c-1,0.7-2.2,1-3.7,1c-1,0-1.9-0.2-2.7-0.5c-0.8-0.3-1.5-0.8-2-1.4c-0.6-0.6-1-1.3-1.3-2.1
		c-0.3-0.8-0.5-1.7-0.5-2.7c0-0.9,0.2-1.8,0.5-2.6c0.3-0.8,0.7-1.5,1.3-2.1c0.6-0.6,1.2-1.1,2-1.4s1.7-0.5,2.6-0.5
		c1.1,0,2,0.2,2.8,0.6c0.8,0.4,1.4,1,2,1.7s0.9,1.5,1.1,2.4c0.2,0.9,0.3,1.8,0.2,2.8H102C102.1,143.8,102.4,144.6,102.9,145.2z
		 M106.8,138.5c-0.4-0.5-1-0.7-1.9-0.7c-0.6,0-1,0.1-1.4,0.3c-0.4,0.2-0.7,0.4-0.9,0.7c-0.2,0.3-0.4,0.6-0.5,0.9
		c-0.1,0.3-0.1,0.6-0.2,0.8h5.6C107.5,139.6,107.2,139,106.8,138.5z"/>
	<path fill="#231F20" d="M121.9,146.6c-0.4,0.7-0.9,1.2-1.6,1.5c-0.7,0.3-1.4,0.5-2.2,0.5c-0.9,0-1.8-0.2-2.5-0.5
		c-0.7-0.4-1.3-0.9-1.8-1.5c-0.5-0.6-0.8-1.3-1-2.2c-0.2-0.8-0.4-1.7-0.4-2.5c0-0.8,0.1-1.7,0.4-2.4c0.2-0.8,0.6-1.5,1-2.1
		s1-1.1,1.7-1.4c0.7-0.4,1.5-0.5,2.4-0.5c0.7,0,1.5,0.2,2.1,0.5s1.2,0.8,1.6,1.4h0v-6.3h3.5v17.4h-3.3L121.9,146.6L121.9,146.6z
		 M121.8,140.3c-0.1-0.5-0.3-0.9-0.5-1.3s-0.5-0.7-0.9-0.9s-0.8-0.3-1.4-0.3c-0.6,0-1,0.1-1.4,0.3c-0.4,0.2-0.7,0.5-0.9,0.9
		c-0.2,0.4-0.4,0.8-0.5,1.3c-0.1,0.5-0.2,1-0.2,1.5c0,0.5,0.1,1,0.2,1.5c0.1,0.5,0.3,0.9,0.5,1.3c0.3,0.4,0.6,0.7,1,0.9
		c0.4,0.2,0.8,0.4,1.4,0.4c0.6,0,1-0.1,1.4-0.3s0.7-0.5,0.9-0.9c0.2-0.4,0.4-0.8,0.5-1.3s0.1-1,0.1-1.5
		C121.9,141.3,121.9,140.8,121.8,140.3z"/>
	<path fill="#231F20" d="M127.7,133.6v-2.8h3.5v2.8H127.7z M131.2,135.6v12.6h-3.5v-12.6H131.2z"/>
	<path fill="#231F20" d="M139.7,137.8c-0.6,0-1,0.1-1.4,0.4c-0.4,0.3-0.7,0.6-0.9,1c-0.2,0.4-0.4,0.8-0.5,1.3
		c-0.1,0.5-0.1,1-0.1,1.4c0,0.5,0,0.9,0.1,1.4c0.1,0.5,0.3,0.9,0.5,1.3s0.5,0.7,0.9,0.9s0.8,0.4,1.4,0.4c0.8,0,1.5-0.2,1.9-0.7
		s0.7-1.1,0.8-1.9h3.3c-0.2,1.7-0.9,2.9-1.9,3.8s-2.4,1.3-4.1,1.3c-0.9,0-1.8-0.2-2.6-0.5c-0.8-0.3-1.5-0.8-2-1.3
		c-0.6-0.6-1-1.2-1.3-2c-0.3-0.8-0.5-1.7-0.5-2.6c0-1,0.1-1.9,0.4-2.7c0.3-0.8,0.7-1.6,1.3-2.2c0.6-0.6,1.2-1.1,2-1.4
		c0.8-0.3,1.7-0.5,2.7-0.5c0.7,0,1.5,0.1,2.2,0.3c0.7,0.2,1.3,0.5,1.9,0.9c0.5,0.4,1,0.9,1.3,1.5c0.3,0.6,0.5,1.3,0.6,2.1h-3.4
		C142,138.6,141.2,137.8,139.7,137.8z"/>
	<path fill="#231F20" d="M147.3,139.5c0-0.8,0.3-1.5,0.6-2c0.4-0.5,0.8-1,1.4-1.3c0.6-0.3,1.2-0.6,1.9-0.7c0.7-0.1,1.4-0.2,2.1-0.2
		c0.6,0,1.3,0,1.9,0.1c0.6,0.1,1.2,0.3,1.8,0.5s1,0.6,1.3,1.1c0.3,0.5,0.5,1.1,0.5,1.8v6.6c0,0.6,0,1.1,0.1,1.6s0.2,0.9,0.3,1.2
		h-3.5c-0.1-0.2-0.1-0.4-0.2-0.6c0-0.2-0.1-0.4-0.1-0.6c-0.6,0.6-1.2,1-1.9,1.2c-0.7,0.2-1.5,0.3-2.3,0.3c-0.6,0-1.2-0.1-1.7-0.2
		c-0.5-0.1-1-0.4-1.4-0.7c-0.4-0.3-0.7-0.7-0.9-1.2c-0.2-0.5-0.3-1-0.3-1.7c0-0.7,0.1-1.3,0.4-1.8c0.3-0.5,0.6-0.8,1-1.1
		c0.4-0.3,0.9-0.5,1.4-0.6c0.5-0.1,1-0.2,1.5-0.3c0.5-0.1,1-0.1,1.5-0.2s1-0.1,1.3-0.2c0.4-0.1,0.7-0.2,0.9-0.4
		c0.2-0.2,0.3-0.5,0.3-0.8c0-0.4-0.1-0.7-0.2-0.9c-0.1-0.2-0.3-0.4-0.5-0.5s-0.4-0.2-0.7-0.2c-0.3,0-0.6-0.1-0.9-0.1
		c-0.7,0-1.2,0.1-1.6,0.4c-0.4,0.3-0.6,0.8-0.7,1.5H147.3z M155.3,142c-0.1,0.1-0.3,0.2-0.5,0.3c-0.2,0.1-0.5,0.1-0.7,0.2
		s-0.5,0.1-0.8,0.1c-0.3,0-0.6,0.1-0.8,0.1c-0.3,0-0.5,0.1-0.8,0.2s-0.5,0.2-0.7,0.3c-0.2,0.1-0.3,0.3-0.5,0.5s-0.2,0.5-0.2,0.8
		c0,0.3,0.1,0.6,0.2,0.8c0.1,0.2,0.3,0.4,0.5,0.5c0.2,0.1,0.4,0.2,0.7,0.3s0.5,0.1,0.8,0.1c0.7,0,1.2-0.1,1.6-0.3
		c0.4-0.2,0.6-0.5,0.8-0.8c0.2-0.3,0.3-0.6,0.3-1c0-0.3,0.1-0.6,0.1-0.8V142z"/>
	<path fill="#231F20" d="M164.7,130.8v17.4h-3.5v-17.4H164.7z"/>
	<path fill="#231F20" d="M179.8,137.8c-0.6,0-1,0.1-1.4,0.4c-0.4,0.3-0.7,0.6-0.9,1c-0.2,0.4-0.4,0.8-0.5,1.3
		c-0.1,0.5-0.1,1-0.1,1.4c0,0.5,0,0.9,0.1,1.4c0.1,0.5,0.3,0.9,0.5,1.3c0.2,0.4,0.5,0.7,0.9,0.9c0.4,0.2,0.8,0.4,1.4,0.4
		c0.8,0,1.5-0.2,1.9-0.7c0.4-0.5,0.7-1.1,0.8-1.9h3.3c-0.2,1.7-0.9,2.9-1.9,3.8c-1.1,0.9-2.4,1.3-4.1,1.3c-0.9,0-1.8-0.2-2.6-0.5
		c-0.8-0.3-1.5-0.8-2-1.3c-0.6-0.6-1-1.2-1.3-2c-0.3-0.8-0.5-1.7-0.5-2.6c0-1,0.1-1.9,0.4-2.7c0.3-0.8,0.7-1.6,1.3-2.2
		c0.6-0.6,1.2-1.1,2-1.4s1.7-0.5,2.7-0.5c0.7,0,1.5,0.1,2.2,0.3c0.7,0.2,1.3,0.5,1.9,0.9c0.5,0.4,1,0.9,1.3,1.5s0.5,1.3,0.6,2.1
		h-3.4C182.1,138.6,181.3,137.8,179.8,137.8z"/>
	<path fill="#231F20" d="M187.6,139.1c0.3-0.8,0.7-1.5,1.3-2.1s1.2-1,2-1.3s1.7-0.5,2.7-0.5s1.9,0.2,2.7,0.5
		c0.8,0.3,1.5,0.8,2.1,1.3s1,1.3,1.3,2.1s0.5,1.7,0.5,2.7c0,1-0.2,1.9-0.5,2.7c-0.3,0.8-0.7,1.5-1.3,2.1s-1.3,1-2.1,1.3
		c-0.8,0.3-1.7,0.5-2.7,0.5s-1.9-0.2-2.7-0.5c-0.8-0.3-1.5-0.8-2-1.3s-1-1.3-1.3-2.1c-0.3-0.8-0.5-1.7-0.5-2.7
		C187.2,140.9,187.3,140,187.6,139.1z M190.8,143.4c0.1,0.5,0.3,0.9,0.5,1.3c0.2,0.4,0.5,0.7,0.9,0.9c0.4,0.2,0.9,0.3,1.5,0.3
		s1.1-0.1,1.5-0.3c0.4-0.2,0.7-0.5,1-0.9c0.2-0.4,0.4-0.8,0.5-1.3c0.1-0.5,0.1-1,0.1-1.5c0-0.5,0-1-0.1-1.5
		c-0.1-0.5-0.3-0.9-0.5-1.3c-0.2-0.4-0.6-0.7-1-0.9c-0.4-0.2-0.9-0.4-1.5-0.4s-1.1,0.1-1.5,0.4c-0.4,0.2-0.7,0.5-0.9,0.9
		c-0.2,0.4-0.4,0.8-0.5,1.3c-0.1,0.5-0.1,1-0.1,1.5C190.6,142.4,190.7,142.9,190.8,143.4z"/>
	<path fill="#231F20" d="M205.1,145c0.2,0.3,0.4,0.5,0.6,0.7c0.2,0.2,0.5,0.3,0.8,0.4c0.3,0.1,0.6,0.1,1,0.1c0.2,0,0.5,0,0.8-0.1
		c0.3-0.1,0.5-0.1,0.7-0.3c0.2-0.1,0.4-0.3,0.5-0.5c0.1-0.2,0.2-0.5,0.2-0.8c0-0.5-0.3-0.9-1-1.2c-0.7-0.3-1.7-0.5-2.9-0.8
		c-0.5-0.1-1-0.2-1.5-0.4c-0.5-0.2-0.9-0.4-1.3-0.6c-0.4-0.3-0.7-0.6-0.9-0.9c-0.2-0.4-0.3-0.8-0.3-1.4c0-0.8,0.2-1.5,0.5-2
		s0.7-0.9,1.3-1.2c0.5-0.3,1.1-0.5,1.8-0.6c0.6-0.1,1.3-0.2,2-0.2c0.7,0,1.3,0.1,2,0.2s1.2,0.3,1.7,0.7c0.5,0.3,0.9,0.7,1.3,1.2
		c0.3,0.5,0.5,1.2,0.6,1.9h-3.3c0-0.7-0.3-1.1-0.8-1.4c-0.5-0.2-1-0.4-1.6-0.4c-0.2,0-0.4,0-0.6,0c-0.2,0-0.4,0.1-0.6,0.2
		c-0.2,0.1-0.3,0.2-0.5,0.4c-0.1,0.2-0.2,0.4-0.2,0.6c0,0.3,0.1,0.6,0.3,0.8c0.2,0.2,0.5,0.4,0.9,0.5c0.4,0.1,0.8,0.2,1.3,0.3
		s1,0.2,1.4,0.3c0.5,0.1,1,0.3,1.5,0.4c0.5,0.2,0.9,0.4,1.3,0.6c0.4,0.3,0.7,0.6,0.9,1c0.2,0.4,0.3,0.9,0.3,1.5
		c0,0.8-0.2,1.5-0.5,2.1c-0.3,0.6-0.8,1-1.3,1.4c-0.5,0.3-1.1,0.6-1.8,0.7c-0.7,0.1-1.4,0.2-2.1,0.2c-0.7,0-1.4-0.1-2.1-0.2
		c-0.7-0.1-1.3-0.4-1.9-0.7c-0.5-0.3-1-0.8-1.3-1.4c-0.3-0.6-0.5-1.3-0.6-2.1h3.3C204.9,144.5,204.9,144.8,205.1,145z"/>
	<path fill="#231F20" d="M222,135.6v2.3h-2.5v6.2c0,0.6,0.1,1,0.3,1.2c0.2,0.2,0.6,0.3,1.2,0.3c0.2,0,0.4,0,0.6,0
		c0.2,0,0.3,0,0.5-0.1v2.7c-0.3,0-0.6,0.1-1,0.1c-0.4,0-0.7,0-1,0c-0.5,0-1,0-1.5-0.1c-0.5-0.1-0.9-0.2-1.3-0.4s-0.7-0.5-0.9-0.9
		s-0.3-0.9-0.3-1.5v-7.4h-2.1v-2.3h2.1v-3.8h3.5v3.8H222z"/>
	<path fill="#231F20" d="M226.3,145c0.2,0.3,0.4,0.5,0.6,0.7c0.2,0.2,0.5,0.3,0.8,0.4c0.3,0.1,0.6,0.1,1,0.1c0.2,0,0.5,0,0.8-0.1
		c0.3-0.1,0.5-0.1,0.7-0.3c0.2-0.1,0.4-0.3,0.5-0.5c0.1-0.2,0.2-0.5,0.2-0.8c0-0.5-0.3-0.9-1-1.2c-0.7-0.3-1.7-0.5-2.9-0.8
		c-0.5-0.1-1-0.2-1.5-0.4c-0.5-0.2-0.9-0.4-1.3-0.6c-0.4-0.3-0.7-0.6-0.9-0.9c-0.2-0.4-0.3-0.8-0.3-1.4c0-0.8,0.2-1.5,0.5-2
		s0.7-0.9,1.3-1.2c0.5-0.3,1.1-0.5,1.8-0.6c0.6-0.1,1.3-0.2,2-0.2c0.7,0,1.3,0.1,2,0.2s1.2,0.3,1.7,0.7c0.5,0.3,0.9,0.7,1.3,1.2
		c0.3,0.5,0.5,1.2,0.6,1.9h-3.3c0-0.7-0.3-1.1-0.8-1.4c-0.5-0.2-1-0.4-1.6-0.4c-0.2,0-0.4,0-0.6,0c-0.2,0-0.4,0.1-0.6,0.2
		c-0.2,0.1-0.3,0.2-0.5,0.4c-0.1,0.2-0.2,0.4-0.2,0.6c0,0.3,0.1,0.6,0.3,0.8c0.2,0.2,0.5,0.4,0.9,0.5c0.4,0.1,0.8,0.2,1.3,0.3
		s1,0.2,1.4,0.3c0.5,0.1,1,0.3,1.5,0.4c0.5,0.2,0.9,0.4,1.3,0.6c0.4,0.3,0.7,0.6,0.9,1c0.2,0.4,0.3,0.9,0.3,1.5
		c0,0.8-0.2,1.5-0.5,2.1c-0.3,0.6-0.8,1-1.3,1.4c-0.5,0.3-1.1,0.6-1.8,0.7c-0.7,0.1-1.4,0.2-2.1,0.2c-0.7,0-1.4-0.1-2.1-0.2
		c-0.7-0.1-1.3-0.4-1.9-0.7c-0.5-0.3-1-0.8-1.3-1.4c-0.3-0.6-0.5-1.3-0.6-2.1h3.3C226.1,144.5,226.2,144.8,226.3,145z"/>
	<path fill="#231F20" d="M240.2,144.4v3.8h-3.8v-3.8H240.2z"/>
</g>
</svg>
