<?xml version="1.0" encoding="utf-8"?>
<!-- Generator: Adobe Illustrator 26.5.0, SVG Export Plug-In . SVG Version: 6.00 Build 0)  -->
<svg version="1.1" baseProfile="tiny" id="Layer_1" xmlns="http://www.w3.org/2000/svg" xmlns:xlink="http://www.w3.org/1999/xlink"
	 x="0px" y="0px" viewBox="0 0 300 250" overflow="visible" xml:space="preserve">
<g>
	<path fill="#231F20" d="M82.9,93.6c-0.2-0.4-0.5-0.7-0.9-1c-0.3-0.3-0.7-0.5-1.2-0.6c-0.4-0.2-0.9-0.2-1.4-0.2
		c-0.9,0-1.6,0.2-2.2,0.5c-0.6,0.3-1.1,0.8-1.5,1.3c-0.4,0.6-0.6,1.2-0.8,1.9c-0.2,0.7-0.3,1.5-0.3,2.2c0,0.7,0.1,1.4,0.3,2.1
		s0.4,1.3,0.8,1.9c0.4,0.6,0.9,1,1.5,1.3c0.6,0.3,1.3,0.5,2.2,0.5c1.2,0,2.1-0.4,2.7-1.1s1.1-1.7,1.2-2.8h3.7
		c-0.1,1.1-0.3,2.1-0.8,2.9c-0.4,0.9-0.9,1.6-1.6,2.2c-0.7,0.6-1.4,1.1-2.3,1.4c-0.9,0.3-1.9,0.5-2.9,0.5c-1.3,0-2.5-0.2-3.6-0.7
		s-2-1.1-2.7-1.9c-0.7-0.8-1.3-1.8-1.7-2.9S71,99,71,97.8c0-1.3,0.2-2.5,0.6-3.6s1-2.1,1.7-2.9c0.7-0.8,1.6-1.5,2.7-1.9
		s2.3-0.7,3.6-0.7c1,0,1.9,0.1,2.7,0.4c0.9,0.3,1.6,0.7,2.3,1.2s1.2,1.2,1.7,2c0.4,0.8,0.7,1.7,0.8,2.7h-3.7
		C83.3,94.4,83.1,94,82.9,93.6z"/>
	<path fill="#231F20" d="M92.5,93.8v2.3h0c0.2-0.4,0.4-0.8,0.7-1.1c0.3-0.3,0.6-0.6,1-0.9c0.4-0.2,0.7-0.4,1.1-0.5
		c0.4-0.1,0.8-0.2,1.3-0.2c0.2,0,0.5,0,0.8,0.1v3.2c-0.2,0-0.4-0.1-0.6-0.1c-0.2,0-0.4,0-0.7,0c-0.6,0-1.2,0.1-1.6,0.3
		s-0.8,0.5-1.1,0.9c-0.3,0.4-0.5,0.8-0.6,1.3c-0.1,0.5-0.2,1-0.2,1.6v5.7h-3.5V93.8H92.5z"/>
	<path fill="#231F20" d="M98.5,91.8V89h3.5v2.9H98.5z M102,93.8v12.6h-3.5V93.8H102z"/>
	<path fill="#231F20" d="M111.4,93.8v2.3h-2.5v6.2c0,0.6,0.1,1,0.3,1.2s0.6,0.3,1.2,0.3c0.2,0,0.4,0,0.6,0c0.2,0,0.3,0,0.5-0.1v2.7
		c-0.3,0-0.6,0.1-1,0.1c-0.4,0-0.7,0-1,0c-0.5,0-1,0-1.5-0.1c-0.5-0.1-0.9-0.2-1.3-0.4c-0.4-0.2-0.7-0.5-0.9-0.9s-0.3-0.9-0.3-1.5
		v-7.4h-2.1v-2.3h2.1V90h3.5v3.8H111.4z"/>
	<path fill="#231F20" d="M112.9,91.8V89h3.5v2.9H112.9z M116.4,93.8v12.6h-3.5V93.8H116.4z"/>
	<path fill="#231F20" d="M124.9,96.1c-0.6,0-1,0.1-1.4,0.4c-0.4,0.3-0.7,0.6-0.9,1s-0.4,0.8-0.5,1.3c-0.1,0.5-0.1,1-0.1,1.4
		c0,0.5,0,0.9,0.1,1.4c0.1,0.5,0.3,0.9,0.5,1.3c0.2,0.4,0.5,0.7,0.9,0.9s0.8,0.4,1.4,0.4c0.8,0,1.5-0.2,1.9-0.7
		c0.4-0.5,0.7-1.1,0.8-1.9h3.3c-0.2,1.7-0.9,2.9-1.9,3.8s-2.4,1.3-4.1,1.3c-0.9,0-1.8-0.2-2.6-0.5c-0.8-0.3-1.5-0.8-2-1.3
		c-0.6-0.6-1-1.2-1.3-2c-0.3-0.8-0.5-1.7-0.5-2.6c0-1,0.1-1.9,0.4-2.7c0.3-0.8,0.7-1.6,1.3-2.2c0.6-0.6,1.2-1.1,2-1.4
		c0.8-0.3,1.7-0.5,2.7-0.5c0.7,0,1.5,0.1,2.2,0.3c0.7,0.2,1.3,0.5,1.9,0.9c0.5,0.4,1,0.9,1.3,1.5c0.3,0.6,0.5,1.3,0.6,2.1h-3.4
		C127.3,96.8,126.4,96.1,124.9,96.1z"/>
	<path fill="#231F20" d="M132.5,97.7c0-0.8,0.3-1.5,0.6-2c0.4-0.5,0.8-1,1.4-1.3c0.6-0.3,1.2-0.6,1.9-0.7c0.7-0.1,1.4-0.2,2.1-0.2
		c0.6,0,1.3,0,1.9,0.1c0.6,0.1,1.2,0.3,1.8,0.5c0.5,0.3,1,0.6,1.3,1.1c0.3,0.5,0.5,1.1,0.5,1.8v6.6c0,0.6,0,1.1,0.1,1.6
		c0.1,0.5,0.2,0.9,0.3,1.2h-3.5c-0.1-0.2-0.1-0.4-0.2-0.6s-0.1-0.4-0.1-0.6c-0.6,0.6-1.2,1-1.9,1.2c-0.7,0.2-1.5,0.3-2.3,0.3
		c-0.6,0-1.2-0.1-1.7-0.2c-0.5-0.1-1-0.4-1.4-0.7s-0.7-0.7-0.9-1.2c-0.2-0.5-0.3-1-0.3-1.7c0-0.7,0.1-1.3,0.4-1.8
		c0.3-0.5,0.6-0.8,1-1.1c0.4-0.3,0.9-0.5,1.4-0.6c0.5-0.1,1-0.2,1.5-0.3c0.5-0.1,1-0.1,1.5-0.2s1-0.1,1.3-0.2
		c0.4-0.1,0.7-0.2,0.9-0.4c0.2-0.2,0.3-0.5,0.3-0.8c0-0.4-0.1-0.7-0.2-0.9c-0.1-0.2-0.3-0.4-0.5-0.5c-0.2-0.1-0.4-0.2-0.7-0.2
		c-0.3,0-0.6-0.1-0.9-0.1c-0.7,0-1.2,0.1-1.6,0.4c-0.4,0.3-0.6,0.8-0.7,1.5H132.5z M140.5,100.2c-0.1,0.1-0.3,0.2-0.5,0.3
		c-0.2,0.1-0.5,0.1-0.7,0.2c-0.3,0-0.5,0.1-0.8,0.1c-0.3,0-0.6,0.1-0.8,0.1c-0.3,0-0.5,0.1-0.8,0.2c-0.3,0.1-0.5,0.2-0.7,0.3
		c-0.2,0.1-0.3,0.3-0.5,0.5c-0.1,0.2-0.2,0.5-0.2,0.8c0,0.3,0.1,0.6,0.2,0.8c0.1,0.2,0.3,0.4,0.5,0.5c0.2,0.1,0.4,0.2,0.7,0.3
		c0.3,0,0.5,0.1,0.8,0.1c0.7,0,1.2-0.1,1.6-0.3c0.4-0.2,0.6-0.5,0.8-0.8c0.2-0.3,0.3-0.6,0.3-1c0-0.3,0.1-0.6,0.1-0.8V100.2z"/>
	<path fill="#231F20" d="M150,89v17.4h-3.5V89H150z"/>
	<path fill="#231F20" d="M163.2,89v17.4h-3.8V89H163.2z"/>
	<path fill="#231F20" d="M169.5,89v17.4h-3.5V89H169.5z"/>
	<path fill="#231F20" d="M175.6,89v17.4h-3.5V89H175.6z"/>
	<path fill="#231F20" d="M181.3,93.8v1.8h0.1c0.4-0.7,1-1.3,1.7-1.6s1.4-0.5,2.1-0.5c0.9,0,1.7,0.1,2.3,0.4c0.6,0.3,1.1,0.6,1.4,1
		c0.3,0.4,0.6,1,0.7,1.6s0.2,1.4,0.2,2.1v7.7h-3.5v-7.1c0-1-0.2-1.8-0.5-2.3s-0.9-0.8-1.7-0.8c-0.9,0-1.6,0.3-2,0.8
		c-0.4,0.6-0.6,1.5-0.6,2.8v6.6h-3.5V93.8H181.3z"/>
	<path fill="#231F20" d="M196,103.4c0.5,0.5,1.3,0.8,2.2,0.8c0.7,0,1.3-0.2,1.8-0.5c0.5-0.3,0.8-0.7,0.9-1.1h3
		c-0.5,1.5-1.2,2.6-2.2,3.2c-1,0.6-2.2,1-3.7,1c-1,0-1.9-0.2-2.7-0.5c-0.8-0.3-1.5-0.8-2-1.4c-0.6-0.6-1-1.3-1.3-2.1
		c-0.3-0.8-0.5-1.7-0.5-2.7c0-0.9,0.2-1.8,0.5-2.6s0.7-1.5,1.3-2.1c0.6-0.6,1.2-1.1,2-1.4c0.8-0.3,1.7-0.5,2.6-0.5
		c1.1,0,2,0.2,2.8,0.6s1.5,1,2,1.7c0.5,0.7,0.9,1.5,1.1,2.4s0.3,1.8,0.2,2.8h-9.1C195.2,102.1,195.5,102.9,196,103.4z M199.9,96.7
		c-0.4-0.5-1-0.7-1.9-0.7c-0.6,0-1,0.1-1.4,0.3c-0.4,0.2-0.7,0.4-0.9,0.7c-0.2,0.3-0.4,0.6-0.5,0.9c-0.1,0.3-0.1,0.6-0.2,0.8h5.6
		C200.6,97.9,200.3,97.2,199.9,96.7z"/>
	<path fill="#231F20" d="M209,103.3c0.2,0.3,0.4,0.5,0.6,0.7s0.5,0.3,0.8,0.4c0.3,0.1,0.6,0.1,1,0.1c0.2,0,0.5,0,0.8-0.1
		c0.3-0.1,0.5-0.1,0.7-0.3c0.2-0.1,0.4-0.3,0.5-0.5c0.1-0.2,0.2-0.5,0.2-0.8c0-0.5-0.3-0.9-1-1.2c-0.7-0.3-1.7-0.5-2.9-0.8
		c-0.5-0.1-1-0.2-1.5-0.4c-0.5-0.2-0.9-0.4-1.3-0.6c-0.4-0.3-0.7-0.6-0.9-1c-0.2-0.4-0.3-0.8-0.3-1.4c0-0.8,0.2-1.5,0.5-2
		c0.3-0.5,0.7-0.9,1.3-1.2c0.5-0.3,1.1-0.5,1.8-0.6c0.6-0.1,1.3-0.2,2-0.2c0.7,0,1.3,0.1,2,0.2c0.6,0.1,1.2,0.3,1.7,0.7
		c0.5,0.3,0.9,0.7,1.3,1.2c0.3,0.5,0.5,1.2,0.6,1.9h-3.3c0-0.7-0.3-1.1-0.8-1.4c-0.5-0.2-1-0.4-1.6-0.4c-0.2,0-0.4,0-0.6,0
		s-0.4,0.1-0.6,0.2c-0.2,0.1-0.3,0.2-0.5,0.4s-0.2,0.4-0.2,0.6c0,0.3,0.1,0.6,0.3,0.8c0.2,0.2,0.5,0.4,0.9,0.5
		c0.4,0.1,0.8,0.2,1.3,0.3c0.5,0.1,1,0.2,1.4,0.3c0.5,0.1,1,0.3,1.5,0.4c0.5,0.2,0.9,0.4,1.3,0.6c0.4,0.3,0.7,0.6,0.9,1
		c0.2,0.4,0.3,0.9,0.3,1.5c0,0.8-0.2,1.5-0.5,2.1c-0.3,0.6-0.8,1-1.3,1.4c-0.5,0.3-1.1,0.6-1.8,0.7c-0.7,0.1-1.4,0.2-2.1,0.2
		c-0.7,0-1.4-0.1-2.1-0.2c-0.7-0.1-1.3-0.4-1.9-0.7c-0.5-0.3-1-0.8-1.3-1.4c-0.3-0.6-0.5-1.3-0.6-2.1h3.3
		C208.7,102.7,208.8,103,209,103.3z"/>
	<path fill="#231F20" d="M221.8,103.3c0.2,0.3,0.4,0.5,0.6,0.7s0.5,0.3,0.8,0.4c0.3,0.1,0.6,0.1,1,0.1c0.2,0,0.5,0,0.8-0.1
		c0.3-0.1,0.5-0.1,0.7-0.3c0.2-0.1,0.4-0.3,0.5-0.5c0.1-0.2,0.2-0.5,0.2-0.8c0-0.5-0.3-0.9-1-1.2c-0.7-0.3-1.7-0.5-2.9-0.8
		c-0.5-0.1-1-0.2-1.5-0.4c-0.5-0.2-0.9-0.4-1.3-0.6c-0.4-0.3-0.7-0.6-0.9-1c-0.2-0.4-0.3-0.8-0.3-1.4c0-0.8,0.2-1.5,0.5-2
		c0.3-0.5,0.7-0.9,1.3-1.2c0.5-0.3,1.1-0.5,1.8-0.6c0.6-0.1,1.3-0.2,2-0.2c0.7,0,1.3,0.1,2,0.2c0.6,0.1,1.2,0.3,1.7,0.7
		c0.5,0.3,0.9,0.7,1.3,1.2c0.3,0.5,0.5,1.2,0.6,1.9h-3.3c0-0.7-0.3-1.1-0.8-1.4c-0.5-0.2-1-0.4-1.6-0.4c-0.2,0-0.4,0-0.6,0
		s-0.4,0.1-0.6,0.2c-0.2,0.1-0.3,0.2-0.5,0.4s-0.2,0.4-0.2,0.6c0,0.3,0.1,0.6,0.3,0.8c0.2,0.2,0.5,0.4,0.9,0.5
		c0.4,0.1,0.8,0.2,1.3,0.3c0.5,0.1,1,0.2,1.4,0.3c0.5,0.1,1,0.3,1.5,0.4c0.5,0.2,0.9,0.4,1.3,0.6c0.4,0.3,0.7,0.6,0.9,1
		c0.2,0.4,0.3,0.9,0.3,1.5c0,0.8-0.2,1.5-0.5,2.1c-0.3,0.6-0.8,1-1.3,1.4c-0.5,0.3-1.1,0.6-1.8,0.7c-0.7,0.1-1.4,0.2-2.1,0.2
		c-0.7,0-1.4-0.1-2.1-0.2c-0.7-0.1-1.3-0.4-1.9-0.7c-0.5-0.3-1-0.8-1.3-1.4c-0.3-0.6-0.5-1.3-0.6-2.1h3.3
		C221.6,102.7,221.7,103,221.8,103.3z"/>
</g>
<g>
	<path fill="#231F20" d="M99.2,113.4v17.4h-3.8v-17.4H99.2z"/>
	<path fill="#231F20" d="M105.3,118.2v1.8h0.1c0.4-0.7,1-1.3,1.7-1.6s1.4-0.5,2.1-0.5c0.9,0,1.7,0.1,2.3,0.4c0.6,0.3,1.1,0.6,1.4,1
		c0.3,0.4,0.6,1,0.7,1.6c0.1,0.6,0.2,1.4,0.2,2.1v7.7h-3.5v-7.1c0-1-0.2-1.8-0.5-2.3s-0.9-0.8-1.7-0.8c-0.9,0-1.6,0.3-2,0.8
		c-0.4,0.6-0.6,1.5-0.6,2.8v6.6H102v-12.6H105.3z"/>
	<path fill="#231F20" d="M119.1,127.6c0.2,0.3,0.4,0.5,0.6,0.7c0.2,0.2,0.5,0.3,0.8,0.4c0.3,0.1,0.6,0.1,1,0.1c0.2,0,0.5,0,0.8-0.1
		c0.3-0.1,0.5-0.1,0.7-0.3s0.4-0.3,0.5-0.5c0.1-0.2,0.2-0.5,0.2-0.8c0-0.5-0.3-0.9-1-1.2c-0.7-0.3-1.7-0.5-2.9-0.8
		c-0.5-0.1-1-0.2-1.5-0.4s-0.9-0.4-1.3-0.6c-0.4-0.3-0.7-0.6-0.9-1c-0.2-0.4-0.3-0.8-0.3-1.4c0-0.8,0.2-1.5,0.5-2
		c0.3-0.5,0.7-0.9,1.3-1.2c0.5-0.3,1.1-0.5,1.8-0.6c0.6-0.1,1.3-0.2,2-0.2c0.7,0,1.3,0.1,2,0.2c0.6,0.1,1.2,0.3,1.7,0.7
		c0.5,0.3,0.9,0.7,1.3,1.2c0.3,0.5,0.5,1.2,0.6,1.9h-3.3c0-0.7-0.3-1.1-0.8-1.4c-0.5-0.2-1-0.4-1.6-0.4c-0.2,0-0.4,0-0.6,0
		c-0.2,0-0.4,0.1-0.6,0.2c-0.2,0.1-0.3,0.2-0.5,0.4c-0.1,0.2-0.2,0.4-0.2,0.6c0,0.3,0.1,0.6,0.3,0.8c0.2,0.2,0.5,0.4,0.9,0.5
		c0.4,0.1,0.8,0.2,1.3,0.3c0.5,0.1,1,0.2,1.4,0.3c0.5,0.1,1,0.3,1.5,0.4c0.5,0.2,0.9,0.4,1.3,0.6c0.4,0.3,0.7,0.6,0.9,1
		s0.3,0.9,0.3,1.5c0,0.8-0.2,1.5-0.5,2.1c-0.3,0.6-0.8,1-1.3,1.4c-0.5,0.3-1.1,0.6-1.8,0.7s-1.4,0.2-2.1,0.2c-0.7,0-1.4-0.1-2.1-0.2
		c-0.7-0.1-1.3-0.4-1.9-0.7c-0.5-0.3-1-0.8-1.3-1.4s-0.5-1.3-0.6-2.1h3.3C118.9,127,119,127.4,119.1,127.6z"/>
	<path fill="#231F20" d="M137.6,130.8V129h-0.1c-0.4,0.7-1,1.3-1.7,1.6c-0.7,0.3-1.4,0.5-2.1,0.5c-0.9,0-1.7-0.1-2.3-0.4
		c-0.6-0.2-1.1-0.6-1.4-1c-0.3-0.4-0.6-1-0.7-1.6c-0.1-0.6-0.2-1.4-0.2-2.1v-7.7h3.5v7.1c0,1,0.2,1.8,0.5,2.3
		c0.3,0.5,0.9,0.8,1.7,0.8c0.9,0,1.6-0.3,2-0.8c0.4-0.6,0.6-1.5,0.6-2.8v-6.6h3.5v12.6H137.6z"/>
	<path fill="#231F20" d="M146.6,118.2v2.3h0c0.2-0.4,0.4-0.8,0.7-1.1s0.6-0.6,1-0.9c0.4-0.2,0.7-0.4,1.1-0.5
		c0.4-0.1,0.8-0.2,1.3-0.2c0.2,0,0.5,0,0.8,0.1v3.2c-0.2,0-0.4-0.1-0.6-0.1c-0.2,0-0.4,0-0.7,0c-0.6,0-1.2,0.1-1.6,0.3
		s-0.8,0.5-1.1,0.9c-0.3,0.4-0.5,0.8-0.6,1.3c-0.1,0.5-0.2,1-0.2,1.6v5.7h-3.5v-12.6H146.6z"/>
	<path fill="#231F20" d="M152.4,122c0-0.8,0.3-1.5,0.6-2c0.4-0.5,0.8-1,1.4-1.3c0.6-0.3,1.2-0.6,1.9-0.7c0.7-0.1,1.4-0.2,2.1-0.2
		c0.6,0,1.3,0,1.9,0.1c0.6,0.1,1.2,0.3,1.8,0.5c0.5,0.3,1,0.6,1.3,1.1c0.3,0.5,0.5,1.1,0.5,1.8v6.6c0,0.6,0,1.1,0.1,1.6
		c0.1,0.5,0.2,0.9,0.3,1.2h-3.5c-0.1-0.2-0.1-0.4-0.2-0.6c0-0.2-0.1-0.4-0.1-0.6c-0.6,0.6-1.2,1-1.9,1.2s-1.5,0.3-2.3,0.3
		c-0.6,0-1.2-0.1-1.7-0.2c-0.5-0.1-1-0.4-1.4-0.7c-0.4-0.3-0.7-0.7-0.9-1.2c-0.2-0.5-0.3-1-0.3-1.7c0-0.7,0.1-1.3,0.4-1.8
		s0.6-0.8,1-1.1c0.4-0.3,0.9-0.5,1.4-0.6c0.5-0.1,1-0.2,1.5-0.3c0.5-0.1,1-0.1,1.5-0.2c0.5,0,1-0.1,1.3-0.2c0.4-0.1,0.7-0.2,0.9-0.4
		c0.2-0.2,0.3-0.5,0.3-0.8c0-0.4-0.1-0.7-0.2-0.9s-0.3-0.4-0.5-0.5c-0.2-0.1-0.4-0.2-0.7-0.2c-0.3,0-0.6-0.1-0.9-0.1
		c-0.7,0-1.2,0.1-1.6,0.4c-0.4,0.3-0.6,0.8-0.7,1.5H152.4z M160.4,124.6c-0.1,0.1-0.3,0.2-0.5,0.3c-0.2,0.1-0.5,0.1-0.7,0.2
		c-0.3,0-0.5,0.1-0.8,0.1c-0.3,0-0.6,0.1-0.8,0.1c-0.3,0-0.5,0.1-0.8,0.2c-0.3,0.1-0.5,0.2-0.7,0.3c-0.2,0.1-0.3,0.3-0.5,0.5
		c-0.1,0.2-0.2,0.5-0.2,0.8c0,0.3,0.1,0.6,0.2,0.8c0.1,0.2,0.3,0.4,0.5,0.5c0.2,0.1,0.4,0.2,0.7,0.3s0.5,0.1,0.8,0.1
		c0.7,0,1.2-0.1,1.6-0.3c0.4-0.2,0.6-0.5,0.8-0.8s0.3-0.6,0.3-1c0-0.3,0.1-0.6,0.1-0.8V124.6z"/>
	<path fill="#231F20" d="M169.6,118.2v1.8h0.1c0.4-0.7,1-1.3,1.7-1.6s1.4-0.5,2.1-0.5c0.9,0,1.7,0.1,2.3,0.4c0.6,0.3,1.1,0.6,1.4,1
		c0.3,0.4,0.6,1,0.7,1.6s0.2,1.4,0.2,2.1v7.7h-3.5v-7.1c0-1-0.2-1.8-0.5-2.3s-0.9-0.8-1.7-0.8c-0.9,0-1.6,0.3-2,0.8
		c-0.4,0.6-0.6,1.5-0.6,2.8v6.6h-3.5v-12.6H169.6z"/>
	<path fill="#231F20" d="M186.6,120.4c-0.6,0-1,0.1-1.4,0.4c-0.4,0.3-0.7,0.6-0.9,1s-0.4,0.8-0.5,1.3c-0.1,0.5-0.1,1-0.1,1.4
		c0,0.5,0,0.9,0.1,1.4c0.1,0.5,0.3,0.9,0.5,1.3c0.2,0.4,0.5,0.7,0.9,0.9c0.4,0.2,0.8,0.4,1.4,0.4c0.8,0,1.5-0.2,1.9-0.7
		c0.4-0.5,0.7-1.1,0.8-1.9h3.3c-0.2,1.7-0.9,2.9-1.9,3.8c-1.1,0.9-2.4,1.3-4.1,1.3c-0.9,0-1.8-0.2-2.6-0.5c-0.8-0.3-1.5-0.8-2-1.3
		c-0.6-0.6-1-1.2-1.3-2c-0.3-0.8-0.5-1.7-0.5-2.6c0-1,0.1-1.9,0.4-2.7c0.3-0.8,0.7-1.6,1.3-2.2s1.2-1.1,2-1.4
		c0.8-0.3,1.7-0.5,2.7-0.5c0.7,0,1.5,0.1,2.2,0.3c0.7,0.2,1.3,0.5,1.9,0.9c0.5,0.4,1,0.9,1.3,1.5s0.5,1.3,0.6,2.1h-3.4
		C188.9,121.1,188,120.4,186.6,120.4z"/>
	<path fill="#231F20" d="M198,127.7c0.5,0.5,1.3,0.8,2.2,0.8c0.7,0,1.3-0.2,1.8-0.5c0.5-0.3,0.8-0.7,0.9-1.1h3
		c-0.5,1.5-1.2,2.6-2.2,3.2c-1,0.7-2.2,1-3.7,1c-1,0-1.9-0.2-2.7-0.5c-0.8-0.3-1.5-0.8-2-1.4c-0.6-0.6-1-1.3-1.3-2.1
		c-0.3-0.8-0.5-1.7-0.5-2.7c0-0.9,0.2-1.8,0.5-2.6s0.7-1.5,1.3-2.1c0.6-0.6,1.2-1.1,2-1.4c0.8-0.3,1.7-0.5,2.6-0.5
		c1.1,0,2,0.2,2.8,0.6s1.5,1,2,1.7c0.5,0.7,0.9,1.5,1.1,2.4s0.3,1.8,0.2,2.8h-9.1C197.2,126.4,197.5,127.2,198,127.7z M201.9,121.1
		c-0.4-0.5-1-0.7-1.9-0.7c-0.6,0-1,0.1-1.4,0.3c-0.4,0.2-0.7,0.4-0.9,0.7c-0.2,0.3-0.4,0.6-0.5,0.9c-0.1,0.3-0.1,0.6-0.2,0.8h5.6
		C202.6,122.2,202.3,121.6,201.9,121.1z"/>
</g>
</svg>
