<?xml version="1.0" encoding="utf-8"?>
<!-- Generator: Adobe Illustrator 26.5.0, SVG Export Plug-In . SVG Version: 6.00 Build 0)  -->
<svg version="1.1" id="Layer_1" xmlns="http://www.w3.org/2000/svg" xmlns:xlink="http://www.w3.org/1999/xlink" x="0px" y="0px"
	 viewBox="0 0 300 250" style="enable-background:new 0 0 300 250;" xml:space="preserve">
<style type="text/css">
	.st0{fill:#349946;}
	.st1{fill:#231F20;}
	.st2{fill:none;}
</style>
<path class="st0" d="M39.9,60.5h-2.8l-0.9-2.7h-5.5l-0.9,2.7H27l4.9-13h2c0.7,0,1.1,0.2,1.3,0.7c0.2,0.5,2.4,6.3,2.4,6.3H35
	l-1.6-4.4l-2,5.5H37c0.8,0,1.2,0.2,1.4,0.9L39.9,60.5z"/>
<path class="st0" d="M64.4,60.5h-2.8l-0.9-2.7h-5.5l-0.9,2.7h-2.8l4.9-13h2c0.7,0,1.1,0.2,1.3,0.7c0.2,0.5,2.4,6.3,2.4,6.3h-2.6
	l-1.6-4.4l-2,5.5h5.6c0.8,0,1.2,0.2,1.4,0.9L64.4,60.5z"/>
<path class="st0" d="M40.8,47.6h5.1c4,0,5.9,2.1,5.9,6.5c0,2.4-0.8,4.2-2.1,5.3c-1.3,1-2.7,1.2-4.5,1.2h-4.4V47.6z M45.6,58.2
	c2.5,0,3.5-1.2,3.5-4.1c0-2.9-1-4.2-3.2-4.2h-2.5v8.3H45.6z"/>
<g>
	<path class="st1" d="M86.4,60.4h-2l-0.8-9.3l-3.1,9.3h-1.7l-3.2-9.3l-0.8,9.3h-1.9L74,48.2h2.3l3.3,9.4l3.2-9.4h2.3L86.4,60.4z"/>
	<path class="st1" d="M96.4,55.8c0,0.1,0,0.2,0,0.4c0,0.2,0,0.3,0,0.3h-6.1c0,0.6,0.2,1.2,0.6,1.7c0.5,0.6,1.1,0.8,2,0.8
		c0.7,0,1.6-0.2,2.5-0.7l0.7,1.3c-0.9,0.6-2,1-3.3,1c-1.4,0-2.5-0.4-3.2-1.3c-0.8-0.8-1.1-1.9-1.1-3.3c0-1.4,0.4-2.6,1.2-3.5
		c0.8-0.9,1.8-1.3,3.1-1.3c1.2,0,2.2,0.4,2.8,1.2C96.1,53.2,96.4,54.4,96.4,55.8z M94.5,55c0-0.6-0.1-1-0.3-1.4
		c-0.3-0.6-0.9-0.9-1.6-0.9c-0.6,0-1.1,0.2-1.6,0.6c-0.4,0.4-0.7,1-0.7,1.7H94.5z"/>
	<path class="st1" d="M111.1,60.4h-2v-5.1c0-1-0.1-1.7-0.4-2c-0.2-0.3-0.6-0.4-1.1-0.4c-0.6,0-1.3,0.2-2,0.7c0.1,0.2,0.1,0.9,0.1,2
		v4.8h-2v-4.9c0-1.2-0.1-1.9-0.4-2.2c-0.2-0.2-0.6-0.4-1-0.4c-0.7,0-1.3,0.2-1.9,0.6v6.9h-2v-9h1.8v0.7c0.8-0.6,1.7-0.9,2.6-0.9
		c0.9,0,1.7,0.3,2.2,1c1-0.7,2-1,3-1c0.9,0,1.7,0.3,2.2,0.8c0.4,0.4,0.7,1,0.8,1.7c0.1,0.4,0.1,1.2,0.1,2.3V60.4z"/>
	<path class="st1" d="M121.6,55.7c0,1.5-0.4,2.7-1.3,3.6c-0.9,0.9-2,1.4-3.4,1.4c-1,0-2.2-0.2-3.5-0.7V47.1h2v4.7
		c0.7-0.5,1.5-0.7,2.3-0.7c1.1,0,2.1,0.4,2.8,1.2C121.2,53.2,121.6,54.3,121.6,55.7z M119.5,55.7c0-0.9-0.2-1.6-0.7-2.2
		c-0.4-0.5-1-0.7-1.6-0.7c-0.6,0-1.3,0.2-1.9,0.6v5.3c0.5,0.2,1,0.2,1.5,0.2c0.8,0,1.5-0.3,1.9-0.9
		C119.3,57.5,119.5,56.7,119.5,55.7z"/>
	<path class="st1" d="M131.2,55.8c0,0.1,0,0.2,0,0.4c0,0.2,0,0.3,0,0.3h-6.1c0,0.6,0.2,1.2,0.6,1.7c0.5,0.6,1.1,0.8,2,0.8
		c0.7,0,1.6-0.2,2.5-0.7l0.7,1.3c-0.9,0.6-2,1-3.3,1c-1.4,0-2.5-0.4-3.2-1.3c-0.8-0.8-1.1-1.9-1.1-3.3c0-1.4,0.4-2.6,1.2-3.5
		c0.8-0.9,1.8-1.3,3.1-1.3c1.2,0,2.2,0.4,2.8,1.2C130.8,53.2,131.2,54.4,131.2,55.8z M129.3,55c0-0.6-0.1-1-0.3-1.4
		c-0.3-0.6-0.9-0.9-1.6-0.9c-0.6,0-1.1,0.2-1.6,0.6c-0.4,0.4-0.7,1-0.7,1.7H129.3z"/>
	<path class="st1" d="M138.8,51.4l-0.5,1.6c-0.2,0-0.4-0.1-0.6-0.1c-1.1,0-2,0.5-2.6,1.4v6.1h-2v-9h1.8v1.1c0.1-0.2,0.4-0.5,0.8-0.7
		c0.6-0.4,1.4-0.7,2.1-0.7C138.2,51.2,138.5,51.3,138.8,51.4z"/>
</g>
<g>
	<path class="st1" d="M146.2,57.8c0,0.9-0.3,1.6-1,2.1c-0.6,0.5-1.5,0.8-2.5,0.8c-0.8,0-1.6-0.1-2.3-0.4c-0.5-0.2-0.8-0.4-1-0.5
		l0.7-1.3c0.9,0.5,1.7,0.7,2.4,0.7c0.5,0,0.9-0.1,1.2-0.3c0.3-0.2,0.4-0.5,0.4-0.8s-0.2-0.6-0.5-0.8c-0.2-0.1-0.6-0.3-1.4-0.7
		c-0.7-0.3-1.2-0.6-1.6-0.9c-0.5-0.5-0.8-1.1-0.8-1.8c0-0.8,0.3-1.5,0.9-1.9c0.6-0.5,1.4-0.7,2.4-0.7c1.3,0,2.2,0.3,2.9,0.8
		l-0.7,1.3c-0.7-0.4-1.4-0.6-2.1-0.6c-1,0-1.4,0.3-1.4,1c0,0.3,0.2,0.5,0.5,0.8c0.2,0.1,0.6,0.3,1.1,0.6c0.9,0.4,1.5,0.7,1.8,1
		C145.9,56.4,146.2,57.1,146.2,57.8z"/>
	<path class="st1" d="M155,60.4h-2.1V48.2h2.1V60.4z"/>
	<path class="st1" d="M165.2,60.4h-2v-4.9c0-1.2-0.1-1.9-0.4-2.2c-0.3-0.3-0.7-0.4-1.1-0.4c-0.6,0-1.3,0.2-2,0.7v6.8h-2v-9h1.8v0.7
		c0.8-0.6,1.7-0.9,2.7-0.9c0.9,0,1.7,0.3,2.2,0.8c0.4,0.4,0.7,0.9,0.8,1.5c0.1,0.4,0.1,1,0.1,1.8V60.4z"/>
	<path class="st1" d="M173.4,57.8c0,0.9-0.3,1.6-1,2.1c-0.6,0.5-1.5,0.8-2.5,0.8c-0.8,0-1.6-0.1-2.3-0.4c-0.5-0.2-0.8-0.4-1-0.5
		l0.7-1.3c0.9,0.5,1.7,0.7,2.4,0.7c0.5,0,0.9-0.1,1.2-0.3c0.3-0.2,0.4-0.5,0.4-0.8s-0.2-0.6-0.5-0.8c-0.2-0.1-0.6-0.3-1.4-0.7
		c-0.7-0.3-1.2-0.6-1.6-0.9c-0.5-0.5-0.8-1.1-0.8-1.8c0-0.8,0.3-1.5,0.9-1.9c0.6-0.5,1.4-0.7,2.4-0.7c1.3,0,2.2,0.3,2.9,0.8
		l-0.7,1.3c-0.7-0.4-1.4-0.6-2.1-0.6c-1,0-1.4,0.3-1.4,1c0,0.3,0.2,0.5,0.5,0.8c0.2,0.1,0.6,0.3,1.1,0.6c0.9,0.4,1.5,0.7,1.8,1
		C173.1,56.4,173.4,57.1,173.4,57.8z"/>
	<path class="st1" d="M183,60.4h-1.8v-0.7c-0.8,0.6-1.7,0.9-2.7,0.9c-0.9,0-1.7-0.3-2.2-0.8c-0.4-0.4-0.7-0.9-0.8-1.5
		c-0.1-0.4-0.1-1-0.1-1.8v-5h2v4.9c0,0.6,0,1,0,1.2c0.1,0.5,0.2,0.9,0.5,1.1c0.3,0.2,0.6,0.3,1.1,0.3c0.5,0,1.2-0.2,2-0.7v-6.8h2
		V60.4z"/>
	<path class="st1" d="M191,51.4l-0.5,1.6c-0.2,0-0.4-0.1-0.6-0.1c-1.1,0-2,0.5-2.6,1.4v6.1h-2v-9h1.8v1.1c0.1-0.2,0.4-0.5,0.8-0.7
		c0.6-0.4,1.4-0.7,2.1-0.7C190.4,51.2,190.7,51.3,191,51.4z"/>
</g>
<g>
	<path class="st1" d="M198.9,60.4h-1.8v-0.7c-0.9,0.6-1.8,0.8-2.6,0.8c-0.9,0-1.6-0.3-2.1-0.8c-0.5-0.5-0.8-1.2-0.8-2
		c0-2.1,1.7-3.1,5.1-3.1h0.3v-0.3c0-0.6-0.1-0.9-0.3-1.1c-0.3-0.3-0.8-0.4-1.5-0.4c-0.8,0-1.6,0.2-2.4,0.7l-0.7-1.3
		c0.2-0.2,0.5-0.4,1-0.5c0.7-0.3,1.5-0.4,2.3-0.4c1.2,0,2.2,0.3,2.8,1c0.3,0.3,0.5,0.7,0.6,1.2c0.1,0.3,0.1,0.8,0.1,1.6V60.4z
		 M197,58.4v-2.4h-0.4c-1.4,0-2.3,0.2-2.8,0.7c-0.2,0.2-0.3,0.5-0.3,0.9c0,0.4,0.1,0.8,0.5,1c0.3,0.2,0.7,0.3,1.1,0.3
		C195.6,59,196.3,58.8,197,58.4z"/>
	<path class="st1" d="M208.7,60.4h-2v-4.9c0-1.2-0.1-1.9-0.4-2.2c-0.3-0.3-0.7-0.4-1.1-0.4c-0.6,0-1.3,0.2-2,0.7v6.8h-2v-9h1.8v0.7
		c0.8-0.6,1.7-0.9,2.7-0.9c0.9,0,1.7,0.3,2.2,0.8c0.4,0.4,0.7,0.9,0.8,1.5c0.1,0.4,0.1,1,0.1,1.8V60.4z"/>
	<path class="st1" d="M218.3,59.6c-0.1,0.1-0.4,0.3-0.9,0.6c-0.7,0.3-1.5,0.5-2.4,0.5c-1.3,0-2.4-0.4-3.2-1.3
		c-0.8-0.9-1.2-2-1.2-3.3c0-1.4,0.4-2.6,1.3-3.5c0.9-0.9,2-1.4,3.3-1.4c0.8,0,1.5,0.2,2.1,0.5c0.4,0.2,0.7,0.4,0.9,0.6l-0.8,1.3
		c-0.6-0.4-1.3-0.6-2-0.6c-0.8,0-1.5,0.3-2,0.9c-0.5,0.6-0.7,1.3-0.7,2.1c0,0.9,0.2,1.6,0.7,2.2c0.5,0.6,1.1,0.8,2,0.8
		c0.7,0,1.4-0.2,2.3-0.7L218.3,59.6z"/>
</g>
<g>
	<path class="st1" d="M227.3,55.8c0,0.1,0,0.2,0,0.4c0,0.2,0,0.3,0,0.3h-6.1c0,0.6,0.2,1.2,0.6,1.7c0.5,0.6,1.1,0.8,2,0.8
		c0.7,0,1.6-0.2,2.5-0.7l0.7,1.3c-0.9,0.6-2,1-3.3,1c-1.4,0-2.5-0.4-3.2-1.3c-0.8-0.8-1.1-1.9-1.1-3.3c0-1.4,0.4-2.6,1.2-3.5
		c0.8-0.9,1.8-1.3,3.1-1.3c1.2,0,2.2,0.4,2.8,1.2C227,53.2,227.3,54.4,227.3,55.8z M225.4,55c0-0.6-0.1-1-0.3-1.4
		c-0.3-0.6-0.9-0.9-1.6-0.9c-0.6,0-1.1,0.2-1.6,0.6c-0.4,0.4-0.7,1-0.7,1.7H225.4z"/>
	<path class="st1" d="M242.1,51.8c0,1.1-0.3,2-1,2.7c-0.5,0.5-1.1,0.9-1.9,1c-0.5,0.1-1.2,0.1-2.3,0.1H236v4.7h-2.1V48.2h3.3
		c1,0,1.7,0.1,2.2,0.2c0.7,0.1,1.3,0.4,1.7,0.9C241.8,49.9,242.1,50.8,242.1,51.8z M239.9,51.9c0-0.6-0.2-1.2-0.6-1.5
		c-0.3-0.3-1.1-0.5-2.3-0.5H236V54h0.9c1.3,0,2.2-0.2,2.6-0.6C239.8,53.1,239.9,52.6,239.9,51.9z"/>
	<path class="st1" d="M246.3,60.4h-2V47.1h2V60.4z"/>
	<path class="st1" d="M255.5,60.4h-1.8v-0.7c-0.9,0.6-1.8,0.8-2.6,0.8c-0.9,0-1.6-0.3-2.1-0.8c-0.5-0.5-0.8-1.2-0.8-2
		c0-2.1,1.7-3.1,5.1-3.1h0.3v-0.3c0-0.6-0.1-0.9-0.3-1.1c-0.3-0.3-0.8-0.4-1.5-0.4c-0.8,0-1.6,0.2-2.4,0.7l-0.7-1.3
		c0.2-0.2,0.5-0.4,1-0.5c0.7-0.3,1.5-0.4,2.3-0.4c1.2,0,2.2,0.3,2.8,1c0.3,0.3,0.5,0.7,0.6,1.2c0.1,0.3,0.1,0.8,0.1,1.6V60.4z
		 M253.6,58.4v-2.4h-0.4c-1.4,0-2.3,0.2-2.8,0.7c-0.2,0.2-0.3,0.5-0.3,0.9c0,0.4,0.1,0.8,0.5,1c0.3,0.2,0.7,0.3,1.1,0.3
		C252.2,59,252.8,58.8,253.6,58.4z"/>
	<path class="st1" d="M265.3,60.4h-2v-4.9c0-1.2-0.1-1.9-0.4-2.2c-0.3-0.3-0.7-0.4-1.1-0.4c-0.6,0-1.3,0.2-2,0.7v6.8h-2v-9h1.8v0.7
		c0.8-0.6,1.7-0.9,2.7-0.9c0.9,0,1.7,0.3,2.2,0.8c0.4,0.4,0.7,0.9,0.8,1.5c0.1,0.4,0.1,1,0.1,1.8V60.4z"/>
	<path class="st1" d="M273.6,57.8c0,0.9-0.3,1.6-1,2.1c-0.6,0.5-1.5,0.8-2.5,0.8c-0.8,0-1.6-0.1-2.3-0.4c-0.5-0.2-0.8-0.4-1-0.5
		l0.7-1.3c0.9,0.5,1.7,0.7,2.4,0.7c0.5,0,0.9-0.1,1.2-0.3c0.3-0.2,0.4-0.5,0.4-0.8s-0.2-0.6-0.5-0.8c-0.2-0.1-0.6-0.3-1.4-0.7
		c-0.7-0.3-1.2-0.6-1.6-0.9c-0.5-0.5-0.8-1.1-0.8-1.8c0-0.8,0.3-1.5,0.9-1.9c0.6-0.5,1.4-0.7,2.4-0.7c1.3,0,2.2,0.3,2.9,0.8
		l-0.7,1.3c-0.7-0.4-1.4-0.6-2.1-0.6c-1,0-1.4,0.3-1.4,1c0,0.3,0.2,0.5,0.5,0.8c0.2,0.1,0.6,0.3,1.1,0.6c0.9,0.4,1.5,0.7,1.8,1
		C273.3,56.4,273.6,57.1,273.6,57.8z"/>
</g>
<path class="st0" d="M66.3,60.6c-0.9,0-1.5-0.7-1.5-1.5c0-0.9,0.7-1.5,1.5-1.5c0.9,0,1.5,0.7,1.5,1.5C67.8,59.9,67.1,60.6,66.3,60.6
	 M66.3,57.9c-0.7,0-1.2,0.5-1.2,1.2c0,0.6,0.5,1.1,1.2,1.1c0.6,0,1.2-0.5,1.2-1.1C67.4,58.4,66.9,57.9,66.3,57.9 M66.6,59.8
	l-0.2-0.4c-0.1-0.2-0.1-0.2-0.3-0.2h-0.1v0.6h-0.3v-1.6h0.4c0.2,0,0.4,0,0.5,0.1c0.1,0.1,0.2,0.2,0.2,0.3c0,0.2-0.1,0.3-0.3,0.4
	c0.1,0,0.1,0.1,0.2,0.2l0.2,0.6H66.6z M66.4,58.5c-0.1,0-0.2,0-0.2,0h-0.1v0.4c0.1,0,0.2,0,0.3,0c0.1,0,0.2-0.1,0.2-0.2
	C66.5,58.6,66.5,58.5,66.4,58.5"/>
<rect x="27" y="45.1" class="st2" width="247" height="17"/>
</svg>
