<?xml version="1.0" encoding="utf-8"?>
<!-- Generator: Adobe Illustrator 26.5.0, SVG Export Plug-In . SVG Version: 6.00 Build 0)  -->
<svg version="1.1" id="Layer_1" xmlns="http://www.w3.org/2000/svg" xmlns:xlink="http://www.w3.org/1999/xlink" x="0px" y="0px"
	 viewBox="0 0 300 250" style="enable-background:new 0 0 300 250;" xml:space="preserve">
<style type="text/css">
	.st0{clip-path:url(#SVGID_00000060014550176408921590000009891104491250561957_);fill:#231F20;}
	.st1{clip-path:url(#SVGID_00000060014550176408921590000009891104491250561957_);fill:#00B2EE;}
</style>
<g>
	<defs>
		<rect id="SVGID_1_" x="107.9" y="9.4" width="87.2" height="29.7"/>
	</defs>
	<clipPath id="SVGID_00000049906582511544094020000009747244787760892053_">
		<use xlink:href="#SVGID_1_"  style="overflow:visible;"/>
	</clipPath>
	<path style="clip-path:url(#SVGID_00000049906582511544094020000009747244787760892053_);fill:#231F20;" d="M108.5,25.4h4.7
		c3.7,0,4.4,2.4,4.4,4c0,1.6-0.7,4-4.4,4h-2.4v5h-2.3V25.4z M110.7,31.5h2.3c1,0,2.3-0.5,2.3-2.1c0-1.7-1-2.1-2.2-2.1h-2.3V31.5z"/>
	<path style="clip-path:url(#SVGID_00000049906582511544094020000009747244787760892053_);fill:#231F20;" d="M118.9,29h1.9v1.8h0
		c0.2-1,1.5-2.1,2.8-2.1c0.5,0,0.6,0,0.8,0.1v2c-0.3,0-0.6-0.1-0.9-0.1c-1.4,0-2.6,1.1-2.6,3.2v4.5h-2.1V29z"/>
	<path style="clip-path:url(#SVGID_00000049906582511544094020000009747244787760892053_);fill:#231F20;" d="M124.7,33.7
		c0-2.9,1.7-5,4.8-5c3,0,4.8,2.1,4.8,5c0,2.9-1.7,5-4.8,5C126.4,38.6,124.7,36.6,124.7,33.7 M132.1,33.7c0-1.6-0.8-3.3-2.7-3.3
		c-1.9,0-2.7,1.7-2.7,3.3c0,1.6,0.8,3.3,2.7,3.3C131.3,37,132.1,35.3,132.1,33.7"/>
	<path style="clip-path:url(#SVGID_00000049906582511544094020000009747244787760892053_);fill:#231F20;" d="M134.5,29h1.7v-2.8h2
		V29h1.9v1.5h-1.9v5c0,0.9,0.1,1.3,1,1.3c0.3,0,0.6,0,0.9-0.1v1.6c-0.5,0-0.9,0.1-1.3,0.1c-2.2,0-2.6-0.8-2.6-2.4v-5.6h-1.6V29z"/>
	<path style="clip-path:url(#SVGID_00000049906582511544094020000009747244787760892053_);fill:#231F20;" d="M143,34.2
		c0,1.5,0.8,2.8,2.5,2.8c1.2,0,1.9-0.5,2.3-1.6h2c-0.5,2.1-2.2,3.2-4.3,3.2c-2.9,0-4.6-2.1-4.6-5c0-2.7,1.7-5,4.6-5
		c3,0,4.8,2.7,4.4,5.5H143z M147.9,32.8c-0.1-1.3-1-2.5-2.4-2.5c-1.4,0-2.4,1.1-2.5,2.5H147.9z"/>
	<path style="clip-path:url(#SVGID_00000049906582511544094020000009747244787760892053_);fill:#231F20;" d="M157.8,32.1
		c-0.2-1.1-1-1.8-2.1-1.8c-1.1,0-2.6,0.6-2.6,3.4c0,1.6,0.7,3.2,2.5,3.2c1.2,0,2-0.8,2.2-2.1h2.1c-0.4,2.4-1.9,3.8-4.3,3.8
		c-2.9,0-4.6-2.1-4.6-4.9c0-2.8,1.5-5.1,4.6-5.1c2.2,0,4,1.1,4.2,3.4H157.8z"/>
	<path style="clip-path:url(#SVGID_00000049906582511544094020000009747244787760892053_);fill:#231F20;" d="M160.4,29h1.6v-2.8h2.1
		V29h1.9v1.5H164v5c0,0.9,0.1,1.3,1,1.3c0.3,0,0.6,0,0.9-0.1v1.6c-0.5,0-0.9,0.1-1.3,0.1c-2.2,0-2.6-0.8-2.6-2.4v-5.6h-1.6V29z"/>
	<path style="clip-path:url(#SVGID_00000049906582511544094020000009747244787760892053_);fill:#231F20;" d="M168.3,25.4h2.1v2h-2.1
		V25.4z M168.3,29h2.1v9.4h-2.1V29z"/>
	<polygon style="clip-path:url(#SVGID_00000049906582511544094020000009747244787760892053_);fill:#231F20;" points="171.9,29 
		174.2,29 177.1,36.2 177.1,36.2 179.9,29 182.1,29 178.2,38.4 175.8,38.4 	"/>
	<path style="clip-path:url(#SVGID_00000049906582511544094020000009747244787760892053_);fill:#231F20;" d="M184.7,34.2
		c0,1.5,0.8,2.8,2.5,2.8c1.2,0,1.9-0.5,2.3-1.6h2c-0.5,2.1-2.2,3.2-4.3,3.2c-2.9,0-4.6-2.1-4.6-5c0-2.7,1.7-5,4.6-5
		c3,0,4.8,2.7,4.4,5.5H184.7z M189.5,32.8c-0.1-1.3-1-2.5-2.4-2.5c-1.4,0-2.4,1.1-2.5,2.5H189.5z"/>
	<path style="clip-path:url(#SVGID_00000049906582511544094020000009747244787760892053_);fill:#00B2EE;" d="M164.4,23.2
		c-1.4-5.2-5.5-9.2-10.6-10.5c-0.5-1.6-2-2.8-3.7-2.8c-1.8,0-3.2,1.2-3.7,2.8c-5.1,1.3-9.3,5.4-10.6,10.5l-0.2,0.6h3.2l0.1-0.3
		c1.2-3.8,4.2-6.7,7.9-7.7c0.7,1.1,1.9,1.9,3.3,1.9s2.7-0.8,3.3-1.9c3.7,1.1,6.7,4,7.9,7.7l0.1,0.3h3.2L164.4,23.2z"/>
	<path style="clip-path:url(#SVGID_00000049906582511544094020000009747244787760892053_);fill:#231F20;" d="M193.8,36.8
		c0.5,0,0.9,0.4,0.9,0.9c0,0.5-0.4,0.9-0.9,0.9s-0.9-0.4-0.9-0.9C192.8,37.2,193.3,36.8,193.8,36.8 M194.5,37.7
		c0-0.4-0.3-0.8-0.8-0.8c-0.4,0-0.8,0.3-0.8,0.8c0,0.4,0.3,0.8,0.8,0.8C194.2,38.5,194.5,38.1,194.5,37.7 M193.4,37.2h0.4
		c0.2,0,0.4,0.1,0.4,0.3c0,0.2-0.1,0.3-0.3,0.3l0.3,0.5H194l-0.3-0.5h-0.2v0.5h-0.2V37.2z M193.7,37.6c0.1,0,0.3,0,0.3-0.2
		c0-0.1-0.1-0.2-0.2-0.2h-0.2v0.3H193.7z"/>
</g>
</svg>
