<?xml version="1.0" encoding="utf-8"?>
<!-- Generator: Adobe Illustrator 26.5.0, SVG Export Plug-In . SVG Version: 6.00 Build 0)  -->
<svg version="1.1" id="Layer_1" xmlns="http://www.w3.org/2000/svg" xmlns:xlink="http://www.w3.org/1999/xlink" x="0px" y="0px"
	 viewBox="0 0 300 600" style="enable-background:new 0 0 300 600;" xml:space="preserve">
<style type="text/css">
	.st0{fill:#339933;}
	.st1{fill:#231F20;}
</style>
<g>
	<path class="st0" d="M116.8,199.4V223h-5.2v-23.6H116.8z"/>
	<path class="st0" d="M119.1,209v-3.1h2.8v-1.3c0-1.5,0.5-2.8,1.4-3.7c0.9-1,2.4-1.5,4.3-1.5c0.4,0,0.8,0,1.3,0
		c0.4,0,0.8,0.1,1.2,0.1v3.5c-0.5-0.1-1.1-0.1-1.7-0.1c-0.6,0-1.1,0.1-1.4,0.4c-0.3,0.3-0.4,0.8-0.4,1.5v1h3.2v3.1h-3.2V223h-4.7
		V209H119.1z"/>
	<path class="st0" d="M150.4,205.9v3.1H147v8.4c0,0.8,0.1,1.3,0.4,1.6c0.3,0.3,0.8,0.4,1.6,0.4c0.3,0,0.5,0,0.8,0s0.5-0.1,0.7-0.1
		v3.6c-0.4,0.1-0.8,0.1-1.3,0.1c-0.5,0-1,0-1.4,0c-0.7,0-1.4,0-2.1-0.1c-0.6-0.1-1.2-0.3-1.7-0.6c-0.5-0.3-0.9-0.7-1.2-1.2
		c-0.3-0.5-0.4-1.2-0.4-2.1V209h-2.8v-3.1h2.8v-5.1h4.7v5.1H150.4z"/>
	<path class="st0" d="M157.3,199.4v8.9h0.1c0.6-1,1.4-1.7,2.3-2.2c0.9-0.5,1.8-0.7,2.7-0.7c1.3,0,2.3,0.2,3.1,0.5
		c0.8,0.3,1.4,0.8,1.9,1.4s0.8,1.3,1,2.2c0.2,0.9,0.3,1.8,0.3,2.9V223h-4.7v-9.6c0-1.4-0.2-2.5-0.7-3.2c-0.4-0.7-1.2-1-2.3-1
		c-1.3,0-2.2,0.4-2.8,1.1c-0.6,0.8-0.9,2-0.9,3.7v8.9h-4.7v-23.6H157.3z"/>
	<path class="st0" d="M177.2,218.9c0.7,0.7,1.7,1,3,1c0.9,0,1.8-0.2,2.4-0.7c0.7-0.5,1.1-1,1.3-1.5h4.1c-0.7,2-1.7,3.5-3,4.4
		c-1.4,0.9-3,1.3-5,1.3c-1.3,0-2.6-0.2-3.6-0.6c-1.1-0.4-2-1-2.7-1.8s-1.3-1.7-1.7-2.8s-0.6-2.3-0.6-3.6c0-1.3,0.2-2.5,0.6-3.6
		c0.4-1.1,1-2.1,1.8-2.9c0.8-0.8,1.7-1.4,2.8-1.9s2.2-0.7,3.5-0.7c1.5,0,2.7,0.3,3.8,0.8s2,1.3,2.7,2.3c0.7,0.9,1.2,2,1.5,3.2
		c0.3,1.2,0.4,2.5,0.3,3.8h-12.3C176.1,217.1,176.5,218.2,177.2,218.9z M182.5,209.9c-0.6-0.6-1.4-0.9-2.6-0.9
		c-0.7,0-1.4,0.1-1.9,0.4s-0.9,0.6-1.2,0.9s-0.5,0.8-0.6,1.2s-0.2,0.8-0.2,1.1h7.6C183.5,211.4,183.1,210.5,182.5,209.9z"/>
</g>
<g>
	<path class="st1" d="M37.6,234.4c1.1,0,2,0.2,2.9,0.5c0.8,0.3,1.6,0.8,2.2,1.4c0.6,0.6,1.1,1.3,1.4,2.1c0.3,0.8,0.5,1.6,0.5,2.5
		c0,1.4-0.3,2.6-0.9,3.6c-0.6,1-1.5,1.8-2.9,2.3v0.1c0.6,0.2,1.2,0.4,1.6,0.8c0.4,0.4,0.8,0.8,1,1.3c0.3,0.5,0.5,1,0.6,1.6
		c0.1,0.6,0.2,1.2,0.2,1.8c0,0.4,0,0.8,0.1,1.3c0,0.5,0.1,1,0.1,1.6c0.1,0.5,0.1,1,0.3,1.5c0.1,0.5,0.3,0.9,0.5,1.2H40
		c-0.3-0.7-0.5-1.6-0.5-2.7c-0.1-1-0.2-2-0.3-3c-0.2-1.2-0.6-2.1-1.1-2.7c-0.6-0.6-1.5-0.9-2.8-0.9H30v9.2h-5.2v-23.6H37.6z
		 M35.7,245.1c1.2,0,2.1-0.3,2.7-0.8c0.6-0.5,0.9-1.4,0.9-2.6c0-1.1-0.3-2-0.9-2.5c-0.6-0.5-1.5-0.8-2.7-0.8H30v6.6H35.7z"/>
	<path class="st1" d="M66.3,234.4v4.4H53.9v5h11.4v4H53.9v5.8h12.7v4.4H48.7v-23.6H66.3z"/>
	<path class="st1" d="M68.2,238.8v-4.4h19.3v4.4h-7.1V258h-5.2v-19.2H68.2z"/>
	<path class="st1" d="M99,234.4l8.8,23.6h-5.4l-1.8-5.2h-8.8L90,258h-5.2l8.9-23.6H99z M99.3,248.9l-3-8.6h-0.1l-3.1,8.6H99.3z"/>
	<path class="st1" d="M115,234.4V258h-5.2v-23.6H115z"/>
	<path class="st1" d="M124.7,234.4l9.8,15.8h0.1v-15.8h4.9V258h-5.2l-9.8-15.8h-0.1V258h-4.9v-23.6H124.7z"/>
	<path class="st1" d="M161.6,234.4v4.4h-12.4v5h11.4v4h-11.4v5.8h12.7v4.4H144v-23.6H161.6z"/>
	<path class="st1" d="M178.1,234.4c1.1,0,2,0.2,2.9,0.5c0.8,0.3,1.6,0.8,2.2,1.4c0.6,0.6,1.1,1.3,1.4,2.1c0.3,0.8,0.5,1.6,0.5,2.5
		c0,1.4-0.3,2.6-0.9,3.6c-0.6,1-1.5,1.8-2.9,2.3v0.1c0.6,0.2,1.2,0.4,1.6,0.8c0.4,0.4,0.8,0.8,1,1.3c0.3,0.5,0.5,1,0.6,1.6
		c0.1,0.6,0.2,1.2,0.2,1.8c0,0.4,0,0.8,0.1,1.3c0,0.5,0.1,1,0.1,1.6c0.1,0.5,0.1,1,0.3,1.5c0.1,0.5,0.3,0.9,0.5,1.2h-5.2
		c-0.3-0.7-0.5-1.6-0.5-2.7c-0.1-1-0.2-2-0.3-3c-0.2-1.2-0.6-2.1-1.1-2.7c-0.6-0.6-1.5-0.9-2.8-0.9h-5.2v9.2h-5.2v-23.6H178.1z
		 M176.3,245.1c1.2,0,2.1-0.3,2.7-0.8c0.6-0.5,0.9-1.4,0.9-2.6c0-1.1-0.3-2-0.9-2.5c-0.6-0.5-1.5-0.8-2.7-0.8h-5.7v6.6H176.3z"/>
	<path class="st1" d="M215,234.4v4.4h-11.4v5.4h9.9v4h-9.9v9.7h-5.2v-23.6H215z"/>
	<path class="st1" d="M223.1,234.4V258H218v-23.6H223.1z"/>
	<path class="st1" d="M225.9,238.8v-4.4h19.3v4.4h-7.1V258h-5.2v-19.2H225.9z"/>
	<path class="st1" d="M251.8,252.2c0.3,0.6,0.7,1,1.1,1.3c0.5,0.3,1,0.6,1.7,0.8c0.6,0.2,1.3,0.2,2,0.2c0.5,0,1,0,1.5-0.1
		c0.5-0.1,1-0.2,1.5-0.4c0.5-0.2,0.8-0.5,1.2-0.9c0.3-0.4,0.5-0.9,0.5-1.5c0-0.6-0.2-1.2-0.6-1.6s-0.9-0.7-1.6-1
		c-0.7-0.3-1.4-0.5-2.2-0.7c-0.8-0.2-1.7-0.4-2.5-0.7c-0.9-0.2-1.7-0.5-2.6-0.8c-0.8-0.3-1.6-0.7-2.2-1.2c-0.7-0.5-1.2-1.1-1.6-1.9
		c-0.4-0.8-0.6-1.7-0.6-2.8c0-1.2,0.3-2.3,0.8-3.2s1.2-1.6,2-2.2c0.8-0.6,1.8-1,2.8-1.3c1.1-0.3,2.1-0.4,3.2-0.4
		c1.2,0,2.4,0.1,3.5,0.4c1.1,0.3,2.1,0.7,3,1.3c0.9,0.6,1.6,1.4,2.1,2.4c0.5,1,0.8,2.1,0.8,3.5h-5c0-0.7-0.2-1.3-0.4-1.7
		c-0.3-0.5-0.6-0.8-1-1.1c-0.4-0.3-0.9-0.5-1.4-0.6c-0.5-0.1-1.1-0.2-1.8-0.2c-0.4,0-0.8,0-1.3,0.1s-0.8,0.2-1.1,0.5
		c-0.3,0.2-0.6,0.5-0.8,0.8c-0.2,0.3-0.3,0.7-0.3,1.3c0,0.5,0.1,0.8,0.3,1.1c0.2,0.3,0.5,0.5,1,0.8s1.2,0.5,2.1,0.7
		c0.9,0.2,2.1,0.6,3.6,0.9c0.4,0.1,1.1,0.2,1.8,0.5c0.8,0.2,1.6,0.6,2.3,1.1c0.8,0.5,1.4,1.2,2,2c0.6,0.8,0.8,1.9,0.8,3.3
		c0,1.1-0.2,2.1-0.6,3c-0.4,0.9-1,1.7-1.9,2.4c-0.8,0.7-1.8,1.2-3.1,1.6c-1.2,0.4-2.6,0.6-4.2,0.6c-1.3,0-2.6-0.2-3.8-0.5
		c-1.2-0.3-2.3-0.8-3.2-1.5c-0.9-0.7-1.7-1.6-2.2-2.6s-0.8-2.3-0.8-3.8h5C251.4,250.9,251.5,251.6,251.8,252.2z"/>
	<path class="st1" d="M274.2,252.9v5.1c0,0.7-0.1,1.4-0.4,2.1s-0.6,1.2-1.1,1.6c-0.5,0.5-1,0.8-1.6,1.1c-0.6,0.3-1.3,0.5-2,0.6V261
		c0.3-0.1,0.6-0.2,0.9-0.4c0.3-0.2,0.6-0.4,0.8-0.7c0.2-0.3,0.4-0.6,0.5-0.9c0.1-0.3,0.2-0.7,0.1-1H269v-5.1H274.2z"/>
</g>
<g>
	<path class="st0" d="M97.2,293l-4-16h-0.1l-3.9,16h-5.2l-6.2-23.6h5.2l3.7,16h0.1l4.1-16h4.9l4,16.2h0.1l3.9-16.2h5.1l-6.3,23.6
		H97.2z"/>
	<path class="st0" d="M128.6,269.4v4.4h-12.4v5h11.4v4h-11.4v5.8h12.7v4.4H111v-23.6H128.6z"/>
	<path class="st0" d="M144.1,269.4L153,293h-5.4l-1.8-5.2H137l-1.8,5.2h-5.2l8.9-23.6H144.1z M144.4,283.9l-3-8.6h-0.1l-3.1,8.6
		H144.4z"/>
	<path class="st0" d="M167.7,269.4c1.1,0,2,0.2,2.9,0.5c0.8,0.3,1.6,0.8,2.2,1.4c0.6,0.6,1.1,1.3,1.4,2.1c0.3,0.8,0.5,1.6,0.5,2.5
		c0,1.4-0.3,2.6-0.9,3.6c-0.6,1-1.5,1.8-2.9,2.3v0.1c0.6,0.2,1.2,0.4,1.6,0.8c0.4,0.4,0.8,0.8,1,1.3c0.3,0.5,0.5,1,0.6,1.6
		c0.1,0.6,0.2,1.2,0.2,1.8c0,0.4,0,0.8,0.1,1.3c0,0.5,0.1,1,0.1,1.6c0.1,0.5,0.1,1,0.3,1.5c0.1,0.5,0.3,0.9,0.5,1.2h-5.2
		c-0.3-0.7-0.5-1.6-0.5-2.7c-0.1-1-0.2-2-0.3-3c-0.2-1.2-0.6-2.1-1.1-2.7c-0.6-0.6-1.5-0.9-2.8-0.9h-5.2v9.2H155v-23.6H167.7z
		 M165.9,280.1c1.2,0,2.1-0.3,2.7-0.8c0.6-0.5,0.9-1.4,0.9-2.6c0-1.1-0.3-2-0.9-2.5c-0.6-0.5-1.5-0.8-2.7-0.8h-5.7v6.6H165.9z"/>
	<path class="st0" d="M193.2,269.4V293H188v-23.6H193.2z"/>
	<path class="st0" d="M195.9,273.8v-4.4h19.3v4.4h-7.1V293H203v-19.2H195.9z"/>
	<path class="st0" d="M219.2,287.9v5.1H214v-5.1H219.2z"/>
</g>
</svg>
