<?xml version="1.0" encoding="utf-8"?>
<!-- Generator: Adobe Illustrator 26.5.0, SVG Export Plug-In . SVG Version: 6.00 Build 0)  -->
<svg version="1.1" id="Layer_1" xmlns="http://www.w3.org/2000/svg" xmlns:xlink="http://www.w3.org/1999/xlink" x="0px" y="0px"
	 viewBox="0 0 300 600" style="enable-background:new 0 0 300 600;" xml:space="preserve">
<style type="text/css">
	.st0{fill:#231F20;}
</style>
<g>
	<path class="st0" d="M89.7,199.1l6.9,18.6h-4.2l-1.4-4.1H84l-1.5,4.1h-4.1l7-18.6H89.7z M89.9,210.5l-2.3-6.8h-0.1l-2.4,6.8H89.9z"
		/>
	<path class="st0" d="M101.1,204.2v1.9h0.1c0.5-0.8,1.1-1.3,1.8-1.7c0.7-0.4,1.5-0.5,2.3-0.5c1,0,1.8,0.1,2.4,0.4s1.1,0.6,1.5,1.1
		c0.4,0.5,0.6,1.1,0.8,1.7c0.1,0.7,0.2,1.4,0.2,2.3v8.3h-3.7V210c0-1.1-0.2-1.9-0.5-2.5c-0.3-0.5-1-0.8-1.8-0.8
		c-1,0-1.7,0.3-2.2,0.9s-0.7,1.6-0.7,3v7h-3.7v-13.4H101.1z"/>
	<path class="st0" d="M122.3,215.9c-0.4,0.7-1,1.3-1.7,1.6c-0.7,0.3-1.5,0.5-2.4,0.5c-1,0-1.9-0.2-2.7-0.6s-1.4-0.9-1.9-1.6
		c-0.5-0.7-0.9-1.4-1.1-2.3c-0.3-0.9-0.4-1.8-0.4-2.7c0-0.9,0.1-1.8,0.4-2.6c0.3-0.8,0.6-1.6,1.1-2.2c0.5-0.6,1.1-1.2,1.9-1.5
		c0.7-0.4,1.6-0.6,2.6-0.6c0.8,0,1.6,0.2,2.3,0.5c0.7,0.3,1.3,0.8,1.7,1.5h0.1v-6.8h3.7v18.6h-3.5L122.3,215.9L122.3,215.9z
		 M122.1,209.3c-0.1-0.5-0.3-1-0.5-1.4s-0.6-0.7-1-0.9c-0.4-0.2-0.9-0.4-1.5-0.4c-0.6,0-1.1,0.1-1.5,0.4c-0.4,0.2-0.8,0.6-1,1
		c-0.3,0.4-0.4,0.9-0.5,1.4c-0.1,0.5-0.2,1-0.2,1.6c0,0.5,0.1,1,0.2,1.6c0.1,0.5,0.3,1,0.6,1.4c0.3,0.4,0.6,0.7,1,1
		c0.4,0.3,0.9,0.4,1.5,0.4c0.6,0,1.1-0.1,1.5-0.4c0.4-0.2,0.7-0.6,1-1c0.2-0.4,0.4-0.9,0.5-1.4s0.2-1.1,0.2-1.6
		S122.2,209.8,122.1,209.3z"/>
	<path class="st0" d="M138.9,204.2v1.7h0.1c0.5-0.7,1-1.3,1.7-1.6c0.7-0.3,1.5-0.5,2.3-0.5c1.1,0,2,0.2,2.7,0.6
		c0.8,0.4,1.4,0.9,1.9,1.6c0.5,0.7,0.9,1.4,1.1,2.3c0.2,0.9,0.4,1.8,0.4,2.7c0,0.9-0.1,1.8-0.4,2.6c-0.2,0.8-0.6,1.6-1.1,2.2
		c-0.5,0.6-1.1,1.2-1.8,1.5c-0.7,0.4-1.6,0.6-2.6,0.6c-0.8,0-1.6-0.2-2.3-0.5c-0.7-0.3-1.3-0.8-1.7-1.5h-0.1v6.4h-3.7v-18.1H138.9z
		 M143.7,214.8c0.4-0.2,0.7-0.6,1-0.9c0.2-0.4,0.4-0.8,0.5-1.4c0.1-0.5,0.2-1,0.2-1.6c0-0.5-0.1-1.1-0.2-1.6c-0.1-0.5-0.3-1-0.6-1.4
		c-0.3-0.4-0.6-0.7-1-1c-0.4-0.3-0.9-0.4-1.5-0.4c-0.6,0-1.1,0.1-1.5,0.4c-0.4,0.3-0.7,0.6-1,1c-0.3,0.4-0.4,0.9-0.5,1.4
		s-0.2,1.1-0.2,1.6c0,0.5,0.1,1.1,0.2,1.6s0.3,1,0.5,1.4c0.3,0.4,0.6,0.7,1,0.9c0.4,0.2,0.9,0.4,1.5,0.4
		C142.8,215.2,143.3,215.1,143.7,214.8z"/>
	<path class="st0" d="M154.5,204.2v2.5h0.1c0.2-0.4,0.4-0.8,0.7-1.2c0.3-0.4,0.6-0.7,1-0.9c0.4-0.3,0.8-0.4,1.2-0.6
		c0.4-0.1,0.9-0.2,1.4-0.2c0.2,0,0.5,0,0.8,0.1v3.4c-0.2,0-0.4-0.1-0.6-0.1c-0.2,0-0.5,0-0.7,0c-0.7,0-1.2,0.1-1.7,0.3
		c-0.5,0.2-0.8,0.5-1.1,0.9c-0.3,0.4-0.5,0.8-0.6,1.4c-0.1,0.5-0.2,1.1-0.2,1.7v6.1H151v-13.4H154.5z"/>
	<path class="st0" d="M160.5,208c0.3-0.9,0.8-1.6,1.4-2.2c0.6-0.6,1.3-1.1,2.2-1.4c0.8-0.3,1.8-0.5,2.9-0.5s2,0.2,2.9,0.5
		c0.9,0.3,1.6,0.8,2.2,1.4c0.6,0.6,1.1,1.4,1.4,2.2c0.3,0.9,0.5,1.9,0.5,2.9s-0.2,2-0.5,2.9c-0.3,0.9-0.8,1.6-1.4,2.2
		c-0.6,0.6-1.3,1.1-2.2,1.4c-0.9,0.3-1.8,0.5-2.9,0.5s-2-0.2-2.9-0.5c-0.8-0.3-1.6-0.8-2.2-1.4c-0.6-0.6-1.1-1.4-1.4-2.2
		c-0.3-0.9-0.5-1.8-0.5-2.9S160.2,208.9,160.5,208z M163.9,212.5c0.1,0.5,0.3,1,0.5,1.4c0.3,0.4,0.6,0.7,1,1
		c0.4,0.2,0.9,0.4,1.6,0.4s1.1-0.1,1.6-0.4c0.4-0.2,0.8-0.6,1-1s0.4-0.9,0.5-1.4c0.1-0.5,0.2-1,0.2-1.6c0-0.5-0.1-1.1-0.2-1.6
		c-0.1-0.5-0.3-1-0.5-1.4c-0.3-0.4-0.6-0.7-1-1c-0.4-0.3-0.9-0.4-1.6-0.4s-1.1,0.1-1.6,0.4c-0.4,0.3-0.8,0.6-1,1
		c-0.3,0.4-0.4,0.9-0.5,1.4c-0.1,0.5-0.2,1-0.2,1.6C163.7,211.5,163.8,212,163.9,212.5z"/>
	<path class="st0" d="M183.5,204.2v2.5h-2.7v6.7c0,0.6,0.1,1,0.3,1.2c0.2,0.2,0.6,0.3,1.2,0.3c0.2,0,0.4,0,0.6,0
		c0.2,0,0.4,0,0.5-0.1v2.9c-0.3,0.1-0.7,0.1-1,0.1c-0.4,0-0.8,0-1.1,0c-0.6,0-1.1,0-1.6-0.1c-0.5-0.1-1-0.2-1.4-0.5
		c-0.4-0.2-0.7-0.5-0.9-1c-0.2-0.4-0.3-1-0.3-1.6v-7.9h-2.2v-2.5h2.2v-4h3.7v4H183.5z"/>
	<path class="st0" d="M188.9,214.4c0.6,0.5,1.4,0.8,2.4,0.8c0.7,0,1.4-0.2,1.9-0.6c0.5-0.4,0.9-0.8,1-1.2h3.2
		c-0.5,1.6-1.3,2.8-2.4,3.5c-1.1,0.7-2.4,1-3.9,1c-1.1,0-2-0.2-2.9-0.5s-1.6-0.8-2.2-1.4c-0.6-0.6-1-1.4-1.4-2.2
		c-0.3-0.9-0.5-1.8-0.5-2.9c0-1,0.2-1.9,0.5-2.8c0.3-0.9,0.8-1.6,1.4-2.2c0.6-0.6,1.3-1.1,2.2-1.5c0.8-0.4,1.8-0.5,2.8-0.5
		c1.1,0,2.1,0.2,3,0.7c0.8,0.4,1.5,1,2.1,1.8s0.9,1.6,1.2,2.5c0.2,1,0.3,2,0.3,3H188C188.1,213,188.4,213.9,188.9,214.4z
		 M193.1,207.3c-0.4-0.5-1.1-0.7-2-0.7c-0.6,0-1.1,0.1-1.5,0.3c-0.4,0.2-0.7,0.4-0.9,0.7c-0.2,0.3-0.4,0.6-0.5,0.9
		c-0.1,0.3-0.2,0.6-0.2,0.9h6C193.9,208.5,193.6,207.8,193.1,207.3z"/>
	<path class="st0" d="M206.1,206.6c-0.6,0-1.1,0.1-1.5,0.4c-0.4,0.3-0.7,0.6-1,1c-0.3,0.4-0.4,0.9-0.5,1.4c-0.1,0.5-0.2,1-0.2,1.5
		c0,0.5,0.1,1,0.2,1.5c0.1,0.5,0.3,1,0.5,1.4c0.2,0.4,0.5,0.7,0.9,1c0.4,0.3,0.9,0.4,1.5,0.4c0.9,0,1.6-0.2,2-0.7
		c0.5-0.5,0.8-1.2,0.9-2h3.6c-0.2,1.8-0.9,3.1-2.1,4.1s-2.6,1.4-4.4,1.4c-1,0-1.9-0.2-2.8-0.5s-1.6-0.8-2.1-1.4
		c-0.6-0.6-1-1.3-1.4-2.2c-0.3-0.8-0.5-1.8-0.5-2.8c0-1,0.2-2,0.5-2.9c0.3-0.9,0.7-1.7,1.3-2.3c0.6-0.7,1.3-1.2,2.2-1.5
		c0.8-0.4,1.8-0.5,2.9-0.5c0.8,0,1.6,0.1,2.3,0.3c0.7,0.2,1.4,0.5,2,0.9s1.1,1,1.4,1.6c0.4,0.6,0.6,1.4,0.6,2.2h-3.6
		C208.6,207.4,207.7,206.6,206.1,206.6z"/>
	<path class="st0" d="M221.8,204.2v2.5h-2.7v6.7c0,0.6,0.1,1,0.3,1.2c0.2,0.2,0.6,0.3,1.2,0.3c0.2,0,0.4,0,0.6,0
		c0.2,0,0.4,0,0.5-0.1v2.9c-0.3,0.1-0.7,0.1-1,0.1c-0.4,0-0.8,0-1.1,0c-0.6,0-1.1,0-1.6-0.1c-0.5-0.1-1-0.2-1.4-0.5
		c-0.4-0.2-0.7-0.5-0.9-1c-0.2-0.4-0.3-1-0.3-1.6v-7.9h-2.2v-2.5h2.2v-4h3.7v4H221.8z"/>
</g>
<g>
	<path class="st0" d="M76.1,249.6c-0.7,0.5-1.7,0.7-3,0.7c-0.4,0-0.8,0-1.1,0c-0.4,0-0.8-0.1-1.1-0.1v-3c0.3,0,0.7,0.1,1.1,0.1
		c0.4,0,0.7,0,1.1,0c0.5-0.1,0.8-0.2,1.1-0.6c0.2-0.3,0.4-0.7,0.4-1.1c0-0.3-0.1-0.6-0.2-0.8l-4.7-12.6h3.9l3,9.2h0.1l2.9-9.2h3.8
		l-5.6,15.1C77.4,248.4,76.8,249.2,76.1,249.6z"/>
	<path class="st0" d="M84.5,236c0.3-0.9,0.8-1.6,1.4-2.2c0.6-0.6,1.3-1.1,2.2-1.4c0.8-0.3,1.8-0.5,2.9-0.5c1.1,0,2,0.2,2.9,0.5
		c0.9,0.3,1.6,0.8,2.2,1.4c0.6,0.6,1.1,1.4,1.4,2.2s0.5,1.9,0.5,2.9s-0.2,2-0.5,2.9s-0.8,1.6-1.4,2.2c-0.6,0.6-1.3,1.1-2.2,1.4
		c-0.9,0.3-1.8,0.5-2.9,0.5c-1.1,0-2-0.2-2.9-0.5c-0.8-0.3-1.6-0.8-2.2-1.4c-0.6-0.6-1.1-1.4-1.4-2.2c-0.3-0.9-0.5-1.8-0.5-2.9
		S84.2,236.9,84.5,236z M87.8,240.5c0.1,0.5,0.3,1,0.5,1.4c0.3,0.4,0.6,0.7,1,1c0.4,0.2,0.9,0.4,1.6,0.4s1.1-0.1,1.6-0.4
		c0.4-0.2,0.8-0.6,1-1c0.3-0.4,0.4-0.9,0.5-1.4s0.2-1,0.2-1.6c0-0.5-0.1-1.1-0.2-1.6s-0.3-1-0.5-1.4c-0.3-0.4-0.6-0.7-1-1
		c-0.4-0.3-0.9-0.4-1.6-0.4s-1.1,0.1-1.6,0.4c-0.4,0.3-0.8,0.6-1,1c-0.3,0.4-0.4,0.9-0.5,1.4s-0.2,1-0.2,1.6
		C87.7,239.5,87.7,240,87.8,240.5z"/>
	<path class="st0" d="M109.1,245.6v-1.9h-0.1c-0.5,0.8-1.1,1.3-1.8,1.7c-0.7,0.3-1.5,0.5-2.3,0.5c-1,0-1.8-0.1-2.4-0.4
		c-0.6-0.3-1.1-0.6-1.5-1.1c-0.4-0.5-0.6-1.1-0.8-1.7c-0.1-0.7-0.2-1.4-0.2-2.3v-8.3h3.7v7.6c0,1.1,0.2,1.9,0.5,2.5
		c0.3,0.5,1,0.8,1.8,0.8c1,0,1.7-0.3,2.2-0.9c0.5-0.6,0.7-1.6,0.7-3v-7h3.7v13.4H109.1z"/>
	<path class="st0" d="M118.7,232.2v2.5h0.1c0.2-0.4,0.4-0.8,0.7-1.2c0.3-0.4,0.6-0.7,1-0.9c0.4-0.3,0.8-0.4,1.2-0.6
		c0.4-0.1,0.9-0.2,1.4-0.2c0.2,0,0.5,0,0.8,0.1v3.4c-0.2,0-0.4-0.1-0.6-0.1c-0.2,0-0.5,0-0.7,0c-0.7,0-1.2,0.1-1.7,0.3
		c-0.5,0.2-0.8,0.5-1.1,0.9c-0.3,0.4-0.5,0.8-0.6,1.4s-0.2,1.1-0.2,1.7v6.1h-3.7v-13.4H118.7z"/>
	<path class="st0" d="M128.2,242.3c0.2,0.3,0.4,0.5,0.6,0.7c0.3,0.2,0.6,0.3,0.9,0.4s0.7,0.1,1.1,0.1c0.3,0,0.5,0,0.8-0.1
		s0.5-0.2,0.8-0.3c0.2-0.1,0.4-0.3,0.6-0.5c0.2-0.2,0.2-0.5,0.2-0.8c0-0.6-0.4-1-1.1-1.2c-0.7-0.3-1.8-0.6-3.1-0.8
		c-0.5-0.1-1.1-0.3-1.6-0.4c-0.5-0.2-1-0.4-1.4-0.6c-0.4-0.3-0.7-0.6-1-1c-0.2-0.4-0.4-0.9-0.4-1.5c0-0.9,0.2-1.6,0.5-2.1
		c0.3-0.6,0.8-1,1.3-1.3c0.6-0.3,1.2-0.5,1.9-0.7c0.7-0.1,1.4-0.2,2.1-0.2s1.4,0.1,2.1,0.2c0.7,0.1,1.3,0.4,1.8,0.7
		c0.5,0.3,1,0.8,1.3,1.3c0.4,0.5,0.6,1.2,0.6,2.1H133c-0.1-0.7-0.3-1.2-0.8-1.4c-0.5-0.3-1.1-0.4-1.7-0.4c-0.2,0-0.4,0-0.7,0
		c-0.2,0-0.5,0.1-0.7,0.2c-0.2,0.1-0.4,0.2-0.5,0.4c-0.1,0.2-0.2,0.4-0.2,0.7c0,0.3,0.1,0.6,0.4,0.8c0.2,0.2,0.6,0.4,0.9,0.5
		c0.4,0.1,0.8,0.2,1.3,0.4c0.5,0.1,1,0.2,1.5,0.3c0.5,0.1,1.1,0.3,1.6,0.4c0.5,0.2,1,0.4,1.4,0.7s0.7,0.6,1,1.1
		c0.2,0.4,0.4,0.9,0.4,1.6c0,0.9-0.2,1.6-0.5,2.2c-0.4,0.6-0.8,1.1-1.4,1.4c-0.6,0.4-1.2,0.6-2,0.8c-0.7,0.1-1.5,0.2-2.2,0.2
		c-0.8,0-1.5-0.1-2.3-0.2c-0.7-0.2-1.4-0.4-2-0.8c-0.6-0.4-1.1-0.8-1.4-1.4c-0.4-0.6-0.6-1.3-0.6-2.2h3.5
		C128,241.7,128,242,128.2,242.3z"/>
	<path class="st0" d="M142.8,242.4c0.6,0.5,1.4,0.8,2.4,0.8c0.7,0,1.4-0.2,1.9-0.6c0.5-0.4,0.9-0.8,1-1.2h3.2
		c-0.5,1.6-1.3,2.8-2.4,3.5c-1.1,0.7-2.4,1-3.9,1c-1.1,0-2-0.2-2.9-0.5s-1.6-0.8-2.2-1.4c-0.6-0.6-1-1.4-1.4-2.2
		c-0.3-0.9-0.5-1.8-0.5-2.9c0-1,0.2-1.9,0.5-2.8c0.3-0.9,0.8-1.6,1.4-2.2c0.6-0.6,1.3-1.1,2.2-1.5c0.8-0.4,1.8-0.5,2.8-0.5
		c1.1,0,2.1,0.2,3,0.7s1.5,1,2.1,1.8c0.5,0.7,0.9,1.6,1.2,2.5c0.2,1,0.3,2,0.3,3h-9.7C141.9,241,142.2,241.9,142.8,242.4z
		 M146.9,235.3c-0.4-0.5-1.1-0.7-2-0.7c-0.6,0-1.1,0.1-1.5,0.3c-0.4,0.2-0.7,0.4-0.9,0.7c-0.2,0.3-0.4,0.6-0.5,0.9
		c-0.1,0.3-0.2,0.6-0.2,0.9h6C147.7,236.5,147.4,235.8,146.9,235.3z"/>
	<path class="st0" d="M157.3,227.1v18.6h-3.7v-18.6H157.3z"/>
	<path class="st0" d="M158.6,234.7v-2.5h2.2v-1c0-1.2,0.4-2.2,1.1-2.9s1.9-1.1,3.4-1.1c0.3,0,0.7,0,1,0c0.3,0,0.6,0,1,0.1v2.8
		c-0.4-0.1-0.9-0.1-1.4-0.1c-0.5,0-0.9,0.1-1.1,0.4c-0.2,0.2-0.3,0.6-0.3,1.2v0.8h2.5v2.5h-2.5v11h-3.7v-11H158.6z"/>
	<path class="st0" d="M174,234.7v-2.5h2.2v-1c0-1.2,0.4-2.2,1.1-2.9s1.9-1.1,3.4-1.1c0.3,0,0.7,0,1,0c0.3,0,0.6,0,1,0.1v2.8
		c-0.4-0.1-0.9-0.1-1.4-0.1c-0.5,0-0.9,0.1-1.1,0.4c-0.2,0.2-0.3,0.6-0.3,1.2v0.8h2.5v2.5h-2.5v11h-3.7v-11H174z"/>
	<path class="st0" d="M187.3,232.2v2.5h0.1c0.2-0.4,0.4-0.8,0.7-1.2c0.3-0.4,0.6-0.7,1-0.9c0.4-0.3,0.8-0.4,1.2-0.6
		c0.4-0.1,0.9-0.2,1.4-0.2c0.2,0,0.5,0,0.8,0.1v3.4c-0.2,0-0.4-0.1-0.6-0.1c-0.2,0-0.5,0-0.7,0c-0.7,0-1.2,0.1-1.7,0.3
		c-0.5,0.2-0.8,0.5-1.1,0.9c-0.3,0.4-0.5,0.8-0.6,1.4c-0.1,0.5-0.2,1.1-0.2,1.7v6.1h-3.7v-13.4H187.3z"/>
	<path class="st0" d="M193.3,236c0.3-0.9,0.8-1.6,1.4-2.2c0.6-0.6,1.3-1.1,2.2-1.4c0.8-0.3,1.8-0.5,2.9-0.5s2,0.2,2.9,0.5
		c0.9,0.3,1.6,0.8,2.2,1.4c0.6,0.6,1.1,1.4,1.4,2.2c0.3,0.9,0.5,1.9,0.5,2.9s-0.2,2-0.5,2.9c-0.3,0.9-0.8,1.6-1.4,2.2
		c-0.6,0.6-1.3,1.1-2.2,1.4c-0.9,0.3-1.8,0.5-2.9,0.5s-2-0.2-2.9-0.5c-0.8-0.3-1.6-0.8-2.2-1.4c-0.6-0.6-1.1-1.4-1.4-2.2
		c-0.3-0.9-0.5-1.8-0.5-2.9S192.9,236.9,193.3,236z M196.6,240.5c0.1,0.5,0.3,1,0.5,1.4c0.3,0.4,0.6,0.7,1,1
		c0.4,0.2,0.9,0.4,1.6,0.4s1.1-0.1,1.6-0.4c0.4-0.2,0.8-0.6,1-1s0.4-0.9,0.5-1.4c0.1-0.5,0.2-1,0.2-1.6c0-0.5-0.1-1.1-0.2-1.6
		c-0.1-0.5-0.3-1-0.5-1.4c-0.3-0.4-0.6-0.7-1-1c-0.4-0.3-0.9-0.4-1.6-0.4s-1.1,0.1-1.6,0.4c-0.4,0.3-0.8,0.6-1,1
		c-0.3,0.4-0.4,0.9-0.5,1.4c-0.1,0.5-0.2,1-0.2,1.6C196.5,239.5,196.5,240,196.6,240.5z"/>
	<path class="st0" d="M212.4,232.2v1.8h0.1c0.5-0.7,1.1-1.2,1.8-1.6s1.5-0.6,2.4-0.6c0.8,0,1.6,0.2,2.3,0.5c0.7,0.3,1.2,0.9,1.6,1.7
		c0.4-0.6,0.9-1.1,1.6-1.6c0.7-0.5,1.5-0.7,2.4-0.7c0.7,0,1.4,0.1,2,0.3c0.6,0.2,1.1,0.5,1.6,0.8s0.8,0.9,1,1.5
		c0.2,0.6,0.4,1.4,0.4,2.2v9h-3.7V238c0-0.5,0-0.9-0.1-1.3c0-0.4-0.1-0.7-0.3-1c-0.2-0.3-0.4-0.5-0.7-0.7c-0.3-0.2-0.7-0.3-1.2-0.3
		c-0.5,0-0.9,0.1-1.3,0.3c-0.3,0.2-0.6,0.5-0.8,0.8s-0.3,0.7-0.4,1.1c-0.1,0.4-0.1,0.8-0.1,1.2v7.5h-3.7v-7.5c0-0.4,0-0.8,0-1.2
		c0-0.4-0.1-0.7-0.2-1.1c-0.1-0.3-0.3-0.6-0.6-0.8c-0.3-0.2-0.8-0.3-1.3-0.3c-0.2,0-0.4,0-0.7,0.1c-0.3,0.1-0.6,0.2-0.8,0.4
		s-0.5,0.5-0.7,0.9c-0.2,0.4-0.3,0.9-0.3,1.6v7.8h-3.7v-13.4H212.4z"/>
</g>
<g>
	<path class="st0" d="M96.5,273.6v-1.9h-0.1c-0.5,0.8-1.1,1.3-1.8,1.7c-0.7,0.3-1.5,0.5-2.3,0.5c-1,0-1.8-0.1-2.4-0.4
		c-0.6-0.3-1.1-0.6-1.5-1.1c-0.4-0.5-0.6-1.1-0.8-1.7c-0.1-0.7-0.2-1.4-0.2-2.3v-8.3h3.7v7.6c0,1.1,0.2,1.9,0.5,2.5
		c0.3,0.5,1,0.8,1.8,0.8c1,0,1.7-0.3,2.2-0.9c0.5-0.6,0.7-1.6,0.7-3v-7h3.7v13.4H96.5z"/>
	<path class="st0" d="M106.1,260.2v1.9h0.1c0.5-0.8,1.1-1.3,1.8-1.7c0.7-0.4,1.5-0.5,2.3-0.5c1,0,1.8,0.1,2.4,0.4s1.1,0.6,1.5,1.1
		c0.4,0.5,0.6,1.1,0.8,1.7c0.1,0.7,0.2,1.4,0.2,2.3v8.3h-3.7V266c0-1.1-0.2-1.9-0.5-2.5c-0.3-0.5-1-0.8-1.8-0.8
		c-1,0-1.7,0.3-2.2,0.9s-0.7,1.6-0.7,3v7h-3.7v-13.4H106.1z"/>
	<path class="st0" d="M124.2,262.6c-0.6,0-1.1,0.1-1.5,0.4c-0.4,0.3-0.7,0.6-1,1c-0.3,0.4-0.4,0.9-0.5,1.4s-0.2,1-0.2,1.5
		c0,0.5,0.1,1,0.2,1.5s0.3,1,0.5,1.4c0.2,0.4,0.6,0.7,0.9,1c0.4,0.3,0.9,0.4,1.5,0.4c0.9,0,1.6-0.2,2-0.7c0.5-0.5,0.8-1.2,0.9-2h3.6
		c-0.2,1.8-0.9,3.1-2.1,4.1s-2.6,1.4-4.4,1.4c-1,0-1.9-0.2-2.8-0.5s-1.6-0.8-2.1-1.4c-0.6-0.6-1-1.3-1.4-2.2
		c-0.3-0.8-0.5-1.8-0.5-2.8c0-1,0.2-2,0.5-2.9s0.7-1.7,1.3-2.3c0.6-0.7,1.3-1.2,2.2-1.5c0.8-0.4,1.8-0.5,2.9-0.5
		c0.8,0,1.6,0.1,2.3,0.3s1.4,0.5,2,0.9c0.6,0.4,1.1,1,1.4,1.6c0.4,0.6,0.6,1.4,0.6,2.2H127C126.7,263.4,125.8,262.6,124.2,262.6z"/>
	<path class="st0" d="M132.6,264c0.3-0.9,0.8-1.6,1.4-2.2c0.6-0.6,1.3-1.1,2.2-1.4c0.8-0.3,1.8-0.5,2.9-0.5c1.1,0,2,0.2,2.9,0.5
		c0.9,0.3,1.6,0.8,2.2,1.4c0.6,0.6,1.1,1.4,1.4,2.2s0.5,1.9,0.5,2.9s-0.2,2-0.5,2.9s-0.8,1.6-1.4,2.2c-0.6,0.6-1.3,1.1-2.2,1.4
		c-0.9,0.3-1.8,0.5-2.9,0.5c-1.1,0-2-0.2-2.9-0.5c-0.8-0.3-1.6-0.8-2.2-1.4c-0.6-0.6-1.1-1.4-1.4-2.2c-0.3-0.9-0.5-1.8-0.5-2.9
		S132.3,264.9,132.6,264z M135.9,268.5c0.1,0.5,0.3,1,0.5,1.4c0.3,0.4,0.6,0.7,1,1c0.4,0.2,0.9,0.4,1.6,0.4s1.1-0.1,1.6-0.4
		c0.4-0.2,0.8-0.6,1-1c0.3-0.4,0.4-0.9,0.5-1.4c0.1-0.5,0.2-1,0.2-1.6c0-0.5-0.1-1.1-0.2-1.6c-0.1-0.5-0.3-1-0.5-1.4
		c-0.3-0.4-0.6-0.7-1-1c-0.4-0.3-0.9-0.4-1.6-0.4s-1.1,0.1-1.6,0.4c-0.4,0.3-0.8,0.6-1,1c-0.3,0.4-0.4,0.9-0.5,1.4s-0.2,1-0.2,1.6
		C135.8,267.5,135.8,268,135.9,268.5z"/>
	<path class="st0" d="M151.5,273.6l-4.6-13.4h3.9l2.8,9.2h0.1l2.8-9.2h3.7l-4.5,13.4H151.5z"/>
	<path class="st0" d="M165.4,270.4c0.6,0.5,1.4,0.8,2.4,0.8c0.7,0,1.4-0.2,1.9-0.6c0.5-0.4,0.9-0.8,1-1.2h3.2
		c-0.5,1.6-1.3,2.8-2.4,3.5c-1.1,0.7-2.4,1-3.9,1c-1.1,0-2-0.2-2.9-0.5s-1.6-0.8-2.2-1.4c-0.6-0.6-1-1.4-1.4-2.2
		c-0.3-0.9-0.5-1.8-0.5-2.9c0-1,0.2-1.9,0.5-2.8c0.3-0.9,0.8-1.6,1.4-2.2c0.6-0.6,1.3-1.1,2.2-1.5c0.8-0.4,1.8-0.5,2.8-0.5
		c1.1,0,2.1,0.2,3,0.7c0.8,0.4,1.5,1,2.1,1.8s0.9,1.6,1.2,2.5c0.2,1,0.3,2,0.3,3h-9.7C164.5,269,164.8,269.9,165.4,270.4z
		 M169.6,263.3c-0.4-0.5-1.1-0.7-2-0.7c-0.6,0-1.1,0.1-1.5,0.3c-0.4,0.2-0.7,0.4-0.9,0.7c-0.2,0.3-0.4,0.6-0.5,0.9
		c-0.1,0.3-0.2,0.6-0.2,0.9h6C170.3,264.5,170,263.8,169.6,263.3z"/>
	<path class="st0" d="M179.6,260.2v2.5h0.1c0.2-0.4,0.4-0.8,0.7-1.2c0.3-0.4,0.6-0.7,1-0.9c0.4-0.3,0.8-0.4,1.2-0.6
		c0.4-0.1,0.9-0.2,1.4-0.2c0.2,0,0.5,0,0.8,0.1v3.4c-0.2,0-0.4-0.1-0.6-0.1c-0.2,0-0.5,0-0.7,0c-0.7,0-1.2,0.1-1.7,0.3
		c-0.5,0.2-0.8,0.5-1.1,0.9c-0.3,0.4-0.5,0.8-0.6,1.4c-0.1,0.5-0.2,1.1-0.2,1.7v6.1h-3.7v-13.4H179.6z"/>
	<path class="st0" d="M189.5,270.4c0.6,0.5,1.4,0.8,2.4,0.8c0.7,0,1.4-0.2,1.9-0.6c0.5-0.4,0.9-0.8,1-1.2h3.2
		c-0.5,1.6-1.3,2.8-2.4,3.5c-1.1,0.7-2.4,1-3.9,1c-1.1,0-2-0.2-2.9-0.5s-1.6-0.8-2.2-1.4c-0.6-0.6-1-1.4-1.4-2.2
		c-0.3-0.9-0.5-1.8-0.5-2.9c0-1,0.2-1.9,0.5-2.8c0.3-0.9,0.8-1.6,1.4-2.2c0.6-0.6,1.3-1.1,2.2-1.5c0.8-0.4,1.8-0.5,2.8-0.5
		c1.1,0,2.1,0.2,3,0.7c0.8,0.4,1.5,1,2.1,1.8s0.9,1.6,1.2,2.5c0.2,1,0.3,2,0.3,3h-9.7C188.6,269,188.9,269.9,189.5,270.4z
		 M193.7,263.3c-0.4-0.5-1.1-0.7-2-0.7c-0.6,0-1.1,0.1-1.5,0.3c-0.4,0.2-0.7,0.4-0.9,0.7c-0.2,0.3-0.4,0.6-0.5,0.9
		c-0.1,0.3-0.2,0.6-0.2,0.9h6C194.4,264.5,194.1,263.8,193.7,263.3z"/>
	<path class="st0" d="M209.8,271.9c-0.4,0.7-1,1.3-1.7,1.6c-0.7,0.3-1.5,0.5-2.4,0.5c-1,0-1.9-0.2-2.7-0.6s-1.4-0.9-1.9-1.6
		c-0.5-0.7-0.9-1.4-1.1-2.3s-0.4-1.8-0.4-2.7c0-0.9,0.1-1.8,0.4-2.6c0.3-0.8,0.6-1.6,1.1-2.2s1.1-1.2,1.9-1.5
		c0.7-0.4,1.6-0.6,2.6-0.6c0.8,0,1.6,0.2,2.3,0.5c0.7,0.3,1.3,0.8,1.7,1.5h0.1v-6.8h3.7v18.6h-3.5L209.8,271.9L209.8,271.9z
		 M209.6,265.3c-0.1-0.5-0.3-1-0.5-1.4s-0.6-0.7-1-0.9c-0.4-0.2-0.9-0.4-1.5-0.4c-0.6,0-1.1,0.1-1.5,0.4c-0.4,0.2-0.8,0.6-1,1
		c-0.3,0.4-0.4,0.9-0.5,1.4c-0.1,0.5-0.2,1-0.2,1.6c0,0.5,0.1,1,0.2,1.6s0.3,1,0.6,1.4c0.3,0.4,0.6,0.7,1,1c0.4,0.3,0.9,0.4,1.5,0.4
		c0.6,0,1.1-0.1,1.5-0.4c0.4-0.2,0.7-0.6,1-1c0.2-0.4,0.4-0.9,0.5-1.4c0.1-0.5,0.2-1.1,0.2-1.6S209.7,265.8,209.6,265.3z"/>
</g>
<g>
	<path class="st0" d="M45.8,288.2v1.8h0.1c0.5-0.7,1.1-1.2,1.8-1.6s1.5-0.6,2.4-0.6c0.8,0,1.6,0.2,2.3,0.5c0.7,0.3,1.2,0.9,1.6,1.7
		c0.4-0.6,0.9-1.1,1.6-1.6c0.7-0.5,1.5-0.7,2.4-0.7c0.7,0,1.4,0.1,2,0.3c0.6,0.2,1.1,0.5,1.6,0.8c0.4,0.4,0.8,0.9,1,1.5
		c0.2,0.6,0.4,1.4,0.4,2.2v9h-3.7V294c0-0.5,0-0.9-0.1-1.3c0-0.4-0.1-0.7-0.3-1c-0.2-0.3-0.4-0.5-0.7-0.7c-0.3-0.2-0.7-0.3-1.2-0.3
		c-0.5,0-0.9,0.1-1.3,0.3c-0.3,0.2-0.6,0.5-0.8,0.8s-0.3,0.7-0.4,1.1c-0.1,0.4-0.1,0.8-0.1,1.2v7.5h-3.7v-7.5c0-0.4,0-0.8,0-1.2
		c0-0.4-0.1-0.7-0.2-1.1s-0.3-0.6-0.6-0.8c-0.3-0.2-0.8-0.3-1.3-0.3c-0.2,0-0.4,0-0.7,0.1c-0.3,0.1-0.6,0.2-0.8,0.4
		s-0.5,0.5-0.7,0.9s-0.3,0.9-0.3,1.6v7.8h-3.7v-13.4H45.8z"/>
	<path class="st0" d="M69.5,298.4c0.6,0.5,1.4,0.8,2.4,0.8c0.7,0,1.4-0.2,1.9-0.6c0.5-0.4,0.9-0.8,1-1.2h3.2
		c-0.5,1.6-1.3,2.8-2.4,3.5c-1.1,0.7-2.4,1-3.9,1c-1.1,0-2-0.2-2.9-0.5s-1.6-0.8-2.2-1.4c-0.6-0.6-1-1.4-1.4-2.2
		c-0.3-0.9-0.5-1.8-0.5-2.9c0-1,0.2-1.9,0.5-2.8c0.3-0.9,0.8-1.6,1.4-2.2c0.6-0.6,1.3-1.1,2.2-1.5c0.8-0.4,1.8-0.5,2.8-0.5
		c1.1,0,2.1,0.2,3,0.7c0.8,0.4,1.5,1,2.1,1.8c0.5,0.7,0.9,1.6,1.2,2.5c0.2,1,0.3,2,0.3,3h-9.7C68.6,297,69,297.9,69.5,298.4z
		 M73.7,291.3c-0.4-0.5-1.1-0.7-2-0.7c-0.6,0-1.1,0.1-1.5,0.3c-0.4,0.2-0.7,0.4-0.9,0.7c-0.2,0.3-0.4,0.6-0.5,0.9
		c-0.1,0.3-0.2,0.6-0.2,0.9h6C74.4,292.5,74.1,291.8,73.7,291.3z"/>
	<path class="st0" d="M89.8,299.9c-0.4,0.7-1,1.3-1.7,1.6c-0.7,0.3-1.5,0.5-2.4,0.5c-1,0-1.9-0.2-2.7-0.6s-1.4-0.9-1.9-1.6
		c-0.5-0.7-0.9-1.4-1.1-2.3c-0.3-0.9-0.4-1.8-0.4-2.7c0-0.9,0.1-1.8,0.4-2.6c0.3-0.8,0.6-1.6,1.1-2.2c0.5-0.6,1.1-1.2,1.9-1.5
		c0.7-0.4,1.6-0.6,2.6-0.6c0.8,0,1.6,0.2,2.3,0.5c0.7,0.3,1.3,0.8,1.7,1.5h0.1v-6.8h3.7v18.6h-3.5L89.8,299.9L89.8,299.9z
		 M89.6,293.3c-0.1-0.5-0.3-1-0.5-1.4s-0.6-0.7-1-0.9c-0.4-0.2-0.9-0.4-1.5-0.4c-0.6,0-1.1,0.1-1.5,0.4c-0.4,0.2-0.8,0.6-1,1
		c-0.3,0.4-0.4,0.9-0.5,1.4c-0.1,0.5-0.2,1-0.2,1.6c0,0.5,0.1,1,0.2,1.6c0.1,0.5,0.3,1,0.6,1.4c0.3,0.4,0.6,0.7,1,1
		c0.4,0.3,0.9,0.4,1.5,0.4c0.6,0,1.1-0.1,1.5-0.4c0.4-0.2,0.7-0.6,1-1c0.2-0.4,0.4-0.9,0.5-1.4s0.2-1.1,0.2-1.6
		S89.7,293.8,89.6,293.3z"/>
	<path class="st0" d="M96,286.1v-3h3.7v3H96z M99.7,288.2v13.4H96v-13.4H99.7z"/>
	<path class="st0" d="M108.8,290.6c-0.6,0-1.1,0.1-1.5,0.4c-0.4,0.3-0.7,0.6-1,1c-0.3,0.4-0.4,0.9-0.5,1.4s-0.2,1-0.2,1.5
		c0,0.5,0.1,1,0.2,1.5s0.3,1,0.5,1.4c0.2,0.4,0.6,0.7,0.9,1c0.4,0.3,0.9,0.4,1.5,0.4c0.9,0,1.6-0.2,2-0.7c0.5-0.5,0.8-1.2,0.9-2h3.6
		c-0.2,1.8-0.9,3.1-2.1,4.1c-1.1,0.9-2.6,1.4-4.4,1.4c-1,0-1.9-0.2-2.8-0.5s-1.6-0.8-2.1-1.4s-1-1.3-1.4-2.2
		c-0.3-0.8-0.5-1.8-0.5-2.8c0-1,0.2-2,0.5-2.9s0.7-1.7,1.3-2.3c0.6-0.7,1.3-1.2,2.2-1.5c0.8-0.4,1.8-0.5,2.9-0.5
		c0.8,0,1.6,0.1,2.3,0.3s1.4,0.5,2,0.9c0.6,0.4,1.1,1,1.4,1.6c0.4,0.6,0.6,1.4,0.6,2.2h-3.6C111.3,291.4,110.3,290.6,108.8,290.6z"
		/>
	<path class="st0" d="M116.9,292.3c0.1-0.9,0.3-1.6,0.6-2.2c0.4-0.6,0.9-1,1.5-1.4c0.6-0.3,1.3-0.6,2-0.7c0.7-0.1,1.5-0.2,2.2-0.2
		c0.7,0,1.4,0,2.1,0.1c0.7,0.1,1.3,0.3,1.9,0.6c0.6,0.3,1,0.7,1.4,1.2c0.4,0.5,0.5,1.1,0.5,2v7c0,0.6,0,1.2,0.1,1.7s0.2,1,0.4,1.2
		h-3.7c-0.1-0.2-0.1-0.4-0.2-0.6c0-0.2-0.1-0.4-0.1-0.7c-0.6,0.6-1.3,1-2.1,1.3c-0.8,0.2-1.6,0.4-2.4,0.4c-0.6,0-1.2-0.1-1.8-0.2
		c-0.6-0.2-1-0.4-1.5-0.7s-0.7-0.7-1-1.2c-0.2-0.5-0.4-1.1-0.4-1.8c0-0.8,0.1-1.4,0.4-1.9c0.3-0.5,0.6-0.9,1-1.2
		c0.4-0.3,0.9-0.5,1.5-0.7c0.5-0.1,1.1-0.3,1.7-0.4c0.6-0.1,1.1-0.2,1.6-0.2c0.5-0.1,1-0.1,1.4-0.2s0.7-0.3,1-0.5
		c0.2-0.2,0.4-0.5,0.3-0.9c0-0.4-0.1-0.7-0.2-0.9c-0.1-0.2-0.3-0.4-0.5-0.5c-0.2-0.1-0.5-0.2-0.8-0.3c-0.3,0-0.6-0.1-0.9-0.1
		c-0.7,0-1.3,0.2-1.7,0.5s-0.7,0.8-0.7,1.6H116.9z M125.4,295.1c-0.2,0.1-0.4,0.2-0.6,0.3s-0.5,0.1-0.8,0.2
		c-0.3,0.1-0.6,0.1-0.8,0.1c-0.3,0-0.6,0.1-0.9,0.1c-0.3,0.1-0.6,0.1-0.8,0.2c-0.3,0.1-0.5,0.2-0.7,0.4c-0.2,0.1-0.4,0.3-0.5,0.6
		c-0.1,0.2-0.2,0.5-0.2,0.9c0,0.3,0.1,0.6,0.2,0.8c0.1,0.2,0.3,0.4,0.5,0.5s0.5,0.2,0.7,0.3c0.3,0.1,0.6,0.1,0.9,0.1
		c0.7,0,1.3-0.1,1.7-0.4c0.4-0.2,0.7-0.5,0.9-0.9c0.2-0.3,0.3-0.7,0.4-1c0-0.3,0.1-0.6,0.1-0.8V295.1z"/>
	<path class="st0" d="M135.5,283.1v18.6h-3.7v-18.6H135.5z"/>
	<path class="st0" d="M149.1,298.4c0.6,0.5,1.4,0.8,2.4,0.8c0.7,0,1.4-0.2,1.9-0.6c0.5-0.4,0.9-0.8,1-1.2h3.2
		c-0.5,1.6-1.3,2.8-2.4,3.5c-1.1,0.7-2.4,1-3.9,1c-1.1,0-2-0.2-2.9-0.5s-1.6-0.8-2.2-1.4c-0.6-0.6-1-1.4-1.4-2.2
		c-0.3-0.9-0.5-1.8-0.5-2.9c0-1,0.2-1.9,0.5-2.8c0.3-0.9,0.8-1.6,1.4-2.2c0.6-0.6,1.3-1.1,2.2-1.5c0.8-0.4,1.8-0.5,2.8-0.5
		c1.1,0,2.1,0.2,3,0.7c0.8,0.4,1.5,1,2.1,1.8s0.9,1.6,1.2,2.5c0.2,1,0.3,2,0.3,3h-9.7C148.3,297,148.6,297.9,149.1,298.4z
		 M153.3,291.3c-0.4-0.5-1.1-0.7-2-0.7c-0.6,0-1.1,0.1-1.5,0.3c-0.4,0.2-0.7,0.4-0.9,0.7c-0.2,0.3-0.4,0.6-0.5,0.9
		c-0.1,0.3-0.2,0.6-0.2,0.9h6C154,292.5,153.7,291.8,153.3,291.3z"/>
	<path class="st0" d="M158.9,288.2h4.2l2.4,3.5l2.3-3.5h4.1l-4.4,6.3l5,7.1h-4.2l-2.8-4.2l-2.8,4.2h-4.1l4.8-7.1L158.9,288.2z"/>
	<path class="st0" d="M177.1,288.2v1.7h0.1c0.5-0.7,1-1.3,1.7-1.6c0.7-0.3,1.5-0.5,2.3-0.5c1.1,0,2,0.2,2.7,0.6
		c0.8,0.4,1.4,0.9,1.9,1.6c0.5,0.7,0.9,1.4,1.1,2.3s0.4,1.8,0.4,2.7c0,0.9-0.1,1.8-0.4,2.6s-0.6,1.6-1.1,2.2s-1.1,1.2-1.8,1.5
		c-0.7,0.4-1.6,0.6-2.6,0.6c-0.8,0-1.6-0.2-2.3-0.5s-1.3-0.8-1.7-1.5h-0.1v6.4h-3.7v-18.1H177.1z M181.9,298.8
		c0.4-0.2,0.7-0.6,1-0.9c0.3-0.4,0.4-0.8,0.5-1.4c0.1-0.5,0.2-1,0.2-1.6c0-0.5-0.1-1.1-0.2-1.6s-0.3-1-0.6-1.4c-0.3-0.4-0.6-0.7-1-1
		c-0.4-0.3-0.9-0.4-1.5-0.4c-0.6,0-1.1,0.1-1.5,0.4c-0.4,0.3-0.7,0.6-1,1c-0.3,0.4-0.4,0.9-0.5,1.4c-0.1,0.5-0.2,1.1-0.2,1.6
		c0,0.5,0.1,1.1,0.2,1.6s0.3,1,0.5,1.4s0.6,0.7,1,0.9c0.4,0.2,0.9,0.4,1.5,0.4C181,299.2,181.5,299.1,181.9,298.8z"/>
	<path class="st0" d="M193.2,298.4c0.6,0.5,1.4,0.8,2.4,0.8c0.7,0,1.4-0.2,1.9-0.6c0.5-0.4,0.9-0.8,1-1.2h3.2
		c-0.5,1.6-1.3,2.8-2.4,3.5c-1.1,0.7-2.4,1-3.9,1c-1.1,0-2-0.2-2.9-0.5s-1.6-0.8-2.2-1.4c-0.6-0.6-1-1.4-1.4-2.2
		c-0.3-0.9-0.5-1.8-0.5-2.9c0-1,0.2-1.9,0.5-2.8c0.3-0.9,0.8-1.6,1.4-2.2c0.6-0.6,1.3-1.1,2.2-1.5c0.8-0.4,1.8-0.5,2.8-0.5
		c1.1,0,2.1,0.2,3,0.7c0.8,0.4,1.5,1,2.1,1.8s0.9,1.6,1.2,2.5c0.2,1,0.3,2,0.3,3h-9.7C192.3,297,192.6,297.9,193.2,298.4z
		 M197.3,291.3c-0.4-0.5-1.1-0.7-2-0.7c-0.6,0-1.1,0.1-1.5,0.3c-0.4,0.2-0.7,0.4-0.9,0.7c-0.2,0.3-0.4,0.6-0.5,0.9
		c-0.1,0.3-0.2,0.6-0.2,0.9h6C198.1,292.5,197.8,291.8,197.3,291.3z"/>
	<path class="st0" d="M207.4,288.2v1.9h0.1c0.5-0.8,1.1-1.3,1.8-1.7c0.7-0.4,1.5-0.5,2.3-0.5c1,0,1.8,0.1,2.4,0.4
		c0.6,0.3,1.1,0.6,1.5,1.1c0.4,0.5,0.6,1.1,0.8,1.7c0.1,0.7,0.2,1.4,0.2,2.3v8.3h-3.7V294c0-1.1-0.2-1.9-0.5-2.5
		c-0.3-0.5-1-0.8-1.8-0.8c-1,0-1.7,0.3-2.2,0.9c-0.5,0.6-0.7,1.6-0.7,3v7h-3.7v-13.4H207.4z"/>
	<path class="st0" d="M222.2,298.3c0.2,0.3,0.4,0.5,0.6,0.7c0.3,0.2,0.6,0.3,0.9,0.4s0.7,0.1,1.1,0.1c0.3,0,0.5,0,0.8-0.1
		s0.5-0.2,0.8-0.3c0.2-0.1,0.4-0.3,0.6-0.5s0.2-0.5,0.2-0.8c0-0.6-0.4-1-1.1-1.2c-0.7-0.3-1.8-0.6-3.1-0.8c-0.5-0.1-1.1-0.3-1.6-0.4
		c-0.5-0.2-1-0.4-1.4-0.6c-0.4-0.3-0.7-0.6-1-1c-0.2-0.4-0.4-0.9-0.4-1.5c0-0.9,0.2-1.6,0.5-2.1c0.3-0.6,0.8-1,1.3-1.3
		c0.6-0.3,1.2-0.5,1.9-0.7c0.7-0.1,1.4-0.2,2.1-0.2s1.4,0.1,2.1,0.2c0.7,0.1,1.3,0.4,1.8,0.7c0.5,0.3,1,0.8,1.3,1.3s0.6,1.2,0.6,2.1
		H227c-0.1-0.7-0.3-1.2-0.8-1.4c-0.5-0.3-1.1-0.4-1.7-0.4c-0.2,0-0.4,0-0.7,0c-0.2,0-0.5,0.1-0.7,0.2c-0.2,0.1-0.4,0.2-0.5,0.4
		c-0.1,0.2-0.2,0.4-0.2,0.7c0,0.3,0.1,0.6,0.4,0.8c0.2,0.2,0.6,0.4,0.9,0.5c0.4,0.1,0.8,0.2,1.3,0.4c0.5,0.1,1,0.2,1.5,0.3
		c0.5,0.1,1.1,0.3,1.6,0.4c0.5,0.2,1,0.4,1.4,0.7s0.7,0.6,1,1.1c0.2,0.4,0.4,0.9,0.4,1.6c0,0.9-0.2,1.6-0.5,2.2
		c-0.4,0.6-0.8,1.1-1.4,1.4c-0.6,0.4-1.2,0.6-2,0.8c-0.7,0.1-1.5,0.2-2.2,0.2c-0.8,0-1.5-0.1-2.3-0.2c-0.7-0.2-1.4-0.4-2-0.8
		s-1.1-0.8-1.4-1.4c-0.4-0.6-0.6-1.3-0.6-2.2h3.5C221.9,297.7,222,298,222.2,298.3z"/>
	<path class="st0" d="M236.8,298.4c0.6,0.5,1.4,0.8,2.4,0.8c0.7,0,1.4-0.2,1.9-0.6c0.5-0.4,0.9-0.8,1-1.2h3.2
		c-0.5,1.6-1.3,2.8-2.4,3.5c-1.1,0.7-2.4,1-3.9,1c-1.1,0-2-0.2-2.9-0.5s-1.6-0.8-2.2-1.4c-0.6-0.6-1-1.4-1.4-2.2
		c-0.3-0.9-0.5-1.8-0.5-2.9c0-1,0.2-1.9,0.5-2.8c0.3-0.9,0.8-1.6,1.4-2.2c0.6-0.6,1.3-1.1,2.2-1.5c0.8-0.4,1.8-0.5,2.8-0.5
		c1.1,0,2.1,0.2,3,0.7c0.8,0.4,1.5,1,2.1,1.8s0.9,1.6,1.2,2.5c0.2,1,0.3,2,0.3,3h-9.7C235.9,297,236.2,297.9,236.8,298.4z
		 M240.9,291.3c-0.4-0.5-1.1-0.7-2-0.7c-0.6,0-1.1,0.1-1.5,0.3c-0.4,0.2-0.7,0.4-0.9,0.7c-0.2,0.3-0.4,0.6-0.5,0.9
		c-0.1,0.3-0.2,0.6-0.2,0.9h6C241.7,292.5,241.4,291.8,240.9,291.3z"/>
	<path class="st0" d="M250.6,298.3c0.2,0.3,0.4,0.5,0.6,0.7c0.3,0.2,0.6,0.3,0.9,0.4s0.7,0.1,1.1,0.1c0.3,0,0.5,0,0.8-0.1
		s0.5-0.2,0.8-0.3c0.2-0.1,0.4-0.3,0.6-0.5s0.2-0.5,0.2-0.8c0-0.6-0.4-1-1.1-1.2c-0.7-0.3-1.8-0.6-3.1-0.8c-0.5-0.1-1.1-0.3-1.6-0.4
		c-0.5-0.2-1-0.4-1.4-0.6c-0.4-0.3-0.7-0.6-1-1c-0.2-0.4-0.4-0.9-0.4-1.5c0-0.9,0.2-1.6,0.5-2.1c0.3-0.6,0.8-1,1.3-1.3
		c0.6-0.3,1.2-0.5,1.9-0.7c0.7-0.1,1.4-0.2,2.1-0.2s1.4,0.1,2.1,0.2c0.7,0.1,1.3,0.4,1.8,0.7c0.5,0.3,1,0.8,1.3,1.3s0.6,1.2,0.6,2.1
		h-3.5c-0.1-0.7-0.3-1.2-0.8-1.4c-0.5-0.3-1.1-0.4-1.7-0.4c-0.2,0-0.4,0-0.7,0c-0.2,0-0.5,0.1-0.7,0.2c-0.2,0.1-0.4,0.2-0.5,0.4
		c-0.1,0.2-0.2,0.4-0.2,0.7c0,0.3,0.1,0.6,0.4,0.8c0.2,0.2,0.6,0.4,0.9,0.5c0.4,0.1,0.8,0.2,1.3,0.4c0.5,0.1,1,0.2,1.5,0.3
		c0.5,0.1,1.1,0.3,1.6,0.4c0.5,0.2,1,0.4,1.4,0.7s0.7,0.6,1,1.1c0.2,0.4,0.4,0.9,0.4,1.6c0,0.9-0.2,1.6-0.5,2.2
		c-0.4,0.6-0.8,1.1-1.4,1.4c-0.6,0.4-1.2,0.6-2,0.8c-0.7,0.1-1.5,0.2-2.2,0.2c-0.8,0-1.5-0.1-2.3-0.2c-0.7-0.2-1.4-0.4-2-0.8
		s-1.1-0.8-1.4-1.4c-0.4-0.6-0.6-1.3-0.6-2.2h3.5C250.4,297.7,250.4,298,250.6,298.3z"/>
</g>
</svg>
