<?xml version="1.0" encoding="utf-8"?>
<!-- Generator: Adobe Illustrator 26.5.0, SVG Export Plug-In . SVG Version: 6.00 Build 0)  -->
<svg version="1.1" baseProfile="tiny" id="Layer_1" xmlns="http://www.w3.org/2000/svg" xmlns:xlink="http://www.w3.org/1999/xlink"
	 x="0px" y="0px" viewBox="0 0 300 600" overflow="visible" xml:space="preserve">
<g>
	<path fill="#231F20" d="M8.8,199.4h5.8l5.5,9.3l5.5-9.3h5.8l-8.7,14.5v9h-5.2v-9.2L8.8,199.4z"/>
	<path fill="#231F20" d="M29,210.7c0.4-1.1,1-2.1,1.8-2.8c0.8-0.8,1.7-1.4,2.8-1.8c1.1-0.4,2.3-0.6,3.6-0.6c1.3,0,2.6,0.2,3.6,0.6
		c1.1,0.4,2,1,2.8,1.8c0.8,0.8,1.4,1.7,1.8,2.8c0.4,1.1,0.6,2.3,0.6,3.7c0,1.4-0.2,2.6-0.6,3.7c-0.4,1.1-1,2-1.8,2.8
		c-0.8,0.8-1.7,1.4-2.8,1.8c-1.1,0.4-2.3,0.6-3.6,0.6c-1.3,0-2.6-0.2-3.6-0.6c-1.1-0.4-2-1-2.8-1.8c-0.8-0.8-1.4-1.7-1.8-2.8
		s-0.6-2.3-0.6-3.7C28.4,213.1,28.6,211.8,29,210.7z M33.3,216.4c0.1,0.6,0.4,1.2,0.7,1.7c0.3,0.5,0.7,0.9,1.3,1.2s1.2,0.5,2,0.5
		s1.5-0.2,2-0.5c0.5-0.3,1-0.7,1.3-1.2c0.3-0.5,0.5-1.1,0.7-1.7c0.1-0.6,0.2-1.3,0.2-2c0-0.7-0.1-1.4-0.2-2
		c-0.1-0.7-0.4-1.2-0.7-1.7c-0.3-0.5-0.7-0.9-1.3-1.2c-0.5-0.3-1.2-0.5-2-0.5s-1.5,0.2-2,0.5c-0.5,0.3-1,0.7-1.3,1.2
		c-0.3,0.5-0.5,1.1-0.7,1.7c-0.1,0.7-0.2,1.3-0.2,2C33.1,215.1,33.2,215.8,33.3,216.4z"/>
	<path fill="#231F20" d="M60.3,223v-2.4h-0.1c-0.6,1-1.4,1.7-2.3,2.1s-1.9,0.7-2.9,0.7c-1.3,0-2.3-0.2-3.1-0.5
		c-0.8-0.3-1.4-0.8-1.9-1.4s-0.8-1.3-1-2.2c-0.2-0.9-0.3-1.8-0.3-2.9v-10.5h4.7v9.6c0,1.4,0.2,2.5,0.7,3.2c0.4,0.7,1.2,1,2.3,1
		c1.3,0,2.2-0.4,2.8-1.1c0.6-0.8,0.9-2,0.9-3.7v-8.9h4.7V223H60.3z"/>
	<path fill="#231F20" d="M92.5,205.7c-0.3-0.5-0.7-0.9-1.2-1.3c-0.5-0.4-1-0.7-1.6-0.9c-0.6-0.2-1.2-0.3-1.8-0.3
		c-1.2,0-2.2,0.2-3,0.7c-0.8,0.5-1.5,1.1-2,1.8c-0.5,0.8-0.9,1.6-1.1,2.6c-0.2,1-0.3,2-0.3,3c0,1,0.1,2,0.3,2.9
		c0.2,0.9,0.6,1.8,1.1,2.5c0.5,0.7,1.2,1.3,2,1.8c0.8,0.5,1.8,0.7,3,0.7c1.6,0,2.8-0.5,3.7-1.5c0.9-1,1.4-2.2,1.6-3.8h5
		c-0.1,1.5-0.5,2.8-1,4s-1.3,2.2-2.2,3c-0.9,0.8-2,1.5-3.2,1.9c-1.2,0.4-2.5,0.7-4,0.7c-1.8,0-3.4-0.3-4.9-0.9
		c-1.4-0.6-2.7-1.5-3.6-2.6c-1-1.1-1.7-2.4-2.3-3.9c-0.5-1.5-0.8-3.1-0.8-4.8c0-1.8,0.3-3.4,0.8-4.9c0.5-1.5,1.3-2.8,2.3-3.9
		c1-1.1,2.2-2,3.6-2.6c1.4-0.6,3.1-1,4.9-1c1.3,0,2.5,0.2,3.7,0.6c1.2,0.4,2.2,0.9,3.1,1.6c0.9,0.7,1.7,1.6,2.3,2.7
		c0.6,1.1,1,2.3,1.1,3.6h-5C93,206.7,92.8,206.2,92.5,205.7z"/>
	<path fill="#231F20" d="M113.2,199.4l8.8,23.6h-5.4l-1.8-5.2h-8.8l-1.8,5.2H99l8.9-23.6H113.2z M113.5,213.8l-3-8.6h-0.1l-3.1,8.6
		H113.5z"/>
	<path fill="#231F20" d="M129,199.4l9.8,15.8h0.1v-15.8h4.8V223h-5.2l-9.8-15.8h-0.1V223h-4.9v-23.6H129z"/>
	<path fill="#231F20" d="M152.6,199.4v5c0,0.7-0.1,1.4-0.3,2c-0.2,0.6-0.6,1.2-1,1.7c-0.4,0.5-0.9,0.9-1.5,1.2
		c-0.6,0.3-1.2,0.5-1.9,0.6v-2.2c0.8-0.3,1.4-0.7,1.7-1.3c0.3-0.6,0.5-1.2,0.5-2.1h-2.2v-5.1H152.6z"/>
	<path fill="#231F20" d="M154.9,203.7v-4.4h19.3v4.4h-7.1V223H162v-19.2H154.9z"/>
	<path fill="#231F20" d="M194.9,218.1c-0.2,0.9-0.5,1.8-1.1,2.6c-0.6,0.8-1.3,1.5-2.4,2c-1,0.5-2.4,0.8-4.2,0.8
		c-1,0-1.9-0.1-2.9-0.4c-0.9-0.3-1.7-0.7-2.5-1.3c-0.7-0.6-1.3-1.3-1.7-2.2c-0.4-0.9-0.7-2-0.7-3.3v-2h4.7v1.1c0,0.6,0,1.1,0.1,1.6
		c0.1,0.5,0.2,0.9,0.5,1.2c0.2,0.3,0.5,0.6,0.9,0.8c0.4,0.2,0.9,0.3,1.5,0.3c0.7,0,1.2-0.1,1.6-0.4c0.4-0.2,0.6-0.6,0.8-0.9
		c0.2-0.4,0.3-0.8,0.3-1.3c0-0.5,0-0.9,0-1.3v-15.9h5.2v16.1C195.1,216.3,195,217.1,194.9,218.1z"/>
	<path fill="#231F20" d="M216.7,221.2c-1.8,1.6-4.2,2.3-7.4,2.3c-3.2,0-5.7-0.8-7.4-2.3c-1.7-1.5-2.6-3.9-2.6-7.1v-14.7h5.2V214
		c0,0.6,0.1,1.3,0.2,1.9c0.1,0.6,0.3,1.2,0.7,1.6c0.4,0.5,0.8,0.9,1.5,1.2c0.6,0.3,1.5,0.4,2.5,0.4c1.8,0,3.1-0.4,3.8-1.2
		c0.7-0.8,1.1-2.1,1.1-3.9v-14.7h5.2V214C219.4,217.2,218.5,219.6,216.7,221.2z"/>
	<path fill="#231F20" d="M233.7,199.4c1.5,0,2.9,0.2,4.2,0.7c1.3,0.5,2.4,1.2,3.4,2.2c1,1,1.7,2.2,2.2,3.6c0.5,1.5,0.8,3.2,0.8,5.1
		c0,1.7-0.2,3.3-0.7,4.8c-0.4,1.5-1.1,2.7-2,3.8s-2,1.9-3.3,2.5c-1.3,0.6-2.9,0.9-4.7,0.9h-10.2v-23.6H233.7z M233.3,218.6
		c0.7,0,1.5-0.1,2.2-0.4c0.7-0.2,1.3-0.6,1.9-1.2s1-1.3,1.3-2.2c0.3-0.9,0.5-2,0.5-3.3c0-1.2-0.1-2.3-0.3-3.2
		c-0.2-1-0.6-1.8-1.1-2.5c-0.5-0.7-1.2-1.2-2.1-1.6c-0.9-0.4-1.9-0.5-3.2-0.5h-3.7v14.9H233.3z"/>
	<path fill="#231F20" d="M261.6,222.8c-1.1,0.5-2.3,0.7-3.4,0.7c-1.8,0-3.4-0.3-4.9-0.9c-1.4-0.6-2.7-1.5-3.6-2.6s-1.7-2.4-2.3-3.9
		c-0.5-1.5-0.8-3.1-0.8-4.8c0-1.8,0.3-3.4,0.8-4.9c0.5-1.5,1.3-2.8,2.3-3.9s2.2-2,3.6-2.6c1.4-0.6,3.1-1,4.9-1
		c1.2,0,2.4,0.2,3.5,0.5c1.1,0.4,2.2,0.9,3.1,1.6c0.9,0.7,1.7,1.6,2.3,2.6c0.6,1,1,2.2,1.1,3.6h-4.9c-0.3-1.3-0.9-2.3-1.8-3
		c-0.9-0.7-1.9-1-3.2-1c-1.2,0-2.2,0.2-3,0.7c-0.8,0.5-1.5,1.1-2,1.8c-0.5,0.8-0.9,1.6-1.1,2.6c-0.2,1-0.3,2-0.3,3
		c0,1,0.1,2,0.3,2.9c0.2,0.9,0.6,1.8,1.1,2.5c0.5,0.7,1.2,1.3,2,1.8c0.8,0.5,1.8,0.7,3,0.7c1.7,0,3-0.4,4-1.3
		c0.9-0.9,1.5-2.1,1.6-3.8h-5.2v-3.9h9.9V223h-3.3l-0.5-2.7C263.7,221.5,262.7,222.3,261.6,222.8z"/>
	<path fill="#231F20" d="M290,199.4v4.4h-12.4v5H289v4h-11.4v5.8h12.7v4.4h-17.9v-23.6H290z"/>
</g>
<g>
	<path fill="#339933" d="M58.8,246.1c0.1-1.1,0.3-2,0.8-2.7c0.5-0.7,1.1-1.3,1.8-1.7s1.6-0.8,2.5-0.9c0.9-0.2,1.9-0.3,2.8-0.3
		c0.9,0,1.7,0.1,2.6,0.2c0.9,0.1,1.7,0.4,2.4,0.7s1.3,0.8,1.8,1.5s0.7,1.5,0.7,2.5v8.9c0,0.8,0,1.5,0.1,2.2c0.1,0.7,0.2,1.2,0.5,1.6
		h-4.8c-0.1-0.3-0.2-0.5-0.2-0.8c-0.1-0.3-0.1-0.6-0.1-0.8c-0.7,0.8-1.6,1.3-2.6,1.6c-1,0.3-2,0.5-3.1,0.5c-0.8,0-1.6-0.1-2.3-0.3
		c-0.7-0.2-1.3-0.5-1.8-0.9c-0.5-0.4-0.9-0.9-1.2-1.6c-0.3-0.6-0.4-1.4-0.4-2.3c0-1,0.2-1.8,0.5-2.4c0.3-0.6,0.8-1.1,1.3-1.5
		c0.5-0.4,1.2-0.7,1.8-0.8c0.7-0.2,1.4-0.3,2.1-0.4c0.7-0.1,1.4-0.2,2.1-0.3c0.7-0.1,1.3-0.2,1.8-0.3c0.5-0.1,0.9-0.3,1.3-0.6
		c0.3-0.3,0.5-0.6,0.4-1.1c0-0.5-0.1-0.9-0.2-1.2c-0.2-0.3-0.4-0.5-0.7-0.7c-0.3-0.2-0.6-0.3-1-0.3c-0.4-0.1-0.8-0.1-1.2-0.1
		c-0.9,0-1.6,0.2-2.2,0.6c-0.5,0.4-0.8,1.1-0.9,2H58.8z M69.6,249.6c-0.2,0.2-0.4,0.3-0.7,0.4s-0.6,0.2-1,0.2
		c-0.3,0.1-0.7,0.1-1.1,0.2c-0.4,0-0.7,0.1-1.1,0.2c-0.4,0.1-0.7,0.2-1,0.3c-0.3,0.1-0.6,0.3-0.9,0.4c-0.3,0.2-0.5,0.4-0.6,0.7
		c-0.2,0.3-0.2,0.6-0.2,1.1c0,0.4,0.1,0.8,0.2,1.1c0.2,0.3,0.4,0.5,0.6,0.7c0.3,0.2,0.6,0.3,0.9,0.3c0.4,0.1,0.7,0.1,1.1,0.1
		c0.9,0,1.6-0.2,2.1-0.5c0.5-0.3,0.9-0.7,1.1-1.1c0.2-0.4,0.4-0.9,0.4-1.3c0.1-0.4,0.1-0.8,0.1-1.1V249.6z"/>
	<path fill="#339933" d="M83.5,238.8v-4.4h19.3v4.4h-7.1V258h-5.2v-19.2H83.5z"/>
	<path fill="#339933" d="M104.9,241.4c0.5-1.5,1.3-2.8,2.3-3.9c1-1.1,2.2-2,3.6-2.6c1.4-0.6,3.1-1,4.9-1c1.8,0,3.5,0.3,4.9,1
		c1.4,0.6,2.6,1.5,3.6,2.6c1,1.1,1.7,2.4,2.3,3.9c0.5,1.5,0.8,3.1,0.8,4.9c0,1.7-0.3,3.3-0.8,4.8c-0.5,1.5-1.3,2.8-2.3,3.9
		c-1,1.1-2.2,2-3.6,2.6c-1.4,0.6-3.1,0.9-4.9,0.9c-1.8,0-3.4-0.3-4.9-0.9c-1.4-0.6-2.7-1.5-3.6-2.6c-1-1.1-1.7-2.4-2.3-3.9
		c-0.5-1.5-0.8-3.1-0.8-4.8C104.1,244.5,104.4,242.9,104.9,241.4z M109.7,249.2c0.2,0.9,0.6,1.8,1.1,2.5c0.5,0.7,1.2,1.3,2,1.8
		c0.8,0.5,1.8,0.7,3,0.7s2.2-0.2,3-0.7c0.8-0.5,1.5-1.1,2-1.8c0.5-0.7,0.9-1.6,1.1-2.5s0.3-1.9,0.3-2.9c0-1-0.1-2-0.3-3
		c-0.2-1-0.6-1.8-1.1-2.6c-0.5-0.8-1.2-1.4-2-1.8c-0.8-0.5-1.8-0.7-3-0.7s-2.2,0.2-3,0.7c-0.8,0.5-1.5,1.1-2,1.8
		c-0.5,0.8-0.9,1.6-1.1,2.6c-0.2,1-0.3,2-0.3,3C109.3,247.3,109.4,248.2,109.7,249.2z"/>
	<path fill="#339933" d="M130.3,241.4c0.5-1.5,1.3-2.8,2.3-3.9s2.2-2,3.6-2.6c1.4-0.6,3.1-1,4.9-1c1.8,0,3.5,0.3,4.9,1
		c1.4,0.6,2.6,1.5,3.6,2.6c1,1.1,1.7,2.4,2.3,3.9c0.5,1.5,0.8,3.1,0.8,4.9c0,1.7-0.3,3.3-0.8,4.8c-0.5,1.5-1.3,2.8-2.3,3.9
		c-1,1.1-2.2,2-3.6,2.6s-3.1,0.9-4.9,0.9c-1.8,0-3.4-0.3-4.9-0.9c-1.4-0.6-2.7-1.5-3.6-2.6s-1.7-2.4-2.3-3.9
		c-0.5-1.5-0.8-3.1-0.8-4.8C129.5,244.5,129.8,242.9,130.3,241.4z M135,249.2c0.2,0.9,0.6,1.8,1.1,2.5c0.5,0.7,1.2,1.3,2,1.8
		c0.8,0.5,1.8,0.7,3,0.7s2.2-0.2,3-0.7c0.8-0.5,1.5-1.1,2-1.8c0.5-0.7,0.9-1.6,1.1-2.5c0.2-0.9,0.3-1.9,0.3-2.9c0-1-0.1-2-0.3-3
		c-0.2-1-0.6-1.8-1.1-2.6c-0.5-0.8-1.2-1.4-2-1.8c-0.8-0.5-1.8-0.7-3-0.7s-2.2,0.2-3,0.7c-0.8,0.5-1.5,1.1-2,1.8
		c-0.5,0.8-0.9,1.6-1.1,2.6c-0.2,1-0.3,2-0.3,3C134.7,247.3,134.8,248.2,135,249.2z"/>
	<path fill="#339933" d="M154,238.8v-4.4h19.3v4.4h-7.1V258h-5.2v-19.2H154z"/>
	<path fill="#339933" d="M180.9,234.4v9h9.5v-9h5.2V258h-5.2v-10.2h-9.5V258h-5.2v-23.6H180.9z"/>
	<path fill="#339933" d="M212.9,234.4v8.6h0.1c0.6-0.9,1.3-1.5,2.3-1.9c1-0.4,2-0.6,3.1-0.6c0.9,0,1.7,0.2,2.5,0.5
		c0.8,0.4,1.6,0.9,2.3,1.6c0.7,0.7,1.2,1.7,1.6,2.8c0.4,1.1,0.6,2.5,0.6,4s-0.2,2.9-0.6,4c-0.4,1.1-1,2.1-1.6,2.8
		c-0.7,0.7-1.4,1.3-2.3,1.6c-0.8,0.4-1.7,0.5-2.5,0.5c-1.3,0-2.4-0.2-3.4-0.6s-1.7-1.1-2.2-2h-0.1v2.2h-4.5v-23.6H212.9z
		 M220.5,247.4c-0.2-0.7-0.4-1.2-0.7-1.7c-0.3-0.5-0.7-0.9-1.2-1.2s-1.1-0.4-1.8-0.4c-0.7,0-1.3,0.1-1.8,0.4s-0.9,0.7-1.3,1.2
		c-0.3,0.5-0.6,1.1-0.7,1.7c-0.2,0.7-0.2,1.4-0.2,2.1c0,0.7,0.1,1.4,0.2,2c0.2,0.7,0.4,1.2,0.7,1.7c0.3,0.5,0.7,0.9,1.3,1.2
		c0.5,0.3,1.1,0.4,1.8,0.4c0.7,0,1.3-0.1,1.8-0.4c0.5-0.3,0.9-0.7,1.2-1.2c0.3-0.5,0.6-1.1,0.7-1.7c0.2-0.7,0.2-1.3,0.2-2
		C220.7,248.7,220.7,248,220.5,247.4z"/>
	<path fill="#339933" d="M234.4,263c-0.9,0.6-2.2,0.9-3.8,0.9c-0.5,0-1,0-1.4,0c-0.5,0-1-0.1-1.4-0.1v-3.9c0.4,0,0.9,0.1,1.4,0.1
		c0.5,0,0.9,0.1,1.4,0c0.6-0.1,1.1-0.3,1.4-0.7c0.3-0.4,0.4-0.9,0.4-1.4c0-0.4-0.1-0.7-0.2-1.1l-6-16h5l3.9,11.7h0.1l3.7-11.7h4.9
		l-7.1,19.2C236,261.5,235.3,262.5,234.4,263z"/>
</g>
<g>
	<path fill="#339933" d="M59.9,273.3v-3.9h4.7v3.9H59.9z M64.6,275.9V293h-4.7v-17.1H64.6z"/>
	<path fill="#339933" d="M77.3,275.9v3.1h-3.4v8.4c0,0.8,0.1,1.3,0.4,1.6c0.3,0.3,0.8,0.4,1.6,0.4c0.3,0,0.5,0,0.8,0
		c0.2,0,0.5-0.1,0.7-0.1v3.6c-0.4,0.1-0.8,0.1-1.3,0.1c-0.5,0-1,0-1.4,0c-0.7,0-1.4,0-2.1-0.1c-0.6-0.1-1.2-0.3-1.7-0.6
		c-0.5-0.3-0.9-0.7-1.2-1.2c-0.3-0.5-0.4-1.2-0.4-2.1v-10.1h-2.8v-3.1h2.8v-5.1h4.7v5.1H77.3z"/>
	<path fill="#339933" d="M83.2,288.7c0.2,0.4,0.5,0.7,0.8,0.9c0.3,0.2,0.7,0.4,1.1,0.5c0.4,0.1,0.9,0.2,1.3,0.2c0.3,0,0.7,0,1-0.1
		c0.4-0.1,0.7-0.2,1-0.4s0.5-0.4,0.7-0.7c0.2-0.3,0.3-0.6,0.3-1c0-0.7-0.5-1.2-1.4-1.6c-0.9-0.4-2.2-0.7-3.9-1.1
		c-0.7-0.2-1.3-0.3-2-0.5c-0.6-0.2-1.2-0.5-1.7-0.8c-0.5-0.3-0.9-0.8-1.2-1.3c-0.3-0.5-0.5-1.1-0.5-1.9c0-1.1,0.2-2,0.6-2.7
		c0.4-0.7,1-1.3,1.7-1.7c0.7-0.4,1.5-0.7,2.4-0.9s1.8-0.2,2.7-0.2c0.9,0,1.8,0.1,2.7,0.3s1.6,0.5,2.3,0.9c0.7,0.4,1.2,1,1.7,1.7
		c0.5,0.7,0.7,1.6,0.8,2.6h-4.5c-0.1-0.9-0.4-1.5-1-1.8c-0.6-0.3-1.3-0.5-2.2-0.5c-0.3,0-0.6,0-0.9,0c-0.3,0-0.6,0.1-0.8,0.2
		c-0.3,0.1-0.5,0.3-0.6,0.5c-0.2,0.2-0.3,0.5-0.3,0.8c0,0.4,0.2,0.8,0.5,1c0.3,0.3,0.7,0.5,1.2,0.6s1.1,0.3,1.7,0.4
		c0.6,0.1,1.3,0.3,1.9,0.4c0.7,0.2,1.3,0.3,2,0.6c0.6,0.2,1.2,0.5,1.7,0.9c0.5,0.4,0.9,0.8,1.2,1.4c0.3,0.5,0.5,1.2,0.5,2
		c0,1.1-0.2,2.1-0.7,2.8c-0.5,0.8-1,1.4-1.8,1.8c-0.7,0.5-1.6,0.8-2.5,1c-0.9,0.2-1.9,0.3-2.9,0.3c-1,0-2-0.1-2.9-0.3
		c-0.9-0.2-1.8-0.5-2.5-1c-0.7-0.5-1.3-1.1-1.8-1.8c-0.5-0.8-0.7-1.7-0.8-2.9h4.5C82.9,287.9,83,288.4,83.2,288.7z"/>
	<path fill="#339933" d="M109.5,293l-7.6-23.6h5.3l5.2,16.6h0.1l5.3-16.6h5.3l-7.8,23.6H109.5z"/>
	<path fill="#339933" d="M142.5,269.4v4.4h-12.4v5h11.4v4h-11.4v5.8h12.7v4.4h-17.9v-23.6H142.5z"/>
	<path fill="#339933" d="M151.1,269.4l9.8,15.8h0.1v-15.8h4.9V293h-5.2l-9.8-15.8h-0.1V293h-4.9v-23.6H151.1z"/>
	<path fill="#339933" d="M187.7,269.4v4.4h-12.4v5h11.4v4h-11.4v5.8H188v4.4h-17.9v-23.6H187.7z"/>
	<path fill="#339933" d="M208.8,269.4v4.4h-12.4v5h11.4v4h-11.4v5.8H209v4.4h-17.9v-23.6H208.8z"/>
	<path fill="#339933" d="M224.9,269.4c1.1,0,2,0.2,2.9,0.5c0.8,0.3,1.6,0.8,2.2,1.4c0.6,0.6,1.1,1.3,1.4,2.1
		c0.3,0.8,0.5,1.6,0.5,2.5c0,1.4-0.3,2.6-0.9,3.6c-0.6,1-1.5,1.8-2.9,2.3v0.1c0.6,0.2,1.2,0.4,1.6,0.8c0.4,0.4,0.8,0.8,1,1.3
		c0.3,0.5,0.5,1,0.6,1.6c0.1,0.6,0.2,1.2,0.2,1.8c0,0.4,0,0.8,0.1,1.3c0,0.5,0.1,1,0.1,1.6c0.1,0.5,0.1,1,0.3,1.5
		c0.1,0.5,0.3,0.9,0.5,1.2h-5.2c-0.3-0.7-0.5-1.6-0.5-2.7c-0.1-1-0.2-2-0.3-3c-0.2-1.2-0.6-2.1-1.1-2.7c-0.6-0.6-1.5-0.9-2.8-0.9
		h-5.2v9.2h-5.2v-23.6H224.9z M223.1,280.1c1.2,0,2.1-0.3,2.7-0.8c0.6-0.5,0.9-1.4,0.9-2.6c0-1.1-0.3-2-0.9-2.5
		c-0.6-0.5-1.5-0.8-2.7-0.8h-5.7v6.6H223.1z"/>
	<path fill="#339933" d="M240.6,287.9v5.1h-5.2v-5.1H240.6z"/>
</g>
</svg>
