<?xml version="1.0" encoding="utf-8"?>
<!-- Generator: Adobe Illustrator 26.5.0, SVG Export Plug-In . SVG Version: 6.00 Build 0)  -->
<svg version="1.1" id="Layer_1" xmlns="http://www.w3.org/2000/svg" xmlns:xlink="http://www.w3.org/1999/xlink" x="0px" y="0px"
	 viewBox="0 0 300 600" style="enable-background:new 0 0 300 600;" xml:space="preserve">
<style type="text/css">
	.st0{fill:#231F20;}
</style>
<g>
	<path class="st0" d="M71.4,214c0.2,0.4,0.5,0.8,0.9,1.1c0.4,0.3,0.8,0.5,1.3,0.6c0.5,0.1,1,0.2,1.6,0.2c0.4,0,0.8,0,1.2-0.1
		s0.8-0.2,1.2-0.4c0.4-0.2,0.7-0.4,0.9-0.7c0.2-0.3,0.4-0.7,0.4-1.2c0-0.5-0.2-0.9-0.5-1.2s-0.7-0.6-1.3-0.8s-1.1-0.4-1.8-0.5
		c-0.7-0.2-1.3-0.3-2-0.5c-0.7-0.2-1.4-0.4-2-0.6c-0.7-0.3-1.2-0.6-1.8-1c-0.5-0.4-0.9-0.9-1.3-1.5c-0.3-0.6-0.5-1.3-0.5-2.2
		c0-1,0.2-1.8,0.6-2.5s0.9-1.3,1.6-1.8c0.7-0.5,1.4-0.8,2.2-1c0.8-0.2,1.7-0.3,2.5-0.3c1,0,1.9,0.1,2.8,0.3c0.9,0.2,1.7,0.6,2.4,1.1
		s1.2,1.1,1.7,1.9c0.4,0.8,0.6,1.7,0.6,2.7h-4c0-0.6-0.2-1-0.4-1.4c-0.2-0.4-0.5-0.7-0.8-0.9s-0.7-0.4-1.1-0.4
		c-0.4-0.1-0.9-0.1-1.4-0.1c-0.3,0-0.7,0-1,0.1c-0.3,0.1-0.6,0.2-0.9,0.4c-0.3,0.2-0.5,0.4-0.7,0.7c-0.2,0.3-0.3,0.6-0.3,1
		c0,0.4,0.1,0.7,0.2,0.9c0.1,0.2,0.4,0.4,0.8,0.6c0.4,0.2,1,0.4,1.7,0.6c0.7,0.2,1.7,0.4,2.8,0.7c0.3,0.1,0.8,0.2,1.4,0.4
		c0.6,0.2,1.2,0.5,1.8,0.9c0.6,0.4,1.1,0.9,1.6,1.6c0.4,0.7,0.7,1.5,0.7,2.6c0,0.8-0.2,1.6-0.5,2.4s-0.8,1.4-1.5,1.9
		c-0.6,0.5-1.5,0.9-2.4,1.2S76.3,219,75,219c-1,0-2-0.1-3-0.4c-1-0.3-1.8-0.6-2.5-1.2c-0.7-0.5-1.3-1.2-1.8-2.1
		c-0.4-0.8-0.6-1.8-0.6-3h4C71.1,213.1,71.2,213.6,71.4,214z"/>
	<path class="st0" d="M93.6,218.6v-1.9h-0.1c-0.5,0.8-1.1,1.3-1.8,1.7c-0.7,0.3-1.5,0.5-2.3,0.5c-1,0-1.8-0.1-2.4-0.4
		c-0.6-0.3-1.1-0.6-1.5-1.1c-0.4-0.5-0.6-1.1-0.8-1.7c-0.1-0.7-0.2-1.4-0.2-2.3v-8.3h3.7v7.6c0,1.1,0.2,1.9,0.5,2.5
		c0.3,0.5,1,0.8,1.8,0.8c1,0,1.7-0.3,2.2-0.9c0.5-0.6,0.7-1.6,0.7-3v-7h3.7v13.4H93.6z"/>
	<path class="st0" d="M103.2,205.2v1.7h0.1c0.5-0.7,1-1.3,1.7-1.6c0.7-0.3,1.5-0.5,2.3-0.5c1.1,0,2,0.2,2.7,0.6
		c0.8,0.4,1.4,0.9,1.9,1.6c0.5,0.7,0.9,1.4,1.1,2.3s0.4,1.8,0.4,2.7c0,0.9-0.1,1.8-0.4,2.6s-0.6,1.6-1.1,2.2
		c-0.5,0.6-1.1,1.2-1.8,1.5c-0.7,0.4-1.6,0.6-2.6,0.6c-0.8,0-1.6-0.2-2.3-0.5s-1.3-0.8-1.7-1.5h-0.1v6.4h-3.7v-18.1H103.2z
		 M108,215.8c0.4-0.2,0.7-0.6,1-0.9c0.3-0.4,0.4-0.8,0.5-1.4s0.2-1,0.2-1.6c0-0.5-0.1-1.1-0.2-1.6c-0.1-0.5-0.3-1-0.6-1.4
		c-0.3-0.4-0.6-0.7-1-1c-0.4-0.3-0.9-0.4-1.5-0.4c-0.6,0-1.1,0.1-1.5,0.4c-0.4,0.3-0.7,0.6-1,1c-0.3,0.4-0.4,0.9-0.5,1.4
		s-0.2,1.1-0.2,1.6c0,0.5,0.1,1.1,0.2,1.6s0.3,1,0.5,1.4c0.3,0.4,0.6,0.7,1,0.9c0.4,0.2,0.9,0.4,1.5,0.4
		C107.1,216.2,107.6,216.1,108,215.8z"/>
	<path class="st0" d="M118.9,205.2v1.7h0.1c0.5-0.7,1-1.3,1.7-1.6c0.7-0.3,1.5-0.5,2.3-0.5c1.1,0,2,0.2,2.7,0.6
		c0.8,0.4,1.4,0.9,1.9,1.6c0.5,0.7,0.9,1.4,1.1,2.3s0.4,1.8,0.4,2.7c0,0.9-0.1,1.8-0.4,2.6s-0.6,1.6-1.1,2.2
		c-0.5,0.6-1.1,1.2-1.8,1.5c-0.7,0.4-1.6,0.6-2.6,0.6c-0.8,0-1.6-0.2-2.3-0.5s-1.3-0.8-1.7-1.5H119v6.4h-3.7v-18.1H118.9z
		 M123.7,215.8c0.4-0.2,0.7-0.6,1-0.9c0.3-0.4,0.4-0.8,0.5-1.4s0.2-1,0.2-1.6c0-0.5-0.1-1.1-0.2-1.6c-0.1-0.5-0.3-1-0.6-1.4
		c-0.3-0.4-0.6-0.7-1-1c-0.4-0.3-0.9-0.4-1.5-0.4c-0.6,0-1.1,0.1-1.5,0.4c-0.4,0.3-0.7,0.6-1,1c-0.3,0.4-0.4,0.9-0.5,1.4
		s-0.2,1.1-0.2,1.6c0,0.5,0.1,1.1,0.2,1.6s0.3,1,0.5,1.4c0.3,0.4,0.6,0.7,1,0.9c0.4,0.2,0.9,0.4,1.5,0.4
		C122.7,216.2,123.3,216.1,123.7,215.8z"/>
	<path class="st0" d="M134.8,200.1v18.6h-3.7v-18.6H134.8z"/>
	<path class="st0" d="M141.4,215.4c0.6,0.5,1.4,0.8,2.4,0.8c0.7,0,1.4-0.2,1.9-0.6c0.5-0.4,0.9-0.8,1-1.2h3.2
		c-0.5,1.6-1.3,2.8-2.4,3.5c-1.1,0.7-2.4,1-3.9,1c-1.1,0-2-0.2-2.9-0.5s-1.6-0.8-2.2-1.4c-0.6-0.6-1-1.4-1.4-2.2
		c-0.3-0.9-0.5-1.8-0.5-2.9c0-1,0.2-1.9,0.5-2.8c0.3-0.9,0.8-1.6,1.4-2.2c0.6-0.6,1.3-1.1,2.2-1.5c0.8-0.4,1.8-0.5,2.8-0.5
		c1.1,0,2.1,0.2,3,0.7c0.8,0.4,1.5,1,2.1,1.8c0.5,0.7,0.9,1.6,1.2,2.5c0.2,1,0.3,2,0.3,3h-9.7C140.5,214,140.9,214.9,141.4,215.4z
		 M145.6,208.3c-0.4-0.5-1.1-0.7-2-0.7c-0.6,0-1.1,0.1-1.5,0.3c-0.4,0.2-0.7,0.4-0.9,0.7c-0.2,0.3-0.4,0.6-0.5,0.9
		c-0.1,0.3-0.2,0.6-0.2,0.9h6C146.3,209.5,146,208.8,145.6,208.3z"/>
	<path class="st0" d="M155.7,205.2v1.8h0.1c0.5-0.7,1.1-1.2,1.8-1.6s1.5-0.6,2.4-0.6c0.8,0,1.6,0.2,2.3,0.5c0.7,0.3,1.2,0.9,1.6,1.7
		c0.4-0.6,0.9-1.1,1.6-1.6c0.7-0.5,1.5-0.7,2.4-0.7c0.7,0,1.4,0.1,2,0.3c0.6,0.2,1.1,0.5,1.6,0.8s0.8,0.9,1,1.5
		c0.2,0.6,0.4,1.4,0.4,2.2v9h-3.7V211c0-0.5,0-0.9-0.1-1.3c0-0.4-0.1-0.7-0.3-1c-0.2-0.3-0.4-0.5-0.7-0.7c-0.3-0.2-0.7-0.3-1.2-0.3
		c-0.5,0-0.9,0.1-1.3,0.3c-0.3,0.2-0.6,0.5-0.8,0.8s-0.3,0.7-0.4,1.1c-0.1,0.4-0.1,0.8-0.1,1.2v7.5h-3.7v-7.5c0-0.4,0-0.8,0-1.2
		c0-0.4-0.1-0.7-0.2-1.1c-0.1-0.3-0.3-0.6-0.6-0.8c-0.3-0.2-0.8-0.3-1.3-0.3c-0.2,0-0.4,0-0.7,0.1c-0.3,0.1-0.6,0.2-0.8,0.4
		s-0.5,0.5-0.7,0.9c-0.2,0.4-0.3,0.9-0.3,1.6v7.8h-3.7v-13.4H155.7z"/>
	<path class="st0" d="M179.4,215.4c0.6,0.5,1.4,0.8,2.4,0.8c0.7,0,1.4-0.2,1.9-0.6c0.5-0.4,0.9-0.8,1-1.2h3.2
		c-0.5,1.6-1.3,2.8-2.4,3.5c-1.1,0.7-2.4,1-3.9,1c-1.1,0-2-0.2-2.9-0.5s-1.6-0.8-2.2-1.4c-0.6-0.6-1-1.4-1.4-2.2
		c-0.3-0.9-0.5-1.8-0.5-2.9c0-1,0.2-1.9,0.5-2.8c0.3-0.9,0.8-1.6,1.4-2.2c0.6-0.6,1.3-1.1,2.2-1.5c0.8-0.4,1.8-0.5,2.8-0.5
		c1.1,0,2.1,0.2,3,0.7c0.8,0.4,1.5,1,2.1,1.8s0.9,1.6,1.2,2.5c0.2,1,0.3,2,0.3,3h-9.7C178.6,214,178.9,214.9,179.4,215.4z
		 M183.6,208.3c-0.4-0.5-1.1-0.7-2-0.7c-0.6,0-1.1,0.1-1.5,0.3c-0.4,0.2-0.7,0.4-0.9,0.7c-0.2,0.3-0.4,0.6-0.5,0.9
		c-0.1,0.3-0.2,0.6-0.2,0.9h6C184.3,209.5,184,208.8,183.6,208.3z"/>
	<path class="st0" d="M193.7,205.2v1.9h0.1c0.5-0.8,1.1-1.3,1.8-1.7c0.7-0.4,1.5-0.5,2.3-0.5c1,0,1.8,0.1,2.4,0.4
		c0.6,0.3,1.1,0.6,1.5,1.1c0.4,0.5,0.6,1.1,0.8,1.7c0.1,0.7,0.2,1.4,0.2,2.3v8.3h-3.7V211c0-1.1-0.2-1.9-0.5-2.5
		c-0.3-0.5-1-0.8-1.8-0.8c-1,0-1.7,0.3-2.2,0.9c-0.5,0.6-0.7,1.6-0.7,3v7h-3.7v-13.4H193.7z"/>
	<path class="st0" d="M212.7,205.2v2.5H210v6.7c0,0.6,0.1,1,0.3,1.2c0.2,0.2,0.6,0.3,1.2,0.3c0.2,0,0.4,0,0.6,0c0.2,0,0.4,0,0.5-0.1
		v2.9c-0.3,0.1-0.7,0.1-1,0.1c-0.4,0-0.8,0-1.1,0c-0.6,0-1.1,0-1.6-0.1c-0.5-0.1-1-0.2-1.4-0.5c-0.4-0.2-0.7-0.5-0.9-1
		c-0.2-0.4-0.3-1-0.3-1.6v-7.9h-2.2v-2.5h2.2v-4h3.7v4H212.7z"/>
	<path class="st0" d="M214.1,209.3c0.1-0.9,0.3-1.6,0.7-2.2c0.4-0.6,0.9-1,1.5-1.4c0.6-0.3,1.3-0.6,2-0.7c0.7-0.1,1.5-0.2,2.2-0.2
		c0.7,0,1.4,0,2.1,0.1c0.7,0.1,1.3,0.3,1.9,0.6c0.6,0.3,1,0.7,1.4,1.2c0.4,0.5,0.5,1.1,0.5,2v7c0,0.6,0,1.2,0.1,1.7
		c0.1,0.6,0.2,1,0.4,1.2H223c-0.1-0.2-0.1-0.4-0.2-0.6c0-0.2-0.1-0.4-0.1-0.7c-0.6,0.6-1.3,1-2.1,1.3c-0.8,0.2-1.6,0.4-2.4,0.4
		c-0.6,0-1.2-0.1-1.8-0.2c-0.6-0.2-1-0.4-1.5-0.7c-0.4-0.3-0.7-0.7-1-1.2c-0.2-0.5-0.4-1.1-0.4-1.8c0-0.8,0.1-1.4,0.4-1.9
		c0.3-0.5,0.6-0.9,1-1.2c0.4-0.3,0.9-0.5,1.5-0.7c0.5-0.1,1.1-0.3,1.7-0.4c0.6-0.1,1.1-0.2,1.6-0.2c0.5-0.1,1-0.1,1.4-0.2
		s0.7-0.3,1-0.5c0.2-0.2,0.4-0.5,0.3-0.9c0-0.4-0.1-0.7-0.2-0.9c-0.1-0.2-0.3-0.4-0.5-0.5c-0.2-0.1-0.5-0.2-0.8-0.3
		c-0.3,0-0.6-0.1-0.9-0.1c-0.7,0-1.3,0.2-1.7,0.5s-0.7,0.8-0.7,1.6H214.1z M222.6,212c-0.2,0.1-0.4,0.2-0.6,0.3
		c-0.2,0.1-0.5,0.1-0.8,0.2c-0.3,0.1-0.5,0.1-0.8,0.1c-0.3,0-0.6,0.1-0.9,0.1c-0.3,0.1-0.6,0.1-0.8,0.2s-0.5,0.2-0.7,0.4
		s-0.4,0.3-0.5,0.6c-0.1,0.2-0.2,0.5-0.2,0.9c0,0.3,0.1,0.6,0.2,0.8c0.1,0.2,0.3,0.4,0.5,0.5s0.5,0.2,0.7,0.3
		c0.3,0.1,0.6,0.1,0.9,0.1c0.7,0,1.3-0.1,1.7-0.4c0.4-0.2,0.7-0.5,0.9-0.9c0.2-0.3,0.3-0.7,0.4-1c0-0.3,0.1-0.6,0.1-0.8V212z"/>
	<path class="st0" d="M232.7,200.1v18.6h-3.7v-18.6H232.7z"/>
</g>
<g>
	<path class="st0" d="M47.6,230.1l4.3,12.8H52l4.1-12.8h5.7v18.6H58v-13.2H58l-4.6,13.2h-3.1l-4.5-13h-0.1v13h-3.8v-18.6H47.6z"/>
	<path class="st0" d="M68.7,245.4c0.6,0.5,1.4,0.8,2.4,0.8c0.7,0,1.4-0.2,1.9-0.6c0.5-0.4,0.9-0.8,1-1.2h3.2
		c-0.5,1.6-1.3,2.8-2.4,3.5c-1.1,0.7-2.4,1-3.9,1c-1.1,0-2-0.2-2.9-0.5s-1.6-0.8-2.2-1.4c-0.6-0.6-1-1.4-1.4-2.2
		c-0.3-0.9-0.5-1.8-0.5-2.9c0-1,0.2-1.9,0.5-2.8c0.3-0.9,0.8-1.6,1.4-2.2c0.6-0.6,1.3-1.1,2.2-1.5c0.8-0.4,1.8-0.5,2.8-0.5
		c1.1,0,2.1,0.2,3,0.7c0.8,0.4,1.5,1,2.1,1.8c0.5,0.7,0.9,1.6,1.2,2.5c0.2,1,0.3,2,0.3,3h-9.7C67.9,244,68.2,244.9,68.7,245.4z
		 M72.9,238.3c-0.4-0.5-1.1-0.7-2-0.7c-0.6,0-1.1,0.1-1.5,0.3c-0.4,0.2-0.7,0.4-0.9,0.7c-0.2,0.3-0.4,0.6-0.5,0.9
		c-0.1,0.3-0.2,0.6-0.2,0.9h6C73.7,239.5,73.4,238.8,72.9,238.3z"/>
	<path class="st0" d="M89,246.9c-0.4,0.7-1,1.3-1.7,1.6c-0.7,0.3-1.5,0.5-2.4,0.5c-1,0-1.9-0.2-2.7-0.6s-1.4-0.9-1.9-1.6
		c-0.5-0.7-0.9-1.4-1.1-2.3c-0.3-0.9-0.4-1.8-0.4-2.7c0-0.9,0.1-1.8,0.4-2.6c0.3-0.8,0.6-1.6,1.1-2.2c0.5-0.6,1.1-1.2,1.9-1.5
		c0.7-0.4,1.6-0.6,2.6-0.6c0.8,0,1.6,0.2,2.3,0.5c0.7,0.3,1.3,0.8,1.7,1.5h0.1v-6.8h3.7v18.6h-3.5L89,246.9L89,246.9z M88.9,240.3
		c-0.1-0.5-0.3-1-0.5-1.4s-0.6-0.7-1-0.9c-0.4-0.2-0.9-0.4-1.5-0.4c-0.6,0-1.1,0.1-1.5,0.4c-0.4,0.2-0.8,0.6-1,1
		c-0.3,0.4-0.4,0.9-0.5,1.4c-0.1,0.5-0.2,1-0.2,1.6c0,0.5,0.1,1,0.2,1.6c0.1,0.5,0.3,1,0.6,1.4c0.3,0.4,0.6,0.7,1,1
		c0.4,0.3,0.9,0.4,1.5,0.4c0.6,0,1.1-0.1,1.5-0.4c0.4-0.2,0.7-0.6,1-1c0.2-0.4,0.4-0.9,0.5-1.4s0.2-1.1,0.2-1.6S89,240.8,88.9,240.3
		z"/>
	<path class="st0" d="M95.2,233.1v-3h3.7v3H95.2z M98.9,235.2v13.4h-3.7v-13.4H98.9z"/>
	<path class="st0" d="M108,237.6c-0.6,0-1.1,0.1-1.5,0.4c-0.4,0.3-0.7,0.6-1,1c-0.3,0.4-0.4,0.9-0.5,1.4s-0.2,1-0.2,1.5
		c0,0.5,0.1,1,0.2,1.5s0.3,1,0.5,1.4c0.2,0.4,0.6,0.7,0.9,1c0.4,0.3,0.9,0.4,1.5,0.4c0.9,0,1.6-0.2,2-0.7c0.5-0.5,0.8-1.2,0.9-2h3.6
		c-0.2,1.8-0.9,3.1-2.1,4.1s-2.6,1.4-4.4,1.4c-1,0-1.9-0.2-2.8-0.5s-1.6-0.8-2.1-1.4c-0.6-0.6-1-1.3-1.4-2.2
		c-0.3-0.8-0.5-1.8-0.5-2.8c0-1,0.2-2,0.5-2.9s0.7-1.7,1.3-2.3c0.6-0.7,1.3-1.2,2.2-1.5c0.8-0.4,1.8-0.5,2.9-0.5
		c0.8,0,1.6,0.1,2.3,0.3s1.4,0.5,2,0.9c0.6,0.4,1.1,1,1.4,1.6c0.4,0.6,0.6,1.4,0.6,2.2h-3.6C110.5,238.4,109.6,237.6,108,237.6z"/>
	<path class="st0" d="M116.1,239.3c0.1-0.9,0.3-1.6,0.6-2.2c0.4-0.6,0.9-1,1.5-1.4c0.6-0.3,1.3-0.6,2-0.7c0.7-0.1,1.5-0.2,2.2-0.2
		c0.7,0,1.4,0,2.1,0.1c0.7,0.1,1.3,0.3,1.9,0.6c0.6,0.3,1,0.7,1.4,1.2c0.4,0.5,0.5,1.1,0.5,2v7c0,0.6,0,1.2,0.1,1.7
		c0.1,0.6,0.2,1,0.4,1.2h-3.7c-0.1-0.2-0.1-0.4-0.2-0.6c0-0.2-0.1-0.4-0.1-0.7c-0.6,0.6-1.3,1-2.1,1.3c-0.8,0.2-1.6,0.4-2.4,0.4
		c-0.6,0-1.2-0.1-1.8-0.2s-1-0.4-1.5-0.7c-0.4-0.3-0.7-0.7-1-1.2c-0.2-0.5-0.4-1.1-0.4-1.8c0-0.8,0.1-1.4,0.4-1.9
		c0.3-0.5,0.6-0.9,1-1.2c0.4-0.3,0.9-0.5,1.5-0.7c0.5-0.1,1.1-0.3,1.7-0.4c0.6-0.1,1.1-0.2,1.6-0.2c0.5-0.1,1-0.1,1.4-0.2
		s0.7-0.3,1-0.5c0.2-0.2,0.4-0.5,0.3-0.9c0-0.4-0.1-0.7-0.2-0.9c-0.1-0.2-0.3-0.4-0.5-0.5c-0.2-0.1-0.5-0.2-0.8-0.3
		c-0.3,0-0.6-0.1-0.9-0.1c-0.7,0-1.3,0.2-1.7,0.5s-0.7,0.8-0.7,1.6H116.1z M124.6,242.1c-0.2,0.1-0.4,0.2-0.6,0.3s-0.5,0.1-0.8,0.2
		c-0.3,0.1-0.6,0.1-0.8,0.1c-0.3,0-0.6,0.1-0.9,0.1c-0.3,0.1-0.6,0.1-0.8,0.2c-0.3,0.1-0.5,0.2-0.7,0.4c-0.2,0.1-0.4,0.3-0.5,0.6
		c-0.1,0.2-0.2,0.5-0.2,0.9c0,0.3,0.1,0.6,0.2,0.8c0.1,0.2,0.3,0.4,0.5,0.5s0.5,0.2,0.7,0.3c0.3,0.1,0.6,0.1,0.9,0.1
		c0.7,0,1.3-0.1,1.7-0.4c0.4-0.2,0.7-0.5,0.9-0.9c0.2-0.3,0.3-0.7,0.4-1c0-0.3,0.1-0.6,0.1-0.8V242.1z"/>
	<path class="st0" d="M134.8,230.1v18.6h-3.7v-18.6H134.8z"/>
	<path class="st0" d="M156.7,235c-0.2-0.4-0.5-0.7-0.9-1c-0.4-0.3-0.8-0.5-1.2-0.7c-0.5-0.2-0.9-0.2-1.4-0.2c-0.9,0-1.7,0.2-2.3,0.5
		c-0.6,0.4-1.2,0.8-1.6,1.4c-0.4,0.6-0.7,1.3-0.9,2c-0.2,0.8-0.3,1.6-0.3,2.4c0,0.8,0.1,1.5,0.3,2.3c0.2,0.7,0.5,1.4,0.9,2
		s0.9,1.1,1.6,1.4c0.6,0.4,1.4,0.5,2.3,0.5c1.2,0,2.2-0.4,2.9-1.1s1.1-1.8,1.3-3h4c-0.1,1.2-0.4,2.2-0.8,3.1s-1,1.7-1.7,2.4
		s-1.5,1.2-2.5,1.5s-2,0.5-3.1,0.5c-1.4,0-2.7-0.2-3.8-0.7c-1.1-0.5-2.1-1.2-2.9-2c-0.8-0.9-1.4-1.9-1.8-3.1s-0.6-2.4-0.6-3.8
		c0-1.4,0.2-2.7,0.6-3.9c0.4-1.2,1-2.2,1.8-3.1c0.8-0.9,1.7-1.6,2.9-2.1c1.1-0.5,2.4-0.8,3.8-0.8c1,0,2,0.1,2.9,0.4
		c0.9,0.3,1.7,0.7,2.4,1.3c0.7,0.6,1.3,1.3,1.8,2.1c0.5,0.8,0.8,1.8,0.9,2.9h-4C157.1,235.8,156.9,235.4,156.7,235z"/>
	<path class="st0" d="M163.5,239c0.3-0.9,0.8-1.6,1.4-2.2c0.6-0.6,1.3-1.1,2.2-1.4c0.8-0.3,1.8-0.5,2.9-0.5s2,0.2,2.9,0.5
		c0.9,0.3,1.6,0.8,2.2,1.4c0.6,0.6,1.1,1.4,1.4,2.2c0.3,0.9,0.5,1.9,0.5,2.9s-0.2,2-0.5,2.9c-0.3,0.9-0.8,1.6-1.4,2.2
		c-0.6,0.6-1.3,1.1-2.2,1.4c-0.9,0.3-1.8,0.5-2.9,0.5s-2-0.2-2.9-0.5c-0.8-0.3-1.6-0.8-2.2-1.4c-0.6-0.6-1.1-1.4-1.4-2.2
		c-0.3-0.9-0.5-1.8-0.5-2.9S163.2,239.9,163.5,239z M166.9,243.5c0.1,0.5,0.3,1,0.5,1.4c0.3,0.4,0.6,0.7,1,1
		c0.4,0.2,0.9,0.4,1.6,0.4s1.1-0.1,1.6-0.4c0.4-0.2,0.8-0.6,1-1s0.4-0.9,0.5-1.4c0.1-0.5,0.2-1,0.2-1.6c0-0.5-0.1-1.1-0.2-1.6
		c-0.1-0.5-0.3-1-0.5-1.4c-0.3-0.4-0.6-0.7-1-1c-0.4-0.3-0.9-0.4-1.6-0.4s-1.1,0.1-1.6,0.4c-0.4,0.3-0.8,0.6-1,1
		c-0.3,0.4-0.4,0.9-0.5,1.4c-0.1,0.5-0.2,1-0.2,1.6C166.7,242.5,166.8,243,166.9,243.5z"/>
	<path class="st0" d="M182.4,248.6l-4.6-13.4h3.9l2.8,9.2h0.1l2.8-9.2h3.7l-4.5,13.4H182.4z"/>
	<path class="st0" d="M196.3,245.4c0.6,0.5,1.4,0.8,2.4,0.8c0.7,0,1.4-0.2,1.9-0.6c0.5-0.4,0.9-0.8,1-1.2h3.2
		c-0.5,1.6-1.3,2.8-2.4,3.5c-1.1,0.7-2.4,1-3.9,1c-1.1,0-2-0.2-2.9-0.5s-1.6-0.8-2.2-1.4c-0.6-0.6-1-1.4-1.4-2.2
		c-0.3-0.9-0.5-1.8-0.5-2.9c0-1,0.2-1.9,0.5-2.8c0.3-0.9,0.8-1.6,1.4-2.2c0.6-0.6,1.3-1.1,2.2-1.5c0.8-0.4,1.8-0.5,2.8-0.5
		c1.1,0,2.1,0.2,3,0.7c0.8,0.4,1.5,1,2.1,1.8s0.9,1.6,1.2,2.5c0.2,1,0.3,2,0.3,3h-9.7C195.4,244,195.7,244.9,196.3,245.4z
		 M200.5,238.3c-0.4-0.5-1.1-0.7-2-0.7c-0.6,0-1.1,0.1-1.5,0.3c-0.4,0.2-0.7,0.4-0.9,0.7c-0.2,0.3-0.4,0.6-0.5,0.9
		c-0.1,0.3-0.2,0.6-0.2,0.9h6C201.2,239.5,200.9,238.8,200.5,238.3z"/>
	<path class="st0" d="M210.5,235.2v2.5h0.1c0.2-0.4,0.4-0.8,0.7-1.2c0.3-0.4,0.6-0.7,1-0.9c0.4-0.3,0.8-0.4,1.2-0.6
		c0.4-0.1,0.9-0.2,1.4-0.2c0.2,0,0.5,0,0.8,0.1v3.4c-0.2,0-0.4-0.1-0.6-0.1c-0.2,0-0.5,0-0.7,0c-0.7,0-1.2,0.1-1.7,0.3
		c-0.5,0.2-0.8,0.5-1.1,0.9c-0.3,0.4-0.5,0.8-0.6,1.4c-0.1,0.5-0.2,1.1-0.2,1.7v6.1H207v-13.4H210.5z"/>
	<path class="st0" d="M216.8,239.3c0.1-0.9,0.3-1.6,0.7-2.2c0.4-0.6,0.9-1,1.5-1.4c0.6-0.3,1.3-0.6,2-0.7c0.7-0.1,1.5-0.2,2.2-0.2
		c0.7,0,1.4,0,2.1,0.1c0.7,0.1,1.3,0.3,1.9,0.6c0.6,0.3,1,0.7,1.4,1.2c0.4,0.5,0.5,1.1,0.5,2v7c0,0.6,0,1.2,0.1,1.7
		c0.1,0.6,0.2,1,0.4,1.2h-3.7c-0.1-0.2-0.1-0.4-0.2-0.6c0-0.2-0.1-0.4-0.1-0.7c-0.6,0.6-1.3,1-2.1,1.3c-0.8,0.2-1.6,0.4-2.4,0.4
		c-0.6,0-1.2-0.1-1.8-0.2c-0.6-0.2-1-0.4-1.5-0.7c-0.4-0.3-0.7-0.7-1-1.2c-0.2-0.5-0.4-1.1-0.4-1.8c0-0.8,0.1-1.4,0.4-1.9
		c0.3-0.5,0.6-0.9,1-1.2c0.4-0.3,0.9-0.5,1.5-0.7c0.5-0.1,1.1-0.3,1.7-0.4c0.6-0.1,1.1-0.2,1.6-0.2c0.5-0.1,1-0.1,1.4-0.2
		s0.7-0.3,1-0.5c0.2-0.2,0.4-0.5,0.3-0.9c0-0.4-0.1-0.7-0.2-0.9c-0.1-0.2-0.3-0.4-0.5-0.5c-0.2-0.1-0.5-0.2-0.8-0.3
		c-0.3,0-0.6-0.1-0.9-0.1c-0.7,0-1.3,0.2-1.7,0.5s-0.7,0.8-0.7,1.6H216.8z M225.3,242.1c-0.2,0.1-0.4,0.2-0.6,0.3
		c-0.2,0.1-0.5,0.1-0.8,0.2c-0.3,0.1-0.5,0.1-0.8,0.1c-0.3,0-0.6,0.1-0.9,0.1c-0.3,0.1-0.6,0.1-0.8,0.2s-0.5,0.2-0.7,0.4
		s-0.4,0.3-0.5,0.6c-0.1,0.2-0.2,0.5-0.2,0.9c0,0.3,0.1,0.6,0.2,0.8c0.1,0.2,0.3,0.4,0.5,0.5s0.5,0.2,0.7,0.3
		c0.3,0.1,0.6,0.1,0.9,0.1c0.7,0,1.3-0.1,1.7-0.4c0.4-0.2,0.7-0.5,0.9-0.9c0.2-0.3,0.3-0.7,0.4-1c0-0.3,0.1-0.6,0.1-0.8V242.1z"/>
	<path class="st0" d="M244.3,249.6c-0.1,0.7-0.5,1.3-0.9,1.9c-0.5,0.6-1.2,1.1-2.1,1.5s-2.1,0.6-3.7,0.6c-0.7,0-1.3-0.1-2-0.2
		c-0.7-0.2-1.3-0.4-1.9-0.8c-0.6-0.3-1-0.8-1.4-1.3c-0.4-0.5-0.6-1.2-0.6-2h3.7c0.2,0.7,0.5,1.2,1,1.4c0.5,0.3,1.1,0.4,1.7,0.4
		c1,0,1.8-0.3,2.3-0.9s0.7-1.4,0.7-2.4v-1.8H241c-0.4,0.7-1,1.2-1.7,1.6c-0.7,0.3-1.5,0.5-2.3,0.5c-1,0-1.9-0.2-2.6-0.5
		c-0.7-0.4-1.3-0.8-1.8-1.5s-0.8-1.3-1-2.2c-0.2-0.8-0.3-1.7-0.3-2.6c0-0.9,0.1-1.7,0.4-2.5c0.3-0.8,0.6-1.5,1.1-2.1
		c0.5-0.6,1.1-1.1,1.8-1.5c0.7-0.4,1.5-0.5,2.5-0.5c0.9,0,1.7,0.2,2.3,0.5c0.7,0.3,1.2,0.9,1.7,1.7h0.1v-1.8h3.5v12.6
		C244.5,248.3,244.4,248.9,244.3,249.6z M239.2,245.1c0.4-0.2,0.7-0.5,1-0.8s0.5-0.7,0.6-1.2s0.2-0.9,0.2-1.4c0-0.6-0.1-1.1-0.2-1.6
		c-0.1-0.5-0.3-0.9-0.5-1.3c-0.2-0.4-0.6-0.7-1-0.9c-0.4-0.2-0.9-0.3-1.5-0.3c-0.5,0-1,0.1-1.3,0.3c-0.4,0.2-0.7,0.5-0.9,0.8
		c-0.3,0.4-0.4,0.8-0.5,1.2c-0.1,0.5-0.2,0.9-0.2,1.4c0,0.5,0,1,0.1,1.4c0.1,0.5,0.3,0.9,0.5,1.3c0.2,0.4,0.5,0.7,0.9,0.9
		c0.4,0.2,0.9,0.4,1.4,0.4C238.4,245.5,238.8,245.4,239.2,245.1z"/>
	<path class="st0" d="M251.2,245.4c0.6,0.5,1.4,0.8,2.4,0.8c0.7,0,1.4-0.2,1.9-0.6c0.5-0.4,0.9-0.8,1-1.2h3.2
		c-0.5,1.6-1.3,2.8-2.4,3.5c-1.1,0.7-2.4,1-3.9,1c-1.1,0-2-0.2-2.9-0.5s-1.6-0.8-2.2-1.4c-0.6-0.6-1-1.4-1.4-2.2
		c-0.3-0.9-0.5-1.8-0.5-2.9c0-1,0.2-1.9,0.5-2.8c0.3-0.9,0.8-1.6,1.4-2.2c0.6-0.6,1.3-1.1,2.2-1.5c0.8-0.4,1.8-0.5,2.8-0.5
		c1.1,0,2.1,0.2,3,0.7c0.8,0.4,1.5,1,2.1,1.8s0.9,1.6,1.2,2.5c0.2,1,0.3,2,0.3,3h-9.7C250.3,244,250.6,244.9,251.2,245.4z
		 M255.4,238.3c-0.4-0.5-1.1-0.7-2-0.7c-0.6,0-1.1,0.1-1.5,0.3c-0.4,0.2-0.7,0.4-0.9,0.7c-0.2,0.3-0.4,0.6-0.5,0.9
		c-0.1,0.3-0.2,0.6-0.2,0.9h6C256.1,239.5,255.8,238.8,255.4,238.3z"/>
</g>
</svg>
