<?xml version="1.0" encoding="utf-8"?>
<!-- Generator: Adobe Illustrator 26.5.0, SVG Export Plug-In . SVG Version: 6.00 Build 0)  -->
<svg version="1.1" baseProfile="tiny" id="Layer_1" xmlns="http://www.w3.org/2000/svg" xmlns:xlink="http://www.w3.org/1999/xlink"
	 x="0px" y="0px" viewBox="0 0 300 600" overflow="visible" xml:space="preserve">
<g>
	<path fill="#231F20" d="M37.1,199.1l6.9,18.6h-4.2l-1.4-4.1h-6.9l-1.5,4.1h-4.1l7-18.6H37.1z M37.3,210.5l-2.3-6.8H35l-2.4,6.8
		H37.3z"/>
	<path fill="#231F20" d="M48.5,204.2v1.9h0.1c0.5-0.8,1.1-1.3,1.8-1.7c0.7-0.4,1.5-0.5,2.3-0.5c1,0,1.8,0.1,2.4,0.4s1.1,0.6,1.5,1.1
		c0.4,0.5,0.6,1.1,0.8,1.7c0.1,0.7,0.2,1.4,0.2,2.3v8.3h-3.7V210c0-1.1-0.2-1.9-0.5-2.5c-0.3-0.5-1-0.8-1.8-0.8
		c-1,0-1.7,0.3-2.2,0.9s-0.7,1.6-0.7,3v7H45v-13.4H48.5z"/>
	<path fill="#231F20" d="M69.7,215.9c-0.4,0.7-1,1.3-1.7,1.6c-0.7,0.3-1.5,0.5-2.4,0.5c-1,0-1.9-0.2-2.7-0.6s-1.4-0.9-1.9-1.6
		c-0.5-0.7-0.9-1.4-1.1-2.3c-0.3-0.9-0.4-1.8-0.4-2.7c0-0.9,0.1-1.8,0.4-2.6c0.3-0.8,0.6-1.6,1.1-2.2c0.5-0.6,1.1-1.2,1.9-1.5
		c0.7-0.4,1.6-0.6,2.6-0.6c0.8,0,1.6,0.2,2.3,0.5c0.7,0.3,1.3,0.8,1.7,1.5h0.1v-6.8h3.7v18.6h-3.5L69.7,215.9L69.7,215.9z
		 M69.6,209.3c-0.1-0.5-0.3-1-0.5-1.4s-0.6-0.7-1-0.9c-0.4-0.2-0.9-0.4-1.5-0.4c-0.6,0-1.1,0.1-1.5,0.4c-0.4,0.2-0.8,0.6-1,1
		c-0.3,0.4-0.4,0.9-0.5,1.4c-0.1,0.5-0.2,1-0.2,1.6c0,0.5,0.1,1,0.2,1.6c0.1,0.5,0.3,1,0.6,1.4c0.3,0.4,0.6,0.7,1,1
		c0.4,0.3,0.9,0.4,1.5,0.4c0.6,0,1.1-0.1,1.5-0.4c0.4-0.2,0.7-0.6,1-1c0.2-0.4,0.4-0.9,0.5-1.4s0.2-1.1,0.2-1.6
		S69.7,209.8,69.6,209.3z"/>
	<path fill="#231F20" d="M86.3,204.2v1.7h0.1c0.5-0.7,1-1.3,1.7-1.6c0.7-0.3,1.5-0.5,2.3-0.5c1.1,0,2,0.2,2.7,0.6
		c0.8,0.4,1.4,0.9,1.9,1.6c0.5,0.7,0.9,1.4,1.1,2.3s0.4,1.8,0.4,2.7c0,0.9-0.1,1.8-0.4,2.6s-0.6,1.6-1.1,2.2
		c-0.5,0.6-1.1,1.2-1.8,1.5c-0.7,0.4-1.6,0.6-2.6,0.6c-0.8,0-1.6-0.2-2.3-0.5s-1.3-0.8-1.7-1.5h-0.1v6.4h-3.7v-18.1H86.3z
		 M91.1,214.8c0.4-0.2,0.7-0.6,1-0.9c0.3-0.4,0.4-0.8,0.5-1.4s0.2-1,0.2-1.6c0-0.5-0.1-1.1-0.2-1.6c-0.1-0.5-0.3-1-0.6-1.4
		c-0.3-0.4-0.6-0.7-1-1c-0.4-0.3-0.9-0.4-1.5-0.4c-0.6,0-1.1,0.1-1.5,0.4c-0.4,0.3-0.7,0.6-1,1c-0.3,0.4-0.4,0.9-0.5,1.4
		s-0.2,1.1-0.2,1.6c0,0.5,0.1,1.1,0.2,1.6s0.3,1,0.5,1.4c0.3,0.4,0.6,0.7,1,0.9c0.4,0.2,0.9,0.4,1.5,0.4
		C90.2,215.2,90.7,215.1,91.1,214.8z"/>
	<path fill="#231F20" d="M102,204.2v2.5h0.1c0.2-0.4,0.4-0.8,0.7-1.2c0.3-0.4,0.6-0.7,1-0.9c0.4-0.3,0.8-0.4,1.2-0.6
		c0.4-0.1,0.9-0.2,1.4-0.2c0.2,0,0.5,0,0.8,0.1v3.4c-0.2,0-0.4-0.1-0.6-0.1c-0.2,0-0.5,0-0.7,0c-0.7,0-1.2,0.1-1.7,0.3
		c-0.5,0.2-0.8,0.5-1.1,0.9c-0.3,0.4-0.5,0.8-0.6,1.4s-0.2,1.1-0.2,1.7v6.1h-3.7v-13.4H102z"/>
	<path fill="#231F20" d="M108,208c0.3-0.9,0.8-1.6,1.4-2.2c0.6-0.6,1.3-1.1,2.2-1.4c0.8-0.3,1.8-0.5,2.9-0.5c1.1,0,2,0.2,2.9,0.5
		c0.9,0.3,1.6,0.8,2.2,1.4c0.6,0.6,1.1,1.4,1.4,2.2s0.5,1.9,0.5,2.9s-0.2,2-0.5,2.9s-0.8,1.6-1.4,2.2c-0.6,0.6-1.3,1.1-2.2,1.4
		c-0.9,0.3-1.8,0.5-2.9,0.5c-1.1,0-2-0.2-2.9-0.5c-0.8-0.3-1.6-0.8-2.2-1.4c-0.6-0.6-1.1-1.4-1.4-2.2c-0.3-0.9-0.5-1.8-0.5-2.9
		S107.6,208.9,108,208z M111.3,212.5c0.1,0.5,0.3,1,0.5,1.4c0.3,0.4,0.6,0.7,1,1c0.4,0.2,0.9,0.4,1.6,0.4s1.1-0.1,1.6-0.4
		c0.4-0.2,0.8-0.6,1-1c0.3-0.4,0.4-0.9,0.5-1.4s0.2-1,0.2-1.6c0-0.5-0.1-1.1-0.2-1.6s-0.3-1-0.5-1.4c-0.3-0.4-0.6-0.7-1-1
		c-0.4-0.3-0.9-0.4-1.6-0.4s-1.1,0.1-1.6,0.4c-0.4,0.3-0.8,0.6-1,1c-0.3,0.4-0.4,0.9-0.5,1.4s-0.2,1-0.2,1.6
		C111.2,211.5,111.2,212,111.3,212.5z"/>
	<path fill="#231F20" d="M130.9,204.2v2.5h-2.7v6.7c0,0.6,0.1,1,0.3,1.2s0.6,0.3,1.2,0.3c0.2,0,0.4,0,0.6,0c0.2,0,0.4,0,0.5-0.1v2.9
		c-0.3,0.1-0.7,0.1-1,0.1c-0.4,0-0.8,0-1.1,0c-0.6,0-1.1,0-1.6-0.1c-0.5-0.1-1-0.2-1.4-0.5c-0.4-0.2-0.7-0.5-0.9-1
		c-0.2-0.4-0.3-1-0.3-1.6v-7.9h-2.2v-2.5h2.2v-4h3.7v4H130.9z"/>
	<path fill="#231F20" d="M136.4,214.4c0.6,0.5,1.4,0.8,2.4,0.8c0.7,0,1.4-0.2,1.9-0.6c0.5-0.4,0.9-0.8,1-1.2h3.2
		c-0.5,1.6-1.3,2.8-2.4,3.5c-1.1,0.7-2.4,1-3.9,1c-1.1,0-2-0.2-2.9-0.5s-1.6-0.8-2.2-1.4c-0.6-0.6-1-1.4-1.4-2.2
		c-0.3-0.9-0.5-1.8-0.5-2.9c0-1,0.2-1.9,0.5-2.8c0.3-0.9,0.8-1.6,1.4-2.2c0.6-0.6,1.3-1.1,2.2-1.5c0.8-0.4,1.8-0.5,2.8-0.5
		c1.1,0,2.1,0.2,3,0.7c0.8,0.4,1.5,1,2.1,1.8s0.9,1.6,1.2,2.5c0.2,1,0.3,2,0.3,3h-9.7C135.5,213,135.8,213.9,136.4,214.4z
		 M140.5,207.3c-0.4-0.5-1.1-0.7-2-0.7c-0.6,0-1.1,0.1-1.5,0.3c-0.4,0.2-0.7,0.4-0.9,0.7c-0.2,0.3-0.4,0.6-0.5,0.9
		c-0.1,0.3-0.2,0.6-0.2,0.9h6C141.3,208.5,141,207.8,140.5,207.3z"/>
	<path fill="#231F20" d="M153.5,206.6c-0.6,0-1.1,0.1-1.5,0.4c-0.4,0.3-0.7,0.6-1,1c-0.3,0.4-0.4,0.9-0.5,1.4
		c-0.1,0.5-0.2,1-0.2,1.5c0,0.5,0.1,1,0.2,1.5c0.1,0.5,0.3,1,0.5,1.4c0.2,0.4,0.5,0.7,0.9,1c0.4,0.3,0.9,0.4,1.5,0.4
		c0.9,0,1.6-0.2,2-0.7c0.5-0.5,0.8-1.2,0.9-2h3.6c-0.2,1.8-0.9,3.1-2.1,4.1s-2.6,1.4-4.4,1.4c-1,0-1.9-0.2-2.8-0.5s-1.6-0.8-2.1-1.4
		c-0.6-0.6-1-1.3-1.4-2.2c-0.3-0.8-0.5-1.8-0.5-2.8c0-1,0.2-2,0.5-2.9c0.3-0.9,0.7-1.7,1.3-2.3c0.6-0.7,1.3-1.2,2.2-1.5
		c0.8-0.4,1.8-0.5,2.9-0.5c0.8,0,1.6,0.1,2.3,0.3c0.7,0.2,1.4,0.5,2,0.9s1.1,1,1.4,1.6c0.4,0.6,0.6,1.4,0.6,2.2h-3.6
		C156,207.4,155.1,206.6,153.5,206.6z"/>
	<path fill="#231F20" d="M169.2,204.2v2.5h-2.7v6.7c0,0.6,0.1,1,0.3,1.2c0.2,0.2,0.6,0.3,1.2,0.3c0.2,0,0.4,0,0.6,0
		c0.2,0,0.4,0,0.5-0.1v2.9c-0.3,0.1-0.7,0.1-1,0.1c-0.4,0-0.8,0-1.1,0c-0.6,0-1.1,0-1.6-0.1c-0.5-0.1-1-0.2-1.4-0.5
		c-0.4-0.2-0.7-0.5-0.9-1c-0.2-0.4-0.3-1-0.3-1.6v-7.9h-2.2v-2.5h2.2v-4h3.7v4H169.2z"/>
	<path fill="#231F20" d="M182.7,221.6c-0.7,0.5-1.7,0.7-3,0.7c-0.4,0-0.8,0-1.1,0c-0.4,0-0.8-0.1-1.1-0.1v-3c0.3,0,0.7,0.1,1.1,0.1
		c0.4,0,0.7,0,1.1,0c0.5-0.1,0.8-0.2,1.1-0.6c0.2-0.3,0.4-0.7,0.4-1.1c0-0.3-0.1-0.6-0.2-0.8l-4.7-12.6h3.9l3,9.2h0.1l2.9-9.2h3.8
		l-5.6,15.1C183.9,220.4,183.4,221.2,182.7,221.6z"/>
	<path fill="#231F20" d="M191,208c0.3-0.9,0.8-1.6,1.4-2.2c0.6-0.6,1.3-1.1,2.2-1.4c0.8-0.3,1.8-0.5,2.9-0.5s2,0.2,2.9,0.5
		c0.9,0.3,1.6,0.8,2.2,1.4c0.6,0.6,1.1,1.4,1.4,2.2c0.3,0.9,0.5,1.9,0.5,2.9s-0.2,2-0.5,2.9c-0.3,0.9-0.8,1.6-1.4,2.2
		c-0.6,0.6-1.3,1.1-2.2,1.4c-0.9,0.3-1.8,0.5-2.9,0.5s-2-0.2-2.9-0.5c-0.8-0.3-1.6-0.8-2.2-1.4c-0.6-0.6-1.1-1.4-1.4-2.2
		c-0.3-0.9-0.5-1.8-0.5-2.9S190.7,208.9,191,208z M194.4,212.5c0.1,0.5,0.3,1,0.5,1.4c0.3,0.4,0.6,0.7,1,1c0.4,0.2,0.9,0.4,1.6,0.4
		s1.1-0.1,1.6-0.4c0.4-0.2,0.8-0.6,1-1s0.4-0.9,0.5-1.4c0.1-0.5,0.2-1,0.2-1.6c0-0.5-0.1-1.1-0.2-1.6c-0.1-0.5-0.3-1-0.5-1.4
		c-0.3-0.4-0.6-0.7-1-1c-0.4-0.3-0.9-0.4-1.6-0.4s-1.1,0.1-1.6,0.4c-0.4,0.3-0.8,0.6-1,1c-0.3,0.4-0.4,0.9-0.5,1.4
		c-0.1,0.5-0.2,1-0.2,1.6C194.2,211.5,194.3,212,194.4,212.5z"/>
	<path fill="#231F20" d="M215.6,217.6v-1.9h-0.1c-0.5,0.8-1.1,1.3-1.8,1.7c-0.7,0.3-1.5,0.5-2.3,0.5c-1,0-1.8-0.1-2.4-0.4
		c-0.6-0.3-1.1-0.6-1.5-1.1c-0.4-0.5-0.6-1.1-0.8-1.7c-0.1-0.7-0.2-1.4-0.2-2.3v-8.3h3.7v7.6c0,1.1,0.2,1.9,0.5,2.5
		c0.3,0.5,1,0.8,1.8,0.8c1,0,1.7-0.3,2.2-0.9c0.5-0.6,0.7-1.6,0.7-3v-7h3.7v13.4H215.6z"/>
	<path fill="#231F20" d="M225.2,204.2v2.5h0.1c0.2-0.4,0.4-0.8,0.7-1.2c0.3-0.4,0.6-0.7,1-0.9c0.4-0.3,0.8-0.4,1.2-0.6
		c0.4-0.1,0.9-0.2,1.4-0.2c0.2,0,0.5,0,0.8,0.1v3.4c-0.2,0-0.4-0.1-0.6-0.1c-0.2,0-0.5,0-0.7,0c-0.7,0-1.2,0.1-1.7,0.3
		c-0.5,0.2-0.8,0.5-1.1,0.9c-0.3,0.4-0.5,0.8-0.6,1.4c-0.1,0.5-0.2,1.1-0.2,1.7v6.1h-3.7v-13.4H225.2z"/>
	<path fill="#231F20" d="M234.7,214.3c0.2,0.3,0.4,0.5,0.6,0.7c0.3,0.2,0.6,0.3,0.9,0.4s0.7,0.1,1.1,0.1c0.3,0,0.5,0,0.8-0.1
		s0.5-0.2,0.8-0.3c0.2-0.1,0.4-0.3,0.6-0.5s0.2-0.5,0.2-0.8c0-0.6-0.4-1-1.1-1.2c-0.7-0.3-1.8-0.6-3.1-0.8c-0.5-0.1-1.1-0.3-1.6-0.4
		c-0.5-0.2-1-0.4-1.4-0.6c-0.4-0.3-0.7-0.6-1-1c-0.2-0.4-0.4-0.9-0.4-1.5c0-0.9,0.2-1.6,0.5-2.1c0.3-0.6,0.8-1,1.3-1.3
		c0.6-0.3,1.2-0.5,1.9-0.7c0.7-0.1,1.4-0.2,2.1-0.2s1.4,0.1,2.1,0.2c0.7,0.1,1.3,0.4,1.8,0.7c0.5,0.3,1,0.8,1.3,1.3s0.6,1.2,0.6,2.1
		h-3.5c-0.1-0.7-0.3-1.2-0.8-1.4c-0.5-0.3-1.1-0.4-1.7-0.4c-0.2,0-0.4,0-0.7,0c-0.2,0-0.5,0.1-0.7,0.2c-0.2,0.1-0.4,0.2-0.5,0.4
		c-0.1,0.2-0.2,0.4-0.2,0.7c0,0.3,0.1,0.6,0.4,0.8c0.2,0.2,0.6,0.4,0.9,0.5c0.4,0.1,0.8,0.2,1.3,0.4c0.5,0.1,1,0.2,1.5,0.3
		c0.5,0.1,1.1,0.3,1.6,0.4c0.5,0.2,1,0.4,1.4,0.7s0.7,0.6,1,1.1c0.2,0.4,0.4,0.9,0.4,1.6c0,0.9-0.2,1.6-0.5,2.2
		c-0.4,0.6-0.8,1.1-1.4,1.4c-0.6,0.4-1.2,0.6-2,0.8c-0.7,0.1-1.5,0.2-2.2,0.2c-0.8,0-1.5-0.1-2.3-0.2c-0.7-0.2-1.4-0.4-2-0.8
		c-0.6-0.4-1.1-0.8-1.4-1.4c-0.4-0.6-0.6-1.3-0.6-2.2h3.5C234.5,213.7,234.6,214,234.7,214.3z"/>
	<path fill="#231F20" d="M249.3,214.4c0.6,0.5,1.4,0.8,2.4,0.8c0.7,0,1.4-0.2,1.9-0.6c0.5-0.4,0.9-0.8,1-1.2h3.2
		c-0.5,1.6-1.3,2.8-2.4,3.5c-1.1,0.7-2.4,1-3.9,1c-1.1,0-2-0.2-2.9-0.5s-1.6-0.8-2.2-1.4c-0.6-0.6-1-1.4-1.4-2.2
		c-0.3-0.9-0.5-1.8-0.5-2.9c0-1,0.2-1.9,0.5-2.8c0.3-0.9,0.8-1.6,1.4-2.2c0.6-0.6,1.3-1.1,2.2-1.5c0.8-0.4,1.8-0.5,2.8-0.5
		c1.1,0,2.1,0.2,3,0.7c0.8,0.4,1.5,1,2.1,1.8s0.9,1.6,1.2,2.5c0.2,1,0.3,2,0.3,3h-9.7C248.4,213,248.7,213.9,249.3,214.4z
		 M253.5,207.3c-0.4-0.5-1.1-0.7-2-0.7c-0.6,0-1.1,0.1-1.5,0.3c-0.4,0.2-0.7,0.4-0.9,0.7c-0.2,0.3-0.4,0.6-0.5,0.9
		c-0.1,0.3-0.2,0.6-0.2,0.9h6C254.2,208.5,253.9,207.8,253.5,207.3z"/>
	<path fill="#231F20" d="M263.8,199.1v18.6h-3.7v-18.6H263.8z"/>
	<path fill="#231F20" d="M265.1,206.7v-2.5h2.2v-1c0-1.2,0.4-2.2,1.1-2.9s1.9-1.1,3.4-1.1c0.3,0,0.7,0,1,0c0.3,0,0.6,0,1,0.1v2.8
		c-0.4-0.1-0.9-0.1-1.4-0.1c-0.5,0-0.9,0.1-1.1,0.4c-0.2,0.2-0.3,0.6-0.3,1.2v0.8h2.5v2.5H271v11h-3.7v-11H265.1z"/>
</g>
<g>
	<path fill="#231F20" d="M46.4,234.7v-2.5h2.2v-1c0-1.2,0.4-2.2,1.1-2.9c0.7-0.8,1.9-1.1,3.4-1.1c0.3,0,0.7,0,1,0s0.7,0,1,0.1v2.8
		c-0.4-0.1-0.9-0.1-1.4-0.1c-0.5,0-0.9,0.1-1.1,0.4c-0.2,0.2-0.3,0.6-0.3,1.2v0.8h2.5v2.5h-2.5v11h-3.7v-11H46.4z"/>
	<path fill="#231F20" d="M59.7,232.2v2.5h0.1c0.2-0.4,0.4-0.8,0.7-1.2c0.3-0.4,0.6-0.7,1-0.9c0.4-0.3,0.8-0.4,1.2-0.6
		c0.4-0.1,0.9-0.2,1.4-0.2c0.2,0,0.5,0,0.8,0.1v3.4c-0.2,0-0.4-0.1-0.6-0.1c-0.2,0-0.5,0-0.7,0c-0.7,0-1.2,0.1-1.7,0.3
		c-0.5,0.2-0.8,0.5-1.1,0.9c-0.3,0.4-0.5,0.8-0.6,1.4s-0.2,1.1-0.2,1.7v6.1h-3.7v-13.4H59.7z"/>
	<path fill="#231F20" d="M65.7,236c0.3-0.9,0.8-1.6,1.4-2.2c0.6-0.6,1.3-1.1,2.2-1.4c0.8-0.3,1.8-0.5,2.9-0.5c1.1,0,2,0.2,2.9,0.5
		c0.9,0.3,1.6,0.8,2.2,1.4c0.6,0.6,1.1,1.4,1.4,2.2s0.5,1.9,0.5,2.9s-0.2,2-0.5,2.9s-0.8,1.6-1.4,2.2c-0.6,0.6-1.3,1.1-2.2,1.4
		c-0.9,0.3-1.8,0.5-2.9,0.5c-1.1,0-2-0.2-2.9-0.5c-0.8-0.3-1.6-0.8-2.2-1.4c-0.6-0.6-1.1-1.4-1.4-2.2c-0.3-0.9-0.5-1.8-0.5-2.9
		S65.3,236.9,65.7,236z M69,240.5c0.1,0.5,0.3,1,0.5,1.4c0.3,0.4,0.6,0.7,1,1c0.4,0.2,0.9,0.4,1.6,0.4s1.1-0.1,1.6-0.4
		c0.4-0.2,0.8-0.6,1-1c0.3-0.4,0.4-0.9,0.5-1.4s0.2-1,0.2-1.6c0-0.5-0.1-1.1-0.2-1.6s-0.3-1-0.5-1.4c-0.3-0.4-0.6-0.7-1-1
		c-0.4-0.3-0.9-0.4-1.6-0.4s-1.1,0.1-1.6,0.4c-0.4,0.3-0.8,0.6-1,1c-0.3,0.4-0.4,0.9-0.5,1.4s-0.2,1-0.2,1.6
		C68.9,239.5,68.9,240,69,240.5z"/>
	<path fill="#231F20" d="M84.8,232.2v1.8h0.1c0.5-0.7,1.1-1.2,1.8-1.6s1.5-0.6,2.4-0.6c0.8,0,1.6,0.2,2.3,0.5
		c0.7,0.3,1.2,0.9,1.6,1.7c0.4-0.6,0.9-1.1,1.6-1.6c0.7-0.5,1.5-0.7,2.4-0.7c0.7,0,1.4,0.1,2,0.3c0.6,0.2,1.1,0.5,1.6,0.8
		c0.4,0.4,0.8,0.9,1,1.5c0.2,0.6,0.4,1.4,0.4,2.2v9h-3.7V238c0-0.5,0-0.9-0.1-1.3c0-0.4-0.1-0.7-0.3-1c-0.2-0.3-0.4-0.5-0.7-0.7
		c-0.3-0.2-0.7-0.3-1.2-0.3c-0.5,0-0.9,0.1-1.3,0.3c-0.3,0.2-0.6,0.5-0.8,0.8s-0.3,0.7-0.4,1.1c-0.1,0.4-0.1,0.8-0.1,1.2v7.5h-3.7
		v-7.5c0-0.4,0-0.8,0-1.2c0-0.4-0.1-0.7-0.2-1.1s-0.3-0.6-0.6-0.8c-0.3-0.2-0.8-0.3-1.3-0.3c-0.2,0-0.4,0-0.7,0.1
		c-0.3,0.1-0.6,0.2-0.8,0.4s-0.5,0.5-0.7,0.9s-0.3,0.9-0.3,1.6v7.8h-3.7v-13.4H84.8z"/>
	<path fill="#231F20" d="M120.6,245.6v-1.9h-0.1c-0.5,0.8-1.1,1.3-1.8,1.7c-0.7,0.3-1.5,0.5-2.3,0.5c-1,0-1.8-0.1-2.4-0.4
		c-0.6-0.3-1.1-0.6-1.5-1.1c-0.4-0.5-0.6-1.1-0.8-1.7c-0.1-0.7-0.2-1.4-0.2-2.3v-8.3h3.7v7.6c0,1.1,0.2,1.9,0.5,2.5
		c0.3,0.5,1,0.8,1.8,0.8c1,0,1.7-0.3,2.2-0.9c0.5-0.6,0.7-1.6,0.7-3v-7h3.7v13.4H120.6z"/>
	<path fill="#231F20" d="M130.2,232.2v1.9h0.1c0.5-0.8,1.1-1.3,1.8-1.7c0.7-0.4,1.5-0.5,2.3-0.5c1,0,1.8,0.1,2.4,0.4
		s1.1,0.6,1.5,1.1c0.4,0.5,0.6,1.1,0.8,1.7c0.1,0.7,0.2,1.4,0.2,2.3v8.3h-3.7V238c0-1.1-0.2-1.9-0.5-2.5c-0.3-0.5-1-0.8-1.8-0.8
		c-1,0-1.7,0.3-2.2,0.9s-0.7,1.6-0.7,3v7h-3.7v-13.4H130.2z"/>
	<path fill="#231F20" d="M145.8,242.4c0.6,0.5,1.4,0.8,2.4,0.8c0.7,0,1.4-0.2,1.9-0.6c0.5-0.4,0.9-0.8,1-1.2h3.2
		c-0.5,1.6-1.3,2.8-2.4,3.5c-1.1,0.7-2.4,1-3.9,1c-1.1,0-2-0.2-2.9-0.5s-1.6-0.8-2.2-1.4s-1-1.4-1.4-2.2c-0.3-0.9-0.5-1.8-0.5-2.9
		c0-1,0.2-1.9,0.5-2.8c0.3-0.9,0.8-1.6,1.4-2.2c0.6-0.6,1.3-1.1,2.2-1.5c0.8-0.4,1.8-0.5,2.8-0.5c1.1,0,2.1,0.2,3,0.7s1.5,1,2.1,1.8
		c0.5,0.7,0.9,1.6,1.2,2.5c0.2,1,0.3,2,0.3,3h-9.7C145,241,145.3,241.9,145.8,242.4z M150,235.3c-0.4-0.5-1.1-0.7-2-0.7
		c-0.6,0-1.1,0.1-1.5,0.3c-0.4,0.2-0.7,0.4-0.9,0.7c-0.2,0.3-0.4,0.6-0.5,0.9c-0.1,0.3-0.2,0.6-0.2,0.9h6
		C150.7,236.5,150.4,235.8,150,235.3z"/>
	<path fill="#231F20" d="M155.6,232.2h4.2l2.4,3.5l2.3-3.5h4.1l-4.4,6.3l5,7.1h-4.2l-2.8-4.2l-2.8,4.2h-4.1l4.8-7.1L155.6,232.2z"/>
	<path fill="#231F20" d="M173.8,232.2v1.7h0.1c0.5-0.7,1-1.3,1.7-1.6c0.7-0.3,1.5-0.5,2.3-0.5c1.1,0,2,0.2,2.7,0.6
		c0.8,0.4,1.4,0.9,1.9,1.6c0.5,0.7,0.9,1.4,1.1,2.3s0.4,1.8,0.4,2.7c0,0.9-0.1,1.8-0.4,2.6s-0.6,1.6-1.1,2.2
		c-0.5,0.6-1.1,1.2-1.8,1.5c-0.7,0.4-1.6,0.6-2.6,0.6c-0.8,0-1.6-0.2-2.3-0.5s-1.3-0.8-1.7-1.5H174v6.4h-3.7v-18.1H173.8z
		 M178.6,242.8c0.4-0.2,0.7-0.6,1-0.9c0.3-0.4,0.4-0.8,0.5-1.4c0.1-0.5,0.2-1,0.2-1.6c0-0.5-0.1-1.1-0.2-1.6s-0.3-1-0.6-1.4
		c-0.3-0.4-0.6-0.7-1-1c-0.4-0.3-0.9-0.4-1.5-0.4c-0.6,0-1.1,0.1-1.5,0.4c-0.4,0.3-0.7,0.6-1,1c-0.3,0.4-0.4,0.9-0.5,1.4
		c-0.1,0.5-0.2,1.1-0.2,1.6c0,0.5,0.1,1.1,0.2,1.6s0.3,1,0.5,1.4s0.6,0.7,1,0.9c0.4,0.2,0.9,0.4,1.5,0.4
		C177.7,243.2,178.2,243.1,178.6,242.8z"/>
	<path fill="#231F20" d="M189.9,242.4c0.6,0.5,1.4,0.8,2.4,0.8c0.7,0,1.4-0.2,1.9-0.6c0.5-0.4,0.9-0.8,1-1.2h3.2
		c-0.5,1.6-1.3,2.8-2.4,3.5c-1.1,0.7-2.4,1-3.9,1c-1.1,0-2-0.2-2.9-0.5s-1.6-0.8-2.2-1.4c-0.6-0.6-1-1.4-1.4-2.2
		c-0.3-0.9-0.5-1.8-0.5-2.9c0-1,0.2-1.9,0.5-2.8c0.3-0.9,0.8-1.6,1.4-2.2c0.6-0.6,1.3-1.1,2.2-1.5c0.8-0.4,1.8-0.5,2.8-0.5
		c1.1,0,2.1,0.2,3,0.7c0.8,0.4,1.5,1,2.1,1.8s0.9,1.6,1.2,2.5c0.2,1,0.3,2,0.3,3H189C189,241,189.3,241.9,189.9,242.4z M194.1,235.3
		c-0.4-0.5-1.1-0.7-2-0.7c-0.6,0-1.1,0.1-1.5,0.3c-0.4,0.2-0.7,0.4-0.9,0.7c-0.2,0.3-0.4,0.6-0.5,0.9c-0.1,0.3-0.2,0.6-0.2,0.9h6
		C194.8,236.5,194.5,235.8,194.1,235.3z"/>
	<path fill="#231F20" d="M207,234.6c-0.6,0-1.1,0.1-1.5,0.4c-0.4,0.3-0.7,0.6-1,1c-0.3,0.4-0.4,0.9-0.5,1.4c-0.1,0.5-0.2,1-0.2,1.5
		c0,0.5,0.1,1,0.2,1.5c0.1,0.5,0.3,1,0.5,1.4c0.2,0.4,0.5,0.7,0.9,1c0.4,0.3,0.9,0.4,1.5,0.4c0.9,0,1.6-0.2,2-0.7
		c0.5-0.5,0.8-1.2,0.9-2h3.6c-0.2,1.8-0.9,3.1-2.1,4.1s-2.6,1.4-4.4,1.4c-1,0-1.9-0.2-2.8-0.5s-1.6-0.8-2.1-1.4
		c-0.6-0.6-1-1.3-1.4-2.2c-0.3-0.8-0.5-1.8-0.5-2.8c0-1,0.2-2,0.5-2.9c0.3-0.9,0.7-1.7,1.3-2.3c0.6-0.7,1.3-1.2,2.2-1.5
		c0.8-0.4,1.8-0.5,2.9-0.5c0.8,0,1.6,0.1,2.3,0.3c0.7,0.2,1.4,0.5,2,0.9s1.1,1,1.4,1.6c0.4,0.6,0.6,1.4,0.6,2.2h-3.6
		C209.5,235.4,208.6,234.6,207,234.6z"/>
	<path fill="#231F20" d="M222.7,232.2v2.5H220v6.7c0,0.6,0.1,1,0.3,1.2c0.2,0.2,0.6,0.3,1.2,0.3c0.2,0,0.4,0,0.6,0
		c0.2,0,0.4,0,0.5-0.1v2.9c-0.3,0.1-0.7,0.1-1,0.1c-0.4,0-0.8,0-1.1,0c-0.6,0-1.1,0-1.6-0.1c-0.5-0.1-1-0.2-1.4-0.5
		c-0.4-0.2-0.7-0.5-0.9-1c-0.2-0.4-0.3-1-0.3-1.6v-7.9h-2.2v-2.5h2.2v-4h3.7v4H222.7z"/>
	<path fill="#231F20" d="M228.2,242.4c0.6,0.5,1.4,0.8,2.4,0.8c0.7,0,1.4-0.2,1.9-0.6c0.5-0.4,0.9-0.8,1-1.2h3.2
		c-0.5,1.6-1.3,2.8-2.4,3.5c-1.1,0.7-2.4,1-3.9,1c-1.1,0-2-0.2-2.9-0.5s-1.6-0.8-2.2-1.4c-0.6-0.6-1-1.4-1.4-2.2
		c-0.3-0.9-0.5-1.8-0.5-2.9c0-1,0.2-1.9,0.5-2.8c0.3-0.9,0.8-1.6,1.4-2.2c0.6-0.6,1.3-1.1,2.2-1.5c0.8-0.4,1.8-0.5,2.8-0.5
		c1.1,0,2.1,0.2,3,0.7c0.8,0.4,1.5,1,2.1,1.8s0.9,1.6,1.2,2.5c0.2,1,0.3,2,0.3,3h-9.7C227.3,241,227.6,241.9,228.2,242.4z
		 M232.4,235.3c-0.4-0.5-1.1-0.7-2-0.7c-0.6,0-1.1,0.1-1.5,0.3c-0.4,0.2-0.7,0.4-0.9,0.7c-0.2,0.3-0.4,0.6-0.5,0.9
		c-0.1,0.3-0.2,0.6-0.2,0.9h6C233.1,236.5,232.8,235.8,232.4,235.3z"/>
	<path fill="#231F20" d="M248.5,243.9c-0.4,0.7-1,1.3-1.7,1.6c-0.7,0.3-1.5,0.5-2.4,0.5c-1,0-1.9-0.2-2.7-0.6s-1.4-0.9-1.9-1.6
		c-0.5-0.7-0.9-1.4-1.1-2.3s-0.4-1.8-0.4-2.7c0-0.9,0.1-1.8,0.4-2.6c0.3-0.8,0.6-1.6,1.1-2.2s1.1-1.2,1.9-1.5
		c0.7-0.4,1.6-0.6,2.6-0.6c0.8,0,1.6,0.2,2.3,0.5c0.7,0.3,1.3,0.8,1.7,1.5h0.1v-6.8h3.7v18.6h-3.5L248.5,243.9L248.5,243.9z
		 M248.3,237.3c-0.1-0.5-0.3-1-0.5-1.4s-0.6-0.7-1-0.9c-0.4-0.2-0.9-0.4-1.5-0.4c-0.6,0-1.1,0.1-1.5,0.4c-0.4,0.2-0.8,0.6-1,1
		c-0.3,0.4-0.4,0.9-0.5,1.4c-0.1,0.5-0.2,1-0.2,1.6c0,0.5,0.1,1,0.2,1.6s0.3,1,0.6,1.4c0.3,0.4,0.6,0.7,1,1c0.4,0.3,0.9,0.4,1.5,0.4
		c0.6,0,1.1-0.1,1.5-0.4c0.4-0.2,0.7-0.6,1-1c0.2-0.4,0.4-0.9,0.5-1.4c0.1-0.5,0.2-1.1,0.2-1.6S248.4,237.8,248.3,237.3z"/>
</g>
<g>
	<path fill="#231F20" d="M66.4,260.2v1.8h0.1c0.5-0.7,1.1-1.2,1.8-1.6s1.5-0.6,2.4-0.6c0.8,0,1.6,0.2,2.3,0.5
		c0.7,0.3,1.2,0.9,1.6,1.7c0.4-0.6,0.9-1.1,1.6-1.6c0.7-0.5,1.5-0.7,2.4-0.7c0.7,0,1.4,0.1,2,0.3c0.6,0.2,1.1,0.5,1.6,0.8
		c0.4,0.4,0.8,0.9,1,1.5c0.2,0.6,0.4,1.4,0.4,2.2v9h-3.7V266c0-0.5,0-0.9-0.1-1.3c0-0.4-0.1-0.7-0.3-1c-0.2-0.3-0.4-0.5-0.7-0.7
		c-0.3-0.2-0.7-0.3-1.2-0.3c-0.5,0-0.9,0.1-1.3,0.3c-0.3,0.2-0.6,0.5-0.8,0.8s-0.3,0.7-0.4,1.1c-0.1,0.4-0.1,0.8-0.1,1.2v7.5h-3.7
		v-7.5c0-0.4,0-0.8,0-1.2c0-0.4-0.1-0.7-0.2-1.1s-0.3-0.6-0.6-0.8c-0.3-0.2-0.8-0.3-1.3-0.3c-0.2,0-0.4,0-0.7,0.1
		c-0.3,0.1-0.6,0.2-0.8,0.4s-0.5,0.5-0.7,0.9s-0.3,0.9-0.3,1.6v7.8H63v-13.4H66.4z"/>
	<path fill="#231F20" d="M90.1,270.4c0.6,0.5,1.4,0.8,2.4,0.8c0.7,0,1.4-0.2,1.9-0.6c0.5-0.4,0.9-0.8,1-1.2h3.2
		c-0.5,1.6-1.3,2.8-2.4,3.5c-1.1,0.7-2.4,1-3.9,1c-1.1,0-2-0.2-2.9-0.5s-1.6-0.8-2.2-1.4c-0.6-0.6-1-1.4-1.4-2.2
		c-0.3-0.9-0.5-1.8-0.5-2.9c0-1,0.2-1.9,0.5-2.8c0.3-0.9,0.8-1.6,1.4-2.2c0.6-0.6,1.3-1.1,2.2-1.5c0.8-0.4,1.8-0.5,2.8-0.5
		c1.1,0,2.1,0.2,3,0.7c0.8,0.4,1.5,1,2.1,1.8c0.5,0.7,0.9,1.6,1.2,2.5c0.2,1,0.3,2,0.3,3h-9.7C89.3,269,89.6,269.9,90.1,270.4z
		 M94.3,263.3c-0.4-0.5-1.1-0.7-2-0.7c-0.6,0-1.1,0.1-1.5,0.3c-0.4,0.2-0.7,0.4-0.9,0.7c-0.2,0.3-0.4,0.6-0.5,0.9
		c-0.1,0.3-0.2,0.6-0.2,0.9h6C95,264.5,94.7,263.8,94.3,263.3z"/>
	<path fill="#231F20" d="M110.4,271.9c-0.4,0.7-1,1.3-1.7,1.6c-0.7,0.3-1.5,0.5-2.4,0.5c-1,0-1.9-0.2-2.7-0.6s-1.4-0.9-1.9-1.6
		c-0.5-0.7-0.9-1.4-1.1-2.3c-0.3-0.9-0.4-1.8-0.4-2.7c0-0.9,0.1-1.8,0.4-2.6c0.3-0.8,0.6-1.6,1.1-2.2c0.5-0.6,1.1-1.2,1.9-1.5
		c0.7-0.4,1.6-0.6,2.6-0.6c0.8,0,1.6,0.2,2.3,0.5c0.7,0.3,1.3,0.8,1.7,1.5h0.1v-6.8h3.7v18.6h-3.5L110.4,271.9L110.4,271.9z
		 M110.2,265.3c-0.1-0.5-0.3-1-0.5-1.4s-0.6-0.7-1-0.9c-0.4-0.2-0.9-0.4-1.5-0.4c-0.6,0-1.1,0.1-1.5,0.4c-0.4,0.2-0.8,0.6-1,1
		c-0.3,0.4-0.4,0.9-0.5,1.4c-0.1,0.5-0.2,1-0.2,1.6c0,0.5,0.1,1,0.2,1.6c0.1,0.5,0.3,1,0.6,1.4c0.3,0.4,0.6,0.7,1,1
		c0.4,0.3,0.9,0.4,1.5,0.4c0.6,0,1.1-0.1,1.5-0.4c0.4-0.2,0.7-0.6,1-1c0.2-0.4,0.4-0.9,0.5-1.4s0.2-1.1,0.2-1.6
		S110.4,265.8,110.2,265.3z"/>
	<path fill="#231F20" d="M116.6,258.1v-3h3.7v3H116.6z M120.3,260.2v13.4h-3.7v-13.4H120.3z"/>
	<path fill="#231F20" d="M129.4,262.6c-0.6,0-1.1,0.1-1.5,0.4c-0.4,0.3-0.7,0.6-1,1c-0.3,0.4-0.4,0.9-0.5,1.4s-0.2,1-0.2,1.5
		c0,0.5,0.1,1,0.2,1.5s0.3,1,0.5,1.4c0.2,0.4,0.6,0.7,0.9,1c0.4,0.3,0.9,0.4,1.5,0.4c0.9,0,1.6-0.2,2-0.7c0.5-0.5,0.8-1.2,0.9-2h3.6
		c-0.2,1.8-0.9,3.1-2.1,4.1s-2.6,1.4-4.4,1.4c-1,0-1.9-0.2-2.8-0.5s-1.6-0.8-2.1-1.4c-0.6-0.6-1-1.3-1.4-2.2
		c-0.3-0.8-0.5-1.8-0.5-2.8c0-1,0.2-2,0.5-2.9s0.7-1.7,1.3-2.3c0.6-0.7,1.3-1.2,2.2-1.5c0.8-0.4,1.8-0.5,2.9-0.5
		c0.8,0,1.6,0.1,2.3,0.3s1.4,0.5,2,0.9c0.6,0.4,1.1,1,1.4,1.6c0.4,0.6,0.6,1.4,0.6,2.2h-3.6C131.9,263.4,131,262.6,129.4,262.6z"/>
	<path fill="#231F20" d="M137.5,264.3c0.1-0.9,0.3-1.6,0.6-2.2c0.4-0.6,0.9-1,1.5-1.4c0.6-0.3,1.3-0.6,2-0.7
		c0.7-0.1,1.5-0.2,2.2-0.2c0.7,0,1.4,0,2.1,0.1c0.7,0.1,1.3,0.3,1.9,0.6c0.6,0.3,1,0.7,1.4,1.2c0.4,0.5,0.5,1.1,0.5,2v7
		c0,0.6,0,1.2,0.1,1.7c0.1,0.6,0.2,1,0.4,1.2h-3.7c-0.1-0.2-0.1-0.4-0.2-0.6c0-0.2-0.1-0.4-0.1-0.7c-0.6,0.6-1.3,1-2.1,1.3
		c-0.8,0.2-1.6,0.4-2.4,0.4c-0.6,0-1.2-0.1-1.8-0.2s-1-0.4-1.5-0.7c-0.4-0.3-0.7-0.7-1-1.2c-0.2-0.5-0.4-1.1-0.4-1.8
		c0-0.8,0.1-1.4,0.4-1.9c0.3-0.5,0.6-0.9,1-1.2c0.4-0.3,0.9-0.5,1.5-0.7c0.5-0.1,1.1-0.3,1.7-0.4c0.6-0.1,1.1-0.2,1.6-0.2
		c0.5-0.1,1-0.1,1.4-0.2s0.7-0.3,1-0.5c0.2-0.2,0.4-0.5,0.3-0.9c0-0.4-0.1-0.7-0.2-0.9c-0.1-0.2-0.3-0.4-0.5-0.5
		c-0.2-0.1-0.5-0.2-0.8-0.3c-0.3,0-0.6-0.1-0.9-0.1c-0.7,0-1.3,0.2-1.7,0.5s-0.7,0.8-0.7,1.6H137.5z M146,267.1
		c-0.2,0.1-0.4,0.2-0.6,0.3c-0.2,0.1-0.5,0.1-0.8,0.2c-0.3,0.1-0.5,0.1-0.8,0.1c-0.3,0-0.6,0.1-0.9,0.1c-0.3,0.1-0.6,0.1-0.8,0.2
		s-0.5,0.2-0.7,0.4s-0.4,0.3-0.5,0.6c-0.1,0.2-0.2,0.5-0.2,0.9c0,0.3,0.1,0.6,0.2,0.8c0.1,0.2,0.3,0.4,0.5,0.5s0.5,0.2,0.7,0.3
		c0.3,0.1,0.6,0.1,0.9,0.1c0.7,0,1.3-0.1,1.7-0.4c0.4-0.2,0.7-0.5,0.9-0.9c0.2-0.3,0.3-0.7,0.4-1c0-0.3,0.1-0.6,0.1-0.8V267.1z"/>
	<path fill="#231F20" d="M156.1,255.1v18.6h-3.7v-18.6H156.1z"/>
	<path fill="#231F20" d="M172.2,262.6c-0.6,0-1.1,0.1-1.5,0.4c-0.4,0.3-0.7,0.6-1,1c-0.3,0.4-0.4,0.9-0.5,1.4
		c-0.1,0.5-0.2,1-0.2,1.5c0,0.5,0.1,1,0.2,1.5c0.1,0.5,0.3,1,0.5,1.4c0.2,0.4,0.5,0.7,0.9,1c0.4,0.3,0.9,0.4,1.5,0.4
		c0.9,0,1.6-0.2,2-0.7c0.5-0.5,0.8-1.2,0.9-2h3.6c-0.2,1.8-0.9,3.1-2.1,4.1s-2.6,1.4-4.4,1.4c-1,0-1.9-0.2-2.8-0.5s-1.6-0.8-2.1-1.4
		c-0.6-0.6-1-1.3-1.4-2.2c-0.3-0.8-0.5-1.8-0.5-2.8c0-1,0.2-2,0.5-2.9c0.3-0.9,0.7-1.7,1.3-2.3c0.6-0.7,1.3-1.2,2.2-1.5
		c0.8-0.4,1.8-0.5,2.9-0.5c0.8,0,1.6,0.1,2.3,0.3c0.7,0.2,1.4,0.5,2,0.9s1.1,1,1.4,1.6c0.4,0.6,0.6,1.4,0.6,2.2h-3.6
		C174.7,263.4,173.8,262.6,172.2,262.6z"/>
	<path fill="#231F20" d="M180.5,264c0.3-0.9,0.8-1.6,1.4-2.2c0.6-0.6,1.3-1.1,2.2-1.4c0.8-0.3,1.8-0.5,2.9-0.5s2,0.2,2.9,0.5
		c0.9,0.3,1.6,0.8,2.2,1.4c0.6,0.6,1.1,1.4,1.4,2.2c0.3,0.9,0.5,1.9,0.5,2.9s-0.2,2-0.5,2.9c-0.3,0.9-0.8,1.6-1.4,2.2
		c-0.6,0.6-1.3,1.1-2.2,1.4c-0.9,0.3-1.8,0.5-2.9,0.5s-2-0.2-2.9-0.5c-0.8-0.3-1.6-0.8-2.2-1.4c-0.6-0.6-1.1-1.4-1.4-2.2
		c-0.3-0.9-0.5-1.8-0.5-2.9S180.2,264.9,180.5,264z M183.9,268.5c0.1,0.5,0.3,1,0.5,1.4c0.3,0.4,0.6,0.7,1,1
		c0.4,0.2,0.9,0.4,1.6,0.4s1.1-0.1,1.6-0.4c0.4-0.2,0.8-0.6,1-1s0.4-0.9,0.5-1.4c0.1-0.5,0.2-1,0.2-1.6c0-0.5-0.1-1.1-0.2-1.6
		c-0.1-0.5-0.3-1-0.5-1.4c-0.3-0.4-0.6-0.7-1-1c-0.4-0.3-0.9-0.4-1.6-0.4s-1.1,0.1-1.6,0.4c-0.4,0.3-0.8,0.6-1,1
		c-0.3,0.4-0.4,0.9-0.5,1.4c-0.1,0.5-0.2,1-0.2,1.6C183.7,267.5,183.8,268,183.9,268.5z"/>
	<path fill="#231F20" d="M199.2,270.3c0.2,0.3,0.4,0.5,0.6,0.7c0.3,0.2,0.6,0.3,0.9,0.4s0.7,0.1,1.1,0.1c0.3,0,0.5,0,0.8-0.1
		s0.5-0.2,0.8-0.3c0.2-0.1,0.4-0.3,0.6-0.5s0.2-0.5,0.2-0.8c0-0.6-0.4-1-1.1-1.2c-0.7-0.3-1.8-0.6-3.1-0.8c-0.5-0.1-1.1-0.3-1.6-0.4
		c-0.5-0.2-1-0.4-1.4-0.6c-0.4-0.3-0.7-0.6-1-1c-0.2-0.4-0.4-0.9-0.4-1.5c0-0.9,0.2-1.6,0.5-2.1c0.3-0.6,0.8-1,1.3-1.3
		c0.6-0.3,1.2-0.5,1.9-0.7c0.7-0.1,1.4-0.2,2.1-0.2s1.4,0.1,2.1,0.2c0.7,0.1,1.3,0.4,1.8,0.7c0.5,0.3,1,0.8,1.3,1.3s0.6,1.2,0.6,2.1
		H204c-0.1-0.7-0.3-1.2-0.8-1.4c-0.5-0.3-1.1-0.4-1.7-0.4c-0.2,0-0.4,0-0.7,0c-0.2,0-0.5,0.1-0.7,0.2c-0.2,0.1-0.4,0.2-0.5,0.4
		c-0.1,0.2-0.2,0.4-0.2,0.7c0,0.3,0.1,0.6,0.4,0.8c0.2,0.2,0.6,0.4,0.9,0.5c0.4,0.1,0.8,0.2,1.3,0.4c0.5,0.1,1,0.2,1.5,0.3
		c0.5,0.1,1.1,0.3,1.6,0.4c0.5,0.2,1,0.4,1.4,0.7s0.7,0.6,1,1.1c0.2,0.4,0.4,0.9,0.4,1.6c0,0.9-0.2,1.6-0.5,2.2
		c-0.4,0.6-0.8,1.1-1.4,1.4c-0.6,0.4-1.2,0.6-2,0.8c-0.7,0.1-1.5,0.2-2.2,0.2c-0.8,0-1.5-0.1-2.3-0.2c-0.7-0.2-1.4-0.4-2-0.8
		c-0.6-0.4-1.1-0.8-1.4-1.4c-0.4-0.6-0.6-1.3-0.6-2.2h3.5C199,269.7,199,270,199.2,270.3z"/>
	<path fill="#231F20" d="M217.2,260.2v2.5h-2.7v6.7c0,0.6,0.1,1,0.3,1.2c0.2,0.2,0.6,0.3,1.2,0.3c0.2,0,0.4,0,0.6,0
		c0.2,0,0.4,0,0.5-0.1v2.9c-0.3,0.1-0.7,0.1-1,0.1c-0.4,0-0.8,0-1.1,0c-0.6,0-1.1,0-1.6-0.1c-0.5-0.1-1-0.2-1.4-0.5
		c-0.4-0.2-0.7-0.5-0.9-1c-0.2-0.4-0.3-1-0.3-1.6v-7.9h-2.2v-2.5h2.2v-4h3.7v4H217.2z"/>
	<path fill="#231F20" d="M221.8,270.3c0.2,0.3,0.4,0.5,0.6,0.7c0.3,0.2,0.6,0.3,0.9,0.4s0.7,0.1,1.1,0.1c0.3,0,0.5,0,0.8-0.1
		s0.5-0.2,0.8-0.3c0.2-0.1,0.4-0.3,0.6-0.5s0.2-0.5,0.2-0.8c0-0.6-0.4-1-1.1-1.2c-0.7-0.3-1.8-0.6-3.1-0.8c-0.5-0.1-1.1-0.3-1.6-0.4
		c-0.5-0.2-1-0.4-1.4-0.6c-0.4-0.3-0.7-0.6-1-1c-0.2-0.4-0.4-0.9-0.4-1.5c0-0.9,0.2-1.6,0.5-2.1c0.3-0.6,0.8-1,1.3-1.3
		c0.6-0.3,1.2-0.5,1.9-0.7c0.7-0.1,1.4-0.2,2.1-0.2s1.4,0.1,2.1,0.2c0.7,0.1,1.3,0.4,1.8,0.7c0.5,0.3,1,0.8,1.3,1.3s0.6,1.2,0.6,2.1
		h-3.5c-0.1-0.7-0.3-1.2-0.8-1.4c-0.5-0.3-1.1-0.4-1.7-0.4c-0.2,0-0.4,0-0.7,0c-0.2,0-0.5,0.1-0.7,0.2c-0.2,0.1-0.4,0.2-0.5,0.4
		c-0.1,0.2-0.2,0.4-0.2,0.7c0,0.3,0.1,0.6,0.4,0.8c0.2,0.2,0.6,0.4,0.9,0.5c0.4,0.1,0.8,0.2,1.3,0.4c0.5,0.1,1,0.2,1.5,0.3
		c0.5,0.1,1.1,0.3,1.6,0.4c0.5,0.2,1,0.4,1.4,0.7s0.7,0.6,1,1.1c0.2,0.4,0.4,0.9,0.4,1.6c0,0.9-0.2,1.6-0.5,2.2
		c-0.4,0.6-0.8,1.1-1.4,1.4c-0.6,0.4-1.2,0.6-2,0.8c-0.7,0.1-1.5,0.2-2.2,0.2c-0.8,0-1.5-0.1-2.3-0.2c-0.7-0.2-1.4-0.4-2-0.8
		c-0.6-0.4-1.1-0.8-1.4-1.4c-0.4-0.6-0.6-1.3-0.6-2.2h3.5C221.6,269.7,221.7,270,221.8,270.3z"/>
	<path fill="#231F20" d="M236.7,269.6v4h-4.1v-4H236.7z"/>
</g>
</svg>
