<?xml version="1.0" encoding="utf-8"?>
<!-- Generator: Adobe Illustrator 26.5.0, SVG Export Plug-In . SVG Version: 6.00 Build 0)  -->
<svg version="1.1" id="Layer_1" xmlns="http://www.w3.org/2000/svg" xmlns:xlink="http://www.w3.org/1999/xlink" x="0px" y="0px"
	 viewBox="0 0 300 600" style="enable-background:new 0 0 300 600;" xml:space="preserve">
<style type="text/css">
	.st0{fill:#349946;}
	.st1{fill:#231F20;}
	.st2{fill:none;}
</style>
<path class="st0" d="M39.7,100.4h-2.8L36,97.7h-5.5l-0.9,2.7h-2.8l4.9-13h2c0.7,0,1.1,0.2,1.3,0.7c0.2,0.5,2.4,6.3,2.4,6.3h-2.6
	L33.2,90l-2,5.5h5.6c0.8,0,1.2,0.2,1.4,0.9L39.7,100.4z"/>
<path class="st0" d="M64.2,100.4h-2.8l-0.9-2.7H55l-0.9,2.7h-2.8l4.9-13h2c0.7,0,1.1,0.2,1.3,0.7c0.2,0.5,2.4,6.3,2.4,6.3h-2.6
	L57.7,90l-2,5.5h5.6c0.8,0,1.2,0.2,1.4,0.9L64.2,100.4z"/>
<path class="st0" d="M40.6,87.4h5.1c4,0,5.9,2.1,5.9,6.5c0,2.4-0.8,4.2-2.1,5.3c-1.3,1-2.7,1.2-4.5,1.2h-4.4V87.4z M45.3,98
	c2.5,0,3.5-1.2,3.5-4.1c0-2.9-1-4.2-3.2-4.2h-2.5V98H45.3z"/>
<g>
	<path class="st1" d="M86.2,100.3h-2L83.3,91l-3.1,9.3h-1.7L75.2,91l-0.8,9.3h-1.9L73.7,88h2.3l3.3,9.4l3.2-9.4h2.3L86.2,100.3z"/>
	<path class="st1" d="M96.2,95.7c0,0.1,0,0.2,0,0.4c0,0.2,0,0.3,0,0.3h-6.1c0,0.6,0.2,1.2,0.6,1.7c0.5,0.6,1.1,0.8,2,0.8
		c0.7,0,1.6-0.2,2.5-0.7l0.7,1.3c-0.9,0.6-2,1-3.3,1c-1.4,0-2.5-0.4-3.2-1.3c-0.8-0.8-1.1-1.9-1.1-3.3c0-1.4,0.4-2.6,1.2-3.5
		c0.8-0.9,1.8-1.3,3.1-1.3c1.2,0,2.2,0.4,2.8,1.2C95.9,93.1,96.2,94.2,96.2,95.7z M94.3,94.9c0-0.6-0.1-1-0.3-1.4
		c-0.3-0.6-0.9-0.9-1.6-0.9c-0.6,0-1.1,0.2-1.6,0.6c-0.4,0.4-0.7,1-0.7,1.7H94.3z"/>
	<path class="st1" d="M110.9,100.3h-2v-5.1c0-1-0.1-1.7-0.4-2c-0.2-0.3-0.6-0.4-1.1-0.4c-0.6,0-1.3,0.2-2,0.7c0.1,0.2,0.1,0.9,0.1,2
		v4.8h-2v-4.9c0-1.2-0.1-1.9-0.4-2.2c-0.2-0.2-0.6-0.4-1-0.4c-0.7,0-1.3,0.2-1.9,0.6v6.9h-2v-9h1.8v0.7c0.8-0.6,1.7-0.9,2.6-0.9
		c0.9,0,1.7,0.3,2.2,1c1-0.7,2-1,3-1c0.9,0,1.7,0.3,2.2,0.8c0.4,0.4,0.7,1,0.8,1.7c0.1,0.4,0.1,1.2,0.1,2.3V100.3z"/>
	<path class="st1" d="M121.3,95.6c0,1.5-0.4,2.7-1.3,3.6c-0.9,0.9-2,1.4-3.4,1.4c-1,0-2.2-0.2-3.5-0.7V87h2v4.7
		c0.7-0.5,1.5-0.7,2.3-0.7c1.1,0,2.1,0.4,2.8,1.2C121,93.1,121.3,94.2,121.3,95.6z M119.3,95.6c0-0.9-0.2-1.6-0.7-2.2
		c-0.4-0.5-1-0.7-1.6-0.7c-0.6,0-1.3,0.2-1.9,0.6v5.3c0.5,0.2,1,0.2,1.5,0.2c0.8,0,1.5-0.3,1.9-0.9
		C119.1,97.4,119.3,96.6,119.3,95.6z"/>
	<path class="st1" d="M131,95.7c0,0.1,0,0.2,0,0.4c0,0.2,0,0.3,0,0.3h-6.1c0,0.6,0.2,1.2,0.6,1.7c0.5,0.6,1.1,0.8,2,0.8
		c0.7,0,1.6-0.2,2.5-0.7l0.7,1.3c-0.9,0.6-2,1-3.3,1c-1.4,0-2.5-0.4-3.2-1.3c-0.8-0.8-1.1-1.9-1.1-3.3c0-1.4,0.4-2.6,1.2-3.5
		c0.8-0.9,1.8-1.3,3.1-1.3c1.2,0,2.2,0.4,2.8,1.2C130.6,93.1,131,94.2,131,95.7z M129.1,94.9c0-0.6-0.1-1-0.3-1.4
		c-0.3-0.6-0.9-0.9-1.6-0.9c-0.6,0-1.1,0.2-1.6,0.6c-0.4,0.4-0.7,1-0.7,1.7H129.1z"/>
	<path class="st1" d="M138.6,91.2l-0.5,1.6c-0.2,0-0.4-0.1-0.6-0.1c-1.1,0-2,0.5-2.6,1.4v6.1h-2v-9h1.8v1.1c0.1-0.2,0.4-0.5,0.8-0.7
		c0.6-0.4,1.4-0.7,2.1-0.7C137.9,91,138.3,91.1,138.6,91.2z"/>
</g>
<g>
	<path class="st1" d="M145.9,97.7c0,0.9-0.3,1.6-1,2.1c-0.6,0.5-1.5,0.8-2.5,0.8c-0.8,0-1.6-0.1-2.3-0.4c-0.5-0.2-0.8-0.4-1-0.5
		l0.7-1.3c0.9,0.5,1.7,0.7,2.4,0.7c0.5,0,0.9-0.1,1.2-0.3c0.3-0.2,0.4-0.5,0.4-0.8s-0.2-0.6-0.5-0.8c-0.2-0.1-0.6-0.3-1.4-0.7
		c-0.7-0.3-1.2-0.6-1.6-0.9c-0.5-0.5-0.8-1.1-0.8-1.8c0-0.8,0.3-1.5,0.9-1.9s1.4-0.7,2.4-0.7c1.3,0,2.2,0.3,2.9,0.8l-0.7,1.3
		c-0.7-0.4-1.4-0.6-2.1-0.6c-1,0-1.4,0.3-1.4,1c0,0.3,0.2,0.5,0.5,0.8c0.2,0.1,0.6,0.3,1.1,0.6c0.9,0.4,1.5,0.7,1.8,1
		C145.6,96.3,145.9,96.9,145.9,97.7z"/>
	<path class="st1" d="M154.8,100.3h-2.1V88h2.1V100.3z"/>
	<path class="st1" d="M164.9,100.3h-2v-4.9c0-1.2-0.1-1.9-0.4-2.2c-0.3-0.3-0.7-0.4-1.1-0.4c-0.6,0-1.3,0.2-2,0.7v6.8h-2v-9h1.8v0.7
		c0.8-0.6,1.7-0.9,2.7-0.9c0.9,0,1.7,0.3,2.2,0.8c0.4,0.4,0.7,0.9,0.8,1.5c0.1,0.4,0.1,1,0.1,1.8V100.3z"/>
	<path class="st1" d="M173.2,97.7c0,0.9-0.3,1.6-1,2.1c-0.6,0.5-1.5,0.8-2.5,0.8c-0.8,0-1.6-0.1-2.3-0.4c-0.5-0.2-0.8-0.4-1-0.5
		l0.7-1.3c0.9,0.5,1.7,0.7,2.4,0.7c0.5,0,0.9-0.1,1.2-0.3c0.3-0.2,0.4-0.5,0.4-0.8s-0.2-0.6-0.5-0.8c-0.2-0.1-0.6-0.3-1.4-0.7
		c-0.7-0.3-1.2-0.6-1.6-0.9c-0.5-0.5-0.8-1.1-0.8-1.8c0-0.8,0.3-1.5,0.9-1.9c0.6-0.5,1.4-0.7,2.4-0.7c1.3,0,2.2,0.3,2.9,0.8
		l-0.7,1.3c-0.7-0.4-1.4-0.6-2.1-0.6c-1,0-1.4,0.3-1.4,1c0,0.3,0.2,0.5,0.5,0.8c0.2,0.1,0.6,0.3,1.1,0.6c0.9,0.4,1.5,0.7,1.8,1
		C172.9,96.3,173.2,96.9,173.2,97.7z"/>
	<path class="st1" d="M182.8,100.3H181v-0.7c-0.8,0.6-1.7,0.9-2.7,0.9c-0.9,0-1.7-0.3-2.2-0.8c-0.4-0.4-0.7-0.9-0.8-1.5
		c-0.1-0.4-0.1-1-0.1-1.8v-5h2v4.9c0,0.6,0,1,0,1.2c0.1,0.5,0.2,0.9,0.5,1.1c0.3,0.2,0.6,0.3,1.1,0.3c0.5,0,1.2-0.2,2-0.7v-6.8h2
		V100.3z"/>
	<path class="st1" d="M190.8,91.2l-0.5,1.6c-0.2,0-0.4-0.1-0.6-0.1c-1.1,0-2,0.5-2.6,1.4v6.1h-2v-9h1.8v1.1c0.1-0.2,0.4-0.5,0.8-0.7
		c0.6-0.4,1.4-0.7,2.1-0.7C190.2,91,190.5,91.1,190.8,91.2z"/>
</g>
<g>
	<path class="st1" d="M198.7,100.3h-1.8v-0.7c-0.9,0.6-1.8,0.8-2.6,0.8c-0.9,0-1.6-0.3-2.1-0.8c-0.5-0.5-0.8-1.2-0.8-2
		c0-2.1,1.7-3.1,5.1-3.1h0.3v-0.3c0-0.6-0.1-0.9-0.3-1.1c-0.3-0.3-0.8-0.4-1.5-0.4c-0.8,0-1.6,0.2-2.4,0.7l-0.7-1.3
		c0.2-0.2,0.5-0.4,1-0.5c0.7-0.3,1.5-0.4,2.3-0.4c1.2,0,2.2,0.3,2.8,1c0.3,0.3,0.5,0.7,0.6,1.2c0.1,0.3,0.1,0.8,0.1,1.6V100.3z
		 M196.8,98.3v-2.4h-0.4c-1.4,0-2.3,0.2-2.8,0.7c-0.2,0.2-0.3,0.5-0.3,0.9c0,0.4,0.1,0.8,0.5,1c0.3,0.2,0.7,0.3,1.1,0.3
		C195.4,98.9,196,98.7,196.8,98.3z"/>
	<path class="st1" d="M208.5,100.3h-2v-4.9c0-1.2-0.1-1.9-0.4-2.2c-0.3-0.3-0.7-0.4-1.1-0.4c-0.6,0-1.3,0.2-2,0.7v6.8h-2v-9h1.8v0.7
		c0.8-0.6,1.7-0.9,2.7-0.9c0.9,0,1.7,0.3,2.2,0.8c0.4,0.4,0.7,0.9,0.8,1.5c0.1,0.4,0.1,1,0.1,1.8V100.3z"/>
	<path class="st1" d="M218.1,99.4c-0.1,0.1-0.4,0.3-0.9,0.6c-0.7,0.3-1.5,0.5-2.4,0.5c-1.3,0-2.4-0.4-3.2-1.3
		c-0.8-0.9-1.2-2-1.2-3.3c0-1.4,0.4-2.6,1.3-3.5c0.9-0.9,2-1.4,3.3-1.4c0.8,0,1.5,0.2,2.1,0.5c0.4,0.2,0.7,0.4,0.9,0.6l-0.8,1.3
		c-0.6-0.4-1.3-0.6-2-0.6c-0.8,0-1.5,0.3-2,0.9c-0.5,0.6-0.7,1.3-0.7,2.1c0,0.9,0.2,1.6,0.7,2.2c0.5,0.6,1.1,0.8,2,0.8
		c0.7,0,1.4-0.2,2.3-0.7L218.1,99.4z"/>
</g>
<g>
	<path class="st1" d="M227.1,95.7c0,0.1,0,0.2,0,0.4c0,0.2,0,0.3,0,0.3H221c0,0.6,0.2,1.2,0.6,1.7c0.5,0.6,1.1,0.8,2,0.8
		c0.7,0,1.6-0.2,2.5-0.7l0.7,1.3c-0.9,0.6-2,1-3.3,1c-1.4,0-2.5-0.4-3.2-1.3c-0.8-0.8-1.1-1.9-1.1-3.3c0-1.4,0.4-2.6,1.2-3.5
		c0.8-0.9,1.8-1.3,3.1-1.3c1.2,0,2.2,0.4,2.8,1.2C226.8,93.1,227.1,94.2,227.1,95.7z M225.2,94.9c0-0.6-0.1-1-0.3-1.4
		c-0.3-0.6-0.9-0.9-1.6-0.9c-0.6,0-1.1,0.2-1.6,0.6c-0.4,0.4-0.7,1-0.7,1.7H225.2z"/>
	<path class="st1" d="M241.9,91.7c0,1.1-0.3,2-1,2.7c-0.5,0.5-1.1,0.9-1.9,1c-0.5,0.1-1.2,0.1-2.3,0.1h-0.9v4.7h-2.1V88h3.3
		c1,0,1.7,0.1,2.2,0.2c0.7,0.1,1.3,0.4,1.7,0.9C241.5,89.7,241.9,90.6,241.9,91.7z M239.7,91.7c0-0.6-0.2-1.2-0.6-1.5
		c-0.3-0.3-1.1-0.5-2.3-0.5h-1.2v4.2h0.9c1.3,0,2.2-0.2,2.6-0.6C239.5,92.9,239.7,92.4,239.7,91.7z"/>
	<path class="st1" d="M246,100.3h-2V87h2V100.3z"/>
	<path class="st1" d="M255.3,100.3h-1.8v-0.7c-0.9,0.6-1.8,0.8-2.6,0.8c-0.9,0-1.6-0.3-2.1-0.8c-0.5-0.5-0.8-1.2-0.8-2
		c0-2.1,1.7-3.1,5.1-3.1h0.3v-0.3c0-0.6-0.1-0.9-0.3-1.1c-0.3-0.3-0.8-0.4-1.5-0.4c-0.8,0-1.6,0.2-2.4,0.7l-0.7-1.3
		c0.2-0.2,0.5-0.4,1-0.5c0.7-0.3,1.5-0.4,2.3-0.4c1.2,0,2.2,0.3,2.8,1c0.3,0.3,0.5,0.7,0.6,1.2c0.1,0.3,0.1,0.8,0.1,1.6V100.3z
		 M253.3,98.3v-2.4h-0.4c-1.4,0-2.3,0.2-2.8,0.7c-0.2,0.2-0.3,0.5-0.3,0.9c0,0.4,0.1,0.8,0.5,1c0.3,0.2,0.7,0.3,1.1,0.3
		C251.9,98.9,252.6,98.7,253.3,98.3z"/>
	<path class="st1" d="M265.1,100.3h-2v-4.9c0-1.2-0.1-1.9-0.4-2.2c-0.3-0.3-0.7-0.4-1.1-0.4c-0.6,0-1.3,0.2-2,0.7v6.8h-2v-9h1.8v0.7
		c0.8-0.6,1.7-0.9,2.7-0.9c0.9,0,1.7,0.3,2.2,0.8c0.4,0.4,0.7,0.9,0.8,1.5c0.1,0.4,0.1,1,0.1,1.8V100.3z"/>
	<path class="st1" d="M273.3,97.7c0,0.9-0.3,1.6-1,2.1c-0.6,0.5-1.5,0.8-2.5,0.8c-0.8,0-1.6-0.1-2.3-0.4c-0.5-0.2-0.8-0.4-1-0.5
		l0.7-1.3c0.9,0.5,1.7,0.7,2.4,0.7c0.5,0,0.9-0.1,1.2-0.3c0.3-0.2,0.4-0.5,0.4-0.8s-0.2-0.6-0.5-0.8c-0.2-0.1-0.6-0.3-1.4-0.7
		c-0.7-0.3-1.2-0.6-1.6-0.9c-0.5-0.5-0.8-1.1-0.8-1.8c0-0.8,0.3-1.5,0.9-1.9c0.6-0.5,1.4-0.7,2.4-0.7c1.3,0,2.2,0.3,2.9,0.8
		l-0.7,1.3c-0.7-0.4-1.4-0.6-2.1-0.6c-1,0-1.4,0.3-1.4,1c0,0.3,0.2,0.5,0.5,0.8c0.2,0.1,0.6,0.3,1.1,0.6c0.9,0.4,1.5,0.7,1.8,1
		C273,96.3,273.3,96.9,273.3,97.7z"/>
</g>
<path class="st0" d="M66,100.4c-0.9,0-1.5-0.7-1.5-1.5c0-0.9,0.7-1.5,1.5-1.5c0.9,0,1.5,0.7,1.5,1.5C67.6,99.8,66.9,100.4,66,100.4
	 M66,97.7c-0.7,0-1.2,0.5-1.2,1.2c0,0.6,0.5,1.1,1.2,1.1c0.6,0,1.2-0.5,1.2-1.1C67.2,98.2,66.7,97.7,66,97.7 M66.4,99.7l-0.2-0.4
	C66.1,99,66.1,99,65.9,99h-0.1v0.6h-0.3v-1.6h0.4c0.2,0,0.4,0,0.5,0.1c0.1,0.1,0.2,0.2,0.2,0.3c0,0.2-0.1,0.3-0.3,0.4
	c0.1,0,0.1,0.1,0.2,0.2l0.2,0.6H66.4z M66.2,98.4c-0.1,0-0.2,0-0.2,0h-0.1v0.4c0.1,0,0.2,0,0.3,0s0.2-0.1,0.2-0.2
	C66.3,98.4,66.2,98.4,66.2,98.4"/>
<rect x="26.8" y="84.9" class="st2" width="247" height="17"/>
</svg>
