<?xml version="1.0" encoding="utf-8"?>
<!-- Generator: Adobe Illustrator 25.4.6, SVG Export Plug-In . SVG Version: 6.00 Build 0)  -->
<svg version="1.1" id="Layer_1" xmlns="http://www.w3.org/2000/svg" xmlns:xlink="http://www.w3.org/1999/xlink" x="0px" y="0px"
	 viewBox="0 0 300 250" style="enable-background:new 0 0 300 250;" xml:space="preserve">
<g>
	<path d="M34.3,82.2v16.3H44v3.7H29.9v-20H34.3z"/>
	<path d="M46.2,85.5v-3.3h4v3.3H46.2z M50.1,87.7v14.5h-4V87.7H50.1z"/>
	<path d="M51.8,90.4v-2.7h2.4v-1.1c0-1.3,0.4-2.3,1.2-3.2c0.8-0.8,2-1.2,3.6-1.2c0.4,0,0.7,0,1.1,0c0.4,0,0.7,0.1,1,0.1v3
		c-0.5-0.1-1-0.1-1.5-0.1c-0.5,0-0.9,0.1-1.2,0.4c-0.2,0.3-0.4,0.7-0.4,1.3v0.9h2.7v2.7h-2.7v11.8h-4V90.4H51.8z"/>
	<path d="M66.8,98.8c0.6,0.6,1.5,0.9,2.6,0.9c0.8,0,1.5-0.2,2.1-0.6c0.6-0.4,0.9-0.8,1.1-1.3h3.5c-0.6,1.7-1.4,3-2.6,3.7
		s-2.6,1.1-4.2,1.1c-1.1,0-2.2-0.2-3.1-0.5c-0.9-0.4-1.7-0.9-2.3-1.6c-0.6-0.7-1.1-1.5-1.5-2.4c-0.3-0.9-0.5-2-0.5-3.1
		c0-1.1,0.2-2.1,0.5-3c0.4-0.9,0.9-1.7,1.5-2.4c0.7-0.7,1.4-1.2,2.3-1.6c0.9-0.4,1.9-0.6,3-0.6c1.2,0,2.3,0.2,3.2,0.7
		c0.9,0.5,1.7,1.1,2.3,1.9c0.6,0.8,1,1.7,1.3,2.7c0.3,1,0.4,2.1,0.3,3.2H65.9C65.9,97.2,66.3,98.2,66.8,98.8z M71.3,91.1
		c-0.5-0.5-1.2-0.8-2.2-0.8c-0.6,0-1.2,0.1-1.6,0.3c-0.4,0.2-0.8,0.5-1,0.8s-0.4,0.7-0.5,1c-0.1,0.4-0.2,0.7-0.2,1h6.5
		C72.1,92.4,71.8,91.7,71.3,91.1z"/>
	<path d="M83.3,97.9v4.3c0,0.6-0.1,1.2-0.4,1.8s-0.5,1-0.9,1.4c-0.4,0.4-0.9,0.7-1.4,1c-0.5,0.3-1.1,0.4-1.7,0.5v-2
		c0.3-0.1,0.5-0.2,0.8-0.3s0.5-0.4,0.7-0.6s0.3-0.5,0.4-0.8s0.1-0.6,0.1-0.9h-2v-4.3H83.3z"/>
	<path d="M103.3,82.2c1.3,0,2.5,0.2,3.6,0.6c1.1,0.4,2.1,1,2.9,1.8s1.4,1.8,1.9,3.1c0.5,1.2,0.7,2.7,0.7,4.3c0,1.5-0.2,2.8-0.6,4
		s-0.9,2.3-1.7,3.2s-1.7,1.6-2.8,2.1c-1.1,0.5-2.5,0.8-4,0.8h-8.6v-20H103.3z M103,98.5c0.6,0,1.3-0.1,1.8-0.3
		c0.6-0.2,1.1-0.5,1.6-1c0.5-0.5,0.8-1.1,1.1-1.9c0.3-0.8,0.4-1.7,0.4-2.8c0-1-0.1-1.9-0.3-2.7s-0.5-1.5-1-2.1c-0.4-0.6-1-1-1.8-1.3
		s-1.6-0.5-2.7-0.5H99v12.6H103z"/>
	<path d="M115.1,85.5v-3.3h4v3.3H115.1z M119.1,87.7v14.5h-4V87.7H119.1z"/>
	<path d="M125.5,98.6c0.2,0.3,0.4,0.6,0.7,0.8c0.3,0.2,0.6,0.3,1,0.4c0.4,0.1,0.7,0.1,1.1,0.1c0.3,0,0.6,0,0.9-0.1
		c0.3-0.1,0.6-0.2,0.8-0.3c0.3-0.1,0.5-0.3,0.6-0.6s0.3-0.5,0.3-0.9c0-0.6-0.4-1-1.2-1.3c-0.8-0.3-1.9-0.6-3.3-0.9
		c-0.6-0.1-1.1-0.3-1.7-0.5c-0.6-0.2-1-0.4-1.5-0.7c-0.4-0.3-0.8-0.7-1-1.1c-0.3-0.4-0.4-1-0.4-1.6c0-0.9,0.2-1.7,0.5-2.3
		c0.4-0.6,0.8-1.1,1.4-1.4c0.6-0.3,1.3-0.6,2-0.7c0.7-0.1,1.5-0.2,2.3-0.2c0.8,0,1.5,0.1,2.3,0.2c0.7,0.1,1.4,0.4,2,0.8
		c0.6,0.4,1.1,0.8,1.4,1.4c0.4,0.6,0.6,1.3,0.7,2.2h-3.8c-0.1-0.8-0.3-1.3-0.9-1.6c-0.5-0.3-1.1-0.4-1.8-0.4c-0.2,0-0.5,0-0.7,0
		c-0.3,0-0.5,0.1-0.7,0.2c-0.2,0.1-0.4,0.2-0.5,0.4c-0.1,0.2-0.2,0.4-0.2,0.7c0,0.4,0.1,0.6,0.4,0.9c0.3,0.2,0.6,0.4,1,0.5
		c0.4,0.1,0.9,0.3,1.4,0.4c0.5,0.1,1.1,0.2,1.7,0.4c0.6,0.1,1.1,0.3,1.7,0.5c0.6,0.2,1,0.4,1.5,0.7c0.4,0.3,0.8,0.7,1,1.1
		c0.3,0.5,0.4,1,0.4,1.7c0,1-0.2,1.8-0.6,2.4c-0.4,0.6-0.9,1.2-1.5,1.6c-0.6,0.4-1.3,0.7-2.1,0.8c-0.8,0.2-1.6,0.2-2.4,0.2
		c-0.8,0-1.7-0.1-2.5-0.3s-1.5-0.4-2.1-0.8s-1.1-0.9-1.5-1.6c-0.4-0.6-0.6-1.5-0.7-2.4h3.8C125.3,98,125.4,98.3,125.5,98.6z"/>
	<path d="M137.1,92.2c0.1-0.9,0.3-1.7,0.7-2.3c0.4-0.6,0.9-1.1,1.6-1.5c0.6-0.4,1.3-0.6,2.1-0.8c0.8-0.2,1.6-0.2,2.4-0.2
		c0.7,0,1.5,0.1,2.2,0.2c0.7,0.1,1.4,0.3,2,0.6c0.6,0.3,1.1,0.7,1.5,1.2c0.4,0.5,0.6,1.2,0.6,2.1V99c0,0.7,0,1.3,0.1,1.9
		c0.1,0.6,0.2,1,0.4,1.3h-4c-0.1-0.2-0.1-0.5-0.2-0.7c0-0.2-0.1-0.5-0.1-0.7c-0.6,0.7-1.4,1.1-2.2,1.4s-1.7,0.4-2.6,0.4
		c-0.7,0-1.3-0.1-1.9-0.3c-0.6-0.2-1.1-0.4-1.6-0.8c-0.4-0.4-0.8-0.8-1.1-1.3c-0.3-0.5-0.4-1.2-0.4-1.9c0-0.8,0.1-1.5,0.4-2
		c0.3-0.5,0.7-1,1.1-1.3c0.5-0.3,1-0.6,1.6-0.7s1.2-0.3,1.8-0.4c0.6-0.1,1.2-0.2,1.8-0.2c0.6-0.1,1.1-0.1,1.5-0.3
		c0.4-0.1,0.8-0.3,1.1-0.5c0.3-0.2,0.4-0.5,0.4-0.9c0-0.4-0.1-0.8-0.2-1c-0.1-0.3-0.3-0.4-0.6-0.6s-0.5-0.2-0.8-0.3
		c-0.3,0-0.6-0.1-1-0.1c-0.8,0-1.4,0.2-1.8,0.5c-0.4,0.3-0.7,0.9-0.8,1.7H137.1z M146.3,95.1c-0.2,0.1-0.4,0.3-0.6,0.4
		s-0.5,0.2-0.8,0.2c-0.3,0.1-0.6,0.1-0.9,0.1s-0.6,0.1-1,0.1c-0.3,0.1-0.6,0.1-0.9,0.2c-0.3,0.1-0.5,0.2-0.8,0.4
		c-0.2,0.2-0.4,0.4-0.5,0.6c-0.1,0.2-0.2,0.6-0.2,0.9c0,0.4,0.1,0.7,0.2,0.9c0.1,0.2,0.3,0.4,0.5,0.6c0.2,0.1,0.5,0.2,0.8,0.3
		s0.6,0.1,0.9,0.1c0.8,0,1.4-0.1,1.8-0.4c0.4-0.3,0.7-0.6,1-0.9c0.2-0.4,0.3-0.7,0.4-1.1c0-0.4,0.1-0.7,0.1-0.9V95.1z"/>
	<path d="M157.3,82.2v7.3h0.1c0.5-0.7,1.1-1.3,2-1.6c0.8-0.3,1.7-0.5,2.6-0.5c0.7,0,1.4,0.1,2.2,0.4c0.7,0.3,1.3,0.8,1.9,1.4
		c0.6,0.6,1,1.4,1.4,2.4c0.4,1,0.5,2.1,0.5,3.4c0,1.3-0.2,2.5-0.5,3.4c-0.4,1-0.8,1.8-1.4,2.4c-0.6,0.6-1.2,1.1-1.9,1.4
		c-0.7,0.3-1.4,0.4-2.2,0.4c-1.1,0-2-0.2-2.9-0.5s-1.5-0.9-1.9-1.7h-0.1v1.8h-3.8v-20H157.3z M163.7,93.2c-0.1-0.6-0.3-1.1-0.6-1.5
		c-0.3-0.4-0.6-0.8-1-1s-0.9-0.4-1.5-0.4c-0.6,0-1.1,0.1-1.5,0.4s-0.8,0.6-1.1,1c-0.3,0.4-0.5,0.9-0.6,1.5c-0.1,0.6-0.2,1.1-0.2,1.8
		c0,0.6,0.1,1.2,0.2,1.7c0.1,0.6,0.3,1.1,0.6,1.5c0.3,0.4,0.6,0.8,1.1,1s0.9,0.4,1.5,0.4c0.6,0,1.1-0.1,1.5-0.4s0.8-0.6,1-1
		c0.3-0.4,0.5-0.9,0.6-1.5c0.1-0.6,0.2-1.1,0.2-1.7C163.9,94.4,163.9,93.8,163.7,93.2z"/>
	<path d="M170.5,85.5v-3.3h4v3.3H170.5z M174.5,87.7v14.5h-4V87.7H174.5z"/>
	<path d="M181.7,82.2v20h-4v-20H181.7z"/>
	<path d="M185,85.5v-3.3h4v3.3H185z M189,87.7v14.5h-4V87.7H189z"/>
	<path d="M200,87.7v2.7h-2.9v7.2c0,0.7,0.1,1.1,0.3,1.3c0.2,0.2,0.7,0.3,1.3,0.3c0.2,0,0.4,0,0.6,0c0.2,0,0.4,0,0.6-0.1v3.1
		c-0.3,0.1-0.7,0.1-1.1,0.1s-0.8,0-1.2,0c-0.6,0-1.2,0-1.8-0.1s-1-0.2-1.5-0.5c-0.4-0.2-0.8-0.6-1-1c-0.2-0.4-0.4-1-0.4-1.8v-8.5
		h-2.4v-2.7h2.4v-4.3h4v4.3H200z"/>
	<path d="M207.3,106.5c-0.8,0.5-1.8,0.8-3.2,0.8c-0.4,0-0.8,0-1.2,0c-0.4,0-0.8-0.1-1.2-0.1v-3.3c0.4,0,0.8,0.1,1.1,0.1
		c0.4,0,0.8,0,1.2,0c0.5-0.1,0.9-0.3,1.2-0.6s0.4-0.7,0.4-1.2c0-0.3-0.1-0.6-0.2-0.9l-5.1-13.6h4.2l3.3,9.9h0.1l3.2-9.9h4.1l-6,16.3
		C208.7,105.2,208.1,106,207.3,106.5z"/>
	<path d="M224.1,92.2c0.1-0.9,0.3-1.7,0.7-2.3c0.4-0.6,0.9-1.1,1.6-1.5c0.6-0.4,1.3-0.6,2.1-0.8c0.8-0.2,1.6-0.2,2.4-0.2
		c0.7,0,1.5,0.1,2.2,0.2c0.7,0.1,1.4,0.3,2,0.6c0.6,0.3,1.1,0.7,1.5,1.2c0.4,0.5,0.6,1.2,0.6,2.1V99c0,0.7,0,1.3,0.1,1.9
		c0.1,0.6,0.2,1,0.4,1.3h-4c-0.1-0.2-0.1-0.5-0.2-0.7c0-0.2-0.1-0.5-0.1-0.7c-0.6,0.7-1.4,1.1-2.2,1.4s-1.7,0.4-2.6,0.4
		c-0.7,0-1.3-0.1-1.9-0.3s-1.1-0.4-1.6-0.8s-0.8-0.8-1-1.3c-0.3-0.5-0.4-1.2-0.4-1.9c0-0.8,0.1-1.5,0.4-2c0.3-0.5,0.7-1,1.1-1.3
		c0.5-0.3,1-0.6,1.6-0.7c0.6-0.2,1.2-0.3,1.8-0.4c0.6-0.1,1.2-0.2,1.8-0.2c0.6-0.1,1.1-0.1,1.5-0.3c0.4-0.1,0.8-0.3,1.1-0.5
		c0.3-0.2,0.4-0.5,0.4-0.9c0-0.4-0.1-0.8-0.2-1c-0.1-0.3-0.3-0.4-0.6-0.6s-0.5-0.2-0.8-0.3c-0.3,0-0.6-0.1-1-0.1
		c-0.8,0-1.4,0.2-1.8,0.5c-0.4,0.3-0.7,0.9-0.8,1.7H224.1z M233.3,95.1c-0.2,0.1-0.4,0.3-0.6,0.4s-0.5,0.2-0.8,0.2
		c-0.3,0.1-0.6,0.1-0.9,0.1s-0.6,0.1-1,0.1c-0.3,0.1-0.6,0.1-0.9,0.2c-0.3,0.1-0.5,0.2-0.8,0.4c-0.2,0.2-0.4,0.4-0.5,0.6
		c-0.1,0.2-0.2,0.6-0.2,0.9c0,0.4,0.1,0.7,0.2,0.9c0.1,0.2,0.3,0.4,0.5,0.6c0.2,0.1,0.5,0.2,0.8,0.3s0.6,0.1,0.9,0.1
		c0.8,0,1.4-0.1,1.8-0.4c0.4-0.3,0.7-0.6,1-0.9c0.2-0.4,0.3-0.7,0.4-1.1c0-0.4,0.1-0.7,0.1-0.9V95.1z"/>
	<path d="M244.1,87.7v2h0.1c0.5-0.8,1.2-1.5,2-1.8c0.8-0.4,1.6-0.6,2.5-0.6c1.1,0,1.9,0.1,2.6,0.4c0.7,0.3,1.2,0.7,1.6,1.2
		c0.4,0.5,0.7,1.1,0.8,1.9c0.2,0.7,0.2,1.6,0.2,2.5v8.9h-4V94c0-1.2-0.2-2.1-0.6-2.7s-1-0.9-2-0.9c-1.1,0-1.9,0.3-2.4,1
		s-0.7,1.7-0.7,3.2v7.6h-4V87.7H244.1z"/>
	<path d="M267.2,100.4c-0.5,0.8-1.1,1.3-1.8,1.7s-1.6,0.5-2.6,0.5c-1.1,0-2-0.2-2.9-0.6s-1.5-1-2-1.7c-0.5-0.7-0.9-1.5-1.2-2.5
		c-0.3-0.9-0.4-1.9-0.4-2.9c0-1,0.1-1.9,0.4-2.8c0.3-0.9,0.7-1.7,1.2-2.4s1.2-1.2,2-1.7c0.8-0.4,1.7-0.6,2.8-0.6
		c0.9,0,1.7,0.2,2.5,0.5c0.8,0.4,1.4,0.9,1.8,1.6h0.1v-7.3h4v20h-3.8L267.2,100.4L267.2,100.4z M267,93.2c-0.1-0.6-0.3-1-0.6-1.5
		s-0.6-0.8-1-1c-0.4-0.3-1-0.4-1.6-0.4s-1.2,0.1-1.7,0.4c-0.4,0.3-0.8,0.6-1.1,1c-0.3,0.4-0.5,0.9-0.6,1.5c-0.1,0.6-0.2,1.1-0.2,1.7
		c0,0.6,0.1,1.1,0.2,1.7c0.1,0.6,0.3,1.1,0.6,1.5c0.3,0.4,0.7,0.8,1.1,1.1s1,0.4,1.6,0.4c0.7,0,1.2-0.1,1.6-0.4c0.4-0.3,0.8-0.6,1-1
		c0.3-0.4,0.4-0.9,0.6-1.5s0.2-1.1,0.2-1.7S267.2,93.8,267,93.2z"/>
</g>
<g>
	<path d="M63.8,126.3c0.2,0.5,0.6,0.8,1,1.1c0.4,0.3,0.9,0.5,1.4,0.6c0.5,0.1,1.1,0.2,1.7,0.2c0.4,0,0.8,0,1.3-0.1
		c0.4-0.1,0.9-0.2,1.3-0.4s0.7-0.4,1-0.8c0.3-0.3,0.4-0.7,0.4-1.2c0-0.5-0.2-1-0.5-1.3c-0.3-0.3-0.8-0.6-1.4-0.8s-1.2-0.4-1.9-0.6
		c-0.7-0.2-1.4-0.4-2.2-0.6c-0.7-0.2-1.5-0.4-2.2-0.7c-0.7-0.3-1.3-0.6-1.9-1.1c-0.6-0.4-1-1-1.4-1.6s-0.5-1.4-0.5-2.3
		c0-1,0.2-1.9,0.7-2.7c0.4-0.8,1-1.4,1.7-1.9c0.7-0.5,1.5-0.9,2.4-1.1c0.9-0.2,1.8-0.4,2.7-0.4c1,0,2,0.1,3,0.3
		c1,0.2,1.8,0.6,2.6,1.1c0.7,0.5,1.3,1.2,1.8,2c0.4,0.8,0.7,1.8,0.7,3H71c0-0.6-0.2-1.1-0.4-1.5c-0.2-0.4-0.5-0.7-0.9-0.9
		s-0.8-0.4-1.2-0.5c-0.5-0.1-1-0.1-1.5-0.1c-0.4,0-0.7,0-1.1,0.1c-0.4,0.1-0.7,0.2-1,0.4c-0.3,0.2-0.5,0.4-0.7,0.7
		c-0.2,0.3-0.3,0.6-0.3,1.1c0,0.4,0.1,0.7,0.2,1c0.1,0.2,0.4,0.5,0.9,0.7c0.4,0.2,1,0.4,1.8,0.6c0.8,0.2,1.8,0.5,3,0.8
		c0.4,0.1,0.9,0.2,1.6,0.4c0.7,0.2,1.3,0.5,2,0.9c0.7,0.4,1.2,1,1.7,1.7s0.7,1.6,0.7,2.8c0,0.9-0.2,1.8-0.5,2.5s-0.9,1.5-1.6,2
		c-0.7,0.6-1.6,1-2.6,1.3c-1,0.3-2.2,0.5-3.6,0.5c-1.1,0-2.2-0.1-3.2-0.4s-2-0.7-2.7-1.3c-0.8-0.6-1.4-1.3-1.9-2.2
		c-0.5-0.9-0.7-2-0.7-3.2h4.3C63.4,125.3,63.5,125.8,63.8,126.3z"/>
	<path d="M88,131.2v-2h-0.1c-0.5,0.8-1.2,1.4-2,1.8c-0.8,0.4-1.6,0.6-2.5,0.6c-1.1,0-1.9-0.1-2.6-0.4c-0.7-0.3-1.2-0.7-1.6-1.2
		c-0.4-0.5-0.7-1.1-0.8-1.9c-0.2-0.7-0.2-1.6-0.2-2.5v-8.9h4v8.2c0,1.2,0.2,2.1,0.6,2.7s1,0.9,2,0.9c1.1,0,1.9-0.3,2.4-1
		c0.5-0.6,0.7-1.7,0.7-3.2v-7.6h4v14.5H88z"/>
	<path d="M98.5,116.8v1.8h0.1c0.5-0.8,1.1-1.4,1.8-1.7c0.7-0.4,1.6-0.5,2.5-0.5c1.1,0,2.1,0.2,2.9,0.6c0.8,0.4,1.5,1,2,1.7
		c0.5,0.7,0.9,1.5,1.2,2.5c0.3,0.9,0.4,1.9,0.4,3c0,1-0.1,1.9-0.4,2.8c-0.3,0.9-0.7,1.7-1.2,2.4c-0.5,0.7-1.2,1.2-2,1.7
		s-1.7,0.6-2.8,0.6c-0.9,0-1.7-0.2-2.5-0.5c-0.8-0.4-1.4-0.9-1.9-1.6h-0.1v6.9h-4v-19.5H98.5z M103.7,128.2c0.4-0.3,0.8-0.6,1.1-1
		c0.3-0.4,0.5-0.9,0.6-1.5c0.1-0.6,0.2-1.1,0.2-1.7s-0.1-1.1-0.2-1.7c-0.1-0.6-0.3-1.1-0.6-1.5s-0.6-0.8-1.1-1.1s-1-0.4-1.6-0.4
		c-0.7,0-1.2,0.1-1.6,0.4s-0.8,0.6-1.1,1c-0.3,0.4-0.5,0.9-0.6,1.5c-0.1,0.6-0.2,1.1-0.2,1.7c0,0.6,0.1,1.1,0.2,1.7
		c0.1,0.6,0.3,1,0.6,1.5c0.3,0.4,0.6,0.8,1.1,1c0.4,0.3,1,0.4,1.6,0.4C102.7,128.6,103.3,128.5,103.7,128.2z"/>
	<path d="M115.7,116.8v1.8h0.1c0.5-0.8,1.1-1.4,1.8-1.7c0.7-0.4,1.6-0.5,2.5-0.5c1.1,0,2.1,0.2,2.9,0.6c0.8,0.4,1.5,1,2,1.7
		c0.5,0.7,0.9,1.5,1.2,2.5c0.3,0.9,0.4,1.9,0.4,3c0,1-0.1,1.9-0.4,2.8c-0.3,0.9-0.7,1.7-1.2,2.4c-0.5,0.7-1.2,1.2-2,1.7
		s-1.7,0.6-2.8,0.6c-0.9,0-1.7-0.2-2.5-0.5c-0.8-0.4-1.4-0.9-1.9-1.6h-0.1v6.9h-4v-19.5H115.7z M120.8,128.2c0.4-0.3,0.8-0.6,1.1-1
		c0.3-0.4,0.5-0.9,0.6-1.5c0.1-0.6,0.2-1.1,0.2-1.7s-0.1-1.1-0.2-1.7c-0.1-0.6-0.3-1.1-0.6-1.5s-0.6-0.8-1.1-1.1s-1-0.4-1.6-0.4
		c-0.7,0-1.2,0.1-1.6,0.4s-0.8,0.6-1.1,1c-0.3,0.4-0.5,0.9-0.6,1.5c-0.1,0.6-0.2,1.1-0.2,1.7c0,0.6,0.1,1.1,0.2,1.7
		c0.1,0.6,0.3,1,0.6,1.5c0.3,0.4,0.6,0.8,1.1,1c0.4,0.3,1,0.4,1.6,0.4C119.8,128.6,120.4,128.5,120.8,128.2z"/>
	<path d="M133.1,111.2v20h-4v-20H133.1z"/>
	<path d="M140.5,127.8c0.6,0.6,1.5,0.9,2.6,0.9c0.8,0,1.5-0.2,2.1-0.6c0.6-0.4,0.9-0.8,1.1-1.3h3.5c-0.6,1.7-1.4,3-2.6,3.7
		c-1.2,0.7-2.6,1.1-4.2,1.1c-1.1,0-2.2-0.2-3.1-0.5c-0.9-0.4-1.7-0.9-2.3-1.6s-1.1-1.5-1.5-2.4c-0.3-0.9-0.5-2-0.5-3.1
		c0-1.1,0.2-2.1,0.5-3c0.4-0.9,0.9-1.7,1.5-2.4c0.7-0.7,1.4-1.2,2.3-1.6c0.9-0.4,1.9-0.6,3-0.6c1.2,0,2.3,0.2,3.2,0.7
		c0.9,0.5,1.7,1.1,2.3,1.9s1,1.7,1.3,2.7c0.3,1,0.4,2.1,0.3,3.2h-10.4C139.5,126.2,139.9,127.2,140.5,127.8z M145,120.1
		c-0.5-0.5-1.2-0.8-2.2-0.8c-0.6,0-1.2,0.1-1.6,0.3c-0.4,0.2-0.8,0.5-1,0.8s-0.4,0.7-0.5,1c-0.1,0.4-0.2,0.7-0.2,1h6.5
		C145.8,121.4,145.4,120.7,145,120.1z"/>
	<path d="M156.1,116.8v2h0.1c0.5-0.7,1.2-1.3,1.9-1.7c0.7-0.4,1.6-0.6,2.5-0.6c0.9,0,1.8,0.2,2.5,0.5c0.8,0.4,1.3,1,1.7,1.9
		c0.4-0.6,1-1.2,1.8-1.7c0.7-0.5,1.6-0.7,2.6-0.7c0.8,0,1.5,0.1,2.1,0.3s1.2,0.5,1.7,0.9s0.8,0.9,1.1,1.6c0.3,0.7,0.4,1.5,0.4,2.4
		v9.7h-4V123c0-0.5,0-0.9-0.1-1.4c0-0.4-0.1-0.8-0.3-1.1s-0.4-0.6-0.7-0.8c-0.3-0.2-0.8-0.3-1.3-0.3s-1,0.1-1.4,0.3
		c-0.3,0.2-0.6,0.5-0.8,0.8s-0.3,0.7-0.4,1.2c-0.1,0.4-0.1,0.9-0.1,1.3v8.1h-4v-8.1c0-0.4,0-0.9,0-1.3s-0.1-0.8-0.2-1.2
		c-0.1-0.4-0.4-0.6-0.7-0.9c-0.3-0.2-0.8-0.3-1.4-0.3c-0.2,0-0.4,0-0.7,0.1s-0.6,0.2-0.9,0.5c-0.3,0.2-0.5,0.6-0.7,1
		c-0.2,0.4-0.3,1-0.3,1.7v8.4h-4v-14.5H156.1z"/>
	<path d="M181.9,127.8c0.6,0.6,1.5,0.9,2.6,0.9c0.8,0,1.5-0.2,2.1-0.6c0.6-0.4,0.9-0.8,1.1-1.3h3.5c-0.6,1.7-1.4,3-2.6,3.7
		c-1.2,0.7-2.6,1.1-4.2,1.1c-1.1,0-2.2-0.2-3.1-0.5c-0.9-0.4-1.7-0.9-2.3-1.6s-1.1-1.5-1.5-2.4c-0.3-0.9-0.5-2-0.5-3.1
		c0-1.1,0.2-2.1,0.5-3c0.4-0.9,0.9-1.7,1.5-2.4c0.7-0.7,1.4-1.2,2.3-1.6c0.9-0.4,1.9-0.6,3-0.6c1.2,0,2.3,0.2,3.2,0.7
		c0.9,0.5,1.7,1.1,2.3,1.9s1,1.7,1.3,2.7c0.3,1,0.4,2.1,0.3,3.2h-10.4C181,126.2,181.3,127.2,181.9,127.8z M186.4,120.1
		c-0.5-0.5-1.2-0.8-2.2-0.8c-0.6,0-1.2,0.1-1.6,0.3c-0.4,0.2-0.8,0.5-1,0.8s-0.4,0.7-0.5,1c-0.1,0.4-0.2,0.7-0.2,1h6.5
		C187.2,121.4,186.9,120.7,186.4,120.1z"/>
	<path d="M197.5,116.8v2h0.1c0.5-0.8,1.2-1.5,2-1.8c0.8-0.4,1.6-0.6,2.5-0.6c1.1,0,1.9,0.1,2.6,0.4c0.7,0.3,1.2,0.7,1.6,1.2
		c0.4,0.5,0.7,1.1,0.8,1.9c0.2,0.7,0.2,1.6,0.2,2.5v8.9h-4v-8.2c0-1.2-0.2-2.1-0.6-2.7s-1-0.9-2-0.9c-1.1,0-1.9,0.3-2.4,1
		s-0.7,1.7-0.7,3.2v7.6h-4v-14.5H197.5z"/>
	<path d="M218.3,116.8v2.7h-2.9v7.2c0,0.7,0.1,1.1,0.3,1.3c0.2,0.2,0.7,0.3,1.3,0.3c0.2,0,0.4,0,0.6,0c0.2,0,0.4,0,0.6-0.1v3.1
		c-0.3,0.1-0.7,0.1-1.1,0.1c-0.4,0-0.8,0-1.2,0c-0.6,0-1.2,0-1.8-0.1s-1-0.2-1.5-0.5c-0.4-0.2-0.8-0.6-1-1c-0.2-0.4-0.4-1-0.4-1.8
		v-8.5H209v-2.7h2.4v-4.3h4v4.3H218.3z"/>
	<path d="M220,121.2c0.1-0.9,0.3-1.7,0.7-2.3c0.4-0.6,0.9-1.1,1.6-1.5c0.6-0.4,1.3-0.6,2.1-0.8c0.8-0.2,1.6-0.2,2.4-0.2
		c0.7,0,1.5,0.1,2.2,0.2c0.7,0.1,1.4,0.3,2,0.6c0.6,0.3,1.1,0.7,1.5,1.2c0.4,0.5,0.6,1.2,0.6,2.1v7.5c0,0.7,0,1.3,0.1,1.9
		c0.1,0.6,0.2,1,0.4,1.3h-4c-0.1-0.2-0.1-0.5-0.2-0.7s-0.1-0.5-0.1-0.7c-0.6,0.7-1.4,1.1-2.2,1.4c-0.9,0.3-1.7,0.4-2.6,0.4
		c-0.7,0-1.3-0.1-1.9-0.3s-1.1-0.4-1.6-0.8s-0.8-0.8-1-1.3c-0.3-0.5-0.4-1.2-0.4-1.9c0-0.8,0.1-1.5,0.4-2c0.3-0.5,0.7-1,1.1-1.3
		c0.5-0.3,1-0.6,1.6-0.7c0.6-0.2,1.2-0.3,1.8-0.4c0.6-0.1,1.2-0.2,1.8-0.2c0.6-0.1,1.1-0.1,1.5-0.3c0.4-0.1,0.8-0.3,1.1-0.5
		c0.3-0.2,0.4-0.5,0.4-0.9c0-0.4-0.1-0.8-0.2-1c-0.1-0.3-0.3-0.4-0.6-0.6s-0.5-0.2-0.8-0.3c-0.3,0-0.6-0.1-1-0.1
		c-0.8,0-1.4,0.2-1.8,0.5c-0.4,0.3-0.7,0.9-0.8,1.7H220z M229.2,124.1c-0.2,0.1-0.4,0.3-0.6,0.4s-0.5,0.2-0.8,0.2
		c-0.3,0.1-0.6,0.1-0.9,0.1s-0.6,0.1-1,0.1c-0.3,0.1-0.6,0.1-0.9,0.2c-0.3,0.1-0.5,0.2-0.8,0.4c-0.2,0.2-0.4,0.4-0.5,0.6
		c-0.1,0.2-0.2,0.6-0.2,0.9c0,0.4,0.1,0.7,0.2,0.9c0.1,0.2,0.3,0.4,0.5,0.6c0.2,0.1,0.5,0.2,0.8,0.3c0.3,0.1,0.6,0.1,0.9,0.1
		c0.8,0,1.4-0.1,1.8-0.4c0.4-0.3,0.7-0.6,1-0.9c0.2-0.4,0.3-0.7,0.4-1.1c0-0.4,0.1-0.7,0.1-0.9V124.1z"/>
	<path d="M240.3,111.2v20h-4v-20H240.3z"/>
</g>
</svg>
