<?xml version="1.0" encoding="utf-8"?>
<!-- Generator: Adobe Illustrator 26.4.1, SVG Export Plug-In . SVG Version: 6.00 Build 0)  -->
<svg version="1.1" id="Layer_1" xmlns="http://www.w3.org/2000/svg" xmlns:xlink="http://www.w3.org/1999/xlink" x="0px" y="0px"
	 viewBox="0 0 300 250" style="enable-background:new 0 0 300 250;" xml:space="preserve">
<g>
	<path d="M61.9,105.2v16.3h9.7v3.7H57.5v-20H61.9z"/>
	<path d="M73.8,108.5v-3.3h4v3.3H73.8z M77.7,110.7v14.5h-4v-14.5H77.7z"/>
	<path d="M79.4,113.4v-2.7h2.4v-1.1c0-1.3,0.4-2.3,1.2-3.2c0.8-0.8,2-1.2,3.6-1.2c0.4,0,0.7,0,1.1,0c0.4,0,0.7,0.1,1,0.1v3
		c-0.5-0.1-1-0.1-1.5-0.1c-0.5,0-0.9,0.1-1.2,0.4c-0.2,0.3-0.4,0.7-0.4,1.3v0.9h2.7v2.7h-2.7v11.8h-4v-11.8H79.4z"/>
	<path d="M94.4,121.7c0.6,0.6,1.5,0.9,2.6,0.9c0.8,0,1.5-0.2,2.1-0.6c0.6-0.4,0.9-0.8,1.1-1.3h3.5c-0.6,1.7-1.4,3-2.6,3.7
		s-2.6,1.1-4.2,1.1c-1.1,0-2.2-0.2-3.1-0.5c-0.9-0.4-1.7-0.9-2.3-1.6c-0.6-0.7-1.1-1.5-1.5-2.4c-0.3-0.9-0.5-2-0.5-3.1
		c0-1.1,0.2-2.1,0.5-3c0.4-0.9,0.9-1.7,1.5-2.4c0.7-0.7,1.4-1.2,2.3-1.6c0.9-0.4,1.9-0.6,3-0.6c1.2,0,2.3,0.2,3.2,0.7
		c0.9,0.5,1.7,1.1,2.3,1.9c0.6,0.8,1,1.7,1.3,2.7c0.3,1,0.4,2.1,0.3,3.2H93.5C93.5,120.2,93.8,121.1,94.4,121.7z M98.9,114.1
		c-0.5-0.5-1.2-0.8-2.2-0.8c-0.6,0-1.2,0.1-1.6,0.3c-0.4,0.2-0.8,0.5-1,0.8s-0.4,0.7-0.5,1c-0.1,0.4-0.2,0.7-0.2,1h6.5
		C99.7,115.4,99.4,114.6,98.9,114.1z"/>
	<path d="M118.9,105.2v20h-4.4v-20H118.9z"/>
	<path d="M126.1,110.7v2h0.1c0.5-0.8,1.2-1.5,2-1.8c0.8-0.4,1.6-0.6,2.5-0.6c1.1,0,1.9,0.1,2.6,0.4c0.7,0.3,1.2,0.7,1.6,1.2
		c0.4,0.5,0.7,1.1,0.8,1.9c0.2,0.7,0.2,1.6,0.2,2.5v8.9h-4V117c0-1.2-0.2-2.1-0.6-2.7c-0.4-0.6-1-0.9-2-0.9c-1.1,0-1.9,0.3-2.4,1
		s-0.7,1.7-0.7,3.2v7.6h-4v-14.5H126.1z"/>
	<path d="M142.3,121.6c0.2,0.3,0.4,0.6,0.7,0.8c0.3,0.2,0.6,0.3,1,0.4c0.4,0.1,0.7,0.1,1.1,0.1c0.3,0,0.6,0,0.9-0.1
		c0.3-0.1,0.6-0.2,0.8-0.3c0.3-0.1,0.5-0.3,0.6-0.6s0.3-0.5,0.3-0.9c0-0.6-0.4-1-1.2-1.3c-0.8-0.3-1.9-0.6-3.3-0.9
		c-0.6-0.1-1.1-0.3-1.7-0.5c-0.6-0.2-1-0.4-1.5-0.7c-0.4-0.3-0.8-0.7-1-1.1c-0.3-0.4-0.4-1-0.4-1.6c0-0.9,0.2-1.7,0.5-2.3
		c0.4-0.6,0.8-1.1,1.4-1.4c0.6-0.3,1.3-0.6,2-0.7c0.7-0.1,1.5-0.2,2.3-0.2c0.8,0,1.5,0.1,2.3,0.2c0.7,0.1,1.4,0.4,2,0.8
		c0.6,0.4,1.1,0.8,1.4,1.4s0.6,1.3,0.7,2.2h-3.8c-0.1-0.8-0.3-1.3-0.9-1.6c-0.5-0.3-1.1-0.4-1.8-0.4c-0.2,0-0.5,0-0.7,0
		c-0.3,0-0.5,0.1-0.7,0.2c-0.2,0.1-0.4,0.2-0.5,0.4c-0.1,0.2-0.2,0.4-0.2,0.7c0,0.4,0.1,0.6,0.4,0.9s0.6,0.4,1,0.5
		c0.4,0.1,0.9,0.3,1.4,0.4c0.5,0.1,1.1,0.2,1.7,0.4c0.6,0.1,1.1,0.3,1.7,0.5s1,0.4,1.5,0.7c0.4,0.3,0.8,0.7,1,1.1
		c0.3,0.5,0.4,1,0.4,1.7c0,1-0.2,1.8-0.6,2.4c-0.4,0.6-0.9,1.2-1.5,1.6c-0.6,0.4-1.3,0.7-2.1,0.8c-0.8,0.2-1.6,0.2-2.4,0.2
		c-0.8,0-1.7-0.1-2.5-0.3s-1.5-0.4-2.1-0.8s-1.1-0.9-1.5-1.6c-0.4-0.6-0.6-1.5-0.7-2.4h3.8C142,120.9,142.1,121.3,142.3,121.6z"/>
	<path d="M163.7,125.2v-2h-0.1c-0.5,0.8-1.2,1.4-2,1.8c-0.8,0.4-1.6,0.6-2.5,0.6c-1.1,0-1.9-0.1-2.6-0.4c-0.7-0.3-1.2-0.7-1.6-1.2
		c-0.4-0.5-0.7-1.1-0.8-1.9c-0.2-0.7-0.2-1.6-0.2-2.4v-8.9h4v8.2c0,1.2,0.2,2.1,0.6,2.7s1,0.9,2,0.9c1.1,0,1.9-0.3,2.4-1
		s0.7-1.7,0.7-3.2v-7.6h4v14.5H163.7z"/>
	<path d="M174.3,110.7v2.7h0.1c0.2-0.4,0.4-0.9,0.8-1.2c0.3-0.4,0.7-0.7,1.1-1c0.4-0.3,0.8-0.5,1.3-0.6c0.5-0.1,1-0.2,1.5-0.2
		c0.3,0,0.6,0,0.9,0.1v3.7c-0.2,0-0.4-0.1-0.7-0.1c-0.3,0-0.5,0-0.8,0c-0.7,0-1.3,0.1-1.8,0.4c-0.5,0.2-0.9,0.6-1.2,1
		c-0.3,0.4-0.5,0.9-0.7,1.5c-0.1,0.6-0.2,1.2-0.2,1.8v6.5h-4v-14.5H174.3z"/>
	<path d="M181.3,115.2c0.1-0.9,0.3-1.7,0.7-2.3c0.4-0.6,0.9-1.1,1.6-1.5c0.6-0.4,1.3-0.6,2.1-0.8c0.8-0.2,1.6-0.2,2.4-0.2
		c0.7,0,1.5,0.1,2.2,0.2c0.7,0.1,1.4,0.3,2,0.6c0.6,0.3,1.1,0.7,1.5,1.2c0.4,0.5,0.6,1.2,0.6,2.1v7.5c0,0.7,0,1.3,0.1,1.9
		c0.1,0.6,0.2,1,0.4,1.3h-4c-0.1-0.2-0.1-0.5-0.2-0.7c0-0.2-0.1-0.5-0.1-0.7c-0.6,0.7-1.4,1.1-2.2,1.4s-1.7,0.4-2.6,0.4
		c-0.7,0-1.3-0.1-1.9-0.3s-1.1-0.4-1.6-0.8s-0.8-0.8-1-1.3c-0.3-0.5-0.4-1.2-0.4-1.9c0-0.8,0.1-1.5,0.4-2c0.3-0.5,0.7-1,1.1-1.3
		c0.5-0.3,1-0.6,1.6-0.7c0.6-0.2,1.2-0.3,1.8-0.4c0.6-0.1,1.2-0.2,1.8-0.2c0.6-0.1,1.1-0.1,1.5-0.3c0.4-0.1,0.8-0.3,1.1-0.5
		c0.3-0.2,0.4-0.5,0.4-0.9c0-0.4-0.1-0.8-0.2-1c-0.1-0.3-0.3-0.4-0.6-0.6s-0.5-0.2-0.8-0.3c-0.3,0-0.6-0.1-1-0.1
		c-0.8,0-1.4,0.2-1.8,0.5c-0.4,0.3-0.7,0.9-0.8,1.7H181.3z M190.5,118.1c-0.2,0.1-0.4,0.3-0.6,0.4s-0.5,0.2-0.8,0.2
		c-0.3,0.1-0.6,0.1-0.9,0.1s-0.6,0.1-1,0.1c-0.3,0.1-0.6,0.1-0.9,0.2c-0.3,0.1-0.5,0.2-0.8,0.4c-0.2,0.2-0.4,0.4-0.5,0.6
		c-0.1,0.2-0.2,0.6-0.2,0.9c0,0.4,0.1,0.7,0.2,0.9c0.1,0.2,0.3,0.4,0.5,0.6c0.2,0.1,0.5,0.2,0.8,0.3s0.6,0.1,0.9,0.1
		c0.8,0,1.4-0.1,1.8-0.4c0.4-0.3,0.7-0.6,1-0.9c0.2-0.4,0.3-0.7,0.4-1.1c0-0.4,0.1-0.7,0.1-0.9V118.1z"/>
	<path d="M201.3,110.7v2h0.1c0.5-0.8,1.2-1.5,2-1.8c0.8-0.4,1.6-0.6,2.5-0.6c1.1,0,1.9,0.1,2.6,0.4c0.7,0.3,1.2,0.7,1.6,1.2
		c0.4,0.5,0.7,1.1,0.8,1.9c0.2,0.7,0.2,1.6,0.2,2.5v8.9h-4V117c0-1.2-0.2-2.1-0.6-2.7s-1-0.9-2-0.9c-1.1,0-1.9,0.3-2.4,1
		s-0.7,1.7-0.7,3.2v7.6h-4v-14.5H201.3z"/>
	<path d="M221,113.3c-0.6,0-1.2,0.1-1.6,0.4c-0.4,0.3-0.8,0.7-1,1.1c-0.3,0.5-0.5,1-0.6,1.5c-0.1,0.6-0.2,1.1-0.2,1.6
		c0,0.5,0.1,1.1,0.2,1.6s0.3,1,0.5,1.5c0.3,0.4,0.6,0.8,1,1.1c0.4,0.3,1,0.4,1.6,0.4c1,0,1.7-0.3,2.2-0.8c0.5-0.5,0.8-1.2,1-2.1h3.8
		c-0.3,1.9-1,3.4-2.2,4.4c-1.2,1-2.8,1.5-4.7,1.5c-1.1,0-2.1-0.2-3-0.5c-0.9-0.4-1.7-0.9-2.3-1.5c-0.6-0.7-1.1-1.4-1.5-2.3
		c-0.4-0.9-0.5-1.9-0.5-3c0-1.1,0.2-2.2,0.5-3.1c0.3-1,0.8-1.8,1.4-2.5c0.6-0.7,1.4-1.2,2.3-1.6c0.9-0.4,2-0.6,3.1-0.6
		c0.9,0,1.7,0.1,2.5,0.3c0.8,0.2,1.5,0.6,2.1,1c0.6,0.5,1.1,1,1.5,1.7c0.4,0.7,0.6,1.5,0.7,2.4H224
		C223.7,114.1,222.7,113.3,221,113.3z"/>
	<path d="M234.4,121.7c0.6,0.6,1.5,0.9,2.6,0.9c0.8,0,1.5-0.2,2.1-0.6c0.6-0.4,0.9-0.8,1.1-1.3h3.5c-0.6,1.7-1.4,3-2.6,3.7
		c-1.2,0.7-2.6,1.1-4.2,1.1c-1.1,0-2.2-0.2-3.1-0.5c-0.9-0.4-1.7-0.9-2.3-1.6c-0.6-0.7-1.1-1.5-1.5-2.4c-0.3-0.9-0.5-2-0.5-3.1
		c0-1.1,0.2-2.1,0.5-3c0.4-0.9,0.9-1.7,1.5-2.4c0.7-0.7,1.4-1.2,2.3-1.6c0.9-0.4,1.9-0.6,3-0.6c1.2,0,2.3,0.2,3.2,0.7
		c0.9,0.5,1.7,1.1,2.3,1.9s1,1.7,1.3,2.7c0.3,1,0.4,2.1,0.3,3.2h-10.4C233.5,120.2,233.8,121.1,234.4,121.7z M238.9,114.1
		c-0.5-0.5-1.2-0.8-2.2-0.8c-0.6,0-1.2,0.1-1.6,0.3c-0.4,0.2-0.8,0.5-1,0.8s-0.4,0.7-0.5,1c-0.1,0.4-0.2,0.7-0.2,1h6.5
		C239.7,115.4,239.4,114.6,238.9,114.1z"/>
</g>
</svg>
