<svg id="Layer_1" xmlns="http://www.w3.org/2000/svg" viewBox="0 0 300 250"><style>.st0{fill:#393}</style><path class="st0" d="M44.3 77.2c1.2 0 2.3.2 3.2.5.9.4 1.6.8 2.1 1.4.6.6 1 1.3 1.2 2 .3.8.4 1.6.4 2.4 0 .8-.1 1.6-.4 2.4-.3.8-.7 1.5-1.2 2.1-.6.6-1.3 1.1-2.1 1.4-.9.4-1.9.5-3.2.5h-4.6v7.2h-4.4v-20h9zm-1.2 9.4c.5 0 1 0 1.5-.1s.9-.2 1.2-.4c.4-.2.6-.5.9-.9.2-.4.3-.9.3-1.5s-.1-1.1-.3-1.5c-.2-.4-.5-.7-.9-.9-.4-.2-.8-.4-1.2-.4-.5-.1-1-.1-1.5-.1h-3.4v6h3.4zM57.3 82.7v2.7h.1c.2-.4.4-.9.8-1.2.3-.4.7-.7 1.1-1 .4-.3.8-.5 1.3-.6.5-.1 1-.2 1.5-.2.3 0 .6 0 .9.1v3.7c-.2 0-.4-.1-.7-.1h-.8c-.7 0-1.3.1-1.8.4-.5.2-.9.6-1.2 1-.3.4-.5.9-.7 1.5-.1.6-.2 1.2-.2 1.8v6.5h-4V82.7h3.7zM64.3 87.1c.1-.9.3-1.7.7-2.3.4-.6.9-1.1 1.6-1.5.6-.4 1.3-.6 2.1-.8s1.6-.2 2.4-.2c.7 0 1.5.1 2.2.2s1.4.3 2 .6c.6.3 1.1.7 1.5 1.2.4.5.6 1.2.6 2.1v7.5c0 .7 0 1.3.1 1.9.1.6.2 1 .4 1.3h-4c-.1-.2-.1-.5-.2-.7 0-.2-.1-.5-.1-.7-.6.7-1.4 1.1-2.2 1.4-.9.3-1.7.4-2.6.4-.7 0-1.3-.1-1.9-.3-.6-.2-1.1-.4-1.6-.8-.4-.4-.8-.8-1.1-1.3-.3-.5-.4-1.2-.4-1.9 0-.8.1-1.5.4-2 .3-.5.7-1 1.1-1.3.5-.3 1-.6 1.6-.7s1.2-.3 1.8-.4c.6-.1 1.2-.2 1.8-.2.6-.1 1.1-.1 1.5-.3.4-.1.8-.3 1.1-.5.3-.2.4-.5.4-.9s-.1-.8-.2-1c-.1-.3-.3-.4-.6-.6s-.5-.2-.8-.3c-.3 0-.6-.1-1-.1-.8 0-1.4.2-1.8.5-.4.3-.7.9-.8 1.7h-4zm9.1 3c-.2.1-.4.3-.6.4s-.5.2-.8.2c-.3.1-.6.1-.9.1s-.6.1-1 .1c-.3.1-.6.1-.9.2-.3.1-.5.2-.8.4-.2.2-.4.4-.5.6-.1.2-.2.6-.2.9 0 .4.1.7.2.9.1.2.3.4.5.6s.5.2.8.3.6.1.9.1c.8 0 1.4-.1 1.8-.4.4-.3.7-.6 1-.9.2-.4.3-.7.4-1.1 0-.4.1-.7.1-.9v-1.5zM87.4 85.3c-.6 0-1.2.1-1.6.4-.4.3-.8.7-1 1.1-.3.5-.5 1-.6 1.5-.1.6-.2 1.2-.2 1.7s.1 1.1.2 1.6.3 1 .5 1.5c.3.4.6.8 1 1.1.4.3 1 .4 1.6.4 1 0 1.7-.3 2.2-.8.5-.5.8-1.2 1-2.1h3.8c-.3 1.9-1 3.4-2.2 4.4s-2.8 1.5-4.7 1.5c-1.1 0-2.1-.2-3-.5-.9-.4-1.7-.9-2.3-1.5-.6-.7-1.1-1.4-1.5-2.3-.4-.9-.5-1.9-.5-3s.2-2.2.5-3.1c.3-1 .8-1.8 1.4-2.5.6-.7 1.4-1.2 2.3-1.6.9-.4 2-.6 3.1-.6.9 0 1.7.1 2.5.3.8.2 1.5.6 2.1 1 .6.5 1.1 1 1.5 1.7.4.7.6 1.5.7 2.4h-3.9c-.2-1.8-1.2-2.6-2.9-2.6zM104.5 82.7v2.7h-2.9v7.2c0 .7.1 1.1.3 1.3.2.2.7.3 1.3.3h.6c.2 0 .4 0 .6-.1v3.1c-.3.1-.7.1-1.1.1h-1.2c-.6 0-1.2 0-1.8-.1-.6-.1-1-.2-1.5-.5-.4-.2-.8-.6-1-1-.2-.4-.4-1-.4-1.8v-8.5H95v-2.7h2.4v-4.3h4v4.3h3.1zM106.5 80.5v-3.3h4v3.3h-4zm4 2.2v14.5h-4V82.7h4zM120.6 85.3c-.6 0-1.2.1-1.6.4-.4.3-.8.7-1 1.1-.3.5-.5 1-.6 1.5-.1.6-.2 1.1-.2 1.6s.1 1.1.2 1.6.3 1 .5 1.5c.3.4.6.8 1 1.1.4.3 1 .4 1.6.4 1 0 1.7-.3 2.2-.8.5-.5.8-1.2 1-2.1h3.8c-.3 1.9-1 3.4-2.2 4.4s-2.8 1.5-4.7 1.5c-1.1 0-2.1-.2-3-.5-.9-.4-1.7-.9-2.3-1.5-.6-.7-1.1-1.4-1.5-2.3-.4-.9-.5-1.9-.5-3s.2-2.2.5-3.1c.3-1 .8-1.8 1.4-2.5.6-.7 1.4-1.2 2.3-1.6.9-.4 2-.6 3.1-.6.9 0 1.7.1 2.5.3.8.2 1.5.6 2.1 1 .6.5 1.1 1 1.5 1.7.4.7.6 1.5.7 2.4h-3.9c-.3-1.7-1.2-2.5-2.9-2.5zM129.6 87.1c.1-.9.3-1.7.7-2.3.4-.6.9-1.1 1.6-1.5.6-.4 1.3-.6 2.1-.8s1.6-.2 2.4-.2c.7 0 1.5.1 2.2.2s1.4.3 2 .6c.6.3 1.1.7 1.5 1.2.4.5.6 1.2.6 2.1v7.5c0 .7 0 1.3.1 1.9.1.6.2 1 .4 1.3h-4c-.1-.2-.1-.5-.2-.7 0-.2-.1-.5-.1-.7-.6.7-1.4 1.1-2.2 1.4-.9.3-1.7.4-2.6.4-.7 0-1.3-.1-1.9-.3-.6-.2-1.1-.4-1.6-.8-.4-.4-.8-.8-1.1-1.3-.3-.5-.4-1.2-.4-1.9 0-.8.1-1.5.4-2 .3-.5.7-1 1.1-1.3.5-.3 1-.6 1.6-.7s1.2-.3 1.8-.4c.6-.1 1.2-.2 1.8-.2.6-.1 1.1-.1 1.5-.3.4-.1.8-.3 1.1-.5.3-.2.4-.5.4-.9s-.1-.8-.2-1c-.1-.3-.3-.4-.6-.6s-.5-.2-.8-.3c-.3 0-.6-.1-1-.1-.8 0-1.4.2-1.8.5-.4.3-.7.9-.8 1.7h-4zm9.1 3c-.2.1-.4.3-.6.4s-.5.2-.8.2c-.3.1-.6.1-.9.1s-.6.1-1 .1c-.3.1-.6.1-.9.2-.3.1-.5.2-.8.4-.2.2-.4.4-.5.6-.1.2-.2.6-.2.9 0 .4.1.7.2.9.1.2.3.4.5.6s.5.2.8.3.6.1.9.1c.8 0 1.4-.1 1.8-.4.4-.3.7-.6 1-.9.2-.4.3-.7.4-1.1 0-.4.1-.7.1-.9v-1.5zM149.9 77.2v20h-4v-20h4zM175.9 97.2l-3.4-13.6h-.1l-3.3 13.6h-4.5l-5.3-20h4.4l3.2 13.6h.1l3.5-13.6h4.1L178 91h.1l3.3-13.8h4.3l-5.4 20h-4.4zM187.4 80.5v-3.3h4v3.3h-4zm3.9 2.2v14.5h-4V82.7h4zM197.8 93.6c.2.3.4.6.7.8.3.2.6.3 1 .4.4.1.7.1 1.1.1.3 0 .6 0 .9-.1.3-.1.6-.2.8-.3.3-.1.5-.3.6-.6s.3-.5.3-.9c0-.6-.4-1-1.2-1.3-.8-.3-1.9-.6-3.3-.9-.6-.1-1.1-.3-1.7-.5-.6-.2-1-.4-1.5-.7-.4-.3-.8-.7-1-1.1-.3-.4-.4-1-.4-1.6 0-.9.2-1.7.5-2.3.4-.6.8-1.1 1.4-1.4.6-.3 1.3-.6 2-.7.7-.1 1.5-.2 2.3-.2s1.5.1 2.3.2c.7.1 1.4.4 2 .8.6.4 1.1.8 1.4 1.4.4.6.6 1.3.7 2.2H203c-.1-.8-.3-1.3-.9-1.6s-1.1-.3-1.8-.3h-.7c-.3 0-.5.1-.7.2-.2.1-.4.2-.5.4-.1.2-.2.4-.2.7 0 .4.1.6.4.9s.6.4 1 .5c.4.1.9.3 1.4.4.5.1 1.1.2 1.7.4.6.1 1.1.3 1.7.5.5.2 1 .4 1.5.7.4.3.8.7 1 1.1.3.5.4 1 .4 1.7 0 1-.2 1.8-.6 2.4-.4.6-.9 1.2-1.5 1.6-.6.4-1.3.7-2.1.8-.8.2-1.6.2-2.4.2-.8 0-1.7-.1-2.5-.3-.8-.2-1.5-.4-2.1-.8s-1.1-.9-1.5-1.6c-.4-.6-.6-1.5-.7-2.4h3.8c-.2.5-.1.9.1 1.2zM219.8 95.3c-.5.8-1.1 1.3-1.8 1.7s-1.6.5-2.6.5c-1.1 0-2-.2-2.9-.6s-1.5-1-2-1.7-.9-1.5-1.2-2.5c-.3-.9-.4-1.9-.4-2.9s.1-1.9.4-2.8c.3-.9.7-1.7 1.2-2.4s1.2-1.2 2-1.7c.8-.4 1.7-.6 2.8-.6.9 0 1.7.2 2.5.5.8.4 1.4.9 1.8 1.6h.1v-7.3h4v20h-3.8l-.1-1.8zm-.2-7.1c-.1-.6-.3-1-.6-1.5s-.6-.8-1-1c-.4-.3-1-.4-1.6-.4s-1.2.1-1.7.4c-.4.3-.8.6-1.1 1-.3.4-.5.9-.6 1.5-.1.6-.2 1.1-.2 1.7 0 .6.1 1.1.2 1.7.1.6.3 1.1.6 1.5.3.4.7.8 1.1 1.1s1 .4 1.6.4c.7 0 1.2-.1 1.6-.4.4-.3.8-.6 1-1 .3-.4.4-.9.6-1.5s.2-1.1.2-1.7 0-1.3-.1-1.8zM226.7 86.8c.4-.9.9-1.7 1.5-2.4.7-.7 1.4-1.2 2.4-1.5.9-.4 1.9-.5 3.1-.5s2.2.2 3.1.5c.9.4 1.7.9 2.4 1.5.7.7 1.2 1.5 1.5 2.4.4.9.5 2 .5 3.1 0 1.2-.2 2.2-.5 3.1-.4.9-.9 1.7-1.5 2.4s-1.4 1.2-2.4 1.5-2 .5-3.1.5-2.2-.2-3.1-.5c-.9-.4-1.7-.9-2.4-1.5-.7-.7-1.2-1.5-1.5-2.4-.4-.9-.5-2-.5-3.1s.1-2.2.5-3.1zm3.6 4.8c.1.6.3 1 .6 1.5.3.4.6.8 1.1 1 .4.3 1 .4 1.7.4s1.2-.1 1.7-.4c.5-.3.8-.6 1.1-1s.5-.9.6-1.5c.1-.6.2-1.1.2-1.7 0-.6-.1-1.1-.2-1.7-.1-.6-.3-1.1-.6-1.5-.3-.4-.6-.8-1.1-1-.5-.3-1-.4-1.7-.4s-1.2.1-1.7.4c-.4.3-.8.6-1.1 1-.3.4-.5.9-.6 1.5s-.2 1.1-.2 1.7c0 .6.1 1.2.2 1.7zM247.6 82.7v2h.1c.5-.7 1.2-1.3 1.9-1.7.7-.4 1.6-.6 2.5-.6.9 0 1.8.2 2.5.5.8.4 1.3 1 1.7 1.9.4-.6 1-1.2 1.8-1.7.7-.5 1.6-.7 2.6-.7.8 0 1.5.1 2.1.3s1.2.5 1.7.9.8.9 1.1 1.6c.3.7.4 1.5.4 2.4v9.7h-4V89c0-.5 0-.9-.1-1.4 0-.4-.1-.8-.3-1.1s-.4-.6-.7-.8c-.3-.2-.8-.3-1.3-.3s-1 .1-1.4.3c-.3.2-.6.5-.8.8s-.3.7-.4 1.2c-.1.4-.1.9-.1 1.3v8.1h-4V89v-1.3c0-.4-.1-.8-.2-1.2-.1-.4-.4-.6-.7-.9-.3-.2-.8-.3-1.4-.3-.2 0-.4 0-.7.1s-.6.2-.9.5c-.3.2-.5.6-.7 1-.2.4-.3 1-.3 1.7V97h-4V82.7h3.6z"/><g><path class="st0" d="M72.7 114.4v-2.7h2.4v-1.1c0-1.3.4-2.3 1.2-3.2.8-.8 2-1.2 3.6-1.2H81c.4 0 .7.1 1 .1v3c-.5-.1-1-.1-1.5-.1s-.9.1-1.2.4c-.2.3-.4.7-.4 1.3v.9h2.7v2.7H79v11.8h-4v-11.8h-2.3zM83.6 115.8c.4-.9.9-1.7 1.5-2.4.7-.7 1.4-1.2 2.4-1.5.9-.4 1.9-.5 3.1-.5 1.1 0 2.2.2 3.1.5.9.4 1.7.9 2.4 1.5.7.7 1.2 1.5 1.5 2.4.4.9.5 2 .5 3.1 0 1.2-.2 2.2-.5 3.1-.4.9-.9 1.7-1.5 2.4-.7.7-1.4 1.2-2.4 1.5-.9.4-2 .5-3.1.5s-2.2-.2-3.1-.5c-.9-.4-1.7-.9-2.4-1.5s-1.2-1.5-1.5-2.4c-.4-.9-.5-2-.5-3.1s.2-2.2.5-3.1zm3.6 4.8c.1.6.3 1 .6 1.5.3.4.6.8 1.1 1 .4.3 1 .4 1.7.4s1.2-.1 1.7-.4c.5-.3.8-.6 1.1-1 .3-.4.5-.9.6-1.5.1-.6.2-1.1.2-1.7 0-.6-.1-1.1-.2-1.7-.1-.6-.3-1.1-.6-1.5-.3-.4-.6-.8-1.1-1s-1-.4-1.7-.4-1.2.1-1.7.4c-.4.3-.8.6-1.1 1-.3.4-.5.9-.6 1.5s-.2 1.1-.2 1.7c.1.6.1 1.2.2 1.7zM104.4 111.7v2.7h.1c.2-.4.4-.9.8-1.2.3-.4.7-.7 1.1-1 .4-.3.8-.5 1.3-.6.5-.1 1-.2 1.5-.2.3 0 .6 0 .9.1v3.7c-.2 0-.4-.1-.7-.1h-.8c-.7 0-1.3.1-1.8.4-.5.2-.9.6-1.2 1-.3.4-.5.9-.7 1.5-.1.6-.2 1.2-.2 1.8v6.5h-4v-14.5h3.7zM128.4 106.2c1.3 0 2.5.2 3.6.6 1.1.4 2.1 1 2.9 1.8s1.4 1.8 1.9 3.1c.5 1.2.7 2.7.7 4.3 0 1.5-.2 2.8-.6 4s-.9 2.3-1.7 3.2-1.7 1.6-2.8 2.1c-1.1.5-2.5.8-4 .8h-8.6v-20h8.6zm-.4 16.3c.6 0 1.3-.1 1.8-.3.6-.2 1.1-.5 1.6-1s.8-1.1 1.1-1.9c.3-.8.4-1.7.4-2.8 0-1-.1-1.9-.3-2.7s-.5-1.5-1-2.1c-.4-.6-1-1-1.8-1.3s-1.6-.5-2.7-.5H124v12.6h4zM144.3 122.7c.6.6 1.5.9 2.6.9.8 0 1.5-.2 2.1-.6.6-.4.9-.8 1.1-1.3h3.5c-.6 1.7-1.4 3-2.6 3.7-1.2.7-2.6 1.1-4.2 1.1-1.1 0-2.2-.2-3.1-.5-.9-.4-1.7-.9-2.3-1.6-.6-.7-1.1-1.5-1.5-2.4-.3-.9-.5-2-.5-3.1s.2-2.1.5-3c.4-.9.9-1.7 1.5-2.4.7-.7 1.4-1.2 2.3-1.6.9-.4 1.9-.6 3-.6 1.2 0 2.3.2 3.2.7.9.5 1.7 1.1 2.3 1.9s1 1.7 1.3 2.7c.3 1 .4 2.1.3 3.2h-10.4c0 1.4.3 2.3.9 2.9zm4.5-7.6c-.5-.5-1.2-.8-2.2-.8-.6 0-1.2.1-1.6.3-.4.2-.8.5-1 .8s-.4.7-.5 1c-.1.4-.2.7-.2 1h6.5c-.2-1-.5-1.8-1-2.3zM159.9 111.7v2h.1c.5-.8 1.2-1.5 2-1.8.8-.4 1.6-.6 2.5-.6 1.1 0 1.9.1 2.6.4.7.3 1.2.7 1.6 1.2.4.5.7 1.1.8 1.9.2.7.2 1.6.2 2.5v8.9h-4V118c0-1.2-.2-2.1-.6-2.7s-1-.9-2-.9c-1.1 0-1.9.3-2.4 1s-.7 1.7-.7 3.2v7.6h-4v-14.5h3.9zM180.7 111.7v2.7h-2.9v7.2c0 .7.1 1.1.3 1.3.2.2.7.3 1.3.3h.6c.2 0 .4 0 .6-.1v3.1c-.3.1-.7.1-1.1.1h-1.2c-.6 0-1.2 0-1.8-.1-.6-.1-1-.2-1.5-.5s-.8-.6-1-1c-.2-.4-.4-1-.4-1.8v-8.5h-2.4v-2.7h2.4v-4.3h4v4.3h3.1zM182.7 109.5v-3.3h4v3.3h-4zm4 2.2v14.5h-4v-14.5h4zM193.2 122.6c.2.3.4.6.7.8.3.2.6.3 1 .4.4.1.7.1 1.1.1.3 0 .6 0 .9-.1.3-.1.6-.2.8-.3.3-.1.5-.3.6-.6s.3-.5.3-.9c0-.6-.4-1-1.2-1.3-.8-.3-1.9-.6-3.3-.9-.6-.1-1.1-.3-1.7-.5-.6-.2-1-.4-1.5-.7-.4-.3-.8-.7-1-1.1-.3-.4-.4-1-.4-1.6 0-.9.2-1.7.5-2.3.4-.6.8-1.1 1.4-1.4.6-.3 1.3-.6 2-.7.7-.1 1.5-.2 2.3-.2s1.5.1 2.3.2c.7.1 1.4.4 2 .8.6.4 1.1.8 1.4 1.4.4.6.6 1.3.7 2.2h-3.8c-.1-.8-.3-1.3-.9-1.6s-1.1-.4-1.8-.4h-.7c-.3 0-.5.1-.7.2-.2.1-.4.2-.5.4-.1.2-.2.4-.2.7 0 .4.1.6.4.9s.6.4 1 .5c.4.1.9.3 1.4.4.5.1 1.1.2 1.7.4.6.1 1.1.3 1.7.5.5.2 1 .4 1.5.7.4.3.8.7 1 1.1.3.5.4 1 .4 1.7 0 1-.2 1.8-.6 2.4-.4.6-.9 1.2-1.5 1.6-.6.4-1.3.7-2.1.8-.8.2-1.6.2-2.4.2-.8 0-1.7-.1-2.5-.3-.8-.2-1.5-.4-2.1-.8-.6-.4-1.1-.9-1.5-1.6-.4-.6-.6-1.5-.7-2.4h3.8c-.1.6 0 1 .2 1.3zM212.8 111.7v2.7h-2.9v7.2c0 .7.1 1.1.3 1.3.2.2.7.3 1.3.3h.6c.2 0 .4 0 .6-.1v3.1c-.3.1-.7.1-1.1.1h-1.2c-.6 0-1.2 0-1.8-.1-.6-.1-1-.2-1.5-.5s-.8-.6-1-1c-.2-.4-.4-1-.4-1.8v-8.5h-2.4v-2.7h2.4v-4.3h4v4.3h3.1zM218.1 122.6c.2.3.4.6.7.8.3.2.6.3 1 .4.4.1.7.1 1.1.1.3 0 .6 0 .9-.1.3-.1.6-.2.8-.3.3-.1.5-.3.6-.6s.3-.5.3-.9c0-.6-.4-1-1.2-1.3-.8-.3-1.9-.6-3.3-.9-.6-.1-1.1-.3-1.7-.5-.6-.2-1-.4-1.5-.7-.4-.3-.8-.7-1-1.1-.3-.4-.4-1-.4-1.6 0-.9.2-1.7.5-2.3.4-.6.8-1.1 1.4-1.4.6-.3 1.3-.6 2-.7.7-.1 1.5-.2 2.3-.2s1.5.1 2.3.2c.7.1 1.4.4 2 .8.6.4 1.1.8 1.4 1.4.4.6.6 1.3.7 2.2h-3.8c-.1-.8-.3-1.3-.9-1.6s-1.1-.4-1.8-.4h-.7c-.3 0-.5.1-.7.2-.2.1-.4.2-.5.4-.1.2-.2.4-.2.7 0 .4.1.6.4.9s.6.4 1 .5c.4.1.9.3 1.4.4.5.1 1.1.2 1.7.4.6.1 1.1.3 1.7.5.5.2 1 .4 1.5.7.4.3.8.7 1 1.1.3.5.4 1 .4 1.7 0 1-.2 1.8-.6 2.4-.4.6-.9 1.2-1.5 1.6-.6.4-1.3.7-2.1.8-.8.2-1.6.2-2.4.2-.8 0-1.7-.1-2.5-.3-.8-.2-1.5-.4-2.1-.8-.6-.4-1.1-.9-1.5-1.6-.4-.6-.6-1.5-.7-2.4h3.8c-.1.6 0 1 .2 1.3z"/></g></svg>