<svg id="Layer_1" xmlns="http://www.w3.org/2000/svg" xmlns:xlink="http://www.w3.org/1999/xlink" viewBox="0 0 300 250"><style>.st0{clip-path:url(#SVGID_00000089548809185317603570000005768178386805670273_);fill:#439d51}.st1{fill:#fff}</style><defs><path id="SVGID_1_" d="M71.3 175.6h158.4V209H71.3z"/></defs><clipPath id="SVGID_00000177485308486170786320000006492176756696574382_"><use xlink:href="#SVGID_1_" overflow="visible"/></clipPath><path d="M229.7 192.3c0 9.2-8.6 16.7-19.2 16.7h-120c-10.5 0-19.2-7.5-19.2-16.7s8.6-16.7 19.2-16.7h120c10.5 0 19.2 7.6 19.2 16.7" clip-path="url(#SVGID_00000177485308486170786320000006492176756696574382_)" fill="#439d51"/><g><path class="st1" d="M110.4 187.4v2h-5.1v2.5h4.5v1.8h-4.5v4.4H103v-10.7h7.4zM117.5 187.4c.5 0 .9.1 1.3.2s.7.4 1 .6.5.6.6.9c.1.4.2.7.2 1.1 0 .6-.1 1.2-.4 1.6-.3.5-.7.8-1.3 1 .3.1.5.2.7.4s.3.4.5.6c.1.2.2.5.3.7s.1.5.1.8v.6c0 .2 0 .5.1.7 0 .2.1.5.1.7.1.2.1.4.2.5h-2.3c-.1-.3-.2-.7-.2-1.2s-.1-.9-.1-1.3c-.1-.6-.2-1-.5-1.2-.3-.3-.7-.4-1.3-.4h-2.3v4.2h-2.3v-10.7h5.6zm-.9 4.8c.5 0 .9-.1 1.2-.4s.4-.6.4-1.2c0-.5-.1-.9-.4-1.1-.3-.2-.7-.4-1.2-.4H114v3h2.6zM130.5 187.4v2h-5.6v2.3h5.2v1.8h-5.2v2.6h5.7v2h-8.1v-10.7h8zM140.1 187.4v2h-5.6v2.3h5.2v1.8h-5.2v2.6h5.7v2h-8.1v-10.7h8zM153.3 197.6c-.7.4-1.6.6-2.6.6-.8 0-1.5-.1-2.2-.4s-1.2-.7-1.6-1.2-.8-1.1-1-1.8c-.2-.7-.4-1.4-.4-2.2 0-.8.1-1.5.4-2.2.2-.7.6-1.3 1-1.8s1-.9 1.6-1.2c.7-.3 1.4-.4 2.2-.4.8 0 1.6.1 2.2.4.6.3 1.2.7 1.6 1.2.4.5.8 1.1 1 1.8.2.7.4 1.4.4 2.2 0 .8-.1 1.5-.4 2.2-.2.7-.6 1.3-1 1.8l1.3 1.2-1.1 1.1-1.4-1.3zm-.3-2.4c.2-.3.4-.6.5-1 .1-.4.2-.9.2-1.4 0-.5-.1-.9-.2-1.4s-.3-.8-.5-1.2c-.2-.3-.5-.6-.9-.8-.4-.2-.8-.3-1.3-.3s-1 .1-1.3.3c-.4.2-.7.5-.9.8-.2.3-.4.7-.5 1.2s-.2.9-.2 1.4c0 .4.1.9.2 1.3s.3.8.5 1.1c.2.3.5.6.9.8.4.2.8.3 1.3.3h.6c.2 0 .3-.1.4-.1l-1-.9 1.1-1.2 1.1 1.1zM165.4 197.2c-.8.7-1.9 1.1-3.3 1.1s-2.6-.3-3.3-1c-.8-.7-1.2-1.8-1.2-3.2v-6.6h2.3v6.6c0 .3 0 .6.1.9 0 .3.2.5.3.7s.4.4.7.5c.3.1.7.2 1.1.2.8 0 1.4-.2 1.7-.6.3-.4.5-1 .5-1.8v-6.6h2.3v6.6c0 1.4-.4 2.5-1.2 3.2zM168.5 190.5c.2-.7.6-1.3 1-1.8s1-.9 1.6-1.2c.7-.3 1.4-.4 2.2-.4.8 0 1.6.1 2.2.4.6.3 1.2.7 1.6 1.2.4.5.8 1.1 1 1.8.2.7.4 1.4.4 2.2 0 .8-.1 1.5-.4 2.2-.2.7-.6 1.3-1 1.8s-1 .9-1.6 1.2-1.4.4-2.2.4c-.8 0-1.5-.1-2.2-.4s-1.2-.7-1.6-1.2-.8-1.1-1-1.8c-.2-.7-.4-1.4-.4-2.2.1-.8.2-1.5.4-2.2zm2.2 3.5c.1.4.3.8.5 1.1.2.3.5.6.9.8.4.2.8.3 1.3.3s1-.1 1.3-.3c.4-.2.7-.5.9-.8s.4-.7.5-1.1c.1-.4.2-.9.2-1.3 0-.5-.1-.9-.2-1.4s-.3-.8-.5-1.2c-.2-.3-.5-.6-.9-.8-.4-.2-.8-.3-1.3-.3s-1 .1-1.3.3c-.4.2-.7.5-.9.8-.2.3-.4.7-.5 1.2s-.2.9-.2 1.4c0 .5.1.9.2 1.3zM179.4 189.3v-2h8.7v2H185v8.7h-2.3v-8.7h-3.3zM197.3 187.4v2h-5.6v2.3h5.2v1.8h-5.2v2.6h5.7v2h-8.1v-10.7h8z"/></g></svg>