<svg id="Layer_1" xmlns="http://www.w3.org/2000/svg" viewBox="0 0 300 50"><style>.st0{fill:#349946}</style><path class="st0" d="M16.7 10l3.9 10.3h-2.4l-.8-2.3h-3.9l-.8 2.3h-2.3l4-10.3h2.3zm.2 6.3l-1.3-3.8-1.3 3.8h2.6zM31.5 18.2c-.1.4-.2.8-.5 1.1-.2.4-.6.6-1 .9-.5.2-1.1.4-1.8.4-.4 0-.9-.1-1.3-.2s-.8-.3-1.1-.6c-.3-.3-.6-.6-.8-1-.2-.4-.3-.9-.3-1.5v-.9h2.1v.5c0 .3 0 .5.1.7 0 .2.1.4.2.5s.2.3.4.4.4.1.7.1c.3 0 .5-.1.7-.2.2-.1.3-.2.4-.4.1-.2.1-.4.1-.6V9.8h2.3V17c-.1.4-.2.8-.2 1.2zM33.5 13c.2-.7.6-1.2 1-1.7s1-.9 1.6-1.2c.6-.3 1.3-.4 2.1-.4s1.5.1 2.1.4c.6.3 1.2.7 1.6 1.2.4.5.8 1.1 1 1.7.2.7.3 1.4.3 2.2 0 .8-.1 1.5-.3 2.1s-.6 1.2-1 1.7-1 .9-1.6 1.1c-.6.3-1.3.4-2.1.4s-1.5-.1-2.1-.4-1.2-.7-1.6-1.1c-.4-.5-.8-1.1-1-1.7s-.3-1.4-.3-2.1c-.1-.8 0-1.5.3-2.2zm2.1 3.4c.1.4.3.8.5 1.1.2.3.5.6.9.8.4.2.8.3 1.3.3s.9-.1 1.3-.3c.4-.2.6-.5.9-.8.2-.3.4-.7.5-1.1s.2-.8.2-1.3-.1-.9-.2-1.3-.3-.8-.5-1.1c-.2-.3-.5-.6-.9-.8-.4-.2-.8-.3-1.3-.3s-.9.1-1.3.3c-.4.2-.6.5-.9.8-.2.3-.4.7-.5 1.1-.1.4-.2.9-.2 1.3 0 .5.1.9.2 1.3zM52.5 19.5c-.8.7-1.9 1-3.2 1-1.4 0-2.5-.3-3.3-1-.8-.7-1.2-1.7-1.2-3.1V10h2.3v6.4c0 .3 0 .6.1.8 0 .3.1.5.3.7.2.2.4.4.6.5s.6.2 1.1.2c.8 0 1.4-.2 1.7-.5.3-.4.5-.9.5-1.7V10h2.3v6.4c-.1 1.4-.5 2.4-1.2 3.1zM61.2 10c.5 0 .9.1 1.3.2s.7.4 1 .6c.3.3.5.6.6.9.1.3.2.7.2 1.1 0 .6-.1 1.1-.4 1.6-.3.4-.7.8-1.3 1 .3.1.5.2.7.4.2.2.3.3.4.6.1.2.2.5.3.7.1.3.1.5.1.8v.6c0 .2 0 .4.1.7s.1.5.1.7c.1.2.1.4.2.5h-2.3c-.1-.4-.2-.8-.2-1.3s-.1-.9-.1-1.3c-.1-.5-.2-.9-.5-1.2-.3-.3-.7-.4-1.2-.4h-2.3v4h-2.3V10h5.6zm-.8 4.6c.5 0 .9-.1 1.2-.3s.4-.6.4-1.1c0-.5-.1-.9-.4-1.1s-.7-.3-1.2-.3h-2.5v2.9h2.5zM68.3 10l4.3 6.9V10h2.1v10.3h-2.3l-4.3-6.9v6.9H66V10h2.3zM84.5 10v1.9H79v2.2h5v1.8h-5v2.5h5.6v1.9h-7.9V10h7.8zM85.1 10h2.6l2.3 4 2.4-4.1H95l-3.8 6.4v4h-2.3v-4L85.1 10zM99.7 14.9c.2-.5.4-.9.8-1.2.3-.3.7-.6 1.2-.8.5-.2 1-.3 1.6-.3s1.1.1 1.6.3c.5.2.9.5 1.2.8.3.3.6.8.8 1.2s.3 1 .3 1.6-.1 1.1-.3 1.6-.4.9-.8 1.2c-.3.3-.7.6-1.2.8-.5.2-1 .3-1.6.3s-1.1-.1-1.6-.3c-.5-.2-.9-.4-1.2-.8-.3-.3-.6-.8-.8-1.2-.2-.5-.3-1-.3-1.6s.1-1.1.3-1.6zm1.9 2.5c.1.3.2.5.3.8.1.2.3.4.6.5.2.1.5.2.9.2s.6-.1.9-.2c.2-.1.4-.3.6-.5.1-.2.2-.5.3-.8.1-.3.1-.6.1-.9s0-.6-.1-.9c-.1-.3-.2-.5-.3-.8-.1-.2-.3-.4-.6-.5-.2-.1-.5-.2-.9-.2s-.6.1-.9.2-.4.3-.6.5c-.1.2-.2.5-.3.8-.1.3-.1.6-.1.9s0 .7.1.9zM107.7 14.2v-1.4h1.2v-.6c0-.7.2-1.2.6-1.6.4-.4 1-.6 1.9-.6h1.1v1.5h-.8c-.3 0-.5.1-.6.2-.1.1-.2.4-.2.7v.4h1.4v1.4H111v6.1h-2v-6.1h-1.3zM117.3 15.1c0-.5.1-.9.4-1.2.2-.3.5-.6.8-.8.3-.2.7-.3 1.1-.4s.8-.1 1.2-.1c.4 0 .8 0 1.1.1s.7.2 1.1.3c.3.2.6.4.8.6.2.3.3.6.3 1.1v3.9c0 .3 0 .7.1 1 0 .3.1.5.2.7h-2.1c0-.1-.1-.2-.1-.4 0-.1 0-.2-.1-.4-.3.3-.7.6-1.2.7s-.9.2-1.4.2c-.4 0-.7 0-1-.1s-.6-.2-.8-.4-.4-.4-.5-.7-.2-.6-.2-1 .1-.8.2-1.1c.1-.3.3-.5.6-.7.2-.2.5-.3.8-.4.3-.1.6-.1.9-.2.3 0 .6-.1.9-.1.3 0 .6-.1.8-.1.2-.1.4-.1.6-.3s.2-.3.2-.5 0-.4-.1-.5l-.3-.3c-.1-.1-.3-.1-.4-.1h-.5c-.4 0-.7.1-1 .3s-.4.5-.4.9h-2zm4.7 1.5c-.1.1-.2.1-.3.2-.1 0-.3.1-.4.1-.1 0-.3.1-.5.1s-.3 0-.5.1c-.2 0-.3.1-.5.1s-.3.1-.4.2l-.3.3c-.1.1-.1.3-.1.5s0 .3.1.5l.3.3c.1.1.3.1.4.2h.5c.4 0 .7-.1.9-.2s.4-.3.5-.5.2-.4.2-.6v-1.3zM129.1 11.9V10h8.5v1.9h-3.1v8.4h-2.3v-8.4h-3.1zM141.1 10v4h4.2v-4h2.3v10.3h-2.3v-4.5h-4.2v4.5h-2.3V10h2.3zM149.4 13c.2-.7.6-1.2 1-1.7s1-.9 1.6-1.2c.6-.3 1.3-.4 2.1-.4s1.5.1 2.1.4c.6.3 1.2.7 1.6 1.2s.8 1.1 1 1.7c.2.7.3 1.4.3 2.2 0 .8-.1 1.5-.3 2.1s-.6 1.2-1 1.7-1 .9-1.6 1.1-1.3.4-2.1.4-1.5-.1-2.1-.4-1.2-.7-1.6-1.1c-.4-.5-.8-1.1-1-1.7s-.3-1.4-.3-2.1c0-.8.1-1.5.3-2.2zm2.1 3.4c.1.4.3.8.5 1.1.2.3.5.6.9.8.4.2.8.3 1.3.3s.9-.1 1.3-.3c.4-.2.6-.5.9-.8.2-.3.4-.7.5-1.1.1-.4.2-.8.2-1.3s-.1-.9-.2-1.3-.3-.8-.5-1.1c-.2-.3-.5-.6-.9-.8-.4-.2-.8-.3-1.3-.3s-.9.1-1.3.3c-.4.2-.6.5-.9.8-.2.3-.4.7-.5 1.1-.1.4-.2.9-.2 1.3 0 .5.1.9.2 1.3zM168.4 19.5c-.8.7-1.9 1-3.2 1-1.4 0-2.5-.3-3.3-1-.8-.7-1.2-1.7-1.2-3.1V10h2.3v6.4c0 .3 0 .6.1.8 0 .3.2.5.3.7.2.2.4.4.6.5s.6.2 1.1.2c.8 0 1.4-.2 1.7-.5.3-.4.5-.9.5-1.7V10h2.3v6.4c0 1.4-.4 2.4-1.2 3.1zM173.3 17.8c.1.2.3.4.5.6.2.1.5.3.7.3.3.1.6.1.9.1.2 0 .4 0 .7-.1.2 0 .4-.1.7-.2.2-.1.4-.2.5-.4.1-.2.2-.4.2-.6 0-.3-.1-.5-.3-.7-.2-.2-.4-.3-.7-.4s-.6-.2-1-.3-.7-.2-1.1-.3c-.4-.1-.8-.2-1.1-.4-.4-.1-.7-.3-1-.5-.3-.2-.5-.5-.7-.8-.2-.3-.3-.7-.3-1.2s.1-1 .3-1.4c.2-.4.5-.7.9-1 .4-.3.8-.5 1.2-.6s.9-.2 1.4-.2c.5 0 1.1.1 1.6.2s.9.3 1.3.6.7.6.9 1c.2.4.3.9.3 1.5H177c0-.3-.1-.6-.2-.8-.1-.2-.3-.4-.4-.5-.2-.1-.4-.2-.6-.2-.2 0-.5-.1-.8-.1-.2 0-.4 0-.6.1-.2 0-.4.1-.5.2-.2.1-.3.2-.4.4s-.1.3-.1.6c0 .2 0 .4.1.5.1.1.2.2.5.3.2.1.5.2.9.3.4.1.9.2 1.6.4.2 0 .5.1.8.2s.7.3 1 .5c.3.2.6.5.9.9s.4.8.4 1.4c0 .5-.1.9-.3 1.3-.2.4-.5.8-.8 1.1-.4.3-.8.5-1.3.7-.5.2-1.2.2-1.9.2-.6 0-1.1-.1-1.7-.2-.5-.1-1-.4-1.4-.7-.4-.3-.7-.7-1-1.1-.2-.5-.4-1-.3-1.7h2.2c0 .4 0 .7.2 1zM186.1 10l3.9 10.3h-2.4l-.8-2.3H183l-.8 2.3h-2.3l3.9-10.3h2.3zm.1 6.3l-1.3-3.8-1.3 3.8h2.6zM193.1 10l4.3 6.9V10h2.1v10.3h-2.3l-4.3-6.9v6.9h-2.1V10h2.3zM206.1 10c.7 0 1.3.1 1.9.3.6.2 1.1.5 1.5 1 .4.4.7 1 1 1.6.2.6.4 1.4.4 2.2 0 .8-.1 1.4-.3 2.1-.2.6-.5 1.2-.9 1.7s-.9.8-1.5 1.1-1.3.4-2.1.4h-4.5V10h4.5zm-.2 8.4c.3 0 .6-.1 1-.2.3-.1.6-.3.8-.5.2-.2.4-.6.6-1 .1-.4.2-.9.2-1.4 0-.5-.1-1-.2-1.4-.1-.4-.3-.8-.5-1.1-.2-.3-.5-.5-.9-.7-.4-.2-.9-.2-1.4-.2h-1.6v6.5h2zM218.1 17.8c.1.2.3.4.5.6.2.1.5.3.7.3.3.1.6.1.9.1.2 0 .4 0 .7-.1.2 0 .4-.1.7-.2.2-.1.4-.2.5-.4.1-.2.2-.4.2-.6 0-.3-.1-.5-.3-.7-.2-.2-.4-.3-.7-.4s-.6-.2-1-.3-.7-.2-1.1-.3c-.4-.1-.8-.2-1.1-.4-.4-.1-.7-.3-1-.5-.3-.2-.5-.5-.7-.8-.2-.3-.3-.7-.3-1.2s.1-1 .3-1.4c.2-.4.5-.7.9-1 .4-.3.8-.5 1.2-.6s.9-.2 1.4-.2c.5 0 1.1.1 1.6.2s.9.3 1.3.6.7.6.9 1c.2.4.3.9.3 1.5h-2.2c0-.3-.1-.6-.2-.8-.1-.2-.3-.4-.4-.5-.2-.1-.4-.2-.6-.2-.2 0-.5-.1-.8-.1-.2 0-.4 0-.6.1-.2 0-.4.1-.5.2-.2.1-.3.2-.4.4s-.1.3-.1.6c0 .2 0 .4.1.5.1.1.2.2.5.3.2.1.5.2.9.3.4.1.9.2 1.6.4.2 0 .5.1.8.2s.7.3 1 .5c.3.2.6.5.9.9s.4.8.4 1.4c0 .5-.1.9-.3 1.3-.2.4-.5.8-.8 1.1-.4.3-.8.5-1.3.7-.5.2-1.2.2-1.9.2-.6 0-1.1-.1-1.7-.2-.5-.1-1-.4-1.4-.7-.4-.3-.7-.7-1-1.1-.2-.5-.4-1-.3-1.7h2.2c0 .4.1.7.2 1zM229 10l2.4 7.1 2.3-7.1h3.2v10.3h-2.1V13l-2.5 7.3h-1.8L228 13v7.3h-2.1V10h3.1zM241.2 10v10.3h-2.3V10h2.3zM245.5 10v8.4h5v1.9h-7.3V10h2.3zM259.5 10v1.9H254v2.2h5v1.8h-5v2.5h5.6v1.9h-7.9V10h7.8zM262.9 17.8c.1.2.3.4.5.6.2.1.5.3.7.3.3.1.6.1.9.1.2 0 .4 0 .7-.1.2 0 .4-.1.7-.2.2-.1.4-.2.5-.4.1-.2.2-.4.2-.6 0-.3-.1-.5-.3-.7-.2-.2-.4-.3-.7-.4s-.6-.2-1-.3-.7-.2-1.1-.3c-.4-.1-.8-.2-1.1-.4-.4-.1-.7-.3-1-.5-.3-.2-.5-.5-.7-.8-.2-.3-.3-.7-.3-1.2s.1-1 .3-1.4c.2-.4.5-.7.9-1 .4-.3.8-.5 1.2-.6s.9-.2 1.4-.2c.5 0 1.1.1 1.6.2s.9.3 1.3.6.7.6.9 1c.2.4.3.9.3 1.5h-2.2c0-.3-.1-.6-.2-.8-.1-.2-.3-.4-.4-.5-.2-.1-.4-.2-.6-.2-.2 0-.5-.1-.8-.1-.2 0-.4 0-.6.1-.2 0-.4.1-.5.2-.2.1-.3.2-.4.4s-.1.3-.1.6c0 .2 0 .4.1.5.1.1.2.2.5.3.2.1.5.2.9.3.4.1.9.2 1.6.4.2 0 .5.1.8.2s.7.3 1 .5c.3.2.6.5.9.9s.4.8.4 1.4c0 .5-.1.9-.3 1.3-.2.4-.5.8-.8 1.1-.4.3-.8.5-1.3.7-.5.2-1.2.2-1.9.2-.6 0-1.1-.1-1.7-.2-.5-.1-1-.4-1.4-.7-.4-.3-.7-.7-1-1.1-.2-.5-.4-1-.3-1.7h2.2c0 .4.1.7.2 1z"/><g><path d="M13.4 24.4v3.8c.3-.4.6-.7 1-.8.4-.2.9-.3 1.3-.3s.7.1 1.1.2.7.4 1 .7c.3.3.5.7.7 1.2.2.5.3 1.1.3 1.8s-.1 1.3-.3 1.8c-.2.5-.4.9-.7 1.2-.3.3-.6.6-1 .7-.4.2-.7.2-1.1.2-.6 0-1-.1-1.5-.3-.4-.2-.8-.5-1-.9v1h-2V24.4h2.2zm3.3 5.7c-.1-.3-.2-.5-.3-.8-.1-.2-.3-.4-.5-.5-.2-.1-.5-.2-.8-.2-.3 0-.6.1-.8.2-.2.1-.4.3-.6.5-.1.2-.3.5-.3.8-.1.3-.1.6-.1.9 0 .3 0 .6.1.9.1.3.2.5.3.8.1.2.3.4.6.5.2.1.5.2.8.2.3 0 .6-.1.8-.2.2-.1.4-.3.5-.5.1-.2.3-.5.3-.8.1-.3.1-.6.1-.9 0-.3 0-.6-.1-.9zM22.4 33c.3.3.8.4 1.3.4.4 0 .8-.1 1.1-.3.3-.2.5-.4.6-.7h1.8c-.3.9-.7 1.5-1.3 1.9-.6.4-1.3.6-2.2.6-.6 0-1.1-.1-1.6-.3-.5-.2-.9-.5-1.2-.8-.3-.3-.6-.8-.8-1.2-.2-.5-.3-1-.3-1.6 0-.6.1-1.1.3-1.6.2-.5.4-.9.8-1.3s.7-.6 1.2-.8 1-.3 1.6-.3c.6 0 1.2.1 1.7.4.5.2.9.6 1.2 1 .3.4.5.9.7 1.4.1.5.2 1.1.1 1.7H22c-.1.7.1 1.2.4 1.5zm2.3-3.9c-.2-.3-.6-.4-1.1-.4-.3 0-.6.1-.8.2-.2.1-.4.2-.5.4s-.3.3-.3.5c-.1.2-.1.3-.1.5h3.3c-.1-.6-.2-1-.5-1.2zM35.6 35.3c-.1.4-.3.7-.5 1.1-.3.3-.7.6-1.2.8-.5.2-1.2.3-2.1.3-.4 0-.7 0-1.1-.1-.4-.1-.7-.2-1-.4s-.6-.4-.8-.7c-.2-.3-.3-.7-.4-1.1h2c.1.4.3.7.6.8.3.1.6.2 1 .2.6 0 1-.2 1.3-.5.3-.3.4-.8.4-1.3v-1c-.2.4-.5.7-.9.9s-.8.3-1.3.3c-.6 0-1-.1-1.4-.3-.4-.2-.7-.5-1-.8s-.5-.7-.6-1.2c-.1-.5-.2-.9-.2-1.5 0-.5.1-.9.2-1.4s.3-.8.6-1.2c.3-.3.6-.6 1-.8s.9-.3 1.4-.3c.5 0 .9.1 1.3.3.4.2.7.5.9.9v-1h2v7c-.1.3-.1.7-.2 1zm-2.8-2.4c.2-.1.4-.3.6-.5s.3-.4.3-.7c.1-.2.1-.5.1-.8 0-.3 0-.6-.1-.9-.1-.3-.2-.5-.3-.7-.1-.2-.3-.4-.5-.5-.2-.1-.5-.2-.8-.2-.3 0-.5.1-.7.2-.2.1-.4.3-.5.5-.1.2-.2.4-.3.7s-.1.5-.1.8c0 .3 0 .5.1.8s.1.5.3.7c.1.2.3.4.5.5 0 .2.3.2.6.2s.6 0 .8-.1zM37.4 26.1v-1.7h2.1v1.7h-2.1zm2.1 1.2v7.5h-2.1v-7.5h2.1zM43.1 27.3v1c.3-.4.6-.8 1-.9.4-.2.8-.3 1.3-.3.6 0 1 .1 1.4.2.4.2.6.4.8.6.2.3.3.6.4 1 .1.4.1.8.1 1.3v4.6H46v-4.2c0-.6-.1-1.1-.3-1.4-.2-.3-.5-.5-1-.5-.6 0-1 .2-1.2.5-.3.3-.4.9-.4 1.6v3.9H41v-7.5h2.1zM51.4 32.9c.1.2.2.3.4.4.1.1.3.2.5.2s.4.1.6.1c.1 0 .3 0 .5-.1.2 0 .3-.1.4-.2l.3-.3c.1-.1.1-.3.1-.5 0-.3-.2-.5-.6-.7-.4-.2-1-.3-1.7-.5-.3-.1-.6-.1-.9-.2-.3-.1-.5-.2-.8-.4-.2-.2-.4-.3-.5-.6s-.2-.5-.2-.8c0-.5.1-.9.3-1.2.2-.3.4-.6.7-.7.3-.2.7-.3 1-.4.4-.1.8-.1 1.2-.1s.8 0 1.2.1c.4.1.7.2 1 .4.3.2.5.4.7.7.2.3.3.7.4 1.2h-2c0-.4-.2-.7-.4-.8-.3-.1-.6-.2-1-.2h-.4c-.2 0-.3 0-.4.1-.1 0-.2.1-.3.2-.1.1-.1.2-.1.4s.1.3.2.4c.1.1.3.2.5.3s.5.1.7.2.6.1.9.2c.3.1.6.1.9.2.3.1.5.2.8.4.2.2.4.4.5.6s.2.5.2.9c0 .5-.1.9-.3 1.2-.2.3-.5.6-.8.8s-.7.3-1.1.4-.6.4-1 .4-.9 0-1.3-.1-.8-.2-1.1-.4-.6-.5-.8-.8c-.2-.3-.3-.8-.3-1.3h2c-.1.2-.1.4 0 .5zM68 34.8l-1.3-5-1.3 5h-2.1l-2.4-7.5H63l1.4 5.1 1.2-5.1h2l1.3 5.1 1.4-5.1h2.1L70 34.8h-2zM73.4 26.1v-1.7h2.1v1.7h-2.1zm2 1.2v7.5h-2.1v-7.5h2.1zM81.2 27.3v1.4h-1.5v3.7c0 .3.1.6.2.7s.3.2.7.2h.6v1.6c-.2 0-.4 0-.6.1s-.4 0-.6 0c-.3 0-.6 0-.9-.1-.3 0-.5-.1-.8-.3-.2-.1-.4-.3-.5-.5-.1-.2-.2-.5-.2-.9v-4.4h-1.2v-1.4h1.2v-2.2h2.1v2.2h1.5zM84.2 24.4v3.9c.3-.4.6-.8 1-.9.4-.2.8-.3 1.2-.3.6 0 1 .1 1.4.2.4.2.6.4.8.6.2.3.3.6.4 1 .1.4.1.8.1 1.3v4.6H87v-4.2c0-.6-.1-1.1-.3-1.4-.2-.3-.5-.5-1-.5-.6 0-1 .2-1.2.5-.3.3-.4.9-.4 1.6v3.9H82V24.4h2.2zM94.7 29.6c0-.5.1-.9.4-1.2.2-.3.5-.6.8-.8.3-.2.7-.3 1.1-.4.4-.1.8-.1 1.2-.1.4 0 .8 0 1.1.1s.7.2 1.1.3.6.4.8.6c.2.3.3.6.3 1.1v3.9c0 .3 0 .7.1 1 0 .3.1.5.2.7h-2.1c0-.1-.1-.2-.1-.4 0-.1 0-.2-.1-.4-.3.3-.7.6-1.2.7-.4.2-.8.3-1.3.3-.4 0-.7 0-1-.1s-.6-.2-.8-.4-.4-.4-.5-.7-.2-.6-.2-1 .1-.8.2-1.1c.1-.3.3-.5.6-.7.2-.2.5-.3.8-.4s.6-.1.9-.2c.3 0 .6-.1.9-.1s.6-.1.8-.1c.2-.1.4-.1.6-.3s.2-.3.2-.5 0-.4-.1-.5l-.3-.3c-.1-.1-.3-.1-.4-.1h-.5c-.4 0-.7.1-1 .3s-.4.5-.4.9h-2.1zm4.7 1.5c-.1.1-.2.1-.3.2-.1 0-.3.1-.4.1-.1 0-.3.1-.5.1s-.3 0-.5.1c-.2 0-.3.1-.5.1-.1 0-.3.1-.4.2l-.3.3c-.1.1-.1.3-.1.5s0 .3.1.5l.3.3c.1.1.3.1.4.2h.5c.4 0 .7-.1.9-.2.2-.1.4-.3.5-.5s.2-.4.2-.6v-1.3zM108.9 32.9c.1.2.2.3.4.4.1.1.3.2.5.2s.4.1.6.1c.1 0 .3 0 .5-.1.2 0 .3-.1.4-.2l.3-.3c.1-.1.1-.3.1-.5 0-.3-.2-.5-.6-.7-.4-.2-1-.3-1.7-.5-.3-.1-.6-.1-.9-.2-.3-.1-.5-.2-.8-.4-.2-.2-.4-.3-.5-.6s-.2-.5-.2-.8c0-.5.1-.9.3-1.2.2-.3.4-.6.7-.7.3-.2.7-.3 1-.4.4-.1.8-.1 1.2-.1s.8 0 1.2.1c.4.1.7.2 1 .4.3.2.5.4.7.7.2.3.3.7.4 1.2h-2c0-.4-.2-.7-.4-.8-.3-.1-.6-.2-1-.2h-.4c-.2 0-.3 0-.4.1-.1 0-.2.1-.3.2-.1.1-.1.2-.1.4s.1.3.2.4c.1.1.3.2.5.3s.5.1.7.2.6.1.9.2c.3.1.6.1.9.2.3.1.5.2.8.4.2.2.4.4.5.6s.2.5.2.9c0 .5-.1.9-.3 1.2-.2.3-.5.6-.8.8s-.7.3-1.1.4-.8.1-1.3.1c-.4 0-.9 0-1.3-.1s-.8-.2-1.1-.4-.6-.5-.8-.8c-.2-.3-.3-.8-.3-1.3h2c.1.5.2.7.3.8zM115 26.1v-1.7h2.1v1.7H115zm2 1.2v7.5h-2v-7.5h2zM120.6 27.3v1c.3-.4.6-.8 1-.9.4-.2.8-.3 1.3-.3.6 0 1 .1 1.4.2.4.2.6.4.8.6.2.3.3.6.4 1 .1.4.1.8.1 1.3v4.6h-2.1v-4.2c0-.6-.1-1.1-.3-1.4-.2-.3-.5-.5-1-.5-.6 0-1 .2-1.2.5-.3.3-.4.9-.4 1.6v3.9h-2.1v-7.5h2.1zM134.3 35.3c-.1.4-.3.7-.5 1.1-.3.3-.7.6-1.2.8-.5.2-1.2.3-2.1.3-.4 0-.7 0-1.1-.1-.4-.1-.7-.2-1-.4s-.6-.4-.8-.7c-.2-.3-.3-.7-.4-1.1h2c.1.4.3.7.6.8.3.1.6.2 1 .2.6 0 1-.2 1.3-.5.3-.3.4-.8.4-1.3v-1c-.2.4-.5.7-.9.9s-.8.3-1.3.3c-.6 0-1-.1-1.4-.3-.4-.2-.7-.5-1-.8s-.5-.7-.6-1.2c-.1-.5-.2-.9-.2-1.5 0-.5.1-.9.2-1.4s.3-.8.6-1.2c.3-.3.6-.6 1-.8s.9-.3 1.4-.3c.5 0 .9.1 1.3.3.4.2.7.5.9.9v-1h2v7c-.1.3-.1.7-.2 1zm-2.8-2.4c.2-.1.4-.3.6-.5s.3-.4.3-.7c.1-.2.1-.5.1-.8 0-.3 0-.6-.1-.9-.1-.3-.2-.5-.3-.7-.1-.2-.3-.4-.5-.5-.2-.1-.5-.2-.8-.2-.3 0-.5.1-.7.2-.2.1-.4.3-.5.5-.1.2-.2.4-.3.7s-.1.5-.1.8c0 .3 0 .5.1.8s.1.5.3.7c.1.2.3.4.5.5.2.1.5.2.8.2.1 0 .4 0 .6-.1zM138.2 24.4v10.3h-2.1V24.4h2.1zM142 33c.3.3.8.4 1.3.4.4 0 .8-.1 1.1-.3.3-.2.5-.4.5-.7h1.8c-.3.9-.7 1.5-1.3 1.9-.6.4-1.3.6-2.2.6-.6 0-1.1-.1-1.6-.3-.5-.2-.9-.5-1.2-.8-.3-.3-.6-.8-.8-1.2-.2-.5-.3-1-.3-1.6 0-.6.1-1.1.3-1.6.2-.5.4-.9.8-1.3s.7-.6 1.2-.8 1-.3 1.6-.3c.6 0 1.2.1 1.7.4.5.2.9.6 1.2 1 .3.4.5.9.7 1.4.1.5.2 1.1.1 1.7h-5.4c.1.7.2 1.2.5 1.5zm2.4-3.9c-.2-.3-.6-.4-1.1-.4-.3 0-.6.1-.8.2-.2.1-.4.2-.5.4s-.2.3-.3.5c-.1.2-.1.3-.1.5h3.3c-.1-.6-.3-1-.5-1.2zM154.1 32.2c.1.2.3.4.5.6.2.2.5.3.7.3.3.1.6.1.9.1.2 0 .4 0 .7-.1.2 0 .4-.1.7-.2s.4-.2.5-.4c.1-.2.2-.4.2-.6 0-.3-.1-.5-.3-.7-.2-.2-.4-.3-.7-.4-.3-.1-.6-.2-1-.3s-.7-.2-1.1-.3c-.4-.1-.8-.2-1.1-.4-.4-.1-.7-.3-1-.5-.3-.2-.5-.5-.7-.8-.2-.3-.3-.7-.3-1.2s.1-1 .3-1.4c.2-.4.5-.7.9-1 .4-.3.8-.5 1.2-.6s.9-.2 1.4-.2c.5 0 1.1.1 1.6.2s.9.3 1.3.6.7.6.9 1c.2.4.3.9.3 1.5h-2.2c0-.3-.1-.6-.2-.8-.1-.2-.3-.4-.4-.5-.2-.1-.4-.2-.6-.2-.2 0-.5-.1-.8-.1-.2 0-.4 0-.6.1-.2 0-.4.1-.5.2-.2.1-.3.2-.4.4s-.1.3-.1.6c0 .2 0 .4.1.5.1.1.2.2.5.3.2.1.5.2.9.3.4.1.9.2 1.6.4.2 0 .5.1.8.2.3.1.7.3 1 .5.3.2.6.5.9.9.2.4.4.8.4 1.4 0 .5-.1.9-.3 1.3-.2.4-.5.8-.8 1.1-.4.3-.8.5-1.3.7s-1.2.2-1.9.2c-.6 0-1.1-.1-1.7-.2-.5-.1-1-.4-1.4-.7-.4-.3-.7-.7-1-1.1s-.4-1-.3-1.7h2.2c0 .5.1.8.2 1zM161 26.4v-1.9h8.5v1.9h-3.1v8.4h-2.3v-8.4H161zM178.4 24.4v1.9h-5.5v2.2h5v1.8h-5v2.5h5.6v1.9h-7.9V24.4h7.8zM184.7 24.4c.6 0 1.2.1 1.7.3s.8.4 1.1.7.5.7.6 1.1c.1.4.2.8.2 1.2 0 .4-.1.8-.2 1.2-.1.4-.3.8-.6 1.1-.3.3-.7.6-1.1.7s-1 .3-1.7.3h-2.4v3.7H180V24.4h4.7zm-.6 4.9c.3 0 .5 0 .8-.1.2 0 .5-.1.6-.2.2-.1.3-.3.4-.5s.2-.5.2-.8-.1-.6-.2-.8c-.1-.2-.3-.4-.4-.5-.2-.1-.4-.2-.6-.2-.2 0-.5-.1-.8-.1h-1.8v3.1h1.8z"/></g></svg>