<svg xmlns="http://www.w3.org/2000/svg" viewBox="0 0 300 50"><path d="M17.4 17.2c-.4.2-.9.3-1.3.3-.7 0-1.3-.1-1.8-.4s-1-.6-1.4-1c-.4-.4-.7-.9-.9-1.5-.2-.6-.3-1.2-.3-1.8 0-.7.1-1.3.3-1.9.2-.6.5-1.1.9-1.5.4-.4.8-.8 1.4-1s1.2-.4 1.8-.4c.5 0 .9.1 1.3.2s.8.3 1.2.6c.3.3.6.6.9 1s.4.8.4 1.4H18c-.1-.5-.3-.9-.7-1.1-.3-.1-.7-.3-1.2-.3-.4 0-.8.1-1.1.3-.3.2-.6.4-.8.7-.2.3-.3.6-.4 1s-.1.7-.1 1.1c0 .4 0 .7.1 1.1.1.4.2.7.4 1 .2.3.4.5.8.7.3.2.7.3 1.1.3.7 0 1.2-.2 1.5-.5s.6-.8.6-1.4h-2v-1.5H20v4.8h-1.2l-.2-1c-.4.4-.7.7-1.2.8zM23.3 15.8c.3.3.6.4 1.1.4.4 0 .7-.1.9-.3s.4-.4.5-.6h1.6c-.2.8-.6 1.3-1.1 1.7-.5.3-1.1.5-1.9.5-.5 0-1-.1-1.4-.2-.4-.2-.8-.4-1-.7-.3-.3-.5-.7-.7-1.1-.2-.4-.2-.9-.2-1.4 0-.5.1-.9.2-1.4.2-.4.4-.8.7-1.1s.6-.5 1-.7c.4-.2.9-.3 1.3-.3.5 0 1 .1 1.4.3.4.2.7.5 1 .9.3.4.5.8.6 1.2.1.5.2.9.1 1.4h-4.7c.2.7.4 1.1.6 1.4zm2-3.4c-.2-.2-.5-.3-1-.3-.3 0-.5 0-.7.1s-.3.2-.5.4c0 .1-.1.2-.1.4s-.1.3-.1.4h2.9c-.1-.5-.2-.8-.5-1zM32.2 10.9V12h-1.3v3.2c0 .3.1.5.2.6.1.1.3.1.6.1h.6v1.4h-1c-.3 0-.5 0-.8-.1-.2 0-.5-.1-.6-.2s-.3-.3-.4-.5c-.1-.2-.2-.5-.2-.8V12H28v-1.2h1.1V8.9h1.8v1.9h1.3zM36.6 10.9V12h-1.3v3.2c0 .3.1.5.2.6.1.1.3.1.6.1h.6v1.4h-1c-.3 0-.5 0-.8-.1-.2 0-.5-.1-.6-.2s-.3-.3-.4-.5c-.1-.2-.2-.5-.2-.8V12h-1.1v-1.2h1.1V8.9h1.8v1.9h1.1zM37.5 9.9V8.4h1.8v1.5h-1.8zm1.7 1v6.5h-1.8v-6.5h1.8zM42.3 10.9v.9c.2-.4.5-.6.9-.8.4-.2.7-.3 1.1-.3.5 0 .9.1 1.2.2.3.1.5.3.7.5.2.2.3.5.4.8.1.3.1.7.1 1.1v4h-1.8v-3.6c0-.5-.1-.9-.2-1.2s-.5-.4-.9-.4c-.5 0-.8.1-1.1.4s-.3.8-.3 1.4v3.4h-1.8v-6.5h1.7zM54.2 17.8c-.1.3-.2.6-.5.9-.2.3-.6.5-1 .7-.4.2-1 .3-1.8.3-.3 0-.6 0-1-.1-.3-.1-.6-.2-.9-.4-.3-.2-.5-.4-.7-.6-.2-.3-.3-.6-.3-.9h1.8c.1.3.2.6.5.7s.5.2.8.2c.5 0 .9-.1 1.1-.5.2-.3.3-.7.3-1.1v-.9c-.2.3-.5.6-.8.8-.4.2-.7.2-1.1.2-.5 0-.9-.1-1.2-.3-.3-.2-.6-.4-.9-.7s-.4-.6-.5-1c-.1-.4-.2-.8-.2-1.3 0-.4.1-.8.2-1.2.1-.4.3-.7.5-1 .2-.3.5-.5.9-.7s.7-.3 1.2-.3c.4 0 .8.1 1.1.2s.6.4.8.8v-.9h1.7v6c.1.5 0 .8 0 1.1zm-2.5-2.2c.2-.1.4-.2.5-.4l.3-.6c.1-.2.1-.4.1-.7 0-.3 0-.5-.1-.8 0-.2-.1-.4-.2-.6-.1-.2-.3-.3-.5-.4-.2-.1-.4-.2-.7-.2-.2 0-.5 0-.6.1-.2.1-.3.2-.5.4l-.3.6c-.1.2-.1.5-.1.7 0 .2 0 .5.1.7 0 .2.1.4.2.6.1.2.3.3.4.4.2.1.4.2.7.2.3.2.5.1.7 0zM61 8.4v8.9h-1.8V8.4H61zM62.4 12.7c.2-.4.4-.8.7-1.1.3-.3.6-.5 1-.7.4-.2.9-.2 1.4-.2s1 .1 1.4.2c.4.2.8.4 1.1.7.3.3.5.7.7 1.1.2.4.2.9.2 1.4 0 .5-.1 1-.2 1.4-.2.4-.4.8-.7 1.1-.3.3-.6.5-1.1.7s-.9.2-1.4.2-1-.1-1.4-.2-.8-.4-1-.7c-.3-.3-.5-.7-.7-1.1-.2-.4-.2-.9-.2-1.4 0-.5.1-1 .2-1.4zm1.6 2.1c0 .2.1.5.3.7.1.2.3.4.5.5s.5.2.8.2.6-.1.8-.2c.2-.1.4-.3.5-.5s.2-.4.3-.7c0-.2.1-.5.1-.8s0-.5-.1-.8-.1-.5-.3-.7l-.5-.5c-.2-.1-.5-.2-.8-.2s-.5.1-.8.2-.4.3-.5.5c-.1.2-.2.4-.3.7v1.6zM75.6 17.3L74.4 13l-1.1 4.3h-1.8l-2-6.5h1.9l1.2 4.4 1.1-4.4h1.7l1.1 4.4 1.2-4.4h1.8l-2 6.5h-1.9zM83.9 13.1v1.5h-3.8v-1.5h3.8zM88.4 12c-.3 0-.5.1-.7.2-.2.1-.3.3-.5.5-.1.2-.2.4-.3.7-.1.2-.1.5-.1.7 0 .2 0 .5.1.7 0 .2.1.5.2.7.1.2.3.4.5.5s.4.2.7.2c.4 0 .8-.1 1-.4.2-.2.4-.6.4-1h1.7c-.1.9-.5 1.5-1 2-.6.5-1.3.7-2.1.7-.5 0-.9-.1-1.3-.2-.4-.2-.7-.4-1-.7-.3-.3-.5-.6-.7-1s-.2-.8-.2-1.3.1-1 .2-1.4c.1-.4.4-.8.6-1.1s.6-.6 1-.7.9-.3 1.4-.3c.4 0 .8.1 1.1.2.4.1.7.3.9.5s.5.5.7.8c.2.3.3.7.3 1.1h-1.7c0-1-.5-1.4-1.2-1.4zM92.5 12.7c.2-.4.4-.8.7-1.1.3-.3.6-.5 1-.7.4-.2.9-.2 1.4-.2s1 .1 1.4.2c.4.2.8.4 1.1.7.3.3.5.7.7 1.1.2.4.2.9.2 1.4 0 .5-.1 1-.2 1.4-.2.4-.4.8-.7 1.1-.3.3-.6.5-1.1.7s-.9.2-1.4.2-1-.1-1.4-.2-.8-.4-1-.7c-.3-.3-.5-.7-.7-1.1-.2-.4-.2-.9-.2-1.4 0-.5 0-1 .2-1.4zm1.6 2.1c0 .2.1.5.3.7.1.2.3.4.5.5s.5.2.8.2.6-.1.8-.2c.2-.1.4-.3.5-.5s.2-.4.3-.7c0-.2.1-.5.1-.8s0-.5-.1-.8-.1-.5-.3-.7l-.5-.5c-.2-.1-.5-.2-.8-.2s-.5.1-.8.2-.4.3-.5.5c-.1.2-.2.4-.3.7-.1.2-.1.5-.1.8s.1.6.1.8zM101.6 15.7l.3.3c.1.1.3.2.4.2.2 0 .3.1.5.1h.4c.1 0 .3-.1.4-.1.1-.1.2-.1.3-.2.1-.1.1-.2.1-.4 0-.3-.2-.5-.5-.6-.4-.1-.8-.3-1.5-.4-.3-.1-.5-.1-.8-.2-.2-.1-.5-.2-.7-.3-.2-.1-.3-.3-.5-.5s-.2-.4-.2-.7c0-.4.1-.8.2-1s.4-.5.6-.6.6-.3.9-.3c.3-.1.7-.1 1-.1.3 0 .7 0 1 .1l.9.3c.3.2.5.4.6.6.2.3.3.6.3 1h-1.7c0-.3-.2-.6-.4-.7-.2-.1-.5-.2-.8-.2h-.3c-.1 0-.2 0-.3.1-.1 0-.2.1-.2.2-.1.1-.1.2-.1.3 0 .2.1.3.2.4s.3.2.5.2.4.1.6.2c.2 0 .5.1.7.2.3.1.5.1.8.2.2.1.5.2.7.3s.3.3.5.5.2.5.2.8c0 .4-.1.8-.3 1.1s-.4.5-.7.7c-.3.2-.6.3-.9.4-.4.1-.7.1-1.1.1-.4 0-.7 0-1.1-.1-.4-.1-.7-.2-1-.4-.3-.2-.5-.4-.7-.7-.2-.3-.3-.6-.3-1.1h1.7c.2 0 .2.2.3.3zM110.4 10.9V12h-1.3v3.2c0 .3.1.5.2.6.1.1.3.1.6.1h.6v1.4h-1c-.3 0-.5 0-.8-.1-.2 0-.5-.1-.6-.2s-.3-.3-.4-.5c-.1-.2-.2-.5-.2-.8V12h-1.1v-1.2h1.1V8.9h1.8v1.9h1.1zM113.3 15.4v1.9c0 .3-.1.5-.2.8-.1.2-.2.4-.4.6-.2.2-.4.3-.6.4-.2.1-.5.2-.8.2v-.9c.1 0 .2-.1.4-.1l.3-.3c.1-.1.1-.2.2-.4 0-.1.1-.3.1-.4h-.9v-1.9h1.9zM119.9 8.4v3.4c.2-.4.5-.6.9-.8.4-.2.7-.3 1-.3.5 0 .9.1 1.2.2.3.1.5.3.7.5.2.2.3.5.4.8.1.3.1.7.1 1.1v4h-1.8v-3.6c0-.5-.1-.9-.2-1.2s-.5-.4-.9-.4c-.5 0-.8.1-1.1.4s-.3.8-.3 1.4v3.4h-1.8V8.4h1.8zM125.6 9.9V8.4h1.8v1.5h-1.8zm1.8 1v6.5h-1.8v-6.5h1.8zM134.9 17.8c-.1.3-.2.6-.5.9-.2.3-.6.5-1 .7-.4.2-1 .3-1.8.3-.3 0-.6 0-1-.1-.3-.1-.6-.2-.9-.4-.3-.2-.5-.4-.7-.6-.2-.3-.3-.6-.3-.9h1.8c.1.3.2.6.5.7s.5.2.8.2c.5 0 .9-.1 1.1-.5.2-.3.3-.7.3-1.1v-.9c-.2.3-.5.6-.8.8-.4.2-.7.2-1.1.2-.5 0-.9-.1-1.2-.3-.3-.2-.6-.4-.9-.7s-.4-.6-.5-1c-.1-.4-.2-.8-.2-1.3 0-.4.1-.8.2-1.2.1-.4.3-.7.5-1 .2-.3.5-.5.9-.7s.7-.3 1.2-.3c.4 0 .8.1 1.1.2s.6.4.8.8v-.9h1.7v6c.1.5.1.8 0 1.1zm-2.4-2.2c.2-.1.4-.2.5-.4l.3-.6c.1-.2.1-.4.1-.7 0-.3 0-.5-.1-.8 0-.2-.1-.4-.2-.6-.1-.2-.3-.3-.5-.4-.2-.1-.4-.2-.7-.2-.2 0-.5 0-.6.1-.2.1-.3.2-.5.4l-.3.6c-.1.2-.1.5-.1.7 0 .2 0 .5.1.7 0 .2.1.4.2.6.1.2.3.3.4.4.2.1.4.2.7.2.3.2.5.1.7 0zM138.2 8.4v3.4c.2-.4.5-.6.9-.8.4-.2.7-.3 1-.3.5 0 .9.1 1.2.2.3.1.5.3.7.5.2.2.3.5.4.8.1.3.1.7.1 1.1v4h-1.8v-3.6c0-.5-.1-.9-.2-1.2s-.5-.4-.9-.4c-.5 0-.8.1-1.1.4s-.3.8-.3 1.4v3.4h-1.8V8.4h1.8zM147.6 13.1v1.5h-3.8v-1.5h3.8zM153.5 19.6v-3.1c-.2.4-.5.6-.9.8s-.8.2-1.2.2c-.3 0-.6-.1-.9-.2-.3-.1-.6-.3-.9-.6-.3-.3-.5-.6-.7-1-.2-.4-.3-1-.3-1.6 0-.4.1-.9.2-1.3s.3-.8.5-1.1c.2-.3.5-.6.9-.8.4-.2.8-.3 1.3-.3.4 0 .8.1 1.1.2.4.2.6.4.8.8v-.8h1.7v8.7h-1.6zm-3-4.8c0 .2.1.5.3.7.1.2.3.4.5.5.2.1.4.2.7.2.3 0 .5-.1.7-.2.2-.1.4-.3.5-.5l.3-.6c.1-.2.1-.5.1-.8 0-.2 0-.5-.1-.8-.1-.2-.1-.5-.3-.7-.1-.2-.3-.4-.5-.5-.2-.1-.4-.2-.7-.2-.3 0-.5.1-.7.2s-.4.3-.5.5-.2.4-.3.7c-.1.2-.1.5-.1.8 0 .2.1.5.1.7zM160.9 17.3v-.9c-.2.4-.5.6-.9.8s-.7.2-1.1.2c-.5 0-.9-.1-1.2-.2-.3-.1-.5-.3-.7-.5-.2-.2-.3-.5-.4-.8-.1-.3-.1-.7-.1-1.1v-4h1.8v3.6c0 .5.1.9.2 1.2.2.3.5.4.9.4.5 0 .8-.1 1-.4s.3-.8.3-1.4v-3.4h1.8v6.5h-1.6zM163.9 12.8c0-.4.1-.8.3-1 .2-.3.4-.5.7-.7.3-.2.6-.3 1-.4.4-.1.7-.1 1.1-.1.3 0 .7 0 1 .1.3 0 .6.1.9.3.3.1.5.3.7.6.2.2.3.6.3.9v3.4c0 .3 0 .6.1.8 0 .3.1.5.2.6h-1.8c0-.1-.1-.2-.1-.3v-.3c-.3.3-.6.5-1 .6-.4.1-.8.2-1.2.2-.3 0-.6 0-.9-.1-.3-.1-.5-.2-.7-.3-.2-.2-.4-.4-.5-.6-.1-.2-.2-.5-.2-.9s.1-.7.2-.9c.1-.2.3-.4.5-.6s.4-.2.7-.3.5-.1.8-.2c.3 0 .5-.1.8-.1.3 0 .5-.1.7-.1s.4-.1.5-.2c.1-.1.2-.2.2-.4s0-.3-.1-.5-.1-.2-.2-.3c-.1-.1-.2-.1-.4-.1h-.4c-.3 0-.6.1-.8.2-.2.1-.3.4-.3.8h-2.1zm4.1 1.3c-.1.1-.2.1-.3.2s-.2.1-.4.1c-.1 0-.3 0-.4.1-.1 0-.3 0-.4.1-.1 0-.3.1-.4.1-.1 0-.2.1-.3.2-.1.1-.2.2-.2.3-.1.1-.1.2-.1.4s0 .3.1.4c.1.1.1.2.2.3s.2.1.3.1h.4c.3 0 .6-.1.8-.2.2-.1.3-.3.4-.4.1-.2.1-.3.2-.5V14.1zM173 8.4v8.9h-1.8V8.4h1.8zM174.4 9.9V8.4h1.8v1.5h-1.8zm1.8 1v6.5h-1.8v-6.5h1.8zM181.2 10.9V12h-1.3v3.2c0 .3 0 .5.2.6.1.1.3.1.6.1h.6v1.4h-1c-.3 0-.5 0-.8-.1s-.5-.1-.7-.2-.3-.3-.4-.5c-.1-.2-.2-.5-.2-.8V12H177v-1.2h1.1V8.9h1.8v1.9h1.3zM184.4 19.2c-.3.2-.8.3-1.4.3h-1V18c.2 0 .3 0 .5.1h.5c.2 0 .4-.1.5-.3s.2-.3.2-.5c0-.1 0-.3-.1-.4l-2.3-6.1h1.9l1.5 4.4 1.4-4.4h1.8l-2.7 7.3c-.2.5-.5.9-.8 1.1zM195.1 12c-.3 0-.5.1-.7.2-.2.1-.3.3-.5.5-.1.2-.2.4-.3.7s-.1.5-.1.7c0 .2 0 .5.1.7s.1.5.2.7c.1.2.3.4.5.5.2.1.4.2.7.2.4 0 .8-.1 1-.4.2-.2.4-.6.4-1h1.7c-.1.9-.4 1.5-1 2-.5.5-1.3.7-2.1.7-.5 0-.9-.1-1.3-.2-.4-.2-.7-.4-1-.7-.3-.3-.5-.6-.7-1-.2-.4-.2-.8-.2-1.3s.1-1 .2-1.4c.1-.4.4-.8.6-1.1.3-.3.6-.6 1-.7s.9-.3 1.4-.3c.4 0 .8.1 1.1.2.4.1.7.3 1 .5s.5.5.7.8.3.7.3 1.1h-1.7c-.1-1-.6-1.4-1.3-1.4zM199.2 12.7c.2-.4.4-.8.7-1.1.3-.3.6-.5 1-.7.4-.2.9-.2 1.4-.2.5 0 1 .1 1.4.2.4.2.8.4 1.1.7s.5.7.7 1.1c.2.4.2.9.2 1.4 0 .5-.1 1-.2 1.4-.2.4-.4.8-.7 1.1-.3.3-.6.5-1.1.7-.4.2-.9.2-1.4.2-.5 0-1-.1-1.4-.2s-.8-.4-1-.7c-.3-.3-.5-.7-.7-1.1-.2-.4-.2-.9-.2-1.4-.1-.5 0-1 .2-1.4zm1.6 2.1c0 .2.1.5.3.7s.3.4.5.5.5.2.8.2.6-.1.8-.2.4-.3.5-.5c.1-.2.2-.4.3-.7 0-.2.1-.5.1-.8s0-.5-.1-.8-.1-.5-.3-.7c-.1-.2-.3-.3-.5-.5s-.5-.2-.8-.2-.5.1-.8.2-.4.3-.5.5-.2.4-.3.7-.1.5-.1.8 0 .6.1.8zM208.4 17.3l-2.2-6.5h1.9l1.4 4.4 1.4-4.4h1.8l-2.2 6.5h-2.1zM215.2 15.8c.3.3.6.4 1.1.4.4 0 .7-.1.9-.3.3-.2.4-.4.5-.6h1.6c-.2.8-.6 1.3-1.2 1.7s-1.1.5-1.9.5c-.5 0-1-.1-1.4-.2-.4-.2-.8-.4-1-.7-.3-.3-.5-.7-.7-1.1-.2-.4-.2-.9-.2-1.4 0-.5.1-.9.2-1.4.2-.4.4-.8.7-1.1.3-.3.6-.5 1-.7s.9-.3 1.3-.3c.6 0 1 .1 1.4.3s.7.5 1 .9.5.8.6 1.2c.1.5.2.9.1 1.4h-4.7c.3.7.4 1.1.7 1.4zm2-3.4c-.2-.2-.5-.3-1-.3-.3 0-.5 0-.7.1s-.3.2-.5.4-.2.3-.2.4c0 .2-.1.3-.1.4h2.9c0-.5-.2-.8-.4-1zM222.1 10.9V12l.3-.6c.1-.2.3-.3.5-.4l.6-.3c.2-.1.4-.1.7-.1.1 0 .2 0 .4.1v1.7h-.6c-.3 0-.6.1-.8.2-.2.1-.4.3-.5.4s-.2.4-.3.7c-.1.2-.1.5-.1.8v2.9h-1.8v-6.5h1.6zM225.2 12.8c0-.4.1-.8.3-1 .2-.3.4-.5.7-.7.3-.2.6-.3 1-.4.4-.1.7-.1 1.1-.1.3 0 .7 0 1 .1.3 0 .6.1.9.3.3.1.5.3.7.6.2.2.3.6.3.9v3.4c0 .3 0 .6.1.8 0 .3.1.5.2.6h-1.8c0-.1-.1-.2-.1-.3v-.3c-.3.3-.6.5-1 .6-.4.1-.8.2-1.2.2-.3 0-.6 0-.9-.1-.3-.1-.5-.2-.7-.3-.2-.2-.4-.4-.5-.6-.1-.2-.2-.5-.2-.9s.1-.7.2-.9c.1-.2.3-.4.5-.6s.4-.2.7-.3.5-.1.8-.2c.3 0 .5-.1.8-.1.3 0 .5-.1.7-.1s.4-.1.5-.2c.1-.1.2-.2.2-.4s0-.3-.1-.5-.1-.2-.2-.3c-.1-.1-.2-.1-.4-.1h-.4c-.3 0-.6.1-.8.2-.2.1-.3.4-.3.8h-2.1zm4.1 1.3c-.1.1-.2.1-.3.2s-.2.1-.4.1c-.1 0-.3 0-.4.1-.1 0-.3 0-.4.1-.1 0-.3.1-.4.1-.1 0-.2.1-.3.2-.1.1-.2.2-.2.3-.1.1-.1.2-.1.4s0 .3.1.4c.1.1.1.2.2.3s.2.1.3.1h.4c.3 0 .6-.1.8-.2.2-.1.3-.3.4-.4.1-.2.1-.3.2-.5V14.1zM238.6 17.8c-.1.3-.2.6-.5.9s-.6.5-1 .7c-.4.2-1 .3-1.8.3-.3 0-.6 0-1-.1-.3-.1-.6-.2-.9-.4-.3-.2-.5-.4-.7-.6-.2-.3-.3-.6-.3-.9h1.8c.1.3.2.6.5.7.2.1.5.2.8.2.5 0 .9-.1 1.1-.5.2-.3.3-.7.3-1.1v-.9c-.2.3-.5.6-.8.8-.4.2-.7.2-1.1.2-.5 0-.9-.1-1.2-.3-.3-.2-.6-.4-.9-.7s-.4-.6-.5-1c-.1-.4-.2-.8-.2-1.3 0-.4.1-.8.2-1.2.1-.4.3-.7.5-1 .2-.3.5-.5.9-.7.3-.2.7-.3 1.2-.3.4 0 .8.1 1.1.2.3.2.6.4.8.8v-.9h1.7v6c.1.5.1.8 0 1.1zm-2.4-2.2c.2-.1.4-.2.5-.4l.3-.6c.1-.2.1-.4.1-.7 0-.3 0-.5-.1-.8 0-.2-.1-.4-.2-.6-.1-.2-.3-.3-.5-.4-.2-.1-.4-.2-.7-.2-.2 0-.5 0-.6.1-.2.1-.3.2-.5.4s-.2.4-.3.6c-.1.2-.1.5-.1.7 0 .2 0 .5.1.7 0 .2.1.4.2.6.1.2.3.3.4.4.2.1.4.2.7.2.3.2.5.1.7 0zM242 15.8c.3.3.6.4 1.1.4.4 0 .7-.1.9-.3.3-.2.4-.4.5-.6h1.6c-.2.8-.6 1.3-1.2 1.7s-1.1.5-1.9.5c-.5 0-1-.1-1.4-.2-.4-.2-.8-.4-1-.7-.3-.3-.5-.7-.7-1.1-.2-.4-.2-.9-.2-1.4 0-.5.1-.9.2-1.4.2-.4.4-.8.7-1.1.3-.3.6-.5 1-.7s.9-.3 1.3-.3c.6 0 1 .1 1.4.3s.7.5 1 .9.5.8.6 1.2c.1.5.2.9.1 1.4h-4.7c.3.7.5 1.1.7 1.4zm2-3.4c-.2-.2-.5-.3-1-.3-.3 0-.5 0-.7.1s-.3.2-.5.4-.2.3-.2.4c0 .2-.1.3-.1.4h2.9c0-.5-.1-.8-.4-1zM250.7 12.8c0-.4.1-.8.3-1 .2-.3.4-.5.7-.7.3-.2.6-.3 1-.4.4-.1.7-.1 1.1-.1.3 0 .7 0 1 .1.3 0 .6.1.9.3.3.1.5.3.7.6.2.2.3.6.3.9v3.4c0 .3 0 .6.1.8 0 .3.1.5.2.6h-2c0-.1-.1-.2-.1-.3v-.3c-.3.3-.6.5-1 .6-.4.1-.8.2-1.2.2-.3 0-.6 0-.9-.1-.3-.1-.5-.2-.7-.3-.2-.2-.4-.4-.5-.6-.1-.2-.2-.5-.2-.9s.1-.7.2-.9c.1-.2.3-.4.5-.6s.4-.2.7-.3.5-.1.8-.2c.3 0 .5-.1.8-.1.3 0 .5-.1.7-.1s.4-.1.5-.2c.1-.1.2-.2.2-.4s0-.3-.1-.5-.1-.2-.2-.3c-.1-.1-.2-.1-.4-.1h-.4c-.3 0-.6.1-.8.2-.2.1-.3.4-.3.8h-1.9zm4.1 1.3c-.1.1-.2.1-.3.2s-.2.1-.4.1c-.1 0-.3 0-.4.1-.1 0-.3 0-.4.1-.1 0-.3.1-.4.1-.1 0-.2.1-.3.2-.1.1-.2.2-.2.3-.1.1-.1.2-.1.4s0 .3.1.4c.1.1.1.2.2.3s.2.1.3.1h.4c.3 0 .6-.1.8-.2.2-.1.3-.3.4-.4.1-.2.1-.3.2-.5V14.1zM261.5 10.9V12h-1.3v3.2c0 .3 0 .5.2.6.1.1.3.1.6.1h.6v1.4h-1c-.3 0-.5 0-.8-.1s-.5-.1-.7-.2-.3-.3-.4-.5c-.1-.2-.2-.5-.2-.8V12h-1.1v-1.2h1.1V8.9h1.8v1.9h1.2zM15.5 23.3v1.2h-1.3v3.2c0 .3.1.5.2.6.1.1.3.1.6.1h.6v1.4h-1c-.3 0-.5 0-.8-.1-.2 0-.5-.1-.6-.2-.2-.1-.3-.3-.4-.5-.1-.2-.2-.5-.2-.8v-3.8h-1.1v-1.2h1.1v-1.9h1.8v1.9h1.1zm2.6-2.4v3.4c.2-.4.5-.6.9-.8.4-.2.7-.3 1-.3.5 0 .9.1 1.2.2.3.1.5.3.7.5.2.2.3.5.4.8.1.3.1.7.1 1.1v4h-1.8v-3.6c0-.5-.1-.9-.2-1.2-.2-.3-.5-.4-.9-.4-.5 0-.8.1-1.1.4-.2.3-.3.8-.3 1.4v3.4h-1.8v-8.9h1.8zm7.6 7.4c.3.3.6.4 1.1.4.4 0 .7-.1.9-.3.3-.2.4-.4.5-.6h1.6c-.2.8-.6 1.3-1.1 1.7-.5.3-1.1.5-1.9.5-.5 0-1-.1-1.4-.2-.4-.2-.8-.4-1-.7-.3-.3-.5-.7-.7-1.1-.2-.4-.2-.9-.2-1.4 0-.5.1-.9.2-1.4.2-.4.4-.8.7-1.1.3-.3.6-.5 1-.7.4-.2.9-.3 1.3-.3.5 0 1 .1 1.4.3.4.2.7.5 1 .9.3.4.5.8.6 1.2.1.5.2.9.1 1.4h-4.7c.2.7.3 1.1.6 1.4zm2-3.4c-.2-.2-.5-.3-1-.3-.3 0-.5 0-.7.1-.2.1-.3.2-.5.4-.1.1-.2.3-.2.4 0 .2-.1.3-.1.4h2.9c-.1-.5-.2-.8-.4-1zm8.2 3.3l.3.3c.1.1.3.2.4.2.2 0 .3.1.5.1h.4c.1 0 .3-.1.4-.1.1-.1.2-.1.3-.2.1-.1.1-.2.1-.4 0-.3-.2-.5-.5-.6-.4-.1-.8-.3-1.5-.4-.3-.1-.5-.1-.8-.2-.2-.1-.5-.2-.7-.3-.2-.1-.3-.3-.5-.5-.1-.2-.2-.4-.2-.7 0-.4.1-.8.2-1 .2-.3.4-.5.6-.6.3-.2.6-.3.9-.3.3-.1.7-.1 1-.1.3 0 .7 0 1 .1l.9.3c.3.2.5.4.6.6.2.3.3.6.3 1h-1.7c0-.3-.2-.6-.4-.7-.2-.1-.5-.2-.8-.2h-.3c-.1 0-.2 0-.3.1-.1 0-.2.1-.2.2.2-.1.1 0 .1.2s.1.3.2.4c.1.1.3.2.5.2s.4.1.6.2c.2 0 .5.1.7.2.3.1.5.1.8.2.2.1.5.2.7.3.2.1.3.3.5.5.1.2.2.5.2.8 0 .4-.1.8-.3 1.1-.2.3-.4.5-.7.7-.3.2-.6.3-.9.4-.4.1-.7.1-1.1.1-.4 0-.7 0-1.1-.1-.4-.1-.7-.2-1-.4-.3-.2-.5-.4-.7-.7-.2-.3-.3-.6-.3-1.1h1.7c0 .1 0 .3.1.4zm8.8-4.9v1.2h-1.3v3.2c0 .3 0 .5.2.6.1.1.3.1.6.1h.6v1.4h-1c-.3 0-.5 0-.8-.1-.2 0-.5-.1-.7-.2-.2-.1-.3-.3-.4-.5-.1-.2-.2-.5-.2-.8v-3.8h-1.1v-1.2h1.1v-1.9h1.8v1.9h1.2zm2.5 2c0-.4.2-.6.3-.8.2-.1.5-.2.8-.2h.4c.1 0 .3.1.4.1.1.1.2.2.2.3s.1.3.1.5 0 .3-.2.4c-.1.1-.3.2-.5.2s-.2.2-.5.2-.5.1-.8.1c-.3 0-.5.1-.8.2-.3.1-.5.2-.7.3-.2.1-.4.3-.5.6-.1.2-.2.5-.2.9 0 .3.1.6.2.9.1.2.3.4.5.6.2.2.4.3.7.3.3.1.6.1.9.1.4 0 .8-.1 1.2-.2.4-.1.7-.3 1-.6v.3c0 .1 0 .2.1.3h1.8c-.1-.1-.1-.3-.2-.6 0-.3-.1-.5-.1-.8V25c0-.4-.1-.7-.3-.9-.2-.2-.4-.4-.7-.6l-.9-.3c-.3 0-.7-.1-1-.1-.4 0-.7 0-1.1.1-.4.1-.7.2-1 .4-.3.2-.5.4-.7.7-.2.3-.3.6-.3 1h1.9zm2.4 2v.4c0 .2-.1.3-.2.5s-.2.3-.4.4c-.2.1-.5.2-.8.2h-.4c-.1 0-.2-.1-.3-.1s-.2-.1-.2-.3c-.2-.1-.3-.3-.3-.4 0-.2 0-.3.1-.4.1-.1.1-.2.2-.3.1-.1.2-.1.3-.2.1 0 .3-.1.4-.1.1 0 .3 0 .4-.1.1 0 .3 0 .4-.1.1 0 .2-.1.4-.1s.2-.1.3-.2v.8zm4.8-4v1.2l.3-.6c.1-.2.3-.3.5-.4l.6-.3c.2-.1.4-.1.7-.1.1 0 .2 0 .4.1v1.7h-.6c-.3 0-.6.1-.8.2-.2.1-.4.3-.5.4s-.2.4-.3.7c-.1.2-.1.5-.1.8v2.9h-1.8v-6.5h1.6zm6.7 0v1.2h-1.3v3.2c0 .3 0 .5.2.6.1.1.3.1.6.1h.6v1.4h-1c-.3 0-.5 0-.8-.1-.2 0-.5-.1-.7-.2-.2-.1-.3-.3-.4-.5-.1-.2-.2-.5-.2-.8v-3.8H57v-1.2h1v-1.9h1.8v1.9h1.3zm4.4 1.9c.2-.4.4-.8.7-1.1.3-.3.6-.5 1.1-.7.4-.2.9-.2 1.4-.2.5 0 1 .1 1.4.2.4.2.8.4 1.1.7.3.3.5.7.7 1.1.2.4.2.9.2 1.4 0 .5-.1 1-.2 1.4-.2.4-.4.8-.7 1.1-.3.3-.6.5-1.1.7s-1 .2-1.5.2-1-.1-1.4-.2c-.4-.2-.8-.4-1.1-.7-.3-.3-.5-.7-.7-1.1-.2-.4-.2-.9-.2-1.4 0-.5.1-1 .3-1.4zm1.6 2.1c.1.2.1.5.3.7.1.2.3.4.5.5.2.1.4.2.8.2s.6-.1.8-.2c.2-.1.4-.3.5-.5.1-.2.2-.4.3-.7.1-.2.1-.5.1-.8 0-.3 0-.5-.1-.8s-.1-.5-.3-.7c-.1-.2-.3-.3-.5-.5-.2-.1-.5-.2-.8-.2s-.6.1-.8.2c-.2.1-.4.3-.5.5-.1.2-.2.4-.3.7 0 .2-.1.5-.1.8 0 .3 0 .6.1.8zm5.3-2.8v-1.2h1.1v-.5c0-.6.2-1 .5-1.4.4-.4.9-.5 1.6-.5h1v1.3h-.7c-.2 0-.4.1-.5.2-.1.1-.2.3-.2.6v.4h1.2v1.2h-1.2v5.3h-1.8v-5.3h-1zm10.7 7.2c-.3.2-.8.3-1.4.3h-1v-1.5c.2 0 .3 0 .5.1h.5c.2 0 .4-.1.5-.3.1-.2.2-.3.2-.5 0-.1 0-.3-.1-.4L80 23.3h1.9l1.5 4.4 1.4-4.4h1.8l-2.7 7.3c-.2.5-.5.9-.8 1.1zm4.1-6.5c.2-.4.4-.8.7-1.1.3-.3.6-.5 1.1-.7.4-.2.9-.2 1.4-.2.5 0 1 .1 1.4.2.4.2.8.4 1.1.7.3.3.5.7.7 1.1.2.4.2.9.2 1.4 0 .5-.1 1-.2 1.4-.2.4-.4.8-.7 1.1-.3.3-.6.5-1.1.7s-1 .2-1.5.2-1-.1-1.4-.2c-.4-.2-.8-.4-1.1-.7-.3-.3-.5-.7-.7-1.1-.2-.4-.2-.9-.2-1.4.1-.5.2-1 .3-1.4zm1.7 2.1c.1.2.1.5.3.7.1.2.3.4.5.5.2.1.4.2.8.2s.6-.1.8-.2c.2-.1.4-.3.5-.5.1-.2.2-.4.3-.7.1-.2.1-.5.1-.8 0-.3 0-.5-.1-.8s-.1-.5-.3-.7c-.1-.2-.3-.3-.5-.5-.2-.1-.5-.2-.8-.2s-.6.1-.8.2c-.2.1-.4.3-.5.5-.1.2-.2.4-.3.7 0 .2-.1.5-.1.8 0 .3 0 .6.1.8zm10.3 2.5v-.9c-.2.4-.5.6-.9.8-.4.2-.7.2-1.1.2-.5 0-.9-.1-1.2-.2-.3-.1-.5-.3-.7-.5-.2-.2-.3-.5-.4-.8-.1-.3-.1-.7-.1-1.1v-4h1.8V27c0 .5.1.9.2 1.2.2.3.5.4.9.4.5 0 .8-.1 1-.4.2-.3.3-.8.3-1.4v-3.4h1.8v6.5h-1.6zm4.7-6.5v1.2l.3-.6c.1-.2.3-.3.5-.4l.6-.3c.2-.1.4-.1.6-.1.1 0 .2 0 .4.1v1.7h-.6c-.3 0-.6.1-.8.2-.2.1-.4.3-.5.4-.1.2-.2.4-.3.7-.1.2-.1.5-.1.8v2.9h-1.8v-6.5h1.7zm9.8 1.2c-.3 0-.5.1-.7.2-.2.1-.3.3-.5.5-.1.2-.2.4-.3.7 0 .2-.1.5-.1.7 0 .2 0 .5.1.7.1.2.1.5.2.7.1.2.3.4.5.5.2.1.4.2.7.2.4 0 .8-.1 1-.4.2-.2.4-.6.4-1h1.7c-.1.9-.4 1.5-1 2-.5.5-1.3.7-2.1.7-.5 0-.9-.1-1.3-.2-.4-.2-.7-.4-1-.7-.3-.3-.5-.6-.7-1-.2-.4-.2-.8-.2-1.3s.1-1 .2-1.4c.1-.4.4-.8.6-1.1.3-.3.6-.6 1-.7.4-.2.9-.3 1.4-.3.4 0 .8.1 1.1.2.4.1.7.3 1 .5.3.2.5.5.7.8.2.3.3.7.3 1.1H115c-.1-1-.6-1.4-1.3-1.4zm5.8.8c0-.4.2-.6.3-.8.2-.1.5-.2.8-.2h.4c.1 0 .3.1.4.1.1.1.2.2.2.3s.1.3.1.5 0 .3-.2.4c-.1.1-.3.2-.5.2s-.4.1-.7.1c-.3 0-.5.1-.8.1-.3 0-.5.1-.8.2-.3.1-.5.2-.7.3-.2.1-.4.3-.5.6-.1.2-.2.5-.2.9 0 .3.1.6.2.9.1.2.3.4.5.6.2.2.4.3.7.3.3.1.6.1.9.1.4 0 .8-.1 1.2-.2.4-.1.7-.3 1-.6v.3c0 .1 0 .2.1.3h1.8c-.1-.1-.1-.3-.2-.6 0-.3-.1-.5-.1-.8V25c0-.4-.1-.7-.3-.9-.2-.2-.4-.4-.7-.6l-.9-.3c-.3 0-.7-.1-1-.1-.4 0-.7 0-1.1.1-.4.1-.7.2-1 .4-.3.2-.5.4-.7.7-.2.3-.3.6-.3 1h2.1zm2.3 2v.4c0 .2-.1.3-.2.5s-.2.3-.4.4c-.2.1-.5.2-.8.2h-.4c-.1 0-.2-.1-.3-.1s-.2-.1-.2-.3c-.1-.1-.1-.2-.1-.4s0-.3.1-.4c.1-.1.1-.2.2-.3.1-.1.2-.1.3-.2.1 0 .3-.1.4-.1.1 0 .3 0 .4-.1.1 0 .3 0 .4-.1.1 0 .2-.1.4-.1.1 0 .2-.1.3-.2v.8zm4.8-4v1.2l.3-.6c.1-.2.3-.3.5-.4l.6-.3c.2-.1.4-.1.6-.1.1 0 .2 0 .4.1v1.7h-.6c-.3 0-.6.1-.8.2-.2.1-.4.3-.5.4s-.2.4-.3.7c-.1.2-.1.5-.1.8v2.9h-1.8v-6.5h1.7zm4.9 5c.3.3.7.4 1.2.4.4 0 .7-.1.9-.3.3-.2.4-.4.5-.6h1.6c-.2.8-.6 1.3-1.1 1.7-.5.3-1.1.5-1.9.5-.5 0-1-.1-1.4-.2-.4-.2-.8-.4-1-.7-.3-.3-.5-.7-.7-1.1-.2-.4-.2-.9-.2-1.4 0-.5.1-.9.2-1.4.2-.4.4-.8.7-1.1.3-.3.6-.5 1-.7.4-.2.9-.3 1.3-.3.5 0 1 .1 1.4.3.4.2.7.5 1 .9.3.4.5.8.6 1.2.1.5.2.9.1 1.4H131c.1.7.2 1.1.5 1.4zm2-3.4c-.2-.2-.5-.3-1-.3-.3 0-.5 0-.7.1-.2.1-.3.2-.4.4-.1.1-.2.3-.2.4 0 .2-.1.3-.1.4h2.9c-.2-.5-.3-.8-.5-1zm5.2 3.4c.3.3.7.4 1.2.4.4 0 .7-.1.9-.3.3-.2.4-.4.5-.6h1.6c-.2.8-.6 1.3-1.1 1.7-.5.3-1.1.5-1.9.5-.5 0-1-.1-1.4-.2-.4-.2-.8-.4-1-.7-.3-.3-.5-.7-.7-1.1-.2-.4-.2-.9-.2-1.4 0-.5.1-.9.2-1.4.2-.4.4-.8.7-1.1.3-.3.6-.5 1-.7.4-.2.9-.3 1.3-.3.5 0 1 .1 1.4.3.4.2.7.5 1 .9.3.4.5.8.6 1.2.1.5.2.9.1 1.4h-4.7c0 .7.2 1.1.5 1.4zm2-3.4c-.2-.2-.5-.3-1-.3-.3 0-.5 0-.7.1-.2.1-.3.2-.4.4-.1.1-.2.3-.2.4 0 .2-.1.3-.1.4h2.9c-.2-.5-.3-.8-.5-1zm4.9-1.6v1.2l.3-.6c.1-.2.3-.3.5-.4l.6-.3c.2-.1.4-.1.6-.1.1 0 .2 0 .4.1v1.7h-.6c-.3 0-.6.1-.8.2-.2.1-.4.3-.5.4s-.2.4-.3.7c-.1.2-.1.5-.1.8v2.9h-1.8v-6.5h1.7zm6.7-1v-1.5h1.8v1.5h-1.8zm1.8 1v6.5h-1.8v-6.5h1.8zm2.9 4.9l.3.3c.1.1.3.2.4.2.2 0 .3.1.5.1h.4c.1 0 .3-.1.4-.1.1-.1.2-.1.3-.2.1-.1.1-.2.1-.4 0-.3-.2-.5-.5-.6-.4-.1-.8-.3-1.5-.4-.3-.1-.5-.1-.8-.2-.2-.1-.5-.2-.7-.3-.2-.1-.3-.3-.5-.5-.1-.2-.2-.4-.2-.7 0-.4.1-.8.2-1 .2-.3.4-.5.6-.6.3-.2.6-.3.9-.3.3-.1.7-.1 1-.1.4 0 .7 0 1 .1l.9.3c.3.2.5.4.6.6.2.3.3.6.3 1H159c0-.3-.2-.6-.4-.7-.2-.1-.5-.2-.8-.2h-.3c-.1 0-.2 0-.3.1-.1 0-.2.1-.2.2-.1.1-.1.2-.1.3 0 .2.1.3.2.4.1.1.3.2.5.2s.4.1.6.2c.2 0 .5.1.7.2.3.1.5.1.8.2.2.1.5.2.7.3.2.1.3.3.5.5.1.2.2.5.2.8 0 .4-.1.8-.3 1.1-.2.3-.4.5-.7.7-.3.2-.6.3-.9.4-.4.1-.7.1-1.1.1-.4 0-.7 0-1.1-.1-.4-.1-.7-.2-1-.4-.3-.2-.5-.4-.7-.7-.2-.3-.3-.6-.3-1.1h1.7c.2 0 .2.2.3.3zm10.4-2.9c0-.4.1-.6.4-.8.2-.1.5-.2.8-.2h.4c.1 0 .3.1.4.1.1.1.2.2.2.3s.1.3.1.5 0 .3-.2.4c-.1.1-.3.2-.5.2s-.4.1-.7.1c-.3 0-.5.1-.8.1-.3 0-.5.1-.8.2-.3.1-.5.2-.7.3-.2.1-.4.3-.5.6-.1.2-.2.5-.2.9 0 .3.1.6.2.9.1.2.3.4.5.6.2.2.4.3.7.3.3.1.6.1.9.1.4 0 .8-.1 1.2-.2.4-.1.7-.3 1-.6v.3c0 .1 0 .2.1.3h1.8c-.1-.1-.1-.3-.2-.6V25c0-.4-.1-.7-.3-.9-.2-.2-.4-.4-.7-.6l-.9-.3c-.3 0-.7-.1-1-.1-.4 0-.7 0-1.1.1-.4.1-.7.2-1 .4-.3.2-.5.4-.7.7-.2.3-.3.6-.3 1h1.9zm2.3 2v.4c0 .2-.1.3-.2.5s-.2.3-.4.4c-.2.1-.5.2-.8.2h-.4c-.1 0-.2-.1-.4-.1s-.2-.1-.2-.3c-.1-.1-.1-.2-.1-.4s0-.3.1-.4c.1-.1.1-.2.2-.3.1-.1.2-.1.3-.2.1 0 .3-.1.4-.1.1 0 .3 0 .4-.1.1 0 .3 0 .4-.1.1 0 .2-.1.4-.1s.2-.1.3-.2v.8zm12.7 3c-.1.3-.2.6-.5.9-.2.3-.6.5-1 .7-.4.2-1 .3-1.8.3-.3 0-.6 0-1-.1-.3-.1-.6-.2-.9-.4-.3-.2-.5-.4-.7-.6-.2-.3-.3-.6-.3-.9h1.8c.1.3.2.6.5.7.2.1.5.2.8.2.5 0 .9-.1 1.1-.5.2-.3.3-.7.3-1.1v-.9c-.2.3-.5.6-.8.8-.4.2-.7.2-1.1.2-.5 0-.9-.1-1.2-.3-.4-.2-.6-.4-.9-.7-.2-.3-.4-.6-.5-1-.1-.4-.2-.8-.2-1.3 0-.4.1-.8.2-1.2.1-.4.3-.7.5-1 .2-.3.5-.5.9-.7.3-.2.7-.3 1.2-.3.4 0 .8.1 1.1.2.3.2.6.4.8.8v-.9h1.7v6c.1.5.1.8 0 1.1zm-2.4-2.2c.2-.1.3-.2.5-.4l.3-.6c.1-.2.1-.4.1-.7 0-.3 0-.5-.1-.8-.1-.2-.1-.4-.2-.6-.1-.2-.3-.3-.5-.4-.2-.1-.4-.2-.7-.2-.2 0-.5 0-.6.1-.2.1-.3.2-.4.4l-.3.6c-.1.2-.1.5-.1.7 0 .2 0 .5.1.7 0 .2.1.4.2.6.1.2.3.3.4.4.2.1.4.2.7.2.2.2.4.1.6 0zm4-2.9c.2-.4.4-.8.7-1.1.3-.3.6-.5 1.1-.7.4-.2.9-.2 1.4-.2.5 0 1 .1 1.4.2.4.2.8.4 1.1.7.3.3.5.7.7 1.1.2.4.2.9.2 1.4 0 .5-.1 1-.2 1.4-.2.4-.4.8-.7 1.1-.3.3-.6.5-1.1.7-.4.2-.9.2-1.4.2-.5 0-1-.1-1.4-.2-.4-.2-.8-.4-1.1-.7-.3-.3-.5-.7-.7-1.1-.2-.4-.2-.9-.2-1.4 0-.5 0-1 .2-1.4zm1.6 2.1c.1.2.1.5.3.7.1.2.3.4.5.5.2.1.4.2.8.2s.6-.1.8-.2c.2-.1.4-.3.5-.5.1-.2.2-.4.3-.7.1-.2.1-.5.1-.8 0-.3 0-.5-.1-.8s-.1-.5-.3-.7c-.1-.2-.3-.3-.5-.5-.2-.1-.5-.2-.8-.2s-.6.1-.8.2c-.2.1-.4.3-.5.5-.1.2-.2.4-.3.7s-.1.5-.1.8c0 .3.1.6.1.8zm6-2.1c.2-.4.4-.8.7-1.1.3-.3.6-.5 1.1-.7.4-.2.9-.2 1.4-.2.5 0 1 .1 1.4.2.4.2.8.4 1.1.7.3.3.5.7.7 1.1.2.4.2.9.2 1.4 0 .5-.1 1-.2 1.4-.2.4-.4.8-.7 1.1-.3.3-.6.5-1.1.7-.4.2-.9.2-1.4.2-.5 0-1-.1-1.4-.2-.4-.2-.8-.4-1.1-.7-.3-.3-.5-.7-.7-1.1-.2-.4-.2-.9-.2-1.4 0-.5.1-1 .2-1.4zm1.7 2.1c.1.2.1.5.3.7.1.2.3.4.5.5.2.1.4.2.8.2s.6-.1.8-.2c.2-.1.4-.3.5-.5.1-.2.2-.4.3-.7.1-.2.1-.5.1-.8 0-.3 0-.5-.1-.8s-.1-.5-.3-.7c-.1-.2-.3-.3-.5-.5-.2-.1-.5-.2-.8-.2s-.6.1-.8.2c-.2.1-.4.3-.5.5-.1.2-.2.4-.3.7s-.1.5-.1.8c0 .3 0 .6.1.8zm10.5 1.7c-.2.4-.5.6-.8.8-.3.2-.7.2-1.1.2-.5 0-.9-.1-1.3-.3-.4-.2-.7-.4-.9-.8-.2-.3-.4-.7-.5-1.1-.1-.4-.2-.9-.2-1.3s.1-.9.2-1.3.3-.8.5-1.1c.2-.3.5-.6.9-.7.4-.2.8-.3 1.2-.3.4 0 .7.1 1.1.2.3.2.6.4.8.7v-3.2h1.8v8.9h-1.7V29zm0-3.2c-.1-.2-.1-.5-.3-.7-.1-.2-.3-.3-.5-.5-.2-.1-.4-.2-.7-.2-.3 0-.5.1-.7.2-.2.1-.4.3-.5.5-.1.2-.2.4-.3.7-.1.2-.1.5-.1.8 0 .2 0 .5.1.8.1.2.2.5.3.7.1.2.3.4.5.5.2.1.4.2.7.2.3 0 .5-.1.7-.2.2-.1.4-.3.5-.5.1-.2.2-.4.2-.7s.1-.5.1-.8v-.8zm5.9-1.3v-1.2h1.1v-.5c0-.6.2-1 .5-1.4.4-.4.9-.5 1.6-.5h1v1.3h-.7c-.2 0-.4.1-.5.2-.1.1-.2.3-.2.6v.4h1.2v1.2h-1.2v5.3h-1.8v-5.3h-1zm5.1-2.2v-1.5h1.8v1.5h-1.8zm1.8 1v6.5h-1.8v-6.5h1.8zm3.1 0v1.2l.3-.6c.1-.2.3-.3.5-.4l.6-.3c.2-.1.4-.1.6-.1.1 0 .2 0 .4.1v1.7h-.6c-.3 0-.6.1-.8.2-.2.1-.4.3-.5.4s-.2.4-.3.7c-.1.2-.1.5-.1.8v2.9H218v-6.5h1.7zm4.6 4.9l.3.3c.1.1.3.2.4.2.2 0 .3.1.5.1h.4c.1 0 .3-.1.4-.1.1-.1.2-.1.3-.2.1-.1.1-.2.1-.4 0-.3-.2-.5-.5-.6-.4-.1-.8-.3-1.5-.4-.3-.1-.5-.1-.8-.2-.2-.1-.5-.2-.7-.3-.2-.1-.3-.3-.5-.5-.1-.2-.2-.4-.2-.7 0-.4.1-.8.2-1 .2-.3.4-.5.6-.6.3-.2.6-.3.9-.3.3-.1.7-.1 1-.1.4 0 .7 0 1 .1l.9.3c.3.2.5.4.6.6.2.3.3.6.3 1h-1.7c0-.3-.2-.6-.4-.7-.2-.1-.5-.2-.8-.2h-.3c-.1 0-.2 0-.3.1-.1 0-.2.1-.2.2-.1.1-.1.2-.1.3 0 .2.1.3.2.4.1.1.3.2.5.2s.4.1.6.2c.2 0 .5.1.7.2.3.1.5.1.8.2.2.1.5.2.7.3.2.1.3.3.5.5.1.2.2.5.2.8 0 .4-.1.8-.3 1.1-.2.3-.4.5-.7.7-.3.2-.6.3-.9.4-.4.1-.7.1-1.1.1-.4 0-.7 0-1.1-.1-.4-.1-.7-.2-1-.4-.3-.2-.5-.4-.7-.7-.2-.3-.3-.6-.3-1.1h1.7c.2 0 .3.2.3.3zm8.8-4.9v1.2h-1.3v3.2c0 .3.1.5.1.6.1.1.3.1.6.1h.6v1.4h-1c-.3 0-.5 0-.8-.1-.2 0-.5-.1-.6-.2-.2-.1-.3-.3-.4-.5-.1-.2-.2-.5-.2-.8v-3.8H229v-1.2h1.1v-1.9h1.8v1.9h1.2zm5.8 4.9l.3.3c.1.1.3.2.4.2.2 0 .3.1.5.1h.4c.1 0 .3-.1.4-.1.1-.1.2-.1.3-.2.1-.1.1-.2.1-.4 0-.3-.2-.5-.5-.6-.4-.1-.8-.3-1.5-.4-.3-.1-.5-.1-.8-.2-.2-.1-.5-.2-.7-.3-.2-.1-.3-.3-.5-.5-.1-.2-.2-.4-.2-.7 0-.4.1-.8.2-1 .2-.3.4-.5.6-.6.3-.2.6-.3.9-.3.3-.1.7-.1 1-.1.4 0 .7 0 1 .1l.9.3c.3.2.5.4.6.6.2.3.3.6.3 1h-1.7c0-.3-.2-.6-.4-.7-.2-.1-.5-.2-.8-.2h-.3c-.1 0-.2 0-.3.1-.1 0-.2.1-.2.2-.1.1-.1.2-.1.3 0 .2.1.3.2.4.1.1.3.2.5.2s.4.1.6.2c.2 0 .5.1.7.2.3.1.5.1.8.2.2.1.5.2.7.3.2.1.3.3.5.5.1.2.2.5.2.8 0 .4-.1.8-.3 1.1-.2.3-.4.5-.7.7-.3.2-.6.3-.9.4-.4.1-.7.1-1.1.1-.4 0-.7 0-1.1-.1-.4-.1-.7-.2-1-.4-.3-.2-.5-.4-.7-.7-.2-.3-.3-.6-.3-1.1h1.7c.2 0 .3.2.3.3zm8.8-4.9v1.2h-1.3v3.2c0 .3.1.5.1.6.1.1.3.1.6.1h.6v1.4h-1c-.3 0-.5 0-.8-.1-.2 0-.5-.1-.6-.2-.2-.1-.3-.3-.4-.5-.1-.2-.2-.5-.2-.8v-3.8h-1.1v-1.2h1.1v-1.9h1.8v1.9h1.2zm2.8 5c.3.3.7.4 1.2.4.4 0 .7-.1.9-.3.3-.2.4-.4.5-.6h1.6c-.2.8-.6 1.3-1.1 1.7-.5.3-1.1.5-1.9.5-.5 0-1-.1-1.4-.2-.4-.2-.8-.4-1-.7-.3-.3-.5-.7-.7-1.1-.2-.4-.2-.9-.2-1.4 0-.5.1-.9.2-1.4.2-.4.4-.8.7-1.1.3-.3.6-.5 1-.7.4-.2.9-.3 1.3-.3.5 0 1 .1 1.4.3.4.2.7.5 1 .9.3.4.5.8.6 1.2.1.5.2.9.1 1.4H250c0 .7.2 1.1.5 1.4zm2-3.4c-.2-.2-.5-.3-1-.3-.3 0-.5 0-.7.1-.2.1-.3.2-.4.4-.1.1-.2.3-.2.4 0 .2-.1.3-.1.4h2.9c-.2-.5-.3-.8-.5-1zm4.9-1.6v.8c.2-.3.5-.6.8-.8.3-.2.7-.2 1.1-.2.5 0 .9.1 1.3.3.4.2.7.4.9.8.2.3.4.7.5 1.1.1.4.2.9.2 1.3s-.1.9-.2 1.2c-.1.4-.3.8-.5 1.1-.2.3-.5.6-.9.7-.4.2-.8.3-1.2.3-.4 0-.8-.1-1.1-.2-.3-.2-.6-.4-.8-.7v3.1h-1.8v-8.7h1.7zm2.3 5.2c.2-.1.4-.3.5-.5.1-.2.2-.4.3-.7.1-.2.1-.5.1-.8 0-.3 0-.5-.1-.8-.1-.2-.1-.5-.3-.7-.1-.2-.3-.4-.5-.5-.2-.1-.4-.2-.7-.2-.3 0-.5.1-.7.2-.2.1-.4.3-.5.5-.1.2-.2.4-.3.7 0 .2-.1.5-.1.8 0 .3 0 .5.1.8.1.2.1.5.3.7.1.2.3.3.5.5.2.1.4.2.7.2.3-.1.5-.1.7-.2zm5.7-.6v1.9h-2v-1.9h2z"/></svg>