<svg xmlns="http://www.w3.org/2000/svg" viewBox="0 0 300 50"><path d="M16 9.8c.4 0 .8.1 1.1.2.3.1.6.3.8.5.2.2.4.5.5.8.1.3.2.6.2 1 0 .5-.1 1-.3 1.4s-.6.7-1.1.9l.6.3c.2.1.3.3.4.5.1.2.2.4.2.6s.1.5.1.7v1.1c0 .2.1.4.1.6s.1.3.2.5h-2c-.1-.3-.2-.6-.2-1s-.1-.8-.1-1.1c-.1-.5-.2-.8-.4-1-.2-.2-.6-.3-1.1-.3h-2V19h-2V9.8h5zm-.7 4c.4 0 .8-.1 1-.3.2-.2.3-.5.3-1 0-.4-.1-.7-.3-.9-.2-.2-.6-.3-1-.3h-2.1v2.5h2.1zM21.9 17.1c.3.3.6.4 1.1.4.4 0 .7-.1.9-.3s.4-.4.5-.6H26c-.2.8-.6 1.3-1.1 1.7-.5.3-1.1.5-1.9.5-.5 0-1-.1-1.4-.2-.4-.2-.8-.4-1-.7-.3-.3-.5-.7-.7-1.1-.2-.4-.2-.9-.2-1.4 0-.5.1-.9.2-1.4.2-.4.4-.8.7-1.1s.6-.5 1-.7c.4-.2.9-.3 1.3-.3.5 0 1 .1 1.4.3.4.2.7.5 1 .9.3.4.5.8.6 1.2.1.5.2.9.1 1.4h-4.7c.2.8.4 1.2.6 1.4zm2-3.4c-.2-.2-.5-.3-1-.3-.3 0-.5 0-.7.1s-.3.2-.5.4c-.1.1-.2.3-.2.4 0 .2-.1.3-.1.4h2.9c0-.4-.2-.7-.4-1zM27.1 14.2c0-.4.1-.8.3-1 .2-.3.4-.5.7-.7.3-.2.6-.3 1-.4.4-.1.7-.1 1.1-.1.3 0 .7 0 1 .1.3 0 .6.1.9.3s.5.3.7.6c.2.2.3.6.3.9v4.2c0 .3.1.5.2.6h-1.8c0-.1-.1-.2-.1-.3v-.3c-.3.3-.6.5-1 .6-.4.1-.8.2-1.2.2-.3 0-.6 0-.9-.1-.3-.1-.5-.2-.7-.3-.2-.2-.4-.4-.5-.6-.1-.2-.2-.5-.2-.9s.1-.7.2-.9c.1-.2.3-.4.5-.6s.4-.2.7-.3c.3-.1.5-.1.8-.2.3 0 .5-.1.8-.1.3 0 .5-.1.7-.1s.4-.1.5-.2.2-.2.2-.4 0-.3-.1-.5-.1-.2-.2-.3c-.1-.1-.2-.1-.4-.1h-.4c-.3 0-.6.1-.8.2-.2.1-.3.4-.4.8h-1.9zm4.1 1.3c-.1.1-.2.1-.3.2-.1 0-.2.1-.4.1s-.3 0-.4.1c-.1 0-.3 0-.4.1-.1 0-.3.1-.4.1-.1 0-.2.1-.3.2s-.2.2-.2.3c-.1.1-.1.2-.1.4s0 .3.1.4c.1.1.1.2.2.3s.2.1.4.1h.4c.3 0 .6-.1.8-.2.2-.1.3-.3.4-.4.1-.2.1-.3.2-.5V15.5zM39 17.9c-.2.4-.5.6-.8.8-.3.2-.7.2-1.1.2-.5 0-.9-.1-1.3-.3s-.7-.4-.9-.8c-.2-.3-.4-.7-.5-1.1-.1-.4-.2-.9-.2-1.3s.1-.9.2-1.3.3-.8.5-1.1c.2-.3.5-.6.9-.7.4-.2.8-.3 1.2-.3.4 0 .7.1 1.1.2.3.2.6.4.8.7V9.8h1.8v8.9H39v-.8zm-.1-3.2c0-.2-.1-.5-.3-.7l-.5-.5c-.2-.2-.4-.2-.7-.2-.3 0-.5.1-.7.2s-.4.3-.5.5c-.1.2-.2.4-.3.7-.1.2-.1.5-.1.8 0 .2 0 .5.1.8.1.2.2.5.3.7.1.2.3.4.5.5.2.1.4.2.7.2.3 0 .5-.1.7-.2s.4-.3.5-.5.2-.4.2-.7.1-.5.1-.8v-.8zM42.1 14.3v-1.9h2v1.9h-2zm2 2.5v1.9h-2v-1.9h2z"/><g><path d="M49 11.4l.4-1.6h7.5l-.4 1.6h-2.7l-1.5 7.3h-2l1.5-7.3H49zM59.4 9.8l-.7 3.2.3-.3c.1-.1.3-.2.4-.3.2-.1.4-.2.6-.2.2-.1.5-.1.8-.1 1.3 0 1.9.6 1.9 1.7v.3c0 .1 0 .2-.1.3 0 .1 0 .2-.1.3v.2l-.8 3.8H60l.8-3.8c0-.1 0-.2.1-.4v-.4c0-.2-.1-.3-.3-.5s-.4-.2-.6-.2c-.3 0-.5.1-.7.2-.2.1-.4.2-.5.4-.1.2-.3.4-.4.6-.1.2-.2.4-.2.7l-.7 3.4h-1.8l1.9-8.9h1.8zM65.4 16V16.3c0 .4.1.7.3.9.2.2.6.4 1.1.4.2 0 .3 0 .5-.1s.3-.1.4-.2l.3-.3c.1-.1.2-.2.2-.3H70c-.1.4-.3.7-.5 1-.2.3-.4.5-.7.7-.3.2-.6.3-.9.4-.4.1-.8.1-1.2.1-.4 0-.8-.1-1.2-.2-.4-.1-.7-.3-.9-.5-.2-.2-.4-.5-.6-.9-.1-.4-.2-.8-.2-1.2 0-.5.1-1 .2-1.5.2-.5.4-.9.7-1.3.3-.4.7-.7 1.1-.9.4-.2.9-.3 1.5-.3.5 0 .9.1 1.2.2.4.1.7.3.9.5.3.2.5.5.6.9.1.4.2.8.2 1.2 0 .3 0 .7-.1 1h-4.8c.1 0 .1.1.1.1zm3.1-1.7c0-.2-.1-.3-.2-.4s-.2-.2-.4-.3c-.2-.1-.4-.1-.6-.1-.2 0-.5 0-.7.1-.2.1-.4.2-.5.3l-.4.4c-.1.2-.2.3-.2.5h3v-.5zM73.6 12.2l-.3 1.2c.2-.5.5-.8.9-1 .4-.2.8-.3 1.3-.3h.5l-.4 1.7c-.1 0-.2 0-.4-.1h-.4c-.3 0-.6.1-.9.2-.2.1-.4.3-.6.5-.2.2-.3.4-.4.7-.1.3-.2.5-.2.8l-.6 2.9h-1.8l1.3-6.5h2zM77.2 16V16.3c0 .4.1.7.3.9.2.2.6.4 1.1.4.2 0 .3 0 .5-.1s.3-.1.4-.2l.3-.3c.1-.1.2-.2.2-.3h1.8c-.1.4-.3.7-.5 1-.2.3-.4.5-.7.7-.3.2-.6.3-.9.4-.4.1-.8.1-1.2.1-.4 0-.8-.1-1.2-.2-.4-.1-.7-.3-.9-.5-.2-.2-.4-.5-.6-.9-.1-.4-.2-.8-.2-1.2 0-.5.1-1 .2-1.5.2-.5.4-.9.7-1.3.3-.4.7-.7 1.1-.9.4-.2.9-.3 1.5-.3.5 0 .9.1 1.2.2.4.1.7.3.9.5.3.2.5.5.6.9.1.4.2.8.2 1.2 0 .3 0 .7-.1 1h-4.8c.1 0 .1.1.1.1zm3.1-1.7c0-.2-.1-.3-.2-.4s-.2-.2-.4-.3c-.2-.1-.4-.1-.6-.1-.2 0-.5 0-.7.1-.2.1-.4.2-.5.3l-.4.4c-.1.2-.2.3-.2.5h3c.1-.2.1-.4 0-.5zM86.3 9.8l-.4 1.9c-.1.3-.1.5-.2.8-.1.2-.3.5-.4.6-.2.2-.4.3-.7.4-.3.1-.6.2-1 .2l.2-.9c.4-.1.6-.2.8-.4.2-.2.3-.5.3-.8H84l.4-1.9h1.9zM89.3 13.5c-.2-.2-.4-.2-.8-.2-.3 0-.6 0-.8.1s-.3.3-.3.5c0 .1.1.3.2.4.1.1.3.2.6.3l.9.3c.2.1.5.2.7.3.2.1.4.2.5.4s.3.3.4.5c.1.2.1.4.1.7 0 .4-.1.7-.3 1-.2.3-.4.5-.7.7-.3.2-.6.3-1 .4-.4.1-.7.1-1.1.1-.3 0-.6 0-1-.1l-.9-.3c-.3-.2-.5-.4-.6-.6-.2-.3-.2-.6-.2-1v-.3h1.6v.2c0 .2 0 .3.1.4l.3.3c.1.1.3.1.4.2.2 0 .3.1.5.1h.4c.1 0 .3-.1.4-.1.1-.1.2-.1.3-.2v-.7c0-.2-.1-.4-.2-.5-.1-.1-.3-.2-.5-.2l-1.3-.5c-.2-.1-.4-.2-.6-.2-.2-.1-.3-.2-.4-.3-.1-.1-.2-.3-.3-.5s-.1-.4-.1-.6c0-.4.1-.7.3-1s.4-.5.7-.6.6-.3.9-.4.7-.1 1-.1c.4 0 .7 0 1 .1l.9.3.6.6c.1.3.2.6.2 1h-1.6c-.1-.2-.2-.4-.3-.5zM98.9 9.8l2.4 6.3 1.3-6.3h1.8l-1.9 8.9h-2L98 12.4l-1.3 6.3H95l1.9-8.9h2zM104.7 14.5c.2-.5.4-.9.7-1.3.3-.4.7-.7 1.2-.9.5-.2 1-.3 1.5-.3.4 0 .8.1 1.2.2s.7.3 1 .5c.3.2.5.5.6.9.1.3.2.7.2 1.2 0 .6-.1 1.1-.3 1.6s-.4.9-.7 1.3c-.3.4-.7.7-1.2.9-.5.2-1 .3-1.6.3-.9 0-1.6-.2-2.2-.7s-.8-1.2-.8-2.1c.2-.6.2-1.1.4-1.6zm1.6 2.1c.1.2.1.3.2.5.1.1.2.2.4.3s.3.1.5.1c.3 0 .6-.1.9-.3s.4-.4.6-.7c.2-.3.3-.6.3-.9.1-.3.1-.6.1-.9 0-.4-.1-.8-.3-1s-.5-.4-1-.4c-.3 0-.6.1-.8.3-.2.2-.4.4-.6.7s-.3.6-.3.9c-.1.3-.1.6-.1.9 0 .2.1.3.1.5zM120.8 9.8c.4 0 .9 0 1.2.1.4.1.7.2.9.3s.4.4.6.6c.1.3.2.6.2 1 0 .2 0 .5-.1.7-.1.2-.2.5-.3.6-.1.2-.3.3-.5.5-.2.1-.4.2-.7.2.4.1.8.3 1 .7.2.3.3.7.3 1.1 0 .5-.1.9-.3 1.3s-.4.7-.8.9-.7.4-1.1.5-.8.2-1.3.2h-4.8l1.9-8.9h3.8zm-1 7.4c.5 0 .8-.1 1.1-.4.3-.2.4-.6.4-1.1 0-.2 0-.4-.1-.6-.1-.1-.2-.2-.4-.3s-.3-.1-.5-.1h-2.4l-.5 2.5h2.4zm.6-3.8c.4 0 .7-.1.9-.3.3-.2.4-.5.4-.9s-.1-.6-.3-.7c-.2-.1-.4-.2-.8-.2h-2.1l-.4 2.1h2.3zM126.1 16V16.3c0 .4.1.7.3.9.2.2.6.4 1.1.4.2 0 .3 0 .5-.1s.3-.1.4-.2l.3-.3c.1-.1.2-.2.2-.3h1.8c-.1.4-.3.7-.5 1-.2.3-.4.5-.7.7-.3.2-.6.3-.9.4-.4.1-.8.1-1.2.1-.4 0-.8-.1-1.2-.2-.4-.1-.7-.3-.9-.5-.2-.2-.4-.5-.6-.9-.1-.4-.2-.8-.2-1.2 0-.5.1-1 .2-1.5.2-.5.4-.9.7-1.3.3-.4.7-.7 1.1-.9.4-.2.9-.3 1.5-.3.5 0 .9.1 1.2.2.4.1.7.3.9.5.3.2.5.5.6.9.1.4.2.8.2 1.2 0 .3 0 .7-.1 1H126c.1 0 .1.1.1.1zm3.1-1.7c0-.2-.1-.3-.2-.4s-.2-.2-.4-.3c-.2-.1-.4-.1-.6-.1-.2 0-.5 0-.7.1-.2.1-.4.2-.5.3l-.4.4c-.1.2-.2.3-.2.5h3v-.5zM136.2 12.2l-.3 1.2h-1.3l-.7 3.2V16.9c0 .1 0 .2.1.3l.1.1c.1 0 .1.1.2.1h.8l-.3 1.4h-1.1c-.2 0-.4 0-.6-.1-.2 0-.4-.1-.5-.2s-.3-.2-.4-.4c-.1-.2-.1-.4-.1-.7v-.3c0-.1 0-.2.1-.3l.7-3.5h-1.2l.3-1.2h1.1l.4-2h1.8l-.4 2h1.3zM140.8 12.2l-.3 1.2h-1.3l-.7 3.2V16.9c0 .1 0 .2.1.3l.1.1c.1 0 .1.1.2.1h.8l-.3 1.4h-1.1c-.2 0-.4 0-.6-.1-.2 0-.4-.1-.5-.2s-.3-.2-.4-.4c-.1-.2-.1-.4-.1-.7v-.3c0-.1 0-.2.1-.3l.7-3.5h-1.2l.3-1.2h1.1l.4-2h1.8l-.4 2h1.3zM142.5 16V16.3c0 .4.1.7.3.9.2.2.6.4 1.1.4.2 0 .3 0 .5-.1s.3-.1.4-.2l.3-.3c.1-.1.2-.2.2-.3h1.8c-.1.4-.3.7-.5 1-.2.3-.4.5-.7.7s-.6.3-.9.4c-.4.1-.8.1-1.2.1-.4 0-.8-.1-1.2-.2-.4-.1-.7-.3-.9-.5-.2-.2-.4-.5-.6-.9-.1-.4-.2-.8-.2-1.2 0-.5.1-1 .2-1.5.2-.5.4-.9.7-1.3.3-.4.7-.7 1.1-.9.4-.2.9-.3 1.5-.3.5 0 .9.1 1.2.2.4.1.7.3 1 .5.3.2.5.5.6.9.1.4.2.8.2 1.2 0 .3 0 .7-.1 1h-4.8v.1zm3.1-1.7c0-.2-.1-.3-.2-.4s-.2-.2-.4-.3c-.2-.1-.4-.1-.6-.1-.2 0-.5 0-.7.1-.2.1-.4.2-.5.3l-.4.4c-.1.2-.2.3-.2.5h3c.1-.2 0-.4 0-.5zM150.7 12.2l-.3 1.2c.2-.5.5-.8.9-1 .4-.2.8-.3 1.3-.3h.5l-.4 1.7c-.1 0-.2 0-.4-.1h-.4c-.3 0-.6.1-.9.2-.2.1-.4.3-.6.5-.2.2-.3.4-.4.7-.1.3-.2.5-.2.8l-.6 2.9h-1.8l1.3-6.5h2zM156.9 11.4l.4-1.6h7.4l-.3 1.6h-2.7l-1.5 7.3h-2l1.5-7.3h-2.8zM166.8 12.2l-1.4 6.5h-1.8l1.4-6.5h1.8zm-1.6-1l.3-1.5h1.8l-.3 1.5h-1.8zM170 12.2l-.2.9c.3-.4.6-.7 1-.8.4-.2.8-.3 1.3-.3.4 0 .7.1 1 .3s.5.5.5.9c.1-.2.2-.3.4-.5.2-.1.3-.3.5-.4.2-.1.4-.2.6-.2.2-.1.4-.1.6-.1.2 0 .5 0 .7.1l.6.3c.2.1.3.3.4.5.1.2.2.5.2.7 0 .2 0 .4-.1.6 0 .2-.1.4-.1.6l-.8 3.8H175l.8-4.1c0-.2.1-.3.1-.5s-.1-.4-.2-.5c-.1-.1-.3-.2-.6-.2-.2 0-.4.1-.6.2-.2.1-.4.3-.5.4-.1.2-.3.4-.3.6-.1.2-.2.4-.2.6l-.7 3.5H171l.8-4.1V14c0-.2-.1-.4-.2-.5-.1-.1-.3-.2-.6-.2-.2 0-.4.1-.6.2-.2.1-.3.3-.5.4s-.3.4-.3.6c-.1.2-.2.4-.2.6l-.7 3.5h-1.8l1.3-6.5h1.8zM180.2 16V16.3c0 .4.1.7.3.9.2.2.6.4 1.1.4.2 0 .3 0 .5-.1s.3-.1.4-.2l.3-.3c.1-.1.2-.2.2-.3h1.8c-.1.4-.3.7-.5 1-.2.3-.4.5-.7.7s-.6.3-.9.4c-.4.1-.8.1-1.2.1-.4 0-.8-.1-1.2-.2-.4-.1-.7-.3-.9-.5-.2-.2-.4-.5-.6-.9-.1-.4-.2-.8-.2-1.2 0-.5.1-1 .2-1.5.2-.5.4-.9.7-1.3.3-.4.7-.7 1.1-.9.4-.2.9-.3 1.5-.3.5 0 .9.1 1.2.2.4.1.7.3 1 .5.3.2.5.5.6.9.1.4.2.8.2 1.2 0 .3 0 .7-.1 1h-4.8v.1zm3.1-1.7c0-.2-.1-.3-.2-.4-.1-.1-.2-.2-.4-.3s-.4-.1-.6-.1c-.2 0-.5 0-.7.1s-.4.2-.5.3l-.4.4c-.1.2-.2.3-.2.5h3c.1-.2.1-.4 0-.5z"/></g><g><path d="M15.1 24.7l-.3 1.2h-1.3l-.7 3.2V29.4c0 .1 0 .2.1.3l.1.1c.1 0 .1.1.2.1h.8l-.3 1.4h-1.1c-.2 0-.4 0-.6-.1s-.4-.1-.5-.2-.3-.2-.4-.4-.2-.4-.1-.6v-.3c0-.1 0-.2.1-.3l.7-3.5h-1.2l.3-1.2H12l.4-2h1.8l-.4 2h1.3zM15.3 27c.2-.5.4-.9.7-1.3.3-.4.7-.7 1.2-.9.5-.2 1-.3 1.5-.3.4 0 .8.1 1.2.2s.7.3 1 .5c.3.2.5.5.6.9.1.3.2.7.2 1.2 0 .6-.1 1.1-.3 1.6-.2.5-.4.9-.7 1.3-.3.4-.7.7-1.2.9-.5.2-1 .3-1.6.3-.9 0-1.6-.2-2.2-.7-.5-.5-.8-1.2-.8-2.1.2-.6.3-1.1.4-1.6zm1.6 2.1c.1.2.1.3.2.5.1.1.2.2.4.3s.3.1.5.1c.3 0 .6-.1.9-.3.2-.2.4-.4.6-.7.2-.3.3-.6.3-.9.1-.3.1-.6.1-.9 0-.4-.1-.8-.3-1-.2-.3-.5-.4-1-.4-.3 0-.6.1-.8.3-.2.2-.4.4-.6.7s-.2.6-.2.9c-.1.3-.1.6-.1.9-.1.2 0 .3 0 .5zM31.4 22.3c.4 0 .9 0 1.2.1.4.1.7.2.9.3s.4.4.6.6c.1.3.2.6.2 1 0 .2 0 .5-.1.7-.1.2-.2.5-.3.6-.1.2-.3.3-.5.5-.2.1-.4.2-.7.2.4.1.8.3 1 .7.2.3.3.7.3 1.1 0 .5-.1.9-.3 1.3-.2.4-.4.7-.8.9-.3.2-.7.4-1.1.5s-.8.2-1.3.2h-4.8l1.9-8.9h3.8zm-.9 7.4c.5 0 .8-.1 1.1-.4.3-.2.4-.6.4-1.1 0-.2 0-.4-.1-.6-.1-.1-.2-.2-.4-.3-.1-.1-.3-.1-.5-.1h-2.4l-.6 2.5h2.5zm.5-3.8c.4 0 .7-.1.9-.3.3-.2.4-.5.4-.9s-.1-.6-.3-.7c-.2-.1-.4-.2-.8-.2h-2.1l-.4 2.1H31zM39.1 31.2l.2-.9c-.6.7-1.3 1-2.3 1-1.3 0-1.9-.6-1.9-1.7v-.3-.3c0-.1 0-.2.1-.3s0-.2.1-.2l.8-3.8h1.8l-.8 3.8v.8c0 .2.1.4.3.5s.4.2.6.2c.3 0 .5-.1.7-.2s.4-.2.5-.4.3-.4.4-.6c.1-.2.2-.4.2-.7l.7-3.4h1.8l-1.4 6.5h-1.8zM44.7 32.8c-.2.2-.3.3-.5.4-.2.1-.4.2-.7.2-.2 0-.5.1-.9.1h-1l.3-1.5h.8c.2 0 .4 0 .5-.1s.2-.1.3-.2c.1-.1.1-.2.2-.3s.1-.2.2-.3l-1.1-6.4h1.8l.6 4.6 2.2-4.6h1.9l-4.1 7.4c-.2.3-.3.5-.5.7zM56.3 22.3l-1.5 7.3H59l-.4 1.6h-6.3l1.9-8.9h2.1zM62.6 24.7l-1.4 6.5h-1.8l1.4-6.5h1.8zm-1.5-1l.3-1.5h1.8l-.3 1.5h-1.8zM63.1 25.9l.2-1.2h1.1c.1-.4.2-.8.3-1.1.1-.3.2-.6.4-.8.2-.2.4-.4.7-.5s.7-.2 1.1-.2h.6c.2 0 .4 0 .6.1l-.3 1.3h-.6c-.2 0-.4 0-.5.1s-.2.1-.3.2c-.1.1-.1.2-.1.4 0 .1-.1.3-.1.5h1.3l-.2 1.2H66l-1.1 5.3h-1.8l1.1-5.3h-1.1zM69.1 28.5V28.8c0 .4.1.7.3.9.2.2.6.4 1.1.4.2 0 .3 0 .5-.1.1-.1.3-.1.4-.2l.3-.3c.1-.1.2-.2.2-.3h1.8c-.1.4-.3.7-.5 1-.2.3-.4.5-.7.7-.3.2-.6.3-.9.4-.4.1-.8.1-1.2.1-.4 0-.8-.1-1.2-.2-.4-.1-.7-.3-.9-.5-.2-.2-.4-.5-.6-.9-.1-.3-.2-.8-.2-1.2 0-.5.1-1 .2-1.5.2-.5.4-.9.7-1.3.3-.4.7-.7 1.1-.9.4-.2.9-.3 1.5-.3.5 0 .9.1 1.2.2.4.1.7.3.9.5.3.2.5.5.6.9.1.4.2.8.2 1.2 0 .3 0 .7-.1 1H69c.1 0 .1.1.1.1zm3.1-1.7c0-.2-.1-.3-.2-.4-.1-.1-.2-.2-.4-.3-.2-.1-.4-.1-.6-.1-.2 0-.5 0-.7.1-.2.1-.4.2-.5.3l-.4.4c-.1.2-.2.3-.2.5h3c.1-.2 0-.4 0-.5zM81.7 22.3l-1.9 8.9h-2l1.9-8.9h2zM84.5 24.7l-.2.9c.6-.7 1.3-1.1 2.3-1.1 1.3 0 1.9.6 1.9 1.7v.3c0 .1 0 .2-.1.3 0 .1 0 .2-.1.3v.2l-.8 3.8h-1.8l.8-3.8c0-.1 0-.2.1-.4v-.4c0-.2-.1-.3-.3-.5s-.4-.2-.6-.2c-.3 0-.5.1-.7.2s-.4.2-.5.4-.3.4-.4.6c-.1.2-.2.4-.2.7l-.7 3.4h-1.8l1.3-6.5h1.8zM93.4 26c-.2-.2-.4-.2-.8-.2-.3 0-.6 0-.8.1s-.3.3-.3.5c0 .1.1.3.2.4.1.1.3.2.6.3l.9.3c.2.1.5.2.7.3s.4.2.5.4c.2.1.3.3.4.5.1.2.1.4.1.7 0 .4-.1.7-.3 1s-.4.5-.7.7c-.3.2-.6.3-1 .4-.4.1-.7.1-1.1.1-.3 0-.6 0-1-.1l-.9-.3c-.3-.2-.5-.4-.6-.6s-.2-.6-.2-1v-.3h1.6v.2c0 .2 0 .3.1.4l.3.3c.1.1.3.1.4.2.2 0 .3.1.5.1h.4c.1 0 .3-.1.4-.1.1-.1.2-.1.3-.2.1-.1.1-.2.1-.4s-.1-.4-.2-.5c-.1-.1-.3-.2-.5-.2l-1.4-.4c-.2-.1-.4-.2-.6-.2s-.3-.2-.4-.3c-.1-.1-.2-.3-.3-.5s-.1-.4-.1-.6c0-.4.1-.7.3-1s.4-.5.7-.6.6-.3.9-.4.7-.1 1-.1c.4 0 .7 0 1 .1l.9.3.6.6c.1.3.2.6.2 1h-1.6c-.1-.6-.1-.8-.3-.9zM100 31.2l.2-.9c-.6.7-1.3 1.1-2.3 1.1-1.3 0-1.9-.6-1.9-1.7v-.3-.3c0-.1 0-.2.1-.3s0-.2.1-.2l.8-3.8h1.8l-.8 3.7v.8c0 .2.1.4.3.5s.4.2.6.2c.3 0 .5-.1.7-.2s.4-.2.5-.4.3-.4.4-.6c.1-.2.2-.4.2-.7l.7-3.4h1.8l-1.4 6.5H100zM106.3 24.7l-.3 1.2c.2-.5.5-.8.9-1 .4-.2.8-.3 1.3-.3h.5l-.4 1.7c-.1 0-.2 0-.4-.1h-.4c-.3 0-.6.1-.9.2-.2.1-.4.3-.6.5-.2.2-.3.4-.4.7-.1.3-.2.5-.2.8l-.6 2.9H103l1.3-6.5h2zM109.4 25.7c.2-.3.4-.5.7-.7.3-.2.6-.3.9-.4s.7-.1 1.1-.1c.3 0 .6 0 .9.1.3 0 .6.1.9.2.3.1.5.3.7.5.2.2.3.5.2.9 0 .3 0 .7-.1 1.1l-.6 2.6c0 .1-.1.3-.1.4v.4c0 .1 0 .2.1.4h-1.8v-.6c-.2.3-.5.5-.9.6s-.7.2-1.1.2c-.4 0-.7 0-.9-.1s-.5-.2-.7-.4-.3-.3-.4-.5c-.1-.2-.1-.4-.1-.6 0-.6.2-1.1.6-1.5s1-.6 1.8-.7c.4 0 .8-.1 1.1-.1.3 0 .6-.1.8-.1.2-.1.4-.1.5-.2.1-.1.1-.3.1-.5s0-.3-.1-.4c-.1-.1-.2-.2-.3-.2-.1-.1-.2-.1-.4-.1h-.4c-.3 0-.6.1-.9.2s-.4.4-.5.7H109c.1-.5.2-.9.4-1.1zm2.6 2.6c-.3 0-.5.1-.8.1-.2 0-.3 0-.5.1-.2 0-.3.1-.4.2l-.3.3c-.1.1-.1.3-.1.5s.1.4.3.5c.2.1.4.2.7.2.3 0 .5 0 .7-.1s.3-.2.5-.3c.1-.1.2-.3.3-.5.1-.2.1-.3.2-.5l.2-.6c-.3 0-.5.1-.8.1zM118.3 24.7l-.2.9c.6-.7 1.3-1.1 2.3-1.1 1.3 0 1.9.6 1.9 1.7v.3c0 .1 0 .2-.1.3 0 .1 0 .2-.1.3v.2l-.8 3.8h-1.8l.8-3.8c0-.1 0-.2.1-.4v-.4c0-.2-.1-.3-.3-.5s-.4-.2-.6-.2c-.3 0-.5.1-.7.2s-.4.2-.5.4-.3.4-.4.6c-.1.2-.2.4-.2.7l-.7 3.4h-1.8l1.3-6.5h1.8zM127.7 26.1c-.2-.2-.5-.2-.9-.2-.3 0-.6.1-.9.3-.2.2-.4.4-.6.7l-.3.9c-.1.3-.1.6-.1.9 0 .2 0 .4.1.5s.1.3.2.4c.1.1.2.2.4.3.2.1.3.1.6.1.2 0 .4 0 .5-.1.2-.1.3-.2.4-.3.1-.1.2-.2.3-.4.1-.1.1-.3.2-.5h1.8c-.3.8-.7 1.4-1.2 1.9-.6.4-1.3.7-2.1.7-.9 0-1.6-.2-2.1-.7-.5-.4-.8-1.1-.8-2.1 0-.5.1-1.1.2-1.6s.4-.9.7-1.3c.3-.4.7-.7 1.1-.9.4-.2 1-.3 1.5-.3.4 0 .8 0 1.1.1.3.1.7.2.9.4.3.2.5.4.6.8.2.3.2.7.2 1.1H128c0-.2-.1-.5-.3-.7zM131.8 28.5V28.8c0 .4.1.7.3.9.2.2.6.4 1.1.4.2 0 .3 0 .5-.1.1-.1.3-.1.4-.2l.3-.3c.1-.1.2-.2.2-.3h1.8c-.1.4-.3.7-.5 1-.2.3-.4.5-.7.7-.3.2-.6.3-.9.4-.4.1-.8.1-1.2.1-.4 0-.8-.1-1.2-.2-.4-.1-.7-.3-.9-.5-.2-.2-.4-.5-.6-.9-.1-.3-.2-.8-.2-1.2 0-.5.1-1 .2-1.5.2-.5.4-.9.7-1.3.3-.4.7-.7 1.1-.9.4-.2.9-.3 1.5-.3.5 0 .9.1 1.2.2.4.1.7.3.9.5.3.2.5.5.6.9.1.4.2.8.2 1.2 0 .3 0 .7-.1 1h-4.8c.1 0 .1.1.1.1zm3.1-1.7c0-.2-.1-.3-.2-.4-.1-.1-.2-.2-.4-.3-.2-.1-.4-.1-.6-.1-.2 0-.5 0-.7.1-.2.1-.4.2-.5.3l-.4.4c-.1.2-.2.3-.2.5h3c.1-.2.1-.4 0-.5zM139.5 29.3l-.4 1.9h-2l.4-1.9h2zm-.4-.8h-.9l.3-3.8.5-2.4h1.9l-.5 2.4-1.3 3.8z"/></g></svg>