<svg id="Layer_1" xmlns="http://www.w3.org/2000/svg" xmlns:xlink="http://www.w3.org/1999/xlink" viewBox="0 0 300 50"><style>.st0{clip-path:url(#SVGID_00000154396223583463551960000013065467210429044878_);fill:#349946}.st1{fill:#fff}</style><defs><path id="SVGID_1_" d="M201.3 5.7h68.6v14.5h-68.6z"/></defs><clipPath id="SVGID_00000090978063319267434920000015599622277173358776_"><use xlink:href="#SVGID_1_" overflow="visible"/></clipPath><path d="M269.9 13c0 4-3.7 7.2-8.3 7.2h-52c-4.6 0-8.3-3.3-8.3-7.2s3.7-7.2 8.3-7.2h52c4.6-.1 8.3 3.2 8.3 7.2" clip-path="url(#SVGID_00000090978063319267434920000015599622277173358776_)" fill="#349946"/><g><path class="st1" d="M214.8 10.8c.2 0 .4 0 .6.1s.3.2.4.3c.1.1.2.3.3.4s.1.3.1.5c0 .3-.1.5-.2.7s-.3.3-.6.5c.1 0 .2.1.3.2.1.1.1.2.2.3.1.1.1.2.1.3V15c0 .1 0 .2.1.3 0 .1.1.2.1.2h-1c-.1-.1-.1-.3-.1-.5s0-.4-.1-.6c0-.2-.1-.4-.2-.5-.1-.1-.3-.2-.5-.2h-1v1.8h-1v-4.6h2.5zm-.4 2.1c.2 0 .4-.1.5-.2s.2-.3.2-.5-.1-.4-.2-.5-.3-.2-.5-.2h-1.1v1.3h1.1zM220.4 10.8v.9H218v1h2.2v.8H218v1.1h2.5v.9H217v-4.6h3.4zM223.4 10.8l1.7 4.6H224l-.3-1H222l-.4 1h-1l1.7-4.6h1.1zm.1 2.8l-.6-1.7-.6 1.7h1.2zM227.5 10.8c.3 0 .6 0 .8.1s.5.2.7.4c.2.2.3.4.4.7.1.3.2.6.2 1 0 .3 0 .6-.1.9-.1.3-.2.5-.4.7-.2.2-.4.4-.7.5s-.6.2-.9.2h-2v-4.6h2zm0 3.8c.1 0 .3 0 .4-.1.1 0 .3-.1.4-.2s.2-.3.3-.4c.1-.2.1-.4.1-.6 0-.2 0-.4-.1-.6 0-.2-.1-.3-.2-.5-.1-.1-.2-.2-.4-.3-.2-.1-.4-.1-.6-.1h-.7v2.9h.8zM234.4 10.8l1.7 4.6H235l-.3-1H233l-.4 1h-1l1.7-4.6h1.1zm.1 2.8l-.6-1.7-.6 1.7h1.2zM239.1 10.8c.2 0 .4 0 .6.1s.3.2.4.3c.1.1.2.3.3.4s.1.3.1.5c0 .3-.1.5-.2.7s-.3.3-.6.5c.1 0 .2.1.3.2.1.1.1.2.2.3.1.1.1.2.1.3V15c0 .1 0 .2.1.3 0 .1.1.2.1.2h-1c-.1-.1-.1-.3-.1-.5s0-.4-.1-.6c0-.2-.1-.4-.2-.5-.1-.1-.3-.2-.5-.2h-1v1.8h-1v-4.6h2.5zm-.4 2.1c.2 0 .4-.1.5-.2s.2-.3.2-.5-.1-.4-.2-.5-.3-.2-.5-.2h-1.1v1.3h1.1z"/></g><g><path class="st1" d="M240.8 11.7v-.9h3.8v.9h-1.4v3.8h-1v-3.8h-1.4zM246.1 10.8v4.6h-1v-4.6h1zM249.9 12c-.1-.1-.1-.2-.2-.3-.1-.1-.2-.1-.3-.2s-.2-.1-.4-.1-.4 0-.6.1c-.2.1-.3.2-.4.4-.1.1-.2.3-.2.5s-.1.4-.1.6c0 .2 0 .4.1.6 0 .2.1.3.2.5.1.1.2.3.4.4s.4.1.6.1c.3 0 .6-.1.7-.3.2-.2.3-.4.3-.8h1c0 .3-.1.5-.2.8-.1.2-.2.4-.4.6-.2.2-.4.3-.6.4s-.5.1-.8.1c-.4 0-.7-.1-1-.2-.3-.1-.5-.3-.7-.5-.2-.2-.3-.5-.4-.8-.1-.3-.2-.6-.2-.9 0-.3.1-.7.2-1 .1-.3.3-.6.4-.8.2-.2.4-.4.7-.5.3-.1.6-.2 1-.2.3 0 .5 0 .7.1l.6.3c.2.1.3.3.4.5.1.2.2.4.2.7h-1c.1.1.1 0 0-.1zM252.8 10.8v3.8h2.2v.9h-3.3v-4.6h1.1zM259.1 10.8v.9h-2.4v1h2.2v.8h-2.2v1.1h2.5v.9h-3.5v-4.6h3.4z"/></g></svg>