<svg id="Layer_1" xmlns="http://www.w3.org/2000/svg" viewBox="0 0 300 50"><style>.st0{fill:#349946}.st1{fill:#231f20}.st2{font-family:&apos;FoundrySterling-Demi&apos;}.st3{font-size:8.4113px}.st4{fill:none}</style><path class="st0" d="M184.9 45.6h-1.3l-.4-1.2h-2.5l-.4 1.2H179l2.2-5.9h.9c.3 0 .5.1.6.3.1.2 1.1 2.9 1.1 2.9h-1.2l-.7-2-.9 2.5h2.6c.3 0 .5.1.6.4l.7 1.8zM196.1 45.6h-1.3l-.4-1.2h-2.5l-.4 1.2h-1.3l2.2-5.9h.9c.3 0 .5.1.6.3.1.2 1.1 2.9 1.1 2.9h-1.2l-.7-2-.9 2.5h2.6c.3 0 .5.1.6.4l.7 1.8zM185.3 39.7h2.3c1.8 0 2.7 1 2.7 3 0 1.1-.3 1.9-1 2.4-.6.5-1.2.5-2.1.5h-2v-5.9zm2.1 4.9c1.1 0 1.6-.6 1.6-1.9 0-1.3-.5-1.9-1.5-1.9h-1.1v3.8h1z"/><path class="st1" d="M206.1 45.6h-.9l-.4-4.2-1.4 4.2h-.8l-1.5-4.2-.3 4.2h-.9l.5-5.6h1.1l1.5 4.3 1.5-4.3h1.1l.5 5.6zM210.7 43.5V43.8h-2.8c0 .3.1.5.3.8.2.3.5.4.9.4.3 0 .7-.1 1.1-.3l.3.6c-.4.3-.9.4-1.5.4s-1.1-.2-1.5-.6c-.3-.4-.5-.9-.5-1.5s.2-1.2.5-1.6c.4-.4.8-.6 1.4-.6.6 0 1 .2 1.3.6.4.3.5.8.5 1.5zm-.9-.4c0-.3-.1-.5-.2-.7-.2-.3-.4-.4-.7-.4-.3 0-.5.1-.7.3-.2.2-.3.4-.3.8h1.9zM217.4 45.6h-.9v-2.3c0-.5-.1-.8-.2-.9-.1-.1-.3-.2-.5-.2-.3 0-.6.1-.9.3 0 .1.1.4.1.9v2.2h-.9v-2.3c0-.5-.1-.9-.2-1-.1-.1-.3-.2-.5-.2-.3 0-.6.1-.9.3v3.1h-.9v-4.1h.8v.3c.4-.3.8-.4 1.2-.4.4 0 .8.2 1 .5.5-.3.9-.5 1.4-.5.4 0 .8.1 1 .4.2.2.3.5.4.8 0 .2.1.5.1 1v2.1zM222.2 43.4c0 .7-.2 1.2-.6 1.6s-.9.6-1.6.6c-.5 0-1-.1-1.6-.3v-5.9h.9v2.2c.3-.2.7-.3 1.1-.3.5 0 .9.2 1.3.6.4.4.5.9.5 1.5zm-.9 0c0-.4-.1-.7-.3-1-.2-.2-.4-.3-.7-.3-.3 0-.6.1-.9.3v2.4c.2.1.5.1.7.1.4 0 .7-.1.9-.4.2-.2.3-.6.3-1.1zM226.6 43.5V43.8h-2.8c0 .3.1.5.3.8.2.3.5.4.9.4.3 0 .7-.1 1.1-.3l.3.6c-.4.3-.9.4-1.5.4s-1.1-.2-1.5-.6c-.3-.4-.5-.9-.5-1.5s.2-1.2.5-1.6c.4-.4.8-.6 1.4-.6.6 0 1 .2 1.3.6.4.3.5.8.5 1.5zm-.9-.4c0-.3-.1-.5-.2-.7-.2-.3-.4-.4-.7-.4-.3 0-.5.1-.7.3-.2.2-.3.4-.3.8h1.9zM230.1 41.5l-.2.7h-.3c-.5 0-.9.2-1.2.6v2.8h-.9v-4.1h.8v.5c.1-.1.2-.2.4-.3.3-.2.6-.3 1-.3.1 0 .3 0 .4.1z"/><text transform="translate(230.17 45.582)" class="st1 st2 st3">s Insur</text><g><path class="st1" d="M257.6 45.6h-.8v-.3c-.4.3-.8.4-1.2.4-.4 0-.7-.1-1-.4s-.4-.6-.4-.9c0-1 .8-1.4 2.3-1.4h.2v-.2c0-.3 0-.4-.1-.5-.1-.1-.3-.2-.7-.2-.4 0-.7.1-1.1.3l-.3-.6c.1-.1.2-.2.4-.2.3-.1.7-.2 1.1-.2.6 0 1 .1 1.3.4.1.1.2.3.3.5v3.3zm-.9-.9v-1.1h-.2c-.6 0-1.1.1-1.3.3-.1.1-.2.2-.2.4s.1.4.2.5c.1.1.3.2.5.2.4 0 .7-.1 1-.3zM262.1 45.6h-.9v-2.2c0-.5-.1-.9-.2-1-.1-.1-.3-.2-.5-.2-.3 0-.6.1-.9.3v3.1h-.9v-4.1h.8v.3c.4-.3.8-.4 1.2-.4.4 0 .8.1 1 .4.2.2.3.4.4.7V45.6zM266.5 45.2c-.1.1-.2.2-.4.3-.3.2-.7.2-1.1.2-.6 0-1.1-.2-1.5-.6-.4-.4-.6-.9-.6-1.5s.2-1.2.6-1.6c.4-.4.9-.6 1.5-.6.3 0 .7.1 1 .2.2.1.3.2.4.3l-.4.6c-.3-.2-.6-.3-.9-.3-.4 0-.7.1-.9.4-.2.3-.3.6-.3 1s.1.8.3 1 .5.4.9.4c.3 0 .7-.1 1-.3l.4.5z"/></g><g><path class="st1" d="M270.6 43.5V43.8h-2.8c0 .3.1.5.3.8.2.3.5.4.9.4.3 0 .7-.1 1.1-.3l.3.6c-.4.3-.9.4-1.5.4s-1.1-.2-1.5-.6c-.3-.4-.5-.9-.5-1.5s.2-1.2.5-1.6c.4-.4.8-.6 1.4-.6.6 0 1 .2 1.3.6.4.3.5.8.5 1.5zm-.9-.4c0-.3-.1-.5-.2-.7-.2-.3-.4-.4-.7-.4-.3 0-.5.1-.7.3-.2.2-.3.4-.3.8h1.9zM277.4 41.7c0 .5-.2.9-.5 1.3-.2.2-.5.4-.9.5-.2 0-.6.1-1 .1h-.4v2.1h-1V40h1.5c.5 0 .8 0 1 .1.3.1.6.2.8.4.3.3.5.7.5 1.2zm-1 0c0-.3-.1-.5-.3-.7-.2-.2-.5-.2-1-.2h-.5v1.9h.4c.6 0 1-.1 1.2-.3s.2-.4.2-.7zM279.3 45.6h-.9v-6.1h.9v6.1zM283.5 45.6h-.8v-.3c-.4.3-.8.4-1.2.4-.4 0-.7-.1-1-.4s-.4-.6-.4-.9c0-1 .8-1.4 2.3-1.4h.2v-.2c0-.3 0-.4-.1-.5-.1-.1-.3-.2-.7-.2-.4 0-.7.1-1.1.3l-.3-.6c.1-.1.2-.2.4-.2.3-.1.7-.2 1.1-.2.6 0 1 .1 1.3.4.1.1.2.3.3.5v3.3zm-.9-.9v-1.1h-.2c-.6 0-1.1.1-1.3.3-.1.1-.2.2-.2.4s.1.4.2.5c.1.1.3.2.5.2.4 0 .7-.1 1-.3zM288 45.6h-.9v-2.2c0-.5-.1-.9-.2-1-.1-.1-.3-.2-.5-.2-.3 0-.6.1-.9.3v3.1h-.9v-4.1h.8v.3c.4-.3.8-.4 1.2-.4.4 0 .8.1 1 .4.2.2.3.4.4.7V45.6zM291.8 44.4c0 .4-.1.7-.4.9-.3.2-.7.3-1.1.3-.4 0-.7-.1-1.1-.2l-.4-.2.3-.6c.4.2.8.3 1.1.3.2 0 .4 0 .5-.1.1-.1.2-.2.2-.4 0-.1-.1-.3-.2-.4-.1-.1-.3-.2-.6-.3-.3-.1-.6-.3-.7-.4-.2-.2-.4-.5-.4-.8 0-.4.1-.7.4-.9.3-.2.6-.3 1.1-.3.6 0 1 .1 1.3.4l-.3.6c-.3-.2-.6-.3-1-.3s-.7.2-.7.5c0 .1.1.2.2.3.1.1.3.1.5.3.4.2.7.3.8.4.3.3.5.5.5.9z"/></g><path class="st0" d="M196.9 45.7c-.4 0-.7-.3-.7-.7s.3-.7.7-.7c.4 0 .7.3.7.7s-.3.7-.7.7m0-1.3c-.3 0-.5.2-.5.5s.2.5.5.5.5-.2.5-.5-.2-.5-.5-.5m.2.9l-.1-.2c0-.1-.1-.1-.2-.1v.3h-.1v-.7h.2c.1 0 .2 0 .2.1 0 0 .1.1.1.2s0 .1-.1.2l.1.1.1.3h-.2zm-.1-.6h-.2v.2h.1c.1 0 .1 0 .1-.2 0 .1 0 0 0 0"/><path class="st4" d="M178.9 38.6h113v9.7h-113z"/></svg>