<svg id="Layer_1" xmlns="http://www.w3.org/2000/svg" viewBox="0 0 300 250"><style>.st0{fill:#393}.st1{fill:#373535}</style><path class="st0" d="M25.8 77c1.3 0 2.5.2 3.6.6 1.1.4 2.1 1 2.9 1.8s1.4 1.8 1.9 3.1c.5 1.2.7 2.7.7 4.3 0 1.5-.2 2.8-.6 4s-.9 2.3-1.7 3.2-1.7 1.6-2.8 2.1c-1.1.5-2.5.8-4 .8h-8.6V77h8.6zm-.3 16.3c.6 0 1.3-.1 1.8-.3.6-.2 1.1-.5 1.6-1s.8-1.1 1.1-1.9c.3-.8.4-1.7.4-2.8 0-1-.1-1.9-.3-2.7s-.5-1.5-1-2.1c-.4-.6-1-1-1.8-1.3s-1.6-.5-2.7-.5h-3.1v12.6h4zM37.8 82.9c.4-1.3 1.1-2.4 1.9-3.3s1.9-1.7 3.1-2.2c1.2-.5 2.6-.8 4.1-.8 1.5 0 2.9.3 4.1.8 1.2.5 2.2 1.3 3.1 2.2.8 1 1.5 2.1 1.9 3.3.4 1.3.7 2.7.7 4.2s-.2 2.8-.7 4.1c-.4 1.3-1.1 2.4-1.9 3.3-.8.9-1.9 1.7-3.1 2.2-1.2.5-2.6.8-4.1.8-1.5 0-2.9-.3-4.1-.8-1.2-.5-2.3-1.3-3.1-2.2-.8-.9-1.5-2-1.9-3.3-.4-1.3-.7-2.6-.7-4.1 0-1.5.2-2.9.7-4.2zm4 6.6c.2.8.5 1.5.9 2.1.4.6 1 1.1 1.7 1.5.7.4 1.5.6 2.5.6s1.8-.2 2.5-.6c.7-.4 1.3-.9 1.7-1.5s.7-1.3.9-2.1c.2-.8.3-1.6.3-2.5 0-.9-.1-1.7-.3-2.5-.2-.8-.5-1.6-.9-2.2-.4-.6-1-1.2-1.7-1.5-.7-.4-1.5-.6-2.5-.6s-1.8.2-2.5.6c-.7.4-1.3.9-1.7 1.5-.4.6-.7 1.4-.9 2.2-.2.8-.3 1.7-.3 2.5 0 .9.1 1.7.3 2.5zM64.1 77l8.3 13.4h.1V77h4.1v20h-4.4l-8.3-13.4h-.1V97h-4.1V77h4.4zM84.4 77v4.3c0 .6-.1 1.2-.3 1.7-.2.5-.5 1-.8 1.4-.4.4-.8.8-1.3 1-.5.3-1 .4-1.6.5v-1.8c.7-.2 1.2-.6 1.5-1.1.3-.5.4-1.1.4-1.8h-1.8V77h3.9zM86.7 80.7V77h16.4v3.7h-6V97h-4.4V80.7h-6zM116.7 77v7.3h.1c.5-.7 1.1-1.3 2-1.6.8-.3 1.7-.5 2.6-.5.7 0 1.4.1 2.2.4.7.3 1.3.8 1.9 1.4.6.6 1 1.4 1.4 2.4.4 1 .5 2.1.5 3.4 0 1.3-.2 2.5-.5 3.4s-.8 1.8-1.4 2.4c-.6.6-1.2 1.1-1.9 1.4-.7.3-1.4.4-2.2.4-1.1 0-2-.2-2.9-.5s-1.5-.9-1.9-1.7h-.1V97h-3.8V77h4zm6.5 11c-.1-.6-.3-1.1-.6-1.5-.3-.4-.6-.8-1-1-.4-.3-.9-.4-1.5-.4s-1.1.1-1.5.4c-.4.3-.8.6-1.1 1-.3.4-.5.9-.6 1.5-.1.6-.2 1.1-.2 1.8 0 .6.1 1.2.2 1.7.1.6.3 1.1.6 1.5.3.4.6.8 1.1 1 .4.3.9.4 1.5.4s1.1-.1 1.5-.4c.4-.3.8-.6 1-1 .3-.4.5-.9.6-1.5.1-.6.2-1.1.2-1.7 0-.7-.1-1.2-.2-1.8zM130 80.3V77h4v3.3h-4zm3.9 2.2V97h-4V82.5h4zM145 82.5v2.7h-2.9v7.2c0 .7.1 1.1.3 1.3.2.2.7.3 1.3.3h.6c.2 0 .4 0 .6-.1V97c-.3.1-.7.1-1.1.1h-1.2c-.6 0-1.2 0-1.8-.1s-1-.2-1.5-.5c-.4-.2-.8-.6-1-1-.2-.4-.4-1-.4-1.8v-8.5h-2.4v-2.7h2.4v-4.3h4v4.3h3.1zM151.2 93.5c.6.6 1.5.9 2.6.9.8 0 1.5-.2 2.1-.6.6-.4.9-.8 1.1-1.3h3.5c-.6 1.7-1.4 3-2.6 3.7-1.2.7-2.6 1.1-4.2 1.1-1.1 0-2.2-.2-3.1-.5-.9-.4-1.7-.9-2.3-1.6-.6-.7-1.1-1.5-1.5-2.4-.3-.9-.5-2-.5-3.1s.2-2.1.5-3c.4-.9.9-1.7 1.5-2.4.7-.7 1.4-1.2 2.3-1.6.9-.4 1.9-.6 3-.6 1.2 0 2.3.2 3.2.7.9.5 1.7 1.1 2.3 1.9s1 1.7 1.3 2.7c.3 1 .4 2.1.3 3.2h-10.4c0 1.4.3 2.3.9 2.9zm4.5-7.6c-.5-.5-1.2-.8-2.2-.8-.6 0-1.2.1-1.6.3-.4.2-.8.5-1 .8s-.4.7-.5 1c-.1.4-.2.7-.2 1h6.5c-.2-1-.5-1.8-1-2.3zM178.7 82.5v2.7h-2.9v7.2c0 .7.1 1.1.3 1.3.2.2.7.3 1.3.3h.6c.2 0 .4 0 .6-.1V97c-.3.1-.7.1-1.1.1h-1.2c-.6 0-1.2 0-1.8-.1s-1-.2-1.5-.5c-.4-.2-.8-.6-1-1-.2-.4-.4-1-.4-1.8v-8.5h-2.4v-2.7h2.4v-4.3h4v4.3h3.1zM184.6 77v7.5h.1c.5-.8 1.1-1.5 1.9-1.8.8-.4 1.5-.6 2.3-.6 1.1 0 1.9.1 2.6.4.7.3 1.2.7 1.6 1.2.4.5.7 1.1.8 1.9.2.7.2 1.6.2 2.5V97h-4v-8.2c0-1.2-.2-2.1-.6-2.7s-1-.9-2-.9c-1.1 0-1.9.3-2.4 1s-.7 1.7-.7 3.2V97h-4V77h4.2zM201.5 93.5c.6.6 1.5.9 2.6.9.8 0 1.5-.2 2.1-.6.6-.4.9-.8 1.1-1.3h3.5c-.6 1.7-1.4 3-2.6 3.7-1.2.7-2.6 1.1-4.2 1.1-1.1 0-2.2-.2-3.1-.5-.9-.4-1.7-.9-2.3-1.6-.6-.7-1.1-1.5-1.5-2.4-.3-.9-.5-2-.5-3.1s.2-2.1.5-3c.4-.9.9-1.7 1.5-2.4.7-.7 1.4-1.2 2.3-1.6.9-.4 1.9-.6 3-.6 1.2 0 2.3.2 3.2.7.9.5 1.7 1.1 2.3 1.9s1 1.7 1.3 2.7c.3 1 .4 2.1.3 3.2h-10.4c0 1.4.3 2.3.9 2.9zm4.5-7.6c-.5-.5-1.2-.8-2.2-.8-.6 0-1.2.1-1.6.3-.4.2-.8.5-1 .8s-.4.7-.5 1c-.1.4-.2.7-.2 1h6.5c-.2-1-.5-1.8-1-2.3zM225.1 77v7.5h.1c.5-.8 1.1-1.5 1.9-1.8.8-.4 1.5-.6 2.3-.6 1.1 0 1.9.1 2.6.4.7.3 1.2.7 1.6 1.2.4.5.7 1.1.8 1.9.2.7.2 1.6.2 2.5V97h-4v-8.2c0-1.2-.2-2.1-.6-2.7s-1-.9-2-.9c-1.1 0-1.9.3-2.4 1s-.7 1.7-.7 3.2V97h-4V77h4.2zM237.5 87c.1-.9.3-1.7.7-2.3.4-.6.9-1.1 1.6-1.5.6-.4 1.3-.6 2.1-.8.8-.2 1.6-.2 2.4-.2.7 0 1.5.1 2.2.2.7.1 1.4.3 2 .6.6.3 1.1.7 1.5 1.2.4.5.6 1.2.6 2.1v7.5c0 .7 0 1.3.1 1.9.1.6.2 1 .4 1.3h-4c-.1-.2-.1-.5-.2-.7 0-.2-.1-.5-.1-.7-.6.7-1.4 1.1-2.2 1.4s-1.7.4-2.6.4c-.7 0-1.3-.1-1.9-.3s-1.1-.4-1.6-.8-.8-.8-1-1.3c-.3-.5-.4-1.2-.4-1.9 0-.8.1-1.5.4-2 .3-.5.7-1 1.1-1.3.5-.3 1-.6 1.6-.7.6-.2 1.2-.3 1.8-.4.6-.1 1.2-.2 1.8-.2.6-.1 1.1-.1 1.5-.3.4-.1.8-.3 1.1-.5.3-.2.4-.5.4-.9s-.1-.8-.2-1c-.1-.3-.3-.4-.6-.6s-.5-.2-.8-.3c-.3 0-.6-.1-1-.1-.8 0-1.4.2-1.8.5-.4.3-.7.9-.8 1.7h-4.1zm9.2 2.9c-.2.1-.4.3-.6.4s-.5.2-.8.2c-.3.1-.6.1-.9.1s-.6.1-1 .1c-.3.1-.6.1-.9.2-.3.1-.5.2-.8.4-.2.2-.4.4-.5.6-.1.2-.2.6-.2.9 0 .4.1.7.2.9.1.2.3.4.5.6.2.1.5.2.8.3s.6.1.9.1c.8 0 1.4-.1 1.8-.4.4-.3.7-.6 1-.9.2-.4.3-.7.4-1.1 0-.4.1-.7.1-.9v-1.5zM257.6 82.5v2h.1c.5-.8 1.2-1.5 2-1.8.8-.4 1.6-.6 2.5-.6 1.1 0 1.9.1 2.6.4.7.3 1.2.7 1.6 1.2.4.5.7 1.1.8 1.9.2.7.2 1.6.2 2.5V97h-4v-8.2c0-1.2-.2-2.1-.6-2.7s-1-.9-2-.9c-1.1 0-1.9.3-2.4 1s-.7 1.7-.7 3.2V97h-4V82.5h3.9zM280.7 95.1c-.5.8-1.1 1.3-1.8 1.7s-1.6.5-2.6.5c-1.1 0-2-.2-2.9-.6s-1.5-1-2-1.7-.9-1.5-1.2-2.5c-.3-.9-.4-1.9-.4-2.9s.1-1.9.4-2.8c.3-.9.7-1.7 1.2-2.4s1.2-1.2 2-1.7c.8-.4 1.7-.6 2.8-.6.9 0 1.7.2 2.5.5.8.4 1.4.9 1.8 1.6h.1V77h4v20h-3.8l-.1-1.9zm-.2-7.1c-.1-.6-.3-1-.6-1.5s-.6-.8-1-1c-.4-.3-1-.4-1.6-.4s-1.2.1-1.7.4c-.4.3-.8.6-1.1 1-.3.4-.5.9-.6 1.5-.1.6-.2 1.1-.2 1.7 0 .6.1 1.1.2 1.7.1.6.3 1.1.6 1.5.3.4.7.8 1.1 1.1s1 .4 1.6.4c.7 0 1.2-.1 1.6-.4.4-.3.8-.6 1-1 .3-.4.4-.9.6-1.5s.2-1.1.2-1.7 0-1.3-.1-1.8z"/><g><path class="st1" d="M60.3 111.5v2.7h-2.9v7.2c0 .7.1 1.1.3 1.3.2.2.7.3 1.3.3h.6c.2 0 .4 0 .6-.1v3.1c-.3.1-.7.1-1.1.1h-1.2c-.6 0-1.2 0-1.8-.1-.6-.1-1-.2-1.5-.5s-.8-.6-1-1c-.2-.4-.4-1-.4-1.8v-8.5H51v-2.7h2.4v-4.3h4v4.3h2.9zM66.1 106v7.5h.1c.5-.8 1.1-1.5 1.9-1.8.8-.4 1.5-.6 2.3-.6 1.1 0 1.9.1 2.6.4.7.3 1.2.7 1.6 1.2.4.5.7 1.1.8 1.9.2.7.2 1.6.2 2.5v8.9h-4v-8.2c0-1.2-.2-2.1-.6-2.7-.4-.6-1-.9-2-.9-1.1 0-1.9.3-2.4 1s-.7 1.7-.7 3.2v7.6h-4v-20h4.2zM78.6 116c.1-.9.3-1.7.7-2.3.4-.6.9-1.1 1.6-1.5.6-.4 1.3-.6 2.1-.8s1.6-.2 2.4-.2c.7 0 1.5.1 2.2.2s1.4.3 2 .6c.6.3 1.1.7 1.5 1.2.4.5.6 1.2.6 2.1v7.5c0 .7 0 1.3.1 1.9.1.6.2 1 .4 1.3h-4c-.1-.2-.1-.5-.2-.7 0-.2-.1-.5-.1-.7-.6.7-1.4 1.1-2.2 1.4-.9.3-1.7.4-2.6.4-.7 0-1.3-.1-1.9-.3-.6-.2-1.1-.4-1.6-.8-.4-.4-.8-.8-1.1-1.3-.3-.5-.4-1.2-.4-1.9 0-.8.1-1.5.4-2 .3-.5.7-1 1.1-1.3.5-.3 1-.6 1.6-.7s1.2-.3 1.8-.4c.6-.1 1.2-.2 1.8-.2.6-.1 1.1-.1 1.5-.3.4-.1.8-.3 1.1-.5.3-.2.4-.5.4-.9s-.1-.8-.2-1c-.1-.3-.3-.4-.6-.6s-.5-.2-.8-.3c-.3 0-.6-.1-1-.1-.8 0-1.4.2-1.8.5-.4.3-.7.9-.8 1.7h-4zm9.2 2.9c-.2.1-.4.3-.6.4s-.5.2-.8.2c-.3.1-.6.1-.9.1s-.6.1-1 .1c-.3.1-.6.1-.9.2-.3.1-.5.2-.8.4-.2.2-.4.4-.5.6-.1.2-.2.6-.2.9 0 .4.1.7.2.9.1.2.3.4.5.6s.5.2.8.3.6.1.9.1c.8 0 1.4-.1 1.8-.4.4-.3.7-.6 1-.9.2-.4.3-.7.4-1.1 0-.4.1-.7.1-.9v-1.5zM102.8 111.5v2.7h-2.9v7.2c0 .7.1 1.1.3 1.3.2.2.7.3 1.3.3h.6c.2 0 .4 0 .6-.1v3.1c-.3.1-.7.1-1.1.1h-1.2c-.6 0-1.2 0-1.8-.1-.6-.1-1-.2-1.5-.5s-.8-.6-1-1c-.2-.4-.4-1-.4-1.8v-8.5h-2.4v-2.7h2.4v-4.3h4v4.3h3.1zM123.7 106c.9 0 1.7.1 2.4.4.7.3 1.3.7 1.8 1.2s.9 1.1 1.2 1.8c.3.7.4 1.4.4 2.1 0 1.2-.2 2.2-.7 3.1s-1.3 1.5-2.4 2v.1c.5.1 1 .4 1.3.7.4.3.6.7.9 1.1.2.4.4.9.5 1.4.1.5.2 1 .2 1.5 0 .3 0 .7.1 1.1 0 .4.1.9.1 1.3s.1.9.2 1.3.3.7.5 1h-4.4c-.2-.6-.4-1.4-.4-2.3-.1-.9-.1-1.7-.3-2.5-.1-1-.5-1.8-1-2.3-.5-.5-1.3-.7-2.4-.7h-4.4v7.8h-4.4v-20h10.8zm-1.6 9c1 0 1.8-.2 2.3-.7.5-.4.8-1.2.8-2.2 0-1-.3-1.7-.8-2.1-.5-.4-1.3-.7-2.3-.7h-4.8v5.6h4.8zM148.1 106v3.7h-10.6v4.3h9.7v3.4h-9.7v4.9h10.8v3.7h-15.2v-20h15zM157.4 106l4.7 13.7h.1l4.4-13.7h6.2v20h-4.1v-14.2h-.1l-4.9 14.2h-3.4l-4.9-14h-.1v14h-4.1v-20h6.2zM176.5 111.9c.4-1.3 1.1-2.4 1.9-3.3s1.9-1.7 3.1-2.2 2.6-.8 4.1-.8c1.5 0 2.9.3 4.1.8 1.2.5 2.2 1.3 3.1 2.2s1.5 2.1 1.9 3.3c.4 1.3.7 2.7.7 4.2s-.2 2.8-.7 4.1c-.4 1.3-1.1 2.4-1.9 3.3-.8.9-1.9 1.7-3.1 2.2-1.2.5-2.6.8-4.1.8-1.5 0-2.9-.3-4.1-.8-1.2-.5-2.3-1.3-3.1-2.2-.8-.9-1.5-2-1.9-3.3-.4-1.3-.7-2.6-.7-4.1 0-1.5.2-2.9.7-4.2zm4 6.6c.2.8.5 1.5.9 2.1.4.6 1 1.1 1.7 1.5.7.4 1.5.6 2.5.6s1.8-.2 2.5-.6c.7-.4 1.2-.9 1.7-1.5s.7-1.3.9-2.1c.2-.8.3-1.6.3-2.5 0-.9-.1-1.7-.3-2.5-.2-.8-.5-1.6-.9-2.2-.4-.6-1-1.2-1.7-1.5-.7-.4-1.5-.6-2.5-.6s-1.8.2-2.5.6c-.7.4-1.3.9-1.7 1.5-.4.6-.7 1.4-.9 2.2-.2.8-.3 1.7-.3 2.5 0 .9.1 1.7.3 2.5zM202.8 126l-6.5-20h4.5l4.5 14.1h.1l4.5-14.1h4.5l-6.6 20h-5zM231 106v3.7h-10.6v4.3h9.7v3.4h-9.7v4.9h10.8v3.7H216v-20h15zM237.6 121.1c.2.5.6.8 1 1.1.4.3.9.5 1.4.6s1.1.2 1.7.2c.4 0 .8 0 1.3-.1.4-.1.9-.2 1.3-.4s.7-.4 1-.8c.3-.3.4-.7.4-1.2s-.2-1-.5-1.3c-.3-.3-.8-.6-1.4-.8-.6-.2-1.2-.4-1.9-.6-.7-.2-1.4-.4-2.2-.6-.7-.2-1.5-.4-2.2-.7-.7-.3-1.3-.6-1.9-1.1-.6-.4-1-1-1.4-1.6-.3-.6-.5-1.4-.5-2.3 0-1 .2-1.9.7-2.7.4-.8 1-1.4 1.7-1.9s1.5-.9 2.4-1.1c.9-.2 1.8-.4 2.7-.4 1 0 2 .1 3 .3 1 .2 1.8.6 2.6 1.1.7.5 1.3 1.2 1.8 2s.7 1.8.7 3H245c0-.6-.2-1.1-.4-1.5-.2-.4-.5-.7-.9-.9s-.8-.4-1.2-.5c-.5-.1-1-.1-1.5-.1-.4 0-.7 0-1.1.1-.4.1-.7.2-1 .4s-.5.4-.7.7c-.2.3-.3.6-.3 1.1 0 .4.1.7.2 1 .1.2.4.5.9.7.4.2 1 .4 1.8.6.8.2 1.8.5 3 .8.4.1.9.2 1.6.4.7.2 1.3.5 2 .9s1.2 1 1.7 1.7.7 1.6.7 2.8c0 .9-.2 1.8-.5 2.5-.4.8-.9 1.5-1.6 2-.7.6-1.6 1-2.6 1.3-1 .3-2.2.5-3.6.5-1.1 0-2.2-.1-3.2-.4-1-.3-2-.7-2.7-1.3-.8-.6-1.4-1.3-1.9-2.2s-.7-2-.7-3.2h4.3c-.1.8 0 1.4.3 1.9z"/></g><g><path class="st1" d="M81.3 140.5v2.7h-2.9v7.2c0 .7.1 1.1.3 1.3.2.2.7.3 1.3.3h.6c.2 0 .4 0 .6-.1v3.1c-.3.1-.7.1-1.1.1h-1.2c-.6 0-1.2 0-1.8-.1-.6-.1-1-.2-1.5-.5-.4-.2-.8-.6-1-1-.2-.4-.4-1-.4-1.8v-8.5H72v-2.7h2.4v-4.3h4v4.3h2.9zM87.1 135v7.5h.1c.5-.8 1.1-1.5 1.9-1.8.8-.4 1.5-.6 2.3-.6 1.1 0 1.9.1 2.6.4.7.3 1.2.7 1.6 1.2.4.5.7 1.1.8 1.9.2.7.2 1.6.2 2.4v8.9h-4v-8.2c0-1.2-.2-2.1-.6-2.7-.4-.6-1-.9-2-.9-1.1 0-1.9.3-2.4 1-.5.6-.7 1.7-.7 3.2v7.6h-4v-20h4.2zM104 151.5c.6.6 1.5.9 2.6.9.8 0 1.5-.2 2.1-.6.6-.4.9-.8 1.1-1.3h3.5c-.6 1.7-1.4 3-2.6 3.7-1.2.7-2.6 1.1-4.2 1.1-1.1 0-2.2-.2-3.1-.5-.9-.4-1.7-.9-2.3-1.6s-1.1-1.5-1.5-2.4c-.3-.9-.5-2-.5-3.1s.2-2.1.5-3c.4-.9.9-1.7 1.5-2.4.7-.7 1.4-1.2 2.3-1.6.9-.4 1.9-.6 3-.6 1.2 0 2.3.2 3.2.7.9.5 1.7 1.1 2.3 1.9.6.8 1 1.7 1.3 2.7.3 1 .4 2.1.3 3.2H103c.1 1.4.4 2.4 1 2.9zm4.5-7.6c-.5-.5-1.2-.8-2.2-.8-.6 0-1.2.1-1.6.3-.4.2-.8.5-1 .8s-.4.7-.5 1c-.1.4-.2.7-.2 1h6.5c-.2-1-.5-1.8-1-2.3zM122.5 138.7V135h16.4v3.7h-6V155h-4.4v-16.3h-6zM148.5 135l7.5 20h-4.6l-1.5-4.5h-7.5l-1.6 4.5h-4.4l7.6-20h4.5zm.3 12.3l-2.5-7.3h-.1l-2.6 7.3h5.2zM168.5 135c.9 0 1.7.1 2.4.4.7.3 1.3.7 1.8 1.2s.9 1.1 1.2 1.8c.3.7.4 1.4.4 2.1 0 1.2-.2 2.2-.7 3.1-.5.9-1.3 1.5-2.4 2v.1c.5.1 1 .4 1.3.7.4.3.6.7.9 1.1.2.4.4.9.5 1.4s.2 1 .2 1.5c0 .3 0 .7.1 1.1 0 .4.1.9.1 1.3s.1.9.2 1.3.3.7.5 1h-4.4c-.2-.6-.4-1.4-.4-2.3-.1-.9-.1-1.7-.3-2.5-.1-1-.5-1.8-1-2.3s-1.3-.7-2.4-.7h-4.4v7.8h-4.4v-20h10.8zm-1.5 9.1c1 0 1.8-.2 2.3-.7s.8-1.2.8-2.2c0-1-.3-1.7-.8-2.1s-1.3-.7-2.3-.7h-4.8v5.6h4.8zM175.9 138.7V135h16.4v3.7h-6V155h-4.4v-16.3h-6zM202 135l7.5 20h-4.6l-1.5-4.5h-7.5l-1.6 4.5h-4.4l7.6-20h4.5zm.3 12.3l-2.5-7.3h-.1l-2.6 7.3h5.2zM222 135c.9 0 1.7.1 2.4.4.7.3 1.3.7 1.8 1.2s.9 1.1 1.2 1.8c.3.7.4 1.4.4 2.1 0 1.2-.2 2.2-.7 3.1-.5.9-1.3 1.5-2.4 2v.1c.5.1 1 .4 1.3.7.4.3.6.7.9 1.1.2.4.4.9.5 1.4s.2 1 .2 1.5c0 .3 0 .7.1 1.1 0 .4.1.9.1 1.3s.1.9.2 1.3.3.7.5 1H224c-.2-.6-.4-1.4-.4-2.3-.1-.9-.1-1.7-.3-2.5-.1-1-.5-1.8-1-2.3s-1.3-.7-2.4-.7h-4.4v7.8h-4.4v-20H222zm-1.6 9.1c1 0 1.8-.2 2.3-.7s.8-1.2.8-2.2c0-1-.3-1.7-.8-2.1s-1.3-.7-2.3-.7h-4.8v5.6h4.8z"/></g></svg>