<svg id="Layer_1" xmlns="http://www.w3.org/2000/svg" xmlns:xlink="http://www.w3.org/1999/xlink" viewBox="0 0 300 250"><style>.st0{clip-path:url(#SVGID_00000087409196678525065000000001914332672451266995_);fill:#439d51}.st1{fill:#fff}</style><defs><path id="SVGID_1_" d="M71.1 176.1h158.4v33.4H71.1z"/></defs><clipPath id="SVGID_00000031901763738264230940000016512315913150544541_"><use xlink:href="#SVGID_1_" overflow="visible"/></clipPath><path d="M229.5 192.8c0 9.2-8.6 16.7-19.2 16.7h-120c-10.5 0-19.2-7.5-19.2-16.7s8.6-16.7 19.2-16.7h120c10.6 0 19.2 7.5 19.2 16.7" clip-path="url(#SVGID_00000031901763738264230940000016512315913150544541_)" fill="#439d51"/><g><path class="st1" d="M107.9 198.5l-3.4-10.7h2.4l2.4 7.5 2.4-7.5h2.4l-3.5 10.7h-2.7zM117.4 187.8v10.7H115v-10.7h2.4zM127.4 187.8v2h-5.6v2.3h5.2v1.8h-5.2v2.6h5.7v2h-8.1v-10.7h8zM136.9 198.5l-1.8-7.2-1.8 7.2h-2.4l-2.8-10.7h2.3l1.7 7.2 1.8-7.2h2.2l1.8 7.3 1.7-7.3h2.3l-2.9 10.7h-2.1zM152.1 187.8c.7 0 1.2.1 1.7.3.5.2.8.5 1.1.8.3.3.5.7.6 1.1.1.4.2.8.2 1.3 0 .4-.1.8-.2 1.3-.1.4-.3.8-.6 1.1s-.7.6-1.1.8c-.5.2-1 .3-1.7.3h-2.5v3.8h-2.3v-10.7h4.8zm-.6 5c.3 0 .5 0 .8-.1.2 0 .5-.1.7-.2.2-.1.3-.3.5-.5s.2-.5.2-.8-.1-.6-.2-.8-.3-.4-.5-.5c-.2-.1-.4-.2-.7-.2-.2 0-.5-.1-.8-.1h-1.8v3.2h1.8zM159.6 187.8v8.7h5.2v2h-7.5v-10.7h2.3zM171.4 187.8l4 10.7H173l-.8-2.4h-4l-.8 2.4H165l4-10.7h2.4zm.2 6.6l-1.3-3.9-1.4 3.9h2.7zM178.7 187.8l4.4 7.1v-7.1h2.2v10.7H183l-4.4-7.1v7.1h-2.2v-10.7h2.3zM189.2 195.9c.1.2.3.5.5.6.2.2.5.3.8.3.3.1.6.1.9.1.2 0 .4 0 .7-.1s.5-.1.7-.2c.2-.1.4-.2.5-.4.1-.2.2-.4.2-.7 0-.3-.1-.5-.3-.7-.2-.2-.4-.3-.7-.4-.3-.1-.6-.2-1-.3-.4-.1-.8-.2-1.1-.3-.4-.1-.8-.2-1.2-.4-.4-.1-.7-.3-1-.6-.3-.2-.5-.5-.7-.9-.2-.3-.3-.8-.3-1.2 0-.5.1-1 .4-1.4.2-.4.5-.7.9-1 .4-.3.8-.5 1.3-.6s1-.2 1.4-.2c.6 0 1.1.1 1.6.2s1 .3 1.4.6.7.6.9 1.1.4 1 .4 1.6h-2.3c0-.3-.1-.6-.2-.8s-.3-.4-.5-.5l-.6-.3c-.2 0-.5-.1-.8-.1-.2 0-.4 0-.6.1s-.4.1-.5.2-.3.2-.4.4c-.1.1-.1.3-.1.6 0 .2 0 .4.1.5.1.1.2.2.5.4s.6.2 1 .3 1 .2 1.6.4c.2 0 .5.1.8.2s.7.3 1.1.5c.3.2.6.5.9.9s.4.9.4 1.5c0 .5-.1.9-.3 1.4-.2.4-.5.8-.8 1.1-.4.3-.8.5-1.4.7s-1.2.3-1.9.3c-.6 0-1.2-.1-1.7-.2-.6-.1-1-.4-1.5-.7s-.8-.7-1-1.2c-.2-.5-.4-1-.4-1.7h2.3c-.2.3-.2.6 0 .9z"/></g></svg>