<?xml version="1.0" encoding="utf-8"?>
<!-- Generator: Adobe Illustrator 26.3.1, SVG Export Plug-In . SVG Version: 6.00 Build 0)  -->
<svg version="1.1" id="Layer_1" xmlns="http://www.w3.org/2000/svg" xmlns:xlink="http://www.w3.org/1999/xlink" x="0px" y="0px"
	 viewBox="0 0 728 90" style="enable-background:new 0 0 728 90;" xml:space="preserve">
<style type="text/css">
	.st0{fill:#231F20;}
</style>
<g>
	<path class="st0" d="M34.6,19.9l7.2,19.3h-4.4L36,34.9h-7.2l-1.5,4.3H23l7.3-19.3H34.6z M34.9,31.8l-2.4-7.1h-0.1l-2.5,7.1H34.9z"
		/>
	<path class="st0" d="M46.5,25.3v1.9h0.1c0.5-0.8,1.1-1.4,1.9-1.8c0.8-0.4,1.6-0.6,2.4-0.6c1,0,1.9,0.1,2.5,0.4
		c0.7,0.3,1.2,0.7,1.6,1.2s0.6,1.1,0.8,1.8c0.2,0.7,0.2,1.5,0.2,2.4v8.6h-3.8v-7.9c0-1.2-0.2-2-0.5-2.6c-0.4-0.6-1-0.9-1.9-0.9
		c-1,0-1.8,0.3-2.3,0.9c-0.5,0.6-0.7,1.6-0.7,3.1v7.3h-3.8v-14H46.5z"/>
	<path class="st0" d="M68.5,37.4c-0.5,0.8-1,1.3-1.8,1.6s-1.6,0.5-2.5,0.5c-1,0-2-0.2-2.8-0.6c-0.8-0.4-1.4-1-2-1.6
		s-0.9-1.5-1.2-2.4C58.1,34,58,33.1,58,32.1c0-0.9,0.1-1.8,0.4-2.7c0.3-0.9,0.6-1.6,1.2-2.3c0.5-0.7,1.2-1.2,1.9-1.6
		c0.8-0.4,1.7-0.6,2.7-0.6c0.8,0,1.6,0.2,2.4,0.5c0.7,0.4,1.3,0.9,1.8,1.6h0.1v-7h3.8v19.3h-3.6L68.5,37.4L68.5,37.4z M68.3,30.5
		c-0.1-0.5-0.3-1-0.6-1.4c-0.3-0.4-0.6-0.7-1-1c-0.4-0.3-0.9-0.4-1.6-0.4c-0.6,0-1.2,0.1-1.6,0.4s-0.8,0.6-1,1
		c-0.3,0.4-0.5,0.9-0.6,1.4c-0.1,0.5-0.2,1.1-0.2,1.7c0,0.5,0.1,1.1,0.2,1.6c0.1,0.5,0.3,1,0.6,1.4c0.3,0.4,0.6,0.8,1.1,1
		s0.9,0.4,1.5,0.4c0.6,0,1.2-0.1,1.6-0.4c0.4-0.3,0.8-0.6,1-1c0.3-0.4,0.4-0.9,0.5-1.4s0.2-1.1,0.2-1.7
		C68.5,31.6,68.4,31.1,68.3,30.5z"/>
	<path class="st0" d="M95.3,40.2c-0.2,0.7-0.5,1.4-1,2c-0.5,0.6-1.2,1.1-2.2,1.6c-1,0.4-2.2,0.6-3.8,0.6c-0.7,0-1.4-0.1-2.1-0.3
		s-1.4-0.4-1.9-0.8c-0.6-0.4-1.1-0.8-1.5-1.4c-0.4-0.6-0.6-1.2-0.7-2h3.8c0.2,0.7,0.5,1.2,1.1,1.5c0.5,0.3,1.1,0.4,1.8,0.4
		c1.1,0,1.9-0.3,2.4-1c0.5-0.6,0.7-1.5,0.7-2.5v-1.8h-0.1c-0.4,0.7-1,1.3-1.8,1.6c-0.8,0.4-1.6,0.5-2.4,0.5c-1,0-1.9-0.2-2.7-0.6
		c-0.8-0.4-1.4-0.9-1.9-1.5c-0.5-0.6-0.8-1.4-1.1-2.2s-0.3-1.8-0.3-2.7c0-0.9,0.1-1.8,0.4-2.6c0.3-0.8,0.6-1.6,1.1-2.2
		c0.5-0.6,1.1-1.1,1.9-1.5c0.7-0.4,1.6-0.6,2.6-0.6c0.9,0,1.7,0.2,2.4,0.5c0.7,0.3,1.3,0.9,1.7,1.7h0.1v-1.9h3.6v13.1
		C95.5,38.9,95.4,39.5,95.3,40.2z M90,35.6c0.4-0.2,0.8-0.5,1-0.9c0.3-0.4,0.5-0.8,0.6-1.2c0.1-0.5,0.2-0.9,0.2-1.4
		c0-0.6-0.1-1.1-0.2-1.6c-0.1-0.5-0.3-1-0.5-1.4s-0.6-0.7-1-0.9c-0.4-0.2-0.9-0.4-1.6-0.4c-0.5,0-1,0.1-1.4,0.3
		c-0.4,0.2-0.7,0.5-1,0.9c-0.3,0.4-0.5,0.8-0.6,1.3c-0.1,0.5-0.2,1-0.2,1.5c0,0.5,0,1,0.1,1.5s0.3,0.9,0.5,1.3c0.2,0.4,0.6,0.7,1,1
		c0.4,0.3,0.9,0.4,1.5,0.4C89.1,35.9,89.6,35.8,90,35.6z"/>
	<path class="st0" d="M102.4,35.9c0.6,0.6,1.4,0.8,2.5,0.8c0.8,0,1.4-0.2,2-0.6c0.6-0.4,0.9-0.8,1-1.2h3.4c-0.5,1.7-1.4,2.9-2.5,3.6
		c-1.1,0.7-2.5,1.1-4,1.1c-1.1,0-2.1-0.2-3-0.5c-0.9-0.4-1.6-0.9-2.2-1.5c-0.6-0.6-1.1-1.4-1.4-2.3c-0.3-0.9-0.5-1.9-0.5-3
		c0-1,0.2-2,0.5-2.9s0.8-1.7,1.5-2.3c0.6-0.7,1.4-1.2,2.3-1.6s1.8-0.6,2.9-0.6c1.2,0,2.2,0.2,3.1,0.7c0.9,0.5,1.6,1.1,2.2,1.8
		s1,1.7,1.2,2.6c0.3,1,0.3,2,0.3,3.1h-10.1C101.5,34.4,101.9,35.3,102.4,35.9z M106.8,28.5c-0.5-0.5-1.2-0.8-2.1-0.8
		c-0.6,0-1.1,0.1-1.5,0.3c-0.4,0.2-0.7,0.5-1,0.8c-0.2,0.3-0.4,0.6-0.5,1c-0.1,0.3-0.2,0.6-0.2,0.9h6.2
		C107.5,29.8,107.2,29,106.8,28.5z"/>
	<path class="st0" d="M121.3,25.3v2.6h-2.8v6.9c0,0.6,0.1,1.1,0.3,1.3c0.2,0.2,0.6,0.3,1.3,0.3c0.2,0,0.4,0,0.6,0
		c0.2,0,0.4,0,0.6-0.1v3c-0.3,0.1-0.7,0.1-1.1,0.1c-0.4,0-0.8,0-1.2,0c-0.6,0-1.2,0-1.7-0.1s-1-0.2-1.4-0.5c-0.4-0.2-0.7-0.6-1-1
		s-0.4-1-0.4-1.7v-8.2h-2.3v-2.6h2.3v-4.2h3.8v4.2H121.3z"/>
	<path class="st0" d="M139.9,44.1v-6.6h-0.1c-0.5,0.8-1.1,1.3-1.9,1.6c-0.8,0.3-1.6,0.5-2.5,0.5c-0.6,0-1.3-0.1-2-0.4
		c-0.7-0.2-1.3-0.6-1.9-1.2s-1.1-1.3-1.4-2.2c-0.4-0.9-0.6-2.1-0.6-3.4c0-1,0.1-1.9,0.4-2.8c0.3-0.9,0.6-1.7,1.2-2.4
		c0.5-0.7,1.2-1.2,2-1.7c0.8-0.4,1.7-0.6,2.8-0.6c0.9,0,1.7,0.2,2.4,0.5s1.4,0.9,1.8,1.7h0.1v-1.8h3.6v18.8H139.9z M133.5,33.9
		c0.1,0.5,0.3,1,0.6,1.4c0.3,0.4,0.6,0.8,1,1c0.4,0.3,0.9,0.4,1.6,0.4c0.6,0,1.2-0.1,1.6-0.4c0.4-0.2,0.8-0.6,1-1
		c0.3-0.4,0.4-0.9,0.6-1.4c0.1-0.5,0.2-1.1,0.2-1.7c0-0.5-0.1-1.1-0.2-1.6c-0.1-0.5-0.3-1-0.6-1.5c-0.3-0.4-0.6-0.8-1-1.1
		c-0.4-0.3-0.9-0.4-1.5-0.4c-0.6,0-1.2,0.1-1.6,0.4c-0.4,0.3-0.8,0.6-1.1,1c-0.3,0.4-0.5,0.9-0.6,1.4c-0.1,0.5-0.2,1.1-0.2,1.7
		C133.3,32.8,133.4,33.4,133.5,33.9z"/>
	<path class="st0" d="M155.8,39.2v-1.9h-0.1c-0.5,0.8-1.1,1.4-1.9,1.8s-1.6,0.5-2.4,0.5c-1,0-1.9-0.1-2.5-0.4
		c-0.7-0.3-1.2-0.7-1.6-1.1c-0.4-0.5-0.6-1.1-0.8-1.8c-0.2-0.7-0.2-1.5-0.2-2.4v-8.6h3.8v7.9c0,1.2,0.2,2,0.5,2.6
		c0.4,0.6,1,0.9,1.9,0.9c1,0,1.8-0.3,2.3-0.9c0.5-0.6,0.7-1.6,0.7-3.1v-7.3h3.8v14H155.8z"/>
	<path class="st0" d="M161.9,29.6c0.1-0.9,0.3-1.6,0.7-2.2c0.4-0.6,0.9-1.1,1.5-1.4c0.6-0.4,1.3-0.6,2.1-0.8s1.5-0.2,2.3-0.2
		c0.7,0,1.4,0,2.1,0.1c0.7,0.1,1.4,0.3,2,0.6c0.6,0.3,1.1,0.7,1.5,1.2c0.4,0.5,0.6,1.2,0.6,2v7.3c0,0.6,0,1.2,0.1,1.8
		c0.1,0.6,0.2,1,0.4,1.3h-3.9c-0.1-0.2-0.1-0.4-0.2-0.7c0-0.2-0.1-0.5-0.1-0.7c-0.6,0.6-1.3,1.1-2.2,1.3s-1.7,0.4-2.5,0.4
		c-0.7,0-1.3-0.1-1.9-0.2s-1.1-0.4-1.5-0.8c-0.4-0.3-0.8-0.8-1-1.3s-0.4-1.1-0.4-1.9c0-0.8,0.1-1.4,0.4-2c0.3-0.5,0.6-0.9,1.1-1.2
		c0.4-0.3,0.9-0.5,1.5-0.7c0.6-0.2,1.1-0.3,1.7-0.4c0.6-0.1,1.1-0.2,1.7-0.2c0.6-0.1,1.1-0.1,1.5-0.2s0.8-0.3,1-0.5
		c0.3-0.2,0.4-0.5,0.4-0.9c0-0.4-0.1-0.7-0.2-1c-0.1-0.2-0.3-0.4-0.5-0.6c-0.2-0.1-0.5-0.2-0.8-0.3c-0.3,0-0.6-0.1-1-0.1
		c-0.8,0-1.4,0.2-1.8,0.5c-0.4,0.3-0.7,0.9-0.8,1.6H161.9z M170.8,32.4c-0.2,0.1-0.4,0.3-0.6,0.3s-0.5,0.1-0.8,0.2
		c-0.3,0.1-0.6,0.1-0.9,0.1s-0.6,0.1-0.9,0.1c-0.3,0.1-0.6,0.1-0.9,0.2c-0.3,0.1-0.5,0.2-0.7,0.4c-0.2,0.2-0.4,0.3-0.5,0.6
		c-0.1,0.2-0.2,0.5-0.2,0.9c0,0.3,0.1,0.6,0.2,0.9c0.1,0.2,0.3,0.4,0.5,0.6c0.2,0.1,0.5,0.2,0.8,0.3c0.3,0.1,0.6,0.1,0.9,0.1
		c0.8,0,1.3-0.1,1.8-0.4c0.4-0.3,0.7-0.6,0.9-0.9c0.2-0.4,0.3-0.7,0.4-1.1c0-0.4,0.1-0.6,0.1-0.9V32.4z"/>
	<path class="st0" d="M181.3,19.9v19.3h-3.8V19.9H181.3z"/>
	<path class="st0" d="M184.2,23.1v-3.2h3.8v3.2H184.2z M188,25.3v14h-3.8v-14H188z"/>
	<path class="st0" d="M198.4,25.3v2.6h-2.8v6.9c0,0.6,0.1,1.1,0.3,1.3c0.2,0.2,0.6,0.3,1.3,0.3c0.2,0,0.4,0,0.6,0
		c0.2,0,0.4,0,0.6-0.1v3c-0.3,0.1-0.7,0.1-1.1,0.1c-0.4,0-0.8,0-1.2,0c-0.6,0-1.2,0-1.7-0.1s-1-0.2-1.4-0.5c-0.4-0.2-0.7-0.6-1-1
		s-0.4-1-0.4-1.7v-8.2h-2.3v-2.6h2.3v-4.2h3.8v4.2H198.4z"/>
	<path class="st0" d="M205.2,43.4c-0.7,0.5-1.8,0.7-3.1,0.7c-0.4,0-0.8,0-1.2,0c-0.4,0-0.8-0.1-1.2-0.1v-3.2c0.4,0,0.7,0.1,1.1,0.1
		c0.4,0,0.8,0,1.1,0c0.5-0.1,0.9-0.3,1.1-0.6c0.2-0.3,0.4-0.7,0.4-1.1c0-0.3-0.1-0.6-0.2-0.9l-4.9-13.1h4.1l3.2,9.6h0.1l3.1-9.6h4
		l-5.8,15.7C206.5,42.1,205.9,42.9,205.2,43.4z"/>
	<path class="st0" d="M227.7,27.8c-0.6,0-1.1,0.1-1.5,0.4s-0.8,0.6-1,1.1c-0.3,0.4-0.4,0.9-0.6,1.5c-0.1,0.5-0.2,1.1-0.2,1.6
		c0,0.5,0.1,1,0.2,1.5c0.1,0.5,0.3,1,0.5,1.4c0.2,0.4,0.6,0.8,1,1c0.4,0.3,0.9,0.4,1.5,0.4c0.9,0,1.6-0.3,2.1-0.8
		c0.5-0.5,0.8-1.2,0.9-2.1h3.7c-0.3,1.9-1,3.3-2.2,4.2s-2.7,1.5-4.6,1.5c-1,0-2-0.2-2.9-0.5c-0.9-0.4-1.6-0.8-2.2-1.5
		c-0.6-0.6-1.1-1.4-1.4-2.3c-0.3-0.9-0.5-1.8-0.5-2.9c0-1.1,0.2-2.1,0.5-3c0.3-0.9,0.8-1.7,1.4-2.4c0.6-0.7,1.4-1.2,2.2-1.6
		s1.9-0.6,3-0.6c0.8,0,1.6,0.1,2.4,0.3c0.8,0.2,1.4,0.5,2.1,1c0.6,0.4,1.1,1,1.5,1.6s0.6,1.4,0.6,2.3h-3.8
		C230.2,28.6,229.3,27.8,227.7,27.8z"/>
	<path class="st0" d="M236.3,29.2c0.3-0.9,0.8-1.7,1.5-2.3c0.6-0.6,1.4-1.1,2.3-1.5c0.9-0.4,1.9-0.5,3-0.5c1.1,0,2.1,0.2,3,0.5
		c0.9,0.4,1.7,0.8,2.3,1.5c0.6,0.6,1.1,1.4,1.5,2.3c0.3,0.9,0.5,1.9,0.5,3s-0.2,2.1-0.5,3c-0.3,0.9-0.8,1.7-1.5,2.3
		c-0.6,0.6-1.4,1.1-2.3,1.5c-0.9,0.3-1.9,0.5-3,0.5c-1.1,0-2.1-0.2-3-0.5c-0.9-0.3-1.6-0.8-2.3-1.5c-0.6-0.6-1.1-1.4-1.5-2.3
		c-0.3-0.9-0.5-1.9-0.5-3S236,30.1,236.3,29.2z M239.8,33.9c0.1,0.5,0.3,1,0.6,1.4c0.3,0.4,0.6,0.8,1,1c0.4,0.3,1,0.4,1.6,0.4
		s1.2-0.1,1.6-0.4c0.4-0.3,0.8-0.6,1.1-1c0.3-0.4,0.4-0.9,0.6-1.4c0.1-0.5,0.2-1.1,0.2-1.6s-0.1-1.1-0.2-1.6c-0.1-0.5-0.3-1-0.6-1.4
		c-0.3-0.4-0.6-0.8-1.1-1c-0.4-0.3-1-0.4-1.6-0.4s-1.2,0.1-1.6,0.4c-0.4,0.3-0.8,0.6-1,1c-0.3,0.4-0.4,0.9-0.6,1.4
		c-0.1,0.5-0.2,1.1-0.2,1.6S239.7,33.4,239.8,33.9z"/>
	<path class="st0" d="M256,39.2l-4.8-14h4l2.9,9.5h0.1l2.9-9.5h3.8l-4.7,14H256z"/>
	<path class="st0" d="M270.4,35.9c0.6,0.6,1.4,0.8,2.5,0.8c0.8,0,1.4-0.2,2-0.6c0.6-0.4,0.9-0.8,1-1.2h3.4c-0.5,1.7-1.4,2.9-2.5,3.6
		c-1.1,0.7-2.5,1.1-4,1.1c-1.1,0-2.1-0.2-3-0.5c-0.9-0.4-1.6-0.9-2.2-1.5c-0.6-0.6-1.1-1.4-1.4-2.3c-0.3-0.9-0.5-1.9-0.5-3
		c0-1,0.2-2,0.5-2.9s0.8-1.7,1.5-2.3c0.6-0.7,1.4-1.2,2.3-1.6s1.8-0.6,2.9-0.6c1.2,0,2.2,0.2,3.1,0.7c0.9,0.5,1.6,1.1,2.2,1.8
		s1,1.7,1.2,2.6c0.3,1,0.3,2,0.3,3.1h-10.1C269.5,34.4,269.8,35.3,270.4,35.9z M274.7,28.5c-0.5-0.5-1.2-0.8-2.1-0.8
		c-0.6,0-1.1,0.1-1.5,0.3c-0.4,0.2-0.7,0.5-1,0.8c-0.2,0.3-0.4,0.6-0.5,1c-0.1,0.3-0.2,0.6-0.2,0.9h6.2
		C275.5,29.8,275.2,29,274.7,28.5z"/>
	<path class="st0" d="M285.2,25.3v2.6h0.1c0.2-0.4,0.4-0.8,0.7-1.2c0.3-0.4,0.7-0.7,1.1-0.9c0.4-0.3,0.8-0.5,1.3-0.6
		c0.4-0.1,0.9-0.2,1.4-0.2c0.3,0,0.5,0,0.8,0.1v3.6c-0.2,0-0.4-0.1-0.6-0.1s-0.5,0-0.7,0c-0.7,0-1.3,0.1-1.8,0.4s-0.9,0.6-1.2,1
		c-0.3,0.4-0.5,0.9-0.6,1.4s-0.2,1.1-0.2,1.8v6.3h-3.8v-14H285.2z"/>
	<path class="st0" d="M291.6,29.6c0.1-0.9,0.3-1.6,0.7-2.2c0.4-0.6,0.9-1.1,1.5-1.4c0.6-0.4,1.3-0.6,2.1-0.8s1.5-0.2,2.3-0.2
		c0.7,0,1.4,0,2.1,0.1c0.7,0.1,1.4,0.3,2,0.6c0.6,0.3,1.1,0.7,1.5,1.2c0.4,0.5,0.6,1.2,0.6,2v7.3c0,0.6,0,1.2,0.1,1.8
		c0.1,0.6,0.2,1,0.4,1.3h-3.9c-0.1-0.2-0.1-0.4-0.2-0.7c0-0.2-0.1-0.5-0.1-0.7c-0.6,0.6-1.3,1.1-2.2,1.3s-1.7,0.4-2.5,0.4
		c-0.7,0-1.3-0.1-1.9-0.2s-1.1-0.4-1.5-0.8c-0.4-0.3-0.8-0.8-1-1.3s-0.4-1.1-0.4-1.9c0-0.8,0.1-1.4,0.4-2c0.3-0.5,0.6-0.9,1.1-1.2
		c0.4-0.3,0.9-0.5,1.5-0.7c0.6-0.2,1.1-0.3,1.7-0.4c0.6-0.1,1.1-0.2,1.7-0.2c0.6-0.1,1.1-0.1,1.5-0.2s0.8-0.3,1-0.5
		c0.3-0.2,0.4-0.5,0.4-0.9c0-0.4-0.1-0.7-0.2-1c-0.1-0.2-0.3-0.4-0.5-0.6c-0.2-0.1-0.5-0.2-0.8-0.3c-0.3,0-0.6-0.1-1-0.1
		c-0.8,0-1.4,0.2-1.8,0.5c-0.4,0.3-0.7,0.9-0.8,1.6H291.6z M300.5,32.4c-0.2,0.1-0.4,0.3-0.6,0.3s-0.5,0.1-0.8,0.2
		c-0.3,0.1-0.6,0.1-0.9,0.1s-0.6,0.1-0.9,0.1c-0.3,0.1-0.6,0.1-0.9,0.2c-0.3,0.1-0.5,0.2-0.7,0.4c-0.2,0.2-0.4,0.3-0.5,0.6
		c-0.1,0.2-0.2,0.5-0.2,0.9c0,0.3,0.1,0.6,0.2,0.9c0.1,0.2,0.3,0.4,0.5,0.6c0.2,0.1,0.5,0.2,0.8,0.3c0.3,0.1,0.6,0.1,0.9,0.1
		c0.8,0,1.3-0.1,1.8-0.4c0.4-0.3,0.7-0.6,0.9-0.9c0.2-0.4,0.3-0.7,0.4-1.1c0-0.4,0.1-0.6,0.1-0.9V32.4z"/>
	<path class="st0" d="M320.3,40.2c-0.2,0.7-0.5,1.4-1,2c-0.5,0.6-1.2,1.1-2.2,1.6c-1,0.4-2.2,0.6-3.8,0.6c-0.7,0-1.4-0.1-2.1-0.3
		s-1.4-0.4-1.9-0.8c-0.6-0.4-1.1-0.8-1.5-1.4c-0.4-0.6-0.6-1.2-0.7-2h3.8c0.2,0.7,0.5,1.2,1.1,1.5c0.5,0.3,1.1,0.4,1.8,0.4
		c1.1,0,1.9-0.3,2.4-1c0.5-0.6,0.7-1.5,0.7-2.5v-1.8h-0.1c-0.4,0.7-1,1.3-1.8,1.6c-0.8,0.4-1.6,0.5-2.4,0.5c-1,0-1.9-0.2-2.7-0.6
		c-0.8-0.4-1.4-0.9-1.9-1.5c-0.5-0.6-0.8-1.4-1.1-2.2s-0.3-1.8-0.3-2.7c0-0.9,0.1-1.8,0.4-2.6c0.3-0.8,0.6-1.6,1.1-2.2
		c0.5-0.6,1.1-1.1,1.9-1.5c0.7-0.4,1.6-0.6,2.6-0.6c0.9,0,1.7,0.2,2.4,0.5c0.7,0.3,1.3,0.9,1.7,1.7h0.1v-1.9h3.6v13.1
		C320.5,38.9,320.4,39.5,320.3,40.2z M315,35.6c0.4-0.2,0.8-0.5,1-0.9c0.3-0.4,0.5-0.8,0.6-1.2c0.1-0.5,0.2-0.9,0.2-1.4
		c0-0.6-0.1-1.1-0.2-1.6c-0.1-0.5-0.3-1-0.5-1.4s-0.6-0.7-1-0.9c-0.4-0.2-0.9-0.4-1.6-0.4c-0.5,0-1,0.1-1.4,0.3
		c-0.4,0.2-0.7,0.5-1,0.9c-0.3,0.4-0.5,0.8-0.6,1.3c-0.1,0.5-0.2,1-0.2,1.5c0,0.5,0,1,0.1,1.5s0.3,0.9,0.5,1.3c0.2,0.4,0.6,0.7,1,1
		c0.4,0.3,0.9,0.4,1.5,0.4C314.1,35.9,314.6,35.8,315,35.6z"/>
	<path class="st0" d="M327.4,35.9c0.6,0.6,1.4,0.8,2.5,0.8c0.8,0,1.4-0.2,2-0.6c0.6-0.4,0.9-0.8,1-1.2h3.4c-0.5,1.7-1.4,2.9-2.5,3.6
		c-1.1,0.7-2.5,1.1-4,1.1c-1.1,0-2.1-0.2-3-0.5c-0.9-0.4-1.6-0.9-2.2-1.5c-0.6-0.6-1.1-1.4-1.4-2.3c-0.3-0.9-0.5-1.9-0.5-3
		c0-1,0.2-2,0.5-2.9s0.8-1.7,1.5-2.3c0.6-0.7,1.4-1.2,2.3-1.6s1.8-0.6,2.9-0.6c1.2,0,2.2,0.2,3.1,0.7c0.9,0.5,1.6,1.1,2.2,1.8
		s1,1.7,1.2,2.6c0.3,1,0.3,2,0.3,3.1h-10.1C326.5,34.4,326.8,35.3,327.4,35.9z M331.7,28.5c-0.5-0.5-1.2-0.8-2.1-0.8
		c-0.6,0-1.1,0.1-1.5,0.3c-0.4,0.2-0.7,0.5-1,0.8c-0.2,0.3-0.4,0.6-0.5,1c-0.1,0.3-0.2,0.6-0.2,0.9h6.2
		C332.5,29.8,332.2,29,331.7,28.5z"/>
</g>
<path class="st0" d="M32.3,53.3v2.6h-2.8v6.9c0,0.6,0.1,1.1,0.3,1.3c0.2,0.2,0.6,0.3,1.3,0.3c0.2,0,0.4,0,0.6,0c0.2,0,0.4,0,0.6-0.1
	v3c-0.3,0.1-0.7,0.1-1.1,0.1c-0.4,0-0.8,0-1.2,0c-0.6,0-1.2,0-1.7-0.1c-0.5-0.1-1-0.2-1.4-0.5c-0.4-0.2-0.7-0.6-1-1
	c-0.2-0.4-0.4-1-0.4-1.7v-8.2h-2.3v-2.6h2.3v-4.2h3.8v4.2H32.3z M37.7,47.9v7.3h0.1c0.5-0.8,1.1-1.4,1.9-1.8
	c0.8-0.4,1.5-0.6,2.2-0.6c1,0,1.9,0.1,2.5,0.4c0.7,0.3,1.2,0.7,1.6,1.2c0.4,0.5,0.6,1.1,0.8,1.8c0.2,0.7,0.2,1.5,0.2,2.4v8.6h-3.8
	v-7.9c0-1.2-0.2-2-0.5-2.6c-0.4-0.6-1-0.9-1.9-0.9c-1,0-1.8,0.3-2.3,0.9c-0.5,0.6-0.7,1.6-0.7,3.1v7.3h-3.8V47.9H37.7z M53.2,57.6
	c0.1-0.8,0.3-1.3,0.8-1.6c0.4-0.3,1-0.5,1.8-0.5c0.3,0,0.7,0,1,0.1c0.3,0,0.6,0.1,0.8,0.3c0.2,0.1,0.4,0.3,0.5,0.6s0.2,0.6,0.2,1
	c0,0.4-0.1,0.7-0.4,0.9c-0.3,0.2-0.6,0.4-1,0.5c-0.4,0.1-0.9,0.2-1.5,0.2c-0.6,0.1-1.1,0.1-1.7,0.2c-0.6,0.1-1.1,0.2-1.7,0.4
	c-0.6,0.2-1.1,0.4-1.5,0.7c-0.4,0.3-0.8,0.7-1.1,1.2c-0.3,0.5-0.4,1.2-0.4,2c0,0.7,0.1,1.3,0.4,1.9c0.2,0.5,0.6,1,1,1.3
	c0.4,0.3,0.9,0.6,1.5,0.8c0.6,0.2,1.2,0.2,1.9,0.2c0.9,0,1.7-0.1,2.5-0.4c0.8-0.3,1.5-0.7,2.2-1.3c0,0.2,0,0.5,0.1,0.7
	c0,0.2,0.1,0.4,0.2,0.7h3.9c-0.2-0.3-0.3-0.7-0.4-1.3c-0.1-0.6-0.1-1.2-0.1-1.8v-7.3c0-0.8-0.2-1.5-0.6-2s-0.9-0.9-1.5-1.2
	c-0.6-0.3-1.3-0.5-2-0.6c-0.7-0.1-1.4-0.1-2.1-0.1c-0.8,0-1.5,0.1-2.3,0.2c-0.8,0.2-1.5,0.4-2.1,0.8c-0.6,0.4-1.1,0.8-1.5,1.4
	c-0.4,0.6-0.6,1.3-0.7,2.2H53.2z M58.3,61.8c0,0.2,0,0.5-0.1,0.9c0,0.4-0.2,0.7-0.4,1.1c-0.2,0.4-0.5,0.7-0.9,0.9
	c-0.4,0.3-1,0.4-1.8,0.4c-0.3,0-0.6,0-0.9-0.1c-0.3-0.1-0.5-0.1-0.8-0.3c-0.2-0.1-0.4-0.3-0.5-0.6c-0.1-0.2-0.2-0.5-0.2-0.9
	c0-0.4,0.1-0.7,0.2-0.9c0.1-0.2,0.3-0.4,0.5-0.6c0.2-0.2,0.4-0.3,0.7-0.4c0.3-0.1,0.6-0.2,0.9-0.2c0.3-0.1,0.6-0.1,0.9-0.1
	c0.3,0,0.6-0.1,0.9-0.1c0.3-0.1,0.5-0.1,0.8-0.2c0.2-0.1,0.4-0.2,0.6-0.3V61.8z M72.5,53.3v2.6h-2.8v6.9c0,0.6,0.1,1.1,0.3,1.3
	c0.2,0.2,0.6,0.3,1.3,0.3c0.2,0,0.4,0,0.6,0c0.2,0,0.4,0,0.6-0.1v3c-0.3,0.1-0.7,0.1-1.1,0.1c-0.4,0-0.8,0-1.2,0
	c-0.6,0-1.2,0-1.7-0.1c-0.5-0.1-1-0.2-1.4-0.5c-0.4-0.2-0.7-0.6-1-1c-0.2-0.4-0.4-1-0.4-1.7v-8.2h-2.3v-2.6h2.3v-4.2h3.8v4.2H72.5z
	 M78.2,47.9v4.1c0,0.6-0.1,1.2-0.3,1.7c-0.2,0.5-0.5,1-0.8,1.4c-0.3,0.4-0.8,0.7-1.2,1c-0.5,0.3-1,0.4-1.6,0.5v-1.8
	c0.7-0.2,1.2-0.6,1.4-1c0.3-0.5,0.4-1,0.4-1.7h-1.8v-4.2H78.2z M82.5,63.7c0.2,0.3,0.4,0.5,0.7,0.7c0.3,0.2,0.6,0.3,0.9,0.4
	c0.4,0.1,0.7,0.1,1.1,0.1c0.3,0,0.6,0,0.9-0.1c0.3-0.1,0.6-0.2,0.8-0.3c0.2-0.1,0.4-0.3,0.6-0.5c0.2-0.2,0.2-0.5,0.2-0.9
	c0-0.6-0.4-1-1.1-1.3c-0.8-0.3-1.8-0.6-3.2-0.9c-0.6-0.1-1.1-0.3-1.6-0.4c-0.5-0.2-1-0.4-1.4-0.7c-0.4-0.3-0.7-0.6-1-1.1
	c-0.3-0.4-0.4-0.9-0.4-1.6c0-0.9,0.2-1.6,0.5-2.2c0.4-0.6,0.8-1,1.4-1.4c0.6-0.3,1.2-0.6,1.9-0.7c0.7-0.1,1.5-0.2,2.2-0.2
	c0.8,0,1.5,0.1,2.2,0.2c0.7,0.1,1.3,0.4,1.9,0.7c0.6,0.3,1,0.8,1.4,1.4c0.4,0.6,0.6,1.3,0.7,2.1h-3.6c-0.1-0.7-0.3-1.2-0.8-1.5
	c-0.5-0.3-1.1-0.4-1.8-0.4c-0.2,0-0.5,0-0.7,0c-0.3,0-0.5,0.1-0.7,0.2c-0.2,0.1-0.4,0.2-0.5,0.4c-0.1,0.2-0.2,0.4-0.2,0.7
	c0,0.3,0.1,0.6,0.4,0.8c0.3,0.2,0.6,0.4,1,0.5c0.4,0.1,0.9,0.3,1.4,0.4c0.5,0.1,1.1,0.2,1.6,0.4c0.6,0.1,1.1,0.3,1.6,0.5
	c0.5,0.2,1,0.4,1.4,0.7c0.4,0.3,0.7,0.7,1,1.1c0.3,0.4,0.4,1,0.4,1.6c0,0.9-0.2,1.7-0.6,2.3c-0.4,0.6-0.9,1.1-1.4,1.5
	c-0.6,0.4-1.3,0.6-2,0.8c-0.8,0.2-1.5,0.2-2.3,0.2c-0.8,0-1.6-0.1-2.4-0.2c-0.8-0.2-1.5-0.4-2.1-0.8c-0.6-0.4-1.1-0.9-1.5-1.5
	c-0.4-0.6-0.6-1.4-0.6-2.3h3.6C82.2,63.1,82.3,63.5,82.5,63.7z M104.4,57.6c0.1-0.8,0.3-1.3,0.8-1.6s1-0.5,1.8-0.5
	c0.3,0,0.7,0,1,0.1c0.3,0,0.6,0.1,0.8,0.3c0.2,0.1,0.4,0.3,0.5,0.6s0.2,0.6,0.2,1c0,0.4-0.1,0.7-0.4,0.9c-0.3,0.2-0.6,0.4-1,0.5
	c-0.4,0.1-0.9,0.2-1.5,0.2c-0.6,0.1-1.1,0.1-1.7,0.2c-0.6,0.1-1.1,0.2-1.7,0.4c-0.6,0.2-1.1,0.4-1.5,0.7c-0.4,0.3-0.8,0.7-1.1,1.2
	c-0.3,0.5-0.4,1.2-0.4,2c0,0.7,0.1,1.3,0.4,1.9c0.2,0.5,0.6,1,1,1.3c0.4,0.3,0.9,0.6,1.5,0.8c0.6,0.2,1.2,0.2,1.9,0.2
	c0.9,0,1.7-0.1,2.5-0.4c0.8-0.3,1.5-0.7,2.2-1.3c0,0.2,0,0.5,0.1,0.7c0,0.2,0.1,0.4,0.2,0.7h3.9c-0.2-0.3-0.3-0.7-0.4-1.3
	c-0.1-0.6-0.1-1.2-0.1-1.8v-7.3c0-0.8-0.2-1.5-0.6-2s-0.9-0.9-1.5-1.2c-0.6-0.3-1.3-0.5-2-0.6c-0.7-0.1-1.4-0.1-2.1-0.1
	c-0.8,0-1.5,0.1-2.3,0.2c-0.8,0.2-1.5,0.4-2.1,0.8c-0.6,0.4-1.1,0.8-1.5,1.4c-0.4,0.6-0.6,1.3-0.7,2.2H104.4z M109.4,61.8
	c0,0.2,0,0.5-0.1,0.9c0,0.4-0.2,0.7-0.4,1.1c-0.2,0.4-0.5,0.7-0.9,0.9c-0.4,0.3-1,0.4-1.8,0.4c-0.3,0-0.6,0-0.9-0.1
	c-0.3-0.1-0.5-0.1-0.8-0.3c-0.2-0.1-0.4-0.3-0.5-0.6c-0.1-0.2-0.2-0.5-0.2-0.9c0-0.4,0.1-0.7,0.2-0.9c0.1-0.2,0.3-0.4,0.5-0.6
	c0.2-0.2,0.4-0.3,0.7-0.4c0.3-0.1,0.6-0.2,0.9-0.2c0.3-0.1,0.6-0.1,0.9-0.1c0.3,0,0.6-0.1,0.9-0.1c0.3-0.1,0.5-0.1,0.8-0.2
	c0.2-0.1,0.4-0.2,0.6-0.3V61.8z M119.9,47.9v19.3h-3.8V47.9H119.9z M125.9,63.7c0.2,0.3,0.4,0.5,0.7,0.7c0.3,0.2,0.6,0.3,0.9,0.4
	c0.4,0.1,0.7,0.1,1.1,0.1c0.3,0,0.6,0,0.9-0.1c0.3-0.1,0.6-0.2,0.8-0.3c0.2-0.1,0.4-0.3,0.6-0.5c0.2-0.2,0.2-0.5,0.2-0.9
	c0-0.6-0.4-1-1.1-1.3c-0.8-0.3-1.8-0.6-3.2-0.9c-0.6-0.1-1.1-0.3-1.6-0.4c-0.5-0.2-1-0.4-1.4-0.7c-0.4-0.3-0.7-0.6-1-1.1
	c-0.3-0.4-0.4-0.9-0.4-1.6c0-0.9,0.2-1.6,0.5-2.2c0.4-0.6,0.8-1,1.4-1.4c0.6-0.3,1.2-0.6,1.9-0.7c0.7-0.1,1.5-0.2,2.2-0.2
	c0.8,0,1.5,0.1,2.2,0.2c0.7,0.1,1.3,0.4,1.9,0.7c0.6,0.3,1,0.8,1.4,1.4c0.4,0.6,0.6,1.3,0.7,2.1h-3.6c-0.1-0.7-0.3-1.2-0.8-1.5
	c-0.5-0.3-1.1-0.4-1.8-0.4c-0.2,0-0.5,0-0.7,0c-0.3,0-0.5,0.1-0.7,0.2c-0.2,0.1-0.4,0.2-0.5,0.4c-0.1,0.2-0.2,0.4-0.2,0.7
	c0,0.3,0.1,0.6,0.4,0.8c0.3,0.2,0.6,0.4,1,0.5c0.4,0.1,0.9,0.3,1.4,0.4c0.5,0.1,1.1,0.2,1.6,0.4c0.6,0.1,1.1,0.3,1.6,0.5
	c0.5,0.2,1,0.4,1.4,0.7c0.4,0.3,0.7,0.7,1,1.1c0.3,0.4,0.4,1,0.4,1.6c0,0.9-0.2,1.7-0.6,2.3c-0.4,0.6-0.9,1.1-1.4,1.5
	c-0.6,0.4-1.3,0.6-2,0.8c-0.8,0.2-1.5,0.2-2.3,0.2c-0.8,0-1.6-0.1-2.4-0.2c-0.8-0.2-1.5-0.4-2.1-0.8c-0.6-0.4-1.1-0.9-1.5-1.5
	c-0.4-0.6-0.6-1.4-0.6-2.3h3.6C125.6,63.1,125.7,63.5,125.9,63.7z M137,57.2c0.3-0.9,0.8-1.7,1.5-2.3c0.6-0.6,1.4-1.1,2.3-1.5
	c0.9-0.4,1.9-0.5,3-0.5c1.1,0,2.1,0.2,3,0.5c0.9,0.4,1.7,0.8,2.3,1.5c0.6,0.6,1.1,1.4,1.5,2.3c0.3,0.9,0.5,1.9,0.5,3
	c0,1.1-0.2,2.1-0.5,3c-0.3,0.9-0.8,1.7-1.5,2.3c-0.6,0.6-1.4,1.1-2.3,1.5c-0.9,0.3-1.9,0.5-3,0.5c-1.1,0-2.1-0.2-3-0.5
	c-0.9-0.3-1.6-0.8-2.3-1.5c-0.6-0.6-1.1-1.4-1.5-2.3c-0.3-0.9-0.5-1.9-0.5-3C136.5,59.1,136.6,58.1,137,57.2z M140.5,61.9
	c0.1,0.5,0.3,1,0.6,1.4c0.3,0.4,0.6,0.8,1,1c0.4,0.3,1,0.4,1.6,0.4s1.2-0.1,1.6-0.4c0.4-0.3,0.8-0.6,1.1-1c0.3-0.4,0.4-0.9,0.6-1.4
	c0.1-0.5,0.2-1.1,0.2-1.6c0-0.6-0.1-1.1-0.2-1.6s-0.3-1-0.6-1.4c-0.3-0.4-0.6-0.8-1.1-1c-0.4-0.3-1-0.4-1.6-0.4s-1.2,0.1-1.6,0.4
	c-0.4,0.3-0.8,0.6-1,1c-0.3,0.4-0.4,0.9-0.6,1.4s-0.2,1.1-0.2,1.6C140.3,60.8,140.3,61.4,140.5,61.9z M164,57.6
	c0.1-0.8,0.3-1.3,0.8-1.6c0.4-0.3,1-0.5,1.8-0.5c0.3,0,0.7,0,1,0.1c0.3,0,0.6,0.1,0.8,0.3c0.2,0.1,0.4,0.3,0.5,0.6
	c0.1,0.2,0.2,0.6,0.2,1c0,0.4-0.1,0.7-0.4,0.9c-0.3,0.2-0.6,0.4-1,0.5c-0.4,0.1-0.9,0.2-1.5,0.2c-0.6,0.1-1.1,0.1-1.7,0.2
	c-0.6,0.1-1.1,0.2-1.7,0.4c-0.6,0.2-1.1,0.4-1.5,0.7c-0.4,0.3-0.8,0.7-1.1,1.2c-0.3,0.5-0.4,1.2-0.4,2c0,0.7,0.1,1.3,0.4,1.9
	c0.2,0.5,0.6,1,1,1.3c0.4,0.3,0.9,0.6,1.5,0.8c0.6,0.2,1.2,0.2,1.9,0.2c0.9,0,1.7-0.1,2.5-0.4c0.8-0.3,1.5-0.7,2.2-1.3
	c0,0.2,0,0.5,0.1,0.7c0,0.2,0.1,0.4,0.2,0.7h3.9c-0.2-0.3-0.3-0.7-0.4-1.3c-0.1-0.6-0.1-1.2-0.1-1.8v-7.3c0-0.8-0.2-1.5-0.6-2
	c-0.4-0.5-0.9-0.9-1.5-1.2c-0.6-0.3-1.3-0.5-2-0.6c-0.7-0.1-1.4-0.1-2.1-0.1c-0.8,0-1.5,0.1-2.3,0.2c-0.8,0.2-1.5,0.4-2.1,0.8
	c-0.6,0.4-1.1,0.8-1.5,1.4c-0.4,0.6-0.6,1.3-0.7,2.2H164z M169,61.8c0,0.2,0,0.5-0.1,0.9c0,0.4-0.2,0.7-0.4,1.1
	c-0.2,0.4-0.5,0.7-0.9,0.9c-0.4,0.3-1,0.4-1.8,0.4c-0.3,0-0.6,0-0.9-0.1c-0.3-0.1-0.5-0.1-0.8-0.3c-0.2-0.1-0.4-0.3-0.5-0.6
	c-0.1-0.2-0.2-0.5-0.2-0.9c0-0.4,0.1-0.7,0.2-0.9c0.1-0.2,0.3-0.4,0.5-0.6c0.2-0.2,0.4-0.3,0.7-0.4c0.3-0.1,0.6-0.2,0.9-0.2
	c0.3-0.1,0.6-0.1,0.9-0.1c0.3,0,0.6-0.1,0.9-0.1c0.3-0.1,0.5-0.1,0.8-0.2c0.2-0.1,0.4-0.2,0.6-0.3V61.8z M184.6,67.2h3.8V55.8h2.6
	v-2.6h-2.6v-0.8c0-0.6,0.1-1,0.3-1.2c0.2-0.2,0.6-0.4,1.1-0.4c0.5,0,0.9,0,1.4,0.1V48c-0.3,0-0.7,0-1-0.1c-0.3,0-0.7,0-1,0
	c-1.6,0-2.7,0.4-3.5,1.2c-0.8,0.8-1.2,1.8-1.2,3.1v1.1h-4.3v-0.8c0-0.6,0.1-1,0.3-1.2c0.2-0.2,0.6-0.4,1.1-0.4c0.5,0,0.9,0,1.4,0.1
	V48c-0.3,0-0.7,0-1-0.1c-0.3,0-0.7,0-1,0c-1.6,0-2.7,0.4-3.5,1.2c-0.8,0.8-1.2,1.8-1.2,3.1v1.1h-2.3v2.6h2.3v11.4h3.8V55.8h4.3V67.2
	z M192.6,57.2c0.3-0.9,0.8-1.7,1.5-2.3c0.6-0.6,1.4-1.1,2.3-1.5c0.9-0.4,1.9-0.5,3-0.5c1.1,0,2.1,0.2,3,0.5c0.9,0.4,1.7,0.8,2.3,1.5
	c0.6,0.6,1.1,1.4,1.5,2.3c0.3,0.9,0.5,1.9,0.5,3c0,1.1-0.2,2.1-0.5,3c-0.3,0.9-0.8,1.7-1.5,2.3c-0.6,0.6-1.4,1.1-2.3,1.5
	c-0.9,0.3-1.9,0.5-3,0.5c-1.1,0-2.1-0.2-3-0.5c-0.9-0.3-1.6-0.8-2.3-1.5c-0.6-0.6-1.1-1.4-1.5-2.3c-0.3-0.9-0.5-1.9-0.5-3
	C192.1,59.1,192.2,58.1,192.6,57.2z M196,61.9c0.1,0.5,0.3,1,0.6,1.4c0.3,0.4,0.6,0.8,1,1c0.4,0.3,1,0.4,1.6,0.4s1.2-0.1,1.6-0.4
	c0.4-0.3,0.8-0.6,1.1-1c0.3-0.4,0.4-0.9,0.6-1.4c0.1-0.5,0.2-1.1,0.2-1.6c0-0.6-0.1-1.1-0.2-1.6s-0.3-1-0.6-1.4
	c-0.3-0.4-0.6-0.8-1.1-1c-0.4-0.3-1-0.4-1.6-0.4s-1.2,0.1-1.6,0.4c-0.4,0.3-0.8,0.6-1,1c-0.3,0.4-0.4,0.9-0.6,1.4s-0.2,1.1-0.2,1.6
	C195.9,60.8,195.9,61.4,196,61.9z M212.4,53.3v2.6h0.1c0.2-0.4,0.4-0.8,0.7-1.2c0.3-0.4,0.7-0.7,1.1-0.9c0.4-0.3,0.8-0.5,1.3-0.6
	c0.4-0.1,0.9-0.2,1.4-0.2c0.3,0,0.5,0,0.8,0.1v3.6c-0.2,0-0.4-0.1-0.6-0.1c-0.3,0-0.5,0-0.7,0c-0.7,0-1.3,0.1-1.8,0.4
	c-0.5,0.2-0.9,0.6-1.2,1c-0.3,0.4-0.5,0.9-0.6,1.4c-0.1,0.5-0.2,1.1-0.2,1.8v6.3h-3.8v-14H212.4z M228.4,65.4
	c-0.5,0.8-1,1.3-1.8,1.6c-0.7,0.3-1.6,0.5-2.5,0.5c-1,0-2-0.2-2.8-0.6c-0.8-0.4-1.4-1-2-1.6c-0.5-0.7-0.9-1.5-1.2-2.4
	c-0.3-0.9-0.4-1.8-0.4-2.8c0-0.9,0.1-1.8,0.4-2.7c0.3-0.9,0.6-1.6,1.2-2.3c0.5-0.7,1.2-1.2,1.9-1.6c0.8-0.4,1.7-0.6,2.7-0.6
	c0.8,0,1.6,0.2,2.4,0.5c0.7,0.4,1.3,0.9,1.8,1.6h0.1v-7h3.8v19.3h-3.6L228.4,65.4L228.4,65.4z M228.2,58.5c-0.1-0.5-0.3-1-0.6-1.4
	c-0.3-0.4-0.6-0.7-1-1c-0.4-0.3-0.9-0.4-1.6-0.4c-0.6,0-1.2,0.1-1.6,0.4c-0.4,0.3-0.8,0.6-1,1c-0.3,0.4-0.5,0.9-0.6,1.4
	c-0.1,0.5-0.2,1.1-0.2,1.7c0,0.5,0.1,1.1,0.2,1.6c0.1,0.5,0.3,1,0.6,1.4c0.3,0.4,0.6,0.8,1.1,1c0.4,0.3,0.9,0.4,1.5,0.4
	c0.6,0,1.2-0.1,1.6-0.4c0.4-0.3,0.8-0.6,1-1c0.3-0.4,0.4-0.9,0.5-1.4s0.2-1.1,0.2-1.7C228.4,59.6,228.3,59.1,228.2,58.5z
	 M238.4,57.6c0.1-0.8,0.3-1.3,0.8-1.6c0.4-0.3,1-0.5,1.8-0.5c0.3,0,0.7,0,1,0.1c0.3,0,0.6,0.1,0.8,0.3c0.2,0.1,0.4,0.3,0.5,0.6
	c0.1,0.2,0.2,0.6,0.2,1c0,0.4-0.1,0.7-0.4,0.9c-0.3,0.2-0.6,0.4-1,0.5c-0.4,0.1-0.9,0.2-1.5,0.2c-0.6,0.1-1.1,0.1-1.7,0.2
	c-0.6,0.1-1.1,0.2-1.7,0.4c-0.6,0.2-1.1,0.4-1.5,0.7c-0.4,0.3-0.8,0.7-1.1,1.2c-0.3,0.5-0.4,1.2-0.4,2c0,0.7,0.1,1.3,0.4,1.9
	c0.2,0.5,0.6,1,1,1.3c0.4,0.3,0.9,0.6,1.5,0.8c0.6,0.2,1.2,0.2,1.9,0.2c0.9,0,1.7-0.1,2.5-0.4c0.8-0.3,1.5-0.7,2.2-1.3
	c0,0.2,0,0.5,0.1,0.7c0,0.2,0.1,0.4,0.2,0.7h3.9c-0.2-0.3-0.3-0.7-0.4-1.3c-0.1-0.6-0.1-1.2-0.1-1.8v-7.3c0-0.8-0.2-1.5-0.6-2
	c-0.4-0.5-0.9-0.9-1.5-1.2c-0.6-0.3-1.3-0.5-2-0.6c-0.7-0.1-1.4-0.1-2.1-0.1c-0.8,0-1.5,0.1-2.3,0.2c-0.8,0.2-1.5,0.4-2.1,0.8
	c-0.6,0.4-1.1,0.8-1.5,1.4c-0.4,0.6-0.6,1.3-0.7,2.2H238.4z M243.4,61.8c0,0.2,0,0.5-0.1,0.9c0,0.4-0.2,0.7-0.4,1.1
	c-0.2,0.4-0.5,0.7-0.9,0.9c-0.4,0.3-1,0.4-1.8,0.4c-0.3,0-0.6,0-0.9-0.1c-0.3-0.1-0.5-0.1-0.8-0.3c-0.2-0.1-0.4-0.3-0.5-0.6
	c-0.1-0.2-0.2-0.5-0.2-0.9c0-0.4,0.1-0.7,0.2-0.9c0.1-0.2,0.3-0.4,0.5-0.6c0.2-0.2,0.4-0.3,0.7-0.4c0.3-0.1,0.6-0.2,0.9-0.2
	c0.3-0.1,0.6-0.1,0.9-0.1c0.3,0,0.6-0.1,0.9-0.1c0.3-0.1,0.5-0.1,0.8-0.2c0.2-0.1,0.4-0.2,0.6-0.3V61.8z M253.7,47.9v7h0.1
	c0.5-0.7,1.1-1.2,1.9-1.6c0.8-0.3,1.6-0.5,2.5-0.5c0.7,0,1.4,0.1,2.1,0.4c0.7,0.3,1.3,0.7,1.8,1.3c0.5,0.6,1,1.4,1.3,2.3
	c0.3,0.9,0.5,2,0.5,3.3c0,1.3-0.2,2.4-0.5,3.3c-0.3,0.9-0.8,1.7-1.3,2.3c-0.5,0.6-1.2,1-1.8,1.3c-0.7,0.3-1.4,0.4-2.1,0.4
	c-1,0-1.9-0.2-2.8-0.5c-0.8-0.3-1.4-0.9-1.8-1.6h-0.1v1.8h-3.6V47.9H253.7z M260,58.6c-0.1-0.5-0.3-1-0.6-1.4c-0.3-0.4-0.6-0.7-1-1
	s-0.9-0.4-1.5-0.4c-0.6,0-1,0.1-1.5,0.4c-0.4,0.2-0.8,0.6-1,1c-0.3,0.4-0.5,0.9-0.6,1.4c-0.1,0.5-0.2,1.1-0.2,1.7
	c0,0.6,0.1,1.1,0.2,1.7c0.1,0.5,0.3,1,0.6,1.4c0.3,0.4,0.6,0.7,1,1c0.4,0.2,0.9,0.4,1.5,0.4c0.6,0,1.1-0.1,1.5-0.4
	c0.4-0.2,0.7-0.6,1-1c0.3-0.4,0.5-0.9,0.6-1.4c0.1-0.5,0.2-1.1,0.2-1.7C260.1,59.7,260.1,59.1,260,58.6z M270.1,47.9v19.3h-3.8V47.9
	H270.1z M276.9,63.9c0.6,0.6,1.4,0.8,2.5,0.8c0.8,0,1.4-0.2,2-0.6c0.6-0.4,0.9-0.8,1-1.2h3.4c-0.5,1.7-1.4,2.9-2.5,3.6
	c-1.1,0.7-2.5,1.1-4,1.1c-1.1,0-2.1-0.2-3-0.5c-0.9-0.4-1.6-0.9-2.2-1.5c-0.6-0.6-1.1-1.4-1.4-2.3c-0.3-0.9-0.5-1.9-0.5-3
	c0-1,0.2-2,0.5-2.9c0.3-0.9,0.8-1.7,1.5-2.3c0.6-0.7,1.4-1.2,2.3-1.6c0.9-0.4,1.8-0.6,2.9-0.6c1.2,0,2.2,0.2,3.1,0.7
	c0.9,0.5,1.6,1.1,2.2,1.8c0.6,0.8,1,1.7,1.2,2.6c0.3,1,0.3,2,0.3,3.1H276C276,62.4,276.4,63.3,276.9,63.9z M281.3,56.5
	c-0.5-0.5-1.2-0.8-2.1-0.8c-0.6,0-1.1,0.1-1.5,0.3c-0.4,0.2-0.7,0.5-1,0.8c-0.2,0.3-0.4,0.6-0.5,1c-0.1,0.3-0.2,0.6-0.2,0.9h6.2
	C282.1,57.8,281.7,57,281.3,56.5z M292.5,63.1v4.2h-4.2v-4.2H292.5z"/>
</svg>
