<?xml version="1.0" encoding="utf-8"?>
<!-- Generator: Adobe Illustrator 26.3.1, SVG Export Plug-In . SVG Version: 6.00 Build 0)  -->
<svg version="1.1" id="Layer_1" xmlns="http://www.w3.org/2000/svg" xmlns:xlink="http://www.w3.org/1999/xlink" x="0px" y="0px"
	 viewBox="0 0 728 90" style="enable-background:new 0 0 728 90;" xml:space="preserve">
<style type="text/css">
	.st0{fill:#339933;}
	.st1{fill:#231F20;}
</style>
<g>
	<path class="st0" d="M29.3,19v15.7h9.4v3.6H25V19H29.3z"/>
	<path class="st0" d="M55.5,19v3.6H45.3v4.1h9.3V30h-9.3v4.7h10.4v3.6H41.1V19H55.5z"/>
	<path class="st0" d="M68.2,19l7.2,19.3H71L69.5,34h-7.2l-1.5,4.3h-4.3L63.8,19H68.2z M68.4,30.9L66,23.8h-0.1l-2.5,7.1H68.4z"/>
	<path class="st0" d="M80,38.3L73.8,19h4.3l4.3,13.6h0.1L86.8,19h4.4l-6.4,19.3H80z"/>
	<path class="st0" d="M107.3,19v3.6H97.1v4.1h9.3V30h-9.3v4.7h10.4v3.6H92.8V19H107.3z"/>
	<path class="st0" d="M121.1,24.4v1.9h0.1c0.5-0.8,1.1-1.4,1.9-1.8c0.8-0.4,1.6-0.6,2.4-0.6c1,0,1.9,0.1,2.5,0.4
		c0.7,0.3,1.2,0.7,1.6,1.2s0.6,1.1,0.8,1.8c0.2,0.7,0.2,1.5,0.2,2.4v8.6h-3.8v-7.9c0-1.2-0.2-2-0.5-2.6c-0.4-0.6-1-0.9-1.9-0.9
		c-1,0-1.8,0.3-2.3,0.9c-0.5,0.6-0.7,1.6-0.7,3.1v7.3h-3.8v-14H121.1z"/>
	<path class="st0" d="M133.5,28.3c0.3-0.9,0.8-1.7,1.5-2.3c0.6-0.6,1.4-1.1,2.3-1.5c0.9-0.4,1.9-0.5,3-0.5c1.1,0,2.1,0.2,3,0.5
		c0.9,0.4,1.7,0.8,2.3,1.5c0.6,0.6,1.1,1.4,1.5,2.3c0.3,0.9,0.5,1.9,0.5,3s-0.2,2.1-0.5,3c-0.3,0.9-0.8,1.7-1.5,2.3
		c-0.6,0.6-1.4,1.1-2.3,1.5c-0.9,0.3-1.9,0.5-3,0.5c-1.1,0-2.1-0.2-3-0.5c-0.9-0.3-1.6-0.8-2.3-1.5c-0.6-0.6-1.1-1.4-1.5-2.3
		c-0.3-0.9-0.5-1.9-0.5-3S133.2,29.2,133.5,28.3z M137,33c0.1,0.5,0.3,1,0.6,1.4c0.3,0.4,0.6,0.8,1,1c0.4,0.3,1,0.4,1.6,0.4
		s1.2-0.1,1.6-0.4c0.4-0.3,0.8-0.6,1.1-1c0.3-0.4,0.4-0.9,0.6-1.4c0.1-0.5,0.2-1.1,0.2-1.6s-0.1-1.1-0.2-1.6c-0.1-0.5-0.3-1-0.6-1.4
		c-0.3-0.4-0.6-0.8-1.1-1c-0.4-0.3-1-0.4-1.6-0.4s-1.2,0.1-1.6,0.4c-0.4,0.3-0.8,0.6-1,1c-0.3,0.4-0.4,0.9-0.6,1.4
		c-0.1,0.5-0.2,1.1-0.2,1.6S136.9,32.5,137,33z"/>
	<path class="st0" d="M156.3,22.6V19h15.8v3.6h-5.8v15.7h-4.2V22.6H156.3z"/>
	<path class="st0" d="M174.2,24.8c0.4-1.2,1.1-2.3,1.9-3.2s1.8-1.6,3-2.2c1.2-0.5,2.5-0.8,4-0.8c1.5,0,2.8,0.3,4,0.8
		c1.2,0.5,2.2,1.2,3,2.2c0.8,0.9,1.4,2,1.9,3.2s0.6,2.6,0.6,4c0,1.4-0.2,2.7-0.6,3.9c-0.4,1.2-1.1,2.3-1.9,3.2
		c-0.8,0.9-1.8,1.6-3,2.1c-1.2,0.5-2.5,0.8-4,0.8c-1.5,0-2.8-0.3-4-0.8c-1.2-0.5-2.2-1.2-3-2.1c-0.8-0.9-1.4-2-1.9-3.2
		c-0.4-1.2-0.6-2.5-0.6-3.9C173.5,27.3,173.7,26,174.2,24.8z M178,31.1c0.2,0.8,0.5,1.5,0.9,2.1c0.4,0.6,1,1.1,1.6,1.5
		c0.7,0.4,1.5,0.6,2.4,0.6s1.8-0.2,2.4-0.6c0.7-0.4,1.2-0.9,1.6-1.5c0.4-0.6,0.7-1.3,0.9-2.1s0.3-1.6,0.3-2.4c0-0.8-0.1-1.7-0.3-2.5
		c-0.2-0.8-0.5-1.5-0.9-2.1c-0.4-0.6-1-1.1-1.6-1.5c-0.7-0.4-1.5-0.6-2.4-0.6s-1.8,0.2-2.4,0.6c-0.7,0.4-1.2,0.9-1.6,1.5
		c-0.4,0.6-0.7,1.3-0.9,2.1c-0.2,0.8-0.3,1.6-0.3,2.5C177.8,29.6,177.9,30.4,178,31.1z"/>
	<path class="st0" d="M195.2,24.8c0.4-1.2,1.1-2.3,1.9-3.2s1.8-1.6,3-2.2c1.2-0.5,2.5-0.8,4-0.8c1.5,0,2.8,0.3,4,0.8
		c1.2,0.5,2.2,1.2,3,2.2c0.8,0.9,1.4,2,1.9,3.2s0.6,2.6,0.6,4c0,1.4-0.2,2.7-0.6,3.9c-0.4,1.2-1.1,2.3-1.9,3.2
		c-0.8,0.9-1.8,1.6-3,2.1c-1.2,0.5-2.5,0.8-4,0.8c-1.5,0-2.8-0.3-4-0.8c-1.2-0.5-2.2-1.2-3-2.1c-0.8-0.9-1.4-2-1.9-3.2
		c-0.4-1.2-0.6-2.5-0.6-3.9C194.5,27.3,194.7,26,195.2,24.8z M199,31.1c0.2,0.8,0.5,1.5,0.9,2.1c0.4,0.6,1,1.1,1.6,1.5
		c0.7,0.4,1.5,0.6,2.4,0.6s1.8-0.2,2.4-0.6c0.7-0.4,1.2-0.9,1.6-1.5c0.4-0.6,0.7-1.3,0.9-2.1s0.3-1.6,0.3-2.4c0-0.8-0.1-1.7-0.3-2.5
		c-0.2-0.8-0.5-1.5-0.9-2.1c-0.4-0.6-1-1.1-1.6-1.5c-0.7-0.4-1.5-0.6-2.4-0.6s-1.8,0.2-2.4,0.6c-0.7,0.4-1.2,0.9-1.6,1.5
		c-0.4,0.6-0.7,1.3-0.9,2.1c-0.2,0.8-0.3,1.6-0.3,2.5C198.8,29.6,198.9,30.4,199,31.1z"/>
	<path class="st0" d="M214.9,22.6V19h15.8v3.6h-5.8v15.7h-4.2V22.6H214.9z"/>
	<path class="st0" d="M237.1,19v7.4h7.8V19h4.2v19.3h-4.2V30h-7.8v8.3h-4.2V19H237.1z"/>
</g>
<g>
	<path class="st1" d="M39.2,64.9c-1.5,1.3-3.5,1.9-6,1.9c-2.6,0-4.6-0.6-6.1-1.9C25.7,63.6,25,61.7,25,59V47h4.2v12
		c0,0.5,0,1,0.1,1.5c0.1,0.5,0.3,0.9,0.6,1.3c0.3,0.4,0.7,0.7,1.2,0.9c0.5,0.2,1.2,0.4,2.1,0.4c1.5,0,2.6-0.3,3.1-1
		c0.6-0.7,0.9-1.7,0.9-3.2V47h4.2v12C41.4,61.6,40.7,63.6,39.2,64.9z"/>
	<path class="st1" d="M49.3,47l8,12.9h0.1V47h4v19.3h-4.2l-8-12.9H49v12.9h-4V47H49.3z"/>
	<path class="st1" d="M74.1,47c0.9,0,1.8,0.1,2.5,0.2c0.8,0.2,1.4,0.4,1.9,0.8s1,0.9,1.3,1.5c0.3,0.6,0.4,1.4,0.4,2.3
		c0,1-0.2,1.8-0.7,2.4c-0.4,0.6-1.1,1.2-2,1.6c1.2,0.3,2.1,0.9,2.7,1.8c0.6,0.9,0.9,1.9,0.9,3.1c0,1-0.2,1.8-0.6,2.5
		s-0.9,1.3-1.5,1.7c-0.6,0.5-1.4,0.8-2.2,1c-0.8,0.2-1.7,0.3-2.5,0.3h-9.3V47H74.1z M73.6,54.8c0.8,0,1.4-0.2,1.9-0.5
		c0.5-0.4,0.7-0.9,0.7-1.8c0-0.5-0.1-0.8-0.2-1.1c-0.2-0.3-0.4-0.5-0.6-0.7s-0.6-0.3-0.9-0.3c-0.4-0.1-0.7-0.1-1.1-0.1h-4v4.5H73.6z
		 M73.8,63c0.4,0,0.8,0,1.2-0.1c0.4-0.1,0.7-0.2,1-0.4c0.3-0.2,0.5-0.4,0.7-0.8c0.2-0.3,0.3-0.7,0.3-1.2c0-1-0.3-1.7-0.8-2.1
		c-0.6-0.4-1.3-0.6-2.2-0.6h-4.6V63H73.8z"/>
	<path class="st1" d="M94.5,47c0.9,0,1.6,0.1,2.3,0.4s1.3,0.7,1.8,1.1c0.5,0.5,0.9,1,1.1,1.7s0.4,1.3,0.4,2.1c0,1.1-0.2,2.1-0.7,2.9
		c-0.5,0.8-1.3,1.5-2.3,1.9v0.1c0.5,0.1,1,0.4,1.3,0.7c0.3,0.3,0.6,0.6,0.8,1.1c0.2,0.4,0.4,0.9,0.5,1.3c0.1,0.5,0.2,1,0.2,1.5
		c0,0.3,0,0.7,0.1,1.1c0,0.4,0,0.8,0.1,1.3c0,0.4,0.1,0.8,0.2,1.2c0.1,0.4,0.2,0.7,0.4,1h-4.2c-0.2-0.6-0.4-1.3-0.4-2.2
		c-0.1-0.8-0.1-1.7-0.2-2.4c-0.1-1-0.5-1.7-0.9-2.2c-0.5-0.5-1.2-0.7-2.3-0.7h-4.2v7.5h-4.2V47H94.5z M93,55.8c1,0,1.7-0.2,2.2-0.6
		c0.5-0.4,0.7-1.1,0.7-2.1c0-0.9-0.2-1.6-0.7-2c-0.5-0.4-1.2-0.6-2.2-0.6h-4.6v5.4H93z"/>
	<path class="st1" d="M117.7,64.9c-1.5,1.3-3.5,1.9-6,1.9c-2.6,0-4.6-0.6-6.1-1.9c-1.4-1.3-2.1-3.2-2.1-5.8V47h4.2v12
		c0,0.5,0,1,0.1,1.5c0.1,0.5,0.3,0.9,0.6,1.3c0.3,0.4,0.7,0.7,1.2,0.9c0.5,0.2,1.2,0.4,2.1,0.4c1.5,0,2.6-0.3,3.1-1
		c0.6-0.7,0.9-1.7,0.9-3.2V47h4.2v12C119.9,61.6,119.2,63.6,117.7,64.9z"/>
	<path class="st1" d="M126.8,61.6c0.2,0.5,0.5,0.8,0.9,1.1c0.4,0.3,0.8,0.5,1.4,0.6c0.5,0.1,1.1,0.2,1.6,0.2c0.4,0,0.8,0,1.2-0.1
		c0.4-0.1,0.8-0.2,1.2-0.4c0.4-0.2,0.7-0.4,0.9-0.7c0.3-0.3,0.4-0.7,0.4-1.2c0-0.5-0.2-0.9-0.5-1.3c-0.3-0.3-0.8-0.6-1.3-0.8
		c-0.5-0.2-1.2-0.4-1.8-0.6s-1.4-0.3-2.1-0.5c-0.7-0.2-1.4-0.4-2.1-0.7c-0.7-0.3-1.3-0.6-1.8-1s-1-0.9-1.3-1.6s-0.5-1.4-0.5-2.3
		c0-1,0.2-1.8,0.6-2.6c0.4-0.7,1-1.3,1.7-1.8c0.7-0.5,1.5-0.8,2.3-1.1c0.9-0.2,1.7-0.4,2.6-0.4c1,0,2,0.1,2.9,0.3
		c0.9,0.2,1.8,0.6,2.5,1.1c0.7,0.5,1.3,1.1,1.7,1.9c0.4,0.8,0.6,1.7,0.6,2.8h-4.1c0-0.6-0.2-1.1-0.4-1.4s-0.5-0.7-0.8-0.9
		c-0.3-0.2-0.7-0.4-1.2-0.5c-0.4-0.1-0.9-0.1-1.4-0.1c-0.3,0-0.7,0-1,0.1c-0.3,0.1-0.7,0.2-0.9,0.4c-0.3,0.2-0.5,0.4-0.7,0.7
		c-0.2,0.3-0.3,0.6-0.3,1c0,0.4,0.1,0.7,0.2,0.9c0.1,0.2,0.4,0.5,0.9,0.6c0.4,0.2,1,0.4,1.8,0.6c0.7,0.2,1.7,0.5,2.9,0.8
		c0.4,0.1,0.9,0.2,1.5,0.4c0.6,0.2,1.3,0.5,1.9,0.9c0.6,0.4,1.2,1,1.6,1.7c0.5,0.7,0.7,1.6,0.7,2.7c0,0.9-0.2,1.7-0.5,2.5
		c-0.3,0.8-0.9,1.4-1.5,2c-0.7,0.5-1.5,1-2.5,1.3c-1,0.3-2.2,0.5-3.5,0.5c-1.1,0-2.1-0.1-3.1-0.4s-1.9-0.7-2.6-1.2
		c-0.8-0.6-1.4-1.3-1.8-2.1c-0.5-0.9-0.7-1.9-0.6-3.1h4.1C126.5,60.6,126.6,61.1,126.8,61.6z"/>
	<path class="st1" d="M145.3,47v7.4h7.8V47h4.2v19.3h-4.2V58h-7.8v8.3h-4.2V47H145.3z"/>
	<path class="st1" d="M175.5,47v3.6h-10.2v4.1h9.3V58h-9.3v4.7h10.4v3.6h-14.6V47H175.5z"/>
	<path class="st1" d="M186.9,47c1.2,0,2.4,0.2,3.5,0.6c1.1,0.4,2,1,2.8,1.8c0.8,0.8,1.4,1.8,1.8,3c0.4,1.2,0.7,2.6,0.7,4.2
		c0,1.4-0.2,2.7-0.5,3.9c-0.4,1.2-0.9,2.2-1.6,3.1c-0.7,0.9-1.6,1.5-2.7,2c-1.1,0.5-2.4,0.7-3.8,0.7h-8.3V47H186.9z M186.6,62.8
		c0.6,0,1.2-0.1,1.8-0.3c0.6-0.2,1.1-0.5,1.5-1c0.4-0.5,0.8-1.1,1.1-1.8s0.4-1.6,0.4-2.7c0-1-0.1-1.8-0.3-2.6s-0.5-1.5-0.9-2
		c-0.4-0.6-1-1-1.7-1.3s-1.6-0.4-2.6-0.4h-3v12.1H186.6z"/>
</g>
</svg>
