<?xml version="1.0" encoding="utf-8"?>
<!-- Generator: Adobe Illustrator 25.4.6, SVG Export Plug-In . SVG Version: 6.00 Build 0)  -->
<svg version="1.1" id="Layer_1" xmlns="http://www.w3.org/2000/svg" xmlns:xlink="http://www.w3.org/1999/xlink" x="0px" y="0px"
	 viewBox="0 0 320 50" style="enable-background:new 0 0 320 50;" xml:space="preserve">
<style type="text/css">
	.st0{fill:#373535;}
</style>
<g>
	<path class="st0" d="M16.8,12.6l3.6,9.7h-2.2l-0.7-2.1h-3.6l-0.8,2.1H11l3.6-9.7H16.8z M16.9,18.5L15.7,15h0l-1.3,3.5H16.9z"/>
	<path class="st0" d="M22.7,15.3v1h0c0.2-0.4,0.6-0.7,0.9-0.9c0.4-0.2,0.8-0.3,1.2-0.3c0.5,0,0.9,0.1,1.3,0.2
		c0.3,0.1,0.6,0.3,0.8,0.6c0.2,0.2,0.3,0.5,0.4,0.9s0.1,0.8,0.1,1.2v4.3h-1.9v-3.9c0-0.6-0.1-1-0.3-1.3c-0.2-0.3-0.5-0.4-1-0.4
		c-0.5,0-0.9,0.2-1.1,0.5c-0.2,0.3-0.4,0.8-0.4,1.5v3.7h-1.9v-7H22.7z"/>
	<path class="st0" d="M33.7,21.4c-0.2,0.4-0.5,0.7-0.9,0.8c-0.4,0.2-0.8,0.2-1.2,0.2c-0.5,0-1-0.1-1.4-0.3s-0.7-0.5-1-0.8
		c-0.3-0.3-0.5-0.7-0.6-1.2s-0.2-0.9-0.2-1.4c0-0.5,0.1-0.9,0.2-1.4s0.3-0.8,0.6-1.2c0.3-0.3,0.6-0.6,1-0.8c0.4-0.2,0.8-0.3,1.4-0.3
		c0.4,0,0.8,0.1,1.2,0.3s0.7,0.4,0.9,0.8h0v-3.5h1.9v9.7h-1.8L33.7,21.4L33.7,21.4z M33.7,17.9c-0.1-0.3-0.1-0.5-0.3-0.7
		c-0.1-0.2-0.3-0.4-0.5-0.5c-0.2-0.1-0.5-0.2-0.8-0.2s-0.6,0.1-0.8,0.2c-0.2,0.1-0.4,0.3-0.5,0.5c-0.1,0.2-0.2,0.4-0.3,0.7
		c-0.1,0.3-0.1,0.5-0.1,0.8c0,0.3,0,0.5,0.1,0.8c0.1,0.3,0.2,0.5,0.3,0.7c0.1,0.2,0.3,0.4,0.5,0.5c0.2,0.1,0.5,0.2,0.8,0.2
		c0.3,0,0.6-0.1,0.8-0.2c0.2-0.1,0.4-0.3,0.5-0.5c0.1-0.2,0.2-0.5,0.3-0.7s0.1-0.5,0.1-0.8S33.7,18.2,33.7,17.9z"/>
	<path class="st0" d="M46.6,22.3l-1.2-4.7h0l-1.2,4.7h-2l-2.2-7h2l1.3,4.7h0l1.2-4.7h1.9l1.2,4.7h0l1.3-4.7h2l-2.2,7H46.6z"/>
	<path class="st0" d="M51.5,14.2v-1.6h1.9v1.6H51.5z M53.4,15.3v7h-1.9v-7H53.4z"/>
	<path class="st0" d="M58.6,15.3v1.3h-1.4V20c0,0.3,0.1,0.5,0.2,0.6c0.1,0.1,0.3,0.2,0.6,0.2c0.1,0,0.2,0,0.3,0c0.1,0,0.2,0,0.3,0
		v1.5c-0.2,0-0.3,0-0.5,0.1c-0.2,0-0.4,0-0.6,0c-0.3,0-0.6,0-0.8-0.1c-0.3,0-0.5-0.1-0.7-0.2c-0.2-0.1-0.4-0.3-0.5-0.5
		c-0.1-0.2-0.2-0.5-0.2-0.9v-4.1h-1.2v-1.3h1.2v-2.1h1.9v2.1H58.6z"/>
	<path class="st0" d="M61.3,12.6v3.6h0c0.2-0.4,0.6-0.7,0.9-0.9c0.4-0.2,0.7-0.3,1.1-0.3c0.5,0,0.9,0.1,1.3,0.2
		c0.3,0.1,0.6,0.3,0.8,0.6c0.2,0.2,0.3,0.5,0.4,0.9S66,17.5,66,18v4.3H64v-3.9c0-0.6-0.1-1-0.3-1.3c-0.2-0.3-0.5-0.4-1-0.4
		c-0.5,0-0.9,0.2-1.1,0.5c-0.2,0.3-0.4,0.8-0.4,1.5v3.7h-1.9v-9.7H61.3z"/>
	<path class="st0" d="M70.9,17.4c0-0.5,0.1-0.8,0.3-1.1c0.2-0.3,0.5-0.5,0.8-0.7c0.3-0.2,0.7-0.3,1-0.4c0.4-0.1,0.8-0.1,1.2-0.1
		c0.4,0,0.7,0,1.1,0.1c0.4,0,0.7,0.1,1,0.3c0.3,0.1,0.5,0.3,0.7,0.6c0.2,0.3,0.3,0.6,0.3,1v3.6c0,0.3,0,0.6,0.1,0.9
		c0,0.3,0.1,0.5,0.2,0.6h-1.9c0-0.1-0.1-0.2-0.1-0.3s0-0.2,0-0.3c-0.3,0.3-0.7,0.5-1.1,0.7c-0.4,0.1-0.8,0.2-1.3,0.2
		c-0.3,0-0.6,0-0.9-0.1c-0.3-0.1-0.5-0.2-0.8-0.4c-0.2-0.2-0.4-0.4-0.5-0.6c-0.1-0.3-0.2-0.6-0.2-0.9c0-0.4,0.1-0.7,0.2-1
		s0.3-0.5,0.5-0.6c0.2-0.2,0.5-0.3,0.8-0.3c0.3-0.1,0.6-0.1,0.9-0.2s0.6-0.1,0.9-0.1c0.3,0,0.5-0.1,0.7-0.1c0.2-0.1,0.4-0.1,0.5-0.2
		c0.1-0.1,0.2-0.3,0.2-0.5c0-0.2,0-0.4-0.1-0.5c-0.1-0.1-0.2-0.2-0.3-0.3c-0.1-0.1-0.2-0.1-0.4-0.1c-0.1,0-0.3,0-0.5,0
		c-0.4,0-0.7,0.1-0.9,0.2s-0.3,0.4-0.4,0.8H70.9z M75.3,18.9C75.2,18.9,75.1,19,75,19c-0.1,0-0.3,0.1-0.4,0.1c-0.1,0-0.3,0-0.4,0.1
		s-0.3,0-0.5,0.1c-0.1,0-0.3,0.1-0.4,0.1c-0.1,0-0.3,0.1-0.4,0.2c-0.1,0.1-0.2,0.2-0.3,0.3c-0.1,0.1-0.1,0.3-0.1,0.4
		c0,0.2,0,0.3,0.1,0.4s0.1,0.2,0.3,0.3c0.1,0.1,0.2,0.1,0.4,0.1c0.1,0,0.3,0,0.4,0c0.4,0,0.7-0.1,0.9-0.2c0.2-0.1,0.4-0.3,0.5-0.5
		s0.2-0.4,0.2-0.5c0-0.2,0-0.3,0-0.4V18.9z"/>
	<path class="st0" d="M80.4,15.3v1h0c0.2-0.4,0.6-0.7,0.9-0.9c0.4-0.2,0.8-0.3,1.2-0.3c0.5,0,0.9,0.1,1.3,0.2
		c0.3,0.1,0.6,0.3,0.8,0.6c0.2,0.2,0.3,0.5,0.4,0.9s0.1,0.8,0.1,1.2v4.3h-1.9v-3.9c0-0.6-0.1-1-0.3-1.3c-0.2-0.3-0.5-0.4-1-0.4
		c-0.5,0-0.9,0.2-1.1,0.5c-0.2,0.3-0.4,0.8-0.4,1.5v3.7h-1.9v-7H80.4z"/>
	<path class="st0" d="M95.1,12.6l3.6,9.7h-2.2l-0.7-2.1h-3.6l-0.8,2.1h-2.1l3.6-9.7H95.1z M95.2,18.5L94,15h0l-1.3,3.5H95.2z"/>
	<path class="st0" d="M106,18.1v1.4h-2.7v2.7h-1.4v-2.7h-2.7v-1.4h2.7v-2.7h1.4v2.7H106z"/>
	<path class="st0" d="M112.7,15.3v1.3h0c0.1-0.2,0.2-0.4,0.4-0.6c0.2-0.2,0.3-0.3,0.5-0.5c0.2-0.1,0.4-0.2,0.6-0.3
		c0.2-0.1,0.5-0.1,0.7-0.1c0.1,0,0.3,0,0.4,0.1v1.8c-0.1,0-0.2,0-0.3,0c-0.1,0-0.2,0-0.4,0c-0.4,0-0.6,0.1-0.9,0.2s-0.4,0.3-0.6,0.5
		c-0.1,0.2-0.3,0.4-0.3,0.7c-0.1,0.3-0.1,0.6-0.1,0.9v3.1h-1.9v-7H112.7z"/>
	<path class="st0" d="M115.9,17.4c0-0.5,0.1-0.8,0.3-1.1c0.2-0.3,0.5-0.5,0.8-0.7c0.3-0.2,0.7-0.3,1-0.4c0.4-0.1,0.8-0.1,1.2-0.1
		c0.4,0,0.7,0,1.1,0.1c0.4,0,0.7,0.1,1,0.3c0.3,0.1,0.5,0.3,0.7,0.6c0.2,0.3,0.3,0.6,0.3,1v3.6c0,0.3,0,0.6,0.1,0.9
		c0,0.3,0.1,0.5,0.2,0.6h-1.9c0-0.1-0.1-0.2-0.1-0.3s0-0.2,0-0.3c-0.3,0.3-0.7,0.5-1.1,0.7c-0.4,0.1-0.8,0.2-1.3,0.2
		c-0.3,0-0.6,0-0.9-0.1c-0.3-0.1-0.5-0.2-0.8-0.4c-0.2-0.2-0.4-0.4-0.5-0.6c-0.1-0.3-0.2-0.6-0.2-0.9c0-0.4,0.1-0.7,0.2-1
		s0.3-0.5,0.5-0.6c0.2-0.2,0.5-0.3,0.8-0.3c0.3-0.1,0.6-0.1,0.9-0.2s0.6-0.1,0.9-0.1c0.3,0,0.5-0.1,0.7-0.1c0.2-0.1,0.4-0.1,0.5-0.2
		c0.1-0.1,0.2-0.3,0.2-0.5c0-0.2,0-0.4-0.1-0.5c-0.1-0.1-0.2-0.2-0.3-0.3c-0.1-0.1-0.2-0.1-0.4-0.1c-0.1,0-0.3,0-0.5,0
		c-0.4,0-0.7,0.1-0.9,0.2s-0.3,0.4-0.4,0.8H115.9z M120.3,18.9c-0.1,0.1-0.2,0.1-0.3,0.2c-0.1,0-0.3,0.1-0.4,0.1
		c-0.1,0-0.3,0-0.4,0.1s-0.3,0-0.5,0.1c-0.1,0-0.3,0.1-0.4,0.1c-0.1,0-0.3,0.1-0.4,0.2c-0.1,0.1-0.2,0.2-0.3,0.3
		c-0.1,0.1-0.1,0.3-0.1,0.4c0,0.2,0,0.3,0.1,0.4s0.1,0.2,0.3,0.3c0.1,0.1,0.2,0.1,0.4,0.1c0.1,0,0.3,0,0.4,0c0.4,0,0.7-0.1,0.9-0.2
		c0.2-0.1,0.4-0.3,0.5-0.5s0.2-0.4,0.2-0.5c0-0.2,0-0.3,0-0.4V18.9z"/>
	<path class="st0" d="M127.5,15.3v1.3h-1.4V20c0,0.3,0.1,0.5,0.2,0.6c0.1,0.1,0.3,0.2,0.6,0.2c0.1,0,0.2,0,0.3,0c0.1,0,0.2,0,0.3,0
		v1.5c-0.2,0-0.3,0-0.5,0.1c-0.2,0-0.4,0-0.6,0c-0.3,0-0.6,0-0.8-0.1c-0.3,0-0.5-0.1-0.7-0.2c-0.2-0.1-0.4-0.3-0.5-0.5
		c-0.1-0.2-0.2-0.5-0.2-0.9v-4.1H123v-1.3h1.2v-2.1h1.9v2.1H127.5z"/>
	<path class="st0" d="M130.3,20.6c0.3,0.3,0.7,0.4,1.2,0.4c0.4,0,0.7-0.1,1-0.3c0.3-0.2,0.5-0.4,0.5-0.6h1.7
		c-0.3,0.8-0.7,1.4-1.2,1.8s-1.2,0.5-2,0.5c-0.5,0-1-0.1-1.5-0.3c-0.4-0.2-0.8-0.4-1.1-0.8c-0.3-0.3-0.5-0.7-0.7-1.2
		c-0.2-0.5-0.2-0.9-0.2-1.5c0-0.5,0.1-1,0.3-1.5c0.2-0.5,0.4-0.8,0.7-1.2c0.3-0.3,0.7-0.6,1.1-0.8c0.4-0.2,0.9-0.3,1.5-0.3
		c0.6,0,1.1,0.1,1.6,0.3c0.4,0.2,0.8,0.5,1.1,0.9c0.3,0.4,0.5,0.8,0.6,1.3c0.1,0.5,0.2,1,0.1,1.6h-5C129.9,19.9,130,20.3,130.3,20.6
		z M132.5,16.9c-0.2-0.3-0.6-0.4-1-0.4c-0.3,0-0.6,0.1-0.8,0.2c-0.2,0.1-0.4,0.2-0.5,0.4c-0.1,0.2-0.2,0.3-0.3,0.5
		c0,0.2-0.1,0.3-0.1,0.5h3.1C132.9,17.5,132.7,17.2,132.5,16.9z"/>
	<path class="st0" d="M140.9,21.4c-0.2,0.4-0.5,0.7-0.9,0.8c-0.4,0.2-0.8,0.2-1.2,0.2c-0.5,0-1-0.1-1.4-0.3s-0.7-0.5-1-0.8
		c-0.3-0.3-0.5-0.7-0.6-1.2s-0.2-0.9-0.2-1.4c0-0.5,0.1-0.9,0.2-1.4s0.3-0.8,0.6-1.2c0.3-0.3,0.6-0.6,1-0.8c0.4-0.2,0.8-0.3,1.4-0.3
		c0.4,0,0.8,0.1,1.2,0.3s0.7,0.4,0.9,0.8h0v-3.5h1.9v9.7h-1.8L140.9,21.4L140.9,21.4z M140.8,17.9c-0.1-0.3-0.1-0.5-0.3-0.7
		c-0.1-0.2-0.3-0.4-0.5-0.5c-0.2-0.1-0.5-0.2-0.8-0.2s-0.6,0.1-0.8,0.2c-0.2,0.1-0.4,0.3-0.5,0.5c-0.1,0.2-0.2,0.4-0.3,0.7
		c-0.1,0.3-0.1,0.5-0.1,0.8c0,0.3,0,0.5,0.1,0.8c0.1,0.3,0.2,0.5,0.3,0.7c0.1,0.2,0.3,0.4,0.5,0.5c0.2,0.1,0.5,0.2,0.8,0.2
		c0.3,0,0.6-0.1,0.8-0.2c0.2-0.1,0.4-0.3,0.5-0.5c0.1-0.2,0.2-0.5,0.3-0.7s0.1-0.5,0.1-0.8S140.8,18.2,140.8,17.9z"/>
</g>
<g>
	<path class="st0" d="M11.8,28.2v-1.6h1.9v1.6H11.8z M13.7,29.3v7h-1.9v-7H13.7z"/>
	<path class="st0" d="M16.9,29.3v1h0c0.2-0.4,0.6-0.7,0.9-0.9c0.4-0.2,0.8-0.3,1.2-0.3c0.5,0,0.9,0.1,1.3,0.2
		c0.3,0.1,0.6,0.3,0.8,0.6c0.2,0.2,0.3,0.5,0.4,0.9c0.1,0.4,0.1,0.8,0.1,1.2v4.3h-1.9v-3.9c0-0.6-0.1-1-0.3-1.3
		c-0.2-0.3-0.5-0.4-1-0.4c-0.5,0-0.9,0.2-1.1,0.5c-0.2,0.3-0.4,0.8-0.4,1.5v3.7h-1.9v-7H16.9z"/>
	<path class="st0" d="M24.6,34.5c0.1,0.1,0.2,0.3,0.3,0.4s0.3,0.2,0.5,0.2s0.4,0.1,0.5,0.1c0.1,0,0.3,0,0.4,0c0.1,0,0.3-0.1,0.4-0.1
		c0.1-0.1,0.2-0.2,0.3-0.3c0.1-0.1,0.1-0.3,0.1-0.4c0-0.3-0.2-0.5-0.6-0.6c-0.4-0.1-0.9-0.3-1.6-0.4c-0.3-0.1-0.6-0.1-0.8-0.2
		c-0.3-0.1-0.5-0.2-0.7-0.3c-0.2-0.1-0.4-0.3-0.5-0.5c-0.1-0.2-0.2-0.5-0.2-0.8c0-0.5,0.1-0.8,0.3-1.1c0.2-0.3,0.4-0.5,0.7-0.7
		c0.3-0.2,0.6-0.3,1-0.4s0.7-0.1,1.1-0.1s0.7,0,1.1,0.1s0.7,0.2,1,0.4s0.5,0.4,0.7,0.7c0.2,0.3,0.3,0.6,0.3,1.1h-1.8
		c0-0.4-0.2-0.6-0.4-0.8c-0.3-0.1-0.5-0.2-0.9-0.2c-0.1,0-0.2,0-0.4,0c-0.1,0-0.2,0-0.3,0.1s-0.2,0.1-0.3,0.2s-0.1,0.2-0.1,0.3
		c0,0.2,0.1,0.3,0.2,0.4c0.1,0.1,0.3,0.2,0.5,0.3c0.2,0.1,0.4,0.1,0.7,0.2c0.3,0.1,0.5,0.1,0.8,0.2c0.3,0.1,0.6,0.1,0.8,0.2
		s0.5,0.2,0.7,0.4c0.2,0.1,0.4,0.3,0.5,0.6c0.1,0.2,0.2,0.5,0.2,0.8c0,0.5-0.1,0.8-0.3,1.2c-0.2,0.3-0.4,0.6-0.7,0.8s-0.6,0.3-1,0.4
		c-0.4,0.1-0.8,0.1-1.2,0.1c-0.4,0-0.8,0-1.2-0.1c-0.4-0.1-0.7-0.2-1-0.4c-0.3-0.2-0.5-0.4-0.7-0.8s-0.3-0.7-0.3-1.2h1.8
		C24.5,34.2,24.5,34.4,24.6,34.5z"/>
	<path class="st0" d="M34.9,36.3v-1h0c-0.2,0.4-0.6,0.7-0.9,0.9c-0.4,0.2-0.8,0.3-1.2,0.3c-0.5,0-0.9-0.1-1.3-0.2
		c-0.3-0.1-0.6-0.3-0.8-0.6c-0.2-0.2-0.3-0.5-0.4-0.9c-0.1-0.4-0.1-0.8-0.1-1.2v-4.3h1.9v3.9c0,0.6,0.1,1,0.3,1.3
		c0.2,0.3,0.5,0.4,1,0.4c0.5,0,0.9-0.2,1.1-0.5s0.4-0.8,0.4-1.5v-3.7h1.9v7H34.9z"/>
	<path class="st0" d="M39.9,29.3v1.3h0c0.1-0.2,0.2-0.4,0.4-0.6c0.2-0.2,0.3-0.3,0.5-0.5s0.4-0.2,0.6-0.3s0.5-0.1,0.7-0.1
		c0.1,0,0.3,0,0.4,0.1v1.8c-0.1,0-0.2,0-0.3,0c-0.1,0-0.2,0-0.4,0c-0.4,0-0.6,0.1-0.9,0.2c-0.2,0.1-0.4,0.3-0.6,0.5
		c-0.1,0.2-0.3,0.4-0.3,0.7C40,32.5,40,32.8,40,33.1v3.1H38v-7H39.9z"/>
	<path class="st0" d="M43.1,31.4c0-0.5,0.1-0.8,0.3-1.1c0.2-0.3,0.5-0.5,0.8-0.7c0.3-0.2,0.7-0.3,1-0.4c0.4-0.1,0.8-0.1,1.2-0.1
		c0.4,0,0.7,0,1.1,0.1c0.4,0,0.7,0.1,1,0.3c0.3,0.1,0.5,0.3,0.7,0.6c0.2,0.3,0.3,0.6,0.3,1v3.6c0,0.3,0,0.6,0.1,0.9
		c0,0.3,0.1,0.5,0.2,0.6h-1.9c0-0.1-0.1-0.2-0.1-0.3s0-0.2,0-0.3c-0.3,0.3-0.7,0.5-1.1,0.7s-0.8,0.2-1.3,0.2c-0.3,0-0.6,0-0.9-0.1
		c-0.3-0.1-0.5-0.2-0.8-0.4c-0.2-0.2-0.4-0.4-0.5-0.6c-0.1-0.3-0.2-0.6-0.2-0.9c0-0.4,0.1-0.7,0.2-1s0.3-0.5,0.5-0.6
		s0.5-0.3,0.8-0.3c0.3-0.1,0.6-0.1,0.9-0.2c0.3,0,0.6-0.1,0.9-0.1c0.3,0,0.5-0.1,0.7-0.1c0.2-0.1,0.4-0.1,0.5-0.2
		c0.1-0.1,0.2-0.3,0.2-0.5c0-0.2,0-0.4-0.1-0.5c-0.1-0.1-0.2-0.2-0.3-0.3c-0.1-0.1-0.2-0.1-0.4-0.1c-0.1,0-0.3,0-0.5,0
		c-0.4,0-0.7,0.1-0.9,0.2c-0.2,0.2-0.3,0.4-0.4,0.8H43.1z M47.5,32.9c-0.1,0.1-0.2,0.1-0.3,0.2c-0.1,0-0.3,0.1-0.4,0.1
		c-0.1,0-0.3,0-0.4,0.1c-0.2,0-0.3,0-0.5,0.1c-0.1,0-0.3,0.1-0.4,0.1s-0.3,0.1-0.4,0.2c-0.1,0.1-0.2,0.2-0.3,0.3s-0.1,0.3-0.1,0.4
		c0,0.2,0,0.3,0.1,0.4s0.1,0.2,0.3,0.3c0.1,0.1,0.2,0.1,0.4,0.1c0.1,0,0.3,0,0.4,0c0.4,0,0.7-0.1,0.9-0.2c0.2-0.1,0.4-0.3,0.5-0.5
		c0.1-0.2,0.2-0.4,0.2-0.5c0-0.2,0-0.3,0-0.4V32.9z"/>
	<path class="st0" d="M52.6,29.3v1h0c0.2-0.4,0.6-0.7,0.9-0.9c0.4-0.2,0.8-0.3,1.2-0.3c0.5,0,0.9,0.1,1.3,0.2
		c0.3,0.1,0.6,0.3,0.8,0.6c0.2,0.2,0.3,0.5,0.4,0.9c0.1,0.4,0.1,0.8,0.1,1.2v4.3h-1.9v-3.9c0-0.6-0.1-1-0.3-1.3
		c-0.2-0.3-0.5-0.4-1-0.4c-0.5,0-0.9,0.2-1.1,0.5c-0.2,0.3-0.4,0.8-0.4,1.5v3.7h-1.9v-7H52.6z"/>
	<path class="st0" d="M62,30.5c-0.3,0-0.6,0.1-0.8,0.2c-0.2,0.1-0.4,0.3-0.5,0.5c-0.1,0.2-0.2,0.5-0.3,0.7s-0.1,0.5-0.1,0.8
		c0,0.3,0,0.5,0.1,0.8c0.1,0.3,0.1,0.5,0.3,0.7c0.1,0.2,0.3,0.4,0.5,0.5C61.5,35,61.7,35,62,35c0.5,0,0.8-0.1,1.1-0.4s0.4-0.6,0.5-1
		h1.9c-0.1,0.9-0.5,1.6-1.1,2.1c-0.6,0.5-1.4,0.7-2.3,0.7c-0.5,0-1-0.1-1.4-0.3c-0.4-0.2-0.8-0.4-1.1-0.7c-0.3-0.3-0.5-0.7-0.7-1.1
		c-0.2-0.4-0.3-0.9-0.3-1.4c0-0.5,0.1-1,0.2-1.5s0.4-0.9,0.7-1.2c0.3-0.3,0.7-0.6,1.1-0.8c0.4-0.2,0.9-0.3,1.5-0.3
		c0.4,0,0.8,0.1,1.2,0.2c0.4,0.1,0.7,0.3,1,0.5c0.3,0.2,0.5,0.5,0.7,0.8c0.2,0.3,0.3,0.7,0.3,1.2h-1.9C63.3,30.9,62.9,30.5,62,30.5z
		"/>
	<path class="st0" d="M68.4,34.6c0.3,0.3,0.7,0.4,1.2,0.4c0.4,0,0.7-0.1,1-0.3c0.3-0.2,0.5-0.4,0.5-0.6h1.7
		c-0.3,0.8-0.7,1.4-1.2,1.8s-1.2,0.5-2,0.5c-0.5,0-1-0.1-1.5-0.3c-0.4-0.2-0.8-0.4-1.1-0.8s-0.5-0.7-0.7-1.2
		c-0.2-0.5-0.2-0.9-0.2-1.5c0-0.5,0.1-1,0.3-1.5c0.2-0.5,0.4-0.8,0.7-1.2c0.3-0.3,0.7-0.6,1.1-0.8s0.9-0.3,1.5-0.3
		c0.6,0,1.1,0.1,1.6,0.3c0.4,0.2,0.8,0.5,1.1,0.9c0.3,0.4,0.5,0.8,0.6,1.3c0.1,0.5,0.2,1,0.1,1.6h-5C68,33.9,68.1,34.3,68.4,34.6z
		 M70.6,30.9c-0.2-0.3-0.6-0.4-1-0.4c-0.3,0-0.6,0.1-0.8,0.2s-0.4,0.2-0.5,0.4c-0.1,0.2-0.2,0.3-0.3,0.5c0,0.2-0.1,0.3-0.1,0.5H71
		C71,31.5,70.8,31.2,70.6,30.9z"/>
	<path class="st0" d="M81,30.5c-0.3,0-0.6,0.1-0.8,0.2c-0.2,0.1-0.4,0.3-0.5,0.5c-0.1,0.2-0.2,0.5-0.3,0.7s-0.1,0.5-0.1,0.8
		c0,0.3,0,0.5,0.1,0.8c0.1,0.3,0.1,0.5,0.3,0.7c0.1,0.2,0.3,0.4,0.5,0.5c0.2,0.1,0.5,0.2,0.8,0.2c0.5,0,0.8-0.1,1.1-0.4
		s0.4-0.6,0.5-1h1.9c-0.1,0.9-0.5,1.6-1.1,2.1c-0.6,0.5-1.4,0.7-2.3,0.7c-0.5,0-1-0.1-1.4-0.3c-0.4-0.2-0.8-0.4-1.1-0.7
		c-0.3-0.3-0.5-0.7-0.7-1.1c-0.2-0.4-0.3-0.9-0.3-1.4c0-0.5,0.1-1,0.2-1.5s0.4-0.9,0.7-1.2c0.3-0.3,0.7-0.6,1.1-0.8
		c0.4-0.2,0.9-0.3,1.5-0.3c0.4,0,0.8,0.1,1.2,0.2c0.4,0.1,0.7,0.3,1,0.5c0.3,0.2,0.5,0.5,0.7,0.8c0.2,0.3,0.3,0.7,0.3,1.2h-1.9
		C82.2,30.9,81.8,30.5,81,30.5z"/>
	<path class="st0" d="M85.3,31.3c0.2-0.5,0.4-0.8,0.7-1.2c0.3-0.3,0.7-0.6,1.1-0.7c0.4-0.2,0.9-0.3,1.5-0.3c0.5,0,1,0.1,1.5,0.3
		c0.4,0.2,0.8,0.4,1.1,0.7c0.3,0.3,0.6,0.7,0.7,1.2c0.2,0.5,0.3,1,0.3,1.5s-0.1,1.1-0.3,1.5c-0.2,0.5-0.4,0.8-0.7,1.2
		c-0.3,0.3-0.7,0.6-1.1,0.7c-0.4,0.2-0.9,0.3-1.5,0.3c-0.5,0-1-0.1-1.5-0.3s-0.8-0.4-1.1-0.7c-0.3-0.3-0.6-0.7-0.7-1.2
		c-0.2-0.5-0.3-1-0.3-1.5S85.1,31.7,85.3,31.3z M87,33.6c0.1,0.3,0.1,0.5,0.3,0.7c0.1,0.2,0.3,0.4,0.5,0.5s0.5,0.2,0.8,0.2
		s0.6-0.1,0.8-0.2c0.2-0.1,0.4-0.3,0.5-0.5c0.1-0.2,0.2-0.5,0.3-0.7c0.1-0.3,0.1-0.5,0.1-0.8s0-0.6-0.1-0.8
		c-0.1-0.3-0.1-0.5-0.3-0.7c-0.1-0.2-0.3-0.4-0.5-0.5c-0.2-0.1-0.5-0.2-0.8-0.2s-0.6,0.1-0.8,0.2c-0.2,0.1-0.4,0.3-0.5,0.5
		c-0.1,0.2-0.2,0.4-0.3,0.7S87,32.5,87,32.8S87,33.3,87,33.6z"/>
	<path class="st0" d="M95.2,29.3v0.9h0c0.3-0.4,0.6-0.6,0.9-0.8s0.8-0.3,1.2-0.3c0.4,0,0.8,0.1,1.2,0.3c0.4,0.2,0.6,0.5,0.8,0.9
		c0.2-0.3,0.5-0.6,0.8-0.8c0.4-0.2,0.8-0.4,1.3-0.4c0.4,0,0.7,0,1,0.1s0.6,0.2,0.8,0.4s0.4,0.5,0.5,0.8c0.1,0.3,0.2,0.7,0.2,1.2v4.7
		h-1.9v-4c0-0.2,0-0.5,0-0.7c0-0.2-0.1-0.4-0.1-0.5c-0.1-0.2-0.2-0.3-0.4-0.4s-0.4-0.1-0.6-0.1s-0.5,0.1-0.7,0.2
		c-0.2,0.1-0.3,0.2-0.4,0.4c-0.1,0.2-0.2,0.4-0.2,0.6c0,0.2,0,0.4,0,0.6v3.9h-1.9v-3.9c0-0.2,0-0.4,0-0.6c0-0.2,0-0.4-0.1-0.6
		c-0.1-0.2-0.2-0.3-0.3-0.4s-0.4-0.2-0.7-0.2c-0.1,0-0.2,0-0.4,0.1c-0.1,0-0.3,0.1-0.4,0.2c-0.1,0.1-0.3,0.3-0.4,0.5
		c-0.1,0.2-0.1,0.5-0.1,0.8v4.1h-1.9v-7H95.2z"/>
	<path class="st0" d="M107.3,29.3v0.9h0c0.2-0.4,0.5-0.7,0.9-0.8c0.4-0.2,0.8-0.3,1.2-0.3c0.5,0,1,0.1,1.4,0.3
		c0.4,0.2,0.7,0.5,1,0.8c0.3,0.3,0.5,0.7,0.6,1.2c0.1,0.5,0.2,0.9,0.2,1.4c0,0.5-0.1,0.9-0.2,1.4c-0.1,0.4-0.3,0.8-0.6,1.1
		s-0.6,0.6-1,0.8c-0.4,0.2-0.8,0.3-1.3,0.3c-0.4,0-0.8-0.1-1.2-0.3c-0.4-0.2-0.7-0.4-0.9-0.8h0v3.3h-1.9v-9.4H107.3z M109.8,34.8
		c0.2-0.1,0.4-0.3,0.5-0.5c0.1-0.2,0.2-0.4,0.3-0.7c0.1-0.3,0.1-0.5,0.1-0.8s0-0.6-0.1-0.8c-0.1-0.3-0.2-0.5-0.3-0.7
		c-0.1-0.2-0.3-0.4-0.5-0.5c-0.2-0.1-0.5-0.2-0.8-0.2c-0.3,0-0.6,0.1-0.8,0.2c-0.2,0.1-0.4,0.3-0.5,0.5c-0.1,0.2-0.2,0.4-0.3,0.7
		c-0.1,0.3-0.1,0.5-0.1,0.8c0,0.3,0,0.6,0.1,0.8s0.2,0.5,0.3,0.7c0.1,0.2,0.3,0.4,0.5,0.5s0.5,0.2,0.8,0.2
		C109.3,35,109.6,35,109.8,34.8z"/>
	<path class="st0" d="M113.5,31.4c0-0.5,0.1-0.8,0.3-1.1c0.2-0.3,0.5-0.5,0.8-0.7c0.3-0.2,0.7-0.3,1-0.4c0.4-0.1,0.8-0.1,1.2-0.1
		c0.4,0,0.7,0,1.1,0.1c0.4,0,0.7,0.1,1,0.3c0.3,0.1,0.5,0.3,0.7,0.6c0.2,0.3,0.3,0.6,0.3,1v3.6c0,0.3,0,0.6,0.1,0.9
		c0,0.3,0.1,0.5,0.2,0.6h-1.9c0-0.1-0.1-0.2-0.1-0.3s0-0.2,0-0.3c-0.3,0.3-0.7,0.5-1.1,0.7s-0.8,0.2-1.3,0.2c-0.3,0-0.6,0-0.9-0.1
		c-0.3-0.1-0.5-0.2-0.8-0.4c-0.2-0.2-0.4-0.4-0.5-0.6c-0.1-0.3-0.2-0.6-0.2-0.9c0-0.4,0.1-0.7,0.2-1s0.3-0.5,0.5-0.6
		s0.5-0.3,0.8-0.3c0.3-0.1,0.6-0.1,0.9-0.2c0.3,0,0.6-0.1,0.9-0.1c0.3,0,0.5-0.1,0.7-0.1c0.2-0.1,0.4-0.1,0.5-0.2
		c0.1-0.1,0.2-0.3,0.2-0.5c0-0.2,0-0.4-0.1-0.5c-0.1-0.1-0.2-0.2-0.3-0.3c-0.1-0.1-0.2-0.1-0.4-0.1c-0.1,0-0.3,0-0.5,0
		c-0.4,0-0.7,0.1-0.9,0.2c-0.2,0.2-0.3,0.4-0.4,0.8H113.5z M118,32.9c-0.1,0.1-0.2,0.1-0.3,0.2c-0.1,0-0.3,0.1-0.4,0.1
		c-0.1,0-0.3,0-0.4,0.1c-0.2,0-0.3,0-0.5,0.1c-0.1,0-0.3,0.1-0.4,0.1s-0.3,0.1-0.4,0.2c-0.1,0.1-0.2,0.2-0.3,0.3s-0.1,0.3-0.1,0.4
		c0,0.2,0,0.3,0.1,0.4s0.1,0.2,0.3,0.3c0.1,0.1,0.2,0.1,0.4,0.1c0.1,0,0.3,0,0.4,0c0.4,0,0.7-0.1,0.9-0.2c0.2-0.1,0.4-0.3,0.5-0.5
		c0.1-0.2,0.2-0.4,0.2-0.5c0-0.2,0-0.3,0-0.4V32.9z"/>
	<path class="st0" d="M123.1,29.3v1h0c0.2-0.4,0.6-0.7,0.9-0.9c0.4-0.2,0.8-0.3,1.2-0.3c0.5,0,0.9,0.1,1.3,0.2
		c0.3,0.1,0.6,0.3,0.8,0.6c0.2,0.2,0.3,0.5,0.4,0.9c0.1,0.4,0.1,0.8,0.1,1.2v4.3h-1.9v-3.9c0-0.6-0.1-1-0.3-1.3
		c-0.2-0.3-0.5-0.4-1-0.4c-0.5,0-0.9,0.2-1.1,0.5c-0.2,0.3-0.4,0.8-0.4,1.5v3.7h-1.9v-7H123.1z"/>
	<path class="st0" d="M131.7,38.4c-0.4,0.2-0.9,0.4-1.5,0.4c-0.2,0-0.4,0-0.6,0c-0.2,0-0.4,0-0.6,0v-1.6c0.2,0,0.4,0,0.6,0.1
		c0.2,0,0.4,0,0.6,0c0.3,0,0.4-0.1,0.6-0.3c0.1-0.2,0.2-0.4,0.2-0.6c0-0.2,0-0.3-0.1-0.4l-2.4-6.6h2l1.6,4.8h0l1.5-4.8h2l-2.9,7.9
		C132.4,37.7,132.1,38.1,131.7,38.4z"/>
	<path class="st0" d="M137.2,34.2v2.1h-2.1v-2.1H137.2z"/>
</g>
</svg>
