<?xml version="1.0" encoding="utf-8"?>
<!-- Generator: Adobe Illustrator 25.4.6, SVG Export Plug-In . SVG Version: 6.00 Build 0)  -->
<svg version="1.1" id="Layer_1" xmlns="http://www.w3.org/2000/svg" xmlns:xlink="http://www.w3.org/1999/xlink" x="0px" y="0px"
	 viewBox="0 0 320 50" style="enable-background:new 0 0 320 50;" xml:space="preserve">
<style type="text/css">
	.st0{fill:#339933;}
	.st1{fill:#373535;}
</style>
<g>
	<path class="st0" d="M16.8,6.1l3.6,9.7h-2.2l-0.7-2.1h-3.6l-0.8,2.1H11l3.6-9.7H16.8z M16.9,12l-1.2-3.5h0L14.4,12H16.9z"/>
	<path class="st0" d="M30.6,13.7c-0.1,0.4-0.2,0.7-0.4,1.1c-0.2,0.3-0.5,0.6-1,0.8c-0.4,0.2-1,0.3-1.7,0.3c-0.4,0-0.8-0.1-1.2-0.2
		c-0.4-0.1-0.7-0.3-1-0.5c-0.3-0.2-0.5-0.5-0.7-0.9s-0.3-0.8-0.3-1.4v-0.8h1.9v0.4c0,0.2,0,0.5,0.1,0.6s0.1,0.4,0.2,0.5
		c0.1,0.1,0.2,0.2,0.4,0.3c0.2,0.1,0.4,0.1,0.6,0.1c0.3,0,0.5,0,0.6-0.1s0.3-0.2,0.3-0.4c0.1-0.2,0.1-0.3,0.1-0.5c0-0.2,0-0.4,0-0.5
		V6.1h2.1v6.6C30.7,13,30.6,13.4,30.6,13.7z"/>
	<path class="st0" d="M32.5,8.9c0.2-0.6,0.5-1.2,0.9-1.6c0.4-0.5,0.9-0.8,1.5-1.1c0.6-0.3,1.3-0.4,2-0.4c0.7,0,1.4,0.1,2,0.4
		c0.6,0.3,1.1,0.6,1.5,1.1c0.4,0.5,0.7,1,0.9,1.6s0.3,1.3,0.3,2c0,0.7-0.1,1.4-0.3,2c-0.2,0.6-0.5,1.1-0.9,1.6
		c-0.4,0.5-0.9,0.8-1.5,1.1s-1.3,0.4-2,0.4c-0.7,0-1.4-0.1-2-0.4s-1.1-0.6-1.5-1.1c-0.4-0.5-0.7-1-0.9-1.6c-0.2-0.6-0.3-1.3-0.3-2
		C32.1,10.2,32.2,9.6,32.5,8.9z M34.4,12.1c0.1,0.4,0.2,0.7,0.5,1c0.2,0.3,0.5,0.6,0.8,0.7c0.3,0.2,0.7,0.3,1.2,0.3s0.9-0.1,1.2-0.3
		c0.3-0.2,0.6-0.4,0.8-0.7c0.2-0.3,0.4-0.7,0.5-1s0.1-0.8,0.1-1.2c0-0.4,0-0.8-0.1-1.2S39.1,9,38.9,8.7c-0.2-0.3-0.5-0.6-0.8-0.7
		c-0.3-0.2-0.7-0.3-1.2-0.3S36,7.7,35.7,7.9c-0.3,0.2-0.6,0.4-0.8,0.7c-0.2,0.3-0.4,0.7-0.5,1.1c-0.1,0.4-0.1,0.8-0.1,1.2
		C34.2,11.4,34.3,11.7,34.4,12.1z"/>
	<path class="st0" d="M50.2,15c-0.7,0.6-1.7,1-3,1c-1.3,0-2.3-0.3-3-0.9c-0.7-0.6-1.1-1.6-1.1-2.9v-6h2.1v6c0,0.3,0,0.5,0.1,0.8
		c0,0.3,0.1,0.5,0.3,0.7c0.1,0.2,0.3,0.4,0.6,0.5s0.6,0.2,1,0.2c0.8,0,1.3-0.2,1.6-0.5c0.3-0.3,0.4-0.9,0.4-1.6v-6h2.1v6
		C51.3,13.4,50.9,14.4,50.2,15z"/>
	<path class="st0" d="M58.3,6.1c0.4,0,0.8,0.1,1.2,0.2c0.3,0.1,0.6,0.3,0.9,0.6c0.2,0.2,0.4,0.5,0.6,0.8c0.1,0.3,0.2,0.7,0.2,1
		c0,0.6-0.1,1.1-0.4,1.5s-0.6,0.7-1.2,0.9v0c0.3,0.1,0.5,0.2,0.6,0.3c0.2,0.1,0.3,0.3,0.4,0.5c0.1,0.2,0.2,0.4,0.2,0.7
		s0.1,0.5,0.1,0.7c0,0.2,0,0.3,0,0.5c0,0.2,0,0.4,0,0.6s0.1,0.4,0.1,0.6c0,0.2,0.1,0.4,0.2,0.5h-2.1c-0.1-0.3-0.2-0.7-0.2-1.1
		c0-0.4-0.1-0.8-0.1-1.2c-0.1-0.5-0.2-0.9-0.5-1.1S57.9,12,57.3,12h-2.1v3.8h-2.1V6.1H58.3z M57.5,10.4c0.5,0,0.9-0.1,1.1-0.3
		C58.9,9.9,59,9.6,59,9.1c0-0.5-0.1-0.8-0.4-1c-0.2-0.2-0.6-0.3-1.1-0.3h-2.3v2.7H57.5z"/>
	<path class="st0" d="M64.9,6.1l4,6.5h0V6.1h2v9.7h-2.1l-4-6.5h0v6.5h-2V6.1H64.9z"/>
	<path class="st0" d="M80.1,6.1v1.8H75v2.1h4.7v1.6H75v2.4h5.2v1.8h-7.3V6.1H80.1z"/>
	<path class="st0" d="M80.6,6.1h2.4l2.3,3.8l2.2-3.8h2.4L86.2,12v3.7h-2.1V12L80.6,6.1z"/>
	<path class="st0" d="M94.2,10.7c0.2-0.5,0.4-0.8,0.7-1.2c0.3-0.3,0.7-0.6,1.1-0.7s0.9-0.3,1.5-0.3c0.5,0,1,0.1,1.5,0.3
		c0.4,0.2,0.8,0.4,1.1,0.7c0.3,0.3,0.6,0.7,0.7,1.2c0.2,0.5,0.3,1,0.3,1.5c0,0.6-0.1,1.1-0.3,1.5c-0.2,0.5-0.4,0.8-0.7,1.2
		c-0.3,0.3-0.7,0.6-1.1,0.7c-0.4,0.2-0.9,0.3-1.5,0.3c-0.5,0-1-0.1-1.5-0.3s-0.8-0.4-1.1-0.7c-0.3-0.3-0.6-0.7-0.7-1.2
		c-0.2-0.5-0.3-1-0.3-1.5C94,11.7,94,11.2,94.2,10.7z M96,13.1c0.1,0.3,0.1,0.5,0.3,0.7c0.1,0.2,0.3,0.4,0.5,0.5
		c0.2,0.1,0.5,0.2,0.8,0.2s0.6-0.1,0.8-0.2c0.2-0.1,0.4-0.3,0.5-0.5c0.1-0.2,0.2-0.5,0.3-0.7c0.1-0.3,0.1-0.5,0.1-0.8s0-0.6-0.1-0.8
		c-0.1-0.3-0.1-0.5-0.3-0.7c-0.1-0.2-0.3-0.4-0.5-0.5c-0.2-0.1-0.5-0.2-0.8-0.2s-0.6,0.1-0.8,0.2c-0.2,0.1-0.4,0.3-0.5,0.5
		c-0.1,0.2-0.2,0.4-0.3,0.7c-0.1,0.3-0.1,0.5-0.1,0.8S95.9,12.8,96,13.1z"/>
	<path class="st0" d="M101.7,10V8.7h1.1V8.2c0-0.6,0.2-1.1,0.6-1.5c0.4-0.4,1-0.6,1.8-0.6c0.2,0,0.3,0,0.5,0c0.2,0,0.3,0,0.5,0v1.4
		c-0.2,0-0.5,0-0.7,0c-0.3,0-0.4,0.1-0.6,0.2c-0.1,0.1-0.2,0.3-0.2,0.6v0.4h1.3V10h-1.3v5.7h-1.9V10H101.7z"/>
	<path class="st0" d="M110.6,10.9c0-0.5,0.1-0.8,0.3-1.1c0.2-0.3,0.5-0.5,0.8-0.7c0.3-0.2,0.7-0.3,1-0.4c0.4-0.1,0.8-0.1,1.2-0.1
		c0.4,0,0.7,0,1.1,0.1c0.4,0,0.7,0.1,1,0.3c0.3,0.1,0.5,0.3,0.7,0.6c0.2,0.3,0.3,0.6,0.3,1v3.6c0,0.3,0,0.6,0.1,0.9
		c0,0.3,0.1,0.5,0.2,0.6h-1.9c0-0.1-0.1-0.2-0.1-0.3s0-0.2,0-0.3c-0.3,0.3-0.7,0.5-1.1,0.7c-0.4,0.1-0.8,0.2-1.3,0.2
		c-0.3,0-0.6,0-0.9-0.1c-0.3-0.1-0.5-0.2-0.8-0.4c-0.2-0.2-0.4-0.4-0.5-0.6c-0.1-0.3-0.2-0.6-0.2-0.9c0-0.4,0.1-0.7,0.2-1
		s0.3-0.5,0.5-0.6c0.2-0.2,0.5-0.3,0.8-0.3c0.3-0.1,0.6-0.1,0.9-0.2s0.6-0.1,0.9-0.1c0.3,0,0.5-0.1,0.7-0.1c0.2-0.1,0.4-0.1,0.5-0.2
		c0.1-0.1,0.2-0.3,0.2-0.5c0-0.2,0-0.4-0.1-0.5c-0.1-0.1-0.2-0.2-0.3-0.3c-0.1-0.1-0.2-0.1-0.4-0.1c-0.1,0-0.3,0-0.5,0
		c-0.4,0-0.7,0.1-0.9,0.2s-0.3,0.4-0.4,0.8H110.6z M115,12.3c-0.1,0.1-0.2,0.1-0.3,0.2c-0.1,0-0.3,0.1-0.4,0.1c-0.1,0-0.3,0-0.4,0.1
		s-0.3,0-0.5,0.1c-0.1,0-0.3,0.1-0.4,0.1c-0.1,0-0.3,0.1-0.4,0.2c-0.1,0.1-0.2,0.2-0.3,0.3c-0.1,0.1-0.1,0.3-0.1,0.4
		c0,0.2,0,0.3,0.1,0.4s0.1,0.2,0.3,0.3c0.1,0.1,0.2,0.1,0.4,0.1c0.1,0,0.3,0,0.4,0c0.4,0,0.7-0.1,0.9-0.2c0.2-0.1,0.4-0.3,0.5-0.5
		s0.2-0.4,0.2-0.5c0-0.2,0-0.3,0-0.4V12.3z"/>
</g>
<g>
	<path class="st0" d="M11.3,21.9v-1.8h7.9v1.8h-2.9v7.9h-2.1v-7.9H11.3z"/>
	<path class="st0" d="M22.4,20.1v3.7h3.9v-3.7h2.1v9.7h-2.1v-4.2h-3.9v4.2h-2.1v-9.7H22.4z"/>
	<path class="st0" d="M30.2,22.9c0.2-0.6,0.5-1.2,0.9-1.6c0.4-0.5,0.9-0.8,1.5-1.1c0.6-0.3,1.3-0.4,2-0.4c0.7,0,1.4,0.1,2,0.4
		c0.6,0.3,1.1,0.6,1.5,1.1c0.4,0.5,0.7,1,0.9,1.6s0.3,1.3,0.3,2c0,0.7-0.1,1.4-0.3,2s-0.5,1.1-0.9,1.6c-0.4,0.5-0.9,0.8-1.5,1.1
		s-1.3,0.4-2,0.4c-0.7,0-1.4-0.1-2-0.4s-1.1-0.6-1.5-1.1c-0.4-0.5-0.7-1-0.9-1.6s-0.3-1.3-0.3-2C29.9,24.2,30,23.6,30.2,22.9z
		 M32.1,26.1c0.1,0.4,0.2,0.7,0.5,1c0.2,0.3,0.5,0.6,0.8,0.7c0.3,0.2,0.7,0.3,1.2,0.3s0.9-0.1,1.2-0.3c0.3-0.2,0.6-0.4,0.8-0.7
		c0.2-0.3,0.4-0.7,0.5-1c0.1-0.4,0.1-0.8,0.1-1.2c0-0.4,0-0.8-0.1-1.2s-0.2-0.8-0.5-1.1c-0.2-0.3-0.5-0.6-0.8-0.7
		c-0.3-0.2-0.7-0.3-1.2-0.3s-0.9,0.1-1.2,0.3c-0.3,0.2-0.6,0.4-0.8,0.7c-0.2,0.3-0.4,0.7-0.5,1.1C32,24.1,32,24.5,32,24.9
		C32,25.4,32,25.7,32.1,26.1z"/>
	<path class="st0" d="M47.9,29c-0.7,0.6-1.7,1-3,1c-1.3,0-2.3-0.3-3-0.9s-1.1-1.6-1.1-2.9v-6h2.1v6c0,0.3,0,0.5,0.1,0.8
		c0,0.3,0.1,0.5,0.3,0.7c0.1,0.2,0.3,0.4,0.6,0.5c0.3,0.1,0.6,0.2,1,0.2c0.8,0,1.3-0.2,1.6-0.5c0.3-0.3,0.4-0.9,0.4-1.6v-6H49v6
		C49,27.4,48.6,28.4,47.9,29z"/>
	<path class="st0" d="M52.4,27.4c0.1,0.2,0.3,0.4,0.5,0.5s0.4,0.2,0.7,0.3c0.3,0.1,0.5,0.1,0.8,0.1c0.2,0,0.4,0,0.6,0
		c0.2,0,0.4-0.1,0.6-0.2c0.2-0.1,0.3-0.2,0.5-0.4c0.1-0.2,0.2-0.4,0.2-0.6c0-0.3-0.1-0.5-0.2-0.6c-0.2-0.2-0.4-0.3-0.7-0.4
		c-0.3-0.1-0.6-0.2-0.9-0.3c-0.3-0.1-0.7-0.2-1-0.3c-0.4-0.1-0.7-0.2-1.1-0.3c-0.3-0.1-0.6-0.3-0.9-0.5c-0.3-0.2-0.5-0.5-0.7-0.8
		c-0.2-0.3-0.2-0.7-0.2-1.1c0-0.5,0.1-0.9,0.3-1.3c0.2-0.4,0.5-0.7,0.8-0.9c0.3-0.2,0.7-0.4,1.2-0.5c0.4-0.1,0.9-0.2,1.3-0.2
		c0.5,0,1,0.1,1.5,0.2c0.5,0.1,0.9,0.3,1.2,0.5s0.6,0.6,0.9,1S58,22.4,58,23H56c0-0.3-0.1-0.5-0.2-0.7c-0.1-0.2-0.2-0.3-0.4-0.4
		c-0.2-0.1-0.4-0.2-0.6-0.2c-0.2,0-0.5-0.1-0.7-0.1c-0.2,0-0.3,0-0.5,0.1c-0.2,0-0.3,0.1-0.5,0.2c-0.1,0.1-0.3,0.2-0.3,0.3
		c-0.1,0.1-0.1,0.3-0.1,0.5c0,0.2,0,0.3,0.1,0.5c0.1,0.1,0.2,0.2,0.4,0.3c0.2,0.1,0.5,0.2,0.9,0.3s0.9,0.2,1.5,0.4
		c0.2,0,0.4,0.1,0.8,0.2s0.6,0.2,1,0.5c0.3,0.2,0.6,0.5,0.8,0.8c0.2,0.3,0.3,0.8,0.3,1.3c0,0.4-0.1,0.9-0.3,1.2
		c-0.2,0.4-0.4,0.7-0.8,1c-0.3,0.3-0.8,0.5-1.3,0.6s-1.1,0.2-1.7,0.2c-0.5,0-1-0.1-1.5-0.2c-0.5-0.1-0.9-0.3-1.3-0.6
		s-0.7-0.6-0.9-1.1c-0.2-0.4-0.3-0.9-0.3-1.5h2.1C52.3,26.9,52.3,27.1,52.4,27.4z"/>
	<path class="st0" d="M64.4,20.1l3.6,9.7h-2.2l-0.7-2.1h-3.6l-0.8,2.1h-2.1l3.6-9.7H64.4z M64.5,26l-1.2-3.5h0L62,26H64.5z"/>
	<path class="st0" d="M71,20.1l4,6.5h0v-6.5h2v9.7h-2.1l-4-6.5h0v6.5h-2v-9.7H71z"/>
	<path class="st0" d="M83,20.1c0.6,0,1.2,0.1,1.7,0.3s1,0.5,1.4,0.9c0.4,0.4,0.7,0.9,0.9,1.5c0.2,0.6,0.3,1.3,0.3,2.1
		c0,0.7-0.1,1.4-0.3,1.9c-0.2,0.6-0.5,1.1-0.8,1.5c-0.4,0.4-0.8,0.8-1.4,1c-0.5,0.2-1.2,0.4-1.9,0.4h-4.2v-9.7H83z M82.9,27.9
		c0.3,0,0.6,0,0.9-0.1c0.3-0.1,0.5-0.3,0.8-0.5c0.2-0.2,0.4-0.5,0.5-0.9c0.1-0.4,0.2-0.8,0.2-1.4c0-0.5,0-0.9-0.1-1.3
		s-0.2-0.7-0.5-1s-0.5-0.5-0.9-0.6c-0.4-0.1-0.8-0.2-1.3-0.2H81v6.1H82.9z"/>
	<path class="st0" d="M94.3,27.4c0.1,0.2,0.3,0.4,0.5,0.5s0.4,0.2,0.7,0.3c0.3,0.1,0.5,0.1,0.8,0.1c0.2,0,0.4,0,0.6,0
		c0.2,0,0.4-0.1,0.6-0.2c0.2-0.1,0.3-0.2,0.5-0.4c0.1-0.2,0.2-0.4,0.2-0.6c0-0.3-0.1-0.5-0.2-0.6c-0.2-0.2-0.4-0.3-0.7-0.4
		c-0.3-0.1-0.6-0.2-0.9-0.3c-0.3-0.1-0.7-0.2-1-0.3c-0.4-0.1-0.7-0.2-1.1-0.3c-0.3-0.1-0.6-0.3-0.9-0.5c-0.3-0.2-0.5-0.5-0.7-0.8
		c-0.2-0.3-0.2-0.7-0.2-1.1c0-0.5,0.1-0.9,0.3-1.3c0.2-0.4,0.5-0.7,0.8-0.9c0.3-0.2,0.7-0.4,1.2-0.5c0.4-0.1,0.9-0.2,1.3-0.2
		c0.5,0,1,0.1,1.5,0.2c0.5,0.1,0.9,0.3,1.2,0.5s0.6,0.6,0.9,1s0.3,0.9,0.3,1.4h-2.1c0-0.3-0.1-0.5-0.2-0.7c-0.1-0.2-0.2-0.3-0.4-0.4
		c-0.2-0.1-0.4-0.2-0.6-0.2c-0.2,0-0.5-0.1-0.7-0.1c-0.2,0-0.3,0-0.5,0.1c-0.2,0-0.3,0.1-0.5,0.2c-0.1,0.1-0.3,0.2-0.3,0.3
		c-0.1,0.1-0.1,0.3-0.1,0.5c0,0.2,0,0.3,0.1,0.5c0.1,0.1,0.2,0.2,0.4,0.3c0.2,0.1,0.5,0.2,0.9,0.3s0.9,0.2,1.5,0.4
		c0.2,0,0.4,0.1,0.8,0.2s0.6,0.2,1,0.5c0.3,0.2,0.6,0.5,0.8,0.8c0.2,0.3,0.3,0.8,0.3,1.3c0,0.4-0.1,0.9-0.3,1.2
		c-0.2,0.4-0.4,0.7-0.8,1c-0.3,0.3-0.8,0.5-1.3,0.6s-1.1,0.2-1.7,0.2c-0.5,0-1-0.1-1.5-0.2c-0.5-0.1-0.9-0.3-1.3-0.6
		s-0.7-0.6-0.9-1.1c-0.2-0.4-0.3-0.9-0.3-1.5h2.1C94.1,26.9,94.1,27.1,94.3,27.4z"/>
	<path class="st0" d="M104.4,20.1l2.3,6.6h0l2.1-6.6h3v9.7h-2v-6.8h0l-2.4,6.8h-1.6l-2.4-6.8h0v6.8h-2v-9.7H104.4z"/>
	<path class="st0" d="M115.8,20.1v9.7h-2.1v-9.7H115.8z"/>
	<path class="st0" d="M119.8,20.1v7.9h4.7v1.8h-6.8v-9.7H119.8z"/>
	<path class="st0" d="M132.9,20.1v1.8h-5.1v2.1h4.7v1.6h-4.7v2.4h5.2v1.8h-7.3v-9.7H132.9z"/>
	<path class="st0" d="M136.1,27.4c0.1,0.2,0.3,0.4,0.5,0.5s0.4,0.2,0.7,0.3c0.3,0.1,0.5,0.1,0.8,0.1c0.2,0,0.4,0,0.6,0
		c0.2,0,0.4-0.1,0.6-0.2c0.2-0.1,0.3-0.2,0.5-0.4c0.1-0.2,0.2-0.4,0.2-0.6c0-0.3-0.1-0.5-0.2-0.6c-0.2-0.2-0.4-0.3-0.7-0.4
		c-0.3-0.1-0.6-0.2-0.9-0.3c-0.3-0.1-0.7-0.2-1-0.3c-0.4-0.1-0.7-0.2-1.1-0.3c-0.3-0.1-0.6-0.3-0.9-0.5c-0.3-0.2-0.5-0.5-0.7-0.8
		c-0.2-0.3-0.2-0.7-0.2-1.1c0-0.5,0.1-0.9,0.3-1.3c0.2-0.4,0.5-0.7,0.8-0.9c0.3-0.2,0.7-0.4,1.2-0.5c0.4-0.1,0.9-0.2,1.3-0.2
		c0.5,0,1,0.1,1.5,0.2c0.5,0.1,0.9,0.3,1.2,0.5s0.6,0.6,0.9,1s0.3,0.9,0.3,1.4h-2.1c0-0.3-0.1-0.5-0.2-0.7c-0.1-0.2-0.2-0.3-0.4-0.4
		c-0.2-0.1-0.4-0.2-0.6-0.2c-0.2,0-0.5-0.1-0.7-0.1c-0.2,0-0.3,0-0.5,0.1c-0.2,0-0.3,0.1-0.5,0.2c-0.1,0.1-0.3,0.2-0.3,0.3
		c-0.1,0.1-0.1,0.3-0.1,0.5c0,0.2,0,0.3,0.1,0.5c0.1,0.1,0.2,0.2,0.4,0.3c0.2,0.1,0.5,0.2,0.9,0.3s0.9,0.2,1.5,0.4
		c0.2,0,0.4,0.1,0.8,0.2s0.6,0.2,1,0.5c0.3,0.2,0.6,0.5,0.8,0.8c0.2,0.3,0.3,0.8,0.3,1.3c0,0.4-0.1,0.9-0.3,1.2
		c-0.2,0.4-0.4,0.7-0.8,1c-0.3,0.3-0.8,0.5-1.3,0.6s-1.1,0.2-1.7,0.2c-0.5,0-1-0.1-1.5-0.2c-0.5-0.1-0.9-0.3-1.3-0.6
		s-0.7-0.6-0.9-1.1c-0.2-0.4-0.3-0.9-0.3-1.5h2.1C135.9,26.9,135.9,27.1,136.1,27.4z"/>
</g>
<g>
	<path class="st1" d="M13.7,33.8v3.5h0c0.2-0.4,0.6-0.6,1-0.8c0.4-0.2,0.8-0.3,1.2-0.3c0.4,0,0.7,0.1,1,0.2c0.3,0.1,0.7,0.4,0.9,0.7
		c0.3,0.3,0.5,0.7,0.7,1.1c0.2,0.5,0.3,1,0.3,1.7s-0.1,1.2-0.3,1.7c-0.2,0.5-0.4,0.8-0.7,1.1c-0.3,0.3-0.6,0.5-0.9,0.7
		c-0.3,0.1-0.7,0.2-1,0.2c-0.5,0-1-0.1-1.4-0.2c-0.4-0.2-0.7-0.4-0.9-0.8h0v0.9h-1.8v-9.7H13.7z M16.8,39.1
		c-0.1-0.3-0.2-0.5-0.3-0.7c-0.1-0.2-0.3-0.4-0.5-0.5c-0.2-0.1-0.4-0.2-0.7-0.2c-0.3,0-0.5,0.1-0.7,0.2c-0.2,0.1-0.4,0.3-0.5,0.5
		c-0.1,0.2-0.2,0.4-0.3,0.7s-0.1,0.6-0.1,0.9c0,0.3,0,0.6,0.1,0.8s0.2,0.5,0.3,0.7s0.3,0.4,0.5,0.5c0.2,0.1,0.5,0.2,0.7,0.2
		c0.3,0,0.5-0.1,0.7-0.2c0.2-0.1,0.4-0.3,0.5-0.5c0.1-0.2,0.2-0.4,0.3-0.7s0.1-0.5,0.1-0.8C16.9,39.6,16.9,39.4,16.8,39.1z"/>
	<path class="st1" d="M22.1,41.8c0.3,0.3,0.7,0.4,1.2,0.4c0.4,0,0.7-0.1,1-0.3c0.3-0.2,0.5-0.4,0.5-0.6h1.7
		c-0.3,0.8-0.7,1.4-1.2,1.8s-1.2,0.5-2,0.5c-0.5,0-1-0.1-1.5-0.3c-0.4-0.2-0.8-0.4-1.1-0.8s-0.5-0.7-0.7-1.2
		c-0.2-0.5-0.2-0.9-0.2-1.5c0-0.5,0.1-1,0.3-1.5c0.2-0.5,0.4-0.8,0.7-1.2c0.3-0.3,0.7-0.6,1.1-0.8s0.9-0.3,1.5-0.3
		c0.6,0,1.1,0.1,1.6,0.3c0.4,0.2,0.8,0.5,1.1,0.9c0.3,0.4,0.5,0.8,0.6,1.3c0.1,0.5,0.2,1,0.1,1.6h-5C21.7,41,21.8,41.5,22.1,41.8z
		 M24.3,38.1c-0.2-0.3-0.6-0.4-1-0.4c-0.3,0-0.6,0.1-0.8,0.2s-0.4,0.2-0.5,0.4c-0.1,0.2-0.2,0.3-0.3,0.5c0,0.2-0.1,0.3-0.1,0.5h3.1
		C24.7,38.7,24.5,38.3,24.3,38.1z"/>
	<path class="st1" d="M34.4,43.9c-0.1,0.4-0.2,0.7-0.5,1c-0.3,0.3-0.6,0.6-1.1,0.8c-0.5,0.2-1.1,0.3-1.9,0.3c-0.3,0-0.7,0-1-0.1
		c-0.4-0.1-0.7-0.2-1-0.4c-0.3-0.2-0.5-0.4-0.7-0.7c-0.2-0.3-0.3-0.6-0.3-1h1.9c0.1,0.4,0.3,0.6,0.5,0.8c0.3,0.1,0.6,0.2,0.9,0.2
		c0.5,0,0.9-0.2,1.2-0.5c0.2-0.3,0.4-0.7,0.4-1.2v-0.9h0c-0.2,0.4-0.5,0.6-0.9,0.8c-0.4,0.2-0.8,0.3-1.2,0.3c-0.5,0-1-0.1-1.4-0.3
		s-0.7-0.4-0.9-0.8c-0.2-0.3-0.4-0.7-0.5-1.1c-0.1-0.4-0.2-0.9-0.2-1.4c0-0.5,0.1-0.9,0.2-1.3c0.1-0.4,0.3-0.8,0.6-1.1
		c0.3-0.3,0.6-0.6,0.9-0.8c0.4-0.2,0.8-0.3,1.3-0.3c0.5,0,0.9,0.1,1.2,0.3c0.3,0.2,0.6,0.5,0.9,0.9h0v-0.9h1.8V43
		C34.5,43.3,34.5,43.6,34.4,43.9z M31.8,41.6c0.2-0.1,0.4-0.3,0.5-0.4c0.1-0.2,0.2-0.4,0.3-0.6c0.1-0.2,0.1-0.5,0.1-0.7
		c0-0.3,0-0.6-0.1-0.8c-0.1-0.3-0.1-0.5-0.3-0.7c-0.1-0.2-0.3-0.4-0.5-0.5c-0.2-0.1-0.5-0.2-0.8-0.2c-0.3,0-0.5,0.1-0.7,0.2
		c-0.2,0.1-0.4,0.3-0.5,0.4c-0.1,0.2-0.2,0.4-0.3,0.6c-0.1,0.2-0.1,0.5-0.1,0.8c0,0.3,0,0.5,0.1,0.8c0,0.2,0.1,0.5,0.3,0.7
		c0.1,0.2,0.3,0.4,0.5,0.5c0.2,0.1,0.4,0.2,0.7,0.2C31.4,41.8,31.6,41.7,31.8,41.6z"/>
	<path class="st1" d="M36.1,35.4v-1.6h1.9v1.6H36.1z M38.1,36.4v7h-1.9v-7H38.1z"/>
	<path class="st1" d="M41.4,36.4v1h0c0.2-0.4,0.6-0.7,0.9-0.9c0.4-0.2,0.8-0.3,1.2-0.3c0.5,0,0.9,0.1,1.3,0.2
		c0.3,0.1,0.6,0.3,0.8,0.6c0.2,0.2,0.3,0.5,0.4,0.9c0.1,0.4,0.1,0.8,0.1,1.2v4.3h-1.9v-3.9c0-0.6-0.1-1-0.3-1.3
		c-0.2-0.3-0.5-0.4-1-0.4c-0.5,0-0.9,0.2-1.1,0.5c-0.2,0.3-0.4,0.8-0.4,1.5v3.7h-1.9v-7H41.4z"/>
	<path class="st1" d="M49.2,41.7c0.1,0.1,0.2,0.3,0.3,0.4s0.3,0.2,0.5,0.2s0.4,0.1,0.5,0.1c0.1,0,0.3,0,0.4,0c0.1,0,0.3-0.1,0.4-0.1
		c0.1-0.1,0.2-0.2,0.3-0.3c0.1-0.1,0.1-0.3,0.1-0.4c0-0.3-0.2-0.5-0.6-0.6c-0.4-0.1-0.9-0.3-1.6-0.4c-0.3-0.1-0.6-0.1-0.8-0.2
		c-0.3-0.1-0.5-0.2-0.7-0.3c-0.2-0.1-0.4-0.3-0.5-0.5c-0.1-0.2-0.2-0.5-0.2-0.8c0-0.5,0.1-0.8,0.3-1.1c0.2-0.3,0.4-0.5,0.7-0.7
		c0.3-0.2,0.6-0.3,1-0.4s0.7-0.1,1.1-0.1s0.7,0,1.1,0.1s0.7,0.2,1,0.4s0.5,0.4,0.7,0.7c0.2,0.3,0.3,0.6,0.3,1.1h-1.8
		c0-0.4-0.2-0.6-0.4-0.8c-0.3-0.1-0.5-0.2-0.9-0.2c-0.1,0-0.2,0-0.4,0c-0.1,0-0.2,0-0.3,0.1s-0.2,0.1-0.3,0.2s-0.1,0.2-0.1,0.3
		c0,0.2,0.1,0.3,0.2,0.4c0.1,0.1,0.3,0.2,0.5,0.3c0.2,0.1,0.4,0.1,0.7,0.2c0.3,0.1,0.5,0.1,0.8,0.2c0.3,0.1,0.6,0.1,0.8,0.2
		s0.5,0.2,0.7,0.4c0.2,0.1,0.4,0.3,0.5,0.6c0.1,0.2,0.2,0.5,0.2,0.8c0,0.5-0.1,0.8-0.3,1.2c-0.2,0.3-0.4,0.6-0.7,0.8s-0.6,0.3-1,0.4
		c-0.4,0.1-0.8,0.1-1.2,0.1c-0.4,0-0.8,0-1.2-0.1c-0.4-0.1-0.7-0.2-1-0.4c-0.3-0.2-0.5-0.4-0.7-0.8s-0.3-0.7-0.3-1.2h1.8
		C49.1,41.4,49.1,41.5,49.2,41.7z"/>
	<path class="st1" d="M64.6,43.4l-1.2-4.7h0l-1.2,4.7h-2l-2.2-7h2l1.3,4.7h0l1.2-4.7h1.9l1.2,4.7h0l1.3-4.7h2l-2.2,7H64.6z"/>
	<path class="st1" d="M69.7,35.4v-1.6h1.9v1.6H69.7z M71.6,36.4v7h-1.9v-7H71.6z"/>
	<path class="st1" d="M76.9,36.4v1.3h-1.4v3.5c0,0.3,0.1,0.5,0.2,0.6c0.1,0.1,0.3,0.2,0.6,0.2c0.1,0,0.2,0,0.3,0s0.2,0,0.3,0v1.5
		c-0.2,0-0.3,0-0.5,0.1s-0.4,0-0.6,0c-0.3,0-0.6,0-0.8-0.1c-0.3,0-0.5-0.1-0.7-0.2c-0.2-0.1-0.4-0.3-0.5-0.5
		c-0.1-0.2-0.2-0.5-0.2-0.9v-4.1h-1.2v-1.3h1.2v-2.1h1.9v2.1H76.9z"/>
	<path class="st1" d="M79.8,33.8v3.6h0c0.2-0.4,0.6-0.7,0.9-0.9s0.7-0.3,1.1-0.3c0.5,0,0.9,0.1,1.3,0.2c0.3,0.1,0.6,0.3,0.8,0.6
		c0.2,0.2,0.3,0.5,0.4,0.9c0.1,0.4,0.1,0.8,0.1,1.2v4.3h-1.9v-3.9c0-0.6-0.1-1-0.3-1.3c-0.2-0.3-0.5-0.4-1-0.4
		c-0.5,0-0.9,0.2-1.1,0.5c-0.2,0.3-0.4,0.8-0.4,1.5v3.7h-1.9v-9.7H79.8z"/>
	<path class="st1" d="M89.5,38.6c0-0.5,0.1-0.8,0.3-1.1c0.2-0.3,0.5-0.5,0.8-0.7c0.3-0.2,0.7-0.3,1-0.4c0.4-0.1,0.8-0.1,1.2-0.1
		c0.4,0,0.7,0,1.1,0.1c0.4,0,0.7,0.1,1,0.3c0.3,0.1,0.5,0.3,0.7,0.6c0.2,0.3,0.3,0.6,0.3,1v3.6c0,0.3,0,0.6,0.1,0.9
		c0,0.3,0.1,0.5,0.2,0.6h-1.9c0-0.1-0.1-0.2-0.1-0.3s0-0.2,0-0.3c-0.3,0.3-0.7,0.5-1.1,0.7s-0.8,0.2-1.3,0.2c-0.3,0-0.6,0-0.9-0.1
		c-0.3-0.1-0.5-0.2-0.8-0.4c-0.2-0.2-0.4-0.4-0.5-0.6c-0.1-0.3-0.2-0.6-0.2-0.9c0-0.4,0.1-0.7,0.2-1s0.3-0.5,0.5-0.6
		s0.5-0.3,0.8-0.3c0.3-0.1,0.6-0.1,0.9-0.2c0.3,0,0.6-0.1,0.9-0.1c0.3,0,0.5-0.1,0.7-0.1c0.2-0.1,0.4-0.1,0.5-0.2
		c0.1-0.1,0.2-0.3,0.2-0.5c0-0.2,0-0.4-0.1-0.5c-0.1-0.1-0.2-0.2-0.3-0.3c-0.1-0.1-0.2-0.1-0.4-0.1c-0.1,0-0.3,0-0.5,0
		c-0.4,0-0.7,0.1-0.9,0.2c-0.2,0.2-0.3,0.4-0.4,0.8H89.5z M94,40c-0.1,0.1-0.2,0.1-0.3,0.2c-0.1,0-0.3,0.1-0.4,0.1
		c-0.1,0-0.3,0-0.4,0.1c-0.2,0-0.3,0-0.5,0.1c-0.1,0-0.3,0.1-0.4,0.1s-0.3,0.1-0.4,0.2c-0.1,0.1-0.2,0.2-0.3,0.3s-0.1,0.3-0.1,0.4
		c0,0.2,0,0.3,0.1,0.4s0.1,0.2,0.3,0.3c0.1,0.1,0.2,0.1,0.4,0.1c0.1,0,0.3,0,0.4,0c0.4,0,0.7-0.1,0.9-0.2c0.2-0.1,0.4-0.3,0.5-0.5
		c0.1-0.2,0.2-0.4,0.2-0.5c0-0.2,0-0.3,0-0.4V40z"/>
	<path class="st1" d="M102.8,41.7c0.1,0.1,0.2,0.3,0.3,0.4s0.3,0.2,0.5,0.2s0.4,0.1,0.5,0.1c0.1,0,0.3,0,0.4,0
		c0.1,0,0.3-0.1,0.4-0.1c0.1-0.1,0.2-0.2,0.3-0.3c0.1-0.1,0.1-0.3,0.1-0.4c0-0.3-0.2-0.5-0.6-0.6c-0.4-0.1-0.9-0.3-1.6-0.4
		c-0.3-0.1-0.6-0.1-0.8-0.2c-0.3-0.1-0.5-0.2-0.7-0.3c-0.2-0.1-0.4-0.3-0.5-0.5c-0.1-0.2-0.2-0.5-0.2-0.8c0-0.5,0.1-0.8,0.3-1.1
		c0.2-0.3,0.4-0.5,0.7-0.7c0.3-0.2,0.6-0.3,1-0.4s0.7-0.1,1.1-0.1s0.7,0,1.1,0.1s0.7,0.2,1,0.4s0.5,0.4,0.7,0.7
		c0.2,0.3,0.3,0.6,0.3,1.1h-1.8c0-0.4-0.2-0.6-0.4-0.8c-0.3-0.1-0.5-0.2-0.9-0.2c-0.1,0-0.2,0-0.4,0c-0.1,0-0.2,0-0.3,0.1
		s-0.2,0.1-0.3,0.2s-0.1,0.2-0.1,0.3c0,0.2,0.1,0.3,0.2,0.4c0.1,0.1,0.3,0.2,0.5,0.3c0.2,0.1,0.4,0.1,0.7,0.2
		c0.3,0.1,0.5,0.1,0.8,0.2c0.3,0.1,0.6,0.1,0.8,0.2s0.5,0.2,0.7,0.4c0.2,0.1,0.4,0.3,0.5,0.6c0.1,0.2,0.2,0.5,0.2,0.8
		c0,0.5-0.1,0.8-0.3,1.2c-0.2,0.3-0.4,0.6-0.7,0.8s-0.6,0.3-1,0.4c-0.4,0.1-0.8,0.1-1.2,0.1c-0.4,0-0.8,0-1.2-0.1
		c-0.4-0.1-0.7-0.2-1-0.4c-0.3-0.2-0.5-0.4-0.7-0.8s-0.3-0.7-0.3-1.2h1.8C102.6,41.4,102.7,41.5,102.8,41.7z"/>
	<path class="st1" d="M108.5,35.4v-1.6h1.9v1.6H108.5z M110.4,36.4v7h-1.9v-7H110.4z"/>
	<path class="st1" d="M113.7,36.4v1h0c0.2-0.4,0.6-0.7,0.9-0.9c0.4-0.2,0.8-0.3,1.2-0.3c0.5,0,0.9,0.1,1.3,0.2
		c0.3,0.1,0.6,0.3,0.8,0.6c0.2,0.2,0.3,0.5,0.4,0.9c0.1,0.4,0.1,0.8,0.1,1.2v4.3h-1.9v-3.9c0-0.6-0.1-1-0.3-1.3
		c-0.2-0.3-0.5-0.4-1-0.4c-0.5,0-0.9,0.2-1.1,0.5c-0.2,0.3-0.4,0.8-0.4,1.5v3.7h-1.9v-7H113.7z"/>
	<path class="st1" d="M126.5,43.9c-0.1,0.4-0.2,0.7-0.5,1c-0.3,0.3-0.6,0.6-1.1,0.8c-0.5,0.2-1.1,0.3-1.9,0.3c-0.3,0-0.7,0-1-0.1
		c-0.4-0.1-0.7-0.2-1-0.4c-0.3-0.2-0.5-0.4-0.7-0.7c-0.2-0.3-0.3-0.6-0.3-1h1.9c0.1,0.4,0.3,0.6,0.5,0.8c0.3,0.1,0.6,0.2,0.9,0.2
		c0.5,0,0.9-0.2,1.2-0.5c0.2-0.3,0.4-0.7,0.4-1.2v-0.9h0c-0.2,0.4-0.5,0.6-0.9,0.8c-0.4,0.2-0.8,0.3-1.2,0.3c-0.5,0-1-0.1-1.4-0.3
		s-0.7-0.4-0.9-0.8c-0.2-0.3-0.4-0.7-0.5-1.1c-0.1-0.4-0.2-0.9-0.2-1.4c0-0.5,0.1-0.9,0.2-1.3c0.1-0.4,0.3-0.8,0.6-1.1
		c0.3-0.3,0.6-0.6,0.9-0.8c0.4-0.2,0.8-0.3,1.3-0.3c0.5,0,0.9,0.1,1.2,0.3c0.3,0.2,0.6,0.5,0.9,0.9h0v-0.9h1.8V43
		C126.6,43.3,126.6,43.6,126.5,43.9z M123.9,41.6c0.2-0.1,0.4-0.3,0.5-0.4c0.1-0.2,0.2-0.4,0.3-0.6c0.1-0.2,0.1-0.5,0.1-0.7
		c0-0.3,0-0.6-0.1-0.8c-0.1-0.3-0.1-0.5-0.3-0.7c-0.1-0.2-0.3-0.4-0.5-0.5c-0.2-0.1-0.5-0.2-0.8-0.2c-0.3,0-0.5,0.1-0.7,0.2
		c-0.2,0.1-0.4,0.3-0.5,0.4c-0.1,0.2-0.2,0.4-0.3,0.6c-0.1,0.2-0.1,0.5-0.1,0.8c0,0.3,0,0.5,0.1,0.8c0,0.2,0.1,0.5,0.3,0.7
		c0.1,0.2,0.3,0.4,0.5,0.5c0.2,0.1,0.4,0.2,0.7,0.2C123.4,41.8,123.7,41.7,123.9,41.6z"/>
	<path class="st1" d="M130.1,33.8v9.7h-1.9v-9.7H130.1z"/>
	<path class="st1" d="M133.7,41.8c0.3,0.3,0.7,0.4,1.2,0.4c0.4,0,0.7-0.1,1-0.3c0.3-0.2,0.5-0.4,0.5-0.6h1.7
		c-0.3,0.8-0.7,1.4-1.2,1.8s-1.2,0.5-2,0.5c-0.5,0-1-0.1-1.5-0.3c-0.4-0.2-0.8-0.4-1.1-0.8s-0.5-0.7-0.7-1.2
		c-0.2-0.5-0.2-0.9-0.2-1.5c0-0.5,0.1-1,0.3-1.5c0.2-0.5,0.4-0.8,0.7-1.2c0.3-0.3,0.7-0.6,1.1-0.8s0.9-0.3,1.5-0.3
		c0.6,0,1.1,0.1,1.6,0.3c0.4,0.2,0.8,0.5,1.1,0.9c0.3,0.4,0.5,0.8,0.6,1.3c0.1,0.5,0.2,1,0.1,1.6h-5C133.3,41,133.4,41.5,133.7,41.8
		z M135.9,38.1c-0.2-0.3-0.6-0.4-1-0.4c-0.3,0-0.6,0.1-0.8,0.2s-0.4,0.2-0.5,0.4c-0.1,0.2-0.2,0.3-0.3,0.5c0,0.2-0.1,0.3-0.1,0.5
		h3.1C136.3,38.7,136.1,38.3,135.9,38.1z"/>
	<path class="st1" d="M145,41c0.1,0.2,0.3,0.4,0.5,0.5s0.4,0.2,0.7,0.3c0.3,0.1,0.5,0.1,0.8,0.1c0.2,0,0.4,0,0.6,0
		c0.2,0,0.4-0.1,0.6-0.2c0.2-0.1,0.3-0.2,0.5-0.4c0.1-0.2,0.2-0.4,0.2-0.6c0-0.3-0.1-0.5-0.2-0.6c-0.2-0.2-0.4-0.3-0.7-0.4
		c-0.3-0.1-0.6-0.2-0.9-0.3c-0.3-0.1-0.7-0.2-1-0.3c-0.4-0.1-0.7-0.2-1.1-0.3c-0.3-0.1-0.6-0.3-0.9-0.5c-0.3-0.2-0.5-0.5-0.7-0.8
		c-0.2-0.3-0.2-0.7-0.2-1.1c0-0.5,0.1-0.9,0.3-1.3s0.5-0.7,0.8-0.9c0.3-0.2,0.7-0.4,1.2-0.5s0.9-0.2,1.3-0.2c0.5,0,1,0.1,1.5,0.2
		c0.5,0.1,0.9,0.3,1.2,0.5s0.6,0.6,0.9,1c0.2,0.4,0.3,0.9,0.3,1.4h-2.1c0-0.3-0.1-0.5-0.2-0.7s-0.2-0.3-0.4-0.4
		c-0.2-0.1-0.4-0.2-0.6-0.2s-0.5-0.1-0.7-0.1c-0.2,0-0.3,0-0.5,0.1c-0.2,0-0.3,0.1-0.5,0.2s-0.3,0.2-0.3,0.3
		c-0.1,0.1-0.1,0.3-0.1,0.5c0,0.2,0,0.3,0.1,0.5c0.1,0.1,0.2,0.2,0.4,0.3c0.2,0.1,0.5,0.2,0.9,0.3c0.4,0.1,0.9,0.2,1.5,0.4
		c0.2,0,0.4,0.1,0.8,0.2c0.3,0.1,0.6,0.2,1,0.5c0.3,0.2,0.6,0.5,0.8,0.8c0.2,0.3,0.3,0.8,0.3,1.3c0,0.4-0.1,0.9-0.3,1.2
		c-0.2,0.4-0.4,0.7-0.8,1c-0.3,0.3-0.8,0.5-1.3,0.6s-1.1,0.2-1.7,0.2c-0.5,0-1-0.1-1.5-0.2c-0.5-0.1-0.9-0.3-1.3-0.6
		s-0.7-0.6-0.9-1.1c-0.2-0.4-0.3-0.9-0.3-1.5h2.1C144.8,40.5,144.9,40.8,145,41z"/>
	<path class="st1" d="M151.4,35.6v-1.8h7.9v1.8h-2.9v7.9h-2.1v-7.9H151.4z"/>
	<path class="st1" d="M167.6,33.8v1.8h-5.1v2.1h4.7v1.6h-4.7v2.4h5.2v1.8h-7.3v-9.7H167.6z"/>
	<path class="st1" d="M173.5,33.8c0.6,0,1.1,0.1,1.5,0.3c0.4,0.2,0.8,0.4,1,0.7c0.3,0.3,0.5,0.6,0.6,1c0.1,0.4,0.2,0.8,0.2,1.1
		c0,0.4-0.1,0.8-0.2,1.1c-0.1,0.4-0.3,0.7-0.6,1c-0.3,0.3-0.6,0.5-1,0.7c-0.4,0.2-0.9,0.3-1.5,0.3h-2.2v3.5h-2.1v-9.7H173.5z
		 M172.9,38.3c0.2,0,0.5,0,0.7-0.1c0.2,0,0.4-0.1,0.6-0.2c0.2-0.1,0.3-0.2,0.4-0.4c0.1-0.2,0.2-0.4,0.2-0.7c0-0.3-0.1-0.6-0.2-0.7
		c-0.1-0.2-0.2-0.3-0.4-0.4c-0.2-0.1-0.4-0.2-0.6-0.2c-0.2,0-0.5-0.1-0.7-0.1h-1.6v2.9H172.9z"/>
</g>
</svg>
