<?xml version="1.0" encoding="utf-8"?>
<!-- Generator: Adobe Illustrator 26.3.1, SVG Export Plug-In . SVG Version: 6.00 Build 0)  -->
<svg version="1.1" id="Layer_1" xmlns="http://www.w3.org/2000/svg" xmlns:xlink="http://www.w3.org/1999/xlink" x="0px" y="0px"
	 viewBox="0 0 728 90" style="enable-background:new 0 0 728 90;" xml:space="preserve">
<style type="text/css">
	.st0{fill:#349946;}
	.st1{fill:#231F20;}
	.st2{fill:none;}
</style>
<path class="st0" d="M27.3,62.3h-2.5L24,59.9h-5l-0.8,2.4h-2.5l4.4-11.6H22c0.6,0,1,0.2,1.2,0.6c0.2,0.4,2.2,5.6,2.2,5.6H23L21.5,53
	L19.7,58h5c0.7,0,1,0.2,1.2,0.8L27.3,62.3z"/>
<path class="st0" d="M49.3,62.3h-2.5L46,59.9h-5l-0.8,2.4h-2.5l4.4-11.6h1.8c0.6,0,1,0.2,1.2,0.6c0.2,0.4,2.2,5.6,2.2,5.6h-2.3
	L43.5,53L41.7,58h5c0.7,0,1,0.2,1.2,0.8L49.3,62.3z"/>
<path class="st0" d="M28.1,50.7h4.5c3.5,0,5.3,1.9,5.3,5.8c0,2.2-0.7,3.8-1.9,4.8c-1.1,0.9-2.4,1-4,1h-3.9V50.7z M32.4,60.2
	c2.2,0,3.1-1.1,3.1-3.7c0-2.6-0.9-3.8-2.9-3.8h-2.2v7.5H32.4z"/>
<g>
	<path class="st1" d="M68.9,62.2h-1.8l-0.8-8.3l-2.8,8.3H62l-2.9-8.3l-0.7,8.3h-1.7l1.1-11h2.1l3,8.5l2.9-8.5h2.1L68.9,62.2z"/>
	<path class="st1" d="M77.9,58.1c0,0.1,0,0.2,0,0.4c0,0.1,0,0.2,0,0.3h-5.4c0,0.6,0.2,1.1,0.5,1.5c0.4,0.5,1,0.7,1.8,0.7
		c0.7,0,1.4-0.2,2.2-0.6l0.6,1.2c-0.8,0.6-1.8,0.9-3,0.9c-1.2,0-2.2-0.4-2.9-1.2c-0.7-0.8-1-1.7-1-3c0-1.3,0.4-2.3,1.1-3.1
		s1.6-1.2,2.7-1.2c1.1,0,1.9,0.4,2.5,1.1C77.6,55.8,77.9,56.8,77.9,58.1z M76.2,57.4c0-0.5-0.1-0.9-0.3-1.3
		c-0.3-0.5-0.8-0.8-1.4-0.8c-0.6,0-1,0.2-1.4,0.6c-0.4,0.4-0.6,0.9-0.7,1.5H76.2z"/>
	<path class="st1" d="M91.1,62.2h-1.8v-4.5c0-0.9-0.1-1.5-0.3-1.8c-0.2-0.3-0.5-0.4-1-0.4c-0.6,0-1.2,0.2-1.8,0.6
		c0.1,0.2,0.1,0.8,0.1,1.8v4.3h-1.8v-4.4c0-1-0.1-1.7-0.4-2c-0.2-0.2-0.5-0.3-0.9-0.3c-0.6,0-1.2,0.2-1.7,0.6v6.2h-1.8v-8h1.6v0.6
		c0.7-0.5,1.5-0.8,2.4-0.8c0.8,0,1.5,0.3,2,0.9c0.9-0.6,1.8-0.9,2.7-0.9c0.8,0,1.5,0.2,2,0.7c0.4,0.4,0.6,0.9,0.8,1.5
		c0.1,0.4,0.1,1.1,0.1,2V62.2z"/>
	<path class="st1" d="M100.4,58c0,1.3-0.4,2.4-1.2,3.2c-0.8,0.8-1.8,1.2-3,1.2c-0.9,0-1.9-0.2-3.2-0.6V50.3h1.8v4.2
		c0.6-0.4,1.3-0.6,2.1-0.6c1,0,1.9,0.4,2.5,1.1S100.4,56.8,100.4,58z M98.6,58c0-0.8-0.2-1.5-0.6-1.9c-0.4-0.4-0.9-0.7-1.4-0.7
		c-0.6,0-1.1,0.2-1.7,0.6v4.7c0.5,0.1,0.9,0.2,1.3,0.2c0.7,0,1.3-0.3,1.7-0.8C98.4,59.6,98.6,58.9,98.6,58z"/>
	<path class="st1" d="M109,58.1c0,0.1,0,0.2,0,0.4c0,0.1,0,0.2,0,0.3h-5.4c0,0.6,0.2,1.1,0.5,1.5c0.4,0.5,1,0.7,1.8,0.7
		c0.7,0,1.4-0.2,2.2-0.6l0.6,1.2c-0.8,0.6-1.8,0.9-3,0.9c-1.2,0-2.2-0.4-2.9-1.2c-0.7-0.8-1-1.7-1-3c0-1.3,0.4-2.3,1.1-3.1
		s1.6-1.2,2.7-1.2c1.1,0,1.9,0.4,2.5,1.1C108.7,55.8,109,56.8,109,58.1z M107.3,57.4c0-0.5-0.1-0.9-0.3-1.3
		c-0.3-0.5-0.8-0.8-1.4-0.8c-0.6,0-1,0.2-1.4,0.6c-0.4,0.4-0.6,0.9-0.7,1.5H107.3z"/>
	<path class="st1" d="M115.8,54.1l-0.4,1.4c-0.2,0-0.3,0-0.5,0c-1,0-1.7,0.4-2.3,1.2v5.5h-1.8v-8h1.6v1c0.1-0.2,0.4-0.4,0.7-0.7
		c0.6-0.4,1.2-0.6,1.9-0.6C115.2,53.9,115.5,54,115.8,54.1z"/>
</g>
<g>
	<path class="st1" d="M122.4,59.9c0,0.8-0.3,1.4-0.9,1.8c-0.6,0.5-1.3,0.7-2.2,0.7c-0.7,0-1.4-0.1-2.1-0.4c-0.4-0.2-0.7-0.3-0.9-0.5
		l0.6-1.2c0.8,0.4,1.5,0.6,2.1,0.6c0.4,0,0.8-0.1,1-0.3s0.4-0.4,0.4-0.7s-0.2-0.5-0.5-0.7c-0.1-0.1-0.6-0.3-1.3-0.6
		c-0.6-0.3-1.1-0.5-1.4-0.8c-0.5-0.4-0.7-0.9-0.7-1.6c0-0.7,0.3-1.3,0.8-1.7c0.5-0.4,1.3-0.7,2.2-0.7c1.1,0,2,0.2,2.6,0.7l-0.6,1.2
		c-0.6-0.4-1.3-0.5-1.9-0.5c-0.9,0-1.3,0.3-1.3,0.9c0,0.3,0.1,0.5,0.4,0.7c0.2,0.1,0.5,0.3,1,0.5c0.8,0.3,1.4,0.6,1.6,0.9
		C122.1,58.6,122.4,59.2,122.4,59.9z"/>
	<path class="st1" d="M130.3,62.2h-1.9v-11h1.9V62.2z"/>
	<path class="st1" d="M139.4,62.2h-1.8v-4.4c0-1.1-0.1-1.7-0.4-2s-0.6-0.4-1-0.4c-0.6,0-1.2,0.2-1.8,0.6v6.1h-1.8v-8h1.6v0.6
		c0.8-0.5,1.6-0.8,2.4-0.8c0.8,0,1.5,0.2,2,0.7c0.4,0.4,0.6,0.8,0.7,1.4c0.1,0.3,0.1,0.9,0.1,1.6V62.2z"/>
	<path class="st1" d="M146.8,59.9c0,0.8-0.3,1.4-0.9,1.8c-0.6,0.5-1.3,0.7-2.2,0.7c-0.7,0-1.4-0.1-2.1-0.4c-0.4-0.2-0.7-0.3-0.9-0.5
		l0.6-1.2c0.8,0.4,1.5,0.6,2.1,0.6c0.4,0,0.8-0.1,1-0.3s0.4-0.4,0.4-0.7s-0.2-0.5-0.5-0.7c-0.1-0.1-0.6-0.3-1.3-0.6
		c-0.6-0.3-1.1-0.5-1.4-0.8c-0.5-0.4-0.7-0.9-0.7-1.6c0-0.7,0.3-1.3,0.8-1.7c0.5-0.4,1.3-0.7,2.2-0.7c1.1,0,2,0.2,2.6,0.7l-0.6,1.2
		c-0.6-0.4-1.3-0.5-1.9-0.5c-0.9,0-1.3,0.3-1.3,0.9c0,0.3,0.1,0.5,0.4,0.7c0.2,0.1,0.5,0.3,1,0.5c0.8,0.3,1.4,0.6,1.6,0.9
		C146.5,58.6,146.8,59.2,146.8,59.9z"/>
	<path class="st1" d="M155.4,62.2h-1.6v-0.6c-0.7,0.5-1.5,0.8-2.4,0.8c-0.8,0-1.5-0.2-2-0.7c-0.4-0.4-0.6-0.8-0.7-1.4
		c-0.1-0.3-0.1-0.9-0.1-1.6v-4.5h1.8v4.4c0,0.5,0,0.9,0,1.1c0.1,0.5,0.2,0.8,0.4,1c0.2,0.2,0.5,0.3,1,0.3c0.5,0,1-0.2,1.8-0.6v-6.1
		h1.8V62.2z"/>
	<path class="st1" d="M162.5,54.1l-0.4,1.4c-0.2,0-0.3,0-0.5,0c-1,0-1.7,0.4-2.3,1.2v5.5h-1.8v-8h1.6v1c0.1-0.2,0.4-0.4,0.7-0.7
		c0.6-0.4,1.2-0.6,1.9-0.6C162,53.9,162.3,54,162.5,54.1z"/>
</g>
<g>
	<path class="st1" d="M169.6,62.2H168v-0.6c-0.8,0.5-1.6,0.8-2.4,0.8c-0.8,0-1.4-0.2-1.9-0.7c-0.5-0.5-0.7-1.1-0.7-1.8
		c0-1.9,1.5-2.8,4.5-2.8h0.3v-0.3c0-0.5-0.1-0.8-0.3-1c-0.2-0.2-0.7-0.4-1.3-0.4c-0.7,0-1.4,0.2-2.2,0.6l-0.6-1.2
		c0.2-0.2,0.5-0.3,0.9-0.5c0.6-0.3,1.3-0.4,2.1-0.4c1.1,0,1.9,0.3,2.5,0.9c0.3,0.3,0.5,0.6,0.5,1.1c0.1,0.3,0.1,0.7,0.1,1.4V62.2z
		 M167.9,60.4v-2.1h-0.4c-1.3,0-2.1,0.2-2.5,0.6c-0.2,0.2-0.3,0.5-0.3,0.8c0,0.4,0.1,0.7,0.4,0.9c0.3,0.2,0.6,0.3,1,0.3
		C166.6,61,167.2,60.8,167.9,60.4z"/>
	<path class="st1" d="M178.4,62.2h-1.8v-4.4c0-1.1-0.1-1.7-0.4-2s-0.6-0.4-1-0.4c-0.6,0-1.2,0.2-1.8,0.6v6.1h-1.8v-8h1.6v0.6
		c0.8-0.5,1.6-0.8,2.4-0.8c0.8,0,1.5,0.2,2,0.7c0.4,0.4,0.6,0.8,0.7,1.4c0.1,0.3,0.1,0.9,0.1,1.6V62.2z"/>
	<path class="st1" d="M187,61.5c-0.1,0.1-0.4,0.3-0.8,0.5c-0.7,0.3-1.4,0.4-2.1,0.4c-1.2,0-2.2-0.4-2.9-1.1c-0.7-0.8-1.1-1.8-1.1-3
		c0-1.3,0.4-2.3,1.2-3.1c0.8-0.8,1.8-1.2,3-1.2c0.7,0,1.3,0.1,1.9,0.4c0.4,0.2,0.7,0.4,0.8,0.5l-0.7,1.1c-0.6-0.4-1.2-0.6-1.8-0.6
		c-0.7,0-1.4,0.3-1.8,0.8c-0.4,0.5-0.6,1.1-0.6,1.9c0,0.8,0.2,1.5,0.6,2c0.4,0.5,1,0.8,1.8,0.8c0.6,0,1.3-0.2,2-0.6L187,61.5z"/>
</g>
<g>
	<path class="st1" d="M195,58.1c0,0.1,0,0.2,0,0.4c0,0.1,0,0.2,0,0.3h-5.4c0,0.6,0.2,1.1,0.5,1.5c0.4,0.5,1,0.7,1.8,0.7
		c0.7,0,1.4-0.2,2.2-0.6l0.6,1.2c-0.8,0.6-1.8,0.9-3,0.9c-1.2,0-2.2-0.4-2.9-1.2c-0.7-0.8-1-1.7-1-3c0-1.3,0.4-2.3,1.1-3.1
		s1.6-1.2,2.7-1.2c1.1,0,1.9,0.4,2.5,1.1C194.7,55.8,195,56.8,195,58.1z M193.3,57.4c0-0.5-0.1-0.9-0.3-1.3
		c-0.3-0.5-0.8-0.8-1.4-0.8c-0.6,0-1,0.2-1.4,0.6c-0.4,0.4-0.6,0.9-0.7,1.5H193.3z"/>
	<path class="st1" d="M208.2,54.5c0,1-0.3,1.8-0.9,2.5c-0.5,0.5-1,0.8-1.7,0.9c-0.4,0.1-1.1,0.1-2,0.1h-0.8v4.2h-1.9v-11h2.9
		c0.9,0,1.6,0,2,0.1c0.6,0.1,1.2,0.4,1.5,0.8C207.9,52.8,208.2,53.5,208.2,54.5z M206.3,54.5c0-0.6-0.2-1-0.5-1.4
		c-0.3-0.3-1-0.4-2-0.4h-1v3.8h0.8c1.2,0,2-0.2,2.3-0.5C206.1,55.6,206.3,55.2,206.3,54.5z"/>
	<path class="st1" d="M212,62.2h-1.8V50.3h1.8V62.2z"/>
	<path class="st1" d="M220.2,62.2h-1.6v-0.6c-0.8,0.5-1.6,0.8-2.4,0.8c-0.8,0-1.4-0.2-1.9-0.7c-0.5-0.5-0.7-1.1-0.7-1.8
		c0-1.9,1.5-2.8,4.5-2.8h0.3v-0.3c0-0.5-0.1-0.8-0.3-1c-0.2-0.2-0.7-0.4-1.3-0.4c-0.7,0-1.4,0.2-2.2,0.6l-0.6-1.2
		c0.2-0.2,0.5-0.3,0.9-0.5c0.6-0.3,1.3-0.4,2.1-0.4c1.1,0,1.9,0.3,2.5,0.9c0.3,0.3,0.5,0.6,0.5,1.1c0.1,0.3,0.1,0.7,0.1,1.4V62.2z
		 M218.5,60.4v-2.1h-0.4c-1.3,0-2.1,0.2-2.5,0.6c-0.2,0.2-0.3,0.5-0.3,0.8c0,0.4,0.1,0.7,0.4,0.9c0.3,0.2,0.6,0.3,1,0.3
		C217.2,61,217.8,60.8,218.5,60.4z"/>
	<path class="st1" d="M229,62.2h-1.8v-4.4c0-1.1-0.1-1.7-0.4-2s-0.6-0.4-1-0.4c-0.6,0-1.2,0.2-1.8,0.6v6.1h-1.8v-8h1.6v0.6
		c0.8-0.5,1.6-0.8,2.4-0.8c0.8,0,1.5,0.2,2,0.7c0.4,0.4,0.6,0.8,0.7,1.4c0.1,0.3,0.1,0.9,0.1,1.6V62.2z"/>
	<path class="st1" d="M236.4,59.9c0,0.8-0.3,1.4-0.9,1.8c-0.6,0.5-1.3,0.7-2.2,0.7c-0.7,0-1.4-0.1-2.1-0.4c-0.4-0.2-0.7-0.3-0.9-0.5
		l0.6-1.2c0.8,0.4,1.5,0.6,2.1,0.6c0.4,0,0.8-0.1,1-0.3s0.4-0.4,0.4-0.7s-0.2-0.5-0.5-0.7c-0.1-0.1-0.6-0.3-1.3-0.6
		c-0.6-0.3-1.1-0.5-1.4-0.8c-0.5-0.4-0.7-0.9-0.7-1.6c0-0.7,0.3-1.3,0.8-1.7c0.5-0.4,1.3-0.7,2.2-0.7c1.1,0,2,0.2,2.6,0.7l-0.6,1.2
		c-0.6-0.4-1.3-0.5-1.9-0.5c-0.9,0-1.3,0.3-1.3,0.9c0,0.3,0.1,0.5,0.4,0.7c0.2,0.1,0.5,0.3,1,0.5c0.8,0.3,1.4,0.6,1.6,0.9
		C236.1,58.6,236.4,59.2,236.4,59.9z"/>
</g>
<path class="st0" d="M50.9,62.3c-0.8,0-1.4-0.6-1.4-1.4c0-0.8,0.6-1.4,1.4-1.4c0.8,0,1.4,0.6,1.4,1.4C52.3,61.7,51.7,62.3,50.9,62.3
	 M50.9,59.9c-0.6,0-1,0.5-1,1c0,0.6,0.5,1,1,1c0.6,0,1-0.4,1-1C52,60.4,51.5,59.9,50.9,59.9 M51.2,61.7l-0.2-0.4
	c-0.1-0.2-0.1-0.2-0.3-0.2h0v0.6h-0.3v-1.4h0.4c0.2,0,0.3,0,0.5,0.1c0.1,0.1,0.1,0.2,0.1,0.3c0,0.1-0.1,0.3-0.2,0.3
	c0.1,0,0.1,0.1,0.1,0.2l0.2,0.5H51.2z M51,60.5c-0.1,0-0.1,0-0.2,0h-0.1v0.4c0.1,0,0.2,0,0.3,0c0.1,0,0.2-0.1,0.2-0.2
	C51.1,60.6,51.1,60.5,51,60.5"/>
<rect x="15.8" y="48.5" class="st2" width="221" height="15.2"/>
</svg>
