<?xml version="1.0" encoding="utf-8"?>
<!-- Generator: Adobe Illustrator 26.3.1, SVG Export Plug-In . SVG Version: 6.00 Build 0)  -->
<svg version="1.1" id="Layer_1" xmlns="http://www.w3.org/2000/svg" xmlns:xlink="http://www.w3.org/1999/xlink" x="0px" y="0px"
	 viewBox="0 0 728 90" style="enable-background:new 0 0 728 90;" xml:space="preserve">
<style type="text/css">
	.st0{clip-path:url(#SVGID_00000150091393936848688170000003081451026534296754_);fill:#231F20;}
	.st1{clip-path:url(#SVGID_00000150091393936848688170000003081451026534296754_);fill:#00B2EE;}
</style>
<g>
	<defs>
		<rect id="SVGID_1_" x="88.1" y="16.6" width="78.1" height="26.5"/>
	</defs>
	<clipPath id="SVGID_00000147193614894461312760000005290488988483864975_">
		<use xlink:href="#SVGID_1_"  style="overflow:visible;"/>
	</clipPath>
	<path style="clip-path:url(#SVGID_00000147193614894461312760000005290488988483864975_);fill:#231F20;" d="M88.7,30.8h4.2
		c3.3,0,4,2.2,4,3.6c0,1.4-0.6,3.6-4,3.6h-2.1v4.5h-2V30.8z M90.7,36.3h2c0.9,0,2-0.5,2-1.9c0-1.5-0.9-1.9-2-1.9h-2.1V36.3z"/>
	<path style="clip-path:url(#SVGID_00000147193614894461312760000005290488988483864975_);fill:#231F20;" d="M98,34.1h1.7v1.6h0
		c0.2-0.9,1.3-1.9,2.5-1.9c0.4,0,0.5,0,0.7,0v1.8c-0.3,0-0.5-0.1-0.8-0.1c-1.3,0-2.3,1-2.3,2.9v4H98V34.1z"/>
	<path style="clip-path:url(#SVGID_00000147193614894461312760000005290488988483864975_);fill:#231F20;" d="M103.2,38.3
		c0-2.6,1.5-4.4,4.3-4.4c2.7,0,4.3,1.9,4.3,4.4c0,2.6-1.5,4.4-4.3,4.4C104.8,42.7,103.2,40.8,103.2,38.3 M109.9,38.3
		c0-1.4-0.7-3-2.4-3c-1.7,0-2.4,1.5-2.4,3c0,1.5,0.7,3,2.4,3C109.1,41.2,109.9,39.7,109.9,38.3"/>
	<path style="clip-path:url(#SVGID_00000147193614894461312760000005290488988483864975_);fill:#231F20;" d="M112,34.1h1.5v-2.5h1.8
		v2.5h1.7v1.4h-1.7v4.5c0,0.8,0.1,1.2,0.9,1.2c0.3,0,0.5,0,0.8-0.1v1.4c-0.4,0-0.8,0.1-1.2,0.1c-1.9,0-2.3-0.7-2.3-2.2v-5H112V34.1z
		"/>
	<path style="clip-path:url(#SVGID_00000147193614894461312760000005290488988483864975_);fill:#231F20;" d="M119.6,38.7
		c0,1.3,0.7,2.5,2.3,2.5c1.1,0,1.7-0.5,2.1-1.4h1.8c-0.4,1.8-2,2.9-3.8,2.9c-2.6,0-4.1-1.8-4.1-4.4c0-2.4,1.6-4.4,4.1-4.4
		c2.7,0,4.3,2.4,4,4.9H119.6z M123.9,37.5c-0.1-1.2-0.9-2.2-2.1-2.2c-1.3,0-2.2,1-2.2,2.2H123.9z"/>
	<path style="clip-path:url(#SVGID_00000147193614894461312760000005290488988483864975_);fill:#231F20;" d="M132.8,36.9
		c-0.1-1-0.9-1.6-1.9-1.6c-1,0-2.3,0.5-2.3,3.1c0,1.4,0.6,2.9,2.2,2.9c1.1,0,1.8-0.7,2-1.9h1.9c-0.3,2.2-1.7,3.4-3.9,3.4
		c-2.6,0-4.1-1.9-4.1-4.3c0-2.5,1.4-4.5,4.2-4.5c2,0,3.6,1,3.8,3H132.8z"/>
	<path style="clip-path:url(#SVGID_00000147193614894461312760000005290488988483864975_);fill:#231F20;" d="M135.1,34.1h1.4v-2.5
		h1.9v2.5h1.7v1.4h-1.7v4.5c0,0.8,0.1,1.2,0.9,1.2c0.3,0,0.5,0,0.8-0.1v1.4c-0.4,0-0.8,0.1-1.2,0.1c-1.9,0-2.3-0.7-2.3-2.2v-5h-1.4
		V34.1z"/>
	<path style="clip-path:url(#SVGID_00000147193614894461312760000005290488988483864975_);fill:#231F20;" d="M142.2,30.8h1.9v1.8
		h-1.9V30.8z M142.2,34h1.9v8.4h-1.9V34z"/>
	<polygon style="clip-path:url(#SVGID_00000147193614894461312760000005290488988483864975_);fill:#231F20;" points="145.4,34.1 
		147.4,34.1 150.1,40.5 150.1,40.5 152.6,34.1 154.5,34.1 151,42.5 149,42.5 	"/>
	<path style="clip-path:url(#SVGID_00000147193614894461312760000005290488988483864975_);fill:#231F20;" d="M156.9,38.7
		c0,1.3,0.7,2.5,2.3,2.5c1.1,0,1.7-0.5,2.1-1.4h1.8c-0.4,1.8-2,2.9-3.8,2.9c-2.6,0-4.1-1.8-4.1-4.4c0-2.4,1.6-4.4,4.1-4.4
		c2.7,0,4.3,2.4,4,4.9H156.9z M161.2,37.5c-0.1-1.2-0.9-2.2-2.1-2.2c-1.3,0-2.2,1-2.2,2.2H161.2z"/>
	<path style="clip-path:url(#SVGID_00000147193614894461312760000005290488988483864975_);fill:#00B2EE;" d="M138.7,28.9
		c-1.2-4.6-4.9-8.3-9.5-9.4c-0.4-1.4-1.7-2.5-3.3-2.5s-2.9,1-3.3,2.5c-4.6,1.2-8.3,4.8-9.5,9.4l-0.1,0.5h2.8l0.1-0.3
		c1.1-3.4,3.7-6,7.1-6.9c0.6,1,1.7,1.7,3,1.7c1.3,0,2.4-0.7,3-1.7c3.3,1,6,3.6,7.1,6.9l0.1,0.3h2.8L138.7,28.9z"/>
	<path style="clip-path:url(#SVGID_00000147193614894461312760000005290488988483864975_);fill:#231F20;" d="M165,41
		c0.5,0,0.8,0.4,0.8,0.8c0,0.5-0.4,0.8-0.8,0.8s-0.8-0.4-0.8-0.8C164.2,41.4,164.5,41,165,41 M165.7,41.9c0-0.4-0.3-0.7-0.7-0.7
		s-0.7,0.3-0.7,0.7c0,0.4,0.3,0.7,0.7,0.7S165.7,42.3,165.7,41.9 M164.7,41.4h0.4c0.2,0,0.3,0.1,0.3,0.3c0,0.2-0.1,0.3-0.3,0.3
		l0.3,0.4h-0.1L165,42h-0.2v0.4h-0.1V41.4z M165,41.8c0.1,0,0.3,0,0.3-0.2c0-0.1-0.1-0.1-0.2-0.1h-0.2v0.3H165z"/>
</g>
</svg>
