<svg id="Layer_1" xmlns="http://www.w3.org/2000/svg" viewBox="0 0 728 90"><style>.st0{fill:#231f20}</style><path class="st0" d="M34.6 19.9l7.2 19.3h-4.4L36 34.9h-7.2l-1.5 4.3H23l7.3-19.3h4.3zm.3 11.9l-2.4-7.1h-.1l-2.5 7.1h5zM46.5 25.3v1.9h.1c.5-.8 1.1-1.4 1.9-1.8.8-.4 1.6-.6 2.4-.6 1 0 1.9.1 2.5.4.7.3 1.2.7 1.6 1.2s.6 1.1.8 1.8c.2.7.2 1.5.2 2.4v8.6h-3.8v-7.9c0-1.2-.2-2-.5-2.6-.4-.6-1-.9-1.9-.9-1 0-1.8.3-2.3.9-.5.6-.7 1.6-.7 3.1v7.3H43v-14h3.5zM68.5 37.4c-.5.8-1 1.3-1.8 1.6s-1.6.5-2.5.5c-1 0-2-.2-2.8-.6-.8-.4-1.4-1-2-1.6s-.9-1.5-1.2-2.4c-.1-.9-.2-1.8-.2-2.8 0-.9.1-1.8.4-2.7.3-.9.6-1.6 1.2-2.3.5-.7 1.2-1.2 1.9-1.6.8-.4 1.7-.6 2.7-.6.8 0 1.6.2 2.4.5.7.4 1.3.9 1.8 1.6h.1v-7h3.8v19.3h-3.6l-.2-1.9zm-.2-6.9c-.1-.5-.3-1-.6-1.4-.3-.4-.6-.7-1-1-.4-.3-.9-.4-1.6-.4-.6 0-1.2.1-1.6.4s-.8.6-1 1c-.3.4-.5.9-.6 1.4-.1.5-.2 1.1-.2 1.7 0 .5.1 1.1.2 1.6s.3 1 .6 1.4c.3.4.6.8 1.1 1s.9.4 1.5.4 1.2-.1 1.6-.4c.4-.3.8-.6 1-1 .3-.4.4-.9.5-1.4s.2-1.1.2-1.7c.1-.5 0-1-.1-1.6zM95.3 40.2c-.2.7-.5 1.4-1 2-.5.6-1.2 1.1-2.2 1.6-1 .4-2.2.6-3.8.6-.7 0-1.4-.1-2.1-.3s-1.4-.4-1.9-.8c-.6-.4-1.1-.8-1.5-1.4-.4-.6-.6-1.2-.7-2h3.8c.2.7.5 1.2 1.1 1.5.5.3 1.1.4 1.8.4 1.1 0 1.9-.3 2.4-1 .5-.6.7-1.5.7-2.5v-1.8h-.1c-.4.7-1 1.3-1.8 1.6-.8.4-1.6.5-2.4.5-1 0-1.9-.2-2.7-.6-.8-.4-1.4-.9-1.9-1.5s-.8-1.4-1.1-2.2-.3-1.8-.3-2.7c0-.9.1-1.8.4-2.6.3-.8.6-1.6 1.1-2.2.5-.6 1.1-1.1 1.9-1.5.7-.4 1.6-.6 2.6-.6.9 0 1.7.2 2.4.5s1.3.9 1.7 1.7h.1V25h3.6v13.1c.1.8 0 1.4-.1 2.1zM90 35.6c.4-.2.8-.5 1-.9.3-.4.5-.8.6-1.2.1-.5.2-.9.2-1.4 0-.6-.1-1.1-.2-1.6s-.3-1-.5-1.4-.6-.7-1-.9c-.4-.2-.9-.4-1.6-.4-.5 0-1 .1-1.4.3-.4.2-.7.5-1 .9-.3.4-.5.8-.6 1.3-.1.5-.2 1-.2 1.5s0 1 .1 1.5.3.9.5 1.3.6.7 1 1c.4.3.9.4 1.5.4.7-.1 1.2-.2 1.6-.4zM102.4 35.9c.6.6 1.4.8 2.5.8.8 0 1.4-.2 2-.6.6-.4.9-.8 1-1.2h3.4c-.5 1.7-1.4 2.9-2.5 3.6-1.1.7-2.5 1.1-4 1.1-1.1 0-2.1-.2-3-.5-.9-.4-1.6-.9-2.2-1.5-.6-.6-1.1-1.4-1.4-2.3-.3-.9-.5-1.9-.5-3 0-1 .2-2 .5-2.9s.8-1.7 1.5-2.3c.6-.7 1.4-1.2 2.3-1.6s1.8-.6 2.9-.6c1.2 0 2.2.2 3.1.7.9.5 1.6 1.1 2.2 1.8s1 1.7 1.2 2.6c.3 1 .3 2 .3 3.1h-10.1c-.1 1.3.3 2.2.8 2.8zm4.4-7.4c-.5-.5-1.2-.8-2.1-.8-.6 0-1.1.1-1.5.3-.4.2-.7.5-1 .8-.2.3-.4.6-.5 1-.1.3-.2.6-.2.9h6.2c-.2-.9-.5-1.7-.9-2.2zM121.3 25.3v2.6h-2.8v6.9c0 .6.1 1.1.3 1.3.2.2.6.3 1.3.3h.6c.2 0 .4 0 .6-.1v3c-.3.1-.7.1-1.1.1H119c-.6 0-1.2 0-1.7-.1s-1-.2-1.4-.5c-.4-.2-.7-.6-1-1s-.4-1-.4-1.7v-8.2h-2.3v-2.6h2.3v-4.2h3.8v4.2h3zM139.9 44.1v-6.6h-.1c-.5.8-1.1 1.3-1.9 1.6-.8.3-1.6.5-2.5.5-.6 0-1.3-.1-2-.4-.7-.2-1.3-.6-1.9-1.2s-1.1-1.3-1.4-2.2c-.4-.9-.6-2.1-.6-3.4 0-1 .1-1.9.4-2.8.3-.9.6-1.7 1.2-2.4.5-.7 1.2-1.2 2-1.7.8-.4 1.7-.6 2.8-.6.9 0 1.7.2 2.4.5s1.4.9 1.8 1.7h.1v-1.8h3.6v18.8h-3.9zm-6.4-10.2c.1.5.3 1 .6 1.4.3.4.6.8 1 1 .4.3.9.4 1.6.4.6 0 1.2-.1 1.6-.4.4-.2.8-.6 1-1 .3-.4.4-.9.6-1.4.1-.5.2-1.1.2-1.7 0-.5-.1-1.1-.2-1.6s-.3-1-.6-1.5c-.3-.4-.6-.8-1-1.1-.4-.3-.9-.4-1.5-.4s-1.2.1-1.6.4c-.4.3-.8.6-1.1 1-.3.4-.5.9-.6 1.4-.1.5-.2 1.1-.2 1.7 0 .7.1 1.3.2 1.8zM155.8 39.2v-1.9h-.1c-.5.8-1.1 1.4-1.9 1.8s-1.6.5-2.4.5c-1 0-1.9-.1-2.5-.4a5 5 0 0 1-1.6-1.1c-.4-.5-.6-1.1-.8-1.8-.2-.7-.2-1.5-.2-2.4v-8.6h3.8v7.9c0 1.2.2 2 .5 2.6.4.6 1 .9 1.9.9 1 0 1.8-.3 2.3-.9.5-.6.7-1.6.7-3.1v-7.3h3.8v14h-3.5zM161.9 29.6c.1-.9.3-1.6.7-2.2.4-.6.9-1.1 1.5-1.4.6-.4 1.3-.6 2.1-.8s1.5-.2 2.3-.2c.7 0 1.4 0 2.1.1.7.1 1.4.3 2 .6.6.3 1.1.7 1.5 1.2.4.5.6 1.2.6 2v7.3c0 .6 0 1.2.1 1.8.1.6.2 1 .4 1.3h-3.9c-.1-.2-.1-.4-.2-.7 0-.2-.1-.5-.1-.7-.6.6-1.3 1.1-2.2 1.3s-1.7.4-2.5.4c-.7 0-1.3-.1-1.9-.2s-1.1-.4-1.5-.8c-.4-.3-.8-.8-1-1.3s-.4-1.1-.4-1.9c0-.8.1-1.4.4-2 .3-.5.6-.9 1.1-1.2.4-.3.9-.5 1.5-.7.6-.2 1.1-.3 1.7-.4.6-.1 1.1-.2 1.7-.2.6-.1 1.1-.1 1.5-.2s.8-.3 1-.5c.3-.2.4-.5.4-.9s-.1-.7-.2-1c-.1-.2-.3-.4-.5-.6-.2-.1-.5-.2-.8-.3-.3 0-.6-.1-1-.1-.8 0-1.4.2-1.8.5-.4.3-.7.9-.8 1.6h-3.8zm8.9 2.8c-.2.1-.4.3-.6.3s-.5.1-.8.2c-.3.1-.6.1-.9.1s-.6.1-.9.1c-.3.1-.6.1-.9.2-.3.1-.5.2-.7.4-.2.2-.4.3-.5.6-.1.2-.2.5-.2.9 0 .3.1.6.2.9.1.2.3.4.5.6.2.1.5.2.8.3.3.1.6.1.9.1.8 0 1.3-.1 1.8-.4.4-.3.7-.6.9-.9.2-.4.3-.7.4-1.1 0-.4.1-.6.1-.9v-1.4zM181.3 19.9v19.3h-3.8V19.9h3.8zM184.2 23.1v-3.2h3.8v3.2h-3.8zm3.8 2.2v14h-3.8v-14h3.8zM198.4 25.3v2.6h-2.8v6.9c0 .6.1 1.1.3 1.3.2.2.6.3 1.3.3h.6c.2 0 .4 0 .6-.1v3c-.3.1-.7.1-1.1.1h-1.2c-.6 0-1.2 0-1.7-.1s-1-.2-1.4-.5c-.4-.2-.7-.6-1-1s-.4-1-.4-1.7v-8.2h-2.3v-2.6h2.3v-4.2h3.8v4.2h3z"/><path class="st0" d="M205.2 43.4c-.7.5-1.8.7-3.1.7h-1.2c-.4 0-.8-.1-1.2-.1v-3.2c.4 0 .7.1 1.1.1h1.1c.5-.1.9-.3 1.1-.6.2-.3.4-.7.4-1.1 0-.3-.1-.6-.2-.9l-4.9-13.1h4.1l3.2 9.6h.1l3.1-9.6h4L207 40.9c-.5 1.2-1.1 2-1.8 2.5zM227.7 27.8c-.6 0-1.1.1-1.5.4s-.8.6-1 1.1c-.3.4-.4.9-.6 1.5-.1.5-.2 1.1-.2 1.6s.1 1 .2 1.5.3 1 .5 1.4c.2.4.6.8 1 1 .4.3.9.4 1.5.4.9 0 1.6-.3 2.1-.8s.8-1.2.9-2.1h3.7c-.3 1.9-1 3.3-2.2 4.2s-2.7 1.5-4.6 1.5c-1 0-2-.2-2.9-.5-.9-.4-1.6-.8-2.2-1.5-.6-.6-1.1-1.4-1.4-2.3-.3-.9-.5-1.8-.5-2.9 0-1.1.2-2.1.5-3 .3-.9.8-1.7 1.4-2.4.6-.7 1.4-1.2 2.2-1.6s1.9-.6 3-.6c.8 0 1.6.1 2.4.3.8.2 1.4.5 2.1 1 .6.4 1.1 1 1.5 1.6s.6 1.4.6 2.3h-3.8c-.2-1.3-1.1-2.1-2.7-2.1zM236.3 29.2c.3-.9.8-1.7 1.5-2.3.6-.6 1.4-1.1 2.3-1.5.9-.4 1.9-.5 3-.5s2.1.2 3 .5c.9.4 1.7.8 2.3 1.5.6.6 1.1 1.4 1.5 2.3.3.9.5 1.9.5 3s-.2 2.1-.5 3c-.3.9-.8 1.7-1.5 2.3-.6.6-1.4 1.1-2.3 1.5-.9.3-1.9.5-3 .5s-2.1-.2-3-.5c-.9-.3-1.6-.8-2.3-1.5-.6-.6-1.1-1.4-1.5-2.3-.3-.9-.5-1.9-.5-3s.2-2.1.5-3zm3.5 4.7c.1.5.3 1 .6 1.4.3.4.6.8 1 1 .4.3 1 .4 1.6.4s1.2-.1 1.6-.4c.4-.3.8-.6 1.1-1 .3-.4.4-.9.6-1.4.1-.5.2-1.1.2-1.6s-.1-1.1-.2-1.6-.3-1-.6-1.4c-.3-.4-.6-.8-1.1-1-.4-.3-1-.4-1.6-.4s-1.2.1-1.6.4c-.4.3-.8.6-1 1-.3.4-.4.9-.6 1.4-.1.5-.2 1.1-.2 1.6s.1 1.1.2 1.6zM256 39.2l-4.8-14h4l2.9 9.5h.1l2.9-9.5h3.8l-4.7 14H256zM270.4 35.9c.6.6 1.4.8 2.5.8.8 0 1.4-.2 2-.6.6-.4.9-.8 1-1.2h3.4c-.5 1.7-1.4 2.9-2.5 3.6-1.1.7-2.5 1.1-4 1.1-1.1 0-2.1-.2-3-.5-.9-.4-1.6-.9-2.2-1.5-.6-.6-1.1-1.4-1.4-2.3-.3-.9-.5-1.9-.5-3 0-1 .2-2 .5-2.9s.8-1.7 1.5-2.3c.6-.7 1.4-1.2 2.3-1.6s1.8-.6 2.9-.6c1.2 0 2.2.2 3.1.7.9.5 1.6 1.1 2.2 1.8s1 1.7 1.2 2.6c.3 1 .3 2 .3 3.1h-10.1c-.1 1.3.2 2.2.8 2.8zm4.3-7.4c-.5-.5-1.2-.8-2.1-.8-.6 0-1.1.1-1.5.3-.4.2-.7.5-1 .8-.2.3-.4.6-.5 1-.1.3-.2.6-.2.9h6.2c-.1-.9-.4-1.7-.9-2.2zM285.2 25.3v2.6h.1c.2-.4.4-.8.7-1.2.3-.4.7-.7 1.1-.9.4-.3.8-.5 1.3-.6.4-.1.9-.2 1.4-.2.3 0 .5 0 .8.1v3.6c-.2 0-.4-.1-.6-.1h-.7c-.7 0-1.3.1-1.8.4s-.9.6-1.2 1c-.3.4-.5.9-.6 1.4s-.2 1.1-.2 1.8v6.3h-3.8v-14h3.5zM291.6 29.6c.1-.9.3-1.6.7-2.2.4-.6.9-1.1 1.5-1.4.6-.4 1.3-.6 2.1-.8s1.5-.2 2.3-.2c.7 0 1.4 0 2.1.1.7.1 1.4.3 2 .6.6.3 1.1.7 1.5 1.2.4.5.6 1.2.6 2v7.3c0 .6 0 1.2.1 1.8.1.6.2 1 .4 1.3H301c-.1-.2-.1-.4-.2-.7 0-.2-.1-.5-.1-.7-.6.6-1.3 1.1-2.2 1.3s-1.7.4-2.5.4c-.7 0-1.3-.1-1.9-.2s-1.1-.4-1.5-.8c-.4-.3-.8-.8-1-1.3s-.4-1.1-.4-1.9c0-.8.1-1.4.4-2 .3-.5.6-.9 1.1-1.2.4-.3.9-.5 1.5-.7.6-.2 1.1-.3 1.7-.4.6-.1 1.1-.2 1.7-.2.6-.1 1.1-.1 1.5-.2s.8-.3 1-.5c.3-.2.4-.5.4-.9s-.1-.7-.2-1c-.1-.2-.3-.4-.5-.6-.2-.1-.5-.2-.8-.3-.3 0-.6-.1-1-.1-.8 0-1.4.2-1.8.5-.4.3-.7.9-.8 1.6h-3.8zm8.9 2.8c-.2.1-.4.3-.6.3s-.5.1-.8.2c-.3.1-.6.1-.9.1s-.6.1-.9.1c-.3.1-.6.1-.9.2-.3.1-.5.2-.7.4-.2.2-.4.3-.5.6-.1.2-.2.5-.2.9 0 .3.1.6.2.9.1.2.3.4.5.6.2.1.5.2.8.3.3.1.6.1.9.1.8 0 1.3-.1 1.8-.4.4-.3.7-.6.9-.9.2-.4.3-.7.4-1.1 0-.4.1-.6.1-.9v-1.4zM320.3 40.2c-.2.7-.5 1.4-1 2-.5.6-1.2 1.1-2.2 1.6-1 .4-2.2.6-3.8.6-.7 0-1.4-.1-2.1-.3s-1.4-.4-1.9-.8c-.6-.4-1.1-.8-1.5-1.4-.4-.6-.6-1.2-.7-2h3.8c.2.7.5 1.2 1.1 1.5.5.3 1.1.4 1.8.4 1.1 0 1.9-.3 2.4-1 .5-.6.7-1.5.7-2.5v-1.8h-.1c-.4.7-1 1.3-1.8 1.6-.8.4-1.6.5-2.4.5-1 0-1.9-.2-2.7-.6-.8-.4-1.4-.9-1.9-1.5s-.8-1.4-1.1-2.2-.3-1.8-.3-2.7c0-.9.1-1.8.4-2.6.3-.8.6-1.6 1.1-2.2.5-.6 1.1-1.1 1.9-1.5.7-.4 1.6-.6 2.6-.6.9 0 1.7.2 2.4.5s1.3.9 1.7 1.7h.1V25h3.6v13.1c.1.8 0 1.4-.1 2.1zm-5.3-4.6c.4-.2.8-.5 1-.9.3-.4.5-.8.6-1.2.1-.5.2-.9.2-1.4 0-.6-.1-1.1-.2-1.6s-.3-1-.5-1.4-.6-.7-1-.9c-.4-.2-.9-.4-1.6-.4-.5 0-1 .1-1.4.3-.4.2-.7.5-1 .9-.3.4-.5.8-.6 1.3-.1.5-.2 1-.2 1.5s0 1 .1 1.5.3.9.5 1.3.6.7 1 1c.4.3.9.4 1.5.4.7-.1 1.2-.2 1.6-.4zM327.4 35.9c.6.6 1.4.8 2.5.8.8 0 1.4-.2 2-.6.6-.4.9-.8 1-1.2h3.4c-.5 1.7-1.4 2.9-2.5 3.6-1.1.7-2.5 1.1-4 1.1-1.1 0-2.1-.2-3-.5-.9-.4-1.6-.9-2.2-1.5-.6-.6-1.1-1.4-1.4-2.3-.3-.9-.5-1.9-.5-3 0-1 .2-2 .5-2.9s.8-1.7 1.5-2.3c.6-.7 1.4-1.2 2.3-1.6s1.8-.6 2.9-.6c1.2 0 2.2.2 3.1.7.9.5 1.6 1.1 2.2 1.8s1 1.7 1.2 2.6c.3 1 .3 2 .3 3.1h-10.1c-.1 1.3.2 2.2.8 2.8zm4.3-7.4c-.5-.5-1.2-.8-2.1-.8-.6 0-1.1.1-1.5.3-.4.2-.7.5-1 .8-.2.3-.4.6-.5 1-.1.3-.2.6-.2.9h6.2c-.1-.9-.4-1.7-.9-2.2z"/><g><path class="st0" d="M36.6 67.2l-2.5-9.4H34l-2.4 9.4h-4l-4.4-14h4l2.6 9.5h.2l2.3-9.5H36l2.4 9.5h.1l2.6-9.5H45l-4.4 14h-4zM46.4 51.1v-3.2h3.8v3.2h-3.8zm3.8 2.2v14h-3.8v-14h3.8zM60.7 53.3v2.6h-2.8v6.9c0 .6.1 1.1.3 1.3.2.2.6.3 1.3.3h.6c.2 0 .4 0 .6-.1v3c-.3.1-.7.1-1.1.1h-1.2c-.6 0-1.2 0-1.7-.1s-1-.2-1.4-.5c-.4-.2-.7-.6-1-1s-.4-1-.4-1.7v-8.2h-2.3v-2.6h2.3v-4.2h3.8v4.2h3zM66.1 47.9v7.3h.1c.5-.8 1.1-1.4 1.9-1.8.8-.4 1.5-.6 2.2-.6 1 0 1.9.1 2.5.4.7.3 1.2.7 1.6 1.2s.6 1.1.8 1.8c.2.7.2 1.5.2 2.4v8.6h-3.8v-7.9c0-1.2-.2-2-.5-2.6-.4-.6-1-.9-1.9-.9-1 0-1.8.3-2.3.9-.5.6-.7 1.6-.7 3.1v7.3h-3.8V47.9h3.7zM89.4 63.9c.6.6 1.4.8 2.5.8.8 0 1.4-.2 2-.6.6-.4.9-.8 1-1.2h3.4c-.5 1.7-1.4 2.9-2.5 3.6-1.1.7-2.5 1.1-4 1.1-1.1 0-2.1-.2-3-.5-.9-.4-1.6-.9-2.2-1.5-.6-.6-1.1-1.4-1.4-2.3-.3-.9-.5-1.9-.5-3 0-1 .2-2 .5-2.9.3-.9.8-1.7 1.5-2.3.6-.7 1.4-1.2 2.3-1.6s1.8-.6 2.9-.6c1.2 0 2.2.2 3.1.7.9.5 1.6 1.1 2.2 1.8.6.8 1 1.7 1.2 2.6.3 1 .3 2 .3 3.1H88.5c0 1.3.3 2.2.9 2.8zm4.4-7.4c-.5-.5-1.2-.8-2.1-.8-.6 0-1.1.1-1.5.3-.4.2-.7.5-1 .8-.2.3-.4.6-.5 1-.1.3-.2.6-.2.9h6.2c-.2-.9-.5-1.7-.9-2.2zM99.5 53.3h4.4l2.5 3.6 2.4-3.6h4.2l-4.6 6.5 5.2 7.4h-4.4l-2.9-4.4-2.9 4.4h-4.3l5-7.3-4.6-6.6zM122.5 53.3v2.6h-2.8v6.9c0 .6.1 1.1.3 1.3.2.2.6.3 1.3.3h.6c.2 0 .4 0 .6-.1v3c-.3.1-.7.1-1.1.1h-1.2c-.6 0-1.2 0-1.7-.1s-1-.2-1.4-.5c-.4-.2-.7-.6-1-1s-.4-1-.4-1.7v-8.2h-2.3v-2.6h2.3v-4.2h3.8v4.2h3zM127.7 53.3v2.6h.1c.2-.4.4-.8.7-1.2.3-.4.7-.7 1.1-.9s.8-.5 1.3-.6c.4-.1.9-.2 1.4-.2.3 0 .5 0 .8.1v3.6c-.2 0-.4-.1-.6-.1h-.7c-.7 0-1.3.1-1.8.4-.5.2-.9.6-1.2 1-.3.4-.5.9-.6 1.4s-.2 1.1-.2 1.8v6.3h-3.8v-14h3.5zM134.2 57.6c.1-.9.3-1.6.7-2.2.4-.6.9-1.1 1.5-1.4s1.3-.6 2.1-.8c.8-.2 1.5-.2 2.3-.2.7 0 1.4 0 2.1.1.7.1 1.4.3 2 .6.6.3 1.1.7 1.5 1.2.4.5.6 1.2.6 2v7.3c0 .6 0 1.2.1 1.8.1.6.2 1 .4 1.3h-3.9c-.1-.2-.1-.4-.2-.7 0-.2-.1-.5-.1-.7-.6.6-1.3 1.1-2.2 1.3s-1.7.4-2.5.4c-.7 0-1.3-.1-1.9-.2-.6-.2-1.1-.4-1.5-.8-.4-.3-.8-.8-1-1.3-.2-.5-.4-1.1-.4-1.9 0-.8.1-1.4.4-2 .3-.5.6-.9 1.1-1.2.4-.3.9-.5 1.5-.7.6-.2 1.1-.3 1.7-.4s1.1-.2 1.7-.2c.6-.1 1.1-.1 1.5-.2.4-.1.8-.3 1-.5s.4-.5.4-.9-.1-.7-.2-1c-.1-.2-.3-.4-.5-.6-.2-.1-.5-.2-.8-.3-.3 0-.6-.1-1-.1-.8 0-1.4.2-1.8.5-.4.3-.7.9-.8 1.6h-3.8zm8.8 2.8c-.2.1-.4.3-.6.3-.2.1-.5.1-.8.2-.3.1-.6.1-.9.1-.3 0-.6.1-.9.1-.3.1-.6.1-.9.2-.3.1-.5.2-.7.4-.2.2-.4.3-.5.6-.1.2-.2.5-.2.9 0 .3.1.6.2.9.1.2.3.4.5.6.2.1.5.2.8.3.3.1.6.1.9.1.8 0 1.3-.1 1.8-.4.4-.3.7-.6.9-.9.2-.4.3-.7.4-1.1 0-.4.1-.6.1-.9v-1.4zM152.8 63.7c.2.3.4.5.7.7.3.2.6.3.9.4.4.1.7.1 1.1.1.3 0 .6 0 .9-.1.3-.1.6-.2.8-.3.2-.1.4-.3.6-.5.2-.2.2-.5.2-.9 0-.6-.4-1-1.1-1.3s-1.8-.6-3.2-.9c-.6-.1-1.1-.3-1.6-.4-.5-.2-1-.4-1.4-.7-.4-.3-.7-.6-1-1.1s-.4-.9-.4-1.6c0-.9.2-1.6.5-2.2.4-.6.8-1 1.4-1.4s1.2-.6 1.9-.7 1.5-.2 2.2-.2c.8 0 1.5.1 2.2.2.7.1 1.3.4 1.9.7.6.3 1 .8 1.4 1.4.4.6.6 1.3.7 2.1h-3.6c-.1-.7-.3-1.2-.8-1.5-.5-.3-1.1-.4-1.8-.4h-.7c-.3 0-.5.1-.7.2-.2.1-.4.2-.5.4-.1.2-.2.4-.2.7 0 .3.1.6.4.8.3.2.6.4 1 .5.4.1.9.3 1.4.4.5.1 1.1.2 1.6.4.6.1 1.1.3 1.6.5s1 .4 1.4.7.7.7 1 1.1.4 1 .4 1.6c0 .9-.2 1.7-.6 2.3-.4.6-.9 1.1-1.4 1.5-.6.4-1.3.6-2 .8-.8.2-1.5.2-2.3.2-.8 0-1.6-.1-2.4-.2-.8-.2-1.5-.4-2.1-.8s-1.1-.9-1.5-1.5c-.4-.6-.6-1.4-.6-2.3h3.6c-.1.7 0 1.1.1 1.3zM171.2 51.1v-3.2h3.8v3.2h-3.8zm3.8 2.2v14h-3.8v-14h3.8zM181.4 53.3v1.9h.1c.5-.8 1.1-1.4 1.9-1.8.8-.4 1.6-.6 2.4-.6 1 0 1.9.1 2.5.4.7.3 1.2.7 1.6 1.2s.6 1.1.8 1.8c.2.7.2 1.5.2 2.4v8.6h-3.8v-7.9c0-1.2-.2-2-.5-2.6-.4-.6-1-.9-1.9-.9-1 0-1.8.3-2.3.9-.5.6-.7 1.6-.7 3.1v7.3h-3.8v-14h3.5zM200.2 55.8c-.6 0-1.1.1-1.5.4s-.8.6-1 1.1c-.3.4-.4.9-.6 1.5-.1.5-.2 1.1-.2 1.6s.1 1 .2 1.5.3 1 .5 1.4c.2.4.6.8 1 1 .4.3.9.4 1.5.4.9 0 1.6-.3 2.1-.8s.8-1.2.9-2.1h3.7c-.3 1.9-1 3.3-2.2 4.2-1.2 1-2.7 1.5-4.6 1.5-1 0-2-.2-2.9-.5-.9-.4-1.6-.8-2.2-1.5-.6-.6-1.1-1.4-1.4-2.3-.3-.9-.5-1.8-.5-2.9 0-1.1.2-2.1.5-3 .3-.9.8-1.7 1.4-2.4.6-.7 1.4-1.2 2.2-1.6s1.9-.6 3-.6c.8 0 1.6.1 2.4.3.8.2 1.4.5 2.1 1 .6.4 1.1 1 1.5 1.6s.6 1.4.6 2.3h-3.8c-.1-1.3-1-2.1-2.7-2.1zM212.8 47.9v19.3H209V47.9h3.8zM225 67.2v-1.9h-.1c-.5.8-1.1 1.4-1.9 1.8-.8.4-1.6.5-2.4.5-1 0-1.9-.1-2.5-.4-.7-.3-1.2-.7-1.6-1.1s-.6-1.1-.8-1.8c-.2-.7-.2-1.5-.2-2.4v-8.6h3.8v7.9c0 1.2.2 2 .5 2.6.4.6 1 .8 1.9.8 1 0 1.8-.3 2.3-.9.5-.6.7-1.6.7-3.1v-7.3h3.8v14H225zM241.2 65.4c-.5.8-1 1.3-1.8 1.6s-1.6.5-2.5.5c-1 0-2-.2-2.8-.6-.8-.4-1.4-1-2-1.6s-.9-1.5-1.2-2.4c-.3-.9-.4-1.8-.4-2.8 0-.9.1-1.8.4-2.7.3-.9.6-1.6 1.2-2.3s1.2-1.2 1.9-1.6c.8-.4 1.7-.6 2.7-.6.8 0 1.6.2 2.4.5.7.4 1.3.9 1.8 1.6h.1v-7h3.8v19.3h-3.6v-1.9zm-.2-6.9c-.1-.5-.3-1-.6-1.4-.3-.4-.6-.7-1-1-.4-.3-.9-.4-1.6-.4-.6 0-1.2.1-1.6.4s-.8.6-1 1c-.3.4-.5.9-.6 1.4-.1.5-.2 1.1-.2 1.7 0 .5.1 1.1.2 1.6s.3 1 .6 1.4c.3.4.6.8 1.1 1s.9.4 1.5.4 1.2-.1 1.6-.4.8-.6 1-1c.3-.4.4-.9.5-1.4s.2-1.1.2-1.7c.1-.5 0-1-.1-1.6zM251.6 63.9c.6.6 1.4.8 2.5.8.8 0 1.4-.2 2-.6.6-.4.9-.8 1-1.2h3.4c-.5 1.7-1.4 2.9-2.5 3.6-1.1.7-2.5 1.1-4 1.1-1.1 0-2.1-.2-3-.5-.9-.4-1.6-.9-2.2-1.5-.6-.6-1.1-1.4-1.4-2.3-.3-.9-.5-1.9-.5-3 0-1 .2-2 .5-2.9.3-.9.8-1.7 1.5-2.3.6-.7 1.4-1.2 2.3-1.6s1.8-.6 2.9-.6c1.2 0 2.2.2 3.1.7.9.5 1.6 1.1 2.2 1.8.6.8 1 1.7 1.2 2.6.3 1 .3 2 .3 3.1h-10.1c-.1 1.3.2 2.2.8 2.8zm4.3-7.4c-.5-.5-1.2-.8-2.1-.8-.6 0-1.1.1-1.5.3-.4.2-.7.5-1 .8-.2.3-.4.6-.5 1-.1.3-.2.6-.2.9h6.2c-.1-.9-.4-1.7-.9-2.2zM272.7 65.4c-.5.8-1 1.3-1.8 1.6s-1.6.5-2.5.5c-1 0-2-.2-2.8-.6-.8-.4-1.4-1-2-1.6s-.9-1.5-1.2-2.4c-.3-.9-.4-1.8-.4-2.8 0-.9.1-1.8.4-2.7.3-.9.6-1.6 1.2-2.3s1.2-1.2 1.9-1.6c.8-.4 1.7-.6 2.7-.6.8 0 1.6.2 2.4.5.7.4 1.3.9 1.8 1.6h.1v-7h3.8v19.3h-3.6v-1.9zm-.2-6.9c-.1-.5-.3-1-.6-1.4-.3-.4-.6-.7-1-1-.4-.3-.9-.4-1.6-.4-.6 0-1.2.1-1.6.4s-.8.6-1 1c-.3.4-.5.9-.6 1.4-.1.5-.2 1.1-.2 1.7 0 .5.1 1.1.2 1.6s.3 1 .6 1.4c.3.4.6.8 1.1 1s.9.4 1.5.4 1.2-.1 1.6-.4.8-.6 1-1c.3-.4.4-.9.5-1.4s.2-1.1.2-1.7c.1-.5 0-1-.1-1.6zM283.4 63.1v4.2h-4.2v-4.2h4.2z"/></g></svg>