<svg id="Layer_1" xmlns="http://www.w3.org/2000/svg" viewBox="0 0 728 90"><style>.st0{fill:#393}.st1{fill:#231f20}</style><path class="st0" d="M29.2 18.9v7.4H37v-7.4h4.2v19.3H37v-8.3h-7.8v8.3H25V18.9h4.2zM44.4 28.6c.1-.9.3-1.6.7-2.2.4-.6.9-1.1 1.5-1.4.6-.4 1.3-.6 2.1-.8s1.5-.2 2.3-.2c.7 0 1.4 0 2.1.1.7.1 1.4.3 2 .6.6.3 1.1.7 1.5 1.2.4.5.6 1.2.6 2v7.3c0 .6 0 1.2.1 1.8.1.6.2 1 .4 1.3h-3.9c-.1-.2-.1-.4-.2-.7 0-.2-.1-.5-.1-.7-.6.6-1.3 1.1-2.2 1.3s-1.7.4-2.5.4c-.7 0-1.3-.1-1.9-.2s-1.1-.4-1.5-.8c-.4-.3-.8-.8-1-1.3s-.4-1.2-.4-1.9c0-.8.1-1.4.4-2 .3-.5.6-.9 1.1-1.2.4-.3.9-.5 1.5-.7.6-.2 1.1-.3 1.7-.4.6-.1 1.1-.2 1.7-.2.6-.1 1.1-.1 1.5-.2s.8-.3 1-.5c.3-.2.4-.5.4-.9s-.1-.7-.2-1c-.1-.2-.3-.4-.5-.6-.2-.1-.5-.2-.8-.3-.3 0-.6-.1-1-.1-.8 0-1.4.2-1.8.5-.4.3-.7.9-.8 1.6h-3.8zm8.9 2.8c-.2.1-.4.3-.6.3s-.5.1-.8.2c-.3.1-.6.1-.9.2s-.6.1-.9.1c-.3.1-.6.1-.9.2-.3.1-.5.2-.7.4-.2.2-.4.3-.5.6-.1.2-.2.5-.2.9 0 .3.1.6.2.9.1.2.3.4.5.6.2.1.5.2.8.3.3.1.6.1.9.1.8 0 1.3-.1 1.8-.4.4-.3.7-.6.9-.9.2-.4.3-.7.4-1.1 0-.4.1-.6.1-.9v-1.5zM63.6 38.2l-4.8-14h4l2.9 9.5h.1l2.9-9.5h3.8l-4.7 14h-4.2zM78.2 34.9c.6.6 1.4.8 2.5.8.8 0 1.4-.2 2-.6.6-.4.9-.8 1-1.2h3.4c-.5 1.7-1.4 2.9-2.5 3.6-1.1.7-2.5 1.1-4 1.1-1.1 0-2.1-.2-3-.5-.9-.4-1.6-.9-2.2-1.5-.6-.6-1.1-1.4-1.4-2.3-.3-.9-.5-1.9-.5-3 0-1 .2-2 .5-2.9s.8-1.7 1.5-2.3c.6-.7 1.4-1.2 2.3-1.6s1.8-.6 2.9-.6c1.2 0 2.2.2 3.1.7.9.5 1.6 1.1 2.2 1.8s1 1.7 1.2 2.6c.3 1 .3 2 .3 3.1H77.3c.1 1.3.4 2.2.9 2.8zm4.4-7.4c-.5-.5-1.2-.8-2.1-.8-.6 0-1.1.1-1.5.3-.4.2-.7.5-1 .8-.2.3-.4.6-.5 1-.1.3-.2.6-.2.9h6.2c-.1-.9-.5-1.7-.9-2.2zM95.5 18.9h4.8l4.5 7.6 4.5-7.6h4.7l-7.2 11.9v7.4h-4.2v-7.5l-7.1-11.8zM115.4 24.7c.4-1.2 1.1-2.3 1.9-3.2s1.8-1.6 3-2.2c1.2-.5 2.5-.8 4-.8s2.8.3 4 .8c1.2.5 2.2 1.2 3 2.2.8.9 1.4 2 1.9 3.2s.6 2.6.6 4-.2 2.7-.6 3.9c-.4 1.2-1.1 2.3-1.9 3.2-.8.9-1.8 1.6-3 2.1s-2.5.8-4 .8-2.8-.3-4-.8c-1.2-.5-2.2-1.2-3-2.1-.8-.9-1.4-2-1.9-3.2-.4-1.2-.6-2.5-.6-3.9-.1-1.5.1-2.8.6-4zm3.8 6.3c.2.8.5 1.5.9 2.1.4.6 1 1.1 1.6 1.5.7.4 1.5.6 2.4.6s1.8-.2 2.4-.6c.7-.4 1.2-.9 1.6-1.5.4-.6.7-1.3.9-2.1s.3-1.6.3-2.4c0-.8-.1-1.7-.3-2.5-.2-.8-.5-1.5-.9-2.1-.4-.6-1-1.1-1.6-1.5-.7-.4-1.5-.6-2.4-.6s-1.8.2-2.4.6c-.7.4-1.2.9-1.6 1.5-.4.6-.7 1.3-.9 2.1-.2.8-.3 1.6-.3 2.5.1.9.2 1.7.3 2.4zM150.7 36.7c-1.5 1.3-3.5 1.9-6 1.9-2.6 0-4.6-.6-6.1-1.9-1.4-1.3-2.1-3.2-2.1-5.8v-12h4.2v12c0 .5 0 1 .1 1.5s.3.9.6 1.3.7.7 1.2.9c.5.2 1.2.4 2.1.4 1.5 0 2.6-.3 3.1-1 .6-.7.9-1.7.9-3.2v-12h4.2v12c0 2.7-.7 4.7-2.2 5.9zM167 18.9c.9 0 1.6.1 2.3.4.7.3 1.3.7 1.8 1.1.5.5.9 1 1.1 1.7.3.6.4 1.3.4 2.1 0 1.1-.2 2.1-.7 2.9-.5.8-1.3 1.5-2.3 1.9v.1c.5.1 1 .4 1.3.7.3.3.6.6.8 1.1.2.4.4.9.5 1.3.1.5.2 1 .2 1.5 0 .3 0 .7.1 1.1 0 .4 0 .8.1 1.3 0 .4.1.8.2 1.2.1.4.2.7.4 1H169c-.2-.6-.4-1.3-.4-2.2-.1-.8-.1-1.7-.2-2.4-.1-1-.5-1.7-.9-2.2-.5-.5-1.2-.7-2.3-.7H161v7.5h-4.2V18.9H167zm-1.5 8.8c1 0 1.7-.2 2.2-.6.5-.4.7-1.1.7-2.1 0-.9-.2-1.6-.7-2-.5-.4-1.2-.6-2.2-.6h-4.6v5.4h4.6zM195.9 24.1c-.3-.4-.6-.8-.9-1.1-.4-.3-.8-.5-1.3-.7-.5-.2-1-.3-1.5-.3-1 0-1.8.2-2.4.6-.7.4-1.2.9-1.6 1.5-.4.6-.7 1.3-.9 2.1-.2.8-.3 1.6-.3 2.5 0 .8.1 1.6.3 2.4s.5 1.5.9 2.1c.4.6 1 1.1 1.6 1.5.7.4 1.5.6 2.4.6 1.3 0 2.3-.4 3-1.2.7-.8 1.2-1.8 1.3-3.1h4.1c-.1 1.2-.4 2.3-.8 3.3-.5 1-1 1.8-1.8 2.5s-1.6 1.2-2.6 1.6c-1 .4-2.1.5-3.3.5-1.5 0-2.8-.3-4-.8-1.2-.5-2.2-1.2-3-2.1-.8-.9-1.4-2-1.9-3.2-.4-1.2-.6-2.5-.6-3.9s.2-2.8.6-4c.4-1.2 1.1-2.3 1.9-3.2s1.8-1.6 3-2.2c1.2-.5 2.5-.8 4-.8 1.1 0 2.1.2 3 .5.9.3 1.8.8 2.5 1.3s1.4 1.3 1.8 2.2c.5.9.8 1.9.9 3h-4.1c.1-.8 0-1.2-.3-1.6zM213.2 18.9l7.2 19.3H216l-1.5-4.3h-7.2l-1.5 4.3h-4.3l7.3-19.3h4.4zm.2 11.9l-2.4-7.1h-.1l-2.5 7.1h5zM226.3 18.9v8l7.5-8h5.3l-7.5 7.6 8.3 11.7h-5.3l-5.8-8.7-2.4 2.5v6.2h-4.2V18.9h4.1zM256 18.9v3.6h-10.2v4.1h9.3v3.3h-9.3v4.7h10.4v3.6h-14.6V18.9H256z"/><g><path class="st1" d="M24.4 56.6c.1-.9.3-1.6.7-2.2.4-.6.9-1.1 1.5-1.4s1.3-.6 2.1-.8c.8-.2 1.5-.2 2.3-.2.7 0 1.4 0 2.1.1.7.1 1.4.3 2 .6.6.3 1.1.7 1.5 1.2.4.5.6 1.2.6 2v7.3c0 .6 0 1.2.1 1.8.1.6.2 1 .4 1.3h-3.9c-.1-.2-.1-.4-.2-.7 0-.2-.1-.5-.1-.7-.6.6-1.3 1.1-2.2 1.3s-1.7.4-2.5.4c-.7 0-1.3-.1-1.9-.2-.6-.2-1.1-.4-1.5-.8-.4-.3-.8-.8-1-1.3-.2-.5-.4-1.1-.4-1.9 0-.8.1-1.4.4-2 .3-.5.6-.9 1.1-1.2.4-.3.9-.5 1.5-.7.6-.2 1.1-.3 1.7-.4s1.1-.2 1.7-.2c.6-.1 1.1-.1 1.5-.2.4-.1.8-.3 1-.5s.4-.5.4-.9-.1-.7-.2-1c-.1-.2-.3-.4-.5-.6-.2-.1-.5-.2-.8-.3s-.6-.1-1-.1c-.8 0-1.4.2-1.8.5-.4.3-.7.9-.8 1.6h-3.8zm8.9 2.8c-.2.1-.4.3-.6.3s-.5.1-.8.2c-.3.1-.6.1-.9.2-.3 0-.6.1-.9.1-.3.1-.6.1-.9.2-.3.1-.5.2-.7.4-.2.2-.4.3-.5.6-.1.2-.2.5-.2.9 0 .3.1.6.2.9.1.2.3.4.5.6.2.1.5.2.8.3.3.1.6.1.9.1.8 0 1.3-.1 1.8-.4.4-.3.7-.6.9-.9.2-.4.3-.7.4-1.1 0-.4.1-.6.1-.9v-1.5zM43.7 52.3v1.9h.1c.5-.8 1.1-1.4 1.9-1.8.8-.4 1.6-.6 2.4-.6 1 0 1.9.1 2.5.4.7.3 1.2.7 1.6 1.2.4.5.6 1.1.8 1.8.2.7.2 1.5.2 2.4v8.6h-3.8v-7.9c0-1.2-.2-2-.5-2.6-.4-.6-1-.9-1.9-.9-1 0-1.8.3-2.3.9-.5.6-.7 1.6-.7 3.1v7.3h-3.8v-14h3.5zM66 64.4c-.5.8-1 1.3-1.8 1.6s-1.6.5-2.5.5c-1 0-2-.2-2.8-.6-.8-.4-1.4-1-2-1.6s-.9-1.5-1.2-2.4c-.3-.9-.4-1.8-.4-2.8 0-.9.1-1.8.4-2.7.3-.9.6-1.6 1.2-2.3s1.2-1.2 1.9-1.6c.8-.4 1.7-.6 2.7-.6.8 0 1.6.2 2.4.5.7.4 1.3.9 1.8 1.6h.1v-7h3.8v19.3H66v-1.9zm-.2-6.9c-.1-.5-.3-1-.6-1.4-.3-.4-.6-.7-1-1-.4-.3-.9-.4-1.6-.4-.6 0-1.2.1-1.6.4-.4.3-.8.6-1 1-.3.4-.5.9-.6 1.4-.1.5-.2 1.1-.2 1.7 0 .5.1 1.1.2 1.6s.3 1 .6 1.4c.3.4.6.8 1.1 1s.9.4 1.5.4 1.2-.1 1.6-.4.8-.6 1-1c.3-.4.4-.9.5-1.4s.2-1.1.2-1.7.1-1-.1-1.6zM84.7 46.9v8l7.5-8h5.3L90 54.6l8.3 11.7H93l-5.8-8.7-2.5 2.4v6.2h-4.2V46.9h4.2zM114.4 46.9v3.6h-10.2v4.1h9.3v3.3h-9.3v4.7h10.4v3.6H100V46.9h14.4zM131.9 46.9v3.6h-10.2v4.1h9.3v3.3h-9.3v4.7h10.4v3.6h-14.6V46.9h14.4zM143.7 46.9c1.2 0 2.2.2 3.1.5.8.4 1.5.8 2.1 1.4.5.6.9 1.2 1.2 2 .2.7.4 1.5.4 2.3 0 .8-.1 1.5-.4 2.3-.2.7-.6 1.4-1.2 2-.5.6-1.2 1-2.1 1.4s-1.9.5-3.1.5h-4.5v6.9H135V46.9h8.7zm-1.2 9.1c.5 0 1 0 1.4-.1.4-.1.8-.2 1.2-.4s.6-.5.8-.9c.2-.4.3-.9.3-1.5s-.1-1.1-.3-1.5c-.2-.4-.5-.7-.8-.9s-.7-.3-1.2-.4c-.4-.1-.9-.1-1.4-.1h-3.3V56h3.3zM165.3 70.4c-.7.5-1.8.7-3.1.7H161c-.4 0-.8-.1-1.2-.1v-3.2c.4 0 .7.1 1.1.1h1.1c.5-.1.9-.3 1.1-.6.2-.3.4-.7.4-1.1 0-.3-.1-.6-.2-.9l-4.9-13.1h4.1l3.2 9.6h.1l3.1-9.6h4L167 67.9c-.4 1.2-1 2-1.7 2.5zM174.2 56.2c.3-.9.8-1.7 1.5-2.3.6-.6 1.4-1.1 2.3-1.5.9-.4 1.9-.5 3-.5s2.1.2 3 .5c.9.4 1.7.8 2.3 1.5.6.6 1.1 1.4 1.5 2.3.3.9.5 1.9.5 3s-.2 2.1-.5 3c-.3.9-.8 1.7-1.5 2.3-.6.6-1.4 1.1-2.3 1.5-.9.3-1.9.5-3 .5s-2.1-.2-3-.5c-.9-.3-1.6-.8-2.3-1.5-.6-.6-1.1-1.4-1.5-2.3-.3-.9-.5-1.9-.5-3s.2-2.1.5-3zm3.5 4.7c.1.5.3 1 .6 1.4.3.4.6.8 1 1 .4.3 1 .4 1.6.4s1.2-.1 1.6-.4c.4-.3.8-.6 1.1-1 .3-.4.4-.9.6-1.4.1-.5.2-1.1.2-1.6s-.1-1.1-.2-1.6-.3-1-.6-1.4c-.3-.4-.6-.8-1.1-1-.4-.3-1-.4-1.6-.4s-1.2.1-1.6.4c-.4.3-.8.6-1 1-.3.4-.4.9-.6 1.4s-.2 1.1-.2 1.6.1 1.1.2 1.6zM200.1 66.2v-1.9h-.1c-.5.8-1.1 1.4-1.9 1.8-.8.4-1.6.5-2.4.5-1 0-1.9-.1-2.5-.4-.7-.3-1.2-.7-1.6-1.1s-.6-1.1-.8-1.8c-.2-.7-.2-1.5-.2-2.4v-8.6h3.8v7.9c0 1.2.2 2 .5 2.6.4.6 1 .8 1.9.8 1 0 1.8-.3 2.3-.9.5-.6.7-1.6.7-3.1v-7.3h3.8v14h-3.5zM210.3 52.3v2.6h.1c.2-.4.4-.8.7-1.2.3-.4.7-.7 1.1-.9.4-.3.8-.5 1.3-.6.4-.1.9-.2 1.4-.2.3 0 .5 0 .8.1v3.6c-.2 0-.4-.1-.6-.1h-.7c-.7 0-1.3.1-1.8.4-.5.2-.9.6-1.2 1-.3.4-.5.9-.6 1.4s-.2 1.1-.2 1.8v6.3h-3.8v-14h3.5zM224.7 50.1v-3.2h3.8v3.2h-3.8zm3.9 2.2v14h-3.8v-14h3.8zM235.2 52.3v1.9h.1c.5-.8 1.1-1.4 1.9-1.8.8-.4 1.6-.6 2.4-.6 1 0 1.9.1 2.5.4.7.3 1.2.7 1.6 1.2.4.5.6 1.1.8 1.8.2.7.2 1.5.2 2.4v8.6h-3.8v-7.9c0-1.2-.2-2-.5-2.6-.4-.6-1-.9-1.9-.9-1 0-1.8.3-2.3.9-.5.6-.7 1.6-.7 3.1v7.3h-3.8v-14h3.5zM254.3 54.8c-.6 0-1.1.1-1.5.4s-.8.6-1 1.1c-.3.4-.4.9-.6 1.5s-.2 1.1-.2 1.6.1 1 .2 1.5.3 1 .5 1.4c.2.4.6.8 1 1 .4.3.9.4 1.5.4.9 0 1.6-.3 2.1-.8s.8-1.2.9-2.1h3.7c-.3 1.9-1 3.3-2.2 4.2-1.2 1-2.7 1.5-4.6 1.5-1 0-2-.2-2.9-.5-.9-.4-1.6-.8-2.2-1.5-.6-.6-1.1-1.4-1.4-2.3-.3-.9-.5-1.8-.5-2.9 0-1.1.2-2.1.5-3 .3-.9.8-1.7 1.4-2.4.6-.7 1.4-1.2 2.2-1.6.9-.4 1.9-.6 3-.6.8 0 1.6.1 2.4.3s1.4.5 2.1 1c.6.4 1.1 1 1.5 1.6.4.7.6 1.4.6 2.3H257c-.1-1.3-1.1-2.1-2.7-2.1zM263.2 50.1v-3.2h3.8v3.2h-3.8zm3.9 2.2v14h-3.8v-14h3.8zM273.3 62.8c.2.3.4.5.7.7.3.2.6.3.9.4.4.1.7.1 1.1.1.3 0 .6 0 .9-.1.3-.1.6-.2.8-.3.2-.1.4-.3.6-.5.2-.2.2-.5.2-.9 0-.6-.4-1-1.1-1.3s-1.8-.6-3.2-.9c-.6-.1-1.1-.3-1.6-.4-.5-.2-1-.4-1.4-.7-.4-.3-.7-.6-1-1.1-.3-.4-.4-.9-.4-1.6 0-.9.2-1.6.5-2.2.4-.6.8-1 1.4-1.4s1.2-.6 1.9-.7c.7-.1 1.5-.2 2.2-.2.8 0 1.5.1 2.2.2.7.1 1.3.4 1.9.7.6.3 1 .8 1.4 1.4.4.6.6 1.3.7 2.1h-3.6c-.1-.7-.3-1.2-.8-1.5-.5-.3-1.1-.4-1.8-.4h-.7c-.3 0-.5.1-.7.2-.2.1-.4.2-.5.4-.1.2-.2.4-.2.7 0 .3.1.6.4.8.3.2.6.4 1 .5.4.1.9.3 1.4.4s1.1.2 1.6.4c.6.1 1.1.3 1.6.5s1 .4 1.4.7.7.7 1 1.1.4 1 .4 1.6c0 .9-.2 1.7-.6 2.3-.4.6-.9 1.1-1.4 1.5-.6.4-1.3.6-2 .8-.8.2-1.5.2-2.3.2-.8 0-1.6-.1-2.4-.2-.8-.2-1.5-.4-2.1-.8s-1.1-.9-1.5-1.5c-.4-.6-.6-1.4-.6-2.3h3.6c-.2.6-.1 1 .1 1.3zM284.7 56.2c.3-.9.8-1.7 1.5-2.3.6-.6 1.4-1.1 2.3-1.5.9-.4 1.9-.5 3-.5s2.1.2 3 .5c.9.4 1.7.8 2.3 1.5.6.6 1.1 1.4 1.5 2.3.3.9.5 1.9.5 3s-.2 2.1-.5 3c-.3.9-.8 1.7-1.5 2.3-.6.6-1.4 1.1-2.3 1.5-.9.3-1.9.5-3 .5s-2.1-.2-3-.5c-.9-.3-1.6-.8-2.3-1.5-.6-.6-1.1-1.4-1.5-2.3-.3-.9-.5-1.9-.5-3s.1-2.1.5-3zm3.4 4.7c.1.5.3 1 .6 1.4.3.4.6.8 1 1 .4.3 1 .4 1.6.4s1.2-.1 1.6-.4c.4-.3.8-.6 1.1-1 .3-.4.4-.9.6-1.4.1-.5.2-1.1.2-1.6s-.1-1.1-.2-1.6-.3-1-.6-1.4c-.3-.4-.6-.8-1.1-1-.4-.3-1-.4-1.6-.4s-1.2.1-1.6.4c-.4.3-.8.6-1 1-.3.4-.4.9-.6 1.4s-.2 1.1-.2 1.6.1 1.1.2 1.6zM304.7 52.3v2.6h.1c.2-.4.4-.8.7-1.2.3-.4.7-.7 1.1-.9.4-.3.8-.5 1.3-.6.4-.1.9-.2 1.4-.2.3 0 .5 0 .8.1v3.6c-.2 0-.4-.1-.6-.1h-.7c-.7 0-1.3.1-1.8.4-.5.2-.9.6-1.2 1-.3.4-.5.9-.6 1.4s-.2 1.1-.2 1.8v6.3h-3.8v-14h3.5zM314.8 62.8c.2.3.4.5.7.7.3.2.6.3.9.4.4.1.7.1 1.1.1.3 0 .6 0 .9-.1.3-.1.6-.2.8-.3.2-.1.4-.3.6-.5.2-.2.2-.5.2-.9 0-.6-.4-1-1.1-1.3s-1.8-.6-3.2-.9c-.6-.1-1.1-.3-1.6-.4-.5-.2-1-.4-1.4-.7-.4-.3-.7-.6-1-1.1-.3-.4-.4-.9-.4-1.6 0-.9.2-1.6.5-2.2.4-.6.8-1 1.4-1.4s1.2-.6 1.9-.7c.7-.1 1.5-.2 2.2-.2.8 0 1.5.1 2.2.2.7.1 1.3.4 1.9.7.6.3 1 .8 1.4 1.4.4.6.6 1.3.7 2.1h-3.6c-.1-.7-.3-1.2-.8-1.5-.5-.3-1.1-.4-1.8-.4h-.7c-.3 0-.5.1-.7.2-.2.1-.4.2-.5.4-.1.2-.2.4-.2.7 0 .3.1.6.4.8.3.2.6.4 1 .5.4.1.9.3 1.4.4s1.1.2 1.6.4c.6.1 1.1.3 1.6.5s1 .4 1.4.7.7.7 1 1.1.4 1 .4 1.6c0 .9-.2 1.7-.6 2.3-.4.6-.9 1.1-1.4 1.5-.6.4-1.3.6-2 .8-.8.2-1.5.2-2.3.2-.8 0-1.6-.1-2.4-.2-.8-.2-1.5-.4-2.1-.8s-1.1-.9-1.5-1.5c-.4-.6-.6-1.4-.6-2.3h3.6c-.2.6-.1 1 .1 1.3zM330.5 62.1v4.2c0 .6-.1 1.2-.3 1.7s-.5 1-.9 1.3-.8.7-1.3.9c-.5.2-1.1.4-1.6.5v-1.9c.3-.1.5-.2.8-.3.2-.2.5-.4.6-.6.2-.2.3-.5.4-.8.1-.3.1-.6.1-.9h-1.9V62h4.1zM340 50.5v-3.6h15.8v3.6H350v15.7h-4.2V50.5H340zM357.8 52.7c.4-1.2 1.1-2.3 1.9-3.2.8-.9 1.8-1.6 3-2.2 1.2-.5 2.5-.8 4-.8s2.8.3 4 .8c1.2.5 2.2 1.2 3 2.2.8.9 1.4 2 1.9 3.2.4 1.2.6 2.6.6 4s-.2 2.7-.6 3.9c-.4 1.2-1.1 2.3-1.9 3.2-.8.9-1.8 1.6-3 2.1s-2.5.8-4 .8-2.8-.3-4-.8c-1.2-.5-2.2-1.2-3-2.1-.8-.9-1.4-2-1.9-3.2-.4-1.2-.6-2.5-.6-3.9-.1-1.5.2-2.8.6-4zm3.9 6.3c.2.8.5 1.5.9 2.1s1 1.1 1.6 1.5c.7.4 1.5.6 2.4.6s1.8-.2 2.4-.6 1.2-.9 1.6-1.5.7-1.3.9-2.1c.2-.8.3-1.6.3-2.4 0-.8-.1-1.7-.3-2.5-.2-.8-.5-1.5-.9-2.1s-1-1.1-1.6-1.5-1.5-.6-2.4-.6-1.8.2-2.4.6c-.7.4-1.2.9-1.6 1.5s-.7 1.3-.9 2.1c-.2.8-.3 1.6-.3 2.5 0 .9.1 1.7.3 2.4zM378.8 52.7c.4-1.2 1.1-2.3 1.9-3.2.8-.9 1.8-1.6 3-2.2 1.2-.5 2.5-.8 4-.8s2.8.3 4 .8c1.2.5 2.2 1.2 3 2.2.8.9 1.4 2 1.9 3.2.4 1.2.6 2.6.6 4s-.2 2.7-.6 3.9c-.4 1.2-1.1 2.3-1.9 3.2-.8.9-1.8 1.6-3 2.1s-2.5.8-4 .8-2.8-.3-4-.8c-1.2-.5-2.2-1.2-3-2.1-.8-.9-1.4-2-1.9-3.2-.4-1.2-.6-2.5-.6-3.9 0-1.5.2-2.8.6-4zm3.9 6.3c.2.8.5 1.5.9 2.1s1 1.1 1.6 1.5c.7.4 1.5.6 2.4.6s1.8-.2 2.4-.6 1.2-.9 1.6-1.5.7-1.3.9-2.1c.2-.8.3-1.6.3-2.4 0-.8-.1-1.7-.3-2.5-.2-.8-.5-1.5-.9-2.1s-1-1.1-1.6-1.5-1.5-.6-2.4-.6-1.8.2-2.4.6c-.7.4-1.2.9-1.6 1.5s-.7 1.3-.9 2.1c-.2.8-.3 1.6-.3 2.5 0 .9.1 1.7.3 2.4z"/></g></svg>