<svg xmlns="http://www.w3.org/2000/svg" viewBox="0 0 728 90"><path d="M288.2 21.3V37h9.4v3.6H284V21.3h4.2zM299.7 24.5v-3.2h3.8v3.2h-3.8zm3.8 2.1v14h-3.8v-14h3.8zM305.1 29.2v-2.6h2.3v-1.1c0-1.2.4-2.3 1.2-3.1.8-.8 1.9-1.2 3.5-1.2h1c.3 0 .7 0 1 .1v2.9c-.5-.1-.9-.1-1.4-.1-.5 0-.9.1-1.1.4-.2.2-.3.7-.3 1.2v.8h2.6v2.6h-2.6v11.4h-3.8V29.2h-2.4zM319.6 37.2c.6.6 1.4.8 2.5.8.8 0 1.4-.2 2-.6.6-.4.9-.8 1-1.2h3.4c-.5 1.7-1.4 2.9-2.5 3.6-1.1.7-2.5 1.1-4 1.1-1.1 0-2.1-.2-3-.5-.9-.4-1.6-.9-2.2-1.5-.6-.6-1.1-1.4-1.4-2.3-.3-.9-.5-1.9-.5-3 0-1 .2-2 .5-2.9s.8-1.7 1.5-2.3c.6-.7 1.4-1.2 2.3-1.6s1.8-.6 2.9-.6c1.2 0 2.2.2 3.1.7.9.5 1.6 1.1 2.2 1.8s1 1.7 1.2 2.6c.3 1 .3 2 .3 3.1h-10.1c-.1 1.4.2 2.3.8 2.8zm4.3-7.3c-.5-.5-1.2-.8-2.1-.8-.6 0-1.1.1-1.5.3-.4.2-.7.5-1 .8-.2.3-.4.6-.5 1-.1.3-.2.6-.2.9h6.2c-.1-1-.4-1.7-.9-2.2zM343.2 21.3v19.3H339V21.3h4.2zM350.1 26.6v1.9h.1c.5-.8 1.1-1.4 1.9-1.8.8-.4 1.6-.6 2.4-.6 1 0 1.9.1 2.5.4.7.3 1.2.7 1.6 1.2s.6 1.1.8 1.8c.2.7.2 1.5.2 2.4v8.6h-3.8v-7.9c0-1.2-.2-2-.5-2.6-.4-.6-1-.9-1.9-.9-1 0-1.8.3-2.3.9-.5.6-.7 1.6-.7 3.1v7.3h-3.8v-14h3.5zM365.7 37.1c.2.3.4.5.7.7.3.2.6.3.9.4.4.1.7.1 1.1.1.3 0 .6 0 .9-.1.3-.1.6-.2.8-.3.2-.1.4-.3.6-.5.2-.2.2-.5.2-.9 0-.6-.4-1-1.1-1.3-.8-.3-1.8-.6-3.2-.9-.6-.1-1.1-.3-1.6-.4-.5-.2-1-.4-1.4-.7-.4-.3-.7-.6-1-1.1-.3-.4-.4-.9-.4-1.6 0-.9.2-1.6.5-2.2.4-.6.8-1 1.4-1.4.6-.3 1.2-.6 1.9-.7.7-.1 1.5-.2 2.2-.2.8 0 1.5.1 2.2.2.7.1 1.3.4 1.9.7.6.3 1 .8 1.4 1.4.4.6.6 1.3.7 2.1h-3.6c-.1-.7-.3-1.2-.8-1.5-.5-.3-1.1-.4-1.8-.4h-.7c-.2 0-.5.1-.7.2-.2.1-.4.2-.5.4-.1.2-.2.4-.2.7 0 .3.1.6.4.8.3.2.6.4 1 .5.4.1.9.3 1.4.4.5.1 1.1.2 1.6.4.6.1 1.1.3 1.6.5s1 .4 1.4.7c.4.3.7.7 1 1.1.3.4.4 1 .4 1.6 0 .9-.2 1.7-.6 2.3-.4.6-.9 1.1-1.4 1.5-.6.4-1.3.6-2 .8-.8.2-1.5.2-2.3.2-.8 0-1.6-.1-2.4-.2-.8-.2-1.5-.4-2.1-.8-.6-.4-1.1-.9-1.5-1.5-.4-.6-.6-1.4-.6-2.3h3.6c-.1.7-.1 1 .1 1.3zM386.4 40.6v-1.9h-.1c-.5.8-1.1 1.4-1.9 1.8-.8.4-1.6.5-2.4.5-1 0-1.9-.1-2.5-.4s-1.2-.7-1.6-1.1c-.4-.5-.6-1.1-.8-1.8-.2-.7-.2-1.5-.2-2.4v-8.6h3.8v7.9c0 1.2.2 2 .5 2.6.4.6 1 .9 1.9.9 1 0 1.8-.3 2.3-.9s.7-1.6.7-3.1v-7.3h3.8v14h-3.5zM396.6 26.6v2.6h.1c.2-.4.4-.8.7-1.2.3-.4.7-.7 1.1-.9.4-.3.8-.5 1.3-.6.5-.1.9-.2 1.4-.2.3 0 .5 0 .8.1V30c-.2 0-.4-.1-.6-.1h-.7c-.7 0-1.3.1-1.8.4s-.9.6-1.2 1c-.3.4-.5.9-.6 1.4-.1.5-.2 1.1-.2 1.8v6.3H393v-14h3.6zM403.3 30.9c.1-.9.3-1.6.7-2.2.4-.6.9-1.1 1.5-1.4.6-.4 1.3-.6 2.1-.8.8-.2 1.5-.2 2.3-.2.7 0 1.4 0 2.1.1.7.1 1.4.3 2 .6.6.3 1.1.7 1.5 1.2.4.5.6 1.2.6 2v7.3c0 .6 0 1.2.1 1.8s.2 1 .4 1.3h-3.9c-.1-.2-.1-.4-.2-.7 0-.2-.1-.5-.1-.7-.6.6-1.3 1.1-2.2 1.3-.8.3-1.7.4-2.5.4-.7 0-1.3-.1-1.9-.2s-1.1-.4-1.5-.8c-.4-.3-.8-.8-1-1.3s-.4-1.1-.4-1.9c0-.8.1-1.4.4-2 .3-.5.6-.9 1.1-1.2.4-.3.9-.5 1.5-.7.6-.2 1.1-.3 1.7-.4.6-.1 1.1-.2 1.7-.2.6-.1 1.1-.1 1.5-.2.4-.1.8-.3 1-.5.3-.2.4-.5.4-.9s-.1-.7-.2-1c-.1-.2-.3-.4-.5-.6-.2-.1-.5-.2-.8-.3-.3 0-.6-.1-1-.1-.8 0-1.3.2-1.8.5-.4.3-.7.9-.8 1.6h-3.8zm8.9 2.8c-.2.1-.4.3-.6.3-.2.1-.5.1-.8.2-.3.1-.6.1-.9.1s-.6.1-.9.1c-.3.1-.6.1-.9.2-.3.1-.5.2-.7.4-.2.2-.4.3-.5.6s-.2.5-.2.9c0 .3.1.6.2.9s.3.4.5.6c.2.1.5.2.8.3.3.1.6.1.9.1.8 0 1.3-.1 1.8-.4.4-.3.7-.6.9-.9.2-.4.3-.7.4-1.1 0-.4.1-.6.1-.9v-1.4zM422.6 26.6v1.9h.1c.5-.8 1.1-1.4 1.9-1.8.8-.4 1.6-.6 2.4-.6 1 0 1.9.1 2.5.4.7.3 1.2.7 1.6 1.2s.6 1.1.8 1.8c.2.7.2 1.5.2 2.4v8.6h-3.8v-7.9c0-1.2-.2-2-.5-2.6s-1-.9-1.9-.9c-1 0-1.8.3-2.3.9-.5.6-.7 1.6-.7 3.1v7.3H419v-14h3.6zM441.7 29.1c-.6 0-1.1.1-1.5.4s-.8.6-1 1.1c-.3.4-.4.9-.6 1.5-.1.5-.2 1.1-.2 1.6s.1 1 .2 1.5.3 1 .5 1.4c.2.4.6.8 1 1s.9.4 1.5.4c.9 0 1.6-.3 2.1-.8s.8-1.2.9-2.1h3.7c-.3 1.9-1 3.3-2.2 4.2-1.2 1-2.7 1.5-4.6 1.5-1 0-2-.2-2.9-.5-.9-.4-1.6-.8-2.2-1.5-.6-.6-1.1-1.4-1.4-2.3s-.5-1.8-.5-2.9c0-1.1.2-2.1.5-3 .3-.9.8-1.7 1.4-2.4.6-.7 1.4-1.2 2.2-1.6s1.9-.6 3-.6c.8 0 1.6.1 2.4.3.8.2 1.4.5 2.1 1 .6.4 1.1 1 1.5 1.6s.6 1.4.6 2.3h-3.8c-.1-1.3-1.1-2.1-2.7-2.1zM454.6 37.2c.6.6 1.4.8 2.5.8.8 0 1.4-.2 2-.6s.9-.8 1-1.2h3.4c-.5 1.7-1.4 2.9-2.5 3.6-1.1.7-2.5 1.1-4 1.1-1.1 0-2.1-.2-3-.5-.9-.4-1.6-.9-2.2-1.5-.6-.6-1.1-1.4-1.4-2.3-.3-.9-.5-1.9-.5-3 0-1 .2-2 .5-2.9s.8-1.7 1.5-2.3 1.4-1.2 2.3-1.6c.9-.4 1.8-.6 2.9-.6 1.2 0 2.2.2 3.1.7s1.6 1.1 2.2 1.8 1 1.7 1.2 2.6.3 2 .3 3.1h-10.1c-.1 1.4.2 2.3.8 2.8zm4.3-7.3c-.5-.5-1.2-.8-2.1-.8-.6 0-1.1.1-1.5.3-.4.2-.7.5-1 .8-.2.3-.4.6-.5 1-.1.3-.2.6-.2.9h6.2c-.1-1-.4-1.7-.9-2.2z"/></svg>