<svg id="Layer_1" xmlns="http://www.w3.org/2000/svg" xmlns:xlink="http://www.w3.org/1999/xlink" viewBox="0 0 728 90"><style>.st0{clip-path:url(#SVGID_00000092420316140203968560000013304593050630096040_);fill:#349946}.st1{fill:#fff}</style><defs><path id="SVGID_1_" d="M531.8 15.9h158.4v33.4H531.8z"/></defs><clipPath id="SVGID_00000119082493177248190500000013099852955095259008_"><use xlink:href="#SVGID_1_" overflow="visible"/></clipPath><path d="M690.2 32.6c0 9.2-8.6 16.7-19.2 16.7H551c-10.5 0-19.2-7.5-19.2-16.7s8.6-16.7 19.2-16.7h120c10.6 0 19.2 7.6 19.2 16.7" clip-path="url(#SVGID_00000119082493177248190500000013099852955095259008_)" fill="#349946"/><g><path class="st1" d="M568.6 38.3l-3.4-10.7h2.4l2.4 7.5 2.4-7.5h2.4l-3.5 10.7h-2.7zM578 27.7v10.7h-2.3V27.7h2.3zM588.1 27.7v2h-5.6V32h5.2v1.8h-5.2v2.6h5.7v2h-8.1V27.7h8zM597.6 38.3l-1.8-7.2-1.8 7.2h-2.4l-2.8-10.7h2.3l1.7 7.2 1.8-7.2h2.2l1.8 7.3 1.7-7.3h2.3l-2.9 10.7h-2.1zM612.8 27.7c.7 0 1.2.1 1.7.3.5.2.8.4 1.1.8s.5.7.6 1.1.2.8.2 1.3c0 .4-.1.8-.2 1.3s-.3.8-.6 1.1c-.3.3-.7.6-1.1.8-.5.2-1 .3-1.7.3h-2.5v3.8H608V27.7h4.8zm-.7 5c.3 0 .5 0 .8-.1.2 0 .5-.1.7-.2.2-.1.3-.3.5-.5s.2-.5.2-.8-.1-.6-.2-.8c-.1-.2-.3-.4-.5-.5-.2-.1-.4-.2-.7-.2-.2 0-.5-.1-.8-.1h-1.8v3.2h1.8zM620.3 27.7v8.7h5.2v2H618V27.7h2.3zM632.1 27.7l4 10.7h-2.4l-.8-2.4h-4l-.8 2.4h-2.4l4-10.7h2.4zm.1 6.5l-1.3-3.9-1.4 3.9h2.7zM639.3 27.7l4.4 7.1v-7.1h2.2v10.7h-2.3l-4.4-7.1v7.1H637V27.7h2.3zM649.8 35.7c.1.2.3.5.5.6s.5.3.8.3.6.1.9.1c.2 0 .4 0 .7-.1.2 0 .5-.1.7-.2.2-.1.4-.2.5-.4s.2-.4.2-.7c0-.3-.1-.5-.3-.7-.2-.2-.4-.3-.7-.4-.3-.1-.6-.2-1-.3-.4-.1-.8-.2-1.1-.3-.4-.1-.8-.2-1.2-.4-.4-.1-.7-.3-1-.6-.3-.2-.5-.5-.7-.9-.2-.3-.3-.8-.3-1.2 0-.5.1-1 .4-1.4s.5-.7.9-1c.4-.3.8-.5 1.3-.6s1-.2 1.4-.2c.6 0 1.1.1 1.6.2s1 .3 1.4.6.7.6.9 1.1.4 1 .4 1.6h-2.3c0-.3-.1-.6-.2-.8-.1-.2-.3-.4-.5-.5l-.6-.3c-.2 0-.5-.1-.8-.1-.2 0-.4 0-.6.1s-.4.1-.5.2c-.2.1-.3.2-.4.4-.1.1-.1.3-.1.6 0 .2 0 .4.1.5s.2.2.5.4.6.2 1 .3 1 .2 1.6.4c.2 0 .5.1.8.2s.7.3 1.1.5c.3.2.6.5.9.9.3.4.4.9.4 1.5 0 .5-.1.9-.3 1.4-.2.4-.5.8-.8 1.1-.4.3-.8.5-1.4.7-.6.2-1.2.3-1.9.3-.6 0-1.2-.1-1.7-.2s-1-.4-1.5-.7-.8-.7-1-1.2c-.2-.5-.4-1-.4-1.7h2.3c-.2.3-.1.6 0 .9z"/></g></svg>