<svg id="Layer_1" xmlns="http://www.w3.org/2000/svg" viewBox="0 0 728 90"><style>.st0{fill:#349946}.st1{fill:#231f20}.st2{fill:none}</style><path class="st0" d="M27.4 62.6h-2.5l-.8-2.4h-5l-.8 2.4h-2.5L20.2 51H22c.6 0 1 .2 1.2.6.2.4 2.2 5.6 2.2 5.6H23l-1.4-3.9-1.8 4.9h5c.7 0 1 .2 1.2.8l1.4 3.6zM49.3 62.6h-2.5l-.8-2.4h-5l-.8 2.4h-2.5L42.1 51h1.8c.6 0 1 .2 1.2.6.2.4 2.2 5.6 2.2 5.6H45l-1.4-3.9-1.8 4.9h5c.7 0 1 .2 1.2.8l1.3 3.6zM28.2 51h4.5c3.5 0 5.3 1.9 5.3 5.8 0 2.2-.7 3.8-1.9 4.8-1.1.9-2.4 1-4 1h-3.9V51zm4.2 9.5c2.2 0 3.1-1.1 3.1-3.7s-.9-3.8-2.9-3.8h-2.2v7.5h2z"/><path class="st1" d="M69 62.5h-1.8l-.8-8.3-2.8 8.3H62l-2.9-8.3-.7 8.3h-1.7l1.1-11h2.1l3 8.5 2.9-8.5h2.1l1.1 11zM78 58.4v.7h-5.4c0 .6.2 1.1.5 1.5.4.5 1 .7 1.8.7.7 0 1.4-.2 2.2-.6l.6 1.2c-.8.6-1.8.9-3 .9s-2.2-.4-2.9-1.2c-.7-.8-1-1.7-1-3s.4-2.3 1.1-3.1c.7-.8 1.6-1.2 2.7-1.2s1.9.4 2.5 1.1c.6.7.9 1.7.9 3zm-1.7-.7c0-.5-.1-.9-.3-1.3-.3-.5-.8-.8-1.4-.8-.6 0-1 .2-1.4.6-.4.4-.6.9-.7 1.5h3.8zM91.1 62.5h-1.8V58c0-.9-.1-1.5-.3-1.8-.2-.3-.5-.4-1-.4-.6 0-1.2.2-1.8.6.1.2.1.8.1 1.8v4.3h-1.8v-4.4c0-1-.1-1.7-.4-2-.2-.2-.5-.3-.9-.3-.6 0-1.2.2-1.7.6v6.2h-1.8v-8h1.6v.6c.7-.5 1.5-.8 2.4-.8.8 0 1.5.3 2 .9.9-.6 1.8-.9 2.7-.9.8 0 1.5.2 2 .7.4.4.6.9.8 1.5.1.4.1 1.1.1 2v3.9zM100.4 58.3c0 1.3-.4 2.4-1.2 3.2-.8.8-1.8 1.2-3 1.2-.9 0-1.9-.2-3.2-.6V50.6h1.8v4.2c.6-.4 1.3-.6 2.1-.6 1 0 1.9.4 2.5 1.1.7.8 1 1.8 1 3zm-1.8 0c0-.8-.2-1.5-.6-1.9-.4-.4-.9-.7-1.4-.7-.6 0-1.1.2-1.7.6V61c.5.1.9.2 1.3.2.7 0 1.3-.3 1.7-.8.5-.5.7-1.2.7-2.1zM109 58.4v.7h-5.4c0 .6.2 1.1.5 1.5.4.5 1 .7 1.8.7.7 0 1.4-.2 2.2-.6l.6 1.2c-.8.6-1.8.9-3 .9s-2.2-.4-2.9-1.2c-.7-.8-1-1.7-1-3s.4-2.3 1.1-3.1c.7-.8 1.6-1.2 2.7-1.2s1.9.4 2.5 1.1c.6.7.9 1.7.9 3zm-1.7-.7c0-.5-.1-.9-.3-1.3-.3-.5-.8-.8-1.4-.8-.6 0-1 .2-1.4.6-.4.4-.6.9-.7 1.5h3.8zM115.9 54.4l-.4 1.4h-.5c-1 0-1.7.4-2.3 1.2v5.5h-1.8v-8h1.6v1c.1-.2.4-.4.7-.7.6-.4 1.2-.6 1.9-.6.2 0 .5.1.8.2z"/><g><path class="st1" d="M122.5 60.2c0 .8-.3 1.4-.9 1.8-.6.5-1.3.7-2.2.7-.7 0-1.4-.1-2.1-.4-.4-.2-.7-.3-.9-.5l.6-1.2c.8.4 1.5.6 2.1.6.4 0 .8-.1 1-.3s.4-.4.4-.7-.2-.5-.5-.7c-.1-.1-.6-.3-1.3-.6-.6-.3-1.1-.5-1.4-.8-.5-.4-.7-.9-.7-1.6 0-.7.3-1.3.8-1.7.5-.4 1.3-.7 2.2-.7 1.1 0 2 .2 2.6.7l-.6 1.2c-.6-.4-1.3-.5-1.9-.5-.9 0-1.3.3-1.3.9 0 .3.1.5.4.7.2.1.5.3 1 .5.8.3 1.4.6 1.6.9.8.4 1.1 1 1.1 1.7zM130.3 62.5h-1.9v-11h1.9v11zM139.4 62.5h-1.8v-4.4c0-1.1-.1-1.7-.4-2-.2-.2-.6-.4-1-.4-.6 0-1.2.2-1.8.6v6.1h-1.8v-8h1.6v.6c.8-.5 1.6-.8 2.4-.8.8 0 1.5.2 2 .7.4.4.6.8.7 1.4.1.3.1.9.1 1.6v4.6zM146.8 60.2c0 .8-.3 1.4-.9 1.8-.6.5-1.3.7-2.2.7-.7 0-1.4-.1-2.1-.4-.4-.2-.7-.3-.9-.5l.6-1.2c.8.4 1.5.6 2.1.6.4 0 .8-.1 1-.3s.4-.4.4-.7-.2-.5-.5-.7c-.1-.1-.6-.3-1.3-.6-.6-.3-1.1-.5-1.4-.8-.5-.4-.7-.9-.7-1.6 0-.7.3-1.3.8-1.7.5-.4 1.3-.7 2.2-.7 1.1 0 2 .2 2.6.7l-.6 1.2c-.6-.4-1.3-.5-1.9-.5-.9 0-1.3.3-1.3.9 0 .3.1.5.4.7.2.1.5.3 1 .5.8.3 1.4.6 1.6.9.9.4 1.1 1 1.1 1.7zM155.4 62.5h-1.6v-.6c-.7.5-1.5.8-2.4.8-.8 0-1.5-.2-2-.7-.4-.4-.6-.8-.7-1.4-.1-.3-.1-.9-.1-1.6v-4.5h1.8V60c.1.5.2.8.4 1 .2.2.5.3 1 .3s1-.2 1.8-.6v-6.1h1.8v7.9zM162.6 54.4l-.4 1.4h-.5c-1 0-1.7.4-2.3 1.2v5.5h-1.8v-8h1.6v1c.1-.2.4-.4.7-.7.6-.4 1.2-.6 1.9-.6.2 0 .5.1.8.2z"/></g><g><path class="st1" d="M169.7 62.5h-1.6v-.6c-.8.5-1.6.8-2.4.8-.8 0-1.4-.2-1.9-.7-.5-.5-.7-1.1-.7-1.8 0-1.9 1.5-2.8 4.5-2.8h.3V57c0-.5-.1-.8-.3-1-.2-.2-.7-.4-1.3-.4-.7 0-1.4.2-2.2.6l-.6-1.2c.2-.2.5-.3.9-.5.6-.3 1.3-.4 2.1-.4 1.1 0 1.9.3 2.5.9.3.3.5.6.5 1.1.1.3.1.7.1 1.4v5zm-1.7-1.8v-2.1h-.4c-1.3 0-2.1.2-2.5.6-.2.2-.3.5-.3.8 0 .4.1.7.4.9.3.2.6.3 1 .3.5.1 1.1-.1 1.8-.5zM178.4 62.5h-1.8v-4.4c0-1.1-.1-1.7-.4-2-.2-.2-.6-.4-1-.4-.6 0-1.2.2-1.8.6v6.1h-1.8v-8h1.6v.6c.8-.5 1.6-.8 2.4-.8.8 0 1.5.2 2 .7.4.4.6.8.7 1.4.1.3.1.9.1 1.6v4.6zM187 61.8c-.1.1-.4.3-.8.5-.7.3-1.4.4-2.1.4-1.2 0-2.2-.4-2.9-1.1-.7-.8-1.1-1.8-1.1-3 0-1.3.4-2.3 1.2-3.1.8-.8 1.8-1.2 3-1.2.7 0 1.3.1 1.9.4.4.2.7.4.8.5l-.7 1.1c-.6-.4-1.2-.6-1.8-.6-.7 0-1.4.3-1.8.8-.4.5-.6 1.1-.6 1.9 0 .8.2 1.5.6 2 .4.5 1 .8 1.8.8.6 0 1.3-.2 2-.6l.5 1.2z"/></g><g><path class="st1" d="M195.1 58.4v.7h-5.4c0 .6.2 1.1.5 1.5.4.5 1 .7 1.8.7.7 0 1.4-.2 2.2-.6l.6 1.2c-.8.6-1.8.9-3 .9s-2.2-.4-2.9-1.2c-.7-.8-1-1.7-1-3s.4-2.3 1.1-3.1c.7-.8 1.6-1.2 2.7-1.2s1.9.4 2.5 1.1c.6.7.9 1.7.9 3zm-1.7-.7c0-.5-.1-.9-.3-1.3-.3-.5-.8-.8-1.4-.8-.6 0-1 .2-1.4.6-.4.4-.6.9-.7 1.5h3.8zM208.3 54.8c0 1-.3 1.8-.9 2.5-.5.5-1 .8-1.7.9-.4.1-1.1.1-2 .1h-.8v4.2H201v-11h2.9c.9 0 1.6 0 2 .1.6.1 1.2.4 1.5.8.6.7.9 1.5.9 2.4zm-1.9.1c0-.6-.2-1-.5-1.4-.3-.3-1-.4-2-.4h-1v3.8h.8c1.2 0 2-.2 2.3-.5.2-.5.4-.9.4-1.5zM212 62.5h-1.8V50.6h1.8v11.9zM220.3 62.5h-1.6v-.6c-.8.5-1.6.8-2.4.8-.8 0-1.4-.2-1.9-.7-.5-.5-.7-1.1-.7-1.8 0-1.9 1.5-2.8 4.5-2.8h.3V57c0-.5-.1-.8-.3-1-.2-.2-.7-.4-1.3-.4-.7 0-1.4.2-2.2.6l-.6-1.2c.2-.2.5-.3.9-.5.6-.3 1.3-.4 2.1-.4 1.1 0 1.9.3 2.5.9.3.3.5.6.5 1.1.1.3.1.7.1 1.4v5zm-1.8-1.8v-2.1h-.4c-1.3 0-2.1.2-2.5.6-.2.2-.3.5-.3.8 0 .4.1.7.4.9.3.2.6.3 1 .3.6.1 1.2-.1 1.8-.5zM229 62.5h-1.8v-4.4c0-1.1-.1-1.7-.4-2-.2-.2-.6-.4-1-.4-.6 0-1.2.2-1.8.6v6.1h-1.8v-8h1.6v.6c.8-.5 1.6-.8 2.4-.8.8 0 1.5.2 2 .7.4.4.6.8.7 1.4.1.3.1.9.1 1.6v4.6zM236.4 60.2c0 .8-.3 1.4-.9 1.8-.6.5-1.3.7-2.2.7-.7 0-1.4-.1-2.1-.4-.4-.2-.7-.3-.9-.5l.6-1.2c.8.4 1.5.6 2.1.6.4 0 .8-.1 1-.3s.4-.4.4-.7-.2-.5-.5-.7c-.1-.1-.6-.3-1.3-.6-.6-.3-1.1-.5-1.4-.8-.5-.4-.7-.9-.7-1.6 0-.7.3-1.3.8-1.7.5-.4 1.3-.7 2.2-.7 1.1 0 2 .2 2.6.7l-.6 1.2c-.6-.4-1.3-.5-1.9-.5-.9 0-1.3.3-1.3.9 0 .3.1.5.4.7.2.1.5.3 1 .5.8.3 1.4.6 1.6.9.9.4 1.1 1 1.1 1.7z"/></g><path class="st0" d="M51 62.7c-.8 0-1.4-.6-1.4-1.4 0-.8.6-1.4 1.4-1.4.8 0 1.4.6 1.4 1.4-.1.7-.7 1.4-1.4 1.4m0-2.5c-.6 0-1 .5-1 1 0 .6.5 1 1 1 .6 0 1-.4 1-1 0-.5-.5-1-1-1m.3 1.8l-.2-.4c-.1-.2-.1-.2-.3-.2v.6h-.3v-1.4h.4c.2 0 .3 0 .5.1.1.1.1.2.1.3 0 .1-.1.3-.2.3.1 0 .1.1.1.2l.2.5h-.3zm-.2-1.2H50.8v.4h.3c.1 0 .2-.1.2-.2l-.2-.2"/><path class="st2" d="M15.8 48.8h221V64h-221z"/></svg>