<svg xmlns="http://www.w3.org/2000/svg" viewBox="0 0 300 600"><path d="M37.3 113.4v17.5l16.5-17.5h11.6L48.9 130l18 25.5H55.3l-12.7-18.9-5.3 5.4v13.6H28v-42.1h9.3zM78.7 148.2c1.3 1.2 3.1 1.8 5.4 1.8 1.7 0 3.1-.4 4.4-1.3 1.2-.8 2-1.7 2.2-2.7h7.4c-1.2 3.7-3 6.3-5.4 7.8-2.4 1.6-5.4 2.4-8.8 2.4-2.4 0-4.6-.4-6.5-1.1-1.9-.8-3.6-1.9-4.9-3.3-1.3-1.4-2.4-3.1-3.1-5.1-.7-2-1.1-4.1-1.1-6.5 0-2.3.4-4.4 1.1-6.4.7-2 1.8-3.7 3.2-5.1 1.4-1.4 3-2.6 4.9-3.4 1.9-.8 4-1.2 6.3-1.2 2.6 0 4.9.5 6.8 1.5 1.9 1 3.5 2.4 4.7 4 1.2 1.7 2.1 3.6 2.7 5.8.6 2.2.7 4.4.6 6.8h-22c.2 2.8.9 4.8 2.1 6zm9.5-16c-1-1.1-2.5-1.7-4.6-1.7-1.3 0-2.4.2-3.3.7-.9.5-1.6 1-2.1 1.7s-.9 1.4-1.1 2.1c-.2.7-.3 1.4-.4 2h13.6c-.4-2.1-1.1-3.7-2.1-4.8zM112.6 148.2c1.3 1.2 3.1 1.8 5.4 1.8 1.7 0 3.1-.4 4.4-1.3 1.2-.8 2-1.7 2.2-2.7h7.4c-1.2 3.7-3 6.3-5.4 7.8-2.4 1.6-5.4 2.4-8.8 2.4-2.4 0-4.6-.4-6.5-1.1-1.9-.8-3.6-1.9-4.9-3.3-1.3-1.4-2.4-3.1-3.1-5.1-.7-2-1.1-4.1-1.1-6.5 0-2.3.4-4.4 1.1-6.4.7-2 1.8-3.7 3.2-5.1 1.4-1.4 3-2.6 4.9-3.4 1.9-.8 4-1.2 6.3-1.2 2.6 0 4.9.5 6.8 1.5 1.9 1 3.5 2.4 4.7 4 1.2 1.7 2.1 3.6 2.7 5.8.6 2.2.7 4.4.6 6.8h-22c.2 2.8.8 4.8 2.1 6zm9.5-16c-1-1.1-2.5-1.7-4.6-1.7-1.3 0-2.4.2-3.3.7-.9.5-1.6 1-2.1 1.7s-.9 1.4-1.1 2.1c-.2.7-.3 1.4-.4 2h13.6c-.4-2.1-1.1-3.7-2.1-4.8zM145.5 125v3.9h.1c1-1.7 2.3-2.9 3.9-3.6 1.6-.7 3.3-1.1 5.2-1.1 2.4 0 4.5.5 6.2 1.4 1.7.9 3.2 2.1 4.3 3.6 1.1 1.5 2 3.2 2.5 5.2s.8 4.1.8 6.2c0 2-.3 4-.8 5.9-.6 1.9-1.4 3.6-2.5 5-1.1 1.5-2.5 2.6-4.2 3.5-1.7.9-3.6 1.3-5.9 1.3-1.9 0-3.6-.4-5.2-1.1-1.6-.8-2.9-1.9-3.9-3.4h-.1v14.5h-8.4V125h8zm10.8 24.2c.9-.6 1.7-1.3 2.2-2.2.6-.9 1-1.9 1.2-3.1.2-1.2.4-2.4.4-3.6 0-1.2-.1-2.4-.4-3.6-.3-1.2-.7-2.2-1.3-3.2-.6-.9-1.3-1.7-2.3-2.2-.9-.6-2.1-.9-3.4-.9-1.4 0-2.5.3-3.5.9-.9.6-1.7 1.3-2.2 2.2-.6.9-1 1.9-1.2 3.1s-.4 2.4-.4 3.7c0 1.2.1 2.4.4 3.6s.7 2.2 1.2 3.1c.6.9 1.3 1.6 2.3 2.2.9.6 2.1.8 3.4.8 1.6 0 2.7-.3 3.6-.8z"/><g><path d="M55.1 181.7c-.6-.9-1.2-1.7-2.1-2.3-.8-.7-1.8-1.2-2.8-1.6-1-.4-2.1-.6-3.3-.6-2.1 0-3.9.4-5.3 1.2-1.5.8-2.6 1.9-3.5 3.2-.9 1.4-1.6 2.9-2 4.6-.4 1.7-.6 3.5-.6 5.4 0 1.8.2 3.5.6 5.2.4 1.7 1.1 3.2 2 4.5.9 1.3 2.1 2.4 3.5 3.2 1.5.8 3.2 1.2 5.3 1.2 2.8 0 5-.9 6.6-2.6 1.6-1.7 2.6-4 2.9-6.8h9c-.2 2.6-.8 5-1.8 7.1-1 2.1-2.3 3.9-3.9 5.4-1.6 1.5-3.5 2.6-5.7 3.4-2.2.8-4.5 1.2-7.1 1.2-3.2 0-6.1-.6-8.7-1.7-2.6-1.1-4.7-2.7-6.5-4.6-1.8-2-3.1-4.3-4.1-6.9s-1.4-5.5-1.4-8.6c0-3.1.5-6.1 1.4-8.8.9-2.7 2.3-5 4.1-7 1.8-2 3.9-3.6 6.5-4.7s5.5-1.7 8.7-1.7c2.3 0 4.5.3 6.6 1 2.1.7 3.9 1.6 5.5 2.9 1.6 1.3 3 2.9 4 4.7 1.1 1.9 1.7 4.1 2 6.5h-9c0-.9-.4-1.9-.9-2.8zM92.8 170.5l15.7 42.1h-9.6l-3.2-9.4H80l-3.3 9.4h-9.3l15.9-42.1h9.5zm.5 25.8L88 180.9h-.1l-5.5 15.5h10.9zM121.5 170.5v34.3H142v7.8h-29.8v-42.1h9.3zM160.2 170.5l9.9 29h.1l9.3-29h13v42.1h-8.7v-29.8h-.1l-10.3 29.8h-7.1L156 183.1h-.1v29.6h-8.7v-42.1h13z"/></g></svg>