<svg id="Layer_1" xmlns="http://www.w3.org/2000/svg" viewBox="0 0 300 600"><style>.st0{font-family:&apos;HelveticaNeue-Bold&apos;}.st1{font-size:33.1518px}.st2{fill:#349946}</style><path d="M40.7 113.7l8.9 23.7h-5.4l-1.8-5.3h-8.9l-1.9 5.3h-5.2l9-23.7h5.3zm.3 14.5l-3-8.7h-.1l-3.1 8.7H41zm13.9-8v2.4h.1c.6-1 1.4-1.7 2.3-2.2 1-.5 1.9-.7 2.9-.7 1.3 0 2.3.2 3.1.5.8.3 1.4.8 1.9 1.4.5.6.8 1.3 1 2.2.2.9.3 1.8.3 2.9v10.5h-4.7v-9.7c0-1.4-.2-2.5-.7-3.2-.4-.7-1.2-1-2.4-1-1.3 0-2.2.4-2.8 1.1-.6.8-.9 2-.9 3.8v9h-4.7v-17.1h4.6zm26.7 14.9c-.6.9-1.3 1.6-2.2 2-.9.4-1.9.6-3 .6-1.3 0-2.4-.2-3.4-.7-1-.5-1.8-1.2-2.4-2-.6-.9-1.1-1.8-1.4-2.9-.3-1.1-.5-2.3-.5-3.4s.2-2.3.5-3.3c.3-1.1.8-2 1.4-2.8.6-.8 1.4-1.5 2.4-2s2.1-.7 3.3-.7c1 0 2 .2 2.9.6.9.4 1.6 1.1 2.2 1.9h.1v-8.6h4.7v23.7h-4.5l-.1-2.4zm-.2-8.4c-.1-.7-.4-1.2-.7-1.7-.3-.5-.7-.9-1.2-1.2-.5-.3-1.1-.5-1.9-.5-.8 0-1.4.2-2 .5-.5.3-1 .7-1.3 1.2-.3.5-.6 1.1-.7 1.7-.1.7-.2 1.3-.2 2s.1 1.3.2 2c.2.7.4 1.3.7 1.8.3.5.8.9 1.3 1.3.5.3 1.1.5 1.9.5.8 0 1.4-.2 1.9-.5s.9-.7 1.2-1.2c.3-.5.5-1.1.7-1.8s.2-1.3.2-2.1c.1-.7 0-1.4-.1-2zm14.4-3.4v-3.1h2.8v-1.3c0-1.5.5-2.8 1.4-3.7 1-1 2.4-1.5 4.3-1.5h1.3c.4 0 .8.1 1.2.1v3.5c-.6-.1-1.1-.1-1.7-.1-.6 0-1.1.1-1.4.4-.3.3-.4.8-.4 1.5v1h3.2v3.1h-3.2v14h-4.7v-14h-2.8zm13.6-5.8v-3.9h4.7v3.9h-4.7zm4.7 2.7v17.1h-4.7v-17.1h4.7zm7.5 0v2.4h.1c.6-1 1.4-1.7 2.3-2.2.9-.5 1.9-.7 2.9-.7 1.3 0 2.3.2 3.1.5.8.3 1.4.8 1.9 1.4.5.6.8 1.3 1 2.2.2.9.3 1.8.3 2.9v10.5h-4.7v-9.7c0-1.4-.2-2.5-.7-3.2-.4-.7-1.2-1-2.4-1-1.3 0-2.2.4-2.8 1.1-.6.8-.9 2-.9 3.8v9H117v-17.1h4.6zm26.7 14.9c-.6.9-1.3 1.6-2.2 2-.9.4-1.9.6-3 .6-1.3 0-2.4-.2-3.4-.7-1-.5-1.8-1.2-2.4-2-.6-.9-1.1-1.8-1.4-2.9-.3-1.1-.5-2.3-.5-3.4s.2-2.3.5-3.3c.3-1.1.8-2 1.4-2.8.6-.8 1.4-1.5 2.4-2s2.1-.7 3.3-.7c1 0 2 .2 2.9.6.9.4 1.6 1.1 2.2 1.9h.1v-8.6h4.7v23.7h-4.5l-.1-2.4zm-.2-8.4c-.1-.7-.4-1.2-.7-1.7-.3-.5-.7-.9-1.2-1.2-.5-.3-1.1-.5-1.9-.5-.8 0-1.4.2-2 .5-.5.3-1 .7-1.3 1.2-.3.5-.6 1.1-.7 1.7-.1.7-.2 1.3-.2 2s.1 1.3.2 2c.2.7.4 1.3.7 1.8.3.5.8.9 1.3 1.3.5.3 1.1.5 1.9.5.8 0 1.4-.2 1.9-.5s.9-.7 1.2-1.2c.3-.5.5-1.1.7-1.8.1-.7.2-1.3.2-2.1.1-.7.1-1.4-.1-2zm25.6-6.5v3.1h-3.4v8.5c0 .8.1 1.3.4 1.6.3.3.8.4 1.6.4h.8c.2 0 .5-.1.7-.1v3.6c-.4.1-.8.1-1.3.1h-1.4c-.7 0-1.4 0-2.1-.1-.7-.1-1.2-.3-1.7-.6s-.9-.7-1.2-1.2c-.3-.5-.4-1.2-.4-2.1v-10.1h-2.9v-3.1h2.9V115h4.7v5.1h3.3zm6.3-6.5v8.9h.1c.6-1 1.4-1.7 2.3-2.2.9-.5 1.8-.7 2.7-.7 1.3 0 2.3.2 3.1.5.8.3 1.4.8 1.9 1.4.5.6.8 1.3 1 2.2.2.9.3 1.8.3 2.9v10.5h-4.7v-9.7c0-1.4-.2-2.5-.7-3.2-.4-.7-1.2-1-2.4-1-1.3 0-2.2.4-2.8 1.1-.6.8-.9 2-.9 3.8v9h-4.7v-23.7h4.8zm19.4 19.5c.7.7 1.7 1 3 1 .9 0 1.8-.2 2.5-.7.7-.5 1.1-1 1.3-1.5h4.1c-.7 2.1-1.7 3.5-3 4.4-1.4.9-3 1.3-5 1.3-1.3 0-2.6-.2-3.6-.6-1.1-.4-2-1-2.8-1.8-.8-.8-1.3-1.7-1.7-2.9-.4-1.1-.6-2.3-.6-3.6 0-1.3.2-2.5.6-3.6.4-1.1 1-2.1 1.8-2.9.8-.8 1.7-1.4 2.8-1.9 1.1-.5 2.3-.7 3.6-.7 1.5 0 2.7.3 3.8.8 1.1.6 2 1.3 2.7 2.3.7 1 1.2 2 1.5 3.2.3 1.2.4 2.5.3 3.8h-12.4c0 1.6.3 2.7 1.1 3.4zm5.3-9c-.6-.6-1.4-.9-2.6-.9-.8 0-1.4.1-1.9.4-.5.3-.9.6-1.2.9-.3.4-.5.8-.6 1.2-.1.4-.2.8-.2 1.1h7.7c-.3-1.2-.7-2.1-1.2-2.7z"/><text transform="translate(219.441 137.323)" class="st0 st1"></text><path d="M33.1 148.3v8.6h.1c.6-.9 1.4-1.5 2.3-1.9 1-.4 2-.6 3.1-.6.9 0 1.7.2 2.6.5.8.4 1.6.9 2.3 1.6.7.7 1.2 1.7 1.6 2.8.4 1.1.6 2.5.6 4.1 0 1.6-.2 2.9-.6 4.1-.4 1.1-1 2.1-1.6 2.8-.7.7-1.4 1.3-2.3 1.6-.8.4-1.7.5-2.6.5-1.3 0-2.4-.2-3.4-.6-1-.4-1.7-1.1-2.3-2h-.1v2.2h-4.5v-23.7h4.8zm7.6 13c-.2-.7-.4-1.2-.7-1.8-.3-.5-.7-.9-1.2-1.2-.5-.3-1.1-.4-1.8-.4s-1.3.1-1.8.4c-.5.3-.9.7-1.3 1.2-.3.5-.6 1.1-.7 1.8-.2.7-.2 1.4-.2 2.1 0 .7.1 1.4.2 2.1.2.7.4 1.2.7 1.8.3.5.8.9 1.3 1.2.5.3 1.1.4 1.8.4s1.3-.1 1.8-.4c.5-.3.9-.7 1.2-1.2.3-.5.6-1.1.7-1.8.2-.7.2-1.3.2-2.1.1-.7 0-1.4-.2-2.1zM53 167.9c.7.7 1.7 1 3.1 1 .9 0 1.8-.2 2.5-.7.7-.5 1.1-1 1.3-1.5H64c-.7 2.1-1.7 3.5-3.1 4.4-1.4.9-3 1.3-5 1.3-1.3 0-2.6-.2-3.6-.6-1.1-.4-2-1-2.8-1.8-.8-.8-1.3-1.7-1.7-2.9-.4-1.1-.6-2.3-.6-3.6 0-1.3.2-2.5.6-3.6.4-1.1 1-2.1 1.8-2.9.8-.8 1.7-1.4 2.8-1.9 1.1-.5 2.3-.7 3.6-.7 1.5 0 2.7.3 3.8.8 1.1.6 2 1.3 2.7 2.3.7 1 1.2 2 1.5 3.2.3 1.2.4 2.5.3 3.8H51.9c0 1.6.4 2.7 1.1 3.4zm5.3-9c-.6-.6-1.4-.9-2.6-.9-.8 0-1.4.1-1.9.4-.5.3-.9.6-1.2.9-.3.4-.5.8-.6 1.2s-.2.8-.2 1.1h7.7c-.2-1.2-.6-2.1-1.2-2.7zM70.3 167.7c.2.4.5.7.8.9.3.2.7.4 1.1.5.4.1.9.2 1.3.2.3 0 .7 0 1-.1.4-.1.7-.2 1-.4.3-.2.5-.4.7-.7.2-.3.3-.6.3-1 0-.7-.5-1.2-1.4-1.6-.9-.4-2.2-.7-3.9-1.1-.7-.2-1.4-.3-2-.5-.7-.2-1.2-.5-1.7-.8-.5-.3-.9-.8-1.2-1.3-.3-.5-.5-1.2-.5-1.9 0-1.1.2-2 .6-2.7.4-.7 1-1.3 1.7-1.7.7-.4 1.5-.7 2.4-.9.9-.2 1.8-.2 2.7-.2s1.8.1 2.7.3c.9.2 1.7.5 2.3.9.7.4 1.3 1 1.7 1.7.5.7.7 1.6.8 2.6h-4.5c-.1-.9-.4-1.5-1-1.8-.6-.3-1.3-.5-2.2-.5h-.9c-.3 0-.6.1-.8.2-.3.1-.5.3-.6.5-.2.2-.3.5-.3.8 0 .4.2.8.5 1 .3.3.7.5 1.2.6.5.2 1.1.3 1.7.4.6.1 1.3.3 2 .4.7.2 1.4.3 2 .6.7.2 1.2.5 1.7.9s.9.8 1.2 1.4c.3.5.5 1.2.5 2 0 1.1-.2 2.1-.7 2.8-.5.8-1 1.4-1.8 1.8-.7.5-1.6.8-2.5 1-.9.2-1.9.3-2.9.3s-2-.1-2.9-.3c-1-.2-1.8-.5-2.5-1s-1.3-1.1-1.8-1.8c-.5-.8-.7-1.7-.8-2.9H70c0 .6.1 1.1.3 1.4zM93 154.8v3.1h-3.4v8.5c0 .8.1 1.3.4 1.6.3.3.8.4 1.6.4h.8c.2 0 .5-.1.7-.1v3.6c-.4.1-.8.1-1.3.1h-1.4c-.7 0-1.4 0-2.1-.1-.7-.1-1.2-.3-1.7-.6s-.9-.7-1.2-1.2c-.3-.5-.4-1.2-.4-2.1v-10h-3v-3.1h2.9v-5.1h4.7v5.1H93zM107.6 154.8v3.2h.1c.2-.5.5-1 .9-1.5s.8-.8 1.3-1.2c.5-.3 1-.6 1.6-.7.6-.2 1.1-.3 1.7-.3.3 0 .7.1 1 .2v4.4c-.2 0-.5-.1-.8-.1h-.9c-.9 0-1.6.1-2.2.4s-1.1.7-1.4 1.2c-.4.5-.6 1.1-.8 1.7-.2.7-.2 1.4-.2 2.2v7.7h-4.7v-17.1h4.4zM115.2 160.1c.1-1.1.3-2 .8-2.8.5-.7 1.1-1.3 1.9-1.8.8-.4 1.6-.8 2.5-.9.9-.2 1.9-.3 2.8-.3.9 0 1.7.1 2.6.2.9.1 1.7.4 2.4.7.7.4 1.3.8 1.8 1.5.5.6.7 1.5.7 2.5v8.9c0 .8 0 1.5.1 2.2.1.7.2 1.2.5 1.6h-4.8c-.1-.3-.2-.5-.2-.8s-.1-.6-.1-.8c-.8.8-1.6 1.3-2.7 1.6s-2.1.5-3.1.5c-.8 0-1.6-.1-2.3-.3-.7-.2-1.3-.5-1.9-.9-.5-.4-.9-1-1.2-1.6s-.4-1.4-.4-2.3c0-1 .2-1.8.5-2.4.3-.6.8-1.1 1.3-1.5.5-.4 1.2-.7 1.9-.8.7-.2 1.4-.3 2.1-.4l2.1-.3c.7-.1 1.3-.2 1.8-.3.5-.1.9-.3 1.3-.6.3-.3.5-.6.4-1.1 0-.5-.1-.9-.2-1.2-.2-.3-.4-.5-.7-.7-.3-.2-.6-.3-1-.3-.4-.1-.8-.1-1.2-.1-.9 0-1.7.2-2.2.6s-.8 1.1-.9 2h-4.6zm10.9 3.5c-.2.2-.4.3-.7.4-.3.1-.6.2-1 .2-.3.1-.7.1-1.1.2-.4 0-.8.1-1.1.2-.4.1-.7.2-1 .3-.3.1-.6.3-.9.4-.3.2-.5.4-.6.7-.2.3-.2.7-.2 1.1 0 .4.1.8.2 1.1.2.3.4.5.6.7.3.2.6.3.9.3.4.1.7.1 1.1.1.9 0 1.6-.2 2.2-.5.5-.3.9-.7 1.1-1.1.2-.4.4-.9.4-1.3.1-.4.1-.8.1-1.1v-1.7zM143.2 154.8v3.1h-3.4v8.5c0 .8.1 1.3.4 1.6.3.3.8.4 1.6.4h.8c.2 0 .5-.1.7-.1v3.6c-.4.1-.8.1-1.3.1h-1.4c-.7 0-1.4 0-2.1-.1-.7-.1-1.2-.3-1.7-.6s-.9-.7-1.2-1.2c-.3-.5-.4-1.2-.4-2.1v-10h-2.9v-3.1h2.9v-5.1h4.7v5.1h3.3zM149.9 167.9c.7.7 1.7 1 3 1 1 0 1.8-.2 2.5-.7.7-.5 1.1-1 1.3-1.5h4.1c-.7 2.1-1.7 3.5-3 4.4-1.4.9-3 1.3-5 1.3-1.3 0-2.6-.2-3.6-.6-1.1-.4-2-1-2.8-1.8-.8-.8-1.3-1.7-1.7-2.9-.4-1.1-.6-2.3-.6-3.6 0-1.3.2-2.5.6-3.6.4-1.1 1-2.1 1.8-2.9.8-.8 1.7-1.4 2.8-1.9 1.1-.5 2.3-.7 3.6-.7 1.5 0 2.7.3 3.8.8 1.1.6 2 1.3 2.7 2.3.7 1 1.2 2 1.5 3.2s.4 2.5.3 3.8h-12.4c0 1.6.4 2.7 1.1 3.4zm5.3-9c-.6-.6-1.4-.9-2.6-.9-.8 0-1.4.1-1.9.4-.5.3-.9.6-1.2.9-.3.4-.5.8-.6 1.2-.1.4-.2.8-.2 1.1h7.7c-.2-1.2-.6-2.1-1.2-2.7zM167.2 167.7c.2.4.5.7.8.9.3.2.7.4 1.1.5.4.1.9.2 1.3.2.3 0 .7 0 1-.1.4-.1.7-.2 1-.4.3-.2.5-.4.7-.7.2-.3.3-.6.3-1 0-.7-.5-1.2-1.4-1.6-.9-.4-2.2-.7-3.9-1.1-.7-.2-1.4-.3-2-.5-.7-.2-1.2-.5-1.7-.8-.5-.3-.9-.8-1.2-1.3-.3-.5-.5-1.2-.5-1.9 0-1.1.2-2 .6-2.7.4-.7 1-1.3 1.7-1.7.7-.4 1.5-.7 2.4-.9.9-.2 1.8-.2 2.7-.2s1.8.1 2.7.3c.9.2 1.7.5 2.3.9.7.4 1.3 1 1.7 1.7s.7 1.6.8 2.6h-4.5c-.1-.9-.4-1.5-1-1.8-.6-.3-1.3-.5-2.2-.5h-.9c-.3 0-.6.1-.8.2-.3.1-.5.3-.6.5-.2.2-.3.5-.3.8 0 .4.2.8.5 1 .3.3.7.5 1.2.6.5.2 1.1.3 1.7.4.6.1 1.3.3 2 .4.7.2 1.4.3 2 .6.7.2 1.2.5 1.7.9s.9.8 1.2 1.4.5 1.2.5 2c0 1.1-.2 2.1-.7 2.8-.5.8-1 1.4-1.8 1.8-.7.5-1.6.8-2.5 1-.9.2-1.9.3-2.9.3s-2-.1-2.9-.3c-1-.2-1.8-.5-2.5-1s-1.3-1.1-1.8-1.8c-.5-.8-.7-1.7-.8-2.9h4.5c.2.6.3 1.1.5 1.4z"/><g><path d="M37.8 189.5v3.1h-3.4v8.5c0 .8.1 1.3.4 1.6.3.3.8.4 1.6.4h.8c.2 0 .5-.1.7-.1v3.6c-.4.1-.8.1-1.3.1h-1.4c-.7 0-1.4 0-2.1-.1-.7-.1-1.2-.3-1.7-.6s-.9-.7-1.2-1.2c-.3-.5-.4-1.2-.4-2.1v-10.1h-2.9v-3.1h2.9v-5.1h4.7v5.1h3.3zM39.5 194.3c.4-1.1 1-2.1 1.8-2.9.8-.8 1.7-1.4 2.8-1.8 1.1-.4 2.3-.6 3.6-.6 1.3 0 2.6.2 3.7.6 1.1.4 2 1 2.8 1.8.8.8 1.4 1.7 1.8 2.9.4 1.1.6 2.4.6 3.7 0 1.4-.2 2.6-.6 3.7-.4 1.1-1 2.1-1.8 2.8-.8.8-1.7 1.4-2.8 1.8-1.1.4-2.3.6-3.7.6-1.3 0-2.6-.2-3.6-.6-1.1-.4-2-1-2.8-1.8-.8-.8-1.4-1.7-1.8-2.8-.4-1.1-.6-2.3-.6-3.7 0-1.3.2-2.5.6-3.7zm4.3 5.8c.1.7.4 1.2.7 1.8.3.5.7.9 1.3 1.2.5.3 1.2.5 2 .5s1.5-.2 2-.5 1-.7 1.3-1.2c.3-.5.5-1.1.7-1.8.1-.7.2-1.3.2-2s-.1-1.4-.2-2c-.1-.7-.4-1.2-.7-1.8-.3-.5-.8-.9-1.3-1.2-.5-.3-1.2-.5-2-.5s-1.5.2-2 .5-1 .7-1.3 1.2c-.3.5-.5 1.1-.7 1.8-.1.7-.2 1.3-.2 2s.1 1.3.2 2zM72.1 189.5v2.2h.1c.6-.9 1.3-1.6 2.2-2 .9-.4 1.9-.6 2.9-.6 1.3 0 2.5.3 3.5.8s1.8 1.2 2.4 2c.6.8 1.1 1.8 1.4 2.9.3 1.1.5 2.3.5 3.5 0 1.1-.2 2.3-.5 3.3-.3 1.1-.8 2-1.4 2.8-.6.8-1.4 1.5-2.4 2s-2 .7-3.3.7c-1.1 0-2-.2-2.9-.6-.9-.4-1.6-1.1-2.2-1.9h-.1v8.1h-4.7v-23.1h4.5zm6.1 13.6c.5-.3.9-.7 1.3-1.2.3-.5.5-1.1.7-1.7.1-.7.2-1.3.2-2s-.1-1.4-.2-2c-.1-.7-.4-1.3-.7-1.8-.3-.5-.8-.9-1.3-1.3-.5-.3-1.2-.5-1.9-.5-.8 0-1.4.2-1.9.5s-.9.7-1.3 1.2c-.3.5-.5 1.1-.7 1.8-.1.7-.2 1.3-.2 2.1 0 .7.1 1.4.2 2 .1.7.4 1.2.7 1.7.3.5.7.9 1.3 1.2.5.3 1.2.5 1.9.5.7-.1 1.3-.2 1.9-.5zM91.6 189.5v3.2h.1c.2-.5.5-1 .9-1.5s.8-.8 1.3-1.2c.5-.3 1-.6 1.6-.7.6-.2 1.1-.3 1.7-.3.3 0 .7.1 1 .2v4.4c-.2 0-.5-.1-.8-.1h-.9c-.9 0-1.6.1-2.2.4s-1.1.7-1.4 1.2c-.4.5-.6 1.1-.8 1.7-.2.7-.2 1.4-.2 2.2v7.7h-4.7v-17.1h4.4zM98.9 194.3c.4-1.1 1-2.1 1.8-2.9.8-.8 1.7-1.4 2.8-1.8 1.1-.4 2.3-.6 3.6-.6 1.3 0 2.6.2 3.7.6 1.1.4 2 1 2.8 1.8.8.8 1.4 1.7 1.8 2.9.4 1.1.6 2.4.6 3.7 0 1.4-.2 2.6-.6 3.7-.4 1.1-1 2.1-1.8 2.8-.8.8-1.7 1.4-2.8 1.8-1.1.4-2.3.6-3.7.6-1.3 0-2.6-.2-3.6-.6-1.1-.4-2-1-2.8-1.8-.8-.8-1.4-1.7-1.8-2.8-.4-1.1-.6-2.3-.6-3.7 0-1.3.2-2.5.6-3.7zm4.3 5.8c.1.7.4 1.2.7 1.8.3.5.7.9 1.3 1.2.5.3 1.2.5 2 .5s1.5-.2 2-.5 1-.7 1.3-1.2c.3-.5.5-1.1.7-1.8.1-.7.2-1.3.2-2s-.1-1.4-.2-2c-.1-.7-.4-1.2-.7-1.8-.3-.5-.8-.9-1.3-1.2-.5-.3-1.2-.5-2-.5s-1.5.2-2 .5-1 .7-1.3 1.2c-.3.5-.5 1.1-.7 1.8-.1.7-.2 1.3-.2 2s.1 1.3.2 2zM127.8 189.5v3.1h-3.4v8.5c0 .8.1 1.3.4 1.6.3.3.8.4 1.6.4h.8c.2 0 .5-.1.7-.1v3.6c-.4.1-.8.1-1.3.1h-1.4c-.7 0-1.4 0-2.1-.1-.7-.1-1.2-.3-1.7-.6s-.9-.7-1.2-1.2c-.3-.5-.4-1.2-.4-2.1v-10.1h-2.9v-3.1h2.9v-5.1h4.7v5.1h3.3zM134.5 202.5c.7.7 1.7 1 3.1 1 .9 0 1.8-.2 2.5-.7.7-.5 1.1-1 1.3-1.5h4.1c-.7 2.1-1.7 3.5-3 4.4-1.4.9-3 1.3-5 1.3-1.3 0-2.6-.2-3.6-.6-1.1-.4-2-1-2.8-1.8-.8-.8-1.3-1.7-1.7-2.9-.4-1.1-.6-2.3-.6-3.6 0-1.3.2-2.5.6-3.6.4-1.1 1-2.1 1.8-2.9.8-.8 1.7-1.4 2.8-1.9 1.1-.5 2.3-.7 3.6-.7 1.5 0 2.7.3 3.8.8s2 1.3 2.7 2.3c.7 1 1.2 2 1.5 3.2.3 1.2.4 2.5.3 3.8h-12.4c-.1 1.6.3 2.7 1 3.4zm5.3-9c-.6-.6-1.4-.9-2.6-.9-.8 0-1.4.1-1.9.4-.5.3-.9.6-1.2.9-.3.4-.5.8-.6 1.2s-.2.8-.2 1.1h7.7c-.2-1.2-.6-2.1-1.2-2.7zM156.1 192.6c-.8 0-1.4.2-1.9.5s-.9.8-1.2 1.3-.5 1.1-.7 1.8c-.1.7-.2 1.3-.2 1.9 0 .6.1 1.2.2 1.9.1.6.3 1.2.6 1.7s.7.9 1.2 1.3 1.1.5 1.9.5c1.1 0 2-.3 2.6-.9.6-.6 1-1.5 1.1-2.5h4.5c-.3 2.3-1.2 4-2.7 5.2-1.5 1.2-3.3 1.8-5.6 1.8-1.3 0-2.5-.2-3.5-.6-1.1-.4-2-1-2.7-1.8-.8-.8-1.3-1.7-1.8-2.8-.4-1.1-.6-2.2-.6-3.5 0-1.3.2-2.6.6-3.7.4-1.1 1-2.1 1.7-3 .8-.8 1.7-1.5 2.8-1.9 1.1-.5 2.3-.7 3.7-.7 1 0 2 .1 2.9.4.9.3 1.8.7 2.5 1.2s1.3 1.2 1.8 2 .7 1.8.8 2.9h-4.6c-.3-2-1.4-3-3.4-3zM175.7 189.5v3.1h-3.4v8.5c0 .8.1 1.3.4 1.6.3.3.8.4 1.6.4h.8c.2 0 .5-.1.7-.1v3.6c-.4.1-.8.1-1.3.1h-1.4c-.7 0-1.4 0-2.1-.1-.7-.1-1.2-.3-1.7-.6s-.9-.7-1.2-1.2c-.3-.5-.4-1.2-.4-2.1v-10.1h-2.9v-3.1h2.9v-5.1h4.7v5.1h3.3z"/></g><g><path d="M34.7 246.4c-.9.6-2.2.9-3.8.9h-1.4c-.5 0-1-.1-1.4-.1v-3.9c.4 0 .9.1 1.4.1.5 0 .9.1 1.4 0 .6-.1 1.1-.3 1.4-.7.3-.4.4-.9.4-1.4 0-.4-.1-.7-.2-1.1l-6-16.1h5l3.9 11.7h.1l3.7-11.7H44l-7.2 19.3c-.5 1.4-1.2 2.4-2.1 3zM45 229c.4-1.1 1-2.1 1.8-2.9.8-.8 1.7-1.4 2.8-1.8 1.1-.4 2.3-.6 3.6-.6 1.3 0 2.6.2 3.7.6 1.1.4 2 1 2.8 1.8.8.8 1.4 1.7 1.8 2.9.4 1.1.6 2.4.6 3.7 0 1.4-.2 2.6-.6 3.7-.4 1.1-1 2.1-1.8 2.8-.8.8-1.7 1.4-2.8 1.8-1.1.4-2.3.6-3.7.6-1.3 0-2.6-.2-3.6-.6-1.1-.4-2-1-2.8-1.8-.8-.8-1.4-1.7-1.8-2.8-.4-1.1-.6-2.3-.6-3.7 0-1.3.2-2.6.6-3.7zm4.3 5.8c.1.7.4 1.2.7 1.8.3.5.7.9 1.3 1.2.5.3 1.2.5 2 .5s1.5-.2 2-.5 1-.7 1.3-1.2c.3-.5.5-1.1.7-1.8.1-.7.2-1.3.2-2s-.1-1.4-.2-2c-.1-.7-.4-1.2-.7-1.8-.3-.5-.8-.9-1.3-1.2-.5-.3-1.2-.5-2-.5s-1.5.2-2 .5-1 .7-1.3 1.2c-.3.5-.5 1.1-.7 1.8-.1.7-.2 1.3-.2 2 0 .6.1 1.3.2 2zM76.1 241.3v-2.4H76c-.6 1-1.4 1.7-2.3 2.2s-1.9.7-2.9.7c-1.3 0-2.3-.2-3.1-.5-.8-.3-1.4-.8-1.9-1.4-.5-.6-.8-1.3-1-2.2-.2-.9-.3-1.8-.3-2.9v-10.5h4.7v9.7c0 1.4.2 2.5.7 3.2.4.7 1.2 1 2.4 1 1.3 0 2.2-.4 2.8-1.1.6-.8.9-2 .9-3.8v-9h4.7v17.1h-4.6zM88 224.2v3.2h.1c.2-.5.5-1 .9-1.5s.8-.8 1.3-1.2c.5-.3 1-.6 1.6-.7.6-.2 1.1-.3 1.7-.3.3 0 .7.1 1 .2v4.4c-.2 0-.5-.1-.8-.1h-.9c-.9 0-1.6.1-2.2.4s-1.1.7-1.4 1.2c-.4.5-.6 1.1-.8 1.7-.2.7-.2 1.4-.2 2.2v7.7h-4.7v-17.1H88zM104.5 221.5v-3.9h4.7v3.9h-4.7zm4.7 2.7v17.1h-4.7v-17.1h4.7zM116.7 224.2v2.4h.1c.6-1 1.4-1.7 2.3-2.2s1.9-.7 2.9-.7c1.3 0 2.3.2 3.1.5.8.3 1.4.8 1.9 1.4.5.6.8 1.3 1 2.2.2.9.3 1.8.3 2.9v10.5h-4.7v-9.7c0-1.4-.2-2.5-.7-3.2-.4-.7-1.2-1-2.4-1-1.3 0-2.2.4-2.8 1.1-.6.8-.9 2-.9 3.8v9h-4.7v-17.1h4.6zM139.5 227.2c-.8 0-1.4.2-1.9.5s-.9.8-1.2 1.3-.5 1.1-.7 1.8c-.1.7-.2 1.3-.2 1.9 0 .6.1 1.2.2 1.9.1.6.3 1.2.6 1.7s.7.9 1.2 1.3c.5.3 1.1.5 1.9.5 1.1 0 2-.3 2.6-.9s1-1.5 1.1-2.5h4.5c-.3 2.3-1.2 4-2.7 5.2-1.5 1.2-3.3 1.8-5.6 1.8-1.3 0-2.5-.2-3.5-.6-1.1-.4-2-1-2.7-1.8-.8-.8-1.3-1.7-1.8-2.8-.4-1.1-.6-2.2-.6-3.5 0-1.3.2-2.6.6-3.7.4-1.1 1-2.1 1.7-3 .8-.8 1.7-1.5 2.8-1.9 1.1-.5 2.3-.7 3.7-.7 1 0 2 .1 2.9.4.9.3 1.8.7 2.5 1.2s1.3 1.2 1.8 2 .7 1.8.8 2.9H143c-.3-2-1.5-3-3.5-3zM149.8 229c.4-1.1 1-2.1 1.8-2.9.8-.8 1.7-1.4 2.8-1.8 1.1-.4 2.3-.6 3.6-.6 1.3 0 2.6.2 3.7.6 1.1.4 2 1 2.8 1.8.8.8 1.4 1.7 1.8 2.9.4 1.1.6 2.4.6 3.7 0 1.4-.2 2.6-.6 3.7-.4 1.1-1 2.1-1.8 2.8-.8.8-1.7 1.4-2.8 1.8-1.1.4-2.3.6-3.7.6-1.3 0-2.6-.2-3.6-.6-1.1-.4-2-1-2.8-1.8-.8-.8-1.4-1.7-1.8-2.8-.4-1.1-.6-2.3-.6-3.7 0-1.3.2-2.6.6-3.7zm4.3 5.8c.1.7.4 1.2.7 1.8.3.5.7.9 1.3 1.2.5.3 1.2.5 2 .5s1.5-.2 2-.5 1-.7 1.3-1.2c.3-.5.5-1.1.7-1.8.1-.7.2-1.3.2-2s-.1-1.4-.2-2c-.1-.7-.4-1.2-.7-1.8-.3-.5-.8-.9-1.3-1.2-.5-.3-1.2-.5-2-.5s-1.5.2-2 .5-1 .7-1.3 1.2c-.3.5-.5 1.1-.7 1.8-.1.7-.2 1.3-.2 2 0 .6 0 1.3.2 2zM173.9 224.2v2.3h.1c.6-.9 1.4-1.6 2.2-2.1s1.9-.7 3-.7 2.1.2 3 .6c.9.4 1.6 1.2 2 2.2.5-.8 1.2-1.4 2.1-2 .9-.6 1.9-.9 3.1-.9.9 0 1.7.1 2.5.3.8.2 1.4.6 2 1.1.6.5 1 1.1 1.3 1.9.3.8.5 1.7.5 2.8v11.5H191v-9.7c0-.6 0-1.1-.1-1.6 0-.5-.2-1-.4-1.3-.2-.4-.5-.7-.9-.9-.4-.2-.9-.3-1.6-.3-.7 0-1.2.1-1.6.4-.4.3-.7.6-1 1-.2.4-.4.9-.5 1.4-.1.5-.1 1-.1 1.6v9.5h-4.7v-9.6-1.5c0-.5-.1-1-.3-1.4-.2-.4-.4-.8-.8-1-.4-.3-1-.4-1.7-.4-.2 0-.5 0-.9.1s-.7.3-1.1.6c-.3.3-.6.7-.9 1.2-.2.5-.4 1.2-.4 2v9.9h-4.7v-17.1h4.6zM203.7 237.2c.7.7 1.7 1 3 1 1 0 1.8-.2 2.5-.7.7-.5 1.1-1 1.3-1.5h4.1c-.7 2.1-1.7 3.5-3 4.4-1.4.9-3 1.3-5 1.3-1.3 0-2.6-.2-3.6-.6-1.1-.4-2-1-2.8-1.8-.8-.8-1.3-1.7-1.7-2.9-.4-1.1-.6-2.3-.6-3.6 0-1.3.2-2.5.6-3.6.4-1.1 1-2.1 1.8-2.9.8-.8 1.7-1.4 2.8-1.9 1.1-.5 2.3-.7 3.6-.7 1.5 0 2.7.3 3.8.8 1.1.6 2 1.3 2.7 2.3.7 1 1.2 2 1.5 3.2s.4 2.5.3 3.8h-12.4c0 1.6.4 2.7 1.1 3.4zm5.3-9c-.6-.6-1.4-.9-2.6-.9-.8 0-1.4.1-1.9.4-.5.3-.9.6-1.2.9-.3.4-.5.8-.6 1.2-.1.4-.2.8-.2 1.1h7.7c-.2-1.2-.6-2.1-1.2-2.7zM222.5 236.2v5.1h-5.2v-5.1h5.2z"/></g><g><path class="st2" d="M28.7 269.9c.5-1.5 1.3-2.8 2.3-4 1-1.1 2.2-2 3.7-2.7 1.4-.6 3.1-1 4.9-1 1.8 0 3.5.3 4.9 1 1.4.6 2.7 1.5 3.6 2.7 1 1.1 1.8 2.4 2.3 4 .5 1.5.8 3.2.8 4.9 0 1.7-.3 3.3-.8 4.8s-1.3 2.8-2.3 3.9-2.2 2-3.6 2.6c-1.4.6-3.1.9-4.9.9-1.8 0-3.4-.3-4.9-.9-1.4-.6-2.7-1.5-3.7-2.6s-1.8-2.4-2.3-3.9c-.5-1.5-.8-3.1-.8-4.8 0-1.8.2-3.4.8-4.9zm4.7 7.8c.2.9.6 1.8 1.1 2.5.5.8 1.2 1.4 2 1.8.8.5 1.8.7 3 .7s2.2-.2 3-.7c.8-.5 1.5-1.1 2-1.8.5-.8.9-1.6 1.1-2.5.2-.9.3-1.9.3-2.9s-.1-2-.3-3c-.2-1-.6-1.8-1.1-2.6s-1.2-1.4-2-1.8c-.8-.5-1.8-.7-3-.7s-2.2.2-3 .7c-.8.5-1.5 1.1-2 1.8-.5.8-.9 1.6-1.1 2.6-.2 1-.3 2-.3 3s.1 1.9.3 2.9zM58 269.4v2.4h.1c.6-1 1.4-1.7 2.3-2.2s1.9-.7 2.9-.7c1.3 0 2.3.2 3.1.5.8.3 1.4.8 1.9 1.4.5.6.8 1.3 1 2.2.2.9.3 1.8.3 2.9v10.5h-4.7v-9.7c0-1.4-.2-2.5-.7-3.2-.4-.7-1.2-1-2.4-1-1.3 0-2.2.4-2.8 1.1-.6.8-.9 2-.9 3.8v9h-4.7v-17.1H58zM77.4 262.8v23.7h-4.7v-23.7h4.7zM86.8 291.6c-.9.6-2.2.9-3.8.9h-1.4c-.5 0-1-.1-1.4-.1v-3.9c.4 0 .9.1 1.4.1.5 0 .9.1 1.4 0 .6-.1 1.1-.3 1.4-.7.3-.4.4-.9.4-1.4 0-.4-.1-.7-.2-1.1l-6-16.1h5l3.9 11.7h.1l3.7-11.7h4.9L89 288.6c-.6 1.4-1.3 2.4-2.2 3zM103.7 272.5v-3.1h2.8v-1.3c0-1.5.5-2.8 1.4-3.7.9-1 2.4-1.5 4.3-1.5h1.3c.4 0 .8.1 1.2.1v3.5c-.6-.1-1.1-.1-1.7-.1-.6 0-1.1.1-1.4.4-.3.3-.4.8-.4 1.5v1h3.2v3.1h-3.2v14h-4.7v-14h-2.8zM116 274.2c.4-1.1 1-2.1 1.8-2.9.8-.8 1.7-1.4 2.8-1.8 1.1-.4 2.3-.6 3.6-.6 1.3 0 2.6.2 3.7.6 1.1.4 2 1 2.8 1.8.8.8 1.4 1.7 1.8 2.9.4 1.1.6 2.4.6 3.7 0 1.4-.2 2.6-.6 3.7-.4 1.1-1 2.1-1.8 2.8-.8.8-1.7 1.4-2.8 1.8-1.1.4-2.3.6-3.7.6-1.3 0-2.6-.2-3.6-.6-1.1-.4-2-1-2.8-1.8-.8-.8-1.4-1.7-1.8-2.8-.4-1.1-.6-2.3-.6-3.7 0-1.3.2-2.5.6-3.7zm4.3 5.8c.1.7.4 1.2.7 1.8.3.5.7.9 1.3 1.2.5.3 1.2.5 2 .5s1.5-.2 2-.5 1-.7 1.3-1.2c.3-.5.5-1.1.7-1.8.1-.7.2-1.3.2-2s-.1-1.4-.2-2c-.1-.7-.4-1.2-.7-1.8-.3-.5-.8-.9-1.3-1.2-.5-.3-1.2-.5-2-.5s-1.5.2-2 .5-1 .7-1.3 1.2c-.3.5-.5 1.1-.7 1.8-.1.7-.2 1.3-.2 2s.1 1.3.2 2zM140 269.4v3.2h.1c.2-.5.5-1 .9-1.5s.8-.8 1.3-1.2 1-.6 1.6-.7c.6-.2 1.1-.3 1.7-.3.3 0 .7.1 1 .2v4.4c-.2 0-.5-.1-.8-.1h-.9c-.9 0-1.6.1-2.2.4-.6.3-1.1.7-1.4 1.2-.4.5-.6 1.1-.8 1.7-.2.7-.2 1.4-.2 2.2v7.7h-4.7v-17.1h4.4z"/></g><g><path class="st2" d="M40.7 297.5l8.9 23.7h-5.4l-1.8-5.3h-8.9l-1.9 5.3h-5.2l9-23.7h5.3zM41 312l-3-8.7h-.1l-3.1 8.7H41zM61.1 297.5c1.5 0 2.9.2 4.3.7 1.3.5 2.5 1.2 3.4 2.2 1 1 1.7 2.2 2.3 3.6.5 1.5.8 3.2.8 5.1 0 1.7-.2 3.3-.7 4.8-.4 1.5-1.1 2.7-2 3.8-.9 1.1-2 1.9-3.3 2.5-1.3.6-2.9.9-4.7.9H50.9v-23.7h10.2zm-.3 19.3c.8 0 1.5-.1 2.2-.4.7-.2 1.3-.6 1.9-1.2.6-.6 1-1.3 1.3-2.2s.5-2 .5-3.3c0-1.2-.1-2.3-.3-3.2-.2-1-.6-1.8-1.1-2.5-.5-.7-1.2-1.2-2.1-1.6-.9-.4-2-.5-3.2-.5h-3.7v14.9h4.5zM86.6 297.5l8.9 23.7h-5.4l-1.8-5.3h-8.9l-1.9 5.3h-5.2l9-23.7h5.3zm.3 14.5l-3-8.7h-.1l-3.1 8.7h6.2zM112.5 297.5l5.5 16.3h.1l5.2-16.3h7.3v23.7h-4.9v-16.8h-.1l-5.8 16.8h-4l-5.8-16.6v16.6h-4.9v-23.7h7.4zM139.1 317.1c.7.7 1.7 1 3 1 1 0 1.8-.2 2.5-.7.7-.5 1.1-1 1.3-1.5h4.1c-.7 2.1-1.7 3.5-3 4.4-1.4.9-3 1.3-5 1.3-1.3 0-2.6-.2-3.6-.6-1.1-.4-2-1-2.8-1.8-.8-.8-1.3-1.7-1.7-2.9-.4-1.1-.6-2.3-.6-3.6 0-1.3.2-2.5.6-3.6.4-1.1 1-2.1 1.8-2.9.8-.8 1.7-1.4 2.8-1.9 1.1-.5 2.3-.7 3.6-.7 1.5 0 2.7.3 3.8.8 1.1.6 2 1.3 2.7 2.3.7 1 1.2 2 1.5 3.2.3 1.2.4 2.5.3 3.8H138c0 1.6.4 2.7 1.1 3.4zm5.3-9.1c-.6-.6-1.4-.9-2.6-.9-.8 0-1.4.1-1.9.4-.5.3-.9.6-1.2.9-.3.4-.5.8-.6 1.2-.1.4-.2.8-.2 1.1h7.7c-.2-1.1-.6-2-1.2-2.7zM157.1 304v2.3h.1c.6-.9 1.4-1.6 2.2-2.1s1.9-.7 3-.7 2.1.2 3 .6c.9.4 1.6 1.2 2 2.2.5-.8 1.2-1.4 2.1-2 .9-.6 1.9-.9 3.1-.9.9 0 1.7.1 2.5.3.8.2 1.4.6 2 1.1s1 1.1 1.3 1.9.5 1.7.5 2.8V321h-4.7v-9.7c0-.6 0-1.1-.1-1.6 0-.5-.2-1-.4-1.3-.2-.4-.5-.7-.9-.9-.4-.2-.9-.3-1.6-.3-.7 0-1.2.1-1.6.4-.4.3-.7.6-1 1-.2.4-.4.9-.5 1.4s-.1 1-.1 1.6v9.5h-4.7v-9.6-1.5c0-.5-.1-1-.3-1.4-.2-.4-.4-.8-.8-1-.4-.3-1-.4-1.7-.4-.2 0-.5 0-.9.1s-.7.3-1.1.6c-.3.3-.6.7-.9 1.2-.2.5-.4 1.2-.4 2v9.9h-4.7v-17h4.6zM186.6 297.5v8.6h.1c.6-.9 1.4-1.5 2.3-1.9s2-.6 3.1-.6c.9 0 1.7.2 2.6.5s1.6.9 2.3 1.6c.7.7 1.2 1.7 1.6 2.8.4 1.1.6 2.5.6 4.1s-.2 2.9-.6 4.1c-.4 1.1-1 2.1-1.6 2.8s-1.4 1.3-2.3 1.6-1.7.5-2.6.5c-1.3 0-2.4-.2-3.4-.6-1-.4-1.7-1.1-2.3-2h-.1v2.2h-4.5v-23.7h4.8zm7.6 13c-.2-.7-.4-1.2-.7-1.8-.3-.5-.7-.9-1.2-1.2-.5-.3-1.1-.4-1.8-.4s-1.3.1-1.8.4c-.5.3-.9.7-1.3 1.2-.3.5-.6 1.1-.7 1.8-.2.7-.2 1.4-.2 2.1 0 .7.1 1.4.2 2.1.2.7.4 1.2.7 1.8.3.5.8.9 1.3 1.2.5.3 1.1.4 1.8.4s1.3-.1 1.8-.4c.5-.3.9-.7 1.2-1.2.3-.5.6-1.1.7-1.8.2-.7.2-1.3.2-2.1 0-.7 0-1.4-.2-2.1zM206.5 317.1c.7.7 1.7 1 3 1 1 0 1.8-.2 2.5-.7.7-.5 1.1-1 1.3-1.5h4.1c-.7 2.1-1.7 3.5-3 4.4-1.4.9-3 1.3-5 1.3-1.3 0-2.6-.2-3.6-.6-1.1-.4-2-1-2.8-1.8-.8-.8-1.3-1.7-1.7-2.9-.4-1.1-.6-2.3-.6-3.6 0-1.3.2-2.5.6-3.6.4-1.1 1-2.1 1.8-2.9.8-.8 1.7-1.4 2.8-1.9s2.3-.7 3.6-.7c1.5 0 2.7.3 3.8.8 1.1.6 2 1.3 2.7 2.3s1.2 2 1.5 3.2.4 2.5.3 3.8h-12.4c0 1.6.4 2.7 1.1 3.4zm5.3-9.1c-.6-.6-1.4-.9-2.6-.9-.8 0-1.4.1-1.9.4s-.9.6-1.2.9c-.3.4-.5.8-.6 1.2-.1.4-.2.8-.2 1.1h7.7c-.2-1.1-.6-2-1.2-2.7zM224.3 304v3.2h.1c.2-.5.5-1 .9-1.5s.8-.8 1.3-1.2c.5-.3 1-.6 1.6-.7.6-.2 1.1-.3 1.7-.3.3 0 .7.1 1 .2v4.4c-.2 0-.5-.1-.8-.1h-.9c-.9 0-1.6.1-2.2.4-.6.3-1.1.7-1.4 1.2-.4.5-.6 1.1-.8 1.7s-.2 1.4-.2 2.2v7.7h-4.7V304h4.4zM236.1 316.9c.2.4.5.7.8.9.3.2.7.4 1.1.5.4.1.9.2 1.3.2.3 0 .7 0 1-.1.4-.1.7-.2 1-.4.3-.2.5-.4.7-.7.2-.3.3-.6.3-1 0-.7-.5-1.2-1.4-1.6-.9-.4-2.2-.7-3.9-1.1-.7-.2-1.4-.3-2-.5-.7-.2-1.2-.5-1.7-.8s-.9-.8-1.2-1.3c-.3-.5-.5-1.2-.5-1.9 0-1.1.2-2 .6-2.7.4-.7 1-1.3 1.7-1.7.7-.4 1.5-.7 2.4-.9.9-.2 1.8-.2 2.7-.2s1.8.1 2.7.3c.9.2 1.7.5 2.3.9.7.4 1.3 1 1.7 1.7.5.7.7 1.6.8 2.6H242c-.1-.9-.4-1.5-1-1.8-.6-.3-1.3-.5-2.2-.5h-.9c-.3 0-.6.1-.8.2-.3.1-.5.3-.6.5s-.3.5-.3.8c0 .4.2.8.5 1 .3.3.7.5 1.2.6.5.2 1.1.3 1.7.4.6.1 1.3.3 2 .4.7.2 1.4.3 2 .6.7.2 1.2.5 1.7.9s.9.8 1.2 1.4c.3.5.5 1.2.5 2 0 1.1-.2 2.1-.7 2.8s-1 1.4-1.8 1.8c-.7.5-1.6.8-2.5 1s-1.9.3-2.9.3-2-.1-2.9-.3c-1-.2-1.8-.5-2.5-1s-1.3-1.1-1.8-1.8-.7-1.7-.8-2.9h4.5c.2.6.3 1 .5 1.4z"/></g></svg>