<svg id="Layer_1" xmlns="http://www.w3.org/2000/svg" viewBox="0 0 300 600"><style>.st0{fill:#349946}</style><path class="st0" d="M26.8 248.6c.1-2 .6-3.6 1.5-4.9.9-1.3 2-2.3 3.3-3.1 1.3-.8 2.8-1.3 4.5-1.7 1.7-.3 3.4-.5 5-.5 1.5 0 3.1.1 4.7.3 1.6.2 3 .6 4.3 1.3 1.3.6 2.4 1.5 3.2 2.6.8 1.1 1.2 2.6 1.2 4.5V263c0 1.4.1 2.7.2 4 .2 1.3.4 2.2.8 2.8H47c-.2-.5-.3-1-.4-1.4-.1-.5-.2-1-.2-1.5-1.3 1.4-2.9 2.3-4.7 2.9-1.8.6-3.7.8-5.5.8-1.5 0-2.8-.2-4.1-.5-1.3-.4-2.4-.9-3.3-1.7-.9-.7-1.7-1.7-2.2-2.8-.5-1.1-.8-2.5-.8-4.1 0-1.7.3-3.2.9-4.3.6-1.1 1.4-2 2.4-2.7 1-.7 2.1-1.2 3.3-1.5 1.2-.3 2.5-.6 3.7-.8 1.3-.2 2.5-.4 3.7-.5 1.2-.1 2.3-.3 3.2-.5.9-.2 1.7-.6 2.2-1 .6-.5.8-1.1.8-2 0-.9-.1-1.6-.4-2.2-.3-.5-.7-.9-1.2-1.2-.5-.3-1.1-.5-1.7-.6-.6-.1-1.3-.1-2.1-.1-1.7 0-2.9.4-3.9 1.1s-1.5 1.9-1.7 3.5h-8.2zm19.4 6.2c-.4.3-.8.6-1.3.7-.5.2-1.1.3-1.7.4-.6.1-1.2.2-1.9.3-.7.1-1.3.2-2 .3-.6.1-1.2.3-1.9.5-.6.2-1.1.5-1.6.8-.5.3-.8.8-1.1 1.3-.3.5-.4 1.2-.4 1.9s.1 1.4.4 1.9c.3.5.6.9 1.1 1.2.5.3 1 .5 1.7.6.6.1 1.3.2 1.9.2 1.7 0 2.9-.3 3.8-.8.9-.6 1.6-1.2 2-2 .4-.8.7-1.5.8-2.3.1-.8.1-1.4.1-1.9v-3.1zM69 239.2v4.2h.2c1.1-1.8 2.4-3.1 4.1-3.9 1.7-.8 3.4-1.2 5.2-1.2 2.2 0 4.1.3 5.5.9 1.4.6 2.6 1.5 3.4 2.5.8 1.1 1.4 2.4 1.7 4 .3 1.6.5 3.3.5 5.2v18.8h-8.4v-17.2c0-2.5-.4-4.4-1.2-5.6-.8-1.2-2.2-1.9-4.2-1.9-2.3 0-3.9.7-5 2-1 1.4-1.5 3.6-1.5 6.7v16h-8.4v-30.5H69zM117.7 265.8c-1 1.7-2.3 2.8-3.9 3.6-1.6.7-3.4 1.1-5.4 1.1-2.3 0-4.3-.4-6-1.3-1.7-.9-3.2-2.1-4.3-3.6-1.1-1.5-2-3.3-2.5-5.2-.6-2-.9-4-.9-6.1 0-2 .3-4 .9-5.9.6-1.9 1.4-3.6 2.5-5 1.1-1.5 2.5-2.6 4.2-3.5 1.7-.9 3.7-1.3 5.9-1.3 1.8 0 3.5.4 5.2 1.2 1.6.8 2.9 1.9 3.9 3.4h.1v-15.3h8.4V270h-8v-3.9h-.1zm-.4-15c-.2-1.2-.6-2.2-1.2-3.1-.6-.9-1.3-1.6-2.2-2.2-.9-.5-2-.8-3.4-.8s-2.5.3-3.5.8c-.9.6-1.7 1.3-2.3 2.2-.6.9-1 1.9-1.2 3.1-.3 1.2-.4 2.4-.4 3.6 0 1.2.1 2.4.4 3.5.3 1.2.7 2.2 1.3 3.2.6.9 1.4 1.7 2.3 2.2.9.6 2 .9 3.3.9 1.4 0 2.5-.3 3.5-.8.9-.6 1.7-1.3 2.2-2.2.6-.9.9-2 1.2-3.2.2-1.2.4-2.4.4-3.7 0-1.2-.1-2.4-.4-3.5zM163 244.7c-1.3 0-2.5.3-3.4.9-.9.6-1.6 1.4-2.2 2.4-.6 1-1 2-1.2 3.2-.2 1.2-.4 2.3-.4 3.5 0 1.1.1 2.2.4 3.4.2 1.1.6 2.2 1.1 3.1.5.9 1.2 1.7 2.2 2.3.9.6 2 .9 3.3.9 2 0 3.5-.6 4.6-1.7 1.1-1.1 1.8-2.6 2-4.5h8.1c-.6 4.1-2.1 7.1-4.7 9.3-2.6 2.1-5.9 3.2-10 3.2-2.3 0-4.4-.4-6.3-1.1-1.9-.8-3.5-1.8-4.9-3.2-1.3-1.4-2.4-3-3.1-4.9-.7-1.9-1.1-4-1.1-6.3 0-2.4.3-4.6 1-6.6s1.7-3.8 3-5.2c1.3-1.5 3-2.6 4.9-3.5s4.1-1.2 6.6-1.2c1.8 0 3.5.2 5.2.7 1.7.5 3.2 1.2 4.5 2.2 1.3 1 2.4 2.2 3.2 3.6.8 1.4 1.3 3.1 1.4 5.1H169c-.3-3.8-2.4-5.6-6-5.6zM182 248.6c.1-2 .6-3.6 1.5-4.9.9-1.3 2-2.3 3.3-3.1 1.3-.8 2.8-1.3 4.5-1.7 1.7-.3 3.4-.5 5-.5 1.5 0 3.1.1 4.7.3 1.6.2 3 .6 4.3 1.3 1.3.6 2.4 1.5 3.2 2.6.8 1.1 1.2 2.6 1.2 4.5V263c0 1.4.1 2.7.2 4 .2 1.3.4 2.2.8 2.8h-8.5c-.2-.5-.3-1-.4-1.4-.1-.5-.2-1-.2-1.5-1.3 1.4-2.9 2.3-4.7 2.9-1.8.6-3.7.8-5.5.8-1.5 0-2.8-.2-4.1-.5-1.3-.4-2.4-.9-3.3-1.7-.9-.7-1.7-1.7-2.2-2.8-.5-1.1-.8-2.5-.8-4.1 0-1.7.3-3.2.9-4.3.6-1.1 1.4-2 2.4-2.7 1-.7 2.1-1.2 3.3-1.5 1.2-.3 2.5-.6 3.7-.8 1.3-.2 2.5-.4 3.7-.5 1.2-.1 2.3-.3 3.2-.5.9-.2 1.7-.6 2.2-1 .6-.5.8-1.1.8-2 0-.9-.1-1.6-.4-2.2-.3-.5-.7-.9-1.2-1.2-.5-.3-1.1-.5-1.7-.6-.6-.1-1.3-.1-2.1-.1-1.7 0-2.9.4-3.9 1.1-.9.7-1.5 1.9-1.7 3.5H182zm19.3 6.2c-.4.3-.8.6-1.3.7-.5.2-1.1.3-1.7.4-.6.1-1.2.2-1.9.3-.7.1-1.3.2-2 .3-.6.1-1.2.3-1.9.5-.6.2-1.1.5-1.6.8-.5.3-.8.8-1.1 1.3-.3.5-.4 1.2-.4 1.9s.1 1.4.4 1.9c.3.5.6.9 1.1 1.2s1 .5 1.7.6c.6.1 1.3.2 1.9.2 1.7 0 2.9-.3 3.8-.8.9-.6 1.6-1.2 2-2s.7-1.5.8-2.3c.1-.8.1-1.4.1-1.9v-3.1zM224.1 239.2v5.7h.1c.4-.9.9-1.8 1.6-2.6.7-.8 1.4-1.5 2.3-2.1.9-.6 1.8-1 2.8-1.3 1-.3 2-.5 3.1-.5.5 0 1.2.1 1.8.3v7.8c-.4-.1-.9-.1-1.4-.2-.6-.1-1.1-.1-1.6-.1-1.5 0-2.8.3-3.9.8s-1.9 1.2-2.6 2.1c-.6.9-1.1 1.9-1.4 3.1s-.4 2.5-.4 3.8v13.7h-8.4v-30.5h8zM247.1 239.2v5.7h.1c.4-.9.9-1.8 1.6-2.6.7-.8 1.4-1.5 2.3-2.1.9-.6 1.8-1 2.8-1.3 1-.3 2-.5 3.1-.5.5 0 1.2.1 1.8.3v7.8c-.4-.1-.9-.1-1.4-.2-.6-.1-1.1-.1-1.6-.1-1.5 0-2.8.3-3.9.8s-1.9 1.2-2.6 2.1c-.6.9-1.1 1.9-1.4 3.1s-.4 2.5-.4 3.8v13.7h-8.4v-30.5h8z"/><path class="st0" d="M273.3 278.8c-1.6 1.1-3.9 1.6-6.7 1.6-.9 0-1.7 0-2.6-.1-.8-.1-1.7-.1-2.6-.2v-6.9c.8.1 1.6.2 2.4.2.8.1 1.7.1 2.5.1 1.1-.1 1.9-.6 2.4-1.3.5-.7.8-1.6.8-2.5 0-.7-.1-1.3-.4-1.9l-10.7-28.6h8.9l6.9 20.9h.1l6.7-20.9h8.7L277 273.5c-.8 2.5-2.1 4.3-3.7 5.3z"/><g><path class="st0" d="M57.7 284.7v7.8H37.3v9.7H55v7.2H37.3v17.4H28v-42.1h29.7zM72.3 284.7V319h20.5v7.8H63.1v-42.1h9.2zM97.6 297.2c.9-2.7 2.3-5 4.1-7 1.8-2 3.9-3.6 6.5-4.7s5.5-1.7 8.7-1.7c3.3 0 6.2.6 8.7 1.7 2.6 1.1 4.7 2.7 6.5 4.7 1.8 2 3.1 4.4 4.1 7 .9 2.7 1.4 5.6 1.4 8.8 0 3.1-.5 5.9-1.4 8.6s-2.3 5-4.1 6.9-3.9 3.5-6.5 4.6c-2.6 1.1-5.5 1.7-8.7 1.7-3.2 0-6.1-.6-8.7-1.7-2.6-1.1-4.7-2.7-6.5-4.6s-3.1-4.3-4.1-6.9-1.4-5.5-1.4-8.6c0-3.2.5-6.1 1.4-8.8zm8.5 13.9c.4 1.7 1.1 3.2 2 4.5.9 1.3 2.1 2.4 3.5 3.2 1.5.8 3.2 1.2 5.3 1.2 2.1 0 3.9-.4 5.3-1.2 1.5-.8 2.6-1.9 3.5-3.2.9-1.3 1.6-2.8 2-4.5.4-1.7.6-3.4.6-5.2 0-1.8-.2-3.6-.6-5.4-.4-1.7-1.1-3.3-2-4.6-.9-1.4-2.1-2.4-3.5-3.2-1.5-.8-3.2-1.2-5.3-1.2-2.1 0-3.9.4-5.3 1.2-1.5.8-2.6 1.9-3.5 3.2-.9 1.4-1.6 2.9-2 4.6-.4 1.7-.6 3.5-.6 5.4 0 1.8.2 3.6.6 5.2zM151 316.5c.5 1 1.2 1.8 2 2.4.8.6 1.8 1.1 3 1.4 1.1.3 2.3.4 3.5.4.8 0 1.7-.1 2.7-.2.9-.1 1.8-.4 2.7-.8.8-.4 1.5-.9 2.1-1.6.5-.7.8-1.6.8-2.6 0-1.1-.4-2.1-1.1-2.8-.7-.7-1.7-1.3-2.9-1.8s-2.5-.9-4-1.2-3-.7-4.5-1.2c-1.6-.4-3.1-.9-4.6-1.4-1.5-.6-2.8-1.3-4-2.2-1.2-.9-2.1-2-2.9-3.4-.7-1.4-1.1-3-1.1-4.9 0-2.2.5-4 1.4-5.6.9-1.6 2.1-2.9 3.6-4s3.2-1.8 5.1-2.4c1.9-.5 3.8-.8 5.7-.8 2.2 0 4.3.2 6.3.7 2 .5 3.8 1.3 5.4 2.4 1.6 1.1 2.8 2.5 3.7 4.2s1.4 3.8 1.4 6.2h-9c-.1-1.3-.3-2.3-.8-3.1-.5-.8-1.1-1.5-1.8-1.9-.7-.5-1.6-.8-2.6-1-1-.2-2-.3-3.2-.3-.7 0-1.5.1-2.2.2-.7.2-1.4.4-2 .8-.6.4-1.1.9-1.5 1.5-.4.6-.6 1.3-.6 2.2 0 .8.2 1.5.5 2s.9 1 1.9 1.4c.9.4 2.2.9 3.8 1.3 1.6.4 3.8 1 6.4 1.7.8.2 1.9.4 3.3.9 1.4.4 2.8 1.1 4.2 2 1.4.9 2.6 2.1 3.6 3.6s1.5 3.5 1.5 5.8c0 1.9-.4 3.7-1.1 5.4-.7 1.7-1.9 3.1-3.3 4.3s-3.3 2.1-5.5 2.8c-2.2.7-4.7 1-7.6 1-2.3 0-4.6-.3-6.8-.9-2.2-.6-4.1-1.5-5.8-2.7-1.7-1.2-3-2.8-4-4.7-1-1.9-1.5-4.1-1.4-6.7h9c-.1 1.4.2 2.6.7 3.6zM189.3 316.5c.5 1 1.2 1.8 2 2.4.8.6 1.8 1.1 3 1.4 1.1.3 2.3.4 3.5.4.8 0 1.7-.1 2.7-.2.9-.1 1.8-.4 2.7-.8.8-.4 1.5-.9 2.1-1.6.5-.7.8-1.6.8-2.6 0-1.1-.4-2.1-1.1-2.8-.7-.7-1.7-1.3-2.9-1.8s-2.5-.9-4-1.2-3-.7-4.5-1.2c-1.6-.4-3.1-.9-4.6-1.4-1.5-.6-2.8-1.3-4-2.2-1.2-.9-2.1-2-2.9-3.4-.7-1.4-1.1-3-1.1-4.9 0-2.2.5-4 1.4-5.6.9-1.6 2.1-2.9 3.6-4s3.2-1.8 5.1-2.4c1.9-.5 3.8-.8 5.7-.8 2.2 0 4.3.2 6.3.7 2 .5 3.8 1.3 5.4 2.4 1.6 1.1 2.8 2.5 3.7 4.2s1.4 3.8 1.4 6.2h-9c-.1-1.3-.3-2.3-.8-3.1-.5-.8-1.1-1.5-1.8-1.9-.7-.5-1.6-.8-2.6-1-1-.2-2-.3-3.2-.3-.7 0-1.5.1-2.2.2-.7.2-1.4.4-2 .8-.6.4-1.1.9-1.5 1.5-.4.6-.6 1.3-.6 2.2 0 .8.2 1.5.5 2s.9 1 1.9 1.4c.9.4 2.2.9 3.8 1.3 1.6.4 3.8 1 6.4 1.7.8.2 1.9.4 3.3.9 1.4.4 2.8 1.1 4.2 2 1.4.9 2.6 2.1 3.6 3.6s1.5 3.5 1.5 5.8c0 1.9-.4 3.7-1.1 5.4-.7 1.7-1.9 3.1-3.3 4.3s-3.3 2.1-5.5 2.8c-2.2.7-4.7 1-7.6 1-2.3 0-4.6-.3-6.8-.9-2.2-.6-4.1-1.5-5.8-2.7-1.7-1.2-3-2.8-4-4.7-1-1.9-1.5-4.1-1.4-6.7h9c-.1 1.4.2 2.6.7 3.6z"/></g></svg>