<svg id="Layer_1" xmlns="http://www.w3.org/2000/svg" viewBox="0 0 300 600"><style>.st0{fill:#349946}</style><path class="st0" d="M63.3 113c2.1 0 4 .3 5.5.9 1.5.6 2.7 1.4 3.7 2.5.9 1 1.6 2.2 2.1 3.5.4 1.3.6 2.7.6 4.1 0 1.4-.2 2.7-.6 4.1-.4 1.3-1.1 2.5-2.1 3.5-.9 1-2.2 1.8-3.7 2.5-1.5.6-3.3.9-5.5.9h-7.9v12.3h-7.5V113h15.4zm-2 16.1c.9 0 1.7-.1 2.5-.2s1.5-.4 2.1-.7c.6-.4 1.1-.9 1.5-1.6.4-.7.6-1.6.6-2.6s-.2-2-.6-2.6c-.4-.7-.9-1.2-1.5-1.6-.6-.4-1.3-.6-2.1-.7-.8-.1-1.6-.2-2.5-.2h-5.9v10.3h5.9zM85.7 122.4v4.6h.1c.3-.8.8-1.5 1.3-2.1.5-.7 1.2-1.2 1.9-1.7s1.5-.8 2.3-1.1c.8-.3 1.6-.4 2.5-.4.4 0 .9.1 1.5.2v6.3c-.3-.1-.7-.1-1.2-.2-.4 0-.9-.1-1.3-.1-1.2 0-2.3.2-3.2.6-.9.4-1.6 1-2.1 1.7s-.9 1.6-1.1 2.5c-.2 1-.3 2-.3 3.1V147h-6.8v-24.8h6.4zM97.6 130c.1-1.6.5-2.9 1.2-4s1.6-1.9 2.7-2.5c1.1-.6 2.3-1.1 3.7-1.4 1.4-.3 2.7-.4 4.1-.4 1.2 0 2.5.1 3.8.3 1.3.2 2.4.5 3.5 1s1.9 1.2 2.6 2.1c.7.9 1 2.1 1 3.6v12.9c0 1.1.1 2.2.2 3.2s.4 1.8.7 2.3h-6.9l-.3-1.2c-.1-.4-.1-.8-.2-1.2-1.1 1.1-2.4 1.9-3.8 2.4-1.5.4-3 .7-4.5.7-1.2 0-2.3-.1-3.3-.4-1-.3-1.9-.7-2.7-1.3-.8-.6-1.4-1.4-1.8-2.3-.4-.9-.6-2-.6-3.3 0-1.4.2-2.6.7-3.5s1.1-1.6 1.9-2.2c.8-.5 1.7-1 2.7-1.2 1-.3 2-.5 3-.6 1-.2 2-.3 3-.4 1-.1 1.9-.2 2.6-.4s1.4-.5 1.8-.8c.4-.4.7-.9.6-1.6 0-.7-.1-1.3-.4-1.8-.2-.4-.6-.8-1-1-.4-.2-.9-.4-1.4-.5-.5-.1-1.1-.1-1.7-.1-1.3 0-2.4.3-3.2.9s-1.2 1.5-1.3 2.9h-6.7zm15.7 5.1c-.3.3-.6.5-1.1.6-.4.1-.9.3-1.4.4-.5.1-1 .2-1.6.2-.5.1-1.1.1-1.6.2s-1 .2-1.5.4-.9.4-1.3.6c-.4.3-.7.6-.9 1-.2.4-.3.9-.3 1.6 0 .6.1 1.1.3 1.5.2.4.5.7.9 1 .4.2.8.4 1.3.5.5.1 1 .1 1.6.1 1.3 0 2.4-.2 3.1-.7.7-.4 1.3-1 1.6-1.6s.6-1.3.6-1.9c.1-.6.1-1.2.1-1.5v-2.4zM137.3 126.9c-1.1 0-2 .2-2.7.7-.7.5-1.3 1.1-1.8 1.9-.5.8-.8 1.6-1 2.6-.2.9-.3 1.9-.3 2.8 0 .9.1 1.8.3 2.7.2.9.5 1.8.9 2.5.4.8 1 1.4 1.8 1.8.7.5 1.6.7 2.7.7 1.6 0 2.9-.5 3.8-1.4.9-.9 1.4-2.1 1.7-3.7h6.6c-.4 3.3-1.7 5.8-3.8 7.5-2.1 1.7-4.8 2.6-8.1 2.6-1.9 0-3.6-.3-5.1-.9-1.6-.6-2.9-1.5-4-2.6s-1.9-2.5-2.5-4c-.6-1.6-.9-3.3-.9-5.1 0-1.9.3-3.7.8-5.4.6-1.6 1.4-3.1 2.5-4.3 1.1-1.2 2.4-2.1 4-2.8 1.6-.7 3.4-1 5.4-1 1.5 0 2.9.2 4.2.6 1.4.4 2.6 1 3.6 1.8 1.1.8 1.9 1.8 2.6 2.9.7 1.2 1.1 2.6 1.2 4.2h-6.7c-.6-2.7-2.3-4.1-5.2-4.1zM166.6 122.4v4.6h-5v12.3c0 1.2.2 1.9.6 2.3.4.4 1.2.6 2.3.6h1.1c.4 0 .7-.1 1-.1v5.3c-.6.1-1.2.2-1.9.2h-2.1c-1.1 0-2.1-.1-3-.2-.9-.1-1.8-.4-2.5-.8s-1.3-1-1.7-1.8c-.4-.8-.6-1.8-.6-3V127h-4.1v-4.6h4.1V115h6.8v7.4h5zM170 118.6V113h6.8v5.6H170zm6.9 3.8v24.8H170v-24.8h6.9zM194.1 126.9c-1.1 0-2 .2-2.7.7-.7.5-1.3 1.1-1.8 1.9-.5.8-.8 1.6-1 2.6-.2.9-.3 1.9-.3 2.8 0 .9.1 1.8.3 2.7.2.9.5 1.8.9 2.5.4.8 1 1.4 1.8 1.8.7.5 1.6.7 2.7.7 1.6 0 2.9-.5 3.8-1.4.9-.9 1.4-2.1 1.7-3.7h6.6c-.4 3.3-1.7 5.8-3.8 7.5-2.1 1.7-4.8 2.6-8.1 2.6-1.9 0-3.6-.3-5.1-.9-1.6-.6-2.9-1.5-4-2.6s-1.9-2.5-2.5-4c-.6-1.6-.9-3.3-.9-5.1 0-1.9.3-3.7.8-5.4.6-1.6 1.4-3.1 2.5-4.3 1.1-1.2 2.4-2.1 4-2.8 1.6-.7 3.4-1 5.4-1 1.5 0 2.9.2 4.2.6 1.4.4 2.6 1 3.6 1.8 1.1.8 1.9 1.8 2.6 2.9.7 1.2 1.1 2.6 1.2 4.2h-6.7c-.6-2.7-2.3-4.1-5.2-4.1zM209.5 130c.1-1.6.5-2.9 1.2-4s1.6-1.9 2.7-2.5c1.1-.6 2.3-1.1 3.7-1.4 1.4-.3 2.7-.4 4.1-.4 1.2 0 2.5.1 3.8.3 1.3.2 2.4.5 3.5 1s1.9 1.2 2.6 2.1c.7.9 1 2.1 1 3.6v12.9c0 1.1.1 2.2.2 3.2s.4 1.8.7 2.3h-7l-.3-1.2c-.1-.4-.1-.8-.2-1.2-1.1 1.1-2.4 1.9-3.8 2.4-1.5.4-3 .7-4.5.7-1.2 0-2.3-.1-3.3-.4-1-.3-1.9-.7-2.7-1.3-.8-.6-1.4-1.4-1.8-2.3-.4-.9-.6-2-.6-3.3 0-1.4.2-2.6.7-3.5.5-.9 1.1-1.6 1.9-2.2.8-.5 1.7-1 2.7-1.2 1-.3 2-.5 3-.6 1-.2 2-.3 3-.4 1-.1 1.9-.2 2.6-.4.8-.2 1.4-.5 1.8-.8.4-.4.7-.9.6-1.6 0-.7-.1-1.3-.4-1.8-.2-.4-.6-.8-1-1-.4-.2-.9-.4-1.4-.5-.5-.1-1.1-.1-1.7-.1-1.3 0-2.4.3-3.2.9-.8.6-1.2 1.5-1.3 2.9h-6.6zm15.7 5.1c-.3.3-.6.5-1.1.6-.4.1-.9.3-1.4.4-.5.1-1 .2-1.6.2-.5.1-1.1.1-1.6.2s-1 .2-1.5.4-.9.4-1.3.6c-.4.3-.7.6-.9 1-.2.4-.3.9-.3 1.6 0 .6.1 1.1.3 1.5.2.4.5.7.9 1 .4.2.8.4 1.3.5.5.1 1 .1 1.6.1 1.3 0 2.4-.2 3.1-.7.7-.4 1.3-1 1.6-1.6.4-.6.6-1.3.6-1.9.1-.6.1-1.2.1-1.5v-2.4zM244.4 113v34.3h-6.8V113h6.8z"/><g><path class="st0" d="M81.5 195.2l-5.8-23.3h-.1l-5.7 23.3h-7.6L53.2 161h7.5l5.4 23.3h.1l6-23.3h7.1l5.9 23.6h.1l5.6-23.6h7.4L89 195.2h-7.5zM101.1 166.6V161h6.8v5.6h-6.8zm6.8 3.8v24.8h-6.8v-24.8h6.8zM119 189.1c.3.5.7 1 1.2 1.3s1 .6 1.7.7c.6.2 1.3.2 1.9.2.5 0 1-.1 1.5-.2s1-.3 1.4-.5c.4-.2.8-.6 1.1-1 .3-.4.4-.9.4-1.5 0-1-.7-1.8-2-2.3-1.4-.5-3.3-1-5.7-1.5-1-.2-2-.5-2.9-.8-.9-.3-1.8-.7-2.5-1.2s-1.3-1.1-1.8-1.9c-.4-.8-.7-1.7-.7-2.8 0-1.6.3-2.9.9-3.9.6-1 1.4-1.8 2.5-2.4 1-.6 2.2-1 3.5-1.2 1.3-.2 2.6-.4 3.9-.4 1.3 0 2.6.1 3.9.4 1.3.3 2.4.7 3.4 1.3 1 .6 1.8 1.4 2.5 2.4s1 2.3 1.2 3.8H128c-.1-1.3-.6-2.2-1.5-2.7s-2-.7-3.2-.7c-.4 0-.8 0-1.2.1-.4 0-.9.2-1.2.3-.4.2-.7.4-.9.7-.3.3-.4.7-.4 1.2 0 .6.2 1.1.7 1.5.4.4 1 .7 1.8.9.7.2 1.5.5 2.5.6.9.2 1.9.4 2.8.6 1 .2 2 .5 2.9.8.9.3 1.8.7 2.5 1.3.7.5 1.3 1.2 1.8 2 .4.8.7 1.8.7 2.9 0 1.6-.3 3-1 4.1-.7 1.1-1.5 2-2.6 2.7-1.1.7-2.3 1.1-3.6 1.4-1.4.3-2.7.4-4.2.4-1.4 0-2.8-.1-4.2-.4-1.4-.3-2.6-.8-3.7-1.4-1.1-.7-2-1.6-2.6-2.7-.7-1.1-1.1-2.5-1.1-4.2h6.5c-.2.9-.1 1.5.2 2.1zM156.7 192.1c-.8 1.3-1.8 2.3-3.1 2.9-1.3.6-2.8.9-4.4.9-1.9 0-3.5-.4-4.9-1.1-1.4-.7-2.6-1.7-3.5-2.9s-1.6-2.6-2.1-4.2-.7-3.3-.7-5c0-1.7.2-3.3.7-4.8.5-1.6 1.2-2.9 2.1-4.1.9-1.2 2.1-2.1 3.4-2.9 1.4-.7 3-1.1 4.8-1.1 1.5 0 2.9.3 4.2.9 1.3.6 2.4 1.5 3.1 2.8h.1V161h6.8v34.3h-6.5v-3.2zm-.3-12.3c-.2-.9-.5-1.8-1-2.5s-1.1-1.3-1.8-1.8c-.7-.4-1.7-.7-2.8-.7-1.1 0-2.1.2-2.8.7-.8.4-1.4 1-1.8 1.8-.5.7-.8 1.6-1 2.5-.2.9-.3 1.9-.3 3 0 1 .1 1.9.3 2.9.2 1 .6 1.8 1.1 2.6.5.8 1.1 1.4 1.9 1.8.8.5 1.7.7 2.7.7 1.1 0 2.1-.2 2.8-.7.8-.4 1.4-1 1.8-1.8.4-.8.8-1.6 1-2.6s.3-2 .3-3c-.1-1-.2-2-.4-2.9zM168.6 177.4c.6-1.6 1.5-3 2.6-4.1 1.1-1.1 2.5-2 4-2.6 1.6-.6 3.3-.9 5.3-.9s3.7.3 5.3.9c1.6.6 2.9 1.5 4.1 2.6 1.1 1.1 2 2.5 2.6 4.1.6 1.6.9 3.4.9 5.4 0 2-.3 3.8-.9 5.4-.6 1.6-1.5 3-2.6 4.1-1.1 1.1-2.5 2-4.1 2.6s-3.4.9-5.3.9-3.7-.3-5.3-.9c-1.6-.6-2.9-1.5-4-2.6s-2-2.5-2.6-4.1c-.6-1.6-.9-3.4-.9-5.4-.1-1.9.3-3.7.9-5.4zm6.2 8.3c.2.9.5 1.8 1 2.5.5.8 1.1 1.4 1.8 1.8.8.4 1.7.7 2.9.7s2.1-.2 2.9-.7c.8-.4 1.4-1 1.9-1.8s.8-1.6 1-2.5c.2-.9.3-1.9.3-2.9s-.1-2-.3-2.9c-.2-1-.5-1.8-1-2.5s-1.1-1.3-1.9-1.8-1.8-.7-2.9-.7c-1.2 0-2.1.2-2.9.7-.8.5-1.4 1.1-1.8 1.8-.5.7-.8 1.6-1 2.5-.2 1-.3 1.9-.3 2.9s.1 2 .3 2.9zM204.4 170.4v3.4h.1c.9-1.3 2-2.3 3.2-3 1.3-.7 2.7-1.1 4.3-1.1 1.6 0 3 .3 4.3.9 1.3.6 2.3 1.7 3 3.2.7-1.1 1.7-2 3-2.9 1.3-.8 2.8-1.2 4.5-1.2 1.3 0 2.5.2 3.6.5s2.1.8 2.9 1.5c.8.7 1.4 1.6 1.9 2.8.4 1.1.7 2.5.7 4.1v16.6H229v-14.1c0-.8 0-1.6-.1-2.4-.1-.7-.2-1.4-.5-1.9s-.7-1-1.3-1.3c-.6-.3-1.3-.5-2.3-.5s-1.7.2-2.3.6c-.6.4-1.1.8-1.4 1.4-.3.6-.6 1.3-.7 2-.1.8-.2 1.5-.2 2.3v13.8h-6.8v-13.9-2.2c0-.7-.2-1.4-.4-2-.2-.6-.6-1.1-1.2-1.5-.6-.4-1.4-.6-2.5-.6-.3 0-.7.1-1.3.2-.5.1-1 .4-1.5.8s-.9 1-1.3 1.7c-.4.8-.5 1.7-.5 3V195h-6.8v-24.8h6.5z"/></g><g><path class="st0" d="M113.8 223v-4.6h4.1v-1.9c0-2.2.7-4 2.1-5.4 1.4-1.4 3.5-2.1 6.2-2.1.6 0 1.2 0 1.8.1.6 0 1.2.1 1.8.1v5.1c-.8-.1-1.6-.1-2.5-.1-.9 0-1.6.2-2 .6-.4.4-.6 1.2-.6 2.2v1.5h4.7v4.6h-4.7v20.3h-6.8V223h-4.1zM132.6 225.4c.6-1.6 1.5-3 2.6-4.1 1.1-1.1 2.5-2 4-2.6 1.6-.6 3.3-.9 5.3-.9s3.7.3 5.3.9c1.6.6 2.9 1.5 4.1 2.6 1.1 1.1 2 2.5 2.6 4.1.6 1.6.9 3.4.9 5.4 0 2-.3 3.8-.9 5.4-.6 1.6-1.5 3-2.6 4.1-1.1 1.1-2.5 2-4.1 2.6-1.6.6-3.4.9-5.3.9s-3.7-.3-5.3-.9-2.9-1.5-4-2.6-2-2.5-2.6-4.1c-.6-1.6-.9-3.4-.9-5.4-.1-1.9.3-3.7.9-5.4zm6.2 8.3c.2.9.5 1.8 1 2.5.5.8 1.1 1.4 1.8 1.8.8.4 1.7.7 2.9.7s2.1-.2 2.9-.7c.8-.4 1.4-1 1.9-1.8s.8-1.6 1-2.5c.2-.9.3-1.9.3-2.9s-.1-2-.3-2.9c-.2-1-.5-1.8-1-2.5s-1.1-1.3-1.9-1.8-1.8-.7-2.9-.7c-1.2 0-2.1.2-2.9.7-.8.5-1.4 1.1-1.8 1.8-.5.7-.8 1.6-1 2.5-.2 1-.3 1.9-.3 2.9s.1 2 .3 2.9zM168.2 218.4v4.6h.1c.3-.8.8-1.5 1.3-2.1.5-.7 1.2-1.2 1.9-1.7s1.5-.8 2.3-1.1c.8-.3 1.6-.4 2.5-.4.4 0 .9.1 1.5.2v6.3c-.3-.1-.7-.1-1.2-.2s-.9-.1-1.3-.1c-1.2 0-2.3.2-3.2.6-.9.4-1.6 1-2.1 1.7s-.9 1.6-1.1 2.5c-.2 1-.3 2-.3 3.1V243h-6.8v-24.8h6.4z"/></g><g><path class="st0" d="M69.3 257c2.2 0 4.3.4 6.2 1.1 1.9.7 3.6 1.8 4.9 3.2 1.4 1.4 2.5 3.2 3.3 5.3.8 2.1 1.2 4.6 1.2 7.4 0 2.5-.3 4.8-1 6.9-.6 2.1-1.6 3.9-2.9 5.5-1.3 1.5-2.9 2.7-4.8 3.6-1.9.9-4.2 1.3-6.8 1.3H54.5V257h14.8zm-.5 27.9c1.1 0 2.1-.2 3.2-.5 1-.4 1.9-.9 2.7-1.8.8-.8 1.4-1.9 1.9-3.2.5-1.3.7-2.9.7-4.8 0-1.7-.2-3.3-.5-4.7s-.9-2.6-1.7-3.6c-.8-1-1.8-1.8-3-2.3s-2.8-.8-4.7-.8H62v21.6h6.8zM96.7 285.3c1 1 2.5 1.5 4.4 1.5 1.4 0 2.6-.3 3.6-1s1.6-1.4 1.8-2.2h6c-1 3-2.4 5.1-4.4 6.4-2 1.3-4.4 1.9-7.2 1.9-2 0-3.7-.3-5.3-.9-1.6-.6-2.9-1.5-4-2.7s-1.9-2.5-2.5-4.1c-.6-1.6-.9-3.4-.9-5.3s.3-3.6.9-5.2c.6-1.6 1.5-3 2.6-4.2 1.1-1.2 2.5-2.1 4-2.8 1.6-.7 3.3-1 5.2-1 2.1 0 4 .4 5.5 1.2 1.6.8 2.9 1.9 3.9 3.3s1.7 2.9 2.2 4.7c.4 1.8.6 3.6.5 5.5H95c.1 2.3.6 3.9 1.7 4.9zm7.7-13.1c-.8-.9-2.1-1.3-3.7-1.3-1.1 0-2 .2-2.7.6-.7.4-1.3.8-1.7 1.4-.4.5-.7 1.1-.9 1.7-.2.6-.3 1.2-.3 1.6h11.1c-.5-1.8-1-3.1-1.8-4zM123.4 266.4v3.5h.1c.9-1.4 2-2.5 3.4-3.1 1.4-.7 2.8-1 4.2-1 1.8 0 3.3.2 4.5.7 1.2.5 2.1 1.2 2.8 2.1.7.9 1.1 2 1.4 3.2.3 1.3.4 2.7.4 4.2v15.3h-6.8v-14c0-2-.3-3.6-1-4.6-.6-1-1.8-1.5-3.4-1.5-1.9 0-3.2.6-4 1.7s-1.2 2.9-1.2 5.4v13H117v-24.8h6.4zM159 266.4v4.6h-5v12.3c0 1.2.2 1.9.6 2.3.4.4 1.2.6 2.3.6h1.1c.4 0 .7-.1 1-.1v5.3c-.6.1-1.2.2-1.9.2H155c-1.1 0-2.1-.1-3-.2-.9-.1-1.8-.4-2.5-.8s-1.3-1-1.7-1.8c-.4-.8-.6-1.8-.6-3V271h-4.1v-4.6h4.1V259h6.8v7.4h5zM162.5 262.6V257h6.8v5.6h-6.8zm6.8 3.8v24.8h-6.8v-24.8h6.8zM180.4 285.1c.3.5.7 1 1.2 1.3.5.3 1 .6 1.7.7.6.2 1.3.2 1.9.2.5 0 1-.1 1.5-.2s1-.3 1.4-.5c.4-.2.8-.6 1.1-1 .3-.4.4-.9.4-1.5 0-1-.7-1.8-2-2.3-1.4-.5-3.3-1-5.7-1.5-1-.2-2-.5-2.9-.8-.9-.3-1.8-.7-2.5-1.2s-1.3-1.1-1.8-1.9-.7-1.7-.7-2.8c0-1.6.3-2.9.9-3.9.6-1 1.4-1.8 2.5-2.4 1-.6 2.2-1 3.5-1.2 1.3-.2 2.6-.4 3.9-.4 1.3 0 2.6.1 3.9.4 1.3.3 2.4.7 3.4 1.3 1 .6 1.8 1.4 2.5 2.4s1 2.3 1.2 3.8h-6.5c-.1-1.3-.6-2.2-1.5-2.7s-2-.7-3.2-.7c-.4 0-.8 0-1.2.1-.4 0-.9.2-1.2.3-.4.2-.7.4-.9.7-.3.3-.4.7-.4 1.2 0 .6.2 1.1.7 1.5.4.4 1 .7 1.8.9.7.2 1.5.5 2.5.6.9.2 1.9.4 2.8.6 1 .2 2 .5 2.9.8.9.3 1.8.7 2.5 1.3.7.5 1.3 1.2 1.8 2 .4.8.7 1.8.7 2.9 0 1.6-.3 3-1 4.1-.7 1.1-1.5 2-2.6 2.7-1.1.7-2.3 1.1-3.6 1.4-1.4.3-2.7.4-4.2.4-1.4 0-2.8-.1-4.2-.4-1.4-.3-2.6-.8-3.7-1.4-1.1-.7-2-1.6-2.6-2.7s-1.1-2.5-1.1-4.2h6.5c-.2.9 0 1.5.3 2.1zM214.1 266.4v4.6h-5v12.3c0 1.2.2 1.9.6 2.3.4.4 1.2.6 2.3.6h1.1c.4 0 .7-.1 1-.1v5.3c-.6.1-1.2.2-1.9.2h-2.1c-1.1 0-2.1-.1-3-.2-.9-.1-1.8-.4-2.5-.8s-1.3-1-1.7-1.8c-.4-.8-.6-1.8-.6-3V271h-4.1v-4.6h4.1V259h6.8v7.4h5zM223.1 285.1c.3.5.7 1 1.2 1.3.5.3 1 .6 1.7.7.6.2 1.3.2 1.9.2.5 0 1-.1 1.5-.2s1-.3 1.4-.5c.4-.2.8-.6 1.1-1 .3-.4.4-.9.4-1.5 0-1-.7-1.8-2-2.3-1.4-.5-3.3-1-5.7-1.5-1-.2-2-.5-2.9-.8-.9-.3-1.8-.7-2.5-1.2s-1.3-1.1-1.8-1.9-.7-1.7-.7-2.8c0-1.6.3-2.9.9-3.9.6-1 1.4-1.8 2.5-2.4 1-.6 2.2-1 3.5-1.2 1.3-.2 2.6-.4 3.9-.4 1.3 0 2.6.1 3.9.4 1.3.3 2.4.7 3.4 1.3 1 .6 1.8 1.4 2.5 2.4s1 2.3 1.2 3.8H232c-.1-1.3-.6-2.2-1.5-2.7s-2-.7-3.2-.7c-.4 0-.8 0-1.2.1-.4 0-.9.2-1.2.3-.4.2-.7.4-.9.7-.3.3-.4.7-.4 1.2 0 .6.2 1.1.7 1.5.4.4 1 .7 1.8.9.7.2 1.5.5 2.5.6.9.2 1.9.4 2.8.6 1 .2 2 .5 2.9.8.9.3 1.8.7 2.5 1.3.7.5 1.3 1.2 1.8 2 .4.8.7 1.8.7 2.9 0 1.6-.3 3-1 4.1-.7 1.1-1.5 2-2.6 2.7-1.1.7-2.3 1.1-3.6 1.4-1.4.3-2.7.4-4.2.4-1.4 0-2.8-.1-4.2-.4-1.4-.3-2.6-.8-3.7-1.4-1.1-.7-2-1.6-2.6-2.7s-1.1-2.5-1.1-4.2h6.5c-.2.9 0 1.5.3 2.1z"/></g></svg>