<svg id="Layer_1" xmlns="http://www.w3.org/2000/svg" viewBox="0 0 320 50"><style>.st0{fill:#393}.st1{fill:#231f20}</style><path class="st0" d="M21.6 8.9l3.9 10.3h-2.4l-.8-2.3h-3.9l-.8 2.3h-2.3l3.9-10.3h2.4zm.1 6.3l-1.3-3.8-1.3 3.8h2.6zM36.4 17.1c-.1.4-.2.8-.5 1.1-.2.4-.6.6-1 .9-.5.2-1.1.4-1.8.4-.4 0-.9-.1-1.3-.2s-.8-.3-1.1-.6c-.3-.3-.6-.6-.8-1-.2-.4-.3-.9-.3-1.5v-.9h2.1v.5c0 .3 0 .5.1.7 0 .2.1.4.2.5s.2.3.4.4.4.1.7.1c.3 0 .5-.1.7-.2.2-.1.3-.2.4-.4.1-.2.1-.4.1-.6V8.7h2.3V16c-.1.3-.2.7-.2 1.1zM38.4 12c.2-.7.6-1.2 1-1.7s1-.9 1.6-1.2c.6-.3 1.3-.4 2.1-.4s1.5.1 2.1.4c.6.3 1.2.7 1.6 1.2.4.5.8 1.1 1 1.7.2.7.3 1.4.3 2.2 0 .8-.1 1.5-.3 2.1s-.6 1.2-1 1.7-1 .9-1.6 1.1c-.6.3-1.3.4-2.1.4s-1.5-.1-2.1-.4-1.2-.7-1.6-1.1c-.4-.5-.8-1.1-1-1.7s-.4-1.4-.4-2.2c0-.8.1-1.5.4-2.1zm2 3.4c.1.4.3.8.5 1.1.2.3.5.6.9.8.4.2.8.3 1.3.3s.9-.1 1.3-.3c.4-.2.6-.5.9-.8.2-.3.4-.7.5-1.1s.2-.8.2-1.3-.1-.9-.2-1.3-.3-.8-.5-1.1c-.2-.3-.5-.6-.9-.8-.4-.2-.8-.3-1.3-.3s-.9.1-1.3.3c-.4.2-.6.5-.9.8-.2.3-.4.7-.5 1.1-.1.4-.2.9-.2 1.3.1.4.1.9.2 1.3zM57.3 18.4c-.8.7-1.9 1-3.2 1-1.4 0-2.5-.3-3.3-1-.8-.7-1.2-1.7-1.2-3.1V8.9H52v6.4c0 .3 0 .6.1.8 0 .3.1.5.3.7.2.2.4.4.6.5s.6.2 1.1.2c.8 0 1.4-.2 1.7-.5.3-.4.5-.9.5-1.7V8.9h2.3v6.4c-.1 1.4-.5 2.5-1.3 3.1zM66 8.9c.5 0 .9.1 1.3.2s.7.4 1 .6c.3.3.5.6.6.9.1.3.2.7.2 1.1 0 .6-.1 1.1-.4 1.6-.3.4-.7.8-1.3 1 .3.1.5.2.7.4.2.2.3.3.4.6.1.2.2.5.3.7.1.3.1.5.1.8v.6c0 .2 0 .4.1.7s.1.5.1.7c.1.2.1.4.2.5H67c-.1-.3-.2-.7-.2-1.2s-.1-.9-.1-1.3c-.1-.5-.2-.9-.5-1.2-.3-.3-.7-.4-1.2-.4h-2.3v4h-2.3V8.9H66zm-.8 4.7c.5 0 .9-.1 1.2-.3s.4-.6.4-1.1c0-.5-.1-.9-.4-1.1s-.7-.3-1.2-.3h-2.5v2.9h2.5zM73.2 8.9l4.3 6.9V8.9h2.1v10.3h-2.3L73 12.3v6.9h-2.1V8.9h2.3zM89.4 8.9v1.9h-5.5V13h5v1.8h-5v2.5h5.6v1.9h-7.9V8.9h7.8zM89.9 8.9h2.6l2.4 4.1 2.4-4.1h2.5L96 15.3v4h-2.3v-4l-3.8-6.4zM104.6 13.9c.2-.5.4-.9.8-1.2.3-.3.7-.6 1.2-.8.5-.2 1-.3 1.6-.3s1.1.1 1.6.3c.5.2.9.5 1.2.8.3.3.6.8.8 1.2s.3 1 .3 1.6-.1 1.1-.3 1.6-.4.9-.8 1.2c-.3.3-.7.6-1.2.8-.5.2-1 .3-1.6.3s-1.1-.1-1.6-.3c-.5-.2-.9-.4-1.2-.8-.3-.3-.6-.8-.8-1.2-.2-.5-.3-1-.3-1.6s.1-1.1.3-1.6zm1.9 2.5c.1.3.2.5.3.8.1.2.3.4.6.5.2.1.5.2.9.2s.6-.1.9-.2c.2-.1.4-.3.6-.5.1-.2.2-.5.3-.8.1-.3.1-.6.1-.9s0-.6-.1-.9c-.1-.3-.2-.5-.3-.8-.1-.2-.3-.4-.6-.5-.2-.1-.5-.2-.9-.2s-.6.1-.9.2-.4.3-.6.5c-.1.2-.2.5-.3.8-.1.3-.1.6-.1.9s0 .6.1.9zM112.6 13.1v-1.4h1.2v-.6c0-.7.2-1.2.6-1.6.4-.4 1-.6 1.9-.6h1.1v1.5h-.8c-.3 0-.5.1-.6.2-.1.1-.2.4-.2.7v.4h1.4v1.4h-1.4v6.1h-2.1v-6.1h-1.1zM122.2 14.1c0-.5.1-.9.4-1.2.2-.3.5-.6.8-.8.3-.2.7-.3 1.1-.4s.8-.1 1.2-.1c.4 0 .8 0 1.1.1s.7.2 1.1.3c.3.2.6.4.8.6.2.3.3.6.3 1.1v3.9c0 .3 0 .7.1 1 0 .3.1.5.2.7h-2.1c0-.1-.1-.2-.1-.4 0-.1 0-.2-.1-.4-.3.3-.7.6-1.2.7s-.9.2-1.4.2c-.4 0-.7 0-1-.1s-.6-.2-.8-.4-.4-.4-.5-.7-.2-.6-.2-1 .1-.8.2-1.1c.1-.3.3-.5.6-.7.2-.2.5-.3.8-.4.3-.1.6-.1.9-.2.3 0 .6-.1.9-.1.3 0 .6-.1.8-.1.2-.1.4-.1.6-.3s.2-.3.2-.5 0-.4-.1-.5l-.3-.3c-.1-.1-.3-.1-.4-.1h-.5c-.4 0-.7.1-1 .3s-.4.5-.4.9h-2zm4.7 1.5c-.1.1-.2.1-.3.2-.1 0-.3.1-.4.1-.1 0-.3.1-.5.1s-.3 0-.5.1c-.2 0-.3.1-.5.1s-.3.1-.4.2l-.3.3c-.1.1-.1.3-.1.5s0 .3.1.5l.3.3c.1.1.3.1.4.2h.5c.4 0 .7-.1.9-.2s.4-.3.5-.5.2-.4.2-.6v-1.3zM134 10.8V8.9h8.5v1.9h-3.1v8.4h-2.3v-8.4H134zM145.9 8.9v4h4.2v-4h2.3v10.3h-2.3v-4.5h-4.2v4.5h-2.3V8.9h2.3zM154.3 12c.2-.7.6-1.2 1-1.7s1-.9 1.6-1.2c.6-.3 1.3-.4 2.1-.4s1.5.1 2.1.4c.6.3 1.2.7 1.6 1.2.4.5.8 1.1 1 1.7.2.7.3 1.4.3 2.2 0 .8-.1 1.5-.3 2.1-.2.7-.6 1.2-1 1.7s-1 .9-1.6 1.1c-.6.3-1.3.4-2.1.4s-1.5-.1-2.1-.4-1.2-.7-1.6-1.1c-.4-.5-.8-1.1-1-1.7s-.3-1.4-.3-2.1c0-.9.1-1.6.3-2.2zm2.1 3.4c.1.4.3.8.5 1.1.2.3.5.6.9.8.4.2.8.3 1.3.3s.9-.1 1.3-.3c.4-.2.6-.5.9-.8.2-.3.4-.7.5-1.1s.2-.8.2-1.3-.1-.9-.2-1.3-.3-.8-.5-1.1c-.2-.3-.5-.6-.9-.8-.4-.2-.8-.3-1.3-.3s-.9.1-1.3.3c-.4.2-.6.5-.9.8-.2.3-.4.7-.5 1.1-.1.4-.2.9-.2 1.3s.1.9.2 1.3zM173.3 18.4c-.8.7-1.9 1-3.2 1-1.4 0-2.5-.3-3.3-1-.8-.7-1.2-1.7-1.2-3.1V8.9h2.3v6.4c0 .3 0 .6.1.8 0 .3.2.5.3.7.2.2.4.4.6.5s.6.2 1.1.2c.8 0 1.4-.2 1.7-.5.3-.4.5-.9.5-1.7V8.9h2.3v6.4c0 1.4-.4 2.5-1.2 3.1zM178.2 16.7c.1.2.3.4.5.6.2.1.5.3.7.3.3.1.6.1.9.1.2 0 .4 0 .7-.1.2 0 .4-.1.7-.2.2-.1.4-.2.5-.4.1-.2.2-.4.2-.6 0-.3-.1-.5-.3-.7-.2-.2-.4-.3-.7-.4s-.6-.2-1-.3-.7-.2-1.1-.3c-.4-.1-.8-.2-1.1-.4-.4-.1-.7-.3-1-.5-.3-.2-.5-.5-.7-.8-.2-.3-.3-.7-.3-1.2s.1-1 .3-1.4c.2-.4.5-.7.9-1 .4-.3.8-.5 1.2-.6s.9-.2 1.4-.2c.5 0 1.1.1 1.6.2s.9.3 1.3.6.7.6.9 1c.2.4.3.9.3 1.5h-2.2c0-.3-.1-.6-.2-.8-.1-.2-.3-.4-.4-.5-.2-.1-.4-.2-.6-.2-.2 0-.5-.1-.8-.1-.2 0-.4 0-.6.1-.2 0-.4.1-.5.2-.2.1-.3.2-.4.4s-.1.3-.1.6c0 .2 0 .4.1.5.1.1.2.2.5.3.2.1.5.2.9.3.4.1.9.2 1.6.4.2 0 .5.1.8.2s.7.3 1 .5c.3.2.6.5.9.9s.4.8.4 1.4c0 .5-.1.9-.3 1.3-.2.4-.5.8-.8 1.1-.4.3-.8.5-1.3.7-.5.2-1.2.2-1.9.2-.6 0-1.1-.1-1.7-.2-.5-.1-1-.4-1.4-.7-.4-.3-.7-.7-1-1.1-.2-.5-.4-1-.3-1.7h2.2c0 .5 0 .7.2 1zM191 8.9l3.9 10.3h-2.4l-.8-2.3h-3.9l-.8 2.3h-2.3l3.9-10.3h2.4zm.1 6.3l-1.3-3.8-1.3 3.8h2.6zM198 8.9l4.3 6.9V8.9h2.1v10.3h-2.3l-4.3-6.9v6.9h-2.1V8.9h2.3zM210.9 8.9c.7 0 1.3.1 1.9.3.6.2 1.1.5 1.5 1 .4.4.7 1 1 1.6.2.6.4 1.4.4 2.2 0 .8-.1 1.4-.3 2.1-.2.6-.5 1.2-.9 1.7s-.9.8-1.5 1.1-1.3.4-2.1.4h-4.5V8.9h4.5zm-.1 8.4c.3 0 .6-.1 1-.2.3-.1.6-.3.8-.5.2-.2.4-.6.6-1 .1-.4.2-.9.2-1.4 0-.5-.1-1-.2-1.4-.1-.4-.3-.8-.5-1.1-.2-.3-.5-.5-.9-.7-.4-.2-.9-.2-1.4-.2h-1.6v6.5h2zM223 16.7c.1.2.3.4.5.6.2.1.5.3.7.3.3.1.6.1.9.1.2 0 .4 0 .7-.1.2 0 .4-.1.7-.2.2-.1.4-.2.5-.4.1-.2.2-.4.2-.6 0-.3-.1-.5-.3-.7-.2-.2-.4-.3-.7-.4s-.6-.2-1-.3-.7-.2-1.1-.3c-.4-.1-.8-.2-1.1-.4-.4-.1-.7-.3-1-.5-.3-.2-.5-.5-.7-.8-.2-.3-.3-.7-.3-1.2s.1-1 .3-1.4c.2-.4.5-.7.9-1 .4-.3.8-.5 1.2-.6s.9-.2 1.4-.2c.5 0 1.1.1 1.6.2s.9.3 1.3.6.7.6.9 1c.2.4.3.9.3 1.5h-2.2c0-.3-.1-.6-.2-.8-.1-.2-.3-.4-.4-.5-.2-.1-.4-.2-.6-.2-.2 0-.5-.1-.8-.1-.2 0-.4 0-.6.1-.2 0-.4.1-.5.2-.2.1-.3.2-.4.4s-.1.3-.1.6c0 .2 0 .4.1.5.1.1.2.2.5.3.2.1.5.2.9.3.4.1.9.2 1.6.4.2 0 .5.1.8.2s.7.3 1 .5c.3.2.6.5.9.9s.4.8.4 1.4c0 .5-.1.9-.3 1.3-.2.4-.5.8-.8 1.1-.4.3-.8.5-1.3.7-.5.2-1.2.2-1.9.2-.6 0-1.1-.1-1.7-.2-.5-.1-1-.4-1.4-.7-.4-.3-.7-.7-1-1.1-.2-.5-.4-1-.3-1.7h2.2c0 .5.1.7.2 1zM233.9 8.9l2.4 7.1 2.3-7.1h3.2v10.3h-2.1v-7.3l-2.5 7.3h-1.8l-2.5-7.3v7.3h-2.1V8.9h3.1zM246.1 8.9v10.3h-2.3V8.9h2.3zM250.4 8.9v8.4h5v1.9h-7.3V8.9h2.3zM264.4 8.9v1.9h-5.5V13h5v1.8h-5v2.5h5.6v1.9h-7.9V8.9h7.8zM267.8 16.7c.1.2.3.4.5.6.2.1.5.3.7.3.3.1.6.1.9.1.2 0 .4 0 .7-.1.2 0 .4-.1.7-.2.2-.1.4-.2.5-.4.1-.2.2-.4.2-.6 0-.3-.1-.5-.3-.7-.2-.2-.4-.3-.7-.4s-.6-.2-1-.3-.7-.2-1.1-.3c-.4-.1-.8-.2-1.1-.4-.4-.1-.7-.3-1-.5-.3-.2-.5-.5-.7-.8-.2-.3-.3-.7-.3-1.2s.1-1 .3-1.4c.2-.4.5-.7.9-1 .4-.3.8-.5 1.2-.6s.9-.2 1.4-.2c.5 0 1.1.1 1.6.2s.9.3 1.3.6.7.6.9 1c.2.4.3.9.3 1.5h-2.2c0-.3-.1-.6-.2-.8-.1-.2-.3-.4-.4-.5-.2-.1-.4-.2-.6-.2-.2 0-.5-.1-.8-.1-.2 0-.4 0-.6.1-.2 0-.4.1-.5.2-.2.1-.3.2-.4.4s-.1.3-.1.6c0 .2 0 .4.1.5.1.1.2.2.5.3.2.1.5.2.9.3.4.1.9.2 1.6.4.2 0 .5.1.8.2s.7.3 1 .5c.3.2.6.5.9.9s.4.8.4 1.4c0 .5-.1.9-.3 1.3-.2.4-.5.8-.8 1.1-.4.3-.8.5-1.3.7-.5.2-1.2.2-1.9.2-.6 0-1.1-.1-1.7-.2-.5-.1-1-.4-1.4-.7-.4-.3-.7-.7-1-1.1-.2-.5-.4-1-.3-1.7h2.2c0 .5.1.7.2 1z"/><g><path class="st1" d="M18.3 23.4v3.8c.3-.4.6-.7 1-.8.4-.2.9-.3 1.3-.3s.7.1 1.1.2.7.4 1 .7c.3.3.5.7.7 1.2.2.5.3 1.1.3 1.8s-.1 1.3-.3 1.8c-.2.5-.4.9-.7 1.2-.3.3-.6.6-1 .7-.4.2-.7.2-1.1.2-.6 0-1-.1-1.5-.3-.4-.2-.8-.5-1-.9v1h-2V23.4h2.2zm3.3 5.7c-.1-.3-.2-.5-.3-.8-.1-.2-.3-.4-.5-.5-.2-.1-.5-.2-.8-.2-.3 0-.6.1-.8.2-.2.1-.4.3-.6.5-.1.2-.3.5-.3.8-.1.3-.1.6-.1.9 0 .3 0 .6.1.9.1.3.2.5.3.8.1.2.3.4.6.5.2.1.5.2.8.2.3 0 .6-.1.8-.2.2-.1.4-.3.5-.5.1-.2.3-.5.3-.8.1-.3.1-.6.1-.9 0-.3 0-.6-.1-.9zM27.3 31.9c.3.3.8.4 1.3.4.4 0 .8-.1 1.1-.3.3-.2.5-.4.6-.7h1.8c-.3.9-.7 1.5-1.3 1.9-.6.4-1.3.6-2.2.6-.6 0-1.1-.1-1.6-.3-.5-.2-.9-.5-1.2-.8-.3-.3-.6-.8-.8-1.2-.2-.5-.3-1-.3-1.6 0-.6.1-1.1.3-1.6.2-.5.4-.9.8-1.3s.7-.6 1.2-.8 1-.3 1.6-.3c.6 0 1.2.1 1.7.4.5.2.9.6 1.2 1 .3.4.5.9.7 1.4.1.5.2 1.1.1 1.7h-5.4c-.1.8.1 1.2.4 1.5zm2.3-3.9c-.2-.3-.6-.4-1.1-.4-.3 0-.6.1-.8.2-.2.1-.4.2-.5.4s-.2.3-.3.5c-.1.2-.1.3-.1.5h3.3c-.1-.5-.2-.9-.5-1.2zM40.5 34.3c-.1.4-.3.7-.5 1.1-.3.3-.7.6-1.2.8-.5.2-1.2.3-2.1.3-.4 0-.7 0-1.1-.1-.4-.1-.7-.2-1-.4s-.6-.4-.8-.7c-.2-.3-.3-.7-.4-1.1h2c.1.4.3.7.6.8.3.1.6.2 1 .2.6 0 1-.2 1.3-.5.3-.3.4-.8.4-1.3v-1c-.2.4-.5.7-.9.9s-.8.3-1.3.3c-.6 0-1-.1-1.4-.3-.4-.2-.7-.5-1-.8s-.5-.7-.6-1.2c-.1-.5-.2-.9-.2-1.5 0-.5.1-.9.2-1.4s.3-.8.6-1.2c.3-.3.6-.6 1-.8s.9-.3 1.4-.3c.5 0 .9.1 1.3.3.4.2.7.5.9.9v-1h2v7c-.1.3-.1.6-.2 1zm-2.8-2.5c.2-.1.4-.3.6-.5s.3-.4.3-.7c.1-.2.1-.5.1-.8 0-.3 0-.6-.1-.9-.1-.3-.2-.5-.3-.7-.1-.2-.3-.4-.5-.5-.2-.1-.5-.2-.8-.2-.3 0-.5.1-.7.2-.2.1-.4.3-.5.5-.1.2-.2.4-.3.7s-.1.5-.1.8c0 .3 0 .5.1.8s.1.5.3.7c.1.2.3.4.5.5.2.1.5.2.8.2.1.1.3 0 .6-.1zM42.3 25.1v-1.7h2.1v1.7h-2.1zm2.1 1.1v7.5h-2.1v-7.5h2.1zM47.9 26.2v1c.3-.4.6-.8 1-.9.4-.2.8-.3 1.3-.3.6 0 1 .1 1.4.2.4.2.6.4.8.6.2.3.3.6.4 1 .1.4.1.8.1 1.3v4.6H51v-4.2c0-.6-.1-1.1-.3-1.4-.2-.3-.5-.5-1-.5-.6 0-1 .2-1.2.5-.3.4-.5.9-.5 1.7v3.9h-2v-7.5h1.9zM56.3 31.9c.1.2.2.3.4.4.1.1.3.2.5.2s.4.1.6.1c.1 0 .3 0 .5-.1.2 0 .3-.1.4-.2l.3-.3c.1-.1.1-.3.1-.5 0-.3-.2-.5-.6-.7-.4-.2-1-.3-1.7-.5-.3-.1-.6-.1-.9-.2-.3-.1-.5-.2-.8-.4-.2-.2-.4-.3-.5-.6s-.2-.5-.2-.8c0-.5.1-.9.3-1.2.2-.3.4-.6.7-.7.3-.2.7-.3 1-.4.4-.1.8-.1 1.2-.1s.8 0 1.2.1c.4.1.7.2 1 .4.3.2.5.4.7.7.2.3.3.7.4 1.2h-2c0-.4-.2-.7-.4-.8-.3-.1-.6-.2-1-.2h-.4c-.2 0-.3 0-.4.1-.1 0-.2.1-.3.2-.1.1-.1.2-.1.4s.1.3.2.4c.1.1.3.2.5.3s.5.1.7.2.6.1.9.2c.3.1.6.1.9.2.3.1.5.2.8.4.2.2.4.4.5.6s.2.5.2.9c0 .5-.1.9-.3 1.2-.2.3-.5.6-.8.8s-.7.3-1.1.4-.8.1-1.3.1c-.4 0-.9 0-1.3-.1s-.8-.2-1.1-.4-.6-.5-.8-.8c-.2-.3-.3-.8-.3-1.3h2c.2.4.2.6.3.8zM72.8 33.7l-1.3-5-1.3 5h-2.1l-2.4-7.5h2.2l1.4 5.1 1.2-5.1h2l1.3 5.1 1.4-5.1h2.1L75 33.7h-2.2zM78.2 25.1v-1.7h2.1v1.7h-2.1zm2.1 1.1v7.5h-2.1v-7.5h2.1zM86 26.2v1.4h-1.5v3.7c0 .3.1.6.2.7s.3.2.7.2h.6v1.6c-.2 0-.4 0-.6.1s-.4 0-.6 0c-.3 0-.6 0-.9-.1-.3 0-.5-.1-.8-.3-.2-.1-.4-.3-.5-.5-.1-.2-.2-.5-.2-.9v-4.4h-1.2v-1.4h1.2V24h2.1v2.2H86zM89.1 23.4v3.9c.3-.4.6-.8 1-.9.4-.2.8-.3 1.2-.3.6 0 1 .1 1.4.2.4.2.6.4.8.6.2.3.3.6.4 1 .1.4.1.8.1 1.3v4.6h-2v-4.2c0-.6-.1-1.1-.3-1.4-.2-.3-.5-.5-1-.5-.6 0-1 .2-1.2.5-.3.3-.4.9-.4 1.6v3.9H87V23.4h2.1zM99.6 28.5c0-.5.1-.9.4-1.2.2-.3.5-.6.8-.8.3-.2.7-.3 1.1-.4.4-.1.8-.1 1.2-.1.4 0 .8 0 1.1.1s.7.2 1.1.3.6.4.8.6c.2.3.3.6.3 1.1V32c0 .3 0 .7.1 1 0 .3.1.5.2.7h-2.1c0-.1-.1-.2-.1-.4 0-.1 0-.2-.1-.4-.3.3-.7.6-1.2.7-.4.1-.9.2-1.4.2-.4 0-.7 0-1-.1s-.6-.2-.8-.4-.4-.4-.5-.7-.2-.6-.2-1 .1-.8.2-1.1c.1-.3.3-.5.6-.7.2-.2.5-.3.8-.4s.6-.1.9-.2c.3 0 .6-.1.9-.1s.6-.1.8-.1c.2-.1.4-.1.6-.3s.2-.3.2-.5 0-.4-.1-.5l-.3-.3c-.1-.1-.3-.1-.4-.1h-.5c-.4 0-.7.1-1 .3s-.4.5-.4.9h-2zm4.7 1.6c-.1.1-.2.1-.3.2-.1 0-.3.1-.4.1-.1 0-.3.1-.5.1s-.3 0-.5.1c-.2 0-.3.1-.5.1-.1 0-.3.1-.4.2l-.3.3c-.1.1-.1.3-.1.5s0 .3.1.5l.3.3c.1.1.3.1.4.2h.5c.4 0 .7-.1.9-.2.2-.1.4-.3.5-.5s.2-.4.2-.6v-1.3zM113.7 31.9c.1.2.2.3.4.4.1.1.3.2.5.2s.4.1.6.1c.1 0 .3 0 .5-.1.2 0 .3-.1.4-.2l.3-.3c.1-.1.1-.3.1-.5 0-.3-.2-.5-.6-.7-.4-.2-1-.3-1.7-.5-.3-.1-.6-.1-.9-.2-.3-.1-.5-.2-.8-.4-.2-.2-.4-.3-.5-.6s-.2-.5-.2-.8c0-.5.1-.9.3-1.2.2-.3.4-.6.7-.7.3-.2.7-.3 1-.4.4-.1.8-.1 1.2-.1s.8 0 1.2.1c.4.1.7.2 1 .4.3.2.5.4.7.7.2.3.3.7.4 1.2h-2c0-.4-.2-.7-.4-.8-.3-.1-.6-.2-1-.2h-.4c-.2 0-.3 0-.4.1-.1 0-.2.1-.3.2-.1.1-.1.2-.1.4s.1.3.2.4c.1.1.3.2.5.3s.5.1.7.2.6.1.9.2c.3.1.6.1.9.2.3.1.5.2.8.4.2.2.4.4.5.6s.2.5.2.9c0 .5-.1.9-.3 1.2-.2.3-.5.6-.8.8s-.7.3-1.1.4-.8.1-1.3.1c-.4 0-.9 0-1.3-.1s-.8-.2-1.1-.4-.6-.5-.8-.8c-.2-.3-.3-.8-.3-1.3h2c.2.4.2.6.3.8zM119.8 25.1v-1.7h2.1v1.7h-2.1zm2.1 1.1v7.5h-2.1v-7.5h2.1zM125.5 26.2v1c.3-.4.6-.8 1-.9.4-.2.8-.3 1.3-.3.6 0 1 .1 1.4.2.4.2.6.4.8.6.2.3.3.6.4 1 .1.4.1.8.1 1.3v4.6h-2.1v-4.2c0-.6-.1-1.1-.3-1.4-.2-.3-.5-.5-1-.5-.6 0-1 .2-1.2.5-.3.3-.4.9-.4 1.6v3.9h-2.1v-7.5h2.1zM139.2 34.3c-.1.4-.3.7-.5 1.1-.3.3-.7.6-1.2.8-.5.2-1.2.3-2.1.3-.4 0-.7 0-1.1-.1-.4-.1-.7-.2-1-.4s-.6-.4-.8-.7c-.2-.3-.3-.7-.4-1.1h2c.1.4.3.7.6.8.3.1.6.2 1 .2.6 0 1-.2 1.3-.5.3-.3.4-.8.4-1.3v-1c-.2.4-.5.7-.9.9s-.8.3-1.3.3c-.6 0-1-.1-1.4-.3-.4-.2-.7-.5-1-.8s-.5-.7-.6-1.2c-.1-.5-.2-.9-.2-1.5 0-.5.1-.9.2-1.4s.3-.8.6-1.2c.3-.3.6-.6 1-.8s.9-.3 1.4-.3c.5 0 .9.1 1.3.3.4.2.7.5.9.9v-1h2v7c-.1.3-.1.6-.2 1zm-2.8-2.5c.2-.1.4-.3.6-.5s.3-.4.3-.7c.1-.2.1-.5.1-.8 0-.3 0-.6-.1-.9-.1-.3-.2-.5-.3-.7-.1-.2-.3-.4-.5-.5-.2-.1-.5-.2-.8-.2-.3 0-.5.1-.7.2-.2.1-.4.3-.5.5-.1.2-.2.4-.3.7s-.1.5-.1.8c0 .3 0 .5.1.8s.1.5.3.7c.1.2.3.4.5.5.2.1.5.2.8.2.1.1.4 0 .6-.1zM143.1 23.4v10.3H141V23.4h2.1zM146.9 31.9c.3.3.8.4 1.3.4.4 0 .8-.1 1.1-.3.3-.2.5-.4.6-.7h1.8c-.3.9-.7 1.5-1.3 1.9-.6.4-1.3.6-2.2.6-.6 0-1.1-.1-1.6-.3-.5-.2-.9-.5-1.2-.8-.3-.3-.6-.8-.8-1.2-.2-.5-.3-1-.3-1.6 0-.6.1-1.1.3-1.6.2-.5.4-.9.8-1.3s.7-.6 1.2-.8 1-.3 1.6-.3c.6 0 1.2.1 1.7.4.5.2.9.6 1.2 1 .3.4.5.9.7 1.4.1.5.2 1.1.1 1.7h-5.4c-.1.8.1 1.2.4 1.5zm2.3-3.9c-.2-.3-.6-.4-1.1-.4-.3 0-.6.1-.8.2-.2.1-.4.2-.5.4s-.2.3-.3.5c-.1.2-.1.3-.1.5h3.3c0-.5-.2-.9-.5-1.2zM159 31.2c.1.2.3.4.5.6.2.2.5.3.7.3.3.1.6.1.9.1.2 0 .4 0 .7-.1s.4-.1.7-.2.4-.2.5-.4c.1-.2.2-.4.2-.6 0-.3-.1-.5-.3-.7-.2-.2-.4-.3-.7-.4-.3-.1-.6-.2-1-.3-.4-.1-.7-.2-1.1-.3-.4-.1-.8-.2-1.1-.4-.4-.1-.7-.3-1-.5-.3-.2-.5-.5-.7-.8-.2-.3-.3-.7-.3-1.2s.1-1 .3-1.4.5-.7.9-1 .8-.5 1.2-.6c.5-.1.9-.2 1.4-.2.5 0 1.1.1 1.6.2s.9.3 1.3.6.7.6.9 1c.2.4.3.9.3 1.5h-2.2c0-.3-.1-.6-.2-.8s-.3-.4-.4-.5c-.2-.1-.4-.2-.6-.2s-.5-.1-.8-.1c-.2 0-.4 0-.6.1s-.3.1-.5.2c-.1.1-.3.2-.4.4-.1.1-.1.3-.1.6 0 .2 0 .4.1.5.1.1.2.2.5.3.2.1.5.2.9.3.4.1.9.2 1.6.4.2 0 .5.1.8.2.3.1.7.3 1 .5.3.2.6.5.9.9.2.4.4.8.4 1.4 0 .5-.1.9-.3 1.3-.2.4-.5.8-.8 1.1-.4.3-.8.5-1.3.7-.5.2-1.2.2-1.9.2-.6 0-1.1-.1-1.7-.2-.5-.1-1-.4-1.4-.7-.4-.3-.7-.7-1-1.1-.2-.5-.4-1-.3-1.7h2.2c0 .4.1.7.2 1zM165.9 25.3v-1.9h8.5v1.9h-3.1v8.4H169v-8.4h-3.1zM183.3 23.4v1.9h-5.5v2.2h5v1.8h-5v2.5h5.6v1.9h-7.9V23.4h7.8zM189.6 23.4c.6 0 1.2.1 1.7.3s.8.4 1.1.7.5.7.6 1.1c.1.4.2.8.2 1.2 0 .4-.1.8-.2 1.2-.1.4-.3.8-.6 1.1-.3.3-.7.6-1.1.7s-1 .3-1.7.3h-2.4v3.7h-2.3V23.4h4.7zm-.6 4.9c.3 0 .5 0 .8-.1.2 0 .5-.1.6-.2.2-.1.3-.3.4-.5s.2-.5.2-.8-.1-.6-.2-.8c-.1-.2-.3-.4-.4-.5-.2-.1-.4-.2-.6-.2-.2 0-.5-.1-.8-.1h-1.8v3.1h1.8z"/></g></svg>