<svg xmlns="http://www.w3.org/2000/svg" viewBox="0 0 320 50"><path d="M21 10.5c.4 0 .8.1 1.1.2.3.1.6.3.8.5.2.2.4.5.5.8.1.3.2.6.2 1 0 .5-.1 1-.3 1.4s-.6.7-1.1.9l.6.3c.2.1.3.3.4.5.1.2.2.4.2.6s.1.5.1.7v1.1c0 .2.1.4.1.6s.1.3.2.5h-2c-.1-.3-.2-.6-.2-1s-.1-.8-.1-1.1c-.1-.5-.2-.8-.4-1-.2-.2-.6-.3-1.1-.3h-2v3.5h-2v-8.9h5zm-.7 4.1c.4 0 .8-.1 1-.3.2-.2.3-.5.3-1 0-.4-.1-.7-.3-.9-.2-.2-.6-.3-1-.3h-2.1v2.5h2.1zM26.9 17.9c.3.3.6.4 1.1.4.4 0 .7-.1.9-.3s.4-.4.5-.6H31c-.2.8-.6 1.3-1.1 1.7-.5.3-1.1.5-1.9.5-.5 0-1-.1-1.4-.2-.4-.2-.8-.4-1-.7-.3-.3-.5-.7-.7-1.1-.2-.4-.2-.9-.2-1.4 0-.5.1-.9.2-1.4.2-.4.4-.8.7-1.1s.6-.5 1-.7c.4-.2.9-.3 1.3-.3.5 0 1 .1 1.4.3.4.2.7.5 1 .9.3.4.5.8.6 1.2.1.5.2.9.1 1.4h-4.7c.2.7.3 1.2.6 1.4zm2-3.4c-.2-.2-.5-.3-1-.3-.3 0-.5 0-.7.1s-.3.2-.5.4c-.1.1-.2.3-.2.4 0 .2-.1.3-.1.4h2.9c0-.4-.2-.8-.4-1zM32.1 15c0-.4.1-.8.3-1 .2-.3.4-.5.7-.7.3-.2.6-.3 1-.4.4-.1.7-.1 1.1-.1.3 0 .7 0 1 .1.3 0 .6.1.9.3s.5.3.7.6c.2.2.3.6.3.9v4.1c0 .3.1.5.2.6h-1.8c0-.1-.1-.2-.1-.3v-.3c-.3.3-.6.5-1 .6-.4.1-.8.2-1.2.2-.3 0-.6 0-.9-.1-.3-.1-.5-.2-.7-.3-.2-.2-.4-.4-.5-.6-.1-.2-.2-.5-.2-.9s.1-.7.2-.9c.1-.2.3-.4.5-.6s.4-.2.7-.3c.3-.1.5-.1.8-.2.3 0 .5-.1.8-.1.3 0 .5-.1.7-.1s.4-.1.5-.2.2-.2.2-.4 0-.3-.1-.5-.1-.2-.2-.3c-.1-.1-.2-.1-.4-.1h-.4c-.3 0-.6.1-.8.2-.2.1-.3.4-.4.8h-1.9zm4.1 1.3c-.1.1-.2.1-.3.2-.1 0-.2.1-.4.1s-.3 0-.4.1c-.1 0-.3 0-.4.1-.1 0-.3.1-.4.1-.1 0-.2.1-.3.2s-.2.2-.2.3c-.1.1-.1.2-.1.4s0 .3.1.4c.1.1.1.2.2.3s.2.1.4.1h.4c.3 0 .6-.1.8-.2.2-.1.3-.3.4-.4.1-.2.1-.3.2-.5V16.3zM43.9 18.6c-.2.4-.5.6-.8.8-.3.2-.7.2-1.1.2-.5 0-.9-.1-1.3-.3s-.7-.4-.9-.8c-.2-.3-.4-.7-.5-1.1-.1-.4-.2-.9-.2-1.3s.1-.9.2-1.3.3-.8.5-1.1c.2-.3.5-.6.9-.7.4-.2.8-.3 1.2-.3.4 0 .7.1 1.1.2.3.2.6.4.8.7v-3.2h1.8v8.9H44l-.1-.7zm0-3.2c0-.2-.1-.5-.3-.7l-.5-.5c-.2-.2-.4-.2-.7-.2-.3 0-.5.1-.7.2s-.4.3-.5.5c-.1.2-.2.4-.3.7-.1.2-.1.5-.1.8 0 .2 0 .5.1.8.1.2.2.5.3.7.1.2.3.4.5.5.2.1.4.2.7.2.3 0 .5-.1.7-.2s.4-.3.5-.5.2-.4.2-.7.1-.5.1-.8v-.8zM47.1 15v-1.9h2V15h-2zm1.9 2.5v1.9h-2v-1.9h2z"/><g><path d="M53.9 12.2l.4-1.6h7.5l-.4 1.6h-2.7l-1.5 7.3h-2l1.5-7.3h-2.8zM64.4 10.5l-.7 3.2.3-.3c.1-.1.3-.2.4-.3.2-.1.4-.2.6-.2.2-.1.5-.1.8-.1 1.3 0 1.9.6 1.9 1.7v.3c0 .1 0 .2-.1.3 0 .1 0 .2-.1.3v.2l-.8 3.8H65l.8-3.8c0-.1 0-.2.1-.4v-.4c0-.2-.1-.3-.3-.5s-.4-.2-.6-.2c-.3 0-.5.1-.7.2-.2.1-.4.2-.5.4-.1.2-.3.4-.4.6-.1.2-.2.4-.2.7l-.7 3.4h-1.8l1.9-8.9h1.8zM70.4 16.8v.2c0 .4.1.7.3.9.2.2.6.4 1.1.4.2 0 .3 0 .5-.1s.3-.1.4-.2l.3-.3c.1-.1.2-.2.2-.3H75c-.1.4-.3.7-.5 1-.2.3-.4.5-.7.7-.3.2-.6.3-.9.4-.4.1-.8.1-1.2.1-.4 0-.8-.1-1.2-.2-.4-.1-.7-.3-.9-.5-.2-.2-.4-.5-.6-.9-.1-.4-.2-.8-.2-1.2 0-.5.1-1 .2-1.5.2-.5.4-.9.7-1.3.3-.4.7-.7 1.1-.9.4-.2.9-.3 1.5-.3.5 0 .9.1 1.2.2.4.1.7.3.9.5.3.2.5.5.6.9.1.4.2.8.2 1.2 0 .3 0 .7-.1 1h-4.8c.1.1.1.1.1.2zm3.1-1.8c0-.2-.1-.3-.2-.4s-.2-.2-.4-.3c-.2-.1-.4-.1-.6-.1-.2 0-.5 0-.7.1-.2.1-.4.2-.5.3l-.4.4c-.1.2-.2.3-.2.5h3V15zM78.6 13l-.3 1.2c.2-.5.5-.8.9-1 .4-.2.8-.3 1.3-.3h.5l-.4 1.7c-.1 0-.2 0-.4-.1h-.4c-.3 0-.6.1-.9.2-.2.1-.4.3-.6.5-.2.2-.3.4-.4.7-.1.3-.2.5-.2.8l-.6 2.9h-1.8l1.3-6.5h2zM82.2 16.8v.2c0 .4.1.7.3.9.2.2.6.4 1.1.4.2 0 .3 0 .5-.1s.3-.1.4-.2l.3-.3c.1-.1.2-.2.2-.3h1.8c-.1.4-.3.7-.5 1-.2.3-.4.5-.7.7-.3.2-.6.3-.9.4-.4.1-.8.1-1.2.1-.4 0-.8-.1-1.2-.2-.4-.1-.7-.3-.9-.5-.2-.2-.4-.5-.6-.9-.1-.4-.2-.8-.2-1.2 0-.5.1-1 .2-1.5.2-.5.4-.9.7-1.3.3-.4.7-.7 1.1-.9.4-.2.9-.3 1.5-.3.5 0 .9.1 1.2.2.4.1.7.3.9.5.3.2.5.5.6.9.1.4.2.8.2 1.2 0 .3 0 .7-.1 1h-4.8c.1.1.1.1.1.2zm3.1-1.8c0-.2-.1-.3-.2-.4s-.2-.2-.4-.3c-.2-.1-.4-.1-.6-.1-.2 0-.5 0-.7.1-.2.1-.4.2-.5.3l-.4.4c-.1.2-.2.3-.2.5h3c.1-.1 0-.3 0-.5zM91.3 10.5l-.4 1.9c-.1.3-.1.5-.2.8-.1.2-.3.5-.4.6-.2.2-.4.3-.7.4-.3.1-.6.2-1 .2l.2-.9c.4-.1.6-.2.8-.4.2-.2.3-.5.3-.8H89l.4-1.9h1.9zM94.3 14.2c-.2-.2-.4-.2-.8-.2-.3 0-.6 0-.8.1s-.3.3-.3.5c0 .1.1.3.2.4.1.1.3.2.6.3l.9.3c.2.1.5.2.7.3.2.1.4.2.5.4s.3.3.4.5c.1.2.1.4.1.7 0 .4-.1.7-.3 1-.2.3-.4.5-.7.7-.3.2-.6.3-1 .4-.4.1-.7.1-1.1.1-.3 0-.6 0-1-.1l-.9-.3c-.3-.2-.5-.4-.6-.6-.2-.3-.2-.6-.2-1v-.3h1.6v.2c0 .2 0 .3.1.4l.3.3c.1.1.3.1.4.2.2 0 .3.1.5.1h.4c.1 0 .3-.1.4-.1.1-.1.2-.1.3-.2.1-.1.1-.2.1-.4s-.1-.4-.2-.5c-.1-.1-.3-.2-.5-.2l-1.4-.7c-.2-.1-.4-.2-.6-.2-.2-.1-.3-.2-.4-.3-.1-.1-.2-.3-.3-.5s-.1-.4-.1-.6c0-.4.1-.7.3-1s.4-.5.7-.6.6-.3.9-.4.7-.1 1-.1c.4 0 .7 0 1 .1l.9.3.6.6c.1.3.2.6.2 1h-1.6l-.3-.6zM103.9 10.5l2.4 6.3 1.3-6.3h1.8l-1.9 8.9h-2l-2.5-6.3-1.3 6.3H100l1.9-8.9h2zM109.7 15.3c.2-.5.4-.9.7-1.3.3-.4.7-.7 1.2-.9.5-.2 1-.3 1.5-.3.4 0 .8.1 1.2.2s.7.3 1 .5c.3.2.5.5.6.9.1.3.2.7.2 1.2 0 .6-.1 1.1-.3 1.6s-.4.9-.7 1.3c-.3.4-.7.7-1.2.9-.5.2-1 .3-1.6.3-.9 0-1.6-.2-2.2-.7s-.8-1.2-.8-2.1c.1-.6.2-1.1.4-1.6zm1.6 2.1c.1.2.1.3.2.5.1.1.2.2.4.3s.3.1.5.1c.3 0 .6-.1.9-.3s.4-.4.6-.7c.2-.3.3-.6.3-.9.1-.3.1-.6.1-.9 0-.4-.1-.8-.3-1s-.5-.4-1-.4c-.3 0-.6.1-.8.3-.2.2-.4.4-.6.7s-.3.6-.3.9c-.1.3-.1.6-.1.9 0 .1 0 .3.1.5zM125.8 10.5c.4 0 .9 0 1.2.1.4.1.7.2.9.3s.4.4.6.6c.1.3.2.6.2 1 0 .2 0 .5-.1.7-.1.2-.2.5-.3.6-.1.2-.3.3-.5.5-.2.1-.4.2-.7.2.4.1.8.3 1 .7.2.3.3.7.3 1.1 0 .5-.1.9-.3 1.3s-.4.7-.8.9-.7.4-1.1.5-.8.2-1.3.2h-4.8l1.9-8.9h3.8zm-1 7.4c.5 0 .8-.1 1.1-.4.3-.2.4-.6.4-1.1 0-.2 0-.4-.1-.6-.1-.1-.2-.2-.4-.3s-.3-.1-.5-.1h-2.4l-.5 2.5h2.4zm.6-3.8c.4 0 .7-.1.9-.3.3-.2.4-.5.4-.9s-.1-.6-.3-.7c-.2-.1-.4-.2-.8-.2h-2.1l-.4 2.1h2.3zM131.1 16.8v.2c0 .4.1.7.3.9.2.2.6.4 1.1.4.2 0 .3 0 .5-.1s.3-.1.4-.2l.3-.3c.1-.1.2-.2.2-.3h1.8c-.1.4-.3.7-.5 1-.2.3-.4.5-.7.7-.3.2-.6.3-.9.4-.4.1-.8.1-1.2.1-.4 0-.8-.1-1.2-.2-.4-.1-.7-.3-.9-.5-.2-.2-.4-.5-.6-.9-.1-.4-.2-.8-.2-1.2 0-.5.1-1 .2-1.5.2-.5.4-.9.7-1.3.3-.4.7-.7 1.1-.9.4-.2.9-.3 1.5-.3.5 0 .9.1 1.2.2.4.1.7.3.9.5.3.2.5.5.6.9.1.4.2.8.2 1.2 0 .3 0 .7-.1 1H131c.1.1.1.1.1.2zm3.1-1.8c0-.2-.1-.3-.2-.4s-.2-.2-.4-.3c-.2-.1-.4-.1-.6-.1-.2 0-.5 0-.7.1-.2.1-.4.2-.5.3l-.4.4c-.1.2-.2.3-.2.5h3V15zM141.2 13l-.3 1.2h-1.3l-.7 3.2V17.7c0 .1 0 .2.1.3l.1.1c.1 0 .1.1.2.1h.8l-.3 1.4h-1.1c-.2 0-.4 0-.6-.1-.2 0-.4-.1-.5-.2s-.3-.2-.4-.4c-.1-.2-.1-.4-.1-.7v-.3c0-.1 0-.2.1-.3l.7-3.5h-1.2l.3-1.1h1.1l.4-2h1.8l-.4 2h1.3zM145.8 13l-.3 1.2h-1.3l-.7 3.2V17.7c0 .1 0 .2.1.3l.1.1c.1 0 .1.1.2.1h.8l-.3 1.4h-1.1c-.2 0-.4 0-.6-.1-.2 0-.4-.1-.5-.2s-.3-.2-.4-.4c-.1-.2-.1-.4-.1-.7v-.3c0-.1 0-.2.1-.3l.7-3.5h-1.2l.3-1.2h1.1l.4-2h1.8l-.4 2h1.3zM147.5 16.8v.2c0 .4.1.7.3.9.2.2.6.4 1.1.4.2 0 .3 0 .5-.1s.3-.1.4-.2l.3-.3c.1-.1.2-.2.2-.3h1.8c-.1.4-.3.7-.5 1-.2.3-.4.5-.7.7-.3.2-.6.3-.9.4-.4.1-.8.1-1.2.1-.4 0-.8-.1-1.2-.2-.4-.1-.7-.3-.9-.5-.2-.2-.4-.5-.6-.9-.1-.4-.2-.8-.2-1.2 0-.5.1-1 .2-1.5.2-.5.4-.9.7-1.3.3-.4.7-.7 1.1-.9.4-.2.9-.3 1.5-.3.5 0 .9.1 1.2.2.4.1.7.3.9.5.3.2.5.5.6.9.1.4.2.8.2 1.2 0 .3 0 .7-.1 1h-4.8c.1.1.1.1.1.2zm3.1-1.8c0-.2-.1-.3-.2-.4s-.2-.2-.4-.3c-.2-.1-.4-.1-.6-.1-.2 0-.5 0-.7.1-.2.1-.4.2-.5.3l-.4.4c-.1.2-.2.3-.2.5h3V15zM155.7 13l-.3 1.2c.2-.5.5-.8.9-1 .4-.2.8-.3 1.3-.3h.5l-.4 1.7c-.1 0-.2 0-.4-.1h-.4c-.3 0-.6.1-.9.2-.2.1-.4.3-.6.5-.2.2-.3.4-.4.7-.1.3-.2.5-.2.8l-.6 2.9h-1.8L154 13h1.7z"/></g><g><path d="M16 24.7l.4-1.6h7.5l-.4 1.6h-2.7L19.2 32h-2l1.5-7.3H16zM26 25.5L24.6 32h-1.8l1.4-6.5H26zm-1.6-1l.3-1.5h1.8l-.3 1.5h-1.8zM29.1 25.5l-.2.9c.3-.4.6-.7 1-.8.4-.2.8-.3 1.3-.3.4 0 .7.1 1 .3.3.2.5.5.5.9.1-.2.2-.3.4-.5s.3-.3.5-.4c.2-.1.4-.2.6-.2.2-.1.4-.1.6-.1.2 0 .5 0 .7.1l.6.3c.2.1.3.3.4.5.1.2.2.4.2.7 0 .2 0 .4-.1.6 0 .2-.1.4-.1.6l-.6 3.9h-1.8l.9-4.1v-.5c0-.2-.1-.4-.2-.5-.1-.1-.3-.2-.6-.2-.2 0-.4.1-.6.2-.2.1-.4.3-.5.4-.1.2-.3.4-.3.6-.1.2-.2.4-.2.6l-.7 3.5h-1.8l.8-4.1c0-.2.1-.3.1-.5s-.1-.4-.2-.5c-.1-.1-.3-.2-.6-.2-.2 0-.4.1-.6.2-.2.1-.4.3-.5.4-.1.2-.3.4-.3.6s-.2.4-.2.6l-.8 3.5H26l1.3-6.5h1.8zM39.3 29.3v.3c0 .4.1.7.3.9s.6.4 1.1.4c.2 0 .3 0 .5-.1.1-.1.3-.1.4-.2l.3-.3c.1-.1.2-.2.2-.3h1.8c-.1.4-.3.7-.5 1-.2.3-.4.5-.7.7-.3.2-.6.3-.9.4-.4.1-.8.1-1.2.1-.4 0-.8-.1-1.2-.2-.4-.1-.7-.3-.9-.5s-.4-.5-.6-.9c-.1-.4-.2-.8-.2-1.2 0-.5.1-1 .2-1.5.2-.5.4-.9.7-1.3.3-.4.7-.7 1.1-.9.4-.2.9-.3 1.5-.3.5 0 .9.1 1.2.2.4.1.7.3.9.5.3.2.5.5.6.9.1.4.2.8.2 1.2 0 .3 0 .7-.1 1h-4.8c.2 0 .1 0 .1.1zm3.2-1.8c0-.2-.1-.3-.2-.4s-.2-.2-.4-.3c-.2-.1-.4-.1-.6-.1-.2 0-.5 0-.7.1-.2.1-.4.2-.5.3l-.4.4c-.1.1-.2.3-.2.5h3v-.5zM52.9 25.5l-.3 1.2h-1.3l-.7 3.2V30.2c0 .1 0 .2.1.3l.1.1c.1 0 .1.1.2.1h.8l-.2 1.3h-1.1c-.2 0-.4 0-.6-.1-.2 0-.4-.1-.5-.2s-.3-.2-.4-.4-.1-.4-.1-.7v-.3c0-.1 0-.2.1-.3l.7-3.5h-1.2l.3-1.2h1.1l.4-2H52l-.4 2h1.3zM53.2 27.8c.2-.5.4-.9.7-1.3.3-.4.7-.7 1.2-.9.5-.2 1-.3 1.5-.3.4 0 .8.1 1.2.2s.7.3 1 .5c.3.2.5.5.6.9.1.3.2.7.2 1.2 0 .6-.1 1.1-.3 1.6-.2.5-.4.9-.7 1.3-.3.4-.7.7-1.2.9-.5.2-1 .3-1.6.3-.9 0-1.6-.2-2.2-.7s-.8-1.2-.8-2.1c.1-.6.2-1.1.4-1.6zm1.6 2.1c.1.2.1.3.2.5.1.1.2.2.4.3s.3.1.5.1c.3 0 .6-.1.9-.3.2-.2.4-.4.6-.7s.3-.6.3-.9c.1-.3.1-.6.1-.9 0-.4-.1-.8-.3-1-.2-.3-.5-.4-1-.4-.3 0-.6.1-.8.3-.2.2-.4.4-.6.7s-.3.6-.3.9c-.1.3-.1.6-.1.9 0 .1 0 .3.1.5zM69.3 23c.4 0 .9 0 1.2.1.4.1.7.2.9.3s.4.4.6.6c.1.3.2.6.2 1 0 .2 0 .5-.1.7-.1.2-.2.5-.3.6-.1.2-.3.3-.5.5-.2.1-.4.2-.7.2.4.1.8.3 1 .7.2.3.3.7.3 1.1 0 .5-.1.9-.3 1.3-.2.4-.4.7-.8.9-.3.2-.7.4-1.1.5s-.9.5-1.3.5h-4.8l1.9-8.9h3.8zm-1 7.4c.5 0 .8-.1 1.1-.4.3-.2.4-.6.4-1.1 0-.2 0-.4-.1-.5-.1-.1-.2-.2-.4-.3-.1 0-.3-.1-.5-.1h-2.4l-.5 2.4h2.4zm.6-3.8c.4 0 .7-.1.9-.3.3-.2.4-.5.4-.9s-.1-.6-.3-.7c-.2-.1-.4-.2-.8-.2H67l-.4 2.1h2.3zM77 32l.2-.9c-.6.7-1.3 1.1-2.3 1.1-1.3 0-1.9-.6-1.9-1.7v-.3-.3c0-.1 0-.2.1-.3s0-.2.1-.2l.8-3.8h1.8l-.8 3.7v.8c0 .2.1.4.3.5s.4.2.6.2c.3 0 .5-.1.7-.2.2-.1.4-.2.5-.4.1-.2.3-.4.4-.6.1-.2.2-.4.2-.7l.7-3.4H80L78.7 32H77zM82.6 33.5c-.2.2-.3.3-.5.4-.2.1-.4.2-.7.2-.2 0-.5.1-.9.1h-1l.3-1.5h.8c.2 0 .4 0 .5-.1s.2-.1.3-.2c.1-.1.1-.2.2-.3.1-.1.1-.2.2-.3l-1.1-6.4h1.8l.6 4.6 2.2-4.6h1.9L83 32.9c-.1.2-.3.5-.4.6zM94.1 23l-1.5 7.3h4.3l-.4 1.7h-6.3l1.9-8.9h2zM100.5 25.5L99.1 32h-1.8l1.4-6.5h1.8zm-1.6-1l.3-1.5h1.8l-.3 1.5h-1.8zM101 26.7l.2-1.2h1.1c.1-.4.2-.8.3-1.1.1-.3.2-.6.4-.8.2-.2.4-.4.7-.5s.7-.2 1.1-.2h.6c.2 0 .4 0 .6.1l-.3 1.3h-.6c-.2 0-.4 0-.5.1s-.2.1-.3.2c-.1.1-.1.2-.1.4 0 .1-.1.3-.1.5h1.3l-.2 1.2h-1.3l-1.1 5.3H101l1.1-5.3H101zM106.9 29.3v.3c0 .4.1.7.3.9s.6.4 1.1.4c.2 0 .3 0 .5-.1.1-.1.3-.1.4-.2l.3-.3c.1-.1.2-.2.2-.3h1.8c-.1.4-.3.7-.5 1-.2.3-.4.5-.7.7-.3.2-.6.3-.9.4-.4.1-.8.1-1.2.1-.4 0-.8-.1-1.2-.2-.4-.1-.7-.3-.9-.5s-.4-.5-.6-.9c-.1-.4-.2-.8-.2-1.2 0-.5.1-1 .2-1.5.2-.5.4-.9.7-1.3.3-.4.7-.7 1.1-.9.4-.2.9-.3 1.5-.3.5 0 .9.1 1.2.2.4.1.7.3.9.5.3.2.5.5.6.9.1.4.2.8.2 1.2 0 .3 0 .7-.1 1H107s-.1 0-.1.1zm3.2-1.8c0-.2-.1-.3-.2-.4s-.2-.2-.4-.3c-.2-.1-.4-.1-.6-.1-.2 0-.5 0-.7.1-.2.1-.4.2-.5.3l-.4.4c-.1.1-.2.3-.2.5h3v-.5zM119.6 23l-1.9 8.9h-2l1.9-8.9h2zM122.4 25.5l-.2.9c.6-.7 1.3-1.1 2.3-1.1 1.3 0 1.9.6 1.9 1.7v.3c0 .1 0 .2-.1.3 0 .1 0 .2-.1.3v.2l-.8 3.8h-1.8l.8-3.8c0-.1 0-.2.1-.4v-.4c0-.2-.1-.3-.3-.5s-.4-.2-.6-.2c-.3 0-.5.1-.7.2s-.4.2-.5.4-.3.4-.4.6c-.1.2-.2.4-.2.7l-.7 3.4h-1.8l1.3-6.5h1.8zM131.3 26.7c-.2-.2-.4-.2-.8-.2-.3 0-.6 0-.8.1s-.3.3-.3.5c0 .1.1.3.2.4.1.1.3.2.6.3l.9.3c.2.1.5.2.7.3.2.1.4.2.5.4.2.1.3.3.4.5.1.2.1.4.1.7 0 .4-.1.7-.3 1s-.4.5-.7.7c-.3.2-.6.3-1 .4s-.7.1-1.1.1c-.3 0-.6 0-1-.1l-.9-.3c-.3-.2-.5-.4-.6-.6s-.2-.6-.2-1v-.3h1.6v.2c0 .2 0 .3.1.4l.3.3c.1.1.3.1.4.2.2 0 .3.1.5.1h.4c.1 0 .3-.1.4-.1.1-.1.2-.1.3-.2.1-.1.1-.2.1-.4s-.1-.4-.2-.5c-.1-.1-.3-.2-.5-.2L129 29c-.2-.1-.4-.2-.6-.2s-.3-.2-.4-.3c-.1-.1-.2-.3-.3-.5s-.1-.4-.1-.7c0-.4.1-.7.3-1s.4-.5.7-.6.6-.3.9-.4.7-.1 1-.1c.4 0 .7 0 1 .1l.9.3.6.6c.1.3.2.6.2 1h-1.6c-.1-.1-.2-.3-.3-.5zM137.9 32l.2-.9c-.6.7-1.3 1.1-2.3 1.1-1.3 0-1.9-.6-1.9-1.7v-.3-.3c0-.1 0-.2.1-.3s0-.2.1-.2l.8-3.8h1.8l-.8 3.8v.8c0 .2.1.4.3.5s.4.2.6.2c.3 0 .5-.1.7-.2.2-.1.4-.2.5-.4.1-.2.3-.4.4-.6.1-.2.2-.4.2-.7l.7-3.4h1.8l-1.4 6.5h-1.8zM144.1 25.5l-.3 1.2c.2-.4.5-.8.9-1 .4-.2.8-.3 1.3-.3h.5l-.4 1.7c-.1 0-.2 0-.4-.1h-.4c-.3 0-.6.1-.9.2-.2.1-.4.3-.6.5-.2.2-.3.4-.4.7s-.2.5-.2.8l-.6 2.9h-1.8l1.3-6.5h2zM147.2 26.4c.2-.3.4-.5.7-.7.3-.2.6-.3.9-.4s.7-.1 1.1-.1c.3 0 .6 0 .9.1.3 0 .6.1.9.2.3.1.5.3.7.5.2.2.3.5.2.9 0 .3 0 .7-.1 1.1l-.6 2.6c0 .1-.1.3-.1.4v.4c0 .1 0 .2.1.4h-1.8v-.6c-.2.3-.5.5-.9.6s-.7.2-1.1.2c-.4 0-.7 0-.9-.1-.3-.1-.5-.2-.7-.4s-.3-.3-.4-.5c-.1-.2-.1-.4-.1-.6 0-.6.2-1.1.6-1.5s1-.6 1.8-.7c.4-.1.8-.1 1.1-.1.3 0 .6-.1.8-.1s.4-.1.5-.2c.1-.1.1-.3.1-.5s0-.3-.1-.4c-.1-.1-.2-.2-.3-.2-.1-.1-.2-.1-.4-.1h-.4c-.3 0-.6.1-.9.2s-.4.4-.5.7h-1.7c.3-.4.4-.8.6-1.1zm2.7 2.7c-.3 0-.5.1-.8.1-.2 0-.3 0-.5.1-.2 0-.3.1-.4.2l-.3.3c-.1.1-.1.3-.1.5s.1.4.3.5c.2.1.4.2.7.2.3 0 .5 0 .7-.1.2-.1.3-.2.5-.3.1-.1.2-.3.3-.5.1-.2.1-.3.2-.5l.2-.6c-.3 0-.6.1-.8.1zM156.2 25.5l-.2.9c.6-.7 1.3-1.1 2.3-1.1 1.3 0 1.9.6 1.9 1.7v.3c0 .1 0 .2-.1.3 0 .1 0 .2-.1.3v.2l-.8 3.8h-1.8l.8-3.8c0-.1 0-.2.1-.4v-.4c0-.2-.1-.3-.3-.5s-.4-.2-.6-.2c-.3 0-.5.1-.7.2s-.4.2-.5.4-.3.4-.4.6c-.1.2-.2.4-.2.7l-.7 3.4h-1.8l1.3-6.5h1.8zM165.5 26.9c-.2-.2-.5-.2-.9-.2-.3 0-.6.1-.9.3s-.4.4-.6.7l-.3.9c-.1.3-.1.6-.1.9 0 .2 0 .4.1.5 0 .2.1.3.2.4.1.1.2.2.4.3.2.1.3.1.6.1.2 0 .4 0 .5-.1.2-.1.3-.2.4-.3.1-.1.2-.2.3-.4.1-.1.1-.3.2-.5h1.8c-.3.8-.7 1.4-1.2 1.9-.6.4-1.3.7-2.1.7-.9 0-1.6-.2-2.1-.7-.5-.4-.8-1.1-.8-2.1 0-.6.1-1.1.2-1.6.2-.5.4-.9.7-1.3s.7-.7 1.1-.9c.5-.2 1-.3 1.6-.3.4 0 .8 0 1.1.1.3.1.7.2.9.4.3.2.5.4.6.8.2.3.2.7.2 1.1h-1.8c.2-.2.1-.5-.1-.7zM169.7 29.3v.3c0 .4.1.7.3.9s.6.4 1.1.4c.2 0 .3 0 .5-.1.1-.1.3-.1.4-.2l.3-.3c.1-.1.2-.2.2-.3h1.8c-.1.4-.3.7-.5 1-.2.3-.4.5-.7.7s-.6.3-.9.4c-.4.1-.8.1-1.2.1-.4 0-.8-.1-1.2-.2-.4-.1-.7-.3-.9-.5s-.4-.5-.6-.9c-.1-.4-.2-.8-.2-1.2 0-.5.1-1 .2-1.5s.4-.9.7-1.3c.3-.4.7-.7 1.1-.9.4-.2.9-.3 1.5-.3.5 0 .9.1 1.2.2.4.1.7.3 1 .5.3.2.5.5.6.9.1.4.2.8.2 1.2 0 .3 0 .7-.1 1h-4.8v.1zm3.1-1.8c0-.2-.1-.3-.2-.4-.1-.1-.2-.2-.4-.3-.2-.1-.4-.1-.6-.1-.2 0-.5 0-.7.1s-.4.2-.5.3l-.4.4c-.1.1-.2.3-.2.5h3v-.5zM177.4 30l-.4 2h-2l.4-1.9h2zm-.4-.7h-.9l.3-3.8.5-2.4h1.9l-.5 2.4-1.3 3.8z"/></g></svg>