<svg xmlns="http://www.w3.org/2000/svg" viewBox="0 0 728 90"><path d="M32.8 26.3v11.4l10.7-11.4H51L40.4 37.2l11.8 16.6h-7.6l-8.3-12.3-3.5 3.5v8.8h-6V26.3h6zM59.8 49c.8.8 2 1.2 3.5 1.2 1.1 0 2.1-.3 2.8-.8.8-.6 1.3-1.1 1.5-1.8h4.8c-.8 2.4-1.9 4.1-3.5 5.1s-3.5 1.5-5.8 1.5c-1.6 0-3-.2-4.2-.8-1.3-.5-2.3-1.2-3.2-2.1-.9-.9-1.5-2-2-3.3-.5-1.3-.7-2.7-.7-4.2s.2-2.9.7-4.2c.5-1.3 1.2-2.4 2.1-3.3.9-.9 2-1.7 3.2-2.2 1.2-.5 2.6-.8 4.1-.8 1.7 0 3.2.3 4.4 1 1.3.7 2.3 1.5 3.1 2.6.8 1.1 1.4 2.4 1.7 3.8.4 1.4.5 2.9.4 4.4H58.5c.1 1.8.5 3.1 1.3 3.9zM66 38.6c-.7-.7-1.6-1.1-3-1.1-.9 0-1.6.1-2.2.4-.6.3-1 .7-1.4 1.1-.3.4-.6.9-.7 1.4-.1.5-.2.9-.2 1.3h8.9c-.3-1.4-.7-2.4-1.4-3.1zM81.9 49c.8.8 2 1.2 3.5 1.2 1.1 0 2.1-.3 2.8-.8.8-.6 1.3-1.1 1.5-1.8h4.8c-.8 2.4-1.9 4.1-3.5 5.1s-3.5 1.5-5.8 1.5c-1.6 0-3-.2-4.2-.8-1.3-.5-2.3-1.2-3.2-2.1-.9-.9-1.5-2-2-3.3-.5-1.3-.7-2.7-.7-4.2s.2-2.9.7-4.2c.5-1.3 1.2-2.4 2.1-3.3.9-.9 2-1.7 3.2-2.2 1.2-.5 2.6-.8 4.1-.8 1.7 0 3.2.3 4.4 1 1.3.7 2.3 1.5 3.1 2.6.8 1.1 1.4 2.4 1.7 3.8.4 1.4.5 2.9.4 4.4H80.6c0 1.8.5 3.1 1.3 3.9zm6.2-10.4c-.7-.7-1.6-1.1-3-1.1-.9 0-1.6.1-2.2.4-.6.3-1 .7-1.4 1.1-.3.4-.6.9-.7 1.4-.1.5-.2.9-.2 1.3h8.9c-.3-1.4-.8-2.4-1.4-3.1zM103.3 33.9v2.5h.1c.7-1.1 1.5-1.9 2.5-2.3 1-.5 2.2-.7 3.4-.7 1.6 0 2.9.3 4 .9 1.1.6 2.1 1.4 2.8 2.3.7 1 1.3 2.1 1.7 3.4.4 1.3.5 2.6.5 4.1 0 1.3-.2 2.6-.5 3.8-.4 1.2-.9 2.3-1.6 3.3-.7.9-1.6 1.7-2.7 2.3-1.1.6-2.4.8-3.8.8-1.2 0-2.4-.2-3.4-.8-1-.5-1.9-1.2-2.6-2.2h-.1v9.4h-5.5V33.9h5.2zm7.1 15.8c.6-.4 1.1-.8 1.5-1.4.4-.6.6-1.2.8-2 .2-.8.2-1.6.2-2.3 0-.8-.1-1.6-.2-2.3-.2-.8-.4-1.5-.8-2.1-.4-.6-.9-1.1-1.5-1.5-.6-.4-1.3-.6-2.2-.6-.9 0-1.6.2-2.2.6-.6.4-1.1.9-1.5 1.4-.4.6-.6 1.3-.8 2-.2.8-.2 1.6-.2 2.4 0 .8.1 1.6.2 2.3.2.8.4 1.4.8 2 .4.6.9 1 1.5 1.4.6.4 1.4.5 2.2.5.9.1 1.6-.1 2.2-.4zM150.5 33.7c-.4-.6-.8-1.1-1.3-1.5-.5-.4-1.1-.8-1.8-1-.7-.2-1.4-.4-2.1-.4-1.4 0-2.5.3-3.5.8-.9.5-1.7 1.2-2.3 2.1-.6.9-1 1.9-1.3 3-.3 1.1-.4 2.3-.4 3.5 0 1.2.1 2.3.4 3.4.3 1.1.7 2.1 1.3 2.9.6.9 1.4 1.6 2.3 2.1.9.5 2.1.8 3.5.8 1.8 0 3.3-.6 4.3-1.7s1.7-2.6 1.9-4.5h5.8c-.2 1.7-.6 3.3-1.2 4.7-.6 1.4-1.5 2.6-2.5 3.5-1.1 1-2.3 1.7-3.7 2.2-1.4.5-3 .8-4.7.8-2.1 0-4-.4-5.7-1.1-1.7-.7-3.1-1.7-4.2-3s-2-2.8-2.7-4.5c-.6-1.7-.9-3.6-.9-5.6 0-2.1.3-4 .9-5.7.6-1.8 1.5-3.3 2.7-4.6 1.2-1.3 2.6-2.3 4.2-3.1 1.7-.7 3.6-1.1 5.7-1.1 1.5 0 2.9.2 4.3.7 1.3.4 2.6 1.1 3.6 1.9 1.1.8 1.9 1.9 2.6 3.1.7 1.2 1.1 2.6 1.3 4.2h-5.8c-.1-.7-.3-1.4-.7-1.9zM175.1 26.3l10.3 27.5h-6.3l-2.1-6.1h-10.3l-2.2 6.1h-6.1l10.4-27.5h6.3zm.3 16.9L172 33.1h-.1l-3.6 10.1h7.1zM193.8 26.3v22.4h13.4v5.1h-19.4V26.3h6zM219 26.3l6.4 18.9h.1l6.1-18.9h8.5v27.5h-5.7V34.3h-.1l-6.7 19.5H223l-6.7-19.3h-.1v19.3h-5.7V26.3h8.5z"/></svg>