<svg id="Layer_1" xmlns="http://www.w3.org/2000/svg" viewBox="0 0 728 90"><style>.st0{fill:#349946}</style><path class="st0" d="M255.3 40c.1-1.3.4-2.3 1-3.2.6-.8 1.3-1.5 2.2-2 .9-.5 1.9-.9 2.9-1.1s2.2-.3 3.3-.3c1 0 2 .1 3 .2s2 .4 2.8.8c.8.4 1.5 1 2.1 1.7.5.7.8 1.7.8 2.9v10.3c0 .9.1 1.8.2 2.6s.3 1.4.5 1.8h-5.5c-.1-.3-.2-.6-.2-.9-.1-.3-.1-.6-.1-1-.9.9-1.9 1.5-3.1 1.9-1.2.4-2.4.5-3.6.5-.9 0-1.8-.1-2.7-.3-.8-.2-1.5-.6-2.2-1.1-.6-.5-1.1-1.1-1.4-1.8-.3-.7-.5-1.6-.5-2.7s.2-2.1.6-2.8c.4-.7.9-1.3 1.5-1.7.6-.4 1.3-.8 2.2-1 .8-.2 1.6-.4 2.4-.5l2.4-.3c.8-.1 1.5-.2 2.1-.3s1.1-.4 1.5-.7c.4-.3.5-.7.5-1.3 0-.6-.1-1.1-.3-1.4-.2-.3-.4-.6-.8-.8-.3-.2-.7-.3-1.1-.4-.4-.1-.9-.1-1.4-.1-1.1 0-1.9.2-2.5.7s-1 1.2-1.1 2.3h-5.5zm12.6 4.1c-.2.2-.5.4-.9.5-.3.1-.7.2-1.1.3-.4.1-.8.1-1.2.2-.4.1-.9.1-1.3.2l-1.2.3c-.4.1-.7.3-1 .5-.3.2-.5.5-.7.8-.2.3-.3.8-.3 1.3s.1.9.3 1.2c.2.3.4.6.7.8s.7.3 1.1.4c.4.1.8.1 1.3.1 1.1 0 1.9-.2 2.5-.5.6-.4 1-.8 1.3-1.3s.5-1 .5-1.5c.1-.5.1-.9.1-1.2v-2.1zM282.8 33.9v2.8h.1c.7-1.2 1.6-2 2.7-2.5s2.2-.8 3.4-.8c1.5 0 2.7.2 3.6.6.9.4 1.7.9 2.2 1.7.5.7.9 1.6 1.1 2.6.2 1 .3 2.1.3 3.4v12.2h-5.5V42.6c0-1.6-.3-2.9-.8-3.7-.5-.8-1.4-1.2-2.7-1.2-1.5 0-2.6.4-3.2 1.3-.7.9-1 2.3-1 4.4v10.4h-5.5V33.9h5.3zM314.5 51.3c-.6 1.1-1.5 1.9-2.5 2.3-1 .5-2.2.7-3.5.7-1.5 0-2.8-.3-3.9-.9-1.1-.6-2.1-1.4-2.8-2.3-.7-1-1.3-2.1-1.7-3.4-.4-1.3-.6-2.6-.6-4 0-1.3.2-2.6.6-3.9.4-1.2.9-2.3 1.7-3.3.7-.9 1.6-1.7 2.7-2.3 1.1-.6 2.4-.9 3.8-.9 1.2 0 2.3.2 3.4.8 1.1.5 1.9 1.2 2.5 2.2h.1v-10h5.5v27.5h-5.2l-.1-2.5zm-.2-9.9c-.2-.8-.4-1.4-.8-2-.4-.6-.9-1-1.4-1.4-.6-.4-1.3-.5-2.2-.5-.9 0-1.7.2-2.3.5-.6.4-1.1.8-1.5 1.4-.4.6-.6 1.3-.8 2-.2.8-.2 1.5-.2 2.4 0 .8.1 1.5.3 2.3.2.8.5 1.5.9 2.1.4.6.9 1.1 1.5 1.5.6.4 1.3.6 2.2.6.9 0 1.6-.2 2.2-.5.6-.4 1.1-.8 1.4-1.4.4-.6.6-1.3.8-2.1.2-.8.2-1.6.2-2.4-.1-.9-.2-1.7-.3-2.5zM344.1 37.5c-.9 0-1.6.2-2.2.6-.6.4-1.1.9-1.4 1.5-.4.6-.6 1.3-.8 2.1-.2.8-.2 1.5-.2 2.2 0 .7.1 1.4.2 2.2.2.7.4 1.4.7 2 .3.6.8 1.1 1.4 1.5.6.4 1.3.6 2.2.6 1.3 0 2.3-.4 3-1.1.7-.7 1.1-1.7 1.3-2.9h5.3c-.4 2.6-1.4 4.7-3.1 6-1.7 1.4-3.9 2.1-6.5 2.1-1.5 0-2.9-.2-4.1-.8-1.2-.5-2.3-1.2-3.2-2.1s-1.6-2-2-3.2c-.5-1.2-.7-2.6-.7-4.1 0-1.5.2-3 .7-4.3.4-1.3 1.1-2.5 2-3.4.9-1 1.9-1.7 3.2-2.2 1.3-.5 2.7-.8 4.3-.8 1.2 0 2.3.2 3.4.5s2.1.8 2.9 1.4c.9.6 1.6 1.4 2.1 2.3.5.9.8 2 .9 3.3h-5.3c-.4-2.3-1.8-3.4-4.1-3.4zM356.4 40c.1-1.3.4-2.3 1-3.2.6-.8 1.3-1.5 2.2-2 .9-.5 1.9-.9 2.9-1.1s2.2-.3 3.3-.3c1 0 2 .1 3 .2s2 .4 2.8.8c.8.4 1.5 1 2.1 1.7.5.7.8 1.7.8 2.9v10.3c0 .9.1 1.8.2 2.6s.3 1.4.5 1.8h-5.5c-.1-.3-.2-.6-.2-.9-.1-.3-.1-.6-.1-1-.9.9-1.9 1.5-3.1 1.9-1.2.4-2.4.5-3.6.5-.9 0-1.8-.1-2.7-.3-.8-.2-1.5-.6-2.2-1.1-.6-.5-1.1-1.1-1.4-1.8-.3-.7-.5-1.6-.5-2.7s.2-2.1.6-2.8c.4-.7.9-1.3 1.5-1.7.6-.4 1.3-.8 2.2-1s1.6-.4 2.4-.5l2.4-.3c.8-.1 1.5-.2 2.1-.3s1.1-.4 1.5-.7c.4-.3.5-.7.5-1.3 0-.6-.1-1.1-.3-1.4-.2-.3-.4-.6-.8-.8-.3-.2-.7-.3-1.1-.4-.4-.1-.9-.1-1.4-.1-1.1 0-1.9.2-2.5.7-.6.5-1 1.2-1.1 2.3h-5.5zm12.7 4.1c-.2.2-.5.4-.9.5-.3.1-.7.2-1.1.3-.4.1-.8.1-1.2.2-.4.1-.9.1-1.3.2l-1.2.3c-.4.1-.7.3-1 .5-.3.2-.5.5-.7.8-.2.3-.3.8-.3 1.3s.1.9.3 1.2c.2.3.4.6.7.8s.7.3 1.1.4.8.1 1.3.1c1.1 0 1.9-.2 2.5-.5.6-.4 1-.8 1.3-1.3s.5-1 .5-1.5c.1-.5.1-.9.1-1.2v-2.1zM383.9 33.9v3.7h.1c.3-.6.6-1.2 1-1.7s.9-1 1.5-1.3c.6-.4 1.2-.7 1.8-.9.6-.2 1.3-.3 2-.3.4 0 .8.1 1.2.2v5.1c-.3-.1-.6-.1-.9-.1s-.7-.1-1-.1c-1 0-1.8.2-2.5.5s-1.2.8-1.7 1.4c-.4.6-.7 1.2-.9 2-.2.8-.3 1.6-.3 2.5v9h-5.5v-20h5.2zM398.9 33.9v3.7h.1c.3-.6.6-1.2 1-1.7s.9-1 1.5-1.3c.6-.4 1.2-.7 1.8-.9.6-.2 1.3-.3 2-.3.4 0 .8.1 1.2.2v5.1c-.3-.1-.6-.1-.9-.1s-.7-.1-1-.1c-1 0-1.8.2-2.5.5s-1.2.8-1.7 1.4c-.4.6-.7 1.2-.9 2-.2.8-.3 1.6-.3 2.5v9h-5.5v-20h5.2z"/><path class="st0" d="M416 59.7c-1.1.7-2.5 1-4.4 1-.6 0-1.1 0-1.7-.1-.6 0-1.1-.1-1.7-.1V56c.5.1 1 .1 1.6.2.5.1 1.1.1 1.6 0 .7-.1 1.2-.4 1.6-.8.3-.5.5-1 .5-1.6 0-.4-.1-.8-.2-1.2l-7-18.7h5.8l4.5 13.6h.1l4.3-13.6h5.7l-8.3 22.3c-.5 1.7-1.3 2.8-2.4 3.5zM459.2 26.3v5.1h-13.3v6.3h11.5v4.7h-11.5v11.3h-6V26.3h19.3zM468.7 26.3v22.4h13.4v5.1h-19.4V26.3h6zM485.2 34.5c.6-1.8 1.5-3.3 2.7-4.6 1.2-1.3 2.6-2.3 4.2-3.1 1.7-.7 3.6-1.1 5.7-1.1s4 .4 5.7 1.1c1.7.7 3.1 1.8 4.2 3.1 1.2 1.3 2 2.8 2.7 4.6.6 1.8.9 3.7.9 5.7s-.3 3.9-.9 5.6c-.6 1.7-1.5 3.2-2.7 4.5-1.2 1.3-2.6 2.3-4.2 3-1.7.7-3.6 1.1-5.7 1.1s-4-.4-5.7-1.1c-1.7-.7-3.1-1.7-4.2-3-1.2-1.3-2-2.8-2.7-4.5-.6-1.7-.9-3.6-.9-5.6 0-2.1.3-4 .9-5.7zm5.5 9c.3 1.1.7 2.1 1.3 2.9.6.9 1.4 1.6 2.3 2.1.9.5 2.1.8 3.5.8s2.5-.3 3.5-.8c.9-.5 1.7-1.2 2.3-2.1.6-.9 1-1.9 1.3-2.9.3-1.1.4-2.2.4-3.4 0-1.2-.1-2.4-.4-3.5-.3-1.1-.7-2.1-1.3-3-.6-.9-1.4-1.6-2.3-2.1-.9-.5-2.1-.8-3.5-.8s-2.5.3-3.5.8c-.9.5-1.7 1.2-2.3 2.1-.6.9-1 1.9-1.3 3-.3 1.1-.4 2.3-.4 3.5 0 1.2.2 2.4.4 3.4zM520 47c.3.6.8 1.2 1.3 1.6.6.4 1.2.7 1.9.9.7.2 1.5.3 2.3.3.5 0 1.1 0 1.7-.1.6-.1 1.2-.3 1.7-.5.5-.3 1-.6 1.3-1.1.4-.4.5-1 .5-1.7s-.2-1.3-.7-1.8-1.1-.8-1.9-1.2c-.8-.3-1.6-.6-2.6-.8-1-.2-2-.5-3-.8l-3-.9c-1-.4-1.8-.9-2.6-1.4-.8-.6-1.4-1.3-1.9-2.2-.5-.9-.7-2-.7-3.2 0-1.4.3-2.6.9-3.7.6-1 1.4-1.9 2.4-2.6s2.1-1.2 3.3-1.5c1.2-.3 2.5-.5 3.7-.5 1.4 0 2.8.2 4.1.5 1.3.3 2.5.8 3.5 1.6 1 .7 1.8 1.6 2.4 2.7s.9 2.5.9 4.1H530c-.1-.8-.2-1.5-.5-2s-.7-1-1.2-1.3-1-.5-1.7-.7c-.6-.1-1.3-.2-2.1-.2-.5 0-1 .1-1.5.2s-.9.3-1.3.5c-.4.3-.7.6-1 1-.3.4-.4.9-.4 1.5 0 .5.1 1 .3 1.3.2.3.6.6 1.2.9.6.3 1.4.6 2.5.8 1.1.3 2.5.6 4.2 1.1.5.1 1.2.3 2.1.6.9.3 1.8.7 2.7 1.3s1.7 1.4 2.3 2.4c.7 1 1 2.2 1 3.8 0 1.3-.2 2.4-.7 3.5-.5 1.1-1.2 2-2.2 2.8-1 .8-2.2 1.4-3.6 1.8s-3.1.7-4.9.7c-1.5 0-3-.2-4.4-.6s-2.7-1-3.8-1.8c-1.1-.8-2-1.8-2.6-3-.6-1.2-.9-2.7-.9-4.4h5.8c.2.7.4 1.5.7 2.1zM545 47c.3.6.8 1.2 1.3 1.6.6.4 1.2.7 1.9.9.7.2 1.5.3 2.3.3.5 0 1.1 0 1.7-.1.6-.1 1.2-.3 1.7-.5.5-.3 1-.6 1.3-1.1.4-.4.5-1 .5-1.7s-.2-1.3-.7-1.8-1.1-.8-1.9-1.2c-.8-.3-1.6-.6-2.6-.8-1-.2-2-.5-3-.8l-3-.9c-1-.4-1.8-.9-2.6-1.4-.8-.6-1.4-1.3-1.9-2.2-.5-.9-.7-2-.7-3.2 0-1.4.3-2.6.9-3.7.6-1 1.4-1.9 2.4-2.6s2.1-1.2 3.3-1.5c1.2-.3 2.5-.5 3.7-.5 1.4 0 2.8.2 4.1.5 1.3.3 2.5.8 3.5 1.6 1 .7 1.8 1.6 2.4 2.7s.9 2.5.9 4.1H555c-.1-.8-.2-1.5-.5-2s-.7-1-1.2-1.3-1-.5-1.7-.7c-.6-.1-1.3-.2-2.1-.2-.5 0-1 .1-1.5.2s-.9.3-1.3.5c-.4.3-.7.6-1 1-.3.4-.4.9-.4 1.5 0 .5.1 1 .3 1.3.2.3.6.6 1.2.9.6.3 1.4.6 2.5.8 1.1.3 2.5.6 4.2 1.1.5.1 1.2.3 2.1.6.9.3 1.8.7 2.7 1.3s1.7 1.4 2.3 2.4c.7 1 1 2.2 1 3.8 0 1.3-.2 2.4-.7 3.5-.5 1.1-1.2 2-2.2 2.8-1 .8-2.2 1.4-3.6 1.8s-3.1.7-4.9.7c-1.5 0-3-.2-4.4-.6s-2.7-1-3.8-1.8c-1.1-.8-2-1.8-2.6-3-.6-1.2-.9-2.7-.9-4.4h5.8c.2.7.3 1.5.7 2.1z"/></svg>