<svg id="Layer_1" xmlns="http://www.w3.org/2000/svg" viewBox="0 0 728 90"><style>.st0{fill:#349946}</style><path d="M35.2 23.3L41 39h-3.6l-1.2-3.5h-5.9L29.2 39h-3.5l5.9-15.7h3.6zm.2 9.6l-2-5.8-2 5.8h4zm9.2-5.3v1.6h.1c.4-.7.9-1.1 1.5-1.4.6-.3 1.3-.5 1.9-.5.8 0 1.5.1 2.1.3.5.2 1 .5 1.3.9.3.4.5.9.6 1.5.1.6.2 1.2.2 1.9v7h-3.1v-6.4c0-.9-.1-1.6-.4-2.1-.3-.5-.8-.7-1.6-.7-.9 0-1.5.3-1.8.8-.4.5-.6 1.3-.6 2.5v6h-3.1V27.6h2.9zm17.7 9.9c-.4.6-.8 1.1-1.4 1.3-.6.3-1.3.4-2 .4-.9 0-1.6-.2-2.2-.5-.7-.3-1.3-.7-1.7-1.3-.4-.6-.7-1.2-.9-1.9-.2-.7-.3-1.5-.3-2.3 0-.8.1-1.5.3-2.2.2-.7.5-1.3.9-1.9.4-.5.9-1 1.6-1.3.6-.3 1.4-.5 2.2-.5.7 0 1.3.1 1.9.4.6.3 1.1.7 1.4 1.3v-5.7h3.1V39h-3l.1-1.5zm-.1-5.6c-.1-.4-.2-.8-.5-1.1-.2-.3-.5-.6-.8-.8-.3-.2-.8-.3-1.3-.3s-.9.1-1.3.3c-.4.2-.6.5-.8.8-.2.3-.4.7-.5 1.2-.1.4-.1.9-.1 1.4 0 .4.1.9.2 1.3s.3.8.5 1.2c.2.3.5.6.9.8.3.2.8.3 1.2.3.5 0 .9-.1 1.3-.3.3-.2.6-.5.8-.8.2-.3.4-.7.4-1.2s.1-.9.1-1.4c0-.5 0-1-.1-1.4zm9.5-2.2v-2.1h1.9v-.9c0-1 .3-1.8.9-2.5.6-.6 1.6-1 2.9-1h.8c.3 0 .6 0 .8.1v2.3c-.4 0-.7-.1-1.1-.1-.4 0-.7.1-.9.3-.2.2-.3.5-.3 1v.7h2.2v2.1h-2.2V39h-3.1v-9.3h-1.9zm9.1-3.9v-2.6h3.1v2.6h-3.1zm3.1 1.8V39h-3.1V27.6h3.1zm5 0v1.6h.1c.4-.7.9-1.1 1.5-1.4.6-.3 1.3-.5 1.9-.5.8 0 1.5.1 2.1.3.5.2 1 .5 1.3.9.3.4.5.9.6 1.5.1.6.2 1.2.2 1.9v7h-3.1v-6.4c0-.9-.1-1.6-.4-2.1-.3-.5-.8-.7-1.6-.7-.9 0-1.5.3-1.8.8-.4.5-.6 1.3-.6 2.5v6H86V27.6h2.9zm17.7 9.9c-.4.6-.8 1.1-1.4 1.3-.6.3-1.3.4-2 .4-.9 0-1.6-.2-2.2-.5-.6-.3-1.2-.8-1.6-1.3-.4-.6-.7-1.2-.9-1.9-.2-.7-.3-1.5-.3-2.3 0-.8.1-1.5.3-2.2.2-.7.5-1.3.9-1.9.4-.5.9-1 1.6-1.3.6-.3 1.4-.5 2.2-.5.7 0 1.3.1 1.9.4.6.3 1.1.7 1.4 1.3v-5.7h3.1V39h-3v-1.5zm-.1-5.6c-.1-.4-.2-.8-.5-1.1-.2-.3-.5-.6-.8-.8-.3-.2-.8-.3-1.3-.3s-.9.1-1.3.3c-.4.2-.6.5-.8.8-.2.3-.4.7-.5 1.2-.1.4-.1.9-.1 1.4 0 .4.1.9.2 1.3s.3.8.5 1.2c.2.3.5.6.9.8.3.2.8.3 1.2.3.5 0 .9-.1 1.3-.3.3-.2.6-.5.8-.8.2-.3.4-.7.4-1.2s.1-.9.1-1.4c0-.5 0-1-.1-1.4zm17-4.3v2.1h-2.3v5.6c0 .5.1.9.3 1.1.2.2.5.3 1.1.3h.5c.2 0 .3 0 .5-.1V39c-.3 0-.6.1-.9.1h-.9c-.5 0-.9 0-1.4-.1-.4-.1-.8-.2-1.1-.4-.3-.2-.6-.5-.8-.8-.2-.4-.3-.8-.3-1.4v-6.7h-1.9v-2.1h1.9v-3.4h3.1v3.4h2.2zm4.2-4.3v5.9h.1c.4-.7.9-1.1 1.5-1.4.6-.3 1.2-.5 1.8-.5.8 0 1.5.1 2.1.3.5.2 1 .5 1.3.9.3.4.5.9.6 1.5.1.6.2 1.2.2 1.9v7h-3.1v-6.4c0-.9-.1-1.6-.4-2.1-.3-.5-.8-.7-1.6-.7-.9 0-1.5.3-1.8.8-.4.5-.6 1.3-.6 2.5v6h-3.1V23.3h3zm12.8 12.9c.5.5 1.1.7 2 .7.6 0 1.2-.2 1.6-.5.5-.3.7-.6.8-1h2.8c-.4 1.4-1.1 2.3-2 2.9-.9.6-2 .9-3.3.9-.9 0-1.7-.1-2.4-.4-.7-.3-1.3-.7-1.8-1.2s-.9-1.2-1.2-1.9c-.3-.7-.4-1.5-.4-2.4 0-.9.1-1.6.4-2.4.3-.7.7-1.4 1.2-1.9s1.1-1 1.8-1.3c.7-.3 1.5-.5 2.4-.5 1 0 1.8.2 2.5.6.7.4 1.3.9 1.8 1.5s.8 1.3 1 2.2c.2.8.3 1.7.2 2.5h-8.2c.1 1.1.3 1.8.8 2.2zm3.5-5.9c-.4-.4-.9-.6-1.7-.6-.5 0-.9.1-1.2.3-.3.2-.6.4-.8.6-.2.2-.3.5-.4.8-.1.3-.1.5-.1.7h5.1c-.3-.8-.5-1.4-.9-1.8zm14.1-7V29c.4-.6.9-1 1.6-1.3.7-.3 1.3-.4 2-.4.6 0 1.1.1 1.7.4.6.2 1.1.6 1.5 1.1.4.5.8 1.1 1.1 1.9.3.8.4 1.7.4 2.7 0 1-.1 1.9-.4 2.7-.3.8-.6 1.4-1.1 1.9-.4.5-.9.8-1.5 1.1-.6.2-1.1.4-1.7.4-.8 0-1.6-.1-2.2-.4s-1.2-.7-1.5-1.3V39h-3V23.3h3.1zm5.1 8.6c-.1-.4-.3-.8-.5-1.2-.2-.3-.5-.6-.8-.8-.3-.2-.7-.3-1.2-.3s-.9.1-1.2.3c-.3.2-.6.5-.8.8-.2.3-.4.7-.5 1.2-.1.4-.2.9-.2 1.4 0 .5.1.9.2 1.4.1.4.3.8.5 1.2.2.3.5.6.8.8.3.2.7.3 1.2.3s.9-.1 1.2-.3c.3-.2.6-.5.8-.8.2-.3.4-.7.5-1.2.1-.4.2-.9.2-1.4-.1-.5-.1-1-.2-1.4zm8.2 4.3c.5.5 1.1.7 2 .7.6 0 1.2-.2 1.6-.5.5-.3.7-.6.8-1h2.8c-.4 1.4-1.1 2.3-2 2.9-.9.6-2 .9-3.3.9-.9 0-1.7-.1-2.4-.4-.7-.3-1.3-.7-1.8-1.2s-.9-1.2-1.2-1.9c-.3-.7-.4-1.5-.4-2.4 0-.9.1-1.6.4-2.4.3-.7.7-1.4 1.2-1.9s1.1-1 1.8-1.3c.7-.3 1.5-.5 2.4-.5 1 0 1.8.2 2.5.6.7.4 1.3.9 1.8 1.5s.8 1.3 1 2.2c.2.8.3 1.7.2 2.5h-8.2c0 1.1.3 1.8.8 2.2zm3.5-5.9c-.4-.4-.9-.6-1.7-.6-.5 0-.9.1-1.2.3-.3.2-.6.4-.8.6-.2.2-.3.5-.4.8-.1.3-.1.5-.1.7h5.1c-.3-.8-.5-1.4-.9-1.8zm7.9 5.8c.1.2.3.4.5.6.2.2.5.3.8.3.3.1.6.1.9.1.2 0 .5 0 .7-.1.2-.1.5-.1.7-.2.2-.1.4-.3.5-.4.1-.2.2-.4.2-.7 0-.5-.3-.8-.9-1.1-.6-.2-1.5-.5-2.6-.7-.5-.1-.9-.2-1.3-.4-.4-.1-.8-.3-1.2-.6-.3-.2-.6-.5-.8-.9-.2-.3-.3-.8-.3-1.3 0-.7.1-1.3.4-1.8.3-.5.7-.8 1.1-1.1.5-.3 1-.5 1.6-.6.6-.1 1.2-.2 1.8-.2.6 0 1.2.1 1.8.2.6.1 1.1.3 1.6.6s.8.6 1.1 1.1c.3.5.5 1 .5 1.7h-3c0-.6-.3-1-.7-1.2-.4-.2-.9-.3-1.5-.3h-.6c-.2 0-.4.1-.6.1-.2.1-.3.2-.4.3-.1.1-.2.3-.2.6s.1.5.3.7c.2.2.5.3.8.4.3.1.7.2 1.1.3.4.1.9.2 1.3.3.5.1.9.2 1.3.4.4.1.8.3 1.2.6.3.2.6.5.8.9.2.4.3.8.3 1.3 0 .7-.2 1.4-.5 1.9s-.7.9-1.2 1.2c-.5.3-1 .5-1.7.6-.6.1-1.3.2-1.9.2-.7 0-1.3-.1-1.9-.2-.6-.1-1.2-.4-1.7-.7-.5-.3-.9-.7-1.2-1.2-.3-.5-.5-1.1-.5-1.9h3c.2.7.3 1 .4 1.2zm15-8.5v2.1h-2.3v5.6c0 .5.1.9.3 1.1.2.2.5.3 1.1.3h.5c.2 0 .3 0 .5-.1V39c-.3 0-.6.1-.9.1h-.9c-.5 0-.9 0-1.4-.1-.4-.1-.8-.2-1.1-.4-.3-.2-.6-.5-.8-.8-.2-.4-.3-.8-.3-1.4v-6.7h-1.9v-2.1h1.9v-3.4h3.1v3.4h2.2zm9.7 0v2.1c.1-.4.3-.7.6-1 .2-.3.5-.6.9-.8.3-.2.7-.4 1-.5.4-.1.7-.2 1.1-.2.2 0 .4 0 .7.1v2.9c-.1 0-.3-.1-.5-.1h-.6c-.6 0-1.1.1-1.5.3-.4.2-.7.5-1 .8s-.4.7-.5 1.2c-.1.4-.2.9-.2 1.4V39h-3.1V27.6h3.1zm8.2 3.5c.1-.6.3-1.1.6-1.3.4-.3.8-.4 1.5-.4.3 0 .5 0 .8.1.2 0 .5.1.6.2.2.1.3.3.4.5.1.2.2.5.2.8 0 .3-.1.6-.3.7-.2.2-.5.3-.8.4-.4.1-.8.2-1.2.2-.5 0-.9.1-1.4.2-.5.1-.9.2-1.4.3-.5.1-.9.3-1.2.6-.4.2-.7.6-.9 1-.2.4-.3.9-.3 1.6 0 .6.1 1.1.3 1.5.2.4.5.8.8 1.1.4.3.8.5 1.2.6.5.1 1 .2 1.5.2.7 0 1.4-.1 2.1-.3.7-.2 1.3-.6 1.8-1.1 0 .2 0 .4.1.6 0 .2.1.4.1.5h3.2c-.1-.2-.2-.6-.3-1.1-.1-.5-.1-1-.1-1.5v-5.9c0-.7-.2-1.2-.5-1.7-.3-.4-.7-.7-1.2-1-.5-.2-1-.4-1.6-.5-.6-.1-1.2-.1-1.7-.1-.6 0-1.3.1-1.9.2-.6.1-1.2.3-1.7.6s-.9.7-1.2 1.2c-.3.5-.5 1.1-.6 1.8h3.1zm4.1 3.5c0 .2 0 .4-.1.7 0 .3-.1.6-.3.9-.2.3-.4.5-.7.7-.3.2-.8.3-1.4.3-.2 0-.5 0-.7-.1-.2 0-.4-.1-.6-.2s-.3-.3-.4-.5c-.1-.2-.2-.4-.2-.7 0-.3.1-.5.2-.7.1-.2.2-.3.4-.5l.6-.3c.2-.1.5-.1.7-.2.2 0 .5-.1.7-.1.2 0 .5-.1.7-.1.2 0 .4-.1.6-.2s.4-.2.5-.3v1.3zm11.3-7v2.1h-2.3v5.6c0 .5.1.9.3 1.1.2.2.5.3 1.1.3h.5c.2 0 .3 0 .5-.1V39c-.3 0-.6.1-.9.1h-.9c-.5 0-.9 0-1.4-.1-.4-.1-.8-.2-1.1-.4-.3-.2-.6-.5-.8-.8-.2-.4-.3-.8-.3-1.4v-6.7h-1.9v-2.1h1.9v-3.4h3.1v3.4h2.2zm4.4 8.6c.5.5 1.1.7 2 .7.6 0 1.2-.2 1.6-.5.5-.3.7-.6.8-1h2.8c-.4 1.4-1.1 2.3-2 2.9-.9.6-2 .9-3.3.9-.9 0-1.7-.1-2.4-.4-.7-.3-1.3-.7-1.8-1.2s-.9-1.2-1.2-1.9c-.3-.7-.4-1.5-.4-2.4 0-.9.1-1.6.4-2.4.3-.7.7-1.4 1.2-1.9s1.1-1 1.8-1.3c.7-.3 1.5-.5 2.4-.5 1 0 1.8.2 2.5.6.7.4 1.3.9 1.8 1.5s.8 1.3 1 2.2c.2.8.3 1.7.2 2.5h-8.2c.1 1.1.3 1.8.8 2.2zm3.5-5.9c-.4-.4-.9-.6-1.7-.6-.5 0-.9.1-1.2.3-.3.2-.6.4-.8.6-.2.2-.3.5-.4.8-.1.3-.1.5-.1.7h5.1c-.2-.8-.5-1.4-.9-1.8zm8 5.8c.1.2.3.4.5.6.2.2.5.3.8.3.3.1.6.1.9.1.2 0 .5 0 .7-.1.2-.1.5-.1.7-.2.2-.1.4-.3.5-.4.1-.2.2-.4.2-.7 0-.5-.3-.8-.9-1.1-.6-.2-1.5-.5-2.6-.7-.5-.1-.9-.2-1.3-.4-.4-.1-.8-.3-1.2-.6-.3-.2-.6-.5-.8-.9-.2-.3-.3-.8-.3-1.3 0-.7.1-1.3.4-1.8.3-.5.7-.8 1.1-1.1.5-.3 1-.5 1.6-.6.6-.1 1.2-.2 1.8-.2.6 0 1.2.1 1.8.2.6.1 1.1.3 1.6.6s.8.6 1.1 1.1c.3.5.5 1 .5 1.7h-3c0-.6-.3-1-.7-1.2-.4-.2-.9-.3-1.5-.3h-.6c-.2 0-.4.1-.6.1-.2.1-.3.2-.4.3-.1.1-.2.3-.2.6s.1.5.3.7c.2.2.5.3.8.4s.7.2 1.1.3c.4.1.9.2 1.3.3.5.1.9.2 1.3.4.4.1.8.3 1.2.6.3.2.6.5.8.9.2.4.3.8.3 1.3 0 .7-.2 1.4-.5 1.9s-.7.9-1.2 1.2-1 .5-1.7.6c-.6.1-1.3.2-1.9.2-.7 0-1.3-.1-1.9-.2-.6-.1-1.2-.4-1.7-.7-.5-.3-.9-.7-1.2-1.2-.3-.5-.5-1.1-.5-1.9h3c.2.7.3 1 .4 1.2zm20.7-8.5v2.1h-2.3v5.6c0 .5.1.9.3 1.1.2.2.5.3 1.1.3h.5c.2 0 .3 0 .5-.1V39c-.3 0-.6.1-.9.1h-.9c-.5 0-.9 0-1.4-.1-.4-.1-.8-.2-1.1-.4-.3-.2-.6-.5-.8-.8-.2-.4-.3-.8-.3-1.4v-6.7h-1.9v-2.1h1.9v-3.4h3.1v3.4h2.2zm1.1 3.2c.3-.7.7-1.4 1.2-1.9s1.1-.9 1.8-1.2c.7-.3 1.5-.4 2.4-.4.9 0 1.7.1 2.4.4.7.3 1.3.7 1.9 1.2.5.5.9 1.2 1.2 1.9.3.7.4 1.6.4 2.5 0 .9-.1 1.7-.4 2.5-.3.7-.7 1.4-1.2 1.9s-1.1.9-1.9 1.2c-.7.3-1.5.4-2.4.4-.9 0-1.7-.1-2.4-.4-.7-.3-1.3-.7-1.8-1.2s-.9-1.1-1.2-1.9c-.3-.7-.4-1.6-.4-2.5 0-.9.1-1.7.4-2.5zm2.8 3.8c.1.4.2.8.5 1.2.2.3.5.6.8.8.4.2.8.3 1.3.3s1-.1 1.3-.3c.4-.2.6-.5.9-.8.2-.3.4-.7.5-1.2.1-.4.1-.9.1-1.3 0-.5 0-.9-.1-1.3s-.2-.8-.5-1.2c-.2-.3-.5-.6-.9-.8-.4-.2-.8-.3-1.3-.3s-1 .1-1.3.3c-.4.2-.6.5-.8.8-.2.3-.4.7-.5 1.2-.1.4-.1.9-.1 1.3s0 .9.1 1.3zm18.8-7V29c.4-.6.9-1.1 1.5-1.3.6-.3 1.2-.4 1.9-.4.9 0 1.7.2 2.3.5.6.3 1.2.8 1.6 1.3.4.6.7 1.2.9 1.9.2.7.3 1.5.3 2.3 0 .8-.1 1.5-.3 2.2-.2.7-.5 1.3-.9 1.9-.4.5-.9 1-1.6 1.3-.6.3-1.4.5-2.2.5-.7 0-1.4-.1-1.9-.4-.6-.3-1.1-.7-1.5-1.3V43h-3.1V27.6h3zm4 9c.3-.2.6-.5.8-.8.2-.3.4-.7.5-1.2.1-.4.1-.9.1-1.3 0-.5 0-.9-.1-1.3s-.3-.8-.5-1.2c-.2-.3-.5-.6-.8-.8-.3-.2-.8-.3-1.3-.3s-.9.1-1.3.3c-.3.2-.6.5-.8.8-.2.3-.4.7-.5 1.2s-.1.9-.1 1.4c0 .5 0 .9.1 1.3s.2.8.5 1.2c.2.3.5.6.8.8.4.2.8.3 1.3.3.6-.1 1-.2 1.3-.4zm9-9v2.1c.1-.4.3-.7.6-1 .2-.3.5-.6.9-.8.3-.2.7-.4 1-.5.4-.1.7-.2 1.1-.2.2 0 .4 0 .7.1v2.9c-.1 0-.3-.1-.5-.1h-.6c-.6 0-1.1.1-1.5.3-.4.2-.7.5-1 .8-.2.3-.4.7-.5 1.2-.1.4-.2.9-.2 1.4V39h-3.1V27.6h3.1zm4.8 3.2c.3-.7.7-1.4 1.2-1.9s1.1-.9 1.8-1.2c.7-.3 1.5-.4 2.4-.4.9 0 1.7.1 2.4.4.7.3 1.3.7 1.9 1.2.5.5.9 1.2 1.2 1.9.3.7.4 1.6.4 2.5 0 .9-.1 1.7-.4 2.5-.3.7-.7 1.4-1.2 1.9s-1.1.9-1.9 1.2c-.7.3-1.5.4-2.4.4-.9 0-1.7-.1-2.4-.4-.7-.3-1.3-.7-1.8-1.2s-.9-1.1-1.2-1.9c-.3-.7-.4-1.6-.4-2.5 0-.9.1-1.7.4-2.5zm2.8 3.8c.1.4.2.8.5 1.2.2.3.5.6.8.8.4.2.8.3 1.3.3s1-.1 1.3-.3c.4-.2.6-.5.9-.8.2-.3.4-.7.5-1.2.1-.4.1-.9.1-1.3 0-.5 0-.9-.1-1.3s-.2-.8-.5-1.2c-.2-.3-.5-.6-.9-.8-.4-.2-.8-.3-1.3-.3s-1 .1-1.3.3c-.4.2-.6.5-.8.8-.2.3-.4.7-.5 1.2-.1.4-.1.9-.1 1.3s0 .9.1 1.3zm16.4-7v2.1h-2.3v5.6c0 .5.1.9.3 1.1.2.2.5.3 1.1.3h.5c.2 0 .3 0 .5-.1V39c-.3 0-.6.1-.9.1h-.9c-.5 0-.9 0-1.4-.1-.4-.1-.8-.2-1.1-.4-.3-.2-.6-.5-.8-.8-.2-.4-.3-.8-.3-1.4v-6.7h-1.9v-2.1h1.9v-3.4h3.1v3.4h2.2zm4.4 8.6c.5.5 1.1.7 2 .7.6 0 1.2-.2 1.6-.5.5-.3.7-.6.8-1h2.8c-.4 1.4-1.1 2.3-2 2.9-.9.6-2 .9-3.3.9-.9 0-1.7-.1-2.4-.4-.7-.3-1.3-.7-1.8-1.2s-.9-1.2-1.2-1.9c-.3-.7-.4-1.5-.4-2.4 0-.9.1-1.6.4-2.4.3-.7.7-1.4 1.2-1.9s1.1-1 1.8-1.3c.7-.3 1.5-.5 2.4-.5 1 0 1.8.2 2.5.6.7.4 1.3.9 1.8 1.5s.8 1.3 1 2.2c.2.8.3 1.7.2 2.5H331c.1 1.1.3 1.8.8 2.2zm3.5-5.9c-.4-.4-.9-.6-1.7-.6-.5 0-.9.1-1.2.3-.3.2-.6.4-.8.6-.2.2-.3.5-.4.8-.1.3-.1.5-.1.7h5.1c-.2-.8-.5-1.4-.9-1.8zm10.8-.7c-.5 0-.9.1-1.3.3-.3.2-.6.5-.8.9-.2.4-.4.8-.5 1.2-.1.4-.1.9-.1 1.3s0 .8.1 1.3c.1.4.2.8.4 1.2.2.3.5.6.8.8.3.2.7.3 1.2.3.7 0 1.3-.2 1.7-.6.4-.4.7-1 .8-1.7h3c-.2 1.5-.8 2.7-1.8 3.5-1 .8-2.2 1.2-3.7 1.2-.9 0-1.6-.1-2.3-.4-.7-.3-1.3-.7-1.8-1.2s-.9-1.1-1.2-1.8c-.3-.7-.4-1.5-.4-2.3 0-.9.1-1.7.4-2.5.3-.8.6-1.4 1.1-2 .5-.6 1.1-1 1.8-1.3.7-.3 1.5-.5 2.5-.5.7 0 1.3.1 1.9.3.6.2 1.2.4 1.7.8s.9.8 1.2 1.3c.3.5.5 1.2.5 1.9h-3.1c0-1.3-.8-2-2.1-2zm13-2v2.1h-2.3v5.6c0 .5.1.9.3 1.1.2.2.5.3 1.1.3h.5c.2 0 .3 0 .5-.1V39c-.3 0-.6.1-.9.1h-.9c-.5 0-.9 0-1.4-.1-.4-.1-.8-.2-1.1-.4-.3-.2-.6-.5-.8-.8-.2-.4-.3-.8-.3-1.4v-6.7h-1.9v-2.1h1.9v-3.4h3.1v3.4h2.2zM370 42.4c-.6.4-1.4.6-2.5.6h-1c-.3 0-.6 0-1-.1v-2.6c.3 0 .6.1.9.1h.9c.4 0 .7-.2.9-.5.2-.3.3-.6.3-.9 0-.2 0-.5-.1-.7l-4-10.7h3.3l2.6 7.8 2.5-7.8h3.2l-4.8 12.8c-.1.9-.6 1.6-1.2 2zm6.9-11.6c.3-.7.7-1.4 1.2-1.9s1.1-.9 1.8-1.2c.7-.3 1.5-.4 2.4-.4.9 0 1.7.1 2.4.4.7.3 1.3.7 1.9 1.2.5.5.9 1.2 1.2 1.9.3.7.4 1.6.4 2.5 0 .9-.1 1.7-.4 2.5-.3.7-.7 1.4-1.2 1.9s-1.1.9-1.9 1.2c-.7.3-1.5.4-2.4.4-.9 0-1.7-.1-2.4-.4-.7-.3-1.3-.7-1.8-1.2s-.9-1.1-1.2-1.9c-.3-.7-.4-1.6-.4-2.5-.1-.9.1-1.7.4-2.5zm2.8 3.8c.1.4.2.8.5 1.2.2.3.5.6.8.8.4.2.8.3 1.3.3s1-.1 1.3-.3c.4-.2.6-.5.9-.8.2-.3.4-.7.5-1.2.1-.4.1-.9.1-1.3 0-.5 0-.9-.1-1.3s-.2-.8-.5-1.2c-.2-.3-.5-.6-.9-.8-.4-.2-.8-.3-1.3-.3s-1 .1-1.3.3c-.4.2-.6.5-.8.8-.2.3-.4.7-.5 1.2-.1.4-.1.9-.1 1.3s0 .9.1 1.3zm17.8 4.4v-1.6h-.1c-.4.7-.9 1.1-1.5 1.4-.6.3-1.3.4-1.9.4-.8 0-1.5-.1-2.1-.3-.5-.2-1-.5-1.3-.9-.3-.4-.5-.9-.6-1.5-.1-.6-.2-1.2-.2-1.9v-7h3.1V34c0 .9.1 1.6.4 2.1.3.5.8.7 1.6.7.9 0 1.5-.3 1.8-.8.4-.5.6-1.3.6-2.5v-6h3.1V39h-2.9zm7.9-11.4v2.1c.1-.4.3-.7.6-1 .2-.3.5-.6.9-.8.3-.2.7-.4 1-.5.4-.1.7-.2 1.1-.2.2 0 .4 0 .7.1v2.9c-.1 0-.3-.1-.5-.1h-.6c-.6 0-1.1.1-1.5.3-.4.2-.7.5-1 .8-.2.3-.4.7-.5 1.2-.1.4-.2.9-.2 1.4V39h-3.1V27.6h3.1zm10.9-1.8v-2.6h3.1v2.6h-3.1zm3.1 1.8V39h-3.1V27.6h3.1zm5 0v1.6h.1c.4-.7.9-1.1 1.5-1.4.6-.3 1.3-.5 1.9-.5.8 0 1.5.1 2.1.3.5.2 1 .5 1.3.9.3.4.5.9.6 1.5.1.6.2 1.2.2 1.9v7H429v-6.4c0-.9-.1-1.6-.4-2.1-.3-.5-.8-.7-1.6-.7-.9 0-1.5.3-1.8.8-.4.5-.6 1.3-.6 2.5v6h-3.1V27.6h2.9zm15.1 2c-.5 0-.9.1-1.3.3-.3.2-.6.5-.8.9-.2.4-.4.8-.5 1.2-.1.4-.1.9-.1 1.3s0 .8.1 1.3c.1.4.2.8.4 1.2.2.3.5.6.8.8.3.2.7.3 1.2.3.7 0 1.3-.2 1.7-.6.4-.4.7-1 .8-1.7h3c-.2 1.5-.8 2.7-1.8 3.5-1 .8-2.2 1.2-3.7 1.2-.9 0-1.6-.1-2.3-.4-.7-.3-1.3-.7-1.8-1.2s-.9-1.1-1.2-1.8c-.3-.7-.4-1.5-.4-2.3 0-.9.1-1.7.4-2.5.3-.8.6-1.4 1.1-2 .5-.6 1.1-1 1.8-1.3.7-.3 1.5-.5 2.5-.5.7 0 1.3.1 1.9.3.6.2 1.2.4 1.7.8s.9.8 1.2 1.3c.3.5.5 1.2.5 1.9h-3.1c0-1.3-.8-2-2.1-2zm6.8 1.2c.3-.7.7-1.4 1.2-1.9s1.1-.9 1.8-1.2c.7-.3 1.5-.4 2.4-.4.9 0 1.7.1 2.4.4.7.3 1.3.7 1.9 1.2.5.5.9 1.2 1.2 1.9.3.7.4 1.6.4 2.5 0 .9-.1 1.7-.4 2.5-.3.7-.7 1.4-1.2 1.9s-1.1.9-1.9 1.2c-.7.3-1.5.4-2.4.4-.9 0-1.7-.1-2.4-.4-.7-.3-1.3-.7-1.8-1.2s-.9-1.1-1.2-1.9c-.3-.7-.4-1.6-.4-2.5 0-.9.1-1.7.4-2.5zm2.8 3.8c.1.4.2.8.5 1.2.2.3.5.6.8.8.4.2.8.3 1.3.3s1-.1 1.3-.3c.4-.2.6-.5.9-.8.2-.3.4-.7.5-1.2.1-.4.1-.9.1-1.3 0-.5 0-.9-.1-1.3s-.2-.8-.5-1.2c-.2-.3-.5-.6-.9-.8-.4-.2-.8-.3-1.3-.3s-1 .1-1.3.3c-.4.2-.6.5-.8.8-.2.3-.4.7-.5 1.2-.1.4-.1.9-.1 1.3s.1.9.1 1.3zm13.2-7v1.5c.4-.6.9-1 1.5-1.4.6-.3 1.2-.5 2-.5.7 0 1.4.1 2 .4.6.3 1 .8 1.4 1.5.3-.5.8-.9 1.4-1.3.6-.4 1.3-.6 2.1-.6.6 0 1.2.1 1.7.2s1 .4 1.3.7c.4.3.7.7.9 1.3.2.5.3 1.1.3 1.9V39h-3.1v-6.4-1.1c0-.3-.1-.6-.2-.9-.1-.2-.3-.4-.6-.6-.3-.1-.6-.2-1-.2s-.8.1-1.1.3c-.3.2-.5.4-.6.7-.2.3-.3.6-.3.9-.1.3-.1.7-.1 1V39h-3.1v-6.4-1c0-.3-.1-.6-.2-.9-.1-.3-.3-.5-.6-.7-.3-.2-.6-.3-1.1-.3-.1 0-.3 0-.6.1-.2.1-.5.2-.7.4-.2.2-.4.4-.6.8-.2.3-.2.8-.2 1.4V39h-3.1V27.6h2.6zm19.8 8.6c.5.5 1.1.7 2 .7.6 0 1.2-.2 1.6-.5.5-.3.7-.6.8-1h2.8c-.4 1.4-1.1 2.3-2 2.9-.9.6-2 .9-3.3.9-.9 0-1.7-.1-2.4-.4-.7-.3-1.3-.7-1.8-1.2s-.9-1.2-1.2-1.9c-.3-.7-.4-1.5-.4-2.4 0-.9.1-1.6.4-2.4.3-.7.7-1.4 1.2-1.9s1.1-1 1.8-1.3c.7-.3 1.5-.5 2.4-.5 1 0 1.8.2 2.5.6.7.4 1.3.9 1.8 1.5s.8 1.3 1 2.2c.2.8.3 1.7.2 2.5h-8.2c.1 1.1.3 1.8.8 2.2zm3.5-5.9c-.4-.4-.9-.6-1.7-.6-.5 0-.9.1-1.2.3-.3.2-.6.4-.8.6-.2.2-.3.5-.4.8-.1.3-.1.5-.1.7h5.1c-.3-.8-.5-1.4-.9-1.8zm8.9 5.3V39H491v-3.4h3.5z"/><path class="st0" d="M27.2 55.9c.4-1 .9-1.9 1.5-2.6.7-.7 1.5-1.3 2.4-1.8s2-.6 3.2-.6c1.2 0 2.3.2 3.3.6s1.8 1 2.4 1.8c.7.7 1.2 1.6 1.5 2.6s.5 2.1.5 3.3c0 1.1-.2 2.2-.5 3.2s-.9 1.9-1.5 2.6-1.5 1.3-2.4 1.7-2 .6-3.3.6c-1.2 0-2.3-.2-3.2-.6s-1.8-1-2.4-1.7-1.2-1.6-1.5-2.6-.5-2.1-.5-3.2c0-1.2.1-2.2.5-3.3zm3.1 5.2c.2.6.4 1.2.7 1.7.3.5.8.9 1.3 1.2.5.3 1.2.5 2 .5s1.4-.2 2-.5c.5-.3 1-.7 1.3-1.2s.6-1.1.7-1.7c.2-.6.2-1.3.2-1.9 0-.7-.1-1.4-.2-2-.2-.6-.4-1.2-.7-1.7s-.8-.9-1.3-1.2c-.5-.3-1.2-.5-2-.5s-1.4.2-2 .5c-.5.3-1 .7-1.3 1.2-.3.5-.6 1.1-.7 1.7s-.2 1.3-.2 2 .1 1.3.2 1.9zM46.7 55.6v1.6h.1c.4-.7.9-1.1 1.5-1.4s1.3-.5 1.9-.5c.8 0 1.5.1 2.1.3.5.2 1 .5 1.3.9.3.4.5.9.6 1.5.1.6.2 1.2.2 1.9v7h-3.1v-6.4c0-.9-.1-1.6-.4-2.1-.3-.5-.8-.7-1.6-.7-.9 0-1.5.3-1.8.8-.5.5-.7 1.4-.7 2.5v6h-3.1V55.6h3zM59.5 51.3V67h-3.1V51.3h3.1zM65.8 70.4c-.6.4-1.4.6-2.5.6h-1c-.3 0-.6 0-1-.1v-2.6c.3 0 .6.1.9.1h.9c.4 0 .7-.2.9-.5.2-.3.3-.6.3-.9 0-.2 0-.5-.1-.7l-4-10.7h3.3l2.6 7.8 2.5-7.8h3.2L67 68.4c-.2.9-.6 1.6-1.2 2zM77 57.7v-2.1h1.9v-.9c0-1 .3-1.8.9-2.5s1.6-1 2.9-1h.8c.3 0 .6 0 .8.1v2.3c-.4 0-.7-.1-1.1-.1-.4 0-.7.1-.9.3s-.3.5-.3 1v.7h2.2v2.1H82V67h-3.1v-9.3H77zM85.2 58.9c.3-.7.7-1.4 1.2-1.9s1.1-.9 1.8-1.2c.7-.3 1.5-.4 2.4-.4.9 0 1.7.1 2.4.4.7.3 1.3.7 1.9 1.2.5.5.9 1.2 1.2 1.9.3.7.4 1.6.4 2.5 0 .9-.1 1.7-.4 2.5-.3.7-.7 1.4-1.2 1.9s-1.1.9-1.9 1.2-1.5.4-2.4.4c-.9 0-1.7-.1-2.4-.4-.7-.3-1.3-.7-1.8-1.2s-.9-1.1-1.2-1.9c-.3-.7-.4-1.6-.4-2.5-.1-1 .1-1.8.4-2.5zm2.8 3.8c.1.4.2.8.5 1.2.2.3.5.6.8.8.4.2.8.3 1.3.3s1-.1 1.3-.3c.4-.2.6-.5.9-.8.2-.3.4-.7.5-1.2s.1-.9.1-1.3c0-.5 0-.9-.1-1.3s-.2-.8-.5-1.2c-.2-.3-.5-.6-.9-.8s-.8-.3-1.3-.3-1 .1-1.3.3-.6.5-.8.8c-.2.3-.4.7-.5 1.2s-.1.9-.1 1.3 0 .8.1 1.3zM101.1 55.6v2.1c.1-.4.3-.7.6-1s.5-.6.9-.8c.3-.2.7-.4 1-.5.4-.1.7-.2 1.1-.2.2 0 .4 0 .7.1v2.9c-.1 0-.3-.1-.5-.1h-.6c-.6 0-1.1.1-1.5.3-.4.2-.7.5-1 .8-.2.3-.4.7-.5 1.2-.1.4-.2.9-.2 1.4V67H98V55.6h3.1zM120.1 51.3L126 67h-3.6l-1.2-3.5h-5.9l-1.2 3.5h-3.5l5.9-15.7h3.6zm.2 9.6l-2-5.8-2 5.8h4zM133.7 51.3c1 0 2 .2 2.8.5.9.3 1.6.8 2.3 1.5.6.6 1.1 1.5 1.5 2.4.4 1 .5 2.1.5 3.4 0 1.1-.1 2.2-.4 3.2-.3 1-.7 1.8-1.3 2.5s-1.3 1.3-2.2 1.7c-.9.4-1.9.6-3.1.6H127V51.3h6.7zm-.3 12.8c.5 0 1-.1 1.5-.2s.9-.4 1.3-.8.7-.9.9-1.5c.2-.6.3-1.3.3-2.2 0-.8-.1-1.5-.2-2.1-.2-.6-.4-1.2-.8-1.6-.4-.5-.8-.8-1.4-1s-1.3-.4-2.1-.4h-2.5v9.9h3zM150.6 51.3l5.9 15.7h-3.6l-1.2-3.5h-5.9l-1.2 3.5h-3.5l5.9-15.7h3.6zm.2 9.6l-2-5.8-2 5.8h4zM167.9 51.3l3.7 10.8 3.5-10.8h4.9V67h-3.2V55.9l-4 11.1h-2.7l-3.9-11v11H163V51.3h4.9zM185.6 64.3c.5.5 1.1.7 2 .7.6 0 1.2-.2 1.6-.5s.7-.6.8-1h2.8c-.4 1.4-1.1 2.3-2 2.9s-2 .9-3.3.9c-.9 0-1.7-.1-2.4-.4-.7-.3-1.3-.7-1.8-1.2s-.9-1.2-1.2-1.9c-.3-.7-.4-1.5-.4-2.4 0-.9.1-1.6.4-2.4s.7-1.4 1.2-1.9 1.1-1 1.8-1.3c.7-.3 1.5-.5 2.4-.5 1 0 1.8.2 2.5.6.7.4 1.3.9 1.8 1.5s.8 1.3 1 2.2c.2.8.3 1.7.2 2.5h-8.2c.1 1 .3 1.7.8 2.2zm3.5-6c-.4-.4-.9-.6-1.7-.6-.5 0-.9.1-1.2.3-.3.2-.6.4-.8.6-.2.2-.3.5-.4.8-.1.3-.1.5-.1.7h5.1c-.2-.8-.5-1.4-.9-1.8zM197.5 55.6v1.5c.4-.6.9-1 1.5-1.4.6-.3 1.2-.5 2-.5.7 0 1.4.1 2 .4.6.3 1 .8 1.4 1.5.3-.5.8-.9 1.4-1.3.6-.4 1.3-.6 2.1-.6.6 0 1.2.1 1.7.2s1 .4 1.3.7c.4.3.7.7.9 1.3.2.5.3 1.1.3 1.9V67H209v-6.4-1.1c0-.4-.1-.6-.2-.9-.1-.2-.3-.4-.6-.6s-.6-.2-1-.2-.8.1-1.1.3-.5.4-.6.7-.3.6-.3.9c-.1.3-.1.7-.1 1V67H202v-6.4-1c0-.3-.1-.6-.2-.9-.1-.3-.3-.5-.6-.7s-.6-.3-1.1-.3c-.1 0-.3 0-.6.1-.2.1-.5.2-.7.4-.2.2-.4.4-.6.8-.2.3-.2.8-.2 1.4V67h-3.1V55.6h2.6zM217.1 51.3V57c.4-.6.9-1 1.6-1.3s1.3-.4 2-.4c.6 0 1.1.1 1.7.4.6.2 1.1.6 1.5 1.1.4.5.8 1.1 1.1 1.9s.4 1.7.4 2.7c0 1-.1 1.9-.4 2.7-.3.8-.6 1.4-1.1 1.9-.4.5-1 .8-1.5 1.1-.6.2-1.1.4-1.7.4-.8 0-1.6-.1-2.2-.4-.7-.3-1.2-.7-1.5-1.3V67h-3V51.3h3.1zm5.1 8.6c-.1-.4-.3-.8-.5-1.2-.2-.3-.5-.6-.8-.8s-.7-.3-1.2-.3-.9.1-1.2.3c-.3.2-.6.5-.8.8-.2.3-.4.7-.5 1.2-.1.4-.2.9-.2 1.4 0 .5.1.9.2 1.4.1.4.3.8.5 1.2.2.3.5.6.8.8.3.2.7.3 1.2.3s.9-.1 1.2-.3.6-.5.8-.8c.2-.3.4-.7.5-1.2.1-.4.2-.9.2-1.4-.1-.5-.1-.9-.2-1.4zM230.3 64.3c.5.5 1.1.7 2 .7.6 0 1.2-.2 1.6-.5s.7-.6.8-1h2.8c-.4 1.4-1.1 2.3-2 2.9s-2 .9-3.3.9c-.9 0-1.7-.1-2.4-.4-.7-.3-1.3-.7-1.8-1.2s-.9-1.2-1.2-1.9c-.3-.7-.4-1.5-.4-2.4 0-.9.1-1.6.4-2.4s.7-1.4 1.2-1.9 1.1-1 1.8-1.3c.7-.3 1.5-.5 2.4-.5 1 0 1.8.2 2.5.6.7.4 1.3.9 1.8 1.5s.8 1.3 1 2.2c.2.8.3 1.7.2 2.5h-8.2c.1 1 .4 1.7.8 2.2zm3.6-6c-.4-.4-.9-.6-1.7-.6-.5 0-.9.1-1.2.3-.3.2-.6.4-.8.6-.2.2-.3.5-.4.8-.1.3-.1.5-.1.7h5.1c-.3-.8-.6-1.4-.9-1.8zM242.2 55.6v2.1c.1-.4.3-.7.6-1s.5-.6.9-.8c.3-.2.7-.4 1-.5.4-.1.7-.2 1.1-.2.2 0 .4 0 .7.1v2.9c-.1 0-.3-.1-.5-.1h-.6c-.6 0-1.1.1-1.5.3-.4.2-.7.5-1 .8-.2.3-.4.7-.5 1.2-.1.4-.2.9-.2 1.4V67h-3.1V55.6h3.1zM250 64.2c.1.2.3.4.5.6s.5.3.8.3c.3.1.6.1.9.1.2 0 .5 0 .7-.1.2-.1.5-.1.7-.2.2-.1.4-.3.5-.4.1-.2.2-.4.2-.7 0-.5-.3-.8-.9-1.1-.6-.2-1.5-.5-2.6-.7-.5-.1-.9-.2-1.3-.4-.4-.1-.8-.3-1.2-.5s-.6-.5-.8-.9c-.2-.3-.3-.8-.3-1.3 0-.7.1-1.3.4-1.8.3-.5.7-.8 1.1-1.1s1-.5 1.6-.6c.6-.1 1.2-.2 1.8-.2.6 0 1.2.1 1.8.2.6.1 1.1.3 1.6.6s.8.6 1.1 1.1c.3.5.5 1 .5 1.7h-3c0-.6-.3-1-.7-1.2-.4-.2-.9-.3-1.5-.3h-.6c-.2 0-.4.1-.6.1s-.3.2-.4.3c-.1.1-.2.3-.2.6s.1.5.3.7c.2.2.5.3.8.4.3.1.7.2 1.1.3.4.1.9.2 1.3.3.5.1.9.2 1.3.4.4.1.8.3 1.2.6.3.2.6.5.8.9.2.4.3.8.3 1.3 0 .7-.2 1.4-.5 1.9s-.7.9-1.2 1.2c-.5.3-1 .5-1.7.6-.6.1-1.3.2-1.9.2-.7 0-1.3-.1-1.9-.2-.6-.1-1.2-.4-1.7-.7-.5-.3-.9-.7-1.2-1.2-.3-.5-.5-1.1-.5-1.9h3c.2.5.2.8.4 1.1z"/></svg>