<svg id="Layer_1" xmlns="http://www.w3.org/2000/svg" xmlns:xlink="http://www.w3.org/1999/xlink" viewBox="0 0 728 90"><style>.st0{clip-path:url(#SVGID_00000130610033834515818890000018345324836918235310_);fill:#349946}.st1{fill:#fff}</style><defs><path id="SVGID_1_" d="M547.9 12.6h116.3v24.5H547.9z"/></defs><clipPath id="SVGID_00000083780859126424278710000007520993986978839723_"><use xlink:href="#SVGID_1_" overflow="visible"/></clipPath><path d="M664.2 24.9c0 6.7-6.3 12.3-14.1 12.3H562c-7.7 0-14.1-5.5-14.1-12.3s6.3-12.3 14.1-12.3h88.2c7.7 0 14 5.5 14 12.3" clip-path="url(#SVGID_00000083780859126424278710000007520993986978839723_)" fill="#349946"/><g><path class="st1" d="M572.8 29l-1.3-5.3-1.3 5.3h-1.7l-2.1-7.8h1.7l1.2 5.3 1.4-5.3h1.6l1.3 5.4 1.3-5.4h1.7l-2.1 7.8h-1.7zM581.1 21.2L584 29h-1.8l-.6-1.7h-2.9l-.6 1.7h-1.7l3-7.8h1.7zm.1 4.8l-1-2.9-1 2.9h2z"/></g><g><path class="st1" d="M583.1 22.7v-1.4h6.4v1.4h-2.3V29h-1.7v-6.4h-2.4zM595.4 23.3c-.1-.2-.2-.3-.4-.4s-.3-.2-.5-.3-.4-.1-.6-.1c-.4 0-.7.1-1 .2-.3.1-.5.4-.7.6s-.3.5-.4.9c-.1.3-.1.7-.1 1 0 .3 0 .6.1 1 .1.3.2.6.4.8.2.2.4.4.7.6.3.1.6.2 1 .2.5 0 .9-.2 1.2-.5s.5-.7.5-1.3h1.7c0 .5-.2.9-.3 1.3-.2.4-.4.7-.7 1-.3.3-.7.5-1.1.6-.4.1-.8.2-1.3.2-.6 0-1.1-.1-1.6-.3-.5-.2-.9-.5-1.2-.9-.3-.4-.6-.8-.8-1.3-.2-.5-.3-1-.3-1.6 0-.6.1-1.1.3-1.6.2-.5.4-.9.8-1.3.3-.4.7-.7 1.2-.9.5-.2 1-.3 1.6-.3.4 0 .8.1 1.2.2.4.1.7.3 1 .5.3.2.6.5.8.9.2.4.3.8.4 1.2h-1.7c-.1-.1-.1-.2-.2-.4zM600.2 21.2v3h3.2v-3h1.7V29h-1.7v-3.4h-3.2V29h-1.7v-7.8h1.7zM614.4 29l-2.5-7.8h1.8l1.7 5.5 1.8-5.5h1.8l-2.6 7.8h-2zM621.3 21.2V29h-1.7v-7.8h1.7zM626.2 21.2c.5 0 1 .1 1.4.2s.8.4 1.1.7c.3.3.6.7.7 1.2s.3 1 .3 1.7c0 .6-.1 1.1-.2 1.6s-.4.9-.7 1.2-.7.6-1.1.8c-.4.2-1 .3-1.6.3h-3.4v-7.8h3.5zm-.1 6.4c.2 0 .5 0 .7-.1.2-.1.4-.2.6-.4s.3-.4.4-.7c.1-.3.2-.7.2-1.1 0-.4 0-.8-.1-1.1-.1-.3-.2-.6-.4-.8-.2-.2-.4-.4-.7-.5-.3-.1-.6-.2-1.1-.2h-1.2v4.9h1.6zM636.8 21.2v1.4h-4.1v1.7h3.8v1.3h-3.8v1.9h4.2V29H631v-7.8h5.8zM638 23.5c.2-.5.4-.9.8-1.3.3-.4.7-.7 1.2-.9.5-.2 1-.3 1.6-.3.6 0 1.1.1 1.6.3.5.2.9.5 1.2.9.3.4.6.8.8 1.3.2.5.3 1 .3 1.6 0 .6-.1 1.1-.3 1.6-.2.5-.4.9-.8 1.3-.3.4-.7.7-1.2.9-.5.2-1 .3-1.6.3-.6 0-1.1-.1-1.6-.3-.5-.2-.9-.5-1.2-.9-.3-.4-.6-.8-.8-1.3-.2-.5-.3-1-.3-1.6 0-.5.1-1.1.3-1.6zm1.5 2.6c.1.3.2.6.4.8.2.2.4.4.7.6.3.1.6.2 1 .2s.7-.1 1-.2c.3-.1.5-.3.7-.6.2-.2.3-.5.4-.8.1-.3.1-.6.1-1 0-.3 0-.7-.1-1-.1-.3-.2-.6-.4-.9s-.4-.5-.7-.6c-.3-.1-.6-.2-1-.2s-.7.1-1 .2c-.3.1-.5.4-.7.6s-.3.5-.4.9c-.1.3-.1.7-.1 1 0 .4.1.7.1 1z"/></g></svg>