<svg id="Layer_1" xmlns="http://www.w3.org/2000/svg" viewBox="0 0 728 90"><style>.st0{fill:#349946}.st1{fill:#231f20}</style><path class="st0" d="M520.7 80.1h-2.2l-.7-2.1h-4.3l-.7 2.1h-2.2l3.8-10h1.6c.5 0 .9.2 1 .6.1.4 1.9 4.9 1.9 4.9h-2l-1.2-3.4-1.6 4.3h4.3c.6 0 .9.2 1.1.7l1.2 2.9zM539.7 80.1h-2.2l-.7-2.1h-4.3l-.7 2.1h-2.2l3.8-10h1.6c.5 0 .9.2 1 .6.1.4 1.9 4.9 1.9 4.9h-2l-1.2-3.4-1.6 4.3h4.3c.6 0 .9.2 1.1.7l1.2 2.9zM521.4 70h3.9c3.1 0 4.6 1.6 4.6 5 0 1.9-.6 3.3-1.6 4.1-1 .8-2.1.9-3.5.9h-3.4V70zm3.7 8.3c1.9 0 2.7-.9 2.7-3.2 0-2.2-.8-3.3-2.5-3.3h-1.9v6.5h1.7z"/><path class="st1" d="M556.8 80h-1.6l-.7-7.2-2.4 7.2h-1.4l-2.5-7.2-.6 7.2h-1.5l.9-9.5h1.8l2.6 7.3 2.5-7.3h1.8l1.1 9.5zM564.5 76.4v.5h-4.7c0 .5.1.9.4 1.3.4.4.9.6 1.5.6s1.2-.2 1.9-.5l.5 1c-.7.5-1.6.8-2.6.8-1.1 0-1.9-.3-2.5-1-.6-.7-.9-1.5-.9-2.6s.3-2 .9-2.7c.6-.7 1.4-1 2.4-1 .9 0 1.7.3 2.2 1s.9 1.5.9 2.6zm-1.4-.6c0-.4-.1-.8-.3-1.1-.3-.4-.7-.7-1.2-.7s-.9.2-1.2.5c-.3.3-.5.8-.6 1.3h3.3zM575.9 80h-1.6v-3.9c0-.8-.1-1.3-.3-1.5-.2-.2-.5-.3-.9-.3-.5 0-1 .2-1.6.5.1.2.1.7.1 1.6V80H570v-3.8c0-.9-.1-1.5-.3-1.7-.2-.2-.4-.3-.8-.3-.5 0-1 .2-1.5.5V80H566v-7h1.4v.5c.6-.5 1.3-.7 2-.7s1.3.3 1.7.8c.8-.5 1.6-.8 2.3-.8.7 0 1.3.2 1.7.6.3.3.6.8.7 1.3.1.3.1.9.1 1.8V80zM584 76.4c0 1.1-.3 2.1-1 2.8-.7.7-1.5 1.1-2.6 1.1-.8 0-1.7-.2-2.7-.5v-10h1.6v3.7c.6-.4 1.1-.5 1.8-.5.9 0 1.6.3 2.2 1s.7 1.3.7 2.4zm-1.6 0c0-.7-.2-1.3-.5-1.7-.3-.4-.7-.6-1.2-.6s-1 .2-1.5.5v4.1c.4.1.8.2 1.2.2.6 0 1.1-.2 1.5-.7.4-.5.5-1.1.5-1.8zM591.5 76.4v.5h-4.7c0 .5.1.9.4 1.3.4.4.9.6 1.5.6s1.2-.2 1.9-.5l.5 1c-.7.5-1.6.8-2.6.8-1.1 0-1.9-.3-2.5-1-.6-.7-.9-1.5-.9-2.6s.3-2 .9-2.7c.6-.7 1.4-1 2.4-1 .9 0 1.7.3 2.2 1s.9 1.5.9 2.6zm-1.5-.6c0-.4-.1-.8-.3-1.1-.3-.4-.7-.7-1.2-.7s-.9.2-1.2.5c-.3.3-.5.8-.6 1.3h3.3zM597.4 73l-.4 1.2h-.5c-.8 0-1.5.4-2 1.1V80H593v-7h1.4v.9c.1-.2.3-.4.6-.6.5-.3 1-.5 1.6-.5.3 0 .5.1.8.2z"/><g><path class="st1" d="M603.1 78c0 .7-.2 1.2-.7 1.6s-1.1.6-1.9.6c-.6 0-1.2-.1-1.8-.3-.4-.1-.6-.3-.7-.4l.6-1c.7.4 1.3.5 1.8.5.4 0 .7-.1.9-.2.2-.2.3-.4.3-.6s-.1-.5-.4-.6c-.1-.1-.5-.3-1.1-.5-.6-.2-1-.5-1.2-.7-.4-.4-.6-.8-.6-1.4 0-.6.2-1.1.7-1.5.5-.4 1.1-.6 1.9-.6 1 0 1.7.2 2.3.6l-.5 1c-.6-.3-1.1-.5-1.6-.5-.7 0-1.1.3-1.1.8 0 .2.1.4.4.6.1.1.4.2.9.4.7.3 1.2.5 1.4.7.2.4.4.9.4 1.5zM609.9 80h-1.7v-9.5h1.7V80zM617.8 80h-1.6v-3.8c0-.9-.1-1.5-.3-1.7-.2-.2-.5-.3-.9-.3-.5 0-1 .2-1.6.5V80h-1.6v-7h1.4v.5c.7-.5 1.3-.7 2.1-.7.7 0 1.3.2 1.7.6.3.3.5.7.6 1.2.1.3.1.8.1 1.4v4zM624.2 78c0 .7-.2 1.2-.7 1.6s-1.1.6-1.9.6c-.6 0-1.2-.1-1.8-.3-.4-.1-.6-.3-.7-.4l.6-1c.7.4 1.3.5 1.8.5.4 0 .7-.1.9-.2.2-.2.3-.4.3-.6s-.1-.5-.4-.6c-.1-.1-.5-.3-1.1-.5-.6-.2-1-.5-1.2-.7-.4-.4-.6-.8-.6-1.4 0-.6.2-1.1.7-1.5.5-.4 1.1-.6 1.9-.6 1 0 1.7.2 2.3.6l-.5 1c-.6-.3-1.1-.5-1.6-.5-.7 0-1.1.3-1.1.8 0 .2.1.4.4.6.1.1.4.2.9.4.7.3 1.2.5 1.4.7.2.4.4.9.4 1.5zM631.6 80h-1.4v-.5c-.6.5-1.3.7-2.1.7-.7 0-1.3-.2-1.7-.6-.3-.3-.5-.7-.6-1.2-.1-.3-.1-.8-.1-1.4v-4h1.6v4.7c0 .4.2.7.4.8.2.2.5.2.8.2.4 0 .9-.2 1.5-.5V73h1.6v7zM637.9 73l-.4 1.2h-.5c-.8 0-1.5.4-2 1.1V80h-1.6v-7h1.4v.9c.1-.2.3-.4.6-.6.5-.3 1-.5 1.6-.5.4 0 .6.1.9.2z"/></g><g><path class="st1" d="M644 80h-1.4v-.5c-.7.4-1.4.7-2.1.7-.7 0-1.2-.2-1.6-.6-.4-.4-.6-.9-.6-1.6 0-1.6 1.3-2.4 3.9-2.4h.3v-.3c0-.4-.1-.7-.2-.9-.2-.2-.6-.3-1.1-.3-.6 0-1.2.2-1.9.5l-.5-1c.2-.1.4-.3.7-.4.6-.2 1.2-.3 1.8-.3 1 0 1.7.2 2.2.7.2.2.4.6.5.9 0 .2.1.6.1 1.2V80zm-1.5-1.5v-1.8h-.3c-1.1 0-1.8.2-2.2.5-.2.2-.3.4-.3.7 0 .3.1.6.3.8.2.2.5.3.9.3.5-.1 1-.2 1.6-.5zM651.6 80H650v-3.8c0-.9-.1-1.5-.3-1.7-.2-.2-.5-.3-.9-.3-.5 0-1 .2-1.6.5V80h-1.6v-7h1.4v.5c.7-.5 1.3-.7 2.1-.7.7 0 1.3.2 1.7.6.3.3.5.7.6 1.2.1.3.1.8.1 1.4v4zM659 79.4c-.1.1-.3.3-.7.4-.6.3-1.2.4-1.8.4-1 0-1.9-.3-2.5-1-.6-.7-1-1.5-1-2.6s.3-2 1-2.7c.7-.7 1.5-1.1 2.6-1.1.6 0 1.1.1 1.6.4.3.2.6.3.7.4l-.6 1c-.5-.3-1-.5-1.6-.5-.6 0-1.2.2-1.6.7-.4.4-.6 1-.6 1.6 0 .7.2 1.3.5 1.7.4.4.9.7 1.5.7.5 0 1.1-.2 1.8-.5l.7 1.1z"/></g><g><path class="st1" d="M666 76.4v.5h-4.7c0 .5.1.9.4 1.3.4.4.9.6 1.5.6s1.2-.2 1.9-.5l.5 1c-.7.5-1.6.8-2.6.8-1.1 0-1.9-.3-2.5-1-.6-.7-.9-1.5-.9-2.6s.3-2 .9-2.7c.6-.7 1.4-1 2.4-1 .9 0 1.7.3 2.2 1s.9 1.5.9 2.6zm-1.5-.6c0-.4-.1-.8-.3-1.1-.3-.4-.7-.7-1.2-.7s-.9.2-1.2.5c-.3.3-.5.8-.6 1.3h3.3zM677.5 73.3c0 .9-.3 1.6-.8 2.1-.4.4-.9.7-1.5.8-.4.1-.9.1-1.8.1h-.7V80h-1.6v-9.5h2.5c.8 0 1.3 0 1.7.1.6.1 1 .3 1.3.7.6.5.9 1.2.9 2zm-1.7.1c0-.5-.1-.9-.4-1.2-.3-.3-.8-.4-1.8-.4h-.9V75h.7c1 0 1.7-.1 2-.4.3-.3.4-.7.4-1.2zM680.7 80h-1.6V69.7h1.6V80zM687.9 80h-1.4v-.5c-.7.4-1.4.7-2.1.7-.7 0-1.2-.2-1.6-.6-.4-.4-.6-.9-.6-1.6 0-1.6 1.3-2.4 3.9-2.4h.3v-.3c0-.4-.1-.7-.2-.9-.2-.2-.6-.3-1.1-.3-.6 0-1.2.2-1.9.5l-.5-1c.2-.1.4-.3.7-.4.6-.2 1.2-.3 1.8-.3 1 0 1.7.2 2.2.7.2.2.4.6.5.9 0 .2.1.6.1 1.2V80zm-1.5-1.5v-1.8h-.4c-1.1 0-1.8.2-2.2.5-.2.2-.3.4-.3.7 0 .3.1.6.3.8.2.2.5.3.9.3.6-.1 1.1-.2 1.7-.5zM695.5 80h-1.6v-3.8c0-.9-.1-1.5-.3-1.7-.2-.2-.5-.3-.9-.3-.5 0-1 .2-1.6.5V80h-1.6v-7h1.4v.5c.7-.5 1.3-.7 2.1-.7.7 0 1.3.2 1.7.6.3.3.5.7.6 1.2.1.3.1.8.1 1.4v4zM701.9 78c0 .7-.2 1.2-.7 1.6s-1.1.6-1.9.6c-.6 0-1.2-.1-1.8-.3-.4-.1-.6-.3-.7-.4l.6-1c.7.4 1.3.5 1.8.5.4 0 .7-.1.9-.2.2-.2.3-.4.3-.6s-.1-.5-.4-.6c-.1-.1-.5-.3-1.1-.5-.6-.2-1-.5-1.2-.7-.4-.4-.6-.8-.6-1.4 0-.6.2-1.1.7-1.5.5-.4 1.1-.6 1.9-.6 1 0 1.7.2 2.3.6l-.5 1c-.6-.3-1.1-.5-1.6-.5-.7 0-1.1.3-1.1.8 0 .2.1.4.4.6.1.1.4.2.9.4.7.3 1.2.5 1.4.7.1.4.4.9.4 1.5z"/></g><path class="st0" d="M541.1 80.1c-.7 0-1.2-.5-1.2-1.2s.5-1.2 1.2-1.2 1.2.5 1.2 1.2-.5 1.2-1.2 1.2m0-2.1c-.5 0-.9.4-.9.9s.4.9.9.9.9-.4.9-.9-.4-.9-.9-.9m.3 1.5l-.1-.3c-.1-.2-.1-.2-.3-.2v.5h-.2v-1.2h.3c.2 0 .3 0 .4.1.1.1.1.2.1.3 0 .1-.1.2-.2.3.1 0 .1.1.1.1l.2.4h-.3zm-.2-1h-.2v.3h.2c.1 0 .1-.1.1-.2 0 0 0-.1-.1-.1"/></svg>