<svg id="Layer_1" xmlns="http://www.w3.org/2000/svg" xmlns:xlink="http://www.w3.org/1999/xlink" viewBox="0 0 728 90"><style>.st0,.st1{clip-path:url(#SVGID_00000109734301377113270010000007760929433896150455_);fill:#231f20}.st1{fill:#22b0e6}</style><defs><path id="SVGID_1_" d="M574 42h64.2v21.8H574z"/></defs><clipPath id="SVGID_00000013880833238279034090000007186709046018307248_"><use xlink:href="#SVGID_1_" overflow="visible"/></clipPath><path d="M574.4 53.7h3.4c2.7 0 3.3 1.8 3.3 3s-.5 2.9-3.3 2.9H576v3.7h-1.7v-9.6zm1.7 4.6h1.7c.8 0 1.7-.4 1.7-1.6 0-1.3-.8-1.6-1.6-1.6h-1.7v3.2zM582.1 56.4h1.4v1.3c.2-.7 1.1-1.5 2-1.5h.6v1.5c-.2 0-.4-.1-.7-.1-1 0-1.9.8-1.9 2.4v3.3H582v-6.9zM586.4 59.8c0-2.1 1.3-3.6 3.5-3.6s3.5 1.5 3.5 3.6-1.3 3.7-3.5 3.7c-2.3 0-3.5-1.5-3.5-3.7m5.4 0c0-1.2-.6-2.4-2-2.4s-2 1.2-2 2.4.6 2.5 2 2.5 2-1.3 2-2.5M593.6 56.4h1.2v-2.1h1.5v2.1h1.4v1.1h-1.4v3.7c0 .6.1 1 .7 1 .2 0 .4 0 .6-.1v1.2c-.3 0-.7.1-1 .1-1.6 0-1.9-.6-1.9-1.8v-4.1h-1.2v-1.1zM599.8 60.2c0 1.1.6 2 1.9 2 .9 0 1.4-.4 1.7-1.2h1.4c-.3 1.5-1.6 2.4-3.1 2.4-2.2 0-3.4-1.5-3.4-3.6 0-2 1.3-3.7 3.4-3.7 2.2 0 3.5 2 3.3 4h-5.2zm3.6-1c-.1-1-.7-1.8-1.7-1.8-1.1 0-1.8.8-1.8 1.8h3.5zM610.7 58.7c-.1-.8-.7-1.3-1.6-1.3-.8 0-1.9.4-1.9 2.5 0 1.2.5 2.4 1.8 2.4.9 0 1.5-.6 1.6-1.6h1.5c-.3 1.8-1.4 2.8-3.2 2.8-2.2 0-3.4-1.5-3.4-3.6s1.1-3.7 3.4-3.7c1.6 0 3 .8 3.1 2.5h-1.3zM612.6 56.4h1.2v-2.1h1.5v2.1h1.4v1.1h-1.4v3.7c0 .6.1 1 .7 1 .2 0 .4 0 .6-.1v1.2c-.3 0-.7.1-1 .1-1.6 0-1.9-.6-1.9-1.8v-4.1h-1.2v-1.1zM618.5 53.7h1.5v1.4h-1.5v-1.4zm0 2.7h1.5v6.9h-1.5v-6.9zM621.1 56.4h1.6l2.2 5.3 2.1-5.3h1.6l-2.9 6.9H624zM630.5 60.2c0 1.1.6 2 1.9 2 .9 0 1.4-.4 1.7-1.2h1.4c-.3 1.5-1.6 2.4-3.1 2.4-2.2 0-3.4-1.5-3.4-3.6 0-2 1.3-3.7 3.3-3.7 2.2 0 3.5 2 3.3 4h-5.1zm3.6-1c-.1-1-.7-1.8-1.7-1.8-1.1 0-1.8.8-1.8 1.8h3.5z" clip-path="url(#SVGID_00000013880833238279034090000007186709046018307248_)" fill="#231f20"/><path d="M615.6 52.1c-1-3.8-4-6.8-7.8-7.8-.3-1.2-1.4-2-2.7-2-1.3 0-2.4.9-2.7 2-3.8 1-6.8 3.9-7.8 7.8l-.1.4h2.3l.1-.2c.9-2.8 3.1-4.9 5.8-5.7.5.8 1.4 1.4 2.4 1.4s2-.6 2.5-1.4c2.7.8 4.9 2.9 5.8 5.7l.1.2h2.3l-.2-.4z" clip-path="url(#SVGID_00000013880833238279034090000007186709046018307248_)" fill="#22b0e6"/><path d="M637.2 62.1c.4 0 .7.3.7.7s-.3.7-.7.7c-.4 0-.7-.3-.7-.7s.3-.7.7-.7m.5.7c0-.3-.2-.6-.6-.6s-.6.3-.6.6.2.6.6.6.6-.3.6-.6m-.8-.4h.3c.2 0 .3.1.3.2s-.1.2-.2.2l.2.3h-.1l-.2-.3h-.2v.3h-.1v-.7zm.3.4c.1 0 .2 0 .2-.1s-.1-.1-.2-.1h-.2v.2h.2z" clip-path="url(#SVGID_00000013880833238279034090000007186709046018307248_)" fill="#231f20"/></svg>