<?xml version="1.0" encoding="utf-8"?>
<!-- Generator: Adobe Illustrator 26.1.0, SVG Export Plug-In . SVG Version: 6.00 Build 0)  -->
<svg version="1.1" id="Layer_1" xmlns="http://www.w3.org/2000/svg" xmlns:xlink="http://www.w3.org/1999/xlink" x="0px" y="0px"
	 viewBox="0 0 300 250" style="enable-background:new 0 0 300 250;" xml:space="preserve">
<style type="text/css">
	.st0{fill:#339933;}
</style>
<g>
	<path d="M33.6,47.7v3.7H23v4.3h9.8v3.5H23v5h10.9v3.7H18.5V47.7H33.6z"/>
	<path d="M40.1,67.9l-5-14.6h4.2l3.1,10h0.1l3.1-10h4l-5,14.6H40.1z"/>
	<path d="M55.5,64.4c0.6,0.6,1.5,0.9,2.6,0.9c0.8,0,1.5-0.2,2.1-0.6c0.6-0.4,0.9-0.8,1.1-1.3h3.5c-0.6,1.8-1.4,3-2.6,3.8
		s-2.6,1.1-4.2,1.1c-1.2,0-2.2-0.2-3.1-0.6c-0.9-0.4-1.7-0.9-2.3-1.6c-0.6-0.7-1.1-1.5-1.5-2.4c-0.3-0.9-0.5-2-0.5-3.1
		c0-1.1,0.2-2.1,0.5-3.1c0.4-0.9,0.9-1.8,1.5-2.4c0.7-0.7,1.4-1.2,2.4-1.6c0.9-0.4,1.9-0.6,3-0.6c1.2,0,2.3,0.2,3.3,0.7
		c0.9,0.5,1.7,1.1,2.3,1.9c0.6,0.8,1,1.7,1.3,2.8c0.3,1,0.4,2.1,0.3,3.3H54.5C54.5,62.9,54.8,63.8,55.5,64.4z M60,56.7
		c-0.5-0.5-1.2-0.8-2.2-0.8c-0.6,0-1.2,0.1-1.6,0.3s-0.8,0.5-1,0.8c-0.3,0.3-0.4,0.7-0.5,1c-0.1,0.4-0.2,0.7-0.2,1H61
		C60.8,58,60.5,57.2,60,56.7z"/>
	<path d="M71.2,53.3v2h0.1c0.5-0.8,1.2-1.5,2-1.9c0.8-0.4,1.6-0.6,2.5-0.6c1.1,0,2,0.1,2.6,0.4c0.7,0.3,1.2,0.7,1.6,1.2
		s0.7,1.2,0.8,1.9c0.2,0.7,0.2,1.6,0.2,2.5v9h-4v-8.3c0-1.2-0.2-2.1-0.6-2.7c-0.4-0.6-1-0.9-2-0.9c-1.1,0-1.9,0.3-2.4,1
		c-0.5,0.7-0.7,1.7-0.7,3.2v7.7h-4V53.3H71.2z"/>
	<path d="M100.1,53.3V56h-2.9v7.2c0,0.7,0.1,1.1,0.3,1.4c0.2,0.2,0.7,0.3,1.4,0.3c0.2,0,0.4,0,0.7,0c0.2,0,0.4,0,0.6-0.1v3.1
		C99.7,68,99.3,68,98.9,68c-0.4,0-0.8,0-1.2,0c-0.6,0-1.2,0-1.8-0.1s-1-0.2-1.5-0.5c-0.4-0.2-0.8-0.6-1-1c-0.2-0.5-0.4-1-0.4-1.8V56
		h-2.4v-2.7h2.4v-4.4h4v4.4H100.1z"/>
	<path d="M106,47.7v7.6h0.1c0.5-0.8,1.2-1.5,2-1.9c0.8-0.4,1.6-0.6,2.3-0.6c1.1,0,2,0.1,2.6,0.4c0.7,0.3,1.2,0.7,1.6,1.2
		s0.7,1.2,0.8,1.9c0.2,0.7,0.2,1.6,0.2,2.5v9h-4v-8.3c0-1.2-0.2-2.1-0.6-2.7c-0.4-0.6-1-0.9-2-0.9c-1.1,0-1.9,0.3-2.4,1
		c-0.5,0.7-0.7,1.7-0.7,3.2v7.7h-4V47.7H106z"/>
	<path d="M123.1,64.4c0.6,0.6,1.5,0.9,2.6,0.9c0.8,0,1.5-0.2,2.1-0.6c0.6-0.4,0.9-0.8,1.1-1.3h3.5c-0.6,1.8-1.4,3-2.6,3.8
		s-2.6,1.1-4.2,1.1c-1.2,0-2.2-0.2-3.1-0.6c-0.9-0.4-1.7-0.9-2.3-1.6c-0.6-0.7-1.1-1.5-1.5-2.4c-0.3-0.9-0.5-2-0.5-3.1
		c0-1.1,0.2-2.1,0.5-3.1c0.4-0.9,0.9-1.8,1.5-2.4c0.7-0.7,1.4-1.2,2.4-1.6c0.9-0.4,1.9-0.6,3-0.6c1.2,0,2.3,0.2,3.3,0.7
		c0.9,0.5,1.7,1.1,2.3,1.9c0.6,0.8,1,1.7,1.3,2.8c0.3,1,0.4,2.1,0.3,3.3h-10.6C122.1,62.9,122.5,63.8,123.1,64.4z M127.6,56.7
		c-0.5-0.5-1.2-0.8-2.2-0.8c-0.6,0-1.2,0.1-1.6,0.3s-0.8,0.5-1,0.8c-0.3,0.3-0.4,0.7-0.5,1c-0.1,0.4-0.2,0.7-0.2,1h6.5
		C128.4,58,128.1,57.2,127.6,56.7z"/>
	<path d="M152.8,47.7c1,0,1.8,0.1,2.6,0.3c0.8,0.2,1.5,0.4,2,0.8c0.6,0.4,1,0.9,1.3,1.5s0.5,1.4,0.5,2.4c0,1-0.2,1.9-0.7,2.5
		s-1.1,1.2-2.1,1.7c1.2,0.4,2.2,1,2.8,1.9c0.6,0.9,0.9,2,0.9,3.2c0,1-0.2,1.9-0.6,2.6c-0.4,0.7-0.9,1.4-1.6,1.8
		c-0.7,0.5-1.4,0.8-2.3,1c-0.9,0.2-1.7,0.3-2.6,0.3h-9.8V47.7H152.8z M152.2,55.9c0.8,0,1.4-0.2,2-0.6c0.5-0.4,0.8-1,0.8-1.8
		c0-0.5-0.1-0.9-0.3-1.2c-0.2-0.3-0.4-0.5-0.7-0.7c-0.3-0.2-0.6-0.3-1-0.4s-0.8-0.1-1.1-0.1h-4.2v4.7H152.2z M152.5,64.5
		c0.4,0,0.8,0,1.2-0.1c0.4-0.1,0.7-0.2,1-0.4c0.3-0.2,0.5-0.5,0.7-0.8c0.2-0.3,0.3-0.8,0.3-1.3c0-1-0.3-1.8-0.9-2.2
		c-0.6-0.4-1.4-0.7-2.3-0.7h-4.8v5.5H152.5z"/>
	<path d="M178.3,47.7v3.7h-10.7v4.3h9.8v3.5h-9.8v5h10.9v3.7h-15.3V47.7H178.3z"/>
	<path d="M184.9,62.9c0.2,0.5,0.6,0.9,1,1.1c0.4,0.3,0.9,0.5,1.4,0.7c0.5,0.1,1.1,0.2,1.7,0.2c0.4,0,0.8,0,1.3-0.1
		c0.5-0.1,0.9-0.2,1.3-0.4c0.4-0.2,0.7-0.4,1-0.8c0.3-0.3,0.4-0.7,0.4-1.3c0-0.5-0.2-1-0.5-1.3c-0.3-0.3-0.8-0.6-1.4-0.8
		c-0.6-0.2-1.2-0.4-1.9-0.6c-0.7-0.2-1.4-0.4-2.2-0.6c-0.8-0.2-1.5-0.4-2.2-0.7c-0.7-0.3-1.4-0.6-1.9-1.1c-0.6-0.4-1-1-1.4-1.6
		c-0.3-0.7-0.5-1.4-0.5-2.4c0-1,0.2-1.9,0.7-2.7s1-1.4,1.7-1.9s1.5-0.9,2.4-1.1c0.9-0.2,1.8-0.4,2.7-0.4c1.1,0,2.1,0.1,3,0.4
		c1,0.2,1.8,0.6,2.6,1.1c0.8,0.5,1.4,1.2,1.8,2c0.4,0.8,0.7,1.8,0.7,3h-4.3c0-0.6-0.2-1.1-0.4-1.5c-0.2-0.4-0.5-0.7-0.9-0.9
		c-0.4-0.2-0.8-0.4-1.2-0.5c-0.5-0.1-1-0.1-1.5-0.1c-0.4,0-0.7,0-1.1,0.1c-0.4,0.1-0.7,0.2-1,0.4c-0.3,0.2-0.5,0.4-0.7,0.7
		c-0.2,0.3-0.3,0.6-0.3,1.1c0,0.4,0.1,0.7,0.2,1c0.2,0.2,0.4,0.5,0.9,0.7c0.4,0.2,1.1,0.4,1.8,0.6c0.8,0.2,1.8,0.5,3.1,0.8
		c0.4,0.1,0.9,0.2,1.6,0.4c0.7,0.2,1.3,0.5,2,0.9c0.7,0.4,1.2,1,1.7,1.7c0.5,0.7,0.7,1.7,0.7,2.8c0,0.9-0.2,1.8-0.5,2.6
		c-0.4,0.8-0.9,1.5-1.6,2.1c-0.7,0.6-1.6,1-2.6,1.3s-2.3,0.5-3.6,0.5c-1.1,0-2.2-0.1-3.2-0.4c-1-0.3-2-0.7-2.8-1.3s-1.4-1.3-1.9-2.2
		c-0.5-0.9-0.7-2-0.7-3.2h4.3C184.6,61.9,184.7,62.5,184.9,62.9z"/>
	<path d="M198.3,51.4v-3.7h16.5v3.7h-6.1v16.5h-4.4V51.4H198.3z"/>
	<path d="M221.6,58.5v3.5h-8.5v-3.5H221.6z"/>
</g>
<g>
	<path d="M22.2,77v20.2h-4V77H22.2z"/>
	<path d="M25.2,87c0.1-0.9,0.3-1.7,0.7-2.3c0.4-0.6,0.9-1.1,1.6-1.5c0.6-0.4,1.4-0.6,2.2-0.8c0.8-0.2,1.6-0.2,2.4-0.2
		c0.7,0,1.5,0.1,2.2,0.2c0.8,0.1,1.4,0.3,2.1,0.6c0.6,0.3,1.1,0.7,1.5,1.3s0.6,1.2,0.6,2.1v7.6c0,0.7,0,1.3,0.1,1.9
		c0.1,0.6,0.2,1.1,0.4,1.4H35c-0.1-0.2-0.1-0.5-0.2-0.7c0-0.2-0.1-0.5-0.1-0.7c-0.6,0.7-1.4,1.1-2.3,1.4c-0.9,0.3-1.8,0.4-2.7,0.4
		c-0.7,0-1.3-0.1-2-0.3c-0.6-0.2-1.1-0.4-1.6-0.8c-0.5-0.4-0.8-0.8-1.1-1.4c-0.3-0.5-0.4-1.2-0.4-2c0-0.8,0.1-1.5,0.4-2.1
		s0.7-1,1.1-1.3c0.5-0.3,1-0.6,1.6-0.7c0.6-0.2,1.2-0.3,1.8-0.4c0.6-0.1,1.2-0.2,1.8-0.2c0.6-0.1,1.1-0.1,1.6-0.3s0.8-0.3,1.1-0.5
		c0.3-0.2,0.4-0.5,0.4-0.9c0-0.4-0.1-0.8-0.2-1c-0.1-0.3-0.3-0.5-0.6-0.6c-0.2-0.1-0.5-0.2-0.8-0.3c-0.3,0-0.6-0.1-1-0.1
		c-0.8,0-1.4,0.2-1.9,0.5c-0.5,0.3-0.7,0.9-0.8,1.7H25.2z M34.5,90c-0.2,0.2-0.4,0.3-0.6,0.4c-0.3,0.1-0.5,0.2-0.8,0.2
		s-0.6,0.1-0.9,0.1c-0.3,0-0.6,0.1-1,0.1c-0.3,0.1-0.6,0.1-0.9,0.2c-0.3,0.1-0.5,0.2-0.8,0.4c-0.2,0.2-0.4,0.4-0.5,0.6
		c-0.1,0.2-0.2,0.6-0.2,0.9c0,0.4,0.1,0.7,0.2,0.9c0.1,0.2,0.3,0.4,0.5,0.6c0.2,0.1,0.5,0.2,0.8,0.3s0.6,0.1,0.9,0.1
		c0.8,0,1.4-0.1,1.8-0.4c0.4-0.3,0.8-0.6,1-0.9s0.3-0.7,0.4-1.1c0-0.4,0.1-0.7,0.1-0.9V90z"/>
	<path d="M41.8,80.3V77h4v3.3H41.8z M45.8,82.5v14.6h-4V82.5H45.8z"/>
	<path d="M59.3,95.3c-0.5,0.8-1.1,1.4-1.9,1.7c-0.8,0.3-1.6,0.5-2.6,0.5c-1.1,0-2.1-0.2-2.9-0.6c-0.8-0.4-1.5-1-2.1-1.7
		c-0.5-0.7-0.9-1.6-1.2-2.5c-0.3-0.9-0.4-1.9-0.4-2.9c0-1,0.1-1.9,0.4-2.8c0.3-0.9,0.7-1.7,1.2-2.4c0.5-0.7,1.2-1.3,2-1.7
		s1.8-0.6,2.8-0.6c0.9,0,1.7,0.2,2.5,0.6c0.8,0.4,1.4,0.9,1.9,1.6h0.1V77h4v20.2h-3.8L59.3,95.3L59.3,95.3z M59.2,88.1
		c-0.1-0.6-0.3-1-0.6-1.5c-0.3-0.4-0.6-0.8-1.1-1s-1-0.4-1.6-0.4c-0.7,0-1.2,0.1-1.7,0.4c-0.5,0.3-0.8,0.6-1.1,1
		c-0.3,0.4-0.5,0.9-0.6,1.5c-0.1,0.6-0.2,1.1-0.2,1.7c0,0.6,0.1,1.1,0.2,1.7c0.1,0.6,0.3,1.1,0.6,1.5c0.3,0.4,0.7,0.8,1.1,1.1
		c0.4,0.3,1,0.4,1.6,0.4c0.7,0,1.2-0.1,1.7-0.4c0.4-0.3,0.8-0.6,1.1-1.1c0.3-0.4,0.5-0.9,0.6-1.5s0.2-1.2,0.2-1.8
		S59.3,88.6,59.2,88.1z"/>
	<path d="M83.6,77c1.3,0,2.3,0.2,3.2,0.6s1.6,0.9,2.2,1.5c0.6,0.6,1,1.3,1.2,2.1c0.3,0.8,0.4,1.6,0.4,2.4c0,0.8-0.1,1.6-0.4,2.4
		c-0.3,0.8-0.7,1.5-1.2,2.1c-0.6,0.6-1.3,1.1-2.2,1.5c-0.9,0.4-2,0.6-3.2,0.6H79v7.2h-4.4V77H83.6z M82.4,86.5c0.5,0,1,0,1.5-0.1
		c0.5-0.1,0.9-0.2,1.2-0.4c0.4-0.2,0.6-0.5,0.9-0.9s0.3-0.9,0.3-1.6c0-0.6-0.1-1.2-0.3-1.6c-0.2-0.4-0.5-0.7-0.9-0.9
		c-0.4-0.2-0.8-0.4-1.2-0.4c-0.5-0.1-1-0.1-1.5-0.1H79v6.1H82.4z"/>
	<path d="M97.8,77v16.5h9.8v3.7H93.4V77H97.8z"/>
	<path d="M120.2,77l7.6,20.2h-4.6l-1.5-4.5h-7.6l-1.6,4.5H108l7.6-20.2H120.2z M120.5,89.4l-2.5-7.4h-0.1l-2.6,7.4H120.5z"/>
	<path d="M134,77l8.4,13.6h0.1V77h4.2v20.2h-4.4l-8.4-13.5h-0.1v13.5h-4.2V77H134z"/>
	<path d="M153.9,92.2c0.2,0.5,0.6,0.9,1,1.1c0.4,0.3,0.9,0.5,1.4,0.7c0.5,0.1,1.1,0.2,1.7,0.2c0.4,0,0.8,0,1.3-0.1
		c0.5-0.1,0.9-0.2,1.3-0.4c0.4-0.2,0.7-0.4,1-0.8c0.3-0.3,0.4-0.7,0.4-1.3c0-0.5-0.2-1-0.5-1.3c-0.3-0.3-0.8-0.6-1.4-0.8
		c-0.6-0.2-1.2-0.4-1.9-0.6c-0.7-0.2-1.4-0.4-2.2-0.6c-0.8-0.2-1.5-0.4-2.2-0.7c-0.7-0.3-1.4-0.6-1.9-1.1c-0.6-0.4-1-1-1.4-1.6
		c-0.3-0.7-0.5-1.4-0.5-2.4c0-1,0.2-1.9,0.7-2.7c0.4-0.8,1-1.4,1.7-1.9s1.5-0.9,2.4-1.1c0.9-0.2,1.8-0.4,2.7-0.4
		c1.1,0,2.1,0.1,3,0.4c1,0.2,1.8,0.6,2.6,1.1c0.8,0.5,1.4,1.2,1.8,2c0.4,0.8,0.7,1.8,0.7,3h-4.3c0-0.6-0.2-1.1-0.4-1.5
		c-0.2-0.4-0.5-0.7-0.9-0.9c-0.4-0.2-0.8-0.4-1.2-0.5c-0.5-0.1-1-0.1-1.5-0.1c-0.4,0-0.7,0-1.1,0.1c-0.4,0.1-0.7,0.2-1,0.4
		c-0.3,0.2-0.5,0.4-0.7,0.7c-0.2,0.3-0.3,0.6-0.3,1.1c0,0.4,0.1,0.7,0.2,1c0.2,0.2,0.4,0.5,0.9,0.7c0.4,0.2,1.1,0.4,1.8,0.6
		c0.8,0.2,1.8,0.5,3.1,0.8c0.4,0.1,0.9,0.2,1.6,0.4c0.7,0.2,1.3,0.5,2,0.9c0.7,0.4,1.2,1,1.7,1.7c0.5,0.7,0.7,1.7,0.7,2.8
		c0,0.9-0.2,1.8-0.5,2.6c-0.4,0.8-0.9,1.5-1.6,2.1c-0.7,0.6-1.6,1-2.6,1.3s-2.3,0.5-3.6,0.5c-1.1,0-2.2-0.1-3.2-0.4
		c-1-0.3-2-0.7-2.8-1.3s-1.4-1.3-1.9-2.2c-0.5-0.9-0.7-2-0.7-3.2h4.3C153.5,91.1,153.7,91.7,153.9,92.2z"/>
	<path d="M176.4,86.7c0.4-1,0.9-1.8,1.5-2.4c0.7-0.7,1.5-1.2,2.4-1.6s2-0.6,3.1-0.6s2.2,0.2,3.1,0.6s1.7,0.9,2.4,1.6
		s1.2,1.5,1.5,2.4c0.4,1,0.5,2,0.5,3.2s-0.2,2.2-0.5,3.2c-0.4,0.9-0.9,1.7-1.5,2.4s-1.5,1.2-2.4,1.5c-0.9,0.4-2,0.5-3.1,0.5
		s-2.2-0.2-3.1-0.5c-0.9-0.4-1.7-0.9-2.4-1.5c-0.7-0.7-1.2-1.5-1.5-2.4c-0.4-0.9-0.5-2-0.5-3.2S176,87.6,176.4,86.7z M180,91.6
		c0.1,0.6,0.3,1.1,0.6,1.5c0.3,0.4,0.6,0.8,1.1,1.1c0.5,0.3,1,0.4,1.7,0.4s1.2-0.1,1.7-0.4c0.5-0.3,0.8-0.6,1.1-1.1
		c0.3-0.4,0.5-0.9,0.6-1.5c0.1-0.6,0.2-1.1,0.2-1.7s-0.1-1.2-0.2-1.7s-0.3-1.1-0.6-1.5c-0.3-0.4-0.6-0.8-1.1-1.1s-1-0.4-1.7-0.4
		s-1.2,0.1-1.7,0.4c-0.5,0.3-0.8,0.6-1.1,1.1c-0.3,0.4-0.5,0.9-0.6,1.5s-0.2,1.1-0.2,1.7S179.9,91,180,91.6z"/>
	<path d="M192.1,85.2v-2.7h2.4v-1.1c0-1.3,0.4-2.4,1.2-3.2c0.8-0.8,2-1.2,3.7-1.2c0.4,0,0.7,0,1.1,0s0.7,0.1,1,0.1v3
		c-0.5-0.1-1-0.1-1.5-0.1c-0.5,0-0.9,0.1-1.2,0.4c-0.2,0.3-0.4,0.7-0.4,1.3v0.9h2.8v2.7h-2.8v11.9h-4V85.2H192.1z"/>
	<path d="M214.8,82.5v2h0.1c0.5-0.8,1.2-1.3,1.9-1.8c0.7-0.4,1.6-0.6,2.6-0.6c0.9,0,1.8,0.2,2.5,0.5c0.8,0.4,1.3,1,1.7,1.9
		c0.4-0.6,1-1.2,1.8-1.7s1.6-0.7,2.6-0.7c0.8,0,1.5,0.1,2.2,0.3c0.7,0.2,1.2,0.5,1.7,0.9s0.8,1,1.1,1.6c0.3,0.7,0.4,1.5,0.4,2.4v9.8
		h-4v-8.3c0-0.5,0-1-0.1-1.4c0-0.4-0.1-0.8-0.3-1.1c-0.2-0.3-0.4-0.6-0.8-0.8s-0.8-0.3-1.3-0.3c-0.6,0-1,0.1-1.4,0.3
		s-0.6,0.5-0.8,0.8c-0.2,0.3-0.3,0.7-0.4,1.2c-0.1,0.4-0.1,0.9-0.1,1.3v8.1h-4V89c0-0.4,0-0.9,0-1.3s-0.1-0.8-0.2-1.2
		s-0.4-0.6-0.7-0.9s-0.8-0.3-1.5-0.3c-0.2,0-0.4,0-0.8,0.1c-0.3,0.1-0.6,0.2-0.9,0.5c-0.3,0.2-0.5,0.6-0.7,1c-0.2,0.4-0.3,1-0.3,1.7
		v8.5h-4V82.5H214.8z"/>
	<path d="M236.6,80.3V77h4v3.3H236.6z M240.6,82.5v14.6h-4V82.5H240.6z"/>
	<path d="M250.8,85.2c-0.6,0-1.2,0.1-1.6,0.4c-0.4,0.3-0.8,0.7-1.1,1.1c-0.3,0.5-0.5,1-0.6,1.5c-0.1,0.6-0.2,1.1-0.2,1.7
		c0,0.5,0.1,1.1,0.2,1.6c0.1,0.5,0.3,1,0.6,1.5c0.3,0.4,0.6,0.8,1,1.1c0.4,0.3,1,0.4,1.6,0.4c1,0,1.7-0.3,2.2-0.8s0.8-1.3,1-2.2h3.9
		c-0.3,1.9-1,3.4-2.3,4.4c-1.2,1-2.8,1.5-4.8,1.5c-1.1,0-2.1-0.2-3-0.6c-0.9-0.4-1.7-0.9-2.3-1.5c-0.6-0.7-1.1-1.4-1.5-2.4
		c-0.4-0.9-0.5-1.9-0.5-3c0-1.1,0.2-2.2,0.5-3.2c0.3-1,0.8-1.8,1.5-2.5c0.6-0.7,1.4-1.3,2.3-1.7s2-0.6,3.2-0.6
		c0.9,0,1.7,0.1,2.5,0.3c0.8,0.2,1.5,0.6,2.1,1c0.6,0.5,1.1,1,1.5,1.7c0.4,0.7,0.6,1.5,0.7,2.4h-3.9C253.5,86,252.5,85.2,250.8,85.2
		z"/>
	<path d="M264.3,93.7c0.6,0.6,1.5,0.9,2.6,0.9c0.8,0,1.5-0.2,2.1-0.6c0.6-0.4,0.9-0.8,1.1-1.3h3.5c-0.6,1.8-1.4,3-2.6,3.8
		c-1.2,0.8-2.6,1.1-4.2,1.1c-1.2,0-2.2-0.2-3.1-0.6c-0.9-0.4-1.7-0.9-2.3-1.6c-0.6-0.7-1.1-1.5-1.5-2.4c-0.3-0.9-0.5-2-0.5-3.1
		c0-1.1,0.2-2.1,0.5-3.1c0.4-0.9,0.9-1.8,1.5-2.4c0.7-0.7,1.4-1.2,2.4-1.6c0.9-0.4,1.9-0.6,3-0.6c1.2,0,2.3,0.2,3.3,0.7
		c0.9,0.5,1.7,1.1,2.3,1.9c0.6,0.8,1,1.7,1.3,2.8c0.3,1,0.4,2.1,0.3,3.3h-10.6C263.4,92.1,263.7,93.1,264.3,93.7z M268.9,86
		c-0.5-0.5-1.2-0.8-2.2-0.8c-0.6,0-1.2,0.1-1.6,0.3c-0.4,0.2-0.8,0.5-1,0.8c-0.3,0.3-0.4,0.7-0.5,1c-0.1,0.4-0.2,0.7-0.2,1h6.5
		C269.7,87.3,269.4,86.5,268.9,86z"/>
</g>
<g>
	<path d="M17.9,116.3c0.1-0.9,0.3-1.7,0.7-2.3c0.4-0.6,0.9-1.1,1.6-1.5c0.6-0.4,1.4-0.6,2.2-0.8c0.8-0.2,1.6-0.2,2.4-0.2
		c0.7,0,1.5,0.1,2.2,0.2c0.8,0.1,1.4,0.3,2.1,0.6c0.6,0.3,1.1,0.7,1.5,1.3s0.6,1.2,0.6,2.1v7.6c0,0.7,0,1.3,0.1,1.9
		c0.1,0.6,0.2,1.1,0.4,1.4h-4.1c-0.1-0.2-0.1-0.5-0.2-0.7c0-0.2-0.1-0.5-0.1-0.7c-0.6,0.7-1.4,1.1-2.3,1.4c-0.9,0.3-1.8,0.4-2.7,0.4
		c-0.7,0-1.3-0.1-2-0.3c-0.6-0.2-1.1-0.4-1.6-0.8c-0.5-0.4-0.8-0.8-1.1-1.4c-0.3-0.5-0.4-1.2-0.4-2c0-0.8,0.1-1.5,0.4-2.1
		s0.7-1,1.1-1.3c0.5-0.3,1-0.6,1.6-0.7c0.6-0.2,1.2-0.3,1.8-0.4c0.6-0.1,1.2-0.2,1.8-0.2c0.6-0.1,1.1-0.1,1.6-0.3s0.8-0.3,1.1-0.5
		c0.3-0.2,0.4-0.5,0.4-0.9c0-0.4-0.1-0.8-0.2-1c-0.1-0.3-0.3-0.5-0.6-0.6c-0.2-0.1-0.5-0.2-0.8-0.3c-0.3,0-0.6-0.1-1-0.1
		c-0.8,0-1.4,0.2-1.9,0.5c-0.5,0.3-0.7,0.9-0.8,1.7H17.9z M27.2,119.3c-0.2,0.2-0.4,0.3-0.6,0.4c-0.3,0.1-0.5,0.2-0.8,0.2
		s-0.6,0.1-0.9,0.1c-0.3,0-0.6,0.1-1,0.1c-0.3,0.1-0.6,0.1-0.9,0.2c-0.3,0.1-0.5,0.2-0.8,0.4c-0.2,0.2-0.4,0.4-0.5,0.6
		c-0.1,0.2-0.2,0.6-0.2,0.9c0,0.4,0.1,0.7,0.2,0.9c0.1,0.2,0.3,0.4,0.5,0.6c0.2,0.1,0.5,0.2,0.8,0.3s0.6,0.1,0.9,0.1
		c0.8,0,1.4-0.1,1.8-0.4c0.4-0.3,0.8-0.6,1-0.9s0.3-0.7,0.4-1.1c0-0.4,0.1-0.7,0.1-0.9V119.3z"/>
	<path d="M38.2,111.8v2h0.1c0.5-0.8,1.2-1.5,2-1.9c0.8-0.4,1.6-0.6,2.5-0.6c1.1,0,2,0.1,2.6,0.4c0.7,0.3,1.2,0.7,1.6,1.2
		s0.7,1.2,0.8,1.9c0.2,0.7,0.2,1.6,0.2,2.5v9h-4v-8.3c0-1.2-0.2-2.1-0.6-2.7c-0.4-0.6-1-0.9-2-0.9c-1.1,0-1.9,0.3-2.4,1
		c-0.5,0.7-0.7,1.7-0.7,3.2v7.7h-4v-14.6H38.2z"/>
	<path d="M61.5,124.6c-0.5,0.8-1.1,1.4-1.9,1.7c-0.8,0.3-1.6,0.5-2.6,0.5c-1.1,0-2.1-0.2-2.9-0.6c-0.8-0.4-1.5-1-2.1-1.7
		c-0.5-0.7-0.9-1.6-1.2-2.5c-0.3-0.9-0.4-1.9-0.4-2.9c0-1,0.1-1.9,0.4-2.8c0.3-0.9,0.7-1.7,1.2-2.4c0.5-0.7,1.2-1.3,2-1.7
		s1.8-0.6,2.8-0.6c0.9,0,1.7,0.2,2.5,0.6c0.8,0.4,1.4,0.9,1.9,1.6h0.1v-7.4h4v20.2h-3.8L61.5,124.6L61.5,124.6z M61.3,117.3
		c-0.1-0.6-0.3-1-0.6-1.5c-0.3-0.4-0.6-0.8-1.1-1s-1-0.4-1.6-0.4c-0.7,0-1.2,0.1-1.7,0.4c-0.5,0.3-0.8,0.6-1.1,1
		c-0.3,0.4-0.5,0.9-0.6,1.5c-0.1,0.6-0.2,1.1-0.2,1.7c0,0.6,0.1,1.1,0.2,1.7c0.1,0.6,0.3,1.1,0.6,1.5c0.3,0.4,0.7,0.8,1.1,1.1
		c0.4,0.3,1,0.4,1.6,0.4c0.7,0,1.2-0.1,1.7-0.4c0.4-0.3,0.8-0.6,1.1-1.1c0.3-0.4,0.5-0.9,0.6-1.5s0.2-1.2,0.2-1.8
		S61.4,117.9,61.3,117.3z"/>
	<path d="M85.4,106.2c1.3,0,2.5,0.2,3.6,0.6c1.1,0.4,2.1,1,2.9,1.9c0.8,0.8,1.5,1.9,1.9,3.1c0.5,1.2,0.7,2.7,0.7,4.4
		c0,1.5-0.2,2.8-0.6,4.1c-0.4,1.2-0.9,2.3-1.7,3.2c-0.8,0.9-1.7,1.6-2.9,2.1c-1.1,0.5-2.5,0.8-4,0.8h-8.7v-20.2H85.4z M85.1,122.7
		c0.6,0,1.3-0.1,1.9-0.3c0.6-0.2,1.1-0.6,1.6-1s0.8-1.1,1.1-1.9s0.4-1.7,0.4-2.8c0-1-0.1-1.9-0.3-2.8c-0.2-0.8-0.5-1.5-1-2.1
		c-0.5-0.6-1.1-1-1.8-1.3c-0.7-0.3-1.7-0.5-2.8-0.5h-3.2v12.7H85.1z"/>
	<path d="M112.8,106.2v3.7h-10.7v4.3h9.8v3.5h-9.8v5H113v3.7H97.7v-20.2H112.8z"/>
	<path d="M120.4,106.2l8.4,13.6h0.1v-13.6h4.2v20.2h-4.4l-8.4-13.5h-0.1v13.5H116v-20.2H120.4z"/>
	<path d="M135.4,110v-3.7h16.6v3.7h-6.1v16.5h-4.4V110H135.4z"/>
	<path d="M158.7,106.2v20.2h-4.4v-20.2H158.7z"/>
	<path d="M166,121.4c0.2,0.5,0.6,0.9,1,1.1c0.4,0.3,0.9,0.5,1.4,0.7c0.5,0.1,1.1,0.2,1.7,0.2c0.4,0,0.8,0,1.3-0.1
		c0.5-0.1,0.9-0.2,1.3-0.4c0.4-0.2,0.7-0.4,1-0.8c0.3-0.3,0.4-0.7,0.4-1.3c0-0.5-0.2-1-0.5-1.3c-0.3-0.3-0.8-0.6-1.4-0.8
		c-0.6-0.2-1.2-0.4-1.9-0.6c-0.7-0.2-1.4-0.4-2.2-0.6c-0.8-0.2-1.5-0.4-2.2-0.7c-0.7-0.3-1.4-0.6-1.9-1.1c-0.6-0.4-1-1-1.4-1.6
		c-0.3-0.7-0.5-1.4-0.5-2.4c0-1,0.2-1.9,0.7-2.7s1-1.4,1.7-1.9s1.5-0.9,2.4-1.1c0.9-0.2,1.8-0.4,2.7-0.4c1.1,0,2.1,0.1,3,0.4
		c1,0.2,1.8,0.6,2.6,1.1c0.8,0.5,1.4,1.2,1.8,2c0.4,0.8,0.7,1.8,0.7,3h-4.3c0-0.6-0.2-1.1-0.4-1.5c-0.2-0.4-0.5-0.7-0.9-0.9
		c-0.4-0.2-0.8-0.4-1.2-0.5c-0.5-0.1-1-0.1-1.5-0.1c-0.4,0-0.7,0-1.1,0.1c-0.4,0.1-0.7,0.2-1,0.4c-0.3,0.2-0.5,0.4-0.7,0.7
		c-0.2,0.3-0.3,0.6-0.3,1.1c0,0.4,0.1,0.7,0.2,1c0.2,0.2,0.4,0.5,0.9,0.7c0.4,0.2,1.1,0.4,1.8,0.6c0.8,0.2,1.8,0.5,3.1,0.8
		c0.4,0.1,0.9,0.2,1.6,0.4c0.7,0.2,1.3,0.5,2,0.9c0.7,0.4,1.2,1,1.7,1.7c0.5,0.7,0.7,1.7,0.7,2.8c0,0.9-0.2,1.8-0.5,2.6
		c-0.4,0.8-0.9,1.5-1.6,2.1c-0.7,0.6-1.6,1-2.6,1.3s-2.3,0.5-3.6,0.5c-1.1,0-2.2-0.1-3.2-0.4c-1-0.3-2-0.7-2.8-1.3s-1.4-1.3-1.9-2.2
		c-0.5-0.9-0.7-2-0.7-3.2h4.3C165.6,120.4,165.7,121,166,121.4z"/>
	<path d="M179.4,110v-3.7h16.5v3.7h-6.1v16.5h-4.4V110H179.4z"/>
	<path d="M201.6,121.4c0.2,0.5,0.6,0.9,1,1.1c0.4,0.3,0.9,0.5,1.4,0.7c0.5,0.1,1.1,0.2,1.7,0.2c0.4,0,0.8,0,1.3-0.1
		c0.5-0.1,0.9-0.2,1.3-0.4c0.4-0.2,0.7-0.4,1-0.8c0.3-0.3,0.4-0.7,0.4-1.3c0-0.5-0.2-1-0.5-1.3c-0.3-0.3-0.8-0.6-1.4-0.8
		c-0.6-0.2-1.2-0.4-1.9-0.6c-0.7-0.2-1.4-0.4-2.2-0.6c-0.8-0.2-1.5-0.4-2.2-0.7c-0.7-0.3-1.4-0.6-1.9-1.1c-0.6-0.4-1-1-1.4-1.6
		c-0.3-0.7-0.5-1.4-0.5-2.4c0-1,0.2-1.9,0.7-2.7s1-1.4,1.7-1.9s1.5-0.9,2.4-1.1c0.9-0.2,1.8-0.4,2.7-0.4c1.1,0,2.1,0.1,3,0.4
		c1,0.2,1.8,0.6,2.6,1.1c0.8,0.5,1.4,1.2,1.8,2c0.4,0.8,0.7,1.8,0.7,3H209c0-0.6-0.2-1.1-0.4-1.5c-0.2-0.4-0.5-0.7-0.9-0.9
		c-0.4-0.2-0.8-0.4-1.2-0.5c-0.5-0.1-1-0.1-1.5-0.1c-0.4,0-0.7,0-1.1,0.1c-0.4,0.1-0.7,0.2-1,0.4c-0.3,0.2-0.5,0.4-0.7,0.7
		c-0.2,0.3-0.3,0.6-0.3,1.1c0,0.4,0.1,0.7,0.2,1c0.2,0.2,0.4,0.5,0.9,0.7c0.4,0.2,1.1,0.4,1.8,0.6c0.8,0.2,1.8,0.5,3.1,0.8
		c0.4,0.1,0.9,0.2,1.6,0.4c0.7,0.2,1.3,0.5,2,0.9c0.7,0.4,1.2,1,1.7,1.7c0.5,0.7,0.7,1.7,0.7,2.8c0,0.9-0.2,1.8-0.5,2.6
		c-0.4,0.8-0.9,1.5-1.6,2.1c-0.7,0.6-1.6,1-2.6,1.3s-2.3,0.5-3.6,0.5c-1.1,0-2.2-0.1-3.2-0.4c-1-0.3-2-0.7-2.8-1.3s-1.4-1.3-1.9-2.2
		c-0.5-0.9-0.7-2-0.7-3.2h4.3C201.3,120.4,201.4,121,201.6,121.4z"/>
</g>
<g>
	<path class="st0" d="M25.1,143.7c-0.6,0-1.2,0.1-1.6,0.4c-0.4,0.3-0.8,0.7-1.1,1.1c-0.3,0.5-0.5,1-0.6,1.5
		c-0.1,0.6-0.2,1.1-0.2,1.7c0,0.5,0.1,1.1,0.2,1.6s0.3,1,0.6,1.5c0.3,0.4,0.6,0.8,1,1.1c0.4,0.3,1,0.4,1.6,0.4c1,0,1.7-0.3,2.2-0.8
		c0.5-0.5,0.8-1.3,1-2.2h3.9c-0.3,1.9-1,3.4-2.3,4.4c-1.2,1-2.8,1.5-4.8,1.5c-1.1,0-2.1-0.2-3-0.6c-0.9-0.4-1.7-0.9-2.3-1.5
		s-1.1-1.4-1.5-2.4c-0.4-0.9-0.5-1.9-0.5-3c0-1.1,0.2-2.2,0.5-3.2c0.3-1,0.8-1.8,1.5-2.5c0.6-0.7,1.4-1.3,2.3-1.7
		c0.9-0.4,2-0.6,3.2-0.6c0.9,0,1.7,0.1,2.5,0.3c0.8,0.2,1.5,0.6,2.2,1c0.6,0.5,1.1,1,1.5,1.7c0.4,0.7,0.6,1.5,0.7,2.4h-3.9
		C27.8,144.5,26.8,143.7,25.1,143.7z"/>
	<path class="st0" d="M34.2,145.5c0.1-0.9,0.3-1.7,0.7-2.3c0.4-0.6,0.9-1.1,1.6-1.5s1.4-0.6,2.2-0.8c0.8-0.2,1.6-0.2,2.4-0.2
		c0.7,0,1.5,0.1,2.2,0.2c0.8,0.1,1.4,0.3,2.1,0.6c0.6,0.3,1.1,0.7,1.5,1.3c0.4,0.5,0.6,1.2,0.6,2.1v7.6c0,0.7,0,1.3,0.1,1.9
		c0.1,0.6,0.2,1.1,0.4,1.4h-4.1c-0.1-0.2-0.1-0.5-0.2-0.7c0-0.2-0.1-0.5-0.1-0.7c-0.6,0.7-1.4,1.1-2.3,1.4c-0.9,0.3-1.8,0.4-2.7,0.4
		c-0.7,0-1.3-0.1-2-0.3c-0.6-0.2-1.1-0.4-1.6-0.8s-0.8-0.8-1.1-1.4c-0.3-0.5-0.4-1.2-0.4-2c0-0.8,0.1-1.5,0.4-2.1s0.7-1,1.1-1.3
		c0.5-0.3,1-0.6,1.6-0.7c0.6-0.2,1.2-0.3,1.8-0.4c0.6-0.1,1.2-0.2,1.8-0.2c0.6-0.1,1.1-0.1,1.6-0.3c0.5-0.1,0.8-0.3,1.1-0.5
		s0.4-0.5,0.4-0.9c0-0.4-0.1-0.8-0.2-1c-0.1-0.3-0.3-0.5-0.6-0.6c-0.2-0.1-0.5-0.2-0.8-0.3c-0.3,0-0.6-0.1-1-0.1
		c-0.8,0-1.4,0.2-1.9,0.5c-0.5,0.3-0.7,0.9-0.8,1.7H34.2z M43.5,148.5c-0.2,0.2-0.4,0.3-0.6,0.4c-0.3,0.1-0.5,0.2-0.8,0.2
		s-0.6,0.1-0.9,0.1s-0.6,0.1-1,0.1c-0.3,0.1-0.6,0.1-0.9,0.2c-0.3,0.1-0.5,0.2-0.8,0.4c-0.2,0.2-0.4,0.4-0.5,0.6
		c-0.1,0.2-0.2,0.6-0.2,0.9c0,0.4,0.1,0.7,0.2,0.9c0.1,0.2,0.3,0.4,0.5,0.6c0.2,0.1,0.5,0.2,0.8,0.3c0.3,0.1,0.6,0.1,0.9,0.1
		c0.8,0,1.4-0.1,1.8-0.4c0.4-0.3,0.8-0.6,1-0.9c0.2-0.4,0.3-0.7,0.4-1.1c0-0.4,0.1-0.7,0.1-0.9V148.5z"/>
	<path class="st0" d="M54.4,141v2h0.1c0.5-0.8,1.2-1.5,2-1.9c0.8-0.4,1.6-0.6,2.5-0.6c1.1,0,2,0.1,2.6,0.4c0.7,0.3,1.2,0.7,1.6,1.2
		s0.7,1.2,0.8,1.9c0.2,0.7,0.2,1.6,0.2,2.5v9h-4v-8.3c0-1.2-0.2-2.1-0.6-2.7c-0.4-0.6-1-0.9-2-0.9c-1.1,0-1.9,0.3-2.4,1
		c-0.5,0.7-0.7,1.7-0.7,3.2v7.7h-4V141H54.4z"/>
	<path class="st0" d="M78.6,152c0.2,0.3,0.4,0.6,0.7,0.8c0.3,0.2,0.6,0.3,1,0.4c0.4,0.1,0.7,0.1,1.1,0.1c0.3,0,0.6,0,0.9-0.1
		c0.3-0.1,0.6-0.2,0.8-0.3c0.3-0.1,0.5-0.3,0.6-0.6c0.2-0.2,0.3-0.5,0.3-0.9c0-0.6-0.4-1.1-1.2-1.4s-1.9-0.6-3.4-0.9
		c-0.6-0.1-1.2-0.3-1.7-0.5c-0.6-0.2-1.1-0.4-1.5-0.7c-0.4-0.3-0.8-0.7-1-1.1c-0.3-0.4-0.4-1-0.4-1.6c0-0.9,0.2-1.7,0.6-2.3
		c0.4-0.6,0.9-1.1,1.5-1.4c0.6-0.3,1.3-0.6,2-0.7c0.8-0.1,1.5-0.2,2.3-0.2s1.6,0.1,2.3,0.2c0.7,0.2,1.4,0.4,2,0.8
		c0.6,0.4,1.1,0.8,1.5,1.4c0.4,0.6,0.6,1.3,0.7,2.2h-3.8c-0.1-0.8-0.3-1.3-0.9-1.6c-0.5-0.3-1.2-0.4-1.9-0.4c-0.2,0-0.5,0-0.7,0
		c-0.3,0-0.5,0.1-0.7,0.2c-0.2,0.1-0.4,0.2-0.6,0.4c-0.2,0.2-0.2,0.4-0.2,0.7c0,0.4,0.1,0.7,0.4,0.9s0.6,0.4,1,0.6s0.9,0.3,1.5,0.4
		c0.5,0.1,1.1,0.2,1.7,0.4c0.6,0.1,1.2,0.3,1.7,0.5c0.6,0.2,1.1,0.4,1.5,0.8c0.4,0.3,0.8,0.7,1,1.2c0.3,0.5,0.4,1,0.4,1.7
		c0,1-0.2,1.8-0.6,2.4c-0.4,0.7-0.9,1.2-1.5,1.6c-0.6,0.4-1.3,0.7-2.1,0.8c-0.8,0.2-1.6,0.2-2.4,0.2c-0.8,0-1.7-0.1-2.5-0.3
		c-0.8-0.2-1.5-0.5-2.2-0.8c-0.6-0.4-1.2-0.9-1.6-1.6c-0.4-0.7-0.6-1.5-0.7-2.4h3.8C78.3,151.4,78.4,151.7,78.6,152z"/>
	<path class="st0" d="M90.5,145.2c0.4-1,0.9-1.8,1.5-2.4c0.7-0.7,1.5-1.2,2.4-1.6c0.9-0.4,2-0.6,3.1-0.6c1.1,0,2.2,0.2,3.1,0.6
		s1.7,0.9,2.4,1.6c0.7,0.7,1.2,1.5,1.5,2.4c0.4,1,0.5,2,0.5,3.2c0,1.2-0.2,2.2-0.5,3.2c-0.4,0.9-0.9,1.8-1.5,2.4
		c-0.7,0.7-1.5,1.2-2.4,1.5c-0.9,0.4-2,0.5-3.1,0.5c-1.2,0-2.2-0.2-3.1-0.5c-0.9-0.4-1.7-0.9-2.4-1.5c-0.7-0.7-1.2-1.5-1.5-2.4
		c-0.4-0.9-0.5-2-0.5-3.2C90,147.2,90.1,146.1,90.5,145.2z M94.2,150.1c0.1,0.6,0.3,1.1,0.6,1.5c0.3,0.4,0.6,0.8,1.1,1.1
		c0.5,0.3,1,0.4,1.7,0.4c0.7,0,1.2-0.1,1.7-0.4c0.5-0.3,0.8-0.6,1.1-1.1c0.3-0.4,0.5-0.9,0.6-1.5c0.1-0.6,0.2-1.1,0.2-1.7
		s-0.1-1.2-0.2-1.7c-0.1-0.6-0.3-1.1-0.6-1.5c-0.3-0.4-0.6-0.8-1.1-1.1c-0.5-0.3-1-0.4-1.7-0.4c-0.7,0-1.2,0.1-1.7,0.4
		s-0.8,0.6-1.1,1.1c-0.3,0.4-0.5,0.9-0.6,1.5c-0.1,0.6-0.2,1.1-0.2,1.7S94,149.5,94.2,150.1z"/>
	<path class="st0" d="M111.6,141v2h0.1c0.5-0.8,1.2-1.3,1.9-1.8c0.7-0.4,1.6-0.6,2.6-0.6c0.9,0,1.8,0.2,2.5,0.5
		c0.8,0.4,1.3,1,1.7,1.9c0.4-0.6,1-1.2,1.8-1.7c0.7-0.5,1.6-0.7,2.6-0.7c0.8,0,1.5,0.1,2.2,0.3c0.7,0.2,1.2,0.5,1.7,0.9
		c0.5,0.4,0.8,1,1.1,1.6c0.3,0.7,0.4,1.5,0.4,2.4v9.8h-4v-8.3c0-0.5,0-1-0.1-1.4c0-0.4-0.1-0.8-0.3-1.1c-0.2-0.3-0.4-0.6-0.7-0.8
		c-0.3-0.2-0.8-0.3-1.3-0.3c-0.6,0-1,0.1-1.4,0.3c-0.3,0.2-0.6,0.5-0.8,0.8c-0.2,0.3-0.3,0.7-0.4,1.2c-0.1,0.4-0.1,0.9-0.1,1.3v8.1
		h-4v-8.2c0-0.4,0-0.9,0-1.3c0-0.4-0.1-0.8-0.2-1.2c-0.1-0.4-0.4-0.6-0.7-0.9c-0.3-0.2-0.8-0.3-1.5-0.3c-0.2,0-0.4,0-0.7,0.1
		c-0.3,0.1-0.6,0.2-0.9,0.5c-0.3,0.2-0.5,0.6-0.8,1c-0.2,0.4-0.3,1-0.3,1.7v8.5h-4V141H111.6z"/>
	<path class="st0" d="M137.6,152.2c0.6,0.6,1.5,0.9,2.6,0.9c0.8,0,1.5-0.2,2.1-0.6s0.9-0.8,1.1-1.3h3.5c-0.6,1.8-1.4,3-2.6,3.8
		c-1.2,0.8-2.6,1.1-4.2,1.1c-1.2,0-2.2-0.2-3.1-0.6c-0.9-0.4-1.7-0.9-2.3-1.6c-0.6-0.7-1.1-1.5-1.5-2.4c-0.3-0.9-0.5-2-0.5-3.1
		c0-1.1,0.2-2.1,0.5-3.1c0.4-0.9,0.9-1.8,1.5-2.4c0.7-0.7,1.4-1.2,2.4-1.6c0.9-0.4,1.9-0.6,3-0.6c1.2,0,2.3,0.2,3.3,0.7
		c0.9,0.5,1.7,1.1,2.3,1.9c0.6,0.8,1,1.7,1.3,2.8c0.3,1,0.4,2.1,0.3,3.3h-10.6C136.7,150.6,137,151.6,137.6,152.2z M142.2,144.5
		c-0.5-0.5-1.2-0.8-2.2-0.8c-0.6,0-1.2,0.1-1.6,0.3c-0.4,0.2-0.8,0.5-1,0.8c-0.3,0.3-0.4,0.7-0.5,1c-0.1,0.4-0.2,0.7-0.2,1h6.5
		C143,145.8,142.7,145,142.2,144.5z"/>
	<path class="st0" d="M157.6,141v2.7h-2.9v7.2c0,0.7,0.1,1.1,0.3,1.4c0.2,0.2,0.7,0.3,1.4,0.3c0.2,0,0.4,0,0.7,0
		c0.2,0,0.4,0,0.6-0.1v3.1c-0.3,0.1-0.7,0.1-1.1,0.1c-0.4,0-0.8,0-1.2,0c-0.6,0-1.2,0-1.8-0.1c-0.6-0.1-1-0.2-1.5-0.5
		c-0.4-0.2-0.8-0.6-1-1c-0.2-0.5-0.4-1-0.4-1.8v-8.6h-2.4V141h2.4v-4.4h4v4.4H157.6z"/>
	<path class="st0" d="M159.6,138.8v-3.3h4v3.3H159.6z M163.7,141v14.6h-4V141H163.7z"/>
	<path class="st0" d="M170.7,141v2h0.1c0.5-0.8,1.2-1.3,1.9-1.8c0.7-0.4,1.6-0.6,2.6-0.6c0.9,0,1.8,0.2,2.5,0.5
		c0.8,0.4,1.3,1,1.7,1.9c0.4-0.6,1-1.2,1.8-1.7c0.7-0.5,1.6-0.7,2.6-0.7c0.8,0,1.5,0.1,2.2,0.3s1.2,0.5,1.7,0.9s0.8,1,1.1,1.6
		c0.3,0.7,0.4,1.5,0.4,2.4v9.8h-4v-8.3c0-0.5,0-1-0.1-1.4c0-0.4-0.1-0.8-0.3-1.1c-0.2-0.3-0.4-0.6-0.8-0.8c-0.3-0.2-0.8-0.3-1.3-0.3
		c-0.6,0-1,0.1-1.4,0.3s-0.6,0.5-0.8,0.8c-0.2,0.3-0.3,0.7-0.4,1.2c-0.1,0.4-0.1,0.9-0.1,1.3v8.1h-4v-8.2c0-0.4,0-0.9,0-1.3
		c0-0.4-0.1-0.8-0.2-1.2c-0.1-0.4-0.4-0.6-0.7-0.9s-0.8-0.3-1.5-0.3c-0.2,0-0.4,0-0.8,0.1c-0.3,0.1-0.6,0.2-0.9,0.5
		c-0.3,0.2-0.5,0.6-0.7,1c-0.2,0.4-0.3,1-0.3,1.7v8.5h-4V141H170.7z"/>
	<path class="st0" d="M196.8,152.2c0.6,0.6,1.5,0.9,2.6,0.9c0.8,0,1.5-0.2,2.1-0.6c0.6-0.4,0.9-0.8,1.1-1.3h3.5
		c-0.6,1.8-1.4,3-2.6,3.8c-1.2,0.8-2.6,1.1-4.2,1.1c-1.2,0-2.2-0.2-3.1-0.6c-0.9-0.4-1.7-0.9-2.3-1.6c-0.6-0.7-1.1-1.5-1.5-2.4
		c-0.3-0.9-0.5-2-0.5-3.1c0-1.1,0.2-2.1,0.5-3.1c0.4-0.9,0.9-1.8,1.5-2.4s1.4-1.2,2.4-1.6c0.9-0.4,1.9-0.6,3-0.6
		c1.2,0,2.3,0.2,3.3,0.7c0.9,0.5,1.7,1.1,2.3,1.9c0.6,0.8,1,1.7,1.3,2.8c0.3,1,0.4,2.1,0.3,3.3h-10.6
		C195.8,150.6,196.2,151.6,196.8,152.2z M201.3,144.5c-0.5-0.5-1.2-0.8-2.2-0.8c-0.6,0-1.2,0.1-1.6,0.3c-0.4,0.2-0.8,0.5-1,0.8
		c-0.3,0.3-0.4,0.7-0.5,1s-0.2,0.7-0.2,1h6.5C202.1,145.8,201.8,145,201.3,144.5z"/>
	<path class="st0" d="M212.1,152c0.2,0.3,0.4,0.6,0.7,0.8c0.3,0.2,0.6,0.3,1,0.4c0.4,0.1,0.8,0.1,1.1,0.1c0.3,0,0.6,0,0.9-0.1
		c0.3-0.1,0.6-0.2,0.8-0.3c0.3-0.1,0.5-0.3,0.6-0.6c0.2-0.2,0.3-0.5,0.3-0.9c0-0.6-0.4-1.1-1.2-1.4c-0.8-0.3-1.9-0.6-3.4-0.9
		c-0.6-0.1-1.2-0.3-1.7-0.5c-0.6-0.2-1.1-0.4-1.5-0.7c-0.4-0.3-0.8-0.7-1-1.1c-0.3-0.4-0.4-1-0.4-1.6c0-0.9,0.2-1.7,0.6-2.3
		c0.4-0.6,0.9-1.1,1.5-1.4c0.6-0.3,1.3-0.6,2-0.7c0.8-0.1,1.5-0.2,2.3-0.2s1.6,0.1,2.3,0.2s1.4,0.4,2,0.8c0.6,0.4,1.1,0.8,1.5,1.4
		s0.6,1.3,0.7,2.2h-3.8c-0.1-0.8-0.3-1.3-0.9-1.6s-1.2-0.4-1.9-0.4c-0.2,0-0.5,0-0.7,0c-0.3,0-0.5,0.1-0.7,0.2
		c-0.2,0.1-0.4,0.2-0.6,0.4c-0.2,0.2-0.2,0.4-0.2,0.7c0,0.4,0.1,0.7,0.4,0.9c0.3,0.2,0.6,0.4,1,0.6c0.4,0.1,0.9,0.3,1.5,0.4
		s1.1,0.2,1.7,0.4c0.6,0.1,1.2,0.3,1.7,0.5s1.1,0.4,1.5,0.8c0.4,0.3,0.8,0.7,1,1.2c0.3,0.5,0.4,1,0.4,1.7c0,1-0.2,1.8-0.6,2.4
		c-0.4,0.7-0.9,1.2-1.5,1.6c-0.6,0.4-1.3,0.7-2.1,0.8c-0.8,0.2-1.6,0.2-2.4,0.2c-0.8,0-1.7-0.1-2.5-0.3c-0.8-0.2-1.5-0.5-2.2-0.8
		c-0.6-0.4-1.2-0.9-1.6-1.6c-0.4-0.7-0.6-1.5-0.7-2.4h3.8C211.8,151.4,211.9,151.7,212.1,152z"/>
</g>
<g>
	<path class="st0" d="M31.5,170.1c-0.3-0.4-0.6-0.8-1-1.1c-0.4-0.3-0.8-0.6-1.3-0.8c-0.5-0.2-1-0.3-1.6-0.3c-1,0-1.8,0.2-2.5,0.6
		c-0.7,0.4-1.3,0.9-1.7,1.6c-0.4,0.7-0.8,1.4-0.9,2.2c-0.2,0.8-0.3,1.7-0.3,2.6c0,0.8,0.1,1.7,0.3,2.5c0.2,0.8,0.5,1.5,0.9,2.2
		c0.4,0.6,1,1.2,1.7,1.5c0.7,0.4,1.5,0.6,2.5,0.6c1.4,0,2.4-0.4,3.2-1.2c0.8-0.8,1.2-1.9,1.4-3.3h4.3c-0.1,1.3-0.4,2.4-0.9,3.4
		c-0.5,1-1.1,1.9-1.9,2.6s-1.7,1.3-2.7,1.6c-1,0.4-2.2,0.6-3.4,0.6c-1.5,0-2.9-0.3-4.2-0.8c-1.2-0.5-2.3-1.3-3.1-2.2s-1.5-2.1-2-3.3
		c-0.5-1.3-0.7-2.6-0.7-4.1c0-1.5,0.2-2.9,0.7-4.2s1.1-2.4,2-3.4s1.9-1.7,3.1-2.3c1.2-0.5,2.6-0.8,4.2-0.8c1.1,0,2.2,0.2,3.2,0.5
		c1,0.3,1.9,0.8,2.7,1.4c0.8,0.6,1.4,1.4,1.9,2.3s0.8,1.9,1,3.1H32C31.9,171,31.8,170.5,31.5,170.1z"/>
	<path class="st0" d="M43.9,164.7v7.8h8.2v-7.8h4.4v20.2h-4.4v-8.7h-8.2v8.7h-4.4v-20.2H43.9z"/>
	<path class="st0" d="M70.5,164.7l7.6,20.2h-4.6l-1.5-4.5h-7.6l-1.6,4.5h-4.5l7.6-20.2H70.5z M70.8,177.1l-2.5-7.4h-0.1l-2.6,7.4
		H70.8z"/>
	<path class="st0" d="M84.3,164.7l8.4,13.6h0.1v-13.6h4.2v20.2h-4.4l-8.4-13.5H84v13.5h-4.2v-20.2H84.3z"/>
	<path class="st0" d="M112.8,184.8c-1,0.4-1.9,0.6-2.9,0.6c-1.5,0-2.9-0.3-4.2-0.8c-1.2-0.5-2.3-1.3-3.1-2.2s-1.5-2.1-2-3.3
		c-0.5-1.3-0.7-2.6-0.7-4.1c0-1.5,0.2-2.9,0.7-4.2s1.1-2.4,2-3.4s1.9-1.7,3.1-2.3c1.2-0.5,2.6-0.8,4.2-0.8c1,0,2,0.2,3,0.5
		c1,0.3,1.8,0.8,2.6,1.4s1.4,1.3,1.9,2.2s0.8,1.9,0.9,3.1h-4.2c-0.3-1.1-0.8-2-1.5-2.5c-0.8-0.6-1.7-0.8-2.7-0.8
		c-1,0-1.8,0.2-2.5,0.6c-0.7,0.4-1.3,0.9-1.7,1.6c-0.4,0.7-0.8,1.4-0.9,2.2c-0.2,0.8-0.3,1.7-0.3,2.6c0,0.8,0.1,1.7,0.3,2.5
		c0.2,0.8,0.5,1.5,0.9,2.2c0.4,0.6,1,1.2,1.7,1.5c0.7,0.4,1.5,0.6,2.5,0.6c1.5,0,2.6-0.4,3.4-1.1s1.3-1.8,1.4-3.2h-4.5V174h8.5v10.9
		h-2.8l-0.5-2.3C114.6,183.6,113.7,184.4,112.8,184.8z"/>
	<path class="st0" d="M137.4,164.7v3.7h-10.7v4.3h9.8v3.5h-9.8v5h10.9v3.7h-15.3v-20.2H137.4z"/>
</g>
</svg>
