<?xml version="1.0" encoding="utf-8"?>
<!-- Generator: Adobe Illustrator 26.1.0, SVG Export Plug-In . SVG Version: 6.00 Build 0)  -->
<svg version="1.1" id="Layer_1" xmlns="http://www.w3.org/2000/svg" xmlns:xlink="http://www.w3.org/1999/xlink" x="0px" y="0px"
	 viewBox="0 0 300 250" style="enable-background:new 0 0 300 250;" xml:space="preserve">
<style type="text/css">
	.st0{fill:#231F20;}
</style>
<g>
	<path class="st0" d="M27.2,68.8L31,80h0l3.6-11.3h5.1v16.4h-3.4V73.5h0l-4,11.6h-2.8l-4-11.5h0v11.5h-3.4V68.8H27.2z"/>
	<path class="st0" d="M42.3,76.9c0-0.8,0.2-1.4,0.6-1.9c0.3-0.5,0.8-0.9,1.3-1.2s1.1-0.5,1.8-0.7s1.3-0.2,2-0.2c0.6,0,1.2,0,1.8,0.1
		s1.2,0.2,1.7,0.5c0.5,0.2,0.9,0.6,1.2,1c0.3,0.4,0.5,1,0.5,1.7v6.2c0,0.5,0,1,0.1,1.5s0.2,0.9,0.3,1.1h-3.3
		c-0.1-0.2-0.1-0.4-0.1-0.6c0-0.2-0.1-0.4-0.1-0.6c-0.5,0.5-1.1,0.9-1.8,1.1c-0.7,0.2-1.4,0.3-2.2,0.3c-0.6,0-1.1-0.1-1.6-0.2
		c-0.5-0.1-0.9-0.4-1.3-0.6c-0.4-0.3-0.7-0.7-0.9-1.1c-0.2-0.4-0.3-1-0.3-1.6c0-0.7,0.1-1.2,0.4-1.7c0.2-0.4,0.5-0.8,0.9-1
		c0.4-0.3,0.8-0.5,1.3-0.6s1-0.2,1.5-0.3c0.5-0.1,1-0.1,1.4-0.2c0.5,0,0.9-0.1,1.3-0.2c0.4-0.1,0.7-0.2,0.9-0.4
		c0.2-0.2,0.3-0.4,0.3-0.8c0-0.4-0.1-0.6-0.2-0.8c-0.1-0.2-0.3-0.4-0.5-0.5c-0.2-0.1-0.4-0.2-0.7-0.2c-0.3,0-0.5-0.1-0.8-0.1
		c-0.6,0-1.1,0.1-1.5,0.4c-0.4,0.3-0.6,0.7-0.6,1.4H42.3z M49.8,79.3c-0.1,0.1-0.3,0.2-0.5,0.3c-0.2,0.1-0.4,0.1-0.7,0.2
		c-0.2,0-0.5,0.1-0.7,0.1c-0.3,0-0.5,0.1-0.8,0.1c-0.2,0-0.5,0.1-0.7,0.2s-0.4,0.2-0.6,0.3c-0.2,0.1-0.3,0.3-0.4,0.5
		s-0.2,0.5-0.2,0.8c0,0.3,0.1,0.5,0.2,0.7c0.1,0.2,0.3,0.4,0.4,0.5c0.2,0.1,0.4,0.2,0.6,0.2c0.2,0,0.5,0.1,0.8,0.1
		c0.6,0,1.1-0.1,1.5-0.3c0.4-0.2,0.6-0.5,0.8-0.8c0.2-0.3,0.3-0.6,0.3-0.9s0.1-0.6,0.1-0.7V79.3z"/>
	<path class="st0" d="M59.1,68.8v8.8l4.1-4.3H67l-4.5,4.4l5,7.5h-3.9l-3.3-5.3L59.1,81v4.1h-3.3V68.8H59.1z"/>
	<path class="st0" d="M68.7,71.4v-2.7h3.3v2.7H68.7z M71.9,73.3v11.9h-3.3V73.3H71.9z"/>
	<path class="st0" d="M77.5,73.3v1.7h0.1c0.4-0.7,0.9-1.2,1.6-1.5c0.7-0.3,1.3-0.5,2-0.5c0.9,0,1.6,0.1,2.1,0.4c0.6,0.2,1,0.6,1.3,1
		s0.5,0.9,0.7,1.5c0.1,0.6,0.2,1.3,0.2,2v7.3h-3.3v-6.7c0-1-0.2-1.7-0.5-2.2c-0.3-0.5-0.8-0.7-1.6-0.7c-0.9,0-1.5,0.3-1.9,0.8
		s-0.6,1.4-0.6,2.6v6.2h-3.3V73.3H77.5z"/>
	<path class="st0" d="M99.1,86c-0.1,0.6-0.4,1.2-0.8,1.7c-0.4,0.5-1,1-1.9,1.3s-1.9,0.6-3.3,0.6c-0.6,0-1.2-0.1-1.8-0.2
		c-0.6-0.1-1.2-0.4-1.7-0.7c-0.5-0.3-0.9-0.7-1.2-1.2s-0.5-1.1-0.6-1.7h3.2c0.2,0.6,0.5,1,0.9,1.3c0.4,0.2,1,0.4,1.5,0.4
		c0.9,0,1.6-0.3,2-0.8c0.4-0.6,0.6-1.2,0.6-2.1v-1.6h0c-0.4,0.6-0.9,1.1-1.5,1.4c-0.6,0.3-1.3,0.4-2.1,0.4c-0.9,0-1.7-0.2-2.3-0.5
		c-0.6-0.3-1.2-0.7-1.6-1.3c-0.4-0.5-0.7-1.2-0.9-1.9c-0.2-0.7-0.3-1.5-0.3-2.3c0-0.8,0.1-1.5,0.3-2.2c0.2-0.7,0.5-1.3,1-1.9
		c0.4-0.5,1-1,1.6-1.3c0.6-0.3,1.4-0.5,2.2-0.5c0.8,0,1.5,0.1,2.1,0.4c0.6,0.3,1.1,0.8,1.5,1.5h0v-1.6h3.1v11.1
		C99.3,84.8,99.2,85.4,99.1,86z M94.6,82c0.4-0.2,0.6-0.4,0.9-0.7c0.2-0.3,0.4-0.7,0.5-1c0.1-0.4,0.2-0.8,0.2-1.2c0-0.5,0-1-0.1-1.4
		s-0.2-0.8-0.5-1.2c-0.2-0.3-0.5-0.6-0.8-0.8c-0.4-0.2-0.8-0.3-1.3-0.3c-0.5,0-0.9,0.1-1.2,0.3c-0.3,0.2-0.6,0.4-0.8,0.7
		c-0.2,0.3-0.4,0.7-0.5,1.1c-0.1,0.4-0.1,0.8-0.1,1.3c0,0.4,0,0.9,0.1,1.3c0.1,0.4,0.2,0.8,0.4,1.1c0.2,0.3,0.5,0.6,0.8,0.8
		c0.3,0.2,0.8,0.3,1.3,0.3C93.9,82.3,94.3,82.2,94.6,82z"/>
	<path class="st0" d="M110.8,82.2c0.1,0.3,0.3,0.5,0.6,0.6c0.2,0.2,0.5,0.3,0.8,0.4s0.6,0.1,0.9,0.1c0.2,0,0.5,0,0.7-0.1
		c0.3-0.1,0.5-0.1,0.7-0.3c0.2-0.1,0.4-0.3,0.5-0.5s0.2-0.4,0.2-0.7c0-0.5-0.3-0.9-1-1.1c-0.6-0.2-1.6-0.5-2.7-0.7
		c-0.5-0.1-0.9-0.2-1.4-0.4c-0.5-0.1-0.9-0.3-1.2-0.6c-0.4-0.2-0.6-0.5-0.8-0.9c-0.2-0.4-0.3-0.8-0.3-1.3c0-0.8,0.1-1.4,0.4-1.9
		c0.3-0.5,0.7-0.9,1.2-1.2c0.5-0.3,1-0.5,1.7-0.6c0.6-0.1,1.2-0.2,1.9-0.2c0.6,0,1.3,0.1,1.9,0.2c0.6,0.1,1.1,0.3,1.6,0.6
		c0.5,0.3,0.9,0.7,1.2,1.2c0.3,0.5,0.5,1.1,0.6,1.8H115c0-0.6-0.3-1.1-0.7-1.3c-0.4-0.2-0.9-0.3-1.5-0.3c-0.2,0-0.4,0-0.6,0
		s-0.4,0.1-0.6,0.1c-0.2,0.1-0.3,0.2-0.4,0.3c-0.1,0.1-0.2,0.3-0.2,0.6c0,0.3,0.1,0.5,0.3,0.7c0.2,0.2,0.5,0.3,0.8,0.4
		c0.3,0.1,0.7,0.2,1.2,0.3c0.4,0.1,0.9,0.2,1.4,0.3c0.5,0.1,0.9,0.2,1.4,0.4c0.5,0.2,0.9,0.4,1.2,0.6c0.4,0.3,0.6,0.6,0.8,0.9
		s0.3,0.8,0.3,1.4c0,0.8-0.2,1.4-0.5,2c-0.3,0.5-0.7,1-1.2,1.3c-0.5,0.3-1.1,0.5-1.7,0.7c-0.6,0.1-1.3,0.2-2,0.2
		c-0.7,0-1.4-0.1-2-0.2c-0.7-0.1-1.2-0.4-1.8-0.7c-0.5-0.3-0.9-0.7-1.3-1.3c-0.3-0.5-0.5-1.2-0.5-2h3.1
		C110.5,81.6,110.6,81.9,110.8,82.2z"/>
	<path class="st0" d="M128.3,85.1v-1.7h-0.1c-0.4,0.7-0.9,1.2-1.6,1.5c-0.7,0.3-1.3,0.5-2,0.5c-0.9,0-1.6-0.1-2.1-0.3
		c-0.6-0.2-1-0.6-1.3-1s-0.5-0.9-0.7-1.5c-0.1-0.6-0.2-1.3-0.2-2v-7.3h3.3V80c0,1,0.2,1.7,0.5,2.2c0.3,0.5,0.8,0.7,1.6,0.7
		c0.9,0,1.5-0.3,1.9-0.8c0.4-0.5,0.6-1.4,0.6-2.6v-6.2h3.3v11.9H128.3z"/>
	<path class="st0" d="M136.8,73.3v2.2h0c0.2-0.4,0.4-0.7,0.6-1c0.3-0.3,0.6-0.6,0.9-0.8c0.3-0.2,0.7-0.4,1.1-0.5
		c0.4-0.1,0.8-0.2,1.2-0.2c0.2,0,0.5,0,0.7,0.1v3c-0.2,0-0.3-0.1-0.5-0.1c-0.2,0-0.4,0-0.6,0c-0.6,0-1.1,0.1-1.5,0.3
		c-0.4,0.2-0.7,0.5-1,0.8c-0.3,0.3-0.4,0.7-0.5,1.2s-0.2,1-0.2,1.5v5.3h-3.3V73.3H136.8z"/>
	<path class="st0" d="M145.6,82.3c0.5,0.5,1.2,0.7,2.1,0.7c0.7,0,1.2-0.2,1.7-0.5s0.8-0.7,0.9-1h2.9c-0.5,1.4-1.2,2.4-2.1,3
		c-0.9,0.6-2.1,0.9-3.4,0.9c-0.9,0-1.8-0.1-2.5-0.4c-0.7-0.3-1.4-0.7-1.9-1.3c-0.5-0.5-0.9-1.2-1.2-2c-0.3-0.8-0.4-1.6-0.4-2.5
		c0-0.9,0.1-1.7,0.4-2.5c0.3-0.8,0.7-1.4,1.2-2c0.5-0.6,1.2-1,1.9-1.3c0.7-0.3,1.6-0.5,2.5-0.5c1,0,1.9,0.2,2.6,0.6s1.4,0.9,1.8,1.6
		c0.5,0.7,0.8,1.4,1,2.2c0.2,0.8,0.3,1.7,0.2,2.6h-8.5C144.9,81,145.2,81.8,145.6,82.3z M149.3,76c-0.4-0.4-1-0.6-1.8-0.6
		c-0.5,0-1,0.1-1.3,0.3c-0.3,0.2-0.6,0.4-0.8,0.7c-0.2,0.3-0.4,0.5-0.4,0.8c-0.1,0.3-0.1,0.5-0.1,0.8h5.3
		C150,77.1,149.7,76.5,149.3,76z"/>
	<path class="st0" d="M165.9,88.6c-0.6,0.4-1.5,0.6-2.6,0.6c-0.3,0-0.7,0-1,0c-0.3,0-0.7,0-1-0.1v-2.7c0.3,0,0.6,0.1,0.9,0.1
		c0.3,0,0.6,0,1,0c0.4,0,0.7-0.2,1-0.5c0.2-0.3,0.3-0.6,0.3-1c0-0.3,0-0.5-0.1-0.7l-4.1-11.1h3.5l2.7,8.1h0l2.6-8.1h3.4l-5,13.3
		C167,87.5,166.5,88.2,165.9,88.6z"/>
	<path class="st0" d="M173.4,76.6c0.3-0.8,0.7-1.4,1.2-2c0.5-0.5,1.2-1,1.9-1.3s1.6-0.4,2.5-0.4c0.9,0,1.8,0.1,2.5,0.4
		s1.4,0.7,1.9,1.3c0.5,0.5,0.9,1.2,1.2,2c0.3,0.8,0.4,1.6,0.4,2.6c0,0.9-0.1,1.8-0.4,2.6s-0.7,1.4-1.2,2c-0.5,0.5-1.2,1-1.9,1.2
		s-1.6,0.4-2.5,0.4c-0.9,0-1.8-0.1-2.5-0.4s-1.4-0.7-1.9-1.2c-0.5-0.5-0.9-1.2-1.2-2s-0.4-1.6-0.4-2.6
		C172.9,78.3,173.1,77.4,173.4,76.6z M176.3,80.6c0.1,0.5,0.2,0.9,0.5,1.2c0.2,0.4,0.5,0.6,0.9,0.9c0.4,0.2,0.8,0.3,1.4,0.3
		c0.6,0,1-0.1,1.4-0.3c0.4-0.2,0.7-0.5,0.9-0.9c0.2-0.4,0.4-0.8,0.5-1.2c0.1-0.5,0.1-0.9,0.1-1.4s0-0.9-0.1-1.4s-0.2-0.9-0.5-1.2
		s-0.5-0.6-0.9-0.9c-0.4-0.2-0.8-0.3-1.4-0.3c-0.5,0-1,0.1-1.4,0.3c-0.4,0.2-0.7,0.5-0.9,0.9s-0.4,0.8-0.5,1.2s-0.1,0.9-0.1,1.4
		S176.2,80.1,176.3,80.6z"/>
	<path class="st0" d="M195.2,85.1v-1.7h-0.1c-0.4,0.7-0.9,1.2-1.6,1.5c-0.7,0.3-1.3,0.5-2,0.5c-0.9,0-1.6-0.1-2.1-0.3
		c-0.6-0.2-1-0.6-1.3-1c-0.3-0.4-0.5-0.9-0.7-1.5c-0.1-0.6-0.2-1.3-0.2-2v-7.3h3.3V80c0,1,0.2,1.7,0.5,2.2c0.3,0.5,0.8,0.7,1.6,0.7
		c0.9,0,1.5-0.3,1.9-0.8c0.4-0.5,0.6-1.4,0.6-2.6v-6.2h3.3v11.9H195.2z"/>
	<path class="st0" d="M203.8,73.3v2.2h0c0.2-0.4,0.4-0.7,0.6-1c0.3-0.3,0.6-0.6,0.9-0.8c0.3-0.2,0.7-0.4,1.1-0.5
		c0.4-0.1,0.8-0.2,1.2-0.2c0.2,0,0.5,0,0.7,0.1v3c-0.2,0-0.3-0.1-0.5-0.1c-0.2,0-0.4,0-0.6,0c-0.6,0-1.1,0.1-1.5,0.3
		c-0.4,0.2-0.7,0.5-1,0.8c-0.3,0.3-0.4,0.7-0.5,1.2c-0.1,0.5-0.2,1-0.2,1.5v5.3h-3.3V73.3H203.8z"/>
</g>
<g>
	<path class="st0" d="M25.1,94.7V111h-3.3V94.7H25.1z"/>
	<path class="st0" d="M27.7,97.3v-2.7h3.3v2.7H27.7z M30.9,99.2V111h-3.3V99.2H30.9z"/>
	<path class="st0" d="M32.2,101.3v-2.2h1.9v-0.9c0-1.1,0.3-1.9,1-2.6c0.7-0.7,1.7-1,3-1c0.3,0,0.6,0,0.9,0c0.3,0,0.6,0,0.8,0.1v2.4
		c-0.4,0-0.8-0.1-1.2-0.1c-0.4,0-0.8,0.1-1,0.3c-0.2,0.2-0.3,0.6-0.3,1v0.7h2.2v2.2h-2.2v9.7h-3.3v-9.7H32.2z"/>
	<path class="st0" d="M44.4,108.2c0.5,0.5,1.2,0.7,2.1,0.7c0.7,0,1.2-0.2,1.7-0.5s0.8-0.7,0.9-1H52c-0.5,1.4-1.2,2.4-2.1,3
		c-0.9,0.6-2.1,0.9-3.4,0.9c-0.9,0-1.8-0.1-2.5-0.4c-0.7-0.3-1.4-0.7-1.9-1.3c-0.5-0.5-0.9-1.2-1.2-2c-0.3-0.8-0.4-1.6-0.4-2.5
		c0-0.9,0.1-1.7,0.4-2.5c0.3-0.8,0.7-1.4,1.2-2c0.5-0.6,1.2-1,1.9-1.3c0.7-0.3,1.6-0.5,2.5-0.5c1,0,1.9,0.2,2.6,0.6
		c0.7,0.4,1.4,0.9,1.8,1.6c0.5,0.7,0.8,1.4,1,2.2c0.2,0.8,0.3,1.7,0.2,2.6h-8.6C43.7,106.9,43.9,107.7,44.4,108.2z M48.1,101.9
		c-0.4-0.4-1-0.6-1.8-0.6c-0.5,0-1,0.1-1.3,0.3s-0.6,0.4-0.8,0.7c-0.2,0.3-0.4,0.5-0.4,0.8c-0.1,0.3-0.1,0.5-0.1,0.8h5.3
		C48.8,103,48.5,102.4,48.1,101.9z"/>
	<path class="st0" d="M60.4,97.3v-2.7h3.3v2.7H60.4z M63.6,99.2V111h-3.3V99.2H63.6z"/>
	<path class="st0" d="M69.2,99.2v1.7h0.1c0.4-0.7,0.9-1.2,1.6-1.5c0.7-0.3,1.3-0.5,2-0.5c0.9,0,1.6,0.1,2.1,0.4c0.6,0.2,1,0.6,1.3,1
		s0.5,0.9,0.7,1.5c0.1,0.6,0.2,1.3,0.2,2v7.3h-3.3v-6.7c0-1-0.2-1.7-0.5-2.2c-0.3-0.5-0.8-0.7-1.6-0.7c-0.9,0-1.5,0.3-1.9,0.8
		s-0.6,1.4-0.6,2.6v6.2h-3.3V99.2H69.2z"/>
	<path class="st0" d="M82.3,108.1c0.1,0.3,0.3,0.5,0.6,0.6c0.2,0.2,0.5,0.3,0.8,0.4s0.6,0.1,0.9,0.1c0.2,0,0.5,0,0.7-0.1
		c0.3-0.1,0.5-0.1,0.7-0.3c0.2-0.1,0.4-0.3,0.5-0.5s0.2-0.4,0.2-0.7c0-0.5-0.3-0.9-1-1.1c-0.6-0.2-1.6-0.5-2.7-0.7
		c-0.5-0.1-0.9-0.2-1.4-0.4c-0.5-0.1-0.9-0.3-1.2-0.6c-0.4-0.2-0.6-0.5-0.8-0.9c-0.2-0.4-0.3-0.8-0.3-1.3c0-0.8,0.1-1.4,0.4-1.9
		c0.3-0.5,0.7-0.9,1.2-1.2c0.5-0.3,1-0.5,1.7-0.6c0.6-0.1,1.2-0.2,1.9-0.2c0.6,0,1.3,0.1,1.9,0.2c0.6,0.1,1.1,0.3,1.6,0.6
		c0.5,0.3,0.9,0.7,1.2,1.2c0.3,0.5,0.5,1.1,0.6,1.8h-3.1c0-0.6-0.3-1.1-0.7-1.3c-0.4-0.2-0.9-0.3-1.5-0.3c-0.2,0-0.4,0-0.6,0
		s-0.4,0.1-0.6,0.1c-0.2,0.1-0.3,0.2-0.4,0.3c-0.1,0.1-0.2,0.3-0.2,0.6c0,0.3,0.1,0.5,0.3,0.7c0.2,0.2,0.5,0.3,0.8,0.4
		c0.3,0.1,0.7,0.2,1.2,0.3c0.4,0.1,0.9,0.2,1.4,0.3c0.5,0.1,0.9,0.2,1.4,0.4c0.5,0.2,0.9,0.4,1.2,0.6c0.4,0.3,0.6,0.6,0.8,0.9
		s0.3,0.8,0.3,1.4c0,0.8-0.2,1.4-0.5,2c-0.3,0.5-0.7,1-1.2,1.3c-0.5,0.3-1.1,0.5-1.7,0.7c-0.6,0.1-1.3,0.2-2,0.2
		c-0.7,0-1.4-0.1-2-0.2c-0.7-0.1-1.2-0.4-1.8-0.7c-0.5-0.3-0.9-0.7-1.3-1.3c-0.3-0.5-0.5-1.2-0.5-2h3.1
		C82.1,107.5,82.2,107.8,82.3,108.1z"/>
	<path class="st0" d="M99.8,111v-1.7h-0.1c-0.4,0.7-0.9,1.2-1.6,1.5c-0.7,0.3-1.3,0.5-2,0.5c-0.9,0-1.6-0.1-2.1-0.3
		c-0.6-0.2-1-0.6-1.3-1s-0.5-0.9-0.7-1.5c-0.1-0.6-0.2-1.3-0.2-2v-7.3h3.3v6.7c0,1,0.2,1.7,0.5,2.2c0.3,0.5,0.8,0.7,1.6,0.7
		c0.9,0,1.5-0.3,1.9-0.8c0.4-0.5,0.6-1.4,0.6-2.6v-6.2h3.3V111H99.8z"/>
	<path class="st0" d="M108.4,99.2v2.2h0c0.2-0.4,0.4-0.7,0.6-1c0.3-0.3,0.6-0.6,0.9-0.8c0.3-0.2,0.7-0.4,1.1-0.5
		c0.4-0.1,0.8-0.2,1.2-0.2c0.2,0,0.5,0,0.7,0.1v3c-0.2,0-0.3-0.1-0.5-0.1c-0.2,0-0.4,0-0.6,0c-0.6,0-1.1,0.1-1.5,0.3
		c-0.4,0.2-0.7,0.5-1,0.8c-0.3,0.3-0.4,0.7-0.5,1.2s-0.2,1-0.2,1.5v5.3h-3.3V99.2H108.4z"/>
	<path class="st0" d="M114,102.8c0-0.8,0.2-1.4,0.6-1.9c0.3-0.5,0.8-0.9,1.3-1.2s1.1-0.5,1.8-0.7s1.3-0.2,2-0.2c0.6,0,1.2,0,1.8,0.1
		s1.2,0.2,1.7,0.5c0.5,0.2,0.9,0.6,1.2,1c0.3,0.4,0.5,1,0.5,1.7v6.2c0,0.5,0,1,0.1,1.5s0.2,0.9,0.3,1.1h-3.3
		c-0.1-0.2-0.1-0.4-0.1-0.6c0-0.2-0.1-0.4-0.1-0.6c-0.5,0.5-1.1,0.9-1.8,1.1c-0.7,0.2-1.4,0.3-2.2,0.3c-0.6,0-1.1-0.1-1.6-0.2
		c-0.5-0.1-0.9-0.4-1.3-0.6c-0.4-0.3-0.7-0.7-0.9-1.1c-0.2-0.4-0.3-1-0.3-1.6c0-0.7,0.1-1.2,0.4-1.7c0.2-0.4,0.5-0.8,0.9-1
		c0.4-0.3,0.8-0.5,1.3-0.6s1-0.2,1.5-0.3c0.5-0.1,1-0.1,1.4-0.2c0.5,0,0.9-0.1,1.3-0.2c0.4-0.1,0.7-0.2,0.9-0.4
		c0.2-0.2,0.3-0.4,0.3-0.8c0-0.4-0.1-0.6-0.2-0.8c-0.1-0.2-0.3-0.4-0.5-0.5c-0.2-0.1-0.4-0.2-0.7-0.2c-0.3,0-0.5-0.1-0.8-0.1
		c-0.6,0-1.1,0.1-1.5,0.4c-0.4,0.3-0.6,0.7-0.6,1.4H114z M121.5,105.2c-0.1,0.1-0.3,0.2-0.5,0.3c-0.2,0.1-0.4,0.1-0.7,0.2
		c-0.2,0-0.5,0.1-0.7,0.1c-0.3,0-0.5,0.1-0.8,0.1c-0.2,0-0.5,0.1-0.7,0.2s-0.4,0.2-0.6,0.3c-0.2,0.1-0.3,0.3-0.4,0.5
		s-0.2,0.5-0.2,0.8c0,0.3,0.1,0.5,0.2,0.7c0.1,0.2,0.3,0.4,0.4,0.5c0.2,0.1,0.4,0.2,0.6,0.2c0.2,0,0.5,0.1,0.8,0.1
		c0.6,0,1.1-0.1,1.5-0.3c0.4-0.2,0.6-0.5,0.8-0.8c0.2-0.3,0.3-0.6,0.3-0.9s0.1-0.6,0.1-0.7V105.2z"/>
	<path class="st0" d="M130.3,99.2v1.7h0.1c0.4-0.7,0.9-1.2,1.6-1.5c0.7-0.3,1.3-0.5,2-0.5c0.9,0,1.6,0.1,2.1,0.4
		c0.6,0.2,1,0.6,1.3,1s0.5,0.9,0.7,1.5c0.1,0.6,0.2,1.3,0.2,2v7.3h-3.3v-6.7c0-1-0.2-1.7-0.5-2.2c-0.3-0.5-0.8-0.7-1.6-0.7
		c-0.9,0-1.5,0.3-1.9,0.8s-0.6,1.4-0.6,2.6v6.2h-3.3V99.2H130.3z"/>
	<path class="st0" d="M146.4,101.3c-0.5,0-1,0.1-1.3,0.4c-0.4,0.2-0.6,0.5-0.9,0.9c-0.2,0.4-0.4,0.8-0.5,1.2
		c-0.1,0.5-0.1,0.9-0.1,1.3c0,0.4,0,0.9,0.1,1.3s0.2,0.8,0.4,1.2c0.2,0.4,0.5,0.7,0.8,0.9c0.3,0.2,0.8,0.3,1.3,0.3
		c0.8,0,1.4-0.2,1.8-0.7s0.7-1,0.8-1.8h3.1c-0.2,1.6-0.8,2.8-1.8,3.6s-2.3,1.2-3.9,1.2c-0.9,0-1.7-0.1-2.4-0.4
		c-0.7-0.3-1.4-0.7-1.9-1.2c-0.5-0.5-0.9-1.2-1.2-1.9c-0.3-0.7-0.4-1.6-0.4-2.4c0-0.9,0.1-1.8,0.4-2.6c0.3-0.8,0.7-1.5,1.2-2
		c0.5-0.6,1.2-1,1.9-1.3c0.7-0.3,1.6-0.5,2.6-0.5c0.7,0,1.4,0.1,2,0.3c0.7,0.2,1.2,0.5,1.7,0.8c0.5,0.4,0.9,0.8,1.2,1.4
		c0.3,0.6,0.5,1.2,0.6,2h-3.2C148.5,102,147.7,101.3,146.4,101.3z"/>
	<path class="st0" d="M157.2,108.2c0.5,0.5,1.2,0.7,2.1,0.7c0.7,0,1.2-0.2,1.7-0.5s0.8-0.7,0.9-1h2.9c-0.5,1.4-1.2,2.4-2.1,3
		c-0.9,0.6-2.1,0.9-3.4,0.9c-0.9,0-1.8-0.1-2.5-0.4c-0.7-0.3-1.4-0.7-1.9-1.3c-0.5-0.5-0.9-1.2-1.2-2c-0.3-0.8-0.4-1.6-0.4-2.5
		c0-0.9,0.1-1.7,0.4-2.5c0.3-0.8,0.7-1.4,1.2-2c0.5-0.6,1.2-1,1.9-1.3c0.7-0.3,1.6-0.5,2.5-0.5c1,0,1.9,0.2,2.6,0.6s1.4,0.9,1.8,1.6
		c0.5,0.7,0.8,1.4,1,2.2c0.2,0.8,0.3,1.7,0.2,2.6h-8.5C156.5,106.9,156.8,107.7,157.2,108.2z M160.9,101.9c-0.4-0.4-1-0.6-1.8-0.6
		c-0.5,0-1,0.1-1.3,0.3c-0.3,0.2-0.6,0.4-0.8,0.7c-0.2,0.3-0.4,0.5-0.4,0.8c-0.1,0.3-0.1,0.5-0.1,0.8h5.3
		C161.6,103,161.3,102.4,160.9,101.9z"/>
	<path class="st0" d="M173.2,97.3v-2.7h3.3v2.7H173.2z M176.4,99.2V111h-3.3V99.2H176.4z"/>
	<path class="st0" d="M181.6,108.1c0.1,0.3,0.3,0.5,0.6,0.6c0.2,0.2,0.5,0.3,0.8,0.4c0.3,0.1,0.6,0.1,0.9,0.1c0.2,0,0.5,0,0.7-0.1
		c0.3-0.1,0.5-0.1,0.7-0.3c0.2-0.1,0.4-0.3,0.5-0.5s0.2-0.4,0.2-0.7c0-0.5-0.3-0.9-1-1.1c-0.7-0.2-1.6-0.5-2.7-0.7
		c-0.5-0.1-0.9-0.2-1.4-0.4c-0.5-0.1-0.9-0.3-1.2-0.6c-0.4-0.2-0.6-0.5-0.8-0.9c-0.2-0.4-0.3-0.8-0.3-1.3c0-0.8,0.1-1.4,0.4-1.9
		c0.3-0.5,0.7-0.9,1.2-1.2c0.5-0.3,1-0.5,1.7-0.6c0.6-0.1,1.2-0.2,1.9-0.2s1.3,0.1,1.9,0.2c0.6,0.1,1.1,0.3,1.6,0.6s0.9,0.7,1.2,1.2
		c0.3,0.5,0.5,1.1,0.6,1.8h-3.1c0-0.6-0.3-1.1-0.7-1.3c-0.4-0.2-0.9-0.3-1.5-0.3c-0.2,0-0.4,0-0.6,0c-0.2,0-0.4,0.1-0.6,0.1
		c-0.2,0.1-0.3,0.2-0.4,0.3c-0.1,0.1-0.2,0.3-0.2,0.6c0,0.3,0.1,0.5,0.3,0.7c0.2,0.2,0.5,0.3,0.8,0.4c0.3,0.1,0.7,0.2,1.2,0.3
		c0.4,0.1,0.9,0.2,1.4,0.3c0.5,0.1,0.9,0.2,1.4,0.4c0.5,0.2,0.9,0.4,1.2,0.6c0.4,0.3,0.6,0.6,0.8,0.9c0.2,0.4,0.3,0.8,0.3,1.4
		c0,0.8-0.2,1.4-0.5,2s-0.7,1-1.2,1.3c-0.5,0.3-1.1,0.5-1.7,0.7c-0.6,0.1-1.3,0.2-2,0.2c-0.7,0-1.4-0.1-2-0.2
		c-0.7-0.1-1.2-0.4-1.8-0.7c-0.5-0.3-0.9-0.7-1.3-1.3c-0.3-0.5-0.5-1.2-0.5-2h3.1C181.4,107.5,181.5,107.8,181.6,108.1z"/>
	<path class="st0" d="M200.1,108.1c0.1,0.3,0.3,0.5,0.6,0.6c0.2,0.2,0.5,0.3,0.8,0.4c0.3,0.1,0.6,0.1,0.9,0.1c0.2,0,0.5,0,0.7-0.1
		c0.3-0.1,0.5-0.1,0.7-0.3c0.2-0.1,0.4-0.3,0.5-0.5s0.2-0.4,0.2-0.7c0-0.5-0.3-0.9-1-1.1c-0.7-0.2-1.6-0.5-2.7-0.7
		c-0.5-0.1-0.9-0.2-1.4-0.4c-0.5-0.1-0.9-0.3-1.2-0.6c-0.4-0.2-0.6-0.5-0.8-0.9c-0.2-0.4-0.3-0.8-0.3-1.3c0-0.8,0.1-1.4,0.4-1.9
		c0.3-0.5,0.7-0.9,1.2-1.2c0.5-0.3,1-0.5,1.7-0.6c0.6-0.1,1.2-0.2,1.9-0.2s1.3,0.1,1.9,0.2c0.6,0.1,1.1,0.3,1.6,0.6s0.9,0.7,1.2,1.2
		c0.3,0.5,0.5,1.1,0.6,1.8h-3.1c0-0.6-0.3-1.1-0.7-1.3c-0.4-0.2-0.9-0.3-1.5-0.3c-0.2,0-0.4,0-0.6,0c-0.2,0-0.4,0.1-0.6,0.1
		c-0.2,0.1-0.3,0.2-0.4,0.3c-0.1,0.1-0.2,0.3-0.2,0.6c0,0.3,0.1,0.5,0.3,0.7c0.2,0.2,0.5,0.3,0.8,0.4c0.3,0.1,0.7,0.2,1.2,0.3
		c0.4,0.1,0.9,0.2,1.4,0.3c0.5,0.1,0.9,0.2,1.4,0.4c0.5,0.2,0.9,0.4,1.2,0.6c0.4,0.3,0.6,0.6,0.8,0.9c0.2,0.4,0.3,0.8,0.3,1.4
		c0,0.8-0.2,1.4-0.5,2s-0.7,1-1.2,1.3c-0.5,0.3-1.1,0.5-1.7,0.7c-0.6,0.1-1.3,0.2-2,0.2c-0.7,0-1.4-0.1-2-0.2
		c-0.7-0.1-1.2-0.4-1.8-0.7c-0.5-0.3-0.9-0.7-1.3-1.3c-0.3-0.5-0.5-1.2-0.5-2h3.1C199.9,107.5,200,107.8,200.1,108.1z"/>
	<path class="st0" d="M216.1,99.2v2.2h-2.4v5.9c0,0.6,0.1,0.9,0.3,1.1c0.2,0.2,0.6,0.3,1.1,0.3c0.2,0,0.4,0,0.5,0s0.3,0,0.5-0.1v2.5
		c-0.3,0-0.6,0.1-0.9,0.1c-0.3,0-0.7,0-1,0c-0.5,0-1,0-1.4-0.1c-0.5-0.1-0.8-0.2-1.2-0.4c-0.3-0.2-0.6-0.5-0.8-0.8
		c-0.2-0.4-0.3-0.8-0.3-1.4v-7h-2v-2.2h2v-3.6h3.3v3.6H216.1z"/>
	<path class="st0" d="M217.7,97.3v-2.7h3.3v2.7H217.7z M220.9,99.2V111h-3.3V99.2H220.9z"/>
	<path class="st0" d="M226.7,94.7V111h-3.3V94.7H226.7z"/>
	<path class="st0" d="M232.5,94.7V111h-3.3V94.7H232.5z"/>
</g>
<g>
	<path class="st0" d="M21.9,123.2v-2.7h3.3v2.7H21.9z M25.1,125.1v11.9h-3.3v-11.9H25.1z"/>
	<path class="st0" d="M30.7,125.1v1.7h0.1c0.4-0.7,0.9-1.2,1.6-1.5c0.7-0.3,1.3-0.5,2-0.5c0.9,0,1.6,0.1,2.1,0.4
		c0.6,0.2,1,0.6,1.3,1c0.3,0.4,0.5,0.9,0.7,1.5s0.2,1.3,0.2,2v7.3h-3.3v-6.7c0-1-0.2-1.7-0.5-2.2c-0.3-0.5-0.8-0.7-1.6-0.7
		c-0.9,0-1.5,0.3-1.9,0.8c-0.4,0.5-0.6,1.4-0.6,2.6v6.2h-3.3v-11.9H30.7z"/>
	<path class="st0" d="M50.1,134c0.1,0.3,0.3,0.5,0.6,0.6c0.2,0.2,0.5,0.3,0.8,0.4c0.3,0.1,0.6,0.1,0.9,0.1c0.2,0,0.5,0,0.7-0.1
		c0.3-0.1,0.5-0.1,0.7-0.3c0.2-0.1,0.4-0.3,0.5-0.5s0.2-0.4,0.2-0.7c0-0.5-0.3-0.9-1-1.1c-0.6-0.2-1.6-0.5-2.7-0.7
		c-0.5-0.1-0.9-0.2-1.4-0.4c-0.5-0.1-0.9-0.3-1.2-0.6c-0.4-0.2-0.6-0.5-0.8-0.9c-0.2-0.4-0.3-0.8-0.3-1.3c0-0.8,0.1-1.4,0.4-1.9
		c0.3-0.5,0.7-0.9,1.2-1.2c0.5-0.3,1-0.5,1.7-0.6c0.6-0.1,1.2-0.2,1.9-0.2c0.6,0,1.3,0.1,1.9,0.2c0.6,0.1,1.1,0.3,1.6,0.6
		c0.5,0.3,0.9,0.7,1.2,1.2c0.3,0.5,0.5,1.1,0.6,1.8h-3.1c0-0.6-0.3-1.1-0.7-1.3s-0.9-0.3-1.5-0.3c-0.2,0-0.4,0-0.6,0
		c-0.2,0-0.4,0.1-0.6,0.1c-0.2,0.1-0.3,0.2-0.4,0.3c-0.1,0.1-0.2,0.3-0.2,0.6c0,0.3,0.1,0.5,0.3,0.7s0.5,0.3,0.8,0.4
		c0.3,0.1,0.7,0.2,1.2,0.3c0.4,0.1,0.9,0.2,1.4,0.3c0.5,0.1,0.9,0.2,1.4,0.4c0.5,0.2,0.9,0.4,1.2,0.6s0.6,0.6,0.8,0.9
		c0.2,0.4,0.3,0.8,0.3,1.4c0,0.8-0.2,1.4-0.5,2c-0.3,0.5-0.7,1-1.2,1.3c-0.5,0.3-1.1,0.5-1.7,0.7c-0.6,0.1-1.3,0.2-2,0.2
		c-0.7,0-1.4-0.1-2-0.2c-0.7-0.1-1.2-0.4-1.8-0.7c-0.5-0.3-0.9-0.7-1.3-1.3c-0.3-0.5-0.5-1.2-0.5-2h3.1
		C49.9,133.4,49.9,133.7,50.1,134z"/>
	<path class="st0" d="M63.9,140.5c-0.6,0.4-1.5,0.6-2.6,0.6c-0.3,0-0.7,0-1,0c-0.3,0-0.7,0-1-0.1v-2.7c0.3,0,0.6,0.1,0.9,0.1
		c0.3,0,0.6,0,1,0c0.4,0,0.7-0.2,1-0.5c0.2-0.3,0.3-0.6,0.3-1c0-0.3,0-0.5-0.1-0.7l-4.1-11.1h3.5l2.7,8.1h0l2.6-8.1h3.4l-5,13.3
		C65.1,139.4,64.6,140,63.9,140.5z"/>
	<path class="st0" d="M74.4,125.1v1.7h0.1c0.4-0.7,0.9-1.2,1.6-1.5c0.7-0.3,1.3-0.5,2-0.5c0.9,0,1.6,0.1,2.1,0.4
		c0.6,0.2,1,0.6,1.3,1c0.3,0.4,0.5,0.9,0.7,1.5s0.2,1.3,0.2,2v7.3h-3.3v-6.7c0-1-0.2-1.7-0.5-2.2c-0.3-0.5-0.8-0.7-1.6-0.7
		c-0.9,0-1.5,0.3-1.9,0.8c-0.4,0.5-0.6,1.4-0.6,2.6v6.2h-3.3v-11.9H74.4z"/>
	<path class="st0" d="M90.5,127.2c-0.5,0-1,0.1-1.3,0.4c-0.4,0.2-0.6,0.5-0.9,0.9c-0.2,0.4-0.4,0.8-0.5,1.2
		c-0.1,0.5-0.1,0.9-0.1,1.3c0,0.4,0,0.9,0.1,1.3s0.2,0.8,0.4,1.2c0.2,0.4,0.5,0.7,0.8,0.9s0.8,0.3,1.3,0.3c0.8,0,1.4-0.2,1.8-0.7
		s0.7-1,0.8-1.8h3.1c-0.2,1.6-0.8,2.8-1.8,3.6s-2.3,1.2-3.9,1.2c-0.9,0-1.7-0.1-2.4-0.4c-0.7-0.3-1.4-0.7-1.9-1.2
		c-0.5-0.5-0.9-1.2-1.2-1.9c-0.3-0.7-0.4-1.6-0.4-2.4c0-0.9,0.1-1.8,0.4-2.6c0.3-0.8,0.7-1.5,1.2-2s1.2-1,1.9-1.3
		c0.7-0.3,1.6-0.5,2.6-0.5c0.7,0,1.4,0.1,2,0.3c0.6,0.2,1.2,0.5,1.7,0.8c0.5,0.4,0.9,0.8,1.2,1.4s0.5,1.2,0.6,2h-3.2
		C92.7,127.9,91.9,127.2,90.5,127.2z"/>
	<path class="st0" d="M114.4,136.9l-2.1-8h0l-2,8h-3.4l-3.8-11.9h3.4l2.2,8h0l2-8h3.2l2,8h0l2.2-8h3.3l-3.7,11.9H114.4z"/>
	<path class="st0" d="M122.8,123.2v-2.7h3.3v2.7H122.8z M126.1,125.1v11.9h-3.3v-11.9H126.1z"/>
	<path class="st0" d="M135.1,125.1v2.2h-2.4v5.9c0,0.6,0.1,0.9,0.3,1.1c0.2,0.2,0.6,0.3,1.1,0.3c0.2,0,0.4,0,0.5,0
		c0.2,0,0.3,0,0.5-0.1v2.5c-0.3,0-0.6,0.1-0.9,0.1c-0.3,0-0.7,0-1,0c-0.5,0-1,0-1.4-0.1c-0.5-0.1-0.8-0.2-1.2-0.4
		c-0.3-0.2-0.6-0.5-0.8-0.8c-0.2-0.4-0.3-0.8-0.3-1.4v-7h-2v-2.2h2v-3.6h3.3v3.6H135.1z"/>
	<path class="st0" d="M139.8,120.6v6.2h0.1c0.4-0.7,0.9-1.2,1.6-1.5c0.6-0.3,1.3-0.5,1.9-0.5c0.9,0,1.6,0.1,2.1,0.4
		c0.6,0.2,1,0.6,1.3,1c0.3,0.4,0.5,0.9,0.7,1.5c0.1,0.6,0.2,1.3,0.2,2v7.3h-3.3v-6.7c0-1-0.2-1.7-0.5-2.2s-0.8-0.7-1.6-0.7
		c-0.9,0-1.5,0.3-1.9,0.8c-0.4,0.5-0.6,1.4-0.6,2.6v6.2h-3.3v-16.4H139.8z"/>
	<path class="st0" d="M160.7,140.5c-0.6,0.4-1.5,0.6-2.6,0.6c-0.3,0-0.7,0-1,0c-0.3,0-0.7,0-1-0.1v-2.7c0.3,0,0.6,0.1,0.9,0.1
		c0.3,0,0.6,0,1,0c0.4,0,0.7-0.2,1-0.5c0.2-0.3,0.3-0.6,0.3-1c0-0.3,0-0.5-0.1-0.7l-4.1-11.1h3.5l2.7,8.1h0l2.6-8.1h3.4l-5,13.3
		C161.8,139.4,161.3,140,160.7,140.5z"/>
	<path class="st0" d="M168.2,128.4c0.3-0.8,0.7-1.4,1.2-2c0.5-0.5,1.2-1,1.9-1.3s1.6-0.4,2.5-0.4c0.9,0,1.8,0.1,2.5,0.4
		s1.4,0.7,1.9,1.3c0.5,0.5,0.9,1.2,1.2,2c0.3,0.8,0.4,1.6,0.4,2.6s-0.1,1.8-0.4,2.6c-0.3,0.8-0.7,1.4-1.2,2c-0.5,0.5-1.2,1-1.9,1.2
		s-1.6,0.4-2.5,0.4c-0.9,0-1.8-0.1-2.5-0.4s-1.4-0.7-1.9-1.2c-0.5-0.5-0.9-1.2-1.2-2c-0.3-0.8-0.4-1.6-0.4-2.6
		S167.9,129.2,168.2,128.4z M171.1,132.4c0.1,0.5,0.2,0.9,0.5,1.2c0.2,0.4,0.5,0.6,0.9,0.9c0.4,0.2,0.8,0.3,1.4,0.3
		c0.6,0,1-0.1,1.4-0.3c0.4-0.2,0.7-0.5,0.9-0.9c0.2-0.4,0.4-0.8,0.5-1.2c0.1-0.5,0.1-0.9,0.1-1.4s0-0.9-0.1-1.4
		c-0.1-0.5-0.2-0.9-0.5-1.2s-0.5-0.6-0.9-0.9c-0.4-0.2-0.8-0.3-1.4-0.3c-0.5,0-1,0.1-1.4,0.3c-0.4,0.2-0.7,0.5-0.9,0.9
		s-0.4,0.8-0.5,1.2c-0.1,0.5-0.1,0.9-0.1,1.4S171,131.9,171.1,132.4z"/>
	<path class="st0" d="M190,136.9v-1.7h-0.1c-0.4,0.7-0.9,1.2-1.6,1.5c-0.7,0.3-1.3,0.5-2,0.5c-0.9,0-1.6-0.1-2.1-0.3s-1-0.6-1.3-1
		c-0.3-0.4-0.5-0.9-0.7-1.5s-0.2-1.3-0.2-2v-7.3h3.3v6.7c0,1,0.2,1.7,0.5,2.2s0.8,0.7,1.6,0.7c0.9,0,1.5-0.3,1.9-0.8
		c0.4-0.5,0.6-1.4,0.6-2.6v-6.2h3.3v11.9H190z"/>
	<path class="st0" d="M198.6,125.1v2.2h0c0.2-0.4,0.4-0.7,0.6-1c0.3-0.3,0.6-0.6,0.9-0.8c0.3-0.2,0.7-0.4,1.1-0.5
		c0.4-0.1,0.8-0.2,1.2-0.2c0.2,0,0.5,0,0.7,0.1v3c-0.2,0-0.3-0.1-0.5-0.1c-0.2,0-0.4,0-0.6,0c-0.6,0-1.1,0.1-1.5,0.3
		c-0.4,0.2-0.7,0.5-1,0.8c-0.3,0.3-0.4,0.7-0.5,1.2c-0.1,0.5-0.2,1-0.2,1.5v5.3h-3.3v-11.9H198.6z"/>
	<path class="st0" d="M221.8,137.8c-0.1,0.6-0.4,1.2-0.8,1.7s-1,1-1.9,1.3c-0.8,0.4-1.9,0.5-3.3,0.5c-0.6,0-1.2-0.1-1.8-0.2
		c-0.6-0.1-1.2-0.4-1.7-0.7c-0.5-0.3-0.9-0.7-1.2-1.2c-0.3-0.5-0.5-1.1-0.6-1.7h3.2c0.2,0.6,0.5,1,0.9,1.3c0.4,0.2,1,0.4,1.5,0.4
		c0.9,0,1.6-0.3,2-0.8c0.4-0.5,0.6-1.2,0.6-2.1v-1.6h0c-0.4,0.6-0.9,1.1-1.5,1.4s-1.3,0.4-2.1,0.4c-0.9,0-1.7-0.2-2.3-0.5
		s-1.2-0.7-1.6-1.3c-0.4-0.5-0.7-1.2-0.9-1.9c-0.2-0.7-0.3-1.5-0.3-2.3c0-0.8,0.1-1.5,0.3-2.2c0.2-0.7,0.5-1.3,1-1.9
		c0.4-0.5,1-1,1.6-1.3c0.6-0.3,1.4-0.5,2.2-0.5c0.8,0,1.5,0.1,2.1,0.4c0.6,0.3,1.1,0.8,1.5,1.5h0v-1.6h3.1v11.1
		C222,136.6,221.9,137.2,221.8,137.8z M217.3,133.9c0.4-0.2,0.6-0.4,0.9-0.7c0.2-0.3,0.4-0.7,0.5-1c0.1-0.4,0.2-0.8,0.2-1.2
		c0-0.5,0-1-0.1-1.4s-0.2-0.8-0.5-1.2c-0.2-0.3-0.5-0.6-0.8-0.8c-0.4-0.2-0.8-0.3-1.3-0.3c-0.5,0-0.9,0.1-1.2,0.3
		c-0.3,0.2-0.6,0.4-0.8,0.7c-0.2,0.3-0.4,0.7-0.5,1.1c-0.1,0.4-0.1,0.8-0.1,1.3c0,0.4,0,0.9,0.1,1.3c0.1,0.4,0.2,0.8,0.4,1.1
		c0.2,0.3,0.5,0.6,0.8,0.8c0.3,0.2,0.8,0.3,1.3,0.3C216.6,134.1,217,134,217.3,133.9z"/>
	<path class="st0" d="M224.6,128.4c0.3-0.8,0.7-1.4,1.2-2c0.5-0.5,1.2-1,1.9-1.3s1.6-0.4,2.5-0.4c0.9,0,1.8,0.1,2.5,0.4
		s1.4,0.7,1.9,1.3c0.5,0.5,0.9,1.2,1.2,2c0.3,0.8,0.4,1.6,0.4,2.6s-0.1,1.8-0.4,2.6c-0.3,0.8-0.7,1.4-1.2,2c-0.5,0.5-1.2,1-1.9,1.2
		s-1.6,0.4-2.5,0.4c-0.9,0-1.8-0.1-2.5-0.4s-1.4-0.7-1.9-1.2c-0.5-0.5-0.9-1.2-1.2-2c-0.3-0.8-0.4-1.6-0.4-2.6
		S224.3,129.2,224.6,128.4z M227.5,132.4c0.1,0.5,0.2,0.9,0.5,1.2c0.2,0.4,0.5,0.6,0.9,0.9c0.4,0.2,0.8,0.3,1.4,0.3
		c0.6,0,1-0.1,1.4-0.3c0.4-0.2,0.7-0.5,0.9-0.9c0.2-0.4,0.4-0.8,0.5-1.2c0.1-0.5,0.1-0.9,0.1-1.4s0-0.9-0.1-1.4
		c-0.1-0.5-0.2-0.9-0.5-1.2s-0.5-0.6-0.9-0.9c-0.4-0.2-0.8-0.3-1.4-0.3c-0.5,0-1,0.1-1.4,0.3c-0.4,0.2-0.7,0.5-0.9,0.9
		s-0.4,0.8-0.5,1.2c-0.1,0.5-0.1,0.9-0.1,1.4S227.4,131.9,227.5,132.4z"/>
	<path class="st0" d="M238.3,128.7c0-0.8,0.2-1.4,0.6-1.9c0.3-0.5,0.8-0.9,1.3-1.2s1.1-0.5,1.8-0.7c0.6-0.1,1.3-0.2,2-0.2
		c0.6,0,1.2,0,1.8,0.1s1.2,0.2,1.7,0.5c0.5,0.2,0.9,0.6,1.2,1c0.3,0.4,0.5,1,0.5,1.7v6.2c0,0.5,0,1,0.1,1.5c0.1,0.5,0.2,0.9,0.3,1.1
		h-3.3c-0.1-0.2-0.1-0.4-0.1-0.6s-0.1-0.4-0.1-0.6c-0.5,0.5-1.1,0.9-1.8,1.1c-0.7,0.2-1.4,0.3-2.2,0.3c-0.6,0-1.1-0.1-1.6-0.2
		c-0.5-0.1-0.9-0.4-1.3-0.6c-0.4-0.3-0.7-0.7-0.9-1.1s-0.3-1-0.3-1.6c0-0.7,0.1-1.2,0.4-1.7c0.2-0.4,0.5-0.8,0.9-1
		c0.4-0.3,0.8-0.5,1.3-0.6s1-0.2,1.5-0.3s1-0.1,1.4-0.2s0.9-0.1,1.3-0.2c0.4-0.1,0.7-0.2,0.9-0.4c0.2-0.2,0.3-0.4,0.3-0.8
		c0-0.4-0.1-0.6-0.2-0.8c-0.1-0.2-0.3-0.4-0.5-0.5c-0.2-0.1-0.4-0.2-0.7-0.2c-0.3,0-0.5-0.1-0.8-0.1c-0.6,0-1.1,0.1-1.5,0.4
		c-0.4,0.3-0.6,0.7-0.6,1.4H238.3z M245.8,131.1c-0.1,0.1-0.3,0.2-0.5,0.3c-0.2,0.1-0.4,0.1-0.7,0.2c-0.2,0-0.5,0.1-0.7,0.1
		c-0.3,0-0.5,0.1-0.8,0.1c-0.2,0-0.5,0.1-0.7,0.2c-0.2,0.1-0.4,0.2-0.6,0.3s-0.3,0.3-0.4,0.5c-0.1,0.2-0.2,0.5-0.2,0.8
		c0,0.3,0.1,0.5,0.2,0.7c0.1,0.2,0.3,0.4,0.4,0.5c0.2,0.1,0.4,0.2,0.6,0.2c0.2,0,0.5,0.1,0.8,0.1c0.6,0,1.1-0.1,1.5-0.3
		s0.6-0.5,0.8-0.8s0.3-0.6,0.3-0.9s0.1-0.6,0.1-0.7V131.1z"/>
	<path class="st0" d="M254.8,120.6v16.4h-3.3v-16.4H254.8z"/>
	<path class="st0" d="M260,134c0.1,0.3,0.3,0.5,0.6,0.6c0.2,0.2,0.5,0.3,0.8,0.4c0.3,0.1,0.6,0.1,0.9,0.1c0.2,0,0.5,0,0.7-0.1
		c0.3-0.1,0.5-0.1,0.7-0.3c0.2-0.1,0.4-0.3,0.5-0.5s0.2-0.4,0.2-0.7c0-0.5-0.3-0.9-1-1.1c-0.7-0.2-1.6-0.5-2.7-0.7
		c-0.5-0.1-0.9-0.2-1.4-0.4c-0.5-0.1-0.9-0.3-1.2-0.6c-0.4-0.2-0.6-0.5-0.8-0.9c-0.2-0.4-0.3-0.8-0.3-1.3c0-0.8,0.1-1.4,0.4-1.9
		c0.3-0.5,0.7-0.9,1.2-1.2c0.5-0.3,1-0.5,1.7-0.6c0.6-0.1,1.2-0.2,1.9-0.2s1.3,0.1,1.9,0.2c0.6,0.1,1.1,0.3,1.6,0.6s0.9,0.7,1.2,1.2
		c0.3,0.5,0.5,1.1,0.6,1.8h-3.1c0-0.6-0.3-1.1-0.7-1.3s-0.9-0.3-1.5-0.3c-0.2,0-0.4,0-0.6,0c-0.2,0-0.4,0.1-0.6,0.1
		c-0.2,0.1-0.3,0.2-0.4,0.3s-0.2,0.3-0.2,0.6c0,0.3,0.1,0.5,0.3,0.7s0.5,0.3,0.8,0.4c0.3,0.1,0.7,0.2,1.2,0.3s0.9,0.2,1.4,0.3
		c0.5,0.1,0.9,0.2,1.4,0.4c0.5,0.2,0.9,0.4,1.2,0.6s0.6,0.6,0.8,0.9c0.2,0.4,0.3,0.8,0.3,1.4c0,0.8-0.2,1.4-0.5,2
		c-0.3,0.5-0.7,1-1.2,1.3c-0.5,0.3-1.1,0.5-1.7,0.7c-0.6,0.1-1.3,0.2-2,0.2c-0.7,0-1.4-0.1-2-0.2s-1.2-0.4-1.8-0.7
		c-0.5-0.3-0.9-0.7-1.3-1.3c-0.3-0.5-0.5-1.2-0.5-2h3.1C259.8,133.4,259.8,133.7,260,134z"/>
</g>
<g>
	<path class="st0" d="M21.9,149.1v-2.7h3.3v2.7H21.9z M25.1,151v11.9h-3.3V151H25.1z"/>
	<path class="st0" d="M30.3,159.9c0.1,0.3,0.3,0.5,0.6,0.6c0.2,0.2,0.5,0.3,0.8,0.4c0.3,0.1,0.6,0.1,0.9,0.1c0.2,0,0.5,0,0.7-0.1
		c0.3-0.1,0.5-0.1,0.7-0.3c0.2-0.1,0.4-0.3,0.5-0.5s0.2-0.4,0.2-0.7c0-0.5-0.3-0.9-1-1.1c-0.6-0.2-1.6-0.5-2.7-0.7
		c-0.5-0.1-0.9-0.2-1.4-0.4c-0.5-0.1-0.9-0.3-1.2-0.6c-0.4-0.2-0.6-0.5-0.8-0.9c-0.2-0.4-0.3-0.8-0.3-1.3c0-0.8,0.1-1.4,0.4-1.9
		c0.3-0.5,0.7-0.9,1.2-1.2c0.5-0.3,1-0.5,1.7-0.6c0.6-0.1,1.2-0.2,1.9-0.2c0.6,0,1.3,0.1,1.9,0.2c0.6,0.1,1.1,0.3,1.6,0.6
		c0.5,0.3,0.9,0.7,1.2,1.2c0.3,0.5,0.5,1.1,0.6,1.8h-3.1c0-0.6-0.3-1.1-0.7-1.3s-0.9-0.3-1.5-0.3c-0.2,0-0.4,0-0.6,0
		c-0.2,0-0.4,0.1-0.6,0.1c-0.2,0.1-0.3,0.2-0.4,0.3c-0.1,0.1-0.2,0.3-0.2,0.6c0,0.3,0.1,0.5,0.3,0.7s0.5,0.3,0.8,0.4
		c0.3,0.1,0.7,0.2,1.2,0.3c0.4,0.1,0.9,0.2,1.4,0.3c0.5,0.1,0.9,0.2,1.4,0.4c0.5,0.2,0.9,0.4,1.2,0.6s0.6,0.6,0.8,0.9
		c0.2,0.4,0.3,0.8,0.3,1.4c0,0.8-0.2,1.4-0.5,2c-0.3,0.5-0.7,1-1.2,1.3c-0.5,0.3-1.1,0.5-1.7,0.7c-0.6,0.1-1.3,0.2-2,0.2
		c-0.7,0-1.4-0.1-2-0.2c-0.7-0.1-1.2-0.4-1.8-0.7c-0.5-0.3-0.9-0.7-1.3-1.3c-0.3-0.5-0.5-1.2-0.5-2h3.1
		C30.1,159.3,30.2,159.6,30.3,159.9z"/>
	<path class="st0" d="M45.9,154.6c0-0.8,0.2-1.4,0.6-1.9c0.3-0.5,0.8-0.9,1.3-1.2s1.1-0.5,1.8-0.7c0.6-0.1,1.3-0.2,2-0.2
		c0.6,0,1.2,0,1.8,0.1s1.2,0.2,1.7,0.5c0.5,0.2,0.9,0.6,1.2,1c0.3,0.4,0.5,1,0.5,1.7v6.2c0,0.5,0,1,0.1,1.5c0.1,0.5,0.2,0.9,0.3,1.1
		h-3.3c-0.1-0.2-0.1-0.4-0.1-0.6c0-0.2-0.1-0.4-0.1-0.6c-0.5,0.5-1.1,0.9-1.8,1.1c-0.7,0.2-1.4,0.3-2.2,0.3c-0.6,0-1.1-0.1-1.6-0.2
		c-0.5-0.1-0.9-0.4-1.3-0.6c-0.4-0.3-0.7-0.7-0.9-1.1c-0.2-0.4-0.3-1-0.3-1.6c0-0.7,0.1-1.2,0.4-1.7c0.2-0.4,0.5-0.8,0.9-1
		c0.4-0.3,0.8-0.5,1.3-0.6s1-0.2,1.5-0.3c0.5-0.1,1-0.1,1.4-0.2c0.5,0,0.9-0.1,1.3-0.2c0.4-0.1,0.7-0.2,0.9-0.4
		c0.2-0.2,0.3-0.4,0.3-0.8c0-0.4-0.1-0.6-0.2-0.8c-0.1-0.2-0.3-0.4-0.5-0.5c-0.2-0.1-0.4-0.2-0.7-0.2c-0.3,0-0.5-0.1-0.8-0.1
		c-0.6,0-1.1,0.1-1.5,0.4c-0.4,0.3-0.6,0.7-0.6,1.4H45.9z M53.4,157c-0.1,0.1-0.3,0.2-0.5,0.3c-0.2,0.1-0.4,0.1-0.7,0.2
		c-0.2,0-0.5,0.1-0.7,0.1c-0.3,0-0.5,0.1-0.8,0.1c-0.2,0-0.5,0.1-0.7,0.2c-0.2,0.1-0.4,0.2-0.6,0.3c-0.2,0.1-0.3,0.3-0.4,0.5
		s-0.2,0.5-0.2,0.8c0,0.3,0.1,0.5,0.2,0.7c0.1,0.2,0.3,0.4,0.4,0.5c0.2,0.1,0.4,0.2,0.6,0.2c0.2,0,0.5,0.1,0.8,0.1
		c0.6,0,1.1-0.1,1.5-0.3s0.6-0.5,0.8-0.8c0.2-0.3,0.3-0.6,0.3-0.9s0.1-0.6,0.1-0.7V157z"/>
	<path class="st0" d="M76.6,163.7c-0.1,0.6-0.4,1.2-0.8,1.7c-0.4,0.5-1,1-1.9,1.3c-0.8,0.4-1.9,0.5-3.3,0.5c-0.6,0-1.2-0.1-1.8-0.2
		s-1.2-0.4-1.7-0.7s-0.9-0.7-1.2-1.2s-0.5-1.1-0.6-1.7h3.2c0.2,0.6,0.5,1,0.9,1.3c0.4,0.2,1,0.4,1.5,0.4c0.9,0,1.6-0.3,2-0.8
		c0.4-0.5,0.6-1.2,0.6-2.1v-1.6h0c-0.4,0.6-0.9,1.1-1.5,1.4c-0.6,0.3-1.3,0.4-2.1,0.4c-0.9,0-1.7-0.2-2.3-0.5
		c-0.6-0.3-1.2-0.7-1.6-1.3c-0.4-0.5-0.7-1.2-0.9-1.9c-0.2-0.7-0.3-1.5-0.3-2.3c0-0.8,0.1-1.5,0.3-2.2c0.2-0.7,0.5-1.3,1-1.9
		c0.4-0.5,1-1,1.6-1.3c0.6-0.3,1.4-0.5,2.2-0.5c0.8,0,1.5,0.1,2.1,0.4c0.6,0.3,1.1,0.8,1.5,1.5h0V151h3.1v11.1
		C76.8,162.5,76.7,163.1,76.6,163.7z M72.2,159.8c0.4-0.2,0.6-0.4,0.9-0.7c0.2-0.3,0.4-0.7,0.5-1c0.1-0.4,0.2-0.8,0.2-1.2
		c0-0.5,0-1-0.1-1.4s-0.2-0.8-0.5-1.2c-0.2-0.3-0.5-0.6-0.8-0.8c-0.4-0.2-0.8-0.3-1.3-0.3c-0.5,0-0.9,0.1-1.2,0.3s-0.6,0.4-0.8,0.7
		s-0.4,0.7-0.5,1.1c-0.1,0.4-0.1,0.8-0.1,1.3c0,0.4,0,0.9,0.1,1.3c0.1,0.4,0.2,0.8,0.4,1.1c0.2,0.3,0.5,0.6,0.8,0.8
		c0.3,0.2,0.8,0.3,1.3,0.3C71.4,160,71.8,159.9,72.2,159.8z"/>
	<path class="st0" d="M79.4,154.3c0.3-0.8,0.7-1.4,1.2-2c0.5-0.5,1.2-1,1.9-1.3c0.7-0.3,1.6-0.4,2.5-0.4c0.9,0,1.8,0.1,2.5,0.4
		c0.8,0.3,1.4,0.7,1.9,1.3c0.5,0.5,0.9,1.2,1.2,2c0.3,0.8,0.4,1.6,0.4,2.6s-0.1,1.8-0.4,2.6c-0.3,0.8-0.7,1.4-1.2,2
		c-0.5,0.5-1.2,1-1.9,1.2s-1.6,0.4-2.5,0.4c-0.9,0-1.8-0.1-2.5-0.4c-0.7-0.3-1.4-0.7-1.9-1.2c-0.5-0.5-0.9-1.2-1.2-2
		c-0.3-0.8-0.4-1.6-0.4-2.6S79.1,155.1,79.4,154.3z M82.3,158.3c0.1,0.5,0.2,0.9,0.5,1.2c0.2,0.4,0.5,0.6,0.9,0.9
		c0.4,0.2,0.8,0.3,1.4,0.3c0.5,0,1-0.1,1.4-0.3c0.4-0.2,0.7-0.5,0.9-0.9c0.2-0.4,0.4-0.8,0.5-1.2c0.1-0.5,0.1-0.9,0.1-1.4
		s0-0.9-0.1-1.4c-0.1-0.5-0.2-0.9-0.5-1.2c-0.2-0.4-0.5-0.6-0.9-0.9c-0.4-0.2-0.8-0.3-1.4-0.3c-0.6,0-1,0.1-1.4,0.3
		s-0.7,0.5-0.9,0.9s-0.4,0.8-0.5,1.2c-0.1,0.5-0.1,0.9-0.1,1.4S82.2,157.8,82.3,158.3z"/>
	<path class="st0" d="M93.3,154.3c0.3-0.8,0.7-1.4,1.2-2c0.5-0.5,1.2-1,1.9-1.3c0.7-0.3,1.6-0.4,2.5-0.4c0.9,0,1.8,0.1,2.5,0.4
		c0.8,0.3,1.4,0.7,1.9,1.3c0.5,0.5,0.9,1.2,1.2,2c0.3,0.8,0.4,1.6,0.4,2.6s-0.1,1.8-0.4,2.6c-0.3,0.8-0.7,1.4-1.2,2
		c-0.5,0.5-1.2,1-1.9,1.2s-1.6,0.4-2.5,0.4c-0.9,0-1.8-0.1-2.5-0.4c-0.7-0.3-1.4-0.7-1.9-1.2c-0.5-0.5-0.9-1.2-1.2-2
		c-0.3-0.8-0.4-1.6-0.4-2.6S93,155.1,93.3,154.3z M96.2,158.3c0.1,0.5,0.2,0.9,0.5,1.2c0.2,0.4,0.5,0.6,0.9,0.9
		c0.4,0.2,0.8,0.3,1.4,0.3c0.5,0,1-0.1,1.4-0.3c0.4-0.2,0.7-0.5,0.9-0.9c0.2-0.4,0.4-0.8,0.5-1.2c0.1-0.5,0.1-0.9,0.1-1.4
		s0-0.9-0.1-1.4c-0.1-0.5-0.2-0.9-0.5-1.2c-0.2-0.4-0.5-0.6-0.9-0.9c-0.4-0.2-0.8-0.3-1.4-0.3c-0.6,0-1,0.1-1.4,0.3
		s-0.7,0.5-0.9,0.9s-0.4,0.8-0.5,1.2c-0.1,0.5-0.1,0.9-0.1,1.4S96.2,157.8,96.2,158.3z"/>
	<path class="st0" d="M115.5,161.3c-0.4,0.6-0.9,1.1-1.5,1.4c-0.6,0.3-1.3,0.4-2.1,0.4c-0.9,0-1.7-0.2-2.3-0.5s-1.2-0.8-1.7-1.4
		c-0.4-0.6-0.8-1.3-1-2c-0.2-0.8-0.3-1.6-0.3-2.4c0-0.8,0.1-1.6,0.3-2.3c0.2-0.7,0.6-1.4,1-2s1-1,1.6-1.4s1.4-0.5,2.3-0.5
		c0.7,0,1.4,0.1,2,0.4c0.6,0.3,1.1,0.7,1.5,1.3h0v-6h3.3v16.4h-3.1L115.5,161.3L115.5,161.3z M115.4,155.5c-0.1-0.5-0.2-0.8-0.5-1.2
		s-0.5-0.6-0.9-0.8c-0.4-0.2-0.8-0.3-1.3-0.3c-0.5,0-1,0.1-1.4,0.3s-0.7,0.5-0.9,0.8c-0.2,0.4-0.4,0.8-0.5,1.2
		c-0.1,0.5-0.1,0.9-0.1,1.4c0,0.5,0.1,0.9,0.2,1.4c0.1,0.5,0.3,0.9,0.5,1.2c0.2,0.4,0.5,0.6,0.9,0.9s0.8,0.3,1.3,0.3
		c0.5,0,1-0.1,1.3-0.3c0.4-0.2,0.6-0.5,0.9-0.9c0.2-0.4,0.4-0.8,0.5-1.2c0.1-0.5,0.1-0.9,0.1-1.4S115.5,155.9,115.4,155.5z"/>
	<path class="st0" d="M130.4,151v1.5h0c0.4-0.6,0.9-1.1,1.5-1.4s1.3-0.4,2-0.4c0.9,0,1.7,0.2,2.4,0.5c0.7,0.4,1.2,0.8,1.7,1.4
		c0.4,0.6,0.8,1.3,1,2c0.2,0.8,0.3,1.6,0.3,2.4c0,0.8-0.1,1.6-0.3,2.3c-0.2,0.7-0.5,1.4-1,1.9s-1,1-1.6,1.4s-1.4,0.5-2.3,0.5
		c-0.7,0-1.4-0.1-2-0.4c-0.6-0.3-1.1-0.7-1.5-1.3h0v5.6h-3.3v-16H130.4z M134.6,160.4c0.4-0.2,0.6-0.5,0.9-0.8s0.4-0.7,0.5-1.2
		c0.1-0.5,0.1-0.9,0.1-1.4c0-0.5,0-0.9-0.1-1.4c-0.1-0.5-0.3-0.9-0.5-1.2s-0.5-0.6-0.9-0.9c-0.4-0.2-0.8-0.3-1.3-0.3
		c-0.5,0-1,0.1-1.3,0.3c-0.4,0.2-0.6,0.5-0.9,0.9c-0.2,0.4-0.4,0.8-0.5,1.2c-0.1,0.5-0.1,0.9-0.1,1.4c0,0.5,0,0.9,0.1,1.4
		c0.1,0.5,0.3,0.9,0.5,1.2c0.2,0.3,0.5,0.6,0.9,0.8c0.4,0.2,0.8,0.3,1.3,0.3C133.8,160.7,134.2,160.6,134.6,160.4z"/>
	<path class="st0" d="M144.5,146.5v16.4h-3.3v-16.4H144.5z"/>
	<path class="st0" d="M146.8,154.6c0-0.8,0.2-1.4,0.6-1.9c0.3-0.5,0.8-0.9,1.3-1.2s1.1-0.5,1.8-0.7c0.6-0.1,1.3-0.2,2-0.2
		c0.6,0,1.2,0,1.8,0.1s1.2,0.2,1.7,0.5c0.5,0.2,0.9,0.6,1.2,1c0.3,0.4,0.5,1,0.5,1.7v6.2c0,0.5,0,1,0.1,1.5c0.1,0.5,0.2,0.9,0.3,1.1
		h-3.3c-0.1-0.2-0.1-0.4-0.1-0.6s-0.1-0.4-0.1-0.6c-0.5,0.5-1.1,0.9-1.8,1.1c-0.7,0.2-1.4,0.3-2.2,0.3c-0.6,0-1.1-0.1-1.6-0.2
		c-0.5-0.1-0.9-0.4-1.3-0.6c-0.4-0.3-0.7-0.7-0.9-1.1s-0.3-1-0.3-1.6c0-0.7,0.1-1.2,0.4-1.7c0.2-0.4,0.5-0.8,0.9-1
		c0.4-0.3,0.8-0.5,1.3-0.6s1-0.2,1.5-0.3s1-0.1,1.4-0.2s0.9-0.1,1.3-0.2c0.4-0.1,0.7-0.2,0.9-0.4c0.2-0.2,0.3-0.4,0.3-0.8
		c0-0.4-0.1-0.6-0.2-0.8c-0.1-0.2-0.3-0.4-0.5-0.5c-0.2-0.1-0.4-0.2-0.7-0.2c-0.3,0-0.5-0.1-0.8-0.1c-0.6,0-1.1,0.1-1.5,0.4
		c-0.4,0.3-0.6,0.7-0.6,1.4H146.8z M154.4,157c-0.1,0.1-0.3,0.2-0.5,0.3c-0.2,0.1-0.4,0.1-0.7,0.2c-0.2,0-0.5,0.1-0.7,0.1
		c-0.3,0-0.5,0.1-0.8,0.1c-0.2,0-0.5,0.1-0.7,0.2c-0.2,0.1-0.4,0.2-0.6,0.3s-0.3,0.3-0.4,0.5c-0.1,0.2-0.2,0.5-0.2,0.8
		c0,0.3,0.1,0.5,0.2,0.7c0.1,0.2,0.3,0.4,0.4,0.5c0.2,0.1,0.4,0.2,0.6,0.2c0.2,0,0.5,0.1,0.8,0.1c0.6,0,1.1-0.1,1.5-0.3
		s0.6-0.5,0.8-0.8s0.3-0.6,0.3-0.9s0.1-0.6,0.1-0.7V157z"/>
	<path class="st0" d="M163.1,151v1.7h0.1c0.4-0.7,0.9-1.2,1.6-1.5s1.3-0.5,2-0.5c0.9,0,1.6,0.1,2.1,0.4c0.6,0.2,1,0.6,1.3,1
		c0.3,0.4,0.5,0.9,0.7,1.5c0.1,0.6,0.2,1.3,0.2,2v7.3h-3.3v-6.7c0-1-0.2-1.7-0.5-2.2s-0.8-0.7-1.6-0.7c-0.9,0-1.5,0.3-1.9,0.8
		c-0.4,0.5-0.6,1.4-0.6,2.6v6.2H160V151H163.1z"/>
	<path class="st0" d="M177.3,159.3v3.5c0,0.5-0.1,1-0.3,1.4c-0.2,0.4-0.4,0.8-0.8,1.1c-0.3,0.3-0.7,0.6-1.1,0.8s-0.9,0.3-1.4,0.4
		V165c0.2,0,0.4-0.1,0.7-0.3c0.2-0.1,0.4-0.3,0.5-0.5c0.2-0.2,0.3-0.4,0.3-0.6c0.1-0.2,0.1-0.5,0.1-0.7h-1.7v-3.5H177.3z"/>
	<path class="st0" d="M192.6,151v2.2h-2.4v5.9c0,0.6,0.1,0.9,0.3,1.1c0.2,0.2,0.6,0.3,1.1,0.3c0.2,0,0.4,0,0.5,0
		c0.2,0,0.3,0,0.5-0.1v2.5c-0.3,0-0.6,0.1-0.9,0.1c-0.3,0-0.7,0-1,0c-0.5,0-1,0-1.4-0.1c-0.5-0.1-0.8-0.2-1.2-0.4
		c-0.3-0.2-0.6-0.5-0.8-0.8c-0.2-0.4-0.3-0.8-0.3-1.4v-7h-2V151h2v-3.6h3.3v3.6H192.6z"/>
	<path class="st0" d="M194.1,154.3c0.3-0.8,0.7-1.4,1.2-2c0.5-0.5,1.2-1,1.9-1.3c0.7-0.3,1.6-0.4,2.5-0.4c0.9,0,1.8,0.1,2.5,0.4
		c0.8,0.3,1.4,0.7,1.9,1.3c0.5,0.5,0.9,1.2,1.2,2c0.3,0.8,0.4,1.6,0.4,2.6s-0.1,1.8-0.4,2.6c-0.3,0.8-0.7,1.4-1.2,2
		c-0.5,0.5-1.2,1-1.9,1.2s-1.6,0.4-2.5,0.4c-0.9,0-1.8-0.1-2.5-0.4s-1.4-0.7-1.9-1.2c-0.5-0.5-0.9-1.2-1.2-2
		c-0.3-0.8-0.4-1.6-0.4-2.6S193.9,155.1,194.1,154.3z M197.1,158.3c0.1,0.5,0.2,0.9,0.5,1.2c0.2,0.4,0.5,0.6,0.9,0.9
		c0.4,0.2,0.8,0.3,1.4,0.3c0.6,0,1-0.1,1.4-0.3c0.4-0.2,0.7-0.5,0.9-0.9c0.2-0.4,0.4-0.8,0.5-1.2c0.1-0.5,0.1-0.9,0.1-1.4
		s0-0.9-0.1-1.4c-0.1-0.5-0.2-0.9-0.5-1.2s-0.5-0.6-0.9-0.9c-0.4-0.2-0.8-0.3-1.4-0.3c-0.5,0-1,0.1-1.4,0.3
		c-0.4,0.2-0.7,0.5-0.9,0.9s-0.4,0.8-0.5,1.2c-0.1,0.5-0.1,0.9-0.1,1.4S197,157.8,197.1,158.3z"/>
	<path class="st0" d="M208,154.3c0.3-0.8,0.7-1.4,1.2-2c0.5-0.5,1.2-1,1.9-1.3c0.7-0.3,1.6-0.4,2.5-0.4c0.9,0,1.8,0.1,2.5,0.4
		c0.8,0.3,1.4,0.7,1.9,1.3c0.5,0.5,0.9,1.2,1.2,2c0.3,0.8,0.4,1.6,0.4,2.6s-0.1,1.8-0.4,2.6c-0.3,0.8-0.7,1.4-1.2,2
		c-0.5,0.5-1.2,1-1.9,1.2s-1.6,0.4-2.5,0.4c-0.9,0-1.8-0.1-2.5-0.4s-1.4-0.7-1.9-1.2c-0.5-0.5-0.9-1.2-1.2-2
		c-0.3-0.8-0.4-1.6-0.4-2.6S207.7,155.1,208,154.3z M211,158.3c0.1,0.5,0.2,0.9,0.5,1.2c0.2,0.4,0.5,0.6,0.9,0.9
		c0.4,0.2,0.8,0.3,1.4,0.3c0.6,0,1-0.1,1.4-0.3c0.4-0.2,0.7-0.5,0.9-0.9c0.2-0.4,0.4-0.8,0.5-1.2c0.1-0.5,0.1-0.9,0.1-1.4
		s0-0.9-0.1-1.4c-0.1-0.5-0.2-0.9-0.5-1.2s-0.5-0.6-0.9-0.9c-0.4-0.2-0.8-0.3-1.4-0.3c-0.5,0-1,0.1-1.4,0.3
		c-0.4,0.2-0.7,0.5-0.9,0.9s-0.4,0.8-0.5,1.2c-0.1,0.5-0.1,0.9-0.1,1.4S210.9,157.8,211,158.3z"/>
	<path class="st0" d="M225.6,159.3v3.5H222v-3.5H225.6z"/>
</g>
</svg>
