<?xml version="1.0" encoding="utf-8"?>
<!-- Generator: Adobe Illustrator 26.1.0, SVG Export Plug-In . SVG Version: 6.00 Build 0)  -->
<svg version="1.1" id="Layer_1" xmlns="http://www.w3.org/2000/svg" xmlns:xlink="http://www.w3.org/1999/xlink" x="0px" y="0px"
	 viewBox="0 0 300 250" style="enable-background:new 0 0 300 250;" xml:space="preserve">
<g>
	<path d="M80.6,32.9c0.7,0,1.4,0.1,2,0.4c0.6,0.2,1.1,0.6,1.5,1c0.4,0.4,0.7,0.9,1,1.4c0.2,0.5,0.3,1.1,0.3,1.8c0,1-0.2,1.8-0.6,2.5
		c-0.4,0.7-1.1,1.2-2,1.6v0c0.4,0.1,0.8,0.3,1.1,0.6c0.3,0.3,0.5,0.6,0.7,0.9c0.2,0.3,0.3,0.7,0.4,1.1c0.1,0.4,0.1,0.8,0.2,1.2
		c0,0.3,0,0.6,0,0.9c0,0.4,0,0.7,0.1,1.1c0,0.4,0.1,0.7,0.2,1c0.1,0.3,0.2,0.6,0.4,0.8h-3.6c-0.2-0.5-0.3-1.1-0.4-1.9
		c0-0.7-0.1-1.4-0.2-2.1c-0.1-0.9-0.4-1.5-0.8-1.9c-0.4-0.4-1-0.6-1.9-0.6h-3.6v6.4h-3.6V32.9H80.6z M79.3,40.3
		c0.8,0,1.4-0.2,1.9-0.6s0.6-1,0.6-1.8c0-0.8-0.2-1.4-0.6-1.7c-0.4-0.4-1-0.5-1.9-0.5h-3.9v4.6H79.3z"/>
	<path d="M91.1,46.4c0.5,0.5,1.2,0.7,2.1,0.7c0.7,0,1.2-0.2,1.7-0.5s0.8-0.7,0.9-1h2.9c-0.5,1.4-1.2,2.4-2.1,3
		c-0.9,0.6-2.1,0.9-3.4,0.9c-0.9,0-1.8-0.1-2.5-0.4c-0.7-0.3-1.4-0.7-1.9-1.3c-0.5-0.5-0.9-1.2-1.2-2c-0.3-0.8-0.4-1.6-0.4-2.5
		c0-0.9,0.1-1.7,0.4-2.5c0.3-0.8,0.7-1.4,1.2-2c0.5-0.6,1.2-1,1.9-1.3c0.7-0.3,1.6-0.5,2.5-0.5c1,0,1.9,0.2,2.6,0.6
		c0.7,0.4,1.4,0.9,1.8,1.6c0.5,0.7,0.8,1.4,1,2.2c0.2,0.8,0.3,1.7,0.2,2.6h-8.6C90.3,45.1,90.6,45.9,91.1,46.4z M94.7,40.2
		c-0.4-0.4-1-0.6-1.8-0.6c-0.5,0-1,0.1-1.3,0.3s-0.6,0.4-0.8,0.7c-0.2,0.3-0.4,0.5-0.4,0.8c-0.1,0.3-0.1,0.5-0.1,0.8h5.3
		C95.4,41.2,95.1,40.6,94.7,40.2z"/>
	<path d="M100.2,41c0-0.8,0.2-1.4,0.6-1.9c0.3-0.5,0.8-0.9,1.3-1.2s1.1-0.5,1.8-0.7s1.3-0.2,2-0.2c0.6,0,1.2,0,1.8,0.1
		s1.2,0.2,1.7,0.5c0.5,0.2,0.9,0.6,1.2,1c0.3,0.4,0.5,1,0.5,1.7v6.2c0,0.5,0,1,0.1,1.5s0.2,0.9,0.3,1.1H108
		c-0.1-0.2-0.1-0.4-0.1-0.6c0-0.2-0.1-0.4-0.1-0.6c-0.5,0.5-1.1,0.9-1.8,1.1c-0.7,0.2-1.4,0.3-2.2,0.3c-0.6,0-1.1-0.1-1.6-0.2
		c-0.5-0.1-0.9-0.4-1.3-0.6c-0.4-0.3-0.7-0.7-0.9-1.1c-0.2-0.4-0.3-1-0.3-1.6c0-0.7,0.1-1.2,0.4-1.7c0.2-0.4,0.5-0.8,0.9-1
		c0.4-0.3,0.8-0.5,1.3-0.6s1-0.2,1.5-0.3c0.5-0.1,1-0.1,1.4-0.2c0.5,0,0.9-0.1,1.3-0.2c0.4-0.1,0.7-0.2,0.9-0.4
		c0.2-0.2,0.3-0.4,0.3-0.8c0-0.4-0.1-0.6-0.2-0.8c-0.1-0.2-0.3-0.4-0.5-0.5c-0.2-0.1-0.4-0.2-0.7-0.2c-0.3,0-0.5-0.1-0.8-0.1
		c-0.6,0-1.1,0.1-1.5,0.4c-0.4,0.3-0.6,0.7-0.6,1.4H100.2z M107.7,43.4c-0.1,0.1-0.3,0.2-0.5,0.3c-0.2,0.1-0.4,0.1-0.7,0.2
		c-0.2,0-0.5,0.1-0.7,0.1c-0.3,0-0.5,0.1-0.8,0.1c-0.2,0-0.5,0.1-0.7,0.2s-0.4,0.2-0.6,0.3c-0.2,0.1-0.3,0.3-0.4,0.5
		s-0.2,0.5-0.2,0.8c0,0.3,0.1,0.5,0.2,0.7c0.1,0.2,0.3,0.4,0.4,0.5c0.2,0.1,0.4,0.2,0.6,0.2c0.2,0,0.5,0.1,0.8,0.1
		c0.6,0,1.1-0.1,1.5-0.3c0.4-0.2,0.6-0.5,0.8-0.8c0.2-0.3,0.3-0.6,0.3-0.9s0.1-0.6,0.1-0.7V43.4z"/>
	<path d="M121.4,47.7c-0.4,0.6-0.9,1.1-1.5,1.4c-0.6,0.3-1.3,0.4-2.1,0.4c-0.9,0-1.7-0.2-2.3-0.5s-1.2-0.8-1.7-1.4
		c-0.4-0.6-0.8-1.3-1-2c-0.2-0.8-0.3-1.6-0.3-2.4c0-0.8,0.1-1.6,0.3-2.3c0.2-0.7,0.6-1.4,1-2c0.4-0.6,1-1,1.6-1.4s1.4-0.5,2.3-0.5
		c0.7,0,1.4,0.1,2,0.4c0.6,0.3,1.1,0.7,1.5,1.3h0v-6h3.3v16.4h-3.1L121.4,47.7L121.4,47.7z M121.3,41.9c-0.1-0.5-0.2-0.8-0.5-1.2
		c-0.2-0.3-0.5-0.6-0.9-0.8c-0.4-0.2-0.8-0.3-1.3-0.3c-0.5,0-1,0.1-1.4,0.3c-0.4,0.2-0.7,0.5-0.9,0.8c-0.2,0.4-0.4,0.8-0.5,1.2
		c-0.1,0.5-0.1,0.9-0.1,1.4c0,0.5,0.1,0.9,0.2,1.4s0.3,0.9,0.5,1.2c0.2,0.4,0.5,0.6,0.9,0.9c0.4,0.2,0.8,0.3,1.3,0.3
		c0.5,0,1-0.1,1.3-0.3s0.6-0.5,0.9-0.9c0.2-0.4,0.4-0.8,0.5-1.2s0.1-0.9,0.1-1.4C121.4,42.8,121.4,42.3,121.3,41.9z"/>
	<path d="M126.7,41.1v-3.5h3.6v3.5H126.7z M130.3,45.7v3.5h-3.6v-3.5H130.3z"/>
</g>
<g>
	<path d="M147,32.9c0.8,0,1.6,0.1,2.3,0.2c0.7,0.2,1.3,0.4,1.8,0.8c0.5,0.4,0.9,0.9,1.2,1.5c0.3,0.6,0.4,1.4,0.4,2.3
		c0,0.9-0.2,1.7-0.5,2.4s-0.8,1.3-1.4,1.8c-0.6,0.5-1.3,0.9-2,1.1s-1.6,0.4-2.4,0.4h-4.4l-1.2,5.9H137l3.4-16.4H147z M146.1,40.6
		c0.9,0,1.6-0.2,2.2-0.7c0.5-0.5,0.8-1.2,0.8-2.2c0-0.4-0.1-0.8-0.2-1c-0.1-0.3-0.3-0.5-0.6-0.6c-0.2-0.1-0.5-0.2-0.8-0.3
		c-0.3-0.1-0.6-0.1-0.9-0.1h-3.1l-1,4.9H146.1z"/>
	<path d="M157.2,37.4l-0.5,2.1l0,0c0.4-0.8,0.9-1.4,1.7-1.9s1.5-0.6,2.4-0.6c0.3,0,0.7,0,1,0.1l-0.7,3.2c-0.2,0-0.5-0.1-0.7-0.1
		c-0.2,0-0.5-0.1-0.7-0.1c-0.6,0-1.2,0.1-1.6,0.3s-0.8,0.5-1.1,0.9c-0.3,0.4-0.5,0.8-0.7,1.2c-0.2,0.5-0.3,1-0.4,1.5l-1.1,5.2h-3.2
		l2.5-11.9H157.2z"/>
	<path d="M162.5,39.1c0.4-0.5,0.8-0.9,1.3-1.2s1.1-0.5,1.7-0.7s1.3-0.2,1.9-0.2c0.5,0,1.1,0,1.7,0.1c0.6,0.1,1.1,0.2,1.6,0.4
		s0.9,0.5,1.2,0.9c0.3,0.4,0.5,0.9,0.4,1.6c0,0.6-0.1,1.2-0.3,2l-1.1,4.8c-0.1,0.2-0.1,0.5-0.1,0.8c0,0.3,0,0.6,0,0.8
		c0,0.2,0,0.4,0.1,0.7h-3.3v-1.2c-0.4,0.5-1,0.9-1.6,1.1c-0.6,0.2-1.3,0.4-2,0.4c-0.6,0-1.2-0.1-1.7-0.3s-0.9-0.4-1.2-0.7
		c-0.3-0.3-0.6-0.6-0.7-1c-0.2-0.4-0.2-0.8-0.2-1.2c0-1.1,0.4-2.1,1.2-2.8s1.9-1.1,3.3-1.3c0.8-0.1,1.4-0.2,2-0.2
		c0.6,0,1-0.1,1.4-0.2c0.4-0.1,0.7-0.2,0.8-0.4s0.3-0.5,0.3-0.9c0-0.3-0.1-0.6-0.2-0.7c-0.1-0.2-0.3-0.3-0.5-0.4s-0.4-0.2-0.7-0.2
		c-0.2,0-0.5-0.1-0.7-0.1c-0.6,0-1.1,0.1-1.6,0.4c-0.5,0.3-0.7,0.7-0.8,1.3h-3C161.9,40.2,162.1,39.6,162.5,39.1z M167.3,44
		c-0.5,0.1-0.9,0.1-1.4,0.1c-0.3,0-0.6,0.1-0.9,0.1s-0.5,0.2-0.8,0.3c-0.2,0.1-0.4,0.3-0.5,0.6c-0.1,0.2-0.2,0.5-0.2,0.9
		c0,0.4,0.2,0.8,0.5,1c0.4,0.2,0.8,0.3,1.2,0.3c0.5,0,0.9-0.1,1.3-0.2c0.3-0.2,0.6-0.4,0.9-0.6c0.2-0.3,0.4-0.5,0.6-0.9
		c0.1-0.3,0.3-0.6,0.3-1l0.3-1.1C168.3,43.8,167.8,43.9,167.3,44z"/>
	<path d="M181.6,40c-0.4-0.3-0.9-0.5-1.6-0.5c-0.6,0-1.1,0.2-1.6,0.5s-0.8,0.7-1,1.2s-0.4,1.1-0.6,1.6c-0.1,0.6-0.2,1.1-0.2,1.6
		c0,0.4,0,0.7,0.1,1c0.1,0.3,0.2,0.6,0.4,0.8c0.2,0.2,0.4,0.4,0.7,0.5c0.3,0.1,0.6,0.2,1,0.2c0.4,0,0.7-0.1,1-0.2
		c0.3-0.1,0.5-0.3,0.8-0.5c0.2-0.2,0.4-0.4,0.5-0.7c0.1-0.3,0.3-0.5,0.4-0.8h3.3c-0.5,1.5-1.2,2.6-2.3,3.4c-1,0.8-2.3,1.2-3.9,1.2
		c-1.7,0-3-0.4-3.9-1.2c-0.9-0.8-1.4-2.1-1.4-3.8c0-1,0.1-2,0.4-2.9c0.3-0.9,0.7-1.7,1.3-2.4c0.6-0.7,1.3-1.2,2.1-1.6
		s1.8-0.6,2.8-0.6c0.7,0,1.4,0.1,2,0.3c0.6,0.2,1.2,0.4,1.7,0.8s0.9,0.8,1.1,1.4c0.3,0.6,0.4,1.2,0.4,2h-3.3
		C182.1,40.8,181.9,40.3,181.6,40z"/>
	<path d="M194.1,37.4l-0.5,2.2h-2.3l-1.2,5.9c0,0.1-0.1,0.2-0.1,0.3s0,0.2,0,0.2c0,0.2,0,0.4,0.1,0.5c0.1,0.1,0.2,0.2,0.3,0.3
		s0.2,0.1,0.4,0.1c0.1,0,0.3,0,0.4,0c0.4,0,0.8,0,1.2-0.1l-0.5,2.5c-0.3,0-0.7,0.1-1,0.1s-0.7,0-1,0c-0.4,0-0.8,0-1.1-0.1
		c-0.4-0.1-0.7-0.2-1-0.4c-0.3-0.2-0.5-0.4-0.7-0.7c-0.2-0.3-0.3-0.7-0.2-1.2c0-0.2,0-0.3,0-0.5c0-0.2,0.1-0.4,0.1-0.6l1.3-6.3H186
		l0.5-2.2h2.1l0.7-3.6h3.3l-0.7,3.6H194.1z"/>
	<path d="M199,37.4l-2.5,11.9h-3.3l2.5-11.9H199z M196.1,35.5l0.6-2.7h3.3l-0.6,2.7H196.1z"/>
	<path d="M207.4,40c-0.4-0.3-0.9-0.5-1.6-0.5c-0.6,0-1.1,0.2-1.6,0.5s-0.8,0.7-1,1.2s-0.4,1.1-0.6,1.6c-0.1,0.6-0.2,1.1-0.2,1.6
		c0,0.4,0,0.7,0.1,1c0.1,0.3,0.2,0.6,0.4,0.8c0.2,0.2,0.4,0.4,0.7,0.5c0.3,0.1,0.6,0.2,1,0.2c0.4,0,0.7-0.1,1-0.2
		c0.3-0.1,0.5-0.3,0.8-0.5c0.2-0.2,0.4-0.4,0.5-0.7c0.1-0.3,0.3-0.5,0.4-0.8h3.3c-0.5,1.5-1.2,2.6-2.3,3.4c-1,0.8-2.3,1.2-3.9,1.2
		c-1.7,0-3-0.4-3.9-1.2c-0.9-0.8-1.4-2.1-1.4-3.8c0-1,0.1-2,0.4-2.9c0.3-0.9,0.7-1.7,1.3-2.4c0.6-0.7,1.3-1.2,2.1-1.6
		s1.8-0.6,2.8-0.6c0.7,0,1.4,0.1,2,0.3c0.6,0.2,1.2,0.4,1.7,0.8s0.9,0.8,1.1,1.4c0.3,0.6,0.4,1.2,0.4,2H208
		C208,40.8,207.8,40.3,207.4,40z"/>
	<path d="M213.3,39.1c0.4-0.5,0.8-0.9,1.3-1.2s1.1-0.5,1.7-0.7s1.3-0.2,1.9-0.2c0.5,0,1.1,0,1.7,0.1c0.6,0.1,1.1,0.2,1.6,0.4
		s0.9,0.5,1.2,0.9c0.3,0.4,0.5,0.9,0.4,1.6c0,0.6-0.1,1.2-0.3,2l-1.1,4.8c-0.1,0.2-0.1,0.5-0.1,0.8c0,0.3,0,0.6,0,0.8
		c0,0.2,0,0.4,0.1,0.7h-3.3v-1.2c-0.4,0.5-1,0.9-1.6,1.1c-0.6,0.2-1.3,0.4-2,0.4c-0.6,0-1.2-0.1-1.7-0.3s-0.9-0.4-1.2-0.7
		c-0.3-0.3-0.6-0.6-0.7-1c-0.2-0.4-0.2-0.8-0.2-1.2c0-1.1,0.4-2.1,1.2-2.8s1.9-1.1,3.3-1.3c0.8-0.1,1.4-0.2,2-0.2
		c0.6,0,1-0.1,1.4-0.2c0.4-0.1,0.7-0.2,0.8-0.4s0.3-0.5,0.3-0.9c0-0.3-0.1-0.6-0.2-0.7c-0.1-0.2-0.3-0.3-0.5-0.4s-0.4-0.2-0.7-0.2
		c-0.2,0-0.5-0.1-0.7-0.1c-0.6,0-1.1,0.1-1.6,0.4c-0.5,0.3-0.7,0.7-0.8,1.3h-3C212.8,40.2,213,39.6,213.3,39.1z M218.2,44
		c-0.5,0.1-0.9,0.1-1.4,0.1c-0.3,0-0.6,0.1-0.9,0.1s-0.5,0.2-0.8,0.3c-0.2,0.1-0.4,0.3-0.5,0.6c-0.1,0.2-0.2,0.5-0.2,0.9
		c0,0.4,0.2,0.8,0.5,1c0.4,0.2,0.8,0.3,1.2,0.3c0.5,0,0.9-0.1,1.3-0.2c0.3-0.2,0.6-0.4,0.9-0.6c0.2-0.3,0.4-0.5,0.6-0.9
		c0.1-0.3,0.3-0.6,0.3-1l0.3-1.1C219.1,43.8,218.7,43.9,218.2,44z"/>
	<path d="M230.5,32.9L227,49.2h-3.2l3.5-16.4H230.5z"/>
</g>
<g>
	<path d="M44.5,65c0.4-0.5,0.8-0.9,1.3-1.2s1.1-0.5,1.7-0.7c0.6-0.1,1.3-0.2,1.9-0.2c0.5,0,1.1,0,1.7,0.1c0.6,0.1,1.1,0.2,1.6,0.4
		c0.5,0.2,0.9,0.5,1.2,0.9c0.3,0.4,0.5,0.9,0.4,1.6c0,0.6-0.1,1.2-0.3,2l-1.1,4.8C53,73.1,53,73.3,53,73.6c0,0.3,0,0.6,0,0.8
		c0,0.2,0,0.4,0.1,0.7h-3.3V74c-0.4,0.5-1,0.9-1.6,1.1c-0.6,0.2-1.3,0.4-2,0.4c-0.6,0-1.2-0.1-1.7-0.3s-0.9-0.4-1.2-0.7
		s-0.6-0.6-0.7-1c-0.2-0.4-0.2-0.8-0.2-1.2c0-1.1,0.4-2.1,1.2-2.8s1.9-1.1,3.3-1.3c0.8-0.1,1.4-0.2,2-0.2c0.6,0,1-0.1,1.4-0.2
		c0.4-0.1,0.7-0.2,0.8-0.4c0.2-0.2,0.3-0.5,0.3-0.9c0-0.3-0.1-0.6-0.2-0.7c-0.1-0.2-0.3-0.3-0.5-0.4c-0.2-0.1-0.4-0.2-0.7-0.2
		c-0.2,0-0.5-0.1-0.7-0.1c-0.6,0-1.1,0.1-1.6,0.4s-0.7,0.7-0.8,1.3h-3C44,66.1,44.2,65.5,44.5,65z M49.4,69.9
		C48.9,69.9,48.5,70,48,70c-0.3,0-0.6,0.1-0.9,0.1c-0.3,0.1-0.5,0.2-0.8,0.3c-0.2,0.1-0.4,0.3-0.5,0.6c-0.1,0.2-0.2,0.5-0.2,0.9
		c0,0.4,0.2,0.8,0.5,1c0.4,0.2,0.8,0.3,1.2,0.3c0.5,0,0.9-0.1,1.3-0.2c0.3-0.2,0.6-0.4,0.9-0.6c0.2-0.3,0.4-0.5,0.6-0.9
		c0.1-0.3,0.3-0.6,0.3-1l0.3-1.1C50.3,69.7,49.9,69.8,49.4,69.9z"/>
	<path d="M63.5,73.6c-0.4,0.6-0.9,1.1-1.5,1.4c-0.6,0.3-1.3,0.4-2.1,0.4c-1.4,0-2.5-0.4-3.3-1.2s-1.2-2-1.2-3.4c0-1,0.1-1.9,0.4-2.9
		c0.3-0.9,0.7-1.8,1.2-2.5c0.5-0.7,1.2-1.3,2-1.8c0.8-0.5,1.8-0.7,2.9-0.7c0.7,0,1.3,0.2,2,0.5c0.6,0.3,1.1,0.8,1.3,1.4h0l1.3-6.1
		h3.3l-3.5,16.4h-3.1L63.5,73.6L63.5,73.6z M60.6,65.9c-0.5,0.3-0.8,0.7-1.1,1.2c-0.3,0.5-0.5,1-0.6,1.6c-0.1,0.6-0.2,1.1-0.2,1.7
		c0,0.4,0,0.7,0.1,1c0.1,0.3,0.2,0.6,0.4,0.8c0.2,0.2,0.4,0.4,0.7,0.6c0.3,0.1,0.6,0.2,1,0.2c0.6,0,1.1-0.2,1.6-0.5
		c0.4-0.3,0.8-0.7,1.1-1.2c0.3-0.5,0.5-1.1,0.7-1.6c0.1-0.6,0.2-1.1,0.2-1.6c0-0.8-0.2-1.4-0.6-1.9s-1-0.7-1.8-0.7
		C61.6,65.4,61.1,65.6,60.6,65.9z"/>
	<path d="M71,75.1l-1.6-11.9h3.3l0.7,8.4h0l4.2-8.4h3.4l-6.5,11.9H71z"/>
	<path d="M85.7,63.3l-2.5,11.9H80l2.5-11.9H85.7z M82.8,61.4l0.6-2.7h3.3l-0.6,2.7H82.8z"/>
	<path d="M94.2,65.9c-0.4-0.3-0.9-0.5-1.6-0.5c-0.6,0-1.1,0.2-1.6,0.5c-0.4,0.3-0.8,0.7-1,1.2s-0.4,1.1-0.6,1.6
		c-0.1,0.6-0.2,1.1-0.2,1.6c0,0.4,0,0.7,0.1,1c0.1,0.3,0.2,0.6,0.4,0.8c0.2,0.2,0.4,0.4,0.7,0.5c0.3,0.1,0.6,0.2,1,0.2
		c0.4,0,0.7-0.1,1-0.2c0.3-0.1,0.5-0.3,0.8-0.5c0.2-0.2,0.4-0.4,0.6-0.7c0.1-0.3,0.3-0.5,0.4-0.8h3.3c-0.5,1.5-1.2,2.6-2.3,3.4
		c-1,0.8-2.3,1.2-3.9,1.2c-1.7,0-3-0.4-3.9-1.2c-0.9-0.8-1.4-2.1-1.4-3.8c0-1,0.1-2,0.4-2.9s0.7-1.7,1.3-2.4
		c0.6-0.7,1.3-1.2,2.1-1.6c0.8-0.4,1.8-0.6,2.8-0.6c0.7,0,1.4,0.1,2,0.3c0.6,0.2,1.2,0.4,1.7,0.8c0.5,0.4,0.9,0.8,1.1,1.4
		c0.3,0.6,0.4,1.2,0.4,2h-3.3C94.7,66.7,94.5,66.2,94.2,65.9z"/>
	<path d="M101.4,70.2c0,0.1,0,0.1,0,0.2v0.3c0,0.7,0.2,1.2,0.6,1.7c0.4,0.4,1.1,0.6,2,0.6c0.3,0,0.6,0,0.9-0.1
		c0.3-0.1,0.5-0.2,0.7-0.4c0.2-0.2,0.4-0.3,0.5-0.5c0.1-0.2,0.3-0.4,0.4-0.6h3.3c-0.3,0.7-0.6,1.3-0.9,1.8c-0.4,0.5-0.8,0.9-1.3,1.3
		c-0.5,0.3-1.1,0.6-1.7,0.8s-1.4,0.3-2.3,0.3c-0.8,0-1.5-0.1-2.2-0.3c-0.6-0.2-1.2-0.5-1.7-1s-0.8-1-1.1-1.6
		c-0.3-0.6-0.4-1.4-0.4-2.2c0-0.9,0.2-1.9,0.5-2.7c0.3-0.9,0.7-1.7,1.3-2.3c0.6-0.7,1.2-1.2,2.1-1.6c0.8-0.4,1.7-0.6,2.7-0.6
		c0.8,0,1.6,0.1,2.3,0.3s1.3,0.5,1.7,1s0.9,1,1.1,1.6c0.3,0.6,0.4,1.4,0.4,2.3c0,0.6-0.1,1.2-0.2,1.9h-8.7
		C101.4,70.1,101.4,70.1,101.4,70.2z M107.1,67c-0.1-0.3-0.2-0.6-0.3-0.8c-0.2-0.2-0.4-0.4-0.7-0.6c-0.3-0.1-0.7-0.2-1.1-0.2
		c-0.5,0-0.9,0.1-1.2,0.2c-0.4,0.1-0.7,0.3-0.9,0.6c-0.3,0.2-0.5,0.5-0.7,0.8c-0.2,0.3-0.3,0.6-0.4,1h5.4
		C107.2,67.6,107.1,67.3,107.1,67z"/>
	<path d="M117.2,65.5l0.5-2.2h1.9c0.2-0.8,0.3-1.4,0.5-2s0.4-1.1,0.8-1.5s0.7-0.7,1.3-0.9c0.5-0.2,1.2-0.3,2.1-0.3
		c0.4,0,0.7,0,1.1,0s0.7,0.1,1.1,0.1l-0.5,2.3c-0.2,0-0.3,0-0.5,0c-0.2,0-0.4,0-0.5,0c-0.4,0-0.7,0-0.9,0.1
		c-0.2,0.1-0.4,0.2-0.5,0.4c-0.1,0.2-0.2,0.4-0.3,0.7c-0.1,0.3-0.1,0.6-0.2,0.9h2.3l-0.5,2.2h-2.3l-2,9.7H117l2-9.7H117.2z"/>
	<path d="M125,67.5c0.3-0.9,0.8-1.7,1.4-2.3c0.6-0.7,1.3-1.2,2.1-1.6s1.8-0.6,2.8-0.6c0.8,0,1.6,0.1,2.2,0.3
		c0.7,0.2,1.3,0.5,1.8,0.9c0.5,0.4,0.9,0.9,1.1,1.6c0.3,0.6,0.4,1.4,0.4,2.2c0,1-0.2,2-0.5,2.9c-0.3,0.9-0.8,1.7-1.4,2.4
		c-0.6,0.7-1.3,1.2-2.2,1.6s-1.8,0.6-2.9,0.6c-1.7,0-3-0.4-4-1.3c-1-0.8-1.5-2.1-1.5-3.8C124.5,69.3,124.7,68.4,125,67.5z
		 M127.9,71.4c0.1,0.3,0.2,0.6,0.4,0.8c0.2,0.2,0.4,0.4,0.7,0.6c0.3,0.1,0.6,0.2,1,0.2c0.6,0,1.1-0.2,1.6-0.5s0.8-0.7,1.1-1.2
		c0.3-0.5,0.5-1,0.6-1.6c0.1-0.6,0.2-1.1,0.2-1.6c0-0.8-0.2-1.4-0.5-1.9c-0.4-0.5-1-0.7-1.8-0.7c-0.6,0-1.1,0.2-1.5,0.5
		s-0.8,0.7-1.1,1.2s-0.5,1-0.6,1.6c-0.1,0.6-0.2,1.1-0.2,1.6C127.8,70.7,127.8,71,127.9,71.4z"/>
	<path d="M142.7,63.3l-0.5,2.1l0,0c0.4-0.8,0.9-1.4,1.7-1.9s1.5-0.6,2.4-0.6c0.3,0,0.7,0,1,0.1l-0.7,3.2c-0.2,0-0.5-0.1-0.7-0.1
		c-0.2,0-0.5-0.1-0.7-0.1c-0.6,0-1.2,0.1-1.6,0.3s-0.8,0.5-1.1,0.9c-0.3,0.4-0.5,0.8-0.7,1.2c-0.2,0.5-0.3,1-0.4,1.5l-1.1,5.2h-3.2
		l2.5-11.9H142.7z"/>
	<path d="M157.2,63.3l-0.4,1.7h0c0.5-0.7,1.1-1.2,1.8-1.5c0.7-0.3,1.5-0.5,2.4-0.5c0.7,0,1.4,0.2,1.9,0.5c0.5,0.3,0.8,0.8,1,1.6
		c0.2-0.3,0.5-0.6,0.8-0.8c0.3-0.3,0.6-0.5,1-0.7c0.4-0.2,0.7-0.3,1.1-0.4s0.8-0.1,1.2-0.1c0.5,0,0.9,0.1,1.3,0.2
		c0.4,0.1,0.8,0.3,1.2,0.6c0.3,0.2,0.6,0.6,0.8,0.9c0.2,0.4,0.3,0.8,0.3,1.3c0,0.4,0,0.7-0.1,1.1c-0.1,0.4-0.2,0.7-0.2,1.1l-1.5,7
		h-3.3l1.6-7.5c0.1-0.3,0.1-0.6,0.1-0.8c0-0.4-0.1-0.6-0.4-0.9c-0.3-0.2-0.6-0.4-1-0.4c-0.4,0-0.8,0.1-1.2,0.3
		c-0.3,0.2-0.6,0.5-0.9,0.8c-0.3,0.3-0.5,0.7-0.6,1c-0.2,0.4-0.3,0.8-0.4,1.1l-1.3,6.3H159l1.6-7.5c0.1-0.3,0.1-0.6,0.1-0.8
		c0-0.4-0.1-0.6-0.4-0.9s-0.6-0.4-1-0.4c-0.4,0-0.8,0.1-1.2,0.3c-0.3,0.2-0.6,0.5-0.9,0.8c-0.3,0.3-0.5,0.7-0.6,1
		c-0.2,0.4-0.3,0.8-0.4,1.1l-1.3,6.3h-3.2l2.5-11.9H157.2z"/>
	<path d="M174.3,65c0.4-0.5,0.8-0.9,1.3-1.2s1.1-0.5,1.7-0.7s1.3-0.2,1.9-0.2c0.5,0,1.1,0,1.7,0.1c0.6,0.1,1.1,0.2,1.6,0.4
		s0.9,0.5,1.2,0.9c0.3,0.4,0.5,0.9,0.4,1.6c0,0.6-0.1,1.2-0.3,2l-1.1,4.8c-0.1,0.2-0.1,0.5-0.1,0.8c0,0.3,0,0.6,0,0.8
		c0,0.2,0,0.4,0.1,0.7h-3.3V74c-0.4,0.5-1,0.9-1.6,1.1c-0.6,0.2-1.3,0.4-2,0.4c-0.6,0-1.2-0.1-1.7-0.3s-0.9-0.4-1.2-0.7
		c-0.3-0.3-0.6-0.6-0.7-1c-0.2-0.4-0.2-0.8-0.2-1.2c0-1.1,0.4-2.1,1.2-2.8s1.9-1.1,3.3-1.3c0.8-0.1,1.4-0.2,2-0.2
		c0.6,0,1-0.1,1.4-0.2c0.4-0.1,0.7-0.2,0.8-0.4s0.3-0.5,0.3-0.9c0-0.3-0.1-0.6-0.2-0.7c-0.1-0.2-0.3-0.3-0.5-0.4s-0.4-0.2-0.7-0.2
		c-0.2,0-0.5-0.1-0.7-0.1c-0.6,0-1.1,0.1-1.6,0.4c-0.5,0.3-0.7,0.7-0.8,1.3h-3C173.7,66.1,173.9,65.5,174.3,65z M179.1,69.9
		c-0.5,0.1-0.9,0.1-1.4,0.1c-0.3,0-0.6,0.1-0.9,0.1s-0.5,0.2-0.8,0.3c-0.2,0.1-0.4,0.3-0.5,0.6c-0.1,0.2-0.2,0.5-0.2,0.9
		c0,0.4,0.2,0.8,0.5,1c0.4,0.2,0.8,0.3,1.2,0.3c0.5,0,0.9-0.1,1.3-0.2c0.3-0.2,0.6-0.4,0.9-0.6c0.2-0.3,0.4-0.5,0.6-0.9
		c0.1-0.3,0.3-0.6,0.3-1l0.3-1.1C180,69.7,179.6,69.8,179.1,69.9z"/>
	<path d="M190.2,63.3l-0.4,1.7h0c1.1-1.3,2.4-2,4.1-2c2.3,0,3.5,1.1,3.5,3.2c0,0.1,0,0.3,0,0.5c0,0.2-0.1,0.4-0.1,0.6
		c0,0.2-0.1,0.4-0.1,0.6s-0.1,0.3-0.1,0.4l-1.5,6.9h-3.3l1.4-6.9c0-0.2,0.1-0.4,0.1-0.7c0.1-0.3,0.1-0.5,0.1-0.7
		c0-0.4-0.2-0.6-0.5-0.9c-0.3-0.2-0.7-0.3-1.1-0.3c-0.5,0-0.9,0.1-1.3,0.3c-0.4,0.2-0.7,0.4-1,0.7c-0.3,0.3-0.5,0.7-0.7,1.1
		c-0.2,0.4-0.3,0.8-0.4,1.2l-1.3,6.3h-3.2l2.5-11.9H190.2z"/>
	<path d="M200.5,65c0.4-0.5,0.8-0.9,1.3-1.2s1.1-0.5,1.7-0.7s1.3-0.2,1.9-0.2c0.5,0,1.1,0,1.7,0.1c0.6,0.1,1.1,0.2,1.6,0.4
		s0.9,0.5,1.2,0.9c0.3,0.4,0.5,0.9,0.4,1.6c0,0.6-0.1,1.2-0.3,2l-1.1,4.8c-0.1,0.2-0.1,0.5-0.1,0.8c0,0.3,0,0.6,0,0.8
		c0,0.2,0,0.4,0.1,0.7h-3.3V74c-0.4,0.5-1,0.9-1.6,1.1c-0.6,0.2-1.3,0.4-2,0.4c-0.6,0-1.2-0.1-1.7-0.3s-0.9-0.4-1.2-0.7
		c-0.3-0.3-0.6-0.6-0.7-1c-0.2-0.4-0.2-0.8-0.2-1.2c0-1.1,0.4-2.1,1.2-2.8s1.9-1.1,3.3-1.3c0.8-0.1,1.4-0.2,2-0.2
		c0.6,0,1-0.1,1.4-0.2c0.4-0.1,0.7-0.2,0.8-0.4s0.3-0.5,0.3-0.9c0-0.3-0.1-0.6-0.2-0.7c-0.1-0.2-0.3-0.3-0.5-0.4s-0.4-0.2-0.7-0.2
		c-0.2,0-0.5-0.1-0.7-0.1c-0.6,0-1.1,0.1-1.6,0.4c-0.5,0.3-0.7,0.7-0.8,1.3h-3C200,66.1,200.2,65.5,200.5,65z M205.4,69.9
		c-0.5,0.1-0.9,0.1-1.4,0.1c-0.3,0-0.6,0.1-0.9,0.1s-0.5,0.2-0.8,0.3c-0.2,0.1-0.4,0.3-0.5,0.6c-0.1,0.2-0.2,0.5-0.2,0.9
		c0,0.4,0.2,0.8,0.5,1c0.4,0.2,0.8,0.3,1.2,0.3c0.5,0,0.9-0.1,1.3-0.2c0.3-0.2,0.6-0.4,0.9-0.6c0.2-0.3,0.4-0.5,0.6-0.9
		c0.1-0.3,0.3-0.6,0.3-1l0.3-1.1C206.3,69.7,205.9,69.8,205.4,69.9z"/>
	<path d="M221.6,76.8c-0.3,0.6-0.8,1.2-1.3,1.6s-1.2,0.7-1.9,0.9c-0.7,0.2-1.6,0.3-2.6,0.3c-0.6,0-1.2-0.1-1.8-0.2s-1.1-0.4-1.6-0.7
		c-0.5-0.3-0.9-0.7-1.2-1.2s-0.4-1.1-0.4-1.8h3.2c0,0.3,0,0.6,0.2,0.8c0.1,0.2,0.3,0.4,0.5,0.5c0.2,0.1,0.4,0.2,0.7,0.3
		c0.3,0.1,0.5,0.1,0.8,0.1c0.5,0,1-0.1,1.3-0.3c0.3-0.2,0.6-0.5,0.9-0.9c0.2-0.4,0.5-0.8,0.6-1.3c0.2-0.5,0.3-1,0.5-1.6l0,0
		c-0.8,1.1-1.9,1.7-3.3,1.7c-0.7,0-1.3-0.1-1.9-0.3c-0.6-0.2-1-0.6-1.4-1s-0.7-0.9-0.9-1.5c-0.2-0.6-0.3-1.2-0.3-2
		c0-0.9,0.1-1.7,0.4-2.6c0.3-0.8,0.7-1.6,1.2-2.3c0.5-0.7,1.1-1.2,1.9-1.7s1.6-0.6,2.5-0.6c0.8,0,1.6,0.2,2.2,0.5
		c0.6,0.3,1.1,0.9,1.4,1.7h0l0.4-1.8h3.1l-2.4,11.2C222.2,75.4,221.9,76.2,221.6,76.8z M216.7,65.8c-0.4,0.3-0.8,0.7-1,1.1
		c-0.3,0.4-0.5,0.9-0.6,1.4c-0.1,0.5-0.2,1-0.2,1.5c0,0.4,0,0.7,0.1,1c0.1,0.3,0.2,0.6,0.4,0.8c0.2,0.2,0.4,0.4,0.7,0.6
		c0.3,0.1,0.6,0.2,1,0.2c0.6,0,1.1-0.1,1.5-0.4s0.8-0.6,1.1-1.1c0.3-0.4,0.5-0.9,0.6-1.5c0.1-0.5,0.2-1.1,0.2-1.6
		c0-0.7-0.2-1.4-0.6-1.8c-0.4-0.5-1-0.7-1.8-0.7C217.6,65.4,217.1,65.6,216.7,65.8z"/>
	<path d="M230.3,63.3l-2.5,11.9h-3.3l2.5-11.9H230.3z M227.4,61.4l0.6-2.7h3.3l-0.6,2.7H227.4z"/>
	<path d="M235.6,63.3l-0.4,1.7h0c1.1-1.3,2.4-2,4.1-2c2.3,0,3.5,1.1,3.5,3.2c0,0.1,0,0.3,0,0.5c0,0.2-0.1,0.4-0.1,0.6
		c0,0.2-0.1,0.4-0.1,0.6s-0.1,0.3-0.1,0.4l-1.5,6.9h-3.3l1.4-6.9c0-0.2,0.1-0.4,0.1-0.7c0.1-0.3,0.1-0.5,0.1-0.7
		c0-0.4-0.2-0.6-0.5-0.9c-0.3-0.2-0.7-0.3-1.1-0.3c-0.5,0-0.9,0.1-1.3,0.3c-0.4,0.2-0.7,0.4-1,0.7c-0.3,0.3-0.5,0.7-0.7,1.1
		c-0.2,0.4-0.3,0.8-0.4,1.2l-1.3,6.3H230l2.5-11.9H235.6z"/>
	<path d="M254.2,76.8c-0.3,0.6-0.8,1.2-1.3,1.6s-1.2,0.7-1.9,0.9c-0.7,0.2-1.6,0.3-2.6,0.3c-0.6,0-1.2-0.1-1.8-0.2s-1.1-0.4-1.6-0.7
		c-0.5-0.3-0.9-0.7-1.2-1.2s-0.4-1.1-0.4-1.8h3.2c0,0.3,0,0.6,0.2,0.8c0.1,0.2,0.3,0.4,0.5,0.5c0.2,0.1,0.4,0.2,0.7,0.3
		c0.3,0.1,0.5,0.1,0.8,0.1c0.5,0,1-0.1,1.3-0.3c0.3-0.2,0.6-0.5,0.9-0.9c0.2-0.4,0.5-0.8,0.6-1.3c0.2-0.5,0.3-1,0.5-1.6l0,0
		c-0.8,1.1-1.9,1.7-3.3,1.7c-0.7,0-1.3-0.1-1.9-0.3c-0.6-0.2-1-0.6-1.4-1s-0.7-0.9-0.9-1.5c-0.2-0.6-0.3-1.2-0.3-2
		c0-0.9,0.1-1.7,0.4-2.6c0.3-0.8,0.7-1.6,1.2-2.3c0.5-0.7,1.1-1.2,1.9-1.7s1.6-0.6,2.5-0.6c0.8,0,1.6,0.2,2.2,0.5
		c0.6,0.3,1.1,0.9,1.4,1.7h0l0.4-1.8h3.1L255,74.5C254.8,75.4,254.5,76.2,254.2,76.8z M249.3,65.8c-0.4,0.3-0.8,0.7-1,1.1
		c-0.3,0.4-0.5,0.9-0.6,1.4c-0.1,0.5-0.2,1-0.2,1.5c0,0.4,0,0.7,0.1,1c0.1,0.3,0.2,0.6,0.4,0.8c0.2,0.2,0.4,0.4,0.7,0.6
		c0.3,0.1,0.6,0.2,1,0.2c0.6,0,1.1-0.1,1.5-0.4s0.8-0.6,1.1-1.1c0.3-0.4,0.5-0.9,0.6-1.5c0.1-0.5,0.2-1.1,0.2-1.6
		c0-0.7-0.2-1.4-0.6-1.8c-0.4-0.5-1-0.7-1.8-0.7C250.2,65.4,249.7,65.6,249.3,65.8z"/>
</g>
<g>
	<path d="M68.2,84.7L64.7,101h-3.2L65,84.7H68.2z"/>
	<path d="M72.8,89.2L70.3,101H67l2.5-11.9H72.8z M69.9,87.4l0.6-2.7h3.3l-0.6,2.7H69.9z"/>
	<path d="M73.3,91.4l0.5-2.2h1.9c0.2-0.8,0.3-1.4,0.5-2s0.4-1.1,0.8-1.5s0.7-0.7,1.3-0.9c0.5-0.2,1.2-0.3,2.1-0.3c0.4,0,0.7,0,1.1,0
		s0.7,0.1,1.1,0.1l-0.5,2.3c-0.2,0-0.3,0-0.5,0c-0.2,0-0.4,0-0.5,0c-0.4,0-0.7,0-0.9,0.1c-0.2,0.1-0.4,0.2-0.5,0.4
		c-0.1,0.2-0.2,0.4-0.3,0.7c-0.1,0.3-0.1,0.6-0.2,0.9h2.3l-0.5,2.2h-2.3l-2,9.7h-3.3l2-9.7H73.3z"/>
	<path d="M83.7,96.1c0,0.1,0,0.1,0,0.2v0.3c0,0.7,0.2,1.2,0.6,1.7c0.4,0.4,1.1,0.6,2,0.6c0.3,0,0.6,0,0.9-0.1
		c0.3-0.1,0.5-0.2,0.7-0.4c0.2-0.2,0.4-0.3,0.5-0.5c0.1-0.2,0.3-0.4,0.4-0.6H92c-0.3,0.7-0.6,1.3-0.9,1.8c-0.4,0.5-0.8,0.9-1.3,1.3
		c-0.5,0.3-1.1,0.6-1.7,0.8s-1.4,0.3-2.3,0.3c-0.8,0-1.5-0.1-2.2-0.3c-0.6-0.2-1.2-0.5-1.7-1s-0.8-1-1.1-1.6
		c-0.3-0.6-0.4-1.4-0.4-2.2c0-0.9,0.2-1.9,0.5-2.7c0.3-0.9,0.7-1.7,1.3-2.3c0.6-0.7,1.2-1.2,2.1-1.6c0.8-0.4,1.7-0.6,2.7-0.6
		c0.8,0,1.6,0.1,2.3,0.3s1.3,0.5,1.7,1s0.9,1,1.1,1.6c0.3,0.6,0.4,1.4,0.4,2.3c0,0.6-0.1,1.2-0.2,1.9h-8.7
		C83.7,96,83.7,96,83.7,96.1z M89.5,92.9c-0.1-0.3-0.2-0.6-0.3-0.8c-0.2-0.2-0.4-0.4-0.7-0.6c-0.3-0.1-0.7-0.2-1.1-0.2
		c-0.5,0-0.9,0.1-1.2,0.2c-0.4,0.1-0.7,0.3-0.9,0.6c-0.3,0.2-0.5,0.5-0.7,0.8c-0.2,0.3-0.3,0.6-0.4,1h5.4
		C89.5,93.5,89.5,93.2,89.5,92.9z"/>
	<path d="M104.6,89.2l-2.5,11.9h-3.3l2.5-11.9H104.6z M101.7,87.4l0.6-2.7h3.3l-0.6,2.7H101.7z"/>
	<path d="M109.9,89.2l-0.4,1.7h0c1.1-1.3,2.4-2,4.1-2c2.3,0,3.5,1.1,3.5,3.2c0,0.1,0,0.3,0,0.5c0,0.2-0.1,0.4-0.1,0.6
		s-0.1,0.4-0.1,0.6c0,0.2-0.1,0.3-0.1,0.4l-1.5,6.9h-3.3l1.4-6.9c0-0.2,0.1-0.4,0.1-0.7c0.1-0.3,0.1-0.5,0.1-0.7
		c0-0.4-0.2-0.6-0.5-0.9c-0.3-0.2-0.7-0.3-1.1-0.3c-0.5,0-0.9,0.1-1.3,0.3c-0.4,0.2-0.7,0.4-1,0.7c-0.3,0.3-0.5,0.7-0.7,1.1
		s-0.3,0.8-0.4,1.2l-1.3,6.3h-3.2l2.5-11.9H109.9z"/>
	<path d="M125.7,91.5c-0.3-0.3-0.7-0.4-1.4-0.4c-0.6,0-1.1,0.1-1.4,0.3c-0.4,0.2-0.6,0.5-0.6,0.9c0,0.3,0.1,0.5,0.3,0.7
		c0.2,0.2,0.6,0.4,1.2,0.5l1.6,0.5c0.4,0.1,0.9,0.3,1.2,0.5c0.4,0.2,0.7,0.4,1,0.7c0.3,0.3,0.5,0.6,0.7,1c0.2,0.4,0.2,0.8,0.2,1.3
		c0,0.7-0.2,1.4-0.5,1.9c-0.3,0.5-0.8,0.9-1.3,1.2c-0.5,0.3-1.1,0.6-1.8,0.7c-0.7,0.1-1.4,0.2-2,0.2c-0.6,0-1.2-0.1-1.8-0.2
		c-0.6-0.1-1.1-0.3-1.6-0.6s-0.9-0.7-1.2-1.1c-0.3-0.5-0.5-1.1-0.5-1.8v-0.5h3v0.4c0,0.3,0.1,0.5,0.2,0.7c0.1,0.2,0.3,0.4,0.5,0.5
		c0.2,0.1,0.5,0.2,0.8,0.3s0.6,0.1,0.8,0.1c0.2,0,0.5,0,0.7-0.1c0.2,0,0.5-0.1,0.7-0.2c0.2-0.1,0.4-0.3,0.5-0.4
		c0.1-0.2,0.2-0.4,0.2-0.7c0-0.4-0.1-0.7-0.3-0.9c-0.2-0.2-0.5-0.3-0.8-0.4l-2.5-0.8c-0.4-0.1-0.8-0.3-1.1-0.4
		c-0.3-0.2-0.6-0.3-0.8-0.6c-0.2-0.2-0.4-0.5-0.5-0.8s-0.2-0.7-0.2-1.2c0-0.7,0.2-1.3,0.5-1.8s0.8-0.9,1.3-1.2
		c0.5-0.3,1.1-0.5,1.7-0.6c0.6-0.1,1.2-0.2,1.8-0.2c0.6,0,1.3,0.1,1.9,0.2c0.6,0.1,1.1,0.3,1.6,0.6c0.5,0.3,0.8,0.7,1.1,1.2
		c0.3,0.5,0.4,1.1,0.4,1.9h-3C126.2,92.1,126,91.7,125.7,91.5z"/>
	<path d="M137.4,101l0.4-1.7h0c-1.1,1.3-2.4,1.9-4.1,1.9c-2.3,0-3.5-1.1-3.5-3.2c0-0.1,0-0.3,0-0.5c0-0.2,0.1-0.4,0.1-0.6
		c0-0.2,0.1-0.4,0.1-0.6c0-0.2,0.1-0.3,0.1-0.4l1.5-6.9h3.3l-1.4,6.9c0,0.1-0.1,0.2-0.1,0.3c0,0.1,0,0.3-0.1,0.4c0,0.1,0,0.3,0,0.4
		c0,0.1,0,0.2,0,0.3c0,0.4,0.2,0.6,0.5,0.9c0.3,0.2,0.7,0.3,1.1,0.3c0.5,0,0.9-0.1,1.3-0.3c0.4-0.2,0.7-0.4,1-0.7
		c0.3-0.3,0.5-0.7,0.7-1.1c0.2-0.4,0.3-0.8,0.4-1.2l1.3-6.3h3.3l-2.5,11.9H137.4z"/>
	<path d="M148.4,89.2l-0.5,2.1l0,0c0.4-0.8,0.9-1.4,1.7-1.9s1.5-0.6,2.4-0.6c0.3,0,0.7,0,1,0.1l-0.7,3.2c-0.2,0-0.5-0.1-0.7-0.1
		c-0.2,0-0.5-0.1-0.7-0.1c-0.6,0-1.2,0.1-1.6,0.3s-0.8,0.5-1.1,0.9c-0.3,0.4-0.5,0.8-0.7,1.2c-0.2,0.5-0.3,1-0.4,1.5l-1.1,5.2h-3.2
		l2.5-11.9H148.4z"/>
	<path d="M153.7,90.9c0.4-0.5,0.8-0.9,1.3-1.2s1.1-0.5,1.7-0.7s1.3-0.2,1.9-0.2c0.5,0,1.1,0,1.7,0.1c0.6,0.1,1.1,0.2,1.6,0.4
		s0.9,0.5,1.2,0.9c0.3,0.4,0.5,0.9,0.4,1.6c0,0.6-0.1,1.2-0.3,2l-1.1,4.8c-0.1,0.2-0.1,0.5-0.1,0.8c0,0.3,0,0.6,0,0.8
		c0,0.2,0,0.4,0.1,0.7h-3.3v-1.2c-0.4,0.5-1,0.9-1.6,1.1c-0.6,0.2-1.3,0.4-2,0.4c-0.6,0-1.2-0.1-1.7-0.3s-0.9-0.4-1.2-0.7
		c-0.3-0.3-0.6-0.6-0.7-1c-0.2-0.4-0.2-0.8-0.2-1.2c0-1.1,0.4-2.1,1.2-2.8s1.9-1.1,3.3-1.3c0.8-0.1,1.4-0.2,2-0.2
		c0.6,0,1-0.1,1.4-0.2c0.4-0.1,0.7-0.2,0.8-0.4s0.3-0.5,0.3-0.9c0-0.3-0.1-0.6-0.2-0.7c-0.1-0.2-0.3-0.3-0.5-0.4s-0.4-0.2-0.7-0.2
		c-0.2,0-0.5-0.1-0.7-0.1c-0.6,0-1.1,0.1-1.6,0.4c-0.5,0.3-0.7,0.7-0.8,1.3h-3C153.1,92,153.3,91.4,153.7,90.9z M158.5,95.8
		c-0.5,0.1-0.9,0.1-1.4,0.1c-0.3,0-0.6,0.1-0.9,0.1s-0.5,0.2-0.8,0.3c-0.2,0.1-0.4,0.3-0.5,0.6c-0.1,0.2-0.2,0.5-0.2,0.9
		c0,0.4,0.2,0.8,0.5,1c0.4,0.2,0.8,0.3,1.2,0.3c0.5,0,0.9-0.1,1.3-0.2c0.3-0.2,0.6-0.4,0.9-0.6c0.2-0.3,0.4-0.5,0.6-0.9
		c0.1-0.3,0.3-0.6,0.3-1l0.3-1.1C159.4,95.6,159,95.7,158.5,95.8z"/>
	<path d="M169.6,89.2l-0.4,1.7h0c1.1-1.3,2.4-2,4.1-2c2.3,0,3.5,1.1,3.5,3.2c0,0.1,0,0.3,0,0.5c0,0.2-0.1,0.4-0.1,0.6
		c0,0.2-0.1,0.4-0.1,0.6s-0.1,0.3-0.1,0.4l-1.5,6.9h-3.3l1.4-6.9c0-0.2,0.1-0.4,0.1-0.7c0.1-0.3,0.1-0.5,0.1-0.7
		c0-0.4-0.2-0.6-0.5-0.9c-0.3-0.2-0.7-0.3-1.1-0.3c-0.5,0-0.9,0.1-1.3,0.3c-0.4,0.2-0.7,0.4-1,0.7c-0.3,0.3-0.5,0.7-0.7,1.1
		c-0.2,0.4-0.3,0.8-0.4,1.2l-1.3,6.3h-3.2l2.5-11.9H169.6z"/>
	<path d="M186.3,91.8c-0.4-0.3-0.9-0.5-1.6-0.5c-0.6,0-1.1,0.2-1.6,0.5s-0.8,0.7-1,1.2s-0.4,1.1-0.6,1.6c-0.1,0.6-0.2,1.1-0.2,1.6
		c0,0.4,0,0.7,0.1,1c0.1,0.3,0.2,0.6,0.4,0.8c0.2,0.2,0.4,0.4,0.7,0.5c0.3,0.1,0.6,0.2,1,0.2c0.4,0,0.7-0.1,1-0.2
		c0.3-0.1,0.5-0.3,0.8-0.5c0.2-0.2,0.4-0.4,0.5-0.7c0.1-0.3,0.3-0.5,0.4-0.8h3.3c-0.5,1.5-1.2,2.6-2.3,3.4c-1,0.8-2.3,1.2-3.9,1.2
		c-1.7,0-3-0.4-3.9-1.2c-0.9-0.8-1.4-2.1-1.4-3.8c0-1,0.1-2,0.4-2.9c0.3-0.9,0.7-1.7,1.3-2.4c0.6-0.7,1.3-1.2,2.1-1.6
		s1.8-0.6,2.8-0.6c0.7,0,1.4,0.1,2,0.3c0.6,0.2,1.2,0.4,1.7,0.8s0.9,0.8,1.1,1.4c0.3,0.6,0.4,1.2,0.4,2h-3.3
		C186.9,92.6,186.7,92.1,186.3,91.8z"/>
	<path d="M193.5,96.1c0,0.1,0,0.1,0,0.2v0.3c0,0.7,0.2,1.2,0.6,1.7c0.4,0.4,1.1,0.6,2,0.6c0.3,0,0.6,0,0.9-0.1
		c0.3-0.1,0.5-0.2,0.7-0.4c0.2-0.2,0.4-0.3,0.5-0.5c0.1-0.2,0.3-0.4,0.4-0.6h3.3c-0.3,0.7-0.6,1.3-0.9,1.8c-0.4,0.5-0.8,0.9-1.3,1.3
		s-1.1,0.6-1.7,0.8c-0.7,0.2-1.4,0.3-2.3,0.3c-0.8,0-1.5-0.1-2.2-0.3s-1.2-0.5-1.7-1c-0.5-0.4-0.8-1-1.1-1.6
		c-0.3-0.6-0.4-1.4-0.4-2.2c0-0.9,0.2-1.9,0.5-2.7c0.3-0.9,0.7-1.7,1.3-2.3c0.6-0.7,1.2-1.2,2.1-1.6c0.8-0.4,1.7-0.6,2.7-0.6
		c0.8,0,1.6,0.1,2.3,0.3c0.7,0.2,1.3,0.5,1.7,1s0.9,1,1.1,1.6c0.3,0.6,0.4,1.4,0.4,2.3c0,0.6-0.1,1.2-0.2,1.9h-8.7
		C193.5,96,193.5,96,193.5,96.1z M199.2,92.9c-0.1-0.3-0.2-0.6-0.3-0.8c-0.2-0.2-0.4-0.4-0.7-0.6c-0.3-0.1-0.7-0.2-1.1-0.2
		c-0.5,0-0.9,0.1-1.2,0.2c-0.4,0.1-0.7,0.3-0.9,0.6s-0.5,0.5-0.7,0.8c-0.2,0.3-0.3,0.6-0.4,1h5.4C199.3,93.5,199.3,93.2,199.2,92.9z
		"/>
	<path d="M209.3,91.4l0.5-2.2h1.9c0.2-0.8,0.3-1.4,0.5-2c0.2-0.6,0.4-1.1,0.8-1.5s0.7-0.7,1.3-0.9c0.5-0.2,1.2-0.3,2.1-0.3
		c0.4,0,0.7,0,1.1,0c0.4,0,0.7,0.1,1.1,0.1l-0.5,2.3c-0.2,0-0.3,0-0.5,0s-0.4,0-0.5,0c-0.4,0-0.7,0-0.9,0.1
		c-0.2,0.1-0.4,0.2-0.5,0.4c-0.1,0.2-0.2,0.4-0.3,0.7c-0.1,0.3-0.1,0.6-0.2,0.9h2.3l-0.5,2.2h-2.3l-2,9.7h-3.3l2-9.7H209.3z"/>
	<path d="M217.1,93.4c0.3-0.9,0.8-1.7,1.4-2.3c0.6-0.7,1.3-1.2,2.1-1.6c0.8-0.4,1.8-0.6,2.8-0.6c0.8,0,1.6,0.1,2.2,0.3
		c0.7,0.2,1.3,0.5,1.8,0.9c0.5,0.4,0.9,0.9,1.1,1.6c0.3,0.6,0.4,1.4,0.4,2.2c0,1-0.2,2-0.5,2.9c-0.3,0.9-0.8,1.7-1.4,2.4
		c-0.6,0.7-1.3,1.2-2.2,1.6c-0.8,0.4-1.8,0.6-2.9,0.6c-1.7,0-3-0.4-4-1.3c-1-0.8-1.5-2.1-1.5-3.8C216.7,95.2,216.8,94.3,217.1,93.4z
		 M220.1,97.3c0.1,0.3,0.2,0.6,0.4,0.8c0.2,0.2,0.4,0.4,0.7,0.6c0.3,0.1,0.6,0.2,1,0.2c0.6,0,1.1-0.2,1.6-0.5s0.8-0.7,1.1-1.2
		c0.3-0.5,0.5-1,0.6-1.6c0.1-0.6,0.2-1.1,0.2-1.6c0-0.8-0.2-1.4-0.5-1.9c-0.4-0.5-1-0.7-1.8-0.7c-0.6,0-1.1,0.2-1.5,0.5
		s-0.8,0.7-1.1,1.2s-0.5,1-0.6,1.6c-0.1,0.6-0.2,1.1-0.2,1.6C219.9,96.6,220,96.9,220.1,97.3z"/>
	<path d="M234.9,89.2l-0.5,2.1l0,0c0.4-0.8,0.9-1.4,1.7-1.9s1.5-0.6,2.4-0.6c0.3,0,0.7,0,1,0.1l-0.7,3.2c-0.2,0-0.5-0.1-0.7-0.1
		c-0.2,0-0.5-0.1-0.7-0.1c-0.6,0-1.2,0.1-1.6,0.3s-0.8,0.5-1.1,0.9c-0.3,0.4-0.5,0.8-0.7,1.2c-0.2,0.5-0.3,1-0.4,1.5l-1.1,5.2h-3.2
		l2.5-11.9H234.9z"/>
</g>
<g>
	<path d="M71.9,125.4c-0.4,0.6-0.9,1.1-1.5,1.4c-0.6,0.3-1.3,0.4-2.1,0.4c-1.4,0-2.5-0.4-3.3-1.2s-1.2-2-1.2-3.4
		c0-1,0.1-1.9,0.4-2.9c0.3-0.9,0.7-1.8,1.2-2.5c0.5-0.7,1.2-1.3,2-1.8c0.8-0.5,1.8-0.7,2.9-0.7c0.7,0,1.3,0.2,2,0.5
		c0.6,0.3,1.1,0.8,1.3,1.4h0l1.3-6.1h3.3l-3.5,16.4h-3.1L71.9,125.4L71.9,125.4z M69.1,117.7c-0.5,0.3-0.8,0.7-1.1,1.2
		c-0.3,0.5-0.5,1-0.6,1.6c-0.1,0.6-0.2,1.1-0.2,1.7c0,0.4,0,0.7,0.1,1c0.1,0.3,0.2,0.6,0.4,0.8c0.2,0.2,0.4,0.4,0.7,0.6
		c0.3,0.1,0.6,0.2,1,0.2c0.6,0,1.1-0.2,1.6-0.5c0.4-0.3,0.8-0.7,1.1-1.2c0.3-0.5,0.5-1.1,0.7-1.6c0.1-0.6,0.2-1.1,0.2-1.6
		c0-0.8-0.2-1.4-0.6-1.9s-1-0.7-1.8-0.7C70.1,117.2,69.5,117.4,69.1,117.7z"/>
	<path d="M80.5,122c0,0.1,0,0.1,0,0.2v0.3c0,0.7,0.2,1.2,0.6,1.7c0.4,0.4,1.1,0.6,2,0.6c0.3,0,0.6,0,0.9-0.1
		c0.3-0.1,0.5-0.2,0.7-0.4c0.2-0.2,0.4-0.3,0.5-0.5c0.1-0.2,0.3-0.4,0.4-0.6h3.3c-0.3,0.7-0.6,1.3-0.9,1.8c-0.4,0.5-0.8,0.9-1.3,1.3
		c-0.5,0.3-1.1,0.6-1.7,0.8s-1.4,0.3-2.3,0.3c-0.8,0-1.5-0.1-2.2-0.3c-0.6-0.2-1.2-0.5-1.7-1s-0.8-1-1.1-1.6
		c-0.3-0.6-0.4-1.4-0.4-2.2c0-0.9,0.2-1.9,0.5-2.7c0.3-0.9,0.7-1.7,1.3-2.3c0.6-0.7,1.2-1.2,2.1-1.6c0.8-0.4,1.7-0.6,2.7-0.6
		c0.8,0,1.6,0.1,2.3,0.3s1.3,0.5,1.7,1s0.9,1,1.1,1.6c0.3,0.6,0.4,1.4,0.4,2.3c0,0.6-0.1,1.2-0.2,1.9h-8.7
		C80.5,121.9,80.5,121.9,80.5,122z M86.3,118.8c-0.1-0.3-0.2-0.6-0.3-0.8c-0.2-0.2-0.4-0.4-0.7-0.6c-0.3-0.1-0.7-0.2-1.1-0.2
		c-0.5,0-0.9,0.1-1.2,0.2c-0.4,0.1-0.7,0.3-0.9,0.6c-0.3,0.2-0.5,0.5-0.7,0.8c-0.2,0.3-0.3,0.6-0.4,1h5.4
		C86.3,119.4,86.3,119.1,86.3,118.8z"/>
	<path d="M95.2,115.1l-0.4,1.7h0c1.1-1.3,2.4-2,4.1-2c2.3,0,3.5,1.1,3.5,3.2c0,0.1,0,0.3,0,0.5c0,0.2-0.1,0.4-0.1,0.6
		s-0.1,0.4-0.1,0.6c0,0.2-0.1,0.3-0.1,0.4l-1.5,6.9h-3.3l1.4-6.9c0-0.2,0.1-0.4,0.1-0.7c0.1-0.3,0.1-0.5,0.1-0.7
		c0-0.4-0.2-0.6-0.5-0.9c-0.3-0.2-0.7-0.3-1.1-0.3c-0.5,0-0.9,0.1-1.3,0.3c-0.4,0.2-0.7,0.4-1,0.7c-0.3,0.3-0.5,0.7-0.7,1.1
		s-0.3,0.8-0.4,1.2l-1.3,6.3h-3.2l2.5-11.9H95.2z"/>
	<path d="M112.2,115.1l-0.5,2.2h-2.3l-1.2,5.9c0,0.1-0.1,0.2-0.1,0.3s0,0.2,0,0.2c0,0.2,0,0.4,0.1,0.5c0.1,0.1,0.2,0.2,0.3,0.3
		s0.2,0.1,0.4,0.1c0.1,0,0.3,0,0.4,0c0.4,0,0.8,0,1.2-0.1l-0.6,2.5c-0.3,0-0.7,0.1-1,0.1c-0.3,0-0.7,0-1,0c-0.4,0-0.8,0-1.1-0.1
		c-0.4-0.1-0.7-0.2-1-0.4c-0.3-0.2-0.5-0.4-0.7-0.7c-0.2-0.3-0.3-0.7-0.2-1.2c0-0.2,0-0.3,0-0.5c0-0.2,0.1-0.4,0.1-0.6l1.3-6.3H104
		l0.5-2.2h2.1l0.7-3.6h3.3l-0.7,3.6H112.2z"/>
	<path d="M117,115.1l-2.5,11.9h-3.3l2.5-11.9H117z M114.1,113.3l0.6-2.7h3.3l-0.6,2.7H114.1z"/>
	<path d="M124.6,117.4c-0.3-0.3-0.7-0.4-1.4-0.4c-0.6,0-1.1,0.1-1.4,0.3c-0.4,0.2-0.6,0.5-0.6,0.9c0,0.3,0.1,0.5,0.3,0.7
		c0.2,0.2,0.6,0.4,1.2,0.5l1.6,0.5c0.4,0.1,0.9,0.3,1.2,0.5c0.4,0.2,0.7,0.4,1,0.7c0.3,0.3,0.5,0.6,0.7,1c0.2,0.4,0.2,0.8,0.2,1.3
		c0,0.7-0.2,1.4-0.5,1.9c-0.3,0.5-0.8,0.9-1.3,1.2c-0.5,0.3-1.1,0.5-1.8,0.7c-0.7,0.1-1.4,0.2-2,0.2c-0.6,0-1.2-0.1-1.8-0.2
		c-0.6-0.1-1.1-0.3-1.6-0.6c-0.5-0.3-0.9-0.7-1.2-1.1c-0.3-0.5-0.5-1.1-0.5-1.8v-0.5h3v0.4c0,0.3,0.1,0.5,0.2,0.7
		c0.1,0.2,0.3,0.4,0.5,0.5c0.2,0.1,0.5,0.2,0.8,0.3s0.6,0.1,0.8,0.1c0.2,0,0.5,0,0.7-0.1c0.2,0,0.5-0.1,0.7-0.2
		c0.2-0.1,0.4-0.3,0.5-0.4c0.1-0.2,0.2-0.4,0.2-0.7c0-0.4-0.1-0.7-0.3-0.9c-0.2-0.2-0.5-0.3-0.8-0.4l-2.5-0.8
		c-0.4-0.1-0.8-0.3-1.1-0.4c-0.3-0.2-0.6-0.3-0.8-0.6c-0.2-0.2-0.4-0.5-0.5-0.8s-0.2-0.7-0.2-1.2c0-0.7,0.2-1.3,0.5-1.8
		s0.8-0.9,1.3-1.2c0.5-0.3,1.1-0.5,1.7-0.6c0.6-0.1,1.2-0.2,1.8-0.2c0.6,0,1.3,0.1,1.9,0.2c0.6,0.1,1.1,0.3,1.6,0.6
		c0.5,0.3,0.8,0.7,1.1,1.2c0.3,0.5,0.4,1.1,0.4,1.9h-3C125.1,118,124.9,117.7,124.6,117.4z"/>
	<path d="M137.2,115.1l-0.5,2.2h-2.3l-1.2,5.9c0,0.1-0.1,0.2-0.1,0.3s0,0.2,0,0.2c0,0.2,0,0.4,0.1,0.5c0.1,0.1,0.2,0.2,0.3,0.3
		s0.2,0.1,0.4,0.1c0.1,0,0.3,0,0.4,0c0.4,0,0.8,0,1.2-0.1l-0.6,2.5c-0.3,0-0.7,0.1-1,0.1c-0.3,0-0.7,0-1,0c-0.4,0-0.8,0-1.1-0.1
		c-0.4-0.1-0.7-0.2-1-0.4c-0.3-0.2-0.5-0.4-0.7-0.7c-0.2-0.3-0.3-0.7-0.2-1.2c0-0.2,0-0.3,0-0.5c0-0.2,0.1-0.4,0.1-0.6l1.3-6.3H129
		l0.5-2.2h2.1l0.7-3.6h3.3l-0.7,3.6H137.2z"/>
	<path d="M144.1,117.4c-0.3-0.3-0.7-0.4-1.4-0.4c-0.6,0-1.1,0.1-1.4,0.3c-0.4,0.2-0.6,0.5-0.6,0.9c0,0.3,0.1,0.5,0.3,0.7
		c0.2,0.2,0.6,0.4,1.2,0.5l1.6,0.5c0.4,0.1,0.9,0.3,1.2,0.5c0.4,0.2,0.7,0.4,1,0.7c0.3,0.3,0.5,0.6,0.7,1c0.2,0.4,0.2,0.8,0.2,1.3
		c0,0.7-0.2,1.4-0.5,1.9c-0.3,0.5-0.8,0.9-1.3,1.2c-0.5,0.3-1.1,0.5-1.8,0.7c-0.7,0.1-1.4,0.2-2,0.2c-0.6,0-1.2-0.1-1.8-0.2
		c-0.6-0.1-1.1-0.3-1.6-0.6c-0.5-0.3-0.9-0.7-1.2-1.1c-0.3-0.5-0.5-1.1-0.5-1.8v-0.5h3v0.4c0,0.3,0.1,0.5,0.2,0.7
		c0.1,0.2,0.3,0.4,0.5,0.5c0.2,0.1,0.5,0.2,0.8,0.3s0.6,0.1,0.8,0.1c0.2,0,0.5,0,0.7-0.1c0.2,0,0.5-0.1,0.7-0.2
		c0.2-0.1,0.4-0.3,0.5-0.4s0.2-0.4,0.2-0.7c0-0.4-0.1-0.7-0.3-0.9s-0.5-0.3-0.8-0.4l-2.5-0.8c-0.4-0.1-0.8-0.3-1.1-0.4
		c-0.3-0.2-0.6-0.3-0.8-0.6c-0.2-0.2-0.4-0.5-0.5-0.8s-0.2-0.7-0.2-1.2c0-0.7,0.2-1.3,0.5-1.8s0.8-0.9,1.3-1.2
		c0.5-0.3,1.1-0.5,1.7-0.6c0.6-0.1,1.2-0.2,1.8-0.2c0.6,0,1.3,0.1,1.9,0.2c0.6,0.1,1.1,0.3,1.6,0.6c0.5,0.3,0.8,0.7,1.1,1.2
		c0.3,0.5,0.4,1.1,0.4,1.9h-3C144.5,118,144.4,117.7,144.1,117.4z"/>
	<path d="M154.6,119.3c0.3-0.9,0.8-1.7,1.4-2.3c0.6-0.7,1.3-1.2,2.1-1.6c0.8-0.4,1.8-0.6,2.8-0.6c0.8,0,1.6,0.1,2.2,0.3
		c0.7,0.2,1.3,0.5,1.8,0.9c0.5,0.4,0.9,0.9,1.1,1.6c0.3,0.6,0.4,1.4,0.4,2.2c0,1-0.2,2-0.5,2.9c-0.3,0.9-0.8,1.7-1.4,2.4
		c-0.6,0.7-1.3,1.2-2.2,1.6c-0.8,0.4-1.8,0.6-2.9,0.6c-1.7,0-3-0.4-4-1.3c-1-0.8-1.5-2.1-1.5-3.8
		C154.1,121.1,154.2,120.2,154.6,119.3z M157.5,123.2c0.1,0.3,0.2,0.6,0.4,0.8c0.2,0.2,0.4,0.4,0.7,0.6c0.3,0.1,0.6,0.2,1,0.2
		c0.6,0,1.1-0.2,1.6-0.5s0.8-0.7,1.1-1.2c0.3-0.5,0.5-1,0.6-1.6c0.1-0.6,0.2-1.1,0.2-1.6c0-0.8-0.2-1.4-0.5-1.9
		c-0.4-0.5-1-0.7-1.8-0.7c-0.6,0-1.1,0.2-1.5,0.5s-0.8,0.7-1.1,1.2s-0.5,1-0.6,1.6c-0.1,0.6-0.2,1.1-0.2,1.6
		C157.3,122.5,157.4,122.8,157.5,123.2z"/>
	<path d="M169.3,126.9l-1.6-11.9h3.3l0.7,8.4h0l4.2-8.4h3.4l-6.5,11.9H169.3z"/>
	<path d="M181.8,122c0,0.1,0,0.1,0,0.2v0.3c0,0.7,0.2,1.2,0.6,1.7c0.4,0.4,1.1,0.6,2,0.6c0.3,0,0.6,0,0.9-0.1
		c0.3-0.1,0.5-0.2,0.7-0.4c0.2-0.2,0.4-0.3,0.5-0.5c0.1-0.2,0.3-0.4,0.4-0.6h3.3c-0.3,0.7-0.6,1.3-0.9,1.8c-0.4,0.5-0.8,0.9-1.3,1.3
		s-1.1,0.6-1.7,0.8c-0.7,0.2-1.4,0.3-2.3,0.3c-0.8,0-1.5-0.1-2.2-0.3c-0.6-0.2-1.2-0.5-1.7-1c-0.5-0.4-0.8-1-1.1-1.6
		c-0.3-0.6-0.4-1.4-0.4-2.2c0-0.9,0.2-1.9,0.5-2.7c0.3-0.9,0.7-1.7,1.3-2.3c0.6-0.7,1.2-1.2,2.1-1.6c0.8-0.4,1.7-0.6,2.7-0.6
		c0.8,0,1.6,0.1,2.3,0.3c0.7,0.2,1.3,0.5,1.7,1s0.9,1,1.1,1.6c0.3,0.6,0.4,1.4,0.4,2.3c0,0.6-0.1,1.2-0.2,1.9h-8.7
		C181.8,121.9,181.8,121.9,181.8,122z M187.5,118.8c-0.1-0.3-0.2-0.6-0.3-0.8c-0.2-0.2-0.4-0.4-0.7-0.6c-0.3-0.1-0.7-0.2-1.1-0.2
		c-0.5,0-0.9,0.1-1.2,0.2c-0.4,0.1-0.7,0.3-0.9,0.6s-0.5,0.5-0.7,0.8c-0.2,0.3-0.3,0.6-0.4,1h5.4
		C187.6,119.4,187.6,119.1,187.5,118.8z"/>
	<path d="M196.5,115.1l-0.5,2.1l0,0c0.4-0.8,0.9-1.4,1.7-1.9s1.5-0.6,2.4-0.6c0.3,0,0.7,0,1,0.1l-0.7,3.2c-0.2,0-0.5-0.1-0.7-0.1
		c-0.2,0-0.5-0.1-0.7-0.1c-0.6,0-1.2,0.1-1.6,0.3s-0.8,0.5-1.1,0.9c-0.3,0.4-0.5,0.8-0.7,1.2c-0.2,0.5-0.3,1-0.4,1.5l-1.1,5.2h-3.2
		l2.5-11.9H196.5z"/>
	<path d="M218,120.5l-0.6,2.7h-2.1l-0.8,3.7h-3.1l0.8-3.7h-7.4l0.6-3l9.4-9.4h3.2l-2,9.7H218z M214.1,114.4L214.1,114.4l-6.1,6.2
		h4.8L214.1,114.4z"/>
	<path d="M218,118.7c0.1-0.8,0.3-1.6,0.6-2.4c0.3-0.8,0.6-1.5,1-2.2c0.4-0.7,0.9-1.3,1.5-1.8c0.6-0.5,1.2-0.9,1.9-1.2
		c0.7-0.3,1.5-0.5,2.3-0.5c0.9,0,1.7,0.1,2.4,0.4c0.7,0.3,1.2,0.7,1.7,1.2c0.4,0.5,0.8,1.2,1,1.9c0.2,0.7,0.3,1.6,0.3,2.5
		c0,0.8-0.1,1.6-0.2,2.4s-0.3,1.6-0.6,2.4c-0.3,0.8-0.6,1.5-1.1,2.2s-0.9,1.3-1.5,1.8c-0.6,0.5-1.2,0.9-2,1.2s-1.6,0.5-2.5,0.5
		c-0.9,0-1.7-0.2-2.3-0.5c-0.6-0.3-1.2-0.8-1.6-1.3c-0.4-0.6-0.7-1.2-0.9-2s-0.3-1.5-0.3-2.3C217.8,120.3,217.9,119.5,218,118.7z
		 M221.1,122.8c0.1,0.3,0.2,0.6,0.4,0.9c0.2,0.3,0.4,0.5,0.7,0.6c0.3,0.2,0.7,0.2,1.1,0.2c0.5,0,1-0.2,1.5-0.5
		c0.4-0.3,0.8-0.7,1.1-1.2c0.3-0.5,0.6-1.1,0.8-1.7c0.2-0.6,0.4-1.3,0.5-1.9c0.1-0.6,0.2-1.2,0.3-1.8c0.1-0.6,0.1-1,0.1-1.4
		c0-0.4,0-0.8-0.1-1.1s-0.2-0.7-0.4-0.9c-0.2-0.3-0.4-0.5-0.7-0.6c-0.3-0.2-0.7-0.2-1.1-0.2c-0.5,0-1,0.2-1.4,0.5
		c-0.4,0.3-0.8,0.7-1.1,1.2s-0.6,1.1-0.8,1.7s-0.4,1.3-0.5,1.9s-0.2,1.2-0.3,1.8c-0.1,0.6-0.1,1-0.1,1.4
		C221,122.1,221.1,122.5,221.1,122.8z"/>
	<path d="M234.3,123.4l-0.8,3.5h-3.6l0.7-3.5H234.3z"/>
</g>
</svg>
