<?xml version="1.0" encoding="utf-8"?>
<!-- Generator: Adobe Illustrator 26.1.0, SVG Export Plug-In . SVG Version: 6.00 Build 0)  -->
<svg version="1.1" id="Layer_1" xmlns="http://www.w3.org/2000/svg" xmlns:xlink="http://www.w3.org/1999/xlink" x="0px" y="0px"
	 viewBox="0 0 300 250" style="enable-background:new 0 0 300 250;" xml:space="preserve">
<style type="text/css">
	.st0{fill:#339933;}
</style>
<g>
	<path class="st0" d="M36.5,96c1.3,0,2.5,0.2,3.4,0.6s1.7,0.9,2.3,1.5c0.6,0.6,1,1.4,1.3,2.2s0.4,1.7,0.4,2.5c0,0.9-0.1,1.7-0.4,2.5
		s-0.7,1.6-1.3,2.2c-0.6,0.6-1.4,1.2-2.3,1.5s-2.1,0.6-3.4,0.6h-4.9v7.7h-4.7V96H36.5z M35.3,106.1c0.5,0,1.1,0,1.6-0.1
		c0.5-0.1,0.9-0.2,1.3-0.5c0.4-0.2,0.7-0.6,0.9-1c0.2-0.4,0.3-1,0.3-1.6s-0.1-1.2-0.3-1.6c-0.2-0.4-0.5-0.7-0.9-1
		c-0.4-0.2-0.8-0.4-1.3-0.5c-0.5-0.1-1-0.1-1.6-0.1h-3.6v6.4H35.3z"/>
	<path class="st0" d="M50.4,101.9v2.9h0.1c0.2-0.5,0.5-0.9,0.8-1.3c0.3-0.4,0.7-0.8,1.2-1c0.4-0.3,0.9-0.5,1.4-0.7
		c0.5-0.2,1-0.2,1.6-0.2c0.3,0,0.6,0,0.9,0.1v3.9c-0.2,0-0.4-0.1-0.7-0.1c-0.3,0-0.5,0-0.8,0c-0.8,0-1.4,0.1-2,0.4
		c-0.5,0.3-1,0.6-1.3,1.1c-0.3,0.4-0.6,1-0.7,1.6c-0.1,0.6-0.2,1.2-0.2,1.9v7h-4.2v-15.5H50.4z"/>
	<path class="st0" d="M57.9,106.7c0.1-1,0.3-1.8,0.7-2.5s1-1.2,1.7-1.6c0.7-0.4,1.4-0.7,2.3-0.9c0.8-0.2,1.7-0.3,2.6-0.3
		c0.8,0,1.6,0.1,2.4,0.2c0.8,0.1,1.5,0.3,2.2,0.6c0.7,0.3,1.2,0.8,1.6,1.3c0.4,0.6,0.6,1.3,0.6,2.3v8c0,0.7,0,1.4,0.1,2
		c0.1,0.6,0.2,1.1,0.4,1.4h-4.3c-0.1-0.2-0.1-0.5-0.2-0.7c-0.1-0.2-0.1-0.5-0.1-0.8c-0.7,0.7-1.5,1.2-2.4,1.5
		c-0.9,0.3-1.9,0.4-2.8,0.4c-0.7,0-1.4-0.1-2.1-0.3c-0.6-0.2-1.2-0.5-1.7-0.8c-0.5-0.4-0.9-0.9-1.1-1.4c-0.3-0.6-0.4-1.3-0.4-2.1
		c0-0.9,0.2-1.6,0.5-2.2c0.3-0.6,0.7-1,1.2-1.4c0.5-0.3,1-0.6,1.7-0.8c0.6-0.2,1.3-0.3,1.9-0.4c0.6-0.1,1.3-0.2,1.9-0.2
		c0.6-0.1,1.2-0.1,1.6-0.3s0.9-0.3,1.1-0.5c0.3-0.2,0.4-0.6,0.4-1c0-0.5-0.1-0.8-0.2-1.1s-0.3-0.5-0.6-0.6c-0.2-0.1-0.5-0.2-0.9-0.3
		c-0.3,0-0.7-0.1-1.1-0.1c-0.8,0-1.5,0.2-2,0.5s-0.8,1-0.8,1.8H57.9z M67.7,109.8c-0.2,0.2-0.4,0.3-0.7,0.4
		c-0.3,0.1-0.6,0.2-0.9,0.2c-0.3,0.1-0.6,0.1-1,0.1s-0.7,0.1-1,0.1c-0.3,0.1-0.6,0.1-0.9,0.2s-0.6,0.2-0.8,0.4
		c-0.2,0.2-0.4,0.4-0.6,0.6c-0.1,0.3-0.2,0.6-0.2,1c0,0.4,0.1,0.7,0.2,1c0.1,0.3,0.3,0.5,0.6,0.6c0.2,0.1,0.5,0.3,0.8,0.3
		c0.3,0.1,0.6,0.1,1,0.1c0.8,0,1.5-0.1,1.9-0.4c0.5-0.3,0.8-0.6,1-1s0.4-0.8,0.4-1.2c0-0.4,0.1-0.7,0.1-1V109.8z"/>
	<path class="st0" d="M82.6,104.7c-0.7,0-1.2,0.2-1.7,0.5s-0.8,0.7-1.1,1.2c-0.3,0.5-0.5,1-0.6,1.6c-0.1,0.6-0.2,1.2-0.2,1.7
		c0,0.6,0.1,1.1,0.2,1.7c0.1,0.6,0.3,1.1,0.6,1.6c0.3,0.5,0.6,0.9,1.1,1.2c0.5,0.3,1,0.4,1.7,0.4c1,0,1.8-0.3,2.3-0.9
		c0.5-0.6,0.9-1.3,1-2.3H90c-0.3,2.1-1.1,3.6-2.4,4.7c-1.3,1.1-3,1.6-5.1,1.6c-1.2,0-2.2-0.2-3.2-0.6c-1-0.4-1.8-0.9-2.5-1.6
		c-0.7-0.7-1.2-1.5-1.6-2.5c-0.4-1-0.6-2-0.6-3.2c0-1.2,0.2-2.3,0.5-3.3c0.3-1,0.9-1.9,1.5-2.7c0.7-0.7,1.5-1.3,2.5-1.7
		c1-0.4,2.1-0.6,3.3-0.6c0.9,0,1.8,0.1,2.6,0.4c0.8,0.2,1.6,0.6,2.3,1.1c0.7,0.5,1.2,1.1,1.6,1.8c0.4,0.7,0.7,1.6,0.7,2.6h-4.2
		C85.4,105.6,84.4,104.7,82.6,104.7z"/>
	<path class="st0" d="M100.9,101.9v2.8h-3.1v7.7c0,0.7,0.1,1.2,0.4,1.4c0.2,0.2,0.7,0.4,1.4,0.4c0.2,0,0.5,0,0.7,0
		c0.2,0,0.4,0,0.6-0.1v3.3c-0.4,0.1-0.8,0.1-1.2,0.1c-0.4,0-0.9,0-1.3,0c-0.7,0-1.3,0-1.9-0.1c-0.6-0.1-1.1-0.3-1.6-0.5
		c-0.4-0.3-0.8-0.6-1.1-1.1c-0.3-0.5-0.4-1.1-0.4-1.9v-9.1h-2.6v-2.8h2.6v-4.6h4.2v4.6H100.9z"/>
	<path class="st0" d="M103,99.5V96h4.2v3.5H103z M107.3,101.9v15.5H103v-15.5H107.3z"/>
	<path class="st0" d="M118,104.7c-0.7,0-1.2,0.2-1.7,0.5s-0.8,0.7-1.1,1.2c-0.3,0.5-0.5,1-0.6,1.6c-0.1,0.6-0.2,1.2-0.2,1.7
		c0,0.6,0.1,1.1,0.2,1.7c0.1,0.6,0.3,1.1,0.6,1.6c0.3,0.5,0.6,0.9,1.1,1.2c0.5,0.3,1,0.4,1.7,0.4c1,0,1.8-0.3,2.3-0.9
		c0.5-0.6,0.9-1.3,1-2.3h4.1c-0.3,2.1-1.1,3.6-2.4,4.7c-1.3,1.1-3,1.6-5.1,1.6c-1.2,0-2.2-0.2-3.2-0.6c-1-0.4-1.8-0.9-2.5-1.6
		c-0.7-0.7-1.2-1.5-1.6-2.5c-0.4-1-0.6-2-0.6-3.2c0-1.2,0.2-2.3,0.5-3.3c0.3-1,0.9-1.9,1.5-2.7c0.7-0.7,1.5-1.3,2.5-1.7
		c1-0.4,2.1-0.6,3.3-0.6c0.9,0,1.8,0.1,2.6,0.4c0.8,0.2,1.6,0.6,2.3,1.1c0.7,0.5,1.2,1.1,1.6,1.8c0.4,0.7,0.7,1.6,0.7,2.6h-4.2
		C120.8,105.6,119.8,104.7,118,104.7z"/>
	<path class="st0" d="M127.6,106.7c0.1-1,0.3-1.8,0.7-2.5s1-1.2,1.7-1.6c0.7-0.4,1.4-0.7,2.3-0.9c0.8-0.2,1.7-0.3,2.6-0.3
		c0.8,0,1.6,0.1,2.4,0.2c0.8,0.1,1.5,0.3,2.2,0.6c0.7,0.3,1.2,0.8,1.6,1.3c0.4,0.6,0.6,1.3,0.6,2.3v8c0,0.7,0,1.4,0.1,2
		c0.1,0.6,0.2,1.1,0.4,1.4h-4.3c-0.1-0.2-0.1-0.5-0.2-0.7c-0.1-0.2-0.1-0.5-0.1-0.8c-0.7,0.7-1.5,1.2-2.4,1.5
		c-0.9,0.3-1.9,0.4-2.8,0.4c-0.7,0-1.4-0.1-2.1-0.3c-0.6-0.2-1.2-0.5-1.7-0.8c-0.5-0.4-0.9-0.9-1.1-1.4c-0.3-0.6-0.4-1.3-0.4-2.1
		c0-0.9,0.2-1.6,0.5-2.2c0.3-0.6,0.7-1,1.2-1.4c0.5-0.3,1-0.6,1.7-0.8c0.6-0.2,1.3-0.3,1.9-0.4c0.6-0.1,1.3-0.2,1.9-0.2
		c0.6-0.1,1.2-0.1,1.6-0.3s0.9-0.3,1.1-0.5c0.3-0.2,0.4-0.6,0.4-1c0-0.5-0.1-0.8-0.2-1.1s-0.3-0.5-0.6-0.6c-0.2-0.1-0.5-0.2-0.9-0.3
		c-0.3,0-0.7-0.1-1.1-0.1c-0.8,0-1.5,0.2-2,0.5s-0.8,1-0.8,1.8H127.6z M137.4,109.8c-0.2,0.2-0.4,0.3-0.7,0.4
		c-0.3,0.1-0.6,0.2-0.9,0.2c-0.3,0.1-0.6,0.1-1,0.1s-0.7,0.1-1,0.1c-0.3,0.1-0.6,0.1-0.9,0.2s-0.6,0.2-0.8,0.4
		c-0.2,0.2-0.4,0.4-0.6,0.6c-0.1,0.3-0.2,0.6-0.2,1c0,0.4,0.1,0.7,0.2,1c0.1,0.3,0.3,0.5,0.6,0.6c0.2,0.1,0.5,0.3,0.8,0.3
		c0.3,0.1,0.6,0.1,1,0.1c0.8,0,1.5-0.1,1.9-0.4c0.5-0.3,0.8-0.6,1-1s0.4-0.8,0.4-1.2c0-0.4,0.1-0.7,0.1-1V109.8z"/>
	<path class="st0" d="M149.3,96v21.3H145V96H149.3z"/>
	<path class="st0" d="M177.1,117.4l-3.6-14.5h-0.1l-3.6,14.5h-4.8L159.4,96h4.7l3.4,14.5h0.1l3.7-14.5h4.4l3.6,14.7h0.1l3.5-14.7
		h4.6l-5.7,21.3H177.1z"/>
	<path class="st0" d="M189.3,99.5V96h4.2v3.5H189.3z M193.5,101.9v15.5h-4.2v-15.5H193.5z"/>
	<path class="st0" d="M200.5,113.5c0.2,0.3,0.4,0.6,0.7,0.8c0.3,0.2,0.6,0.4,1,0.5c0.4,0.1,0.8,0.1,1.2,0.1c0.3,0,0.6,0,0.9-0.1
		s0.6-0.2,0.9-0.3c0.3-0.1,0.5-0.3,0.7-0.6c0.2-0.2,0.3-0.6,0.3-0.9c0-0.6-0.4-1.1-1.3-1.4c-0.8-0.3-2-0.6-3.5-1
		c-0.6-0.1-1.2-0.3-1.8-0.5s-1.1-0.4-1.6-0.7c-0.5-0.3-0.8-0.7-1.1-1.2s-0.4-1-0.4-1.7c0-1,0.2-1.8,0.6-2.5c0.4-0.6,0.9-1.1,1.5-1.5
		c0.6-0.4,1.4-0.6,2.2-0.8c0.8-0.1,1.6-0.2,2.5-0.2s1.6,0.1,2.4,0.2s1.5,0.4,2.1,0.8c0.6,0.4,1.1,0.9,1.5,1.5
		c0.4,0.6,0.7,1.4,0.7,2.4h-4c-0.1-0.8-0.4-1.4-0.9-1.7c-0.6-0.3-1.2-0.4-2-0.4c-0.2,0-0.5,0-0.8,0c-0.3,0-0.5,0.1-0.8,0.2
		c-0.2,0.1-0.4,0.2-0.6,0.4c-0.2,0.2-0.2,0.4-0.2,0.8c0,0.4,0.1,0.7,0.4,0.9c0.3,0.2,0.6,0.4,1.1,0.6c0.4,0.1,1,0.3,1.5,0.4
		s1.2,0.2,1.8,0.4c0.6,0.1,1.2,0.3,1.8,0.5c0.6,0.2,1.1,0.5,1.6,0.8c0.5,0.3,0.8,0.7,1.1,1.2c0.3,0.5,0.4,1.1,0.4,1.8
		c0,1-0.2,1.9-0.6,2.6c-0.4,0.7-0.9,1.2-1.6,1.7c-0.7,0.4-1.4,0.7-2.3,0.9c-0.8,0.2-1.7,0.3-2.6,0.3c-0.9,0-1.8-0.1-2.6-0.3
		c-0.9-0.2-1.6-0.5-2.3-0.9s-1.2-1-1.6-1.7c-0.4-0.7-0.7-1.5-0.7-2.6h4C200.2,112.8,200.3,113.2,200.5,113.5z"/>
	<path class="st0" d="M223.9,115.4c-0.5,0.8-1.2,1.4-2,1.8c-0.8,0.4-1.7,0.6-2.7,0.6c-1.2,0-2.2-0.2-3-0.7c-0.9-0.4-1.6-1.1-2.2-1.8
		c-0.6-0.8-1-1.6-1.3-2.6c-0.3-1-0.4-2-0.4-3.1c0-1,0.1-2,0.4-3c0.3-1,0.7-1.8,1.3-2.6c0.6-0.7,1.3-1.3,2.1-1.8
		c0.9-0.4,1.9-0.7,3-0.7c0.9,0,1.8,0.2,2.6,0.6s1.5,1,2,1.7h0.1V96h4.2v21.3h-4L223.9,115.4L223.9,115.4z M223.7,107.7
		c-0.1-0.6-0.3-1.1-0.6-1.6c-0.3-0.4-0.7-0.8-1.1-1.1c-0.5-0.3-1-0.4-1.7-0.4c-0.7,0-1.3,0.1-1.8,0.4c-0.5,0.3-0.9,0.6-1.2,1.1
		s-0.5,1-0.6,1.6s-0.2,1.2-0.2,1.8c0,0.6,0.1,1.2,0.2,1.8c0.1,0.6,0.4,1.1,0.7,1.6c0.3,0.5,0.7,0.8,1.2,1.1c0.5,0.3,1,0.4,1.7,0.4
		c0.7,0,1.3-0.1,1.8-0.4c0.5-0.3,0.8-0.7,1.1-1.1c0.3-0.5,0.5-1,0.6-1.6c0.1-0.6,0.2-1.2,0.2-1.9
		C223.9,108.9,223.9,108.3,223.7,107.7z"/>
	<path class="st0" d="M231.3,106.3c0.4-1,0.9-1.9,1.6-2.6c0.7-0.7,1.5-1.3,2.5-1.6s2.1-0.6,3.3-0.6s2.3,0.2,3.3,0.6
		c1,0.4,1.8,0.9,2.5,1.6c0.7,0.7,1.2,1.6,1.6,2.6c0.4,1,0.6,2.1,0.6,3.4s-0.2,2.4-0.6,3.3c-0.4,1-0.9,1.8-1.6,2.6
		c-0.7,0.7-1.5,1.3-2.5,1.6c-1,0.4-2.1,0.6-3.3,0.6s-2.3-0.2-3.3-0.6s-1.8-0.9-2.5-1.6c-0.7-0.7-1.2-1.6-1.6-2.6
		c-0.4-1-0.6-2.1-0.6-3.3S230.9,107.3,231.3,106.3z M235.2,111.4c0.1,0.6,0.3,1.1,0.6,1.6s0.7,0.8,1.2,1.1c0.5,0.3,1.1,0.4,1.8,0.4
		s1.3-0.1,1.8-0.4c0.5-0.3,0.9-0.7,1.2-1.1c0.3-0.5,0.5-1,0.6-1.6c0.1-0.6,0.2-1.2,0.2-1.8s-0.1-1.2-0.2-1.8
		c-0.1-0.6-0.3-1.1-0.6-1.6c-0.3-0.5-0.7-0.8-1.2-1.1c-0.5-0.3-1.1-0.4-1.8-0.4s-1.3,0.1-1.8,0.4s-0.9,0.7-1.2,1.1
		c-0.3,0.5-0.5,1-0.6,1.6c-0.1,0.6-0.2,1.2-0.2,1.8S235,110.9,235.2,111.4z"/>
	<path class="st0" d="M253.6,101.9v2.1h0.1c0.6-0.8,1.2-1.4,2-1.9s1.7-0.7,2.7-0.7c1,0,1.9,0.2,2.7,0.6c0.8,0.4,1.4,1,1.8,2
		c0.5-0.7,1.1-1.3,1.9-1.8c0.8-0.5,1.7-0.8,2.8-0.8c0.8,0,1.6,0.1,2.3,0.3c0.7,0.2,1.3,0.5,1.8,1c0.5,0.4,0.9,1,1.2,1.7
		c0.3,0.7,0.4,1.6,0.4,2.6v10.3H269v-8.8c0-0.5,0-1-0.1-1.5c0-0.5-0.1-0.9-0.3-1.2c-0.2-0.3-0.4-0.6-0.8-0.8
		c-0.3-0.2-0.8-0.3-1.4-0.3s-1.1,0.1-1.5,0.3c-0.4,0.2-0.7,0.5-0.9,0.9c-0.2,0.4-0.3,0.8-0.4,1.3c-0.1,0.5-0.1,0.9-0.1,1.4v8.6h-4.2
		v-8.7c0-0.5,0-0.9,0-1.4s-0.1-0.9-0.3-1.2c-0.1-0.4-0.4-0.7-0.7-0.9c-0.3-0.2-0.9-0.3-1.5-0.3c-0.2,0-0.5,0-0.8,0.1
		c-0.3,0.1-0.6,0.3-1,0.5c-0.3,0.2-0.6,0.6-0.8,1.1c-0.2,0.5-0.3,1.1-0.3,1.8v9h-4.2v-15.5H253.6z"/>
</g>
<g>
	<path class="st0" d="M66.9,134.6v-2.8h2.5v-1.2c0-1.4,0.4-2.5,1.3-3.4c0.9-0.9,2.2-1.3,3.9-1.3c0.4,0,0.8,0,1.1,0
		c0.4,0,0.7,0.1,1.1,0.1v3.2c-0.5-0.1-1-0.1-1.6-0.1c-0.6,0-1,0.1-1.2,0.4c-0.2,0.3-0.4,0.7-0.4,1.4v0.9h2.9v2.8h-2.9v12.6h-4.2
		v-12.6H66.9z"/>
	<path class="st0" d="M78.5,136.2c0.4-1,0.9-1.9,1.6-2.6c0.7-0.7,1.5-1.3,2.5-1.6c1-0.4,2.1-0.6,3.3-0.6s2.3,0.2,3.3,0.6
		c1,0.4,1.8,0.9,2.5,1.6c0.7,0.7,1.2,1.6,1.6,2.6c0.4,1,0.6,2.1,0.6,3.4s-0.2,2.4-0.6,3.3c-0.4,1-0.9,1.8-1.6,2.6
		c-0.7,0.7-1.5,1.3-2.5,1.6c-1,0.4-2.1,0.6-3.3,0.6s-2.3-0.2-3.3-0.6c-1-0.4-1.8-0.9-2.5-1.6c-0.7-0.7-1.2-1.6-1.6-2.6
		c-0.4-1-0.6-2.1-0.6-3.3S78.1,137.2,78.5,136.2z M82.4,141.3c0.1,0.6,0.3,1.1,0.6,1.6c0.3,0.5,0.7,0.8,1.2,1.1
		c0.5,0.3,1.1,0.4,1.8,0.4c0.7,0,1.3-0.1,1.8-0.4c0.5-0.3,0.9-0.7,1.2-1.1c0.3-0.5,0.5-1,0.6-1.6c0.1-0.6,0.2-1.2,0.2-1.8
		s-0.1-1.2-0.2-1.8c-0.1-0.6-0.3-1.1-0.6-1.6c-0.3-0.5-0.7-0.8-1.2-1.1c-0.5-0.3-1.1-0.4-1.8-0.4c-0.7,0-1.3,0.1-1.8,0.4
		c-0.5,0.3-0.9,0.7-1.2,1.1c-0.3,0.5-0.5,1-0.6,1.6c-0.1,0.6-0.2,1.2-0.2,1.8S82.3,140.8,82.4,141.3z"/>
	<path class="st0" d="M100.7,131.8v2.9h0.1c0.2-0.5,0.5-0.9,0.8-1.3c0.3-0.4,0.7-0.8,1.2-1c0.4-0.3,0.9-0.5,1.4-0.7
		c0.5-0.2,1-0.2,1.6-0.2c0.3,0,0.6,0.1,0.9,0.1v3.9c-0.2,0-0.4-0.1-0.7-0.1c-0.3,0-0.5,0-0.8,0c-0.8,0-1.4,0.1-2,0.4s-1,0.6-1.3,1.1
		c-0.3,0.4-0.6,1-0.7,1.6s-0.2,1.2-0.2,1.9v7h-4.2v-15.5H100.7z"/>
	<path class="st0" d="M126.3,125.9c1.4,0,2.7,0.2,3.8,0.7c1.2,0.4,2.2,1.1,3.1,2s1.5,2,2,3.3c0.5,1.3,0.7,2.9,0.7,4.6
		c0,1.6-0.2,3-0.6,4.3c-0.4,1.3-1,2.5-1.8,3.4c-0.8,1-1.8,1.7-3,2.3c-1.2,0.5-2.6,0.8-4.3,0.8h-9.2v-21.3H126.3z M126,143.3
		c0.7,0,1.3-0.1,2-0.3c0.6-0.2,1.2-0.6,1.7-1.1c0.5-0.5,0.9-1.2,1.2-2c0.3-0.8,0.4-1.8,0.4-3c0-1.1-0.1-2-0.3-2.9
		c-0.2-0.9-0.6-1.6-1-2.2c-0.5-0.6-1.1-1.1-1.9-1.4s-1.8-0.5-2.9-0.5h-3.3v13.5H126z"/>
	<path class="st0" d="M143.3,143.5c0.6,0.6,1.6,0.9,2.8,0.9c0.9,0,1.6-0.2,2.2-0.6c0.6-0.4,1-0.9,1.1-1.4h3.7
		c-0.6,1.9-1.5,3.2-2.8,4c-1.2,0.8-2.7,1.2-4.5,1.2c-1.2,0-2.3-0.2-3.3-0.6s-1.8-0.9-2.5-1.7c-0.7-0.7-1.2-1.6-1.6-2.6
		c-0.4-1-0.6-2.1-0.6-3.3c0-1.2,0.2-2.2,0.6-3.2c0.4-1,0.9-1.9,1.6-2.6c0.7-0.7,1.5-1.3,2.5-1.7c1-0.4,2-0.6,3.2-0.6
		c1.3,0,2.5,0.3,3.4,0.8c1,0.5,1.8,1.2,2.4,2c0.6,0.9,1.1,1.8,1.4,2.9c0.3,1.1,0.4,2.2,0.3,3.4h-11.2
		C142.4,141.9,142.7,142.9,143.3,143.5z M148.1,135.4c-0.5-0.6-1.3-0.8-2.3-0.8c-0.7,0-1.2,0.1-1.7,0.3c-0.4,0.2-0.8,0.5-1.1,0.9
		c-0.3,0.3-0.5,0.7-0.6,1.1c-0.1,0.4-0.2,0.7-0.2,1h6.9C149,136.8,148.6,136,148.1,135.4z"/>
	<path class="st0" d="M160,131.8v2.2h0.1c0.5-0.9,1.2-1.5,2.1-2c0.9-0.4,1.7-0.6,2.6-0.6c1.1,0,2.1,0.2,2.8,0.5
		c0.7,0.3,1.3,0.7,1.7,1.3c0.4,0.5,0.7,1.2,0.9,2s0.3,1.7,0.3,2.6v9.5h-4.2v-8.7c0-1.3-0.2-2.2-0.6-2.9c-0.4-0.6-1.1-0.9-2.1-0.9
		c-1.2,0-2,0.3-2.5,1s-0.8,1.8-0.8,3.4v8.1H156v-15.5H160z"/>
	<path class="st0" d="M182.2,131.8v2.8h-3.1v7.7c0,0.7,0.1,1.2,0.4,1.4s0.7,0.4,1.4,0.4c0.2,0,0.5,0,0.7,0c0.2,0,0.4,0,0.6-0.1v3.3
		c-0.4,0.1-0.8,0.1-1.2,0.1c-0.4,0-0.9,0-1.3,0c-0.7,0-1.3,0-1.9-0.1c-0.6-0.1-1.1-0.3-1.6-0.5c-0.4-0.3-0.8-0.6-1.1-1.1
		c-0.3-0.5-0.4-1.1-0.4-1.9v-9.1h-2.6v-2.8h2.6v-4.6h4.2v4.6H182.2z"/>
	<path class="st0" d="M184.3,129.4v-3.5h4.2v3.5H184.3z M188.6,131.8v15.5h-4.2v-15.5H188.6z"/>
	<path class="st0" d="M195.5,143.4c0.2,0.3,0.4,0.6,0.7,0.8c0.3,0.2,0.6,0.4,1,0.5s0.8,0.1,1.2,0.1c0.3,0,0.6,0,0.9-0.1
		c0.3-0.1,0.6-0.2,0.9-0.3c0.3-0.1,0.5-0.3,0.7-0.6c0.2-0.2,0.3-0.6,0.3-0.9c0-0.6-0.4-1.1-1.3-1.4c-0.8-0.3-2-0.6-3.5-1
		c-0.6-0.1-1.2-0.3-1.8-0.5s-1.1-0.4-1.6-0.7c-0.5-0.3-0.8-0.7-1.1-1.2c-0.3-0.5-0.4-1-0.4-1.7c0-1,0.2-1.8,0.6-2.5
		c0.4-0.6,0.9-1.1,1.5-1.5c0.6-0.4,1.4-0.6,2.2-0.8c0.8-0.1,1.6-0.2,2.5-0.2s1.6,0.1,2.4,0.2c0.8,0.2,1.5,0.4,2.1,0.8
		c0.6,0.4,1.1,0.9,1.5,1.5c0.4,0.6,0.7,1.4,0.7,2.4h-4c-0.1-0.8-0.4-1.4-0.9-1.7c-0.6-0.3-1.2-0.4-2-0.4c-0.2,0-0.5,0-0.8,0
		c-0.3,0-0.5,0.1-0.8,0.2c-0.2,0.1-0.4,0.2-0.6,0.4c-0.2,0.2-0.2,0.4-0.2,0.8c0,0.4,0.1,0.7,0.4,0.9c0.3,0.2,0.6,0.4,1.1,0.6
		s1,0.3,1.5,0.4c0.6,0.1,1.2,0.2,1.8,0.4c0.6,0.1,1.2,0.3,1.8,0.5c0.6,0.2,1.1,0.5,1.6,0.8c0.5,0.3,0.8,0.7,1.1,1.2
		c0.3,0.5,0.4,1.1,0.4,1.8c0,1-0.2,1.9-0.6,2.6c-0.4,0.7-0.9,1.2-1.6,1.7c-0.7,0.4-1.4,0.7-2.3,0.9s-1.7,0.3-2.6,0.3
		c-0.9,0-1.8-0.1-2.6-0.3c-0.9-0.2-1.6-0.5-2.3-0.9s-1.2-1-1.6-1.7s-0.7-1.5-0.7-2.6h4C195.2,142.7,195.3,143.1,195.5,143.4z"/>
	<path class="st0" d="M216.5,131.8v2.8h-3.1v7.7c0,0.7,0.1,1.2,0.4,1.4s0.7,0.4,1.4,0.4c0.2,0,0.5,0,0.7,0c0.2,0,0.4,0,0.6-0.1v3.3
		c-0.4,0.1-0.8,0.1-1.2,0.1c-0.4,0-0.9,0-1.3,0c-0.7,0-1.3,0-1.9-0.1c-0.6-0.1-1.1-0.3-1.6-0.5c-0.4-0.3-0.8-0.6-1.1-1.1
		c-0.3-0.5-0.4-1.1-0.4-1.9v-9.1h-2.6v-2.8h2.6v-4.6h4.2v4.6H216.5z"/>
	<path class="st0" d="M222.1,143.4c0.2,0.3,0.4,0.6,0.7,0.8c0.3,0.2,0.6,0.4,1,0.5s0.8,0.1,1.2,0.1c0.3,0,0.6,0,0.9-0.1
		c0.3-0.1,0.6-0.2,0.9-0.3c0.3-0.1,0.5-0.3,0.7-0.6c0.2-0.2,0.3-0.6,0.3-0.9c0-0.6-0.4-1.1-1.3-1.4c-0.8-0.3-2-0.6-3.5-1
		c-0.6-0.1-1.2-0.3-1.8-0.5s-1.1-0.4-1.6-0.7c-0.5-0.3-0.8-0.7-1.1-1.2c-0.3-0.5-0.4-1-0.4-1.7c0-1,0.2-1.8,0.6-2.5
		c0.4-0.6,0.9-1.1,1.5-1.5c0.6-0.4,1.4-0.6,2.2-0.8c0.8-0.1,1.6-0.2,2.5-0.2s1.6,0.1,2.4,0.2c0.8,0.2,1.5,0.4,2.1,0.8
		c0.6,0.4,1.1,0.9,1.5,1.5c0.4,0.6,0.7,1.4,0.7,2.4h-4c-0.1-0.8-0.4-1.4-0.9-1.7c-0.6-0.3-1.2-0.4-2-0.4c-0.2,0-0.5,0-0.8,0
		c-0.3,0-0.5,0.1-0.8,0.2c-0.2,0.1-0.4,0.2-0.6,0.4c-0.2,0.2-0.2,0.4-0.2,0.8c0,0.4,0.1,0.7,0.4,0.9c0.3,0.2,0.6,0.4,1.1,0.6
		s1,0.3,1.5,0.4c0.6,0.1,1.2,0.2,1.8,0.4c0.6,0.1,1.2,0.3,1.8,0.5c0.6,0.2,1.1,0.5,1.6,0.8c0.5,0.3,0.8,0.7,1.1,1.2
		c0.3,0.5,0.4,1.1,0.4,1.8c0,1-0.2,1.9-0.6,2.6c-0.4,0.7-0.9,1.2-1.6,1.7c-0.7,0.4-1.4,0.7-2.3,0.9s-1.7,0.3-2.6,0.3
		c-0.9,0-1.8-0.1-2.6-0.3c-0.9-0.2-1.6-0.5-2.3-0.9s-1.2-1-1.6-1.7s-0.7-1.5-0.7-2.6h4C221.8,142.7,221.9,143.1,222.1,143.4z"/>
</g>
</svg>
