<?xml version="1.0" encoding="utf-8"?>
<!-- Generator: Adobe Illustrator 26.3.1, SVG Export Plug-In . SVG Version: 6.00 Build 0)  -->
<svg version="1.1" id="Layer_1" xmlns="http://www.w3.org/2000/svg" xmlns:xlink="http://www.w3.org/1999/xlink" x="0px" y="0px"
	 viewBox="0 0 160 600" style="enable-background:new 0 0 160 600;" xml:space="preserve">
<g>
	<path d="M18.1,181.4v11.6h7v2.6H15v-14.3H18.1z"/>
	<path d="M26.6,183.8v-2.3h2.8v2.3H26.6z M29.5,185.4v10.3h-2.8v-10.3H29.5z"/>
	<path d="M30.6,187.3v-1.9h1.7v-0.8c0-0.9,0.3-1.7,0.9-2.3c0.6-0.6,1.4-0.9,2.6-0.9c0.3,0,0.5,0,0.8,0s0.5,0,0.7,0v2.1
		c-0.3,0-0.7-0.1-1-0.1c-0.4,0-0.7,0.1-0.8,0.3c-0.2,0.2-0.2,0.5-0.2,0.9v0.6h2v1.9h-2v8.4h-2.8v-8.4H30.6z"/>
	<path d="M41.4,193.2c0.4,0.4,1,0.6,1.8,0.6c0.6,0,1.1-0.1,1.5-0.4c0.4-0.3,0.7-0.6,0.8-0.9H48c-0.4,1.2-1,2.1-1.8,2.7
		c-0.8,0.5-1.8,0.8-3,0.8c-0.8,0-1.5-0.1-2.2-0.4c-0.7-0.3-1.2-0.6-1.7-1.1c-0.5-0.5-0.8-1.1-1-1.7c-0.2-0.7-0.4-1.4-0.4-2.2
		c0-0.8,0.1-1.5,0.4-2.2c0.3-0.7,0.6-1.2,1.1-1.7c0.5-0.5,1-0.9,1.7-1.2c0.6-0.3,1.4-0.4,2.1-0.4c0.9,0,1.6,0.2,2.3,0.5
		c0.7,0.3,1.2,0.8,1.6,1.4c0.4,0.6,0.7,1.2,0.9,2c0.2,0.7,0.3,1.5,0.2,2.3h-7.5C40.7,192.2,41,192.8,41.4,193.2z M44.6,187.8
		c-0.3-0.4-0.9-0.6-1.6-0.6c-0.5,0-0.8,0.1-1.1,0.2c-0.3,0.2-0.5,0.3-0.7,0.6c-0.2,0.2-0.3,0.5-0.4,0.7c-0.1,0.3-0.1,0.5-0.1,0.7
		h4.6C45.2,188.7,45,188.2,44.6,187.8z"/>
	<path d="M53.1,192.6v3.1c0,0.5-0.1,0.9-0.2,1.2s-0.4,0.7-0.7,1c-0.3,0.3-0.6,0.5-1,0.7c-0.4,0.2-0.8,0.3-1.2,0.4v-1.4
		c0.2,0,0.4-0.1,0.6-0.2s0.3-0.3,0.5-0.4c0.1-0.2,0.2-0.4,0.3-0.6c0.1-0.2,0.1-0.4,0.1-0.6H50v-3.1H53.1z"/>
	<path d="M67.4,181.4c0.9,0,1.8,0.1,2.6,0.4s1.5,0.7,2.1,1.3c0.6,0.6,1,1.3,1.4,2.2c0.3,0.9,0.5,1.9,0.5,3.1c0,1-0.1,2-0.4,2.9
		c-0.3,0.9-0.7,1.6-1.2,2.3s-1.2,1.1-2,1.5c-0.8,0.4-1.8,0.5-2.9,0.5h-6.2v-14.3H67.4z M67.2,193.1c0.5,0,0.9-0.1,1.3-0.2
		c0.4-0.1,0.8-0.4,1.1-0.7c0.3-0.3,0.6-0.8,0.8-1.3c0.2-0.5,0.3-1.2,0.3-2c0-0.7-0.1-1.4-0.2-2s-0.4-1.1-0.7-1.5s-0.7-0.7-1.3-1
		c-0.5-0.2-1.2-0.3-2-0.3h-2.2v9H67.2z"/>
	<path d="M75.9,183.8v-2.3h2.8v2.3H75.9z M78.7,185.4v10.3h-2.8v-10.3H78.7z"/>
	<path d="M83.3,193.2c0.1,0.2,0.3,0.4,0.5,0.5c0.2,0.1,0.4,0.2,0.7,0.3c0.3,0.1,0.5,0.1,0.8,0.1c0.2,0,0.4,0,0.6-0.1
		c0.2,0,0.4-0.1,0.6-0.2c0.2-0.1,0.3-0.2,0.4-0.4c0.1-0.2,0.2-0.4,0.2-0.6c0-0.4-0.3-0.7-0.9-1s-1.4-0.4-2.4-0.6
		c-0.4-0.1-0.8-0.2-1.2-0.3c-0.4-0.1-0.7-0.3-1-0.5c-0.3-0.2-0.6-0.5-0.7-0.8c-0.2-0.3-0.3-0.7-0.3-1.1c0-0.7,0.1-1.2,0.4-1.6
		s0.6-0.8,1-1c0.4-0.2,0.9-0.4,1.4-0.5c0.5-0.1,1.1-0.1,1.6-0.1c0.6,0,1.1,0.1,1.6,0.2c0.5,0.1,1,0.3,1.4,0.5c0.4,0.3,0.8,0.6,1,1
		s0.4,1,0.5,1.6H87c0-0.5-0.2-0.9-0.6-1.1c-0.4-0.2-0.8-0.3-1.3-0.3c-0.2,0-0.3,0-0.5,0s-0.4,0.1-0.5,0.1c-0.2,0.1-0.3,0.2-0.4,0.3
		c-0.1,0.1-0.2,0.3-0.2,0.5c0,0.3,0.1,0.5,0.3,0.6c0.2,0.2,0.4,0.3,0.7,0.4s0.6,0.2,1,0.3s0.8,0.2,1.2,0.3c0.4,0.1,0.8,0.2,1.2,0.3
		s0.7,0.3,1,0.5c0.3,0.2,0.6,0.5,0.7,0.8s0.3,0.7,0.3,1.2c0,0.7-0.1,1.2-0.4,1.7s-0.6,0.8-1.1,1.1c-0.4,0.3-0.9,0.5-1.5,0.6
		c-0.6,0.1-1.1,0.2-1.7,0.2c-0.6,0-1.2-0.1-1.8-0.2s-1.1-0.3-1.5-0.6c-0.4-0.3-0.8-0.6-1.1-1.1s-0.4-1-0.5-1.7h2.7
		C83.1,192.7,83.2,192.9,83.3,193.2z"/>
	<path d="M91.6,188.6c0-0.7,0.2-1.2,0.5-1.7s0.7-0.8,1.1-1.1s1-0.5,1.5-0.6c0.6-0.1,1.1-0.2,1.7-0.2c0.5,0,1,0,1.6,0.1
		c0.5,0.1,1,0.2,1.5,0.4c0.4,0.2,0.8,0.5,1.1,0.9c0.3,0.4,0.4,0.9,0.4,1.5v5.4c0,0.5,0,0.9,0.1,1.3c0.1,0.4,0.1,0.7,0.3,1h-2.9
		c-0.1-0.2-0.1-0.3-0.1-0.5c0-0.2-0.1-0.3-0.1-0.5c-0.5,0.5-1,0.8-1.6,1s-1.2,0.3-1.9,0.3c-0.5,0-1-0.1-1.4-0.2s-0.8-0.3-1.1-0.6
		c-0.3-0.3-0.6-0.6-0.8-1s-0.3-0.8-0.3-1.4c0-0.6,0.1-1.1,0.3-1.5c0.2-0.4,0.5-0.7,0.8-0.9c0.3-0.2,0.7-0.4,1.1-0.5s0.8-0.2,1.3-0.3
		c0.4-0.1,0.8-0.1,1.3-0.2c0.4,0,0.8-0.1,1.1-0.2c0.3-0.1,0.6-0.2,0.8-0.4s0.3-0.4,0.3-0.7c0-0.3,0-0.6-0.1-0.7
		c-0.1-0.2-0.2-0.3-0.4-0.4c-0.2-0.1-0.4-0.2-0.6-0.2c-0.2,0-0.5-0.1-0.7-0.1c-0.6,0-1,0.1-1.3,0.4c-0.3,0.2-0.5,0.6-0.6,1.2H91.6z
		 M98.1,190.7c-0.1,0.1-0.3,0.2-0.4,0.2c-0.2,0.1-0.4,0.1-0.6,0.1c-0.2,0-0.4,0.1-0.7,0.1c-0.2,0-0.5,0.1-0.7,0.1
		c-0.2,0-0.4,0.1-0.6,0.2c-0.2,0.1-0.4,0.2-0.5,0.3s-0.3,0.3-0.4,0.4c-0.1,0.2-0.1,0.4-0.1,0.7c0,0.3,0,0.5,0.1,0.6
		c0.1,0.2,0.2,0.3,0.4,0.4s0.3,0.2,0.6,0.2c0.2,0,0.4,0.1,0.7,0.1c0.6,0,1-0.1,1.3-0.3c0.3-0.2,0.5-0.4,0.7-0.7
		c0.1-0.3,0.2-0.5,0.3-0.8s0-0.5,0-0.6V190.7z"/>
	<path d="M106,181.4v5.2h0c0.3-0.5,0.8-0.9,1.4-1.2c0.6-0.2,1.2-0.4,1.8-0.4c0.5,0,1,0.1,1.5,0.3s1,0.5,1.4,1c0.4,0.4,0.7,1,1,1.7
		c0.3,0.7,0.4,1.5,0.4,2.4c0,0.9-0.1,1.8-0.4,2.5c-0.3,0.7-0.6,1.2-1,1.7c-0.4,0.4-0.9,0.8-1.4,1c-0.5,0.2-1,0.3-1.5,0.3
		c-0.8,0-1.4-0.1-2-0.4c-0.6-0.2-1.1-0.6-1.4-1.2h0v1.3h-2.7v-14.3H106z M110.6,189.3c-0.1-0.4-0.2-0.8-0.4-1.1s-0.5-0.5-0.8-0.7
		s-0.7-0.3-1.1-0.3c-0.4,0-0.8,0.1-1.1,0.3s-0.6,0.4-0.8,0.7c-0.2,0.3-0.3,0.7-0.4,1.1c-0.1,0.4-0.1,0.8-0.1,1.3
		c0,0.4,0,0.8,0.1,1.2c0.1,0.4,0.2,0.8,0.4,1.1c0.2,0.3,0.5,0.5,0.8,0.7c0.3,0.2,0.7,0.3,1.1,0.3c0.4,0,0.8-0.1,1.1-0.3
		c0.3-0.2,0.5-0.4,0.8-0.7s0.3-0.7,0.4-1.1c0.1-0.4,0.1-0.8,0.1-1.2C110.7,190.1,110.7,189.7,110.6,189.3z"/>
	<path d="M115.5,183.8v-2.3h2.8v2.3H115.5z M118.3,185.4v10.3h-2.8v-10.3H118.3z"/>
	<path d="M123.5,181.4v14.3h-2.8v-14.3H123.5z"/>
	<path d="M125.8,183.8v-2.3h2.8v2.3H125.8z M128.6,185.4v10.3h-2.8v-10.3H128.6z"/>
	<path d="M136.5,185.4v1.9h-2.1v5.1c0,0.5,0.1,0.8,0.2,1c0.2,0.2,0.5,0.2,1,0.2c0.2,0,0.3,0,0.5,0c0.1,0,0.3,0,0.4-0.1v2.2
		c-0.2,0-0.5,0.1-0.8,0.1c-0.3,0-0.6,0-0.9,0c-0.4,0-0.9,0-1.2-0.1c-0.4-0.1-0.7-0.2-1-0.3c-0.3-0.2-0.5-0.4-0.7-0.7
		c-0.2-0.3-0.3-0.7-0.3-1.3v-6.1h-1.7v-1.9h1.7v-3.1h2.8v3.1H136.5z"/>
	<path d="M141.7,198.8c-0.5,0.4-1.3,0.5-2.3,0.5c-0.3,0-0.6,0-0.9,0c-0.3,0-0.6,0-0.9-0.1v-2.3c0.3,0,0.5,0.1,0.8,0.1s0.6,0,0.8,0
		c0.4,0,0.7-0.2,0.8-0.4s0.3-0.5,0.3-0.8c0-0.2,0-0.4-0.1-0.6l-3.6-9.7h3l2.3,7.1h0l2.3-7.1h2.9L143,197
		C142.7,197.8,142.3,198.4,141.7,198.8z"/>
</g>
<g>
	<path d="M63.6,210.3c0-0.7,0.2-1.2,0.5-1.7c0.3-0.4,0.7-0.8,1.1-1.1c0.5-0.3,1-0.5,1.5-0.6c0.6-0.1,1.1-0.2,1.7-0.2
		c0.5,0,1,0,1.6,0.1s1,0.2,1.5,0.4c0.4,0.2,0.8,0.5,1.1,0.9c0.3,0.4,0.4,0.9,0.4,1.5v5.4c0,0.5,0,0.9,0.1,1.3c0.1,0.4,0.1,0.7,0.3,1
		h-2.9c-0.1-0.2-0.1-0.3-0.1-0.5c0-0.2-0.1-0.3-0.1-0.5c-0.5,0.5-1,0.8-1.6,1s-1.2,0.3-1.9,0.3c-0.5,0-1-0.1-1.4-0.2
		s-0.8-0.3-1.1-0.6c-0.3-0.3-0.6-0.6-0.8-1c-0.2-0.4-0.3-0.8-0.3-1.4c0-0.6,0.1-1.1,0.3-1.5c0.2-0.4,0.5-0.7,0.8-0.9
		c0.3-0.2,0.7-0.4,1.1-0.5s0.8-0.2,1.3-0.3c0.4-0.1,0.8-0.1,1.3-0.2c0.4,0,0.8-0.1,1.1-0.2c0.3-0.1,0.6-0.2,0.8-0.4
		c0.2-0.2,0.3-0.4,0.3-0.7c0-0.3,0-0.6-0.1-0.7c-0.1-0.2-0.2-0.3-0.4-0.4c-0.2-0.1-0.4-0.2-0.6-0.2c-0.2,0-0.5-0.1-0.7-0.1
		c-0.6,0-1,0.1-1.3,0.4c-0.3,0.2-0.5,0.6-0.6,1.2H63.6z M70.1,212.4c-0.1,0.1-0.3,0.2-0.5,0.2c-0.2,0.1-0.4,0.1-0.6,0.1
		c-0.2,0-0.4,0.1-0.7,0.1c-0.2,0-0.5,0.1-0.7,0.1c-0.2,0-0.4,0.1-0.6,0.2s-0.4,0.2-0.5,0.3c-0.2,0.1-0.3,0.3-0.4,0.4
		c-0.1,0.2-0.1,0.4-0.1,0.7c0,0.3,0,0.5,0.1,0.6c0.1,0.2,0.2,0.3,0.4,0.4s0.3,0.2,0.6,0.2c0.2,0,0.4,0.1,0.7,0.1
		c0.6,0,1-0.1,1.3-0.3c0.3-0.2,0.5-0.4,0.7-0.7c0.1-0.3,0.2-0.5,0.3-0.8c0-0.3,0-0.5,0-0.6V212.4z"/>
	<path d="M77.9,207.1v1.4h0.1c0.4-0.6,0.8-1,1.4-1.3c0.6-0.3,1.2-0.4,1.8-0.4c0.8,0,1.4,0.1,1.9,0.3c0.5,0.2,0.9,0.5,1.1,0.9
		c0.3,0.4,0.5,0.8,0.6,1.3c0.1,0.5,0.2,1.1,0.2,1.8v6.4H82v-5.8c0-0.9-0.1-1.5-0.4-1.9s-0.7-0.6-1.4-0.6c-0.8,0-1.3,0.2-1.7,0.7
		c-0.3,0.5-0.5,1.2-0.5,2.3v5.4h-2.8v-10.3H77.9z"/>
	<path d="M94.4,216.1c-0.3,0.6-0.8,1-1.3,1.2s-1.2,0.4-1.8,0.4c-0.8,0-1.5-0.1-2-0.4c-0.6-0.3-1.1-0.7-1.5-1.2
		c-0.4-0.5-0.7-1.1-0.9-1.8c-0.2-0.7-0.3-1.4-0.3-2.1c0-0.7,0.1-1.4,0.3-2c0.2-0.6,0.5-1.2,0.9-1.7c0.4-0.5,0.9-0.9,1.4-1.2
		c0.6-0.3,1.2-0.5,2-0.5c0.6,0,1.2,0.1,1.8,0.4c0.6,0.3,1,0.6,1.3,1.1h0v-5.2h2.8v14.3h-2.7L94.4,216.1L94.4,216.1z M94.3,211
		c-0.1-0.4-0.2-0.7-0.4-1c-0.2-0.3-0.4-0.5-0.8-0.7c-0.3-0.2-0.7-0.3-1.2-0.3c-0.5,0-0.9,0.1-1.2,0.3c-0.3,0.2-0.6,0.4-0.8,0.7
		c-0.2,0.3-0.3,0.7-0.4,1c-0.1,0.4-0.1,0.8-0.1,1.2c0,0.4,0,0.8,0.1,1.2c0.1,0.4,0.2,0.8,0.5,1.1c0.2,0.3,0.5,0.6,0.8,0.8
		s0.7,0.3,1.1,0.3c0.5,0,0.9-0.1,1.2-0.3c0.3-0.2,0.6-0.4,0.8-0.8c0.2-0.3,0.3-0.7,0.4-1.1s0.1-0.8,0.1-1.2
		C94.4,211.8,94.3,211.4,94.3,211z"/>
</g>
<g>
	<path d="M18.7,235.6c0.2,0.3,0.4,0.6,0.7,0.8c0.3,0.2,0.6,0.4,1,0.5s0.8,0.1,1.2,0.1c0.3,0,0.6,0,0.9-0.1c0.3,0,0.6-0.1,0.9-0.3
		s0.5-0.3,0.7-0.6c0.2-0.2,0.3-0.5,0.3-0.9c0-0.4-0.1-0.7-0.4-0.9c-0.2-0.2-0.6-0.4-1-0.6s-0.9-0.3-1.4-0.4c-0.5-0.1-1-0.3-1.5-0.4
		c-0.5-0.1-1.1-0.3-1.6-0.5c-0.5-0.2-1-0.4-1.4-0.8c-0.4-0.3-0.7-0.7-1-1.1c-0.2-0.5-0.4-1-0.4-1.7c0-0.7,0.2-1.4,0.5-1.9
		c0.3-0.5,0.7-1,1.2-1.4c0.5-0.4,1.1-0.6,1.7-0.8c0.6-0.2,1.3-0.3,1.9-0.3c0.7,0,1.5,0.1,2.2,0.2c0.7,0.2,1.3,0.4,1.8,0.8
		c0.5,0.4,1,0.9,1.3,1.4s0.5,1.3,0.5,2.1h-3c0-0.4-0.1-0.8-0.3-1.1c-0.2-0.3-0.4-0.5-0.6-0.7c-0.3-0.2-0.5-0.3-0.9-0.3
		c-0.3-0.1-0.7-0.1-1.1-0.1c-0.3,0-0.5,0-0.8,0.1c-0.3,0.1-0.5,0.1-0.7,0.3c-0.2,0.1-0.4,0.3-0.5,0.5c-0.1,0.2-0.2,0.5-0.2,0.8
		c0,0.3,0.1,0.5,0.2,0.7c0.1,0.2,0.3,0.3,0.6,0.5c0.3,0.1,0.7,0.3,1.3,0.4c0.6,0.1,1.3,0.3,2.2,0.6c0.3,0.1,0.6,0.1,1.1,0.3
		c0.5,0.1,0.9,0.4,1.4,0.7s0.9,0.7,1.2,1.2c0.3,0.5,0.5,1.2,0.5,2c0,0.7-0.1,1.3-0.4,1.8c-0.3,0.6-0.6,1-1.1,1.4
		c-0.5,0.4-1.1,0.7-1.9,1c-0.7,0.2-1.6,0.3-2.6,0.3c-0.8,0-1.6-0.1-2.3-0.3c-0.7-0.2-1.4-0.5-2-0.9c-0.6-0.4-1-0.9-1.4-1.6
		c-0.3-0.6-0.5-1.4-0.5-2.3h3C18.4,234.9,18.5,235.3,18.7,235.6z"/>
	<path d="M35.9,239.1v-1.4h-0.1c-0.4,0.6-0.8,1-1.4,1.3c-0.6,0.3-1.2,0.4-1.8,0.4c-0.8,0-1.4-0.1-1.9-0.3c-0.5-0.2-0.9-0.5-1.2-0.9
		c-0.3-0.4-0.5-0.8-0.6-1.3c-0.1-0.5-0.2-1.1-0.2-1.8v-6.4h2.8v5.8c0,0.9,0.1,1.5,0.4,1.9s0.7,0.6,1.4,0.6c0.8,0,1.3-0.2,1.7-0.7
		s0.5-1.2,0.5-2.3v-5.4h2.8v10.3H35.9z"/>
	<path d="M43.5,228.8v1.3h0c0.3-0.6,0.8-1,1.3-1.2c0.5-0.3,1.1-0.4,1.8-0.4c0.8,0,1.5,0.2,2.1,0.5c0.6,0.3,1.1,0.7,1.5,1.2
		s0.7,1.1,0.9,1.8s0.3,1.4,0.3,2.1c0,0.7-0.1,1.4-0.3,2s-0.5,1.2-0.8,1.7c-0.4,0.5-0.9,0.9-1.4,1.2c-0.6,0.3-1.2,0.4-2,0.4
		c-0.6,0-1.2-0.1-1.8-0.4c-0.5-0.3-1-0.6-1.3-1.1h0v4.9h-2.8v-14H43.5z M47.2,237c0.3-0.2,0.6-0.4,0.8-0.7c0.2-0.3,0.3-0.6,0.4-1
		s0.1-0.8,0.1-1.2c0-0.4,0-0.8-0.1-1.2s-0.2-0.8-0.4-1.1c-0.2-0.3-0.5-0.6-0.8-0.8c-0.3-0.2-0.7-0.3-1.2-0.3c-0.5,0-0.9,0.1-1.2,0.3
		s-0.6,0.4-0.8,0.8c-0.2,0.3-0.3,0.7-0.4,1.1s-0.1,0.8-0.1,1.2c0,0.4,0,0.8,0.1,1.2c0.1,0.4,0.2,0.8,0.4,1c0.2,0.3,0.4,0.5,0.8,0.7
		c0.3,0.2,0.7,0.3,1.2,0.3C46.5,237.3,46.9,237.2,47.2,237z"/>
	<path d="M55.7,228.8v1.3h0c0.3-0.6,0.8-1,1.3-1.2c0.5-0.3,1.1-0.4,1.8-0.4c0.8,0,1.5,0.2,2.1,0.5c0.6,0.3,1.1,0.7,1.5,1.2
		s0.7,1.1,0.9,1.8s0.3,1.4,0.3,2.1c0,0.7-0.1,1.4-0.3,2s-0.5,1.2-0.8,1.7c-0.4,0.5-0.9,0.9-1.4,1.2c-0.6,0.3-1.2,0.4-2,0.4
		c-0.6,0-1.2-0.1-1.8-0.4c-0.5-0.3-1-0.6-1.3-1.1h0v4.9H53v-14H55.7z M59.4,237c0.3-0.2,0.6-0.4,0.8-0.7c0.2-0.3,0.3-0.6,0.4-1
		s0.1-0.8,0.1-1.2c0-0.4,0-0.8-0.1-1.2s-0.2-0.8-0.4-1.1c-0.2-0.3-0.5-0.6-0.8-0.8c-0.3-0.2-0.7-0.3-1.2-0.3c-0.5,0-0.9,0.1-1.2,0.3
		s-0.6,0.4-0.8,0.8c-0.2,0.3-0.3,0.7-0.4,1.1s-0.1,0.8-0.1,1.2c0,0.4,0,0.8,0.1,1.2c0.1,0.4,0.2,0.8,0.4,1c0.2,0.3,0.4,0.5,0.8,0.7
		c0.3,0.2,0.7,0.3,1.2,0.3C58.7,237.3,59.1,237.2,59.4,237z"/>
	<path d="M68.2,224.8v14.3h-2.8v-14.3H68.2z"/>
	<path d="M73.4,236.6c0.4,0.4,1,0.6,1.8,0.6c0.6,0,1.1-0.1,1.5-0.4c0.4-0.3,0.7-0.6,0.8-0.9H80c-0.4,1.2-1,2.1-1.8,2.7
		c-0.8,0.5-1.8,0.8-3,0.8c-0.8,0-1.5-0.1-2.2-0.4c-0.7-0.3-1.2-0.6-1.7-1.1c-0.5-0.5-0.8-1.1-1-1.7c-0.2-0.7-0.4-1.4-0.4-2.2
		c0-0.8,0.1-1.5,0.4-2.2c0.3-0.7,0.6-1.2,1.1-1.7c0.5-0.5,1-0.9,1.7-1.2c0.6-0.3,1.4-0.4,2.2-0.4c0.9,0,1.6,0.2,2.3,0.5
		c0.7,0.3,1.2,0.8,1.6,1.4c0.4,0.6,0.7,1.2,0.9,2s0.3,1.5,0.2,2.3h-7.5C72.8,235.6,73,236.2,73.4,236.6z M76.7,231.2
		c-0.3-0.4-0.9-0.6-1.5-0.6c-0.5,0-0.8,0.1-1.1,0.2c-0.3,0.2-0.5,0.3-0.7,0.6c-0.2,0.2-0.3,0.5-0.4,0.7c-0.1,0.3-0.1,0.5-0.1,0.7
		h4.6C77.2,232.1,77,231.6,76.7,231.2z"/>
	<path d="M84.6,228.8v1.4h0c0.4-0.5,0.8-0.9,1.4-1.2c0.5-0.3,1.1-0.4,1.8-0.4c0.7,0,1.2,0.1,1.8,0.4c0.5,0.3,1,0.7,1.2,1.3
		c0.3-0.5,0.7-0.9,1.2-1.2c0.5-0.3,1.2-0.5,1.9-0.5c0.5,0,1.1,0.1,1.5,0.2s0.9,0.3,1.2,0.6c0.3,0.3,0.6,0.7,0.8,1.1s0.3,1,0.3,1.7
		v6.9h-2.8v-5.9c0-0.3,0-0.7,0-1c0-0.3-0.1-0.6-0.2-0.8c-0.1-0.2-0.3-0.4-0.5-0.5c-0.2-0.1-0.5-0.2-1-0.2c-0.4,0-0.7,0.1-1,0.2
		c-0.2,0.2-0.4,0.4-0.6,0.6s-0.2,0.5-0.3,0.8c0,0.3-0.1,0.6-0.1,1v5.8h-2.8v-5.8c0-0.3,0-0.6,0-0.9c0-0.3-0.1-0.6-0.2-0.8
		c-0.1-0.3-0.3-0.5-0.5-0.6s-0.6-0.2-1-0.2c-0.1,0-0.3,0-0.5,0.1c-0.2,0.1-0.4,0.2-0.6,0.3c-0.2,0.2-0.4,0.4-0.5,0.7
		c-0.1,0.3-0.2,0.7-0.2,1.2v6H82v-10.3H84.6z"/>
	<path d="M103,236.6c0.4,0.4,1,0.6,1.8,0.6c0.6,0,1.1-0.1,1.5-0.4c0.4-0.3,0.7-0.6,0.8-0.9h2.5c-0.4,1.2-1,2.1-1.8,2.7
		c-0.8,0.5-1.8,0.8-3,0.8c-0.8,0-1.5-0.1-2.2-0.4c-0.7-0.3-1.2-0.6-1.7-1.1c-0.5-0.5-0.8-1.1-1-1.7c-0.2-0.7-0.4-1.4-0.4-2.2
		c0-0.8,0.1-1.5,0.4-2.2s0.6-1.2,1.1-1.7s1-0.9,1.7-1.2c0.6-0.3,1.4-0.4,2.2-0.4c0.9,0,1.6,0.2,2.3,0.5c0.7,0.3,1.2,0.8,1.6,1.4
		c0.4,0.6,0.7,1.2,0.9,2s0.3,1.5,0.2,2.3h-7.5C102.4,235.6,102.6,236.2,103,236.6z M106.3,231.2c-0.3-0.4-0.9-0.6-1.5-0.6
		c-0.5,0-0.8,0.1-1.1,0.2c-0.3,0.2-0.5,0.3-0.7,0.6c-0.2,0.2-0.3,0.5-0.4,0.7c-0.1,0.3-0.1,0.5-0.1,0.7h4.6
		C106.8,232.1,106.6,231.6,106.3,231.2z"/>
	<path d="M114.2,228.8v1.4h0.1c0.4-0.6,0.8-1,1.4-1.3c0.6-0.3,1.2-0.4,1.8-0.4c0.8,0,1.4,0.1,1.9,0.3c0.5,0.2,0.9,0.5,1.1,0.9
		c0.3,0.4,0.5,0.8,0.6,1.3c0.1,0.5,0.2,1.1,0.2,1.8v6.4h-2.8v-5.8c0-0.9-0.1-1.5-0.4-1.9s-0.7-0.6-1.4-0.6c-0.8,0-1.3,0.2-1.7,0.7
		c-0.3,0.5-0.5,1.2-0.5,2.3v5.4h-2.8v-10.3H114.2z"/>
	<path d="M129,228.8v1.9h-2.1v5.1c0,0.5,0.1,0.8,0.2,1c0.2,0.2,0.5,0.2,1,0.2c0.2,0,0.3,0,0.5,0c0.1,0,0.3,0,0.4-0.1v2.2
		c-0.2,0-0.5,0.1-0.8,0.1c-0.3,0-0.6,0-0.9,0c-0.4,0-0.9,0-1.2-0.1c-0.4-0.1-0.7-0.2-1-0.3c-0.3-0.2-0.5-0.4-0.7-0.7
		c-0.2-0.3-0.3-0.7-0.3-1.3v-6.1h-1.7v-1.9h1.7v-3.1h2.8v3.1H129z"/>
	<path d="M130.3,232c0-0.7,0.2-1.2,0.5-1.7s0.7-0.8,1.1-1.1s1-0.5,1.5-0.6c0.6-0.1,1.1-0.2,1.7-0.2c0.5,0,1,0,1.6,0.1
		c0.5,0.1,1,0.2,1.5,0.4c0.4,0.2,0.8,0.5,1.1,0.9c0.3,0.4,0.4,0.9,0.4,1.5v5.4c0,0.5,0,0.9,0.1,1.3c0.1,0.4,0.1,0.7,0.3,1h-2.9
		c-0.1-0.2-0.1-0.3-0.1-0.5c0-0.2-0.1-0.3-0.1-0.5c-0.5,0.5-1,0.8-1.6,1s-1.2,0.3-1.9,0.3c-0.5,0-1-0.1-1.4-0.2s-0.8-0.3-1.1-0.6
		c-0.3-0.3-0.6-0.6-0.8-1s-0.3-0.8-0.3-1.4c0-0.6,0.1-1.1,0.3-1.5c0.2-0.4,0.5-0.7,0.8-0.9c0.3-0.2,0.7-0.4,1.1-0.5s0.8-0.2,1.3-0.3
		c0.4-0.1,0.8-0.1,1.3-0.2c0.4,0,0.8-0.1,1.1-0.2c0.3-0.1,0.6-0.2,0.8-0.4s0.3-0.4,0.3-0.7c0-0.3,0-0.6-0.1-0.7
		c-0.1-0.2-0.2-0.3-0.4-0.4c-0.2-0.1-0.4-0.2-0.6-0.2c-0.2,0-0.5-0.1-0.7-0.1c-0.6,0-1,0.1-1.3,0.4c-0.3,0.2-0.5,0.6-0.6,1.2H130.3z
		 M136.8,234.1c-0.1,0.1-0.3,0.2-0.4,0.2c-0.2,0.1-0.4,0.1-0.6,0.1c-0.2,0-0.4,0.1-0.7,0.1c-0.2,0-0.5,0.1-0.7,0.1
		c-0.2,0-0.4,0.1-0.6,0.2c-0.2,0.1-0.4,0.2-0.5,0.3s-0.3,0.3-0.4,0.4c-0.1,0.2-0.1,0.4-0.1,0.7c0,0.3,0,0.5,0.1,0.6
		c0.1,0.2,0.2,0.3,0.4,0.4s0.3,0.2,0.6,0.2c0.2,0,0.4,0.1,0.7,0.1c0.6,0,1-0.1,1.3-0.3c0.3-0.2,0.5-0.4,0.7-0.7
		c0.1-0.3,0.2-0.5,0.3-0.8s0-0.5,0-0.6V234.1z"/>
	<path d="M144.8,224.8v14.3h-2.8v-14.3H144.8z"/>
</g>
</svg>
