<?xml version="1.0" encoding="utf-8"?>
<!-- Generator: Adobe Illustrator 26.3.1, SVG Export Plug-In . SVG Version: 6.00 Build 0)  -->
<svg version="1.1" id="Layer_1" xmlns="http://www.w3.org/2000/svg" xmlns:xlink="http://www.w3.org/1999/xlink" x="0px" y="0px"
	 viewBox="0 0 160 600" style="enable-background:new 0 0 160 600;" xml:space="preserve">
<style type="text/css">
	.st0{fill:#339933;}
	.st1{fill:#231F20;}
</style>
<g>
	<path class="st0" d="M60.5,159.5v5.5h5.8v-5.5h3.1v14.3h-3.1v-6.2h-5.8v6.2h-3.1v-14.3H60.5z"/>
	<path class="st0" d="M71.8,166.6c0-0.7,0.2-1.2,0.5-1.7s0.7-0.8,1.1-1.1s1-0.5,1.5-0.6c0.6-0.1,1.1-0.2,1.7-0.2c0.5,0,1,0,1.6,0.1
		c0.5,0.1,1,0.2,1.5,0.4c0.4,0.2,0.8,0.5,1.1,0.9c0.3,0.4,0.4,0.9,0.4,1.5v5.4c0,0.5,0,0.9,0.1,1.3c0.1,0.4,0.1,0.7,0.3,1h-2.9
		c-0.1-0.2-0.1-0.3-0.1-0.5c0-0.2-0.1-0.3-0.1-0.5c-0.5,0.5-1,0.8-1.6,1S75.6,174,75,174c-0.5,0-1-0.1-1.4-0.2s-0.8-0.3-1.1-0.6
		c-0.3-0.3-0.6-0.6-0.8-1s-0.3-0.8-0.3-1.4c0-0.6,0.1-1.1,0.3-1.5c0.2-0.4,0.5-0.7,0.8-0.9c0.3-0.2,0.7-0.4,1.1-0.5s0.8-0.2,1.3-0.3
		c0.4-0.1,0.8-0.1,1.3-0.2c0.4,0,0.8-0.1,1.1-0.2c0.3-0.1,0.6-0.2,0.8-0.4s0.3-0.4,0.3-0.7c0-0.3,0-0.6-0.1-0.7
		c-0.1-0.2-0.2-0.3-0.4-0.4c-0.2-0.1-0.4-0.2-0.6-0.2c-0.2,0-0.5-0.1-0.7-0.1c-0.6,0-1,0.1-1.3,0.4c-0.3,0.2-0.5,0.6-0.6,1.2H71.8z
		 M78.3,168.7c-0.1,0.1-0.3,0.2-0.4,0.2c-0.2,0.1-0.4,0.1-0.6,0.1c-0.2,0-0.4,0.1-0.7,0.1c-0.2,0-0.5,0.1-0.7,0.1
		c-0.2,0-0.4,0.1-0.6,0.2c-0.2,0.1-0.4,0.2-0.5,0.3s-0.3,0.3-0.4,0.4c-0.1,0.2-0.1,0.4-0.1,0.7c0,0.3,0,0.5,0.1,0.6
		c0.1,0.2,0.2,0.3,0.4,0.4s0.3,0.2,0.6,0.2c0.2,0,0.4,0.1,0.7,0.1c0.6,0,1-0.1,1.3-0.3c0.3-0.2,0.5-0.4,0.7-0.7
		c0.1-0.3,0.2-0.5,0.3-0.8s0-0.5,0-0.6V168.7z"/>
	<path class="st0" d="M85.9,173.8l-3.5-10.3h3l2.2,7.1h0l2.2-7.1h2.8l-3.5,10.3H85.9z"/>
	<path class="st0" d="M96.8,171.3c0.4,0.4,1,0.6,1.8,0.6c0.6,0,1.1-0.1,1.5-0.4c0.4-0.3,0.7-0.6,0.8-0.9h2.5c-0.4,1.2-1,2.1-1.8,2.7
		c-0.8,0.5-1.8,0.8-3,0.8c-0.8,0-1.5-0.1-2.2-0.4c-0.7-0.3-1.2-0.6-1.7-1.1c-0.5-0.5-0.8-1.1-1-1.7c-0.2-0.7-0.4-1.4-0.4-2.2
		c0-0.8,0.1-1.5,0.4-2.2s0.6-1.2,1.1-1.7s1-0.9,1.7-1.2c0.6-0.3,1.4-0.4,2.2-0.4c0.9,0,1.6,0.2,2.3,0.5c0.7,0.3,1.2,0.8,1.6,1.4
		c0.4,0.6,0.7,1.2,0.9,2s0.3,1.5,0.2,2.3h-7.5C96.1,170.2,96.4,170.9,96.8,171.3z M100,165.9c-0.3-0.4-0.9-0.6-1.5-0.6
		c-0.5,0-0.8,0.1-1.1,0.2c-0.3,0.2-0.5,0.3-0.7,0.6c-0.2,0.2-0.3,0.5-0.4,0.7c-0.1,0.3-0.1,0.5-0.1,0.7h4.6
		C100.6,166.8,100.4,166.2,100,165.9z"/>
</g>
<g>
	<path class="st0" d="M20.1,181.2h3.5l3.3,5.6l3.3-5.6h3.5l-5.3,8.8v5.5h-3.1v-5.6L20.1,181.2z"/>
	<path class="st0" d="M34.8,185.4c0.3-0.9,0.8-1.7,1.4-2.4s1.3-1.2,2.2-1.6c0.9-0.4,1.9-0.6,2.9-0.6c1.1,0,2.1,0.2,3,0.6
		c0.9,0.4,1.6,0.9,2.2,1.6s1.1,1.5,1.4,2.4c0.3,0.9,0.5,1.9,0.5,3c0,1-0.2,2-0.5,2.9c-0.3,0.9-0.8,1.7-1.4,2.4s-1.3,1.2-2.2,1.6
		c-0.9,0.4-1.9,0.6-3,0.6c-1.1,0-2.1-0.2-2.9-0.6c-0.9-0.4-1.6-0.9-2.2-1.6s-1.1-1.5-1.4-2.4c-0.3-0.9-0.5-1.9-0.5-2.9
		C34.4,187.3,34.5,186.3,34.8,185.4z M37.7,190.1c0.1,0.6,0.4,1.1,0.7,1.5s0.7,0.8,1.2,1.1c0.5,0.3,1.1,0.4,1.8,0.4s1.3-0.1,1.8-0.4
		c0.5-0.3,0.9-0.6,1.2-1.1s0.5-1,0.7-1.5c0.1-0.6,0.2-1.1,0.2-1.8c0-0.6-0.1-1.2-0.2-1.8c-0.1-0.6-0.4-1.1-0.7-1.6
		c-0.3-0.5-0.7-0.8-1.2-1.1c-0.5-0.3-1.1-0.4-1.8-0.4s-1.3,0.1-1.8,0.4c-0.5,0.3-0.9,0.6-1.2,1.1c-0.3,0.5-0.5,1-0.7,1.6
		c-0.1,0.6-0.2,1.2-0.2,1.8C37.5,189,37.6,189.6,37.7,190.1z"/>
	<path class="st0" d="M61,194.4c-1.1,0.9-2.6,1.4-4.5,1.4c-1.9,0-3.4-0.5-4.5-1.4c-1.1-0.9-1.6-2.4-1.6-4.3v-8.9h3.1v8.9
		c0,0.4,0,0.8,0.1,1.1c0.1,0.4,0.2,0.7,0.4,1c0.2,0.3,0.5,0.5,0.9,0.7c0.4,0.2,0.9,0.3,1.5,0.3c1.1,0,1.9-0.2,2.3-0.8
		c0.4-0.5,0.6-1.3,0.6-2.4v-8.9h3.1v8.9C62.7,192,62.1,193.4,61,194.4z"/>
	<path class="st0" d="M73.1,181.2c0.6,0,1.2,0.1,1.7,0.3c0.5,0.2,1,0.5,1.3,0.9c0.4,0.4,0.6,0.8,0.8,1.2c0.2,0.5,0.3,1,0.3,1.5
		c0,0.8-0.2,1.6-0.5,2.2c-0.4,0.6-0.9,1.1-1.7,1.4v0c0.4,0.1,0.7,0.3,1,0.5s0.5,0.5,0.6,0.8c0.2,0.3,0.3,0.6,0.3,1s0.1,0.7,0.2,1.1
		c0,0.2,0,0.5,0,0.8c0,0.3,0,0.6,0.1,0.9c0,0.3,0.1,0.6,0.2,0.9s0.2,0.5,0.3,0.7h-3.1c-0.2-0.5-0.3-1-0.3-1.6c0-0.6-0.1-1.2-0.2-1.8
		c-0.1-0.7-0.3-1.3-0.7-1.6c-0.3-0.3-0.9-0.5-1.7-0.5h-3.1v5.6h-3.1v-14.3H73.1z M71.9,187.7c0.7,0,1.3-0.2,1.6-0.5
		c0.4-0.3,0.5-0.8,0.5-1.6c0-0.7-0.2-1.2-0.5-1.5c-0.4-0.3-0.9-0.5-1.6-0.5h-3.4v4H71.9z"/>
	<path class="st0" d="M94.5,185c-0.2-0.3-0.4-0.6-0.7-0.8s-0.6-0.4-1-0.5c-0.4-0.1-0.7-0.2-1.1-0.2c-0.7,0-1.3,0.1-1.8,0.4
		c-0.5,0.3-0.9,0.6-1.2,1.1c-0.3,0.5-0.5,1-0.7,1.6c-0.1,0.6-0.2,1.2-0.2,1.8c0,0.6,0.1,1.2,0.2,1.8c0.1,0.6,0.4,1.1,0.7,1.5
		c0.3,0.5,0.7,0.8,1.2,1.1c0.5,0.3,1.1,0.4,1.8,0.4c1,0,1.7-0.3,2.2-0.9c0.5-0.6,0.9-1.4,1-2.3h3c-0.1,0.9-0.3,1.7-0.6,2.4
		c-0.3,0.7-0.8,1.3-1.3,1.8c-0.5,0.5-1.2,0.9-1.9,1.2s-1.5,0.4-2.4,0.4c-1.1,0-2.1-0.2-3-0.6s-1.6-0.9-2.2-1.6
		c-0.6-0.7-1.1-1.5-1.4-2.4c-0.3-0.9-0.5-1.9-0.5-2.9c0-1.1,0.2-2.1,0.5-3c0.3-0.9,0.8-1.7,1.4-2.4c0.6-0.7,1.3-1.2,2.2-1.6
		s1.9-0.6,3-0.6c0.8,0,1.5,0.1,2.2,0.3s1.3,0.6,1.9,1c0.6,0.4,1,1,1.4,1.6c0.4,0.6,0.6,1.4,0.7,2.2h-3
		C94.8,185.6,94.7,185.3,94.5,185z"/>
	<path class="st0" d="M107.3,181.2l5.3,14.3h-3.3l-1.1-3.2H103l-1.1,3.2h-3.2l5.4-14.3H107.3z M107.5,190l-1.8-5.2h0l-1.9,5.2H107.5
		z"/>
	<path class="st0" d="M117,181.2v5.9l5.6-5.9h3.9l-5.6,5.6l6.1,8.6h-3.9l-4.3-6.4l-1.8,1.8v4.6h-3.1v-14.3H117z"/>
	<path class="st0" d="M139,181.2v2.6h-7.5v3.1h6.9v2.4h-6.9v3.5h7.7v2.6h-10.8v-14.3H139z"/>
</g>
<g>
	<path class="st1" d="M9.7,211.3c0-0.7,0.2-1.2,0.5-1.7c0.3-0.4,0.7-0.8,1.1-1.1c0.5-0.3,1-0.5,1.5-0.6c0.6-0.1,1.1-0.2,1.7-0.2
		c0.5,0,1,0,1.6,0.1s1,0.2,1.5,0.4c0.4,0.2,0.8,0.5,1.1,0.9c0.3,0.4,0.4,0.9,0.4,1.5v5.4c0,0.5,0,0.9,0.1,1.3s0.1,0.7,0.3,1h-2.9
		c-0.1-0.2-0.1-0.3-0.1-0.5c0-0.2-0.1-0.3-0.1-0.5c-0.5,0.5-1,0.8-1.6,1s-1.2,0.3-1.9,0.3c-0.5,0-1-0.1-1.4-0.2s-0.8-0.3-1.1-0.6
		c-0.3-0.3-0.6-0.6-0.8-1c-0.2-0.4-0.3-0.8-0.3-1.4c0-0.6,0.1-1.1,0.3-1.5c0.2-0.4,0.5-0.7,0.8-0.9c0.3-0.2,0.7-0.4,1.1-0.5
		s0.8-0.2,1.3-0.3c0.4-0.1,0.8-0.1,1.3-0.2c0.4,0,0.8-0.1,1.1-0.2c0.3-0.1,0.6-0.2,0.8-0.4c0.2-0.2,0.3-0.4,0.3-0.7
		c0-0.3,0-0.6-0.1-0.7c-0.1-0.2-0.2-0.3-0.4-0.4c-0.2-0.1-0.4-0.2-0.6-0.2c-0.2,0-0.5-0.1-0.7-0.1c-0.6,0-1,0.1-1.3,0.4
		c-0.3,0.2-0.5,0.6-0.6,1.2H9.7z M16.3,213.4c-0.1,0.1-0.3,0.2-0.5,0.2c-0.2,0.1-0.4,0.1-0.6,0.1c-0.2,0-0.4,0.1-0.7,0.1
		c-0.2,0-0.5,0.1-0.7,0.1c-0.2,0-0.4,0.1-0.6,0.2s-0.4,0.2-0.5,0.3c-0.2,0.1-0.3,0.3-0.4,0.4c-0.1,0.2-0.1,0.4-0.1,0.7
		c0,0.3,0,0.5,0.1,0.6c0.1,0.2,0.2,0.3,0.4,0.4s0.3,0.2,0.6,0.2c0.2,0,0.4,0.1,0.7,0.1c0.6,0,1-0.1,1.3-0.3c0.3-0.2,0.5-0.4,0.7-0.7
		c0.1-0.3,0.2-0.5,0.3-0.8c0-0.3,0-0.5,0-0.6V213.4z"/>
	<path class="st1" d="M24,208.1v1.4h0.1c0.4-0.6,0.8-1,1.4-1.3c0.6-0.3,1.2-0.4,1.8-0.4c0.8,0,1.4,0.1,1.9,0.3
		c0.5,0.2,0.9,0.5,1.1,0.9c0.3,0.4,0.5,0.8,0.6,1.3s0.2,1.1,0.2,1.8v6.4h-2.8v-5.8c0-0.9-0.1-1.5-0.4-1.9c-0.3-0.4-0.7-0.6-1.4-0.6
		c-0.8,0-1.3,0.2-1.7,0.7s-0.5,1.2-0.5,2.3v5.4h-2.8v-10.3H24z"/>
	<path class="st1" d="M40.5,217.2c-0.3,0.6-0.8,1-1.3,1.2s-1.1,0.4-1.8,0.4c-0.8,0-1.5-0.1-2-0.4c-0.6-0.3-1.1-0.7-1.5-1.2
		c-0.4-0.5-0.7-1.1-0.9-1.8c-0.2-0.7-0.3-1.4-0.3-2.1c0-0.7,0.1-1.4,0.3-2c0.2-0.6,0.5-1.2,0.9-1.7c0.4-0.5,0.9-0.9,1.4-1.2
		c0.6-0.3,1.2-0.5,2-0.5c0.6,0,1.2,0.1,1.8,0.4c0.6,0.3,1,0.6,1.3,1.1h0v-5.2h2.8v14.3h-2.7L40.5,217.2L40.5,217.2z M40.4,212
		c-0.1-0.4-0.2-0.7-0.4-1c-0.2-0.3-0.4-0.5-0.8-0.7c-0.3-0.2-0.7-0.3-1.2-0.3s-0.9,0.1-1.2,0.3c-0.3,0.2-0.6,0.4-0.8,0.7
		s-0.3,0.7-0.4,1c-0.1,0.4-0.1,0.8-0.1,1.2c0,0.4,0,0.8,0.1,1.2c0.1,0.4,0.2,0.8,0.4,1.1c0.2,0.3,0.5,0.6,0.8,0.8
		c0.3,0.2,0.7,0.3,1.1,0.3c0.5,0,0.9-0.1,1.2-0.3c0.3-0.2,0.6-0.4,0.8-0.8c0.2-0.3,0.3-0.7,0.4-1.1c0.1-0.4,0.1-0.8,0.1-1.2
		C40.5,212.8,40.5,212.4,40.4,212z"/>
	<path class="st1" d="M54.4,204.2v5.9l5.6-5.9h3.9l-5.6,5.6l6.1,8.6h-3.9l-4.3-6.4l-1.8,1.8v4.6h-3.1v-14.3H54.4z"/>
	<path class="st1" d="M76.4,204.2v2.6h-7.5v3.1h6.9v2.4h-6.9v3.5h7.7v2.6H65.7v-14.3H76.4z"/>
	<path class="st1" d="M89.4,204.2v2.6h-7.5v3.1h6.9v2.4h-6.9v3.5h7.7v2.6H78.7v-14.3H89.4z"/>
	<path class="st1" d="M98.1,204.2c0.9,0,1.7,0.1,2.3,0.4c0.6,0.3,1.1,0.6,1.5,1s0.7,0.9,0.9,1.5c0.2,0.5,0.3,1.1,0.3,1.7
		c0,0.6-0.1,1.1-0.3,1.7c-0.2,0.6-0.5,1-0.9,1.5s-0.9,0.8-1.5,1c-0.6,0.3-1.4,0.4-2.3,0.4h-3.3v5.1h-3.1v-14.3H98.1z M97.2,210.9
		c0.4,0,0.7,0,1-0.1c0.3-0.1,0.6-0.2,0.9-0.3c0.3-0.2,0.5-0.4,0.6-0.6c0.2-0.3,0.2-0.6,0.2-1.1c0-0.5-0.1-0.8-0.2-1.1
		c-0.2-0.3-0.4-0.5-0.6-0.7c-0.3-0.2-0.5-0.3-0.9-0.3s-0.7-0.1-1-0.1h-2.4v4.3H97.2z"/>
	<path class="st1" d="M114.1,221.6c-0.5,0.4-1.3,0.5-2.3,0.5c-0.3,0-0.6,0-0.9,0c-0.3,0-0.6,0-0.9-0.1v-2.3c0.3,0,0.5,0.1,0.8,0.1
		s0.6,0,0.8,0c0.4,0,0.7-0.2,0.8-0.4s0.3-0.5,0.3-0.8c0-0.2,0-0.4-0.1-0.6l-3.6-9.7h3l2.3,7.1h0l2.3-7.1h2.9l-4.3,11.6
		C115,220.6,114.6,221.2,114.1,221.6z"/>
	<path class="st1" d="M120.7,211.1c0.3-0.7,0.6-1.2,1.1-1.7s1-0.8,1.7-1.1c0.7-0.3,1.4-0.4,2.2-0.4s1.6,0.1,2.2,0.4
		c0.7,0.3,1.2,0.6,1.7,1.1s0.8,1,1.1,1.7c0.3,0.7,0.4,1.4,0.4,2.2c0,0.8-0.1,1.6-0.4,2.2c-0.3,0.7-0.6,1.2-1.1,1.7
		c-0.5,0.5-1,0.8-1.7,1.1c-0.7,0.3-1.4,0.4-2.2,0.4s-1.5-0.1-2.2-0.4c-0.7-0.3-1.2-0.6-1.7-1.1c-0.5-0.5-0.8-1-1.1-1.7
		c-0.3-0.7-0.4-1.4-0.4-2.2C120.3,212.5,120.4,211.7,120.7,211.1z M123.3,214.5c0.1,0.4,0.2,0.7,0.4,1.1c0.2,0.3,0.5,0.6,0.8,0.8
		c0.3,0.2,0.7,0.3,1.2,0.3c0.5,0,0.9-0.1,1.2-0.3c0.3-0.2,0.6-0.4,0.8-0.8c0.2-0.3,0.3-0.7,0.4-1.1c0.1-0.4,0.1-0.8,0.1-1.2
		c0-0.4,0-0.8-0.1-1.2s-0.2-0.8-0.4-1.1s-0.5-0.6-0.8-0.8c-0.3-0.2-0.7-0.3-1.2-0.3c-0.5,0-0.9,0.1-1.2,0.3
		c-0.3,0.2-0.6,0.4-0.8,0.8s-0.3,0.7-0.4,1.1s-0.1,0.8-0.1,1.2C123.1,213.7,123.2,214.1,123.3,214.5z"/>
	<path class="st1" d="M139.8,218.5V217h-0.1c-0.4,0.6-0.8,1-1.4,1.3s-1.2,0.4-1.8,0.4c-0.8,0-1.4-0.1-1.9-0.3
		c-0.5-0.2-0.9-0.5-1.2-0.9c-0.3-0.4-0.5-0.8-0.6-1.3c-0.1-0.5-0.2-1.1-0.2-1.8v-6.4h2.8v5.8c0,0.9,0.1,1.5,0.4,1.9
		c0.3,0.4,0.7,0.6,1.4,0.6c0.8,0,1.3-0.2,1.7-0.7s0.5-1.2,0.5-2.3v-5.4h2.8v10.3H139.8z"/>
	<path class="st1" d="M147.4,208.1v1.9h0c0.1-0.3,0.3-0.6,0.5-0.9c0.2-0.3,0.5-0.5,0.8-0.7c0.3-0.2,0.6-0.3,0.9-0.5
		c0.3-0.1,0.7-0.2,1-0.2c0.2,0,0.4,0,0.6,0.1v2.6c-0.1,0-0.3-0.1-0.5-0.1s-0.4,0-0.5,0c-0.5,0-1,0.1-1.3,0.3
		c-0.4,0.2-0.7,0.4-0.9,0.7c-0.2,0.3-0.4,0.6-0.5,1c-0.1,0.4-0.1,0.8-0.1,1.3v4.7h-2.8v-10.3H147.4z"/>
</g>
<g>
	<path class="st1" d="M17.4,229.5v-2.3h2.8v2.3H17.4z M20.3,231.1v10.3h-2.8v-10.3H20.3z"/>
	<path class="st1" d="M25.2,231.1v1.4h0.1c0.4-0.6,0.8-1,1.4-1.3c0.6-0.3,1.2-0.4,1.8-0.4c0.8,0,1.4,0.1,1.9,0.3
		c0.5,0.2,0.9,0.5,1.1,0.9c0.3,0.4,0.5,0.8,0.6,1.3s0.2,1.1,0.2,1.8v6.4h-2.8v-5.8c0-0.9-0.1-1.5-0.4-1.9c-0.3-0.4-0.7-0.6-1.4-0.6
		c-0.8,0-1.3,0.2-1.7,0.7s-0.5,1.2-0.5,2.3v5.4h-2.8v-10.3H25.2z"/>
	<path class="st1" d="M39.3,233c-0.5,0-0.8,0.1-1.1,0.3c-0.3,0.2-0.6,0.5-0.8,0.8c-0.2,0.3-0.3,0.7-0.4,1.1
		c-0.1,0.4-0.1,0.8-0.1,1.2c0,0.4,0,0.8,0.1,1.1c0.1,0.4,0.2,0.7,0.4,1c0.2,0.3,0.4,0.6,0.7,0.8c0.3,0.2,0.7,0.3,1.1,0.3
		c0.7,0,1.2-0.2,1.6-0.6c0.4-0.4,0.6-0.9,0.7-1.5h2.7c-0.2,1.4-0.7,2.4-1.6,3.1c-0.9,0.7-2,1.1-3.4,1.1c-0.8,0-1.5-0.1-2.1-0.4
		c-0.6-0.3-1.2-0.6-1.6-1.1c-0.5-0.5-0.8-1-1.1-1.7c-0.3-0.6-0.4-1.4-0.4-2.1c0-0.8,0.1-1.5,0.4-2.2c0.2-0.7,0.6-1.3,1-1.8
		c0.5-0.5,1-0.9,1.7-1.2c0.7-0.3,1.4-0.4,2.2-0.4c0.6,0,1.2,0.1,1.8,0.2c0.6,0.2,1.1,0.4,1.5,0.7c0.4,0.3,0.8,0.7,1.1,1.2
		c0.3,0.5,0.4,1.1,0.5,1.7h-2.8C41.2,233.6,40.5,233,39.3,233z"/>
	<path class="st1" d="M45.9,229.5v-2.3h2.8v2.3H45.9z M48.8,231.1v10.3h-2.8v-10.3H48.8z"/>
	<path class="st1" d="M53.4,238.9c0.1,0.2,0.3,0.4,0.5,0.5c0.2,0.1,0.4,0.2,0.7,0.3c0.3,0.1,0.5,0.1,0.8,0.1c0.2,0,0.4,0,0.6-0.1
		c0.2,0,0.4-0.1,0.6-0.2c0.2-0.1,0.3-0.2,0.5-0.4c0.1-0.2,0.2-0.4,0.2-0.6c0-0.4-0.3-0.7-0.8-1c-0.6-0.2-1.4-0.4-2.4-0.6
		c-0.4-0.1-0.8-0.2-1.2-0.3c-0.4-0.1-0.7-0.3-1.1-0.5c-0.3-0.2-0.6-0.5-0.7-0.8c-0.2-0.3-0.3-0.7-0.3-1.1c0-0.7,0.1-1.2,0.4-1.6
		c0.3-0.4,0.6-0.8,1-1c0.4-0.2,0.9-0.4,1.4-0.5c0.5-0.1,1.1-0.1,1.6-0.1s1.1,0.1,1.6,0.2c0.5,0.1,1,0.3,1.4,0.5s0.8,0.6,1,1
		c0.3,0.4,0.4,1,0.5,1.6h-2.7c0-0.5-0.2-0.9-0.6-1.1c-0.4-0.2-0.8-0.3-1.3-0.3c-0.2,0-0.3,0-0.5,0c-0.2,0-0.4,0.1-0.5,0.1
		c-0.2,0.1-0.3,0.2-0.4,0.3c-0.1,0.1-0.2,0.3-0.2,0.5c0,0.3,0.1,0.5,0.3,0.6c0.2,0.2,0.4,0.3,0.7,0.4c0.3,0.1,0.6,0.2,1,0.3
		c0.4,0.1,0.8,0.2,1.2,0.3c0.4,0.1,0.8,0.2,1.2,0.3s0.7,0.3,1.1,0.5c0.3,0.2,0.6,0.5,0.7,0.8s0.3,0.7,0.3,1.2c0,0.7-0.1,1.2-0.4,1.7
		c-0.3,0.5-0.6,0.8-1.1,1.1s-0.9,0.5-1.5,0.6c-0.6,0.1-1.1,0.2-1.7,0.2c-0.6,0-1.2-0.1-1.8-0.2c-0.6-0.1-1.1-0.3-1.5-0.6
		s-0.8-0.6-1.1-1.1s-0.4-1-0.5-1.7h2.7C53.2,238.4,53.3,238.7,53.4,238.9z"/>
	<path class="st1" d="M61.8,234.1c0.3-0.7,0.6-1.2,1.1-1.7c0.5-0.5,1-0.8,1.7-1.1c0.7-0.3,1.4-0.4,2.2-0.4c0.8,0,1.6,0.1,2.2,0.4
		c0.7,0.3,1.2,0.6,1.7,1.1s0.8,1,1.1,1.7c0.3,0.7,0.4,1.4,0.4,2.2c0,0.8-0.1,1.6-0.4,2.2c-0.3,0.7-0.6,1.2-1.1,1.7
		c-0.5,0.5-1,0.8-1.7,1.1c-0.7,0.3-1.4,0.4-2.2,0.4c-0.8,0-1.5-0.1-2.2-0.4c-0.7-0.3-1.2-0.6-1.7-1.1c-0.5-0.5-0.8-1-1.1-1.7
		c-0.3-0.7-0.4-1.4-0.4-2.2C61.4,235.5,61.6,234.7,61.8,234.1z M64.4,237.5c0.1,0.4,0.2,0.7,0.4,1.1c0.2,0.3,0.5,0.6,0.8,0.8
		c0.3,0.2,0.7,0.3,1.2,0.3s0.9-0.1,1.2-0.3c0.3-0.2,0.6-0.4,0.8-0.8c0.2-0.3,0.3-0.7,0.4-1.1c0.1-0.4,0.1-0.8,0.1-1.2
		c0-0.4,0-0.8-0.1-1.2s-0.2-0.8-0.4-1.1s-0.5-0.6-0.8-0.8c-0.3-0.2-0.7-0.3-1.2-0.3s-0.9,0.1-1.2,0.3c-0.3,0.2-0.6,0.4-0.8,0.8
		s-0.3,0.7-0.4,1.1c-0.1,0.4-0.1,0.8-0.1,1.2C64.3,236.7,64.3,237.1,64.4,237.5z"/>
	<path class="st1" d="M76.7,231.1v1.9h0c0.1-0.3,0.3-0.6,0.5-0.9c0.2-0.3,0.5-0.5,0.8-0.7c0.3-0.2,0.6-0.3,0.9-0.5
		c0.3-0.1,0.7-0.2,1-0.2c0.2,0,0.4,0,0.6,0.1v2.6c-0.1,0-0.3-0.1-0.5-0.1s-0.4,0-0.5,0c-0.5,0-1,0.1-1.3,0.3
		c-0.4,0.2-0.7,0.4-0.9,0.7c-0.2,0.3-0.4,0.6-0.5,1c-0.1,0.4-0.1,0.8-0.1,1.3v4.7H74v-10.3H76.7z"/>
	<path class="st1" d="M84.2,238.9c0.1,0.2,0.3,0.4,0.5,0.5c0.2,0.1,0.4,0.2,0.7,0.3c0.3,0.1,0.5,0.1,0.8,0.1c0.2,0,0.4,0,0.6-0.1
		c0.2,0,0.4-0.1,0.6-0.2c0.2-0.1,0.3-0.2,0.4-0.4c0.1-0.2,0.2-0.4,0.2-0.6c0-0.4-0.3-0.7-0.9-1s-1.4-0.4-2.4-0.6
		c-0.4-0.1-0.8-0.2-1.2-0.3c-0.4-0.1-0.7-0.3-1-0.5c-0.3-0.2-0.6-0.5-0.7-0.8c-0.2-0.3-0.3-0.7-0.3-1.1c0-0.7,0.1-1.2,0.4-1.6
		s0.6-0.8,1-1c0.4-0.2,0.9-0.4,1.4-0.5c0.5-0.1,1.1-0.1,1.6-0.1c0.6,0,1.1,0.1,1.6,0.2c0.5,0.1,1,0.3,1.4,0.5c0.4,0.3,0.8,0.6,1,1
		s0.4,1,0.5,1.6h-2.7c0-0.5-0.2-0.9-0.6-1.1c-0.4-0.2-0.8-0.3-1.3-0.3c-0.2,0-0.3,0-0.5,0s-0.4,0.1-0.5,0.1
		c-0.2,0.1-0.3,0.2-0.4,0.3c-0.1,0.1-0.2,0.3-0.2,0.5c0,0.3,0.1,0.5,0.3,0.6c0.2,0.2,0.4,0.3,0.7,0.4s0.6,0.2,1,0.3s0.8,0.2,1.2,0.3
		c0.4,0.1,0.8,0.2,1.2,0.3s0.7,0.3,1,0.5c0.3,0.2,0.6,0.5,0.7,0.8s0.3,0.7,0.3,1.2c0,0.7-0.1,1.2-0.4,1.7s-0.6,0.8-1.1,1.1
		c-0.4,0.3-0.9,0.5-1.5,0.6c-0.6,0.1-1.1,0.2-1.7,0.2c-0.6,0-1.2-0.1-1.8-0.2s-1.1-0.3-1.5-0.6c-0.4-0.3-0.8-0.6-1.1-1.1
		s-0.4-1-0.5-1.7H84C84,238.4,84,238.7,84.2,238.9z"/>
	<path class="st1" d="M95.8,238.4v3.1c0,0.5-0.1,0.9-0.2,1.2c-0.2,0.4-0.4,0.7-0.7,1c-0.3,0.3-0.6,0.5-1,0.7
		c-0.4,0.2-0.8,0.3-1.2,0.4v-1.4c0.2,0,0.4-0.1,0.6-0.2c0.2-0.1,0.3-0.3,0.5-0.4c0.1-0.2,0.2-0.4,0.3-0.6c0.1-0.2,0.1-0.4,0.1-0.6
		h-1.4v-3.1H95.8z"/>
	<path class="st1" d="M100.8,229.8v-2.6h11.7v2.6h-4.3v11.6h-3.1v-11.6H100.8z"/>
	<path class="st1" d="M114,231.4c0.3-0.9,0.8-1.7,1.4-2.4c0.6-0.7,1.3-1.2,2.2-1.6s1.9-0.6,3-0.6c1.1,0,2.1,0.2,3,0.6
		c0.9,0.4,1.6,0.9,2.2,1.6c0.6,0.7,1.1,1.5,1.4,2.4c0.3,0.9,0.5,1.9,0.5,3c0,1-0.2,2-0.5,2.9c-0.3,0.9-0.8,1.7-1.4,2.4
		c-0.6,0.7-1.3,1.2-2.2,1.6c-0.9,0.4-1.9,0.6-3,0.6c-1.1,0-2.1-0.2-3-0.6s-1.6-0.9-2.2-1.6c-0.6-0.7-1.1-1.5-1.4-2.4
		c-0.3-0.9-0.5-1.9-0.5-2.9C113.5,233.3,113.7,232.3,114,231.4z M116.9,236.1c0.1,0.6,0.4,1.1,0.7,1.5c0.3,0.5,0.7,0.8,1.2,1.1
		c0.5,0.3,1.1,0.4,1.8,0.4c0.7,0,1.3-0.1,1.8-0.4c0.5-0.3,0.9-0.6,1.2-1.1c0.3-0.5,0.5-1,0.7-1.5c0.1-0.6,0.2-1.1,0.2-1.8
		c0-0.6-0.1-1.2-0.2-1.8c-0.1-0.6-0.4-1.1-0.7-1.6c-0.3-0.5-0.7-0.8-1.2-1.1s-1.1-0.4-1.8-0.4c-0.7,0-1.3,0.1-1.8,0.4
		c-0.5,0.3-0.9,0.6-1.2,1.1c-0.3,0.5-0.5,1-0.7,1.6c-0.1,0.6-0.2,1.2-0.2,1.8C116.7,235,116.7,235.6,116.9,236.1z"/>
	<path class="st1" d="M129.6,231.4c0.3-0.9,0.8-1.7,1.4-2.4c0.6-0.7,1.3-1.2,2.2-1.6s1.9-0.6,3-0.6c1.1,0,2.1,0.2,3,0.6
		c0.9,0.4,1.6,0.9,2.2,1.6c0.6,0.7,1.1,1.5,1.4,2.4c0.3,0.9,0.5,1.9,0.5,3c0,1-0.2,2-0.5,2.9c-0.3,0.9-0.8,1.7-1.4,2.4
		c-0.6,0.7-1.3,1.2-2.2,1.6c-0.9,0.4-1.9,0.6-3,0.6c-1.1,0-2.1-0.2-3-0.6s-1.6-0.9-2.2-1.6c-0.6-0.7-1.1-1.5-1.4-2.4
		c-0.3-0.9-0.5-1.9-0.5-2.9C129.1,233.3,129.2,232.3,129.6,231.4z M132.4,236.1c0.1,0.6,0.4,1.1,0.7,1.5c0.3,0.5,0.7,0.8,1.2,1.1
		c0.5,0.3,1.1,0.4,1.8,0.4c0.7,0,1.3-0.1,1.8-0.4c0.5-0.3,0.9-0.6,1.2-1.1c0.3-0.5,0.5-1,0.7-1.5c0.1-0.6,0.2-1.1,0.2-1.8
		c0-0.6-0.1-1.2-0.2-1.8c-0.1-0.6-0.4-1.1-0.7-1.6c-0.3-0.5-0.7-0.8-1.2-1.1s-1.1-0.4-1.8-0.4c-0.7,0-1.3,0.1-1.8,0.4
		c-0.5,0.3-0.9,0.6-1.2,1.1c-0.3,0.5-0.5,1-0.7,1.6c-0.1,0.6-0.2,1.2-0.2,1.8C132.2,235,132.3,235.6,132.4,236.1z"/>
</g>
</svg>
