<?xml version="1.0" encoding="utf-8"?>
<!-- Generator: Adobe Illustrator 26.3.1, SVG Export Plug-In . SVG Version: 6.00 Build 0)  -->
<svg version="1.1" id="Layer_1" xmlns="http://www.w3.org/2000/svg" xmlns:xlink="http://www.w3.org/1999/xlink" x="0px" y="0px"
	 viewBox="0 0 160 600" style="enable-background:new 0 0 160 600;" xml:space="preserve">
<style type="text/css">
	.st0{clip-path:url(#SVGID_00000075149669850435412680000010373287812196871841_);fill:#349946;}
	.st1{fill:#FFFFFF;}
</style>
<g>
	<defs>
		<rect id="SVGID_1_" x="20.4" y="411.9" width="118.5" height="25"/>
	</defs>
	<clipPath id="SVGID_00000140715141877357338000000003351760757032297123_">
		<use xlink:href="#SVGID_1_"  style="overflow:visible;"/>
	</clipPath>
	<path style="clip-path:url(#SVGID_00000140715141877357338000000003351760757032297123_);fill:#349946;" d="M138.9,424.4
		c0,6.9-6.5,12.5-14.3,12.5H34.8c-7.9,0-14.3-5.6-14.3-12.5c0-6.9,6.5-12.5,14.3-12.5h89.8C132.5,411.9,138.9,417.5,138.9,424.4"/>
</g>
<g>
	<path class="st1" d="M48,428.7l-2.6-8h1.8l1.8,5.6h0l1.8-5.6h1.8l-2.6,8H48z"/>
	<path class="st1" d="M55,420.7v8h-1.8v-8H55z"/>
	<path class="st1" d="M62.5,420.7v1.5h-4.2v1.7h3.9v1.4h-3.9v2h4.3v1.5h-6v-8H62.5z"/>
	<path class="st1" d="M69.6,428.7l-1.4-5.4h0l-1.3,5.4h-1.8l-2.1-8h1.8l1.3,5.4h0l1.4-5.4h1.6l1.4,5.5h0l1.3-5.5h1.7l-2.1,8H69.6z"
		/>
	<path class="st1" d="M81,420.7c0.5,0,0.9,0.1,1.3,0.2c0.3,0.1,0.6,0.3,0.9,0.6c0.2,0.2,0.4,0.5,0.5,0.8c0.1,0.3,0.2,0.6,0.2,0.9
		c0,0.3,0,0.6-0.2,0.9s-0.3,0.6-0.5,0.8c-0.2,0.2-0.5,0.4-0.9,0.6c-0.3,0.1-0.8,0.2-1.3,0.2h-1.8v2.9h-1.8v-8H81z M80.5,424.4
		c0.2,0,0.4,0,0.6,0c0.2,0,0.3-0.1,0.5-0.2c0.1-0.1,0.3-0.2,0.3-0.4c0.1-0.2,0.1-0.4,0.1-0.6s0-0.5-0.1-0.6
		c-0.1-0.2-0.2-0.3-0.3-0.4c-0.1-0.1-0.3-0.1-0.5-0.2c-0.2,0-0.4,0-0.6,0h-1.4v2.4H80.5z"/>
	<path class="st1" d="M86.6,420.7v6.5h3.9v1.5h-5.6v-8H86.6z"/>
	<path class="st1" d="M95.5,420.7l3,8h-1.8l-0.6-1.8h-3l-0.6,1.8h-1.8l3-8H95.5z M95.6,425.6l-1-2.9h0l-1,2.9H95.6z"/>
	<path class="st1" d="M100.9,420.7l3.3,5.3h0v-5.3h1.6v8h-1.8l-3.3-5.3h0v5.3h-1.6v-8H100.9z"/>
	<path class="st1" d="M108.7,426.7c0.1,0.2,0.2,0.3,0.4,0.5c0.2,0.1,0.3,0.2,0.6,0.3c0.2,0.1,0.4,0.1,0.7,0.1c0.2,0,0.3,0,0.5,0
		c0.2,0,0.3-0.1,0.5-0.2s0.3-0.2,0.4-0.3s0.2-0.3,0.2-0.5c0-0.2-0.1-0.4-0.2-0.5c-0.1-0.1-0.3-0.2-0.5-0.3c-0.2-0.1-0.5-0.2-0.8-0.2
		c-0.3-0.1-0.6-0.1-0.9-0.2c-0.3-0.1-0.6-0.2-0.9-0.3c-0.3-0.1-0.5-0.2-0.8-0.4c-0.2-0.2-0.4-0.4-0.5-0.6s-0.2-0.6-0.2-0.9
		c0-0.4,0.1-0.8,0.3-1.1c0.2-0.3,0.4-0.6,0.7-0.8c0.3-0.2,0.6-0.3,1-0.4c0.4-0.1,0.7-0.1,1.1-0.1c0.4,0,0.8,0,1.2,0.1s0.7,0.2,1,0.5
		c0.3,0.2,0.5,0.5,0.7,0.8c0.2,0.3,0.3,0.7,0.3,1.2h-1.7c0-0.2-0.1-0.4-0.2-0.6c-0.1-0.2-0.2-0.3-0.3-0.4c-0.1-0.1-0.3-0.2-0.5-0.2
		c-0.2,0-0.4-0.1-0.6-0.1c-0.1,0-0.3,0-0.4,0c-0.1,0-0.3,0.1-0.4,0.2c-0.1,0.1-0.2,0.2-0.3,0.3s-0.1,0.3-0.1,0.4
		c0,0.2,0,0.3,0.1,0.4s0.2,0.2,0.4,0.3s0.4,0.2,0.7,0.2c0.3,0.1,0.7,0.2,1.2,0.3c0.1,0,0.4,0.1,0.6,0.2c0.3,0.1,0.5,0.2,0.8,0.4
		c0.3,0.2,0.5,0.4,0.7,0.7c0.2,0.3,0.3,0.7,0.3,1.1c0,0.4-0.1,0.7-0.2,1c-0.1,0.3-0.4,0.6-0.6,0.8c-0.3,0.2-0.6,0.4-1,0.5
		c-0.4,0.1-0.9,0.2-1.4,0.2c-0.4,0-0.9-0.1-1.3-0.2c-0.4-0.1-0.8-0.3-1.1-0.5c-0.3-0.2-0.6-0.5-0.8-0.9c-0.2-0.4-0.3-0.8-0.3-1.3
		h1.7C108.6,426.3,108.6,426.5,108.7,426.7z"/>
</g>
</svg>
