<?xml version="1.0" encoding="utf-8"?>
<!-- Generator: Adobe Illustrator 26.3.1, SVG Export Plug-In . SVG Version: 6.00 Build 0)  -->
<svg version="1.1" id="Layer_1" xmlns="http://www.w3.org/2000/svg" xmlns:xlink="http://www.w3.org/1999/xlink" x="0px" y="0px"
	 viewBox="0 0 160 600" style="enable-background:new 0 0 160 600;" xml:space="preserve">
<style type="text/css">
	.st0{fill:#349946;}
	.st1{fill:#231F20;}
	.st2{fill:none;}
</style>
<path class="st0" d="M15.2,49.9h-1.6l-0.5-1.6H9.8l-0.5,1.6H7.6l2.9-7.6h1.2c0.4,0,0.7,0.1,0.8,0.4c0.1,0.3,1.4,3.7,1.4,3.7h-1.5
	l-0.9-2.6L10.2,47h3.3c0.4,0,0.7,0.1,0.8,0.5L15.2,49.9z"/>
<path class="st0" d="M29.7,49.9H28l-0.5-1.6h-3.3l-0.5,1.6H22l2.9-7.6h1.2c0.4,0,0.7,0.1,0.8,0.4c0.1,0.3,1.4,3.7,1.4,3.7h-1.5
	l-0.9-2.6L24.7,47H28c0.4,0,0.7,0.1,0.8,0.5L29.7,49.9z"/>
<path class="st0" d="M15.8,42.2h3c2.3,0,3.5,1.2,3.5,3.8c0,1.4-0.4,2.5-1.2,3.1c-0.7,0.6-1.6,0.7-2.7,0.7h-2.6V42.2z M18.6,48.5
	c1.5,0,2.1-0.7,2.1-2.4c0-1.7-0.6-2.5-1.9-2.5h-1.5v4.9H18.6z"/>
<g>
	<path class="st1" d="M42.6,49.8h-1.2l-0.5-5.5l-1.9,5.5h-1l-1.9-5.5l-0.4,5.5h-1.1l0.7-7.2h1.4l2,5.6l1.9-5.6h1.4L42.6,49.8z"/>
	<path class="st1" d="M48.5,47.1c0,0.1,0,0.1,0,0.2c0,0.1,0,0.2,0,0.2h-3.6c0,0.4,0.1,0.7,0.3,1c0.3,0.3,0.7,0.5,1.2,0.5
		c0.4,0,0.9-0.1,1.5-0.4l0.4,0.8c-0.5,0.4-1.2,0.6-2,0.6c-0.8,0-1.4-0.3-1.9-0.8c-0.4-0.5-0.7-1.1-0.7-2c0-0.8,0.2-1.5,0.7-2
		s1.1-0.8,1.8-0.8c0.7,0,1.3,0.2,1.7,0.7S48.5,46.2,48.5,47.1z M47.4,46.6c0-0.3-0.1-0.6-0.2-0.8c-0.2-0.3-0.5-0.5-0.9-0.5
		c-0.4,0-0.7,0.1-0.9,0.4c-0.2,0.2-0.4,0.6-0.4,1H47.4z"/>
	<path class="st1" d="M57.2,49.8H56v-3c0-0.6-0.1-1-0.2-1.2c-0.1-0.2-0.4-0.3-0.6-0.3c-0.4,0-0.8,0.1-1.2,0.4C54,45.9,54,46.3,54,47
		v2.8h-1.2v-2.9c0-0.7-0.1-1.1-0.2-1.3c-0.1-0.1-0.3-0.2-0.6-0.2c-0.4,0-0.8,0.1-1.1,0.4v4.1h-1.2v-5.3h1v0.4c0.5-0.4,1-0.5,1.5-0.5
		c0.5,0,1,0.2,1.3,0.6c0.6-0.4,1.2-0.6,1.8-0.6c0.6,0,1,0.2,1.3,0.5c0.3,0.3,0.4,0.6,0.5,1c0,0.3,0.1,0.7,0.1,1.3V49.8z"/>
	<path class="st1" d="M63.4,47c0,0.9-0.3,1.6-0.8,2.1c-0.5,0.5-1.2,0.8-2,0.8c-0.6,0-1.3-0.1-2.1-0.4V42h1.2v2.8
		c0.4-0.3,0.9-0.4,1.4-0.4c0.7,0,1.2,0.2,1.7,0.7S63.4,46.2,63.4,47z M62.2,47.1c0-0.5-0.1-1-0.4-1.3c-0.2-0.3-0.6-0.4-0.9-0.4
		c-0.4,0-0.7,0.1-1.1,0.4v3.1c0.3,0.1,0.6,0.1,0.9,0.1c0.5,0,0.9-0.2,1.1-0.5C62,48.1,62.2,47.6,62.2,47.1z"/>
	<path class="st1" d="M69,47.1c0,0.1,0,0.1,0,0.2c0,0.1,0,0.2,0,0.2h-3.6c0,0.4,0.1,0.7,0.3,1c0.3,0.3,0.7,0.5,1.2,0.5
		c0.4,0,0.9-0.1,1.5-0.4l0.4,0.8c-0.5,0.4-1.2,0.6-2,0.6c-0.8,0-1.4-0.3-1.9-0.8c-0.4-0.5-0.7-1.1-0.7-2c0-0.8,0.2-1.5,0.7-2
		s1.1-0.8,1.8-0.8c0.7,0,1.3,0.2,1.7,0.7S69,46.2,69,47.1z M67.9,46.6c0-0.3-0.1-0.6-0.2-0.8c-0.2-0.3-0.5-0.5-0.9-0.5
		c-0.4,0-0.7,0.1-0.9,0.4c-0.2,0.2-0.4,0.6-0.4,1H67.9z"/>
	<path class="st1" d="M73.5,44.5l-0.3,0.9c-0.1,0-0.2,0-0.4,0c-0.6,0-1.2,0.3-1.5,0.8v3.6h-1.2v-5.3h1v0.7c0.1-0.1,0.2-0.3,0.5-0.4
		c0.4-0.3,0.8-0.4,1.2-0.4C73.1,44.4,73.3,44.4,73.5,44.5z"/>
</g>
<g>
	<path class="st1" d="M77.9,48.3c0,0.5-0.2,0.9-0.6,1.2c-0.4,0.3-0.9,0.4-1.5,0.4c-0.5,0-0.9-0.1-1.4-0.3c-0.3-0.1-0.5-0.2-0.6-0.3
		l0.4-0.8c0.5,0.3,1,0.4,1.4,0.4c0.3,0,0.5-0.1,0.7-0.2c0.2-0.1,0.2-0.3,0.2-0.5c0-0.2-0.1-0.3-0.3-0.5c-0.1-0.1-0.4-0.2-0.8-0.4
		c-0.4-0.2-0.7-0.4-0.9-0.5c-0.3-0.3-0.5-0.6-0.5-1.1c0-0.5,0.2-0.9,0.5-1.1c0.4-0.3,0.8-0.4,1.4-0.4c0.7,0,1.3,0.2,1.7,0.5
		l-0.4,0.8c-0.4-0.2-0.8-0.4-1.2-0.4c-0.6,0-0.8,0.2-0.8,0.6c0,0.2,0.1,0.3,0.3,0.4c0.1,0.1,0.3,0.2,0.7,0.3
		c0.5,0.2,0.9,0.4,1.1,0.6C77.7,47.5,77.9,47.8,77.9,48.3z"/>
	<path class="st1" d="M83.1,49.8h-1.3v-7.2h1.3V49.8z"/>
	<path class="st1" d="M89.1,49.8h-1.2v-2.9c0-0.7-0.1-1.1-0.2-1.3c-0.2-0.2-0.4-0.2-0.7-0.2c-0.4,0-0.8,0.1-1.2,0.4v4h-1.2v-5.3h1
		v0.4c0.5-0.4,1-0.5,1.6-0.5c0.6,0,1,0.2,1.3,0.5c0.2,0.2,0.4,0.5,0.5,0.9c0,0.2,0.1,0.6,0.1,1.1V49.8z"/>
	<path class="st1" d="M93.9,48.3c0,0.5-0.2,0.9-0.6,1.2c-0.4,0.3-0.9,0.4-1.5,0.4c-0.5,0-0.9-0.1-1.4-0.3c-0.3-0.1-0.5-0.2-0.6-0.3
		l0.4-0.8c0.5,0.3,1,0.4,1.4,0.4c0.3,0,0.5-0.1,0.7-0.2c0.2-0.1,0.2-0.3,0.2-0.5c0-0.2-0.1-0.3-0.3-0.5c-0.1-0.1-0.4-0.2-0.8-0.4
		c-0.4-0.2-0.7-0.4-0.9-0.5c-0.3-0.3-0.5-0.6-0.5-1.1c0-0.5,0.2-0.9,0.5-1.1c0.4-0.3,0.8-0.4,1.4-0.4c0.7,0,1.3,0.2,1.7,0.5
		l-0.4,0.8c-0.4-0.2-0.8-0.4-1.2-0.4c-0.6,0-0.8,0.2-0.8,0.6c0,0.2,0.1,0.3,0.3,0.4c0.1,0.1,0.3,0.2,0.7,0.3
		c0.5,0.2,0.9,0.4,1.1,0.6C93.8,47.5,93.9,47.8,93.9,48.3z"/>
	<path class="st1" d="M99.6,49.8h-1v-0.4c-0.5,0.4-1,0.5-1.6,0.5c-0.6,0-1-0.2-1.3-0.5c-0.2-0.2-0.4-0.5-0.5-0.9
		c0-0.2-0.1-0.6-0.1-1.1v-2.9h1.2v2.9c0,0.4,0,0.6,0,0.7c0,0.3,0.1,0.5,0.3,0.6c0.1,0.1,0.4,0.2,0.6,0.2c0.3,0,0.7-0.1,1.2-0.4v-4
		h1.2V49.8z"/>
	<path class="st1" d="M104.3,44.5l-0.3,0.9c-0.1,0-0.2,0-0.4,0c-0.6,0-1.2,0.3-1.5,0.8v3.6h-1.2v-5.3h1v0.7c0.1-0.1,0.2-0.3,0.5-0.4
		c0.4-0.3,0.8-0.4,1.2-0.4C103.9,44.4,104.1,44.4,104.3,44.5z"/>
</g>
<g>
	<path class="st1" d="M109,49.8h-1v-0.4c-0.5,0.3-1,0.5-1.6,0.5c-0.5,0-0.9-0.2-1.2-0.5s-0.5-0.7-0.5-1.2c0-1.2,1-1.9,3-1.9h0.2
		v-0.2c0-0.3-0.1-0.5-0.2-0.7c-0.2-0.2-0.4-0.2-0.9-0.2c-0.5,0-0.9,0.1-1.4,0.4l-0.4-0.8c0.1-0.1,0.3-0.2,0.6-0.3
		c0.4-0.2,0.9-0.3,1.4-0.3c0.7,0,1.3,0.2,1.6,0.6c0.2,0.2,0.3,0.4,0.4,0.7c0,0.2,0.1,0.5,0.1,0.9V49.8z M107.8,48.6v-1.4h-0.2
		c-0.8,0-1.4,0.1-1.6,0.4c-0.1,0.1-0.2,0.3-0.2,0.5c0,0.3,0.1,0.5,0.3,0.6s0.4,0.2,0.7,0.2C107,49,107.4,48.9,107.8,48.6z"/>
	<path class="st1" d="M114.7,49.8h-1.2v-2.9c0-0.7-0.1-1.1-0.2-1.3c-0.2-0.2-0.4-0.2-0.7-0.2c-0.4,0-0.8,0.1-1.2,0.4v4h-1.2v-5.3h1
		v0.4c0.5-0.4,1-0.5,1.6-0.5c0.6,0,1,0.2,1.3,0.5c0.2,0.2,0.4,0.5,0.5,0.9c0,0.2,0.1,0.6,0.1,1.1V49.8z"/>
	<path class="st1" d="M120.4,49.3c-0.1,0.1-0.3,0.2-0.5,0.3c-0.4,0.2-0.9,0.3-1.4,0.3c-0.8,0-1.4-0.3-1.9-0.8s-0.7-1.2-0.7-2
		c0-0.8,0.3-1.5,0.8-2.1c0.5-0.5,1.2-0.8,2-0.8c0.4,0,0.9,0.1,1.2,0.3c0.3,0.1,0.4,0.2,0.5,0.3l-0.5,0.7c-0.4-0.2-0.8-0.4-1.2-0.4
		c-0.5,0-0.9,0.2-1.2,0.6c-0.3,0.3-0.4,0.8-0.4,1.2c0,0.5,0.1,1,0.4,1.3c0.3,0.3,0.7,0.5,1.2,0.5c0.4,0,0.8-0.1,1.3-0.4L120.4,49.3z
		"/>
</g>
<g>
	<path class="st1" d="M125.7,47.1c0,0.1,0,0.1,0,0.2c0,0.1,0,0.2,0,0.2h-3.6c0,0.4,0.1,0.7,0.3,1c0.3,0.3,0.7,0.5,1.2,0.5
		c0.4,0,0.9-0.1,1.5-0.4l0.4,0.8c-0.5,0.4-1.2,0.6-2,0.6c-0.8,0-1.4-0.3-1.9-0.8c-0.4-0.5-0.7-1.1-0.7-2c0-0.8,0.2-1.5,0.7-2
		s1.1-0.8,1.8-0.8c0.7,0,1.3,0.2,1.7,0.7C125.5,45.6,125.7,46.2,125.7,47.1z M124.6,46.6c0-0.3-0.1-0.6-0.2-0.8
		c-0.2-0.3-0.5-0.5-0.9-0.5c-0.4,0-0.7,0.1-0.9,0.4c-0.2,0.2-0.4,0.6-0.4,1H124.6z"/>
	<path class="st1" d="M134.4,44.7c0,0.7-0.2,1.2-0.6,1.6c-0.3,0.3-0.7,0.5-1.1,0.6c-0.3,0.1-0.7,0.1-1.3,0.1h-0.5v2.8h-1.2v-7.2h1.9
		c0.6,0,1,0,1.3,0.1c0.4,0.1,0.8,0.3,1,0.5C134.2,43.6,134.4,44.1,134.4,44.7z M133.1,44.8c0-0.4-0.1-0.7-0.3-0.9
		c-0.2-0.2-0.6-0.3-1.3-0.3h-0.7V46h0.5c0.8,0,1.3-0.1,1.5-0.3C133,45.5,133.1,45.2,133.1,44.8z"/>
	<path class="st1" d="M136.9,49.8h-1.2V42h1.2V49.8z"/>
	<path class="st1" d="M142.3,49.8h-1v-0.4c-0.5,0.3-1,0.5-1.6,0.5c-0.5,0-0.9-0.2-1.2-0.5s-0.5-0.7-0.5-1.2c0-1.2,1-1.9,3-1.9h0.2
		v-0.2c0-0.3-0.1-0.5-0.2-0.7c-0.2-0.2-0.4-0.2-0.9-0.2c-0.5,0-0.9,0.1-1.4,0.4l-0.4-0.8c0.1-0.1,0.3-0.2,0.6-0.3
		c0.4-0.2,0.9-0.3,1.4-0.3c0.7,0,1.3,0.2,1.6,0.6c0.2,0.2,0.3,0.4,0.4,0.7c0,0.2,0.1,0.5,0.1,0.9V49.8z M141.2,48.6v-1.4h-0.2
		c-0.8,0-1.4,0.1-1.6,0.4c-0.1,0.1-0.2,0.3-0.2,0.5c0,0.3,0.1,0.5,0.3,0.6s0.4,0.2,0.7,0.2C140.3,49,140.7,48.9,141.2,48.6z"/>
	<path class="st1" d="M148.1,49.8h-1.2v-2.9c0-0.7-0.1-1.1-0.2-1.3c-0.2-0.2-0.4-0.2-0.7-0.2c-0.4,0-0.8,0.1-1.2,0.4v4h-1.2v-5.3h1
		v0.4c0.5-0.4,1-0.5,1.6-0.5c0.6,0,1,0.2,1.3,0.5c0.2,0.2,0.4,0.5,0.5,0.9c0,0.2,0.1,0.6,0.1,1.1V49.8z"/>
	<path class="st1" d="M152.9,48.3c0,0.5-0.2,0.9-0.6,1.2c-0.4,0.3-0.9,0.4-1.5,0.4c-0.5,0-0.9-0.1-1.4-0.3c-0.3-0.1-0.5-0.2-0.6-0.3
		l0.4-0.8c0.5,0.3,1,0.4,1.4,0.4c0.3,0,0.5-0.1,0.7-0.2c0.2-0.1,0.2-0.3,0.2-0.5c0-0.2-0.1-0.3-0.3-0.5c-0.1-0.1-0.4-0.2-0.8-0.4
		c-0.4-0.2-0.7-0.4-0.9-0.5c-0.3-0.3-0.5-0.6-0.5-1.1c0-0.5,0.2-0.9,0.5-1.1c0.4-0.3,0.8-0.4,1.4-0.4c0.7,0,1.3,0.2,1.7,0.5
		l-0.4,0.8c-0.4-0.2-0.8-0.4-1.2-0.4c-0.6,0-0.8,0.2-0.8,0.6c0,0.2,0.1,0.3,0.3,0.4c0.1,0.1,0.3,0.2,0.7,0.3
		c0.5,0.2,0.9,0.4,1.1,0.6C152.8,47.5,152.9,47.8,152.9,48.3z"/>
</g>
<path class="st0" d="M30.8,49.9c-0.5,0-0.9-0.4-0.9-0.9c0-0.5,0.4-0.9,0.9-0.9c0.5,0,0.9,0.4,0.9,0.9C31.7,49.5,31.3,49.9,30.8,49.9
	 M30.8,48.3c-0.4,0-0.7,0.3-0.7,0.7c0,0.4,0.3,0.7,0.7,0.7c0.4,0,0.7-0.3,0.7-0.7C31.4,48.6,31.1,48.3,30.8,48.3 M31,49.5l-0.1-0.2
	c-0.1-0.1-0.1-0.1-0.2-0.1h0v0.4h-0.2v-0.9h0.2c0.1,0,0.2,0,0.3,0.1c0.1,0.1,0.1,0.1,0.1,0.2c0,0.1,0,0.2-0.2,0.2
	c0,0,0.1,0.1,0.1,0.1l0.1,0.3H31z M30.8,48.7c0,0-0.1,0-0.1,0h-0.1v0.2c0.1,0,0.1,0,0.2,0C30.9,48.9,30.9,48.9,30.8,48.7
	C30.9,48.7,30.9,48.7,30.8,48.7"/>
<rect x="7.6" y="40.8" class="st2" width="145.6" height="10"/>
</svg>
