<?xml version="1.0" encoding="utf-8"?>
<!-- Generator: Adobe Illustrator 26.3.1, SVG Export Plug-In . SVG Version: 6.00 Build 0)  -->
<svg version="1.1" id="Layer_1" xmlns="http://www.w3.org/2000/svg" xmlns:xlink="http://www.w3.org/1999/xlink" x="0px" y="0px"
	 viewBox="0 0 160 600" style="enable-background:new 0 0 160 600;" xml:space="preserve">
<style type="text/css">
	.st0{clip-path:url(#SVGID_00000052094982310264776180000016234553163224002693_);fill:#231F20;}
	.st1{clip-path:url(#SVGID_00000052094982310264776180000016234553163224002693_);fill:#00B2EE;}
</style>
<g>
	<defs>
		<rect id="SVGID_1_" x="55.3" y="19.8" width="51.4" height="17.5"/>
	</defs>
	<clipPath id="SVGID_00000074403929486383271100000004097678420320397701_">
		<use xlink:href="#SVGID_1_"  style="overflow:visible;"/>
	</clipPath>
	<path style="clip-path:url(#SVGID_00000074403929486383271100000004097678420320397701_);fill:#231F20;" d="M55.6,29.2h2.8
		c2.2,0,2.6,1.4,2.6,2.4c0,0.9-0.4,2.4-2.6,2.4H57v2.9h-1.3V29.2z M57,32.8h1.3c0.6,0,1.3-0.3,1.3-1.3c0-1-0.6-1.3-1.3-1.3H57V32.8z
		"/>
	<path style="clip-path:url(#SVGID_00000074403929486383271100000004097678420320397701_);fill:#231F20;" d="M61.8,31.3h1.1v1.1h0
		c0.1-0.6,0.9-1.2,1.6-1.2c0.3,0,0.4,0,0.5,0v1.2c-0.2,0-0.4-0.1-0.5-0.1c-0.8,0-1.5,0.7-1.5,1.9v2.6h-1.2V31.3z"/>
	<path style="clip-path:url(#SVGID_00000074403929486383271100000004097678420320397701_);fill:#231F20;" d="M65.2,34
		c0-1.7,1-2.9,2.8-2.9s2.8,1.2,2.8,2.9c0,1.7-1,2.9-2.8,2.9S65.2,35.7,65.2,34 M69.6,34c0-1-0.5-2-1.6-2s-1.6,1-1.6,2
		c0,1,0.5,2,1.6,2S69.6,35,69.6,34"/>
	<path style="clip-path:url(#SVGID_00000074403929486383271100000004097678420320397701_);fill:#231F20;" d="M71,31.3h1v-1.7h1.2
		v1.7h1.1v0.9h-1.1v3c0,0.5,0,0.8,0.6,0.8c0.2,0,0.3,0,0.5,0v0.9c-0.3,0-0.5,0.1-0.8,0.1c-1.3,0-1.5-0.5-1.5-1.4v-3.3H71V31.3z"/>
	<path style="clip-path:url(#SVGID_00000074403929486383271100000004097678420320397701_);fill:#231F20;" d="M76,34.4
		c0,0.9,0.5,1.6,1.5,1.6c0.7,0,1.1-0.3,1.4-0.9H80c-0.3,1.2-1.3,1.9-2.5,1.9c-1.7,0-2.7-1.2-2.7-2.9c0-1.6,1-2.9,2.7-2.9
		c1.8,0,2.8,1.6,2.6,3.2H76z M78.9,33.6c0-0.8-0.6-1.5-1.4-1.5c-0.8,0-1.4,0.6-1.5,1.5H78.9z"/>
	<path style="clip-path:url(#SVGID_00000074403929486383271100000004097678420320397701_);fill:#231F20;" d="M84.7,33.1
		c-0.1-0.7-0.6-1-1.3-1c-0.6,0-1.5,0.3-1.5,2c0,0.9,0.4,1.9,1.5,1.9c0.7,0,1.2-0.5,1.3-1.3h1.2c-0.2,1.4-1.1,2.2-2.5,2.2
		c-1.7,0-2.7-1.2-2.7-2.9c0-1.7,0.9-3,2.7-3c1.3,0,2.4,0.6,2.5,2H84.7z"/>
	<path style="clip-path:url(#SVGID_00000074403929486383271100000004097678420320397701_);fill:#231F20;" d="M86.3,31.3h0.9v-1.7
		h1.2v1.7h1.1v0.9h-1.1v3c0,0.5,0,0.8,0.6,0.8c0.2,0,0.3,0,0.5,0v0.9c-0.3,0-0.5,0.1-0.8,0.1c-1.3,0-1.5-0.5-1.5-1.4v-3.3h-0.9V31.3
		z"/>
	<path style="clip-path:url(#SVGID_00000074403929486383271100000004097678420320397701_);fill:#231F20;" d="M90.9,29.2h1.2v1.2
		h-1.2V29.2z M90.9,31.3h1.2v5.5h-1.2V31.3z"/>
	<polygon style="clip-path:url(#SVGID_00000074403929486383271100000004097678420320397701_);fill:#231F20;" points="93,31.3 
		94.4,31.3 96.1,35.5 96.1,35.5 97.8,31.3 99,31.3 96.7,36.8 95.4,36.8 	"/>
	<path style="clip-path:url(#SVGID_00000074403929486383271100000004097678420320397701_);fill:#231F20;" d="M100.6,34.4
		c0,0.9,0.5,1.6,1.5,1.6c0.7,0,1.1-0.3,1.4-0.9h1.2c-0.3,1.2-1.3,1.9-2.5,1.9c-1.7,0-2.7-1.2-2.7-2.9c0-1.6,1-2.9,2.7-2.9
		c1.7,0,2.8,1.6,2.6,3.2H100.6z M103.4,33.6c0-0.8-0.6-1.5-1.4-1.5c-0.8,0-1.4,0.6-1.5,1.5H103.4z"/>
	<path style="clip-path:url(#SVGID_00000074403929486383271100000004097678420320397701_);fill:#00B2EE;" d="M88.6,27.9
		c-0.8-3.1-3.2-5.4-6.3-6.2c-0.3-0.9-1.2-1.6-2.2-1.6c-1,0-1.9,0.7-2.2,1.6c-3,0.8-5.5,3.2-6.3,6.2l-0.1,0.3h1.9l0.1-0.2
		c0.7-2.2,2.5-3.9,4.7-4.6c0.4,0.7,1.1,1.1,2,1.1s1.6-0.5,2-1.1c2.2,0.6,4,2.3,4.7,4.6l0.1,0.2h1.9L88.6,27.9z"/>
	<path style="clip-path:url(#SVGID_00000074403929486383271100000004097678420320397701_);fill:#231F20;" d="M105.9,35.9
		c0.3,0,0.5,0.2,0.5,0.5c0,0.3-0.2,0.5-0.5,0.5c-0.3,0-0.5-0.2-0.5-0.5C105.4,36.1,105.6,35.9,105.9,35.9 M106.4,36.4
		c0-0.3-0.2-0.5-0.4-0.5s-0.4,0.2-0.4,0.5c0,0.3,0.2,0.5,0.4,0.5S106.4,36.7,106.4,36.4 M105.7,36.1h0.2c0.1,0,0.2,0.1,0.2,0.2
		c0,0.1-0.1,0.2-0.2,0.2l0.2,0.3h-0.1l-0.2-0.3h-0.1v0.3h-0.1V36.1z M105.9,36.4c0.1,0,0.2,0,0.2-0.1c0-0.1-0.1-0.1-0.1-0.1h-0.1
		v0.2H105.9z"/>
</g>
</svg>
