<?xml version="1.0" encoding="utf-8"?>
<!-- Generator: Adobe Illustrator 25.4.1, SVG Export Plug-In . SVG Version: 6.00 Build 0)  -->
<svg version="1.1" id="Layer_1" xmlns="http://www.w3.org/2000/svg" xmlns:xlink="http://www.w3.org/1999/xlink" x="0px" y="0px"
	 viewBox="0 0 300 600" style="enable-background:new 0 0 300 600;" xml:space="preserve">
<style type="text/css">
	.st0{fill:#349946;}
</style>
<g>
	<path class="st0" d="M44.3,112.1l11,29.4h-6.7l-2.2-6.5h-11l-2.3,6.5h-6.5l11.1-29.4H44.3z M44.7,130.1L41,119.3h-0.1l-3.8,10.8
		H44.7z"/>
	<path class="st0" d="M86.2,135.4c-0.2,1.2-0.6,2.2-1.3,3.2c-0.7,1-1.7,1.8-3,2.5c-1.3,0.7-3,1-5.2,1c-1.2,0-2.4-0.2-3.6-0.5
		c-1.2-0.3-2.2-0.9-3.1-1.6c-0.9-0.7-1.6-1.7-2.2-2.8c-0.5-1.1-0.8-2.5-0.8-4.1v-2.6h5.8v1.3c0,0.7,0.1,1.4,0.2,2
		c0.1,0.6,0.3,1.1,0.6,1.5c0.3,0.4,0.7,0.8,1.1,1c0.5,0.2,1.1,0.4,1.9,0.4c0.9,0,1.5-0.2,2-0.5c0.5-0.3,0.8-0.7,1-1.2
		c0.2-0.5,0.3-1,0.4-1.6c0-0.6,0.1-1.1,0.1-1.6v-19.8h6.5v20.1C86.5,133.2,86.4,134.2,86.2,135.4z"/>
	<path class="st0" d="M91.9,120.8c0.7-1.9,1.6-3.5,2.8-4.9c1.2-1.4,2.8-2.5,4.6-3.3c1.8-0.8,3.8-1.2,6.1-1.2c2.3,0,4.3,0.4,6.1,1.2
		c1.8,0.8,3.3,1.9,4.5,3.3c1.2,1.4,2.2,3,2.8,4.9c0.7,1.9,1,3.9,1,6.1c0,2.1-0.3,4.1-1,6c-0.7,1.9-1.6,3.5-2.8,4.8
		c-1.2,1.4-2.7,2.5-4.5,3.2c-1.8,0.8-3.8,1.2-6.1,1.2c-2.3,0-4.3-0.4-6.1-1.2c-1.8-0.8-3.3-1.9-4.6-3.2c-1.2-1.4-2.2-3-2.8-4.8
		c-0.7-1.9-1-3.9-1-6C90.9,124.7,91.2,122.7,91.9,120.8z M97.8,130.5c0.3,1.2,0.7,2.2,1.4,3.1c0.6,0.9,1.5,1.7,2.5,2.2
		c1,0.6,2.3,0.8,3.7,0.8c1.5,0,2.7-0.3,3.7-0.8c1-0.6,1.8-1.3,2.5-2.2c0.6-0.9,1.1-2,1.4-3.1c0.3-1.2,0.4-2.4,0.4-3.6
		c0-1.3-0.1-2.5-0.4-3.7c-0.3-1.2-0.7-2.3-1.4-3.2c-0.6-0.9-1.5-1.7-2.5-2.3c-1-0.6-2.3-0.8-3.7-0.8c-1.5,0-2.7,0.3-3.7,0.8
		c-1,0.6-1.8,1.3-2.5,2.3c-0.6,0.9-1.1,2-1.4,3.2c-0.3,1.2-0.4,2.5-0.4,3.7C97.4,128.1,97.5,129.3,97.8,130.5z"/>
	<path class="st0" d="M145.9,139.2c-2.2,1.9-5.3,2.9-9.2,2.9c-4,0-7.1-1-9.2-2.9c-2.2-1.9-3.3-4.9-3.3-8.9v-18.3h6.5v18.3
		c0,0.8,0.1,1.6,0.2,2.3c0.1,0.8,0.4,1.4,0.9,2c0.4,0.6,1,1.1,1.8,1.4c0.8,0.4,1.8,0.6,3.1,0.6c2.3,0,3.9-0.5,4.8-1.5
		c0.9-1,1.3-2.6,1.3-4.8v-18.3h6.5v18.3C149.2,134.3,148.1,137.3,145.9,139.2z"/>
	<path class="st0" d="M170.6,112.1c1.3,0,2.5,0.2,3.6,0.6c1.1,0.4,2,1,2.7,1.8c0.8,0.7,1.3,1.6,1.7,2.6c0.4,1,0.6,2,0.6,3.1
		c0,1.7-0.4,3.2-1.1,4.5c-0.7,1.3-1.9,2.2-3.6,2.9v0.1c0.8,0.2,1.5,0.6,2,1c0.5,0.5,0.9,1,1.3,1.6c0.3,0.6,0.6,1.3,0.7,2
		c0.2,0.7,0.3,1.5,0.3,2.2c0,0.5,0.1,1,0.1,1.6c0,0.6,0.1,1.3,0.1,1.9c0.1,0.7,0.2,1.3,0.3,1.9c0.2,0.6,0.4,1.1,0.7,1.5h-6.5
		c-0.4-0.9-0.6-2-0.7-3.3c-0.1-1.3-0.2-2.5-0.4-3.7c-0.2-1.5-0.7-2.7-1.4-3.4c-0.7-0.7-1.9-1.1-3.5-1.1h-6.5v11.5h-6.5v-29.4H170.6z
		 M168.3,125.4c1.5,0,2.6-0.3,3.3-1c0.7-0.7,1.1-1.7,1.1-3.2c0-1.4-0.4-2.5-1.1-3.1c-0.7-0.6-1.9-1-3.3-1h-7.1v8.3H168.3z"/>
	<path class="st0" d="M190.9,112.1l12.3,19.7h0.1v-19.7h6.1v29.4h-6.5l-12.2-19.7h-0.1v19.7h-6.1v-29.4H190.9z"/>
	<path class="st0" d="M237,112.1v5.4h-15.5v6.3h14.2v5h-14.2v7.2h15.9v5.4H215v-29.4H237z"/>
	<path class="st0" d="M238.5,112.1h7.2l6.9,11.6l6.8-11.6h7.2l-10.9,18.1v11.3h-6.5V130L238.5,112.1z"/>
</g>
<g>
	<path class="st0" d="M29.2,166.1c0.5-1.4,1.3-2.6,2.2-3.5c1-1,2.1-1.7,3.5-2.3c1.3-0.5,2.9-0.8,4.5-0.8c1.7,0,3.2,0.3,4.6,0.8
		c1.4,0.5,2.5,1.3,3.5,2.3c1,1,1.7,2.2,2.2,3.5c0.5,1.4,0.8,2.9,0.8,4.6c0,1.7-0.3,3.2-0.8,4.6c-0.5,1.4-1.3,2.5-2.2,3.5
		c-1,1-2.1,1.7-3.5,2.2s-2.9,0.8-4.6,0.8c-1.7,0-3.2-0.3-4.5-0.8c-1.3-0.5-2.5-1.3-3.5-2.2c-1-1-1.7-2.1-2.2-3.5
		c-0.5-1.4-0.8-2.9-0.8-4.6C28.4,169,28.6,167.5,29.2,166.1z M34.5,173.2c0.2,0.8,0.4,1.5,0.8,2.2c0.4,0.6,0.9,1.2,1.6,1.5
		c0.7,0.4,1.5,0.6,2.5,0.6s1.8-0.2,2.5-0.6c0.7-0.4,1.2-0.9,1.6-1.5c0.4-0.6,0.7-1.4,0.8-2.2c0.2-0.8,0.2-1.6,0.2-2.5
		c0-0.9-0.1-1.7-0.2-2.5c-0.2-0.8-0.4-1.6-0.8-2.2c-0.4-0.6-0.9-1.1-1.6-1.5c-0.7-0.4-1.5-0.6-2.5-0.6s-1.8,0.2-2.5,0.6
		c-0.7,0.4-1.2,0.9-1.6,1.5c-0.4,0.6-0.7,1.4-0.8,2.2c-0.2,0.8-0.2,1.7-0.2,2.5C34.2,171.6,34.3,172.4,34.5,173.2z"/>
	<path class="st0" d="M52,164v-3.9h3.5v-1.6c0-1.9,0.6-3.4,1.8-4.7s3-1.8,5.4-1.8c0.5,0,1,0,1.6,0.1c0.5,0,1,0.1,1.5,0.1v4.4
		c-0.7-0.1-1.4-0.1-2.1-0.1c-0.8,0-1.4,0.2-1.7,0.6s-0.5,1-0.5,1.9v1.3h4v3.9h-4v17.4h-5.8V164H52z"/>
	<path class="st0" d="M79.1,166.6c0.1-1.4,0.4-2.5,1-3.4c0.6-0.9,1.4-1.6,2.3-2.2c0.9-0.5,2-0.9,3.1-1.2c1.2-0.2,2.3-0.4,3.5-0.4
		c1.1,0,2.2,0.1,3.3,0.2c1.1,0.2,2.1,0.4,3,0.9c0.9,0.4,1.6,1,2.2,1.8c0.6,0.8,0.9,1.8,0.9,3.1v11.1c0,1,0.1,1.9,0.2,2.8
		c0.1,0.9,0.3,1.5,0.6,2h-5.9c-0.1-0.3-0.2-0.7-0.3-1c-0.1-0.3-0.1-0.7-0.1-1.1c-0.9,1-2,1.6-3.3,2c-1.3,0.4-2.6,0.6-3.9,0.6
		c-1,0-2-0.1-2.8-0.4c-0.9-0.2-1.6-0.6-2.3-1.2c-0.7-0.5-1.2-1.2-1.5-2c-0.4-0.8-0.6-1.7-0.6-2.8c0-1.2,0.2-2.2,0.6-3
		c0.4-0.8,1-1.4,1.6-1.9c0.7-0.5,1.4-0.8,2.3-1c0.9-0.2,1.7-0.4,2.6-0.6c0.9-0.1,1.7-0.2,2.6-0.3c0.9-0.1,1.6-0.2,2.3-0.4
		c0.7-0.2,1.2-0.4,1.6-0.7c0.4-0.3,0.6-0.8,0.5-1.4c0-0.6-0.1-1.1-0.3-1.5c-0.2-0.4-0.5-0.7-0.8-0.9c-0.3-0.2-0.7-0.3-1.2-0.4
		c-0.5-0.1-0.9-0.1-1.5-0.1c-1.2,0-2.1,0.2-2.7,0.7c-0.7,0.5-1,1.3-1.2,2.5H79.1z M92.6,170.9c-0.2,0.2-0.6,0.4-0.9,0.5
		s-0.8,0.2-1.2,0.3c-0.4,0.1-0.9,0.2-1.3,0.2c-0.5,0.1-0.9,0.1-1.4,0.2c-0.4,0.1-0.9,0.2-1.3,0.3c-0.4,0.1-0.8,0.3-1.1,0.6
		c-0.3,0.2-0.6,0.5-0.8,0.9c-0.2,0.4-0.3,0.8-0.3,1.4c0,0.5,0.1,1,0.3,1.3c0.2,0.4,0.5,0.6,0.8,0.8c0.3,0.2,0.7,0.3,1.2,0.4
		c0.4,0.1,0.9,0.1,1.4,0.1c1.2,0,2-0.2,2.7-0.6c0.6-0.4,1.1-0.8,1.4-1.4c0.3-0.5,0.5-1.1,0.6-1.6c0.1-0.5,0.1-1,0.1-1.3V170.9z"/>
</g>
<g>
	<path class="st0" d="M27.3,197.3v-5.4h24.1v5.4h-8.8v24h-6.5v-24H27.3z"/>
	<path class="st0" d="M61.3,191.8v11.3h11.9v-11.3h6.5v29.4h-6.5v-12.7H61.3v12.7h-6.5v-29.4H61.3z"/>
	<path class="st0" d="M85,200.5c0.7-1.9,1.6-3.5,2.8-4.9c1.2-1.4,2.8-2.5,4.6-3.3c1.8-0.8,3.8-1.2,6.1-1.2c2.3,0,4.3,0.4,6.1,1.2
		c1.8,0.8,3.3,1.9,4.5,3.3c1.2,1.4,2.2,3,2.8,4.9c0.7,1.9,1,3.9,1,6.1c0,2.1-0.3,4.1-1,6c-0.7,1.9-1.6,3.5-2.8,4.8
		c-1.2,1.4-2.7,2.5-4.5,3.2c-1.8,0.8-3.8,1.2-6.1,1.2c-2.3,0-4.3-0.4-6.1-1.2c-1.8-0.8-3.3-1.9-4.6-3.2c-1.2-1.4-2.2-3-2.8-4.8
		c-0.7-1.9-1-3.9-1-6C84,204.5,84.4,202.4,85,200.5z M90.9,210.3c0.3,1.2,0.7,2.2,1.4,3.1c0.6,0.9,1.5,1.7,2.5,2.2
		c1,0.6,2.3,0.8,3.7,0.8c1.5,0,2.7-0.3,3.7-0.8c1-0.6,1.8-1.3,2.5-2.2c0.6-0.9,1.1-2,1.4-3.1c0.3-1.2,0.4-2.4,0.4-3.6
		c0-1.3-0.1-2.5-0.4-3.7c-0.3-1.2-0.7-2.3-1.4-3.2c-0.6-0.9-1.5-1.7-2.5-2.3c-1-0.6-2.3-0.8-3.7-0.8c-1.5,0-2.7,0.3-3.7,0.8
		c-1,0.6-1.8,1.3-2.5,2.3c-0.6,0.9-1.1,2-1.4,3.2c-0.3,1.2-0.4,2.5-0.4,3.7C90.5,207.9,90.7,209.1,90.9,210.3z"/>
	<path class="st0" d="M139,219c-2.2,1.9-5.3,2.9-9.2,2.9c-4,0-7.1-1-9.2-2.9c-2.2-1.9-3.3-4.9-3.3-8.9v-18.3h6.5v18.3
		c0,0.8,0.1,1.6,0.2,2.3c0.1,0.8,0.4,1.4,0.9,2c0.4,0.6,1,1.1,1.8,1.4c0.8,0.4,1.8,0.6,3.2,0.6c2.3,0,3.9-0.5,4.8-1.5
		c0.9-1,1.3-2.6,1.3-4.8v-18.3h6.5v18.3C142.3,214.1,141.2,217,139,219z"/>
	<path class="st0" d="M152.8,214c0.4,0.7,0.8,1.2,1.4,1.7c0.6,0.4,1.3,0.7,2.1,0.9c0.8,0.2,1.6,0.3,2.5,0.3c0.6,0,1.2,0,1.9-0.1
		c0.7-0.1,1.3-0.3,1.9-0.6c0.6-0.3,1.1-0.7,1.4-1.1c0.4-0.5,0.6-1.1,0.6-1.8c0-0.8-0.3-1.4-0.8-1.9s-1.2-0.9-2-1.2
		c-0.8-0.3-1.8-0.6-2.8-0.9c-1-0.2-2.1-0.5-3.2-0.8c-1.1-0.3-2.2-0.6-3.2-1c-1-0.4-2-0.9-2.8-1.5c-0.8-0.6-1.5-1.4-2-2.4
		c-0.5-0.9-0.8-2.1-0.8-3.4c0-1.5,0.3-2.8,1-3.9c0.6-1.1,1.5-2,2.5-2.8c1-0.7,2.2-1.3,3.5-1.6c1.3-0.4,2.6-0.5,4-0.5
		c1.5,0,3,0.2,4.4,0.5s2.7,0.9,3.8,1.7c1.1,0.8,2,1.8,2.6,2.9c0.6,1.2,1,2.6,1,4.3h-6.3c-0.1-0.9-0.2-1.6-0.6-2.2
		c-0.3-0.6-0.7-1-1.3-1.4c-0.5-0.3-1.1-0.6-1.8-0.7c-0.7-0.1-1.4-0.2-2.2-0.2c-0.5,0-1,0.1-1.6,0.2c-0.5,0.1-1,0.3-1.4,0.6
		c-0.4,0.3-0.8,0.6-1,1c-0.3,0.4-0.4,0.9-0.4,1.6c0,0.6,0.1,1,0.3,1.4c0.2,0.4,0.7,0.7,1.3,1c0.6,0.3,1.5,0.6,2.7,0.9
		c1.1,0.3,2.6,0.7,4.5,1.2c0.5,0.1,1.3,0.3,2.3,0.6c1,0.3,1.9,0.7,2.9,1.4c1,0.6,1.8,1.5,2.5,2.5c0.7,1.1,1.1,2.4,1.1,4.1
		c0,1.3-0.3,2.6-0.8,3.7c-0.5,1.2-1.3,2.1-2.3,3c-1,0.8-2.3,1.5-3.8,2c-1.5,0.5-3.3,0.7-5.3,0.7c-1.6,0-3.2-0.2-4.7-0.6
		c-1.5-0.4-2.9-1-4-1.9c-1.2-0.9-2.1-1.9-2.8-3.3c-0.7-1.3-1-2.9-1-4.7h6.3C152.3,212.5,152.5,213.3,152.8,214z"/>
	<path class="st0" d="M189.3,191.8l11,29.4h-6.7l-2.2-6.5h-11l-2.3,6.5h-6.5l11.1-29.4H189.3z M189.6,209.9l-3.7-10.8h-0.1
		l-3.8,10.8H189.6z"/>
	<path class="st0" d="M209.2,191.8l12.3,19.7h0.1v-19.7h6.1v29.4h-6.5l-12.2-19.7h-0.1v19.7h-6.1v-29.4H209.2z"/>
	<path class="st0" d="M246,191.8c1.9,0,3.7,0.3,5.3,0.9c1.6,0.6,3,1.5,4.2,2.7c1.2,1.2,2.1,2.7,2.8,4.5c0.7,1.8,1,3.9,1,6.4
		c0,2.1-0.3,4.1-0.8,5.9c-0.5,1.8-1.4,3.4-2.5,4.7c-1.1,1.3-2.5,2.4-4.2,3.1c-1.7,0.8-3.6,1.1-5.9,1.1h-12.7v-29.4H246z
		 M245.5,215.8c0.9,0,1.8-0.2,2.7-0.5c0.9-0.3,1.7-0.8,2.3-1.5c0.7-0.7,1.2-1.6,1.6-2.7c0.4-1.1,0.6-2.5,0.6-4.1
		c0-1.5-0.1-2.8-0.4-4c-0.3-1.2-0.8-2.2-1.4-3.1c-0.7-0.9-1.5-1.5-2.6-2c-1.1-0.5-2.4-0.7-4-0.7h-4.6v18.5H245.5z"/>
</g>
<g>
	<path class="st0" d="M34.6,253.8c0.4,0.7,0.8,1.2,1.4,1.7c0.6,0.4,1.3,0.7,2.1,0.9c0.8,0.2,1.6,0.3,2.5,0.3c0.6,0,1.2,0,1.9-0.1
		c0.7-0.1,1.3-0.3,1.9-0.6c0.6-0.3,1.1-0.7,1.4-1.1c0.4-0.5,0.6-1.1,0.6-1.8c0-0.8-0.3-1.4-0.8-1.9c-0.5-0.5-1.2-0.9-2-1.2
		c-0.8-0.3-1.8-0.6-2.8-0.9c-1-0.2-2.1-0.5-3.2-0.8c-1.1-0.3-2.2-0.6-3.2-1c-1-0.4-2-0.9-2.8-1.5c-0.8-0.6-1.5-1.4-2-2.4
		c-0.5-0.9-0.8-2.1-0.8-3.4c0-1.5,0.3-2.8,1-3.9c0.6-1.1,1.5-2,2.5-2.8c1-0.7,2.2-1.3,3.5-1.6c1.3-0.4,2.6-0.5,4-0.5
		c1.5,0,3,0.2,4.4,0.5c1.4,0.3,2.7,0.9,3.8,1.7c1.1,0.8,2,1.8,2.6,2.9c0.6,1.2,1,2.6,1,4.3h-6.3c-0.1-0.9-0.2-1.6-0.6-2.2
		c-0.3-0.6-0.7-1-1.3-1.4c-0.5-0.3-1.1-0.6-1.8-0.7c-0.7-0.1-1.4-0.2-2.2-0.2c-0.5,0-1,0.1-1.6,0.2c-0.5,0.1-1,0.3-1.4,0.6
		c-0.4,0.3-0.8,0.6-1,1c-0.3,0.4-0.4,0.9-0.4,1.6c0,0.6,0.1,1,0.3,1.4c0.2,0.4,0.7,0.7,1.3,1c0.6,0.3,1.5,0.6,2.7,0.9
		c1.1,0.3,2.6,0.7,4.5,1.2c0.5,0.1,1.3,0.3,2.3,0.6c1,0.3,1.9,0.7,2.9,1.4c1,0.6,1.8,1.5,2.5,2.5c0.7,1.1,1,2.4,1,4.1
		c0,1.3-0.3,2.6-0.8,3.7c-0.5,1.2-1.3,2.1-2.3,3c-1,0.8-2.3,1.5-3.8,2c-1.5,0.5-3.3,0.7-5.3,0.7c-1.6,0-3.2-0.2-4.7-0.6
		c-1.5-0.4-2.9-1-4-1.9c-1.2-0.9-2.1-1.9-2.8-3.3c-0.7-1.3-1-2.9-1-4.7h6.3C34.1,252.3,34.2,253.2,34.6,253.8z"/>
	<path class="st0" d="M65.5,231.7l6.9,20.2h0.1l6.5-20.2H88v29.4H82v-20.8h-0.1l-7.2,20.8h-5l-7.2-20.6h-0.1v20.6h-6.1v-29.4H65.5z"
		/>
	<path class="st0" d="M100.2,231.7v29.4h-6.5v-29.4H100.2z"/>
	<path class="st0" d="M112.3,231.7v24h14.3v5.4h-20.8v-29.4H112.3z"/>
	<path class="st0" d="M152.3,231.7v5.4h-15.5v6.3H151v5h-14.2v7.2h15.9v5.4h-22.3v-29.4H152.3z"/>
	<path class="st0" d="M161.9,253.8c0.4,0.7,0.8,1.2,1.4,1.7c0.6,0.4,1.3,0.7,2.1,0.9c0.8,0.2,1.6,0.3,2.5,0.3c0.6,0,1.2,0,1.9-0.1
		c0.7-0.1,1.3-0.3,1.9-0.6c0.6-0.3,1.1-0.7,1.4-1.1c0.4-0.5,0.6-1.1,0.6-1.8c0-0.8-0.3-1.4-0.8-1.9s-1.2-0.9-2-1.2
		c-0.8-0.3-1.8-0.6-2.8-0.9c-1-0.2-2.1-0.5-3.2-0.8c-1.1-0.3-2.2-0.6-3.2-1c-1-0.4-2-0.9-2.8-1.5c-0.8-0.6-1.5-1.4-2-2.4
		c-0.5-0.9-0.8-2.1-0.8-3.4c0-1.5,0.3-2.8,1-3.9c0.6-1.1,1.5-2,2.5-2.8c1-0.7,2.2-1.3,3.5-1.6c1.3-0.4,2.6-0.5,4-0.5
		c1.5,0,3,0.2,4.4,0.5s2.7,0.9,3.8,1.7c1.1,0.8,2,1.8,2.6,2.9c0.6,1.2,1,2.6,1,4.3h-6.3c-0.1-0.9-0.2-1.6-0.6-2.2
		c-0.3-0.6-0.7-1-1.3-1.4c-0.5-0.3-1.1-0.6-1.8-0.7c-0.7-0.1-1.4-0.2-2.2-0.2c-0.5,0-1,0.1-1.6,0.2c-0.5,0.1-1,0.3-1.4,0.6
		c-0.4,0.3-0.8,0.6-1,1c-0.3,0.4-0.4,0.9-0.4,1.6c0,0.6,0.1,1,0.3,1.4c0.2,0.4,0.7,0.7,1.3,1c0.6,0.3,1.5,0.6,2.7,0.9
		c1.1,0.3,2.6,0.7,4.5,1.2c0.5,0.1,1.3,0.3,2.3,0.6c1,0.3,1.9,0.7,2.9,1.4c1,0.6,1.8,1.5,2.5,2.5c0.7,1.1,1.1,2.4,1.1,4.1
		c0,1.3-0.3,2.6-0.8,3.7c-0.5,1.2-1.3,2.1-2.3,3c-1,0.8-2.3,1.5-3.8,2c-1.5,0.5-3.3,0.7-5.3,0.7c-1.6,0-3.2-0.2-4.7-0.6
		c-1.5-0.4-2.9-1-4-1.9c-1.2-0.9-2.1-1.9-2.8-3.3c-0.7-1.3-1-2.9-1-4.7h6.3C161.4,252.3,161.6,253.2,161.9,253.8z"/>
</g>
<g>
	<path d="M34.9,271.5v10.7H35c0.7-1.1,1.7-1.9,2.9-2.4c1.2-0.5,2.5-0.8,3.8-0.8c1.1,0,2.1,0.2,3.2,0.7c1,0.4,2,1.1,2.8,2
		c0.8,0.9,1.5,2.1,2,3.5c0.5,1.4,0.8,3.1,0.8,5c0,1.9-0.3,3.6-0.8,5c-0.5,1.4-1.2,2.6-2,3.5c-0.8,0.9-1.8,1.6-2.8,2
		c-1,0.4-2.1,0.7-3.2,0.7c-1.6,0-3-0.2-4.2-0.7s-2.2-1.3-2.8-2.5h-0.1v2.7H29v-29.4H34.9z M44.3,287.7c-0.2-0.8-0.5-1.6-0.9-2.2
		c-0.4-0.6-0.9-1.1-1.5-1.5s-1.4-0.6-2.2-0.6c-0.9,0-1.6,0.2-2.2,0.6c-0.6,0.4-1.2,0.9-1.6,1.5c-0.4,0.6-0.7,1.4-0.9,2.2
		c-0.2,0.8-0.3,1.7-0.3,2.6c0,0.9,0.1,1.7,0.3,2.6c0.2,0.8,0.5,1.6,0.9,2.2c0.4,0.6,0.9,1.1,1.6,1.5c0.6,0.4,1.4,0.6,2.2,0.6
		c0.9,0,1.6-0.2,2.2-0.6s1.1-0.9,1.5-1.5c0.4-0.6,0.7-1.4,0.9-2.2c0.2-0.8,0.3-1.7,0.3-2.6C44.6,289.4,44.5,288.6,44.3,287.7z"/>
	<path d="M60.4,295.8c0.9,0.9,2.1,1.3,3.8,1.3c1.2,0,2.2-0.3,3-0.9c0.9-0.6,1.4-1.2,1.6-1.9H74c-0.8,2.6-2.1,4.4-3.8,5.5
		c-1.7,1.1-3.8,1.6-6.2,1.6c-1.7,0-3.2-0.3-4.5-0.8c-1.3-0.5-2.5-1.3-3.4-2.3c-0.9-1-1.7-2.2-2.2-3.5c-0.5-1.4-0.8-2.9-0.8-4.5
		c0-1.6,0.3-3.1,0.8-4.4c0.5-1.4,1.3-2.6,2.2-3.6c1-1,2.1-1.8,3.4-2.4c1.3-0.6,2.8-0.9,4.4-0.9c1.8,0,3.4,0.4,4.7,1
		c1.3,0.7,2.5,1.6,3.3,2.8c0.9,1.2,1.5,2.5,1.9,4c0.4,1.5,0.5,3.1,0.4,4.7H59C59.1,293.6,59.6,295,60.4,295.8z M67.1,284.6
		c-0.7-0.8-1.8-1.2-3.2-1.2c-0.9,0-1.7,0.2-2.3,0.5c-0.6,0.3-1.1,0.7-1.5,1.2s-0.6,1-0.8,1.5c-0.2,0.5-0.2,1-0.3,1.4h9.5
		C68.2,286.5,67.8,285.4,67.1,284.6z"/>
	<path d="M97.9,302.5c-0.2,1.1-0.7,2.1-1.5,3.1c-0.8,0.9-1.9,1.8-3.3,2.4c-1.5,0.7-3.4,1-5.8,1c-1,0-2.1-0.1-3.2-0.4
		c-1.1-0.3-2.1-0.7-3-1.2c-0.9-0.5-1.6-1.3-2.2-2.1c-0.6-0.9-0.9-1.9-1-3.1h5.8c0.3,1.1,0.8,1.9,1.6,2.3c0.8,0.4,1.7,0.6,2.8,0.6
		c1.6,0,2.8-0.5,3.6-1.5c0.8-1,1.1-2.2,1.1-3.7V297h-0.1c-0.6,1.1-1.5,2-2.7,2.5c-1.2,0.5-2.4,0.8-3.7,0.8c-1.6,0-3-0.3-4.1-0.8
		c-1.2-0.6-2.1-1.3-2.8-2.3c-0.7-1-1.3-2.1-1.6-3.4c-0.3-1.3-0.5-2.7-0.5-4.1c0-1.4,0.2-2.7,0.6-4c0.4-1.3,1-2.4,1.8-3.4
		c0.8-1,1.7-1.8,2.9-2.3c1.1-0.6,2.4-0.9,3.9-0.9c1.4,0,2.6,0.3,3.7,0.8c1.1,0.5,1.9,1.4,2.7,2.6h0.1v-2.8h5.6v19.9
		C98.3,300.4,98.2,301.4,97.9,302.5z M89.9,295.4c0.6-0.3,1.2-0.8,1.6-1.3c0.4-0.5,0.7-1.2,0.9-1.9c0.2-0.7,0.3-1.4,0.3-2.2
		c0-0.9-0.1-1.7-0.2-2.5s-0.4-1.5-0.8-2.1c-0.4-0.6-0.9-1.1-1.5-1.4c-0.6-0.4-1.4-0.5-2.4-0.5c-0.8,0-1.5,0.2-2.1,0.5
		c-0.6,0.3-1.1,0.8-1.5,1.3c-0.4,0.6-0.7,1.2-0.9,1.9c-0.2,0.7-0.3,1.5-0.3,2.3c0,0.8,0.1,1.5,0.2,2.3c0.2,0.8,0.4,1.4,0.8,2
		c0.4,0.6,0.9,1.1,1.5,1.5c0.6,0.4,1.4,0.6,2.3,0.6C88.6,295.9,89.3,295.8,89.9,295.4z"/>
	<path d="M103.1,276.4v-4.8h5.8v4.8H103.1z M109,279.7v21.3h-5.8v-21.3H109z"/>
	<path d="M119.2,279.7v3h0.1c0.7-1.2,1.7-2.1,2.9-2.7c1.2-0.6,2.4-0.8,3.6-0.8c1.6,0,2.8,0.2,3.9,0.6c1,0.4,1.8,1,2.4,1.8
		c0.6,0.8,1,1.7,1.2,2.8c0.2,1.1,0.4,2.3,0.4,3.6v13.1h-5.8v-12c0-1.8-0.3-3.1-0.8-3.9c-0.5-0.9-1.5-1.3-2.9-1.3
		c-1.6,0-2.7,0.5-3.5,1.4c-0.7,0.9-1.1,2.5-1.1,4.7v11.2h-5.8v-21.3H119.2z"/>
	<path d="M142.9,295.7c0.3,0.5,0.6,0.8,1,1.1c0.4,0.3,0.9,0.5,1.4,0.6c0.5,0.1,1.1,0.2,1.7,0.2c0.4,0,0.8,0,1.3-0.1
		c0.5-0.1,0.9-0.2,1.2-0.5c0.4-0.2,0.7-0.5,0.9-0.8s0.4-0.8,0.4-1.3c0-0.9-0.6-1.5-1.8-2c-1.2-0.4-2.8-0.9-4.9-1.3
		c-0.9-0.2-1.7-0.4-2.5-0.7c-0.8-0.3-1.5-0.6-2.2-1c-0.6-0.4-1.1-1-1.5-1.6c-0.4-0.6-0.6-1.4-0.6-2.4c0-1.4,0.3-2.5,0.8-3.4
		c0.5-0.9,1.2-1.6,2.1-2.1c0.9-0.5,1.9-0.9,3-1.1c1.1-0.2,2.2-0.3,3.4-0.3s2.3,0.1,3.4,0.3c1.1,0.2,2.1,0.6,2.9,1.1
		c0.9,0.5,1.6,1.2,2.1,2.1c0.6,0.9,0.9,2,1,3.3h-5.6c-0.1-1.1-0.5-1.9-1.3-2.3c-0.8-0.4-1.7-0.6-2.7-0.6c-0.3,0-0.7,0-1.1,0.1
		c-0.4,0-0.7,0.1-1,0.3c-0.3,0.1-0.6,0.3-0.8,0.6c-0.2,0.3-0.3,0.6-0.3,1c0,0.5,0.2,0.9,0.6,1.3c0.4,0.3,0.9,0.6,1.5,0.8
		c0.6,0.2,1.3,0.4,2.1,0.6c0.8,0.2,1.6,0.3,2.4,0.5c0.9,0.2,1.7,0.4,2.5,0.7c0.8,0.3,1.5,0.6,2.2,1.1c0.6,0.5,1.1,1,1.5,1.7
		c0.4,0.7,0.6,1.5,0.6,2.5c0,1.4-0.3,2.6-0.8,3.5c-0.6,0.9-1.3,1.7-2.2,2.3c-0.9,0.6-1.9,1-3.1,1.2c-1.2,0.2-2.4,0.3-3.6,0.3
		c-1.2,0-2.4-0.1-3.6-0.4c-1.2-0.2-2.2-0.7-3.2-1.2c-0.9-0.6-1.7-1.3-2.3-2.3c-0.6-0.9-0.9-2.1-1-3.6h5.6
		C142.6,294.7,142.7,295.2,142.9,295.7z"/>
	<path d="M189.9,300.9l-3.8-14.3H186l-3.6,14.3h-6.1l-6.8-21.3h6.2l3.9,14.5h0.1l3.5-14.5h5.7l3.6,14.4h0.1l3.9-14.4h6l-6.7,21.3
		H189.9z"/>
	<path d="M205.3,276.4v-4.8h5.8v4.8H205.3z M211.1,279.7v21.3h-5.8v-21.3H211.1z"/>
	<path d="M227.4,279.7v3.9h-4.3v10.5c0,1,0.2,1.6,0.5,2c0.3,0.3,1,0.5,2,0.5c0.3,0,0.6,0,0.9,0c0.3,0,0.6-0.1,0.9-0.1v4.5
		c-0.5,0.1-1,0.1-1.6,0.2c-0.6,0-1.2,0-1.8,0c-0.9,0-1.8-0.1-2.6-0.2c-0.8-0.1-1.5-0.4-2.1-0.7c-0.6-0.4-1.1-0.9-1.5-1.5
		s-0.5-1.5-0.5-2.6v-12.6h-3.5v-3.9h3.5v-6.4h5.8v6.4H227.4z"/>
	<path d="M236.1,271.5v11.1h0.1c0.7-1.2,1.7-2.1,2.8-2.7c1.2-0.6,2.3-0.8,3.4-0.8c1.6,0,2.8,0.2,3.9,0.6c1,0.4,1.8,1,2.4,1.8
		c0.6,0.8,1,1.7,1.2,2.8c0.2,1.1,0.3,2.3,0.3,3.6v13.1h-5.8v-12c0-1.8-0.3-3.1-0.8-3.9c-0.5-0.9-1.5-1.3-2.9-1.3
		c-1.6,0-2.7,0.5-3.5,1.4c-0.7,0.9-1.1,2.5-1.1,4.7v11.2h-5.8v-29.4H236.1z"/>
</g>
<g>
	<path d="M28.8,326.1c0.1-1.4,0.4-2.5,1-3.4c0.6-0.9,1.4-1.6,2.3-2.2c0.9-0.5,2-0.9,3.1-1.2c1.2-0.2,2.3-0.3,3.5-0.3
		c1.1,0,2.2,0.1,3.3,0.2c1.1,0.2,2.1,0.4,3,0.9c0.9,0.4,1.6,1.1,2.2,1.8s0.9,1.8,0.9,3.1v11.1c0,1,0.1,1.9,0.2,2.8
		c0.1,0.9,0.3,1.5,0.6,2h-5.9c-0.1-0.3-0.2-0.7-0.3-1c-0.1-0.3-0.1-0.7-0.1-1c-0.9,1-2,1.6-3.3,2c-1.3,0.4-2.6,0.6-3.9,0.6
		c-1,0-2-0.1-2.8-0.4c-0.9-0.2-1.6-0.6-2.3-1.2c-0.7-0.5-1.2-1.2-1.5-2c-0.4-0.8-0.6-1.7-0.6-2.8c0-1.2,0.2-2.2,0.6-3
		c0.4-0.8,1-1.4,1.6-1.9c0.7-0.5,1.4-0.8,2.3-1s1.7-0.4,2.6-0.6c0.9-0.1,1.7-0.2,2.6-0.3c0.9-0.1,1.6-0.2,2.3-0.4
		c0.7-0.2,1.2-0.4,1.6-0.7c0.4-0.3,0.6-0.8,0.5-1.4c0-0.6-0.1-1.1-0.3-1.5c-0.2-0.4-0.5-0.7-0.8-0.9c-0.3-0.2-0.7-0.3-1.2-0.4
		c-0.5-0.1-0.9-0.1-1.5-0.1c-1.2,0-2.1,0.2-2.7,0.7c-0.7,0.5-1,1.3-1.2,2.5H28.8z M42.3,330.4c-0.2,0.2-0.6,0.4-0.9,0.5
		c-0.4,0.1-0.8,0.2-1.2,0.3c-0.4,0.1-0.9,0.2-1.3,0.2c-0.5,0.1-0.9,0.1-1.4,0.2c-0.4,0.1-0.9,0.2-1.3,0.3c-0.4,0.1-0.8,0.3-1.1,0.6
		c-0.3,0.2-0.6,0.5-0.8,0.9c-0.2,0.4-0.3,0.8-0.3,1.4c0,0.5,0.1,1,0.3,1.3c0.2,0.4,0.5,0.6,0.8,0.8c0.3,0.2,0.7,0.4,1.2,0.4
		c0.4,0.1,0.9,0.1,1.4,0.1c1.2,0,2-0.2,2.7-0.6c0.6-0.4,1.1-0.8,1.4-1.4c0.3-0.5,0.5-1.1,0.6-1.6c0.1-0.5,0.1-1,0.1-1.3V330.4z"/>
	<path d="M69,335.5c0.3,0.5,0.6,0.8,1,1.1c0.4,0.3,0.9,0.5,1.4,0.6s1.1,0.2,1.7,0.2c0.4,0,0.8,0,1.3-0.1c0.5-0.1,0.9-0.2,1.2-0.5
		s0.7-0.5,0.9-0.8c0.2-0.3,0.4-0.8,0.4-1.3c0-0.9-0.6-1.5-1.8-2c-1.2-0.4-2.8-0.9-4.9-1.3c-0.9-0.2-1.7-0.4-2.5-0.7
		c-0.8-0.3-1.5-0.6-2.2-1c-0.6-0.4-1.1-1-1.5-1.6c-0.4-0.6-0.6-1.4-0.6-2.4c0-1.4,0.3-2.5,0.8-3.4c0.5-0.9,1.2-1.6,2.1-2.1
		c0.9-0.5,1.9-0.9,3-1.1c1.1-0.2,2.2-0.3,3.4-0.3c1.2,0,2.3,0.1,3.4,0.3c1.1,0.2,2.1,0.6,2.9,1.1c0.9,0.5,1.6,1.2,2.1,2.1
		c0.6,0.9,0.9,2,1,3.3h-5.6c-0.1-1.1-0.5-1.9-1.3-2.3c-0.8-0.4-1.7-0.6-2.7-0.6c-0.3,0-0.7,0-1.1,0.1c-0.4,0-0.7,0.1-1,0.3
		c-0.3,0.1-0.6,0.3-0.8,0.6c-0.2,0.3-0.3,0.6-0.3,1.1c0,0.5,0.2,0.9,0.6,1.3c0.4,0.3,0.9,0.6,1.5,0.8s1.3,0.4,2.1,0.6
		c0.8,0.2,1.6,0.3,2.4,0.5c0.9,0.2,1.7,0.4,2.5,0.7c0.8,0.3,1.5,0.6,2.2,1.1c0.6,0.5,1.1,1,1.5,1.7c0.4,0.7,0.6,1.5,0.6,2.5
		c0,1.4-0.3,2.6-0.8,3.5c-0.6,0.9-1.3,1.7-2.2,2.3s-1.9,1-3.1,1.2c-1.2,0.2-2.4,0.3-3.6,0.3c-1.2,0-2.4-0.1-3.6-0.4
		c-1.2-0.2-2.2-0.7-3.1-1.2c-0.9-0.6-1.7-1.3-2.3-2.3c-0.6-0.9-0.9-2.1-1-3.6h5.6C68.6,334.5,68.8,335.1,69,335.5z"/>
	<path d="M86.4,316.2v-4.8h5.8v4.8H86.4z M92.2,319.5v21.3h-5.8v-21.3H92.2z"/>
	<path d="M102.4,319.5v3h0.1c0.7-1.2,1.7-2.1,2.9-2.7c1.2-0.6,2.4-0.8,3.6-0.8c1.6,0,2.8,0.2,3.9,0.6c1,0.4,1.8,1,2.4,1.8
		c0.6,0.8,1,1.7,1.2,2.8c0.2,1.1,0.4,2.3,0.4,3.6v13.1H111v-12c0-1.8-0.3-3.1-0.8-3.9c-0.5-0.9-1.5-1.3-2.9-1.3
		c-1.6,0-2.7,0.5-3.5,1.4c-0.7,0.9-1.1,2.5-1.1,4.7v11.2h-5.8v-21.3H102.4z"/>
	<path d="M141.4,342.4c-0.2,1.1-0.7,2.1-1.5,3.1c-0.8,0.9-1.9,1.8-3.3,2.4c-1.5,0.7-3.4,1-5.8,1c-1,0-2.1-0.1-3.2-0.4
		c-1.1-0.3-2.1-0.7-3-1.2c-0.9-0.5-1.6-1.3-2.2-2.1c-0.6-0.9-0.9-1.9-1-3.1h5.8c0.3,1.1,0.8,1.9,1.6,2.3c0.8,0.4,1.7,0.6,2.8,0.6
		c1.6,0,2.8-0.5,3.6-1.5c0.8-1,1.1-2.2,1.1-3.7v-2.8h-0.1c-0.6,1.1-1.5,2-2.7,2.5c-1.2,0.5-2.4,0.8-3.7,0.8c-1.6,0-3-0.3-4.1-0.8
		c-1.2-0.6-2.1-1.3-2.8-2.3s-1.3-2.1-1.6-3.4c-0.3-1.3-0.5-2.7-0.5-4.1c0-1.4,0.2-2.7,0.6-4c0.4-1.3,1-2.4,1.8-3.4
		c0.8-1,1.7-1.8,2.9-2.3c1.1-0.6,2.4-0.9,3.9-0.9c1.4,0,2.6,0.3,3.7,0.8c1.1,0.5,1.9,1.4,2.7,2.6h0.1v-2.8h5.6v19.9
		C141.7,340.3,141.6,341.3,141.4,342.4z M133.4,335.3c0.6-0.3,1.2-0.8,1.6-1.3c0.4-0.5,0.7-1.2,0.9-1.9s0.3-1.4,0.3-2.2
		c0-0.9-0.1-1.7-0.2-2.5s-0.4-1.5-0.8-2.1c-0.4-0.6-0.9-1.1-1.5-1.4c-0.6-0.4-1.4-0.5-2.4-0.5c-0.8,0-1.5,0.2-2.1,0.5
		c-0.6,0.3-1.1,0.8-1.5,1.3c-0.4,0.6-0.7,1.2-0.9,1.9c-0.2,0.7-0.3,1.5-0.3,2.3c0,0.8,0.1,1.5,0.2,2.3c0.2,0.8,0.4,1.4,0.8,2
		c0.4,0.6,0.9,1.1,1.5,1.5c0.6,0.4,1.4,0.6,2.3,0.6C132,335.8,132.7,335.6,133.4,335.3z"/>
	<path d="M152.4,311.4v29.4h-5.8v-29.4H152.4z"/>
	<path d="M163.3,335.7c0.9,0.9,2.1,1.3,3.8,1.3c1.2,0,2.2-0.3,3-0.9c0.9-0.6,1.4-1.2,1.6-1.9h5.1c-0.8,2.6-2.1,4.4-3.8,5.5
		s-3.8,1.6-6.2,1.6c-1.7,0-3.2-0.3-4.5-0.8s-2.5-1.3-3.4-2.3c-0.9-1-1.7-2.2-2.2-3.5c-0.5-1.4-0.8-2.9-0.8-4.5
		c0-1.6,0.3-3.1,0.8-4.4c0.5-1.4,1.3-2.6,2.2-3.6s2.1-1.8,3.4-2.4c1.3-0.6,2.8-0.9,4.4-0.9c1.8,0,3.4,0.3,4.7,1
		c1.3,0.7,2.5,1.6,3.3,2.8c0.9,1.2,1.5,2.5,1.9,4c0.4,1.5,0.5,3.1,0.4,4.7h-15.4C161.9,333.5,162.4,334.8,163.3,335.7z M169.9,324.5
		c-0.7-0.8-1.8-1.2-3.2-1.2c-0.9,0-1.7,0.2-2.3,0.5c-0.6,0.3-1.1,0.7-1.5,1.2c-0.4,0.5-0.6,1-0.8,1.5c-0.2,0.5-0.2,1-0.3,1.4h9.5
		C171.1,326.4,170.6,325.3,169.9,324.5z"/>
	<path d="M197.7,333.6c0.4,0.7,0.8,1.2,1.4,1.7c0.6,0.4,1.3,0.7,2.1,0.9c0.8,0.2,1.6,0.3,2.5,0.3c0.6,0,1.2,0,1.9-0.1
		c0.7-0.1,1.3-0.3,1.9-0.6c0.6-0.3,1.1-0.7,1.4-1.1c0.4-0.5,0.6-1.1,0.6-1.8c0-0.8-0.3-1.4-0.8-1.9s-1.2-0.9-2-1.2
		c-0.8-0.3-1.8-0.6-2.8-0.9c-1-0.2-2.1-0.5-3.2-0.8c-1.1-0.3-2.2-0.6-3.2-1c-1-0.4-2-0.9-2.8-1.5c-0.8-0.6-1.5-1.4-2-2.4
		c-0.5-0.9-0.8-2.1-0.8-3.4c0-1.5,0.3-2.8,1-3.9c0.6-1.1,1.5-2,2.5-2.8c1-0.7,2.2-1.3,3.5-1.6c1.3-0.4,2.6-0.5,4-0.5
		c1.5,0,3,0.2,4.4,0.5c1.4,0.3,2.7,0.9,3.8,1.7s2,1.8,2.6,2.9c0.6,1.2,1,2.6,1,4.3h-6.3c-0.1-0.9-0.2-1.6-0.6-2.2s-0.7-1-1.3-1.4
		c-0.5-0.3-1.1-0.6-1.8-0.7c-0.7-0.1-1.4-0.2-2.2-0.2c-0.5,0-1,0.1-1.6,0.2c-0.5,0.1-1,0.3-1.4,0.6s-0.8,0.6-1,1
		c-0.3,0.4-0.4,0.9-0.4,1.6c0,0.6,0.1,1,0.3,1.4c0.2,0.4,0.7,0.7,1.3,1c0.6,0.3,1.5,0.6,2.7,0.9c1.1,0.3,2.6,0.7,4.5,1.2
		c0.5,0.1,1.3,0.3,2.3,0.6c1,0.3,1.9,0.7,2.9,1.4c1,0.6,1.8,1.5,2.5,2.5c0.7,1.1,1.1,2.4,1.1,4.1c0,1.3-0.3,2.6-0.8,3.7
		c-0.5,1.2-1.3,2.1-2.3,3c-1,0.8-2.3,1.5-3.8,2c-1.5,0.5-3.3,0.7-5.3,0.7c-1.6,0-3.2-0.2-4.7-0.6c-1.5-0.4-2.9-1-4-1.9
		s-2.1-1.9-2.8-3.3c-0.7-1.3-1-2.9-1-4.7h6.3C197.2,332,197.3,332.9,197.7,333.6z"/>
	<path d="M217.2,316.8v-5.4h24.1v5.4h-8.8v24H226v-24H217.2z"/>
	<path d="M266.6,311.4v5.4h-15.5v6.3h14.2v5h-14.2v7.2H267v5.4h-22.3v-29.4H266.6z"/>
	<path d="M284.6,311.4c1.8,0,3.4,0.3,4.7,0.8c1.3,0.5,2.3,1.2,3.1,2.1c0.8,0.9,1.4,1.9,1.8,3c0.4,1.1,0.6,2.3,0.6,3.5
		c0,1.2-0.2,2.3-0.6,3.5c-0.4,1.1-1,2.1-1.8,3s-1.9,1.6-3.1,2.1c-1.3,0.5-2.9,0.8-4.7,0.8h-6.8v10.5h-6.5v-29.4H284.6z M282.8,325.2
		c0.7,0,1.5-0.1,2.1-0.2s1.3-0.3,1.8-0.6c0.5-0.3,0.9-0.8,1.3-1.3c0.3-0.6,0.5-1.3,0.5-2.3s-0.2-1.7-0.5-2.3c-0.3-0.6-0.7-1-1.3-1.3
		c-0.5-0.3-1.1-0.5-1.8-0.6c-0.7-0.1-1.4-0.2-2.1-0.2h-5v8.8H282.8z"/>
</g>
</svg>
