<?xml version="1.0" encoding="utf-8"?>
<!-- Generator: Adobe Illustrator 25.4.1, SVG Export Plug-In . SVG Version: 6.00 Build 0)  -->
<svg version="1.1" id="Layer_1" xmlns="http://www.w3.org/2000/svg" xmlns:xlink="http://www.w3.org/1999/xlink" x="0px" y="0px"
	 viewBox="0 0 300 600" style="enable-background:new 0 0 300 600;" xml:space="preserve">
<g>
	<path d="M46.9,142c1.2,0,2.3,0.2,3.2,0.6c0.9,0.4,1.8,0.9,2.4,1.6c0.7,0.7,1.2,1.4,1.6,2.3c0.4,0.9,0.5,1.8,0.5,2.8
		c0,1.6-0.3,2.9-1,4c-0.7,1.1-1.7,2-3.2,2.6v0.1c0.7,0.2,1.3,0.5,1.8,0.9c0.5,0.4,0.9,0.9,1.1,1.4s0.5,1.2,0.6,1.8
		c0.1,0.7,0.2,1.3,0.3,2c0,0.4,0,0.9,0.1,1.5c0,0.6,0.1,1.1,0.1,1.7c0.1,0.6,0.2,1.2,0.3,1.7c0.1,0.5,0.3,1,0.6,1.4h-5.8
		c-0.3-0.8-0.5-1.8-0.6-3c-0.1-1.2-0.2-2.3-0.3-3.3c-0.2-1.4-0.6-2.4-1.3-3c-0.6-0.6-1.7-1-3.1-1h-5.8v10.3h-5.8V142H46.9z
		 M44.8,154c1.3,0,2.3-0.3,3-0.9s1-1.6,1-2.9c0-1.3-0.3-2.2-1-2.8c-0.7-0.6-1.7-0.9-3-0.9h-6.4v7.4H44.8z"/>
	<path d="M64.4,163.9c0.8,0.8,1.9,1.1,3.4,1.1c1.1,0,2-0.3,2.7-0.8c0.8-0.5,1.2-1.1,1.4-1.7h4.6c-0.7,2.3-1.9,3.9-3.4,4.9
		c-1.5,1-3.4,1.5-5.6,1.5c-1.5,0-2.9-0.2-4.1-0.7c-1.2-0.5-2.2-1.2-3.1-2.1c-0.8-0.9-1.5-1.9-1.9-3.2c-0.5-1.2-0.7-2.6-0.7-4.1
		c0-1.4,0.2-2.8,0.7-4c0.5-1.2,1.1-2.3,2-3.2c0.9-0.9,1.9-1.6,3.1-2.1s2.5-0.8,4-0.8c1.6,0,3,0.3,4.3,0.9c1.2,0.6,2.2,1.5,3,2.5
		c0.8,1.1,1.3,2.3,1.7,3.6c0.3,1.4,0.5,2.8,0.4,4.3H63.1C63.2,161.9,63.6,163.1,64.4,163.9z M70.3,153.8c-0.6-0.7-1.6-1-2.9-1
		c-0.8,0-1.5,0.1-2.1,0.4c-0.6,0.3-1,0.6-1.3,1.1c-0.3,0.4-0.6,0.9-0.7,1.3c-0.1,0.5-0.2,0.9-0.2,1.3h8.5
		C71.4,155.5,71,154.5,70.3,153.8z"/>
	<path d="M79.8,155.2c0.1-1.2,0.4-2.3,0.9-3.1c0.5-0.8,1.2-1.5,2.1-2c0.8-0.5,1.8-0.8,2.8-1.1c1-0.2,2.1-0.3,3.2-0.3
		c1,0,1.9,0.1,2.9,0.2c1,0.1,1.9,0.4,2.7,0.8c0.8,0.4,1.5,0.9,2,1.6s0.8,1.6,0.8,2.8v10c0,0.9,0,1.7,0.1,2.5
		c0.1,0.8,0.3,1.4,0.5,1.8h-5.3c-0.1-0.3-0.2-0.6-0.2-0.9c-0.1-0.3-0.1-0.6-0.1-0.9c-0.8,0.9-1.8,1.5-3,1.8
		c-1.1,0.3-2.3,0.5-3.5,0.5c-0.9,0-1.8-0.1-2.6-0.3c-0.8-0.2-1.5-0.6-2.1-1c-0.6-0.5-1.1-1.1-1.4-1.8c-0.3-0.7-0.5-1.6-0.5-2.6
		c0-1.1,0.2-2,0.6-2.7s0.9-1.3,1.5-1.7c0.6-0.4,1.3-0.7,2.1-0.9c0.8-0.2,1.6-0.4,2.3-0.5c0.8-0.1,1.6-0.2,2.3-0.3
		c0.8-0.1,1.4-0.2,2-0.3c0.6-0.1,1.1-0.4,1.4-0.6c0.3-0.3,0.5-0.7,0.5-1.2c0-0.6-0.1-1-0.3-1.4c-0.2-0.3-0.4-0.6-0.7-0.8
		c-0.3-0.2-0.7-0.3-1.1-0.4c-0.4-0.1-0.8-0.1-1.3-0.1c-1,0-1.8,0.2-2.4,0.7c-0.6,0.4-0.9,1.2-1,2.2H79.8z M91.9,159.1
		c-0.2,0.2-0.5,0.4-0.8,0.5s-0.7,0.2-1.1,0.3c-0.4,0.1-0.8,0.1-1.2,0.2c-0.4,0-0.8,0.1-1.3,0.2c-0.4,0.1-0.8,0.2-1.2,0.3
		c-0.4,0.1-0.7,0.3-1,0.5c-0.3,0.2-0.5,0.5-0.7,0.8c-0.2,0.3-0.3,0.7-0.3,1.2c0,0.5,0.1,0.9,0.3,1.2c0.2,0.3,0.4,0.6,0.7,0.8
		s0.6,0.3,1,0.4c0.4,0.1,0.8,0.1,1.2,0.1c1,0,1.8-0.2,2.4-0.5c0.6-0.3,1-0.8,1.3-1.2s0.4-1,0.5-1.5c0.1-0.5,0.1-0.9,0.1-1.2V159.1z"
		/>
	<path d="M114.8,166c-0.6,1-1.4,1.8-2.4,2.2s-2.1,0.7-3.4,0.7c-1.4,0-2.7-0.3-3.8-0.8c-1.1-0.6-2-1.3-2.7-2.3
		c-0.7-0.9-1.2-2-1.6-3.3c-0.4-1.2-0.5-2.5-0.5-3.8c0-1.3,0.2-2.5,0.5-3.7c0.4-1.2,0.9-2.3,1.6-3.2s1.6-1.6,2.6-2.2
		c1.1-0.6,2.3-0.8,3.7-0.8c1.1,0,2.2,0.2,3.2,0.7c1,0.5,1.8,1.2,2.4,2.1h0.1V142h5.3v26.4h-5L114.8,166L114.8,166z M114.6,156.6
		c-0.1-0.7-0.4-1.4-0.8-1.9c-0.4-0.6-0.8-1-1.4-1.4c-0.6-0.3-1.3-0.5-2.1-0.5c-0.9,0-1.6,0.2-2.2,0.5c-0.6,0.3-1.1,0.8-1.4,1.4
		c-0.4,0.6-0.6,1.2-0.8,1.9c-0.2,0.7-0.2,1.5-0.2,2.3c0,0.7,0.1,1.5,0.3,2.2c0.2,0.7,0.5,1.4,0.8,2s0.9,1,1.4,1.4
		c0.6,0.4,1.3,0.5,2.1,0.5c0.9,0,1.6-0.2,2.2-0.5c0.6-0.3,1-0.8,1.4-1.4c0.3-0.6,0.6-1.2,0.7-2c0.1-0.7,0.2-1.5,0.2-2.3
		C114.8,158,114.8,157.3,114.6,156.6z"/>
	<path d="M124.1,155.4v-5.7h5.8v5.7H124.1z M129.9,162.8v5.7h-5.8v-5.7H129.9z"/>
</g>
<g>
	<path d="M144.4,146.9l1-4.9h22.1l-1,4.9h-7.9l-4.5,21.5h-5.8l4.5-21.5H144.4z"/>
	<path d="M175.4,142l-2,9.5h0.1c0.2-0.3,0.5-0.6,0.9-0.9c0.4-0.3,0.8-0.6,1.3-0.9c0.5-0.3,1.1-0.5,1.8-0.7s1.5-0.3,2.3-0.3
		c3.7,0,5.6,1.7,5.6,5.1c0,0.2,0,0.5-0.1,0.8c0,0.3-0.1,0.6-0.2,0.9c-0.1,0.3-0.1,0.6-0.2,0.9c-0.1,0.3-0.1,0.5-0.1,0.7l-2.4,11.2
		h-5.3l2.3-11.2c0-0.3,0.1-0.7,0.2-1.2c0.1-0.5,0.1-0.9,0.1-1.1c0-0.6-0.3-1-0.8-1.4c-0.5-0.4-1.1-0.6-1.7-0.6
		c-0.8,0-1.5,0.2-2.1,0.5c-0.6,0.3-1.1,0.7-1.6,1.2c-0.4,0.5-0.8,1.1-1.1,1.7c-0.3,0.6-0.5,1.3-0.6,2l-2.1,10.2h-5.2l5.5-26.4H175.4
		z"/>
	<path d="M193.1,160.5c0,0.1,0,0.2,0,0.3v0.5c0,1.1,0.3,2,1,2.7c0.7,0.7,1.8,1,3.2,1c0.5,0,1-0.1,1.4-0.2c0.4-0.2,0.8-0.4,1.1-0.6
		c0.3-0.2,0.6-0.5,0.8-0.9c0.2-0.3,0.5-0.6,0.6-0.9h5.3c-0.4,1.1-0.9,2-1.5,2.8c-0.6,0.8-1.2,1.5-2,2.1c-0.8,0.6-1.7,1-2.8,1.2
		c-1,0.3-2.3,0.4-3.6,0.4c-1.3,0-2.4-0.2-3.5-0.5c-1-0.3-1.9-0.9-2.7-1.6c-0.7-0.7-1.3-1.6-1.7-2.6c-0.4-1-0.6-2.2-0.6-3.6
		c0-1.5,0.2-3,0.7-4.4c0.5-1.4,1.2-2.7,2.1-3.8c0.9-1.1,2-2,3.3-2.6c1.3-0.7,2.8-1,4.4-1c1.3,0,2.5,0.2,3.6,0.5
		c1.1,0.3,2,0.9,2.8,1.6c0.8,0.7,1.4,1.6,1.8,2.6c0.4,1,0.6,2.3,0.6,3.6c0,0.9-0.1,1.9-0.3,3h-14.1
		C193.1,160.3,193.1,160.4,193.1,160.5z M202.3,155.4c-0.1-0.5-0.3-0.9-0.5-1.3c-0.2-0.4-0.6-0.7-1.1-0.9c-0.5-0.2-1.1-0.4-1.8-0.4
		c-0.7,0-1.4,0.1-2,0.3s-1.1,0.5-1.5,0.9c-0.4,0.4-0.8,0.8-1.1,1.3c-0.3,0.5-0.5,1-0.7,1.6h8.8C202.4,156.3,202.4,155.9,202.3,155.4
		z"/>
	<path d="M217.4,149.3l-0.8,3.4l0.1,0.1c0.6-1.3,1.5-2.3,2.7-3c1.2-0.7,2.5-1,3.9-1c0.5,0,1.1,0,1.6,0.1l-1.1,5.1
		c-0.4-0.1-0.7-0.1-1.1-0.2c-0.4-0.1-0.7-0.1-1.1-0.1c-1,0-1.9,0.2-2.6,0.5c-0.7,0.3-1.3,0.8-1.8,1.4c-0.5,0.6-0.9,1.3-1.1,2
		c-0.3,0.8-0.5,1.5-0.7,2.3l-1.8,8.5h-5.2l4-19.1H217.4z"/>
	<path d="M228,160.5c0,0.1,0,0.2,0,0.3v0.5c0,1.1,0.3,2,1,2.7c0.7,0.7,1.8,1,3.2,1c0.5,0,1-0.1,1.4-0.2c0.4-0.2,0.8-0.4,1.1-0.6
		c0.3-0.2,0.6-0.5,0.8-0.9c0.2-0.3,0.5-0.6,0.6-0.9h5.3c-0.4,1.1-0.9,2-1.5,2.8c-0.6,0.8-1.2,1.5-2,2.1c-0.8,0.6-1.7,1-2.8,1.2
		c-1,0.3-2.3,0.4-3.6,0.4c-1.3,0-2.4-0.2-3.5-0.5c-1-0.3-1.9-0.9-2.7-1.6c-0.7-0.7-1.3-1.6-1.7-2.6c-0.4-1-0.6-2.2-0.6-3.6
		c0-1.5,0.2-3,0.7-4.4c0.5-1.4,1.2-2.7,2.1-3.8c0.9-1.1,2-2,3.3-2.6c1.3-0.7,2.8-1,4.4-1c1.3,0,2.5,0.2,3.6,0.5
		c1.1,0.3,2,0.9,2.8,1.6c0.8,0.7,1.4,1.6,1.8,2.6c0.4,1,0.6,2.3,0.6,3.6c0,0.9-0.1,1.9-0.3,3h-14.1C228,160.3,228,160.4,228,160.5z
		 M237.3,155.4c-0.1-0.5-0.3-0.9-0.5-1.3c-0.2-0.4-0.6-0.7-1.1-0.9c-0.5-0.2-1.1-0.4-1.8-0.4c-0.7,0-1.4,0.1-2,0.3s-1.1,0.5-1.5,0.9
		c-0.4,0.4-0.8,0.8-1.1,1.3c-0.3,0.5-0.5,1-0.7,1.6h8.8C237.4,156.3,237.3,155.9,237.3,155.4z"/>
	<path d="M255,142l-1.2,5.7c-0.2,0.8-0.4,1.6-0.7,2.3c-0.3,0.7-0.8,1.4-1.3,1.9c-0.5,0.6-1.2,1-2.1,1.3c-0.8,0.3-1.8,0.5-3.1,0.6
		l0.6-2.6c1.1-0.2,1.9-0.6,2.3-1.1c0.5-0.6,0.8-1.4,1-2.4h-2.6l1.2-5.7H255z"/>
	<path d="M263.7,153c-0.5-0.5-1.2-0.7-2.2-0.7c-0.9,0-1.7,0.1-2.3,0.4c-0.6,0.3-0.9,0.8-0.9,1.5c0,0.4,0.2,0.8,0.5,1.1
		c0.4,0.3,1,0.6,1.9,0.9l2.6,0.9c0.7,0.2,1.4,0.5,2,0.8s1.1,0.7,1.6,1.1c0.5,0.4,0.8,0.9,1.1,1.5c0.3,0.6,0.4,1.3,0.4,2.1
		c0,1.2-0.3,2.2-0.8,3c-0.5,0.8-1.2,1.5-2.1,2c-0.9,0.5-1.8,0.9-2.9,1.1c-1.1,0.2-2.2,0.3-3.3,0.3c-0.9,0-1.9-0.1-2.8-0.3
		s-1.8-0.5-2.6-1c-0.8-0.5-1.4-1.1-1.9-1.8s-0.7-1.7-0.7-2.8v-0.8h4.8v0.6c0,0.4,0.1,0.8,0.3,1.1c0.2,0.3,0.5,0.6,0.9,0.8
		c0.4,0.2,0.8,0.4,1.2,0.5c0.5,0.1,0.9,0.2,1.4,0.2c0.4,0,0.8,0,1.2-0.1c0.4-0.1,0.8-0.2,1.1-0.4c0.3-0.2,0.6-0.4,0.8-0.7
		c0.2-0.3,0.3-0.6,0.3-1.1c0-0.7-0.2-1.1-0.5-1.4s-0.8-0.5-1.4-0.7l-4-1.3c-0.7-0.2-1.3-0.5-1.8-0.7c-0.5-0.2-0.9-0.6-1.3-0.9
		c-0.4-0.4-0.6-0.8-0.8-1.3c-0.2-0.5-0.3-1.2-0.3-1.9c0-1.1,0.3-2.1,0.8-2.8c0.5-0.8,1.2-1.4,2.1-1.9c0.8-0.5,1.8-0.8,2.8-1
		c1-0.2,2-0.3,2.9-0.3c1,0,2,0.1,3,0.3c1,0.2,1.8,0.5,2.5,0.9c0.7,0.5,1.3,1.1,1.7,1.9c0.4,0.8,0.6,1.8,0.6,3h-4.9
		C264.4,154.1,264.2,153.5,263.7,153z"/>
</g>
<g>
	<path d="M27.9,184l7.2,18.8h0.1l3.8-18.8h5.3l-5.6,26.4h-5.8l-7.3-18.5h-0.1l-3.8,18.5h-5.4l5.5-26.4H27.9z"/>
	<path d="M45,198.1c0.5-1.4,1.2-2.7,2.2-3.8c0.9-1.1,2.1-1.9,3.5-2.6c1.4-0.6,2.9-0.9,4.6-0.9c1.3,0,2.5,0.2,3.6,0.5s2,0.8,2.8,1.5
		c0.8,0.7,1.4,1.5,1.8,2.5c0.4,1,0.6,2.2,0.6,3.6c0,1.7-0.3,3.2-0.8,4.7c-0.5,1.5-1.2,2.7-2.2,3.8c-1,1.1-2.1,1.9-3.5,2.6
		c-1.4,0.6-2.9,0.9-4.7,0.9c-2.7,0-4.8-0.7-6.4-2.1c-1.6-1.4-2.4-3.4-2.4-6.2C44.2,201.1,44.5,199.5,45,198.1z M49.7,204.3
		c0.2,0.5,0.4,1,0.7,1.4c0.3,0.4,0.7,0.7,1.2,0.9c0.5,0.2,1,0.4,1.6,0.4c1,0,1.8-0.3,2.5-0.8c0.7-0.5,1.3-1.2,1.7-2
		c0.5-0.8,0.8-1.7,1-2.6s0.3-1.8,0.3-2.6c0-1.3-0.3-2.3-0.9-3.1c-0.6-0.8-1.6-1.1-3-1.1c-1,0-1.8,0.3-2.5,0.8
		c-0.7,0.5-1.3,1.2-1.7,2c-0.4,0.8-0.8,1.6-1,2.6c-0.2,0.9-0.3,1.8-0.3,2.6C49.5,203.3,49.5,203.8,49.7,204.3z"/>
	<path d="M92.6,184c1.3,0,2.5,0.1,3.6,0.3c1.1,0.2,2,0.5,2.7,0.9s1.3,1.1,1.7,1.9c0.4,0.8,0.6,1.8,0.6,3.1c0,0.7-0.1,1.5-0.3,2.2
		c-0.2,0.7-0.5,1.3-1,1.9c-0.4,0.6-0.9,1-1.6,1.4c-0.6,0.4-1.3,0.6-2.1,0.7v0.1c1.3,0.3,2.2,1,2.9,2c0.7,1,1,2.1,1,3.4
		c0,1.4-0.3,2.7-0.8,3.8c-0.6,1.1-1.3,2-2.2,2.7c-0.9,0.7-2,1.3-3.2,1.6c-1.2,0.4-2.5,0.6-3.8,0.6H76l5.5-26.4H92.6z M89.8,205.9
		c1.3,0,2.4-0.4,3.3-1.1c0.9-0.7,1.3-1.8,1.3-3.2c0-0.7-0.1-1.2-0.4-1.6c-0.3-0.4-0.6-0.7-1.1-0.9c-0.4-0.2-0.9-0.3-1.5-0.4
		c-0.5,0-1.1-0.1-1.6-0.1H84l-1.6,7.3H89.8z M91.4,194.7c1.1,0,2-0.3,2.8-0.9c0.8-0.6,1.2-1.4,1.2-2.6c0-1-0.3-1.7-0.8-2.1
		c-0.6-0.4-1.3-0.6-2.2-0.6h-6.1l-1.3,6.2H91.4z"/>
	<path d="M108.2,202.5c0,0.1,0,0.2,0,0.3v0.5c0,1.1,0.3,2,1,2.7c0.7,0.7,1.8,1,3.2,1c0.5,0,1-0.1,1.4-0.2c0.4-0.2,0.8-0.4,1.1-0.6
		c0.3-0.2,0.6-0.5,0.8-0.9c0.2-0.3,0.4-0.6,0.6-0.9h5.3c-0.4,1.1-0.9,2-1.5,2.8c-0.6,0.8-1.2,1.5-2,2.1s-1.7,1-2.8,1.2
		c-1,0.3-2.3,0.4-3.6,0.4c-1.3,0-2.4-0.2-3.5-0.5s-1.9-0.9-2.7-1.6c-0.7-0.7-1.3-1.6-1.7-2.6c-0.4-1-0.6-2.2-0.6-3.6
		c0-1.5,0.2-3,0.7-4.4c0.5-1.4,1.2-2.7,2.1-3.8c0.9-1.1,2-2,3.3-2.6c1.3-0.7,2.8-1,4.4-1c1.3,0,2.5,0.2,3.6,0.5
		c1.1,0.3,2,0.9,2.8,1.6c0.8,0.7,1.4,1.6,1.8,2.6c0.4,1,0.6,2.3,0.6,3.6c0,0.9-0.1,1.9-0.3,3h-14.1
		C108.2,202.3,108.2,202.4,108.2,202.5z M117.4,197.4c-0.1-0.5-0.3-0.9-0.5-1.3c-0.2-0.4-0.6-0.7-1.1-0.9c-0.5-0.2-1.1-0.4-1.9-0.4
		c-0.7,0-1.4,0.1-2,0.3c-0.6,0.2-1.1,0.5-1.5,0.9c-0.4,0.4-0.8,0.8-1.1,1.3c-0.3,0.5-0.5,1-0.7,1.6h8.8
		C117.5,198.3,117.5,197.8,117.4,197.4z"/>
	<path d="M138.1,191.3l-0.8,3.5h-3.7l-2,9.5c0,0.2-0.1,0.4-0.1,0.5c0,0.2,0,0.3,0,0.4c0,0.3,0.1,0.6,0.2,0.8s0.3,0.3,0.4,0.4
		c0.2,0.1,0.4,0.2,0.6,0.2c0.2,0,0.4,0,0.6,0c0.6,0,1.3,0,1.9-0.1l-0.9,4c-0.5,0-1.1,0.1-1.6,0.1c-0.5,0-1.1,0.1-1.7,0.1
		c-0.6,0-1.2-0.1-1.8-0.2c-0.6-0.1-1.1-0.3-1.6-0.6c-0.5-0.3-0.9-0.7-1.1-1.2c-0.3-0.5-0.4-1.1-0.4-1.9c0-0.2,0-0.5,0.1-0.8
		c0-0.3,0.1-0.6,0.2-1l2.1-10.2h-3.4l0.8-3.5h3.4l1.2-5.8h5.3l-1.2,5.8H138.1z"/>
	<path d="M151.8,191.3l-0.8,3.5h-3.7l-2,9.5c0,0.2-0.1,0.4-0.1,0.5c0,0.2,0,0.3,0,0.4c0,0.3,0.1,0.6,0.2,0.8s0.3,0.3,0.4,0.4
		c0.2,0.1,0.4,0.2,0.6,0.2c0.2,0,0.4,0,0.6,0c0.6,0,1.3,0,1.9-0.1l-0.9,4c-0.5,0-1.1,0.1-1.6,0.1c-0.5,0-1.1,0.1-1.7,0.1
		c-0.6,0-1.2-0.1-1.8-0.2c-0.6-0.1-1.1-0.3-1.6-0.6c-0.5-0.3-0.9-0.7-1.1-1.2c-0.3-0.5-0.4-1.1-0.4-1.9c0-0.2,0-0.5,0.1-0.8
		c0-0.3,0.1-0.6,0.2-1l2.1-10.2h-3.4l0.8-3.5h3.4l1.2-5.8h5.3l-1.2,5.8H151.8z"/>
	<path d="M156.8,202.5c0,0.1,0,0.2,0,0.3v0.5c0,1.1,0.3,2,1,2.7c0.7,0.7,1.8,1,3.2,1c0.5,0,1-0.1,1.4-0.2c0.4-0.2,0.8-0.4,1.1-0.6
		c0.3-0.2,0.6-0.5,0.8-0.9c0.2-0.3,0.5-0.6,0.6-0.9h5.3c-0.4,1.1-0.9,2-1.5,2.8c-0.6,0.8-1.2,1.5-2,2.1c-0.8,0.6-1.7,1-2.8,1.2
		c-1,0.3-2.3,0.4-3.6,0.4c-1.3,0-2.4-0.2-3.5-0.5c-1-0.3-1.9-0.9-2.7-1.6c-0.7-0.7-1.3-1.6-1.7-2.6c-0.4-1-0.6-2.2-0.6-3.6
		c0-1.5,0.2-3,0.7-4.4c0.5-1.4,1.2-2.7,2.1-3.8c0.9-1.1,2-2,3.3-2.6c1.3-0.7,2.8-1,4.4-1c1.3,0,2.5,0.2,3.6,0.5
		c1.1,0.3,2,0.9,2.8,1.6c0.8,0.7,1.4,1.6,1.8,2.6c0.4,1,0.6,2.3,0.6,3.6c0,0.9-0.1,1.9-0.3,3h-14.1
		C156.8,202.3,156.8,202.4,156.8,202.5z M166,197.4c-0.1-0.5-0.3-0.9-0.5-1.3c-0.2-0.4-0.6-0.7-1.1-0.9c-0.5-0.2-1.1-0.4-1.8-0.4
		c-0.7,0-1.4,0.1-2,0.3s-1.1,0.5-1.5,0.9c-0.4,0.4-0.8,0.8-1.1,1.3c-0.3,0.5-0.5,1-0.7,1.6h8.8C166.2,198.3,166.1,197.8,166,197.4z"
		/>
	<path d="M181.2,191.3l-0.8,3.4l0.1,0.1c0.6-1.3,1.5-2.3,2.7-3c1.2-0.7,2.5-1,3.9-1c0.5,0,1.1,0,1.6,0.1l-1.1,5.1
		c-0.4-0.1-0.7-0.1-1.1-0.2c-0.4-0.1-0.7-0.1-1.1-0.1c-1,0-1.9,0.2-2.6,0.5c-0.7,0.3-1.3,0.8-1.8,1.4c-0.5,0.6-0.9,1.3-1.1,2
		c-0.3,0.8-0.5,1.5-0.7,2.3l-1.8,8.5h-5.2l4-19.1H181.2z"/>
	<path d="M199.3,188.9l1-4.9h22.1l-1,4.9h-7.9l-4.5,21.5h-5.8l4.5-21.5H199.3z"/>
	<path d="M228.8,191.3l-4.1,19.1h-5.3l4-19.1H228.8z M224.1,188.4l1-4.3h5.3l-1,4.3H224.1z"/>
	<path d="M238.1,191.3l-0.6,2.7h0.1c0.8-1.1,1.8-1.9,2.9-2.4c1.1-0.5,2.4-0.8,3.8-0.8c1.2,0,2.2,0.3,3,0.8s1.4,1.4,1.6,2.6
		c0.3-0.5,0.7-0.9,1.2-1.4c0.5-0.4,1-0.8,1.6-1.1c0.6-0.3,1.2-0.5,1.8-0.7c0.6-0.2,1.3-0.2,1.9-0.2c0.7,0,1.5,0.1,2.2,0.3
		c0.7,0.2,1.3,0.5,1.9,0.9c0.5,0.4,1,0.9,1.3,1.5c0.3,0.6,0.5,1.3,0.5,2.1c0,0.6-0.1,1.2-0.2,1.8c-0.1,0.6-0.2,1.2-0.4,1.8
		l-2.4,11.2H253l2.5-12.1c0.1-0.5,0.1-0.9,0.1-1.4c0-0.6-0.2-1-0.6-1.4c-0.4-0.4-1-0.6-1.6-0.6c-0.7,0-1.3,0.2-1.9,0.5
		c-0.6,0.3-1,0.8-1.4,1.3c-0.4,0.5-0.7,1.1-1,1.7c-0.3,0.6-0.5,1.2-0.6,1.8l-2.1,10.2H241l2.5-12.1c0.1-0.5,0.1-0.9,0.1-1.4
		c0-0.6-0.2-1-0.6-1.4c-0.4-0.4-1-0.6-1.6-0.6c-0.7,0-1.3,0.2-1.9,0.5c-0.6,0.3-1,0.8-1.4,1.3c-0.4,0.5-0.7,1.1-1,1.7
		c-0.3,0.6-0.5,1.2-0.6,1.8l-2.1,10.2h-5.2l4-19.1H238.1z"/>
	<path d="M268.5,202.5c0,0.1,0,0.2,0,0.3v0.5c0,1.1,0.3,2,1,2.7c0.7,0.7,1.8,1,3.2,1c0.5,0,1-0.1,1.4-0.2c0.4-0.2,0.8-0.4,1.1-0.6
		c0.3-0.2,0.6-0.5,0.8-0.9c0.2-0.3,0.5-0.6,0.6-0.9h5.3c-0.4,1.1-0.9,2-1.5,2.8c-0.6,0.8-1.2,1.5-2,2.1c-0.8,0.6-1.7,1-2.8,1.2
		c-1,0.3-2.3,0.4-3.6,0.4c-1.3,0-2.4-0.2-3.5-0.5c-1-0.3-1.9-0.9-2.7-1.6c-0.7-0.7-1.3-1.6-1.7-2.6c-0.4-1-0.6-2.2-0.6-3.6
		c0-1.5,0.2-3,0.7-4.4c0.5-1.4,1.2-2.7,2.1-3.8c0.9-1.1,2-2,3.3-2.6c1.3-0.7,2.8-1,4.4-1c1.3,0,2.5,0.2,3.6,0.5
		c1.1,0.3,2,0.9,2.8,1.6c0.8,0.7,1.4,1.6,1.8,2.6c0.4,1,0.6,2.3,0.6,3.6c0,0.9-0.1,1.9-0.3,3h-14.1
		C268.5,202.3,268.5,202.4,268.5,202.5z M277.7,197.4c-0.1-0.5-0.3-0.9-0.5-1.3c-0.2-0.4-0.6-0.7-1.1-0.9c-0.5-0.2-1.1-0.4-1.8-0.4
		c-0.7,0-1.4,0.1-2,0.3s-1.1,0.5-1.5,0.9c-0.4,0.4-0.8,0.8-1.1,1.3c-0.3,0.5-0.5,1-0.7,1.6h8.8C277.8,198.3,277.8,197.8,277.7,197.4
		z"/>
</g>
<g>
	<path d="M69.5,233.3l-0.8,3.5H65l-2,9.5c0,0.2-0.1,0.4-0.1,0.5c0,0.2,0,0.3,0,0.4c0,0.3,0.1,0.6,0.2,0.8c0.1,0.2,0.3,0.3,0.4,0.4
		c0.2,0.1,0.4,0.2,0.6,0.2c0.2,0,0.4,0,0.6,0c0.6,0,1.3,0,1.9-0.1l-0.9,4c-0.5,0-1.1,0.1-1.6,0.1c-0.5,0-1.1,0.1-1.7,0.1
		c-0.6,0-1.2-0.1-1.8-0.2c-0.6-0.1-1.1-0.3-1.6-0.6c-0.5-0.3-0.9-0.7-1.1-1.2c-0.3-0.5-0.4-1.1-0.4-1.9c0-0.2,0-0.5,0.1-0.8
		c0-0.3,0.1-0.6,0.2-1l2.1-10.2h-3.4l0.8-3.5h3.4l1.2-5.8h5.3l-1.2,5.8H69.5z"/>
	<path d="M70.3,240.1c0.5-1.4,1.2-2.7,2.2-3.8c0.9-1.1,2.1-1.9,3.5-2.6c1.4-0.6,2.9-0.9,4.6-0.9c1.3,0,2.5,0.2,3.6,0.5
		s2,0.8,2.8,1.5c0.8,0.7,1.4,1.5,1.8,2.5c0.4,1,0.6,2.2,0.6,3.6c0,1.7-0.3,3.2-0.8,4.7c-0.5,1.5-1.2,2.7-2.2,3.8
		c-1,1.1-2.1,1.9-3.5,2.6c-1.4,0.6-2.9,0.9-4.7,0.9c-2.7,0-4.8-0.7-6.4-2.1c-1.6-1.4-2.4-3.4-2.4-6.2
		C69.5,243.1,69.8,241.5,70.3,240.1z M75,246.3c0.2,0.5,0.4,1,0.7,1.4c0.3,0.4,0.7,0.7,1.2,0.9c0.5,0.2,1,0.4,1.6,0.4
		c1,0,1.8-0.3,2.5-0.8c0.7-0.5,1.3-1.2,1.7-2c0.5-0.8,0.8-1.7,1-2.6s0.3-1.8,0.3-2.6c0-1.3-0.3-2.3-0.9-3.1c-0.6-0.8-1.6-1.1-3-1.1
		c-1,0-1.8,0.3-2.5,0.8c-0.7,0.5-1.3,1.2-1.7,2c-0.4,0.8-0.8,1.6-1,2.6c-0.2,0.9-0.3,1.8-0.3,2.6C74.8,245.3,74.8,245.8,75,246.3z"
		/>
	<path d="M117.9,226c1.3,0,2.5,0.1,3.6,0.3c1.1,0.2,2,0.5,2.7,0.9s1.3,1.1,1.7,1.9c0.4,0.8,0.6,1.8,0.6,3.1c0,0.7-0.1,1.5-0.3,2.2
		c-0.2,0.7-0.5,1.3-1,1.9c-0.4,0.6-0.9,1-1.6,1.4c-0.6,0.4-1.3,0.6-2.1,0.7v0.1c1.3,0.3,2.2,1,2.9,2c0.7,1,1,2.1,1,3.4
		c0,1.4-0.3,2.7-0.8,3.8c-0.6,1.1-1.3,2-2.2,2.7c-0.9,0.7-2,1.3-3.2,1.6c-1.2,0.4-2.5,0.6-3.8,0.6h-14.1l5.5-26.4H117.9z
		 M115.1,247.9c1.3,0,2.4-0.4,3.3-1.1c0.9-0.7,1.3-1.8,1.3-3.2c0-0.7-0.1-1.2-0.4-1.6c-0.3-0.4-0.6-0.7-1.1-0.9
		c-0.4-0.2-0.9-0.3-1.5-0.4c-0.5,0-1.1-0.1-1.6-0.1h-5.7l-1.6,7.3H115.1z M116.7,236.7c1.1,0,2-0.3,2.8-0.9c0.8-0.6,1.2-1.4,1.2-2.6
		c0-1-0.3-1.7-0.8-2.1c-0.6-0.4-1.3-0.6-2.2-0.6h-6.1l-1.3,6.2H116.7z"/>
	<path d="M140.7,252.4l0.6-2.7h-0.1c-1.7,2.1-3.9,3.1-6.7,3.1c-3.7,0-5.6-1.7-5.6-5.1c0-0.2,0-0.4,0.1-0.8c0-0.3,0.1-0.6,0.1-0.9
		c0.1-0.3,0.1-0.6,0.2-0.9c0.1-0.3,0.1-0.5,0.2-0.7l2.4-11.2h5.3l-2.3,11.2c0,0.1-0.1,0.3-0.1,0.5s-0.1,0.4-0.1,0.6
		c0,0.2-0.1,0.4-0.1,0.6c0,0.2,0,0.4,0,0.5c0,0.6,0.3,1,0.8,1.4c0.5,0.4,1.1,0.6,1.7,0.6c0.8,0,1.5-0.2,2.1-0.5
		c0.6-0.3,1.1-0.7,1.6-1.2c0.4-0.5,0.8-1.1,1.1-1.7c0.3-0.6,0.5-1.3,0.6-2l2.1-10.2h5.3l-4,19.1H140.7z"/>
	<path d="M157.2,257.1c-0.5,0.5-1,0.9-1.6,1.2s-1.2,0.5-1.9,0.6c-0.7,0.1-1.6,0.2-2.6,0.2c-0.4,0-0.9,0-1.4-0.1
		c-0.5,0-0.9-0.1-1.4-0.1l0.9-4.4c0.3,0,0.7,0,1.1,0.1c0.4,0.1,0.7,0.1,1.1,0.1c0.6,0,1.1-0.1,1.5-0.3c0.4-0.2,0.7-0.4,0.9-0.7
		c0.2-0.3,0.4-0.5,0.6-0.8c0.2-0.3,0.3-0.6,0.5-0.8l-3.4-18.9h5.4l1.7,13.7h0.1l6.6-13.7h5.5l-12.2,21.8
		C158.2,255.9,157.7,256.6,157.2,257.1z"/>
	<path d="M191.4,226l-4.5,21.5h12.8l-1,4.9h-18.6l5.5-26.4H191.4z"/>
	<path d="M210.3,233.3l-4.1,19.1H201l4-19.1H210.3z M205.6,230.4l1-4.3h5.3l-1,4.3H205.6z"/>
	<path d="M211.8,236.8l0.7-3.5h3.1c0.2-1.2,0.5-2.3,0.8-3.2c0.3-0.9,0.7-1.7,1.2-2.3c0.5-0.6,1.2-1.1,2.1-1.4c0.9-0.3,2-0.5,3.3-0.5
		c0.6,0,1.1,0,1.7,0.1c0.6,0,1.2,0.1,1.7,0.2l-0.8,3.8c-0.3,0-0.6,0-0.9-0.1c-0.3,0-0.6,0-0.9,0c-0.7,0-1.2,0.1-1.5,0.2
		c-0.3,0.2-0.6,0.4-0.8,0.7c-0.2,0.3-0.3,0.7-0.4,1.1c-0.1,0.4-0.2,0.9-0.4,1.5h3.7l-0.7,3.5h-3.8l-3.3,15.6h-5.3l3.3-15.6H211.8z"
		/>
	<path d="M229.4,244.5c0,0.1,0,0.2,0,0.3v0.5c0,1.1,0.3,2,1,2.7c0.7,0.7,1.8,1,3.2,1c0.5,0,1-0.1,1.4-0.2c0.4-0.2,0.8-0.4,1.1-0.6
		c0.3-0.2,0.6-0.5,0.8-0.9c0.2-0.3,0.5-0.6,0.6-0.9h5.3c-0.4,1.1-0.9,2-1.5,2.8c-0.6,0.8-1.2,1.5-2,2.1c-0.8,0.6-1.7,1-2.8,1.2
		c-1,0.3-2.3,0.4-3.6,0.4c-1.3,0-2.4-0.2-3.5-0.5c-1-0.3-1.9-0.9-2.7-1.6c-0.7-0.7-1.3-1.6-1.7-2.6c-0.4-1-0.6-2.2-0.6-3.6
		c0-1.5,0.2-3,0.7-4.4c0.5-1.4,1.2-2.7,2.1-3.8c0.9-1.1,2-2,3.3-2.6c1.3-0.7,2.8-1,4.4-1c1.3,0,2.5,0.2,3.6,0.5
		c1.1,0.3,2,0.9,2.8,1.6c0.8,0.7,1.4,1.6,1.8,2.6c0.4,1,0.6,2.3,0.6,3.6c0,0.9-0.1,1.9-0.3,3h-14.1
		C229.4,244.3,229.4,244.4,229.4,244.5z M238.7,239.4c-0.1-0.5-0.3-0.9-0.5-1.3c-0.2-0.4-0.6-0.7-1.1-0.9c-0.5-0.2-1.1-0.4-1.8-0.4
		c-0.7,0-1.4,0.1-2,0.3s-1.1,0.5-1.5,0.9c-0.4,0.4-0.8,0.8-1.1,1.3c-0.3,0.5-0.5,1-0.7,1.6h8.8C238.8,240.3,238.7,239.8,238.7,239.4
		z"/>
</g>
<g>
	<path d="M68.4,268l-5.6,26.4H57l5.5-26.4H68.4z"/>
	<path d="M76.7,275.3l-0.6,2.7h0.1c1.7-2.1,3.9-3.2,6.7-3.2c3.7,0,5.6,1.7,5.6,5.1c0,0.2,0,0.5-0.1,0.8c0,0.3-0.1,0.6-0.2,0.9
		c-0.1,0.3-0.1,0.6-0.2,0.9c-0.1,0.3-0.1,0.5-0.1,0.7l-2.4,11.2h-5.3l2.3-11.2c0-0.3,0.1-0.7,0.2-1.2c0.1-0.5,0.1-0.9,0.1-1.1
		c0-0.6-0.3-1-0.8-1.4c-0.5-0.4-1.1-0.6-1.7-0.6c-0.8,0-1.5,0.2-2.1,0.5c-0.6,0.3-1.1,0.7-1.6,1.2c-0.4,0.5-0.8,1.1-1.1,1.7
		c-0.3,0.6-0.5,1.3-0.6,2l-2.1,10.2h-5.2l4-19.1H76.7z"/>
	<path d="M103,279c-0.5-0.5-1.2-0.7-2.2-0.7c-0.9,0-1.7,0.1-2.3,0.4c-0.6,0.3-0.9,0.8-0.9,1.5c0,0.4,0.2,0.8,0.5,1.1
		c0.4,0.3,1,0.6,1.9,0.9l2.6,0.9c0.7,0.2,1.4,0.5,2,0.8c0.6,0.3,1.1,0.7,1.6,1.1c0.5,0.4,0.8,0.9,1.1,1.5c0.3,0.6,0.4,1.3,0.4,2.1
		c0,1.2-0.3,2.2-0.8,3c-0.5,0.8-1.2,1.5-2.1,2c-0.9,0.5-1.8,0.9-2.9,1.1c-1.1,0.2-2.2,0.3-3.3,0.3c-0.9,0-1.9-0.1-2.8-0.3
		s-1.8-0.5-2.6-1c-0.8-0.5-1.4-1.1-1.9-1.8s-0.7-1.7-0.7-2.8v-0.8h4.8v0.6c0,0.4,0.1,0.8,0.3,1.1c0.2,0.3,0.5,0.6,0.9,0.8
		c0.4,0.2,0.8,0.4,1.2,0.5c0.5,0.1,0.9,0.2,1.4,0.2c0.4,0,0.8,0,1.2-0.1c0.4-0.1,0.8-0.2,1.1-0.4c0.3-0.2,0.6-0.4,0.8-0.7
		c0.2-0.3,0.3-0.6,0.3-1.1c0-0.7-0.2-1.1-0.5-1.4c-0.3-0.3-0.8-0.5-1.4-0.7l-4-1.3c-0.7-0.2-1.3-0.5-1.8-0.7
		c-0.5-0.2-0.9-0.6-1.3-0.9c-0.4-0.4-0.6-0.8-0.8-1.3c-0.2-0.5-0.3-1.2-0.3-1.9c0-1.1,0.3-2.1,0.8-2.8c0.5-0.8,1.2-1.4,2.1-1.9
		c0.8-0.5,1.8-0.8,2.8-1c1-0.2,2-0.3,2.9-0.3c1,0,2,0.1,3,0.3c1,0.2,1.8,0.5,2.5,0.9c0.7,0.5,1.3,1.1,1.7,1.9c0.4,0.8,0.6,1.8,0.6,3
		h-4.9C103.7,280.1,103.5,279.4,103,279z"/>
	<path d="M122.6,294.4l0.6-2.7h-0.1c-1.7,2.1-3.9,3.1-6.7,3.1c-3.7,0-5.6-1.7-5.6-5.1c0-0.2,0-0.4,0.1-0.8c0-0.3,0.1-0.6,0.1-0.9
		c0.1-0.3,0.1-0.6,0.2-0.9c0.1-0.3,0.1-0.5,0.2-0.7l2.4-11.2h5.3l-2.3,11.2c0,0.1-0.1,0.3-0.1,0.5s-0.1,0.4-0.1,0.6
		c0,0.2-0.1,0.4-0.1,0.6c0,0.2,0,0.4,0,0.5c0,0.6,0.3,1,0.8,1.4c0.5,0.4,1.1,0.6,1.7,0.6c0.8,0,1.5-0.2,2.1-0.5
		c0.6-0.3,1.1-0.7,1.6-1.2c0.4-0.5,0.8-1.1,1.1-1.7c0.3-0.6,0.5-1.3,0.6-2l2.1-10.2h5.3l-4,19.1H122.6z"/>
	<path d="M141.1,275.3l-0.8,3.4l0.1,0.1c0.6-1.3,1.5-2.3,2.7-3c1.2-0.7,2.5-1,3.9-1c0.5,0,1.1,0,1.6,0.1l-1.1,5.1
		c-0.4-0.1-0.7-0.1-1.1-0.2c-0.4-0.1-0.7-0.1-1.1-0.1c-1,0-1.9,0.2-2.6,0.5c-0.7,0.3-1.3,0.8-1.8,1.4c-0.5,0.6-0.9,1.3-1.1,2
		c-0.3,0.8-0.5,1.5-0.7,2.3l-1.8,8.5h-5.2l4-19.1H141.1z"/>
	<path d="M150.2,278.1c0.6-0.8,1.3-1.4,2.1-1.9c0.8-0.5,1.7-0.8,2.7-1.1c1-0.2,2.1-0.3,3.1-0.3c0.9,0,1.8,0.1,2.7,0.2
		c0.9,0.1,1.8,0.4,2.6,0.7c0.8,0.4,1.4,0.9,1.9,1.5c0.5,0.7,0.7,1.5,0.7,2.6c0,0.9-0.1,2-0.4,3.2l-1.7,7.7c-0.1,0.3-0.2,0.8-0.2,1.3
		c0,0.5-0.1,0.9-0.1,1.3c0,0.3,0.1,0.7,0.2,1.1h-5.3v-1.9c-0.7,0.8-1.6,1.4-2.6,1.8c-1,0.4-2.1,0.6-3.2,0.6c-1,0-1.9-0.1-2.7-0.4
		c-0.8-0.3-1.4-0.6-1.9-1.1c-0.5-0.5-0.9-1-1.1-1.6c-0.2-0.6-0.4-1.2-0.4-1.9c0-1.8,0.6-3.3,1.9-4.4s3.1-1.8,5.4-2.1
		c1.2-0.1,2.3-0.3,3.2-0.3c0.9-0.1,1.7-0.2,2.3-0.4c0.6-0.2,1.1-0.4,1.4-0.7c0.3-0.3,0.4-0.8,0.4-1.4c0-0.5-0.1-0.9-0.3-1.2
		c-0.2-0.3-0.5-0.5-0.8-0.7c-0.3-0.2-0.7-0.3-1.1-0.4c-0.4-0.1-0.7-0.1-1.1-0.1c-0.9,0-1.8,0.2-2.5,0.7s-1.2,1.2-1.4,2.1h-4.9
		C149.3,279.9,149.7,278.9,150.2,278.1z M158.1,286c-0.8,0.1-1.5,0.2-2.3,0.2c-0.5,0-1,0.1-1.4,0.2c-0.5,0.1-0.9,0.3-1.2,0.5
		c-0.4,0.2-0.6,0.5-0.9,0.9c-0.2,0.4-0.3,0.9-0.3,1.5c0,0.7,0.3,1.3,0.9,1.6c0.6,0.4,1.3,0.5,2,0.5c0.8,0,1.5-0.1,2.1-0.4
		c0.6-0.3,1-0.6,1.4-1c0.4-0.4,0.7-0.9,0.9-1.4s0.4-1,0.6-1.6l0.5-1.8C159.6,285.7,158.9,285.9,158.1,286z"/>
	<path d="M176.7,275.3l-0.6,2.7h0.1c1.7-2.1,3.9-3.2,6.7-3.2c3.7,0,5.6,1.7,5.6,5.1c0,0.2,0,0.5-0.1,0.8c0,0.3-0.1,0.6-0.2,0.9
		c-0.1,0.3-0.1,0.6-0.2,0.9c-0.1,0.3-0.1,0.5-0.1,0.7l-2.4,11.2h-5.3l2.3-11.2c0-0.3,0.1-0.7,0.2-1.2c0.1-0.5,0.1-0.9,0.1-1.1
		c0-0.6-0.3-1-0.8-1.4c-0.5-0.4-1.1-0.6-1.7-0.6c-0.8,0-1.5,0.2-2.1,0.5c-0.6,0.3-1.1,0.7-1.6,1.2c-0.4,0.5-0.8,1.1-1.1,1.7
		c-0.3,0.6-0.5,1.3-0.6,2l-2.1,10.2h-5.2l4-19.1H176.7z"/>
	<path d="M204.4,279.5c-0.6-0.5-1.5-0.7-2.6-0.7c-1,0-1.8,0.3-2.5,0.8c-0.7,0.5-1.2,1.2-1.7,2c-0.4,0.8-0.7,1.7-0.9,2.6
		c-0.2,0.9-0.3,1.8-0.3,2.6c0,0.6,0.1,1.1,0.2,1.6c0.1,0.5,0.3,0.9,0.6,1.3c0.3,0.4,0.7,0.7,1.1,0.9c0.5,0.2,1,0.3,1.7,0.3
		c0.6,0,1.1-0.1,1.6-0.3c0.5-0.2,0.9-0.5,1.2-0.8c0.4-0.3,0.7-0.7,0.9-1.1c0.2-0.4,0.4-0.9,0.6-1.4h5.3c-0.8,2.4-2,4.2-3.6,5.5
		s-3.7,1.9-6.2,1.9c-2.7,0-4.8-0.7-6.3-2c-1.5-1.3-2.2-3.4-2.2-6.2c0-1.6,0.2-3.2,0.7-4.6c0.5-1.4,1.2-2.7,2.1-3.8
		c0.9-1.1,2.1-2,3.4-2.6s2.9-0.9,4.6-0.9c1.2,0,2.3,0.1,3.3,0.4c1,0.3,1.9,0.7,2.7,1.3c0.8,0.6,1.4,1.3,1.8,2.2
		c0.5,0.9,0.7,2,0.7,3.3h-5.3C205.3,280.8,205,280,204.4,279.5z"/>
	<path d="M216.7,286.5c0,0.1,0,0.2,0,0.3v0.5c0,1.1,0.3,2,1,2.7c0.7,0.7,1.8,1,3.2,1c0.5,0,1-0.1,1.4-0.2c0.4-0.2,0.8-0.4,1.1-0.6
		c0.3-0.2,0.6-0.5,0.8-0.9c0.2-0.3,0.5-0.6,0.6-0.9h5.3c-0.4,1.1-0.9,2-1.5,2.8c-0.6,0.8-1.2,1.5-2,2.1c-0.8,0.6-1.7,1-2.8,1.2
		c-1,0.3-2.3,0.4-3.6,0.4c-1.3,0-2.4-0.2-3.5-0.5c-1-0.3-1.9-0.9-2.7-1.6c-0.7-0.7-1.3-1.6-1.7-2.6c-0.4-1-0.6-2.2-0.6-3.6
		c0-1.5,0.2-3,0.7-4.4c0.5-1.4,1.2-2.7,2.1-3.8c0.9-1.1,2-2,3.3-2.6c1.3-0.7,2.8-1,4.4-1c1.3,0,2.5,0.2,3.6,0.5
		c1.1,0.3,2,0.9,2.8,1.6c0.8,0.7,1.4,1.6,1.8,2.6c0.4,1,0.6,2.3,0.6,3.6c0,0.9-0.1,1.9-0.3,3h-14.1
		C216.7,286.3,216.7,286.4,216.7,286.5z M226,281.4c-0.1-0.5-0.3-0.9-0.5-1.3c-0.2-0.4-0.6-0.7-1.1-0.9c-0.5-0.2-1.1-0.4-1.8-0.4
		c-0.7,0-1.4,0.1-2,0.3s-1.1,0.5-1.5,0.9c-0.4,0.4-0.8,0.8-1.1,1.3c-0.3,0.5-0.5,1-0.7,1.6h8.8C226.1,282.3,226.1,281.8,226,281.4z"
		/>
	<path d="M239.5,288.7l-1.2,5.7h-5.8l1.2-5.7H239.5z M238.3,286.5h-2.6l0.9-11.3l1.5-7.2h5.6l-1.6,7.2L238.3,286.5z"/>
</g>
</svg>
