<?xml version="1.0" encoding="utf-8"?>
<!-- Generator: Adobe Illustrator 25.4.1, SVG Export Plug-In . SVG Version: 6.00 Build 0)  -->
<svg version="1.1" id="Layer_1" xmlns="http://www.w3.org/2000/svg" xmlns:xlink="http://www.w3.org/1999/xlink" x="0px" y="0px"
	 viewBox="0 0 300 600" style="enable-background:new 0 0 300 600;" xml:space="preserve">
<g>
	<path d="M45,140.5c-1.3,0.5-2.5,0.8-3.8,0.8c-2,0-3.8-0.4-5.5-1.1c-1.6-0.7-3-1.7-4.1-2.9c-1.1-1.2-2-2.7-2.6-4.3
		c-0.6-1.7-0.9-3.5-0.9-5.4c0-2,0.3-3.8,0.9-5.5c0.6-1.7,1.4-3.2,2.6-4.4c1.1-1.3,2.5-2.2,4.1-3c1.6-0.7,3.4-1.1,5.5-1.1
		c1.4,0,2.7,0.2,3.9,0.6c1.3,0.4,2.4,1,3.4,1.8c1,0.8,1.9,1.8,2.5,2.9c0.7,1.2,1.1,2.5,1.2,4h-5.5c-0.3-1.5-1-2.6-2-3.3
		c-1-0.7-2.2-1.1-3.6-1.1c-1.3,0-2.4,0.3-3.3,0.8c-0.9,0.5-1.7,1.2-2.2,2s-1,1.8-1.2,2.9s-0.4,2.2-0.4,3.4c0,1.1,0.1,2.2,0.4,3.2
		s0.7,2,1.2,2.8c0.6,0.8,1.3,1.5,2.2,2c0.9,0.5,2,0.8,3.3,0.8c1.9,0,3.4-0.5,4.5-1.5c1-1,1.7-2.4,1.8-4.2h-5.8v-4.3h11.1v14.3H49
		l-0.6-3C47.4,139,46.3,139.9,45,140.5z"/>
	<path d="M62.2,136.1c0.8,0.8,1.9,1.1,3.4,1.1c1.1,0,2-0.3,2.7-0.8c0.8-0.5,1.2-1.1,1.4-1.7h4.6c-0.7,2.3-1.9,3.9-3.4,4.9
		c-1.5,1-3.4,1.5-5.6,1.5c-1.5,0-2.9-0.2-4.1-0.7c-1.2-0.5-2.2-1.2-3.1-2.1c-0.8-0.9-1.5-1.9-1.9-3.2c-0.5-1.2-0.7-2.6-0.7-4.1
		c0-1.4,0.2-2.8,0.7-4c0.5-1.2,1.1-2.3,2-3.2c0.9-0.9,1.9-1.6,3.1-2.1s2.5-0.8,4-0.8c1.6,0,3,0.3,4.3,0.9c1.2,0.6,2.2,1.5,3,2.5
		c0.8,1.1,1.3,2.3,1.7,3.6c0.3,1.4,0.5,2.8,0.4,4.3H60.9C61,134.1,61.4,135.3,62.2,136.1z M68.1,126c-0.6-0.7-1.6-1-2.9-1
		c-0.8,0-1.5,0.1-2.1,0.4c-0.6,0.3-1,0.6-1.3,1.1c-0.3,0.4-0.6,0.9-0.7,1.3c-0.1,0.5-0.2,0.9-0.2,1.3h8.5
		C69.2,127.7,68.7,126.7,68.1,126z"/>
	<path d="M88,121.5v3.5h-3.8v9.5c0,0.9,0.1,1.5,0.4,1.8c0.3,0.3,0.9,0.4,1.8,0.4c0.3,0,0.6,0,0.9,0c0.3,0,0.5-0.1,0.8-0.1v4.1
		c-0.4,0.1-0.9,0.1-1.5,0.1c-0.5,0-1.1,0-1.6,0c-0.8,0-1.6-0.1-2.3-0.2c-0.7-0.1-1.4-0.3-1.9-0.6c-0.6-0.3-1-0.8-1.3-1.4
		c-0.3-0.6-0.5-1.4-0.5-2.3V125h-3.2v-3.5h3.2v-5.7h5.3v5.7H88z"/>
	<path d="M100.7,121.5v3.5h-3.8v9.5c0,0.9,0.1,1.5,0.4,1.8c0.3,0.3,0.9,0.4,1.8,0.4c0.3,0,0.6,0,0.9,0c0.3,0,0.5-0.1,0.8-0.1v4.1
		c-0.4,0.1-0.9,0.1-1.5,0.1c-0.5,0-1.1,0-1.6,0c-0.8,0-1.6-0.1-2.3-0.2c-0.7-0.1-1.4-0.3-1.9-0.6c-0.6-0.3-1-0.8-1.3-1.4
		c-0.3-0.6-0.5-1.4-0.5-2.3V125h-3.2v-3.5h3.2v-5.7h5.3v5.7H100.7z"/>
	<path d="M103,118.6v-4.3h5.3v4.3H103z M108.2,121.5v19.1H103v-19.1H108.2z"/>
	<path d="M117,121.5v2.7h0.1c0.7-1.1,1.5-1.9,2.6-2.4c1.1-0.5,2.1-0.8,3.3-0.8c1.4,0,2.6,0.2,3.5,0.6c0.9,0.4,1.6,0.9,2.1,1.6
		c0.5,0.7,0.9,1.5,1.1,2.5c0.2,1,0.3,2.1,0.3,3.2v11.8h-5.3v-10.8c0-1.6-0.2-2.8-0.7-3.5c-0.5-0.8-1.4-1.2-2.6-1.2
		c-1.4,0-2.5,0.4-3.1,1.3c-0.6,0.9-1,2.3-1,4.2v10H112v-19.1H117z"/>
	<path d="M151.7,142.1c-0.2,1-0.7,1.9-1.3,2.8c-0.7,0.9-1.7,1.6-3,2.2c-1.3,0.6-3.1,0.9-5.3,0.9c-0.9,0-1.9-0.1-2.9-0.4
		s-1.9-0.6-2.7-1.1c-0.8-0.5-1.5-1.1-2-1.9c-0.5-0.8-0.8-1.7-0.9-2.8h5.2c0.2,1,0.7,1.7,1.4,2.1c0.7,0.4,1.5,0.6,2.5,0.6
		c1.5,0,2.6-0.4,3.2-1.3c0.7-0.9,1-2,1-3.4v-2.5h-0.1c-0.6,1-1.4,1.8-2.4,2.2s-2.2,0.7-3.3,0.7c-1.4,0-2.7-0.3-3.7-0.8
		c-1-0.5-1.9-1.2-2.6-2.1c-0.7-0.9-1.2-1.9-1.5-3.1c-0.3-1.2-0.5-2.4-0.5-3.7c0-1.2,0.2-2.4,0.5-3.6c0.4-1.1,0.9-2.2,1.6-3
		c0.7-0.9,1.5-1.6,2.6-2.1c1-0.5,2.2-0.8,3.5-0.8c1.3,0,2.4,0.2,3.3,0.7c0.9,0.5,1.7,1.3,2.4,2.4h0.1v-2.6h5v17.9
		C152,140.2,151.9,141.1,151.7,142.1z M144.5,135.7c0.6-0.3,1-0.7,1.4-1.2c0.4-0.5,0.6-1.1,0.8-1.7c0.2-0.6,0.3-1.3,0.3-2
		c0-0.8-0.1-1.5-0.2-2.2c-0.1-0.7-0.4-1.3-0.7-1.9c-0.3-0.5-0.8-1-1.4-1.3c-0.6-0.3-1.3-0.5-2.1-0.5c-0.7,0-1.4,0.1-1.9,0.4
		s-1,0.7-1.3,1.2c-0.4,0.5-0.6,1.1-0.8,1.7c-0.2,0.7-0.2,1.3-0.2,2.1c0,0.7,0.1,1.4,0.2,2.1c0.1,0.7,0.4,1.3,0.7,1.8
		c0.3,0.5,0.8,1,1.3,1.3c0.5,0.3,1.2,0.5,2,0.5C143.3,136.1,143.9,136,144.5,135.7z"/>
</g>
<g>
	<path d="M34.2,156.2v26.4H29v-26.4H34.2z"/>
	<path d="M38.1,168.9c0.5-1.2,1.1-2.3,2-3.2c0.9-0.9,1.9-1.6,3.1-2c1.2-0.5,2.6-0.7,4.1-0.7c1.5,0,2.9,0.2,4.1,0.7
		c1.2,0.5,2.3,1.2,3.1,2c0.9,0.9,1.5,1.9,2,3.2c0.5,1.2,0.7,2.6,0.7,4.2c0,1.5-0.2,2.9-0.7,4.1c-0.5,1.2-1.1,2.3-2,3.2
		c-0.9,0.9-1.9,1.5-3.1,2s-2.6,0.7-4.1,0.7c-1.5,0-2.9-0.2-4.1-0.7s-2.2-1.1-3.1-2c-0.9-0.9-1.5-1.9-2-3.2c-0.5-1.2-0.7-2.6-0.7-4.1
		C37.4,171.6,37.7,170.2,38.1,168.9z M42.9,175.3c0.1,0.7,0.4,1.4,0.8,2c0.4,0.6,0.8,1,1.4,1.4c0.6,0.3,1.3,0.5,2.2,0.5
		c0.9,0,1.6-0.2,2.2-0.5c0.6-0.3,1.1-0.8,1.4-1.4c0.4-0.6,0.6-1.2,0.8-2c0.1-0.7,0.2-1.5,0.2-2.2c0-0.8-0.1-1.5-0.2-2.3
		c-0.1-0.7-0.4-1.4-0.8-2c-0.4-0.6-0.8-1-1.4-1.4c-0.6-0.4-1.4-0.5-2.2-0.5c-0.9,0-1.6,0.2-2.2,0.5c-0.6,0.4-1.1,0.8-1.4,1.4
		c-0.4,0.6-0.6,1.2-0.8,2c-0.1,0.7-0.2,1.5-0.2,2.3C42.7,173.9,42.8,174.6,42.9,175.3z"/>
	<path d="M76.8,182.7l-3.4-12.8h-0.1L70,182.7h-5.4l-6.1-19.1h5.5l3.5,13h0.1l3.2-13h5.1l3.3,12.9h0.1l3.5-12.9h5.4l-6,19.1H76.8z"
		/>
	<path d="M101.1,170.3v4.5H90v-4.5H101.1z"/>
	<path d="M113.9,167c-0.8,0-1.5,0.2-2.1,0.6s-1,0.9-1.4,1.5c-0.4,0.6-0.6,1.3-0.8,2c-0.1,0.7-0.2,1.4-0.2,2.2c0,0.7,0.1,1.4,0.2,2.1
		s0.4,1.4,0.7,1.9s0.8,1.1,1.4,1.4c0.6,0.4,1.3,0.6,2.1,0.6c1.3,0,2.2-0.4,2.9-1.1c0.7-0.7,1.1-1.6,1.3-2.8h5.1
		c-0.3,2.5-1.3,4.5-3,5.8s-3.7,2-6.3,2c-1.4,0-2.7-0.2-3.9-0.7c-1.2-0.5-2.2-1.2-3.1-2c-0.8-0.9-1.5-1.9-2-3.1
		c-0.5-1.2-0.7-2.5-0.7-3.9c0-1.5,0.2-2.9,0.6-4.1c0.4-1.3,1.1-2.4,1.9-3.3c0.8-0.9,1.9-1.6,3.1-2.2s2.6-0.8,4.1-0.8
		c1.1,0,2.2,0.1,3.3,0.4c1,0.3,2,0.7,2.8,1.4c0.8,0.6,1.5,1.4,2,2.3c0.5,0.9,0.8,2,0.9,3.2h-5.1C117.4,168.1,116.1,167,113.9,167z"
		/>
	<path d="M125.8,168.9c0.5-1.2,1.1-2.3,2-3.2c0.9-0.9,1.9-1.6,3.1-2c1.2-0.5,2.6-0.7,4.1-0.7c1.5,0,2.9,0.2,4.1,0.7
		c1.2,0.5,2.3,1.2,3.1,2c0.9,0.9,1.5,1.9,2,3.2c0.5,1.2,0.7,2.6,0.7,4.2c0,1.5-0.2,2.9-0.7,4.1c-0.5,1.2-1.1,2.3-2,3.2
		s-1.9,1.5-3.1,2c-1.2,0.5-2.6,0.7-4.1,0.7c-1.5,0-2.9-0.2-4.1-0.7s-2.2-1.1-3.1-2c-0.9-0.9-1.5-1.9-2-3.2c-0.5-1.2-0.7-2.6-0.7-4.1
		C125.1,171.6,125.3,170.2,125.8,168.9z M130.6,175.3c0.1,0.7,0.4,1.4,0.8,2c0.4,0.6,0.8,1,1.4,1.4c0.6,0.3,1.3,0.5,2.2,0.5
		c0.9,0,1.6-0.2,2.2-0.5c0.6-0.3,1.1-0.8,1.4-1.4c0.4-0.6,0.6-1.2,0.8-2c0.1-0.7,0.2-1.5,0.2-2.2c0-0.8-0.1-1.5-0.2-2.3
		c-0.1-0.7-0.4-1.4-0.8-2c-0.4-0.6-0.8-1-1.4-1.4c-0.6-0.4-1.4-0.5-2.2-0.5c-0.9,0-1.6,0.2-2.2,0.5c-0.6,0.4-1.1,0.8-1.4,1.4
		c-0.4,0.6-0.6,1.2-0.8,2c-0.1,0.7-0.2,1.5-0.2,2.3C130.3,173.9,130.4,174.6,130.6,175.3z"/>
	<path d="M152.3,177.9c0.2,0.4,0.5,0.7,0.9,1c0.4,0.3,0.8,0.5,1.3,0.6c0.5,0.1,1,0.2,1.5,0.2c0.4,0,0.8,0,1.2-0.1
		c0.4-0.1,0.8-0.2,1.1-0.4c0.3-0.2,0.6-0.4,0.8-0.7c0.2-0.3,0.3-0.7,0.3-1.2c0-0.8-0.5-1.4-1.6-1.8c-1-0.4-2.5-0.8-4.4-1.2
		c-0.8-0.2-1.5-0.4-2.2-0.6c-0.7-0.2-1.4-0.5-1.9-0.9c-0.6-0.4-1-0.9-1.4-1.4c-0.3-0.6-0.5-1.3-0.5-2.1c0-1.2,0.2-2.2,0.7-3
		c0.5-0.8,1.1-1.4,1.9-1.9c0.8-0.5,1.7-0.8,2.7-1s2-0.3,3-0.3s2,0.1,3,0.3c1,0.2,1.8,0.5,2.6,1c0.8,0.5,1.4,1.1,1.9,1.9
		c0.5,0.8,0.8,1.8,0.9,2.9h-5c-0.1-1-0.5-1.7-1.1-2.1c-0.7-0.4-1.5-0.5-2.4-0.5c-0.3,0-0.6,0-1,0.1c-0.3,0-0.7,0.1-0.9,0.2
		c-0.3,0.1-0.5,0.3-0.7,0.5c-0.2,0.2-0.3,0.5-0.3,0.9c0,0.5,0.2,0.9,0.5,1.1c0.3,0.3,0.8,0.5,1.4,0.7c0.6,0.2,1.2,0.4,1.9,0.5
		c0.7,0.1,1.4,0.3,2.2,0.5c0.8,0.2,1.5,0.4,2.2,0.6c0.7,0.2,1.4,0.6,1.9,1c0.6,0.4,1,0.9,1.4,1.5c0.3,0.6,0.5,1.4,0.5,2.2
		c0,1.3-0.3,2.3-0.8,3.2s-1.2,1.5-2,2.1c-0.8,0.5-1.7,0.9-2.8,1.1c-1,0.2-2.1,0.3-3.2,0.3c-1.1,0-2.2-0.1-3.3-0.3s-2-0.6-2.8-1.1
		c-0.8-0.5-1.5-1.2-2-2.1s-0.8-1.9-0.9-3.2h5C152,177,152.1,177.5,152.3,177.9z"/>
	<path d="M178,163.5v3.5h-3.8v9.5c0,0.9,0.1,1.5,0.4,1.8c0.3,0.3,0.9,0.4,1.8,0.4c0.3,0,0.6,0,0.9,0c0.3,0,0.5-0.1,0.8-0.1v4.1
		c-0.4,0.1-0.9,0.1-1.5,0.1c-0.5,0-1.1,0-1.6,0c-0.8,0-1.6-0.1-2.3-0.2s-1.4-0.3-1.9-0.6c-0.6-0.3-1-0.8-1.3-1.4
		c-0.3-0.6-0.5-1.4-0.5-2.3V167h-3.2v-3.5h3.2v-5.7h5.3v5.7H178z"/>
	<path d="M186.2,177v5.7c0,0.8-0.2,1.6-0.5,2.3s-0.7,1.3-1.2,1.8c-0.5,0.5-1.1,0.9-1.8,1.3s-1.4,0.6-2.2,0.7v-2.7
		c0.4-0.1,0.7-0.2,1.1-0.4s0.6-0.5,0.9-0.8c0.2-0.3,0.4-0.7,0.6-1c0.1-0.4,0.2-0.8,0.1-1.2h-2.7V177H186.2z"/>
</g>
<g>
	<path d="M34.1,198.2v10h0.1c0.7-1.1,1.5-1.9,2.6-2.4c1-0.5,2-0.8,3-0.8c1.4,0,2.6,0.2,3.5,0.6c0.9,0.4,1.6,0.9,2.1,1.6
		c0.5,0.7,0.9,1.5,1.1,2.5c0.2,1,0.3,2.1,0.3,3.2v11.8h-5.3v-10.8c0-1.6-0.2-2.8-0.7-3.5c-0.5-0.8-1.4-1.2-2.6-1.2
		c-1.4,0-2.5,0.4-3.1,1.3c-0.6,0.9-1,2.3-1,4.2v10h-5.3v-26.4H34.1z"/>
	<path d="M50.6,202.6v-4.3h5.3v4.3H50.6z M55.8,205.5v19.1h-5.3v-19.1H55.8z"/>
	<path d="M77.7,226.1c-0.2,1-0.7,1.9-1.4,2.8c-0.7,0.9-1.7,1.6-3,2.2c-1.3,0.6-3.1,0.9-5.3,0.9c-0.9,0-1.9-0.1-2.9-0.4
		c-1-0.2-1.9-0.6-2.7-1.1c-0.8-0.5-1.5-1.1-2-1.9c-0.5-0.8-0.8-1.7-0.9-2.8h5.2c0.2,1,0.7,1.7,1.4,2.1c0.7,0.4,1.5,0.6,2.5,0.6
		c1.5,0,2.6-0.4,3.2-1.3c0.7-0.9,1-2,1-3.4v-2.5h-0.1c-0.6,1-1.4,1.8-2.4,2.2c-1,0.5-2.2,0.7-3.3,0.7c-1.4,0-2.7-0.3-3.7-0.8
		c-1-0.5-1.9-1.2-2.6-2.1c-0.7-0.9-1.2-1.9-1.5-3.1c-0.3-1.2-0.5-2.4-0.5-3.7c0-1.2,0.2-2.4,0.5-3.6c0.4-1.1,0.9-2.2,1.6-3
		c0.7-0.9,1.5-1.6,2.6-2.1c1-0.5,2.2-0.8,3.5-0.8c1.3,0,2.4,0.2,3.3,0.7c0.9,0.5,1.7,1.3,2.4,2.4H73v-2.6h5v17.9
		C78,224.2,77.9,225.1,77.7,226.1z M70.5,219.7c0.6-0.3,1-0.7,1.4-1.2c0.4-0.5,0.6-1.1,0.8-1.7c0.2-0.6,0.3-1.3,0.3-2
		c0-0.8-0.1-1.5-0.2-2.2s-0.4-1.3-0.7-1.9c-0.3-0.5-0.8-1-1.4-1.3c-0.6-0.3-1.3-0.5-2.1-0.5c-0.7,0-1.4,0.1-1.9,0.4s-1,0.7-1.3,1.2
		c-0.4,0.5-0.6,1.1-0.8,1.7c-0.2,0.7-0.2,1.3-0.2,2.1c0,0.7,0.1,1.4,0.2,2.1c0.1,0.7,0.4,1.3,0.7,1.8s0.8,1,1.3,1.3
		c0.5,0.3,1.2,0.5,2,0.5C69.3,220.1,69.9,220,70.5,219.7z"/>
	<path d="M87.1,198.2v10h0.1c0.7-1.1,1.5-1.9,2.6-2.4c1-0.5,2-0.8,3-0.8c1.4,0,2.6,0.2,3.5,0.6c0.9,0.4,1.6,0.9,2.1,1.6
		c0.5,0.7,0.9,1.5,1.1,2.5c0.2,1,0.3,2.1,0.3,3.2v11.8h-5.3v-10.8c0-1.6-0.2-2.8-0.7-3.5c-0.5-0.8-1.4-1.2-2.6-1.2
		c-1.4,0-2.5,0.4-3.1,1.3c-0.6,0.9-1,2.3-1,4.2v10h-5.3v-26.4H87.1z"/>
	<path d="M114.6,212.3v4.5h-11.1v-4.5H114.6z"/>
	<path d="M131.6,231.3v-9.1h-0.1c-0.6,1-1.5,1.8-2.6,2.2s-2.3,0.7-3.4,0.7c-0.9,0-1.8-0.2-2.8-0.5s-1.8-0.9-2.6-1.7
		c-0.8-0.8-1.4-1.8-2-3.1c-0.5-1.3-0.8-2.8-0.8-4.7c0-1.3,0.2-2.6,0.5-3.8c0.3-1.2,0.9-2.3,1.6-3.3c0.7-0.9,1.6-1.7,2.7-2.3
		c1.1-0.6,2.3-0.9,3.8-0.9c1.2,0,2.3,0.2,3.3,0.7c1,0.5,1.9,1.2,2.5,2.3h0.1v-2.4h5v25.8H131.6z M122.8,217.3c0.1,0.7,0.4,1.4,0.8,2
		c0.4,0.6,0.8,1,1.4,1.4c0.6,0.3,1.3,0.5,2.2,0.5s1.6-0.2,2.2-0.5s1-0.8,1.4-1.3c0.4-0.6,0.6-1.2,0.8-1.9c0.2-0.7,0.2-1.5,0.2-2.3
		c0-0.7-0.1-1.5-0.2-2.2c-0.2-0.7-0.4-1.4-0.8-2c-0.3-0.6-0.8-1.1-1.4-1.4c-0.6-0.4-1.3-0.6-2.1-0.6c-0.9,0-1.6,0.2-2.2,0.5
		c-0.6,0.3-1.1,0.8-1.4,1.4c-0.4,0.6-0.6,1.2-0.8,2c-0.2,0.7-0.2,1.5-0.2,2.3C122.6,215.9,122.7,216.6,122.8,217.3z"/>
	<path d="M153.3,224.6V222h-0.1c-0.7,1.1-1.5,1.9-2.6,2.4c-1.1,0.5-2.1,0.7-3.3,0.7c-1.4,0-2.6-0.2-3.5-0.6
		c-0.9-0.4-1.6-0.9-2.1-1.6c-0.5-0.7-0.9-1.5-1.1-2.5c-0.2-1-0.3-2.1-0.3-3.2v-11.8h5.3v10.8c0,1.6,0.2,2.8,0.7,3.5
		c0.5,0.8,1.4,1.2,2.6,1.2c1.4,0,2.5-0.4,3.1-1.3s1-2.3,1-4.2v-10h5.3v19.1H153.3z"/>
	<path d="M161.8,211.4c0.1-1.2,0.4-2.3,0.9-3.1c0.5-0.8,1.2-1.5,2.1-2c0.8-0.5,1.8-0.8,2.8-1.1c1-0.2,2.1-0.3,3.2-0.3
		c1,0,1.9,0.1,2.9,0.2c1,0.1,1.9,0.4,2.7,0.8c0.8,0.4,1.5,0.9,2,1.6c0.5,0.7,0.8,1.6,0.8,2.8v10c0,0.9,0,1.7,0.1,2.5
		c0.1,0.8,0.3,1.4,0.5,1.8h-5.3c-0.1-0.3-0.2-0.6-0.2-0.9c-0.1-0.3-0.1-0.6-0.1-0.9c-0.8,0.9-1.8,1.5-3,1.8s-2.3,0.5-3.5,0.5
		c-0.9,0-1.8-0.1-2.6-0.3c-0.8-0.2-1.5-0.6-2.1-1c-0.6-0.5-1.1-1.1-1.4-1.8c-0.3-0.7-0.5-1.6-0.5-2.6c0-1.1,0.2-2,0.6-2.7
		c0.4-0.7,0.9-1.3,1.5-1.7c0.6-0.4,1.3-0.7,2.1-0.9c0.8-0.2,1.6-0.4,2.3-0.5c0.8-0.1,1.6-0.2,2.3-0.3c0.8-0.1,1.4-0.2,2-0.3
		c0.6-0.1,1.1-0.4,1.4-0.6c0.3-0.3,0.5-0.7,0.5-1.2c0-0.6-0.1-1-0.3-1.4c-0.2-0.3-0.4-0.6-0.7-0.8s-0.7-0.3-1.1-0.4
		c-0.4-0.1-0.8-0.1-1.3-0.1c-1,0-1.8,0.2-2.4,0.7c-0.6,0.4-0.9,1.2-1,2.2H161.8z M173.9,215.3c-0.2,0.2-0.5,0.4-0.8,0.5
		s-0.7,0.2-1.1,0.3c-0.4,0.1-0.8,0.1-1.2,0.2c-0.4,0-0.8,0.1-1.3,0.2c-0.4,0.1-0.8,0.2-1.2,0.3c-0.4,0.1-0.7,0.3-1,0.5
		c-0.3,0.2-0.5,0.5-0.7,0.8c-0.2,0.3-0.3,0.7-0.3,1.2c0,0.5,0.1,0.9,0.3,1.2c0.2,0.3,0.4,0.6,0.7,0.8c0.3,0.2,0.6,0.3,1,0.4
		c0.4,0.1,0.8,0.1,1.2,0.1c1,0,1.8-0.2,2.4-0.5c0.6-0.3,1-0.8,1.3-1.2c0.3-0.5,0.4-1,0.5-1.5c0.1-0.5,0.1-0.9,0.1-1.2V215.3z"/>
	<path d="M188.3,198.2v26.4h-5.3v-26.4H188.3z"/>
	<path d="M192.2,202.6v-4.3h5.3v4.3H192.2z M197.5,205.5v19.1h-5.3v-19.1H197.5z"/>
	<path d="M211.8,205.5v3.5h-3.8v9.5c0,0.9,0.1,1.5,0.4,1.8c0.3,0.3,0.9,0.4,1.8,0.4c0.3,0,0.6,0,0.9,0c0.3,0,0.5-0.1,0.8-0.1v4.1
		c-0.4,0.1-0.9,0.1-1.5,0.1c-0.5,0-1.1,0-1.6,0c-0.8,0-1.6-0.1-2.3-0.2s-1.4-0.3-1.9-0.6c-0.6-0.3-1-0.8-1.3-1.4
		c-0.3-0.6-0.5-1.4-0.5-2.3V209h-3.2v-3.5h3.2v-5.7h5.3v5.7H211.8z"/>
	<path d="M221,230.3c-1,0.7-2.4,1-4.2,1c-0.5,0-1.1,0-1.6-0.1s-1.1-0.1-1.6-0.1v-4.3c0.5,0,1,0.1,1.5,0.1c0.5,0,1,0.1,1.6,0
		c0.7-0.1,1.2-0.3,1.5-0.8c0.3-0.5,0.5-1,0.5-1.6c0-0.4-0.1-0.8-0.2-1.2l-6.7-17.9h5.6l4.3,13.1h0.1l4.2-13.1h5.4l-8,21.5
		C222.8,228.6,222,229.7,221,230.3z"/>
</g>
<g>
	<path d="M37.9,251c-0.8,0-1.5,0.2-2.1,0.6s-1,0.9-1.4,1.5c-0.4,0.6-0.6,1.3-0.8,2c-0.1,0.7-0.2,1.4-0.2,2.2c0,0.7,0.1,1.4,0.2,2.1
		s0.4,1.4,0.7,1.9s0.8,1.1,1.4,1.4c0.6,0.4,1.3,0.6,2.1,0.6c1.3,0,2.2-0.4,2.9-1.1c0.7-0.7,1.1-1.6,1.3-2.8h5.1
		c-0.3,2.5-1.3,4.5-3,5.8s-3.7,2-6.3,2c-1.4,0-2.7-0.2-3.9-0.7c-1.2-0.5-2.2-1.2-3.1-2c-0.8-0.9-1.5-1.9-2-3.1
		c-0.5-1.2-0.7-2.5-0.7-3.9c0-1.5,0.2-2.9,0.6-4.1c0.4-1.3,1.1-2.4,1.9-3.3c0.8-0.9,1.9-1.6,3.1-2.2s2.6-0.8,4.1-0.8
		c1.1,0,2.2,0.1,3.3,0.4c1,0.3,2,0.7,2.8,1.4c0.8,0.6,1.5,1.4,2,2.3c0.5,0.9,0.8,2,0.9,3.2h-5.1C41.5,252.1,40.2,251,37.9,251z"/>
	<path d="M49.8,252.9c0.5-1.2,1.1-2.3,2-3.2c0.9-0.9,1.9-1.6,3.1-2c1.2-0.5,2.6-0.7,4.1-0.7c1.5,0,2.9,0.2,4.1,0.7
		c1.2,0.5,2.3,1.2,3.1,2c0.9,0.9,1.5,1.9,2,3.2c0.5,1.2,0.7,2.6,0.7,4.2c0,1.5-0.2,2.9-0.7,4.1c-0.5,1.2-1.1,2.3-2,3.2
		c-0.9,0.9-1.9,1.5-3.1,2s-2.6,0.7-4.1,0.7c-1.5,0-2.9-0.2-4.1-0.7s-2.2-1.1-3.1-2c-0.9-0.9-1.5-1.9-2-3.2c-0.5-1.2-0.7-2.6-0.7-4.1
		C49.1,255.6,49.4,254.2,49.8,252.9z M54.6,259.3c0.1,0.7,0.4,1.4,0.8,2c0.4,0.6,0.8,1,1.4,1.4c0.6,0.3,1.3,0.5,2.2,0.5
		c0.9,0,1.6-0.2,2.2-0.5c0.6-0.3,1.1-0.8,1.4-1.4c0.4-0.6,0.6-1.2,0.8-2c0.1-0.7,0.2-1.5,0.2-2.2c0-0.8-0.1-1.5-0.2-2.3
		c-0.1-0.7-0.4-1.4-0.8-2c-0.4-0.6-0.8-1-1.4-1.4c-0.6-0.4-1.4-0.5-2.2-0.5c-0.9,0-1.6,0.2-2.2,0.5c-0.6,0.4-1.1,0.8-1.4,1.4
		c-0.4,0.6-0.6,1.2-0.8,2c-0.1,0.7-0.2,1.5-0.2,2.3C54.4,257.9,54.4,258.6,54.6,259.3z"/>
	<path d="M76.7,266.6l-6.5-19.1h5.5l4,13.1h0.1l4-13.1H89l-6.5,19.1H76.7z"/>
	<path d="M96.5,262.1c0.8,0.8,1.9,1.1,3.4,1.1c1.1,0,2-0.3,2.7-0.8c0.8-0.5,1.2-1.1,1.4-1.7h4.6c-0.7,2.3-1.9,3.9-3.4,4.9
		c-1.5,1-3.4,1.5-5.6,1.5c-1.5,0-2.9-0.2-4.1-0.7c-1.2-0.5-2.2-1.2-3.1-2.1c-0.8-0.9-1.5-1.9-1.9-3.2c-0.5-1.2-0.7-2.6-0.7-4.1
		c0-1.4,0.2-2.8,0.7-4c0.5-1.2,1.1-2.3,2-3.2c0.9-0.9,1.9-1.6,3.1-2.1s2.5-0.8,4-0.8c1.6,0,3,0.3,4.3,0.9c1.2,0.6,2.2,1.5,3,2.5
		c0.8,1.1,1.3,2.3,1.7,3.6c0.3,1.4,0.5,2.8,0.4,4.3H95.2C95.3,260.1,95.7,261.3,96.5,262.1z M102.5,252c-0.6-0.7-1.6-1-2.9-1
		c-0.8,0-1.5,0.1-2.1,0.4c-0.6,0.3-1,0.6-1.3,1.1c-0.3,0.4-0.6,0.9-0.7,1.3c-0.1,0.5-0.2,0.9-0.2,1.3h8.5
		C103.5,253.7,103.1,252.7,102.5,252z"/>
	<path d="M116.8,247.5v3.6h0.1c0.2-0.6,0.6-1.1,1-1.6c0.4-0.5,0.9-0.9,1.4-1.3c0.5-0.4,1.1-0.6,1.7-0.8c0.6-0.2,1.3-0.3,1.9-0.3
		c0.3,0,0.7,0.1,1.1,0.2v4.9c-0.2,0-0.5-0.1-0.9-0.1c-0.3,0-0.7-0.1-1-0.1c-1,0-1.8,0.2-2.4,0.5c-0.7,0.3-1.2,0.8-1.6,1.3
		c-0.4,0.6-0.7,1.2-0.9,1.9c-0.2,0.7-0.3,1.5-0.3,2.4v8.6h-5.3v-19.1H116.8z"/>
	<path d="M125.6,253.4c0.1-1.2,0.4-2.3,0.9-3.1c0.5-0.8,1.2-1.5,2.1-2c0.8-0.5,1.8-0.8,2.8-1.1c1-0.2,2.1-0.3,3.2-0.3
		c1,0,1.9,0.1,2.9,0.2c1,0.1,1.9,0.4,2.7,0.8c0.8,0.4,1.5,0.9,2,1.6c0.5,0.7,0.8,1.6,0.8,2.8v10c0,0.9,0,1.7,0.1,2.5
		c0.1,0.8,0.3,1.4,0.5,1.8h-5.3c-0.1-0.3-0.2-0.6-0.2-0.9c-0.1-0.3-0.1-0.6-0.1-0.9c-0.8,0.9-1.8,1.5-3,1.8
		c-1.1,0.3-2.3,0.5-3.5,0.5c-0.9,0-1.8-0.1-2.6-0.3c-0.8-0.2-1.5-0.6-2.1-1c-0.6-0.5-1.1-1.1-1.4-1.8c-0.3-0.7-0.5-1.6-0.5-2.6
		c0-1.1,0.2-2,0.6-2.7s0.9-1.3,1.5-1.7c0.6-0.4,1.3-0.7,2.1-0.9c0.8-0.2,1.6-0.4,2.3-0.5c0.8-0.1,1.6-0.2,2.3-0.3
		c0.8-0.1,1.4-0.2,2-0.3c0.6-0.1,1.1-0.4,1.4-0.6c0.3-0.3,0.5-0.7,0.5-1.2c0-0.6-0.1-1-0.3-1.4c-0.2-0.3-0.4-0.6-0.7-0.8
		c-0.3-0.2-0.7-0.3-1.1-0.4c-0.4-0.1-0.8-0.1-1.3-0.1c-1,0-1.8,0.2-2.4,0.7c-0.6,0.4-0.9,1.2-1,2.2H125.6z M137.8,257.3
		c-0.2,0.2-0.5,0.4-0.8,0.5s-0.7,0.2-1.1,0.3c-0.4,0.1-0.8,0.1-1.2,0.2c-0.4,0-0.8,0.1-1.3,0.2c-0.4,0.1-0.8,0.2-1.2,0.3
		c-0.4,0.1-0.7,0.3-1,0.5c-0.3,0.2-0.5,0.5-0.7,0.8c-0.2,0.3-0.3,0.7-0.3,1.2c0,0.5,0.1,0.9,0.3,1.2c0.2,0.3,0.4,0.6,0.7,0.8
		s0.6,0.3,1,0.4c0.4,0.1,0.8,0.1,1.2,0.1c1,0,1.8-0.2,2.4-0.5c0.6-0.3,1-0.8,1.3-1.2s0.4-1,0.5-1.5c0.1-0.5,0.1-0.9,0.1-1.2V257.3z"
		/>
	<path d="M164.8,268c-0.2,1-0.7,1.9-1.4,2.8s-1.7,1.6-3,2.2c-1.3,0.6-3.1,0.9-5.3,0.9c-0.9,0-1.9-0.1-2.9-0.4s-1.9-0.6-2.7-1.1
		c-0.8-0.5-1.5-1.1-2-1.9c-0.5-0.8-0.8-1.7-0.9-2.8h5.2c0.2,1,0.7,1.7,1.4,2.1c0.7,0.4,1.5,0.6,2.5,0.6c1.5,0,2.6-0.4,3.2-1.3
		c0.7-0.9,1-2,1-3.4v-2.5h-0.1c-0.6,1-1.4,1.8-2.4,2.2c-1,0.5-2.2,0.7-3.3,0.7c-1.4,0-2.7-0.3-3.7-0.8c-1-0.5-1.9-1.2-2.6-2.1
		c-0.7-0.9-1.2-1.9-1.5-3.1c-0.3-1.2-0.5-2.4-0.5-3.7c0-1.2,0.2-2.4,0.5-3.6s0.9-2.2,1.6-3s1.5-1.6,2.6-2.1c1-0.5,2.2-0.8,3.5-0.8
		c1.3,0,2.4,0.2,3.3,0.7c0.9,0.5,1.7,1.3,2.4,2.4h0.1v-2.6h5v17.9C165.1,266.2,165,267.1,164.8,268z M157.6,261.7
		c0.6-0.3,1-0.7,1.4-1.2c0.4-0.5,0.6-1.1,0.8-1.7c0.2-0.6,0.3-1.3,0.3-2c0-0.8-0.1-1.5-0.2-2.2c-0.1-0.7-0.4-1.3-0.7-1.9
		c-0.3-0.5-0.8-1-1.4-1.3c-0.6-0.3-1.3-0.5-2.1-0.5c-0.7,0-1.4,0.1-1.9,0.4c-0.5,0.3-1,0.7-1.3,1.2c-0.4,0.5-0.6,1.1-0.8,1.7
		c-0.2,0.7-0.2,1.3-0.2,2.1c0,0.7,0.1,1.4,0.2,2.1c0.1,0.7,0.4,1.3,0.7,1.8s0.8,1,1.3,1.3c0.5,0.3,1.2,0.5,2,0.5
		C156.4,262.1,157.1,262,157.6,261.7z"/>
	<path d="M174.7,262.1c0.8,0.8,1.9,1.1,3.4,1.1c1.1,0,2-0.3,2.7-0.8c0.8-0.5,1.2-1.1,1.4-1.7h4.6c-0.7,2.3-1.9,3.9-3.4,4.9
		c-1.5,1-3.4,1.5-5.5,1.5c-1.5,0-2.9-0.2-4.1-0.7c-1.2-0.5-2.2-1.2-3.1-2.1c-0.8-0.9-1.5-1.9-1.9-3.2c-0.5-1.2-0.7-2.6-0.7-4.1
		c0-1.4,0.2-2.8,0.7-4c0.5-1.2,1.1-2.3,2-3.2c0.9-0.9,1.9-1.6,3.1-2.1s2.5-0.8,4-0.8c1.6,0,3,0.3,4.3,0.9s2.2,1.5,3,2.5
		c0.8,1.1,1.3,2.3,1.7,3.6c0.3,1.4,0.5,2.8,0.4,4.3h-13.8C173.4,260.1,173.9,261.3,174.7,262.1z M180.6,252c-0.6-0.7-1.6-1-2.9-1
		c-0.8,0-1.5,0.1-2.1,0.4c-0.6,0.3-1,0.6-1.3,1.1c-0.3,0.4-0.6,0.9-0.7,1.3c-0.1,0.5-0.2,0.9-0.2,1.3h8.5
		C181.7,253.7,181.2,252.7,180.6,252z"/>
	<path d="M199.6,253.4c0.1-1.2,0.4-2.3,0.9-3.1c0.5-0.8,1.2-1.5,2.1-2c0.8-0.5,1.8-0.8,2.8-1.1c1-0.2,2.1-0.3,3.2-0.3
		c1,0,1.9,0.1,2.9,0.2c1,0.1,1.9,0.4,2.7,0.8c0.8,0.4,1.5,0.9,2,1.6c0.5,0.7,0.8,1.6,0.8,2.8v10c0,0.9,0,1.7,0.1,2.5
		c0.1,0.8,0.3,1.4,0.5,1.8h-5.3c-0.1-0.3-0.2-0.6-0.2-0.9c-0.1-0.3-0.1-0.6-0.1-0.9c-0.8,0.9-1.8,1.5-3,1.8s-2.3,0.5-3.5,0.5
		c-0.9,0-1.8-0.1-2.6-0.3c-0.8-0.2-1.5-0.6-2.1-1c-0.6-0.5-1.1-1.1-1.4-1.8c-0.3-0.7-0.5-1.6-0.5-2.6c0-1.1,0.2-2,0.6-2.7
		c0.4-0.7,0.9-1.3,1.5-1.7c0.6-0.4,1.3-0.7,2.1-0.9c0.8-0.2,1.6-0.4,2.3-0.5c0.8-0.1,1.6-0.2,2.3-0.3c0.8-0.1,1.4-0.2,2-0.3
		c0.6-0.1,1.1-0.4,1.4-0.6c0.3-0.3,0.5-0.7,0.5-1.2c0-0.6-0.1-1-0.3-1.4c-0.2-0.3-0.4-0.6-0.7-0.8s-0.7-0.3-1.1-0.4
		c-0.4-0.1-0.8-0.1-1.3-0.1c-1,0-1.8,0.2-2.4,0.7c-0.6,0.4-0.9,1.2-1,2.2H199.6z M211.8,257.3c-0.2,0.2-0.5,0.4-0.8,0.5
		s-0.7,0.2-1.1,0.3c-0.4,0.1-0.8,0.1-1.2,0.2c-0.4,0-0.8,0.1-1.3,0.2c-0.4,0.1-0.8,0.2-1.2,0.3c-0.4,0.1-0.7,0.3-1,0.5
		c-0.3,0.2-0.5,0.5-0.7,0.8c-0.2,0.3-0.3,0.7-0.3,1.2c0,0.5,0.1,0.9,0.3,1.2c0.2,0.3,0.4,0.6,0.7,0.8c0.3,0.2,0.6,0.3,1,0.4
		c0.4,0.1,0.8,0.1,1.2,0.1c1,0,1.8-0.2,2.4-0.5c0.6-0.3,1-0.8,1.3-1.2c0.3-0.5,0.4-1,0.5-1.5c0.1-0.5,0.1-0.9,0.1-1.2V257.3z"/>
	<path d="M231.3,247.5v3.5h-3.8v9.5c0,0.9,0.1,1.5,0.4,1.8c0.3,0.3,0.9,0.4,1.8,0.4c0.3,0,0.6,0,0.9,0c0.3,0,0.5-0.1,0.8-0.1v4.1
		c-0.4,0.1-0.9,0.1-1.5,0.1c-0.5,0-1.1,0-1.6,0c-0.8,0-1.6-0.1-2.3-0.2s-1.4-0.3-1.9-0.6c-0.6-0.3-1-0.8-1.3-1.4
		c-0.3-0.6-0.5-1.4-0.5-2.3V251H219v-3.5h3.2v-5.7h5.3v5.7H231.3z"/>
</g>
<g>
	<path d="M39.3,289.5v3.5h-3.8v9.5c0,0.9,0.1,1.5,0.4,1.8s0.9,0.4,1.8,0.4c0.3,0,0.6,0,0.9,0c0.3,0,0.5-0.1,0.8-0.1v4.1
		c-0.4,0.1-0.9,0.1-1.5,0.1c-0.5,0-1.1,0-1.6,0c-0.8,0-1.6-0.1-2.3-0.2c-0.7-0.1-1.4-0.3-1.9-0.6c-0.6-0.3-1-0.8-1.3-1.4
		c-0.3-0.6-0.5-1.4-0.5-2.3V293H27v-3.5h3.2v-5.7h5.3v5.7H39.3z"/>
	<path d="M46.8,282.2v10h0.1c0.7-1.1,1.5-1.9,2.6-2.4c1-0.5,2-0.8,3-0.8c1.4,0,2.6,0.2,3.5,0.6c0.9,0.4,1.6,0.9,2.1,1.6
		c0.5,0.7,0.9,1.5,1.1,2.5c0.2,1,0.3,2.1,0.3,3.2v11.8h-5.3v-10.8c0-1.6-0.2-2.8-0.7-3.5c-0.5-0.8-1.4-1.2-2.6-1.2
		c-1.4,0-2.5,0.4-3.1,1.3c-0.6,0.9-1,2.3-1,4.2v10h-5.3v-26.4H46.8z"/>
	<path d="M68.7,304c0.8,0.8,1.9,1.1,3.4,1.1c1.1,0,2-0.3,2.7-0.8c0.8-0.5,1.2-1.1,1.4-1.7h4.6c-0.7,2.3-1.9,3.9-3.4,4.9
		c-1.5,1-3.4,1.5-5.6,1.5c-1.5,0-2.9-0.2-4.1-0.7c-1.2-0.5-2.2-1.2-3.1-2.1c-0.8-0.9-1.5-1.9-1.9-3.2s-0.7-2.6-0.7-4.1
		c0-1.4,0.2-2.8,0.7-4c0.5-1.2,1.1-2.3,2-3.2c0.9-0.9,1.9-1.6,3.1-2.1s2.5-0.8,4-0.8c1.6,0,3,0.3,4.3,0.9c1.2,0.6,2.2,1.5,3,2.5
		c0.8,1.1,1.3,2.3,1.7,3.6c0.3,1.4,0.5,2.8,0.4,4.3H67.4C67.5,302.1,67.9,303.3,68.7,304z M74.7,294c-0.6-0.7-1.6-1-2.9-1
		c-0.8,0-1.5,0.1-2.1,0.4c-0.6,0.3-1,0.6-1.3,1.1c-0.3,0.4-0.6,0.9-0.7,1.3c-0.1,0.5-0.2,0.9-0.2,1.3H76
		C75.7,295.7,75.3,294.7,74.7,294z"/>
	<path d="M98.4,303.9c0.2,0.4,0.5,0.7,0.9,1c0.4,0.3,0.8,0.5,1.3,0.6s1,0.2,1.5,0.2c0.4,0,0.8,0,1.2-0.1c0.4-0.1,0.8-0.2,1.1-0.4
		c0.3-0.2,0.6-0.4,0.8-0.7s0.3-0.7,0.3-1.2c0-0.8-0.5-1.4-1.6-1.8c-1-0.4-2.5-0.8-4.4-1.2c-0.8-0.2-1.5-0.4-2.2-0.6
		c-0.7-0.2-1.4-0.5-1.9-0.9c-0.6-0.4-1-0.9-1.4-1.4c-0.3-0.6-0.5-1.3-0.5-2.1c0-1.2,0.2-2.2,0.7-3c0.5-0.8,1.1-1.4,1.9-1.9
		c0.8-0.5,1.7-0.8,2.7-1c1-0.2,2-0.3,3-0.3c1,0,2,0.1,3,0.3c1,0.2,1.8,0.5,2.6,1c0.8,0.5,1.4,1.1,1.9,1.9c0.5,0.8,0.8,1.8,0.9,2.9
		h-5c-0.1-1-0.5-1.7-1.1-2.1c-0.7-0.4-1.5-0.5-2.4-0.5c-0.3,0-0.6,0-1,0.1c-0.3,0-0.7,0.1-0.9,0.2c-0.3,0.1-0.5,0.3-0.7,0.5
		c-0.2,0.2-0.3,0.5-0.3,0.9c0,0.5,0.2,0.9,0.5,1.1c0.3,0.3,0.8,0.5,1.4,0.7c0.6,0.2,1.2,0.4,1.9,0.5c0.7,0.1,1.4,0.3,2.2,0.5
		c0.8,0.2,1.5,0.4,2.2,0.6s1.4,0.6,1.9,1c0.6,0.4,1,0.9,1.4,1.5c0.3,0.6,0.5,1.4,0.5,2.2c0,1.3-0.3,2.3-0.8,3.2
		c-0.5,0.9-1.2,1.5-2,2.1c-0.8,0.5-1.7,0.9-2.8,1.1c-1,0.2-2.1,0.3-3.2,0.3c-1.1,0-2.2-0.1-3.3-0.3c-1.1-0.2-2-0.6-2.8-1.1
		c-0.8-0.5-1.5-1.2-2-2.1c-0.5-0.9-0.8-1.9-0.9-3.2h5C98,303,98.1,303.5,98.4,303.9z"/>
	<path d="M124,289.5v3.5h-3.8v9.5c0,0.9,0.1,1.5,0.4,1.8s0.9,0.4,1.8,0.4c0.3,0,0.6,0,0.9,0c0.3,0,0.5-0.1,0.8-0.1v4.1
		c-0.4,0.1-0.9,0.1-1.5,0.1c-0.5,0-1.1,0-1.6,0c-0.8,0-1.6-0.1-2.3-0.2c-0.7-0.1-1.4-0.3-1.9-0.6c-0.6-0.3-1-0.8-1.3-1.4
		c-0.3-0.6-0.5-1.4-0.5-2.3V293h-3.2v-3.5h3.2v-5.7h5.3v5.7H124z"/>
	<path d="M126,295.4c0.1-1.2,0.4-2.3,0.9-3.1c0.5-0.8,1.2-1.5,2.1-2c0.8-0.5,1.8-0.8,2.8-1.1c1-0.2,2.1-0.3,3.2-0.3
		c1,0,1.9,0.1,2.9,0.2c1,0.1,1.9,0.4,2.7,0.8c0.8,0.4,1.5,0.9,2,1.6c0.5,0.7,0.8,1.6,0.8,2.8v10c0,0.9,0,1.7,0.1,2.5
		c0.1,0.8,0.3,1.4,0.5,1.8h-5.3c-0.1-0.3-0.2-0.6-0.2-0.9c-0.1-0.3-0.1-0.6-0.1-0.9c-0.8,0.9-1.8,1.5-3,1.8
		c-1.1,0.3-2.3,0.5-3.5,0.5c-0.9,0-1.8-0.1-2.6-0.3c-0.8-0.2-1.5-0.6-2.1-1c-0.6-0.5-1.1-1.1-1.4-1.8c-0.3-0.7-0.5-1.6-0.5-2.6
		c0-1.1,0.2-2,0.6-2.7s0.9-1.3,1.5-1.7c0.6-0.4,1.3-0.7,2.1-0.9c0.8-0.2,1.6-0.4,2.3-0.5c0.8-0.1,1.6-0.2,2.3-0.3
		c0.8-0.1,1.4-0.2,2-0.3c0.6-0.1,1.1-0.4,1.4-0.6c0.3-0.3,0.5-0.7,0.5-1.2c0-0.6-0.1-1-0.3-1.4c-0.2-0.3-0.4-0.6-0.7-0.8
		c-0.3-0.2-0.7-0.3-1.1-0.4c-0.4-0.1-0.8-0.1-1.3-0.1c-1,0-1.8,0.2-2.4,0.7c-0.6,0.4-0.9,1.2-1,2.2H126z M138.1,299.3
		c-0.2,0.2-0.5,0.4-0.8,0.5s-0.7,0.2-1.1,0.3c-0.4,0.1-0.8,0.1-1.2,0.2c-0.4,0-0.8,0.1-1.3,0.2c-0.4,0.1-0.8,0.2-1.2,0.3
		c-0.4,0.1-0.7,0.3-1,0.5c-0.3,0.2-0.5,0.5-0.7,0.8c-0.2,0.3-0.3,0.7-0.3,1.2c0,0.5,0.1,0.9,0.3,1.2c0.2,0.3,0.4,0.6,0.7,0.8
		c0.3,0.2,0.6,0.3,1,0.4c0.4,0.1,0.8,0.1,1.2,0.1c1,0,1.8-0.2,2.4-0.5c0.6-0.3,1-0.8,1.3-1.2c0.3-0.5,0.4-1,0.5-1.5s0.1-0.9,0.1-1.2
		V299.3z"/>
	<path d="M152.1,289.5v3.6h0.1c0.2-0.6,0.6-1.1,1-1.6c0.4-0.5,0.9-0.9,1.4-1.3c0.5-0.4,1.1-0.6,1.7-0.8c0.6-0.2,1.3-0.3,1.9-0.3
		c0.3,0,0.7,0.1,1.1,0.2v4.9c-0.2,0-0.5-0.1-0.9-0.1s-0.7-0.1-1-0.1c-1,0-1.8,0.2-2.4,0.5c-0.7,0.3-1.2,0.8-1.6,1.3
		c-0.4,0.6-0.7,1.2-0.9,1.9c-0.2,0.7-0.3,1.5-0.3,2.4v8.6h-5.3v-19.1H152.1z"/>
	<path d="M171.7,289.5v3.5h-3.8v9.5c0,0.9,0.1,1.5,0.4,1.8c0.3,0.3,0.9,0.4,1.8,0.4c0.3,0,0.6,0,0.9,0s0.5-0.1,0.8-0.1v4.1
		c-0.4,0.1-0.9,0.1-1.5,0.1c-0.5,0-1.1,0-1.6,0c-0.8,0-1.6-0.1-2.3-0.2s-1.4-0.3-1.9-0.6c-0.6-0.3-1-0.8-1.3-1.4s-0.5-1.4-0.5-2.3
		V293h-3.2v-3.5h3.2v-5.7h5.3v5.7H171.7z"/>
	<path d="M183.9,294.9c0.5-1.2,1.1-2.3,2-3.2c0.9-0.9,1.9-1.6,3.1-2c1.2-0.5,2.6-0.7,4.1-0.7c1.5,0,2.9,0.2,4.1,0.7
		c1.2,0.5,2.3,1.2,3.1,2c0.9,0.9,1.5,1.9,2,3.2c0.5,1.2,0.7,2.6,0.7,4.2s-0.2,2.9-0.7,4.1c-0.5,1.2-1.1,2.3-2,3.2s-1.9,1.5-3.1,2
		c-1.2,0.5-2.6,0.7-4.1,0.7c-1.5,0-2.9-0.2-4.1-0.7c-1.2-0.5-2.2-1.1-3.1-2c-0.9-0.9-1.5-1.9-2-3.2c-0.5-1.2-0.7-2.6-0.7-4.1
		S183.4,296.2,183.9,294.9z M188.7,301.3c0.1,0.7,0.4,1.4,0.8,2c0.4,0.6,0.8,1,1.4,1.4c0.6,0.3,1.3,0.5,2.2,0.5s1.6-0.2,2.2-0.5
		c0.6-0.3,1.1-0.8,1.4-1.4c0.4-0.6,0.6-1.2,0.8-2c0.1-0.7,0.2-1.5,0.2-2.2c0-0.8-0.1-1.5-0.2-2.3c-0.1-0.7-0.4-1.4-0.8-2
		c-0.4-0.6-0.8-1-1.4-1.4c-0.6-0.4-1.4-0.5-2.2-0.5s-1.6,0.2-2.2,0.5c-0.6,0.4-1.1,0.8-1.4,1.4c-0.4,0.6-0.6,1.2-0.8,2
		c-0.1,0.7-0.2,1.5-0.2,2.3C188.5,299.9,188.5,300.6,188.7,301.3z"/>
	<path d="M204.1,293v-3.5h3.1V288c0-1.7,0.5-3.1,1.6-4.2c1.1-1.1,2.7-1.6,4.8-1.6c0.5,0,0.9,0,1.4,0.1c0.5,0,0.9,0.1,1.4,0.1v3.9
		c-0.6-0.1-1.3-0.1-1.9-0.1c-0.7,0-1.2,0.2-1.5,0.5s-0.5,0.9-0.5,1.7v1.1h3.6v3.5h-3.6v15.6h-5.3V293H204.1z"/>
</g>
<g>
	<path d="M35.9,356.3c-1,0.7-2.4,1-4.2,1c-0.5,0-1.1,0-1.6-0.1c-0.5,0-1.1-0.1-1.6-0.1v-4.3c0.5,0,1,0.1,1.5,0.1c0.5,0,1,0.1,1.6,0
		c0.7-0.1,1.2-0.3,1.5-0.8s0.5-1,0.5-1.6c0-0.4-0.1-0.8-0.2-1.2l-6.7-17.9h5.6l4.3,13.1h0.1l4.2-13.1h5.4l-8,21.5
		C37.7,354.6,36.9,355.7,35.9,356.3z"/>
	<path d="M47.8,336.9c0.5-1.2,1.1-2.3,2-3.2c0.9-0.9,1.9-1.6,3.1-2c1.2-0.5,2.6-0.7,4.1-0.7c1.5,0,2.9,0.2,4.1,0.7
		c1.2,0.5,2.3,1.2,3.1,2c0.9,0.9,1.5,1.9,2,3.2c0.5,1.2,0.7,2.6,0.7,4.2s-0.2,2.9-0.7,4.1c-0.5,1.2-1.1,2.3-2,3.2
		c-0.9,0.9-1.9,1.5-3.1,2c-1.2,0.5-2.6,0.7-4.1,0.7c-1.5,0-2.9-0.2-4.1-0.7c-1.2-0.5-2.2-1.1-3.1-2c-0.9-0.9-1.5-1.9-2-3.2
		c-0.5-1.2-0.7-2.6-0.7-4.1S47.3,338.2,47.8,336.9z M52.6,343.3c0.1,0.7,0.4,1.4,0.8,2c0.4,0.6,0.8,1,1.4,1.4
		c0.6,0.3,1.3,0.5,2.2,0.5c0.9,0,1.6-0.2,2.2-0.5c0.6-0.3,1.1-0.8,1.4-1.4c0.4-0.6,0.6-1.2,0.8-2s0.2-1.5,0.2-2.2s-0.1-1.5-0.2-2.3
		c-0.1-0.7-0.4-1.4-0.8-2c-0.4-0.6-0.8-1-1.4-1.4c-0.6-0.4-1.4-0.5-2.2-0.5c-0.9,0-1.6,0.2-2.2,0.5c-0.6,0.4-1.1,0.8-1.4,1.4
		c-0.4,0.6-0.6,1.2-0.8,2c-0.1,0.7-0.2,1.5-0.2,2.3S52.4,342.6,52.6,343.3z"/>
	<path d="M82.9,350.6V348h-0.1c-0.7,1.1-1.5,1.9-2.6,2.4c-1.1,0.5-2.1,0.7-3.3,0.7c-1.4,0-2.6-0.2-3.5-0.6c-0.9-0.4-1.6-0.9-2.1-1.6
		c-0.5-0.7-0.9-1.5-1.1-2.5c-0.2-1-0.3-2.1-0.3-3.2v-11.8h5.3v10.8c0,1.6,0.2,2.8,0.7,3.5c0.5,0.8,1.4,1.2,2.6,1.2
		c1.4,0,2.5-0.4,3.1-1.3c0.6-0.9,1-2.3,1-4.2v-10h5.3v19.1H82.9z"/>
	<path d="M96.6,331.5v3.6h0.1c0.2-0.6,0.6-1.1,1-1.6c0.4-0.5,0.9-0.9,1.4-1.3c0.5-0.4,1.1-0.6,1.7-0.8c0.6-0.2,1.3-0.3,1.9-0.3
		c0.3,0,0.7,0.1,1.1,0.2v4.9c-0.2,0-0.5-0.1-0.9-0.1c-0.3,0-0.7-0.1-1-0.1c-1,0-1.8,0.2-2.4,0.5c-0.7,0.3-1.2,0.8-1.6,1.3
		c-0.4,0.6-0.7,1.2-0.9,1.9c-0.2,0.7-0.3,1.5-0.3,2.4v8.6h-5.3v-19.1H96.6z"/>
	<path d="M124.7,334.9c-0.8,0-1.5,0.2-2.1,0.6s-1,0.9-1.4,1.5c-0.4,0.6-0.6,1.3-0.8,2c-0.1,0.7-0.2,1.4-0.2,2.2
		c0,0.7,0.1,1.4,0.2,2.1c0.1,0.7,0.4,1.4,0.7,1.9c0.3,0.6,0.8,1.1,1.4,1.4c0.6,0.4,1.3,0.6,2.1,0.6c1.3,0,2.2-0.4,2.9-1.1
		c0.7-0.7,1.1-1.6,1.3-2.8h5.1c-0.3,2.5-1.3,4.5-3,5.8s-3.7,2-6.3,2c-1.4,0-2.7-0.2-3.9-0.7c-1.2-0.5-2.2-1.2-3.1-2
		c-0.8-0.9-1.5-1.9-2-3.1c-0.5-1.2-0.7-2.5-0.7-3.9c0-1.5,0.2-2.9,0.6-4.1c0.4-1.3,1.1-2.4,1.9-3.3c0.8-0.9,1.9-1.6,3.1-2.2
		c1.2-0.5,2.6-0.8,4.1-0.8c1.1,0,2.2,0.1,3.3,0.4c1,0.3,2,0.7,2.8,1.4c0.8,0.6,1.5,1.4,2,2.3c0.5,0.9,0.8,2,0.9,3.2h-5.1
		C128.2,336,126.9,334.9,124.7,334.9z"/>
	<path d="M136.2,337.4c0.1-1.2,0.4-2.3,0.9-3.1c0.5-0.8,1.2-1.5,2.1-2c0.8-0.5,1.8-0.8,2.8-1.1c1-0.2,2.1-0.3,3.2-0.3
		c1,0,1.9,0.1,2.9,0.2c1,0.1,1.9,0.4,2.7,0.8c0.8,0.4,1.5,0.9,2,1.6c0.5,0.7,0.8,1.6,0.8,2.8v10c0,0.9,0,1.7,0.1,2.5
		c0.1,0.8,0.3,1.4,0.5,1.8h-5.3c-0.1-0.3-0.2-0.6-0.2-0.9s-0.1-0.6-0.1-0.9c-0.8,0.9-1.8,1.5-3,1.8c-1.1,0.3-2.3,0.5-3.5,0.5
		c-0.9,0-1.8-0.1-2.6-0.3c-0.8-0.2-1.5-0.6-2.1-1c-0.6-0.5-1.1-1.1-1.4-1.8c-0.3-0.7-0.5-1.6-0.5-2.6c0-1.1,0.2-2,0.6-2.7
		s0.9-1.3,1.5-1.7c0.6-0.4,1.3-0.7,2.1-0.9c0.8-0.2,1.6-0.4,2.3-0.5c0.8-0.1,1.6-0.2,2.3-0.3s1.4-0.2,2-0.3c0.6-0.1,1.1-0.4,1.4-0.6
		c0.3-0.3,0.5-0.7,0.5-1.2c0-0.6-0.1-1-0.3-1.4s-0.4-0.6-0.7-0.8c-0.3-0.2-0.7-0.3-1.1-0.4c-0.4-0.1-0.8-0.1-1.3-0.1
		c-1,0-1.8,0.2-2.4,0.7c-0.6,0.4-0.9,1.2-1,2.2H136.2z M148.4,341.3c-0.2,0.2-0.5,0.4-0.8,0.5c-0.3,0.1-0.7,0.2-1.1,0.3
		c-0.4,0.1-0.8,0.1-1.2,0.2c-0.4,0-0.8,0.1-1.3,0.2c-0.4,0.1-0.8,0.2-1.2,0.3c-0.4,0.1-0.7,0.3-1,0.5c-0.3,0.2-0.5,0.5-0.7,0.8
		c-0.2,0.3-0.3,0.7-0.3,1.2c0,0.5,0.1,0.9,0.3,1.2s0.4,0.6,0.7,0.8c0.3,0.2,0.6,0.3,1,0.4c0.4,0.1,0.8,0.1,1.2,0.1
		c1,0,1.8-0.2,2.4-0.5c0.6-0.3,1-0.8,1.3-1.2c0.3-0.5,0.4-1,0.5-1.5c0.1-0.5,0.1-0.9,0.1-1.2V341.3z"/>
	<path d="M162.3,331.5v3.6h0.1c0.2-0.6,0.6-1.1,1-1.6c0.4-0.5,0.9-0.9,1.4-1.3c0.5-0.4,1.1-0.6,1.7-0.8c0.6-0.2,1.3-0.3,1.9-0.3
		c0.3,0,0.7,0.1,1.1,0.2v4.9c-0.2,0-0.5-0.1-0.9-0.1c-0.3,0-0.7-0.1-1-0.1c-1,0-1.8,0.2-2.4,0.5c-0.7,0.3-1.2,0.8-1.6,1.3
		c-0.4,0.6-0.7,1.2-0.9,1.9c-0.2,0.7-0.3,1.5-0.3,2.4v8.6h-5.3v-19.1H162.3z"/>
	<path d="M176.4,346c0.8,0.8,1.9,1.1,3.4,1.1c1.1,0,2-0.3,2.7-0.8s1.2-1.1,1.4-1.7h4.6c-0.7,2.3-1.9,3.9-3.4,4.9
		c-1.5,1-3.4,1.5-5.5,1.5c-1.5,0-2.9-0.2-4.1-0.7c-1.2-0.5-2.2-1.2-3.1-2.1c-0.8-0.9-1.5-1.9-1.9-3.2c-0.5-1.2-0.7-2.6-0.7-4.1
		c0-1.4,0.2-2.8,0.7-4c0.5-1.2,1.1-2.3,2-3.2c0.9-0.9,1.9-1.6,3.1-2.1c1.2-0.5,2.5-0.8,4-0.8c1.6,0,3,0.3,4.3,0.9s2.2,1.5,3,2.5
		c0.8,1.1,1.3,2.3,1.7,3.6s0.5,2.8,0.4,4.3h-13.8C175.1,344,175.6,345.3,176.4,346z M182.3,336c-0.6-0.7-1.6-1-2.9-1
		c-0.8,0-1.5,0.1-2.1,0.4c-0.6,0.3-1,0.6-1.3,1.1c-0.3,0.4-0.6,0.9-0.7,1.3s-0.2,0.9-0.2,1.3h8.5C183.4,337.7,182.9,336.7,182.3,336
		z"/>
	<path d="M197.3,346c0.8,0.8,1.9,1.1,3.4,1.1c1.1,0,2-0.3,2.7-0.8s1.2-1.1,1.4-1.7h4.6c-0.7,2.3-1.9,3.9-3.4,4.9
		c-1.5,1-3.4,1.5-5.5,1.5c-1.5,0-2.9-0.2-4.1-0.7c-1.2-0.5-2.2-1.2-3.1-2.1c-0.8-0.9-1.5-1.9-1.9-3.2c-0.5-1.2-0.7-2.6-0.7-4.1
		c0-1.4,0.2-2.8,0.7-4c0.5-1.2,1.1-2.3,2-3.2c0.9-0.9,1.9-1.6,3.1-2.1c1.2-0.5,2.5-0.8,4-0.8c1.6,0,3,0.3,4.3,0.9s2.2,1.5,3,2.5
		c0.8,1.1,1.3,2.3,1.7,3.6s0.5,2.8,0.4,4.3H196C196,344,196.5,345.3,197.3,346z M203.2,336c-0.6-0.7-1.6-1-2.9-1
		c-0.8,0-1.5,0.1-2.1,0.4c-0.6,0.3-1,0.6-1.3,1.1c-0.3,0.4-0.6,0.9-0.7,1.3s-0.2,0.9-0.2,1.3h8.5C204.3,337.7,203.8,336.7,203.2,336
		z"/>
	<path d="M217.5,331.5v3.6h0.1c0.2-0.6,0.6-1.1,1-1.6c0.4-0.5,0.9-0.9,1.4-1.3c0.5-0.4,1.1-0.6,1.7-0.8c0.6-0.2,1.3-0.3,1.9-0.3
		c0.3,0,0.7,0.1,1.1,0.2v4.9c-0.2,0-0.5-0.1-0.9-0.1c-0.3,0-0.7-0.1-1-0.1c-1,0-1.8,0.2-2.4,0.5c-0.7,0.3-1.2,0.8-1.6,1.3
		c-0.4,0.6-0.7,1.2-0.9,1.9c-0.2,0.7-0.3,1.5-0.3,2.4v8.6h-5.3v-19.1H217.5z"/>
</g>
<g>
	<path d="M29,370.5v-4.3h5.3v4.3H29z M34.2,373.5v19.1H29v-19.1H34.2z"/>
	<path d="M42.4,387.9c0.2,0.4,0.5,0.7,0.9,1c0.4,0.3,0.8,0.5,1.3,0.6s1,0.2,1.5,0.2c0.4,0,0.8,0,1.2-0.1c0.4-0.1,0.8-0.2,1.1-0.4
		c0.3-0.2,0.6-0.4,0.8-0.7s0.3-0.7,0.3-1.2c0-0.8-0.5-1.4-1.6-1.8c-1-0.4-2.5-0.8-4.4-1.2c-0.8-0.2-1.5-0.4-2.2-0.6
		c-0.7-0.2-1.4-0.5-1.9-0.9c-0.6-0.4-1-0.9-1.4-1.4c-0.3-0.6-0.5-1.3-0.5-2.1c0-1.2,0.2-2.2,0.7-3c0.5-0.8,1.1-1.4,1.9-1.9
		c0.8-0.5,1.7-0.8,2.7-1c1-0.2,2-0.3,3-0.3c1,0,2,0.1,3,0.3c1,0.2,1.8,0.5,2.6,1s1.4,1.1,1.9,1.9c0.5,0.8,0.8,1.8,0.9,2.9h-5
		c-0.1-1-0.5-1.7-1.1-2.1c-0.7-0.4-1.5-0.5-2.4-0.5c-0.3,0-0.6,0-1,0.1c-0.3,0-0.7,0.1-0.9,0.2c-0.3,0.1-0.5,0.3-0.7,0.5
		c-0.2,0.2-0.3,0.5-0.3,0.9c0,0.5,0.2,0.9,0.5,1.1c0.3,0.3,0.8,0.5,1.4,0.7c0.6,0.2,1.2,0.4,1.9,0.5c0.7,0.1,1.4,0.3,2.2,0.5
		c0.8,0.2,1.5,0.4,2.2,0.6c0.7,0.2,1.4,0.6,1.9,1c0.6,0.4,1,0.9,1.4,1.5c0.3,0.6,0.5,1.4,0.5,2.2c0,1.3-0.3,2.3-0.8,3.2
		c-0.5,0.9-1.2,1.5-2,2.1c-0.8,0.5-1.7,0.9-2.8,1.1c-1,0.2-2.1,0.3-3.2,0.3c-1.1,0-2.2-0.1-3.3-0.3c-1.1-0.2-2-0.6-2.8-1.1
		c-0.8-0.5-1.5-1.2-2-2.1c-0.5-0.9-0.8-1.9-0.9-3.2h5C42.1,387,42.2,387.5,42.4,387.9z"/>
	<path d="M67.2,379.4c0.1-1.2,0.4-2.3,0.9-3.1c0.5-0.8,1.2-1.5,2.1-2c0.8-0.5,1.8-0.8,2.8-1.1c1-0.2,2.1-0.3,3.2-0.3
		c1,0,1.9,0.1,2.9,0.2c1,0.1,1.9,0.4,2.7,0.8c0.8,0.4,1.5,0.9,2,1.6c0.5,0.7,0.8,1.6,0.8,2.8v10c0,0.9,0,1.7,0.1,2.5
		c0.1,0.8,0.3,1.4,0.5,1.8H80c-0.1-0.3-0.2-0.6-0.2-0.9c-0.1-0.3-0.1-0.6-0.1-0.9c-0.8,0.9-1.8,1.5-3,1.8c-1.1,0.3-2.3,0.5-3.5,0.5
		c-0.9,0-1.8-0.1-2.6-0.3c-0.8-0.2-1.5-0.6-2.1-1c-0.6-0.5-1.1-1.1-1.4-1.8c-0.3-0.7-0.5-1.6-0.5-2.6c0-1.1,0.2-2,0.6-2.7
		s0.9-1.3,1.5-1.7c0.6-0.4,1.3-0.7,2.1-0.9c0.8-0.2,1.6-0.4,2.3-0.5c0.8-0.1,1.6-0.2,2.3-0.3c0.8-0.1,1.4-0.2,2-0.3
		c0.6-0.1,1.1-0.4,1.4-0.6c0.3-0.3,0.5-0.7,0.5-1.2c0-0.6-0.1-1-0.3-1.4c-0.2-0.3-0.4-0.6-0.7-0.8c-0.3-0.2-0.7-0.3-1.1-0.4
		c-0.4-0.1-0.8-0.1-1.3-0.1c-1,0-1.8,0.2-2.4,0.7c-0.6,0.4-0.9,1.2-1,2.2H67.2z M79.4,383.3c-0.2,0.2-0.5,0.4-0.8,0.5
		s-0.7,0.2-1.1,0.3s-0.8,0.1-1.2,0.2c-0.4,0-0.8,0.1-1.3,0.2c-0.4,0.1-0.8,0.2-1.2,0.3c-0.4,0.1-0.7,0.3-1,0.5
		c-0.3,0.2-0.5,0.5-0.7,0.8c-0.2,0.3-0.3,0.7-0.3,1.2c0,0.5,0.1,0.9,0.3,1.2c0.2,0.3,0.4,0.6,0.7,0.8c0.3,0.2,0.6,0.3,1,0.4
		c0.4,0.1,0.8,0.1,1.2,0.1c1,0,1.8-0.2,2.4-0.5c0.6-0.3,1-0.8,1.3-1.2c0.3-0.5,0.4-1,0.5-1.5s0.1-0.9,0.1-1.2V383.3z"/>
	<path d="M116.4,394c-0.2,1-0.7,1.9-1.4,2.8c-0.7,0.9-1.7,1.6-3,2.2c-1.3,0.6-3.1,0.9-5.3,0.9c-0.9,0-1.9-0.1-2.9-0.4
		c-1-0.2-1.9-0.6-2.7-1.1c-0.8-0.5-1.5-1.1-2-1.9c-0.5-0.8-0.8-1.7-0.9-2.8h5.2c0.2,1,0.7,1.7,1.4,2.1c0.7,0.4,1.5,0.6,2.5,0.6
		c1.5,0,2.6-0.4,3.2-1.3c0.7-0.9,1-2,1-3.4v-2.5h-0.1c-0.6,1-1.4,1.8-2.4,2.2c-1,0.5-2.2,0.7-3.3,0.7c-1.4,0-2.7-0.3-3.7-0.8
		c-1-0.5-1.9-1.2-2.6-2.1c-0.7-0.9-1.2-1.9-1.5-3.1c-0.3-1.2-0.5-2.4-0.5-3.7c0-1.2,0.2-2.4,0.5-3.6c0.4-1.1,0.9-2.2,1.6-3
		c0.7-0.9,1.5-1.6,2.6-2.1c1-0.5,2.2-0.8,3.5-0.8c1.3,0,2.4,0.2,3.3,0.7c0.9,0.5,1.7,1.3,2.4,2.4h0.1v-2.6h5v17.9
		C116.7,392.2,116.6,393,116.4,394z M109.2,387.7c0.6-0.3,1-0.7,1.4-1.2c0.4-0.5,0.6-1.1,0.8-1.7c0.2-0.6,0.3-1.3,0.3-2
		c0-0.8-0.1-1.5-0.2-2.2c-0.1-0.7-0.4-1.3-0.7-1.9c-0.3-0.5-0.8-1-1.4-1.3c-0.6-0.3-1.3-0.5-2.1-0.5c-0.7,0-1.4,0.1-1.9,0.4
		s-1,0.7-1.3,1.2c-0.4,0.5-0.6,1.1-0.8,1.7c-0.2,0.7-0.2,1.3-0.2,2.1c0,0.7,0.1,1.4,0.2,2.1s0.4,1.3,0.7,1.8c0.3,0.5,0.8,1,1.3,1.3
		c0.5,0.3,1.2,0.5,2,0.5C107.9,388.1,108.6,388,109.2,387.7z"/>
	<path d="M120.6,378.9c0.5-1.2,1.1-2.3,2-3.2c0.9-0.9,1.9-1.6,3.1-2c1.2-0.5,2.6-0.7,4.1-0.7c1.5,0,2.9,0.2,4.1,0.7
		c1.2,0.5,2.3,1.2,3.1,2c0.9,0.9,1.5,1.9,2,3.2c0.5,1.2,0.7,2.6,0.7,4.2s-0.2,2.9-0.7,4.1c-0.5,1.2-1.1,2.3-2,3.2
		c-0.9,0.9-1.9,1.5-3.1,2c-1.2,0.5-2.6,0.7-4.1,0.7c-1.5,0-2.9-0.2-4.1-0.7c-1.2-0.5-2.2-1.1-3.1-2c-0.9-0.9-1.5-1.9-2-3.2
		c-0.5-1.2-0.7-2.6-0.7-4.1S120.2,380.2,120.6,378.9z M125.4,385.3c0.1,0.7,0.4,1.4,0.8,2c0.4,0.6,0.8,1,1.4,1.4
		c0.6,0.3,1.3,0.5,2.2,0.5c0.9,0,1.6-0.2,2.2-0.5c0.6-0.3,1.1-0.8,1.4-1.4c0.4-0.6,0.6-1.2,0.8-2s0.2-1.5,0.2-2.2s-0.1-1.5-0.2-2.3
		c-0.1-0.7-0.4-1.4-0.8-2c-0.4-0.6-0.8-1-1.4-1.4c-0.6-0.4-1.4-0.5-2.2-0.5c-0.9,0-1.6,0.2-2.2,0.5c-0.6,0.4-1.1,0.8-1.4,1.4
		c-0.4,0.6-0.6,1.2-0.8,2c-0.1,0.7-0.2,1.5-0.2,2.3S125.3,384.6,125.4,385.3z"/>
	<path d="M142.9,378.9c0.5-1.2,1.1-2.3,2-3.2c0.9-0.9,1.9-1.6,3.1-2c1.2-0.5,2.6-0.7,4.1-0.7c1.5,0,2.9,0.2,4.1,0.7
		c1.2,0.5,2.3,1.2,3.1,2c0.9,0.9,1.5,1.9,2,3.2c0.5,1.2,0.7,2.6,0.7,4.2s-0.2,2.9-0.7,4.1c-0.5,1.2-1.1,2.3-2,3.2s-1.9,1.5-3.1,2
		c-1.2,0.5-2.6,0.7-4.1,0.7c-1.5,0-2.9-0.2-4.1-0.7c-1.2-0.5-2.2-1.1-3.1-2c-0.9-0.9-1.5-1.9-2-3.2c-0.5-1.2-0.7-2.6-0.7-4.1
		S142.4,380.2,142.9,378.9z M147.7,385.3c0.1,0.7,0.4,1.4,0.8,2c0.4,0.6,0.8,1,1.4,1.4c0.6,0.3,1.3,0.5,2.2,0.5s1.6-0.2,2.2-0.5
		c0.6-0.3,1.1-0.8,1.4-1.4c0.4-0.6,0.6-1.2,0.8-2c0.1-0.7,0.2-1.5,0.2-2.2s-0.1-1.5-0.2-2.3c-0.1-0.7-0.4-1.4-0.8-2
		c-0.4-0.6-0.8-1-1.4-1.4s-1.4-0.5-2.2-0.5s-1.6,0.2-2.2,0.5c-0.6,0.4-1.1,0.8-1.4,1.4c-0.4,0.6-0.6,1.2-0.8,2
		c-0.1,0.7-0.2,1.5-0.2,2.3S147.5,384.6,147.7,385.3z"/>
	<path d="M178.7,390.2c-0.6,1-1.4,1.8-2.4,2.2s-2.1,0.7-3.4,0.7c-1.4,0-2.7-0.3-3.8-0.8c-1.1-0.6-2-1.3-2.7-2.3
		c-0.7-0.9-1.2-2-1.6-3.3c-0.4-1.2-0.5-2.5-0.5-3.8c0-1.3,0.2-2.5,0.5-3.7c0.4-1.2,0.9-2.3,1.6-3.2c0.7-0.9,1.6-1.6,2.6-2.2
		s2.3-0.8,3.7-0.8c1.1,0,2.2,0.2,3.2,0.7c1,0.5,1.8,1.2,2.4,2.1h0.1v-9.6h5.3v26.4h-5L178.7,390.2L178.7,390.2z M178.4,380.7
		c-0.1-0.7-0.4-1.4-0.8-1.9c-0.4-0.6-0.8-1-1.4-1.4s-1.3-0.5-2.1-0.5c-0.9,0-1.6,0.2-2.2,0.5s-1.1,0.8-1.4,1.4s-0.6,1.2-0.8,1.9
		c-0.2,0.7-0.2,1.5-0.2,2.3c0,0.7,0.1,1.5,0.3,2.2c0.2,0.7,0.4,1.4,0.8,2c0.4,0.6,0.9,1,1.4,1.4c0.6,0.4,1.3,0.5,2.1,0.5
		c0.9,0,1.6-0.2,2.2-0.5c0.6-0.3,1-0.8,1.4-1.4c0.3-0.6,0.6-1.2,0.7-2c0.1-0.7,0.2-1.5,0.2-2.3C178.7,382.2,178.6,381.5,178.4,380.7
		z"/>
</g>
<path d="M26.8,419v-3.5H30V414c0-1.7,0.5-3.1,1.6-4.2c1.1-1.1,2.7-1.6,4.8-1.6c0.5,0,0.9,0,1.4,0.1c0.5,0,0.9,0.1,1.4,0.1v3.9
	c-0.6-0.1-1.3-0.1-1.9-0.1c-0.7,0-1.2,0.2-1.5,0.5c-0.3,0.3-0.5,0.9-0.5,1.7v1.1h3.6v3.5h-3.6v15.6H30V419H26.8z M42,412.5v-4.3h5.3
	v4.3H42z M47.3,415.5v19.1H42v-19.1H47.3z M56,415.5v3.6h0.1c0.2-0.6,0.6-1.1,1-1.6c0.4-0.5,0.9-0.9,1.4-1.3
	c0.5-0.4,1.1-0.6,1.7-0.8c0.6-0.2,1.3-0.3,1.9-0.3c0.3,0,0.7,0.1,1.1,0.2v4.9c-0.2,0-0.5-0.1-0.9-0.1c-0.3,0-0.7-0.1-1-0.1
	c-1,0-1.8,0.2-2.4,0.5c-0.7,0.3-1.2,0.8-1.6,1.3c-0.4,0.6-0.7,1.2-0.9,1.9c-0.2,0.7-0.3,1.5-0.3,2.4v8.6H51v-19.1H56z M69.5,429.9
	c0.2,0.4,0.5,0.7,0.9,1c0.4,0.3,0.8,0.5,1.3,0.6c0.5,0.1,1,0.2,1.5,0.2c0.4,0,0.8,0,1.2-0.1c0.4-0.1,0.8-0.2,1.1-0.4
	c0.3-0.2,0.6-0.4,0.8-0.7c0.2-0.3,0.3-0.7,0.3-1.2c0-0.8-0.5-1.4-1.6-1.8c-1-0.4-2.5-0.8-4.4-1.2c-0.8-0.2-1.5-0.4-2.2-0.6
	c-0.7-0.2-1.4-0.5-1.9-0.9c-0.6-0.4-1-0.9-1.4-1.4c-0.3-0.6-0.5-1.3-0.5-2.1c0-1.2,0.2-2.2,0.7-3c0.5-0.8,1.1-1.4,1.9-1.9
	c0.8-0.5,1.7-0.8,2.7-1c1-0.2,2-0.3,3-0.3c1,0,2,0.1,3,0.3c1,0.2,1.8,0.5,2.6,1c0.8,0.5,1.4,1.1,1.9,1.9c0.5,0.8,0.8,1.8,0.9,2.9h-5
	c-0.1-1-0.5-1.7-1.1-2.1c-0.7-0.4-1.5-0.5-2.4-0.5c-0.3,0-0.6,0-1,0.1c-0.3,0-0.7,0.1-0.9,0.2c-0.3,0.1-0.5,0.3-0.7,0.5
	c-0.2,0.2-0.3,0.5-0.3,0.9c0,0.5,0.2,0.9,0.5,1.1c0.3,0.3,0.8,0.5,1.4,0.7c0.6,0.2,1.2,0.4,1.9,0.5c0.7,0.1,1.4,0.3,2.2,0.5
	c0.8,0.2,1.5,0.4,2.2,0.6c0.7,0.2,1.4,0.6,1.9,1c0.6,0.4,1,0.9,1.4,1.5c0.3,0.6,0.5,1.4,0.5,2.2c0,1.3-0.3,2.3-0.8,3.2
	c-0.5,0.9-1.2,1.5-2,2.1c-0.8,0.5-1.7,0.9-2.8,1.1c-1,0.2-2.1,0.3-3.2,0.3c-1.1,0-2.2-0.1-3.3-0.3c-1.1-0.2-2-0.6-2.8-1.1
	c-0.8-0.5-1.5-1.2-2-2.1c-0.5-0.9-0.8-1.9-0.9-3.2h5C69.1,429,69.3,429.5,69.5,429.9z M95.1,415.5v3.5h-3.8v9.5
	c0,0.9,0.1,1.5,0.4,1.8c0.3,0.3,0.9,0.4,1.8,0.4c0.3,0,0.6,0,0.9,0c0.3,0,0.5-0.1,0.8-0.1v4.1c-0.4,0.1-0.9,0.1-1.5,0.1
	c-0.5,0-1.1,0-1.6,0c-0.8,0-1.6-0.1-2.3-0.2c-0.7-0.1-1.4-0.3-1.9-0.6c-0.6-0.3-1-0.8-1.3-1.4c-0.3-0.6-0.5-1.4-0.5-2.3V419h-3.2
	v-3.5H86v-5.7h5.3v5.7H95.1z M111.6,429.9c0.2,0.4,0.5,0.7,0.9,1c0.4,0.3,0.8,0.5,1.3,0.6c0.5,0.1,1,0.2,1.5,0.2
	c0.4,0,0.8,0,1.2-0.1c0.4-0.1,0.8-0.2,1.1-0.4c0.3-0.2,0.6-0.4,0.8-0.7c0.2-0.3,0.3-0.7,0.3-1.2c0-0.8-0.5-1.4-1.6-1.8
	c-1-0.4-2.5-0.8-4.4-1.2c-0.8-0.2-1.5-0.4-2.2-0.6c-0.7-0.2-1.4-0.5-1.9-0.9c-0.6-0.4-1-0.9-1.4-1.4c-0.3-0.6-0.5-1.3-0.5-2.1
	c0-1.2,0.2-2.2,0.7-3c0.5-0.8,1.1-1.4,1.9-1.9c0.8-0.5,1.7-0.8,2.7-1c1-0.2,2-0.3,3-0.3c1,0,2,0.1,3,0.3c1,0.2,1.8,0.5,2.6,1
	c0.8,0.5,1.4,1.1,1.9,1.9c0.5,0.8,0.8,1.8,0.9,2.9h-5c-0.1-1-0.5-1.7-1.1-2.1c-0.7-0.4-1.5-0.5-2.4-0.5c-0.3,0-0.6,0-1,0.1
	c-0.3,0-0.7,0.1-0.9,0.2c-0.3,0.1-0.5,0.3-0.7,0.5c-0.2,0.2-0.3,0.5-0.3,0.9c0,0.5,0.2,0.9,0.5,1.1c0.3,0.3,0.8,0.5,1.4,0.7
	c0.6,0.2,1.2,0.4,1.9,0.5c0.7,0.1,1.4,0.3,2.2,0.5c0.8,0.2,1.5,0.4,2.2,0.6c0.7,0.2,1.4,0.6,1.9,1c0.6,0.4,1,0.9,1.4,1.5
	c0.3,0.6,0.5,1.4,0.5,2.2c0,1.3-0.3,2.3-0.8,3.2c-0.5,0.9-1.2,1.5-2,2.1c-0.8,0.5-1.7,0.9-2.8,1.1c-1,0.2-2.1,0.3-3.2,0.3
	c-1.1,0-2.2-0.1-3.3-0.3c-1.1-0.2-2-0.6-2.8-1.1c-0.8-0.5-1.5-1.2-2-2.1c-0.5-0.9-0.8-1.9-0.9-3.2h5
	C111.2,429,111.3,429.5,111.6,429.9z M137.1,415.5v3.5h-3.8v9.5c0,0.9,0.1,1.5,0.4,1.8c0.3,0.3,0.9,0.4,1.8,0.4c0.3,0,0.6,0,0.9,0
	c0.3,0,0.5-0.1,0.8-0.1v4.1c-0.4,0.1-0.9,0.1-1.5,0.1c-0.5,0-1.1,0-1.6,0c-0.8,0-1.6-0.1-2.3-0.2c-0.7-0.1-1.4-0.3-1.9-0.6
	c-0.6-0.3-1-0.8-1.3-1.4c-0.3-0.6-0.5-1.4-0.5-2.3V419h-3.2v-3.5h3.2v-5.7h5.3v5.7H137.1z M144.9,430c0.8,0.8,1.9,1.1,3.4,1.1
	c1.1,0,2-0.3,2.7-0.8c0.8-0.5,1.2-1.1,1.4-1.7h4.6c-0.7,2.3-1.9,3.9-3.4,4.9c-1.5,1-3.4,1.5-5.6,1.5c-1.5,0-2.9-0.2-4.1-0.7
	c-1.2-0.5-2.2-1.2-3.1-2.1c-0.8-0.9-1.5-1.9-1.9-3.2c-0.5-1.2-0.7-2.6-0.7-4.1c0-1.4,0.2-2.8,0.7-4c0.5-1.2,1.1-2.3,2-3.2
	c0.9-0.9,1.9-1.6,3.1-2.1c1.2-0.5,2.5-0.8,4-0.8c1.6,0,3,0.3,4.3,0.9c1.2,0.6,2.2,1.5,3,2.5c0.8,1.1,1.3,2.3,1.7,3.6
	c0.3,1.4,0.5,2.8,0.4,4.3h-13.8C143.7,428,144.1,429.3,144.9,430z M150.9,420c-0.6-0.7-1.6-1-2.9-1c-0.8,0-1.5,0.1-2.1,0.4
	c-0.6,0.3-1,0.6-1.3,1.1c-0.3,0.4-0.6,0.9-0.7,1.3c-0.1,0.5-0.2,0.9-0.2,1.3h8.5C151.9,421.7,151.5,420.7,150.9,420z M165.2,415.5
	v2.4h0.1c0.6-1,1.5-1.8,2.4-2.3c1-0.5,2.1-0.7,3.3-0.7c1.5,0,2.8,0.3,3.9,0.9c1.1,0.6,2,1.3,2.7,2.3c0.7,0.9,1.2,2,1.6,3.3
	c0.3,1.2,0.5,2.5,0.5,3.9c0,1.3-0.2,2.5-0.5,3.7c-0.3,1.2-0.9,2.2-1.6,3.1c-0.7,0.9-1.6,1.6-2.6,2.2c-1,0.5-2.3,0.8-3.7,0.8
	c-1.2,0-2.3-0.2-3.3-0.7c-1-0.5-1.8-1.2-2.5-2.1h-0.1v9.1h-5.3v-25.8H165.2z M172,430.7c0.6-0.3,1-0.8,1.4-1.4
	c0.4-0.6,0.6-1.2,0.8-1.9c0.1-0.7,0.2-1.5,0.2-2.3c0-0.8-0.1-1.5-0.2-2.3c-0.2-0.7-0.4-1.4-0.8-2c-0.4-0.6-0.8-1-1.4-1.4
	c-0.6-0.4-1.3-0.5-2.1-0.5c-0.9,0-1.6,0.2-2.2,0.5c-0.6,0.4-1,0.8-1.4,1.4c-0.4,0.6-0.6,1.2-0.8,2s-0.2,1.5-0.2,2.3
	c0,0.8,0.1,1.5,0.2,2.3c0.2,0.7,0.4,1.4,0.8,1.9c0.4,0.6,0.8,1,1.4,1.4c0.6,0.3,1.3,0.5,2.1,0.5C170.7,431.2,171.4,431,172,430.7z
	 M188.4,428.9v5.7h-5.8v-5.7H188.4z"/>
</svg>
