<?xml version="1.0" encoding="utf-8"?>
<!-- Generator: Adobe Illustrator 25.4.1, SVG Export Plug-In . SVG Version: 6.00 Build 0)  -->
<svg version="1.1" id="Layer_1" xmlns="http://www.w3.org/2000/svg" xmlns:xlink="http://www.w3.org/1999/xlink" x="0px" y="0px"
	 viewBox="0 0 300 600" style="enable-background:new 0 0 300 600;" xml:space="preserve">
<style type="text/css">
	.st0{clip-path:url(#SVGID_00000075151831659475797800000002600536270602151848_);fill:#349946;}
	.st1{fill:#FFFFFF;}
</style>
<g>
	<defs>
		<rect id="SVGID_1_" x="43.1" y="361.4" width="214.2" height="45.1"/>
	</defs>
	<clipPath id="SVGID_00000042004519227078977660000013625948628537366972_">
		<use xlink:href="#SVGID_1_"  style="overflow:visible;"/>
	</clipPath>
	<path style="clip-path:url(#SVGID_00000042004519227078977660000013625948628537366972_);fill:#349946;" d="M257.3,383.9
		c0,12.4-11.7,22.6-25.9,22.6H69.1c-14.3,0-25.9-10.2-25.9-22.6s11.7-22.6,25.9-22.6h162.3C245.6,361.4,257.3,371.5,257.3,383.9"/>
</g>
<g>
	<path class="st1" d="M85.2,377.2c0.6,0,1.2,0.1,1.7,0.3c0.5,0.2,1,0.5,1.3,0.9c0.4,0.4,0.7,0.8,0.8,1.3c0.2,0.5,0.3,1,0.3,1.5
		c0,0.8-0.2,1.6-0.5,2.2c-0.4,0.6-0.9,1.1-1.7,1.4v0c0.4,0.1,0.7,0.3,1,0.5c0.3,0.2,0.5,0.5,0.6,0.8c0.2,0.3,0.3,0.6,0.4,1
		c0.1,0.4,0.1,0.7,0.2,1.1c0,0.2,0,0.5,0,0.8s0,0.6,0.1,0.9c0,0.3,0.1,0.6,0.2,0.9s0.2,0.5,0.3,0.7h-3.2c-0.2-0.5-0.3-1-0.3-1.6
		c0-0.6-0.1-1.2-0.2-1.8c-0.1-0.8-0.3-1.3-0.7-1.7c-0.4-0.3-0.9-0.5-1.7-0.5h-3.2v5.6h-3.2v-14.4H85.2z M84.1,383.7
		c0.7,0,1.3-0.2,1.6-0.5c0.4-0.3,0.5-0.8,0.5-1.6c0-0.7-0.2-1.2-0.5-1.5c-0.4-0.3-0.9-0.5-1.6-0.5h-3.5v4.1H84.1z"/>
	<path class="st1" d="M102.8,377.2v2.7h-7.6v3.1h7v2.5h-7v3.5h7.8v2.7H92v-14.4H102.8z"/>
	<path class="st1" d="M112.3,377.2l5.4,14.4h-3.3l-1.1-3.2h-5.4l-1.1,3.2h-3.2l5.4-14.4H112.3z M112.5,386l-1.8-5.3h0l-1.9,5.3
		H112.5z"/>
	<path class="st1" d="M125.1,377.2c0.9,0,1.8,0.1,2.6,0.4c0.8,0.3,1.5,0.7,2.1,1.3c0.6,0.6,1,1.3,1.4,2.2c0.3,0.9,0.5,1.9,0.5,3.1
		c0,1-0.1,2-0.4,2.9c-0.3,0.9-0.7,1.7-1.2,2.3s-1.2,1.2-2,1.5c-0.8,0.4-1.8,0.6-2.9,0.6h-6.2v-14.4H125.1z M124.9,389
		c0.5,0,0.9-0.1,1.3-0.2c0.4-0.1,0.8-0.4,1.1-0.7s0.6-0.8,0.8-1.3c0.2-0.6,0.3-1.2,0.3-2c0-0.7-0.1-1.4-0.2-2
		c-0.1-0.6-0.4-1.1-0.7-1.5s-0.8-0.7-1.3-1c-0.5-0.2-1.2-0.3-2-0.3h-2.3v9.1H124.9z"/>
	<path class="st1" d="M146.7,377.2l5.4,14.4h-3.3l-1.1-3.2h-5.4l-1.1,3.2H138l5.4-14.4H146.7z M146.8,386l-1.8-5.3h0l-1.9,5.3H146.8
		z"/>
	<path class="st1" d="M161.1,377.2c0.6,0,1.2,0.1,1.7,0.3c0.5,0.2,1,0.5,1.3,0.9c0.4,0.4,0.7,0.8,0.8,1.3c0.2,0.5,0.3,1,0.3,1.5
		c0,0.8-0.2,1.6-0.5,2.2c-0.4,0.6-0.9,1.1-1.7,1.4v0c0.4,0.1,0.7,0.3,1,0.5c0.3,0.2,0.5,0.5,0.6,0.8c0.2,0.3,0.3,0.6,0.4,1
		s0.1,0.7,0.2,1.1c0,0.2,0,0.5,0,0.8s0,0.6,0.1,0.9c0,0.3,0.1,0.6,0.2,0.9c0.1,0.3,0.2,0.5,0.3,0.7h-3.2c-0.2-0.5-0.3-1-0.3-1.6
		c0-0.6-0.1-1.2-0.2-1.8c-0.1-0.8-0.3-1.3-0.7-1.7s-0.9-0.5-1.7-0.5h-3.2v5.6h-3.2v-14.4H161.1z M159.9,383.7c0.7,0,1.3-0.2,1.6-0.5
		c0.4-0.3,0.5-0.8,0.5-1.6c0-0.7-0.2-1.2-0.5-1.5c-0.4-0.3-0.9-0.5-1.6-0.5h-3.5v4.1H159.9z"/>
</g>
<g>
	<path class="st1" d="M166.4,379.9v-2.7h11.8v2.7h-4.3v11.7h-3.2v-11.7H166.4z"/>
	<path class="st1" d="M183,377.2v14.4h-3.2v-14.4H183z"/>
	<path class="st1" d="M195,381.1c-0.2-0.3-0.4-0.6-0.7-0.8c-0.3-0.2-0.6-0.4-1-0.5c-0.4-0.1-0.7-0.2-1.1-0.2c-0.7,0-1.3,0.1-1.8,0.4
		c-0.5,0.3-0.9,0.6-1.2,1.1c-0.3,0.5-0.5,1-0.7,1.6c-0.1,0.6-0.2,1.2-0.2,1.8c0,0.6,0.1,1.2,0.2,1.8c0.1,0.6,0.4,1.1,0.7,1.5
		c0.3,0.5,0.7,0.8,1.2,1.1c0.5,0.3,1.1,0.4,1.8,0.4c1,0,1.7-0.3,2.3-0.9c0.5-0.6,0.9-1.4,1-2.3h3.1c-0.1,0.9-0.3,1.7-0.6,2.4
		c-0.3,0.7-0.8,1.3-1.3,1.9c-0.6,0.5-1.2,0.9-1.9,1.2c-0.7,0.3-1.6,0.4-2.4,0.4c-1.1,0-2.1-0.2-3-0.6c-0.9-0.4-1.6-0.9-2.2-1.6
		c-0.6-0.7-1.1-1.5-1.4-2.4c-0.3-0.9-0.5-1.9-0.5-2.9c0-1.1,0.2-2.1,0.5-3c0.3-0.9,0.8-1.7,1.4-2.4c0.6-0.7,1.3-1.2,2.2-1.6
		s1.9-0.6,3-0.6c0.8,0,1.5,0.1,2.2,0.3s1.3,0.6,1.9,1c0.6,0.4,1,1,1.4,1.6c0.4,0.6,0.6,1.4,0.7,2.2h-3.1
		C195.3,381.7,195.2,381.4,195,381.1z"/>
	<path class="st1" d="M203.9,377.2V389h7v2.7h-10.2v-14.4H203.9z"/>
	<path class="st1" d="M223.4,377.2v2.7h-7.6v3.1h7v2.5h-7v3.5h7.8v2.7h-10.9v-14.4H223.4z"/>
</g>
</svg>
