<?xml version="1.0" encoding="utf-8"?>
<!-- Generator: Adobe Illustrator 25.4.1, SVG Export Plug-In . SVG Version: 6.00 Build 0)  -->
<svg version="1.1" id="Layer_1" xmlns="http://www.w3.org/2000/svg" xmlns:xlink="http://www.w3.org/1999/xlink" x="0px" y="0px"
	 viewBox="0 0 300 600" style="enable-background:new 0 0 300 600;" xml:space="preserve">
<style type="text/css">
	.st0{fill:#349946;}
	.st1{fill:#231F20;}
	.st2{fill:none;}
</style>
<path class="st0" d="M35.9,526.6h-2.8l-0.9-2.7h-5.6l-0.9,2.7h-2.9l5-13.2h2.1c0.7,0,1.2,0.2,1.3,0.7c0.2,0.5,2.5,6.4,2.5,6.4h-2.7
	l-1.6-4.5l-2,5.6H33c0.8,0,1.2,0.2,1.4,0.9L35.9,526.6z"/>
<path class="st0" d="M60.9,526.6h-2.8l-0.9-2.7h-5.7l-0.9,2.7h-2.9l5-13.2h2.1c0.7,0,1.2,0.2,1.3,0.7c0.2,0.5,2.5,6.4,2.5,6.4h-2.7
	l-1.6-4.5l-2,5.6H58c0.8,0,1.2,0.2,1.4,0.9L60.9,526.6z"/>
<path class="st0" d="M36.8,513.4H42c4,0,6,2.1,6,6.6c0,2.5-0.8,4.3-2.1,5.4c-1.3,1-2.7,1.2-4.6,1.2h-4.4V513.4z M41.7,524.2
	c2.5,0,3.6-1.2,3.6-4.2c0-2.9-1-4.3-3.3-4.3h-2.5v8.5H41.7z"/>
<g>
	<path class="st1" d="M83.4,526.5h-2.1l-0.9-9.4l-3.2,9.4h-1.8l-3.3-9.4l-0.8,9.4h-1.9l1.2-12.5H73l3.4,9.6l3.3-9.6h2.4L83.4,526.5z
		"/>
	<path class="st1" d="M93.6,521.8c0,0.1,0,0.3,0,0.4c0,0.2,0,0.3,0,0.3h-6.2c0,0.7,0.2,1.2,0.6,1.7c0.5,0.6,1.2,0.8,2,0.8
		c0.8,0,1.6-0.2,2.5-0.7l0.7,1.3c-0.9,0.7-2.1,1-3.4,1c-1.4,0-2.5-0.5-3.3-1.4c-0.8-0.9-1.2-2-1.2-3.4c0-1.4,0.4-2.6,1.2-3.5
		c0.8-0.9,1.8-1.4,3.1-1.4c1.2,0,2.2,0.4,2.9,1.3C93.2,519.1,93.6,520.3,93.6,521.8z M91.6,521c0-0.6-0.1-1-0.4-1.5
		c-0.3-0.6-0.9-0.9-1.6-0.9c-0.6,0-1.2,0.2-1.6,0.6c-0.4,0.4-0.7,1-0.8,1.7H91.6z"/>
	<path class="st1" d="M108.6,526.5h-2.1v-5.2c0-1-0.1-1.7-0.4-2s-0.6-0.5-1.1-0.5c-0.6,0-1.3,0.2-2,0.7c0.1,0.2,0.1,0.9,0.1,2.1v4.9
		h-2v-5c0-1.2-0.1-1.9-0.4-2.2c-0.2-0.2-0.6-0.4-1-0.4c-0.7,0-1.3,0.2-2,0.6v7h-2.1v-9.1h1.8v0.7c0.8-0.6,1.7-0.9,2.7-0.9
		c1,0,1.7,0.3,2.2,1c1-0.7,2.1-1,3-1c1,0,1.7,0.3,2.3,0.8c0.4,0.4,0.7,1,0.9,1.7c0.1,0.4,0.1,1.2,0.1,2.3V526.5z"/>
	<path class="st1" d="M119.2,521.7c0,1.5-0.4,2.7-1.3,3.6s-2,1.4-3.5,1.4c-1,0-2.2-0.2-3.6-0.7v-13.1h2.1v4.8
		c0.7-0.5,1.5-0.7,2.3-0.7c1.2,0,2.1,0.4,2.9,1.3C118.8,519.1,119.2,520.3,119.2,521.7z M117.1,521.7c0-0.9-0.2-1.7-0.7-2.2
		c-0.4-0.5-1-0.8-1.6-0.8c-0.7,0-1.3,0.2-1.9,0.7v5.4c0.5,0.2,1,0.2,1.5,0.2c0.8,0,1.5-0.3,2-0.9
		C116.9,523.5,117.1,522.7,117.1,521.7z"/>
	<path class="st1" d="M129,521.8c0,0.1,0,0.3,0,0.4c0,0.2,0,0.3,0,0.3h-6.2c0,0.7,0.2,1.2,0.6,1.7c0.5,0.6,1.1,0.8,2,0.8
		c0.8,0,1.6-0.2,2.5-0.7l0.7,1.3c-0.9,0.7-2.1,1-3.4,1c-1.4,0-2.5-0.5-3.3-1.4c-0.8-0.9-1.2-2-1.2-3.4c0-1.4,0.4-2.6,1.2-3.5
		s1.8-1.4,3.1-1.4c1.2,0,2.2,0.4,2.9,1.3C128.7,519.1,129,520.3,129,521.8z M127.1,521c0-0.6-0.1-1-0.4-1.5
		c-0.4-0.6-0.9-0.9-1.6-0.9c-0.6,0-1.2,0.2-1.6,0.6c-0.4,0.4-0.7,1-0.8,1.7H127.1z"/>
	<path class="st1" d="M136.8,517.3l-0.5,1.6c-0.2,0-0.4-0.1-0.6-0.1c-1.1,0-2,0.5-2.6,1.4v6.3H131v-9.1h1.8v1.2
		c0.1-0.2,0.4-0.5,0.8-0.8c0.7-0.4,1.4-0.7,2.2-0.7C136.1,517.1,136.5,517.1,136.8,517.3z"/>
</g>
<g>
	<path class="st1" d="M144.3,523.8c0,0.9-0.3,1.6-1,2.1c-0.7,0.5-1.5,0.8-2.5,0.8c-0.8,0-1.6-0.2-2.4-0.5c-0.5-0.2-0.8-0.4-1-0.5
		l0.7-1.3c0.9,0.5,1.7,0.7,2.4,0.7c0.5,0,0.9-0.1,1.2-0.3c0.3-0.2,0.4-0.5,0.4-0.8s-0.2-0.6-0.5-0.8c-0.2-0.1-0.6-0.3-1.4-0.7
		c-0.7-0.3-1.3-0.6-1.6-0.9c-0.5-0.5-0.8-1.1-0.8-1.8c0-0.8,0.3-1.5,0.9-2c0.6-0.5,1.4-0.8,2.5-0.8c1.3,0,2.3,0.3,3,0.8l-0.7,1.3
		c-0.7-0.4-1.4-0.6-2.1-0.6c-1,0-1.5,0.3-1.5,1c0,0.3,0.2,0.6,0.5,0.8c0.2,0.1,0.6,0.3,1.2,0.6c0.9,0.4,1.5,0.7,1.9,1
		C144,522.4,144.3,523,144.3,523.8z"/>
	<path class="st1" d="M153.3,526.5h-2.2V514h2.2V526.5z"/>
	<path class="st1" d="M163.7,526.5h-2.1v-5c0-1.2-0.1-2-0.4-2.2c-0.3-0.3-0.7-0.4-1.2-0.4c-0.6,0-1.3,0.2-2,0.7v7h-2.1v-9.1h1.8v0.7
		c0.9-0.6,1.8-0.9,2.7-0.9c1,0,1.7,0.3,2.3,0.8c0.4,0.4,0.7,1,0.8,1.6c0.1,0.4,0.1,1,0.1,1.9V526.5z"/>
	<path class="st1" d="M172.1,523.8c0,0.9-0.3,1.6-1,2.1c-0.7,0.5-1.5,0.8-2.5,0.8c-0.8,0-1.6-0.2-2.4-0.5c-0.5-0.2-0.8-0.4-1-0.5
		l0.7-1.3c0.9,0.5,1.7,0.7,2.4,0.7c0.5,0,0.9-0.1,1.2-0.3c0.3-0.2,0.4-0.5,0.4-0.8s-0.2-0.6-0.5-0.8c-0.2-0.1-0.6-0.3-1.4-0.7
		c-0.7-0.3-1.3-0.6-1.6-0.9c-0.5-0.5-0.8-1.1-0.8-1.8c0-0.8,0.3-1.5,0.9-2c0.6-0.5,1.4-0.8,2.5-0.8c1.3,0,2.3,0.3,3,0.8l-0.7,1.3
		c-0.7-0.4-1.4-0.6-2.1-0.6c-1,0-1.5,0.3-1.5,1c0,0.3,0.2,0.6,0.5,0.8c0.2,0.1,0.6,0.3,1.2,0.6c0.9,0.4,1.5,0.7,1.9,1
		C171.8,522.4,172.1,523,172.1,523.8z"/>
	<path class="st1" d="M181.8,526.5H180v-0.7c-0.8,0.6-1.7,0.9-2.7,0.9c-1,0-1.7-0.3-2.3-0.8c-0.4-0.4-0.7-1-0.8-1.6
		c-0.1-0.4-0.1-1-0.1-1.9v-5.1h2.1v5c0,0.6,0,1,0,1.2c0.1,0.5,0.2,0.9,0.5,1.1c0.3,0.2,0.6,0.3,1.1,0.3c0.5,0,1.2-0.2,2-0.7v-7h2.1
		V526.5z"/>
	<path class="st1" d="M190,517.3l-0.5,1.6c-0.2,0-0.4-0.1-0.6-0.1c-1.1,0-2,0.5-2.6,1.4v6.3h-2.1v-9.1h1.8v1.2
		c0.1-0.2,0.4-0.5,0.8-0.8c0.7-0.4,1.4-0.7,2.2-0.7C189.4,517.1,189.7,517.1,190,517.3z"/>
</g>
<g>
	<path class="st1" d="M198.1,526.5h-1.8v-0.7c-0.9,0.6-1.8,0.9-2.7,0.9c-0.9,0-1.6-0.3-2.1-0.8c-0.5-0.5-0.8-1.2-0.8-2.1
		c0-2.1,1.7-3.2,5.2-3.2h0.3v-0.4c0-0.6-0.1-0.9-0.3-1.1c-0.3-0.3-0.8-0.4-1.5-0.4c-0.8,0-1.6,0.2-2.5,0.7l-0.7-1.3
		c0.2-0.2,0.5-0.4,1-0.5c0.7-0.3,1.5-0.5,2.4-0.5c1.2,0,2.2,0.3,2.8,1c0.3,0.3,0.5,0.7,0.6,1.2c0.1,0.3,0.1,0.9,0.1,1.6V526.5z
		 M196.2,524.4V522h-0.4c-1.4,0-2.4,0.2-2.9,0.7c-0.2,0.2-0.4,0.6-0.4,0.9c0,0.5,0.2,0.8,0.5,1c0.3,0.2,0.7,0.4,1.2,0.4
		C194.7,525.1,195.4,524.9,196.2,524.4z"/>
	<path class="st1" d="M208.1,526.5h-2.1v-5c0-1.2-0.1-2-0.4-2.2c-0.3-0.3-0.7-0.4-1.2-0.4c-0.6,0-1.3,0.2-2,0.7v7h-2.1v-9.1h1.8v0.7
		c0.9-0.6,1.8-0.9,2.7-0.9c1,0,1.7,0.3,2.3,0.8c0.4,0.4,0.7,1,0.8,1.6c0.1,0.4,0.1,1,0.1,1.9V526.5z"/>
	<path class="st1" d="M217.9,525.6c-0.1,0.2-0.5,0.3-0.9,0.6c-0.8,0.3-1.6,0.5-2.4,0.5c-1.4,0-2.5-0.4-3.3-1.3
		c-0.8-0.9-1.3-2-1.3-3.4c0-1.4,0.5-2.6,1.3-3.6c0.9-0.9,2-1.4,3.4-1.4c0.8,0,1.5,0.2,2.2,0.5c0.5,0.2,0.7,0.4,0.9,0.6l-0.8,1.3
		c-0.6-0.4-1.3-0.6-2.1-0.6c-0.9,0-1.5,0.3-2.1,1c-0.5,0.6-0.7,1.3-0.7,2.1c0,0.9,0.2,1.7,0.7,2.2s1.1,0.9,2,0.9
		c0.7,0,1.5-0.2,2.3-0.7L217.9,525.6z"/>
</g>
<g>
	<path class="st1" d="M227.1,521.8c0,0.1,0,0.3,0,0.4c0,0.2,0,0.3,0,0.3h-6.2c0,0.7,0.2,1.2,0.6,1.7c0.5,0.6,1.1,0.8,2,0.8
		c0.8,0,1.6-0.2,2.5-0.7l0.7,1.3c-0.9,0.7-2.1,1-3.4,1c-1.4,0-2.5-0.5-3.3-1.4c-0.8-0.9-1.2-2-1.2-3.4c0-1.4,0.4-2.6,1.2-3.5
		s1.8-1.4,3.1-1.4c1.2,0,2.2,0.4,2.9,1.3C226.7,519.1,227.1,520.3,227.1,521.8z M225.1,521c0-0.6-0.1-1-0.4-1.5
		c-0.3-0.6-0.9-0.9-1.6-0.9c-0.6,0-1.2,0.2-1.6,0.6c-0.4,0.4-0.7,1-0.8,1.7H225.1z"/>
	<path class="st1" d="M242.1,517.7c0,1.2-0.4,2.1-1.1,2.8c-0.5,0.5-1.2,0.9-1.9,1c-0.5,0.1-1.2,0.1-2.3,0.1h-0.9v4.8h-2.1V514h3.3
		c1,0,1.8,0.1,2.3,0.2c0.7,0.2,1.3,0.5,1.8,0.9C241.8,515.7,242.1,516.6,242.1,517.7z M239.9,517.7c0-0.7-0.2-1.2-0.6-1.6
		c-0.3-0.3-1.1-0.5-2.3-0.5h-1.2v4.3h0.9c1.4,0,2.2-0.2,2.6-0.6C239.7,519,239.9,518.4,239.9,517.7z"/>
	<path class="st1" d="M246.4,526.5h-2.1v-13.6h2.1V526.5z"/>
	<path class="st1" d="M255.8,526.5H254v-0.7c-0.9,0.6-1.8,0.9-2.7,0.9c-0.9,0-1.6-0.3-2.1-0.8c-0.5-0.5-0.8-1.2-0.8-2.1
		c0-2.1,1.7-3.2,5.2-3.2h0.3v-0.4c0-0.6-0.1-0.9-0.3-1.1c-0.3-0.3-0.8-0.4-1.5-0.4c-0.8,0-1.6,0.2-2.5,0.7l-0.7-1.3
		c0.2-0.2,0.5-0.4,1-0.5c0.7-0.3,1.5-0.5,2.4-0.5c1.2,0,2.2,0.3,2.8,1c0.3,0.3,0.5,0.7,0.6,1.2c0.1,0.3,0.1,0.9,0.1,1.6V526.5z
		 M253.8,524.4V522h-0.4c-1.4,0-2.4,0.2-2.9,0.7c-0.2,0.2-0.4,0.6-0.4,0.9c0,0.5,0.2,0.8,0.5,1c0.3,0.2,0.7,0.4,1.2,0.4
		C252.4,525.1,253.1,524.9,253.8,524.4z"/>
	<path class="st1" d="M265.8,526.5h-2.1v-5c0-1.2-0.1-2-0.4-2.2c-0.3-0.3-0.7-0.4-1.2-0.4c-0.6,0-1.3,0.2-2,0.7v7H258v-9.1h1.8v0.7
		c0.9-0.6,1.8-0.9,2.7-0.9c1,0,1.7,0.3,2.3,0.8c0.4,0.4,0.7,1,0.8,1.6c0.1,0.4,0.1,1,0.1,1.9V526.5z"/>
	<path class="st1" d="M274.2,523.8c0,0.9-0.3,1.6-1,2.1c-0.7,0.5-1.5,0.8-2.5,0.8c-0.8,0-1.6-0.2-2.4-0.5c-0.5-0.2-0.8-0.4-1-0.5
		l0.7-1.3c0.9,0.5,1.7,0.7,2.4,0.7c0.5,0,0.9-0.1,1.2-0.3c0.3-0.2,0.4-0.5,0.4-0.8s-0.2-0.6-0.5-0.8c-0.2-0.1-0.6-0.3-1.4-0.7
		c-0.7-0.3-1.3-0.6-1.6-0.9c-0.5-0.5-0.8-1.1-0.8-1.8c0-0.8,0.3-1.5,0.9-2c0.6-0.5,1.4-0.8,2.5-0.8c1.3,0,2.3,0.3,3,0.8l-0.7,1.3
		c-0.7-0.4-1.4-0.6-2.1-0.6c-1,0-1.5,0.3-1.5,1c0,0.3,0.2,0.6,0.5,0.8c0.2,0.1,0.6,0.3,1.2,0.6c0.9,0.4,1.5,0.7,1.9,1
		C273.9,522.4,274.2,523,274.2,523.8z"/>
</g>
<path class="st0" d="M62.8,526.6c-0.9,0-1.6-0.7-1.6-1.6c0-0.9,0.7-1.6,1.6-1.6c0.9,0,1.6,0.7,1.6,1.6
	C64.4,525.9,63.7,526.6,62.8,526.6 M62.8,523.9c-0.7,0-1.2,0.5-1.2,1.2c0,0.7,0.5,1.2,1.2,1.2c0.7,0,1.2-0.5,1.2-1.2
	C64,524.4,63.5,523.9,62.8,523.9 M63.2,525.9l-0.2-0.4c-0.1-0.2-0.1-0.2-0.3-0.2h-0.1v0.6h-0.3v-1.6h0.4c0.2,0,0.4,0,0.5,0.1
	c0.1,0.1,0.2,0.2,0.2,0.4c0,0.2-0.1,0.3-0.3,0.4c0.1,0,0.1,0.1,0.2,0.2l0.3,0.6H63.2z M62.9,524.5c-0.1,0-0.2,0-0.2,0h-0.1v0.4
	c0.1,0,0.2,0,0.3,0c0.1,0,0.2-0.1,0.2-0.2C63.1,524.6,63,524.6,62.9,524.5"/>
<rect x="5.1" y="510.8" class="st2" width="281.6" height="21.5"/>
</svg>
