<?xml version="1.0" encoding="utf-8"?>
<!-- Generator: Adobe Illustrator 25.4.1, SVG Export Plug-In . SVG Version: 6.00 Build 0)  -->
<svg version="1.1" id="Layer_1" xmlns="http://www.w3.org/2000/svg" xmlns:xlink="http://www.w3.org/1999/xlink" x="0px" y="0px"
	 viewBox="0 0 300 600" style="enable-background:new 0 0 300 600;" xml:space="preserve">
<style type="text/css">
	.st0{clip-path:url(#SVGID_00000054985873450831395270000017667840302681883028_);fill:#231F20;}
	.st1{clip-path:url(#SVGID_00000054985873450831395270000017667840302681883028_);fill:#22B0E6;}
</style>
<g>
	<defs>
		<rect id="SVGID_1_" x="106.2" y="464.3" width="88" height="29.9"/>
	</defs>
	<clipPath id="SVGID_00000072251123211460619830000013428117410062402966_">
		<use xlink:href="#SVGID_1_"  style="overflow:visible;"/>
	</clipPath>
	<path style="clip-path:url(#SVGID_00000072251123211460619830000013428117410062402966_);fill:#231F20;" d="M106.8,480.4h4.7
		c3.7,0,4.5,2.4,4.5,4.1c0,1.6-0.7,4-4.5,4h-2.4v5h-2.3V480.4z M109.1,486.6h2.3c1,0,2.3-0.5,2.3-2.2c0-1.7-1-2.2-2.3-2.2h-2.3
		V486.6z"/>
	<path style="clip-path:url(#SVGID_00000072251123211460619830000013428117410062402966_);fill:#231F20;" d="M117.4,484h2v1.8h0
		c0.2-1,1.5-2.1,2.8-2.1c0.5,0,0.6,0,0.8,0.1v2c-0.3,0-0.6-0.1-0.9-0.1c-1.4,0-2.6,1.2-2.6,3.3v4.5h-2.1V484z"/>
	<path style="clip-path:url(#SVGID_00000072251123211460619830000013428117410062402966_);fill:#231F20;" d="M123.2,488.8
		c0-2.9,1.7-5,4.8-5c3.1,0,4.8,2.1,4.8,5c0,2.9-1.7,5-4.8,5C125,493.8,123.2,491.7,123.2,488.8 M130.7,488.8c0-1.6-0.8-3.3-2.7-3.3
		c-1.9,0-2.7,1.7-2.7,3.3c0,1.7,0.8,3.4,2.7,3.4C129.9,492.1,130.7,490.4,130.7,488.8"/>
	<path style="clip-path:url(#SVGID_00000072251123211460619830000013428117410062402966_);fill:#231F20;" d="M133.1,484h1.7v-2.8h2
		v2.8h1.9v1.6h-1.9v5.1c0,0.9,0.1,1.3,1,1.3c0.3,0,0.6,0,0.9-0.1v1.6c-0.5,0-0.9,0.1-1.4,0.1c-2.2,0-2.6-0.8-2.6-2.4v-5.6h-1.6V484z
		"/>
	<path style="clip-path:url(#SVGID_00000072251123211460619830000013428117410062402966_);fill:#231F20;" d="M141.7,489.3
		c0,1.5,0.8,2.8,2.6,2.8c1.2,0,1.9-0.5,2.3-1.6h2c-0.5,2.1-2.2,3.2-4.3,3.2c-3,0-4.6-2.1-4.6-5c0-2.7,1.8-5,4.6-5
		c3,0,4.8,2.7,4.5,5.5H141.7z M146.6,487.9c-0.1-1.3-1-2.5-2.4-2.5c-1.5,0-2.4,1.1-2.5,2.5H146.6z"/>
	<path style="clip-path:url(#SVGID_00000072251123211460619830000013428117410062402966_);fill:#231F20;" d="M156.6,487.2
		c-0.2-1.2-1-1.8-2.2-1.8c-1.1,0-2.6,0.6-2.6,3.5c0,1.6,0.7,3.3,2.5,3.3c1.2,0,2.1-0.8,2.3-2.2h2.1c-0.4,2.5-1.9,3.8-4.4,3.8
		c-3,0-4.6-2.1-4.6-4.9c0-2.9,1.6-5.1,4.7-5.1c2.2,0,4.1,1.1,4.3,3.4H156.6z"/>
	<path style="clip-path:url(#SVGID_00000072251123211460619830000013428117410062402966_);fill:#231F20;" d="M159.2,484h1.6v-2.8
		h2.1v2.8h1.9v1.6h-1.9v5.1c0,0.9,0.1,1.3,1,1.3c0.3,0,0.6,0,0.9-0.1v1.6c-0.5,0-0.9,0.1-1.4,0.1c-2.2,0-2.6-0.8-2.6-2.4v-5.6h-1.6
		V484z"/>
	<path style="clip-path:url(#SVGID_00000072251123211460619830000013428117410062402966_);fill:#231F20;" d="M167.2,480.4h2.1v2
		h-2.1V480.4z M167.2,484h2.1v9.5h-2.1V484z"/>
	<polygon style="clip-path:url(#SVGID_00000072251123211460619830000013428117410062402966_);fill:#231F20;" points="170.8,484 
		173.1,484 176,491.3 176.1,491.3 178.9,484 181.1,484 177.1,493.5 174.8,493.5 	"/>
	<path style="clip-path:url(#SVGID_00000072251123211460619830000013428117410062402966_);fill:#231F20;" d="M183.7,489.3
		c0,1.5,0.8,2.8,2.6,2.8c1.2,0,1.9-0.5,2.3-1.6h2c-0.5,2.1-2.2,3.2-4.3,3.2c-3,0-4.6-2.1-4.6-5c0-2.7,1.8-5,4.6-5
		c3,0,4.8,2.7,4.5,5.5H183.7z M188.6,487.9c-0.1-1.3-1-2.5-2.4-2.5c-1.5,0-2.4,1.1-2.5,2.5H188.6z"/>
	<path style="clip-path:url(#SVGID_00000072251123211460619830000013428117410062402966_);fill:#22B0E6;" d="M163.2,478.2
		c-1.4-5.2-5.5-9.3-10.7-10.6c-0.5-1.6-2-2.8-3.7-2.8c-1.8,0-3.3,1.2-3.7,2.8c-5.2,1.3-9.3,5.4-10.7,10.6l-0.2,0.6h3.2l0.1-0.3
		c1.2-3.8,4.2-6.7,8-7.8c0.7,1.2,1.9,1.9,3.4,1.9c1.4,0,2.7-0.8,3.4-1.9c3.8,1.1,6.8,4,8,7.8l0.1,0.3h3.2L163.2,478.2z"/>
	<path style="clip-path:url(#SVGID_00000072251123211460619830000013428117410062402966_);fill:#231F20;" d="M192.9,491.9
		c0.5,0,0.9,0.4,0.9,0.9c0,0.5-0.4,0.9-0.9,0.9c-0.5,0-0.9-0.4-0.9-0.9C191.9,492.3,192.3,491.9,192.9,491.9 M193.6,492.8
		c0-0.4-0.3-0.8-0.8-0.8c-0.4,0-0.8,0.3-0.8,0.8c0,0.4,0.3,0.8,0.8,0.8C193.3,493.6,193.6,493.3,193.6,492.8 M192.5,492.3h0.4
		c0.2,0,0.4,0.1,0.4,0.3c0,0.2-0.1,0.3-0.3,0.3l0.3,0.5h-0.2l-0.3-0.5h-0.2v0.5h-0.2V492.3z M192.8,492.8c0.2,0,0.3,0,0.3-0.2
		c0-0.1-0.1-0.2-0.2-0.2h-0.2v0.3H192.8z"/>
</g>
</svg>
