<?xml version="1.0" encoding="utf-8"?>
<!-- Generator: Adobe Illustrator 26.3.1, SVG Export Plug-In . SVG Version: 6.00 Build 0)  -->
<svg version="1.1" id="Layer_1" xmlns="http://www.w3.org/2000/svg" xmlns:xlink="http://www.w3.org/1999/xlink" x="0px" y="0px"
	 viewBox="0 0 300 600" style="enable-background:new 0 0 300 600;" xml:space="preserve">
<style type="text/css">
	.st0{fill:#339933;}
	.st1{fill:#231F20;}
</style>
<g>
	<path class="st0" d="M119.7,143.3v8.4h8.9v-8.4h4.8v22h-4.8v-9.5h-8.9v9.5h-4.8v-22H119.7z"/>
	<path class="st0" d="M137,154.2c0.1-1,0.3-1.9,0.8-2.6c0.5-0.7,1-1.2,1.7-1.6c0.7-0.4,1.5-0.7,2.4-0.9c0.9-0.2,1.8-0.3,2.6-0.3
		c0.8,0,1.6,0.1,2.4,0.2c0.8,0.1,1.6,0.3,2.2,0.7c0.7,0.3,1.2,0.8,1.7,1.4c0.4,0.6,0.6,1.4,0.6,2.3v8.3c0,0.7,0,1.4,0.1,2.1
		c0.1,0.7,0.2,1.2,0.4,1.5h-4.4c-0.1-0.2-0.1-0.5-0.2-0.8c-0.1-0.3-0.1-0.5-0.1-0.8c-0.7,0.7-1.5,1.2-2.5,1.5
		c-0.9,0.3-1.9,0.4-2.9,0.4c-0.8,0-1.5-0.1-2.1-0.3c-0.7-0.2-1.2-0.5-1.7-0.9c-0.5-0.4-0.9-0.9-1.2-1.5c-0.3-0.6-0.4-1.3-0.4-2.1
		c0-0.9,0.2-1.6,0.5-2.2c0.3-0.6,0.7-1.1,1.2-1.4c0.5-0.3,1.1-0.6,1.7-0.8c0.6-0.2,1.3-0.3,2-0.4c0.7-0.1,1.3-0.2,1.9-0.2
		c0.6-0.1,1.2-0.2,1.7-0.3c0.5-0.1,0.9-0.3,1.2-0.5c0.3-0.2,0.4-0.6,0.4-1c0-0.5-0.1-0.8-0.2-1.1s-0.4-0.5-0.6-0.6
		c-0.3-0.2-0.6-0.3-0.9-0.3s-0.7-0.1-1.1-0.1c-0.9,0-1.5,0.2-2,0.6c-0.5,0.4-0.8,1-0.9,1.8H137z M147.1,157.5
		c-0.2,0.2-0.4,0.3-0.7,0.4c-0.3,0.1-0.6,0.2-0.9,0.2s-0.7,0.1-1,0.2c-0.3,0-0.7,0.1-1,0.2c-0.3,0.1-0.7,0.1-1,0.2
		c-0.3,0.1-0.6,0.2-0.8,0.4s-0.4,0.4-0.6,0.7c-0.1,0.3-0.2,0.6-0.2,1c0,0.4,0.1,0.7,0.2,1c0.1,0.3,0.3,0.5,0.6,0.6s0.5,0.3,0.9,0.3
		c0.3,0.1,0.7,0.1,1,0.1c0.9,0,1.5-0.1,2-0.4c0.5-0.3,0.8-0.6,1-1c0.2-0.4,0.4-0.8,0.4-1.2c0.1-0.4,0.1-0.7,0.1-1V157.5z"/>
	<path class="st0" d="M158.8,165.3l-5.5-15.9h4.6l3.4,10.9h0.1l3.4-10.9h4.3l-5.4,15.9H158.8z"/>
	<path class="st0" d="M175.6,161.4c0.7,0.6,1.6,1,2.8,1c0.9,0,1.6-0.2,2.3-0.7c0.6-0.4,1-0.9,1.2-1.4h3.8c-0.6,1.9-1.6,3.3-2.8,4.1
		c-1.3,0.8-2.8,1.2-4.6,1.2c-1.3,0-2.4-0.2-3.4-0.6c-1-0.4-1.9-1-2.6-1.7c-0.7-0.7-1.2-1.6-1.6-2.6c-0.4-1-0.6-2.2-0.6-3.4
		c0-1.2,0.2-2.3,0.6-3.3c0.4-1,0.9-1.9,1.7-2.7c0.7-0.7,1.6-1.3,2.6-1.8c1-0.4,2.1-0.6,3.3-0.6c1.4,0,2.5,0.3,3.5,0.8
		s1.8,1.2,2.5,2.1s1.1,1.9,1.4,3c0.3,1.1,0.4,2.3,0.3,3.5h-11.5C174.6,159.8,174.9,160.8,175.6,161.4z M180.5,153.1
		c-0.5-0.6-1.3-0.9-2.4-0.9c-0.7,0-1.3,0.1-1.7,0.4c-0.5,0.2-0.8,0.5-1.1,0.9c-0.3,0.3-0.5,0.7-0.6,1.1s-0.2,0.7-0.2,1h7.1
		C181.4,154.5,181,153.6,180.5,153.1z"/>
</g>
<g>
	<path class="st0" d="M57.4,175.2h5.4l5.1,8.7l5.1-8.7h5.4l-8.2,13.6v8.4h-4.8v-8.6L57.4,175.2z"/>
	<path class="st0" d="M80.1,181.7c0.5-1.4,1.2-2.6,2.1-3.7c0.9-1,2.1-1.9,3.4-2.5c1.3-0.6,2.9-0.9,4.5-0.9c1.7,0,3.2,0.3,4.6,0.9
		c1.3,0.6,2.5,1.4,3.4,2.5c0.9,1,1.6,2.3,2.1,3.7c0.5,1.4,0.7,2.9,0.7,4.6c0,1.6-0.2,3.1-0.7,4.5c-0.5,1.4-1.2,2.6-2.1,3.6
		c-0.9,1-2.1,1.8-3.4,2.4c-1.3,0.6-2.9,0.9-4.6,0.9c-1.7,0-3.2-0.3-4.5-0.9c-1.3-0.6-2.5-1.4-3.4-2.4c-0.9-1-1.6-2.2-2.1-3.6
		c-0.5-1.4-0.7-2.9-0.7-4.5C79.4,184.6,79.7,183.1,80.1,181.7z M84.6,189c0.2,0.9,0.6,1.7,1,2.4c0.5,0.7,1.1,1.3,1.8,1.7
		s1.7,0.6,2.8,0.6s2-0.2,2.8-0.6c0.8-0.4,1.4-1,1.8-1.7c0.5-0.7,0.8-1.5,1-2.4c0.2-0.9,0.3-1.8,0.3-2.7c0-1-0.1-1.9-0.3-2.8
		c-0.2-0.9-0.6-1.7-1-2.4c-0.5-0.7-1.1-1.3-1.8-1.7c-0.8-0.4-1.7-0.6-2.8-0.6s-2,0.2-2.8,0.6c-0.8,0.4-1.4,1-1.8,1.7
		c-0.5,0.7-0.8,1.5-1,2.4c-0.2,0.9-0.3,1.8-0.3,2.8C84.2,187.2,84.4,188.1,84.6,189z"/>
	<path class="st0" d="M120.5,195.5c-1.7,1.4-4,2.2-6.9,2.2c-3,0-5.3-0.7-6.9-2.2c-1.6-1.4-2.4-3.7-2.4-6.7v-13.7h4.8v13.7
		c0,0.6,0.1,1.2,0.2,1.8c0.1,0.6,0.3,1.1,0.6,1.5c0.3,0.4,0.8,0.8,1.4,1.1c0.6,0.3,1.4,0.4,2.4,0.4c1.7,0,2.9-0.4,3.6-1.2
		c0.7-0.8,1-2,1-3.6v-13.7h4.8v13.7C123,191.8,122.2,194,120.5,195.5z"/>
	<path class="st0" d="M139,175.2c1,0,1.9,0.2,2.7,0.5c0.8,0.3,1.5,0.8,2,1.3c0.6,0.6,1,1.2,1.3,1.9c0.3,0.7,0.4,1.5,0.4,2.4
		c0,1.3-0.3,2.4-0.8,3.4c-0.5,0.9-1.4,1.7-2.7,2.2v0.1c0.6,0.2,1.1,0.4,1.5,0.8s0.7,0.7,1,1.2s0.4,1,0.5,1.5
		c0.1,0.6,0.2,1.1,0.2,1.7c0,0.3,0,0.8,0.1,1.2c0,0.5,0.1,1,0.1,1.4c0.1,0.5,0.1,1,0.2,1.4s0.3,0.8,0.5,1.1h-4.8
		c-0.3-0.7-0.4-1.5-0.5-2.5c-0.1-1-0.2-1.9-0.3-2.8c-0.2-1.1-0.5-2-1-2.5c-0.5-0.5-1.4-0.8-2.6-0.8H132v8.6h-4.8v-22H139z
		 M137.3,185.1c1.1,0,1.9-0.2,2.5-0.7c0.6-0.5,0.8-1.3,0.8-2.4c0-1.1-0.3-1.8-0.8-2.3c-0.6-0.5-1.4-0.7-2.5-0.7H132v6.2H137.3z"/>
	<path class="st0" d="M172.1,181c-0.3-0.5-0.6-0.9-1.1-1.2c-0.4-0.3-0.9-0.6-1.5-0.8c-0.5-0.2-1.1-0.3-1.7-0.3c-1.1,0-2,0.2-2.8,0.6
		c-0.8,0.4-1.4,1-1.8,1.7c-0.5,0.7-0.8,1.5-1,2.4c-0.2,0.9-0.3,1.8-0.3,2.8c0,0.9,0.1,1.8,0.3,2.7c0.2,0.9,0.6,1.7,1,2.4
		c0.5,0.7,1.1,1.3,1.8,1.7s1.7,0.6,2.8,0.6c1.5,0,2.6-0.5,3.5-1.4c0.8-0.9,1.3-2.1,1.5-3.6h4.7c-0.1,1.4-0.4,2.6-1,3.7
		c-0.5,1.1-1.2,2.1-2,2.8c-0.8,0.8-1.8,1.4-3,1.8c-1.1,0.4-2.4,0.6-3.7,0.6c-1.7,0-3.2-0.3-4.5-0.9c-1.3-0.6-2.5-1.4-3.4-2.4
		c-0.9-1-1.6-2.2-2.1-3.6c-0.5-1.4-0.7-2.9-0.7-4.5c0-1.6,0.2-3.2,0.7-4.6c0.5-1.4,1.2-2.6,2.1-3.7c0.9-1,2.1-1.9,3.4-2.5
		c1.3-0.6,2.9-0.9,4.5-0.9c1.2,0,2.4,0.2,3.4,0.5c1.1,0.3,2,0.9,2.9,1.5c0.9,0.7,1.6,1.5,2.1,2.5c0.6,1,0.9,2.1,1,3.4h-4.7
		C172.5,182,172.3,181.5,172.1,181z"/>
	<path class="st0" d="M191.7,175.2l8.2,22h-5l-1.7-4.9h-8.2l-1.7,4.9h-4.9l8.3-22H191.7z M192,188.7l-2.8-8.1h-0.1l-2.9,8.1H192z"/>
	<path class="st0" d="M206.7,175.2v9.1l8.6-9.1h6l-8.6,8.7l9.4,13.3h-6.1l-6.6-9.9l-2.8,2.8v7.1h-4.8v-22H206.7z"/>
	<path class="st0" d="M240.6,175.2v4.1h-11.6v4.7h10.7v3.8h-10.7v5.4h11.9v4.1h-16.7v-22H240.6z"/>
</g>
<g>
	<path class="st1" d="M41.5,218.6c0.1-1,0.3-1.9,0.8-2.6c0.5-0.7,1-1.2,1.7-1.6c0.7-0.4,1.5-0.7,2.4-0.9c0.9-0.2,1.8-0.3,2.6-0.3
		c0.8,0,1.6,0.1,2.4,0.2c0.8,0.1,1.6,0.3,2.2,0.7c0.7,0.3,1.2,0.8,1.7,1.4c0.4,0.6,0.6,1.4,0.6,2.3v8.3c0,0.7,0,1.4,0.1,2.1
		c0.1,0.7,0.2,1.2,0.4,1.5h-4.4c-0.1-0.2-0.1-0.5-0.2-0.8c-0.1-0.3-0.1-0.5-0.1-0.8c-0.7,0.7-1.5,1.2-2.5,1.5
		c-0.9,0.3-1.9,0.4-2.9,0.4c-0.8,0-1.5-0.1-2.1-0.3c-0.7-0.2-1.2-0.5-1.7-0.9c-0.5-0.4-0.9-0.9-1.2-1.5c-0.3-0.6-0.4-1.3-0.4-2.1
		c0-0.9,0.2-1.6,0.5-2.2c0.3-0.6,0.7-1.1,1.2-1.4c0.5-0.3,1.1-0.6,1.7-0.8c0.6-0.2,1.3-0.3,2-0.4c0.7-0.1,1.3-0.2,1.9-0.2
		c0.6-0.1,1.2-0.2,1.7-0.3c0.5-0.1,0.9-0.3,1.2-0.5c0.3-0.2,0.4-0.6,0.4-1c0-0.5-0.1-0.8-0.2-1.1c-0.2-0.3-0.4-0.5-0.6-0.6
		c-0.3-0.2-0.6-0.3-0.9-0.3c-0.3-0.1-0.7-0.1-1.1-0.1c-0.9,0-1.5,0.2-2,0.6s-0.8,1-0.9,1.8H41.5z M51.6,221.9
		c-0.2,0.2-0.4,0.3-0.7,0.4c-0.3,0.1-0.6,0.2-0.9,0.2c-0.3,0.1-0.7,0.1-1,0.2c-0.3,0-0.7,0.1-1,0.2c-0.3,0.1-0.7,0.1-1,0.2
		c-0.3,0.1-0.6,0.2-0.8,0.4c-0.2,0.2-0.4,0.4-0.6,0.7c-0.1,0.3-0.2,0.6-0.2,1c0,0.4,0.1,0.7,0.2,1c0.1,0.3,0.3,0.5,0.6,0.6
		c0.2,0.2,0.5,0.3,0.9,0.3c0.3,0.1,0.7,0.1,1,0.1c0.9,0,1.5-0.1,2-0.4c0.5-0.3,0.8-0.6,1-1c0.2-0.4,0.4-0.8,0.4-1.2
		c0.1-0.4,0.1-0.7,0.1-1V221.9z"/>
	<path class="st1" d="M63.5,213.7v2.2h0.1c0.6-0.9,1.3-1.6,2.2-2c0.9-0.4,1.8-0.6,2.7-0.6c1.2,0,2.1,0.2,2.9,0.5
		c0.7,0.3,1.3,0.8,1.8,1.3c0.4,0.6,0.7,1.3,0.9,2.1c0.2,0.8,0.3,1.7,0.3,2.7v9.8h-4.4v-9c0-1.3-0.2-2.3-0.6-2.9
		c-0.4-0.6-1.1-1-2.2-1c-1.2,0-2.1,0.4-2.6,1.1c-0.5,0.7-0.8,1.9-0.8,3.5v8.3h-4.4v-15.9H63.5z"/>
	<path class="st1" d="M88.9,227.6c-0.5,0.9-1.2,1.5-2,1.9s-1.8,0.6-2.8,0.6c-1.2,0-2.2-0.2-3.1-0.7c-0.9-0.5-1.6-1.1-2.2-1.9
		c-0.6-0.8-1-1.7-1.3-2.7c-0.3-1-0.4-2.1-0.4-3.2c0-1.1,0.1-2.1,0.4-3.1c0.3-1,0.7-1.9,1.3-2.6c0.6-0.8,1.3-1.4,2.2-1.8
		c0.9-0.5,1.9-0.7,3.1-0.7c0.9,0,1.8,0.2,2.7,0.6c0.9,0.4,1.5,1,2,1.8h0.1v-8h4.4v22H89L88.9,227.6L88.9,227.6z M88.7,219.8
		c-0.1-0.6-0.3-1.1-0.6-1.6s-0.7-0.8-1.2-1.1c-0.5-0.3-1.1-0.4-1.8-0.4s-1.3,0.1-1.8,0.4s-0.9,0.7-1.2,1.1c-0.3,0.5-0.5,1-0.6,1.6
		c-0.1,0.6-0.2,1.2-0.2,1.9c0,0.6,0.1,1.2,0.2,1.8c0.1,0.6,0.4,1.2,0.7,1.6c0.3,0.5,0.7,0.9,1.2,1.2c0.5,0.3,1.1,0.4,1.7,0.4
		c0.7,0,1.3-0.1,1.8-0.4c0.5-0.3,0.9-0.7,1.2-1.2c0.3-0.5,0.5-1,0.6-1.6c0.1-0.6,0.2-1.3,0.2-1.9S88.8,220.4,88.7,219.8z"/>
	<path class="st1" d="M110.3,207.7v9.1l8.6-9.1h6l-8.6,8.7l9.4,13.3h-6.1l-6.6-9.9l-2.8,2.8v7.1h-4.8v-22H110.3z"/>
	<path class="st1" d="M144.1,207.7v4.1h-11.6v4.7h10.7v3.8h-10.7v5.4h11.9v4.1h-16.7v-22H144.1z"/>
	<path class="st1" d="M164.1,207.7v4.1h-11.6v4.7h10.7v3.8h-10.7v5.4h11.9v4.1h-16.7v-22H164.1z"/>
	<path class="st1" d="M177.5,207.7c1.4,0,2.5,0.2,3.5,0.6s1.8,0.9,2.4,1.6s1,1.4,1.3,2.2c0.3,0.8,0.4,1.7,0.4,2.6
		c0,0.9-0.1,1.8-0.4,2.6c-0.3,0.9-0.7,1.6-1.3,2.3c-0.6,0.7-1.4,1.2-2.4,1.6s-2.1,0.6-3.5,0.6h-5.1v7.9h-4.8v-22H177.5z M176.2,218
		c0.6,0,1.1,0,1.6-0.1c0.5-0.1,1-0.2,1.4-0.5c0.4-0.2,0.7-0.6,0.9-1s0.4-1,0.4-1.7c0-0.7-0.1-1.3-0.4-1.7s-0.5-0.8-0.9-1
		c-0.4-0.2-0.8-0.4-1.4-0.5c-0.5-0.1-1-0.1-1.6-0.1h-3.8v6.6H176.2z"/>
	<path class="st1" d="M202.1,234.4c-0.8,0.6-2,0.8-3.5,0.8c-0.5,0-0.9,0-1.3,0c-0.4,0-0.9-0.1-1.3-0.1v-3.6c0.4,0,0.8,0.1,1.3,0.1
		c0.4,0,0.9,0.1,1.3,0c0.6-0.1,1-0.3,1.3-0.7c0.3-0.4,0.4-0.8,0.4-1.3c0-0.3-0.1-0.7-0.2-1l-5.6-14.9h4.7l3.6,10.9h0.1l3.5-10.9h4.5
		l-6.7,17.9C203.6,232.9,203,233.9,202.1,234.4z"/>
	<path class="st1" d="M212.3,218.3c0.4-1,0.9-1.9,1.7-2.6c0.7-0.7,1.6-1.3,2.6-1.7s2.1-0.6,3.4-0.6c1.3,0,2.4,0.2,3.4,0.6
		c1,0.4,1.9,1,2.6,1.7c0.7,0.7,1.3,1.6,1.7,2.6c0.4,1,0.6,2.2,0.6,3.5c0,1.3-0.2,2.4-0.6,3.4c-0.4,1-0.9,1.9-1.7,2.6
		c-0.7,0.7-1.6,1.3-2.6,1.7c-1,0.4-2.2,0.6-3.4,0.6c-1.3,0-2.4-0.2-3.4-0.6c-1-0.4-1.9-0.9-2.6-1.7c-0.7-0.7-1.3-1.6-1.7-2.6
		c-0.4-1-0.6-2.2-0.6-3.4C211.7,220.4,211.9,219.3,212.3,218.3z M216.3,223.6c0.1,0.6,0.3,1.2,0.6,1.6c0.3,0.5,0.7,0.9,1.2,1.2
		s1.1,0.4,1.8,0.4c0.7,0,1.4-0.1,1.9-0.4c0.5-0.3,0.9-0.7,1.2-1.2c0.3-0.5,0.5-1,0.6-1.6c0.1-0.6,0.2-1.2,0.2-1.9
		c0-0.6-0.1-1.3-0.2-1.9s-0.3-1.2-0.6-1.6c-0.3-0.5-0.7-0.9-1.2-1.2c-0.5-0.3-1.1-0.4-1.9-0.4c-0.7,0-1.4,0.1-1.8,0.4
		c-0.5,0.3-0.9,0.7-1.2,1.2c-0.3,0.5-0.5,1-0.6,1.6s-0.2,1.2-0.2,1.9C216.1,222.4,216.2,223,216.3,223.6z"/>
	<path class="st1" d="M241.8,229.7v-2.2h-0.1c-0.6,0.9-1.3,1.6-2.2,2c-0.9,0.4-1.8,0.6-2.7,0.6c-1.2,0-2.1-0.2-2.9-0.5
		c-0.8-0.3-1.3-0.7-1.8-1.3c-0.4-0.6-0.7-1.3-0.9-2.1s-0.3-1.7-0.3-2.7v-9.8h4.4v9c0,1.3,0.2,2.3,0.6,2.9c0.4,0.6,1.1,1,2.2,1
		c1.2,0,2.1-0.4,2.6-1.1s0.8-1.9,0.8-3.5v-8.3h4.4v15.9H241.8z"/>
	<path class="st1" d="M253.5,213.7v3h0.1c0.2-0.5,0.5-0.9,0.8-1.4c0.3-0.4,0.7-0.8,1.2-1.1c0.5-0.3,0.9-0.5,1.4-0.7
		c0.5-0.2,1-0.2,1.6-0.2c0.3,0,0.6,0.1,1,0.2v4.1c-0.2,0-0.5-0.1-0.7-0.1c-0.3,0-0.6,0-0.8,0c-0.8,0-1.5,0.1-2,0.4
		c-0.6,0.3-1,0.6-1.3,1.1s-0.6,1-0.7,1.6c-0.1,0.6-0.2,1.3-0.2,2v7.2h-4.4v-15.9H253.5z"/>
</g>
<g>
	<path class="st1" d="M51.8,243.8v-3.6h4.4v3.6H51.8z M56.2,246.2v15.9h-4.4v-15.9H56.2z"/>
	<path class="st1" d="M63.8,246.2v2.2h0.1c0.6-0.9,1.3-1.6,2.2-2c0.9-0.4,1.8-0.6,2.7-0.6c1.2,0,2.1,0.2,2.9,0.5
		c0.7,0.3,1.3,0.8,1.8,1.3c0.4,0.6,0.7,1.3,0.9,2.1c0.2,0.8,0.3,1.7,0.3,2.7v9.8h-4.4v-9c0-1.3-0.2-2.3-0.6-2.9
		c-0.4-0.6-1.1-1-2.2-1c-1.2,0-2.1,0.4-2.6,1.1c-0.5,0.7-0.8,1.9-0.8,3.5v8.3h-4.4v-15.9H63.8z"/>
	<path class="st1" d="M85.5,249.1c-0.7,0-1.3,0.2-1.8,0.5c-0.5,0.3-0.9,0.7-1.2,1.2c-0.3,0.5-0.5,1.1-0.6,1.7
		c-0.1,0.6-0.2,1.2-0.2,1.8c0,0.6,0.1,1.2,0.2,1.8c0.1,0.6,0.3,1.1,0.6,1.6c0.3,0.5,0.7,0.9,1.1,1.2c0.5,0.3,1,0.5,1.7,0.5
		c1,0,1.9-0.3,2.4-0.9c0.6-0.6,0.9-1.4,1.1-2.4h4.2c-0.3,2.1-1.1,3.7-2.5,4.8c-1.4,1.1-3.1,1.7-5.2,1.7c-1.2,0-2.3-0.2-3.3-0.6
		c-1-0.4-1.8-1-2.5-1.7c-0.7-0.7-1.2-1.6-1.6-2.6c-0.4-1-0.6-2.1-0.6-3.3c0-1.2,0.2-2.4,0.5-3.4c0.4-1.1,0.9-2,1.6-2.7
		s1.6-1.4,2.6-1.8c1-0.4,2.2-0.6,3.4-0.6c0.9,0,1.9,0.1,2.7,0.4c0.9,0.2,1.7,0.6,2.3,1.1c0.7,0.5,1.2,1.1,1.7,1.9
		c0.4,0.8,0.7,1.6,0.7,2.7h-4.3C88.5,250,87.4,249.1,85.5,249.1z"/>
	<path class="st1" d="M95.7,243.8v-3.6h4.4v3.6H95.7z M100.1,246.2v15.9h-4.4v-15.9H100.1z"/>
	<path class="st1" d="M107.2,258.2c0.2,0.3,0.4,0.6,0.8,0.8c0.3,0.2,0.7,0.4,1.1,0.5c0.4,0.1,0.8,0.2,1.2,0.2c0.3,0,0.6,0,1-0.1
		c0.3-0.1,0.6-0.2,0.9-0.3c0.3-0.2,0.5-0.4,0.7-0.6c0.2-0.3,0.3-0.6,0.3-1c0-0.7-0.4-1.1-1.3-1.5c-0.9-0.3-2.1-0.7-3.6-1
		c-0.6-0.1-1.3-0.3-1.9-0.5c-0.6-0.2-1.1-0.5-1.6-0.8c-0.5-0.3-0.9-0.7-1.1-1.2c-0.3-0.5-0.4-1.1-0.4-1.8c0-1,0.2-1.9,0.6-2.5
		c0.4-0.7,0.9-1.2,1.6-1.6c0.7-0.4,1.4-0.6,2.2-0.8c0.8-0.2,1.7-0.2,2.5-0.2s1.7,0.1,2.5,0.2c0.8,0.2,1.5,0.4,2.2,0.8
		c0.6,0.4,1.2,0.9,1.6,1.6c0.4,0.6,0.7,1.5,0.8,2.4h-4.2c-0.1-0.8-0.4-1.4-1-1.7c-0.6-0.3-1.3-0.4-2-0.4c-0.2,0-0.5,0-0.8,0
		c-0.3,0-0.5,0.1-0.8,0.2c-0.2,0.1-0.4,0.3-0.6,0.4c-0.2,0.2-0.2,0.5-0.2,0.8c0,0.4,0.1,0.7,0.4,1s0.7,0.4,1.1,0.6s1,0.3,1.6,0.4
		c0.6,0.1,1.2,0.3,1.8,0.4c0.6,0.1,1.3,0.3,1.9,0.5c0.6,0.2,1.1,0.5,1.6,0.8c0.5,0.3,0.9,0.8,1.1,1.3c0.3,0.5,0.4,1.1,0.4,1.9
		c0,1-0.2,1.9-0.6,2.6c-0.4,0.7-1,1.3-1.6,1.7s-1.5,0.7-2.3,0.9c-0.9,0.2-1.8,0.3-2.7,0.3c-0.9,0-1.8-0.1-2.7-0.3
		c-0.9-0.2-1.7-0.5-2.4-0.9c-0.7-0.4-1.3-1-1.7-1.7c-0.4-0.7-0.7-1.6-0.7-2.7h4.2C106.9,257.5,107,257.9,107.2,258.2z"/>
	<path class="st1" d="M120.2,250.8c0.4-1,0.9-1.9,1.7-2.6c0.7-0.7,1.6-1.3,2.6-1.7c1-0.4,2.1-0.6,3.4-0.6c1.3,0,2.4,0.2,3.4,0.6
		s1.9,1,2.6,1.7c0.7,0.7,1.3,1.6,1.7,2.6c0.4,1,0.6,2.2,0.6,3.5c0,1.3-0.2,2.4-0.6,3.4s-0.9,1.9-1.7,2.6c-0.7,0.7-1.6,1.3-2.6,1.7
		c-1,0.4-2.2,0.6-3.4,0.6c-1.3,0-2.4-0.2-3.4-0.6c-1-0.4-1.9-0.9-2.6-1.7c-0.7-0.7-1.3-1.6-1.7-2.6s-0.6-2.2-0.6-3.4
		C119.6,252.9,119.8,251.8,120.2,250.8z M124.1,256.1c0.1,0.6,0.3,1.2,0.6,1.6c0.3,0.5,0.7,0.9,1.2,1.2s1.1,0.4,1.8,0.4
		s1.4-0.1,1.9-0.4c0.5-0.3,0.9-0.7,1.2-1.2c0.3-0.5,0.5-1,0.6-1.6c0.1-0.6,0.2-1.2,0.2-1.9c0-0.6-0.1-1.3-0.2-1.9
		c-0.1-0.6-0.3-1.2-0.6-1.6c-0.3-0.5-0.7-0.9-1.2-1.2c-0.5-0.3-1.1-0.4-1.9-0.4s-1.4,0.1-1.8,0.4c-0.5,0.3-0.9,0.7-1.2,1.2
		c-0.3,0.5-0.5,1-0.6,1.6c-0.1,0.6-0.2,1.2-0.2,1.9C123.9,254.9,124,255.5,124.1,256.1z"/>
	<path class="st1" d="M143,246.2v3h0.1c0.2-0.5,0.5-0.9,0.8-1.4c0.3-0.4,0.8-0.8,1.2-1.1c0.5-0.3,0.9-0.5,1.4-0.7
		c0.5-0.2,1-0.2,1.6-0.2c0.3,0,0.6,0.1,1,0.2v4.1c-0.2,0-0.5-0.1-0.7-0.1c-0.3,0-0.6,0-0.8,0c-0.8,0-1.5,0.1-2,0.4
		c-0.6,0.3-1,0.6-1.3,1.1c-0.3,0.5-0.6,1-0.7,1.6c-0.1,0.6-0.2,1.3-0.2,2v7.2h-4.4v-15.9H143z"/>
	<path class="st1" d="M154.5,258.2c0.2,0.3,0.4,0.6,0.8,0.8c0.3,0.2,0.7,0.4,1.1,0.5c0.4,0.1,0.8,0.2,1.2,0.2c0.3,0,0.6,0,1-0.1
		c0.3-0.1,0.6-0.2,0.9-0.3s0.5-0.4,0.7-0.6c0.2-0.3,0.3-0.6,0.3-1c0-0.7-0.4-1.1-1.3-1.5c-0.9-0.3-2.1-0.7-3.6-1
		c-0.6-0.1-1.3-0.3-1.9-0.5c-0.6-0.2-1.1-0.5-1.6-0.8c-0.5-0.3-0.9-0.7-1.1-1.2c-0.3-0.5-0.4-1.1-0.4-1.8c0-1,0.2-1.9,0.6-2.5
		c0.4-0.7,0.9-1.2,1.6-1.6c0.7-0.4,1.4-0.6,2.2-0.8c0.8-0.2,1.7-0.2,2.5-0.2c0.9,0,1.7,0.1,2.5,0.2c0.8,0.2,1.5,0.4,2.2,0.8
		c0.6,0.4,1.2,0.9,1.6,1.6c0.4,0.6,0.7,1.5,0.8,2.4h-4.2c-0.1-0.8-0.4-1.4-1-1.7c-0.6-0.3-1.3-0.4-2-0.4c-0.2,0-0.5,0-0.8,0
		c-0.3,0-0.5,0.1-0.8,0.2c-0.2,0.1-0.4,0.3-0.6,0.4c-0.2,0.2-0.2,0.5-0.2,0.8c0,0.4,0.1,0.7,0.4,1s0.7,0.4,1.1,0.6s1,0.3,1.6,0.4
		c0.6,0.1,1.2,0.3,1.8,0.4c0.6,0.1,1.3,0.3,1.9,0.5c0.6,0.2,1.1,0.5,1.6,0.8c0.5,0.3,0.9,0.8,1.1,1.3c0.3,0.5,0.4,1.1,0.4,1.9
		c0,1-0.2,1.9-0.6,2.6s-1,1.3-1.6,1.7s-1.5,0.7-2.3,0.9c-0.9,0.2-1.8,0.3-2.7,0.3c-0.9,0-1.8-0.1-2.7-0.3c-0.9-0.2-1.7-0.5-2.4-0.9
		c-0.7-0.4-1.3-1-1.7-1.7c-0.4-0.7-0.7-1.6-0.7-2.7h4.2C154.3,257.5,154.3,257.9,154.5,258.2z"/>
	<path class="st1" d="M172.5,257.4v4.7c0,0.7-0.1,1.3-0.4,1.9c-0.3,0.6-0.6,1.1-1,1.5c-0.4,0.4-0.9,0.8-1.5,1.1
		c-0.6,0.3-1.2,0.5-1.9,0.6V265c0.3-0.1,0.6-0.2,0.9-0.4c0.3-0.2,0.5-0.4,0.7-0.7c0.2-0.3,0.4-0.5,0.5-0.9c0.1-0.3,0.1-0.6,0.1-1
		h-2.2v-4.7H172.5z"/>
	<path class="st1" d="M183.3,244.2v-4.1h18v4.1h-6.6v17.9h-4.8v-17.9H183.3z"/>
	<path class="st1" d="M203.6,246.7c0.5-1.4,1.2-2.6,2.1-3.7c0.9-1,2.1-1.9,3.4-2.5c1.3-0.6,2.9-0.9,4.5-0.9c1.7,0,3.2,0.3,4.6,0.9
		c1.3,0.6,2.5,1.4,3.4,2.5c0.9,1,1.6,2.3,2.1,3.7c0.5,1.4,0.7,2.9,0.7,4.6c0,1.6-0.2,3.1-0.7,4.5c-0.5,1.4-1.2,2.6-2.1,3.6
		c-0.9,1-2.1,1.8-3.4,2.4c-1.3,0.6-2.9,0.9-4.6,0.9c-1.7,0-3.2-0.3-4.5-0.9c-1.3-0.6-2.5-1.4-3.4-2.4c-0.9-1-1.6-2.2-2.1-3.6
		c-0.5-1.4-0.7-2.9-0.7-4.5C202.9,249.6,203.1,248.1,203.6,246.7z M208,254c0.2,0.9,0.6,1.7,1,2.4c0.5,0.7,1.1,1.3,1.8,1.7
		s1.7,0.6,2.8,0.6c1.1,0,2-0.2,2.8-0.6s1.4-1,1.8-1.7c0.5-0.7,0.8-1.5,1-2.4s0.3-1.8,0.3-2.7c0-1-0.1-1.9-0.3-2.8
		c-0.2-0.9-0.6-1.7-1-2.4c-0.5-0.7-1.1-1.3-1.8-1.7c-0.8-0.4-1.7-0.6-2.8-0.6c-1.1,0-2,0.2-2.8,0.6c-0.8,0.4-1.4,1-1.8,1.7
		c-0.5,0.7-0.8,1.5-1,2.4c-0.2,0.9-0.3,1.8-0.3,2.8C207.7,252.2,207.8,253.1,208,254z"/>
	<path class="st1" d="M227.6,246.7c0.5-1.4,1.2-2.6,2.1-3.7c0.9-1,2.1-1.9,3.4-2.5c1.3-0.6,2.9-0.9,4.5-0.9c1.7,0,3.2,0.3,4.6,0.9
		c1.3,0.6,2.5,1.4,3.4,2.5c0.9,1,1.6,2.3,2.1,3.7c0.5,1.4,0.7,2.9,0.7,4.6c0,1.6-0.2,3.1-0.7,4.5c-0.5,1.4-1.2,2.6-2.1,3.6
		c-0.9,1-2.1,1.8-3.4,2.4c-1.3,0.6-2.9,0.9-4.6,0.9c-1.7,0-3.2-0.3-4.5-0.9c-1.3-0.6-2.5-1.4-3.4-2.4c-0.9-1-1.6-2.2-2.1-3.6
		c-0.5-1.4-0.7-2.9-0.7-4.5C226.8,249.6,227.1,248.1,227.6,246.7z M232,254c0.2,0.9,0.6,1.7,1,2.4c0.5,0.7,1.1,1.3,1.8,1.7
		s1.7,0.6,2.8,0.6c1.1,0,2-0.2,2.8-0.6s1.4-1,1.8-1.7c0.5-0.7,0.8-1.5,1-2.4s0.3-1.8,0.3-2.7c0-1-0.1-1.9-0.3-2.8
		c-0.2-0.9-0.6-1.7-1-2.4c-0.5-0.7-1.1-1.3-1.8-1.7c-0.8-0.4-1.7-0.6-2.8-0.6c-1.1,0-2,0.2-2.8,0.6c-0.8,0.4-1.4,1-1.8,1.7
		c-0.5,0.7-0.8,1.5-1,2.4c-0.2,0.9-0.3,1.8-0.3,2.8C231.7,252.2,231.8,253.1,232,254z"/>
</g>
</svg>
