<?xml version="1.0" encoding="utf-8"?>
<!-- Generator: Adobe Illustrator 26.4.1, SVG Export Plug-In . SVG Version: 6.00 Build 0)  -->
<svg version="1.1" id="Layer_1" xmlns="http://www.w3.org/2000/svg" xmlns:xlink="http://www.w3.org/1999/xlink" x="0px" y="0px"
	 viewBox="0 0 300 600" style="enable-background:new 0 0 300 600;" xml:space="preserve">
<g>
	<path d="M52.5,190.3v17.9h10.7v4.1H47.6v-22H52.5z"/>
	<path d="M65.5,193.9v-3.6h4.4v3.6H65.5z M69.9,196.4v15.9h-4.4v-15.9H69.9z"/>
	<path d="M71.7,199.3v-2.9h2.6v-1.2c0-1.4,0.4-2.6,1.3-3.5c0.9-0.9,2.2-1.4,4-1.4c0.4,0,0.8,0,1.2,0s0.8,0.1,1.1,0.1v3.3
		c-0.5-0.1-1-0.1-1.6-0.1c-0.6,0-1,0.1-1.3,0.4s-0.4,0.7-0.4,1.4v1h3v2.9h-3v13h-4.4v-13H71.7z"/>
	<path d="M88.3,208.5c0.7,0.6,1.6,1,2.8,1c0.9,0,1.6-0.2,2.3-0.7c0.6-0.4,1-0.9,1.2-1.4h3.9c-0.6,1.9-1.6,3.3-2.8,4.1
		c-1.3,0.8-2.8,1.2-4.6,1.2c-1.3,0-2.4-0.2-3.4-0.6c-1-0.4-1.9-1-2.6-1.7c-0.7-0.7-1.2-1.6-1.6-2.6c-0.4-1-0.6-2.2-0.6-3.4
		c0-1.2,0.2-2.3,0.6-3.3c0.4-1,0.9-1.9,1.7-2.7c0.7-0.7,1.6-1.3,2.6-1.8c1-0.4,2.1-0.6,3.3-0.6c1.4,0,2.5,0.3,3.5,0.8
		c1,0.5,1.8,1.2,2.5,2.1c0.6,0.9,1.1,1.9,1.4,3c0.3,1.1,0.4,2.3,0.3,3.5H87.2C87.3,206.8,87.6,207.9,88.3,208.5z M93.2,200.1
		c-0.5-0.6-1.3-0.9-2.4-0.9c-0.7,0-1.3,0.1-1.7,0.4c-0.5,0.2-0.8,0.5-1.1,0.9s-0.5,0.7-0.6,1.1s-0.2,0.7-0.2,1h7.1
		C94.1,201.5,93.8,200.7,93.2,200.1z"/>
	<path d="M115.2,190.3v22h-4.8v-22H115.2z"/>
	<path d="M123.1,196.4v2.2h0.1c0.6-0.9,1.3-1.6,2.2-2c0.9-0.4,1.8-0.6,2.7-0.6c1.2,0,2.1,0.2,2.9,0.5c0.7,0.3,1.3,0.8,1.8,1.3
		c0.4,0.6,0.7,1.3,0.9,2.1c0.2,0.8,0.3,1.7,0.3,2.7v9.8h-4.4v-9c0-1.3-0.2-2.3-0.6-2.9c-0.4-0.6-1.1-1-2.2-1c-1.2,0-2.1,0.4-2.6,1.1
		c-0.5,0.7-0.8,1.9-0.8,3.5v8.3H119v-15.9H123.1z"/>
	<path d="M140.9,208.3c0.2,0.3,0.4,0.6,0.8,0.8c0.3,0.2,0.7,0.4,1.1,0.5c0.4,0.1,0.8,0.2,1.2,0.2c0.3,0,0.6,0,1-0.1
		c0.3-0.1,0.6-0.2,0.9-0.3s0.5-0.4,0.7-0.6c0.2-0.3,0.3-0.6,0.3-1c0-0.7-0.4-1.1-1.3-1.5c-0.9-0.3-2.1-0.7-3.6-1
		c-0.6-0.1-1.3-0.3-1.9-0.5c-0.6-0.2-1.1-0.5-1.6-0.8c-0.5-0.3-0.9-0.7-1.1-1.2c-0.3-0.5-0.4-1.1-0.4-1.8c0-1,0.2-1.9,0.6-2.5
		c0.4-0.7,0.9-1.2,1.6-1.6c0.7-0.4,1.4-0.6,2.2-0.8c0.8-0.2,1.7-0.2,2.5-0.2c0.9,0,1.7,0.1,2.5,0.2c0.8,0.2,1.5,0.4,2.2,0.8
		c0.6,0.4,1.2,0.9,1.6,1.6c0.4,0.6,0.7,1.5,0.8,2.4h-4.2c-0.1-0.8-0.4-1.4-1-1.7c-0.6-0.3-1.3-0.4-2-0.4c-0.2,0-0.5,0-0.8,0
		c-0.3,0-0.5,0.1-0.8,0.2c-0.2,0.1-0.4,0.3-0.6,0.4c-0.2,0.2-0.2,0.5-0.2,0.8c0,0.4,0.1,0.7,0.4,1c0.3,0.2,0.7,0.4,1.1,0.6
		s1,0.3,1.6,0.4c0.6,0.1,1.2,0.3,1.8,0.4c0.6,0.1,1.3,0.3,1.9,0.5c0.6,0.2,1.1,0.5,1.6,0.8c0.5,0.3,0.9,0.8,1.1,1.3
		c0.3,0.5,0.4,1.1,0.4,1.9c0,1-0.2,1.9-0.6,2.6s-1,1.3-1.6,1.7s-1.5,0.7-2.3,0.9c-0.9,0.2-1.8,0.3-2.7,0.3c-0.9,0-1.8-0.1-2.7-0.3
		c-0.9-0.2-1.7-0.5-2.4-0.9c-0.7-0.4-1.3-1-1.7-1.7c-0.4-0.7-0.7-1.6-0.7-2.7h4.2C140.6,207.6,140.7,208,140.9,208.3z"/>
	<path d="M164.5,212.3v-2.2h-0.1c-0.6,0.9-1.3,1.6-2.2,2c-0.9,0.4-1.8,0.6-2.7,0.6c-1.2,0-2.1-0.2-2.9-0.5c-0.8-0.3-1.3-0.7-1.8-1.3
		c-0.4-0.6-0.7-1.3-0.9-2.1s-0.3-1.7-0.3-2.7v-9.8h4.4v9c0,1.3,0.2,2.3,0.6,2.9c0.4,0.6,1.1,1,2.2,1c1.2,0,2.1-0.4,2.6-1.1
		s0.8-1.9,0.8-3.5v-8.3h4.4v15.9H164.5z"/>
	<path d="M176.2,196.4v3h0.1c0.2-0.5,0.5-0.9,0.8-1.4c0.3-0.4,0.7-0.8,1.2-1.1c0.5-0.3,0.9-0.5,1.4-0.7c0.5-0.2,1-0.2,1.6-0.2
		c0.3,0,0.6,0.1,1,0.2v4.1c-0.2,0-0.5-0.1-0.7-0.1c-0.3,0-0.6,0-0.8,0c-0.8,0-1.5,0.1-2,0.4c-0.6,0.3-1,0.6-1.3,1.1s-0.6,1-0.7,1.6
		c-0.1,0.6-0.2,1.3-0.2,2v7.2H172v-15.9H176.2z"/>
	<path d="M183.8,201.3c0.1-1,0.3-1.9,0.8-2.6c0.5-0.7,1-1.2,1.7-1.6c0.7-0.4,1.5-0.7,2.4-0.9s1.8-0.3,2.6-0.3c0.8,0,1.6,0.1,2.4,0.2
		c0.8,0.1,1.6,0.3,2.2,0.7c0.7,0.3,1.2,0.8,1.7,1.4c0.4,0.6,0.6,1.4,0.6,2.3v8.3c0,0.7,0,1.4,0.1,2.1c0.1,0.7,0.2,1.2,0.4,1.5h-4.4
		c-0.1-0.2-0.1-0.5-0.2-0.8c-0.1-0.3-0.1-0.5-0.1-0.8c-0.7,0.7-1.5,1.2-2.5,1.5c-0.9,0.3-1.9,0.4-2.9,0.4c-0.8,0-1.5-0.1-2.1-0.3
		c-0.7-0.2-1.2-0.5-1.7-0.9c-0.5-0.4-0.9-0.9-1.2-1.5c-0.3-0.6-0.4-1.3-0.4-2.1c0-0.9,0.2-1.6,0.5-2.2c0.3-0.6,0.7-1.1,1.2-1.4
		c0.5-0.3,1.1-0.6,1.7-0.8c0.6-0.2,1.3-0.3,2-0.4c0.7-0.1,1.3-0.2,1.9-0.2c0.6-0.1,1.2-0.2,1.7-0.3c0.5-0.1,0.9-0.3,1.2-0.5
		c0.3-0.2,0.4-0.6,0.4-1c0-0.5-0.1-0.8-0.2-1.1s-0.4-0.5-0.6-0.6c-0.3-0.2-0.6-0.3-0.9-0.3s-0.7-0.1-1.1-0.1c-0.9,0-1.5,0.2-2,0.6
		c-0.5,0.4-0.8,1-0.9,1.8H183.8z M193.9,204.5c-0.2,0.2-0.4,0.3-0.7,0.4c-0.3,0.1-0.6,0.2-0.9,0.2s-0.7,0.1-1,0.2
		c-0.3,0-0.7,0.1-1,0.2c-0.3,0.1-0.7,0.1-1,0.2c-0.3,0.1-0.6,0.2-0.8,0.4s-0.4,0.4-0.6,0.7c-0.1,0.3-0.2,0.6-0.2,1
		c0,0.4,0.1,0.7,0.2,1c0.1,0.3,0.3,0.5,0.6,0.6s0.5,0.3,0.9,0.3c0.3,0.1,0.7,0.1,1,0.1c0.9,0,1.5-0.1,2-0.4c0.5-0.3,0.8-0.6,1-1
		c0.2-0.4,0.4-0.8,0.4-1.2c0.1-0.4,0.1-0.7,0.1-1V204.5z"/>
	<path d="M205.8,196.4v2.2h0.1c0.6-0.9,1.3-1.6,2.2-2c0.9-0.4,1.8-0.6,2.7-0.6c1.2,0,2.1,0.2,2.9,0.5c0.7,0.3,1.3,0.8,1.8,1.3
		c0.4,0.6,0.7,1.3,0.9,2.1c0.2,0.8,0.3,1.7,0.3,2.7v9.8h-4.4v-9c0-1.3-0.2-2.3-0.6-2.9s-1.1-1-2.2-1c-1.2,0-2.1,0.4-2.6,1.1
		c-0.5,0.7-0.8,1.9-0.8,3.5v8.3h-4.4v-15.9H205.8z"/>
	<path d="M227.5,199.2c-0.7,0-1.3,0.2-1.8,0.5c-0.5,0.3-0.9,0.7-1.2,1.2c-0.3,0.5-0.5,1.1-0.6,1.7c-0.1,0.6-0.2,1.2-0.2,1.8
		c0,0.6,0.1,1.2,0.2,1.8c0.1,0.6,0.3,1.1,0.6,1.6c0.3,0.5,0.7,0.9,1.1,1.2c0.5,0.3,1,0.5,1.7,0.5c1,0,1.9-0.3,2.4-0.9
		c0.6-0.6,0.9-1.4,1.1-2.4h4.2c-0.3,2.1-1.1,3.7-2.5,4.8c-1.4,1.1-3.1,1.7-5.2,1.7c-1.2,0-2.3-0.2-3.3-0.6s-1.8-1-2.5-1.7
		c-0.7-0.7-1.2-1.6-1.6-2.6c-0.4-1-0.6-2.1-0.6-3.3c0-1.2,0.2-2.4,0.5-3.4c0.4-1.1,0.9-2,1.6-2.7c0.7-0.8,1.5-1.4,2.6-1.8
		s2.2-0.6,3.5-0.6c0.9,0,1.9,0.1,2.7,0.4c0.9,0.2,1.7,0.6,2.3,1.1c0.7,0.5,1.2,1.1,1.7,1.9c0.4,0.8,0.7,1.6,0.7,2.7h-4.3
		C230.5,200.2,229.4,199.2,227.5,199.2z"/>
	<path d="M242.3,208.5c0.7,0.6,1.6,1,2.8,1c0.9,0,1.6-0.2,2.3-0.7c0.6-0.4,1-0.9,1.2-1.4h3.8c-0.6,1.9-1.6,3.3-2.8,4.1
		c-1.3,0.8-2.8,1.2-4.6,1.2c-1.3,0-2.4-0.2-3.4-0.6c-1-0.4-1.9-1-2.6-1.7c-0.7-0.7-1.2-1.6-1.6-2.6c-0.4-1-0.6-2.2-0.6-3.4
		c0-1.2,0.2-2.3,0.6-3.3c0.4-1,0.9-1.9,1.7-2.7c0.7-0.7,1.6-1.3,2.6-1.8c1-0.4,2.1-0.6,3.3-0.6c1.4,0,2.5,0.3,3.5,0.8
		s1.8,1.2,2.5,2.1s1.1,1.9,1.4,3c0.3,1.1,0.4,2.3,0.3,3.5h-11.5C241.3,206.8,241.6,207.9,242.3,208.5z M247.2,200.1
		c-0.5-0.6-1.3-0.9-2.4-0.9c-0.7,0-1.3,0.1-1.7,0.4c-0.5,0.2-0.8,0.5-1.1,0.9c-0.3,0.3-0.5,0.7-0.6,1.1s-0.2,0.7-0.2,1h7.1
		C248.1,201.5,247.8,200.7,247.2,200.1z"/>
</g>
</svg>
