<?xml version="1.0" encoding="utf-8"?>
<!-- Generator: Adobe Illustrator 26.3.1, SVG Export Plug-In . SVG Version: 6.00 Build 0)  -->
<svg version="1.1" id="Layer_1" xmlns="http://www.w3.org/2000/svg" xmlns:xlink="http://www.w3.org/1999/xlink" x="0px" y="0px"
	 viewBox="0 0 300 600" style="enable-background:new 0 0 300 600;" xml:space="preserve">
<style type="text/css">
	.st0{clip-path:url(#SVGID_00000129196948549318256270000010091047082692182672_);fill:#349946;}
	.st1{fill:#FFFFFF;}
</style>
<g>
	<defs>
		<rect id="SVGID_1_" x="63.5" y="428.8" width="174.2" height="36.7"/>
	</defs>
	<clipPath id="SVGID_00000065064987476315061820000014342824115380716733_">
		<use xlink:href="#SVGID_1_"  style="overflow:visible;"/>
	</clipPath>
	<path style="clip-path:url(#SVGID_00000065064987476315061820000014342824115380716733_);fill:#349946;" d="M237.8,447.1
		c0,10.1-9.5,18.4-21.1,18.4h-132c-11.6,0-21.1-8.3-21.1-18.4s9.5-18.4,21.1-18.4h132C228.3,428.8,237.8,437,237.8,447.1"/>
</g>
<g>
	<path class="st1" d="M104,453.4l-3.8-11.7h2.6l2.6,8.2h0l2.6-8.2h2.7l-3.9,11.7H104z"/>
	<path class="st1" d="M114.4,441.7v11.7h-2.6v-11.7H114.4z"/>
	<path class="st1" d="M125.4,441.7v2.2h-6.2v2.5h5.7v2h-5.7v2.9h6.3v2.2h-8.9v-11.7H125.4z"/>
	<path class="st1" d="M135.9,453.4l-2-8h0l-2,8h-2.6l-3.1-11.7h2.6l1.9,8h0l2-8h2.4l2,8.1h0l1.9-8.1h2.5l-3.2,11.7H135.9z"/>
	<path class="st1" d="M152.6,441.7c0.7,0,1.4,0.1,1.9,0.3c0.5,0.2,0.9,0.5,1.3,0.8c0.3,0.4,0.6,0.8,0.7,1.2s0.2,0.9,0.2,1.4
		c0,0.5-0.1,0.9-0.2,1.4s-0.4,0.9-0.7,1.2c-0.3,0.3-0.7,0.6-1.3,0.8c-0.5,0.2-1.1,0.3-1.9,0.3h-2.7v4.2h-2.6v-11.7H152.6z
		 M151.9,447.2c0.3,0,0.6,0,0.9-0.1c0.3,0,0.5-0.1,0.7-0.3c0.2-0.1,0.4-0.3,0.5-0.5c0.1-0.2,0.2-0.5,0.2-0.9s-0.1-0.7-0.2-0.9
		c-0.1-0.2-0.3-0.4-0.5-0.5s-0.4-0.2-0.7-0.3c-0.3,0-0.6-0.1-0.9-0.1h-2v3.5H151.9z"/>
	<path class="st1" d="M160.8,441.7v9.5h5.7v2.2h-8.3v-11.7H160.8z"/>
	<path class="st1" d="M173.8,441.7l4.4,11.7h-2.7l-0.9-2.6h-4.4l-0.9,2.6h-2.6l4.4-11.7H173.8z M174,448.8l-1.5-4.3h0l-1.5,4.3H174z
		"/>
	<path class="st1" d="M181.8,441.7l4.9,7.9h0v-7.9h2.4v11.7h-2.6l-4.9-7.8h0v7.8h-2.4v-11.7H181.8z"/>
	<path class="st1" d="M193.4,450.5c0.1,0.3,0.3,0.5,0.6,0.7c0.2,0.2,0.5,0.3,0.8,0.4s0.6,0.1,1,0.1c0.2,0,0.5,0,0.7-0.1
		s0.5-0.1,0.7-0.2s0.4-0.3,0.6-0.5s0.2-0.4,0.2-0.7c0-0.3-0.1-0.6-0.3-0.8c-0.2-0.2-0.5-0.4-0.8-0.5c-0.3-0.1-0.7-0.2-1.1-0.3
		s-0.8-0.2-1.3-0.3c-0.4-0.1-0.9-0.2-1.3-0.4c-0.4-0.2-0.8-0.4-1.1-0.6s-0.6-0.6-0.8-0.9c-0.2-0.4-0.3-0.8-0.3-1.4
		c0-0.6,0.1-1.1,0.4-1.6c0.3-0.4,0.6-0.8,1-1.1c0.4-0.3,0.9-0.5,1.4-0.7c0.5-0.1,1-0.2,1.6-0.2c0.6,0,1.2,0.1,1.8,0.2
		s1.1,0.4,1.5,0.7c0.4,0.3,0.8,0.7,1,1.2c0.3,0.5,0.4,1.1,0.4,1.7h-2.5c0-0.3-0.1-0.6-0.2-0.9c-0.1-0.2-0.3-0.4-0.5-0.5
		c-0.2-0.1-0.4-0.2-0.7-0.3c-0.3-0.1-0.6-0.1-0.9-0.1c-0.2,0-0.4,0-0.6,0.1c-0.2,0-0.4,0.1-0.6,0.2c-0.2,0.1-0.3,0.2-0.4,0.4
		s-0.2,0.4-0.2,0.6c0,0.2,0,0.4,0.1,0.6c0.1,0.1,0.3,0.3,0.5,0.4s0.6,0.2,1.1,0.4s1,0.3,1.8,0.5c0.2,0,0.5,0.1,0.9,0.2
		c0.4,0.1,0.8,0.3,1.2,0.5c0.4,0.3,0.7,0.6,1,1c0.3,0.4,0.4,1,0.4,1.6c0,0.5-0.1,1-0.3,1.5c-0.2,0.5-0.5,0.9-0.9,1.2
		c-0.4,0.3-0.9,0.6-1.5,0.8c-0.6,0.2-1.3,0.3-2.1,0.3c-0.6,0-1.3-0.1-1.9-0.2c-0.6-0.2-1.1-0.4-1.6-0.7c-0.5-0.3-0.8-0.8-1.1-1.3
		c-0.3-0.5-0.4-1.1-0.4-1.9h2.5C193.1,449.9,193.2,450.2,193.4,450.5z"/>
</g>
</svg>
