<?xml version="1.0" encoding="utf-8"?>
<!-- Generator: Adobe Illustrator 26.3.1, SVG Export Plug-In . SVG Version: 6.00 Build 0)  -->
<svg version="1.1" id="Layer_1" xmlns="http://www.w3.org/2000/svg" xmlns:xlink="http://www.w3.org/1999/xlink" x="0px" y="0px"
	 viewBox="0 0 300 600" style="enable-background:new 0 0 300 600;" xml:space="preserve">
<style type="text/css">
	.st0{fill:#349946;}
	.st1{fill:#231F20;}
	.st2{fill:none;}
</style>
<path class="st0" d="M29.3,92.2h-3.1l-1-2.9h-6.1l-1,2.9H15L20.4,78h2.2c0.8,0,1.2,0.2,1.4,0.8c0.2,0.5,2.7,6.9,2.7,6.9h-2.9
	l-1.7-4.8l-2.2,6.1h6.2c0.8,0,1.3,0.3,1.5,1L29.3,92.2z"/>
<path class="st0" d="M56.2,92.2h-3.1l-1-2.9H46l-1,2.9H42L47.4,78h2.2c0.8,0,1.2,0.2,1.4,0.8c0.2,0.5,2.7,6.9,2.7,6.9h-2.9l-1.7-4.8
	l-2.2,6.1H53c0.8,0,1.3,0.3,1.5,1L56.2,92.2z"/>
<path class="st0" d="M30.2,78h5.6c4.4,0,6.5,2.3,6.5,7.1c0,2.7-0.8,4.7-2.3,5.8c-1.4,1.1-2.9,1.3-5,1.3h-4.8V78z M35.5,89.6
	c2.7,0,3.9-1.3,3.9-4.5c0-3.2-1.1-4.6-3.5-4.6h-2.7v9.2H35.5z"/>
<g>
	<path class="st1" d="M80.4,92.1h-2.2l-0.9-10.2l-3.5,10.2h-1.9l-3.6-10.2l-0.8,10.2h-2.1l1.3-13.5h2.5L72.9,89l3.5-10.4H79
		L80.4,92.1z"/>
	<path class="st1" d="M91.4,87c0,0.1,0,0.3,0,0.5c0,0.2,0,0.3,0,0.3h-6.7c0,0.7,0.2,1.3,0.6,1.8c0.5,0.6,1.2,0.9,2.2,0.9
		c0.8,0,1.7-0.2,2.7-0.7l0.8,1.5c-1,0.7-2.2,1.1-3.7,1.1c-1.5,0-2.7-0.5-3.6-1.5c-0.8-0.9-1.3-2.1-1.3-3.6c0-1.6,0.4-2.8,1.3-3.8
		c0.9-1,2-1.5,3.4-1.5c1.3,0,2.4,0.5,3.1,1.4C91,84.2,91.4,85.4,91.4,87z M89.3,86.2c0-0.6-0.1-1.1-0.4-1.6c-0.4-0.6-1-1-1.7-1
		c-0.7,0-1.3,0.2-1.7,0.7c-0.5,0.5-0.7,1.1-0.8,1.8H89.3z"/>
	<path class="st1" d="M107.6,92.1h-2.2v-5.6c0-1.1-0.1-1.9-0.4-2.2c-0.3-0.3-0.7-0.5-1.2-0.5c-0.7,0-1.4,0.3-2.2,0.8
		c0.1,0.3,0.1,1,0.1,2.2v5.2h-2.2v-5.4c0-1.3-0.2-2.1-0.5-2.4c-0.3-0.3-0.6-0.4-1.1-0.4c-0.7,0-1.4,0.2-2.1,0.7v7.6h-2.2v-9.9h1.9
		v0.7c0.9-0.7,1.9-1,2.9-1c1,0,1.8,0.4,2.4,1.1c1.1-0.7,2.2-1.1,3.3-1.1c1,0,1.9,0.3,2.4,0.9c0.5,0.5,0.8,1.1,0.9,1.8
		c0.1,0.5,0.1,1.3,0.1,2.5V92.1z"/>
	<path class="st1" d="M119.1,86.9c0,1.6-0.5,2.9-1.4,3.9c-0.9,1-2.2,1.5-3.7,1.5c-1.1,0-2.4-0.2-3.9-0.7V77.5h2.2v5.2
		c0.8-0.5,1.6-0.7,2.5-0.7c1.3,0,2.3,0.5,3.1,1.4C118.7,84.2,119.1,85.4,119.1,86.9z M116.8,86.9c0-1-0.2-1.8-0.7-2.4
		c-0.5-0.5-1-0.8-1.8-0.8c-0.7,0-1.4,0.2-2.1,0.7v5.8c0.6,0.2,1.1,0.3,1.6,0.3c0.9,0,1.6-0.3,2.1-1C116.6,88.9,116.8,88,116.8,86.9z
		"/>
	<path class="st1" d="M129.6,87c0,0.1,0,0.3,0,0.5c0,0.2,0,0.3,0,0.3h-6.7c0,0.7,0.2,1.3,0.6,1.8c0.5,0.6,1.2,0.9,2.2,0.9
		c0.8,0,1.7-0.2,2.7-0.7l0.8,1.5c-1,0.7-2.2,1.1-3.7,1.1c-1.5,0-2.7-0.5-3.6-1.5c-0.8-0.9-1.3-2.1-1.3-3.6c0-1.6,0.4-2.8,1.3-3.8
		c0.9-1,2-1.5,3.4-1.5c1.3,0,2.4,0.5,3.1,1.4C129.3,84.2,129.6,85.4,129.6,87z M127.5,86.2c0-0.6-0.1-1.1-0.4-1.6
		c-0.4-0.6-1-1-1.7-1c-0.7,0-1.3,0.2-1.7,0.7c-0.5,0.5-0.7,1.1-0.8,1.8H127.5z"/>
	<path class="st1" d="M138,82.2l-0.5,1.7c-0.2,0-0.4-0.1-0.7-0.1c-1.2,0-2.2,0.5-2.9,1.5v6.8h-2.2v-9.9h1.9v1.3
		c0.2-0.3,0.5-0.5,0.9-0.8c0.7-0.5,1.5-0.7,2.3-0.7C137.3,81.9,137.7,82,138,82.2z"/>
</g>
<g>
	<path class="st1" d="M146.1,89.2c0,1-0.4,1.7-1.1,2.3c-0.7,0.6-1.6,0.8-2.7,0.8c-0.9,0-1.7-0.2-2.5-0.5c-0.5-0.2-0.8-0.4-1.1-0.6
		l0.8-1.5c1,0.5,1.8,0.8,2.6,0.8c0.6,0,1-0.1,1.3-0.3s0.4-0.5,0.4-0.9s-0.2-0.6-0.6-0.9c-0.2-0.1-0.7-0.4-1.6-0.7
		c-0.8-0.3-1.4-0.7-1.7-1c-0.6-0.5-0.9-1.2-0.9-2c0-0.9,0.3-1.6,1-2.1c0.7-0.5,1.6-0.8,2.6-0.8c1.4,0,2.5,0.3,3.2,0.9l-0.8,1.4
		c-0.8-0.4-1.5-0.7-2.3-0.7c-1.1,0-1.6,0.4-1.6,1.1c0,0.3,0.2,0.6,0.5,0.8c0.2,0.1,0.6,0.3,1.3,0.6c1,0.4,1.7,0.8,2,1.1
		C145.8,87.7,146.1,88.4,146.1,89.2z"/>
	<path class="st1" d="M155.8,92.1h-2.3V78.6h2.3V92.1z"/>
	<path class="st1" d="M167,92.1h-2.2v-5.4c0-1.3-0.1-2.1-0.4-2.4c-0.3-0.3-0.7-0.4-1.3-0.4c-0.7,0-1.4,0.2-2.2,0.7v7.5h-2.2v-9.9
		h1.9v0.7c0.9-0.7,1.9-1,2.9-1c1,0,1.9,0.3,2.5,0.9c0.5,0.5,0.8,1,0.9,1.7c0.1,0.4,0.1,1.1,0.1,2V92.1z"/>
	<path class="st1" d="M176.1,89.2c0,1-0.4,1.7-1.1,2.3c-0.7,0.6-1.6,0.8-2.7,0.8c-0.9,0-1.7-0.2-2.5-0.5c-0.5-0.2-0.8-0.4-1.1-0.6
		l0.8-1.5c1,0.5,1.8,0.8,2.6,0.8c0.6,0,1-0.1,1.3-0.3s0.4-0.5,0.4-0.9s-0.2-0.6-0.6-0.9c-0.2-0.1-0.7-0.4-1.6-0.7
		c-0.8-0.3-1.4-0.7-1.7-1c-0.6-0.5-0.9-1.2-0.9-2c0-0.9,0.3-1.6,1-2.1c0.7-0.5,1.6-0.8,2.6-0.8c1.4,0,2.5,0.3,3.2,0.9l-0.8,1.4
		c-0.8-0.4-1.5-0.7-2.3-0.7c-1.1,0-1.6,0.4-1.6,1.1c0,0.3,0.2,0.6,0.5,0.8c0.2,0.1,0.6,0.3,1.3,0.6c1,0.4,1.7,0.8,2,1.1
		C175.8,87.7,176.1,88.4,176.1,89.2z"/>
	<path class="st1" d="M186.6,92.1h-1.9v-0.7c-0.9,0.7-1.9,1-2.9,1c-1,0-1.9-0.3-2.5-0.9c-0.5-0.5-0.8-1-0.9-1.7
		c-0.1-0.4-0.1-1.1-0.1-2v-5.5h2.2v5.4c0,0.7,0,1.1,0,1.3c0.1,0.6,0.2,0.9,0.5,1.2c0.3,0.2,0.7,0.3,1.2,0.3c0.6,0,1.3-0.2,2.2-0.7
		v-7.5h2.2V92.1z"/>
	<path class="st1" d="M195.5,82.2l-0.5,1.7c-0.2,0-0.4-0.1-0.7-0.1c-1.2,0-2.2,0.5-2.9,1.5v6.8h-2.2v-9.9h1.9v1.3
		c0.2-0.3,0.5-0.5,0.9-0.8c0.7-0.5,1.5-0.7,2.3-0.7C194.8,81.9,195.1,82,195.5,82.2z"/>
</g>
<g>
	<path class="st1" d="M204.2,92.1h-1.9v-0.7c-1,0.6-1.9,0.9-2.9,0.9c-1,0-1.7-0.3-2.3-0.9c-0.6-0.6-0.9-1.3-0.9-2.3
		c0-2.3,1.9-3.5,5.6-3.5h0.4v-0.4c0-0.6-0.1-1-0.3-1.2c-0.3-0.3-0.8-0.4-1.6-0.4c-0.9,0-1.8,0.3-2.7,0.8l-0.8-1.4
		c0.2-0.2,0.6-0.4,1.1-0.6c0.8-0.3,1.6-0.5,2.6-0.5c1.3,0,2.4,0.4,3.1,1.1c0.4,0.4,0.6,0.8,0.7,1.3c0.1,0.3,0.1,0.9,0.1,1.7V92.1z
		 M202.1,89.9v-2.6h-0.5c-1.5,0-2.6,0.3-3.1,0.8c-0.3,0.3-0.4,0.6-0.4,1c0,0.5,0.2,0.9,0.5,1.1c0.3,0.3,0.7,0.4,1.2,0.4
		C200.5,90.6,201.2,90.3,202.1,89.9z"/>
	<path class="st1" d="M215,92.1h-2.2v-5.4c0-1.3-0.1-2.1-0.4-2.4c-0.3-0.3-0.7-0.4-1.3-0.4c-0.7,0-1.4,0.2-2.2,0.7v7.5h-2.2v-9.9
		h1.9v0.7c0.9-0.7,1.9-1,2.9-1c1,0,1.9,0.3,2.5,0.9c0.5,0.5,0.8,1,0.9,1.7c0.1,0.4,0.1,1.1,0.1,2V92.1z"/>
	<path class="st1" d="M225.5,91.2c-0.1,0.2-0.5,0.4-1,0.6c-0.8,0.4-1.7,0.5-2.6,0.5c-1.5,0-2.7-0.5-3.6-1.4s-1.4-2.2-1.4-3.7
		c0-1.5,0.5-2.8,1.5-3.8c1-1,2.2-1.5,3.7-1.5c0.8,0,1.6,0.2,2.3,0.5c0.5,0.2,0.8,0.4,1,0.6l-0.9,1.4c-0.7-0.5-1.4-0.7-2.2-0.7
		c-0.9,0-1.7,0.3-2.2,1c-0.5,0.6-0.8,1.4-0.8,2.3c0,1,0.3,1.8,0.8,2.4c0.5,0.6,1.2,0.9,2.2,0.9c0.7,0,1.6-0.2,2.5-0.7L225.5,91.2z"
		/>
</g>
<g>
	<path class="st1" d="M235.4,87c0,0.1,0,0.3,0,0.5s0,0.3,0,0.3h-6.7c0,0.7,0.2,1.3,0.6,1.8c0.5,0.6,1.2,0.9,2.2,0.9
		c0.8,0,1.7-0.2,2.7-0.7l0.8,1.5c-1,0.7-2.2,1.1-3.7,1.1c-1.5,0-2.7-0.5-3.6-1.5c-0.8-0.9-1.3-2.1-1.3-3.6c0-1.6,0.4-2.8,1.3-3.8
		c0.9-1,2-1.5,3.4-1.5c1.3,0,2.4,0.5,3.1,1.4S235.4,85.4,235.4,87z M233.3,86.2c0-0.6-0.1-1.1-0.4-1.6c-0.4-0.6-1-1-1.7-1
		c-0.7,0-1.3,0.2-1.7,0.7c-0.5,0.5-0.7,1.1-0.8,1.8H233.3z"/>
	<path class="st1" d="M251.6,82.6c0,1.2-0.4,2.2-1.2,3c-0.6,0.6-1.3,0.9-2.1,1.1c-0.5,0.1-1.3,0.2-2.5,0.2h-1v5.2h-2.3V78.6h3.6
		c1.1,0,1.9,0.1,2.4,0.2c0.8,0.2,1.4,0.5,1.9,1C251.3,80.5,251.6,81.5,251.6,82.6z M249.3,82.7c0-0.7-0.2-1.3-0.6-1.7
		c-0.4-0.4-1.2-0.5-2.5-0.5h-1.3V85h1c1.5,0,2.4-0.2,2.8-0.6S249.3,83.4,249.3,82.7z"/>
	<path class="st1" d="M256.2,92.1H254V77.5h2.2V92.1z"/>
	<path class="st1" d="M266.4,92.1h-1.9v-0.7c-1,0.6-1.9,0.9-2.9,0.9c-1,0-1.7-0.3-2.3-0.9c-0.6-0.6-0.9-1.3-0.9-2.3
		c0-2.3,1.9-3.5,5.6-3.5h0.4v-0.4c0-0.6-0.1-1-0.3-1.2c-0.3-0.3-0.8-0.4-1.6-0.4c-0.9,0-1.8,0.3-2.7,0.8l-0.8-1.4
		c0.2-0.2,0.6-0.4,1.1-0.6c0.8-0.3,1.6-0.5,2.6-0.5c1.3,0,2.4,0.4,3.1,1.1c0.4,0.4,0.6,0.8,0.7,1.3c0.1,0.3,0.1,0.9,0.1,1.7V92.1z
		 M264.3,89.9v-2.6h-0.5c-1.5,0-2.6,0.3-3.1,0.8c-0.3,0.3-0.4,0.6-0.4,1c0,0.5,0.2,0.9,0.5,1.1c0.3,0.3,0.7,0.4,1.2,0.4
		C262.7,90.6,263.4,90.3,264.3,89.9z"/>
	<path class="st1" d="M277.2,92.1h-2.2v-5.4c0-1.3-0.1-2.1-0.4-2.4c-0.3-0.3-0.7-0.4-1.3-0.4c-0.7,0-1.4,0.2-2.2,0.7v7.5h-2.2v-9.9
		h1.9v0.7c0.9-0.7,1.9-1,2.9-1c1,0,1.9,0.3,2.5,0.9c0.5,0.5,0.8,1,0.9,1.7c0.1,0.4,0.1,1.1,0.1,2V92.1z"/>
	<path class="st1" d="M286.3,89.2c0,1-0.4,1.7-1.1,2.3c-0.7,0.6-1.6,0.8-2.7,0.8c-0.9,0-1.7-0.2-2.5-0.5c-0.5-0.2-0.8-0.4-1.1-0.6
		l0.8-1.5c1,0.5,1.8,0.8,2.6,0.8c0.6,0,1-0.1,1.3-0.3s0.4-0.5,0.4-0.9s-0.2-0.6-0.6-0.9c-0.2-0.1-0.7-0.4-1.6-0.7
		c-0.8-0.3-1.4-0.7-1.7-1c-0.6-0.5-0.9-1.2-0.9-2c0-0.9,0.3-1.6,1-2.1c0.7-0.5,1.6-0.8,2.6-0.8c1.4,0,2.5,0.3,3.2,0.9l-0.8,1.4
		c-0.8-0.4-1.5-0.7-2.3-0.7c-1.1,0-1.6,0.4-1.6,1.1c0,0.3,0.2,0.6,0.5,0.8c0.2,0.1,0.6,0.3,1.3,0.6c1,0.4,1.7,0.8,2,1.1
		C285.9,87.7,286.3,88.4,286.3,89.2z"/>
</g>
<path class="st0" d="M58.2,92.3c-0.9,0-1.7-0.7-1.7-1.7c0-0.9,0.8-1.7,1.7-1.7s1.7,0.8,1.7,1.7C59.9,91.5,59.2,92.3,58.2,92.3
	 M58.2,89.3c-0.7,0-1.3,0.6-1.3,1.3c0,0.7,0.6,1.3,1.3,1.3s1.3-0.5,1.3-1.3C59.5,89.9,58.9,89.3,58.2,89.3 M58.6,91.4L58.4,91
	c-0.1-0.2-0.1-0.2-0.4-0.2H58v0.7h-0.3v-1.8h0.4c0.2,0,0.4,0,0.6,0.2c0.1,0.1,0.2,0.2,0.2,0.4c0,0.2-0.1,0.4-0.3,0.4
	c0.1,0,0.2,0.1,0.2,0.2l0.3,0.6H58.6z M58.4,90c-0.1,0-0.2,0-0.3,0H58v0.4c0.1,0,0.2,0,0.3,0c0.1,0,0.2-0.1,0.2-0.2
	C58.5,90.1,58.4,90,58.4,90"/>
<rect x="15" y="75.2" class="st2" width="271.7" height="18.7"/>
</svg>
