<?xml version="1.0" encoding="utf-8"?>
<!-- Generator: Adobe Illustrator 26.3.1, SVG Export Plug-In . SVG Version: 6.00 Build 0)  -->
<svg version="1.1" id="Layer_1" xmlns="http://www.w3.org/2000/svg" xmlns:xlink="http://www.w3.org/1999/xlink" x="0px" y="0px"
	 viewBox="0 0 300 600" style="enable-background:new 0 0 300 600;" xml:space="preserve">
<style type="text/css">
	.st0{fill:#339933;}
</style>
<g>
	<path class="st0" d="M49.7,497.9c0.3-0.9,0.7-1.6,1.3-2.2c0.6-0.6,1.2-1.1,2.1-1.5c0.8-0.4,1.7-0.5,2.8-0.5c1,0,2,0.2,2.8,0.5
		c0.8,0.4,1.5,0.9,2.1,1.5c0.6,0.6,1,1.4,1.3,2.2c0.3,0.9,0.4,1.8,0.4,2.8c0,1-0.1,1.9-0.4,2.7c-0.3,0.8-0.7,1.6-1.3,2.2
		c-0.6,0.6-1.2,1.1-2.1,1.5c-0.8,0.4-1.7,0.5-2.8,0.5c-1,0-1.9-0.2-2.8-0.5c-0.8-0.4-1.5-0.8-2.1-1.5c-0.6-0.6-1-1.4-1.3-2.2
		c-0.3-0.8-0.4-1.7-0.4-2.7C49.2,499.7,49.4,498.8,49.7,497.9z M52.4,502.3c0.1,0.5,0.3,1,0.6,1.4c0.3,0.4,0.7,0.8,1.1,1
		c0.5,0.3,1,0.4,1.7,0.4c0.7,0,1.2-0.1,1.7-0.4c0.5-0.3,0.8-0.6,1.1-1s0.5-0.9,0.6-1.4s0.2-1.1,0.2-1.6c0-0.6-0.1-1.2-0.2-1.7
		s-0.3-1-0.6-1.5c-0.3-0.4-0.7-0.8-1.1-1c-0.5-0.3-1-0.4-1.7-0.4c-0.7,0-1.2,0.1-1.7,0.4c-0.5,0.3-0.8,0.6-1.1,1
		c-0.3,0.4-0.5,0.9-0.6,1.5s-0.2,1.1-0.2,1.7C52.2,501.2,52.2,501.8,52.4,502.3z"/>
	<path class="st0" d="M66.6,497.6v1.3h0.1c0.3-0.6,0.8-1,1.3-1.2c0.5-0.3,1.1-0.4,1.6-0.4c0.7,0,1.3,0.1,1.7,0.3s0.8,0.5,1.1,0.8
		s0.4,0.8,0.6,1.3c0.1,0.5,0.2,1,0.2,1.6v5.9h-2.7v-5.5c0-0.8-0.1-1.4-0.4-1.8s-0.7-0.6-1.3-0.6c-0.7,0-1.2,0.2-1.6,0.6
		c-0.3,0.4-0.5,1.1-0.5,2.1v5.1h-2.7v-9.7H66.6z"/>
	<path class="st0" d="M77.9,493.9v13.4h-2.7v-13.4H77.9z"/>
	<path class="st0" d="M83.6,510.2c-0.5,0.3-1.2,0.5-2.1,0.5c-0.3,0-0.5,0-0.8,0s-0.5,0-0.8-0.1v-2.2c0.2,0,0.5,0,0.8,0.1
		c0.3,0,0.5,0,0.8,0c0.3,0,0.6-0.2,0.8-0.4c0.2-0.2,0.3-0.5,0.3-0.8c0-0.2,0-0.4-0.1-0.6l-3.4-9.1h2.8l2.2,6.6h0l2.1-6.6h2.7
		l-4,10.9C84.5,509.3,84.1,509.8,83.6,510.2z"/>
	<path class="st0" d="M93.9,499.4v-1.8h1.6v-0.7c0-0.9,0.3-1.6,0.8-2.1c0.5-0.5,1.3-0.8,2.4-0.8c0.2,0,0.5,0,0.7,0
		c0.2,0,0.5,0,0.7,0v2c-0.3,0-0.6-0.1-1-0.1c-0.4,0-0.6,0.1-0.8,0.3c-0.2,0.2-0.2,0.5-0.2,0.9v0.6h1.8v1.8h-1.8v7.9h-2.7v-7.9H93.9z
		"/>
	<path class="st0" d="M101.2,500.4c0.2-0.6,0.6-1.2,1-1.6c0.4-0.4,1-0.8,1.6-1s1.3-0.4,2.1-0.4c0.8,0,1.4,0.1,2.1,0.4
		c0.6,0.2,1.1,0.6,1.6,1c0.4,0.4,0.8,1,1,1.6c0.2,0.6,0.4,1.3,0.4,2.1c0,0.8-0.1,1.5-0.4,2.1c-0.2,0.6-0.6,1.2-1,1.6
		c-0.4,0.4-1,0.8-1.6,1c-0.6,0.2-1.3,0.4-2.1,0.4c-0.8,0-1.4-0.1-2.1-0.4s-1.1-0.6-1.6-1c-0.4-0.4-0.8-1-1-1.6
		c-0.2-0.6-0.4-1.3-0.4-2.1C100.8,501.7,100.9,501,101.2,500.4z M103.6,503.6c0.1,0.4,0.2,0.7,0.4,1s0.4,0.5,0.7,0.7
		s0.7,0.3,1.1,0.3s0.8-0.1,1.1-0.3c0.3-0.2,0.5-0.4,0.7-0.7s0.3-0.6,0.4-1c0.1-0.4,0.1-0.7,0.1-1.1c0-0.4,0-0.8-0.1-1.1
		c-0.1-0.4-0.2-0.7-0.4-1c-0.2-0.3-0.4-0.5-0.7-0.7c-0.3-0.2-0.7-0.3-1.1-0.3s-0.8,0.1-1.1,0.3s-0.5,0.4-0.7,0.7
		c-0.2,0.3-0.3,0.6-0.4,1c-0.1,0.4-0.1,0.8-0.1,1.1C103.5,502.9,103.5,503.2,103.6,503.6z"/>
	<path class="st0" d="M115.1,497.6v1.8h0c0.1-0.3,0.3-0.6,0.5-0.8c0.2-0.3,0.5-0.5,0.7-0.7c0.3-0.2,0.6-0.3,0.9-0.4
		c0.3-0.1,0.6-0.1,1-0.1c0.2,0,0.4,0,0.6,0.1v2.5c-0.1,0-0.3,0-0.4-0.1c-0.2,0-0.3,0-0.5,0c-0.5,0-0.9,0.1-1.2,0.2
		c-0.3,0.2-0.6,0.4-0.8,0.7c-0.2,0.3-0.4,0.6-0.4,1s-0.1,0.8-0.1,1.2v4.4h-2.7v-9.7H115.1z"/>
	<path class="st0" d="M132,493.9l5,13.4h-3l-1-3h-5l-1,3h-3l5-13.4H132z M132.1,502.1l-1.7-4.9h0l-1.7,4.9H132.1z"/>
	<path class="st0" d="M143.9,493.9c0.9,0,1.7,0.1,2.4,0.4s1.4,0.7,1.9,1.2c0.5,0.5,1,1.2,1.3,2.1c0.3,0.8,0.5,1.8,0.5,2.9
		c0,1-0.1,1.9-0.4,2.7c-0.2,0.8-0.6,1.5-1.1,2.1c-0.5,0.6-1.1,1.1-1.9,1.4c-0.8,0.3-1.6,0.5-2.7,0.5h-5.8v-13.4H143.9z M143.7,504.8
		c0.4,0,0.8-0.1,1.2-0.2c0.4-0.1,0.8-0.4,1.1-0.7c0.3-0.3,0.6-0.7,0.7-1.2c0.2-0.5,0.3-1.1,0.3-1.9c0-0.7-0.1-1.3-0.2-1.8
		c-0.1-0.5-0.3-1-0.6-1.4s-0.7-0.7-1.2-0.9c-0.5-0.2-1.1-0.3-1.8-0.3H141v8.4H143.7z"/>
	<path class="st0" d="M158.6,493.9l5,13.4h-3l-1-3h-5l-1,3h-3l5-13.4H158.6z M158.8,502.1l-1.7-4.9h0l-1.7,4.9H158.8z"/>
	<path class="st0" d="M174.1,493.9l3.1,9.2h0l3-9.2h4.1v13.4h-2.7v-9.5h0l-3.3,9.5H176l-3.3-9.4h0v9.4H170v-13.4H174.1z"/>
	<path class="st0" d="M189.5,505c0.4,0.4,1,0.6,1.7,0.6c0.5,0,1-0.1,1.4-0.4c0.4-0.3,0.6-0.6,0.7-0.9h2.3c-0.4,1.2-0.9,2-1.7,2.5
		c-0.8,0.5-1.7,0.7-2.8,0.7c-0.8,0-1.4-0.1-2.1-0.4c-0.6-0.2-1.1-0.6-1.6-1c-0.4-0.4-0.8-1-1-1.6c-0.2-0.6-0.3-1.3-0.3-2.1
		c0-0.7,0.1-1.4,0.4-2c0.2-0.6,0.6-1.2,1-1.6s1-0.8,1.6-1.1s1.3-0.4,2-0.4c0.8,0,1.5,0.2,2.2,0.5c0.6,0.3,1.1,0.7,1.5,1.3
		s0.7,1.1,0.9,1.8c0.2,0.7,0.2,1.4,0.2,2.2h-7C188.9,504,189.1,504.6,189.5,505z M192.5,499.9c-0.3-0.3-0.8-0.5-1.4-0.5
		c-0.4,0-0.8,0.1-1.1,0.2c-0.3,0.1-0.5,0.3-0.7,0.5c-0.2,0.2-0.3,0.4-0.4,0.7c-0.1,0.2-0.1,0.4-0.1,0.6h4.3
		C193,500.8,192.8,500.2,192.5,499.9z"/>
	<path class="st0" d="M200,497.6v1.3h0c0.3-0.5,0.8-0.9,1.3-1.2c0.5-0.3,1.1-0.4,1.7-0.4c0.6,0,1.2,0.1,1.7,0.4
		c0.5,0.2,0.9,0.7,1.2,1.3c0.3-0.4,0.7-0.8,1.2-1.1c0.5-0.3,1.1-0.5,1.7-0.5c0.5,0,1,0.1,1.4,0.2c0.4,0.1,0.8,0.3,1.1,0.6
		c0.3,0.3,0.6,0.6,0.7,1.1c0.2,0.4,0.3,1,0.3,1.6v6.5h-2.7v-5.5c0-0.3,0-0.6,0-0.9c0-0.3-0.1-0.5-0.2-0.7s-0.3-0.4-0.5-0.5
		c-0.2-0.1-0.5-0.2-0.9-0.2s-0.7,0.1-0.9,0.2s-0.4,0.3-0.5,0.6c-0.1,0.2-0.2,0.5-0.3,0.8s-0.1,0.6-0.1,0.9v5.4h-2.7v-5.4
		c0-0.3,0-0.6,0-0.9c0-0.3-0.1-0.5-0.2-0.8c-0.1-0.2-0.2-0.4-0.5-0.6s-0.5-0.2-1-0.2c-0.1,0-0.3,0-0.5,0.1c-0.2,0.1-0.4,0.2-0.6,0.3
		c-0.2,0.2-0.4,0.4-0.5,0.7c-0.1,0.3-0.2,0.7-0.2,1.1v5.6h-2.7v-9.7H200z"/>
	<path class="st0" d="M217,493.9v4.9h0c0.3-0.5,0.8-0.9,1.3-1.1c0.6-0.2,1.1-0.3,1.7-0.3c0.5,0,1,0.1,1.4,0.3
		c0.5,0.2,0.9,0.5,1.3,0.9c0.4,0.4,0.7,0.9,0.9,1.6c0.2,0.6,0.4,1.4,0.4,2.3c0,0.9-0.1,1.6-0.4,2.3c-0.2,0.6-0.5,1.2-0.9,1.6
		c-0.4,0.4-0.8,0.7-1.3,0.9c-0.5,0.2-1,0.3-1.4,0.3c-0.7,0-1.3-0.1-1.9-0.3c-0.6-0.2-1-0.6-1.3-1.1h0v1.2h-2.5v-13.4H217z
		 M221.3,501.3c-0.1-0.4-0.2-0.7-0.4-1c-0.2-0.3-0.4-0.5-0.7-0.7c-0.3-0.2-0.6-0.3-1-0.3c-0.4,0-0.7,0.1-1,0.3
		c-0.3,0.2-0.5,0.4-0.7,0.7c-0.2,0.3-0.3,0.6-0.4,1c-0.1,0.4-0.1,0.8-0.1,1.2c0,0.4,0,0.8,0.1,1.2c0.1,0.4,0.2,0.7,0.4,1
		c0.2,0.3,0.4,0.5,0.7,0.7c0.3,0.2,0.6,0.3,1,0.3c0.4,0,0.7-0.1,1-0.3c0.3-0.2,0.5-0.4,0.7-0.7c0.2-0.3,0.3-0.6,0.4-1
		c0.1-0.4,0.1-0.8,0.1-1.2C221.4,502.1,221.4,501.7,221.3,501.3z"/>
	<path class="st0" d="M228.6,505c0.4,0.4,1,0.6,1.7,0.6c0.5,0,1-0.1,1.4-0.4c0.4-0.3,0.6-0.6,0.7-0.9h2.3c-0.4,1.2-0.9,2-1.7,2.5
		c-0.8,0.5-1.7,0.7-2.8,0.7c-0.8,0-1.4-0.1-2.1-0.4c-0.6-0.2-1.1-0.6-1.6-1c-0.4-0.4-0.8-1-1-1.6c-0.2-0.6-0.3-1.3-0.3-2.1
		c0-0.7,0.1-1.4,0.4-2c0.2-0.6,0.6-1.2,1-1.6s1-0.8,1.6-1.1s1.3-0.4,2-0.4c0.8,0,1.5,0.2,2.2,0.5c0.6,0.3,1.1,0.7,1.5,1.3
		s0.7,1.1,0.9,1.8c0.2,0.7,0.2,1.4,0.2,2.2h-7C228,504,228.2,504.6,228.6,505z M231.6,499.9c-0.3-0.3-0.8-0.5-1.4-0.5
		c-0.4,0-0.8,0.1-1.1,0.2c-0.3,0.1-0.5,0.3-0.7,0.5c-0.2,0.2-0.3,0.4-0.4,0.7c-0.1,0.2-0.1,0.4-0.1,0.6h4.3
		C232.1,500.8,231.9,500.2,231.6,499.9z"/>
	<path class="st0" d="M239,497.6v1.8h0c0.1-0.3,0.3-0.6,0.5-0.8c0.2-0.3,0.5-0.5,0.7-0.7s0.6-0.3,0.9-0.4c0.3-0.1,0.6-0.1,1-0.1
		c0.2,0,0.4,0,0.6,0.1v2.5c-0.1,0-0.3,0-0.4-0.1c-0.2,0-0.3,0-0.5,0c-0.5,0-0.9,0.1-1.2,0.2s-0.6,0.4-0.8,0.7
		c-0.2,0.3-0.4,0.6-0.4,1s-0.1,0.8-0.1,1.2v4.4h-2.7v-9.7H239z"/>
	<path class="st0" d="M246,504.9c0.1,0.2,0.3,0.4,0.5,0.5c0.2,0.1,0.4,0.2,0.6,0.3s0.5,0.1,0.8,0.1c0.2,0,0.4,0,0.6-0.1
		c0.2,0,0.4-0.1,0.6-0.2c0.2-0.1,0.3-0.2,0.4-0.4c0.1-0.2,0.2-0.4,0.2-0.6c0-0.4-0.3-0.7-0.8-0.9c-0.5-0.2-1.3-0.4-2.2-0.6
		c-0.4-0.1-0.8-0.2-1.1-0.3c-0.4-0.1-0.7-0.3-1-0.5c-0.3-0.2-0.5-0.4-0.7-0.7s-0.3-0.7-0.3-1.1c0-0.6,0.1-1.1,0.4-1.5
		c0.2-0.4,0.6-0.7,1-0.9c0.4-0.2,0.8-0.4,1.3-0.5c0.5-0.1,1-0.1,1.5-0.1c0.5,0,1,0,1.5,0.1c0.5,0.1,0.9,0.3,1.3,0.5
		c0.4,0.2,0.7,0.6,1,0.9c0.3,0.4,0.4,0.9,0.5,1.5h-2.5c0-0.5-0.2-0.9-0.6-1c-0.3-0.2-0.8-0.3-1.2-0.3c-0.1,0-0.3,0-0.5,0
		s-0.3,0.1-0.5,0.1c-0.1,0.1-0.3,0.2-0.4,0.3s-0.1,0.3-0.1,0.5c0,0.2,0.1,0.4,0.3,0.6s0.4,0.3,0.7,0.4c0.3,0.1,0.6,0.2,1,0.3
		c0.4,0.1,0.7,0.2,1.1,0.2c0.4,0.1,0.8,0.2,1.1,0.3c0.4,0.1,0.7,0.3,1,0.5c0.3,0.2,0.5,0.5,0.7,0.8c0.2,0.3,0.3,0.7,0.3,1.1
		c0,0.6-0.1,1.2-0.4,1.6c-0.3,0.4-0.6,0.8-1,1c-0.4,0.3-0.9,0.4-1.4,0.6c-0.5,0.1-1.1,0.2-1.6,0.2c-0.6,0-1.1-0.1-1.6-0.2
		c-0.5-0.1-1-0.3-1.4-0.6c-0.4-0.3-0.8-0.6-1-1c-0.3-0.4-0.4-1-0.4-1.6h2.5C245.8,504.4,245.9,504.7,246,504.9z"/>
</g>
</svg>
