<?xml version="1.0" encoding="utf-8"?>
<!-- Generator: Adobe Illustrator 26.5.0, SVG Export Plug-In . SVG Version: 6.00 Build 0)  -->
<svg version="1.1" id="Layer_1" xmlns="http://www.w3.org/2000/svg" xmlns:xlink="http://www.w3.org/1999/xlink" x="0px" y="0px"
	 viewBox="0 0 160 600" style="enable-background:new 0 0 160 600;" xml:space="preserve">
<g>
	<path d="M10.3,200.7c0.2,0.4,0.5,0.7,0.8,0.9c0.3,0.2,0.7,0.4,1.2,0.5c0.4,0.1,0.9,0.2,1.4,0.2c0.3,0,0.7,0,1-0.1
		c0.4-0.1,0.7-0.2,1-0.3c0.3-0.2,0.6-0.4,0.8-0.6c0.2-0.3,0.3-0.6,0.3-1c0-0.4-0.1-0.8-0.4-1.1c-0.3-0.3-0.7-0.5-1.1-0.7
		s-1-0.3-1.6-0.5c-0.6-0.1-1.2-0.3-1.8-0.5c-0.6-0.2-1.2-0.3-1.8-0.6c-0.6-0.2-1.1-0.5-1.6-0.9c-0.5-0.4-0.8-0.8-1.1-1.3
		c-0.3-0.5-0.4-1.2-0.4-1.9c0-0.8,0.2-1.6,0.5-2.2c0.4-0.6,0.8-1.1,1.4-1.6c0.6-0.4,1.2-0.7,2-0.9c0.7-0.2,1.5-0.3,2.2-0.3
		c0.9,0,1.7,0.1,2.5,0.3s1.5,0.5,2.1,0.9c0.6,0.4,1.1,1,1.5,1.6c0.4,0.7,0.5,1.5,0.5,2.4h-3.5c0-0.5-0.1-0.9-0.3-1.2
		c-0.2-0.3-0.4-0.6-0.7-0.8c-0.3-0.2-0.6-0.3-1-0.4c-0.4-0.1-0.8-0.1-1.2-0.1c-0.3,0-0.6,0-0.9,0.1c-0.3,0.1-0.6,0.2-0.8,0.3
		c-0.2,0.2-0.4,0.3-0.6,0.6c-0.2,0.2-0.2,0.5-0.2,0.9c0,0.3,0.1,0.6,0.2,0.8c0.1,0.2,0.4,0.4,0.7,0.6c0.4,0.2,0.9,0.3,1.5,0.5
		c0.6,0.2,1.5,0.4,2.5,0.6c0.3,0.1,0.7,0.2,1.3,0.3c0.5,0.2,1.1,0.4,1.6,0.8c0.5,0.4,1,0.8,1.4,1.4c0.4,0.6,0.6,1.3,0.6,2.3
		c0,0.8-0.1,1.4-0.4,2.1c-0.3,0.6-0.7,1.2-1.3,1.7c-0.6,0.5-1.3,0.8-2.1,1.1c-0.9,0.3-1.8,0.4-3,0.4c-0.9,0-1.8-0.1-2.6-0.3
		s-1.6-0.6-2.3-1c-0.7-0.5-1.2-1.1-1.6-1.8c-0.4-0.7-0.6-1.6-0.6-2.6H10C10,199.8,10.1,200.3,10.3,200.7z"/>
	<path d="M29.9,204.7V203h-0.1c-0.4,0.7-1,1.2-1.6,1.5s-1.3,0.5-2,0.5c-0.9,0-1.6-0.1-2.2-0.3c-0.6-0.2-1-0.6-1.3-1
		c-0.3-0.4-0.5-0.9-0.7-1.5c-0.1-0.6-0.2-1.3-0.2-2v-7.3h3.3v6.7c0,1,0.2,1.7,0.5,2.2s0.9,0.7,1.6,0.7c0.9,0,1.5-0.3,1.9-0.8
		c0.4-0.5,0.6-1.4,0.6-2.6v-6.2H33v11.9H29.9z"/>
	<path d="M38.4,192.8v1.5h0c0.4-0.6,0.9-1.1,1.5-1.4c0.6-0.3,1.3-0.4,2-0.4c0.9,0,1.7,0.2,2.4,0.5c0.7,0.4,1.2,0.8,1.7,1.4
		c0.4,0.6,0.8,1.3,1,2c0.2,0.8,0.3,1.6,0.3,2.4c0,0.8-0.1,1.6-0.3,2.3c-0.2,0.7-0.5,1.4-1,2c-0.4,0.6-1,1-1.6,1.4
		c-0.7,0.3-1.4,0.5-2.3,0.5c-0.7,0-1.4-0.1-2-0.4c-0.6-0.3-1.1-0.7-1.5-1.3h0v5.6h-3.3v-16.1H38.4z M42.7,202.2
		c0.4-0.2,0.7-0.5,0.9-0.8c0.2-0.3,0.4-0.7,0.5-1.2s0.1-0.9,0.1-1.4c0-0.5-0.1-0.9-0.1-1.4s-0.3-0.9-0.5-1.2s-0.5-0.7-0.9-0.9
		s-0.8-0.3-1.3-0.3c-0.5,0-1,0.1-1.3,0.3s-0.7,0.5-0.9,0.9c-0.2,0.4-0.4,0.8-0.5,1.2c-0.1,0.5-0.1,0.9-0.1,1.4c0,0.5,0,0.9,0.1,1.4
		c0.1,0.5,0.3,0.9,0.5,1.2c0.2,0.3,0.5,0.6,0.9,0.8c0.4,0.2,0.8,0.3,1.3,0.3C41.9,202.6,42.3,202.5,42.7,202.2z"/>
	<path d="M52.3,192.8v1.5h0c0.4-0.6,0.9-1.1,1.5-1.4c0.6-0.3,1.3-0.4,2-0.4c0.9,0,1.7,0.2,2.4,0.5c0.7,0.4,1.2,0.8,1.7,1.4
		c0.4,0.6,0.8,1.3,1,2c0.2,0.8,0.3,1.6,0.3,2.4c0,0.8-0.1,1.6-0.3,2.3c-0.2,0.7-0.5,1.4-1,2c-0.4,0.6-1,1-1.6,1.4
		c-0.7,0.3-1.4,0.5-2.3,0.5c-0.7,0-1.4-0.1-2-0.4c-0.6-0.3-1.1-0.7-1.5-1.3h0v5.6h-3.3v-16.1H52.3z M56.5,202.2
		c0.4-0.2,0.7-0.5,0.9-0.8c0.2-0.3,0.4-0.7,0.5-1.2s0.1-0.9,0.1-1.4c0-0.5-0.1-0.9-0.1-1.4s-0.3-0.9-0.5-1.2s-0.5-0.7-0.9-0.9
		s-0.8-0.3-1.3-0.3c-0.5,0-1,0.1-1.3,0.3s-0.7,0.5-0.9,0.9c-0.2,0.4-0.4,0.8-0.5,1.2c-0.1,0.5-0.1,0.9-0.1,1.4c0,0.5,0,0.9,0.1,1.4
		c0.1,0.5,0.3,0.9,0.5,1.2c0.2,0.3,0.5,0.6,0.9,0.8c0.4,0.2,0.8,0.3,1.3,0.3C55.7,202.6,56.2,202.5,56.5,202.2z"/>
	<path d="M66.3,188.3v16.4h-3.3v-16.4H66.3z"/>
	<path d="M72.2,201.8c0.5,0.5,1.2,0.7,2.1,0.7c0.7,0,1.2-0.2,1.7-0.5s0.8-0.7,0.9-1h2.9c-0.5,1.4-1.2,2.4-2.1,3.1
		c-1,0.6-2.1,0.9-3.5,0.9c-0.9,0-1.8-0.1-2.5-0.4c-0.8-0.3-1.4-0.7-1.9-1.3c-0.5-0.6-0.9-1.2-1.2-2c-0.3-0.8-0.4-1.6-0.4-2.5
		c0-0.9,0.1-1.7,0.4-2.5c0.3-0.8,0.7-1.4,1.2-2c0.5-0.6,1.2-1,1.9-1.3c0.7-0.3,1.6-0.5,2.5-0.5c1,0,1.9,0.2,2.6,0.6s1.4,0.9,1.9,1.6
		c0.5,0.7,0.8,1.4,1,2.3c0.2,0.8,0.3,1.7,0.2,2.6h-8.6C71.4,200.6,71.7,201.4,72.2,201.8z M75.9,195.6c-0.4-0.4-1-0.6-1.8-0.6
		c-0.5,0-1,0.1-1.3,0.3s-0.6,0.4-0.8,0.7s-0.4,0.5-0.4,0.8c-0.1,0.3-0.1,0.6-0.1,0.8h5.3C76.5,196.7,76.3,196,75.9,195.6z"/>
	<path d="M84.9,192.8v1.6h0c0.4-0.6,0.9-1.1,1.6-1.4c0.6-0.3,1.3-0.5,2.1-0.5c0.8,0,1.4,0.1,2.1,0.4c0.6,0.3,1.1,0.8,1.4,1.5
		c0.4-0.5,0.8-1,1.4-1.4c0.6-0.4,1.3-0.6,2.2-0.6c0.6,0,1.2,0.1,1.7,0.2c0.5,0.2,1,0.4,1.4,0.7c0.4,0.3,0.7,0.8,0.9,1.3
		s0.3,1.2,0.3,2v8h-3.3V198c0-0.4,0-0.8,0-1.1c0-0.4-0.1-0.7-0.3-0.9c-0.1-0.3-0.3-0.5-0.6-0.6c-0.3-0.2-0.6-0.2-1.1-0.2
		s-0.8,0.1-1.1,0.3c-0.3,0.2-0.5,0.4-0.7,0.7c-0.2,0.3-0.3,0.6-0.3,1c-0.1,0.4-0.1,0.7-0.1,1.1v6.6h-3.3V198c0-0.4,0-0.7,0-1
		c0-0.3-0.1-0.7-0.2-1c-0.1-0.3-0.3-0.5-0.6-0.7s-0.7-0.3-1.2-0.3c-0.2,0-0.4,0-0.6,0.1c-0.3,0.1-0.5,0.2-0.7,0.4
		c-0.2,0.2-0.4,0.5-0.6,0.8c-0.2,0.4-0.3,0.8-0.3,1.4v6.9h-3.3v-11.9H84.9z"/>
	<path d="M105.8,201.8c0.5,0.5,1.2,0.7,2.1,0.7c0.7,0,1.2-0.2,1.7-0.5s0.8-0.7,0.9-1h2.9c-0.5,1.4-1.2,2.4-2.1,3.1
		c-1,0.6-2.1,0.9-3.5,0.9c-0.9,0-1.8-0.1-2.5-0.4c-0.8-0.3-1.4-0.7-1.9-1.3c-0.5-0.6-0.9-1.2-1.2-2c-0.3-0.8-0.4-1.6-0.4-2.5
		c0-0.9,0.1-1.7,0.4-2.5c0.3-0.8,0.7-1.4,1.2-2c0.5-0.6,1.2-1,1.9-1.3c0.7-0.3,1.6-0.5,2.5-0.5c1,0,1.9,0.2,2.6,0.6s1.4,0.9,1.9,1.6
		c0.5,0.7,0.8,1.4,1,2.3c0.2,0.8,0.3,1.7,0.2,2.6H105C105.1,200.6,105.3,201.4,105.8,201.8z M109.5,195.6c-0.4-0.4-1-0.6-1.8-0.6
		c-0.5,0-1,0.1-1.3,0.3s-0.6,0.4-0.8,0.7s-0.4,0.5-0.4,0.8c-0.1,0.3-0.1,0.6-0.1,0.8h5.3C110.2,196.7,109.9,196,109.5,195.6z"/>
	<path d="M118.4,192.8v1.7h0.1c0.4-0.7,1-1.2,1.6-1.5c0.7-0.3,1.3-0.5,2-0.5c0.9,0,1.6,0.1,2.2,0.4s1,0.6,1.3,1
		c0.3,0.4,0.5,0.9,0.7,1.5c0.1,0.6,0.2,1.3,0.2,2v7.3h-3.3V198c0-1-0.2-1.7-0.5-2.2s-0.9-0.7-1.6-0.7c-0.9,0-1.5,0.3-1.9,0.8
		c-0.4,0.5-0.6,1.4-0.6,2.6v6.2h-3.3v-11.9H118.4z"/>
	<path d="M135.3,192.8v2.2h-2.4v5.9c0,0.6,0.1,0.9,0.3,1.1c0.2,0.2,0.6,0.3,1.1,0.3c0.2,0,0.4,0,0.5,0c0.2,0,0.3,0,0.5-0.1v2.5
		c-0.3,0-0.6,0.1-0.9,0.1c-0.3,0-0.7,0-1,0c-0.5,0-1,0-1.4-0.1c-0.5-0.1-0.9-0.2-1.2-0.4c-0.3-0.2-0.6-0.5-0.8-0.9
		c-0.2-0.4-0.3-0.9-0.3-1.4v-7h-2v-2.2h2v-3.6h3.3v3.6H135.3z"/>
	<path d="M136.5,196.5c0-0.8,0.2-1.4,0.6-1.9s0.8-0.9,1.3-1.2s1.1-0.5,1.8-0.7c0.7-0.1,1.3-0.2,2-0.2c0.6,0,1.2,0,1.8,0.1
		c0.6,0.1,1.2,0.2,1.7,0.5c0.5,0.2,0.9,0.6,1.2,1c0.3,0.4,0.5,1,0.5,1.7v6.2c0,0.5,0,1.1,0.1,1.5s0.2,0.9,0.3,1.1h-3.3
		c-0.1-0.2-0.1-0.4-0.1-0.6c0-0.2-0.1-0.4-0.1-0.6c-0.5,0.5-1.1,0.9-1.8,1.1c-0.7,0.2-1.4,0.3-2.2,0.3c-0.6,0-1.1-0.1-1.6-0.2
		c-0.5-0.1-0.9-0.4-1.3-0.6c-0.4-0.3-0.7-0.7-0.9-1.1s-0.3-1-0.3-1.6c0-0.7,0.1-1.2,0.4-1.7c0.2-0.4,0.5-0.8,0.9-1
		c0.4-0.3,0.8-0.5,1.3-0.6c0.5-0.1,1-0.2,1.5-0.3c0.5-0.1,1-0.1,1.4-0.2s0.9-0.1,1.3-0.2c0.4-0.1,0.7-0.2,0.9-0.4s0.3-0.4,0.3-0.8
		c0-0.4-0.1-0.6-0.2-0.8s-0.3-0.4-0.5-0.5c-0.2-0.1-0.4-0.2-0.7-0.2c-0.3,0-0.5-0.1-0.8-0.1c-0.6,0-1.2,0.1-1.5,0.4
		c-0.4,0.3-0.6,0.7-0.6,1.4H136.5z M144,198.9c-0.1,0.1-0.3,0.2-0.5,0.3c-0.2,0.1-0.4,0.1-0.7,0.2c-0.2,0-0.5,0.1-0.7,0.1
		c-0.3,0-0.5,0.1-0.8,0.1c-0.2,0-0.5,0.1-0.7,0.2c-0.2,0.1-0.4,0.2-0.6,0.3c-0.2,0.1-0.3,0.3-0.4,0.5c-0.1,0.2-0.2,0.5-0.2,0.8
		c0,0.3,0.1,0.5,0.2,0.7c0.1,0.2,0.3,0.4,0.4,0.5c0.2,0.1,0.4,0.2,0.6,0.2s0.5,0.1,0.8,0.1c0.6,0,1.1-0.1,1.5-0.3
		c0.4-0.2,0.6-0.5,0.8-0.8c0.2-0.3,0.3-0.6,0.3-0.9c0-0.3,0.1-0.6,0.1-0.7V198.9z"/>
	<path d="M153,188.3v16.4h-3.3v-16.4H153z"/>
</g>
<g>
	<path d="M44.2,215.3l3.8,11.3h0l3.6-11.3h5.1v16.4h-3.4v-11.6h0l-4,11.6h-2.8l-4-11.5h0v11.5h-3.4v-16.4H44.2z"/>
	<path d="M62.9,228.9c0.5,0.5,1.2,0.7,2.1,0.7c0.7,0,1.2-0.2,1.7-0.5c0.5-0.3,0.8-0.7,0.9-1h2.9c-0.5,1.4-1.2,2.4-2.1,3.1
		c-1,0.6-2.1,0.9-3.4,0.9c-0.9,0-1.8-0.1-2.5-0.4c-0.8-0.3-1.4-0.7-1.9-1.3c-0.5-0.6-0.9-1.2-1.2-2s-0.4-1.6-0.4-2.5
		c0-0.9,0.1-1.7,0.4-2.5c0.3-0.8,0.7-1.4,1.2-2c0.5-0.6,1.2-1,1.9-1.3c0.7-0.3,1.6-0.5,2.5-0.5c1,0,1.9,0.2,2.6,0.6
		c0.8,0.4,1.4,0.9,1.9,1.6s0.8,1.4,1,2.3c0.2,0.8,0.3,1.7,0.2,2.6h-8.6C62.1,227.6,62.4,228.4,62.9,228.9z M66.6,222.6
		c-0.4-0.4-1-0.6-1.8-0.6c-0.5,0-1,0.1-1.3,0.3c-0.3,0.2-0.6,0.4-0.8,0.7s-0.4,0.5-0.4,0.8c-0.1,0.3-0.1,0.6-0.1,0.8h5.3
		C67.3,223.7,67,223,66.6,222.6z"/>
	<path d="M80.8,230.2c-0.4,0.6-0.9,1.1-1.5,1.4S78,232,77.2,232c-0.9,0-1.7-0.2-2.3-0.5c-0.7-0.3-1.2-0.8-1.7-1.4
		c-0.4-0.6-0.8-1.3-1-2c-0.2-0.8-0.3-1.6-0.3-2.4c0-0.8,0.1-1.6,0.3-2.3s0.6-1.4,1-2c0.4-0.6,1-1,1.6-1.4c0.7-0.3,1.4-0.5,2.3-0.5
		c0.7,0,1.4,0.1,2,0.4c0.6,0.3,1.1,0.7,1.5,1.3h0v-6H84v16.4h-3.1L80.8,230.2L80.8,230.2z M80.7,224.3c-0.1-0.5-0.2-0.9-0.5-1.2
		c-0.2-0.3-0.5-0.6-0.9-0.8c-0.4-0.2-0.8-0.3-1.3-0.3c-0.5,0-1,0.1-1.4,0.3c-0.4,0.2-0.7,0.5-0.9,0.9c-0.2,0.4-0.4,0.8-0.5,1.2
		c-0.1,0.5-0.1,0.9-0.1,1.4c0,0.5,0.1,0.9,0.2,1.4s0.3,0.9,0.5,1.2c0.2,0.4,0.5,0.7,0.9,0.9c0.4,0.2,0.8,0.3,1.3,0.3
		c0.5,0,1-0.1,1.3-0.3s0.6-0.5,0.9-0.9c0.2-0.4,0.4-0.8,0.5-1.2s0.1-0.9,0.1-1.4S80.8,224.8,80.7,224.3z"/>
	<path d="M86.3,218v-2.7h3.3v2.7H86.3z M89.6,219.8v11.9h-3.3v-11.9H89.6z"/>
	<path d="M97.6,222c-0.5,0-1,0.1-1.3,0.4c-0.4,0.2-0.6,0.5-0.9,0.9c-0.2,0.4-0.4,0.8-0.5,1.2c-0.1,0.5-0.1,0.9-0.1,1.3
		c0,0.4,0,0.9,0.1,1.3c0.1,0.4,0.2,0.8,0.4,1.2c0.2,0.4,0.5,0.7,0.8,0.9c0.4,0.2,0.8,0.3,1.3,0.3c0.8,0,1.4-0.2,1.8-0.7
		s0.7-1,0.8-1.8h3.2c-0.2,1.6-0.8,2.8-1.8,3.6c-1,0.8-2.3,1.2-3.9,1.2c-0.9,0-1.7-0.1-2.4-0.4c-0.7-0.3-1.4-0.7-1.9-1.3
		c-0.5-0.5-0.9-1.2-1.2-1.9c-0.3-0.7-0.4-1.6-0.4-2.4c0-0.9,0.1-1.8,0.4-2.6c0.3-0.8,0.7-1.5,1.2-2c0.5-0.6,1.2-1,1.9-1.3
		c0.8-0.3,1.6-0.5,2.6-0.5c0.7,0,1.4,0.1,2,0.3s1.2,0.5,1.7,0.8c0.5,0.4,0.9,0.8,1.3,1.4c0.3,0.6,0.5,1.2,0.6,2H100
		C99.8,222.6,99,222,97.6,222z"/>
	<path d="M104.8,223.5c0-0.8,0.2-1.4,0.6-1.9s0.8-0.9,1.3-1.2s1.1-0.5,1.8-0.7c0.7-0.1,1.3-0.2,2-0.2c0.6,0,1.2,0,1.8,0.1
		c0.6,0.1,1.2,0.2,1.7,0.5c0.5,0.2,0.9,0.6,1.2,1c0.3,0.4,0.5,1,0.5,1.7v6.2c0,0.5,0,1.1,0.1,1.5s0.2,0.9,0.3,1.1h-3.3
		c-0.1-0.2-0.1-0.4-0.1-0.6c0-0.2-0.1-0.4-0.1-0.6c-0.5,0.5-1.1,0.9-1.8,1.1c-0.7,0.2-1.4,0.3-2.2,0.3c-0.6,0-1.1-0.1-1.6-0.2
		c-0.5-0.1-0.9-0.4-1.3-0.6c-0.4-0.3-0.7-0.7-0.9-1.1s-0.3-1-0.3-1.6c0-0.7,0.1-1.2,0.4-1.7c0.2-0.4,0.5-0.8,0.9-1
		c0.4-0.3,0.8-0.5,1.3-0.6c0.5-0.1,1-0.2,1.5-0.3c0.5-0.1,1-0.1,1.4-0.2s0.9-0.1,1.3-0.2c0.4-0.1,0.7-0.2,0.9-0.4s0.3-0.4,0.3-0.8
		c0-0.4-0.1-0.6-0.2-0.8s-0.3-0.4-0.5-0.5c-0.2-0.1-0.4-0.2-0.7-0.2c-0.3,0-0.5-0.1-0.8-0.1c-0.6,0-1.2,0.1-1.5,0.4
		c-0.4,0.3-0.6,0.7-0.6,1.4H104.8z M112.4,225.9c-0.1,0.1-0.3,0.2-0.5,0.3c-0.2,0.1-0.4,0.1-0.7,0.2c-0.2,0-0.5,0.1-0.7,0.1
		c-0.3,0-0.5,0.1-0.8,0.1c-0.2,0-0.5,0.1-0.7,0.2c-0.2,0.1-0.4,0.2-0.6,0.3c-0.2,0.1-0.3,0.3-0.4,0.5c-0.1,0.2-0.2,0.5-0.2,0.8
		c0,0.3,0.1,0.5,0.2,0.7c0.1,0.2,0.3,0.4,0.4,0.5c0.2,0.1,0.4,0.2,0.6,0.2s0.5,0.1,0.8,0.1c0.6,0,1.1-0.1,1.5-0.3
		c0.4-0.2,0.6-0.5,0.8-0.8c0.2-0.3,0.3-0.6,0.3-0.9c0-0.3,0.1-0.6,0.1-0.7V225.9z"/>
	<path d="M121.3,215.3v16.4H118v-16.4H121.3z"/>
</g>
<g>
	<path d="M40.1,246.7c-0.2-0.3-0.5-0.6-0.8-0.9c-0.3-0.3-0.7-0.5-1.1-0.6c-0.4-0.1-0.8-0.2-1.3-0.2c-0.8,0-1.5,0.2-2.1,0.5
		c-0.6,0.3-1,0.7-1.4,1.3c-0.4,0.5-0.6,1.1-0.8,1.8s-0.2,1.4-0.2,2.1c0,0.7,0.1,1.4,0.2,2s0.4,1.2,0.8,1.8c0.4,0.5,0.8,0.9,1.4,1.3
		c0.6,0.3,1.3,0.5,2.1,0.5c1.1,0,2-0.3,2.6-1c0.6-0.7,1-1.6,1.1-2.7h3.5c-0.1,1-0.3,2-0.7,2.8c-0.4,0.8-0.9,1.5-1.5,2.1
		c-0.6,0.6-1.4,1-2.2,1.3c-0.8,0.3-1.8,0.5-2.8,0.5c-1.3,0-2.4-0.2-3.4-0.7c-1-0.4-1.9-1-2.5-1.8s-1.2-1.7-1.6-2.7
		c-0.4-1-0.6-2.2-0.6-3.3c0-1.2,0.2-2.4,0.6-3.4c0.4-1,0.9-2,1.6-2.7c0.7-0.8,1.5-1.4,2.5-1.8c1-0.4,2.1-0.7,3.4-0.7
		c0.9,0,1.8,0.1,2.6,0.4c0.8,0.3,1.5,0.6,2.2,1.1c0.6,0.5,1.2,1.1,1.6,1.9c0.4,0.7,0.7,1.6,0.8,2.5h-3.5
		C40.5,247.4,40.3,247,40.1,246.7z"/>
	<path d="M46.1,250.2c0.3-0.8,0.7-1.4,1.2-2c0.5-0.5,1.2-1,1.9-1.3c0.8-0.3,1.6-0.4,2.5-0.4c0.9,0,1.8,0.1,2.5,0.4
		c0.8,0.3,1.4,0.7,1.9,1.3c0.5,0.5,1,1.2,1.2,2c0.3,0.8,0.4,1.6,0.4,2.6c0,1-0.1,1.8-0.4,2.6c-0.3,0.8-0.7,1.4-1.2,2
		c-0.5,0.5-1.2,1-1.9,1.3c-0.8,0.3-1.6,0.4-2.5,0.4c-0.9,0-1.8-0.1-2.5-0.4c-0.8-0.3-1.4-0.7-1.9-1.3c-0.5-0.5-1-1.2-1.2-2
		c-0.3-0.8-0.4-1.6-0.4-2.6C45.7,251.8,45.8,251,46.1,250.2z M49.1,254.2c0.1,0.5,0.2,0.9,0.5,1.2c0.2,0.4,0.5,0.6,0.9,0.9
		c0.4,0.2,0.8,0.3,1.4,0.3c0.6,0,1-0.1,1.4-0.3c0.4-0.2,0.7-0.5,0.9-0.9c0.2-0.4,0.4-0.8,0.5-1.2c0.1-0.5,0.1-0.9,0.1-1.4
		c0-0.5,0-0.9-0.1-1.4c-0.1-0.5-0.2-0.9-0.5-1.2c-0.2-0.4-0.5-0.6-0.9-0.9c-0.4-0.2-0.8-0.3-1.4-0.3c-0.6,0-1,0.1-1.4,0.3
		c-0.4,0.2-0.7,0.5-0.9,0.9c-0.2,0.4-0.4,0.8-0.5,1.2c-0.1,0.5-0.1,0.9-0.1,1.4C49,253.2,49,253.7,49.1,254.2z"/>
	<path d="M62.9,258.7l-4.1-11.9h3.4l2.5,8.1h0l2.5-8.1h3.2l-4,11.9H62.9z"/>
	<path d="M75.2,255.9c0.5,0.5,1.2,0.7,2.1,0.7c0.7,0,1.2-0.2,1.7-0.5s0.8-0.7,0.9-1h2.9c-0.5,1.4-1.2,2.4-2.1,3.1
		c-1,0.6-2.1,0.9-3.5,0.9c-0.9,0-1.8-0.1-2.5-0.4c-0.8-0.3-1.4-0.7-1.9-1.3c-0.5-0.6-0.9-1.2-1.2-2c-0.3-0.8-0.4-1.6-0.4-2.5
		c0-0.9,0.1-1.7,0.4-2.5c0.3-0.8,0.7-1.4,1.2-2c0.5-0.6,1.2-1,1.9-1.3c0.7-0.3,1.6-0.5,2.5-0.5c1,0,1.9,0.2,2.6,0.6s1.4,0.9,1.9,1.6
		c0.5,0.7,0.8,1.4,1,2.3c0.2,0.8,0.3,1.7,0.2,2.6h-8.6C74.4,254.6,74.7,255.4,75.2,255.9z M78.9,249.6c-0.4-0.4-1-0.6-1.8-0.6
		c-0.5,0-1,0.1-1.3,0.3s-0.6,0.4-0.8,0.7s-0.4,0.5-0.4,0.8c-0.1,0.3-0.1,0.6-0.1,0.8h5.3C79.5,250.7,79.2,250,78.9,249.6z"/>
	<path d="M87.8,246.8v2.2h0c0.2-0.4,0.4-0.7,0.6-1c0.3-0.3,0.6-0.6,0.9-0.8c0.3-0.2,0.7-0.4,1.1-0.5c0.4-0.1,0.8-0.2,1.2-0.2
		c0.2,0,0.5,0,0.7,0.1v3c-0.2,0-0.3-0.1-0.6-0.1s-0.4,0-0.6,0c-0.6,0-1.1,0.1-1.5,0.3s-0.7,0.5-1,0.8c-0.3,0.3-0.4,0.7-0.5,1.2
		s-0.2,1-0.2,1.5v5.4h-3.3v-11.9H87.8z"/>
	<path d="M93.3,250.5c0-0.8,0.2-1.4,0.6-1.9s0.8-0.9,1.3-1.2s1.1-0.5,1.8-0.7c0.7-0.1,1.3-0.2,2-0.2c0.6,0,1.2,0,1.8,0.1
		c0.6,0.1,1.2,0.2,1.7,0.5c0.5,0.2,0.9,0.6,1.2,1c0.3,0.4,0.5,1,0.5,1.7v6.2c0,0.5,0,1.1,0.1,1.5s0.2,0.9,0.3,1.1h-3.3
		c-0.1-0.2-0.1-0.4-0.1-0.6c0-0.2-0.1-0.4-0.1-0.6c-0.5,0.5-1.1,0.9-1.8,1.1c-0.7,0.2-1.4,0.3-2.2,0.3c-0.6,0-1.1-0.1-1.6-0.2
		c-0.5-0.1-0.9-0.4-1.3-0.6c-0.4-0.3-0.7-0.7-0.9-1.1s-0.3-1-0.3-1.6c0-0.7,0.1-1.2,0.4-1.7c0.2-0.4,0.5-0.8,0.9-1
		c0.4-0.3,0.8-0.5,1.3-0.6c0.5-0.1,1-0.2,1.5-0.3c0.5-0.1,1-0.1,1.4-0.2s0.9-0.1,1.3-0.2c0.4-0.1,0.7-0.2,0.9-0.4s0.3-0.4,0.3-0.8
		c0-0.4-0.1-0.6-0.2-0.8s-0.3-0.4-0.5-0.5c-0.2-0.1-0.4-0.2-0.7-0.2c-0.3,0-0.5-0.1-0.8-0.1c-0.6,0-1.2,0.1-1.5,0.4
		c-0.4,0.3-0.6,0.7-0.6,1.4H93.3z M100.8,252.9c-0.1,0.1-0.3,0.2-0.5,0.3c-0.2,0.1-0.4,0.1-0.7,0.2c-0.2,0-0.5,0.1-0.7,0.1
		c-0.3,0-0.5,0.1-0.8,0.1c-0.2,0-0.5,0.1-0.7,0.2c-0.2,0.1-0.4,0.2-0.6,0.3c-0.2,0.1-0.3,0.3-0.4,0.5c-0.1,0.2-0.2,0.5-0.2,0.8
		c0,0.3,0.1,0.5,0.2,0.7c0.1,0.2,0.3,0.4,0.4,0.5c0.2,0.1,0.4,0.2,0.6,0.2s0.5,0.1,0.8,0.1c0.6,0,1.1-0.1,1.5-0.3
		c0.4-0.2,0.6-0.5,0.8-0.8c0.2-0.3,0.3-0.6,0.3-0.9c0-0.3,0.1-0.6,0.1-0.7V252.9z"/>
	<path d="M117.6,259.6c-0.1,0.6-0.4,1.2-0.8,1.7c-0.4,0.5-1,1-1.9,1.3c-0.8,0.4-1.9,0.6-3.3,0.6c-0.6,0-1.2-0.1-1.8-0.2
		c-0.6-0.1-1.2-0.4-1.7-0.7s-0.9-0.7-1.2-1.2c-0.3-0.5-0.5-1.1-0.6-1.7h3.2c0.2,0.6,0.5,1,0.9,1.3c0.4,0.2,1,0.4,1.5,0.4
		c0.9,0,1.6-0.3,2-0.8c0.4-0.6,0.6-1.2,0.6-2.1v-1.6h0c-0.4,0.6-0.9,1.1-1.5,1.4c-0.7,0.3-1.3,0.4-2.1,0.4c-0.9,0-1.7-0.2-2.3-0.5
		c-0.6-0.3-1.2-0.7-1.6-1.3c-0.4-0.5-0.7-1.2-0.9-1.9c-0.2-0.7-0.3-1.5-0.3-2.3c0-0.8,0.1-1.5,0.3-2.2c0.2-0.7,0.5-1.3,1-1.9
		c0.4-0.5,1-1,1.6-1.3c0.6-0.3,1.4-0.5,2.2-0.5c0.8,0,1.5,0.1,2.1,0.4c0.6,0.3,1.1,0.8,1.5,1.5h0v-1.6h3.1v11.1
		C117.8,258.4,117.8,259,117.6,259.6z M113.2,255.6c0.4-0.2,0.6-0.4,0.9-0.7c0.2-0.3,0.4-0.7,0.5-1c0.1-0.4,0.2-0.8,0.2-1.2
		c0-0.5,0-1-0.1-1.4c-0.1-0.4-0.2-0.8-0.5-1.2c-0.2-0.3-0.5-0.6-0.9-0.8c-0.4-0.2-0.8-0.3-1.3-0.3c-0.5,0-0.9,0.1-1.2,0.3
		c-0.3,0.2-0.6,0.4-0.8,0.7c-0.2,0.3-0.4,0.7-0.5,1.1s-0.1,0.8-0.1,1.3c0,0.4,0,0.9,0.1,1.3c0.1,0.4,0.2,0.8,0.4,1.1
		c0.2,0.3,0.5,0.6,0.8,0.8c0.3,0.2,0.8,0.3,1.3,0.3C112.4,255.9,112.8,255.8,113.2,255.6z"/>
	<path d="M123.7,255.9c0.5,0.5,1.2,0.7,2.1,0.7c0.7,0,1.2-0.2,1.7-0.5s0.8-0.7,0.9-1h2.9c-0.5,1.4-1.2,2.4-2.1,3.1
		c-1,0.6-2.1,0.9-3.5,0.9c-0.9,0-1.8-0.1-2.5-0.4c-0.8-0.3-1.4-0.7-1.9-1.3c-0.5-0.6-0.9-1.2-1.2-2c-0.3-0.8-0.4-1.6-0.4-2.5
		c0-0.9,0.1-1.7,0.4-2.5c0.3-0.8,0.7-1.4,1.2-2c0.5-0.6,1.2-1,1.9-1.3c0.7-0.3,1.6-0.5,2.5-0.5c1,0,1.9,0.2,2.6,0.6s1.4,0.9,1.9,1.6
		c0.5,0.7,0.8,1.4,1,2.3c0.2,0.8,0.3,1.7,0.2,2.6h-8.6C123,254.6,123.2,255.4,123.7,255.9z M127.4,249.6c-0.4-0.4-1-0.6-1.8-0.6
		c-0.5,0-1,0.1-1.3,0.3s-0.6,0.4-0.8,0.7s-0.4,0.5-0.4,0.8c-0.1,0.3-0.1,0.6-0.1,0.8h5.3C128.1,250.7,127.8,250,127.4,249.6z"/>
</g>
</svg>
