<?xml version="1.0" encoding="utf-8"?>
<!-- Generator: Adobe Illustrator 26.5.0, SVG Export Plug-In . SVG Version: 6.00 Build 0)  -->
<svg version="1.1" baseProfile="tiny" id="Layer_1" xmlns="http://www.w3.org/2000/svg" xmlns:xlink="http://www.w3.org/1999/xlink"
	 x="0px" y="0px" viewBox="0 0 160 600" overflow="visible" xml:space="preserve">
<g>
	<path d="M17.5,191.9c-0.2-0.3-0.5-0.6-0.8-0.9c-0.3-0.3-0.7-0.5-1.1-0.6c-0.4-0.1-0.8-0.2-1.3-0.2c-0.8,0-1.5,0.2-2.1,0.5
		c-0.6,0.3-1,0.7-1.4,1.3c-0.4,0.5-0.6,1.1-0.8,1.8s-0.2,1.4-0.2,2.1c0,0.7,0.1,1.4,0.2,2s0.4,1.2,0.8,1.8c0.4,0.5,0.8,0.9,1.4,1.3
		c0.6,0.3,1.3,0.5,2.1,0.5c1.1,0,2-0.3,2.6-1c0.6-0.7,1-1.6,1.1-2.7h3.5c-0.1,1-0.3,2-0.7,2.8c-0.4,0.8-0.9,1.5-1.5,2.1
		c-0.6,0.6-1.4,1-2.2,1.3c-0.8,0.3-1.8,0.5-2.8,0.5c-1.3,0-2.4-0.2-3.4-0.7c-1-0.4-1.9-1-2.5-1.8s-1.2-1.7-1.6-2.7
		c-0.4-1-0.6-2.2-0.6-3.3c0-1.2,0.2-2.4,0.6-3.4c0.4-1,0.9-2,1.6-2.7c0.7-0.8,1.5-1.4,2.5-1.8c1-0.4,2.1-0.7,3.4-0.7
		c0.9,0,1.8,0.1,2.6,0.4c0.8,0.3,1.5,0.6,2.2,1.1c0.6,0.5,1.2,1.1,1.6,1.9c0.4,0.7,0.7,1.6,0.8,2.5h-3.5
		C17.9,192.6,17.7,192.2,17.5,191.9z"/>
	<path d="M26.4,192v2.2h0c0.2-0.4,0.4-0.7,0.6-1c0.3-0.3,0.6-0.6,0.9-0.8c0.3-0.2,0.7-0.4,1.1-0.5c0.4-0.1,0.8-0.2,1.2-0.2
		c0.2,0,0.5,0,0.7,0.1v3c-0.2,0-0.3-0.1-0.6-0.1c-0.2,0-0.4,0-0.6,0c-0.6,0-1.1,0.1-1.5,0.3s-0.7,0.5-1,0.8s-0.4,0.7-0.5,1.2
		c-0.1,0.5-0.2,1-0.2,1.5v5.4h-3.3V192H26.4z"/>
	<path d="M31.9,190.2v-2.7h3.3v2.7H31.9z M35.1,192v11.9h-3.3V192H35.1z"/>
	<path d="M43.8,192v2.2h-2.4v5.9c0,0.6,0.1,0.9,0.3,1.1c0.2,0.2,0.6,0.3,1.1,0.3c0.2,0,0.4,0,0.5,0c0.2,0,0.3,0,0.5-0.1v2.5
		c-0.3,0-0.6,0.1-0.9,0.1c-0.3,0-0.7,0-1,0c-0.5,0-1,0-1.4-0.1c-0.5-0.1-0.9-0.2-1.2-0.4c-0.3-0.2-0.6-0.5-0.8-0.9
		c-0.2-0.4-0.3-0.9-0.3-1.4v-7h-2V192h2v-3.6h3.3v3.6H43.8z"/>
	<path d="M45,190.2v-2.7h3.3v2.7H45z M48.3,192v11.9H45V192H48.3z"/>
	<path d="M56.1,194.2c-0.5,0-1,0.1-1.3,0.4c-0.4,0.2-0.6,0.5-0.9,0.9c-0.2,0.4-0.4,0.8-0.5,1.2c-0.1,0.5-0.1,0.9-0.1,1.3
		c0,0.4,0,0.9,0.1,1.3c0.1,0.4,0.2,0.8,0.4,1.2c0.2,0.4,0.5,0.7,0.8,0.9c0.4,0.2,0.8,0.3,1.3,0.3c0.8,0,1.4-0.2,1.8-0.7
		c0.4-0.4,0.7-1,0.8-1.8h3.2c-0.2,1.6-0.8,2.8-1.8,3.6c-1,0.8-2.3,1.2-3.9,1.2c-0.9,0-1.7-0.1-2.4-0.4c-0.7-0.3-1.4-0.7-1.9-1.3
		c-0.5-0.5-0.9-1.2-1.2-1.9c-0.3-0.7-0.4-1.6-0.4-2.4c0-0.9,0.1-1.8,0.4-2.6c0.3-0.8,0.7-1.5,1.2-2c0.5-0.6,1.2-1,1.9-1.3
		c0.8-0.3,1.6-0.5,2.6-0.5c0.7,0,1.4,0.1,2,0.3c0.7,0.2,1.2,0.5,1.7,0.8c0.5,0.4,0.9,0.8,1.3,1.4c0.3,0.6,0.5,1.2,0.6,2h-3.2
		C58.3,194.9,57.5,194.2,56.1,194.2z"/>
	<path d="M63.1,195.7c0-0.8,0.2-1.4,0.6-1.9s0.8-0.9,1.3-1.2s1.1-0.5,1.8-0.7c0.7-0.1,1.3-0.2,2-0.2c0.6,0,1.2,0,1.8,0.1
		c0.6,0.1,1.2,0.2,1.7,0.5c0.5,0.2,0.9,0.6,1.2,1c0.3,0.4,0.5,1,0.5,1.7v6.2c0,0.5,0,1.1,0.1,1.5s0.2,0.9,0.3,1.1H71
		c-0.1-0.2-0.1-0.4-0.1-0.6c0-0.2-0.1-0.4-0.1-0.6c-0.5,0.5-1.1,0.9-1.8,1.1c-0.7,0.2-1.4,0.3-2.2,0.3c-0.6,0-1.1-0.1-1.6-0.2
		c-0.5-0.1-0.9-0.4-1.3-0.6c-0.4-0.3-0.7-0.7-0.9-1.1s-0.3-1-0.3-1.6c0-0.7,0.1-1.2,0.4-1.7c0.2-0.4,0.5-0.8,0.9-1
		c0.4-0.3,0.8-0.5,1.3-0.6c0.5-0.1,1-0.2,1.5-0.3c0.5-0.1,1-0.1,1.4-0.2s0.9-0.1,1.3-0.2c0.4-0.1,0.7-0.2,0.9-0.4s0.3-0.4,0.3-0.8
		c0-0.4-0.1-0.6-0.2-0.8s-0.3-0.4-0.5-0.5c-0.2-0.1-0.4-0.2-0.7-0.2c-0.3,0-0.5-0.1-0.8-0.1c-0.6,0-1.2,0.1-1.5,0.4
		c-0.4,0.3-0.6,0.7-0.6,1.4H63.1z M70.6,198.1c-0.1,0.1-0.3,0.2-0.5,0.3c-0.2,0.1-0.4,0.1-0.7,0.2c-0.2,0-0.5,0.1-0.7,0.1
		c-0.3,0-0.5,0.1-0.8,0.1c-0.2,0-0.5,0.1-0.7,0.2c-0.2,0.1-0.4,0.2-0.6,0.3c-0.2,0.1-0.3,0.3-0.4,0.5c-0.1,0.2-0.2,0.5-0.2,0.8
		c0,0.3,0.1,0.5,0.2,0.7c0.1,0.2,0.3,0.4,0.4,0.5c0.2,0.1,0.4,0.2,0.6,0.2s0.5,0.1,0.8,0.1c0.6,0,1.1-0.1,1.5-0.3
		c0.4-0.2,0.6-0.5,0.8-0.8c0.2-0.3,0.3-0.6,0.3-0.9c0-0.3,0.1-0.6,0.1-0.7V198.1z"/>
	<path d="M79.3,187.5v16.4H76v-16.4H79.3z"/>
	<path d="M91.3,187.5v16.4h-3.6v-16.4H91.3z"/>
	<path d="M97.1,187.5v16.4h-3.3v-16.4H97.1z"/>
	<path d="M102.6,187.5v16.4h-3.3v-16.4H102.6z"/>
	<path d="M107.8,192v1.7h0.1c0.4-0.7,1-1.2,1.6-1.5c0.7-0.3,1.3-0.5,2-0.5c0.9,0,1.6,0.1,2.2,0.4s1,0.6,1.3,1
		c0.3,0.4,0.5,0.9,0.7,1.5c0.1,0.6,0.2,1.3,0.2,2v7.3h-3.3v-6.7c0-1-0.2-1.7-0.5-2.2s-0.9-0.7-1.6-0.7c-0.9,0-1.5,0.3-1.9,0.8
		c-0.4,0.5-0.6,1.4-0.6,2.6v6.2h-3.3V192H107.8z"/>
	<path d="M121.4,201.1c0.5,0.5,1.2,0.7,2.1,0.7c0.7,0,1.2-0.2,1.7-0.5s0.8-0.7,0.9-1h2.9c-0.5,1.4-1.2,2.4-2.1,3.1
		c-1,0.6-2.1,0.9-3.5,0.9c-0.9,0-1.8-0.1-2.5-0.4c-0.8-0.3-1.4-0.7-1.9-1.3c-0.5-0.6-0.9-1.2-1.2-2c-0.3-0.8-0.4-1.6-0.4-2.5
		c0-0.9,0.1-1.7,0.4-2.5c0.3-0.8,0.7-1.4,1.2-2c0.5-0.6,1.2-1,1.9-1.3c0.7-0.3,1.6-0.5,2.5-0.5c1,0,1.9,0.2,2.6,0.6s1.4,0.9,1.9,1.6
		c0.5,0.7,0.8,1.4,1,2.3c0.2,0.8,0.3,1.7,0.2,2.6h-8.6C120.7,199.8,120.9,200.6,121.4,201.1z M125.1,194.8c-0.4-0.4-1-0.6-1.8-0.6
		c-0.5,0-1,0.1-1.3,0.3s-0.6,0.4-0.8,0.7s-0.4,0.5-0.4,0.8c-0.1,0.3-0.1,0.6-0.1,0.8h5.3C125.8,195.9,125.5,195.2,125.1,194.8z"/>
	<path d="M133.4,201c0.1,0.3,0.3,0.5,0.6,0.6c0.2,0.2,0.5,0.3,0.8,0.4c0.3,0.1,0.6,0.1,0.9,0.1c0.2,0,0.5,0,0.7-0.1s0.5-0.1,0.7-0.3
		c0.2-0.1,0.4-0.3,0.5-0.5c0.1-0.2,0.2-0.4,0.2-0.7c0-0.5-0.3-0.9-1-1.1s-1.6-0.5-2.7-0.7c-0.5-0.1-0.9-0.2-1.4-0.4
		c-0.5-0.1-0.9-0.3-1.2-0.6c-0.4-0.2-0.6-0.5-0.9-0.9s-0.3-0.8-0.3-1.3c0-0.8,0.1-1.4,0.4-1.9s0.7-0.9,1.2-1.2
		c0.5-0.3,1-0.5,1.7-0.6c0.6-0.1,1.2-0.2,1.9-0.2c0.6,0,1.3,0.1,1.9,0.2s1.1,0.3,1.6,0.6c0.5,0.3,0.9,0.7,1.2,1.2
		c0.3,0.5,0.5,1.1,0.6,1.8h-3.1c0-0.6-0.3-1.1-0.7-1.3c-0.4-0.2-0.9-0.3-1.5-0.3c-0.2,0-0.4,0-0.6,0s-0.4,0.1-0.6,0.1
		c-0.2,0.1-0.3,0.2-0.4,0.3c-0.1,0.1-0.2,0.3-0.2,0.6c0,0.3,0.1,0.5,0.3,0.7c0.2,0.2,0.5,0.3,0.8,0.4c0.3,0.1,0.7,0.2,1.2,0.3
		c0.4,0.1,0.9,0.2,1.4,0.3c0.5,0.1,0.9,0.2,1.4,0.4c0.5,0.2,0.9,0.4,1.2,0.6s0.6,0.6,0.9,0.9c0.2,0.4,0.3,0.8,0.3,1.4
		c0,0.8-0.2,1.4-0.5,2c-0.3,0.5-0.7,1-1.2,1.3c-0.5,0.3-1.1,0.5-1.7,0.7c-0.7,0.1-1.3,0.2-2,0.2c-0.7,0-1.4-0.1-2-0.2
		c-0.7-0.1-1.2-0.4-1.8-0.7c-0.5-0.3-0.9-0.7-1.3-1.3c-0.3-0.5-0.5-1.2-0.5-2h3.1C133.2,200.4,133.3,200.7,133.4,201z"/>
	<path d="M145.4,201c0.1,0.3,0.3,0.5,0.6,0.6c0.2,0.2,0.5,0.3,0.8,0.4c0.3,0.1,0.6,0.1,0.9,0.1c0.2,0,0.5,0,0.7-0.1s0.5-0.1,0.7-0.3
		c0.2-0.1,0.4-0.3,0.5-0.5c0.1-0.2,0.2-0.4,0.2-0.7c0-0.5-0.3-0.9-1-1.1s-1.6-0.5-2.7-0.7c-0.5-0.1-0.9-0.2-1.4-0.4
		c-0.5-0.1-0.9-0.3-1.2-0.6c-0.4-0.2-0.6-0.5-0.9-0.9s-0.3-0.8-0.3-1.3c0-0.8,0.1-1.4,0.4-1.9s0.7-0.9,1.2-1.2
		c0.5-0.3,1-0.5,1.7-0.6c0.6-0.1,1.2-0.2,1.9-0.2c0.6,0,1.3,0.1,1.9,0.2s1.1,0.3,1.6,0.6c0.5,0.3,0.9,0.7,1.2,1.2
		c0.3,0.5,0.5,1.1,0.6,1.8h-3.1c0-0.6-0.3-1.1-0.7-1.3c-0.4-0.2-0.9-0.3-1.5-0.3c-0.2,0-0.4,0-0.6,0s-0.4,0.1-0.6,0.1
		c-0.2,0.1-0.3,0.2-0.4,0.3c-0.1,0.1-0.2,0.3-0.2,0.6c0,0.3,0.1,0.5,0.3,0.7c0.2,0.2,0.5,0.3,0.8,0.4c0.3,0.1,0.7,0.2,1.2,0.3
		c0.4,0.1,0.9,0.2,1.4,0.3c0.5,0.1,0.9,0.2,1.4,0.4c0.5,0.2,0.9,0.4,1.2,0.6s0.6,0.6,0.9,0.9c0.2,0.4,0.3,0.8,0.3,1.4
		c0,0.8-0.2,1.4-0.5,2c-0.3,0.5-0.7,1-1.2,1.3c-0.5,0.3-1.1,0.5-1.7,0.7c-0.7,0.1-1.3,0.2-2,0.2c-0.7,0-1.4-0.1-2-0.2
		c-0.7-0.1-1.2-0.4-1.8-0.7c-0.5-0.3-0.9-0.7-1.3-1.3c-0.3-0.5-0.5-1.2-0.5-2h3.1C145.1,200.4,145.2,200.7,145.4,201z"/>
</g>
<g>
	<path d="M32.1,214.5v16.4h-3.6v-16.4H32.1z"/>
	<path d="M37.6,219v1.7h0.1c0.4-0.7,1-1.2,1.6-1.5c0.7-0.3,1.3-0.5,2-0.5c0.9,0,1.6,0.1,2.2,0.4c0.6,0.2,1,0.6,1.3,1
		c0.3,0.4,0.5,0.9,0.7,1.5c0.1,0.6,0.2,1.3,0.2,2v7.3h-3.3v-6.7c0-1-0.2-1.7-0.5-2.2s-0.9-0.7-1.6-0.7c-0.9,0-1.5,0.3-1.9,0.8
		c-0.4,0.5-0.6,1.4-0.6,2.6v6.2h-3.3V219H37.6z"/>
	<path d="M50.5,228c0.1,0.3,0.3,0.5,0.6,0.6s0.5,0.3,0.8,0.4c0.3,0.1,0.6,0.1,0.9,0.1c0.2,0,0.5,0,0.7-0.1s0.5-0.1,0.7-0.3
		c0.2-0.1,0.4-0.3,0.5-0.5c0.1-0.2,0.2-0.4,0.2-0.7c0-0.5-0.3-0.9-1-1.1s-1.6-0.5-2.7-0.7c-0.5-0.1-0.9-0.2-1.4-0.4
		c-0.5-0.1-0.9-0.3-1.2-0.6c-0.4-0.2-0.6-0.5-0.9-0.9c-0.2-0.4-0.3-0.8-0.3-1.3c0-0.8,0.1-1.4,0.4-1.9c0.3-0.5,0.7-0.9,1.2-1.2
		c0.5-0.3,1-0.5,1.7-0.6c0.6-0.1,1.2-0.2,1.9-0.2s1.3,0.1,1.9,0.2c0.6,0.1,1.1,0.3,1.6,0.6c0.5,0.3,0.9,0.7,1.2,1.2s0.5,1.1,0.6,1.8
		h-3.1c0-0.6-0.3-1.1-0.7-1.3s-0.9-0.3-1.5-0.3c-0.2,0-0.4,0-0.6,0c-0.2,0-0.4,0.1-0.6,0.1c-0.2,0.1-0.3,0.2-0.4,0.3
		c-0.1,0.1-0.2,0.3-0.2,0.6c0,0.3,0.1,0.5,0.3,0.7s0.5,0.3,0.8,0.4c0.3,0.1,0.7,0.2,1.2,0.3c0.4,0.1,0.9,0.2,1.4,0.3
		c0.5,0.1,0.9,0.2,1.4,0.4c0.5,0.2,0.9,0.4,1.2,0.6c0.4,0.3,0.6,0.6,0.9,0.9c0.2,0.4,0.3,0.8,0.3,1.4c0,0.8-0.2,1.4-0.5,2
		c-0.3,0.5-0.7,1-1.2,1.3c-0.5,0.3-1.1,0.5-1.7,0.7c-0.7,0.1-1.3,0.2-2,0.2c-0.7,0-1.4-0.1-2-0.2c-0.7-0.1-1.2-0.4-1.8-0.7
		c-0.5-0.3-0.9-0.7-1.3-1.3c-0.3-0.5-0.5-1.2-0.5-2h3.1C50.3,227.4,50.3,227.7,50.5,228z"/>
	<path d="M67.7,230.9v-1.7h-0.1c-0.4,0.7-1,1.2-1.6,1.5c-0.7,0.3-1.3,0.5-2,0.5c-0.9,0-1.6-0.1-2.2-0.3c-0.6-0.2-1-0.6-1.3-1
		c-0.3-0.4-0.5-0.9-0.7-1.5c-0.1-0.6-0.2-1.3-0.2-2V219h3.3v6.7c0,1,0.2,1.7,0.5,2.2s0.9,0.7,1.6,0.7c0.9,0,1.5-0.3,1.9-0.8
		c0.4-0.5,0.6-1.4,0.6-2.6V219h3.3v11.9H67.7z"/>
	<path d="M76,219v2.2h0c0.2-0.4,0.4-0.7,0.6-1c0.3-0.3,0.6-0.6,0.9-0.8c0.3-0.2,0.7-0.4,1.1-0.5c0.4-0.1,0.8-0.2,1.2-0.2
		c0.2,0,0.5,0,0.7,0.1v3c-0.2,0-0.3-0.1-0.6-0.1s-0.4,0-0.6,0c-0.6,0-1.1,0.1-1.5,0.3s-0.7,0.5-1,0.8c-0.3,0.3-0.4,0.7-0.5,1.2
		s-0.2,1-0.2,1.5v5.4h-3.3V219H76z"/>
	<path d="M81.2,222.7c0-0.8,0.2-1.4,0.6-1.9s0.8-0.9,1.3-1.2s1.1-0.5,1.8-0.7c0.7-0.1,1.3-0.2,2-0.2c0.6,0,1.2,0,1.8,0.1
		c0.6,0.1,1.2,0.2,1.7,0.5c0.5,0.2,0.9,0.6,1.2,1c0.3,0.4,0.5,1,0.5,1.7v6.2c0,0.5,0,1.1,0.1,1.5s0.2,0.9,0.3,1.1h-3.3
		c-0.1-0.2-0.1-0.4-0.1-0.6c0-0.2-0.1-0.4-0.1-0.6c-0.5,0.5-1.1,0.9-1.8,1.1c-0.7,0.2-1.4,0.3-2.2,0.3c-0.6,0-1.1-0.1-1.6-0.2
		c-0.5-0.1-0.9-0.4-1.3-0.6c-0.4-0.3-0.7-0.7-0.9-1.1s-0.3-1-0.3-1.6c0-0.7,0.1-1.2,0.4-1.7c0.2-0.4,0.5-0.8,0.9-1
		c0.4-0.3,0.8-0.5,1.3-0.6c0.5-0.1,1-0.2,1.5-0.3c0.5-0.1,1-0.1,1.4-0.2s0.9-0.1,1.3-0.2c0.4-0.1,0.7-0.2,0.9-0.4s0.3-0.4,0.3-0.8
		c0-0.4-0.1-0.6-0.2-0.8s-0.3-0.4-0.5-0.5c-0.2-0.1-0.4-0.2-0.7-0.2c-0.3,0-0.5-0.1-0.8-0.1c-0.6,0-1.2,0.1-1.5,0.4
		c-0.4,0.3-0.6,0.7-0.6,1.4H81.2z M88.8,225.1c-0.1,0.1-0.3,0.2-0.5,0.3c-0.2,0.1-0.4,0.1-0.7,0.2c-0.2,0-0.5,0.1-0.7,0.1
		c-0.3,0-0.5,0.1-0.8,0.1c-0.2,0-0.5,0.1-0.7,0.2c-0.2,0.1-0.4,0.2-0.6,0.3c-0.2,0.1-0.3,0.3-0.4,0.5c-0.1,0.2-0.2,0.5-0.2,0.8
		c0,0.3,0.1,0.5,0.2,0.7c0.1,0.2,0.3,0.4,0.4,0.5c0.2,0.1,0.4,0.2,0.6,0.2s0.5,0.1,0.8,0.1c0.6,0,1.1-0.1,1.5-0.3
		c0.4-0.2,0.6-0.5,0.8-0.8c0.2-0.3,0.3-0.6,0.3-0.9c0-0.3,0.1-0.6,0.1-0.7V225.1z"/>
	<path d="M97.2,219v1.7h0.1c0.4-0.7,1-1.2,1.6-1.5c0.7-0.3,1.3-0.5,2-0.5c0.9,0,1.6,0.1,2.2,0.4s1,0.6,1.3,1
		c0.3,0.4,0.5,0.9,0.7,1.5c0.1,0.6,0.2,1.3,0.2,2v7.3H102v-6.7c0-1-0.2-1.7-0.5-2.2s-0.9-0.7-1.6-0.7c-0.9,0-1.5,0.3-1.9,0.8
		c-0.4,0.5-0.6,1.4-0.6,2.6v6.2h-3.3V219H97.2z"/>
	<path d="M113,221.2c-0.5,0-1,0.1-1.3,0.4c-0.4,0.2-0.6,0.5-0.9,0.9c-0.2,0.4-0.4,0.8-0.5,1.2c-0.1,0.5-0.1,0.9-0.1,1.3
		c0,0.4,0,0.9,0.1,1.3c0.1,0.4,0.2,0.8,0.4,1.2c0.2,0.4,0.5,0.7,0.8,0.9c0.4,0.2,0.8,0.3,1.3,0.3c0.8,0,1.4-0.2,1.8-0.7
		s0.7-1,0.8-1.8h3.2c-0.2,1.6-0.8,2.8-1.8,3.6c-1,0.8-2.3,1.2-3.9,1.2c-0.9,0-1.7-0.1-2.4-0.4c-0.7-0.3-1.4-0.7-1.9-1.3
		c-0.5-0.5-0.9-1.2-1.2-1.9c-0.3-0.7-0.4-1.6-0.4-2.4c0-0.9,0.1-1.8,0.4-2.6c0.3-0.8,0.7-1.5,1.2-2c0.5-0.6,1.2-1,1.9-1.3
		c0.8-0.3,1.6-0.5,2.6-0.5c0.7,0,1.4,0.1,2,0.3s1.2,0.5,1.7,0.8c0.5,0.4,0.9,0.8,1.3,1.4c0.3,0.6,0.5,1.2,0.6,2h-3.2
		C115.2,221.9,114.4,221.2,113,221.2z"/>
	<path d="M123.6,228.1c0.5,0.5,1.2,0.7,2.1,0.7c0.7,0,1.2-0.2,1.7-0.5s0.8-0.7,0.9-1h2.9c-0.5,1.4-1.2,2.4-2.1,3.1
		c-1,0.6-2.1,0.9-3.5,0.9c-0.9,0-1.8-0.1-2.5-0.4c-0.8-0.3-1.4-0.7-1.9-1.3c-0.5-0.6-0.9-1.2-1.2-2c-0.3-0.8-0.4-1.6-0.4-2.5
		c0-0.9,0.1-1.7,0.4-2.5c0.3-0.8,0.7-1.4,1.2-2c0.5-0.6,1.2-1,1.9-1.3c0.7-0.3,1.6-0.5,2.5-0.5c1,0,1.9,0.2,2.6,0.6s1.4,0.9,1.9,1.6
		c0.5,0.7,0.8,1.4,1,2.3c0.2,0.8,0.3,1.7,0.2,2.6h-8.6C122.8,226.8,123.1,227.6,123.6,228.1z M127.3,221.8c-0.4-0.4-1-0.6-1.8-0.6
		c-0.5,0-1,0.1-1.3,0.3s-0.6,0.4-0.8,0.7s-0.4,0.5-0.4,0.8c-0.1,0.3-0.1,0.6-0.1,0.8h5.3C127.9,222.9,127.7,222.2,127.3,221.8z"/>
</g>
</svg>
