<?xml version="1.0" encoding="utf-8"?>
<!-- Generator: Adobe Illustrator 26.5.0, SVG Export Plug-In . SVG Version: 6.00 Build 0)  -->
<svg version="1.1" baseProfile="tiny" id="Layer_1" xmlns="http://www.w3.org/2000/svg" xmlns:xlink="http://www.w3.org/1999/xlink"
	 x="0px" y="0px" viewBox="0 0 160 600" overflow="visible" xml:space="preserve">
<g>
	<path d="M13.8,187.3h4.6l4.3,7.3l4.3-7.3h4.6l-6.9,11.4v7.1h-4.1v-7.2L13.8,187.3z"/>
	<path d="M29.7,196.2c0.3-0.9,0.8-1.6,1.4-2.2c0.6-0.6,1.3-1.1,2.2-1.4c0.8-0.3,1.8-0.5,2.9-0.5c1.1,0,2,0.2,2.9,0.5
		c0.9,0.3,1.6,0.8,2.2,1.4c0.6,0.6,1.1,1.4,1.4,2.2s0.5,1.9,0.5,2.9s-0.2,2-0.5,2.9s-0.8,1.6-1.4,2.2c-0.6,0.6-1.3,1.1-2.2,1.4
		c-0.9,0.3-1.8,0.5-2.9,0.5c-1.1,0-2-0.2-2.9-0.5c-0.8-0.3-1.6-0.8-2.2-1.4c-0.6-0.6-1.1-1.4-1.4-2.2c-0.3-0.9-0.5-1.8-0.5-2.9
		S29.4,197.1,29.7,196.2z M33.1,200.7c0.1,0.5,0.3,1,0.5,1.4c0.3,0.4,0.6,0.7,1,1c0.4,0.2,0.9,0.4,1.6,0.4s1.1-0.1,1.6-0.4
		c0.4-0.2,0.8-0.6,1-1c0.3-0.4,0.4-0.9,0.5-1.4s0.2-1,0.2-1.6c0-0.5-0.1-1.1-0.2-1.6s-0.3-1-0.5-1.4c-0.3-0.4-0.6-0.7-1-1
		c-0.4-0.3-0.9-0.4-1.6-0.4s-1.1,0.1-1.6,0.4c-0.4,0.3-0.8,0.6-1,1c-0.3,0.4-0.4,0.9-0.5,1.4s-0.2,1-0.2,1.6
		C32.9,199.7,33,200.2,33.1,200.7z"/>
	<path d="M54.4,205.9V204h-0.1c-0.5,0.8-1.1,1.3-1.8,1.7c-0.7,0.3-1.5,0.5-2.3,0.5c-1,0-1.8-0.1-2.4-0.4c-0.6-0.3-1.1-0.6-1.5-1.1
		c-0.4-0.5-0.6-1.1-0.8-1.7c-0.1-0.7-0.2-1.4-0.2-2.3v-8.3H49v7.6c0,1.1,0.2,1.9,0.5,2.5c0.3,0.5,1,0.8,1.8,0.8c1,0,1.7-0.3,2.2-0.9
		c0.5-0.6,0.7-1.6,0.7-3v-7h3.7v13.4H54.4z"/>
	<path d="M79.8,192.3c-0.2-0.4-0.5-0.7-0.9-1c-0.4-0.3-0.8-0.5-1.2-0.7c-0.5-0.2-0.9-0.2-1.4-0.2c-0.9,0-1.7,0.2-2.3,0.5
		c-0.6,0.4-1.2,0.8-1.6,1.4c-0.4,0.6-0.7,1.3-0.9,2c-0.2,0.8-0.3,1.6-0.3,2.4c0,0.8,0.1,1.5,0.3,2.3c0.2,0.7,0.5,1.4,0.9,2
		s0.9,1.1,1.6,1.4c0.6,0.4,1.4,0.5,2.3,0.5c1.2,0,2.2-0.4,2.9-1.1s1.1-1.8,1.3-3h4c-0.1,1.2-0.4,2.2-0.8,3.1s-1,1.7-1.7,2.4
		s-1.5,1.2-2.5,1.5s-2,0.5-3.1,0.5c-1.4,0-2.7-0.2-3.8-0.7c-1.1-0.5-2.1-1.2-2.9-2c-0.8-0.9-1.4-1.9-1.8-3.1S67,198,67,196.7
		c0-1.4,0.2-2.7,0.6-3.9c0.4-1.2,1-2.2,1.8-3.1c0.8-0.9,1.7-1.6,2.9-2.1c1.1-0.5,2.4-0.8,3.8-0.8c1,0,2,0.1,2.9,0.4
		c0.9,0.3,1.7,0.7,2.4,1.3c0.7,0.6,1.3,1.3,1.8,2.1c0.5,0.8,0.8,1.8,0.9,2.9h-4C80.2,193.1,80,192.7,79.8,192.3z"/>
	<path d="M96.1,187.3l6.9,18.6h-4.2l-1.4-4.1h-6.9l-1.5,4.1h-4.1l7-18.6H96.1z M96.4,198.7l-2.3-6.8H94l-2.4,6.8H96.4z"/>
	<path d="M108.5,187.3l7.7,12.5h0.1v-12.5h3.8v18.6H116l-7.7-12.4h-0.1v12.4h-3.8v-18.6H108.5z"/>
	<path d="M127.1,187.3v4c0,0.6-0.1,1.1-0.2,1.6c-0.2,0.5-0.4,0.9-0.8,1.3c-0.3,0.4-0.7,0.7-1.2,0.9c-0.5,0.3-1,0.4-1.5,0.5v-1.7
		c0.7-0.2,1.1-0.6,1.4-1c0.2-0.4,0.4-1,0.4-1.6h-1.7v-4H127.1z"/>
	<path d="M129,190.7v-3.4h15.2v3.4h-5.6v15.1h-4.1v-15.1H129z"/>
</g>
<g>
	<path d="M47.4,231c-0.1,0.7-0.4,1.4-0.8,2c-0.4,0.6-1.1,1.2-1.9,1.6c-0.8,0.4-1.9,0.6-3.3,0.6c-0.8,0-1.5-0.1-2.3-0.3
		c-0.7-0.2-1.4-0.6-1.9-1c-0.6-0.5-1-1-1.4-1.8s-0.5-1.6-0.5-2.6V228H39v0.8c0,0.5,0,0.9,0.1,1.2c0.1,0.4,0.2,0.7,0.4,1
		s0.4,0.5,0.7,0.6c0.3,0.2,0.7,0.2,1.2,0.2c0.5,0,1-0.1,1.2-0.3c0.3-0.2,0.5-0.4,0.6-0.7c0.1-0.3,0.2-0.6,0.2-1c0-0.4,0-0.7,0-1
		v-12.5h4.1V229C47.6,229.6,47.6,230.3,47.4,231z"/>
	<path d="M64.6,233.4c-1.4,1.2-3.3,1.8-5.8,1.8c-2.5,0-4.5-0.6-5.8-1.8c-1.4-1.2-2.1-3.1-2.1-5.6v-11.5H55v11.5c0,0.5,0,1,0.1,1.5
		c0.1,0.5,0.3,0.9,0.5,1.3c0.3,0.4,0.7,0.7,1.2,0.9c0.5,0.2,1.2,0.4,2,0.4c1.5,0,2.5-0.3,3-1c0.6-0.7,0.8-1.7,0.8-3.1v-11.5h4.1
		v11.5C66.7,230.4,66,232.2,64.6,233.4z"/>
	<path d="M78,216.3c1.2,0,2.3,0.2,3.3,0.6c1,0.4,1.9,1,2.7,1.7s1.3,1.7,1.8,2.9s0.6,2.5,0.6,4c0,1.4-0.2,2.6-0.5,3.7s-0.9,2.1-1.6,3
		c-0.7,0.8-1.6,1.5-2.6,2s-2.3,0.7-3.7,0.7h-8v-18.6H78z M77.7,231.4c0.6,0,1.2-0.1,1.7-0.3c0.6-0.2,1-0.5,1.5-0.9s0.8-1,1-1.7
		c0.3-0.7,0.4-1.6,0.4-2.6c0-0.9-0.1-1.8-0.3-2.5c-0.2-0.8-0.5-1.4-0.9-1.9s-1-0.9-1.7-1.2c-0.7-0.3-1.5-0.4-2.5-0.4H74v11.7H77.7z"
		/>
	<path d="M100,234.7c-0.9,0.4-1.8,0.6-2.7,0.6c-1.4,0-2.7-0.2-3.8-0.7c-1.1-0.5-2.1-1.2-2.9-2c-0.8-0.9-1.4-1.9-1.8-3.1
		s-0.6-2.4-0.6-3.8c0-1.4,0.2-2.7,0.6-3.9c0.4-1.2,1-2.2,1.8-3.1c0.8-0.9,1.7-1.6,2.9-2.1c1.1-0.5,2.4-0.8,3.8-0.8
		c1,0,1.9,0.1,2.8,0.4c0.9,0.3,1.7,0.7,2.4,1.3s1.3,1.2,1.8,2.1c0.5,0.8,0.8,1.8,0.9,2.8h-3.9c-0.2-1-0.7-1.8-1.4-2.3
		s-1.5-0.8-2.5-0.8c-0.9,0-1.7,0.2-2.3,0.5c-0.6,0.4-1.2,0.8-1.6,1.4c-0.4,0.6-0.7,1.3-0.9,2c-0.2,0.8-0.3,1.6-0.3,2.4
		c0,0.8,0.1,1.5,0.3,2.3c0.2,0.7,0.5,1.4,0.9,2s0.9,1.1,1.6,1.4c0.6,0.4,1.4,0.5,2.3,0.5c1.4,0,2.4-0.3,3.1-1c0.7-0.7,1.2-1.7,1.3-3
		h-4.1v-3h7.8v10h-2.6l-0.4-2.1C101.7,233.7,100.9,234.4,100,234.7z"/>
	<path d="M122.4,216.3v3.4h-9.8v4h9v3.2h-9v4.5h10v3.4h-14.1v-18.6H122.4z"/>
</g>
<g>
	<path fill="#349946" d="M7.5,254.5c0.1-0.9,0.3-1.6,0.6-2.2c0.4-0.6,0.9-1,1.5-1.4c0.6-0.3,1.3-0.6,2-0.7c0.7-0.1,1.5-0.2,2.2-0.2
		c0.7,0,1.4,0,2.1,0.1c0.7,0.1,1.3,0.3,1.9,0.6c0.6,0.3,1,0.7,1.4,1.2c0.4,0.5,0.5,1.1,0.5,2v7c0,0.6,0,1.2,0.1,1.7
		c0.1,0.6,0.2,1,0.4,1.2h-3.7c-0.1-0.2-0.1-0.4-0.2-0.6c0-0.2-0.1-0.4-0.1-0.7c-0.6,0.6-1.3,1-2.1,1.3c-0.8,0.2-1.6,0.4-2.4,0.4
		c-0.6,0-1.2-0.1-1.8-0.2s-1-0.4-1.5-0.7c-0.4-0.3-0.7-0.7-1-1.2c-0.2-0.5-0.4-1.1-0.4-1.8c0-0.8,0.1-1.4,0.4-1.9
		c0.3-0.5,0.6-0.9,1-1.2c0.4-0.3,0.9-0.5,1.5-0.7c0.5-0.1,1.1-0.3,1.7-0.4c0.6-0.1,1.1-0.2,1.6-0.2c0.5-0.1,1-0.1,1.4-0.2
		s0.7-0.3,1-0.5c0.2-0.2,0.4-0.5,0.3-0.9c0-0.4-0.1-0.7-0.2-0.9c-0.1-0.2-0.3-0.4-0.5-0.5c-0.2-0.1-0.5-0.2-0.8-0.3
		c-0.3,0-0.6-0.1-0.9-0.1c-0.7,0-1.3,0.2-1.7,0.5s-0.7,0.8-0.7,1.6H7.5z M16,257.3c-0.2,0.1-0.4,0.2-0.6,0.3s-0.5,0.1-0.8,0.2
		c-0.3,0.1-0.6,0.1-0.8,0.1c-0.3,0-0.6,0.1-0.9,0.1c-0.3,0.1-0.6,0.1-0.8,0.2c-0.3,0.1-0.5,0.2-0.7,0.4c-0.2,0.1-0.4,0.3-0.5,0.6
		c-0.1,0.2-0.2,0.5-0.2,0.9c0,0.3,0.1,0.6,0.2,0.8c0.1,0.2,0.3,0.4,0.5,0.5s0.5,0.2,0.7,0.3c0.3,0.1,0.6,0.1,0.9,0.1
		c0.7,0,1.3-0.1,1.7-0.4c0.4-0.2,0.7-0.5,0.9-0.9c0.2-0.3,0.3-0.7,0.4-1c0-0.3,0.1-0.6,0.1-0.8V257.3z"/>
	<path fill="#349946" d="M26.3,248.7v-3.4h15.2v3.4H36v15.1h-4.1v-15.1H26.3z"/>
	<path fill="#349946" d="M43.2,250.8c0.4-1.2,1-2.2,1.8-3.1c0.8-0.9,1.7-1.6,2.9-2.1c1.1-0.5,2.4-0.8,3.8-0.8c1.4,0,2.7,0.3,3.8,0.8
		c1.1,0.5,2.1,1.2,2.9,2.1c0.8,0.9,1.4,1.9,1.8,3.1c0.4,1.2,0.6,2.5,0.6,3.9c0,1.4-0.2,2.6-0.6,3.8s-1,2.2-1.8,3.1
		c-0.8,0.9-1.7,1.5-2.9,2c-1.1,0.5-2.4,0.7-3.8,0.7c-1.4,0-2.7-0.2-3.8-0.7c-1.1-0.5-2.1-1.2-2.9-2c-0.8-0.9-1.4-1.9-1.8-3.1
		s-0.6-2.4-0.6-3.8C42.6,253.3,42.8,252,43.2,250.8z M47,256.9c0.2,0.7,0.5,1.4,0.9,2c0.4,0.6,0.9,1.1,1.6,1.4
		c0.6,0.4,1.4,0.5,2.3,0.5s1.7-0.2,2.3-0.5c0.6-0.4,1.2-0.8,1.6-1.4c0.4-0.6,0.7-1.3,0.9-2c0.2-0.7,0.3-1.5,0.3-2.3
		c0-0.8-0.1-1.6-0.3-2.4c-0.2-0.8-0.5-1.4-0.9-2c-0.4-0.6-0.9-1.1-1.6-1.4c-0.6-0.4-1.4-0.5-2.3-0.5s-1.7,0.2-2.3,0.5
		c-0.6,0.4-1.2,0.8-1.6,1.4c-0.4,0.6-0.7,1.3-0.9,2c-0.2,0.8-0.3,1.6-0.3,2.4C46.7,255.4,46.8,256.2,47,256.9z"/>
	<path fill="#349946" d="M63.2,250.8c0.4-1.2,1-2.2,1.8-3.1c0.8-0.9,1.7-1.6,2.9-2.1c1.1-0.5,2.4-0.8,3.8-0.8c1.4,0,2.7,0.3,3.8,0.8
		c1.1,0.5,2.1,1.2,2.9,2.1c0.8,0.9,1.4,1.9,1.8,3.1c0.4,1.2,0.6,2.5,0.6,3.9c0,1.4-0.2,2.6-0.6,3.8s-1,2.2-1.8,3.1
		c-0.8,0.9-1.7,1.5-2.9,2c-1.1,0.5-2.4,0.7-3.8,0.7c-1.4,0-2.7-0.2-3.8-0.7c-1.1-0.5-2.1-1.2-2.9-2c-0.8-0.9-1.4-1.9-1.8-3.1
		s-0.6-2.4-0.6-3.8C62.6,253.3,62.8,252,63.2,250.8z M66.9,256.9c0.2,0.7,0.5,1.4,0.9,2s0.9,1.1,1.6,1.4c0.6,0.4,1.4,0.5,2.3,0.5
		c0.9,0,1.7-0.2,2.3-0.5c0.6-0.4,1.2-0.8,1.6-1.4s0.7-1.3,0.9-2c0.2-0.7,0.3-1.5,0.3-2.3c0-0.8-0.1-1.6-0.3-2.4
		c-0.2-0.8-0.5-1.4-0.9-2c-0.4-0.6-0.9-1.1-1.6-1.4c-0.6-0.4-1.4-0.5-2.3-0.5c-0.9,0-1.7,0.2-2.3,0.5c-0.6,0.4-1.2,0.8-1.6,1.4
		c-0.4,0.6-0.7,1.3-0.9,2c-0.2,0.8-0.3,1.6-0.3,2.4C66.7,255.4,66.8,256.2,66.9,256.9z"/>
	<path fill="#349946" d="M81.9,248.7v-3.4h15.2v3.4h-5.6v15.1h-4.1v-15.1H81.9z"/>
	<path fill="#349946" d="M103.1,245.3v7.1h7.5v-7.1h4.1v18.6h-4.1v-8h-7.5v8H99v-18.6H103.1z"/>
	<path fill="#349946" d="M128.3,245.3v6.8h0.1c0.5-0.7,1.1-1.2,1.8-1.5c0.8-0.3,1.6-0.5,2.4-0.5c0.7,0,1.3,0.1,2,0.4
		c0.7,0.3,1.3,0.7,1.8,1.3c0.5,0.6,1,1.3,1.3,2.2c0.3,0.9,0.5,2,0.5,3.2c0,1.2-0.2,2.3-0.5,3.2s-0.8,1.6-1.3,2.2
		c-0.5,0.6-1.1,1-1.8,1.3c-0.7,0.3-1.3,0.4-2,0.4c-1,0-1.9-0.2-2.7-0.5c-0.8-0.3-1.4-0.8-1.8-1.6h-0.1v1.7h-3.5v-18.6H128.3z
		 M134.3,255.5c-0.1-0.5-0.3-1-0.6-1.4c-0.3-0.4-0.6-0.7-1-0.9c-0.4-0.2-0.9-0.4-1.4-0.4c-0.5,0-1,0.1-1.4,0.4
		c-0.4,0.2-0.7,0.6-1,0.9c-0.3,0.4-0.5,0.9-0.6,1.4c-0.1,0.5-0.2,1.1-0.2,1.6c0,0.6,0.1,1.1,0.2,1.6c0.1,0.5,0.3,1,0.6,1.4
		c0.3,0.4,0.6,0.7,1,0.9c0.4,0.2,0.9,0.4,1.4,0.4c0.6,0,1-0.1,1.4-0.4c0.4-0.2,0.7-0.5,1-0.9s0.5-0.9,0.6-1.4
		c0.1-0.5,0.2-1.1,0.2-1.6C134.5,256.6,134.4,256,134.3,255.5z"/>
	<path fill="#349946" d="M145.2,267.9c-0.7,0.5-1.7,0.7-3,0.7c-0.4,0-0.8,0-1.1,0c-0.4,0-0.8-0.1-1.1-0.1v-3c0.3,0,0.7,0.1,1.1,0.1
		c0.4,0,0.7,0,1.1,0c0.5-0.1,0.8-0.2,1.1-0.6c0.2-0.3,0.4-0.7,0.4-1.1c0-0.3-0.1-0.6-0.2-0.8l-4.7-12.6h3.9l3,9.2h0.1l2.9-9.2h3.8
		l-5.6,15.1C146.5,266.6,146,267.4,145.2,267.9z"/>
</g>
<g>
	<path fill="#349946" d="M7.4,277.3v-3h3.7v3H7.4z M11.1,279.4v13.4H7.4v-13.4H11.1z"/>
	<path fill="#349946" d="M21.2,279.4v2.5h-2.7v6.7c0,0.6,0.1,1,0.3,1.2s0.6,0.3,1.2,0.3c0.2,0,0.4,0,0.6,0c0.2,0,0.4,0,0.5-0.1v2.9
		c-0.3,0.1-0.7,0.1-1,0.1c-0.4,0-0.8,0-1.1,0c-0.6,0-1.1,0-1.6-0.1c-0.5-0.1-1-0.2-1.4-0.5c-0.4-0.2-0.7-0.5-0.9-1
		c-0.2-0.4-0.3-1-0.3-1.6v-7.9h-2.2v-2.5h2.2v-4h3.7v4H21.2z"/>
	<path fill="#349946" d="M25.8,289.5c0.2,0.3,0.4,0.5,0.6,0.7c0.3,0.2,0.6,0.3,0.9,0.4s0.7,0.1,1.1,0.1c0.3,0,0.5,0,0.8-0.1
		s0.5-0.2,0.8-0.3c0.2-0.1,0.4-0.3,0.6-0.5c0.2-0.2,0.2-0.5,0.2-0.8c0-0.6-0.4-1-1.1-1.2c-0.7-0.3-1.8-0.6-3.1-0.8
		c-0.5-0.1-1.1-0.3-1.6-0.4c-0.5-0.2-1-0.4-1.4-0.6c-0.4-0.3-0.7-0.6-1-1c-0.2-0.4-0.4-0.9-0.4-1.5c0-0.9,0.2-1.6,0.5-2.1
		c0.3-0.6,0.8-1,1.3-1.3c0.6-0.3,1.2-0.5,1.9-0.7c0.7-0.1,1.4-0.2,2.1-0.2s1.4,0.1,2.1,0.2c0.7,0.1,1.3,0.4,1.8,0.7
		c0.5,0.3,1,0.8,1.3,1.3c0.4,0.5,0.6,1.2,0.6,2.1h-3.5c-0.1-0.7-0.3-1.2-0.8-1.4c-0.5-0.3-1.1-0.4-1.7-0.4c-0.2,0-0.4,0-0.7,0
		c-0.2,0-0.5,0.1-0.7,0.2c-0.2,0.1-0.4,0.2-0.5,0.4c-0.1,0.2-0.2,0.4-0.2,0.7c0,0.3,0.1,0.6,0.4,0.8c0.2,0.2,0.6,0.4,0.9,0.5
		c0.4,0.1,0.8,0.2,1.3,0.4c0.5,0.1,1,0.2,1.5,0.3c0.5,0.1,1.1,0.3,1.6,0.4c0.5,0.2,1,0.4,1.4,0.7s0.7,0.6,1,1.1
		c0.2,0.4,0.4,0.9,0.4,1.6c0,0.9-0.2,1.6-0.5,2.2c-0.4,0.6-0.8,1.1-1.4,1.4c-0.6,0.4-1.2,0.6-2,0.8c-0.7,0.1-1.5,0.2-2.2,0.2
		c-0.8,0-1.5-0.1-2.3-0.2c-0.7-0.2-1.4-0.4-2-0.8c-0.6-0.4-1.1-0.8-1.4-1.4c-0.4-0.6-0.6-1.3-0.6-2.2h3.5
		C25.5,288.9,25.6,289.2,25.8,289.5z"/>
	<path fill="#349946" d="M47.8,292.8l-6-18.6H46l4.1,13.1h0.1l4.2-13.1h4.2l-6.2,18.6H47.8z"/>
	<path fill="#349946" d="M73.8,274.3v3.4H64v4h9v3.2h-9v4.5h10v3.4H59.9v-18.6H73.8z"/>
	<path fill="#349946" d="M80.6,274.3l7.7,12.5h0.1v-12.5h3.8v18.6h-4.1l-7.7-12.4h-0.1v12.4h-3.8v-18.6H80.6z"/>
	<path fill="#349946" d="M109.4,274.3v3.4h-9.8v4h9v3.2h-9v4.5h10v3.4H95.5v-18.6H109.4z"/>
	<path fill="#349946" d="M126,274.3v3.4h-9.8v4h9v3.2h-9v4.5h10v3.4h-14.1v-18.6H126z"/>
	<path fill="#349946" d="M138.7,274.3c0.8,0,1.6,0.1,2.2,0.4c0.7,0.3,1.2,0.6,1.7,1.1c0.5,0.5,0.8,1,1.1,1.6c0.3,0.6,0.4,1.3,0.4,2
		c0,1.1-0.2,2-0.7,2.8s-1.2,1.4-2.2,1.8v0.1c0.5,0.1,0.9,0.4,1.2,0.6c0.3,0.3,0.6,0.6,0.8,1c0.2,0.4,0.4,0.8,0.5,1.3
		c0.1,0.5,0.2,0.9,0.2,1.4c0,0.3,0,0.6,0.1,1c0,0.4,0,0.8,0.1,1.2c0,0.4,0.1,0.8,0.2,1.2c0.1,0.4,0.2,0.7,0.4,0.9h-4.1
		c-0.2-0.6-0.4-1.3-0.4-2.1c-0.1-0.8-0.1-1.6-0.2-2.3c-0.1-1-0.4-1.7-0.9-2.1c-0.5-0.5-1.2-0.7-2.2-0.7h-4.1v7.3h-4.1v-18.6H138.7z
		 M137.3,282.7c0.9,0,1.6-0.2,2.1-0.6s0.7-1.1,0.7-2c0-0.9-0.2-1.6-0.7-2s-1.2-0.6-2.1-0.6h-4.5v5.2H137.3z"/>
	<path fill="#349946" d="M151.1,288.8v4H147v-4H151.1z"/>
</g>
</svg>
