<?xml version="1.0" encoding="utf-8"?>
<!-- Generator: Adobe Illustrator 26.5.0, SVG Export Plug-In . SVG Version: 6.00 Build 0)  -->
<svg version="1.1" id="Layer_1" xmlns="http://www.w3.org/2000/svg" xmlns:xlink="http://www.w3.org/1999/xlink" x="0px" y="0px"
	 viewBox="0 0 160 600" style="enable-background:new 0 0 160 600;" xml:space="preserve">
<style type="text/css">
	.st0{fill:#349946;}
	.st1{fill:#FFFFFF;}
</style>
<path class="st0" d="M25.6,458.3c-7.9,0-14.3,6.4-14.3,14.3c0,7.9,6.4,14.3,14.3,14.3h107.3c7.9,0,14.3-6.4,14.3-14.3
	c0-7.9-6.4-14.3-14.3-14.3H25.6z"/>
<g>
	<path class="st1" d="M41.5,467.5v7h4.2v1.6h-6.1v-8.6H41.5z"/>
	<path class="st1" d="M53.2,467.5v1.6h-4.5v1.8h4.2v1.5h-4.2v2.1h4.6v1.6h-6.5v-8.6H53.2z"/>
	<path class="st1" d="M58.8,467.5l3.2,8.6h-2l-0.6-1.9h-3.2l-0.7,1.9h-1.9l3.2-8.6H58.8z M59,472.8l-1.1-3.1h0l-1.1,3.1H59z"/>
	<path class="st1" d="M67.4,467.5c0.4,0,0.7,0.1,1,0.2c0.3,0.1,0.6,0.3,0.8,0.5c0.2,0.2,0.4,0.5,0.5,0.8s0.2,0.6,0.2,0.9
		c0,0.5-0.1,0.9-0.3,1.3c-0.2,0.4-0.6,0.6-1,0.8v0c0.2,0.1,0.4,0.2,0.6,0.3s0.3,0.3,0.4,0.5c0.1,0.2,0.2,0.4,0.2,0.6
		s0.1,0.4,0.1,0.6c0,0.1,0,0.3,0,0.5c0,0.2,0,0.4,0,0.6s0.1,0.4,0.1,0.5c0,0.2,0.1,0.3,0.2,0.4h-1.9c-0.1-0.3-0.2-0.6-0.2-1
		c0-0.4-0.1-0.7-0.1-1.1c-0.1-0.4-0.2-0.8-0.4-1c-0.2-0.2-0.5-0.3-1-0.3h-1.9v3.4h-1.9v-8.6H67.4z M66.8,471.4c0.4,0,0.8-0.1,1-0.3
		c0.2-0.2,0.3-0.5,0.3-0.9c0-0.4-0.1-0.7-0.3-0.9c-0.2-0.2-0.5-0.3-1-0.3h-2.1v2.4H66.8z"/>
	<path class="st1" d="M73.4,467.5l3.6,5.8h0v-5.8h1.8v8.6h-1.9l-3.6-5.7h0v5.7h-1.8v-8.6H73.4z"/>
	<path class="st1" d="M86.4,467.5l2,5.9h0l1.9-5.9H93v8.6h-1.8V470h0l-2.1,6.1h-1.5l-2.1-6h0v6h-1.8v-8.6H86.4z"/>
	<path class="st1" d="M94.5,470.1c0.2-0.5,0.5-1,0.8-1.4c0.4-0.4,0.8-0.7,1.3-1c0.5-0.2,1.1-0.3,1.8-0.3c0.7,0,1.3,0.1,1.8,0.3
		c0.5,0.2,1,0.6,1.3,1c0.4,0.4,0.6,0.9,0.8,1.4s0.3,1.1,0.3,1.8c0,0.6-0.1,1.2-0.3,1.7c-0.2,0.5-0.5,1-0.8,1.4
		c-0.4,0.4-0.8,0.7-1.3,0.9c-0.5,0.2-1.1,0.3-1.8,0.3c-0.7,0-1.2-0.1-1.8-0.3c-0.5-0.2-1-0.5-1.3-0.9c-0.4-0.4-0.6-0.9-0.8-1.4
		c-0.2-0.5-0.3-1.1-0.3-1.7C94.2,471.2,94.3,470.6,94.5,470.1z M96.3,472.9c0.1,0.3,0.2,0.6,0.4,0.9c0.2,0.3,0.4,0.5,0.7,0.7
		c0.3,0.2,0.7,0.2,1.1,0.2c0.4,0,0.8-0.1,1.1-0.2c0.3-0.2,0.5-0.4,0.7-0.7c0.2-0.3,0.3-0.6,0.4-0.9c0.1-0.3,0.1-0.7,0.1-1.1
		c0-0.4,0-0.7-0.1-1.1c-0.1-0.4-0.2-0.7-0.4-0.9c-0.2-0.3-0.4-0.5-0.7-0.7c-0.3-0.2-0.7-0.2-1.1-0.2c-0.4,0-0.8,0.1-1.1,0.2
		c-0.3,0.2-0.5,0.4-0.7,0.7c-0.2,0.3-0.3,0.6-0.4,0.9s-0.1,0.7-0.1,1.1C96.1,472.2,96.2,472.6,96.3,472.9z"/>
	<path class="st1" d="M108.6,467.5c0.4,0,0.7,0.1,1,0.2c0.3,0.1,0.6,0.3,0.8,0.5c0.2,0.2,0.4,0.5,0.5,0.8s0.2,0.6,0.2,0.9
		c0,0.5-0.1,0.9-0.3,1.3c-0.2,0.4-0.6,0.6-1,0.8v0c0.2,0.1,0.4,0.2,0.6,0.3s0.3,0.3,0.4,0.5c0.1,0.2,0.2,0.4,0.2,0.6
		s0.1,0.4,0.1,0.6c0,0.1,0,0.3,0,0.5c0,0.2,0,0.4,0,0.6s0.1,0.4,0.1,0.5c0,0.2,0.1,0.3,0.2,0.4h-1.9c-0.1-0.3-0.2-0.6-0.2-1
		c0-0.4-0.1-0.7-0.1-1.1c-0.1-0.4-0.2-0.8-0.4-1c-0.2-0.2-0.5-0.3-1-0.3h-1.9v3.4H104v-8.6H108.6z M107.9,471.4c0.4,0,0.8-0.1,1-0.3
		c0.2-0.2,0.3-0.5,0.3-0.9c0-0.4-0.1-0.7-0.3-0.9c-0.2-0.2-0.5-0.3-1-0.3h-2.1v2.4H107.9z"/>
	<path class="st1" d="M119.1,467.5v1.6h-4.5v1.8h4.2v1.5h-4.2v2.1h4.6v1.6h-6.5v-8.6H119.1z"/>
</g>
</svg>
