<?xml version="1.0" encoding="utf-8"?>
<!-- Generator: Adobe Illustrator 26.5.0, SVG Export Plug-In . SVG Version: 6.00 Build 0)  -->
<svg version="1.1" id="Layer_1" xmlns="http://www.w3.org/2000/svg" xmlns:xlink="http://www.w3.org/1999/xlink" x="0px" y="0px"
	 viewBox="0 0 160 600" style="enable-background:new 0 0 160 600;" xml:space="preserve">
<style type="text/css">
	.st0{fill:#349946;}
</style>
<g>
	<path class="st0" d="M50.1,507.5c0.3-0.7,0.6-1.4,1.1-1.9s1.1-1,1.8-1.3c0.7-0.3,1.5-0.5,2.4-0.5c0.9,0,1.7,0.2,2.4,0.5
		c0.7,0.3,1.3,0.7,1.8,1.3s0.8,1.2,1.1,1.9s0.4,1.5,0.4,2.4c0,0.8-0.1,1.6-0.4,2.3s-0.6,1.3-1.1,1.9s-1.1,1-1.8,1.3
		s-1.5,0.5-2.4,0.5c-0.9,0-1.7-0.2-2.4-0.5s-1.3-0.7-1.8-1.3s-0.8-1.2-1.1-1.9c-0.3-0.7-0.4-1.5-0.4-2.3
		C49.7,509,49.9,508.2,50.1,507.5z M52.4,511.2c0.1,0.5,0.3,0.9,0.5,1.2c0.2,0.4,0.6,0.7,1,0.9c0.4,0.2,0.9,0.3,1.4,0.3
		c0.6,0,1-0.1,1.4-0.3c0.4-0.2,0.7-0.5,1-0.9c0.2-0.4,0.4-0.8,0.5-1.2c0.1-0.5,0.2-0.9,0.2-1.4c0-0.5-0.1-1-0.2-1.5
		c-0.1-0.5-0.3-0.9-0.5-1.3c-0.2-0.4-0.6-0.7-1-0.9c-0.4-0.2-0.9-0.3-1.4-0.3c-0.6,0-1,0.1-1.4,0.3c-0.4,0.2-0.7,0.5-1,0.9
		c-0.2,0.4-0.4,0.8-0.5,1.3c-0.1,0.5-0.2,1-0.2,1.5C52.2,510.3,52.3,510.8,52.4,511.2z"/>
	<path class="st0" d="M64.6,507.2v1.2h0c0.3-0.5,0.7-0.8,1.1-1c0.5-0.2,0.9-0.3,1.4-0.3c0.6,0,1.1,0.1,1.5,0.2
		c0.4,0.2,0.7,0.4,0.9,0.7c0.2,0.3,0.4,0.7,0.5,1.1c0.1,0.4,0.1,0.9,0.1,1.4v5.1h-2.3v-4.7c0-0.7-0.1-1.2-0.3-1.5
		c-0.2-0.3-0.6-0.5-1.1-0.5c-0.6,0-1.1,0.2-1.3,0.6c-0.3,0.4-0.4,1-0.4,1.8v4.3h-2.3v-8.3H64.6z"/>
	<path class="st0" d="M74.3,504.1v11.4H72v-11.4H74.3z"/>
	<path class="st0" d="M79.1,518c-0.4,0.3-1,0.4-1.8,0.4c-0.2,0-0.5,0-0.7,0c-0.2,0-0.5,0-0.7-0.1v-1.9c0.2,0,0.4,0,0.7,0.1
		c0.2,0,0.4,0,0.7,0c0.3,0,0.5-0.2,0.7-0.4c0.1-0.2,0.2-0.4,0.2-0.7c0-0.2,0-0.4-0.1-0.5l-2.9-7.8h2.4l1.9,5.7h0l1.8-5.7h2.4
		l-3.5,9.3C79.9,517.2,79.5,517.7,79.1,518z"/>
	<path class="st0" d="M87.9,508.8v-1.5h1.4v-0.6c0-0.7,0.2-1.3,0.7-1.8c0.5-0.5,1.2-0.7,2.1-0.7c0.2,0,0.4,0,0.6,0
		c0.2,0,0.4,0,0.6,0v1.7c-0.3,0-0.5,0-0.8,0c-0.3,0-0.5,0.1-0.7,0.2c-0.1,0.1-0.2,0.4-0.2,0.7v0.5h1.6v1.5h-1.6v6.8h-2.3v-6.8H87.9z
		"/>
	<path class="st0" d="M94.2,509.6c0.2-0.5,0.5-1,0.9-1.4c0.4-0.4,0.8-0.7,1.3-0.9s1.1-0.3,1.8-0.3s1.2,0.1,1.8,0.3
		c0.5,0.2,1,0.5,1.4,0.9s0.7,0.8,0.9,1.4c0.2,0.5,0.3,1.1,0.3,1.8s-0.1,1.3-0.3,1.8c-0.2,0.5-0.5,1-0.9,1.4s-0.8,0.7-1.4,0.9
		c-0.5,0.2-1.1,0.3-1.8,0.3s-1.2-0.1-1.8-0.3c-0.5-0.2-1-0.5-1.3-0.9c-0.4-0.4-0.7-0.8-0.9-1.4c-0.2-0.5-0.3-1.1-0.3-1.8
		S94,510.1,94.2,509.6z M96.2,512.3c0.1,0.3,0.2,0.6,0.3,0.8c0.2,0.2,0.4,0.5,0.6,0.6s0.6,0.2,1,0.2s0.7-0.1,1-0.2
		c0.3-0.1,0.5-0.3,0.6-0.6c0.2-0.3,0.3-0.5,0.3-0.8c0.1-0.3,0.1-0.6,0.1-1s0-0.7-0.1-1c-0.1-0.3-0.2-0.6-0.3-0.8
		c-0.2-0.2-0.4-0.4-0.6-0.6c-0.3-0.2-0.6-0.2-1-0.2s-0.7,0.1-1,0.2s-0.5,0.4-0.6,0.6c-0.2,0.2-0.3,0.5-0.3,0.8
		c-0.1,0.3-0.1,0.6-0.1,1S96.2,512,96.2,512.3z"/>
	<path class="st0" d="M106.1,507.2v1.5h0c0.1-0.3,0.3-0.5,0.4-0.7c0.2-0.2,0.4-0.4,0.6-0.6c0.2-0.2,0.5-0.3,0.8-0.4
		c0.3-0.1,0.5-0.1,0.8-0.1c0.1,0,0.3,0,0.5,0.1v2.1c-0.1,0-0.2,0-0.4-0.1c-0.1,0-0.3,0-0.4,0c-0.4,0-0.8,0.1-1.1,0.2
		s-0.5,0.3-0.7,0.6c-0.2,0.2-0.3,0.5-0.4,0.8c-0.1,0.3-0.1,0.7-0.1,1v3.7h-2.3v-8.3H106.1z"/>
</g>
<g>
	<path class="st0" d="M30.9,523.1l4.3,11.4h-2.6l-0.9-2.5h-4.3l-0.9,2.5H24l4.3-11.4H30.9z M31,530.1l-1.4-4.2h0l-1.5,4.2H31z"/>
	<path class="st0" d="M41.1,523.1c0.7,0,1.4,0.1,2.1,0.4c0.6,0.2,1.2,0.6,1.6,1.1c0.5,0.5,0.8,1.1,1.1,1.8c0.3,0.7,0.4,1.5,0.4,2.5
		c0,0.8-0.1,1.6-0.3,2.3s-0.5,1.3-1,1.8c-0.4,0.5-1,0.9-1.6,1.2c-0.6,0.3-1.4,0.4-2.3,0.4h-4.9v-11.4H41.1z M40.9,532.4
		c0.4,0,0.7-0.1,1.1-0.2c0.3-0.1,0.6-0.3,0.9-0.6c0.3-0.3,0.5-0.6,0.6-1.1c0.2-0.4,0.2-1,0.2-1.6c0-0.6-0.1-1.1-0.2-1.6
		c-0.1-0.5-0.3-0.9-0.6-1.2c-0.3-0.3-0.6-0.6-1-0.8s-0.9-0.3-1.6-0.3h-1.8v7.2H40.9z"/>
	<path class="st0" d="M53.7,523.1l4.3,11.4h-2.6l-0.9-2.5h-4.3l-0.9,2.5h-2.5l4.3-11.4H53.7z M53.9,530.1l-1.4-4.2h0l-1.5,4.2H53.9z
		"/>
	<path class="st0" d="M67,523.1l2.7,7.9h0l2.5-7.9h3.5v11.4h-2.4v-8.1h0l-2.8,8.1h-1.9l-2.8-8h0v8h-2.4v-11.4H67z"/>
	<path class="st0" d="M80.1,532.5c0.3,0.3,0.8,0.5,1.5,0.5c0.5,0,0.9-0.1,1.2-0.3c0.3-0.2,0.5-0.5,0.6-0.7h2c-0.3,1-0.8,1.7-1.5,2.1
		s-1.5,0.6-2.4,0.6c-0.7,0-1.2-0.1-1.8-0.3c-0.5-0.2-1-0.5-1.3-0.9c-0.4-0.4-0.6-0.8-0.8-1.4s-0.3-1.1-0.3-1.8
		c0-0.6,0.1-1.2,0.3-1.7c0.2-0.5,0.5-1,0.9-1.4c0.4-0.4,0.8-0.7,1.3-0.9c0.5-0.2,1.1-0.3,1.7-0.3c0.7,0,1.3,0.1,1.8,0.4
		c0.5,0.3,1,0.6,1.3,1.1c0.3,0.5,0.6,1,0.7,1.6s0.2,1.2,0.2,1.8h-6C79.6,531.7,79.8,532.2,80.1,532.5z M82.7,528.2
		c-0.3-0.3-0.7-0.4-1.2-0.4c-0.4,0-0.7,0.1-0.9,0.2c-0.2,0.1-0.4,0.3-0.6,0.5c-0.1,0.2-0.2,0.4-0.3,0.6c-0.1,0.2-0.1,0.4-0.1,0.5
		h3.7C83.2,528.9,83,528.5,82.7,528.2z"/>
	<path class="st0" d="M89.1,526.2v1.1h0c0.3-0.4,0.7-0.8,1.1-1c0.4-0.2,0.9-0.4,1.4-0.4c0.5,0,1,0.1,1.4,0.3c0.4,0.2,0.8,0.6,1,1.1
		c0.2-0.4,0.6-0.7,1-1c0.4-0.3,0.9-0.4,1.5-0.4c0.4,0,0.8,0.1,1.2,0.2s0.7,0.3,1,0.5c0.3,0.2,0.5,0.5,0.6,0.9
		c0.1,0.4,0.2,0.8,0.2,1.4v5.5h-2.3v-4.7c0-0.3,0-0.5,0-0.8s-0.1-0.5-0.2-0.6c-0.1-0.2-0.2-0.3-0.4-0.4s-0.4-0.2-0.8-0.2
		c-0.3,0-0.6,0.1-0.8,0.2c-0.2,0.1-0.4,0.3-0.5,0.5s-0.2,0.4-0.2,0.7c0,0.3-0.1,0.5-0.1,0.8v4.6h-2.3v-4.6c0-0.2,0-0.5,0-0.7
		s-0.1-0.5-0.1-0.7c-0.1-0.2-0.2-0.4-0.4-0.5c-0.2-0.1-0.5-0.2-0.8-0.2c-0.1,0-0.2,0-0.4,0.1c-0.2,0-0.3,0.1-0.5,0.3
		c-0.2,0.1-0.3,0.3-0.4,0.6c-0.1,0.3-0.2,0.6-0.2,1v4.8H87v-8.3H89.1z"/>
	<path class="st0" d="M103.7,523.1v4.2h0c0.3-0.4,0.7-0.7,1.1-0.9s1-0.3,1.5-0.3c0.4,0,0.8,0.1,1.2,0.3c0.4,0.2,0.8,0.4,1.1,0.8
		c0.3,0.4,0.6,0.8,0.8,1.4c0.2,0.5,0.3,1.2,0.3,2c0,0.8-0.1,1.4-0.3,2c-0.2,0.5-0.5,1-0.8,1.4c-0.3,0.4-0.7,0.6-1.1,0.8
		c-0.4,0.2-0.8,0.3-1.2,0.3c-0.6,0-1.2-0.1-1.6-0.3c-0.5-0.2-0.8-0.5-1.1-1h0v1.1h-2.2v-11.4H103.7z M107.3,529.4
		c-0.1-0.3-0.2-0.6-0.4-0.8c-0.2-0.2-0.4-0.4-0.6-0.6c-0.2-0.1-0.5-0.2-0.9-0.2c-0.3,0-0.6,0.1-0.9,0.2c-0.2,0.1-0.4,0.3-0.6,0.6
		c-0.2,0.2-0.3,0.5-0.4,0.8c-0.1,0.3-0.1,0.7-0.1,1c0,0.3,0,0.7,0.1,1c0.1,0.3,0.2,0.6,0.4,0.8c0.2,0.2,0.4,0.4,0.6,0.6
		c0.2,0.1,0.5,0.2,0.9,0.2c0.3,0,0.6-0.1,0.9-0.2c0.2-0.1,0.4-0.3,0.6-0.6s0.3-0.5,0.4-0.8c0.1-0.3,0.1-0.7,0.1-1
		C107.4,530,107.4,529.7,107.3,529.4z"/>
	<path class="st0" d="M113.6,532.5c0.3,0.3,0.8,0.5,1.5,0.5c0.5,0,0.9-0.1,1.2-0.3c0.3-0.2,0.5-0.5,0.6-0.7h2
		c-0.3,1-0.8,1.7-1.5,2.1s-1.5,0.6-2.4,0.6c-0.7,0-1.2-0.1-1.8-0.3c-0.5-0.2-1-0.5-1.3-0.9c-0.4-0.4-0.6-0.8-0.8-1.4
		s-0.3-1.1-0.3-1.8c0-0.6,0.1-1.2,0.3-1.7c0.2-0.5,0.5-1,0.9-1.4c0.4-0.4,0.8-0.7,1.3-0.9c0.5-0.2,1.1-0.3,1.7-0.3
		c0.7,0,1.3,0.1,1.8,0.4c0.5,0.3,1,0.6,1.3,1.1c0.3,0.5,0.6,1,0.7,1.6s0.2,1.2,0.2,1.8h-6C113.1,531.7,113.2,532.2,113.6,532.5z
		 M116.2,528.2c-0.3-0.3-0.7-0.4-1.2-0.4c-0.4,0-0.7,0.1-0.9,0.2c-0.2,0.1-0.4,0.3-0.6,0.5c-0.1,0.2-0.2,0.4-0.3,0.6
		c-0.1,0.2-0.1,0.4-0.1,0.5h3.7C116.6,528.9,116.4,528.5,116.2,528.2z"/>
	<path class="st0" d="M122.5,526.2v1.5h0c0.1-0.3,0.3-0.5,0.4-0.7c0.2-0.2,0.4-0.4,0.6-0.6c0.2-0.2,0.5-0.3,0.8-0.4
		c0.3-0.1,0.5-0.1,0.8-0.1c0.1,0,0.3,0,0.5,0.1v2.1c-0.1,0-0.2,0-0.4-0.1c-0.1,0-0.3,0-0.4,0c-0.4,0-0.8,0.1-1.1,0.2
		s-0.5,0.3-0.7,0.6c-0.2,0.2-0.3,0.5-0.4,0.8c-0.1,0.3-0.1,0.7-0.1,1v3.7h-2.3v-8.3H122.5z"/>
	<path class="st0" d="M128.5,532.4c0.1,0.2,0.2,0.3,0.4,0.4s0.3,0.2,0.6,0.2s0.4,0.1,0.6,0.1c0.2,0,0.3,0,0.5-0.1
		c0.2,0,0.3-0.1,0.5-0.2c0.1-0.1,0.3-0.2,0.4-0.3c0.1-0.1,0.1-0.3,0.1-0.5c0-0.3-0.2-0.6-0.7-0.8c-0.5-0.2-1.1-0.3-1.9-0.5
		c-0.3-0.1-0.7-0.2-1-0.3c-0.3-0.1-0.6-0.2-0.8-0.4s-0.4-0.4-0.6-0.6s-0.2-0.6-0.2-0.9c0-0.5,0.1-1,0.3-1.3c0.2-0.3,0.5-0.6,0.8-0.8
		c0.3-0.2,0.7-0.3,1.2-0.4c0.4-0.1,0.9-0.1,1.3-0.1s0.9,0,1.3,0.1c0.4,0.1,0.8,0.2,1.1,0.4c0.3,0.2,0.6,0.5,0.8,0.8s0.3,0.8,0.4,1.3
		h-2.2c0-0.4-0.2-0.7-0.5-0.9c-0.3-0.2-0.7-0.2-1.1-0.2c-0.1,0-0.3,0-0.4,0c-0.1,0-0.3,0.1-0.4,0.1c-0.1,0.1-0.2,0.1-0.3,0.2
		c-0.1,0.1-0.1,0.2-0.1,0.4c0,0.2,0.1,0.4,0.2,0.5c0.1,0.1,0.3,0.2,0.6,0.3c0.2,0.1,0.5,0.2,0.8,0.2c0.3,0.1,0.6,0.1,0.9,0.2
		c0.3,0.1,0.7,0.2,1,0.3s0.6,0.2,0.8,0.4c0.2,0.2,0.4,0.4,0.6,0.7c0.1,0.3,0.2,0.6,0.2,1c0,0.5-0.1,1-0.3,1.4s-0.5,0.7-0.9,0.9
		c-0.4,0.2-0.8,0.4-1.2,0.5c-0.5,0.1-0.9,0.1-1.4,0.1c-0.5,0-0.9,0-1.4-0.1c-0.5-0.1-0.9-0.3-1.2-0.5s-0.7-0.5-0.9-0.9
		s-0.4-0.8-0.4-1.4h2.2C128.3,532.1,128.4,532.3,128.5,532.4z"/>
</g>
</svg>
