<?xml version="1.0" encoding="utf-8"?>
<!-- Generator: Adobe Illustrator 25.4.6, SVG Export Plug-In . SVG Version: 6.00 Build 0)  -->
<svg version="1.1" id="Layer_1" xmlns="http://www.w3.org/2000/svg" xmlns:xlink="http://www.w3.org/1999/xlink" x="0px" y="0px"
	 viewBox="0 0 300 600" style="enable-background:new 0 0 300 600;" xml:space="preserve">
<style type="text/css">
	.st0{fill:#339933;}
</style>
<g>
	<path class="st0" d="M49.3,497.6c0.3-0.9,0.7-1.6,1.3-2.2c0.6-0.6,1.2-1.1,2.1-1.5c0.8-0.4,1.7-0.5,2.8-0.5c1,0,2,0.2,2.8,0.5
		c0.8,0.4,1.5,0.9,2.1,1.5c0.6,0.6,1,1.4,1.3,2.2c0.3,0.9,0.4,1.8,0.4,2.8c0,1-0.1,1.9-0.4,2.7c-0.3,0.8-0.7,1.6-1.3,2.2
		c-0.6,0.6-1.2,1.1-2.1,1.5c-0.8,0.4-1.7,0.5-2.8,0.5c-1,0-1.9-0.2-2.8-0.5c-0.8-0.4-1.5-0.8-2.1-1.5c-0.6-0.6-1-1.4-1.3-2.2
		c-0.3-0.8-0.4-1.7-0.4-2.7C48.9,499.4,49,498.5,49.3,497.6z M52,502c0.1,0.5,0.3,1,0.6,1.4c0.3,0.4,0.7,0.8,1.1,1
		c0.5,0.3,1,0.4,1.7,0.4c0.7,0,1.2-0.1,1.7-0.4c0.5-0.3,0.8-0.6,1.1-1s0.5-0.9,0.6-1.4s0.2-1.1,0.2-1.6c0-0.6-0.1-1.2-0.2-1.7
		s-0.3-1-0.6-1.5c-0.3-0.4-0.7-0.8-1.1-1c-0.5-0.3-1-0.4-1.7-0.4c-0.7,0-1.2,0.1-1.7,0.4c-0.5,0.3-0.8,0.6-1.1,1
		c-0.3,0.4-0.5,0.9-0.6,1.5s-0.2,1.1-0.2,1.7C51.8,501,51.9,501.5,52,502z"/>
	<path class="st0" d="M66.3,497.4v1.3h0.1c0.3-0.6,0.8-1,1.3-1.2c0.5-0.3,1.1-0.4,1.6-0.4c0.7,0,1.3,0.1,1.7,0.3s0.8,0.5,1.1,0.8
		s0.4,0.8,0.6,1.3c0.1,0.5,0.2,1,0.2,1.6v5.9h-2.7v-5.5c0-0.8-0.1-1.4-0.4-1.8s-0.7-0.6-1.3-0.6c-0.7,0-1.2,0.2-1.6,0.6
		c-0.3,0.4-0.5,1.1-0.5,2.1v5.1h-2.7v-9.7H66.3z"/>
	<path class="st0" d="M77.6,493.7V507h-2.7v-13.4H77.6z"/>
	<path class="st0" d="M83.2,509.9c-0.5,0.3-1.2,0.5-2.1,0.5c-0.3,0-0.5,0-0.8,0s-0.5,0-0.8-0.1v-2.2c0.2,0,0.5,0,0.8,0.1
		c0.3,0,0.5,0,0.8,0c0.3,0,0.6-0.2,0.8-0.4c0.2-0.2,0.3-0.5,0.3-0.8c0-0.2,0-0.4-0.1-0.6l-3.4-9.1h2.8l2.2,6.6h0l2.1-6.6h2.7
		l-4,10.9C84.1,509,83.7,509.6,83.2,509.9z"/>
	<path class="st0" d="M93.5,499.1v-1.8h1.6v-0.7c0-0.9,0.3-1.6,0.8-2.1c0.5-0.5,1.3-0.8,2.4-0.8c0.2,0,0.5,0,0.7,0
		c0.2,0,0.5,0,0.7,0v2c-0.3,0-0.6-0.1-1-0.1c-0.4,0-0.6,0.1-0.8,0.3c-0.2,0.2-0.2,0.5-0.2,0.9v0.6h1.8v1.8h-1.8v7.9h-2.7v-7.9H93.5z
		"/>
	<path class="st0" d="M100.8,500.1c0.2-0.6,0.6-1.2,1-1.6c0.4-0.4,1-0.8,1.6-1s1.3-0.4,2.1-0.4c0.8,0,1.4,0.1,2.1,0.4
		c0.6,0.2,1.1,0.6,1.6,1c0.4,0.4,0.8,1,1,1.6c0.2,0.6,0.4,1.3,0.4,2.1c0,0.8-0.1,1.5-0.4,2.1c-0.2,0.6-0.6,1.2-1,1.6
		c-0.4,0.4-1,0.8-1.6,1c-0.6,0.2-1.3,0.4-2.1,0.4c-0.8,0-1.4-0.1-2.1-0.4s-1.1-0.6-1.6-1c-0.4-0.4-0.8-1-1-1.6
		c-0.2-0.6-0.4-1.3-0.4-2.1C100.5,501.4,100.6,500.7,100.8,500.1z M103.3,503.3c0.1,0.4,0.2,0.7,0.4,1s0.4,0.5,0.7,0.7
		s0.7,0.3,1.1,0.3s0.8-0.1,1.1-0.3c0.3-0.2,0.5-0.4,0.7-0.7s0.3-0.6,0.4-1c0.1-0.4,0.1-0.7,0.1-1.1c0-0.4,0-0.8-0.1-1.1
		c-0.1-0.4-0.2-0.7-0.4-1c-0.2-0.3-0.4-0.5-0.7-0.7c-0.3-0.2-0.7-0.3-1.1-0.3s-0.8,0.1-1.1,0.3s-0.5,0.4-0.7,0.7
		c-0.2,0.3-0.3,0.6-0.4,1c-0.1,0.4-0.1,0.8-0.1,1.1C103.1,502.6,103.2,503,103.3,503.3z"/>
	<path class="st0" d="M114.7,497.4v1.8h0c0.1-0.3,0.3-0.6,0.5-0.8c0.2-0.3,0.5-0.5,0.7-0.7c0.3-0.2,0.6-0.3,0.9-0.4
		c0.3-0.1,0.6-0.1,1-0.1c0.2,0,0.4,0,0.6,0.1v2.5c-0.1,0-0.3,0-0.4-0.1c-0.2,0-0.3,0-0.5,0c-0.5,0-0.9,0.1-1.2,0.2
		c-0.3,0.2-0.6,0.4-0.8,0.7c-0.2,0.3-0.4,0.6-0.4,1s-0.1,0.8-0.1,1.2v4.4h-2.7v-9.7H114.7z"/>
	<path class="st0" d="M131.6,493.7l5,13.4h-3l-1-3h-5l-1,3h-3l5-13.4H131.6z M131.8,501.9l-1.7-4.9h0l-1.7,4.9H131.8z"/>
	<path class="st0" d="M143.5,493.7c0.9,0,1.7,0.1,2.4,0.4s1.4,0.7,1.9,1.2c0.5,0.5,1,1.2,1.3,2.1c0.3,0.8,0.5,1.8,0.5,2.9
		c0,1-0.1,1.9-0.4,2.7c-0.2,0.8-0.6,1.5-1.1,2.1c-0.5,0.6-1.1,1.1-1.9,1.4c-0.8,0.3-1.6,0.5-2.7,0.5h-5.8v-13.4H143.5z M143.3,504.6
		c0.4,0,0.8-0.1,1.2-0.2c0.4-0.1,0.8-0.4,1.1-0.7c0.3-0.3,0.6-0.7,0.7-1.2c0.2-0.5,0.3-1.1,0.3-1.9c0-0.7-0.1-1.3-0.2-1.8
		c-0.1-0.5-0.3-1-0.6-1.4s-0.7-0.7-1.2-0.9c-0.5-0.2-1.1-0.3-1.8-0.3h-2.1v8.4H143.3z"/>
	<path class="st0" d="M158.3,493.7l5,13.4h-3l-1-3h-5l-1,3h-3l5-13.4H158.3z M158.5,501.9l-1.7-4.9h0l-1.7,4.9H158.5z"/>
	<path class="st0" d="M173.8,493.7l3.1,9.2h0l3-9.2h4.1V507h-2.7v-9.5h0L178,507h-2.3l-3.3-9.4h0v9.4h-2.7v-13.4H173.8z"/>
	<path class="st0" d="M189.2,504.7c0.4,0.4,1,0.6,1.7,0.6c0.5,0,1-0.1,1.4-0.4c0.4-0.3,0.6-0.6,0.7-0.9h2.3c-0.4,1.2-0.9,2-1.7,2.5
		c-0.8,0.5-1.7,0.7-2.8,0.7c-0.8,0-1.4-0.1-2.1-0.4c-0.6-0.2-1.1-0.6-1.6-1c-0.4-0.4-0.8-1-1-1.6c-0.2-0.6-0.3-1.3-0.3-2.1
		c0-0.7,0.1-1.4,0.4-2c0.2-0.6,0.6-1.2,1-1.6s1-0.8,1.6-1.1s1.3-0.4,2-0.4c0.8,0,1.5,0.2,2.2,0.5c0.6,0.3,1.1,0.7,1.5,1.3
		s0.7,1.1,0.9,1.8c0.2,0.7,0.2,1.4,0.2,2.2h-7C188.5,503.7,188.8,504.3,189.2,504.7z M192.2,499.6c-0.3-0.3-0.8-0.5-1.4-0.5
		c-0.4,0-0.8,0.1-1.1,0.2c-0.3,0.1-0.5,0.3-0.7,0.5c-0.2,0.2-0.3,0.4-0.4,0.7c-0.1,0.2-0.1,0.4-0.1,0.6h4.3
		C192.7,500.5,192.5,500,192.2,499.6z"/>
	<path class="st0" d="M199.6,497.4v1.3h0c0.3-0.5,0.8-0.9,1.3-1.2c0.5-0.3,1.1-0.4,1.7-0.4c0.6,0,1.2,0.1,1.7,0.4
		c0.5,0.2,0.9,0.7,1.2,1.3c0.3-0.4,0.7-0.8,1.2-1.1c0.5-0.3,1.1-0.5,1.7-0.5c0.5,0,1,0.1,1.4,0.2c0.4,0.1,0.8,0.3,1.1,0.6
		c0.3,0.3,0.6,0.6,0.7,1.1c0.2,0.4,0.3,1,0.3,1.6v6.5h-2.7v-5.5c0-0.3,0-0.6,0-0.9c0-0.3-0.1-0.5-0.2-0.7s-0.3-0.4-0.5-0.5
		c-0.2-0.1-0.5-0.2-0.9-0.2s-0.7,0.1-0.9,0.2s-0.4,0.3-0.5,0.6c-0.1,0.2-0.2,0.5-0.3,0.8s-0.1,0.6-0.1,0.9v5.4h-2.7v-5.4
		c0-0.3,0-0.6,0-0.9c0-0.3-0.1-0.5-0.2-0.8c-0.1-0.2-0.2-0.4-0.5-0.6s-0.5-0.2-1-0.2c-0.1,0-0.3,0-0.5,0.1c-0.2,0.1-0.4,0.2-0.6,0.3
		c-0.2,0.2-0.4,0.4-0.5,0.7c-0.1,0.3-0.2,0.7-0.2,1.1v5.6h-2.7v-9.7H199.6z"/>
	<path class="st0" d="M216.6,493.7v4.9h0c0.3-0.5,0.8-0.9,1.3-1.1c0.6-0.2,1.1-0.3,1.7-0.3c0.5,0,1,0.1,1.4,0.3
		c0.5,0.2,0.9,0.5,1.3,0.9c0.4,0.4,0.7,0.9,0.9,1.6c0.2,0.6,0.4,1.4,0.4,2.3c0,0.9-0.1,1.6-0.4,2.3c-0.2,0.6-0.5,1.2-0.9,1.6
		c-0.4,0.4-0.8,0.7-1.3,0.9c-0.5,0.2-1,0.3-1.4,0.3c-0.7,0-1.3-0.1-1.9-0.3c-0.6-0.2-1-0.6-1.3-1.1h0v1.2H214v-13.4H216.6z
		 M220.9,501c-0.1-0.4-0.2-0.7-0.4-1c-0.2-0.3-0.4-0.5-0.7-0.7c-0.3-0.2-0.6-0.3-1-0.3c-0.4,0-0.7,0.1-1,0.3
		c-0.3,0.2-0.5,0.4-0.7,0.7c-0.2,0.3-0.3,0.6-0.4,1c-0.1,0.4-0.1,0.8-0.1,1.2c0,0.4,0,0.8,0.1,1.2c0.1,0.4,0.2,0.7,0.4,1
		c0.2,0.3,0.4,0.5,0.7,0.7c0.3,0.2,0.6,0.3,1,0.3c0.4,0,0.7-0.1,1-0.3c0.3-0.2,0.5-0.4,0.7-0.7c0.2-0.3,0.3-0.6,0.4-1
		c0.1-0.4,0.1-0.8,0.1-1.2C221.1,501.8,221,501.4,220.9,501z"/>
	<path class="st0" d="M228.3,504.7c0.4,0.4,1,0.6,1.7,0.6c0.5,0,1-0.1,1.4-0.4c0.4-0.3,0.6-0.6,0.7-0.9h2.3c-0.4,1.2-0.9,2-1.7,2.5
		c-0.8,0.5-1.7,0.7-2.8,0.7c-0.8,0-1.4-0.1-2.1-0.4c-0.6-0.2-1.1-0.6-1.6-1c-0.4-0.4-0.8-1-1-1.6c-0.2-0.6-0.3-1.3-0.3-2.1
		c0-0.7,0.1-1.4,0.4-2c0.2-0.6,0.6-1.2,1-1.6s1-0.8,1.6-1.1s1.3-0.4,2-0.4c0.8,0,1.5,0.2,2.2,0.5c0.6,0.3,1.1,0.7,1.5,1.3
		s0.7,1.1,0.9,1.8c0.2,0.7,0.2,1.4,0.2,2.2h-7C227.6,503.7,227.9,504.3,228.3,504.7z M231.3,499.6c-0.3-0.3-0.8-0.5-1.4-0.5
		c-0.4,0-0.8,0.1-1.1,0.2c-0.3,0.1-0.5,0.3-0.7,0.5c-0.2,0.2-0.3,0.4-0.4,0.7c-0.1,0.2-0.1,0.4-0.1,0.6h4.3
		C231.8,500.5,231.6,500,231.3,499.6z"/>
	<path class="st0" d="M238.7,497.4v1.8h0c0.1-0.3,0.3-0.6,0.5-0.8c0.2-0.3,0.5-0.5,0.7-0.7s0.6-0.3,0.9-0.4c0.3-0.1,0.6-0.1,1-0.1
		c0.2,0,0.4,0,0.6,0.1v2.5c-0.1,0-0.3,0-0.4-0.1c-0.2,0-0.3,0-0.5,0c-0.5,0-0.9,0.1-1.2,0.2s-0.6,0.4-0.8,0.7
		c-0.2,0.3-0.4,0.6-0.4,1s-0.1,0.8-0.1,1.2v4.4h-2.7v-9.7H238.7z"/>
	<path class="st0" d="M245.7,504.6c0.1,0.2,0.3,0.4,0.5,0.5c0.2,0.1,0.4,0.2,0.6,0.3s0.5,0.1,0.8,0.1c0.2,0,0.4,0,0.6-0.1
		c0.2,0,0.4-0.1,0.6-0.2c0.2-0.1,0.3-0.2,0.4-0.4c0.1-0.2,0.2-0.4,0.2-0.6c0-0.4-0.3-0.7-0.8-0.9c-0.5-0.2-1.3-0.4-2.2-0.6
		c-0.4-0.1-0.8-0.2-1.1-0.3c-0.4-0.1-0.7-0.3-1-0.5c-0.3-0.2-0.5-0.4-0.7-0.7s-0.3-0.7-0.3-1.1c0-0.6,0.1-1.1,0.4-1.5
		c0.2-0.4,0.6-0.7,1-0.9c0.4-0.2,0.8-0.4,1.3-0.5c0.5-0.1,1-0.1,1.5-0.1c0.5,0,1,0,1.5,0.1c0.5,0.1,0.9,0.3,1.3,0.5
		c0.4,0.2,0.7,0.6,1,0.9c0.3,0.4,0.4,0.9,0.5,1.5h-2.5c0-0.5-0.2-0.9-0.6-1c-0.3-0.2-0.8-0.3-1.2-0.3c-0.1,0-0.3,0-0.5,0
		s-0.3,0.1-0.5,0.1c-0.1,0.1-0.3,0.2-0.4,0.3s-0.1,0.3-0.1,0.5c0,0.2,0.1,0.4,0.3,0.6s0.4,0.3,0.7,0.4c0.3,0.1,0.6,0.2,1,0.3
		c0.4,0.1,0.7,0.2,1.1,0.2c0.4,0.1,0.8,0.2,1.1,0.3c0.4,0.1,0.7,0.3,1,0.5c0.3,0.2,0.5,0.5,0.7,0.8c0.2,0.3,0.3,0.7,0.3,1.1
		c0,0.6-0.1,1.2-0.4,1.6c-0.3,0.4-0.6,0.8-1,1c-0.4,0.3-0.9,0.4-1.4,0.6c-0.5,0.1-1.1,0.2-1.6,0.2c-0.6,0-1.1-0.1-1.6-0.2
		c-0.5-0.1-1-0.3-1.4-0.6c-0.4-0.3-0.8-0.6-1-1c-0.3-0.4-0.4-1-0.4-1.6h2.5C245.5,504.2,245.5,504.4,245.7,504.6z"/>
</g>
</svg>
