<?xml version="1.0" encoding="utf-8"?>
<!-- Generator: Adobe Illustrator 25.4.1, SVG Export Plug-In . SVG Version: 6.00 Build 0)  -->
<svg version="1.1" id="Layer_1" xmlns="http://www.w3.org/2000/svg" xmlns:xlink="http://www.w3.org/1999/xlink" x="0px" y="0px"
	 viewBox="0 0 728 90" style="enable-background:new 0 0 728 90;" xml:space="preserve">
<style type="text/css">
	.st0{fill:#339933;}
</style>
<g>
	<path class="st0" d="M36.4,35.2c1.3,0,2.5,0.2,3.4,0.6c0.9,0.4,1.7,0.9,2.3,1.5c0.6,0.6,1,1.4,1.3,2.2c0.3,0.8,0.4,1.7,0.4,2.6
		c0,0.9-0.1,1.7-0.4,2.5c-0.3,0.8-0.7,1.6-1.3,2.2c-0.6,0.6-1.4,1.2-2.3,1.5c-0.9,0.4-2.1,0.6-3.4,0.6h-5v7.7h-4.7V35.2H36.4z
		 M35.1,45.3c0.5,0,1.1,0,1.6-0.1c0.5-0.1,0.9-0.2,1.3-0.5s0.7-0.6,0.9-1s0.3-1,0.3-1.6c0-0.7-0.1-1.2-0.3-1.7
		c-0.2-0.4-0.5-0.7-0.9-1s-0.8-0.4-1.3-0.5c-0.5-0.1-1-0.1-1.6-0.1h-3.7v6.4H35.1z"/>
	<path class="st0" d="M50.4,41.2V44h0.1c0.2-0.5,0.5-0.9,0.8-1.3c0.3-0.4,0.7-0.8,1.2-1.1c0.4-0.3,0.9-0.5,1.4-0.7
		c0.5-0.2,1-0.2,1.6-0.2c0.3,0,0.6,0.1,0.9,0.2v4c-0.2,0-0.4-0.1-0.7-0.1c-0.3,0-0.6,0-0.8,0c-0.8,0-1.4,0.1-2,0.4
		c-0.5,0.3-1,0.6-1.3,1.1c-0.3,0.4-0.6,1-0.7,1.6c-0.1,0.6-0.2,1.3-0.2,2v7h-4.3V41.2H50.4z"/>
	<path class="st0" d="M57.8,45.9c0.1-1,0.3-1.8,0.8-2.5s1-1.2,1.7-1.6c0.7-0.4,1.4-0.7,2.3-0.9c0.8-0.2,1.7-0.3,2.6-0.3
		c0.8,0,1.6,0.1,2.4,0.2c0.8,0.1,1.5,0.3,2.2,0.6c0.7,0.3,1.2,0.8,1.6,1.3c0.4,0.6,0.6,1.3,0.6,2.3v8.1c0,0.7,0,1.4,0.1,2
		c0.1,0.6,0.2,1.1,0.4,1.4h-4.3c-0.1-0.2-0.1-0.5-0.2-0.7c-0.1-0.2-0.1-0.5-0.1-0.8c-0.7,0.7-1.5,1.2-2.4,1.5
		c-0.9,0.3-1.9,0.4-2.8,0.4c-0.7,0-1.4-0.1-2.1-0.3s-1.2-0.5-1.7-0.8c-0.5-0.4-0.9-0.9-1.1-1.4c-0.3-0.6-0.4-1.3-0.4-2.1
		c0-0.9,0.2-1.6,0.5-2.2c0.3-0.6,0.7-1,1.2-1.4c0.5-0.3,1-0.6,1.7-0.8c0.6-0.2,1.3-0.3,1.9-0.4c0.6-0.1,1.3-0.2,1.9-0.2
		c0.6-0.1,1.2-0.2,1.6-0.3s0.9-0.3,1.1-0.5c0.3-0.2,0.4-0.6,0.4-1c0-0.5-0.1-0.8-0.2-1.1c-0.2-0.3-0.4-0.5-0.6-0.6
		c-0.3-0.1-0.5-0.2-0.9-0.3s-0.7-0.1-1.1-0.1c-0.8,0-1.5,0.2-2,0.5s-0.8,1-0.8,1.8H57.8z M67.7,49.1c-0.2,0.2-0.4,0.3-0.7,0.4
		s-0.6,0.2-0.9,0.2c-0.3,0.1-0.6,0.1-1,0.2s-0.7,0.1-1,0.1c-0.3,0.1-0.6,0.1-0.9,0.2c-0.3,0.1-0.6,0.2-0.8,0.4s-0.4,0.4-0.6,0.6
		c-0.1,0.3-0.2,0.6-0.2,1c0,0.4,0.1,0.7,0.2,1c0.1,0.3,0.3,0.5,0.6,0.6s0.5,0.3,0.8,0.3c0.3,0.1,0.6,0.1,1,0.1
		c0.8,0,1.5-0.1,1.9-0.4s0.8-0.6,1-1c0.2-0.4,0.4-0.8,0.4-1.2c0-0.4,0.1-0.7,0.1-1V49.1z"/>
	<path class="st0" d="M82.6,43.9c-0.7,0-1.2,0.2-1.7,0.5s-0.8,0.7-1.1,1.2s-0.5,1-0.6,1.6S79,48.4,79,49c0,0.6,0.1,1.1,0.2,1.7
		s0.3,1.1,0.6,1.6s0.6,0.9,1.1,1.2s1,0.5,1.7,0.5c1,0,1.8-0.3,2.4-0.9c0.5-0.6,0.9-1.3,1-2.3H90c-0.3,2.1-1.1,3.6-2.4,4.7
		c-1.3,1.1-3,1.6-5.1,1.6c-1.2,0-2.2-0.2-3.2-0.6c-1-0.4-1.8-0.9-2.5-1.6c-0.7-0.7-1.2-1.5-1.6-2.5c-0.4-1-0.6-2-0.6-3.2
		c0-1.2,0.2-2.3,0.5-3.3c0.3-1,0.9-1.9,1.5-2.7c0.7-0.8,1.5-1.3,2.5-1.8c1-0.4,2.1-0.6,3.4-0.6c0.9,0,1.8,0.1,2.7,0.4
		c0.9,0.2,1.6,0.6,2.3,1.1c0.7,0.5,1.2,1.1,1.6,1.8c0.4,0.7,0.7,1.6,0.7,2.6h-4.2C85.5,44.8,84.4,43.9,82.6,43.9z"/>
	<path class="st0" d="M101,41.2V44h-3.1v7.7c0,0.7,0.1,1.2,0.4,1.4c0.2,0.2,0.7,0.4,1.4,0.4c0.2,0,0.5,0,0.7,0c0.2,0,0.4,0,0.6-0.1
		v3.3c-0.4,0.1-0.8,0.1-1.2,0.1c-0.4,0-0.9,0-1.3,0c-0.7,0-1.3,0-1.9-0.1c-0.6-0.1-1.1-0.3-1.6-0.5c-0.4-0.3-0.8-0.6-1.1-1.1
		c-0.3-0.5-0.4-1.1-0.4-1.9V44H91v-2.8h2.6v-4.7h4.3v4.7H101z"/>
	<path class="st0" d="M103.1,38.8v-3.5h4.3v3.5H103.1z M107.4,41.2v15.5h-4.3V41.2H107.4z"/>
	<path class="st0" d="M118.1,43.9c-0.7,0-1.2,0.2-1.7,0.5s-0.8,0.7-1.1,1.2s-0.5,1-0.6,1.6s-0.2,1.2-0.2,1.8c0,0.6,0.1,1.1,0.2,1.7
		s0.3,1.1,0.6,1.6s0.6,0.9,1.1,1.2s1,0.5,1.7,0.5c1,0,1.8-0.3,2.4-0.9c0.5-0.6,0.9-1.3,1-2.3h4.1c-0.3,2.1-1.1,3.6-2.4,4.7
		c-1.3,1.1-3,1.6-5.1,1.6c-1.2,0-2.2-0.2-3.2-0.6c-1-0.4-1.8-0.9-2.5-1.6c-0.7-0.7-1.2-1.5-1.6-2.5c-0.4-1-0.6-2-0.6-3.2
		c0-1.2,0.2-2.3,0.5-3.3c0.3-1,0.9-1.9,1.5-2.7c0.7-0.8,1.5-1.3,2.5-1.8c1-0.4,2.1-0.6,3.4-0.6c0.9,0,1.8,0.1,2.7,0.4
		c0.9,0.2,1.6,0.6,2.3,1.1c0.7,0.5,1.2,1.1,1.6,1.8c0.4,0.7,0.7,1.6,0.7,2.6h-4.2C121,44.8,120,43.9,118.1,43.9z"/>
	<path class="st0" d="M127.8,45.9c0.1-1,0.3-1.8,0.8-2.5s1-1.2,1.7-1.6c0.7-0.4,1.4-0.7,2.3-0.9c0.8-0.2,1.7-0.3,2.6-0.3
		c0.8,0,1.6,0.1,2.4,0.2c0.8,0.1,1.5,0.3,2.2,0.6c0.7,0.3,1.2,0.8,1.6,1.3c0.4,0.6,0.6,1.3,0.6,2.3v8.1c0,0.7,0,1.4,0.1,2
		c0.1,0.6,0.2,1.1,0.4,1.4h-4.3c-0.1-0.2-0.1-0.5-0.2-0.7c-0.1-0.2-0.1-0.5-0.1-0.8c-0.7,0.7-1.5,1.2-2.4,1.5
		c-0.9,0.3-1.9,0.4-2.8,0.4c-0.7,0-1.4-0.1-2.1-0.3s-1.2-0.5-1.7-0.8c-0.5-0.4-0.9-0.9-1.1-1.4c-0.3-0.6-0.4-1.3-0.4-2.1
		c0-0.9,0.2-1.6,0.5-2.2c0.3-0.6,0.7-1,1.2-1.4c0.5-0.3,1-0.6,1.7-0.8c0.6-0.2,1.3-0.3,1.9-0.4c0.6-0.1,1.3-0.2,1.9-0.2
		c0.6-0.1,1.2-0.2,1.6-0.3s0.9-0.3,1.1-0.5c0.3-0.2,0.4-0.6,0.4-1c0-0.5-0.1-0.8-0.2-1.1c-0.2-0.3-0.4-0.5-0.6-0.6
		c-0.3-0.1-0.5-0.2-0.9-0.3s-0.7-0.1-1.1-0.1c-0.8,0-1.5,0.2-2,0.5s-0.8,1-0.8,1.8H127.8z M137.6,49.1c-0.2,0.2-0.4,0.3-0.7,0.4
		s-0.6,0.2-0.9,0.2c-0.3,0.1-0.6,0.1-1,0.2s-0.7,0.1-1,0.1c-0.3,0.1-0.6,0.1-0.9,0.2c-0.3,0.1-0.6,0.2-0.8,0.4s-0.4,0.4-0.6,0.6
		c-0.1,0.3-0.2,0.6-0.2,1c0,0.4,0.1,0.7,0.2,1c0.1,0.3,0.3,0.5,0.6,0.6s0.5,0.3,0.8,0.3c0.3,0.1,0.6,0.1,1,0.1
		c0.8,0,1.5-0.1,1.9-0.4s0.8-0.6,1-1c0.2-0.4,0.4-0.8,0.4-1.2c0-0.4,0.1-0.7,0.1-1V49.1z"/>
	<path class="st0" d="M149.6,35.2v21.4h-4.3V35.2H149.6z"/>
	<path class="st0" d="M177.4,56.7l-3.6-14.6h-0.1l-3.6,14.6h-4.8l-5.7-21.4h4.7l3.4,14.6h0.1l3.7-14.6h4.4l3.7,14.8h0.1l3.5-14.8
		h4.6l-5.8,21.4H177.4z"/>
	<path class="st0" d="M189.7,38.8v-3.5h4.3v3.5H189.7z M194,41.2v15.5h-4.3V41.2H194z"/>
	<path class="st0" d="M200.9,52.8c0.2,0.3,0.4,0.6,0.7,0.8c0.3,0.2,0.6,0.4,1,0.5c0.4,0.1,0.8,0.2,1.2,0.2c0.3,0,0.6,0,0.9-0.1
		c0.3-0.1,0.6-0.2,0.9-0.3c0.3-0.1,0.5-0.3,0.7-0.6s0.3-0.6,0.3-0.9c0-0.6-0.4-1.1-1.3-1.4c-0.9-0.3-2-0.6-3.6-1
		c-0.6-0.1-1.2-0.3-1.8-0.5c-0.6-0.2-1.1-0.4-1.6-0.8c-0.5-0.3-0.8-0.7-1.1-1.2c-0.3-0.5-0.4-1-0.4-1.7c0-1,0.2-1.8,0.6-2.5
		c0.4-0.6,0.9-1.1,1.5-1.5s1.4-0.6,2.2-0.8c0.8-0.1,1.6-0.2,2.5-0.2s1.7,0.1,2.4,0.2c0.8,0.2,1.5,0.4,2.1,0.8
		c0.6,0.4,1.1,0.9,1.5,1.5c0.4,0.6,0.7,1.4,0.7,2.4h-4c-0.1-0.8-0.4-1.4-0.9-1.7c-0.6-0.3-1.2-0.4-2-0.4c-0.2,0-0.5,0-0.8,0
		c-0.3,0-0.5,0.1-0.8,0.2s-0.4,0.2-0.6,0.4c-0.2,0.2-0.2,0.4-0.2,0.8c0,0.4,0.1,0.7,0.4,0.9c0.3,0.2,0.6,0.4,1.1,0.6
		c0.5,0.2,1,0.3,1.5,0.4s1.2,0.2,1.8,0.4c0.6,0.1,1.2,0.3,1.8,0.5c0.6,0.2,1.1,0.5,1.6,0.8c0.5,0.3,0.8,0.7,1.1,1.2
		c0.3,0.5,0.4,1.1,0.4,1.8c0,1-0.2,1.9-0.6,2.6c-0.4,0.7-0.9,1.2-1.6,1.7s-1.4,0.7-2.3,0.9s-1.7,0.3-2.6,0.3c-0.9,0-1.8-0.1-2.6-0.3
		c-0.9-0.2-1.6-0.5-2.3-0.9c-0.7-0.4-1.2-1-1.6-1.7c-0.4-0.7-0.7-1.6-0.7-2.6h4C200.6,52.1,200.7,52.5,200.9,52.8z"/>
	<path class="st0" d="M224.4,54.7c-0.5,0.8-1.2,1.4-2,1.8s-1.7,0.6-2.7,0.6c-1.2,0-2.2-0.2-3.1-0.7c-0.9-0.5-1.6-1.1-2.2-1.8
		c-0.6-0.8-1-1.7-1.3-2.7c-0.3-1-0.4-2-0.4-3.1c0-1,0.1-2,0.4-3c0.3-1,0.7-1.8,1.3-2.6c0.6-0.7,1.3-1.3,2.1-1.8
		c0.9-0.5,1.9-0.7,3-0.7c0.9,0,1.8,0.2,2.6,0.6c0.8,0.4,1.5,1,2,1.7h0.1v-7.8h4.3v21.4h-4.1L224.4,54.7L224.4,54.7z M224.3,47
		c-0.1-0.6-0.3-1.1-0.6-1.6c-0.3-0.4-0.7-0.8-1.1-1.1c-0.5-0.3-1-0.4-1.7-0.4c-0.7,0-1.3,0.1-1.8,0.4s-0.9,0.6-1.2,1.1
		c-0.3,0.5-0.5,1-0.6,1.6c-0.1,0.6-0.2,1.2-0.2,1.8c0,0.6,0.1,1.2,0.2,1.8c0.1,0.6,0.4,1.1,0.7,1.6c0.3,0.5,0.7,0.9,1.2,1.1
		c0.5,0.3,1,0.4,1.7,0.4c0.7,0,1.3-0.1,1.8-0.4c0.5-0.3,0.8-0.7,1.1-1.1c0.3-0.5,0.5-1,0.6-1.6c0.1-0.6,0.2-1.2,0.2-1.9
		S224.4,47.6,224.3,47z"/>
	<path class="st0" d="M231.8,45.6c0.4-1,0.9-1.9,1.6-2.6c0.7-0.7,1.5-1.3,2.5-1.7c1-0.4,2.1-0.6,3.3-0.6c1.2,0,2.3,0.2,3.3,0.6
		c1,0.4,1.8,0.9,2.5,1.7c0.7,0.7,1.2,1.6,1.6,2.6c0.4,1,0.6,2.1,0.6,3.4c0,1.2-0.2,2.4-0.6,3.4c-0.4,1-0.9,1.9-1.6,2.6
		c-0.7,0.7-1.5,1.3-2.5,1.6c-1,0.4-2.1,0.6-3.3,0.6c-1.2,0-2.3-0.2-3.3-0.6c-1-0.4-1.8-0.9-2.5-1.6c-0.7-0.7-1.2-1.6-1.6-2.6
		s-0.6-2.1-0.6-3.4C231.3,47.7,231.5,46.6,231.8,45.6z M235.7,50.7c0.1,0.6,0.3,1.1,0.6,1.6s0.7,0.8,1.2,1.1s1.1,0.4,1.8,0.4
		c0.7,0,1.3-0.1,1.8-0.4s0.9-0.7,1.2-1.1s0.5-1,0.6-1.6s0.2-1.2,0.2-1.8c0-0.6-0.1-1.2-0.2-1.8c-0.1-0.6-0.3-1.1-0.6-1.6
		c-0.3-0.5-0.7-0.8-1.2-1.1c-0.5-0.3-1.1-0.4-1.8-0.4c-0.7,0-1.3,0.1-1.8,0.4c-0.5,0.3-0.9,0.7-1.2,1.1c-0.3,0.5-0.5,1-0.6,1.6
		c-0.1,0.6-0.2,1.2-0.2,1.8C235.5,49.5,235.6,50.2,235.7,50.7z"/>
	<path class="st0" d="M254.2,41.2v2.1h0.1c0.6-0.8,1.2-1.4,2-1.9c0.8-0.4,1.7-0.7,2.7-0.7c1,0,1.9,0.2,2.7,0.6s1.4,1,1.8,2
		c0.5-0.7,1.1-1.3,1.9-1.8s1.7-0.8,2.8-0.8c0.8,0,1.6,0.1,2.3,0.3c0.7,0.2,1.3,0.5,1.8,1c0.5,0.4,0.9,1,1.2,1.7
		c0.3,0.7,0.4,1.6,0.4,2.6v10.4h-4.3v-8.8c0-0.5,0-1-0.1-1.5c0-0.5-0.1-0.9-0.3-1.2c-0.2-0.3-0.4-0.6-0.8-0.8
		c-0.4-0.2-0.8-0.3-1.4-0.3c-0.6,0-1.1,0.1-1.5,0.3c-0.4,0.2-0.7,0.5-0.9,0.9c-0.2,0.4-0.4,0.8-0.4,1.3c-0.1,0.5-0.1,0.9-0.1,1.4
		v8.6h-4.3V48c0-0.5,0-0.9,0-1.4c0-0.4-0.1-0.9-0.3-1.2c-0.1-0.4-0.4-0.7-0.8-0.9c-0.4-0.2-0.9-0.3-1.5-0.3c-0.2,0-0.5,0-0.8,0.1
		s-0.6,0.3-1,0.5c-0.3,0.2-0.6,0.6-0.8,1.1c-0.2,0.5-0.3,1.1-0.3,1.8v9h-4.3V41.2H254.2z"/>
	<path class="st0" d="M284,44v-2.8h2.5V40c0-1.4,0.4-2.5,1.3-3.4c0.9-0.9,2.2-1.3,3.9-1.3c0.4,0,0.8,0,1.1,0s0.8,0.1,1.1,0.1v3.2
		c-0.5-0.1-1-0.1-1.6-0.1c-0.6,0-1,0.1-1.2,0.4c-0.3,0.3-0.4,0.7-0.4,1.4v0.9h2.9V44h-2.9v12.7h-4.3V44H284z"/>
	<path class="st0" d="M295.7,45.6c0.4-1,0.9-1.9,1.6-2.6c0.7-0.7,1.5-1.3,2.5-1.7c1-0.4,2.1-0.6,3.3-0.6c1.2,0,2.3,0.2,3.3,0.6
		c1,0.4,1.8,0.9,2.5,1.7c0.7,0.7,1.2,1.6,1.6,2.6c0.4,1,0.6,2.1,0.6,3.4c0,1.2-0.2,2.4-0.6,3.4c-0.4,1-0.9,1.9-1.6,2.6
		c-0.7,0.7-1.5,1.3-2.5,1.6c-1,0.4-2.1,0.6-3.3,0.6c-1.2,0-2.3-0.2-3.3-0.6c-1-0.4-1.8-0.9-2.5-1.6c-0.7-0.7-1.2-1.6-1.6-2.6
		s-0.6-2.1-0.6-3.4C295.1,47.7,295.3,46.6,295.7,45.6z M299.5,50.7c0.1,0.6,0.3,1.1,0.6,1.6s0.7,0.8,1.2,1.1s1.1,0.4,1.8,0.4
		c0.7,0,1.3-0.1,1.8-0.4s0.9-0.7,1.2-1.1s0.5-1,0.6-1.6s0.2-1.2,0.2-1.8c0-0.6-0.1-1.2-0.2-1.8c-0.1-0.6-0.3-1.1-0.6-1.6
		c-0.3-0.5-0.7-0.8-1.2-1.1c-0.5-0.3-1.1-0.4-1.8-0.4c-0.7,0-1.3,0.1-1.8,0.4c-0.5,0.3-0.9,0.7-1.2,1.1c-0.3,0.5-0.5,1-0.6,1.6
		c-0.1,0.6-0.2,1.2-0.2,1.8C299.4,49.5,299.4,50.2,299.5,50.7z"/>
	<path class="st0" d="M318,41.2V44h0.1c0.2-0.5,0.5-0.9,0.8-1.3c0.3-0.4,0.7-0.8,1.2-1.1c0.4-0.3,0.9-0.5,1.4-0.7
		c0.5-0.2,1-0.2,1.6-0.2c0.3,0,0.6,0.1,0.9,0.2v4c-0.2,0-0.4-0.1-0.7-0.1c-0.3,0-0.6,0-0.8,0c-0.8,0-1.4,0.1-2,0.4
		c-0.5,0.3-1,0.6-1.3,1.1c-0.3,0.4-0.6,1-0.7,1.6c-0.1,0.6-0.2,1.3-0.2,2v7h-4.3V41.2H318z"/>
	<path class="st0" d="M343.6,35.2c1.4,0,2.7,0.2,3.9,0.7c1.2,0.4,2.2,1.1,3.1,2s1.5,2,2,3.3c0.5,1.3,0.7,2.9,0.7,4.6
		c0,1.6-0.2,3-0.6,4.3c-0.4,1.3-1,2.5-1.8,3.4c-0.8,1-1.8,1.7-3,2.3c-1.2,0.6-2.6,0.8-4.3,0.8h-9.2V35.2H343.6z M343.3,52.7
		c0.7,0,1.3-0.1,2-0.3c0.6-0.2,1.2-0.6,1.7-1.1s0.9-1.2,1.2-2c0.3-0.8,0.4-1.8,0.4-3c0-1.1-0.1-2.1-0.3-2.9c-0.2-0.9-0.6-1.6-1-2.2
		c-0.5-0.6-1.1-1.1-1.9-1.4s-1.8-0.5-2.9-0.5h-3.4v13.5H343.3z"/>
	<path class="st0" d="M360.7,53c0.6,0.6,1.6,0.9,2.8,0.9c0.9,0,1.6-0.2,2.2-0.6c0.6-0.4,1-0.9,1.1-1.4h3.8c-0.6,1.9-1.5,3.2-2.8,4
		s-2.7,1.2-4.5,1.2c-1.2,0-2.3-0.2-3.3-0.6c-1-0.4-1.8-0.9-2.5-1.7c-0.7-0.7-1.2-1.6-1.6-2.6c-0.4-1-0.6-2.1-0.6-3.3
		c0-1.2,0.2-2.2,0.6-3.2c0.4-1,0.9-1.9,1.6-2.6c0.7-0.7,1.5-1.3,2.5-1.7c1-0.4,2-0.6,3.2-0.6c1.3,0,2.5,0.3,3.4,0.8
		c1,0.5,1.8,1.2,2.4,2.1s1.1,1.8,1.4,2.9s0.4,2.2,0.3,3.5h-11.2C359.7,51.3,360.1,52.3,360.7,53z M365.5,44.8
		c-0.5-0.6-1.3-0.8-2.3-0.8c-0.7,0-1.2,0.1-1.7,0.3c-0.4,0.2-0.8,0.5-1.1,0.9c-0.3,0.3-0.5,0.7-0.6,1.1c-0.1,0.4-0.2,0.7-0.2,1h6.9
		C366.4,46.2,366,45.4,365.5,44.8z"/>
	<path class="st0" d="M377.4,41.2v2.2h0.1c0.5-0.9,1.2-1.6,2.1-2c0.9-0.4,1.7-0.6,2.6-0.6c1.1,0,2.1,0.2,2.8,0.5s1.3,0.7,1.7,1.3
		c0.4,0.6,0.7,1.2,0.9,2c0.2,0.8,0.3,1.7,0.3,2.6v9.5h-4.3v-8.8c0-1.3-0.2-2.2-0.6-2.9c-0.4-0.6-1.1-0.9-2.1-0.9c-1.2,0-2,0.3-2.5,1
		c-0.5,0.7-0.8,1.8-0.8,3.4v8.1h-4.3V41.2H377.4z"/>
	<path class="st0" d="M399.7,41.2V44h-3.1v7.7c0,0.7,0.1,1.2,0.4,1.4s0.7,0.4,1.4,0.4c0.2,0,0.5,0,0.7,0c0.2,0,0.4,0,0.6-0.1v3.3
		c-0.4,0.1-0.8,0.1-1.2,0.1c-0.4,0-0.9,0-1.3,0c-0.7,0-1.3,0-1.9-0.1c-0.6-0.1-1.1-0.3-1.6-0.5s-0.8-0.6-1.1-1.1
		c-0.3-0.5-0.4-1.1-0.4-1.9V44h-2.6v-2.8h2.6v-4.7h4.3v4.7H399.7z"/>
	<path class="st0" d="M401.8,38.8v-3.5h4.3v3.5H401.8z M406.1,41.2v15.5h-4.3V41.2H406.1z"/>
	<path class="st0" d="M413.1,52.8c0.2,0.3,0.4,0.6,0.7,0.8c0.3,0.2,0.6,0.4,1,0.5c0.4,0.1,0.8,0.2,1.2,0.2c0.3,0,0.6,0,0.9-0.1
		c0.3-0.1,0.6-0.2,0.9-0.3c0.3-0.1,0.5-0.3,0.7-0.6s0.3-0.6,0.3-0.9c0-0.6-0.4-1.1-1.3-1.4c-0.9-0.3-2-0.6-3.6-1
		c-0.6-0.1-1.2-0.3-1.8-0.5s-1.1-0.4-1.6-0.8c-0.5-0.3-0.8-0.7-1.1-1.2c-0.3-0.5-0.4-1-0.4-1.7c0-1,0.2-1.8,0.6-2.5
		c0.4-0.6,0.9-1.1,1.5-1.5c0.6-0.4,1.4-0.6,2.2-0.8s1.6-0.2,2.5-0.2c0.8,0,1.7,0.1,2.4,0.2c0.8,0.2,1.5,0.4,2.1,0.8s1.1,0.9,1.5,1.5
		c0.4,0.6,0.7,1.4,0.7,2.4h-4.1c-0.1-0.8-0.4-1.4-0.9-1.7c-0.6-0.3-1.2-0.4-2-0.4c-0.2,0-0.5,0-0.8,0c-0.3,0-0.5,0.1-0.8,0.2
		c-0.2,0.1-0.4,0.2-0.6,0.4c-0.2,0.2-0.2,0.4-0.2,0.8c0,0.4,0.1,0.7,0.4,0.9c0.3,0.2,0.6,0.4,1.1,0.6s1,0.3,1.5,0.4s1.2,0.2,1.8,0.4
		c0.6,0.1,1.2,0.3,1.8,0.5c0.6,0.2,1.1,0.5,1.6,0.8s0.8,0.7,1.1,1.2c0.3,0.5,0.4,1.1,0.4,1.8c0,1-0.2,1.9-0.6,2.6s-0.9,1.2-1.6,1.7
		c-0.7,0.4-1.4,0.7-2.3,0.9c-0.9,0.2-1.7,0.3-2.6,0.3c-0.9,0-1.8-0.1-2.6-0.3c-0.9-0.2-1.6-0.5-2.3-0.9s-1.2-1-1.6-1.7
		c-0.4-0.7-0.7-1.6-0.7-2.6h4C412.8,52.1,412.9,52.5,413.1,52.8z"/>
	<path class="st0" d="M434.1,41.2V44H431v7.7c0,0.7,0.1,1.2,0.4,1.4s0.7,0.4,1.4,0.4c0.2,0,0.5,0,0.7,0c0.2,0,0.4,0,0.6-0.1v3.3
		c-0.4,0.1-0.8,0.1-1.2,0.1c-0.4,0-0.9,0-1.3,0c-0.7,0-1.3,0-1.9-0.1c-0.6-0.1-1.1-0.3-1.6-0.5s-0.8-0.6-1.1-1.1
		c-0.3-0.5-0.4-1.1-0.4-1.9V44h-2.6v-2.8h2.6v-4.7h4.3v4.7H434.1z"/>
	<path class="st0" d="M439.7,52.8c0.2,0.3,0.4,0.6,0.7,0.8c0.3,0.2,0.6,0.4,1,0.5c0.4,0.1,0.8,0.2,1.2,0.2c0.3,0,0.6,0,0.9-0.1
		c0.3-0.1,0.6-0.2,0.9-0.3c0.3-0.1,0.5-0.3,0.7-0.6s0.3-0.6,0.3-0.9c0-0.6-0.4-1.1-1.3-1.4c-0.9-0.3-2-0.6-3.6-1
		c-0.6-0.1-1.2-0.3-1.8-0.5s-1.1-0.4-1.6-0.8c-0.5-0.3-0.8-0.7-1.1-1.2c-0.3-0.5-0.4-1-0.4-1.7c0-1,0.2-1.8,0.6-2.5
		c0.4-0.6,0.9-1.1,1.5-1.5c0.6-0.4,1.4-0.6,2.2-0.8s1.6-0.2,2.5-0.2c0.8,0,1.7,0.1,2.4,0.2c0.8,0.2,1.5,0.4,2.1,0.8s1.1,0.9,1.5,1.5
		c0.4,0.6,0.7,1.4,0.7,2.4h-4.1c-0.1-0.8-0.4-1.4-0.9-1.7c-0.6-0.3-1.2-0.4-2-0.4c-0.2,0-0.5,0-0.8,0c-0.3,0-0.5,0.1-0.8,0.2
		c-0.2,0.1-0.4,0.2-0.6,0.4c-0.2,0.2-0.2,0.4-0.2,0.8c0,0.4,0.1,0.7,0.4,0.9c0.3,0.2,0.6,0.4,1.1,0.6s1,0.3,1.5,0.4s1.2,0.2,1.8,0.4
		c0.6,0.1,1.2,0.3,1.8,0.5c0.6,0.2,1.1,0.5,1.6,0.8s0.8,0.7,1.1,1.2c0.3,0.5,0.4,1.1,0.4,1.8c0,1-0.2,1.9-0.6,2.6s-0.9,1.2-1.6,1.7
		c-0.7,0.4-1.4,0.7-2.3,0.9c-0.9,0.2-1.7,0.3-2.6,0.3c-0.9,0-1.8-0.1-2.6-0.3c-0.9-0.2-1.6-0.5-2.3-0.9s-1.2-1-1.6-1.7
		c-0.4-0.7-0.7-1.6-0.7-2.6h4C439.4,52.1,439.5,52.5,439.7,52.8z"/>
</g>
</svg>
