<?xml version="1.0" encoding="utf-8"?>
<!-- Generator: Adobe Illustrator 25.4.1, SVG Export Plug-In . SVG Version: 6.00 Build 0)  -->
<svg version="1.1" id="Layer_1" xmlns="http://www.w3.org/2000/svg" xmlns:xlink="http://www.w3.org/1999/xlink" x="0px" y="0px"
	 viewBox="0 0 728 90" style="enable-background:new 0 0 728 90;" xml:space="preserve">
<style type="text/css">
	.st0{fill:#231F20;}
	.st1{fill:#339933;}
</style>
<g>
	<path class="st0" d="M40.1,15.4v3.7H29.6v4.3h9.6v3.4h-9.6v4.9h10.7v3.7H25.2V15.4H40.1z"/>
	<path class="st0" d="M46.4,35.3l-4.9-14.4h4.1l3,9.8h0.1l3-9.8h3.9l-4.9,14.4H46.4z"/>
	<path class="st0" d="M61.5,31.8c0.6,0.6,1.4,0.9,2.6,0.9c0.8,0,1.5-0.2,2.1-0.6c0.6-0.4,0.9-0.8,1.1-1.3h3.5
		c-0.6,1.7-1.4,3-2.6,3.7c-1.2,0.7-2.5,1.1-4.2,1.1c-1.1,0-2.2-0.2-3.1-0.5c-0.9-0.4-1.7-0.9-2.3-1.5c-0.6-0.7-1.1-1.5-1.5-2.4
		c-0.3-0.9-0.5-1.9-0.5-3.1c0-1.1,0.2-2.1,0.5-3c0.4-0.9,0.9-1.7,1.5-2.4c0.6-0.7,1.4-1.2,2.3-1.6c0.9-0.4,1.9-0.6,3-0.6
		c1.2,0,2.3,0.2,3.2,0.7c0.9,0.5,1.7,1.1,2.2,1.9s1,1.7,1.3,2.7c0.3,1,0.4,2.1,0.3,3.2H60.6C60.6,30.3,61,31.2,61.5,31.8z M66,24.2
		c-0.5-0.5-1.2-0.8-2.2-0.8c-0.6,0-1.2,0.1-1.6,0.3c-0.4,0.2-0.8,0.5-1,0.8c-0.3,0.3-0.4,0.7-0.5,1c-0.1,0.4-0.2,0.7-0.2,0.9H67
		C66.8,25.5,66.5,24.8,66,24.2z"/>
	<path class="st0" d="M77.1,20.9v2h0.1c0.5-0.8,1.2-1.4,1.9-1.8c0.8-0.4,1.6-0.6,2.5-0.6c1.1,0,1.9,0.1,2.6,0.4
		c0.7,0.3,1.2,0.7,1.6,1.2c0.4,0.5,0.7,1.1,0.8,1.9c0.2,0.7,0.2,1.5,0.2,2.4v8.9h-4v-8.1c0-1.2-0.2-2.1-0.6-2.7s-1-0.9-2-0.9
		c-1.1,0-1.9,0.3-2.3,1c-0.5,0.6-0.7,1.7-0.7,3.2v7.5h-4V20.9H77.1z"/>
	<path class="st0" d="M105.5,20.9v2.6h-2.9v7.1c0,0.7,0.1,1.1,0.3,1.3c0.2,0.2,0.7,0.3,1.3,0.3c0.2,0,0.4,0,0.6,0
		c0.2,0,0.4,0,0.6-0.1v3.1c-0.3,0.1-0.7,0.1-1.1,0.1c-0.4,0-0.8,0-1.2,0c-0.6,0-1.2,0-1.7-0.1c-0.5-0.1-1-0.2-1.4-0.5
		c-0.4-0.2-0.7-0.6-1-1c-0.2-0.4-0.4-1-0.4-1.8v-8.5h-2.4v-2.6h2.4v-4.3h4v4.3H105.5z"/>
	<path class="st0" d="M111.3,15.4v7.5h0.1c0.5-0.8,1.1-1.4,1.9-1.8c0.8-0.4,1.5-0.6,2.3-0.6c1.1,0,1.9,0.1,2.6,0.4
		c0.7,0.3,1.2,0.7,1.6,1.2c0.4,0.5,0.7,1.1,0.8,1.9c0.2,0.7,0.2,1.5,0.2,2.4v8.9h-4v-8.1c0-1.2-0.2-2.1-0.6-2.7s-1-0.9-2-0.9
		c-1.1,0-1.9,0.3-2.3,1c-0.5,0.6-0.7,1.7-0.7,3.2v7.5h-4V15.4H111.3z"/>
	<path class="st0" d="M128.1,31.8c0.6,0.6,1.4,0.9,2.6,0.9c0.8,0,1.5-0.2,2.1-0.6c0.6-0.4,0.9-0.8,1.1-1.3h3.5
		c-0.6,1.7-1.4,3-2.6,3.7c-1.2,0.7-2.5,1.1-4.2,1.1c-1.1,0-2.2-0.2-3.1-0.5c-0.9-0.4-1.7-0.9-2.3-1.5c-0.6-0.7-1.1-1.5-1.5-2.4
		c-0.3-0.9-0.5-1.9-0.5-3.1c0-1.1,0.2-2.1,0.5-3c0.4-0.9,0.9-1.7,1.5-2.4c0.6-0.7,1.4-1.2,2.3-1.6c0.9-0.4,1.9-0.6,3-0.6
		c1.2,0,2.3,0.2,3.2,0.7c0.9,0.5,1.7,1.1,2.2,1.9s1,1.7,1.3,2.7c0.3,1,0.4,2.1,0.3,3.2h-10.4C127.2,30.3,127.5,31.2,128.1,31.8z
		 M132.6,24.2c-0.5-0.5-1.2-0.8-2.2-0.8c-0.6,0-1.2,0.1-1.6,0.3c-0.4,0.2-0.8,0.5-1,0.8c-0.3,0.3-0.4,0.7-0.5,1
		c-0.1,0.4-0.2,0.7-0.2,0.9h6.4C133.4,25.5,133.1,24.8,132.6,24.2z"/>
	<path class="st0" d="M157.4,15.4c0.9,0,1.8,0.1,2.6,0.3s1.4,0.4,2,0.8s1,0.9,1.3,1.5c0.3,0.6,0.5,1.4,0.5,2.3c0,1-0.2,1.8-0.7,2.5
		c-0.5,0.7-1.1,1.2-2,1.6c1.2,0.4,2.1,1,2.7,1.9c0.6,0.9,0.9,1.9,0.9,3.2c0,1-0.2,1.9-0.6,2.6c-0.4,0.7-0.9,1.3-1.6,1.8
		c-0.7,0.5-1.4,0.8-2.3,1c-0.8,0.2-1.7,0.3-2.6,0.3H148V15.4H157.4z M156.8,23.4c0.8,0,1.4-0.2,1.9-0.6c0.5-0.4,0.8-1,0.8-1.8
		c0-0.5-0.1-0.8-0.3-1.1c-0.2-0.3-0.4-0.5-0.7-0.7c-0.3-0.2-0.6-0.3-1-0.3c-0.4-0.1-0.7-0.1-1.1-0.1h-4.1v4.7H156.8z M157.1,31.9
		c0.4,0,0.8,0,1.2-0.1c0.4-0.1,0.7-0.2,1-0.4c0.3-0.2,0.5-0.5,0.7-0.8c0.2-0.3,0.3-0.8,0.3-1.3c0-1-0.3-1.7-0.9-2.2
		c-0.6-0.4-1.3-0.7-2.3-0.7h-4.8v5.5H157.1z"/>
	<path class="st0" d="M182.5,15.4v3.7H172v4.3h9.6v3.4H172v4.9h10.7v3.7h-15.1V15.4H182.5z"/>
	<path class="st0" d="M189,30.4c0.2,0.5,0.6,0.8,1,1.1c0.4,0.3,0.9,0.5,1.4,0.6c0.5,0.1,1.1,0.2,1.7,0.2c0.4,0,0.8,0,1.3-0.1
		c0.4-0.1,0.9-0.2,1.3-0.4c0.4-0.2,0.7-0.4,1-0.8c0.3-0.3,0.4-0.7,0.4-1.2c0-0.5-0.2-1-0.5-1.3c-0.3-0.3-0.8-0.6-1.4-0.8
		c-0.6-0.2-1.2-0.4-1.9-0.6c-0.7-0.2-1.4-0.4-2.1-0.6c-0.7-0.2-1.5-0.4-2.2-0.7s-1.3-0.6-1.9-1c-0.6-0.4-1-1-1.4-1.6
		c-0.3-0.6-0.5-1.4-0.5-2.3c0-1,0.2-1.9,0.7-2.7c0.4-0.8,1-1.4,1.7-1.9c0.7-0.5,1.5-0.9,2.4-1.1s1.8-0.4,2.7-0.4c1,0,2,0.1,3,0.3
		c1,0.2,1.8,0.6,2.5,1.1c0.7,0.5,1.3,1.2,1.8,2c0.4,0.8,0.7,1.8,0.7,2.9h-4.2c0-0.6-0.2-1.1-0.4-1.5c-0.2-0.4-0.5-0.7-0.8-0.9
		c-0.4-0.2-0.8-0.4-1.2-0.5s-1-0.1-1.5-0.1c-0.4,0-0.7,0-1.1,0.1c-0.4,0.1-0.7,0.2-1,0.4c-0.3,0.2-0.5,0.4-0.7,0.7s-0.3,0.6-0.3,1.1
		c0,0.4,0.1,0.7,0.2,0.9s0.4,0.5,0.9,0.7c0.4,0.2,1,0.4,1.8,0.6c0.8,0.2,1.8,0.5,3,0.8c0.4,0.1,0.9,0.2,1.5,0.4
		c0.7,0.2,1.3,0.5,2,0.9c0.6,0.4,1.2,1,1.7,1.7c0.5,0.7,0.7,1.6,0.7,2.7c0,0.9-0.2,1.8-0.5,2.5s-0.9,1.5-1.6,2s-1.6,1-2.6,1.3
		c-1,0.3-2.2,0.5-3.6,0.5c-1.1,0-2.2-0.1-3.2-0.4c-1-0.3-1.9-0.7-2.7-1.3c-0.8-0.6-1.4-1.3-1.9-2.2c-0.5-0.9-0.7-1.9-0.7-3.2h4.2
		C188.7,29.3,188.8,29.9,189,30.4z"/>
	<path class="st0" d="M202.2,19.1v-3.7h16.3v3.7h-6v16.2h-4.4V19.1H202.2z"/>
	<path class="st0" d="M225.1,26v3.4h-8.4V26H225.1z"/>
	<path class="st0" d="M232.2,15.4v19.9h-4V15.4H232.2z"/>
	<path class="st0" d="M235.1,25.3c0.1-0.9,0.3-1.7,0.7-2.3c0.4-0.6,0.9-1.1,1.6-1.5c0.6-0.4,1.3-0.6,2.1-0.8
		c0.8-0.2,1.6-0.2,2.4-0.2c0.7,0,1.5,0.1,2.2,0.2c0.7,0.1,1.4,0.3,2,0.6c0.6,0.3,1.1,0.7,1.5,1.2c0.4,0.5,0.6,1.2,0.6,2.1v7.5
		c0,0.6,0,1.3,0.1,1.9c0.1,0.6,0.2,1,0.4,1.3h-4c-0.1-0.2-0.1-0.4-0.2-0.7c0-0.2-0.1-0.5-0.1-0.7c-0.6,0.7-1.4,1.1-2.2,1.4
		c-0.9,0.3-1.7,0.4-2.6,0.4c-0.7,0-1.3-0.1-1.9-0.3c-0.6-0.2-1.1-0.4-1.6-0.8c-0.4-0.4-0.8-0.8-1-1.3c-0.3-0.5-0.4-1.2-0.4-1.9
		c0-0.8,0.1-1.5,0.4-2c0.3-0.5,0.7-1,1.1-1.3c0.5-0.3,1-0.6,1.6-0.7c0.6-0.2,1.2-0.3,1.8-0.4c0.6-0.1,1.2-0.2,1.8-0.2
		c0.6-0.1,1.1-0.1,1.5-0.3c0.4-0.1,0.8-0.3,1.1-0.5c0.3-0.2,0.4-0.5,0.4-0.9c0-0.4-0.1-0.8-0.2-1c-0.1-0.3-0.3-0.4-0.6-0.6
		c-0.2-0.1-0.5-0.2-0.8-0.3c-0.3,0-0.6-0.1-1-0.1c-0.8,0-1.4,0.2-1.8,0.5c-0.4,0.3-0.7,0.9-0.8,1.7H235.1z M244.3,28.2
		c-0.2,0.1-0.4,0.3-0.6,0.3s-0.5,0.2-0.8,0.2c-0.3,0.1-0.6,0.1-0.9,0.1c-0.3,0-0.6,0.1-0.9,0.1c-0.3,0.1-0.6,0.1-0.9,0.2
		c-0.3,0.1-0.5,0.2-0.8,0.4c-0.2,0.2-0.4,0.4-0.5,0.6s-0.2,0.5-0.2,0.9c0,0.4,0.1,0.6,0.2,0.9c0.1,0.2,0.3,0.4,0.5,0.6
		s0.5,0.2,0.8,0.3c0.3,0.1,0.6,0.1,0.9,0.1c0.8,0,1.4-0.1,1.8-0.4c0.4-0.3,0.7-0.6,0.9-0.9c0.2-0.4,0.3-0.7,0.4-1.1
		c0-0.4,0.1-0.7,0.1-0.9V28.2z"/>
	<path class="st0" d="M251.4,18.6v-3.3h4v3.3H251.4z M255.3,20.9v14.4h-4V20.9H255.3z"/>
	<path class="st0" d="M268.7,33.4c-0.5,0.8-1.1,1.3-1.8,1.7s-1.6,0.5-2.5,0.5c-1.1,0-2-0.2-2.8-0.6c-0.8-0.4-1.5-1-2-1.7
		c-0.5-0.7-0.9-1.5-1.2-2.5c-0.3-0.9-0.4-1.9-0.4-2.9c0-1,0.1-1.9,0.4-2.8s0.7-1.7,1.2-2.4c0.5-0.7,1.2-1.2,2-1.7
		c0.8-0.4,1.7-0.6,2.8-0.6c0.9,0,1.7,0.2,2.4,0.5c0.8,0.4,1.4,0.9,1.8,1.6h0.1v-7.2h4v19.9h-3.8L268.7,33.4L268.7,33.4z M268.5,26.3
		c-0.1-0.5-0.3-1-0.6-1.4c-0.3-0.4-0.6-0.8-1-1c-0.4-0.3-1-0.4-1.6-0.4c-0.7,0-1.2,0.1-1.6,0.4c-0.4,0.3-0.8,0.6-1.1,1
		c-0.3,0.4-0.5,0.9-0.6,1.5c-0.1,0.5-0.2,1.1-0.2,1.7c0,0.6,0.1,1.1,0.2,1.7s0.3,1.1,0.6,1.5c0.3,0.4,0.6,0.8,1.1,1.1
		c0.4,0.3,1,0.4,1.6,0.4c0.6,0,1.2-0.1,1.6-0.4c0.4-0.3,0.8-0.6,1-1c0.3-0.4,0.4-0.9,0.6-1.5s0.2-1.1,0.2-1.7S268.6,26.9,268.5,26.3
		z"/>
	<path class="st0" d="M292.6,15.4c1.2,0,2.3,0.2,3.2,0.5c0.9,0.4,1.6,0.8,2.1,1.4c0.5,0.6,0.9,1.3,1.2,2c0.3,0.8,0.4,1.6,0.4,2.4
		c0,0.8-0.1,1.6-0.4,2.4c-0.3,0.8-0.7,1.5-1.2,2c-0.5,0.6-1.3,1.1-2.1,1.4c-0.9,0.4-1.9,0.5-3.2,0.5H288v7.1h-4.4V15.4H292.6z
		 M291.4,24.7c0.5,0,1,0,1.4-0.1c0.5-0.1,0.9-0.2,1.2-0.4c0.4-0.2,0.6-0.5,0.8-0.9c0.2-0.4,0.3-0.9,0.3-1.5c0-0.6-0.1-1.1-0.3-1.5
		c-0.2-0.4-0.5-0.7-0.8-0.9c-0.4-0.2-0.8-0.4-1.2-0.4c-0.5-0.1-0.9-0.1-1.4-0.1H288v6H291.4z"/>
	<path class="st0" d="M306.6,15.4v16.2h9.7v3.7h-14.1V15.4H306.6z"/>
	<path class="st0" d="M328.6,15.4l7.4,19.9h-4.5l-1.5-4.4h-7.4l-1.6,4.4h-4.4l7.5-19.9H328.6z M328.9,27.6l-2.5-7.3h-0.1l-2.6,7.3
		H328.9z"/>
	<path class="st0" d="M342.2,15.4l8.3,13.3h0.1V15.4h4.1v19.9h-4.4L342,21.9h-0.1v13.3h-4.1V15.4H342.2z"/>
	<path class="st0" d="M361.8,30.4c0.2,0.5,0.6,0.8,1,1.1c0.4,0.3,0.9,0.5,1.4,0.6c0.5,0.1,1.1,0.2,1.7,0.2c0.4,0,0.8,0,1.3-0.1
		s0.9-0.2,1.3-0.4c0.4-0.2,0.7-0.4,1-0.8c0.3-0.3,0.4-0.7,0.4-1.2c0-0.5-0.2-1-0.5-1.3c-0.3-0.3-0.8-0.6-1.4-0.8
		c-0.6-0.2-1.2-0.4-1.9-0.6c-0.7-0.2-1.4-0.4-2.1-0.6c-0.7-0.2-1.5-0.4-2.2-0.7c-0.7-0.3-1.3-0.6-1.9-1c-0.6-0.4-1-1-1.4-1.6
		c-0.3-0.6-0.5-1.4-0.5-2.3c0-1,0.2-1.9,0.7-2.7c0.4-0.8,1-1.4,1.7-1.9c0.7-0.5,1.5-0.9,2.4-1.1c0.9-0.2,1.8-0.4,2.7-0.4
		c1,0,2,0.1,3,0.3c1,0.2,1.8,0.6,2.5,1.1c0.7,0.5,1.3,1.2,1.8,2c0.4,0.8,0.7,1.8,0.7,2.9H369c0-0.6-0.2-1.1-0.4-1.5
		c-0.2-0.4-0.5-0.7-0.8-0.9c-0.4-0.2-0.8-0.4-1.2-0.5s-1-0.1-1.5-0.1c-0.4,0-0.7,0-1.1,0.1c-0.4,0.1-0.7,0.2-1,0.4
		c-0.3,0.2-0.5,0.4-0.7,0.7c-0.2,0.3-0.3,0.6-0.3,1.1c0,0.4,0.1,0.7,0.2,0.9c0.1,0.2,0.4,0.5,0.9,0.7c0.4,0.2,1,0.4,1.8,0.6
		c0.8,0.2,1.8,0.5,3,0.8c0.4,0.1,0.9,0.2,1.5,0.4c0.7,0.2,1.3,0.5,2,0.9c0.6,0.4,1.2,1,1.7,1.7c0.5,0.7,0.7,1.6,0.7,2.7
		c0,0.9-0.2,1.8-0.5,2.5c-0.4,0.8-0.9,1.5-1.6,2c-0.7,0.6-1.6,1-2.6,1.3s-2.2,0.5-3.6,0.5c-1.1,0-2.2-0.1-3.2-0.4
		c-1-0.3-1.9-0.7-2.7-1.3c-0.8-0.6-1.4-1.3-1.9-2.2c-0.5-0.9-0.7-1.9-0.7-3.2h4.2C361.4,29.3,361.5,29.9,361.8,30.4z"/>
	<path class="st0" d="M383.9,24.9c0.4-0.9,0.9-1.7,1.5-2.4c0.7-0.7,1.4-1.2,2.3-1.5c0.9-0.4,1.9-0.5,3.1-0.5c1.1,0,2.2,0.2,3.1,0.5
		c0.9,0.4,1.7,0.9,2.4,1.5c0.6,0.7,1.2,1.5,1.5,2.4c0.4,0.9,0.5,2,0.5,3.1c0,1.2-0.2,2.2-0.5,3.1c-0.4,0.9-0.9,1.7-1.5,2.4
		c-0.7,0.7-1.4,1.2-2.4,1.5s-1.9,0.5-3.1,0.5c-1.1,0-2.2-0.2-3.1-0.5c-0.9-0.4-1.7-0.9-2.3-1.5c-0.6-0.7-1.2-1.5-1.5-2.4
		c-0.4-0.9-0.5-2-0.5-3.1C383.4,26.9,383.6,25.9,383.9,24.9z M387.5,29.8c0.1,0.5,0.3,1,0.6,1.5c0.3,0.4,0.6,0.8,1.1,1
		c0.4,0.3,1,0.4,1.7,0.4c0.7,0,1.2-0.1,1.7-0.4c0.5-0.3,0.8-0.6,1.1-1c0.3-0.4,0.5-0.9,0.6-1.5s0.2-1.1,0.2-1.7
		c0-0.6-0.1-1.1-0.2-1.7c-0.1-0.6-0.3-1-0.6-1.5c-0.3-0.4-0.6-0.8-1.1-1c-0.5-0.3-1-0.4-1.7-0.4c-0.7,0-1.2,0.1-1.7,0.4
		c-0.4,0.3-0.8,0.6-1.1,1c-0.3,0.4-0.5,0.9-0.6,1.5c-0.1,0.6-0.2,1.1-0.2,1.7C387.4,28.7,387.4,29.2,387.5,29.8z"/>
	<path class="st0" d="M399.4,23.5v-2.6h2.4v-1.1c0-1.3,0.4-2.3,1.2-3.1c0.8-0.8,2-1.2,3.6-1.2c0.4,0,0.7,0,1.1,0s0.7,0.1,1,0.1v3
		c-0.5-0.1-0.9-0.1-1.4-0.1c-0.5,0-0.9,0.1-1.2,0.4c-0.2,0.3-0.3,0.7-0.3,1.3v0.9h2.7v2.6h-2.7v11.8h-4V23.5H399.4z"/>
	<path class="st0" d="M421.7,20.9v1.9h0.1c0.5-0.7,1.1-1.3,1.9-1.7c0.7-0.4,1.6-0.6,2.5-0.6c0.9,0,1.7,0.2,2.5,0.5
		c0.8,0.4,1.3,1,1.7,1.9c0.4-0.6,1-1.2,1.7-1.7c0.7-0.5,1.6-0.7,2.6-0.7c0.8,0,1.5,0.1,2.1,0.3c0.7,0.2,1.2,0.5,1.7,0.9
		c0.5,0.4,0.8,0.9,1.1,1.6c0.3,0.7,0.4,1.5,0.4,2.4v9.6h-4v-8.2c0-0.5,0-0.9-0.1-1.4c0-0.4-0.1-0.8-0.3-1.1
		c-0.2-0.3-0.4-0.6-0.7-0.8c-0.3-0.2-0.8-0.3-1.3-0.3c-0.6,0-1,0.1-1.4,0.3c-0.3,0.2-0.6,0.5-0.8,0.8c-0.2,0.3-0.3,0.7-0.4,1.2
		c-0.1,0.4-0.1,0.9-0.1,1.3v8h-4v-8.1c0-0.4,0-0.8,0-1.3c0-0.4-0.1-0.8-0.2-1.2c-0.1-0.4-0.4-0.6-0.7-0.8c-0.3-0.2-0.8-0.3-1.4-0.3
		c-0.2,0-0.4,0-0.7,0.1c-0.3,0.1-0.6,0.2-0.9,0.5c-0.3,0.2-0.5,0.6-0.7,1c-0.2,0.4-0.3,1-0.3,1.7v8.4h-4V20.9H421.7z"/>
	<path class="st0" d="M443.2,18.6v-3.3h4v3.3H443.2z M447.2,20.9v14.4h-4V20.9H447.2z"/>
	<path class="st0" d="M457.2,23.5c-0.6,0-1.2,0.1-1.6,0.4c-0.4,0.3-0.8,0.7-1,1.1c-0.3,0.5-0.5,1-0.6,1.5c-0.1,0.5-0.2,1.1-0.2,1.6
		c0,0.5,0.1,1,0.2,1.6c0.1,0.5,0.3,1,0.5,1.5c0.3,0.4,0.6,0.8,1,1.1c0.4,0.3,0.9,0.4,1.6,0.4c0.9,0,1.7-0.3,2.2-0.8
		c0.5-0.5,0.8-1.2,1-2.1h3.8c-0.3,1.9-1,3.4-2.2,4.4c-1.2,1-2.8,1.5-4.7,1.5c-1.1,0-2.1-0.2-3-0.5c-0.9-0.4-1.7-0.9-2.3-1.5
		c-0.6-0.6-1.1-1.4-1.5-2.3c-0.4-0.9-0.5-1.9-0.5-3c0-1.1,0.2-2.1,0.5-3.1c0.3-1,0.8-1.8,1.4-2.5c0.6-0.7,1.4-1.2,2.3-1.6
		c0.9-0.4,2-0.6,3.1-0.6c0.9,0,1.7,0.1,2.5,0.3c0.8,0.2,1.5,0.6,2.1,1c0.6,0.5,1.1,1,1.5,1.7c0.4,0.7,0.6,1.5,0.7,2.4h-3.9
		C459.8,24.3,458.9,23.5,457.2,23.5z"/>
	<path class="st0" d="M470.5,31.8c0.6,0.6,1.4,0.9,2.6,0.9c0.8,0,1.5-0.2,2.1-0.6c0.6-0.4,0.9-0.8,1.1-1.3h3.5
		c-0.6,1.7-1.4,3-2.6,3.7c-1.2,0.7-2.5,1.1-4.2,1.1c-1.1,0-2.2-0.2-3.1-0.5c-0.9-0.4-1.7-0.9-2.3-1.5c-0.6-0.7-1.1-1.5-1.5-2.4
		c-0.3-0.9-0.5-1.9-0.5-3.1c0-1.1,0.2-2.1,0.5-3c0.4-0.9,0.9-1.7,1.5-2.4c0.6-0.7,1.4-1.2,2.3-1.6c0.9-0.4,1.9-0.6,3-0.6
		c1.2,0,2.3,0.2,3.2,0.7c0.9,0.5,1.7,1.1,2.2,1.9s1,1.7,1.3,2.7c0.3,1,0.4,2.1,0.3,3.2h-10.4C469.6,30.3,469.9,31.2,470.5,31.8z
		 M475,24.2c-0.5-0.5-1.2-0.8-2.2-0.8c-0.6,0-1.2,0.1-1.6,0.3c-0.4,0.2-0.8,0.5-1,0.8c-0.3,0.3-0.4,0.7-0.5,1
		c-0.1,0.4-0.2,0.7-0.2,0.9h6.4C475.8,25.5,475.5,24.8,475,24.2z"/>
	<path class="st0" d="M489.8,25.3c0.1-0.9,0.3-1.7,0.7-2.3c0.4-0.6,0.9-1.1,1.6-1.5c0.6-0.4,1.3-0.6,2.1-0.8
		c0.8-0.2,1.6-0.2,2.4-0.2c0.7,0,1.5,0.1,2.2,0.2c0.7,0.1,1.4,0.3,2,0.6c0.6,0.3,1.1,0.7,1.5,1.2c0.4,0.5,0.6,1.2,0.6,2.1v7.5
		c0,0.6,0,1.3,0.1,1.9c0.1,0.6,0.2,1,0.4,1.3h-4c-0.1-0.2-0.1-0.4-0.2-0.7c0-0.2-0.1-0.5-0.1-0.7c-0.6,0.7-1.4,1.1-2.2,1.4
		c-0.9,0.3-1.7,0.4-2.6,0.4c-0.7,0-1.3-0.1-1.9-0.3c-0.6-0.2-1.1-0.4-1.6-0.8c-0.4-0.4-0.8-0.8-1-1.3c-0.3-0.5-0.4-1.2-0.4-1.9
		c0-0.8,0.1-1.5,0.4-2c0.3-0.5,0.7-1,1.1-1.3c0.5-0.3,1-0.6,1.6-0.7c0.6-0.2,1.2-0.3,1.8-0.4c0.6-0.1,1.2-0.2,1.8-0.2
		c0.6-0.1,1.1-0.1,1.5-0.3c0.4-0.1,0.8-0.3,1.1-0.5c0.3-0.2,0.4-0.5,0.4-0.9c0-0.4-0.1-0.8-0.2-1c-0.1-0.3-0.3-0.4-0.6-0.6
		c-0.2-0.1-0.5-0.2-0.8-0.3c-0.3,0-0.6-0.1-1-0.1c-0.8,0-1.4,0.2-1.8,0.5c-0.4,0.3-0.7,0.9-0.8,1.7H489.8z M499,28.2
		c-0.2,0.1-0.4,0.3-0.6,0.3s-0.5,0.2-0.8,0.2s-0.6,0.1-0.9,0.1c-0.3,0-0.6,0.1-0.9,0.1c-0.3,0.1-0.6,0.1-0.9,0.2
		c-0.3,0.1-0.5,0.2-0.8,0.4c-0.2,0.2-0.4,0.4-0.5,0.6c-0.1,0.2-0.2,0.5-0.2,0.9c0,0.4,0.1,0.6,0.2,0.9c0.1,0.2,0.3,0.4,0.5,0.6
		c0.2,0.1,0.5,0.2,0.8,0.3s0.6,0.1,0.9,0.1c0.8,0,1.4-0.1,1.8-0.4c0.4-0.3,0.7-0.6,0.9-0.9c0.2-0.4,0.3-0.7,0.4-1.1
		c0-0.4,0.1-0.7,0.1-0.9V28.2z"/>
	<path class="st0" d="M509.7,20.9v2h0.1c0.5-0.8,1.2-1.4,2-1.8c0.8-0.4,1.6-0.6,2.5-0.6c1.1,0,1.9,0.1,2.6,0.4
		c0.7,0.3,1.2,0.7,1.6,1.2c0.4,0.5,0.7,1.1,0.8,1.9c0.2,0.7,0.2,1.5,0.2,2.4v8.9h-4v-8.1c0-1.2-0.2-2.1-0.6-2.7s-1-0.9-2-0.9
		c-1.1,0-1.9,0.3-2.3,1c-0.5,0.6-0.7,1.7-0.7,3.2v7.5h-4V20.9H509.7z"/>
	<path class="st0" d="M532.7,33.4c-0.5,0.8-1.1,1.3-1.8,1.7s-1.6,0.5-2.5,0.5c-1.1,0-2-0.2-2.8-0.6c-0.8-0.4-1.5-1-2-1.7
		c-0.5-0.7-0.9-1.5-1.2-2.5c-0.3-0.9-0.4-1.9-0.4-2.9c0-1,0.1-1.9,0.4-2.8c0.3-0.9,0.7-1.7,1.2-2.4c0.5-0.7,1.2-1.2,2-1.7
		c0.8-0.4,1.7-0.6,2.8-0.6c0.9,0,1.7,0.2,2.4,0.5c0.8,0.4,1.4,0.9,1.8,1.6h0.1v-7.2h4v19.9h-3.8L532.7,33.4L532.7,33.4z M532.6,26.3
		c-0.1-0.5-0.3-1-0.6-1.4c-0.3-0.4-0.6-0.8-1-1c-0.4-0.3-1-0.4-1.6-0.4c-0.7,0-1.2,0.1-1.6,0.4c-0.4,0.3-0.8,0.6-1.1,1
		c-0.3,0.4-0.5,0.9-0.6,1.5c-0.1,0.5-0.2,1.1-0.2,1.7c0,0.6,0.1,1.1,0.2,1.7c0.1,0.6,0.3,1.1,0.6,1.5c0.3,0.4,0.7,0.8,1.1,1.1
		c0.4,0.3,1,0.4,1.6,0.4c0.6,0,1.2-0.1,1.6-0.4c0.4-0.3,0.8-0.6,1-1c0.3-0.4,0.4-0.9,0.6-1.5s0.2-1.1,0.2-1.7S532.7,26.9,532.6,26.3
		z"/>
</g>
<g>
	<path class="st0" d="M33.8,43.2c1.3,0,2.5,0.2,3.6,0.6s2.1,1,2.9,1.8c0.8,0.8,1.4,1.8,1.9,3.1s0.7,2.7,0.7,4.3c0,1.4-0.2,2.8-0.6,4
		c-0.4,1.2-0.9,2.3-1.7,3.2c-0.8,0.9-1.7,1.6-2.8,2.1c-1.1,0.5-2.4,0.8-4,0.8h-8.6V43.2H33.8z M33.5,59.4c0.6,0,1.2-0.1,1.8-0.3
		s1.1-0.5,1.6-1c0.5-0.5,0.8-1.1,1.1-1.9c0.3-0.8,0.4-1.7,0.4-2.8c0-1-0.1-1.9-0.3-2.7c-0.2-0.8-0.5-1.5-1-2.1c-0.4-0.6-1-1-1.8-1.3
		c-0.7-0.3-1.6-0.5-2.7-0.5h-3.1v12.5H33.5z"/>
	<path class="st0" d="M60.7,43.2v3.7H50.2v4.3h9.6v3.4h-9.6v4.9h10.7v3.7H45.8V43.2H60.7z"/>
	<path class="st0" d="M68.2,43.2l8.3,13.3h0.1V43.2h4.1v19.9h-4.4L68,49.8H68v13.3h-4.1V43.2H68.2z"/>
	<path class="st0" d="M83,46.9v-3.7h16.3v3.7h-6v16.2h-4.4V46.9H83z"/>
	<path class="st0" d="M105.9,43.2v19.9h-4.4V43.2H105.9z"/>
	<path class="st0" d="M113.1,58.2c0.2,0.5,0.6,0.8,1,1.1s0.9,0.5,1.4,0.6c0.5,0.1,1.1,0.2,1.7,0.2c0.4,0,0.8,0,1.3-0.1
		c0.4-0.1,0.9-0.2,1.3-0.4c0.4-0.2,0.7-0.4,1-0.8c0.3-0.3,0.4-0.7,0.4-1.2c0-0.5-0.2-1-0.5-1.3c-0.3-0.3-0.8-0.6-1.4-0.8
		c-0.6-0.2-1.2-0.4-1.9-0.6c-0.7-0.2-1.4-0.4-2.1-0.6c-0.7-0.2-1.5-0.4-2.2-0.7s-1.3-0.6-1.9-1c-0.6-0.4-1-1-1.4-1.6
		c-0.3-0.6-0.5-1.4-0.5-2.3c0-1,0.2-1.9,0.7-2.7c0.4-0.8,1-1.4,1.7-1.9c0.7-0.5,1.5-0.9,2.4-1.1s1.8-0.4,2.7-0.4c1,0,2,0.1,3,0.3
		c1,0.2,1.8,0.6,2.5,1.1c0.7,0.5,1.3,1.2,1.8,2c0.4,0.8,0.7,1.8,0.7,2.9h-4.2c0-0.6-0.2-1.1-0.4-1.5c-0.2-0.4-0.5-0.7-0.8-0.9
		s-0.8-0.4-1.2-0.5c-0.5-0.1-1-0.1-1.5-0.1c-0.4,0-0.7,0-1.1,0.1c-0.4,0.1-0.7,0.2-1,0.4c-0.3,0.2-0.5,0.4-0.7,0.7s-0.3,0.6-0.3,1.1
		c0,0.4,0.1,0.7,0.2,0.9c0.1,0.2,0.4,0.5,0.9,0.7c0.4,0.2,1,0.4,1.8,0.6c0.8,0.2,1.8,0.5,3,0.8c0.4,0.1,0.9,0.2,1.5,0.4
		c0.7,0.2,1.3,0.5,2,0.9c0.6,0.4,1.2,1,1.7,1.7c0.5,0.7,0.7,1.6,0.7,2.7c0,0.9-0.2,1.8-0.5,2.5c-0.4,0.8-0.9,1.5-1.6,2
		s-1.6,1-2.6,1.3c-1,0.3-2.2,0.5-3.6,0.5c-1.1,0-2.2-0.1-3.2-0.4c-1-0.3-1.9-0.7-2.7-1.3c-0.8-0.6-1.4-1.3-1.9-2.2
		c-0.5-0.9-0.7-1.9-0.7-3.2h4.2C112.7,57.2,112.9,57.7,113.1,58.2z"/>
	<path class="st0" d="M126.3,46.9v-3.7h16.3v3.7h-6v16.2h-4.4V46.9H126.3z"/>
	<path class="st0" d="M148.2,58.2c0.2,0.5,0.6,0.8,1,1.1s0.9,0.5,1.4,0.6c0.5,0.1,1.1,0.2,1.7,0.2c0.4,0,0.8,0,1.3-0.1
		c0.4-0.1,0.9-0.2,1.3-0.4c0.4-0.2,0.7-0.4,1-0.8c0.3-0.3,0.4-0.7,0.4-1.2c0-0.5-0.2-1-0.5-1.3c-0.3-0.3-0.8-0.6-1.4-0.8
		c-0.6-0.2-1.2-0.4-1.9-0.6c-0.7-0.2-1.4-0.4-2.1-0.6c-0.7-0.2-1.5-0.4-2.2-0.7s-1.3-0.6-1.9-1c-0.6-0.4-1-1-1.4-1.6
		c-0.3-0.6-0.5-1.4-0.5-2.3c0-1,0.2-1.9,0.7-2.7c0.4-0.8,1-1.4,1.7-1.9c0.7-0.5,1.5-0.9,2.4-1.1s1.8-0.4,2.7-0.4c1,0,2,0.1,3,0.3
		c1,0.2,1.8,0.6,2.5,1.1c0.7,0.5,1.3,1.2,1.8,2c0.4,0.8,0.7,1.8,0.7,2.9h-4.2c0-0.6-0.2-1.1-0.4-1.5c-0.2-0.4-0.5-0.7-0.8-0.9
		s-0.8-0.4-1.2-0.5c-0.5-0.1-1-0.1-1.5-0.1c-0.4,0-0.7,0-1.1,0.1c-0.4,0.1-0.7,0.2-1,0.4c-0.3,0.2-0.5,0.4-0.7,0.7s-0.3,0.6-0.3,1.1
		c0,0.4,0.1,0.7,0.2,0.9c0.1,0.2,0.4,0.5,0.9,0.7c0.4,0.2,1,0.4,1.8,0.6c0.8,0.2,1.8,0.5,3,0.8c0.4,0.1,0.9,0.2,1.5,0.4
		c0.7,0.2,1.3,0.5,2,0.9c0.6,0.4,1.2,1,1.7,1.7c0.5,0.7,0.7,1.6,0.7,2.7c0,0.9-0.2,1.8-0.5,2.5c-0.4,0.8-0.9,1.5-1.6,2
		s-1.6,1-2.6,1.3c-1,0.3-2.2,0.5-3.6,0.5c-1.1,0-2.2-0.1-3.2-0.4c-1-0.3-1.9-0.7-2.7-1.3c-0.8-0.6-1.4-1.3-1.9-2.2
		c-0.5-0.9-0.7-1.9-0.7-3.2h4.2C147.8,57.2,147.9,57.7,148.2,58.2z"/>
</g>
<g>
	<path class="st1" d="M177.1,51.3c-0.6,0-1.2,0.1-1.6,0.4c-0.4,0.3-0.8,0.7-1,1.1c-0.3,0.5-0.5,1-0.6,1.5c-0.1,0.5-0.2,1.1-0.2,1.6
		c0,0.5,0.1,1,0.2,1.6c0.1,0.5,0.3,1,0.5,1.5c0.3,0.4,0.6,0.8,1,1.1c0.4,0.3,0.9,0.4,1.6,0.4c0.9,0,1.7-0.3,2.2-0.8
		c0.5-0.5,0.8-1.2,1-2.1h3.8c-0.3,1.9-1,3.4-2.2,4.4c-1.2,1-2.8,1.5-4.7,1.5c-1.1,0-2.1-0.2-3-0.5c-0.9-0.4-1.7-0.9-2.3-1.5
		c-0.6-0.6-1.1-1.4-1.5-2.3c-0.4-0.9-0.5-1.9-0.5-3c0-1.1,0.2-2.1,0.5-3.1c0.3-1,0.8-1.8,1.4-2.5c0.6-0.7,1.4-1.2,2.3-1.6
		c0.9-0.4,1.9-0.6,3.1-0.6c0.9,0,1.7,0.1,2.5,0.3s1.5,0.6,2.1,1c0.6,0.5,1.1,1,1.5,1.7c0.4,0.7,0.6,1.5,0.7,2.4H180
		C179.8,52.1,178.8,51.3,177.1,51.3z"/>
	<path class="st1" d="M186.1,53.1c0.1-0.9,0.3-1.7,0.7-2.3c0.4-0.6,0.9-1.1,1.6-1.5c0.6-0.4,1.3-0.6,2.1-0.8
		c0.8-0.2,1.6-0.2,2.4-0.2c0.7,0,1.5,0.1,2.2,0.2c0.7,0.1,1.4,0.3,2,0.6c0.6,0.3,1.1,0.7,1.5,1.2c0.4,0.5,0.6,1.2,0.6,2.1v7.5
		c0,0.7,0,1.3,0.1,1.9c0.1,0.6,0.2,1,0.4,1.3h-4c-0.1-0.2-0.1-0.5-0.2-0.7c0-0.2-0.1-0.5-0.1-0.7c-0.6,0.7-1.4,1.1-2.2,1.4
		c-0.9,0.3-1.7,0.4-2.6,0.4c-0.7,0-1.3-0.1-1.9-0.3c-0.6-0.2-1.1-0.4-1.6-0.8s-0.8-0.8-1-1.3s-0.4-1.2-0.4-1.9c0-0.8,0.1-1.5,0.4-2
		c0.3-0.5,0.7-1,1.1-1.3c0.5-0.3,1-0.6,1.6-0.7c0.6-0.2,1.2-0.3,1.8-0.4s1.2-0.2,1.8-0.2c0.6-0.1,1.1-0.1,1.5-0.3
		c0.4-0.1,0.8-0.3,1.1-0.5c0.3-0.2,0.4-0.5,0.4-0.9c0-0.4-0.1-0.8-0.2-1c-0.1-0.3-0.3-0.4-0.6-0.6c-0.2-0.1-0.5-0.2-0.8-0.3
		c-0.3,0-0.6-0.1-1-0.1c-0.8,0-1.4,0.2-1.8,0.5c-0.4,0.3-0.7,0.9-0.8,1.7H186.1z M195.2,56.1c-0.2,0.1-0.4,0.3-0.6,0.3
		c-0.3,0.1-0.5,0.2-0.8,0.2c-0.3,0.1-0.6,0.1-0.9,0.1c-0.3,0-0.6,0.1-0.9,0.1c-0.3,0.1-0.6,0.1-0.9,0.2c-0.3,0.1-0.5,0.2-0.8,0.4
		c-0.2,0.2-0.4,0.4-0.5,0.6s-0.2,0.5-0.2,0.9c0,0.4,0.1,0.7,0.2,0.9c0.1,0.2,0.3,0.4,0.5,0.6s0.5,0.2,0.8,0.3
		c0.3,0.1,0.6,0.1,0.9,0.1c0.8,0,1.4-0.1,1.8-0.4c0.4-0.3,0.7-0.6,0.9-0.9c0.2-0.4,0.3-0.7,0.4-1.1c0-0.4,0.1-0.7,0.1-0.9V56.1z"/>
	<path class="st1" d="M206,48.7v2h0.1c0.5-0.8,1.2-1.4,1.9-1.8s1.6-0.6,2.5-0.6c1.1,0,1.9,0.1,2.6,0.4c0.7,0.3,1.2,0.7,1.6,1.2
		c0.4,0.5,0.7,1.1,0.8,1.9s0.2,1.5,0.2,2.4v8.9h-4V55c0-1.2-0.2-2.1-0.6-2.7c-0.4-0.6-1-0.9-2-0.9c-1.1,0-1.9,0.3-2.3,1
		c-0.5,0.6-0.7,1.7-0.7,3.2v7.5h-4V48.7H206z"/>
	<path class="st1" d="M229.8,59.5c0.2,0.3,0.4,0.6,0.7,0.8c0.3,0.2,0.6,0.3,1,0.4c0.4,0.1,0.7,0.1,1.1,0.1c0.3,0,0.6,0,0.9-0.1
		c0.3-0.1,0.6-0.2,0.8-0.3c0.3-0.1,0.5-0.3,0.6-0.6c0.2-0.2,0.3-0.5,0.3-0.9c0-0.6-0.4-1-1.2-1.3c-0.8-0.3-1.9-0.6-3.3-0.9
		c-0.6-0.1-1.1-0.3-1.7-0.5c-0.5-0.2-1-0.4-1.5-0.7c-0.4-0.3-0.8-0.6-1-1.1c-0.3-0.4-0.4-1-0.4-1.6c0-0.9,0.2-1.7,0.5-2.3
		c0.4-0.6,0.8-1.1,1.4-1.4c0.6-0.3,1.3-0.6,2-0.7c0.7-0.1,1.5-0.2,2.3-0.2s1.5,0.1,2.3,0.2c0.7,0.1,1.4,0.4,2,0.8
		c0.6,0.4,1.1,0.8,1.4,1.4c0.4,0.6,0.6,1.3,0.7,2.2H235c-0.1-0.8-0.3-1.3-0.9-1.5c-0.5-0.3-1.1-0.4-1.8-0.4c-0.2,0-0.5,0-0.7,0
		c-0.3,0-0.5,0.1-0.7,0.2c-0.2,0.1-0.4,0.2-0.5,0.4c-0.1,0.2-0.2,0.4-0.2,0.7c0,0.4,0.1,0.6,0.4,0.9c0.3,0.2,0.6,0.4,1,0.5
		c0.4,0.1,0.9,0.3,1.4,0.4c0.5,0.1,1.1,0.2,1.6,0.4c0.6,0.1,1.1,0.3,1.7,0.5c0.5,0.2,1,0.4,1.5,0.7c0.4,0.3,0.8,0.7,1,1.1
		c0.3,0.5,0.4,1,0.4,1.7c0,0.9-0.2,1.7-0.6,2.4c-0.4,0.6-0.9,1.2-1.5,1.5c-0.6,0.4-1.3,0.7-2.1,0.8c-0.8,0.2-1.6,0.2-2.4,0.2
		c-0.8,0-1.7-0.1-2.5-0.3c-0.8-0.2-1.5-0.4-2.1-0.8c-0.6-0.4-1.1-0.9-1.5-1.5s-0.6-1.4-0.7-2.4h3.8
		C229.5,58.9,229.6,59.2,229.8,59.5z"/>
	<path class="st1" d="M241.5,52.8c0.4-0.9,0.9-1.7,1.5-2.4c0.6-0.7,1.4-1.2,2.3-1.5c0.9-0.4,1.9-0.5,3.1-0.5c1.1,0,2.2,0.2,3.1,0.5
		s1.7,0.9,2.4,1.5c0.6,0.7,1.2,1.5,1.5,2.4c0.4,0.9,0.5,2,0.5,3.1c0,1.2-0.2,2.2-0.5,3.1c-0.4,0.9-0.9,1.7-1.5,2.4
		c-0.7,0.7-1.4,1.2-2.4,1.5s-1.9,0.5-3.1,0.5c-1.1,0-2.2-0.2-3.1-0.5c-0.9-0.4-1.7-0.9-2.3-1.5c-0.6-0.7-1.2-1.5-1.5-2.4
		c-0.4-0.9-0.5-2-0.5-3.1C241,54.8,241.2,53.7,241.5,52.8z M245.1,57.6c0.1,0.5,0.3,1,0.6,1.5c0.3,0.4,0.6,0.8,1.1,1
		c0.4,0.3,1,0.4,1.7,0.4s1.2-0.1,1.7-0.4s0.8-0.6,1.1-1c0.3-0.4,0.5-0.9,0.6-1.5s0.2-1.1,0.2-1.7c0-0.6-0.1-1.1-0.2-1.7
		s-0.3-1-0.6-1.5c-0.3-0.4-0.6-0.8-1.1-1c-0.5-0.3-1-0.4-1.7-0.4s-1.2,0.1-1.7,0.4c-0.4,0.3-0.8,0.6-1.1,1c-0.3,0.4-0.5,0.9-0.6,1.5
		c-0.1,0.6-0.2,1.1-0.2,1.7C244.9,56.5,245,57.1,245.1,57.6z"/>
	<path class="st1" d="M262.3,48.7v2h0.1c0.5-0.7,1.1-1.3,1.9-1.7c0.7-0.4,1.6-0.6,2.5-0.6c0.9,0,1.7,0.2,2.5,0.5s1.3,1,1.7,1.9
		c0.4-0.6,1-1.2,1.7-1.7c0.7-0.5,1.6-0.7,2.6-0.7c0.8,0,1.5,0.1,2.1,0.3c0.6,0.2,1.2,0.5,1.7,0.9c0.5,0.4,0.8,0.9,1.1,1.6
		c0.3,0.7,0.4,1.5,0.4,2.4v9.6h-4v-8.2c0-0.5,0-0.9-0.1-1.4c0-0.4-0.1-0.8-0.3-1.1c-0.2-0.3-0.4-0.6-0.7-0.8
		c-0.3-0.2-0.8-0.3-1.3-0.3s-1,0.1-1.4,0.3c-0.3,0.2-0.6,0.5-0.8,0.8c-0.2,0.3-0.3,0.7-0.4,1.2c-0.1,0.4-0.1,0.9-0.1,1.3v8h-4V55
		c0-0.4,0-0.8,0-1.3c0-0.4-0.1-0.8-0.2-1.2c-0.1-0.4-0.4-0.6-0.7-0.8c-0.3-0.2-0.8-0.3-1.4-0.3c-0.2,0-0.4,0-0.7,0.1
		c-0.3,0.1-0.6,0.2-0.9,0.5c-0.3,0.2-0.5,0.6-0.7,1s-0.3,1-0.3,1.7v8.4h-4V48.7H262.3z"/>
	<path class="st1" d="M287.9,59.7c0.6,0.6,1.4,0.9,2.6,0.9c0.8,0,1.5-0.2,2.1-0.6c0.6-0.4,0.9-0.8,1.1-1.3h3.5
		c-0.6,1.7-1.4,3-2.6,3.7c-1.2,0.7-2.5,1.1-4.2,1.1c-1.1,0-2.2-0.2-3.1-0.5c-0.9-0.4-1.7-0.9-2.3-1.5c-0.6-0.7-1.1-1.5-1.5-2.4
		c-0.3-0.9-0.5-1.9-0.5-3.1c0-1.1,0.2-2.1,0.5-3c0.4-0.9,0.9-1.7,1.5-2.4c0.6-0.7,1.4-1.2,2.3-1.6c0.9-0.4,1.9-0.6,3-0.6
		c1.2,0,2.3,0.2,3.2,0.7c0.9,0.5,1.7,1.1,2.2,1.9s1,1.7,1.3,2.7c0.3,1,0.4,2.1,0.3,3.2h-10.4C287,58.2,287.3,59.1,287.9,59.7z
		 M292.4,52.1c-0.5-0.5-1.2-0.8-2.2-0.8c-0.6,0-1.2,0.1-1.6,0.3c-0.4,0.2-0.8,0.5-1,0.8c-0.3,0.3-0.4,0.7-0.5,1
		c-0.1,0.4-0.2,0.7-0.2,0.9h6.4C293.2,53.4,292.8,52.6,292.4,52.1z"/>
	<path class="st1" d="M307.6,48.7v2.6h-2.9v7.1c0,0.7,0.1,1.1,0.3,1.3c0.2,0.2,0.7,0.3,1.3,0.3c0.2,0,0.4,0,0.6,0
		c0.2,0,0.4,0,0.6-0.1v3.1c-0.3,0.1-0.7,0.1-1.1,0.1c-0.4,0-0.8,0-1.2,0c-0.6,0-1.2,0-1.7-0.1c-0.5-0.1-1-0.2-1.4-0.5
		c-0.4-0.2-0.7-0.6-1-1c-0.2-0.4-0.4-1-0.4-1.8v-8.5h-2.4v-2.6h2.4v-4.3h4v4.3H307.6z"/>
	<path class="st1" d="M309.6,46.5v-3.3h4v3.3H309.6z M313.5,48.7v14.4h-4V48.7H313.5z"/>
	<path class="st1" d="M320.5,48.7v2h0.1c0.5-0.7,1.1-1.3,1.9-1.7c0.7-0.4,1.6-0.6,2.5-0.6c0.9,0,1.7,0.2,2.5,0.5s1.3,1,1.7,1.9
		c0.4-0.6,1-1.2,1.7-1.7c0.7-0.5,1.6-0.7,2.6-0.7c0.8,0,1.5,0.1,2.1,0.3c0.6,0.2,1.2,0.5,1.7,0.9c0.5,0.4,0.8,0.9,1.1,1.6
		c0.3,0.7,0.4,1.5,0.4,2.4v9.6h-4v-8.2c0-0.5,0-0.9-0.1-1.4c0-0.4-0.1-0.8-0.3-1.1c-0.2-0.3-0.4-0.6-0.7-0.8
		c-0.3-0.2-0.8-0.3-1.3-0.3s-1,0.1-1.4,0.3c-0.3,0.2-0.6,0.5-0.8,0.8c-0.2,0.3-0.3,0.7-0.4,1.2c-0.1,0.4-0.1,0.9-0.1,1.3v8h-4V55
		c0-0.4,0-0.8,0-1.3c0-0.4-0.1-0.8-0.2-1.2c-0.1-0.4-0.4-0.6-0.7-0.8c-0.3-0.2-0.8-0.3-1.4-0.3c-0.2,0-0.4,0-0.7,0.1
		c-0.3,0.1-0.6,0.2-0.9,0.5c-0.3,0.2-0.5,0.6-0.7,1s-0.3,1-0.3,1.7v8.4h-4V48.7H320.5z"/>
	<path class="st1" d="M346.1,59.7c0.6,0.6,1.4,0.9,2.6,0.9c0.8,0,1.5-0.2,2.1-0.6c0.6-0.4,0.9-0.8,1.1-1.3h3.5
		c-0.6,1.7-1.4,3-2.6,3.7c-1.2,0.7-2.5,1.1-4.2,1.1c-1.1,0-2.2-0.2-3.1-0.5c-0.9-0.4-1.7-0.9-2.3-1.5c-0.6-0.7-1.1-1.5-1.5-2.4
		c-0.3-0.9-0.5-1.9-0.5-3.1c0-1.1,0.2-2.1,0.5-3c0.4-0.9,0.9-1.7,1.5-2.4c0.6-0.7,1.4-1.2,2.3-1.6c0.9-0.4,1.9-0.6,3-0.6
		c1.2,0,2.3,0.2,3.2,0.7c0.9,0.5,1.7,1.1,2.2,1.9s1,1.7,1.3,2.7c0.3,1,0.4,2.1,0.3,3.2h-10.4C345.2,58.2,345.5,59.1,346.1,59.7z
		 M350.6,52.1c-0.5-0.5-1.2-0.8-2.2-0.8c-0.6,0-1.2,0.1-1.6,0.3c-0.4,0.2-0.8,0.5-1,0.8c-0.3,0.3-0.4,0.7-0.5,1
		c-0.1,0.4-0.2,0.7-0.2,0.9h6.4C351.4,53.4,351.1,52.6,350.6,52.1z"/>
	<path class="st1" d="M361.2,59.5c0.2,0.3,0.4,0.6,0.7,0.8c0.3,0.2,0.6,0.3,1,0.4c0.4,0.1,0.7,0.1,1.1,0.1c0.3,0,0.6,0,0.9-0.1
		c0.3-0.1,0.6-0.2,0.8-0.3c0.3-0.1,0.5-0.3,0.6-0.6c0.2-0.2,0.2-0.5,0.2-0.9c0-0.6-0.4-1-1.2-1.3c-0.8-0.3-1.9-0.6-3.3-0.9
		c-0.6-0.1-1.1-0.3-1.7-0.5c-0.5-0.2-1-0.4-1.5-0.7c-0.4-0.3-0.8-0.6-1-1.1s-0.4-1-0.4-1.6c0-0.9,0.2-1.7,0.5-2.3
		c0.4-0.6,0.8-1.1,1.4-1.4c0.6-0.3,1.3-0.6,2-0.7s1.5-0.2,2.3-0.2c0.8,0,1.5,0.1,2.3,0.2c0.7,0.1,1.4,0.4,2,0.8
		c0.6,0.4,1.1,0.8,1.4,1.4c0.4,0.6,0.6,1.3,0.7,2.2h-3.8c-0.1-0.8-0.3-1.3-0.9-1.5c-0.5-0.3-1.1-0.4-1.8-0.4c-0.2,0-0.5,0-0.7,0
		c-0.3,0-0.5,0.1-0.7,0.2c-0.2,0.1-0.4,0.2-0.5,0.4c-0.1,0.2-0.2,0.4-0.2,0.7c0,0.4,0.1,0.6,0.4,0.9s0.6,0.4,1,0.5
		c0.4,0.1,0.9,0.3,1.4,0.4c0.5,0.1,1.1,0.2,1.6,0.4c0.6,0.1,1.1,0.3,1.7,0.5s1,0.4,1.5,0.7c0.4,0.3,0.8,0.7,1,1.1
		c0.3,0.5,0.4,1,0.4,1.7c0,0.9-0.2,1.7-0.6,2.4s-0.9,1.2-1.5,1.5c-0.6,0.4-1.3,0.7-2.1,0.8c-0.8,0.2-1.6,0.2-2.4,0.2
		c-0.8,0-1.7-0.1-2.5-0.3s-1.5-0.4-2.1-0.8c-0.6-0.4-1.1-0.9-1.5-1.5s-0.6-1.4-0.7-2.4h3.8C360.9,58.9,361,59.2,361.2,59.5z"/>
	<path class="st1" d="M393.7,48.5c-0.3-0.4-0.6-0.8-1-1.1c-0.4-0.3-0.8-0.6-1.3-0.7s-1-0.3-1.5-0.3c-1,0-1.8,0.2-2.5,0.6
		c-0.7,0.4-1.2,0.9-1.7,1.5c-0.4,0.6-0.7,1.4-0.9,2.2c-0.2,0.8-0.3,1.7-0.3,2.5c0,0.8,0.1,1.6,0.3,2.4c0.2,0.8,0.5,1.5,0.9,2.1
		c0.4,0.6,1,1.1,1.7,1.5c0.7,0.4,1.5,0.6,2.5,0.6c1.3,0,2.4-0.4,3.1-1.2s1.2-1.9,1.4-3.2h4.2c-0.1,1.2-0.4,2.4-0.9,3.4
		c-0.5,1-1.1,1.9-1.8,2.6c-0.8,0.7-1.7,1.2-2.7,1.6c-1,0.4-2.1,0.6-3.4,0.6c-1.5,0-2.9-0.3-4.1-0.8c-1.2-0.5-2.2-1.3-3.1-2.2
		c-0.8-0.9-1.5-2-1.9-3.3s-0.7-2.6-0.7-4.1c0-1.5,0.2-2.9,0.7-4.1s1.1-2.4,1.9-3.3c0.8-0.9,1.9-1.7,3.1-2.2c1.2-0.5,2.6-0.8,4.1-0.8
		c1.1,0,2.1,0.2,3.1,0.5c1,0.3,1.8,0.8,2.6,1.4c0.8,0.6,1.4,1.4,1.9,2.2c0.5,0.9,0.8,1.9,0.9,3.1h-4.2
		C394.2,49.4,394,48.9,393.7,48.5z"/>
	<path class="st1" d="M406,43.2v7.6h8v-7.6h4.4v19.9H414v-8.6h-8v8.6h-4.4V43.2H406z"/>
	<path class="st1" d="M432.2,43.2l7.4,19.9h-4.5l-1.5-4.4h-7.4l-1.6,4.4h-4.4l7.5-19.9H432.2z M432.4,55.4l-2.5-7.3h-0.1l-2.6,7.3
		H432.4z"/>
	<path class="st1" d="M445.7,43.2l8.3,13.3h0.1V43.2h4.1v19.9h-4.4l-8.3-13.3h-0.1v13.3h-4.1V43.2H445.7z"/>
	<path class="st1" d="M473.7,63c-0.9,0.4-1.9,0.6-2.9,0.6c-1.5,0-2.9-0.3-4.1-0.8c-1.2-0.5-2.2-1.3-3.1-2.2c-0.8-0.9-1.5-2-1.9-3.3
		s-0.7-2.6-0.7-4.1c0-1.5,0.2-2.9,0.7-4.1s1.1-2.4,1.9-3.3c0.8-0.9,1.9-1.7,3.1-2.2c1.2-0.5,2.6-0.8,4.1-0.8c1,0,2,0.2,3,0.5
		c1,0.3,1.8,0.8,2.6,1.4c0.8,0.6,1.4,1.3,1.9,2.2c0.5,0.9,0.8,1.9,0.9,3h-4.2c-0.3-1.1-0.8-1.9-1.5-2.5c-0.7-0.6-1.6-0.8-2.7-0.8
		c-1,0-1.8,0.2-2.5,0.6c-0.7,0.4-1.2,0.9-1.7,1.5c-0.4,0.6-0.7,1.4-0.9,2.2c-0.2,0.8-0.3,1.7-0.3,2.5c0,0.8,0.1,1.6,0.3,2.4
		c0.2,0.8,0.5,1.5,0.9,2.1c0.4,0.6,1,1.1,1.7,1.5c0.7,0.4,1.5,0.6,2.5,0.6c1.4,0,2.6-0.4,3.4-1.1c0.8-0.7,1.2-1.8,1.4-3.2h-4.4v-3.3
		h8.4v10.8h-2.8l-0.4-2.3C475.6,61.9,474.7,62.6,473.7,63z"/>
	<path class="st1" d="M498,43.2v3.7h-10.5v4.3h9.6v3.4h-9.6v4.9h10.7v3.7h-15.1V43.2H498z"/>
</g>
</svg>
