<?xml version="1.0" encoding="utf-8"?>
<!-- Generator: Adobe Illustrator 25.4.1, SVG Export Plug-In . SVG Version: 6.00 Build 0)  -->
<svg version="1.1" id="Layer_1" xmlns="http://www.w3.org/2000/svg" xmlns:xlink="http://www.w3.org/1999/xlink" x="0px" y="0px"
	 viewBox="0 0 728 90" style="enable-background:new 0 0 728 90;" xml:space="preserve">
<style type="text/css">
	.st0{clip-path:url(#SVGID_00000127032196859642436700000001111200147015815329_);fill:#349946;}
	.st1{fill:#FFFFFF;}
</style>
<g>
	<defs>
		<rect id="SVGID_1_" x="535.5" y="12.6" width="116.3" height="24.5"/>
	</defs>
	<clipPath id="SVGID_00000175308826902692451980000001308347190048485304_">
		<use xlink:href="#SVGID_1_"  style="overflow:visible;"/>
	</clipPath>
	<path style="clip-path:url(#SVGID_00000175308826902692451980000001308347190048485304_);fill:#349946;" d="M651.8,24.9
		c0,6.7-6.3,12.3-14.1,12.3h-88.2c-7.7,0-14.1-5.5-14.1-12.3s6.3-12.3,14.1-12.3h88.2C645.5,12.6,651.8,18.1,651.8,24.9"/>
</g>
<g>
	<path class="st1" d="M558.4,21.2c0.3,0,0.7,0.1,0.9,0.2s0.5,0.3,0.7,0.5s0.4,0.4,0.5,0.7c0.1,0.3,0.2,0.5,0.2,0.8
		c0,0.5-0.1,0.9-0.3,1.2c-0.2,0.3-0.5,0.6-0.9,0.8v0c0.2,0.1,0.4,0.1,0.5,0.3s0.3,0.3,0.3,0.4c0.1,0.2,0.2,0.3,0.2,0.5
		s0.1,0.4,0.1,0.6c0,0.1,0,0.3,0,0.4c0,0.2,0,0.3,0,0.5c0,0.2,0,0.3,0.1,0.5c0,0.2,0.1,0.3,0.2,0.4h-1.7c-0.1-0.2-0.2-0.5-0.2-0.9
		c0-0.3-0.1-0.7-0.1-1c-0.1-0.4-0.2-0.7-0.4-0.9c-0.2-0.2-0.5-0.3-0.9-0.3h-1.7V29h-1.7v-7.8H558.4z M557.8,24.7
		c0.4,0,0.7-0.1,0.9-0.3s0.3-0.5,0.3-0.9c0-0.4-0.1-0.7-0.3-0.8c-0.2-0.2-0.5-0.3-0.9-0.3h-1.9v2.2H557.8z"/>
	<path class="st1" d="M567.9,21.2v1.4h-4.1v1.7h3.8v1.3h-3.8v1.9h4.2V29h-5.9v-7.8H567.9z"/>
	<path class="st1" d="M573.1,21.2L576,29h-1.8l-0.6-1.7h-2.9l-0.6,1.7h-1.7l3-7.8H573.1z M573.2,26l-1-2.9h0l-1,2.9H573.2z"/>
	<path class="st1" d="M580,21.2c0.5,0,1,0.1,1.4,0.2s0.8,0.4,1.1,0.7c0.3,0.3,0.6,0.7,0.7,1.2s0.3,1,0.3,1.7c0,0.6-0.1,1.1-0.2,1.6
		c-0.1,0.5-0.4,0.9-0.7,1.2s-0.7,0.6-1.1,0.8c-0.4,0.2-1,0.3-1.6,0.3h-3.4v-7.8H580z M579.9,27.6c0.2,0,0.5,0,0.7-0.1
		c0.2-0.1,0.4-0.2,0.6-0.4s0.3-0.4,0.4-0.7c0.1-0.3,0.2-0.7,0.2-1.1c0-0.4,0-0.8-0.1-1.1c-0.1-0.3-0.2-0.6-0.4-0.8
		c-0.2-0.2-0.4-0.4-0.7-0.5c-0.3-0.1-0.6-0.2-1.1-0.2h-1.2v4.9H579.9z"/>
	<path class="st1" d="M591.7,21.2l2.9,7.8h-1.8l-0.6-1.7h-2.9l-0.6,1.7H587l3-7.8H591.7z M591.8,26l-1-2.9h0l-1,2.9H591.8z"/>
	<path class="st1" d="M599.5,21.2c0.3,0,0.7,0.1,0.9,0.2s0.5,0.3,0.7,0.5s0.4,0.4,0.5,0.7c0.1,0.3,0.2,0.5,0.2,0.8
		c0,0.5-0.1,0.9-0.3,1.2c-0.2,0.3-0.5,0.6-0.9,0.8v0c0.2,0.1,0.4,0.1,0.5,0.3s0.3,0.3,0.3,0.4c0.1,0.2,0.2,0.3,0.2,0.5
		s0.1,0.4,0.1,0.6c0,0.1,0,0.3,0,0.4c0,0.2,0,0.3,0,0.5c0,0.2,0,0.3,0.1,0.5c0,0.2,0.1,0.3,0.2,0.4h-1.7c-0.1-0.2-0.2-0.5-0.2-0.9
		c0-0.3-0.1-0.7-0.1-1c-0.1-0.4-0.2-0.7-0.4-0.9c-0.2-0.2-0.5-0.3-0.9-0.3H597V29h-1.7v-7.8H599.5z M598.9,24.7
		c0.4,0,0.7-0.1,0.9-0.3s0.3-0.5,0.3-0.9c0-0.4-0.1-0.7-0.3-0.8c-0.2-0.2-0.5-0.3-0.9-0.3H597v2.2H598.9z"/>
</g>
<g>
	<path class="st1" d="M602.4,22.7v-1.4h6.4v1.4h-2.3V29h-1.7v-6.4H602.4z"/>
	<path class="st1" d="M611.4,21.2V29h-1.7v-7.8H611.4z"/>
	<path class="st1" d="M618,23.3c-0.1-0.2-0.2-0.3-0.4-0.4s-0.3-0.2-0.5-0.3s-0.4-0.1-0.6-0.1c-0.4,0-0.7,0.1-1,0.2
		c-0.3,0.1-0.5,0.4-0.7,0.6s-0.3,0.5-0.4,0.9c-0.1,0.3-0.1,0.7-0.1,1c0,0.3,0,0.6,0.1,1c0.1,0.3,0.2,0.6,0.4,0.8
		c0.2,0.2,0.4,0.4,0.7,0.6c0.3,0.1,0.6,0.2,1,0.2c0.5,0,0.9-0.2,1.2-0.5s0.5-0.7,0.5-1.3h1.7c0,0.5-0.2,0.9-0.3,1.3
		c-0.2,0.4-0.4,0.7-0.7,1c-0.3,0.3-0.7,0.5-1.1,0.6c-0.4,0.1-0.8,0.2-1.3,0.2c-0.6,0-1.1-0.1-1.6-0.3c-0.5-0.2-0.9-0.5-1.2-0.9
		c-0.3-0.4-0.6-0.8-0.8-1.3c-0.2-0.5-0.3-1-0.3-1.6c0-0.6,0.1-1.1,0.3-1.6c0.2-0.5,0.4-0.9,0.8-1.3c0.3-0.4,0.7-0.7,1.2-0.9
		c0.5-0.2,1-0.3,1.6-0.3c0.4,0,0.8,0.1,1.2,0.2c0.4,0.1,0.7,0.3,1,0.5c0.3,0.2,0.6,0.5,0.8,0.9c0.2,0.4,0.3,0.8,0.4,1.2h-1.7
		C618.1,23.6,618.1,23.5,618,23.3z"/>
	<path class="st1" d="M622.8,21.2v6.4h3.8V29h-5.5v-7.8H622.8z"/>
	<path class="st1" d="M633.4,21.2v1.4h-4.1v1.7h3.8v1.3h-3.8v1.9h4.2V29h-5.9v-7.8H633.4z"/>
</g>
</svg>
