<?xml version="1.0" encoding="utf-8"?>
<!-- Generator: Adobe Illustrator 25.4.1, SVG Export Plug-In . SVG Version: 6.00 Build 0)  -->
<svg version="1.1" id="Layer_1" xmlns="http://www.w3.org/2000/svg" xmlns:xlink="http://www.w3.org/1999/xlink" x="0px" y="0px"
	 viewBox="0 0 728 90" style="enable-background:new 0 0 728 90;" xml:space="preserve">
<style type="text/css">
	.st0{fill:#349946;}
	.st1{fill:#231F20;}
	.st2{fill:none;}
</style>
<path class="st0" d="M507.9,80.1h-2.2L505,78h-4.3l-0.7,2.1h-2.2l3.8-10h1.6c0.5,0,0.9,0.2,1,0.6c0.1,0.4,1.9,4.9,1.9,4.9h-2
	l-1.2-3.4l-1.6,4.3h4.3c0.6,0,0.9,0.2,1.1,0.7L507.9,80.1z"/>
<path class="st0" d="M526.9,80.1h-2.2L524,78h-4.3l-0.7,2.1h-2.2l3.8-10h1.6c0.5,0,0.9,0.2,1,0.6c0.1,0.4,1.9,4.9,1.9,4.9h-2
	l-1.2-3.4l-1.6,4.3h4.3c0.6,0,0.9,0.2,1.1,0.7L526.9,80.1z"/>
<path class="st0" d="M508.6,70h3.9c3.1,0,4.6,1.6,4.6,5c0,1.9-0.6,3.3-1.6,4.1c-1,0.8-2.1,0.9-3.5,0.9h-3.4V70z M512.3,78.3
	c1.9,0,2.7-0.9,2.7-3.2c0-2.2-0.8-3.3-2.5-3.3h-1.9v6.5H512.3z"/>
<g>
	<path class="st1" d="M544,80h-1.6l-0.7-7.2l-2.4,7.2h-1.4l-2.5-7.2l-0.6,7.2h-1.5l0.9-9.5h1.8l2.6,7.3l2.5-7.3h1.8L544,80z"/>
	<path class="st1" d="M551.7,76.4c0,0.1,0,0.2,0,0.3c0,0.1,0,0.2,0,0.2H547c0,0.5,0.1,0.9,0.4,1.3c0.4,0.4,0.9,0.6,1.5,0.6
		c0.6,0,1.2-0.2,1.9-0.5l0.5,1c-0.7,0.5-1.6,0.8-2.6,0.8c-1.1,0-1.9-0.3-2.5-1c-0.6-0.7-0.9-1.5-0.9-2.6c0-1.1,0.3-2,0.9-2.7
		c0.6-0.7,1.4-1,2.4-1c0.9,0,1.7,0.3,2.2,1S551.7,75.3,551.7,76.4z M550.2,75.8c0-0.4-0.1-0.8-0.3-1.1c-0.3-0.4-0.7-0.7-1.2-0.7
		c-0.5,0-0.9,0.2-1.2,0.5c-0.3,0.3-0.5,0.8-0.6,1.3H550.2z"/>
	<path class="st1" d="M563.1,80h-1.6v-3.9c0-0.8-0.1-1.3-0.3-1.5c-0.2-0.2-0.5-0.3-0.9-0.3c-0.5,0-1,0.2-1.6,0.5
		c0.1,0.2,0.1,0.7,0.1,1.6V80h-1.6v-3.8c0-0.9-0.1-1.5-0.3-1.7c-0.2-0.2-0.4-0.3-0.8-0.3c-0.5,0-1,0.2-1.5,0.5V80h-1.6v-7h1.4v0.5
		c0.6-0.5,1.3-0.7,2-0.7c0.7,0,1.3,0.3,1.7,0.8c0.8-0.5,1.6-0.8,2.3-0.8c0.7,0,1.3,0.2,1.7,0.6c0.3,0.3,0.6,0.8,0.7,1.3
		c0.1,0.3,0.1,0.9,0.1,1.8V80z"/>
	<path class="st1" d="M571.2,76.4c0,1.1-0.3,2.1-1,2.8c-0.7,0.7-1.5,1.1-2.6,1.1c-0.8,0-1.7-0.2-2.7-0.5v-10h1.6v3.7
		c0.6-0.4,1.1-0.5,1.8-0.5c0.9,0,1.6,0.3,2.2,1S571.2,75.3,571.2,76.4z M569.6,76.4c0-0.7-0.2-1.3-0.5-1.7c-0.3-0.4-0.7-0.6-1.2-0.6
		c-0.5,0-1,0.2-1.5,0.5v4.1c0.4,0.1,0.8,0.2,1.2,0.2c0.6,0,1.1-0.2,1.5-0.7C569.4,77.7,569.6,77.1,569.6,76.4z"/>
	<path class="st1" d="M578.7,76.4c0,0.1,0,0.2,0,0.3c0,0.1,0,0.2,0,0.2h-4.7c0,0.5,0.1,0.9,0.4,1.3c0.4,0.4,0.9,0.6,1.5,0.6
		c0.6,0,1.2-0.2,1.9-0.5l0.5,1c-0.7,0.5-1.6,0.8-2.6,0.8c-1.1,0-1.9-0.3-2.5-1c-0.6-0.7-0.9-1.5-0.9-2.6c0-1.1,0.3-2,0.9-2.7
		c0.6-0.7,1.4-1,2.4-1c0.9,0,1.7,0.3,2.2,1S578.7,75.3,578.7,76.4z M577.2,75.8c0-0.4-0.1-0.8-0.3-1.1c-0.3-0.4-0.7-0.7-1.2-0.7
		c-0.5,0-0.9,0.2-1.2,0.5c-0.3,0.3-0.5,0.8-0.6,1.3H577.2z"/>
	<path class="st1" d="M584.6,73l-0.4,1.2c-0.1,0-0.3,0-0.5,0c-0.8,0-1.5,0.4-2,1.1V80h-1.6v-7h1.4v0.9c0.1-0.2,0.3-0.4,0.6-0.6
		c0.5-0.3,1-0.5,1.6-0.5C584.1,72.8,584.3,72.9,584.6,73z"/>
</g>
<g>
	<path class="st1" d="M590.3,78c0,0.7-0.2,1.2-0.7,1.6s-1.1,0.6-1.9,0.6c-0.6,0-1.2-0.1-1.8-0.3c-0.4-0.1-0.6-0.3-0.7-0.4l0.6-1
		c0.7,0.4,1.3,0.5,1.8,0.5c0.4,0,0.7-0.1,0.9-0.2c0.2-0.2,0.3-0.4,0.3-0.6s-0.1-0.5-0.4-0.6c-0.1-0.1-0.5-0.3-1.1-0.5
		c-0.6-0.2-1-0.5-1.2-0.7c-0.4-0.4-0.6-0.8-0.6-1.4c0-0.6,0.2-1.1,0.7-1.5c0.5-0.4,1.1-0.6,1.9-0.6c1,0,1.7,0.2,2.3,0.6l-0.5,1
		c-0.6-0.3-1.1-0.5-1.6-0.5c-0.7,0-1.1,0.3-1.1,0.8c0,0.2,0.1,0.4,0.4,0.6c0.1,0.1,0.4,0.2,0.9,0.4c0.7,0.3,1.2,0.5,1.4,0.7
		C590.1,76.9,590.3,77.4,590.3,78z"/>
	<path class="st1" d="M597.1,80h-1.7v-9.5h1.7V80z"/>
	<path class="st1" d="M605,80h-1.6v-3.8c0-0.9-0.1-1.5-0.3-1.7c-0.2-0.2-0.5-0.3-0.9-0.3c-0.5,0-1,0.2-1.6,0.5V80h-1.6v-7h1.4v0.5
		c0.7-0.5,1.3-0.7,2.1-0.7c0.7,0,1.3,0.2,1.7,0.6c0.3,0.3,0.5,0.7,0.6,1.2c0.1,0.3,0.1,0.8,0.1,1.4V80z"/>
	<path class="st1" d="M611.4,78c0,0.7-0.2,1.2-0.7,1.6s-1.1,0.6-1.9,0.6c-0.6,0-1.2-0.1-1.8-0.3c-0.4-0.1-0.6-0.3-0.7-0.4l0.6-1
		c0.7,0.4,1.3,0.5,1.8,0.5c0.4,0,0.7-0.1,0.9-0.2c0.2-0.2,0.3-0.4,0.3-0.6s-0.1-0.5-0.4-0.6c-0.1-0.1-0.5-0.3-1.1-0.5
		c-0.6-0.2-1-0.5-1.2-0.7c-0.4-0.4-0.6-0.8-0.6-1.4c0-0.6,0.2-1.1,0.7-1.5c0.5-0.4,1.1-0.6,1.9-0.6c1,0,1.7,0.2,2.3,0.6l-0.5,1
		c-0.6-0.3-1.1-0.5-1.6-0.5c-0.7,0-1.1,0.3-1.1,0.8c0,0.2,0.1,0.4,0.4,0.6c0.1,0.1,0.4,0.2,0.9,0.4c0.7,0.3,1.2,0.5,1.4,0.7
		C611.2,76.9,611.4,77.4,611.4,78z"/>
	<path class="st1" d="M618.8,80h-1.4v-0.5c-0.6,0.5-1.3,0.7-2.1,0.7c-0.7,0-1.3-0.2-1.7-0.6c-0.3-0.3-0.5-0.7-0.6-1.2
		c-0.1-0.3-0.1-0.8-0.1-1.4V73h1.6v3.8c0,0.5,0,0.8,0,0.9c0,0.4,0.2,0.7,0.4,0.8c0.2,0.2,0.5,0.2,0.8,0.2c0.4,0,0.9-0.2,1.5-0.5V73
		h1.6V80z"/>
	<path class="st1" d="M625.1,73l-0.4,1.2c-0.1,0-0.3,0-0.5,0c-0.8,0-1.5,0.4-2,1.1V80h-1.6v-7h1.4v0.9c0.1-0.2,0.3-0.4,0.6-0.6
		c0.5-0.3,1-0.5,1.6-0.5C624.6,72.8,624.8,72.9,625.1,73z"/>
</g>
<g>
	<path class="st1" d="M631.2,80h-1.4v-0.5c-0.7,0.4-1.4,0.7-2.1,0.7c-0.7,0-1.2-0.2-1.6-0.6c-0.4-0.4-0.6-0.9-0.6-1.6
		c0-1.6,1.3-2.4,3.9-2.4h0.3v-0.3c0-0.4-0.1-0.7-0.2-0.9c-0.2-0.2-0.6-0.3-1.1-0.3c-0.6,0-1.2,0.2-1.9,0.5l-0.5-1
		c0.2-0.1,0.4-0.3,0.7-0.4c0.6-0.2,1.2-0.3,1.8-0.3c1,0,1.7,0.2,2.2,0.7c0.2,0.2,0.4,0.6,0.5,0.9c0,0.2,0.1,0.6,0.1,1.2V80z
		 M629.7,78.5v-1.8h-0.3c-1.1,0-1.8,0.2-2.2,0.5c-0.2,0.2-0.3,0.4-0.3,0.7c0,0.3,0.1,0.6,0.3,0.8c0.2,0.2,0.5,0.3,0.9,0.3
		C628.6,78.9,629.1,78.8,629.7,78.5z"/>
	<path class="st1" d="M638.8,80h-1.6v-3.8c0-0.9-0.1-1.5-0.3-1.7c-0.2-0.2-0.5-0.3-0.9-0.3c-0.5,0-1,0.2-1.6,0.5V80h-1.6v-7h1.4v0.5
		c0.7-0.5,1.3-0.7,2.1-0.7c0.7,0,1.3,0.2,1.7,0.6c0.3,0.3,0.5,0.7,0.6,1.2c0.1,0.3,0.1,0.8,0.1,1.4V80z"/>
	<path class="st1" d="M646.2,79.4c-0.1,0.1-0.3,0.3-0.7,0.4c-0.6,0.3-1.2,0.4-1.8,0.4c-1,0-1.9-0.3-2.5-1c-0.6-0.7-1-1.5-1-2.6
		c0-1.1,0.3-2,1-2.7c0.7-0.7,1.5-1.1,2.6-1.1c0.6,0,1.1,0.1,1.6,0.4c0.3,0.2,0.6,0.3,0.7,0.4l-0.6,1c-0.5-0.3-1-0.5-1.6-0.5
		c-0.6,0-1.2,0.2-1.6,0.7c-0.4,0.4-0.6,1-0.6,1.6c0,0.7,0.2,1.3,0.5,1.7c0.4,0.4,0.9,0.7,1.5,0.7c0.5,0,1.1-0.2,1.8-0.5L646.2,79.4z
		"/>
</g>
<g>
	<path class="st1" d="M653.2,76.4c0,0.1,0,0.2,0,0.3c0,0.1,0,0.2,0,0.2h-4.7c0,0.5,0.1,0.9,0.4,1.3c0.4,0.4,0.9,0.6,1.5,0.6
		c0.6,0,1.2-0.2,1.9-0.5l0.5,1c-0.7,0.5-1.6,0.8-2.6,0.8c-1.1,0-1.9-0.3-2.5-1c-0.6-0.7-0.9-1.5-0.9-2.6c0-1.1,0.3-2,0.9-2.7
		c0.6-0.7,1.4-1,2.4-1c0.9,0,1.7,0.3,2.2,1S653.2,75.3,653.2,76.4z M651.7,75.8c0-0.4-0.1-0.8-0.3-1.1c-0.3-0.4-0.7-0.7-1.2-0.7
		c-0.5,0-0.9,0.2-1.2,0.5c-0.3,0.3-0.5,0.8-0.6,1.3H651.7z"/>
	<path class="st1" d="M664.7,73.3c0,0.9-0.3,1.6-0.8,2.1c-0.4,0.4-0.9,0.7-1.5,0.8c-0.4,0.1-0.9,0.1-1.8,0.1h-0.7V80h-1.6v-9.5h2.5
		c0.8,0,1.3,0,1.7,0.1c0.6,0.1,1,0.3,1.3,0.7C664.4,71.8,664.7,72.5,664.7,73.3z M663,73.4c0-0.5-0.1-0.9-0.4-1.2
		c-0.3-0.3-0.8-0.4-1.8-0.4h-0.9V75h0.7c1,0,1.7-0.1,2-0.4C662.9,74.3,663,73.9,663,73.4z"/>
	<path class="st1" d="M667.9,80h-1.6V69.7h1.6V80z"/>
	<path class="st1" d="M675,80h-1.4v-0.5c-0.7,0.4-1.4,0.7-2.1,0.7c-0.7,0-1.2-0.2-1.6-0.6c-0.4-0.4-0.6-0.9-0.6-1.6
		c0-1.6,1.3-2.4,3.9-2.4h0.3v-0.3c0-0.4-0.1-0.7-0.2-0.9c-0.2-0.2-0.6-0.3-1.1-0.3c-0.6,0-1.2,0.2-1.9,0.5l-0.5-1
		c0.2-0.1,0.4-0.3,0.7-0.4c0.6-0.2,1.2-0.3,1.8-0.3c1,0,1.7,0.2,2.2,0.7c0.2,0.2,0.4,0.6,0.5,0.9c0,0.2,0.1,0.6,0.1,1.2V80z
		 M673.6,78.5v-1.8h-0.3c-1.1,0-1.8,0.2-2.2,0.5c-0.2,0.2-0.3,0.4-0.3,0.7c0,0.3,0.1,0.6,0.3,0.8c0.2,0.2,0.5,0.3,0.9,0.3
		C672.5,78.9,673,78.8,673.6,78.5z"/>
	<path class="st1" d="M682.7,80h-1.6v-3.8c0-0.9-0.1-1.5-0.3-1.7c-0.2-0.2-0.5-0.3-0.9-0.3c-0.5,0-1,0.2-1.6,0.5V80h-1.6v-7h1.4v0.5
		c0.7-0.5,1.3-0.7,2.1-0.7c0.7,0,1.3,0.2,1.7,0.6c0.3,0.3,0.5,0.7,0.6,1.2c0.1,0.3,0.1,0.8,0.1,1.4V80z"/>
	<path class="st1" d="M689.1,78c0,0.7-0.2,1.2-0.7,1.6s-1.1,0.6-1.9,0.6c-0.6,0-1.2-0.1-1.8-0.3c-0.4-0.1-0.6-0.3-0.7-0.4l0.6-1
		c0.7,0.4,1.3,0.5,1.8,0.5c0.4,0,0.7-0.1,0.9-0.2c0.2-0.2,0.3-0.4,0.3-0.6s-0.1-0.5-0.4-0.6c-0.1-0.1-0.5-0.3-1.1-0.5
		c-0.6-0.2-1-0.5-1.2-0.7c-0.4-0.4-0.6-0.8-0.6-1.4c0-0.6,0.2-1.1,0.7-1.5c0.5-0.4,1.1-0.6,1.9-0.6c1,0,1.7,0.2,2.3,0.6l-0.5,1
		c-0.6-0.3-1.1-0.5-1.6-0.5c-0.7,0-1.1,0.3-1.1,0.8c0,0.2,0.1,0.4,0.4,0.6c0.1,0.1,0.4,0.2,0.9,0.4c0.7,0.3,1.2,0.5,1.4,0.7
		C688.8,76.9,689.1,77.4,689.1,78z"/>
</g>
<path class="st0" d="M528.3,80.1c-0.7,0-1.2-0.5-1.2-1.2s0.5-1.2,1.2-1.2s1.2,0.5,1.2,1.2S529,80.1,528.3,80.1 M528.3,78
	c-0.5,0-0.9,0.4-0.9,0.9s0.4,0.9,0.9,0.9s0.9-0.4,0.9-0.9S528.8,78,528.3,78 M528.6,79.5l-0.1-0.3c-0.1-0.2-0.1-0.2-0.3-0.2h0v0.5
	h-0.2v-1.2h0.3c0.2,0,0.3,0,0.4,0.1c0.1,0.1,0.1,0.2,0.1,0.3c0,0.1-0.1,0.2-0.2,0.3c0.1,0,0.1,0.1,0.1,0.1l0.2,0.4H528.6z
	 M528.4,78.5c-0.1,0-0.1,0-0.2,0h-0.1v0.3c0.1,0,0.2,0,0.2,0c0.1,0,0.1-0.1,0.1-0.2C528.5,78.6,528.5,78.5,528.4,78.5"/>
<rect x="497.9" y="68.1" class="st2" width="191.5" height="16.4"/>
</svg>
