<?xml version="1.0" encoding="utf-8"?>
<!-- Generator: Adobe Illustrator 25.4.1, SVG Export Plug-In . SVG Version: 6.00 Build 0)  -->
<svg version="1.1" id="Layer_1" xmlns="http://www.w3.org/2000/svg" xmlns:xlink="http://www.w3.org/1999/xlink" x="0px" y="0px"
	 viewBox="0 0 728 90" style="enable-background:new 0 0 728 90;" xml:space="preserve">
<style type="text/css">
	.st0{clip-path:url(#SVGID_00000101079919486411544230000014122153022547582352_);fill:#231F20;}
	.st1{clip-path:url(#SVGID_00000101079919486411544230000014122153022547582352_);fill:#00B2EE;}
</style>
<g>
	<defs>
		<rect id="SVGID_1_" x="560.6" y="42" width="64.2" height="21.8"/>
	</defs>
	<clipPath id="SVGID_00000173873467778016706910000007338819253392688014_">
		<use xlink:href="#SVGID_1_"  style="overflow:visible;"/>
	</clipPath>
	<path style="clip-path:url(#SVGID_00000173873467778016706910000007338819253392688014_);fill:#231F20;" d="M561,53.7h3.4
		c2.7,0,3.3,1.8,3.3,3c0,1.2-0.5,2.9-3.3,2.9h-1.8v3.7H561V53.7z M562.7,58.3h1.7c0.8,0,1.7-0.4,1.7-1.6c0-1.3-0.8-1.6-1.6-1.6h-1.7
		V58.3z"/>
	<path style="clip-path:url(#SVGID_00000173873467778016706910000007338819253392688014_);fill:#231F20;" d="M568.7,56.4h1.4v1.3h0
		c0.2-0.7,1.1-1.5,2-1.5c0.3,0,0.4,0,0.6,0v1.5c-0.2,0-0.4-0.1-0.7-0.1c-1,0-1.9,0.8-1.9,2.4v3.3h-1.5V56.4z"/>
	<path style="clip-path:url(#SVGID_00000173873467778016706910000007338819253392688014_);fill:#231F20;" d="M573,59.8
		c0-2.1,1.3-3.6,3.5-3.6c2.2,0,3.5,1.5,3.5,3.6c0,2.1-1.3,3.7-3.5,3.7C574.2,63.5,573,62,573,59.8 M578.4,59.8c0-1.2-0.6-2.4-2-2.4
		c-1.4,0-2,1.2-2,2.4c0,1.2,0.6,2.5,2,2.5C577.8,62.3,578.4,61,578.4,59.8"/>
	<path style="clip-path:url(#SVGID_00000173873467778016706910000007338819253392688014_);fill:#231F20;" d="M580.2,56.4h1.2v-2.1
		h1.5v2.1h1.4v1.1h-1.4v3.7c0,0.6,0.1,1,0.7,1c0.2,0,0.4,0,0.6-0.1v1.2c-0.3,0-0.7,0.1-1,0.1c-1.6,0-1.9-0.6-1.9-1.8v-4.1h-1.2V56.4
		z"/>
	<path style="clip-path:url(#SVGID_00000173873467778016706910000007338819253392688014_);fill:#231F20;" d="M586.4,60.2
		c0,1.1,0.6,2,1.9,2c0.9,0,1.4-0.4,1.7-1.2h1.4c-0.3,1.5-1.6,2.4-3.1,2.4c-2.2,0-3.4-1.5-3.4-3.6c0-2,1.3-3.7,3.4-3.7
		c2.2,0,3.5,2,3.3,4H586.4z M590,59.2c-0.1-1-0.7-1.8-1.7-1.8c-1.1,0-1.8,0.8-1.8,1.8H590z"/>
	<path style="clip-path:url(#SVGID_00000173873467778016706910000007338819253392688014_);fill:#231F20;" d="M597.3,58.7
		c-0.1-0.8-0.7-1.3-1.6-1.3c-0.8,0-1.9,0.4-1.9,2.5c0,1.2,0.5,2.4,1.8,2.4c0.9,0,1.5-0.6,1.6-1.6h1.5c-0.3,1.8-1.4,2.8-3.2,2.8
		c-2.2,0-3.4-1.5-3.4-3.6c0-2.1,1.1-3.7,3.4-3.7c1.6,0,3,0.8,3.1,2.5H597.3z"/>
	<path style="clip-path:url(#SVGID_00000173873467778016706910000007338819253392688014_);fill:#231F20;" d="M599.2,56.4h1.2v-2.1
		h1.5v2.1h1.4v1.1h-1.4v3.7c0,0.6,0.1,1,0.7,1c0.2,0,0.4,0,0.6-0.1v1.2c-0.3,0-0.7,0.1-1,0.1c-1.6,0-1.9-0.6-1.9-1.8v-4.1h-1.2V56.4
		z"/>
	<path style="clip-path:url(#SVGID_00000173873467778016706910000007338819253392688014_);fill:#231F20;" d="M605,53.7h1.5v1.4H605
		V53.7z M605,56.4h1.5v6.9H605V56.4z"/>
	<polygon style="clip-path:url(#SVGID_00000173873467778016706910000007338819253392688014_);fill:#231F20;" points="607.7,56.4 
		609.3,56.4 611.5,61.7 611.5,61.7 613.6,56.4 615.2,56.4 612.3,63.3 610.6,63.3 	"/>
	<path style="clip-path:url(#SVGID_00000173873467778016706910000007338819253392688014_);fill:#231F20;" d="M617.1,60.2
		c0,1.1,0.6,2,1.9,2c0.9,0,1.4-0.4,1.7-1.2h1.4c-0.3,1.5-1.6,2.4-3.1,2.4c-2.2,0-3.4-1.5-3.4-3.6c0-2,1.3-3.7,3.3-3.7
		c2.2,0,3.5,2,3.3,4H617.1z M620.6,59.2c-0.1-1-0.7-1.8-1.7-1.8c-1.1,0-1.8,0.8-1.8,1.8H620.6z"/>
	<path style="clip-path:url(#SVGID_00000173873467778016706910000007338819253392688014_);fill:#00B2EE;" d="M602.2,52.1
		c-1-3.8-4-6.8-7.8-7.8c-0.3-1.2-1.4-2-2.7-2c-1.3,0-2.4,0.9-2.7,2c-3.8,1-6.8,3.9-7.8,7.8l-0.1,0.4h2.3l0.1-0.2
		c0.9-2.8,3.1-4.9,5.8-5.7c0.5,0.8,1.4,1.4,2.4,1.4c1,0,2-0.6,2.5-1.4c2.7,0.8,4.9,2.9,5.8,5.7l0.1,0.2h2.3L602.2,52.1z"/>
	<path style="clip-path:url(#SVGID_00000173873467778016706910000007338819253392688014_);fill:#231F20;" d="M623.8,62.1
		c0.4,0,0.7,0.3,0.7,0.7s-0.3,0.7-0.7,0.7c-0.4,0-0.7-0.3-0.7-0.7S623.4,62.1,623.8,62.1 M624.3,62.8c0-0.3-0.2-0.6-0.6-0.6
		c-0.3,0-0.6,0.3-0.6,0.6c0,0.3,0.2,0.6,0.6,0.6C624.1,63.4,624.3,63.1,624.3,62.8 M623.5,62.4h0.3c0.2,0,0.3,0.1,0.3,0.2
		c0,0.1-0.1,0.2-0.2,0.2l0.2,0.3H624l-0.2-0.3h-0.1v0.3h-0.1V62.4z M623.7,62.8c0.1,0,0.2,0,0.2-0.1c0-0.1-0.1-0.1-0.2-0.1h-0.2v0.2
		H623.7z"/>
</g>
</svg>
