<svg baseProfile="tiny" xmlns="http://www.w3.org/2000/svg" viewBox="0 0 300 600" overflow="visible"><g fill="#231F20"><path d="M37.1 199.1l6.9 18.6h-4.2l-1.4-4.1h-6.9l-1.5 4.1h-4.1l7-18.6h4.2zm.2 11.4l-2.3-6.8-2.4 6.8h4.7zM48.5 204.2v1.9h.1c.5-.8 1.1-1.3 1.8-1.7.7-.4 1.5-.5 2.3-.5 1 0 1.8.1 2.4.4s1.1.6 1.5 1.1c.4.5.6 1.1.8 1.7.1.7.2 1.4.2 2.3v8.3h-3.7V210c0-1.1-.2-1.9-.5-2.5-.3-.5-1-.8-1.8-.8-1 0-1.7.3-2.2.9s-.7 1.6-.7 3v7H45v-13.4h3.5zM69.7 215.9c-.4.7-1 1.3-1.7 1.6-.7.3-1.5.5-2.4.5-1 0-1.9-.2-2.7-.6s-1.4-.9-1.9-1.6c-.5-.7-.9-1.4-1.1-2.3-.3-.9-.4-1.8-.4-2.7 0-.9.1-1.8.4-2.6.3-.8.6-1.6 1.1-2.2.5-.6 1.1-1.2 1.9-1.5.7-.4 1.6-.6 2.6-.6.8 0 1.6.2 2.3.5.7.3 1.3.8 1.7 1.5h.1v-6.8h3.7v18.6h-3.5l-.1-1.8zm-.1-6.6c-.1-.5-.3-1-.5-1.4s-.6-.7-1-.9c-.4-.2-.9-.4-1.5-.4s-1.1.1-1.5.4c-.4.2-.8.6-1 1-.3.4-.4.9-.5 1.4-.1.5-.2 1-.2 1.6 0 .5.1 1 .2 1.6.1.5.3 1 .6 1.4.3.4.6.7 1 1 .4.3.9.4 1.5.4s1.1-.1 1.5-.4c.4-.2.7-.6 1-1 .2-.4.4-.9.5-1.4s.2-1.1.2-1.6-.2-1.2-.3-1.7zM86.3 204.2v1.7h.1c.5-.7 1-1.3 1.7-1.6.7-.3 1.5-.5 2.3-.5 1.1 0 2 .2 2.7.6.8.4 1.4.9 1.9 1.6.5.7.9 1.4 1.1 2.3s.4 1.8.4 2.7c0 .9-.1 1.8-.4 2.6s-.6 1.6-1.1 2.2c-.5.6-1.1 1.2-1.8 1.5-.7.4-1.6.6-2.6.6-.8 0-1.6-.2-2.3-.5s-1.3-.8-1.7-1.5h-.1v6.4h-3.7v-18.1h3.5zm4.8 10.6c.4-.2.7-.6 1-.9.3-.4.4-.8.5-1.4s.2-1 .2-1.6c0-.5-.1-1.1-.2-1.6s-.3-1-.6-1.4c-.3-.4-.6-.7-1-1-.4-.3-.9-.4-1.5-.4s-1.1.1-1.5.4c-.4.3-.7.6-1 1-.3.4-.4.9-.5 1.4s-.2 1.1-.2 1.6.1 1.1.2 1.6.3 1 .5 1.4c.3.4.6.7 1 .9.4.2.9.4 1.5.4.7 0 1.2-.1 1.6-.4zM102 204.2v2.5h.1c.2-.4.4-.8.7-1.2.3-.4.6-.7 1-.9.4-.3.8-.4 1.2-.6.4-.1.9-.2 1.4-.2.2 0 .5 0 .8.1v3.4c-.2 0-.4-.1-.6-.1h-.7c-.7 0-1.2.1-1.7.3-.5.2-.8.5-1.1.9-.3.4-.5.8-.6 1.4s-.2 1.1-.2 1.7v6.1h-3.7v-13.4h3.4zM108 208c.3-.9.8-1.6 1.4-2.2.6-.6 1.3-1.1 2.2-1.4.8-.3 1.8-.5 2.9-.5 1.1 0 2 .2 2.9.5.9.3 1.6.8 2.2 1.4.6.6 1.1 1.4 1.4 2.2s.5 1.9.5 2.9-.2 2-.5 2.9-.8 1.6-1.4 2.2c-.6.6-1.3 1.1-2.2 1.4-.9.3-1.8.5-2.9.5-1.1 0-2-.2-2.9-.5-.8-.3-1.6-.8-2.2-1.4-.6-.6-1.1-1.4-1.4-2.2-.3-.9-.5-1.8-.5-2.9s.1-2 .5-2.9zm3.3 4.5c.1.5.3 1 .5 1.4.3.4.6.7 1 1 .4.2.9.4 1.6.4s1.1-.1 1.6-.4c.4-.2.8-.6 1-1 .3-.4.4-.9.5-1.4s.2-1 .2-1.6c0-.5-.1-1.1-.2-1.6s-.3-1-.5-1.4c-.3-.4-.6-.7-1-1-.4-.3-.9-.4-1.6-.4s-1.1.1-1.6.4c-.4.3-.8.6-1 1-.3.4-.4.9-.5 1.4s-.2 1-.2 1.6c.1.6.1 1.1.2 1.6zM130.9 204.2v2.5h-2.7v6.7c0 .6.1 1 .3 1.2s.6.3 1.2.3h.6c.2 0 .4 0 .5-.1v2.9c-.3.1-.7.1-1 .1h-1.1c-.6 0-1.1 0-1.6-.1s-1-.2-1.4-.5c-.4-.2-.7-.5-.9-1-.2-.4-.3-1-.3-1.6v-7.9h-2.2v-2.5h2.2v-4h3.7v4h2.7zM136.4 214.4c.6.5 1.4.8 2.4.8.7 0 1.4-.2 1.9-.6.5-.4.9-.8 1-1.2h3.2c-.5 1.6-1.3 2.8-2.4 3.5-1.1.7-2.4 1-3.9 1-1.1 0-2-.2-2.9-.5s-1.6-.8-2.2-1.4c-.6-.6-1-1.4-1.4-2.2-.3-.9-.5-1.8-.5-2.9 0-1 .2-1.9.5-2.8.3-.9.8-1.6 1.4-2.2.6-.6 1.3-1.1 2.2-1.5.8-.4 1.8-.5 2.8-.5 1.1 0 2.1.2 3 .7.8.4 1.5 1 2.1 1.8s.9 1.6 1.2 2.5c.2 1 .3 2 .3 3h-9.7c.1 1.1.4 2 1 2.5zm4.1-7.1c-.4-.5-1.1-.7-2-.7-.6 0-1.1.1-1.5.3-.4.2-.7.4-.9.7-.2.3-.4.6-.5.9-.1.3-.2.6-.2.9h6c-.1-.9-.4-1.6-.9-2.1zM153.5 206.6c-.6 0-1.1.1-1.5.4-.4.3-.7.6-1 1-.3.4-.4.9-.5 1.4-.1.5-.2 1-.2 1.5s.1 1 .2 1.5.3 1 .5 1.4c.2.4.5.7.9 1 .4.3.9.4 1.5.4.9 0 1.6-.2 2-.7.5-.5.8-1.2.9-2h3.6c-.2 1.8-.9 3.1-2.1 4.1s-2.6 1.4-4.4 1.4c-1 0-1.9-.2-2.8-.5s-1.6-.8-2.1-1.4c-.6-.6-1-1.3-1.4-2.2-.3-.8-.5-1.8-.5-2.8 0-1 .2-2 .5-2.9.3-.9.7-1.7 1.3-2.3.6-.7 1.3-1.2 2.2-1.5.8-.4 1.8-.5 2.9-.5.8 0 1.6.1 2.3.3.7.2 1.4.5 2 .9s1.1 1 1.4 1.6c.4.6.6 1.4.6 2.2h-3.6c-.2-1.5-1.1-2.3-2.7-2.3zM169.2 204.2v2.5h-2.7v6.7c0 .6.1 1 .3 1.2.2.2.6.3 1.2.3h.6c.2 0 .4 0 .5-.1v2.9c-.3.1-.7.1-1 .1H167c-.6 0-1.1 0-1.6-.1s-1-.2-1.4-.5c-.4-.2-.7-.5-.9-1-.2-.4-.3-1-.3-1.6v-7.9h-2.2v-2.5h2.2v-4h3.7v4h2.7zM182.7 221.6c-.7.5-1.7.7-3 .7h-1.1c-.4 0-.8-.1-1.1-.1v-3c.3 0 .7.1 1.1.1h1.1c.5-.1.8-.2 1.1-.6.2-.3.4-.7.4-1.1 0-.3-.1-.6-.2-.8l-4.7-12.6h3.9l3 9.2h.1l2.9-9.2h3.8l-5.6 15.1c-.5 1.1-1 1.9-1.7 2.3zM191 208c.3-.9.8-1.6 1.4-2.2.6-.6 1.3-1.1 2.2-1.4.8-.3 1.8-.5 2.9-.5s2 .2 2.9.5c.9.3 1.6.8 2.2 1.4.6.6 1.1 1.4 1.4 2.2.3.9.5 1.9.5 2.9s-.2 2-.5 2.9c-.3.9-.8 1.6-1.4 2.2-.6.6-1.3 1.1-2.2 1.4-.9.3-1.8.5-2.9.5s-2-.2-2.9-.5c-.8-.3-1.6-.8-2.2-1.4-.6-.6-1.1-1.4-1.4-2.2-.3-.9-.5-1.8-.5-2.9s.2-2 .5-2.9zm3.4 4.5c.1.5.3 1 .5 1.4.3.4.6.7 1 1 .4.2.9.4 1.6.4s1.1-.1 1.6-.4c.4-.2.8-.6 1-1s.4-.9.5-1.4c.1-.5.2-1 .2-1.6 0-.5-.1-1.1-.2-1.6s-.3-1-.5-1.4c-.3-.4-.6-.7-1-1-.4-.3-.9-.4-1.6-.4s-1.1.1-1.6.4c-.4.3-.8.6-1 1-.3.4-.4.9-.5 1.4-.1.5-.2 1-.2 1.6 0 .6.1 1.1.2 1.6zM215.6 217.6v-1.9h-.1c-.5.8-1.1 1.3-1.8 1.7-.7.3-1.5.5-2.3.5-1 0-1.8-.1-2.4-.4-.6-.3-1.1-.6-1.5-1.1-.4-.5-.6-1.1-.8-1.7-.1-.7-.2-1.4-.2-2.3v-8.3h3.7v7.6c0 1.1.2 1.9.5 2.5.3.5 1 .8 1.8.8 1 0 1.7-.3 2.2-.9.5-.6.7-1.6.7-3v-7h3.7v13.4h-3.5zM225.2 204.2v2.5h.1c.2-.4.4-.8.7-1.2.3-.4.6-.7 1-.9.4-.3.8-.4 1.2-.6.4-.1.9-.2 1.4-.2.2 0 .5 0 .8.1v3.4c-.2 0-.4-.1-.6-.1h-.7c-.7 0-1.2.1-1.7.3-.5.2-.8.5-1.1.9-.3.4-.5.8-.6 1.4-.1.5-.2 1.1-.2 1.7v6.1h-3.7v-13.4h3.4zM234.7 214.3c.2.3.4.5.6.7.3.2.6.3.9.4s.7.1 1.1.1c.3 0 .5 0 .8-.1s.5-.2.8-.3c.2-.1.4-.3.6-.5s.2-.5.2-.8c0-.6-.4-1-1.1-1.2-.7-.3-1.8-.6-3.1-.8-.5-.1-1.1-.3-1.6-.4-.5-.2-1-.4-1.4-.6-.4-.3-.7-.6-1-1-.2-.4-.4-.9-.4-1.5 0-.9.2-1.6.5-2.1.3-.6.8-1 1.3-1.3.6-.3 1.2-.5 1.9-.7.7-.1 1.4-.2 2.1-.2s1.4.1 2.1.2c.7.1 1.3.4 1.8.7.5.3 1 .8 1.3 1.3s.6 1.2.6 2.1h-3.5c-.1-.7-.3-1.2-.8-1.4-.5-.3-1.1-.4-1.7-.4h-.7c-.2 0-.5.1-.7.2-.2.1-.4.2-.5.4-.1.2-.2.4-.2.7 0 .3.1.6.4.8.2.2.6.4.9.5.4.1.8.2 1.3.4l1.5.3c.5.1 1.1.3 1.6.4.5.2 1 .4 1.4.7s.7.6 1 1.1c.2.4.4.9.4 1.6 0 .9-.2 1.6-.5 2.2-.4.6-.8 1.1-1.4 1.4-.6.4-1.2.6-2 .8-.7.1-1.5.2-2.2.2-.8 0-1.5-.1-2.3-.2-.7-.2-1.4-.4-2-.8-.6-.4-1.1-.8-1.4-1.4-.4-.6-.6-1.3-.6-2.2h3.5c.3.1.4.4.5.7zM249.3 214.4c.6.5 1.4.8 2.4.8.7 0 1.4-.2 1.9-.6.5-.4.9-.8 1-1.2h3.2c-.5 1.6-1.3 2.8-2.4 3.5-1.1.7-2.4 1-3.9 1-1.1 0-2-.2-2.9-.5s-1.6-.8-2.2-1.4c-.6-.6-1-1.4-1.4-2.2-.3-.9-.5-1.8-.5-2.9 0-1 .2-1.9.5-2.8.3-.9.8-1.6 1.4-2.2.6-.6 1.3-1.1 2.2-1.5.8-.4 1.8-.5 2.8-.5 1.1 0 2.1.2 3 .7.8.4 1.5 1 2.1 1.8s.9 1.6 1.2 2.5c.2 1 .3 2 .3 3h-9.7c.1 1.1.4 2 1 2.5zm4.2-7.1c-.4-.5-1.1-.7-2-.7-.6 0-1.1.1-1.5.3-.4.2-.7.4-.9.7-.2.3-.4.6-.5.9-.1.3-.2.6-.2.9h6c-.2-.9-.5-1.6-.9-2.1zM263.8 199.1v18.6h-3.7v-18.6h3.7zM265.1 206.7v-2.5h2.2v-1c0-1.2.4-2.2 1.1-2.9s1.9-1.1 3.4-1.1h1c.3 0 .6 0 1 .1v2.8c-.4-.1-.9-.1-1.4-.1-.5 0-.9.1-1.1.4-.2.2-.3.6-.3 1.2v.8h2.5v2.5H271v11h-3.7v-11h-2.2z"/></g><g fill="#231F20"><path d="M46.4 234.7v-2.5h2.2v-1c0-1.2.4-2.2 1.1-2.9.7-.8 1.9-1.1 3.4-1.1h1c.3 0 .7 0 1 .1v2.8c-.4-.1-.9-.1-1.4-.1-.5 0-.9.1-1.1.4-.2.2-.3.6-.3 1.2v.8h2.5v2.5h-2.5v11h-3.7v-11h-2.2zM59.7 232.2v2.5h.1c.2-.4.4-.8.7-1.2.3-.4.6-.7 1-.9.4-.3.8-.4 1.2-.6.4-.1.9-.2 1.4-.2.2 0 .5 0 .8.1v3.4c-.2 0-.4-.1-.6-.1h-.7c-.7 0-1.2.1-1.7.3-.5.2-.8.5-1.1.9-.3.4-.5.8-.6 1.4s-.2 1.1-.2 1.7v6.1h-3.7v-13.4h3.4zM65.7 236c.3-.9.8-1.6 1.4-2.2.6-.6 1.3-1.1 2.2-1.4.8-.3 1.8-.5 2.9-.5 1.1 0 2 .2 2.9.5.9.3 1.6.8 2.2 1.4.6.6 1.1 1.4 1.4 2.2s.5 1.9.5 2.9-.2 2-.5 2.9-.8 1.6-1.4 2.2c-.6.6-1.3 1.1-2.2 1.4-.9.3-1.8.5-2.9.5-1.1 0-2-.2-2.9-.5-.8-.3-1.6-.8-2.2-1.4-.6-.6-1.1-1.4-1.4-2.2-.3-.9-.5-1.8-.5-2.9s.1-2 .5-2.9zm3.3 4.5c.1.5.3 1 .5 1.4.3.4.6.7 1 1 .4.2.9.4 1.6.4s1.1-.1 1.6-.4c.4-.2.8-.6 1-1 .3-.4.4-.9.5-1.4s.2-1 .2-1.6c0-.5-.1-1.1-.2-1.6s-.3-1-.5-1.4c-.3-.4-.6-.7-1-1-.4-.3-.9-.4-1.6-.4s-1.1.1-1.6.4c-.4.3-.8.6-1 1-.3.4-.4.9-.5 1.4s-.2 1-.2 1.6c.1.6.1 1.1.2 1.6zM84.8 232.2v1.8h.1c.5-.7 1.1-1.2 1.8-1.6s1.5-.6 2.4-.6c.8 0 1.6.2 2.3.5.7.3 1.2.9 1.6 1.7.4-.6.9-1.1 1.6-1.6.7-.5 1.5-.7 2.4-.7.7 0 1.4.1 2 .3.6.2 1.1.5 1.6.8.4.4.8.9 1 1.5.2.6.4 1.4.4 2.2v9h-3.7V238c0-.5 0-.9-.1-1.3 0-.4-.1-.7-.3-1-.2-.3-.4-.5-.7-.7-.3-.2-.7-.3-1.2-.3s-.9.1-1.3.3c-.3.2-.6.5-.8.8s-.3.7-.4 1.1c-.1.4-.1.8-.1 1.2v7.5h-3.7v-7.5-1.2c0-.4-.1-.7-.2-1.1s-.3-.6-.6-.8c-.3-.2-.8-.3-1.3-.3-.2 0-.4 0-.7.1-.3.1-.6.2-.8.4s-.5.5-.7.9-.3.9-.3 1.6v7.8h-3.7v-13.4h3.4zM120.6 245.6v-1.9h-.1c-.5.8-1.1 1.3-1.8 1.7-.7.3-1.5.5-2.3.5-1 0-1.8-.1-2.4-.4-.6-.3-1.1-.6-1.5-1.1-.4-.5-.6-1.1-.8-1.7-.1-.7-.2-1.4-.2-2.3v-8.3h3.7v7.6c0 1.1.2 1.9.5 2.5.3.5 1 .8 1.8.8 1 0 1.7-.3 2.2-.9.5-.6.7-1.6.7-3v-7h3.7v13.4h-3.5zM130.2 232.2v1.9h.1c.5-.8 1.1-1.3 1.8-1.7.7-.4 1.5-.5 2.3-.5 1 0 1.8.1 2.4.4s1.1.6 1.5 1.1c.4.5.6 1.1.8 1.7.1.7.2 1.4.2 2.3v8.3h-3.7V238c0-1.1-.2-1.9-.5-2.5-.3-.5-1-.8-1.8-.8-1 0-1.7.3-2.2.9s-.7 1.6-.7 3v7h-3.7v-13.4h3.5zM145.8 242.4c.6.5 1.4.8 2.4.8.7 0 1.4-.2 1.9-.6.5-.4.9-.8 1-1.2h3.2c-.5 1.6-1.3 2.8-2.4 3.5-1.1.7-2.4 1-3.9 1-1.1 0-2-.2-2.9-.5s-1.6-.8-2.2-1.4-1-1.4-1.4-2.2c-.3-.9-.5-1.8-.5-2.9 0-1 .2-1.9.5-2.8.3-.9.8-1.6 1.4-2.2.6-.6 1.3-1.1 2.2-1.5.8-.4 1.8-.5 2.8-.5 1.1 0 2.1.2 3 .7s1.5 1 2.1 1.8c.5.7.9 1.6 1.2 2.5.2 1 .3 2 .3 3h-9.7c.2 1.1.5 2 1 2.5zm4.2-7.1c-.4-.5-1.1-.7-2-.7-.6 0-1.1.1-1.5.3-.4.2-.7.4-.9.7-.2.3-.4.6-.5.9-.1.3-.2.6-.2.9h6c-.2-.9-.5-1.6-.9-2.1zM155.6 232.2h4.2l2.4 3.5 2.3-3.5h4.1l-4.4 6.3 5 7.1H165l-2.8-4.2-2.8 4.2h-4.1l4.8-7.1-4.5-6.3zM173.8 232.2v1.7h.1c.5-.7 1-1.3 1.7-1.6.7-.3 1.5-.5 2.3-.5 1.1 0 2 .2 2.7.6.8.4 1.4.9 1.9 1.6.5.7.9 1.4 1.1 2.3s.4 1.8.4 2.7c0 .9-.1 1.8-.4 2.6s-.6 1.6-1.1 2.2c-.5.6-1.1 1.2-1.8 1.5-.7.4-1.6.6-2.6.6-.8 0-1.6-.2-2.3-.5s-1.3-.8-1.7-1.5h-.1v6.4h-3.7v-18.1h3.5zm4.8 10.6c.4-.2.7-.6 1-.9.3-.4.4-.8.5-1.4.1-.5.2-1 .2-1.6 0-.5-.1-1.1-.2-1.6s-.3-1-.6-1.4c-.3-.4-.6-.7-1-1-.4-.3-.9-.4-1.5-.4s-1.1.1-1.5.4c-.4.3-.7.6-1 1-.3.4-.4.9-.5 1.4-.1.5-.2 1.1-.2 1.6s.1 1.1.2 1.6.3 1 .5 1.4.6.7 1 .9c.4.2.9.4 1.5.4.7 0 1.2-.1 1.6-.4zM189.9 242.4c.6.5 1.4.8 2.4.8.7 0 1.4-.2 1.9-.6.5-.4.9-.8 1-1.2h3.2c-.5 1.6-1.3 2.8-2.4 3.5-1.1.7-2.4 1-3.9 1-1.1 0-2-.2-2.9-.5s-1.6-.8-2.2-1.4c-.6-.6-1-1.4-1.4-2.2-.3-.9-.5-1.8-.5-2.9 0-1 .2-1.9.5-2.8.3-.9.8-1.6 1.4-2.2.6-.6 1.3-1.1 2.2-1.5.8-.4 1.8-.5 2.8-.5 1.1 0 2.1.2 3 .7.8.4 1.5 1 2.1 1.8s.9 1.6 1.2 2.5c.2 1 .3 2 .3 3H189c0 1.1.3 2 .9 2.5zm4.2-7.1c-.4-.5-1.1-.7-2-.7-.6 0-1.1.1-1.5.3-.4.2-.7.4-.9.7-.2.3-.4.6-.5.9-.1.3-.2.6-.2.9h6c-.2-.9-.5-1.6-.9-2.1zM207 234.6c-.6 0-1.1.1-1.5.4-.4.3-.7.6-1 1-.3.4-.4.9-.5 1.4-.1.5-.2 1-.2 1.5s.1 1 .2 1.5.3 1 .5 1.4c.2.4.5.7.9 1 .4.3.9.4 1.5.4.9 0 1.6-.2 2-.7.5-.5.8-1.2.9-2h3.6c-.2 1.8-.9 3.1-2.1 4.1s-2.6 1.4-4.4 1.4c-1 0-1.9-.2-2.8-.5s-1.6-.8-2.1-1.4c-.6-.6-1-1.3-1.4-2.2-.3-.8-.5-1.8-.5-2.8 0-1 .2-2 .5-2.9.3-.9.7-1.7 1.3-2.3.6-.7 1.3-1.2 2.2-1.5.8-.4 1.8-.5 2.9-.5.8 0 1.6.1 2.3.3.7.2 1.4.5 2 .9s1.1 1 1.4 1.6c.4.6.6 1.4.6 2.2h-3.6c-.2-1.5-1.1-2.3-2.7-2.3zM222.7 232.2v2.5H220v6.7c0 .6.1 1 .3 1.2.2.2.6.3 1.2.3h.6c.2 0 .4 0 .5-.1v2.9c-.3.1-.7.1-1 .1h-1.1c-.6 0-1.1 0-1.6-.1s-1-.2-1.4-.5c-.4-.2-.7-.5-.9-1-.2-.4-.3-1-.3-1.6v-7.9h-2.2v-2.5h2.2v-4h3.7v4h2.7zM228.2 242.4c.6.5 1.4.8 2.4.8.7 0 1.4-.2 1.9-.6.5-.4.9-.8 1-1.2h3.2c-.5 1.6-1.3 2.8-2.4 3.5-1.1.7-2.4 1-3.9 1-1.1 0-2-.2-2.9-.5s-1.6-.8-2.2-1.4c-.6-.6-1-1.4-1.4-2.2-.3-.9-.5-1.8-.5-2.9 0-1 .2-1.9.5-2.8.3-.9.8-1.6 1.4-2.2.6-.6 1.3-1.1 2.2-1.5.8-.4 1.8-.5 2.8-.5 1.1 0 2.1.2 3 .7.8.4 1.5 1 2.1 1.8s.9 1.6 1.2 2.5c.2 1 .3 2 .3 3h-9.7c.1 1.1.4 2 1 2.5zm4.2-7.1c-.4-.5-1.1-.7-2-.7-.6 0-1.1.1-1.5.3-.4.2-.7.4-.9.7-.2.3-.4.6-.5.9-.1.3-.2.6-.2.9h6c-.2-.9-.5-1.6-.9-2.1zM248.5 243.9c-.4.7-1 1.3-1.7 1.6-.7.3-1.5.5-2.4.5-1 0-1.9-.2-2.7-.6s-1.4-.9-1.9-1.6c-.5-.7-.9-1.4-1.1-2.3s-.4-1.8-.4-2.7c0-.9.1-1.8.4-2.6.3-.8.6-1.6 1.1-2.2s1.1-1.2 1.9-1.5c.7-.4 1.6-.6 2.6-.6.8 0 1.6.2 2.3.5.7.3 1.3.8 1.7 1.5h.1v-6.8h3.7v18.6h-3.5l-.1-1.8zm-.2-6.6c-.1-.5-.3-1-.5-1.4s-.6-.7-1-.9c-.4-.2-.9-.4-1.5-.4s-1.1.1-1.5.4c-.4.2-.8.6-1 1-.3.4-.4.9-.5 1.4-.1.5-.2 1-.2 1.6 0 .5.1 1 .2 1.6s.3 1 .6 1.4c.3.4.6.7 1 1 .4.3.9.4 1.5.4s1.1-.1 1.5-.4c.4-.2.7-.6 1-1 .2-.4.4-.9.5-1.4.1-.5.2-1.1.2-1.6s-.2-1.2-.3-1.7z"/></g><g fill="#231F20"><path d="M66.4 260.2v1.8h.1c.5-.7 1.1-1.2 1.8-1.6s1.5-.6 2.4-.6c.8 0 1.6.2 2.3.5.7.3 1.2.9 1.6 1.7.4-.6.9-1.1 1.6-1.6.7-.5 1.5-.7 2.4-.7.7 0 1.4.1 2 .3.6.2 1.1.5 1.6.8.4.4.8.9 1 1.5.2.6.4 1.4.4 2.2v9h-3.7V266c0-.5 0-.9-.1-1.3 0-.4-.1-.7-.3-1-.2-.3-.4-.5-.7-.7-.3-.2-.7-.3-1.2-.3s-.9.1-1.3.3c-.3.2-.6.5-.8.8s-.3.7-.4 1.1c-.1.4-.1.8-.1 1.2v7.5h-3.7v-7.5-1.2c0-.4-.1-.7-.2-1.1s-.3-.6-.6-.8c-.3-.2-.8-.3-1.3-.3-.2 0-.4 0-.7.1-.3.1-.6.2-.8.4s-.5.5-.7.9-.3.9-.3 1.6v7.8H63v-13.4h3.4zM90.1 270.4c.6.5 1.4.8 2.4.8.7 0 1.4-.2 1.9-.6.5-.4.9-.8 1-1.2h3.2c-.5 1.6-1.3 2.8-2.4 3.5-1.1.7-2.4 1-3.9 1-1.1 0-2-.2-2.9-.5s-1.6-.8-2.2-1.4c-.6-.6-1-1.4-1.4-2.2-.3-.9-.5-1.8-.5-2.9 0-1 .2-1.9.5-2.8.3-.9.8-1.6 1.4-2.2.6-.6 1.3-1.1 2.2-1.5.8-.4 1.8-.5 2.8-.5 1.1 0 2.1.2 3 .7.8.4 1.5 1 2.1 1.8.5.7.9 1.6 1.2 2.5.2 1 .3 2 .3 3h-9.7c.2 1.1.5 2 1 2.5zm4.2-7.1c-.4-.5-1.1-.7-2-.7-.6 0-1.1.1-1.5.3-.4.2-.7.4-.9.7-.2.3-.4.6-.5.9-.1.3-.2.6-.2.9h6c-.2-.9-.5-1.6-.9-2.1zM110.4 271.9c-.4.7-1 1.3-1.7 1.6-.7.3-1.5.5-2.4.5-1 0-1.9-.2-2.7-.6s-1.4-.9-1.9-1.6c-.5-.7-.9-1.4-1.1-2.3-.3-.9-.4-1.8-.4-2.7 0-.9.1-1.8.4-2.6.3-.8.6-1.6 1.1-2.2.5-.6 1.1-1.2 1.9-1.5.7-.4 1.6-.6 2.6-.6.8 0 1.6.2 2.3.5.7.3 1.3.8 1.7 1.5h.1v-6.8h3.7v18.6h-3.5l-.1-1.8zm-.2-6.6c-.1-.5-.3-1-.5-1.4s-.6-.7-1-.9c-.4-.2-.9-.4-1.5-.4s-1.1.1-1.5.4c-.4.2-.8.6-1 1-.3.4-.4.9-.5 1.4-.1.5-.2 1-.2 1.6 0 .5.1 1 .2 1.6.1.5.3 1 .6 1.4.3.4.6.7 1 1 .4.3.9.4 1.5.4s1.1-.1 1.5-.4c.4-.2.7-.6 1-1 .2-.4.4-.9.5-1.4s.2-1.1.2-1.6-.1-1.2-.3-1.7zM116.6 258.1v-3h3.7v3h-3.7zm3.7 2.1v13.4h-3.7v-13.4h3.7zM129.4 262.6c-.6 0-1.1.1-1.5.4-.4.3-.7.6-1 1-.3.4-.4.9-.5 1.4s-.2 1-.2 1.5.1 1 .2 1.5.3 1 .5 1.4c.2.4.6.7.9 1 .4.3.9.4 1.5.4.9 0 1.6-.2 2-.7.5-.5.8-1.2.9-2h3.6c-.2 1.8-.9 3.1-2.1 4.1s-2.6 1.4-4.4 1.4c-1 0-1.9-.2-2.8-.5s-1.6-.8-2.1-1.4c-.6-.6-1-1.3-1.4-2.2-.3-.8-.5-1.8-.5-2.8 0-1 .2-2 .5-2.9s.7-1.7 1.3-2.3c.6-.7 1.3-1.2 2.2-1.5.8-.4 1.8-.5 2.9-.5.8 0 1.6.1 2.3.3s1.4.5 2 .9c.6.4 1.1 1 1.4 1.6.4.6.6 1.4.6 2.2h-3.6c-.2-1.5-1.1-2.3-2.7-2.3zM137.5 264.3c.1-.9.3-1.6.6-2.2.4-.6.9-1 1.5-1.4.6-.3 1.3-.6 2-.7.7-.1 1.5-.2 2.2-.2.7 0 1.4 0 2.1.1.7.1 1.3.3 1.9.6.6.3 1 .7 1.4 1.2.4.5.5 1.1.5 2v7c0 .6 0 1.2.1 1.7.1.6.2 1 .4 1.2h-3.7c-.1-.2-.1-.4-.2-.6 0-.2-.1-.4-.1-.7-.6.6-1.3 1-2.1 1.3-.8.2-1.6.4-2.4.4-.6 0-1.2-.1-1.8-.2s-1-.4-1.5-.7c-.4-.3-.7-.7-1-1.2-.2-.5-.4-1.1-.4-1.8 0-.8.1-1.4.4-1.9.3-.5.6-.9 1-1.2.4-.3.9-.5 1.5-.7.5-.1 1.1-.3 1.7-.4.6-.1 1.1-.2 1.6-.2.5-.1 1-.1 1.4-.2s.7-.3 1-.5c.2-.2.4-.5.3-.9 0-.4-.1-.7-.2-.9-.1-.2-.3-.4-.5-.5-.2-.1-.5-.2-.8-.3-.3 0-.6-.1-.9-.1-.7 0-1.3.2-1.7.5s-.7.8-.7 1.6h-3.6zm8.5 2.8l-.6.3c-.2.1-.5.1-.8.2-.3.1-.5.1-.8.1-.3 0-.6.1-.9.1-.3.1-.6.1-.8.2s-.5.2-.7.4-.4.3-.5.6c-.1.2-.2.5-.2.9 0 .3.1.6.2.8.1.2.3.4.5.5s.5.2.7.3c.3.1.6.1.9.1.7 0 1.3-.1 1.7-.4.4-.2.7-.5.9-.9.2-.3.3-.7.4-1 0-.3.1-.6.1-.8v-1.4zM156.1 255.1v18.6h-3.7v-18.6h3.7zM172.2 262.6c-.6 0-1.1.1-1.5.4-.4.3-.7.6-1 1-.3.4-.4.9-.5 1.4-.1.5-.2 1-.2 1.5s.1 1 .2 1.5.3 1 .5 1.4c.2.4.5.7.9 1 .4.3.9.4 1.5.4.9 0 1.6-.2 2-.7.5-.5.8-1.2.9-2h3.6c-.2 1.8-.9 3.1-2.1 4.1s-2.6 1.4-4.4 1.4c-1 0-1.9-.2-2.8-.5s-1.6-.8-2.1-1.4c-.6-.6-1-1.3-1.4-2.2-.3-.8-.5-1.8-.5-2.8 0-1 .2-2 .5-2.9.3-.9.7-1.7 1.3-2.3.6-.7 1.3-1.2 2.2-1.5.8-.4 1.8-.5 2.9-.5.8 0 1.6.1 2.3.3.7.2 1.4.5 2 .9s1.1 1 1.4 1.6c.4.6.6 1.4.6 2.2h-3.6c-.2-1.5-1.1-2.3-2.7-2.3zM180.5 264c.3-.9.8-1.6 1.4-2.2.6-.6 1.3-1.1 2.2-1.4.8-.3 1.8-.5 2.9-.5s2 .2 2.9.5c.9.3 1.6.8 2.2 1.4.6.6 1.1 1.4 1.4 2.2.3.9.5 1.9.5 2.9s-.2 2-.5 2.9c-.3.9-.8 1.6-1.4 2.2-.6.6-1.3 1.1-2.2 1.4-.9.3-1.8.5-2.9.5s-2-.2-2.9-.5c-.8-.3-1.6-.8-2.2-1.4-.6-.6-1.1-1.4-1.4-2.2-.3-.9-.5-1.8-.5-2.9s.2-2 .5-2.9zm3.4 4.5c.1.5.3 1 .5 1.4.3.4.6.7 1 1 .4.2.9.4 1.6.4s1.1-.1 1.6-.4c.4-.2.8-.6 1-1s.4-.9.5-1.4c.1-.5.2-1 .2-1.6 0-.5-.1-1.1-.2-1.6s-.3-1-.5-1.4c-.3-.4-.6-.7-1-1-.4-.3-.9-.4-1.6-.4s-1.1.1-1.6.4c-.4.3-.8.6-1 1-.3.4-.4.9-.5 1.4-.1.5-.2 1-.2 1.6 0 .6.1 1.1.2 1.6zM199.2 270.3c.2.3.4.5.6.7.3.2.6.3.9.4s.7.1 1.1.1c.3 0 .5 0 .8-.1s.5-.2.8-.3c.2-.1.4-.3.6-.5s.2-.5.2-.8c0-.6-.4-1-1.1-1.2-.7-.3-1.8-.6-3.1-.8-.5-.1-1.1-.3-1.6-.4-.5-.2-1-.4-1.4-.6-.4-.3-.7-.6-1-1-.2-.4-.4-.9-.4-1.5 0-.9.2-1.6.5-2.1.3-.6.8-1 1.3-1.3.6-.3 1.2-.5 1.9-.7.7-.1 1.4-.2 2.1-.2s1.4.1 2.1.2c.7.1 1.3.4 1.8.7.5.3 1 .8 1.3 1.3s.6 1.2.6 2.1H204c-.1-.7-.3-1.2-.8-1.4-.5-.3-1.1-.4-1.7-.4h-.7c-.2 0-.5.1-.7.2-.2.1-.4.2-.5.4-.1.2-.2.4-.2.7 0 .3.1.6.4.8.2.2.6.4.9.5.4.1.8.2 1.3.4l1.5.3c.5.1 1.1.3 1.6.4.5.2 1 .4 1.4.7s.7.6 1 1.1c.2.4.4.9.4 1.6 0 .9-.2 1.6-.5 2.2-.4.6-.8 1.1-1.4 1.4-.6.4-1.2.6-2 .8-.7.1-1.5.2-2.2.2-.8 0-1.5-.1-2.3-.2-.7-.2-1.4-.4-2-.8-.6-.4-1.1-.8-1.4-1.4-.4-.6-.6-1.3-.6-2.2h3.5c0 .1 0 .4.2.7zM217.2 260.2v2.5h-2.7v6.7c0 .6.1 1 .3 1.2.2.2.6.3 1.2.3h.6c.2 0 .4 0 .5-.1v2.9c-.3.1-.7.1-1 .1H215c-.6 0-1.1 0-1.6-.1s-1-.2-1.4-.5c-.4-.2-.7-.5-.9-1-.2-.4-.3-1-.3-1.6v-7.9h-2.2v-2.5h2.2v-4h3.7v4h2.7zM221.8 270.3c.2.3.4.5.6.7.3.2.6.3.9.4s.7.1 1.1.1c.3 0 .5 0 .8-.1s.5-.2.8-.3c.2-.1.4-.3.6-.5s.2-.5.2-.8c0-.6-.4-1-1.1-1.2-.7-.3-1.8-.6-3.1-.8-.5-.1-1.1-.3-1.6-.4-.5-.2-1-.4-1.4-.6-.4-.3-.7-.6-1-1-.2-.4-.4-.9-.4-1.5 0-.9.2-1.6.5-2.1.3-.6.8-1 1.3-1.3.6-.3 1.2-.5 1.9-.7.7-.1 1.4-.2 2.1-.2s1.4.1 2.1.2c.7.1 1.3.4 1.8.7.5.3 1 .8 1.3 1.3s.6 1.2.6 2.1h-3.5c-.1-.7-.3-1.2-.8-1.4-.5-.3-1.1-.4-1.7-.4h-.7c-.2 0-.5.1-.7.2-.2.1-.4.2-.5.4-.1.2-.2.4-.2.7 0 .3.1.6.4.8.2.2.6.4.9.5.4.1.8.2 1.3.4l1.5.3c.5.1 1.1.3 1.6.4.5.2 1 .4 1.4.7s.7.6 1 1.1c.2.4.4.9.4 1.6 0 .9-.2 1.6-.5 2.2-.4.6-.8 1.1-1.4 1.4-.6.4-1.2.6-2 .8-.7.1-1.5.2-2.2.2-.8 0-1.5-.1-2.3-.2-.7-.2-1.4-.4-2-.8-.6-.4-1.1-.8-1.4-1.4-.4-.6-.6-1.3-.6-2.2h3.5c.3.1.4.4.5.7zM236.7 269.6v4h-4.1v-4h4.1z"/></g></svg>