<svg baseProfile="tiny" xmlns="http://www.w3.org/2000/svg" viewBox="0 0 300 600" overflow="visible"><g fill="#231F20"><path d="M8.8 199.4h5.8l5.5 9.3 5.5-9.3h5.8l-8.7 14.5v9h-5.2v-9.2l-8.7-14.3zM29 210.7c.4-1.1 1-2.1 1.8-2.8.8-.8 1.7-1.4 2.8-1.8 1.1-.4 2.3-.6 3.6-.6 1.3 0 2.6.2 3.6.6 1.1.4 2 1 2.8 1.8.8.8 1.4 1.7 1.8 2.8.4 1.1.6 2.3.6 3.7 0 1.4-.2 2.6-.6 3.7-.4 1.1-1 2-1.8 2.8-.8.8-1.7 1.4-2.8 1.8-1.1.4-2.3.6-3.6.6-1.3 0-2.6-.2-3.6-.6-1.1-.4-2-1-2.8-1.8-.8-.8-1.4-1.7-1.8-2.8s-.6-2.3-.6-3.7c0-1.3.2-2.6.6-3.7zm4.3 5.7c.1.6.4 1.2.7 1.7.3.5.7.9 1.3 1.2s1.2.5 2 .5 1.5-.2 2-.5 1-.7 1.3-1.2c.3-.5.5-1.1.7-1.7.1-.6.2-1.3.2-2s-.1-1.4-.2-2c-.1-.7-.4-1.2-.7-1.7-.3-.5-.7-.9-1.3-1.2-.5-.3-1.2-.5-2-.5s-1.5.2-2 .5-1 .7-1.3 1.2c-.3.5-.5 1.1-.7 1.7-.1.7-.2 1.3-.2 2s.1 1.4.2 2zM60.3 223v-2.4h-.1c-.6 1-1.4 1.7-2.3 2.1s-1.9.7-2.9.7c-1.3 0-2.3-.2-3.1-.5-.8-.3-1.4-.8-1.9-1.4s-.8-1.3-1-2.2c-.2-.9-.3-1.8-.3-2.9v-10.5h4.7v9.6c0 1.4.2 2.5.7 3.2.4.7 1.2 1 2.3 1 1.3 0 2.2-.4 2.8-1.1.6-.8.9-2 .9-3.7V206h4.7v17h-4.5zM92.5 205.7c-.3-.5-.7-.9-1.2-1.3s-1-.7-1.6-.9c-.6-.2-1.2-.3-1.8-.3-1.2 0-2.2.2-3 .7-.8.5-1.5 1.1-2 1.8-.5.8-.9 1.6-1.1 2.6-.2 1-.3 2-.3 3s.1 2 .3 2.9c.2.9.6 1.8 1.1 2.5.5.7 1.2 1.3 2 1.8s1.8.7 3 .7c1.6 0 2.8-.5 3.7-1.5.9-1 1.4-2.2 1.6-3.8h5c-.1 1.5-.5 2.8-1 4s-1.3 2.2-2.2 3c-.9.8-2 1.5-3.2 1.9-1.2.4-2.5.7-4 .7-1.8 0-3.4-.3-4.9-.9-1.4-.6-2.7-1.5-3.6-2.6-1-1.1-1.7-2.4-2.3-3.9a15.098 15.098 0 0 1 0-9.7c.5-1.5 1.3-2.8 2.3-3.9 1-1.1 2.2-2 3.6-2.6 1.4-.6 3.1-1 4.9-1 1.3 0 2.5.2 3.7.6 1.2.4 2.2.9 3.1 1.6.9.7 1.7 1.6 2.3 2.7.6 1.1 1 2.3 1.1 3.6h-5c0-.7-.2-1.2-.5-1.7zM113.2 199.4L122 223h-5.4l-1.8-5.2H106l-1.8 5.2H99l8.9-23.6h5.3zm.3 14.4l-3-8.6h-.1l-3.1 8.6h6.2zM129 199.4l9.8 15.8h.1v-15.8h4.8V223h-5.2l-9.8-15.8h-.1V223h-4.9v-23.6h5.3zM152.6 199.4v5c0 .7-.1 1.4-.3 2-.2.6-.6 1.2-1 1.7s-.9.9-1.5 1.2c-.6.3-1.2.5-1.9.6v-2.2c.8-.3 1.4-.7 1.7-1.3.3-.6.5-1.2.5-2.1h-2.2v-5.1h4.7zM154.9 203.7v-4.4h19.3v4.4h-7.1V223H162v-19.2h-7.1zM194.9 218.1c-.2.9-.5 1.8-1.1 2.6-.6.8-1.3 1.5-2.4 2-1 .5-2.4.8-4.2.8-1 0-1.9-.1-2.9-.4-.9-.3-1.7-.7-2.5-1.3-.7-.6-1.3-1.3-1.7-2.2-.4-.9-.7-2-.7-3.3v-2h4.7v1.1c0 .6 0 1.1.1 1.6s.2.9.5 1.2c.2.3.5.6.9.8.4.2.9.3 1.5.3.7 0 1.2-.1 1.6-.4.4-.2.6-.6.8-.9.2-.4.3-.8.3-1.3v-17.2h5.2v16.1c.1.7 0 1.5-.1 2.5zM216.7 221.2c-1.8 1.6-4.2 2.3-7.4 2.3s-5.7-.8-7.4-2.3c-1.7-1.5-2.6-3.9-2.6-7.1v-14.7h5.2V214c0 .6.1 1.3.2 1.9.1.6.3 1.2.7 1.6.4.5.8.9 1.5 1.2.6.3 1.5.4 2.5.4 1.8 0 3.1-.4 3.8-1.2.7-.8 1.1-2.1 1.1-3.9v-14.7h5.2V214c-.1 3.2-1 5.6-2.8 7.2zM233.7 199.4c1.5 0 2.9.2 4.2.7 1.3.5 2.4 1.2 3.4 2.2 1 1 1.7 2.2 2.2 3.6.5 1.5.8 3.2.8 5.1 0 1.7-.2 3.3-.7 4.8-.4 1.5-1.1 2.7-2 3.8s-2 1.9-3.3 2.5c-1.3.6-2.9.9-4.7.9h-10.2v-23.6h10.3zm-.4 19.2c.7 0 1.5-.1 2.2-.4.7-.2 1.3-.6 1.9-1.2s1-1.3 1.3-2.2c.3-.9.5-2 .5-3.3 0-1.2-.1-2.3-.3-3.2-.2-1-.6-1.8-1.1-2.5-.5-.7-1.2-1.2-2.1-1.6-.9-.4-1.9-.5-3.2-.5h-3.7v14.9h4.5zM261.6 222.8c-1.1.5-2.3.7-3.4.7-1.8 0-3.4-.3-4.9-.9-1.4-.6-2.7-1.5-3.6-2.6s-1.7-2.4-2.3-3.9a15.098 15.098 0 0 1 0-9.7c.5-1.5 1.3-2.8 2.3-3.9s2.2-2 3.6-2.6c1.4-.6 3.1-1 4.9-1 1.2 0 2.4.2 3.5.5 1.1.4 2.2.9 3.1 1.6.9.7 1.7 1.6 2.3 2.6.6 1 1 2.2 1.1 3.6h-4.9c-.3-1.3-.9-2.3-1.8-3-.9-.7-1.9-1-3.2-1-1.2 0-2.2.2-3 .7-.8.5-1.5 1.1-2 1.8-.5.8-.9 1.6-1.1 2.6-.2 1-.3 2-.3 3s.1 2 .3 2.9c.2.9.6 1.8 1.1 2.5.5.7 1.2 1.3 2 1.8s1.8.7 3 .7c1.7 0 3-.4 4-1.3.9-.9 1.5-2.1 1.6-3.8h-5.2v-3.9h9.9V223h-3.3l-.5-2.7c-1.1 1.2-2.1 2-3.2 2.5zM290 199.4v4.4h-12.4v5H289v4h-11.4v5.8h12.7v4.4h-17.9v-23.6H290z"/></g><g fill="#393"><path d="M58.8 246.1c.1-1.1.3-2 .8-2.7.5-.7 1.1-1.3 1.8-1.7s1.6-.8 2.5-.9c.9-.2 1.9-.3 2.8-.3.9 0 1.7.1 2.6.2.9.1 1.7.4 2.4.7s1.3.8 1.8 1.5.7 1.5.7 2.5v8.9c0 .8 0 1.5.1 2.2.1.7.2 1.2.5 1.6H70c-.1-.3-.2-.5-.2-.8-.1-.3-.1-.6-.1-.8-.7.8-1.6 1.3-2.6 1.6-1 .3-2 .5-3.1.5-.8 0-1.6-.1-2.3-.3-.7-.2-1.3-.5-1.8-.9s-.9-.9-1.2-1.6c-.3-.6-.4-1.4-.4-2.3 0-1 .2-1.8.5-2.4.3-.6.8-1.1 1.3-1.5.5-.4 1.2-.7 1.8-.8.7-.2 1.4-.3 2.1-.4l2.1-.3c.7-.1 1.3-.2 1.8-.3.5-.1.9-.3 1.3-.6.3-.3.5-.6.4-1.1 0-.5-.1-.9-.2-1.2-.2-.3-.4-.5-.7-.7-.3-.2-.6-.3-1-.3-.4-.1-.8-.1-1.2-.1-.9 0-1.6.2-2.2.6-.5.4-.8 1.1-.9 2h-4.6zm10.8 3.5c-.2.2-.4.3-.7.4s-.6.2-1 .2c-.3.1-.7.1-1.1.2-.4 0-.7.1-1.1.2-.4.1-.7.2-1 .3-.3.1-.6.3-.9.4-.3.2-.5.4-.6.7-.2.3-.2.6-.2 1.1 0 .4.1.8.2 1.1.2.3.4.5.6.7.3.2.6.3.9.3.4.1.7.1 1.1.1.9 0 1.6-.2 2.1-.5s.9-.7 1.1-1.1c.2-.4.4-.9.4-1.3.1-.4.1-.8.1-1.1v-1.7zM83.5 238.8v-4.4h19.3v4.4h-7.1V258h-5.2v-19.2h-7zM104.9 241.4c.5-1.5 1.3-2.8 2.3-3.9 1-1.1 2.2-2 3.6-2.6 1.4-.6 3.1-1 4.9-1 1.8 0 3.5.3 4.9 1 1.4.6 2.6 1.5 3.6 2.6s1.7 2.4 2.3 3.9a15.098 15.098 0 0 1 0 9.7c-.5 1.5-1.3 2.8-2.3 3.9-1 1.1-2.2 2-3.6 2.6-1.4.6-3.1.9-4.9.9-1.8 0-3.4-.3-4.9-.9-1.4-.6-2.7-1.5-3.6-2.6-1-1.1-1.7-2.4-2.3-3.9a15.098 15.098 0 0 1 0-9.7zm4.8 7.8c.2.9.6 1.8 1.1 2.5.5.7 1.2 1.3 2 1.8s1.8.7 3 .7 2.2-.2 3-.7c.8-.5 1.5-1.1 2-1.8s.9-1.6 1.1-2.5.3-1.9.3-2.9-.1-2-.3-3c-.2-1-.6-1.8-1.1-2.6-.5-.8-1.2-1.4-2-1.8-.8-.5-1.8-.7-3-.7s-2.2.2-3 .7c-.8.5-1.5 1.1-2 1.8-.5.8-.9 1.6-1.1 2.6-.2 1-.3 2-.3 3-.1 1 0 1.9.3 2.9zM130.3 241.4c.5-1.5 1.3-2.8 2.3-3.9s2.2-2 3.6-2.6c1.4-.6 3.1-1 4.9-1 1.8 0 3.5.3 4.9 1 1.4.6 2.6 1.5 3.6 2.6s1.7 2.4 2.3 3.9a15.098 15.098 0 0 1 0 9.7c-.5 1.5-1.3 2.8-2.3 3.9-1 1.1-2.2 2-3.6 2.6s-3.1.9-4.9.9c-1.8 0-3.4-.3-4.9-.9-1.4-.6-2.7-1.5-3.6-2.6s-1.7-2.4-2.3-3.9a15.098 15.098 0 0 1 0-9.7zm4.7 7.8c.2.9.6 1.8 1.1 2.5.5.7 1.2 1.3 2 1.8s1.8.7 3 .7 2.2-.2 3-.7c.8-.5 1.5-1.1 2-1.8s.9-1.6 1.1-2.5c.2-.9.3-1.9.3-2.9s-.1-2-.3-3c-.2-1-.6-1.8-1.1-2.6-.5-.8-1.2-1.4-2-1.8-.8-.5-1.8-.7-3-.7s-2.2.2-3 .7c-.8.5-1.5 1.1-2 1.8-.5.8-.9 1.6-1.1 2.6-.2 1-.3 2-.3 3s.1 1.9.3 2.9zM154 238.8v-4.4h19.3v4.4h-7.1V258H161v-19.2h-7zM180.9 234.4v9h9.5v-9h5.2V258h-5.2v-10.2h-9.5V258h-5.2v-23.6h5.2zM212.9 234.4v8.6h.1c.6-.9 1.3-1.5 2.3-1.9 1-.4 2-.6 3.1-.6.9 0 1.7.2 2.5.5.8.4 1.6.9 2.3 1.6.7.7 1.2 1.7 1.6 2.8.4 1.1.6 2.5.6 4s-.2 2.9-.6 4c-.4 1.1-1 2.1-1.6 2.8-.7.7-1.4 1.3-2.3 1.6-.8.4-1.7.5-2.5.5-1.3 0-2.4-.2-3.4-.6s-1.7-1.1-2.2-2h-.1v2.2h-4.5v-23.6h4.7zm7.6 13c-.2-.7-.4-1.2-.7-1.7-.3-.5-.7-.9-1.2-1.2s-1.1-.4-1.8-.4-1.3.1-1.8.4-.9.7-1.3 1.2c-.3.5-.6 1.1-.7 1.7-.2.7-.2 1.4-.2 2.1 0 .7.1 1.4.2 2 .2.7.4 1.2.7 1.7.3.5.7.9 1.3 1.2.5.3 1.1.4 1.8.4s1.3-.1 1.8-.4c.5-.3.9-.7 1.2-1.2.3-.5.6-1.1.7-1.7.2-.7.2-1.3.2-2 0-.8 0-1.5-.2-2.1zM234.4 263c-.9.6-2.2.9-3.8.9h-1.4c-.5 0-1-.1-1.4-.1v-3.9c.4 0 .9.1 1.4.1.5 0 .9.1 1.4 0 .6-.1 1.1-.3 1.4-.7.3-.4.4-.9.4-1.4 0-.4-.1-.7-.2-1.1l-6-16h5l3.9 11.7h.1l3.7-11.7h4.9l-7.1 19.2c-.7 1.5-1.4 2.5-2.3 3z"/></g><g fill="#393"><path d="M59.9 273.3v-3.9h4.7v3.9h-4.7zm4.7 2.6V293h-4.7v-17.1h4.7zM77.3 275.9v3.1h-3.4v8.4c0 .8.1 1.3.4 1.6.3.3.8.4 1.6.4h.8c.2 0 .5-.1.7-.1v3.6c-.4.1-.8.1-1.3.1h-1.4c-.7 0-1.4 0-2.1-.1-.6-.1-1.2-.3-1.7-.6s-.9-.7-1.2-1.2c-.3-.5-.4-1.2-.4-2.1v-10.1h-2.8v-3.1h2.8v-5.1H74v5.1h3.3zM83.2 288.7c.2.4.5.7.8.9.3.2.7.4 1.1.5.4.1.9.2 1.3.2.3 0 .7 0 1-.1.4-.1.7-.2 1-.4s.5-.4.7-.7c.2-.3.3-.6.3-1 0-.7-.5-1.2-1.4-1.6-.9-.4-2.2-.7-3.9-1.1-.7-.2-1.3-.3-2-.5-.6-.2-1.2-.5-1.7-.8-.5-.3-.9-.8-1.2-1.3-.3-.5-.5-1.1-.5-1.9 0-1.1.2-2 .6-2.7.4-.7 1-1.3 1.7-1.7.7-.4 1.5-.7 2.4-.9s1.8-.2 2.7-.2c.9 0 1.8.1 2.7.3s1.6.5 2.3.9c.7.4 1.2 1 1.7 1.7s.7 1.6.8 2.6h-4.5c-.1-.9-.4-1.5-1-1.8-.6-.3-1.3-.5-2.2-.5H85c-.3 0-.6.1-.8.2-.3.1-.5.3-.6.5-.2.2-.3.5-.3.8 0 .4.2.8.5 1 .3.3.7.5 1.2.6s1.1.3 1.7.4c.6.1 1.3.3 1.9.4.7.2 1.3.3 2 .6.6.2 1.2.5 1.7.9s.9.8 1.2 1.4c.3.5.5 1.2.5 2 0 1.1-.2 2.1-.7 2.8-.5.8-1 1.4-1.8 1.8-.7.5-1.6.8-2.5 1-.9.2-1.9.3-2.9.3s-2-.1-2.9-.3c-.9-.2-1.8-.5-2.5-1s-1.3-1.1-1.8-1.8c-.5-.8-.7-1.7-.8-2.9h4.5c.3.6.4 1.1.6 1.4zM109.5 293l-7.6-23.6h5.3l5.2 16.6h.1l5.3-16.6h5.3l-7.8 23.6h-5.8zM142.5 269.4v4.4h-12.4v5h11.4v4h-11.4v5.8h12.7v4.4h-17.9v-23.6h17.6zM151.1 269.4l9.8 15.8h.1v-15.8h4.9V293h-5.2l-9.8-15.8h-.1V293h-4.9v-23.6h5.2zM187.7 269.4v4.4h-12.4v5h11.4v4h-11.4v5.8H188v4.4h-17.9v-23.6h17.6zM208.8 269.4v4.4h-12.4v5h11.4v4h-11.4v5.8H209v4.4h-17.9v-23.6h17.7zM224.9 269.4c1.1 0 2 .2 2.9.5.8.3 1.6.8 2.2 1.4.6.6 1.1 1.3 1.4 2.1.3.8.5 1.6.5 2.5 0 1.4-.3 2.6-.9 3.6-.6 1-1.5 1.8-2.9 2.3v.1c.6.2 1.2.4 1.6.8.4.4.8.8 1 1.3.3.5.5 1 .6 1.6.1.6.2 1.2.2 1.8 0 .4 0 .8.1 1.3 0 .5.1 1 .1 1.6.1.5.1 1 .3 1.5.1.5.3.9.5 1.2h-5.2c-.3-.7-.5-1.6-.5-2.7l-.3-3c-.2-1.2-.6-2.1-1.1-2.7-.6-.6-1.5-.9-2.8-.9h-5.2v9.2h-5.2v-23.6h12.7zm-1.8 10.7c1.2 0 2.1-.3 2.7-.8.6-.5.9-1.4.9-2.6 0-1.1-.3-2-.9-2.5-.6-.5-1.5-.8-2.7-.8h-5.7v6.6h5.7zM240.6 287.9v5.1h-5.2v-5.1h5.2z"/></g></svg>