<svg baseProfile="tiny" xmlns="http://www.w3.org/2000/svg" viewBox="0 0 300 600" overflow="visible"><g fill="#231F20"><path d="M78.4 205c-.2-.4-.5-.7-.9-1-.4-.3-.8-.5-1.2-.7-.5-.2-.9-.2-1.4-.2-.9 0-1.7.2-2.3.5-.6.4-1.2.8-1.6 1.4-.4.6-.7 1.3-.9 2-.2.8-.3 1.6-.3 2.4 0 .8.1 1.5.3 2.3.2.7.5 1.4.9 2 .4.6.9 1.1 1.6 1.4.6.4 1.4.5 2.3.5 1.2 0 2.2-.4 2.9-1.1s1.1-1.8 1.3-3h4c-.1 1.2-.4 2.2-.8 3.1-.4.9-1 1.7-1.7 2.4s-1.5 1.2-2.5 1.5-2 .5-3.1.5c-1.4 0-2.7-.2-3.8-.7-1.1-.5-2.1-1.2-2.9-2-.8-.9-1.4-1.9-1.8-3.1s-.6-2.4-.6-3.8.2-2.7.6-3.9c.4-1.2 1-2.2 1.8-3.1.8-.9 1.7-1.6 2.9-2.1 1.1-.5 2.4-.8 3.8-.8 1 0 2 .1 2.9.4.9.3 1.7.7 2.4 1.3.7.6 1.3 1.3 1.8 2.1s.8 1.8.9 2.9h-4l-.6-1.2zM88.6 205.2v2.5h.1c.2-.4.4-.8.7-1.2.3-.4.6-.7 1-.9.4-.3.8-.4 1.2-.6.4-.1.9-.2 1.4-.2.2 0 .5 0 .8.1v3.4c-.2 0-.4-.1-.6-.1h-.7c-.7 0-1.2.1-1.7.3-.5.2-.8.5-1.1.9-.3.4-.5.8-.6 1.4s-.2 1.1-.2 1.7v6.1h-3.7v-13.4h3.4zM95.1 203.1v-3h3.7v3h-3.7zm3.7 2.1v13.4h-3.7v-13.4h3.7zM108.8 205.2v2.5h-2.7v6.7c0 .6.1 1 .3 1.2s.6.3 1.2.3h.6c.2 0 .4 0 .5-.1v2.9c-.3.1-.7.1-1 .1h-1.1c-.6 0-1.1 0-1.6-.1s-1-.2-1.4-.5c-.4-.2-.7-.5-.9-1-.2-.4-.3-1-.3-1.6v-7.9h-2.2v-2.5h2.2v-4h3.7v4h2.7zM110.5 203.1v-3h3.7v3h-3.7zm3.6 2.1v13.4h-3.7v-13.4h3.7zM123.2 207.6c-.6 0-1.1.1-1.5.4-.4.3-.7.6-1 1-.3.4-.4.9-.5 1.4s-.2 1-.2 1.5.1 1 .2 1.5.3 1 .5 1.4c.2.4.6.7.9 1 .4.3.9.4 1.5.4.9 0 1.6-.2 2-.7.5-.5.8-1.2.9-2h3.6c-.2 1.8-.9 3.1-2.1 4.1s-2.6 1.4-4.4 1.4c-1 0-1.9-.2-2.8-.5s-1.6-.8-2.1-1.4c-.6-.6-1-1.3-1.4-2.2-.3-.8-.5-1.8-.5-2.8 0-1 .2-2 .5-2.9s.7-1.7 1.3-2.3c.6-.7 1.3-1.2 2.2-1.5.8-.4 1.8-.5 2.9-.5.8 0 1.6.1 2.3.3s1.4.5 2 .9c.6.4 1.1 1 1.4 1.6.4.6.6 1.4.6 2.2H126c-.3-1.5-1.2-2.3-2.8-2.3zM131.3 209.3c.1-.9.3-1.6.6-2.2.4-.6.9-1 1.5-1.4.6-.3 1.3-.6 2-.7.7-.1 1.5-.2 2.2-.2.7 0 1.4 0 2.1.1.7.1 1.3.3 1.9.6.6.3 1 .7 1.4 1.2.4.5.5 1.1.5 2v7c0 .6 0 1.2.1 1.7.1.6.2 1 .4 1.2h-3.7c-.1-.2-.1-.4-.2-.6 0-.2-.1-.4-.1-.7-.6.6-1.3 1-2.1 1.3-.8.2-1.6.4-2.4.4-.6 0-1.2-.1-1.8-.2s-1-.4-1.5-.7c-.4-.3-.7-.7-1-1.2-.2-.5-.4-1.1-.4-1.8 0-.8.1-1.4.4-1.9.3-.5.6-.9 1-1.2.4-.3.9-.5 1.5-.7.5-.1 1.1-.3 1.7-.4.6-.1 1.1-.2 1.6-.2.5-.1 1-.1 1.4-.2s.7-.3 1-.5c.2-.2.4-.5.3-.9 0-.4-.1-.7-.2-.9-.1-.2-.3-.4-.5-.5-.2-.1-.5-.2-.8-.3-.3 0-.6-.1-.9-.1-.7 0-1.3.2-1.7.5s-.7.8-.7 1.6h-3.6zm8.6 2.7l-.6.3c-.2.1-.5.1-.8.2-.3.1-.6.1-.8.1-.3 0-.6.1-.9.1-.3.1-.6.1-.8.2-.3.1-.5.2-.7.4-.2.1-.4.3-.5.6-.1.2-.2.5-.2.9 0 .3.1.6.2.8.1.2.3.4.5.5s.5.2.7.3c.3.1.6.1.9.1.7 0 1.3-.1 1.7-.4.4-.2.7-.5.9-.9.2-.3.3-.7.4-1 0-.3.1-.6.1-.8V212zM150 200.1v18.6h-3.7v-18.6h3.7zM164.1 200.1v18.6H160v-18.6h4.1zM170.9 200.1v18.6h-3.7v-18.6h3.7zM177.3 200.1v18.6h-3.7v-18.6h3.7zM183.5 205.2v1.9h.1c.5-.8 1.1-1.3 1.8-1.7.7-.4 1.5-.5 2.3-.5 1 0 1.8.1 2.4.4.6.3 1.1.6 1.5 1.1.4.5.6 1.1.8 1.7.1.7.2 1.4.2 2.3v8.3h-3.7V211c0-1.1-.2-1.9-.5-2.5-.3-.5-1-.8-1.8-.8-1 0-1.7.3-2.2.9-.5.6-.7 1.6-.7 3v7H180v-13.4h3.5zM199.1 215.4c.6.5 1.4.8 2.4.8.7 0 1.4-.2 1.9-.6.5-.4.9-.8 1-1.2h3.2c-.5 1.6-1.3 2.8-2.4 3.5-1.1.7-2.4 1-3.9 1-1.1 0-2-.2-2.9-.5s-1.6-.8-2.2-1.4c-.6-.6-1-1.4-1.4-2.2-.3-.9-.5-1.8-.5-2.9 0-1 .2-1.9.5-2.8.3-.9.8-1.6 1.4-2.2.6-.6 1.3-1.1 2.2-1.5.8-.4 1.8-.5 2.8-.5 1.1 0 2.1.2 3 .7.8.4 1.5 1 2.1 1.8s.9 1.6 1.2 2.5c.2 1 .3 2 .3 3h-9.7c.1 1.1.4 2 1 2.5zm4.2-7.1c-.4-.5-1.1-.7-2-.7-.6 0-1.1.1-1.5.3-.4.2-.7.4-.9.7-.2.3-.4.6-.5.9-.1.3-.2.6-.2.9h6c-.2-.9-.5-1.6-.9-2.1zM212.9 215.3c.2.3.4.5.6.7.3.2.6.3.9.4s.7.1 1.1.1c.3 0 .5 0 .8-.1s.5-.2.8-.3c.2-.1.4-.3.6-.5s.2-.5.2-.8c0-.6-.4-1-1.1-1.2-.7-.3-1.8-.6-3.1-.8-.5-.1-1.1-.3-1.6-.4-.5-.2-1-.4-1.4-.6-.4-.3-.7-.6-1-1-.2-.4-.4-.9-.4-1.5 0-.9.2-1.6.5-2.1.3-.6.8-1 1.3-1.3.6-.3 1.2-.5 1.9-.7.7-.1 1.4-.2 2.1-.2s1.4.1 2.1.2c.7.1 1.3.4 1.8.7.5.3 1 .8 1.3 1.3s.6 1.2.6 2.1h-3.5c-.1-.7-.3-1.2-.8-1.4-.5-.3-1.1-.4-1.7-.4h-.7c-.2 0-.5.1-.7.2-.2.1-.4.2-.5.4-.1.2-.2.4-.2.7 0 .3.1.6.4.8.2.2.6.4.9.5.4.1.8.2 1.3.4l1.5.3c.5.1 1.1.3 1.6.4.5.2 1 .4 1.4.7s.7.6 1 1.1c.2.4.4.9.4 1.6 0 .9-.2 1.6-.5 2.2-.4.6-.8 1.1-1.4 1.4-.6.4-1.2.6-2 .8-.7.1-1.5.2-2.2.2-.8 0-1.5-.1-2.3-.2-.7-.2-1.4-.4-2-.8-.6-.4-1.1-.8-1.4-1.4-.4-.6-.6-1.3-.6-2.2h3.5c.3.1.4.4.5.7zM226.7 215.3c.2.3.4.5.6.7.3.2.6.3.9.4s.7.1 1.1.1c.3 0 .5 0 .8-.1s.5-.2.8-.3c.2-.1.4-.3.6-.5s.2-.5.2-.8c0-.6-.4-1-1.1-1.2-.7-.3-1.8-.6-3.1-.8-.5-.1-1.1-.3-1.6-.4-.5-.2-1-.4-1.4-.6-.4-.3-.7-.6-1-1-.2-.4-.4-.9-.4-1.5 0-.9.2-1.6.5-2.1.3-.6.8-1 1.3-1.3.6-.3 1.2-.5 1.9-.7.7-.1 1.4-.2 2.1-.2s1.4.1 2.1.2c.7.1 1.3.4 1.8.7.5.3 1 .8 1.3 1.3s.6 1.2.6 2.1h-3.5c-.1-.7-.3-1.2-.8-1.4-.5-.3-1.1-.4-1.7-.4h-.7c-.2 0-.5.1-.7.2-.2.1-.4.2-.5.4-.1.2-.2.4-.2.7 0 .3.1.6.4.8.2.2.6.4.9.5.4.1.8.2 1.3.4l1.5.3c.5.1 1.1.3 1.6.4.5.2 1 .4 1.4.7s.7.6 1 1.1c.2.4.4.9.4 1.6 0 .9-.2 1.6-.5 2.2-.4.6-.8 1.1-1.4 1.4-.6.4-1.2.6-2 .8-.7.1-1.5.2-2.2.2-.8 0-1.5-.1-2.3-.2-.7-.2-1.4-.4-2-.8-.6-.4-1.1-.8-1.4-1.4-.4-.6-.6-1.3-.6-2.2h3.5c.2.1.3.4.5.7z"/></g><g fill="#231F20"><path d="M95.8 230.1v18.6h-4.1v-18.6h4.1zM102.2 235.2v1.9h.1c.5-.8 1.1-1.3 1.8-1.7.7-.4 1.5-.5 2.3-.5 1 0 1.8.1 2.4.4s1.1.6 1.5 1.1c.4.5.6 1.1.8 1.7.1.7.2 1.4.2 2.3v8.3h-3.7V241c0-1.1-.2-1.9-.5-2.5-.3-.5-1-.8-1.8-.8-1 0-1.7.3-2.2.9s-.7 1.6-.7 3v7h-3.7v-13.4h3.5zM117 245.3c.2.3.4.5.6.7.3.2.6.3.9.4s.7.1 1.1.1c.3 0 .5 0 .8-.1s.5-.2.8-.3c.2-.1.4-.3.6-.5.2-.2.2-.5.2-.8 0-.6-.4-1-1.1-1.2-.7-.3-1.8-.6-3.1-.8-.5-.1-1.1-.3-1.6-.4-.5-.2-1-.4-1.4-.6-.4-.3-.7-.6-1-1-.2-.4-.4-.9-.4-1.5 0-.9.2-1.6.5-2.1.3-.6.8-1 1.3-1.3.6-.3 1.2-.5 1.9-.7.7-.1 1.4-.2 2.1-.2s1.4.1 2.1.2c.7.1 1.3.4 1.8.7.5.3 1 .8 1.3 1.3.4.5.6 1.2.6 2.1h-3.5c-.1-.7-.3-1.2-.8-1.4-.5-.3-1.1-.4-1.7-.4h-.7c-.2 0-.5.1-.7.2-.2.1-.4.2-.5.4-.1.2-.2.4-.2.7 0 .3.1.6.4.8.2.2.6.4.9.5.4.1.8.2 1.3.4l1.5.3c.5.1 1.1.3 1.6.4.5.2 1 .4 1.4.7s.7.6 1 1.1c.2.4.4.9.4 1.6 0 .9-.2 1.6-.5 2.2-.4.6-.8 1.1-1.4 1.4-.6.4-1.2.6-2 .8-.7.1-1.5.2-2.2.2-.8 0-1.5-.1-2.3-.2-.7-.2-1.4-.4-2-.8-.6-.4-1.1-.8-1.4-1.4-.4-.6-.6-1.3-.6-2.2h3.5c.3.1.4.4.5.7zM136.7 248.6v-1.9h-.1c-.5.8-1.1 1.3-1.8 1.7-.7.3-1.5.5-2.3.5-1 0-1.8-.1-2.4-.4-.6-.3-1.1-.6-1.5-1.1-.4-.5-.6-1.1-.8-1.7-.1-.7-.2-1.4-.2-2.3v-8.3h3.7v7.6c0 1.1.2 1.9.5 2.5.3.5 1 .8 1.8.8 1 0 1.7-.3 2.2-.9.5-.6.7-1.6.7-3v-7h3.7v13.4h-3.5zM146.3 235.2v2.5h.1c.2-.4.4-.8.7-1.2.3-.4.6-.7 1-.9.4-.3.8-.4 1.2-.6.4-.1.9-.2 1.4-.2.2 0 .5 0 .8.1v3.4c-.2 0-.4-.1-.6-.1h-.7c-.7 0-1.2.1-1.7.3-.5.2-.8.5-1.1.9-.3.4-.5.8-.6 1.4-.1.5-.2 1.1-.2 1.7v6.1h-3.7v-13.4h3.4zM152.5 239.3c.1-.9.3-1.6.7-2.2.4-.6.9-1 1.5-1.4.6-.3 1.3-.6 2-.7.7-.1 1.5-.2 2.2-.2.7 0 1.4 0 2.1.1.7.1 1.3.3 1.9.6.6.3 1 .7 1.4 1.2.4.5.5 1.1.5 2v7c0 .6 0 1.2.1 1.7.1.6.2 1 .4 1.2h-3.7c-.1-.2-.1-.4-.2-.6 0-.2-.1-.4-.1-.7-.6.6-1.3 1-2.1 1.3-.8.2-1.6.4-2.4.4-.6 0-1.2-.1-1.8-.2-.6-.2-1-.4-1.5-.7-.4-.3-.7-.7-1-1.2-.2-.5-.4-1.1-.4-1.8 0-.8.1-1.4.4-1.9.3-.5.6-.9 1-1.2.4-.3.9-.5 1.5-.7.5-.1 1.1-.3 1.7-.4.6-.1 1.1-.2 1.6-.2.5-.1 1-.1 1.4-.2s.7-.3 1-.5c.2-.2.4-.5.3-.9 0-.4-.1-.7-.2-.9-.1-.2-.3-.4-.5-.5-.2-.1-.5-.2-.8-.3-.3 0-.6-.1-.9-.1-.7 0-1.3.2-1.7.5s-.7.8-.7 1.6h-3.7zm8.6 2.8l-.6.3c-.2.1-.5.1-.8.2-.3.1-.5.1-.8.1-.3 0-.6.1-.9.1-.3.1-.6.1-.8.2s-.5.2-.7.4-.4.3-.5.6c-.1.2-.2.5-.2.9 0 .3.1.6.2.8.1.2.3.4.5.5s.5.2.7.3c.3.1.6.1.9.1.7 0 1.3-.1 1.7-.4.4-.2.7-.5.9-.9.2-.3.3-.7.4-1 0-.3.1-.6.1-.8v-1.4zM170.9 235.2v1.9h.1c.5-.8 1.1-1.3 1.8-1.7.7-.4 1.5-.5 2.3-.5 1 0 1.8.1 2.4.4.6.3 1.1.6 1.5 1.1.4.5.6 1.1.8 1.7.1.7.2 1.4.2 2.3v8.3h-3.7V241c0-1.1-.2-1.9-.5-2.5-.3-.5-1-.8-1.8-.8-1 0-1.7.3-2.2.9-.5.6-.7 1.6-.7 3v7h-3.7v-13.4h3.5zM189 237.6c-.6 0-1.1.1-1.5.4-.4.3-.7.6-1 1-.3.4-.4.9-.5 1.4-.1.5-.2 1-.2 1.5s.1 1 .2 1.5.3 1 .5 1.4c.2.4.5.7.9 1 .4.3.9.4 1.5.4.9 0 1.6-.2 2-.7.5-.5.8-1.2.9-2h3.6c-.2 1.8-.9 3.1-2.1 4.1s-2.6 1.4-4.4 1.4c-1 0-1.9-.2-2.8-.5s-1.6-.8-2.1-1.4c-.6-.6-1-1.3-1.4-2.2-.3-.8-.5-1.8-.5-2.8 0-1 .2-2 .5-2.9.3-.9.7-1.7 1.3-2.3.6-.7 1.3-1.2 2.2-1.5.8-.4 1.8-.5 2.9-.5.8 0 1.6.1 2.3.3.7.2 1.4.5 2 .9s1.1 1 1.4 1.6c.4.6.6 1.4.6 2.2h-3.6c-.2-1.5-1.1-2.3-2.7-2.3zM201.2 245.4c.6.5 1.4.8 2.4.8.7 0 1.4-.2 1.9-.6.5-.4.9-.8 1-1.2h3.2c-.5 1.6-1.3 2.8-2.4 3.5-1.1.7-2.4 1-3.9 1-1.1 0-2-.2-2.9-.5s-1.6-.8-2.2-1.4c-.6-.6-1-1.4-1.4-2.2-.3-.9-.5-1.8-.5-2.9 0-1 .2-1.9.5-2.8.3-.9.8-1.6 1.4-2.2.6-.6 1.3-1.1 2.2-1.5.8-.4 1.8-.5 2.8-.5 1.1 0 2.1.2 3 .7.8.4 1.5 1 2.1 1.8s.9 1.6 1.2 2.5c.2 1 .3 2 .3 3h-9.7c.2 1.1.5 2 1 2.5zm4.2-7.1c-.4-.5-1.1-.7-2-.7-.6 0-1.1.1-1.5.3-.4.2-.7.4-.9.7-.2.3-.4.6-.5.9-.1.3-.2.6-.2.9h6c-.2-.9-.5-1.6-.9-2.1z"/></g></svg>