<svg id="Layer_1" xmlns="http://www.w3.org/2000/svg" viewBox="0 0 300 600"><style>.st0{fill:#349946}.st1{fill:#231f20}.st2{fill:none}</style><path class="st0" d="M39.7 100.4h-2.8l-.9-2.7h-5.5l-.9 2.7h-2.8l4.9-13h2c.7 0 1.1.2 1.3.7.2.5 2.4 6.3 2.4 6.3h-2.6L33.2 90l-2 5.5h5.6c.8 0 1.2.2 1.4.9l1.5 4zM64.2 100.4h-2.8l-.9-2.7H55l-.9 2.7h-2.8l4.9-13h2c.7 0 1.1.2 1.3.7.2.5 2.4 6.3 2.4 6.3h-2.6L57.7 90l-2 5.5h5.6c.8 0 1.2.2 1.4.9l1.5 4zM40.6 87.4h5.1c4 0 5.9 2.1 5.9 6.5 0 2.4-.8 4.2-2.1 5.3-1.3 1-2.7 1.2-4.5 1.2h-4.4v-13zM45.3 98c2.5 0 3.5-1.2 3.5-4.1 0-2.9-1-4.2-3.2-4.2h-2.5V98h2.2z"/><path class="st1" d="M86.2 100.3h-2l-.9-9.3-3.1 9.3h-1.7L75.2 91l-.8 9.3h-1.9L73.7 88H76l3.3 9.4 3.2-9.4h2.3l1.4 12.3zM96.2 95.7v.7h-6.1c0 .6.2 1.2.6 1.7.5.6 1.1.8 2 .8.7 0 1.6-.2 2.5-.7l.7 1.3c-.9.6-2 1-3.3 1-1.4 0-2.5-.4-3.2-1.3-.8-.8-1.1-1.9-1.1-3.3s.4-2.6 1.2-3.5c.8-.9 1.8-1.3 3.1-1.3 1.2 0 2.2.4 2.8 1.2.5.8.8 1.9.8 3.4zm-1.9-.8c0-.6-.1-1-.3-1.4-.3-.6-.9-.9-1.6-.9-.6 0-1.1.2-1.6.6-.4.4-.7 1-.7 1.7h4.2zM110.9 100.3h-2v-5.1c0-1-.1-1.7-.4-2-.2-.3-.6-.4-1.1-.4-.6 0-1.3.2-2 .7.1.2.1.9.1 2v4.8h-2v-4.9c0-1.2-.1-1.9-.4-2.2-.2-.2-.6-.4-1-.4-.7 0-1.3.2-1.9.6v6.9h-2v-9h1.8v.7c.8-.6 1.7-.9 2.6-.9.9 0 1.7.3 2.2 1 1-.7 2-1 3-1 .9 0 1.7.3 2.2.8.4.4.7 1 .8 1.7.1.4.1 1.2.1 2.3v4.4zM121.3 95.6c0 1.5-.4 2.7-1.3 3.6-.9.9-2 1.4-3.4 1.4-1 0-2.2-.2-3.5-.7V87h2v4.7c.7-.5 1.5-.7 2.3-.7 1.1 0 2.1.4 2.8 1.2.8.9 1.1 2 1.1 3.4zm-2 0c0-.9-.2-1.6-.7-2.2-.4-.5-1-.7-1.6-.7-.6 0-1.3.2-1.9.6v5.3c.5.2 1 .2 1.5.2.8 0 1.5-.3 1.9-.9.6-.5.8-1.3.8-2.3zM131 95.7v.7h-6.1c0 .6.2 1.2.6 1.7.5.6 1.1.8 2 .8.7 0 1.6-.2 2.5-.7l.7 1.3c-.9.6-2 1-3.3 1-1.4 0-2.5-.4-3.2-1.3-.8-.8-1.1-1.9-1.1-3.3s.4-2.6 1.2-3.5c.8-.9 1.8-1.3 3.1-1.3 1.2 0 2.2.4 2.8 1.2.4.8.8 1.9.8 3.4zm-1.9-.8c0-.6-.1-1-.3-1.4-.3-.6-.9-.9-1.6-.9-.6 0-1.1.2-1.6.6-.4.4-.7 1-.7 1.7h4.2zM138.6 91.2l-.5 1.6c-.2 0-.4-.1-.6-.1-1.1 0-2 .5-2.6 1.4v6.1h-2v-9h1.8v1.1c.1-.2.4-.5.8-.7.6-.4 1.4-.7 2.1-.7.3.1.7.2 1 .3z"/><g><path class="st1" d="M145.9 97.7c0 .9-.3 1.6-1 2.1-.6.5-1.5.8-2.5.8-.8 0-1.6-.1-2.3-.4-.5-.2-.8-.4-1-.5l.7-1.3c.9.5 1.7.7 2.4.7.5 0 .9-.1 1.2-.3.3-.2.4-.5.4-.8s-.2-.6-.5-.8l-1.4-.7c-.7-.3-1.2-.6-1.6-.9-.5-.5-.8-1.1-.8-1.8 0-.8.3-1.5.9-1.9s1.4-.7 2.4-.7c1.3 0 2.2.3 2.9.8l-.7 1.3c-.7-.4-1.4-.6-2.1-.6-1 0-1.4.3-1.4 1 0 .3.2.5.5.8.2.1.6.3 1.1.6.9.4 1.5.7 1.8 1 .7.2 1 .8 1 1.6zM154.8 100.3h-2.1V88h2.1v12.3zM164.9 100.3h-2v-4.9c0-1.2-.1-1.9-.4-2.2-.3-.3-.7-.4-1.1-.4-.6 0-1.3.2-2 .7v6.8h-2v-9h1.8v.7c.8-.6 1.7-.9 2.7-.9.9 0 1.7.3 2.2.8.4.4.7.9.8 1.5.1.4.1 1 .1 1.8v5.1zM173.2 97.7c0 .9-.3 1.6-1 2.1-.6.5-1.5.8-2.5.8-.8 0-1.6-.1-2.3-.4-.5-.2-.8-.4-1-.5l.7-1.3c.9.5 1.7.7 2.4.7.5 0 .9-.1 1.2-.3.3-.2.4-.5.4-.8s-.2-.6-.5-.8l-1.4-.7c-.7-.3-1.2-.6-1.6-.9-.5-.5-.8-1.1-.8-1.8 0-.8.3-1.5.9-1.9.6-.5 1.4-.7 2.4-.7 1.3 0 2.2.3 2.9.8l-.7 1.3c-.7-.4-1.4-.6-2.1-.6-1 0-1.4.3-1.4 1 0 .3.2.5.5.8.2.1.6.3 1.1.6.9.4 1.5.7 1.8 1 .7.2 1 .8 1 1.6zM182.8 100.3H181v-.7c-.8.6-1.7.9-2.7.9-.9 0-1.7-.3-2.2-.8-.4-.4-.7-.9-.8-1.5-.1-.4-.1-1-.1-1.8v-5h2V97.5c.1.5.2.9.5 1.1.3.2.6.3 1.1.3.5 0 1.2-.2 2-.7v-6.8h2v8.9zM190.8 91.2l-.5 1.6c-.2 0-.4-.1-.6-.1-1.1 0-2 .5-2.6 1.4v6.1h-2v-9h1.8v1.1c.1-.2.4-.5.8-.7.6-.4 1.4-.7 2.1-.7.4.1.7.2 1 .3z"/></g><g><path class="st1" d="M198.7 100.3h-1.8v-.7c-.9.6-1.8.8-2.6.8-.9 0-1.6-.3-2.1-.8s-.8-1.2-.8-2c0-2.1 1.7-3.1 5.1-3.1h.3v-.3c0-.6-.1-.9-.3-1.1-.3-.3-.8-.4-1.5-.4-.8 0-1.6.2-2.4.7l-.7-1.3c.2-.2.5-.4 1-.5.7-.3 1.5-.4 2.3-.4 1.2 0 2.2.3 2.8 1 .3.3.5.7.6 1.2.1.3.1.8.1 1.6v5.3zm-1.9-2v-2.4h-.4c-1.4 0-2.3.2-2.8.7-.2.2-.3.5-.3.9s.1.8.5 1c.3.2.7.3 1.1.3.5.1 1.1-.1 1.9-.5zM208.5 100.3h-2v-4.9c0-1.2-.1-1.9-.4-2.2-.3-.3-.7-.4-1.1-.4-.6 0-1.3.2-2 .7v6.8h-2v-9h1.8v.7c.8-.6 1.7-.9 2.7-.9.9 0 1.7.3 2.2.8.4.4.7.9.8 1.5.1.4.1 1 .1 1.8v5.1zM218.1 99.4c-.1.1-.4.3-.9.6-.7.3-1.5.5-2.4.5-1.3 0-2.4-.4-3.2-1.3-.8-.9-1.2-2-1.2-3.3 0-1.4.4-2.6 1.3-3.5.9-.9 2-1.4 3.3-1.4.8 0 1.5.2 2.1.5.4.2.7.4.9.6l-.8 1.3c-.6-.4-1.3-.6-2-.6-.8 0-1.5.3-2 .9-.5.6-.7 1.3-.7 2.1 0 .9.2 1.6.7 2.2.5.6 1.1.8 2 .8.7 0 1.4-.2 2.3-.7l.6 1.3z"/></g><g><path class="st1" d="M227.1 95.7v.7H221c0 .6.2 1.2.6 1.7.5.6 1.1.8 2 .8.7 0 1.6-.2 2.5-.7l.7 1.3c-.9.6-2 1-3.3 1-1.4 0-2.5-.4-3.2-1.3-.8-.8-1.1-1.9-1.1-3.3s.4-2.6 1.2-3.5c.8-.9 1.8-1.3 3.1-1.3 1.2 0 2.2.4 2.8 1.2.5.8.8 1.9.8 3.4zm-1.9-.8c0-.6-.1-1-.3-1.4-.3-.6-.9-.9-1.6-.9-.6 0-1.1.2-1.6.6-.4.4-.7 1-.7 1.7h4.2zM241.9 91.7c0 1.1-.3 2-1 2.7-.5.5-1.1.9-1.9 1-.5.1-1.2.1-2.3.1h-.9v4.7h-2.1V88h3.3c1 0 1.7.1 2.2.2.7.1 1.3.4 1.7.9.6.6 1 1.5 1 2.6zm-2.2 0c0-.6-.2-1.2-.6-1.5-.3-.3-1.1-.5-2.3-.5h-1.2v4.2h.9c1.3 0 2.2-.2 2.6-.6.4-.4.6-.9.6-1.6zM246 100.3h-2V87h2v13.3zM255.3 100.3h-1.8v-.7c-.9.6-1.8.8-2.6.8-.9 0-1.6-.3-2.1-.8s-.8-1.2-.8-2c0-2.1 1.7-3.1 5.1-3.1h.3v-.3c0-.6-.1-.9-.3-1.1-.3-.3-.8-.4-1.5-.4-.8 0-1.6.2-2.4.7l-.7-1.3c.2-.2.5-.4 1-.5.7-.3 1.5-.4 2.3-.4 1.2 0 2.2.3 2.8 1 .3.3.5.7.6 1.2.1.3.1.8.1 1.6v5.3zm-2-2v-2.4h-.4c-1.4 0-2.3.2-2.8.7-.2.2-.3.5-.3.9s.1.8.5 1c.3.2.7.3 1.1.3.5.1 1.2-.1 1.9-.5zM265.1 100.3h-2v-4.9c0-1.2-.1-1.9-.4-2.2-.3-.3-.7-.4-1.1-.4-.6 0-1.3.2-2 .7v6.8h-2v-9h1.8v.7c.8-.6 1.7-.9 2.7-.9.9 0 1.7.3 2.2.8.4.4.7.9.8 1.5.1.4.1 1 .1 1.8v5.1zM273.3 97.7c0 .9-.3 1.6-1 2.1-.6.5-1.5.8-2.5.8-.8 0-1.6-.1-2.3-.4-.5-.2-.8-.4-1-.5l.7-1.3c.9.5 1.7.7 2.4.7.5 0 .9-.1 1.2-.3.3-.2.4-.5.4-.8s-.2-.6-.5-.8l-1.4-.7c-.7-.3-1.2-.6-1.6-.9-.5-.5-.8-1.1-.8-1.8 0-.8.3-1.5.9-1.9.6-.5 1.4-.7 2.4-.7 1.3 0 2.2.3 2.9.8l-.7 1.3c-.7-.4-1.4-.6-2.1-.6-1 0-1.4.3-1.4 1 0 .3.2.5.5.8.2.1.6.3 1.1.6.9.4 1.5.7 1.8 1 .7.2 1 .8 1 1.6z"/></g><path class="st0" d="M66 100.4c-.9 0-1.5-.7-1.5-1.5 0-.9.7-1.5 1.5-1.5.9 0 1.5.7 1.5 1.5.1.9-.6 1.5-1.5 1.5m0-2.7c-.7 0-1.2.5-1.2 1.2 0 .6.5 1.1 1.2 1.1.6 0 1.2-.5 1.2-1.1 0-.7-.5-1.2-1.2-1.2m.4 2l-.2-.4c-.1-.3-.1-.3-.3-.3h-.1v.6h-.3V98h.4c.2 0 .4 0 .5.1.1.1.2.2.2.3 0 .2-.1.3-.3.4.1 0 .1.1.2.2l.2.6h-.3zm-.2-1.3H65.9v.4h.3c.1 0 .2-.1.2-.2-.1-.2-.2-.2-.2-.2"/><path class="st2" d="M26.8 84.9h247v17h-247z"/></svg>