<svg id="Layer_1" xmlns="http://www.w3.org/2000/svg" xmlns:xlink="http://www.w3.org/1999/xlink" viewBox="0 0 300 600"><style>.st0,.st1{clip-path:url(#SVGID_00000128471643134466442010000004240077985078907817_);fill:#231f20}.st1{fill:#00b2ee}</style><defs><path id="SVGID_1_" d="M107.6 49.3h87.2V79h-87.2z"/></defs><clipPath id="SVGID_00000027569382643669970430000012558050791136725145_"><use xlink:href="#SVGID_1_" overflow="visible"/></clipPath><path d="M108.2 65.2h4.7c3.7 0 4.4 2.4 4.4 4s-.7 4-4.4 4h-2.4v5h-2.3v-13zm2.3 6.2h2.3c1 0 2.3-.5 2.3-2.1 0-1.7-1-2.1-2.2-2.1h-2.3v4.2zM118.7 68.8h1.9v1.8c.2-1 1.5-2.1 2.8-2.1.5 0 .6 0 .8.1v2c-.3 0-.6-.1-.9-.1-1.4 0-2.6 1.1-2.6 3.2v4.5h-2.1v-9.4zM124.5 73.5c0-2.9 1.7-5 4.8-5 3 0 4.8 2.1 4.8 5s-1.7 5-4.8 5c-3.1 0-4.8-2.1-4.8-5m7.4 0c0-1.6-.8-3.3-2.7-3.3s-2.7 1.7-2.7 3.3c0 1.6.8 3.3 2.7 3.3s2.7-1.7 2.7-3.3M134.3 68.8h1.7V66h2v2.8h1.9v1.5H138v5c0 .9.1 1.3 1 1.3.3 0 .6 0 .9-.1v1.6c-.5 0-.9.1-1.3.1-2.2 0-2.6-.8-2.6-2.4v-5.6h-1.6v-1.4zM142.8 74c0 1.5.8 2.8 2.5 2.8 1.2 0 1.9-.5 2.3-1.6h2c-.5 2.1-2.2 3.2-4.3 3.2-2.9 0-4.6-2.1-4.6-5 0-2.7 1.7-5 4.6-5 3 0 4.8 2.7 4.4 5.5h-6.9zm4.8-1.3c-.1-1.3-1-2.5-2.4-2.5s-2.4 1.1-2.5 2.5h4.9zM157.5 72c-.2-1.1-1-1.8-2.1-1.8s-2.6.6-2.6 3.4c0 1.6.7 3.2 2.5 3.2 1.2 0 2-.8 2.2-2.1h2.1c-.4 2.4-1.9 3.8-4.3 3.8-2.9 0-4.6-2.1-4.6-4.9 0-2.8 1.5-5.1 4.6-5.1 2.2 0 4 1.1 4.2 3.4h-2zM160.2 68.8h1.6V66h2.1v2.8h1.9v1.5h-1.9v5c0 .9.1 1.3 1 1.3.3 0 .6 0 .9-.1v1.6c-.5 0-.9.1-1.3.1-2.2 0-2.6-.8-2.6-2.4v-5.6h-1.6v-1.4zM168.1 65.2h2.1v2h-2.1v-2zm0 3.6h2.1v9.4h-2.1v-9.4zM171.7 68.8h2.2l2.9 7.2h.1l2.8-7.2h2.2l-3.9 9.4h-2.4zM184.5 74c0 1.5.8 2.8 2.5 2.8 1.2 0 1.9-.5 2.3-1.6h2c-.5 2.1-2.2 3.2-4.3 3.2-2.9 0-4.6-2.1-4.6-5 0-2.7 1.7-5 4.6-5 3 0 4.8 2.7 4.4 5.5h-6.9zm4.8-1.3c-.1-1.3-1-2.5-2.4-2.5s-2.4 1.1-2.5 2.5h4.9z" clip-path="url(#SVGID_00000027569382643669970430000012558050791136725145_)" fill="#231f20"/><path d="M164.2 63.1c-1.4-5.2-5.5-9.2-10.6-10.5-.5-1.6-2-2.8-3.7-2.8-1.8 0-3.2 1.2-3.7 2.8-5.1 1.3-9.3 5.4-10.6 10.5l-.2.6h3.2l.1-.3c1.2-3.8 4.2-6.7 7.9-7.7.7 1.1 1.9 1.9 3.3 1.9s2.7-.8 3.3-1.9c3.7 1.1 6.7 4 7.9 7.7l.1.3h3.2l-.2-.6z" clip-path="url(#SVGID_00000027569382643669970430000012558050791136725145_)" fill="#00b2ee"/><path d="M193.5 76.6c.5 0 .9.4.9.9s-.4.9-.9.9-.9-.4-.9-.9.4-.9.9-.9m.8 1c0-.4-.3-.8-.8-.8-.4 0-.8.3-.8.8 0 .4.3.8.8.8.5-.1.8-.4.8-.8m-1.1-.6h.4c.2 0 .4.1.4.3 0 .2-.1.3-.3.3l.3.5h-.2l-.3-.5h-.2v.5h-.2V77zm.3.5c.1 0 .3 0 .3-.2 0-.1-.1-.2-.2-.2h-.2v.3h.1z" clip-path="url(#SVGID_00000027569382643669970430000012558050791136725145_)" fill="#231f20"/></svg>