<svg id="Layer_1" xmlns="http://www.w3.org/2000/svg" viewBox="0 0 300 600"><style>.st0{fill:#393}.st1{fill:#373535}</style><path class="st0" d="M27.2 174v18h10.7v4.1H22.3v-22h4.9zM57 174v4.1H45.4v4.7h10.7v3.8H45.4v5.4h11.9v4.1H40.6v-22H57zM71.5 174l8.2 22h-5l-1.7-4.9h-8.2l-1.7 4.9h-4.9l8.3-22h5zm.3 13.5l-2.8-8.1-2.9 8.1h5.7zM85 196l-7.1-22h5l4.9 15.5h.1l5-15.5h5l-7.3 22H85zM116.1 174v4.1h-11.6v4.7h10.7v3.8h-10.7v5.4h11.9v4.1H99.6v-22h16.5zM131.8 180.1v2.2h.1c.6-.9 1.3-1.6 2.2-2 .9-.4 1.8-.6 2.7-.6 1.2 0 2.1.2 2.9.5.8.3 1.3.8 1.8 1.3.4.6.7 1.3.9 2.1s.3 1.7.3 2.7v9.8h-4.4v-9c0-1.3-.2-2.3-.6-2.9s-1.1-1-2.2-1c-1.2 0-2.1.4-2.6 1.1-.5.7-.8 1.9-.8 3.5v8.3h-4.4v-15.9h4.1zM146 184.6c.4-1 .9-1.9 1.7-2.6.7-.7 1.6-1.3 2.6-1.7s2.1-.6 3.4-.6c1.3 0 2.4.2 3.4.6 1 .4 1.9 1 2.6 1.7.7.7 1.3 1.6 1.7 2.6.4 1 .6 2.2.6 3.5 0 1.3-.2 2.4-.6 3.4-.4 1-.9 1.9-1.7 2.6-.7.7-1.6 1.3-2.6 1.7-1 .4-2.2.6-3.4.6-1.3 0-2.4-.2-3.4-.6-1-.4-1.9-.9-2.6-1.7-.7-.7-1.3-1.6-1.7-2.6-.4-1-.6-2.2-.6-3.4.1-1.3.3-2.4.6-3.5zm4 5.3c.1.6.3 1.2.6 1.6.3.5.7.9 1.2 1.2s1.1.4 1.8.4 1.4-.1 1.9-.4c.5-.3.9-.7 1.2-1.2.3-.5.5-1 .6-1.6.1-.6.2-1.2.2-1.9 0-.6-.1-1.3-.2-1.9s-.3-1.2-.6-1.6c-.3-.5-.7-.9-1.2-1.2-.5-.3-1.1-.4-1.9-.4-.7 0-1.4.1-1.8.4-.5.3-.9.7-1.2 1.2-.3.5-.5 1-.6 1.6s-.2 1.2-.2 1.9.1 1.3.2 1.9zM172.1 178.1V174h18v4.1h-6.6V196h-4.8v-17.9h-6.6zM192.4 180.6c.5-1.4 1.2-2.6 2.1-3.7.9-1 2.1-1.9 3.4-2.5 1.3-.6 2.9-.9 4.5-.9 1.7 0 3.2.3 4.6.9 1.3.6 2.5 1.4 3.4 2.5.9 1 1.6 2.3 2.1 3.7.5 1.4.7 2.9.7 4.6 0 1.6-.2 3.1-.7 4.5-.5 1.4-1.2 2.6-2.1 3.6-.9 1-2.1 1.8-3.4 2.4-1.3.6-2.9.9-4.6.9-1.7 0-3.2-.3-4.5-.9-1.3-.6-2.5-1.4-3.4-2.4-.9-1-1.6-2.2-2.1-3.6s-.7-2.9-.7-4.5c0-1.7.2-3.2.7-4.6zm4.4 7.2c.2.9.6 1.7 1 2.4.5.7 1.1 1.3 1.8 1.7s1.7.6 2.8.6c1.1 0 2-.2 2.8-.6s1.4-1 1.8-1.7c.5-.7.8-1.5 1-2.4s.3-1.8.3-2.7c0-1-.1-1.9-.3-2.8-.2-.9-.6-1.7-1-2.4-.5-.7-1.1-1.3-1.8-1.7-.8-.4-1.7-.6-2.8-.6-1.1 0-2 .2-2.8.6-.8.4-1.4 1-1.8 1.7-.5.7-.8 1.5-1 2.4-.2.9-.3 1.8-.3 2.8 0 1 .1 1.8.3 2.7zM216.4 180.6c.5-1.4 1.2-2.6 2.1-3.7.9-1 2.1-1.9 3.4-2.5 1.3-.6 2.9-.9 4.5-.9 1.7 0 3.2.3 4.6.9 1.3.6 2.5 1.4 3.4 2.5.9 1 1.6 2.3 2.1 3.7.5 1.4.7 2.9.7 4.6 0 1.6-.2 3.1-.7 4.5-.5 1.4-1.2 2.6-2.1 3.6-.9 1-2.1 1.8-3.4 2.4-1.3.6-2.9.9-4.6.9-1.7 0-3.2-.3-4.5-.9-1.3-.6-2.5-1.4-3.4-2.4-.9-1-1.6-2.2-2.1-3.6s-.7-2.9-.7-4.5c-.1-1.7.2-3.2.7-4.6zm4.4 7.2c.2.9.6 1.7 1 2.4.5.7 1.1 1.3 1.8 1.7s1.7.6 2.8.6c1.1 0 2-.2 2.8-.6s1.4-1 1.8-1.7c.5-.7.8-1.5 1-2.4s.3-1.8.3-2.7c0-1-.1-1.9-.3-2.8-.2-.9-.6-1.7-1-2.4-.5-.7-1.1-1.3-1.8-1.7-.8-.4-1.7-.6-2.8-.6-1.1 0-2 .2-2.8.6-.8.4-1.4 1-1.8 1.7-.5.7-.8 1.5-1 2.4-.2.9-.3 1.8-.3 2.8 0 1 .1 1.8.3 2.7zM238.8 178.1V174h18v4.1h-6.6V196h-4.8v-17.9h-6.6zM264.2 174v8.4h8.9V174h4.8v22h-4.8v-9.5h-8.9v9.5h-4.8v-22h4.8z"/><g><path class="st1" d="M69.4 226.9c-1.7 1.4-4 2.2-6.9 2.2-3 0-5.3-.7-6.9-2.2-1.6-1.4-2.4-3.7-2.4-6.7v-13.7H58v13.7c0 .6.1 1.2.2 1.8.1.6.3 1.1.6 1.5.3.4.8.8 1.4 1.1.6.3 1.4.4 2.4.4 1.7 0 2.9-.4 3.6-1.2.7-.8 1-2 1-3.6v-13.7H72v13.7c-.1 3-.9 5.2-2.6 6.7zM80.9 206.5l9.2 14.8h.1v-14.8h4.5v22h-4.8l-9.1-14.7h-.1v14.7h-4.5v-22h4.7zM109.3 206.5c1 0 2 .1 2.9.3.9.2 1.6.5 2.2.9.6.4 1.1 1 1.4 1.7.3.7.5 1.6.5 2.6 0 1.1-.3 2-.8 2.8-.5.7-1.2 1.3-2.2 1.8 1.4.4 2.4 1.1 3 2 .7 1 1 2.2 1 3.5 0 1.1-.2 2.1-.6 2.9s-1 1.5-1.7 2-1.6.9-2.5 1.1c-.9.2-1.9.4-2.9.4H98.9v-22h10.4zm-.7 8.9c.9 0 1.6-.2 2.1-.6.6-.4.8-1.1.8-2 0-.5-.1-.9-.3-1.3-.2-.3-.4-.6-.7-.8-.3-.2-.7-.3-1.1-.4-.4-.1-.8-.1-1.2-.1h-4.5v5.1h4.9zm.3 9.4c.5 0 .9 0 1.4-.1.4-.1.8-.2 1.1-.5.3-.2.6-.5.8-.9.2-.4.3-.8.3-1.4 0-1.1-.3-1.9-1-2.4-.6-.5-1.5-.7-2.5-.7h-5.3v6h5.2zM132.4 206.5c1 0 1.9.2 2.7.5.8.3 1.5.8 2 1.3.6.6 1 1.2 1.3 1.9.3.7.4 1.5.4 2.4 0 1.3-.3 2.4-.8 3.4-.5.9-1.4 1.7-2.7 2.2v.1c.6.2 1.1.4 1.5.8.4.3.7.7 1 1.2.2.5.4 1 .5 1.5.1.6.2 1.1.2 1.7 0 .3 0 .8.1 1.2 0 .5.1 1 .1 1.4.1.5.1 1 .2 1.4.1.4.3.8.5 1.1h-4.8c-.3-.7-.4-1.5-.5-2.5-.1-1-.2-1.9-.3-2.8-.2-1.1-.5-2-1-2.5s-1.4-.8-2.6-.8h-4.8v8.6h-4.8v-22h11.8zm-1.7 10c1.1 0 1.9-.2 2.5-.7.6-.5.8-1.3.8-2.4 0-1.1-.3-1.8-.8-2.3-.6-.5-1.4-.7-2.5-.7h-5.3v6.2h5.3zM159 226.9c-1.7 1.4-4 2.2-6.9 2.2-3 0-5.3-.7-6.9-2.2-1.6-1.4-2.4-3.7-2.4-6.7v-13.7h4.8v13.7c0 .6.1 1.2.2 1.8.1.6.3 1.1.6 1.5s.8.8 1.4 1.1c.6.3 1.4.4 2.4.4 1.7 0 2.9-.4 3.6-1.2s1-2 1-3.6v-13.7h4.8v13.7c-.1 3-.9 5.2-2.6 6.7zM169.3 223.1c.3.5.6.9 1.1 1.2s1 .6 1.6.7c.6.2 1.2.2 1.8.2.4 0 .9 0 1.4-.1.5-.1 1-.2 1.4-.4.4-.2.8-.5 1.1-.8.3-.4.4-.8.4-1.4 0-.6-.2-1.1-.6-1.4-.4-.4-.9-.7-1.5-.9-.6-.2-1.3-.5-2.1-.6l-2.4-.6c-.8-.2-1.6-.5-2.4-.8-.8-.3-1.5-.7-2.1-1.2-.6-.5-1.1-1.1-1.5-1.8-.4-.7-.6-1.6-.6-2.6 0-1.1.2-2.1.7-2.9s1.1-1.5 1.9-2.1c.8-.6 1.7-1 2.6-1.2 1-.3 2-.4 3-.4 1.1 0 2.3.1 3.3.4 1.1.3 2 .7 2.8 1.2.8.6 1.5 1.3 2 2.2s.7 2 .7 3.2h-4.7c0-.7-.2-1.2-.4-1.6-.2-.4-.5-.8-.9-1-.4-.2-.8-.4-1.3-.5-.5-.1-1.1-.2-1.6-.2-.4 0-.8 0-1.2.1-.4.1-.7.2-1.1.4-.3.2-.6.5-.8.8-.2.3-.3.7-.3 1.2 0 .4.1.8.2 1 .2.3.5.5 1 .7.5.2 1.1.5 2 .7.9.2 2 .5 3.3.9.4.1 1 .2 1.7.4s1.5.6 2.2 1c.7.5 1.3 1.1 1.9 1.9.5.8.8 1.8.8 3 0 1-.2 1.9-.6 2.8-.4.9-1 1.6-1.7 2.2-.8.6-1.7 1.1-2.9 1.5-1.1.3-2.5.5-4 .5-1.2 0-2.4-.1-3.5-.4s-2.1-.8-3-1.4c-.9-.6-1.6-1.4-2.1-2.4s-.8-2.2-.7-3.5h4.7c0 .9.2 1.5.4 2zM190.5 206.5v8.4h8.9v-8.4h4.8v22h-4.8V219h-8.9v9.5h-4.8v-22h4.8zM224.9 206.5v4.1h-11.6v4.7H224v3.8h-10.7v5.4h11.9v4.1h-16.7v-22h16.4zM237.9 206.5c1.4 0 2.7.2 4 .7s2.3 1.1 3.2 2c.9.9 1.6 2 2.1 3.4s.8 2.9.8 4.8c0 1.6-.2 3.1-.6 4.4s-1 2.5-1.9 3.5c-.8 1-1.9 1.8-3.1 2.3-1.2.6-2.7.8-4.4.8h-9.5v-22h9.4zm-.3 18c.7 0 1.4-.1 2-.3.7-.2 1.2-.6 1.8-1.1.5-.5.9-1.2 1.2-2 .3-.8.5-1.9.5-3.1 0-1.1-.1-2.1-.3-3-.2-.9-.6-1.7-1.1-2.3-.5-.6-1.1-1.1-2-1.5s-1.8-.5-3-.5h-3.4v13.9h4.3z"/></g></svg>