<svg id="Layer_1" xmlns="http://www.w3.org/2000/svg" viewBox="0 0 300 600"><style>.st0{fill:#373535}</style><path class="st0" d="M55.6 174l8.2 22h-5l-1.7-4.9h-8.2l-1.7 4.9h-4.9l8.3-22h5zm.2 13.5l-2.8-8.1-2.9 8.1h5.7zM69.1 180.1v2.2h.1c.6-.9 1.3-1.6 2.2-2 .9-.4 1.8-.6 2.7-.6 1.2 0 2.1.2 2.9.5.7.3 1.3.8 1.8 1.3.4.6.7 1.3.9 2.1.2.8.3 1.7.3 2.7v9.8h-4.4v-9c0-1.3-.2-2.3-.6-2.9-.4-.6-1.1-1-2.2-1-1.2 0-2.1.4-2.6 1.1-.5.7-.8 1.9-.8 3.5v8.3H65v-15.9h4.1zM94.2 194c-.5.9-1.2 1.5-2 1.9s-1.8.6-2.8.6c-1.2 0-2.2-.2-3.1-.7-.9-.5-1.6-1.1-2.2-1.9-.6-.8-1-1.7-1.3-2.7-.3-1-.4-2.1-.4-3.2s.1-2.1.4-3.1c.3-1 .7-1.9 1.3-2.6.6-.8 1.3-1.4 2.2-1.8.9-.5 1.9-.7 3.1-.7.9 0 1.8.2 2.7.6.9.4 1.5 1 2 1.8h.1v-8h4.4v22h-4.2l-.2-2.2zm-.1-7.9c-.1-.6-.3-1.1-.6-1.6s-.7-.8-1.2-1.1c-.5-.3-1.1-.4-1.8-.4s-1.3.1-1.8.4-.9.7-1.2 1.1c-.3.5-.5 1-.6 1.6-.1.6-.2 1.2-.2 1.9 0 .6.1 1.2.2 1.8.1.6.4 1.2.7 1.6.3.5.7.9 1.2 1.2.5.3 1.1.4 1.7.4.7 0 1.3-.1 1.8-.4.5-.3.9-.7 1.2-1.2.3-.5.5-1 .6-1.6.1-.6.2-1.3.2-1.9s-.1-1.2-.2-1.8zM124.8 197.2c-.2.8-.5 1.6-1.1 2.3-.6.7-1.4 1.3-2.5 1.8s-2.5.7-4.4.7c-.8 0-1.6-.1-2.4-.3-.8-.2-1.6-.5-2.2-.9-.7-.4-1.2-.9-1.7-1.6-.4-.6-.7-1.4-.8-2.3h4.3c.2.8.6 1.4 1.2 1.7s1.3.5 2.1.5c1.2 0 2.1-.4 2.7-1.1.6-.7.8-1.7.8-2.8v-2.1h-.1c-.5.8-1.1 1.5-2 1.9-.9.4-1.8.6-2.8.6-1.2 0-2.2-.2-3.1-.6-.9-.4-1.6-1-2.1-1.7-.6-.7-1-1.6-1.2-2.6-.3-1-.4-2-.4-3.1 0-1 .1-2 .4-3 .3-1 .7-1.8 1.3-2.5.6-.7 1.3-1.3 2.1-1.7s1.8-.6 2.9-.6c1 0 2 .2 2.8.6.8.4 1.5 1 2 2h.1v-2.1h4.2V195c.2.6.1 1.4-.1 2.2zm-6-5.3c.5-.2.9-.6 1.2-1 .3-.4.5-.9.7-1.4.2-.5.2-1.1.2-1.6 0-.7-.1-1.3-.2-1.9-.1-.6-.3-1.1-.6-1.6s-.7-.8-1.1-1.1c-.5-.3-1.1-.4-1.8-.4-.6 0-1.1.1-1.6.4-.4.2-.8.6-1.1 1-.3.4-.5.9-.6 1.4-.1.5-.2 1.1-.2 1.7 0 .6.1 1.1.2 1.7.1.6.3 1.1.6 1.5.3.5.6.8 1.1 1.1.5.3 1 .4 1.7.4.5.2 1 0 1.5-.2zM133 192.2c.7.6 1.6 1 2.8 1 .9 0 1.6-.2 2.3-.7.6-.4 1-.9 1.2-1.4h3.8c-.6 1.9-1.6 3.3-2.8 4.1s-2.8 1.2-4.6 1.2c-1.3 0-2.4-.2-3.4-.6-1-.4-1.9-1-2.6-1.7-.7-.7-1.2-1.6-1.6-2.6-.4-1-.6-2.2-.6-3.4 0-1.2.2-2.3.6-3.3.4-1 .9-1.9 1.7-2.7.7-.7 1.6-1.3 2.6-1.8 1-.4 2.1-.6 3.3-.6 1.4 0 2.5.3 3.5.8s1.8 1.2 2.5 2.1c.6.9 1.1 1.9 1.4 3 .3 1.1.4 2.3.3 3.5h-11.5c0 1.4.4 2.5 1.1 3.1zm4.9-8.4c-.5-.6-1.3-.9-2.4-.9-.7 0-1.3.1-1.7.4-.5.2-.8.5-1.1.9s-.5.7-.6 1.1-.2.7-.2 1h7.1c-.2-1.1-.6-1.9-1.1-2.5zM154.4 180.1v2.9h-3.2v7.9c0 .7.1 1.2.4 1.5.2.2.7.4 1.5.4h.7c.2 0 .4-.1.6-.1v3.4c-.4.1-.8.1-1.2.1h-1.3c-.7 0-1.3 0-1.9-.1-.6-.1-1.1-.3-1.6-.5-.5-.3-.8-.6-1.1-1.1-.3-.5-.4-1.1-.4-1.9V183h-2.6v-2.9h2.6v-4.8h4.4v4.8h3.1zM175.6 201.6V194h-.1c-.5.9-1.2 1.5-2.2 1.8-.9.4-1.9.6-2.9.6-.7 0-1.5-.1-2.3-.4-.8-.3-1.5-.7-2.2-1.4s-1.2-1.5-1.6-2.6c-.4-1.1-.6-2.4-.6-3.9 0-1.1.1-2.1.4-3.2.3-1 .7-1.9 1.3-2.7.6-.8 1.3-1.4 2.2-1.9.9-.5 1.9-.7 3.2-.7 1 0 1.9.2 2.8.6.9.4 1.6 1 2 1.9h.1v-2h4.2v21.5h-4.3zm-7.2-11.7c.1.6.3 1.2.6 1.6.3.5.7.9 1.2 1.2s1.1.4 1.8.4 1.3-.1 1.8-.4.9-.6 1.2-1.1c.3-.5.5-1 .6-1.6.1-.6.2-1.2.2-1.9 0-.6-.1-1.2-.2-1.8-.1-.6-.3-1.2-.6-1.7s-.7-.9-1.2-1.2c-.5-.3-1.1-.5-1.7-.5-.7 0-1.3.1-1.8.4s-.9.7-1.2 1.2c-.3.5-.5 1-.7 1.6-.1.6-.2 1.2-.2 1.9s.1 1.3.2 1.9zM193.8 196v-2.2h-.1c-.6.9-1.3 1.6-2.2 2-.9.4-1.8.6-2.7.6-1.2 0-2.1-.2-2.9-.5-.8-.3-1.3-.7-1.8-1.3-.4-.6-.7-1.3-.9-2.1s-.3-1.7-.3-2.7V180h4.4v9c0 1.3.2 2.3.6 2.9.4.6 1.1 1 2.2 1 1.2 0 2.1-.4 2.6-1.1s.8-1.9.8-3.5V180h4.4v16h-4.1zM200.8 185c.1-1 .3-1.9.8-2.6.5-.7 1-1.2 1.7-1.6.7-.4 1.5-.7 2.4-.9s1.8-.3 2.6-.3 1.6.1 2.4.2c.8.1 1.6.3 2.2.7.7.3 1.2.8 1.7 1.4.4.6.6 1.4.6 2.3v8.3c0 .7 0 1.4.1 2.1.1.7.2 1.2.4 1.5h-4.4c-.1-.2-.1-.5-.2-.8-.1-.3-.1-.5-.1-.8-.7.7-1.5 1.2-2.5 1.5-.9.3-1.9.4-2.9.4-.8 0-1.5-.1-2.1-.3-.7-.2-1.2-.5-1.7-.9s-.9-.9-1.2-1.5c-.3-.6-.4-1.3-.4-2.1 0-.9.2-1.6.5-2.2.3-.6.7-1.1 1.2-1.4.5-.3 1.1-.6 1.7-.8.6-.2 1.3-.3 2-.4.7-.1 1.3-.2 1.9-.2.6-.1 1.2-.2 1.7-.3.5-.1.9-.3 1.2-.5.3-.2.4-.6.4-1 0-.5-.1-.8-.2-1.1s-.4-.5-.6-.6c-.3-.2-.6-.3-.9-.3s-.7-.1-1.1-.1c-.9 0-1.5.2-2 .6-.5.4-.8 1-.9 1.8h-4.3zm10.1 3.2c-.2.2-.4.3-.7.4-.3.1-.6.2-.9.2s-.7.1-1 .2c-.3 0-.7.1-1 .2-.3.1-.7.1-1 .2-.3.1-.6.2-.8.4s-.4.4-.6.7c-.1.3-.2.6-.2 1s.1.7.2 1c.1.3.3.5.6.6s.5.3.9.3c.3.1.7.1 1 .1.9 0 1.5-.1 2-.4.5-.3.8-.6 1-1 .2-.4.4-.8.4-1.2.1-.4.1-.7.1-1v-1.7zM222.9 174v22h-4.4v-22h4.4zM226.2 177.6V174h4.4v3.6h-4.4zm4.3 2.5V196h-4.4v-15.9h4.4zM242.4 180.1v2.9h-3.2v7.9c0 .7.1 1.2.4 1.5.2.2.7.4 1.5.4h.7c.2 0 .4-.1.6-.1v3.4c-.4.1-.8.1-1.2.1h-1.3c-.7 0-1.3 0-1.9-.1-.6-.1-1.1-.3-1.6-.5-.5-.3-.8-.6-1.1-1.1-.3-.5-.4-1.1-.4-1.9V183h-2.6v-2.9h2.6v-4.8h4.4v4.8h3.1zM250.1 200.8c-.8.6-2 .8-3.5.8h-1.3c-.4 0-.9-.1-1.3-.1v-3.6c.4 0 .8.1 1.3.1.4 0 .9.1 1.3 0 .6-.1 1-.3 1.3-.7.3-.4.4-.8.4-1.3 0-.3-.1-.7-.2-1l-5.6-14.9h4.7l3.6 10.9h.1l3.5-10.9h4.5l-6.7 17.9c-.6 1.3-1.2 2.2-2.1 2.8z"/><g><path class="st0" d="M49.1 214.9c-.7 0-1.3.2-1.8.5s-.9.7-1.2 1.2c-.3.5-.5 1.1-.6 1.7-.1.6-.2 1.2-.2 1.8 0 .6.1 1.2.2 1.8.1.6.3 1.1.6 1.6s.7.9 1.1 1.2c.5.3 1 .5 1.7.5 1 0 1.9-.3 2.4-.9.6-.6.9-1.4 1.1-2.4h4.2c-.3 2.1-1.1 3.7-2.5 4.8-1.4 1.1-3.1 1.7-5.2 1.7-1.2 0-2.3-.2-3.3-.6-1-.4-1.8-1-2.5-1.7s-1.2-1.6-1.6-2.6c-.4-1-.6-2.1-.6-3.3 0-1.2.2-2.4.5-3.4.4-1.1.9-2 1.6-2.7s1.6-1.4 2.6-1.8c1-.4 2.2-.6 3.4-.6.9 0 1.9.1 2.7.4.9.2 1.7.6 2.3 1.1.7.5 1.2 1.1 1.7 1.9.4.8.7 1.6.7 2.7h-4.3c0-2-1.1-2.9-3-2.9zM59 216.5c.4-1 .9-1.9 1.7-2.6.7-.7 1.6-1.3 2.6-1.7 1-.4 2.1-.6 3.4-.6 1.3 0 2.4.2 3.4.6s1.9 1 2.6 1.7c.7.7 1.3 1.6 1.7 2.6.4 1 .6 2.2.6 3.5 0 1.3-.2 2.4-.6 3.4s-.9 1.9-1.7 2.6c-.7.7-1.6 1.3-2.6 1.7-1 .4-2.2.6-3.4.6-1.3 0-2.4-.2-3.4-.6-1-.4-1.9-.9-2.6-1.7-.7-.7-1.3-1.6-1.7-2.6s-.6-2.2-.6-3.4c0-1.3.2-2.4.6-3.5zm4 5.3c.1.6.3 1.2.6 1.6.3.5.7.9 1.2 1.2s1.1.4 1.8.4 1.4-.1 1.9-.4c.5-.3.9-.7 1.2-1.2.3-.5.5-1 .6-1.6.1-.6.2-1.2.2-1.9 0-.6-.1-1.3-.2-1.9-.1-.6-.3-1.2-.6-1.6-.3-.5-.7-.9-1.2-1.2-.5-.3-1.1-.4-1.9-.4s-1.4.1-1.8.4c-.5.3-.9.7-1.2 1.2-.3.5-.5 1-.6 1.6-.1.6-.2 1.2-.2 1.9s.1 1.3.2 1.9zM81.4 227.9L75.9 212h4.6l3.4 10.9h.1l3.4-10.9h4.3l-5.4 15.9h-4.9zM97.9 224.1c.7.6 1.6 1 2.8 1 .9 0 1.6-.2 2.3-.7.6-.4 1-.9 1.2-1.4h3.9c-.6 1.9-1.6 3.3-2.8 4.1-1.3.8-2.8 1.2-4.6 1.2-1.3 0-2.4-.2-3.4-.6-1-.4-1.9-1-2.6-1.7-.7-.7-1.2-1.6-1.6-2.6-.4-1-.6-2.2-.6-3.4 0-1.2.2-2.3.6-3.3.4-1 .9-1.9 1.7-2.7.7-.7 1.6-1.3 2.6-1.8 1-.4 2.1-.6 3.3-.6 1.4 0 2.5.3 3.5.8s1.8 1.2 2.5 2.1c.6.9 1.1 1.9 1.4 3 .3 1.1.4 2.3.3 3.5H96.8c.1 1.4.4 2.5 1.1 3.1zm4.9-8.4c-.5-.6-1.3-.9-2.4-.9-.7 0-1.3.1-1.7.4-.5.2-.8.5-1.1.9s-.5.7-.6 1.1-.2.7-.2 1h7.1c-.2-1.1-.6-1.9-1.1-2.5zM114.8 212v3h.1c.2-.5.5-.9.8-1.4.3-.4.7-.8 1.2-1.1.5-.3.9-.5 1.4-.7.5-.2 1-.2 1.6-.2.3 0 .6.1 1 .2v4.1c-.2 0-.5-.1-.7-.1h-.8c-.8 0-1.5.1-2 .4-.6.3-1 .6-1.3 1.1s-.6 1-.7 1.6c-.1.6-.2 1.3-.2 2v7.2h-4.4V212h4zM122.1 216.9c.1-1 .3-1.9.8-2.6.5-.7 1-1.2 1.7-1.6.7-.4 1.5-.7 2.4-.9.9-.2 1.8-.3 2.6-.3s1.6.1 2.4.2c.8.1 1.6.3 2.2.7.7.3 1.2.8 1.7 1.4.4.6.6 1.4.6 2.3v8.3c0 .7 0 1.4.1 2.1.1.7.2 1.2.4 1.5h-4.4c-.1-.2-.1-.5-.2-.8-.1-.3-.1-.5-.1-.8-.7.7-1.5 1.2-2.5 1.5-.9.3-1.9.4-2.9.4-.8 0-1.5-.1-2.1-.3-.7-.2-1.2-.5-1.7-.9s-.9-.9-1.2-1.5c-.3-.6-.4-1.3-.4-2.1 0-.9.2-1.6.5-2.2.3-.6.7-1.1 1.2-1.4.5-.3 1.1-.6 1.7-.8.6-.2 1.3-.3 2-.4.7-.1 1.3-.2 1.9-.2.6-.1 1.2-.2 1.7-.3.5-.1.9-.3 1.2-.5.3-.2.4-.6.4-1 0-.5-.1-.8-.2-1.1-.2-.3-.4-.5-.6-.6-.3-.2-.6-.3-.9-.3-.3-.1-.7-.1-1.1-.1-.9 0-1.5.2-2 .6s-.8 1-.9 1.8h-4.3zm10.1 3.2c-.2.2-.4.3-.7.4-.3.1-.6.2-.9.2-.3.1-.7.1-1 .2-.3 0-.7.1-1 .2-.3.1-.7.1-1 .2-.3.1-.6.2-.8.4-.2.2-.4.4-.6.7-.1.3-.2.6-.2 1s.1.7.2 1c.1.3.3.5.6.6.2.2.5.3.9.3.3.1.7.1 1 .1.9 0 1.5-.1 2-.4.5-.3.8-.6 1-1 .2-.4.4-.8.4-1.2.1-.4.1-.7.1-1v-1.7zM154.7 229.1c-.2.8-.5 1.6-1.1 2.3-.6.7-1.4 1.3-2.5 1.8s-2.5.7-4.4.7c-.8 0-1.6-.1-2.4-.3-.8-.2-1.6-.5-2.2-.9-.7-.4-1.2-.9-1.7-1.6-.4-.6-.7-1.4-.8-2.3h4.3c.2.8.6 1.4 1.2 1.7s1.3.5 2.1.5c1.2 0 2.1-.4 2.7-1.1.6-.7.8-1.7.8-2.8V225h-.1c-.5.8-1.1 1.5-2 1.9s-1.8.6-2.8.6c-1.2 0-2.2-.2-3.1-.6-.9-.4-1.6-1-2.1-1.7-.6-.7-1-1.6-1.2-2.6-.3-1-.4-2-.4-3.1 0-1 .1-2 .4-3 .3-1 .7-1.8 1.3-2.5.6-.7 1.3-1.3 2.1-1.7s1.8-.6 2.9-.6c1 0 2 .2 2.8.6.8.4 1.5 1 2 2h.1V212h4.2v14.9c.2.6.1 1.4-.1 2.2zm-5.9-5.3c.5-.2.9-.6 1.2-1 .3-.4.5-.9.7-1.4s.2-1.1.2-1.6c0-.7-.1-1.3-.2-1.9-.1-.6-.3-1.1-.6-1.6s-.7-.8-1.1-1.1c-.5-.3-1.1-.4-1.8-.4-.6 0-1.1.1-1.6.4-.4.2-.8.6-1.1 1-.3.4-.5.9-.6 1.4-.1.5-.2 1.1-.2 1.7 0 .6.1 1.1.2 1.7.1.6.3 1.1.6 1.5s.6.8 1.1 1.1c.5.3 1 .4 1.7.4.4.2 1 0 1.5-.2zM162.9 224.1c.7.6 1.6 1 2.8 1 .9 0 1.6-.2 2.3-.7.6-.4 1-.9 1.2-1.4h3.8c-.6 1.9-1.6 3.3-2.8 4.1-1.3.8-2.8 1.2-4.6 1.2-1.3 0-2.4-.2-3.4-.6-1-.4-1.9-1-2.6-1.7-.7-.7-1.2-1.6-1.6-2.6-.4-1-.6-2.2-.6-3.4 0-1.2.2-2.3.6-3.3.4-1 .9-1.9 1.7-2.7.7-.7 1.6-1.3 2.6-1.8 1-.4 2.1-.6 3.3-.6 1.4 0 2.5.3 3.5.8s1.8 1.2 2.5 2.1 1.1 1.9 1.4 3c.3 1.1.4 2.3.3 3.5h-11.5c.1 1.4.5 2.5 1.1 3.1zm5-8.4c-.5-.6-1.3-.9-2.4-.9-.7 0-1.3.1-1.7.4-.5.2-.8.5-1.1.9-.3.3-.5.7-.6 1.1s-.2.7-.2 1h7.1c-.2-1.1-.6-1.9-1.1-2.5zM192.6 212v2.9h-3.2v7.9c0 .7.1 1.2.4 1.5.2.2.7.4 1.5.4h.7c.2 0 .4-.1.6-.1v3.4c-.4.1-.8.1-1.2.1h-1.3c-.7 0-1.3 0-1.9-.1-.6-.1-1.1-.3-1.6-.5-.5-.3-.8-.6-1.1-1.1-.3-.5-.4-1.1-.4-1.9v-9.4h-2.6V212h2.6v-4.8h4.4v4.8h3.1zM198.8 205.9v8.3h.1c.6-.9 1.3-1.6 2.1-2 .9-.4 1.7-.6 2.5-.6 1.2 0 2.1.2 2.9.5.7.3 1.3.8 1.8 1.3.4.6.7 1.3.9 2.1.2.8.3 1.7.3 2.7v9.8H205v-9c0-1.3-.2-2.3-.6-2.9s-1.1-1-2.2-1c-1.2 0-2.1.4-2.6 1.1-.5.7-.8 1.9-.8 3.5v8.3h-4.4v-22h4.4zM212.3 216.9c.1-1 .3-1.9.8-2.6.5-.7 1-1.2 1.7-1.6.7-.4 1.5-.7 2.4-.9s1.8-.3 2.6-.3 1.6.1 2.4.2c.8.1 1.6.3 2.2.7.7.3 1.2.8 1.7 1.4.4.6.6 1.4.6 2.3v8.3c0 .7 0 1.4.1 2.1.1.7.2 1.2.4 1.5h-4.4c-.1-.2-.1-.5-.2-.8-.1-.3-.1-.5-.1-.8-.7.7-1.5 1.2-2.5 1.5-.9.3-1.9.4-2.9.4-.8 0-1.5-.1-2.1-.3-.7-.2-1.2-.5-1.7-.9s-.9-.9-1.2-1.5c-.3-.6-.4-1.3-.4-2.1 0-.9.2-1.6.5-2.2.3-.6.7-1.1 1.2-1.4.5-.3 1.1-.6 1.7-.8.6-.2 1.3-.3 2-.4.7-.1 1.3-.2 1.9-.2.6-.1 1.2-.2 1.7-.3.5-.1.9-.3 1.2-.5.3-.2.4-.6.4-1 0-.5-.1-.8-.2-1.1s-.4-.5-.6-.6c-.3-.2-.6-.3-.9-.3s-.7-.1-1.1-.1c-.9 0-1.5.2-2 .6-.5.4-.8 1-.9 1.8h-4.3zm10.1 3.2c-.2.2-.4.3-.7.4-.3.1-.6.2-.9.2s-.7.1-1 .2c-.3 0-.7.1-1 .2-.3.1-.7.1-1 .2-.3.1-.6.2-.8.4s-.4.4-.6.7c-.1.3-.2.6-.2 1s.1.7.2 1c.1.3.3.5.6.6s.5.3.9.3c.3.1.7.1 1 .1.9 0 1.5-.1 2-.4.5-.3.8-.6 1-1 .2-.4.4-.8.4-1.2.1-.4.1-.7.1-1v-1.7zM238.6 212v2.9h-3.2v7.9c0 .7.1 1.2.4 1.5.2.2.7.4 1.5.4h.7c.2 0 .4-.1.6-.1v3.4c-.4.1-.8.1-1.2.1h-1.3c-.7 0-1.3 0-1.9-.1-.6-.1-1.1-.3-1.6-.5-.5-.3-.8-.6-1.1-1.1-.3-.5-.4-1.1-.4-1.9v-9.4h-2.6V212h2.6v-4.8h4.4v4.8h3.1zM245.2 205.9v4.7c0 .7-.1 1.3-.3 1.9-.2.6-.5 1.1-.9 1.6s-.9.8-1.4 1.1c-.5.3-1.1.5-1.8.6v-2c.8-.3 1.3-.7 1.6-1.2.3-.5.4-1.2.4-1.9h-2V206h4.4zM250.1 224c.2.3.4.6.8.8.3.2.7.4 1.1.5.4.1.8.2 1.2.2.3 0 .6 0 1-.1l.9-.3c.3-.1.5-.4.7-.6.2-.3.3-.6.3-1 0-.7-.4-1.1-1.3-1.5-.9-.3-2.1-.7-3.6-1-.6-.1-1.3-.3-1.9-.5-.6-.2-1.1-.5-1.6-.8-.5-.3-.9-.7-1.1-1.2-.3-.5-.4-1.1-.4-1.8 0-1 .2-1.9.6-2.5.4-.7.9-1.2 1.6-1.6.7-.4 1.4-.6 2.2-.8.8-.2 1.7-.2 2.5-.2.9 0 1.7.1 2.5.2.8.2 1.5.4 2.2.8.6.4 1.2.9 1.6 1.6.4.6.7 1.5.8 2.4H256c-.1-.8-.4-1.4-1-1.7-.6-.3-1.3-.4-2-.4h-.8c-.3 0-.5.1-.8.2-.2.1-.4.3-.6.4-.2.2-.2.5-.2.8 0 .4.1.7.4 1s.7.4 1.1.6 1 .3 1.6.4c.6.1 1.2.3 1.8.4.6.1 1.3.3 1.9.5.6.2 1.1.5 1.6.8.5.3.9.8 1.1 1.3.3.5.4 1.1.4 1.9 0 1-.2 1.9-.6 2.6s-1 1.3-1.6 1.7-1.5.7-2.3.9c-.9.2-1.8.3-2.7.3-.9 0-1.8-.1-2.7-.3-.9-.2-1.7-.5-2.4-.9s-1.3-1-1.7-1.7c-.4-.7-.7-1.6-.7-2.7h4.2c-.2.5-.1.9.1 1.3z"/></g><path class="st0" d="M40.7 248.8c.1-1 .3-1.9.8-2.6.5-.7 1-1.2 1.7-1.6.7-.4 1.5-.7 2.4-.9.9-.2 1.8-.3 2.6-.3s1.6.1 2.4.2c.8.1 1.6.3 2.2.7.7.3 1.2.8 1.7 1.4.4.6.6 1.4.6 2.3v8.3c0 .7 0 1.4.1 2.1.1.7.2 1.2.4 1.5h-4.4c-.1-.2-.1-.5-.2-.8-.1-.3-.1-.5-.1-.8-.7.7-1.5 1.2-2.5 1.5-.9.3-1.9.4-2.9.4-.8 0-1.5-.1-2.1-.3-.7-.2-1.2-.5-1.7-.9s-.9-.9-1.2-1.5c-.3-.6-.4-1.3-.4-2.1 0-.9.2-1.6.5-2.2.3-.6.7-1.1 1.2-1.4.5-.3 1.1-.6 1.7-.8.6-.2 1.3-.3 2-.4.7-.1 1.3-.2 1.9-.2.6-.1 1.2-.2 1.7-.3.5-.1.9-.3 1.2-.5.3-.2.4-.6.4-1 0-.5-.1-.8-.2-1.1s-.4-.5-.6-.6c-.3-.2-.6-.3-.9-.3-.3-.1-.7-.1-1.1-.1-.9 0-1.5.2-2 .6-.5.4-.8 1-.9 1.8h-4.3zm10.1 3.2c-.2.2-.4.3-.7.4-.3.1-.6.2-.9.2-.3.1-.7.1-1 .2-.3 0-.7.1-1 .2-.3.1-.7.1-1 .2-.3.1-.6.2-.8.4-.2.2-.4.4-.6.7-.1.3-.2.6-.2 1s.1.7.2 1c.1.3.3.5.6.6.2.2.5.3.9.3.3.1.7.1 1 .1.9 0 1.5-.1 2-.4.5-.3.8-.6 1-1 .2-.4.4-.8.4-1.2.1-.4.1-.7.1-1V252zm7.6-14.2v22h4.4v-22h-4.4zm10.9 16.9h-4.2c0 1.1.3 2 .7 2.7.4.7 1 1.3 1.7 1.7.7.4 1.5.7 2.4.9.9.2 1.8.3 2.7.3.9 0 1.8-.1 2.7-.3.9-.2 1.6-.5 2.3-.9.7-.4 1.2-1 1.6-1.7.4-.7.6-1.6.6-2.6 0-.7-.1-1.4-.4-1.9-.3-.5-.7-.9-1.1-1.3-.5-.3-1-.6-1.6-.8-.6-.2-1.2-.4-1.9-.5-.6-.1-1.2-.3-1.8-.4-.6-.1-1.1-.3-1.6-.4-.5-.2-.8-.4-1.1-.6-.3-.2-.4-.6-.4-1 0-.3.1-.6.2-.8.2-.2.4-.3.6-.4.2-.1.5-.2.8-.2h.8c.8 0 1.5.1 2 .4.6.3.9.9 1 1.7h4.2c-.1-1-.3-1.8-.8-2.4-.4-.6-.9-1.2-1.6-1.6-.6-.4-1.4-.7-2.2-.8-.8-.2-1.6-.2-2.5-.2-.9 0-1.7.1-2.5.2-.8.2-1.6.4-2.2.8-.7.4-1.2.9-1.6 1.6-.4.7-.6 1.5-.6 2.5 0 .7.1 1.3.4 1.8.3.5.7.9 1.1 1.2.5.3 1 .6 1.6.8.6.2 1.2.4 1.9.5 1.6.3 2.8.7 3.6 1 .9.3 1.3.8 1.3 1.5 0 .4-.1.7-.3 1-.2.3-.4.5-.7.6-.3.2-.6.3-.9.3-.3.1-.7.1-1 .1-.4 0-.8-.1-1.2-.2-.4-.1-.8-.3-1.1-.5-.3-.2-.6-.5-.8-.8 0-.5-.1-.9-.1-1.3zm12.4-2.8c0 1.3.2 2.4.6 3.4.4 1 .9 1.9 1.7 2.6.7.7 1.6 1.3 2.6 1.7 1 .4 2.1.6 3.4.6 1.3 0 2.4-.2 3.4-.6 1-.4 1.9-.9 2.6-1.7.7-.7 1.3-1.6 1.7-2.6.4-1 .6-2.2.6-3.4 0-1.3-.2-2.4-.6-3.5-.4-1-.9-1.9-1.7-2.6-.7-.7-1.6-1.3-2.6-1.7-1-.4-2.2-.6-3.4-.6-1.3 0-2.4.2-3.4.6-1 .4-1.9 1-2.6 1.7-.7.7-1.3 1.6-1.7 2.6-.4 1.1-.6 2.2-.6 3.5zm4.3 0c0-.6.1-1.3.2-1.9s.3-1.2.6-1.6c.3-.5.7-.9 1.2-1.2.5-.3 1.1-.4 1.8-.4s1.4.1 1.9.4c.5.3.9.7 1.2 1.2.3.5.5 1 .6 1.6s.2 1.2.2 1.9c0 .6-.1 1.3-.2 1.9-.1.6-.3 1.2-.6 1.6-.3.5-.7.9-1.2 1.2-.5.3-1.1.4-1.9.4-.7 0-1.4-.1-1.8-.4-.5-.3-.9-.7-1.2-1.2-.3-.5-.5-1-.6-1.6-.1-.7-.2-1.3-.2-1.9zm22.7-3.1c.1-1 .3-1.9.8-2.6.5-.7 1-1.2 1.7-1.6.7-.4 1.5-.7 2.4-.9.9-.2 1.8-.3 2.6-.3s1.6.1 2.4.2c.8.1 1.6.3 2.2.7.7.3 1.2.8 1.7 1.4.4.6.6 1.4.6 2.3v8.3c0 .7 0 1.4.1 2.1.1.7.2 1.2.4 1.5h-4.4c-.1-.2-.1-.5-.2-.8-.1-.3-.1-.5-.1-.8-.7.7-1.5 1.2-2.5 1.5-.9.3-1.9.4-2.9.4-.8 0-1.5-.1-2.1-.3-.7-.2-1.2-.5-1.7-.9s-.9-.9-1.2-1.5c-.3-.6-.4-1.3-.4-2.1 0-.9.2-1.6.5-2.2.3-.6.7-1.1 1.2-1.4.5-.3 1.1-.6 1.7-.8.6-.2 1.3-.3 2-.4.7-.1 1.3-.2 1.9-.2.6-.1 1.2-.2 1.7-.3.5-.1.9-.3 1.2-.5.3-.2.4-.6.4-1 0-.5-.1-.8-.2-1.1s-.4-.5-.6-.6c-.3-.2-.6-.3-.9-.3-.3-.1-.7-.1-1.1-.1-.9 0-1.5.2-2 .6s-.8 1-.9 1.8h-4.3zm10.1 3.2c-.2.2-.4.3-.7.4-.3.1-.6.2-.9.2-.3.1-.7.1-1 .2-.3 0-.7.1-1 .2-.3.1-.7.1-1 .2-.3.1-.6.2-.8.4-.2.2-.4.4-.6.7-.1.3-.2.6-.2 1s.1.7.2 1c.1.3.3.5.6.6.2.2.5.3.9.3.3.1.7.1 1 .1.9 0 1.5-.1 2-.4.5-.3.8-.6 1-1 .2-.4.4-.8.4-1.2.1-.4.1-.7.1-1V252zm17.8-5.2h-5v13h-4.4v-13h-2.6v-2.9h2.6v-1.2c0-1.4.4-2.6 1.3-3.5.9-.9 2.2-1.4 4-1.4h1.2c.4 0 .8.1 1.1.1v3.3c-.5-.1-1.1-.1-1.6-.1-.6 0-1 .1-1.3.4-.3.3-.4.7-.4 1.4v.9h5v-1.2c0-1.4.4-2.6 1.3-3.5.9-.9 2.2-1.4 4-1.4h1.2c.4 0 .8.1 1.1.1v3.3c-.5-.1-1.1-.1-1.6-.1-.6 0-1 .1-1.3.4-.3.3-.4.7-.4 1.4v.9h3v2.9h-3v13h-4.4v-12.8zm8.5 5.1c0 1.3.2 2.4.6 3.4.4 1 .9 1.9 1.7 2.6.7.7 1.6 1.3 2.6 1.7 1 .4 2.1.6 3.4.6 1.3 0 2.4-.2 3.4-.6 1-.4 1.9-.9 2.6-1.7.7-.7 1.3-1.6 1.7-2.6.4-1 .6-2.2.6-3.4 0-1.3-.2-2.4-.6-3.5-.4-1-.9-1.9-1.7-2.6-.7-.7-1.6-1.3-2.6-1.7-1-.4-2.2-.6-3.4-.6-1.3 0-2.4.2-3.4.6-1 .4-1.9 1-2.6 1.7-.7.7-1.3 1.6-1.7 2.6-.4 1.1-.6 2.2-.6 3.5zm4.4 0c0-.6.1-1.3.2-1.9s.3-1.2.6-1.6c.3-.5.7-.9 1.2-1.2.5-.3 1.1-.4 1.8-.4s1.4.1 1.9.4c.5.3.9.7 1.2 1.2.3.5.5 1 .6 1.6s.2 1.2.2 1.9c0 .6-.1 1.3-.2 1.9-.1.6-.3 1.2-.6 1.6-.3.5-.7.9-1.2 1.2-.5.3-1.1.4-1.9.4s-1.4-.1-1.8-.4c-.5-.3-.9-.7-1.2-1.2-.3-.5-.5-1-.6-1.6-.2-.7-.2-1.3-.2-1.9zm14.6-8v15.9h4.4v-7.2c0-.7.1-1.4.2-2 .1-.6.4-1.2.7-1.6.3-.5.8-.8 1.3-1.1.6-.3 1.2-.4 2-.4h.8c.3 0 .5.1.7.1v-4.1c-.3-.1-.7-.2-1-.2-.6 0-1.1.1-1.6.2-.5.2-1 .4-1.4.7-.5.3-.9.7-1.2 1.1-.3.4-.6.9-.8 1.4h-.1v-3h-4zm22.5 13.9v2h4.2v-22h-4.4v8h-.1c-.5-.8-1.2-1.4-2-1.8-.9-.4-1.8-.6-2.7-.6-1.2 0-2.2.2-3.1.7-.9.5-1.6 1.1-2.2 1.8-.6.8-1 1.6-1.3 2.6-.3 1-.4 2-.4 3.1s.1 2.2.4 3.2c.3 1 .7 1.9 1.3 2.7.6.8 1.3 1.4 2.2 1.9.9.5 2 .7 3.1.7 1 0 2-.2 2.8-.6s1.6-.8 2.2-1.7zm-.1-6c0 .7-.1 1.3-.2 1.9s-.3 1.2-.6 1.6c-.3.5-.7.9-1.2 1.2-.5.3-1.1.4-1.8.4s-1.3-.1-1.7-.4c-.5-.3-.9-.7-1.2-1.2-.3-.5-.5-1-.7-1.6-.1-.6-.2-1.2-.2-1.8 0-.7.1-1.3.2-1.9.1-.6.3-1.1.6-1.6s.7-.9 1.2-1.1c.5-.3 1.1-.4 1.8-.4s1.3.1 1.8.4c.5.3.9.7 1.2 1.1.3.5.5 1 .6 1.6.1.5.2 1.2.2 1.8zm7-3c.1-1 .3-1.9.8-2.6.5-.7 1-1.2 1.7-1.6.7-.4 1.5-.7 2.4-.9.9-.2 1.8-.3 2.6-.3s1.6.1 2.4.2c.8.1 1.6.3 2.2.7.7.3 1.2.8 1.7 1.4.4.6.6 1.4.6 2.3v8.3c0 .7 0 1.4.1 2.1.1.7.2 1.2.4 1.5H204c-.1-.2-.1-.5-.2-.8-.1-.3-.1-.5-.1-.8-.7.7-1.5 1.2-2.5 1.5-.9.3-1.9.4-2.9.4-.8 0-1.5-.1-2.1-.3-.7-.2-1.2-.5-1.7-.9s-.9-.9-1.2-1.5c-.3-.6-.4-1.3-.4-2.1 0-.9.2-1.6.5-2.2.3-.6.7-1.1 1.2-1.4.5-.3 1.1-.6 1.7-.8.6-.2 1.3-.3 2-.4.7-.1 1.3-.2 1.9-.2.6-.1 1.2-.2 1.7-.3.5-.1.9-.3 1.2-.5.3-.2.4-.6.4-1 0-.5-.1-.8-.2-1.1-.2-.3-.4-.5-.6-.6-.3-.2-.6-.3-.9-.3-.3-.1-.7-.1-1.1-.1-.9 0-1.5.2-2 .6s-.8 1-.9 1.8h-4.3zm10.1 3.2c-.2.2-.4.3-.7.4-.3.1-.6.2-.9.2-.3.1-.7.1-1 .2-.3 0-.7.1-1 .2-.3.1-.7.1-1 .2-.3.1-.6.2-.8.4-.2.2-.4.4-.6.7-.1.3-.2.6-.2 1s.1.7.2 1c.1.3.3.5.6.6.2.2.5.3.9.3.3.1.7.1 1 .1.9 0 1.5-.1 2-.4.5-.3.8-.6 1-1 .2-.4.4-.8.4-1.2.1-.4.1-.7.1-1V252zm7.5-14.2v22h4.2v-2h.1c.5.9 1.2 1.5 2.1 1.9.9.4 2 .6 3.1.6.8 0 1.6-.2 2.4-.5.8-.3 1.5-.8 2.1-1.5.6-.7 1.1-1.5 1.5-2.6.4-1.1.6-2.3.6-3.8s-.2-2.7-.6-3.8c-.4-1.1-.9-1.9-1.5-2.6-.6-.7-1.3-1.2-2.1-1.5-.8-.3-1.6-.5-2.4-.5-1 0-1.9.2-2.8.6-.9.4-1.6 1-2.2 1.8h-.1v-8h-4.4zm11.7 14.1c0 .7-.1 1.3-.2 1.9-.1.6-.4 1.2-.7 1.6-.3.5-.7.8-1.2 1.1-.5.3-1 .4-1.7.4-.6 0-1.2-.1-1.7-.4-.5-.3-.9-.7-1.2-1.1-.3-.5-.5-1-.7-1.6-.1-.6-.2-1.3-.2-1.9 0-.7.1-1.3.2-1.9.1-.6.4-1.2.7-1.6.3-.5.7-.8 1.2-1.1.5-.3 1-.4 1.7-.4s1.2.1 1.7.4c.5.3.8.7 1.2 1.1.3.5.5 1 .7 1.6.1.6.2 1.2.2 1.9zm6.9-14.1v22h4.4v-22h-4.4zm11.1 15.1h11.5c.1-1.2 0-2.4-.3-3.5s-.8-2.1-1.4-3c-.6-.9-1.5-1.6-2.5-2.1s-2.2-.8-3.5-.8c-1.2 0-2.3.2-3.3.6-1 .4-1.9 1-2.6 1.8-.7.7-1.3 1.6-1.7 2.7-.4 1-.6 2.1-.6 3.3 0 1.2.2 2.4.6 3.4.4 1 .9 1.9 1.6 2.6.7.7 1.6 1.3 2.6 1.7 1 .4 2.1.6 3.4.6 1.8 0 3.3-.4 4.6-1.2 1.3-.8 2.2-2.2 2.8-4.1h-3.9c-.1.5-.5 1-1.2 1.4-.6.4-1.4.7-2.3.7-1.2 0-2.2-.3-2.8-1-.5-.6-.9-1.7-1-3.1zm7.2-2.7h-7.1c0-.3.1-.7.2-1 .1-.4.3-.8.6-1.1.3-.3.6-.6 1.1-.9.5-.2 1-.4 1.7-.4 1.1 0 1.9.3 2.4.9.5.5.8 1.3 1.1 2.5zm6.8 4.9v4.7h4.8v-4.7h-4.8z"/></svg>