<?xml version="1.0" encoding="utf-8"?>
<!-- Generator: Adobe Illustrator 25.4.6, SVG Export Plug-In . SVG Version: 6.00 Build 0)  -->
<svg version="1.1" id="Layer_1" xmlns="http://www.w3.org/2000/svg" xmlns:xlink="http://www.w3.org/1999/xlink" x="0px" y="0px"
	 viewBox="0 0 300 600" style="enable-background:new 0 0 300 600;" xml:space="preserve">
<g>
	<path d="M60.9,174l8.2,22h-5l-1.7-4.9h-8.2l-1.7,4.9h-4.9l8.3-22H60.9z M61.2,187.5l-2.8-8.1h-0.1l-2.9,8.1H61.2z"/>
	<path d="M80.3,174c1.4,0,2.7,0.2,4,0.7s2.3,1.1,3.2,2c0.9,0.9,1.6,2,2.1,3.4c0.5,1.4,0.8,2.9,0.8,4.8c0,1.6-0.2,3.1-0.6,4.4
		s-1,2.5-1.9,3.5c-0.8,1-1.9,1.8-3.1,2.3c-1.2,0.6-2.7,0.8-4.4,0.8h-9.5v-22H80.3z M79.9,192c0.7,0,1.4-0.1,2-0.3
		c0.7-0.2,1.2-0.6,1.8-1.1c0.5-0.5,0.9-1.2,1.2-2c0.3-0.8,0.5-1.9,0.5-3.1c0-1.1-0.1-2.1-0.3-3c-0.2-0.9-0.6-1.7-1.1-2.3
		c-0.5-0.6-1.1-1.1-2-1.5c-0.8-0.3-1.8-0.5-3-0.5h-3.4V192H79.9z"/>
	<path d="M104.3,174l8.2,22h-5l-1.7-4.9h-8.2l-1.7,4.9H91l8.3-22H104.3z M104.6,187.5l-2.8-8.1h-0.1l-2.9,8.1H104.6z"/>
	<path d="M131.9,174c1.4,0,2.7,0.2,4,0.7s2.3,1.1,3.2,2c0.9,0.9,1.6,2,2.1,3.4c0.5,1.4,0.8,2.9,0.8,4.8c0,1.6-0.2,3.1-0.6,4.4
		s-1,2.5-1.9,3.5c-0.8,1-1.9,1.8-3.1,2.3c-1.2,0.6-2.7,0.8-4.4,0.8h-9.5v-22H131.9z M131.5,192c0.7,0,1.4-0.1,2-0.3
		c0.7-0.2,1.2-0.6,1.8-1.1c0.5-0.5,0.9-1.2,1.2-2c0.3-0.8,0.5-1.9,0.5-3.1c0-1.1-0.1-2.1-0.3-3c-0.2-0.9-0.6-1.7-1.1-2.3
		c-0.5-0.6-1.1-1.1-2-1.5c-0.8-0.3-1.8-0.5-3-0.5h-3.4V192H131.5z"/>
	<path d="M144.6,177.6V174h4.4v3.6H144.6z M148.9,180.1V196h-4.4v-15.9H148.9z"/>
	<path d="M155.8,192.1c0.2,0.3,0.4,0.6,0.8,0.8c0.3,0.2,0.7,0.4,1.1,0.5c0.4,0.1,0.8,0.2,1.2,0.2c0.3,0,0.6,0,1-0.1
		c0.3-0.1,0.6-0.2,0.9-0.3s0.5-0.4,0.7-0.6c0.2-0.3,0.3-0.6,0.3-1c0-0.7-0.4-1.1-1.3-1.5c-0.9-0.3-2.1-0.7-3.6-1
		c-0.6-0.1-1.3-0.3-1.9-0.5c-0.6-0.2-1.1-0.5-1.6-0.8c-0.5-0.3-0.9-0.7-1.1-1.2c-0.3-0.5-0.4-1.1-0.4-1.8c0-1,0.2-1.9,0.6-2.5
		c0.4-0.7,0.9-1.2,1.6-1.6c0.7-0.4,1.4-0.6,2.2-0.8c0.8-0.2,1.7-0.2,2.5-0.2c0.9,0,1.7,0.1,2.5,0.2c0.8,0.2,1.5,0.4,2.2,0.8
		c0.6,0.4,1.2,0.9,1.6,1.6c0.4,0.6,0.7,1.5,0.8,2.4h-4.2c-0.1-0.8-0.4-1.4-1-1.7c-0.6-0.3-1.3-0.4-2-0.4c-0.2,0-0.5,0-0.8,0
		c-0.3,0-0.5,0.1-0.8,0.2c-0.2,0.1-0.4,0.3-0.6,0.4c-0.2,0.2-0.2,0.5-0.2,0.8c0,0.4,0.1,0.7,0.4,1s0.7,0.4,1.1,0.6s1,0.3,1.6,0.4
		c0.6,0.1,1.2,0.3,1.8,0.4c0.6,0.1,1.3,0.3,1.9,0.5c0.6,0.2,1.1,0.5,1.6,0.8c0.5,0.3,0.9,0.8,1.1,1.3c0.3,0.5,0.4,1.1,0.4,1.9
		c0,1-0.2,1.9-0.6,2.6s-1,1.3-1.6,1.7s-1.5,0.7-2.3,0.9c-0.9,0.2-1.8,0.3-2.7,0.3c-0.9,0-1.8-0.1-2.7-0.3c-0.9-0.2-1.7-0.5-2.4-0.9
		c-0.7-0.4-1.3-1-1.7-1.7c-0.4-0.7-0.7-1.6-0.7-2.7h4.2C155.5,191.3,155.6,191.7,155.8,192.1z"/>
	<path d="M168.2,185c0.1-1,0.3-1.9,0.8-2.6c0.5-0.7,1-1.2,1.7-1.6c0.7-0.4,1.5-0.7,2.4-0.9s1.8-0.3,2.6-0.3c0.8,0,1.6,0.1,2.4,0.2
		c0.8,0.1,1.6,0.3,2.2,0.7c0.7,0.3,1.2,0.8,1.7,1.4c0.4,0.6,0.6,1.4,0.6,2.3v8.3c0,0.7,0,1.4,0.1,2.1c0.1,0.7,0.2,1.2,0.4,1.5h-4.4
		c-0.1-0.2-0.1-0.5-0.2-0.8c-0.1-0.3-0.1-0.5-0.1-0.8c-0.7,0.7-1.5,1.2-2.5,1.5c-0.9,0.3-1.9,0.4-2.9,0.4c-0.8,0-1.5-0.1-2.1-0.3
		c-0.7-0.2-1.2-0.5-1.7-0.9c-0.5-0.4-0.9-0.9-1.2-1.5c-0.3-0.6-0.4-1.3-0.4-2.1c0-0.9,0.2-1.6,0.5-2.2c0.3-0.6,0.7-1.1,1.2-1.4
		c0.5-0.3,1.1-0.6,1.7-0.8c0.6-0.2,1.3-0.3,2-0.4c0.7-0.1,1.3-0.2,1.9-0.2c0.6-0.1,1.2-0.2,1.7-0.3c0.5-0.1,0.9-0.3,1.2-0.5
		c0.3-0.2,0.4-0.6,0.4-1c0-0.5-0.1-0.8-0.2-1.1s-0.4-0.5-0.6-0.6c-0.3-0.2-0.6-0.3-0.9-0.3s-0.7-0.1-1.1-0.1c-0.9,0-1.5,0.2-2,0.6
		c-0.5,0.4-0.8,1-0.9,1.8H168.2z M178.3,188.2c-0.2,0.2-0.4,0.3-0.7,0.4c-0.3,0.1-0.6,0.2-0.9,0.2s-0.7,0.1-1,0.2
		c-0.3,0-0.7,0.1-1,0.2c-0.3,0.1-0.7,0.1-1,0.2c-0.3,0.1-0.6,0.2-0.8,0.4s-0.4,0.4-0.6,0.7c-0.1,0.3-0.2,0.6-0.2,1
		c0,0.4,0.1,0.7,0.2,1c0.1,0.3,0.3,0.5,0.6,0.6s0.5,0.3,0.9,0.3c0.3,0.1,0.7,0.1,1,0.1c0.9,0,1.5-0.1,2-0.4c0.5-0.3,0.8-0.6,1-1
		c0.2-0.4,0.4-0.8,0.4-1.2c0.1-0.4,0.1-0.7,0.1-1V188.2z"/>
	<path d="M190.1,174v8h0.1c0.5-0.8,1.3-1.4,2.2-1.8c0.9-0.4,1.9-0.6,2.8-0.6c0.8,0,1.6,0.2,2.4,0.5s1.5,0.8,2.1,1.5
		c0.6,0.7,1.1,1.5,1.5,2.6c0.4,1.1,0.6,2.3,0.6,3.8s-0.2,2.7-0.6,3.8c-0.4,1.1-0.9,1.9-1.5,2.6c-0.6,0.7-1.3,1.2-2.1,1.5
		s-1.6,0.5-2.4,0.5c-1.2,0-2.2-0.2-3.1-0.6c-0.9-0.4-1.6-1-2.1-1.9h-0.1v2h-4.2v-22H190.1z M197.2,186.1c-0.1-0.6-0.4-1.2-0.7-1.6
		c-0.3-0.5-0.7-0.8-1.2-1.1c-0.5-0.3-1-0.4-1.7-0.4c-0.6,0-1.2,0.1-1.7,0.4c-0.5,0.3-0.9,0.7-1.2,1.1c-0.3,0.5-0.5,1-0.7,1.6
		c-0.1,0.6-0.2,1.3-0.2,1.9c0,0.7,0.1,1.3,0.2,1.9c0.1,0.6,0.4,1.2,0.7,1.6c0.3,0.5,0.7,0.8,1.2,1.1s1,0.4,1.7,0.4
		c0.7,0,1.2-0.1,1.7-0.4s0.8-0.7,1.2-1.1c0.3-0.5,0.5-1,0.7-1.6c0.1-0.6,0.2-1.3,0.2-1.9C197.4,187.4,197.4,186.8,197.2,186.1z"/>
	<path d="M204.4,177.6V174h4.4v3.6H204.4z M208.8,180.1V196h-4.4v-15.9H208.8z"/>
	<path d="M216.4,174v22H212v-22H216.4z"/>
	<path d="M219.7,177.6V174h4.4v3.6H219.7z M224.1,180.1V196h-4.4v-15.9H224.1z"/>
	<path d="M235.9,180.1v2.9h-3.2v7.9c0,0.7,0.1,1.2,0.4,1.5c0.2,0.2,0.7,0.4,1.5,0.4c0.2,0,0.5,0,0.7,0c0.2,0,0.4-0.1,0.6-0.1v3.4
		c-0.4,0.1-0.8,0.1-1.2,0.1c-0.5,0-0.9,0-1.3,0c-0.7,0-1.3,0-1.9-0.1c-0.6-0.1-1.1-0.3-1.6-0.5c-0.5-0.3-0.8-0.6-1.1-1.1
		c-0.3-0.5-0.4-1.1-0.4-1.9V183h-2.6v-2.9h2.6v-4.8h4.4v4.8H235.9z"/>
	<path d="M243.6,200.8c-0.8,0.6-2,0.8-3.5,0.8c-0.5,0-0.9,0-1.3,0c-0.4,0-0.9-0.1-1.3-0.1v-3.6c0.4,0,0.8,0.1,1.3,0.1
		c0.4,0,0.9,0.1,1.3,0c0.6-0.1,1-0.3,1.3-0.7c0.3-0.4,0.4-0.8,0.4-1.3c0-0.3-0.1-0.7-0.2-1l-5.6-14.9h4.7l3.6,10.9h0.1l3.5-10.9h4.5
		l-6.7,17.9C245.1,199.3,244.5,200.2,243.6,200.8z"/>
</g>
<g>
	<path d="M23.9,205v22H19v-22H23.9z"/>
	<path d="M31.5,211.1v2.2h0.1c0.6-0.9,1.3-1.6,2.2-2c0.9-0.4,1.8-0.6,2.7-0.6c1.2,0,2.1,0.2,2.9,0.5c0.7,0.3,1.3,0.8,1.8,1.3
		c0.4,0.6,0.7,1.3,0.9,2.1c0.2,0.8,0.3,1.7,0.3,2.7v9.8h-4.4v-9c0-1.3-0.2-2.3-0.6-2.9c-0.4-0.6-1.1-1-2.2-1c-1.2,0-2.1,0.4-2.6,1.1
		c-0.5,0.7-0.8,1.9-0.8,3.5v8.3h-4.4v-15.9H31.5z"/>
	<path d="M52.9,214c-0.7,0-1.3,0.2-1.8,0.5c-0.5,0.3-0.9,0.7-1.2,1.2c-0.3,0.5-0.5,1.1-0.6,1.7c-0.1,0.6-0.2,1.2-0.2,1.8
		c0,0.6,0.1,1.2,0.2,1.8c0.1,0.6,0.3,1.1,0.6,1.6c0.3,0.5,0.7,0.9,1.1,1.2c0.5,0.3,1,0.5,1.7,0.5c1,0,1.9-0.3,2.4-0.9
		c0.6-0.6,0.9-1.4,1.1-2.4h4.2c-0.3,2.1-1.1,3.7-2.5,4.8c-1.4,1.1-3.1,1.7-5.2,1.7c-1.2,0-2.3-0.2-3.3-0.6c-1-0.4-1.8-1-2.5-1.7
		c-0.7-0.7-1.2-1.6-1.6-2.6c-0.4-1-0.6-2.1-0.6-3.3c0-1.2,0.2-2.4,0.5-3.4c0.4-1.1,0.9-2,1.6-2.7s1.6-1.4,2.6-1.8
		c1-0.4,2.2-0.6,3.4-0.6c0.9,0,1.9,0.1,2.7,0.4c0.9,0.2,1.7,0.6,2.3,1.1c0.7,0.5,1.2,1.1,1.7,1.9c0.4,0.8,0.7,1.6,0.7,2.7h-4.3
		C55.9,214.9,54.8,214,52.9,214z"/>
	<path d="M62.8,215.6c0.4-1,0.9-1.9,1.7-2.6c0.7-0.7,1.6-1.3,2.6-1.7c1-0.4,2.1-0.6,3.4-0.6c1.3,0,2.4,0.2,3.4,0.6s1.9,1,2.6,1.7
		c0.7,0.7,1.3,1.6,1.7,2.6c0.4,1,0.6,2.2,0.6,3.5c0,1.3-0.2,2.4-0.6,3.4s-0.9,1.9-1.7,2.6c-0.7,0.7-1.6,1.3-2.6,1.7
		c-1,0.4-2.2,0.6-3.4,0.6c-1.3,0-2.4-0.2-3.4-0.6c-1-0.4-1.9-0.9-2.6-1.7c-0.7-0.7-1.3-1.6-1.7-2.6s-0.6-2.2-0.6-3.4
		C62.3,217.8,62.4,216.7,62.8,215.6z M66.8,220.9c0.1,0.6,0.3,1.2,0.6,1.6c0.3,0.5,0.7,0.9,1.2,1.2s1.1,0.4,1.8,0.4s1.4-0.1,1.9-0.4
		c0.5-0.3,0.9-0.7,1.2-1.2c0.3-0.5,0.5-1,0.6-1.6c0.1-0.6,0.2-1.2,0.2-1.9c0-0.6-0.1-1.3-0.2-1.9c-0.1-0.6-0.3-1.2-0.6-1.6
		c-0.3-0.5-0.7-0.9-1.2-1.2c-0.5-0.3-1.1-0.4-1.9-0.4s-1.4,0.1-1.8,0.4c-0.5,0.3-0.9,0.7-1.2,1.2c-0.3,0.5-0.5,1-0.6,1.6
		c-0.1,0.6-0.2,1.2-0.2,1.9C66.6,219.7,66.7,220.3,66.8,220.9z"/>
	<path d="M85.5,211.1v2.2h0.1c0.6-0.8,1.3-1.5,2.1-1.9c0.8-0.5,1.7-0.7,2.8-0.7c1,0,1.9,0.2,2.8,0.6c0.8,0.4,1.5,1.1,1.9,2.1
		c0.5-0.7,1.1-1.3,1.9-1.8c0.8-0.5,1.8-0.8,2.9-0.8c0.8,0,1.6,0.1,2.3,0.3c0.7,0.2,1.3,0.5,1.8,1s0.9,1,1.2,1.8s0.4,1.6,0.4,2.6V227
		h-4.4v-9c0-0.5,0-1-0.1-1.5c0-0.5-0.2-0.9-0.3-1.2c-0.2-0.3-0.5-0.6-0.8-0.8c-0.4-0.2-0.8-0.3-1.5-0.3c-0.6,0-1.1,0.1-1.5,0.4
		s-0.7,0.5-0.9,0.9c-0.2,0.4-0.4,0.8-0.4,1.3c-0.1,0.5-0.1,1-0.1,1.5v8.9h-4.4v-8.9c0-0.5,0-0.9,0-1.4c0-0.5-0.1-0.9-0.3-1.3
		c-0.2-0.4-0.4-0.7-0.8-0.9c-0.4-0.2-0.9-0.4-1.6-0.4c-0.2,0-0.5,0-0.8,0.1c-0.3,0.1-0.7,0.3-1,0.5c-0.3,0.3-0.6,0.6-0.8,1.1
		c-0.2,0.5-0.3,1.1-0.3,1.9v9.2h-4.4v-15.9H85.5z"/>
	<path d="M113.6,223.2c0.7,0.6,1.6,1,2.8,1c0.9,0,1.6-0.2,2.3-0.7c0.6-0.4,1-0.9,1.2-1.4h3.9c-0.6,1.9-1.6,3.3-2.8,4.1
		c-1.3,0.8-2.8,1.2-4.6,1.2c-1.3,0-2.4-0.2-3.4-0.6c-1-0.4-1.9-1-2.6-1.7c-0.7-0.7-1.2-1.6-1.6-2.6c-0.4-1-0.6-2.2-0.6-3.4
		c0-1.2,0.2-2.3,0.6-3.3c0.4-1,0.9-1.9,1.7-2.7c0.7-0.7,1.6-1.3,2.6-1.8c1-0.4,2.1-0.6,3.3-0.6c1.4,0,2.5,0.3,3.5,0.8
		c1,0.5,1.8,1.2,2.5,2.1c0.6,0.9,1.1,1.9,1.4,3c0.3,1.1,0.4,2.3,0.3,3.5h-11.5C112.6,221.5,112.9,222.6,113.6,223.2z M118.5,214.8
		c-0.5-0.6-1.3-0.9-2.4-0.9c-0.7,0-1.3,0.1-1.7,0.4c-0.5,0.2-0.8,0.5-1.1,0.9s-0.5,0.7-0.6,1.1s-0.2,0.7-0.2,1h7.1
		C119.4,216.2,119.1,215.4,118.5,214.8z"/>
	<path d="M144.9,205c1.4,0,2.5,0.2,3.5,0.6s1.8,0.9,2.4,1.6c0.6,0.7,1,1.4,1.3,2.2c0.3,0.8,0.4,1.7,0.4,2.6c0,0.9-0.1,1.8-0.4,2.6
		c-0.3,0.9-0.7,1.6-1.3,2.3c-0.6,0.7-1.4,1.2-2.4,1.6s-2.1,0.6-3.5,0.6h-5.1v7.9H135v-22H144.9z M143.6,215.4c0.6,0,1.1,0,1.6-0.1
		c0.5-0.1,1-0.2,1.4-0.5c0.4-0.2,0.7-0.6,0.9-1s0.4-1,0.4-1.7c0-0.7-0.1-1.3-0.4-1.7s-0.5-0.8-0.9-1c-0.4-0.2-0.8-0.4-1.4-0.5
		c-0.5-0.1-1-0.1-1.6-0.1h-3.8v6.6H143.6z"/>
	<path d="M159,211.1v3h0.1c0.2-0.5,0.5-0.9,0.8-1.4c0.3-0.4,0.7-0.8,1.2-1.1c0.5-0.3,0.9-0.5,1.4-0.7c0.5-0.2,1-0.2,1.6-0.2
		c0.3,0,0.6,0.1,1,0.2v4.1c-0.2,0-0.5-0.1-0.7-0.1c-0.3,0-0.6,0-0.8,0c-0.8,0-1.5,0.1-2,0.4c-0.6,0.3-1,0.6-1.3,1.1s-0.6,1-0.7,1.6
		c-0.1,0.6-0.2,1.3-0.2,2v7.2h-4.4v-15.9H159z"/>
	<path d="M166.1,215.6c0.4-1,0.9-1.9,1.7-2.6c0.7-0.7,1.6-1.3,2.6-1.7s2.1-0.6,3.4-0.6c1.3,0,2.4,0.2,3.4,0.6c1,0.4,1.9,1,2.6,1.7
		c0.7,0.7,1.3,1.6,1.7,2.6c0.4,1,0.6,2.2,0.6,3.5c0,1.3-0.2,2.4-0.6,3.4c-0.4,1-0.9,1.9-1.7,2.6c-0.7,0.7-1.6,1.3-2.6,1.7
		c-1,0.4-2.2,0.6-3.4,0.6c-1.3,0-2.4-0.2-3.4-0.6c-1-0.4-1.9-0.9-2.6-1.7c-0.7-0.7-1.3-1.6-1.7-2.6c-0.4-1-0.6-2.2-0.6-3.4
		C165.5,217.8,165.7,216.7,166.1,215.6z M170,220.9c0.1,0.6,0.3,1.2,0.6,1.6c0.3,0.5,0.7,0.9,1.2,1.2s1.1,0.4,1.8,0.4
		c0.7,0,1.4-0.1,1.9-0.4c0.5-0.3,0.9-0.7,1.2-1.2c0.3-0.5,0.5-1,0.6-1.6c0.1-0.6,0.2-1.2,0.2-1.9c0-0.6-0.1-1.3-0.2-1.9
		s-0.3-1.2-0.6-1.6c-0.3-0.5-0.7-0.9-1.2-1.2c-0.5-0.3-1.1-0.4-1.9-0.4c-0.7,0-1.4,0.1-1.8,0.4c-0.5,0.3-0.9,0.7-1.2,1.2
		c-0.3,0.5-0.5,1-0.6,1.6s-0.2,1.2-0.2,1.9C169.9,219.7,169.9,220.3,170,220.9z"/>
	<path d="M193.2,211.1v2.9H190v7.9c0,0.7,0.1,1.2,0.4,1.5c0.2,0.2,0.7,0.4,1.5,0.4c0.2,0,0.5,0,0.7,0c0.2,0,0.4-0.1,0.6-0.1v3.4
		c-0.4,0.1-0.8,0.1-1.2,0.1c-0.5,0-0.9,0-1.3,0c-0.7,0-1.3,0-1.9-0.1c-0.6-0.1-1.1-0.3-1.6-0.5c-0.5-0.3-0.8-0.6-1.1-1.1
		c-0.3-0.5-0.4-1.1-0.4-1.9V214H183v-2.9h2.6v-4.8h4.4v4.8H193.2z"/>
	<path d="M199.7,223.2c0.7,0.6,1.6,1,2.8,1c0.9,0,1.6-0.2,2.3-0.7c0.6-0.4,1-0.9,1.2-1.4h3.8c-0.6,1.9-1.6,3.3-2.8,4.1
		c-1.3,0.8-2.8,1.2-4.6,1.2c-1.3,0-2.4-0.2-3.4-0.6c-1-0.4-1.9-1-2.6-1.7c-0.7-0.7-1.2-1.6-1.6-2.6c-0.4-1-0.6-2.2-0.6-3.4
		c0-1.2,0.2-2.3,0.6-3.3c0.4-1,0.9-1.9,1.7-2.7c0.7-0.7,1.6-1.3,2.6-1.8c1-0.4,2.1-0.6,3.3-0.6c1.4,0,2.5,0.3,3.5,0.8
		s1.8,1.2,2.5,2.1s1.1,1.9,1.4,3c0.3,1.1,0.4,2.3,0.3,3.5h-11.5C198.7,221.5,199.1,222.6,199.7,223.2z M204.7,214.8
		c-0.5-0.6-1.3-0.9-2.4-0.9c-0.7,0-1.3,0.1-1.7,0.4c-0.5,0.2-0.8,0.5-1.1,0.9c-0.3,0.3-0.5,0.7-0.6,1.1s-0.2,0.7-0.2,1h7.1
		C205.6,216.2,205.2,215.4,204.7,214.8z"/>
	<path d="M220.1,214c-0.7,0-1.3,0.2-1.8,0.5c-0.5,0.3-0.9,0.7-1.2,1.2c-0.3,0.5-0.5,1.1-0.6,1.7c-0.1,0.6-0.2,1.2-0.2,1.8
		c0,0.6,0.1,1.2,0.2,1.8c0.1,0.6,0.3,1.1,0.6,1.6c0.3,0.5,0.7,0.9,1.1,1.2c0.5,0.3,1,0.5,1.7,0.5c1,0,1.9-0.3,2.4-0.9
		c0.6-0.6,0.9-1.4,1.1-2.4h4.2c-0.3,2.1-1.1,3.7-2.5,4.8c-1.4,1.1-3.1,1.7-5.2,1.7c-1.2,0-2.3-0.2-3.3-0.6s-1.8-1-2.5-1.7
		c-0.7-0.7-1.2-1.6-1.6-2.6c-0.4-1-0.6-2.1-0.6-3.3c0-1.2,0.2-2.4,0.5-3.4c0.4-1.1,0.9-2,1.6-2.7c0.7-0.8,1.5-1.4,2.6-1.8
		s2.2-0.6,3.5-0.6c0.9,0,1.9,0.1,2.7,0.4c0.9,0.2,1.7,0.6,2.3,1.1c0.7,0.5,1.2,1.1,1.7,1.9c0.4,0.8,0.7,1.6,0.7,2.7h-4.3
		C223,214.9,221.9,214,220.1,214z"/>
	<path d="M238.6,211.1v2.9h-3.2v7.9c0,0.7,0.1,1.2,0.4,1.5c0.2,0.2,0.7,0.4,1.5,0.4c0.2,0,0.5,0,0.7,0c0.2,0,0.4-0.1,0.6-0.1v3.4
		c-0.4,0.1-0.8,0.1-1.2,0.1c-0.5,0-0.9,0-1.3,0c-0.7,0-1.3,0-1.9-0.1c-0.6-0.1-1.1-0.3-1.6-0.5c-0.5-0.3-0.8-0.6-1.1-1.1
		c-0.3-0.5-0.4-1.1-0.4-1.9V214h-2.6v-2.9h2.6v-4.8h4.4v4.8H238.6z"/>
	<path d="M240.5,208.6V205h4.4v3.6H240.5z M244.9,211.1V227h-4.4v-15.9H244.9z"/>
	<path d="M248.2,215.6c0.4-1,0.9-1.9,1.7-2.6c0.7-0.7,1.6-1.3,2.6-1.7s2.1-0.6,3.4-0.6c1.3,0,2.4,0.2,3.4,0.6c1,0.4,1.9,1,2.6,1.7
		c0.7,0.7,1.3,1.6,1.7,2.6c0.4,1,0.6,2.2,0.6,3.5c0,1.3-0.2,2.4-0.6,3.4c-0.4,1-0.9,1.9-1.7,2.6c-0.7,0.7-1.6,1.3-2.6,1.7
		c-1,0.4-2.2,0.6-3.4,0.6c-1.3,0-2.4-0.2-3.4-0.6c-1-0.4-1.9-0.9-2.6-1.7c-0.7-0.7-1.3-1.6-1.7-2.6c-0.4-1-0.6-2.2-0.6-3.4
		C247.6,217.8,247.8,216.7,248.2,215.6z M252.2,220.9c0.1,0.6,0.3,1.2,0.6,1.6c0.3,0.5,0.7,0.9,1.2,1.2s1.1,0.4,1.8,0.4
		c0.7,0,1.4-0.1,1.9-0.4c0.5-0.3,0.9-0.7,1.2-1.2c0.3-0.5,0.5-1,0.6-1.6c0.1-0.6,0.2-1.2,0.2-1.9c0-0.6-0.1-1.3-0.2-1.9
		s-0.3-1.2-0.6-1.6c-0.3-0.5-0.7-0.9-1.2-1.2c-0.5-0.3-1.1-0.4-1.9-0.4c-0.7,0-1.4,0.1-1.8,0.4c-0.5,0.3-0.9,0.7-1.2,1.2
		c-0.3,0.5-0.5,1-0.6,1.6s-0.2,1.2-0.2,1.9C252,219.7,252,220.3,252.2,220.9z"/>
	<path d="M270.8,211.1v2.2h0.1c0.6-0.9,1.3-1.6,2.2-2c0.9-0.4,1.8-0.6,2.7-0.6c1.2,0,2.1,0.2,2.9,0.5c0.7,0.3,1.3,0.8,1.8,1.3
		c0.4,0.6,0.7,1.3,0.9,2.1c0.2,0.8,0.3,1.7,0.3,2.7v9.8h-4.4v-9c0-1.3-0.2-2.3-0.6-2.9s-1.1-1-2.2-1c-1.2,0-2.1,0.4-2.6,1.1
		c-0.5,0.7-0.8,1.9-0.8,3.5v8.3h-4.4v-15.9H270.8z"/>
</g>
<g>
	<path d="M85.4,236v22h-4.8v-22H85.4z"/>
	<path d="M93,242.1v2.2h0.1c0.6-0.9,1.3-1.6,2.2-2c0.9-0.4,1.8-0.6,2.7-0.6c1.2,0,2.1,0.2,2.9,0.5c0.7,0.3,1.3,0.8,1.8,1.3
		c0.4,0.6,0.7,1.3,0.9,2.1c0.2,0.8,0.3,1.7,0.3,2.7v9.8h-4.4v-9c0-1.3-0.2-2.3-0.6-2.9c-0.4-0.6-1.1-1-2.2-1c-1.2,0-2.1,0.4-2.6,1.1
		c-0.5,0.7-0.8,1.9-0.8,3.5v8.3h-4.4v-15.9H93z"/>
	<path d="M110.5,254.1c0.2,0.3,0.4,0.6,0.8,0.8c0.3,0.2,0.7,0.4,1.1,0.5c0.4,0.1,0.8,0.2,1.2,0.2c0.3,0,0.6,0,1-0.1
		c0.3-0.1,0.6-0.2,0.9-0.3c0.3-0.2,0.5-0.4,0.7-0.6c0.2-0.3,0.3-0.6,0.3-1c0-0.7-0.4-1.1-1.3-1.5c-0.9-0.3-2.1-0.7-3.6-1
		c-0.6-0.1-1.3-0.3-1.9-0.5c-0.6-0.2-1.1-0.5-1.6-0.8c-0.5-0.3-0.9-0.7-1.1-1.2c-0.3-0.5-0.4-1.1-0.4-1.8c0-1,0.2-1.9,0.6-2.5
		c0.4-0.7,0.9-1.2,1.6-1.6c0.7-0.4,1.4-0.6,2.2-0.8c0.8-0.2,1.7-0.2,2.5-0.2s1.7,0.1,2.5,0.2c0.8,0.2,1.5,0.4,2.2,0.8
		c0.6,0.4,1.2,0.9,1.6,1.6c0.4,0.6,0.7,1.5,0.8,2.4h-4.2c-0.1-0.8-0.4-1.4-1-1.7c-0.6-0.3-1.3-0.4-2-0.4c-0.2,0-0.5,0-0.8,0
		c-0.3,0-0.5,0.1-0.8,0.2c-0.2,0.1-0.4,0.3-0.6,0.4c-0.2,0.2-0.2,0.5-0.2,0.8c0,0.4,0.1,0.7,0.4,1s0.7,0.4,1.1,0.6s1,0.3,1.6,0.4
		c0.6,0.1,1.2,0.3,1.8,0.4c0.6,0.1,1.3,0.3,1.9,0.5c0.6,0.2,1.1,0.5,1.6,0.8c0.5,0.3,0.9,0.8,1.1,1.3c0.3,0.5,0.4,1.1,0.4,1.9
		c0,1-0.2,1.9-0.6,2.6c-0.4,0.7-1,1.3-1.6,1.7s-1.5,0.7-2.3,0.9c-0.9,0.2-1.8,0.3-2.7,0.3c-0.9,0-1.8-0.1-2.7-0.3
		c-0.9-0.2-1.7-0.5-2.4-0.9c-0.7-0.4-1.3-1-1.7-1.7c-0.4-0.7-0.7-1.6-0.7-2.7h4.2C110.2,253.3,110.3,253.7,110.5,254.1z"/>
	<path d="M133.9,258v-2.2h-0.1c-0.6,0.9-1.3,1.6-2.2,2c-0.9,0.4-1.8,0.6-2.7,0.6c-1.2,0-2.1-0.2-2.9-0.5s-1.3-0.7-1.8-1.3
		c-0.4-0.6-0.7-1.3-0.9-2.1s-0.3-1.7-0.3-2.7v-9.8h4.4v9c0,1.3,0.2,2.3,0.6,2.9c0.4,0.6,1.1,1,2.2,1c1.2,0,2.1-0.4,2.6-1.1
		c0.5-0.7,0.8-1.9,0.8-3.5v-8.3h4.4V258H133.9z"/>
	<path d="M145.3,242.1v3h0.1c0.2-0.5,0.5-0.9,0.8-1.4c0.3-0.4,0.7-0.8,1.2-1.1c0.5-0.3,0.9-0.5,1.4-0.7c0.5-0.2,1-0.2,1.6-0.2
		c0.3,0,0.6,0.1,1,0.2v4.1c-0.2,0-0.5-0.1-0.7-0.1c-0.3,0-0.6,0-0.8,0c-0.8,0-1.5,0.1-2,0.4c-0.6,0.3-1,0.6-1.3,1.1s-0.6,1-0.7,1.6
		c-0.1,0.6-0.2,1.3-0.2,2v7.2h-4.4v-15.9H145.3z"/>
	<path d="M152.6,247c0.1-1,0.3-1.9,0.8-2.6c0.5-0.7,1-1.2,1.7-1.6c0.7-0.4,1.5-0.7,2.4-0.9s1.8-0.3,2.6-0.3c0.8,0,1.6,0.1,2.4,0.2
		c0.8,0.1,1.6,0.3,2.2,0.7c0.7,0.3,1.2,0.8,1.7,1.4c0.4,0.6,0.6,1.4,0.6,2.3v8.3c0,0.7,0,1.4,0.1,2.1c0.1,0.7,0.2,1.2,0.4,1.5h-4.4
		c-0.1-0.2-0.1-0.5-0.2-0.8c-0.1-0.3-0.1-0.5-0.1-0.8c-0.7,0.7-1.5,1.2-2.5,1.5c-0.9,0.3-1.9,0.4-2.9,0.4c-0.8,0-1.5-0.1-2.1-0.3
		c-0.7-0.2-1.2-0.5-1.7-0.9c-0.5-0.4-0.9-0.9-1.2-1.5c-0.3-0.6-0.4-1.3-0.4-2.1c0-0.9,0.2-1.6,0.5-2.2c0.3-0.6,0.7-1.1,1.2-1.4
		c0.5-0.3,1.1-0.6,1.7-0.8c0.6-0.2,1.3-0.3,2-0.4c0.7-0.1,1.3-0.2,1.9-0.2c0.6-0.1,1.2-0.2,1.7-0.3c0.5-0.1,0.9-0.3,1.2-0.5
		c0.3-0.2,0.4-0.6,0.4-1c0-0.5-0.1-0.8-0.2-1.1s-0.4-0.5-0.6-0.6c-0.3-0.2-0.6-0.3-0.9-0.3s-0.7-0.1-1.1-0.1c-0.9,0-1.5,0.2-2,0.6
		c-0.5,0.4-0.8,1-0.9,1.8H152.6z M162.7,250.2c-0.2,0.2-0.4,0.3-0.7,0.4c-0.3,0.1-0.6,0.2-0.9,0.2s-0.7,0.1-1,0.2
		c-0.3,0-0.7,0.1-1,0.2c-0.3,0.1-0.7,0.1-1,0.2c-0.3,0.1-0.6,0.2-0.8,0.4s-0.4,0.4-0.6,0.7c-0.1,0.3-0.2,0.6-0.2,1
		c0,0.4,0.1,0.7,0.2,1c0.1,0.3,0.3,0.5,0.6,0.6s0.5,0.3,0.9,0.3c0.3,0.1,0.7,0.1,1,0.1c0.9,0,1.5-0.1,2-0.4c0.5-0.3,0.8-0.6,1-1
		c0.2-0.4,0.4-0.8,0.4-1.2c0.1-0.4,0.1-0.7,0.1-1V250.2z"/>
	<path d="M174.4,242.1v2.2h0.1c0.6-0.9,1.3-1.6,2.2-2c0.9-0.4,1.8-0.6,2.7-0.6c1.2,0,2.1,0.2,2.9,0.5c0.7,0.3,1.3,0.8,1.8,1.3
		c0.4,0.6,0.7,1.3,0.9,2.1c0.2,0.8,0.3,1.7,0.3,2.7v9.8h-4.4v-9c0-1.3-0.2-2.3-0.6-2.9s-1.1-1-2.2-1c-1.2,0-2.1,0.4-2.6,1.1
		c-0.5,0.7-0.8,1.9-0.8,3.5v8.3h-4.4v-15.9H174.4z"/>
	<path d="M195.8,245c-0.7,0-1.3,0.2-1.8,0.5c-0.5,0.3-0.9,0.7-1.2,1.2c-0.3,0.5-0.5,1.1-0.6,1.7c-0.1,0.6-0.2,1.2-0.2,1.8
		c0,0.6,0.1,1.2,0.2,1.8c0.1,0.6,0.3,1.1,0.6,1.6c0.3,0.5,0.7,0.9,1.1,1.2c0.5,0.3,1,0.5,1.7,0.5c1,0,1.9-0.3,2.4-0.9
		c0.6-0.6,0.9-1.4,1.1-2.4h4.2c-0.3,2.1-1.1,3.7-2.5,4.8c-1.4,1.1-3.1,1.7-5.2,1.7c-1.2,0-2.3-0.2-3.3-0.6s-1.8-1-2.5-1.7
		c-0.7-0.7-1.2-1.6-1.6-2.6c-0.4-1-0.6-2.1-0.6-3.3c0-1.2,0.2-2.4,0.5-3.4c0.4-1.1,0.9-2,1.6-2.7c0.7-0.8,1.5-1.4,2.6-1.8
		s2.2-0.6,3.5-0.6c0.9,0,1.9,0.1,2.7,0.4c0.9,0.2,1.7,0.6,2.3,1.1c0.7,0.5,1.2,1.1,1.7,1.9c0.4,0.8,0.7,1.6,0.7,2.7H199
		C198.7,245.9,197.7,245,195.8,245z"/>
	<path d="M210.3,254.2c0.7,0.6,1.6,1,2.8,1c0.9,0,1.6-0.2,2.3-0.7c0.6-0.4,1-0.9,1.2-1.4h3.8c-0.6,1.9-1.6,3.3-2.8,4.1
		c-1.3,0.8-2.8,1.2-4.6,1.2c-1.3,0-2.4-0.2-3.4-0.6c-1-0.4-1.9-1-2.6-1.7c-0.7-0.7-1.2-1.6-1.6-2.6c-0.4-1-0.6-2.2-0.6-3.4
		c0-1.2,0.2-2.3,0.6-3.3c0.4-1,0.9-1.9,1.7-2.7c0.7-0.7,1.6-1.3,2.6-1.8c1-0.4,2.1-0.6,3.3-0.6c1.4,0,2.5,0.3,3.5,0.8
		s1.8,1.2,2.5,2.1s1.1,1.9,1.4,3c0.3,1.1,0.4,2.3,0.3,3.5h-11.5C209.3,252.5,209.6,253.6,210.3,254.2z M215.2,245.8
		c-0.5-0.6-1.3-0.9-2.4-0.9c-0.7,0-1.3,0.1-1.7,0.4c-0.5,0.2-0.8,0.5-1.1,0.9c-0.3,0.3-0.5,0.7-0.6,1.1s-0.2,0.7-0.2,1h7.1
		C216.1,247.2,215.7,246.4,215.2,245.8z"/>
</g>
</svg>
