<?xml version="1.0" encoding="utf-8"?>
<!-- Generator: Adobe Illustrator 25.4.6, SVG Export Plug-In . SVG Version: 6.00 Build 0)  -->
<svg version="1.1" id="Layer_1" xmlns="http://www.w3.org/2000/svg" xmlns:xlink="http://www.w3.org/1999/xlink" x="0px" y="0px"
	 viewBox="0 0 300 600" style="enable-background:new 0 0 300 600;" xml:space="preserve">
<style type="text/css">
	.st0{fill:#339933;}
	.st1{fill:#373535;}
</style>
<g>
	<path class="st0" d="M27.2,174V192h10.7v4.1H22.3v-22H27.2z"/>
	<path class="st0" d="M57,174v4.1H45.4v4.7h10.7v3.8H45.4v5.4h11.9v4.1H40.6v-22H57z"/>
	<path class="st0" d="M71.5,174l8.2,22h-5l-1.7-4.9h-8.2l-1.7,4.9h-4.9l8.3-22H71.5z M71.8,187.5l-2.8-8.1H69l-2.9,8.1H71.8z"/>
	<path class="st0" d="M85,196l-7.1-22h5l4.9,15.5h0.1l5-15.5h5l-7.3,22H85z"/>
	<path class="st0" d="M116.1,174v4.1h-11.6v4.7h10.7v3.8h-10.7v5.4h11.9v4.1H99.6v-22H116.1z"/>
	<path class="st0" d="M131.8,180.1v2.2h0.1c0.6-0.9,1.3-1.6,2.2-2c0.9-0.4,1.8-0.6,2.7-0.6c1.2,0,2.1,0.2,2.9,0.5
		c0.8,0.3,1.3,0.8,1.8,1.3c0.4,0.6,0.7,1.3,0.9,2.1s0.3,1.7,0.3,2.7v9.8h-4.4v-9c0-1.3-0.2-2.3-0.6-2.9s-1.1-1-2.2-1
		c-1.2,0-2.1,0.4-2.6,1.1c-0.5,0.7-0.8,1.9-0.8,3.5v8.3h-4.4v-15.9H131.8z"/>
	<path class="st0" d="M146,184.6c0.4-1,0.9-1.9,1.7-2.6c0.7-0.7,1.6-1.3,2.6-1.7s2.1-0.6,3.4-0.6c1.3,0,2.4,0.2,3.4,0.6
		c1,0.4,1.9,1,2.6,1.7c0.7,0.7,1.3,1.6,1.7,2.6c0.4,1,0.6,2.2,0.6,3.5c0,1.3-0.2,2.4-0.6,3.4c-0.4,1-0.9,1.9-1.7,2.6
		c-0.7,0.7-1.6,1.3-2.6,1.7c-1,0.4-2.2,0.6-3.4,0.6c-1.3,0-2.4-0.2-3.4-0.6c-1-0.4-1.9-0.9-2.6-1.7c-0.7-0.7-1.3-1.6-1.7-2.6
		c-0.4-1-0.6-2.2-0.6-3.4C145.5,186.8,145.7,185.7,146,184.6z M150,189.9c0.1,0.6,0.3,1.2,0.6,1.6c0.3,0.5,0.7,0.9,1.2,1.2
		s1.1,0.4,1.8,0.4c0.7,0,1.4-0.1,1.9-0.4c0.5-0.3,0.9-0.7,1.2-1.2c0.3-0.5,0.5-1,0.6-1.6c0.1-0.6,0.2-1.2,0.2-1.9
		c0-0.6-0.1-1.3-0.2-1.9s-0.3-1.2-0.6-1.6c-0.3-0.5-0.7-0.9-1.2-1.2c-0.5-0.3-1.1-0.4-1.9-0.4c-0.7,0-1.4,0.1-1.8,0.4
		c-0.5,0.3-0.9,0.7-1.2,1.2c-0.3,0.5-0.5,1-0.6,1.6s-0.2,1.2-0.2,1.9C149.8,188.7,149.9,189.3,150,189.9z"/>
	<path class="st0" d="M172.1,178.1V174h18v4.1h-6.6V196h-4.8v-17.9H172.1z"/>
	<path class="st0" d="M192.4,180.6c0.5-1.4,1.2-2.6,2.1-3.7c0.9-1,2.1-1.9,3.4-2.5c1.3-0.6,2.9-0.9,4.5-0.9c1.7,0,3.2,0.3,4.6,0.9
		c1.3,0.6,2.5,1.4,3.4,2.5c0.9,1,1.6,2.3,2.1,3.7c0.5,1.4,0.7,2.9,0.7,4.6c0,1.6-0.2,3.1-0.7,4.5c-0.5,1.4-1.2,2.6-2.1,3.6
		c-0.9,1-2.1,1.8-3.4,2.4c-1.3,0.6-2.9,0.9-4.6,0.9c-1.7,0-3.2-0.3-4.5-0.9c-1.3-0.6-2.5-1.4-3.4-2.4c-0.9-1-1.6-2.2-2.1-3.6
		c-0.5-1.4-0.7-2.9-0.7-4.5C191.7,183.5,191.9,182,192.4,180.6z M196.8,187.8c0.2,0.9,0.6,1.7,1,2.4c0.5,0.7,1.1,1.3,1.8,1.7
		s1.7,0.6,2.8,0.6c1.1,0,2-0.2,2.8-0.6s1.4-1,1.8-1.7c0.5-0.7,0.8-1.5,1-2.4s0.3-1.8,0.3-2.7c0-1-0.1-1.9-0.3-2.8
		c-0.2-0.9-0.6-1.7-1-2.4c-0.5-0.7-1.1-1.3-1.8-1.7c-0.8-0.4-1.7-0.6-2.8-0.6c-1.1,0-2,0.2-2.8,0.6c-0.8,0.4-1.4,1-1.8,1.7
		c-0.5,0.7-0.8,1.5-1,2.4c-0.2,0.9-0.3,1.8-0.3,2.8C196.5,186.1,196.6,186.9,196.8,187.8z"/>
	<path class="st0" d="M216.4,180.6c0.5-1.4,1.2-2.6,2.1-3.7c0.9-1,2.1-1.9,3.4-2.5c1.3-0.6,2.9-0.9,4.5-0.9c1.7,0,3.2,0.3,4.6,0.9
		c1.3,0.6,2.5,1.4,3.4,2.5c0.9,1,1.6,2.3,2.1,3.7c0.5,1.4,0.7,2.9,0.7,4.6c0,1.6-0.2,3.1-0.7,4.5c-0.5,1.4-1.2,2.6-2.1,3.6
		c-0.9,1-2.1,1.8-3.4,2.4c-1.3,0.6-2.9,0.9-4.6,0.9c-1.7,0-3.2-0.3-4.5-0.9c-1.3-0.6-2.5-1.4-3.4-2.4c-0.9-1-1.6-2.2-2.1-3.6
		c-0.5-1.4-0.7-2.9-0.7-4.5C215.6,183.5,215.9,182,216.4,180.6z M220.8,187.8c0.2,0.9,0.6,1.7,1,2.4c0.5,0.7,1.1,1.3,1.8,1.7
		s1.7,0.6,2.8,0.6c1.1,0,2-0.2,2.8-0.6s1.4-1,1.8-1.7c0.5-0.7,0.8-1.5,1-2.4s0.3-1.8,0.3-2.7c0-1-0.1-1.9-0.3-2.8
		c-0.2-0.9-0.6-1.7-1-2.4c-0.5-0.7-1.1-1.3-1.8-1.7c-0.8-0.4-1.7-0.6-2.8-0.6c-1.1,0-2,0.2-2.8,0.6c-0.8,0.4-1.4,1-1.8,1.7
		c-0.5,0.7-0.8,1.5-1,2.4c-0.2,0.9-0.3,1.8-0.3,2.8C220.5,186.1,220.6,186.9,220.8,187.8z"/>
	<path class="st0" d="M238.8,178.1V174h18v4.1h-6.6V196h-4.8v-17.9H238.8z"/>
	<path class="st0" d="M264.2,174v8.4h8.9V174h4.8v22h-4.8v-9.5h-8.9v9.5h-4.8v-22H264.2z"/>
</g>
<g>
	<path class="st1" d="M69.4,226.9c-1.7,1.4-4,2.2-6.9,2.2c-3,0-5.3-0.7-6.9-2.2c-1.6-1.4-2.4-3.7-2.4-6.7v-13.7H58v13.7
		c0,0.6,0.1,1.2,0.2,1.8c0.1,0.6,0.3,1.1,0.6,1.5c0.3,0.4,0.8,0.8,1.4,1.1c0.6,0.3,1.4,0.4,2.4,0.4c1.7,0,2.9-0.4,3.6-1.2
		c0.7-0.8,1-2,1-3.6v-13.7h4.8v13.7C71.9,223.2,71.1,225.4,69.4,226.9z"/>
	<path class="st1" d="M80.9,206.5l9.2,14.8h0.1v-14.8h4.5v22h-4.8l-9.1-14.7h-0.1v14.7h-4.5v-22H80.9z"/>
	<path class="st1" d="M109.3,206.5c1,0,2,0.1,2.9,0.3c0.9,0.2,1.6,0.5,2.2,0.9c0.6,0.4,1.1,1,1.4,1.7c0.3,0.7,0.5,1.6,0.5,2.6
		c0,1.1-0.3,2-0.8,2.8c-0.5,0.7-1.2,1.3-2.2,1.8c1.4,0.4,2.4,1.1,3,2c0.7,1,1,2.2,1,3.5c0,1.1-0.2,2.1-0.6,2.9s-1,1.5-1.7,2
		c-0.7,0.5-1.6,0.9-2.5,1.1c-0.9,0.2-1.9,0.4-2.9,0.4H98.9v-22H109.3z M108.6,215.4c0.9,0,1.6-0.2,2.1-0.6c0.6-0.4,0.8-1.1,0.8-2
		c0-0.5-0.1-0.9-0.3-1.3c-0.2-0.3-0.4-0.6-0.7-0.8c-0.3-0.2-0.7-0.3-1.1-0.4c-0.4-0.1-0.8-0.1-1.2-0.1h-4.5v5.1H108.6z M108.9,224.8
		c0.5,0,0.9,0,1.4-0.1c0.4-0.1,0.8-0.2,1.1-0.5c0.3-0.2,0.6-0.5,0.8-0.9c0.2-0.4,0.3-0.8,0.3-1.4c0-1.1-0.3-1.9-1-2.4
		c-0.6-0.5-1.5-0.7-2.5-0.7h-5.3v6H108.9z"/>
	<path class="st1" d="M132.4,206.5c1,0,1.9,0.2,2.7,0.5c0.8,0.3,1.5,0.8,2,1.3c0.6,0.6,1,1.2,1.3,1.9c0.3,0.7,0.4,1.5,0.4,2.4
		c0,1.3-0.3,2.4-0.8,3.4c-0.5,0.9-1.4,1.7-2.7,2.2v0.1c0.6,0.2,1.1,0.4,1.5,0.8c0.4,0.3,0.7,0.7,1,1.2c0.2,0.5,0.4,1,0.5,1.5
		c0.1,0.6,0.2,1.1,0.2,1.7c0,0.3,0,0.8,0.1,1.2c0,0.5,0.1,1,0.1,1.4c0.1,0.5,0.1,1,0.2,1.4c0.1,0.4,0.3,0.8,0.5,1.1h-4.8
		c-0.3-0.7-0.4-1.5-0.5-2.5c-0.1-1-0.2-1.9-0.3-2.8c-0.2-1.1-0.5-2-1-2.5c-0.5-0.5-1.4-0.8-2.6-0.8h-4.8v8.6h-4.8v-22H132.4z
		 M130.7,216.5c1.1,0,1.9-0.2,2.5-0.7c0.6-0.5,0.8-1.3,0.8-2.4c0-1.1-0.3-1.8-0.8-2.3c-0.6-0.5-1.4-0.7-2.5-0.7h-5.3v6.2H130.7z"/>
	<path class="st1" d="M159,226.9c-1.7,1.4-4,2.2-6.9,2.2c-3,0-5.3-0.7-6.9-2.2c-1.6-1.4-2.4-3.7-2.4-6.7v-13.7h4.8v13.7
		c0,0.6,0.1,1.2,0.2,1.8c0.1,0.6,0.3,1.1,0.6,1.5s0.8,0.8,1.4,1.1c0.6,0.3,1.4,0.4,2.4,0.4c1.7,0,2.9-0.4,3.6-1.2s1-2,1-3.6v-13.7
		h4.8v13.7C161.5,223.2,160.7,225.4,159,226.9z"/>
	<path class="st1" d="M169.3,223.1c0.3,0.5,0.6,0.9,1.1,1.2s1,0.6,1.6,0.7c0.6,0.2,1.2,0.2,1.8,0.2c0.4,0,0.9,0,1.4-0.1
		c0.5-0.1,1-0.2,1.4-0.4c0.4-0.2,0.8-0.5,1.1-0.8c0.3-0.4,0.4-0.8,0.4-1.4c0-0.6-0.2-1.1-0.6-1.4c-0.4-0.4-0.9-0.7-1.5-0.9
		c-0.6-0.2-1.3-0.5-2.1-0.6c-0.8-0.2-1.6-0.4-2.4-0.6c-0.8-0.2-1.6-0.5-2.4-0.8c-0.8-0.3-1.5-0.7-2.1-1.2c-0.6-0.5-1.1-1.1-1.5-1.8
		c-0.4-0.7-0.6-1.6-0.6-2.6c0-1.1,0.2-2.1,0.7-2.9s1.1-1.5,1.9-2.1c0.8-0.6,1.7-1,2.6-1.2c1-0.3,2-0.4,3-0.4c1.1,0,2.3,0.1,3.3,0.4
		c1.1,0.3,2,0.7,2.8,1.2c0.8,0.6,1.5,1.3,2,2.2s0.7,2,0.7,3.2h-4.7c0-0.7-0.2-1.2-0.4-1.6c-0.2-0.4-0.5-0.8-0.9-1
		c-0.4-0.2-0.8-0.4-1.3-0.5c-0.5-0.1-1.1-0.2-1.6-0.2c-0.4,0-0.8,0-1.2,0.1c-0.4,0.1-0.7,0.2-1.1,0.4c-0.3,0.2-0.6,0.5-0.8,0.8
		c-0.2,0.3-0.3,0.7-0.3,1.2c0,0.4,0.1,0.8,0.2,1c0.2,0.3,0.5,0.5,1,0.7c0.5,0.2,1.1,0.5,2,0.7c0.9,0.2,2,0.5,3.3,0.9
		c0.4,0.1,1,0.2,1.7,0.4c0.7,0.2,1.5,0.6,2.2,1c0.7,0.5,1.3,1.1,1.9,1.9c0.5,0.8,0.8,1.8,0.8,3c0,1-0.2,1.9-0.6,2.8
		c-0.4,0.9-1,1.6-1.7,2.2c-0.8,0.6-1.7,1.1-2.9,1.5c-1.1,0.3-2.5,0.5-4,0.5c-1.2,0-2.4-0.1-3.5-0.4s-2.1-0.8-3-1.4
		c-0.9-0.6-1.6-1.4-2.1-2.4c-0.5-1-0.8-2.2-0.7-3.5h4.7C168.9,222,169.1,222.6,169.3,223.1z"/>
	<path class="st1" d="M190.5,206.5v8.4h8.9v-8.4h4.8v22h-4.8V219h-8.9v9.5h-4.8v-22H190.5z"/>
	<path class="st1" d="M224.9,206.5v4.1h-11.6v4.7H224v3.8h-10.7v5.4h11.9v4.1h-16.7v-22H224.9z"/>
	<path class="st1" d="M237.9,206.5c1.4,0,2.7,0.2,4,0.7s2.3,1.1,3.2,2c0.9,0.9,1.6,2,2.1,3.4c0.5,1.4,0.8,2.9,0.8,4.8
		c0,1.6-0.2,3.1-0.6,4.4s-1,2.5-1.9,3.5c-0.8,1-1.9,1.8-3.1,2.3c-1.2,0.6-2.7,0.8-4.4,0.8h-9.5v-22H237.9z M237.6,224.5
		c0.7,0,1.4-0.1,2-0.3c0.7-0.2,1.2-0.6,1.8-1.1c0.5-0.5,0.9-1.2,1.2-2c0.3-0.8,0.5-1.9,0.5-3.1c0-1.1-0.1-2.1-0.3-3
		c-0.2-0.9-0.6-1.7-1.1-2.3c-0.5-0.6-1.1-1.1-2-1.5s-1.8-0.5-3-0.5h-3.4v13.9H237.6z"/>
</g>
</svg>
