<?xml version="1.0" encoding="utf-8"?>
<!-- Generator: Adobe Illustrator 25.4.6, SVG Export Plug-In . SVG Version: 6.00 Build 0)  -->
<svg version="1.1" id="Layer_1" xmlns="http://www.w3.org/2000/svg" xmlns:xlink="http://www.w3.org/1999/xlink" x="0px" y="0px"
	 viewBox="0 0 300 600" style="enable-background:new 0 0 300 600;" xml:space="preserve">
<style type="text/css">
	.st0{fill:#373535;}
</style>
<g>
	<path class="st0" d="M55.6,174l8.2,22h-5l-1.7-4.9h-8.2l-1.7,4.9h-4.9l8.3-22H55.6z M55.8,187.5l-2.8-8.1H53l-2.9,8.1H55.8z"/>
	<path class="st0" d="M69.1,180.1v2.2h0.1c0.6-0.9,1.3-1.6,2.2-2c0.9-0.4,1.8-0.6,2.7-0.6c1.2,0,2.1,0.2,2.9,0.5
		c0.7,0.3,1.3,0.8,1.8,1.3c0.4,0.6,0.7,1.3,0.9,2.1c0.2,0.8,0.3,1.7,0.3,2.7v9.8h-4.4v-9c0-1.3-0.2-2.3-0.6-2.9
		c-0.4-0.6-1.1-1-2.2-1c-1.2,0-2.1,0.4-2.6,1.1c-0.5,0.7-0.8,1.9-0.8,3.5v8.3H65v-15.9H69.1z"/>
	<path class="st0" d="M94.2,194c-0.5,0.9-1.2,1.5-2,1.9s-1.8,0.6-2.8,0.6c-1.2,0-2.2-0.2-3.1-0.7c-0.9-0.5-1.6-1.1-2.2-1.9
		c-0.6-0.8-1-1.7-1.3-2.7c-0.3-1-0.4-2.1-0.4-3.2c0-1.1,0.1-2.1,0.4-3.1c0.3-1,0.7-1.9,1.3-2.6c0.6-0.8,1.3-1.4,2.2-1.8
		c0.9-0.5,1.9-0.7,3.1-0.7c0.9,0,1.8,0.2,2.7,0.6c0.9,0.4,1.5,1,2,1.8h0.1v-8h4.4v22h-4.2L94.2,194L94.2,194z M94.1,186.1
		c-0.1-0.6-0.3-1.1-0.6-1.6s-0.7-0.8-1.2-1.1c-0.5-0.3-1.1-0.4-1.8-0.4s-1.3,0.1-1.8,0.4s-0.9,0.7-1.2,1.1c-0.3,0.5-0.5,1-0.6,1.6
		c-0.1,0.6-0.2,1.2-0.2,1.9c0,0.6,0.1,1.2,0.2,1.8c0.1,0.6,0.4,1.2,0.7,1.6c0.3,0.5,0.7,0.9,1.2,1.2c0.5,0.3,1.1,0.4,1.7,0.4
		c0.7,0,1.3-0.1,1.8-0.4c0.5-0.3,0.9-0.7,1.2-1.2c0.3-0.5,0.5-1,0.6-1.6c0.1-0.6,0.2-1.3,0.2-1.9S94.2,186.7,94.1,186.1z"/>
	<path class="st0" d="M124.8,197.2c-0.2,0.8-0.5,1.6-1.1,2.3c-0.6,0.7-1.4,1.3-2.5,1.8c-1.1,0.5-2.5,0.7-4.4,0.7
		c-0.8,0-1.6-0.1-2.4-0.3c-0.8-0.2-1.6-0.5-2.2-0.9c-0.7-0.4-1.2-0.9-1.7-1.6c-0.4-0.6-0.7-1.4-0.8-2.3h4.3c0.2,0.8,0.6,1.4,1.2,1.7
		s1.3,0.5,2.1,0.5c1.2,0,2.1-0.4,2.7-1.1c0.6-0.7,0.8-1.7,0.8-2.8v-2.1h-0.1c-0.5,0.8-1.1,1.5-2,1.9c-0.9,0.4-1.8,0.6-2.8,0.6
		c-1.2,0-2.2-0.2-3.1-0.6c-0.9-0.4-1.6-1-2.1-1.7c-0.6-0.7-1-1.6-1.2-2.6c-0.3-1-0.4-2-0.4-3.1c0-1,0.1-2,0.4-3
		c0.3-1,0.7-1.8,1.3-2.5c0.6-0.7,1.3-1.3,2.1-1.7s1.8-0.6,2.9-0.6c1,0,2,0.2,2.8,0.6c0.8,0.4,1.5,1,2,2h0.1v-2.1h4.2V195
		C125.1,195.6,125,196.4,124.8,197.2z M118.8,191.9c0.5-0.2,0.9-0.6,1.2-1c0.3-0.4,0.5-0.9,0.7-1.4c0.2-0.5,0.2-1.1,0.2-1.6
		c0-0.7-0.1-1.3-0.2-1.9c-0.1-0.6-0.3-1.1-0.6-1.6c-0.3-0.5-0.7-0.8-1.1-1.1c-0.5-0.3-1.1-0.4-1.8-0.4c-0.6,0-1.1,0.1-1.6,0.4
		c-0.4,0.2-0.8,0.6-1.1,1c-0.3,0.4-0.5,0.9-0.6,1.4c-0.1,0.5-0.2,1.1-0.2,1.7c0,0.6,0.1,1.1,0.2,1.7c0.1,0.6,0.3,1.1,0.6,1.5
		c0.3,0.5,0.6,0.8,1.1,1.1c0.5,0.3,1,0.4,1.7,0.4C117.8,192.3,118.3,192.1,118.8,191.9z"/>
	<path class="st0" d="M133,192.2c0.7,0.6,1.6,1,2.8,1c0.9,0,1.6-0.2,2.3-0.7c0.6-0.4,1-0.9,1.2-1.4h3.8c-0.6,1.9-1.6,3.3-2.8,4.1
		s-2.8,1.2-4.6,1.2c-1.3,0-2.4-0.2-3.4-0.6c-1-0.4-1.9-1-2.6-1.7c-0.7-0.7-1.2-1.6-1.6-2.6c-0.4-1-0.6-2.2-0.6-3.4
		c0-1.2,0.2-2.3,0.6-3.3c0.4-1,0.9-1.9,1.7-2.7c0.7-0.7,1.6-1.3,2.6-1.8c1-0.4,2.1-0.6,3.3-0.6c1.4,0,2.5,0.3,3.5,0.8
		c1,0.5,1.8,1.2,2.5,2.1c0.6,0.9,1.1,1.9,1.4,3c0.3,1.1,0.4,2.3,0.3,3.5h-11.5C131.9,190.5,132.3,191.6,133,192.2z M137.9,183.8
		c-0.5-0.6-1.3-0.9-2.4-0.9c-0.7,0-1.3,0.1-1.7,0.4c-0.5,0.2-0.8,0.5-1.1,0.9s-0.5,0.7-0.6,1.1s-0.2,0.7-0.2,1h7.1
		C138.8,185.2,138.4,184.4,137.9,183.8z"/>
	<path class="st0" d="M154.4,180.1v2.9h-3.2v7.9c0,0.7,0.1,1.2,0.4,1.5c0.2,0.2,0.7,0.4,1.5,0.4c0.2,0,0.5,0,0.7,0
		c0.2,0,0.4-0.1,0.6-0.1v3.4c-0.4,0.1-0.8,0.1-1.2,0.1c-0.5,0-0.9,0-1.3,0c-0.7,0-1.3,0-1.9-0.1c-0.6-0.1-1.1-0.3-1.6-0.5
		c-0.5-0.3-0.8-0.6-1.1-1.1c-0.3-0.5-0.4-1.1-0.4-1.9V183h-2.6v-2.9h2.6v-4.8h4.4v4.8H154.4z"/>
	<path class="st0" d="M175.6,201.6V194h-0.1c-0.5,0.9-1.2,1.5-2.2,1.8c-0.9,0.4-1.9,0.6-2.9,0.6c-0.7,0-1.5-0.1-2.3-0.4
		c-0.8-0.3-1.5-0.7-2.2-1.4s-1.2-1.5-1.6-2.6c-0.4-1.1-0.6-2.4-0.6-3.9c0-1.1,0.1-2.1,0.4-3.2c0.3-1,0.7-1.9,1.3-2.7
		c0.6-0.8,1.3-1.4,2.2-1.9c0.9-0.5,1.9-0.7,3.2-0.7c1,0,1.9,0.2,2.8,0.6c0.9,0.4,1.6,1,2,1.9h0.1v-2h4.2v21.5H175.6z M168.4,189.9
		c0.1,0.6,0.3,1.2,0.6,1.6c0.3,0.5,0.7,0.9,1.2,1.2s1.1,0.4,1.8,0.4s1.3-0.1,1.8-0.4s0.9-0.6,1.2-1.1c0.3-0.5,0.5-1,0.6-1.6
		c0.1-0.6,0.2-1.2,0.2-1.9c0-0.6-0.1-1.2-0.2-1.8c-0.1-0.6-0.3-1.2-0.6-1.7c-0.3-0.5-0.7-0.9-1.2-1.2c-0.5-0.3-1.1-0.5-1.7-0.5
		c-0.7,0-1.3,0.1-1.8,0.4s-0.9,0.7-1.2,1.2c-0.3,0.5-0.5,1-0.7,1.6c-0.1,0.6-0.2,1.2-0.2,1.9C168.2,188.7,168.3,189.3,168.4,189.9z"
		/>
	<path class="st0" d="M193.8,196v-2.2h-0.1c-0.6,0.9-1.3,1.6-2.2,2c-0.9,0.4-1.8,0.6-2.7,0.6c-1.2,0-2.1-0.2-2.9-0.5
		c-0.8-0.3-1.3-0.7-1.8-1.3c-0.4-0.6-0.7-1.3-0.9-2.1s-0.3-1.7-0.3-2.7v-9.8h4.4v9c0,1.3,0.2,2.3,0.6,2.9c0.4,0.6,1.1,1,2.2,1
		c1.2,0,2.1-0.4,2.6-1.1s0.8-1.9,0.8-3.5v-8.3h4.4V196H193.8z"/>
	<path class="st0" d="M200.8,185c0.1-1,0.3-1.9,0.8-2.6c0.5-0.7,1-1.2,1.7-1.6c0.7-0.4,1.5-0.7,2.4-0.9s1.8-0.3,2.6-0.3
		c0.8,0,1.6,0.1,2.4,0.2c0.8,0.1,1.6,0.3,2.2,0.7c0.7,0.3,1.2,0.8,1.7,1.4c0.4,0.6,0.6,1.4,0.6,2.3v8.3c0,0.7,0,1.4,0.1,2.1
		c0.1,0.7,0.2,1.2,0.4,1.5h-4.4c-0.1-0.2-0.1-0.5-0.2-0.8c-0.1-0.3-0.1-0.5-0.1-0.8c-0.7,0.7-1.5,1.2-2.5,1.5
		c-0.9,0.3-1.9,0.4-2.9,0.4c-0.8,0-1.5-0.1-2.1-0.3c-0.7-0.2-1.2-0.5-1.7-0.9c-0.5-0.4-0.9-0.9-1.2-1.5c-0.3-0.6-0.4-1.3-0.4-2.1
		c0-0.9,0.2-1.6,0.5-2.2c0.3-0.6,0.7-1.1,1.2-1.4c0.5-0.3,1.1-0.6,1.7-0.8c0.6-0.2,1.3-0.3,2-0.4c0.7-0.1,1.3-0.2,1.9-0.2
		c0.6-0.1,1.2-0.2,1.7-0.3c0.5-0.1,0.9-0.3,1.2-0.5c0.3-0.2,0.4-0.6,0.4-1c0-0.5-0.1-0.8-0.2-1.1s-0.4-0.5-0.6-0.6
		c-0.3-0.2-0.6-0.3-0.9-0.3s-0.7-0.1-1.1-0.1c-0.9,0-1.5,0.2-2,0.6c-0.5,0.4-0.8,1-0.9,1.8H200.8z M210.9,188.2
		c-0.2,0.2-0.4,0.3-0.7,0.4c-0.3,0.1-0.6,0.2-0.9,0.2s-0.7,0.1-1,0.2c-0.3,0-0.7,0.1-1,0.2c-0.3,0.1-0.7,0.1-1,0.2
		c-0.3,0.1-0.6,0.2-0.8,0.4s-0.4,0.4-0.6,0.7c-0.1,0.3-0.2,0.6-0.2,1c0,0.4,0.1,0.7,0.2,1c0.1,0.3,0.3,0.5,0.6,0.6s0.5,0.3,0.9,0.3
		c0.3,0.1,0.7,0.1,1,0.1c0.9,0,1.5-0.1,2-0.4c0.5-0.3,0.8-0.6,1-1c0.2-0.4,0.4-0.8,0.4-1.2c0.1-0.4,0.1-0.7,0.1-1V188.2z"/>
	<path class="st0" d="M222.9,174v22h-4.4v-22H222.9z"/>
	<path class="st0" d="M226.2,177.6V174h4.4v3.6H226.2z M230.5,180.1V196h-4.4v-15.9H230.5z"/>
	<path class="st0" d="M242.4,180.1v2.9h-3.2v7.9c0,0.7,0.1,1.2,0.4,1.5c0.2,0.2,0.7,0.4,1.5,0.4c0.2,0,0.5,0,0.7,0
		c0.2,0,0.4-0.1,0.6-0.1v3.4c-0.4,0.1-0.8,0.1-1.2,0.1c-0.5,0-0.9,0-1.3,0c-0.7,0-1.3,0-1.9-0.1c-0.6-0.1-1.1-0.3-1.6-0.5
		c-0.5-0.3-0.8-0.6-1.1-1.1c-0.3-0.5-0.4-1.1-0.4-1.9V183h-2.6v-2.9h2.6v-4.8h4.4v4.8H242.4z"/>
	<path class="st0" d="M250.1,200.8c-0.8,0.6-2,0.8-3.5,0.8c-0.5,0-0.9,0-1.3,0c-0.4,0-0.9-0.1-1.3-0.1v-3.6c0.4,0,0.8,0.1,1.3,0.1
		c0.4,0,0.9,0.1,1.3,0c0.6-0.1,1-0.3,1.3-0.7c0.3-0.4,0.4-0.8,0.4-1.3c0-0.3-0.1-0.7-0.2-1l-5.6-14.9h4.7l3.6,10.9h0.1l3.5-10.9h4.5
		l-6.7,17.9C251.6,199.3,251,200.2,250.1,200.8z"/>
</g>
<g>
	<path class="st0" d="M49.1,214.9c-0.7,0-1.3,0.2-1.8,0.5c-0.5,0.3-0.9,0.7-1.2,1.2c-0.3,0.5-0.5,1.1-0.6,1.7
		c-0.1,0.6-0.2,1.2-0.2,1.8c0,0.6,0.1,1.2,0.2,1.8c0.1,0.6,0.3,1.1,0.6,1.6c0.3,0.5,0.7,0.9,1.1,1.2c0.5,0.3,1,0.5,1.7,0.5
		c1,0,1.9-0.3,2.4-0.9c0.6-0.6,0.9-1.4,1.1-2.4h4.2c-0.3,2.1-1.1,3.7-2.5,4.8c-1.4,1.1-3.1,1.7-5.2,1.7c-1.2,0-2.3-0.2-3.3-0.6
		c-1-0.4-1.8-1-2.5-1.7c-0.7-0.7-1.2-1.6-1.6-2.6c-0.4-1-0.6-2.1-0.6-3.3c0-1.2,0.2-2.4,0.5-3.4c0.4-1.1,0.9-2,1.6-2.7
		s1.6-1.4,2.6-1.8c1-0.4,2.2-0.6,3.4-0.6c0.9,0,1.9,0.1,2.7,0.4c0.9,0.2,1.7,0.6,2.3,1.1c0.7,0.5,1.2,1.1,1.7,1.9
		c0.4,0.8,0.7,1.6,0.7,2.7h-4.3C52.1,215.8,51,214.9,49.1,214.9z"/>
	<path class="st0" d="M59,216.5c0.4-1,0.9-1.9,1.7-2.6c0.7-0.7,1.6-1.3,2.6-1.7c1-0.4,2.1-0.6,3.4-0.6c1.3,0,2.4,0.2,3.4,0.6
		s1.9,1,2.6,1.7c0.7,0.7,1.3,1.6,1.7,2.6c0.4,1,0.6,2.2,0.6,3.5c0,1.3-0.2,2.4-0.6,3.4s-0.9,1.9-1.7,2.6c-0.7,0.7-1.6,1.3-2.6,1.7
		c-1,0.4-2.2,0.6-3.4,0.6c-1.3,0-2.4-0.2-3.4-0.6c-1-0.4-1.9-0.9-2.6-1.7c-0.7-0.7-1.3-1.6-1.7-2.6s-0.6-2.2-0.6-3.4
		C58.4,218.7,58.6,217.6,59,216.5z M63,221.8c0.1,0.6,0.3,1.2,0.6,1.6c0.3,0.5,0.7,0.9,1.2,1.2s1.1,0.4,1.8,0.4s1.4-0.1,1.9-0.4
		c0.5-0.3,0.9-0.7,1.2-1.2c0.3-0.5,0.5-1,0.6-1.6c0.1-0.6,0.2-1.2,0.2-1.9c0-0.6-0.1-1.3-0.2-1.9c-0.1-0.6-0.3-1.2-0.6-1.6
		c-0.3-0.5-0.7-0.9-1.2-1.2c-0.5-0.3-1.1-0.4-1.9-0.4s-1.4,0.1-1.8,0.4c-0.5,0.3-0.9,0.7-1.2,1.2c-0.3,0.5-0.5,1-0.6,1.6
		c-0.1,0.6-0.2,1.2-0.2,1.9C62.8,220.6,62.9,221.2,63,221.8z"/>
	<path class="st0" d="M81.4,227.9L75.9,212h4.6l3.4,10.9H84l3.4-10.9h4.3l-5.4,15.9H81.4z"/>
	<path class="st0" d="M97.9,224.1c0.7,0.6,1.6,1,2.8,1c0.9,0,1.6-0.2,2.3-0.7c0.6-0.4,1-0.9,1.2-1.4h3.9c-0.6,1.9-1.6,3.3-2.8,4.1
		c-1.3,0.8-2.8,1.2-4.6,1.2c-1.3,0-2.4-0.2-3.4-0.6c-1-0.4-1.9-1-2.6-1.7c-0.7-0.7-1.2-1.6-1.6-2.6c-0.4-1-0.6-2.2-0.6-3.4
		c0-1.2,0.2-2.3,0.6-3.3c0.4-1,0.9-1.9,1.7-2.7c0.7-0.7,1.6-1.3,2.6-1.8c1-0.4,2.1-0.6,3.3-0.6c1.4,0,2.5,0.3,3.5,0.8
		c1,0.5,1.8,1.2,2.5,2.1c0.6,0.9,1.1,1.9,1.4,3c0.3,1.1,0.4,2.3,0.3,3.5H96.8C96.9,222.4,97.2,223.5,97.9,224.1z M102.8,215.7
		c-0.5-0.6-1.3-0.9-2.4-0.9c-0.7,0-1.3,0.1-1.7,0.4c-0.5,0.2-0.8,0.5-1.1,0.9s-0.5,0.7-0.6,1.1s-0.2,0.7-0.2,1h7.1
		C103.7,217.1,103.3,216.3,102.8,215.7z"/>
	<path class="st0" d="M114.8,212v3h0.1c0.2-0.5,0.5-0.9,0.8-1.4c0.3-0.4,0.7-0.8,1.2-1.1c0.5-0.3,0.9-0.5,1.4-0.7
		c0.5-0.2,1-0.2,1.6-0.2c0.3,0,0.6,0.1,1,0.2v4.1c-0.2,0-0.5-0.1-0.7-0.1s-0.6,0-0.8,0c-0.8,0-1.5,0.1-2,0.4c-0.6,0.3-1,0.6-1.3,1.1
		s-0.6,1-0.7,1.6c-0.1,0.6-0.2,1.3-0.2,2v7.2h-4.4V212H114.8z"/>
	<path class="st0" d="M122.1,216.9c0.1-1,0.3-1.9,0.8-2.6c0.5-0.7,1-1.2,1.7-1.6c0.7-0.4,1.5-0.7,2.4-0.9c0.9-0.2,1.8-0.3,2.6-0.3
		c0.8,0,1.6,0.1,2.4,0.2c0.8,0.1,1.6,0.3,2.2,0.7c0.7,0.3,1.2,0.8,1.7,1.4c0.4,0.6,0.6,1.4,0.6,2.3v8.3c0,0.7,0,1.4,0.1,2.1
		c0.1,0.7,0.2,1.2,0.4,1.5h-4.4c-0.1-0.2-0.1-0.5-0.2-0.8c-0.1-0.3-0.1-0.5-0.1-0.8c-0.7,0.7-1.5,1.2-2.5,1.5
		c-0.9,0.3-1.9,0.4-2.9,0.4c-0.8,0-1.5-0.1-2.1-0.3c-0.7-0.2-1.2-0.5-1.7-0.9c-0.5-0.4-0.9-0.9-1.2-1.5c-0.3-0.6-0.4-1.3-0.4-2.1
		c0-0.9,0.2-1.6,0.5-2.2c0.3-0.6,0.7-1.1,1.2-1.4c0.5-0.3,1.1-0.6,1.7-0.8c0.6-0.2,1.3-0.3,2-0.4c0.7-0.1,1.3-0.2,1.9-0.2
		c0.6-0.1,1.2-0.2,1.7-0.3c0.5-0.1,0.9-0.3,1.2-0.5c0.3-0.2,0.4-0.6,0.4-1c0-0.5-0.1-0.8-0.2-1.1c-0.2-0.3-0.4-0.5-0.6-0.6
		c-0.3-0.2-0.6-0.3-0.9-0.3c-0.3-0.1-0.7-0.1-1.1-0.1c-0.9,0-1.5,0.2-2,0.6s-0.8,1-0.9,1.8H122.1z M132.2,220.1
		c-0.2,0.2-0.4,0.3-0.7,0.4c-0.3,0.1-0.6,0.2-0.9,0.2c-0.3,0.1-0.7,0.1-1,0.2c-0.3,0-0.7,0.1-1,0.2c-0.3,0.1-0.7,0.1-1,0.2
		c-0.3,0.1-0.6,0.2-0.8,0.4c-0.2,0.2-0.4,0.4-0.6,0.7c-0.1,0.3-0.2,0.6-0.2,1c0,0.4,0.1,0.7,0.2,1c0.1,0.3,0.3,0.5,0.6,0.6
		c0.2,0.2,0.5,0.3,0.9,0.3c0.3,0.1,0.7,0.1,1,0.1c0.9,0,1.5-0.1,2-0.4c0.5-0.3,0.8-0.6,1-1c0.2-0.4,0.4-0.8,0.4-1.2
		c0.1-0.4,0.1-0.7,0.1-1V220.1z"/>
	<path class="st0" d="M154.7,229.1c-0.2,0.8-0.5,1.6-1.1,2.3c-0.6,0.7-1.4,1.3-2.5,1.8c-1.1,0.5-2.5,0.7-4.4,0.7
		c-0.8,0-1.6-0.1-2.4-0.3c-0.8-0.2-1.6-0.5-2.2-0.9c-0.7-0.4-1.2-0.9-1.7-1.6c-0.4-0.6-0.7-1.4-0.8-2.3h4.3c0.2,0.8,0.6,1.4,1.2,1.7
		s1.3,0.5,2.1,0.5c1.2,0,2.1-0.4,2.7-1.1c0.6-0.7,0.8-1.7,0.8-2.8V225h-0.1c-0.5,0.8-1.1,1.5-2,1.9s-1.8,0.6-2.8,0.6
		c-1.2,0-2.2-0.2-3.1-0.6c-0.9-0.4-1.6-1-2.1-1.7c-0.6-0.7-1-1.6-1.2-2.6c-0.3-1-0.4-2-0.4-3.1c0-1,0.1-2,0.4-3
		c0.3-1,0.7-1.8,1.3-2.5c0.6-0.7,1.3-1.3,2.1-1.7s1.8-0.6,2.9-0.6c1,0,2,0.2,2.8,0.6c0.8,0.4,1.5,1,2,2h0.1V212h4.2v14.9
		C155,227.5,154.9,228.3,154.7,229.1z M148.8,223.8c0.5-0.2,0.9-0.6,1.2-1c0.3-0.4,0.5-0.9,0.7-1.4s0.2-1.1,0.2-1.6
		c0-0.7-0.1-1.3-0.2-1.9c-0.1-0.6-0.3-1.1-0.6-1.6s-0.7-0.8-1.1-1.1c-0.5-0.3-1.1-0.4-1.8-0.4c-0.6,0-1.1,0.1-1.6,0.4
		c-0.4,0.2-0.8,0.6-1.1,1c-0.3,0.4-0.5,0.9-0.6,1.4c-0.1,0.5-0.2,1.1-0.2,1.7c0,0.6,0.1,1.1,0.2,1.7c0.1,0.6,0.3,1.1,0.6,1.5
		s0.6,0.8,1.1,1.1c0.5,0.3,1,0.4,1.7,0.4C147.7,224.2,148.3,224,148.8,223.8z"/>
	<path class="st0" d="M162.9,224.1c0.7,0.6,1.6,1,2.8,1c0.9,0,1.6-0.2,2.3-0.7c0.6-0.4,1-0.9,1.2-1.4h3.8c-0.6,1.9-1.6,3.3-2.8,4.1
		c-1.3,0.8-2.8,1.2-4.6,1.2c-1.3,0-2.4-0.2-3.4-0.6c-1-0.4-1.9-1-2.6-1.7c-0.7-0.7-1.2-1.6-1.6-2.6c-0.4-1-0.6-2.2-0.6-3.4
		c0-1.2,0.2-2.3,0.6-3.3c0.4-1,0.9-1.9,1.7-2.7c0.7-0.7,1.6-1.3,2.6-1.8c1-0.4,2.1-0.6,3.3-0.6c1.4,0,2.5,0.3,3.5,0.8
		s1.8,1.2,2.5,2.1s1.1,1.9,1.4,3c0.3,1.1,0.4,2.3,0.3,3.5h-11.5C161.9,222.4,162.3,223.5,162.9,224.1z M167.9,215.7
		c-0.5-0.6-1.3-0.9-2.4-0.9c-0.7,0-1.3,0.1-1.7,0.4c-0.5,0.2-0.8,0.5-1.1,0.9c-0.3,0.3-0.5,0.7-0.6,1.1s-0.2,0.7-0.2,1h7.1
		C168.8,217.1,168.4,216.3,167.9,215.7z"/>
	<path class="st0" d="M192.6,212v2.9h-3.2v7.9c0,0.7,0.1,1.2,0.4,1.5c0.2,0.2,0.7,0.4,1.5,0.4c0.2,0,0.5,0,0.7,0
		c0.2,0,0.4-0.1,0.6-0.1v3.4c-0.4,0.1-0.8,0.1-1.2,0.1c-0.5,0-0.9,0-1.3,0c-0.7,0-1.3,0-1.9-0.1c-0.6-0.1-1.1-0.3-1.6-0.5
		c-0.5-0.3-0.8-0.6-1.1-1.1c-0.3-0.5-0.4-1.1-0.4-1.9v-9.4h-2.6V212h2.6v-4.8h4.4v4.8H192.6z"/>
	<path class="st0" d="M198.8,205.9v8.3h0.1c0.6-0.9,1.3-1.6,2.1-2c0.9-0.4,1.7-0.6,2.5-0.6c1.2,0,2.1,0.2,2.9,0.5
		c0.7,0.3,1.3,0.8,1.8,1.3c0.4,0.6,0.7,1.3,0.9,2.1c0.2,0.8,0.3,1.7,0.3,2.7v9.8H205v-9c0-1.3-0.2-2.3-0.6-2.9s-1.1-1-2.2-1
		c-1.2,0-2.1,0.4-2.6,1.1c-0.5,0.7-0.8,1.9-0.8,3.5v8.3h-4.4v-22H198.8z"/>
	<path class="st0" d="M212.3,216.9c0.1-1,0.3-1.9,0.8-2.6c0.5-0.7,1-1.2,1.7-1.6c0.7-0.4,1.5-0.7,2.4-0.9s1.8-0.3,2.6-0.3
		c0.8,0,1.6,0.1,2.4,0.2c0.8,0.1,1.6,0.3,2.2,0.7c0.7,0.3,1.2,0.8,1.7,1.4c0.4,0.6,0.6,1.4,0.6,2.3v8.3c0,0.7,0,1.4,0.1,2.1
		c0.1,0.7,0.2,1.2,0.4,1.5h-4.4c-0.1-0.2-0.1-0.5-0.2-0.8c-0.1-0.3-0.1-0.5-0.1-0.8c-0.7,0.7-1.5,1.2-2.5,1.5
		c-0.9,0.3-1.9,0.4-2.9,0.4c-0.8,0-1.5-0.1-2.1-0.3c-0.7-0.2-1.2-0.5-1.7-0.9c-0.5-0.4-0.9-0.9-1.2-1.5c-0.3-0.6-0.4-1.3-0.4-2.1
		c0-0.9,0.2-1.6,0.5-2.2c0.3-0.6,0.7-1.1,1.2-1.4c0.5-0.3,1.1-0.6,1.7-0.8c0.6-0.2,1.3-0.3,2-0.4c0.7-0.1,1.3-0.2,1.9-0.2
		c0.6-0.1,1.2-0.2,1.7-0.3c0.5-0.1,0.9-0.3,1.2-0.5c0.3-0.2,0.4-0.6,0.4-1c0-0.5-0.1-0.8-0.2-1.1s-0.4-0.5-0.6-0.6
		c-0.3-0.2-0.6-0.3-0.9-0.3s-0.7-0.1-1.1-0.1c-0.9,0-1.5,0.2-2,0.6c-0.5,0.4-0.8,1-0.9,1.8H212.3z M222.4,220.1
		c-0.2,0.2-0.4,0.3-0.7,0.4c-0.3,0.1-0.6,0.2-0.9,0.2s-0.7,0.1-1,0.2c-0.3,0-0.7,0.1-1,0.2c-0.3,0.1-0.7,0.1-1,0.2
		c-0.3,0.1-0.6,0.2-0.8,0.4s-0.4,0.4-0.6,0.7c-0.1,0.3-0.2,0.6-0.2,1c0,0.4,0.1,0.7,0.2,1c0.1,0.3,0.3,0.5,0.6,0.6s0.5,0.3,0.9,0.3
		c0.3,0.1,0.7,0.1,1,0.1c0.9,0,1.5-0.1,2-0.4c0.5-0.3,0.8-0.6,1-1c0.2-0.4,0.4-0.8,0.4-1.2c0.1-0.4,0.1-0.7,0.1-1V220.1z"/>
	<path class="st0" d="M238.6,212v2.9h-3.2v7.9c0,0.7,0.1,1.2,0.4,1.5c0.2,0.2,0.7,0.4,1.5,0.4c0.2,0,0.5,0,0.7,0
		c0.2,0,0.4-0.1,0.6-0.1v3.4c-0.4,0.1-0.8,0.1-1.2,0.1c-0.5,0-0.9,0-1.3,0c-0.7,0-1.3,0-1.9-0.1c-0.6-0.1-1.1-0.3-1.6-0.5
		c-0.5-0.3-0.8-0.6-1.1-1.1c-0.3-0.5-0.4-1.1-0.4-1.9v-9.4h-2.6V212h2.6v-4.8h4.4v4.8H238.6z"/>
	<path class="st0" d="M245.2,205.9v4.7c0,0.7-0.1,1.3-0.3,1.9c-0.2,0.6-0.5,1.1-0.9,1.6s-0.9,0.8-1.4,1.1c-0.5,0.3-1.1,0.5-1.8,0.6
		v-2c0.8-0.3,1.3-0.7,1.6-1.2c0.3-0.5,0.4-1.2,0.4-1.9h-2v-4.7H245.2z"/>
	<path class="st0" d="M250.1,224c0.2,0.3,0.4,0.6,0.8,0.8c0.3,0.2,0.7,0.4,1.1,0.5c0.4,0.1,0.8,0.2,1.2,0.2c0.3,0,0.6,0,1-0.1
		c0.3-0.1,0.6-0.2,0.9-0.3s0.5-0.4,0.7-0.6c0.2-0.3,0.3-0.6,0.3-1c0-0.7-0.4-1.1-1.3-1.5c-0.9-0.3-2.1-0.7-3.6-1
		c-0.6-0.1-1.3-0.3-1.9-0.5c-0.6-0.2-1.1-0.5-1.6-0.8c-0.5-0.3-0.9-0.7-1.1-1.2c-0.3-0.5-0.4-1.1-0.4-1.8c0-1,0.2-1.9,0.6-2.5
		c0.4-0.7,0.9-1.2,1.6-1.6c0.7-0.4,1.4-0.6,2.2-0.8c0.8-0.2,1.7-0.2,2.5-0.2c0.9,0,1.7,0.1,2.5,0.2c0.8,0.2,1.5,0.4,2.2,0.8
		c0.6,0.4,1.2,0.9,1.6,1.6c0.4,0.6,0.7,1.5,0.8,2.4h-4.2c-0.1-0.8-0.4-1.4-1-1.7c-0.6-0.3-1.3-0.4-2-0.4c-0.2,0-0.5,0-0.8,0
		c-0.3,0-0.5,0.1-0.8,0.2c-0.2,0.1-0.4,0.3-0.6,0.4c-0.2,0.2-0.2,0.5-0.2,0.8c0,0.4,0.1,0.7,0.4,1s0.7,0.4,1.1,0.6s1,0.3,1.6,0.4
		c0.6,0.1,1.2,0.3,1.8,0.4c0.6,0.1,1.3,0.3,1.9,0.5c0.6,0.2,1.1,0.5,1.6,0.8c0.5,0.3,0.9,0.8,1.1,1.3c0.3,0.5,0.4,1.1,0.4,1.9
		c0,1-0.2,1.9-0.6,2.6s-1,1.3-1.6,1.7s-1.5,0.7-2.3,0.9c-0.9,0.2-1.8,0.3-2.7,0.3c-0.9,0-1.8-0.1-2.7-0.3c-0.9-0.2-1.7-0.5-2.4-0.9
		c-0.7-0.4-1.3-1-1.7-1.7c-0.4-0.7-0.7-1.6-0.7-2.7h4.2C249.8,223.2,249.9,223.6,250.1,224z"/>
</g>
<path class="st0" d="M40.7,248.8c0.1-1,0.3-1.9,0.8-2.6c0.5-0.7,1-1.2,1.7-1.6c0.7-0.4,1.5-0.7,2.4-0.9c0.9-0.2,1.8-0.3,2.6-0.3
	c0.8,0,1.6,0.1,2.4,0.2c0.8,0.1,1.6,0.3,2.2,0.7c0.7,0.3,1.2,0.8,1.7,1.4c0.4,0.6,0.6,1.4,0.6,2.3v8.3c0,0.7,0,1.4,0.1,2.1
	c0.1,0.7,0.2,1.2,0.4,1.5h-4.4c-0.1-0.2-0.1-0.5-0.2-0.8c-0.1-0.3-0.1-0.5-0.1-0.8c-0.7,0.7-1.5,1.2-2.5,1.5
	c-0.9,0.3-1.9,0.4-2.9,0.4c-0.8,0-1.5-0.1-2.1-0.3c-0.7-0.2-1.2-0.5-1.7-0.9c-0.5-0.4-0.9-0.9-1.2-1.5c-0.3-0.6-0.4-1.3-0.4-2.1
	c0-0.9,0.2-1.6,0.5-2.2c0.3-0.6,0.7-1.1,1.2-1.4c0.5-0.3,1.1-0.6,1.7-0.8c0.6-0.2,1.3-0.3,2-0.4c0.7-0.1,1.3-0.2,1.9-0.2
	c0.6-0.1,1.2-0.2,1.7-0.3c0.5-0.1,0.9-0.3,1.2-0.5c0.3-0.2,0.4-0.6,0.4-1c0-0.5-0.1-0.8-0.2-1.1s-0.4-0.5-0.6-0.6
	c-0.3-0.2-0.6-0.3-0.9-0.3c-0.3-0.1-0.7-0.1-1.1-0.1c-0.9,0-1.5,0.2-2,0.6c-0.5,0.4-0.8,1-0.9,1.8H40.7z M50.8,252
	c-0.2,0.2-0.4,0.3-0.7,0.4c-0.3,0.1-0.6,0.2-0.9,0.2c-0.3,0.1-0.7,0.1-1,0.2c-0.3,0-0.7,0.1-1,0.2c-0.3,0.1-0.7,0.1-1,0.2
	c-0.3,0.1-0.6,0.2-0.8,0.4c-0.2,0.2-0.4,0.4-0.6,0.7c-0.1,0.3-0.2,0.6-0.2,1c0,0.4,0.1,0.7,0.2,1c0.1,0.3,0.3,0.5,0.6,0.6
	c0.2,0.2,0.5,0.3,0.9,0.3c0.3,0.1,0.7,0.1,1,0.1c0.9,0,1.5-0.1,2-0.4c0.5-0.3,0.8-0.6,1-1c0.2-0.4,0.4-0.8,0.4-1.2
	c0.1-0.4,0.1-0.7,0.1-1V252z M58.4,237.8v22h4.4v-22H58.4z M69.3,254.7h-4.2c0,1.1,0.3,2,0.7,2.7c0.4,0.7,1,1.3,1.7,1.7
	c0.7,0.4,1.5,0.7,2.4,0.9c0.9,0.2,1.8,0.3,2.7,0.3c0.9,0,1.8-0.1,2.7-0.3c0.9-0.2,1.6-0.5,2.3-0.9c0.7-0.4,1.2-1,1.6-1.7
	c0.4-0.7,0.6-1.6,0.6-2.6c0-0.7-0.1-1.4-0.4-1.9c-0.3-0.5-0.7-0.9-1.1-1.3c-0.5-0.3-1-0.6-1.6-0.8c-0.6-0.2-1.2-0.4-1.9-0.5
	c-0.6-0.1-1.2-0.3-1.8-0.4c-0.6-0.1-1.1-0.3-1.6-0.4c-0.5-0.2-0.8-0.4-1.1-0.6c-0.3-0.2-0.4-0.6-0.4-1c0-0.3,0.1-0.6,0.2-0.8
	c0.2-0.2,0.4-0.3,0.6-0.4c0.2-0.1,0.5-0.2,0.8-0.2c0.3,0,0.6,0,0.8,0c0.8,0,1.5,0.1,2,0.4c0.6,0.3,0.9,0.9,1,1.7h4.2
	c-0.1-1-0.3-1.8-0.8-2.4c-0.4-0.6-0.9-1.2-1.6-1.6c-0.6-0.4-1.4-0.7-2.2-0.8c-0.8-0.2-1.6-0.2-2.5-0.2c-0.9,0-1.7,0.1-2.5,0.2
	c-0.8,0.2-1.6,0.4-2.2,0.8c-0.7,0.4-1.2,0.9-1.6,1.6c-0.4,0.7-0.6,1.5-0.6,2.5c0,0.7,0.1,1.3,0.4,1.8c0.3,0.5,0.7,0.9,1.1,1.2
	c0.5,0.3,1,0.6,1.6,0.8c0.6,0.2,1.2,0.4,1.9,0.5c1.6,0.3,2.8,0.7,3.6,1c0.9,0.3,1.3,0.8,1.3,1.5c0,0.4-0.1,0.7-0.3,1
	c-0.2,0.3-0.4,0.5-0.7,0.6c-0.3,0.2-0.6,0.3-0.9,0.3c-0.3,0.1-0.7,0.1-1,0.1c-0.4,0-0.8-0.1-1.2-0.2c-0.4-0.1-0.8-0.3-1.1-0.5
	c-0.3-0.2-0.6-0.5-0.8-0.8C69.4,255.5,69.3,255.1,69.3,254.7z M81.7,251.9c0,1.3,0.2,2.4,0.6,3.4c0.4,1,0.9,1.9,1.7,2.6
	c0.7,0.7,1.6,1.3,2.6,1.7c1,0.4,2.1,0.6,3.4,0.6c1.3,0,2.4-0.2,3.4-0.6c1-0.4,1.9-0.9,2.6-1.7c0.7-0.7,1.3-1.6,1.7-2.6
	c0.4-1,0.6-2.2,0.6-3.4c0-1.3-0.2-2.4-0.6-3.5c-0.4-1-0.9-1.9-1.7-2.6c-0.7-0.7-1.6-1.3-2.6-1.7c-1-0.4-2.2-0.6-3.4-0.6
	c-1.3,0-2.4,0.2-3.4,0.6c-1,0.4-1.9,1-2.6,1.7c-0.7,0.7-1.3,1.6-1.7,2.6C81.9,249.5,81.7,250.6,81.7,251.9z M86,251.9
	c0-0.6,0.1-1.3,0.2-1.9s0.3-1.2,0.6-1.6c0.3-0.5,0.7-0.9,1.2-1.2c0.5-0.3,1.1-0.4,1.8-0.4c0.7,0,1.4,0.1,1.9,0.4
	c0.5,0.3,0.9,0.7,1.2,1.2c0.3,0.5,0.5,1,0.6,1.6s0.2,1.2,0.2,1.9c0,0.6-0.1,1.3-0.2,1.9c-0.1,0.6-0.3,1.2-0.6,1.6
	c-0.3,0.5-0.7,0.9-1.2,1.2c-0.5,0.3-1.1,0.4-1.9,0.4c-0.7,0-1.4-0.1-1.8-0.4c-0.5-0.3-0.9-0.7-1.2-1.2c-0.3-0.5-0.5-1-0.6-1.6
	C86.1,253.1,86,252.5,86,251.9z M108.7,248.8c0.1-1,0.3-1.9,0.8-2.6c0.5-0.7,1-1.2,1.7-1.6c0.7-0.4,1.5-0.7,2.4-0.9
	c0.9-0.2,1.8-0.3,2.6-0.3c0.8,0,1.6,0.1,2.4,0.2c0.8,0.1,1.6,0.3,2.2,0.7c0.7,0.3,1.2,0.8,1.7,1.4c0.4,0.6,0.6,1.4,0.6,2.3v8.3
	c0,0.7,0,1.4,0.1,2.1c0.1,0.7,0.2,1.2,0.4,1.5h-4.4c-0.1-0.2-0.1-0.5-0.2-0.8c-0.1-0.3-0.1-0.5-0.1-0.8c-0.7,0.7-1.5,1.2-2.5,1.5
	c-0.9,0.3-1.9,0.4-2.9,0.4c-0.8,0-1.5-0.1-2.1-0.3c-0.7-0.2-1.2-0.5-1.7-0.9c-0.5-0.4-0.9-0.9-1.2-1.5c-0.3-0.6-0.4-1.3-0.4-2.1
	c0-0.9,0.2-1.6,0.5-2.2c0.3-0.6,0.7-1.1,1.2-1.4c0.5-0.3,1.1-0.6,1.7-0.8c0.6-0.2,1.3-0.3,2-0.4c0.7-0.1,1.3-0.2,1.9-0.2
	c0.6-0.1,1.2-0.2,1.7-0.3c0.5-0.1,0.9-0.3,1.2-0.5c0.3-0.2,0.4-0.6,0.4-1c0-0.5-0.1-0.8-0.2-1.1s-0.4-0.5-0.6-0.6
	c-0.3-0.2-0.6-0.3-0.9-0.3c-0.3-0.1-0.7-0.1-1.1-0.1c-0.9,0-1.5,0.2-2,0.6s-0.8,1-0.9,1.8H108.7z M118.8,252
	c-0.2,0.2-0.4,0.3-0.7,0.4c-0.3,0.1-0.6,0.2-0.9,0.2c-0.3,0.1-0.7,0.1-1,0.2c-0.3,0-0.7,0.1-1,0.2c-0.3,0.1-0.7,0.1-1,0.2
	c-0.3,0.1-0.6,0.2-0.8,0.4c-0.2,0.2-0.4,0.4-0.6,0.7c-0.1,0.3-0.2,0.6-0.2,1c0,0.4,0.1,0.7,0.2,1c0.1,0.3,0.3,0.5,0.6,0.6
	c0.2,0.2,0.5,0.3,0.9,0.3c0.3,0.1,0.7,0.1,1,0.1c0.9,0,1.5-0.1,2-0.4c0.5-0.3,0.8-0.6,1-1c0.2-0.4,0.4-0.8,0.4-1.2
	c0.1-0.4,0.1-0.7,0.1-1V252z M136.6,246.8h-5v13h-4.4v-13h-2.6v-2.9h2.6v-1.2c0-1.4,0.4-2.6,1.3-3.5c0.9-0.9,2.2-1.4,4-1.4
	c0.4,0,0.8,0,1.2,0c0.4,0,0.8,0.1,1.1,0.1v3.3c-0.5-0.1-1.1-0.1-1.6-0.1c-0.6,0-1,0.1-1.3,0.4c-0.3,0.3-0.4,0.7-0.4,1.4v0.9h5v-1.2
	c0-1.4,0.4-2.6,1.3-3.5c0.9-0.9,2.2-1.4,4-1.4c0.4,0,0.8,0,1.2,0c0.4,0,0.8,0.1,1.1,0.1v3.3c-0.5-0.1-1.1-0.1-1.6-0.1
	c-0.6,0-1,0.1-1.3,0.4c-0.3,0.3-0.4,0.7-0.4,1.4v0.9h3v2.9h-3v13h-4.4V246.8z M145.1,251.9c0,1.3,0.2,2.4,0.6,3.4
	c0.4,1,0.9,1.9,1.7,2.6c0.7,0.7,1.6,1.3,2.6,1.7c1,0.4,2.1,0.6,3.4,0.6c1.3,0,2.4-0.2,3.4-0.6c1-0.4,1.9-0.9,2.6-1.7
	c0.7-0.7,1.3-1.6,1.7-2.6c0.4-1,0.6-2.2,0.6-3.4c0-1.3-0.2-2.4-0.6-3.5c-0.4-1-0.9-1.9-1.7-2.6c-0.7-0.7-1.6-1.3-2.6-1.7
	c-1-0.4-2.2-0.6-3.4-0.6c-1.3,0-2.4,0.2-3.4,0.6c-1,0.4-1.9,1-2.6,1.7c-0.7,0.7-1.3,1.6-1.7,2.6
	C145.3,249.5,145.1,250.6,145.1,251.9z M149.5,251.9c0-0.6,0.1-1.3,0.2-1.9s0.3-1.2,0.6-1.6c0.3-0.5,0.7-0.9,1.2-1.2
	c0.5-0.3,1.1-0.4,1.8-0.4s1.4,0.1,1.9,0.4c0.5,0.3,0.9,0.7,1.2,1.2c0.3,0.5,0.5,1,0.6,1.6s0.2,1.2,0.2,1.9c0,0.6-0.1,1.3-0.2,1.9
	c-0.1,0.6-0.3,1.2-0.6,1.6c-0.3,0.5-0.7,0.9-1.2,1.2c-0.5,0.3-1.1,0.4-1.9,0.4s-1.4-0.1-1.8-0.4c-0.5-0.3-0.9-0.7-1.2-1.2
	c-0.3-0.5-0.5-1-0.6-1.6C149.5,253.1,149.5,252.5,149.5,251.9z M164.1,243.9v15.9h4.4v-7.2c0-0.7,0.1-1.4,0.2-2
	c0.1-0.6,0.4-1.2,0.7-1.6c0.3-0.5,0.8-0.8,1.3-1.1c0.6-0.3,1.2-0.4,2-0.4c0.3,0,0.5,0,0.8,0c0.3,0,0.5,0.1,0.7,0.1v-4.1
	c-0.3-0.1-0.7-0.2-1-0.2c-0.6,0-1.1,0.1-1.6,0.2c-0.5,0.2-1,0.4-1.4,0.7c-0.5,0.3-0.9,0.7-1.2,1.1c-0.3,0.4-0.6,0.9-0.8,1.4h-0.1v-3
	H164.1z M186.6,257.8v2h4.2v-22h-4.4v8h-0.1c-0.5-0.8-1.2-1.4-2-1.8c-0.9-0.4-1.8-0.6-2.7-0.6c-1.2,0-2.2,0.2-3.1,0.7
	c-0.9,0.5-1.6,1.1-2.2,1.8c-0.6,0.8-1,1.6-1.3,2.6c-0.3,1-0.4,2-0.4,3.1c0,1.1,0.1,2.2,0.4,3.2c0.3,1,0.7,1.9,1.3,2.7
	c0.6,0.8,1.3,1.4,2.2,1.9c0.9,0.5,2,0.7,3.1,0.7c1,0,2-0.2,2.8-0.6S186,258.7,186.6,257.8L186.6,257.8z M186.5,251.8
	c0,0.7-0.1,1.3-0.2,1.9s-0.3,1.2-0.6,1.6c-0.3,0.5-0.7,0.9-1.2,1.2c-0.5,0.3-1.1,0.4-1.8,0.4c-0.7,0-1.3-0.1-1.7-0.4
	c-0.5-0.3-0.9-0.7-1.2-1.2c-0.3-0.5-0.5-1-0.7-1.6c-0.1-0.6-0.2-1.2-0.2-1.8c0-0.7,0.1-1.3,0.2-1.9c0.1-0.6,0.3-1.1,0.6-1.6
	c0.3-0.5,0.7-0.9,1.2-1.1c0.5-0.3,1.1-0.4,1.8-0.4c0.7,0,1.3,0.1,1.8,0.4c0.5,0.3,0.9,0.7,1.2,1.1c0.3,0.5,0.5,1,0.6,1.6
	C186.4,250.5,186.5,251.2,186.5,251.8z M193.5,248.8c0.1-1,0.3-1.9,0.8-2.6c0.5-0.7,1-1.2,1.7-1.6c0.7-0.4,1.5-0.7,2.4-0.9
	c0.9-0.2,1.8-0.3,2.6-0.3c0.8,0,1.6,0.1,2.4,0.2c0.8,0.1,1.6,0.3,2.2,0.7c0.7,0.3,1.2,0.8,1.7,1.4c0.4,0.6,0.6,1.4,0.6,2.3v8.3
	c0,0.7,0,1.4,0.1,2.1c0.1,0.7,0.2,1.2,0.4,1.5h-4.4c-0.1-0.2-0.1-0.5-0.2-0.8c-0.1-0.3-0.1-0.5-0.1-0.8c-0.7,0.7-1.5,1.2-2.5,1.5
	c-0.9,0.3-1.9,0.4-2.9,0.4c-0.8,0-1.5-0.1-2.1-0.3c-0.7-0.2-1.2-0.5-1.7-0.9c-0.5-0.4-0.9-0.9-1.2-1.5c-0.3-0.6-0.4-1.3-0.4-2.1
	c0-0.9,0.2-1.6,0.5-2.2c0.3-0.6,0.7-1.1,1.2-1.4c0.5-0.3,1.1-0.6,1.7-0.8c0.6-0.2,1.3-0.3,2-0.4c0.7-0.1,1.3-0.2,1.9-0.2
	c0.6-0.1,1.2-0.2,1.7-0.3c0.5-0.1,0.9-0.3,1.2-0.5c0.3-0.2,0.4-0.6,0.4-1c0-0.5-0.1-0.8-0.2-1.1c-0.2-0.3-0.4-0.5-0.6-0.6
	c-0.3-0.2-0.6-0.3-0.9-0.3c-0.3-0.1-0.7-0.1-1.1-0.1c-0.9,0-1.5,0.2-2,0.6s-0.8,1-0.9,1.8H193.5z M203.6,252
	c-0.2,0.2-0.4,0.3-0.7,0.4c-0.3,0.1-0.6,0.2-0.9,0.2c-0.3,0.1-0.7,0.1-1,0.2c-0.3,0-0.7,0.1-1,0.2c-0.3,0.1-0.7,0.1-1,0.2
	c-0.3,0.1-0.6,0.2-0.8,0.4c-0.2,0.2-0.4,0.4-0.6,0.7c-0.1,0.3-0.2,0.6-0.2,1c0,0.4,0.1,0.7,0.2,1c0.1,0.3,0.3,0.5,0.6,0.6
	c0.2,0.2,0.5,0.3,0.9,0.3c0.3,0.1,0.7,0.1,1,0.1c0.9,0,1.5-0.1,2-0.4c0.5-0.3,0.8-0.6,1-1c0.2-0.4,0.4-0.8,0.4-1.2
	c0.1-0.4,0.1-0.7,0.1-1V252z M211.1,237.8v22h4.2v-2h0.1c0.5,0.9,1.2,1.5,2.1,1.9c0.9,0.4,2,0.6,3.1,0.6c0.8,0,1.6-0.2,2.4-0.5
	c0.8-0.3,1.5-0.8,2.1-1.5c0.6-0.7,1.1-1.5,1.5-2.6c0.4-1.1,0.6-2.3,0.6-3.8c0-1.5-0.2-2.7-0.6-3.8c-0.4-1.1-0.9-1.9-1.5-2.6
	c-0.6-0.7-1.3-1.2-2.1-1.5c-0.8-0.3-1.6-0.5-2.4-0.5c-1,0-1.9,0.2-2.8,0.6c-0.9,0.4-1.6,1-2.2,1.8h-0.1v-8H211.1z M222.8,251.9
	c0,0.7-0.1,1.3-0.2,1.9c-0.1,0.6-0.4,1.2-0.7,1.6c-0.3,0.5-0.7,0.8-1.2,1.1c-0.5,0.3-1,0.4-1.7,0.4c-0.6,0-1.2-0.1-1.7-0.4
	c-0.5-0.3-0.9-0.7-1.2-1.1c-0.3-0.5-0.5-1-0.7-1.6c-0.1-0.6-0.2-1.3-0.2-1.9c0-0.7,0.1-1.3,0.2-1.9c0.1-0.6,0.4-1.2,0.7-1.6
	c0.3-0.5,0.7-0.8,1.2-1.1c0.5-0.3,1-0.4,1.7-0.4c0.7,0,1.2,0.1,1.7,0.4c0.5,0.3,0.8,0.7,1.2,1.1c0.3,0.5,0.5,1,0.7,1.6
	C222.7,250.6,222.8,251.2,222.8,251.9z M229.7,237.8v22h4.4v-22H229.7z M240.8,252.9h11.5c0.1-1.2,0-2.4-0.3-3.5
	c-0.3-1.1-0.8-2.1-1.4-3c-0.6-0.9-1.5-1.6-2.5-2.1c-1-0.5-2.2-0.8-3.5-0.8c-1.2,0-2.3,0.2-3.3,0.6c-1,0.4-1.9,1-2.6,1.8
	c-0.7,0.7-1.3,1.6-1.7,2.7c-0.4,1-0.6,2.1-0.6,3.3c0,1.2,0.2,2.4,0.6,3.4c0.4,1,0.9,1.9,1.6,2.6c0.7,0.7,1.6,1.3,2.6,1.7
	c1,0.4,2.1,0.6,3.4,0.6c1.8,0,3.3-0.4,4.6-1.2c1.3-0.8,2.2-2.2,2.8-4.1h-3.9c-0.1,0.5-0.5,1-1.2,1.4c-0.6,0.4-1.4,0.7-2.3,0.7
	c-1.2,0-2.2-0.3-2.8-1C241.3,255.4,240.9,254.3,240.8,252.9z M248,250.2h-7.1c0-0.3,0.1-0.7,0.2-1c0.1-0.4,0.3-0.8,0.6-1.1
	c0.3-0.3,0.6-0.6,1.1-0.9c0.5-0.2,1-0.4,1.7-0.4c1.1,0,1.9,0.3,2.4,0.9C247.4,248.2,247.7,249,248,250.2z M254.8,255.1v4.7h4.8v-4.7
	H254.8z"/>
</svg>
