<svg xmlns="http://www.w3.org/2000/svg" viewBox="0 0 300 600"><path d="M60.9 174l8.2 22h-5l-1.7-4.9h-8.2l-1.7 4.9h-4.9l8.3-22h5zm.3 13.5l-2.8-8.1h-.1l-2.9 8.1h5.8zM80.3 174c1.4 0 2.7.2 4 .7s2.3 1.1 3.2 2c.9.9 1.6 2 2.1 3.4s.8 2.9.8 4.8c0 1.6-.2 3.1-.6 4.4s-1 2.5-1.9 3.5c-.8 1-1.9 1.8-3.1 2.3-1.2.6-2.7.8-4.4.8h-9.5v-22h9.4zm-.4 18c.7 0 1.4-.1 2-.3.7-.2 1.2-.6 1.8-1.1.5-.5.9-1.2 1.2-2 .3-.8.5-1.9.5-3.1 0-1.1-.1-2.1-.3-3-.2-.9-.6-1.7-1.1-2.3-.5-.6-1.1-1.1-2-1.5-.8-.3-1.8-.5-3-.5h-3.4V192h4.3zM104.3 174l8.2 22h-5l-1.7-4.9h-8.2l-1.7 4.9H91l8.3-22h5zm.3 13.5l-2.8-8.1h-.1l-2.9 8.1h5.8zM131.9 174c1.4 0 2.7.2 4 .7s2.3 1.1 3.2 2c.9.9 1.6 2 2.1 3.4s.8 2.9.8 4.8c0 1.6-.2 3.1-.6 4.4s-1 2.5-1.9 3.5c-.8 1-1.9 1.8-3.1 2.3-1.2.6-2.7.8-4.4.8h-9.5v-22h9.4zm-.4 18c.7 0 1.4-.1 2-.3.7-.2 1.2-.6 1.8-1.1.5-.5.9-1.2 1.2-2 .3-.8.5-1.9.5-3.1 0-1.1-.1-2.1-.3-3-.2-.9-.6-1.7-1.1-2.3-.5-.6-1.1-1.1-2-1.5-.8-.3-1.8-.5-3-.5h-3.4V192h4.3zM144.6 177.6V174h4.4v3.6h-4.4zm4.3 2.5V196h-4.4v-15.9h4.4zM155.8 192.1c.2.3.4.6.8.8.3.2.7.4 1.1.5.4.1.8.2 1.2.2.3 0 .6 0 1-.1l.9-.3c.3-.1.5-.4.7-.6.2-.3.3-.6.3-1 0-.7-.4-1.1-1.3-1.5-.9-.3-2.1-.7-3.6-1-.6-.1-1.3-.3-1.9-.5-.6-.2-1.1-.5-1.6-.8-.5-.3-.9-.7-1.1-1.2-.3-.5-.4-1.1-.4-1.8 0-1 .2-1.9.6-2.5.4-.7.9-1.2 1.6-1.6.7-.4 1.4-.6 2.2-.8.8-.2 1.7-.2 2.5-.2.9 0 1.7.1 2.5.2.8.2 1.5.4 2.2.8.6.4 1.2.9 1.6 1.6.4.6.7 1.5.8 2.4h-4.2c-.1-.8-.4-1.4-1-1.7-.6-.3-1.3-.4-2-.4h-.8c-.3 0-.5.1-.8.2-.2.1-.4.3-.6.4-.2.2-.2.5-.2.8 0 .4.1.7.4 1s.7.4 1.1.6 1 .3 1.6.4c.6.1 1.2.3 1.8.4.6.1 1.3.3 1.9.5.6.2 1.1.5 1.6.8.5.3.9.8 1.1 1.3.3.5.4 1.1.4 1.9 0 1-.2 1.9-.6 2.6s-1 1.3-1.6 1.7-1.5.7-2.3.9c-.9.2-1.8.3-2.7.3-.9 0-1.8-.1-2.7-.3-.9-.2-1.7-.5-2.4-.9s-1.3-1-1.7-1.7c-.4-.7-.7-1.6-.7-2.7h4.2c-.2.5-.1.9.1 1.3zM168.2 185c.1-1 .3-1.9.8-2.6.5-.7 1-1.2 1.7-1.6.7-.4 1.5-.7 2.4-.9s1.8-.3 2.6-.3 1.6.1 2.4.2c.8.1 1.6.3 2.2.7.7.3 1.2.8 1.7 1.4.4.6.6 1.4.6 2.3v8.3c0 .7 0 1.4.1 2.1.1.7.2 1.2.4 1.5h-4.4c-.1-.2-.1-.5-.2-.8-.1-.3-.1-.5-.1-.8-.7.7-1.5 1.2-2.5 1.5-.9.3-1.9.4-2.9.4-.8 0-1.5-.1-2.1-.3-.7-.2-1.2-.5-1.7-.9s-.9-.9-1.2-1.5c-.3-.6-.4-1.3-.4-2.1 0-.9.2-1.6.5-2.2.3-.6.7-1.1 1.2-1.4.5-.3 1.1-.6 1.7-.8.6-.2 1.3-.3 2-.4.7-.1 1.3-.2 1.9-.2.6-.1 1.2-.2 1.7-.3.5-.1.9-.3 1.2-.5.3-.2.4-.6.4-1 0-.5-.1-.8-.2-1.1s-.4-.5-.6-.6c-.3-.2-.6-.3-.9-.3s-.7-.1-1.1-.1c-.9 0-1.5.2-2 .6-.5.4-.8 1-.9 1.8h-4.3zm10.1 3.2c-.2.2-.4.3-.7.4-.3.1-.6.2-.9.2s-.7.1-1 .2c-.3 0-.7.1-1 .2-.3.1-.7.1-1 .2-.3.1-.6.2-.8.4s-.4.4-.6.7c-.1.3-.2.6-.2 1s.1.7.2 1c.1.3.3.5.6.6s.5.3.9.3c.3.1.7.1 1 .1.9 0 1.5-.1 2-.4.5-.3.8-.6 1-1 .2-.4.4-.8.4-1.2.1-.4.1-.7.1-1v-1.7zM190.1 174v8h.1c.5-.8 1.3-1.4 2.2-1.8.9-.4 1.9-.6 2.8-.6.8 0 1.6.2 2.4.5s1.5.8 2.1 1.5c.6.7 1.1 1.5 1.5 2.6.4 1.1.6 2.3.6 3.8s-.2 2.7-.6 3.8c-.4 1.1-.9 1.9-1.5 2.6-.6.7-1.3 1.2-2.1 1.5s-1.6.5-2.4.5c-1.2 0-2.2-.2-3.1-.6-.9-.4-1.6-1-2.1-1.9h-.1v2h-4.2v-22h4.4zm7.1 12.1c-.1-.6-.4-1.2-.7-1.6-.3-.5-.7-.8-1.2-1.1-.5-.3-1-.4-1.7-.4-.6 0-1.2.1-1.7.4-.5.3-.9.7-1.2 1.1-.3.5-.5 1-.7 1.6-.1.6-.2 1.3-.2 1.9 0 .7.1 1.3.2 1.9.1.6.4 1.2.7 1.6.3.5.7.8 1.2 1.1s1 .4 1.7.4 1.2-.1 1.7-.4.8-.7 1.2-1.1c.3-.5.5-1 .7-1.6.1-.6.2-1.3.2-1.9 0-.6 0-1.2-.2-1.9zM204.4 177.6V174h4.4v3.6h-4.4zm4.4 2.5V196h-4.4v-15.9h4.4zM216.4 174v22H212v-22h4.4zM219.7 177.6V174h4.4v3.6h-4.4zm4.4 2.5V196h-4.4v-15.9h4.4zM235.9 180.1v2.9h-3.2v7.9c0 .7.1 1.2.4 1.5.2.2.7.4 1.5.4h.7c.2 0 .4-.1.6-.1v3.4c-.4.1-.8.1-1.2.1h-1.3c-.7 0-1.3 0-1.9-.1-.6-.1-1.1-.3-1.6-.5-.5-.3-.8-.6-1.1-1.1-.3-.5-.4-1.1-.4-1.9V183h-2.6v-2.9h2.6v-4.8h4.4v4.8h3.1zM243.6 200.8c-.8.6-2 .8-3.5.8h-1.3c-.4 0-.9-.1-1.3-.1v-3.6c.4 0 .8.1 1.3.1.4 0 .9.1 1.3 0 .6-.1 1-.3 1.3-.7.3-.4.4-.8.4-1.3 0-.3-.1-.7-.2-1l-5.6-14.9h4.7l3.6 10.9h.1l3.5-10.9h4.5l-6.7 17.9c-.6 1.3-1.2 2.2-2.1 2.8z"/><g><path d="M23.9 205v22H19v-22h4.9zM31.5 211.1v2.2h.1c.6-.9 1.3-1.6 2.2-2 .9-.4 1.8-.6 2.7-.6 1.2 0 2.1.2 2.9.5.7.3 1.3.8 1.8 1.3.4.6.7 1.3.9 2.1.2.8.3 1.7.3 2.7v9.8H38v-9c0-1.3-.2-2.3-.6-2.9-.4-.6-1.1-1-2.2-1-1.2 0-2.1.4-2.6 1.1-.5.7-.8 1.9-.8 3.5v8.3h-4.4v-15.9h4.1zM52.9 214c-.7 0-1.3.2-1.8.5s-.9.7-1.2 1.2c-.3.5-.5 1.1-.6 1.7-.1.6-.2 1.2-.2 1.8 0 .6.1 1.2.2 1.8.1.6.3 1.1.6 1.6s.7.9 1.1 1.2c.5.3 1 .5 1.7.5 1 0 1.9-.3 2.4-.9.6-.6.9-1.4 1.1-2.4h4.2c-.3 2.1-1.1 3.7-2.5 4.8-1.4 1.1-3.1 1.7-5.2 1.7-1.2 0-2.3-.2-3.3-.6-1-.4-1.8-1-2.5-1.7s-1.2-1.6-1.6-2.6c-.4-1-.6-2.1-.6-3.3 0-1.2.2-2.4.5-3.4.4-1.1.9-2 1.6-2.7s1.6-1.4 2.6-1.8c1-.4 2.2-.6 3.4-.6.9 0 1.9.1 2.7.4.9.2 1.7.6 2.3 1.1.7.5 1.2 1.1 1.7 1.9.4.8.7 1.6.7 2.7h-4.3c0-2-1.1-2.9-3-2.9zM62.8 215.6c.4-1 .9-1.9 1.7-2.6.7-.7 1.6-1.3 2.6-1.7 1-.4 2.1-.6 3.4-.6 1.3 0 2.4.2 3.4.6s1.9 1 2.6 1.7c.7.7 1.3 1.6 1.7 2.6.4 1 .6 2.2.6 3.5 0 1.3-.2 2.4-.6 3.4s-.9 1.9-1.7 2.6c-.7.7-1.6 1.3-2.6 1.7-1 .4-2.2.6-3.4.6-1.3 0-2.4-.2-3.4-.6-1-.4-1.9-.9-2.6-1.7-.7-.7-1.3-1.6-1.7-2.6s-.6-2.2-.6-3.4c.1-1.3.2-2.4.6-3.5zm4 5.3c.1.6.3 1.2.6 1.6.3.5.7.9 1.2 1.2s1.1.4 1.8.4 1.4-.1 1.9-.4c.5-.3.9-.7 1.2-1.2.3-.5.5-1 .6-1.6.1-.6.2-1.2.2-1.9 0-.6-.1-1.3-.2-1.9-.1-.6-.3-1.2-.6-1.6-.3-.5-.7-.9-1.2-1.2-.5-.3-1.1-.4-1.9-.4s-1.4.1-1.8.4c-.5.3-.9.7-1.2 1.2-.3.5-.5 1-.6 1.6-.1.6-.2 1.2-.2 1.9s.1 1.3.2 1.9zM85.5 211.1v2.2h.1c.6-.8 1.3-1.5 2.1-1.9.8-.5 1.7-.7 2.8-.7 1 0 1.9.2 2.8.6.8.4 1.5 1.1 1.9 2.1.5-.7 1.1-1.3 1.9-1.8.8-.5 1.8-.8 2.9-.8.8 0 1.6.1 2.3.3.7.2 1.3.5 1.8 1s.9 1 1.2 1.8.4 1.6.4 2.6V227h-4.4v-9c0-.5 0-1-.1-1.5 0-.5-.2-.9-.3-1.2-.2-.3-.5-.6-.8-.8-.4-.2-.8-.3-1.5-.3-.6 0-1.1.1-1.5.4s-.7.5-.9.9c-.2.4-.4.8-.4 1.3-.1.5-.1 1-.1 1.5v8.9h-4.4v-8.9-1.4c0-.5-.1-.9-.3-1.3-.2-.4-.4-.7-.8-.9-.4-.2-.9-.4-1.6-.4-.2 0-.5 0-.8.1-.3.1-.7.3-1 .5-.3.3-.6.6-.8 1.1-.2.5-.3 1.1-.3 1.9v9.2h-4.4v-15.9h4.2zM113.6 223.2c.7.6 1.6 1 2.8 1 .9 0 1.6-.2 2.3-.7.6-.4 1-.9 1.2-1.4h3.9c-.6 1.9-1.6 3.3-2.8 4.1-1.3.8-2.8 1.2-4.6 1.2-1.3 0-2.4-.2-3.4-.6-1-.4-1.9-1-2.6-1.7-.7-.7-1.2-1.6-1.6-2.6-.4-1-.6-2.2-.6-3.4 0-1.2.2-2.3.6-3.3.4-1 .9-1.9 1.7-2.7.7-.7 1.6-1.3 2.6-1.8 1-.4 2.1-.6 3.3-.6 1.4 0 2.5.3 3.5.8s1.8 1.2 2.5 2.1c.6.9 1.1 1.9 1.4 3 .3 1.1.4 2.3.3 3.5h-11.5c0 1.4.3 2.5 1 3.1zm4.9-8.4c-.5-.6-1.3-.9-2.4-.9-.7 0-1.3.1-1.7.4-.5.2-.8.5-1.1.9s-.5.7-.6 1.1-.2.7-.2 1h7.1c-.2-1.1-.5-1.9-1.1-2.5zM144.9 205c1.4 0 2.5.2 3.5.6s1.8.9 2.4 1.6c.6.7 1 1.4 1.3 2.2.3.8.4 1.7.4 2.6 0 .9-.1 1.8-.4 2.6-.3.9-.7 1.6-1.3 2.3-.6.7-1.4 1.2-2.4 1.6s-2.1.6-3.5.6h-5.1v7.9H135v-22h9.9zm-1.3 10.4c.6 0 1.1 0 1.6-.1s1-.2 1.4-.5c.4-.2.7-.6.9-1s.4-1 .4-1.7-.1-1.3-.4-1.7-.5-.8-.9-1c-.4-.2-.8-.4-1.4-.5-.5-.1-1-.1-1.6-.1h-3.8v6.6h3.8zM159 211.1v3h.1c.2-.5.5-.9.8-1.4.3-.4.7-.8 1.2-1.1.5-.3.9-.5 1.4-.7.5-.2 1-.2 1.6-.2.3 0 .6.1 1 .2v4.1c-.2 0-.5-.1-.7-.1h-.8c-.8 0-1.5.1-2 .4-.6.3-1 .6-1.3 1.1s-.6 1-.7 1.6c-.1.6-.2 1.3-.2 2v7.2H155v-15.9h4zM166.1 215.6c.4-1 .9-1.9 1.7-2.6.7-.7 1.6-1.3 2.6-1.7s2.1-.6 3.4-.6c1.3 0 2.4.2 3.4.6 1 .4 1.9 1 2.6 1.7.7.7 1.3 1.6 1.7 2.6.4 1 .6 2.2.6 3.5 0 1.3-.2 2.4-.6 3.4-.4 1-.9 1.9-1.7 2.6-.7.7-1.6 1.3-2.6 1.7-1 .4-2.2.6-3.4.6-1.3 0-2.4-.2-3.4-.6-1-.4-1.9-.9-2.6-1.7-.7-.7-1.3-1.6-1.7-2.6-.4-1-.6-2.2-.6-3.4 0-1.3.2-2.4.6-3.5zm3.9 5.3c.1.6.3 1.2.6 1.6.3.5.7.9 1.2 1.2s1.1.4 1.8.4 1.4-.1 1.9-.4c.5-.3.9-.7 1.2-1.2.3-.5.5-1 .6-1.6.1-.6.2-1.2.2-1.9 0-.6-.1-1.3-.2-1.9s-.3-1.2-.6-1.6c-.3-.5-.7-.9-1.2-1.2-.5-.3-1.1-.4-1.9-.4-.7 0-1.4.1-1.8.4-.5.3-.9.7-1.2 1.2-.3.5-.5 1-.6 1.6s-.2 1.2-.2 1.9c.1.7.1 1.3.2 1.9zM193.2 211.1v2.9H190v7.9c0 .7.1 1.2.4 1.5.2.2.7.4 1.5.4h.7c.2 0 .4-.1.6-.1v3.4c-.4.1-.8.1-1.2.1h-1.3c-.7 0-1.3 0-1.9-.1-.6-.1-1.1-.3-1.6-.5-.5-.3-.8-.6-1.1-1.1-.3-.5-.4-1.1-.4-1.9V214H183v-2.9h2.6v-4.8h4.4v4.8h3.2zM199.7 223.2c.7.6 1.6 1 2.8 1 .9 0 1.6-.2 2.3-.7.6-.4 1-.9 1.2-1.4h3.8c-.6 1.9-1.6 3.3-2.8 4.1-1.3.8-2.8 1.2-4.6 1.2-1.3 0-2.4-.2-3.4-.6-1-.4-1.9-1-2.6-1.7-.7-.7-1.2-1.6-1.6-2.6-.4-1-.6-2.2-.6-3.4 0-1.2.2-2.3.6-3.3.4-1 .9-1.9 1.7-2.7.7-.7 1.6-1.3 2.6-1.8 1-.4 2.1-.6 3.3-.6 1.4 0 2.5.3 3.5.8s1.8 1.2 2.5 2.1 1.1 1.9 1.4 3c.3 1.1.4 2.3.3 3.5h-11.5c.1 1.4.5 2.5 1.1 3.1zm5-8.4c-.5-.6-1.3-.9-2.4-.9-.7 0-1.3.1-1.7.4-.5.2-.8.5-1.1.9-.3.3-.5.7-.6 1.1s-.2.7-.2 1h7.1c-.2-1.1-.6-1.9-1.1-2.5zM220.1 214c-.7 0-1.3.2-1.8.5s-.9.7-1.2 1.2c-.3.5-.5 1.1-.6 1.7-.1.6-.2 1.2-.2 1.8 0 .6.1 1.2.2 1.8.1.6.3 1.1.6 1.6s.7.9 1.1 1.2c.5.3 1 .5 1.7.5 1 0 1.9-.3 2.4-.9.6-.6.9-1.4 1.1-2.4h4.2c-.3 2.1-1.1 3.7-2.5 4.8-1.4 1.1-3.1 1.7-5.2 1.7-1.2 0-2.3-.2-3.3-.6s-1.8-1-2.5-1.7-1.2-1.6-1.6-2.6c-.4-1-.6-2.1-.6-3.3 0-1.2.2-2.4.5-3.4.4-1.1.9-2 1.6-2.7.7-.8 1.5-1.4 2.6-1.8s2.2-.6 3.5-.6c.9 0 1.9.1 2.7.4.9.2 1.7.6 2.3 1.1.7.5 1.2 1.1 1.7 1.9.4.8.7 1.6.7 2.7h-4.3c-.2-2-1.3-2.9-3.1-2.9zM238.6 211.1v2.9h-3.2v7.9c0 .7.1 1.2.4 1.5.2.2.7.4 1.5.4h.7c.2 0 .4-.1.6-.1v3.4c-.4.1-.8.1-1.2.1h-1.3c-.7 0-1.3 0-1.9-.1-.6-.1-1.1-.3-1.6-.5-.5-.3-.8-.6-1.1-1.1-.3-.5-.4-1.1-.4-1.9V214h-2.6v-2.9h2.6v-4.8h4.4v4.8h3.1zM240.5 208.6V205h4.4v3.6h-4.4zm4.4 2.5V227h-4.4v-15.9h4.4zM248.2 215.6c.4-1 .9-1.9 1.7-2.6.7-.7 1.6-1.3 2.6-1.7s2.1-.6 3.4-.6c1.3 0 2.4.2 3.4.6 1 .4 1.9 1 2.6 1.7.7.7 1.3 1.6 1.7 2.6.4 1 .6 2.2.6 3.5 0 1.3-.2 2.4-.6 3.4-.4 1-.9 1.9-1.7 2.6-.7.7-1.6 1.3-2.6 1.7-1 .4-2.2.6-3.4.6-1.3 0-2.4-.2-3.4-.6-1-.4-1.9-.9-2.6-1.7-.7-.7-1.3-1.6-1.7-2.6-.4-1-.6-2.2-.6-3.4 0-1.3.2-2.4.6-3.5zm4 5.3c.1.6.3 1.2.6 1.6.3.5.7.9 1.2 1.2s1.1.4 1.8.4 1.4-.1 1.9-.4c.5-.3.9-.7 1.2-1.2.3-.5.5-1 .6-1.6.1-.6.2-1.2.2-1.9 0-.6-.1-1.3-.2-1.9s-.3-1.2-.6-1.6c-.3-.5-.7-.9-1.2-1.2-.5-.3-1.1-.4-1.9-.4-.7 0-1.4.1-1.8.4-.5.3-.9.7-1.2 1.2-.3.5-.5 1-.6 1.6s-.2 1.2-.2 1.9 0 1.3.2 1.9zM270.8 211.1v2.2h.1c.6-.9 1.3-1.6 2.2-2 .9-.4 1.8-.6 2.7-.6 1.2 0 2.1.2 2.9.5.7.3 1.3.8 1.8 1.3.4.6.7 1.3.9 2.1.2.8.3 1.7.3 2.7v9.8h-4.4v-9c0-1.3-.2-2.3-.6-2.9s-1.1-1-2.2-1c-1.2 0-2.1.4-2.6 1.1-.5.7-.8 1.9-.8 3.5v8.3h-4.4v-15.9h4.1z"/></g><g><path d="M85.4 236v22h-4.8v-22h4.8zM93 242.1v2.2h.1c.6-.9 1.3-1.6 2.2-2 .9-.4 1.8-.6 2.7-.6 1.2 0 2.1.2 2.9.5.7.3 1.3.8 1.8 1.3.4.6.7 1.3.9 2.1.2.8.3 1.7.3 2.7v9.8h-4.4v-9c0-1.3-.2-2.3-.6-2.9-.4-.6-1.1-1-2.2-1-1.2 0-2.1.4-2.6 1.1-.5.7-.8 1.9-.8 3.5v8.3h-4.4v-15.9H93zM110.5 254.1c.2.3.4.6.8.8.3.2.7.4 1.1.5.4.1.8.2 1.2.2.3 0 .6 0 1-.1l.9-.3c.3-.2.5-.4.7-.6.2-.3.3-.6.3-1 0-.7-.4-1.1-1.3-1.5-.9-.3-2.1-.7-3.6-1-.6-.1-1.3-.3-1.9-.5-.6-.2-1.1-.5-1.6-.8-.5-.3-.9-.7-1.1-1.2-.3-.5-.4-1.1-.4-1.8 0-1 .2-1.9.6-2.5.4-.7.9-1.2 1.6-1.6.7-.4 1.4-.6 2.2-.8.8-.2 1.7-.2 2.5-.2s1.7.1 2.5.2c.8.2 1.5.4 2.2.8.6.4 1.2.9 1.6 1.6.4.6.7 1.5.8 2.4h-4.2c-.1-.8-.4-1.4-1-1.7-.6-.3-1.3-.4-2-.4h-.8c-.3 0-.5.1-.8.2-.2.1-.4.3-.6.4-.2.2-.2.5-.2.8 0 .4.1.7.4 1s.7.4 1.1.6 1 .3 1.6.4c.6.1 1.2.3 1.8.4.6.1 1.3.3 1.9.5.6.2 1.1.5 1.6.8.5.3.9.8 1.1 1.3.3.5.4 1.1.4 1.9 0 1-.2 1.9-.6 2.6-.4.7-1 1.3-1.6 1.7s-1.5.7-2.3.9c-.9.2-1.8.3-2.7.3-.9 0-1.8-.1-2.7-.3-.9-.2-1.7-.5-2.4-.9s-1.3-1-1.7-1.7c-.4-.7-.7-1.6-.7-2.7h4.2c-.2.5-.1.9.1 1.3zM133.9 258v-2.2h-.1c-.6.9-1.3 1.6-2.2 2-.9.4-1.8.6-2.7.6-1.2 0-2.1-.2-2.9-.5s-1.3-.7-1.8-1.3c-.4-.6-.7-1.3-.9-2.1s-.3-1.7-.3-2.7V242h4.4v9c0 1.3.2 2.3.6 2.9.4.6 1.1 1 2.2 1 1.2 0 2.1-.4 2.6-1.1.5-.7.8-1.9.8-3.5V242h4.4v16h-4.1zM145.3 242.1v3h.1c.2-.5.5-.9.8-1.4.3-.4.7-.8 1.2-1.1.5-.3.9-.5 1.4-.7.5-.2 1-.2 1.6-.2.3 0 .6.1 1 .2v4.1c-.2 0-.5-.1-.7-.1h-.8c-.8 0-1.5.1-2 .4-.6.3-1 .6-1.3 1.1s-.6 1-.7 1.6c-.1.6-.2 1.3-.2 2v7.2h-4.4v-15.9h4zM152.6 247c.1-1 .3-1.9.8-2.6.5-.7 1-1.2 1.7-1.6.7-.4 1.5-.7 2.4-.9s1.8-.3 2.6-.3 1.6.1 2.4.2c.8.1 1.6.3 2.2.7.7.3 1.2.8 1.7 1.4.4.6.6 1.4.6 2.3v8.3c0 .7 0 1.4.1 2.1.1.7.2 1.2.4 1.5h-4.4c-.1-.2-.1-.5-.2-.8-.1-.3-.1-.5-.1-.8-.7.7-1.5 1.2-2.5 1.5-.9.3-1.9.4-2.9.4-.8 0-1.5-.1-2.1-.3-.7-.2-1.2-.5-1.7-.9s-.9-.9-1.2-1.5c-.3-.6-.4-1.3-.4-2.1 0-.9.2-1.6.5-2.2.3-.6.7-1.1 1.2-1.4.5-.3 1.1-.6 1.7-.8.6-.2 1.3-.3 2-.4.7-.1 1.3-.2 1.9-.2.6-.1 1.2-.2 1.7-.3.5-.1.9-.3 1.2-.5.3-.2.4-.6.4-1 0-.5-.1-.8-.2-1.1s-.4-.5-.6-.6c-.3-.2-.6-.3-.9-.3s-.7-.1-1.1-.1c-.9 0-1.5.2-2 .6-.5.4-.8 1-.9 1.8h-4.3zm10.1 3.2c-.2.2-.4.3-.7.4-.3.1-.6.2-.9.2s-.7.1-1 .2c-.3 0-.7.1-1 .2-.3.1-.7.1-1 .2-.3.1-.6.2-.8.4s-.4.4-.6.7c-.1.3-.2.6-.2 1s.1.7.2 1c.1.3.3.5.6.6s.5.3.9.3c.3.1.7.1 1 .1.9 0 1.5-.1 2-.4.5-.3.8-.6 1-1 .2-.4.4-.8.4-1.2.1-.4.1-.7.1-1v-1.7zM174.4 242.1v2.2h.1c.6-.9 1.3-1.6 2.2-2 .9-.4 1.8-.6 2.7-.6 1.2 0 2.1.2 2.9.5.7.3 1.3.8 1.8 1.3.4.6.7 1.3.9 2.1.2.8.3 1.7.3 2.7v9.8h-4.4v-9c0-1.3-.2-2.3-.6-2.9s-1.1-1-2.2-1c-1.2 0-2.1.4-2.6 1.1-.5.7-.8 1.9-.8 3.5v8.3h-4.4v-15.9h4.1zM195.8 245c-.7 0-1.3.2-1.8.5s-.9.7-1.2 1.2c-.3.5-.5 1.1-.6 1.7-.1.6-.2 1.2-.2 1.8 0 .6.1 1.2.2 1.8.1.6.3 1.1.6 1.6s.7.9 1.1 1.2c.5.3 1 .5 1.7.5 1 0 1.9-.3 2.4-.9.6-.6.9-1.4 1.1-2.4h4.2c-.3 2.1-1.1 3.7-2.5 4.8-1.4 1.1-3.1 1.7-5.2 1.7-1.2 0-2.3-.2-3.3-.6s-1.8-1-2.5-1.7-1.2-1.6-1.6-2.6c-.4-1-.6-2.1-.6-3.3 0-1.2.2-2.4.5-3.4.4-1.1.9-2 1.6-2.7.7-.8 1.5-1.4 2.6-1.8s2.2-.6 3.5-.6c.9 0 1.9.1 2.7.4.9.2 1.7.6 2.3 1.1.7.5 1.2 1.1 1.7 1.9.4.8.7 1.6.7 2.7H199c-.3-2-1.3-2.9-3.2-2.9zM210.3 254.2c.7.6 1.6 1 2.8 1 .9 0 1.6-.2 2.3-.7.6-.4 1-.9 1.2-1.4h3.8c-.6 1.9-1.6 3.3-2.8 4.1-1.3.8-2.8 1.2-4.6 1.2-1.3 0-2.4-.2-3.4-.6-1-.4-1.9-1-2.6-1.7-.7-.7-1.2-1.6-1.6-2.6-.4-1-.6-2.2-.6-3.4 0-1.2.2-2.3.6-3.3.4-1 .9-1.9 1.7-2.7.7-.7 1.6-1.3 2.6-1.8 1-.4 2.1-.6 3.3-.6 1.4 0 2.5.3 3.5.8s1.8 1.2 2.5 2.1 1.1 1.9 1.4 3c.3 1.1.4 2.3.3 3.5h-11.5c.1 1.4.4 2.5 1.1 3.1zm4.9-8.4c-.5-.6-1.3-.9-2.4-.9-.7 0-1.3.1-1.7.4-.5.2-.8.5-1.1.9-.3.3-.5.7-.6 1.1s-.2.7-.2 1h7.1c-.2-1.1-.6-1.9-1.1-2.5z"/></g></svg>