<?xml version="1.0" encoding="utf-8"?>
<!-- Generator: Adobe Illustrator 25.4.6, SVG Export Plug-In . SVG Version: 6.00 Build 0)  -->
<svg version="1.1" id="Layer_1" xmlns="http://www.w3.org/2000/svg" xmlns:xlink="http://www.w3.org/1999/xlink" x="0px" y="0px"
	 viewBox="0 0 300 600" style="enable-background:new 0 0 300 600;" xml:space="preserve">
<style type="text/css">
	.st0{fill:#339933;}
</style>
<g>
	<path class="st0" d="M33.3,174c1.4,0,2.5,0.2,3.5,0.6c1,0.4,1.8,0.9,2.4,1.6c0.6,0.7,1,1.4,1.3,2.2c0.3,0.8,0.4,1.7,0.4,2.6
		c0,0.9-0.1,1.8-0.4,2.6c-0.3,0.9-0.7,1.6-1.3,2.3c-0.6,0.7-1.4,1.2-2.4,1.6c-1,0.4-2.1,0.6-3.5,0.6h-5.1v7.9h-4.8v-22H33.3z
		 M32,184.4c0.6,0,1.1,0,1.6-0.1c0.5-0.1,1-0.2,1.4-0.5c0.4-0.2,0.7-0.6,0.9-1c0.2-0.4,0.4-1,0.4-1.7c0-0.7-0.1-1.3-0.4-1.7
		c-0.2-0.4-0.5-0.8-0.9-1c-0.4-0.2-0.8-0.4-1.4-0.5s-1-0.1-1.6-0.1h-3.8v6.6H32z"/>
	<path class="st0" d="M47.7,180.1v3h0.1c0.2-0.5,0.5-0.9,0.8-1.4c0.3-0.4,0.7-0.8,1.2-1.1c0.5-0.3,0.9-0.5,1.4-0.7
		c0.5-0.2,1-0.2,1.6-0.2c0.3,0,0.6,0.1,1,0.2v4.1c-0.2,0-0.5-0.1-0.7-0.1s-0.6,0-0.8,0c-0.8,0-1.5,0.1-2,0.4c-0.6,0.3-1,0.6-1.3,1.1
		s-0.6,1-0.7,1.6c-0.1,0.6-0.2,1.3-0.2,2v7.2h-4.4v-15.9H47.7z"/>
	<path class="st0" d="M55.3,185c0.1-1,0.3-1.9,0.8-2.6c0.5-0.7,1-1.2,1.7-1.6c0.7-0.4,1.5-0.7,2.4-0.9c0.9-0.2,1.8-0.3,2.6-0.3
		c0.8,0,1.6,0.1,2.4,0.2c0.8,0.1,1.6,0.3,2.2,0.7c0.7,0.3,1.2,0.8,1.7,1.4c0.4,0.6,0.6,1.4,0.6,2.3v8.3c0,0.7,0,1.4,0.1,2.1
		c0.1,0.7,0.2,1.2,0.4,1.5h-4.4c-0.1-0.2-0.1-0.5-0.2-0.8c-0.1-0.3-0.1-0.5-0.1-0.8c-0.7,0.7-1.5,1.2-2.5,1.5
		c-0.9,0.3-1.9,0.4-2.9,0.4c-0.8,0-1.5-0.1-2.1-0.3c-0.7-0.2-1.2-0.5-1.7-0.9c-0.5-0.4-0.9-0.9-1.2-1.5c-0.3-0.6-0.4-1.3-0.4-2.1
		c0-0.9,0.2-1.6,0.5-2.2c0.3-0.6,0.7-1.1,1.2-1.4c0.5-0.3,1.1-0.6,1.7-0.8c0.6-0.2,1.3-0.3,2-0.4c0.7-0.1,1.3-0.2,1.9-0.2
		c0.6-0.1,1.2-0.2,1.7-0.3c0.5-0.1,0.9-0.3,1.2-0.5c0.3-0.2,0.4-0.6,0.4-1c0-0.5-0.1-0.8-0.2-1.1c-0.2-0.3-0.4-0.5-0.6-0.6
		c-0.3-0.2-0.6-0.3-0.9-0.3c-0.3-0.1-0.7-0.1-1.1-0.1c-0.9,0-1.5,0.2-2,0.6s-0.8,1-0.9,1.8H55.3z M65.4,188.2
		c-0.2,0.2-0.4,0.3-0.7,0.4c-0.3,0.1-0.6,0.2-0.9,0.2c-0.3,0.1-0.7,0.1-1,0.2c-0.3,0-0.7,0.1-1,0.2c-0.3,0.1-0.7,0.1-1,0.2
		c-0.3,0.1-0.6,0.2-0.8,0.4c-0.2,0.2-0.4,0.4-0.6,0.7c-0.1,0.3-0.2,0.6-0.2,1c0,0.4,0.1,0.7,0.2,1c0.1,0.3,0.3,0.5,0.6,0.6
		c0.2,0.2,0.5,0.3,0.9,0.3c0.3,0.1,0.7,0.1,1,0.1c0.9,0,1.5-0.1,2-0.4c0.5-0.3,0.8-0.6,1-1c0.2-0.4,0.4-0.8,0.4-1.2
		c0.1-0.4,0.1-0.7,0.1-1V188.2z"/>
	<path class="st0" d="M80.8,183c-0.7,0-1.3,0.2-1.8,0.5c-0.5,0.3-0.9,0.7-1.2,1.2c-0.3,0.5-0.5,1.1-0.6,1.7
		c-0.1,0.6-0.2,1.2-0.2,1.8c0,0.6,0.1,1.2,0.2,1.8c0.1,0.6,0.3,1.1,0.6,1.6c0.3,0.5,0.7,0.9,1.1,1.2c0.5,0.3,1,0.5,1.7,0.5
		c1,0,1.9-0.3,2.4-0.9c0.6-0.6,0.9-1.4,1.1-2.4h4.2c-0.3,2.1-1.1,3.7-2.5,4.8c-1.4,1.1-3.1,1.7-5.2,1.7c-1.2,0-2.3-0.2-3.3-0.6
		c-1-0.4-1.8-1-2.5-1.7c-0.7-0.7-1.2-1.6-1.6-2.6c-0.4-1-0.6-2.1-0.6-3.3c0-1.2,0.2-2.4,0.5-3.4c0.4-1.1,0.9-2,1.6-2.7
		s1.6-1.4,2.6-1.8c1-0.4,2.2-0.6,3.4-0.6c0.9,0,1.9,0.1,2.7,0.4c0.9,0.2,1.7,0.6,2.3,1.1c0.7,0.5,1.2,1.1,1.7,1.9
		c0.4,0.8,0.7,1.6,0.7,2.7H84C83.7,183.9,82.6,183,80.8,183z"/>
	<path class="st0" d="M99.6,180.1v2.9h-3.2v7.9c0,0.7,0.1,1.2,0.4,1.5c0.2,0.2,0.7,0.4,1.5,0.4c0.2,0,0.5,0,0.7,0
		c0.2,0,0.4-0.1,0.6-0.1v3.4c-0.4,0.1-0.8,0.1-1.2,0.1s-0.9,0-1.3,0c-0.7,0-1.3,0-1.9-0.1c-0.6-0.1-1.1-0.3-1.6-0.5
		c-0.5-0.3-0.8-0.6-1.1-1.1c-0.3-0.5-0.4-1.1-0.4-1.9V183h-2.6v-2.9H92v-4.8h4.4v4.8H99.6z"/>
	<path class="st0" d="M101.8,177.6V174h4.4v3.6H101.8z M106.2,180.1V196h-4.4v-15.9H106.2z"/>
	<path class="st0" d="M117.2,183c-0.7,0-1.3,0.2-1.8,0.5c-0.5,0.3-0.9,0.7-1.2,1.2c-0.3,0.5-0.5,1.1-0.6,1.7
		c-0.1,0.6-0.2,1.2-0.2,1.8c0,0.6,0.1,1.2,0.2,1.8c0.1,0.6,0.3,1.1,0.6,1.6c0.3,0.5,0.7,0.9,1.1,1.2c0.5,0.3,1,0.5,1.7,0.5
		c1,0,1.9-0.3,2.4-0.9c0.6-0.6,0.9-1.4,1.1-2.4h4.2c-0.3,2.1-1.1,3.7-2.5,4.8c-1.4,1.1-3.1,1.7-5.2,1.7c-1.2,0-2.3-0.2-3.3-0.6
		c-1-0.4-1.8-1-2.5-1.7c-0.7-0.7-1.2-1.6-1.6-2.6c-0.4-1-0.6-2.1-0.6-3.3c0-1.2,0.2-2.4,0.5-3.4c0.4-1.1,0.9-2,1.6-2.7
		s1.6-1.4,2.6-1.8c1-0.4,2.2-0.6,3.4-0.6c0.9,0,1.9,0.1,2.7,0.4c0.9,0.2,1.7,0.6,2.3,1.1c0.7,0.5,1.2,1.1,1.7,1.9
		c0.4,0.8,0.7,1.6,0.7,2.7h-4.3C120.2,183.9,119.1,183,117.2,183z"/>
	<path class="st0" d="M127.1,185c0.1-1,0.3-1.9,0.8-2.6c0.5-0.7,1-1.2,1.7-1.6c0.7-0.4,1.5-0.7,2.4-0.9c0.9-0.2,1.8-0.3,2.6-0.3
		c0.8,0,1.6,0.1,2.4,0.2c0.8,0.1,1.6,0.3,2.2,0.7c0.7,0.3,1.2,0.8,1.7,1.4c0.4,0.6,0.6,1.4,0.6,2.3v8.3c0,0.7,0,1.4,0.1,2.1
		c0.1,0.7,0.2,1.2,0.4,1.5h-4.4c-0.1-0.2-0.1-0.5-0.2-0.8c-0.1-0.3-0.1-0.5-0.1-0.8c-0.7,0.7-1.5,1.2-2.5,1.5
		c-0.9,0.3-1.9,0.4-2.9,0.4c-0.8,0-1.5-0.1-2.1-0.3c-0.7-0.2-1.2-0.5-1.7-0.9c-0.5-0.4-0.9-0.9-1.2-1.5c-0.3-0.6-0.4-1.3-0.4-2.1
		c0-0.9,0.2-1.6,0.5-2.2c0.3-0.6,0.7-1.1,1.2-1.4c0.5-0.3,1.1-0.6,1.7-0.8c0.6-0.2,1.3-0.3,2-0.4c0.7-0.1,1.3-0.2,1.9-0.2
		c0.6-0.1,1.2-0.2,1.7-0.3c0.5-0.1,0.9-0.3,1.2-0.5c0.3-0.2,0.4-0.6,0.4-1c0-0.5-0.1-0.8-0.2-1.1c-0.2-0.3-0.4-0.5-0.6-0.6
		c-0.3-0.2-0.6-0.3-0.9-0.3c-0.3-0.1-0.7-0.1-1.1-0.1c-0.9,0-1.5,0.2-2,0.6s-0.8,1-0.9,1.8H127.1z M137.2,188.2
		c-0.2,0.2-0.4,0.3-0.7,0.4c-0.3,0.1-0.6,0.2-0.9,0.2c-0.3,0.1-0.7,0.1-1,0.2c-0.3,0-0.7,0.1-1,0.2c-0.3,0.1-0.7,0.1-1,0.2
		c-0.3,0.1-0.6,0.2-0.8,0.4c-0.2,0.2-0.4,0.4-0.6,0.7c-0.1,0.3-0.2,0.6-0.2,1c0,0.4,0.1,0.7,0.2,1c0.1,0.3,0.3,0.5,0.6,0.6
		c0.2,0.2,0.5,0.3,0.9,0.3c0.3,0.1,0.7,0.1,1,0.1c0.9,0,1.5-0.1,2-0.4c0.5-0.3,0.8-0.6,1-1c0.2-0.4,0.4-0.8,0.4-1.2
		c0.1-0.4,0.1-0.7,0.1-1V188.2z"/>
	<path class="st0" d="M149.5,174v22h-4.4v-22H149.5z"/>
	<path class="st0" d="M178.1,196l-3.7-15h-0.1l-3.7,15h-4.9l-5.8-22h4.8l3.5,15h0.1l3.8-15h4.5l3.8,15.2h0.1l3.6-15.2h4.7l-5.9,22
		H178.1z"/>
	<path class="st0" d="M190.7,177.6V174h4.4v3.6H190.7z M195.1,180.1V196h-4.4v-15.9H195.1z"/>
	<path class="st0" d="M202.2,192.1c0.2,0.3,0.4,0.6,0.8,0.8c0.3,0.2,0.7,0.4,1.1,0.5c0.4,0.1,0.8,0.2,1.2,0.2c0.3,0,0.6,0,1-0.1
		c0.3-0.1,0.6-0.2,0.9-0.3s0.5-0.4,0.7-0.6c0.2-0.3,0.3-0.6,0.3-1c0-0.7-0.4-1.1-1.3-1.5c-0.9-0.3-2.1-0.7-3.6-1
		c-0.6-0.1-1.3-0.3-1.9-0.5c-0.6-0.2-1.1-0.5-1.6-0.8c-0.5-0.3-0.9-0.7-1.1-1.2c-0.3-0.5-0.4-1.1-0.4-1.8c0-1,0.2-1.9,0.6-2.5
		c0.4-0.7,0.9-1.2,1.6-1.6c0.7-0.4,1.4-0.6,2.2-0.8c0.8-0.2,1.7-0.2,2.5-0.2c0.9,0,1.7,0.1,2.5,0.2c0.8,0.2,1.5,0.4,2.2,0.8
		c0.6,0.4,1.2,0.9,1.6,1.6c0.4,0.6,0.7,1.5,0.8,2.4h-4.2c-0.1-0.8-0.4-1.4-1-1.7c-0.6-0.3-1.3-0.4-2-0.4c-0.2,0-0.5,0-0.8,0
		c-0.3,0-0.5,0.1-0.8,0.2c-0.2,0.1-0.4,0.3-0.6,0.4c-0.2,0.2-0.2,0.5-0.2,0.8c0,0.4,0.1,0.7,0.4,1s0.7,0.4,1.1,0.6s1,0.3,1.6,0.4
		c0.6,0.1,1.2,0.3,1.8,0.4c0.6,0.1,1.3,0.3,1.9,0.5c0.6,0.2,1.1,0.5,1.6,0.8c0.5,0.3,0.9,0.8,1.1,1.3c0.3,0.5,0.4,1.1,0.4,1.9
		c0,1-0.2,1.9-0.6,2.6s-1,1.3-1.6,1.7s-1.5,0.7-2.3,0.9c-0.9,0.2-1.8,0.3-2.7,0.3c-0.9,0-1.8-0.1-2.7-0.3c-0.9-0.2-1.7-0.5-2.4-0.9
		c-0.7-0.4-1.3-1-1.7-1.7c-0.4-0.7-0.7-1.6-0.7-2.7h4.2C201.9,191.3,202,191.7,202.2,192.1z"/>
	<path class="st0" d="M226.4,194c-0.5,0.9-1.2,1.5-2,1.9c-0.8,0.4-1.8,0.6-2.8,0.6c-1.2,0-2.2-0.2-3.1-0.7s-1.6-1.1-2.2-1.9
		c-0.6-0.8-1-1.7-1.3-2.7c-0.3-1-0.4-2.1-0.4-3.2c0-1.1,0.1-2.1,0.4-3.1c0.3-1,0.7-1.9,1.3-2.6c0.6-0.8,1.3-1.4,2.2-1.8
		c0.9-0.5,1.9-0.7,3.1-0.7c0.9,0,1.8,0.2,2.7,0.6c0.9,0.4,1.5,1,2,1.8h0.1v-8h4.4v22h-4.2L226.4,194L226.4,194z M226.2,186.1
		c-0.1-0.6-0.3-1.1-0.6-1.6s-0.7-0.8-1.2-1.1c-0.5-0.3-1.1-0.4-1.8-0.4s-1.3,0.1-1.8,0.4c-0.5,0.3-0.9,0.7-1.2,1.1
		c-0.3,0.5-0.5,1-0.6,1.6c-0.1,0.6-0.2,1.2-0.2,1.9c0,0.6,0.1,1.2,0.2,1.8c0.1,0.6,0.4,1.2,0.7,1.6c0.3,0.5,0.7,0.9,1.2,1.2
		c0.5,0.3,1.1,0.4,1.7,0.4c0.7,0,1.3-0.1,1.8-0.4s0.9-0.7,1.2-1.2c0.3-0.5,0.5-1,0.6-1.6c0.1-0.6,0.2-1.3,0.2-1.9
		S226.3,186.7,226.2,186.1z"/>
	<path class="st0" d="M234,184.6c0.4-1,0.9-1.9,1.7-2.6c0.7-0.7,1.6-1.3,2.6-1.7s2.1-0.6,3.4-0.6c1.3,0,2.4,0.2,3.4,0.6
		c1,0.4,1.9,1,2.6,1.7c0.7,0.7,1.3,1.6,1.7,2.6c0.4,1,0.6,2.2,0.6,3.5c0,1.3-0.2,2.4-0.6,3.4c-0.4,1-0.9,1.9-1.7,2.6
		c-0.7,0.7-1.6,1.3-2.6,1.7c-1,0.4-2.2,0.6-3.4,0.6c-1.3,0-2.4-0.2-3.4-0.6c-1-0.4-1.9-0.9-2.6-1.7c-0.7-0.7-1.3-1.6-1.7-2.6
		c-0.4-1-0.6-2.2-0.6-3.4C233.4,186.8,233.6,185.7,234,184.6z M238,189.9c0.1,0.6,0.3,1.2,0.6,1.6c0.3,0.5,0.7,0.9,1.2,1.2
		s1.1,0.4,1.8,0.4c0.7,0,1.4-0.1,1.9-0.4c0.5-0.3,0.9-0.7,1.2-1.2c0.3-0.5,0.5-1,0.6-1.6c0.1-0.6,0.2-1.2,0.2-1.9
		c0-0.6-0.1-1.3-0.2-1.9s-0.3-1.2-0.6-1.6c-0.3-0.5-0.7-0.9-1.2-1.2c-0.5-0.3-1.1-0.4-1.9-0.4c-0.7,0-1.4,0.1-1.8,0.4
		c-0.5,0.3-0.9,0.7-1.2,1.2c-0.3,0.5-0.5,1-0.6,1.6s-0.2,1.2-0.2,1.9C237.8,188.7,237.8,189.3,238,189.9z"/>
	<path class="st0" d="M257,180.1v2.2h0.1c0.6-0.8,1.3-1.5,2.1-1.9c0.8-0.5,1.7-0.7,2.8-0.7c1,0,1.9,0.2,2.8,0.6
		c0.8,0.4,1.5,1.1,1.9,2.1c0.5-0.7,1.1-1.3,1.9-1.8c0.8-0.5,1.8-0.8,2.9-0.8c0.8,0,1.6,0.1,2.3,0.3c0.7,0.2,1.3,0.5,1.8,1
		c0.5,0.5,0.9,1,1.2,1.8c0.3,0.7,0.4,1.6,0.4,2.6V196h-4.4v-9c0-0.5,0-1-0.1-1.5c0-0.5-0.2-0.9-0.3-1.2c-0.2-0.3-0.5-0.6-0.8-0.8
		c-0.4-0.2-0.8-0.3-1.5-0.3s-1.1,0.1-1.5,0.4s-0.7,0.5-0.9,0.9c-0.2,0.4-0.4,0.8-0.4,1.3c-0.1,0.5-0.1,1-0.1,1.5v8.9h-4.4v-8.9
		c0-0.5,0-0.9,0-1.4s-0.1-0.9-0.3-1.3c-0.2-0.4-0.4-0.7-0.8-0.9s-0.9-0.4-1.6-0.4c-0.2,0-0.5,0-0.8,0.1s-0.7,0.3-1,0.5
		c-0.3,0.3-0.6,0.6-0.8,1.1c-0.2,0.5-0.3,1.1-0.3,1.9v9.2h-4.4v-15.9H257z"/>
</g>
<g>
	<path class="st0" d="M64.6,214.9V212h2.6v-1.2c0-1.4,0.4-2.6,1.3-3.5c0.9-0.9,2.2-1.4,4-1.4c0.4,0,0.8,0,1.2,0s0.8,0.1,1.1,0.1v3.3
		c-0.5-0.1-1-0.1-1.6-0.1c-0.6,0-1,0.1-1.3,0.4s-0.4,0.7-0.4,1.4v1h3v2.9h-3v13h-4.4v-13H64.6z"/>
	<path class="st0" d="M76.6,216.5c0.4-1,0.9-1.9,1.7-2.6c0.7-0.7,1.6-1.3,2.6-1.7c1-0.4,2.1-0.6,3.4-0.6c1.3,0,2.4,0.2,3.4,0.6
		s1.9,1,2.6,1.7c0.7,0.7,1.3,1.6,1.7,2.6c0.4,1,0.6,2.2,0.6,3.5c0,1.3-0.2,2.4-0.6,3.4s-0.9,1.9-1.7,2.6c-0.7,0.7-1.6,1.3-2.6,1.7
		c-1,0.4-2.2,0.6-3.4,0.6c-1.3,0-2.4-0.2-3.4-0.6c-1-0.4-1.9-0.9-2.6-1.7c-0.7-0.7-1.3-1.6-1.7-2.6S76,221.3,76,220
		C76,218.7,76.2,217.6,76.6,216.5z M80.6,221.8c0.1,0.6,0.3,1.2,0.6,1.6c0.3,0.5,0.7,0.9,1.2,1.2s1.1,0.4,1.8,0.4s1.4-0.1,1.9-0.4
		c0.5-0.3,0.9-0.7,1.2-1.2c0.3-0.5,0.5-1,0.6-1.6c0.1-0.6,0.2-1.2,0.2-1.9c0-0.6-0.1-1.3-0.2-1.9c-0.1-0.6-0.3-1.2-0.6-1.6
		c-0.3-0.5-0.7-0.9-1.2-1.2c-0.5-0.3-1.1-0.4-1.9-0.4s-1.4,0.1-1.8,0.4c-0.5,0.3-0.9,0.7-1.2,1.2c-0.3,0.5-0.5,1-0.6,1.6
		c-0.1,0.6-0.2,1.2-0.2,1.9C80.4,220.6,80.4,221.2,80.6,221.8z"/>
	<path class="st0" d="M99.5,212v3h0.1c0.2-0.5,0.5-0.9,0.8-1.4c0.3-0.4,0.7-0.8,1.2-1.1c0.5-0.3,0.9-0.5,1.4-0.7
		c0.5-0.2,1-0.2,1.6-0.2c0.3,0,0.6,0.1,1,0.2v4.1c-0.2,0-0.5-0.1-0.7-0.1s-0.6,0-0.8,0c-0.8,0-1.5,0.1-2,0.4c-0.6,0.3-1,0.6-1.3,1.1
		s-0.6,1-0.7,1.6c-0.1,0.6-0.2,1.3-0.2,2v7.2h-4.4V212H99.5z"/>
	<path class="st0" d="M125.8,205.9c1.4,0,2.7,0.2,4,0.7s2.3,1.1,3.2,2c0.9,0.9,1.6,2,2.1,3.4c0.5,1.4,0.8,2.9,0.8,4.8
		c0,1.6-0.2,3.1-0.6,4.4s-1,2.5-1.9,3.5c-0.8,1-1.9,1.8-3.1,2.3c-1.2,0.6-2.7,0.8-4.4,0.8h-9.5v-22H125.8z M125.5,223.9
		c0.7,0,1.4-0.1,2-0.3c0.7-0.2,1.2-0.6,1.8-1.1c0.5-0.5,0.9-1.2,1.2-2c0.3-0.8,0.5-1.9,0.5-3.1c0-1.1-0.1-2.1-0.3-3
		c-0.2-0.9-0.6-1.7-1.1-2.3c-0.5-0.6-1.1-1.1-2-1.5c-0.8-0.3-1.8-0.5-3-0.5h-3.4v13.9H125.5z"/>
	<path class="st0" d="M143.4,224.1c0.7,0.6,1.6,1,2.8,1c0.9,0,1.6-0.2,2.3-0.7c0.6-0.4,1-0.9,1.2-1.4h3.8c-0.6,1.9-1.6,3.3-2.8,4.1
		s-2.8,1.2-4.6,1.2c-1.3,0-2.4-0.2-3.4-0.6s-1.9-1-2.6-1.7s-1.2-1.6-1.6-2.6c-0.4-1-0.6-2.2-0.6-3.4c0-1.2,0.2-2.3,0.6-3.3
		c0.4-1,0.9-1.9,1.7-2.7c0.7-0.7,1.6-1.3,2.6-1.8c1-0.4,2.1-0.6,3.3-0.6c1.4,0,2.5,0.3,3.5,0.8s1.8,1.2,2.5,2.1s1.1,1.9,1.4,3
		c0.3,1.1,0.4,2.3,0.3,3.5h-11.5C142.3,222.4,142.7,223.5,143.4,224.1z M148.3,215.7c-0.5-0.6-1.3-0.9-2.4-0.9
		c-0.7,0-1.3,0.1-1.7,0.4c-0.5,0.2-0.8,0.5-1.1,0.9s-0.5,0.7-0.6,1.1s-0.2,0.7-0.2,1h7.1C149.2,217.1,148.8,216.3,148.3,215.7z"/>
	<path class="st0" d="M160.5,212v2.2h0.1c0.6-0.9,1.3-1.6,2.2-2c0.9-0.4,1.8-0.6,2.7-0.6c1.2,0,2.1,0.2,2.9,0.5
		c0.7,0.3,1.3,0.8,1.8,1.3c0.4,0.6,0.7,1.3,0.9,2.1c0.2,0.8,0.3,1.7,0.3,2.7v9.8h-4.4v-9c0-1.3-0.2-2.3-0.6-2.9s-1.1-1-2.2-1
		c-1.2,0-2.1,0.4-2.6,1.1c-0.5,0.7-0.8,1.9-0.8,3.5v8.3h-4.4V212H160.5z"/>
	<path class="st0" d="M183.4,212v2.9h-3.2v7.9c0,0.7,0.1,1.2,0.4,1.5c0.2,0.2,0.7,0.4,1.5,0.4c0.2,0,0.5,0,0.7,0
		c0.2,0,0.4-0.1,0.6-0.1v3.4c-0.4,0.1-0.8,0.1-1.2,0.1c-0.5,0-0.9,0-1.3,0c-0.7,0-1.3,0-1.9-0.1c-0.6-0.1-1.1-0.3-1.6-0.5
		c-0.5-0.3-0.8-0.6-1.1-1.1c-0.3-0.5-0.4-1.1-0.4-1.9v-9.4h-2.6V212h2.6v-4.8h4.4v4.8H183.4z"/>
	<path class="st0" d="M185.6,209.5v-3.6h4.4v3.6H185.6z M190,212v15.9h-4.4V212H190z"/>
	<path class="st0" d="M197.1,224c0.2,0.3,0.4,0.6,0.8,0.8c0.3,0.2,0.7,0.4,1.1,0.5c0.4,0.1,0.8,0.2,1.2,0.2c0.3,0,0.6,0,1-0.1
		c0.3-0.1,0.6-0.2,0.9-0.3s0.5-0.4,0.7-0.6c0.2-0.3,0.3-0.6,0.3-1c0-0.7-0.4-1.1-1.3-1.5c-0.9-0.3-2.1-0.7-3.6-1
		c-0.6-0.1-1.3-0.3-1.9-0.5c-0.6-0.2-1.1-0.5-1.6-0.8c-0.5-0.3-0.9-0.7-1.1-1.2c-0.3-0.5-0.4-1.1-0.4-1.8c0-1,0.2-1.9,0.6-2.5
		c0.4-0.7,0.9-1.2,1.6-1.6c0.7-0.4,1.4-0.6,2.2-0.8c0.8-0.2,1.7-0.2,2.5-0.2c0.9,0,1.7,0.1,2.5,0.2c0.8,0.2,1.5,0.4,2.2,0.8
		c0.6,0.4,1.2,0.9,1.6,1.6c0.4,0.6,0.7,1.5,0.8,2.4h-4.2c-0.1-0.8-0.4-1.4-1-1.7c-0.6-0.3-1.3-0.4-2-0.4c-0.2,0-0.5,0-0.8,0
		c-0.3,0-0.5,0.1-0.8,0.2c-0.2,0.1-0.4,0.3-0.6,0.4c-0.2,0.2-0.2,0.5-0.2,0.8c0,0.4,0.1,0.7,0.4,1s0.7,0.4,1.1,0.6s1,0.3,1.6,0.4
		c0.6,0.1,1.2,0.3,1.8,0.4c0.6,0.1,1.3,0.3,1.9,0.5c0.6,0.2,1.1,0.5,1.6,0.8c0.5,0.3,0.9,0.8,1.1,1.3c0.3,0.5,0.4,1.1,0.4,1.9
		c0,1-0.2,1.9-0.6,2.6s-1,1.3-1.6,1.7s-1.5,0.7-2.3,0.9c-0.9,0.2-1.8,0.3-2.7,0.3c-0.9,0-1.8-0.1-2.7-0.3c-0.9-0.2-1.7-0.5-2.4-0.9
		c-0.7-0.4-1.3-1-1.7-1.7c-0.4-0.7-0.7-1.6-0.7-2.7h4.2C196.8,223.2,196.9,223.6,197.1,224z"/>
	<path class="st0" d="M218.7,212v2.9h-3.2v7.9c0,0.7,0.1,1.2,0.4,1.5c0.2,0.2,0.7,0.4,1.5,0.4c0.2,0,0.5,0,0.7,0
		c0.2,0,0.4-0.1,0.6-0.1v3.4c-0.4,0.1-0.8,0.1-1.2,0.1c-0.5,0-0.9,0-1.3,0c-0.7,0-1.3,0-1.9-0.1c-0.6-0.1-1.1-0.3-1.6-0.5
		c-0.5-0.3-0.8-0.6-1.1-1.1c-0.3-0.5-0.4-1.1-0.4-1.9v-9.4h-2.6V212h2.6v-4.8h4.4v4.8H218.7z"/>
	<path class="st0" d="M224.5,224c0.2,0.3,0.4,0.6,0.8,0.8c0.3,0.2,0.7,0.4,1.1,0.5c0.4,0.1,0.8,0.2,1.2,0.2c0.3,0,0.6,0,1-0.1
		c0.3-0.1,0.6-0.2,0.9-0.3s0.5-0.4,0.7-0.6c0.2-0.3,0.3-0.6,0.3-1c0-0.7-0.4-1.1-1.3-1.5c-0.9-0.3-2.1-0.7-3.6-1
		c-0.6-0.1-1.3-0.3-1.9-0.5c-0.6-0.2-1.1-0.5-1.6-0.8c-0.5-0.3-0.9-0.7-1.1-1.2c-0.3-0.5-0.4-1.1-0.4-1.8c0-1,0.2-1.9,0.6-2.5
		c0.4-0.7,0.9-1.2,1.6-1.6c0.7-0.4,1.4-0.6,2.2-0.8c0.8-0.2,1.7-0.2,2.5-0.2c0.9,0,1.7,0.1,2.5,0.2c0.8,0.2,1.5,0.4,2.2,0.8
		c0.6,0.4,1.2,0.9,1.6,1.6c0.4,0.6,0.7,1.5,0.8,2.4h-4.2c-0.1-0.8-0.4-1.4-1-1.7c-0.6-0.3-1.3-0.4-2-0.4c-0.2,0-0.5,0-0.8,0
		c-0.3,0-0.5,0.1-0.8,0.2c-0.2,0.1-0.4,0.3-0.6,0.4c-0.2,0.2-0.2,0.5-0.2,0.8c0,0.4,0.1,0.7,0.4,1s0.7,0.4,1.1,0.6s1,0.3,1.6,0.4
		c0.6,0.1,1.2,0.3,1.8,0.4c0.6,0.1,1.3,0.3,1.9,0.5c0.6,0.2,1.1,0.5,1.6,0.8c0.5,0.3,0.9,0.8,1.1,1.3c0.3,0.5,0.4,1.1,0.4,1.9
		c0,1-0.2,1.9-0.6,2.6s-1,1.3-1.6,1.7s-1.5,0.7-2.3,0.9c-0.9,0.2-1.8,0.3-2.7,0.3c-0.9,0-1.8-0.1-2.7-0.3c-0.9-0.2-1.7-0.5-2.4-0.9
		c-0.7-0.4-1.3-1-1.7-1.7c-0.4-0.7-0.7-1.6-0.7-2.7h4.2C224.2,223.2,224.3,223.6,224.5,224z"/>
</g>
</svg>
