<?xml version="1.0" encoding="utf-8"?>
<!-- Generator: Adobe Illustrator 25.4.6, SVG Export Plug-In . SVG Version: 6.00 Build 0)  -->
<svg version="1.1" id="Layer_1" xmlns="http://www.w3.org/2000/svg" xmlns:xlink="http://www.w3.org/1999/xlink" x="0px" y="0px"
	 viewBox="0 0 300 600" style="enable-background:new 0 0 300 600;" xml:space="preserve">
<style type="text/css">
	.st0{clip-path:url(#SVGID_00000095302907736019773210000012479308236018707603_);fill:#439D51;}
	.st1{fill:#FFFFFF;}
</style>
<g>
	<defs>
		<rect id="SVGID_1_" x="63.2" y="428.5" width="174.2" height="36.7"/>
	</defs>
	<clipPath id="SVGID_00000081638457919622170160000018275370892224847805_">
		<use xlink:href="#SVGID_1_"  style="overflow:visible;"/>
	</clipPath>
	<path style="clip-path:url(#SVGID_00000081638457919622170160000018275370892224847805_);fill:#439D51;" d="M237.4,446.9
		c0,10.1-9.5,18.4-21.1,18.4h-132c-11.6,0-21.1-8.3-21.1-18.4c0-10.1,9.5-18.4,21.1-18.4h132C227.9,428.5,237.4,436.8,237.4,446.9"
		/>
</g>
<g>
	<path class="st1" d="M106.2,441.4v2.2h-5.7v2.7h4.9v2h-4.9v4.8H98v-11.7H106.2z"/>
	<path class="st1" d="M114,441.4c0.5,0,1,0.1,1.4,0.3c0.4,0.2,0.8,0.4,1.1,0.7c0.3,0.3,0.5,0.6,0.7,1s0.2,0.8,0.2,1.3
		c0,0.7-0.1,1.3-0.4,1.8c-0.3,0.5-0.8,0.9-1.4,1.1v0c0.3,0.1,0.6,0.2,0.8,0.4s0.4,0.4,0.5,0.6s0.2,0.5,0.3,0.8
		c0.1,0.3,0.1,0.6,0.1,0.9c0,0.2,0,0.4,0,0.7c0,0.3,0,0.5,0.1,0.8s0.1,0.5,0.1,0.7c0.1,0.2,0.1,0.4,0.3,0.6h-2.6
		c-0.1-0.4-0.2-0.8-0.3-1.3c0-0.5-0.1-1-0.1-1.5c-0.1-0.6-0.3-1.1-0.6-1.3c-0.3-0.3-0.7-0.4-1.4-0.4h-2.6v4.6h-2.6v-11.7H114z
		 M113.1,446.7c0.6,0,1-0.1,1.3-0.4c0.3-0.3,0.4-0.7,0.4-1.3c0-0.6-0.1-1-0.4-1.2c-0.3-0.3-0.7-0.4-1.3-0.4h-2.8v3.3H113.1z"/>
	<path class="st1" d="M128.3,441.4v2.2h-6.2v2.5h5.7v2h-5.7v2.9h6.3v2.2h-8.9v-11.7H128.3z"/>
	<path class="st1" d="M139,441.4v2.2h-6.2v2.5h5.7v2h-5.7v2.9h6.3v2.2h-8.9v-11.7H139z"/>
	<path class="st1" d="M153.5,452.7c-0.8,0.4-1.7,0.7-2.8,0.7c-0.9,0-1.7-0.2-2.4-0.5c-0.7-0.3-1.3-0.7-1.8-1.3s-0.9-1.2-1.1-1.9
		s-0.4-1.5-0.4-2.4c0-0.9,0.1-1.7,0.4-2.4s0.6-1.4,1.1-2s1.1-1,1.8-1.3c0.7-0.3,1.5-0.5,2.4-0.5c0.9,0,1.7,0.2,2.4,0.5
		c0.7,0.3,1.3,0.8,1.8,1.3s0.9,1.2,1.1,2s0.4,1.6,0.4,2.4c0,0.9-0.1,1.6-0.4,2.4c-0.3,0.7-0.6,1.4-1.1,1.9l1.5,1.3l-1.2,1.2
		L153.5,452.7z M153.1,450c0.2-0.3,0.4-0.7,0.5-1.1s0.2-1,0.2-1.6c0-0.5-0.1-1-0.2-1.5c-0.1-0.5-0.3-0.9-0.5-1.3
		c-0.3-0.4-0.6-0.7-1-0.9c-0.4-0.2-0.9-0.3-1.5-0.3s-1.1,0.1-1.5,0.3c-0.4,0.2-0.7,0.5-1,0.9c-0.3,0.4-0.4,0.8-0.5,1.3
		c-0.1,0.5-0.2,1-0.2,1.5c0,0.5,0.1,1,0.2,1.4c0.1,0.5,0.3,0.9,0.5,1.3c0.3,0.4,0.6,0.7,1,0.9c0.4,0.2,0.9,0.3,1.5,0.3
		c0.3,0,0.5,0,0.6,0c0.1,0,0.3-0.1,0.4-0.1l-1.1-1l1.2-1.3L153.1,450z"/>
	<path class="st1" d="M166.8,452.2c-0.9,0.8-2.1,1.2-3.7,1.2c-1.6,0-2.8-0.4-3.7-1.1c-0.9-0.8-1.3-1.9-1.3-3.5v-7.3h2.6v7.3
		c0,0.3,0,0.6,0.1,0.9c0.1,0.3,0.2,0.6,0.3,0.8c0.2,0.2,0.4,0.4,0.7,0.6c0.3,0.1,0.7,0.2,1.3,0.2c0.9,0,1.6-0.2,1.9-0.6
		c0.3-0.4,0.5-1.1,0.5-1.9v-7.3h2.6v7.3C168.1,450.3,167.7,451.4,166.8,452.2z"/>
	<path class="st1" d="M170.2,444.9c0.3-0.7,0.6-1.4,1.1-2s1.1-1,1.8-1.3c0.7-0.3,1.5-0.5,2.4-0.5c0.9,0,1.7,0.2,2.4,0.5
		c0.7,0.3,1.3,0.8,1.8,1.3s0.9,1.2,1.1,2s0.4,1.6,0.4,2.4c0,0.9-0.1,1.6-0.4,2.4s-0.6,1.4-1.1,1.9s-1.1,1-1.8,1.3
		c-0.7,0.3-1.5,0.5-2.4,0.5c-0.9,0-1.7-0.2-2.4-0.5c-0.7-0.3-1.3-0.7-1.8-1.3s-0.9-1.2-1.1-1.9s-0.4-1.5-0.4-2.4
		C169.8,446.4,169.9,445.6,170.2,444.9z M172.6,448.7c0.1,0.5,0.3,0.9,0.5,1.3c0.3,0.4,0.6,0.7,1,0.9c0.4,0.2,0.9,0.3,1.5,0.3
		s1.1-0.1,1.5-0.3c0.4-0.2,0.7-0.5,1-0.9c0.3-0.4,0.4-0.8,0.5-1.3c0.1-0.5,0.2-0.9,0.2-1.4c0-0.5-0.1-1-0.2-1.5
		c-0.1-0.5-0.3-0.9-0.5-1.3c-0.3-0.4-0.6-0.7-1-0.9c-0.4-0.2-0.9-0.3-1.5-0.3s-1.1,0.1-1.5,0.3c-0.4,0.2-0.7,0.5-1,0.9
		c-0.3,0.4-0.4,0.8-0.5,1.3c-0.1,0.5-0.2,1-0.2,1.5C172.4,447.8,172.4,448.3,172.6,448.7z"/>
	<path class="st1" d="M182.2,443.6v-2.2h9.6v2.2h-3.5v9.5h-2.6v-9.5H182.2z"/>
	<path class="st1" d="M201.9,441.4v2.2h-6.2v2.5h5.7v2h-5.7v2.9h6.3v2.2h-8.9v-11.7H201.9z"/>
</g>
</svg>
