<svg id="Layer_1" xmlns="http://www.w3.org/2000/svg" xmlns:xlink="http://www.w3.org/1999/xlink" viewBox="0 0 300 600"><style>.st0{clip-path:url(#SVGID_00000095302907736019773210000012479308236018707603_);fill:#439d51}.st1{fill:#fff}</style><defs><path id="SVGID_1_" d="M63.2 428.5h174.2v36.7H63.2z"/></defs><clipPath id="SVGID_00000081638457919622170160000018275370892224847805_"><use xlink:href="#SVGID_1_" overflow="visible"/></clipPath><path d="M237.4 446.9c0 10.1-9.5 18.4-21.1 18.4h-132c-11.6 0-21.1-8.3-21.1-18.4 0-10.1 9.5-18.4 21.1-18.4h132c11.6 0 21.1 8.3 21.1 18.4" clip-path="url(#SVGID_00000081638457919622170160000018275370892224847805_)" fill="#439d51"/><g><path class="st1" d="M106.2 441.4v2.2h-5.7v2.7h4.9v2h-4.9v4.8H98v-11.7h8.2zM114 441.4c.5 0 1 .1 1.4.3.4.2.8.4 1.1.7.3.3.5.6.7 1s.2.8.2 1.3c0 .7-.1 1.3-.4 1.8-.3.5-.8.9-1.4 1.1.3.1.6.2.8.4s.4.4.5.6.2.5.3.8c.1.3.1.6.1.9v.7c0 .3 0 .5.1.8s.1.5.1.7c.1.2.1.4.3.6h-2.6c-.1-.4-.2-.8-.3-1.3 0-.5-.1-1-.1-1.5-.1-.6-.3-1.1-.6-1.3-.3-.3-.7-.4-1.4-.4h-2.6v4.6h-2.6v-11.7h6.4zm-.9 5.3c.6 0 1-.1 1.3-.4.3-.3.4-.7.4-1.3 0-.6-.1-1-.4-1.2-.3-.3-.7-.4-1.3-.4h-2.8v3.3h2.8zM128.3 441.4v2.2h-6.2v2.5h5.7v2h-5.7v2.9h6.3v2.2h-8.9v-11.7h8.8zM139 441.4v2.2h-6.2v2.5h5.7v2h-5.7v2.9h6.3v2.2h-8.9v-11.7h8.8zM153.5 452.7c-.8.4-1.7.7-2.8.7-.9 0-1.7-.2-2.4-.5s-1.3-.7-1.8-1.3-.9-1.2-1.1-1.9-.4-1.5-.4-2.4c0-.9.1-1.7.4-2.4s.6-1.4 1.1-2 1.1-1 1.8-1.3c.7-.3 1.5-.5 2.4-.5.9 0 1.7.2 2.4.5s1.3.8 1.8 1.3.9 1.2 1.1 2 .4 1.6.4 2.4c0 .9-.1 1.6-.4 2.4-.3.7-.6 1.4-1.1 1.9l1.5 1.3-1.2 1.2-1.7-1.4zm-.4-2.7c.2-.3.4-.7.5-1.1s.2-1 .2-1.6c0-.5-.1-1-.2-1.5s-.3-.9-.5-1.3c-.3-.4-.6-.7-1-.9-.4-.2-.9-.3-1.5-.3s-1.1.1-1.5.3c-.4.2-.7.5-1 .9-.3.4-.4.8-.5 1.3-.1.5-.2 1-.2 1.5s.1 1 .2 1.4c.1.5.3.9.5 1.3.3.4.6.7 1 .9.4.2.9.3 1.5.3h.6c.1 0 .3-.1.4-.1l-1.1-1 1.2-1.3 1.4 1.2zM166.8 452.2c-.9.8-2.1 1.2-3.7 1.2s-2.8-.4-3.7-1.1c-.9-.8-1.3-1.9-1.3-3.5v-7.3h2.6v7.3c0 .3 0 .6.1.9.1.3.2.6.3.8.2.2.4.4.7.6.3.1.7.2 1.3.2.9 0 1.6-.2 1.9-.6.3-.4.5-1.1.5-1.9v-7.3h2.6v7.3c0 1.5-.4 2.6-1.3 3.4zM170.2 444.9c.3-.7.6-1.4 1.1-2s1.1-1 1.8-1.3c.7-.3 1.5-.5 2.4-.5.9 0 1.7.2 2.4.5s1.3.8 1.8 1.3.9 1.2 1.1 2 .4 1.6.4 2.4c0 .9-.1 1.6-.4 2.4s-.6 1.4-1.1 1.9-1.1 1-1.8 1.3c-.7.3-1.5.5-2.4.5-.9 0-1.7-.2-2.4-.5s-1.3-.7-1.8-1.3-.9-1.2-1.1-1.9-.4-1.5-.4-2.4c0-.9.1-1.7.4-2.4zm2.4 3.8c.1.5.3.9.5 1.3.3.4.6.7 1 .9.4.2.9.3 1.5.3s1.1-.1 1.5-.3c.4-.2.7-.5 1-.9.3-.4.4-.8.5-1.3.1-.5.2-.9.2-1.4 0-.5-.1-1-.2-1.5s-.3-.9-.5-1.3c-.3-.4-.6-.7-1-.9-.4-.2-.9-.3-1.5-.3s-1.1.1-1.5.3c-.4.2-.7.5-1 .9-.3.4-.4.8-.5 1.3-.1.5-.2 1-.2 1.5s0 1 .2 1.4zM182.2 443.6v-2.2h9.6v2.2h-3.5v9.5h-2.6v-9.5h-3.5zM201.9 441.4v2.2h-6.2v2.5h5.7v2h-5.7v2.9h6.3v2.2h-8.9v-11.7h8.8z"/></g></svg>