<svg id="Layer_1" xmlns="http://www.w3.org/2000/svg" viewBox="0 0 300 600"><style>.st0{fill:#439d51}.st1{fill:#373535}.st2{fill:none}</style><path class="st0" d="M29.2 92.2h-3.1l-1-2.9H19l-1 2.9h-3L20.4 78h2.2c.8 0 1.2.2 1.4.8.2.5 2.7 6.9 2.7 6.9h-2.9l-1.7-4.8-2.2 6.1h6.2c.8 0 1.3.3 1.5 1l1.6 4.2zM56.2 92.2h-3.1l-1-2.9H46l-1 2.9h-3L47.3 78h2.2c.8 0 1.2.2 1.4.8.2.5 2.7 6.9 2.7 6.9h-2.9L49 80.9 46.8 87H53c.8 0 1.3.3 1.5 1l1.7 4.2zM30.2 78h5.6c4.4 0 6.5 2.3 6.5 7.1 0 2.7-.8 4.7-2.3 5.8-1.4 1.1-2.9 1.3-5 1.3h-4.8V78zm5.3 11.6c2.7 0 3.9-1.3 3.9-4.5s-1.1-4.6-3.5-4.6h-2.7v9.2h2.3z"/><path class="st1" d="M80.4 92.1h-2.2l-.9-10.2-3.5 10.2h-1.9l-3.6-10.2-.8 10.2h-2.1l1.3-13.5h2.5L72.9 89l3.5-10.4H79l1.4 13.5zM91.4 87v.8h-6.7c0 .7.2 1.3.6 1.8.5.6 1.2.9 2.2.9.8 0 1.7-.2 2.7-.7l.8 1.5c-1 .7-2.2 1.1-3.7 1.1s-2.7-.5-3.6-1.5c-.8-.9-1.3-2.1-1.3-3.6 0-1.6.4-2.8 1.3-3.8s2-1.5 3.4-1.5c1.3 0 2.4.5 3.1 1.4.8.8 1.2 2 1.2 3.6zm-2.1-.8c0-.6-.1-1.1-.4-1.6-.4-.6-1-1-1.7-1s-1.3.2-1.7.7c-.5.5-.7 1.1-.8 1.8h4.6zM107.6 92.1h-2.2v-5.6c0-1.1-.1-1.9-.4-2.2-.3-.3-.7-.5-1.2-.5-.7 0-1.4.3-2.2.8.1.3.1 1 .1 2.2V92h-2.2v-5.4c0-1.3-.2-2.1-.5-2.4-.3-.3-.6-.4-1.1-.4-.7 0-1.4.2-2.1.7v7.6h-2.2v-9.9h1.9v.7c.9-.7 1.9-1 2.9-1s1.8.4 2.4 1.1c1.1-.7 2.2-1.1 3.3-1.1 1 0 1.9.3 2.4.9.5.5.8 1.1.9 1.8.1.5.1 1.3.1 2.5v5zM119.1 86.9c0 1.6-.5 2.9-1.4 3.9-.9 1-2.2 1.5-3.7 1.5-1.1 0-2.4-.2-3.9-.7V77.5h2.2v5.2c.8-.5 1.6-.7 2.5-.7 1.3 0 2.3.5 3.1 1.4.8.8 1.2 2 1.2 3.5zm-2.3 0c0-1-.2-1.8-.7-2.4-.5-.5-1-.8-1.8-.8-.7 0-1.4.2-2.1.7v5.8c.6.2 1.1.3 1.6.3.9 0 1.6-.3 2.1-1 .6-.6.9-1.5.9-2.6zM129.6 87v.8h-6.7c0 .7.2 1.3.6 1.8.5.6 1.2.9 2.2.9.8 0 1.7-.2 2.7-.7l.8 1.5c-1 .7-2.2 1.1-3.7 1.1s-2.7-.5-3.6-1.5c-.8-.9-1.3-2.1-1.3-3.6 0-1.6.4-2.8 1.3-3.8s2-1.5 3.4-1.5c1.3 0 2.4.5 3.1 1.4.9.8 1.2 2 1.2 3.6zm-2.1-.8c0-.6-.1-1.1-.4-1.6-.4-.6-1-1-1.7-1s-1.3.2-1.7.7c-.5.5-.7 1.1-.8 1.8h4.6zM138 82.2l-.5 1.7c-.2 0-.4-.1-.7-.1-1.2 0-2.2.5-2.9 1.5v6.8h-2.2v-9.9h1.9v1.3c.2-.3.5-.5.9-.8.7-.5 1.5-.7 2.3-.7.5-.1.9 0 1.2.2z"/><g><path class="st1" d="M146.1 89.2c0 1-.4 1.7-1.1 2.3-.7.6-1.6.8-2.7.8-.9 0-1.7-.2-2.5-.5-.5-.2-.8-.4-1.1-.6l.8-1.5c1 .5 1.8.8 2.6.8.6 0 1-.1 1.3-.3s.4-.5.4-.9-.2-.6-.6-.9c-.2-.1-.7-.4-1.6-.7-.8-.3-1.4-.7-1.7-1-.6-.5-.9-1.2-.9-2 0-.9.3-1.6 1-2.1s1.6-.8 2.6-.8c1.4 0 2.5.3 3.2.9l-.8 1.4c-.8-.4-1.5-.7-2.3-.7-1.1 0-1.6.4-1.6 1.1 0 .3.2.6.5.8.2.1.6.3 1.3.6 1 .4 1.7.8 2 1.1.9.7 1.2 1.4 1.2 2.2zM155.8 92.1h-2.3V78.6h2.3v13.5zM167 92.1h-2.2v-5.4c0-1.3-.1-2.1-.4-2.4-.3-.3-.7-.4-1.3-.4-.7 0-1.4.2-2.2.7v7.5h-2.2v-9.9h1.9v.7c.9-.7 1.9-1 2.9-1s1.9.3 2.5.9c.5.5.8 1 .9 1.7.1.4.1 1.1.1 2v5.6zM176.1 89.2c0 1-.4 1.7-1.1 2.3-.7.6-1.6.8-2.7.8-.9 0-1.7-.2-2.5-.5-.5-.2-.8-.4-1.1-.6l.8-1.5c1 .5 1.8.8 2.6.8.6 0 1-.1 1.3-.3s.4-.5.4-.9-.2-.6-.6-.9c-.2-.1-.7-.4-1.6-.7-.8-.3-1.4-.7-1.7-1-.6-.5-.9-1.2-.9-2 0-.9.3-1.6 1-2.1s1.6-.8 2.6-.8c1.4 0 2.5.3 3.2.9l-.8 1.4c-.8-.4-1.5-.7-2.3-.7-1.1 0-1.6.4-1.6 1.1 0 .3.2.6.5.8.2.1.6.3 1.3.6 1 .4 1.7.8 2 1.1.9.7 1.2 1.4 1.2 2.2zM186.6 92.1h-1.9v-.7c-.9.7-1.9 1-2.9 1s-1.9-.3-2.5-.9c-.5-.5-.8-1-.9-1.7-.1-.4-.1-1.1-.1-2v-5.5h2.2V89c.1.6.2.9.5 1.2.3.2.7.3 1.2.3.6 0 1.3-.2 2.2-.7v-7.5h2.2v9.8zM195.5 82.2l-.5 1.7c-.2 0-.4-.1-.7-.1-1.2 0-2.2.5-2.9 1.5v6.8h-2.2v-9.9h1.9v1.3c.2-.3.5-.5.9-.8.7-.5 1.5-.7 2.3-.7.5-.1.8 0 1.2.2z"/></g><g><path class="st1" d="M204.1 92.1h-1.9v-.7c-1 .6-1.9.9-2.9.9s-1.7-.3-2.3-.9c-.6-.6-.9-1.3-.9-2.3 0-2.3 1.9-3.5 5.6-3.5h.4v-.4c0-.6-.1-1-.3-1.2-.3-.3-.8-.4-1.6-.4-.9 0-1.8.3-2.7.8l-.8-1.4c.2-.2.6-.4 1.1-.6.8-.3 1.6-.5 2.6-.5 1.3 0 2.4.4 3.1 1.1.4.4.6.8.7 1.3.1.3.1.9.1 1.7v6.1zm-2.1-2.2v-2.6h-.5c-1.5 0-2.6.3-3.1.8-.3.3-.4.6-.4 1 0 .5.2.9.5 1.1.3.3.7.4 1.2.4.8 0 1.5-.3 2.3-.7zM214.9 92.1h-2.2v-5.4c0-1.3-.1-2.1-.4-2.4-.3-.3-.7-.4-1.3-.4-.7 0-1.4.2-2.2.7v7.5h-2.2v-9.9h1.9v.7c.9-.7 1.9-1 2.9-1s1.9.3 2.5.9c.5.5.8 1 .9 1.7.1.4.1 1.1.1 2v5.6zM225.5 91.2c-.1.2-.5.4-1 .6-.8.4-1.7.5-2.6.5-1.5 0-2.7-.5-3.6-1.4s-1.4-2.2-1.4-3.7.5-2.8 1.5-3.8 2.2-1.5 3.7-1.5c.8 0 1.6.2 2.3.5.5.2.8.4 1 .6l-.9 1.4c-.7-.5-1.4-.7-2.2-.7-.9 0-1.7.3-2.2 1-.5.6-.8 1.4-.8 2.3 0 1 .3 1.8.8 2.4.5.6 1.2.9 2.2.9.7 0 1.6-.2 2.5-.7l.7 1.6z"/></g><g><path class="st1" d="M235.4 87v.8h-6.7c0 .7.2 1.3.6 1.8.5.6 1.2.9 2.2.9.8 0 1.7-.2 2.7-.7l.8 1.5c-1 .7-2.2 1.1-3.7 1.1s-2.7-.5-3.6-1.5c-.8-.9-1.3-2.1-1.3-3.6 0-1.6.4-2.8 1.3-3.8s2-1.5 3.4-1.5c1.3 0 2.4.5 3.1 1.4s1.2 2 1.2 3.6zm-2.1-.8c0-.6-.1-1.1-.4-1.6-.4-.6-1-1-1.7-1s-1.3.2-1.7.7c-.5.5-.7 1.1-.8 1.8h4.6zM251.6 82.6c0 1.2-.4 2.2-1.2 3-.6.6-1.3.9-2.1 1.1-.5.1-1.3.2-2.5.2h-1v5.2h-2.3V78.6h3.6c1.1 0 1.9.1 2.4.2.8.2 1.4.5 1.9 1 .9.7 1.2 1.7 1.2 2.8zm-2.3.1c0-.7-.2-1.3-.6-1.7-.4-.4-1.2-.5-2.5-.5h-1.3V85h1c1.5 0 2.4-.2 2.8-.6s.6-1 .6-1.7zM256.2 92.1H254V77.5h2.2v14.6zM266.4 92.1h-1.9v-.7c-1 .6-1.9.9-2.9.9s-1.7-.3-2.3-.9c-.6-.6-.9-1.3-.9-2.3 0-2.3 1.9-3.5 5.6-3.5h.4v-.4c0-.6-.1-1-.3-1.2-.3-.3-.8-.4-1.6-.4-.9 0-1.8.3-2.7.8L259 83c.2-.2.6-.4 1.1-.6.8-.3 1.6-.5 2.6-.5 1.3 0 2.4.4 3.1 1.1.4.4.6.8.7 1.3.1.3.1.9.1 1.7v6.1zm-2.2-2.2v-2.6h-.5c-1.5 0-2.6.3-3.1.8-.3.3-.4.6-.4 1 0 .5.2.9.5 1.1.3.3.7.4 1.2.4.8 0 1.5-.3 2.3-.7zM277.1 92.1h-2.2v-5.4c0-1.3-.1-2.1-.4-2.4-.3-.3-.7-.4-1.3-.4-.7 0-1.4.2-2.2.7v7.5h-2.2v-9.9h1.9v.7c.9-.7 1.9-1 2.9-1s1.9.3 2.5.9c.5.5.8 1 .9 1.7.1.4.1 1.1.1 2v5.6zM286.2 89.2c0 1-.4 1.7-1.1 2.3-.7.6-1.6.8-2.7.8-.9 0-1.7-.2-2.5-.5-.5-.2-.8-.4-1.1-.6l.8-1.5c1 .5 1.8.8 2.6.8.6 0 1-.1 1.3-.3s.4-.5.4-.9-.2-.6-.6-.9c-.2-.1-.7-.4-1.6-.7-.8-.3-1.4-.7-1.7-1-.6-.5-.9-1.2-.9-2 0-.9.3-1.6 1-2.1s1.6-.8 2.6-.8c1.4 0 2.5.3 3.2.9l-.8 1.4c-.8-.4-1.5-.7-2.3-.7-1.1 0-1.6.4-1.6 1.1 0 .3.2.6.5.8.2.1.6.3 1.3.6 1 .4 1.7.8 2 1.1.9.7 1.2 1.4 1.2 2.2z"/></g><path class="st0" d="M58.2 92.3c-.9 0-1.7-.7-1.7-1.7 0-.9.8-1.7 1.7-1.7s1.7.8 1.7 1.7c0 .9-.7 1.7-1.7 1.7m0-3c-.7 0-1.3.6-1.3 1.3 0 .7.6 1.3 1.3 1.3s1.3-.5 1.3-1.3c0-.7-.6-1.3-1.3-1.3m.4 2.1l-.2-.4c-.1-.2-.1-.2-.4-.2v.7h-.3v-1.8h.4c.2 0 .4 0 .6.2.1.1.2.2.2.4s-.1.4-.3.4c.1 0 .2.1.2.2l.3.6h-.5zm-.2-1.4H58v.4h.3c.1 0 .2-.1.2-.2s-.1-.2-.1-.2"/><path class="st2" d="M15 75.2h271.7v18.7H15z"/></svg>