<svg id="Layer_1" xmlns="http://www.w3.org/2000/svg" viewBox="0 0 728 90"><style>.st0{fill:#393}.st1{fill:#231f20}</style><path class="st0" d="M56 14.3V40h-5.7V14.3H56zM58.4 24.8v-3.4h3.1V20c0-1.7.5-3 1.5-4.1 1-1.1 2.6-1.6 4.7-1.6.5 0 .9 0 1.4.1s.9.1 1.3.1v3.8c-.6-.1-1.2-.1-1.9-.1s-1.2.2-1.5.5c-.3.3-.5.9-.5 1.6v1.1H70v3.4h-3.5V40h-5.1V24.8h-3zM92.6 21.4v3.4h-3.7V34c0 .9.1 1.4.4 1.7s.9.4 1.7.4h.8c.3 0 .5-.1.8-.1v4c-.4.1-.9.1-1.4.1h-1.5c-.8 0-1.5-.1-2.2-.2-.7-.1-1.3-.3-1.9-.6s-1-.8-1.3-1.3c-.3-.6-.5-1.3-.5-2.3v-11h-3.1v-3.4h3.1v-5.6h5.1v5.6h3.7zM100.2 14.3V24h.1c.6-1.1 1.5-1.9 2.5-2.4s2-.7 3-.7c1.4 0 2.5.2 3.4.6.9.4 1.6.9 2.1 1.5s.9 1.5 1.1 2.4c.2.9.3 2 .3 3.1V40h-5.1V29.5c0-1.5-.2-2.7-.7-3.4-.5-.8-1.3-1.1-2.6-1.1-1.4 0-2.4.4-3 1.2-.6.8-.9 2.2-.9 4.1V40H95V14.3h5.2zM121.9 35.6c.8.7 1.9 1.1 3.3 1.1 1 0 1.9-.3 2.7-.8.7-.5 1.2-1.1 1.4-1.6h4.5c-.7 2.2-1.8 3.8-3.3 4.8-1.5 1-3.3 1.4-5.4 1.4-1.5 0-2.8-.2-4-.7-1.2-.5-2.2-1.1-3-2-.8-.9-1.4-1.9-1.9-3.1-.4-1.2-.7-2.5-.7-4 0-1.4.2-2.7.7-3.9.5-1.2 1.1-2.2 1.9-3.1.8-.9 1.8-1.6 3-2.1s2.5-.8 3.9-.8c1.6 0 3 .3 4.1.9 1.2.6 2.1 1.4 2.9 2.5.8 1 1.3 2.2 1.6 3.5.3 1.3.5 2.7.4 4.1h-13.4c.1 1.8.5 3 1.3 3.8zm5.7-9.8c-.6-.7-1.5-1-2.8-1-.8 0-1.5.1-2 .4-.5.3-1 .6-1.3 1-.3.4-.6.8-.7 1.3-.1.5-.2.9-.2 1.2h8.3c-.2-1.3-.6-2.3-1.3-2.9z"/><g><path class="st1" d="M161.5 14.3c1.2 0 2.2.2 3.1.6.9.4 1.7.9 2.4 1.5s1.2 1.4 1.5 2.2c.3.9.5 1.8.5 2.8 0 1.5-.3 2.8-1 3.9-.6 1.1-1.7 1.9-3.1 2.5v.1c.7.2 1.3.5 1.7.9.5.4.8.9 1.1 1.4s.5 1.1.6 1.8c.1.6.2 1.3.3 1.9 0 .4 0 .9.1 1.4 0 .6.1 1.1.1 1.7.1.6.2 1.1.3 1.6.1.5.3 1 .6 1.3H164c-.3-.8-.5-1.8-.6-2.9-.1-1.1-.2-2.2-.3-3.2-.2-1.3-.6-2.3-1.2-3-.6-.6-1.6-.9-3.1-.9h-5.7v10h-5.7V14.3h14.1zm-2 11.6c1.3 0 2.3-.3 2.9-.9s1-1.5 1-2.8c0-1.2-.3-2.2-1-2.7s-1.6-.8-2.9-.8h-6.2v7.2h6.2zM192.8 14.3v4.8h-13.6v5.5h12.5V29h-12.5v6.3h13.9V40h-19.5V14.3h19.2zM194.9 19.1v-4.8H216v4.8h-7.7v21h-5.7v-21h-7.7zM228.4 14.3L238 40h-5.9l-1.9-5.7h-9.6l-2 5.7h-5.7l9.7-25.7h5.8zm.4 15.8l-3.2-9.4h-.1l-3.3 9.4h6.6zM245.9 14.3V40h-5.7V14.3h5.7zM256.5 14.3l10.7 17.2h.1V14.3h5.3V40h-5.7l-10.7-17.2h-.1V40h-5.3V14.3h5.7zM296.8 14.3v4.8h-13.6v5.5h12.5V29h-12.5v6.3h13.9V40h-19.5V14.3h19.2zM314.8 14.3c1.2 0 2.2.2 3.1.6.9.4 1.7.9 2.4 1.5s1.2 1.4 1.5 2.2c.3.9.5 1.8.5 2.8 0 1.5-.3 2.8-1 3.9-.6 1.1-1.7 1.9-3.1 2.5v.1c.7.2 1.3.5 1.7.9.5.4.8.9 1.1 1.4s.5 1.1.6 1.8c.1.6.2 1.3.3 1.9 0 .4 0 .9.1 1.4 0 .6.1 1.1.1 1.7.1.6.2 1.1.3 1.6.1.5.3 1 .6 1.3h-5.7c-.3-.8-.5-1.8-.6-2.9-.1-1.1-.2-2.2-.3-3.2-.2-1.3-.6-2.3-1.2-3-.6-.6-1.6-.9-3.1-.9h-5.7v10h-5.7V14.3h14.1zm-2.1 11.6c1.3 0 2.3-.3 2.9-.9s1-1.5 1-2.8c0-1.2-.3-2.2-1-2.7s-1.6-.8-2.9-.8h-6.2v7.2h6.2zM355 14.3v4.8h-12.4V25h10.8v4.4h-10.8V40h-5.7V14.3H355zM363.9 14.3V40h-5.7V14.3h5.7zM366.8 19.1v-4.8h21.1v4.8h-7.7v21h-5.7v-21h-7.7zM395.2 33.7c.3.6.7 1.1 1.2 1.5.5.4 1.1.6 1.8.8.7.2 1.4.3 2.2.3.5 0 1 0 1.6-.1.6-.1 1.1-.2 1.6-.5.5-.2.9-.6 1.3-1 .3-.4.5-1 .5-1.6 0-.7-.2-1.3-.7-1.7-.4-.4-1-.8-1.7-1.1s-1.5-.5-2.4-.8c-.9-.2-1.8-.5-2.8-.7-1-.2-1.9-.5-2.8-.9-.9-.3-1.7-.8-2.4-1.4-.7-.6-1.3-1.2-1.7-2.1-.4-.8-.7-1.8-.7-3 0-1.3.3-2.5.8-3.4.6-1 1.3-1.8 2.2-2.4.9-.6 1.9-1.1 3.1-1.4 1.2-.3 2.3-.5 3.5-.5 1.3 0 2.6.1 3.9.4 1.2.3 2.3.8 3.3 1.5s1.7 1.5 2.3 2.6c.6 1 .8 2.3.8 3.8h-5.5c0-.8-.2-1.4-.5-1.9s-.6-.9-1.1-1.2c-.5-.3-1-.5-1.6-.6-.6-.1-1.2-.2-1.9-.2-.5 0-.9 0-1.4.1-.5.1-.9.3-1.2.5-.4.2-.7.5-.9.9s-.4.8-.4 1.4c0 .5.1.9.3 1.2.2.3.6.6 1.1.9.6.3 1.3.5 2.3.8 1 .3 2.3.6 3.9 1 .5.1 1.1.3 2 .5.9.3 1.7.7 2.5 1.2.8.6 1.6 1.3 2.2 2.2.6.9.9 2.1.9 3.5 0 1.2-.2 2.3-.7 3.3-.5 1-1.1 1.9-2 2.6-.9.7-2 1.3-3.3 1.7s-2.9.6-4.6.6c-1.4 0-2.8-.2-4.1-.5s-2.5-.9-3.5-1.6c-1-.7-1.8-1.7-2.4-2.8-.6-1.2-.9-2.5-.9-4.1h5.5c-.1.9.1 1.6.4 2.2zM419.6 34.5V40c0 .8-.1 1.6-.4 2.2-.3.7-.7 1.3-1.2 1.8s-1.1.9-1.8 1.2c-.7.3-1.4.5-2.2.7v-2.6c.4-.1.7-.2 1-.4s.6-.5.8-.8c.2-.3.4-.6.5-1s.2-.8.1-1.1h-2.6v-5.5h5.8z"/></g><g><path class="st0" d="M69.2 76l-4.4-17.5h-.1L60.5 76h-5.7L48 50.3h5.7l4.1 17.5h.1l4.5-17.5h5.3L71.9 68h.1l4.2-17.7h5.5L74.8 76h-5.6zM103.5 50.3v4.8H89.9v5.5h12.5V65H89.9v6.3h13.9V76H84.3V50.3h19.2zM120.4 50.3L130 76h-5.9l-1.9-5.7h-9.6l-2 5.7h-5.7l9.7-25.7h5.8zm.4 15.8l-3.2-9.4h-.1l-3.3 9.4h6.6zM146.1 50.3c1.2 0 2.2.2 3.1.6.9.4 1.7.9 2.4 1.5s1.2 1.4 1.5 2.2c.3.9.5 1.8.5 2.8 0 1.5-.3 2.8-1 3.9-.6 1.1-1.7 1.9-3.1 2.5v.1c.7.2 1.3.5 1.7.9.5.4.8.9 1.1 1.4s.5 1.1.6 1.8c.1.6.2 1.3.3 1.9 0 .4 0 .9.1 1.4 0 .6.1 1.1.1 1.7.1.6.2 1.1.3 1.6.1.5.3 1 .6 1.3h-5.7c-.3-.8-.5-1.8-.6-2.9s-.2-2.2-.3-3.2c-.2-1.3-.6-2.3-1.2-3-.6-.6-1.6-.9-3.1-.9h-5.7v10H132V50.3h14.1zm-2 11.6c1.3 0 2.3-.3 2.9-.9.6-.6 1-1.5 1-2.8 0-1.2-.3-2.2-1-2.7-.6-.6-1.6-.8-2.9-.8h-6.2v7.2h6.2zM173.9 50.3V76h-5.7V50.3h5.7zM176.9 55.1v-4.8H198v4.8h-7.7v21h-5.7v-21h-7.7zM202.2 70.5V76h-5.7v-5.5h5.7z"/></g></svg>