<svg id="Layer_1" xmlns="http://www.w3.org/2000/svg" viewBox="0 0 728 90"><style>.st0{fill:#231f20}</style><path class="st0" d="M310.8 34.8c.2.4.5.7.8 1s.7.4 1.2.6c.5.1.9.2 1.4.2.3 0 .7 0 1.1-.1.4-.1.7-.2 1.1-.3.3-.2.6-.4.8-.7.2-.3.3-.6.3-1.1 0-.5-.1-.8-.4-1.1-.3-.3-.7-.5-1.2-.7s-1-.4-1.6-.5-1.2-.3-1.8-.5c-.6-.2-1.3-.4-1.9-.6-.6-.2-1.2-.5-1.6-.9-.5-.4-.9-.8-1.2-1.4-.3-.6-.4-1.2-.4-2 0-.9.2-1.6.6-2.3s.9-1.2 1.5-1.6 1.3-.8 2.1-1 1.5-.3 2.3-.3c.9 0 1.8.1 2.6.3.8.2 1.6.5 2.2 1 .6.4 1.1 1 1.5 1.7.4.7.6 1.5.6 2.5H317c0-.5-.1-.9-.3-1.3-.2-.3-.4-.6-.7-.8-.3-.2-.7-.3-1-.4-.4-.1-.8-.1-1.3-.1-.3 0-.6 0-.9.1-.3.1-.6.2-.8.3-.2.2-.5.4-.6.6-.2.2-.2.5-.2.9 0 .3.1.6.2.8.1.2.4.4.8.6.4.2.9.4 1.6.5.7.2 1.5.4 2.6.7.3.1.8.2 1.3.3.6.2 1.1.4 1.7.8.6.4 1 .9 1.5 1.5.4.6.6 1.4.6 2.4 0 .8-.2 1.5-.5 2.2-.3.7-.8 1.3-1.4 1.7-.6.5-1.3.9-2.2 1.1s-1.9.4-3.1.4c-.9 0-1.9-.1-2.7-.3-.9-.2-1.7-.6-2.4-1.1-.7-.5-1.2-1.1-1.6-1.9s-.6-1.7-.6-2.7h3.6c-.1.6 0 1.1.2 1.5zM331.3 39.1v-1.7h-.1c-.4.7-1 1.2-1.7 1.6s-1.4.5-2.1.5c-.9 0-1.7-.1-2.2-.4-.6-.2-1-.6-1.4-1s-.6-1-.7-1.6c-.1-.6-.2-1.3-.2-2.1v-7.6h3.4v7c0 1 .2 1.8.5 2.3.3.5.9.8 1.7.8.9 0 1.6-.3 2-.8.4-.6.6-1.5.6-2.7v-6.5h3.4v12.4h-3.2zM340.2 26.6v1.6c.4-.7.9-1.2 1.6-1.5.6-.3 1.3-.5 2.1-.5 1 0 1.8.2 2.5.6s1.3.9 1.8 1.5.8 1.3 1 2.1c.2.8.3 1.7.3 2.5s-.1 1.6-.3 2.4-.6 1.4-1 2-1 1.1-1.7 1.4c-.7.4-1.5.5-2.4.5-.8 0-1.5-.2-2.1-.5-.6-.3-1.2-.8-1.6-1.4v5.9H337V26.6h3.2zm4.4 9.9c.4-.2.7-.5.9-.9.2-.4.4-.8.5-1.3.1-.5.1-1 .1-1.5s-.1-1-.2-1.5-.3-.9-.5-1.3-.5-.7-.9-.9c-.4-.2-.8-.3-1.4-.3-.6 0-1 .1-1.4.3-.4.2-.7.5-.9.9-.2.4-.4.8-.5 1.3-.1.5-.1 1-.1 1.5s.1 1 .2 1.5.3.9.5 1.3.5.7.9.9.8.3 1.4.3c.6 0 1-.1 1.4-.3zM354.6 26.6v1.6c.4-.7.9-1.2 1.6-1.5.6-.3 1.3-.5 2.1-.5 1 0 1.8.2 2.5.6s1.3.9 1.8 1.5.8 1.3 1 2.1c.2.8.3 1.7.3 2.5s-.1 1.6-.3 2.4c-.2.8-.6 1.4-1 2s-1 1.1-1.7 1.4c-.7.4-1.5.5-2.4.5-.8 0-1.5-.2-2.1-.5-.6-.3-1.2-.8-1.6-1.4v5.9h-3.4V26.6h3.2zm4.5 9.9c.4-.2.7-.5.9-.9.2-.4.4-.8.5-1.3.1-.5.1-1 .1-1.5s-.1-1-.2-1.5-.3-.9-.5-1.3-.5-.7-.9-.9c-.4-.2-.8-.3-1.4-.3-.6 0-1 .1-1.4.3-.4.2-.7.5-.9.9-.2.4-.4.8-.5 1.3-.1.5-.1 1-.1 1.5s.1 1 .2 1.5.3.9.5 1.3.5.7.9.9.8.3 1.4.3c.5 0 1-.1 1.4-.3zM369.3 21.9V39h-3.4V21.9h3.4zM375.4 36.1c.5.5 1.2.7 2.2.7.7 0 1.3-.2 1.8-.5s.8-.7.9-1.1h3c-.5 1.5-1.2 2.6-2.2 3.2-1 .6-2.2 1-3.6 1-1 0-1.9-.2-2.6-.5-.8-.3-1.4-.8-2-1.3-.5-.6-1-1.3-1.3-2.1-.3-.8-.4-1.7-.4-2.6 0-.9.2-1.8.5-2.6s.7-1.5 1.3-2.1c.6-.6 1.2-1 2-1.4.8-.3 1.6-.5 2.6-.5 1.1 0 2 .2 2.8.6.8.4 1.4 1 1.9 1.6s.9 1.5 1.1 2.4c.2.9.3 1.8.2 2.8h-9c0 1.1.3 1.9.8 2.4zm3.9-6.5c-.4-.4-1-.7-1.9-.7-.5 0-1 .1-1.4.3s-.6.4-.9.7-.4.6-.5.9c-.1.3-.1.6-.2.8h5.5c.1-.9-.2-1.6-.6-2zM388.7 26.6v1.7c.4-.6 1-1.1 1.6-1.5.6-.4 1.4-.5 2.2-.5.8 0 1.5.2 2.1.5.6.3 1.1.8 1.5 1.6.4-.5.9-1 1.5-1.4.6-.4 1.4-.6 2.2-.6.7 0 1.3.1 1.8.2.6.2 1 .4 1.4.8.4.4.7.8.9 1.4.2.6.3 1.3.3 2.1v8.3H401v-7V31c0-.4-.1-.7-.3-1-.1-.3-.4-.5-.6-.6-.3-.2-.7-.2-1.1-.2-.5 0-.9.1-1.2.3-.3.2-.5.4-.7.7-.2.3-.3.6-.3 1-.1.4-.1.8-.1 1.1v6.9h-3.4v-7-1.1c0-.4-.1-.7-.2-1-.1-.3-.3-.5-.6-.7s-.7-.3-1.2-.3c-.2 0-.4 0-.6.1-.3.1-.5.2-.8.4-.2.2-.5.5-.6.9-.2.4-.3.9-.3 1.5v7.2h-3.4V26.6h3.1zM410.5 36.1c.5.5 1.2.7 2.2.7.7 0 1.3-.2 1.8-.5s.8-.7.9-1.1h3c-.5 1.5-1.2 2.6-2.2 3.2-1 .6-2.2 1-3.6 1-1 0-1.9-.2-2.6-.5-.8-.3-1.4-.8-2-1.3-.5-.6-1-1.3-1.3-2.1-.3-.8-.4-1.7-.4-2.6 0-.9.2-1.8.5-2.6s.7-1.5 1.3-2.1c.6-.6 1.2-1 2-1.4.8-.3 1.6-.5 2.6-.5 1.1 0 2 .2 2.8.6.8.4 1.4 1 1.9 1.6s.9 1.5 1.1 2.4c.2.9.3 1.8.2 2.8h-9c0 1.1.3 1.9.8 2.4zm3.9-6.5c-.4-.4-1-.7-1.9-.7-.5 0-1 .1-1.4.3s-.6.4-.9.7-.4.6-.5.9c-.1.3-.1.6-.2.8h5.5c.1-.9-.2-1.6-.6-2zM423.7 26.6v1.7h.1c.4-.7 1-1.2 1.7-1.6.7-.3 1.4-.5 2.1-.5.9 0 1.7.1 2.2.4.6.2 1 .6 1.4 1s.6 1 .7 1.6c.1.6.2 1.3.2 2.1v7.6h-3.4v-7c0-1-.2-1.8-.5-2.3-.3-.5-.9-.8-1.7-.8-.9 0-1.6.3-2 .8-.4.6-.6 1.5-.6 2.7v6.5h-3.4V26.6h3.2zM441.3 26.6v2.3h-2.5V35c0 .6.1 1 .3 1.2.2.2.6.3 1.2.3h.6c.2 0 .3 0 .5-.1V39c-.3 0-.6.1-1 .1h-1c-.5 0-1 0-1.5-.1s-.9-.2-1.2-.4c-.4-.2-.6-.5-.9-.9-.2-.4-.3-.9-.3-1.5v-7.3h-2.1v-2.3h2.1v-3.7h3.4v3.7h2.4zM442.5 30.5c0-.8.2-1.5.6-2 .4-.5.8-1 1.3-1.3.5-.3 1.2-.5 1.8-.7.7-.1 1.4-.2 2.1-.2.6 0 1.3 0 1.9.1s1.2.3 1.8.5c.5.3 1 .6 1.3 1.1s.5 1.1.5 1.8v6.5c0 .6 0 1.1.1 1.6s.2.9.3 1.2h-3.5c-.1-.2-.1-.4-.2-.6s-.1-.4-.1-.6c-.5.6-1.2 1-1.9 1.2-.7.2-1.5.3-2.3.3-.6 0-1.1-.1-1.7-.2s-1-.4-1.3-.7c-.4-.3-.7-.7-.9-1.2-.2-.5-.3-1-.3-1.7s.1-1.3.4-1.7.6-.8 1-1.1c.4-.3.8-.5 1.3-.6l1.5-.3c.5-.1 1-.1 1.5-.2.5 0 .9-.1 1.3-.2s.7-.2.9-.4c.2-.2.3-.5.3-.8 0-.4-.1-.7-.2-.9-.1-.2-.3-.4-.5-.5-.2-.1-.4-.2-.7-.2s-.5-.1-.9-.1c-.7 0-1.2.1-1.6.4-.4.3-.6.8-.7 1.4h-3.1zm7.9 2.5c-.1.1-.3.2-.5.3-.2.1-.4.1-.7.2-.2 0-.5.1-.8.1-.3 0-.5.1-.8.1-.3 0-.5.1-.8.2-.2.1-.5.2-.6.3-.2.1-.3.3-.4.5s-.2.5-.2.8c0 .3.1.6.2.8s.3.4.5.5c.2.1.4.2.7.3.3 0 .5.1.8.1.7 0 1.2-.1 1.6-.3.4-.2.6-.5.8-.8s.3-.6.3-.9c0-.3.1-.6.1-.8V33zM459.8 21.9V39h-3.4V21.9h3.4z"/><g><path class="st0" d="M288.8 46.9l4 11.8 3.8-11.8h5.3V64h-3.5V51.9L294.2 64h-2.9l-4.2-12v12h-3.5V46.9h5.2zM308.4 61.1c.5.5 1.2.7 2.2.7.7 0 1.3-.2 1.8-.5s.8-.7.9-1.1h3c-.5 1.5-1.2 2.6-2.2 3.2-1 .6-2.2 1-3.6 1-1 0-1.9-.2-2.6-.5-.8-.3-1.4-.8-2-1.3s-1-1.3-1.3-2.1c-.3-.8-.4-1.7-.4-2.6 0-.9.2-1.8.5-2.6s.7-1.5 1.3-2.1c.6-.6 1.2-1 2-1.4.8-.3 1.6-.5 2.6-.5 1.1 0 2 .2 2.8.6.8.4 1.4 1 1.9 1.6.5.7.9 1.5 1.1 2.4s.3 1.8.2 2.8h-9c0 1.1.2 1.9.8 2.4zm3.8-6.5c-.4-.4-1-.7-1.9-.7-.5 0-1 .1-1.4.3-.4.2-.6.4-.9.7-.2.3-.4.6-.5.9s-.1.6-.2.8h5.5c.1-.9-.2-1.6-.6-2zM327.1 62.5c-.4.7-.9 1.2-1.6 1.5-.6.3-1.4.4-2.2.4-.9 0-1.7-.2-2.4-.5-.7-.4-1.3-.8-1.7-1.5-.5-.6-.8-1.3-1-2.1-.2-.8-.3-1.6-.3-2.5 0-.8.1-1.6.3-2.4.2-.8.6-1.5 1-2.1.5-.6 1-1.1 1.7-1.4s1.5-.5 2.4-.5c.7 0 1.4.2 2.1.5.7.3 1.2.8 1.6 1.4v-6.2h3.4v17.1h-3.2l-.1-1.7zm-.2-6.2c-.1-.5-.3-.9-.5-1.2s-.5-.7-.9-.9-.8-.3-1.4-.3-1 .1-1.4.3c-.4.2-.7.5-.9.9s-.4.8-.5 1.3c-.1.5-.2 1-.2 1.5s.1 1 .2 1.4c.1.5.3.9.5 1.3s.6.7.9.9c.4.2.8.3 1.4.3.6 0 1-.1 1.4-.3.4-.2.7-.5.9-.9s.4-.8.5-1.3c.1-.5.1-1 .1-1.5.1-.5 0-1-.1-1.5zM332.8 49.7v-2.8h3.4v2.8h-3.4zm3.4 2v12.4h-3.4V51.7h3.4zM344.6 53.9c-.5 0-1 .1-1.4.4-.4.2-.7.6-.9 1-.2.4-.4.8-.5 1.3-.1.5-.1.9-.1 1.4 0 .4 0 .9.1 1.4.1.5.3.9.5 1.3s.5.7.9.9c.4.2.8.4 1.3.4.8 0 1.4-.2 1.9-.7.4-.5.7-1.1.8-1.8h3.3c-.2 1.6-.9 2.9-1.9 3.8-1.1.9-2.4 1.3-4.1 1.3-.9 0-1.8-.2-2.6-.5s-1.4-.7-2-1.3c-.5-.6-1-1.2-1.3-2-.3-.8-.5-1.6-.5-2.6s.1-1.9.4-2.7c.3-.8.7-1.5 1.2-2.1s1.2-1.1 2-1.4c.8-.3 1.7-.5 2.7-.5.7 0 1.4.1 2.1.3.7.2 1.3.5 1.8.9s1 .9 1.3 1.5.5 1.3.6 2.1h-3.3c0-1.7-.8-2.4-2.3-2.4zM352.1 55.5c0-.8.2-1.5.6-2 .4-.5.8-1 1.3-1.3.5-.3 1.2-.5 1.8-.7.7-.1 1.4-.2 2.1-.2.6 0 1.3 0 1.9.1.6.1 1.2.3 1.8.5.5.3 1 .6 1.3 1.1.3.5.5 1.1.5 1.8v6.5c0 .6 0 1.1.1 1.6s.2.9.3 1.2h-3.5c-.1-.2-.1-.4-.2-.6s-.1-.4-.1-.6c-.5.6-1.2 1-1.9 1.2-.7.2-1.5.3-2.3.3-.6 0-1.1-.1-1.7-.2-.5-.1-1-.4-1.3-.7-.4-.3-.7-.7-.9-1.2-.2-.5-.3-1-.3-1.7s.1-1.3.4-1.7c.2-.5.6-.8 1-1.1.4-.3.8-.5 1.3-.6l1.5-.3c.5-.1 1-.1 1.5-.2.5 0 .9-.1 1.3-.2s.7-.2.9-.4c.2-.2.3-.5.3-.8 0-.4-.1-.7-.2-.9-.1-.2-.3-.4-.5-.5s-.4-.2-.7-.2c-.3 0-.5-.1-.9-.1-.7 0-1.2.1-1.6.4-.4.3-.6.8-.7 1.4h-3.1zM360 58c-.1.1-.3.2-.5.3-.2.1-.4.1-.7.2-.2 0-.5.1-.8.1s-.5.1-.8.1c-.3 0-.5.1-.8.2s-.5.2-.6.3c-.2.1-.3.3-.4.5-.1.2-.2.5-.2.8 0 .3.1.6.2.8.1.2.3.4.5.5.2.1.4.2.7.3.3 0 .5.1.8.1.7 0 1.2-.1 1.6-.3.4-.2.6-.5.8-.8.2-.3.3-.6.3-.9 0-.3.1-.6.1-.8V58zM369.3 46.9V64h-3.4V46.9h3.4zM389.6 51.5c-.2-.4-.5-.7-.8-.9-.3-.3-.7-.5-1.1-.6-.4-.2-.9-.2-1.3-.2-.8 0-1.6.2-2.2.5s-1.1.8-1.4 1.3c-.4.6-.6 1.2-.8 1.9s-.3 1.4-.3 2.2c0 .7.1 1.4.3 2.1.2.7.4 1.3.8 1.8s.8 1 1.4 1.3 1.3.5 2.2.5c1.2 0 2.1-.4 2.7-1.1.6-.7 1-1.6 1.2-2.8h3.6c-.1 1.1-.3 2-.7 2.9-.4.9-.9 1.6-1.6 2.2-.7.6-1.4 1.1-2.3 1.4-.9.3-1.8.5-2.9.5-1.3 0-2.5-.2-3.5-.7s-1.9-1.1-2.7-1.9c-.7-.8-1.3-1.7-1.7-2.8-.4-1.1-.6-2.2-.6-3.5 0-1.3.2-2.5.6-3.6.4-1.1.9-2.1 1.7-2.9.7-.8 1.6-1.5 2.7-1.9 1-.5 2.2-.7 3.5-.7.9 0 1.8.1 2.7.4.8.3 1.6.7 2.3 1.2.7.5 1.2 1.2 1.6 1.9.4.8.7 1.6.8 2.6H390c-.1-.3-.2-.7-.4-1.1zM395.9 55.2c.3-.8.7-1.5 1.3-2.1.6-.6 1.2-1 2-1.3.8-.3 1.7-.5 2.6-.5 1 0 1.9.2 2.7.5.8.3 1.5.8 2 1.3.6.6 1 1.3 1.3 2.1.3.8.5 1.7.5 2.7 0 1-.2 1.9-.5 2.7s-.7 1.5-1.3 2.1c-.6.6-1.2 1-2 1.3s-1.7.5-2.7.5c-1 0-1.9-.2-2.6-.5s-1.5-.7-2-1.3c-.6-.6-1-1.3-1.3-2.1-.3-.8-.5-1.7-.5-2.7 0-1 .2-1.9.5-2.7zm3.1 4.1c.1.5.3.9.5 1.3s.5.7.9.9c.4.2.9.3 1.4.3s1.1-.1 1.5-.3c.4-.2.7-.5.9-.9.2-.4.4-.8.5-1.3.1-.5.1-1 .1-1.5s0-1-.1-1.5-.3-.9-.5-1.3-.5-.7-.9-.9c-.4-.2-.9-.3-1.5-.3s-1.1.1-1.4.3c-.4.2-.7.5-.9.9-.2.4-.4.8-.5 1.3-.1.5-.1 1-.1 1.5-.1.6 0 1.1.1 1.5zM413.3 64.1l-4.2-12.4h3.6l2.6 8.5 2.6-8.5h3.4l-4.2 12.4h-3.8zM426.2 61.1c.5.5 1.2.7 2.2.7.7 0 1.3-.2 1.8-.5s.8-.7.9-1.1h3c-.5 1.5-1.2 2.6-2.2 3.2-1 .6-2.2 1-3.6 1-1 0-1.9-.2-2.6-.5-.8-.3-1.4-.8-2-1.3-.5-.6-1-1.3-1.3-2.1s-.4-1.7-.4-2.6c0-.9.2-1.8.5-2.6s.7-1.5 1.3-2.1c.6-.6 1.2-1 2-1.4.8-.3 1.6-.5 2.6-.5 1.1 0 2 .2 2.8.6s1.4 1 1.9 1.6c.5.7.9 1.5 1.1 2.4.2.9.3 1.8.2 2.8h-9c0 1.1.2 1.9.8 2.4zm3.8-6.5c-.4-.4-1-.7-1.9-.7-.5 0-1 .1-1.4.3-.4.2-.6.4-.9.7s-.4.6-.5.9-.1.6-.2.8h5.5c.1-.9-.2-1.6-.6-2zM439.3 51.7V54c.2-.4.4-.7.6-1.1.3-.3.6-.6.9-.8.4-.2.7-.4 1.1-.5.4-.1.8-.2 1.2-.2.2 0 .5 0 .7.1v3.2c-.2 0-.4-.1-.6-.1h-.6c-.6 0-1.2.1-1.6.3-.4.2-.8.5-1 .9-.3.4-.5.8-.6 1.3-.1.5-.2 1-.2 1.6v5.6h-3.4V51.7h3.5zM445 55.5c0-.8.2-1.5.6-2 .4-.5.8-1 1.3-1.3.5-.3 1.2-.5 1.8-.7.7-.1 1.4-.2 2.1-.2.6 0 1.3 0 1.9.1s1.2.3 1.8.5 1 .6 1.3 1.1.5 1.1.5 1.8v6.5c0 .6 0 1.1.1 1.6s.2.9.3 1.2h-3.5c-.1-.2-.1-.4-.2-.6s-.1-.4-.1-.6c-.5.6-1.2 1-1.9 1.2-.7.2-1.5.3-2.3.3-.6 0-1.1-.1-1.7-.2-.5-.1-1-.4-1.3-.7-.4-.3-.7-.7-.9-1.2s-.3-1-.3-1.7.1-1.3.4-1.7.6-.8 1-1.1c.4-.3.8-.5 1.3-.6l1.5-.3c.5-.1 1-.1 1.5-.2.5 0 .9-.1 1.3-.2s.7-.2.9-.4c.2-.2.3-.5.3-.8 0-.4-.1-.7-.2-.9s-.3-.4-.5-.5c-.2-.1-.4-.2-.7-.2-.3 0-.5-.1-.9-.1-.7 0-1.2.1-1.6.4-.4.3-.6.8-.7 1.4H445zm7.9 2.5c-.1.1-.3.2-.5.3-.2.1-.4.1-.7.2s-.5.1-.8.1-.5.1-.8.1c-.3 0-.5.1-.8.2s-.5.2-.6.3c-.2.1-.3.3-.4.5-.1.2-.2.5-.2.8 0 .3.1.6.2.8s.3.4.5.5c.2.1.4.2.7.3.3 0 .5.1.8.1.7 0 1.2-.1 1.6-.3.4-.2.6-.5.8-.8.2-.3.3-.6.3-.9 0-.3.1-.6.1-.8V58zM470.5 65c-.1.6-.4 1.2-.9 1.8-.4.6-1.1 1-1.9 1.4-.8.4-2 .6-3.4.6-.6 0-1.2-.1-1.9-.2-.6-.2-1.2-.4-1.7-.7-.5-.3-1-.7-1.3-1.2-.3-.5-.5-1.1-.6-1.8h3.4c.2.6.5 1.1.9 1.3.5.2 1 .4 1.6.4 1 0 1.7-.3 2.1-.9.4-.6.7-1.3.6-2.2v-1.6c-.4.7-.9 1.1-1.6 1.5-.7.3-1.4.5-2.1.5-.9 0-1.7-.2-2.4-.5s-1.2-.8-1.7-1.3c-.4-.6-.7-1.2-.9-2-.2-.8-.3-1.6-.3-2.4 0-.8.1-1.6.3-2.3.2-.7.6-1.4 1-2 .4-.6 1-1 1.7-1.4.7-.3 1.4-.5 2.3-.5.8 0 1.5.2 2.1.5.6.3 1.1.8 1.5 1.5v-1.7h3.2v11.6c.2.4.1.9 0 1.6zm-4.7-4.2c.4-.2.7-.4.9-.8.2-.3.4-.7.5-1.1s.2-.8.2-1.3 0-1-.1-1.5-.3-.9-.5-1.2c-.2-.4-.5-.6-.9-.8-.4-.2-.8-.3-1.4-.3-.5 0-.9.1-1.2.3-.3.2-.6.5-.9.8-.2.3-.4.7-.5 1.1-.1.4-.2.9-.2 1.3s0 .9.1 1.3.2.8.5 1.2c.2.4.5.6.9.9.4.2.8.3 1.3.3.5.1.9 0 1.3-.2zM476.8 61.1c.5.5 1.2.7 2.2.7.7 0 1.3-.2 1.8-.5s.8-.7.9-1.1h3c-.5 1.5-1.2 2.6-2.2 3.2-1 .6-2.2 1-3.6 1-1 0-1.9-.2-2.6-.5-.8-.3-1.4-.8-2-1.3-.5-.6-1-1.3-1.3-2.1s-.4-1.7-.4-2.6c0-.9.2-1.8.5-2.6s.7-1.5 1.3-2.1c.6-.6 1.2-1 2-1.4.8-.3 1.6-.5 2.6-.5 1.1 0 2 .2 2.8.6s1.4 1 1.9 1.6c.5.7.9 1.5 1.1 2.4.2.9.3 1.8.2 2.8h-9c0 1.1.3 1.9.8 2.4zm3.9-6.5c-.4-.4-1-.7-1.9-.7-.5 0-1 .1-1.4.3-.4.2-.6.4-.9.7s-.4.6-.5.9-.1.6-.2.8h5.5c.1-.9-.2-1.6-.6-2z"/></g></svg>