<svg id="Layer_1" xmlns="http://www.w3.org/2000/svg" xmlns:xlink="http://www.w3.org/1999/xlink" viewBox="0 0 728 90"><style>.st0,.st1{clip-path:url(#SVGID_00000138560578205431916700000001503868997481550976_);fill:#231f20}.st1{fill:#00b2ee}</style><defs><path id="SVGID_1_" d="M89.9 19h76.6v26.1H89.9z"/></defs><clipPath id="SVGID_00000107583233997568117940000015748140259980171967_"><use xlink:href="#SVGID_1_" overflow="visible"/></clipPath><path d="M90.4 33h4.1c3.3 0 3.9 2.1 3.9 3.5s-.6 3.5-3.9 3.5h-2.1v4.4h-2V33zm2 5.4h2c.9 0 2-.4 2-1.9s-.9-1.9-2-1.9h-2v3.8zM99.6 36.2h1.7v1.6c.2-.9 1.3-1.8 2.4-1.8h.7v1.8c-.3 0-.5-.1-.8-.1-1.2 0-2.2 1-2.2 2.8v3.9h-1.8v-8.2zM104.7 40.3c0-2.5 1.5-4.4 4.2-4.4s4.2 1.8 4.2 4.4c0 2.5-1.5 4.4-4.2 4.4s-4.2-1.8-4.2-4.4m6.5 0c0-1.4-.7-2.9-2.4-2.9-1.6 0-2.4 1.5-2.4 2.9s.7 2.9 2.4 2.9 2.4-1.4 2.4-2.9M113.3 36.2h1.5v-2.5h1.7v2.5h1.6v1.4h-1.6V42c0 .8.1 1.1.9 1.1.3 0 .5 0 .8-.1v1.4c-.4 0-.8.1-1.2.1-1.9 0-2.3-.7-2.3-2.1v-4.9h-1.4v-1.3zM120.8 40.8c0 1.3.7 2.4 2.2 2.4 1.1 0 1.7-.5 2-1.4h1.7c-.4 1.8-1.9 2.8-3.7 2.8-2.6 0-4-1.8-4-4.4 0-2.4 1.5-4.4 4-4.4 2.6 0 4.2 2.4 3.9 4.8h-6.1zm4.2-1.2c-.1-1.2-.8-2.2-2.1-2.2s-2.1 1-2.2 2.2h4.3zM133.7 39c-.1-1-.9-1.6-1.9-1.6-.9 0-2.3.5-2.3 3 0 1.4.6 2.8 2.2 2.8 1.1 0 1.8-.7 2-1.9h1.8c-.3 2.1-1.7 3.3-3.8 3.3-2.6 0-4-1.8-4-4.3s1.4-4.4 4.1-4.4c1.9 0 3.6 1 3.7 3h-1.8zM136 36.2h1.4v-2.5h1.8v2.5h1.6v1.4h-1.6V42c0 .8.1 1.1.9 1.1.3 0 .5 0 .8-.1v1.4c-.4 0-.8.1-1.2.1-1.9 0-2.3-.7-2.3-2.1v-4.9H136v-1.3zM143 33h1.8v1.7H143V33zm0 3.2h1.8v8.3H143v-8.3zM146.1 36.2h2l2.6 6.3 2.5-6.3h1.9l-3.4 8.3h-2.1zM157.4 40.8c0 1.3.7 2.4 2.2 2.4 1.1 0 1.7-.5 2-1.4h1.7c-.4 1.8-1.9 2.8-3.7 2.8-2.6 0-4-1.8-4-4.4 0-2.4 1.5-4.4 4-4.4 2.6 0 4.2 2.4 3.9 4.8h-6.1zm4.2-1.2c-.1-1.2-.8-2.2-2.1-2.2s-2.1 1-2.2 2.2h4.3z" clip-path="url(#SVGID_00000107583233997568117940000015748140259980171967_)" fill="#231f20"/><path d="M139.5 31.1c-1.2-4.6-4.8-8.1-9.3-9.3-.4-1.4-1.7-2.4-3.3-2.4-1.5 0-2.8 1-3.3 2.4-4.5 1.2-8.1 4.7-9.3 9.3l-.1.5h2.8l.1-.3c1-3.3 3.7-5.8 6.9-6.8.6 1 1.7 1.7 2.9 1.7s2.3-.7 2.9-1.7c3.3 1 5.9 3.5 6.9 6.8l.1.3h2.8l-.1-.5z" clip-path="url(#SVGID_00000107583233997568117940000015748140259980171967_)" fill="#00b2ee"/><path d="M165.4 43.1c.4 0 .8.4.8.8s-.4.8-.8.8-.8-.4-.8-.8c-.1-.5.3-.8.8-.8m.6.8c0-.4-.3-.7-.7-.7-.4 0-.7.3-.7.7 0 .4.3.7.7.7.4 0 .7-.4.7-.7m-1-.5h.4c.2 0 .3.1.3.3 0 .2-.1.2-.3.3l.3.4h-.1l-.3-.4h-.2v.4h-.1v-1zm.3.4c.1 0 .2 0 .2-.1s-.1-.1-.2-.1h-.2v.3h.2z" clip-path="url(#SVGID_00000107583233997568117940000015748140259980171967_)" fill="#231f20"/></svg>