<svg id="Layer_1" xmlns="http://www.w3.org/2000/svg" viewBox="0 0 300 600"><style>.st0{fill:#393}</style><path class="st0" d="M93.5 199.4c1.5 0 2.7.2 3.8.6 1 .4 1.9 1 2.5 1.7.6.7 1.1 1.5 1.4 2.4.3.9.4 1.8.4 2.8 0 .9-.1 1.9-.4 2.8s-.8 1.7-1.4 2.4c-.6.7-1.5 1.3-2.5 1.7-1 .4-2.3.6-3.8.6h-5.4v8.4h-5.2v-23.6h10.6zm-1.4 11.1c.6 0 1.2 0 1.7-.1s1-.3 1.5-.5c.4-.3.8-.6 1-1.1.3-.5.4-1.1.4-1.8s-.1-1.4-.4-1.8c-.3-.5-.6-.8-1-1.1-.4-.3-.9-.4-1.5-.5-.6-.1-1.1-.1-1.7-.1h-4v7.1h4zM108.9 205.9v3.2h.1c.2-.5.5-1 .9-1.5s.8-.8 1.3-1.2c.5-.3 1-.6 1.6-.7.5-.2 1.1-.3 1.7-.3.3 0 .6.1 1 .2v4.4c-.2 0-.5-.1-.8-.1h-.9c-.9 0-1.6.1-2.2.4-.6.3-1.1.7-1.4 1.2-.4.5-.6 1.1-.8 1.7-.2.7-.2 1.4-.2 2.1v7.7h-4.7v-17.1h4.4zM117.1 211.1c.1-1.1.3-2 .8-2.7.5-.7 1.1-1.3 1.8-1.7s1.6-.8 2.5-.9c.9-.2 1.9-.3 2.8-.3.9 0 1.7.1 2.6.2.9.1 1.7.4 2.4.7s1.3.8 1.8 1.5.7 1.5.7 2.5v8.9c0 .8 0 1.5.1 2.2.1.7.2 1.2.5 1.6h-4.8c-.1-.3-.2-.5-.2-.8-.1-.3-.1-.6-.1-.8-.7.8-1.6 1.3-2.6 1.6-1 .3-2 .5-3.1.5-.8 0-1.6-.1-2.3-.3-.7-.2-1.3-.5-1.8-.9s-.9-.9-1.2-1.6c-.3-.6-.4-1.4-.4-2.3 0-1 .2-1.8.5-2.4.3-.6.8-1.1 1.3-1.5.5-.4 1.2-.7 1.8-.8.7-.2 1.4-.3 2.1-.4l2.1-.3c.7-.1 1.3-.2 1.8-.3.5-.1.9-.3 1.3-.6.3-.3.5-.6.4-1.1 0-.5-.1-.9-.2-1.2-.2-.3-.4-.5-.7-.7-.3-.2-.6-.3-1-.3-.4-.1-.8-.1-1.2-.1-.9 0-1.6.2-2.2.6-.5.4-.8 1.1-.9 2h-4.6zm10.8 3.5c-.2.2-.4.3-.7.4s-.6.2-1 .2c-.3.1-.7.1-1.1.2-.4 0-.7.1-1.1.2-.4.1-.7.2-1 .3-.3.1-.6.3-.9.4-.3.2-.5.4-.6.7-.2.3-.2.6-.2 1.1 0 .4.1.8.2 1.1.2.3.4.5.6.7.3.2.6.3.9.3.4.1.7.1 1.1.1.9 0 1.6-.2 2.1-.5s.9-.7 1.1-1.1c.2-.4.4-.9.4-1.3.1-.4.1-.8.1-1.1v-1.7zM144.4 209c-.7 0-1.4.2-1.9.5s-.9.8-1.2 1.3c-.3.5-.5 1.1-.7 1.8-.1.6-.2 1.3-.2 1.9 0 .6.1 1.2.2 1.9.1.6.3 1.2.6 1.7s.7.9 1.2 1.3c.5.3 1.1.5 1.8.5 1.1 0 2-.3 2.6-.9.6-.6 1-1.5 1.1-2.5h4.5c-.3 2.3-1.2 4-2.6 5.2-1.5 1.2-3.3 1.8-5.6 1.8-1.3 0-2.4-.2-3.5-.6-1.1-.4-2-1-2.7-1.8-.7-.8-1.3-1.7-1.7-2.8-.4-1.1-.6-2.2-.6-3.5 0-1.3.2-2.5.6-3.7.4-1.1 1-2.1 1.7-2.9.7-.8 1.7-1.5 2.7-1.9 1.1-.5 2.3-.7 3.7-.7 1 0 2 .1 2.9.4.9.3 1.8.7 2.5 1.2s1.3 1.2 1.8 2 .7 1.8.8 2.9h-4.6c-.3-2.2-1.4-3.1-3.4-3.1zM164.5 205.9v3.1h-3.4v8.4c0 .8.1 1.3.4 1.6.3.3.8.4 1.6.4h.8c.3 0 .5-.1.7-.1v3.6c-.4.1-.8.1-1.3.1h-1.4c-.7 0-1.4 0-2.1-.1-.6-.1-1.2-.3-1.7-.6s-.9-.7-1.2-1.2c-.3-.5-.4-1.2-.4-2.1v-10h-2.8v-3.1h2.8v-5.1h4.7v5.1h3.3zM166.9 203.2v-3.9h4.7v3.9h-4.7zm4.7 2.7V223h-4.7v-17.1h4.7zM183.4 209c-.7 0-1.4.2-1.9.5s-.9.8-1.2 1.3c-.3.5-.5 1.1-.7 1.8s-.2 1.3-.2 1.9c0 .6.1 1.2.2 1.9.1.6.3 1.2.6 1.7s.7.9 1.2 1.3c.5.3 1.1.5 1.8.5 1.1 0 2-.3 2.6-.9.6-.6 1-1.5 1.1-2.5h4.5c-.3 2.3-1.2 4-2.6 5.2s-3.3 1.8-5.6 1.8c-1.3 0-2.4-.2-3.5-.6-1.1-.4-2-1-2.7-1.8-.7-.8-1.3-1.7-1.7-2.8-.4-1.1-.6-2.2-.6-3.5 0-1.3.2-2.5.6-3.7.4-1.1 1-2.1 1.7-2.9.7-.8 1.7-1.5 2.7-1.9s2.3-.7 3.7-.7c1 0 2 .1 2.9.4.9.3 1.8.7 2.5 1.2s1.3 1.2 1.8 2 .7 1.8.8 2.9h-4.6c-.2-2.2-1.4-3.1-3.4-3.1zM194 211.1c.1-1.1.3-2 .8-2.7.5-.7 1.1-1.3 1.8-1.7s1.6-.8 2.5-.9c.9-.2 1.9-.3 2.8-.3.9 0 1.7.1 2.6.2.9.1 1.7.4 2.4.7.7.4 1.3.8 1.8 1.5s.7 1.5.7 2.5v8.9c0 .8 0 1.5.1 2.2.1.7.2 1.2.5 1.6h-4.8c-.1-.3-.2-.5-.2-.8-.1-.3-.1-.6-.1-.8-.7.8-1.6 1.3-2.6 1.6-1 .3-2 .5-3.1.5-.8 0-1.6-.1-2.3-.3-.7-.2-1.3-.5-1.8-.9s-.9-.9-1.2-1.6c-.3-.6-.4-1.4-.4-2.3 0-1 .2-1.8.5-2.4s.8-1.1 1.3-1.5 1.2-.7 1.8-.8c.7-.2 1.4-.3 2.1-.4l2.1-.3c.7-.1 1.3-.2 1.8-.3.5-.1.9-.3 1.3-.6.3-.3.5-.6.4-1.1 0-.5-.1-.9-.2-1.2-.2-.3-.4-.5-.7-.7-.3-.2-.6-.3-1-.3-.4-.1-.8-.1-1.2-.1-.9 0-1.7.2-2.2.6-.5.4-.8 1.1-.9 2H194zm10.8 3.5c-.2.2-.4.3-.7.4-.3.1-.6.2-1 .2-.3.1-.7.1-1.1.2-.4 0-.7.1-1.1.2-.4.1-.7.2-1 .3-.3.1-.6.3-.9.4-.3.2-.5.4-.6.7-.2.3-.2.6-.2 1.1 0 .4.1.8.2 1.1.2.3.4.5.6.7.3.2.6.3.9.3.4.1.7.1 1.1.1.9 0 1.6-.2 2.1-.5s.9-.7 1.1-1.1c.2-.4.4-.9.4-1.3.1-.4.1-.8.1-1.1v-1.7zM218 199.4V223h-4.7v-23.6h4.7z"/><g><path class="st0" d="M79.4 258l-4-16h-.1l-3.9 16h-5.2L60 234.4h5.2l3.7 16h.1l4.1-16H78l4 16.2 3.9-16.2H91L84.6 258h-5.2zM92.9 238.3v-3.9h4.7v3.9h-4.7zm4.7 2.6V258h-4.7v-17.1h4.7zM105.3 253.7c.2.4.5.7.8.9.3.2.7.4 1.1.5.4.1.9.2 1.3.2.3 0 .7 0 1-.1.4-.1.7-.2 1-.4s.5-.4.7-.7c.2-.3.3-.6.3-1 0-.7-.5-1.2-1.4-1.6-.9-.4-2.2-.7-3.9-1.1-.7-.2-1.3-.3-2-.5-.6-.2-1.2-.5-1.7-.8-.5-.3-.9-.8-1.2-1.3-.3-.5-.5-1.1-.5-1.9 0-1.1.2-2 .6-2.7.4-.7 1-1.3 1.7-1.7.7-.4 1.5-.7 2.4-.9s1.8-.2 2.7-.2c.9 0 1.8.1 2.7.3s1.6.5 2.3.9c.7.4 1.2 1 1.7 1.7s.7 1.6.8 2.6h-4.5c-.1-.9-.4-1.5-1-1.8-.6-.3-1.3-.5-2.2-.5h-.9c-.3 0-.6.1-.8.2-.3.1-.5.3-.6.5-.2.2-.3.5-.3.8 0 .4.2.8.5 1 .3.3.7.5 1.2.6s1.1.3 1.7.4c.6.1 1.3.3 1.9.4.7.2 1.3.3 2 .6.6.2 1.2.5 1.7.9s.9.8 1.2 1.4c.3.5.5 1.2.5 2 0 1.1-.2 2.1-.7 2.8-.5.8-1 1.4-1.8 1.8-.7.5-1.6.8-2.5 1-.9.2-1.9.3-2.9.3s-2-.1-2.9-.3c-.9-.2-1.8-.5-2.5-1s-1.3-1.1-1.8-1.8c-.5-.8-.7-1.7-.8-2.9h4.5c.3.6.4 1.1.6 1.4zM131.2 255.8c-.6.9-1.3 1.6-2.2 2s-1.9.6-3 .6c-1.3 0-2.4-.2-3.4-.7-1-.5-1.8-1.2-2.4-2-.6-.8-1.1-1.8-1.4-2.9-.3-1.1-.5-2.2-.5-3.4 0-1.1.2-2.2.5-3.3.3-1.1.8-2 1.4-2.8s1.4-1.5 2.4-2c.9-.5 2-.7 3.3-.7 1 0 2 .2 2.9.6.9.4 1.6 1.1 2.2 1.9h.1v-8.6h4.7V258h-4.5l-.1-2.2zm-.2-8.4c-.1-.6-.4-1.2-.7-1.7-.3-.5-.7-.9-1.2-1.2-.5-.3-1.1-.5-1.9-.5-.8 0-1.4.2-1.9.5s-1 .7-1.3 1.2c-.3.5-.6 1.1-.7 1.7-.1.6-.2 1.3-.2 2s.1 1.3.2 2c.2.7.4 1.2.7 1.8.3.5.8.9 1.3 1.3.5.3 1.1.5 1.9.5.8 0 1.4-.2 1.9-.5s.9-.7 1.2-1.2c.3-.5.5-1.1.7-1.8.1-.7.2-1.3.2-2 0-.8-.1-1.5-.2-2.1zM139.3 245.7c.4-1.1 1-2.1 1.8-2.8.8-.8 1.7-1.4 2.8-1.8 1.1-.4 2.3-.6 3.6-.6 1.3 0 2.6.2 3.6.6 1.1.4 2 1 2.8 1.8.8.8 1.4 1.7 1.8 2.8.4 1.1.6 2.3.6 3.7 0 1.4-.2 2.6-.6 3.7-.4 1.1-1 2-1.8 2.8-.8.8-1.7 1.4-2.8 1.8-1.1.4-2.3.6-3.6.6-1.3 0-2.6-.2-3.6-.6-1.1-.4-2-1-2.8-1.8-.8-.8-1.4-1.7-1.8-2.8s-.6-2.3-.6-3.7c0-1.3.2-2.6.6-3.7zm4.3 5.7c.1.6.4 1.2.7 1.7.3.5.7.9 1.3 1.2s1.2.5 2 .5 1.5-.2 2-.5 1-.7 1.3-1.2c.3-.5.5-1.1.7-1.7.1-.6.2-1.3.2-2s-.1-1.4-.2-2c-.1-.7-.4-1.2-.7-1.7-.3-.5-.7-.9-1.3-1.2-.5-.3-1.2-.5-2-.5s-1.5.2-2 .5-1 .7-1.3 1.2c-.3.5-.5 1.1-.7 1.7-.1.7-.2 1.3-.2 2s0 1.4.2 2zM163.9 240.9v2.3h.1c.6-.9 1.4-1.6 2.2-2 .9-.5 1.9-.7 3-.7s2.1.2 3 .6c.9.4 1.6 1.2 2 2.2.5-.7 1.2-1.4 2.1-2 .9-.6 1.9-.9 3.1-.9.9 0 1.7.1 2.5.3.8.2 1.4.6 2 1.1.5.5 1 1.1 1.3 1.9.3.8.5 1.7.5 2.8V258H181v-9.7c0-.6 0-1.1-.1-1.6 0-.5-.2-.9-.4-1.3s-.5-.7-.9-.9c-.4-.2-.9-.3-1.6-.3s-1.2.1-1.6.4-.7.6-1 1c-.2.4-.4.9-.5 1.4s-.1 1-.1 1.6v9.5h-4.7v-9.6-1.5c0-.5-.1-1-.3-1.4-.2-.4-.4-.8-.8-1-.4-.3-1-.4-1.7-.4-.2 0-.5 0-.9.1s-.7.3-1.1.6c-.3.3-.6.7-.9 1.2-.2.5-.4 1.2-.4 2v9.9h-4.7v-17.1h4.6zM196.7 244v-3.1h2.8v-1.3c0-1.5.5-2.8 1.4-3.7.9-1 2.4-1.5 4.3-1.5h1.3c.4 0 .8.1 1.2.1v3.5c-.6-.1-1.1-.1-1.7-.1-.6 0-1.1.1-1.4.4s-.4.8-.4 1.5v1h3.2v3.1h-3.2V258h-4.7v-14h-2.8zM209.5 245.7c.4-1.1 1-2.1 1.8-2.8.8-.8 1.7-1.4 2.8-1.8 1.1-.4 2.3-.6 3.6-.6 1.3 0 2.6.2 3.6.6 1.1.4 2 1 2.8 1.8.8.8 1.4 1.7 1.8 2.8.4 1.1.6 2.3.6 3.7 0 1.4-.2 2.6-.6 3.7-.4 1.1-1 2-1.8 2.8-.8.8-1.7 1.4-2.8 1.8-1.1.4-2.3.6-3.6.6-1.3 0-2.6-.2-3.6-.6-1.1-.4-2-1-2.8-1.8-.8-.8-1.4-1.7-1.8-2.8s-.6-2.3-.6-3.7c0-1.3.2-2.6.6-3.7zm4.3 5.7c.1.6.4 1.2.7 1.7.3.5.7.9 1.3 1.2s1.2.5 2 .5 1.5-.2 2-.5 1-.7 1.3-1.2c.3-.5.5-1.1.7-1.7.1-.6.2-1.3.2-2s-.1-1.4-.2-2c-.1-.7-.4-1.2-.7-1.7-.3-.5-.7-.9-1.3-1.2-.5-.3-1.2-.5-2-.5s-1.5.2-2 .5-1 .7-1.3 1.2c-.3.5-.5 1.1-.7 1.7-.1.7-.2 1.3-.2 2s.1 1.4.2 2zM234 240.9v3.2h.1c.2-.5.5-1 .9-1.5s.8-.8 1.3-1.2c.5-.3 1-.6 1.6-.7.5-.2 1.1-.3 1.7-.3.3 0 .6.1 1 .2v4.4c-.2 0-.5-.1-.8-.1h-.9c-.9 0-1.6.1-2.2.4-.6.3-1.1.7-1.4 1.2s-.6 1.1-.8 1.7c-.2.7-.2 1.4-.2 2.1v7.7h-4.7v-17.1h4.4z"/></g><g><path class="st0" d="M97.6 269.4c1.5 0 2.9.2 4.2.7 1.3.5 2.4 1.2 3.4 2.2 1 1 1.7 2.2 2.2 3.6.5 1.5.8 3.2.8 5.1 0 1.7-.2 3.3-.7 4.8-.4 1.5-1.1 2.7-2 3.8s-2 1.9-3.3 2.5c-1.3.6-2.9.9-4.7.9h-10v-23.6h10.1zm-.3 19.2c.7 0 1.5-.1 2.2-.4.7-.2 1.3-.6 1.9-1.2.5-.6 1-1.3 1.3-2.2.3-.9.5-2 .5-3.3 0-1.2-.1-2.3-.3-3.2-.2-1-.6-1.8-1.1-2.5-.5-.7-1.2-1.2-2.1-1.6-.9-.4-1.9-.5-3.2-.5h-3.7v14.9h4.5zM116.4 288.9c.7.7 1.7 1 3 1 .9 0 1.8-.2 2.4-.7.7-.5 1.1-1 1.3-1.5h4.1c-.7 2-1.7 3.5-3 4.4-1.4.9-3 1.3-5 1.3-1.3 0-2.6-.2-3.6-.6-1.1-.4-2-1-2.7-1.8s-1.3-1.7-1.7-2.8c-.4-1.1-.6-2.3-.6-3.6 0-1.3.2-2.5.6-3.6.4-1.1 1-2.1 1.8-2.9.8-.8 1.7-1.4 2.8-1.9 1.1-.5 2.2-.7 3.5-.7 1.5 0 2.7.3 3.8.8 1.1.6 2 1.3 2.7 2.3.7.9 1.2 2 1.5 3.2.3 1.2.4 2.5.3 3.8h-12.3c0 1.5.4 2.6 1.1 3.3zm5.3-9c-.6-.6-1.4-.9-2.6-.9-.7 0-1.4.1-1.9.4-.5.3-.9.6-1.2.9-.3.4-.5.8-.6 1.2-.1.4-.2.8-.2 1.1h7.6c-.1-1.2-.5-2.1-1.1-2.7zM134.8 275.9v2.4h.1c.6-1 1.4-1.7 2.3-2.2.9-.5 1.9-.7 2.9-.7 1.3 0 2.3.2 3.1.5.8.3 1.4.8 1.9 1.4.5.6.8 1.3 1 2.2s.3 1.8.3 2.9V293h-4.7v-9.6c0-1.4-.2-2.5-.7-3.2s-1.2-1-2.3-1c-1.3 0-2.2.4-2.8 1.1-.6.8-.9 2-.9 3.7v8.9h-4.7v-17.1h4.5zM159.3 275.9v3.1h-3.4v8.4c0 .8.1 1.3.4 1.6.3.3.8.4 1.6.4h.8c.3 0 .5-.1.7-.1v3.6c-.4.1-.8.1-1.3.1h-1.4c-.7 0-1.4 0-2.1-.1-.6-.1-1.2-.3-1.7-.6s-.9-.7-1.2-1.2c-.3-.5-.4-1.2-.4-2.1v-10.1h-2.8v-3.1h2.8v-5.1h4.7v5.1h3.3zM161.7 273.3v-3.9h4.7v3.9h-4.7zm4.7 2.6V293h-4.7v-17.1h4.7zM174 288.7c.2.4.5.7.8.9s.7.4 1.1.5c.4.1.9.2 1.3.2.3 0 .7 0 1-.1.4-.1.7-.2 1-.4.3-.2.5-.4.7-.7.2-.3.3-.6.3-1 0-.7-.5-1.2-1.4-1.6-.9-.4-2.2-.7-3.9-1.1-.7-.2-1.3-.3-2-.5-.6-.2-1.2-.5-1.7-.8-.5-.3-.9-.8-1.2-1.3-.3-.5-.5-1.1-.5-1.9 0-1.1.2-2 .6-2.7.4-.7 1-1.3 1.7-1.7.7-.4 1.5-.7 2.4-.9.9-.2 1.8-.2 2.7-.2.9 0 1.8.1 2.7.3.9.2 1.6.5 2.3.9.7.4 1.2 1 1.7 1.7s.7 1.6.8 2.6h-4.5c-.1-.9-.4-1.5-1-1.8-.6-.3-1.3-.5-2.2-.5h-.9c-.3 0-.6.1-.8.2-.3.1-.5.3-.6.5-.2.2-.3.5-.3.8 0 .4.2.8.5 1 .3.3.7.5 1.2.6.5.2 1.1.3 1.7.4.6.1 1.3.3 1.9.4.7.2 1.3.3 2 .6.6.2 1.2.5 1.7.9s.9.8 1.2 1.4c.3.5.5 1.2.5 2 0 1.1-.2 2.1-.7 2.8-.5.8-1 1.4-1.8 1.8-.7.5-1.6.8-2.5 1-.9.2-1.9.3-2.9.3s-2-.1-2.9-.3c-.9-.2-1.8-.5-2.5-1s-1.3-1.1-1.8-1.8c-.5-.8-.7-1.7-.8-2.9h4.5c.3.6.4 1.1.6 1.4zM197.2 275.9v3.1h-3.4v8.4c0 .8.1 1.3.4 1.6.3.3.8.4 1.6.4h.8c.3 0 .5-.1.7-.1v3.6c-.4.1-.8.1-1.3.1h-1.4c-.7 0-1.4 0-2.1-.1-.6-.1-1.2-.3-1.7-.6s-.9-.7-1.2-1.2c-.3-.5-.4-1.2-.4-2.1v-10.1h-2.8v-3.1h2.8v-5.1h4.7v5.1h3.3zM203.3 288.7c.2.4.5.7.8.9s.7.4 1.1.5c.4.1.9.2 1.3.2.3 0 .7 0 1-.1.4-.1.7-.2 1-.4.3-.2.5-.4.7-.7.2-.3.3-.6.3-1 0-.7-.5-1.2-1.4-1.6-.9-.4-2.2-.7-3.9-1.1-.7-.2-1.3-.3-2-.5-.6-.2-1.2-.5-1.7-.8-.5-.3-.9-.8-1.2-1.3-.3-.5-.5-1.1-.5-1.9 0-1.1.2-2 .6-2.7.4-.7 1-1.3 1.7-1.7.7-.4 1.5-.7 2.4-.9.9-.2 1.8-.2 2.7-.2.9 0 1.8.1 2.7.3.9.2 1.6.5 2.3.9.7.4 1.2 1 1.7 1.7s.7 1.6.8 2.6h-4.5c-.1-.9-.4-1.5-1-1.8-.6-.3-1.3-.5-2.2-.5h-.9c-.3 0-.6.1-.8.2-.3.1-.5.3-.6.5-.2.2-.3.5-.3.8 0 .4.2.8.5 1 .3.3.7.5 1.2.6.5.2 1.1.3 1.7.4.6.1 1.3.3 1.9.4.7.2 1.3.3 2 .6.6.2 1.2.5 1.7.9s.9.8 1.2 1.4c.3.5.5 1.2.5 2 0 1.1-.2 2.1-.7 2.8-.5.8-1 1.4-1.8 1.8-.7.5-1.6.8-2.5 1-.9.2-1.9.3-2.9.3s-2-.1-2.9-.3c-.9-.2-1.8-.5-2.5-1s-1.3-1.1-1.8-1.8c-.5-.8-.7-1.7-.8-2.9h4.5c.3.6.4 1.1.6 1.4z"/></g></svg>