<svg id="Layer_1" xmlns="http://www.w3.org/2000/svg" viewBox="0 0 300 600"><style>.st0{fill:#231f20}</style><path class="st0" d="M71.4 214c.2.4.5.8.9 1.1.4.3.8.5 1.3.6.5.1 1 .2 1.6.2.4 0 .8 0 1.2-.1s.8-.2 1.2-.4c.4-.2.7-.4.9-.7.2-.3.4-.7.4-1.2s-.2-.9-.5-1.2-.7-.6-1.3-.8-1.1-.4-1.8-.5c-.7-.2-1.3-.3-2-.5s-1.4-.4-2-.6c-.7-.3-1.2-.6-1.8-1-.5-.4-.9-.9-1.3-1.5-.3-.6-.5-1.3-.5-2.2 0-1 .2-1.8.6-2.5s.9-1.3 1.6-1.8c.7-.5 1.4-.8 2.2-1 .8-.2 1.7-.3 2.5-.3 1 0 1.9.1 2.8.3.9.2 1.7.6 2.4 1.1s1.2 1.1 1.7 1.9c.4.8.6 1.7.6 2.7h-4c0-.6-.2-1-.4-1.4-.2-.4-.5-.7-.8-.9s-.7-.4-1.1-.4c-.4-.1-.9-.1-1.4-.1-.3 0-.7 0-1 .1-.3.1-.6.2-.9.4-.3.2-.5.4-.7.7-.2.3-.3.6-.3 1s.1.7.2.9c.1.2.4.4.8.6.4.2 1 .4 1.7.6.7.2 1.7.4 2.8.7.3.1.8.2 1.4.4.6.2 1.2.5 1.8.9.6.4 1.1.9 1.6 1.6.4.7.7 1.5.7 2.6 0 .8-.2 1.6-.5 2.4s-.8 1.4-1.5 1.9c-.6.5-1.5.9-2.4 1.2s-1.8.2-3.1.2c-1 0-2-.1-3-.4-1-.3-1.8-.6-2.5-1.2-.7-.5-1.3-1.2-1.8-2.1-.4-.8-.6-1.8-.6-3h4c0 .8.1 1.3.3 1.7zM93.6 218.6v-1.9h-.1c-.5.8-1.1 1.3-1.8 1.7-.7.3-1.5.5-2.3.5-1 0-1.8-.1-2.4-.4-.6-.3-1.1-.6-1.5-1.1-.4-.5-.6-1.1-.8-1.7-.1-.7-.2-1.4-.2-2.3v-8.3h3.7v7.6c0 1.1.2 1.9.5 2.5.3.5 1 .8 1.8.8 1 0 1.7-.3 2.2-.9.5-.6.7-1.6.7-3v-7h3.7v13.4h-3.5zM103.2 205.2v1.7h.1c.5-.7 1-1.3 1.7-1.6.7-.3 1.5-.5 2.3-.5 1.1 0 2 .2 2.7.6.8.4 1.4.9 1.9 1.6.5.7.9 1.4 1.1 2.3s.4 1.8.4 2.7c0 .9-.1 1.8-.4 2.6s-.6 1.6-1.1 2.2c-.5.6-1.1 1.2-1.8 1.5-.7.4-1.6.6-2.6.6-.8 0-1.6-.2-2.3-.5s-1.3-.8-1.7-1.5h-.1v6.4h-3.7v-18.1h3.5zm4.8 10.6c.4-.2.7-.6 1-.9.3-.4.4-.8.5-1.4s.2-1 .2-1.6c0-.5-.1-1.1-.2-1.6s-.3-1-.6-1.4c-.3-.4-.6-.7-1-1-.4-.3-.9-.4-1.5-.4s-1.1.1-1.5.4c-.4.3-.7.6-1 1-.3.4-.4.9-.5 1.4s-.2 1.1-.2 1.6.1 1.1.2 1.6.3 1 .5 1.4c.3.4.6.7 1 .9.4.2.9.4 1.5.4.7 0 1.2-.1 1.6-.4zM118.9 205.2v1.7h.1c.5-.7 1-1.3 1.7-1.6.7-.3 1.5-.5 2.3-.5 1.1 0 2 .2 2.7.6.8.4 1.4.9 1.9 1.6.5.7.9 1.4 1.1 2.3s.4 1.8.4 2.7c0 .9-.1 1.8-.4 2.6s-.6 1.6-1.1 2.2c-.5.6-1.1 1.2-1.8 1.5-.7.4-1.6.6-2.6.6-.8 0-1.6-.2-2.3-.5s-1.3-.8-1.7-1.5h-.2v6.4h-3.7v-18.1h3.6zm4.8 10.6c.4-.2.7-.6 1-.9.3-.4.4-.8.5-1.4s.2-1 .2-1.6c0-.5-.1-1.1-.2-1.6s-.3-1-.6-1.4c-.3-.4-.6-.7-1-1-.4-.3-.9-.4-1.5-.4s-1.1.1-1.5.4c-.4.3-.7.6-1 1-.3.4-.4.9-.5 1.4s-.2 1.1-.2 1.6.1 1.1.2 1.6.3 1 .5 1.4c.3.4.6.7 1 .9.4.2.9.4 1.5.4s1.2-.1 1.6-.4zM134.8 200.1v18.6h-3.7v-18.6h3.7zM141.4 215.4c.6.5 1.4.8 2.4.8.7 0 1.4-.2 1.9-.6.5-.4.9-.8 1-1.2h3.2c-.5 1.6-1.3 2.8-2.4 3.5-1.1.7-2.4 1-3.9 1-1.1 0-2-.2-2.9-.5s-1.6-.8-2.2-1.4c-.6-.6-1-1.4-1.4-2.2-.3-.9-.5-1.8-.5-2.9 0-1 .2-1.9.5-2.8.3-.9.8-1.6 1.4-2.2.6-.6 1.3-1.1 2.2-1.5.8-.4 1.8-.5 2.8-.5 1.1 0 2.1.2 3 .7.8.4 1.5 1 2.1 1.8.5.7.9 1.6 1.2 2.5.2 1 .3 2 .3 3h-9.7c.1 1.1.5 2 1 2.5zm4.2-7.1c-.4-.5-1.1-.7-2-.7-.6 0-1.1.1-1.5.3-.4.2-.7.4-.9.7-.2.3-.4.6-.5.9-.1.3-.2.6-.2.9h6c-.2-.9-.5-1.6-.9-2.1zM155.7 205.2v1.8h.1c.5-.7 1.1-1.2 1.8-1.6s1.5-.6 2.4-.6c.8 0 1.6.2 2.3.5.7.3 1.2.9 1.6 1.7.4-.6.9-1.1 1.6-1.6.7-.5 1.5-.7 2.4-.7.7 0 1.4.1 2 .3.6.2 1.1.5 1.6.8s.8.9 1 1.5c.2.6.4 1.4.4 2.2v9h-3.7V211c0-.5 0-.9-.1-1.3 0-.4-.1-.7-.3-1-.2-.3-.4-.5-.7-.7-.3-.2-.7-.3-1.2-.3s-.9.1-1.3.3c-.3.2-.6.5-.8.8s-.3.7-.4 1.1c-.1.4-.1.8-.1 1.2v7.5h-3.7v-7.5-1.2c0-.4-.1-.7-.2-1.1-.1-.3-.3-.6-.6-.8-.3-.2-.8-.3-1.3-.3-.2 0-.4 0-.7.1-.3.1-.6.2-.8.4s-.5.5-.7.9c-.2.4-.3.9-.3 1.6v7.8h-3.7v-13.4h3.4zM179.4 215.4c.6.5 1.4.8 2.4.8.7 0 1.4-.2 1.9-.6.5-.4.9-.8 1-1.2h3.2c-.5 1.6-1.3 2.8-2.4 3.5-1.1.7-2.4 1-3.9 1-1.1 0-2-.2-2.9-.5s-1.6-.8-2.2-1.4c-.6-.6-1-1.4-1.4-2.2-.3-.9-.5-1.8-.5-2.9 0-1 .2-1.9.5-2.8.3-.9.8-1.6 1.4-2.2.6-.6 1.3-1.1 2.2-1.5.8-.4 1.8-.5 2.8-.5 1.1 0 2.1.2 3 .7.8.4 1.5 1 2.1 1.8s.9 1.6 1.2 2.5c.2 1 .3 2 .3 3h-9.7c.2 1.1.5 2 1 2.5zm4.2-7.1c-.4-.5-1.1-.7-2-.7-.6 0-1.1.1-1.5.3-.4.2-.7.4-.9.7-.2.3-.4.6-.5.9-.1.3-.2.6-.2.9h6c-.2-.9-.5-1.6-.9-2.1zM193.7 205.2v1.9h.1c.5-.8 1.1-1.3 1.8-1.7.7-.4 1.5-.5 2.3-.5 1 0 1.8.1 2.4.4.6.3 1.1.6 1.5 1.1.4.5.6 1.1.8 1.7.1.7.2 1.4.2 2.3v8.3h-3.7V211c0-1.1-.2-1.9-.5-2.5-.3-.5-1-.8-1.8-.8-1 0-1.7.3-2.2.9-.5.6-.7 1.6-.7 3v7h-3.7v-13.4h3.5zM212.7 205.2v2.5H210v6.7c0 .6.1 1 .3 1.2.2.2.6.3 1.2.3h.6c.2 0 .4 0 .5-.1v2.9c-.3.1-.7.1-1 .1h-1.1c-.6 0-1.1 0-1.6-.1s-1-.2-1.4-.5c-.4-.2-.7-.5-.9-1-.2-.4-.3-1-.3-1.6v-7.9h-2.2v-2.5h2.2v-4h3.7v4h2.7zM214.1 209.3c.1-.9.3-1.6.7-2.2.4-.6.9-1 1.5-1.4.6-.3 1.3-.6 2-.7.7-.1 1.5-.2 2.2-.2.7 0 1.4 0 2.1.1.7.1 1.3.3 1.9.6.6.3 1 .7 1.4 1.2.4.5.5 1.1.5 2v7c0 .6 0 1.2.1 1.7.1.6.2 1 .4 1.2H223c-.1-.2-.1-.4-.2-.6 0-.2-.1-.4-.1-.7-.6.6-1.3 1-2.1 1.3-.8.2-1.6.4-2.4.4-.6 0-1.2-.1-1.8-.2-.6-.2-1-.4-1.5-.7-.4-.3-.7-.7-1-1.2-.2-.5-.4-1.1-.4-1.8 0-.8.1-1.4.4-1.9.3-.5.6-.9 1-1.2.4-.3.9-.5 1.5-.7.5-.1 1.1-.3 1.7-.4.6-.1 1.1-.2 1.6-.2.5-.1 1-.1 1.4-.2s.7-.3 1-.5c.2-.2.4-.5.3-.9 0-.4-.1-.7-.2-.9-.1-.2-.3-.4-.5-.5-.2-.1-.5-.2-.8-.3-.3 0-.6-.1-.9-.1-.7 0-1.3.2-1.7.5s-.7.8-.7 1.6h-3.5zm8.5 2.7l-.6.3c-.2.1-.5.1-.8.2-.3.1-.5.1-.8.1-.3 0-.6.1-.9.1-.3.1-.6.1-.8.2s-.5.2-.7.4-.4.3-.5.6c-.1.2-.2.5-.2.9 0 .3.1.6.2.8.1.2.3.4.5.5s.5.2.7.3c.3.1.6.1.9.1.7 0 1.3-.1 1.7-.4.4-.2.7-.5.9-.9.2-.3.3-.7.4-1 0-.3.1-.6.1-.8V212zM232.7 200.1v18.6H229v-18.6h3.7z"/><g><path class="st0" d="M47.6 230.1l4.3 12.8h.1l4.1-12.8h5.7v18.6H58v-13.2l-4.6 13.2h-3.1l-4.5-13h-.1v13h-3.8v-18.6h5.7zM68.7 245.4c.6.5 1.4.8 2.4.8.7 0 1.4-.2 1.9-.6.5-.4.9-.8 1-1.2h3.2c-.5 1.6-1.3 2.8-2.4 3.5-1.1.7-2.4 1-3.9 1-1.1 0-2-.2-2.9-.5s-1.6-.8-2.2-1.4c-.6-.6-1-1.4-1.4-2.2-.3-.9-.5-1.8-.5-2.9 0-1 .2-1.9.5-2.8.3-.9.8-1.6 1.4-2.2.6-.6 1.3-1.1 2.2-1.5.8-.4 1.8-.5 2.8-.5 1.1 0 2.1.2 3 .7.8.4 1.5 1 2.1 1.8.5.7.9 1.6 1.2 2.5.2 1 .3 2 .3 3h-9.7c.2 1.1.5 2 1 2.5zm4.2-7.1c-.4-.5-1.1-.7-2-.7-.6 0-1.1.1-1.5.3-.4.2-.7.4-.9.7-.2.3-.4.6-.5.9-.1.3-.2.6-.2.9h6c-.1-.9-.4-1.6-.9-2.1zM89 246.9c-.4.7-1 1.3-1.7 1.6-.7.3-1.5.5-2.4.5-1 0-1.9-.2-2.7-.6s-1.4-.9-1.9-1.6c-.5-.7-.9-1.4-1.1-2.3-.3-.9-.4-1.8-.4-2.7 0-.9.1-1.8.4-2.6.3-.8.6-1.6 1.1-2.2.5-.6 1.1-1.2 1.9-1.5.7-.4 1.6-.6 2.6-.6.8 0 1.6.2 2.3.5.7.3 1.3.8 1.7 1.5h.1v-6.8h3.7v18.6h-3.5l-.1-1.8zm-.1-6.6c-.1-.5-.3-1-.5-1.4s-.6-.7-1-.9c-.4-.2-.9-.4-1.5-.4s-1.1.1-1.5.4c-.4.2-.8.6-1 1-.3.4-.4.9-.5 1.4-.1.5-.2 1-.2 1.6 0 .5.1 1 .2 1.6.1.5.3 1 .6 1.4.3.4.6.7 1 1 .4.3.9.4 1.5.4s1.1-.1 1.5-.4c.4-.2.7-.6 1-1 .2-.4.4-.9.5-1.4s.2-1.1.2-1.6-.2-1.2-.3-1.7zM95.2 233.1v-3h3.7v3h-3.7zm3.7 2.1v13.4h-3.7v-13.4h3.7zM108 237.6c-.6 0-1.1.1-1.5.4-.4.3-.7.6-1 1-.3.4-.4.9-.5 1.4s-.2 1-.2 1.5.1 1 .2 1.5.3 1 .5 1.4c.2.4.6.7.9 1 .4.3.9.4 1.5.4.9 0 1.6-.2 2-.7.5-.5.8-1.2.9-2h3.6c-.2 1.8-.9 3.1-2.1 4.1s-2.6 1.4-4.4 1.4c-1 0-1.9-.2-2.8-.5s-1.6-.8-2.1-1.4c-.6-.6-1-1.3-1.4-2.2-.3-.8-.5-1.8-.5-2.8 0-1 .2-2 .5-2.9s.7-1.7 1.3-2.3c.6-.7 1.3-1.2 2.2-1.5.8-.4 1.8-.5 2.9-.5.8 0 1.6.1 2.3.3s1.4.5 2 .9c.6.4 1.1 1 1.4 1.6.4.6.6 1.4.6 2.2h-3.6c-.2-1.5-1.1-2.3-2.7-2.3zM116.1 239.3c.1-.9.3-1.6.6-2.2.4-.6.9-1 1.5-1.4.6-.3 1.3-.6 2-.7.7-.1 1.5-.2 2.2-.2.7 0 1.4 0 2.1.1.7.1 1.3.3 1.9.6.6.3 1 .7 1.4 1.2.4.5.5 1.1.5 2v7c0 .6 0 1.2.1 1.7.1.6.2 1 .4 1.2h-3.7c-.1-.2-.1-.4-.2-.6 0-.2-.1-.4-.1-.7-.6.6-1.3 1-2.1 1.3-.8.2-1.6.4-2.4.4-.6 0-1.2-.1-1.8-.2s-1-.4-1.5-.7c-.4-.3-.7-.7-1-1.2-.2-.5-.4-1.1-.4-1.8 0-.8.1-1.4.4-1.9.3-.5.6-.9 1-1.2.4-.3.9-.5 1.5-.7.5-.1 1.1-.3 1.7-.4.6-.1 1.1-.2 1.6-.2.5-.1 1-.1 1.4-.2s.7-.3 1-.5c.2-.2.4-.5.3-.9 0-.4-.1-.7-.2-.9-.1-.2-.3-.4-.5-.5-.2-.1-.5-.2-.8-.3-.3 0-.6-.1-.9-.1-.7 0-1.3.2-1.7.5s-.7.8-.7 1.6h-3.6zm8.5 2.8l-.6.3c-.2.1-.5.1-.8.2-.3.1-.6.1-.8.1-.3 0-.6.1-.9.1-.3.1-.6.1-.8.2-.3.1-.5.2-.7.4-.2.1-.4.3-.5.6-.1.2-.2.5-.2.9 0 .3.1.6.2.8.1.2.3.4.5.5s.5.2.7.3c.3.1.6.1.9.1.7 0 1.3-.1 1.7-.4.4-.2.7-.5.9-.9.2-.3.3-.7.4-1 0-.3.1-.6.1-.8v-1.4zM134.8 230.1v18.6h-3.7v-18.6h3.7zM156.7 235c-.2-.4-.5-.7-.9-1-.4-.3-.8-.5-1.2-.7-.5-.2-.9-.2-1.4-.2-.9 0-1.7.2-2.3.5-.6.4-1.2.8-1.6 1.4-.4.6-.7 1.3-.9 2-.2.8-.3 1.6-.3 2.4 0 .8.1 1.5.3 2.3.2.7.5 1.4.9 2s.9 1.1 1.6 1.4c.6.4 1.4.5 2.3.5 1.2 0 2.2-.4 2.9-1.1s1.1-1.8 1.3-3h4c-.1 1.2-.4 2.2-.8 3.1s-1 1.7-1.7 2.4-1.5 1.2-2.5 1.5-2 .5-3.1.5c-1.4 0-2.7-.2-3.8-.7-1.1-.5-2.1-1.2-2.9-2-.8-.9-1.4-1.9-1.8-3.1s-.6-2.4-.6-3.8.2-2.7.6-3.9c.4-1.2 1-2.2 1.8-3.1.8-.9 1.7-1.6 2.9-2.1 1.1-.5 2.4-.8 3.8-.8 1 0 2 .1 2.9.4.9.3 1.7.7 2.4 1.3.7.6 1.3 1.3 1.8 2.1s.8 1.8.9 2.9h-4l-.6-1.2zM163.5 239c.3-.9.8-1.6 1.4-2.2.6-.6 1.3-1.1 2.2-1.4.8-.3 1.8-.5 2.9-.5s2 .2 2.9.5c.9.3 1.6.8 2.2 1.4.6.6 1.1 1.4 1.4 2.2.3.9.5 1.9.5 2.9s-.2 2-.5 2.9c-.3.9-.8 1.6-1.4 2.2-.6.6-1.3 1.1-2.2 1.4-.9.3-1.8.5-2.9.5s-2-.2-2.9-.5c-.8-.3-1.6-.8-2.2-1.4-.6-.6-1.1-1.4-1.4-2.2-.3-.9-.5-1.8-.5-2.9s.2-2 .5-2.9zm3.4 4.5c.1.5.3 1 .5 1.4.3.4.6.7 1 1 .4.2.9.4 1.6.4s1.1-.1 1.6-.4c.4-.2.8-.6 1-1s.4-.9.5-1.4c.1-.5.2-1 .2-1.6 0-.5-.1-1.1-.2-1.6s-.3-1-.5-1.4c-.3-.4-.6-.7-1-1-.4-.3-.9-.4-1.6-.4s-1.1.1-1.6.4c-.4.3-.8.6-1 1-.3.4-.4.9-.5 1.4-.1.5-.2 1-.2 1.6 0 .6.1 1.1.2 1.6zM182.4 248.6l-4.6-13.4h3.9l2.8 9.2h.1l2.8-9.2h3.7l-4.5 13.4h-4.2zM196.3 245.4c.6.5 1.4.8 2.4.8.7 0 1.4-.2 1.9-.6.5-.4.9-.8 1-1.2h3.2c-.5 1.6-1.3 2.8-2.4 3.5-1.1.7-2.4 1-3.9 1-1.1 0-2-.2-2.9-.5s-1.6-.8-2.2-1.4c-.6-.6-1-1.4-1.4-2.2-.3-.9-.5-1.8-.5-2.9 0-1 .2-1.9.5-2.8.3-.9.8-1.6 1.4-2.2.6-.6 1.3-1.1 2.2-1.5.8-.4 1.8-.5 2.8-.5 1.1 0 2.1.2 3 .7.8.4 1.5 1 2.1 1.8s.9 1.6 1.2 2.5c.2 1 .3 2 .3 3h-9.7c.1 1.1.4 2 1 2.5zm4.2-7.1c-.4-.5-1.1-.7-2-.7-.6 0-1.1.1-1.5.3-.4.2-.7.4-.9.7-.2.3-.4.6-.5.9-.1.3-.2.6-.2.9h6c-.2-.9-.5-1.6-.9-2.1zM210.5 235.2v2.5h.1c.2-.4.4-.8.7-1.2.3-.4.6-.7 1-.9.4-.3.8-.4 1.2-.6.4-.1.9-.2 1.4-.2.2 0 .5 0 .8.1v3.4c-.2 0-.4-.1-.6-.1h-.7c-.7 0-1.2.1-1.7.3-.5.2-.8.5-1.1.9-.3.4-.5.8-.6 1.4-.1.5-.2 1.1-.2 1.7v6.1H207v-13.4h3.5zM216.8 239.3c.1-.9.3-1.6.7-2.2.4-.6.9-1 1.5-1.4.6-.3 1.3-.6 2-.7.7-.1 1.5-.2 2.2-.2.7 0 1.4 0 2.1.1.7.1 1.3.3 1.9.6.6.3 1 .7 1.4 1.2.4.5.5 1.1.5 2v7c0 .6 0 1.2.1 1.7.1.6.2 1 .4 1.2h-3.7c-.1-.2-.1-.4-.2-.6 0-.2-.1-.4-.1-.7-.6.6-1.3 1-2.1 1.3-.8.2-1.6.4-2.4.4-.6 0-1.2-.1-1.8-.2-.6-.2-1-.4-1.5-.7-.4-.3-.7-.7-1-1.2-.2-.5-.4-1.1-.4-1.8 0-.8.1-1.4.4-1.9.3-.5.6-.9 1-1.2.4-.3.9-.5 1.5-.7.5-.1 1.1-.3 1.7-.4.6-.1 1.1-.2 1.6-.2.5-.1 1-.1 1.4-.2s.7-.3 1-.5c.2-.2.4-.5.3-.9 0-.4-.1-.7-.2-.9-.1-.2-.3-.4-.5-.5-.2-.1-.5-.2-.8-.3-.3 0-.6-.1-.9-.1-.7 0-1.3.2-1.7.5s-.7.8-.7 1.6h-3.7zm8.5 2.8l-.6.3c-.2.1-.5.1-.8.2-.3.1-.5.1-.8.1-.3 0-.6.1-.9.1-.3.1-.6.1-.8.2s-.5.2-.7.4-.4.3-.5.6c-.1.2-.2.5-.2.9 0 .3.1.6.2.8.1.2.3.4.5.5s.5.2.7.3c.3.1.6.1.9.1.7 0 1.3-.1 1.7-.4.4-.2.7-.5.9-.9.2-.3.3-.7.4-1 0-.3.1-.6.1-.8v-1.4zM244.3 249.6c-.1.7-.5 1.3-.9 1.9-.5.6-1.2 1.1-2.1 1.5s-2.1.6-3.7.6c-.7 0-1.3-.1-2-.2-.7-.2-1.3-.4-1.9-.8-.6-.3-1-.8-1.4-1.3-.4-.5-.6-1.2-.6-2h3.7c.2.7.5 1.2 1 1.4.5.3 1.1.4 1.7.4 1 0 1.8-.3 2.3-.9s.7-1.4.7-2.4V246h-.1c-.4.7-1 1.2-1.7 1.6-.7.3-1.5.5-2.3.5-1 0-1.9-.2-2.6-.5-.7-.4-1.3-.8-1.8-1.5s-.8-1.3-1-2.2c-.2-.8-.3-1.7-.3-2.6 0-.9.1-1.7.4-2.5.3-.8.6-1.5 1.1-2.1.5-.6 1.1-1.1 1.8-1.5.7-.4 1.5-.5 2.5-.5.9 0 1.7.2 2.3.5.7.3 1.2.9 1.7 1.7h.1v-1.8h3.5v12.6c-.2.6-.3 1.2-.4 1.9zm-5.1-4.5c.4-.2.7-.5 1-.8s.5-.7.6-1.2.2-.9.2-1.4c0-.6-.1-1.1-.2-1.6s-.3-.9-.5-1.3-.6-.7-1-.9c-.4-.2-.9-.3-1.5-.3-.5 0-1 .1-1.3.3-.4.2-.7.5-.9.8-.3.4-.4.8-.5 1.2-.1.5-.2.9-.2 1.4 0 .5 0 1 .1 1.4.1.5.3.9.5 1.3s.5.7.9.9c.4.2.9.4 1.4.4.6.2 1 .1 1.4-.2zM251.2 245.4c.6.5 1.4.8 2.4.8.7 0 1.4-.2 1.9-.6.5-.4.9-.8 1-1.2h3.2c-.5 1.6-1.3 2.8-2.4 3.5-1.1.7-2.4 1-3.9 1-1.1 0-2-.2-2.9-.5s-1.6-.8-2.2-1.4c-.6-.6-1-1.4-1.4-2.2-.3-.9-.5-1.8-.5-2.9 0-1 .2-1.9.5-2.8.3-.9.8-1.6 1.4-2.2.6-.6 1.3-1.1 2.2-1.5.8-.4 1.8-.5 2.8-.5 1.1 0 2.1.2 3 .7.8.4 1.5 1 2.1 1.8s.9 1.6 1.2 2.5c.2 1 .3 2 .3 3h-9.7c.1 1.1.4 2 1 2.5zm4.2-7.1c-.4-.5-1.1-.7-2-.7-.6 0-1.1.1-1.5.3-.4.2-.7.4-.9.7-.2.3-.4.6-.5.9-.1.3-.2.6-.2.9h6c-.2-.9-.5-1.6-.9-2.1z"/></g></svg>