<svg id="Layer_1" xmlns="http://www.w3.org/2000/svg" viewBox="0 0 300 600"><style>.st0{fill:#393}.st1{fill:#231f20}</style><path class="st0" d="M116.8 199.4V223h-5.2v-23.6h5.2zM119.1 209v-3.1h2.8v-1.3c0-1.5.5-2.8 1.4-3.7.9-1 2.4-1.5 4.3-1.5h1.3c.4 0 .8.1 1.2.1v3.5c-.5-.1-1.1-.1-1.7-.1-.6 0-1.1.1-1.4.4-.3.3-.4.8-.4 1.5v1h3.2v3.1h-3.2V223h-4.7v-14h-2.8zM150.4 205.9v3.1H147v8.4c0 .8.1 1.3.4 1.6.3.3.8.4 1.6.4h.8c.3 0 .5-.1.7-.1v3.6c-.4.1-.8.1-1.3.1h-1.4c-.7 0-1.4 0-2.1-.1-.6-.1-1.2-.3-1.7-.6s-.9-.7-1.2-1.2c-.3-.5-.4-1.2-.4-2.1v-10h-2.8v-3.1h2.8v-5.1h4.7v5.1h3.3zM157.3 199.4v8.9h.1c.6-1 1.4-1.7 2.3-2.2.9-.5 1.8-.7 2.7-.7 1.3 0 2.3.2 3.1.5.8.3 1.4.8 1.9 1.4s.8 1.3 1 2.2c.2.9.3 1.8.3 2.9V223H164v-9.6c0-1.4-.2-2.5-.7-3.2-.4-.7-1.2-1-2.3-1-1.3 0-2.2.4-2.8 1.1-.6.8-.9 2-.9 3.7v8.9h-4.7v-23.6h4.7zM177.2 218.9c.7.7 1.7 1 3 1 .9 0 1.8-.2 2.4-.7.7-.5 1.1-1 1.3-1.5h4.1c-.7 2-1.7 3.5-3 4.4-1.4.9-3 1.3-5 1.3-1.3 0-2.6-.2-3.6-.6-1.1-.4-2-1-2.7-1.8s-1.3-1.7-1.7-2.8-.6-2.3-.6-3.6c0-1.3.2-2.5.6-3.6.4-1.1 1-2.1 1.8-2.9.8-.8 1.7-1.4 2.8-1.9s2.2-.7 3.5-.7c1.5 0 2.7.3 3.8.8s2 1.3 2.7 2.3c.7.9 1.2 2 1.5 3.2.3 1.2.4 2.5.3 3.8h-12.3c0 1.5.4 2.6 1.1 3.3zm5.3-9c-.6-.6-1.4-.9-2.6-.9-.7 0-1.4.1-1.9.4s-.9.6-1.2.9-.5.8-.6 1.2-.2.8-.2 1.1h7.6c-.1-1.2-.5-2.1-1.1-2.7z"/><g><path class="st1" d="M37.6 234.4c1.1 0 2 .2 2.9.5.8.3 1.6.8 2.2 1.4.6.6 1.1 1.3 1.4 2.1.3.8.5 1.6.5 2.5 0 1.4-.3 2.6-.9 3.6-.6 1-1.5 1.8-2.9 2.3v.1c.6.2 1.2.4 1.6.8.4.4.8.8 1 1.3.3.5.5 1 .6 1.6.1.6.2 1.2.2 1.8 0 .4 0 .8.1 1.3 0 .5.1 1 .1 1.6.1.5.1 1 .3 1.5.1.5.3.9.5 1.2H40c-.3-.7-.5-1.6-.5-2.7l-.3-3c-.2-1.2-.6-2.1-1.1-2.7-.6-.6-1.5-.9-2.8-.9H30v9.2h-5.2v-23.6h12.8zm-1.9 10.7c1.2 0 2.1-.3 2.7-.8.6-.5.9-1.4.9-2.6 0-1.1-.3-2-.9-2.5-.6-.5-1.5-.8-2.7-.8H30v6.6h5.7zM66.3 234.4v4.4H53.9v5h11.4v4H53.9v5.8h12.7v4.4H48.7v-23.6h17.6zM68.2 238.8v-4.4h19.3v4.4h-7.1V258h-5.2v-19.2h-7zM99 234.4l8.8 23.6h-5.4l-1.8-5.2h-8.8L90 258h-5.2l8.9-23.6H99zm.3 14.5l-3-8.6h-.1l-3.1 8.6h6.2zM115 234.4V258h-5.2v-23.6h5.2zM124.7 234.4l9.8 15.8h.1v-15.8h4.9V258h-5.2l-9.8-15.8h-.1V258h-4.9v-23.6h5.2zM161.6 234.4v4.4h-12.4v5h11.4v4h-11.4v5.8h12.7v4.4H144v-23.6h17.6zM178.1 234.4c1.1 0 2 .2 2.9.5.8.3 1.6.8 2.2 1.4.6.6 1.1 1.3 1.4 2.1.3.8.5 1.6.5 2.5 0 1.4-.3 2.6-.9 3.6-.6 1-1.5 1.8-2.9 2.3v.1c.6.2 1.2.4 1.6.8.4.4.8.8 1 1.3.3.5.5 1 .6 1.6.1.6.2 1.2.2 1.8 0 .4 0 .8.1 1.3 0 .5.1 1 .1 1.6.1.5.1 1 .3 1.5.1.5.3.9.5 1.2h-5.2c-.3-.7-.5-1.6-.5-2.7l-.3-3c-.2-1.2-.6-2.1-1.1-2.7-.6-.6-1.5-.9-2.8-.9h-5.2v9.2h-5.2v-23.6h12.7zm-1.8 10.7c1.2 0 2.1-.3 2.7-.8.6-.5.9-1.4.9-2.6 0-1.1-.3-2-.9-2.5-.6-.5-1.5-.8-2.7-.8h-5.7v6.6h5.7zM215 234.4v4.4h-11.4v5.4h9.9v4h-9.9v9.7h-5.2v-23.6H215zM223.1 234.4V258H218v-23.6h5.1zM225.9 238.8v-4.4h19.3v4.4h-7.1V258h-5.2v-19.2h-7zM251.8 252.2c.3.6.7 1 1.1 1.3.5.3 1 .6 1.7.8.6.2 1.3.2 2 .2.5 0 1 0 1.5-.1s1-.2 1.5-.4.8-.5 1.2-.9c.3-.4.5-.9.5-1.5s-.2-1.2-.6-1.6-.9-.7-1.6-1c-.7-.3-1.4-.5-2.2-.7-.8-.2-1.7-.4-2.5-.7-.9-.2-1.7-.5-2.6-.8-.8-.3-1.6-.7-2.2-1.2-.7-.5-1.2-1.1-1.6-1.9-.4-.8-.6-1.7-.6-2.8 0-1.2.3-2.3.8-3.2s1.2-1.6 2-2.2c.8-.6 1.8-1 2.8-1.3 1.1-.3 2.1-.4 3.2-.4 1.2 0 2.4.1 3.5.4 1.1.3 2.1.7 3 1.3.9.6 1.6 1.4 2.1 2.4s.8 2.1.8 3.5h-5c0-.7-.2-1.3-.4-1.7-.3-.5-.6-.8-1-1.1-.4-.3-.9-.5-1.4-.6-.5-.1-1.1-.2-1.8-.2-.4 0-.8 0-1.3.1s-.8.2-1.1.5c-.3.2-.6.5-.8.8-.2.3-.3.7-.3 1.3 0 .5.1.8.3 1.1.2.3.5.5 1 .8s1.2.5 2.1.7c.9.2 2.1.6 3.6.9.4.1 1.1.2 1.8.5.8.2 1.6.6 2.3 1.1.8.5 1.4 1.2 2 2 .6.8.8 1.9.8 3.3 0 1.1-.2 2.1-.6 3-.4.9-1 1.7-1.9 2.4-.8.7-1.8 1.2-3.1 1.6-1.2.4-2.6.6-4.2.6-1.3 0-2.6-.2-3.8-.5-1.2-.3-2.3-.8-3.2-1.5-.9-.7-1.7-1.6-2.2-2.6s-.8-2.3-.8-3.8h5c-.2.8-.1 1.5.2 2.1zM274.2 252.9v5.1c0 .7-.1 1.4-.4 2.1s-.6 1.2-1.1 1.6c-.5.5-1 .8-1.6 1.1-.6.3-1.3.5-2 .6V261c.3-.1.6-.2.9-.4.3-.2.6-.4.8-.7.2-.3.4-.6.5-.9.1-.3.2-.7.1-1H269v-5.1h5.2z"/></g><g><path class="st0" d="M97.2 293l-4-16h-.1l-3.9 16H84l-6.2-23.6H83l3.7 16h.1l4.1-16h4.9l4 16.2h.1l3.9-16.2h5.1l-6.3 23.6h-5.4zM128.6 269.4v4.4h-12.4v5h11.4v4h-11.4v5.8h12.7v4.4H111v-23.6h17.6zM144.1 269.4L153 293h-5.4l-1.8-5.2H137l-1.8 5.2H130l8.9-23.6h5.2zm.3 14.5l-3-8.6h-.1l-3.1 8.6h6.2zM167.7 269.4c1.1 0 2 .2 2.9.5.8.3 1.6.8 2.2 1.4.6.6 1.1 1.3 1.4 2.1.3.8.5 1.6.5 2.5 0 1.4-.3 2.6-.9 3.6-.6 1-1.5 1.8-2.9 2.3v.1c.6.2 1.2.4 1.6.8.4.4.8.8 1 1.3.3.5.5 1 .6 1.6.1.6.2 1.2.2 1.8 0 .4 0 .8.1 1.3 0 .5.1 1 .1 1.6.1.5.1 1 .3 1.5.1.5.3.9.5 1.2h-5.2c-.3-.7-.5-1.6-.5-2.7l-.3-3c-.2-1.2-.6-2.1-1.1-2.7-.6-.6-1.5-.9-2.8-.9h-5.2v9.2H155v-23.6h12.7zm-1.8 10.7c1.2 0 2.1-.3 2.7-.8.6-.5.9-1.4.9-2.6 0-1.1-.3-2-.9-2.5-.6-.5-1.5-.8-2.7-.8h-5.7v6.6h5.7zM193.2 269.4V293H188v-23.6h5.2zM195.9 273.8v-4.4h19.3v4.4h-7.1V293H203v-19.2h-7.1zM219.2 287.9v5.1H214v-5.1h5.2z"/></g></svg>