<svg id="Layer_1" xmlns="http://www.w3.org/2000/svg" viewBox="0 0 300 600"><style>.st0{fill:#393}.st1{fill:#fff}</style><path class="st0" d="M84.6 470.1c-9.7 0-17.5 7.8-17.5 17.5s7.8 17.5 17.5 17.5h131.3c9.7 0 17.5-7.8 17.5-17.5s-7.8-17.5-17.5-17.5H84.6z"/><path class="st1" d="M104.2 481.4v8.6h5.1v1.9h-7.4v-10.5h2.3zM118.5 481.4v1.9H113v2.2h5.1v1.8H113v2.6h5.7v1.9h-8v-10.5h7.8zM125.4 481.4l3.9 10.5h-2.4l-.8-2.3h-3.9l-.8 2.3H119l4-10.5h2.4zm.1 6.4l-1.3-3.9-1.4 3.9h2.7zM135.9 481.4c.5 0 .9.1 1.3.2.4.2.7.4 1 .6s.5.6.6.9.2.7.2 1.1c0 .6-.1 1.2-.4 1.6-.3.5-.7.8-1.3 1 .3.1.5.2.7.4s.3.4.5.6c.1.2.2.5.3.7s.1.5.1.8v.6c0 .2 0 .5.1.7 0 .2.1.5.1.7.1.2.1.4.2.5H137c-.1-.3-.2-.7-.2-1.2s-.1-.9-.1-1.3c-.1-.5-.2-1-.5-1.2s-.7-.4-1.2-.4h-2.3v4.1h-2.3v-10.5h5.5zm-.9 4.7c.5 0 .9-.1 1.2-.4.3-.2.4-.6.4-1.1 0-.5-.1-.9-.4-1.1-.3-.2-.7-.3-1.2-.3h-2.5v3h2.5zM143.1 481.4l4.4 7v-7h2.2v10.5h-2.3l-4.4-7v7h-2.2v-10.5h2.3zM159 481.4l2.5 7.2 2.3-7.2h3.2v10.5h-2.2v-7.4l-2.6 7.4h-1.8l-2.6-7.4v7.4h-2.2v-10.5h3.4zM169 484.5c.2-.7.6-1.3 1-1.8s1-.9 1.6-1.2 1.4-.4 2.2-.4c.8 0 1.5.1 2.2.4.6.3 1.2.7 1.6 1.2.4.5.8 1.1 1 1.8s.4 1.4.4 2.2c0 .8-.1 1.5-.4 2.1-.2.7-.6 1.2-1 1.7s-1 .9-1.6 1.2c-.6.3-1.4.4-2.2.4-.8 0-1.5-.1-2.2-.4s-1.2-.7-1.6-1.2c-.4-.5-.8-1.1-1-1.7-.2-.7-.4-1.4-.4-2.1.1-.8.2-1.5.4-2.2zm2.1 3.5c.1.4.3.8.5 1.1.2.3.5.6.9.8.4.2.8.3 1.3.3s1-.1 1.3-.3c.4-.2.7-.5.9-.8s.4-.7.5-1.1c.1-.4.2-.8.2-1.3s-.1-.9-.2-1.3-.3-.8-.5-1.2-.5-.6-.9-.8-.8-.3-1.3-.3-1 .1-1.3.3c-.4.2-.7.5-.9.8-.2.3-.4.7-.5 1.2-.1.4-.2.9-.2 1.3.1.4.1.9.2 1.3zM186.2 481.4c.5 0 .9.1 1.3.2.4.2.7.4 1 .6.3.3.5.6.6.9.1.3.2.7.2 1.1 0 .6-.1 1.2-.4 1.6-.3.5-.7.8-1.3 1 .3.1.5.2.7.4.2.2.3.4.5.6.1.2.2.5.3.7.1.3.1.5.1.8v.6c0 .2 0 .5.1.7s.1.5.1.7c.1.2.1.4.2.5h-2.3c-.1-.3-.2-.7-.2-1.2s-.1-.9-.1-1.3c-.1-.5-.2-1-.5-1.2s-.7-.4-1.2-.4H183v4.1h-2.3v-10.5h5.5zm-.8 4.7c.5 0 .9-.1 1.2-.4s.4-.6.4-1.1c0-.5-.1-.9-.4-1.1-.3-.2-.7-.3-1.2-.3h-2.5v3h2.5zM199 481.4v1.9h-5.5v2.2h5.1v1.8h-5.1v2.6h5.7v1.9h-8v-10.5h7.8z"/></svg>