<svg id="Layer_1" xmlns="http://www.w3.org/2000/svg" viewBox="0 0 300 600"><style>.st0{fill:#393}.st1{font-family:&apos;HelveticaNeue-Bold&apos;}.st2{font-size:18px}</style><text transform="translate(51.945 536.951)" class="st0 st1 st2">Only for ADA Members</text><path class="st0" d="M53.1 527.9c.3-.8.7-1.5 1.2-2.2.5-.6 1.2-1.1 2-1.4.8-.3 1.7-.5 2.7-.5 1 0 1.9.2 2.7.5.8.3 1.4.8 2 1.4.5.6 1 1.3 1.2 2.2.3.8.4 1.7.4 2.7 0 .9-.1 1.8-.4 2.6-.3.8-.7 1.5-1.2 2.1-.5.6-1.2 1.1-2 1.4-.8.3-1.7.5-2.7.5-1 0-1.9-.2-2.7-.5-.8-.3-1.4-.8-2-1.4-.5-.6-1-1.3-1.2-2.1-.3-.8-.4-1.7-.4-2.6-.1-1 .1-1.9.4-2.7zm2.5 4.3c.1.5.3 1 .6 1.4.3.4.6.7 1.1 1 .4.2 1 .4 1.6.4.6 0 1.2-.1 1.6-.4.4-.2.8-.6 1.1-1 .3-.4.5-.9.6-1.4s.2-1 .2-1.6c0-.6-.1-1.1-.2-1.6s-.3-1-.6-1.4c-.3-.4-.6-.7-1.1-1-.4-.2-1-.4-1.6-.4-.6 0-1.2.1-1.6.4s-.8.6-1.1 1c-.3.4-.5.9-.6 1.4s-.2 1.1-.2 1.6c.1.5.1 1 .2 1.6zM69.4 527.6v1.3h.1c.3-.5.7-.9 1.3-1.2.5-.2 1-.4 1.6-.4.7 0 1.2.1 1.7.3.4.2.8.4 1 .8s.4.7.5 1.2.2 1 .2 1.6v5.7h-2.6v-5.3c0-.8-.1-1.3-.4-1.7-.2-.4-.7-.6-1.3-.6-.7 0-1.2.2-1.5.6-.3.4-.5 1.1-.5 2v4.9h-2.6v-9.3h2.5zM80.2 524.1V537h-2.6v-12.9h2.6zM85.7 539.7c-.5.3-1.2.5-2.1.5h-.8c-.3 0-.5 0-.8-.1V538c.2 0 .5 0 .7.1h.8c.3 0 .6-.2.7-.4.2-.2.2-.5.2-.8 0-.2 0-.4-.1-.6l-3.3-8.7h2.7L86 534l2-6.4h2.6l-3.9 10.5c-.1.8-.5 1.3-1 1.6zM95.6 529.4v-1.7h1.5v-.7c0-.8.3-1.5.8-2s1.3-.8 2.3-.8h1.4v1.9c-.3 0-.6-.1-.9-.1-.3 0-.6.1-.7.2-.2.2-.2.4-.2.8v.6h1.8v1.7h-1.8v7.6h-2.6v-7.6h-1.6zM102.6 530.3c.2-.6.6-1.1 1-1.5.4-.4.9-.8 1.5-1s1.2-.4 2-.4c.7 0 1.4.1 2 .4s1.1.6 1.5 1c.4.4.7.9 1 1.5.2.6.3 1.3.3 2s-.1 1.4-.3 2c-.2.6-.6 1.1-1 1.5-.4.4-.9.8-1.5 1-.6.2-1.3.3-2 .3s-1.4-.1-2-.3c-.6-.2-1.1-.6-1.5-1-.4-.4-.7-.9-1-1.5-.2-.6-.3-1.3-.3-2s.1-1.4.3-2zm2.4 3.1c.1.4.2.7.4 1 .2.3.4.5.7.7s.6.3 1.1.3c.4 0 .8-.1 1.1-.3.3-.2.5-.4.7-.7.2-.3.3-.6.4-1 .1-.4.1-.7.1-1.1s0-.7-.1-1.1c-.1-.4-.2-.7-.4-1-.2-.3-.4-.5-.7-.7-.3-.2-.7-.3-1.1-.3-.4 0-.8.1-1.1.3s-.5.4-.7.7c-.2.3-.3.6-.4 1-.1.4-.1.7-.1 1.1s0 .7.1 1.1zM116 527.6v1.7c.1-.3.3-.6.5-.8s.4-.5.7-.6c.3-.2.5-.3.8-.4.3-.1.6-.1.9-.1.2 0 .4 0 .6.1v2.4c-.1 0-.3 0-.4-.1h-.5c-.5 0-.9.1-1.2.2-.3.2-.6.4-.8.6-.2.3-.3.6-.4.9-.1.4-.1.8-.1 1.2v4.2h-2.6v-9.3h2.5zM132.3 524.1l4.8 12.9h-2.9l-1-2.9h-4.8l-1 2.9h-2.8l4.9-12.9h2.8zm.1 7.9l-1.6-4.7-1.7 4.7h3.3zM143.7 524.1c.8 0 1.6.1 2.3.4.7.3 1.3.7 1.9 1.2.5.5.9 1.2 1.2 2 .3.8.4 1.7.4 2.8 0 .9-.1 1.8-.4 2.6s-.6 1.5-1.1 2.1c-.5.6-1.1 1-1.8 1.4s-1.6.5-2.6.5h-5.5v-12.9h5.6zm-.2 10.5c.4 0 .8-.1 1.2-.2.4-.1.7-.4 1-.7.3-.3.5-.7.7-1.2.2-.5.3-1.1.3-1.8 0-.6-.1-1.2-.2-1.8-.1-.5-.3-1-.6-1.3s-.7-.7-1.1-.9c-.5-.2-1.1-.3-1.8-.3h-2v8.1h2.5zM157.9 524.1l4.8 12.9h-2.9l-1-2.9H154l-1 2.9h-2.8l4.9-12.9h2.8zm.2 7.9l-1.6-4.7-1.7 4.7h3.3zM172.8 524.1l3 8.8 2.8-8.8h4V537H180v-9.1l-3.2 9.1h-2.2l-3.2-9v9h-2.6v-12.9h4zM187.6 534.7c.4.4.9.6 1.7.6.5 0 1-.1 1.3-.4.4-.3.6-.5.7-.8h2.2c-.4 1.1-.9 1.9-1.7 2.4-.7.5-1.6.7-2.7.7-.7 0-1.4-.1-2-.4-.6-.2-1.1-.6-1.5-1-.4-.4-.7-.9-.9-1.5-.2-.6-.3-1.3-.3-2s.1-1.3.3-1.9c.2-.6.6-1.1 1-1.6.4-.4.9-.8 1.5-1s1.2-.4 1.9-.4c.8 0 1.5.2 2.1.5.6.3 1.1.7 1.4 1.2.4.5.7 1.1.8 1.8.2.7.2 1.3.2 2.1H187c.1.7.3 1.3.6 1.7zm2.9-4.9c-.3-.3-.8-.5-1.4-.5-.4 0-.7.1-1 .2-.3.1-.5.3-.6.5s-.3.4-.3.6c-.1.2-.1.4-.1.6h4.2c-.2-.5-.5-1-.8-1.4zM197.7 527.6v1.3c.3-.5.7-.9 1.2-1.1.5-.3 1-.4 1.6-.4.6 0 1.1.1 1.6.3.5.2.9.6 1.1 1.2.3-.4.7-.8 1.1-1.1.5-.3 1-.5 1.7-.5.5 0 .9.1 1.4.2.4.1.8.3 1.1.6s.5.6.7 1 .3.9.3 1.5v6.2H207v-5.3-.9c0-.3-.1-.5-.2-.7-.1-.2-.3-.4-.5-.5-.2-.1-.5-.2-.9-.2s-.7.1-.9.2c-.2.1-.4.3-.5.5s-.2.5-.3.8-.1.6-.1.9v5.2H201v-5.2-.8c0-.3-.1-.5-.2-.7-.1-.2-.2-.4-.5-.5s-.5-.2-.9-.2c-.1 0-.3 0-.5.1l-.6.3c-.2.2-.3.4-.5.6s-.2.7-.2 1.1v5.4H195v-9.3h2.7zM214.1 524.1v4.7c.3-.5.7-.8 1.3-1.1.5-.2 1.1-.3 1.7-.3.5 0 .9.1 1.4.3.5.2.9.5 1.2.9.4.4.7.9.9 1.5s.3 1.4.3 2.2c0 .9-.1 1.6-.3 2.2s-.5 1.1-.9 1.5c-.4.4-.8.7-1.2.9-.5.2-.9.3-1.4.3-.7 0-1.3-.1-1.8-.3s-.9-.6-1.2-1.1v1.2h-2.4v-12.9h2.4zm4.1 7.1c-.1-.4-.2-.7-.4-1-.2-.3-.4-.5-.7-.7-.3-.2-.6-.2-1-.2s-.7.1-1 .2c-.3.2-.5.4-.7.7-.2.3-.3.6-.4 1-.1.4-.1.7-.1 1.1 0 .4 0 .8.1 1.1.1.4.2.7.4 1 .2.3.4.5.7.7.3.2.6.2 1 .2s.7-.1 1-.2c.3-.2.5-.4.7-.7.2-.3.3-.6.4-1 .1-.4.1-.7.1-1.1.1-.4 0-.8-.1-1.1zM225.3 534.7c.4.4.9.6 1.7.6.5 0 1-.1 1.3-.4.4-.3.6-.5.7-.8h2.2c-.4 1.1-.9 1.9-1.7 2.4-.7.5-1.6.7-2.7.7-.7 0-1.4-.1-2-.4-.6-.2-1.1-.6-1.5-1-.4-.4-.7-.9-.9-1.5-.2-.6-.3-1.3-.3-2s.1-1.3.3-1.9c.2-.6.6-1.1 1-1.6.4-.4.9-.8 1.5-1s1.2-.4 1.9-.4c.8 0 1.5.2 2.1.5.6.3 1.1.7 1.4 1.2.4.5.7 1.1.8 1.8.2.7.2 1.3.2 2.1h-6.7c.1.7.3 1.3.7 1.7zm2.9-4.9c-.3-.3-.8-.5-1.4-.5-.4 0-.7.1-1 .2-.3.1-.5.3-.6.5s-.3.4-.3.6c-.1.2-.1.4-.1.6h4.2c-.3-.5-.5-1-.8-1.4zM235.3 527.6v1.7c.1-.3.3-.6.5-.8s.4-.5.7-.6.5-.3.8-.4c.3-.1.6-.1.9-.1.2 0 .4 0 .6.1v2.4c-.1 0-.3 0-.4-.1h-.5c-.5 0-.9.1-1.2.2-.3.2-.6.4-.8.6-.2.3-.3.6-.4.9-.1.4-.1.8-.1 1.2v4.2h-2.6v-9.3h2.5zM242 534.6c.1.2.3.4.4.5l.6.3c.2.1.5.1.7.1.2 0 .4 0 .6-.1.2 0 .4-.1.5-.2.2-.1.3-.2.4-.4.1-.1.2-.3.2-.6 0-.4-.3-.7-.8-.9-.5-.2-1.2-.4-2.1-.6-.4-.1-.7-.2-1.1-.3-.4-.1-.7-.3-.9-.5-.3-.2-.5-.4-.7-.7-.2-.3-.3-.6-.3-1 0-.6.1-1.1.4-1.5.2-.4.5-.7.9-.9.4-.2.8-.4 1.3-.5.5-.1 1-.1 1.5-.1s1 0 1.5.1.9.3 1.3.5.7.5.9.9c.2.4.4.9.4 1.4h-2.4c0-.5-.2-.8-.6-1s-.7-.3-1.2-.3h-.5c-.2 0-.3.1-.5.1-.1.1-.3.1-.4.3-.1.1-.1.3-.1.5s.1.4.3.6c.2.1.4.3.7.4.3.1.6.2.9.2s.7.2 1.1.2c.4.1.7.2 1.1.3.4.1.7.3.9.5.3.2.5.4.7.7s.3.7.3 1.1c0 .6-.1 1.1-.4 1.5-.2.4-.6.7-1 1-.4.3-.8.4-1.4.5-.5.1-1 .2-1.6.2-.5 0-1.1-.1-1.6-.2s-1-.3-1.4-.5c-.4-.3-.7-.6-1-1-.3-.4-.4-.9-.4-1.6h2.4c.3.6.3.8.4 1z"/></svg>