<svg id="Layer_1" xmlns="http://www.w3.org/2000/svg" viewBox="0 0 300 250"><style>.st0{fill:#393}.st1{fill:#231f20}</style><path class="st0" d="M122.6 58.1v20h-4.4v-20h4.4zM124.5 66.2v-2.7h2.4v-1.1c0-1.3.4-2.3 1.2-3.2.8-.8 2-1.2 3.6-1.2h1.1c.4 0 .7.1 1 .1v3c-.5-.1-1-.1-1.5-.1s-.9.1-1.2.4c-.2.3-.4.7-.4 1.3v.9h2.7v2.7h-2.7V78h-4V66.2h-2.2zM151.1 63.6v2.7h-2.9v7.2c0 .7.1 1.1.3 1.3.2.2.7.3 1.3.3h.6c.2 0 .4 0 .6-.1v3c-.3.1-.7.1-1.1.1h-1.2c-.6 0-1.2 0-1.8-.1s-1-.2-1.5-.5c-.4-.2-.8-.6-1-1-.2-.4-.4-1-.4-1.8v-8.5h-2.4v-2.7h2.4v-4.3h4v4.3h3.1zM157 58.1v7.5h.1c.5-.8 1.1-1.5 1.9-1.8.8-.4 1.5-.6 2.3-.6 1.1 0 1.9.1 2.6.4.7.3 1.2.7 1.6 1.2.4.5.7 1.1.8 1.9.2.7.2 1.6.2 2.5V78h-4v-8.2c0-1.2-.2-2.1-.6-2.7s-1-.9-2-.9c-1.1 0-1.9.3-2.4 1s-.5 1.8-.5 3.3V78h-4V58h4zM173.9 74.6c.6.6 1.5.9 2.6.9.8 0 1.5-.2 2.1-.6.6-.4.9-.8 1.1-1.3h3.5c-.6 1.7-1.4 3-2.6 3.7-1.2.7-2.6 1.1-4.2 1.1-1.1 0-2.2-.2-3.1-.5-.9-.4-1.7-.9-2.3-1.6-.6-.7-1.1-1.5-1.5-2.4-.3-.9-.5-2-.5-3.1s.2-2.1.5-3c.4-.9.9-1.7 1.5-2.4.7-.7 1.4-1.2 2.3-1.6.9-.4 1.9-.6 3-.6 1.2 0 2.3.2 3.2.7.9.5 1.7 1.1 2.3 1.9s1 1.7 1.3 2.7c.3 1 .4 2.1.3 3.2H173c0 1.4.3 2.3.9 2.9zm4.5-7.6c-.5-.5-1.2-.8-2.2-.8-.6 0-1.2.1-1.6.3-.4.2-.8.5-1 .8s-.4.7-.5 1c-.1.4-.2.7-.2 1h6.5c-.2-1.1-.5-1.8-1-2.3z"/><g><path class="st1" d="M55.4 87.1c.9 0 1.7.1 2.4.4.7.3 1.3.7 1.8 1.2s.9 1.1 1.2 1.8c.3.7.4 1.4.4 2.1 0 1.2-.2 2.2-.7 3.1s-1.3 1.5-2.4 2v.1c.5.1 1 .4 1.3.7.4.3.6.7.9 1.1.2.4.4.9.5 1.4.1.5.2 1 .2 1.5 0 .3 0 .7.1 1.1 0 .4.1.9.1 1.3s.1.9.2 1.3.3.7.5 1h-4.4c-.2-.6-.4-1.4-.4-2.3-.1-.9-.1-1.7-.3-2.5-.1-1-.5-1.8-1-2.3-.5-.5-1.3-.7-2.4-.7H49v7.8h-4.4v-20h10.8zm-1.6 9c1 0 1.8-.2 2.3-.7.5-.4.8-1.2.8-2.2 0-1-.3-1.7-.8-2.1-.5-.4-1.3-.7-2.3-.7H49V96h4.8zM79.8 87.1v3.7H69.2V95h9.7v3.4h-9.7v4.9H80v3.7H64.8V87h15zM81.4 90.8v-3.7h16.4v3.7h-6v16.3h-4.4V90.8h-6zM107.5 87.1l7.5 20h-4.6l-1.5-4.5h-7.5l-1.6 4.5h-4.4l7.6-20h4.5zm.2 12.2l-2.5-7.3h-.1l-2.6 7.3h5.2zM121.1 87.1v20h-4.4v-20h4.4zM129.3 87.1l8.3 13.4h.1V87.1h4.1v20h-4.4l-8.3-13.4h-.1v13.4h-4.1v-20h4.4zM160.6 87.1v3.7H150V95h9.7v3.4H150v4.9h10.8v3.7h-15.2V87h15zM174.6 87.1c.9 0 1.7.1 2.4.4.7.3 1.3.7 1.8 1.2s.9 1.1 1.2 1.8c.3.7.4 1.4.4 2.1 0 1.2-.2 2.2-.7 3.1-.5.9-1.3 1.5-2.4 2v.1c.5.1 1 .4 1.3.7.4.3.6.7.9 1.1.2.4.4.9.5 1.4s.2 1 .2 1.5c0 .3 0 .7.1 1.1s.1.9.1 1.3.1.9.2 1.3.3.7.5 1h-4.4c-.2-.6-.4-1.4-.4-2.3-.1-.9-.1-1.7-.3-2.5-.1-1-.5-1.8-1-2.3-.5-.5-1.3-.7-2.4-.7h-4.4v7.8h-4.4v-20h10.8zm-1.6 9c1 0 1.8-.2 2.3-.7.5-.4.8-1.2.8-2.2 0-1-.3-1.7-.8-2.1-.5-.4-1.3-.7-2.3-.7h-4.8V96h4.8zM205.9 87.1v3.7h-9.7v4.6h8.4v3.4h-8.4v8.3h-4.4v-20h14.1zM212.8 87.1v20h-4.4v-20h4.4zM215.1 90.8v-3.7h16.4v3.7h-6v16.3h-4.4V90.8h-6zM237.2 102.1c.2.5.6.8 1 1.1.4.3.9.5 1.4.6s1.1.2 1.7.2c.4 0 .8 0 1.3-.1.4-.1.9-.2 1.3-.4s.7-.4 1-.8c.3-.3.4-.7.4-1.2s-.2-1-.5-1.3c-.3-.3-.8-.6-1.4-.8-.6-.2-1.2-.4-1.9-.6-.7-.2-1.4-.4-2.2-.6-.7-.2-1.5-.4-2.2-.7-.7-.3-1.3-.6-1.9-1.1-.6-.4-1-1-1.4-1.6-.3-.6-.5-1.4-.5-2.3 0-1 .2-1.9.7-2.7.4-.8 1-1.4 1.7-1.9s1.5-.9 2.4-1.1c.9-.2 1.8-.4 2.7-.4 1 0 2 .1 3 .3 1 .2 1.8.6 2.6 1.1.7.5 1.3 1.2 1.8 2s.7 1.8.7 3h-4.3c0-.6-.2-1.1-.4-1.5-.2-.4-.5-.7-.9-.9s-.8-.4-1.2-.5c-.5-.1-1-.1-1.5-.1-.4 0-.7 0-1.1.1-.4.1-.7.2-1 .4s-.5.4-.7.7c-.2.3-.3.6-.3 1.1 0 .4.1.7.2 1 .1.2.4.5.9.7.4.2 1 .4 1.8.6.8.2 1.8.5 3 .8.4.1.9.2 1.6.4.7.2 1.3.5 2 .9s1.2 1 1.7 1.7.7 1.6.7 2.8c0 .9-.2 1.8-.5 2.5-.4.8-.9 1.5-1.6 2s-1.6 1-2.6 1.3c-1 .3-2.2.5-3.6.5-1.1 0-2.2-.1-3.2-.4-1-.3-2-.7-2.7-1.3-.8-.6-1.4-1.3-1.9-2.2s-.7-2-.7-3.2h4.3c-.1.9 0 1.5.3 1.9zM256.1 102.7v4.3c0 .6-.1 1.2-.3 1.8s-.5 1-.9 1.4c-.4.4-.9.7-1.4 1-.5.3-1.1.4-1.7.5v-2c.3-.1.5-.2.8-.3s.5-.4.7-.6c.2-.2.3-.5.4-.8.1-.3.1-.6.1-.9h-2v-4.3h4.3z"/></g><g><path class="st0" d="M106 136.1l-3.4-13.6h-.1l-3.3 13.6h-4.5l-5.3-20h4.4l3.2 13.6h.1l3.5-13.6h4.1l3.4 13.8h.1l3.3-13.8h4.3l-5.4 20H106zM132.7 116.1v3.7h-10.6v4.3h9.7v3.4h-9.7v4.9h10.8v3.7h-15.2v-20h15zM145.8 116.1l7.5 20h-4.6l-1.5-4.5h-7.5l-1.6 4.5h-4.4l7.6-20h4.5zm.3 12.2l-2.5-7.3h-.1l-2.6 7.3h5.2zM165.8 116.1c.9 0 1.7.1 2.4.4.7.3 1.3.7 1.8 1.2s.9 1.1 1.2 1.8c.3.7.4 1.4.4 2.1 0 1.2-.2 2.2-.7 3.1-.5.9-1.3 1.5-2.4 2v.1c.5.1 1 .4 1.3.7.4.3.6.7.9 1.1.2.4.4.9.5 1.4s.2 1 .2 1.5c0 .3 0 .7.1 1.1 0 .4.1.9.1 1.3s.1.9.2 1.3.3.7.5 1h-4.4c-.2-.6-.4-1.4-.4-2.3-.1-.9-.1-1.7-.3-2.5-.1-1-.5-1.8-1-2.3s-1.3-.7-2.4-.7h-4.4v7.8H155v-20h10.8zm-1.5 9c1 0 1.8-.2 2.3-.7.5-.4.8-1.2.8-2.2 0-1-.3-1.7-.8-2.1-.5-.4-1.3-.7-2.3-.7h-4.8v5.6h4.8zM187.4 116.1v20H183v-20h4.4zM189.7 119.8v-3.7h16.4v3.7h-6v16.3h-4.4v-16.3h-6zM209.4 131.8v4.3H205v-4.3h4.4z"/></g></svg>