<svg id="Layer_1" xmlns="http://www.w3.org/2000/svg" viewBox="0 0 300 250"><style>.st0{fill:#231f20}</style><path class="st0" d="M44.5 81.9L51 99.3h-4l-1.3-3.9h-6.5l-1.4 3.9H34l6.6-17.4h3.9zm.2 10.7l-2.2-6.4-2.3 6.4h4.5zM55.2 86.7v1.8h.1c.4-.7 1-1.3 1.7-1.6s1.4-.5 2.1-.5c.9 0 1.7.1 2.3.4.6.3 1.1.6 1.4 1 .3.4.6 1 .7 1.6.1.6.2 1.4.2 2.1v7.7h-3.5v-7.1c0-1-.2-1.8-.5-2.3s-.9-.8-1.7-.8c-.9 0-1.6.3-2 .8-.4.6-.6 1.5-.6 2.8v6.6h-3.5V86.7h3.3zM75.1 97.7c-.4.7-.9 1.2-1.6 1.5s-1.4.5-2.2.5c-.9 0-1.8-.2-2.5-.5-.7-.4-1.3-.9-1.8-1.5s-.8-1.3-1-2.2c-.2-.8-.4-1.7-.4-2.5s.1-1.7.4-2.4c.2-.8.6-1.5 1-2.1.5-.6 1-1.1 1.7-1.4.7-.4 1.5-.5 2.4-.5.7 0 1.5.2 2.1.5.7.3 1.2.8 1.6 1.4v-6.3h3.5v17.4H75l.1-1.9zm-.2-6.2c-.1-.5-.3-.9-.5-1.3s-.5-.7-.9-.9c-.4-.2-.8-.3-1.4-.3-.6 0-1 .1-1.4.3-.4.2-.7.5-.9.9-.2.4-.4.8-.5 1.3-.2.5-.3 1-.3 1.5s.1 1 .2 1.5.3.9.5 1.3c.3.4.6.7 1 .9.4.2.8.4 1.4.4.6 0 1-.1 1.4-.3s.7-.5.9-.9c.2-.4.4-.8.5-1.3s.1-1 .1-1.5c.1-.7 0-1.2-.1-1.6zM90.6 86.7v1.6c.4-.7 1-1.2 1.6-1.5.6-.3 1.4-.5 2.1-.5 1 0 1.8.2 2.6.6.7.4 1.3.9 1.8 1.5s.8 1.3 1 2.2c.2.8.3 1.7.3 2.6 0 .8-.1 1.7-.3 2.4-.2.8-.6 1.5-1 2.1-.5.6-1 1.1-1.7 1.4-.7.4-1.5.5-2.4.5-.8 0-1.5-.2-2.2-.5-.7-.3-1.2-.8-1.6-1.4v6h-3.5v-17h3.3zm4.5 10c.4-.2.7-.5.9-.9s.4-.8.5-1.3c.1-.5.1-1 .1-1.5s-.1-1-.2-1.5-.3-.9-.5-1.3-.6-.7-.9-.9c-.4-.2-.8-.4-1.4-.4-.6 0-1 .1-1.4.4-.4.2-.7.5-.9.9-.2.4-.4.8-.5 1.3-.1.5-.1 1-.1 1.5s.1 1 .2 1.5.3.9.5 1.3.5.7.9.9c.4.2.9.3 1.4.3.5 0 1-.1 1.4-.3zM105.2 86.7V89c.2-.4.4-.8.7-1.1.3-.3.6-.6 1-.9.4-.2.7-.4 1.1-.5.4-.1.8-.2 1.3-.2.2 0 .5 0 .8.1v3.2c-.2 0-.4-.1-.6-.1h-.7c-.6 0-1.2.1-1.6.3s-.8.5-1.1.9c-.3.4-.5.8-.6 1.3-.1.5-.2 1-.2 1.6v5.7H102V86.7h3.2zM110.8 90.3c.3-.8.7-1.5 1.3-2.1.6-.6 1.2-1 2-1.3.8-.3 1.7-.5 2.7-.5s1.9.2 2.7.5c.8.3 1.5.8 2.1 1.3.6.6 1 1.3 1.3 2.1.3.8.5 1.7.5 2.7s-.2 1.9-.5 2.7c-.3.8-.7 1.5-1.3 2.1-.6.6-1.3 1-2.1 1.3-.8.3-1.7.5-2.7.5s-1.9-.2-2.7-.5c-.8-.3-1.5-.8-2-1.3-.6-.6-1-1.3-1.3-2.1-.3-.8-.5-1.7-.5-2.7s.2-1.9.5-2.7zm3.2 4.2c.1.5.3.9.5 1.3s.5.7.9.9.9.3 1.5.3 1.1-.1 1.5-.3c.4-.2.7-.5.9-.9.2-.4.4-.8.5-1.3s.1-1 .1-1.5 0-1-.1-1.5-.3-.9-.5-1.3-.6-.7-.9-.9c-.4-.2-.9-.4-1.5-.4s-1.1.1-1.5.4c-.4.2-.7.5-.9.9-.2.4-.4.8-.5 1.3-.1.5-.1 1-.1 1.5s0 1 .1 1.5zM132.4 86.7V89h-2.5v6.2c0 .6.1 1 .3 1.2s.6.3 1.2.3h.6c.2 0 .3 0 .5-.1v2.7c-.3 0-.6.1-1 .1h-1c-.5 0-1 0-1.5-.1s-.9-.2-1.3-.4-.7-.5-.9-.9-.3-.9-.3-1.5V89h-2.1v-2.3h2.1v-3.8h3.5v3.8h2.4zM137.5 96.3c.5.5 1.3.8 2.2.8.7 0 1.3-.2 1.8-.5s.8-.7.9-1.1h3c-.5 1.5-1.2 2.6-2.2 3.2-1 .6-2.2 1-3.7 1-1 0-1.9-.2-2.7-.5-.8-.3-1.5-.8-2-1.4-.6-.6-1-1.3-1.3-2.1-.3-.8-.5-1.7-.5-2.7 0-.9.2-1.8.5-2.6s.7-1.5 1.3-2.1c.6-.6 1.2-1.1 2-1.4.8-.3 1.7-.5 2.6-.5 1.1 0 2 .2 2.8.6.8.4 1.4 1 2 1.7.5.7.9 1.5 1.1 2.4.2.9.3 1.8.2 2.8h-9.1c.3 1.1.6 1.9 1.1 2.4zm3.9-6.7c-.4-.5-1-.7-1.9-.7-.6 0-1 .1-1.4.3-.4.2-.7.4-.9.7-.2.3-.4.6-.5.9s-.1.6-.2.8h5.6c0-.8-.3-1.5-.7-2zM153.6 89c-.6 0-1 .1-1.4.4-.4.3-.7.6-.9 1s-.4.8-.5 1.3c-.1.5-.1 1-.1 1.4 0 .5 0 .9.1 1.4.1.5.3.9.5 1.3s.5.7.9.9c.4.2.8.4 1.4.4.8 0 1.5-.2 1.9-.7.4-.5.7-1.1.8-1.9h3.3c-.2 1.7-.9 2.9-1.9 3.8-1.1.9-2.4 1.3-4.1 1.3-.9 0-1.8-.2-2.6-.5s-1.5-.8-2-1.3c-.6-.6-1-1.2-1.3-2-.3-.8-.5-1.7-.5-2.6 0-1 .1-1.9.4-2.7.3-.8.7-1.6 1.3-2.2s1.2-1.1 2-1.4c.8-.3 1.7-.5 2.7-.5.7 0 1.5.1 2.2.3.7.2 1.3.5 1.9.9.5.4 1 .9 1.3 1.5s.5 1.3.6 2.1h-3.4c-.3-1.5-1.1-2.2-2.6-2.2zM168.2 86.7V89h-2.5v6.2c0 .6.1 1 .3 1.2.2.2.6.3 1.2.3h.6c.2 0 .3 0 .5-.1v2.7c-.3 0-.6.1-1 .1h-1c-.5 0-1 0-1.5-.1s-.9-.2-1.3-.4-.7-.5-.9-.9-.3-.9-.3-1.5V89h-2.1v-2.3h2.1v-3.8h3.5v3.8h2.4zM180.9 103c-.7.4-1.6.7-2.8.7H177c-.3 0-.7-.1-1.1-.1v-2.9c.3 0 .7.1 1 .1h1c.5 0 .8-.2 1-.5.2-.3.3-.6.3-1 0-.3 0-.5-.1-.8l-4.4-11.8h3.7l2.8 8.6 2.8-8.6h3.6l-5.3 14.2c-.3 1-.8 1.7-1.4 2.1zM188.7 90.3c.3-.8.7-1.5 1.3-2.1s1.2-1 2-1.3c.8-.3 1.7-.5 2.7-.5s1.9.2 2.7.5c.8.3 1.5.8 2.1 1.3s1 1.3 1.3 2.1c.3.8.5 1.7.5 2.7s-.2 1.9-.5 2.7c-.3.8-.7 1.5-1.3 2.1-.6.6-1.3 1-2.1 1.3-.8.3-1.7.5-2.7.5s-1.9-.2-2.7-.5c-.8-.3-1.5-.8-2-1.3-.6-.6-1-1.3-1.3-2.1-.3-.8-.5-1.7-.5-2.7s.2-1.9.5-2.7zm3.1 4.2c.1.5.3.9.5 1.3s.5.7.9.9c.4.2.9.3 1.5.3s1.1-.1 1.5-.3c.4-.2.7-.5 1-.9.2-.4.4-.8.5-1.3.1-.5.1-1 .1-1.5s0-1-.1-1.5-.3-.9-.5-1.3-.6-.7-1-.9c-.4-.2-.9-.4-1.5-.4s-1.1.1-1.5.4c-.4.2-.7.5-.9.9-.2.4-.4.8-.5 1.3-.1.5-.1 1-.1 1.5s0 1 .1 1.5zM211.8 99.3v-1.8h-.1c-.4.7-1 1.3-1.7 1.6-.7.3-1.4.5-2.1.5-.9 0-1.7-.1-2.3-.4s-1.1-.6-1.4-1c-.3-.4-.6-1-.7-1.6-.1-.6-.2-1.4-.2-2.1v-7.7h3.5v7.1c0 1 .2 1.8.5 2.3.3.5.9.8 1.7.8.9 0 1.6-.3 2-.8.4-.6.6-1.5.6-2.8v-6.6h3.5v12.6h-3.3zM220.8 86.7V89c.2-.4.4-.8.7-1.1s.6-.6 1-.9c.4-.2.7-.4 1.1-.5.4-.1.8-.2 1.3-.2.2 0 .5 0 .8.1v3.2c-.2 0-.4-.1-.6-.1h-.7c-.6 0-1.2.1-1.6.3s-.8.5-1.1.9c-.3.4-.5.8-.6 1.3-.1.5-.2 1-.2 1.6v5.7h-3.5V86.7h3.4zM229.7 96.2c.2.3.4.5.6.7s.5.3.8.4c.3.1.6.1 1 .1.2 0 .5 0 .8-.1.3-.1.5-.1.7-.3.2-.1.4-.3.5-.5.1-.2.2-.5.2-.8 0-.5-.3-.9-1-1.2-.7-.3-1.7-.5-2.9-.8-.5-.1-1-.2-1.5-.4s-.9-.4-1.3-.6c-.4-.3-.7-.6-.9-1-.2-.4-.3-.8-.3-1.4 0-.8.2-1.5.5-2s.7-.9 1.3-1.2c.5-.3 1.1-.5 1.8-.6.6-.1 1.3-.2 2-.2s1.3.1 2 .2c.6.1 1.2.3 1.7.7.5.3.9.7 1.3 1.2.3.5.5 1.2.6 1.9h-3.3c0-.7-.3-1.1-.8-1.4-.5-.2-1-.4-1.6-.4h-.6c-.2 0-.4.1-.6.2-.2.1-.3.2-.5.4s-.2.4-.2.6c0 .3.1.6.3.8.2.2.5.4.9.5.4.1.8.2 1.3.3.5.1 1 .2 1.4.3.5.1 1 .3 1.5.4.5.2.9.4 1.3.6.4.3.7.6.9 1 .2.4.3.9.3 1.5 0 .8-.2 1.5-.5 2.1-.3.6-.8 1-1.3 1.4-.5.3-1.1.6-1.8.7-.7.1-1.4.2-2.1.2-.7 0-1.4-.1-2.1-.2-.7-.1-1.3-.4-1.9-.7-.5-.3-1-.8-1.3-1.4-.3-.6-.5-1.3-.6-2.1h3.3c-.2.5-.1.8.1 1.1zM243.3 96.3c.5.5 1.3.8 2.2.8.7 0 1.3-.2 1.8-.5s.8-.7.9-1.1h3c-.5 1.5-1.2 2.6-2.2 3.2-1 .6-2.2 1-3.7 1-1 0-1.9-.2-2.7-.5-.8-.3-1.5-.8-2-1.4-.6-.6-1-1.3-1.3-2.1-.3-.8-.5-1.7-.5-2.7 0-.9.2-1.8.5-2.6s.7-1.5 1.3-2.1c.6-.6 1.2-1.1 2-1.4.8-.3 1.7-.5 2.6-.5 1.1 0 2 .2 2.8.6s1.5 1 2 1.7.9 1.5 1.1 2.4.3 1.8.2 2.8h-9.1c.3 1.1.6 1.9 1.1 2.4zm3.9-6.7c-.4-.5-1-.7-1.9-.7-.6 0-1 .1-1.4.3-.4.2-.7.4-.9.7-.2.3-.4.6-.5.9-.1.3-.1.6-.2.8h5.6c0-.8-.3-1.5-.7-2zM256.9 81.9v17.4h-3.5V81.9h3.5zM258.1 89v-2.3h2.1v-1c0-1.1.3-2 1-2.8.7-.7 1.8-1.1 3.2-1.1h.9c.3 0 .6 0 .9.1v2.6c-.4 0-.8-.1-1.3-.1s-.8.1-1 .3-.3.6-.3 1.1v.8h2.4V89h-2.4v10.3h-3.5V89h-2z"/><g><path class="st0" d="M60 113.4v-2.3h2.1v-1c0-1.1.3-2 1-2.8.7-.7 1.8-1.1 3.2-1.1h.9c.3 0 .6 0 .9.1v2.6c-.4 0-.8-.1-1.3-.1s-.8.1-1 .3-.3.6-.3 1.1v.8h2.4v2.3h-2.4v10.3H62v-10.3h-2zM72.5 111.1v2.3c.2-.4.4-.8.7-1.1.3-.3.6-.6 1-.9.4-.2.7-.4 1.1-.5.4-.1.8-.2 1.3-.2.2 0 .5 0 .8.1v3.2c-.2 0-.4-.1-.6-.1h-.7c-.6 0-1.2.1-1.6.3s-.8.5-1.1.9c-.3.4-.5.8-.6 1.3-.1.5-.2 1-.2 1.6v5.7h-3.5v-12.6h3.4zM78.1 114.6c.3-.8.7-1.5 1.3-2.1.6-.6 1.2-1 2-1.3.8-.3 1.7-.5 2.7-.5s1.9.2 2.7.5c.8.3 1.5.8 2.1 1.3.6.6 1 1.3 1.3 2.1.3.8.5 1.7.5 2.7s-.2 1.9-.5 2.7c-.3.8-.7 1.5-1.3 2.1-.6.6-1.3 1-2.1 1.3-.8.3-1.7.5-2.7.5s-1.9-.2-2.7-.5c-.8-.3-1.5-.8-2-1.3-.6-.6-1-1.3-1.3-2.1-.3-.8-.5-1.7-.5-2.7s.2-1.9.5-2.7zm3.1 4.2c.1.5.3.9.5 1.3s.5.7.9.9.9.3 1.5.3 1.1-.1 1.5-.3c.4-.2.7-.5.9-.9.2-.4.4-.8.5-1.3s.1-1 .1-1.5 0-1-.1-1.5-.3-.9-.5-1.3-.6-.7-.9-.9c-.4-.2-.9-.4-1.5-.4s-1.1.1-1.5.4c-.4.2-.7.5-.9.9-.2.4-.4.8-.5 1.3-.1.5-.1 1-.1 1.5s0 1.1.1 1.5zM96 111.1v1.7c.5-.6 1-1.2 1.6-1.5.6-.4 1.4-.5 2.2-.5.8 0 1.5.2 2.2.5s1.2.9 1.5 1.6c.4-.6.9-1 1.5-1.5s1.4-.6 2.3-.6c.7 0 1.3.1 1.9.2.6.2 1.1.4 1.5.8.4.4.7.8 1 1.4.2.6.3 1.3.3 2.1v8.4h-3.5v-7.1-1.2c0-.4-.1-.7-.3-1-.1-.3-.4-.5-.6-.7-.3-.2-.7-.2-1.2-.2s-.9.1-1.2.3c-.3.2-.5.4-.7.7-.2.3-.3.6-.3 1-.1.4-.1.8-.1 1.2v7h-3.5v-7.1-1.1c0-.4-.1-.7-.2-1-.1-.3-.3-.6-.6-.7-.3-.2-.7-.3-1.3-.3-.2 0-.4 0-.6.1s-.5.2-.8.4c-.3.2-.5.5-.6.9-.2.4-.3.9-.3 1.5v7.3h-3.5v-12.6H96zM129.6 123.7v-1.8h-.1c-.4.7-1 1.3-1.7 1.6s-1.4.5-2.1.5c-.9 0-1.7-.1-2.3-.4s-1.1-.6-1.4-1c-.3-.4-.6-1-.7-1.6-.1-.6-.2-1.4-.2-2.1v-7.7h3.5v7.1c0 1 .2 1.8.5 2.3.3.5.9.8 1.7.8.9 0 1.6-.3 2-.8.4-.6.6-1.5.6-2.8v-6.6h3.5v12.6h-3.3zM138.5 111.1v1.8h.1c.4-.7 1-1.3 1.7-1.6s1.4-.5 2.1-.5c.9 0 1.7.1 2.3.4.6.3 1.1.6 1.4 1 .3.4.6 1 .7 1.6.1.6.2 1.4.2 2.1v7.7h-3.5v-7.1c0-1-.2-1.8-.5-2.3-.3-.5-.9-.8-1.7-.8-.9 0-1.6.3-2 .8-.4.6-.6 1.5-.6 2.8v6.6h-3.5V111h3.3zM155.5 113.3c-.6 0-1 .1-1.4.4-.4.3-.7.6-.9 1s-.4.8-.5 1.3c-.1.5-.1 1-.1 1.4 0 .5 0 .9.1 1.4.1.5.3.9.5 1.3s.5.7.9.9c.4.2.8.4 1.4.4.8 0 1.5-.2 1.9-.7.4-.5.7-1.1.8-1.9h3.3c-.2 1.7-.9 2.9-1.9 3.8-1.1.9-2.4 1.3-4.1 1.3-.9 0-1.8-.2-2.6-.5s-1.5-.8-2-1.3c-.6-.6-1-1.2-1.3-2-.3-.8-.5-1.7-.5-2.6 0-1 .1-1.9.4-2.7.3-.8.7-1.6 1.3-2.2.6-.6 1.2-1.1 2-1.4.8-.3 1.7-.5 2.7-.5.7 0 1.5.1 2.2.3.7.2 1.3.5 1.9.9.5.4 1 .9 1.3 1.5s.5 1.3.6 2.1h-3.4c-.3-1.5-1.1-2.2-2.6-2.2zM163.3 114.6c.3-.8.7-1.5 1.3-2.1s1.2-1 2-1.3c.8-.3 1.7-.5 2.7-.5s1.9.2 2.7.5c.8.3 1.5.8 2.1 1.3s1 1.3 1.3 2.1c.3.8.5 1.7.5 2.7s-.2 1.9-.5 2.7c-.3.8-.7 1.5-1.3 2.1-.6.6-1.3 1-2.1 1.3-.8.3-1.7.5-2.7.5s-1.9-.2-2.7-.5c-.8-.3-1.5-.8-2-1.3-.6-.6-1-1.3-1.3-2.1-.3-.8-.5-1.7-.5-2.7s.2-1.9.5-2.7zm3.2 4.2c.1.5.3.9.5 1.3s.5.7.9.9c.4.2.9.3 1.5.3s1.1-.1 1.5-.3c.4-.2.7-.5 1-.9.2-.4.4-.8.5-1.3.1-.5.1-1 .1-1.5s0-1-.1-1.5-.3-.9-.5-1.3-.6-.7-1-.9c-.4-.2-.9-.4-1.5-.4s-1.1.1-1.5.4c-.4.2-.7.5-.9.9-.2.4-.4.8-.5 1.3-.1.5-.1 1-.1 1.5s0 1.1.1 1.5zM181 123.7l-4.3-12.6h3.6l2.7 8.6 2.7-8.6h3.4l-4.3 12.6H181zM194 120.6c.5.5 1.3.8 2.2.8.7 0 1.3-.2 1.8-.5s.8-.7.9-1.1h3c-.5 1.5-1.2 2.6-2.2 3.2-1 .6-2.2 1-3.7 1-1 0-1.9-.2-2.7-.5-.8-.3-1.5-.8-2-1.4-.6-.6-1-1.3-1.3-2.1-.3-.8-.5-1.7-.5-2.7 0-.9.2-1.8.5-2.6s.7-1.5 1.3-2.1c.6-.6 1.2-1.1 2-1.4.8-.3 1.7-.5 2.6-.5 1.1 0 2 .2 2.8.6s1.5 1 2 1.7.9 1.5 1.1 2.4.3 1.8.2 2.8h-9.1c.3 1.1.6 1.9 1.1 2.4zm3.9-6.6c-.4-.5-1-.7-1.9-.7-.6 0-1 .1-1.4.3-.4.2-.7.4-.9.7-.2.3-.4.6-.5.9-.1.3-.1.6-.2.8h5.6c0-.9-.2-1.5-.7-2zM207.4 111.1v2.3c.2-.4.4-.8.7-1.1s.6-.6 1-.9c.4-.2.7-.4 1.1-.5.4-.1.8-.2 1.3-.2.2 0 .5 0 .8.1v3.2c-.2 0-.4-.1-.6-.1h-.7c-.6 0-1.2.1-1.6.3s-.8.5-1.1.9c-.3.4-.5.8-.6 1.3-.1.5-.2 1-.2 1.6v5.7H204v-12.6h3.4zM216.6 120.6c.5.5 1.3.8 2.2.8.7 0 1.3-.2 1.8-.5s.8-.7.9-1.1h3c-.5 1.5-1.2 2.6-2.2 3.2-1 .6-2.2 1-3.7 1-1 0-1.9-.2-2.7-.5-.8-.3-1.5-.8-2-1.4-.6-.6-1-1.3-1.3-2.1-.3-.8-.5-1.7-.5-2.7 0-.9.2-1.8.5-2.6s.7-1.5 1.3-2.1c.6-.6 1.2-1.1 2-1.4.8-.3 1.7-.5 2.6-.5 1.1 0 2 .2 2.8.6s1.5 1 2 1.7.9 1.5 1.1 2.4.3 1.8.2 2.8h-9.1c.3 1.1.6 1.9 1.1 2.4zm3.9-6.6c-.4-.5-1-.7-1.9-.7-.6 0-1 .1-1.4.3-.4.2-.7.4-.9.7-.2.3-.4.6-.5.9-.1.3-.1.6-.2.8h5.6c0-.9-.3-1.5-.7-2zM235.6 122c-.4.7-.9 1.2-1.6 1.5-.7.3-1.4.5-2.2.5-.9 0-1.8-.2-2.5-.5s-1.3-.9-1.8-1.5-.8-1.3-1-2.2-.4-1.7-.4-2.5.1-1.7.4-2.4c.2-.8.6-1.5 1-2.1.5-.6 1-1.1 1.7-1.4.7-.4 1.5-.5 2.4-.5.7 0 1.5.2 2.1.5.7.3 1.2.8 1.6 1.4v-6.3h3.5v17.4h-3.3l.1-1.9zm-.2-6.2c-.1-.5-.3-.9-.5-1.3s-.5-.7-.9-.9c-.4-.2-.8-.3-1.4-.3s-1 .1-1.4.3c-.4.2-.7.5-.9.9-.2.4-.4.8-.5 1.3-.1.5-.2 1-.2 1.5s.1 1 .2 1.5.3.9.5 1.3c.3.4.6.7 1 .9s.8.4 1.4.4c.6 0 1-.1 1.4-.3.4-.2.7-.5.9-.9.2-.4.4-.8.5-1.3s.1-1 .1-1.5c0-.6-.1-1.1-.2-1.6z"/></g><g><path class="st0" d="M52.1 135.4v1.7c.5-.6 1-1.2 1.6-1.5.6-.4 1.4-.5 2.2-.5.8 0 1.5.2 2.2.5.7.3 1.2.9 1.5 1.6.4-.6.9-1 1.5-1.5.6-.4 1.4-.6 2.3-.6.7 0 1.3.1 1.9.2.6.2 1.1.4 1.5.8.4.4.7.8 1 1.4.2.6.3 1.3.3 2.1v8.4h-3.5v-7.1-1.2c0-.4-.1-.7-.3-1-.1-.3-.4-.5-.6-.7s-.7-.2-1.2-.2-.9.1-1.2.3c-.3.2-.5.4-.7.7-.2.3-.3.6-.3 1-.1.4-.1.8-.1 1.2v7h-3.5v-7.1-1.1c0-.4-.1-.7-.2-1-.1-.3-.3-.6-.6-.7-.3-.2-.7-.3-1.3-.3-.2 0-.4 0-.6.1-.3.1-.5.2-.8.4-.3.2-.5.5-.6.9-.2.4-.3.9-.3 1.5v7.3h-3.5v-12.6h3.3zM74.3 145c.5.5 1.3.8 2.2.8.7 0 1.3-.2 1.8-.5s.8-.7.9-1.1h3c-.5 1.5-1.2 2.6-2.2 3.2-1 .7-2.2 1-3.7 1-1 0-1.9-.2-2.7-.5-.8-.3-1.5-.8-2-1.4-.6-.6-1-1.3-1.3-2.1-.3-.8-.5-1.7-.5-2.7 0-.9.2-1.8.5-2.6s.7-1.5 1.3-2.1c.6-.6 1.2-1.1 2-1.4s1.7-.5 2.6-.5c1.1 0 2 .2 2.8.6.8.4 1.4 1 2 1.7s.9 1.5 1.1 2.4c.2.9.3 1.8.2 2.8h-9.1c.3 1.1.6 1.9 1.1 2.4zm3.9-6.6c-.4-.5-1-.7-1.9-.7-.6 0-1 .1-1.4.3-.4.2-.7.4-.9.7-.2.3-.4.6-.5.9-.1.3-.1.6-.2.8h5.6c0-.9-.3-1.6-.7-2zM93.3 146.4c-.4.7-.9 1.2-1.6 1.5-.7.3-1.4.5-2.2.5-.9 0-1.8-.2-2.5-.5-.7-.4-1.3-.9-1.8-1.5s-.8-1.3-1-2.2c-.2-.8-.4-1.7-.4-2.5s.1-1.7.4-2.4c.2-.8.6-1.5 1-2.1s1-1.1 1.7-1.4c.7-.4 1.5-.5 2.4-.5.7 0 1.5.2 2.1.5s1.2.8 1.6 1.4v-6.3h3.5V148h-3.3l.1-1.6zm-.1-6.2c-.1-.5-.3-.9-.5-1.3s-.5-.7-.9-.9-.8-.3-1.4-.3c-.6 0-1 .1-1.4.3-.4.2-.7.5-.9.9-.2.4-.4.8-.5 1.3-.1.5-.2 1-.2 1.5s.1 1 .2 1.5.3.9.5 1.3c.3.4.6.7 1 .9.4.2.8.4 1.4.4.6 0 1-.1 1.4-.3s.7-.5.9-.9c.2-.4.4-.8.5-1.3s.1-1 .1-1.5c-.1-.6-.1-1.1-.2-1.6zM99.1 133.5v-2.8h3.5v2.8h-3.5zm3.5 1.9V148h-3.5v-12.6h3.5zM111.1 137.7c-.6 0-1 .1-1.4.4-.4.3-.7.6-.9 1-.2.4-.4.8-.5 1.3-.1.5-.1 1-.1 1.4 0 .5 0 .9.1 1.4.1.5.3.9.5 1.3s.5.7.9.9.8.4 1.4.4c.8 0 1.5-.2 1.9-.7s.7-1.1.8-1.9h3.3c-.2 1.7-.9 2.9-1.9 3.8s-2.4 1.3-4.1 1.3c-.9 0-1.8-.2-2.6-.5s-1.5-.8-2-1.3c-.6-.6-1-1.2-1.3-2-.3-.8-.5-1.7-.5-2.6 0-1 .1-1.9.4-2.7.3-.8.7-1.6 1.3-2.2.6-.6 1.2-1.1 2-1.4.8-.3 1.7-.5 2.7-.5.7 0 1.5.1 2.2.3.7.2 1.3.5 1.9.9.5.4 1 .9 1.3 1.5.3.6.5 1.3.6 2.1h-3.4c-.3-1.5-1.1-2.2-2.6-2.2zM118.7 139.3c0-.8.3-1.5.6-2 .4-.5.8-1 1.4-1.3.6-.3 1.2-.6 1.9-.7.7-.1 1.4-.2 2.1-.2.6 0 1.3 0 1.9.1.6.1 1.2.3 1.8.5s1 .6 1.3 1.1.5 1.1.5 1.8v6.6c0 .6 0 1.1.1 1.6s.2.9.3 1.2h-3.5c-.1-.2-.1-.4-.2-.6s-.1-.4-.1-.6c-.6.6-1.2 1-1.9 1.2-.7.2-1.5.3-2.3.3-.6 0-1.2-.1-1.7-.2s-1-.4-1.4-.7c-.4-.3-.7-.7-.9-1.2-.2-.5-.3-1-.3-1.7s.1-1.3.4-1.8c.3-.5.6-.8 1-1.1.4-.3.9-.5 1.4-.6l1.5-.3c.5-.1 1-.1 1.5-.2s1-.1 1.3-.2c.4-.1.7-.2.9-.4.2-.2.3-.5.3-.8 0-.4-.1-.7-.2-.9-.1-.2-.3-.4-.5-.5s-.4-.2-.7-.2c-.3 0-.6-.1-.9-.1-.7 0-1.2.1-1.6.4s-.6.8-.7 1.5h-3.3zm8 2.5c-.1.1-.3.2-.5.3s-.5.1-.7.2c-.3 0-.5.1-.8.1-.3 0-.6.1-.8.1-.3 0-.5.1-.8.2-.3.1-.5.2-.7.3-.2.1-.3.3-.5.5-.1.2-.2.5-.2.8 0 .3.1.6.2.8.1.2.3.4.5.5.2.1.4.2.7.3.3 0 .5.1.8.1.7 0 1.2-.1 1.6-.3.4-.2.6-.5.8-.8.2-.3.3-.6.3-1 0-.3.1-.6.1-.8v-1.3zM136.2 130.6V148h-3.5v-17.4h3.5zM148.9 145c.5.5 1.3.8 2.2.8.7 0 1.3-.2 1.8-.5s.8-.7.9-1.1h3c-.5 1.5-1.2 2.6-2.2 3.2-1 .7-2.2 1-3.7 1-1 0-1.9-.2-2.7-.5-.8-.3-1.5-.8-2-1.4-.6-.6-1-1.3-1.3-2.1-.3-.8-.5-1.7-.5-2.7 0-.9.2-1.8.5-2.6s.7-1.5 1.3-2.1 1.2-1.1 2-1.4 1.7-.5 2.6-.5c1.1 0 2 .2 2.8.6.8.4 1.5 1 2 1.7s.9 1.5 1.1 2.4.3 1.8.2 2.8H148c.1 1.1.4 1.9.9 2.4zm3.9-6.6c-.4-.5-1-.7-1.9-.7-.6 0-1 .1-1.4.3-.4.2-.7.4-.9.7-.2.3-.4.6-.5.9-.1.3-.1.6-.2.8h5.6c0-.9-.3-1.6-.7-2zM158 135.4h3.9l2.2 3.3 2.2-3.3h3.8l-4.1 5.9 4.7 6.7h-3.9l-2.6-4-2.6 4h-3.9l4.5-6.6-4.2-6zM175.1 135.4v1.6c.4-.7 1-1.2 1.6-1.5.6-.3 1.4-.5 2.1-.5 1 0 1.8.2 2.6.6.7.4 1.3.9 1.8 1.5s.8 1.3 1 2.2c.2.8.3 1.7.3 2.6 0 .8-.1 1.7-.3 2.4-.2.8-.6 1.5-1 2.1-.5.6-1 1.1-1.7 1.4-.7.4-1.5.5-2.4.5-.8 0-1.5-.2-2.2-.5-.7-.3-1.2-.8-1.6-1.4v6h-3.5v-17h3.3zm4.5 10c.4-.2.7-.5.9-.9.2-.4.4-.8.5-1.3s.1-1 .1-1.5-.1-1-.2-1.5-.3-.9-.5-1.3-.6-.7-.9-.9c-.4-.2-.8-.4-1.4-.4-.6 0-1 .1-1.4.4s-.7.5-.9.9c-.2.4-.4.8-.5 1.3s-.1 1-.1 1.5.1 1 .2 1.5.3.9.5 1.3.5.7.9.9.9.3 1.4.3c.5 0 1-.1 1.4-.3zM190.2 145c.5.5 1.3.8 2.2.8.7 0 1.3-.2 1.8-.5s.8-.7.9-1.1h3c-.5 1.5-1.2 2.6-2.2 3.2-1 .7-2.2 1-3.7 1-1 0-1.9-.2-2.7-.5-.8-.3-1.5-.8-2-1.4-.6-.6-1-1.3-1.3-2.1-.3-.8-.5-1.7-.5-2.7 0-.9.2-1.8.5-2.6s.7-1.5 1.3-2.1 1.2-1.1 2-1.4 1.7-.5 2.6-.5c1.1 0 2 .2 2.8.6.8.4 1.5 1 2 1.7s.9 1.5 1.1 2.4.3 1.8.2 2.8h-9.1c.3 1.1.5 1.9 1.1 2.4zm3.9-6.6c-.4-.5-1-.7-1.9-.7-.6 0-1 .1-1.4.3-.4.2-.7.4-.9.7-.2.3-.4.6-.5.9-.1.3-.1.6-.2.8h5.6c0-.9-.3-1.6-.7-2zM203.5 135.4v1.8h.1c.4-.7 1-1.3 1.7-1.6s1.4-.5 2.1-.5c.9 0 1.7.1 2.3.4s1.1.6 1.4 1c.3.4.6 1 .7 1.6s.2 1.4.2 2.1v7.7h-3.5v-7.1c0-1-.2-1.8-.5-2.3s-.9-.8-1.7-.8c-.9 0-1.6.3-2 .8-.4.6-.6 1.5-.6 2.8v6.6h-3.5v-12.6h3.3zM217.4 144.9c.2.3.4.5.6.7.2.2.5.3.8.4.3.1.6.1 1 .1.2 0 .5 0 .8-.1.3-.1.5-.1.7-.3.2-.1.4-.3.5-.5.1-.2.2-.5.2-.8 0-.5-.3-.9-1-1.2-.7-.3-1.7-.5-2.9-.8-.5-.1-1-.2-1.5-.4s-.9-.4-1.3-.6c-.4-.3-.7-.6-.9-.9-.2-.4-.3-.8-.3-1.4 0-.8.2-1.5.5-2s.7-.9 1.3-1.2c.5-.3 1.1-.5 1.8-.6.6-.1 1.3-.2 2-.2s1.3.1 2 .2 1.2.3 1.7.7c.5.3.9.7 1.3 1.2.3.5.5 1.2.6 1.9H222c0-.7-.3-1.1-.8-1.4-.5-.2-1-.4-1.6-.4h-.6c-.2 0-.4.1-.6.2-.2.1-.3.2-.5.4-.1.2-.2.4-.2.6 0 .3.1.6.3.8.2.2.5.4.9.5.4.1.8.2 1.3.3s1 .2 1.4.3c.5.1 1 .3 1.5.4.5.2.9.4 1.3.6.4.3.7.6.9 1 .2.4.3.9.3 1.5 0 .8-.2 1.5-.5 2.1-.3.6-.8 1-1.3 1.4-.5.3-1.1.6-1.8.7-.7.1-1.4.2-2.1.2-.7 0-1.4-.1-2.1-.2-.7-.1-1.3-.4-1.9-.7-.5-.3-1-.8-1.3-1.4-.3-.6-.5-1.3-.6-2.1h3.3c-.2.4-.1.7.1 1zM231 145c.5.5 1.3.8 2.2.8.7 0 1.3-.2 1.8-.5s.8-.7.9-1.1h3c-.5 1.5-1.2 2.6-2.2 3.2-1 .7-2.2 1-3.7 1-1 0-1.9-.2-2.7-.5-.8-.3-1.5-.8-2-1.4-.6-.6-1-1.3-1.3-2.1-.3-.8-.5-1.7-.5-2.7 0-.9.2-1.8.5-2.6s.7-1.5 1.3-2.1 1.2-1.1 2-1.4 1.7-.5 2.6-.5c1.1 0 2 .2 2.8.6.8.4 1.5 1 2 1.7s.9 1.5 1.1 2.4.3 1.8.2 2.8h-9.1c.3 1.1.6 1.9 1.1 2.4zm3.9-6.6c-.4-.5-1-.7-1.9-.7-.6 0-1 .1-1.4.3-.4.2-.7.4-.9.7-.2.3-.4.6-.5.9-.1.3-.1.6-.2.8h5.6c0-.9-.3-1.6-.7-2zM244 144.9c.2.3.4.5.6.7.2.2.5.3.8.4.3.1.6.1 1 .1.2 0 .5 0 .8-.1.3-.1.5-.1.7-.3.2-.1.4-.3.5-.5.1-.2.2-.5.2-.8 0-.5-.3-.9-1-1.2-.7-.3-1.7-.5-2.9-.8-.5-.1-1-.2-1.5-.4s-.9-.4-1.3-.6c-.4-.3-.7-.6-.9-.9-.2-.4-.3-.8-.3-1.4 0-.8.2-1.5.5-2s.7-.9 1.3-1.2c.5-.3 1.1-.5 1.8-.6.6-.1 1.3-.2 2-.2s1.3.1 2 .2 1.2.3 1.7.7c.5.3.9.7 1.3 1.2.3.5.5 1.2.6 1.9h-3.3c0-.7-.3-1.1-.8-1.4-.5-.2-1-.4-1.6-.4h-.6c-.2 0-.4.1-.6.2-.2.1-.3.2-.5.4-.1.2-.2.4-.2.6 0 .3.1.6.3.8.2.2.5.4.9.5.4.1.8.2 1.3.3s1 .2 1.4.3c.5.1 1 .3 1.5.4.5.2.9.4 1.3.6.4.3.7.6.9 1 .2.4.3.9.3 1.5 0 .8-.2 1.5-.5 2.1-.3.6-.8 1-1.3 1.4-.5.3-1.1.6-1.8.7-.7.1-1.4.2-2.1.2-.7 0-1.4-.1-2.1-.2-.7-.1-1.3-.4-1.9-.7-.5-.3-1-.8-1.3-1.4-.3-.6-.5-1.3-.6-2.1h3.3c-.1.4-.1.7.1 1z"/></g></svg>