<svg id="Layer_1" xmlns="http://www.w3.org/2000/svg" viewBox="0 0 300 250"><style>.st0{fill:#231f20}</style><path class="st0" d="M26.4 104.6c.2.4.5.7.8 1 .3.3.8.4 1.2.6.5.1 1 .2 1.5.2.3 0 .7 0 1.1-.1.4-.1.8-.2 1.1-.3.3-.2.6-.4.9-.7s.3-.6.3-1.1c0-.5-.2-.9-.5-1.1-.3-.3-.7-.5-1.2-.7s-1-.4-1.7-.5c-.6-.1-1.2-.3-1.9-.5-.6-.2-1.3-.4-1.9-.6-.6-.2-1.2-.5-1.7-.9s-.9-.8-1.2-1.4c-.3-.6-.5-1.2-.5-2 0-.9.2-1.7.6-2.3.4-.7.9-1.2 1.5-1.6s1.3-.8 2.1-1c.8-.2 1.6-.3 2.3-.3.9 0 1.8.1 2.6.3s1.6.5 2.2 1c.6.5 1.2 1 1.5 1.7.4.7.6 1.6.6 2.6h-3.7c0-.5-.1-.9-.3-1.3-.2-.3-.4-.6-.7-.8s-.7-.3-1.1-.4c-.4-.1-.8-.1-1.3-.1-.3 0-.6 0-.9.1s-.6.2-.8.3c-.3.2-.5.4-.6.6-.2.2-.2.6-.2.9 0 .3.1.6.2.8.1.2.4.4.8.6.4.2.9.4 1.6.5s1.6.4 2.6.7c.3.1.8.2 1.4.4.6.2 1.1.4 1.7.8.6.4 1.1.9 1.5 1.5.4.6.6 1.4.6 2.4 0 .8-.2 1.5-.5 2.2-.3.7-.8 1.3-1.4 1.8-.6.5-1.4.9-2.3 1.2-.9.3-1.9.4-3.1.4-1 0-1.9-.1-2.8-.4s-1.7-.6-2.4-1.1c-.7-.5-1.2-1.1-1.6-1.9-.4-.8-.6-1.7-.6-2.8h3.7c.2.4.3.9.5 1.3zM47.2 108.9v-1.8h-.1c-.4.7-1 1.3-1.7 1.6s-1.4.5-2.1.5c-.9 0-1.7-.1-2.3-.4s-1.1-.6-1.4-1c-.3-.4-.6-1-.7-1.6-.1-.6-.2-1.4-.2-2.1v-7.7h3.5v7.1c0 1 .2 1.8.5 2.3.3.5.9.8 1.7.8.9 0 1.6-.3 2-.8.4-.6.6-1.5.6-2.8v-6.6h3.5V109h-3.3zM56.2 96.3v1.6c.4-.7 1-1.2 1.6-1.5.6-.3 1.4-.5 2.1-.5 1 0 1.8.2 2.6.6.7.4 1.3.9 1.8 1.5s.8 1.3 1 2.2c.2.8.3 1.7.3 2.6 0 .8-.1 1.7-.3 2.4-.2.8-.6 1.5-1 2.1-.5.6-1 1.1-1.7 1.4-.7.4-1.5.5-2.4.5-.8 0-1.5-.2-2.2-.5-.7-.3-1.2-.8-1.6-1.4v6h-3.5v-17h3.3zm4.5 10c.4-.2.7-.5.9-.9s.4-.8.5-1.3c.1-.5.1-1 .1-1.5s-.1-1-.2-1.5-.3-.9-.5-1.3-.6-.7-.9-.9c-.4-.2-.8-.4-1.4-.4-.6 0-1 .1-1.4.4-.4.2-.7.5-.9.9-.2.4-.4.8-.5 1.3-.1.5-.1 1-.1 1.5s.1 1 .2 1.5.3.9.5 1.3.5.7.9.9c.4.2.9.3 1.4.3.5 0 1-.1 1.4-.3zM70.8 96.3v1.6c.4-.7 1-1.2 1.6-1.5.6-.3 1.4-.5 2.1-.5 1 0 1.8.2 2.6.6.7.4 1.3.9 1.8 1.5s.8 1.3 1 2.2c.2.8.3 1.7.3 2.6 0 .8-.1 1.7-.3 2.4-.2.8-.6 1.5-1 2.1-.5.6-1 1.1-1.7 1.4-.7.4-1.5.5-2.4.5-.8 0-1.5-.2-2.2-.5-.7-.3-1.2-.8-1.6-1.4v6h-3.5v-17h3.3zm4.5 10c.4-.2.7-.5.9-.9s.4-.8.5-1.3c.1-.5.1-1 .1-1.5s-.1-1-.2-1.5-.3-.9-.5-1.3-.6-.7-.9-.9c-.4-.2-.8-.4-1.4-.4-.6 0-1 .1-1.4.4-.4.2-.7.5-.9.9-.2.4-.4.8-.5 1.3-.1.5-.1 1-.1 1.5s.1 1 .2 1.5.3.9.5 1.3.5.7.9.9c.4.2.9.3 1.4.3.6 0 1.1-.1 1.4-.3zM85.8 91.5v17.4h-3.5V91.5h3.5zM92 105.9c.5.5 1.3.8 2.2.8.7 0 1.3-.2 1.8-.5s.8-.7.9-1.1h3c-.5 1.5-1.2 2.6-2.2 3.2-1 .6-2.2 1-3.7 1-1 0-1.9-.2-2.7-.5-.8-.3-1.5-.8-2-1.4-.6-.6-1-1.3-1.3-2.1-.3-.8-.5-1.7-.5-2.7 0-.9.2-1.8.5-2.6s.7-1.5 1.3-2.1c.6-.6 1.2-1.1 2-1.4.8-.3 1.7-.5 2.6-.5 1.1 0 2 .2 2.8.6.8.4 1.4 1 2 1.7.5.7.9 1.5 1.1 2.4.2.9.3 1.8.2 2.8h-9.1c.3 1.1.5 1.9 1.1 2.4zm3.9-6.7c-.4-.5-1-.7-1.9-.7-.6 0-1 .1-1.4.3-.4.2-.7.4-.9.7-.2.3-.4.6-.5.9s-.1.6-.2.8h5.6c0-.8-.3-1.5-.7-2zM105.4 96.3V98c.5-.6 1-1.2 1.6-1.5.6-.4 1.4-.5 2.2-.5.8 0 1.5.2 2.2.5s1.2.9 1.5 1.6c.4-.6.9-1 1.5-1.5s1.4-.6 2.3-.6c.7 0 1.3.1 1.9.2.6.2 1.1.4 1.5.8.4.4.7.8 1 1.4.2.6.3 1.3.3 2.1v8.4h-3.5v-7.1-1.2c0-.4-.1-.7-.3-1-.1-.3-.4-.5-.6-.7-.3-.2-.7-.2-1.2-.2s-.9.1-1.2.3c-.3.2-.5.4-.7.7-.2.3-.3.6-.3 1-.1.4-.1.8-.1 1.2v7H110v-7.1-1.1c0-.4-.1-.7-.2-1-.1-.3-.3-.6-.6-.7-.3-.2-.7-.3-1.3-.3-.2 0-.4 0-.6.1s-.5.2-.8.4c-.3.2-.5.5-.6.9-.2.4-.3.9-.3 1.5v7.3h-3.5V96.3h3.3zM127.6 105.9c.5.5 1.3.8 2.2.8.7 0 1.3-.2 1.8-.5s.8-.7.9-1.1h3c-.5 1.5-1.2 2.6-2.2 3.2-1 .6-2.2 1-3.7 1-1 0-1.9-.2-2.7-.5-.8-.3-1.5-.8-2-1.4-.6-.6-1-1.3-1.3-2.1-.3-.8-.5-1.7-.5-2.7 0-.9.2-1.8.5-2.6s.7-1.5 1.3-2.1c.6-.6 1.2-1.1 2-1.4.8-.3 1.7-.5 2.6-.5 1.1 0 2 .2 2.8.6.8.4 1.4 1 2 1.7.5.7.9 1.5 1.1 2.4.2.9.3 1.8.2 2.8h-9.1c.3 1.1.6 1.9 1.1 2.4zm3.9-6.7c-.4-.5-1-.7-1.9-.7-.6 0-1 .1-1.4.3-.4.2-.7.4-.9.7-.2.3-.4.6-.5.9s-.1.6-.2.8h5.6c0-.8-.3-1.5-.7-2zM140.9 96.3v1.8h.1c.4-.7 1-1.3 1.7-1.6.7-.3 1.4-.5 2.1-.5.9 0 1.7.1 2.3.4.6.3 1.1.6 1.4 1 .3.4.6 1 .7 1.6.1.6.2 1.4.2 2.1v7.7H146v-7.1c0-1-.2-1.8-.5-2.3-.3-.5-.9-.8-1.7-.8-.9 0-1.6.3-2 .8-.4.6-.6 1.5-.6 2.8v6.6h-3.5V96.3h3.2zM158.8 96.3v2.3h-2.5v6.2c0 .6.1 1 .3 1.2.2.2.6.3 1.2.3h.6c.2 0 .3 0 .5-.1v2.7c-.3 0-.6.1-1 .1h-1c-.5 0-1 0-1.5-.1s-.9-.2-1.3-.4-.7-.5-.9-.9-.3-.9-.3-1.5v-7.4h-2.1v-2.3h2.1v-3.8h3.5v3.8h2.4zM160.1 100.2c0-.8.3-1.5.6-2 .4-.5.8-1 1.4-1.3.6-.3 1.2-.6 1.9-.7.7-.1 1.4-.2 2.1-.2.6 0 1.3 0 1.9.1.6.1 1.2.3 1.8.5.5.3 1 .6 1.3 1.1.3.5.5 1.1.5 1.8v6.6c0 .6 0 1.1.1 1.6s.2.9.3 1.2h-3.5c-.1-.2-.1-.4-.2-.6 0-.2-.1-.4-.1-.6-.6.6-1.2 1-1.9 1.2s-1.5.3-2.3.3c-.6 0-1.2-.1-1.7-.2s-1-.4-1.4-.7c-.4-.3-.7-.7-.9-1.2-.2-.5-.3-1-.3-1.7s.1-1.3.4-1.8.6-.8 1-1.1c.4-.3.9-.5 1.4-.6l1.5-.3c.5-.1 1-.1 1.5-.2.5 0 1-.1 1.3-.2.4-.1.7-.2.9-.4.2-.2.3-.5.3-.8 0-.4-.1-.7-.2-.9s-.3-.4-.5-.5c-.2-.1-.4-.2-.7-.2-.3 0-.6-.1-.9-.1-.7 0-1.2.1-1.6.4-.4.3-.6.8-.7 1.5h-3.3zm8 2.5c-.1.1-.3.2-.5.3-.2.1-.5.1-.7.2-.3 0-.5.1-.8.1-.3 0-.6.1-.8.1-.3 0-.5.1-.8.2-.3.1-.5.2-.7.3-.2.1-.3.3-.5.5-.1.2-.2.5-.2.8 0 .3.1.6.2.8.1.2.3.4.5.5.2.1.4.2.7.3.3 0 .5.1.8.1.7 0 1.2-.1 1.6-.3.4-.2.6-.5.8-.8.2-.3.3-.6.3-1 0-.3.1-.6.1-.8v-1.3zM177.5 91.5v17.4H174V91.5h3.5zM192.3 91.5l4.1 12 3.8-12h5.4v17.4H202V96.6l-4.3 12.3h-2.9l-4.3-12.2v12.2h-3.6V91.5h5.4zM212.1 105.9c.5.5 1.3.8 2.2.8.7 0 1.3-.2 1.8-.5s.8-.7.9-1.1h3c-.5 1.5-1.2 2.6-2.2 3.2-1 .6-2.2 1-3.7 1-1 0-1.9-.2-2.7-.5-.8-.3-1.5-.8-2-1.4-.6-.6-1-1.3-1.3-2.1-.3-.8-.5-1.7-.5-2.7 0-.9.2-1.8.5-2.6s.7-1.5 1.3-2.1c.6-.6 1.2-1.1 2-1.4.8-.3 1.7-.5 2.6-.5 1.1 0 2 .2 2.8.6s1.5 1 2 1.7.9 1.5 1.1 2.4.3 1.8.2 2.8H211c.3 1.1.6 1.9 1.1 2.4zm3.9-6.7c-.4-.5-1-.7-1.9-.7-.6 0-1 .1-1.4.3-.4.2-.7.4-.9.7-.2.3-.4.6-.5.9-.1.3-.1.6-.2.8h5.6c0-.8-.3-1.5-.7-2zM231.1 107.3c-.4.7-.9 1.2-1.6 1.5-.7.3-1.4.5-2.2.5-.9 0-1.8-.2-2.5-.5s-1.3-.9-1.8-1.5-.8-1.3-1-2.2-.4-1.7-.4-2.5.1-1.7.4-2.4c.2-.8.6-1.5 1-2.1.5-.6 1-1.1 1.7-1.4.7-.4 1.5-.5 2.4-.5.7 0 1.5.2 2.1.5.7.3 1.2.8 1.6 1.4v-6.3h3.5v17.4H231l.1-1.9zm-.1-6.2c-.1-.5-.3-.9-.5-1.3s-.5-.7-.9-.9c-.4-.2-.8-.3-1.4-.3s-1 .1-1.4.3c-.4.2-.7.5-.9.9-.2.4-.4.8-.5 1.3-.1.5-.2 1-.2 1.5s.1 1 .2 1.5.3.9.5 1.3c.3.4.6.7 1 .9s.8.4 1.4.4c.6 0 1-.1 1.4-.3.4-.2.7-.5.9-.9.2-.4.4-.8.5-1.3s.1-1 .1-1.5c-.1-.7-.1-1.2-.2-1.6zM236.9 94.3v-2.9h3.5v2.9h-3.5zm3.5 2v12.6h-3.5V96.3h3.5zM248.9 98.6c-.6 0-1 .1-1.4.4-.4.3-.7.6-.9 1s-.4.8-.5 1.3c-.1.5-.1 1-.1 1.4 0 .5 0 .9.1 1.4.1.5.3.9.5 1.3s.5.7.9.9c.4.2.8.4 1.4.4.8 0 1.5-.2 1.9-.7.4-.5.7-1.1.8-1.9h3.3c-.2 1.7-.9 2.9-1.9 3.8-1.1.9-2.4 1.3-4.1 1.3-.9 0-1.8-.2-2.6-.5s-1.5-.8-2-1.3c-.6-.6-1-1.2-1.3-2-.3-.8-.5-1.7-.5-2.6 0-1 .1-1.9.4-2.7.3-.8.7-1.6 1.3-2.2s1.2-1.1 2-1.4c.8-.3 1.7-.5 2.7-.5.7 0 1.5.1 2.2.3.7.2 1.3.5 1.9.9.5.4 1 .9 1.3 1.5s.5 1.3.6 2.1h-3.4c-.3-1.5-1.1-2.2-2.6-2.2zM256.5 100.2c0-.8.3-1.5.6-2 .4-.5.8-1 1.4-1.3.6-.3 1.2-.6 1.9-.7.7-.1 1.4-.2 2.1-.2.6 0 1.3 0 1.9.1.6.1 1.2.3 1.8.5.5.3 1 .6 1.3 1.1.3.5.5 1.1.5 1.8v6.6c0 .6 0 1.1.1 1.6s.2.9.3 1.2h-3.5c-.1-.2-.1-.4-.2-.6 0-.2-.1-.4-.1-.6-.6.6-1.2 1-1.9 1.2s-1.5.3-2.3.3c-.6 0-1.2-.1-1.7-.2s-1-.4-1.4-.7c-.4-.3-.7-.7-.9-1.2-.2-.5-.3-1-.3-1.7s.1-1.3.4-1.8.6-.8 1-1.1c.4-.3.9-.5 1.4-.6l1.5-.3c.5-.1 1-.1 1.5-.2.5 0 1-.1 1.3-.2.4-.1.7-.2.9-.4.2-.2.3-.5.3-.8 0-.4-.1-.7-.2-.9s-.3-.4-.5-.5c-.2-.1-.4-.2-.7-.2-.3 0-.6-.1-.9-.1-.7 0-1.2.1-1.6.4-.4.3-.6.8-.7 1.5h-3.3zm8 2.5c-.1.1-.3.2-.5.3-.2.1-.5.1-.7.2-.3 0-.5.1-.8.1-.3 0-.6.1-.8.1-.3 0-.5.1-.8.2-.3.1-.5.2-.7.3-.2.1-.3.3-.5.5-.1.2-.2.5-.2.8 0 .3.1.6.2.8.1.2.3.4.5.5.2.1.4.2.7.3.3 0 .5.1.8.1.7 0 1.2-.1 1.6-.3.4-.2.6-.5.8-.8.2-.3.3-.6.3-1 0-.3.1-.6.1-.8v-1.3zM274 91.5v17.4h-3.5V91.5h3.5z"/><g><path class="st0" d="M106.1 120.5c-.2-.4-.5-.7-.9-1-.3-.3-.7-.5-1.2-.6-.4-.2-.9-.2-1.4-.2-.9 0-1.6.2-2.2.5-.6.3-1.1.8-1.5 1.3-.4.6-.6 1.2-.8 1.9-.2.7-.3 1.5-.3 2.2 0 .7.1 1.4.3 2.1.2.7.4 1.3.8 1.9.4.6.9 1 1.5 1.3.6.3 1.3.5 2.2.5 1.2 0 2.1-.4 2.7-1.1s1.1-1.7 1.2-2.8h3.7c-.1 1.1-.3 2.1-.8 2.9-.4.9-.9 1.6-1.6 2.2-.7.6-1.4 1.1-2.3 1.4-.9.3-1.9.5-2.9.5-1.3 0-2.5-.2-3.6-.7s-2-1.1-2.7-1.9c-.7-.8-1.3-1.8-1.7-2.9-.4-1.1-.6-2.3-.6-3.5 0-1.3.2-2.5.6-3.6s1-2.1 1.7-2.9c.7-.8 1.6-1.5 2.7-1.9s2.3-.7 3.6-.7c1 0 1.9.1 2.7.4.9.3 1.6.7 2.3 1.2s1.2 1.2 1.7 2c.4.8.7 1.7.8 2.7h-3.7c.1-.4 0-.8-.3-1.2zM112.5 124.2c.3-.8.7-1.5 1.3-2.1.6-.6 1.2-1 2-1.3.8-.3 1.7-.5 2.7-.5s1.9.2 2.7.5c.8.3 1.5.8 2.1 1.3.6.6 1 1.3 1.3 2.1.3.8.5 1.7.5 2.7 0 1-.2 1.9-.5 2.7-.3.8-.7 1.5-1.3 2.1-.6.6-1.3 1-2.1 1.3-.8.3-1.7.5-2.7.5s-1.9-.2-2.7-.5c-.8-.3-1.5-.8-2-1.3-.6-.6-1-1.3-1.3-2.1-.3-.8-.5-1.7-.5-2.7.1-.9.2-1.9.5-2.7zm3.2 4.2c.1.5.3.9.5 1.3s.5.7.9.9.9.3 1.5.3 1.1-.1 1.5-.3c.4-.2.7-.5.9-.9.2-.4.4-.8.5-1.3.1-.5.1-1 .1-1.5s0-1-.1-1.5-.3-.9-.5-1.3-.6-.7-.9-.9c-.4-.2-.9-.4-1.5-.4s-1.1.1-1.5.4c-.4.2-.7.5-.9.9-.2.4-.4.8-.5 1.3-.1.5-.1 1-.1 1.5-.1.6 0 1.1.1 1.5zM130.2 133.3l-4.3-12.6h3.6l2.7 8.6 2.7-8.6h3.4l-4.3 12.6h-3.8zM143.3 130.2c.5.5 1.3.8 2.2.8.7 0 1.3-.2 1.8-.5s.8-.7.9-1.1h3c-.5 1.5-1.2 2.6-2.2 3.2-1 .7-2.2 1-3.7 1-1 0-1.9-.2-2.7-.5-.8-.3-1.5-.8-2-1.4-.6-.6-1-1.3-1.3-2.1-.3-.8-.5-1.7-.5-2.7 0-.9.2-1.8.5-2.6s.7-1.5 1.3-2.1c.6-.6 1.2-1.1 2-1.4.8-.3 1.7-.5 2.6-.5 1.1 0 2 .2 2.8.6.8.4 1.4 1 2 1.7.5.7.9 1.5 1.1 2.4.2.9.3 1.8.2 2.8h-9.1c.3 1.1.5 1.9 1.1 2.4zm3.9-6.6c-.4-.5-1-.7-1.9-.7-.6 0-1 .1-1.4.3s-.7.4-.9.7c-.2.3-.4.6-.5.9-.1.3-.1.6-.2.8h5.6c0-.9-.3-1.5-.7-2zM156.6 120.7v2.3c.2-.4.4-.8.7-1.1s.6-.6 1-.9c.4-.2.7-.4 1.1-.5.4-.1.8-.2 1.3-.2.2 0 .5 0 .8.1v3.2c-.2 0-.4-.1-.6-.1h-.7c-.6 0-1.2.1-1.6.3s-.8.5-1.1.9c-.3.4-.5.8-.6 1.3-.1.5-.2 1-.2 1.6v5.7h-3.5v-12.6h3.4zM162.4 124.5c0-.8.3-1.5.6-2 .4-.5.8-1 1.4-1.3.6-.3 1.2-.6 1.9-.7.7-.1 1.4-.2 2.1-.2.6 0 1.3 0 1.9.1.6.1 1.2.3 1.8.5.5.3 1 .6 1.3 1.1.3.5.5 1.1.5 1.8v6.6c0 .6 0 1.1.1 1.6s.2.9.3 1.2h-3.5c-.1-.2-.1-.4-.2-.6 0-.2-.1-.4-.1-.6-.6.6-1.2 1-1.9 1.2s-1.5.3-2.3.3c-.6 0-1.2-.1-1.7-.2s-1-.4-1.4-.7c-.4-.3-.7-.7-.9-1.2-.2-.5-.3-1-.3-1.7s.1-1.3.4-1.8.6-.8 1-1.1c.4-.3.9-.5 1.4-.6l1.5-.3c.5-.1 1-.1 1.5-.2.5 0 1-.1 1.3-.2.4-.1.7-.2.9-.4s.3-.5.3-.8c0-.4-.1-.7-.2-.9s-.3-.4-.5-.5c-.2-.1-.4-.2-.7-.2-.3 0-.6-.1-.9-.1-.7 0-1.2.1-1.6.4-.4.3-.6.8-.7 1.5h-3.3zm8 2.6c-.1.1-.3.2-.5.3-.2.1-.5.1-.7.2-.3 0-.5.1-.8.1-.3 0-.6.1-.8.1-.3 0-.5.1-.8.2s-.5.2-.7.3-.3.3-.5.5c-.1.2-.2.5-.2.8 0 .3.1.6.2.8.1.2.3.4.5.5.2.1.4.2.7.3s.5.1.8.1c.7 0 1.2-.1 1.6-.3.4-.2.6-.5.8-.8.2-.3.3-.6.3-1 0-.3.1-.6.1-.8v-1.3zM188.2 134.2c-.1.6-.4 1.3-.9 1.8-.5.6-1.1 1-2 1.4-.9.4-2 .6-3.5.6-.6 0-1.2-.1-1.9-.2s-1.2-.4-1.8-.7c-.5-.3-1-.7-1.3-1.3s-.5-1.1-.6-1.8h3.4c.2.6.5 1.1 1 1.4.5.3 1 .4 1.6.4 1 0 1.7-.3 2.1-.9.4-.6.7-1.3.6-2.2V131c-.4.7-.9 1.2-1.6 1.5-.7.3-1.4.5-2.2.5-.9 0-1.8-.2-2.4-.5-.7-.3-1.2-.8-1.7-1.4-.4-.6-.8-1.3-1-2-.2-.8-.3-1.6-.3-2.4 0-.8.1-1.6.4-2.4.2-.8.6-1.4 1-2 .5-.6 1-1 1.7-1.4.7-.3 1.5-.5 2.3-.5.8 0 1.6.2 2.2.5s1.1.8 1.6 1.6v-1.7h3.3v11.8c.3.4.2.9 0 1.6zm-4.7-4.2c.4-.2.7-.5.9-.8.2-.3.4-.7.5-1.1s.2-.8.2-1.3 0-1-.1-1.5-.3-.9-.5-1.2-.5-.6-.9-.9c-.4-.2-.8-.3-1.4-.3-.5 0-.9.1-1.3.3-.3.2-.6.5-.9.8-.2.3-.4.7-.5 1.1-.1.4-.2.9-.2 1.4 0 .5 0 .9.1 1.4s.2.8.5 1.2c.2.4.5.6.9.9.4.2.8.3 1.3.3.6 0 1-.1 1.4-.3zM194.7 130.2c.5.5 1.3.8 2.2.8.7 0 1.3-.2 1.8-.5s.8-.7.9-1.1h3c-.5 1.5-1.2 2.6-2.2 3.2-1 .7-2.2 1-3.7 1-1 0-1.9-.2-2.7-.5-.8-.3-1.5-.8-2-1.4-.6-.6-1-1.3-1.3-2.1-.3-.8-.5-1.7-.5-2.7 0-.9.2-1.8.5-2.6s.7-1.5 1.3-2.1c.6-.6 1.2-1.1 2-1.4.8-.3 1.7-.5 2.6-.5 1.1 0 2 .2 2.8.6s1.5 1 2 1.7.9 1.5 1.1 2.4c.2.9.3 1.8.2 2.8h-9.1c.3 1.1.6 1.9 1.1 2.4zm3.9-6.6c-.4-.5-1-.7-1.9-.7-.6 0-1 .1-1.4.3-.4.2-.7.4-.9.7-.2.3-.4.6-.5.9-.1.3-.1.6-.2.8h5.6c0-.9-.3-1.5-.7-2z"/></g></svg>