<?xml version="1.0" encoding="utf-8"?>
<!-- Generator: Adobe Illustrator 25.4.6, SVG Export Plug-In . SVG Version: 6.00 Build 0)  -->
<svg version="1.1" id="Layer_1" xmlns="http://www.w3.org/2000/svg" xmlns:xlink="http://www.w3.org/1999/xlink" x="0px" y="0px"
	 viewBox="0 0 300 250" style="enable-background:new 0 0 300 250;" xml:space="preserve">
<g>
	<path d="M67.8,82.2l7.5,20h-4.6l-1.5-4.5h-7.5l-1.6,4.5h-4.4l7.6-20H67.8z M68,94.5l-2.5-7.3h-0.1l-2.6,7.3H68z"/>
	<path d="M85.6,82.2c1.3,0,2.5,0.2,3.6,0.6c1.1,0.4,2.1,1,2.9,1.8s1.4,1.8,1.9,3.1c0.5,1.2,0.7,2.7,0.7,4.3c0,1.5-0.2,2.8-0.6,4
		s-0.9,2.3-1.7,3.2s-1.7,1.6-2.8,2.1c-1.1,0.5-2.5,0.8-4,0.8H77v-20H85.6z M85.3,98.5c0.6,0,1.3-0.1,1.8-0.3c0.6-0.2,1.1-0.5,1.6-1
		c0.5-0.5,0.8-1.1,1.1-1.9c0.3-0.8,0.4-1.7,0.4-2.8c0-1-0.1-1.9-0.3-2.7s-0.5-1.5-1-2.1c-0.4-0.6-1-1-1.8-1.3s-1.6-0.5-2.7-0.5h-3.1
		v12.6H85.3z"/>
	<path d="M107.7,82.2l7.5,20h-4.6l-1.5-4.5h-7.5l-1.6,4.5h-4.4l7.6-20H107.7z M107.9,94.5l-2.5-7.3h-0.1l-2.6,7.3H107.9z"/>
	<path d="M133.3,82.2c1.3,0,2.5,0.2,3.6,0.6c1.1,0.4,2.1,1,2.9,1.8s1.4,1.8,1.9,3.1c0.5,1.2,0.7,2.7,0.7,4.3c0,1.5-0.2,2.8-0.6,4
		s-0.9,2.3-1.7,3.2s-1.7,1.6-2.8,2.1c-1.1,0.5-2.5,0.8-4,0.8h-8.6v-20H133.3z M133,98.5c0.6,0,1.3-0.1,1.8-0.3
		c0.6-0.2,1.1-0.5,1.6-1c0.5-0.5,0.8-1.1,1.1-1.9c0.3-0.8,0.4-1.7,0.4-2.8c0-1-0.1-1.9-0.3-2.7s-0.5-1.5-1-2.1c-0.4-0.6-1-1-1.8-1.3
		s-1.6-0.5-2.7-0.5h-3.1v12.6H133z"/>
	<path d="M145.1,85.5v-3.3h4v3.3H145.1z M149.1,87.7v14.5h-4V87.7H149.1z"/>
	<path d="M155.6,98.6c0.2,0.3,0.4,0.6,0.7,0.8c0.3,0.2,0.6,0.3,1,0.4c0.4,0.1,0.7,0.1,1.1,0.1c0.3,0,0.6,0,0.9-0.1
		c0.3-0.1,0.6-0.2,0.8-0.3c0.3-0.1,0.5-0.3,0.6-0.6s0.3-0.5,0.3-0.9c0-0.6-0.4-1-1.2-1.3c-0.8-0.3-1.9-0.6-3.3-0.9
		c-0.6-0.1-1.1-0.3-1.7-0.5c-0.6-0.2-1-0.4-1.5-0.7c-0.4-0.3-0.8-0.7-1-1.1c-0.3-0.4-0.4-1-0.4-1.6c0-0.9,0.2-1.7,0.5-2.3
		c0.4-0.6,0.8-1.1,1.4-1.4c0.6-0.3,1.3-0.6,2-0.7c0.7-0.1,1.5-0.2,2.3-0.2s1.5,0.1,2.3,0.2c0.7,0.1,1.4,0.4,2,0.8
		c0.6,0.4,1.1,0.8,1.4,1.4c0.4,0.6,0.6,1.3,0.7,2.2h-3.8c-0.1-0.8-0.3-1.3-0.9-1.6s-1.1-0.4-1.8-0.4c-0.2,0-0.5,0-0.7,0
		c-0.3,0-0.5,0.1-0.7,0.2c-0.2,0.1-0.4,0.2-0.5,0.4c-0.1,0.2-0.2,0.4-0.2,0.7c0,0.4,0.1,0.6,0.4,0.9s0.6,0.4,1,0.5
		c0.4,0.1,0.9,0.3,1.4,0.4c0.5,0.1,1.1,0.2,1.7,0.4c0.6,0.1,1.1,0.3,1.7,0.5c0.5,0.2,1,0.4,1.5,0.7c0.4,0.3,0.8,0.7,1,1.1
		c0.3,0.5,0.4,1,0.4,1.7c0,1-0.2,1.8-0.6,2.4c-0.4,0.6-0.9,1.2-1.5,1.6c-0.6,0.4-1.3,0.7-2.1,0.8c-0.8,0.2-1.6,0.2-2.4,0.2
		c-0.8,0-1.7-0.1-2.5-0.3c-0.8-0.2-1.5-0.4-2.1-0.8s-1.1-0.9-1.5-1.6c-0.4-0.6-0.6-1.5-0.7-2.4h3.8C155.3,98,155.4,98.3,155.6,98.6z
		"/>
	<path d="M167.1,92.2c0.1-0.9,0.3-1.7,0.7-2.3c0.4-0.6,0.9-1.1,1.6-1.5c0.6-0.4,1.3-0.6,2.1-0.8c0.8-0.2,1.6-0.2,2.4-0.2
		c0.7,0,1.5,0.1,2.2,0.2c0.7,0.1,1.4,0.3,2,0.6c0.6,0.3,1.1,0.7,1.5,1.2c0.4,0.5,0.6,1.2,0.6,2.1V99c0,0.7,0,1.3,0.1,1.9
		c0.1,0.6,0.2,1,0.4,1.3h-4c-0.1-0.2-0.1-0.5-0.2-0.7c0-0.2-0.1-0.5-0.1-0.7c-0.6,0.7-1.4,1.1-2.2,1.4s-1.7,0.4-2.6,0.4
		c-0.7,0-1.3-0.1-1.9-0.3s-1.1-0.4-1.6-0.8s-0.8-0.8-1-1.3c-0.3-0.5-0.4-1.2-0.4-1.9c0-0.8,0.1-1.5,0.4-2c0.3-0.5,0.7-1,1.1-1.3
		c0.5-0.3,1-0.6,1.6-0.7c0.6-0.2,1.2-0.3,1.8-0.4c0.6-0.1,1.2-0.2,1.8-0.2c0.6-0.1,1.1-0.1,1.5-0.3c0.4-0.1,0.8-0.3,1.1-0.5
		c0.3-0.2,0.4-0.5,0.4-0.9c0-0.4-0.1-0.8-0.2-1c-0.1-0.3-0.3-0.4-0.6-0.6s-0.5-0.2-0.8-0.3c-0.3,0-0.6-0.1-1-0.1
		c-0.8,0-1.4,0.2-1.8,0.5c-0.4,0.3-0.7,0.9-0.8,1.7H167.1z M176.3,95.1c-0.2,0.1-0.4,0.3-0.6,0.4s-0.5,0.2-0.8,0.2
		c-0.3,0.1-0.6,0.1-0.9,0.1s-0.6,0.1-1,0.1c-0.3,0.1-0.6,0.1-0.9,0.2c-0.3,0.1-0.5,0.2-0.8,0.4c-0.2,0.2-0.4,0.4-0.5,0.6
		c-0.1,0.2-0.2,0.6-0.2,0.9c0,0.4,0.1,0.7,0.2,0.9c0.1,0.2,0.3,0.4,0.5,0.6c0.2,0.1,0.5,0.2,0.8,0.3s0.6,0.1,0.9,0.1
		c0.8,0,1.4-0.1,1.8-0.4c0.4-0.3,0.7-0.6,1-0.9c0.2-0.4,0.3-0.7,0.4-1.1c0-0.4,0.1-0.7,0.1-0.9V95.1z"/>
	<path d="M187.3,82.2v7.3h0.1c0.5-0.7,1.1-1.3,2-1.6c0.8-0.3,1.7-0.5,2.6-0.5c0.7,0,1.4,0.1,2.2,0.4c0.7,0.3,1.3,0.8,1.9,1.4
		c0.6,0.6,1,1.4,1.4,2.4c0.4,1,0.5,2.1,0.5,3.4c0,1.3-0.2,2.5-0.5,3.4c-0.4,1-0.8,1.8-1.4,2.4c-0.6,0.6-1.2,1.1-1.9,1.4
		c-0.7,0.3-1.4,0.4-2.2,0.4c-1.1,0-2-0.2-2.9-0.5s-1.5-0.9-1.9-1.7h-0.1v1.8h-3.8v-20H187.3z M193.8,93.2c-0.1-0.6-0.3-1.1-0.6-1.5
		c-0.3-0.4-0.6-0.8-1-1s-0.9-0.4-1.5-0.4c-0.6,0-1.1,0.1-1.5,0.4s-0.8,0.6-1.1,1c-0.3,0.4-0.5,0.9-0.6,1.5c-0.1,0.6-0.2,1.1-0.2,1.8
		c0,0.6,0.1,1.2,0.2,1.7c0.1,0.6,0.3,1.1,0.6,1.5c0.3,0.4,0.6,0.8,1.1,1s0.9,0.4,1.5,0.4c0.6,0,1.1-0.1,1.5-0.4s0.8-0.6,1-1
		c0.3-0.4,0.5-0.9,0.6-1.5c0.1-0.6,0.2-1.1,0.2-1.7C194,94.4,193.9,93.8,193.8,93.2z"/>
	<path d="M200.6,85.5v-3.3h4v3.3H200.6z M204.5,87.7v14.5h-4V87.7H204.5z"/>
	<path d="M211.8,82.2v20h-4v-20H211.8z"/>
	<path d="M215,85.5v-3.3h4v3.3H215z M219,87.7v14.5h-4V87.7H219z"/>
	<path d="M230.1,87.7v2.7h-2.9v7.2c0,0.7,0.1,1.1,0.3,1.3c0.2,0.2,0.7,0.3,1.3,0.3c0.2,0,0.4,0,0.6,0c0.2,0,0.4,0,0.6-0.1v3.1
		c-0.3,0.1-0.7,0.1-1.1,0.1s-0.8,0-1.2,0c-0.6,0-1.2,0-1.8-0.1s-1-0.2-1.5-0.5c-0.4-0.2-0.8-0.6-1-1c-0.2-0.4-0.4-1-0.4-1.8v-8.5
		h-2.4v-2.7h2.4v-4.3h4v4.3H230.1z"/>
	<path d="M237.3,106.5c-0.8,0.5-1.8,0.8-3.2,0.8c-0.4,0-0.8,0-1.2,0c-0.4,0-0.8-0.1-1.2-0.1v-3.3c0.4,0,0.8,0.1,1.1,0.1
		c0.4,0,0.8,0,1.2,0c0.5-0.1,0.9-0.3,1.2-0.6s0.4-0.7,0.4-1.2c0-0.3-0.1-0.6-0.2-0.9l-5.1-13.6h4.2l3.3,9.9h0.1l3.2-9.9h4.1l-6,16.3
		C238.7,105.2,238.1,106,237.3,106.5z"/>
</g>
<g>
	<path d="M33.7,111.2v20h-4.4v-20H33.7z"/>
	<path d="M40.9,116.8v2H41c0.5-0.8,1.2-1.5,2-1.8c0.8-0.4,1.6-0.6,2.5-0.6c1.1,0,1.9,0.1,2.6,0.4c0.7,0.3,1.2,0.7,1.6,1.2
		c0.4,0.5,0.7,1.1,0.8,1.9c0.2,0.7,0.2,1.6,0.2,2.5v8.9h-4v-8.2c0-1.2-0.2-2.1-0.6-2.7c-0.4-0.6-1-0.9-2-0.9c-1.1,0-1.9,0.3-2.4,1
		s-0.7,1.7-0.7,3.2v7.6h-4v-14.5H40.9z"/>
	<path d="M60.6,119.4c-0.6,0-1.2,0.1-1.6,0.4c-0.4,0.3-0.8,0.7-1,1.1c-0.3,0.5-0.5,1-0.6,1.5c-0.1,0.6-0.2,1.1-0.2,1.6
		c0,0.5,0.1,1.1,0.2,1.6c0.1,0.5,0.3,1,0.5,1.5s0.6,0.8,1,1.1c0.4,0.3,1,0.4,1.6,0.4c1,0,1.7-0.3,2.2-0.8c0.5-0.5,0.8-1.2,1-2.1h3.8
		c-0.3,1.9-1,3.4-2.2,4.4c-1.2,1-2.8,1.5-4.7,1.5c-1.1,0-2.1-0.2-3-0.5c-0.9-0.4-1.7-0.9-2.3-1.5c-0.6-0.7-1.1-1.4-1.5-2.3
		c-0.4-0.9-0.5-1.9-0.5-3c0-1.1,0.2-2.2,0.5-3.1c0.3-1,0.8-1.8,1.4-2.5c0.6-0.7,1.4-1.2,2.3-1.6c0.9-0.4,2-0.6,3.1-0.6
		c0.9,0,1.7,0.1,2.5,0.3c0.8,0.2,1.5,0.6,2.1,1c0.6,0.5,1.1,1,1.5,1.7c0.4,0.7,0.6,1.5,0.7,2.4h-3.9
		C63.3,120.2,62.3,119.4,60.6,119.4z"/>
	<path d="M69.9,120.9c0.4-0.9,0.9-1.7,1.5-2.4c0.7-0.7,1.4-1.2,2.4-1.5c0.9-0.4,1.9-0.5,3.1-0.5c1.1,0,2.2,0.2,3.1,0.5
		c0.9,0.4,1.7,0.9,2.4,1.5c0.7,0.7,1.2,1.5,1.5,2.4c0.4,0.9,0.5,2,0.5,3.1c0,1.2-0.2,2.2-0.5,3.1c-0.4,0.9-0.9,1.7-1.5,2.4
		c-0.7,0.7-1.4,1.2-2.4,1.5c-0.9,0.4-2,0.5-3.1,0.5c-1.1,0-2.2-0.2-3.1-0.5s-1.7-0.9-2.4-1.5c-0.7-0.7-1.2-1.5-1.5-2.4
		c-0.4-0.9-0.5-2-0.5-3.1C69.3,122.9,69.5,121.8,69.9,120.9z M73.5,125.7c0.1,0.6,0.3,1,0.6,1.5c0.3,0.4,0.6,0.8,1.1,1
		c0.4,0.3,1,0.4,1.7,0.4s1.2-0.1,1.7-0.4c0.5-0.3,0.8-0.6,1.1-1c0.3-0.4,0.5-0.9,0.6-1.5c0.1-0.5,0.2-1.1,0.2-1.7
		c0-0.6-0.1-1.1-0.2-1.7c-0.1-0.6-0.3-1.1-0.6-1.5c-0.3-0.4-0.6-0.8-1.1-1s-1-0.4-1.7-0.4s-1.2,0.1-1.7,0.4c-0.4,0.3-0.8,0.6-1.1,1
		c-0.3,0.4-0.5,0.9-0.6,1.5s-0.2,1.1-0.2,1.7C73.3,124.6,73.4,125.2,73.5,125.7z"/>
	<path d="M90.8,116.8v2h0.1c0.5-0.7,1.2-1.3,1.9-1.7s1.6-0.6,2.5-0.6c0.9,0,1.8,0.2,2.5,0.5c0.8,0.4,1.3,1,1.7,1.9
		c0.4-0.6,1-1.2,1.8-1.7c0.7-0.5,1.6-0.7,2.6-0.7c0.8,0,1.5,0.1,2.1,0.3c0.7,0.2,1.2,0.5,1.7,0.9s0.8,0.9,1.1,1.6
		c0.3,0.7,0.4,1.5,0.4,2.4v9.7h-4V123c0-0.5,0-0.9-0.1-1.4c0-0.4-0.1-0.8-0.3-1.1s-0.4-0.6-0.7-0.8c-0.3-0.2-0.8-0.3-1.3-0.3
		s-1,0.1-1.4,0.3c-0.3,0.2-0.6,0.5-0.8,0.8c-0.2,0.3-0.3,0.7-0.4,1.2c-0.1,0.4-0.1,0.9-0.1,1.3v8.1h-4v-8.1c0-0.4,0-0.9,0-1.3
		s-0.1-0.8-0.2-1.2c-0.1-0.4-0.4-0.6-0.7-0.9c-0.3-0.2-0.8-0.3-1.4-0.3c-0.2,0-0.4,0-0.7,0.1s-0.6,0.2-0.9,0.5
		c-0.3,0.2-0.5,0.6-0.7,1c-0.2,0.4-0.3,1-0.3,1.7v8.4h-4v-14.5H90.8z"/>
	<path d="M116.5,127.8c0.6,0.6,1.5,0.9,2.6,0.9c0.8,0,1.5-0.2,2.1-0.6c0.6-0.4,0.9-0.8,1.1-1.3h3.5c-0.6,1.7-1.4,3-2.6,3.7
		c-1.2,0.7-2.6,1.1-4.2,1.1c-1.1,0-2.2-0.2-3.1-0.5c-0.9-0.4-1.7-0.9-2.3-1.6s-1.1-1.5-1.5-2.4c-0.3-0.9-0.5-2-0.5-3.1
		c0-1.1,0.2-2.1,0.5-3c0.4-0.9,0.9-1.7,1.5-2.4c0.7-0.7,1.4-1.2,2.3-1.6c0.9-0.4,1.9-0.6,3-0.6c1.2,0,2.3,0.2,3.2,0.7
		c0.9,0.5,1.7,1.1,2.3,1.9c0.6,0.8,1,1.7,1.3,2.7c0.3,1,0.4,2.1,0.3,3.2h-10.4C115.6,126.2,115.9,127.2,116.5,127.8z M121,120.1
		c-0.5-0.5-1.2-0.8-2.2-0.8c-0.6,0-1.2,0.1-1.6,0.3c-0.4,0.2-0.8,0.5-1,0.8s-0.4,0.7-0.5,1c-0.1,0.4-0.2,0.7-0.2,1h6.5
		C121.8,121.4,121.5,120.7,121,120.1z"/>
	<path d="M145.5,111.2c1.2,0,2.3,0.2,3.2,0.5c0.9,0.4,1.6,0.8,2.1,1.4c0.6,0.6,1,1.3,1.2,2c0.3,0.8,0.4,1.6,0.4,2.4
		c0,0.8-0.1,1.6-0.4,2.4c-0.3,0.8-0.7,1.5-1.2,2.1c-0.6,0.6-1.3,1.1-2.1,1.4c-0.9,0.4-1.9,0.5-3.2,0.5h-4.6v7.2h-4.4v-20H145.5z
		 M144.3,120.6c0.5,0,1,0,1.5-0.1s0.9-0.2,1.2-0.4c0.4-0.2,0.6-0.5,0.9-0.9s0.3-0.9,0.3-1.5c0-0.6-0.1-1.1-0.3-1.5s-0.5-0.7-0.9-0.9
		c-0.4-0.2-0.8-0.4-1.2-0.4s-1-0.1-1.5-0.1h-3.4v6H144.3z"/>
	<path d="M158.6,116.8v2.7h0.1c0.2-0.4,0.4-0.9,0.8-1.2c0.3-0.4,0.7-0.7,1.1-1c0.4-0.3,0.8-0.5,1.3-0.6c0.5-0.1,1-0.2,1.5-0.2
		c0.3,0,0.6,0,0.9,0.1v3.7c-0.2,0-0.4-0.1-0.7-0.1c-0.3,0-0.5,0-0.8,0c-0.7,0-1.3,0.1-1.8,0.4c-0.5,0.2-0.9,0.6-1.2,1
		c-0.3,0.4-0.5,0.9-0.7,1.5c-0.1,0.6-0.2,1.2-0.2,1.8v6.5h-4v-14.5H158.6z"/>
	<path d="M165.3,120.9c0.4-0.9,0.9-1.7,1.5-2.4c0.7-0.7,1.4-1.2,2.4-1.5c0.9-0.4,1.9-0.5,3.1-0.5s2.2,0.2,3.1,0.5
		c0.9,0.4,1.7,0.9,2.4,1.5c0.7,0.7,1.2,1.5,1.5,2.4c0.4,0.9,0.5,2,0.5,3.1c0,1.2-0.2,2.2-0.5,3.1s-0.9,1.7-1.5,2.4
		c-0.7,0.7-1.4,1.2-2.4,1.5s-2,0.5-3.1,0.5s-2.2-0.2-3.1-0.5c-0.9-0.4-1.7-0.9-2.4-1.5c-0.7-0.7-1.2-1.5-1.5-2.4s-0.5-2-0.5-3.1
		C164.7,122.9,164.9,121.8,165.3,120.9z M168.9,125.7c0.1,0.6,0.3,1,0.6,1.5c0.3,0.4,0.6,0.8,1.1,1c0.4,0.3,1,0.4,1.7,0.4
		s1.2-0.1,1.7-0.4c0.5-0.3,0.8-0.6,1.1-1s0.5-0.9,0.6-1.5c0.1-0.5,0.2-1.1,0.2-1.7c0-0.6-0.1-1.1-0.2-1.7c-0.1-0.6-0.3-1.1-0.6-1.5
		c-0.3-0.4-0.6-0.8-1.1-1c-0.5-0.3-1-0.4-1.7-0.4s-1.2,0.1-1.7,0.4c-0.4,0.3-0.8,0.6-1.1,1c-0.3,0.4-0.5,0.9-0.6,1.5
		s-0.2,1.1-0.2,1.7C168.7,124.6,168.8,125.2,168.9,125.7z"/>
	<path d="M190.2,116.8v2.7h-2.9v7.2c0,0.7,0.1,1.1,0.3,1.3c0.2,0.2,0.7,0.3,1.3,0.3c0.2,0,0.4,0,0.6,0c0.2,0,0.4,0,0.6-0.1v3.1
		c-0.3,0.1-0.7,0.1-1.1,0.1c-0.4,0-0.8,0-1.2,0c-0.6,0-1.2,0-1.8-0.1s-1-0.2-1.5-0.5c-0.4-0.2-0.8-0.6-1-1c-0.2-0.4-0.4-1-0.4-1.8
		v-8.5h-2.4v-2.7h2.4v-4.3h4v4.3H190.2z"/>
	<path d="M196.4,127.8c0.6,0.6,1.5,0.9,2.6,0.9c0.8,0,1.5-0.2,2.1-0.6c0.6-0.4,0.9-0.8,1.1-1.3h3.5c-0.6,1.7-1.4,3-2.6,3.7
		c-1.2,0.7-2.6,1.1-4.2,1.1c-1.1,0-2.2-0.2-3.1-0.5c-0.9-0.4-1.7-0.9-2.3-1.6s-1.1-1.5-1.5-2.4c-0.3-0.9-0.5-2-0.5-3.1
		c0-1.1,0.2-2.1,0.5-3c0.4-0.9,0.9-1.7,1.5-2.4c0.7-0.7,1.4-1.2,2.3-1.6c0.9-0.4,1.9-0.6,3-0.6c1.2,0,2.3,0.2,3.2,0.7
		c0.9,0.5,1.7,1.1,2.3,1.9s1,1.7,1.3,2.7c0.3,1,0.4,2.1,0.3,3.2h-10.4C195.5,126.2,195.8,127.2,196.4,127.8z M200.9,120.1
		c-0.5-0.5-1.2-0.8-2.2-0.8c-0.6,0-1.2,0.1-1.6,0.3c-0.4,0.2-0.8,0.5-1,0.8s-0.4,0.7-0.5,1c-0.1,0.4-0.2,0.7-0.2,1h6.5
		C201.7,121.4,201.4,120.7,200.9,120.1z"/>
	<path d="M215.1,119.4c-0.6,0-1.2,0.1-1.6,0.4c-0.4,0.3-0.8,0.7-1,1.1c-0.3,0.5-0.5,1-0.6,1.5c-0.1,0.6-0.2,1.1-0.2,1.6
		c0,0.5,0.1,1.1,0.2,1.6c0.1,0.5,0.3,1,0.5,1.5s0.6,0.8,1,1.1c0.4,0.3,1,0.4,1.6,0.4c1,0,1.7-0.3,2.2-0.8c0.5-0.5,0.8-1.2,1-2.1h3.8
		c-0.3,1.9-1,3.4-2.2,4.4c-1.2,1-2.8,1.5-4.7,1.5c-1.1,0-2.1-0.2-3-0.5c-0.9-0.4-1.7-0.9-2.3-1.5s-1.1-1.4-1.5-2.3s-0.5-1.9-0.5-3
		c0-1.1,0.2-2.2,0.5-3.1c0.3-1,0.8-1.8,1.4-2.5c0.6-0.7,1.4-1.2,2.3-1.6c0.9-0.4,2-0.6,3.1-0.6c0.9,0,1.7,0.1,2.5,0.3
		c0.8,0.2,1.5,0.6,2.1,1c0.6,0.5,1.1,1,1.5,1.7c0.4,0.7,0.6,1.5,0.7,2.4h-3.9C217.8,120.2,216.8,119.4,215.1,119.4z"/>
	<path d="M232.2,116.8v2.7h-2.9v7.2c0,0.7,0.1,1.1,0.3,1.3c0.2,0.2,0.7,0.3,1.3,0.3c0.2,0,0.4,0,0.6,0c0.2,0,0.4,0,0.6-0.1v3.1
		c-0.3,0.1-0.7,0.1-1.1,0.1c-0.4,0-0.8,0-1.2,0c-0.6,0-1.2,0-1.8-0.1s-1-0.2-1.5-0.5c-0.4-0.2-0.8-0.6-1-1c-0.2-0.4-0.4-1-0.4-1.8
		v-8.5h-2.4v-2.7h2.4v-4.3h4v4.3H232.2z"/>
	<path d="M234.2,114.5v-3.3h4v3.3H234.2z M238.2,116.8v14.5h-4v-14.5H238.2z"/>
	<path d="M241.4,120.9c0.4-0.9,0.9-1.7,1.5-2.4c0.7-0.7,1.4-1.2,2.4-1.5c0.9-0.4,1.9-0.5,3.1-0.5s2.2,0.2,3.1,0.5
		c0.9,0.4,1.7,0.9,2.4,1.5c0.7,0.7,1.2,1.5,1.5,2.4c0.4,0.9,0.5,2,0.5,3.1c0,1.2-0.2,2.2-0.5,3.1s-0.9,1.7-1.5,2.4
		c-0.7,0.7-1.4,1.2-2.4,1.5s-2,0.5-3.1,0.5s-2.2-0.2-3.1-0.5c-0.9-0.4-1.7-0.9-2.4-1.5c-0.7-0.7-1.2-1.5-1.5-2.4s-0.5-2-0.5-3.1
		C240.9,122.9,241.1,121.8,241.4,120.9z M245.1,125.7c0.1,0.6,0.3,1,0.6,1.5c0.3,0.4,0.6,0.8,1.1,1c0.4,0.3,1,0.4,1.7,0.4
		s1.2-0.1,1.7-0.4c0.5-0.3,0.8-0.6,1.1-1s0.5-0.9,0.6-1.5c0.1-0.5,0.2-1.1,0.2-1.7c0-0.6-0.1-1.1-0.2-1.7c-0.1-0.6-0.3-1.1-0.6-1.5
		c-0.3-0.4-0.6-0.8-1.1-1c-0.5-0.3-1-0.4-1.7-0.4s-1.2,0.1-1.7,0.4c-0.4,0.3-0.8,0.6-1.1,1c-0.3,0.4-0.5,0.9-0.6,1.5
		s-0.2,1.1-0.2,1.7C244.9,124.6,244.9,125.2,245.1,125.7z"/>
	<path d="M262.2,116.8v2h0.1c0.5-0.8,1.2-1.5,2-1.8c0.8-0.4,1.6-0.6,2.5-0.6c1.1,0,1.9,0.1,2.6,0.4c0.7,0.3,1.2,0.7,1.6,1.2
		c0.4,0.5,0.7,1.1,0.8,1.9c0.2,0.7,0.2,1.6,0.2,2.5v8.9h-4v-8.2c0-1.2-0.2-2.1-0.6-2.7s-1-0.9-2-0.9c-1.1,0-1.9,0.3-2.4,1
		s-0.7,1.7-0.7,3.2v7.6h-4v-14.5H262.2z"/>
</g>
<g>
	<path d="M90.7,140.2v20h-4.4v-20H90.7z"/>
	<path d="M97.9,145.8v2H98c0.5-0.8,1.2-1.5,2-1.8c0.8-0.4,1.6-0.6,2.5-0.6c1.1,0,1.9,0.1,2.6,0.4c0.7,0.3,1.2,0.7,1.6,1.2
		c0.4,0.5,0.7,1.1,0.8,1.9c0.2,0.7,0.2,1.6,0.2,2.4v8.9h-4v-8.2c0-1.2-0.2-2.1-0.6-2.7c-0.4-0.6-1-0.9-2-0.9c-1.1,0-1.9,0.3-2.4,1
		c-0.5,0.6-0.7,1.7-0.7,3.2v7.6h-4v-14.5H97.9z"/>
	<path d="M114.1,156.6c0.2,0.3,0.4,0.6,0.7,0.8c0.3,0.2,0.6,0.3,1,0.4c0.4,0.1,0.7,0.1,1.1,0.1c0.3,0,0.6,0,0.9-0.1s0.6-0.2,0.8-0.3
		c0.3-0.1,0.5-0.3,0.6-0.6c0.2-0.2,0.3-0.5,0.3-0.9c0-0.6-0.4-1-1.2-1.3c-0.8-0.3-1.9-0.6-3.3-0.9c-0.6-0.1-1.1-0.3-1.7-0.5
		c-0.6-0.2-1-0.4-1.5-0.7c-0.4-0.3-0.8-0.7-1-1.1c-0.3-0.4-0.4-1-0.4-1.6c0-0.9,0.2-1.7,0.5-2.3c0.4-0.6,0.8-1.1,1.4-1.4
		c0.6-0.3,1.3-0.6,2-0.7c0.7-0.1,1.5-0.2,2.3-0.2c0.8,0,1.5,0.1,2.3,0.2c0.7,0.1,1.4,0.4,2,0.8c0.6,0.4,1.1,0.8,1.4,1.4
		c0.4,0.6,0.6,1.3,0.7,2.2h-3.8c-0.1-0.8-0.3-1.3-0.9-1.6c-0.5-0.3-1.1-0.4-1.8-0.4c-0.2,0-0.5,0-0.7,0c-0.3,0-0.5,0.1-0.7,0.2
		c-0.2,0.1-0.4,0.2-0.5,0.4c-0.1,0.2-0.2,0.4-0.2,0.7c0,0.4,0.1,0.6,0.4,0.9c0.3,0.2,0.6,0.4,1,0.5c0.4,0.1,0.9,0.3,1.4,0.4
		c0.5,0.1,1.1,0.2,1.7,0.4c0.6,0.1,1.1,0.3,1.7,0.5c0.6,0.2,1,0.4,1.5,0.7c0.4,0.3,0.8,0.7,1,1.1c0.3,0.5,0.4,1,0.4,1.7
		c0,1-0.2,1.8-0.6,2.4c-0.4,0.6-0.9,1.2-1.5,1.6c-0.6,0.4-1.3,0.7-2.1,0.8c-0.8,0.2-1.6,0.2-2.4,0.2c-0.8,0-1.7-0.1-2.5-0.3
		s-1.5-0.4-2.1-0.8c-0.6-0.4-1.1-0.9-1.5-1.6c-0.4-0.6-0.6-1.5-0.7-2.4h3.8C113.8,156,113.9,156.3,114.1,156.6z"/>
	<path d="M135.6,160.2v-2h-0.1c-0.5,0.8-1.2,1.4-2,1.8c-0.8,0.4-1.6,0.6-2.5,0.6c-1.1,0-1.9-0.1-2.6-0.4c-0.7-0.3-1.2-0.7-1.6-1.2
		c-0.4-0.5-0.7-1.1-0.8-1.9c-0.2-0.7-0.2-1.6-0.2-2.5v-8.9h4v8.2c0,1.2,0.2,2.1,0.6,2.7s1,0.9,2,0.9c1.1,0,1.9-0.3,2.4-1
		c0.5-0.6,0.7-1.7,0.7-3.2v-7.6h4v14.5H135.6z"/>
	<path d="M146.1,145.8v2.7h0.1c0.2-0.4,0.4-0.9,0.8-1.2c0.3-0.4,0.7-0.7,1.1-1c0.4-0.3,0.8-0.5,1.3-0.6s1-0.2,1.5-0.2
		c0.3,0,0.6,0,0.9,0.1v3.7c-0.2,0-0.4-0.1-0.7-0.1c-0.3,0-0.5,0-0.8,0c-0.7,0-1.3,0.1-1.8,0.4c-0.5,0.2-0.9,0.6-1.2,1
		c-0.3,0.4-0.5,0.9-0.7,1.5c-0.1,0.6-0.2,1.2-0.2,1.8v6.5h-4v-14.5H146.1z"/>
	<path d="M153.1,150.2c0.1-0.9,0.3-1.7,0.7-2.3c0.4-0.6,0.9-1.1,1.6-1.5c0.6-0.4,1.3-0.6,2.1-0.8c0.8-0.2,1.6-0.2,2.4-0.2
		c0.7,0,1.5,0.1,2.2,0.2c0.7,0.1,1.4,0.3,2,0.6c0.6,0.3,1.1,0.7,1.5,1.2s0.6,1.2,0.6,2.1v7.5c0,0.7,0,1.3,0.1,1.9
		c0.1,0.6,0.2,1,0.4,1.3h-4c-0.1-0.2-0.1-0.5-0.2-0.7s-0.1-0.5-0.1-0.7c-0.6,0.7-1.4,1.1-2.2,1.4c-0.9,0.3-1.7,0.4-2.6,0.4
		c-0.7,0-1.3-0.1-1.9-0.3s-1.1-0.4-1.6-0.8s-0.8-0.8-1-1.3c-0.3-0.5-0.4-1.2-0.4-1.9c0-0.8,0.1-1.5,0.4-2c0.3-0.5,0.7-1,1.1-1.3
		c0.5-0.3,1-0.6,1.6-0.7c0.6-0.2,1.2-0.3,1.8-0.4s1.2-0.2,1.8-0.2c0.6-0.1,1.1-0.1,1.5-0.3c0.4-0.1,0.8-0.3,1.1-0.5
		c0.3-0.2,0.4-0.5,0.4-0.9c0-0.4-0.1-0.8-0.2-1c-0.1-0.3-0.3-0.4-0.6-0.6c-0.2-0.1-0.5-0.2-0.8-0.3c-0.3,0-0.6-0.1-1-0.1
		c-0.8,0-1.4,0.2-1.8,0.5c-0.4,0.3-0.7,0.9-0.8,1.7H153.1z M162.3,153.2c-0.2,0.1-0.4,0.3-0.6,0.3s-0.5,0.2-0.8,0.2
		c-0.3,0.1-0.6,0.1-0.9,0.1s-0.6,0.1-1,0.1c-0.3,0.1-0.6,0.1-0.9,0.2c-0.3,0.1-0.5,0.2-0.8,0.4c-0.2,0.2-0.4,0.4-0.5,0.6
		c-0.1,0.2-0.2,0.6-0.2,0.9c0,0.4,0.1,0.7,0.2,0.9c0.1,0.2,0.3,0.4,0.5,0.6c0.2,0.1,0.5,0.2,0.8,0.3c0.3,0.1,0.6,0.1,0.9,0.1
		c0.8,0,1.4-0.1,1.8-0.4c0.4-0.3,0.7-0.6,1-0.9c0.2-0.4,0.3-0.7,0.4-1.1c0-0.4,0.1-0.7,0.1-0.9V153.2z"/>
	<path d="M173.1,145.8v2h0.1c0.5-0.8,1.2-1.5,2-1.8s1.6-0.6,2.5-0.6c1.1,0,1.9,0.1,2.6,0.4c0.7,0.3,1.2,0.7,1.6,1.2
		c0.4,0.5,0.7,1.1,0.8,1.9c0.2,0.7,0.2,1.6,0.2,2.4v8.9h-4v-8.2c0-1.2-0.2-2.1-0.6-2.7c-0.4-0.6-1-0.9-2-0.9c-1.1,0-1.9,0.3-2.4,1
		c-0.5,0.6-0.7,1.7-0.7,3.2v7.6h-4v-14.5H173.1z"/>
	<path d="M192.8,148.4c-0.6,0-1.2,0.1-1.6,0.4c-0.4,0.3-0.8,0.7-1,1.1c-0.3,0.5-0.5,1-0.6,1.5s-0.2,1.1-0.2,1.6
		c0,0.5,0.1,1.1,0.2,1.6c0.1,0.5,0.3,1,0.5,1.5s0.6,0.8,1,1.1c0.4,0.3,1,0.4,1.6,0.4c1,0,1.7-0.3,2.2-0.8c0.5-0.5,0.8-1.2,1-2.1h3.8
		c-0.3,1.9-1,3.4-2.2,4.4c-1.2,1-2.8,1.5-4.7,1.5c-1.1,0-2.1-0.2-3-0.5c-0.9-0.4-1.7-0.9-2.3-1.5s-1.1-1.4-1.5-2.3s-0.5-1.9-0.5-3
		c0-1.1,0.2-2.2,0.5-3.1c0.3-1,0.8-1.8,1.4-2.5c0.6-0.7,1.4-1.2,2.3-1.6c0.9-0.4,2-0.6,3.1-0.6c0.9,0,1.7,0.1,2.5,0.3
		c0.8,0.2,1.5,0.6,2.1,1c0.6,0.5,1.1,1,1.5,1.7c0.4,0.7,0.6,1.5,0.7,2.4h-3.9C195.5,149.2,194.5,148.4,192.8,148.4z"/>
	<path d="M206.2,156.8c0.6,0.6,1.5,0.9,2.6,0.9c0.8,0,1.5-0.2,2.1-0.6c0.6-0.4,0.9-0.8,1.1-1.3h3.5c-0.6,1.7-1.4,3-2.6,3.7
		c-1.2,0.7-2.6,1.1-4.2,1.1c-1.1,0-2.2-0.2-3.1-0.5c-0.9-0.4-1.7-0.9-2.3-1.6s-1.1-1.5-1.5-2.4c-0.3-0.9-0.5-2-0.5-3.1
		c0-1.1,0.2-2.1,0.5-3s0.9-1.7,1.5-2.4c0.7-0.7,1.4-1.2,2.3-1.6c0.9-0.4,1.9-0.6,3-0.6c1.2,0,2.3,0.2,3.2,0.7
		c0.9,0.5,1.7,1.1,2.3,1.9c0.6,0.8,1,1.7,1.3,2.7c0.3,1,0.4,2.1,0.3,3.2h-10.4C205.3,155.3,205.7,156.2,206.2,156.8z M210.7,149.2
		c-0.5-0.5-1.2-0.8-2.2-0.8c-0.6,0-1.2,0.1-1.6,0.3s-0.8,0.5-1,0.8s-0.4,0.7-0.5,1s-0.2,0.7-0.2,1h6.5
		C211.6,150.4,211.2,149.7,210.7,149.2z"/>
</g>
</svg>
