<?xml version="1.0" encoding="utf-8"?>
<!-- Generator: Adobe Illustrator 25.4.6, SVG Export Plug-In . SVG Version: 6.00 Build 0)  -->
<svg version="1.1" id="Layer_1" xmlns="http://www.w3.org/2000/svg" xmlns:xlink="http://www.w3.org/1999/xlink" x="0px" y="0px"
	 viewBox="0 0 300 250" style="enable-background:new 0 0 300 250;" xml:space="preserve">
<style type="text/css">
	.st0{fill:#339933;}
	.st1{fill:#373535;}
</style>
<g>
	<path class="st0" d="M39,77.1v16.3h9.7v3.7H34.6v-20H39z"/>
	<path class="st0" d="M66.2,77.1v3.7H55.6v4.3h9.7v3.4h-9.7v4.9h10.8v3.7H51.2v-20H66.2z"/>
	<path class="st0" d="M79.4,77.1l7.5,20h-4.6l-1.5-4.5h-7.5l-1.6,4.5h-4.4l7.6-20H79.4z M79.6,89.4L77.1,82H77l-2.6,7.3H79.6z"/>
	<path class="st0" d="M91.6,97.1l-6.5-20h4.5l4.5,14.1h0.1l4.5-14.1h4.5l-6.6,20H91.6z"/>
	<path class="st0" d="M119.9,77.1v3.7h-10.6v4.3h9.7v3.4h-9.7v4.9h10.8v3.7h-15.2v-20H119.9z"/>
	<path class="st0" d="M134.2,82.6v2h0.1c0.5-0.8,1.2-1.5,2-1.8c0.8-0.4,1.6-0.6,2.5-0.6c1.1,0,1.9,0.1,2.6,0.4
		c0.7,0.3,1.2,0.7,1.6,1.2c0.4,0.5,0.7,1.1,0.8,1.9c0.2,0.7,0.2,1.6,0.2,2.5v8.9h-4v-8.2c0-1.2-0.2-2.1-0.6-2.7
		c-0.4-0.6-1-0.9-2-0.9c-1.1,0-1.9,0.3-2.4,1s-0.7,1.7-0.7,3.2v7.6h-4V82.6H134.2z"/>
	<path class="st0" d="M147.1,86.7c0.4-0.9,0.9-1.7,1.5-2.4c0.7-0.7,1.4-1.2,2.4-1.5c0.9-0.4,1.9-0.5,3.1-0.5s2.2,0.2,3.1,0.5
		c0.9,0.4,1.7,0.9,2.4,1.5c0.7,0.7,1.2,1.5,1.5,2.4c0.4,0.9,0.5,2,0.5,3.1c0,1.2-0.2,2.2-0.5,3.1c-0.4,0.9-0.9,1.7-1.5,2.4
		s-1.4,1.2-2.4,1.5s-2,0.5-3.1,0.5s-2.2-0.2-3.1-0.5c-0.9-0.4-1.7-0.9-2.4-1.5c-0.7-0.7-1.2-1.5-1.5-2.4c-0.4-0.9-0.5-2-0.5-3.1
		C146.6,88.7,146.8,87.7,147.1,86.7z M150.7,91.6c0.1,0.6,0.3,1,0.6,1.5c0.3,0.4,0.6,0.8,1.1,1c0.4,0.3,1,0.4,1.7,0.4
		s1.2-0.1,1.7-0.4c0.5-0.3,0.8-0.6,1.1-1s0.5-0.9,0.6-1.5c0.1-0.6,0.2-1.1,0.2-1.7c0-0.6-0.1-1.1-0.2-1.7c-0.1-0.6-0.3-1.1-0.6-1.5
		c-0.3-0.4-0.6-0.8-1.1-1c-0.5-0.3-1-0.4-1.7-0.4s-1.2,0.1-1.7,0.4c-0.4,0.3-0.8,0.6-1.1,1c-0.3,0.4-0.5,0.9-0.6,1.5
		s-0.2,1.1-0.2,1.7C150.6,90.5,150.6,91,150.7,91.6z"/>
	<path class="st0" d="M170.8,80.8v-3.7h16.4v3.7h-6v16.3h-4.4V80.8H170.8z"/>
	<path class="st0" d="M189.3,83c0.4-1.3,1.1-2.4,1.9-3.3s1.9-1.7,3.1-2.2s2.6-0.8,4.1-0.8c1.5,0,2.9,0.3,4.1,0.8
		c1.2,0.5,2.2,1.3,3.1,2.2s1.5,2.1,1.9,3.3c0.4,1.3,0.7,2.7,0.7,4.2c0,1.5-0.2,2.8-0.7,4.1c-0.4,1.3-1.1,2.4-1.9,3.3
		c-0.8,0.9-1.9,1.7-3.1,2.2c-1.2,0.5-2.6,0.8-4.1,0.8c-1.5,0-2.9-0.3-4.1-0.8c-1.2-0.5-2.3-1.3-3.1-2.2c-0.8-0.9-1.5-2-1.9-3.3
		c-0.4-1.3-0.7-2.6-0.7-4.1C188.6,85.7,188.8,84.3,189.3,83z M193.3,89.6c0.2,0.8,0.5,1.5,0.9,2.1c0.4,0.6,1,1.1,1.7,1.5
		c0.7,0.4,1.5,0.6,2.5,0.6s1.8-0.2,2.5-0.6c0.7-0.4,1.2-0.9,1.7-1.5s0.7-1.3,0.9-2.1c0.2-0.8,0.3-1.6,0.3-2.5c0-0.9-0.1-1.7-0.3-2.5
		c-0.2-0.8-0.5-1.6-0.9-2.2c-0.4-0.6-1-1.2-1.7-1.5c-0.7-0.4-1.5-0.6-2.5-0.6s-1.8,0.2-2.5,0.6c-0.7,0.4-1.3,0.9-1.7,1.5
		c-0.4,0.6-0.7,1.4-0.9,2.2c-0.2,0.8-0.3,1.7-0.3,2.5C193,88,193.1,88.8,193.3,89.6z"/>
	<path class="st0" d="M211,83c0.4-1.3,1.1-2.4,1.9-3.3s1.9-1.7,3.1-2.2s2.6-0.8,4.1-0.8c1.5,0,2.9,0.3,4.1,0.8
		c1.2,0.5,2.2,1.3,3.1,2.2s1.5,2.1,1.9,3.3c0.4,1.3,0.7,2.7,0.7,4.2c0,1.5-0.2,2.8-0.7,4.1c-0.4,1.3-1.1,2.4-1.9,3.3
		c-0.8,0.9-1.9,1.7-3.1,2.2c-1.2,0.5-2.6,0.8-4.1,0.8c-1.5,0-2.9-0.3-4.1-0.8c-1.2-0.5-2.3-1.3-3.1-2.2c-0.8-0.9-1.5-2-1.9-3.3
		c-0.4-1.3-0.7-2.6-0.7-4.1C210.4,85.7,210.6,84.3,211,83z M215.1,89.6c0.2,0.8,0.5,1.5,0.9,2.1c0.4,0.6,1,1.1,1.7,1.5
		c0.7,0.4,1.5,0.6,2.5,0.6s1.8-0.2,2.5-0.6c0.7-0.4,1.2-0.9,1.7-1.5s0.7-1.3,0.9-2.1c0.2-0.8,0.3-1.6,0.3-2.5c0-0.9-0.1-1.7-0.3-2.5
		c-0.2-0.8-0.5-1.6-0.9-2.2c-0.4-0.6-1-1.2-1.7-1.5c-0.7-0.4-1.5-0.6-2.5-0.6s-1.8,0.2-2.5,0.6c-0.7,0.4-1.3,0.9-1.7,1.5
		c-0.4,0.6-0.7,1.4-0.9,2.2c-0.2,0.8-0.3,1.7-0.3,2.5C214.8,88,214.9,88.8,215.1,89.6z"/>
	<path class="st0" d="M231.4,80.8v-3.7h16.4v3.7h-6v16.3h-4.4V80.8H231.4z"/>
	<path class="st0" d="M254.5,77.1v7.7h8.1v-7.7h4.4v20h-4.4v-8.6h-8.1v8.6h-4.4v-20H254.5z"/>
</g>
<g>
	<path class="st1" d="M81.3,124.6c-1.5,1.3-3.6,2-6.3,2c-2.7,0-4.8-0.7-6.3-2c-1.5-1.3-2.2-3.3-2.2-6v-12.4H71v12.4
		c0,0.5,0,1.1,0.1,1.6s0.3,1,0.6,1.4c0.3,0.4,0.7,0.7,1.2,1c0.5,0.3,1.2,0.4,2.1,0.4c1.6,0,2.7-0.3,3.2-1c0.6-0.7,0.9-1.8,0.9-3.3
		v-12.4h4.4v12.4C83.6,121.3,82.9,123.3,81.3,124.6z"/>
	<path class="st1" d="M91.8,106.1l8.3,13.4h0.1v-13.4h4.1v20h-4.4l-8.3-13.4h-0.1v13.4h-4.1v-20H91.8z"/>
	<path class="st1" d="M117.5,106.1c1,0,1.8,0.1,2.6,0.3c0.8,0.2,1.5,0.4,2,0.8c0.6,0.4,1,0.9,1.3,1.5c0.3,0.6,0.5,1.4,0.5,2.4
		c0,1-0.2,1.8-0.7,2.5c-0.5,0.7-1.1,1.2-2,1.7c1.2,0.4,2.2,1,2.8,1.9c0.6,0.9,0.9,2,0.9,3.2c0,1-0.2,1.9-0.6,2.6
		c-0.4,0.7-0.9,1.3-1.6,1.8c-0.7,0.5-1.4,0.8-2.3,1s-1.7,0.3-2.6,0.3h-9.7v-20H117.5z M117,114.2c0.8,0,1.4-0.2,1.9-0.6
		c0.5-0.4,0.8-1,0.8-1.8c0-0.5-0.1-0.8-0.3-1.1c-0.2-0.3-0.4-0.5-0.7-0.7c-0.3-0.2-0.6-0.3-1-0.4c-0.4-0.1-0.7-0.1-1.1-0.1h-4.1v4.7
		H117z M117.2,122.7c0.4,0,0.8,0,1.2-0.1c0.4-0.1,0.7-0.2,1-0.4c0.3-0.2,0.5-0.5,0.7-0.8c0.2-0.3,0.3-0.8,0.3-1.3
		c0-1-0.3-1.8-0.9-2.2c-0.6-0.4-1.3-0.7-2.3-0.7h-4.8v5.5H117.2z"/>
	<path class="st1" d="M138.6,106.1c0.9,0,1.7,0.1,2.4,0.4c0.7,0.3,1.3,0.7,1.8,1.2c0.5,0.5,0.9,1.1,1.2,1.8c0.3,0.7,0.4,1.4,0.4,2.1
		c0,1.2-0.2,2.2-0.7,3.1s-1.3,1.5-2.4,2v0.1c0.5,0.1,1,0.4,1.3,0.7c0.4,0.3,0.6,0.7,0.9,1.1c0.2,0.4,0.4,0.9,0.5,1.4
		c0.1,0.5,0.2,1,0.2,1.5c0,0.3,0,0.7,0.1,1.1c0,0.4,0.1,0.9,0.1,1.3c0,0.4,0.1,0.9,0.2,1.3c0.1,0.4,0.3,0.7,0.5,1h-4.4
		c-0.2-0.6-0.4-1.4-0.4-2.3c-0.1-0.9-0.1-1.7-0.3-2.5c-0.1-1-0.5-1.8-1-2.3c-0.5-0.5-1.3-0.7-2.4-0.7h-4.4v7.8h-4.4v-20H138.6z
		 M137.1,115.2c1,0,1.8-0.2,2.3-0.7c0.5-0.4,0.8-1.2,0.8-2.2c0-1-0.3-1.7-0.8-2.1c-0.5-0.4-1.3-0.7-2.3-0.7h-4.8v5.6H137.1z"/>
	<path class="st1" d="M162.8,124.6c-1.5,1.3-3.6,2-6.3,2c-2.7,0-4.8-0.7-6.3-2c-1.5-1.3-2.2-3.3-2.2-6v-12.4h4.4v12.4
		c0,0.5,0,1.1,0.1,1.6s0.3,1,0.6,1.4c0.3,0.4,0.7,0.7,1.2,1s1.2,0.4,2.1,0.4c1.6,0,2.7-0.3,3.2-1c0.6-0.7,0.9-1.8,0.9-3.3v-12.4h4.4
		v12.4C165,121.3,164.3,123.3,162.8,124.6z"/>
	<path class="st1" d="M172.2,121.2c0.2,0.5,0.6,0.8,1,1.1c0.4,0.3,0.9,0.5,1.4,0.6s1.1,0.2,1.7,0.2c0.4,0,0.8,0,1.3-0.1
		c0.4-0.1,0.9-0.2,1.3-0.4c0.4-0.2,0.7-0.4,1-0.8c0.3-0.3,0.4-0.7,0.4-1.2c0-0.5-0.2-1-0.5-1.3c-0.3-0.3-0.8-0.6-1.4-0.8
		c-0.6-0.2-1.2-0.4-1.9-0.6c-0.7-0.2-1.4-0.4-2.2-0.6c-0.7-0.2-1.5-0.4-2.2-0.7c-0.7-0.3-1.3-0.6-1.9-1.1c-0.6-0.4-1-1-1.4-1.6
		c-0.3-0.6-0.5-1.4-0.5-2.3c0-1,0.2-1.9,0.7-2.7c0.4-0.8,1-1.4,1.7-1.9c0.7-0.5,1.5-0.9,2.4-1.1c0.9-0.2,1.8-0.4,2.7-0.4
		c1,0,2,0.1,3,0.3c1,0.2,1.8,0.6,2.6,1.1c0.7,0.5,1.3,1.2,1.8,2s0.7,1.8,0.7,3h-4.3c0-0.6-0.2-1.1-0.4-1.5c-0.2-0.4-0.5-0.7-0.9-0.9
		s-0.8-0.4-1.2-0.5c-0.5-0.1-1-0.1-1.5-0.1c-0.4,0-0.7,0-1.1,0.1c-0.4,0.1-0.7,0.2-1,0.4s-0.5,0.4-0.7,0.7c-0.2,0.3-0.3,0.6-0.3,1.1
		c0,0.4,0.1,0.7,0.2,1c0.1,0.2,0.4,0.5,0.9,0.7c0.4,0.2,1,0.4,1.8,0.6c0.8,0.2,1.8,0.5,3,0.8c0.4,0.1,0.9,0.2,1.6,0.4
		c0.7,0.2,1.3,0.5,2,0.9c0.7,0.4,1.2,1,1.7,1.7c0.5,0.7,0.7,1.6,0.7,2.8c0,0.9-0.2,1.8-0.5,2.5c-0.4,0.8-0.9,1.5-1.6,2
		c-0.7,0.6-1.6,1-2.6,1.3c-1,0.3-2.2,0.5-3.6,0.5c-1.1,0-2.2-0.1-3.2-0.4c-1-0.3-2-0.7-2.7-1.3c-0.8-0.6-1.4-1.3-1.9-2.2
		s-0.7-2-0.7-3.2h4.3C171.8,120.1,171.9,120.7,172.2,121.2z"/>
	<path class="st1" d="M191.4,106.1v7.7h8.1v-7.7h4.4v20h-4.4v-8.6h-8.1v8.6H187v-20H191.4z"/>
	<path class="st1" d="M222.7,106.1v3.7h-10.6v4.3h9.7v3.4h-9.7v4.9h10.8v3.7h-15.2v-20H222.7z"/>
	<path class="st1" d="M234.5,106.1c1.3,0,2.5,0.2,3.6,0.6c1.1,0.4,2.1,1,2.9,1.8c0.8,0.8,1.4,1.8,1.9,3.1c0.5,1.2,0.7,2.7,0.7,4.3
		c0,1.5-0.2,2.8-0.6,4c-0.4,1.2-0.9,2.3-1.7,3.2s-1.7,1.6-2.8,2.1c-1.1,0.5-2.5,0.8-4,0.8h-8.6v-20H234.5z M234.2,122.4
		c0.6,0,1.2-0.1,1.8-0.3c0.6-0.2,1.1-0.5,1.6-1c0.5-0.5,0.8-1.1,1.1-1.9c0.3-0.8,0.4-1.7,0.4-2.8c0-1-0.1-1.9-0.3-2.7
		c-0.2-0.8-0.5-1.5-1-2.1c-0.4-0.6-1-1-1.8-1.3c-0.7-0.3-1.6-0.5-2.7-0.5h-3.1v12.6H234.2z"/>
</g>
</svg>
