<?xml version="1.0" encoding="utf-8"?>
<!-- Generator: Adobe Illustrator 25.4.6, SVG Export Plug-In . SVG Version: 6.00 Build 0)  -->
<svg version="1.1" id="Layer_1" xmlns="http://www.w3.org/2000/svg" xmlns:xlink="http://www.w3.org/1999/xlink" x="0px" y="0px"
	 viewBox="0 0 300 250" style="enable-background:new 0 0 300 250;" xml:space="preserve">
<style type="text/css">
	.st0{fill:#339933;}
</style>
<g>
	<path class="st0" d="M44.3,77.2c1.2,0,2.3,0.2,3.2,0.5c0.9,0.4,1.6,0.8,2.1,1.4c0.6,0.6,1,1.3,1.2,2c0.3,0.8,0.4,1.6,0.4,2.4
		c0,0.8-0.1,1.6-0.4,2.4c-0.3,0.8-0.7,1.5-1.2,2.1c-0.6,0.6-1.3,1.1-2.1,1.4c-0.9,0.4-1.9,0.5-3.2,0.5h-4.6v7.2h-4.4v-20H44.3z
		 M43.1,86.6c0.5,0,1,0,1.5-0.1c0.5-0.1,0.9-0.2,1.2-0.4c0.4-0.2,0.6-0.5,0.9-0.9c0.2-0.4,0.3-0.9,0.3-1.5c0-0.6-0.1-1.1-0.3-1.5
		c-0.2-0.4-0.5-0.7-0.9-0.9c-0.4-0.2-0.8-0.4-1.2-0.4c-0.5-0.1-1-0.1-1.5-0.1h-3.4v6H43.1z"/>
	<path class="st0" d="M57.3,82.7v2.7h0.1c0.2-0.4,0.4-0.9,0.8-1.2c0.3-0.4,0.7-0.7,1.1-1c0.4-0.3,0.8-0.5,1.3-0.6
		c0.5-0.1,1-0.2,1.5-0.2c0.3,0,0.6,0,0.9,0.1v3.7c-0.2,0-0.4-0.1-0.7-0.1c-0.3,0-0.5,0-0.8,0c-0.7,0-1.3,0.1-1.8,0.4
		c-0.5,0.2-0.9,0.6-1.2,1c-0.3,0.4-0.5,0.9-0.7,1.5c-0.1,0.6-0.2,1.2-0.2,1.8v6.5h-4V82.7H57.3z"/>
	<path class="st0" d="M64.3,87.1c0.1-0.9,0.3-1.7,0.7-2.3c0.4-0.6,0.9-1.1,1.6-1.5c0.6-0.4,1.3-0.6,2.1-0.8s1.6-0.2,2.4-0.2
		c0.7,0,1.5,0.1,2.2,0.2s1.4,0.3,2,0.6c0.6,0.3,1.1,0.7,1.5,1.2c0.4,0.5,0.6,1.2,0.6,2.1v7.5c0,0.7,0,1.3,0.1,1.9
		c0.1,0.6,0.2,1,0.4,1.3h-4c-0.1-0.2-0.1-0.5-0.2-0.7c0-0.2-0.1-0.5-0.1-0.7c-0.6,0.7-1.4,1.1-2.2,1.4c-0.9,0.3-1.7,0.4-2.6,0.4
		c-0.7,0-1.3-0.1-1.9-0.3c-0.6-0.2-1.1-0.4-1.6-0.8c-0.4-0.4-0.8-0.8-1.1-1.3c-0.3-0.5-0.4-1.2-0.4-1.9c0-0.8,0.1-1.5,0.4-2
		c0.3-0.5,0.7-1,1.1-1.3c0.5-0.3,1-0.6,1.6-0.7s1.2-0.3,1.8-0.4c0.6-0.1,1.2-0.2,1.8-0.2c0.6-0.1,1.1-0.1,1.5-0.3
		c0.4-0.1,0.8-0.3,1.1-0.5c0.3-0.2,0.4-0.5,0.4-0.9c0-0.4-0.1-0.8-0.2-1c-0.1-0.3-0.3-0.4-0.6-0.6s-0.5-0.2-0.8-0.3
		c-0.3,0-0.6-0.1-1-0.1c-0.8,0-1.4,0.2-1.8,0.5c-0.4,0.3-0.7,0.9-0.8,1.7H64.3z M73.4,90.1c-0.2,0.1-0.4,0.3-0.6,0.4
		s-0.5,0.2-0.8,0.2c-0.3,0.1-0.6,0.1-0.9,0.1s-0.6,0.1-1,0.1c-0.3,0.1-0.6,0.1-0.9,0.2c-0.3,0.1-0.5,0.2-0.8,0.4
		c-0.2,0.2-0.4,0.4-0.5,0.6c-0.1,0.2-0.2,0.6-0.2,0.9c0,0.4,0.1,0.7,0.2,0.9c0.1,0.2,0.3,0.4,0.5,0.6s0.5,0.2,0.8,0.3
		s0.6,0.1,0.9,0.1c0.8,0,1.4-0.1,1.8-0.4c0.4-0.3,0.7-0.6,1-0.9c0.2-0.4,0.3-0.7,0.4-1.1c0-0.4,0.1-0.7,0.1-0.9V90.1z"/>
	<path class="st0" d="M87.4,85.3c-0.6,0-1.2,0.1-1.6,0.4c-0.4,0.3-0.8,0.7-1,1.1c-0.3,0.5-0.5,1-0.6,1.5C84.1,88.9,84,89.5,84,90
		c0,0.5,0.1,1.1,0.2,1.6s0.3,1,0.5,1.5c0.3,0.4,0.6,0.8,1,1.1c0.4,0.3,1,0.4,1.6,0.4c1,0,1.7-0.3,2.2-0.8c0.5-0.5,0.8-1.2,1-2.1h3.8
		c-0.3,1.9-1,3.4-2.2,4.4s-2.8,1.5-4.7,1.5c-1.1,0-2.1-0.2-3-0.5c-0.9-0.4-1.7-0.9-2.3-1.5c-0.6-0.7-1.1-1.4-1.5-2.3
		c-0.4-0.9-0.5-1.9-0.5-3c0-1.1,0.2-2.2,0.5-3.1c0.3-1,0.8-1.8,1.4-2.5c0.6-0.7,1.4-1.2,2.3-1.6c0.9-0.4,2-0.6,3.1-0.6
		c0.9,0,1.7,0.1,2.5,0.3c0.8,0.2,1.5,0.6,2.1,1c0.6,0.5,1.1,1,1.5,1.7c0.4,0.7,0.6,1.5,0.7,2.4h-3.9C90.1,86.1,89.1,85.3,87.4,85.3z
		"/>
	<path class="st0" d="M104.5,82.7v2.7h-2.9v7.2c0,0.7,0.1,1.1,0.3,1.3c0.2,0.2,0.7,0.3,1.3,0.3c0.2,0,0.4,0,0.6,0
		c0.2,0,0.4,0,0.6-0.1v3.1c-0.3,0.1-0.7,0.1-1.1,0.1c-0.4,0-0.8,0-1.2,0c-0.6,0-1.2,0-1.8-0.1c-0.6-0.1-1-0.2-1.5-0.5
		c-0.4-0.2-0.8-0.6-1-1c-0.2-0.4-0.4-1-0.4-1.8v-8.5h-2.4v-2.7h2.4v-4.3h4v4.3H104.5z"/>
	<path class="st0" d="M106.5,80.5v-3.3h4v3.3H106.5z M110.5,82.7v14.5h-4V82.7H110.5z"/>
	<path class="st0" d="M120.6,85.3c-0.6,0-1.2,0.1-1.6,0.4c-0.4,0.3-0.8,0.7-1,1.1c-0.3,0.5-0.5,1-0.6,1.5c-0.1,0.6-0.2,1.1-0.2,1.6
		c0,0.5,0.1,1.1,0.2,1.6s0.3,1,0.5,1.5c0.3,0.4,0.6,0.8,1,1.1c0.4,0.3,1,0.4,1.6,0.4c1,0,1.7-0.3,2.2-0.8c0.5-0.5,0.8-1.2,1-2.1h3.8
		c-0.3,1.9-1,3.4-2.2,4.4s-2.8,1.5-4.7,1.5c-1.1,0-2.1-0.2-3-0.5c-0.9-0.4-1.7-0.9-2.3-1.5c-0.6-0.7-1.1-1.4-1.5-2.3
		c-0.4-0.9-0.5-1.9-0.5-3c0-1.1,0.2-2.2,0.5-3.1c0.3-1,0.8-1.8,1.4-2.5c0.6-0.7,1.4-1.2,2.3-1.6c0.9-0.4,2-0.6,3.1-0.6
		c0.9,0,1.7,0.1,2.5,0.3c0.8,0.2,1.5,0.6,2.1,1c0.6,0.5,1.1,1,1.5,1.7c0.4,0.7,0.6,1.5,0.7,2.4h-3.9
		C123.2,86.1,122.3,85.3,120.6,85.3z"/>
	<path class="st0" d="M129.6,87.1c0.1-0.9,0.3-1.7,0.7-2.3c0.4-0.6,0.9-1.1,1.6-1.5c0.6-0.4,1.3-0.6,2.1-0.8s1.6-0.2,2.4-0.2
		c0.7,0,1.5,0.1,2.2,0.2s1.4,0.3,2,0.6c0.6,0.3,1.1,0.7,1.5,1.2c0.4,0.5,0.6,1.2,0.6,2.1v7.5c0,0.7,0,1.3,0.1,1.9
		c0.1,0.6,0.2,1,0.4,1.3h-4c-0.1-0.2-0.1-0.5-0.2-0.7c0-0.2-0.1-0.5-0.1-0.7c-0.6,0.7-1.4,1.1-2.2,1.4c-0.9,0.3-1.7,0.4-2.6,0.4
		c-0.7,0-1.3-0.1-1.9-0.3c-0.6-0.2-1.1-0.4-1.6-0.8c-0.4-0.4-0.8-0.8-1.1-1.3c-0.3-0.5-0.4-1.2-0.4-1.9c0-0.8,0.1-1.5,0.4-2
		c0.3-0.5,0.7-1,1.1-1.3c0.5-0.3,1-0.6,1.6-0.7s1.2-0.3,1.8-0.4c0.6-0.1,1.2-0.2,1.8-0.2c0.6-0.1,1.1-0.1,1.5-0.3
		c0.4-0.1,0.8-0.3,1.1-0.5c0.3-0.2,0.4-0.5,0.4-0.9c0-0.4-0.1-0.8-0.2-1c-0.1-0.3-0.3-0.4-0.6-0.6s-0.5-0.2-0.8-0.3
		c-0.3,0-0.6-0.1-1-0.1c-0.8,0-1.4,0.2-1.8,0.5c-0.4,0.3-0.7,0.9-0.8,1.7H129.6z M138.7,90.1c-0.2,0.1-0.4,0.3-0.6,0.4
		s-0.5,0.2-0.8,0.2c-0.3,0.1-0.6,0.1-0.9,0.1s-0.6,0.1-1,0.1c-0.3,0.1-0.6,0.1-0.9,0.2c-0.3,0.1-0.5,0.2-0.8,0.4
		c-0.2,0.2-0.4,0.4-0.5,0.6c-0.1,0.2-0.2,0.6-0.2,0.9c0,0.4,0.1,0.7,0.2,0.9c0.1,0.2,0.3,0.4,0.5,0.6s0.5,0.2,0.8,0.3
		s0.6,0.1,0.9,0.1c0.8,0,1.4-0.1,1.8-0.4c0.4-0.3,0.7-0.6,1-0.9c0.2-0.4,0.3-0.7,0.4-1.1c0-0.4,0.1-0.7,0.1-0.9V90.1z"/>
	<path class="st0" d="M149.9,77.2v20h-4v-20H149.9z"/>
	<path class="st0" d="M175.9,97.2l-3.4-13.6h-0.1l-3.3,13.6h-4.5l-5.3-20h4.4l3.2,13.6h0.1l3.5-13.6h4.1L178,91h0.1l3.3-13.8h4.3
		l-5.4,20H175.9z"/>
	<path class="st0" d="M187.4,80.5v-3.3h4v3.3H187.4z M191.3,82.7v14.5h-4V82.7H191.3z"/>
	<path class="st0" d="M197.8,93.6c0.2,0.3,0.4,0.6,0.7,0.8c0.3,0.2,0.6,0.3,1,0.4c0.4,0.1,0.7,0.1,1.1,0.1c0.3,0,0.6,0,0.9-0.1
		c0.3-0.1,0.6-0.2,0.8-0.3c0.3-0.1,0.5-0.3,0.6-0.6s0.3-0.5,0.3-0.9c0-0.6-0.4-1-1.2-1.3c-0.8-0.3-1.9-0.6-3.3-0.9
		c-0.6-0.1-1.1-0.3-1.7-0.5c-0.6-0.2-1-0.4-1.5-0.7c-0.4-0.3-0.8-0.7-1-1.1c-0.3-0.4-0.4-1-0.4-1.6c0-0.9,0.2-1.7,0.5-2.3
		c0.4-0.6,0.8-1.1,1.4-1.4c0.6-0.3,1.3-0.6,2-0.7c0.7-0.1,1.5-0.2,2.3-0.2s1.5,0.1,2.3,0.2c0.7,0.1,1.4,0.4,2,0.8
		c0.6,0.4,1.1,0.8,1.4,1.4c0.4,0.6,0.6,1.3,0.7,2.2H203c-0.1-0.8-0.3-1.3-0.9-1.6S201,85,200.3,85c-0.2,0-0.5,0-0.7,0
		c-0.3,0-0.5,0.1-0.7,0.2c-0.2,0.1-0.4,0.2-0.5,0.4c-0.1,0.2-0.2,0.4-0.2,0.7c0,0.4,0.1,0.6,0.4,0.9s0.6,0.4,1,0.5
		c0.4,0.1,0.9,0.3,1.4,0.4c0.5,0.1,1.1,0.2,1.7,0.4c0.6,0.1,1.1,0.3,1.7,0.5c0.5,0.2,1,0.4,1.5,0.7c0.4,0.3,0.8,0.7,1,1.1
		c0.3,0.5,0.4,1,0.4,1.7c0,1-0.2,1.8-0.6,2.4c-0.4,0.6-0.9,1.2-1.5,1.6c-0.6,0.4-1.3,0.7-2.1,0.8c-0.8,0.2-1.6,0.2-2.4,0.2
		c-0.8,0-1.7-0.1-2.5-0.3c-0.8-0.2-1.5-0.4-2.1-0.8s-1.1-0.9-1.5-1.6c-0.4-0.6-0.6-1.5-0.7-2.4h3.8
		C197.5,92.9,197.6,93.3,197.8,93.6z"/>
	<path class="st0" d="M219.8,95.3c-0.5,0.8-1.1,1.3-1.8,1.7s-1.6,0.5-2.6,0.5c-1.1,0-2-0.2-2.9-0.6s-1.5-1-2-1.7
		c-0.5-0.7-0.9-1.5-1.2-2.5c-0.3-0.9-0.4-1.9-0.4-2.9c0-1,0.1-1.9,0.4-2.8c0.3-0.9,0.7-1.7,1.2-2.4s1.2-1.2,2-1.7
		c0.8-0.4,1.7-0.6,2.8-0.6c0.9,0,1.7,0.2,2.5,0.5c0.8,0.4,1.4,0.9,1.8,1.6h0.1v-7.3h4v20h-3.8L219.8,95.3L219.8,95.3z M219.6,88.2
		c-0.1-0.6-0.3-1-0.6-1.5s-0.6-0.8-1-1c-0.4-0.3-1-0.4-1.6-0.4s-1.2,0.1-1.7,0.4c-0.4,0.3-0.8,0.6-1.1,1c-0.3,0.4-0.5,0.9-0.6,1.5
		c-0.1,0.6-0.2,1.1-0.2,1.7c0,0.6,0.1,1.1,0.2,1.7c0.1,0.6,0.3,1.1,0.6,1.5c0.3,0.4,0.7,0.8,1.1,1.1s1,0.4,1.6,0.4
		c0.7,0,1.2-0.1,1.6-0.4c0.4-0.3,0.8-0.6,1-1c0.3-0.4,0.4-0.9,0.6-1.5s0.2-1.1,0.2-1.7S219.7,88.7,219.6,88.2z"/>
	<path class="st0" d="M226.7,86.8c0.4-0.9,0.9-1.7,1.5-2.4c0.7-0.7,1.4-1.2,2.4-1.5c0.9-0.4,1.9-0.5,3.1-0.5s2.2,0.2,3.1,0.5
		c0.9,0.4,1.7,0.9,2.4,1.5c0.7,0.7,1.2,1.5,1.5,2.4c0.4,0.9,0.5,2,0.5,3.1c0,1.2-0.2,2.2-0.5,3.1c-0.4,0.9-0.9,1.7-1.5,2.4
		s-1.4,1.2-2.4,1.5s-2,0.5-3.1,0.5s-2.2-0.2-3.1-0.5c-0.9-0.4-1.7-0.9-2.4-1.5c-0.7-0.7-1.2-1.5-1.5-2.4c-0.4-0.9-0.5-2-0.5-3.1
		C226.2,88.8,226.3,87.7,226.7,86.8z M230.3,91.6c0.1,0.6,0.3,1,0.6,1.5c0.3,0.4,0.6,0.8,1.1,1c0.4,0.3,1,0.4,1.7,0.4
		s1.2-0.1,1.7-0.4c0.5-0.3,0.8-0.6,1.1-1s0.5-0.9,0.6-1.5c0.1-0.6,0.2-1.1,0.2-1.7c0-0.6-0.1-1.1-0.2-1.7c-0.1-0.6-0.3-1.1-0.6-1.5
		c-0.3-0.4-0.6-0.8-1.1-1c-0.5-0.3-1-0.4-1.7-0.4s-1.2,0.1-1.7,0.4c-0.4,0.3-0.8,0.6-1.1,1c-0.3,0.4-0.5,0.9-0.6,1.5
		s-0.2,1.1-0.2,1.7C230.1,90.5,230.2,91.1,230.3,91.6z"/>
	<path class="st0" d="M247.6,82.7v2h0.1c0.5-0.7,1.2-1.3,1.9-1.7c0.7-0.4,1.6-0.6,2.5-0.6c0.9,0,1.8,0.2,2.5,0.5
		c0.8,0.4,1.3,1,1.7,1.9c0.4-0.6,1-1.2,1.8-1.7c0.7-0.5,1.6-0.7,2.6-0.7c0.8,0,1.5,0.1,2.1,0.3s1.2,0.5,1.7,0.9s0.8,0.9,1.1,1.6
		c0.3,0.7,0.4,1.5,0.4,2.4v9.7h-4V89c0-0.5,0-0.9-0.1-1.4c0-0.4-0.1-0.8-0.3-1.1s-0.4-0.6-0.7-0.8c-0.3-0.2-0.8-0.3-1.3-0.3
		s-1,0.1-1.4,0.3c-0.3,0.2-0.6,0.5-0.8,0.8s-0.3,0.7-0.4,1.2c-0.1,0.4-0.1,0.9-0.1,1.3v8.1h-4V89c0-0.4,0-0.9,0-1.3
		s-0.1-0.8-0.2-1.2c-0.1-0.4-0.4-0.6-0.7-0.9c-0.3-0.2-0.8-0.3-1.4-0.3c-0.2,0-0.4,0-0.7,0.1s-0.6,0.2-0.9,0.5
		c-0.3,0.2-0.5,0.6-0.7,1c-0.2,0.4-0.3,1-0.3,1.7v8.4h-4V82.7H247.6z"/>
</g>
<g>
	<path class="st0" d="M72.7,114.4v-2.7h2.4v-1.1c0-1.3,0.4-2.3,1.2-3.2c0.8-0.8,2-1.2,3.6-1.2c0.4,0,0.7,0,1.1,0
		c0.4,0,0.7,0.1,1,0.1v3c-0.5-0.1-1-0.1-1.5-0.1c-0.5,0-0.9,0.1-1.2,0.4c-0.2,0.3-0.4,0.7-0.4,1.3v0.9h2.7v2.7H79v11.8h-4v-11.8
		H72.7z"/>
	<path class="st0" d="M83.6,115.8c0.4-0.9,0.9-1.7,1.5-2.4c0.7-0.7,1.4-1.2,2.4-1.5c0.9-0.4,1.9-0.5,3.1-0.5c1.1,0,2.2,0.2,3.1,0.5
		c0.9,0.4,1.7,0.9,2.4,1.5c0.7,0.7,1.2,1.5,1.5,2.4c0.4,0.9,0.5,2,0.5,3.1c0,1.2-0.2,2.2-0.5,3.1c-0.4,0.9-0.9,1.7-1.5,2.4
		c-0.7,0.7-1.4,1.2-2.4,1.5c-0.9,0.4-2,0.5-3.1,0.5c-1.1,0-2.2-0.2-3.1-0.5c-0.9-0.4-1.7-0.9-2.4-1.5s-1.2-1.5-1.5-2.4
		c-0.4-0.9-0.5-2-0.5-3.1C83.1,117.8,83.3,116.7,83.6,115.8z M87.2,120.6c0.1,0.6,0.3,1,0.6,1.5c0.3,0.4,0.6,0.8,1.1,1
		c0.4,0.3,1,0.4,1.7,0.4s1.2-0.1,1.7-0.4c0.5-0.3,0.8-0.6,1.1-1c0.3-0.4,0.5-0.9,0.6-1.5c0.1-0.6,0.2-1.1,0.2-1.7
		c0-0.6-0.1-1.1-0.2-1.7c-0.1-0.6-0.3-1.1-0.6-1.5c-0.3-0.4-0.6-0.8-1.1-1s-1-0.4-1.7-0.4s-1.2,0.1-1.7,0.4c-0.4,0.3-0.8,0.6-1.1,1
		c-0.3,0.4-0.5,0.9-0.6,1.5s-0.2,1.1-0.2,1.7C87.1,119.5,87.1,120.1,87.2,120.6z"/>
	<path class="st0" d="M104.4,111.7v2.7h0.1c0.2-0.4,0.4-0.9,0.8-1.2c0.3-0.4,0.7-0.7,1.1-1c0.4-0.3,0.8-0.5,1.3-0.6
		c0.5-0.1,1-0.2,1.5-0.2c0.3,0,0.6,0,0.9,0.1v3.7c-0.2,0-0.4-0.1-0.7-0.1c-0.3,0-0.5,0-0.8,0c-0.7,0-1.3,0.1-1.8,0.4
		c-0.5,0.2-0.9,0.6-1.2,1c-0.3,0.4-0.5,0.9-0.7,1.5c-0.1,0.6-0.2,1.2-0.2,1.8v6.5h-4v-14.5H104.4z"/>
	<path class="st0" d="M128.4,106.2c1.3,0,2.5,0.2,3.6,0.6c1.1,0.4,2.1,1,2.9,1.8s1.4,1.8,1.9,3.1c0.5,1.2,0.7,2.7,0.7,4.3
		c0,1.5-0.2,2.8-0.6,4s-0.9,2.3-1.7,3.2s-1.7,1.6-2.8,2.1c-1.1,0.5-2.5,0.8-4,0.8h-8.6v-20H128.4z M128,122.5c0.6,0,1.3-0.1,1.8-0.3
		c0.6-0.2,1.1-0.5,1.6-1c0.5-0.5,0.8-1.1,1.1-1.9c0.3-0.8,0.4-1.7,0.4-2.8c0-1-0.1-1.9-0.3-2.7s-0.5-1.5-1-2.1c-0.4-0.6-1-1-1.8-1.3
		s-1.6-0.5-2.7-0.5h-3.1v12.6H128z"/>
	<path class="st0" d="M144.3,122.7c0.6,0.6,1.5,0.9,2.6,0.9c0.8,0,1.5-0.2,2.1-0.6c0.6-0.4,0.9-0.8,1.1-1.3h3.5
		c-0.6,1.7-1.4,3-2.6,3.7c-1.2,0.7-2.6,1.1-4.2,1.1c-1.1,0-2.2-0.2-3.1-0.5c-0.9-0.4-1.7-0.9-2.3-1.6c-0.6-0.7-1.1-1.5-1.5-2.4
		c-0.3-0.9-0.5-2-0.5-3.1c0-1.1,0.2-2.1,0.5-3c0.4-0.9,0.9-1.7,1.5-2.4c0.7-0.7,1.4-1.2,2.3-1.6c0.9-0.4,1.9-0.6,3-0.6
		c1.2,0,2.3,0.2,3.2,0.7c0.9,0.5,1.7,1.1,2.3,1.9s1,1.7,1.3,2.7c0.3,1,0.4,2.1,0.3,3.2h-10.4C143.4,121.2,143.7,122.1,144.3,122.7z
		 M148.8,115.1c-0.5-0.5-1.2-0.8-2.2-0.8c-0.6,0-1.2,0.1-1.6,0.3c-0.4,0.2-0.8,0.5-1,0.8s-0.4,0.7-0.5,1c-0.1,0.4-0.2,0.7-0.2,1h6.5
		C149.6,116.4,149.3,115.6,148.8,115.1z"/>
	<path class="st0" d="M159.9,111.7v2h0.1c0.5-0.8,1.2-1.5,2-1.8c0.8-0.4,1.6-0.6,2.5-0.6c1.1,0,1.9,0.1,2.6,0.4
		c0.7,0.3,1.2,0.7,1.6,1.2c0.4,0.5,0.7,1.1,0.8,1.9c0.2,0.7,0.2,1.6,0.2,2.5v8.9h-4V118c0-1.2-0.2-2.1-0.6-2.7s-1-0.9-2-0.9
		c-1.1,0-1.9,0.3-2.4,1s-0.7,1.7-0.7,3.2v7.6h-4v-14.5H159.9z"/>
	<path class="st0" d="M180.7,111.7v2.7h-2.9v7.2c0,0.7,0.1,1.1,0.3,1.3c0.2,0.2,0.7,0.3,1.3,0.3c0.2,0,0.4,0,0.6,0
		c0.2,0,0.4,0,0.6-0.1v3.1c-0.3,0.1-0.7,0.1-1.1,0.1c-0.4,0-0.8,0-1.2,0c-0.6,0-1.2,0-1.8-0.1c-0.6-0.1-1-0.2-1.5-0.5s-0.8-0.6-1-1
		c-0.2-0.4-0.4-1-0.4-1.8v-8.5h-2.4v-2.7h2.4v-4.3h4v4.3H180.7z"/>
	<path class="st0" d="M182.7,109.5v-3.3h4v3.3H182.7z M186.7,111.7v14.5h-4v-14.5H186.7z"/>
	<path class="st0" d="M193.2,122.6c0.2,0.3,0.4,0.6,0.7,0.8c0.3,0.2,0.6,0.3,1,0.4c0.4,0.1,0.7,0.1,1.1,0.1c0.3,0,0.6,0,0.9-0.1
		c0.3-0.1,0.6-0.2,0.8-0.3c0.3-0.1,0.5-0.3,0.6-0.6s0.3-0.5,0.3-0.9c0-0.6-0.4-1-1.2-1.3c-0.8-0.3-1.9-0.6-3.3-0.9
		c-0.6-0.1-1.1-0.3-1.7-0.5c-0.6-0.2-1-0.4-1.5-0.7c-0.4-0.3-0.8-0.7-1-1.1c-0.3-0.4-0.4-1-0.4-1.6c0-0.9,0.2-1.7,0.5-2.3
		c0.4-0.6,0.8-1.1,1.4-1.4c0.6-0.3,1.3-0.6,2-0.7c0.7-0.1,1.5-0.2,2.3-0.2s1.5,0.1,2.3,0.2c0.7,0.1,1.4,0.4,2,0.8
		c0.6,0.4,1.1,0.8,1.4,1.4c0.4,0.6,0.6,1.3,0.7,2.2h-3.8c-0.1-0.8-0.3-1.3-0.9-1.6s-1.1-0.4-1.8-0.4c-0.2,0-0.5,0-0.7,0
		c-0.3,0-0.5,0.1-0.7,0.2c-0.2,0.1-0.4,0.2-0.5,0.4c-0.1,0.2-0.2,0.4-0.2,0.7c0,0.4,0.1,0.6,0.4,0.9s0.6,0.4,1,0.5
		c0.4,0.1,0.9,0.3,1.4,0.4c0.5,0.1,1.1,0.2,1.7,0.4c0.6,0.1,1.1,0.3,1.7,0.5c0.5,0.2,1,0.4,1.5,0.7c0.4,0.3,0.8,0.7,1,1.1
		c0.3,0.5,0.4,1,0.4,1.7c0,1-0.2,1.8-0.6,2.4c-0.4,0.6-0.9,1.2-1.5,1.6c-0.6,0.4-1.3,0.7-2.1,0.8c-0.8,0.2-1.6,0.2-2.4,0.2
		c-0.8,0-1.7-0.1-2.5-0.3c-0.8-0.2-1.5-0.4-2.1-0.8c-0.6-0.4-1.1-0.9-1.5-1.6c-0.4-0.6-0.6-1.5-0.7-2.4h3.8
		C192.9,121.9,193,122.3,193.2,122.6z"/>
	<path class="st0" d="M212.8,111.7v2.7h-2.9v7.2c0,0.7,0.1,1.1,0.3,1.3c0.2,0.2,0.7,0.3,1.3,0.3c0.2,0,0.4,0,0.6,0
		c0.2,0,0.4,0,0.6-0.1v3.1c-0.3,0.1-0.7,0.1-1.1,0.1c-0.4,0-0.8,0-1.2,0c-0.6,0-1.2,0-1.8-0.1c-0.6-0.1-1-0.2-1.5-0.5s-0.8-0.6-1-1
		c-0.2-0.4-0.4-1-0.4-1.8v-8.5h-2.4v-2.7h2.4v-4.3h4v4.3H212.8z"/>
	<path class="st0" d="M218.1,122.6c0.2,0.3,0.4,0.6,0.7,0.8c0.3,0.2,0.6,0.3,1,0.4c0.4,0.1,0.7,0.1,1.1,0.1c0.3,0,0.6,0,0.9-0.1
		c0.3-0.1,0.6-0.2,0.8-0.3c0.3-0.1,0.5-0.3,0.6-0.6s0.3-0.5,0.3-0.9c0-0.6-0.4-1-1.2-1.3c-0.8-0.3-1.9-0.6-3.3-0.9
		c-0.6-0.1-1.1-0.3-1.7-0.5c-0.6-0.2-1-0.4-1.5-0.7c-0.4-0.3-0.8-0.7-1-1.1c-0.3-0.4-0.4-1-0.4-1.6c0-0.9,0.2-1.7,0.5-2.3
		c0.4-0.6,0.8-1.1,1.4-1.4c0.6-0.3,1.3-0.6,2-0.7c0.7-0.1,1.5-0.2,2.3-0.2s1.5,0.1,2.3,0.2c0.7,0.1,1.4,0.4,2,0.8
		c0.6,0.4,1.1,0.8,1.4,1.4c0.4,0.6,0.6,1.3,0.7,2.2h-3.8c-0.1-0.8-0.3-1.3-0.9-1.6s-1.1-0.4-1.8-0.4c-0.2,0-0.5,0-0.7,0
		c-0.3,0-0.5,0.1-0.7,0.2c-0.2,0.1-0.4,0.2-0.5,0.4c-0.1,0.2-0.2,0.4-0.2,0.7c0,0.4,0.1,0.6,0.4,0.9s0.6,0.4,1,0.5
		c0.4,0.1,0.9,0.3,1.4,0.4c0.5,0.1,1.1,0.2,1.7,0.4c0.6,0.1,1.1,0.3,1.7,0.5c0.5,0.2,1,0.4,1.5,0.7c0.4,0.3,0.8,0.7,1,1.1
		c0.3,0.5,0.4,1,0.4,1.7c0,1-0.2,1.8-0.6,2.4c-0.4,0.6-0.9,1.2-1.5,1.6c-0.6,0.4-1.3,0.7-2.1,0.8c-0.8,0.2-1.6,0.2-2.4,0.2
		c-0.8,0-1.7-0.1-2.5-0.3c-0.8-0.2-1.5-0.4-2.1-0.8c-0.6-0.4-1.1-0.9-1.5-1.6c-0.4-0.6-0.6-1.5-0.7-2.4h3.8
		C217.8,121.9,217.9,122.3,218.1,122.6z"/>
</g>
</svg>
