<?xml version="1.0" encoding="utf-8"?>
<!-- Generator: Adobe Illustrator 25.4.6, SVG Export Plug-In . SVG Version: 6.00 Build 0)  -->
<svg version="1.1" id="Layer_1" xmlns="http://www.w3.org/2000/svg" xmlns:xlink="http://www.w3.org/1999/xlink" x="0px" y="0px"
	 viewBox="0 0 300 250" style="enable-background:new 0 0 300 250;" xml:space="preserve">
<style type="text/css">
	.st0{clip-path:url(#SVGID_00000089548809185317603570000005768178386805670273_);fill:#439D51;}
	.st1{fill:#FFFFFF;}
</style>
<g>
	<defs>
		<rect id="SVGID_1_" x="71.3" y="175.6" width="158.4" height="33.4"/>
	</defs>
	<clipPath id="SVGID_00000177485308486170786320000006492176756696574382_">
		<use xlink:href="#SVGID_1_"  style="overflow:visible;"/>
	</clipPath>
	<path style="clip-path:url(#SVGID_00000177485308486170786320000006492176756696574382_);fill:#439D51;" d="M229.7,192.3
		c0,9.2-8.6,16.7-19.2,16.7h-120c-10.5,0-19.2-7.5-19.2-16.7s8.6-16.7,19.2-16.7h120C221,175.6,229.7,183.2,229.7,192.3"/>
</g>
<g>
	<path class="st1" d="M110.4,187.4v2h-5.1v2.5h4.5v1.8h-4.5v4.4h-2.3v-10.7H110.4z"/>
	<path class="st1" d="M117.5,187.4c0.5,0,0.9,0.1,1.3,0.2s0.7,0.4,1,0.6s0.5,0.6,0.6,0.9c0.1,0.4,0.2,0.7,0.2,1.1
		c0,0.6-0.1,1.2-0.4,1.6c-0.3,0.5-0.7,0.8-1.3,1v0c0.3,0.1,0.5,0.2,0.7,0.4s0.3,0.4,0.5,0.6c0.1,0.2,0.2,0.5,0.3,0.7
		s0.1,0.5,0.1,0.8c0,0.2,0,0.4,0,0.6c0,0.2,0,0.5,0.1,0.7c0,0.2,0.1,0.5,0.1,0.7c0.1,0.2,0.1,0.4,0.2,0.5h-2.3
		c-0.1-0.3-0.2-0.7-0.2-1.2s-0.1-0.9-0.1-1.3c-0.1-0.6-0.2-1-0.5-1.2c-0.3-0.3-0.7-0.4-1.3-0.4h-2.3v4.2h-2.3v-10.7H117.5z
		 M116.6,192.2c0.5,0,0.9-0.1,1.2-0.4s0.4-0.6,0.4-1.2c0-0.5-0.1-0.9-0.4-1.1c-0.3-0.2-0.7-0.4-1.2-0.4h-2.6v3H116.6z"/>
	<path class="st1" d="M130.5,187.4v2h-5.6v2.3h5.2v1.8h-5.2v2.6h5.7v2h-8.1v-10.7H130.5z"/>
	<path class="st1" d="M140.1,187.4v2h-5.6v2.3h5.2v1.8h-5.2v2.6h5.7v2h-8.1v-10.7H140.1z"/>
	<path class="st1" d="M153.3,197.6c-0.7,0.4-1.6,0.6-2.6,0.6c-0.8,0-1.5-0.1-2.2-0.4s-1.2-0.7-1.6-1.2s-0.8-1.1-1-1.8
		c-0.2-0.7-0.4-1.4-0.4-2.2c0-0.8,0.1-1.5,0.4-2.2c0.2-0.7,0.6-1.3,1-1.8c0.4-0.5,1-0.9,1.6-1.2c0.7-0.3,1.4-0.4,2.2-0.4
		c0.8,0,1.6,0.1,2.2,0.4c0.6,0.3,1.2,0.7,1.6,1.2c0.4,0.5,0.8,1.1,1,1.8c0.2,0.7,0.4,1.4,0.4,2.2c0,0.8-0.1,1.5-0.4,2.2
		c-0.2,0.7-0.6,1.3-1,1.8l1.3,1.2l-1.1,1.1L153.3,197.6z M153,195.2c0.2-0.3,0.4-0.6,0.5-1c0.1-0.4,0.2-0.9,0.2-1.4
		c0-0.5-0.1-0.9-0.2-1.4s-0.3-0.8-0.5-1.2c-0.2-0.3-0.5-0.6-0.9-0.8c-0.4-0.2-0.8-0.3-1.3-0.3c-0.5,0-1,0.1-1.3,0.3
		c-0.4,0.2-0.7,0.5-0.9,0.8c-0.2,0.3-0.4,0.7-0.5,1.2s-0.2,0.9-0.2,1.4c0,0.4,0.1,0.9,0.2,1.3s0.3,0.8,0.5,1.1
		c0.2,0.3,0.5,0.6,0.9,0.8c0.4,0.2,0.8,0.3,1.3,0.3c0.2,0,0.4,0,0.6,0s0.3-0.1,0.4-0.1l-1-0.9l1.1-1.2L153,195.2z"/>
	<path class="st1" d="M165.4,197.2c-0.8,0.7-1.9,1.1-3.3,1.1c-1.4,0-2.6-0.3-3.3-1c-0.8-0.7-1.2-1.8-1.2-3.2v-6.6h2.3v6.6
		c0,0.3,0,0.6,0.1,0.9c0,0.3,0.2,0.5,0.3,0.7s0.4,0.4,0.7,0.5c0.3,0.1,0.7,0.2,1.1,0.2c0.8,0,1.4-0.2,1.7-0.6c0.3-0.4,0.5-1,0.5-1.8
		v-6.6h2.3v6.6C166.6,195.4,166.2,196.5,165.4,197.2z"/>
	<path class="st1" d="M168.5,190.5c0.2-0.7,0.6-1.3,1-1.8c0.4-0.5,1-0.9,1.6-1.2c0.7-0.3,1.4-0.4,2.2-0.4c0.8,0,1.6,0.1,2.2,0.4
		c0.6,0.3,1.2,0.7,1.6,1.2c0.4,0.5,0.8,1.1,1,1.8c0.2,0.7,0.4,1.4,0.4,2.2c0,0.8-0.1,1.5-0.4,2.2c-0.2,0.7-0.6,1.3-1,1.8
		c-0.4,0.5-1,0.9-1.6,1.2s-1.4,0.4-2.2,0.4c-0.8,0-1.5-0.1-2.2-0.4s-1.2-0.7-1.6-1.2s-0.8-1.1-1-1.8c-0.2-0.7-0.4-1.4-0.4-2.2
		C168.2,191.9,168.3,191.2,168.5,190.5z M170.7,194c0.1,0.4,0.3,0.8,0.5,1.1c0.2,0.3,0.5,0.6,0.9,0.8c0.4,0.2,0.8,0.3,1.3,0.3
		c0.5,0,1-0.1,1.3-0.3c0.4-0.2,0.7-0.5,0.9-0.8s0.4-0.7,0.5-1.1c0.1-0.4,0.2-0.9,0.2-1.3c0-0.5-0.1-0.9-0.2-1.4s-0.3-0.8-0.5-1.2
		c-0.2-0.3-0.5-0.6-0.9-0.8c-0.4-0.2-0.8-0.3-1.3-0.3c-0.5,0-1,0.1-1.3,0.3c-0.4,0.2-0.7,0.5-0.9,0.8c-0.2,0.3-0.4,0.7-0.5,1.2
		s-0.2,0.9-0.2,1.4C170.5,193.2,170.6,193.6,170.7,194z"/>
	<path class="st1" d="M179.4,189.3v-2h8.7v2H185v8.7h-2.3v-8.7H179.4z"/>
	<path class="st1" d="M197.3,187.4v2h-5.6v2.3h5.2v1.8h-5.2v2.6h5.7v2h-8.1v-10.7H197.3z"/>
</g>
</svg>
