<svg baseProfile="tiny" xmlns="http://www.w3.org/2000/svg" viewBox="0 0 320 50" overflow="visible"><g fill="#231F20"><path d="M10.1 8.1h3.2l3 5.1 3-5.1h3.1L17.6 16v4.9h-2.8v-5l-4.7-7.8zM21.1 14.3c.2-.6.6-1.1 1-1.5.4-.4.9-.8 1.5-1s1.2-.4 2-.4c.7 0 1.4.1 2 .4s1.1.6 1.5 1c.4.4.7.9 1 1.5.2.6.3 1.3.3 2s-.1 1.4-.3 2c-.2.6-.6 1.1-1 1.5-.4.4-.9.8-1.5 1-.6.2-1.3.3-2 .3s-1.4-.1-2-.3c-.6-.2-1.1-.6-1.5-1-.4-.4-.7-.9-1-1.5s-.3-1.3-.3-2c0-.8.1-1.4.3-2zm2.3 3.1c.1.4.2.7.4 1 .2.3.4.5.7.7s.6.3 1.1.3c.4 0 .8-.1 1.1-.3.3-.2.5-.4.7-.7.2-.3.3-.6.4-1 .1-.4.1-.7.1-1.1 0-.4 0-.7-.1-1.1-.1-.4-.2-.7-.4-1s-.4-.5-.7-.7c-.3-.2-.7-.3-1.1-.3-.4 0-.8.1-1.1.3-.3.2-.5.4-.7.7s-.3.6-.4 1c-.1.4-.1.7-.1 1.1 0 .4.1.7.1 1.1zM38.2 20.9v-1.3h-.1c-.3.5-.7.9-1.3 1.2-.5.2-1 .4-1.6.4-.7 0-1.2-.1-1.7-.3-.4-.2-.8-.4-1-.8-.3-.3-.4-.7-.5-1.2s-.2-1-.2-1.6v-5.7h2.6v5.3c0 .8.1 1.3.4 1.7.2.4.7.6 1.3.6.7 0 1.2-.2 1.5-.6.3-.4.5-1.1.5-2v-4.9h2.6V21h-2.5zM55.7 11.5c-.2-.3-.4-.5-.6-.7s-.5-.4-.9-.5-.7-.2-1-.2c-.6 0-1.2.1-1.6.4-.4.2-.8.6-1.1 1-.3.4-.5.9-.6 1.4-.1.5-.2 1.1-.2 1.6s.1 1.1.2 1.6.3 1 .6 1.4c.3.4.6.7 1.1 1 .4.2 1 .4 1.6.4.9 0 1.5-.3 2-.8s.8-1.2.9-2.1h2.7c-.1.8-.3 1.5-.6 2.2-.3.6-.7 1.2-1.2 1.7s-1.1.8-1.7 1c-.7.2-1.4.4-2.2.4-1 0-1.9-.2-2.7-.5-.8-.3-1.4-.8-2-1.4-.5-.6-1-1.3-1.2-2.1-.3-.8-.4-1.7-.4-2.6 0-1 .1-1.9.4-2.7.3-.8.7-1.5 1.2-2.2.5-.6 1.2-1.1 2-1.4.8-.3 1.7-.5 2.7-.5.7 0 1.4.1 2 .3.6.2 1.2.5 1.7.9s.9.9 1.2 1.4c.3.6.5 1.2.6 2H56c0-.4-.1-.7-.3-1zM67.1 8.1L71.9 21H69l-1-2.9h-4.8l-1 2.9h-2.8l4.9-12.9h2.8zm.1 7.9l-1.6-4.7-1.7 4.7h3.3zM75.6 8.1l5.4 8.6V8.1h2.6V21h-2.8l-5.3-8.6V21h-2.6V8.1h2.7zM88.5 8.1v2.8c0 .4 0 .8-.2 1.1s-.3.7-.5.9c-.2.3-.5.5-.8.7-.3.2-.7.3-1 .3v-1.2c.5-.2.8-.4.9-.7.2-.3.3-.7.3-1.1H86V8.1h2.5zM89.8 10.5V8.1h10.5v2.4h-3.9V21h-2.8V10.5h-3.8zM113.8 18.3c-.1.5-.3 1-.6 1.4-.3.4-.7.8-1.3 1.1-.6.3-1.3.4-2.3.4-.5 0-1.1-.1-1.6-.2s-1-.4-1.4-.7c-.4-.3-.7-.7-1-1.2s-.4-1.1-.4-1.8v-1.1h2.6v.6c0 .3 0 .6.1.9 0 .3.1.5.3.7s.3.3.5.4.5.2.8.2c.4 0 .7-.1.9-.2.2-.1.4-.3.4-.5s.1-.4.2-.7 0-.5 0-.7V8.1h2.8v8.8c.2.4.1.9 0 1.4zM125.7 20c-1 .8-2.3 1.3-4 1.3-1.7 0-3.1-.4-4-1.3-1-.8-1.4-2.1-1.4-3.9v-8h2.8v8c0 .3 0 .7.1 1s.2.6.4.9c.2.3.5.5.8.6.3.2.8.2 1.4.2 1 0 1.7-.2 2.1-.7.4-.4.6-1.2.6-2.1V8h2.8v8c-.1 1.8-.6 3.1-1.6 4zM135 8.1c.8 0 1.6.1 2.3.4.7.3 1.3.7 1.9 1.2.5.5.9 1.2 1.2 2s.4 1.7.4 2.8c0 .9-.1 1.8-.4 2.6-.2.8-.6 1.5-1.1 2.1s-1.1 1-1.8 1.4c-.7.3-1.6.5-2.6.5h-5.5v-13h5.6zm-.2 10.5c.4 0 .8-.1 1.2-.2.4-.1.7-.4 1-.7.3-.3.5-.7.7-1.2.2-.5.3-1.1.3-1.8 0-.6-.1-1.2-.2-1.8s-.3-1-.6-1.3c-.3-.4-.7-.7-1.1-.9-.5-.2-1.1-.3-1.8-.3h-2v8.1h2.5zM150.2 20.8c-.6.3-1.2.4-1.9.4-1 0-1.9-.2-2.7-.5-.8-.3-1.4-.8-2-1.4-.5-.6-1-1.3-1.2-2.1-.3-.8-.4-1.7-.4-2.6 0-1 .1-1.9.4-2.7.3-.8.7-1.5 1.2-2.2.5-.6 1.2-1.1 2-1.4.8-.3 1.7-.5 2.7-.5.7 0 1.3.1 1.9.3.6.2 1.2.5 1.7.9s.9.9 1.2 1.4.5 1.2.6 1.9H151c-.2-.7-.5-1.3-1-1.6-.5-.4-1.1-.5-1.7-.5-.6 0-1.2.1-1.6.4-.4.2-.8.6-1.1 1-.3.4-.5.9-.6 1.4-.1.5-.2 1.1-.2 1.6s.1 1.1.2 1.6.3 1 .6 1.4c.3.4.6.7 1.1 1 .4.2 1 .4 1.6.4.9 0 1.7-.2 2.2-.7.5-.5.8-1.2.9-2.1h-2.8V14h5.4v6.9h-1.8l-.3-1.5c-.5.7-1.1 1.2-1.7 1.4zM165.7 8.1v2.4h-6.8v2.8h6.2v2.2h-6.2v3.1h6.9V21H156V8.1h9.7z"/></g><g fill="#393"><path d="M11.1 33c0-.6.2-1.1.5-1.5.3-.4.6-.7 1-1 .4-.2.9-.4 1.4-.5.5-.1 1-.2 1.5-.2s.9 0 1.4.1c.5.1.9.2 1.3.4s.7.5 1 .8c.3.3.4.8.4 1.4v4.8c0 .4 0 .8.1 1.2 0 .4.1.7.3.9h-2.6c0-.1-.1-.3-.1-.4 0-.1-.1-.3-.1-.5-.4.4-.9.7-1.4.9-.6.2-1.1.3-1.7.3-.4 0-.9-.1-1.2-.2-.4-.1-.7-.3-1-.5-.3-.2-.5-.5-.7-.9-.2-.3-.2-.8-.2-1.2 0-.5.1-1 .3-1.3s.4-.6.7-.8c.3-.2.6-.4 1-.5.4-.1.8-.2 1.1-.2.4-.1.8-.1 1.1-.1s.7-.1 1-.2.5-.2.7-.3c.2-.1.2-.3.2-.6s0-.5-.1-.7c-.1-.2-.2-.3-.4-.4s-.3-.1-.5-.2h-.6c-.5 0-.9.1-1.2.3-.3.2-.5.6-.5 1.1h-2.7zm5.9 1.9c-.1.1-.2.2-.4.2-.2.1-.3.1-.5.1s-.4.1-.6.1c-.2 0-.4.1-.6.1-.2 0-.4.1-.6.1-.2.1-.3.1-.5.2-.1.1-.2.2-.3.4-.1.2-.1.4-.1.6 0 .2 0 .4.1.6.1.2.2.3.3.4s.3.2.5.2.4.1.6.1c.5 0 .9-.1 1.2-.3.3-.2.5-.4.6-.6.1-.2.2-.5.2-.7v-1.5zM24.6 29v-2.4h10.5V29h-3.9v10.5h-2.8V29h-3.8zM36.3 30.4c.3-.8.7-1.5 1.2-2.2.5-.6 1.2-1.1 2-1.4.8-.3 1.7-.5 2.7-.5 1 0 1.9.2 2.7.5.8.3 1.4.8 2 1.4.5.6 1 1.3 1.2 2.2.3.8.4 1.7.4 2.7 0 .9-.1 1.8-.4 2.6-.3.8-.7 1.5-1.2 2.1-.5.6-1.2 1.1-2 1.4-.8.3-1.7.5-2.7.5-1 0-1.9-.2-2.7-.5-.8-.3-1.4-.8-2-1.4-.5-.6-1-1.3-1.2-2.1-.3-.8-.4-1.7-.4-2.6-.1-1 .1-1.9.4-2.7zm2.6 4.2c.1.5.3 1 .6 1.4.3.4.6.7 1.1 1 .4.2 1 .4 1.6.4.6 0 1.2-.1 1.6-.4.4-.2.8-.6 1.1-1 .3-.4.5-.9.6-1.4s.2-1 .2-1.6c0-.6-.1-1.1-.2-1.6s-.3-1-.6-1.4c-.3-.4-.6-.7-1.1-1-.4-.2-1-.4-1.6-.4-.6 0-1.2.1-1.6.4s-.8.6-1.1 1c-.3.4-.5.9-.6 1.4s-.2 1.1-.2 1.6c0 .6 0 1.1.2 1.6zM50.1 30.4c.3-.8.7-1.5 1.2-2.2.5-.6 1.2-1.1 2-1.4.8-.3 1.7-.5 2.7-.5 1 0 1.9.2 2.7.5.8.3 1.4.8 2 1.4.5.6 1 1.3 1.2 2.2.3.8.4 1.7.4 2.7 0 .9-.1 1.8-.4 2.6-.3.8-.7 1.5-1.2 2.1-.5.6-1.2 1.1-2 1.4-.8.3-1.7.5-2.7.5-1 0-1.9-.2-2.7-.5-.8-.3-1.4-.8-2-1.4-.5-.6-1-1.3-1.2-2.1-.3-.8-.4-1.7-.4-2.6 0-1 .1-1.9.4-2.7zm2.6 4.2c.1.5.3 1 .6 1.4.3.4.6.7 1.1 1 .4.2 1 .4 1.6.4.6 0 1.2-.1 1.6-.4.4-.2.8-.6 1.1-1 .3-.4.5-.9.6-1.4s.2-1 .2-1.6c0-.6-.1-1.1-.2-1.6s-.3-1-.6-1.4c-.3-.4-.6-.7-1.1-1-.4-.2-1-.4-1.6-.4-.6 0-1.2.1-1.6.4s-.8.6-1.1 1c-.3.4-.5.9-.6 1.4s-.2 1.1-.2 1.6c0 .6.1 1.1.2 1.6zM63 29v-2.4h10.5V29h-3.9v10.5h-2.8V29H63zM77.7 26.6v4.9h5.2v-4.9h2.8v12.9h-2.8V34h-5.2v5.5h-2.8V26.6h2.8zM95.2 26.6v4.7c.3-.5.7-.8 1.3-1.1.5-.2 1.1-.3 1.7-.3.5 0 .9.1 1.4.3.5.2.9.5 1.2.9.4.4.7.9.9 1.5s.3 1.4.3 2.2c0 .9-.1 1.6-.3 2.2s-.5 1.1-.9 1.5c-.4.4-.8.7-1.2.9-.5.2-.9.3-1.4.3-.7 0-1.3-.1-1.8-.3s-.9-.6-1.2-1.1v1.2h-2.4V26.6h2.4zm4.1 7.1c-.1-.4-.2-.7-.4-1-.2-.3-.4-.5-.7-.7s-.6-.2-1-.2-.7.1-1 .2c-.3.2-.5.4-.7.7-.2.3-.3.6-.4 1-.1.4-.1.7-.1 1.1 0 .4 0 .8.1 1.1.1.4.2.7.4 1 .2.3.4.5.7.7.3.2.6.2 1 .2s.7-.1 1-.2.5-.4.7-.7c.2-.3.3-.6.4-1 .1-.4.1-.7.1-1.1 0-.4 0-.8-.1-1.1zM106.9 42.2c-.5.3-1.2.5-2.1.5h-.8c-.3 0-.5 0-.8-.1v-2.1c.2 0 .5 0 .7.1h.8c.3 0 .6-.2.7-.4.2-.2.2-.5.2-.8 0-.2 0-.4-.1-.6l-3.3-8.7h2.7l2.1 6.4 2-6.4h2.6L108 40.6c-.3.7-.7 1.3-1.1 1.6zM117.5 28.7v-2.1h2.6v2.1h-2.6zm2.5 1.4v9.3h-2.6v-9.3h2.6zM127 30.1v1.7h-1.9v4.6c0 .4.1.7.2.9.1.1.4.2.9.2h.4c.1 0 .3 0 .4-.1v2c-.2 0-.5.1-.7.1h-.8c-.4 0-.8 0-1.1-.1-.4-.1-.7-.2-.9-.3-.3-.2-.5-.4-.6-.7-.2-.3-.2-.7-.2-1.1v-5.5H121v-1.7h1.5v-2.8h2.6v2.8h1.9zM130.2 37.1c.1.2.3.4.4.5s.4.2.6.3.5.1.7.1c.2 0 .4 0 .6-.1.2 0 .4-.1.5-.2s.3-.2.4-.4c.1-.1.2-.3.2-.6 0-.4-.3-.7-.8-.9-.5-.2-1.2-.4-2.1-.6-.4-.1-.7-.2-1.1-.3-.4-.1-.7-.3-.9-.5-.3-.2-.5-.4-.7-.7-.2-.3-.3-.6-.3-1 0-.6.1-1.1.4-1.5.2-.4.5-.7.9-.9.4-.2.8-.4 1.3-.5s1-.1 1.5-.1 1 0 1.5.1.9.3 1.3.5.7.5.9.9c.2.4.4.9.4 1.4h-2.4c0-.5-.2-.8-.6-1s-.7-.3-1.2-.3h-.5c-.2 0-.3.1-.5.1-.1.1-.3.1-.4.3-.1.1-.1.3-.1.5s.1.4.3.6c.2.1.4.3.7.4s.6.2.9.2.7.2 1.1.2c.4.1.7.2 1.1.3s.7.3.9.5c.3.2.5.4.7.7.2.3.3.7.3 1.1 0 .6-.1 1.1-.4 1.5s-.6.7-1 1-.8.4-1.4.5c-.5.1-1 .2-1.6.2-.5 0-1.1-.1-1.6-.2s-1-.3-1.4-.5c-.4-.3-.7-.6-1-1-.3-.4-.4-.9-.4-1.6h2.4c.2.6.3.8.4 1zM144.5 39.4l-4.2-12.9h2.9l2.9 9 2.9-9h2.9l-4.3 12.9h-3.1zM162.5 26.6V29h-6.8v2.8h6.2V34h-6.2v3.2h6.9v2.4h-9.8v-13h9.7zM167.2 26.6l5.4 8.6v-8.6h2.6v12.9h-2.8l-5.3-8.6v8.6h-2.6V26.6h2.7zM187.2 26.6V29h-6.8v2.8h6.2V34h-6.2v3.2h6.9v2.4h-9.8v-13h9.7zM198.7 26.6V29h-6.8v2.8h6.2V34h-6.2v3.2h6.9v2.4H189v-13h9.7zM207.5 26.6c.6 0 1.1.1 1.6.3.5.2.9.4 1.2.8.3.3.6.7.8 1.1s.3.9.3 1.4c0 .8-.2 1.4-.5 2-.3.6-.8 1-1.6 1.3.3.1.6.2.9.4.2.2.4.4.6.7l.3.9c.1.3.1.6.1 1v.7c0 .3 0 .6.1.8 0 .3.1.6.1.8.1.3.2.5.3.7h-2.8c-.2-.4-.3-.9-.3-1.5s-.1-1.1-.2-1.6c-.1-.7-.3-1.2-.6-1.5-.3-.3-.8-.5-1.5-.5h-2.8v5h-2.8V26.6h6.8zm-1 5.8c.6 0 1.1-.1 1.5-.4s.5-.8.5-1.4c0-.6-.2-1.1-.5-1.4-.3-.3-.8-.4-1.5-.4h-3.1v3.6h3.1zM216 36.7v2.8h-2.8v-2.8h2.8z"/></g></svg>