<svg baseProfile="tiny" xmlns="http://www.w3.org/2000/svg" viewBox="0 0 320 50" overflow="visible"><g fill="#231F20"><path d="M135 14.8c-.1-.2-.2-.3-.4-.5-.2-.1-.3-.2-.5-.3-.2-.1-.4-.1-.6-.1-.4 0-.8.1-1 .2-.3.2-.5.4-.7.6-.2.3-.3.6-.4.9-.1.3-.1.7-.1 1 0 .3 0 .7.1 1 .1.3.2.6.4.9.2.3.4.5.7.6s.6.2 1 .2c.6 0 1-.2 1.3-.5s.5-.8.6-1.3h1.7c0 .5-.2 1-.4 1.4-.2.4-.4.8-.8 1.1-.3.3-.7.5-1.1.7-.4.2-.9.2-1.4.2-.6 0-1.2-.1-1.7-.3-.5-.2-.9-.5-1.3-.9-.3-.4-.6-.8-.8-1.4-.2-.5-.3-1.1-.3-1.7 0-.6.1-1.2.3-1.7.2-.5.4-1 .8-1.4.3-.4.8-.7 1.3-.9.5-.2 1.1-.3 1.7-.3.5 0 .9.1 1.3.2s.8.3 1.1.6c.3.2.6.6.8.9.2.4.3.8.4 1.3h-1.7c-.1-.2-.2-.4-.3-.5zM139.5 14.8v1.1c.1-.2.2-.4.3-.5l.4-.4c.2-.1.3-.2.5-.3.2-.1.4-.1.6-.1.1 0 .2 0 .4.1v1.5h-.6c-.3 0-.6 0-.8.1s-.4.2-.5.4l-.3.6c-.1.2-.1.5-.1.7v2.7H138v-5.9h1.5zM142.4 13.9v-1.3h1.6v1.3h-1.6zm1.6.9v5.9h-1.6v-5.9h1.6zM148.5 14.8v1.1h-1.2v2.9c0 .3 0 .5.1.6.1.1.3.1.6.1h.5v1.3h-1c-.3 0-.5 0-.7-.1-.2 0-.4-.1-.6-.2s-.3-.2-.4-.4-.1-.4-.1-.7v-3.5h-1v-1.1h1V13h1.6v1.8h1.2zM149.2 13.9v-1.3h1.6v1.3h-1.6zm1.6.9v5.9h-1.6v-5.9h1.6zM154.8 15.9c-.3 0-.5.1-.7.2-.2.1-.3.3-.4.5-.1.2-.2.4-.2.6 0 .2-.1.5-.1.7 0 .2 0 .4.1.7 0 .2.1.4.2.6s.2.3.4.4c.2.1.4.2.6.2.4 0 .7-.1.9-.3.2-.2.3-.5.4-.9h1.6c-.1.8-.4 1.4-.9 1.8-.5.4-1.2.6-1.9.6-.4 0-.9-.1-1.2-.2-.4-.1-.7-.4-.9-.6-.3-.3-.5-.6-.6-1-.1-.4-.2-.8-.2-1.2 0-.5.1-.9.2-1.3s.3-.7.6-1 .6-.5 1-.7c.4-.2.8-.2 1.3-.2.4 0 .7 0 1 .1.3.1.6.2.9.4.3.2.5.4.6.7.2.3.3.6.3 1h-1.6c-.3-.8-.7-1.1-1.4-1.1zM158.4 16.7c0-.4.1-.7.3-1 .2-.3.4-.5.6-.6.3-.2.6-.3.9-.3.3-.1.7-.1 1-.1.3 0 .6 0 .9.1.3 0 .6.1.8.2s.5.3.6.5c.2.2.2.5.2.9V20.3c0 .2.1.4.2.6h-1.7c0-.1-.1-.2-.1-.3v-.3c-.3.3-.6.5-.9.6-.4.1-.7.2-1.1.2-.3 0-.5 0-.8-.1-.2-.1-.5-.2-.6-.3s-.3-.3-.4-.6c-.1-.2-.2-.5-.2-.8 0-.3.1-.6.2-.8.1-.2.3-.4.5-.5l.6-.3c.2-.1.5-.1.7-.2.2 0 .5-.1.7-.1.2 0 .4-.1.6-.1.2 0 .3-.1.4-.2.1-.1.2-.2.1-.4 0-.2 0-.3-.1-.4-.1-.1-.1-.2-.2-.2-.1-.1-.2-.1-.3-.1h-.4c-.3 0-.6.1-.8.2-.2.1-.3.4-.3.7h-1.4zm3.8 1.2c-.1.1-.2.1-.3.1-.1 0-.2.1-.3.1-.1 0-.2 0-.4.1-.1 0-.3 0-.4.1-.1 0-.2.1-.4.1-.1 0-.2.1-.3.2-.1.1-.2.1-.2.2-.1.1-.1.2-.1.4 0 .1 0 .3.1.4.1.1.1.2.2.2.1.1.2.1.3.1h.4c.3 0 .6-.1.7-.2.2-.1.3-.2.4-.4.1-.1.1-.3.2-.5v-.9zM166.7 12.6v8.2H165v-8.2h1.7zM172.9 12.6v8.2h-1.8v-8.2h1.8zM175.9 12.6v8.2h-1.6v-8.2h1.6zM178.8 12.6v8.2h-1.6v-8.2h1.6zM181.5 14.8v.8c.2-.3.5-.6.8-.8.3-.2.7-.2 1-.2.4 0 .8.1 1.1.2.3.1.5.3.7.5s.3.5.3.8.1.6.1 1v3.7h-1.6v-3.4c0-.5-.1-.9-.2-1.1-.2-.2-.4-.4-.8-.4s-.8.1-1 .4c-.2.3-.3.7-.3 1.3v3.1H180v-5.9h1.5zM188.4 19.3c.2.2.6.4 1.1.4.3 0 .6-.1.9-.2.2-.2.4-.3.4-.5h1.4c-.2.7-.6 1.2-1.1 1.5-.5.3-1.1.5-1.7.5-.5 0-.9-.1-1.3-.2s-.7-.4-1-.6c-.3-.3-.5-.6-.6-1-.1-.4-.2-.8-.2-1.3 0-.4.1-.9.2-1.2s.4-.7.6-1 .6-.5 1-.7c.4-.2.8-.2 1.2-.2.5 0 .9.1 1.3.3.4.2.7.5.9.8.2.3.4.7.5 1.1.1.4.1.9.1 1.3H188c0 .4.2.8.4 1zm1.8-3.1c-.2-.2-.5-.3-.9-.3-.3 0-.5 0-.6.1-.2.1-.3.2-.4.3s-.2.3-.2.4-.1.3-.1.5h2.7c-.1-.5-.3-.8-.5-1zM194.5 19.3l.3.3c.1.1.2.1.4.2.1 0 .3.1.5.1h.4c.1 0 .2-.1.3-.1s.2-.1.3-.2.1-.2.1-.4-.2-.4-.5-.6c-.3-.1-.8-.2-1.4-.4-.2-.1-.5-.1-.7-.2l-.6-.3c-.2-.1-.3-.3-.4-.4s-.2-.4-.2-.7c0-.4.1-.7.2-.9.2-.2.3-.4.6-.6.2-.1.5-.2.8-.3.3-.1.6-.1.9-.1.3 0 .6 0 .9.1.3.1.6.2.8.3.2.1.4.3.6.6.2.2.3.5.3.9h-1.6c0-.3-.1-.5-.4-.6-.2-.1-.5-.2-.8-.2h-.3c-.1 0-.2 0-.3.1-.1 0-.2.1-.2.2-.1.1-.1.2-.1.3 0 .1.1.3.2.4s.2.2.4.2c.2.1.4.1.6.2s.4.1.7.1c.2.1.5.1.7.2l.6.3c.2.1.3.3.4.5.1.2.2.4.2.7 0 .4-.1.7-.2 1s-.4.5-.6.6-.5.3-.9.3c-.3.1-.7.1-1 .1-.3 0-.7 0-1-.1l-.9-.3c-.3-.2-.5-.4-.6-.6-.2-.3-.3-.6-.3-1h1.6c.1 0 .2.2.2.3zM200.6 19.3l.3.3c.1.1.2.1.4.2.1 0 .3.1.5.1h.4c.1 0 .2-.1.3-.1s.2-.1.3-.2.1-.2.1-.4-.2-.4-.5-.6c-.3-.1-.8-.2-1.4-.4-.2-.1-.5-.1-.7-.2l-.6-.3c-.2-.1-.3-.3-.4-.4s-.2-.4-.2-.7c0-.4.1-.7.2-.9.2-.2.3-.4.6-.6.2-.1.5-.2.8-.3.3-.1.6-.1.9-.1.3 0 .6 0 .9.1.3.1.6.2.8.3.2.1.4.3.6.6.2.2.3.5.3.9h-1.6c0-.3-.1-.5-.4-.6-.2-.1-.5-.2-.8-.2h-.3c-.1 0-.2 0-.3.1-.1 0-.2.1-.2.2-.1.1-.1.2-.1.3 0 .1.1.3.2.4s.2.2.4.2c.2.1.4.1.6.2s.4.1.7.1c.2.1.5.1.7.2l.6.3c.2.1.3.3.4.5.1.2.2.4.2.7 0 .4-.1.7-.2 1s-.4.5-.6.6-.5.3-.9.3c-.3.1-.7.1-1 .1-.3 0-.7 0-1-.1l-.9-.3c-.3-.2-.5-.4-.6-.6-.2-.3-.3-.6-.3-1h1.6c.1 0 .1.2.2.3z"/></g><g fill="#231F20"><path d="M142.7 25.1v8.2h-1.8v-8.2h1.8zM145.6 27.3v.8c.2-.3.5-.6.8-.8.3-.2.7-.2 1-.2.4 0 .8.1 1.1.2s.5.3.7.5c.2.2.3.5.3.8.1.3.1.6.1 1v3.7H148v-3.4c0-.5-.1-.9-.2-1.1s-.4-.4-.8-.4-.8.1-1 .4c-.2.3-.3.7-.3 1.3v3.1H144v-5.9h1.6zM152.1 31.8l.3.3c.1.1.2.1.4.2.1 0 .3.1.5.1h.4c.1 0 .2-.1.3-.1.1-.1.2-.1.3-.2s.1-.2.1-.4-.2-.4-.5-.6c-.3-.1-.8-.2-1.4-.4-.2-.1-.5-.1-.7-.2l-.6-.3c-.2-.1-.3-.3-.4-.4s-.2-.4-.2-.7c0-.4.1-.7.2-.9.1-.2.3-.4.6-.6.2-.1.5-.2.8-.3.3-.1.6-.1.9-.1.3 0 .6 0 .9.1s.6.2.8.3c.2.1.4.3.6.6.2.2.3.5.3.9h-1.6c0-.3-.1-.5-.4-.6-.2-.1-.5-.2-.8-.2h-.3c-.1 0-.2 0-.3.1-.1 0-.2.1-.2.2-.1.1-.1.2-.1.3 0 .1.1.3.2.4.1.1.2.2.4.2.2.1.4.1.6.2.2 0 .4.1.7.2.2.1.5.1.7.2l.6.3c.2.1.3.3.4.5.1.2.2.4.2.7 0 .4-.1.7-.2 1-.2.3-.4.5-.6.6-.3.2-.5.3-.9.3-.3.1-.7.1-1 .1-.3 0-.7 0-1-.1l-.9-.3c-.3-.1-.5-.4-.6-.6-.2-.3-.3-.6-.3-1h1.6c.1-.1.2.1.2.2zM160.8 33.3v-.8c-.2.3-.5.6-.8.7-.3.2-.7.2-1 .2-.4 0-.8-.1-1.1-.2-.3-.1-.5-.3-.7-.5s-.3-.5-.3-.8c-.1-.3-.1-.6-.1-1v-3.7h1.6v3.4c0 .5.1.9.2 1.1s.4.4.8.4.8-.1 1-.4.3-.7.3-1.3v-3.1h1.6v5.9h-1.5zM165.1 27.3v1.1c.1-.2.2-.4.3-.5.1-.2.3-.3.4-.4.2-.1.3-.2.5-.3s.4-.1.6-.1c.1 0 .2 0 .4.1v1.5h-.6c-.3 0-.6 0-.8.1-.2.1-.4.2-.5.4l-.3.6c-.1.2-.1.5-.1.7v2.7h-1.6v-5.9h1.7zM167.8 29.2c0-.4.1-.7.3-1 .2-.3.4-.5.6-.6.3-.2.6-.3.9-.3s.7-.1 1-.1c.3 0 .6 0 .9.1.3 0 .6.1.8.2s.5.3.6.5c.2.2.2.5.2.9V32.8c0 .3.1.4.2.6h-1.7c0-.1-.1-.2-.1-.3v-.3c-.3.3-.6.5-.9.6s-.7.2-1.1.2c-.3 0-.5 0-.8-.1s-.5-.2-.6-.3c-.2-.1-.3-.3-.4-.6-.1-.2-.2-.5-.2-.8 0-.3.1-.6.2-.8.1-.2.3-.4.5-.5l.6-.3c.2-.1.5-.1.7-.2.2 0 .5-.1.7-.1.2 0 .4-.1.6-.1.2 0 .3-.1.4-.2.1-.1.2-.2.1-.4 0-.2 0-.3-.1-.4-.1-.1-.1-.2-.2-.2s-.2-.1-.3-.1h-.4c-.3 0-.6.1-.8.2-.2.1-.3.4-.3.7h-1.4zm3.8 1.2c-.1.1-.2.1-.3.1s-.2.1-.3.1c-.1 0-.2 0-.4.1-.1 0-.3 0-.4.1-.1 0-.2.1-.4.1-.1 0-.2.1-.3.2-.1.1-.2.1-.2.2s-.1.2-.1.4c0 .1 0 .3.1.4s.1.2.2.2.2.1.3.1h.4c.3 0 .6-.1.7-.2.2-.1.3-.2.4-.4.1-.1.1-.3.2-.5v-.9zM176 27.3v.8c.2-.3.5-.6.8-.8.3-.2.7-.2 1-.2.4 0 .8.1 1.1.2.3.1.5.3.7.5s.3.5.3.8.1.6.1 1v3.7h-1.6v-3.4c0-.5-.1-.9-.2-1.1-.2-.2-.4-.4-.8-.4s-.8.1-1 .4c-.2.3-.3.7-.3 1.3v3.1h-1.6v-5.9h1.5zM184 28.4c-.3 0-.5.1-.7.2-.2.1-.3.3-.4.5-.1.2-.2.4-.2.6 0 .2-.1.5-.1.7 0 .2 0 .4.1.7 0 .2.1.4.2.6.1.2.2.3.4.4.2.1.4.2.6.2.4 0 .7-.1.9-.3.2-.2.3-.5.4-.9h1.6c-.1.8-.4 1.4-.9 1.8s-1.2.6-1.9.6c-.4 0-.9-.1-1.2-.2-.4-.1-.7-.4-.9-.6s-.5-.6-.6-1c-.1-.4-.2-.8-.2-1.2 0-.5.1-.9.2-1.3s.3-.7.6-1 .6-.5 1-.7c.4-.2.8-.2 1.3-.2.4 0 .7 0 1 .1.3.1.6.2.9.4.3.2.5.4.6.7.2.3.3.6.3 1h-1.6c-.3-.8-.7-1.1-1.4-1.1zM189.4 31.8c.2.2.6.4 1.1.4.3 0 .6-.1.9-.2.2-.2.4-.3.4-.5h1.4c-.2.7-.6 1.2-1.1 1.5-.5.3-1.1.5-1.7.5-.5 0-.9-.1-1.3-.2s-.7-.4-1-.6c-.3-.3-.5-.6-.6-1-.1-.4-.2-.8-.2-1.3 0-.4.1-.9.2-1.2s.4-.7.6-1c.3-.3.6-.5 1-.7.4-.2.8-.2 1.2-.2.5 0 .9.1 1.3.3.4.2.7.5.9.8.2.3.4.7.5 1.1s.1.9.1 1.3H189c0 .4.1.8.4 1zm1.8-3.1c-.2-.2-.5-.3-.9-.3-.3 0-.5 0-.6.1s-.3.2-.4.3-.2.3-.2.4-.1.3-.1.4h2.7c-.2-.4-.3-.7-.5-.9z"/></g></svg>