<svg id="Layer_1" xmlns="http://www.w3.org/2000/svg" viewBox="0 0 320 50"><style>.st0{fill:#349946}.st1{fill:#231f20}.st2{fill:none}</style><path class="st0" d="M12.8 34.1h-1.1l-.4-1.1H9.1l-.4 1.1H7.6l2-5.2h.8c.3 0 .5.1.5.3.1.2 1 2.5 1 2.5h-1l-.6-1.8-.8 2.2h2.2c.3 0 .5.1.5.3l.6 1.7zM22.6 34.1h-1.1l-.4-1.1h-2.2l-.4 1.1h-1.1l2-5.2h.8c.3 0 .5.1.5.3.1.2 1 2.5 1 2.5h-1l-.7-1.8-.8 2.2h2.2c.3 0 .5.1.5.3l.7 1.7zM13.1 28.9h2c1.6 0 2.4.8 2.4 2.6 0 1-.3 1.7-.8 2.1-.5.4-1.1.5-1.8.5h-1.7v-5.2zm1.9 4.2c1 0 1.4-.5 1.4-1.7s-.4-1.7-1.3-1.7h-1V33h.9z"/><path class="st1" d="M31.4 34h-.8l-.3-3.7L29 34h-.7L27 30.3l-.3 3.7h-.8l.5-4.9h.9l1.3 3.8 1.3-3.8h.9l.6 4.9zM35.4 32.2V32.5H33c0 .3.1.5.2.7.2.2.5.3.8.3.3 0 .6-.1 1-.3l.3.5c-.4.3-.8.4-1.3.4-.6 0-1-.2-1.3-.5-.3-.3-.5-.8-.5-1.3 0-.6.2-1 .5-1.4.3-.4.7-.5 1.2-.5s.9.2 1.1.5.4.7.4 1.3zm-.8-.3c0-.2 0-.4-.1-.6-.1-.2-.3-.3-.6-.3s-.5.1-.6.3c-.2.2-.3.4-.3.7h1.6zM41.3 34h-.8v-2c0-.4 0-.7-.1-.8-.1-.1-.2-.2-.4-.2-.3 0-.5.1-.8.3 0 .1.1.4.1.8V34h-.8v-2c0-.5-.1-.8-.2-.9-.1-.1-.2-.1-.4-.1-.3 0-.5.1-.8.2V34h-.8v-3.6h.7v.3c.3-.2.7-.4 1.1-.4.4 0 .7.1.9.4.4-.3.8-.4 1.2-.4.4 0 .7.1.9.3.2.2.3.4.3.7V34zM45.5 32.2c0 .6-.2 1.1-.5 1.4s-.8.5-1.4.5c-.4 0-.9-.1-1.4-.3v-5.2h.8v1.9c.3-.2.6-.3.9-.3.5 0 .8.2 1.1.5.3.5.5.9.5 1.5zm-.8 0c0-.4-.1-.7-.3-.9-.2-.2-.4-.3-.6-.3-.3 0-.5.1-.8.3v2.1c.2.1.4.1.6.1.3 0 .6-.1.8-.4s.3-.5.3-.9zM49.3 32.2V32.5h-2.4c0 .3.1.5.2.7.2.2.5.3.8.3.3 0 .6-.1 1-.3l.3.5c-.4.3-.8.4-1.3.4-.6 0-1-.2-1.3-.5-.3-.3-.5-.8-.5-1.3 0-.6.2-1 .5-1.4.3-.4.7-.5 1.2-.5s.9.2 1.1.5.4.7.4 1.3zm-.7-.3c0-.2 0-.4-.1-.6-.1-.2-.3-.3-.6-.3s-.5.1-.6.3c-.2.2-.3.4-.3.7h1.6zM52.4 30.4l-.2.6H52c-.4 0-.8.2-1 .6V34h-.8v-3.6h.7v.5l.3-.3c.3-.2.5-.3.8-.3.1 0 .3.1.4.1z"/><g><path class="st1" d="M55.3 33c0 .3-.1.6-.4.8s-.6.3-1 .3c-.3 0-.6-.1-.9-.2-.2-.1-.3-.1-.4-.2l.3-.5c.4.2.7.3.9.3.2 0 .4 0 .5-.1.1-.1.2-.2.2-.3 0-.1-.1-.2-.2-.3-.1 0-.3-.1-.6-.3-.3-.1-.5-.2-.6-.3-.2-.2-.3-.4-.3-.7 0-.3.1-.6.4-.8s.6-.3 1-.3c.5 0 .9.1 1.2.3l-.4.5c-.3-.2-.6-.2-.8-.2-.4 0-.6.1-.6.4 0 .1.1.2.2.3.1 0 .2.1.5.2.4.2.6.3.7.4.2.1.3.4.3.7zM58.9 34H58v-4.9h.9V34zM62.9 34h-.8v-2c0-.5-.1-.8-.2-.9-.1-.1-.3-.2-.5-.2-.3 0-.5.1-.8.3V34h-.8v-3.6h.7v.3c.3-.2.7-.4 1.1-.4.4 0 .7.1.9.3.2.2.3.4.3.6V34zM66.3 33c0 .3-.1.6-.4.8s-.6.3-1 .3c-.3 0-.6-.1-.9-.2-.2-.1-.3-.1-.4-.2l.3-.5c.4.2.7.3.9.3.2 0 .4 0 .5-.1.1-.1.2-.2.2-.3 0-.1-.1-.2-.2-.3-.1 0-.3-.1-.6-.3-.3-.1-.5-.2-.6-.3-.2-.2-.3-.4-.3-.7 0-.3.1-.6.4-.8s.6-.3 1-.3c.5 0 .9.1 1.2.3l-.3.5c-.3-.2-.6-.2-.8-.2-.4 0-.6.1-.6.4 0 .1.1.2.2.3.1 0 .2.1.5.2.4.2.6.3.7.4 0 .1.2.4.2.7zM70.1 34h-.7v-.3c-.3.2-.7.4-1.1.4-.4 0-.7-.1-.9-.3-.2-.2-.3-.4-.3-.6v-2.7h.8V33c0 .2.1.3.2.4.1.1.2.1.4.1s.5-.1.8-.3v-2.7h.8V34zM73.3 30.4l-.2.6h-.2c-.4 0-.8.2-1 .6V34H71v-3.6h.7v.5l.3-.3c.3-.2.5-.3.8-.3.3 0 .4.1.5.1z"/></g><g><path class="st1" d="M76.5 34h-.7v-.3c-.4.2-.7.3-1.1.3-.3 0-.6-.1-.8-.3-.2-.2-.3-.5-.3-.8 0-.8.7-1.3 2-1.3h.1v-.1c0-.2 0-.4-.1-.4-.1-.1-.3-.1-.6-.1s-.6.1-1 .3l-.3-.5c.1-.1.2-.1.4-.2.3-.1.6-.2.9-.2.5 0 .9.1 1.1.4.1.1.2.3.2.5V34zm-.8-.8v-1h-.2c-.6 0-.9.1-1.1.3-.1.1-.1.2-.1.4s.1.3.2.4c.1.1.3.1.5.1.2.1.4 0 .7-.2zM80.4 34h-.8v-2c0-.5-.1-.8-.2-.9-.1 0-.2-.1-.4-.1-.3 0-.5.1-.8.3V34h-.8v-3.6h.7v.3c.3-.2.7-.4 1.1-.4.4 0 .7.1.9.3.2.2.3.4.3.6V34zM84.3 33.7c-.1.1-.2.1-.4.2-.3.1-.6.2-1 .2-.5 0-1-.2-1.3-.5-.3-.3-.5-.8-.5-1.3 0-.6.2-1 .5-1.4.4-.4.8-.5 1.3-.5.3 0 .6.1.8.2.2.1.3.2.3.2l-.3.5c-.3-.2-.5-.2-.8-.2-.3 0-.6.1-.8.4-.2.2-.3.5-.3.8 0 .4.1.7.3.9.2.2.5.3.8.3.3 0 .6-.1.9-.3l.5.5z"/></g><g><path class="st1" d="M87.9 32.2V32.5h-2.4c0 .3.1.5.2.7.2.2.5.3.8.3.3 0 .6-.1 1-.3l.3.5c-.4.3-.8.4-1.3.4-.6 0-1-.2-1.3-.5-.3-.3-.5-.8-.5-1.3 0-.6.2-1 .5-1.4.3-.4.7-.5 1.2-.5s.9.2 1.1.5.4.7.4 1.3zm-.8-.3c0-.2 0-.4-.1-.6-.1-.2-.3-.3-.6-.3s-.5.1-.6.3c-.2.2-.3.4-.3.7h1.6zM93.8 30.6c0 .5-.1.8-.4 1.1-.2.2-.5.3-.8.4-.2 0-.5.1-.9.1h-.4V34h-.8v-4.9h1.3c.4 0 .7 0 .9.1.3.1.5.2.7.4.3.2.4.6.4 1zm-.9 0c0-.3-.1-.5-.2-.6-.1-.1-.4-.2-.9-.2h-.5v1.7h.3c.5 0 .9-.1 1-.2.2-.2.3-.4.3-.7zM95.5 34h-.8v-5.3h.8V34zM99.1 34h-.7v-.3c-.4.2-.7.3-1.1.3-.3 0-.6-.1-.8-.3-.2-.2-.3-.5-.3-.8 0-.8.7-1.3 2-1.3h.1v-.1c0-.2 0-.4-.1-.4 0-.1-.2-.1-.5-.1s-.6.1-1 .3l-.3-.5c.1-.1.2-.1.4-.2.3-.1.6-.2.9-.2.5 0 .9.1 1.1.4.1.1.2.3.2.5V34zm-.7-.8v-1h-.2c-.6 0-.9.1-1.1.3-.1.2-.1.3-.1.4 0 .2.1.3.2.4.1.1.3.1.5.1.1.1.4 0 .7-.2zM103.1 34h-.8v-2c0-.5-.1-.8-.2-.9-.1-.1-.3-.2-.5-.2-.3 0-.5.1-.8.3V34h-.8v-3.6h.7v.3c.3-.2.7-.4 1.1-.4.4 0 .7.1.9.3.2.2.3.4.3.6V34zM106.4 33c0 .3-.1.6-.4.8s-.6.3-1 .3c-.3 0-.6-.1-.9-.2-.2-.1-.3-.1-.4-.2l.3-.5c.4.2.7.3.9.3.2 0 .4 0 .5-.1.1-.1.2-.2.2-.3 0-.1-.1-.2-.2-.3-.1 0-.3-.1-.6-.3-.3-.1-.5-.2-.6-.3-.2-.2-.3-.4-.3-.7 0-.3.1-.6.4-.8s.6-.3 1-.3c.5 0 .9.1 1.2.3l-.3.5c-.3-.2-.6-.2-.8-.2-.4 0-.6.1-.6.4 0 .1.1.2.2.3.1 0 .2.1.5.2.4.2.6.3.7.4.1.1.2.4.2.7z"/></g><path class="st0" d="M23.3 34.1c-.3 0-.6-.3-.6-.6s.3-.6.6-.6.6.3.6.6-.2.6-.6.6m0-1.1c-.3 0-.5.2-.5.5s.2.5.5.5.5-.2.5-.5-.2-.5-.5-.5m.2.8l-.1-.2c0-.1 0-.1-.1-.1v.3h-.1v-.6h.2c.1 0 .1 0 .2.1l.1.1c0 .1 0 .1-.1.1l.1.1.1.2h-.3zm-.1-.5c-.1 0-.1 0 0 0h-.1v.2h.1v-.2"/><path class="st2" d="M7.6 27.9h99v6.8h-99z"/></svg>