<svg id="Layer_1" xmlns="http://www.w3.org/2000/svg" viewBox="0 0 320 50"><style>.st0{fill:#393}</style><path class="st0" d="M231.2 36.5c.1-.3.3-.6.5-.9s.5-.5.8-.6c.3-.1.7-.2 1.1-.2.4 0 .8.1 1.1.2.3.1.6.3.8.6s.4.6.5.9.2.7.2 1.1c0 .4-.1.8-.2 1.1-.1.3-.3.6-.5.9s-.5.4-.8.6-.7.2-1.1.2c-.4 0-.8-.1-1.1-.2-.3-.1-.6-.3-.8-.6s-.4-.5-.5-.9c-.1-.3-.2-.7-.2-1.1.1-.4.1-.8.2-1.1zm1.1 1.8c.1.2.1.4.3.6.1.2.3.3.4.4.2.1.4.2.7.2.3 0 .5-.1.7-.2.2-.1.3-.2.5-.4l.3-.6c.1-.2.1-.4.1-.7 0-.2 0-.5-.1-.7-.1-.2-.1-.4-.3-.6-.1-.2-.3-.3-.5-.4-.2-.1-.4-.2-.7-.2-.3 0-.5.1-.7.2-.2.1-.3.2-.4.4l-.3.6c-.1.2-.1.4-.1.7 0 .2.1.5.1.7zM238 36.4v.5c.1-.2.3-.4.5-.5s.4-.2.7-.2c.3 0 .5 0 .7.1s.3.2.4.3c.1.1.2.3.2.5s.1.4.1.7v2.4h-1.1V38c0-.3 0-.6-.2-.7-.1-.2-.3-.2-.5-.2-.3 0-.5.1-.6.3s-.2.5-.2.9v2h-1v-3.9h1zM242.6 34.9v5.4h-1.1v-5.4h1.1zM244.8 41.4c-.2.1-.5.2-.9.2h-.6v-.9h.6c.1 0 .2-.1.3-.2.1-.1.1-.2.1-.3V40l-1.4-3.6h1.1l1 2.6.8-2.7h1.1l-1.6 4.4c-.1.4-.3.6-.5.7zM249 37.1v-.7h.6v-.3c0-.3.1-.6.3-.8.2-.2.5-.3 1-.3h.6v.8h-.4c-.1 0-.2 0-.3.1s-.1.2-.1.3v.2h.7v.7h-.7v3.2h-1.1v-3.2h-.6zM251.9 37.5c.1-.3.2-.5.4-.6.2-.2.4-.3.6-.4.2-.1.5-.1.8-.1.3 0 .6 0 .8.1s.5.2.6.4.3.4.4.6c.1.3.1.5.1.8 0 .3 0 .6-.1.8-.1.2-.2.5-.4.6-.2.2-.4.3-.6.4s-.5.1-.8.1c-.3 0-.6 0-.8-.1-.2-.1-.5-.2-.6-.4-.2-.2-.3-.4-.4-.6-.1-.2-.1-.5-.1-.8-.1-.3 0-.6.1-.8zm1 1.3c0 .1.1.3.2.4l.3.3c.1.1.3.1.4.1.2 0 .3 0 .5-.1l.3-.3c.1-.1.1-.2.2-.4s0-.3 0-.5v-.5c0-.2-.1-.3-.2-.4l-.3-.3c-.1-.1-.3-.1-.5-.1s-.3 0-.4.1l-.3.3c-.1.1-.1.2-.2.4v.5c-.1.2-.1.3 0 .5zM257.5 36.4v.7c0-.1.1-.2.2-.3l.3-.3c.1-.1.2-.1.4-.2s.3-.1.4-.1h.2v1h-.4c-.2 0-.4 0-.5.1l-.3.3c-.1.1-.1.2-.2.4 0 .2-.1.3-.1.5v1.7h-1.1v-3.9h1.1zM264.2 34.9l2 5.4H265l-.4-1.2h-2l-.4 1.2H261l2-5.4h1.2zm.1 3.3l-.7-2-.7 2h1.4zM269 34.9c.3 0 .7.1 1 .2.3.1.6.3.8.5.2.2.4.5.5.8.1.3.2.7.2 1.2 0 .4-.1.8-.2 1.1-.1.3-.3.6-.5.9-.2.2-.5.4-.8.6-.3.1-.7.2-1.1.2h-2.3V35h2.4zm-.1 4.4c.2 0 .3 0 .5-.1s.3-.1.4-.3c.1-.1.2-.3.3-.5s.1-.5.1-.8c0-.3 0-.5-.1-.7-.1-.2-.1-.4-.3-.6s-.3-.3-.5-.4c-.2-.1-.4-.1-.7-.1h-.8v3.4h1.1zM274.9 34.9l2 5.4h-1.2l-.4-1.2h-2l-.4 1.2h-1.2l2-5.4h1.2zm.1 3.3l-.7-2-.7 2h1.4zM281.1 34.9l1.3 3.7 1.2-3.7h1.7v5.4h-1.1v-3.8l-1.3 3.8h-.9l-1.3-3.8v3.8h-1.1v-5.4h1.5zM287.3 39.3c.2.2.4.2.7.2.2 0 .4-.1.6-.2s.2-.2.3-.3h.9c-.2.5-.4.8-.7 1-.3.2-.7.3-1.1.3-.3 0-.6 0-.8-.1-.2-.1-.5-.2-.6-.4s-.3-.4-.4-.6c-.1-.2-.1-.5-.1-.8 0-.3 0-.6.1-.8.1-.2.2-.5.4-.6.2-.2.4-.3.6-.4.2-.1.5-.2.8-.2.3 0 .6.1.9.2.2.1.4.3.6.5.2.2.3.5.3.7.1.3.1.6.1.9H287c.1.2.2.5.3.6zm1.2-2c-.1-.1-.3-.2-.6-.2-.2 0-.3 0-.4.1-.1.1-.2.1-.3.2s-.1.2-.1.3v.3h1.7c-.1-.4-.2-.6-.3-.7zM291.5 36.4v.5c.1-.2.3-.4.5-.5.2-.1.4-.2.7-.2.2 0 .5 0 .7.1.2.1.4.3.5.5.1-.2.3-.3.5-.4s.4-.2.7-.2c.2 0 .4 0 .6.1s.3.1.5.2c.1.1.2.3.3.4s.1.4.1.6v2.6h-1.1v-2.2-.4c0-.1 0-.2-.1-.3s-.1-.2-.2-.2-.2-.1-.4-.1-.3 0-.4.1c-.1.1-.2.1-.2.2-.1.1-.1.2-.1.3v2.6H293v-2.2-.3c0-.1 0-.2-.1-.3 0-.1-.1-.2-.2-.2-.1-.1-.2-.1-.4-.1h-.2c-.1 0-.2.1-.2.1s-.1.2-.2.3c-.1.1-.1.3-.1.5v2.2h-1.1v-3.9h1zM298.3 34.9v2c.1-.2.3-.3.5-.4s.5-.1.7-.1c.2 0 .4 0 .6.1.2.1.4.2.5.4s.3.4.4.6.1.6.1.9c0 .4 0 .7-.1.9-.1.3-.2.5-.4.6s-.3.3-.5.4c-.2.1-.4.1-.6.1-.3 0-.5 0-.8-.1-.2-.1-.4-.2-.5-.5v.5h-1v-5.4h1.1zm1.8 3c0-.2-.1-.3-.2-.4l-.3-.3c-.1-.1-.2-.1-.4-.1s-.3 0-.4.1l-.3.3c-.1.1-.1.2-.2.4 0 .1-.1.3-.1.5s0 .3.1.5c0 .1.1.3.2.4l.3.3c.1.1.2.1.4.1s.3 0 .4-.1l.3-.3c.1-.1.1-.2.2-.4 0-.2.1-.3.1-.5-.1-.2-.1-.4-.1-.5zM303 39.3c.2.2.4.2.7.2.2 0 .4-.1.6-.2s.2-.2.3-.3h.9c-.2.5-.4.8-.7 1-.3.2-.7.3-1.1.3-.3 0-.6 0-.8-.1-.2-.1-.5-.2-.6-.4s-.3-.4-.4-.6c-.1-.2-.1-.5-.1-.8 0-.3 0-.6.1-.8.1-.2.2-.5.4-.6.2-.2.4-.3.6-.4.2-.1.5-.2.8-.2.3 0 .6.1.9.2.2.1.4.3.6.5.2.2.3.5.3.7.1.3.1.6.1.9h-2.8c-.1.2 0 .5.2.6zm1.2-2c-.1-.1-.3-.2-.6-.2-.2 0-.3 0-.4.1-.1.1-.2.1-.3.2s-.1.2-.1.3v.3h1.7c-.1-.4-.2-.6-.3-.7zM307.2 36.4v.7c0-.1.1-.2.2-.3l.3-.3c.1-.1.2-.1.4-.2s.3-.1.4-.1h.2v1h-.4c-.2 0-.4 0-.5.1l-.3.3c-.1.1-.1.2-.2.4 0 .2-.1.3-.1.5v1.7h-1.1v-3.9h1.1zM310 39.3c0 .1.1.2.2.2.1.1.2.1.3.1h.5c.1 0 .2 0 .2-.1.1 0 .1-.1.2-.2s.1-.1.1-.2c0-.2-.1-.3-.3-.4-.2-.1-.5-.2-.9-.2-.2 0-.3-.1-.5-.1s-.3-.1-.4-.2l-.3-.3c-.1-.1-.1-.3-.1-.4 0-.2 0-.5.1-.6.1-.2.2-.3.4-.4.2-.1.3-.2.5-.2s.4-.1.6-.1.4 0 .6.1c.2 0 .4.1.5.2s.3.2.4.4c.1.2.2.4.2.6h-1c0-.2-.1-.3-.2-.4s-.3-.1-.5-.1h-.4c-.1 0-.1.1-.1.1s-.1.1-.1.2 0 .2.1.2c.1.1.2.1.3.1s.2.1.4.1c.1 0 .3.1.4.1.2 0 .3.1.5.1.1 0 .3.1.4.2l.3.3c.1.1.1.3.1.5 0 .3-.1.5-.2.6-.1.2-.2.3-.4.4s-.4.2-.6.2c-.2 0-.4.1-.6.1-.2 0-.4 0-.7-.1s-.4-.1-.6-.2c-.2-.1-.3-.2-.4-.4s-.2-.4-.2-.6h1c.1.2.1.3.2.4z"/></svg>