<svg id="Layer_1" xmlns="http://www.w3.org/2000/svg" xmlns:xlink="http://www.w3.org/1999/xlink" viewBox="0 0 320 50"><style>.st0,.st1{clip-path:url(#SVGID_00000063626511156343010000000013376256390063146132_);fill:#231f20}.st1{fill:#00b2ee}</style><defs><path id="SVGID_1_" d="M40 13.6h35v11.9H40z"/></defs><clipPath id="SVGID_00000044893023288732850520000007243919907809042344_"><use xlink:href="#SVGID_1_" overflow="visible"/></clipPath><path d="M40.2 20h1.9c1.5 0 1.8 1 1.8 1.6 0 .6-.3 1.6-1.8 1.6h-1v2h-.9V20zm.9 2.5h.9c.4 0 .9-.2.9-.9s-.4-.9-.9-.9h-.9v1.8zM44.4 21.4h.8v.7c.1-.4.6-.8 1.1-.8h.3v.8h-.4c-.6 0-1 .5-1 1.3v1.8h-.8v-3.8zM46.7 23.3c0-1.2.7-2 1.9-2s1.9.8 1.9 2-.7 2-1.9 2-1.9-.8-1.9-2m3 0c0-.6-.3-1.3-1.1-1.3s-1.1.7-1.1 1.3c0 .7.3 1.3 1.1 1.3s1.1-.6 1.1-1.3M50.7 21.4h.7v-1.1h.8v1.1h.8v.6h-.8v2c0 .3 0 .5.4.5h.4v.6h-.5c-.9 0-1-.3-1-1v-2.2h-.6v-.5zM54.1 23.5c0 .6.3 1.1 1 1.1.5 0 .8-.2.9-.6h.8c-.2.8-.9 1.3-1.7 1.3-1.2 0-1.8-.8-1.8-2 0-1.1.7-2 1.8-2 1.2 0 1.9 1.1 1.8 2.2h-2.8zM56 23c0-.5-.4-1-.9-1-.6 0-1 .4-1 1H56zM60 22.7c-.1-.5-.4-.7-.9-.7-.4 0-1 .2-1 1.4 0 .6.3 1.3 1 1.3.5 0 .8-.3.9-.9h.8c-.2 1-.8 1.5-1.7 1.5-1.2 0-1.8-.8-1.8-1.9 0-1.1.6-2 1.9-2 .9 0 1.6.4 1.7 1.4H60zM61 21.4h.6v-1.1h.8v1.1h.8v.6h-.8v2c0 .3 0 .5.4.5h.3v.6h-.5c-.9 0-1-.3-1-1v-2.2H61v-.5zM64.2 20h.8v.8h-.8V20zm0 1.4h.8v3.8h-.8v-3.8zM65.6 21.4h1l1.1 2.9 1.2-2.9h.8l-1.5 3.8h-1zM70.8 23.5c0 .6.3 1.1 1 1.1.5 0 .8-.2.9-.6h.8c-.2.8-.9 1.3-1.7 1.3-1.2 0-1.8-.8-1.8-2 0-1.1.7-2 1.8-2 1.2 0 1.9 1.1 1.8 2.2h-2.8zm1.9-.5c0-.5-.4-1-.9-1-.6 0-1 .4-1 1h1.9z" clip-path="url(#SVGID_00000044893023288732850520000007243919907809042344_)" fill="#231f20"/><path d="M62.6 19.1c-.6-2.1-2.2-3.7-4.3-4.2-.2-.6-.8-1.1-1.5-1.1s-1.3.5-1.5 1.1c-2.1.5-3.7 2.1-4.3 4.2l-.1.2h1.3v-.1c.5-1.5 1.7-2.7 3.2-3.1.3.5.8.8 1.3.8s1.1-.3 1.3-.8c1.5.4 2.7 1.6 3.2 3.1v.1h1.3l.1-.2z" clip-path="url(#SVGID_00000044893023288732850520000007243919907809042344_)" fill="#00b2ee"/><path d="M74.4 24.6c.2 0 .4.2.4.4s-.2.4-.4.4-.4-.2-.4-.4.2-.4.4-.4m.3.3c0-.2-.1-.3-.3-.3s-.3.1-.3.3c0 .2.1.3.3.3s.3-.1.3-.3m-.4-.2h.2c.1 0 .1 0 .1.1s-.1.1-.1.1l.1.2h-.1l-.1-.1h-.1v.2h-.1v-.5zm.1.2c.1 0 .1 0 .1-.1s0-.1-.1-.1h-.1l.1.2z" clip-path="url(#SVGID_00000044893023288732850520000007243919907809042344_)" fill="#231f20"/></svg>