<svg id="Layer_1" xmlns="http://www.w3.org/2000/svg" viewBox="0 0 728 90"><style>.st0{fill:#231f20}</style><path class="st0" d="M33.7 33.2c-.8.3-1.6.5-2.4.5-1.3 0-2.4-.2-3.4-.7-1-.4-1.9-1-2.5-1.8s-1.2-1.7-1.6-2.7c-.4-1-.6-2.2-.6-3.3 0-1.2.2-2.4.6-3.4.4-1 .9-2 1.6-2.7.7-.8 1.5-1.4 2.5-1.8 1-.4 2.1-.7 3.4-.7.8 0 1.7.1 2.4.4.8.3 1.5.6 2.1 1.1.6.5 1.2 1.1 1.6 1.8s.7 1.5.8 2.5h-3.5c-.2-.9-.6-1.6-1.2-2.1s-1.4-.7-2.2-.7c-.8 0-1.5.2-2.1.5-.6.3-1 .7-1.4 1.3-.4.5-.6 1.1-.8 1.8s-.2 1.4-.2 2.1c0 .7.1 1.4.2 2s.4 1.2.8 1.8c.4.5.8.9 1.4 1.3.6.3 1.3.5 2.1.5 1.2 0 2.1-.3 2.8-.9.7-.6 1-1.5 1.1-2.6h-3.6v-2.7h6.9v8.9h-2.3l-.4-1.9c-.6.6-1.3 1.2-2.1 1.5zM44.4 30.5c.5.5 1.2.7 2.1.7.7 0 1.2-.2 1.7-.5s.8-.7.9-1H52c-.5 1.4-1.2 2.4-2.1 3.1-1 .6-2.1.9-3.5.9-.9 0-1.8-.1-2.5-.4-.8-.3-1.4-.7-1.9-1.3-.5-.6-.9-1.2-1.2-2s-.4-1.6-.4-2.5c0-.9.1-1.7.4-2.5.3-.8.7-1.4 1.2-2 .5-.6 1.2-1 1.9-1.3.7-.3 1.6-.5 2.5-.5 1 0 1.9.2 2.6.6s1.4.9 1.9 1.6.8 1.4 1 2.3c.2.8.3 1.7.2 2.6h-8.6c.1.9.4 1.7.9 2.2zm3.7-6.3c-.4-.4-1-.6-1.8-.6-.5 0-1 .1-1.3.3-.3.2-.6.4-.8.7s-.4.5-.4.8c-.1.3-.1.6-.1.8H49c-.2-.9-.5-1.6-.9-2zM60.4 21.4v2.2H58v5.9c0 .6.1.9.3 1.1.2.2.6.3 1.1.3h.5c.2 0 .3 0 .5-.1v2.5c-.3 0-.6.1-.9.1h-1c-.5 0-1 0-1.4-.1-.5-.1-.9-.2-1.2-.4-.3-.2-.6-.5-.8-.9-.2-.4-.3-.9-.3-1.4v-7h-2v-2.2h2v-3.6H58v3.6h2.4zM68.3 21.4v2.2h-2.4v5.9c0 .6.1.9.3 1.1.2.2.6.3 1.1.3h.5c.2 0 .3 0 .5-.1v2.5c-.3 0-.6.1-.9.1h-1c-.5 0-1 0-1.4-.1-.5-.1-.9-.2-1.2-.4-.3-.2-.6-.5-.8-.9-.2-.4-.3-.9-.3-1.4v-7h-2v-2.2h2v-3.6H66v3.6h2.3zM69.8 19.6v-2.7H73v2.7h-3.2zm3.2 1.8v11.9h-3.3V21.4H73zM78.5 21.4v1.7h.1c.4-.7 1-1.2 1.6-1.5.7-.3 1.3-.5 2-.5.9 0 1.6.1 2.2.4.6.2 1 .6 1.3 1 .3.4.5.9.7 1.5.1.6.2 1.3.2 2v7.3h-3.3v-6.7c0-1-.2-1.7-.5-2.2s-.9-.7-1.6-.7c-.9 0-1.5.3-1.9.8-.4.5-.6 1.4-.6 2.6v6.2h-3.3V21.4h3.1zM100 34.2c-.1.6-.4 1.2-.8 1.7s-1.1 1-1.9 1.3c-.8.4-1.9.6-3.3.6-.6 0-1.2-.1-1.8-.2-.6-.1-1.2-.4-1.7-.7s-.9-.7-1.2-1.2c-.3-.5-.5-1.1-.6-1.7h3.2c.2.6.5 1 .9 1.3s1 .4 1.5.4c.9 0 1.6-.3 2-.8.4-.6.6-1.2.6-2.1v-1.6c-.4.6-.9 1.1-1.5 1.4-.7.3-1.3.4-2.1.4-.9 0-1.7-.2-2.3-.5-.6-.3-1.2-.7-1.6-1.3-.4-.5-.7-1.2-.9-1.9-.2-.7-.3-1.5-.3-2.3 0-.8.1-1.5.3-2.2.2-.7.5-1.3 1-1.9.4-.5 1-1 1.6-1.3.6-.3 1.4-.5 2.2-.5.8 0 1.5.1 2.1.4.6.3 1.1.8 1.5 1.5v-1.6h3.1v11.1c.2.5.2 1.1 0 1.7zm-4.4-4c.4-.2.6-.4.9-.7s.4-.7.5-1c.1-.4.2-.8.2-1.2 0-.5 0-1-.1-1.4-.1-.4-.2-.8-.5-1.2-.2-.3-.5-.6-.9-.8-.4-.2-.8-.3-1.3-.3s-.9.1-1.2.3c-.3.2-.6.4-.8.7-.2.3-.4.7-.5 1.1-.1.4-.1.8-.1 1.3 0 .4 0 .9.1 1.3s.2.8.4 1.1c.2.3.5.6.8.8.3.2.8.3 1.3.3.4 0 .8-.1 1.2-.3zM112.2 16.9v16.4h-3.3V16.9h3.3zM114.6 24.8c.3-.8.7-1.4 1.2-2 .5-.5 1.2-1 1.9-1.3.8-.3 1.6-.4 2.5-.4.9 0 1.8.1 2.5.4.8.3 1.4.7 1.9 1.3.5.5 1 1.2 1.2 2 .3.8.4 1.6.4 2.6s-.1 1.8-.4 2.6c-.3.8-.7 1.4-1.2 2-.5.5-1.2 1-1.9 1.3-.8.3-1.6.4-2.5.4-.9 0-1.8-.1-2.5-.4-.8-.3-1.4-.7-1.9-1.3-.5-.5-1-1.2-1.2-2-.3-.8-.4-1.6-.4-2.6s.1-1.8.4-2.6zm3 4c.1.5.2.9.5 1.2.2.4.5.6.9.9.4.2.8.3 1.4.3.6 0 1-.1 1.4-.3.4-.2.7-.5.9-.9.2-.4.4-.8.5-1.2.1-.5.1-.9.1-1.4 0-.5 0-.9-.1-1.4-.1-.5-.2-.9-.5-1.2-.2-.4-.5-.6-.9-.9-.4-.2-.8-.3-1.4-.3-.6 0-1 .1-1.4.3-.4.2-.7.5-.9.9-.2.4-.4.8-.5 1.2-.1.5-.1.9-.1 1.4-.1.5 0 .9.1 1.4zM138.6 33.3l-2.1-8-2 8H131l-3.8-11.9h3.4l2.2 8.1 2-8.1h3.2l2 8.1 2.2-8.1h3.4L142 33.3h-3.4zM153.8 25.6v2.8h-6.9v-2.8h6.9zM161.7 23.6c-.5 0-1 .1-1.3.4-.4.2-.6.5-.9.9-.2.4-.4.8-.5 1.2-.1.5-.1.9-.1 1.3s0 .9.1 1.3.2.8.4 1.2c.2.4.5.7.8.9.4.2.8.3 1.3.3.8 0 1.4-.2 1.8-.7.4-.4.7-1 .8-1.8h3.2c-.2 1.6-.8 2.8-1.8 3.6-1 .8-2.3 1.2-3.9 1.2-.9 0-1.7-.1-2.4-.4-.7-.3-1.4-.7-1.9-1.3-.5-.5-.9-1.2-1.2-1.9-.3-.7-.4-1.6-.4-2.4 0-.9.1-1.8.4-2.6.3-.8.7-1.5 1.2-2 .5-.6 1.2-1 1.9-1.3.8-.3 1.6-.5 2.6-.5.7 0 1.4.1 2 .3.7.2 1.2.5 1.7.8.5.4.9.8 1.3 1.4.3.6.5 1.2.6 2h-3.2c-.3-1.3-1.1-1.9-2.5-1.9zM169.1 24.8c.3-.8.7-1.4 1.2-2 .5-.5 1.2-1 1.9-1.3.8-.3 1.6-.4 2.5-.4.9 0 1.8.1 2.5.4.8.3 1.4.7 1.9 1.3.5.5 1 1.2 1.2 2 .3.8.4 1.6.4 2.6s-.1 1.8-.4 2.6c-.3.8-.7 1.4-1.2 2-.5.5-1.2 1-1.9 1.3-.8.3-1.6.4-2.5.4-.9 0-1.8-.1-2.5-.4-.8-.3-1.4-.7-1.9-1.3-.5-.5-1-1.2-1.2-2-.3-.8-.4-1.6-.4-2.6-.1-1 .1-1.8.4-2.6zm2.9 4c.1.5.2.9.5 1.2.2.4.5.6.9.9.4.2.8.3 1.4.3.6 0 1-.1 1.4-.3.4-.2.7-.5.9-.9.2-.4.4-.8.5-1.2.1-.5.1-.9.1-1.4 0-.5 0-.9-.1-1.4-.1-.5-.2-.9-.5-1.2-.2-.4-.5-.6-.9-.9-.4-.2-.8-.3-1.4-.3-.6 0-1 .1-1.4.3-.4.2-.7.5-.9.9-.2.4-.4.8-.5 1.2-.1.5-.1.9-.1 1.4 0 .5.1.9.1 1.4zM185.6 30.4c.1.3.3.5.6.6s.5.3.8.4c.3.1.6.1.9.1.2 0 .5 0 .7-.1s.5-.1.7-.3c.2-.1.4-.3.5-.5.1-.2.2-.4.2-.7 0-.5-.3-.9-1-1.1s-1.6-.5-2.7-.7c-.5-.1-.9-.2-1.4-.4-.5-.1-.9-.3-1.2-.6-.4-.2-.6-.5-.9-.9-.2-.4-.3-.8-.3-1.3 0-.8.1-1.4.4-1.9.3-.5.7-.9 1.2-1.2.5-.3 1-.5 1.7-.6.6-.1 1.2-.2 1.9-.2s1.3.1 1.9.2c.6.1 1.1.3 1.6.6s.9.7 1.2 1.2.5 1.1.6 1.8h-3.1c0-.6-.3-1.1-.7-1.3s-.9-.3-1.5-.3h-.6c-.2 0-.4.1-.6.1-.2.1-.3.2-.4.3-.1.1-.2.3-.2.6s.1.5.3.7.5.3.8.4c.3.1.7.2 1.2.3.4.1.9.2 1.4.3.5.1.9.2 1.4.4.5.2.9.4 1.2.6.4.3.6.6.9.9.2.4.3.8.3 1.4 0 .8-.2 1.4-.5 2-.3.5-.7 1-1.2 1.3-.5.3-1.1.5-1.7.7-.7.1-1.3.2-2 .2s-1.4-.1-2-.2c-.7-.1-1.2-.4-1.8-.7-.5-.3-.9-.7-1.3-1.3-.3-.5-.5-1.2-.5-2h3.1c-.1.6 0 .9.1 1.2zM201.5 21.4v2.2h-2.4v5.9c0 .6.1.9.3 1.1.2.2.6.3 1.1.3h.5c.2 0 .3 0 .5-.1v2.5c-.3 0-.6.1-.9.1h-1c-.5 0-1 0-1.4-.1-.5-.1-.9-.2-1.2-.4-.3-.2-.6-.5-.8-.9-.2-.4-.3-.9-.3-1.4v-7h-2v-2.2h2v-3.6h3.3v3.6h2.3zM206.7 29.8v3.5c0 .5-.1 1-.3 1.4-.2.4-.4.8-.8 1.1-.3.3-.7.6-1.1.8s-.9.3-1.4.4v-1.7c.2 0 .4-.1.7-.3.2-.1.4-.3.5-.5.2-.2.3-.4.3-.6.1-.2.1-.5.1-.7H203v-3.5h3.7zM218.5 16.9v6.2h.1c.4-.7.9-1.2 1.6-1.5.6-.3 1.3-.5 1.9-.5.9 0 1.6.1 2.2.4.6.2 1 .6 1.3 1 .3.4.5.9.7 1.5.1.6.2 1.3.2 2v7.3h-3.3v-6.7c0-1-.2-1.7-.5-2.2s-.9-.7-1.6-.7c-.9 0-1.5.3-1.9.8-.4.5-.6 1.4-.6 2.6v6.2h-3.3V16.9h3.2zM228.8 19.6v-2.7h3.3v2.7h-3.3zm3.2 1.8v11.9h-3.3V21.4h3.3zM245.6 34.2c-.1.6-.4 1.2-.8 1.7s-1.1 1-1.9 1.3c-.8.4-1.9.6-3.3.6-.6 0-1.2-.1-1.8-.2-.6-.1-1.2-.4-1.7-.7s-.9-.7-1.2-1.2c-.3-.5-.5-1.1-.6-1.7h3.2c.2.6.5 1 .9 1.3s1 .4 1.5.4c.9 0 1.6-.3 2-.8.4-.6.6-1.2.6-2.1v-1.6c-.4.6-.9 1.1-1.5 1.4-.7.3-1.3.4-2.1.4-.9 0-1.7-.2-2.3-.5-.6-.3-1.2-.7-1.6-1.3-.4-.5-.7-1.2-.9-1.9-.2-.7-.3-1.5-.3-2.3 0-.8.1-1.5.3-2.2.2-.7.5-1.3 1-1.9.4-.5 1-1 1.6-1.3.6-.3 1.4-.5 2.2-.5.8 0 1.5.1 2.1.4.6.3 1.1.8 1.5 1.5v-1.6h3.1v11.1c.2.5.1 1.1 0 1.7zm-4.5-4c.4-.2.6-.4.9-.7s.4-.7.5-1c.1-.4.2-.8.2-1.2 0-.5 0-1-.1-1.4-.1-.4-.2-.8-.5-1.2-.2-.3-.5-.6-.9-.8-.4-.2-.8-.3-1.3-.3s-.9.1-1.2.3c-.3.2-.6.4-.8.7-.2.3-.4.7-.5 1.1-.1.4-.1.8-.1 1.3 0 .4 0 .9.1 1.3s.2.8.4 1.1c.2.3.5.6.8.8.3.2.8.3 1.3.3s.9-.1 1.2-.3zM251.5 16.9v6.2h.1c.4-.7.9-1.2 1.6-1.5.6-.3 1.3-.5 1.9-.5.9 0 1.6.1 2.2.4.6.2 1 .6 1.3 1 .3.4.5.9.7 1.5.1.6.2 1.3.2 2v7.3h-3.3v-6.7c0-1-.2-1.7-.5-2.2s-.9-.7-1.6-.7c-.9 0-1.5.3-1.9.8-.4.5-.6 1.4-.6 2.6v6.2h-3.3V16.9h3.2zM268.5 25.6v2.8h-6.9v-2.8h6.9zM279.1 37.5v-5.7c-.4.6-.9 1.1-1.6 1.4-.7.3-1.4.4-2.1.4-.6 0-1.1-.1-1.7-.3-.6-.2-1.1-.6-1.6-1s-.9-1.1-1.2-1.9c-.3-.8-.5-1.8-.5-2.9 0-.8.1-1.6.3-2.4.2-.8.5-1.4 1-2 .4-.6 1-1.1 1.7-1.4.7-.4 1.5-.5 2.4-.5.7 0 1.4.1 2.1.4.7.3 1.2.8 1.5 1.4v-1.5h3.1v16.1h-3.4zm-5.4-8.7c.1.5.2.9.5 1.2.2.4.5.6.9.9s.8.3 1.3.3 1-.1 1.3-.3.7-.5.9-.8c.2-.3.4-.7.5-1.2.1-.5.1-.9.1-1.4 0-.5-.1-.9-.1-1.4-.1-.5-.3-.9-.5-1.2-.2-.4-.5-.7-.9-.9-.4-.2-.8-.3-1.3-.3s-1 .1-1.4.3c-.4.2-.7.5-.9.9s-.4.8-.5 1.2c-.1.5-.1.9-.1 1.4 0 .4.1.8.2 1.3zM292.7 33.3v-1.7h-.1c-.4.7-1 1.2-1.6 1.5s-1.3.5-2 .5c-.9 0-1.6-.1-2.2-.3-.6-.2-1-.6-1.3-1-.3-.4-.5-.9-.7-1.5-.1-.6-.2-1.3-.2-2v-7.3h3.3v6.7c0 1 .2 1.7.5 2.2s.9.7 1.6.7c.9 0 1.5-.3 1.9-.8.4-.5.6-1.4.6-2.6v-6.2h3.3v11.9h-3.1zM297.9 25.1c0-.8.2-1.4.6-1.9.3-.5.8-.9 1.3-1.2s1.1-.5 1.8-.7c.7-.1 1.3-.2 2-.2.6 0 1.2 0 1.8.1.6.1 1.2.2 1.7.5s.9.6 1.2 1c.3.4.5 1 .5 1.7v6.2c0 .5 0 1.1.1 1.5.1.5.2.9.3 1.1h-3.3c-.1-.2-.1-.4-.1-.6 0-.2-.1-.4-.1-.6-.5.5-1.1.9-1.8 1.1s-1.4.3-2.2.3c-.6 0-1.1-.1-1.6-.2s-.9-.4-1.3-.6c-.4-.3-.7-.7-.9-1.1s-.3-1-.3-1.6c0-.7.1-1.2.4-1.7s.5-.8.9-1c.4-.3.8-.5 1.3-.6l1.5-.3c.5-.1 1-.1 1.4-.2.5 0 .9-.1 1.3-.2s.7-.2.9-.4c.2-.2.3-.4.3-.8s-.1-.6-.2-.8c-.1-.2-.3-.4-.5-.5-.2-.1-.4-.2-.7-.2-.3 0-.5-.1-.8-.1-.6 0-1.2.1-1.5.4-.4.3-.6.7-.6 1.4h-3.4zm7.5 2.4c-.1.1-.3.2-.5.3-.2.1-.4.1-.7.2s-.5.1-.7.1c-.3 0-.5.1-.8.1-.2 0-.5.1-.7.2l-.6.3c-.2.1-.3.3-.4.5-.1.2-.2.5-.2.8 0 .3.1.5.2.7.1.2.3.4.4.5.2.1.4.2.6.2.2 0 .5.1.8.1.6 0 1.1-.1 1.5-.3.4-.2.6-.5.8-.8.2-.3.3-.6.3-.9s.1-.6.1-.7v-1.3zM314.4 16.9v16.4h-3.3V16.9h3.3zM316.8 19.6v-2.7h3.3v2.7h-3.3zm3.3 1.8v11.9h-3.3V21.4h3.3zM329 21.4v2.2h-2.4v5.9c0 .6.1.9.3 1.1.2.2.6.3 1.1.3h.5c.2 0 .3 0 .5-.1v2.5c-.3 0-.6.1-.9.1h-1c-.5 0-1 0-1.4-.1-.5-.1-.9-.2-1.2-.4-.3-.2-.6-.5-.8-.9-.2-.4-.3-.9-.3-1.4v-7h-2v-2.2h2v-3.6h3.3v3.6h2.3z"/><path class="st0" d="M334.7 36.9c-.6.4-1.5.6-2.6.6h-1c-.3 0-.7 0-1-.1v-2.7c.3 0 .6.1.9.1h1c.4 0 .7-.2 1-.5s.3-.6.3-1c0-.3 0-.5-.1-.7L329 21.4h3.5l2.7 8.1 2.6-8.1h3.4l-5 13.4c-.4 1-.8 1.6-1.5 2.1zM353.9 23.6c-.5 0-1 .1-1.3.4-.4.2-.6.5-.9.9-.2.4-.4.8-.5 1.2-.1.5-.1.9-.1 1.3s0 .9.1 1.3.2.8.4 1.2c.2.4.5.7.8.9.4.2.8.3 1.3.3.8 0 1.4-.2 1.8-.7.4-.4.7-1 .8-1.8h3.2c-.2 1.6-.8 2.8-1.8 3.6-1 .8-2.3 1.2-3.9 1.2-.9 0-1.7-.1-2.4-.4-.7-.3-1.4-.7-1.9-1.3-.5-.5-.9-1.2-1.2-1.9-.3-.7-.4-1.6-.4-2.4 0-.9.1-1.8.4-2.6.3-.8.7-1.5 1.2-2 .5-.6 1.2-1 1.9-1.3.8-.3 1.6-.5 2.6-.5.7 0 1.4.1 2 .3.7.2 1.2.5 1.7.8.5.4.9.8 1.3 1.4.3.6.5 1.2.6 2h-3.2c-.3-1.3-1.1-1.9-2.5-1.9zM361.3 24.8c.3-.8.7-1.4 1.2-2 .5-.5 1.2-1 1.9-1.3.8-.3 1.6-.4 2.5-.4s1.8.1 2.5.4c.8.3 1.4.7 1.9 1.3.5.5.9 1.2 1.2 2 .3.8.4 1.6.4 2.6s-.1 1.8-.4 2.6c-.3.8-.7 1.4-1.2 2-.5.5-1.2 1-1.9 1.3-.8.3-1.6.4-2.5.4s-1.8-.1-2.5-.4c-.8-.3-1.4-.7-1.9-1.3-.5-.5-1-1.2-1.2-2-.3-.8-.4-1.6-.4-2.6s.1-1.8.4-2.6zm3 4c.1.5.2.9.5 1.2.2.4.5.6.9.9.4.2.8.3 1.4.3.6 0 1-.1 1.4-.3.4-.2.7-.5.9-.9.2-.4.4-.8.5-1.2.1-.5.1-.9.1-1.4 0-.5 0-.9-.1-1.4-.1-.5-.2-.9-.5-1.2-.2-.4-.5-.6-.9-.9-.4-.2-.8-.3-1.4-.3-.6 0-1 .1-1.4.3-.4.2-.7.5-.9.9-.2.4-.4.8-.5 1.2s-.1.9-.1 1.4c-.1.5 0 .9.1 1.4zM378 33.3l-4.1-11.9h3.4l2.5 8.1 2.5-8.1h3.2l-4 11.9H378zM390.3 30.5c.5.5 1.2.7 2.1.7.7 0 1.2-.2 1.7-.5s.8-.7.9-1h2.9c-.5 1.4-1.2 2.4-2.1 3.1-1 .6-2.1.9-3.5.9-.9 0-1.8-.1-2.5-.4-.8-.3-1.4-.7-1.9-1.3-.5-.6-.9-1.2-1.2-2-.3-.8-.4-1.6-.4-2.5 0-.9.1-1.7.4-2.5.3-.8.7-1.4 1.2-2 .5-.6 1.2-1 1.9-1.3.7-.3 1.6-.5 2.5-.5 1 0 1.9.2 2.6.6s1.4.9 1.9 1.6c.5.7.8 1.4 1 2.3.2.8.3 1.7.2 2.6h-8.6c.1.9.4 1.7.9 2.2zm3.7-6.3c-.4-.4-1-.6-1.8-.6-.5 0-1 .1-1.3.3s-.6.4-.8.7-.4.5-.4.8c-.1.3-.1.6-.1.8h5.3c-.3-.9-.5-1.6-.9-2zM402.9 21.4v2.2c.2-.4.4-.7.6-1 .3-.3.6-.6.9-.8.3-.2.7-.4 1.1-.5.4-.1.8-.2 1.2-.2.2 0 .5 0 .7.1v3c-.2 0-.3-.1-.6-.1h-.6c-.6 0-1.1.1-1.5.3s-.7.5-1 .8c-.3.3-.4.7-.5 1.2s-.2 1-.2 1.5v5.4h-3.3V21.4h3.2zM408.4 25.1c0-.8.2-1.4.6-1.9s.8-.9 1.3-1.2 1.1-.5 1.8-.7c.7-.1 1.3-.2 2-.2.6 0 1.2 0 1.8.1.6.1 1.2.2 1.7.5.5.2.9.6 1.2 1 .3.4.5 1 .5 1.7v6.2c0 .5 0 1.1.1 1.5s.2.9.3 1.1h-3.3c-.1-.2-.1-.4-.1-.6 0-.2-.1-.4-.1-.6-.5.5-1.1.9-1.8 1.1-.7.2-1.4.3-2.2.3-.6 0-1.1-.1-1.6-.2s-.9-.4-1.3-.6c-.4-.3-.7-.7-.9-1.1s-.3-1-.3-1.6c0-.7.1-1.2.4-1.7.2-.4.5-.8.9-1 .4-.3.8-.5 1.3-.6l1.5-.3c.5-.1 1-.1 1.4-.2s.9-.1 1.3-.2.7-.2.9-.4.3-.4.3-.8-.1-.6-.2-.8-.3-.4-.5-.5c-.2-.1-.4-.2-.7-.2-.3 0-.5-.1-.8-.1-.6 0-1.2.1-1.5.4-.4.3-.6.7-.6 1.4h-3.4zm7.5 2.4c-.1.1-.3.2-.5.3-.2.1-.4.1-.7.2-.2 0-.5.1-.7.1-.3 0-.5.1-.8.1-.2 0-.5.1-.7.2l-.6.3c-.2.1-.3.3-.4.5-.1.2-.2.5-.2.8 0 .3.1.5.2.7.1.2.3.4.4.5.2.1.4.2.6.2s.5.1.8.1c.6 0 1.1-.1 1.5-.3.4-.2.6-.5.8-.8.2-.3.3-.6.3-.9 0-.3.1-.6.1-.7v-1.3zM432.8 34.2c-.1.6-.4 1.2-.8 1.7s-1 1-1.9 1.3c-.8.4-1.9.6-3.3.6-.6 0-1.2-.1-1.8-.2-.6-.1-1.2-.4-1.7-.7s-.9-.7-1.2-1.2c-.3-.5-.5-1.1-.6-1.7h3.2c.2.6.5 1 .9 1.3.4.2 1 .4 1.5.4.9 0 1.6-.3 2-.8.4-.6.6-1.2.6-2.1v-1.6c-.4.6-.9 1.1-1.5 1.4-.7.3-1.3.4-2.1.4-.9 0-1.7-.2-2.3-.5-.6-.3-1.2-.7-1.6-1.3-.4-.5-.7-1.2-.9-1.9-.2-.7-.3-1.5-.3-2.3 0-.8.1-1.5.3-2.2.2-.7.5-1.3 1-1.9.4-.5 1-1 1.6-1.3.6-.3 1.4-.5 2.2-.5.8 0 1.5.1 2.1.4.6.3 1.1.8 1.5 1.5v-1.6h3.1v11.1c.2.5.1 1.1 0 1.7zm-4.5-4c.4-.2.6-.4.9-.7.2-.3.4-.7.5-1 .1-.4.2-.8.2-1.2 0-.5 0-1-.1-1.4-.1-.4-.2-.8-.5-1.2-.2-.3-.5-.6-.9-.8-.4-.2-.8-.3-1.3-.3s-.9.1-1.2.3c-.3.2-.6.4-.8.7-.2.3-.4.7-.5 1.1s-.1.8-.1 1.3c0 .4 0 .9.1 1.3s.2.8.4 1.1c.2.3.5.6.8.8.3.2.8.3 1.3.3.4 0 .8-.1 1.2-.3zM438.8 30.5c.5.5 1.2.7 2.1.7.7 0 1.2-.2 1.7-.5s.8-.7.9-1h2.9c-.5 1.4-1.2 2.4-2.1 3.1-1 .6-2.1.9-3.5.9-.9 0-1.8-.1-2.5-.4-.8-.3-1.4-.7-1.9-1.3-.5-.6-.9-1.2-1.2-2-.3-.8-.4-1.6-.4-2.5 0-.9.1-1.7.4-2.5.3-.8.7-1.4 1.2-2 .5-.6 1.2-1 1.9-1.3.7-.3 1.6-.5 2.5-.5 1 0 1.9.2 2.6.6s1.4.9 1.9 1.6c.5.7.8 1.4 1 2.3.2.8.3 1.7.2 2.6H438c.1.9.4 1.7.8 2.2zm3.7-6.3c-.4-.4-1-.6-1.8-.6-.5 0-1 .1-1.3.3s-.6.4-.8.7-.4.5-.4.8c-.1.3-.1.6-.1.8h5.3c-.2-.9-.5-1.6-.9-2zM454.4 25.1c0-.8.2-1.4.6-1.9s.8-.9 1.3-1.2 1.1-.5 1.8-.7c.7-.1 1.3-.2 2-.2.6 0 1.2 0 1.8.1.6.1 1.2.2 1.7.5.5.2.9.6 1.2 1 .3.4.5 1 .5 1.7v6.2c0 .5 0 1.1.1 1.5s.2.9.3 1.1h-3.3c-.1-.2-.1-.4-.1-.6 0-.2-.1-.4-.1-.6-.5.5-1.1.9-1.8 1.1-.7.2-1.4.3-2.2.3-.6 0-1.1-.1-1.6-.2s-.9-.4-1.3-.6c-.4-.3-.7-.7-.9-1.1s-.3-1-.3-1.6c0-.7.1-1.2.4-1.7.2-.4.5-.8.9-1 .4-.3.8-.5 1.3-.6l1.5-.3c.5-.1 1-.1 1.4-.2s.9-.1 1.3-.2.7-.2.9-.4.3-.4.3-.8-.1-.6-.2-.8-.3-.4-.5-.5c-.2-.1-.4-.2-.7-.2-.3 0-.5-.1-.8-.1-.6 0-1.2.1-1.5.4-.4.3-.6.7-.6 1.4h-3.4zm7.5 2.4c-.1.1-.3.2-.5.3-.2.1-.4.1-.7.2-.2 0-.5.1-.7.1-.3 0-.5.1-.8.1-.2 0-.5.1-.7.2l-.6.3c-.2.1-.3.3-.4.5-.1.2-.2.5-.2.8 0 .3.1.5.2.7.1.2.3.4.4.5.2.1.4.2.6.2s.5.1.8.1c.6 0 1.1-.1 1.5-.3.4-.2.6-.5.8-.8.2-.3.3-.6.3-.9 0-.3.1-.6.1-.7v-1.3zM474 21.4v2.2h-2.4v5.9c0 .6.1.9.3 1.1.2.2.6.3 1.1.3h.5c.2 0 .3 0 .5-.1v2.5c-.3 0-.6.1-.9.1h-1c-.5 0-1 0-1.4-.1-.5-.1-.9-.2-1.2-.4-.3-.2-.6-.5-.8-.9-.2-.4-.3-.9-.3-1.4v-7h-2v-2.2h2v-3.6h3.3v3.6h2.3zM30.2 47.4v2.2h-2.4v5.9c0 .6.1.9.3 1.1.2.2.6.3 1.1.3h.5c.2 0 .3 0 .5-.1v2.5c-.3 0-.6.1-.9.1h-1c-.5 0-1 0-1.4-.1-.5-.1-.9-.2-1.2-.4-.3-.2-.6-.5-.8-.9-.2-.4-.3-.9-.3-1.4v-7h-2v-2.2h2v-3.6h3.3v3.6h2.3zm4.6-4.5v6.2h.1c.4-.7.9-1.2 1.6-1.5.6-.3 1.3-.5 1.9-.5.9 0 1.6.1 2.2.4.6.2 1 .6 1.3 1 .3.4.5.9.7 1.5.1.6.2 1.3.2 2v7.3h-3.3v-6.7c0-1-.2-1.7-.5-2.2-.3-.5-.9-.7-1.6-.7-.9 0-1.5.3-1.9.8-.4.5-.6 1.4-.6 2.6v6.2h-3.3V42.9h3.2zm13.6 13.6c.5.5 1.2.7 2.1.7.7 0 1.2-.2 1.7-.5s.8-.7.9-1H56c-.5 1.4-1.2 2.4-2.1 3.1-1 .6-2.1.9-3.5.9-.9 0-1.8-.1-2.5-.4-.8-.3-1.4-.7-1.9-1.3-.5-.6-.9-1.2-1.2-2-.3-.8-.4-1.6-.4-2.5 0-.9.1-1.7.4-2.5.3-.8.7-1.4 1.2-2 .5-.6 1.2-1 1.9-1.3.7-.3 1.6-.5 2.5-.5 1 0 1.9.2 2.6.6.8.4 1.4.9 1.9 1.6.5.7.8 1.4 1 2.3.2.8.3 1.7.2 2.6h-8.6c.2.9.4 1.7.9 2.2zm3.7-6.3c-.4-.4-1-.6-1.8-.6-.5 0-1 .1-1.3.3-.3.2-.6.4-.8.7-.2.3-.4.5-.4.8-.1.3-.1.6-.1.8H53c-.2-.9-.5-1.6-.9-2zm14.7 6.1c.1.3.3.5.6.6.2.2.5.3.8.4.3.1.6.1.9.1.2 0 .5 0 .7-.1.3-.1.5-.1.7-.3.2-.1.4-.3.5-.5.1-.2.2-.4.2-.7 0-.5-.3-.9-1-1.1-.7-.2-1.6-.5-2.7-.7-.5-.1-.9-.2-1.4-.4-.5-.1-.9-.3-1.2-.6-.4-.2-.6-.5-.9-.9-.2-.4-.3-.8-.3-1.3 0-.8.1-1.4.4-1.9.3-.5.7-.9 1.2-1.2.5-.3 1-.5 1.7-.6.6-.1 1.2-.2 1.9-.2.6 0 1.3.1 1.9.2.6.1 1.1.3 1.6.6s.9.7 1.2 1.2c.3.5.5 1.1.6 1.8h-3.1c0-.6-.3-1.1-.7-1.3-.4-.2-.9-.3-1.5-.3h-.6c-.2 0-.4.1-.6.1-.2.1-.3.2-.4.3-.1.1-.2.3-.2.6s.1.5.3.7c.2.2.5.3.8.4.3.1.7.2 1.2.3.4.1.9.2 1.4.3.5.1.9.2 1.4.4.5.2.9.4 1.2.6.4.3.6.6.9.9.2.4.3.8.3 1.4 0 .8-.2 1.4-.5 2-.3.5-.7 1-1.2 1.3-.5.3-1.1.5-1.7.7-.7.1-1.3.2-2 .2s-1.4-.1-2-.2c-.7-.1-1.2-.4-1.8-.7-.5-.3-.9-.7-1.3-1.3-.3-.5-.5-1.2-.5-2h3.1c-.1.7 0 1 .1 1.2zm15.9-8.9v2.2h-2.4v5.9c0 .6.1.9.3 1.1.2.2.6.3 1.1.3h.5c.2 0 .3 0 .5-.1v2.5c-.3 0-.6.1-.9.1h-1c-.5 0-1 0-1.4-.1-.5-.1-.9-.2-1.2-.4-.3-.2-.6-.5-.8-.9-.2-.4-.3-.9-.3-1.4v-7h-2v-2.2h2v-3.6h3.3v3.6h2.3zm4.5 3.7c.1-.6.3-1.1.6-1.4.4-.3.9-.4 1.5-.4.3 0 .6 0 .8.1.3 0 .5.1.7.2.2.1.3.3.5.5s.2.5.2.8c0 .3-.1.6-.3.8-.2.2-.5.3-.9.4-.4.1-.8.2-1.3.2s-1 .1-1.4.2l-1.5.3c-.5.1-.9.3-1.3.6s-.7.6-.9 1c-.2.4-.4 1-.4 1.7 0 .6.1 1.1.3 1.6.2.4.5.8.9 1.1.4.3.8.5 1.3.6.5.1 1 .2 1.6.2.7 0 1.5-.1 2.2-.3.7-.2 1.3-.6 1.8-1.1 0 .2 0 .4.1.6 0 .2.1.4.1.6h3.3c-.2-.2-.3-.6-.3-1.1-.1-.5-.1-1-.1-1.5v-6.2c0-.7-.2-1.3-.5-1.7s-.7-.8-1.2-1c-.5-.2-1.1-.4-1.7-.5-.6-.1-1.2-.1-1.8-.1-.7 0-1.3.1-2 .2s-1.2.3-1.8.7c-.5.3-1 .7-1.3 1.2-.3.5-.5 1.1-.6 1.9h3.4zm4.3 3.6c0 .2 0 .4-.1.7 0 .3-.1.6-.3.9-.2.3-.4.6-.8.8-.4.2-.9.3-1.5.3-.3 0-.5 0-.8-.1-.2 0-.5-.1-.6-.2s-.3-.3-.4-.5c-.1-.2-.2-.4-.2-.7 0-.3.1-.6.2-.8.1-.2.2-.4.4-.5l.6-.3c.2-.1.5-.1.7-.2.3 0 .5-.1.8-.1.3 0 .5-.1.7-.1.2 0 .5-.1.7-.2s.4-.2.5-.3v1.3zm8.6-7.3v2.2c.2-.4.4-.7.6-1 .3-.3.6-.6.9-.8.3-.2.7-.4 1.1-.5.4-.1.8-.2 1.2-.2.2 0 .5 0 .7.1v3c-.2 0-.3-.1-.6-.1h-.6c-.6 0-1.1.1-1.5.3-.4.2-.7.5-1 .8-.3.3-.4.7-.5 1.2-.1.5-.2 1-.2 1.5v5.4H97V47.4h3.1zm12.2 0v2.2h-2.4v5.9c0 .6.1.9.3 1.1.2.2.6.3 1.1.3h.5c.2 0 .3 0 .5-.1v2.5c-.3 0-.6.1-.9.1h-1c-.5 0-1 0-1.4-.1-.5-.1-.9-.2-1.2-.4-.3-.2-.6-.5-.8-.9-.2-.4-.3-.9-.3-1.4v-7h-2v-2.2h2v-3.6h3.3v3.6h2.3zm7.5 3.4c.3-.8.7-1.4 1.2-2 .5-.5 1.2-1 1.9-1.3.8-.3 1.6-.4 2.5-.4.9 0 1.8.1 2.5.4s1.4.7 1.9 1.3c.5.5 1 1.2 1.2 2 .3.8.4 1.6.4 2.6s-.1 1.8-.4 2.6c-.3.8-.7 1.4-1.2 2-.5.5-1.2 1-1.9 1.3s-1.6.4-2.5.4c-.9 0-1.8-.1-2.5-.4-.8-.3-1.4-.7-1.9-1.3-.5-.5-1-1.2-1.2-2-.3-.8-.4-1.6-.4-2.6s.2-1.8.4-2.6zm3 4c.1.5.2.9.5 1.2.2.4.5.6.9.9.4.2.8.3 1.4.3s1-.1 1.4-.3c.4-.2.7-.5.9-.9.2-.4.4-.8.5-1.2.1-.5.1-.9.1-1.4 0-.5 0-.9-.1-1.4-.1-.5-.2-.9-.5-1.2-.2-.4-.5-.6-.9-.9-.4-.2-.8-.3-1.4-.3s-1 .1-1.4.3c-.4.2-.7.5-.9.9-.2.4-.4.8-.5 1.2-.1.5-.1.9-.1 1.4 0 .4 0 .9.1 1.4zm9.6-5.2v-2.2h2v-.9c0-1.1.3-1.9 1-2.6.7-.7 1.7-1 3-1h.9c.3 0 .6 0 .9.1v2.4c-.4 0-.8-.1-1.2-.1-.4 0-.8.1-1 .3-.2.2-.3.6-.3 1v.7h2.3v2.2h-2.3v9.7h-3.3v-9.7h-2zm19.2 13.2c-.6.4-1.5.6-2.6.6h-1c-.3 0-.7 0-1-.1v-2.7c.3 0 .6.1.9.1h1c.4 0 .7-.2 1-.5.2-.3.3-.6.3-1 0-.3 0-.5-.1-.7l-4.2-11.2h3.5l2.7 8.1 2.6-8.1h3.4l-5 13.4c-.4 1-.9 1.7-1.5 2.1zm7.4-12c.3-.8.7-1.4 1.2-2 .5-.5 1.2-1 1.9-1.3.8-.3 1.6-.4 2.5-.4.9 0 1.8.1 2.5.4s1.4.7 1.9 1.3c.5.5 1 1.2 1.2 2 .3.8.4 1.6.4 2.6s-.1 1.8-.4 2.6c-.3.8-.7 1.4-1.2 2-.5.5-1.2 1-1.9 1.3s-1.6.4-2.5.4c-.9 0-1.8-.1-2.5-.4-.8-.3-1.4-.7-1.9-1.3-.5-.5-1-1.2-1.2-2-.3-.8-.4-1.6-.4-2.6-.1-1 .1-1.8.4-2.6zm2.9 4c.1.5.2.9.5 1.2.2.4.5.6.9.9.4.2.8.3 1.4.3s1-.1 1.4-.3c.4-.2.7-.5.9-.9.2-.4.4-.8.5-1.2.1-.5.1-.9.1-1.4 0-.5 0-.9-.1-1.4-.1-.5-.2-.9-.5-1.2-.2-.4-.5-.6-.9-.9-.4-.2-.8-.3-1.4-.3s-1 .1-1.4.3c-.4.2-.7.5-.9.9-.2.4-.4.8-.5 1.2-.1.5-.1.9-.1 1.4 0 .4 0 .9.1 1.4zm18.9 4.5v-1.7h-.1c-.4.7-1 1.2-1.6 1.5-.7.3-1.3.5-2 .5-.9 0-1.6-.1-2.2-.3-.6-.2-1-.6-1.3-1-.3-.4-.5-.9-.7-1.5-.1-.6-.2-1.3-.2-2v-7.3h3.3v6.7c0 1 .2 1.7.5 2.2.3.5.9.7 1.6.7.9 0 1.5-.3 1.9-.8.4-.5.6-1.4.6-2.6v-6.2h3.3v11.9h-3.1zm8.4-11.9v2.2c.2-.4.4-.7.6-1 .3-.3.6-.6.9-.8.3-.2.7-.4 1.1-.5.4-.1.8-.2 1.2-.2.2 0 .5 0 .7.1v3c-.2 0-.3-.1-.6-.1h-.6c-.6 0-1.1.1-1.5.3-.4.2-.7.5-1 .8-.3.3-.4.7-.5 1.2-.1.5-.2 1-.2 1.5v5.4H186V47.4h3.2zm17.5 2.2c-.5 0-1 .1-1.3.4-.4.2-.6.5-.9.9-.2.4-.4.8-.5 1.2-.1.5-.1.9-.1 1.3s0 .9.1 1.3.2.8.4 1.2c.2.4.5.7.8.9.4.2.8.3 1.3.3.8 0 1.4-.2 1.8-.7.4-.4.7-1 .8-1.8h3.2c-.2 1.6-.8 2.8-1.8 3.6-1 .8-2.3 1.2-3.9 1.2-.9 0-1.7-.1-2.4-.4-.7-.3-1.4-.7-1.9-1.3-.5-.5-.9-1.2-1.2-1.9-.3-.7-.4-1.6-.4-2.4 0-.9.1-1.8.4-2.6.3-.8.7-1.5 1.2-2 .5-.6 1.2-1 1.9-1.3.8-.3 1.6-.5 2.6-.5.7 0 1.4.1 2 .3.7.2 1.2.5 1.7.8.5.4.9.8 1.3 1.4.3.6.5 1.2.6 2h-3.2c-.3-1.3-1.1-1.9-2.5-1.9zm10.4 1.5c.1-.6.3-1.1.6-1.4.4-.3.9-.4 1.5-.4.3 0 .6 0 .8.1.3 0 .5.1.7.2.2.1.3.3.5.5.1.2.2.5.2.8 0 .3-.1.6-.3.8-.2.2-.5.3-.9.4-.4.1-.8.2-1.3.2s-1 .1-1.4.2l-1.5.3c-.5.1-.9.3-1.3.6s-.7.6-.9 1c-.2.4-.4 1-.4 1.7 0 .6.1 1.1.3 1.6.2.4.5.8.9 1.1.4.3.8.5 1.3.6.5.1 1 .2 1.6.2.7 0 1.5-.1 2.2-.3.7-.2 1.3-.6 1.8-1.1 0 .2 0 .4.1.6 0 .2.1.4.1.6h3.3c-.2-.2-.3-.6-.3-1.1-.1-.5-.1-1-.1-1.5v-6.2c0-.7-.2-1.3-.5-1.7s-.7-.8-1.2-1c-.5-.2-1.1-.4-1.7-.5-.6-.1-1.2-.1-1.8-.1-.7 0-1.3.1-2 .2s-1.2.3-1.8.7c-.5.3-1 .7-1.3 1.2-.3.5-.5 1.1-.6 1.9h3.4zm4.3 3.6c0 .2 0 .4-.1.7 0 .3-.1.6-.3.9-.2.3-.4.6-.8.8-.4.2-.9.3-1.5.3-.3 0-.5 0-.8-.1-.2 0-.5-.1-.6-.2-.2-.1-.3-.3-.4-.5-.1-.2-.2-.4-.2-.7 0-.3.1-.6.2-.8.1-.2.2-.4.4-.5l.6-.3c.2-.1.5-.1.7-.2.3 0 .5-.1.8-.1.3 0 .5-.1.7-.1.2 0 .5-.1.7-.2s.4-.2.5-.3v1.3zm8.7-7.3v2.2c.2-.4.4-.7.6-1 .3-.3.6-.6.9-.8.3-.2.7-.4 1.1-.5.4-.1.8-.2 1.2-.2.2 0 .5 0 .7.1v3c-.2 0-.3-.1-.6-.1h-.6c-.6 0-1.1.1-1.5.3-.4.2-.7.5-1 .8-.3.3-.4.7-.5 1.2-.1.5-.2 1-.2 1.5v5.4H227V47.4h3.1zm8.7 9.1c.5.5 1.2.7 2.1.7.7 0 1.2-.2 1.7-.5s.8-.7.9-1h2.9c-.5 1.4-1.2 2.4-2.1 3.1-1 .6-2.1.9-3.4.9-.9 0-1.8-.1-2.5-.4-.8-.3-1.4-.7-1.9-1.3-.5-.6-.9-1.2-1.2-2-.3-.8-.4-1.6-.4-2.5 0-.9.1-1.7.4-2.5.3-.8.7-1.4 1.2-2 .5-.6 1.2-1 1.9-1.3.7-.3 1.6-.5 2.5-.5 1 0 1.9.2 2.6.6.8.4 1.4.9 1.9 1.6.5.7.8 1.4 1 2.3.2.8.3 1.7.2 2.6H238c0 .9.3 1.7.8 2.2zm3.6-6.3c-.4-.4-1-.6-1.8-.6-.5 0-1 .1-1.3.3-.3.2-.6.4-.8.7-.2.3-.4.5-.4.8-.1.3-.1.6-.1.8h5.3c-.2-.9-.5-1.6-.9-2zm9.3 6.3c.5.5 1.2.7 2.1.7.7 0 1.2-.2 1.7-.5s.8-.7.9-1h2.9c-.5 1.4-1.2 2.4-2.1 3.1-1 .6-2.1.9-3.4.9-.9 0-1.8-.1-2.5-.4-.8-.3-1.4-.7-1.9-1.3-.5-.6-.9-1.2-1.2-2-.3-.8-.4-1.6-.4-2.5 0-.9.1-1.7.4-2.5.3-.8.7-1.4 1.2-2 .5-.6 1.2-1 1.9-1.3.7-.3 1.6-.5 2.5-.5 1 0 1.9.2 2.6.6.8.4 1.4.9 1.9 1.6.5.7.8 1.4 1 2.3.2.8.3 1.7.2 2.6h-8.6c.1.9.3 1.7.8 2.2zm3.7-6.3c-.4-.4-1-.6-1.8-.6-.5 0-1 .1-1.3.3-.3.2-.6.4-.8.7-.2.3-.4.5-.4.8-.1.3-.1.6-.1.8h5.3c-.2-.9-.5-1.6-.9-2zm8.9-2.8v2.2c.2-.4.4-.7.6-1 .3-.3.6-.6.9-.8.3-.2.7-.4 1.1-.5.4-.1.8-.2 1.2-.2.2 0 .5 0 .7.1v3c-.2 0-.3-.1-.6-.1h-.6c-.6 0-1.1.1-1.5.3-.4.2-.7.5-1 .8s-.4.7-.5 1.2c-.1.5-.2 1-.2 1.5v5.4h-3.3V47.4h3.2zm11.9-1.8v-2.7h3.3v2.7h-3.3zm3.2 1.8v11.9h-3.3V47.4h3.3zm5.1 8.9c.1.3.3.5.6.6.2.2.5.3.8.4.3.1.6.1.9.1.2 0 .5 0 .7-.1.3-.1.5-.1.7-.3.2-.1.4-.3.5-.5.1-.2.2-.4.2-.7 0-.5-.3-.9-1-1.1-.7-.2-1.6-.5-2.7-.7-.5-.1-.9-.2-1.4-.4-.5-.1-.9-.3-1.2-.6-.4-.2-.6-.5-.9-.9-.2-.4-.3-.8-.3-1.3 0-.8.1-1.4.4-1.9.3-.5.7-.9 1.2-1.2.5-.3 1-.5 1.7-.6.6-.1 1.2-.2 1.9-.2.6 0 1.3.1 1.9.2.6.1 1.1.3 1.6.6s.9.7 1.2 1.2c.3.5.5 1.1.6 1.8h-3.1c0-.6-.3-1.1-.7-1.3-.4-.2-.9-.3-1.5-.3h-.6c-.2 0-.4.1-.6.1-.2.1-.3.2-.4.3-.1.1-.2.3-.2.6s.1.5.3.7c.2.2.5.3.8.4.3.1.7.2 1.2.3.4.1.9.2 1.4.3.5.1.9.2 1.4.4.5.2.9.4 1.2.6.4.3.6.6.9.9.2.4.3.8.3 1.4 0 .8-.2 1.4-.5 2-.3.5-.7 1-1.2 1.3-.5.3-1.1.5-1.7.7-.7.1-1.3.2-2 .2s-1.4-.1-2-.2c-.7-.1-1.2-.4-1.8-.7-.5-.3-.9-.7-1.3-1.3-.3-.5-.5-1.2-.5-2h3.1c-.1.7 0 1 .1 1.2zm18.7-5.2c.1-.6.3-1.1.6-1.4.4-.3.9-.4 1.5-.4.3 0 .6 0 .8.1.3 0 .5.1.7.2.2.1.3.3.5.5.1.2.2.5.2.8 0 .3-.1.6-.3.8-.2.2-.5.3-.9.4-.4.1-.8.2-1.3.2s-1 .1-1.4.2l-1.5.3c-.5.1-.9.3-1.3.6s-.7.6-.9 1c-.2.4-.4 1-.4 1.7 0 .6.1 1.1.3 1.6.2.4.5.8.9 1.1.4.3.8.5 1.3.6.5.1 1 .2 1.6.2.7 0 1.5-.1 2.2-.3.7-.2 1.3-.6 1.8-1.1 0 .2 0 .4.1.6 0 .2.1.4.1.6h3.3c-.2-.2-.3-.6-.3-1.1-.1-.5-.1-1-.1-1.5v-6.2c0-.7-.2-1.3-.5-1.7s-.7-.8-1.2-1c-.5-.2-1.1-.4-1.7-.5-.6-.1-1.2-.1-1.8-.1-.7 0-1.3.1-2 .2s-1.2.3-1.8.7c-.5.3-1 .7-1.3 1.2-.3.5-.5 1.1-.6 1.9h3.4zm4.3 3.6c0 .2 0 .4-.1.7 0 .3-.1.6-.3.9-.2.3-.4.6-.8.8-.4.2-.9.3-1.5.3-.3 0-.5 0-.8-.1-.2 0-.5-.1-.6-.2-.2-.1-.3-.3-.4-.5-.1-.2-.2-.4-.2-.7 0-.3.1-.6.2-.8.1-.2.2-.4.4-.5l.6-.3c.2-.1.5-.1.7-.2.3 0 .5-.1.8-.1.3 0 .5-.1.7-.1.2 0 .5-.1.7-.2s.4-.2.5-.3v1.3zm22.9 5.5c-.1.6-.4 1.2-.8 1.7s-1.1 1-1.9 1.3c-.8.4-1.9.6-3.3.6-.6 0-1.2-.1-1.8-.2-.6-.1-1.2-.4-1.7-.7-.5-.3-.9-.7-1.2-1.2-.3-.5-.5-1.1-.6-1.7h3.2c.2.6.5 1 .9 1.3.4.2 1 .4 1.5.4.9 0 1.6-.3 2-.8.4-.6.6-1.2.6-2.1v-1.6c-.4.6-.9 1.1-1.5 1.4-.7.3-1.3.4-2.1.4-.9 0-1.7-.2-2.3-.5-.6-.3-1.2-.7-1.6-1.3-.4-.5-.7-1.2-.9-1.9-.2-.7-.3-1.5-.3-2.3 0-.8.1-1.5.3-2.2.2-.7.5-1.3 1-1.9.4-.5 1-1 1.6-1.3.6-.3 1.4-.5 2.2-.5.8 0 1.5.1 2.1.4.6.3 1.1.8 1.5 1.5v-1.6h3.1v11.1c.2.5.2 1.1 0 1.7zm-4.4-4c.4-.2.6-.4.9-.7.2-.3.4-.7.5-1 .1-.4.2-.8.2-1.2 0-.5 0-1-.1-1.4-.1-.4-.2-.8-.5-1.2-.2-.3-.5-.6-.9-.8-.4-.2-.8-.3-1.3-.3s-.9.1-1.2.3c-.3.2-.6.4-.8.7-.2.3-.4.7-.5 1.1-.1.4-.1.8-.1 1.3 0 .4 0 .9.1 1.3s.2.8.4 1.1c.2.3.5.6.8.8.3.2.8.3 1.3.3.4 0 .8-.1 1.2-.3zm7.1-5.4c.3-.8.7-1.4 1.2-2 .5-.5 1.2-1 1.9-1.3.8-.3 1.6-.4 2.5-.4.9 0 1.8.1 2.5.4s1.4.7 1.9 1.3c.5.5 1 1.2 1.2 2 .3.8.4 1.6.4 2.6s-.1 1.8-.4 2.6c-.3.8-.7 1.4-1.2 2-.5.5-1.2 1-1.9 1.3s-1.6.4-2.5.4c-.9 0-1.8-.1-2.5-.4-.8-.3-1.4-.7-1.9-1.3-.5-.5-1-1.2-1.2-2-.3-.8-.4-1.6-.4-2.6s.1-1.8.4-2.6zm3 4c.1.5.2.9.5 1.2.2.4.5.6.9.9.4.2.8.3 1.4.3.6 0 1-.1 1.4-.3.4-.2.7-.5.9-.9.2-.4.4-.8.5-1.2.1-.5.1-.9.1-1.4 0-.5 0-.9-.1-1.4-.1-.5-.2-.9-.5-1.2-.2-.4-.5-.6-.9-.9-.4-.2-.8-.3-1.4-.3-.6 0-1 .1-1.4.3-.4.2-.7.5-.9.9-.2.4-.4.8-.5 1.2-.1.5-.1.9-.1 1.4-.1.4 0 .9.1 1.4zm10.8-4c.3-.8.7-1.4 1.2-2 .5-.5 1.2-1 1.9-1.3.8-.3 1.6-.4 2.5-.4.9 0 1.8.1 2.5.4s1.4.7 1.9 1.3c.5.5 1 1.2 1.2 2 .3.8.4 1.6.4 2.6s-.1 1.8-.4 2.6c-.3.8-.7 1.4-1.2 2-.5.5-1.2 1-1.9 1.3s-1.6.4-2.5.4c-.9 0-1.8-.1-2.5-.4-.8-.3-1.4-.7-1.9-1.3-.5-.5-1-1.2-1.2-2-.3-.8-.4-1.6-.4-2.6s.1-1.8.4-2.6zm3 4c.1.5.2.9.5 1.2.2.4.5.6.9.9.4.2.8.3 1.4.3.6 0 1-.1 1.4-.3.4-.2.7-.5.9-.9.2-.4.4-.8.5-1.2.1-.5.1-.9.1-1.4 0-.5 0-.9-.1-1.4-.1-.5-.2-.9-.5-1.2-.2-.4-.5-.6-.9-.9-.4-.2-.8-.3-1.4-.3-.6 0-1 .1-1.4.3-.4.2-.7.5-.9.9-.2.4-.4.8-.5 1.2-.1.5-.1.9-.1 1.4 0 .4 0 .9.1 1.4zm19.2 3c-.4.6-.9 1.1-1.5 1.4-.6.3-1.3.4-2.1.4-.9 0-1.7-.2-2.3-.5-.7-.3-1.2-.8-1.7-1.4-.4-.6-.8-1.3-1-2-.2-.8-.3-1.6-.3-2.4 0-.8.1-1.6.3-2.3.2-.7.6-1.4 1-2 .4-.6 1-1 1.6-1.4.7-.3 1.4-.5 2.3-.5.7 0 1.4.1 2 .4.6.3 1.1.7 1.5 1.3v-6h3.3v16.4h-3.1v-1.4zm-.1-5.9c-.1-.5-.2-.9-.5-1.2-.2-.3-.5-.6-.9-.8-.4-.2-.8-.3-1.3-.3s-1 .1-1.4.3c-.4.2-.7.5-.9.9-.2.4-.4.8-.5 1.2-.1.5-.1.9-.1 1.4 0 .5.1.9.2 1.4.1.5.3.9.5 1.2.2.4.5.7.9.9.4.2.8.3 1.3.3s1-.1 1.3-.3c.4-.2.6-.5.9-.9.2-.4.4-.8.5-1.2.1-.5.1-.9.1-1.4 0-.6 0-1-.1-1.5zm10.4-2.3v-2.2h2v-.9c0-1.1.3-1.9 1-2.6.7-.7 1.7-1 3-1h.9c.3 0 .6 0 .9.1v2.4c-.4 0-.8-.1-1.2-.1-.4 0-.8.1-1 .3-.2.2-.3.6-.3 1v.7h2.3v2.2h-2.3v9.7h-3.3v-9.7h-2zm9.5-4v-2.7h3.3v2.7h-3.3zm3.2 1.8v11.9h-3.3V47.4h3.3zm5.5 0v2.2c.2-.4.4-.7.6-1 .3-.3.6-.6.9-.8.3-.2.7-.4 1.1-.5.4-.1.8-.2 1.2-.2.2 0 .5 0 .7.1v3c-.2 0-.3-.1-.6-.1h-.6c-.6 0-1.1.1-1.5.3-.4.2-.7.5-1 .8s-.4.7-.5 1.2c-.1.5-.2 1-.2 1.5v5.4h-3.3V47.4h3.2zm8.4 8.9c.1.3.3.5.6.6.2.2.5.3.8.4.3.1.6.1.9.1.2 0 .5 0 .7-.1.3-.1.5-.1.7-.3.2-.1.4-.3.5-.5.1-.2.2-.4.2-.7 0-.5-.3-.9-1-1.1-.7-.2-1.6-.5-2.7-.7-.5-.1-.9-.2-1.4-.4-.5-.1-.9-.3-1.2-.6-.4-.2-.6-.5-.9-.9-.2-.4-.3-.8-.3-1.3 0-.8.1-1.4.4-1.9.3-.5.7-.9 1.2-1.2.5-.3 1-.5 1.7-.6.6-.1 1.2-.2 1.9-.2.6 0 1.3.1 1.9.2.6.1 1.1.3 1.6.6s.9.7 1.2 1.2c.3.5.5 1.1.6 1.8h-3.1c0-.6-.3-1.1-.7-1.3-.4-.2-.9-.3-1.5-.3h-.6c-.2 0-.4.1-.6.1-.2.1-.3.2-.4.3-.1.1-.2.3-.2.6s.1.5.3.7c.2.2.5.3.8.4.3.1.7.2 1.2.3.4.1.9.2 1.4.3.5.1.9.2 1.4.4.5.2.9.4 1.2.6.4.3.6.6.9.9.2.4.3.8.3 1.4 0 .8-.2 1.4-.5 2-.3.5-.7 1-1.2 1.3-.5.3-1.1.5-1.7.7-.7.1-1.3.2-2 .2s-1.4-.1-2-.2c-.7-.1-1.2-.4-1.8-.7-.5-.3-.9-.7-1.3-1.3-.3-.5-.5-1.2-.5-2h3.1c-.2.7-.1 1 .1 1.2zm15.9-8.9v2.2h-2.4v5.9c0 .6.1.9.3 1.1.2.2.6.3 1.1.3h.5c.2 0 .3 0 .5-.1v2.5c-.3 0-.6.1-.9.1h-1c-.5 0-1 0-1.4-.1-.5-.1-.9-.2-1.2-.4-.3-.2-.6-.5-.8-.9-.2-.4-.3-.9-.3-1.4v-7h-2v-2.2h2v-3.6h3.3v3.6h2.3zm10.2 8.9c.1.3.3.5.6.6.2.2.5.3.8.4.3.1.6.1.9.1.2 0 .5 0 .7-.1.3-.1.5-.1.7-.3.2-.1.4-.3.5-.5.1-.2.2-.4.2-.7 0-.5-.3-.9-1-1.1-.7-.2-1.6-.5-2.7-.7-.5-.1-.9-.2-1.4-.4-.5-.1-.9-.3-1.2-.6-.4-.2-.6-.5-.9-.9-.2-.4-.3-.8-.3-1.3 0-.8.1-1.4.4-1.9.3-.5.7-.9 1.2-1.2.5-.3 1-.5 1.7-.6.6-.1 1.2-.2 1.9-.2.6 0 1.3.1 1.9.2.6.1 1.1.3 1.6.6s.9.7 1.2 1.2c.3.5.5 1.1.6 1.8h-3.1c0-.6-.3-1.1-.7-1.3-.4-.2-.9-.3-1.5-.3h-.6c-.2 0-.4.1-.6.1-.2.1-.3.2-.4.3-.1.1-.2.3-.2.6s.1.5.3.7c.2.2.5.3.8.4.3.1.7.2 1.2.3.4.1.9.2 1.4.3.5.1.9.2 1.4.4.5.2.9.4 1.2.6.4.3.6.6.9.9.2.4.3.8.3 1.4 0 .8-.2 1.4-.5 2-.3.5-.7 1-1.2 1.3-.5.3-1.1.5-1.7.7-.7.1-1.3.2-2 .2s-1.4-.1-2-.2c-.7-.1-1.2-.4-1.8-.7-.5-.3-.9-.7-1.3-1.3-.3-.5-.5-1.2-.5-2h3.1c-.1.7 0 1 .1 1.2zm15.9-8.9v2.2h-2.4v5.9c0 .6.1.9.3 1.1.2.2.6.3 1.1.3h.5c.2 0 .3 0 .5-.1v2.5c-.3 0-.6.1-.9.1h-1c-.5 0-1 0-1.4-.1-.5-.1-.9-.2-1.2-.4-.3-.2-.6-.5-.8-.9-.2-.4-.3-.9-.3-1.4v-7h-2v-2.2h2v-3.6h3.3v3.6h2.3zm4.8 9.1c.5.5 1.2.7 2.1.7.7 0 1.2-.2 1.7-.5s.8-.7.9-1h2.9c-.5 1.4-1.2 2.4-2.1 3.1-1 .6-2.1.9-3.4.9-.9 0-1.8-.1-2.5-.4-.8-.3-1.4-.7-1.9-1.3-.5-.6-.9-1.2-1.2-2-.3-.8-.4-1.6-.4-2.5 0-.9.1-1.7.4-2.5.3-.8.7-1.4 1.2-2 .5-.6 1.2-1 1.9-1.3.7-.3 1.6-.5 2.5-.5 1 0 1.9.2 2.6.6.8.4 1.4.9 1.9 1.6.5.7.8 1.4 1 2.3.2.8.3 1.7.2 2.6H452c.1.9.4 1.7.8 2.2zm3.7-6.3c-.4-.4-1-.6-1.8-.6-.5 0-1 .1-1.3.3-.3.2-.6.4-.8.7-.2.3-.4.5-.4.8-.1.3-.1.6-.1.8h5.3c-.2-.9-.5-1.6-.9-2zm8.9-2.8v1.5c.4-.6.9-1.1 1.5-1.4.6-.3 1.3-.4 2-.4.9 0 1.7.2 2.4.5.7.4 1.2.8 1.7 1.4.4.6.8 1.3 1 2 .2.8.3 1.6.3 2.4 0 .8-.1 1.6-.3 2.3-.2.7-.5 1.4-1 2-.4.6-1 1-1.6 1.4-.7.3-1.4.5-2.3.5-.7 0-1.4-.1-2-.4-.6-.3-1.1-.7-1.5-1.3v5.6h-3.3V47.4h3.1zm4.3 9.4c.4-.2.7-.5.9-.8.2-.3.4-.7.5-1.2s.1-.9.1-1.4c0-.5 0-.9-.1-1.4-.1-.5-.3-.9-.5-1.2-.2-.4-.5-.7-.9-.9-.4-.2-.8-.3-1.3-.3s-1 .1-1.3.3c-.4.2-.7.5-.9.9-.2.4-.4.8-.5 1.2-.1.5-.1.9-.1 1.4 0 .5 0 .9.1 1.4.1.5.3.9.5 1.2.2.3.5.6.9.8.4.2.8.3 1.3.3.5.1.9 0 1.3-.3zm10.2-1v3.5h-3.6v-3.5h3.6z"/></svg>