<svg id="Layer_1" xmlns="http://www.w3.org/2000/svg" viewBox="0 0 728 90"><style>.st0{font-family:&apos;HelveticaNeue-BoldItalic&apos;}.st1{font-size:23px}</style><path d="M32.8 19.7c.7 0 1.4.1 2 .4.6.2 1.1.6 1.5 1 .4.4.7.9 1 1.4.2.5.3 1.1.3 1.8 0 1-.2 1.8-.6 2.5-.4.7-1.1 1.2-2 1.6.4.1.8.3 1.1.6.3.3.5.6.7.9.2.3.3.7.4 1.1.1.4.1.8.2 1.2v.9c0 .3 0 .7.1 1.1 0 .4.1.7.2 1 .1.3.2.6.4.8h-3.6c-.2-.5-.3-1.1-.4-1.9s-.1-1.4-.2-2.1c-.1-.9-.4-1.5-.8-1.9-.4-.4-1.1-.6-2-.6h-3.6v6.4H24V19.7h8.8zm-1.2 7.4c.8 0 1.4-.2 1.9-.6s.6-1 .6-1.8-.2-1.4-.6-1.7c-.4-.4-1-.5-1.9-.5h-4v4.6h4zM43.7 33.2c.5.5 1.2.7 2.1.7.7 0 1.2-.2 1.7-.5s.8-.7.9-1h2.9c-.5 1.4-1.2 2.4-2.1 3.1-1 .6-2.1.9-3.5.9-.9 0-1.8-.1-2.5-.4-.8-.3-1.4-.7-1.9-1.3-.5-.6-.9-1.2-1.2-2s-.4-1.6-.4-2.5c0-.9.1-1.7.4-2.5.3-.8.7-1.4 1.2-2 .5-.6 1.2-1 1.9-1.3.7-.3 1.6-.5 2.5-.5 1 0 1.9.2 2.6.6s1.4.9 1.9 1.6.8 1.4 1 2.3c.2.8.3 1.7.2 2.6h-8.6c.2 1 .5 1.8.9 2.2zm3.7-6.2c-.4-.4-1-.6-1.8-.6-.5 0-1 .1-1.3.3-.3.2-.6.4-.8.7s-.4.5-.4.8c-.1.3-.1.6-.1.8h5.3c-.2-1-.5-1.6-.9-2zM53.3 27.8c0-.8.2-1.4.6-1.9.3-.5.8-.9 1.3-1.2s1.1-.5 1.8-.7c.7-.1 1.3-.2 2-.2.6 0 1.2 0 1.8.1.6.1 1.2.2 1.7.5s.9.6 1.2 1c.3.4.5 1 .5 1.7v6.2c0 .5 0 1.1.1 1.5.1.5.2.9.3 1.1h-3.3c-.1-.2-.1-.4-.1-.6 0-.2-.1-.4-.1-.6-.5.5-1.1.9-1.8 1.1s-1.4.3-2.2.3c-.6 0-1.1-.1-1.6-.2s-.9-.4-1.3-.6c-.4-.3-.7-.7-.9-1.1s-.3-1-.3-1.6c0-.7.1-1.2.4-1.7s.5-.8.9-1c.4-.3.8-.5 1.3-.6l1.5-.3c.5-.1 1-.1 1.4-.2.5 0 .9-.1 1.3-.2s.7-.2.9-.4c.2-.2.3-.4.3-.8s-.1-.6-.2-.8c-.1-.2-.3-.4-.5-.5-.2-.1-.4-.2-.7-.2-.3 0-.5-.1-.8-.1-.6 0-1.2.1-1.5.4-.4.3-.6.7-.6 1.4h-3.4zm7.6 2.5c-.1.1-.3.2-.5.3-.2.1-.4.1-.7.2s-.5.1-.7.1c-.3 0-.5.1-.8.1-.2 0-.5.1-.7.2l-.6.3c-.2.1-.3.3-.4.5-.1.2-.2.5-.2.8 0 .3.1.5.2.7.1.2.3.4.4.5.2.1.4.2.6.2.2 0 .5.1.8.1.6 0 1.1-.1 1.5-.3.4-.2.6-.5.8-.8.2-.3.3-.6.3-.9s.1-.6.1-.7v-1.3zM75.1 34.6c-.4.6-.9 1.1-1.5 1.4-.6.3-1.3.4-2.1.4-.9 0-1.7-.2-2.3-.5-.7-.3-1.2-.8-1.7-1.4-.4-.6-.8-1.3-1-2-.2-.8-.3-1.6-.3-2.4 0-.8.1-1.6.3-2.3s.6-1.4 1-2c.4-.6 1-1 1.6-1.4.7-.3 1.4-.5 2.3-.5.7 0 1.4.1 2 .4.6.3 1.1.7 1.5 1.3v-6h3.3V36h-3.1v-1.4zm-.1-5.9c-.1-.5-.2-.9-.5-1.2-.2-.3-.5-.6-.9-.8-.4-.2-.8-.3-1.3-.3s-1 .1-1.4.3c-.4.2-.7.5-.9.9-.2.4-.4.8-.5 1.2-.1.5-.1.9-.1 1.4 0 .5.1.9.2 1.4.1.5.3.9.5 1.2.2.4.5.7.9.9.4.2.8.3 1.3.3s1-.1 1.3-.3c.4-.2.6-.5.9-.9.2-.4.4-.8.5-1.2.1-.5.1-.9.1-1.4s-.1-1.1-.1-1.5zM80.9 27.9v-3.5h3.6v3.5h-3.6zm3.6 4.6V36h-3.6v-3.5h3.6z"/><g><path d="M93.5 22.7l.6-3h13.7l-.6 3h-4.9l-2.8 13.4h-3.6l2.8-13.4h-5.2zM112.7 19.7l-1.2 5.9c.1-.2.3-.4.5-.6s.5-.4.8-.6c.3-.2.7-.3 1.1-.4.4-.1.9-.2 1.4-.2 2.3 0 3.5 1.1 3.5 3.2v.5c0 .2-.1.4-.1.6 0 .2-.1.4-.1.6 0 .2-.1.3-.1.4l-1.5 7h-3.3l1.4-7c0-.2.1-.4.1-.7.1-.3.1-.5.1-.7 0-.4-.2-.6-.5-.9-.3-.2-.7-.3-1.1-.3-.5 0-.9.1-1.3.3-.4.2-.7.4-1 .7-.3.3-.5.7-.7 1.1-.2.4-.3.8-.4 1.2l-1.3 6.3h-3.2l3.4-16.4h3.5zM123.7 31.1v.5c0 .7.2 1.2.6 1.7.4.4 1.1.6 2 .6.3 0 .6 0 .9-.1.3-.1.5-.2.7-.4s.4-.3.5-.5c.1-.2.3-.4.4-.6h3.3c-.3.7-.6 1.3-.9 1.8-.4.5-.8.9-1.3 1.3-.5.3-1.1.6-1.7.8-.7.2-1.4.3-2.3.3-.8 0-1.5-.1-2.2-.3-.7-.2-1.2-.5-1.7-1s-.8-1-1.1-1.6-.4-1.4-.4-2.3c0-1 .2-1.9.5-2.7.3-.9.7-1.7 1.3-2.3.6-.7 1.2-1.2 2.1-1.6.8-.4 1.7-.6 2.7-.6.8 0 1.6.1 2.3.3.7.2 1.3.5 1.7 1 .5.4.9 1 1.1 1.6s.4 1.4.4 2.3c0 .6-.1 1.2-.2 1.9h-8.8c.1-.2.1-.1.1-.1zm5.8-3.2c-.1-.3-.2-.6-.3-.8-.2-.2-.4-.4-.7-.6-.3-.1-.7-.2-1.1-.2-.5 0-.9.1-1.2.2-.4.1-.7.3-.9.6-.3.2-.5.5-.7.8-.2.3-.3.6-.4 1h5.5c-.2-.4-.2-.7-.2-1zM138.9 24.2l-.5 2.1c.4-.8.9-1.5 1.7-1.9.7-.4 1.6-.6 2.4-.6.3 0 .7 0 1 .1l-.7 3.2c-.2 0-.5-.1-.7-.1s-.5-.1-.7-.1c-.6 0-1.2.1-1.6.3-.4.2-.8.5-1.1.9-.3.4-.5.8-.7 1.3-.2.5-.3 1-.4 1.5l-1.1 5.3h-3.2l2.5-11.9h3.1zM145.5 31.1v.5c0 .7.2 1.2.6 1.7.4.4 1.1.6 2 .6.3 0 .6 0 .9-.1.3-.1.5-.2.7-.4s.4-.3.5-.5c.1-.2.3-.4.4-.6h3.3c-.3.7-.6 1.3-.9 1.8-.4.5-.8.9-1.3 1.3-.5.3-1.1.6-1.7.8-.7.2-1.4.3-2.3.3-.8 0-1.5-.1-2.2-.3-.7-.2-1.2-.5-1.7-1s-.8-1-1.1-1.6-.4-1.4-.4-2.3c0-1 .2-1.9.5-2.7.3-.9.7-1.7 1.3-2.3.6-.7 1.2-1.2 2.1-1.6.8-.4 1.7-.6 2.7-.6.8 0 1.6.1 2.3.3.7.2 1.3.5 1.7 1 .5.4.9 1 1.1 1.6s.4 1.4.4 2.3c0 .6-.1 1.2-.2 1.9h-8.8c.1-.2.1-.1.1-.1zm5.7-3.2c-.1-.3-.2-.6-.3-.8-.2-.2-.4-.4-.7-.6-.3-.1-.7-.2-1.1-.2-.5 0-.9.1-1.2.2-.4.1-.7.3-.9.6-.3.2-.5.5-.7.8-.2.3-.3.6-.4 1h5.5c-.1-.4-.2-.7-.2-1zM162.2 19.7l-.7 3.5c-.1.5-.3 1-.5 1.5s-.5.9-.8 1.2c-.3.3-.8.6-1.3.8-.5.2-1.1.3-1.9.4l.3-1.6c.7-.1 1.2-.4 1.4-.7s.5-.9.6-1.5h-1.6l.7-3.5h3.8zM167.6 26.5c-.3-.3-.7-.4-1.4-.4-.6 0-1.1.1-1.4.3-.4.2-.6.5-.6.9 0 .3.1.5.3.7s.6.4 1.2.5l1.6.5c.4.1.9.3 1.2.5.4.2.7.4 1 .7.3.3.5.6.7 1 .2.4.2.8.2 1.3 0 .7-.2 1.4-.5 1.9s-.8.9-1.3 1.3c-.5.3-1.1.6-1.8.7-.7.1-1.4.2-2 .2-.6 0-1.2-.1-1.8-.2-.6-.1-1.1-.3-1.6-.6s-.9-.7-1.2-1.1c-.3-.5-.5-1.1-.5-1.8v-.5h3v.4c0 .3.1.5.2.7.1.2.3.4.5.5.2.1.5.2.8.3.3.1.6.1.8.1.2 0 .5 0 .7-.1.2 0 .5-.1.7-.2.2-.1.4-.3.5-.4.1-.2.2-.4.2-.7 0-.4-.1-.7-.3-.9-.2-.2-.5-.3-.9-.4l-2.5-.8c-.4-.1-.8-.3-1.1-.4-.3-.2-.6-.3-.8-.6-.2-.2-.4-.5-.5-.8-.1-.3-.2-.7-.2-1.2 0-.7.2-1.3.5-1.8s.8-.9 1.3-1.2c.5-.3 1.1-.5 1.7-.6.6-.1 1.2-.2 1.8-.2.6 0 1.3.1 1.9.2.6.1 1.1.3 1.6.6s.8.7 1.1 1.2c.3.5.4 1.1.4 1.9h-3c0-.8-.2-1.2-.5-1.5zM185.4 19.7l4.5 11.7 2.3-11.7h3.3L192 36.1h-3.6L184 24.6l-2.3 11.5h-3.4l3.4-16.4h3.7zM196.1 28.4c.3-.9.8-1.7 1.4-2.4.6-.7 1.3-1.2 2.2-1.6s1.8-.6 2.9-.6c.8 0 1.6.1 2.2.3.7.2 1.3.5 1.8.9s.9.9 1.1 1.6c.3.6.4 1.4.4 2.2 0 1-.2 2-.5 2.9-.3.9-.8 1.7-1.4 2.4-.6.7-1.3 1.2-2.2 1.6-.9.4-1.8.6-2.9.6-1.7 0-3-.4-4-1.3s-1.5-2.1-1.5-3.8c0-.9.1-1.9.5-2.8zm2.9 3.9c.1.3.2.6.4.9.2.2.4.4.7.6.3.1.6.2 1 .2.6 0 1.1-.2 1.6-.5s.8-.7 1.1-1.2c.3-.5.5-1 .6-1.6.1-.6.2-1.1.2-1.6 0-.8-.2-1.4-.5-1.9-.4-.5-1-.7-1.9-.7-.6 0-1.1.2-1.6.5s-.8.7-1.1 1.2c-.3.5-.5 1-.6 1.6-.1.6-.2 1.1-.2 1.6.2.2.2.6.3.9zM225.7 19.7c.8 0 1.6.1 2.2.2.7.1 1.2.3 1.7.6s.8.7 1.1 1.2c.2.5.4 1.1.4 1.9 0 .5-.1.9-.2 1.3s-.3.8-.6 1.2-.6.6-1 .9c-.4.2-.8.4-1.3.4.8.2 1.4.6 1.8 1.2s.6 1.3.6 2.1c0 .9-.2 1.7-.5 2.3-.3.7-.8 1.2-1.4 1.7-.6.4-1.2.8-2 1-.8.2-1.5.3-2.4.3h-8.7l3.4-16.4h6.9zm-1.8 13.6c.8 0 1.5-.2 2-.7.5-.4.8-1.1.8-2 0-.4-.1-.8-.3-1-.2-.2-.4-.4-.7-.6s-.6-.2-.9-.2h-4.5l-1 4.5h4.6zm1-7c.7 0 1.2-.2 1.7-.5.5-.4.7-.9.7-1.6 0-.6-.2-1.1-.5-1.3-.3-.2-.8-.4-1.4-.4h-3.8l-.8 3.8h4.1zM235.4 31.1v.5c0 .7.2 1.2.6 1.7.4.4 1.1.6 2 .6.3 0 .6 0 .9-.1.3-.1.5-.2.7-.4s.4-.3.5-.5c.1-.2.3-.4.4-.6h3.3c-.3.7-.6 1.3-.9 1.8-.4.5-.8.9-1.3 1.3-.5.3-1.1.6-1.7.8-.7.2-1.4.3-2.3.3-.8 0-1.5-.1-2.2-.3-.7-.2-1.2-.5-1.7-1s-.8-1-1.1-1.6-.4-1.4-.4-2.3c0-1 .2-1.9.5-2.7.3-.9.7-1.7 1.3-2.3.6-.7 1.2-1.2 2.1-1.6.8-.4 1.7-.6 2.7-.6.8 0 1.6.1 2.3.3.7.2 1.3.5 1.7 1 .5.4.9 1 1.1 1.6s.4 1.4.4 2.3c0 .6-.1 1.2-.2 1.9h-8.8c.1-.2.1-.1.1-.1zm5.7-3.2c-.1-.3-.2-.6-.3-.8-.2-.2-.4-.4-.7-.6-.3-.1-.7-.2-1.1-.2-.5 0-.9.1-1.2.2-.4.1-.7.3-.9.6-.3.2-.5.5-.7.8-.2.3-.3.6-.4 1h5.5c-.1-.4-.1-.7-.2-1zM253.9 24.2l-.5 2.2h-2.3l-1.2 5.9c0 .1-.1.2-.1.3v.2c0 .2 0 .4.1.5l.3.3c.1.1.2.1.4.1h.4c.4 0 .8 0 1.2-.1l-.6 2.5c-.3 0-.7.1-1 .1h-1c-.4 0-.8 0-1.1-.1-.4-.1-.7-.2-1-.4-.3-.2-.5-.4-.7-.7-.2-.3-.3-.7-.2-1.2v-.5c0-.2.1-.4.1-.6l1.3-6.4h-2.1l.5-2.2h2.1l.7-3.6h3.3l-.7 3.6h2.1zM262.5 24.2l-.5 2.2h-2.3l-1.2 5.9c0 .1-.1.2-.1.3v.2c0 .2 0 .4.1.5l.3.3c.1.1.2.1.4.1h.4c.4 0 .8 0 1.2-.1l-.6 2.5c-.3 0-.7.1-1 .1h-1c-.4 0-.8 0-1.1-.1-.4-.1-.7-.2-1-.4-.3-.2-.5-.4-.7-.7-.2-.3-.3-.7-.2-1.2v-.5c0-.2.1-.4.1-.6l1.3-6.4h-2.1l.5-2.2h2.1l.7-3.6h3.3l-.7 3.6h2.1zM265.6 31.1v.5c0 .7.2 1.2.6 1.7.4.4 1.1.6 2 .6.3 0 .6 0 .9-.1.3-.1.5-.2.7-.4s.4-.3.5-.5c.1-.2.3-.4.4-.6h3.3c-.3.7-.6 1.3-.9 1.8-.4.5-.8.9-1.3 1.3-.5.3-1.1.6-1.7.8-.7.2-1.4.3-2.3.3-.8 0-1.5-.1-2.2-.3-.7-.2-1.2-.5-1.7-1s-.8-1-1.1-1.6-.4-1.4-.4-2.3c0-1 .2-1.9.5-2.7.3-.9.7-1.7 1.3-2.3.6-.7 1.2-1.2 2.1-1.6.8-.4 1.7-.6 2.7-.6.8 0 1.6.1 2.3.3.7.2 1.3.5 1.7 1 .5.4.9 1 1.1 1.6s.4 1.4.4 2.3c0 .6-.1 1.2-.2 1.9h-8.8c.1-.2.1-.1.1-.1zm5.7-3.2c-.1-.3-.2-.6-.3-.8-.2-.2-.4-.4-.7-.6-.3-.1-.7-.2-1.1-.2-.5 0-.9.1-1.2.2-.4.1-.7.3-.9.6-.3.2-.5.5-.7.8-.2.3-.3.6-.4 1h5.5c-.1-.4-.1-.7-.2-1zM280.7 24.2l-.5 2.1c.4-.8.9-1.5 1.7-1.9.7-.4 1.6-.6 2.4-.6.3 0 .7 0 1 .1l-.7 3.2c-.2 0-.5-.1-.7-.1s-.5-.1-.7-.1c-.6 0-1.2.1-1.6.3-.4.2-.8.5-1.1.9-.3.4-.5.8-.7 1.3-.2.5-.3 1-.4 1.5l-1.1 5.3h-3.2l2.5-11.9h3.1zM292 22.7l.6-3h13.7l-.6 3h-4.9L298 36.1h-3.6l2.8-13.4H292zM310.4 24.2l-2.5 11.9h-3.3l2.5-11.9h3.3zm-3-1.9l.6-2.7h3.3l-.6 2.7h-3.3zM316.1 24.2l-.4 1.7c.5-.7 1.1-1.2 1.8-1.5.7-.3 1.5-.5 2.4-.5.7 0 1.4.2 1.9.5s.9.9 1 1.6c.2-.3.5-.6.8-.8.3-.3.6-.5 1-.7.4-.2.7-.3 1.1-.4.4-.1.8-.1 1.2-.1.5 0 .9.1 1.3.2s.8.3 1.2.6c.3.2.6.6.8.9.2.4.3.8.3 1.3 0 .4 0 .7-.1 1.1-.1.4-.2.7-.2 1.1l-1.5 7h-3.3l1.6-7.5c.1-.3.1-.6.1-.9 0-.4-.1-.7-.4-.9-.3-.2-.6-.4-1-.4s-.8.1-1.2.3c-.3.2-.6.5-.9.8-.3.3-.5.7-.6 1-.2.4-.3.8-.4 1.1l-1.3 6.4H318l1.6-7.5c.1-.3.1-.6.1-.9 0-.4-.1-.7-.4-.9-.3-.2-.6-.4-1-.4s-.8.1-1.2.3c-.3.2-.6.5-.9.8-.3.3-.5.7-.6 1-.2.4-.3.8-.4 1.1l-1.3 6.4h-3.2l2.5-11.9h2.9zM335 31.1v.5c0 .7.2 1.2.6 1.7.4.4 1.1.6 2 .6.3 0 .6 0 .9-.1.3-.1.5-.2.7-.4s.4-.3.5-.5c.1-.2.3-.4.4-.6h3.3c-.3.7-.6 1.3-.9 1.8-.4.5-.8.9-1.3 1.3-.5.3-1.1.6-1.7.8-.7.2-1.4.3-2.3.3-.8 0-1.5-.1-2.2-.3-.7-.2-1.2-.5-1.7-1s-.8-1-1.1-1.6-.4-1.4-.4-2.3c0-1 .2-1.9.5-2.7.3-.9.7-1.7 1.3-2.3.6-.7 1.2-1.2 2.1-1.6.8-.4 1.7-.6 2.7-.6.8 0 1.6.1 2.3.3.7.2 1.3.5 1.7 1 .5.4.9 1 1.1 1.6s.4 1.4.4 2.3c0 .6-.1 1.2-.2 1.9H335v-.1zm5.7-3.2c-.1-.3-.2-.6-.3-.8-.2-.2-.4-.4-.7-.6-.3-.1-.7-.2-1.1-.2-.5 0-.9.1-1.2.2-.4.1-.7.3-.9.6-.3.2-.5.5-.7.8-.2.3-.3.6-.4 1h5.5c-.1-.4-.1-.7-.2-1z"/></g><text transform="translate(351.232 36.077)" class="st0 st1"></text><g><path d="M31.1 50.2l-.5 2.2h-2.3l-1.2 5.9c0 .1-.1.2-.1.3v.2c0 .2 0 .4.1.5l.3.3c.1.1.2.1.4.1h.4c.4 0 .8 0 1.2-.1l-.6 2.5c-.3 0-.7.1-1 .1h-1c-.4 0-.8 0-1.1-.1-.4-.1-.7-.2-1-.4-.3-.2-.5-.4-.7-.7s-.3-.7-.2-1.2v-.5c0-.2.1-.4.1-.6l1.3-6.4h-2.1l.5-2.2h2.1l.7-3.6h3.3l-.7 3.6h2.1zM31.6 54.4c.3-.9.8-1.7 1.4-2.4.6-.7 1.3-1.2 2.2-1.6.8-.4 1.8-.6 2.9-.6.8 0 1.6.1 2.2.3.7.2 1.3.5 1.8.9s.9.9 1.1 1.6c.3.6.4 1.4.4 2.2 0 1-.2 2-.5 2.9s-.8 1.7-1.4 2.4c-.6.7-1.3 1.2-2.2 1.6-.9.4-1.8.6-2.9.6-1.7 0-3-.4-4-1.3s-1.5-2.1-1.5-3.8c0-1 .2-1.9.5-2.8zm3 3.9c.1.3.2.6.4.9.2.2.4.4.7.6.3.1.6.2 1 .2.6 0 1.1-.2 1.6-.5.4-.3.8-.7 1.1-1.2.3-.5.5-1 .6-1.6.1-.6.2-1.1.2-1.6 0-.8-.2-1.4-.5-1.9-.4-.5-1-.7-1.9-.7-.6 0-1.1.2-1.6.5-.4.3-.8.7-1.1 1.2-.3.5-.5 1-.6 1.6-.1.6-.2 1.1-.2 1.6.1.2.2.6.3.9zM61.2 45.6c.8 0 1.6.1 2.2.2s1.2.3 1.7.6.8.7 1.1 1.2c.2.5.4 1.1.4 1.9 0 .5-.1.9-.2 1.3s-.3.8-.6 1.2-.6.6-1 .9c-.4.2-.8.4-1.3.4.8.2 1.4.6 1.8 1.2s.6 1.3.6 2.1c0 .9-.2 1.7-.5 2.3-.3.7-.8 1.2-1.4 1.7-.6.4-1.2.8-2 1-.8.2-1.5.3-2.4.3h-8.7l3.4-16.4h6.9zm-1.7 13.7c.8 0 1.5-.2 2-.7.5-.4.8-1.1.8-2 0-.4-.1-.8-.3-1-.2-.2-.4-.4-.7-.6s-.6-.2-.9-.2h-4.5l-1 4.5h4.6zm1-7c.7 0 1.2-.2 1.7-.5.5-.4.7-.9.7-1.6 0-.6-.2-1.1-.5-1.3-.3-.2-.8-.4-1.4-.4h-3.8l-.8 3.8h4.1zM75.4 62.1l.4-1.7c-1.1 1.3-2.4 2-4.2 2-2.3 0-3.5-1.1-3.5-3.2v-.5c0-.2.1-.4.1-.6 0-.2.1-.4.1-.6 0-.2.1-.3.1-.4l1.5-7h3.3l-1.4 7c0 .1-.1.2-.1.3 0 .1 0 .3-.1.4v.7c0 .4.2.6.5.9.3.2.7.3 1.1.3.5 0 .9-.1 1.3-.3.4-.2.7-.4 1-.7.3-.3.5-.7.7-1.1.2-.4.3-.8.4-1.2l1.3-6.3H81L78.5 62h-3.1zM85.7 65c-.3.3-.6.6-1 .8-.4.2-.8.3-1.2.4-.5.1-1 .1-1.6.1H81c-.3 0-.6-.1-.9-.1l.6-2.7c.2 0 .4 0 .7.1.2 0 .4.1.7.1.4 0 .7-.1.9-.2.2-.1.4-.3.6-.4.1-.2.3-.3.4-.5.1-.2.2-.3.3-.5l-2.1-11.8h3.4l1 8.5 4.1-8.5h3.4l-7.6 13.5c-.2.4-.5.8-.8 1.2zM106.9 45.6L104.1 59h7.9l-.6 3H99.9l3.4-16.4h3.6zM118.7 50.2l-2.5 11.9h-3.3l2.5-11.9h3.3zm-2.9-1.9l.6-2.7h3.3l-.6 2.7h-3.3zM119.6 52.4l.5-2.2h2c.2-.8.3-1.4.5-2 .2-.6.4-1.1.8-1.5.3-.4.7-.7 1.3-.9.5-.2 1.2-.3 2.1-.3h1.1c.4 0 .7.1 1.1.1l-.5 2.3h-1c-.4 0-.7 0-.9.1s-.4.2-.5.4c-.1.2-.2.4-.3.7-.1.3-.1.6-.2.9h2.3l-.5 2.2h-2.3l-2 9.7h-3.3l2-9.7h-2.2zM130.5 57.1v.5c0 .7.2 1.2.6 1.7.4.4 1.1.6 2 .6.3 0 .6 0 .9-.1.3-.1.5-.2.7-.4s.4-.3.5-.5c.1-.2.3-.4.4-.6h3.3c-.3.7-.6 1.3-.9 1.8-.4.5-.8.9-1.3 1.3s-1.1.6-1.7.8c-.7.2-1.4.3-2.3.3-.8 0-1.5-.1-2.2-.3-.7-.2-1.2-.5-1.7-1-.5-.4-.8-1-1.1-1.6-.3-.6-.4-1.4-.4-2.3 0-1 .2-1.9.5-2.7s.7-1.7 1.3-2.3c.6-.7 1.2-1.2 2.1-1.6.8-.4 1.7-.6 2.7-.6.8 0 1.6.1 2.3.3s1.3.5 1.7 1c.5.4.9 1 1.1 1.6s.4 1.4.4 2.3c0 .6-.1 1.2-.2 1.9h-8.8l.1-.1zm5.8-3.2c-.1-.3-.2-.6-.3-.8-.2-.2-.4-.4-.7-.6-.3-.1-.7-.2-1.1-.2-.5 0-.9.1-1.2.2-.4.1-.7.3-.9.6-.3.2-.5.5-.7.8-.2.3-.3.6-.4 1h5.5c-.1-.4-.2-.7-.2-1zM153.8 45.6L150.3 62h-3.6l3.4-16.4h3.7zM158.9 50.2l-.4 1.7c1.1-1.3 2.4-2 4.2-2 2.3 0 3.5 1.1 3.5 3.2v.5c0 .2-.1.4-.1.6 0 .2-.1.4-.1.6 0 .2-.1.3-.1.4l-1.5 7h-3.3l1.4-7c0-.2.1-.4.1-.7.1-.3.1-.5.1-.7 0-.4-.2-.6-.5-.9-.3-.2-.7-.3-1.1-.3-.5 0-.9.1-1.3.3-.4.2-.7.4-1 .7-.3.3-.5.7-.7 1.1-.2.4-.3.8-.4 1.2l-1.3 6.3h-3.2l2.5-11.9h3.2zM175.3 52.5c-.3-.3-.7-.4-1.4-.4-.6 0-1.1.1-1.4.3-.4.2-.6.5-.6.9 0 .3.1.5.3.7.2.2.6.4 1.2.5l1.6.5c.4.1.9.3 1.2.5.4.2.7.4 1 .7.3.3.5.6.7 1 .2.4.2.8.2 1.3 0 .7-.2 1.4-.5 1.9s-.8.9-1.3 1.3c-.5.3-1.1.6-1.8.7-.7.1-1.4.2-2 .2-.6 0-1.2-.1-1.8-.2-.6-.1-1.1-.3-1.6-.6s-.9-.7-1.2-1.1-.5-1.1-.5-1.8v-.5h3v.4c0 .3.1.5.2.7.1.2.3.4.5.5.2.1.5.2.8.3.3.1.6.1.8.1.2 0 .5 0 .7-.1.2 0 .5-.1.7-.2.2-.1.4-.3.5-.4.1-.2.2-.4.2-.7 0-.4-.1-.7-.3-.9s-.5-.3-.9-.4l-2.5-.8c-.4-.1-.8-.3-1.1-.4-.3-.2-.6-.3-.8-.6-.2-.2-.4-.5-.5-.8-.1-.3-.2-.7-.2-1.2 0-.7.2-1.3.5-1.8s.8-.9 1.3-1.2c.5-.3 1.1-.5 1.7-.6.6-.1 1.2-.2 1.8-.2.6 0 1.3.1 1.9.2.6.1 1.1.3 1.6.6s.8.7 1.1 1.2c.3.5.4 1.1.4 1.9h-3c-.1-.9-.2-1.3-.5-1.5zM187.4 62.1l.4-1.7c-1.1 1.3-2.4 2-4.2 2-2.3 0-3.5-1.1-3.5-3.2v-.5c0-.2.1-.4.1-.6 0-.2.1-.4.1-.6 0-.2.1-.3.1-.4l1.5-7h3.3l-1.4 7c0 .1-.1.2-.1.3 0 .1 0 .3-.1.4v.7c0 .4.2.6.5.9.3.2.7.3 1.1.3.5 0 .9-.1 1.3-.3.4-.2.7-.4 1-.7.3-.3.5-.7.7-1.1.2-.4.3-.8.4-1.2l1.3-6.3h3.3L190.7 62h-3.3zM198.9 50.2l-.5 2.1c.4-.8.9-1.5 1.7-1.9s1.6-.6 2.4-.6c.3 0 .7 0 1 .1l-.7 3.2c-.2 0-.5-.1-.7-.1-.2 0-.5-.1-.7-.1-.6 0-1.2.1-1.6.3-.4.2-.8.5-1.1.9-.3.4-.5.8-.7 1.3s-.3 1-.4 1.5l-1.1 5.3h-3.2l2.5-11.9h3.1zM204.7 51.9c.4-.5.8-.9 1.3-1.2.5-.3 1.1-.5 1.7-.7.6-.1 1.3-.2 2-.2.5 0 1.1 0 1.7.1.6.1 1.1.2 1.6.4s.9.5 1.2.9c.3.4.5.9.4 1.6 0 .6-.1 1.2-.3 2l-1.1 4.8c-.1.2-.1.5-.1.8v.8c0 .2 0 .4.1.7h-3.3v-1.2c-.4.5-1 .9-1.6 1.1s-1.3.4-2 .4c-.6 0-1.2-.1-1.7-.3-.5-.2-.9-.4-1.2-.7-.3-.3-.6-.6-.7-1-.2-.4-.2-.8-.2-1.2 0-1.2.4-2.1 1.2-2.8.8-.7 1.9-1.1 3.3-1.3.8-.1 1.4-.2 2-.2.6 0 1-.1 1.4-.2.4-.1.7-.2.8-.4.2-.2.3-.5.3-.9 0-.3-.1-.6-.2-.7-.1-.2-.3-.3-.5-.4s-.4-.2-.7-.2c-.2 0-.5-.1-.7-.1-.6 0-1.1.1-1.6.4-.5.3-.7.7-.9 1.3H204c.1-.5.3-1.1.7-1.6zm4.8 4.9c-.5.1-1 .1-1.4.1-.3 0-.6.1-.9.1-.3.1-.5.2-.8.3-.2.1-.4.3-.5.6-.1.2-.2.5-.2.9s.2.8.5 1c.4.2.8.3 1.3.3s.9-.1 1.3-.2l.9-.6c.3-.2.4-.5.6-.9.1-.3.3-.6.3-1l.3-1.2c-.5.4-.9.6-1.4.6zM221.1 50.2l-.4 1.7c1.1-1.3 2.4-2 4.2-2 2.3 0 3.5 1.1 3.5 3.2v.5c0 .2-.1.4-.1.6 0 .2-.1.4-.1.6 0 .2-.1.3-.1.4l-1.5 7h-3.3l1.4-7c0-.2.1-.4.1-.7.1-.3.1-.5.1-.7 0-.4-.2-.6-.5-.9-.3-.2-.7-.3-1.1-.3-.5 0-.9.1-1.3.3-.4.2-.7.4-1 .7-.3.3-.5.7-.7 1.1-.2.4-.3.8-.4 1.2l-1.3 6.3h-3.2l2.5-11.9h3.2zM238.3 52.8c-.4-.3-.9-.5-1.6-.5-.6 0-1.1.2-1.6.5-.4.3-.8.7-1 1.3s-.4 1.1-.6 1.6c-.1.6-.2 1.1-.2 1.6 0 .4 0 .7.1 1 .1.3.2.6.4.8.2.2.4.4.7.6.3.1.6.2 1 .2s.7-.1 1-.2c.3-.1.5-.3.8-.5s.4-.4.6-.7c.1-.3.3-.5.4-.8h3.3c-.5 1.5-1.2 2.6-2.3 3.4-1 .8-2.3 1.2-3.9 1.2-1.7 0-3-.4-3.9-1.2-.9-.8-1.4-2.1-1.4-3.9 0-1 .1-2 .4-2.9.3-.9.7-1.7 1.3-2.4.6-.7 1.3-1.2 2.1-1.6.8-.4 1.8-.6 2.9-.6.7 0 1.4.1 2 .3s1.2.4 1.7.8.9.8 1.1 1.4.4 1.2.4 2h-3.3c.2-.6 0-1.1-.4-1.4zM246 57.1v.5c0 .7.2 1.2.6 1.7.4.4 1.1.6 2 .6.3 0 .6 0 .9-.1.3-.1.5-.2.7-.4s.4-.3.5-.5c.1-.2.3-.4.4-.6h3.3c-.3.7-.6 1.3-.9 1.8-.4.5-.8.9-1.3 1.3s-1.1.6-1.7.8c-.7.2-1.4.3-2.3.3-.8 0-1.5-.1-2.2-.3-.7-.2-1.2-.5-1.7-1-.5-.4-.8-1-1.1-1.6-.3-.6-.4-1.4-.4-2.3 0-1 .2-1.9.5-2.7s.7-1.7 1.3-2.3c.6-.7 1.2-1.2 2.1-1.6.8-.4 1.7-.6 2.7-.6.8 0 1.6.1 2.3.3s1.3.5 1.7 1c.5.4.9 1 1.1 1.6s.4 1.4.4 2.3c0 .6-.1 1.2-.2 1.9H246v-.1zm5.7-3.2c-.1-.3-.2-.6-.3-.8-.2-.2-.4-.4-.7-.6-.3-.1-.7-.2-1.1-.2-.5 0-.9.1-1.2.2-.4.1-.7.3-.9.6-.3.2-.5.5-.7.8-.2.3-.3.6-.4 1h5.5c-.1-.4-.1-.7-.2-1zM260.1 58.5l-.8 3.5h-3.6l.7-3.5h3.7zm-.7-1.4h-1.6l.6-7 .9-4.5h3.5l-1 4.5-2.4 7z"/></g></svg>