<svg id="Layer_1" xmlns="http://www.w3.org/2000/svg" xmlns:xlink="http://www.w3.org/1999/xlink" viewBox="0 0 728 90"><style>.st0{clip-path:url(#SVGID_00000031909219139171846900000012649543742197545357_);fill:#349946}.st1{fill:#fff}</style><defs><path id="SVGID_1_" d="M535.7 12.1H652v24.5H535.7z"/></defs><clipPath id="SVGID_00000053538864648708228780000004364553531799635610_"><use xlink:href="#SVGID_1_" overflow="visible"/></clipPath><path d="M652 24.4c0 6.7-6.3 12.3-14.1 12.3h-88.2c-7.7 0-14.1-5.5-14.1-12.3s6.3-12.3 14.1-12.3h88.2c7.8 0 14.1 5.5 14.1 12.3" clip-path="url(#SVGID_00000053538864648708228780000004364553531799635610_)" fill="#349946"/><g><path class="st1" d="M558.6 20.7c.3 0 .7.1.9.2s.5.3.7.5.4.4.5.7c.1.3.2.5.2.8 0 .5-.1.9-.3 1.2-.2.3-.5.6-.9.8.2.1.4.1.5.3s.3.3.3.4c.1.2.2.3.2.5s.1.4.1.6v.9c0 .2 0 .3.1.5 0 .2.1.3.2.4h-1.7c-.1-.2-.2-.5-.2-.9 0-.3-.1-.7-.1-1-.1-.4-.2-.7-.4-.9-.2-.2-.5-.3-.9-.3h-1.7v3.1h-1.7v-7.8h4.2zm-.6 3.5c.4 0 .7-.1.9-.3s.3-.5.3-.9-.1-.7-.3-.8c-.2-.2-.5-.3-.9-.3h-1.9v2.2h1.9zM568.1 20.7v1.4H564v1.7h3.8v1.3H564V27h4.2v1.4h-5.9v-7.8h5.8zM573.3 20.7l2.9 7.8h-1.8l-.6-1.7h-2.9l-.6 1.7h-1.7l3-7.8h1.7zm.1 4.8l-1-2.9-1 2.9h2zM580.2 20.7c.5 0 1 .1 1.4.2s.8.4 1.1.7c.3.3.6.7.7 1.2s.3 1 .3 1.7c0 .6-.1 1.1-.2 1.6s-.4.9-.7 1.2-.7.6-1.1.8c-.4.2-1 .3-1.6.3h-3.4v-7.8h3.5zm-.1 6.4c.2 0 .5 0 .7-.1.2-.1.4-.2.6-.4s.3-.4.4-.7c.1-.3.2-.7.2-1.1 0-.4 0-.8-.1-1.1-.1-.3-.2-.6-.4-.8-.2-.2-.4-.4-.7-.5-.3-.1-.6-.2-1.1-.2h-1.2v4.9h1.6zM591.9 20.7l2.9 7.8H593l-.6-1.7h-2.9l-.6 1.7h-1.7l3-7.8h1.7zm.1 4.8l-1-2.9-1 2.9h2zM599.8 20.7c.3 0 .7.1.9.2s.5.3.7.5.4.4.5.7c.1.3.2.5.2.8 0 .5-.1.9-.3 1.2-.2.3-.5.6-.9.8.2.1.4.1.5.3s.3.3.3.4c.1.2.2.3.2.5s.1.4.1.6v.9c0 .2 0 .3.1.5 0 .2.1.3.2.4h-1.7c-.1-.2-.2-.5-.2-.9 0-.3-.1-.7-.1-1-.1-.4-.2-.7-.4-.9-.2-.2-.5-.3-.9-.3h-1.7v3.1h-1.7v-7.8h4.2zm-.7 3.5c.4 0 .7-.1.9-.3s.3-.5.3-.9-.1-.7-.3-.8c-.2-.2-.5-.3-.9-.3h-1.9v2.2h1.9z"/></g><g><path class="st1" d="M602.6 22.2v-1.4h6.4v1.4h-2.3v6.4H605v-6.4h-2.4zM611.7 20.7v7.8H610v-7.8h1.7zM618.2 22.8c-.1-.2-.2-.3-.4-.4s-.3-.2-.5-.3-.4-.1-.6-.1c-.4 0-.7.1-1 .2-.3.1-.5.4-.7.6s-.3.5-.4.9c-.1.3-.1.7-.1 1 0 .3 0 .6.1 1 .1.3.2.6.4.8.2.2.4.4.7.6.3.1.6.2 1 .2.5 0 .9-.2 1.2-.5s.5-.7.5-1.3h1.7c0 .5-.2.9-.3 1.3-.2.4-.4.7-.7 1-.3.3-.7.5-1.1.6-.4.1-.8.2-1.3.2-.6 0-1.1-.1-1.6-.3-.5-.2-.9-.5-1.2-.9-.3-.4-.6-.8-.8-1.3-.2-.5-.3-1-.3-1.6 0-.6.1-1.1.3-1.6.2-.5.4-.9.8-1.3.3-.4.7-.7 1.2-.9.5-.2 1-.3 1.6-.3.4 0 .8.1 1.2.2.4.1.7.3 1 .5.3.2.6.5.8.9.2.4.3.8.4 1.2h-1.7c0-.1-.1-.2-.2-.4zM623 20.7v6.4h3.8v1.4h-5.5v-7.8h1.7zM633.6 20.7v1.4h-4.1v1.7h3.8v1.3h-3.8V27h4.2v1.4h-5.9v-7.8h5.8z"/></g></svg>