<svg id="Layer_1" xmlns="http://www.w3.org/2000/svg" viewBox="0 0 728 90"><style>.st0{fill:#393}</style><path class="st0" d="M61.9 15c1.6 0 3 .2 4.1.7 1.1.5 2 1.1 2.8 1.9.7.8 1.2 1.6 1.5 2.6.3 1 .5 2 .5 3.1 0 1-.2 2-.5 3s-.8 1.9-1.5 2.6c-.7.8-1.6 1.4-2.8 1.9-1.1.5-2.5.7-4.1.7H56v9.2h-5.7V15h11.6zm-1.6 12.1c.6 0 1.3 0 1.9-.1.6-.1 1.1-.3 1.6-.6s.8-.7 1.1-1.2c.3-.5.4-1.2.4-2s-.1-1.5-.4-2c-.3-.5-.6-.9-1.1-1.2-.5-.3-1-.5-1.6-.6-.6-.1-1.2-.1-1.9-.1H56V27h4.3zM78.8 22.1v3.5h.1c.2-.6.6-1.1 1-1.6s.9-.9 1.4-1.3c.5-.3 1.1-.6 1.7-.8.6-.2 1.2-.3 1.9-.3.3 0 .7.1 1.1.2v4.8c-.2 0-.5-.1-.9-.1-.3 0-.7-.1-1-.1-.9 0-1.7.2-2.4.5-.6.3-1.2.7-1.6 1.3s-.7 1.2-.8 1.9c-.2.7-.3 1.5-.3 2.3v8.4h-5V22.1h4.8zM87.9 27.8c.1-1.2.4-2.2.9-3 .5-.8 1.2-1.4 2-1.9s1.7-.8 2.8-1c1-.2 2-.3 3.1-.3.9 0 1.9.1 2.8.2 1 .1 1.8.4 2.6.8s1.4.9 1.9 1.6.8 1.6.8 2.7v9.7c0 .8 0 1.6.1 2.4.1.8.3 1.3.5 1.7h-5.2c-.1-.3-.2-.6-.2-.9-.1-.3-.1-.6-.1-.9-.8.8-1.8 1.4-2.9 1.8-1.1.3-2.2.5-3.4.5-.9 0-1.7-.1-2.5-.3s-1.4-.6-2-1c-.6-.5-1-1-1.3-1.7-.3-.7-.5-1.5-.5-2.5 0-1.1.2-1.9.6-2.6.4-.7.9-1.2 1.4-1.6.6-.4 1.3-.7 2-.9.8-.2 1.5-.4 2.3-.5.8-.1 1.5-.2 2.3-.3.7-.1 1.4-.2 2-.3.6-.1 1-.4 1.4-.6.3-.3.5-.7.5-1.2 0-.6-.1-1-.3-1.3-.2-.3-.4-.6-.7-.8-.3-.2-.6-.3-1-.4-.5-.2-.9-.2-1.4-.2-1 0-1.8.2-2.4.6-.6.4-.9 1.2-1 2.2h-5.1zm11.8 3.8c-.2.2-.5.3-.8.4-.3.1-.7.2-1 .3-.4.1-.8.1-1.2.2-.4 0-.8.1-1.2.2-.4.1-.8.2-1.1.3-.4.1-.7.3-1 .5-.3.2-.5.5-.7.8-.2.3-.3.7-.3 1.2s.1.8.3 1.2c.2.3.4.6.7.7.3.2.6.3 1 .4.4.1.8.1 1.2.1 1 0 1.8-.2 2.3-.5.6-.3 1-.7 1.2-1.2.3-.5.4-.9.5-1.4.1-.5.1-.9.1-1.2v-2zM117.9 25.4c-.8 0-1.5.2-2.1.6-.6.4-1 .9-1.4 1.4-.3.6-.6 1.2-.7 1.9s-.2 1.4-.2 2.1c0 .7.1 1.4.2 2.1.1.7.4 1.3.7 1.9.3.6.8 1 1.3 1.4.6.4 1.2.5 2 .5 1.2 0 2.2-.3 2.8-1 .7-.7 1.1-1.6 1.2-2.8h4.9c-.3 2.5-1.3 4.4-2.9 5.7s-3.6 1.9-6.1 1.9c-1.4 0-2.7-.2-3.8-.7-1.2-.5-2.2-1.1-3-2-.8-.8-1.5-1.8-1.9-3-.5-1.2-.7-2.4-.7-3.8s.2-2.8.6-4c.4-1.2 1-2.3 1.9-3.2.8-.9 1.8-1.6 3-2.1s2.5-.8 4-.8c1.1 0 2.2.1 3.2.4 1 .3 1.9.7 2.7 1.3.8.6 1.5 1.3 2 2.2s.8 1.9.9 3.1h-5c-.2-2-1.4-3.1-3.6-3.1zM140 22.1v3.4h-3.7v9.2c0 .9.1 1.4.4 1.7s.9.4 1.7.4h.8c.3 0 .5-.1.8-.1v4c-.4.1-.9.1-1.4.1h-1.5c-.8 0-1.5-.1-2.2-.2-.7-.1-1.3-.3-1.9-.6s-1-.8-1.3-1.3c-.3-.6-.5-1.3-.5-2.3v-11h-3.1V22h3.1v-5.6h5.1V22h3.7zM142.8 19.2V15h5.1v4.2h-5.1zm5.1 2.9v18.6h-5.1V22.1h5.1zM161 25.4c-.8 0-1.5.2-2.1.6-.6.4-1 .9-1.4 1.4-.3.6-.6 1.2-.7 1.9s-.2 1.4-.2 2.1c0 .7.1 1.4.2 2.1.1.7.4 1.3.7 1.9.3.6.8 1 1.3 1.4.6.4 1.2.5 2 .5 1.2 0 2.2-.3 2.8-1 .7-.7 1.1-1.6 1.2-2.8h4.9c-.3 2.5-1.3 4.4-2.9 5.7s-3.6 1.9-6.1 1.9c-1.4 0-2.7-.2-3.8-.7-1.2-.5-2.2-1.1-3-2-.8-.8-1.5-1.8-1.9-3-.5-1.2-.7-2.4-.7-3.8s.2-2.8.6-4c.4-1.2 1-2.3 1.9-3.2.8-.9 1.8-1.6 3-2.1s2.5-.8 4-.8c1.1 0 2.2.1 3.2.4 1 .3 1.9.7 2.7 1.3.8.6 1.5 1.3 2 2.2s.8 1.9.9 3.1h-5c-.1-2-1.4-3.1-3.6-3.1zM172.8 27.8c.1-1.2.4-2.2.9-3 .5-.8 1.2-1.4 2-1.9s1.7-.8 2.8-1c1-.2 2-.3 3.1-.3.9 0 1.9.1 2.8.2 1 .1 1.8.4 2.6.8s1.4.9 1.9 1.6.8 1.6.8 2.7v9.7c0 .8 0 1.6.1 2.4.1.8.3 1.3.5 1.7h-5.2c-.1-.3-.2-.6-.2-.9-.1-.3-.1-.6-.1-.9-.8.8-1.8 1.4-2.9 1.8-1.1.3-2.2.5-3.4.5-.9 0-1.7-.1-2.5-.3s-1.4-.6-2-1c-.6-.5-1-1-1.3-1.7-.3-.7-.5-1.5-.5-2.5 0-1.1.2-1.9.6-2.6.4-.7.9-1.2 1.4-1.6.6-.4 1.3-.7 2-.9.8-.2 1.5-.4 2.3-.5.8-.1 1.5-.2 2.3-.3.7-.1 1.4-.2 2-.3.6-.1 1-.4 1.4-.6.3-.3.5-.7.5-1.2 0-.6-.1-1-.3-1.3-.2-.3-.4-.6-.7-.8-.3-.2-.6-.3-1-.4-.4-.1-.8-.1-1.3-.1-1 0-1.8.2-2.4.6-.6.4-.9 1.2-1 2.2h-5.2zm11.8 3.8c-.2.2-.5.3-.8.4-.3.1-.7.2-1 .3-.4.1-.8.1-1.2.2-.4 0-.8.1-1.2.2-.4.1-.8.2-1.1.3-.4.1-.7.3-1 .5-.3.2-.5.5-.7.8-.2.3-.3.7-.3 1.2s.1.8.3 1.2c.2.3.4.6.7.7.3.2.6.3 1 .4.4.1.8.1 1.2.1 1 0 1.8-.2 2.3-.5.6-.3 1-.7 1.2-1.2.3-.5.4-.9.5-1.4.1-.5.1-.9.1-1.2v-2zM199.1 15v25.7H194V15h5.1zM232.9 40.7l-4.4-17.5h-.1l-4.3 17.5h-5.7L211.6 15h5.7l4.1 17.5h.1L226 15h5.3l4.4 17.7h.1L240 15h5.5l-6.9 25.7h-5.7zM247.8 19.2V15h5.1v4.2h-5.1zm5.1 2.9v18.6h-5.1V22.1h5.1zM261.4 36.1c.2.4.5.7.9 1s.8.4 1.2.6c.5.1 1 .2 1.5.2.4 0 .7 0 1.1-.1.4-.1.8-.2 1.1-.4s.6-.4.8-.7c.2-.3.3-.7.3-1.1 0-.8-.5-1.3-1.5-1.7-1-.4-2.4-.8-4.3-1.2-.7-.2-1.5-.4-2.2-.6-.7-.2-1.3-.5-1.9-.9-.6-.4-1-.8-1.3-1.4-.3-.6-.5-1.3-.5-2.1 0-1.2.2-2.2.7-3 .5-.8 1.1-1.4 1.9-1.8.8-.4 1.6-.8 2.6-.9 1-.2 1.9-.3 3-.3 1 0 2 .1 2.9.3.9.2 1.8.5 2.5 1s1.4 1.1 1.9 1.8c.5.8.8 1.7.9 2.9h-4.9c-.1-1-.4-1.6-1.1-2-.7-.3-1.5-.5-2.4-.5-.3 0-.6 0-.9.1-.3 0-.6.1-.9.2-.3.1-.5.3-.7.5-.2.2-.3.5-.3.9 0 .5.2.8.5 1.1s.8.5 1.3.7c.5.2 1.2.3 1.9.5s1.4.3 2.1.5c.7.2 1.5.4 2.2.6.7.2 1.3.6 1.9 1 .6.4 1 .9 1.3 1.5.3.6.5 1.3.5 2.2 0 1.2-.2 2.2-.7 3.1-.5.8-1.1 1.5-1.9 2s-1.7.9-2.7 1.1-2.1.3-3.1.3c-1.1 0-2.1-.1-3.2-.3-1-.2-2-.6-2.8-1.1-.8-.5-1.5-1.2-2-2s-.8-1.9-.8-3.1h4.9c-.2.2 0 .7.2 1.1zM289.8 38.3c-.6 1-1.4 1.7-2.4 2.2-1 .4-2.1.7-3.3.7-1.4 0-2.6-.3-3.7-.8s-1.9-1.3-2.6-2.2c-.7-.9-1.2-2-1.5-3.2-.3-1.2-.5-2.4-.5-3.7 0-1.2.2-2.5.5-3.6.3-1.2.9-2.2 1.5-3.1.7-.9 1.5-1.6 2.6-2.1 1-.5 2.2-.8 3.6-.8 1.1 0 2.2.2 3.1.7 1 .5 1.8 1.2 2.4 2.1h.1V15h5.1v25.7h-4.9v-2.4zm-.2-9.2c-.1-.7-.4-1.3-.7-1.9-.3-.5-.8-1-1.4-1.3-.6-.3-1.2-.5-2.1-.5-.8 0-1.5.2-2.1.5-.6.3-1 .8-1.4 1.3-.3.6-.6 1.2-.8 1.9-.2.7-.2 1.4-.2 2.2 0 .7.1 1.4.3 2.2.2.7.4 1.4.8 1.9.4.6.8 1 1.4 1.4.6.3 1.2.5 2 .5s1.5-.2 2.1-.5c.6-.3 1-.8 1.4-1.4.3-.6.6-1.2.7-1.9.1-.7.2-1.5.2-2.2s-.1-1.5-.2-2.2zM298.8 27.3c.5-1.2 1.1-2.2 1.9-3.1.8-.9 1.8-1.5 3-2s2.5-.7 4-.7 2.8.2 4 .7c1.2.5 2.2 1.1 3 2 .8.9 1.5 1.9 1.9 3.1.5 1.2.7 2.6.7 4 0 1.5-.2 2.8-.7 4-.5 1.2-1.1 2.2-1.9 3.1-.8.9-1.9 1.5-3 2s-2.5.7-4 .7-2.8-.2-4-.7c-1.2-.5-2.2-1.1-3-2-.8-.9-1.5-1.9-1.9-3.1s-.7-2.5-.7-4c.1-1.4.3-2.7.7-4zm4.7 6.3c.1.7.4 1.3.7 1.9.3.6.8 1 1.4 1.4.6.3 1.3.5 2.2.5.9 0 1.6-.2 2.2-.5.6-.3 1.1-.8 1.4-1.4.3-.6.6-1.2.7-1.9.1-.7.2-1.4.2-2.2 0-.7-.1-1.5-.2-2.2-.1-.7-.4-1.4-.7-1.9-.3-.6-.8-1-1.4-1.4-.6-.3-1.3-.5-2.2-.5-.9 0-1.6.2-2.2.5-.6.3-1 .8-1.4 1.4-.3.6-.6 1.2-.7 1.9-.1.7-.2 1.5-.2 2.2 0 .7 0 1.5.2 2.2zM325.9 22.1v2.5h.1c.7-1 1.5-1.7 2.4-2.2.9-.5 2-.8 3.3-.8 1.2 0 2.2.2 3.2.7 1 .5 1.7 1.3 2.2 2.4.6-.8 1.3-1.5 2.2-2.2.9-.6 2.1-.9 3.4-.9 1 0 1.9.1 2.7.4.8.2 1.6.6 2.2 1.2.6.5 1.1 1.2 1.4 2.1.3.9.5 1.9.5 3.1v12.5h-5.1V30.1c0-.6 0-1.2-.1-1.8 0-.6-.2-1-.4-1.4-.2-.4-.5-.7-1-1-.4-.2-1-.4-1.7-.4s-1.3.1-1.7.4c-.4.3-.8.6-1 1.1-.3.4-.4.9-.5 1.5-.1.6-.1 1.1-.1 1.7v10.4h-5.1V30.2v-1.6c0-.5-.1-1-.3-1.5-.2-.5-.5-.8-.9-1.1s-1-.4-1.9-.4c-.2 0-.6.1-1 .2s-.8.3-1.2.6c-.4.3-.7.7-1 1.3-.3.6-.4 1.3-.4 2.2v10.8H321V22.1h4.9z"/><g><path class="st0" d="M47.8 61.5v-3.4h3.1v-1.4c0-1.7.5-3 1.5-4.1 1-1.1 2.6-1.6 4.7-1.6.5 0 .9 0 1.4.1.5 0 .9.1 1.3.1V55c-.6-.1-1.2-.1-1.9-.1s-1.2.2-1.5.5c-.3.2-.4.8-.4 1.6v1.1h3.5v3.4H56v15.2h-5.1V61.5h-3.1zM62 63.3c.5-1.2 1.1-2.2 1.9-3.1.8-.9 1.8-1.5 3-2s2.5-.7 4-.7 2.8.2 4 .7 2.2 1.1 3 2c.8.9 1.5 1.9 1.9 3.1.5 1.2.7 2.6.7 4 0 1.5-.2 2.8-.7 4-.5 1.2-1.1 2.2-1.9 3.1-.8.9-1.9 1.5-3 2-1.2.5-2.5.7-4 .7s-2.8-.2-4-.7c-1.2-.5-2.2-1.1-3-2-.8-.9-1.5-1.9-1.9-3.1s-.7-2.5-.7-4c.1-1.4.3-2.7.7-4zm4.7 6.3c.1.7.4 1.3.7 1.9.3.6.8 1 1.4 1.4.6.3 1.3.5 2.2.5.9 0 1.6-.2 2.2-.5.6-.3 1.1-.8 1.4-1.4.3-.6.6-1.2.7-1.9.1-.7.2-1.4.2-2.2 0-.7-.1-1.5-.2-2.2-.1-.7-.4-1.4-.7-1.9-.3-.6-.8-1-1.4-1.4-.6-.3-1.3-.5-2.2-.5-.9 0-1.6.2-2.2.5-.6.3-1 .8-1.4 1.4-.3.6-.6 1.2-.7 1.9-.1.7-.2 1.5-.2 2.2 0 .7 0 1.5.2 2.2zM89 58.1v3.5c.2-.6.6-1.1 1-1.6s.9-.9 1.4-1.3c.5-.3 1.1-.6 1.7-.8.6-.2 1.2-.3 1.9-.3.3 0 .7.1 1.1.2v4.8c-.2 0-.5-.1-.9-.1-.3 0-.7-.1-1-.1-.9 0-1.7.2-2.4.5-.6.3-1.2.7-1.6 1.3s-.7 1.2-.8 1.9c-.2.7-.3 1.5-.3 2.3v8.4H84V58.1h5zM120.1 51c1.7 0 3.2.3 4.6.8 1.4.5 2.7 1.3 3.7 2.4 1 1.1 1.9 2.4 2.4 4 .6 1.6.9 3.4.9 5.6 0 1.9-.2 3.6-.7 5.2-.5 1.6-1.2 3-2.2 4.1-1 1.2-2.2 2.1-3.6 2.7-1.5.7-3.2 1-5.1 1H109V51h11.1zm-.4 20.9c.8 0 1.6-.1 2.4-.4.8-.3 1.5-.7 2.1-1.3.6-.6 1.1-1.4 1.4-2.4.4-1 .5-2.2.5-3.6 0-1.3-.1-2.5-.4-3.5s-.7-1.9-1.2-2.7c-.6-.7-1.3-1.3-2.3-1.7-.9-.4-2.1-.6-3.5-.6h-4v16.2h5zM140.8 72.2c.8.7 1.9 1.1 3.3 1.1 1 0 1.9-.3 2.7-.8.7-.5 1.2-1.1 1.4-1.6h4.5c-.7 2.2-1.8 3.8-3.3 4.8-1.5 1-3.3 1.4-5.4 1.4-1.5 0-2.8-.2-4-.7-1.2-.5-2.2-1.1-3-2-.8-.9-1.4-1.9-1.9-3.1-.4-1.2-.7-2.5-.7-4 0-1.4.2-2.7.7-3.9.5-1.2 1.1-2.2 1.9-3.1.8-.9 1.8-1.6 3-2.1s2.5-.8 3.9-.8c1.6 0 3 .3 4.1.9 1.2.6 2.1 1.4 2.9 2.5.8 1 1.3 2.2 1.6 3.5.3 1.3.5 2.7.4 4.1h-13.4c.1 1.9.5 3.1 1.3 3.8zm5.7-9.8c-.6-.7-1.5-1-2.8-1-.8 0-1.5.1-2 .4-.5.3-1 .6-1.3 1-.3.4-.6.8-.7 1.3-.1.5-.2.9-.2 1.2h8.3c-.2-1.2-.6-2.2-1.3-2.9zM161 58.1v2.6h.1c.6-1.1 1.5-1.9 2.5-2.4s2.1-.7 3.2-.7c1.4 0 2.5.2 3.4.6s1.6.9 2.1 1.5.9 1.5 1.1 2.4c.2.9.3 2 .3 3.1v11.4h-5.1V66.2c0-1.5-.2-2.7-.7-3.4s-1.3-1.1-2.6-1.1c-1.4 0-2.4.4-3 1.2-.6.8-.9 2.2-.9 4.1v9.8h-5.1V58.1h4.7zM187.9 58.1v3.4h-3.7v9.2c0 .9.1 1.4.4 1.7s.9.4 1.7.4h.8c.3 0 .5-.1.8-.1v4c-.4.1-.9.1-1.4.1H185c-.8 0-1.5-.1-2.2-.2-.7-.1-1.3-.3-1.9-.6-.5-.3-1-.8-1.3-1.3-.3-.6-.5-1.3-.5-2.3v-11H176V58h3.1v-5.6h5.1V58h3.7zM190.7 55.2V51h5.1v4.2h-5.1zm5.1 2.9v18.6h-5.1V58.1h5.1zM204.3 72.1c.2.4.5.7.9 1s.8.4 1.2.6c.5.1 1 .2 1.5.2.4 0 .7 0 1.1-.1s.8-.2 1.1-.4c.3-.2.6-.4.8-.7.2-.3.3-.7.3-1.1 0-.8-.5-1.3-1.5-1.7-1-.4-2.4-.8-4.3-1.2-.7-.2-1.5-.4-2.2-.6-.7-.2-1.3-.5-1.9-.9-.6-.4-1-.8-1.3-1.4-.3-.6-.5-1.3-.5-2.1 0-1.2.2-2.2.7-3 .5-.8 1.1-1.4 1.9-1.8.8-.4 1.6-.8 2.6-.9 1-.2 1.9-.3 3-.3 1 0 2 .1 2.9.3.9.2 1.8.5 2.5 1s1.4 1.1 1.9 1.8c.5.8.8 1.7.9 2.9H211c-.1-1-.4-1.7-1.1-2-.7-.3-1.5-.5-2.4-.5-.3 0-.6 0-.9.1-.3 0-.6.1-.9.2-.3.1-.5.3-.7.5-.2.2-.3.5-.3.9 0 .5.2.8.5 1.1.3.3.8.5 1.3.7.5.2 1.2.3 1.9.5.7.1 1.4.3 2.1.5.7.2 1.5.4 2.2.6.7.2 1.3.6 1.9 1 .6.4 1 .9 1.3 1.5.3.6.5 1.3.5 2.2 0 1.2-.2 2.2-.7 3.1-.5.8-1.1 1.5-1.9 2s-1.7.9-2.7 1.1c-1 .2-2.1.3-3.1.3-1.1 0-2.1-.1-3.2-.3-1-.2-2-.6-2.8-1.1-.8-.5-1.5-1.2-2-2s-.8-1.9-.8-3.1h4.9c-.2.2 0 .7.2 1.1zM229.7 58.1v3.4H226v9.2c0 .9.1 1.4.4 1.7s.9.4 1.7.4h.8c.3 0 .5-.1.8-.1v4c-.4.1-.9.1-1.4.1h-1.5c-.8 0-1.5-.1-2.2-.2-.7-.1-1.3-.3-1.9-.6-.5-.3-1-.8-1.3-1.3-.3-.6-.5-1.3-.5-2.3v-11h-3.1V58h3.1v-5.6h5.1V58h3.7zM236.7 72.1c.2.4.5.7.9 1s.8.4 1.2.6c.5.1 1 .2 1.5.2.4 0 .7 0 1.1-.1s.8-.2 1.1-.4c.3-.2.6-.4.8-.7.2-.3.3-.7.3-1.1 0-.8-.5-1.3-1.5-1.7-1-.4-2.4-.8-4.3-1.2-.7-.2-1.5-.4-2.2-.6-.7-.2-1.3-.5-1.9-.9-.6-.4-1-.8-1.3-1.4-.3-.6-.5-1.3-.5-2.1 0-1.2.2-2.2.7-3 .5-.8 1.1-1.4 1.9-1.8.8-.4 1.6-.8 2.6-.9 1-.2 1.9-.3 3-.3 1 0 2 .1 2.9.3.9.2 1.8.5 2.5 1s1.4 1.1 1.9 1.8c.5.8.8 1.7.9 2.9h-4.9c-.1-1-.4-1.7-1.1-2-.7-.3-1.5-.5-2.4-.5-.3 0-.6 0-.9.1-.3 0-.6.1-.9.2-.3.1-.5.3-.7.5-.2.2-.3.5-.3.9 0 .5.2.8.5 1.1.3.3.8.5 1.3.7.5.2 1.2.3 1.9.5.7.1 1.4.3 2.1.5.7.2 1.5.4 2.2.6.7.2 1.3.6 1.9 1 .6.4 1 .9 1.3 1.5.3.6.5 1.3.5 2.2 0 1.2-.2 2.2-.7 3.1-.5.8-1.1 1.5-1.9 2s-1.7.9-2.7 1.1c-1 .2-2.1.3-3.1.3-1.1 0-2.1-.1-3.2-.3-1-.2-2-.6-2.8-1.1-.8-.5-1.5-1.2-2-2s-.8-1.9-.8-3.1h4.9c-.2.2-.1.7.2 1.1z"/></g></svg>