<svg baseProfile="tiny" xmlns="http://www.w3.org/2000/svg" viewBox="0 0 728 90" overflow="visible"><g fill="#231F20"><path d="M47.3 14.3h6.3l6 10.2 6-10.2h6.3l-9.5 15.8V40h-5.7V30l-9.4-15.7zM69.3 26.7c.5-1.2 1.1-2.2 1.9-3.1.8-.9 1.8-1.5 3-2s2.5-.7 4-.7 2.8.2 4 .7c1.2.5 2.2 1.1 3 2 .8.9 1.5 1.9 1.9 3.1.5 1.2.7 2.6.7 4 0 1.5-.2 2.8-.7 4-.5 1.2-1.1 2.2-1.9 3.1-.8.9-1.9 1.5-3 2s-2.5.7-4 .7-2.8-.2-4-.7c-1.2-.5-2.2-1.1-3-2-.8-.9-1.5-1.9-1.9-3.1s-.7-2.5-.7-4 .3-2.8.7-4zm4.7 6.2c.1.7.4 1.3.7 1.9.3.6.8 1 1.4 1.4.6.3 1.3.5 2.2.5.9 0 1.6-.2 2.2-.5.6-.3 1.1-.8 1.4-1.4.3-.6.6-1.2.7-1.9.1-.7.2-1.4.2-2.2 0-.7-.1-1.5-.2-2.2-.1-.7-.4-1.4-.7-1.9-.3-.6-.8-1-1.4-1.4-.6-.3-1.3-.5-2.2-.5-.9 0-1.6.2-2.2.5-.6.3-1 .8-1.4 1.4-.3.6-.6 1.2-.7 1.9-.1.7-.2 1.5-.2 2.2-.1.8 0 1.5.2 2.2zM103.4 40v-2.6h-.1c-.6 1.1-1.5 1.9-2.5 2.3-1 .5-2.1.7-3.2.7-1.4 0-2.5-.2-3.4-.5-.9-.4-1.6-.9-2.1-1.5-.5-.7-.9-1.5-1.1-2.4-.2-.9-.3-2-.3-3.1V21.4H96v10.5c0 1.5.2 2.7.7 3.4.5.8 1.3 1.1 2.6 1.1 1.4 0 2.4-.4 3-1.2.6-.8.9-2.2.9-4.1v-9.8h5.1V40h-4.9zM138.5 21.2c-.3-.5-.8-1-1.3-1.4-.5-.4-1.1-.7-1.7-1-.6-.2-1.3-.3-2-.3-1.3 0-2.4.2-3.2.7-.9.5-1.6 1.2-2.2 2-.6.8-1 1.8-1.2 2.8-.3 1.1-.4 2.1-.4 3.3 0 1.1.1 2.1.4 3.1.3 1 .7 1.9 1.2 2.8.6.8 1.3 1.5 2.2 2 .9.5 2 .7 3.2.7 1.7 0 3.1-.5 4.1-1.6 1-1.1 1.6-2.4 1.8-4.2h5.5c-.1 1.6-.5 3.1-1.1 4.4-.6 1.3-1.4 2.4-2.4 3.3-1 .9-2.1 1.6-3.5 2.1s-2.8.7-4.4.7c-2 0-3.7-.3-5.3-1-1.6-.7-2.9-1.6-4-2.8-1.1-1.2-1.9-2.6-2.5-4.2-.6-1.6-.9-3.4-.9-5.2 0-1.9.3-3.7.9-5.3.6-1.6 1.4-3.1 2.5-4.3 1.1-1.2 2.4-2.2 4-2.9 1.6-.7 3.3-1 5.3-1 1.4 0 2.8.2 4 .6 1.3.4 2.4 1 3.4 1.8s1.8 1.7 2.5 2.9 1.1 2.5 1.2 4h-5.5c0-.9-.2-1.5-.6-2zM161.2 14.3l9.6 25.7H165l-1.9-5.7h-9.6l-2 5.7h-5.7l9.7-25.7h5.7zm.3 15.8l-3.2-9.4h-.1l-3.3 9.4h6.6zM178.3 14.3L189 31.6h.1V14.3h5.3V40h-5.7L178 22.8V40h-5.3V14.3h5.6zM204.1 14.3v5.5c0 .8-.1 1.5-.3 2.2-.3.7-.6 1.3-1.1 1.8-.5.5-1 1-1.6 1.3-.6.3-1.3.6-2.1.7v-2.4c.9-.3 1.5-.8 1.9-1.4.3-.6.5-1.4.5-2.2H199v-5.5h5.1zM206.7 19.1v-4.8h21.1v4.8H220v21h-5.7v-21h-7.6zM254.8 34.7c-.2 1-.6 2-1.2 2.8-.6.9-1.5 1.6-2.6 2.2-1.1.6-2.7.9-4.6.9-1.1 0-2.1-.2-3.1-.5s-1.9-.8-2.7-1.4c-.8-.6-1.4-1.5-1.9-2.4-.5-1-.7-2.2-.7-3.6v-2.2h5.1v1.2c0 .6 0 1.2.1 1.7s.3 1 .5 1.3c.2.4.6.7 1 .9.4.2 1 .3 1.6.3.7 0 1.3-.1 1.7-.4.4-.3.7-.6.9-1 .2-.4.3-.9.3-1.4 0-.5.1-1 .1-1.4V14.3h5.7v17.6c0 .9 0 1.8-.2 2.8zM278.5 38.1c-1.9 1.7-4.6 2.5-8.1 2.5s-6.2-.8-8.1-2.5c-1.9-1.7-2.9-4.3-2.9-7.8v-16h5.7v16c0 .7.1 1.4.2 2.1.1.7.4 1.3.8 1.8s.9.9 1.6 1.3 1.6.5 2.8.5c2 0 3.4-.4 4.2-1.4.8-.9 1.2-2.3 1.2-4.2v-16h5.7v16c-.1 3.4-1.1 6-3.1 7.7zM297 14.3c1.7 0 3.2.3 4.6.8 1.4.5 2.7 1.3 3.7 2.4 1 1.1 1.9 2.4 2.4 4 .6 1.6.9 3.4.9 5.6 0 1.9-.2 3.6-.7 5.2-.5 1.6-1.2 3-2.2 4.1-1 1.2-2.2 2.1-3.6 2.7-1.5.7-3.2 1-5.1 1h-11V14.3h11zm-.3 21c.8 0 1.6-.1 2.4-.4.8-.3 1.5-.7 2.1-1.3.6-.6 1.1-1.4 1.4-2.4.4-1 .5-2.2.5-3.6 0-1.3-.1-2.5-.4-3.5s-.7-1.9-1.2-2.7c-.6-.7-1.3-1.3-2.3-1.7-.9-.4-2.1-.6-3.5-.6h-4v16.2h5zM327.5 39.8c-1.2.5-2.5.8-3.7.8-2 0-3.7-.3-5.3-1-1.6-.7-2.9-1.6-4-2.8-1.1-1.2-1.9-2.6-2.5-4.2-.6-1.6-.9-3.4-.9-5.2 0-1.9.3-3.7.9-5.3.6-1.6 1.4-3.1 2.5-4.3 1.1-1.2 2.4-2.2 4-2.9 1.6-.7 3.3-1 5.3-1 1.3 0 2.6.2 3.8.6 1.2.4 2.4 1 3.3 1.7 1 .8 1.8 1.7 2.5 2.8.6 1.1 1 2.4 1.2 3.9h-5.4c-.3-1.4-1-2.5-1.9-3.2-1-.7-2.1-1.1-3.5-1.1-1.3 0-2.4.2-3.2.7-.9.5-1.6 1.2-2.2 2-.6.8-1 1.8-1.2 2.8-.3 1.1-.4 2.1-.4 3.3 0 1.1.1 2.1.4 3.1.3 1 .7 1.9 1.2 2.8.6.8 1.3 1.5 2.2 2 .9.5 2 .7 3.2.7 1.9 0 3.3-.5 4.3-1.4 1-.9 1.6-2.3 1.8-4.1h-5.7v-4.2H335V40h-3.6l-.6-2.9c-.9 1.3-2 2.2-3.3 2.7zM358.5 14.3v4.8H345v5.5h12.5V29H345v6.3h13.9V40h-19.5V14.3h19.1z"/></g><g fill="#393"><path d="M49.3 63.1c.1-1.2.4-2.2.9-3 .5-.8 1.2-1.4 2-1.9s1.7-.8 2.8-1c1-.2 2-.3 3.1-.3.9 0 1.9.1 2.8.2s1.8.4 2.6.8 1.4.9 1.9 1.6.8 1.6.8 2.7v9.7c0 .8 0 1.6.1 2.4.1.8.3 1.3.5 1.7h-5.2c-.1-.3-.2-.6-.2-.9-.1-.3-.1-.6-.1-.9-.8.8-1.8 1.4-2.9 1.8-1.1.3-2.2.5-3.4.5-.9 0-1.7-.1-2.5-.3-.8-.2-1.4-.6-2-1-.6-.5-1-1-1.3-1.7-.3-.7-.5-1.5-.5-2.5 0-1.1.2-1.9.6-2.6.4-.7.9-1.2 1.4-1.6.6-.4 1.3-.7 2-.9.8-.2 1.5-.4 2.3-.5.8-.1 1.5-.2 2.3-.3.7-.1 1.4-.2 2-.3.6-.1 1-.4 1.4-.6.3-.3.5-.7.5-1.2 0-.6-.1-1-.3-1.3-.2-.3-.4-.6-.7-.8-.3-.2-.6-.3-1-.4-.4-.1-.8-.1-1.3-.1-1 0-1.8.2-2.4.6-.6.4-.9 1.2-1 2.2h-5.2zm11.8 3.8c-.2.2-.5.3-.8.5-.3.1-.7.2-1 .3-.4.1-.8.1-1.2.2-.4 0-.8.1-1.2.2-.4.1-.8.2-1.1.3-.4.1-.7.3-1 .5-.3.2-.5.5-.7.8-.2.3-.3.7-.3 1.2s.1.8.3 1.2c.2.3.4.6.7.7.3.2.6.3 1 .4.4.1.8.1 1.2.1 1 0 1.8-.2 2.3-.5.6-.3 1-.7 1.2-1.2.3-.5.4-.9.5-1.4.1-.5.1-.9.1-1.2v-2.1zM76.2 55.1v-4.8h21.1v4.8h-7.7v21h-5.7v-21h-7.7zM99.7 57.9c.6-1.6 1.4-3.1 2.5-4.3 1.1-1.2 2.4-2.2 4-2.9 1.6-.7 3.3-1 5.3-1s3.8.3 5.3 1c1.6.7 2.9 1.7 4 2.9s1.9 2.7 2.5 4.3c.6 1.6.9 3.4.9 5.3s-.3 3.6-.9 5.2c-.6 1.6-1.4 3-2.5 4.2-1.1 1.2-2.4 2.1-4 2.8-1.6.7-3.3 1-5.3 1s-3.7-.3-5.3-1c-1.6-.7-2.9-1.6-4-2.8-1.1-1.2-1.9-2.6-2.5-4.2s-.9-3.4-.9-5.2c0-1.8.3-3.6.9-5.3zm5.1 8.5c.3 1 .7 1.9 1.2 2.8.6.8 1.3 1.5 2.2 2 .9.5 2 .7 3.2.7 1.3 0 2.4-.2 3.2-.7.9-.5 1.6-1.1 2.2-2 .6-.8 1-1.7 1.2-2.8s.4-2.1.4-3.2-.1-2.2-.4-3.3c-.3-1.1-.7-2-1.2-2.8s-1.3-1.5-2.2-2c-.9-.5-2-.7-3.2-.7-1.3 0-2.4.2-3.2.7-.9.5-1.6 1.2-2.2 2-.6.8-1 1.8-1.2 2.8-.3 1.1-.4 2.1-.4 3.3 0 1.2.2 2.2.4 3.2zM127.3 57.9c.6-1.6 1.4-3.1 2.5-4.3 1.1-1.2 2.4-2.2 4-2.9 1.6-.7 3.3-1 5.3-1s3.8.3 5.3 1c1.6.7 2.9 1.7 4 2.9s1.9 2.7 2.5 4.3c.6 1.6.9 3.4.9 5.3s-.3 3.6-.9 5.2c-.6 1.6-1.4 3-2.5 4.2-1.1 1.2-2.4 2.1-4 2.8-1.6.7-3.3 1-5.3 1s-3.7-.3-5.3-1c-1.6-.7-2.9-1.6-4-2.8-1.1-1.2-1.9-2.6-2.5-4.2s-.9-3.4-.9-5.2c0-1.8.3-3.6.9-5.3zm5.2 8.5c.3 1 .7 1.9 1.2 2.8.6.8 1.3 1.5 2.2 2 .9.5 2 .7 3.2.7 1.3 0 2.4-.2 3.2-.7.9-.5 1.6-1.1 2.2-2 .6-.8 1-1.7 1.2-2.8s.4-2.1.4-3.2-.1-2.2-.4-3.3c-.3-1.1-.7-2-1.2-2.8s-1.3-1.5-2.2-2c-.9-.5-2-.7-3.2-.7-1.3 0-2.4.2-3.2.7-.9.5-1.6 1.2-2.2 2-.6.8-1 1.8-1.2 2.8-.3 1.1-.4 2.1-.4 3.3 0 1.2.1 2.2.4 3.2zM153.2 55.1v-4.8h21.1v4.8h-7.7v21h-5.7v-21h-7.7zM182.5 50.3v9.9h10.4v-9.9h5.7V76h-5.7V64.9h-10.4V76h-5.7V50.3h5.7zM217.4 50.3v9.4h.1c.6-1 1.5-1.7 2.5-2.1 1.1-.4 2.2-.7 3.3-.7.9 0 1.9.2 2.8.6.9.4 1.7 1 2.5 1.8.7.8 1.3 1.8 1.8 3s.7 2.7.7 4.4c0 1.7-.2 3.2-.7 4.4-.5 1.2-1.1 2.2-1.8 3-.7.8-1.6 1.4-2.5 1.8-.9.4-1.8.6-2.8.6-1.4 0-2.6-.2-3.7-.6-1.1-.4-1.9-1.2-2.4-2.2h-.1V76h-4.9V50.3h5.2zm8.3 14.2c-.2-.7-.4-1.4-.8-1.9s-.8-1-1.4-1.3c-.5-.3-1.2-.5-2-.5-.7 0-1.4.2-1.9.5-.6.3-1 .8-1.4 1.3s-.6 1.2-.8 1.9c-.2.7-.3 1.5-.3 2.3 0 .8.1 1.5.3 2.2.2.7.4 1.4.8 1.9.4.6.8 1 1.4 1.3.6.3 1.2.5 1.9.5.8 0 1.4-.2 2-.5s1-.8 1.4-1.3c.4-.6.6-1.2.8-1.9.2-.7.3-1.5.3-2.2-.1-.9-.1-1.6-.3-2.3zM240.8 81.6c-1 .6-2.4 1-4.1 1-.5 0-1 0-1.6-.1s-1-.1-1.6-.1v-4.2c.5 0 1 .1 1.5.1s1 .1 1.5 0c.7-.1 1.2-.3 1.5-.8.3-.5.5-1 .5-1.5 0-.4-.1-.8-.2-1.2l-6.5-17.5h5.4l4.2 12.7h.1l4.1-12.7h5.3l-7.8 20.9c-.5 1.6-1.3 2.7-2.3 3.4zM262.1 54.5v-4.2h5.1v4.2h-5.1zm5.1 2.9V76h-5.1V57.4h5.1zM281.1 57.4v3.4h-3.7V70c0 .9.1 1.4.4 1.7s.9.4 1.7.4h.8c.3 0 .5-.1.8-.1v4c-.4.1-.9.1-1.4.1h-1.5c-.8 0-1.5-.1-2.2-.2-.7-.1-1.3-.3-1.9-.6-.5-.3-1-.8-1.3-1.3-.3-.6-.5-1.3-.5-2.3v-11h-3.1v-3.4h3.1v-5.6h5.1v5.6h3.7zM287.5 71.4c.2.4.5.7.9 1s.8.4 1.2.6c.5.1 1 .2 1.5.2.4 0 .7 0 1.1-.1s.8-.2 1.1-.4c.3-.2.6-.4.8-.7.2-.3.3-.7.3-1.1 0-.8-.5-1.3-1.5-1.7-1-.4-2.4-.8-4.3-1.2-.7-.2-1.5-.4-2.2-.6-.7-.2-1.3-.5-1.9-.9-.6-.4-1-.8-1.3-1.4-.3-.6-.5-1.3-.5-2.1 0-1.2.2-2.2.7-3 .5-.8 1.1-1.4 1.9-1.8.8-.4 1.6-.8 2.6-.9 1-.2 1.9-.3 3-.3 1 0 2 .1 2.9.3.9.2 1.8.5 2.5 1s1.4 1.1 1.9 1.8c.5.8.8 1.7.9 2.9h-4.9c-.1-1-.4-1.7-1.1-2-.7-.3-1.5-.5-2.4-.5-.3 0-.6 0-.9.1-.3 0-.6.1-.9.2-.3.1-.5.3-.7.5-.2.2-.3.5-.3.9 0 .5.2.8.5 1.1.3.3.8.5 1.3.7.5.2 1.2.3 1.9.5.7.1 1.4.3 2.1.5.7.2 1.5.4 2.2.6.7.2 1.3.6 1.9 1 .6.4 1 .9 1.3 1.5.3.6.5 1.3.5 2.2 0 1.2-.2 2.2-.7 3.1-.5.8-1.1 1.5-1.9 2s-1.7.9-2.7 1.1c-1 .2-2.1.3-3.1.3-1.1 0-2.1-.1-3.2-.3-1-.2-2-.6-2.8-1.1-.8-.5-1.5-1.2-2-2s-.8-1.9-.8-3.1h4.9c-.1.2 0 .7.2 1.1zM316.2 76l-8.3-25.7h5.8l5.7 18.1h.1l5.8-18.1h5.8L322.6 76h-6.4zM352.2 50.3v4.8h-13.6v5.5h12.5V65h-12.5v6.3h13.9V76H333V50.3h19.2zM361.6 50.3l10.7 17.2h.1V50.3h5.3V76H372l-10.7-17.2h-.1V76h-5.3V50.3h5.7zM401.5 50.3v4.8h-13.6v5.5h12.5V65h-12.5v6.3h13.9V76h-19.5V50.3h19.2zM424.5 50.3v4.8h-13.6v5.5h12.5V65h-12.5v6.3h13.9V76h-19.5V50.3h19.2zM442.1 50.3c1.2 0 2.2.2 3.1.6.9.4 1.7.9 2.4 1.5s1.2 1.4 1.5 2.2c.3.9.5 1.8.5 2.8 0 1.5-.3 2.8-1 3.9-.6 1.1-1.7 1.9-3.1 2.5v.1c.7.2 1.3.5 1.7.9.5.4.8.9 1.1 1.4.3.5.5 1.1.6 1.8.1.6.2 1.3.3 1.9 0 .4 0 .9.1 1.4 0 .6.1 1.1.1 1.7.1.6.2 1.1.3 1.6.1.5.3 1 .6 1.3h-5.7c-.3-.8-.5-1.8-.6-2.9-.1-1.1-.2-2.2-.3-3.2-.2-1.3-.6-2.3-1.2-3-.6-.6-1.6-.9-3.1-.9h-5.7v10H428V50.3h14.1zm-2 11.6c1.3 0 2.3-.3 2.9-.9.6-.6 1-1.5 1-2.8 0-1.2-.3-2.2-1-2.7-.6-.6-1.6-.8-2.9-.8h-6.2v7.2h6.2zM459.2 70.5V76h-5.7v-5.5h5.7z"/></g></svg>