<svg id="Layer_1" xmlns="http://www.w3.org/2000/svg" viewBox="0 0 728 90"><style>.st0{fill:#393}.st1{fill:#fff}</style><path class="st0" d="M555.8 14.3c-9.2 0-16.7 7.5-16.7 16.7s7.5 16.7 16.7 16.7h125c9.2 0 16.7-7.5 16.7-16.7s-7.5-16.7-16.7-16.7h-125z"/><path class="st1" d="M574.4 25v8.1h4.9V35h-7.1V25h2.2zM588 25v1.8h-5.3V29h4.8v1.7h-4.8v2.4h5.4V35h-7.6V25h7.5zM594.6 25l3.7 10H596l-.8-2.2h-3.7l-.8 2.2h-2.2l3.8-10h2.3zm.1 6.2l-1.3-3.7-1.3 3.7h2.6zM604.6 25c.4 0 .9.1 1.2.2.4.1.7.3.9.6s.5.5.6.9c.1.3.2.7.2 1.1 0 .6-.1 1.1-.4 1.5s-.7.8-1.2 1c.3.1.5.2.7.3.2.2.3.3.4.5.1.2.2.4.2.7.1.3.1.5.1.8V33.9c0 .2.1.4.1.6.1.2.1.4.2.5h-2.2c-.1-.3-.2-.7-.2-1.1 0-.4-.1-.9-.1-1.3-.1-.5-.2-.9-.5-1.1-.2-.2-.6-.4-1.2-.4h-2.2V35H599V25h5.6zm-.8 4.6c.5 0 .9-.1 1.1-.3s.4-.6.4-1.1c0-.5-.1-.8-.4-1.1s-.6-.3-1.1-.3h-2.4v2.8h2.4zM611.5 25l4.2 6.7V25h2.1v10h-2.2l-4.2-6.7V35h-2.1V25h2.2zM626.7 25l2.3 6.9 2.2-6.9h3.1v10h-2.1v-7l-2.5 7.1H628l-2.5-7v7h-2.1V25h3.3zM636.2 28c.2-.6.5-1.2 1-1.7s.9-.8 1.5-1.1c.6-.3 1.3-.4 2.1-.4s1.5.1 2.1.4c.6.3 1.1.6 1.5 1.1s.7 1 1 1.7c.2.6.3 1.3.3 2.1 0 .7-.1 1.4-.3 2-.2.6-.5 1.2-1 1.6s-.9.8-1.5 1.1c-.6.3-1.3.4-2.1.4s-1.5-.1-2.1-.4c-.6-.3-1.1-.6-1.5-1.1s-.7-1-1-1.6c-.2-.6-.3-1.3-.3-2-.1-.8 0-1.5.3-2.1zm2 3.3c.1.4.3.8.5 1.1.2.3.5.6.8.8.3.2.8.3 1.3.3s.9-.1 1.3-.3c.3-.2.6-.4.8-.8.2-.3.4-.7.5-1.1.1-.4.1-.8.1-1.2 0-.4 0-.9-.1-1.3s-.3-.8-.5-1.1c-.2-.3-.5-.6-.8-.8-.3-.2-.8-.3-1.3-.3s-.9.1-1.3.3c-.3.2-.6.4-.8.8-.2.3-.4.7-.5 1.1s-.1.8-.1 1.3c-.1.4 0 .8.1 1.2zM652.5 25c.4 0 .9.1 1.2.2.4.1.7.3.9.6s.5.5.6.9c.1.3.2.7.2 1.1 0 .6-.1 1.1-.4 1.5s-.7.8-1.2 1c.3.1.5.2.7.3.2.2.3.3.4.5.1.2.2.4.2.7.1.3.1.5.1.8V33.9c0 .2.1.4.1.6.1.2.1.4.2.5h-2.2c-.1-.3-.2-.7-.2-1.1 0-.4-.1-.9-.1-1.3-.1-.5-.2-.9-.5-1.1-.2-.2-.6-.4-1.2-.4h-2.2V35h-2.2V25h5.6zm-.7 4.6c.5 0 .9-.1 1.1-.3s.4-.6.4-1.1c0-.5-.1-.8-.4-1.1s-.6-.3-1.1-.3h-2.4v2.8h2.4zM664.7 25v1.8h-5.3V29h4.8v1.7h-4.8v2.4h5.4V35h-7.6V25h7.5z"/></svg>