<svg xmlns="http://www.w3.org/2000/svg" viewBox="0 0 300 250"><path d="M34 82.2v16.3h9.7v3.7H29.6v-20H34zM45.9 85.5v-3.3h4v3.3h-4zm4 2.2v14.5h-4V87.7h4zM51.5 90.4v-2.7h2.4v-1.1c0-1.3.4-2.3 1.2-3.2.8-.8 2-1.2 3.6-1.2h1.1c.4 0 .7.1 1 .1v3c-.5-.1-1-.1-1.5-.1s-.9.1-1.2.4c-.2.3-.4.7-.4 1.3v.9h2.7v2.7h-2.7v11.8h-4V90.4h-2.2zM66.6 98.8c.6.6 1.5.9 2.6.9.8 0 1.5-.2 2.1-.6.6-.4.9-.8 1.1-1.3h3.5c-.6 1.7-1.4 3-2.6 3.7s-2.6 1.1-4.2 1.1c-1.1 0-2.2-.2-3.1-.5-.9-.4-1.7-.9-2.3-1.6-.6-.7-1.1-1.5-1.5-2.4-.3-.9-.5-2-.5-3.1s.2-2.1.5-3c.4-.9.9-1.7 1.5-2.4.7-.7 1.4-1.2 2.3-1.6.9-.4 1.9-.6 3-.6 1.2 0 2.3.2 3.2.7.9.5 1.7 1.1 2.3 1.9.6.8 1 1.7 1.3 2.7.3 1 .4 2.1.3 3.2H65.6c.1 1.3.4 2.3 1 2.9zm4.5-7.7c-.5-.5-1.2-.8-2.2-.8-.6 0-1.2.1-1.6.3-.4.2-.8.5-1 .8s-.4.7-.5 1c-.1.4-.2.7-.2 1h6.5c-.2-1-.5-1.7-1-2.3zM83 97.9v4.3c0 .6-.1 1.2-.4 1.8s-.5 1-.9 1.4c-.4.4-.9.7-1.4 1-.5.3-1.1.4-1.7.5v-2c.3-.1.5-.2.8-.3s.5-.4.7-.6.3-.5.4-.8.1-.6.1-.9h-2V98H83zM103 82.2c1.3 0 2.5.2 3.6.6 1.1.4 2.1 1 2.9 1.8s1.4 1.8 1.9 3.1c.5 1.2.7 2.7.7 4.3 0 1.5-.2 2.8-.6 4s-.9 2.3-1.7 3.2-1.7 1.6-2.8 2.1c-1.1.5-2.5.8-4 .8h-8.6v-20h8.6zm-.3 16.3c.6 0 1.3-.1 1.8-.3.6-.2 1.1-.5 1.6-1s.8-1.1 1.1-1.9c.3-.8.4-1.7.4-2.8 0-1-.1-1.9-.3-2.7s-.5-1.5-1-2.1c-.4-.6-1-1-1.8-1.3s-1.6-.5-2.7-.5h-3.1v12.6h4zM114.9 85.5v-3.3h4v3.3h-4zm3.9 2.2v14.5h-4V87.7h4zM125.3 98.6c.2.3.4.6.7.8.3.2.6.3 1 .4.4.1.7.1 1.1.1.3 0 .6 0 .9-.1.3-.1.6-.2.8-.3.3-.1.5-.3.6-.6s.3-.5.3-.9c0-.6-.4-1-1.2-1.3-.8-.3-1.9-.6-3.3-.9-.6-.1-1.1-.3-1.7-.5-.6-.2-1-.4-1.5-.7-.4-.3-.8-.7-1-1.1-.3-.4-.4-1-.4-1.6 0-.9.2-1.7.5-2.3.4-.6.8-1.1 1.4-1.4.6-.3 1.3-.6 2-.7.7-.1 1.5-.2 2.3-.2.8 0 1.5.1 2.3.2.7.1 1.4.4 2 .8.6.4 1.1.8 1.4 1.4.4.6.6 1.3.7 2.2h-3.8c-.1-.8-.3-1.3-.9-1.6-.5-.3-1.1-.4-1.8-.4h-.7c-.3 0-.5.1-.7.2-.2.1-.4.2-.5.4-.1.2-.2.4-.2.7 0 .4.1.6.4.9.3.2.6.4 1 .5.4.1.9.3 1.4.4.5.1 1.1.2 1.7.4.6.1 1.1.3 1.7.5.6.2 1 .4 1.5.7.4.3.8.7 1 1.1.3.5.4 1 .4 1.7 0 1-.2 1.8-.6 2.4-.4.6-.9 1.2-1.5 1.6-.6.4-1.3.7-2.1.8-.8.2-1.6.2-2.4.2-.8 0-1.7-.1-2.5-.3s-1.5-.4-2.1-.8-1.1-.9-1.5-1.6c-.4-.6-.6-1.5-.7-2.4h3.8c0 .7 0 1 .2 1.3zM136.8 92.2c.1-.9.3-1.7.7-2.3.4-.6.9-1.1 1.6-1.5.6-.4 1.3-.6 2.1-.8.8-.2 1.6-.2 2.4-.2.7 0 1.5.1 2.2.2.7.1 1.4.3 2 .6.6.3 1.1.7 1.5 1.2.4.5.6 1.2.6 2.1V99c0 .7 0 1.3.1 1.9.1.6.2 1 .4 1.3h-4c-.1-.2-.1-.5-.2-.7 0-.2-.1-.5-.1-.7-.6.7-1.4 1.1-2.2 1.4s-1.7.4-2.6.4c-.7 0-1.3-.1-1.9-.3-.6-.2-1.1-.4-1.6-.8-.4-.4-.8-.8-1.1-1.3-.3-.5-.4-1.2-.4-1.9 0-.8.1-1.5.4-2 .3-.5.7-1 1.1-1.3.5-.3 1-.6 1.6-.7s1.2-.3 1.8-.4c.6-.1 1.2-.2 1.8-.2.6-.1 1.1-.1 1.5-.3.4-.1.8-.3 1.1-.5.3-.2.4-.5.4-.9s-.1-.8-.2-1c-.1-.3-.3-.4-.6-.6s-.5-.2-.8-.3c-.3 0-.6-.1-1-.1-.8 0-1.4.2-1.8.5-.4.3-.7.9-.8 1.7h-4zm9.2 2.9c-.2.1-.4.3-.6.4s-.5.2-.8.2c-.3.1-.6.1-.9.1s-.6.1-1 .1c-.3.1-.6.1-.9.2-.3.1-.5.2-.8.4-.2.2-.4.4-.5.6-.1.2-.2.6-.2.9 0 .4.1.7.2.9.1.2.3.4.5.6.2.1.5.2.8.3s.6.1.9.1c.8 0 1.4-.1 1.8-.4.4-.3.7-.6 1-.9.2-.4.3-.7.4-1.1 0-.4.1-.7.1-.9v-1.5zM157.1 82.2v7.3h.1c.5-.7 1.1-1.3 2-1.6.8-.3 1.7-.5 2.6-.5.7 0 1.4.1 2.2.4.7.3 1.3.8 1.9 1.4.6.6 1 1.4 1.4 2.4.4 1 .5 2.1.5 3.4 0 1.3-.2 2.5-.5 3.4-.4 1-.8 1.8-1.4 2.4-.6.6-1.2 1.1-1.9 1.4-.7.3-1.4.4-2.2.4-1.1 0-2-.2-2.9-.5s-1.5-.9-1.9-1.7h-.1v1.8h-3.8v-20h4zm6.4 11c-.1-.6-.3-1.1-.6-1.5-.3-.4-.6-.8-1-1s-.9-.4-1.5-.4-1.1.1-1.5.4-.8.6-1.1 1c-.3.4-.5.9-.6 1.5-.1.6-.2 1.1-.2 1.8 0 .6.1 1.2.2 1.7.1.6.3 1.1.6 1.5.3.4.6.8 1.1 1s.9.4 1.5.4 1.1-.1 1.5-.4.8-.6 1-1c.3-.4.5-.9.6-1.5.1-.6.2-1.1.2-1.7 0-.6-.1-1.2-.2-1.8zM170.3 85.5v-3.3h4v3.3h-4zm4 2.2v14.5h-4V87.7h4zM181.5 82.2v20h-4v-20h4zM184.7 85.5v-3.3h4v3.3h-4zm4 2.2v14.5h-4V87.7h4zM199.8 87.7v2.7h-2.9v7.2c0 .7.1 1.1.3 1.3.2.2.7.3 1.3.3h.6c.2 0 .4 0 .6-.1v3.1c-.3.1-.7.1-1.1.1h-1.2c-.6 0-1.2 0-1.8-.1s-1-.2-1.5-.5c-.4-.2-.8-.6-1-1-.2-.4-.4-1-.4-1.8v-8.5h-2.4v-2.7h2.4v-4.3h4v4.3h3.1zM207.1 106.5c-.8.5-1.8.8-3.2.8h-1.2c-.4 0-.8-.1-1.2-.1v-3.3c.4 0 .8.1 1.1.1h1.2c.5-.1.9-.3 1.2-.6s.4-.7.4-1.2c0-.3-.1-.6-.2-.9l-5.1-13.6h4.2l3.3 9.9h.1l3.2-9.9h4.1l-6 16.3c-.6 1.2-1.2 2-1.9 2.5zM223.9 92.2c.1-.9.3-1.7.7-2.3.4-.6.9-1.1 1.6-1.5.6-.4 1.3-.6 2.1-.8.8-.2 1.6-.2 2.4-.2.7 0 1.5.1 2.2.2.7.1 1.4.3 2 .6.6.3 1.1.7 1.5 1.2.4.5.6 1.2.6 2.1V99c0 .7 0 1.3.1 1.9.1.6.2 1 .4 1.3h-4c-.1-.2-.1-.5-.2-.7 0-.2-.1-.5-.1-.7-.6.7-1.4 1.1-2.2 1.4s-1.7.4-2.6.4c-.7 0-1.3-.1-1.9-.3s-1.1-.4-1.6-.8-.8-.8-1-1.3c-.3-.5-.4-1.2-.4-1.9 0-.8.1-1.5.4-2 .3-.5.7-1 1.1-1.3.5-.3 1-.6 1.6-.7.6-.2 1.2-.3 1.8-.4.6-.1 1.2-.2 1.8-.2.6-.1 1.1-.1 1.5-.3.4-.1.8-.3 1.1-.5.3-.2.4-.5.4-.9s-.1-.8-.2-1c-.1-.3-.3-.4-.6-.6s-.5-.2-.8-.3c-.3 0-.6-.1-1-.1-.8 0-1.4.2-1.8.5-.4.3-.7.9-.8 1.7h-4.1zm9.1 2.9c-.2.1-.4.3-.6.4s-.5.2-.8.2c-.3.1-.6.1-.9.1s-.6.1-1 .1c-.3.1-.6.1-.9.2-.3.1-.5.2-.8.4-.2.2-.4.4-.5.6-.1.2-.2.6-.2.9 0 .4.1.7.2.9.1.2.3.4.5.6.2.1.5.2.8.3s.6.1.9.1c.8 0 1.4-.1 1.8-.4.4-.3.7-.6 1-.9.2-.4.3-.7.4-1.1 0-.4.1-.7.1-.9v-1.5zM243.9 87.7v2h.1c.5-.8 1.2-1.5 2-1.8.8-.4 1.6-.6 2.5-.6 1.1 0 1.9.1 2.6.4.7.3 1.2.7 1.6 1.2.4.5.7 1.1.8 1.9.2.7.2 1.6.2 2.5v8.9h-4V94c0-1.2-.2-2.1-.6-2.7s-1-.9-2-.9c-1.1 0-1.9.3-2.4 1s-.7 1.7-.7 3.2v7.6h-4V87.7h3.9zM267 100.4c-.5.8-1.1 1.3-1.8 1.7s-1.6.5-2.6.5c-1.1 0-2-.2-2.9-.6s-1.5-1-2-1.7-.9-1.5-1.2-2.5c-.3-.9-.4-1.9-.4-2.9s.1-1.9.4-2.8c.3-.9.7-1.7 1.2-2.4s1.2-1.2 2-1.7c.8-.4 1.7-.6 2.8-.6.9 0 1.7.2 2.5.5.8.4 1.4.9 1.8 1.6h.1v-7.3h4v20H267v-1.8zm-.2-7.2c-.1-.6-.3-1-.6-1.5s-.6-.8-1-1c-.4-.3-1-.4-1.6-.4s-1.2.1-1.7.4c-.4.3-.8.6-1.1 1-.3.4-.5.9-.6 1.5-.1.6-.2 1.1-.2 1.7 0 .6.1 1.1.2 1.7.1.6.3 1.1.6 1.5.3.4.7.8 1.1 1.1s1 .4 1.6.4c.7 0 1.2-.1 1.6-.4.4-.3.8-.6 1-1 .3-.4.4-.9.6-1.5s.2-1.1.2-1.7 0-1.2-.1-1.8z"/><g><path d="M63.5 126.3c.2.5.6.8 1 1.1.4.3.9.5 1.4.6.5.1 1.1.2 1.7.2.4 0 .8 0 1.3-.1.4-.1.9-.2 1.3-.4s.7-.4 1-.8c.3-.3.4-.7.4-1.2s-.2-1-.5-1.3c-.3-.3-.8-.6-1.4-.8s-1.2-.4-1.9-.6c-.7-.2-1.4-.4-2.2-.6-.7-.2-1.5-.4-2.2-.7-.7-.3-1.3-.6-1.9-1.1-.6-.4-1-1-1.4-1.6s-.5-1.4-.5-2.3c0-1 .2-1.9.7-2.7.4-.8 1-1.4 1.7-1.9s1.5-.9 2.4-1.1c.9-.2 1.8-.4 2.7-.4 1 0 2 .1 3 .3 1 .2 1.8.6 2.6 1.1.7.5 1.3 1.2 1.8 2 .4.8.7 1.8.7 3h-4.3c0-.6-.2-1.1-.4-1.5-.2-.4-.5-.7-.9-.9s-.8-.4-1.2-.5c-.5-.1-1-.1-1.5-.1-.4 0-.7 0-1.1.1-.4.1-.7.2-1 .4-.3.2-.5.4-.7.7-.2.3-.3.6-.3 1.1 0 .4.1.7.2 1 .1.2.4.5.9.7.4.2 1 .4 1.8.6.8.2 1.8.5 3 .8.4.1.9.2 1.6.4.7.2 1.3.5 2 .9s1.2 1 1.7 1.7.7 1.6.7 2.8c0 .9-.2 1.8-.5 2.5s-.9 1.5-1.6 2c-.7.6-1.6 1-2.6 1.3-1 .3-2.2.5-3.6.5-1.1 0-2.2-.1-3.2-.4s-2-.7-2.7-1.3c-.8-.6-1.4-1.3-1.9-2.2-.5-.9-.7-2-.7-3.2h4.3c0 .9.1 1.4.3 1.9zM87.7 131.2v-2h-.1c-.5.8-1.2 1.4-2 1.8-.8.4-1.6.6-2.5.6-1.1 0-1.9-.1-2.6-.4-.7-.3-1.2-.7-1.6-1.2-.4-.5-.7-1.1-.8-1.9-.2-.7-.2-1.6-.2-2.5v-8.9h4v8.2c0 1.2.2 2.1.6 2.7s1 .9 2 .9c1.1 0 1.9-.3 2.4-1 .5-.6.7-1.7.7-3.2v-7.6h4v14.5h-3.9zM98.3 116.8v1.8h.1c.5-.8 1.1-1.4 1.8-1.7.7-.4 1.6-.5 2.5-.5 1.1 0 2.1.2 2.9.6.8.4 1.5 1 2 1.7s.9 1.5 1.2 2.5c.3.9.4 1.9.4 3 0 1-.1 1.9-.4 2.8-.3.9-.7 1.7-1.2 2.4s-1.2 1.2-2 1.7-1.7.6-2.8.6c-.9 0-1.7-.2-2.5-.5-.8-.4-1.4-.9-1.9-1.6h-.1v6.9h-4V117h4zm5.2 11.4c.4-.3.8-.6 1.1-1 .3-.4.5-.9.6-1.5.1-.6.2-1.1.2-1.7s-.1-1.1-.2-1.7c-.1-.6-.3-1.1-.6-1.5s-.6-.8-1.1-1.1-1-.4-1.6-.4c-.7 0-1.2.1-1.6.4s-.8.6-1.1 1c-.3.4-.5.9-.6 1.5-.1.6-.2 1.1-.2 1.7 0 .6.1 1.1.2 1.7.1.6.3 1 .6 1.5.3.4.6.8 1.1 1 .4.3 1 .4 1.6.4.6.1 1.1 0 1.6-.3zM115.4 116.8v1.8h.1c.5-.8 1.1-1.4 1.8-1.7.7-.4 1.6-.5 2.5-.5 1.1 0 2.1.2 2.9.6.8.4 1.5 1 2 1.7s.9 1.5 1.2 2.5c.3.9.4 1.9.4 3 0 1-.1 1.9-.4 2.8-.3.9-.7 1.7-1.2 2.4s-1.2 1.2-2 1.7-1.7.6-2.8.6c-.9 0-1.7-.2-2.5-.5-.8-.4-1.4-.9-1.9-1.6h-.1v6.9h-4V117h4zm5.2 11.4c.4-.3.8-.6 1.1-1 .3-.4.5-.9.6-1.5.1-.6.2-1.1.2-1.7s-.1-1.1-.2-1.7c-.1-.6-.3-1.1-.6-1.5s-.6-.8-1.1-1.1-1-.4-1.6-.4c-.7 0-1.2.1-1.6.4s-.8.6-1.1 1c-.3.4-.5.9-.6 1.5-.1.6-.2 1.1-.2 1.7 0 .6.1 1.1.2 1.7.1.6.3 1 .6 1.5.3.4.6.8 1.1 1 .4.3 1 .4 1.6.4.6.1 1.1 0 1.6-.3zM132.8 111.2v20h-4v-20h4zM140.2 127.8c.6.6 1.5.9 2.6.9.8 0 1.5-.2 2.1-.6.6-.4.9-.8 1.1-1.3h3.5c-.6 1.7-1.4 3-2.6 3.7-1.2.7-2.6 1.1-4.2 1.1-1.1 0-2.2-.2-3.1-.5-.9-.4-1.7-.9-2.3-1.6s-1.1-1.5-1.5-2.4c-.3-.9-.5-2-.5-3.1s.2-2.1.5-3c.4-.9.9-1.7 1.5-2.4.7-.7 1.4-1.2 2.3-1.6.9-.4 1.9-.6 3-.6 1.2 0 2.3.2 3.2.7.9.5 1.7 1.1 2.3 1.9s1 1.7 1.3 2.7c.3 1 .4 2.1.3 3.2h-10.4c0 1.3.3 2.3.9 2.9zm4.5-7.7c-.5-.5-1.2-.8-2.2-.8-.6 0-1.2.1-1.6.3-.4.2-.8.5-1 .8s-.4.7-.5 1c-.1.4-.2.7-.2 1h6.5c-.2-1-.5-1.7-1-2.3zM155.9 116.8v2h.1c.5-.7 1.2-1.3 1.9-1.7.7-.4 1.6-.6 2.5-.6.9 0 1.8.2 2.5.5.8.4 1.3 1 1.7 1.9.4-.6 1-1.2 1.8-1.7.7-.5 1.6-.7 2.6-.7.8 0 1.5.1 2.1.3s1.2.5 1.7.9.8.9 1.1 1.6c.3.7.4 1.5.4 2.4v9.7h-4V123c0-.5 0-.9-.1-1.4 0-.4-.1-.8-.3-1.1s-.4-.6-.7-.8c-.3-.2-.8-.3-1.3-.3s-1 .1-1.4.3c-.3.2-.6.5-.8.8s-.3.7-.4 1.2c-.1.4-.1.9-.1 1.3v8.1h-4V123v-1.3c0-.4-.1-.8-.2-1.2-.1-.4-.4-.6-.7-.9-.3-.2-.8-.3-1.4-.3-.2 0-.4 0-.7.1s-.6.2-.9.5c-.3.2-.5.6-.7 1-.2.4-.3 1-.3 1.7v8.4h-4v-14.5h3.6zM181.7 127.8c.6.6 1.5.9 2.6.9.8 0 1.5-.2 2.1-.6.6-.4.9-.8 1.1-1.3h3.5c-.6 1.7-1.4 3-2.6 3.7-1.2.7-2.6 1.1-4.2 1.1-1.1 0-2.2-.2-3.1-.5-.9-.4-1.7-.9-2.3-1.6s-1.1-1.5-1.5-2.4c-.3-.9-.5-2-.5-3.1s.2-2.1.5-3c.4-.9.9-1.7 1.5-2.4.7-.7 1.4-1.2 2.3-1.6.9-.4 1.9-.6 3-.6 1.2 0 2.3.2 3.2.7.9.5 1.7 1.1 2.3 1.9s1 1.7 1.3 2.7c.3 1 .4 2.1.3 3.2h-10.4c-.1 1.3.3 2.3.9 2.9zm4.5-7.7c-.5-.5-1.2-.8-2.2-.8-.6 0-1.2.1-1.6.3-.4.2-.8.5-1 .8s-.4.7-.5 1c-.1.4-.2.7-.2 1h6.5c-.2-1-.6-1.7-1-2.3zM197.3 116.8v2h.1c.5-.8 1.2-1.5 2-1.8.8-.4 1.6-.6 2.5-.6 1.1 0 1.9.1 2.6.4.7.3 1.2.7 1.6 1.2.4.5.7 1.1.8 1.9.2.7.2 1.6.2 2.5v8.9h-4v-8.2c0-1.2-.2-2.1-.6-2.7s-1-.9-2-.9c-1.1 0-1.9.3-2.4 1s-.7 1.7-.7 3.2v7.6h-4v-14.5h3.9zM218 116.8v2.7h-2.9v7.2c0 .7.1 1.1.3 1.3.2.2.7.3 1.3.3h.6c.2 0 .4 0 .6-.1v3.1c-.3.1-.7.1-1.1.1h-1.2c-.6 0-1.2 0-1.8-.1s-1-.2-1.5-.5c-.4-.2-.8-.6-1-1-.2-.4-.4-1-.4-1.8v-8.5h-2.4v-2.7h2.4v-4.3h4v4.3h3.1zM219.8 121.2c.1-.9.3-1.7.7-2.3.4-.6.9-1.1 1.6-1.5.6-.4 1.3-.6 2.1-.8.8-.2 1.6-.2 2.4-.2.7 0 1.5.1 2.2.2.7.1 1.4.3 2 .6.6.3 1.1.7 1.5 1.2.4.5.6 1.2.6 2.1v7.5c0 .7 0 1.3.1 1.9.1.6.2 1 .4 1.3h-4c-.1-.2-.1-.5-.2-.7s-.1-.5-.1-.7c-.6.7-1.4 1.1-2.2 1.4-.9.3-1.7.4-2.6.4-.7 0-1.3-.1-1.9-.3s-1.1-.4-1.6-.8-.8-.8-1-1.3c-.3-.5-.4-1.2-.4-1.9 0-.8.1-1.5.4-2 .3-.5.7-1 1.1-1.3.5-.3 1-.6 1.6-.7.6-.2 1.2-.3 1.8-.4.6-.1 1.2-.2 1.8-.2.6-.1 1.1-.1 1.5-.3.4-.1.8-.3 1.1-.5.3-.2.4-.5.4-.9s-.1-.8-.2-1c-.1-.3-.3-.4-.6-.6s-.5-.2-.8-.3c-.3 0-.6-.1-1-.1-.8 0-1.4.2-1.8.5-.4.3-.7.9-.8 1.7h-4.1zm9.2 2.9c-.2.1-.4.3-.6.4s-.5.2-.8.2c-.3.1-.6.1-.9.1s-.6.1-1 .1c-.3.1-.6.1-.9.2-.3.1-.5.2-.8.4-.2.2-.4.4-.5.6-.1.2-.2.6-.2.9 0 .4.1.7.2.9.1.2.3.4.5.6.2.1.5.2.8.3.3.1.6.1.9.1.8 0 1.4-.1 1.8-.4.4-.3.7-.6 1-.9.2-.4.3-.7.4-1.1 0-.4.1-.7.1-.9v-1.5zM240.1 111.2v20h-4v-20h4z"/></g></svg>