<svg id="Layer_1" xmlns="http://www.w3.org/2000/svg" viewBox="0 0 300 250"><style>.st0{fill:#393}.st1{fill:#231f20}</style><path class="st0" d="M51.8 46.9l7.5 20h-4.6l-1.5-4.5h-7.5l-1.6 4.5h-4.4l7.6-20h4.5zm.3 12.2l-2.5-7.3h-.1l-2.6 7.3h5.2zM80.3 62.7c-.1.8-.4 1.5-.9 2.2-.5.7-1.1 1.3-2 1.7-.9.5-2.1.7-3.6.7-.8 0-1.7-.1-2.4-.4-.8-.2-1.5-.6-2.1-1.1-.6-.5-1.1-1.1-1.5-1.9-.4-.8-.6-1.7-.6-2.8v-1.7h4v.9c0 .5 0 .9.1 1.3s.2.8.4 1c.2.3.4.5.8.7.3.2.8.3 1.3.3.6 0 1-.1 1.3-.3s.5-.5.7-.8c.1-.3.2-.7.3-1.1V46.9h4.4v13.7c0 .6 0 1.3-.2 2.1zM84.2 52.8c.4-1.3 1.1-2.4 1.9-3.3s1.9-1.7 3.1-2.2c1.2-.5 2.6-.8 4.1-.8 1.5 0 2.9.3 4.1.8 1.2.5 2.2 1.3 3.1 2.2.8 1 1.5 2.1 1.9 3.3.4 1.3.7 2.7.7 4.2s-.2 2.8-.7 4.1c-.4 1.3-1.1 2.4-1.9 3.3-.8.9-1.9 1.7-3.1 2.2-1.2.5-2.6.8-4.1.8-1.5 0-2.9-.3-4.1-.8-1.2-.6-2.2-1.4-3.1-2.3-.8-.9-1.5-2-1.9-3.3-.4-1.3-.7-2.6-.7-4.1 0-1.5.2-2.8.7-4.1zm4 6.6c.2.8.5 1.5.9 2.1.4.6 1 1.1 1.7 1.5.7.4 1.5.6 2.5.6s1.8-.2 2.5-.6c.7-.4 1.3-.9 1.7-1.5s.7-1.3.9-2.1c.2-.8.3-1.6.3-2.5 0-.9-.1-1.7-.3-2.5-.2-.8-.5-1.6-.9-2.2-.4-.6-1-1.2-1.7-1.5-.7-.4-1.5-.6-2.5-.6s-1.8.2-2.5.6c-.7.4-1.3.9-1.7 1.5-.4.6-.7 1.4-.9 2.2-.2.8-.3 1.7-.3 2.5 0 .9.1 1.7.3 2.5zM120.9 65.3c-1.5 1.3-3.6 2-6.3 2-2.7 0-4.8-.7-6.3-2s-2.2-3.3-2.2-6V46.9h4.4v12.4c0 .5 0 1.1.1 1.6s.3 1 .6 1.4c.3.4.7.7 1.2 1 .5.3 1.2.4 2.1.4 1.6 0 2.7-.3 3.2-1 .6-.7.9-1.8.9-3.3V46.9h4.4v12.4c.1 2.7-.6 4.7-2.1 6zM137.7 46.9c.9 0 1.7.1 2.4.4.7.3 1.3.7 1.8 1.2s.9 1.1 1.2 1.8c.3.7.4 1.4.4 2.1 0 1.2-.2 2.2-.7 3.1-.5.9-1.3 1.5-2.4 2v.1c.5.1 1 .4 1.3.7.4.3.6.7.9 1.1s.4.9.5 1.4c.1.5.2 1 .2 1.5 0 .3 0 .7.1 1.1 0 .4.1.9.1 1.3s.1.9.2 1.3.3.7.5 1h-4.4c-.2-.6-.4-1.4-.4-2.3-.1-.9-.1-1.7-.3-2.5-.1-1-.5-1.8-1-2.3-.5-.5-1.3-.7-2.4-.7h-4.4V67h-4.4V47h10.8zm-1.6 9c1 0 1.8-.2 2.3-.7.5-.4.8-1.2.8-2.2 0-1-.3-1.7-.8-2.1-.5-.4-1.3-.7-2.3-.7h-4.8v5.6h4.8zM151.5 46.9l8.3 13.4h.1V46.9h4.1v20h-4.4l-8.3-13.4h-.1v13.4h-4.1v-20h4.4zM182.8 46.9v3.7h-10.6v4.3h9.7v3.4h-9.7v4.9H183v3.7h-15.2v-20h15zM183.9 46.9h4.9l4.7 7.9 4.6-7.9h4.9l-7.4 12.3v7.7h-4.4v-7.8l-7.3-12.2zM212.2 56.5c.4-.9.9-1.7 1.5-2.4.7-.7 1.4-1.2 2.4-1.5.9-.4 1.9-.5 3.1-.5s2.2.2 3.1.5c.9.4 1.7.9 2.4 1.5.7.7 1.2 1.5 1.5 2.4.4.9.5 2 .5 3.1 0 1.2-.2 2.2-.5 3.1-.4.9-.9 1.7-1.5 2.4s-1.4 1.2-2.4 1.5-2 .5-3.1.5-2.2-.2-3.1-.5c-.9-.4-1.7-.9-2.4-1.5-.7-.7-1.2-1.5-1.5-2.4-.4-.9-.5-2-.5-3.1-.1-1.1.1-2.2.5-3.1zm3.6 4.8c.1.6.3 1 .6 1.5.3.4.6.8 1.1 1 .4.3 1 .4 1.7.4s1.2-.1 1.7-.4c.5-.3.8-.6 1.1-1s.5-.9.6-1.5c.1-.6.2-1.1.2-1.7 0-.6-.1-1.1-.2-1.7-.1-.6-.3-1.1-.6-1.5-.3-.4-.6-.8-1.1-1-.5-.3-1-.4-1.7-.4s-1.2.1-1.7.4c-.4.3-.8.6-1.1 1-.3.4-.5.9-.6 1.5s-.2 1.1-.2 1.7c0 .6.1 1.2.2 1.7zM227.7 55v-2.7h2.4v-1.1c0-1.3.4-2.3 1.2-3.2s2-1.2 3.6-1.2h1.1c.4 0 .7.1 1 .1v3c-.5-.1-1-.1-1.5-.1s-.9.1-1.2.4-.3.7-.3 1.3v.9h2.7V55H234v11.8h-4V55h-2.3zM246.1 56.8c.1-.9.3-1.7.7-2.3.4-.6.9-1.1 1.6-1.5.6-.4 1.3-.6 2.1-.8.8-.2 1.6-.2 2.4-.2.7 0 1.5.1 2.2.2.7.1 1.4.3 2 .6.6.3 1.1.7 1.5 1.2.4.5.6 1.2.6 2.1v7.5c0 .7 0 1.3.1 1.9.1.6.2 1 .4 1.3h-4c-.1-.2-.1-.5-.2-.7 0-.2-.1-.5-.1-.7-.6.7-1.4 1.1-2.2 1.4s-1.7.4-2.6.4c-.7 0-1.3-.1-1.9-.3s-1.1-.4-1.6-.8-.8-.8-1-1.3c-.3-.5-.4-1.2-.4-1.9 0-.8.1-1.5.4-2 .3-.5.7-1 1.1-1.3.5-.3 1-.6 1.6-.7.6-.2 1.2-.3 1.8-.4.6-.1 1.2-.2 1.8-.2.6-.1 1.1-.1 1.5-.3.4-.1.8-.3 1.1-.5.3-.2.4-.5.4-.9s-.1-.8-.2-1c-.1-.3-.3-.4-.6-.6s-.5-.2-.8-.3c-.3 0-.6-.1-1-.1-.8 0-1.4.2-1.8.5-.4.3-.7.9-.8 1.7h-4.1zm9.2 3c-.2.1-.4.3-.6.4s-.5.2-.8.2c-.3.1-.6.1-.9.1s-.6.1-1 .1c-.3.1-.6.1-.9.2-.3.1-.5.2-.8.4-.2.2-.4.4-.5.6-.1.2-.2.6-.2.9 0 .4.1.7.2.9.1.2.3.4.5.6.2.1.5.2.8.3s.6.1.9.1c.8 0 1.4-.1 1.8-.4.4-.3.7-.6 1-.9.2-.4.3-.7.4-1.1 0-.4.1-.7.1-.9v-1.5z"/><g><path class="st0" d="M14.9 79.6v-3.7h16.4v3.7h-6v16.3h-4.4V79.6h-6zM37.9 75.9v7.7H46v-7.7h4.4v20H46v-8.6h-8.1v8.6h-4.4v-20h4.4zM54.1 81.8c.4-1.3 1.1-2.4 1.9-3.3s1.9-1.7 3.1-2.2c1.2-.5 2.6-.8 4.1-.8 1.5 0 2.9.3 4.1.8 1.2.5 2.2 1.3 3.1 2.2.8 1 1.5 2.1 1.9 3.3.4 1.3.7 2.7.7 4.2s-.2 2.8-.7 4.1c-.4 1.3-1.1 2.4-1.9 3.3-.8.9-1.9 1.7-3.1 2.2-1.2.5-2.6.8-4.1.8-1.5 0-2.9-.3-4.1-.8-1.2-.5-2.3-1.3-3.1-2.2-.8-.9-1.5-2-1.9-3.3-.4-1.3-.7-2.6-.7-4.1 0-1.5.2-2.9.7-4.2zm4 6.6c.2.8.5 1.5.9 2.1.4.6 1 1.1 1.7 1.5.7.4 1.5.6 2.5.6s1.8-.2 2.5-.6c.7-.4 1.3-.9 1.7-1.5s.7-1.3.9-2.1c.2-.8.3-1.6.3-2.5 0-.9-.1-1.7-.3-2.5-.2-.8-.5-1.6-.9-2.2-.4-.6-1-1.2-1.7-1.5-.7-.4-1.5-.6-2.5-.6s-1.8.2-2.5.6c-.7.4-1.3.9-1.7 1.5-.4.6-.7 1.4-.9 2.2-.2.8-.3 1.7-.3 2.5 0 .9.1 1.7.3 2.5zM90.8 94.3c-1.5 1.3-3.6 2-6.3 2-2.7 0-4.8-.7-6.3-2S76 91 76 88.3V75.9h4.4v12.4c0 .5 0 1.1.1 1.6s.3 1 .6 1.4c.3.4.7.7 1.2 1 .5.3 1.2.4 2.1.4 1.6 0 2.7-.3 3.2-1 .6-.7.9-1.8.9-3.3V75.9H93v12.4c0 2.7-.7 4.7-2.2 6zM100.2 90.9c.2.5.6.8 1 1.1.4.3.9.5 1.4.6s1.1.2 1.7.2c.4 0 .8 0 1.3-.1.4-.1.9-.2 1.3-.4s.7-.4 1-.8c.3-.3.4-.7.4-1.2s-.2-1-.5-1.3c-.3-.3-.8-.6-1.4-.8s-1.2-.4-1.9-.6c-.7-.2-1.4-.4-2.2-.6-.7-.2-1.5-.4-2.2-.7-.7-.3-1.3-.6-1.9-1.1-.6-.4-1-1-1.4-1.6s-.5-1.4-.5-2.3c0-1 .2-1.9.7-2.7.4-.8 1-1.4 1.7-1.9s1.5-.9 2.4-1.1c.9-.2 1.8-.4 2.7-.4 1 0 2 .1 3 .3 1 .2 1.8.6 2.6 1.1.7.5 1.3 1.2 1.8 2 .4.8.7 1.8.7 3h-4.3c0-.6-.2-1.1-.4-1.5-.2-.4-.5-.7-.9-.9s-.8-.4-1.2-.5c-.5-.1-1-.1-1.5-.1-.4 0-.7 0-1.1.1-.4.1-.7.2-1 .4-.3.2-.5.4-.7.7-.2.3-.3.6-.3 1.1 0 .4.1.7.2 1 .1.2.4.5.9.7.4.2 1 .4 1.8.6.8.2 1.8.5 3 .8.4.1.9.2 1.6.4.7.2 1.3.5 2 .9s1.2 1 1.7 1.7.7 1.6.7 2.8c0 .9-.2 1.8-.5 2.5-.4.8-.9 1.5-1.6 2-.7.6-1.6 1-2.6 1.3-1 .3-2.2.5-3.6.5-1.1 0-2.2-.1-3.2-.4s-2-.7-2.7-1.3-1.4-1.3-1.9-2.2c-.5-.9-.7-2-.7-3.2h4.3c-.1.9 0 1.5.3 1.9zM125 75.9l7.5 20h-4.6l-1.5-4.5h-7.5l-1.6 4.5h-4.4l7.6-20h4.5zm.2 12.2l-2.5-7.3h-.1l-2.6 7.3h5.2zM138.5 75.9l8.3 13.4h.1V75.9h4.1v20h-4.4l-8.3-13.4h-.1v13.4h-4.1v-20h4.4zM163.5 75.9c1.3 0 2.5.2 3.6.6 1.1.4 2.1 1 2.9 1.8.8.8 1.4 1.8 1.9 3.1.5 1.2.7 2.7.7 4.3 0 1.5-.2 2.8-.6 4-.4 1.2-.9 2.3-1.7 3.2s-1.7 1.6-2.8 2.1c-1.1.5-2.5.8-4 .8h-8.6v-20h8.6zm-.3 16.3c.6 0 1.2-.1 1.8-.3.6-.2 1.1-.5 1.6-1s.8-1.1 1.1-1.9c.3-.8.4-1.7.4-2.8 0-1-.1-1.9-.3-2.7-.2-.8-.5-1.5-1-2.1-.4-.6-1-1-1.8-1.3-.7-.3-1.6-.5-2.7-.5h-3.1v12.6h4zM186.8 90.9c.2.5.6.8 1 1.1.4.3.9.5 1.4.6s1.1.2 1.7.2c.4 0 .8 0 1.3-.1.4-.1.9-.2 1.3-.4s.7-.4 1-.8c.3-.3.4-.7.4-1.2s-.2-1-.5-1.3c-.3-.3-.8-.6-1.4-.8-.6-.2-1.2-.4-1.9-.6-.7-.2-1.4-.4-2.2-.6-.7-.2-1.5-.4-2.2-.7-.7-.3-1.3-.6-1.9-1.1-.6-.4-1-1-1.4-1.6-.3-.6-.5-1.4-.5-2.3 0-1 .2-1.9.7-2.7.4-.8 1-1.4 1.7-1.9s1.5-.9 2.4-1.1c.9-.2 1.8-.4 2.7-.4 1 0 2 .1 3 .3 1 .2 1.8.6 2.6 1.1.7.5 1.3 1.2 1.8 2s.7 1.8.7 3h-4.3c0-.6-.2-1.1-.4-1.5-.2-.4-.5-.7-.9-.9s-.8-.4-1.2-.5c-.5-.1-1-.1-1.5-.1-.4 0-.7 0-1.1.1-.4.1-.7.2-1 .4s-.5.4-.7.7c-.2.3-.3.6-.3 1.1 0 .4.1.7.2 1 .1.2.4.5.9.7.4.2 1 .4 1.8.6.8.2 1.8.5 3 .8.4.1.9.2 1.6.4.7.2 1.3.5 2 .9s1.2 1 1.7 1.7.7 1.6.7 2.8c0 .9-.2 1.8-.5 2.5-.4.8-.9 1.5-1.6 2s-1.6 1-2.6 1.3c-1 .3-2.2.5-3.6.5-1.1 0-2.2-.1-3.2-.4-1-.3-2-.7-2.7-1.3-.8-.6-1.4-1.3-1.9-2.2s-.7-2-.7-3.2h4.3c0 .9.1 1.5.3 1.9zM207.8 75.9l4.7 13.7h.1l4.4-13.7h6.2v20H219V81.7l-4.9 14.2h-3.4l-4.9-14h-.1v14h-4.1v-20h6.2zM231.4 75.9v20H227v-20h4.4zM239.7 75.9v16.3h9.7v3.7h-14.1v-20h4.4zM266.8 75.9v3.7h-10.6v4.3h9.7v3.4h-9.7v4.9H267v3.7h-15.2v-20h15zM273.4 90.9c.2.5.6.8 1 1.1.4.3.9.5 1.4.6s1.1.2 1.7.2c.4 0 .8 0 1.3-.1.4-.1.9-.2 1.3-.4s.7-.4 1-.8c.3-.3.4-.7.4-1.2s-.2-1-.5-1.3c-.3-.3-.8-.6-1.4-.8-.6-.2-1.2-.4-1.9-.6-.7-.2-1.4-.4-2.2-.6-.7-.2-1.5-.4-2.2-.7-.7-.3-1.3-.6-1.9-1.1-.6-.4-1-1-1.4-1.6-.3-.6-.5-1.4-.5-2.3 0-1 .2-1.9.7-2.7.4-.8 1-1.4 1.7-1.9s1.5-.9 2.4-1.1c.9-.2 1.8-.4 2.7-.4 1 0 2 .1 3 .3 1 .2 1.8.6 2.6 1.1.7.5 1.3 1.2 1.8 2s.7 1.8.7 3h-4.3c0-.6-.2-1.1-.4-1.5-.2-.4-.5-.7-.9-.9s-.8-.4-1.2-.5c-.5-.1-1-.1-1.5-.1-.4 0-.7 0-1.1.1-.4.1-.7.2-1 .4s-.5.4-.7.7c-.2.3-.3.6-.3 1.1 0 .4.1.7.2 1 .1.2.4.5.9.7.4.2 1 .4 1.8.6.8.2 1.8.5 3 .8.4.1.9.2 1.6.4.7.2 1.3.5 2 .9s1.2 1 1.7 1.7.7 1.6.7 2.8c0 .9-.2 1.8-.5 2.5-.4.8-.9 1.5-1.6 2s-1.6 1-2.6 1.3c-1 .3-2.2.5-3.6.5-1.1 0-2.2-.1-3.2-.4-1-.3-2-.7-2.7-1.3-.8-.6-1.4-1.3-1.9-2.2s-.7-2-.7-3.2h4.3c-.1.9 0 1.5.3 1.9z"/></g><g><path class="st1" d="M67.3 102.9v7.3h.1c.5-.7 1.1-1.3 2-1.6.8-.3 1.7-.5 2.6-.5.7 0 1.4.1 2.2.4.7.3 1.3.8 1.9 1.4.6.6 1 1.4 1.4 2.4.4 1 .5 2.1.5 3.4 0 1.3-.2 2.5-.5 3.4s-.8 1.8-1.4 2.4c-.6.6-1.2 1.1-1.9 1.4-.7.3-1.4.4-2.2.4-1.1 0-2-.2-2.9-.5s-1.5-.9-1.9-1.7h-.1v1.8h-3.8v-20h4zm6.4 11c-.1-.6-.3-1.1-.6-1.5-.3-.4-.6-.8-1-1-.4-.3-.9-.4-1.5-.4s-1.1.1-1.5.4c-.4.3-.8.6-1.1 1-.3.4-.5.9-.6 1.5-.1.6-.2 1.1-.2 1.8 0 .6.1 1.2.2 1.7.1.6.3 1.1.6 1.5.3.4.6.8 1.1 1 .4.3.9.4 1.5.4s1.1-.1 1.5-.4c.4-.3.8-.6 1-1 .3-.4.5-.9.6-1.5.1-.6.2-1.1.2-1.7 0-.7-.1-1.3-.2-1.8zM84.6 119.4c.6.6 1.5.9 2.6.9.8 0 1.5-.2 2.1-.6.6-.4.9-.8 1.1-1.3h3.5c-.6 1.7-1.4 3-2.6 3.7s-2.6 1.1-4.2 1.1c-1.1 0-2.2-.2-3.1-.5-.9-.4-1.7-.9-2.3-1.6-.6-.7-1.1-1.5-1.5-2.4-.3-.9-.5-2-.5-3.1s.2-2.1.5-3c.4-.9.9-1.7 1.5-2.4.7-.7 1.4-1.2 2.3-1.6.9-.4 1.9-.6 3-.6 1.2 0 2.3.2 3.2.7.9.5 1.7 1.1 2.3 1.9.6.8 1 1.7 1.3 2.7.3 1 .4 2.1.3 3.2H83.7c0 1.4.3 2.3.9 2.9zm4.5-7.6c-.5-.5-1.2-.8-2.2-.8-.6 0-1.2.1-1.6.3-.4.2-.8.5-1 .8s-.4.7-.5 1c-.1.4-.2.7-.2 1h6.5c-.2-1.1-.5-1.8-1-2.3zM110.1 123.9c-.2.7-.5 1.4-1 2.1-.5.6-1.3 1.2-2.3 1.6-1 .4-2.3.7-4 .7-.7 0-1.4-.1-2.2-.3-.7-.2-1.4-.5-2-.8-.6-.4-1.1-.9-1.5-1.4-.4-.6-.6-1.3-.7-2.1h3.9c.2.7.6 1.3 1.1 1.6.5.3 1.2.4 1.9.4 1.1 0 1.9-.3 2.4-1s.8-1.5.7-2.5v-1.9h-.1c-.4.8-1 1.3-1.8 1.7-.8.4-1.6.5-2.5.5-1.1 0-2-.2-2.8-.6-.8-.4-1.4-.9-1.9-1.6s-.9-1.4-1.1-2.3c-.2-.9-.4-1.8-.4-2.8 0-.9.1-1.8.4-2.7.3-.9.7-1.6 1.2-2.3.5-.7 1.2-1.2 1.9-1.6.8-.4 1.7-.6 2.7-.6 1 0 1.8.2 2.5.5.7.4 1.3 1 1.8 1.8h.1v-1.9h3.8V122c.2.5.1 1.2-.1 1.9zm-5.4-4.8c.4-.2.8-.5 1.1-.9.3-.4.5-.8.6-1.3s.2-1 .2-1.5c0-.6-.1-1.2-.2-1.7s-.3-1-.6-1.4c-.3-.4-.6-.7-1-1s-1-.4-1.6-.4c-.6 0-1 .1-1.4.3-.4.2-.7.5-1 .9-.3.4-.5.8-.6 1.3-.1.5-.2 1-.2 1.6 0 .5.1 1 .2 1.6.1.5.3 1 .5 1.4s.6.7 1 1c.4.3.9.4 1.5.4s1.1-.1 1.5-.3zM113.7 106.1v-3.3h4v3.3h-4zm4 2.3v14.5h-4v-14.5h4zM124.6 108.4v2h.1c.5-.8 1.2-1.5 2-1.8.8-.4 1.6-.6 2.5-.6 1.1 0 1.9.1 2.6.4.7.3 1.2.7 1.6 1.2.4.5.7 1.1.8 1.9.2.7.2 1.6.2 2.5v8.9h-4v-8.2c0-1.2-.2-2.1-.6-2.7-.4-.6-1-.9-2-.9-1.1 0-1.9.3-2.4 1s-.7 1.7-.7 3.2v7.6h-4v-14.5h3.9zM140.7 119.3c.2.3.4.6.7.8.3.2.6.3 1 .4.4.1.7.1 1.1.1.3 0 .6 0 .9-.1.3-.1.6-.2.8-.3.3-.1.5-.3.6-.6s.3-.5.3-.9c0-.6-.4-1-1.2-1.3-.8-.3-1.9-.6-3.3-.9-.6-.1-1.1-.3-1.7-.5-.6-.2-1-.4-1.5-.7-.4-.3-.8-.7-1-1.1-.3-.4-.4-1-.4-1.6 0-.9.2-1.7.5-2.3.4-.6.8-1.1 1.4-1.4.6-.3 1.3-.6 2-.7.7-.1 1.5-.2 2.3-.2s1.5.1 2.3.2c.7.1 1.4.4 2 .8.6.4 1.1.8 1.4 1.4.4.6.6 1.3.7 2.2h-3.8c-.1-.8-.3-1.3-.9-1.6s-1.1-.4-1.8-.4h-.7c-.3 0-.5.1-.7.2-.2.1-.4.2-.5.4-.1.2-.2.4-.2.7 0 .4.1.6.4.9s.6.4 1 .5c.4.1.9.3 1.4.4.5.1 1.1.2 1.7.4.6.1 1.1.3 1.7.5.5.2 1 .4 1.5.7.4.3.8.7 1 1.1.3.5.4 1 .4 1.7 0 1-.2 1.8-.6 2.4-.4.6-.9 1.2-1.5 1.6-.6.4-1.3.7-2.1.8-.8.2-1.6.2-2.4.2-.8 0-1.7-.1-2.5-.3-.8-.2-1.5-.4-2.1-.8s-1.1-.9-1.5-1.6c-.4-.6-.6-1.5-.7-2.4h3.8c0 .6.1.9.2 1.3zM172.7 122.8l-2.6-9.7h-.1l-2.5 9.7h-4.1l-4.6-14.5h4.2l2.7 9.8h.1l2.4-9.8h3.9l2.5 9.8h.1l2.7-9.8h4.1l-4.6 14.5h-4.2zM183.1 106.1v-3.3h4v3.3h-4zm4 2.3v14.5h-4v-14.5h4zM198.2 108.4v2.7h-2.9v7.2c0 .7.1 1.1.3 1.3.2.2.7.3 1.3.3h.6c.2 0 .4 0 .6-.1v3.1c-.3.1-.7.1-1.1.1h-1.2c-.6 0-1.2 0-1.8-.1s-1-.2-1.5-.5c-.4-.2-.8-.6-1-1-.2-.4-.4-1-.4-1.8V111h-2.4v-2.7h2.4V104h4v4.3h3.1zM204.1 102.9v7.5h.1c.5-.8 1.1-1.5 1.9-1.8.8-.4 1.5-.6 2.3-.6 1.1 0 1.9.1 2.6.4.7.3 1.2.7 1.6 1.2.4.5.7 1.1.8 1.9.2.7.2 1.6.2 2.5v8.9h-4v-8.2c0-1.2-.2-2.1-.6-2.7s-1-.9-2-.9c-1.1 0-1.9.3-2.4 1s-.7 1.7-.7 3.2v7.6h-4v-20h4.2zM224.3 112.8c.1-.9.3-1.7.7-2.3.4-.6.9-1.1 1.6-1.5.6-.4 1.3-.6 2.1-.8.8-.2 1.6-.2 2.4-.2.7 0 1.5.1 2.2.2.7.1 1.4.3 2 .6.6.3 1.1.7 1.5 1.2.4.5.6 1.2.6 2.1v7.5c0 .7 0 1.3.1 1.9.1.6.2 1 .4 1.3h-4c-.1-.2-.1-.5-.2-.7 0-.2-.1-.5-.1-.7-.6.7-1.4 1.1-2.2 1.4s-1.7.4-2.6.4c-.7 0-1.3-.1-1.9-.3s-1.1-.4-1.6-.8-.8-.8-1-1.3c-.3-.5-.4-1.2-.4-1.9 0-.8.1-1.5.4-2 .3-.5.7-1 1.1-1.3.5-.3 1-.6 1.6-.7.6-.2 1.2-.3 1.8-.4.6-.1 1.2-.2 1.8-.2.6-.1 1.1-.1 1.5-.3.4-.1.8-.3 1.1-.5.3-.2.4-.5.4-.9s-.1-.8-.2-1c-.1-.3-.3-.4-.6-.6s-.5-.2-.8-.3c-.3 0-.6-.1-1-.1-.8 0-1.4.2-1.8.5-.4.3-.7.9-.8 1.7h-4.1zm9.2 3c-.2.1-.4.3-.6.4s-.5.2-.8.2c-.3.1-.6.1-.9.1s-.6.1-1 .1c-.3.1-.6.1-.9.2-.3.1-.5.2-.8.4-.2.2-.4.4-.5.6-.1.2-.2.6-.2.9 0 .4.1.7.2.9.1.2.3.4.5.6.2.1.5.2.8.3s.6.1.9.1c.8 0 1.4-.1 1.8-.4.4-.3.7-.6 1-.9.2-.4.3-.7.4-1.1 0-.4.1-.7.1-.9v-1.5z"/></g><g><path class="st1" d="M75.7 148.3c.2.3.4.6.7.8.3.2.6.3 1 .4.4.1.7.1 1.1.1.3 0 .6 0 .9-.1s.6-.2.8-.3c.3-.1.5-.3.6-.6.2-.2.3-.5.3-.9 0-.6-.4-1-1.2-1.3-.8-.3-1.9-.6-3.3-.9-.6-.1-1.1-.3-1.7-.5-.6-.2-1-.4-1.5-.7-.4-.3-.8-.7-1-1.1-.3-.4-.4-1-.4-1.6 0-.9.2-1.7.5-2.3.4-.6.8-1.1 1.4-1.4.6-.3 1.3-.6 2-.7.7-.1 1.5-.2 2.3-.2.8 0 1.5.1 2.3.2.7.1 1.4.4 2 .8.6.4 1.1.8 1.4 1.4.4.6.6 1.3.7 2.2h-3.8c-.1-.8-.3-1.3-.9-1.6-.5-.3-1.1-.4-1.8-.4h-.7c-.3 0-.5.1-.7.2-.2.1-.4.2-.5.4-.1.2-.2.4-.2.7 0 .4.1.6.4.9.3.2.6.4 1 .5.4.1.9.3 1.4.4.5.1 1.1.2 1.7.4.6.1 1.1.3 1.7.5.6.2 1 .4 1.5.7.4.3.8.7 1 1.1.3.5.4 1 .4 1.7 0 1-.2 1.8-.6 2.4-.4.6-.9 1.2-1.5 1.6-.6.4-1.3.7-2.1.8-.8.2-1.6.2-2.4.2-.8 0-1.7-.1-2.5-.3s-1.5-.4-2.1-.8c-.6-.4-1.1-.9-1.5-1.6-.4-.6-.6-1.5-.7-2.4h3.8c-.1.6 0 1 .2 1.3zM87.5 135.1v-3.3h4v3.3h-4zm3.9 2.3v14.5h-4v-14.5h4zM98.4 137.4v2h.1c.5-.8 1.2-1.5 2-1.8.8-.4 1.6-.6 2.5-.6 1.1 0 1.9.1 2.6.4.7.3 1.2.7 1.6 1.2.4.5.7 1.1.8 1.9.2.7.2 1.6.2 2.4v8.9h-4v-8.2c0-1.2-.2-2.1-.6-2.7-.4-.6-1-.9-2-.9-1.1 0-1.9.3-2.4 1-.5.6-.7 1.7-.7 3.2v7.6h-4v-14.5h3.9zM124.9 152.9c-.2.7-.5 1.4-1 2.1-.5.6-1.3 1.2-2.3 1.6-1 .4-2.3.7-4 .7-.7 0-1.4-.1-2.2-.3-.7-.2-1.4-.5-2-.8-.6-.4-1.1-.9-1.5-1.4-.4-.6-.6-1.3-.7-2.1h3.9c.2.7.6 1.3 1.1 1.6.5.3 1.2.4 1.9.4 1.1 0 1.9-.3 2.4-1s.8-1.5.7-2.5v-1.9h-.1c-.4.8-1 1.3-1.8 1.7s-1.6.5-2.5.5c-1.1 0-2-.2-2.8-.6-.8-.4-1.4-.9-1.9-1.6-.5-.7-.9-1.4-1.1-2.3-.2-.9-.4-1.8-.4-2.8 0-.9.1-1.8.4-2.7.3-.9.7-1.6 1.2-2.3.5-.7 1.2-1.2 1.9-1.6.8-.4 1.7-.6 2.7-.6 1 0 1.8.2 2.5.5.7.4 1.3 1 1.8 1.8h.1v-1.9h3.8V151c.1.5 0 1.2-.1 1.9zm-5.5-4.8c.4-.2.8-.5 1.1-.9.3-.4.5-.8.6-1.3.1-.5.2-1 .2-1.5 0-.6-.1-1.2-.2-1.7s-.3-1-.6-1.4c-.3-.4-.6-.7-1-1s-1-.4-1.6-.4c-.6 0-1 .1-1.4.3-.4.2-.7.5-1 .9-.3.4-.5.8-.6 1.3-.1.5-.2 1-.2 1.6 0 .5.1 1 .2 1.6.1.5.3 1 .5 1.4.3.4.6.7 1 1 .4.3.9.4 1.5.4s1.1-.1 1.5-.3zM132.4 131.9v20h-4v-20h4zM139.8 148.4c.6.6 1.5.9 2.6.9.8 0 1.5-.2 2.1-.6.6-.4.9-.8 1.1-1.3h3.5c-.6 1.7-1.4 3-2.6 3.7-1.2.7-2.6 1.1-4.2 1.1-1.1 0-2.2-.2-3.1-.5-.9-.4-1.7-.9-2.3-1.6s-1.1-1.5-1.5-2.4c-.3-.9-.5-2-.5-3.1s.2-2.1.5-3 .9-1.7 1.5-2.4c.7-.7 1.4-1.2 2.3-1.6.9-.4 1.9-.6 3-.6 1.2 0 2.3.2 3.2.7.9.5 1.7 1.1 2.3 1.9.6.8 1 1.7 1.3 2.7.3 1 .4 2.1.3 3.2h-10.4c0 1.4.3 2.3.9 2.9zm4.5-7.6c-.5-.5-1.2-.8-2.2-.8-.6 0-1.2.1-1.6.3s-.8.5-1 .8-.4.7-.5 1-.2.7-.2 1h6.5c-.2-1-.6-1.8-1-2.3zM163.2 146.9c.2.5.6.8 1 1.1.4.3.9.5 1.4.6.5.1 1.1.2 1.7.2.4 0 .8 0 1.3-.1.4-.1.9-.2 1.3-.4s.7-.4 1-.8c.3-.3.4-.7.4-1.2s-.2-1-.5-1.3c-.3-.3-.8-.6-1.4-.8-.6-.2-1.2-.4-1.9-.6-.7-.2-1.4-.4-2.2-.6-.7-.2-1.5-.4-2.2-.7-.7-.3-1.3-.6-1.9-1-.6-.4-1-1-1.4-1.6-.3-.6-.5-1.4-.5-2.3 0-1 .2-1.9.7-2.7s1-1.4 1.7-1.9 1.5-.9 2.4-1.1c.9-.2 1.8-.4 2.7-.4 1 0 2 .1 3 .3 1 .2 1.8.6 2.6 1.1.7.5 1.3 1.2 1.8 2 .4.8.7 1.8.7 3h-4.3c0-.6-.2-1.1-.4-1.5-.2-.4-.5-.7-.9-.9-.4-.2-.8-.4-1.2-.5-.5-.1-1-.1-1.5-.1-.4 0-.7 0-1.1.1-.4.1-.7.2-1 .4s-.5.4-.7.7c-.2.3-.3.6-.3 1.1 0 .4.1.7.2 1 .1.2.4.5.9.7.4.2 1 .4 1.8.6.8.2 1.8.5 3 .8.4.1.9.2 1.6.4.7.2 1.3.5 2 .9s1.2 1 1.7 1.7.7 1.6.7 2.8c0 .9-.2 1.8-.5 2.5s-.9 1.5-1.6 2c-.7.6-1.6 1-2.6 1.3-1 .3-2.2.5-3.6.5-1.1 0-2.2-.1-3.2-.4-1-.3-2-.7-2.7-1.3-.8-.6-1.4-1.3-1.9-2.2-.5-.9-.7-2-.7-3.2h4.3c-.1.8 0 1.4.3 1.8zM176.4 135.6v-3.7h16.4v3.7h-6v16.3h-4.4v-16.3h-6zM210 131.9v3.7h-10.6v4.3h9.7v3.4h-9.7v4.9h10.8v3.7H195v-20h15zM222.2 131.9c1.2 0 2.3.2 3.2.5.9.4 1.6.8 2.1 1.4.5.6 1 1.3 1.2 2s.4 1.6.4 2.4c0 .8-.1 1.6-.4 2.4s-.7 1.5-1.2 2.1c-.6.6-1.3 1.1-2.1 1.4-.9.4-1.9.5-3.2.5h-4.6v7.2h-4.4v-20h9zm-1.2 9.4c.5 0 1 0 1.5-.1s.9-.2 1.2-.4.6-.5.9-.9c.2-.4.3-.9.3-1.5s-.1-1.1-.3-1.5c-.2-.4-.5-.7-.9-.9-.4-.2-.8-.4-1.2-.4-.5-.1-1-.1-1.5-.1h-3.4v6h3.4z"/></g></svg>