<svg id="Layer_1" xmlns="http://www.w3.org/2000/svg" viewBox="0 0 300 250"><style>.st0{fill:#393}</style><path class="st0" d="M58.2 231.2c.3-.8.7-1.5 1.2-2 .5-.6 1.1-1 1.9-1.4.7-.3 1.6-.5 2.5-.5.9 0 1.8.2 2.5.5s1.4.8 1.9 1.4c.5.6.9 1.3 1.2 2 .3.8.4 1.6.4 2.5 0 .9-.1 1.7-.4 2.5-.3.8-.7 1.4-1.2 2-.5.6-1.1 1-1.9 1.3-.7.3-1.6.5-2.5.5-.9 0-1.8-.2-2.5-.5s-1.4-.8-1.9-1.3c-.5-.6-.9-1.2-1.2-2-.3-.8-.4-1.6-.4-2.5 0-.9.1-1.8.4-2.5zm2.4 4c.1.5.3.9.6 1.3s.6.7 1 .9c.4.2.9.3 1.5.3s1.1-.1 1.5-.3c.4-.2.8-.5 1-.9.3-.4.5-.8.6-1.3s.2-1 .2-1.5-.1-1-.2-1.5-.3-.9-.6-1.3-.6-.7-1-.9c-.4-.2-.9-.3-1.5-.3s-1.1.1-1.5.3c-.4.2-.8.5-1 .9s-.5.8-.6 1.3c-.1.5-.2 1-.2 1.5.1.5.1 1 .2 1.5zM73.6 230.9v1.2h.1c.3-.5.7-.9 1.2-1.1.5-.2 1-.3 1.5-.3.6 0 1.2.1 1.6.3.4.2.7.4 1 .7.2.3.4.7.5 1.1.1.4.1.9.1 1.5v5.4h-2.4v-5c0-.7-.1-1.3-.3-1.6-.2-.4-.6-.5-1.2-.5-.7 0-1.1.2-1.4.6-.3.4-.4 1-.4 1.9v4.6h-2.4v-8.8h2.1zM83.9 227.6v12.1h-2.4v-12.1h2.4zM89 242.3c-.5.3-1.1.5-1.9.5h-.7c-.2 0-.5 0-.7-.1v-2c.2 0 .5 0 .7.1h.7c.3 0 .6-.2.7-.4.2-.2.2-.5.2-.7 0-.2 0-.4-.1-.5l-3.1-8.2h2.6l2 6 1.9-6h2.5l-3.7 9.9c-.3.6-.6 1.1-1.1 1.4zM98.4 232.5v-1.6h1.4v-.7c0-.8.2-1.4.7-1.9.5-.5 1.2-.7 2.2-.7h1.2v1.8c-.3 0-.6-.1-.9-.1-.3 0-.6.1-.7.2-.1.2-.2.4-.2.8v.5h1.7v1.6h-1.7v7.2h-2.4v-7.2h-1.3zM105 233.4c.2-.6.5-1.1.9-1.5.4-.4.9-.7 1.4-.9s1.2-.3 1.9-.3 1.3.1 1.9.3 1 .5 1.4.9c.4.4.7.9.9 1.5s.3 1.2.3 1.9-.1 1.3-.3 1.9c-.2.6-.5 1.1-.9 1.5-.4.4-.9.7-1.4.9-.6.2-1.2.3-1.9.3s-1.3-.1-1.9-.3c-.6-.2-1-.5-1.4-.9-.4-.4-.7-.9-.9-1.5-.2-.6-.3-1.2-.3-1.9s.1-1.3.3-1.9zm2.2 2.9l.3.9c.2.3.4.5.7.6.3.2.6.2 1 .2s.8-.1 1-.2c.3-.2.5-.4.7-.6.2-.3.3-.6.3-.9s.1-.7.1-1 0-.7-.1-1l-.3-.9c-.2-.3-.4-.5-.7-.6-.3-.2-.6-.2-1-.2s-.7.1-1 .2c-.3.2-.5.4-.7.6-.2.3-.3.6-.3.9s-.1.7-.1 1 0 .7.1 1zM117.6 230.9v1.6c.1-.3.3-.5.5-.8.2-.2.4-.4.7-.6.2-.2.5-.3.8-.4s.6-.1.9-.1c.2 0 .3 0 .5.1v2.2c-.1 0-.2 0-.4-.1h-.5c-.4 0-.8.1-1.1.2-.3.1-.6.3-.7.6-.2.3-.3.6-.4.9-.1.3-.1.7-.1 1.1v4h-2.4v-8.8h2.2zM133 227.6l4.5 12.1h-2.8l-.9-2.7h-4.5l-1 2.7h-2.7l4.6-12.1h2.8zm.2 7.4l-1.5-4.5-1.7 4.5h3.2zM143.8 227.6c.8 0 1.5.1 2.2.4s1.3.6 1.8 1.1c.5.5.9 1.1 1.2 1.9.3.7.4 1.6.4 2.6 0 .9-.1 1.7-.3 2.4-.2.7-.6 1.4-1 1.9s-1 1-1.7 1.3c-.7.3-1.5.5-2.4.5h-5.2v-12.1h5zm-.2 9.9c.4 0 .8-.1 1.1-.2.4-.1.7-.3 1-.6.3-.3.5-.7.7-1.1s.3-1 .3-1.7c0-.6-.1-1.2-.2-1.7s-.3-.9-.6-1.3-.6-.6-1.1-.8c-.4-.2-1-.3-1.7-.3h-1.9v7.6h2.4zM157.2 227.6l4.5 12.1H159l-.9-2.7h-4.5l-1 2.7h-2.7l4.6-12.1h2.7zm.2 7.4l-1.5-4.5-1.6 4.5h3.1zM171.3 227.6l2.8 8.3 2.7-8.3h3.8v12.1h-2.5v-8.6l-3 8.6H173l-3-8.5v8.5h-2.5v-12.1h3.8zM185.3 237.6c.4.4.9.5 1.6.5.5 0 .9-.1 1.3-.4.4-.2.6-.5.6-.8h2.1c-.3 1.1-.9 1.8-1.6 2.3-.7.5-1.6.7-2.5.7-.7 0-1.3-.1-1.9-.3-.6-.2-1-.5-1.4-.9-.4-.4-.7-.9-.9-1.5-.2-.6-.3-1.2-.3-1.9s.1-1.3.3-1.8c.2-.6.5-1.1.9-1.5.4-.4.9-.7 1.4-1s1.2-.4 1.8-.4c.7 0 1.4.1 2 .4.6.3 1 .7 1.4 1.2.4.5.6 1 .8 1.7.2.6.2 1.3.2 2h-6.3c-.1.8.1 1.3.5 1.7zm2.7-4.6c-.3-.3-.7-.5-1.3-.5-.4 0-.7.1-1 .2-.3.1-.5.3-.6.5-.2.2-.3.4-.3.6-.1.2-.1.4-.1.6h3.9c-.1-.6-.3-1.1-.6-1.4zM194.8 230.9v1.2c.3-.5.7-.8 1.1-1.1.4-.2 1-.4 1.5-.4.6 0 1.1.1 1.5.3.5.2.8.6 1 1.1.3-.4.6-.7 1.1-1 .4-.3 1-.4 1.6-.4.5 0 .9.1 1.3.2s.7.3 1 .5c.3.2.5.6.7 1 .2.4.2.9.2 1.5v5.9h-2.4v-5-.8c0-.3-.1-.5-.2-.7-.1-.2-.3-.3-.5-.5s-.5-.2-.8-.2c-.3 0-.6.1-.8.2-.2.1-.4.3-.5.5-.1.2-.2.4-.2.7 0 .3-.1.5-.1.8v4.9h-2.4v-4.9-.8c0-.3-.1-.5-.1-.7-.1-.2-.2-.4-.4-.5-.2-.1-.5-.2-.9-.2-.1 0-.3 0-.5.1s-.4.1-.5.3c-.2.1-.3.3-.5.6s-.2.6-.2 1v5.1h-2.4v-8.8h2.4zM210.3 227.6v4.4c.3-.5.7-.8 1.2-1 .5-.2 1-.3 1.6-.3.4 0 .9.1 1.3.3s.8.5 1.2.8.6.9.8 1.4c.2.6.3 1.3.3 2.1s-.1 1.5-.3 2.1c-.2.6-.5 1.1-.8 1.4s-.7.7-1.2.8c-.4.2-.9.3-1.3.3-.6 0-1.2-.1-1.7-.3-.5-.2-.9-.5-1.2-1v1.1h-2.3v-12.1h2.4zm3.9 6.6c-.1-.3-.2-.6-.4-.9-.2-.3-.4-.5-.6-.6s-.6-.2-.9-.2c-.4 0-.7.1-.9.2s-.5.4-.6.6c-.2.3-.3.6-.4.9-.1.3-.1.7-.1 1.1 0 .4 0 .7.1 1.1.1.3.2.6.4.9s.4.5.6.6.6.2.9.2c.4 0 .7-.1.9-.2s.5-.4.6-.6.3-.6.4-.9c.1-.3.1-.7.1-1.1 0-.4 0-.7-.1-1.1zM220.9 237.6c.4.4.9.5 1.6.5.5 0 .9-.1 1.3-.4.4-.2.6-.5.6-.8h2.1c-.3 1.1-.9 1.8-1.6 2.3-.7.5-1.6.7-2.5.7-.7 0-1.3-.1-1.9-.3-.6-.2-1-.5-1.4-.9-.4-.4-.7-.9-.9-1.5-.2-.6-.3-1.2-.3-1.9s.1-1.3.3-1.8c.2-.6.5-1.1.9-1.5.4-.4.9-.7 1.4-1s1.2-.4 1.8-.4c.7 0 1.4.1 2 .4.6.3 1 .7 1.4 1.2.4.5.6 1 .8 1.7.2.6.2 1.3.2 2h-6.3c-.1.8.1 1.3.5 1.7zm2.7-4.6c-.3-.3-.7-.5-1.3-.5-.4 0-.7.1-1 .2-.3.1-.5.3-.6.5-.2.2-.3.4-.3.6-.1.2-.1.4-.1.6h3.9c-.1-.6-.3-1.1-.6-1.4zM230.3 230.9v1.6c.1-.3.3-.5.5-.8.2-.2.4-.4.7-.6.2-.2.5-.3.8-.4s.6-.1.9-.1c.2 0 .3 0 .5.1v2.2c-.1 0-.2 0-.4-.1h-.5c-.4 0-.8.1-1.1.2-.3.1-.6.3-.7.6-.2.3-.3.6-.4.9-.1.3-.1.7-.1 1.1v4H228v-8.8h2.3zM236.7 237.5c.1.2.2.3.4.5s.4.2.6.3c.2.1.5.1.7.1.2 0 .3 0 .5-.1.2 0 .4-.1.5-.2.2-.1.3-.2.4-.3.1-.1.2-.3.2-.5 0-.4-.2-.6-.7-.8-.5-.2-1.2-.4-2-.5-.4-.1-.7-.2-1-.3-.3-.1-.6-.2-.9-.4-.3-.2-.5-.4-.6-.7-.2-.3-.2-.6-.2-1 0-.6.1-1 .3-1.4.2-.4.5-.6.9-.9.4-.2.8-.4 1.2-.4s.9-.1 1.4-.1c.5 0 .9 0 1.4.1.4.1.8.2 1.2.5.4.2.6.5.9.9.2.4.4.8.4 1.4H240c0-.5-.2-.8-.5-.9-.3-.2-.7-.2-1.1-.2h-.4c-.2 0-.3.1-.4.1-.1.1-.2.1-.3.2s-.1.3-.1.4c0 .2.1.4.2.5l.6.3c.2.1.5.2.9.2.3.1.7.1 1 .2.4.1.7.2 1 .3.3.1.6.3.9.5.3.2.5.4.6.7.2.3.2.6.2 1 0 .6-.1 1.1-.3 1.5-.2.4-.5.7-.9.9s-.8.4-1.3.5c-.5.1-1 .1-1.5.1s-1-.1-1.5-.2-.9-.3-1.3-.5-.7-.6-.9-.9c-.2-.4-.4-.9-.4-1.5h2.3c-.3.2-.2.4-.1.6z"/></svg>