<?xml version="1.0" encoding="utf-8"?>
<!-- Generator: Adobe Illustrator 25.4.1, SVG Export Plug-In . SVG Version: 6.00 Build 0)  -->
<svg version="1.1" id="Layer_1" xmlns="http://www.w3.org/2000/svg" xmlns:xlink="http://www.w3.org/1999/xlink" x="0px" y="0px"
	 viewBox="0 0 160 600" style="enable-background:new 0 0 160 600;" xml:space="preserve">
<style type="text/css">
	.st0{fill:#349946;}
</style>
<g>
	<path class="st0" d="M10,212.2c0.1-1.1,0.3-1.9,0.8-2.6s1.1-1.3,1.8-1.7c0.7-0.4,1.5-0.7,2.4-0.9c0.9-0.2,1.8-0.3,2.7-0.3
		c0.8,0,1.7,0.1,2.5,0.2s1.6,0.3,2.3,0.7c0.7,0.3,1.3,0.8,1.7,1.4c0.4,0.6,0.7,1.4,0.7,2.4v8.6c0,0.7,0,1.5,0.1,2.1
		c0.1,0.7,0.2,1.2,0.4,1.5H21c-0.1-0.3-0.2-0.5-0.2-0.8c-0.1-0.3-0.1-0.5-0.1-0.8c-0.7,0.7-1.6,1.3-2.6,1.6c-1,0.3-2,0.4-3,0.4
		c-0.8,0-1.5-0.1-2.2-0.3c-0.7-0.2-1.3-0.5-1.8-0.9c-0.5-0.4-0.9-0.9-1.2-1.5c-0.3-0.6-0.4-1.4-0.4-2.2c0-0.9,0.2-1.7,0.5-2.3
		c0.3-0.6,0.8-1.1,1.3-1.5c0.5-0.4,1.1-0.6,1.8-0.8c0.7-0.2,1.3-0.3,2-0.4c0.7-0.1,1.4-0.2,2-0.3c0.7-0.1,1.2-0.2,1.8-0.3
		c0.5-0.1,0.9-0.3,1.2-0.6c0.3-0.2,0.4-0.6,0.4-1.1c0-0.5-0.1-0.9-0.2-1.2c-0.2-0.3-0.4-0.5-0.6-0.7c-0.3-0.2-0.6-0.3-0.9-0.3
		c-0.4-0.1-0.7-0.1-1.1-0.1c-0.9,0-1.6,0.2-2.1,0.6s-0.8,1-0.9,1.9H10z M20.5,215.5c-0.2,0.2-0.4,0.3-0.7,0.4
		c-0.3,0.1-0.6,0.2-0.9,0.2c-0.3,0.1-0.7,0.1-1,0.2c-0.4,0-0.7,0.1-1.1,0.2c-0.3,0.1-0.7,0.1-1,0.3s-0.6,0.2-0.9,0.4
		c-0.2,0.2-0.4,0.4-0.6,0.7c-0.1,0.3-0.2,0.6-0.2,1.1c0,0.4,0.1,0.7,0.2,1c0.1,0.3,0.4,0.5,0.6,0.7c0.3,0.2,0.6,0.3,0.9,0.3
		c0.3,0.1,0.7,0.1,1.1,0.1c0.9,0,1.6-0.1,2.1-0.4c0.5-0.3,0.9-0.7,1.1-1.1c0.2-0.4,0.4-0.8,0.4-1.3c0.1-0.4,0.1-0.8,0.1-1V215.5z"/>
	<path class="st0" d="M32.8,207.1v2.3h0.1c0.6-1,1.3-1.7,2.2-2.1c0.9-0.4,1.9-0.7,2.8-0.7c1.2,0,2.2,0.2,3,0.5
		c0.8,0.3,1.4,0.8,1.8,1.4c0.4,0.6,0.8,1.3,0.9,2.1c0.2,0.8,0.3,1.8,0.3,2.8v10.1h-4.5v-9.3c0-1.4-0.2-2.4-0.6-3
		c-0.4-0.7-1.2-1-2.3-1c-1.2,0-2.1,0.4-2.7,1.1c-0.6,0.7-0.8,1.9-0.8,3.6v8.6h-4.5v-16.5H32.8z"/>
	<path class="st0" d="M59.1,221.5c-0.5,0.9-1.2,1.5-2.1,1.9c-0.9,0.4-1.8,0.6-2.9,0.6c-1.2,0-2.3-0.2-3.3-0.7
		c-0.9-0.5-1.7-1.1-2.3-1.9c-0.6-0.8-1.1-1.8-1.4-2.8c-0.3-1.1-0.5-2.2-0.5-3.3c0-1.1,0.2-2.2,0.5-3.2c0.3-1,0.8-1.9,1.4-2.7
		c0.6-0.8,1.4-1.4,2.3-1.9c0.9-0.5,2-0.7,3.2-0.7c1,0,1.9,0.2,2.8,0.6c0.9,0.4,1.6,1,2.1,1.8H59v-8.3h4.5v22.8h-4.3L59.1,221.5
		L59.1,221.5z M58.9,213.4c-0.1-0.6-0.3-1.2-0.7-1.7s-0.7-0.9-1.2-1.2c-0.5-0.3-1.1-0.4-1.9-0.4s-1.4,0.1-1.9,0.4
		c-0.5,0.3-0.9,0.7-1.2,1.2c-0.3,0.5-0.5,1-0.7,1.7c-0.1,0.6-0.2,1.3-0.2,2c0,0.6,0.1,1.3,0.2,1.9c0.1,0.6,0.4,1.2,0.7,1.7
		c0.3,0.5,0.7,0.9,1.2,1.2c0.5,0.3,1.1,0.5,1.8,0.5c0.7,0,1.4-0.1,1.9-0.4c0.5-0.3,0.9-0.7,1.2-1.2c0.3-0.5,0.5-1.1,0.6-1.7
		c0.1-0.6,0.2-1.3,0.2-2C59.1,214.6,59.1,214,58.9,213.4z"/>
	<path class="st0" d="M83.7,210.1c-0.7,0-1.3,0.2-1.8,0.5c-0.5,0.3-0.9,0.8-1.2,1.3s-0.5,1.1-0.7,1.7c-0.1,0.6-0.2,1.2-0.2,1.9
		c0,0.6,0.1,1.2,0.2,1.8c0.1,0.6,0.3,1.2,0.6,1.7c0.3,0.5,0.7,0.9,1.2,1.2c0.5,0.3,1.1,0.5,1.8,0.5c1.1,0,1.9-0.3,2.5-0.9
		c0.6-0.6,1-1.4,1.1-2.4h4.4c-0.3,2.2-1.1,3.9-2.6,5c-1.4,1.1-3.2,1.7-5.4,1.7c-1.2,0-2.4-0.2-3.4-0.6c-1-0.4-1.9-1-2.6-1.7
		c-0.7-0.7-1.3-1.6-1.7-2.7c-0.4-1-0.6-2.2-0.6-3.4c0-1.3,0.2-2.5,0.6-3.6s0.9-2,1.6-2.8s1.6-1.4,2.6-1.9c1-0.4,2.2-0.7,3.6-0.7
		c1,0,1.9,0.1,2.8,0.4c0.9,0.3,1.7,0.6,2.4,1.2c0.7,0.5,1.3,1.2,1.7,1.9c0.4,0.8,0.7,1.7,0.8,2.8H87C86.7,211,85.6,210.1,83.7,210.1
		z"/>
	<path class="st0" d="M93.9,212.2c0.1-1.1,0.3-1.9,0.8-2.6c0.5-0.7,1.1-1.3,1.8-1.7c0.7-0.4,1.5-0.7,2.4-0.9
		c0.9-0.2,1.8-0.3,2.7-0.3c0.8,0,1.7,0.1,2.5,0.2s1.6,0.3,2.3,0.7c0.7,0.3,1.3,0.8,1.7,1.4c0.4,0.6,0.7,1.4,0.7,2.4v8.6
		c0,0.7,0,1.5,0.1,2.1c0.1,0.7,0.2,1.2,0.4,1.5h-4.6c-0.1-0.3-0.2-0.5-0.2-0.8c-0.1-0.3-0.1-0.5-0.1-0.8c-0.7,0.7-1.6,1.3-2.6,1.6
		c-1,0.3-2,0.4-3,0.4c-0.8,0-1.5-0.1-2.2-0.3c-0.7-0.2-1.3-0.5-1.8-0.9c-0.5-0.4-0.9-0.9-1.2-1.5c-0.3-0.6-0.4-1.4-0.4-2.2
		c0-0.9,0.2-1.7,0.5-2.3c0.3-0.6,0.8-1.1,1.3-1.5c0.5-0.4,1.1-0.6,1.8-0.8c0.7-0.2,1.3-0.3,2-0.4c0.7-0.1,1.3-0.2,2-0.3
		c0.7-0.1,1.2-0.2,1.8-0.3c0.5-0.1,0.9-0.3,1.2-0.6c0.3-0.2,0.4-0.6,0.4-1.1c0-0.5-0.1-0.9-0.2-1.2c-0.2-0.3-0.4-0.5-0.6-0.7
		c-0.3-0.2-0.6-0.3-0.9-0.3c-0.4-0.1-0.7-0.1-1.1-0.1c-0.9,0-1.6,0.2-2.1,0.6s-0.8,1-0.9,1.9H93.9z M104.4,215.5
		c-0.2,0.2-0.4,0.3-0.7,0.4s-0.6,0.2-0.9,0.2c-0.3,0.1-0.7,0.1-1,0.2s-0.7,0.1-1.1,0.2c-0.3,0.1-0.7,0.1-1,0.3
		c-0.3,0.1-0.6,0.2-0.9,0.4c-0.2,0.2-0.4,0.4-0.6,0.7c-0.1,0.3-0.2,0.6-0.2,1.1c0,0.4,0.1,0.7,0.2,1c0.1,0.3,0.4,0.5,0.6,0.7
		c0.3,0.2,0.6,0.3,0.9,0.3c0.3,0.1,0.7,0.1,1.1,0.1c0.9,0,1.6-0.1,2.1-0.4s0.9-0.7,1.1-1.1c0.2-0.4,0.4-0.8,0.4-1.3
		c0.1-0.4,0.1-0.8,0.1-1V215.5z"/>
	<path class="st0" d="M116.7,207.1v3.1h0.1c0.2-0.5,0.5-1,0.9-1.4c0.4-0.4,0.8-0.8,1.2-1.1c0.5-0.3,1-0.5,1.5-0.7
		c0.5-0.2,1.1-0.3,1.7-0.3c0.3,0,0.6,0.1,1,0.2v4.2c-0.2,0-0.5-0.1-0.8-0.1c-0.3,0-0.6,0-0.9,0c-0.8,0-1.5,0.1-2.1,0.4
		c-0.6,0.3-1,0.7-1.4,1.1c-0.4,0.5-0.6,1-0.8,1.7c-0.1,0.6-0.2,1.3-0.2,2.1v7.4h-4.5v-16.5H116.7z"/>
	<path class="st0" d="M129.1,207.1v3.1h0.1c0.2-0.5,0.5-1,0.9-1.4c0.4-0.4,0.8-0.8,1.2-1.1c0.5-0.3,1-0.5,1.5-0.7
		c0.5-0.2,1.1-0.3,1.7-0.3c0.3,0,0.6,0.1,1,0.2v4.2c-0.2,0-0.5-0.1-0.8-0.1c-0.3,0-0.6,0-0.9,0c-0.8,0-1.5,0.1-2.1,0.4
		c-0.6,0.3-1,0.7-1.4,1.1c-0.4,0.5-0.6,1-0.8,1.7c-0.1,0.6-0.2,1.3-0.2,2.1v7.4h-4.5v-16.5H129.1z"/>
	<path class="st0" d="M143.3,228.5c-0.9,0.6-2.1,0.9-3.6,0.9c-0.5,0-0.9,0-1.4,0s-0.9-0.1-1.4-0.1v-3.7c0.4,0,0.9,0.1,1.3,0.1
		c0.4,0,0.9,0.1,1.3,0c0.6-0.1,1-0.3,1.3-0.7c0.3-0.4,0.4-0.9,0.4-1.3c0-0.4-0.1-0.7-0.2-1l-5.8-15.5h4.8l3.7,11.3h0.1l3.6-11.3h4.7
		l-6.9,18.5C144.9,227,144.2,227.9,143.3,228.5z"/>
</g>
<g>
	<path class="st0" d="M26.7,234.6v4.2h-11v5.3h9.5v3.9h-9.5v9.4h-5v-22.8H26.7z"/>
	<path class="st0" d="M34.6,234.6v18.6h11.1v4.2H29.6v-22.8H34.6z"/>
	<path class="st0" d="M48.3,241.3c0.5-1.5,1.2-2.7,2.2-3.8s2.1-1.9,3.5-2.6s3-0.9,4.7-0.9c1.8,0,3.3,0.3,4.7,0.9
		c1.4,0.6,2.6,1.5,3.5,2.6s1.7,2.4,2.2,3.8c0.5,1.5,0.8,3,0.8,4.7c0,1.7-0.3,3.2-0.8,4.6c-0.5,1.4-1.2,2.7-2.2,3.7
		c-1,1.1-2.1,1.9-3.5,2.5c-1.4,0.6-3,0.9-4.7,0.9c-1.7,0-3.3-0.3-4.7-0.9c-1.4-0.6-2.6-1.4-3.5-2.5c-1-1.1-1.7-2.3-2.2-3.7
		c-0.5-1.4-0.8-3-0.8-4.6C47.5,244.4,47.8,242.8,48.3,241.3z M52.9,248.9c0.2,0.9,0.6,1.7,1.1,2.4c0.5,0.7,1.1,1.3,1.9,1.7
		c0.8,0.4,1.7,0.7,2.9,0.7c1.1,0,2.1-0.2,2.9-0.7c0.8-0.4,1.4-1,1.9-1.7c0.5-0.7,0.8-1.5,1.1-2.4c0.2-0.9,0.3-1.8,0.3-2.8
		c0-1-0.1-2-0.3-2.9c-0.2-0.9-0.6-1.8-1.1-2.5c-0.5-0.7-1.1-1.3-1.9-1.8c-0.8-0.4-1.7-0.7-2.9-0.7c-1.1,0-2.1,0.2-2.9,0.7
		c-0.8,0.4-1.4,1-1.9,1.8c-0.5,0.7-0.8,1.6-1.1,2.5c-0.2,0.9-0.3,1.9-0.3,2.9C52.5,247,52.6,248,52.9,248.9z"/>
	<path class="st0" d="M77.2,251.8c0.3,0.5,0.6,1,1.1,1.3c0.5,0.3,1,0.6,1.6,0.7c0.6,0.2,1.3,0.2,1.9,0.2c0.4,0,0.9,0,1.4-0.1
		c0.5-0.1,1-0.2,1.4-0.4s0.8-0.5,1.1-0.9c0.3-0.4,0.4-0.8,0.4-1.4c0-0.6-0.2-1.1-0.6-1.5s-0.9-0.7-1.5-1c-0.6-0.3-1.4-0.5-2.2-0.7
		c-0.8-0.2-1.6-0.4-2.5-0.6c-0.9-0.2-1.7-0.5-2.5-0.8c-0.8-0.3-1.5-0.7-2.2-1.2c-0.6-0.5-1.2-1.1-1.5-1.8c-0.4-0.7-0.6-1.6-0.6-2.7
		c0-1.2,0.2-2.2,0.8-3c0.5-0.9,1.2-1.6,2-2.2c0.8-0.6,1.7-1,2.7-1.3c1-0.3,2-0.4,3.1-0.4c1.2,0,2.3,0.1,3.4,0.4
		c1.1,0.3,2.1,0.7,2.9,1.3s1.5,1.4,2,2.3c0.5,0.9,0.8,2,0.8,3.4h-4.8c0-0.7-0.2-1.2-0.4-1.7c-0.2-0.4-0.6-0.8-1-1.1
		c-0.4-0.3-0.9-0.4-1.4-0.5c-0.5-0.1-1.1-0.2-1.7-0.2c-0.4,0-0.8,0-1.2,0.1c-0.4,0.1-0.8,0.2-1.1,0.4c-0.3,0.2-0.6,0.5-0.8,0.8
		c-0.2,0.3-0.3,0.7-0.3,1.2c0,0.4,0.1,0.8,0.3,1.1c0.2,0.3,0.5,0.5,1,0.8c0.5,0.2,1.2,0.5,2.1,0.7c0.9,0.2,2,0.5,3.5,0.9
		c0.4,0.1,1,0.2,1.8,0.5c0.8,0.2,1.5,0.6,2.2,1.1c0.7,0.5,1.4,1.1,1.9,2c0.5,0.8,0.8,1.9,0.8,3.1c0,1-0.2,2-0.6,2.9s-1,1.7-1.8,2.3
		c-0.8,0.6-1.8,1.2-3,1.5c-1.2,0.4-2.5,0.5-4.1,0.5c-1.3,0-2.5-0.2-3.7-0.5s-2.2-0.8-3.1-1.5c-0.9-0.7-1.6-1.5-2.2-2.5
		c-0.5-1-0.8-2.2-0.8-3.6h4.8C76.7,250.6,76.9,251.2,77.2,251.8z"/>
	<path class="st0" d="M97.9,251.8c0.3,0.5,0.6,1,1.1,1.3c0.5,0.3,1,0.6,1.6,0.7c0.6,0.2,1.3,0.2,1.9,0.2c0.4,0,0.9,0,1.4-0.1
		c0.5-0.1,1-0.2,1.4-0.4s0.8-0.5,1.1-0.9c0.3-0.4,0.4-0.8,0.4-1.4c0-0.6-0.2-1.1-0.6-1.5s-0.9-0.7-1.5-1c-0.6-0.3-1.4-0.5-2.2-0.7
		c-0.8-0.2-1.6-0.4-2.5-0.6c-0.9-0.2-1.7-0.5-2.5-0.8c-0.8-0.3-1.5-0.7-2.2-1.2c-0.6-0.5-1.2-1.1-1.5-1.8c-0.4-0.7-0.6-1.6-0.6-2.7
		c0-1.2,0.2-2.2,0.8-3c0.5-0.9,1.2-1.6,2-2.2c0.8-0.6,1.7-1,2.7-1.3c1-0.3,2-0.4,3.1-0.4c1.2,0,2.3,0.1,3.4,0.4
		c1.1,0.3,2.1,0.7,2.9,1.3s1.5,1.4,2,2.3c0.5,0.9,0.8,2,0.8,3.4h-4.8c0-0.7-0.2-1.2-0.4-1.7c-0.2-0.4-0.6-0.8-1-1.1
		c-0.4-0.3-0.9-0.4-1.4-0.5c-0.5-0.1-1.1-0.2-1.7-0.2c-0.4,0-0.8,0-1.2,0.1c-0.4,0.1-0.8,0.2-1.1,0.4c-0.3,0.2-0.6,0.5-0.8,0.8
		c-0.2,0.3-0.3,0.7-0.3,1.2c0,0.4,0.1,0.8,0.3,1.1c0.2,0.3,0.5,0.5,1,0.8c0.5,0.2,1.2,0.5,2.1,0.7c0.9,0.2,2,0.5,3.5,0.9
		c0.4,0.1,1,0.2,1.8,0.5c0.8,0.2,1.5,0.6,2.2,1.1c0.7,0.5,1.4,1.1,1.9,2c0.5,0.8,0.8,1.9,0.8,3.1c0,1-0.2,2-0.6,2.9s-1,1.7-1.8,2.3
		c-0.8,0.6-1.8,1.2-3,1.5c-1.2,0.4-2.5,0.5-4.1,0.5c-1.3,0-2.5-0.2-3.7-0.5s-2.2-0.8-3.1-1.5c-0.9-0.7-1.6-1.5-2.2-2.5
		c-0.5-1-0.8-2.2-0.8-3.6h4.8C97.4,250.6,97.6,251.2,97.9,251.8z"/>
</g>
</svg>
