<?xml version="1.0" encoding="utf-8"?>
<!-- Generator: Adobe Illustrator 25.4.1, SVG Export Plug-In . SVG Version: 6.00 Build 0)  -->
<svg version="1.1" id="Layer_1" xmlns="http://www.w3.org/2000/svg" xmlns:xlink="http://www.w3.org/1999/xlink" x="0px" y="0px"
	 viewBox="0 0 160 600" style="enable-background:new 0 0 160 600;" xml:space="preserve">
<style type="text/css">
	.st0{fill:#349946;}
	.st1{font-family:'HelveticaNeue-Bold';}
	.st2{font-size:21.1539px;}
</style>
<path d="M19.5,130.5l5.6,15.1h-3.4l-1.1-3.4h-5.6l-1.2,3.4h-3.3l5.7-15.1H19.5z M19.7,139.8l-1.9-5.5h0l-2,5.5H19.7z M28.6,134.7
	v1.5h0.1c0.4-0.6,0.9-1.1,1.5-1.4c0.6-0.3,1.2-0.4,1.9-0.4c0.8,0,1.5,0.1,2,0.3c0.5,0.2,0.9,0.5,1.2,0.9c0.3,0.4,0.5,0.9,0.6,1.4
	c0.1,0.6,0.2,1.2,0.2,1.9v6.7h-3v-6.2c0-0.9-0.1-1.6-0.4-2c-0.3-0.4-0.8-0.7-1.5-0.7c-0.8,0-1.4,0.2-1.8,0.7
	c-0.4,0.5-0.5,1.3-0.5,2.4v5.7h-3v-10.9H28.6z M45.6,144.2c-0.4,0.6-0.8,1-1.4,1.3c-0.6,0.3-1.2,0.4-1.9,0.4c-0.8,0-1.5-0.2-2.2-0.5
	c-0.6-0.3-1.1-0.7-1.5-1.3c-0.4-0.5-0.7-1.2-0.9-1.9c-0.2-0.7-0.3-1.4-0.3-2.2c0-0.7,0.1-1.4,0.3-2.1c0.2-0.7,0.5-1.3,0.9-1.8
	c0.4-0.5,0.9-0.9,1.5-1.3c0.6-0.3,1.3-0.5,2.1-0.5c0.6,0,1.3,0.1,1.9,0.4c0.6,0.3,1,0.7,1.4,1.2h0v-5.5h3v15.1h-2.9L45.6,144.2
	L45.6,144.2z M45.5,138.8c-0.1-0.4-0.2-0.8-0.4-1.1c-0.2-0.3-0.5-0.6-0.8-0.8c-0.3-0.2-0.7-0.3-1.2-0.3c-0.5,0-0.9,0.1-1.2,0.3
	c-0.3,0.2-0.6,0.5-0.8,0.8c-0.2,0.3-0.4,0.7-0.4,1.1c-0.1,0.4-0.1,0.8-0.1,1.3c0,0.4,0,0.8,0.1,1.3c0.1,0.4,0.3,0.8,0.5,1.1
	c0.2,0.3,0.5,0.6,0.8,0.8c0.3,0.2,0.7,0.3,1.2,0.3c0.5,0,0.9-0.1,1.2-0.3c0.3-0.2,0.6-0.5,0.8-0.8c0.2-0.3,0.3-0.7,0.4-1.1
	c0.1-0.4,0.1-0.9,0.1-1.3C45.6,139.7,45.6,139.2,45.5,138.8z M54.7,136.7v-2h1.8v-0.8c0-1,0.3-1.8,0.9-2.4c0.6-0.6,1.5-0.9,2.7-0.9
	c0.3,0,0.5,0,0.8,0c0.3,0,0.5,0,0.8,0.1v2.2c-0.4,0-0.7-0.1-1.1-0.1c-0.4,0-0.7,0.1-0.9,0.3c-0.2,0.2-0.3,0.5-0.3,1v0.7h2.1v2h-2.1
	v8.9h-3v-8.9H54.7z M63.4,133v-2.5h3v2.5H63.4z M66.4,134.7v10.9h-3v-10.9H66.4z M71.2,134.7v1.5h0.1c0.4-0.6,0.9-1.1,1.5-1.4
	c0.6-0.3,1.2-0.4,1.9-0.4c0.8,0,1.5,0.1,2,0.3c0.5,0.2,0.9,0.5,1.2,0.9c0.3,0.4,0.5,0.9,0.6,1.4c0.1,0.6,0.2,1.2,0.2,1.9v6.7h-3
	v-6.2c0-0.9-0.1-1.6-0.4-2c-0.3-0.4-0.8-0.7-1.5-0.7c-0.8,0-1.4,0.2-1.8,0.7c-0.4,0.5-0.6,1.3-0.6,2.4v5.7h-3v-10.9H71.2z
	 M88.2,144.2c-0.4,0.6-0.8,1-1.4,1.3c-0.6,0.3-1.2,0.4-1.9,0.4c-0.8,0-1.5-0.2-2.2-0.5c-0.6-0.3-1.1-0.7-1.5-1.3
	c-0.4-0.5-0.7-1.2-0.9-1.9c-0.2-0.7-0.3-1.4-0.3-2.2c0-0.7,0.1-1.4,0.3-2.1c0.2-0.7,0.5-1.3,0.9-1.8c0.4-0.5,0.9-0.9,1.5-1.3
	c0.6-0.3,1.3-0.5,2.1-0.5c0.6,0,1.3,0.1,1.9,0.4c0.6,0.3,1,0.7,1.4,1.2h0v-5.5h3v15.1h-2.9L88.2,144.2L88.2,144.2z M88.1,138.8
	c-0.1-0.4-0.2-0.8-0.4-1.1c-0.2-0.3-0.5-0.6-0.8-0.8c-0.3-0.2-0.7-0.3-1.2-0.3c-0.5,0-0.9,0.1-1.2,0.3c-0.3,0.2-0.6,0.5-0.8,0.8
	c-0.2,0.3-0.4,0.7-0.4,1.1c-0.1,0.4-0.1,0.8-0.1,1.3c0,0.4,0,0.8,0.1,1.3c0.1,0.4,0.3,0.8,0.5,1.1c0.2,0.3,0.5,0.6,0.8,0.8
	c0.3,0.2,0.7,0.3,1.2,0.3c0.5,0,0.9-0.1,1.2-0.3c0.3-0.2,0.6-0.5,0.8-0.8c0.2-0.3,0.3-0.7,0.4-1.1c0.1-0.4,0.1-0.9,0.1-1.3
	C88.2,139.7,88.2,139.2,88.1,138.8z M104.4,134.7v2h-2.2v5.4c0,0.5,0.1,0.8,0.3,1c0.2,0.2,0.5,0.3,1,0.3c0.2,0,0.3,0,0.5,0
	c0.2,0,0.3,0,0.4-0.1v2.3c-0.3,0-0.5,0.1-0.8,0.1c-0.3,0-0.6,0-0.9,0c-0.5,0-0.9,0-1.3-0.1c-0.4-0.1-0.8-0.2-1.1-0.4
	c-0.3-0.2-0.6-0.4-0.8-0.8c-0.2-0.3-0.3-0.8-0.3-1.3v-6.5h-1.8v-2h1.8v-3.3h3v3.3H104.4z M108.4,130.5v5.7h0.1
	c0.4-0.6,0.9-1.1,1.5-1.4c0.6-0.3,1.2-0.4,1.7-0.4c0.8,0,1.5,0.1,2,0.3c0.5,0.2,0.9,0.5,1.2,0.9c0.3,0.4,0.5,0.9,0.6,1.4
	c0.1,0.6,0.2,1.2,0.2,1.9v6.7h-3v-6.2c0-0.9-0.1-1.6-0.4-2c-0.3-0.4-0.8-0.7-1.5-0.7c-0.8,0-1.4,0.2-1.8,0.7
	c-0.4,0.5-0.6,1.3-0.6,2.4v5.7h-3v-15.1H108.4z M120.8,143c0.5,0.4,1.1,0.7,1.9,0.7c0.6,0,1.1-0.2,1.6-0.5c0.4-0.3,0.7-0.6,0.8-1
	h2.6c-0.4,1.3-1.1,2.2-1.9,2.8c-0.9,0.6-1.9,0.8-3.2,0.8c-0.9,0-1.6-0.1-2.3-0.4c-0.7-0.3-1.3-0.7-1.8-1.2c-0.5-0.5-0.8-1.1-1.1-1.8
	c-0.3-0.7-0.4-1.5-0.4-2.3c0-0.8,0.1-1.6,0.4-2.3c0.3-0.7,0.6-1.3,1.1-1.8c0.5-0.5,1.1-0.9,1.8-1.2c0.7-0.3,1.4-0.4,2.3-0.4
	c0.9,0,1.7,0.2,2.4,0.5c0.7,0.4,1.3,0.8,1.7,1.4c0.4,0.6,0.8,1.3,1,2.1c0.2,0.8,0.3,1.6,0.2,2.4H120
	C120.1,141.9,120.3,142.6,120.8,143z M124.2,137.2c-0.4-0.4-0.9-0.6-1.6-0.6c-0.5,0-0.9,0.1-1.2,0.2c-0.3,0.2-0.6,0.4-0.8,0.6
	c-0.2,0.2-0.3,0.5-0.4,0.8c-0.1,0.3-0.1,0.5-0.1,0.7h4.9C124.8,138.2,124.5,137.6,124.2,137.2z"/>
<g>
	<path d="M14.7,152.6v5.5h0c0.4-0.6,0.9-1,1.5-1.2c0.6-0.3,1.3-0.4,2-0.4c0.5,0,1.1,0.1,1.6,0.3s1,0.6,1.4,1c0.4,0.5,0.8,1.1,1,1.8
		c0.3,0.7,0.4,1.6,0.4,2.6c0,1-0.1,1.9-0.4,2.6c-0.3,0.7-0.6,1.3-1,1.8s-0.9,0.8-1.4,1s-1.1,0.3-1.6,0.3c-0.8,0-1.5-0.1-2.2-0.4
		c-0.6-0.3-1.1-0.7-1.4-1.3h0v1.4h-2.9v-15.1H14.7z M19.5,160.9c-0.1-0.4-0.3-0.8-0.5-1.1c-0.2-0.3-0.5-0.6-0.8-0.8
		s-0.7-0.3-1.2-0.3c-0.4,0-0.8,0.1-1.1,0.3s-0.6,0.4-0.8,0.8c-0.2,0.3-0.4,0.7-0.5,1.1c-0.1,0.4-0.1,0.9-0.1,1.3
		c0,0.5,0,0.9,0.1,1.3c0.1,0.4,0.3,0.8,0.5,1.1c0.2,0.3,0.5,0.6,0.8,0.8s0.7,0.3,1.1,0.3c0.5,0,0.8-0.1,1.2-0.3s0.6-0.4,0.8-0.8
		c0.2-0.3,0.4-0.7,0.5-1.1c0.1-0.4,0.1-0.9,0.1-1.3C19.7,161.8,19.6,161.4,19.5,160.9z"/>
	<path d="M27.4,165.1c0.5,0.4,1.1,0.7,1.9,0.7c0.6,0,1.1-0.2,1.6-0.5s0.7-0.6,0.8-1h2.6c-0.4,1.3-1.1,2.2-1.9,2.8
		c-0.9,0.6-1.9,0.8-3.2,0.8c-0.9,0-1.6-0.1-2.3-0.4c-0.7-0.3-1.3-0.7-1.8-1.2s-0.8-1.1-1.1-1.8c-0.3-0.7-0.4-1.5-0.4-2.3
		c0-0.8,0.1-1.6,0.4-2.3c0.3-0.7,0.6-1.3,1.1-1.8c0.5-0.5,1.1-0.9,1.8-1.2c0.7-0.3,1.4-0.4,2.3-0.4c0.9,0,1.7,0.2,2.4,0.5
		c0.7,0.4,1.3,0.8,1.7,1.4s0.8,1.3,1,2.1c0.2,0.8,0.3,1.6,0.2,2.4h-7.9C26.7,164,26.9,164.7,27.4,165.1z M30.8,159.4
		c-0.4-0.4-0.9-0.6-1.6-0.6c-0.5,0-0.9,0.1-1.2,0.2c-0.3,0.2-0.6,0.4-0.8,0.6s-0.3,0.5-0.4,0.8c-0.1,0.3-0.1,0.5-0.1,0.7h4.9
		C31.4,160.3,31.1,159.8,30.8,159.4z"/>
	<path d="M38.4,165c0.1,0.2,0.3,0.4,0.5,0.6c0.2,0.1,0.5,0.3,0.7,0.3c0.3,0.1,0.6,0.1,0.9,0.1c0.2,0,0.4,0,0.7-0.1
		c0.2,0,0.4-0.1,0.6-0.2c0.2-0.1,0.3-0.2,0.5-0.4c0.1-0.2,0.2-0.4,0.2-0.7c0-0.5-0.3-0.8-0.9-1c-0.6-0.2-1.4-0.5-2.5-0.7
		c-0.4-0.1-0.9-0.2-1.3-0.3c-0.4-0.1-0.8-0.3-1.1-0.5c-0.3-0.2-0.6-0.5-0.8-0.8c-0.2-0.3-0.3-0.7-0.3-1.2c0-0.7,0.1-1.3,0.4-1.7
		s0.6-0.8,1.1-1.1c0.5-0.3,1-0.4,1.5-0.6c0.6-0.1,1.1-0.2,1.7-0.2s1.2,0.1,1.7,0.2c0.6,0.1,1.1,0.3,1.5,0.6c0.4,0.3,0.8,0.6,1.1,1.1
		c0.3,0.4,0.5,1,0.5,1.7h-2.9c0-0.6-0.3-1-0.7-1.2c-0.4-0.2-0.9-0.3-1.4-0.3c-0.2,0-0.4,0-0.6,0c-0.2,0-0.4,0.1-0.5,0.1
		c-0.2,0.1-0.3,0.2-0.4,0.3c-0.1,0.1-0.2,0.3-0.2,0.5c0,0.3,0.1,0.5,0.3,0.7c0.2,0.2,0.5,0.3,0.8,0.4c0.3,0.1,0.7,0.2,1.1,0.3
		c0.4,0.1,0.8,0.2,1.2,0.3c0.4,0.1,0.9,0.2,1.3,0.4c0.4,0.1,0.8,0.3,1.1,0.6c0.3,0.2,0.6,0.5,0.8,0.9c0.2,0.3,0.3,0.8,0.3,1.3
		c0,0.7-0.1,1.3-0.4,1.8c-0.3,0.5-0.7,0.9-1.1,1.2c-0.5,0.3-1,0.5-1.6,0.6s-1.2,0.2-1.8,0.2c-0.6,0-1.3-0.1-1.9-0.2
		s-1.1-0.3-1.6-0.6c-0.5-0.3-0.9-0.7-1.2-1.2c-0.3-0.5-0.5-1.1-0.5-1.8h2.9C38.2,164.5,38.3,164.8,38.4,165z"/>
	<path d="M52.9,156.8v2h-2.2v5.4c0,0.5,0.1,0.8,0.3,1c0.2,0.2,0.5,0.3,1,0.3c0.2,0,0.3,0,0.5,0c0.2,0,0.3,0,0.4-0.1v2.3
		c-0.3,0-0.5,0.1-0.8,0.1s-0.6,0-0.9,0c-0.5,0-0.9,0-1.3-0.1c-0.4-0.1-0.8-0.2-1.1-0.4c-0.3-0.2-0.6-0.4-0.8-0.8
		c-0.2-0.3-0.3-0.8-0.3-1.3v-6.5h-1.8v-2h1.8v-3.3h3v3.3H52.9z"/>
	<path d="M62.2,156.8v2h0c0.1-0.3,0.3-0.7,0.6-0.9c0.2-0.3,0.5-0.5,0.8-0.7c0.3-0.2,0.6-0.4,1-0.5c0.4-0.1,0.7-0.2,1.1-0.2
		c0.2,0,0.4,0,0.7,0.1v2.8c-0.1,0-0.3-0.1-0.5-0.1c-0.2,0-0.4,0-0.6,0c-0.6,0-1,0.1-1.4,0.3c-0.4,0.2-0.7,0.4-0.9,0.8
		c-0.2,0.3-0.4,0.7-0.5,1.1c-0.1,0.4-0.1,0.9-0.1,1.4v4.9h-3v-10.9H62.2z"/>
	<path d="M67.1,160.2c0-0.7,0.2-1.3,0.5-1.8c0.3-0.5,0.7-0.8,1.2-1.1c0.5-0.3,1-0.5,1.6-0.6s1.2-0.2,1.8-0.2c0.6,0,1.1,0,1.7,0.1
		c0.6,0.1,1.1,0.2,1.5,0.5c0.5,0.2,0.8,0.5,1.1,0.9c0.3,0.4,0.4,0.9,0.4,1.6v5.7c0,0.5,0,1,0.1,1.4c0.1,0.5,0.2,0.8,0.3,1h-3
		c-0.1-0.2-0.1-0.3-0.1-0.5c0-0.2-0.1-0.4-0.1-0.5c-0.5,0.5-1,0.8-1.7,1c-0.6,0.2-1.3,0.3-2,0.3c-0.5,0-1-0.1-1.5-0.2
		s-0.8-0.3-1.2-0.6c-0.3-0.3-0.6-0.6-0.8-1s-0.3-0.9-0.3-1.5c0-0.6,0.1-1.1,0.3-1.5c0.2-0.4,0.5-0.7,0.8-1c0.3-0.2,0.7-0.4,1.2-0.5
		c0.4-0.1,0.9-0.2,1.3-0.3c0.5-0.1,0.9-0.1,1.3-0.2c0.4,0,0.8-0.1,1.2-0.2c0.3-0.1,0.6-0.2,0.8-0.4s0.3-0.4,0.3-0.7
		c0-0.3-0.1-0.6-0.2-0.8c-0.1-0.2-0.2-0.3-0.4-0.4c-0.2-0.1-0.4-0.2-0.6-0.2c-0.2,0-0.5-0.1-0.8-0.1c-0.6,0-1.1,0.1-1.4,0.4
		c-0.3,0.3-0.5,0.7-0.6,1.3H67.1z M74,162.4c-0.1,0.1-0.3,0.2-0.5,0.3s-0.4,0.1-0.6,0.2c-0.2,0-0.4,0.1-0.7,0.1
		c-0.2,0-0.5,0.1-0.7,0.1c-0.2,0-0.4,0.1-0.7,0.2c-0.2,0.1-0.4,0.2-0.6,0.3c-0.2,0.1-0.3,0.3-0.4,0.5c-0.1,0.2-0.1,0.4-0.1,0.7
		c0,0.3,0,0.5,0.1,0.7c0.1,0.2,0.2,0.3,0.4,0.4c0.2,0.1,0.4,0.2,0.6,0.2s0.5,0.1,0.7,0.1c0.6,0,1-0.1,1.4-0.3
		c0.3-0.2,0.6-0.4,0.7-0.7s0.2-0.6,0.3-0.8c0-0.3,0.1-0.5,0.1-0.7V162.4z"/>
	<path d="M85,156.8v2h-2.2v5.4c0,0.5,0.1,0.8,0.3,1c0.2,0.2,0.5,0.3,1,0.3c0.2,0,0.3,0,0.5,0c0.2,0,0.3,0,0.4-0.1v2.3
		c-0.3,0-0.5,0.1-0.8,0.1s-0.6,0-0.9,0c-0.5,0-0.9,0-1.3-0.1s-0.8-0.2-1.1-0.4c-0.3-0.2-0.6-0.4-0.8-0.8c-0.2-0.3-0.3-0.8-0.3-1.3
		v-6.5h-1.8v-2h1.8v-3.3h3v3.3H85z"/>
	<path d="M89.2,165.1c0.5,0.4,1.1,0.7,1.9,0.7c0.6,0,1.1-0.2,1.6-0.5s0.7-0.6,0.8-1h2.6c-0.4,1.3-1.1,2.2-1.9,2.8
		c-0.9,0.6-1.9,0.8-3.2,0.8c-0.9,0-1.6-0.1-2.3-0.4c-0.7-0.3-1.3-0.7-1.8-1.2s-0.8-1.1-1.1-1.8c-0.3-0.7-0.4-1.5-0.4-2.3
		c0-0.8,0.1-1.6,0.4-2.3c0.3-0.7,0.6-1.3,1.1-1.8c0.5-0.5,1.1-0.9,1.8-1.2c0.7-0.3,1.4-0.4,2.3-0.4c0.9,0,1.7,0.2,2.4,0.5
		c0.7,0.4,1.3,0.8,1.7,1.4s0.8,1.3,1,2.1c0.2,0.8,0.3,1.6,0.2,2.4h-7.9C88.5,164,88.8,164.7,89.2,165.1z M92.6,159.4
		c-0.4-0.4-0.9-0.6-1.6-0.6c-0.5,0-0.9,0.1-1.2,0.2c-0.3,0.2-0.6,0.4-0.8,0.6c-0.2,0.2-0.3,0.5-0.4,0.8c-0.1,0.3-0.1,0.5-0.1,0.7
		h4.9C93.2,160.3,93,159.8,92.6,159.4z"/>
	<path d="M100.3,165c0.1,0.2,0.3,0.4,0.5,0.6c0.2,0.1,0.5,0.3,0.7,0.3c0.3,0.1,0.6,0.1,0.9,0.1c0.2,0,0.4,0,0.7-0.1
		c0.2,0,0.4-0.1,0.6-0.2c0.2-0.1,0.3-0.2,0.5-0.4c0.1-0.2,0.2-0.4,0.2-0.7c0-0.5-0.3-0.8-0.9-1c-0.6-0.2-1.4-0.5-2.5-0.7
		c-0.4-0.1-0.9-0.2-1.3-0.3c-0.4-0.1-0.8-0.3-1.1-0.5c-0.3-0.2-0.6-0.5-0.8-0.8c-0.2-0.3-0.3-0.7-0.3-1.2c0-0.7,0.1-1.3,0.4-1.7
		c0.3-0.5,0.6-0.8,1.1-1.1c0.5-0.3,1-0.4,1.5-0.6c0.6-0.1,1.1-0.2,1.7-0.2c0.6,0,1.2,0.1,1.7,0.2c0.6,0.1,1.1,0.3,1.5,0.6
		c0.4,0.3,0.8,0.6,1.1,1.1c0.3,0.4,0.5,1,0.5,1.7h-2.9c0-0.6-0.3-1-0.7-1.2c-0.4-0.2-0.9-0.3-1.4-0.3c-0.2,0-0.4,0-0.5,0
		s-0.4,0.1-0.5,0.1c-0.2,0.1-0.3,0.2-0.4,0.3c-0.1,0.1-0.2,0.3-0.2,0.5c0,0.3,0.1,0.5,0.3,0.7c0.2,0.2,0.5,0.3,0.8,0.4
		c0.3,0.1,0.7,0.2,1.1,0.3c0.4,0.1,0.8,0.2,1.2,0.3c0.4,0.1,0.9,0.2,1.3,0.4c0.4,0.1,0.8,0.3,1.1,0.6c0.3,0.2,0.6,0.5,0.8,0.9
		c0.2,0.3,0.3,0.8,0.3,1.3c0,0.7-0.1,1.3-0.4,1.8c-0.3,0.5-0.7,0.9-1.1,1.2c-0.5,0.3-1,0.5-1.6,0.6c-0.6,0.1-1.2,0.2-1.8,0.2
		c-0.6,0-1.3-0.1-1.9-0.2c-0.6-0.1-1.1-0.3-1.6-0.6c-0.5-0.3-0.9-0.7-1.2-1.2c-0.3-0.5-0.5-1.1-0.5-1.8h2.9
		C100.1,164.5,100.1,164.8,100.3,165z"/>
</g>
<g>
	<path d="M17.7,178.9v2h-2.2v5.4c0,0.5,0.1,0.8,0.3,1c0.2,0.2,0.5,0.3,1,0.3c0.2,0,0.3,0,0.5,0c0.2,0,0.3,0,0.4-0.1v2.3
		c-0.3,0-0.5,0.1-0.8,0.1s-0.6,0-0.9,0c-0.5,0-0.9,0-1.3-0.1c-0.4-0.1-0.8-0.2-1.1-0.4c-0.3-0.2-0.6-0.4-0.8-0.8
		c-0.2-0.3-0.3-0.8-0.3-1.3v-6.5h-1.8v-2h1.8v-3.3h3v3.3H17.7z"/>
	<path d="M18.8,182c0.3-0.7,0.6-1.3,1.1-1.8c0.5-0.5,1.1-0.9,1.8-1.2s1.5-0.4,2.3-0.4c0.9,0,1.6,0.1,2.3,0.4
		c0.7,0.3,1.3,0.7,1.8,1.2c0.5,0.5,0.9,1.1,1.1,1.8c0.3,0.7,0.4,1.5,0.4,2.4s-0.1,1.7-0.4,2.4c-0.3,0.7-0.6,1.3-1.1,1.8
		s-1.1,0.9-1.8,1.2c-0.7,0.3-1.5,0.4-2.3,0.4c-0.9,0-1.6-0.1-2.3-0.4s-1.3-0.7-1.8-1.2c-0.5-0.5-0.9-1.1-1.1-1.8s-0.4-1.5-0.4-2.4
		S18.5,182.7,18.8,182z M21.5,185.7c0.1,0.4,0.2,0.8,0.4,1.1c0.2,0.3,0.5,0.6,0.8,0.8c0.3,0.2,0.8,0.3,1.3,0.3
		c0.5,0,0.9-0.1,1.3-0.3c0.3-0.2,0.6-0.5,0.8-0.8c0.2-0.3,0.3-0.7,0.4-1.1c0.1-0.4,0.1-0.8,0.1-1.3s0-0.9-0.1-1.3
		c-0.1-0.4-0.2-0.8-0.4-1.1c-0.2-0.3-0.5-0.6-0.8-0.8c-0.3-0.2-0.8-0.3-1.3-0.3c-0.5,0-0.9,0.1-1.3,0.3c-0.3,0.2-0.6,0.5-0.8,0.8
		c-0.2,0.3-0.3,0.7-0.4,1.1s-0.1,0.9-0.1,1.3S21.4,185.3,21.5,185.7z"/>
	<path d="M39.5,178.9v1.4h0c0.4-0.6,0.8-1,1.4-1.3s1.2-0.4,1.9-0.4c0.9,0,1.6,0.2,2.2,0.5c0.6,0.3,1.1,0.8,1.5,1.3
		c0.4,0.5,0.7,1.2,0.9,1.9c0.2,0.7,0.3,1.5,0.3,2.2c0,0.7-0.1,1.4-0.3,2.1c-0.2,0.7-0.5,1.3-0.9,1.8c-0.4,0.5-0.9,0.9-1.5,1.2
		c-0.6,0.3-1.3,0.5-2.1,0.5c-0.7,0-1.3-0.1-1.9-0.4c-0.6-0.3-1-0.7-1.4-1.2h0v5.2h-3v-14.8H39.5z M43.4,187.6
		c0.3-0.2,0.6-0.5,0.8-0.8s0.3-0.7,0.4-1.1c0.1-0.4,0.1-0.9,0.1-1.3c0-0.4,0-0.9-0.1-1.3c-0.1-0.4-0.2-0.8-0.5-1.1
		c-0.2-0.3-0.5-0.6-0.8-0.8c-0.3-0.2-0.7-0.3-1.2-0.3c-0.5,0-0.9,0.1-1.2,0.3c-0.3,0.2-0.6,0.5-0.8,0.8c-0.2,0.3-0.3,0.7-0.4,1.1
		c-0.1,0.4-0.1,0.9-0.1,1.3c0,0.4,0,0.9,0.1,1.3c0.1,0.4,0.2,0.8,0.4,1.1c0.2,0.3,0.5,0.6,0.8,0.8c0.3,0.2,0.7,0.3,1.2,0.3
		C42.7,187.9,43.1,187.8,43.4,187.6z"/>
	<path d="M52,178.9v2h0c0.1-0.3,0.3-0.7,0.6-0.9c0.2-0.3,0.5-0.5,0.8-0.7c0.3-0.2,0.6-0.4,1-0.5c0.4-0.1,0.7-0.2,1.1-0.2
		c0.2,0,0.4,0,0.7,0.1v2.8c-0.1,0-0.3-0.1-0.5-0.1c-0.2,0-0.4,0-0.6,0c-0.6,0-1,0.1-1.4,0.3c-0.4,0.2-0.7,0.4-0.9,0.8
		c-0.2,0.3-0.4,0.7-0.5,1.1c-0.1,0.4-0.1,0.9-0.1,1.4v4.9h-3v-10.9H52z"/>
	<path d="M56.7,182c0.3-0.7,0.6-1.3,1.1-1.8c0.5-0.5,1.1-0.9,1.8-1.2s1.5-0.4,2.3-0.4c0.9,0,1.6,0.1,2.3,0.4
		c0.7,0.3,1.3,0.7,1.8,1.2c0.5,0.5,0.9,1.1,1.1,1.8c0.3,0.7,0.4,1.5,0.4,2.4s-0.1,1.7-0.4,2.4c-0.3,0.7-0.6,1.3-1.1,1.8
		s-1.1,0.9-1.8,1.2c-0.7,0.3-1.5,0.4-2.3,0.4c-0.9,0-1.6-0.1-2.3-0.4s-1.3-0.7-1.8-1.2c-0.5-0.5-0.9-1.1-1.1-1.8s-0.4-1.5-0.4-2.4
		S56.4,182.7,56.7,182z M59.4,185.7c0.1,0.4,0.2,0.8,0.4,1.1c0.2,0.3,0.5,0.6,0.8,0.8c0.3,0.2,0.8,0.3,1.3,0.3
		c0.5,0,0.9-0.1,1.3-0.3c0.3-0.2,0.6-0.5,0.8-0.8c0.2-0.3,0.3-0.7,0.4-1.1c0.1-0.4,0.1-0.8,0.1-1.3s0-0.9-0.1-1.3
		c-0.1-0.4-0.2-0.8-0.4-1.1c-0.2-0.3-0.5-0.6-0.8-0.8c-0.3-0.2-0.8-0.3-1.3-0.3c-0.5,0-0.9,0.1-1.3,0.3c-0.3,0.2-0.6,0.5-0.8,0.8
		c-0.2,0.3-0.3,0.7-0.4,1.1s-0.1,0.9-0.1,1.3S59.3,185.3,59.4,185.7z"/>
	<path d="M75.1,178.9v2h-2.2v5.4c0,0.5,0.1,0.8,0.3,1c0.2,0.2,0.5,0.3,1,0.3c0.2,0,0.3,0,0.5,0c0.2,0,0.3,0,0.4-0.1v2.3
		c-0.3,0-0.5,0.1-0.8,0.1s-0.6,0-0.9,0c-0.5,0-0.9,0-1.3-0.1s-0.8-0.2-1.1-0.4c-0.3-0.2-0.6-0.4-0.8-0.8c-0.2-0.3-0.3-0.8-0.3-1.3
		v-6.5h-1.8v-2h1.8v-3.3h3v3.3H75.1z"/>
	<path d="M79.4,187.2c0.5,0.4,1.1,0.7,1.9,0.7c0.6,0,1.1-0.2,1.6-0.5s0.7-0.6,0.8-1h2.6c-0.4,1.3-1.1,2.2-1.9,2.8
		c-0.9,0.6-1.9,0.8-3.2,0.8c-0.9,0-1.6-0.1-2.3-0.4c-0.7-0.3-1.3-0.7-1.8-1.2s-0.8-1.1-1.1-1.8c-0.3-0.7-0.4-1.5-0.4-2.3
		c0-0.8,0.1-1.6,0.4-2.3c0.3-0.7,0.6-1.3,1.1-1.8c0.5-0.5,1.1-0.9,1.8-1.2c0.7-0.3,1.4-0.4,2.3-0.4c0.9,0,1.7,0.2,2.4,0.5
		c0.7,0.4,1.3,0.8,1.7,1.4s0.8,1.3,1,2.1c0.2,0.8,0.3,1.6,0.2,2.4h-7.9C78.7,186.1,78.9,186.8,79.4,187.2z M82.8,181.5
		c-0.4-0.4-0.9-0.6-1.6-0.6c-0.5,0-0.9,0.1-1.2,0.2c-0.3,0.2-0.6,0.4-0.8,0.6c-0.2,0.2-0.3,0.5-0.4,0.8c-0.1,0.3-0.1,0.5-0.1,0.7
		h4.9C83.4,182.4,83.1,181.9,82.8,181.5z"/>
	<path d="M93.1,180.9c-0.5,0-0.9,0.1-1.2,0.3s-0.6,0.5-0.8,0.8c-0.2,0.3-0.3,0.7-0.4,1.1s-0.1,0.8-0.1,1.2c0,0.4,0,0.8,0.1,1.2
		s0.2,0.8,0.4,1.1c0.2,0.3,0.4,0.6,0.8,0.8s0.7,0.3,1.2,0.3c0.7,0,1.3-0.2,1.7-0.6c0.4-0.4,0.6-0.9,0.7-1.6h2.9
		c-0.2,1.5-0.8,2.6-1.7,3.3c-0.9,0.8-2.1,1.1-3.6,1.1c-0.8,0-1.6-0.1-2.3-0.4c-0.7-0.3-1.3-0.7-1.7-1.2c-0.5-0.5-0.9-1.1-1.1-1.8
		c-0.3-0.7-0.4-1.4-0.4-2.3c0-0.8,0.1-1.6,0.4-2.4c0.2-0.7,0.6-1.4,1.1-1.9s1.1-0.9,1.8-1.2c0.7-0.3,1.5-0.4,2.4-0.4
		c0.6,0,1.3,0.1,1.9,0.3c0.6,0.2,1.1,0.4,1.6,0.8s0.9,0.8,1.2,1.3c0.3,0.5,0.5,1.1,0.5,1.8h-2.9C95.2,181.5,94.4,180.9,93.1,180.9z"
		/>
	<path d="M105.7,178.9v2h-2.2v5.4c0,0.5,0.1,0.8,0.3,1c0.2,0.2,0.5,0.3,1,0.3c0.2,0,0.3,0,0.5,0c0.2,0,0.3,0,0.4-0.1v2.3
		c-0.3,0-0.5,0.1-0.8,0.1s-0.6,0-0.9,0c-0.5,0-0.9,0-1.3-0.1s-0.8-0.2-1.1-0.4c-0.3-0.2-0.6-0.4-0.8-0.8c-0.2-0.3-0.3-0.8-0.3-1.3
		v-6.5h-1.8v-2h1.8v-3.3h3v3.3H105.7z"/>
</g>
<g>
	<path d="M15.7,215.2c-0.6,0.4-1.4,0.6-2.4,0.6c-0.3,0-0.6,0-0.9,0c-0.3,0-0.6,0-0.9-0.1v-2.5c0.3,0,0.6,0.1,0.9,0.1
		c0.3,0,0.6,0,0.9,0c0.4,0,0.7-0.2,0.9-0.5c0.2-0.3,0.3-0.6,0.3-0.9c0-0.2,0-0.5-0.1-0.7L10.4,201h3.2l2.5,7.5h0l2.4-7.5h3.1
		l-4.6,12.3C16.7,214.2,16.3,214.8,15.7,215.2z"/>
	<path d="M22.3,204.1c0.3-0.7,0.6-1.3,1.1-1.8c0.5-0.5,1.1-0.9,1.8-1.2s1.5-0.4,2.3-0.4c0.9,0,1.6,0.1,2.3,0.4
		c0.7,0.3,1.3,0.7,1.8,1.2c0.5,0.5,0.9,1.1,1.1,1.8c0.3,0.7,0.4,1.5,0.4,2.4s-0.1,1.7-0.4,2.4c-0.3,0.7-0.6,1.3-1.1,1.8
		s-1.1,0.9-1.8,1.2c-0.7,0.3-1.5,0.4-2.3,0.4c-0.9,0-1.6-0.1-2.3-0.4s-1.3-0.7-1.8-1.2c-0.5-0.5-0.9-1.1-1.1-1.8s-0.4-1.5-0.4-2.4
		S22,204.8,22.3,204.1z M25,207.8c0.1,0.4,0.2,0.8,0.4,1.1c0.2,0.3,0.5,0.6,0.8,0.8c0.3,0.2,0.8,0.3,1.3,0.3c0.5,0,0.9-0.1,1.3-0.3
		c0.3-0.2,0.6-0.5,0.8-0.8c0.2-0.3,0.3-0.7,0.4-1.1c0.1-0.4,0.1-0.8,0.1-1.3s0-0.9-0.1-1.3c-0.1-0.4-0.2-0.8-0.4-1.1
		c-0.2-0.3-0.5-0.6-0.8-0.8c-0.3-0.2-0.8-0.3-1.3-0.3c-0.5,0-0.9,0.1-1.3,0.3c-0.3,0.2-0.6,0.5-0.8,0.8c-0.2,0.3-0.3,0.7-0.4,1.1
		s-0.1,0.9-0.1,1.3S24.9,207.4,25,207.8z"/>
	<path d="M42.1,212v-1.5h-0.1c-0.4,0.6-0.9,1.1-1.5,1.4c-0.6,0.3-1.2,0.4-1.9,0.4c-0.8,0-1.5-0.1-2-0.3c-0.5-0.2-0.9-0.5-1.2-0.9
		c-0.3-0.4-0.5-0.9-0.6-1.4c-0.1-0.6-0.2-1.2-0.2-1.9V201h3v6.2c0,0.9,0.1,1.6,0.4,2c0.3,0.4,0.8,0.7,1.5,0.7c0.8,0,1.4-0.2,1.8-0.7
		c0.4-0.5,0.5-1.3,0.5-2.4V201h3V212H42.1z"/>
	<path d="M49.7,201v2h0c0.1-0.3,0.3-0.7,0.6-0.9c0.2-0.3,0.5-0.5,0.8-0.7c0.3-0.2,0.6-0.4,1-0.5c0.4-0.1,0.7-0.2,1.1-0.2
		c0.2,0,0.4,0,0.7,0.1v2.8c-0.1,0-0.3-0.1-0.5-0.1c-0.2,0-0.4,0-0.6,0c-0.6,0-1,0.1-1.4,0.3c-0.4,0.2-0.7,0.4-0.9,0.8
		c-0.2,0.3-0.4,0.7-0.5,1.1c-0.1,0.4-0.1,0.9-0.1,1.4v4.9h-3V201H49.7z"/>
	<path d="M60.2,199.3v-2.5h3v2.5H60.2z M63.2,201V212h-3V201H63.2z"/>
	<path d="M68.1,201v1.5h0.1c0.4-0.6,0.9-1.1,1.5-1.4s1.2-0.4,1.9-0.4c0.8,0,1.5,0.1,2,0.3c0.5,0.2,0.9,0.5,1.2,0.9
		c0.3,0.4,0.5,0.9,0.6,1.4c0.1,0.6,0.2,1.2,0.2,1.9v6.7h-3v-6.2c0-0.9-0.1-1.6-0.4-2c-0.3-0.4-0.8-0.7-1.5-0.7
		c-0.8,0-1.4,0.2-1.8,0.7c-0.4,0.5-0.5,1.3-0.5,2.4v5.7h-3V201H68.1z"/>
	<path d="M82.6,203c-0.5,0-0.9,0.1-1.2,0.3s-0.6,0.5-0.8,0.8c-0.2,0.3-0.3,0.7-0.4,1.1s-0.1,0.8-0.1,1.2c0,0.4,0,0.8,0.1,1.2
		s0.2,0.8,0.4,1.1c0.2,0.3,0.4,0.6,0.8,0.8s0.7,0.3,1.2,0.3c0.7,0,1.3-0.2,1.7-0.6c0.4-0.4,0.6-0.9,0.7-1.6h2.9
		c-0.2,1.5-0.8,2.6-1.7,3.3c-0.9,0.8-2.1,1.1-3.6,1.1c-0.8,0-1.6-0.1-2.3-0.4c-0.7-0.3-1.3-0.7-1.7-1.2c-0.5-0.5-0.9-1.1-1.1-1.8
		c-0.3-0.7-0.4-1.4-0.4-2.3c0-0.8,0.1-1.6,0.4-2.4c0.2-0.7,0.6-1.4,1.1-1.9s1.1-0.9,1.8-1.2c0.7-0.3,1.5-0.4,2.4-0.4
		c0.6,0,1.3,0.1,1.9,0.3c0.6,0.2,1.1,0.4,1.6,0.8s0.9,0.8,1.2,1.3c0.3,0.5,0.5,1.1,0.5,1.8h-2.9C84.6,203.6,83.8,203,82.6,203z"/>
	<path d="M89.1,204.1c0.3-0.7,0.6-1.3,1.1-1.8c0.5-0.5,1.1-0.9,1.8-1.2c0.7-0.3,1.5-0.4,2.3-0.4c0.9,0,1.6,0.1,2.3,0.4
		c0.7,0.3,1.3,0.7,1.8,1.2c0.5,0.5,0.9,1.1,1.1,1.8c0.3,0.7,0.4,1.5,0.4,2.4s-0.1,1.7-0.4,2.4c-0.3,0.7-0.6,1.3-1.1,1.8
		c-0.5,0.5-1.1,0.9-1.8,1.2c-0.7,0.3-1.5,0.4-2.3,0.4c-0.9,0-1.6-0.1-2.3-0.4c-0.7-0.3-1.3-0.7-1.8-1.2c-0.5-0.5-0.9-1.1-1.1-1.8
		c-0.3-0.7-0.4-1.5-0.4-2.4S88.9,204.8,89.1,204.1z M91.9,207.8c0.1,0.4,0.2,0.8,0.4,1.1c0.2,0.3,0.5,0.6,0.8,0.8
		c0.3,0.2,0.8,0.3,1.3,0.3s0.9-0.1,1.3-0.3c0.3-0.2,0.6-0.5,0.8-0.8c0.2-0.3,0.3-0.7,0.4-1.1s0.1-0.8,0.1-1.3s0-0.9-0.1-1.3
		s-0.2-0.8-0.4-1.1c-0.2-0.3-0.5-0.6-0.8-0.8c-0.3-0.2-0.8-0.3-1.3-0.3s-0.9,0.1-1.3,0.3c-0.3,0.2-0.6,0.5-0.8,0.8
		c-0.2,0.3-0.3,0.7-0.4,1.1s-0.1,0.9-0.1,1.3S91.8,207.4,91.9,207.8z"/>
	<path d="M104.5,201v1.5h0c0.4-0.6,0.9-1,1.4-1.3c0.6-0.3,1.2-0.5,1.9-0.5c0.7,0,1.3,0.1,1.9,0.4c0.6,0.3,1,0.7,1.3,1.4
		c0.3-0.5,0.8-0.9,1.3-1.3c0.6-0.4,1.2-0.6,2-0.6c0.6,0,1.1,0.1,1.6,0.2c0.5,0.1,0.9,0.4,1.3,0.7c0.4,0.3,0.6,0.7,0.8,1.2
		c0.2,0.5,0.3,1.1,0.3,1.8v7.3h-3v-6.2c0-0.4,0-0.7,0-1c0-0.3-0.1-0.6-0.2-0.8s-0.3-0.4-0.6-0.6c-0.2-0.1-0.6-0.2-1-0.2
		c-0.4,0-0.8,0.1-1,0.2c-0.3,0.2-0.5,0.4-0.6,0.6c-0.1,0.3-0.2,0.6-0.3,0.9c0,0.3-0.1,0.7-0.1,1v6.1h-3v-6.1c0-0.3,0-0.6,0-1
		c0-0.3-0.1-0.6-0.2-0.9c-0.1-0.3-0.3-0.5-0.5-0.6c-0.2-0.2-0.6-0.2-1.1-0.2c-0.1,0-0.3,0-0.6,0.1c-0.2,0.1-0.5,0.2-0.7,0.4
		c-0.2,0.2-0.4,0.4-0.6,0.8c-0.2,0.3-0.2,0.8-0.2,1.3v6.3h-3V201H104.5z"/>
	<path d="M123.6,209.3c0.5,0.4,1.1,0.7,1.9,0.7c0.6,0,1.1-0.2,1.6-0.5s0.7-0.6,0.8-1h2.6c-0.4,1.3-1.1,2.2-1.9,2.8
		c-0.9,0.6-1.9,0.8-3.2,0.8c-0.9,0-1.6-0.1-2.3-0.4c-0.7-0.3-1.3-0.7-1.8-1.2s-0.8-1.1-1.1-1.8c-0.3-0.7-0.4-1.5-0.4-2.3
		c0-0.8,0.1-1.6,0.4-2.3c0.3-0.7,0.6-1.3,1.1-1.8c0.5-0.5,1.1-0.9,1.8-1.2c0.7-0.3,1.4-0.4,2.3-0.4c0.9,0,1.7,0.2,2.4,0.5
		c0.7,0.4,1.3,0.8,1.7,1.4s0.8,1.3,1,2.1c0.2,0.8,0.3,1.6,0.2,2.4h-7.9C122.9,208.2,123.1,208.9,123.6,209.3z M127,203.6
		c-0.4-0.4-0.9-0.6-1.6-0.6c-0.5,0-0.9,0.1-1.2,0.2c-0.3,0.2-0.6,0.4-0.8,0.6c-0.2,0.2-0.3,0.5-0.4,0.8c-0.1,0.3-0.1,0.5-0.1,0.7
		h4.9C127.6,204.6,127.3,204,127,203.6z"/>
	<path d="M135.5,208.7v3.3h-3.3v-3.3H135.5z"/>
</g>
<g>
	<path class="st0" d="M11.8,230.2c0.3-1,0.8-1.8,1.5-2.5c0.6-0.7,1.4-1.3,2.3-1.7c0.9-0.4,2-0.6,3.1-0.6c1.2,0,2.2,0.2,3.1,0.6
		c0.9,0.4,1.7,1,2.3,1.7s1.1,1.6,1.5,2.5c0.3,1,0.5,2,0.5,3.1c0,1.1-0.2,2.1-0.5,3.1c-0.3,1-0.8,1.8-1.5,2.5s-1.4,1.3-2.3,1.7
		c-0.9,0.4-2,0.6-3.1,0.6c-1.2,0-2.2-0.2-3.1-0.6c-0.9-0.4-1.7-1-2.3-1.7c-0.6-0.7-1.1-1.5-1.5-2.5c-0.3-1-0.5-2-0.5-3.1
		C11.3,232.2,11.5,231.2,11.8,230.2z M14.9,235.2c0.1,0.6,0.4,1.1,0.7,1.6c0.3,0.5,0.7,0.9,1.3,1.2c0.5,0.3,1.2,0.4,1.9,0.4
		c0.7,0,1.4-0.1,1.9-0.4c0.5-0.3,0.9-0.7,1.3-1.2c0.3-0.5,0.6-1,0.7-1.6c0.1-0.6,0.2-1.2,0.2-1.9c0-0.7-0.1-1.3-0.2-1.9
		c-0.1-0.6-0.4-1.2-0.7-1.7c-0.3-0.5-0.7-0.9-1.3-1.2c-0.5-0.3-1.2-0.4-1.9-0.4c-0.7,0-1.4,0.1-1.9,0.4c-0.5,0.3-0.9,0.7-1.3,1.2
		c-0.3,0.5-0.6,1-0.7,1.7c-0.1,0.6-0.2,1.3-0.2,1.9C14.7,234,14.7,234.6,14.9,235.2z"/>
	<path class="st0" d="M30.6,229.9v1.5h0.1c0.4-0.6,0.9-1.1,1.5-1.4c0.6-0.3,1.2-0.4,1.9-0.4c0.8,0,1.5,0.1,2,0.3
		c0.5,0.2,0.9,0.5,1.2,0.9c0.3,0.4,0.5,0.9,0.6,1.4c0.1,0.6,0.2,1.2,0.2,1.9v6.7h-3v-6.2c0-0.9-0.1-1.6-0.4-2
		c-0.3-0.4-0.8-0.7-1.5-0.7c-0.8,0-1.4,0.2-1.8,0.7c-0.4,0.5-0.6,1.3-0.6,2.4v5.7h-3v-10.9H30.6z"/>
	<path class="st0" d="M42.9,225.7v15.1h-3v-15.1H42.9z"/>
	<path class="st0" d="M48.9,244.1c-0.6,0.4-1.4,0.6-2.4,0.6c-0.3,0-0.6,0-0.9,0c-0.3,0-0.6,0-0.9-0.1v-2.5c0.3,0,0.6,0.1,0.9,0.1
		c0.3,0,0.6,0,0.9,0c0.4,0,0.7-0.2,0.9-0.5c0.2-0.3,0.3-0.6,0.3-0.9c0-0.2,0-0.5-0.1-0.7l-3.8-10.3h3.2l2.5,7.5h0l2.4-7.5h3.1
		l-4.6,12.3C50,243.1,49.5,243.7,48.9,244.1z"/>
	<path class="st0" d="M59.8,231.9v-2h1.8V229c0-1,0.3-1.8,0.9-2.4s1.5-0.9,2.8-0.9c0.3,0,0.5,0,0.8,0c0.3,0,0.5,0,0.8,0.1v2.2
		c-0.4,0-0.7-0.1-1.1-0.1c-0.4,0-0.7,0.1-0.9,0.3c-0.2,0.2-0.3,0.5-0.3,1v0.7h2.1v2h-2.1v8.9h-3v-8.9H59.8z"/>
	<path class="st0" d="M67.6,233c0.3-0.7,0.6-1.3,1.1-1.8c0.5-0.5,1.1-0.9,1.8-1.2c0.7-0.3,1.5-0.4,2.3-0.4c0.9,0,1.6,0.1,2.3,0.4
		c0.7,0.3,1.3,0.7,1.8,1.2c0.5,0.5,0.9,1.1,1.1,1.8c0.3,0.7,0.4,1.5,0.4,2.4s-0.1,1.7-0.4,2.4c-0.3,0.7-0.6,1.3-1.1,1.8
		c-0.5,0.5-1.1,0.9-1.8,1.2c-0.7,0.3-1.5,0.4-2.3,0.4c-0.9,0-1.6-0.1-2.3-0.4c-0.7-0.3-1.3-0.7-1.8-1.2c-0.5-0.5-0.9-1.1-1.1-1.8
		s-0.4-1.5-0.4-2.4S67.3,233.7,67.6,233z M70.3,236.6c0.1,0.4,0.2,0.8,0.4,1.1c0.2,0.3,0.5,0.6,0.8,0.8c0.3,0.2,0.8,0.3,1.3,0.3
		s0.9-0.1,1.3-0.3c0.3-0.2,0.6-0.5,0.8-0.8c0.2-0.3,0.3-0.7,0.4-1.1s0.1-0.8,0.1-1.3s0-0.9-0.1-1.3s-0.2-0.8-0.4-1.1
		c-0.2-0.3-0.5-0.6-0.8-0.8c-0.3-0.2-0.8-0.3-1.3-0.3s-0.9,0.1-1.3,0.3c-0.3,0.2-0.6,0.5-0.8,0.8c-0.2,0.3-0.3,0.7-0.4,1.1
		s-0.1,0.9-0.1,1.3S70.2,236.2,70.3,236.6z"/>
	<path class="st0" d="M82.9,229.9v2h0c0.1-0.3,0.3-0.7,0.6-0.9c0.2-0.3,0.5-0.5,0.8-0.7c0.3-0.2,0.6-0.4,1-0.5
		c0.4-0.1,0.7-0.2,1.1-0.2c0.2,0,0.4,0,0.7,0.1v2.8c-0.1,0-0.3-0.1-0.5-0.1s-0.4,0-0.6,0c-0.5,0-1,0.1-1.4,0.3
		c-0.4,0.2-0.7,0.4-0.9,0.8c-0.2,0.3-0.4,0.7-0.5,1.1c-0.1,0.4-0.1,0.9-0.1,1.4v4.9h-3v-10.9H82.9z"/>
</g>
<text transform="matrix(1 0 0 1 92.124 240.8169)" class="st0 st1 st2"> </text>
<g>
	<path class="st0" d="M19.5,247.8l5.6,15.1h-3.4l-1.1-3.4h-5.6l-1.2,3.4h-3.3l5.7-15.1H19.5z M19.7,257.1l-1.9-5.5h0l-2,5.5H19.7z"
		/>
	<path class="st0" d="M32.6,247.8c1,0,1.9,0.2,2.7,0.5c0.8,0.3,1.6,0.8,2.2,1.4s1.1,1.4,1.4,2.3c0.3,0.9,0.5,2,0.5,3.3
		c0,1.1-0.1,2.1-0.4,3c-0.3,0.9-0.7,1.7-1.3,2.4c-0.6,0.7-1.3,1.2-2.1,1.6c-0.9,0.4-1.9,0.6-3,0.6h-6.5v-15.1H32.6z M32.3,260.1
		c0.5,0,0.9-0.1,1.4-0.2c0.5-0.2,0.9-0.4,1.2-0.8c0.4-0.4,0.6-0.8,0.8-1.4s0.3-1.3,0.3-2.1c0-0.8-0.1-1.4-0.2-2.1
		c-0.1-0.6-0.4-1.1-0.7-1.6s-0.8-0.8-1.3-1c-0.6-0.2-1.2-0.3-2.1-0.3h-2.4v9.5H32.3z"/>
	<path class="st0" d="M48.8,247.8l5.6,15.1H51l-1.1-3.4h-5.6l-1.2,3.4h-3.3l5.7-15.1H48.8z M49,257.1l-1.9-5.5h0l-2,5.5H49z"/>
	<path class="st0" d="M65.3,247.8l3.5,10.4h0l3.3-10.4h4.7v15.1h-3.1v-10.7h0l-3.7,10.7h-2.6l-3.7-10.6h0v10.6h-3.1v-15.1H65.3z"/>
	<path class="st0" d="M82.3,260.3c0.5,0.4,1.1,0.7,1.9,0.7c0.6,0,1.1-0.2,1.6-0.5s0.7-0.6,0.8-1h2.6c-0.4,1.3-1.1,2.2-1.9,2.8
		c-0.9,0.6-1.9,0.8-3.2,0.8c-0.9,0-1.6-0.1-2.3-0.4c-0.7-0.3-1.3-0.7-1.8-1.2s-0.8-1.1-1.1-1.8c-0.3-0.7-0.4-1.5-0.4-2.3
		c0-0.8,0.1-1.6,0.4-2.3c0.3-0.7,0.6-1.3,1.1-1.8c0.5-0.5,1.1-0.9,1.8-1.2c0.7-0.3,1.4-0.4,2.3-0.4c0.9,0,1.7,0.2,2.4,0.5
		c0.7,0.4,1.3,0.8,1.7,1.4s0.8,1.3,1,2.1c0.2,0.8,0.3,1.6,0.2,2.4h-7.9C81.6,259.2,81.9,259.9,82.3,260.3z M85.7,254.6
		c-0.4-0.4-0.9-0.6-1.6-0.6c-0.5,0-0.9,0.1-1.2,0.2c-0.3,0.2-0.6,0.4-0.8,0.6c-0.2,0.2-0.3,0.5-0.4,0.8c-0.1,0.3-0.1,0.5-0.1,0.7
		h4.9C86.3,255.5,86.1,255,85.7,254.6z"/>
	<path class="st0" d="M93.8,252v1.5h0c0.4-0.6,0.9-1,1.4-1.3c0.6-0.3,1.2-0.5,1.9-0.5c0.7,0,1.3,0.1,1.9,0.4c0.6,0.3,1,0.7,1.3,1.4
		c0.3-0.5,0.8-0.9,1.3-1.3c0.6-0.4,1.2-0.6,2-0.6c0.6,0,1.1,0.1,1.6,0.2c0.5,0.1,0.9,0.4,1.3,0.7c0.4,0.3,0.6,0.7,0.8,1.2
		c0.2,0.5,0.3,1.1,0.3,1.8v7.3h-3v-6.2c0-0.4,0-0.7,0-1c0-0.3-0.1-0.6-0.2-0.8s-0.3-0.4-0.6-0.6c-0.2-0.1-0.6-0.2-1-0.2
		c-0.4,0-0.8,0.1-1,0.2c-0.3,0.2-0.5,0.4-0.6,0.6c-0.1,0.3-0.2,0.6-0.3,0.9c0,0.3-0.1,0.7-0.1,1v6.1h-3v-6.1c0-0.3,0-0.6,0-1
		c0-0.3-0.1-0.6-0.2-0.9c-0.1-0.3-0.3-0.5-0.5-0.6c-0.2-0.2-0.6-0.2-1.1-0.2c-0.1,0-0.3,0-0.6,0.1c-0.2,0.1-0.5,0.2-0.7,0.4
		c-0.2,0.2-0.4,0.4-0.6,0.8c-0.2,0.3-0.2,0.8-0.2,1.3v6.3h-3V252H93.8z"/>
	<path class="st0" d="M112.6,247.8v5.5h0c0.4-0.6,0.9-1,1.5-1.2c0.6-0.3,1.3-0.4,2-0.4c0.5,0,1.1,0.1,1.6,0.3c0.5,0.2,1,0.6,1.4,1
		c0.4,0.5,0.8,1.1,1,1.8c0.3,0.7,0.4,1.6,0.4,2.6c0,1-0.1,1.9-0.4,2.6c-0.3,0.7-0.6,1.3-1,1.8c-0.4,0.5-0.9,0.8-1.4,1
		c-0.5,0.2-1.1,0.3-1.6,0.3c-0.8,0-1.5-0.1-2.2-0.4c-0.6-0.3-1.1-0.7-1.4-1.3h0v1.4h-2.9v-15.1H112.6z M117.5,256.1
		c-0.1-0.4-0.3-0.8-0.5-1.1c-0.2-0.3-0.5-0.6-0.8-0.8s-0.7-0.3-1.2-0.3c-0.4,0-0.8,0.1-1.1,0.3c-0.3,0.2-0.6,0.4-0.8,0.8
		c-0.2,0.3-0.4,0.7-0.5,1.1c-0.1,0.4-0.1,0.9-0.1,1.3c0,0.5,0,0.9,0.1,1.3c0.1,0.4,0.3,0.8,0.5,1.1c0.2,0.3,0.5,0.6,0.8,0.8
		c0.3,0.2,0.7,0.3,1.1,0.3c0.5,0,0.8-0.1,1.2-0.3s0.6-0.4,0.8-0.8c0.2-0.3,0.4-0.7,0.5-1.1c0.1-0.4,0.1-0.9,0.1-1.3
		C117.6,257,117.6,256.6,117.5,256.1z"/>
	<path class="st0" d="M125.3,260.3c0.5,0.4,1.1,0.7,1.9,0.7c0.6,0,1.1-0.2,1.6-0.5s0.7-0.6,0.8-1h2.6c-0.4,1.3-1.1,2.2-1.9,2.8
		c-0.9,0.6-1.9,0.8-3.2,0.8c-0.9,0-1.6-0.1-2.3-0.4c-0.7-0.3-1.3-0.7-1.8-1.2s-0.8-1.1-1.1-1.8c-0.3-0.7-0.4-1.5-0.4-2.3
		c0-0.8,0.1-1.6,0.4-2.3c0.3-0.7,0.6-1.3,1.1-1.8c0.5-0.5,1.1-0.9,1.8-1.2c0.7-0.3,1.4-0.4,2.3-0.4c0.9,0,1.7,0.2,2.4,0.5
		c0.7,0.4,1.3,0.8,1.7,1.4s0.8,1.3,1,2.1c0.2,0.8,0.3,1.6,0.2,2.4h-7.9C124.6,259.2,124.9,259.9,125.3,260.3z M128.7,254.6
		c-0.4-0.4-0.9-0.6-1.6-0.6c-0.5,0-0.9,0.1-1.2,0.2c-0.3,0.2-0.6,0.4-0.8,0.6c-0.2,0.2-0.3,0.5-0.4,0.8c-0.1,0.3-0.1,0.5-0.1,0.7
		h4.9C129.3,255.5,129.1,255,128.7,254.6z"/>
	<path class="st0" d="M136.7,252v2h0c0.1-0.3,0.3-0.7,0.6-0.9c0.2-0.3,0.5-0.5,0.8-0.7c0.3-0.2,0.6-0.4,1-0.5
		c0.4-0.1,0.7-0.2,1.1-0.2c0.2,0,0.4,0,0.7,0.1v2.8c-0.1,0-0.3-0.1-0.5-0.1s-0.4,0-0.6,0c-0.5,0-1,0.1-1.4,0.3
		c-0.4,0.2-0.7,0.4-0.9,0.8c-0.2,0.3-0.4,0.7-0.5,1.1c-0.1,0.4-0.1,0.9-0.1,1.4v4.9h-3V252H136.7z"/>
	<path class="st0" d="M144.2,260.2c0.1,0.2,0.3,0.4,0.5,0.6c0.2,0.1,0.5,0.3,0.7,0.3c0.3,0.1,0.6,0.1,0.9,0.1c0.2,0,0.4,0,0.7-0.1
		c0.2,0,0.4-0.1,0.6-0.2c0.2-0.1,0.3-0.2,0.5-0.4c0.1-0.2,0.2-0.4,0.2-0.7c0-0.5-0.3-0.8-0.9-1c-0.6-0.2-1.4-0.5-2.5-0.7
		c-0.4-0.1-0.9-0.2-1.3-0.3c-0.4-0.1-0.8-0.3-1.1-0.5c-0.3-0.2-0.6-0.5-0.8-0.8c-0.2-0.3-0.3-0.7-0.3-1.2c0-0.7,0.1-1.3,0.4-1.7
		c0.3-0.5,0.6-0.8,1.1-1.1c0.5-0.3,1-0.4,1.5-0.6c0.6-0.1,1.1-0.2,1.7-0.2c0.6,0,1.2,0.1,1.7,0.2c0.6,0.1,1.1,0.3,1.5,0.6
		c0.4,0.3,0.8,0.6,1.1,1.1c0.3,0.4,0.5,1,0.5,1.7h-2.9c0-0.6-0.3-1-0.7-1.2c-0.4-0.2-0.9-0.3-1.4-0.3c-0.2,0-0.4,0-0.5,0
		s-0.4,0.1-0.5,0.1c-0.2,0.1-0.3,0.2-0.4,0.3c-0.1,0.1-0.2,0.3-0.2,0.5c0,0.3,0.1,0.5,0.3,0.7c0.2,0.2,0.5,0.3,0.8,0.4
		c0.3,0.1,0.7,0.2,1.1,0.3c0.4,0.1,0.8,0.2,1.2,0.3c0.4,0.1,0.9,0.2,1.3,0.4c0.4,0.1,0.8,0.3,1.1,0.6c0.3,0.2,0.6,0.5,0.8,0.9
		c0.2,0.3,0.3,0.8,0.3,1.3c0,0.7-0.1,1.3-0.4,1.8c-0.3,0.5-0.7,0.9-1.1,1.2c-0.5,0.3-1,0.5-1.6,0.6c-0.6,0.1-1.2,0.2-1.8,0.2
		c-0.6,0-1.3-0.1-1.9-0.2c-0.6-0.1-1.1-0.3-1.6-0.6c-0.5-0.3-0.9-0.7-1.2-1.2c-0.3-0.5-0.5-1.1-0.5-1.8h2.9
		C144,259.7,144.1,260,144.2,260.2z"/>
</g>
</svg>
