<?xml version="1.0" encoding="utf-8"?>
<!-- Generator: Adobe Illustrator 25.4.1, SVG Export Plug-In . SVG Version: 6.00 Build 0)  -->
<svg version="1.1" id="Layer_1" xmlns="http://www.w3.org/2000/svg" xmlns:xlink="http://www.w3.org/1999/xlink" x="0px" y="0px"
	 viewBox="0 0 160 600" style="enable-background:new 0 0 160 600;" xml:space="preserve">
<g>
	<path d="M15.7,133.3v9.4l8.9-9.4h6.3l-8.9,9l9.8,13.8h-6.3l-6.9-10.2l-2.9,2.9v7.3h-5v-22.8H15.7z"/>
	<path d="M38.1,152.1c0.7,0.7,1.7,1,2.9,1c0.9,0,1.7-0.2,2.4-0.7c0.7-0.5,1.1-0.9,1.2-1.5h4c-0.6,2-1.6,3.4-2.9,4.2
		c-1.3,0.9-2.9,1.3-4.8,1.3c-1.3,0-2.5-0.2-3.5-0.6c-1-0.4-1.9-1-2.6-1.8c-0.7-0.8-1.3-1.7-1.7-2.7c-0.4-1.1-0.6-2.2-0.6-3.5
		c0-1.2,0.2-2.4,0.6-3.4c0.4-1.1,1-2,1.7-2.8c0.7-0.8,1.6-1.4,2.7-1.8c1-0.4,2.2-0.7,3.4-0.7c1.4,0,2.6,0.3,3.7,0.8
		c1,0.5,1.9,1.3,2.6,2.2c0.7,0.9,1.2,2,1.5,3.1c0.3,1.2,0.4,2.4,0.3,3.7H37C37,150.4,37.4,151.5,38.1,152.1z M43.2,143.5
		c-0.5-0.6-1.4-0.9-2.5-0.9c-0.7,0-1.3,0.1-1.8,0.4c-0.5,0.2-0.9,0.5-1.1,0.9c-0.3,0.4-0.5,0.7-0.6,1.1c-0.1,0.4-0.2,0.8-0.2,1.1
		h7.4C44.1,144.9,43.7,144.1,43.2,143.5z"/>
	<path d="M56.4,152.1c0.7,0.7,1.7,1,2.9,1c0.9,0,1.7-0.2,2.4-0.7c0.7-0.5,1.1-0.9,1.2-1.5h4c-0.6,2-1.6,3.4-2.9,4.2
		c-1.3,0.9-2.9,1.3-4.8,1.3c-1.3,0-2.5-0.2-3.5-0.6c-1-0.4-1.9-1-2.6-1.8c-0.7-0.8-1.3-1.7-1.7-2.7c-0.4-1.1-0.6-2.2-0.6-3.5
		c0-1.2,0.2-2.4,0.6-3.4c0.4-1.1,1-2,1.7-2.8c0.7-0.8,1.6-1.4,2.7-1.8c1-0.4,2.2-0.7,3.4-0.7c1.4,0,2.6,0.3,3.7,0.8
		c1,0.5,1.9,1.3,2.6,2.2c0.7,0.9,1.2,2,1.5,3.1c0.3,1.2,0.4,2.4,0.3,3.7H55.3C55.3,150.4,55.7,151.5,56.4,152.1z M61.5,143.5
		c-0.5-0.6-1.4-0.9-2.5-0.9c-0.7,0-1.3,0.1-1.8,0.4c-0.5,0.2-0.9,0.5-1.1,0.9c-0.3,0.4-0.5,0.7-0.6,1.1c-0.1,0.4-0.2,0.8-0.2,1.1
		h7.4C62.4,144.9,62,144.1,61.5,143.5z"/>
	<path d="M74.2,139.6v2.1h0.1c0.6-0.9,1.3-1.5,2.1-1.9s1.8-0.6,2.8-0.6c1.3,0,2.4,0.2,3.3,0.7s1.7,1.1,2.3,1.9
		c0.6,0.8,1.1,1.7,1.4,2.8c0.3,1.1,0.4,2.2,0.4,3.4c0,1.1-0.1,2.2-0.4,3.2c-0.3,1-0.8,1.9-1.4,2.7c-0.6,0.8-1.4,1.4-2.3,1.9
		c-0.9,0.5-2,0.7-3.2,0.7c-1,0-2-0.2-2.8-0.6c-0.9-0.4-1.6-1-2.1-1.8h-0.1v7.8h-4.5v-22.3H74.2z M80,152.7c0.5-0.3,0.9-0.7,1.2-1.2
		c0.3-0.5,0.5-1,0.7-1.7c0.1-0.6,0.2-1.3,0.2-1.9s-0.1-1.3-0.2-1.9c-0.1-0.6-0.4-1.2-0.7-1.7s-0.7-0.9-1.2-1.2
		c-0.5-0.3-1.1-0.5-1.8-0.5c-0.7,0-1.4,0.2-1.9,0.5c-0.5,0.3-0.9,0.7-1.2,1.2c-0.3,0.5-0.5,1.1-0.7,1.7c-0.1,0.6-0.2,1.3-0.2,2
		c0,0.7,0.1,1.3,0.2,1.9c0.1,0.6,0.4,1.2,0.7,1.7s0.7,0.9,1.2,1.2s1.1,0.4,1.9,0.4C78.9,153.1,79.5,153,80,152.7z"/>
</g>
<g>
	<path d="M25.3,173.2c-0.3-0.5-0.7-0.9-1.1-1.3c-0.4-0.4-1-0.6-1.5-0.8c-0.6-0.2-1.2-0.3-1.8-0.3c-1.1,0-2.1,0.2-2.9,0.7
		c-0.8,0.4-1.4,1-1.9,1.8c-0.5,0.7-0.8,1.6-1.1,2.5c-0.2,0.9-0.3,1.9-0.3,2.9c0,1,0.1,1.9,0.3,2.8c0.2,0.9,0.6,1.7,1.1,2.4
		c0.5,0.7,1.1,1.3,1.9,1.7c0.8,0.4,1.7,0.7,2.9,0.7c1.5,0,2.7-0.5,3.6-1.4c0.9-0.9,1.4-2.2,1.6-3.7h4.8c-0.1,1.4-0.5,2.7-1,3.9
		s-1.2,2.1-2.1,2.9c-0.9,0.8-1.9,1.4-3.1,1.9c-1.2,0.4-2.5,0.6-3.9,0.6c-1.7,0-3.3-0.3-4.7-0.9c-1.4-0.6-2.6-1.4-3.5-2.5
		c-1-1.1-1.7-2.3-2.2-3.7c-0.5-1.4-0.8-3-0.8-4.6c0-1.7,0.3-3.3,0.8-4.7c0.5-1.5,1.2-2.7,2.2-3.8s2.1-1.9,3.5-2.6s3-0.9,4.7-0.9
		c1.3,0,2.4,0.2,3.6,0.5c1.1,0.4,2.1,0.9,3,1.6c0.9,0.7,1.6,1.5,2.2,2.6c0.6,1,0.9,2.2,1.1,3.5h-4.8
		C25.8,174.2,25.6,173.6,25.3,173.2z"/>
	<path d="M45.7,167.1l8.5,22.8H49l-1.7-5.1h-8.5l-1.8,5.1h-5l8.6-22.8H45.7z M46,181l-2.9-8.4H43l-3,8.4H46z"/>
	<path d="M61.2,167.1v18.6h11.1v4.2H56.2v-22.8H61.2z"/>
	<path d="M82.1,167.1l5.3,15.7h0.1l5-15.7h7v22.8h-4.7v-16.1h-0.1l-5.6,16.1h-3.9l-5.6-16h-0.1v16h-4.7v-22.8H82.1z"/>
</g>
</svg>
