<?xml version="1.0" encoding="utf-8"?>
<!-- Generator: Adobe Illustrator 25.4.1, SVG Export Plug-In . SVG Version: 6.00 Build 0)  -->
<svg version="1.1" id="Layer_1" xmlns="http://www.w3.org/2000/svg" xmlns:xlink="http://www.w3.org/1999/xlink" x="0px" y="0px"
	 viewBox="0 0 160 600" style="enable-background:new 0 0 160 600;" xml:space="preserve">
<style type="text/css">
	.st0{clip-path:url(#SVGID_00000052086680171391794080000016458689535491310783_);fill:#349946;}
	.st1{fill:#FFFFFF;}
</style>
<g>
	<defs>
		<rect id="SVGID_1_" x="13.5" y="338" width="133.8" height="28.2"/>
	</defs>
	<clipPath id="SVGID_00000042701025212933332080000012952430070182635417_">
		<use xlink:href="#SVGID_1_"  style="overflow:visible;"/>
	</clipPath>
	<path style="clip-path:url(#SVGID_00000042701025212933332080000012952430070182635417_);fill:#349946;" d="M147.4,352.1
		c0,7.8-7.3,14.1-16.2,14.1H29.7c-8.9,0-16.2-6.3-16.2-14.1c0-7.8,7.3-14.1,16.2-14.1h101.4C140.1,338,147.4,344.3,147.4,352.1"/>
</g>
<g>
	<path class="st1" d="M42.2,356.9l-1.5-6.1h0l-1.5,6.1h-2l-2.4-9h2l1.4,6.1h0l1.6-6.1h1.9l1.5,6.2h0l1.5-6.2h1.9l-2.4,9H42.2z"/>
	<path class="st1" d="M51.7,347.9l3.4,9H53l-0.7-2h-3.4l-0.7,2h-2l3.4-9H51.7z M51.8,353.4l-1.1-3.3h0l-1.2,3.3H51.8z"/>
</g>
<g>
	<path class="st1" d="M54,349.6v-1.7h7.4v1.7h-2.7v7.3h-2v-7.3H54z"/>
	<path class="st1" d="M68.1,350.3c-0.1-0.2-0.3-0.4-0.4-0.5c-0.2-0.1-0.4-0.3-0.6-0.3c-0.2-0.1-0.5-0.1-0.7-0.1
		c-0.4,0-0.8,0.1-1.1,0.3c-0.3,0.2-0.6,0.4-0.8,0.7c-0.2,0.3-0.3,0.6-0.4,1c-0.1,0.4-0.1,0.8-0.1,1.1c0,0.4,0,0.7,0.1,1.1
		c0.1,0.4,0.2,0.7,0.4,1c0.2,0.3,0.4,0.5,0.8,0.7c0.3,0.2,0.7,0.3,1.1,0.3c0.6,0,1.1-0.2,1.4-0.6c0.3-0.4,0.5-0.9,0.6-1.5h1.9
		c-0.1,0.6-0.2,1.1-0.4,1.5c-0.2,0.5-0.5,0.8-0.8,1.2c-0.3,0.3-0.7,0.6-1.2,0.7s-1,0.3-1.5,0.3c-0.7,0-1.3-0.1-1.9-0.4
		c-0.6-0.2-1-0.6-1.4-1c-0.4-0.4-0.7-0.9-0.9-1.5s-0.3-1.2-0.3-1.8c0-0.7,0.1-1.3,0.3-1.9c0.2-0.6,0.5-1.1,0.9-1.5
		c0.4-0.4,0.8-0.8,1.4-1c0.6-0.2,1.2-0.4,1.9-0.4c0.5,0,1,0.1,1.4,0.2c0.4,0.1,0.8,0.4,1.2,0.6c0.3,0.3,0.6,0.6,0.9,1
		c0.2,0.4,0.4,0.9,0.4,1.4h-1.9C68.3,350.7,68.2,350.5,68.1,350.3z"/>
	<path class="st1" d="M73.7,347.9v3.5h3.6v-3.5h2v9h-2V353h-3.6v3.9h-2v-9H73.7z"/>
	<path class="st1" d="M90,356.9l-2.9-9h2l2,6.3h0l2-6.3h2l-3,9H90z"/>
	<path class="st1" d="M98,347.9v9h-2v-9H98z"/>
	<path class="st1" d="M103.6,347.9c0.6,0,1.1,0.1,1.6,0.3c0.5,0.2,0.9,0.5,1.3,0.8c0.4,0.4,0.7,0.8,0.9,1.4c0.2,0.6,0.3,1.2,0.3,2
		c0,0.7-0.1,1.3-0.3,1.8c-0.2,0.6-0.4,1-0.8,1.4c-0.3,0.4-0.8,0.7-1.3,1s-1.1,0.3-1.8,0.3h-3.9v-9H103.6z M103.5,355.2
		c0.3,0,0.6,0,0.8-0.1c0.3-0.1,0.5-0.2,0.7-0.5c0.2-0.2,0.4-0.5,0.5-0.8s0.2-0.8,0.2-1.3c0-0.5,0-0.9-0.1-1.2
		c-0.1-0.4-0.2-0.7-0.4-0.9c-0.2-0.3-0.5-0.5-0.8-0.6s-0.7-0.2-1.2-0.2h-1.4v5.7H103.5z"/>
	<path class="st1" d="M115.8,347.9v1.7H111v1.9h4.4v1.5H111v2.2h4.9v1.7H109v-9H115.8z"/>
	<path class="st1" d="M117.1,350.6c0.2-0.6,0.5-1.1,0.9-1.5s0.8-0.8,1.4-1c0.6-0.2,1.2-0.4,1.9-0.4c0.7,0,1.3,0.1,1.9,0.4
		c0.5,0.2,1,0.6,1.4,1s0.7,0.9,0.9,1.5c0.2,0.6,0.3,1.2,0.3,1.9c0,0.7-0.1,1.3-0.3,1.8c-0.2,0.6-0.5,1.1-0.9,1.5
		c-0.4,0.4-0.8,0.8-1.4,1c-0.5,0.2-1.2,0.4-1.9,0.4c-0.7,0-1.3-0.1-1.9-0.4c-0.6-0.2-1-0.6-1.4-1c-0.4-0.4-0.7-0.9-0.9-1.5
		c-0.2-0.6-0.3-1.2-0.3-1.8C116.8,351.8,116.9,351.1,117.1,350.6z M118.9,353.5c0.1,0.4,0.2,0.7,0.4,1c0.2,0.3,0.4,0.5,0.8,0.7
		c0.3,0.2,0.7,0.3,1.1,0.3s0.8-0.1,1.1-0.3c0.3-0.2,0.6-0.4,0.8-0.7c0.2-0.3,0.3-0.6,0.4-1c0.1-0.4,0.1-0.7,0.1-1.1
		c0-0.4,0-0.8-0.1-1.1c-0.1-0.4-0.2-0.7-0.4-1s-0.4-0.5-0.8-0.7c-0.3-0.2-0.7-0.3-1.1-0.3s-0.8,0.1-1.1,0.3
		c-0.3,0.2-0.6,0.4-0.8,0.7s-0.3,0.6-0.4,1c-0.1,0.4-0.1,0.8-0.1,1.1C118.8,352.8,118.8,353.2,118.9,353.5z"/>
</g>
</svg>
