<?xml version="1.0" encoding="utf-8"?>
<!-- Generator: Adobe Illustrator 25.4.1, SVG Export Plug-In . SVG Version: 6.00 Build 0)  -->
<svg version="1.1" id="Layer_1" xmlns="http://www.w3.org/2000/svg" xmlns:xlink="http://www.w3.org/1999/xlink" x="0px" y="0px"
	 viewBox="0 0 160 600" style="enable-background:new 0 0 160 600;" xml:space="preserve">
<style type="text/css">
	.st0{clip-path:url(#SVGID_00000023254649269981879460000013856512085562747833_);fill:#231F20;}
	.st1{clip-path:url(#SVGID_00000023254649269981879460000013856512085562747833_);fill:#22B0E6;}
</style>
<g>
	<defs>
		<rect id="SVGID_1_" x="52.5" y="406" width="55.9" height="19"/>
	</defs>
	<clipPath id="SVGID_00000038374574560349151040000017847127554640237198_">
		<use xlink:href="#SVGID_1_"  style="overflow:visible;"/>
	</clipPath>
	<path style="clip-path:url(#SVGID_00000038374574560349151040000017847127554640237198_);fill:#231F20;" d="M52.9,416.2h3
		c2.4,0,2.8,1.5,2.8,2.6c0,1-0.5,2.6-2.8,2.6h-1.5v3.2h-1.5V416.2z M54.3,420.2h1.5c0.7,0,1.5-0.3,1.5-1.4c0-1.1-0.7-1.4-1.4-1.4
		h-1.5V420.2z"/>
	<path style="clip-path:url(#SVGID_00000038374574560349151040000017847127554640237198_);fill:#231F20;" d="M59.6,418.5h1.2v1.2h0
		c0.2-0.6,0.9-1.3,1.8-1.3c0.3,0,0.4,0,0.5,0v1.3c-0.2,0-0.4-0.1-0.6-0.1c-0.9,0-1.6,0.7-1.6,2.1v2.9h-1.3V418.5z"/>
	<path style="clip-path:url(#SVGID_00000038374574560349151040000017847127554640237198_);fill:#231F20;" d="M63.3,421.5
		c0-1.8,1.1-3.2,3-3.2s3,1.3,3,3.2c0,1.9-1.1,3.2-3,3.2S63.3,423.4,63.3,421.5 M68,421.5c0-1-0.5-2.1-1.7-2.1s-1.7,1.1-1.7,2.1
		c0,1.1,0.5,2.1,1.7,2.1S68,422.6,68,421.5"/>
	<path style="clip-path:url(#SVGID_00000038374574560349151040000017847127554640237198_);fill:#231F20;" d="M69.6,418.5h1.1v-1.8
		h1.3v1.8h1.2v1h-1.2v3.2c0,0.5,0,0.8,0.6,0.8c0.2,0,0.4,0,0.6,0v1c-0.3,0-0.6,0.1-0.9,0.1c-1.4,0-1.6-0.5-1.7-1.5v-3.6h-1V418.5z"
		/>
	<path style="clip-path:url(#SVGID_00000038374574560349151040000017847127554640237198_);fill:#231F20;" d="M75,421.9
		c0,0.9,0.5,1.8,1.6,1.8c0.8,0,1.2-0.3,1.5-1h1.3c-0.3,1.3-1.4,2.1-2.7,2.1c-1.9,0-3-1.3-3-3.2c0-1.7,1.1-3.2,2.9-3.2
		c1.9,0,3.1,1.7,2.8,3.5H75z M78.1,421c0-0.8-0.6-1.6-1.5-1.6c-0.9,0-1.6,0.7-1.6,1.6H78.1z"/>
	<path style="clip-path:url(#SVGID_00000038374574560349151040000017847127554640237198_);fill:#231F20;" d="M84.5,420.5
		c-0.1-0.7-0.6-1.1-1.4-1.1c-0.7,0-1.7,0.4-1.7,2.2c0,1,0.4,2.1,1.6,2.1c0.8,0,1.3-0.5,1.4-1.4h1.3c-0.2,1.6-1.2,2.4-2.8,2.4
		c-1.9,0-2.9-1.3-2.9-3.1c0-1.8,1-3.2,3-3.2c1.4,0,2.6,0.7,2.7,2.2H84.5z"/>
	<path style="clip-path:url(#SVGID_00000038374574560349151040000017847127554640237198_);fill:#231F20;" d="M86.2,418.5h1v-1.8h1.3
		v1.8h1.2v1h-1.2v3.2c0,0.5,0,0.8,0.6,0.8c0.2,0,0.4,0,0.6,0v1c-0.3,0-0.6,0.1-0.9,0.1c-1.4,0-1.6-0.5-1.7-1.5v-3.6h-1V418.5z"/>
	<path style="clip-path:url(#SVGID_00000038374574560349151040000017847127554640237198_);fill:#231F20;" d="M91.2,416.2h1.3v1.3
		h-1.3V416.2z M91.2,418.5h1.3v6h-1.3V418.5z"/>
	<polygon style="clip-path:url(#SVGID_00000038374574560349151040000017847127554640237198_);fill:#231F20;" points="93.5,418.5 
		95,418.5 96.8,423.1 96.8,423.1 98.7,418.5 100,418.5 97.5,424.5 96,424.5 	"/>
	<path style="clip-path:url(#SVGID_00000038374574560349151040000017847127554640237198_);fill:#231F20;" d="M101.7,421.9
		c0,0.9,0.5,1.8,1.6,1.8c0.8,0,1.2-0.3,1.5-1h1.3c-0.3,1.3-1.4,2.1-2.7,2.1c-1.9,0-3-1.3-3-3.2c0-1.7,1.1-3.2,2.9-3.2
		c1.9,0,3.1,1.7,2.8,3.5H101.7z M104.8,421c0-0.8-0.6-1.6-1.5-1.6c-0.9,0-1.6,0.7-1.6,1.6H104.8z"/>
	<path style="clip-path:url(#SVGID_00000038374574560349151040000017847127554640237198_);fill:#22B0E6;" d="M88.7,414.8
		c-0.9-3.3-3.5-5.9-6.8-6.8c-0.3-1-1.2-1.8-2.4-1.8s-2.1,0.7-2.4,1.8c-3.3,0.8-5.9,3.4-6.8,6.8l-0.1,0.4h2l0.1-0.2
		c0.8-2.4,2.7-4.3,5.1-5c0.4,0.7,1.2,1.2,2.1,1.2c0.9,0,1.7-0.5,2.1-1.2c2.4,0.7,4.3,2.5,5.1,5l0.1,0.2h2L88.7,414.8z"/>
	<path style="clip-path:url(#SVGID_00000038374574560349151040000017847127554640237198_);fill:#231F20;" d="M107.5,423.5
		c0.3,0,0.6,0.3,0.6,0.6c0,0.3-0.3,0.6-0.6,0.6c-0.3,0-0.6-0.3-0.6-0.6C106.9,423.8,107.2,423.5,107.5,423.5 M108,424.1
		c0-0.3-0.2-0.5-0.5-0.5c-0.3,0-0.5,0.2-0.5,0.5c0,0.3,0.2,0.5,0.5,0.5C107.8,424.6,108,424.4,108,424.1 M107.3,423.8h0.3
		c0.2,0,0.2,0.1,0.2,0.2c0,0.1-0.1,0.2-0.2,0.2l0.2,0.3h-0.1l-0.2-0.3h-0.1v0.3h-0.1V423.8z M107.5,424.1c0.1,0,0.2,0,0.2-0.1
		c0-0.1-0.1-0.1-0.1-0.1h-0.1v0.2H107.5z"/>
</g>
</svg>
