<svg id="Layer_1" xmlns="http://www.w3.org/2000/svg" viewBox="0 0 320 50"><style>.st0{fill:#393}</style><path class="st0" d="M16.2 33.5c0-.7.2-1.2.5-1.6.3-.4.7-.8 1.1-1 .4-.3.9-.4 1.5-.6.6-.1 1.1-.2 1.7-.2.5 0 1 0 1.6.1.5.1 1 .2 1.4.4s.8.5 1.1.9c.3.4.4.9.4 1.5v5.3c0 .5 0 .9.1 1.3s.1.7.3.9H23c-.1-.2-.1-.3-.1-.5s-.1-.3-.1-.5c-.4.5-1 .8-1.6 1s-1.2.3-1.8.3c-.5 0-.9-.1-1.4-.2-.4-.1-.8-.3-1.1-.6s-.6-.6-.7-.9c-.2-.4-.3-.8-.3-1.4 0-.6.1-1.1.3-1.4.2-.4.5-.7.8-.9s.7-.4 1.1-.5l1.2-.3c.4-.1.8-.1 1.2-.2.4 0 .8-.1 1.1-.2.3-.1.6-.2.7-.3s.3-.4.3-.7c0-.3 0-.5-.1-.7-.1-.2-.2-.3-.4-.4-.1 0-.3-.1-.5-.1h-.7c-.6 0-1 .1-1.3.4-.3.2-.5.6-.6 1.2h-2.8zm6.5 2c-.1.1-.3.2-.4.2s-.4.1-.6.1-.5.2-.7.2c-.2 0-.4.1-.7.1-.2 0-.4.1-.6.2-.2.1-.4.2-.5.3-.2.1-.3.3-.4.4-.1.2-.1.4-.1.6 0 .2 0 .5.1.6.1.2.2.3.4.4.2.1.3.2.6.2.2 0 .4.1.6.1.6 0 1-.1 1.3-.3.3-.2.5-.4.7-.7.1-.3.2-.5.3-.8v-1.6zM30.3 30.3v1.4h.1c.4-.6.8-1 1.4-1.3.6-.3 1.1-.4 1.7-.4.7 0 1.4.1 1.8.3.5.2.9.5 1.1.8.3.4.5.8.6 1.3s.2 1.1.2 1.7v6.3h-2.8v-5.7c0-.8-.1-1.5-.4-1.9-.3-.4-.7-.6-1.4-.6-.8 0-1.3.2-1.7.7s-.5 1.2-.5 2.2v5.3h-2.8V30.3h2.7zM46.5 39.2c-.3.6-.8.9-1.3 1.2-.5.2-1.1.4-1.8.4-.8 0-1.4-.1-2-.4s-1.1-.7-1.4-1.2c-.4-.5-.7-1.1-.8-1.7s-.3-1.3-.3-2 .1-1.3.3-2 .5-1.2.8-1.7c.4-.5.8-.9 1.4-1.2.6-.3 1.2-.4 2-.4.6 0 1.2.1 1.7.4.5.3 1 .6 1.3 1.1v-5.1h2.8v14h-2.7v-1.4zm-.1-5c-.1-.4-.2-.7-.4-1-.2-.3-.4-.5-.7-.7-.3-.2-.7-.3-1.1-.3-.5 0-.8.1-1.2.3s-.6.4-.8.7c-.2.3-.3.6-.4 1-.1.4-.1.8-.1 1.2 0 .4 0 .8.1 1.2.1.4.2.7.4 1.1.2.3.5.6.8.7.3.2.7.3 1.1.3.5 0 .8-.1 1.2-.3.3-.2.6-.4.7-.7s.3-.7.4-1.1c.1-.4.1-.8.1-1.2 0-.4 0-.8-.1-1.2zM61.6 32.2c-.4 0-.8.1-1.1.3-.3.2-.5.5-.7.8-.2.3-.3.7-.4 1.1s-.1.8-.1 1.2c0 .4 0 .7.1 1.1.1.4.2.7.4 1 .2.3.4.6.7.8.3.2.7.3 1.1.3.7 0 1.2-.2 1.5-.6.4-.4.6-.9.7-1.5h2.7c-.2 1.3-.7 2.4-1.6 3.1-.9.7-2 1.1-3.3 1.1-.8 0-1.5-.1-2.1-.4s-1.2-.6-1.6-1.1-.8-1-1-1.6-.4-1.3-.4-2.1.1-1.5.3-2.2c.2-.7.6-1.3 1-1.8s1-.9 1.6-1.2 1.4-.4 2.2-.4c.6 0 1.2.1 1.7.2.6.2 1.1.4 1.5.7.4.3.8.7 1.1 1.2.3.5.4 1 .5 1.7h-2.7c-.2-1.1-.9-1.7-2.1-1.7zM67.9 33.5c0-.7.2-1.2.5-1.6.3-.4.7-.8 1.1-1 .4-.3.9-.4 1.5-.6.6-.1 1.1-.2 1.7-.2.5 0 1 0 1.6.1.5.1 1 .2 1.4.4s.8.5 1.1.9c.3.4.4.9.4 1.5v5.3c0 .5 0 .9.1 1.3s.1.7.3.9h-2.8c-.1-.2-.1-.3-.1-.5s-.1-.3-.1-.5c-.4.5-1 .8-1.6 1s-1.2.3-1.8.3c-.5 0-.9-.1-1.4-.2-.4-.1-.8-.3-1.1-.6s-.6-.6-.7-.9c-.2-.4-.3-.8-.3-1.4 0-.6.1-1.1.3-1.4.2-.4.5-.7.8-.9s.7-.4 1.1-.5l1.2-.3c.4-.1.8-.1 1.2-.2.4 0 .8-.1 1.1-.2.3-.1.6-.2.7-.3s.3-.4.3-.7c0-.3 0-.5-.1-.7-.1-.2-.2-.3-.4-.4-.2-.1-.4-.2-.6-.2h-.7c-.6 0-1 .1-1.3.4-.3.2-.5.6-.6 1.2h-2.8zm6.5 2c-.1.1-.3.2-.4.2s-.4.1-.6.1-.5.2-.7.2c-.2 0-.4.1-.7.1-.2 0-.4.1-.6.2-.2.1-.4.2-.5.3-.2.1-.3.3-.4.4-.1.2-.1.4-.1.6 0 .2 0 .5.1.6.1.2.2.3.4.4.2.1.3.2.6.2.2 0 .4.1.6.1.6 0 1-.1 1.3-.3.3-.2.5-.4.7-.7.1-.3.2-.5.3-.8v-1.6zM82 30.3v1.9c.1-.3.3-.6.5-.9.2-.3.5-.5.8-.7.3-.2.6-.3.9-.4.3-.1.7-.2 1-.2.2 0 .4 0 .6.1v2.6c-.1 0-.3 0-.5-.1s-.4 0-.5 0c-.5 0-.9.1-1.3.3-.4.2-.6.4-.9.7s-.4.6-.5 1c-.1.4-.1.8-.1 1.3v4.6h-2.8V30.3H82zM89.6 30.3v1.9c.1-.3.3-.6.5-.9.2-.3.5-.5.8-.7.3-.2.6-.3.9-.4.3-.1.7-.2 1-.2.2 0 .4 0 .6.1v2.6c-.1 0-.3 0-.5-.1s-.4 0-.5 0c-.5 0-.9.1-1.3.3-.4.2-.6.4-.9.7s-.4.6-.5 1c-.1.4-.1.8-.1 1.3v4.6H87V30.3h2.6zM98.4 43.5c-.5.4-1.3.5-2.2.5h-.9c-.3 0-.6 0-.9-.1v-2.3c.3 0 .5.1.8.1h.8c.4 0 .6-.2.8-.4.2-.2.3-.5.3-.8 0-.2 0-.4-.1-.6l-3.6-9.5h3l2.3 7 2.2-7h2.9l-4.2 11.4c-.3.8-.7 1.4-1.2 1.7zM120.5 26.5v2.6h-6.8v3.2h5.9v2.4h-5.9v5.8h-3.1v-14h9.9zM125.3 26.5v11.4h6.8v2.6h-9.9v-14h3.1zM133.8 30.6c.3-.9.8-1.7 1.4-2.3.6-.7 1.3-1.2 2.2-1.6s1.8-.6 2.9-.6c1.1 0 2.1.2 2.9.6.9.4 1.6.9 2.2 1.6.6.7 1 1.5 1.4 2.3.3.9.5 1.9.5 2.9s-.2 2-.5 2.9c-.3.9-.8 1.7-1.4 2.3s-1.3 1.2-2.2 1.5c-.9.4-1.8.6-2.9.6-1.1 0-2-.2-2.9-.6-.9-.4-1.6-.9-2.2-1.5s-1-1.4-1.4-2.3c-.3-.9-.5-1.8-.5-2.9 0-1 .2-2 .5-2.9zm2.8 4.7c.1.6.4 1.1.7 1.5.3.4.7.8 1.2 1.1s1.1.4 1.8.4 1.3-.1 1.8-.4.9-.6 1.2-1.1c.3-.4.5-.9.7-1.5.1-.6.2-1.1.2-1.7 0-.6-.1-1.2-.2-1.8s-.4-1.1-.7-1.5c-.3-.5-.7-.8-1.2-1.1s-1.1-.4-1.8-.4-1.3.1-1.8.4-.9.6-1.2 1.1c-.3.5-.5 1-.7 1.5-.1.6-.2 1.2-.2 1.8 0 .5.1 1.1.2 1.7zM151.6 37c.2.3.4.6.7.8.3.2.6.4 1 .5s.8.1 1.2.1c.3 0 .6 0 .9-.1s.6-.1.9-.3.5-.3.7-.5.3-.5.3-.9-.1-.7-.4-.9-.6-.4-1-.6c-.4-.2-.8-.3-1.3-.4s-1-.2-1.5-.4c-.5-.1-1-.3-1.5-.5s-.9-.4-1.3-.7c-.4-.3-.7-.7-1-1.1-.2-.5-.4-1-.4-1.6 0-.7.2-1.3.5-1.9.3-.5.7-1 1.2-1.3s1.1-.6 1.7-.8c.6-.2 1.3-.3 1.9-.3.7 0 1.4.1 2.1.2.7.2 1.3.4 1.8.8s.9.8 1.2 1.4c.3.6.5 1.3.5 2.1h-3c0-.4-.1-.8-.3-1-.2-.3-.4-.5-.6-.6-.2-.2-.5-.3-.9-.3-.3-.1-.7-.1-1.1-.1-.2 0-.5 0-.7.1-.2.1-.5.1-.7.3-.2.1-.4.3-.5.5-.1.2-.2.4-.2.7 0 .3.1.5.2.7.1.2.3.3.6.5.3.1.7.3 1.3.4.5.1 1.3.3 2.1.6.3.1.6.1 1.1.3s.9.4 1.4.7c.5.3.9.7 1.2 1.2.3.5.5 1.2.5 1.9 0 .6-.1 1.2-.4 1.8-.2.6-.6 1-1.1 1.4-.5.4-1.1.7-1.8.9-.7.2-1.6.3-2.5.3-.8 0-1.5-.1-2.3-.3-.7-.2-1.4-.5-1.9-.9-.6-.4-1-.9-1.3-1.6-.3-.6-.5-1.4-.5-2.2h3c-.1.4 0 .8.2 1.1zM164.3 37c.2.3.4.6.7.8.3.2.6.4 1 .5.4.1.8.1 1.2.1.3 0 .6 0 .9-.1s.6-.1.9-.3.5-.3.7-.5.3-.5.3-.9-.1-.7-.4-.9c-.2-.2-.6-.4-1-.6s-.8-.3-1.3-.4-1-.2-1.5-.4c-.5-.1-1-.3-1.5-.5s-.9-.4-1.3-.7c-.4-.3-.7-.7-1-1.1-.2-.5-.4-1-.4-1.6 0-.7.2-1.3.5-1.9.3-.5.7-1 1.2-1.3.5-.4 1.1-.6 1.7-.8.6-.2 1.3-.3 1.9-.3.7 0 1.4.1 2.1.2.7.2 1.3.4 1.8.8s.9.8 1.2 1.4c.3.6.5 1.3.5 2.1h-3c0-.4-.1-.8-.3-1-.2-.3-.4-.5-.6-.6s-.5-.3-.9-.3-.7-.1-1.1-.1c-.2 0-.5 0-.7.1-.2.1-.5.1-.7.3-.2.1-.4.3-.5.5-.1.2-.2.4-.2.7 0 .3.1.5.2.7.1.2.3.3.6.5.3.1.7.3 1.3.4.5.1 1.3.3 2.1.6.3.1.6.1 1.1.3.5.1.9.4 1.4.7.5.3.9.7 1.2 1.2.3.5.5 1.2.5 1.9 0 .6-.1 1.2-.4 1.8-.2.6-.6 1-1.1 1.4-.5.4-1.1.7-1.8.9s-1.6.3-2.5.3c-.8 0-1.5-.1-2.3-.3-.7-.2-1.4-.5-1.9-.9-.6-.4-1-.9-1.3-1.6-.3-.6-.5-1.4-.5-2.2h3c0 .4.1.8.2 1.1z"/></svg>