<svg id="Layer_1" xmlns="http://www.w3.org/2000/svg" viewBox="0 0 320 50"><style>.st0{fill:#231f20}</style><path class="st0" d="M19.7 7.2V13l5.5-5.8h3.9l-5.5 5.5 6 8.5h-3.9L21.5 15l-1.8 1.8v4.5h-3.1v-14h3.1zM33.5 18.8c.4.4 1 .6 1.8.6.6 0 1-.1 1.5-.4.4-.3.7-.6.7-.9H40c-.4 1.2-1 2.1-1.8 2.6s-1.8.8-2.9.8c-.8 0-1.5-.1-2.2-.4-.6-.3-1.2-.6-1.6-1.1-.4-.5-.8-1-1-1.7-.3-.6-.5-1.3-.5-2.1s.1-1.5.4-2.1c.2-.7.6-1.2 1.1-1.7.5-.5 1-.9 1.6-1.1.6-.3 1.3-.4 2.1-.4.9 0 1.6.2 2.3.5.6.3 1.2.8 1.6 1.3.4.6.7 1.2.9 1.9.2.7.2 1.5.2 2.3h-7.3c0 .9.2 1.5.6 1.9zm3.2-5.3c-.3-.4-.8-.6-1.5-.6-.4 0-.8.1-1.1.2-.3.2-.5.3-.7.6-.2.3-.4.5-.4.7-.1.2-.1.5-.1.7h4.5c-.2-.7-.4-1.2-.7-1.6zM44.8 18.8c.4.4 1 .6 1.8.6.6 0 1-.1 1.5-.4.4-.3.7-.6.7-.9h2.5c-.4 1.2-1 2.1-1.8 2.6s-1.8.8-2.9.8c-.8 0-1.5-.1-2.2-.4-.6-.3-1.2-.6-1.6-1.1-.4-.5-.8-1-1-1.7-.2-.7-.4-1.4-.4-2.2 0-.8.1-1.5.4-2.1.2-.7.6-1.2 1.1-1.7.5-.5 1-.9 1.6-1.1.6-.3 1.3-.4 2.1-.4.9 0 1.6.2 2.3.5.6.3 1.2.8 1.6 1.3.4.6.7 1.2.9 1.9.2.7.2 1.5.2 2.3h-7.3c-.1 1 .1 1.6.5 2zm3.2-5.3c-.3-.4-.8-.6-1.5-.6-.4 0-.8.1-1.1.2-.3.2-.5.3-.7.6-.2.2-.3.5-.4.7-.1.2-.1.5-.1.7h4.5c-.2-.7-.4-1.2-.7-1.6zM55.8 11.1v1.3c.3-.6.8-1 1.3-1.2s1.1-.4 1.7-.4c.8 0 1.5.2 2.1.5.6.3 1.1.7 1.4 1.2.4.5.7 1.1.8 1.7.2.7.3 1.4.3 2.1 0 .7-.1 1.3-.3 2-.2.6-.5 1.2-.8 1.7s-.8.9-1.4 1.2c-.6.3-1.2.4-2 .4-.6 0-1.2-.1-1.7-.4-.5-.3-1-.6-1.3-1.1v4.8h-2.8V11.1h2.7zm3.6 8.1c.3-.2.6-.4.7-.7s.3-.6.4-1 .1-.8.1-1.2 0-.8-.1-1.2c-.1-.4-.2-.7-.4-1.1-.2-.3-.4-.6-.8-.7-.3-.2-.7-.3-1.1-.3-.5 0-.8.1-1.1.3-.3.2-.6.4-.7.7-.2.3-.3.6-.4 1-.1.4-.1.8-.1 1.2 0 .4 0 .8.1 1.2.1.4.2.7.4 1s.4.5.8.7c.3.2.7.3 1.1.3.4.1.8 0 1.1-.2zM79.9 11c-.2-.3-.4-.6-.7-.8-.3-.2-.6-.4-.9-.5-.3-.1-.7-.2-1.1-.2-.7 0-1.3.1-1.8.4-.5.3-.9.6-1.2 1.1-.3.5-.5 1-.7 1.5-.1.6-.2 1.2-.2 1.8 0 .6.1 1.2.2 1.7.1.6.4 1.1.7 1.5.3.4.7.8 1.2 1.1.5.3 1.1.4 1.8.4.9 0 1.7-.3 2.2-.9s.9-1.3 1-2.3h3c-.1.9-.3 1.7-.6 2.4s-.8 1.3-1.3 1.8-1.2.9-1.9 1.1c-.7.3-1.5.4-2.4.4-1.1 0-2-.2-2.9-.6s-1.6-.9-2.2-1.5-1-1.4-1.4-2.3c-.3-.9-.5-1.8-.5-2.9 0-1 .2-2 .5-2.9.3-.9.8-1.7 1.4-2.3s1.3-1.2 2.2-1.6c.9-.4 1.8-.6 2.9-.6.8 0 1.5.1 2.2.3.7.2 1.3.5 1.8 1 .5.4 1 1 1.3 1.6.4.6.6 1.4.7 2.2h-3c0-.3-.1-.6-.3-.9zM92.4 7.2l5.2 14h-3.2l-1.1-3.1h-5.2L87 21.2h-3l5.3-14h3.1zm.2 8.7l-1.8-5.2-1.8 5.2h3.6zM102 7.2v11.4h6.8v2.6h-9.9v-14h3.1zM114.9 7.2l3.3 9.7 3.1-9.7h4.3v14h-2.9v-9.9l-3.4 9.9h-2.4l-3.4-9.9v9.9h-2.9v-14h4.3z"/></svg>