<svg id="Layer_1" xmlns="http://www.w3.org/2000/svg" viewBox="0 0 320 50"><style>.st0{fill:#393}</style><path class="st0" d="M21.9 10.5c.8 0 1.4.1 1.9.3.5.2 1 .5 1.3.9.3.4.6.8.7 1.2.2.5.2 1 .2 1.5s-.1 1-.2 1.4c-.2.5-.4.9-.7 1.3-.3.4-.8.7-1.3.9-.5.2-1.2.3-1.9.3h-2.8v4.4h-2.7V10.5h5.5zm-.7 5.7c.3 0 .6 0 .9-.1.3 0 .5-.1.8-.3.2-.1.4-.3.5-.6.1-.2.2-.6.2-.9 0-.4-.1-.7-.2-.9-.1-.2-.3-.4-.5-.6-.2-.1-.5-.2-.8-.3-.3 0-.6-.1-.9-.1h-2.1v3.7h2.1zM29.9 13.8v1.6c.1-.3.3-.5.5-.8.2-.2.4-.4.7-.6.3-.2.5-.3.8-.4.3-.1.6-.1.9-.1.2 0 .3 0 .5.1v2.3c-.1 0-.3 0-.4-.1h-.5c-.4 0-.8.1-1.1.2-.3.1-.6.4-.7.6-.2.3-.3.6-.4.9-.2.4-.2.8-.2 1.2v4h-2.4v-8.8h2.3zM34.1 16.6c0-.6.2-1 .4-1.4.3-.4.6-.7 1-.9.4-.2.8-.4 1.3-.5.5-.1 1-.1 1.5-.1.4 0 .9 0 1.4.1s.9.2 1.2.4c.4.2.7.4.9.8.2.3.4.8.4 1.3v4.6c0 .4 0 .8.1 1.1 0 .4.1.6.2.8H40c0-.1-.1-.3-.1-.4s0-.3-.1-.4c-.4.4-.8.7-1.4.8s-1.1.2-1.6.2c-.4 0-.8-.1-1.2-.2s-.7-.3-1-.5c-.3-.2-.5-.5-.6-.8s-.2-.7-.2-1.2.1-.9.3-1.2.4-.6.7-.8c.3-.2.6-.3 1-.4.4-.1.7-.2 1.1-.2s.7-.1 1.1-.1.7-.1.9-.2c.3-.1.5-.2.6-.3.2-.1.2-.3.2-.6s0-.5-.1-.6c-.1-.2-.2-.3-.3-.4s-.3-.1-.5-.2h-.6c-.5 0-.9.1-1.1.3-.3.2-.4.5-.5 1h-2.5zm5.6 1.7c-.1.1-.2.2-.4.2s-.3.1-.5.1-.4.1-.6.1c-.2 0-.4.1-.6.1-.2 0-.4.1-.5.1s-.3.1-.5.2c-.1.1-.2.2-.3.4-.1.1-.1.3-.1.6 0 .2 0 .4.1.5.1.1.2.3.3.4.1.1.3.1.5.2.2 0 .4.1.6.1.5 0 .8-.1 1.1-.2.3-.2.5-.4.6-.6.1-.2.2-.4.2-.7v-1.5zM48.3 15.4c-.4 0-.7.1-1 .3s-.5.4-.6.7c-.2.3-.3.6-.4.9s-.1.7-.1 1c0 .3 0 .6.1 1l.3.9c.2.3.4.5.6.7.3.2.6.3 1 .3.6 0 1-.2 1.3-.5.3-.3.5-.8.6-1.3h2.3c-.2 1.2-.6 2.1-1.4 2.7s-1.7.9-2.9.9c-.7 0-1.3-.1-1.8-.3-.6-.2-1-.5-1.4-.9-.4-.4-.7-.9-.9-1.4-.2-.6-.3-1.2-.3-1.8 0-.7.1-1.3.3-1.9.2-.6.5-1.1.9-1.5s.9-.8 1.4-1c.6-.2 1.2-.4 1.9-.4.5 0 1 .1 1.5.2s.9.3 1.3.6.7.6.9 1c.2.4.4.9.4 1.5H50c-.1-1.2-.7-1.7-1.7-1.7zM58.7 13.8v1.6h-1.8v4.4c0 .4.1.7.2.8.1.1.4.2.8.2h.4c.1 0 .2 0 .4-.1v1.9c-.2 0-.4.1-.7.1h-.7c-.4 0-.7 0-1.1-.1l-.9-.3c-.3-.1-.5-.4-.6-.6-.1-.3-.2-.6-.2-1.1v-5.2H53v-1.6h1.5v-2.7h2.4v2.7h1.8zM59.9 12.5v-2h2.4v2h-2.4zm2.5 1.3v8.8H60v-8.8h2.4zM68.5 15.4c-.4 0-.7.1-1 .3s-.5.4-.6.7c-.2.3-.3.6-.4.9s-.1.7-.1 1c0 .3 0 .6.1 1l.3.9c.2.3.4.5.6.7.3.2.6.3 1 .3.6 0 1-.2 1.3-.5.3-.3.5-.8.6-1.3h2.3c-.2 1.2-.6 2.1-1.4 2.7s-1.7.9-2.9.9c-.7 0-1.3-.1-1.8-.3-.6-.2-1-.5-1.4-.9-.4-.4-.7-.9-.9-1.4-.1-.7-.2-1.4-.2-2 0-.7.1-1.3.3-1.9.2-.6.5-1.1.9-1.5s.9-.8 1.4-1c.6-.2 1.2-.4 1.9-.4.5 0 1 .1 1.5.2s.9.3 1.3.6.7.6.9 1c.2.4.4.9.4 1.5h-2.4c-.1-1-.7-1.5-1.7-1.5zM74 16.6c0-.6.2-1 .4-1.4.3-.4.6-.7 1-.9.4-.2.8-.4 1.3-.5.5-.1 1-.1 1.5-.1.4 0 .9 0 1.4.1s.9.2 1.2.4c.4.2.7.4.9.8.2.3.4.8.4 1.3v4.6c0 .4 0 .8.1 1.1 0 .4.1.6.2.8h-2.5c0-.1-.1-.3-.1-.4s0-.3-.1-.4c-.4.4-.8.7-1.4.8s-1.1.2-1.6.2c-.4 0-.8-.1-1.2-.2s-.7-.3-1-.5c-.3-.2-.5-.5-.6-.8s-.2-.7-.2-1.2.1-.9.3-1.2.4-.6.7-.8c.3-.2.6-.3 1-.4.4-.1.7-.2 1.1-.2s.7-.1 1.1-.1.7-.1.9-.2c.3-.1.5-.2.6-.3.2-.1.2-.3.2-.6s0-.5-.1-.6c-.1-.2-.2-.3-.3-.4s-.3-.1-.5-.2h-.6c-.5 0-.9.1-1.1.3-.3.2-.4.5-.5 1H74zm5.6 1.7c-.1.1-.2.2-.4.2s-.3.1-.5.1-.4.1-.6.1c-.2 0-.4.1-.6.1-.2 0-.4.1-.5.1s-.3.1-.5.2c-.1.1-.2.2-.3.4-.1.1-.1.3-.1.6 0 .2 0 .4.1.5.1.1.2.3.3.4.1.1.3.1.5.2.2 0 .4.1.6.1.5 0 .8-.1 1.1-.2.3-.2.5-.4.6-.6.1-.2.2-.4.2-.7v-1.5zM86.4 10.5v12.2H84V10.5h2.4zM102.3 22.7l-2.1-8.3-2 8.3h-2.7l-3.2-12.2H95l1.9 8.3 2.1-8.3h2.5l2.1 8.4 2-8.4h2.6L105 22.7h-2.7zM109.3 12.5v-2h2.4v2h-2.4zm2.4 1.3v8.8h-2.4v-8.8h2.4zM115.7 20.5c.1.2.2.3.4.5l.6.3c.2.1.5.1.7.1.2 0 .4 0 .5-.1.2 0 .4-.1.5-.2.2-.1.3-.2.4-.3s.2-.3.2-.5c0-.4-.2-.6-.7-.8-.5-.2-1.2-.4-2-.5-.4-.1-.7-.2-1-.3-.3-.1-.6-.3-.9-.4-.3-.2-.5-.4-.6-.7-.2-.3-.2-.6-.2-1 0-.6.1-1 .3-1.4.2-.4.5-.7.9-.9.4-.2.8-.4 1.2-.4.5-.1.9-.1 1.4-.1s.9 0 1.4.1c.5.1.9.2 1.2.5.4.2.6.5.9.9.2.4.4.8.4 1.4H119c0-.5-.2-.8-.5-.9-.3-.2-.7-.2-1.1-.2h-.4c-.1 0-.3.1-.4.1-.1.1-.2.1-.3.2-.1.1-.1.3-.1.4 0 .2.1.4.2.5s.4.2.6.3c.3.1.5.2.9.2.3.1.7.1 1 .2.4.1.7.2 1 .3.3.1.6.3.9.5.3.2.5.4.6.7s.2.6.2 1c0 .6-.1 1.1-.4 1.5s-.5.7-.9.9c-.4.2-.8.4-1.3.5-.5.1-1 .1-1.5.1s-1-.1-1.5-.2-.9-.3-1.3-.5-.7-.6-.9-.9-.4-.9-.4-1.5h2.3c-.2.2-.1.4 0 .6zM129.1 21.5c-.3.5-.7.8-1.1 1s-1 .3-1.6.3c-.7 0-1.2-.1-1.7-.4-.5-.3-.9-.6-1.2-1-.3-.4-.6-.9-.7-1.5-.2-.6-.2-1.2-.2-1.8 0-.6.1-1.2.2-1.7.2-.6.4-1 .7-1.5.3-.4.7-.8 1.2-1 .5-.3 1.1-.4 1.7-.4.5 0 1 .1 1.5.3s.8.6 1.1 1v-4.4h2.4v12.2h-2.3v-1.1zm-.1-4.3c-.1-.3-.2-.6-.4-.9-.2-.3-.4-.5-.6-.6-.3-.2-.6-.2-1-.2s-.7.1-1 .2c-.3.2-.5.4-.7.6-.2.3-.3.6-.4.9s-.1.7-.1 1.1c0 .3 0 .7.1 1 .1.3.2.6.4.9.2.3.4.5.7.6.3.2.6.2 1 .2s.7-.1 1-.2.5-.4.6-.6c.2-.3.3-.6.3-.9.1-.3.1-.7.1-1.1.1-.3.1-.7 0-1zM133.3 16.3c.2-.6.5-1.1.9-1.5.4-.4.9-.7 1.4-.9.6-.2 1.2-.3 1.9-.3s1.3.1 1.9.3 1 .5 1.4.9c.4.4.7.9.9 1.5.2.6.3 1.2.3 1.9s-.1 1.3-.3 1.9c-.2.6-.5 1.1-.9 1.5-.4.4-.9.7-1.4.9-.6.2-1.2.3-1.9.3s-1.3-.1-1.9-.3c-.6-.2-1-.5-1.4-.9-.4-.4-.7-.9-.9-1.5-.2-.6-.3-1.2-.3-1.9s.1-1.3.3-1.9zm2.2 3c.1.3.2.6.4.9.2.3.4.5.7.6.3.2.6.2 1 .2s.8-.1 1-.2c.3-.2.5-.4.7-.6.2-.3.3-.6.4-.9s.1-.7.1-1c0-.4 0-.7-.1-1-.1-.3-.2-.6-.4-.9-.2-.3-.4-.5-.7-.6-.3-.2-.6-.2-1-.2s-.8.1-1 .2c-.3.2-.5.4-.7.6-.2.3-.3.6-.4.9-.1.3-.1.7-.1 1 0 .3.1.7.1 1zM146.1 13.8V15c.3-.5.7-.8 1.2-1.1.5-.3 1-.4 1.5-.4.6 0 1.1.1 1.5.3.5.2.8.6 1.1 1.1.3-.4.6-.7 1.1-1 .4-.3 1-.4 1.6-.4.5 0 .9.1 1.3.2s.7.3 1 .5c.3.3.5.6.7 1 .2.4.2.9.2 1.5v5.9h-2.4v-5-.8c0-.3-.1-.5-.2-.7-.1-.2-.3-.3-.5-.5-.2-.1-.5-.2-.8-.2s-.6.1-.8.2c-.2.1-.4.3-.5.5-.1.2-.2.5-.2.7 0 .3-.1.5-.1.8v4.9h-2.4v-5-.8c0-.3-.1-.5-.1-.7s-.2-.4-.4-.5c-.2-.1-.5-.2-.9-.2-.1 0-.3 0-.5.1s-.4.1-.5.3c-.2.1-.3.3-.5.6s-.2.6-.2 1.1v5.1h-2.4v-8.8h2.2z"/><g><path class="st0" d="M15.2 32.6V31h1.5v-.7c0-.8.2-1.4.7-1.9.5-.5 1.2-.8 2.2-.8h1.2v1.8c-.3 0-.6-.1-.9-.1-.3 0-.6.1-.7.2-.1.2-.2.4-.2.8v.5h1.7v1.6H19v7.2h-2.4v-7.2h-1.4zM21.9 33.4c.2-.6.5-1.1.9-1.5.4-.4.9-.7 1.4-.9.6-.2 1.2-.3 1.9-.3s1.3.1 1.9.3 1 .5 1.4.9c.4.4.7.9.9 1.5.2.6.3 1.2.3 1.9s-.1 1.3-.3 1.9c-.2.6-.5 1.1-.9 1.5-.4.4-.9.7-1.4.9s-1.2.4-1.9.4-1.3-.1-1.9-.3c-.6-.2-1-.5-1.4-.9-.4-.4-.7-.9-.9-1.5-.2-.6-.3-1.2-.3-1.9s.1-1.4.3-2zm2.2 3c.1.3.2.6.4.9.2.3.4.5.7.6.3.2.6.2 1 .2s.8-.1 1-.2c.3-.2.5-.4.7-.6.2-.3.3-.6.4-.9.1-.3.1-.7.1-1s0-.7-.1-1c-.1-.3-.2-.6-.4-.9-.2-.3-.4-.5-.7-.6-.3-.2-.6-.2-1-.2s-.8.1-1 .2c-.3.2-.5.4-.7.6-.2.3-.3.6-.4.9-.1.3-.1.6-.1 1s0 .7.1 1zM34.6 30.9v1.6c.1-.3.3-.5.5-.8.2-.2.4-.4.7-.6.3-.2.5-.3.8-.4.3-.1.6-.1.9-.1.2 0 .3 0 .5.1V33c-.1 0-.3 0-.4-.1h-.5c-.4 0-.8.1-1.1.2-.3.1-.6.4-.7.6-.2.3-.3.6-.4.9-.1.3-.1.7-.1 1.1v4h-2.4v-8.8h2.2zM49.2 27.6c.8 0 1.5.1 2.2.4.7.3 1.3.6 1.8 1.1.5.5.9 1.1 1.2 1.9.3.8.4 1.6.4 2.7 0 .9-.1 1.7-.3 2.5-.2.8-.6 1.4-1 2-.5.5-1 1-1.7 1.3-.7.3-1.5.5-2.4.5H44V27.6h5.2zm-.2 9.9c.4 0 .8-.1 1.1-.2.4-.1.7-.3 1-.6.3-.3.5-.7.7-1.1.2-.5.3-1 .3-1.7 0-.6-.1-1.2-.2-1.7s-.3-.9-.6-1.3-.6-.6-1.1-.8c-.5-.2-1-.3-1.7-.3h-1.9v7.7H49zM59 37.7c.4.4.9.5 1.6.5.5 0 .9-.1 1.3-.4s.6-.5.6-.8h2.1c-.3 1.1-.9 1.8-1.6 2.3s-1.5.7-2.5.7c-.7 0-1.3-.1-1.9-.3-.6-.2-1-.5-1.4-.9s-.7-.9-.9-1.5-.3-1.2-.3-1.9.1-1.3.3-1.8c.2-.6.5-1.1.9-1.5.4-.4.9-.7 1.4-1 .6-.2 1.2-.4 1.8-.4.8 0 1.4.1 2 .4s1 .7 1.4 1.2c.4.5.6 1 .8 1.7.2.6.2 1.3.2 2h-6.4c0 .7.2 1.3.6 1.7zm2.7-4.7c-.3-.3-.7-.5-1.3-.5-.4 0-.7.1-1 .2-.3.1-.5.3-.6.5-.2.2-.3.4-.3.6-.1.2-.1.4-.1.6h4c-.2-.6-.4-1.1-.7-1.4zM68.5 30.9v1.2h.1c.3-.5.7-.9 1.2-1.1.5-.2 1-.4 1.5-.4.6 0 1.2.1 1.6.3.4.2.7.4 1 .7.2.3.4.7.5 1.1.1.5.1.9.1 1.5v5.4h-2.4v-5c0-.7-.1-1.3-.3-1.6s-.6-.5-1.2-.5c-.7 0-1.1.2-1.4.6-.3.4-.4 1-.4 1.9v4.6h-2.4v-8.8h2.1zM81.2 30.9v1.6h-1.8v4.4c0 .4.1.7.2.8.1.1.4.2.8.2h.4c.1 0 .2 0 .4-.1v1.9c-.2 0-.4.1-.7.1h-.7c-.4 0-.7 0-1.1-.1l-.9-.3c-.3-.1-.5-.4-.6-.6-.1-.3-.2-.6-.2-1.1v-5.2h-1.5v-1.6H77v-2.7h2.4v2.7h1.8zM82.4 29.6v-2h2.4v2h-2.4zm2.5 1.3v8.8h-2.4v-8.8h2.4zM88.8 37.6c.1.2.2.3.4.5l.6.3c.2.1.5.1.7.1.2 0 .4 0 .5-.1.2 0 .4-.1.5-.2.2-.1.3-.2.4-.3s.2-.3.2-.5c0-.4-.2-.6-.7-.8-.5-.2-1.2-.4-2-.5-.4-.1-.7-.2-1-.3-.3-.1-.6-.3-.9-.4-.3-.2-.5-.4-.6-.7-.2-.3-.2-.6-.2-1 0-.6.1-1 .3-1.4.2-.4.5-.7.9-.9.4-.2.8-.4 1.2-.4.5-.1.9-.1 1.4-.1s.9 0 1.4.1c.5.1.9.2 1.2.5.4.2.6.5.9.9.2.4.4.8.4 1.4H92c0-.5-.2-.8-.5-.9-.3-.2-.7-.2-1.1-.2H90c-.2 0-.3.1-.4.1-.1.1-.2.1-.3.2-.3-.2-.3 0-.3.1 0 .2.1.4.2.5s.4.2.6.3c.3.1.5.2.9.2.3.1.7.1 1 .2.4.1.7.2 1 .3.3.1.6.3.9.5.3.2.5.4.6.7s.2.6.2 1c0 .6-.1 1.1-.4 1.5s-.5.7-.9.9-.8.4-1.3.5-.8.3-1.3.3-1-.1-1.5-.2-.9-.3-1.3-.5-.7-.6-.9-.9c-.2-.4-.4-.9-.4-1.5h2.3c0 .3 0 .5.1.7zM100.8 30.9v1.6H99v4.4c0 .4.1.7.2.8.1.1.4.2.8.2h.4c.1 0 .2 0 .4-.1v1.9c-.2 0-.4.1-.7.1h-.7c-.4 0-.7 0-1.1-.1l-.9-.3c-.3-.1-.5-.4-.6-.6-.1-.3-.2-.6-.2-1.1v-5.2h-1.5v-1.6h1.5v-2.7H99v2.7h1.8zM104 37.6c.1.2.2.3.4.5l.6.3c.2.1.5.1.7.1.2 0 .4 0 .5-.1.2 0 .4-.1.5-.2.2-.1.3-.2.4-.3s.2-.3.2-.5c0-.4-.2-.6-.7-.8-.5-.2-1.2-.4-2-.5-.4-.1-.7-.2-1-.3-.3-.1-.6-.3-.9-.4-.3-.2-.5-.4-.6-.7-.2-.3-.2-.6-.2-1 0-.6.1-1 .3-1.4.2-.4.5-.7.9-.9.4-.2.8-.4 1.2-.4.5-.1.9-.1 1.4-.1s.9 0 1.4.1c.5.1.9.2 1.2.5.4.2.6.5.9.9.2.4.4.8.4 1.4h-2.3c0-.5-.2-.8-.5-.9-.3-.2-.7-.2-1.1-.2h-.4c-.2 0-.3.1-.4.1-.1.1-.2.1-.3.2-.1.1-.1.3-.1.4 0 .2.1.4.2.5s.4.2.6.3c.3.1.5.2.9.2.3.1.7.1 1 .2.4.1.7.2 1 .3.3.1.6.3.9.5.3.2.5.4.6.7s.2.6.2 1c0 .6-.1 1.1-.4 1.5s-.5.7-.9.9-.8.4-1.3.5-1 .1-1.5.1-1-.1-1.5-.2-.9-.3-1.3-.5-.7-.6-.9-.9c-.2-.4-.4-.9-.4-1.5h2.3c-.1.2-.1.4 0 .6z"/></g></svg>