<svg id="Layer_1" xmlns="http://www.w3.org/2000/svg" xmlns:xlink="http://www.w3.org/1999/xlink" viewBox="0 0 320 50"><style>.st0{clip-path:url(#SVGID_00000036931298117763202920000017666234423375060610_);fill:#349946}.st1{fill:#fff}</style><defs><path id="SVGID_1_" d="M216 6.3h68.6v14.5H216z"/></defs><clipPath id="SVGID_00000168795531047722811270000015809230079888352687_"><use xlink:href="#SVGID_1_" overflow="visible"/></clipPath><path d="M284.6 13.5c0 4-3.7 7.2-8.3 7.2h-52c-4.6 0-8.3-3.3-8.3-7.2s3.7-7.2 8.3-7.2h52c4.6 0 8.3 3.2 8.3 7.2" clip-path="url(#SVGID_00000168795531047722811270000015809230079888352687_)" fill="#349946"/><g><path class="st1" d="M230.7 15.9l-.8-3.1-.8 3.1h-1l-1.2-4.6h1l.7 3.1.8-3.1h1l.8 3.2.8-3.2h1l-1.2 4.6h-1.1zM235.6 11.3l1.7 4.6h-1.1l-.3-1h-1.7l-.4 1h-1l1.7-4.6h1.1zm0 2.9l-.6-1.7-.6 1.7h1.2z"/></g><g><path class="st1" d="M236.7 12.2v-.9h3.8v.9h-1.4V16h-1v-3.8h-1.4zM244 12.6c-.1-.1-.1-.2-.2-.3-.1-.1-.2-.1-.3-.2s-.2-.1-.4-.1-.4 0-.6.1c-.2.1-.3.2-.4.4-.1.1-.2.3-.2.5s-.1.4-.1.6c0 .2 0 .4.1.6 0 .2.1.3.2.5.1.1.2.3.4.4s.4.1.6.1c.3 0 .6-.1.7-.3.2-.2.3-.4.3-.8h1c0 .3-.1.5-.2.8-.1.2-.2.4-.4.6-.2.2-.4.3-.6.4s-.5.1-.8.1c-.4 0-.7-.1-1-.2-.3-.1-.5-.3-.7-.5-.2-.2-.3-.5-.4-.8-.1-.3-.2-.6-.2-.9 0-.3.1-.7.2-1 .1-.3.3-.6.4-.8.2-.2.4-.4.7-.5.3-.1.6-.2 1-.2.3 0 .5 0 .7.1l.6.3c.2.1.3.3.4.5.1.2.2.4.2.7h-1c.1.1.1 0 0-.1zM246.9 11.3v1.8h1.9v-1.8h1v4.6h-1v-2h-1.9v2h-1v-4.6h1zM255.2 15.9l-1.5-4.6h1l1 3.2 1-3.2h1l-1.5 4.6h-1zM259.3 11.3v4.6h-1v-4.6h1zM262.2 11.3c.3 0 .6 0 .8.1s.5.2.7.4c.2.2.3.4.4.7.1.3.2.6.2 1 0 .3 0 .6-.1.9-.1.3-.2.5-.4.7-.2.2-.4.4-.7.5s-.6.2-.9.2h-2v-4.6h2zm-.1 3.8c.1 0 .3 0 .4-.1.1 0 .3-.1.4-.2s.2-.3.3-.4c.1-.2.1-.4.1-.6 0-.2 0-.4-.1-.6 0-.2-.1-.3-.2-.5-.1-.1-.2-.2-.4-.3-.2-.1-.4-.1-.6-.1h-.7v2.9h.8zM268.5 11.3v.9H266v1h2.2v.8H266v1.1h2.5v.9H265v-4.6h3.5zM269.1 12.7c.1-.3.3-.6.4-.8.2-.2.4-.4.7-.5.3-.1.6-.2 1-.2s.7.1 1 .2c.3.1.5.3.7.5.2.2.3.5.4.8.1.3.2.6.2 1 0 .3-.1.6-.2.9-.1.3-.3.5-.4.8-.2.2-.4.4-.7.5-.3.1-.6.2-1 .2s-.7-.1-1-.2c-.3-.1-.5-.3-.7-.5-.2-.2-.3-.5-.4-.8-.1-.3-.2-.6-.2-.9.1-.4.1-.7.2-1zm1 1.5c0 .2.1.3.2.5.1.1.2.3.4.4s.4.1.6.1.4 0 .6-.1c.2-.1.3-.2.4-.4.1-.1.2-.3.2-.5s.1-.4.1-.6c0-.2 0-.4-.1-.6 0-.2-.1-.4-.2-.5-.1-.1-.2-.3-.4-.4-.2-.1-.4-.1-.6-.1s-.4 0-.6.1c-.2.1-.3.2-.4.4-.1.1-.2.3-.2.5s-.1.4-.1.6c0 .3 0 .4.1.6z"/></g></svg>