<svg id="Layer_1" xmlns="http://www.w3.org/2000/svg" viewBox="0 0 320 50"><style>.st0{fill:#349946}.st1{fill:#231f20}</style><path class="st0" d="M199.2 45.3h-1.3l-.4-1.2H195l-.4 1.2h-1.3l2.2-5.9h.9c.3 0 .5.1.6.3.1.2 1.1 2.9 1.1 2.9h-1.2l-.7-2-.9 2.5h2.6c.3 0 .5.1.6.4l.7 1.8zM210.4 45.3h-1.3l-.4-1.2h-2.5l-.4 1.2h-1.3l2.2-5.9h.9c.3 0 .5.1.6.3.1.2 1.1 2.9 1.1 2.9h-1.2l-.7-2-.9 2.5h2.6c.3 0 .5.1.6.4l.7 1.8zM199.6 39.3h2.3c1.8 0 2.7 1 2.7 3 0 1.1-.3 1.9-1 2.4-.6.5-1.2.5-2.1.5h-2v-5.9zm2.1 4.9c1.1 0 1.6-.6 1.6-1.9 0-1.3-.5-1.9-1.5-1.9h-1.1v3.8h1z"/><path class="st1" d="M220.4 45.2h-.9l-.4-4.2-1.4 4.2h-.8l-1.5-4.2-.3 4.2h-.9l.5-5.6h1.1l1.5 4.3 1.5-4.3h1.1l.5 5.6zM225 43.1V43.4h-2.8c0 .3.1.5.3.8.2.3.5.4.9.4.3 0 .7-.1 1.1-.3l.3.6c-.4.3-.9.4-1.5.4s-1.1-.2-1.5-.6c-.3-.4-.5-.9-.5-1.5s.2-1.2.5-1.6c.4-.4.8-.6 1.4-.6.6 0 1 .2 1.3.6.4.3.5.8.5 1.5zm-.9-.4c0-.3-.1-.5-.2-.7-.2-.3-.4-.4-.7-.4-.3 0-.5.1-.7.3-.2.2-.3.4-.3.8h1.9zM231.7 45.2h-.9v-2.3c0-.5-.1-.8-.2-.9-.1-.1-.3-.2-.5-.2-.3 0-.6.1-.9.3 0 .1.1.4.1.9v2.2h-.9v-2.3c0-.5-.1-.9-.2-1-.1-.1-.3-.2-.5-.2-.3 0-.6.1-.9.3v3.1h-.9V41h.8v.3c.4-.3.8-.4 1.2-.4.4 0 .8.2 1 .5.5-.3.9-.5 1.4-.5.4 0 .8.1 1 .4.2.2.3.5.4.8 0 .2.1.5.1 1v2.1zM236.5 43.1c0 .7-.2 1.2-.6 1.6s-.9.6-1.6.6c-.5 0-1-.1-1.6-.3v-5.9h.9v2.2c.3-.2.7-.3 1.1-.3.5 0 .9.2 1.3.6.3.3.5.8.5 1.5zm-.9 0c0-.4-.1-.7-.3-1-.2-.2-.4-.3-.7-.3-.3 0-.6.1-.9.3v2.4c.2.1.5.1.7.1.4 0 .7-.1.9-.4.2-.3.3-.7.3-1.1zM240.9 43.1V43.4h-2.8c0 .3.1.5.3.8.2.3.5.4.9.4.3 0 .7-.1 1.1-.3l.3.6c-.4.3-.9.4-1.5.4s-1.1-.2-1.5-.6c-.3-.4-.5-.9-.5-1.5s.2-1.2.5-1.6c.4-.4.8-.6 1.4-.6.6 0 1 .2 1.3.6.4.3.5.8.5 1.5zm-.9-.4c0-.3-.1-.5-.2-.7-.2-.3-.4-.4-.7-.4-.3 0-.5.1-.7.3-.2.2-.3.4-.3.8h1.9zM244.4 41.1l-.2.7h-.3c-.5 0-.9.2-1.2.6v2.8h-.9v-4.1h.8v.5c.1-.1.2-.2.4-.3.3-.2.6-.3 1-.3.1 0 .3 0 .4.1z"/><g><path class="st1" d="M247.8 44c0 .4-.1.7-.4.9-.3.2-.7.3-1.1.3-.4 0-.7-.1-1.1-.2l-.4-.2.3-.6c.4.2.8.3 1.1.3.2 0 .4 0 .5-.1.1-.1.2-.2.2-.4 0-.1-.1-.3-.2-.4-.1-.1-.3-.2-.6-.3-.3-.1-.6-.3-.7-.4-.2-.2-.4-.5-.4-.8 0-.4.1-.7.4-.9.3-.2.6-.3 1.1-.3.6 0 1 .1 1.3.4l-.3.6c-.3-.2-.6-.3-1-.3s-.7.2-.7.5c0 .1.1.2.2.3.1.1.3.1.5.3.4.2.7.3.8.4.3.3.5.6.5.9zM251.8 45.2h-1v-5.6h1v5.6zM256.5 45.2h-.9V43c0-.5-.1-.9-.2-1-.1-.1-.3-.2-.5-.2-.3 0-.6.1-.9.3v3.1h-1v-4.1h.8v.3c.4-.3.8-.4 1.2-.4.4 0 .8.1 1 .4.2.2.3.4.4.7V45.2zM260.2 44c0 .4-.1.7-.4.9-.3.2-.7.3-1.1.3-.4 0-.7-.1-1.1-.2l-.4-.2.3-.6c.4.2.8.3 1.1.3.2 0 .4 0 .5-.1.1-.1.2-.2.2-.4 0-.1-.1-.3-.2-.4-.1-.1-.3-.2-.6-.3-.3-.1-.6-.3-.7-.4-.2-.2-.4-.5-.4-.8 0-.4.1-.7.4-.9.3-.2.6-.3 1.1-.3.6 0 1 .1 1.3.4l-.3.6c-.3-.2-.6-.3-1-.3s-.7.2-.7.5c0 .1.1.2.2.3.1.1.3.1.5.3.4.2.7.3.8.4.4.3.5.6.5.9zM264.6 45.2h-.8v-.3c-.4.3-.8.4-1.2.4-.4 0-.8-.1-1-.4-.2-.2-.3-.4-.4-.7 0-.2-.1-.4-.1-.8v-2.3h.9V43.9c0 .2.1.4.2.5.1.1.3.1.5.1s.5-.1.9-.3v-3.1h.9v4.1zM268.3 41.1l-.2.7h-.3c-.5 0-.9.2-1.2.6v2.8h-.9v-4.1h.8v.5c.1-.1.2-.2.4-.3.3-.2.6-.3 1-.3.1 0 .3 0 .4.1z"/></g><g><path class="st1" d="M271.9 45.2h-.8v-.3c-.4.3-.8.4-1.2.4-.4 0-.7-.1-1-.4s-.4-.6-.4-.9c0-1 .8-1.4 2.3-1.4h.2v-.2c0-.3 0-.4-.1-.5-.1-.1-.3-.2-.7-.2-.4 0-.7.1-1.1.3l-.3-.6c.1-.1.2-.2.4-.2.3-.1.7-.2 1.1-.2.6 0 1 .1 1.3.4.1.1.2.3.3.5v3.3zm-.9-.9v-1.1h-.2c-.6 0-1.1.1-1.3.3-.1.1-.2.2-.2.4s.1.4.2.5c.1.1.3.2.5.2.4 0 .7-.1 1-.3zM276.4 45.2h-.9V43c0-.5-.1-.9-.2-1-.1-.1-.3-.2-.5-.2-.3 0-.6.1-.9.3v3.1h-.9v-4.1h.8v.3c.4-.3.8-.4 1.2-.4.4 0 .8.1 1 .4.2.2.3.4.4.7V45.2zM280.8 44.8c-.1.1-.2.2-.4.3-.3.2-.7.2-1.1.2-.6 0-1.1-.2-1.5-.6-.4-.4-.6-.9-.6-1.5s.2-1.2.6-1.6c.4-.4.9-.6 1.5-.6.3 0 .7.1 1 .2.2.1.3.2.4.3l-.4.6c-.3-.2-.6-.3-.9-.3-.4 0-.7.1-.9.4-.2.3-.3.6-.3 1s.1.8.3 1 .5.4.9.4c.3 0 .7-.1 1-.3l.4.5z"/></g><g><path class="st1" d="M284.9 43.1V43.4h-2.8c0 .3.1.5.3.8.2.3.5.4.9.4.3 0 .7-.1 1.1-.3l.3.6c-.4.3-.9.4-1.5.4s-1.1-.2-1.5-.6c-.3-.4-.5-.9-.5-1.5s.2-1.2.5-1.6c.4-.4.8-.6 1.4-.6.6 0 1 .2 1.3.6.3.3.5.8.5 1.5zm-.9-.4c0-.3-.1-.5-.2-.7-.2-.3-.4-.4-.7-.4-.3 0-.5.1-.7.3-.2.2-.3.4-.3.8h1.9zM291.7 41.3c0 .5-.2.9-.5 1.3-.2.2-.5.4-.9.5-.2 0-.6.1-1 .1h-.4v2.1h-1v-5.6h1.5c.5 0 .8 0 1 .1.3.1.6.2.8.4.3.2.5.6.5 1.1zm-1 0c0-.3-.1-.5-.3-.7-.2-.2-.5-.2-1-.2h-.5v1.9h.4c.6 0 1-.1 1.2-.3s.2-.4.2-.7zM293.6 45.2h-.9v-6.1h.9v6.1zM297.8 45.2h-.8v-.3c-.4.3-.8.4-1.2.4-.4 0-.7-.1-1-.4s-.4-.6-.4-.9c0-1 .8-1.4 2.3-1.4h.2v-.2c0-.3 0-.4-.1-.5-.1-.1-.3-.2-.7-.2-.4 0-.7.1-1.1.3l-.3-.6c.1-.1.2-.2.4-.2.3-.1.7-.2 1.1-.2.6 0 1 .1 1.3.4.1.1.2.3.3.5v3.3zm-.9-.9v-1.1h-.2c-.6 0-1.1.1-1.3.3-.1.1-.2.2-.2.4s.1.4.2.5c.1.1.3.2.5.2.4 0 .7-.1 1-.3zM302.3 45.2h-.9V43c0-.5-.1-.9-.2-1-.1-.1-.3-.2-.5-.2-.3 0-.6.1-.9.3v3.1h-.9v-4.1h.8v.3c.4-.3.8-.4 1.2-.4.4 0 .8.1 1 .4.2.2.3.4.4.7V45.2zM306.1 44c0 .4-.1.7-.4.9-.3.2-.7.3-1.1.3-.4 0-.7-.1-1.1-.2l-.4-.2.3-.6c.4.2.8.3 1.1.3.2 0 .4 0 .5-.1.1-.1.2-.2.2-.4 0-.1-.1-.3-.2-.4-.1-.1-.3-.2-.6-.3-.3-.1-.6-.3-.7-.4-.2-.2-.4-.5-.4-.8 0-.4.1-.7.4-.9.3-.2.6-.3 1.1-.3.6 0 1 .1 1.3.4l-.3.6c-.3-.2-.6-.3-1-.3s-.7.2-.7.5c0 .1.1.2.2.3.1.1.3.1.5.3.4.2.7.3.8.4.3.3.5.6.5.9z"/></g><path class="st0" d="M211.2 45.3c-.4 0-.7-.3-.7-.7s.3-.7.7-.7c.4 0 .7.3.7.7s-.3.7-.7.7m0-1.2c-.3 0-.5.2-.5.5s.2.5.5.5.5-.2.5-.5-.2-.5-.5-.5m.2.8l-.1-.2c0-.1-.1-.1-.2-.1v.3h-.1v-.7h.2c.1 0 .2 0 .2.1 0 0 .1.1.1.2s0 .1-.1.2l.1.1.1.3h-.2zm-.1-.6h-.2v.2h.1c.1 0 .1 0 .1-.2 0 .1 0 .1 0 0"/></svg>