<svg id="Layer_1" xmlns="http://www.w3.org/2000/svg" xmlns:xlink="http://www.w3.org/1999/xlink" viewBox="0 0 320 50"><style>.st0,.st1{clip-path:url(#SVGID_00000145025435166766479790000015734445608653175720_);fill:#231f20}.st1{fill:#00b2ee}</style><defs><path id="SVGID_1_" d="M230.8 23.8h37.9v12.9h-37.9z"/></defs><clipPath id="SVGID_00000077325576846832601020000003966601143784662692_"><use xlink:href="#SVGID_1_" overflow="visible"/></clipPath><path d="M231.1 30.7h2c1.6 0 1.9 1 1.9 1.7s-.3 1.7-1.9 1.7h-1v2.2h-1v-5.6zm.9 2.7h1c.4 0 1-.2 1-.9s-.4-.9-1-.9h-1v1.8zM235.6 32.3h.8v.8c.1-.4.6-.9 1.2-.9h.3v.8h-.4c-.6 0-1.1.5-1.1 1.4v1.9h-.9v-4zM238.1 34.3c0-1.2.8-2.1 2.1-2.1s2.1.9 2.1 2.1c0 1.3-.8 2.2-2.1 2.2s-2.1-.9-2.1-2.2m3.2 0c0-.7-.4-1.4-1.2-1.4-.8 0-1.2.7-1.2 1.4s.4 1.4 1.2 1.4c.9 0 1.2-.7 1.2-1.4M242.4 32.3h.7V31h.9v1.2h.8v.7h-.8v2.2c0 .4 0 .6.4.6h.4v.7h-.6c-.9 0-1.1-.4-1.1-1V33h-.7v-.7zM246.1 34.5c0 .6.3 1.2 1.1 1.2.5 0 .8-.2 1-.7h.9c-.2.9-1 1.4-1.9 1.4-1.3 0-2-.9-2-2.1 0-1.2.8-2.2 2-2.2 1.3 0 2.1 1.2 1.9 2.4h-3zm2.1-.6c0-.6-.4-1.1-1-1.1s-1.1.5-1.1 1.1h2.1zM252.5 33.6c-.1-.5-.4-.8-.9-.8s-1.1.2-1.1 1.5c0 .7.3 1.4 1.1 1.4.5 0 .9-.3 1-.9h.9c-.2 1.1-.8 1.6-1.9 1.6-1.3 0-2-.9-2-2.1 0-1.2.7-2.2 2-2.2.9 0 1.8.5 1.8 1.5h-.9zM253.6 32.3h.7V31h.9v1.2h.8v.7h-.8v2.2c0 .4 0 .6.4.6h.4v.7h-.6c-.9 0-1.1-.4-1.1-1V33h-.7v-.7zM257 30.7h.9v.9h-.9v-.9zm0 1.6h.9v4.1h-.9v-4.1zM258.6 32.3h1l1.2 3.1h.1l1.2-3.1h.9l-1.7 4h-1zM264.1 34.5c0 .6.3 1.2 1.1 1.2.5 0 .8-.2 1-.7h.9c-.2.9-1 1.4-1.9 1.4-1.3 0-2-.9-2-2.1 0-1.2.8-2.2 2-2.2 1.3 0 2.1 1.2 1.9 2.4h-3zm2.2-.6c0-.6-.4-1.1-1-1.1s-1.1.5-1.1 1.1h2.1z" clip-path="url(#SVGID_00000077325576846832601020000003966601143784662692_)" fill="#231f20"/><path d="M255.3 29.8c-.6-2.2-2.4-4-4.6-4.6-.2-.7-.8-1.2-1.6-1.2s-1.4.5-1.6 1.2c-2.2.6-4 2.3-4.6 4.6l-.1.3h1.4V30c.5-1.6 1.8-2.9 3.4-3.4.3.5.8.8 1.4.8.6 0 1.2-.3 1.4-.8 1.6.5 2.9 1.7 3.4 3.4v.1h1.4l.1-.3z" clip-path="url(#SVGID_00000077325576846832601020000003966601143784662692_)" fill="#00b2ee"/><path d="M268.1 35.7c.2 0 .4.2.4.4s-.2.4-.4.4-.4-.2-.4-.4.2-.4.4-.4m.3.4c0-.2-.1-.3-.3-.3-.2 0-.3.2-.3.3 0 .2.1.3.3.3.2 0 .3-.2.3-.3m-.5-.3h.2c.1 0 .2 0 .2.1s-.1.1-.1.1l.1.2h-.1l-.1-.2h-.1v.2h-.1v-.4zm.2.2c.1 0 .1 0 .1-.1s-.1-.1-.1-.1h-.1l.1.2z" clip-path="url(#SVGID_00000077325576846832601020000003966601143784662692_)" fill="#231f20"/></svg>