<svg id="Layer_1" xmlns="http://www.w3.org/2000/svg" viewBox="0 0 728 90"><style>.st0{fill:#393}.st1{fill:#373535}</style><path class="st0" d="M34.4 18.7L41.6 38h-4.4l-1.5-4.3h-7.2L27 38h-4.3L30 18.7h4.4zm.2 11.8l-2.4-7.1h-.1l-2.5 7.1h5zM61.8 34c-.1.8-.4 1.5-.9 2.1-.5.7-1.1 1.2-1.9 1.6s-2 .7-3.4.7c-.8 0-1.6-.1-2.3-.3-.8-.2-1.4-.6-2-1.1-.6-.5-1.1-1.1-1.4-1.8-.4-.7-.5-1.7-.5-2.7v-1.7h3.8v.9c0 .5 0 .9.1 1.3s.2.7.4 1c.2.3.4.5.7.7.3.2.7.2 1.2.2.6 0 1-.1 1.3-.3s.5-.5.7-.8c.1-.3.2-.7.2-1V18.7H62v13.2c0 .6 0 1.3-.2 2.1zM65.6 24.4c.4-1.2 1.1-2.3 1.9-3.2s1.8-1.6 3-2.2c1.2-.5 2.5-.8 4-.8s2.8.3 4 .8c1.2.5 2.2 1.2 3 2.2.8.9 1.4 2 1.9 3.2s.6 2.6.6 4-.2 2.7-.6 3.9c-.4 1.2-1.1 2.3-1.9 3.2-.8.9-1.8 1.6-3 2.1s-2.5.8-4 .8-2.8-.3-4-.8c-1.2-.5-2.2-1.2-3-2.1-.8-.9-1.4-2-1.9-3.2-.4-1.2-.6-2.5-.6-3.9-.1-1.4.1-2.8.6-4zm3.8 6.4c.2.8.5 1.5.9 2.1.4.6 1 1.1 1.6 1.5.7.4 1.5.6 2.4.6s1.8-.2 2.4-.6c.7-.4 1.2-.9 1.6-1.5.4-.6.7-1.3.9-2.1s.3-1.6.3-2.4c0-.8-.1-1.7-.3-2.5-.2-.8-.5-1.5-.9-2.1-.4-.6-1-1.1-1.6-1.5-.7-.4-1.5-.6-2.4-.6s-1.7.3-2.3.6c-.7.4-1.2.9-1.6 1.5-.4.6-.7 1.3-.9 2.1-.2.8-.3 1.6-.3 2.5 0 .8.1 1.6.2 2.4zM100.9 36.5c-1.5 1.3-3.5 1.9-6 1.9-2.6 0-4.6-.6-6.1-1.9-1.4-1.3-2.1-3.2-2.1-5.8v-12h4.2v12c0 .5 0 1 .1 1.5s.3.9.6 1.3.7.7 1.2.9c.5.2 1.2.4 2.1.4 1.5 0 2.6-.3 3.1-1 .6-.7.9-1.7.9-3.2v-12h4.2v12c0 2.7-.7 4.6-2.2 5.9zM117.2 18.7c.9 0 1.6.1 2.3.4.7.3 1.3.7 1.8 1.1.5.5.9 1 1.1 1.7.3.6.4 1.3.4 2.1 0 1.1-.2 2.1-.7 2.9-.5.8-1.3 1.5-2.3 1.9v.1c.5.1 1 .4 1.3.7.3.3.6.6.8 1.1.2.4.4.9.5 1.3.1.5.2 1 .2 1.5 0 .3 0 .7.1 1.1 0 .4 0 .8.1 1.3 0 .4.1.8.2 1.2.1.4.2.7.4 1h-4.2c-.2-.6-.4-1.3-.4-2.2-.1-.8-.1-1.7-.2-2.4-.1-1-.5-1.7-.9-2.2-.5-.5-1.2-.7-2.3-.7H111V38h-4.2V18.7h10.4zm-1.5 8.7c1 0 1.7-.2 2.2-.6.5-.4.7-1.1.7-2.1 0-.9-.2-1.6-.7-2-.5-.4-1.2-.6-2.2-.6H111v5.4h4.7zM130.5 18.7l8 12.9h.1V18.7h4V38h-4.2l-8-12.9h-.1V38h-4V18.7h4.2zM160.7 18.7v3.6h-10.2v4.1h9.3v3.3h-9.3v4.7h10.4V38h-14.6V18.7h14.4zM161.7 18.7h4.8l4.5 7.6 4.5-7.6h4.7L173 30.6V38h-4.2v-7.5l-7.1-11.8zM185.6 28c.3-.9.8-1.7 1.5-2.3.6-.6 1.4-1.1 2.3-1.5.9-.4 1.9-.5 3-.5s2.1.2 3 .5c.9.4 1.7.8 2.3 1.5.6.6 1.1 1.4 1.5 2.3.3.9.5 1.9.5 3s-.2 2.1-.5 3c-.3.9-.8 1.7-1.5 2.3-.6.6-1.4 1.1-2.3 1.5-.9.3-1.9.5-3 .5s-2.1-.2-3-.5c-.9-.3-1.6-.8-2.3-1.5-.6-.6-1.1-1.4-1.5-2.3-.3-.9-.5-1.9-.5-3s.1-2.1.5-3zm3.5 4.6c.1.5.3 1 .6 1.4.3.4.6.8 1 1 .4.3 1 .4 1.6.4s1.2-.1 1.6-.4c.4-.3.8-.6 1.1-1 .3-.4.4-.9.6-1.4.1-.5.2-1.1.2-1.6s-.1-1.1-.2-1.6-.3-1-.6-1.4c-.3-.4-.6-.8-1.1-1-.4-.3-1-.4-1.6-.4s-1.2.1-1.6.4c-.4.3-.8.6-1 1-.3.4-.4.9-.6 1.4-.1.5-.2 1.1-.2 1.6s.1 1.1.2 1.6zM200.5 26.6V24h2.3v-1.1c0-1.2.4-2.3 1.2-3.1.8-.8 1.9-1.2 3.5-1.2h1c.3 0 .7 0 1 .1v2.9c-.5-.1-.9-.1-1.4-.1-.5 0-.9.1-1.1.4-.2.2-.3.7-.3 1.2v.9h2.6v2.6h-2.6V38h-3.8V26.6h-2.4zM218.3 28.3c.1-.9.3-1.6.7-2.2.4-.6.9-1.1 1.5-1.4.6-.4 1.3-.6 2.1-.8s1.5-.2 2.3-.2c.7 0 1.4 0 2.1.1.7.1 1.4.3 2 .6.6.3 1.1.7 1.5 1.2.4.5.6 1.2.6 2v7.3c0 .6 0 1.2.1 1.8.1.6.2 1 .4 1.3h-3.9c-.1-.2-.1-.4-.2-.7 0-.2-.1-.5-.1-.7-.6.6-1.3 1.1-2.2 1.3s-1.7.4-2.5.4c-.7 0-1.3-.1-1.9-.2s-1.1-.4-1.5-.8c-.4-.3-.8-.8-1-1.3s-.4-1.1-.4-1.9c0-.8.1-1.4.4-2 .3-.5.6-.9 1.1-1.2.4-.3.9-.5 1.5-.7.6-.2 1.1-.3 1.7-.4.6-.1 1.1-.2 1.7-.2.6-.1 1.1-.1 1.5-.2s.8-.3 1-.5c.3-.2.4-.5.4-.9s-.1-.7-.2-1c-.1-.2-.3-.4-.5-.6-.2-.1-.5-.2-.8-.3-.3 0-.6-.1-1-.1-.8 0-1.4.2-1.8.5-.4.3-.7.9-.8 1.6h-3.8zm8.9 2.8c-.2.1-.4.3-.6.3s-.5.1-.8.2c-.3.1-.6.1-.9.1s-.6.1-.9.1c-.3.1-.6.1-.9.2-.3.1-.5.2-.7.4-.2.2-.4.3-.5.6-.1.2-.2.5-.2.9 0 .3.1.6.2.9.1.2.3.4.5.6.2.1.5.2.8.3.3.1.6.1.9.1.8 0 1.3-.1 1.8-.4.4-.3.7-.6.9-.9.2-.4.3-.7.4-1.1 0-.4.1-.6.1-.9v-1.4zM239 22.3v-3.6h15.8v3.6H249V38h-4.2V22.3H239zM261.3 18.7v7.4h7.8v-7.4h4.2V38h-4.2v-8.3h-7.8V38h-4.2V18.7h4.2zM276.9 24.4c.4-1.2 1.1-2.3 1.9-3.2s1.8-1.6 3-2.2c1.2-.5 2.5-.8 4-.8s2.8.3 4 .8c1.2.5 2.2 1.2 3 2.2.8.9 1.4 2 1.9 3.2s.6 2.6.6 4-.2 2.7-.6 3.9c-.4 1.2-1.1 2.3-1.9 3.2-.8.9-1.8 1.6-3 2.1s-2.5.8-4 .8-2.8-.3-4-.8c-1.2-.5-2.2-1.2-3-2.1-.8-.9-1.4-2-1.9-3.2-.4-1.2-.6-2.5-.6-3.9-.1-1.4.1-2.8.6-4zm3.8 6.4c.2.8.5 1.5.9 2.1.4.6 1 1.1 1.6 1.5.7.4 1.5.6 2.4.6s1.8-.2 2.4-.6c.7-.4 1.2-.9 1.6-1.5.4-.6.7-1.3.9-2.1s.3-1.6.3-2.4c0-.8-.1-1.7-.3-2.5-.2-.8-.5-1.5-.9-2.1-.4-.6-1-1.1-1.6-1.5-.7-.4-1.5-.6-2.4-.6s-1.8.2-2.4.6c-.7.4-1.2.9-1.6 1.5-.4.6-.7 1.3-.9 2.1-.2.8-.3 1.6-.3 2.5l.3 2.4zM312.2 36.5c-1.5 1.3-3.5 1.9-6 1.9-2.6 0-4.6-.6-6.1-1.9-1.4-1.3-2.1-3.2-2.1-5.8v-12h4.2v12c0 .5 0 1 .1 1.5s.3.9.6 1.3.7.7 1.2.9c.5.2 1.2.4 2.1.4 1.5 0 2.6-.3 3.1-1 .6-.7.9-1.7.9-3.2v-12h4.2v12c0 2.7-.7 4.6-2.2 5.9zM321.3 33.2c.2.5.5.8.9 1.1.4.3.8.5 1.4.6.5.1 1.1.2 1.6.2.4 0 .8 0 1.2-.1.4-.1.8-.2 1.2-.4.4-.2.7-.4.9-.7.3-.3.4-.7.4-1.2s-.2-.9-.5-1.3c-.3-.3-.8-.6-1.3-.8-.5-.2-1.2-.4-1.8-.6-.7-.2-1.4-.3-2.1-.5-.7-.2-1.4-.4-2.1-.7-.7-.3-1.3-.6-1.8-1s-1-.9-1.3-1.6-.5-1.4-.5-2.3c0-1 .2-1.8.6-2.6.4-.7 1-1.3 1.7-1.8s1.5-.8 2.3-1.1c.9-.2 1.7-.4 2.6-.4 1 0 2 .1 2.9.3.9.2 1.8.6 2.5 1.1.7.5 1.3 1.1 1.7 1.9s.6 1.7.6 2.8h-4.1c0-.6-.2-1.1-.4-1.4s-.5-.7-.8-.9c-.3-.2-.7-.4-1.2-.5-.4-.1-.9-.1-1.4-.1-.3 0-.7 0-1 .1-.3.1-.7.2-.9.4-.3.2-.5.4-.7.7-.2.3-.3.6-.3 1s.1.7.2.9c.1.2.4.5.9.6.4.2 1 .4 1.8.6.7.2 1.7.5 2.9.8.4.1.9.2 1.5.4s1.3.5 1.9.9c.6.4 1.2 1 1.6 1.7s.7 1.6.7 2.7c0 .9-.2 1.7-.5 2.5s-.9 1.4-1.5 2c-.7.5-1.5 1-2.5 1.3-1 .3-2.2.5-3.5.5-1.1 0-2.1-.1-3.1-.4s-1.9-.7-2.6-1.2c-.8-.6-1.4-1.3-1.8-2.1-.5-.9-.7-1.9-.6-3.1h4.1c-.1.7 0 1.3.2 1.7zM345.2 18.7l7.2 19.3H348l-1.5-4.3h-7.2l-1.5 4.3h-4.3l7.3-19.3h4.4zm.3 11.8l-2.4-7.1h-.1l-2.5 7.1h5zM358.3 18.7l8 12.9h.1V18.7h4V38h-4.2l-8-12.9h-.1V38h-4V18.7h4.2zM382.4 18.7c1.2 0 2.4.2 3.5.6 1.1.4 2 1 2.8 1.8s1.4 1.8 1.8 3c.4 1.2.7 2.6.7 4.2 0 1.4-.2 2.7-.5 3.9s-.9 2.2-1.6 3.1c-.7.9-1.6 1.5-2.7 2s-2.4.7-3.8.7h-8.3V18.7h8.1zm-.3 15.7c.6 0 1.2-.1 1.8-.3s1.1-.5 1.5-1c.4-.5.8-1.1 1.1-1.8.3-.7.4-1.6.4-2.7 0-1-.1-1.8-.3-2.6-.2-.8-.5-1.5-.9-2-.4-.6-1-1-1.7-1.3-.7-.3-1.6-.4-2.6-.4h-3v12.1h3.7zM404.9 33.2c.2.5.5.8.9 1.1.4.3.8.5 1.4.6.5.1 1.1.2 1.6.2.4 0 .8 0 1.2-.1.4-.1.8-.2 1.2-.4.4-.2.7-.4.9-.7.3-.3.4-.7.4-1.2s-.2-.9-.5-1.3c-.3-.3-.8-.6-1.3-.8-.5-.2-1.2-.4-1.8-.6-.7-.2-1.4-.3-2.1-.5-.7-.2-1.4-.4-2.1-.7-.7-.3-1.3-.6-1.8-1s-1-.9-1.3-1.6c-.3-.6-.5-1.4-.5-2.3 0-1 .2-1.8.6-2.6s1-1.3 1.7-1.8 1.5-.8 2.3-1.1c.9-.2 1.7-.4 2.6-.4 1 0 2 .1 2.9.3s1.8.6 2.5 1.1c.7.5 1.3 1.1 1.7 1.9.4.8.6 1.7.6 2.8h-4.1c0-.6-.2-1.1-.4-1.4-.2-.4-.5-.7-.8-.9-.3-.2-.7-.4-1.2-.5-.4-.1-.9-.1-1.4-.1-.3 0-.7 0-1 .1-.3.1-.7.2-.9.4-.3.2-.5.4-.7.7-.2.3-.3.6-.3 1s.1.7.2.9c.1.2.4.5.9.6.4.2 1 .4 1.8.6.7.2 1.7.5 2.9.8.4.1.9.2 1.5.4s1.3.5 1.9.9 1.2 1 1.6 1.7.7 1.6.7 2.7c0 .9-.2 1.7-.5 2.5s-.9 1.4-1.5 2c-.7.5-1.5 1-2.5 1.3-1 .3-2.2.5-3.5.5-1.1 0-2.1-.1-3.1-.4s-1.9-.7-2.6-1.2c-.8-.6-1.4-1.3-1.8-2.1-.5-.9-.7-1.9-.6-3.1h4.1c-.2.7-.1 1.3.2 1.7zM425.1 18.7l4.5 13.3h.1l4.3-13.3h6V38h-4V24.3h-.1L431.1 38h-3.3l-4.7-13.5h-.1V38h-4V18.7h6.1zM447.9 18.7V38h-4.2V18.7h4.2zM455.8 18.7v15.7h9.4V38h-13.6V18.7h4.2zM482 18.7v3.6h-10.2v4.1h9.3v3.3h-9.3v4.7h10.4V38h-14.6V18.7H482zM488.3 33.2c.2.5.5.8.9 1.1.4.3.8.5 1.4.6.5.1 1.1.2 1.6.2.4 0 .8 0 1.2-.1.4-.1.8-.2 1.2-.4.4-.2.7-.4.9-.7.3-.3.4-.7.4-1.2s-.2-.9-.5-1.3c-.3-.3-.8-.6-1.3-.8-.5-.2-1.2-.4-1.8-.6-.7-.2-1.4-.3-2.1-.5-.7-.2-1.4-.4-2.1-.7-.7-.3-1.3-.6-1.8-1s-1-.9-1.3-1.6c-.3-.6-.5-1.4-.5-2.3 0-1 .2-1.8.6-2.6s1-1.3 1.7-1.8 1.5-.8 2.3-1.1c.9-.2 1.7-.4 2.6-.4 1 0 2 .1 2.9.3s1.8.6 2.5 1.1c.7.5 1.3 1.1 1.7 1.9.4.8.6 1.7.6 2.8h-4.1c0-.6-.2-1.1-.4-1.4-.2-.4-.5-.7-.8-.9-.3-.2-.7-.4-1.2-.5-.4-.1-.9-.1-1.4-.1-.3 0-.7 0-1 .1-.3.1-.7.2-.9.4-.3.2-.5.4-.7.7-.2.3-.3.6-.3 1s.1.7.2.9c.1.2.4.5.9.6.4.2 1 .4 1.8.6.7.2 1.7.5 2.9.8.4.1.9.2 1.5.4s1.3.5 1.9.9 1.2 1 1.6 1.7.7 1.6.7 2.7c0 .9-.2 1.7-.5 2.5s-.9 1.4-1.5 2c-.7.5-1.5 1-2.5 1.3-1 .3-2.2.5-3.5.5-1.1 0-2.1-.1-3.1-.4s-1.9-.7-2.6-1.2c-.8-.6-1.4-1.3-1.8-2.1-.5-.9-.7-1.9-.6-3.1h4.1c-.1.7 0 1.3.2 1.7z"/><g><path class="st1" d="M28.2 46.7v7h.1c.5-.7 1.1-1.2 1.9-1.6.8-.3 1.6-.5 2.5-.5.7 0 1.4.1 2.1.4.7.3 1.3.7 1.8 1.3.5.6 1 1.4 1.3 2.3.3.9.5 2 .5 3.3s-.2 2.4-.5 3.3c-.3.9-.8 1.7-1.3 2.3-.5.6-1.2 1-1.8 1.3-.7.3-1.4.4-2.1.4-1 0-1.9-.2-2.8-.5-.8-.3-1.4-.9-1.8-1.6H28V66h-3.6V46.7h3.8zm6.2 10.6c-.1-.5-.3-1-.6-1.4-.3-.4-.6-.7-1-1s-.9-.4-1.5-.4-1 .1-1.5.4-.8.6-1 1c-.3.4-.5.9-.6 1.4-.1.5-.2 1.1-.2 1.7 0 .6.1 1.1.2 1.7.1.5.3 1 .6 1.4s.6.7 1 1 .9.4 1.5.4 1.1-.1 1.5-.4.7-.6 1-1 .5-.9.6-1.4.2-1.1.2-1.7c0-.6-.1-1.2-.2-1.7zM44.9 62.6c.6.6 1.4.8 2.5.8.8 0 1.4-.2 2-.6.6-.4.9-.8 1-1.2h3.4c-.5 1.7-1.4 2.9-2.5 3.6-1.1.7-2.5 1.1-4 1.1-1.1 0-2.1-.2-3-.5s-1.6-.9-2.2-1.5c-.6-.6-1.1-1.4-1.4-2.3-.3-.9-.5-1.9-.5-3 0-1 .2-2 .5-2.9.3-.9.8-1.7 1.5-2.3.6-.7 1.4-1.2 2.3-1.6s1.8-.6 2.9-.6c1.2 0 2.2.2 3.1.7.9.5 1.6 1.1 2.2 1.8.6.8 1 1.7 1.2 2.6.3 1 .3 2 .3 3.1H44c.1 1.4.4 2.3.9 2.8zm4.4-7.3c-.5-.5-1.2-.8-2.1-.8-.6 0-1.1.1-1.5.3-.4.2-.7.5-1 .8-.2.3-.4.6-.5 1-.1.3-.2.6-.2.9h6.2c-.1-1-.5-1.7-.9-2.2zM69.5 67c-.2.7-.5 1.4-1 2-.5.6-1.2 1.1-2.2 1.6-1 .4-2.2.6-3.8.6-.7 0-1.4-.1-2.1-.3s-1.4-.4-1.9-.8c-.6-.4-1.1-.8-1.5-1.4-.4-.6-.6-1.2-.7-2h3.8c.2.7.5 1.2 1.1 1.5.5.3 1.1.4 1.8.4 1.1 0 1.9-.3 2.4-1 .5-.6.7-1.5.7-2.5v-1.8H66c-.4.7-1 1.3-1.8 1.6-.8.4-1.6.5-2.4.5-1 0-1.9-.2-2.7-.6-.8-.4-1.4-.9-1.9-1.5s-.8-1.4-1.1-2.2c-.2-.9-.3-1.8-.3-2.7 0-.9.1-1.8.4-2.6.3-.8.6-1.6 1.1-2.2.5-.6 1.1-1.1 1.9-1.5.7-.4 1.6-.6 2.6-.6.9 0 1.7.2 2.4.5s1.3.9 1.7 1.7h.1V52h3.6v13.1c.2.5.1 1.2-.1 1.9zm-5.2-4.6c.4-.2.8-.5 1-.9.3-.4.5-.8.6-1.2.1-.5.2-.9.2-1.4 0-.6-.1-1.1-.2-1.6s-.3-1-.5-1.4c-.3-.4-.6-.7-1-.9-.4-.2-.9-.4-1.6-.4-.5 0-1 .1-1.4.3-.4.2-.7.5-1 .9-.3.4-.5.8-.6 1.3-.1.5-.2 1-.2 1.5s0 1 .1 1.5.3.9.5 1.3.6.7 1 1c.4.3.9.4 1.5.4.7-.1 1.2-.2 1.6-.4zM72.9 49.8v-3.2h3.8v3.2h-3.8zm3.9 2.2v14H73V52h3.8zM83.4 52v2h.1c.5-.8 1.1-1.4 1.9-1.8.8-.4 1.6-.6 2.4-.6 1 0 1.9.1 2.5.4.7.3 1.2.7 1.6 1.2s.6 1.1.8 1.8c.2.7.2 1.5.2 2.4V66h-3.8v-7.9c0-1.2-.2-2-.5-2.6-.4-.6-1-.9-1.9-.9-1 0-1.8.3-2.3.9-.5.6-.7 1.6-.7 3.1V66h-3.8V52h3.5zM99 62.5c.2.3.4.5.7.7.3.2.6.3.9.4s.7.1 1.1.1c.3 0 .6 0 .9-.1.3-.1.6-.2.8-.3.2-.1.4-.3.6-.5.2-.2.2-.5.2-.9 0-.6-.4-1-1.1-1.3-.8-.3-1.8-.6-3.2-.9-.6-.1-1.1-.3-1.6-.4-.5-.2-1-.4-1.4-.7-.4-.3-.7-.6-1-1.1s-.4-.9-.4-1.6c0-.9.2-1.6.5-2.2.4-.6.8-1 1.4-1.4s1.2-.6 1.9-.7 1.5-.2 2.2-.2c.8 0 1.5.1 2.2.2.7.1 1.3.4 1.9.7.6.3 1 .8 1.4 1.4.4.6.6 1.3.7 2.1H104c-.1-.7-.3-1.2-.8-1.5-.5-.3-1.1-.4-1.8-.4h-.7c-.3 0-.5.1-.7.2-.2.1-.4.2-.5.4-.1.2-.2.4-.2.7 0 .3.1.6.4.8.3.2.6.4 1 .5.4.1.9.3 1.4.4.5.1 1.1.2 1.6.4.6.1 1.1.3 1.6.5s1 .4 1.4.7.7.7 1 1.1c.3.4.4 1 .4 1.6 0 .9-.2 1.7-.6 2.3-.4.6-.9 1.1-1.4 1.5-.6.4-1.3.6-2 .8-.8.2-1.5.2-2.3.2-.8 0-1.6-.1-2.4-.2s-1.5-.4-2.1-.8-1.1-.9-1.5-1.5c-.4-.6-.6-1.4-.6-2.3h3.6c0 .6.1 1 .2 1.3zM129.8 66l-2.5-9.4h-.1l-2.4 9.4h-4l-4.4-14h4l2.6 9.5h.1l2.3-9.5h3.7l2.4 9.5h.1l2.6-9.5h3.9l-4.4 14h-3.9zM139.9 49.8v-3.2h3.8v3.2h-3.8zm3.8 2.2v14h-3.8V52h3.8zM154.4 52v2.6h-2.8v6.9c0 .6.1 1.1.3 1.3.2.2.6.3 1.3.3h.6c.2 0 .4 0 .6-.1v3c-.3.1-.7.1-1.1.1h-1.2c-.6 0-1.2 0-1.7-.1s-1-.2-1.4-.5c-.4-.2-.7-.6-1-1-.2-.4-.4-1-.4-1.7v-8.2h-2.3V52h2.3v-4.2h3.8V52h3zM160.1 46.7V54h.1c.5-.8 1.1-1.4 1.9-1.8.8-.4 1.5-.6 2.2-.6 1 0 1.9.1 2.5.4.7.3 1.2.7 1.6 1.2s.6 1.1.8 1.8c.2.7.2 1.5.2 2.4V66h-3.8v-7.9c0-1.2-.2-2-.5-2.6-.4-.6-1-.9-1.9-.9-1 0-1.8.3-2.3.9-.5.6-.7 1.6-.7 3.1V66h-3.8V46.7h3.7zM179.6 56.3c.1-.9.3-1.6.7-2.2.4-.6.9-1.1 1.5-1.4s1.3-.6 2.1-.8c.8-.2 1.5-.2 2.3-.2.7 0 1.4 0 2.1.1.7.1 1.4.3 2 .6.6.3 1.1.7 1.5 1.2.4.5.6 1.2.6 2v7.3c0 .6 0 1.2.1 1.8.1.6.2 1 .4 1.3H189c-.1-.2-.1-.4-.2-.7 0-.2-.1-.5-.1-.7-.6.6-1.3 1.1-2.2 1.3s-1.7.4-2.5.4c-.7 0-1.3-.1-1.9-.2s-1.1-.4-1.5-.8c-.4-.3-.8-.8-1-1.3-.2-.5-.4-1.1-.4-1.9 0-.8.1-1.4.4-2 .3-.5.6-.9 1.1-1.2.4-.3.9-.5 1.5-.7.6-.2 1.1-.3 1.7-.4s1.1-.2 1.7-.2c.6-.1 1.1-.1 1.5-.2.4-.1.8-.3 1-.5s.4-.5.4-.9-.1-.7-.2-1c-.1-.2-.3-.4-.5-.6-.2-.1-.5-.2-.8-.3-.3 0-.6-.1-1-.1-.8 0-1.4.2-1.8.5-.4.3-.7.9-.8 1.6h-3.8zm8.9 2.8c-.2.1-.4.3-.6.3s-.5.1-.8.2c-.3.1-.6.1-.9.1s-.6.1-.9.1c-.3.1-.6.1-.9.2-.3.1-.5.2-.7.4-.2.2-.4.3-.5.6-.1.2-.2.5-.2.9 0 .3.1.6.2.9.1.2.3.4.5.6.2.1.5.2.8.3.3.1.6.1.9.1.8 0 1.3-.1 1.8-.4.4-.3.7-.6.9-.9.2-.4.3-.7.4-1.1s.1-.6.1-.9v-1.4zM206 62.5c.2.3.4.5.7.7.3.2.6.3.9.4s.7.1 1.1.1c.3 0 .6 0 .9-.1.3-.1.6-.2.8-.3.2-.1.4-.3.6-.5.2-.2.2-.5.2-.9 0-.6-.4-1-1.1-1.3-.8-.3-1.8-.6-3.2-.9-.6-.1-1.1-.3-1.6-.4-.5-.2-1-.4-1.4-.7-.4-.3-.7-.6-1-1.1s-.4-.9-.4-1.6c0-.9.2-1.6.5-2.2.4-.6.8-1 1.4-1.4s1.2-.6 1.9-.7 1.5-.2 2.2-.2c.8 0 1.5.1 2.2.2.7.1 1.3.4 1.9.7.6.3 1 .8 1.4 1.4.4.6.6 1.3.7 2.1H211c-.1-.7-.3-1.2-.8-1.5-.5-.3-1.1-.4-1.8-.4h-.7c-.3 0-.5.1-.7.2-.2.1-.4.2-.5.4-.1.2-.2.4-.2.7 0 .3.1.6.4.8.3.2.6.4 1 .5.4.1.9.3 1.4.4.5.1 1.1.2 1.6.4.6.1 1.1.3 1.6.5s1 .4 1.4.7.7.7 1 1.1c.3.4.4 1 .4 1.6 0 .9-.2 1.7-.6 2.3-.4.6-.9 1.1-1.4 1.5-.6.4-1.3.6-2 .8-.8.2-1.5.2-2.3.2-.8 0-1.6-.1-2.4-.2s-1.5-.4-2.1-.8-1.1-.9-1.5-1.5c-.4-.6-.6-1.4-.6-2.3h3.6c0 .6 0 1 .2 1.3zM217.4 49.8v-3.2h3.8v3.2h-3.8zm3.8 2.2v14h-3.8V52h3.8zM227.9 52v2h.1c.5-.8 1.1-1.4 1.9-1.8.8-.4 1.6-.6 2.4-.6 1 0 1.9.1 2.5.4.7.3 1.2.7 1.6 1.2s.6 1.1.8 1.8c.2.7.2 1.5.2 2.4V66h-3.8v-7.9c0-1.2-.2-2-.5-2.6-.4-.6-1-.9-1.9-.9-1 0-1.8.3-2.3.9-.5.6-.7 1.6-.7 3.1V66h-3.8V52h3.5zM253.4 67c-.2.7-.5 1.4-1 2-.5.6-1.2 1.1-2.2 1.6-1 .4-2.2.6-3.8.6-.7 0-1.4-.1-2.1-.3s-1.4-.4-1.9-.8c-.6-.4-1.1-.8-1.5-1.4-.4-.6-.6-1.2-.7-2h3.8c.2.7.5 1.2 1.1 1.5.5.3 1.1.4 1.8.4 1.1 0 1.9-.3 2.4-1 .5-.6.7-1.5.7-2.5v-1.8c-.4.7-1 1.3-1.8 1.6-.8.4-1.6.5-2.4.5-1 0-1.9-.2-2.7-.6-.8-.4-1.4-.9-1.9-1.5s-.8-1.4-1.1-2.2c-.2-.9-.3-1.8-.3-2.7 0-.9.1-1.8.4-2.6.3-.8.6-1.6 1.1-2.2.5-.6 1.1-1.1 1.9-1.5.7-.4 1.6-.6 2.6-.6.9 0 1.7.2 2.4.5s1.3.9 1.7 1.7h.1V52h3.6v13.1c.1.5 0 1.2-.2 1.9zm-5.2-4.6c.4-.2.8-.5 1-.9.3-.4.5-.8.6-1.2.1-.5.2-.9.2-1.4 0-.6-.1-1.1-.2-1.6s-.3-1-.5-1.4c-.3-.4-.6-.7-1-.9-.4-.2-.9-.4-1.6-.4-.5 0-1 .1-1.4.3-.4.2-.7.5-1 .9-.3.4-.5.8-.6 1.3-.1.5-.2 1-.2 1.5s0 1 .1 1.5.3.9.5 1.3.6.7 1 1c.4.3.9.4 1.5.4.7-.1 1.2-.2 1.6-.4zM260.7 46.7V66h-3.8V46.7h3.8zM267.8 62.6c.6.6 1.4.8 2.5.8.8 0 1.4-.2 2-.6.6-.4.9-.8 1-1.2h3.4c-.5 1.7-1.4 2.9-2.5 3.6-1.1.7-2.5 1.1-4 1.1-1.1 0-2.1-.2-3-.5s-1.6-.9-2.2-1.5c-.6-.6-1.1-1.4-1.4-2.3-.3-.9-.5-1.9-.5-3 0-1 .2-2 .5-2.9.3-.9.8-1.7 1.5-2.3.6-.7 1.4-1.2 2.3-1.6s1.8-.6 2.9-.6c1.2 0 2.2.2 3.1.7.9.5 1.6 1.1 2.2 1.8.6.8 1 1.7 1.2 2.6.3 1 .3 2 .3 3.1H267c-.1 1.4.2 2.3.8 2.8zm4.4-7.3c-.5-.5-1.2-.8-2.1-.8-.6 0-1.1.1-1.5.3-.4.2-.7.5-1 .8-.2.3-.4.6-.5 1-.1.3-.2.6-.2.9h6.2c-.2-1-.5-1.7-.9-2.2zM290.4 61.2c.2.5.5.8.9 1.1.4.3.8.5 1.4.6.5.1 1.1.2 1.6.2.4 0 .8 0 1.2-.1.4-.1.8-.2 1.2-.4.4-.2.7-.4.9-.7.3-.3.4-.7.4-1.2s-.2-.9-.5-1.3c-.3-.3-.8-.6-1.3-.8s-1.2-.4-1.8-.6c-.7-.2-1.4-.3-2.1-.5-.7-.2-1.4-.4-2.1-.7-.7-.3-1.3-.6-1.8-1s-1-.9-1.3-1.6-.5-1.4-.5-2.3c0-1 .2-1.8.6-2.6.4-.7 1-1.3 1.7-1.8s1.5-.8 2.3-1.1c.9-.2 1.7-.4 2.6-.4 1 0 2 .1 2.9.3.9.2 1.8.6 2.5 1.1.7.5 1.3 1.1 1.7 1.9s.6 1.7.6 2.8h-4.1c0-.6-.2-1.1-.4-1.4s-.5-.7-.8-.9c-.3-.2-.7-.4-1.2-.5-.4-.1-.9-.1-1.4-.1-.3 0-.7 0-1 .1-.3.1-.7.2-.9.4-.3.2-.5.4-.7.7-.2.3-.3.6-.3 1s.1.7.2.9c.1.2.4.5.9.6.4.2 1 .4 1.8.6.7.2 1.7.5 2.9.8.4.1.9.2 1.5.4s1.3.5 1.9.9c.6.4 1.2 1 1.6 1.7.5.7.7 1.6.7 2.7 0 .9-.2 1.7-.5 2.5s-.9 1.4-1.5 2c-.7.5-1.5 1-2.5 1.3s-2.2.5-3.5.5c-1.1 0-2.1-.1-3.1-.4s-1.9-.7-2.6-1.2c-.8-.6-1.4-1.3-1.8-2.1-.5-.9-.7-1.9-.6-3.1h4.1c-.2.7-.1 1.3.2 1.7zM303.1 50.3v-3.6h15.8v3.6h-5.8V66h-4.2V50.3h-5.8zM335.6 46.7v3.6h-10.2v4.1h9.3v3.3h-9.3v4.7h10.4V66h-14.6V46.7h14.4zM347.3 46.7c1.2 0 2.2.2 3.1.5.8.4 1.5.8 2.1 1.4.5.6.9 1.2 1.2 2 .2.7.4 1.5.4 2.3 0 .8-.1 1.5-.4 2.3-.2.7-.6 1.4-1.2 2-.5.6-1.2 1-2.1 1.4-.8.4-1.9.5-3.1.5h-4.5V66h-4.2V46.7h8.7zm-1.1 9.1c.5 0 1 0 1.4-.1.4-.1.8-.2 1.2-.4s.6-.5.8-.9c.2-.4.3-.9.3-1.5s-.1-1.1-.3-1.5c-.2-.4-.5-.7-.8-.9-.3-.2-.7-.3-1.2-.4s-.9-.1-1.4-.1h-3.3v5.8h3.3z"/></g></svg>