<svg xmlns="http://www.w3.org/2000/svg" viewBox="0 0 728 90"><path d="M261.2 20.7v15.7h9.4V40H257V20.7h4.2zM272.7 23.9v-3.2h3.8v3.2h-3.8zm3.8 2.1v14h-3.8V26h3.8zM278.1 28.6V26h2.3v-1.1c0-1.2.4-2.3 1.2-3.1.8-.8 1.9-1.2 3.5-1.2h1c.3 0 .7 0 1 .1v2.9c-.5-.1-.9-.1-1.4-.1-.5 0-.9.1-1.1.4-.2.2-.3.7-.3 1.2v.9h2.6v2.6h-2.6V40h-3.8V28.6h-2.4zM292.6 36.6c.6.6 1.4.8 2.5.8.8 0 1.4-.2 2-.6.6-.4.9-.8 1-1.2h3.4c-.5 1.7-1.4 2.9-2.5 3.6-1.1.7-2.5 1.1-4 1.1-1.1 0-2.1-.2-3-.5-.9-.4-1.6-.9-2.2-1.5-.6-.6-1.1-1.4-1.4-2.3-.3-.9-.5-1.9-.5-3 0-1 .2-2 .5-2.9s.8-1.7 1.5-2.3c.6-.7 1.4-1.2 2.3-1.6s1.8-.6 2.9-.6c1.2 0 2.2.2 3.1.7.9.5 1.6 1.1 2.2 1.8s1 1.7 1.2 2.6c.3 1 .3 2 .3 3.1h-10.1c-.1 1.4.2 2.3.8 2.8zm4.3-7.3c-.5-.5-1.2-.8-2.1-.8-.6 0-1.1.1-1.5.3-.4.2-.7.5-1 .8-.2.3-.4.6-.5 1-.1.3-.2.6-.2.9h6.2c-.1-1-.4-1.7-.9-2.2zM308.4 35.8V40c0 .6-.1 1.2-.3 1.7s-.5 1-.9 1.3-.8.7-1.3.9c-.5.2-1.1.4-1.6.5v-1.9c.3-.1.5-.2.8-.3.2-.2.5-.4.6-.6.2-.2.3-.5.4-.8.1-.3.1-.6.1-.9h-1.9v-4.2h4.1zM327.7 20.7c1.2 0 2.4.2 3.5.6 1.1.4 2 1 2.8 1.8.8.8 1.4 1.8 1.8 3 .4 1.2.7 2.6.7 4.2a16 16 0 0 1-.5 3.9c-.4 1.2-.9 2.2-1.6 3.1-.7.9-1.6 1.5-2.7 2s-2.4.7-3.8.7h-8.3V20.7h8.1zm-.3 15.7c.6 0 1.2-.1 1.8-.3.6-.2 1.1-.5 1.5-1 .4-.5.8-1.1 1.1-1.8.3-.7.4-1.6.4-2.7 0-1-.1-1.8-.3-2.6-.2-.8-.5-1.5-.9-2-.4-.6-1-1-1.7-1.3s-1.6-.4-2.6-.4h-3v12.1h3.7zM339.1 23.9v-3.2h3.8v3.2h-3.8zM343 26v14h-3.8V26h3.8zM349.2 36.5c.2.3.4.5.7.7.3.2.6.3.9.4s.7.1 1.1.1c.3 0 .6 0 .9-.1.3-.1.6-.2.8-.3.2-.1.4-.3.6-.5.2-.2.2-.5.2-.9 0-.6-.4-1-1.1-1.3-.8-.3-1.8-.6-3.2-.9-.6-.1-1.1-.3-1.6-.4-.5-.2-1-.4-1.4-.7-.4-.3-.7-.6-1-1.1-.3-.4-.4-.9-.4-1.6 0-.9.2-1.6.5-2.2.4-.6.8-1 1.4-1.4.6-.3 1.2-.6 1.9-.7.7-.1 1.5-.2 2.2-.2.8 0 1.5.1 2.2.2.7.1 1.3.4 1.9.7.6.3 1 .8 1.4 1.4.4.6.6 1.3.7 2.1h-3.6c-.1-.7-.3-1.2-.8-1.5-.5-.3-1.1-.4-1.8-.4h-.7c-.3 0-.5.1-.7.2-.2.1-.4.2-.5.4-.1.2-.2.4-.2.7 0 .3.1.6.4.8.3.2.6.4 1 .5.4.1.9.3 1.4.4s1.1.2 1.6.4c.6.1 1.1.3 1.6.5s1 .4 1.4.7c.4.3.7.7 1 1.1.3.4.4 1 .4 1.6 0 .9-.2 1.7-.6 2.3-.4.6-.8 1.1-1.4 1.5-.6.4-1.3.6-2 .8-.8.2-1.5.2-2.3.2-.8 0-1.6-.1-2.4-.2s-1.5-.4-2.1-.8-1.1-.9-1.5-1.5c-.4-.6-.6-1.4-.6-2.3h3.6c-.1.6-.1 1 .1 1.3zM360.3 30.3c.1-.9.3-1.6.7-2.2.4-.6.9-1.1 1.5-1.4.6-.4 1.3-.6 2.1-.8.8-.2 1.5-.2 2.3-.2.7 0 1.4 0 2.1.1.7.1 1.4.3 2 .6.6.3 1.1.7 1.5 1.2.4.5.6 1.2.6 2v7.3c0 .6 0 1.2.1 1.8s.2 1 .4 1.3h-3.9c-.1-.2-.1-.4-.2-.7 0-.2-.1-.5-.1-.7-.6.6-1.3 1.1-2.2 1.3-.8.3-1.7.4-2.5.4-.7 0-1.3-.1-1.9-.2s-1.1-.4-1.5-.8c-.4-.3-.8-.8-1-1.3s-.4-1.1-.4-1.9c0-.8.1-1.4.4-2 .3-.5.6-.9 1.1-1.2.4-.3.9-.5 1.5-.7.6-.2 1.1-.3 1.7-.4.6-.1 1.1-.2 1.7-.2.6-.1 1.1-.1 1.5-.2.4-.1.8-.3 1-.5.3-.2.4-.5.4-.9s-.1-.7-.2-1c-.1-.2-.3-.4-.5-.6-.2-.1-.5-.2-.8-.3-.3 0-.6-.1-1-.1-.8 0-1.3.2-1.8.5-.4.3-.7.9-.8 1.6h-3.8zm8.9 2.8c-.2.1-.4.3-.6.3-.2.1-.5.1-.8.2-.3.1-.6.1-.9.1s-.6.1-.9.1c-.3.1-.6.1-.9.2-.3.1-.5.2-.7.4-.2.2-.4.3-.5.6s-.2.5-.2.9c0 .3.1.6.2.9s.3.4.5.6c.2.1.5.2.8.3.3.1.6.1.9.1.8 0 1.3-.1 1.8-.4.4-.3.7-.6.9-.9.2-.4.3-.7.4-1.1 0-.4.1-.6.1-.9v-1.4zM379.8 20.7v7h.1c.5-.7 1.1-1.2 1.9-1.6s1.6-.5 2.5-.5c.7 0 1.4.1 2.1.4.7.3 1.3.7 1.8 1.3.5.6 1 1.4 1.3 2.3s.5 2 .5 3.3c0 1.3-.2 2.4-.5 3.3-.3.9-.8 1.7-1.3 2.3-.5.6-1.2 1-1.8 1.3-.7.3-1.4.4-2.1.4-1 0-1.9-.2-2.8-.5-.8-.3-1.4-.9-1.8-1.6h-.1V40H376V20.7h3.8zm6.2 10.6c-.1-.5-.3-1-.6-1.4-.3-.4-.6-.7-1-1s-.9-.4-1.5-.4-1 .1-1.5.4-.8.6-1 1c-.3.4-.5.9-.6 1.4s-.2 1.1-.2 1.7c0 .6.1 1.1.2 1.7s.3 1 .6 1.4c.3.4.6.7 1 1s.9.4 1.5.4 1.1-.1 1.5-.4.7-.6 1-1c.3-.4.5-.9.6-1.4s.2-1.1.2-1.7c0-.6 0-1.2-.2-1.7zM392.6 23.9v-3.2h3.8v3.2h-3.8zm3.8 2.1v14h-3.8V26h3.8zM403.4 20.7V40h-3.8V20.7h3.8zM406.5 23.9v-3.2h3.8v3.2h-3.8zm3.9 2.1v14h-3.8V26h3.8zM421 26v2.6h-2.8v6.9c0 .6.1 1.1.3 1.3.2.2.6.3 1.3.3h.6c.2 0 .4 0 .6-.1v3c-.3.1-.7.1-1.1.1h-1.2c-.6 0-1.2 0-1.7-.1s-1-.2-1.4-.5c-.4-.2-.7-.6-1-1-.2-.4-.4-1-.4-1.7v-8.2h-2.3V26h2.3v-4.2h3.8V26h3zM428 44.1c-.7.5-1.8.7-3.1.7h-1.2c-.4 0-.8-.1-1.2-.1v-3.2c.4 0 .7.1 1.1.1h1.1c.5-.1.9-.3 1.1-.6s.4-.7.4-1.1c0-.3-.1-.6-.2-.9l-4.7-13h4.1l3.2 9.6h.1l3.1-9.6h4L430 41.7c-.6 1.1-1.2 1.9-2 2.4zM444.2 30.3c.1-.9.3-1.6.7-2.2.4-.6.9-1.1 1.5-1.4.6-.4 1.3-.6 2.1-.8.8-.2 1.5-.2 2.3-.2.7 0 1.4 0 2.1.1.7.1 1.4.3 2 .6.6.3 1.1.7 1.5 1.2.4.5.6 1.2.6 2v7.3c0 .6 0 1.2.1 1.8s.2 1 .4 1.3h-3.9c-.1-.2-.1-.4-.2-.7 0-.2-.1-.5-.1-.7-.6.6-1.3 1.1-2.2 1.3-.8.3-1.7.4-2.5.4-.7 0-1.3-.1-1.9-.2s-1.1-.4-1.5-.8c-.4-.3-.8-.8-1-1.3s-.4-1.1-.4-1.9c0-.8.1-1.4.4-2 .3-.5.6-.9 1.1-1.2.4-.3.9-.5 1.5-.7.6-.2 1.1-.3 1.7-.4.6-.1 1.1-.2 1.7-.2.6-.1 1.1-.1 1.5-.2.4-.1.8-.3 1-.5.3-.2.4-.5.4-.9s-.1-.7-.2-1c-.1-.2-.3-.4-.5-.6-.2-.1-.5-.2-.8-.3-.3 0-.6-.1-1-.1-.8 0-1.3.2-1.8.5-.4.3-.7.9-.8 1.6h-3.8zm8.9 2.8c-.2.1-.4.3-.6.3-.2.1-.5.1-.8.2-.3.1-.6.1-.9.1s-.6.1-.9.1c-.3.1-.6.1-.9.2-.3.1-.5.2-.7.4-.2.2-.4.3-.5.6s-.2.5-.2.9c0 .3.1.6.2.9s.3.4.5.6c.2.1.5.2.8.3.3.1.6.1.9.1.8 0 1.3-.1 1.8-.4.4-.3.7-.6.9-.9.2-.4.3-.7.4-1.1 0-.4.1-.6.1-.9v-1.4zM463.5 26v2h.1c.5-.8 1.1-1.4 1.9-1.8.8-.4 1.6-.6 2.4-.6 1 0 1.9.1 2.5.4.7.3 1.2.7 1.6 1.2s.6 1.1.8 1.8c.2.7.2 1.5.2 2.4V40h-3.8v-7.9c0-1.2-.2-2-.5-2.6s-1-.9-1.9-.9c-1 0-1.8.3-2.3.9-.5.6-.7 1.6-.7 3.1V40H460V26h3.5zM485.8 38.2c-.5.8-1 1.3-1.8 1.6-.7.3-1.6.5-2.5.5-1 0-2-.2-2.8-.6-.8-.4-1.4-1-2-1.6-.5-.7-.9-1.5-1.2-2.4-.3-.9-.4-1.8-.4-2.8 0-.9.1-1.8.4-2.7.3-.9.6-1.6 1.2-2.3.5-.7 1.2-1.2 1.9-1.6.8-.4 1.7-.6 2.7-.6.8 0 1.6.2 2.4.5s1.3.9 1.8 1.6h.1v-7h3.8V40h-3.6v-1.8zm-.1-6.9c-.1-.5-.3-1-.6-1.4s-.6-.7-1-1-.9-.4-1.6-.4c-.6 0-1.2.1-1.6.4-.4.3-.8.6-1 1s-.5.9-.6 1.4-.2 1.1-.2 1.7c0 .5.1 1.1.2 1.6s.3 1 .6 1.4c.3.4.6.8 1.1 1 .4.3.9.4 1.5.4s1.2-.1 1.6-.4c.4-.3.8-.6 1-1s.4-.9.5-1.4.2-1.1.2-1.7c0-.5 0-1.1-.1-1.6z"/><g><path d="M289.6 63.2c.2.5.5.8.9 1.1.4.3.8.5 1.4.6.5.1 1.1.2 1.6.2.4 0 .8 0 1.2-.1.4-.1.8-.2 1.2-.4.4-.2.7-.4.9-.7.3-.3.4-.7.4-1.2s-.2-.9-.5-1.3c-.3-.3-.8-.6-1.3-.8-.5-.2-1.2-.4-1.8-.6s-1.4-.3-2.1-.5c-.7-.2-1.4-.4-2.1-.7-.7-.3-1.3-.6-1.8-1s-1-.9-1.3-1.6-.5-1.4-.5-2.3c0-1 .2-1.8.6-2.6.4-.7 1-1.3 1.7-1.8s1.5-.8 2.3-1.1c.9-.2 1.7-.3 2.6-.3 1 0 2 .1 2.9.3.9.2 1.8.6 2.5 1.1.7.5 1.3 1.1 1.7 1.9.4.8.6 1.7.6 2.8h-4.1c0-.6-.2-1.1-.4-1.4s-.5-.7-.8-.9c-.3-.2-.7-.4-1.2-.5-.4-.1-.9-.1-1.4-.1-.3 0-.7 0-1 .1-.3.1-.7.2-.9.4-.3.2-.5.4-.7.7-.2.3-.3.6-.3 1s.1.7.2.9c.1.2.4.5.9.6.4.2 1 .4 1.8.6.7.2 1.7.5 2.9.8.4.1.9.2 1.5.4s1.3.5 1.9.9c.6.4 1.2 1 1.6 1.7.5.7.7 1.6.7 2.7 0 .9-.2 1.7-.5 2.5s-.9 1.4-1.5 2c-.7.5-1.5 1-2.5 1.3-1 .3-2.2.5-3.5.5-1.1 0-2.1-.1-3.1-.4s-1.9-.7-2.6-1.2c-.8-.6-1.4-1.3-1.8-2.1-.5-.9-.7-1.9-.6-3.1h4.1c-.1.6 0 1.2.2 1.6zM313 68v-2h-.1c-.5.8-1.1 1.4-1.9 1.8-.8.4-1.6.5-2.4.5-1 0-1.9-.1-2.5-.4-.7-.3-1.2-.7-1.6-1.1s-.6-1.1-.8-1.8c-.2-.7-.2-1.5-.2-2.4V54h3.8v7.9c0 1.2.2 2 .5 2.6.4.6 1 .8 1.9.8 1 0 1.8-.3 2.3-.9.5-.6.7-1.6.7-3.1V54h3.8v14H313zM323.2 54v1.8h.1c.5-.8 1.1-1.3 1.8-1.6.7-.3 1.5-.5 2.4-.5 1.1 0 2 .2 2.8.6s1.4 1 2 1.6c.5.7.9 1.5 1.2 2.4.3.9.4 1.9.4 2.8 0 .9-.1 1.8-.4 2.7-.3.9-.6 1.6-1.1 2.3-.5.7-1.2 1.2-1.9 1.6s-1.7.6-2.7.6c-.9 0-1.7-.2-2.4-.5-.7-.4-1.3-.9-1.8-1.6h-.1v6.6h-3.8V54h3.5zm5 11.1c.4-.3.8-.6 1-1 .3-.4.4-.9.6-1.4s.2-1.1.2-1.6c0-.6-.1-1.1-.2-1.6s-.3-1-.6-1.4-.6-.8-1-1c-.4-.3-.9-.4-1.6-.4-.6 0-1.2.1-1.6.4-.4.3-.8.6-1 1-.3.4-.4.9-.6 1.4s-.2 1.1-.2 1.7c0 .6.1 1.1.2 1.6s.3 1 .6 1.4c.3.4.6.7 1 1s1 .4 1.6.4c.6-.1 1.1-.3 1.6-.5zM339.7 54v1.8h.1c.5-.8 1.1-1.3 1.8-1.6.7-.3 1.5-.5 2.4-.5 1.1 0 2 .2 2.8.6s1.4 1 2 1.6c.5.7.9 1.5 1.2 2.4.3.9.4 1.9.4 2.8 0 .9-.1 1.8-.4 2.7-.3.9-.6 1.6-1.1 2.3-.5.7-1.2 1.2-1.9 1.6s-1.7.6-2.7.6c-.9 0-1.7-.2-2.4-.5-.7-.4-1.3-.9-1.8-1.6h-.1v6.6h-4V54h3.7zm5 11.1c.4-.3.8-.6 1-1 .3-.4.4-.9.6-1.4s.2-1.1.2-1.6c0-.6-.1-1.1-.2-1.6s-.3-1-.6-1.4-.6-.8-1-1c-.4-.3-.9-.4-1.6-.4-.6 0-1.2.1-1.6.4-.4.3-.8.6-1 1-.3.4-.4.9-.6 1.4s-.2 1.1-.2 1.7c0 .6.1 1.1.2 1.6s.3 1 .6 1.4c.3.4.6.7 1 1s1 .4 1.6.4c.6-.1 1.1-.3 1.6-.5zM356.5 48.7V68h-3.8V48.7h3.8zM363.6 64.6c.6.6 1.4.8 2.5.8.8 0 1.4-.2 2-.6.6-.4.9-.8 1-1.2h3.4c-.5 1.7-1.4 2.9-2.5 3.6s-2.5 1.1-4 1.1c-1.1 0-2.1-.2-3-.5-.9-.4-1.6-.9-2.2-1.5-.6-.6-1.1-1.4-1.4-2.3-.3-.9-.5-1.9-.5-3 0-1 .2-2 .5-2.9s.8-1.7 1.5-2.3c.6-.7 1.4-1.2 2.3-1.6.9-.4 1.8-.6 2.9-.6 1.2 0 2.2.2 3.1.7s1.6 1.1 2.2 1.8c.6.8 1 1.7 1.2 2.6.3 1 .3 2 .3 3.1h-10.1c-.1 1.4.2 2.3.8 2.8zm4.3-7.3c-.5-.5-1.2-.8-2.1-.8-.6 0-1.1.1-1.5.3-.4.2-.7.5-1 .8-.2.3-.4.6-.5 1-.1.3-.2.6-.2.9h6.2c-.1-1-.4-1.7-.9-2.2zM378.7 54v1.9h.1c.5-.7 1.1-1.3 1.8-1.7.7-.4 1.5-.6 2.4-.6.9 0 1.7.2 2.4.5s1.3.9 1.7 1.8c.4-.6 1-1.2 1.7-1.6s1.6-.7 2.5-.7c.7 0 1.4.1 2.1.3.6.2 1.2.5 1.6.9.5.4.8.9 1.1 1.6s.4 1.4.4 2.3V68h-3.8v-7.9c0-.5 0-.9-.1-1.3 0-.4-.1-.8-.3-1.1-.2-.3-.4-.5-.7-.7-.3-.2-.7-.3-1.3-.3s-1 .1-1.3.3c-.3.2-.6.5-.8.8-.2.3-.3.7-.4 1.1-.1.4-.1.9-.1 1.3V68h-3.8v-7.8V59c0-.4-.1-.8-.2-1.1s-.4-.6-.7-.8c-.3-.2-.8-.3-1.4-.3-.2 0-.4 0-.7.1s-.6.2-.9.5c-.3.2-.5.5-.7 1-.2.4-.3 1-.3 1.7V68h-3.8V54h3.5zM403.6 64.6c.6.6 1.4.8 2.5.8.8 0 1.4-.2 2-.6.6-.4.9-.8 1-1.2h3.4c-.5 1.7-1.4 2.9-2.5 3.6s-2.5 1.1-4 1.1c-1.1 0-2.1-.2-3-.5-.9-.4-1.6-.9-2.2-1.5-.6-.6-1.1-1.4-1.4-2.3-.3-.9-.5-1.9-.5-3 0-1 .2-2 .5-2.9s.8-1.7 1.5-2.3c.6-.7 1.4-1.2 2.3-1.6.9-.4 1.8-.6 2.9-.6 1.2 0 2.2.2 3.1.7s1.6 1.1 2.2 1.8c.6.8 1 1.7 1.2 2.6.3 1 .3 2 .3 3.1h-10.1c-.1 1.4.2 2.3.8 2.8zm4.3-7.3c-.5-.5-1.2-.8-2.1-.8-.6 0-1.1.1-1.5.3-.4.2-.7.5-1 .8-.2.3-.4.6-.5 1-.1.3-.2.6-.2.9h6.2c-.1-1-.5-1.7-.9-2.2zM418.6 54v2h.1c.5-.8 1.1-1.4 1.9-1.8.8-.4 1.6-.6 2.4-.6 1 0 1.9.1 2.5.4.7.3 1.2.7 1.6 1.2.4.5.6 1.1.8 1.8s.2 1.5.2 2.4V68h-3.8v-7.9c0-1.2-.2-2-.5-2.6-.4-.6-1-.9-1.9-.9-1 0-1.8.3-2.3.9-.5.6-.7 1.6-.7 3.1V68h-3.8V54h3.5zM438.6 54v2.6h-2.8v6.9c0 .6.1 1.1.3 1.3.2.2.6.3 1.3.3h.6c.2 0 .4 0 .6-.1v3c-.3.1-.7.1-1.1.1h-1.2c-.6 0-1.2 0-1.7-.1s-1-.2-1.4-.5c-.4-.2-.7-.6-1-1-.2-.4-.4-1-.4-1.7v-8.2h-2.3V54h2.3v-4.2h3.8V54h3zM440.3 58.3c.1-.9.3-1.6.7-2.2.4-.6.9-1.1 1.5-1.4.6-.4 1.3-.6 2.1-.8.8-.2 1.5-.2 2.3-.2.7 0 1.4 0 2.1.1.7.1 1.4.3 2 .6.6.3 1.1.7 1.5 1.2.4.5.6 1.2.6 2v7.3c0 .6 0 1.2.1 1.8s.2 1 .4 1.3h-3.9c-.1-.2-.1-.4-.2-.7 0-.2-.1-.5-.1-.7-.6.6-1.3 1.1-2.2 1.3-.8.3-1.7.4-2.5.4-.7 0-1.3-.1-1.9-.2-.6-.2-1.1-.4-1.5-.8-.4-.3-.8-.8-1-1.3-.2-.5-.4-1.1-.4-1.9 0-.8.1-1.4.4-2s.6-.9 1.1-1.2c.4-.3.9-.5 1.5-.7.6-.2 1.1-.3 1.7-.4s1.1-.2 1.7-.2c.6-.1 1.1-.1 1.5-.2.4-.1.8-.3 1-.5s.4-.5.4-.9-.1-.7-.2-1c-.1-.2-.3-.4-.5-.6-.2-.1-.5-.2-.8-.3-.3 0-.6-.1-1-.1-.8 0-1.3.2-1.8.5-.4.3-.7.9-.8 1.6h-3.8zm8.9 2.8c-.2.1-.4.3-.6.3-.2.1-.5.1-.8.2-.3.1-.6.1-.9.1-.3 0-.6.1-.9.1-.3.1-.6.1-.9.2s-.5.2-.7.4c-.2.2-.4.3-.5.6-.1.2-.2.5-.2.9 0 .3.1.6.2.9.1.2.3.4.5.6.2.1.5.2.8.3.3.1.6.1.9.1.8 0 1.3-.1 1.8-.4.4-.3.7-.6.9-.9.2-.4.3-.7.4-1.1 0-.4.1-.6.1-.9v-1.4zM459.9 48.7V68h-3.8V48.7h3.8z"/></g></svg>