<svg id="Layer_1" xmlns="http://www.w3.org/2000/svg" xmlns:xlink="http://www.w3.org/1999/xlink" viewBox="0 0 320 50"><style>.st0{clip-path:url(#SVGID_00000016053876337407912190000002264051717277381298_);fill:#439d51}.st1{fill:#fff}</style><defs><path id="SVGID_1_" d="M224.8 10.3h76.5v16.1h-76.5z"/></defs><clipPath id="SVGID_00000124841522633091525520000010176642929232527252_"><use xlink:href="#SVGID_1_" overflow="visible"/></clipPath><path d="M301.2 18.3c0 4.4-4.2 8.1-9.3 8.1H234c-5.1 0-9.3-3.6-9.3-8.1s4.2-8.1 9.3-8.1h58c5.1.1 9.2 3.7 9.2 8.1" clip-path="url(#SVGID_00000124841522633091525520000010176642929232527252_)" fill="#439d51"/><g><path class="st1" d="M243.6 15.9v1h-2.5V18h2.2v.9h-2.2V21H240v-5.1h3.6zM247.1 15.9c.2 0 .4 0 .6.1.2.1.3.2.5.3.1.1.2.3.3.5.1.2.1.4.1.6 0 .3-.1.6-.2.8-.1.2-.3.4-.6.5.1 0 .3.1.3.2.1.1.2.2.2.3.1.1.1.2.1.4 0 .1 0 .3.1.4v.6c0 .1 0 .2.1.3 0 .1.1.2.1.3h-1.1c-.1-.2-.1-.4-.1-.6 0-.2 0-.4-.1-.6 0-.3-.1-.5-.2-.6s-.3-.2-.6-.2h-1.1v2h-1.1v-5.1h2.7zm-.4 2.3c.3 0 .5-.1.6-.2s.2-.3.2-.6c0-.2-.1-.4-.2-.5s-.3-.2-.6-.2h-1.2v1.4h1.2zM253.3 15.9v1h-2.7V18h2.5v.9h-2.5v1.3h2.8v1h-3.9v-5.1h3.8zM258 15.9v1h-2.7V18h2.5v.9h-2.5v1.3h2.8v1h-3.9v-5.1h3.8zM264.4 20.9c-.3.2-.8.3-1.2.3-.4 0-.7-.1-1.1-.2-.3-.1-.6-.3-.8-.6-.2-.2-.4-.5-.5-.8-.1-.3-.2-.7-.2-1 0-.4.1-.7.2-1.1.1-.3.3-.6.5-.9.2-.2.5-.4.8-.6s.7-.2 1.1-.2c.4 0 .8.1 1.1.2.3.1.6.3.8.6.2.2.4.5.5.9.1.3.2.7.2 1.1 0 .4-.1.7-.2 1s-.3.6-.5.8l.6.6-.5.5-.8-.6zm-.2-1.2c.1-.1.2-.3.2-.5.1-.2.1-.4.1-.7 0-.2 0-.4-.1-.7 0-.2-.1-.4-.2-.6-.1-.2-.3-.3-.4-.4-.2-.1-.4-.1-.6-.1-.3 0-.5 0-.6.1-.2.1-.3.2-.4.4-.1.2-.2.4-.2.6 0 .2-.1.4-.1.7 0 .2 0 .4.1.6.1.2.1.4.2.5.1.2.3.3.4.4.2.1.4.1.6.1h.3c.1 0 .1 0 .2-.1l-.5-.4.5-.6.5.7zM270.2 20.7c-.4.3-.9.5-1.6.5-.7 0-1.2-.2-1.6-.5s-.6-.9-.6-1.6v-3.2h1.1v3.6c0 .1.1.3.2.4l.3.3c.1.1.3.1.6.1.4 0 .7-.1.8-.3.2-.2.2-.5.2-.8V16h1.1v3.2c.1.6-.1 1.1-.5 1.5zM271.7 17.4c.1-.3.3-.6.5-.9.2-.2.5-.4.8-.6s.7-.2 1.1-.2c.4 0 .8.1 1.1.2.3.1.6.3.8.6.2.2.4.5.5.9.1.3.2.7.2 1.1 0 .4-.1.7-.2 1-.1.3-.3.6-.5.8-.2.2-.5.4-.8.6-.3.1-.7.2-1.1.2-.4 0-.7-.1-1.1-.2-.3-.1-.6-.3-.8-.6-.2-.2-.4-.5-.5-.8-.1-.3-.2-.7-.2-1 0-.4.1-.7.2-1.1zm1 1.7c.1.2.1.4.2.6s.3.3.4.4c.2.1.4.1.6.1.3 0 .5 0 .6-.1.2-.1.3-.2.4-.4s.2-.3.2-.6c.1-.2.1-.4.1-.6 0-.2 0-.4-.1-.7 0-.2-.1-.4-.2-.6s-.3-.3-.4-.4c-.2-.1-.4-.1-.6-.1-.3 0-.5 0-.6.1-.2.1-.3.2-.4.4s-.2.4-.2.6c0 .2-.1.4-.1.7.1.2.1.4.1.6zM277 16.9v-1h4.2v1h-1.5v4.2h-1.1v-4.2H277zM285.6 15.9v1h-2.7V18h2.5v.9h-2.5v1.3h2.8v1h-3.9v-5.1h3.8z"/></g></svg>