<svg id="Layer_1" xmlns="http://www.w3.org/2000/svg" xmlns:xlink="http://www.w3.org/1999/xlink" viewBox="0 0 728 90"><style>.st0{clip-path:url(#SVGID_00000178922693552914771430000003590435930678851736_);fill:#439d51}.st1{fill:#fff}</style><defs><path id="SVGID_1_" d="M531.6 15.7H690v33.4H531.6z"/></defs><clipPath id="SVGID_00000147222636040750486150000000223524849659166865_"><use xlink:href="#SVGID_1_" overflow="visible"/></clipPath><path d="M690 32.4c0 9.2-8.6 16.7-19.2 16.7h-120c-10.5 0-19.2-7.5-19.2-16.7s8.6-16.7 19.2-16.7h120c10.5 0 19.2 7.5 19.2 16.7" clip-path="url(#SVGID_00000147222636040750486150000000223524849659166865_)" fill="#439d51"/><g><path class="st1" d="M570.7 27.4v2h-5.1v2.5h4.5v1.8h-4.5v4.4h-2.3V27.4h7.4zM577.8 27.4c.5 0 .9.1 1.3.2.4.2.7.4 1 .6s.5.6.6.9c.1.4.2.7.2 1.1 0 .6-.1 1.2-.4 1.6s-.7.8-1.3 1c.3.1.5.2.7.4.2.2.3.4.5.6.1.2.2.5.3.7.1.3.1.5.1.8v.6c0 .2 0 .5.1.7 0 .2.1.5.1.7s.1.4.2.5h-2.3c-.1-.3-.2-.7-.2-1.2s-.1-.9-.1-1.3c-.1-.6-.2-1-.5-1.2-.3-.3-.7-.4-1.3-.4h-2.3v4.2H572V27.4h5.8zm-.8 4.8c.5 0 .9-.1 1.2-.4.3-.2.4-.6.4-1.2 0-.5-.1-.9-.4-1.1-.3-.2-.7-.4-1.2-.4h-2.6v3h2.6zM590.8 27.4v2h-5.6v2.3h5.2v1.8h-5.2v2.6h5.7v2h-8.1V27.4h8zM600.4 27.4v2h-5.6v2.3h5.2v1.8h-5.2v2.6h5.7v2h-8.1V27.4h8zM613.6 37.7c-.7.4-1.6.6-2.6.6-.8 0-1.5-.1-2.2-.4-.7-.3-1.2-.7-1.6-1.2-.4-.5-.8-1.1-1-1.8-.2-.7-.4-1.4-.4-2.2 0-.8.1-1.5.4-2.2s.6-1.3 1-1.8 1-.9 1.6-1.2c.7-.3 1.4-.4 2.2-.4.8 0 1.6.1 2.2.4.6.3 1.2.7 1.6 1.2.4.5.8 1.1 1 1.8.2.7.4 1.4.4 2.2 0 .8-.1 1.5-.4 2.2-.2.7-.6 1.3-1 1.8l1.3 1.2L615 39l-1.4-1.3zm-.3-2.5c.2-.3.4-.6.5-1s.2-.9.2-1.4c0-.5-.1-.9-.2-1.4-.1-.4-.3-.8-.5-1.2s-.5-.6-.9-.8c-.4-.2-.8-.3-1.3-.3s-1 .1-1.3.3c-.4.2-.7.5-.9.8-.2.3-.4.7-.5 1.2-.1.4-.2.9-.2 1.4 0 .4.1.9.2 1.3s.3.8.5 1.1c.2.3.5.6.9.8.4.2.8.3 1.3.3h.6c.1 0 .3-.1.4-.1l-1-.9 1.1-1.2 1.1 1.1zM625.7 37.2c-.8.7-1.9 1.1-3.3 1.1s-2.6-.3-3.3-1c-.8-.7-1.2-1.8-1.2-3.2v-6.6h2.3V34c0 .3 0 .6.1.9 0 .3.2.5.3.7s.4.4.7.5.7.2 1.1.2c.8 0 1.4-.2 1.7-.6.3-.4.5-1 .5-1.8v-6.6h2.3V34c0 1.5-.4 2.5-1.2 3.2zM628.8 30.6c.2-.7.6-1.3 1-1.8s1-.9 1.6-1.2c.7-.3 1.4-.4 2.2-.4.8 0 1.6.1 2.2.4.6.3 1.2.7 1.6 1.2.4.5.8 1.1 1 1.8.2.7.4 1.4.4 2.2 0 .8-.1 1.5-.4 2.2-.2.7-.6 1.3-1 1.8s-1 .9-1.6 1.2c-.6.3-1.4.4-2.2.4-.8 0-1.5-.1-2.2-.4-.7-.3-1.2-.7-1.6-1.2-.4-.5-.8-1.1-1-1.8-.2-.7-.4-1.4-.4-2.2.1-.8.2-1.6.4-2.2zm2.2 3.5c.1.4.3.8.5 1.1.2.3.5.6.9.8.4.2.8.3 1.3.3s1-.1 1.3-.3c.4-.2.7-.5.9-.8s.4-.7.5-1.1.2-.9.2-1.3c0-.5-.1-.9-.2-1.4s-.3-.8-.5-1.2c-.2-.3-.5-.6-.9-.8-.4-.2-.8-.3-1.3-.3s-1 .1-1.3.3c-.4.2-.7.5-.9.8-.2.3-.4.7-.5 1.2s-.2.9-.2 1.4c0 .4.1.9.2 1.3zM639.7 29.4v-2h8.7v2h-3.2v8.7h-2.3v-8.7h-3.2zM657.6 27.4v2H652v2.3h5.2v1.8H652v2.6h5.7v2h-8.1V27.4h8z"/></g></svg>