<svg id="Layer_1" xmlns="http://www.w3.org/2000/svg" xmlns:xlink="http://www.w3.org/1999/xlink" viewBox="0 0 728 90"><style>.st0,.st1{clip-path:url(#SVGID_00000176035311362274644020000013965446174813782435_);fill:#231f20}.st1{fill:#00b2ee}</style><defs><path id="SVGID_1_" d="M87.9 16.5H166V43H87.9z"/></defs><clipPath id="SVGID_00000050638006231035740880000003445643004875168660_"><use xlink:href="#SVGID_1_" overflow="visible"/></clipPath><path d="M88.4 30.8h4.2c3.3 0 4 2.2 4 3.6s-.6 3.6-4 3.6h-2.1v4.5h-2V30.8zm2.1 5.5h2c.9 0 2-.5 2-1.9 0-1.5-.9-1.9-2-1.9h-2.1v3.8zM97.8 34h1.7v1.6c.2-.9 1.3-1.9 2.5-1.9h.7v1.8c-.3 0-.5-.1-.8-.1-1.3 0-2.3 1-2.3 2.9v4h-1.9V34zM103 38.2c0-2.6 1.5-4.4 4.3-4.4 2.7 0 4.3 1.9 4.3 4.4 0 2.6-1.5 4.4-4.3 4.4-2.8.1-4.3-1.8-4.3-4.4m6.6 0c0-1.4-.7-3-2.4-3s-2.4 1.5-2.4 3 .7 3 2.4 3 2.4-1.5 2.4-3M111.7 34h1.5v-2.5h1.8V34h1.7v1.4H115v4.5c0 .8.1 1.2.9 1.2.3 0 .5 0 .8-.1v1.4c-.4 0-.8.1-1.2.1-1.9 0-2.3-.7-2.3-2.2v-5h-1.4V34zM119.3 38.7c0 1.3.7 2.5 2.3 2.5 1.1 0 1.7-.5 2.1-1.4h1.8c-.4 1.8-2 2.9-3.8 2.9-2.6 0-4.1-1.8-4.1-4.4 0-2.4 1.6-4.4 4.1-4.4 2.7 0 4.3 2.4 4 4.9h-6.4zm4.4-1.2c-.1-1.2-.9-2.2-2.1-2.2-1.3 0-2.2 1-2.2 2.2h4.3zM132.5 36.8c-.1-1-.9-1.6-1.9-1.6-1 0-2.3.5-2.3 3.1 0 1.4.6 2.9 2.2 2.9 1.1 0 1.8-.7 2-1.9h1.9c-.3 2.2-1.7 3.4-3.9 3.4-2.6 0-4.1-1.9-4.1-4.3 0-2.5 1.4-4.5 4.2-4.5 2 0 3.6 1 3.8 3h-1.9zM134.9 34h1.4v-2.5h1.9V34h1.7v1.4h-1.7v4.5c0 .8.1 1.2.9 1.2.3 0 .5 0 .8-.1v1.4c-.4 0-.8.1-1.2.1-1.9 0-2.3-.7-2.3-2.2v-5H135V34zM142 30.8h1.9v1.8H142v-1.8zm0 3.2h1.9v8.4H142V34zM145.2 34h2l2.6 6.5 2.6-6.5h1.9l-3.5 8.4h-2.1zM156.6 38.7c0 1.3.7 2.5 2.3 2.5 1.1 0 1.7-.5 2.1-1.4h1.8c-.4 1.8-2 2.9-3.8 2.9-2.6 0-4.1-1.8-4.1-4.4 0-2.4 1.6-4.4 4.1-4.4 2.7 0 4.3 2.4 4 4.9h-6.4zm4.3-1.2c-.1-1.2-.9-2.2-2.1-2.2-1.3 0-2.2 1-2.2 2.2h4.3z" clip-path="url(#SVGID_00000050638006231035740880000003445643004875168660_)" fill="#231f20"/><path d="M138.5 28.9c-1.2-4.6-4.9-8.3-9.5-9.4-.4-1.4-1.7-2.5-3.3-2.5s-2.9 1-3.3 2.5c-4.6 1.2-8.3 4.8-9.5 9.4l-.1.5h2.8l.1-.3c1.1-3.4 3.7-6 7.1-6.9.6 1 1.7 1.7 3 1.7s2.4-.7 3-1.7c3.3 1 6 3.6 7.1 6.9l.1.3h2.8l-.3-.5z" clip-path="url(#SVGID_00000050638006231035740880000003445643004875168660_)" fill="#00b2ee"/><path d="M164.7 41c.5 0 .8.4.8.8 0 .5-.4.8-.8.8s-.8-.4-.8-.8.4-.8.8-.8m.7.8c0-.4-.3-.7-.7-.7s-.7.3-.7.7c0 .4.3.7.7.7s.7-.3.7-.7m-1-.5h.4c.2 0 .3.1.3.3 0 .2-.1.3-.3.3l.3.4h-.1l-.3-.4h-.2v.4h-.1v-1zm.3.5c.1 0 .3 0 .3-.2 0-.1-.1-.1-.2-.1h-.2v.3h.1z" clip-path="url(#SVGID_00000050638006231035740880000003445643004875168660_)" fill="#231f20"/></svg>