<svg id="Layer_1" xmlns="http://www.w3.org/2000/svg" viewBox="0 0 160 600"><style>.st0{fill:#231f20}</style><path class="st0" d="M18.2 181.2l5.3 14.3h-3.3l-1.1-3.2h-5.3l-1.1 3.2H9.6l5.4-14.3h3.2zm.2 8.7l-1.8-5.2-1.9 5.2h3.7zM27 185.1v1.4h.1c.4-.6.8-1 1.4-1.3.6-.3 1.2-.4 1.8-.4.8 0 1.4.1 1.9.3.5.2.9.5 1.1.9.3.4.5.8.6 1.3s.2 1.1.2 1.8v6.4h-2.8v-5.8c0-.9-.1-1.5-.4-1.9-.3-.4-.7-.6-1.4-.6-.8 0-1.3.2-1.7.7s-.5 1.2-.5 2.3v5.4h-2.8v-10.3H27zM43.3 194.1c-.3.6-.8 1-1.3 1.2s-1.1.4-1.8.4c-.8 0-1.5-.1-2-.4-.6-.3-1.1-.7-1.5-1.2-.4-.5-.7-1.1-.9-1.8-.2-.7-.3-1.4-.3-2.1 0-.7.1-1.4.3-2 .2-.6.5-1.2.9-1.7s.9-.9 1.4-1.2c.6-.3 1.2-.5 2-.5.6 0 1.2.1 1.8.4.6.3 1 .6 1.3 1.1v-5.2H46v14.3h-2.7v-1.3zm-.1-5.1c-.1-.4-.2-.7-.4-1-.2-.3-.4-.5-.8-.7-.3-.2-.7-.3-1.2-.3s-.9.1-1.2.3c-.3.2-.6.4-.8.7s-.3.7-.4 1c-.1.4-.1.8-.1 1.2 0 .4 0 .8.1 1.2.1.4.2.8.4 1.1.2.3.5.6.8.8.3.2.7.3 1.1.3.5 0 .9-.1 1.2-.3.3-.2.6-.4.8-.8.2-.3.3-.7.4-1.1.1-.4.1-.8.1-1.2.1-.4.1-.8 0-1.2zM63.1 196.2c-.1.5-.4 1-.7 1.5-.4.5-.9.9-1.6 1.2-.7.3-1.7.5-2.8.5-.5 0-1-.1-1.6-.2-.5-.1-1-.3-1.4-.6-.4-.3-.8-.6-1.1-1s-.4-.9-.5-1.5h2.8c.1.5.4.9.8 1.1.4.2.8.3 1.3.3.8 0 1.4-.2 1.8-.7s.5-1.1.5-1.8v-1.4c-.3.5-.7.9-1.3 1.2-.6.3-1.2.4-1.8.4-.8 0-1.4-.1-2-.4-.6-.3-1-.6-1.4-1.1-.4-.5-.6-1-.8-1.7-.2-.6-.2-1.3-.2-2s.1-1.3.3-1.9c.2-.6.5-1.2.9-1.6.4-.5.8-.9 1.4-1.1.6-.3 1.2-.4 1.9-.4s1.3.1 1.8.4c.5.3.9.7 1.3 1.3v-1.4h2.7v9.7c-.1.2-.1.7-.3 1.2zm-3.8-3.4c.3-.2.6-.4.8-.6.2-.3.3-.6.4-.9s.1-.7.1-1.1c0-.4 0-.8-.1-1.2-.1-.4-.2-.7-.4-1-.2-.3-.4-.5-.7-.7-.3-.2-.7-.3-1.2-.3-.4 0-.7.1-1 .2-.3.2-.5.4-.7.7s-.3.6-.4.9c-.1.4-.1.7-.1 1.1 0 .4 0 .7.1 1.1.1.4.2.7.4 1 .2.3.4.5.7.7.3.2.7.3 1.1.3.3 0 .7-.1 1-.2zM68.4 193c.4.4 1 .6 1.8.6.6 0 1.1-.1 1.5-.4.4-.3.7-.6.8-.9H75c-.4 1.2-1 2.1-1.8 2.7-.8.5-1.8.8-3 .8-.8 0-1.5-.1-2.2-.4-.7-.3-1.2-.6-1.7-1.1-.5-.5-.8-1.1-1-1.7-.2-.7-.4-1.4-.4-2.2 0-.8.1-1.5.4-2.2s.6-1.2 1.1-1.7 1-.9 1.7-1.2c.6-.3 1.4-.4 2.2-.4.9 0 1.6.2 2.3.5.7.3 1.2.8 1.6 1.4.4.6.7 1.2.9 2s.3 1.5.2 2.3h-7.5c0 .8.2 1.5.6 1.9zm3.2-5.5c-.3-.4-.9-.6-1.5-.6-.5 0-.8.1-1.1.2-.3.2-.5.3-.7.6-.2.2-.3.5-.4.7-.1.3-.1.5-.1.7h4.6c-.2-.7-.4-1.2-.8-1.6zM82.4 185.1v1.9h-2.1v5.1c0 .5.1.8.2 1 .2.2.5.2 1 .2h.5c.1 0 .3 0 .4-.1v2.2c-.2 0-.5.1-.8.1h-.9c-.4 0-.9 0-1.2-.1-.4-.1-.7-.2-1-.3-.3-.2-.5-.4-.7-.7-.2-.3-.3-.7-.3-1.3V187h-1.7v-1.9h1.7V182h2.8v3.1h2.1zM96.2 199.1v-4.9c-.3.6-.8 1-1.4 1.2-.6.2-1.2.4-1.9.4-.5 0-1-.1-1.5-.3-.5-.2-1-.5-1.4-.9s-.8-1-1.1-1.7c-.3-.7-.4-1.5-.4-2.5 0-.7.1-1.4.3-2.1.2-.7.5-1.3.9-1.8s.9-.9 1.5-1.2c.6-.3 1.3-.5 2-.5.6 0 1.2.1 1.8.4.6.2 1 .7 1.3 1.2v-1.3H99v14h-2.8zm-4.7-7.6c.1.4.2.7.4 1.1.2.3.4.6.8.8.3.2.7.3 1.2.3s.9-.1 1.2-.3c.3-.2.6-.4.8-.7.2-.3.3-.6.4-1 .1-.4.1-.8.1-1.2 0-.4 0-.8-.1-1.2-.1-.4-.2-.8-.4-1.1-.2-.3-.4-.6-.8-.8-.3-.2-.7-.3-1.1-.3-.5 0-.9.1-1.2.3-.3.2-.6.4-.8.8-.2.3-.3.7-.4 1.1-.1.4-.1.8-.1 1.2-.2.2-.1.6 0 1zM108 195.4V194h-.1c-.4.6-.8 1-1.4 1.3s-1.2.4-1.8.4c-.8 0-1.4-.1-1.9-.3-.5-.2-.9-.5-1.2-.9-.3-.4-.5-.8-.6-1.3-.1-.5-.2-1.1-.2-1.8V185h2.8v5.8c0 .9.1 1.5.4 1.9.3.4.7.6 1.4.6.8 0 1.3-.2 1.7-.7s.5-1.2.5-2.3v-5.4h2.8v10.3H108zM112.5 188.3c0-.7.2-1.2.5-1.7s.7-.8 1.1-1.1 1-.5 1.5-.6c.6-.1 1.1-.2 1.7-.2.5 0 1 0 1.6.1.5.1 1 .2 1.5.4.4.2.8.5 1.1.9.3.4.4.9.4 1.5v5.4c0 .5 0 .9.1 1.3s.1.7.3 1h-2.9c-.1-.2-.1-.3-.1-.5s-.1-.3-.1-.5c-.5.5-1 .8-1.6 1s-1.2.3-1.9.3c-.5 0-1-.1-1.4-.2s-.8-.3-1.1-.6c-.3-.3-.6-.6-.8-1s-.3-.8-.3-1.4c0-.6.1-1.1.3-1.5.2-.4.5-.7.8-.9.3-.2.7-.4 1.1-.5s.8-.2 1.3-.3c.4-.1.8-.1 1.3-.2.4 0 .8-.1 1.1-.2.3-.1.6-.2.8-.4s.3-.4.3-.7c0-.3 0-.6-.1-.7-.1-.2-.2-.3-.4-.4-.2-.1-.4-.2-.6-.2-.2 0-.5-.1-.7-.1-.6 0-1 .1-1.3.4-.3.2-.5.6-.6 1.2h-2.9zm6.6 2.1c-.1.1-.3.2-.4.2-.2.1-.4.1-.6.1-.2 0-.4.1-.7.1-.2 0-.5.1-.7.1-.2 0-.4.1-.6.2-.2.1-.4.2-.5.3l-.4.4c-.1.2-.1.4-.1.7 0 .3 0 .5.1.6.1.2.2.3.4.4s.3.2.6.2c.2 0 .4.1.7.1.6 0 1-.1 1.3-.3.3-.2.5-.4.7-.7.1-.3.2-.5.3-.8s0-.5 0-.6v-1zM126.9 181.2v14.3H124v-14.3h2.9zM129 183.5v-2.3h2.8v2.3H129zm2.8 1.6v10.3H129v-10.3h2.8zM139.6 185.1v1.9h-2.1v5.1c0 .5.1.8.2 1 .2.2.5.2 1 .2h.5c.1 0 .3 0 .4-.1v2.2c-.2 0-.5.1-.8.1h-.9c-.4 0-.9 0-1.2-.1-.4-.1-.7-.2-1-.3-.3-.2-.5-.4-.7-.7-.2-.3-.3-.7-.3-1.3V187H133v-1.9h1.7V182h2.8v3.1h2.1z"/><path class="st0" d="M144.6 198.5c-.5.4-1.3.5-2.3.5h-.9c-.3 0-.6 0-.9-.1v-2.3c.3 0 .5.1.8.1h.8c.4 0 .7-.2.8-.4s.3-.5.3-.8c0-.2 0-.4-.1-.6l-3.6-9.7h3l2.3 7.1 2.3-7.1h2.9l-4.3 11.6c-.2.8-.6 1.4-1.1 1.7z"/><g><path class="st0" d="M19.8 208.7c-.5 0-.8.1-1.1.3-.3.2-.6.5-.8.8-.2.3-.3.7-.4 1.1-.1.4-.1.8-.1 1.2 0 .4 0 .8.1 1.1.1.4.2.7.4 1 .2.3.4.6.7.8.3.2.7.3 1.1.3.7 0 1.2-.2 1.6-.6.4-.4.6-.9.7-1.5h2.7c-.2 1.4-.7 2.4-1.6 3.1-.9.7-2 1.1-3.4 1.1-.8 0-1.5-.1-2.1-.4-.6-.3-1.2-.6-1.6-1.1-.5-.5-.8-1-1.1-1.7-.3-.6-.4-1.4-.4-2.1 0-.8.1-1.5.4-2.2.2-.7.6-1.3 1-1.8.5-.5 1-.9 1.7-1.2.7-.3 1.4-.4 2.2-.4.6 0 1.2.1 1.8.2.6.2 1.1.4 1.5.7.4.3.8.7 1.1 1.2.3.5.4 1.1.5 1.7h-2.8c-.2-1-.9-1.6-2.1-1.6zM26.2 209.7c.3-.7.6-1.2 1.1-1.7.5-.5 1-.8 1.7-1.1.7-.3 1.4-.4 2.2-.4.8 0 1.5.1 2.2.4.7.3 1.2.6 1.7 1.1s.8 1 1.1 1.7c.3.7.4 1.4.4 2.2 0 .8-.1 1.6-.4 2.2-.3.7-.6 1.2-1.1 1.7-.5.5-1 .8-1.7 1.1-.7.3-1.4.4-2.2.4-.8 0-1.5-.1-2.2-.4-.7-.3-1.2-.6-1.7-1.1-.5-.5-.8-1-1.1-1.7-.3-.7-.4-1.4-.4-2.2 0-.7.1-1.5.4-2.2zm2.6 3.5c.1.4.2.7.4 1.1.2.3.5.6.8.8.3.2.7.3 1.2.3s.9-.1 1.2-.3c.3-.2.6-.4.8-.8.2-.3.3-.7.4-1.1.1-.4.1-.8.1-1.2 0-.4 0-.8-.1-1.2s-.2-.8-.4-1.1-.5-.6-.8-.8c-.3-.2-.7-.3-1.2-.3s-.9.1-1.2.3c-.3.2-.6.4-.8.8s-.3.7-.4 1.1c-.1.4-.1.8-.1 1.2-.1.4 0 .8.1 1.2zM40.7 217.1l-3.5-10.3h3l2.2 7.1 2.2-7.1h2.8l-3.5 10.3h-3.2zM51.4 214.7c.4.4 1 .6 1.8.6.6 0 1.1-.1 1.5-.4.4-.3.7-.6.8-.9H58c-.4 1.2-1 2.1-1.8 2.7-.8.5-1.8.8-3 .8-.8 0-1.5-.1-2.2-.4-.7-.3-1.2-.6-1.7-1.1-.5-.5-.8-1.1-1-1.7-.2-.7-.4-1.4-.4-2.2 0-.8.1-1.5.4-2.2.3-.7.6-1.2 1.1-1.7.5-.5 1-.9 1.7-1.2.6-.3 1.4-.4 2.1-.4.9 0 1.6.2 2.3.5.7.3 1.2.8 1.6 1.4.4.6.7 1.2.9 2 .2.7.3 1.5.2 2.3h-7.5c0 .8.3 1.5.7 1.9zm3.2-5.5c-.3-.4-.9-.6-1.6-.6-.5 0-.8.1-1.1.2-.3.2-.5.3-.7.6-.2.2-.3.5-.4.7-.1.3-.1.5-.1.7h4.6c-.1-.7-.4-1.2-.7-1.6zM62.4 206.8v1.9c.1-.3.3-.6.5-.9.2-.3.5-.5.8-.7.3-.2.6-.3.9-.5.3-.1.7-.2 1-.2.2 0 .4 0 .6.1v2.6c-.1 0-.3-.1-.5-.1h-.5c-.5 0-1 .1-1.3.3-.4.2-.6.4-.9.7-.2.3-.4.6-.5 1s-.1.8-.1 1.3v4.7h-2.8v-10.3h2.8zM67.1 210c0-.7.2-1.2.5-1.7s.7-.8 1.1-1.1 1-.5 1.5-.6c.6-.1 1.1-.2 1.7-.2.5 0 1 0 1.6.1.5.1 1 .2 1.5.4.4.2.8.5 1.1.9.3.4.4.9.4 1.5v5.4c0 .5 0 .9.1 1.3s.1.7.3 1H74c-.1-.2-.1-.3-.1-.5s-.1-.3-.1-.5c-.5.5-1 .8-1.6 1s-1.2.3-1.9.3c-.5 0-1-.1-1.4-.2s-.8-.3-1.1-.6c-.3-.3-.6-.6-.8-1s-.3-.8-.3-1.4c0-.6.1-1.1.3-1.5.2-.4.5-.7.8-.9.3-.2.7-.4 1.1-.5s.8-.2 1.3-.3c.4-.1.8-.1 1.3-.2.4 0 .8-.1 1.1-.2.3-.1.6-.2.8-.4s.3-.4.3-.7c0-.3 0-.6-.1-.7-.1-.2-.2-.3-.4-.4-.2-.1-.4-.2-.6-.2-.2 0-.5-.1-.7-.1-.6 0-1 .1-1.3.4-.3.2-.5.6-.6 1.2h-2.9zm6.6 2.1c-.1.1-.3.2-.4.2-.2.1-.4.1-.6.1-.2 0-.4.1-.7.1-.2 0-.5.1-.7.1-.2 0-.4.1-.6.2-.2.1-.4.2-.5.3l-.4.4c-.1.2-.1.4-.1.7 0 .3 0 .5.1.6.1.2.2.3.4.4s.3.2.6.2c.2 0 .4.1.7.1.6 0 1-.1 1.3-.3.3-.2.5-.4.7-.7.1-.3.2-.5.3-.8s0-.5 0-.6v-1zM88.3 217.9c-.1.5-.4 1-.7 1.5-.4.5-.9.9-1.6 1.2-.7.3-1.7.5-2.8.5-.5 0-1-.1-1.5-.2s-1-.3-1.4-.6c-.4-.3-.8-.6-1.1-1s-.5-.9-.5-1.5h2.8c.1.5.4.9.8 1.1.4.2.8.3 1.3.3.8 0 1.4-.2 1.8-.7.4-.5.5-1.1.5-1.8v-1.4c-.3.5-.7.9-1.3 1.2-.6.3-1.2.4-1.8.4-.8 0-1.4-.1-2-.4-.6-.3-1-.6-1.4-1.1-.4-.5-.6-1-.8-1.7-.2-.6-.2-1.3-.2-2s.1-1.3.3-1.9c.2-.6.5-1.2.9-1.6.4-.5.8-.9 1.4-1.1.6-.3 1.2-.4 1.9-.4s1.3.1 1.8.4c.5.3.9.7 1.3 1.3V207h2.7v9.7c-.2.2-.3.7-.4 1.2zm-3.9-3.4c.3-.2.6-.4.8-.6s.4-.6.5-.9.2-.7.2-1.1c0-.4 0-.8-.1-1.2-.1-.4-.2-.7-.4-1-.2-.3-.4-.5-.7-.7-.3-.2-.7-.3-1.2-.3-.4 0-.7.1-1 .2-.3.2-.5.4-.7.7-.2.3-.3.6-.4.9-.1.4-.1.7-.1 1.1 0 .4 0 .7.1 1.1.1.4.2.7.4 1 .2.3.4.5.7.7.3.2.7.3 1.1.3.2 0 .5-.1.8-.2zM93.6 214.7c.4.4 1 .6 1.8.6.6 0 1.1-.1 1.5-.4.4-.3.7-.6.8-.9h2.5c-.4 1.2-1 2.1-1.8 2.7-.8.5-1.8.8-3 .8-.8 0-1.5-.1-2.2-.4-.7-.3-1.2-.6-1.7-1.1-.5-.5-.8-1.1-1-1.7-.2-.7-.4-1.4-.4-2.2 0-.8.1-1.5.4-2.2s.6-1.2 1.1-1.7 1-.9 1.7-1.2c.6-.3 1.4-.4 2.2-.4.9 0 1.6.2 2.3.5.7.3 1.2.8 1.6 1.4.4.6.7 1.2.9 2s.3 1.5.2 2.3H93c0 .8.2 1.5.6 1.9zm3.2-5.5c-.3-.4-.9-.6-1.5-.6-.5 0-.8.1-1.1.2-.3.2-.5.3-.7.6-.2.2-.3.5-.4.7-.1.3-.1.5-.1.7h4.6c-.2-.7-.4-1.2-.8-1.6zM116.1 217.1l-1.8-6.9-1.8 6.9h-2.9l-3.3-10.3h3l1.9 7 1.7-7h2.8l1.8 7 1.9-7h2.9l-3.3 10.3h-2.9zM123.4 205.2v-2.3h2.8v2.3h-2.8zm2.9 1.6v10.3h-2.8v-10.3h2.8zM134 206.8v1.9h-2.1v5.1c0 .5.1.8.2 1 .2.2.5.2 1 .2h.5c.1 0 .3 0 .4-.1v2.2c-.2 0-.5.1-.8.1h-.9c-.4 0-.9 0-1.2-.1-.4-.1-.7-.2-1-.3-.3-.2-.5-.4-.7-.7-.2-.3-.3-.7-.3-1.3v-6.1h-1.7v-1.9h1.7v-3.1h2.8v3.1h2.1zM138 202.9v5.4h.1c.4-.6.8-1 1.4-1.3.6-.3 1.1-.4 1.6-.4.8 0 1.4.1 1.9.3.5.2.9.5 1.1.9.3.4.5.8.6 1.3.1.5.2 1.1.2 1.8v6.4H142v-5.8c0-.9-.1-1.5-.4-1.9s-.7-.6-1.4-.6c-.8 0-1.3.2-1.7.7-.3.5-.5 1.2-.5 2.3v5.4h-2.8v-14.3h2.8z"/></g><g><path class="st0" d="M9.5 236.4c.4.4 1 .6 1.8.6.6 0 1.1-.1 1.5-.4.4-.3.7-.6.8-.9h2.5c-.4 1.2-1 2.1-1.8 2.7-.8.5-1.8.8-3 .8-.8 0-1.5-.1-2.2-.4-.7-.3-1.2-.6-1.7-1.1-.5-.5-.8-1.1-1-1.7-.2-.7-.4-1.4-.4-2.2 0-.8.1-1.5.4-2.2.3-.7.6-1.2 1.1-1.7.5-.5 1-.9 1.7-1.2.6-.3 1.4-.4 2.1-.4.9 0 1.6.2 2.3.5.7.3 1.2.8 1.6 1.4.4.6.7 1.2.9 2 .2.7.3 1.5.2 2.3H8.8c0 .8.3 1.5.7 1.9zm3.2-5.5c-.3-.4-.9-.6-1.6-.6-.5 0-.8.1-1.1.2-.3.2-.5.3-.7.6-.2.2-.3.5-.4.7-.1.3-.1.5-.1.7h4.6c-.1-.7-.4-1.2-.7-1.6zM17 228.5h3.2l1.8 2.7 1.8-2.7H27l-3.4 4.8 3.8 5.5h-3.2l-2.2-3.3-2.2 3.3h-3.2l3.7-5.4-3.3-4.9zM34 228.5v1.9h-2.1v5.1c0 .5.1.8.2 1 .2.2.5.2 1 .2h.5c.1 0 .3 0 .4-.1v2.2c-.2 0-.5.1-.8.1h-.9c-.4 0-.9 0-1.2-.1-.4-.1-.7-.2-1-.3-.3-.2-.5-.4-.7-.7-.2-.3-.3-.7-.3-1.3v-6.1h-1.7v-1.9h1.7v-3.1h2.8v3.1H34zM37.9 228.5v1.9c.1-.3.3-.6.5-.9.2-.3.5-.5.8-.7.3-.2.6-.3.9-.5.3-.1.7-.2 1-.2.2 0 .4 0 .6.1v2.6c-.1 0-.3-.1-.5-.1h-.5c-.5 0-1 .1-1.3.3-.4.2-.6.4-.9.7-.2.3-.4.6-.5 1s-.1.8-.1 1.3v4.7h-2.8v-10.3h2.8zM42.6 231.7c0-.7.2-1.2.5-1.7.3-.4.7-.8 1.1-1.1.5-.3 1-.5 1.5-.6.6-.1 1.1-.2 1.7-.2.5 0 1 0 1.6.1s1 .2 1.5.4c.4.2.8.5 1.1.9.3.4.4.9.4 1.5v5.4c0 .5 0 .9.1 1.3s.1.7.3 1h-2.9c-.1-.2-.1-.3-.1-.5s-.1-.3-.1-.5c-.5.5-1 .8-1.6 1s-1.2.3-1.9.3c-.5 0-1-.1-1.4-.2s-.8-.3-1.1-.6c-.3-.3-.6-.6-.8-1-.2-.4-.3-.8-.3-1.4 0-.6.1-1.1.3-1.5.2-.4.5-.7.8-.9.3-.2.7-.4 1.1-.5s.8-.2 1.3-.3c.4-.1.8-.1 1.3-.2.4 0 .8-.1 1.1-.2.3-.1.6-.2.8-.4.2-.2.3-.4.3-.7 0-.3 0-.6-.1-.7-.1-.2-.2-.3-.4-.4-.2-.1-.4-.2-.6-.2-.2 0-.5-.1-.7-.1-.6 0-1 .1-1.3.4-.3.2-.5.6-.6 1.2h-2.9zm6.6 2.1c-.1.1-.3.2-.5.2-.2.1-.4.1-.6.1-.2 0-.4.1-.7.1-.2 0-.5.1-.7.1-.2 0-.4.1-.6.2s-.4.2-.5.3c-.2.1-.3.3-.4.4-.1.2-.1.4-.1.7 0 .3 0 .5.1.6.1.2.2.3.4.4s.3.2.6.2c.2 0 .4.1.7.1.6 0 1-.1 1.3-.3.3-.2.5-.4.7-.7.1-.3.2-.5.3-.8v-1.6zM56.4 236.3c.1.2.3.4.5.5.2.1.4.2.7.3.3.1.5.1.8.1.2 0 .4 0 .6-.1.2 0 .4-.1.6-.2.2-.1.3-.2.5-.4.1-.2.2-.4.2-.6 0-.4-.3-.7-.8-1-.6-.2-1.4-.4-2.4-.6l-1.2-.3c-.4-.1-.7-.3-1.1-.5-.3-.2-.6-.5-.7-.8-.2-.3-.3-.7-.3-1.1 0-.7.1-1.2.4-1.6.3-.4.6-.8 1-1 .4-.2.9-.4 1.4-.5.5-.1 1.1-.1 1.6-.1s1.1.1 1.6.2 1 .3 1.4.5.8.6 1 1c.3.4.4 1 .5 1.6H60c0-.5-.2-.9-.6-1.1-.4-.2-.8-.3-1.3-.3h-.5c-.2 0-.4.1-.5.1-.2.1-.3.2-.4.3-.1.1-.2.3-.2.5 0 .3.1.5.3.6.2.2.4.3.7.4.3.1.6.2 1 .3l1.2.3 1.2.3c.4.1.7.3 1.1.5.3.2.6.5.7.8s.3.7.3 1.2c0 .7-.1 1.2-.4 1.7-.3.5-.6.8-1.1 1.1s-.9.5-1.5.6c-.6.1-1.1.2-1.7.2-.6 0-1.2-.1-1.8-.2-.6-.1-1.1-.3-1.5-.6s-.8-.6-1.1-1.1-.4-1-.5-1.7h2.7c.2.2.2.5.3.7zM70.1 226.9v-2.3h2.8v2.3h-2.8zm2.8 1.6v10.3h-2.8v-10.3h2.8zM77.7 228.5v1.4h.1c.4-.6.8-1 1.4-1.3.6-.3 1.2-.4 1.8-.4.8 0 1.4.1 1.9.3.5.2.9.5 1.1.9.3.4.5.8.6 1.3.1.5.2 1.1.2 1.8v6.4H82V233c0-.9-.1-1.5-.4-1.9s-.7-.6-1.4-.6c-.8 0-1.3.2-1.7.7-.3.5-.5 1.2-.5 2.3v5.4h-3v-10.3h2.7zM91.6 230.4c-.5 0-.8.1-1.1.3-.3.2-.6.5-.8.8-.2.3-.3.7-.4 1.1-.1.4-.1.8-.1 1.2 0 .4 0 .8.1 1.1s.2.7.4 1c.2.3.4.6.7.8.3.2.7.3 1.1.3.7 0 1.2-.2 1.6-.6.4-.4.6-.9.7-1.5h2.7c-.2 1.4-.7 2.4-1.6 3.1-.9.7-2 1.1-3.4 1.1-.8 0-1.5-.1-2.1-.4-.6-.3-1.2-.6-1.6-1.1-.5-.5-.8-1-1.1-1.7-.3-.6-.4-1.4-.4-2.1 0-.8.1-1.5.4-2.2.2-.7.6-1.3 1-1.8s1-.9 1.7-1.2c.7-.3 1.4-.4 2.2-.4.6 0 1.2.1 1.8.2.6.2 1.1.4 1.5.7.4.3.8.7 1.1 1.2.3.5.4 1.1.5 1.7h-2.8c-.2-1-.9-1.6-2.1-1.6zM100.9 224.6v14.3H98v-14.3h2.9zM109.9 238.8v-1.4h-.1c-.4.6-.8 1-1.4 1.3s-1.2.4-1.8.4c-.8 0-1.4-.1-1.9-.3-.5-.2-.9-.5-1.2-.9-.3-.4-.5-.8-.6-1.3-.1-.5-.2-1.1-.2-1.8v-6.4h2.8v5.8c0 .9.1 1.5.4 1.9.3.4.7.6 1.4.6.8 0 1.3-.2 1.7-.7s.5-1.2.5-2.3v-5.4h2.8v10.3h-2.4zM121.9 237.5c-.3.6-.8 1-1.3 1.2s-1.2.4-1.8.4c-.8 0-1.5-.1-2-.4-.6-.3-1.1-.7-1.5-1.2-.4-.5-.7-1.1-.9-1.8-.2-.7-.3-1.4-.3-2.1 0-.7.1-1.4.3-2 .2-.6.5-1.2.9-1.7s.9-.9 1.4-1.2c.6-.3 1.2-.5 2-.5.6 0 1.2.1 1.8.4.6.3 1 .6 1.3 1.1v-5.2h2.8v14.3H122l-.1-1.3zm-.1-5.1c-.1-.4-.2-.7-.4-1-.2-.3-.4-.5-.8-.7-.3-.2-.7-.3-1.2-.3s-.9.1-1.2.3c-.3.2-.6.4-.8.7-.2.3-.3.7-.4 1-.1.4-.1.8-.1 1.2 0 .4 0 .8.1 1.2.1.4.2.8.5 1.1.2.3.5.6.8.8s.7.3 1.1.3c.5 0 .9-.1 1.2-.3.3-.2.6-.4.8-.8.2-.3.3-.7.4-1.1s.1-.8.1-1.2c0-.4 0-.8-.1-1.2zM129.7 236.4c.4.4 1 .6 1.8.6.6 0 1.1-.1 1.5-.4.4-.3.7-.6.8-.9h2.5c-.4 1.2-1 2.1-1.8 2.7-.8.5-1.8.8-3 .8-.8 0-1.5-.1-2.2-.4-.7-.3-1.2-.6-1.7-1.1-.5-.5-.8-1.1-1-1.7-.2-.7-.4-1.4-.4-2.2 0-.8.1-1.5.4-2.2s.6-1.2 1.1-1.7 1-.9 1.7-1.2c.6-.3 1.4-.4 2.2-.4.9 0 1.6.2 2.3.5.7.3 1.2.8 1.6 1.4.4.6.7 1.2.9 2s.3 1.5.2 2.3H129c0 .8.2 1.5.7 1.9zm3.2-5.5c-.3-.4-.9-.6-1.5-.6-.5 0-.8.1-1.1.2-.3.2-.5.3-.7.6-.2.2-.3.5-.4.7-.1.3-.1.5-.1.7h4.6c-.3-.7-.5-1.2-.8-1.6zM145.3 237.5c-.3.6-.8 1-1.3 1.2s-1.2.4-1.8.4c-.8 0-1.5-.1-2-.4-.6-.3-1.1-.7-1.5-1.2-.4-.5-.7-1.1-.9-1.8-.2-.7-.3-1.4-.3-2.1 0-.7.1-1.4.3-2 .2-.6.5-1.2.9-1.7s.9-.9 1.4-1.2c.6-.3 1.2-.5 2-.5.6 0 1.2.1 1.8.4.6.3 1 .6 1.3 1.1v-5.2h2.8v14.3h-2.7v-1.3zm-.2-5.1c-.1-.4-.2-.7-.4-1-.2-.3-.4-.5-.8-.7-.3-.2-.7-.3-1.2-.3s-.9.1-1.2.3c-.3.2-.6.4-.8.7-.2.3-.3.7-.4 1-.1.4-.1.8-.1 1.2 0 .4 0 .8.1 1.2.1.4.2.8.5 1.1.2.3.5.6.8.8s.7.3 1.1.3c.5 0 .9-.1 1.2-.3.3-.2.6-.4.8-.8.2-.3.3-.7.4-1.1s.1-.8.1-1.2c.1-.4 0-.8-.1-1.2zM153.2 235.8v3.1h-3.1v-3.1h3.1z"/></g></svg>