<svg id="Layer_1" xmlns="http://www.w3.org/2000/svg" viewBox="0 0 160 600"><style>.st0{fill:#393}</style><path class="st0" d="M45.3 181.4c.9 0 1.7.1 2.3.4.6.3 1.1.6 1.5 1 .4.4.7.9.9 1.5.2.5.3 1.1.3 1.7 0 .6-.1 1.1-.3 1.7-.2.6-.5 1-.9 1.5-.4.4-.9.8-1.5 1-.6.3-1.4.4-2.3.4H42v5.1h-3.1v-14.3h6.4zm-.8 6.8c.4 0 .7 0 1-.1l.9-.3c.3-.2.5-.4.6-.6.2-.3.2-.6.2-1.1 0-.5-.1-.8-.2-1.1-.2-.3-.4-.5-.6-.7-.3-.2-.5-.3-.9-.3-.3-.1-.7-.1-1-.1H42v4.3h2.5zM54.6 185.4v1.9c.1-.3.3-.6.5-.9.2-.3.5-.5.8-.7.3-.2.6-.3.9-.5.3-.1.7-.2 1-.2.2 0 .4 0 .6.1v2.6c-.1 0-.3-.1-.5-.1h-.5c-.5 0-1 .1-1.3.3-.4.2-.6.4-.9.7-.2.3-.4.6-.5 1s-.1.8-.1 1.3v4.7h-2.8v-10.3h2.8zM59.6 188.6c0-.7.2-1.2.5-1.7.3-.4.7-.8 1.1-1.1.5-.3 1-.5 1.5-.6.6-.1 1.1-.2 1.7-.2.5 0 1 0 1.6.1s1 .2 1.5.4c.4.2.8.5 1.1.9.3.4.4.9.4 1.5v5.4c0 .5 0 .9.1 1.3s.1.7.3 1h-2.9c-.1-.2-.1-.3-.1-.5s-.1-.3-.1-.5c-.5.5-1 .8-1.6 1s-1.2.3-1.9.3c-.5 0-1-.1-1.4-.2s-.8-.3-1.1-.6c-.3-.3-.6-.6-.8-1-.2-.4-.3-.8-.3-1.4 0-.6.1-1.1.3-1.5.2-.4.5-.7.8-.9.3-.2.7-.4 1.1-.5s.8-.2 1.3-.3c.4-.1.8-.1 1.3-.2.4 0 .8-.1 1.1-.2.3-.1.6-.2.8-.4.2-.2.3-.4.3-.7 0-.3 0-.6-.1-.7-.1-.2-.2-.3-.4-.4-.2-.1-.4-.2-.6-.2-.2 0-.5-.1-.7-.1-.6 0-1 .1-1.3.4-.3.2-.5.6-.6 1.2h-2.9zm6.5 2.1c-.1.1-.3.2-.5.2-.2.1-.4.1-.6.1-.2 0-.4.1-.7.1-.2 0-.5.1-.7.1-.2 0-.4.1-.6.2s-.4.2-.5.3c-.2.1-.3.3-.4.4-.1.2-.1.4-.1.7 0 .3 0 .5.1.6.1.2.2.3.4.4s.3.2.6.2c.2 0 .4.1.7.1.6 0 1-.1 1.3-.3.3-.2.5-.4.7-.7.1-.3.2-.5.3-.8v-1.6zM76.1 187.2c-.5 0-.8.1-1.1.3-.3.2-.6.5-.8.8-.2.3-.3.7-.4 1.1-.1.4-.1.8-.1 1.2 0 .4 0 .8.1 1.1s.2.7.4 1c.2.3.4.6.7.8.3.2.7.3 1.1.3.7 0 1.2-.2 1.6-.6.4-.4.6-.9.7-1.5H81c-.2 1.4-.7 2.4-1.6 3.1-.9.7-2 1.1-3.4 1.1-.8 0-1.5-.1-2.1-.4-.6-.3-1.2-.6-1.6-1.1-.5-.5-.8-1-1.1-1.7-.3-.6-.4-1.4-.4-2.1 0-.8.1-1.5.4-2.2.2-.7.6-1.3 1-1.8s1-.9 1.7-1.2c.7-.3 1.4-.4 2.2-.4.6 0 1.2.1 1.8.2.6.2 1.1.4 1.5.7.4.3.8.7 1.1 1.2.3.5.4 1.1.5 1.7h-2.8c-.2-1-.9-1.6-2.1-1.6zM88.3 185.4v1.9h-2.1v5.1c0 .5.1.8.2 1 .2.2.5.2 1 .2h.5c.1 0 .3 0 .4-.1v2.2c-.2 0-.5.1-.8.1h-.9c-.4 0-.9 0-1.2-.1-.4-.1-.7-.2-1-.3-.3-.2-.5-.4-.7-.7-.2-.3-.3-.7-.3-1.3v-6.1h-1.7v-1.9h1.7v-3.1h2.8v3.1h2.1zM89.8 183.8v-2.3h2.8v2.3h-2.8zm2.8 1.6v10.3h-2.8v-10.3h2.8zM99.8 187.2c-.5 0-.8.1-1.1.3-.3.2-.6.5-.8.8-.2.3-.3.7-.4 1.1-.1.4-.1.8-.1 1.2 0 .4 0 .8.1 1.1s.2.7.4 1c.2.3.4.6.7.8.3.2.7.3 1.1.3.7 0 1.2-.2 1.6-.6.4-.4.6-.9.7-1.5h2.7c-.2 1.4-.7 2.4-1.6 3.1-.9.7-2 1.1-3.4 1.1-.8 0-1.5-.1-2.1-.4-.6-.3-1.2-.6-1.6-1.1-.5-.5-.8-1-1.1-1.7-.3-.6-.4-1.4-.4-2.1 0-.8.1-1.5.4-2.2.2-.7.6-1.3 1-1.8s1-.9 1.7-1.2c.7-.3 1.4-.4 2.2-.4.6 0 1.2.1 1.8.2.6.2 1.1.4 1.5.7.4.3.8.7 1.1 1.2.3.5.4 1.1.5 1.7h-2.8c-.2-1-.9-1.6-2.1-1.6zM106.2 188.6c0-.7.2-1.2.5-1.7s.7-.8 1.1-1.1 1-.5 1.5-.6c.6-.1 1.1-.2 1.7-.2.5 0 1 0 1.6.1.5.1 1 .2 1.5.4.4.2.8.5 1.1.9.3.4.4.9.4 1.5v5.4c0 .5 0 .9.1 1.3s.1.7.3 1h-2.9c-.1-.2-.1-.3-.1-.5s-.1-.3-.1-.5c-.5.5-1 .8-1.6 1s-1.2.3-1.9.3c-.5 0-1-.1-1.4-.2s-.8-.3-1.1-.6c-.3-.3-.6-.6-.8-1s-.3-.8-.3-1.4c0-.6.1-1.1.3-1.5.2-.4.5-.7.8-.9.3-.2.7-.4 1.1-.5s.8-.2 1.3-.3c.4-.1.8-.1 1.3-.2.4 0 .8-.1 1.1-.2.3-.1.6-.2.8-.4s.3-.4.3-.7c0-.3 0-.6-.1-.7-.1-.2-.2-.3-.4-.4-.2-.1-.4-.2-.6-.2-.2 0-.5-.1-.7-.1-.6 0-1 .1-1.3.4-.3.2-.5.6-.6 1.2h-2.9zm6.6 2.1c-.1.1-.3.2-.4.2-.2.1-.4.1-.6.1-.2 0-.4.1-.7.1-.2 0-.5.1-.7.1-.2 0-.4.1-.6.2-.2.1-.4.2-.5.3l-.4.4c-.1.2-.1.4-.1.7 0 .3 0 .5.1.6.1.2.2.3.4.4s.3.2.6.2c.2 0 .4.1.7.1.6 0 1-.1 1.3-.3.3-.2.5-.4.7-.7.1-.3.2-.5.3-.8s0-.5 0-.6v-1zM120.7 181.4v14.3h-2.8v-14.3h2.8z"/><g><path class="st0" d="M52.9 217.4l-2.4-9.7-2.4 9.7h-3.2l-3.8-14.3h3.1l2.3 9.7 2.5-9.7h2.9l2.4 9.8 2.3-9.8h3.1L56 217.4h-3.1zM61.1 205.5v-2.3h2.8v2.3h-2.8zm2.8 1.6v10.3h-2.8v-10.3h2.8zM68.5 214.9c.1.2.3.4.5.5.2.1.4.2.7.3.3.1.5.1.8.1.2 0 .4 0 .6-.1.2 0 .4-.1.6-.2.2-.1.3-.2.4-.4.1-.2.2-.4.2-.6 0-.4-.3-.7-.9-1s-1.4-.4-2.4-.6l-1.2-.3c-.4-.1-.7-.3-1.1-.5-.3-.2-.6-.5-.7-.8-.2-.3-.3-.7-.3-1.1 0-.7.1-1.2.4-1.6.3-.4.6-.8 1-1 .4-.2.9-.4 1.4-.5.5-.1 1.1-.1 1.6-.1s1.1.1 1.6.2 1 .3 1.4.5c.4.3.8.6 1 1s.4 1 .5 1.6h-2.7c0-.5-.2-.9-.6-1.1-.4-.2-.8-.3-1.3-.3h-.5c-.2 0-.4.1-.5.1-.2.1-.3.2-.4.3-.1.1-.2.3-.2.5 0 .3.1.5.3.6.2.2.4.3.7.4.3.1.6.2 1 .3l1.2.3 1.2.3c.4.1.7.3 1 .5.3.2.6.5.7.8s.3.7.3 1.2c0 .7-.1 1.2-.4 1.7s-.6.8-1.1 1.1c-.4.3-.9.5-1.5.6-.6.1-1.1.2-1.7.2-.6 0-1.2-.1-1.8-.2-.6-.1-1.1-.3-1.5-.6s-.8-.6-1.1-1.1-.4-1-.5-1.7h2.7c.4.2.5.4.6.7zM84.2 216.1c-.3.6-.8 1-1.3 1.2s-1.2.4-1.8.4c-.8 0-1.5-.1-2-.4-.6-.3-1.1-.7-1.5-1.2-.4-.5-.7-1.1-.9-1.8-.2-.7-.3-1.4-.3-2.1 0-.7.1-1.4.3-2 .2-.6.5-1.2.9-1.7s.9-.9 1.4-1.2c.6-.3 1.2-.5 2-.5.6 0 1.2.1 1.8.4.6.3 1 .6 1.3 1.1v-5.2H87v14.3h-2.7l-.1-1.3zm-.1-5.1c-.1-.4-.2-.7-.4-1-.2-.3-.4-.5-.8-.7-.3-.2-.7-.3-1.2-.3s-.9.1-1.2.3c-.3.2-.6.4-.8.7-.2.3-.3.7-.4 1-.1.4-.1.8-.1 1.2 0 .4 0 .8.1 1.2.1.4.2.8.5 1.1.2.3.5.6.8.8s.7.3 1.1.3c.5 0 .9-.1 1.2-.3.3-.2.6-.4.8-.8.2-.3.3-.7.4-1.1s.1-.8.1-1.2c0-.4 0-.8-.1-1.2zM89.2 210c.3-.7.6-1.2 1.1-1.7s1-.8 1.7-1.1c.7-.3 1.4-.4 2.2-.4s1.6.1 2.2.4c.7.3 1.2.6 1.7 1.1s.8 1 1.1 1.7c.3.7.4 1.4.4 2.2 0 .8-.1 1.6-.4 2.2-.3.7-.6 1.2-1.1 1.7-.5.5-1 .8-1.7 1.1-.7.3-1.4.4-2.2.4s-1.5-.1-2.2-.4c-.7-.3-1.2-.6-1.7-1.1-.5-.5-.8-1-1.1-1.7-.3-.7-.4-1.4-.4-2.2 0-.8.1-1.5.4-2.2zm2.5 3.5c.1.4.2.7.4 1.1.2.3.5.6.8.8.3.2.7.3 1.2.3s.9-.1 1.2-.3c.3-.2.6-.4.8-.8.2-.3.3-.7.4-1.1.1-.4.1-.8.1-1.2 0-.4 0-.8-.1-1.2s-.2-.8-.4-1.1-.5-.6-.8-.8c-.3-.2-.7-.3-1.2-.3s-.9.1-1.2.3c-.3.2-.6.4-.8.8s-.3.7-.4 1.1-.1.8-.1 1.2c0 .4.1.8.1 1.2zM104.1 207.1v1.4c.4-.5.8-.9 1.4-1.2.5-.3 1.1-.4 1.8-.4s1.2.1 1.8.4c.5.3 1 .7 1.2 1.3.3-.5.7-.9 1.2-1.2.5-.3 1.2-.5 1.9-.5.5 0 1.1.1 1.5.2s.9.3 1.2.6c.3.3.6.7.8 1.1s.3 1 .3 1.7v6.9h-2.8v-5.9-1c0-.3-.1-.6-.2-.8-.1-.2-.3-.4-.5-.5-.2-.1-.5-.2-1-.2-.4 0-.7.1-1 .2l-.6.6c-.2.2-.2.5-.3.8 0 .3-.1.6-.1 1v5.8h-2.8v-5.8-.9c0-.3-.1-.6-.2-.8-.1-.3-.3-.5-.5-.6s-.6-.2-1-.2c-.1 0-.3 0-.5.1l-.6.3c-.2.2-.4.4-.5.7-.1.3-.2.7-.2 1.2v6h-2.8v-10.3h2.5z"/></g><g><path class="st0" d="M24.1 230.7v-1.9h1.7v-.8c0-.9.3-1.7.9-2.3.6-.6 1.4-.9 2.6-.9h1.5v2.1c-.3 0-.7-.1-1-.1-.4 0-.7.1-.8.3-.2.2-.2.5-.2.9v.6h2v1.9h-2v8.4H26v-8.4h-1.9zM31.9 231.7c.3-.7.6-1.2 1.1-1.7.5-.5 1-.8 1.7-1.1.7-.3 1.4-.4 2.2-.4.8 0 1.5.1 2.2.4.7.3 1.2.6 1.7 1.1s.8 1 1.1 1.7c.3.7.4 1.4.4 2.2 0 .8-.1 1.6-.4 2.2-.3.7-.6 1.2-1.1 1.7-.5.5-1 .8-1.7 1.1-.7.3-1.4.4-2.2.4-.8 0-1.5-.1-2.2-.4-.7-.3-1.2-.6-1.7-1.1-.5-.5-.8-1-1.1-1.7-.3-.7-.4-1.4-.4-2.2.1-.8.2-1.5.4-2.2zm2.6 3.5c.1.4.2.7.4 1.1.2.3.5.6.8.8.3.2.7.3 1.2.3s.9-.1 1.2-.3c.3-.2.6-.4.8-.8.2-.3.3-.7.4-1.1.1-.4.1-.8.1-1.2 0-.4 0-.8-.1-1.2s-.2-.8-.4-1.1-.5-.6-.8-.8c-.3-.2-.7-.3-1.2-.3s-.9.1-1.2.3c-.3.2-.6.4-.8.8s-.3.7-.4 1.1c-.1.4-.1.8-.1 1.2 0 .4 0 .8.1 1.2zM46.8 228.8v1.9c.1-.3.3-.6.5-.9.2-.3.5-.5.8-.7.3-.2.6-.3.9-.5.3-.1.7-.2 1-.2.2 0 .4 0 .6.1v2.6c-.1 0-.3-.1-.5-.1h-.5c-.5 0-1 .1-1.3.3-.4.2-.6.4-.9.7-.2.3-.4.6-.5 1s-.1.8-.1 1.3v4.7H44v-10.3h2.8zM63.9 224.8c.9 0 1.8.1 2.6.4s1.5.7 2.1 1.3c.6.6 1 1.3 1.4 2.2.3.9.5 1.9.5 3.1 0 1-.1 2-.4 2.9-.3.9-.7 1.6-1.2 2.3s-1.2 1.1-2 1.5c-.8.4-1.8.5-2.9.5h-6.2v-14.3h6.1zm-.2 11.7c.5 0 .9-.1 1.3-.2s.8-.4 1.1-.7c.3-.3.6-.8.8-1.3.2-.5.3-1.2.3-2 0-.7-.1-1.4-.2-2s-.4-1.1-.7-1.5-.7-.7-1.3-1c-.5-.2-1.2-.3-2-.3h-2.2v9h2.9zM75.3 236.6c.4.4 1 .6 1.8.6.6 0 1.1-.1 1.5-.4.4-.3.7-.6.8-.9h2.5c-.4 1.2-1 2.1-1.8 2.7-.8.5-1.8.8-3 .8-.8 0-1.5-.1-2.2-.4-.7-.3-1.2-.6-1.7-1.1-.5-.5-.8-1.1-1-1.7-.2-.7-.4-1.4-.4-2.2 0-.8.1-1.5.4-2.2s.6-1.2 1.1-1.7 1-.9 1.7-1.2c.6-.3 1.4-.4 2.2-.4.9 0 1.6.2 2.3.5.7.3 1.2.8 1.6 1.4.4.6.7 1.2.9 2s.3 1.5.2 2.3h-7.5c-.1.9.2 1.5.6 1.9zm3.2-5.4c-.3-.4-.9-.6-1.5-.6-.5 0-.8.1-1.1.2-.3.2-.5.3-.7.6-.2.2-.3.5-.4.7-.1.3-.1.5-.1.7h4.6c-.2-.7-.5-1.2-.8-1.6zM86.4 228.8v1.4h.1c.4-.6.8-1 1.4-1.3.6-.3 1.2-.4 1.8-.4.8 0 1.4.1 1.9.3.5.2.9.5 1.1.9.3.4.5.8.6 1.3.1.5.2 1.1.2 1.8v6.4h-2.8v-5.8c0-.9-.1-1.5-.4-1.9s-.7-.6-1.4-.6c-.8 0-1.3.2-1.7.7-.3.5-.5 1.2-.5 2.3v5.4h-2.8V229h2.5zM101.3 228.8v1.9h-2.1v5.1c0 .5.1.8.2 1 .2.2.5.2 1 .2h.5c.1 0 .3 0 .4-.1v2.2c-.2 0-.5.1-.8.1h-.9c-.4 0-.9 0-1.2-.1-.4-.1-.7-.2-1-.3-.3-.2-.5-.4-.7-.7-.2-.3-.3-.7-.3-1.3v-6.1h-1.7v-1.9h1.7v-3.1h2.8v3.1h2.1zM102.7 227.2v-2.3h2.8v2.3h-2.8zm2.9 1.6v10.3h-2.8v-10.3h2.8zM110.2 236.6c.1.2.3.4.5.5.2.1.4.2.7.3.3.1.5.1.8.1.2 0 .4 0 .6-.1.2 0 .4-.1.6-.2.2-.1.3-.2.4-.4.1-.2.2-.4.2-.6 0-.4-.3-.7-.9-1s-1.4-.4-2.4-.6l-1.2-.3c-.4-.1-.7-.3-1-.5-.3-.2-.6-.5-.7-.8-.2-.3-.3-.7-.3-1.1 0-.7.1-1.2.4-1.6s.6-.8 1-1c.4-.2.9-.4 1.4-.5.5-.1 1.1-.1 1.6-.1.6 0 1.1.1 1.6.2s1 .3 1.4.5c.4.3.8.6 1 1s.4 1 .5 1.6h-2.7c0-.5-.2-.9-.6-1.1-.4-.2-.8-.3-1.3-.3h-.5c-.2 0-.4.1-.5.1-.2.1-.3.2-.4.3-.1.1-.2.3-.2.5 0 .3.1.5.3.6.2.2.4.3.7.4s.6.2 1 .3l1.2.3 1.2.3c.4.1.7.3 1 .5.3.2.6.5.7.8s.3.7.3 1.2c0 .7-.1 1.2-.4 1.7s-.6.8-1.1 1.1c-.4.3-.9.5-1.5.6-.6.1-1.1.2-1.7.2-.6 0-1.2-.1-1.8-.2s-1.1-.3-1.5-.6c-.4-.3-.8-.6-1.1-1.1s-.4-1-.5-1.7h2.7c.3.2.4.4.5.7zM124.2 228.8v1.9h-2.1v5.1c0 .5.1.8.2 1 .2.2.5.2 1 .2h.5c.1 0 .3 0 .4-.1v2.2c-.2 0-.5.1-.8.1h-.9c-.4 0-.9 0-1.2-.1-.4-.1-.7-.2-1-.3-.3-.2-.5-.4-.7-.7-.2-.3-.3-.7-.3-1.3v-6.1h-1.7v-1.9h1.7v-3.1h2.8v3.1h2.1zM128 236.6c.1.2.3.4.5.5.2.1.4.2.7.3.3.1.5.1.8.1.2 0 .4 0 .6-.1.2 0 .4-.1.6-.2.2-.1.3-.2.4-.4.1-.2.2-.4.2-.6 0-.4-.3-.7-.9-1s-1.4-.4-2.4-.6l-1.2-.3c-.4-.1-.7-.3-1-.5-.3-.2-.6-.5-.7-.8-.2-.3-.3-.7-.3-1.1 0-.7.1-1.2.4-1.6s.6-.8 1-1c.4-.2.9-.4 1.4-.5.5-.1 1.1-.1 1.6-.1.6 0 1.1.1 1.6.2s1 .3 1.4.5c.4.3.8.6 1 1s.4 1 .5 1.6h-2.7c0-.5-.2-.9-.6-1.1-.4-.2-.8-.3-1.3-.3h-.5c-.2 0-.4.1-.5.1-.2.1-.3.2-.4.3-.1.1-.2.3-.2.5 0 .3.1.5.3.6.2.2.4.3.7.4s.6.2 1 .3l1.2.3 1.2.3c.4.1.7.3 1 .5.3.2.6.5.7.8s.3.7.3 1.2c0 .7-.1 1.2-.4 1.7s-.6.8-1.1 1.1c-.4.3-.9.5-1.5.6-.6.1-1.1.2-1.7.2-.6 0-1.2-.1-1.8-.2s-1.1-.3-1.5-.6c-.4-.3-.8-.6-1.1-1.1s-.4-1-.5-1.7h2.7c.3.2.3.4.5.7z"/></g></svg>