<svg id="Layer_1" xmlns="http://www.w3.org/2000/svg" viewBox="0 0 160 600"><style>.st0{fill:#393}.st1{fill:#231f20}</style><path class="st0" d="M60.5 159.5v5.5h5.8v-5.5h3.1v14.3h-3.1v-6.2h-5.8v6.2h-3.1v-14.3h3.1zM71.8 166.6c0-.7.2-1.2.5-1.7s.7-.8 1.1-1.1 1-.5 1.5-.6c.6-.1 1.1-.2 1.7-.2.5 0 1 0 1.6.1.5.1 1 .2 1.5.4.4.2.8.5 1.1.9.3.4.4.9.4 1.5v5.4c0 .5 0 .9.1 1.3s.1.7.3 1h-2.9c-.1-.2-.1-.3-.1-.5s-.1-.3-.1-.5c-.5.5-1 .8-1.6 1s-1.3.4-1.9.4c-.5 0-1-.1-1.4-.2s-.8-.3-1.1-.6c-.3-.3-.6-.6-.8-1s-.3-.8-.3-1.4c0-.6.1-1.1.3-1.5.2-.4.5-.7.8-.9.3-.2.7-.4 1.1-.5s.8-.2 1.3-.3c.4-.1.8-.1 1.3-.2.4 0 .8-.1 1.1-.2.3-.1.6-.2.8-.4s.3-.4.3-.7c0-.3 0-.6-.1-.7-.1-.2-.2-.3-.4-.4-.2-.1-.4-.2-.6-.2-.2 0-.5-.1-.7-.1-.6 0-1 .1-1.3.4-.3.2-.5.6-.6 1.2h-2.9zm6.5 2.1c-.1.1-.3.2-.4.2-.2.1-.4.1-.6.1-.2 0-.4.1-.7.1-.2 0-.5.1-.7.1-.2 0-.4.1-.6.2-.2.1-.4.2-.5.3l-.4.4c-.1.2-.1.4-.1.7 0 .3 0 .5.1.6.1.2.2.3.4.4s.3.2.6.2c.2 0 .4.1.7.1.6 0 1-.1 1.3-.3.3-.2.5-.4.7-.7.1-.3.2-.5.3-.8s0-.5 0-.6v-1zM85.9 173.8l-3.5-10.3h3l2.2 7.1 2.2-7.1h2.8l-3.5 10.3h-3.2zM96.8 171.3c.4.4 1 .6 1.8.6.6 0 1.1-.1 1.5-.4.4-.3.7-.6.8-.9h2.5c-.4 1.2-1 2.1-1.8 2.7-.8.5-1.8.8-3 .8-.8 0-1.5-.1-2.2-.4-.7-.3-1.2-.6-1.7-1.1-.5-.5-.8-1.1-1-1.7-.2-.7-.4-1.4-.4-2.2 0-.8.1-1.5.4-2.2s.6-1.2 1.1-1.7 1-.9 1.7-1.2c.6-.3 1.4-.4 2.2-.4.9 0 1.6.2 2.3.5.7.3 1.2.8 1.6 1.4.4.6.7 1.2.9 2s.3 1.5.2 2.3h-7.5c-.1.8.2 1.5.6 1.9zm3.2-5.4c-.3-.4-.9-.6-1.5-.6-.5 0-.8.1-1.1.2-.3.2-.5.3-.7.6-.2.2-.3.5-.4.7-.1.3-.1.5-.1.7h4.6c-.2-.7-.4-1.3-.8-1.6z"/><g><path class="st0" d="M20.1 181.2h3.5l3.3 5.6 3.3-5.6h3.5l-5.3 8.8v5.5h-3.1v-5.6l-5.2-8.7zM34.8 185.4c.3-.9.8-1.7 1.4-2.4s1.3-1.2 2.2-1.6c.9-.4 1.9-.6 2.9-.6 1.1 0 2.1.2 3 .6.9.4 1.6.9 2.2 1.6s1.1 1.5 1.4 2.4c.3.9.5 1.9.5 3 0 1-.2 2-.5 2.9-.3.9-.8 1.7-1.4 2.4s-1.3 1.2-2.2 1.6c-.9.4-1.9.6-3 .6s-2.1-.2-2.9-.6c-.9-.4-1.6-.9-2.2-1.6s-1.1-1.5-1.4-2.4c-.3-.9-.5-1.9-.5-2.9.1-1.1.2-2.1.5-3zm2.9 4.7c.1.6.4 1.1.7 1.5s.7.8 1.2 1.1c.5.3 1.1.4 1.8.4s1.3-.1 1.8-.4c.5-.3.9-.6 1.2-1.1s.5-1 .7-1.5c.1-.6.2-1.1.2-1.8 0-.6-.1-1.2-.2-1.8-.1-.6-.4-1.1-.7-1.6-.3-.5-.7-.8-1.2-1.1-.5-.3-1.1-.4-1.8-.4s-1.3.1-1.8.4c-.5.3-.9.6-1.2 1.1-.3.5-.5 1-.7 1.6-.1.6-.2 1.2-.2 1.8 0 .7.1 1.3.2 1.8zM61 194.4c-1.1.9-2.6 1.4-4.5 1.4s-3.4-.5-4.5-1.4c-1.1-.9-1.6-2.4-1.6-4.3v-8.9h3.1v8.9c0 .4 0 .8.1 1.1.1.4.2.7.4 1 .2.3.5.5.9.7.4.2.9.3 1.5.3 1.1 0 1.9-.2 2.3-.8.4-.5.6-1.3.6-2.4v-8.9h3.1v8.9c.3 2-.3 3.4-1.4 4.4zM73.1 181.2c.6 0 1.2.1 1.7.3.5.2 1 .5 1.3.9.4.4.6.8.8 1.2.2.5.3 1 .3 1.5 0 .8-.2 1.6-.5 2.2-.4.6-.9 1.1-1.7 1.4.4.1.7.3 1 .5s.5.5.6.8c.2.3.3.6.3 1s.1.7.2 1.1v.8c0 .3 0 .6.1.9 0 .3.1.6.2.9s.2.5.3.7h-3.1c-.2-.5-.3-1-.3-1.6 0-.6-.1-1.2-.2-1.8-.1-.7-.3-1.3-.7-1.6-.3-.3-.9-.5-1.7-.5h-3.1v5.6h-3.1v-14.3h7.6zm-1.2 6.5c.7 0 1.3-.2 1.6-.5.4-.3.5-.8.5-1.6 0-.7-.2-1.2-.5-1.5-.4-.3-.9-.5-1.6-.5h-3.4v4h3.4zM94.5 185c-.2-.3-.4-.6-.7-.8s-.6-.4-1-.5c-.4-.1-.7-.2-1.1-.2-.7 0-1.3.1-1.8.4-.5.3-.9.6-1.2 1.1-.3.5-.5 1-.7 1.6-.1.6-.2 1.2-.2 1.8 0 .6.1 1.2.2 1.8.1.6.4 1.1.7 1.5.3.5.7.8 1.2 1.1.5.3 1.1.4 1.8.4 1 0 1.7-.3 2.2-.9.5-.6.9-1.4 1-2.3h3c-.1.9-.3 1.7-.6 2.4s-.8 1.3-1.3 1.8-1.2.9-1.9 1.2-1.5.4-2.4.4c-1.1 0-2.1-.2-3-.6s-1.6-.9-2.2-1.6c-.6-.7-1.1-1.5-1.4-2.4-.3-.9-.5-1.9-.5-2.9 0-1.1.2-2.1.5-3 .3-.9.8-1.7 1.4-2.4.6-.7 1.3-1.2 2.2-1.6s1.9-.6 3-.6c.8 0 1.5.1 2.2.3s1.3.6 1.9 1c.6.4 1 1 1.4 1.6.4.6.6 1.4.7 2.2h-3c-.1-.2-.2-.5-.4-.8zM107.3 181.2l5.3 14.3h-3.3l-1.1-3.2H103l-1.1 3.2h-3.2l5.4-14.3h3.2zm.2 8.8l-1.8-5.2-1.9 5.2h3.7zM117 181.2v5.9l5.6-5.9h3.9l-5.6 5.6 6.1 8.6h-3.9l-4.3-6.4-1.8 1.8v4.6h-3.1v-14.3h3.1zM139 181.2v2.6h-7.5v3.1h6.9v2.4h-6.9v3.5h7.7v2.6h-10.8v-14.3H139z"/></g><g><path class="st1" d="M9.7 211.3c0-.7.2-1.2.5-1.7.3-.4.7-.8 1.1-1.1.5-.3 1-.5 1.5-.6.6-.1 1.1-.2 1.7-.2.5 0 1 0 1.6.1s1 .2 1.5.4c.4.2.8.5 1.1.9.3.4.4.9.4 1.5v5.4c0 .5 0 .9.1 1.3s.1.7.3 1h-2.9c-.1-.2-.1-.3-.1-.5s-.1-.3-.1-.5c-.5.5-1 .8-1.6 1s-1.2.3-1.9.3c-.5 0-1-.1-1.4-.2s-.8-.3-1.1-.6c-.3-.3-.6-.6-.8-1-.2-.4-.3-.8-.3-1.4 0-.6.1-1.1.3-1.5.2-.4.5-.7.8-.9.3-.2.7-.4 1.1-.5s.8-.2 1.3-.3c.4-.1.8-.1 1.3-.2.4 0 .8-.1 1.1-.2.3-.1.6-.2.8-.4.2-.2.3-.4.3-.7 0-.3 0-.6-.1-.7-.1-.2-.2-.3-.4-.4-.2-.1-.4-.2-.6-.2-.2 0-.5-.1-.7-.1-.6 0-1 .1-1.3.4-.3.2-.5.6-.6 1.2H9.7zm6.6 2.1c-.1.1-.3.2-.5.2-.2.1-.4.1-.6.1-.2 0-.4.1-.7.1-.2 0-.5.1-.7.1-.2 0-.4.1-.6.2s-.4.2-.5.3c-.2.1-.3.3-.4.4-.1.2-.1.4-.1.7 0 .3 0 .5.1.6.1.2.2.3.4.4s.3.2.6.2c.2 0 .4.1.7.1.6 0 1-.1 1.3-.3.3-.2.5-.4.7-.7.1-.3.2-.5.3-.8v-1.6zM24 208.1v1.4h.1c.4-.6.8-1 1.4-1.3.6-.3 1.2-.4 1.8-.4.8 0 1.4.1 1.9.3.5.2.9.5 1.1.9.3.4.5.8.6 1.3s.2 1.1.2 1.8v6.4h-2.8v-5.8c0-.9-.1-1.5-.4-1.9-.3-.4-.7-.6-1.4-.6-.8 0-1.3.2-1.7.7s-.5 1.2-.5 2.3v5.4h-2.8v-10.3H24zM40.5 217.2c-.3.6-.8 1-1.3 1.2s-1.1.4-1.8.4c-.8 0-1.5-.1-2-.4-.6-.3-1.1-.7-1.5-1.2-.4-.5-.7-1.1-.9-1.8-.2-.7-.3-1.4-.3-2.1 0-.7.1-1.4.3-2 .2-.6.5-1.2.9-1.7s.9-.9 1.4-1.2c.6-.3 1.2-.5 2-.5.6 0 1.2.1 1.8.4.6.3 1 .6 1.3 1.1v-5.2h2.8v14.3h-2.7v-1.3zm-.1-5.2c-.1-.4-.2-.7-.4-1-.2-.3-.4-.5-.8-.7-.3-.2-.7-.3-1.2-.3s-.9.1-1.2.3c-.3.2-.6.4-.8.7s-.3.7-.4 1c-.1.4-.1.8-.1 1.2 0 .4 0 .8.1 1.2.1.4.2.8.4 1.1.2.3.5.6.8.8.3.2.7.3 1.1.3.5 0 .9-.1 1.2-.3.3-.2.6-.4.8-.8.2-.3.3-.7.4-1.1.1-.4.1-.8.1-1.2.1-.4.1-.8 0-1.2zM54.4 204.2v5.9l5.6-5.9h3.9l-5.6 5.6 6.1 8.6h-3.9l-4.3-6.4-1.8 1.8v4.6h-3.1v-14.3h3.1zM76.4 204.2v2.6h-7.5v3.1h6.9v2.4h-6.9v3.5h7.7v2.6H65.7v-14.3h10.7zM89.4 204.2v2.6h-7.5v3.1h6.9v2.4h-6.9v3.5h7.7v2.6H78.7v-14.3h10.7zM98.1 204.2c.9 0 1.7.1 2.3.4.6.3 1.1.6 1.5 1s.7.9.9 1.5c.2.5.3 1.1.3 1.7 0 .6-.1 1.1-.3 1.7-.2.6-.5 1-.9 1.5s-.9.8-1.5 1c-.6.3-1.4.4-2.3.4h-3.3v5.1h-3.1v-14.3h6.4zm-.9 6.7c.4 0 .7 0 1-.1l.9-.3c.3-.2.5-.4.6-.6.2-.3.2-.6.2-1.1 0-.5-.1-.8-.2-1.1-.2-.3-.4-.5-.6-.7-.3-.2-.5-.3-.9-.3s-.7-.1-1-.1h-2.4v4.3h2.4zM114.1 221.6c-.5.4-1.3.5-2.3.5h-.9c-.3 0-.6 0-.9-.1v-2.3c.3 0 .5.1.8.1h.8c.4 0 .7-.2.8-.4s.3-.5.3-.8c0-.2 0-.4-.1-.6l-3.6-9.7h3l2.3 7.1 2.3-7.1h2.9l-4.3 11.6c-.2.7-.6 1.3-1.1 1.7zM120.7 211.1c.3-.7.6-1.2 1.1-1.7s1-.8 1.7-1.1c.7-.3 1.4-.4 2.2-.4s1.6.1 2.2.4c.7.3 1.2.6 1.7 1.1s.8 1 1.1 1.7c.3.7.4 1.4.4 2.2 0 .8-.1 1.6-.4 2.2-.3.7-.6 1.2-1.1 1.7-.5.5-1 .8-1.7 1.1-.7.3-1.4.4-2.2.4s-1.5-.1-2.2-.4c-.7-.3-1.2-.6-1.7-1.1-.5-.5-.8-1-1.1-1.7-.3-.7-.4-1.4-.4-2.2 0-.8.1-1.6.4-2.2zm2.6 3.4c.1.4.2.7.4 1.1.2.3.5.6.8.8.3.2.7.3 1.2.3s.9-.1 1.2-.3c.3-.2.6-.4.8-.8.2-.3.3-.7.4-1.1.1-.4.1-.8.1-1.2 0-.4 0-.8-.1-1.2s-.2-.8-.4-1.1-.5-.6-.8-.8c-.3-.2-.7-.3-1.2-.3s-.9.1-1.2.3c-.3.2-.6.4-.8.8s-.3.7-.4 1.1-.1.8-.1 1.2c-.1.4 0 .8.1 1.2zM139.8 218.5V217h-.1c-.4.6-.8 1-1.4 1.3s-1.2.4-1.8.4c-.8 0-1.4-.1-1.9-.3-.5-.2-.9-.5-1.2-.9-.3-.4-.5-.8-.6-1.3-.1-.5-.2-1.1-.2-1.8V208h2.8v5.8c0 .9.1 1.5.4 1.9.3.4.7.6 1.4.6.8 0 1.3-.2 1.7-.7s.5-1.2.5-2.3v-5.4h2.8v10.3h-2.4zM147.4 208.1v1.9c.1-.3.3-.6.5-.9.2-.3.5-.5.8-.7.3-.2.6-.3.9-.5.3-.1.7-.2 1-.2.2 0 .4 0 .6.1v2.6c-.1 0-.3-.1-.5-.1h-.5c-.5 0-1 .1-1.3.3-.4.2-.7.4-.9.7-.2.3-.4.6-.5 1-.1.4-.1.8-.1 1.3v4.7h-2.8V208h2.8z"/></g><g><path class="st1" d="M17.4 229.5v-2.3h2.8v2.3h-2.8zm2.9 1.6v10.3h-2.8v-10.3h2.8zM25.2 231.1v1.4h.1c.4-.6.8-1 1.4-1.3.6-.3 1.2-.4 1.8-.4.8 0 1.4.1 1.9.3.5.2.9.5 1.1.9.3.4.5.8.6 1.3s.2 1.1.2 1.8v6.4h-2.8v-5.8c0-.9-.1-1.5-.4-1.9-.3-.4-.7-.6-1.4-.6-.8 0-1.3.2-1.7.7s-.5 1.2-.5 2.3v5.4h-2.8v-10.3h2.5zM39.3 233c-.5 0-.8.1-1.1.3-.3.2-.6.5-.8.8-.2.3-.3.7-.4 1.1-.1.4-.1.8-.1 1.2 0 .4 0 .8.1 1.1.1.4.2.7.4 1 .2.3.4.6.7.8.3.2.7.3 1.1.3.7 0 1.2-.2 1.6-.6.4-.4.6-.9.7-1.5h2.7c-.2 1.4-.7 2.4-1.6 3.1-.9.7-2 1.1-3.4 1.1-.8 0-1.5-.1-2.1-.4-.6-.3-1.2-.6-1.6-1.1-.5-.5-.8-1-1.1-1.7-.3-.6-.4-1.4-.4-2.1 0-.8.1-1.5.4-2.2.2-.7.6-1.3 1-1.8.5-.5 1-.9 1.7-1.2.7-.3 1.4-.4 2.2-.4.6 0 1.2.1 1.8.2.6.2 1.1.4 1.5.7.4.3.8.7 1.1 1.2.3.5.4 1.1.5 1.7h-2.8c-.2-1-.9-1.6-2.1-1.6zM45.9 229.5v-2.3h2.8v2.3h-2.8zm2.9 1.6v10.3H46v-10.3h2.8zM53.4 238.9c.1.2.3.4.5.5.2.1.4.2.7.3.3.1.5.1.8.1.2 0 .4 0 .6-.1.2 0 .4-.1.6-.2.2-.1.3-.2.5-.4.1-.2.2-.4.2-.6 0-.4-.3-.7-.8-1-.6-.2-1.4-.4-2.4-.6l-1.2-.3c-.4-.1-.7-.3-1.1-.5-.3-.2-.6-.5-.7-.8-.2-.3-.3-.7-.3-1.1 0-.7.1-1.2.4-1.6.3-.4.6-.8 1-1 .4-.2.9-.4 1.4-.5.5-.1 1.1-.1 1.6-.1s1.1.1 1.6.2 1 .3 1.4.5.8.6 1 1c.3.4.4 1 .5 1.6H57c0-.5-.2-.9-.6-1.1-.4-.2-.8-.3-1.3-.3h-.5c-.2 0-.4.1-.5.1-.2.1-.3.2-.4.3-.1.1-.2.3-.2.5 0 .3.1.5.3.6.2.2.4.3.7.4.3.1.6.2 1 .3l1.2.3 1.2.3c.4.1.7.3 1.1.5.3.2.6.5.7.8s.3.7.3 1.2c0 .7-.1 1.2-.4 1.7-.3.5-.6.8-1.1 1.1s-.9.5-1.5.6c-.6.1-1.1.2-1.7.2-.6 0-1.2-.1-1.8-.2-.6-.1-1.1-.3-1.5-.6s-.8-.6-1.1-1.1-.4-1-.5-1.7h2.7c.1.2.2.5.3.7zM61.8 234.1c.3-.7.6-1.2 1.1-1.7.5-.5 1-.8 1.7-1.1.7-.3 1.4-.4 2.2-.4.8 0 1.6.1 2.2.4.7.3 1.2.6 1.7 1.1s.8 1 1.1 1.7c.3.7.4 1.4.4 2.2 0 .8-.1 1.6-.4 2.2-.3.7-.6 1.2-1.1 1.7-.5.5-1 .8-1.7 1.1-.7.3-1.4.4-2.2.4-.8 0-1.5-.1-2.2-.4-.7-.3-1.2-.6-1.7-1.1-.5-.5-.8-1-1.1-1.7-.3-.7-.4-1.4-.4-2.2 0-.8.2-1.6.4-2.2zm2.6 3.4c.1.4.2.7.4 1.1.2.3.5.6.8.8.3.2.7.3 1.2.3s.9-.1 1.2-.3c.3-.2.6-.4.8-.8.2-.3.3-.7.4-1.1.1-.4.1-.8.1-1.2 0-.4 0-.8-.1-1.2s-.2-.8-.4-1.1-.5-.6-.8-.8c-.3-.2-.7-.3-1.2-.3s-.9.1-1.2.3c-.3.2-.6.4-.8.8s-.3.7-.4 1.1c-.1.4-.1.8-.1 1.2 0 .4 0 .8.1 1.2zM76.7 231.1v1.9c.1-.3.3-.6.5-.9.2-.3.5-.5.8-.7.3-.2.6-.3.9-.5.3-.1.7-.2 1-.2.2 0 .4 0 .6.1v2.6c-.1 0-.3-.1-.5-.1h-.5c-.5 0-1 .1-1.3.3-.4.2-.7.4-.9.7-.2.3-.4.6-.5 1-.1.4-.1.8-.1 1.3v4.7H74V231h2.7zM84.2 238.9c.1.2.3.4.5.5.2.1.4.2.7.3.3.1.5.1.8.1.2 0 .4 0 .6-.1.2 0 .4-.1.6-.2.2-.1.3-.2.4-.4.1-.2.2-.4.2-.6 0-.4-.3-.7-.9-1s-1.4-.4-2.4-.6l-1.2-.3c-.4-.1-.7-.3-1-.5-.3-.2-.6-.5-.7-.8-.2-.3-.3-.7-.3-1.1 0-.7.1-1.2.4-1.6s.6-.8 1-1c.4-.2.9-.4 1.4-.5.5-.1 1.1-.1 1.6-.1.6 0 1.1.1 1.6.2s1 .3 1.4.5c.4.3.8.6 1 1s.4 1 .5 1.6h-2.7c0-.5-.2-.9-.6-1.1-.4-.2-.8-.3-1.3-.3h-.5c-.2 0-.4.1-.5.1-.2.1-.3.2-.4.3-.1.1-.2.3-.2.5 0 .3.1.5.3.6.2.2.4.3.7.4s.6.2 1 .3l1.2.3 1.2.3c.4.1.7.3 1 .5.3.2.6.5.7.8s.3.7.3 1.2c0 .7-.1 1.2-.4 1.7s-.6.8-1.1 1.1c-.4.3-.9.5-1.5.6-.6.1-1.1.2-1.7.2-.6 0-1.2-.1-1.8-.2s-1.1-.3-1.5-.6c-.4-.3-.8-.6-1.1-1.1s-.4-1-.5-1.7h3c0 .2 0 .5.2.7zM95.8 238.4v3.1c0 .5-.1.9-.2 1.2-.2.4-.4.7-.7 1-.3.3-.6.5-1 .7-.4.2-.8.3-1.2.4v-1.4c.2 0 .4-.1.6-.2.2-.1.3-.3.5-.4l.3-.6c.1-.2.1-.4.1-.6h-1.4v-3.1h3zM100.8 229.8v-2.6h11.7v2.6h-4.3v11.6h-3.1v-11.6h-4.3zM114 231.4c.3-.9.8-1.7 1.4-2.4.6-.7 1.3-1.2 2.2-1.6s1.9-.6 3-.6 2.1.2 3 .6c.9.4 1.6.9 2.2 1.6.6.7 1.1 1.5 1.4 2.4.3.9.5 1.9.5 3 0 1-.2 2-.5 2.9-.3.9-.8 1.7-1.4 2.4-.6.7-1.3 1.2-2.2 1.6-.9.4-1.9.6-3 .6s-2.1-.2-3-.6-1.6-.9-2.2-1.6c-.6-.7-1.1-1.5-1.4-2.4-.3-.9-.5-1.9-.5-2.9 0-1.1.2-2.1.5-3zm2.9 4.7c.1.6.4 1.1.7 1.5.3.5.7.8 1.2 1.1.5.3 1.1.4 1.8.4s1.3-.1 1.8-.4c.5-.3.9-.6 1.2-1.1.3-.5.5-1 .7-1.5.1-.6.2-1.1.2-1.8 0-.6-.1-1.2-.2-1.8-.1-.6-.4-1.1-.7-1.6-.3-.5-.7-.8-1.2-1.1s-1.1-.4-1.8-.4-1.3.1-1.8.4c-.5.3-.9.6-1.2 1.1-.3.5-.5 1-.7 1.6-.1.6-.2 1.2-.2 1.8 0 .7 0 1.3.2 1.8zM129.6 231.4c.3-.9.8-1.7 1.4-2.4.6-.7 1.3-1.2 2.2-1.6s1.9-.6 3-.6 2.1.2 3 .6c.9.4 1.6.9 2.2 1.6.6.7 1.1 1.5 1.4 2.4.3.9.5 1.9.5 3 0 1-.2 2-.5 2.9-.3.9-.8 1.7-1.4 2.4-.6.7-1.3 1.2-2.2 1.6-.9.4-1.9.6-3 .6s-2.1-.2-3-.6-1.6-.9-2.2-1.6c-.6-.7-1.1-1.5-1.4-2.4-.3-.9-.5-1.9-.5-2.9 0-1.1.1-2.1.5-3zm2.8 4.7c.1.6.4 1.1.7 1.5.3.5.7.8 1.2 1.1.5.3 1.1.4 1.8.4s1.3-.1 1.8-.4c.5-.3.9-.6 1.2-1.1.3-.5.5-1 .7-1.5.1-.6.2-1.1.2-1.8 0-.6-.1-1.2-.2-1.8-.1-.6-.4-1.1-.7-1.6-.3-.5-.7-.8-1.2-1.1s-1.1-.4-1.8-.4-1.3.1-1.8.4c-.5.3-.9.6-1.2 1.1-.3.5-.5 1-.7 1.6-.1.6-.2 1.2-.2 1.8 0 .7.1 1.3.2 1.8z"/></g></svg>