<svg id="Layer_1" xmlns="http://www.w3.org/2000/svg" xmlns:xlink="http://www.w3.org/1999/xlink" viewBox="0 0 160 600"><style>.st0{clip-path:url(#SVGID_00000075149669850435412680000010373287812196871841_);fill:#349946}.st1{fill:#fff}</style><defs><path id="SVGID_1_" d="M20.4 411.9h118.5v25H20.4z"/></defs><clipPath id="SVGID_00000140715141877357338000000003351760757032297123_"><use xlink:href="#SVGID_1_" overflow="visible"/></clipPath><path d="M138.9 424.4c0 6.9-6.5 12.5-14.3 12.5H34.8c-7.9 0-14.3-5.6-14.3-12.5s6.5-12.5 14.3-12.5h89.8c7.9 0 14.3 5.6 14.3 12.5" clip-path="url(#SVGID_00000140715141877357338000000003351760757032297123_)" fill="#349946"/><g><path class="st1" d="M48 428.7l-2.6-8h1.8l1.8 5.6 1.8-5.6h1.8l-2.6 8h-2zM55 420.7v8h-1.8v-8H55zM62.5 420.7v1.5h-4.2v1.7h3.9v1.4h-3.9v2h4.3v1.5h-6v-8h5.9zM69.6 428.7l-1.4-5.4-1.3 5.4h-1.8l-2.1-8h1.8l1.3 5.4 1.4-5.4h1.6l1.4 5.5 1.3-5.5h1.7l-2.1 8h-1.8zM81 420.7c.5 0 .9.1 1.3.2.3.1.6.3.9.6.2.2.4.5.5.8.1.3.2.6.2.9 0 .3 0 .6-.2.9s-.3.6-.5.8c-.2.2-.5.4-.9.6-.3.1-.8.2-1.3.2h-1.8v2.9h-1.8v-8H81zm-.5 3.7h.6c.2 0 .3-.1.5-.2.1-.1.3-.2.3-.4.1-.2.1-.4.1-.6s0-.5-.1-.6c-.1-.2-.2-.3-.3-.4-.1-.1-.3-.1-.5-.2h-2v2.4h1.4zM86.6 420.7v6.5h3.9v1.5h-5.6v-8h1.7zM95.5 420.7l3 8h-1.8l-.6-1.8h-3l-.6 1.8h-1.8l3-8h1.8zm.1 4.9l-1-2.9-1 2.9h2zM100.9 420.7l3.3 5.3v-5.3h1.6v8H104l-3.3-5.3v5.3h-1.6v-8h1.8zM108.7 426.7c.1.2.2.3.4.5.2.1.3.2.6.3.2.1.4.1.7.1h.5c.2 0 .3-.1.5-.2s.3-.2.4-.3.2-.3.2-.5-.1-.4-.2-.5c-.1-.1-.3-.2-.5-.3-.2-.1-.5-.2-.8-.2-.3-.1-.6-.1-.9-.2l-.9-.3c-.3-.1-.5-.2-.8-.4-.2-.2-.4-.4-.5-.6s-.2-.6-.2-.9c0-.4.1-.8.3-1.1.2-.3.4-.6.7-.8.3-.2.6-.3 1-.4.4-.1.7-.1 1.1-.1.4 0 .8 0 1.2.1s.7.2 1 .5c.3.2.5.5.7.8.2.3.3.7.3 1.2h-1.7c0-.2-.1-.4-.2-.6-.1-.2-.2-.3-.3-.4-.1-.1-.3-.2-.5-.2s-.4-.1-.6-.1h-.4c-.1 0-.3.1-.4.2l-.3.3c-.1.1-.1.3-.1.4 0 .2 0 .3.1.4s.2.2.4.3.4.2.7.2c.3.1.7.2 1.2.3.1 0 .4.1.6.2.3.1.5.2.8.4.3.2.5.4.7.7.2.3.3.7.3 1.1 0 .4-.1.7-.2 1-.1.3-.4.6-.6.8-.3.2-.6.4-1 .5-.4.1-.9.2-1.4.2-.4 0-.9-.1-1.3-.2s-.8-.3-1.1-.5c-.3-.2-.6-.5-.8-.9-.2-.4-.3-.8-.3-1.3h1.7c-.2.1-.2.3-.1.5z"/></g></svg>