<svg id="Layer_1" xmlns="http://www.w3.org/2000/svg" xmlns:xlink="http://www.w3.org/1999/xlink" viewBox="0 0 160 600"><style>.st0,.st1{clip-path:url(#SVGID_00000052094982310264776180000016234553163224002693_);fill:#231f20}.st1{fill:#00b2ee}</style><defs><path id="SVGID_1_" d="M55.3 19.8h51.4v17.5H55.3z"/></defs><clipPath id="SVGID_00000074403929486383271100000004097678420320397701_"><use xlink:href="#SVGID_1_" overflow="visible"/></clipPath><path d="M55.6 29.2h2.8c2.2 0 2.6 1.4 2.6 2.4 0 .9-.4 2.4-2.6 2.4H57v2.9h-1.3v-7.7zm1.4 3.6h1.3c.6 0 1.3-.3 1.3-1.3s-.6-1.3-1.3-1.3H57v2.6zM61.8 31.3h1.1v1.1c.1-.6.9-1.2 1.6-1.2h.5v1.2c-.2 0-.4-.1-.5-.1-.8 0-1.5.7-1.5 1.9v2.6h-1.2v-5.5zM65.2 34c0-1.7 1-2.9 2.8-2.9s2.8 1.2 2.8 2.9-1 2.9-2.8 2.9-2.8-1.2-2.8-2.9m4.4 0c0-1-.5-2-1.6-2s-1.6 1-1.6 2 .5 2 1.6 2 1.6-1 1.6-2M71 31.3h1v-1.7h1.2v1.7h1.1v.9h-1.1v3c0 .5 0 .8.6.8h.5v.9c-.3 0-.5.1-.8.1-1.3 0-1.5-.5-1.5-1.4v-3.3h-1v-1zM76 34.4c0 .9.5 1.6 1.5 1.6.7 0 1.1-.3 1.4-.9H80c-.3 1.2-1.3 1.9-2.5 1.9-1.7 0-2.7-1.2-2.7-2.9 0-1.6 1-2.9 2.7-2.9 1.8 0 2.8 1.6 2.6 3.2H76zm2.9-.8c0-.8-.6-1.5-1.4-1.5-.8 0-1.4.6-1.5 1.5h2.9zM84.7 33.1c-.1-.7-.6-1-1.3-1-.6 0-1.5.3-1.5 2 0 .9.4 1.9 1.5 1.9.7 0 1.2-.5 1.3-1.3h1.2c-.2 1.4-1.1 2.2-2.5 2.2-1.7 0-2.7-1.2-2.7-2.9s.9-3 2.7-3c1.3 0 2.4.6 2.5 2h-1.2zM86.3 31.3h.9v-1.7h1.2v1.7h1.1v.9h-1.1v3c0 .5 0 .8.6.8h.5v.9c-.3 0-.5.1-.8.1-1.3 0-1.5-.5-1.5-1.4v-3.3h-.9v-1zM90.9 29.2h1.2v1.2h-1.2v-1.2zm0 2.1h1.2v5.5h-1.2v-5.5zM93 31.3h1.4l1.7 4.2 1.7-4.2H99l-2.3 5.5h-1.3zM100.6 34.4c0 .9.5 1.6 1.5 1.6.7 0 1.1-.3 1.4-.9h1.2c-.3 1.2-1.3 1.9-2.5 1.9-1.7 0-2.7-1.2-2.7-2.9 0-1.6 1-2.9 2.7-2.9 1.7 0 2.8 1.6 2.6 3.2h-4.2zm2.8-.8c0-.8-.6-1.5-1.4-1.5-.8 0-1.4.6-1.5 1.5h2.9z" clip-path="url(#SVGID_00000074403929486383271100000004097678420320397701_)" fill="#231f20"/><path d="M88.6 27.9c-.8-3.1-3.2-5.4-6.3-6.2-.3-.9-1.2-1.6-2.2-1.6-1 0-1.9.7-2.2 1.6-3 .8-5.5 3.2-6.3 6.2l-.1.3h1.9l.1-.2c.7-2.2 2.5-3.9 4.7-4.6.4.7 1.1 1.1 2 1.1s1.6-.5 2-1.1c2.2.6 4 2.3 4.7 4.6l.1.2h1.9l-.3-.3z" clip-path="url(#SVGID_00000074403929486383271100000004097678420320397701_)" fill="#00b2ee"/><path d="M105.9 35.9c.3 0 .5.2.5.5s-.2.5-.5.5-.5-.2-.5-.5.2-.5.5-.5m.5.5c0-.3-.2-.5-.4-.5s-.4.2-.4.5.2.5.4.5.4-.2.4-.5m-.7-.3h.2c.1 0 .2.1.2.2s-.1.2-.2.2l.2.3h-.1l-.2-.3h-.1v.3h-.1v-.7zm.2.3c.1 0 .2 0 .2-.1s-.1-.1-.1-.1h-.1v.2z" clip-path="url(#SVGID_00000074403929486383271100000004097678420320397701_)" fill="#231f20"/></svg>