<?xml version="1.0" encoding="utf-8"?>
<!-- Generator: Adobe Illustrator 25.4.6, SVG Export Plug-In . SVG Version: 6.00 Build 0)  -->
<svg version="1.1" id="Layer_1" xmlns="http://www.w3.org/2000/svg" xmlns:xlink="http://www.w3.org/1999/xlink" x="0px" y="0px"
	 viewBox="0 0 300 600" style="enable-background:new 0 0 300 600;" xml:space="preserve">
<style type="text/css">
	.st0{fill:#373535;}
</style>
<g>
	<path class="st0" d="M100.1,174l8.2,22h-5l-1.7-4.9h-8.2l-1.7,4.9h-4.9l8.3-22H100.1z M100.4,187.5l-2.8-8.1h-0.1l-2.9,8.1H100.4z"
		/>
	<path class="st0" d="M113.7,180.1v2.2h0.1c0.6-0.9,1.3-1.6,2.2-2c0.9-0.4,1.8-0.6,2.7-0.6c1.2,0,2.1,0.2,2.9,0.5
		c0.7,0.3,1.3,0.8,1.8,1.3c0.4,0.6,0.7,1.3,0.9,2.1c0.2,0.8,0.3,1.7,0.3,2.7v9.8h-4.4v-9c0-1.3-0.2-2.3-0.6-2.9
		c-0.4-0.6-1.1-1-2.2-1c-1.2,0-2.1,0.4-2.6,1.1c-0.5,0.7-0.8,1.9-0.8,3.5v8.3h-4.4v-15.9H113.7z"/>
	<path class="st0" d="M138.8,194c-0.5,0.9-1.2,1.5-2,1.9s-1.8,0.6-2.8,0.6c-1.2,0-2.2-0.2-3.1-0.7c-0.9-0.5-1.6-1.1-2.2-1.9
		c-0.6-0.8-1-1.7-1.3-2.7c-0.3-1-0.4-2.1-0.4-3.2c0-1.1,0.1-2.1,0.4-3.1c0.3-1,0.7-1.9,1.3-2.6c0.6-0.8,1.3-1.4,2.2-1.8
		c0.9-0.5,1.9-0.7,3.1-0.7c0.9,0,1.8,0.2,2.7,0.6c0.9,0.4,1.5,1,2,1.8h0.1v-8h4.4v22h-4.2L138.8,194L138.8,194z M138.6,186.1
		c-0.1-0.6-0.3-1.1-0.6-1.6s-0.7-0.8-1.2-1.1c-0.5-0.3-1.1-0.4-1.8-0.4s-1.3,0.1-1.8,0.4s-0.9,0.7-1.2,1.1c-0.3,0.5-0.5,1-0.6,1.6
		c-0.1,0.6-0.2,1.2-0.2,1.9c0,0.6,0.1,1.2,0.2,1.8c0.1,0.6,0.4,1.2,0.7,1.6c0.3,0.5,0.7,0.9,1.2,1.2c0.5,0.3,1.1,0.4,1.7,0.4
		c0.7,0,1.3-0.1,1.8-0.4c0.5-0.3,0.9-0.7,1.2-1.2c0.3-0.5,0.5-1,0.6-1.6c0.1-0.6,0.2-1.3,0.2-1.9S138.7,186.7,138.6,186.1z"/>
	<path class="st0" d="M168,196l-2.8-10.7h-0.1l-2.7,10.7h-4.5l-5.1-15.9h4.6l2.9,10.8h0.1l2.6-10.8h4.2l2.7,10.8h0.1l2.9-10.8h4.5
		l-5,15.9H168z"/>
	<path class="st0" d="M179.2,177.6V174h4.4v3.6H179.2z M183.5,180.1V196h-4.4v-15.9H183.5z"/>
	<path class="st0" d="M195.5,180.1v2.9h-3.2v7.9c0,0.7,0.1,1.2,0.4,1.5c0.2,0.2,0.7,0.4,1.5,0.4c0.2,0,0.5,0,0.7,0
		c0.2,0,0.4-0.1,0.6-0.1v3.4c-0.4,0.1-0.8,0.1-1.2,0.1c-0.5,0-0.9,0-1.3,0c-0.7,0-1.3,0-1.9-0.1c-0.6-0.1-1.1-0.3-1.6-0.5
		c-0.5-0.3-0.8-0.6-1.1-1.1c-0.3-0.5-0.4-1.1-0.4-1.9V183h-2.6v-2.9h2.6v-4.8h4.4v4.8H195.5z"/>
	<path class="st0" d="M201.7,174v8.3h0.1c0.6-0.9,1.3-1.6,2.1-2c0.9-0.4,1.7-0.6,2.5-0.6c1.2,0,2.1,0.2,2.9,0.5
		c0.7,0.3,1.3,0.8,1.8,1.3c0.4,0.6,0.7,1.3,0.9,2.1c0.2,0.8,0.3,1.7,0.3,2.7v9.8h-4.4v-9c0-1.3-0.2-2.3-0.6-2.9s-1.1-1-2.2-1
		c-1.2,0-2.1,0.4-2.6,1.1c-0.5,0.7-0.8,1.9-0.8,3.5v8.3h-4.4v-22H201.7z"/>
</g>
<g>
	<path class="st0" d="M68.6,216.9c0.1-1,0.3-1.9,0.8-2.6c0.5-0.7,1-1.2,1.7-1.6c0.7-0.4,1.5-0.7,2.4-0.9c0.9-0.2,1.8-0.3,2.6-0.3
		c0.8,0,1.6,0.1,2.4,0.2c0.8,0.1,1.6,0.3,2.2,0.7c0.7,0.3,1.2,0.8,1.7,1.4c0.4,0.6,0.6,1.4,0.6,2.3v8.3c0,0.7,0,1.4,0.1,2.1
		c0.1,0.7,0.2,1.2,0.4,1.5h-4.4c-0.1-0.2-0.1-0.5-0.2-0.8c-0.1-0.3-0.1-0.5-0.1-0.8c-0.7,0.7-1.5,1.2-2.5,1.5
		c-0.9,0.3-1.9,0.4-2.9,0.4c-0.8,0-1.5-0.1-2.1-0.3c-0.7-0.2-1.2-0.5-1.7-0.9c-0.5-0.4-0.9-0.9-1.2-1.5c-0.3-0.6-0.4-1.3-0.4-2.1
		c0-0.9,0.2-1.6,0.5-2.2c0.3-0.6,0.7-1.1,1.2-1.4c0.5-0.3,1.1-0.6,1.7-0.8c0.6-0.2,1.3-0.3,2-0.4c0.7-0.1,1.3-0.2,1.9-0.2
		c0.6-0.1,1.2-0.2,1.7-0.3c0.5-0.1,0.9-0.3,1.2-0.5c0.3-0.2,0.4-0.6,0.4-1c0-0.5-0.1-0.8-0.2-1.1c-0.2-0.3-0.4-0.5-0.6-0.6
		c-0.3-0.2-0.6-0.3-0.9-0.3c-0.3-0.1-0.7-0.1-1.1-0.1c-0.9,0-1.5,0.2-2,0.6s-0.8,1-0.9,1.8H68.6z M78.7,220.1
		c-0.2,0.2-0.4,0.3-0.7,0.4c-0.3,0.1-0.6,0.2-0.9,0.2c-0.3,0.1-0.7,0.1-1,0.2c-0.3,0-0.7,0.1-1,0.2c-0.3,0.1-0.7,0.1-1,0.2
		c-0.3,0.1-0.6,0.2-0.8,0.4c-0.2,0.2-0.4,0.4-0.6,0.7c-0.1,0.3-0.2,0.6-0.2,1c0,0.4,0.1,0.7,0.2,1c0.1,0.3,0.3,0.5,0.6,0.6
		c0.2,0.2,0.5,0.3,0.9,0.3c0.3,0.1,0.7,0.1,1,0.1c0.9,0,1.5-0.1,2-0.4c0.5-0.3,0.8-0.6,1-1c0.2-0.4,0.4-0.8,0.4-1.2
		c0.1-0.4,0.1-0.7,0.1-1V220.1z"/>
	<path class="st0" d="M90.3,212v2.2h0.1c0.6-0.9,1.3-1.6,2.2-2c0.9-0.4,1.8-0.6,2.7-0.6c1.2,0,2.1,0.2,2.9,0.5
		c0.7,0.3,1.3,0.8,1.8,1.3c0.4,0.6,0.7,1.3,0.9,2.1c0.2,0.8,0.3,1.7,0.3,2.7v9.8h-4.4v-9c0-1.3-0.2-2.3-0.6-2.9
		c-0.4-0.6-1.1-1-2.2-1c-1.2,0-2.1,0.4-2.6,1.1c-0.5,0.7-0.8,1.9-0.8,3.5v8.3h-4.4V212H90.3z"/>
	<path class="st0" d="M123.8,205.9l8.2,22h-5l-1.7-4.9h-8.2l-1.7,4.9h-4.9l8.3-22H123.8z M124.1,219.4l-2.8-8.1h-0.1l-2.9,8.1H124.1
		z"/>
	<path class="st0" d="M148.6,218.5v3.3h-6.1v6.1h-3.3v-6.1H133v-3.3h6.1v-6.1h3.3v6.1H148.6z"/>
	<path class="st0" d="M163.8,212v3h0.1c0.2-0.5,0.5-0.9,0.8-1.4c0.3-0.4,0.7-0.8,1.2-1.1c0.5-0.3,0.9-0.5,1.4-0.7
		c0.5-0.2,1-0.2,1.6-0.2c0.3,0,0.6,0.1,1,0.2v4.1c-0.2,0-0.5-0.1-0.7-0.1c-0.3,0-0.6,0-0.8,0c-0.8,0-1.5,0.1-2,0.4
		c-0.6,0.3-1,0.6-1.3,1.1s-0.6,1-0.7,1.6c-0.1,0.6-0.2,1.3-0.2,2v7.2h-4.4V212H163.8z"/>
	<path class="st0" d="M171.2,216.9c0.1-1,0.3-1.9,0.8-2.6c0.5-0.7,1-1.2,1.7-1.6c0.7-0.4,1.5-0.7,2.4-0.9s1.8-0.3,2.6-0.3
		c0.8,0,1.6,0.1,2.4,0.2c0.8,0.1,1.6,0.3,2.2,0.7c0.7,0.3,1.2,0.8,1.7,1.4c0.4,0.6,0.6,1.4,0.6,2.3v8.3c0,0.7,0,1.4,0.1,2.1
		c0.1,0.7,0.2,1.2,0.4,1.5h-4.4c-0.1-0.2-0.1-0.5-0.2-0.8c-0.1-0.3-0.1-0.5-0.1-0.8c-0.7,0.7-1.5,1.2-2.5,1.5
		c-0.9,0.3-1.9,0.4-2.9,0.4c-0.8,0-1.5-0.1-2.1-0.3c-0.7-0.2-1.2-0.5-1.7-0.9c-0.5-0.4-0.9-0.9-1.2-1.5c-0.3-0.6-0.4-1.3-0.4-2.1
		c0-0.9,0.2-1.6,0.5-2.2c0.3-0.6,0.7-1.1,1.2-1.4c0.5-0.3,1.1-0.6,1.7-0.8c0.6-0.2,1.3-0.3,2-0.4c0.7-0.1,1.3-0.2,1.9-0.2
		c0.6-0.1,1.2-0.2,1.7-0.3c0.5-0.1,0.9-0.3,1.2-0.5c0.3-0.2,0.4-0.6,0.4-1c0-0.5-0.1-0.8-0.2-1.1s-0.4-0.5-0.6-0.6
		c-0.3-0.2-0.6-0.3-0.9-0.3s-0.7-0.1-1.1-0.1c-0.9,0-1.5,0.2-2,0.6c-0.5,0.4-0.8,1-0.9,1.8H171.2z M181.3,220.1
		c-0.2,0.2-0.4,0.3-0.7,0.4c-0.3,0.1-0.6,0.2-0.9,0.2s-0.7,0.1-1,0.2c-0.3,0-0.7,0.1-1,0.2c-0.3,0.1-0.7,0.1-1,0.2
		c-0.3,0.1-0.6,0.2-0.8,0.4s-0.4,0.4-0.6,0.7c-0.1,0.3-0.2,0.6-0.2,1c0,0.4,0.1,0.7,0.2,1c0.1,0.3,0.3,0.5,0.6,0.6s0.5,0.3,0.9,0.3
		c0.3,0.1,0.7,0.1,1,0.1c0.9,0,1.5-0.1,2-0.4c0.5-0.3,0.8-0.6,1-1c0.2-0.4,0.4-0.8,0.4-1.2c0.1-0.4,0.1-0.7,0.1-1V220.1z"/>
	<path class="st0" d="M197.5,212v2.9h-3.2v7.9c0,0.7,0.1,1.2,0.4,1.5c0.2,0.2,0.7,0.4,1.5,0.4c0.2,0,0.5,0,0.7,0
		c0.2,0,0.4-0.1,0.6-0.1v3.4c-0.4,0.1-0.8,0.1-1.2,0.1c-0.5,0-0.9,0-1.3,0c-0.7,0-1.3,0-1.9-0.1c-0.6-0.1-1.1-0.3-1.6-0.5
		c-0.5-0.3-0.8-0.6-1.1-1.1c-0.3-0.5-0.4-1.1-0.4-1.9v-9.4h-2.6V212h2.6v-4.8h4.4v4.8H197.5z"/>
	<path class="st0" d="M204,224.1c0.7,0.6,1.6,1,2.8,1c0.9,0,1.6-0.2,2.3-0.7c0.6-0.4,1-0.9,1.2-1.4h3.8c-0.6,1.9-1.6,3.3-2.8,4.1
		c-1.3,0.8-2.8,1.2-4.6,1.2c-1.3,0-2.4-0.2-3.4-0.6c-1-0.4-1.9-1-2.6-1.7c-0.7-0.7-1.2-1.6-1.6-2.6c-0.4-1-0.6-2.2-0.6-3.4
		c0-1.2,0.2-2.3,0.6-3.3c0.4-1,0.9-1.9,1.7-2.7c0.7-0.7,1.6-1.3,2.6-1.8c1-0.4,2.1-0.6,3.3-0.6c1.4,0,2.5,0.3,3.5,0.8
		s1.8,1.2,2.5,2.1s1.1,1.9,1.4,3c0.3,1.1,0.4,2.3,0.3,3.5H203C203,222.4,203.4,223.5,204,224.1z M209,215.7
		c-0.5-0.6-1.3-0.9-2.4-0.9c-0.7,0-1.3,0.1-1.7,0.4c-0.5,0.2-0.8,0.5-1.1,0.9c-0.3,0.3-0.5,0.7-0.6,1.1s-0.2,0.7-0.2,1h7.1
		C209.9,217.1,209.5,216.3,209,215.7z"/>
	<path class="st0" d="M228.1,225.9c-0.5,0.9-1.2,1.5-2,1.9c-0.8,0.4-1.8,0.6-2.8,0.6c-1.2,0-2.2-0.2-3.1-0.7s-1.6-1.1-2.2-1.9
		c-0.6-0.8-1-1.7-1.3-2.7c-0.3-1-0.4-2.1-0.4-3.2c0-1.1,0.1-2.1,0.4-3.1c0.3-1,0.7-1.9,1.3-2.6c0.6-0.8,1.3-1.4,2.2-1.8
		c0.9-0.5,1.9-0.7,3.1-0.7c0.9,0,1.8,0.2,2.7,0.6c0.9,0.4,1.5,1,2,1.8h0.1v-8h4.4v22h-4.2L228.1,225.9L228.1,225.9z M227.9,218
		c-0.1-0.6-0.3-1.1-0.6-1.6s-0.7-0.8-1.2-1.1c-0.5-0.3-1.1-0.4-1.8-0.4s-1.3,0.1-1.8,0.4c-0.5,0.3-0.9,0.7-1.2,1.1
		c-0.3,0.5-0.5,1-0.6,1.6c-0.1,0.6-0.2,1.2-0.2,1.9c0,0.6,0.1,1.2,0.2,1.8c0.1,0.6,0.4,1.2,0.7,1.6c0.3,0.5,0.7,0.9,1.2,1.2
		c0.5,0.3,1.1,0.4,1.7,0.4c0.7,0,1.3-0.1,1.8-0.4s0.9-0.7,1.2-1.2c0.3-0.5,0.5-1,0.6-1.6c0.1-0.6,0.2-1.3,0.2-1.9
		S228,218.6,227.9,218z"/>
</g>
<g>
	<path class="st0" d="M81.2,241.4v-3.6h4.4v3.6H81.2z M85.6,243.9v15.9h-4.4v-15.9H85.6z"/>
	<path class="st0" d="M92.9,243.9v2.2H93c0.6-0.9,1.3-1.6,2.2-2c0.9-0.4,1.8-0.6,2.7-0.6c1.2,0,2.1,0.2,2.9,0.5
		c0.7,0.3,1.3,0.8,1.8,1.3c0.4,0.6,0.7,1.3,0.9,2.1c0.2,0.8,0.3,1.7,0.3,2.7v9.8h-4.4v-9c0-1.3-0.2-2.3-0.6-2.9
		c-0.4-0.6-1.1-1-2.2-1c-1.2,0-2.1,0.4-2.6,1.1c-0.5,0.7-0.8,1.9-0.8,3.5v8.3h-4.4v-15.9H92.9z"/>
	<path class="st0" d="M110.5,255.9c0.2,0.3,0.4,0.6,0.8,0.8c0.3,0.2,0.7,0.4,1.1,0.5c0.4,0.1,0.8,0.2,1.2,0.2c0.3,0,0.6,0,1-0.1
		c0.3-0.1,0.6-0.2,0.9-0.3c0.3-0.2,0.5-0.4,0.7-0.6c0.2-0.3,0.3-0.6,0.3-1c0-0.7-0.4-1.1-1.3-1.5c-0.9-0.3-2.1-0.7-3.6-1
		c-0.6-0.1-1.3-0.3-1.9-0.5c-0.6-0.2-1.1-0.5-1.6-0.8c-0.5-0.3-0.9-0.7-1.1-1.2c-0.3-0.5-0.4-1.1-0.4-1.8c0-1,0.2-1.9,0.6-2.5
		c0.4-0.7,0.9-1.2,1.6-1.6c0.7-0.4,1.4-0.6,2.2-0.8c0.8-0.2,1.7-0.2,2.5-0.2s1.7,0.1,2.5,0.2c0.8,0.2,1.5,0.4,2.2,0.8
		c0.6,0.4,1.2,0.9,1.6,1.6c0.4,0.6,0.7,1.5,0.8,2.4h-4.2c-0.1-0.8-0.4-1.4-1-1.7c-0.6-0.3-1.3-0.4-2-0.4c-0.2,0-0.5,0-0.8,0
		c-0.3,0-0.5,0.1-0.8,0.2c-0.2,0.1-0.4,0.3-0.6,0.4c-0.2,0.2-0.2,0.5-0.2,0.8c0,0.4,0.1,0.7,0.4,1s0.7,0.4,1.1,0.6s1,0.3,1.6,0.4
		c0.6,0.1,1.2,0.3,1.8,0.4c0.6,0.1,1.3,0.3,1.9,0.5c0.6,0.2,1.1,0.5,1.6,0.8c0.5,0.3,0.9,0.8,1.1,1.3c0.3,0.5,0.4,1.1,0.4,1.9
		c0,1-0.2,1.9-0.6,2.6c-0.4,0.7-1,1.3-1.6,1.7s-1.5,0.7-2.3,0.9c-0.9,0.2-1.8,0.3-2.7,0.3c-0.9,0-1.8-0.1-2.7-0.3
		c-0.9-0.2-1.7-0.5-2.4-0.9c-0.7-0.4-1.3-1-1.7-1.7c-0.4-0.7-0.7-1.6-0.7-2.7h4.2C110.2,255.1,110.3,255.5,110.5,255.9z"/>
	<path class="st0" d="M133.8,259.8v-2.2h-0.1c-0.6,0.9-1.3,1.6-2.2,2c-0.9,0.4-1.8,0.6-2.7,0.6c-1.2,0-2.1-0.2-2.9-0.5
		s-1.3-0.7-1.8-1.3c-0.4-0.6-0.7-1.3-0.9-2.1s-0.3-1.7-0.3-2.7v-9.8h4.4v9c0,1.3,0.2,2.3,0.6,2.9c0.4,0.6,1.1,1,2.2,1
		c1.2,0,2.1-0.4,2.6-1.1c0.5-0.7,0.8-1.9,0.8-3.5v-8.3h4.4v15.9H133.8z"/>
	<path class="st0" d="M145.2,243.9v3h0.1c0.2-0.5,0.5-0.9,0.8-1.4c0.3-0.4,0.7-0.8,1.2-1.1c0.5-0.3,0.9-0.5,1.4-0.7
		c0.5-0.2,1-0.2,1.6-0.2c0.3,0,0.6,0.1,1,0.2v4.1c-0.2,0-0.5-0.1-0.7-0.1c-0.3,0-0.6,0-0.8,0c-0.8,0-1.5,0.1-2,0.4
		c-0.6,0.3-1,0.6-1.3,1.1s-0.6,1-0.7,1.6c-0.1,0.6-0.2,1.3-0.2,2v7.2H141v-15.9H145.2z"/>
	<path class="st0" d="M152.5,248.8c0.1-1,0.3-1.9,0.8-2.6c0.5-0.7,1-1.2,1.7-1.6c0.7-0.4,1.5-0.7,2.4-0.9s1.8-0.3,2.6-0.3
		c0.8,0,1.6,0.1,2.4,0.2c0.8,0.1,1.6,0.3,2.2,0.7c0.7,0.3,1.2,0.8,1.7,1.4c0.4,0.6,0.6,1.4,0.6,2.3v8.3c0,0.7,0,1.4,0.1,2.1
		c0.1,0.7,0.2,1.2,0.4,1.5h-4.4c-0.1-0.2-0.1-0.5-0.2-0.8c-0.1-0.3-0.1-0.5-0.1-0.8c-0.7,0.7-1.5,1.2-2.5,1.5
		c-0.9,0.3-1.9,0.4-2.9,0.4c-0.8,0-1.5-0.1-2.1-0.3c-0.7-0.2-1.2-0.5-1.7-0.9c-0.5-0.4-0.9-0.9-1.2-1.5c-0.3-0.6-0.4-1.3-0.4-2.1
		c0-0.9,0.2-1.6,0.5-2.2c0.3-0.6,0.7-1.1,1.2-1.4c0.5-0.3,1.1-0.6,1.7-0.8c0.6-0.2,1.3-0.3,2-0.4c0.7-0.1,1.3-0.2,1.9-0.2
		c0.6-0.1,1.2-0.2,1.7-0.3c0.5-0.1,0.9-0.3,1.2-0.5c0.3-0.2,0.4-0.6,0.4-1c0-0.5-0.1-0.8-0.2-1.1s-0.4-0.5-0.6-0.6
		c-0.3-0.2-0.6-0.3-0.9-0.3s-0.7-0.1-1.1-0.1c-0.9,0-1.5,0.2-2,0.6c-0.5,0.4-0.8,1-0.9,1.8H152.5z M162.6,252
		c-0.2,0.2-0.4,0.3-0.7,0.4c-0.3,0.1-0.6,0.2-0.9,0.2s-0.7,0.1-1,0.2c-0.3,0-0.7,0.1-1,0.2c-0.3,0.1-0.7,0.1-1,0.2
		c-0.3,0.1-0.6,0.2-0.8,0.4s-0.4,0.4-0.6,0.7c-0.1,0.3-0.2,0.6-0.2,1c0,0.4,0.1,0.7,0.2,1c0.1,0.3,0.3,0.5,0.6,0.6s0.5,0.3,0.9,0.3
		c0.3,0.1,0.7,0.1,1,0.1c0.9,0,1.5-0.1,2-0.4c0.5-0.3,0.8-0.6,1-1c0.2-0.4,0.4-0.8,0.4-1.2c0.1-0.4,0.1-0.7,0.1-1V252z"/>
	<path class="st0" d="M174.3,243.9v2.2h0.1c0.6-0.9,1.3-1.6,2.2-2c0.9-0.4,1.8-0.6,2.7-0.6c1.2,0,2.1,0.2,2.9,0.5
		c0.7,0.3,1.3,0.8,1.8,1.3c0.4,0.6,0.7,1.3,0.9,2.1c0.2,0.8,0.3,1.7,0.3,2.7v9.8h-4.4v-9c0-1.3-0.2-2.3-0.6-2.9s-1.1-1-2.2-1
		c-1.2,0-2.1,0.4-2.6,1.1c-0.5,0.7-0.8,1.9-0.8,3.5v8.3h-4.4v-15.9H174.3z"/>
	<path class="st0" d="M195.7,246.8c-0.7,0-1.3,0.2-1.8,0.5c-0.5,0.3-0.9,0.7-1.2,1.2c-0.3,0.5-0.5,1.1-0.6,1.7
		c-0.1,0.6-0.2,1.2-0.2,1.8c0,0.6,0.1,1.2,0.2,1.8c0.1,0.6,0.3,1.1,0.6,1.6c0.3,0.5,0.7,0.9,1.1,1.2c0.5,0.3,1,0.5,1.7,0.5
		c1,0,1.9-0.3,2.4-0.9c0.6-0.6,0.9-1.4,1.1-2.4h4.2c-0.3,2.1-1.1,3.7-2.5,4.8c-1.4,1.1-3.1,1.7-5.2,1.7c-1.2,0-2.3-0.2-3.3-0.6
		s-1.8-1-2.5-1.7c-0.7-0.7-1.2-1.6-1.6-2.6c-0.4-1-0.6-2.1-0.6-3.3c0-1.2,0.2-2.4,0.5-3.4c0.4-1.1,0.9-2,1.6-2.7
		c0.7-0.8,1.5-1.4,2.6-1.8s2.2-0.6,3.5-0.6c0.9,0,1.9,0.1,2.7,0.4c0.9,0.2,1.7,0.6,2.3,1.1c0.7,0.5,1.2,1.1,1.7,1.9
		c0.4,0.8,0.7,1.6,0.7,2.7H199C198.7,247.7,197.6,246.8,195.7,246.8z"/>
	<path class="st0" d="M210.2,256c0.7,0.6,1.6,1,2.8,1c0.9,0,1.6-0.2,2.3-0.7c0.6-0.4,1-0.9,1.2-1.4h3.8c-0.6,1.9-1.6,3.3-2.8,4.1
		c-1.3,0.8-2.8,1.2-4.6,1.2c-1.3,0-2.4-0.2-3.4-0.6c-1-0.4-1.9-1-2.6-1.7c-0.7-0.7-1.2-1.6-1.6-2.6c-0.4-1-0.6-2.2-0.6-3.4
		c0-1.2,0.2-2.3,0.6-3.3c0.4-1,0.9-1.9,1.7-2.7c0.7-0.7,1.6-1.3,2.6-1.8c1-0.4,2.1-0.6,3.3-0.6c1.4,0,2.5,0.3,3.5,0.8
		s1.8,1.2,2.5,2.1s1.1,1.9,1.4,3c0.3,1.1,0.4,2.3,0.3,3.5h-11.5C209.2,254.3,209.5,255.4,210.2,256z M215.1,247.6
		c-0.5-0.6-1.3-0.9-2.4-0.9c-0.7,0-1.3,0.1-1.7,0.4c-0.5,0.2-0.8,0.5-1.1,0.9c-0.3,0.3-0.5,0.7-0.6,1.1s-0.2,0.7-0.2,1h7.1
		C216,249,215.7,248.2,215.1,247.6z"/>
</g>
<g>
	<path class="st0" d="M90,278.7c-0.7,0-1.3,0.2-1.8,0.5c-0.5,0.3-0.9,0.7-1.2,1.2c-0.3,0.5-0.5,1.1-0.6,1.7
		c-0.1,0.6-0.2,1.2-0.2,1.8c0,0.6,0.1,1.2,0.2,1.8c0.1,0.6,0.3,1.1,0.6,1.6c0.3,0.5,0.7,0.9,1.1,1.2c0.5,0.3,1,0.5,1.7,0.5
		c1,0,1.9-0.3,2.4-0.9c0.6-0.6,0.9-1.4,1.1-2.4h4.2c-0.3,2.1-1.1,3.7-2.5,4.8c-1.4,1.1-3.1,1.7-5.2,1.7c-1.2,0-2.3-0.2-3.3-0.6
		c-1-0.4-1.8-1-2.5-1.7c-0.7-0.7-1.2-1.6-1.6-2.6c-0.4-1-0.6-2.1-0.6-3.3c0-1.2,0.2-2.4,0.5-3.4c0.4-1.1,0.9-2,1.6-2.7
		s1.6-1.4,2.6-1.8c1-0.4,2.2-0.6,3.4-0.6c0.9,0,1.9,0.1,2.7,0.4c0.9,0.2,1.7,0.6,2.3,1.1c0.7,0.5,1.2,1.1,1.7,1.9
		c0.4,0.8,0.7,1.6,0.7,2.7h-4.3C93,279.6,91.9,278.7,90,278.7z"/>
	<path class="st0" d="M99.9,280.3c0.4-1,0.9-1.9,1.7-2.6c0.7-0.7,1.6-1.3,2.6-1.7c1-0.4,2.1-0.6,3.4-0.6c1.3,0,2.4,0.2,3.4,0.6
		s1.9,1,2.6,1.7c0.7,0.7,1.3,1.6,1.7,2.6c0.4,1,0.6,2.2,0.6,3.5c0,1.3-0.2,2.4-0.6,3.4s-0.9,1.9-1.7,2.6c-0.7,0.7-1.6,1.3-2.6,1.7
		c-1,0.4-2.2,0.6-3.4,0.6c-1.3,0-2.4-0.2-3.4-0.6c-1-0.4-1.9-0.9-2.6-1.7c-0.7-0.7-1.3-1.6-1.7-2.6s-0.6-2.2-0.6-3.4
		C99.3,282.5,99.5,281.4,99.9,280.3z M103.9,285.6c0.1,0.6,0.3,1.2,0.6,1.6c0.3,0.5,0.7,0.9,1.2,1.2s1.1,0.4,1.8,0.4
		s1.4-0.1,1.9-0.4c0.5-0.3,0.9-0.7,1.2-1.2c0.3-0.5,0.5-1,0.6-1.6c0.1-0.6,0.2-1.2,0.2-1.9c0-0.6-0.1-1.3-0.2-1.9
		c-0.1-0.6-0.3-1.2-0.6-1.6c-0.3-0.5-0.7-0.9-1.2-1.2c-0.5-0.3-1.1-0.4-1.9-0.4s-1.4,0.1-1.8,0.4c-0.5,0.3-0.9,0.7-1.2,1.2
		c-0.3,0.5-0.5,1-0.6,1.6c-0.1,0.6-0.2,1.2-0.2,1.9C103.7,284.4,103.7,285,103.9,285.6z"/>
	<path class="st0" d="M122.6,275.8v2.2h0.1c0.6-0.8,1.3-1.5,2.1-1.9c0.8-0.5,1.7-0.7,2.8-0.7c1,0,1.9,0.2,2.8,0.6
		c0.8,0.4,1.5,1.1,1.9,2.1c0.5-0.7,1.1-1.3,1.9-1.8c0.8-0.5,1.8-0.8,2.9-0.8c0.8,0,1.6,0.1,2.3,0.3c0.7,0.2,1.3,0.5,1.8,1
		c0.5,0.5,0.9,1,1.2,1.8c0.3,0.7,0.4,1.6,0.4,2.6v10.7h-4.4v-9c0-0.5,0-1-0.1-1.5c0-0.5-0.2-0.9-0.3-1.2c-0.2-0.3-0.5-0.6-0.8-0.8
		c-0.4-0.2-0.8-0.3-1.5-0.3c-0.6,0-1.1,0.1-1.5,0.4s-0.7,0.5-0.9,0.9c-0.2,0.4-0.4,0.8-0.4,1.3c-0.1,0.5-0.1,1-0.1,1.5v8.9h-4.4
		v-8.9c0-0.5,0-0.9,0-1.4c0-0.5-0.1-0.9-0.3-1.3c-0.2-0.4-0.4-0.7-0.8-0.9c-0.4-0.2-0.9-0.4-1.6-0.4c-0.2,0-0.5,0-0.8,0.1
		c-0.3,0.1-0.7,0.3-1,0.5c-0.3,0.3-0.6,0.6-0.8,1.1c-0.2,0.5-0.3,1.1-0.3,1.9v9.2h-4.4v-15.9H122.6z"/>
	<path class="st0" d="M150.1,275.8v2h0.1c0.5-0.9,1.2-1.5,2-1.9c0.8-0.4,1.7-0.6,2.7-0.6c1.3,0,2.3,0.2,3.2,0.7
		c0.9,0.5,1.7,1.1,2.2,1.9c0.6,0.8,1,1.7,1.3,2.7c0.3,1,0.4,2.1,0.4,3.2c0,1.1-0.1,2.1-0.4,3.1c-0.3,1-0.7,1.9-1.3,2.6
		s-1.3,1.4-2.2,1.8c-0.9,0.5-1.9,0.7-3.1,0.7c-1,0-1.9-0.2-2.7-0.6c-0.8-0.4-1.5-1-2-1.8h-0.1v7.5H146v-21.5H150.1z M155.8,288.4
		c0.5-0.3,0.9-0.7,1.2-1.1s0.5-1,0.6-1.6c0.1-0.6,0.2-1.2,0.2-1.9c0-0.6-0.1-1.3-0.2-1.9c-0.1-0.6-0.4-1.2-0.7-1.6
		c-0.3-0.5-0.7-0.9-1.2-1.2c-0.5-0.3-1.1-0.4-1.8-0.4c-0.7,0-1.3,0.1-1.8,0.4c-0.5,0.3-0.9,0.7-1.2,1.2c-0.3,0.5-0.5,1-0.6,1.6
		s-0.2,1.3-0.2,1.9c0,0.6,0.1,1.3,0.2,1.9c0.1,0.6,0.3,1.2,0.6,1.6s0.7,0.8,1.2,1.1c0.5,0.3,1.1,0.4,1.8,0.4
		C154.7,288.9,155.3,288.7,155.8,288.4z"/>
	<path class="st0" d="M164.3,280.7c0.1-1,0.3-1.9,0.8-2.6c0.5-0.7,1-1.2,1.7-1.6c0.7-0.4,1.5-0.7,2.4-0.9s1.8-0.3,2.6-0.3
		c0.8,0,1.6,0.1,2.4,0.2c0.8,0.1,1.6,0.3,2.2,0.7c0.7,0.3,1.2,0.8,1.7,1.4c0.4,0.6,0.6,1.4,0.6,2.3v8.3c0,0.7,0,1.4,0.1,2.1
		c0.1,0.7,0.2,1.2,0.4,1.5h-4.4c-0.1-0.2-0.1-0.5-0.2-0.8c-0.1-0.3-0.1-0.5-0.1-0.8c-0.7,0.7-1.5,1.2-2.5,1.5
		c-0.9,0.3-1.9,0.4-2.9,0.4c-0.8,0-1.5-0.1-2.1-0.3c-0.7-0.2-1.2-0.5-1.7-0.9c-0.5-0.4-0.9-0.9-1.2-1.5c-0.3-0.6-0.4-1.3-0.4-2.1
		c0-0.9,0.2-1.6,0.5-2.2c0.3-0.6,0.7-1.1,1.2-1.4c0.5-0.3,1.1-0.6,1.7-0.8c0.6-0.2,1.3-0.3,2-0.4c0.7-0.1,1.3-0.2,1.9-0.2
		c0.6-0.1,1.2-0.2,1.7-0.3c0.5-0.1,0.9-0.3,1.2-0.5c0.3-0.2,0.4-0.6,0.4-1c0-0.5-0.1-0.8-0.2-1.1s-0.4-0.5-0.6-0.6
		c-0.3-0.2-0.6-0.3-0.9-0.3s-0.7-0.1-1.1-0.1c-0.9,0-1.5,0.2-2,0.6c-0.5,0.4-0.8,1-0.9,1.8H164.3z M174.4,283.9
		c-0.2,0.2-0.4,0.3-0.7,0.4c-0.3,0.1-0.6,0.2-0.9,0.2s-0.7,0.1-1,0.2c-0.3,0-0.7,0.1-1,0.2c-0.3,0.1-0.7,0.1-1,0.2
		c-0.3,0.1-0.6,0.2-0.8,0.4s-0.4,0.4-0.6,0.7c-0.1,0.3-0.2,0.6-0.2,1c0,0.4,0.1,0.7,0.2,1c0.1,0.3,0.3,0.5,0.6,0.6s0.5,0.3,0.9,0.3
		c0.3,0.1,0.7,0.1,1,0.1c0.9,0,1.5-0.1,2-0.4c0.5-0.3,0.8-0.6,1-1c0.2-0.4,0.4-0.8,0.4-1.2c0.1-0.4,0.1-0.7,0.1-1V283.9z"/>
	<path class="st0" d="M186,275.8v2.2h0.1c0.6-0.9,1.3-1.6,2.2-2c0.9-0.4,1.8-0.6,2.7-0.6c1.2,0,2.1,0.2,2.9,0.5
		c0.7,0.3,1.3,0.8,1.8,1.3c0.4,0.6,0.7,1.3,0.9,2.1c0.2,0.8,0.3,1.7,0.3,2.7v9.8h-4.4v-9c0-1.3-0.2-2.3-0.6-2.9s-1.1-1-2.2-1
		c-1.2,0-2.1,0.4-2.6,1.1c-0.5,0.7-0.8,1.9-0.8,3.5v8.3h-4.4v-15.9H186z"/>
	<path class="st0" d="M205.8,296.5c-0.8,0.6-2,0.8-3.5,0.8c-0.5,0-0.9,0-1.3,0c-0.4,0-0.9-0.1-1.3-0.1v-3.6c0.4,0,0.8,0.1,1.3,0.1
		c0.4,0,0.9,0.1,1.3,0c0.6-0.1,1-0.3,1.3-0.7c0.3-0.4,0.4-0.8,0.4-1.3c0-0.3-0.1-0.7-0.2-1l-5.6-14.9h4.7l3.6,10.9h0.1l3.5-10.9h4.5
		l-6.7,17.9C207.3,295,206.6,295.9,205.8,296.5z"/>
	<path class="st0" d="M218.3,287v4.7h-4.8V287H218.3z"/>
</g>
</svg>
