<?xml version="1.0" encoding="utf-8"?>
<!-- Generator: Adobe Illustrator 25.4.6, SVG Export Plug-In . SVG Version: 6.00 Build 0)  -->
<svg version="1.1" id="Layer_1" xmlns="http://www.w3.org/2000/svg" xmlns:xlink="http://www.w3.org/1999/xlink" x="0px" y="0px"
	 viewBox="0 0 300 600" style="enable-background:new 0 0 300 600;" xml:space="preserve">
<style type="text/css">
	.st0{clip-path:url(#SVGID_00000064322921461888316050000001170956806506111115_);fill:#439D51;}
	.st1{fill:#FFFFFF;}
</style>
<g>
	<defs>
		<rect id="SVGID_1_" x="63.5" y="429" width="174.2" height="36.7"/>
	</defs>
	<clipPath id="SVGID_00000112611383249525303260000002633082327587878572_">
		<use xlink:href="#SVGID_1_"  style="overflow:visible;"/>
	</clipPath>
	<path style="clip-path:url(#SVGID_00000112611383249525303260000002633082327587878572_);fill:#439D51;" d="M237.8,447.3
		c0,10.1-9.5,18.4-21.1,18.4h-132c-11.6,0-21.1-8.3-21.1-18.4c0-10.1,9.5-18.4,21.1-18.4h132C228.3,429,237.8,437.2,237.8,447.3"/>
</g>
<g>
	<path class="st1" d="M106.6,441.9v2.2h-5.7v2.7h4.9v2h-4.9v4.8h-2.6v-11.7H106.6z"/>
	<path class="st1" d="M114.4,441.9c0.5,0,1,0.1,1.4,0.3c0.4,0.2,0.8,0.4,1.1,0.7c0.3,0.3,0.5,0.6,0.7,1s0.2,0.8,0.2,1.3
		c0,0.7-0.1,1.3-0.4,1.8c-0.3,0.5-0.8,0.9-1.4,1.1v0c0.3,0.1,0.6,0.2,0.8,0.4s0.4,0.4,0.5,0.6s0.2,0.5,0.3,0.8
		c0.1,0.3,0.1,0.6,0.1,0.9c0,0.2,0,0.4,0,0.7c0,0.3,0,0.5,0.1,0.8s0.1,0.5,0.1,0.7c0.1,0.2,0.1,0.4,0.3,0.6h-2.6
		c-0.1-0.4-0.2-0.8-0.3-1.3c0-0.5-0.1-1-0.1-1.5c-0.1-0.6-0.3-1.1-0.6-1.3c-0.3-0.3-0.7-0.4-1.4-0.4h-2.6v4.6h-2.6v-11.7H114.4z
		 M113.5,447.2c0.6,0,1-0.1,1.3-0.4c0.3-0.3,0.4-0.7,0.4-1.3c0-0.6-0.1-1-0.4-1.2c-0.3-0.3-0.7-0.4-1.3-0.4h-2.8v3.3H113.5z"/>
	<path class="st1" d="M128.7,441.9v2.2h-6.2v2.5h5.7v2h-5.7v2.9h6.3v2.2h-8.9v-11.7H128.7z"/>
	<path class="st1" d="M139.3,441.9v2.2h-6.2v2.5h5.7v2h-5.7v2.9h6.3v2.2h-8.9v-11.7H139.3z"/>
	<path class="st1" d="M153.8,453.2c-0.8,0.4-1.7,0.7-2.8,0.7c-0.9,0-1.7-0.2-2.4-0.5c-0.7-0.3-1.3-0.7-1.8-1.3s-0.9-1.2-1.1-1.9
		s-0.4-1.5-0.4-2.4c0-0.9,0.1-1.7,0.4-2.4s0.6-1.4,1.1-2s1.1-1,1.8-1.3c0.7-0.3,1.5-0.5,2.4-0.5c0.9,0,1.7,0.2,2.4,0.5
		c0.7,0.3,1.3,0.8,1.8,1.3s0.9,1.2,1.1,2s0.4,1.6,0.4,2.4c0,0.9-0.1,1.6-0.4,2.4c-0.3,0.7-0.6,1.4-1.1,1.9l1.5,1.3l-1.2,1.2
		L153.8,453.2z M153.4,450.4c0.2-0.3,0.4-0.7,0.5-1.1s0.2-1,0.2-1.6c0-0.5-0.1-1-0.2-1.5c-0.1-0.5-0.3-0.9-0.5-1.3
		c-0.3-0.4-0.6-0.7-1-0.9c-0.4-0.2-0.9-0.3-1.5-0.3c-0.6,0-1.1,0.1-1.5,0.3c-0.4,0.2-0.7,0.5-1,0.9c-0.3,0.4-0.4,0.8-0.5,1.3
		c-0.1,0.5-0.2,1-0.2,1.5c0,0.5,0.1,1,0.2,1.4c0.1,0.5,0.3,0.9,0.5,1.3c0.3,0.4,0.6,0.7,1,0.9c0.4,0.2,0.9,0.3,1.5,0.3
		c0.3,0,0.5,0,0.6,0c0.1,0,0.3-0.1,0.4-0.1l-1.1-1l1.2-1.3L153.4,450.4z"/>
	<path class="st1" d="M167.1,452.7c-0.9,0.8-2.1,1.2-3.7,1.2c-1.6,0-2.8-0.4-3.7-1.1c-0.9-0.8-1.3-1.9-1.3-3.5v-7.3h2.6v7.3
		c0,0.3,0,0.6,0.1,0.9c0.1,0.3,0.2,0.6,0.3,0.8c0.2,0.2,0.4,0.4,0.7,0.6c0.3,0.1,0.7,0.2,1.3,0.2c0.9,0,1.6-0.2,1.9-0.6
		c0.3-0.4,0.5-1.1,0.5-1.9v-7.3h2.6v7.3C168.4,450.7,168,451.9,167.1,452.7z"/>
	<path class="st1" d="M170.5,445.3c0.3-0.7,0.6-1.4,1.1-2s1.1-1,1.8-1.3c0.7-0.3,1.5-0.5,2.4-0.5c0.9,0,1.7,0.2,2.4,0.5
		c0.7,0.3,1.3,0.8,1.8,1.3s0.9,1.2,1.1,2s0.4,1.6,0.4,2.4c0,0.9-0.1,1.6-0.4,2.4s-0.6,1.4-1.1,1.9s-1.1,1-1.8,1.3
		c-0.7,0.3-1.5,0.5-2.4,0.5c-0.9,0-1.7-0.2-2.4-0.5c-0.7-0.3-1.3-0.7-1.8-1.3s-0.9-1.2-1.1-1.9s-0.4-1.5-0.4-2.4
		C170.1,446.9,170.3,446.1,170.5,445.3z M172.9,449.2c0.1,0.5,0.3,0.9,0.5,1.3c0.3,0.4,0.6,0.7,1,0.9c0.4,0.2,0.9,0.3,1.5,0.3
		s1.1-0.1,1.5-0.3c0.4-0.2,0.7-0.5,1-0.9c0.3-0.4,0.4-0.8,0.5-1.3c0.1-0.5,0.2-0.9,0.2-1.4c0-0.5-0.1-1-0.2-1.5
		c-0.1-0.5-0.3-0.9-0.5-1.3c-0.3-0.4-0.6-0.7-1-0.9c-0.4-0.2-0.9-0.3-1.5-0.3s-1.1,0.1-1.5,0.3c-0.4,0.2-0.7,0.5-1,0.9
		c-0.3,0.4-0.4,0.8-0.5,1.3c-0.1,0.5-0.2,1-0.2,1.5C172.7,448.3,172.8,448.7,172.9,449.2z"/>
	<path class="st1" d="M182.5,444v-2.2h9.6v2.2h-3.5v9.5H186V444H182.5z"/>
	<path class="st1" d="M202.2,441.9v2.2H196v2.5h5.7v2H196v2.9h6.3v2.2h-8.9v-11.7H202.2z"/>
</g>
</svg>
