<?xml version="1.0" encoding="utf-8"?>
<!-- Generator: Adobe Illustrator 25.4.6, SVG Export Plug-In . SVG Version: 6.00 Build 0)  -->
<svg version="1.1" id="Layer_1" xmlns="http://www.w3.org/2000/svg" xmlns:xlink="http://www.w3.org/1999/xlink" x="0px" y="0px"
	 viewBox="0 0 300 600" style="enable-background:new 0 0 300 600;" xml:space="preserve">
<style type="text/css">
	.st0{fill:#439D51;}
	.st1{fill:#373535;}
	.st2{fill:none;}
</style>
<path class="st0" d="M28.8,92.7h-3.1l-1-2.9h-6.1l-1,2.9h-3.1L20,78.4h2.2c0.8,0,1.2,0.2,1.4,0.8c0.2,0.5,2.7,6.9,2.7,6.9h-2.9
	l-1.7-4.8l-2.2,6.1h6.2c0.8,0,1.3,0.3,1.5,1L28.8,92.7z"/>
<path class="st0" d="M55.8,92.7h-3.1l-1-2.9h-6.1l-1,2.9h-3.1l5.4-14.2h2.2c0.8,0,1.2,0.2,1.4,0.8c0.2,0.5,2.7,6.9,2.7,6.9h-2.9
	l-1.7-4.8l-2.2,6.1h6.2c0.8,0,1.3,0.3,1.5,1L55.8,92.7z"/>
<path class="st0" d="M29.8,78.4h5.6c4.4,0,6.5,2.3,6.5,7.1c0,2.7-0.8,4.7-2.3,5.8c-1.4,1.1-2.9,1.3-5,1.3h-4.8V78.4z M35.1,90.1
	c2.7,0,3.9-1.3,3.9-4.5c0-3.2-1.1-4.6-3.5-4.6h-2.7v9.2H35.1z"/>
<g>
	<path class="st1" d="M80,92.5h-2.2l-0.9-10.2l-3.5,10.2h-1.9l-3.6-10.2L67,92.5H65l1.3-13.5h2.5l3.7,10.4L76,79.1h2.5L80,92.5z"/>
	<path class="st1" d="M91,87.5c0,0.1,0,0.3,0,0.5c0,0.2,0,0.3,0,0.3h-6.7c0,0.7,0.2,1.3,0.6,1.8c0.5,0.6,1.2,0.9,2.2,0.9
		c0.8,0,1.7-0.2,2.7-0.7l0.8,1.5c-1,0.7-2.2,1.1-3.7,1.1c-1.5,0-2.7-0.5-3.6-1.5c-0.8-0.9-1.3-2.1-1.3-3.6c0-1.6,0.4-2.8,1.3-3.8
		c0.9-1,2-1.5,3.4-1.5c1.3,0,2.4,0.5,3.1,1.4C90.6,84.7,91,85.9,91,87.5z M88.9,86.6c0-0.6-0.1-1.1-0.4-1.6c-0.4-0.6-1-1-1.7-1
		c-0.7,0-1.3,0.2-1.7,0.7c-0.5,0.5-0.7,1.1-0.8,1.8H88.9z"/>
	<path class="st1" d="M107.2,92.5h-2.2V87c0-1.1-0.1-1.9-0.4-2.2c-0.3-0.3-0.7-0.5-1.2-0.5c-0.7,0-1.4,0.3-2.2,0.8
		c0.1,0.3,0.1,1,0.1,2.2v5.2h-2.2v-5.4c0-1.3-0.2-2.1-0.5-2.4c-0.3-0.3-0.6-0.4-1.1-0.4c-0.7,0-1.4,0.2-2.1,0.7v7.6h-2.2v-9.9h1.9
		v0.7c0.9-0.7,1.9-1,2.9-1c1,0,1.8,0.4,2.4,1.1c1.1-0.7,2.2-1.1,3.3-1.1c1,0,1.9,0.3,2.4,0.9c0.5,0.5,0.8,1.1,0.9,1.8
		c0.1,0.5,0.1,1.3,0.1,2.5V92.5z"/>
	<path class="st1" d="M118.7,87.4c0,1.6-0.5,2.9-1.4,3.9c-0.9,1-2.2,1.5-3.7,1.5c-1.1,0-2.4-0.2-3.9-0.7V77.9h2.2v5.2
		c0.8-0.5,1.6-0.7,2.5-0.7c1.3,0,2.3,0.5,3.1,1.4C118.3,84.7,118.7,85.9,118.7,87.4z M116.4,87.4c0-1-0.2-1.8-0.7-2.4
		c-0.5-0.5-1-0.8-1.8-0.8c-0.7,0-1.4,0.2-2.1,0.7v5.8c0.6,0.2,1.1,0.3,1.6,0.3c0.9,0,1.6-0.3,2.1-1
		C116.1,89.4,116.4,88.5,116.4,87.4z"/>
	<path class="st1" d="M129.2,87.5c0,0.1,0,0.3,0,0.5c0,0.2,0,0.3,0,0.3h-6.7c0,0.7,0.2,1.3,0.6,1.8c0.5,0.6,1.2,0.9,2.2,0.9
		c0.8,0,1.7-0.2,2.7-0.7l0.8,1.5c-1,0.7-2.2,1.1-3.7,1.1c-1.5,0-2.7-0.5-3.6-1.5c-0.8-0.9-1.3-2.1-1.3-3.6c0-1.6,0.4-2.8,1.3-3.8
		c0.9-1,2-1.5,3.4-1.5c1.3,0,2.4,0.5,3.1,1.4C128.9,84.7,129.2,85.9,129.2,87.5z M127.1,86.6c0-0.6-0.1-1.1-0.4-1.6
		c-0.4-0.6-1-1-1.7-1c-0.7,0-1.3,0.2-1.7,0.7c-0.5,0.5-0.7,1.1-0.8,1.8H127.1z"/>
	<path class="st1" d="M137.6,82.6l-0.5,1.7c-0.2,0-0.4-0.1-0.7-0.1c-1.2,0-2.2,0.5-2.9,1.5v6.8h-2.2v-9.9h1.9v1.3
		c0.2-0.3,0.5-0.5,0.9-0.8c0.7-0.5,1.5-0.7,2.3-0.7C136.9,82.4,137.3,82.5,137.6,82.6z"/>
</g>
<g>
	<path class="st1" d="M145.7,89.7c0,1-0.4,1.7-1.1,2.3c-0.7,0.6-1.6,0.8-2.7,0.8c-0.9,0-1.7-0.2-2.5-0.5c-0.5-0.2-0.8-0.4-1.1-0.6
		l0.8-1.5c1,0.5,1.8,0.8,2.6,0.8c0.6,0,1-0.1,1.3-0.3s0.4-0.5,0.4-0.9s-0.2-0.6-0.6-0.9c-0.2-0.1-0.7-0.4-1.6-0.7
		c-0.8-0.3-1.4-0.7-1.7-1c-0.6-0.5-0.9-1.2-0.9-2c0-0.9,0.3-1.6,1-2.1c0.7-0.5,1.6-0.8,2.6-0.8c1.4,0,2.5,0.3,3.2,0.9l-0.8,1.4
		c-0.8-0.4-1.5-0.7-2.3-0.7c-1.1,0-1.6,0.4-1.6,1.1c0,0.3,0.2,0.6,0.5,0.8c0.2,0.1,0.6,0.3,1.3,0.6c1,0.4,1.7,0.8,2,1.1
		C145.4,88.2,145.7,88.9,145.7,89.7z"/>
	<path class="st1" d="M155.4,92.5h-2.3V79.1h2.3V92.5z"/>
	<path class="st1" d="M166.6,92.5h-2.2v-5.4c0-1.3-0.1-2.1-0.4-2.4c-0.3-0.3-0.7-0.4-1.3-0.4c-0.7,0-1.4,0.2-2.2,0.7v7.5h-2.2v-9.9
		h1.9v0.7c0.9-0.7,1.9-1,2.9-1c1,0,1.9,0.3,2.5,0.9c0.5,0.5,0.8,1,0.9,1.7c0.1,0.4,0.1,1.1,0.1,2V92.5z"/>
	<path class="st1" d="M175.7,89.7c0,1-0.4,1.7-1.1,2.3c-0.7,0.6-1.6,0.8-2.7,0.8c-0.9,0-1.7-0.2-2.5-0.5c-0.5-0.2-0.8-0.4-1.1-0.6
		l0.8-1.5c1,0.5,1.8,0.8,2.6,0.8c0.6,0,1-0.1,1.3-0.3s0.4-0.5,0.4-0.9s-0.2-0.6-0.6-0.9c-0.2-0.1-0.7-0.4-1.6-0.7
		c-0.8-0.3-1.4-0.7-1.7-1c-0.6-0.5-0.9-1.2-0.9-2c0-0.9,0.3-1.6,1-2.1c0.7-0.5,1.6-0.8,2.6-0.8c1.4,0,2.5,0.3,3.2,0.9l-0.8,1.4
		c-0.8-0.4-1.5-0.7-2.3-0.7c-1.1,0-1.6,0.4-1.6,1.1c0,0.3,0.2,0.6,0.5,0.8c0.2,0.1,0.6,0.3,1.3,0.6c1,0.4,1.7,0.8,2,1.1
		C175.4,88.2,175.7,88.9,175.7,89.7z"/>
	<path class="st1" d="M186.2,92.5h-1.9v-0.7c-0.9,0.7-1.9,1-2.9,1c-1,0-1.9-0.3-2.5-0.9c-0.5-0.5-0.8-1-0.9-1.7
		c-0.1-0.4-0.1-1.1-0.1-2v-5.5h2.2v5.4c0,0.7,0,1.1,0,1.3c0.1,0.6,0.2,0.9,0.5,1.2c0.3,0.2,0.7,0.3,1.2,0.3c0.6,0,1.3-0.2,2.2-0.7
		v-7.5h2.2V92.5z"/>
	<path class="st1" d="M195.1,82.6l-0.5,1.7c-0.2,0-0.4-0.1-0.7-0.1c-1.2,0-2.2,0.5-2.9,1.5v6.8h-2.2v-9.9h1.9v1.3
		c0.2-0.3,0.5-0.5,0.9-0.8c0.7-0.5,1.5-0.7,2.3-0.7C194.3,82.4,194.7,82.5,195.1,82.6z"/>
</g>
<g>
	<path class="st1" d="M203.7,92.5h-1.9v-0.7c-1,0.6-1.9,0.9-2.9,0.9c-1,0-1.7-0.3-2.3-0.9c-0.6-0.6-0.9-1.3-0.9-2.3
		c0-2.3,1.9-3.5,5.6-3.5h0.4v-0.4c0-0.6-0.1-1-0.3-1.2c-0.3-0.3-0.8-0.4-1.6-0.4c-0.9,0-1.8,0.3-2.7,0.8l-0.8-1.4
		c0.2-0.2,0.6-0.4,1.1-0.6c0.8-0.3,1.6-0.5,2.6-0.5c1.3,0,2.4,0.4,3.1,1.1c0.4,0.4,0.6,0.8,0.7,1.3c0.1,0.3,0.1,0.9,0.1,1.7V92.5z
		 M201.6,90.4v-2.6h-0.5c-1.5,0-2.6,0.3-3.1,0.8c-0.3,0.3-0.4,0.6-0.4,1c0,0.5,0.2,0.9,0.5,1.1c0.3,0.3,0.7,0.4,1.2,0.4
		C200.1,91,200.8,90.8,201.6,90.4z"/>
	<path class="st1" d="M214.5,92.5h-2.2v-5.4c0-1.3-0.1-2.1-0.4-2.4c-0.3-0.3-0.7-0.4-1.3-0.4c-0.7,0-1.4,0.2-2.2,0.7v7.5h-2.2v-9.9
		h1.9v0.7c0.9-0.7,1.9-1,2.9-1c1,0,1.9,0.3,2.5,0.9c0.5,0.5,0.8,1,0.9,1.7c0.1,0.4,0.1,1.1,0.1,2V92.5z"/>
	<path class="st1" d="M225.1,91.6c-0.1,0.2-0.5,0.4-1,0.6c-0.8,0.4-1.7,0.5-2.6,0.5c-1.5,0-2.7-0.5-3.6-1.4s-1.4-2.2-1.4-3.7
		c0-1.5,0.5-2.8,1.5-3.8c1-1,2.2-1.5,3.7-1.5c0.8,0,1.6,0.2,2.3,0.5c0.5,0.2,0.8,0.4,1,0.6l-0.9,1.4c-0.7-0.5-1.4-0.7-2.2-0.7
		c-0.9,0-1.7,0.3-2.2,1c-0.5,0.6-0.8,1.4-0.8,2.3c0,1,0.3,1.8,0.8,2.4c0.5,0.6,1.2,0.9,2.2,0.9c0.7,0,1.6-0.2,2.5-0.7L225.1,91.6z"
		/>
</g>
<g>
	<path class="st1" d="M235,87.5c0,0.1,0,0.3,0,0.5s0,0.3,0,0.3h-6.7c0,0.7,0.2,1.3,0.6,1.8c0.5,0.6,1.2,0.9,2.2,0.9
		c0.8,0,1.7-0.2,2.7-0.7l0.8,1.5c-1,0.7-2.2,1.1-3.7,1.1c-1.5,0-2.7-0.5-3.6-1.5c-0.8-0.9-1.3-2.1-1.3-3.6c0-1.6,0.4-2.8,1.3-3.8
		c0.9-1,2-1.5,3.4-1.5c1.3,0,2.4,0.5,3.1,1.4S235,85.9,235,87.5z M232.9,86.6c0-0.6-0.1-1.1-0.4-1.6c-0.4-0.6-1-1-1.7-1
		c-0.7,0-1.3,0.2-1.7,0.7c-0.5,0.5-0.7,1.1-0.8,1.8H232.9z"/>
	<path class="st1" d="M251.2,83.1c0,1.2-0.4,2.2-1.2,3c-0.6,0.6-1.3,0.9-2.1,1.1c-0.5,0.1-1.3,0.2-2.5,0.2h-1v5.2h-2.3V79.1h3.6
		c1.1,0,1.9,0.1,2.4,0.2c0.8,0.2,1.4,0.5,1.9,1C250.9,81,251.2,81.9,251.2,83.1z M248.9,83.1c0-0.7-0.2-1.3-0.6-1.7
		c-0.4-0.4-1.2-0.5-2.5-0.5h-1.3v4.6h1c1.5,0,2.4-0.2,2.8-0.6S248.9,83.9,248.9,83.1z"/>
	<path class="st1" d="M255.8,92.5h-2.2V77.9h2.2V92.5z"/>
	<path class="st1" d="M265.9,92.5H264v-0.7c-1,0.6-1.9,0.9-2.9,0.9c-1,0-1.7-0.3-2.3-0.9c-0.6-0.6-0.9-1.3-0.9-2.3
		c0-2.3,1.9-3.5,5.6-3.5h0.4v-0.4c0-0.6-0.1-1-0.3-1.2c-0.3-0.3-0.8-0.4-1.6-0.4c-0.9,0-1.8,0.3-2.7,0.8l-0.8-1.4
		c0.2-0.2,0.6-0.4,1.1-0.6c0.8-0.3,1.6-0.5,2.6-0.5c1.3,0,2.4,0.4,3.1,1.1c0.4,0.4,0.6,0.8,0.7,1.3c0.1,0.3,0.1,0.9,0.1,1.7V92.5z
		 M263.8,90.4v-2.6h-0.5c-1.5,0-2.6,0.3-3.1,0.8c-0.3,0.3-0.4,0.6-0.4,1c0,0.5,0.2,0.9,0.5,1.1c0.3,0.3,0.7,0.4,1.2,0.4
		C262.3,91,263,90.8,263.8,90.4z"/>
	<path class="st1" d="M276.7,92.5h-2.2v-5.4c0-1.3-0.1-2.1-0.4-2.4c-0.3-0.3-0.7-0.4-1.3-0.4c-0.7,0-1.4,0.2-2.2,0.7v7.5h-2.2v-9.9
		h1.9v0.7c0.9-0.7,1.9-1,2.9-1c1,0,1.9,0.3,2.5,0.9c0.5,0.5,0.8,1,0.9,1.7c0.1,0.4,0.1,1.1,0.1,2V92.5z"/>
	<path class="st1" d="M285.8,89.7c0,1-0.4,1.7-1.1,2.3c-0.7,0.6-1.6,0.8-2.7,0.8c-0.9,0-1.7-0.2-2.5-0.5c-0.5-0.2-0.8-0.4-1.1-0.6
		l0.8-1.5c1,0.5,1.8,0.8,2.6,0.8c0.6,0,1-0.1,1.3-0.3s0.4-0.5,0.4-0.9s-0.2-0.6-0.6-0.9c-0.2-0.1-0.7-0.4-1.6-0.7
		c-0.8-0.3-1.4-0.7-1.7-1c-0.6-0.5-0.9-1.2-0.9-2c0-0.9,0.3-1.6,1-2.1c0.7-0.5,1.6-0.8,2.6-0.8c1.4,0,2.5,0.3,3.2,0.9l-0.8,1.4
		c-0.8-0.4-1.5-0.7-2.3-0.7c-1.1,0-1.6,0.4-1.6,1.1c0,0.3,0.2,0.6,0.5,0.8c0.2,0.1,0.6,0.3,1.3,0.6c1,0.4,1.7,0.8,2,1.1
		C285.5,88.2,285.8,88.9,285.8,89.7z"/>
</g>
<path class="st0" d="M57.8,92.7c-0.9,0-1.7-0.7-1.7-1.7c0-0.9,0.8-1.7,1.7-1.7s1.7,0.8,1.7,1.7C59.5,92,58.8,92.7,57.8,92.7
	 M57.8,89.8c-0.7,0-1.3,0.6-1.3,1.3c0,0.7,0.6,1.3,1.3,1.3s1.3-0.5,1.3-1.3C59.1,90.3,58.5,89.8,57.8,89.8 M58.2,91.9L58,91.4
	c-0.1-0.2-0.1-0.2-0.4-0.2h-0.1v0.7h-0.3v-1.8h0.4c0.2,0,0.4,0,0.6,0.2c0.1,0.1,0.2,0.2,0.2,0.4c0,0.2-0.1,0.4-0.3,0.4
	c0.1,0,0.2,0.1,0.2,0.2l0.3,0.6H58.2z M58,90.5c-0.1,0-0.2,0-0.3,0h-0.1v0.4c0.1,0,0.2,0,0.3,0c0.1,0,0.2-0.1,0.2-0.2
	C58.1,90.5,58,90.5,58,90.5"/>
<rect x="14.6" y="75.7" class="st2" width="271.7" height="18.7"/>
</svg>
