<svg baseProfile="tiny" xmlns="http://www.w3.org/2000/svg" viewBox="0 0 300 250" overflow="visible"><g fill="#231F20"><path d="M53.2 82.1l6.5 17.4h-4l-1.3-3.9h-6.5l-1.4 3.9h-3.8l6.6-17.4h3.9zm.2 10.6l-2.2-6.4-2.3 6.4h4.5zM63.9 86.9v1.8h.1c.4-.7 1-1.3 1.7-1.6s1.4-.5 2.1-.5c.9 0 1.7.1 2.3.4.6.3 1.1.6 1.4 1 .3.4.6 1 .7 1.6.1.6.2 1.4.2 2.1v7.7H69v-7.1c0-1-.2-1.8-.5-2.3s-.9-.8-1.7-.8c-.9 0-1.6.3-2 .8-.4.6-.6 1.5-.6 2.8v6.6h-3.5V86.9h3.2zM83.8 97.8c-.4.7-.9 1.2-1.6 1.5s-1.4.5-2.2.5c-.9 0-1.8-.2-2.5-.5-.7-.4-1.3-.9-1.8-1.5s-.8-1.3-1-2.2c-.2-.8-.4-1.7-.4-2.5s.1-1.7.4-2.4c.2-.8.6-1.5 1-2.1.5-.6 1-1.1 1.7-1.4.7-.4 1.5-.5 2.4-.5.7 0 1.5.2 2.1.5.7.3 1.2.8 1.6 1.4v-6.3H87v17.4h-3.3l.1-1.9zm-.1-6.2c-.1-.5-.3-.9-.5-1.3s-.5-.7-.9-.9c-.4-.2-.8-.3-1.4-.3-.6 0-1 .1-1.4.3-.4.2-.7.5-.9.9-.2.4-.4.8-.5 1.3-.1.5-.2 1-.2 1.5s.1 1 .2 1.5.3.9.5 1.3c.3.4.6.7 1 .9.4.2.8.4 1.4.4.6 0 1-.1 1.4-.3s.7-.5.9-.9c.2-.4.4-.8.5-1.3s.1-1 .1-1.5c-.1-.6-.1-1.1-.2-1.6zM99.4 86.9v1.6c.4-.7 1-1.2 1.6-1.5.6-.3 1.4-.5 2.1-.5 1 0 1.8.2 2.6.6.7.4 1.3.9 1.8 1.5s.8 1.3 1 2.2c.2.8.3 1.7.3 2.6 0 .8-.1 1.7-.3 2.4-.2.8-.6 1.5-1 2.1-.5.6-1 1.1-1.7 1.4-.7.4-1.5.5-2.4.5-.8 0-1.5-.2-2.2-.5-.7-.3-1.2-.8-1.6-1.4v6h-3.5v-17h3.3zm4.5 9.9c.4-.2.7-.5.9-.9s.4-.8.5-1.3c.1-.5.1-1 .1-1.5s-.1-1-.2-1.5-.3-.9-.5-1.3-.6-.7-.9-.9c-.4-.2-.8-.4-1.4-.4-.6 0-1 .1-1.4.4-.4.2-.7.5-.9.9-.2.4-.4.8-.5 1.3-.1.5-.1 1-.1 1.5s.1 1 .2 1.5.3.9.5 1.3.5.7.9.9c.4.2.9.3 1.4.3.5.1 1 0 1.4-.3zM114 86.9v2.3c.2-.4.4-.8.7-1.1.3-.3.6-.6 1-.9.4-.2.7-.4 1.1-.5.4-.1.8-.2 1.3-.2.2 0 .5 0 .8.1v3.2c-.2 0-.4-.1-.6-.1h-.7c-.6 0-1.2.1-1.6.3s-.8.5-1.1.9c-.3.4-.5.8-.6 1.3-.1.5-.2 1-.2 1.6v5.7h-3.5V86.9h3.4zM119.6 90.4c.3-.8.7-1.5 1.3-2.1.6-.6 1.2-1 2-1.3.8-.3 1.7-.5 2.7-.5s1.9.2 2.7.5c.8.3 1.5.8 2.1 1.3.6.6 1 1.3 1.3 2.1.3.8.5 1.7.5 2.7s-.2 1.9-.5 2.7c-.3.8-.7 1.5-1.3 2.1-.6.6-1.3 1-2.1 1.3-.8.3-1.7.5-2.7.5s-1.9-.2-2.7-.5c-.8-.3-1.5-.8-2-1.3-.6-.6-1-1.3-1.3-2.1-.3-.8-.5-1.7-.5-2.7s.2-1.9.5-2.7zm3.2 4.2c.1.5.3.9.5 1.3s.5.7.9.9.9.3 1.5.3 1.1-.1 1.5-.3c.4-.2.7-.5.9-.9.2-.4.4-.8.5-1.3s.1-1 .1-1.5 0-1-.1-1.5-.3-.9-.5-1.3-.6-.7-.9-.9c-.4-.2-.9-.4-1.5-.4s-1.1.1-1.5.4c-.4.2-.7.5-.9.9-.2.4-.4.8-.5 1.3-.1.5-.1 1-.1 1.5s0 1.1.1 1.5zM141.1 86.9v2.3h-2.5v6.2c0 .6.1 1 .3 1.2s.6.3 1.2.3h.6c.2 0 .3 0 .5-.1v2.7c-.3 0-.6.1-1 .1h-1c-.5 0-1 0-1.5-.1s-.9-.2-1.3-.4-.7-.5-.9-.9-.3-.9-.3-1.5v-7.4H133V87h2.1v-3.8h3.5V87h2.5zM146.3 96.4c.5.5 1.3.8 2.2.8.7 0 1.3-.2 1.8-.5s.8-.7.9-1.1h3c-.5 1.5-1.2 2.6-2.2 3.2-1 .6-2.2 1-3.7 1-1 0-1.9-.2-2.7-.5-.8-.3-1.5-.8-2-1.4-.6-.6-1-1.3-1.3-2.1-.3-.8-.5-1.7-.5-2.7 0-.9.2-1.8.5-2.6s.7-1.5 1.3-2.1c.6-.6 1.2-1.1 2-1.4.8-.3 1.7-.5 2.6-.5 1.1 0 2 .2 2.8.6.8.4 1.4 1 2 1.7.5.7.9 1.5 1.1 2.4.2.9.3 1.8.2 2.8h-9.1c.3 1.1.5 1.9 1.1 2.4zm3.9-6.6c-.4-.5-1-.7-1.9-.7-.6 0-1 .1-1.4.3-.4.2-.7.4-.9.7-.2.3-.4.6-.5.9s-.1.6-.2.8h5.6c0-.9-.3-1.5-.7-2zM162.3 89.1c-.6 0-1 .1-1.4.4-.4.3-.7.6-.9 1s-.4.8-.5 1.3c-.1.5-.1 1-.1 1.4 0 .5 0 .9.1 1.4.1.5.3.9.5 1.3s.5.7.9.9c.4.2.8.4 1.4.4.8 0 1.5-.2 1.9-.7.4-.5.7-1.1.8-1.9h3.3c-.2 1.7-.9 2.9-1.9 3.8-1.1.9-2.4 1.3-4.1 1.3-.9 0-1.8-.2-2.6-.5s-1.5-.8-2-1.3c-.6-.6-1-1.2-1.3-2-.3-.8-.5-1.7-.5-2.6 0-1 .1-1.9.4-2.7.3-.8.7-1.6 1.3-2.2s1.2-1.1 2-1.4c.8-.3 1.7-.5 2.7-.5.7 0 1.5.1 2.2.3.7.2 1.3.5 1.9.9.5.4 1 .9 1.3 1.5s.5 1.3.6 2.1h-3.4c-.2-1.5-1.1-2.2-2.6-2.2zM177 86.9v2.3h-2.5v6.2c0 .6.1 1 .3 1.2.2.2.6.3 1.2.3h.6c.2 0 .3 0 .5-.1v2.7c-.3 0-.6.1-1 .1h-1c-.5 0-1 0-1.5-.1s-.9-.2-1.3-.4-.7-.5-.9-.9-.3-.9-.3-1.5v-7.4H169V87h2.1v-3.8h3.5V87h2.4zM189.6 103.2c-.7.4-1.6.7-2.8.7h-1.1c-.3 0-.7-.1-1.1-.1v-2.9c.3 0 .7.1 1 .1h1c.5 0 .8-.2 1-.5.2-.3.3-.6.3-1 0-.3 0-.5-.1-.8l-4.4-11.8h3.7l2.8 8.6 2.8-8.6h3.6l-5.3 14.2c-.2.9-.7 1.7-1.4 2.1zM197.4 90.4c.3-.8.7-1.5 1.3-2.1s1.2-1 2-1.3c.8-.3 1.7-.5 2.7-.5s1.9.2 2.7.5c.8.3 1.5.8 2.1 1.3s1 1.3 1.3 2.1c.3.8.5 1.7.5 2.7s-.2 1.9-.5 2.7c-.3.8-.7 1.5-1.3 2.1-.6.6-1.3 1-2.1 1.3-.8.3-1.7.5-2.7.5s-1.9-.2-2.7-.5c-.8-.3-1.5-.8-2-1.3-.6-.6-1-1.3-1.3-2.1-.3-.8-.5-1.7-.5-2.7s.2-1.9.5-2.7zm3.2 4.2c.1.5.3.9.5 1.3s.5.7.9.9c.4.2.9.3 1.5.3s1.1-.1 1.5-.3c.4-.2.7-.5 1-.9.2-.4.4-.8.5-1.3.1-.5.1-1 .1-1.5s0-1-.1-1.5-.3-.9-.5-1.3-.6-.7-1-.9c-.4-.2-.9-.4-1.5-.4s-1.1.1-1.5.4c-.4.2-.7.5-.9.9-.2.4-.4.8-.5 1.3-.1.5-.1 1-.1 1.5s0 1.1.1 1.5zM220.6 99.5v-1.8h-.1c-.4.7-1 1.3-1.7 1.6-.7.3-1.4.5-2.1.5-.9 0-1.7-.1-2.3-.4s-1.1-.6-1.4-1c-.3-.4-.6-1-.7-1.6-.1-.6-.2-1.4-.2-2.1V87h3.5v7c0 1 .2 1.8.5 2.3.3.5.9.8 1.7.8.9 0 1.6-.3 2-.8.4-.6.6-1.5.6-2.8v-6.6h3.5v12.6h-3.3zM229.5 86.9v2.3c.2-.4.4-.8.7-1.1s.6-.6 1-.9c.4-.2.7-.4 1.1-.5.4-.1.8-.2 1.3-.2.2 0 .5 0 .8.1v3.2c-.2 0-.4-.1-.6-.1h-.7c-.6 0-1.2.1-1.6.3s-.8.5-1.1.9c-.3.4-.5.8-.6 1.3-.1.5-.2 1-.2 1.6v5.7h-3.5V86.9h3.4zM238.4 96.3c.2.3.4.5.6.7s.5.3.8.4c.3.1.6.1 1 .1.2 0 .5 0 .8-.1.3-.1.5-.1.7-.3.2-.1.4-.3.5-.5.1-.2.2-.5.2-.8 0-.5-.3-.9-1-1.2-.7-.3-1.7-.5-2.9-.8-.5-.1-1-.2-1.5-.4s-.9-.4-1.3-.6c-.4-.3-.7-.6-.9-1-.2-.4-.3-.8-.3-1.4 0-.8.2-1.5.5-2s.7-.9 1.3-1.2c.5-.3 1.1-.5 1.8-.6.6-.1 1.3-.2 2-.2s1.3.1 2 .2c.6.1 1.2.3 1.7.7.5.3.9.7 1.3 1.2.3.5.5 1.2.6 1.9H243c0-.7-.3-1.1-.8-1.4-.5-.2-1-.4-1.6-.4h-.6c-.2 0-.4.1-.6.2-.2.1-.3.2-.5.4s-.2.4-.2.6c0 .3.1.6.3.8.2.2.5.4.9.5.4.1.8.2 1.3.3.5.1 1 .2 1.4.3.5.1 1 .3 1.5.4.5.2.9.4 1.3.6.4.3.7.6.9 1 .2.4.3.9.3 1.5 0 .8-.2 1.5-.5 2.1-.3.6-.8 1-1.3 1.4-.5.3-1.1.6-1.8.7-.7.1-1.4.2-2.1.2-.7 0-1.4-.1-2.1-.2-.7-.1-1.3-.4-1.9-.7-.5-.3-1-.8-1.3-1.4-.3-.6-.5-1.3-.6-2.1h3.3c-.1.5 0 .9.1 1.1zM252.1 96.4c.5.5 1.3.8 2.2.8.7 0 1.3-.2 1.8-.5s.8-.7.9-1.1h3c-.5 1.5-1.2 2.6-2.2 3.2-1 .6-2.2 1-3.7 1-1 0-1.9-.2-2.7-.5-.8-.3-1.5-.8-2-1.4-.6-.6-1-1.3-1.3-2.1-.3-.8-.5-1.7-.5-2.7 0-.9.2-1.8.5-2.6s.7-1.5 1.3-2.1c.6-.6 1.2-1.1 2-1.4.8-.3 1.7-.5 2.6-.5 1.1 0 2 .2 2.8.6s1.5 1 2 1.7.9 1.5 1.1 2.4.3 1.8.2 2.8H251c.3 1.1.6 1.9 1.1 2.4zm3.9-6.6c-.4-.5-1-.7-1.9-.7-.6 0-1 .1-1.4.3-.4.2-.7.4-.9.7-.2.3-.4.6-.5.9-.1.3-.1.6-.2.8h5.6c0-.9-.3-1.5-.7-2zM265.7 82.1v17.4h-3.5V82.1h3.5zM266.9 89.2v-2.3h2.1v-1c0-1.1.3-2 1-2.8.7-.7 1.8-1.1 3.2-1.1h.9c.3 0 .6 0 .9.1v2.6c-.4 0-.8-.1-1.3-.1s-.8.1-1 .3-.3.6-.3 1.1v.8h2.4v2.3h-2.4v10.3h-3.5V89.2h-2z"/></g><g fill="#231F20"><path d="M61.9 113.5v-2.3H64v-1c0-1.1.3-2 1-2.8.7-.7 1.8-1.1 3.2-1.1h.9c.3 0 .6 0 .9.1v2.6c-.4 0-.8-.1-1.3-.1s-.8.1-1 .3-.3.6-.3 1.1v.8h2.4v2.3h-2.4v10.3H64v-10.3h-2.1zM74.4 111.2v2.3c.2-.4.4-.8.7-1.1.3-.3.6-.6 1-.9.4-.2.7-.4 1.1-.5.4-.1.8-.2 1.3-.2.2 0 .5 0 .8.1v3.2c-.2 0-.4-.1-.6-.1H78c-.6 0-1.2.1-1.6.3s-.8.5-1.1.9c-.3.4-.5.8-.6 1.3-.1.5-.2 1-.2 1.6v5.7H71v-12.6h3.4zM80 114.8c.3-.8.7-1.5 1.3-2.1.6-.6 1.2-1 2-1.3.8-.3 1.7-.5 2.7-.5s1.9.2 2.7.5c.8.3 1.5.8 2.1 1.3.6.6 1 1.3 1.3 2.1.3.8.5 1.7.5 2.7s-.2 1.9-.5 2.7c-.3.8-.7 1.5-1.3 2.1-.6.6-1.3 1-2.1 1.3-.8.3-1.7.5-2.7.5s-1.9-.2-2.7-.5c-.8-.3-1.5-.8-2-1.3-.6-.6-1-1.3-1.3-2.1-.3-.8-.5-1.7-.5-2.7s.2-1.9.5-2.7zm3.1 4.2c.1.5.3.9.5 1.3s.5.7.9.9.9.3 1.5.3 1.1-.1 1.5-.3c.4-.2.7-.5.9-.9.2-.4.4-.8.5-1.3s.1-1 .1-1.5 0-1-.1-1.5-.3-.9-.5-1.3-.6-.7-.9-.9c-.4-.2-.9-.4-1.5-.4s-1.1.1-1.5.4c-.4.2-.7.5-.9.9-.2.4-.4.8-.5 1.3-.1.5-.1 1-.1 1.5s0 1 .1 1.5zM97.9 111.2v1.7c.5-.6 1-1.2 1.6-1.5.6-.4 1.4-.5 2.2-.5.8 0 1.5.2 2.2.5s1.2.9 1.5 1.6c.4-.6.9-1 1.5-1.5s1.4-.6 2.3-.6c.7 0 1.3.1 1.9.2.6.2 1.1.4 1.5.8.4.4.7.8 1 1.4.2.6.3 1.3.3 2.1v8.4h-3.5v-7.1-1.2c0-.4-.1-.7-.3-1-.1-.3-.4-.5-.6-.7-.3-.2-.7-.2-1.2-.2s-.9.1-1.2.3c-.3.2-.5.4-.7.7-.2.3-.3.6-.3 1-.1.4-.1.8-.1 1.2v7h-3.5v-7.1-1.1c0-.4-.1-.7-.2-1-.1-.3-.3-.6-.6-.7-.3-.2-.7-.3-1.3-.3-.2 0-.4 0-.6.1s-.5.2-.8.4c-.3.2-.5.5-.6.9-.2.4-.3.9-.3 1.5v7.3h-3.5v-12.6h3.3zM131.5 123.8V122h-.1c-.4.7-1 1.3-1.7 1.6s-1.4.5-2.1.5c-.9 0-1.7-.1-2.3-.4s-1.1-.6-1.4-1c-.3-.4-.6-1-.7-1.6-.1-.6-.2-1.4-.2-2.1v-7.7h3.5v7.1c0 1 .2 1.8.5 2.3.3.5.9.8 1.7.8.9 0 1.6-.3 2-.8.4-.6.6-1.5.6-2.8v-6.6h3.5v12.6h-3.3zM140.5 111.2v1.8h.1c.4-.7 1-1.3 1.7-1.6s1.4-.5 2.1-.5c.9 0 1.7.1 2.3.4.6.3 1.1.6 1.4 1 .3.4.6 1 .7 1.6.1.6.2 1.4.2 2.1v7.7h-3.5v-7.1c0-1-.2-1.8-.5-2.3s-.9-.8-1.7-.8c-.9 0-1.6.3-2 .8-.4.6-.6 1.5-.6 2.8v6.6h-3.5v-12.6h3.3zM155.1 120.8c.5.5 1.3.8 2.2.8.7 0 1.3-.2 1.8-.5s.8-.7.9-1.1h3c-.5 1.5-1.2 2.6-2.2 3.2-1 .6-2.2 1-3.7 1-1 0-1.9-.2-2.7-.5-.8-.3-1.5-.8-2-1.4-.6-.6-1-1.3-1.3-2.1-.3-.8-.5-1.7-.5-2.7 0-.9.2-1.8.5-2.6s.7-1.5 1.3-2.1c.6-.6 1.2-1.1 2-1.4.8-.3 1.7-.5 2.6-.5 1.1 0 2 .2 2.8.6s1.5 1 2 1.7.9 1.5 1.1 2.4.3 1.8.2 2.8H154c.3 1.1.6 1.9 1.1 2.4zm3.9-6.6c-.4-.5-1-.7-1.9-.7-.6 0-1 .1-1.4.3-.4.2-.7.4-.9.7-.2.3-.4.6-.5.9-.1.3-.1.6-.2.8h5.6c0-.9-.3-1.6-.7-2zM164.2 111.2h3.9l2.2 3.3 2.2-3.3h3.8l-4.1 5.9 4.7 6.7H173l-2.6-4-2.6 4h-3.9l4.5-6.6-4.2-6zM181.3 111.2v1.6c.4-.7 1-1.2 1.6-1.5.6-.3 1.4-.5 2.1-.5 1 0 1.8.2 2.6.6.7.4 1.3.9 1.8 1.5s.8 1.3 1 2.2c.2.8.3 1.7.3 2.6 0 .8-.1 1.7-.3 2.4-.2.8-.6 1.5-1 2.1-.5.6-1 1.1-1.7 1.4s-1.5.5-2.4.5c-.8 0-1.5-.2-2.2-.5-.7-.3-1.2-.8-1.6-1.4v6H178v-17h3.3zm4.5 10c.4-.2.7-.5.9-.9.2-.4.4-.8.5-1.3.1-.5.1-1 .1-1.5s-.1-1-.2-1.5-.3-.9-.5-1.3-.6-.7-.9-.9c-.4-.2-.8-.4-1.4-.4-.6 0-1 .1-1.4.4-.4.2-.7.5-.9.9-.2.4-.4.8-.5 1.3-.1.5-.1 1-.1 1.5s.1 1 .2 1.5.3.9.5 1.3.5.7.9.9.9.3 1.4.3c.5 0 1-.1 1.4-.3zM196.4 120.8c.5.5 1.3.8 2.2.8.7 0 1.3-.2 1.8-.5s.8-.7.9-1.1h3c-.5 1.5-1.2 2.6-2.2 3.2-1 .6-2.2 1-3.7 1-1 0-1.9-.2-2.7-.5-.8-.3-1.5-.8-2-1.4-.6-.6-1-1.3-1.3-2.1-.3-.8-.5-1.7-.5-2.7 0-.9.2-1.8.5-2.6s.7-1.5 1.3-2.1c.6-.6 1.2-1.1 2-1.4.8-.3 1.7-.5 2.6-.5 1.1 0 2 .2 2.8.6s1.5 1 2 1.7.9 1.5 1.1 2.4.3 1.8.2 2.8h-9.1c.3 1.1.5 1.9 1.1 2.4zm3.9-6.6c-.4-.5-1-.7-1.9-.7-.6 0-1 .1-1.4.3-.4.2-.7.4-.9.7-.2.3-.4.6-.5.9-.1.3-.1.6-.2.8h5.6c0-.9-.3-1.6-.7-2zM212.4 113.5c-.6 0-1 .1-1.4.4-.4.3-.7.6-.9 1s-.4.8-.5 1.3c-.1.5-.1 1-.1 1.4 0 .5 0 .9.1 1.4.1.5.3.9.5 1.3s.5.7.9.9c.4.2.8.4 1.4.4.8 0 1.5-.2 1.9-.7.4-.5.7-1.1.8-1.9h3.3c-.2 1.7-.9 2.9-1.9 3.8-1.1.9-2.4 1.3-4.1 1.3-.9 0-1.8-.2-2.6-.5s-1.5-.8-2-1.3c-.6-.6-1-1.2-1.3-2-.3-.8-.5-1.7-.5-2.6 0-1 .1-1.9.4-2.7.3-.8.7-1.6 1.3-2.2s1.2-1.1 2-1.4c.8-.3 1.7-.5 2.7-.5.7 0 1.5.1 2.2.3.7.2 1.3.5 1.9.9.5.4 1 .9 1.3 1.5s.5 1.3.6 2.1H215c-.2-1.5-1.1-2.2-2.6-2.2zM227.1 111.2v2.3h-2.5v6.2c0 .6.1 1 .3 1.2.2.2.6.3 1.2.3h.6c.2 0 .3 0 .5-.1v2.7c-.3 0-.6.1-1 .1h-1c-.5 0-1 0-1.5-.1s-.9-.2-1.3-.4-.7-.5-.9-.9-.3-.9-.3-1.5v-7.4H219v-2.3h2.1v-3.8h3.5v3.8h2.5zM232.2 120.8c.5.5 1.3.8 2.2.8.7 0 1.3-.2 1.8-.5s.8-.7.9-1.1h3c-.5 1.5-1.2 2.6-2.2 3.2-1 .6-2.2 1-3.7 1-1 0-1.9-.2-2.7-.5-.8-.3-1.5-.8-2-1.4-.6-.6-1-1.3-1.3-2.1-.3-.8-.5-1.7-.5-2.7 0-.9.2-1.8.5-2.6s.7-1.5 1.3-2.1c.6-.6 1.2-1.1 2-1.4.8-.3 1.7-.5 2.6-.5 1.1 0 2 .2 2.8.6s1.5 1 2 1.7.9 1.5 1.1 2.4.3 1.8.2 2.8h-9.1c.3 1.1.6 1.9 1.1 2.4zm4-6.6c-.4-.5-1-.7-1.9-.7-.6 0-1 .1-1.4.3-.4.2-.7.4-.9.7-.2.3-.4.6-.5.9-.1.3-.1.6-.2.8h5.6c0-.9-.3-1.6-.7-2zM251.2 122.2c-.4.7-.9 1.2-1.6 1.5-.7.3-1.4.5-2.2.5-.9 0-1.8-.2-2.5-.5s-1.3-.9-1.8-1.5-.8-1.3-1-2.2-.4-1.7-.4-2.5.1-1.7.4-2.4c.2-.8.6-1.5 1-2.1.5-.6 1-1.1 1.7-1.4.7-.4 1.5-.5 2.4-.5.7 0 1.5.2 2.1.5.7.3 1.2.8 1.6 1.4v-6.3h3.5v17.4h-3.3l.1-1.9zm-.1-6.2c-.1-.5-.3-.9-.5-1.3s-.5-.7-.9-.9c-.4-.2-.8-.3-1.4-.3s-1 .1-1.4.3c-.4.2-.7.5-.9.9-.2.4-.4.8-.5 1.3-.1.5-.2 1-.2 1.5s.1 1 .2 1.5.3.9.5 1.3c.3.4.6.7 1 .9s.8.4 1.4.4c.6 0 1-.1 1.4-.3.4-.2.7-.5.9-.9.2-.4.4-.8.5-1.3s.1-1 .1-1.5c-.1-.6-.1-1.1-.2-1.6z"/></g><g fill="#231F20"><path d="M80.7 135.6v1.7c.5-.6 1-1.2 1.6-1.5.6-.4 1.4-.5 2.2-.5.8 0 1.5.2 2.2.5.7.3 1.2.9 1.5 1.6.4-.6.9-1 1.5-1.5.6-.4 1.4-.6 2.3-.6.7 0 1.3.1 1.9.2.6.2 1.1.4 1.5.8.4.4.7.8 1 1.4.2.6.3 1.3.3 2.1v8.4h-3.5V141v-1.2c0-.4-.1-.7-.3-1-.1-.3-.4-.5-.6-.7s-.7-.2-1.2-.2-.9.1-1.2.3c-.3.2-.5.4-.7.7-.2.3-.3.6-.3 1-.1.4-.1.8-.1 1.2v7h-3.5V141v-1.1c0-.4-.1-.7-.2-1-.1-.3-.3-.6-.6-.7-.3-.2-.7-.3-1.3-.3-.2 0-.4 0-.6.1-.3.1-.5.2-.8.4-.3.2-.5.5-.6.9-.2.4-.3.9-.3 1.5v7.3h-3.5v-12.6h3.3zM102.9 145.2c.5.5 1.3.8 2.2.8.7 0 1.3-.2 1.8-.5s.8-.7.9-1.1h3c-.5 1.5-1.2 2.6-2.2 3.2-1 .7-2.2 1-3.7 1-1 0-1.9-.2-2.7-.5-.8-.3-1.5-.8-2-1.4-.6-.6-1-1.3-1.3-2.1-.3-.8-.5-1.7-.5-2.7 0-.9.2-1.8.5-2.6s.7-1.5 1.3-2.1c.6-.6 1.2-1.1 2-1.4s1.7-.5 2.6-.5c1.1 0 2 .2 2.8.6.8.4 1.4 1 2 1.7s.9 1.5 1.1 2.4c.2.9.3 1.8.2 2.8H102c.1 1 .4 1.8.9 2.4zm3.9-6.7c-.4-.5-1-.7-1.9-.7-.6 0-1 .1-1.4.3-.4.2-.7.4-.9.7-.2.3-.4.6-.5.9-.1.3-.1.6-.2.8h5.6c0-.9-.3-1.5-.7-2zM121.9 146.6c-.4.7-.9 1.2-1.6 1.5-.7.3-1.4.5-2.2.5-.9 0-1.8-.2-2.5-.5-.7-.4-1.3-.9-1.8-1.5s-.8-1.3-1-2.2c-.2-.8-.4-1.7-.4-2.5s.1-1.7.4-2.4c.2-.8.6-1.5 1-2.1s1-1.1 1.7-1.4c.7-.4 1.5-.5 2.4-.5.7 0 1.5.2 2.1.5s1.2.8 1.6 1.4v-6.3h3.5v17.4h-3.3l.1-1.9zm-.1-6.3c-.1-.5-.3-.9-.5-1.3s-.5-.7-.9-.9-.8-.3-1.4-.3c-.6 0-1 .1-1.4.3-.4.2-.7.5-.9.9-.2.4-.4.8-.5 1.3-.1.5-.2 1-.2 1.5s.1 1 .2 1.5.3.9.5 1.3c.3.4.6.7 1 .9.4.2.8.4 1.4.4.6 0 1-.1 1.4-.3s.7-.5.9-.9c.2-.4.4-.8.5-1.3s.1-1 .1-1.5c-.1-.6-.1-1.1-.2-1.6zM127.7 133.6v-2.8h3.5v2.8h-3.5zm3.5 2v12.6h-3.5v-12.6h3.5zM139.7 137.8c-.6 0-1 .1-1.4.4-.4.3-.7.6-.9 1-.2.4-.4.8-.5 1.3-.1.5-.1 1-.1 1.4 0 .5 0 .9.1 1.4.1.5.3.9.5 1.3s.5.7.9.9.8.4 1.4.4c.8 0 1.5-.2 1.9-.7s.7-1.1.8-1.9h3.3c-.2 1.7-.9 2.9-1.9 3.8s-2.4 1.3-4.1 1.3c-.9 0-1.8-.2-2.6-.5s-1.5-.8-2-1.3c-.6-.6-1-1.2-1.3-2-.3-.8-.5-1.7-.5-2.6 0-1 .1-1.9.4-2.7.3-.8.7-1.6 1.3-2.2.6-.6 1.2-1.1 2-1.4.8-.3 1.7-.5 2.7-.5.7 0 1.5.1 2.2.3.7.2 1.3.5 1.9.9.5.4 1 .9 1.3 1.5.3.6.5 1.3.6 2.1h-3.4c-.3-1.4-1.1-2.2-2.6-2.2zM147.3 139.5c0-.8.3-1.5.6-2 .4-.5.8-1 1.4-1.3.6-.3 1.2-.6 1.9-.7.7-.1 1.4-.2 2.1-.2.6 0 1.3 0 1.9.1.6.1 1.2.3 1.8.5s1 .6 1.3 1.1c.3.5.5 1.1.5 1.8v6.6c0 .6 0 1.1.1 1.6s.2.9.3 1.2h-3.5c-.1-.2-.1-.4-.2-.6 0-.2-.1-.4-.1-.6-.6.6-1.2 1-1.9 1.2-.7.2-1.5.3-2.3.3-.6 0-1.2-.1-1.7-.2s-1-.4-1.4-.7c-.4-.3-.7-.7-.9-1.2-.2-.5-.3-1-.3-1.7s.1-1.3.4-1.8c.3-.5.6-.8 1-1.1.4-.3.9-.5 1.4-.6l1.5-.3c.5-.1 1-.1 1.5-.2s1-.1 1.3-.2c.4-.1.7-.2.9-.4.2-.2.3-.5.3-.8 0-.4-.1-.7-.2-.9-.1-.2-.3-.4-.5-.5s-.4-.2-.7-.2c-.3 0-.6-.1-.9-.1-.7 0-1.2.1-1.6.4-.4.3-.6.8-.7 1.5h-3.3zm8 2.5c-.1.1-.3.2-.5.3-.2.1-.5.1-.7.2s-.5.1-.8.1c-.3 0-.6.1-.8.1-.3 0-.5.1-.8.2s-.5.2-.7.3c-.2.1-.3.3-.5.5s-.2.5-.2.8c0 .3.1.6.2.8.1.2.3.4.5.5.2.1.4.2.7.3s.5.1.8.1c.7 0 1.2-.1 1.6-.3.4-.2.6-.5.8-.8.2-.3.3-.6.3-1 0-.3.1-.6.1-.8V142zM164.7 130.8v17.4h-3.5v-17.4h3.5zM179.8 137.8c-.6 0-1 .1-1.4.4-.4.3-.7.6-.9 1-.2.4-.4.8-.5 1.3-.1.5-.1 1-.1 1.4 0 .5 0 .9.1 1.4.1.5.3.9.5 1.3s.5.7.9.9c.4.2.8.4 1.4.4.8 0 1.5-.2 1.9-.7.4-.5.7-1.1.8-1.9h3.3c-.2 1.7-.9 2.9-1.9 3.8-1.1.9-2.4 1.3-4.1 1.3-.9 0-1.8-.2-2.6-.5s-1.5-.8-2-1.3c-.6-.6-1-1.2-1.3-2-.3-.8-.5-1.7-.5-2.6 0-1 .1-1.9.4-2.7.3-.8.7-1.6 1.3-2.2.6-.6 1.2-1.1 2-1.4s1.7-.5 2.7-.5c.7 0 1.5.1 2.2.3.7.2 1.3.5 1.9.9.5.4 1 .9 1.3 1.5s.5 1.3.6 2.1h-3.4c-.3-1.4-1.1-2.2-2.6-2.2zM187.6 139.1c.3-.8.7-1.5 1.3-2.1s1.2-1 2-1.3 1.7-.5 2.7-.5 1.9.2 2.7.5c.8.3 1.5.8 2.1 1.3s1 1.3 1.3 2.1.5 1.7.5 2.7c0 1-.2 1.9-.5 2.7-.3.8-.7 1.5-1.3 2.1s-1.3 1-2.1 1.3c-.8.3-1.7.5-2.7.5s-1.9-.2-2.7-.5c-.8-.3-1.5-.8-2-1.3s-1-1.3-1.3-2.1c-.3-.8-.5-1.7-.5-2.7.1-.9.2-1.8.5-2.7zm3.2 4.3c.1.5.3.9.5 1.3s.5.7.9.9c.4.2.9.3 1.5.3s1.1-.1 1.5-.3c.4-.2.7-.5 1-.9.2-.4.4-.8.5-1.3.1-.5.1-1 .1-1.5s0-1-.1-1.5-.3-.9-.5-1.3-.6-.7-1-.9c-.4-.2-.9-.4-1.5-.4s-1.1.1-1.5.4c-.4.2-.7.5-.9.9-.2.4-.4.8-.5 1.3-.1.5-.1 1-.1 1.5-.1.5 0 1 .1 1.5zM205.1 145c.2.3.4.5.6.7.2.2.5.3.8.4.3.1.6.1 1 .1.2 0 .5 0 .8-.1.3-.1.5-.1.7-.3.2-.1.4-.3.5-.5.1-.2.2-.5.2-.8 0-.5-.3-.9-1-1.2-.7-.3-1.7-.5-2.9-.8-.5-.1-1-.2-1.5-.4s-.9-.4-1.3-.6c-.4-.3-.7-.6-.9-.9-.2-.4-.3-.8-.3-1.4 0-.8.2-1.5.5-2s.7-.9 1.3-1.2c.5-.3 1.1-.5 1.8-.6.6-.1 1.3-.2 2-.2s1.3.1 2 .2 1.2.3 1.7.7c.5.3.9.7 1.3 1.2.3.5.5 1.2.6 1.9h-3.3c0-.7-.3-1.1-.8-1.4-.5-.2-1-.4-1.6-.4h-.6c-.2 0-.4.1-.6.2-.2.1-.3.2-.5.4-.1.2-.2.4-.2.6 0 .3.1.6.3.8.2.2.5.4.9.5.4.1.8.2 1.3.3s1 .2 1.4.3c.5.1 1 .3 1.5.4.5.2.9.4 1.3.6.4.3.7.6.9 1 .2.4.3.9.3 1.5 0 .8-.2 1.5-.5 2.1-.3.6-.8 1-1.3 1.4-.5.3-1.1.6-1.8.7-.7.1-1.4.2-2.1.2-.7 0-1.4-.1-2.1-.2-.7-.1-1.3-.4-1.9-.7-.5-.3-1-.8-1.3-1.4-.3-.6-.5-1.3-.6-2.1h3.3c-.1.5-.1.8.1 1zM222 135.6v2.3h-2.5v6.2c0 .6.1 1 .3 1.2.2.2.6.3 1.2.3h.6c.2 0 .3 0 .5-.1v2.7c-.3 0-.6.1-1 .1h-1c-.5 0-1 0-1.5-.1s-.9-.2-1.3-.4-.7-.5-.9-.9-.3-.9-.3-1.5V138H214v-2.3h2.1v-3.8h3.5v3.8h2.4zM226.3 145c.2.3.4.5.6.7.2.2.5.3.8.4.3.1.6.1 1 .1.2 0 .5 0 .8-.1.3-.1.5-.1.7-.3.2-.1.4-.3.5-.5.1-.2.2-.5.2-.8 0-.5-.3-.9-1-1.2-.7-.3-1.7-.5-2.9-.8-.5-.1-1-.2-1.5-.4s-.9-.4-1.3-.6c-.4-.3-.7-.6-.9-.9-.2-.4-.3-.8-.3-1.4 0-.8.2-1.5.5-2s.7-.9 1.3-1.2c.5-.3 1.1-.5 1.8-.6.6-.1 1.3-.2 2-.2s1.3.1 2 .2 1.2.3 1.7.7c.5.3.9.7 1.3 1.2.3.5.5 1.2.6 1.9h-3.3c0-.7-.3-1.1-.8-1.4-.5-.2-1-.4-1.6-.4h-.6c-.2 0-.4.1-.6.2-.2.1-.3.2-.5.4-.1.2-.2.4-.2.6 0 .3.1.6.3.8.2.2.5.4.9.5.4.1.8.2 1.3.3s1 .2 1.4.3c.5.1 1 .3 1.5.4.5.2.9.4 1.3.6.4.3.7.6.9 1 .2.4.3.9.3 1.5 0 .8-.2 1.5-.5 2.1-.3.6-.8 1-1.3 1.4-.5.3-1.1.6-1.8.7-.7.1-1.4.2-2.1.2-.7 0-1.4-.1-2.1-.2-.7-.1-1.3-.4-1.9-.7-.5-.3-1-.8-1.3-1.4-.3-.6-.5-1.3-.6-2.1h3.3c-.1.5 0 .8.1 1zM240.2 144.4v3.8h-3.8v-3.8h3.8z"/></g></svg>