<svg baseProfile="tiny" xmlns="http://www.w3.org/2000/svg" viewBox="0 0 300 250" overflow="visible"><g fill="#231F20"><path d="M20 58.1h4.9l4.7 7.9 4.6-7.9h4.9l-7.4 12.3V78h-4.4v-7.8L20 58.1zM37.4 67.7c.4-.9.9-1.7 1.5-2.4.7-.7 1.4-1.2 2.4-1.5.9-.4 1.9-.5 3.1-.5 1.1 0 2.2.2 3.1.5.9.4 1.7.9 2.4 1.5.7.7 1.2 1.5 1.5 2.4.4.9.5 2 .5 3.1 0 1.2-.2 2.2-.5 3.1-.4.9-.9 1.7-1.5 2.4-.7.7-1.4 1.2-2.4 1.5-.9.4-2 .5-3.1.5s-2.2-.2-3.1-.5-1.7-.9-2.4-1.5-1.2-1.5-1.5-2.4c-.4-.9-.5-2-.5-3.1s.1-2.2.5-3.1zm3.6 4.8c.1.6.3 1 .6 1.5.3.4.6.8 1.1 1 .4.3 1 .4 1.7.4s1.2-.1 1.7-.4c.5-.3.8-.6 1.1-1 .3-.4.5-.9.6-1.5.1-.6.2-1.1.2-1.7 0-.6-.1-1.1-.2-1.7-.1-.6-.3-1.1-.6-1.5-.3-.4-.6-.8-1.1-1s-1-.4-1.7-.4-1.2.1-1.7.4c-.4.3-.8.6-1.1 1-.3.4-.5.9-.6 1.5s-.2 1.1-.2 1.7c0 .6.1 1.2.2 1.7zM64.2 78v-2h-.1c-.5.8-1.2 1.4-2 1.8-.8.4-1.6.6-2.5.6-1.1 0-1.9-.1-2.6-.4-.7-.3-1.2-.7-1.6-1.2-.4-.5-.7-1.1-.8-1.9-.2-.7-.2-1.6-.2-2.4v-8.9h4v8.2c0 1.2.2 2.1.6 2.7s1 .9 2 .9c1.1 0 1.9-.3 2.4-1 .5-.6.7-1.7.7-3.2v-7.6h4V78h-3.9zM92 63.4c-.3-.4-.6-.8-1-1.1-.4-.3-.8-.6-1.3-.7s-1-.3-1.6-.3c-1 0-1.8.2-2.5.6-.7.4-1.3.9-1.7 1.5-.4.6-.7 1.4-.9 2.2-.2.8-.3 1.7-.3 2.5s.1 1.7.3 2.5c.2.8.5 1.5.9 2.1.4.6 1 1.1 1.7 1.5.7.4 1.5.6 2.5.6 1.3 0 2.4-.4 3.1-1.2.8-.8 1.2-1.9 1.4-3.2H97c-.1 1.3-.4 2.4-.9 3.4s-1.1 1.9-1.8 2.6-1.7 1.3-2.7 1.6c-1 .4-2.2.6-3.4.6-1.5 0-2.9-.3-4.1-.8-1.2-.5-2.3-1.3-3.1-2.2-.8-.9-1.5-2-1.9-3.3-.4-1.3-.7-2.6-.7-4.1 0-1.5.2-2.9.7-4.2.4-1.3 1.1-2.4 1.9-3.3s1.9-1.7 3.1-2.2c1.2-.5 2.6-.8 4.1-.8 1.1 0 2.1.2 3.1.5s1.9.8 2.6 1.4c.8.6 1.4 1.4 1.9 2.3s.8 1.9 1 3.1h-4.3c0-.7-.2-1.2-.5-1.6zM109.9 58.1l7.5 20h-4.6l-1.5-4.5h-7.5l-1.6 4.5h-4.4l7.6-20h4.5zm.3 12.2l-2.5-7.3h-.1l-2.6 7.3h5.2zM123.5 58.1l8.3 13.4h.1V58.1h4.1v20h-4.4l-8.3-13.4h-.1V78h-4.1V58h4.4zM143.8 58.1v4.3c0 .6-.1 1.2-.3 1.7-.2.5-.5 1-.8 1.4s-.8.8-1.3 1c-.5.3-1 .4-1.6.5v-1.8c.7-.2 1.2-.6 1.5-1.1.3-.5.4-1.1.4-1.8h-1.8V58h3.9zM146.1 61.8v-3.7h16.4v3.7h-6V78h-4.4V61.8h-6zM184.1 73.9c-.1.8-.4 1.5-.9 2.2-.5.7-1.1 1.3-2 1.7-.9.5-2.1.7-3.6.7-.8 0-1.7-.1-2.4-.4-.8-.2-1.5-.6-2.1-1.1-.6-.5-1.1-1.1-1.5-1.9-.4-.8-.6-1.7-.6-2.8v-1.7h4v.9c0 .5 0 .9.1 1.3s.2.8.4 1c.2.3.4.5.8.7.3.2.8.3 1.3.3.6 0 1-.1 1.3-.3s.5-.5.7-.8c.1-.3.2-.7.3-1.1V58.1h4.4v13.7c0 .6-.1 1.3-.2 2.1zM202.8 76.5c-1.5 1.3-3.6 2-6.3 2-2.7 0-4.8-.7-6.3-2s-2.2-3.3-2.2-6V58.1h4.4v12.4c0 .5 0 1.1.1 1.6s.3 1 .6 1.4c.3.4.7.7 1.2 1s1.2.4 2.1.4c1.6 0 2.7-.3 3.2-1 .6-.7.9-1.8.9-3.3V58.1h4.4v12.4c.2 2.7-.5 4.7-2.1 6zM217.5 58.1c1.3 0 2.5.2 3.6.6 1.1.4 2.1 1 2.9 1.8.8.8 1.4 1.8 1.9 3.1.5 1.2.7 2.7.7 4.3 0 1.5-.2 2.8-.6 4-.4 1.2-.9 2.3-1.7 3.2s-1.7 1.6-2.8 2.1c-1.1.5-2.5.8-4 .8h-8.6V58h8.6zm-.3 16.3c.6 0 1.2-.1 1.8-.3.6-.2 1.1-.5 1.6-1s.8-1.1 1.1-1.9c.3-.8.4-1.7.4-2.8 0-1-.1-1.9-.3-2.7-.2-.8-.5-1.5-1-2.1-.4-.6-1-1-1.8-1.3-.7-.3-1.6-.5-2.7-.5h-3.1v12.6h4zM241.5 77.9c-1 .4-1.9.6-2.9.6-1.5 0-2.9-.3-4.1-.8-1.2-.5-2.3-1.3-3.1-2.2-.8-.9-1.5-2-1.9-3.3-.4-1.3-.7-2.6-.7-4.1 0-1.5.2-2.9.7-4.2.4-1.3 1.1-2.4 1.9-3.3s1.9-1.7 3.1-2.2 2.6-.8 4.1-.8c1 0 2 .2 3 .5s1.8.8 2.6 1.4c.8.6 1.4 1.3 1.9 2.2.5.9.8 1.9.9 3h-4.2c-.3-1.1-.8-2-1.5-2.5-.7-.6-1.7-.8-2.7-.8-1 0-1.8.2-2.5.6-.7.4-1.3.9-1.7 1.5-.4.6-.7 1.4-.9 2.2-.2.8-.3 1.7-.3 2.5s.1 1.7.3 2.5.5 1.5.9 2.1c.4.6 1 1.1 1.7 1.5.7.4 1.5.6 2.5.6 1.5 0 2.6-.4 3.4-1.1.8-.7 1.3-1.8 1.4-3.2H239v-3.3h8.4V78h-2.8l-.4-2.3c-.9 1.1-1.8 1.8-2.7 2.2zM265.8 58.1v3.7h-10.6V66h9.7v3.4h-9.7v4.9H266V78h-15.2V58h15z"/></g><g fill="#393"><path d="M44.1 97c.1-.9.3-1.7.7-2.3.4-.6.9-1.1 1.6-1.5.6-.4 1.3-.6 2.1-.8s1.6-.2 2.4-.2c.7 0 1.5.1 2.2.2s1.4.3 2 .6c.6.3 1.1.7 1.5 1.2.4.5.6 1.2.6 2.1v7.5c0 .7 0 1.3.1 1.9.1.6.2 1 .4 1.3h-4c-.1-.2-.1-.5-.2-.7 0-.2-.1-.5-.1-.7-.6.7-1.4 1.1-2.2 1.4-.9.3-1.7.4-2.6.4-.7 0-1.3-.1-1.9-.3-.6-.2-1.1-.4-1.6-.8-.4-.4-.8-.8-1.1-1.3-.3-.5-.4-1.2-.4-1.9 0-.8.1-1.5.4-2 .3-.5.7-1 1.1-1.3.5-.3 1-.6 1.6-.7s1.2-.3 1.8-.4c.6-.1 1.2-.2 1.8-.2.6-.1 1.1-.1 1.5-.3.4-.1.8-.3 1.1-.5.3-.2.4-.5.4-.9s-.1-.8-.2-1c-.1-.3-.3-.4-.6-.6s-.5-.2-.8-.3c-.3 0-.6-.1-1-.1-.8 0-1.4.2-1.8.5-.4.3-.7.9-.8 1.7h-4zm9.2 3c-.2.1-.4.3-.6.4s-.5.2-.8.2c-.3.1-.6.1-.9.1s-.6.1-1 .1c-.3.1-.6.1-.9.2-.3.1-.5.2-.8.4-.2.2-.4.4-.5.6-.1.2-.2.6-.2.9 0 .4.1.7.2.9.1.2.3.4.5.6s.5.2.8.3.6.1.9.1c.8 0 1.4-.1 1.8-.4.4-.3.7-.6 1-.9.2-.4.3-.7.4-1.1 0-.4.1-.7.1-.9V100zM67 90.8v-3.7h16.4v3.7h-6v16.3H73V90.8h-6zM85.5 93c.4-1.3 1.1-2.4 1.9-3.3s1.9-1.7 3.1-2.2c1.2-.5 2.6-.8 4.1-.8 1.5 0 2.9.3 4.1.8 1.2.5 2.2 1.3 3.1 2.2.8 1 1.5 2.1 1.9 3.3.4 1.3.7 2.7.7 4.2s-.2 2.8-.7 4.1c-.4 1.3-1.1 2.4-1.9 3.3-.8.9-1.9 1.7-3.1 2.2-1.2.5-2.6.8-4.1.8-1.5 0-2.9-.3-4.1-.8-1.2-.5-2.3-1.3-3.1-2.2-.8-.9-1.5-2-1.9-3.3-.4-1.3-.7-2.6-.7-4.1 0-1.5.2-2.9.7-4.2zm4 6.6c.2.8.5 1.5.9 2.1.4.6 1 1.1 1.7 1.5.7.4 1.5.6 2.5.6s1.8-.2 2.5-.6c.7-.4 1.3-.9 1.7-1.5s.7-1.3.9-2.1c.2-.8.3-1.6.3-2.5 0-.9-.1-1.7-.3-2.5-.2-.8-.5-1.6-.9-2.2-.4-.6-1-1.2-1.7-1.5-.7-.4-1.5-.6-2.5-.6s-1.8.2-2.5.6c-.7.4-1.3.9-1.7 1.5-.4.6-.7 1.4-.9 2.2-.2.8-.3 1.7-.3 2.5 0 .9.1 1.7.3 2.5zM107.3 93c.4-1.3 1.1-2.4 1.9-3.3s1.9-1.7 3.1-2.2c1.2-.5 2.6-.8 4.1-.8 1.5 0 2.9.3 4.1.8 1.2.5 2.2 1.3 3.1 2.2.8 1 1.5 2.1 1.9 3.3.4 1.3.7 2.7.7 4.2s-.2 2.8-.7 4.1c-.4 1.3-1.1 2.4-1.9 3.3-.8.9-1.9 1.7-3.1 2.2-1.2.5-2.6.8-4.1.8-1.5 0-2.9-.3-4.1-.8-1.2-.5-2.3-1.3-3.1-2.2-.8-.9-1.5-2-1.9-3.3-.4-1.3-.7-2.6-.7-4.1 0-1.5.2-2.9.7-4.2zm4 6.6c.2.8.5 1.5.9 2.1.4.6 1 1.1 1.7 1.5.7.4 1.5.6 2.5.6s1.8-.2 2.5-.6c.7-.4 1.3-.9 1.7-1.5s.7-1.3.9-2.1c.2-.8.3-1.6.3-2.5 0-.9-.1-1.7-.3-2.5-.2-.8-.5-1.6-.9-2.2-.4-.6-1-1.2-1.7-1.5-.7-.4-1.5-.6-2.5-.6s-1.8.2-2.5.6c-.7.4-1.3.9-1.7 1.5-.4.6-.7 1.4-.9 2.2-.2.8-.3 1.7-.3 2.5 0 .9.1 1.7.3 2.5zM127.7 90.8v-3.7h16.4v3.7h-6v16.3h-4.4V90.8h-6zM150.8 87.1v7.7h8.1v-7.7h4.4v20h-4.4v-8.6h-8.1v8.6h-4.4v-20h4.4zM178.5 87.1v7.3h.1c.5-.7 1.1-1.3 2-1.6.8-.3 1.7-.5 2.6-.5.7 0 1.4.1 2.2.4.7.3 1.3.8 1.9 1.4.6.6 1 1.4 1.4 2.4.4 1 .5 2.1.5 3.4 0 1.3-.2 2.5-.5 3.4-.4 1-.8 1.8-1.4 2.4-.6.6-1.2 1.1-1.9 1.4-.7.3-1.4.4-2.2.4-1.1 0-2-.2-2.9-.5s-1.5-.9-1.9-1.7h-.1v1.8h-3.8v-20h4zm6.4 11c-.1-.6-.3-1.1-.6-1.5-.3-.4-.6-.8-1-1s-.9-.4-1.5-.4-1.1.1-1.5.4-.8.6-1.1 1c-.3.4-.5.9-.6 1.5-.1.6-.2 1.1-.2 1.8 0 .6.1 1.2.2 1.7.1.6.3 1.1.6 1.5.3.4.6.8 1.1 1s.9.4 1.5.4 1.1-.1 1.5-.4.8-.6 1-1c.3-.4.5-.9.6-1.5.1-.6.2-1.1.2-1.7 0-.7-.1-1.3-.2-1.8zM196.9 111.4c-.8.5-1.8.8-3.2.8h-1.2c-.4 0-.8-.1-1.2-.1v-3.3c.4 0 .8.1 1.1.1h1.2c.5-.1.9-.3 1.2-.6s.4-.7.4-1.2c0-.3-.1-.6-.2-.9l-5.1-13.6h4.2l3.3 9.9h.1l3.2-9.9h4.1l-6 16.3c-.5 1.1-1.1 2-1.9 2.5zM214 90.3V87h4v3.3h-4zm4 2.3v14.5h-4V92.6h4zM229.1 92.6v2.7h-2.9v7.2c0 .7.1 1.1.3 1.3.2.2.7.3 1.3.3h.6c.2 0 .4 0 .6-.1v3.1c-.3.1-.7.1-1.1.1h-1.2c-.6 0-1.2 0-1.8-.1s-1-.2-1.5-.5c-.4-.2-.8-.6-1-1-.2-.4-.4-1-.4-1.8v-8.5h-2.4v-2.7h2.4v-4.3h4v4.3h3.1zM234.3 103.5c.2.3.4.6.7.8.3.2.6.3 1 .4.4.1.7.1 1.1.1.3 0 .6 0 .9-.1.3-.1.6-.2.8-.3.3-.1.5-.3.6-.6s.3-.5.3-.9c0-.6-.4-1-1.2-1.3-.8-.3-1.9-.6-3.3-.9-.6-.1-1.1-.3-1.7-.5-.6-.2-1-.4-1.5-.7-.4-.3-.8-.7-1-1.1-.3-.4-.4-1-.4-1.6 0-.9.2-1.7.5-2.3.4-.6.8-1.1 1.4-1.4.6-.3 1.3-.6 2-.7.7-.1 1.5-.2 2.3-.2s1.5.1 2.3.2c.7.1 1.4.4 2 .8.6.4 1.1.8 1.4 1.4.4.6.6 1.3.7 2.2h-3.8c-.1-.8-.3-1.3-.9-1.6s-1.1-.4-1.8-.4h-.7c-.3 0-.5.1-.7.2-.2.1-.4.2-.5.4-.1.2-.2.4-.2.7 0 .4.1.6.4.9s.6.4 1 .5c.4.1.9.3 1.4.4.5.1 1.1.2 1.7.4.6.1 1.1.3 1.7.5.5.2 1 .4 1.5.7.4.3.8.7 1 1.1.3.5.4 1 .4 1.7 0 1-.2 1.8-.6 2.4-.4.6-.9 1.2-1.5 1.6-.6.4-1.3.7-2.1.8-.8.2-1.6.2-2.4.2-.8 0-1.7-.1-2.5-.3-.8-.2-1.5-.4-2.1-.8s-1.1-.9-1.5-1.6c-.4-.6-.6-1.5-.7-2.4h3.8c0 .6 0 1 .2 1.3z"/></g><g fill="#393"><path d="M89.5 136.1l-6.5-20h4.5l4.5 14.1 4.5-14.1h4.5l-6.6 20h-4.9zM117.7 116.1v3.7h-10.6v4.3h9.7v3.4h-9.7v4.9H118v3.7h-15.2v-20h14.9zM125.3 116.1l8.3 13.4h.1v-13.4h4.1v20h-4.4l-8.3-13.4h-.1v13.4h-4.1v-20h4.4zM156.6 116.1v3.7H146v4.3h9.7v3.4H146v4.9h10.8v3.7h-15.2v-20h15zM174.8 116.1v3.7h-10.6v4.3h9.7v3.4h-9.7v4.9H175v3.7h-15.2v-20h15zM188.8 116.1c.9 0 1.7.1 2.4.4.7.3 1.3.7 1.8 1.2s.9 1.1 1.2 1.8c.3.7.4 1.4.4 2.1 0 1.2-.2 2.2-.7 3.1-.5.9-1.3 1.5-2.4 2v.1c.5.1 1 .4 1.3.7.4.3.6.7.9 1.1.2.4.4.9.5 1.4s.2 1 .2 1.5c0 .3 0 .7.1 1.1 0 .4.1.9.1 1.3s.1.9.2 1.3.3.7.5 1h-4.4c-.2-.6-.4-1.4-.4-2.3-.1-.9-.1-1.7-.3-2.5-.1-1-.5-1.8-1-2.3s-1.3-.7-2.4-.7h-4.4v7.8H178v-20h10.8zm-1.6 9c1 0 1.8-.2 2.3-.7.5-.4.8-1.2.8-2.2 0-1-.3-1.7-.8-2.1-.5-.4-1.3-.7-2.3-.7h-4.8v5.6h4.8zM202.3 131.8v4.3h-4.4v-4.3h4.4z"/></g></svg>