<svg id="Layer_1" xmlns="http://www.w3.org/2000/svg" viewBox="0 0 300 250"><style>.st0{fill:#393}.st1{fill:#fff}</style><path class="st0" d="M87.6 172.7c-9.2 0-16.7 7.5-16.7 16.7s7.5 16.7 16.7 16.7h125c9.2 0 16.7-7.5 16.7-16.7s-7.5-16.7-16.7-16.7h-125z"/><path class="st1" d="M106.2 183.5v8.1h4.9v1.8H104v-10h2.2zM119.8 183.5v1.8h-5.3v2.1h4.8v1.7h-4.8v2.5h5.4v1.8h-7.6v-10h7.5zM126.3 183.5l3.7 10h-2.3l-.8-2.2h-3.7l-.8 2.2h-2.2l3.8-10h2.3zm.2 6.1l-1.3-3.7-1.3 3.7h2.6zM136.3 183.5c.4 0 .9.1 1.2.2.4.1.7.3.9.6.3.3.5.5.6.9.1.3.2.7.2 1.1 0 .6-.1 1.1-.4 1.5-.2.4-.7.8-1.2 1 .3.1.5.2.7.3.2.2.3.3.4.5.1.2.2.4.2.7s.1.5.1.8V192.4c0 .2.1.4.1.6.1.2.1.4.2.5h-2.2c-.1-.3-.2-.7-.2-1.1 0-.4-.1-.9-.1-1.3-.1-.5-.2-.9-.5-1.1-.2-.2-.6-.4-1.2-.4h-2.2v3.9h-2.2v-10h5.6zm-.8 4.5c.5 0 .9-.1 1.1-.3.3-.2.4-.6.4-1.1 0-.5-.1-.8-.4-1.1-.3-.2-.6-.3-1.1-.3h-2.4v2.8h2.4zM143.2 183.5l4.2 6.7v-6.7h2.1v10h-2.2l-4.2-6.7v6.7H141v-10h2.2zM158.4 183.5l2.3 6.9 2.2-6.9h3.1v10h-2v-7.1l-2.5 7.1h-1.7l-2.5-7v7h-2.1v-10h3.2zM167.9 186.4c.2-.6.5-1.2 1-1.7s.9-.8 1.5-1.1 1.3-.4 2.1-.4 1.5.1 2.1.4c.6.3 1.1.6 1.5 1.1s.7 1 1 1.7c.2.6.3 1.3.3 2.1 0 .7-.1 1.4-.3 2-.2.6-.5 1.2-1 1.6-.4.5-.9.8-1.5 1.1-.6.3-1.3.4-2.1.4s-1.5-.1-2.1-.4c-.6-.3-1.1-.6-1.5-1.1-.4-.5-.7-1-1-1.6-.2-.6-.3-1.3-.3-2s.1-1.4.3-2.1zm2 3.4c.1.4.3.8.5 1.1s.5.6.8.8c.3.2.8.3 1.3.3s.9-.1 1.3-.3c.3-.2.6-.4.8-.8s.4-.7.5-1.1c.1-.4.1-.8.1-1.2 0-.4 0-.9-.1-1.3s-.3-.8-.5-1.1-.5-.6-.8-.8c-.3-.2-.8-.3-1.3-.3s-.9.1-1.3.3c-.3.2-.6.4-.8.8s-.4.7-.5 1.1c-.1.4-.1.8-.1 1.3 0 .3 0 .8.1 1.2zM184.3 183.5c.4 0 .9.1 1.2.2.4.1.7.3.9.6s.5.5.6.9c.1.3.2.7.2 1.1 0 .6-.1 1.1-.4 1.5s-.7.8-1.2 1c.3.1.5.2.7.3.2.2.3.3.4.5.1.2.2.4.2.7.1.3.1.5.1.8V192.4c0 .2.1.4.1.6.1.2.1.4.2.5h-2.2c-.1-.3-.2-.7-.2-1.1 0-.4-.1-.9-.1-1.3-.1-.5-.2-.9-.5-1.1-.2-.2-.6-.4-1.2-.4h-2.2v3.9h-2.2v-10h5.6zm-.8 4.5c.5 0 .9-.1 1.1-.3.3-.2.4-.6.4-1.1 0-.5-.1-.8-.4-1.1-.3-.2-.6-.3-1.1-.3h-2.4v2.8h2.4zM196.5 183.5v1.8h-5.3v2.1h4.8v1.7h-4.8v2.5h5.4v1.8H189v-10h7.5z"/></svg>