<svg id="Layer_1" xmlns="http://www.w3.org/2000/svg" viewBox="0 0 300 250"><style>.st0{fill:#349946}.st1{fill:#231f20}.st2{fill:none}</style><path class="st0" d="M39.9 60.5h-2.8l-.9-2.7h-5.5l-.9 2.7H27l4.9-13h2c.7 0 1.1.2 1.3.7.2.5 2.4 6.3 2.4 6.3H35l-1.6-4.4-2 5.5H37c.8 0 1.2.2 1.4.9l1.5 4zM64.4 60.5h-2.8l-.9-2.7h-5.5l-.9 2.7h-2.8l4.9-13h2c.7 0 1.1.2 1.3.7.2.5 2.4 6.3 2.4 6.3h-2.6l-1.6-4.4-2 5.5h5.6c.8 0 1.2.2 1.4.9l1.5 4zM40.8 47.6h5.1c4 0 5.9 2.1 5.9 6.5 0 2.4-.8 4.2-2.1 5.3-1.3 1-2.7 1.2-4.5 1.2h-4.4v-13zm4.8 10.6c2.5 0 3.5-1.2 3.5-4.1 0-2.9-1-4.2-3.2-4.2h-2.5v8.3h2.2z"/><path class="st1" d="M86.4 60.4h-2l-.8-9.3-3.1 9.3h-1.7l-3.2-9.3-.8 9.3h-1.9L74 48.2h2.3l3.3 9.4 3.2-9.4h2.3l1.3 12.2zM96.4 55.8v.7h-6.1c0 .6.2 1.2.6 1.7.5.6 1.1.8 2 .8.7 0 1.6-.2 2.5-.7l.7 1.3c-.9.6-2 1-3.3 1-1.4 0-2.5-.4-3.2-1.3-.8-.8-1.1-1.9-1.1-3.3s.4-2.6 1.2-3.5c.8-.9 1.8-1.3 3.1-1.3 1.2 0 2.2.4 2.8 1.2.5.8.8 2 .8 3.4zm-1.9-.8c0-.6-.1-1-.3-1.4-.3-.6-.9-.9-1.6-.9-.6 0-1.1.2-1.6.6-.4.4-.7 1-.7 1.7h4.2zM111.1 60.4h-2v-5.1c0-1-.1-1.7-.4-2-.2-.3-.6-.4-1.1-.4-.6 0-1.3.2-2 .7.1.2.1.9.1 2v4.8h-2v-4.9c0-1.2-.1-1.9-.4-2.2-.2-.2-.6-.4-1-.4-.7 0-1.3.2-1.9.6v6.9h-2v-9h1.8v.7c.8-.6 1.7-.9 2.6-.9.9 0 1.7.3 2.2 1 1-.7 2-1 3-1 .9 0 1.7.3 2.2.8.4.4.7 1 .8 1.7.1.4.1 1.2.1 2.3v4.4zM121.6 55.7c0 1.5-.4 2.7-1.3 3.6-.9.9-2 1.4-3.4 1.4-1 0-2.2-.2-3.5-.7V47.1h2v4.7c.7-.5 1.5-.7 2.3-.7 1.1 0 2.1.4 2.8 1.2.7.9 1.1 2 1.1 3.4zm-2.1 0c0-.9-.2-1.6-.7-2.2-.4-.5-1-.7-1.6-.7-.6 0-1.3.2-1.9.6v5.3c.5.2 1 .2 1.5.2.8 0 1.5-.3 1.9-.9.6-.5.8-1.3.8-2.3zM131.2 55.8v.7h-6.1c0 .6.2 1.2.6 1.7.5.6 1.1.8 2 .8.7 0 1.6-.2 2.5-.7l.7 1.3c-.9.6-2 1-3.3 1-1.4 0-2.5-.4-3.2-1.3-.8-.8-1.1-1.9-1.1-3.3s.4-2.6 1.2-3.5c.8-.9 1.8-1.3 3.1-1.3 1.2 0 2.2.4 2.8 1.2.4.8.8 2 .8 3.4zm-1.9-.8c0-.6-.1-1-.3-1.4-.3-.6-.9-.9-1.6-.9-.6 0-1.1.2-1.6.6-.4.4-.7 1-.7 1.7h4.2zM138.8 51.4l-.5 1.6c-.2 0-.4-.1-.6-.1-1.1 0-2 .5-2.6 1.4v6.1h-2v-9h1.8v1.1c.1-.2.4-.5.8-.7.6-.4 1.4-.7 2.1-.7.4.1.7.2 1 .3z"/><g><path class="st1" d="M146.2 57.8c0 .9-.3 1.6-1 2.1-.6.5-1.5.8-2.5.8-.8 0-1.6-.1-2.3-.4-.5-.2-.8-.4-1-.5l.7-1.3c.9.5 1.7.7 2.4.7.5 0 .9-.1 1.2-.3.3-.2.4-.5.4-.8s-.2-.6-.5-.8l-1.4-.7c-.7-.3-1.2-.6-1.6-.9-.5-.5-.8-1.1-.8-1.8 0-.8.3-1.5.9-1.9.6-.5 1.4-.7 2.4-.7 1.3 0 2.2.3 2.9.8l-.7 1.3c-.7-.4-1.4-.6-2.1-.6-1 0-1.4.3-1.4 1 0 .3.2.5.5.8.2.1.6.3 1.1.6.9.4 1.5.7 1.8 1 .7.2 1 .9 1 1.6zM155 60.4h-2.1V48.2h2.1v12.2zM165.2 60.4h-2v-4.9c0-1.2-.1-1.9-.4-2.2-.3-.3-.7-.4-1.1-.4-.6 0-1.3.2-2 .7v6.8h-2v-9h1.8v.7c.8-.6 1.7-.9 2.7-.9.9 0 1.7.3 2.2.8.4.4.7.9.8 1.5.1.4.1 1 .1 1.8v5.1zM173.4 57.8c0 .9-.3 1.6-1 2.1-.6.5-1.5.8-2.5.8-.8 0-1.6-.1-2.3-.4-.5-.2-.8-.4-1-.5l.7-1.3c.9.5 1.7.7 2.4.7.5 0 .9-.1 1.2-.3.3-.2.4-.5.4-.8s-.2-.6-.5-.8l-1.4-.7c-.7-.3-1.2-.6-1.6-.9-.5-.5-.8-1.1-.8-1.8 0-.8.3-1.5.9-1.9.6-.5 1.4-.7 2.4-.7 1.3 0 2.2.3 2.9.8l-.7 1.3c-.7-.4-1.4-.6-2.1-.6-1 0-1.4.3-1.4 1 0 .3.2.5.5.8.2.1.6.3 1.1.6.9.4 1.5.7 1.8 1 .7.2 1 .9 1 1.6zM183 60.4h-1.8v-.7c-.8.6-1.7.9-2.7.9-.9 0-1.7-.3-2.2-.8-.4-.4-.7-.9-.8-1.5-.1-.4-.1-1-.1-1.8v-5h2V57.6c.1.5.2.9.5 1.1.3.2.6.3 1.1.3.5 0 1.2-.2 2-.7v-6.8h2v8.9zM191 51.4l-.5 1.6c-.2 0-.4-.1-.6-.1-1.1 0-2 .5-2.6 1.4v6.1h-2v-9h1.8v1.1c.1-.2.4-.5.8-.7.6-.4 1.4-.7 2.1-.7.4.1.7.2 1 .3z"/></g><g><path class="st1" d="M198.9 60.4h-1.8v-.7c-.9.6-1.8.8-2.6.8-.9 0-1.6-.3-2.1-.8s-.8-1.2-.8-2c0-2.1 1.7-3.1 5.1-3.1h.3v-.3c0-.6-.1-.9-.3-1.1-.3-.3-.8-.4-1.5-.4-.8 0-1.6.2-2.4.7l-.7-1.3c.2-.2.5-.4 1-.5.7-.3 1.5-.4 2.3-.4 1.2 0 2.2.3 2.8 1 .3.3.5.7.6 1.2.1.3.1.8.1 1.6v5.3zm-1.9-2V56h-.4c-1.4 0-2.3.2-2.8.7-.2.2-.3.5-.3.9s.1.8.5 1c.3.2.7.3 1.1.3.5.1 1.2-.1 1.9-.5zM208.7 60.4h-2v-4.9c0-1.2-.1-1.9-.4-2.2-.3-.3-.7-.4-1.1-.4-.6 0-1.3.2-2 .7v6.8h-2v-9h1.8v.7c.8-.6 1.7-.9 2.7-.9.9 0 1.7.3 2.2.8.4.4.7.9.8 1.5.1.4.1 1 .1 1.8v5.1zM218.3 59.6c-.1.1-.4.3-.9.6-.7.3-1.5.5-2.4.5-1.3 0-2.4-.4-3.2-1.3-.8-.9-1.2-2-1.2-3.3 0-1.4.4-2.6 1.3-3.5.9-.9 2-1.4 3.3-1.4.8 0 1.5.2 2.1.5.4.2.7.4.9.6l-.8 1.3c-.6-.4-1.3-.6-2-.6-.8 0-1.5.3-2 .9-.5.6-.7 1.3-.7 2.1 0 .9.2 1.6.7 2.2.5.6 1.1.8 2 .8.7 0 1.4-.2 2.3-.7l.6 1.3z"/></g><g><path class="st1" d="M227.3 55.8v.7h-6.1c0 .6.2 1.2.6 1.7.5.6 1.1.8 2 .8.7 0 1.6-.2 2.5-.7l.7 1.3c-.9.6-2 1-3.3 1-1.4 0-2.5-.4-3.2-1.3-.8-.8-1.1-1.9-1.1-3.3s.4-2.6 1.2-3.5c.8-.9 1.8-1.3 3.1-1.3 1.2 0 2.2.4 2.8 1.2.5.8.8 2 .8 3.4zm-1.9-.8c0-.6-.1-1-.3-1.4-.3-.6-.9-.9-1.6-.9-.6 0-1.1.2-1.6.6-.4.4-.7 1-.7 1.7h4.2zM242.1 51.8c0 1.1-.3 2-1 2.7-.5.5-1.1.9-1.9 1-.5.1-1.2.1-2.3.1h-.9v4.7h-2.1V48.2h3.3c1 0 1.7.1 2.2.2.7.1 1.3.4 1.7.9.7.6 1 1.5 1 2.5zm-2.2.1c0-.6-.2-1.2-.6-1.5-.3-.3-1.1-.5-2.3-.5h-1V54h.9c1.3 0 2.2-.2 2.6-.6.3-.3.4-.8.4-1.5zM246.3 60.4h-2V47.1h2v13.3zM255.5 60.4h-1.8v-.7c-.9.6-1.8.8-2.6.8-.9 0-1.6-.3-2.1-.8s-.8-1.2-.8-2c0-2.1 1.7-3.1 5.1-3.1h.3v-.3c0-.6-.1-.9-.3-1.1-.3-.3-.8-.4-1.5-.4-.8 0-1.6.2-2.4.7l-.7-1.3c.2-.2.5-.4 1-.5.7-.3 1.5-.4 2.3-.4 1.2 0 2.2.3 2.8 1 .3.3.5.7.6 1.2.1.3.1.8.1 1.6v5.3zm-1.9-2V56h-.4c-1.4 0-2.3.2-2.8.7-.2.2-.3.5-.3.9s.1.8.5 1c.3.2.7.3 1.1.3.5.1 1.1-.1 1.9-.5zM265.3 60.4h-2v-4.9c0-1.2-.1-1.9-.4-2.2-.3-.3-.7-.4-1.1-.4-.6 0-1.3.2-2 .7v6.8h-2v-9h1.8v.7c.8-.6 1.7-.9 2.7-.9.9 0 1.7.3 2.2.8.4.4.7.9.8 1.5.1.4.1 1 .1 1.8v5.1zM273.6 57.8c0 .9-.3 1.6-1 2.1-.6.5-1.5.8-2.5.8-.8 0-1.6-.1-2.3-.4-.5-.2-.8-.4-1-.5l.7-1.3c.9.5 1.7.7 2.4.7.5 0 .9-.1 1.2-.3.3-.2.4-.5.4-.8s-.2-.6-.5-.8l-1.4-.7c-.7-.3-1.2-.6-1.6-.9-.5-.5-.8-1.1-.8-1.8 0-.8.3-1.5.9-1.9.6-.5 1.4-.7 2.4-.7 1.3 0 2.2.3 2.9.8l-.7 1.3c-.7-.4-1.4-.6-2.1-.6-1 0-1.4.3-1.4 1 0 .3.2.5.5.8.2.1.6.3 1.1.6.9.4 1.5.7 1.8 1 .7.2 1 .9 1 1.6z"/></g><path class="st0" d="M66.3 60.6c-.9 0-1.5-.7-1.5-1.5 0-.9.7-1.5 1.5-1.5.9 0 1.5.7 1.5 1.5s-.7 1.5-1.5 1.5m0-2.7c-.7 0-1.2.5-1.2 1.2 0 .6.5 1.1 1.2 1.1.6 0 1.2-.5 1.2-1.1-.1-.7-.6-1.2-1.2-1.2m.3 1.9l-.2-.4c-.1-.2-.1-.2-.3-.2H66v.6h-.3v-1.6h.4c.2 0 .4 0 .5.1.1.1.2.2.2.3 0 .2-.1.3-.3.4.1 0 .1.1.2.2l.2.6h-.3zm-.2-1.3H66.1v.4h.3c.1 0 .2-.1.2-.2-.1-.1-.1-.2-.2-.2"/><path class="st2" d="M27 45.1h247v17H27z"/></svg>