<?xml version="1.0" encoding="utf-8"?>
<!-- Generator: Adobe Illustrator 26.5.0, SVG Export Plug-In . SVG Version: 6.00 Build 0)  -->
<svg version="1.1" id="Layer_1" xmlns="http://www.w3.org/2000/svg" xmlns:xlink="http://www.w3.org/1999/xlink" x="0px" y="0px"
	 viewBox="0 0 728 90" style="enable-background:new 0 0 728 90;" xml:space="preserve">
<style type="text/css">
	.st0{fill:#231F20;}
</style>
<g>
	<path class="st0" d="M310.8,34.8c0.2,0.4,0.5,0.7,0.8,1s0.7,0.4,1.2,0.6c0.5,0.1,0.9,0.2,1.4,0.2c0.3,0,0.7,0,1.1-0.1
		c0.4-0.1,0.7-0.2,1.1-0.3c0.3-0.2,0.6-0.4,0.8-0.7c0.2-0.3,0.3-0.6,0.3-1.1c0-0.5-0.1-0.8-0.4-1.1c-0.3-0.3-0.7-0.5-1.2-0.7
		s-1-0.4-1.6-0.5s-1.2-0.3-1.8-0.5c-0.6-0.2-1.3-0.4-1.9-0.6c-0.6-0.2-1.2-0.5-1.6-0.9c-0.5-0.4-0.9-0.8-1.2-1.4
		c-0.3-0.6-0.4-1.2-0.4-2c0-0.9,0.2-1.6,0.6-2.3s0.9-1.2,1.5-1.6s1.3-0.8,2.1-1s1.5-0.3,2.3-0.3c0.9,0,1.8,0.1,2.6,0.3
		c0.8,0.2,1.6,0.5,2.2,1c0.6,0.4,1.1,1,1.5,1.7c0.4,0.7,0.6,1.5,0.6,2.5H317c0-0.5-0.1-0.9-0.3-1.3c-0.2-0.3-0.4-0.6-0.7-0.8
		c-0.3-0.2-0.7-0.3-1-0.4c-0.4-0.1-0.8-0.1-1.3-0.1c-0.3,0-0.6,0-0.9,0.1c-0.3,0.1-0.6,0.2-0.8,0.3c-0.2,0.2-0.5,0.4-0.6,0.6
		c-0.2,0.2-0.2,0.5-0.2,0.9c0,0.3,0.1,0.6,0.2,0.8c0.1,0.2,0.4,0.4,0.8,0.6c0.4,0.2,0.9,0.4,1.6,0.5c0.7,0.2,1.5,0.4,2.6,0.7
		c0.3,0.1,0.8,0.2,1.3,0.3c0.6,0.2,1.1,0.4,1.7,0.8c0.6,0.4,1,0.9,1.5,1.5c0.4,0.6,0.6,1.4,0.6,2.4c0,0.8-0.2,1.5-0.5,2.2
		c-0.3,0.7-0.8,1.3-1.4,1.7c-0.6,0.5-1.3,0.9-2.2,1.1s-1.9,0.4-3.1,0.4c-0.9,0-1.9-0.1-2.7-0.3c-0.9-0.2-1.7-0.6-2.4-1.1
		c-0.7-0.5-1.2-1.1-1.6-1.9s-0.6-1.7-0.6-2.7h3.6C310.5,33.9,310.6,34.4,310.8,34.8z"/>
	<path class="st0" d="M331.3,39.1v-1.7h-0.1c-0.4,0.7-1,1.2-1.7,1.6s-1.4,0.5-2.1,0.5c-0.9,0-1.7-0.1-2.2-0.4c-0.6-0.2-1-0.6-1.4-1
		s-0.6-1-0.7-1.6c-0.1-0.6-0.2-1.3-0.2-2.1v-7.6h3.4v7c0,1,0.2,1.8,0.5,2.3c0.3,0.5,0.9,0.8,1.7,0.8c0.9,0,1.6-0.3,2-0.8
		c0.4-0.6,0.6-1.5,0.6-2.7v-6.5h3.4v12.4H331.3z"/>
	<path class="st0" d="M340.2,26.6v1.6h0c0.4-0.7,0.9-1.2,1.6-1.5c0.6-0.3,1.3-0.5,2.1-0.5c1,0,1.8,0.2,2.5,0.6s1.3,0.9,1.8,1.5
		c0.5,0.6,0.8,1.3,1,2.1c0.2,0.8,0.3,1.7,0.3,2.5c0,0.8-0.1,1.6-0.3,2.4s-0.6,1.4-1,2s-1,1.1-1.7,1.4c-0.7,0.4-1.5,0.5-2.4,0.5
		c-0.8,0-1.5-0.2-2.1-0.5c-0.6-0.3-1.2-0.8-1.6-1.4h0v5.9h-3.4V26.6H340.2z M344.6,36.5c0.4-0.2,0.7-0.5,0.9-0.9
		c0.2-0.4,0.4-0.8,0.5-1.3c0.1-0.5,0.1-1,0.1-1.5c0-0.5-0.1-1-0.2-1.5s-0.3-0.9-0.5-1.3c-0.2-0.4-0.5-0.7-0.9-0.9
		c-0.4-0.2-0.8-0.3-1.4-0.3c-0.6,0-1,0.1-1.4,0.3c-0.4,0.2-0.7,0.5-0.9,0.9c-0.2,0.4-0.4,0.8-0.5,1.3c-0.1,0.5-0.1,1-0.1,1.5
		c0,0.5,0.1,1,0.2,1.5c0.1,0.5,0.3,0.9,0.5,1.3c0.2,0.4,0.5,0.7,0.9,0.9s0.8,0.3,1.4,0.3C343.8,36.8,344.2,36.7,344.6,36.5z"/>
	<path class="st0" d="M354.6,26.6v1.6h0c0.4-0.7,0.9-1.2,1.6-1.5c0.6-0.3,1.3-0.5,2.1-0.5c1,0,1.8,0.2,2.5,0.6s1.3,0.9,1.8,1.5
		c0.5,0.6,0.8,1.3,1,2.1c0.2,0.8,0.3,1.7,0.3,2.5c0,0.8-0.1,1.6-0.3,2.4c-0.2,0.8-0.6,1.4-1,2s-1,1.1-1.7,1.4
		c-0.7,0.4-1.5,0.5-2.4,0.5c-0.8,0-1.5-0.2-2.1-0.5c-0.6-0.3-1.2-0.8-1.6-1.4h0v5.9h-3.4V26.6H354.6z M359.1,36.5
		c0.4-0.2,0.7-0.5,0.9-0.9c0.2-0.4,0.4-0.8,0.5-1.3c0.1-0.5,0.1-1,0.1-1.5c0-0.5-0.1-1-0.2-1.5s-0.3-0.9-0.5-1.3
		c-0.2-0.4-0.5-0.7-0.9-0.9c-0.4-0.2-0.8-0.3-1.4-0.3c-0.6,0-1,0.1-1.4,0.3c-0.4,0.2-0.7,0.5-0.9,0.9c-0.2,0.4-0.4,0.8-0.5,1.3
		c-0.1,0.5-0.1,1-0.1,1.5c0,0.5,0.1,1,0.2,1.5c0.1,0.5,0.3,0.9,0.5,1.3c0.2,0.4,0.5,0.7,0.9,0.9s0.8,0.3,1.4,0.3
		C358.2,36.8,358.7,36.7,359.1,36.5z"/>
	<path class="st0" d="M369.3,21.9v17.1h-3.4V21.9H369.3z"/>
	<path class="st0" d="M375.4,36.1c0.5,0.5,1.2,0.7,2.2,0.7c0.7,0,1.3-0.2,1.8-0.5c0.5-0.3,0.8-0.7,0.9-1.1h3
		c-0.5,1.5-1.2,2.6-2.2,3.2c-1,0.6-2.2,1-3.6,1c-1,0-1.9-0.2-2.6-0.5c-0.8-0.3-1.4-0.8-2-1.3c-0.5-0.6-1-1.3-1.3-2.1
		c-0.3-0.8-0.4-1.7-0.4-2.6c0-0.9,0.2-1.8,0.5-2.6c0.3-0.8,0.7-1.5,1.3-2.1c0.6-0.6,1.2-1,2-1.4c0.8-0.3,1.6-0.5,2.6-0.5
		c1.1,0,2,0.2,2.8,0.6c0.8,0.4,1.4,1,1.9,1.6s0.9,1.5,1.1,2.4c0.2,0.9,0.3,1.8,0.2,2.8h-9C374.6,34.8,374.9,35.6,375.4,36.1z
		 M379.3,29.6c-0.4-0.4-1-0.7-1.9-0.7c-0.5,0-1,0.1-1.4,0.3s-0.6,0.4-0.9,0.7s-0.4,0.6-0.5,0.9c-0.1,0.3-0.1,0.6-0.2,0.8h5.5
		C380,30.7,379.7,30,379.3,29.6z"/>
	<path class="st0" d="M388.7,26.6v1.7h0c0.4-0.6,1-1.1,1.6-1.5c0.6-0.4,1.4-0.5,2.2-0.5c0.8,0,1.5,0.2,2.1,0.5
		c0.6,0.3,1.1,0.8,1.5,1.6c0.4-0.5,0.9-1,1.5-1.4c0.6-0.4,1.4-0.6,2.2-0.6c0.7,0,1.3,0.1,1.8,0.2c0.6,0.2,1,0.4,1.4,0.8
		c0.4,0.4,0.7,0.8,0.9,1.4c0.2,0.6,0.3,1.3,0.3,2.1v8.3H401v-7c0-0.4,0-0.8,0-1.2c0-0.4-0.1-0.7-0.3-1c-0.1-0.3-0.4-0.5-0.6-0.6
		c-0.3-0.2-0.7-0.2-1.1-0.2c-0.5,0-0.9,0.1-1.2,0.3c-0.3,0.2-0.5,0.4-0.7,0.7c-0.2,0.3-0.3,0.6-0.3,1c-0.1,0.4-0.1,0.8-0.1,1.1v6.9
		h-3.4v-7c0-0.4,0-0.7,0-1.1c0-0.4-0.1-0.7-0.2-1c-0.1-0.3-0.3-0.5-0.6-0.7s-0.7-0.3-1.2-0.3c-0.2,0-0.4,0-0.6,0.1
		c-0.3,0.1-0.5,0.2-0.8,0.4c-0.2,0.2-0.5,0.5-0.6,0.9c-0.2,0.4-0.3,0.9-0.3,1.5v7.2h-3.4V26.6H388.7z"/>
	<path class="st0" d="M410.5,36.1c0.5,0.5,1.2,0.7,2.2,0.7c0.7,0,1.3-0.2,1.8-0.5c0.5-0.3,0.8-0.7,0.9-1.1h3
		c-0.5,1.5-1.2,2.6-2.2,3.2c-1,0.6-2.2,1-3.6,1c-1,0-1.9-0.2-2.6-0.5c-0.8-0.3-1.4-0.8-2-1.3c-0.5-0.6-1-1.3-1.3-2.1
		c-0.3-0.8-0.4-1.7-0.4-2.6c0-0.9,0.2-1.8,0.5-2.6c0.3-0.8,0.7-1.5,1.3-2.1c0.6-0.6,1.2-1,2-1.4c0.8-0.3,1.6-0.5,2.6-0.5
		c1.1,0,2,0.2,2.8,0.6c0.8,0.4,1.4,1,1.9,1.6s0.9,1.5,1.1,2.4c0.2,0.9,0.3,1.8,0.2,2.8h-9C409.7,34.8,410,35.6,410.5,36.1z
		 M414.4,29.6c-0.4-0.4-1-0.7-1.9-0.7c-0.5,0-1,0.1-1.4,0.3s-0.6,0.4-0.9,0.7s-0.4,0.6-0.5,0.9c-0.1,0.3-0.1,0.6-0.2,0.8h5.5
		C415.1,30.7,414.8,30,414.4,29.6z"/>
	<path class="st0" d="M423.7,26.6v1.7h0.1c0.4-0.7,1-1.2,1.7-1.6c0.7-0.3,1.4-0.5,2.1-0.5c0.9,0,1.7,0.1,2.2,0.4
		c0.6,0.2,1,0.6,1.4,1s0.6,1,0.7,1.6c0.1,0.6,0.2,1.3,0.2,2.1v7.6h-3.4v-7c0-1-0.2-1.8-0.5-2.3c-0.3-0.5-0.9-0.8-1.7-0.8
		c-0.9,0-1.6,0.3-2,0.8c-0.4,0.6-0.6,1.5-0.6,2.7v6.5h-3.4V26.6H423.7z"/>
	<path class="st0" d="M441.3,26.6v2.3h-2.5v6.1c0,0.6,0.1,1,0.3,1.2c0.2,0.2,0.6,0.3,1.2,0.3c0.2,0,0.4,0,0.6,0c0.2,0,0.3,0,0.5-0.1
		v2.6c-0.3,0-0.6,0.1-1,0.1c-0.4,0-0.7,0-1,0c-0.5,0-1,0-1.5-0.1c-0.5-0.1-0.9-0.2-1.2-0.4c-0.4-0.2-0.6-0.5-0.9-0.9
		c-0.2-0.4-0.3-0.9-0.3-1.5v-7.3h-2.1v-2.3h2.1v-3.7h3.4v3.7H441.3z"/>
	<path class="st0" d="M442.5,30.5c0-0.8,0.2-1.5,0.6-2c0.4-0.5,0.8-1,1.3-1.3c0.5-0.3,1.2-0.5,1.8-0.7c0.7-0.1,1.4-0.2,2.1-0.2
		c0.6,0,1.3,0,1.9,0.1s1.2,0.3,1.8,0.5c0.5,0.3,1,0.6,1.3,1.1s0.5,1.1,0.5,1.8v6.5c0,0.6,0,1.1,0.1,1.6c0.1,0.5,0.2,0.9,0.3,1.2
		h-3.5c-0.1-0.2-0.1-0.4-0.2-0.6s-0.1-0.4-0.1-0.6c-0.5,0.6-1.2,1-1.9,1.2c-0.7,0.2-1.5,0.3-2.3,0.3c-0.6,0-1.1-0.1-1.7-0.2
		s-1-0.4-1.3-0.7c-0.4-0.3-0.7-0.7-0.9-1.2c-0.2-0.5-0.3-1-0.3-1.7c0-0.7,0.1-1.3,0.4-1.7s0.6-0.8,1-1.1c0.4-0.3,0.8-0.5,1.3-0.6
		c0.5-0.1,1-0.2,1.5-0.3s1-0.1,1.5-0.2c0.5,0,0.9-0.1,1.3-0.2c0.4-0.1,0.7-0.2,0.9-0.4c0.2-0.2,0.3-0.5,0.3-0.8
		c0-0.4-0.1-0.7-0.2-0.9c-0.1-0.2-0.3-0.4-0.5-0.5c-0.2-0.1-0.4-0.2-0.7-0.2s-0.5-0.1-0.9-0.1c-0.7,0-1.2,0.1-1.6,0.4
		c-0.4,0.3-0.6,0.8-0.7,1.4H442.5z M450.4,33c-0.1,0.1-0.3,0.2-0.5,0.3c-0.2,0.1-0.4,0.1-0.7,0.2c-0.2,0-0.5,0.1-0.8,0.1
		c-0.3,0-0.5,0.1-0.8,0.1c-0.3,0-0.5,0.1-0.8,0.2c-0.2,0.1-0.5,0.2-0.6,0.3c-0.2,0.1-0.3,0.3-0.4,0.5s-0.2,0.5-0.2,0.8
		c0,0.3,0.1,0.6,0.2,0.8s0.3,0.4,0.5,0.5c0.2,0.1,0.4,0.2,0.7,0.3c0.3,0,0.5,0.1,0.8,0.1c0.7,0,1.2-0.1,1.6-0.3
		c0.4-0.2,0.6-0.5,0.8-0.8s0.3-0.6,0.3-0.9c0-0.3,0.1-0.6,0.1-0.8V33z"/>
	<path class="st0" d="M459.8,21.9v17.1h-3.4V21.9H459.8z"/>
</g>
<g>
	<path class="st0" d="M288.8,46.9l4,11.8h0l3.8-11.8h5.3v17.1h-3.5V51.9h0l-4.2,12.1h-2.9l-4.2-12h0v12h-3.5V46.9H288.8z"/>
	<path class="st0" d="M308.4,61.1c0.5,0.5,1.2,0.7,2.2,0.7c0.7,0,1.3-0.2,1.8-0.5c0.5-0.3,0.8-0.7,0.9-1.1h3
		c-0.5,1.5-1.2,2.6-2.2,3.2c-1,0.6-2.2,1-3.6,1c-1,0-1.9-0.2-2.6-0.5c-0.8-0.3-1.4-0.8-2-1.3s-1-1.3-1.3-2.1
		c-0.3-0.8-0.4-1.7-0.4-2.6c0-0.9,0.2-1.8,0.5-2.6c0.3-0.8,0.7-1.5,1.3-2.1c0.6-0.6,1.2-1,2-1.4c0.8-0.3,1.6-0.5,2.6-0.5
		c1.1,0,2,0.2,2.8,0.6c0.8,0.4,1.4,1,1.9,1.6c0.5,0.7,0.9,1.5,1.1,2.4s0.3,1.8,0.2,2.8h-9C307.6,59.8,307.8,60.6,308.4,61.1z
		 M312.2,54.6c-0.4-0.4-1-0.7-1.9-0.7c-0.5,0-1,0.1-1.4,0.3c-0.4,0.2-0.6,0.4-0.9,0.7c-0.2,0.3-0.4,0.6-0.5,0.9s-0.1,0.6-0.2,0.8
		h5.5C312.9,55.7,312.6,55,312.2,54.6z"/>
	<path class="st0" d="M327.1,62.5c-0.4,0.7-0.9,1.2-1.6,1.5c-0.6,0.3-1.4,0.4-2.2,0.4c-0.9,0-1.7-0.2-2.4-0.5
		c-0.7-0.4-1.3-0.8-1.7-1.5c-0.5-0.6-0.8-1.3-1-2.1c-0.2-0.8-0.3-1.6-0.3-2.5c0-0.8,0.1-1.6,0.3-2.4c0.2-0.8,0.6-1.5,1-2.1
		c0.5-0.6,1-1.1,1.7-1.4s1.5-0.5,2.4-0.5c0.7,0,1.4,0.2,2.1,0.5c0.7,0.3,1.2,0.8,1.6,1.4h0v-6.2h3.4v17.1h-3.2L327.1,62.5
		L327.1,62.5z M326.9,56.3c-0.1-0.5-0.3-0.9-0.5-1.2s-0.5-0.7-0.9-0.9s-0.8-0.3-1.4-0.3s-1,0.1-1.4,0.3c-0.4,0.2-0.7,0.5-0.9,0.9
		s-0.4,0.8-0.5,1.3c-0.1,0.5-0.2,1-0.2,1.5c0,0.5,0.1,1,0.2,1.4c0.1,0.5,0.3,0.9,0.5,1.3s0.6,0.7,0.9,0.9c0.4,0.2,0.8,0.3,1.4,0.3
		c0.6,0,1-0.1,1.4-0.3c0.4-0.2,0.7-0.5,0.9-0.9s0.4-0.8,0.5-1.3c0.1-0.5,0.1-1,0.1-1.5C327.1,57.3,327,56.8,326.9,56.3z"/>
	<path class="st0" d="M332.8,49.7v-2.8h3.4v2.8H332.8z M336.2,51.7v12.4h-3.4V51.7H336.2z"/>
	<path class="st0" d="M344.6,53.9c-0.5,0-1,0.1-1.4,0.4c-0.4,0.2-0.7,0.6-0.9,1c-0.2,0.4-0.4,0.8-0.5,1.3c-0.1,0.5-0.1,0.9-0.1,1.4
		c0,0.4,0,0.9,0.1,1.4c0.1,0.5,0.3,0.9,0.5,1.3c0.2,0.4,0.5,0.7,0.9,0.9c0.4,0.2,0.8,0.4,1.3,0.4c0.8,0,1.4-0.2,1.9-0.7
		c0.4-0.5,0.7-1.1,0.8-1.8h3.3c-0.2,1.6-0.9,2.9-1.9,3.8c-1.1,0.9-2.4,1.3-4.1,1.3c-0.9,0-1.8-0.2-2.6-0.5c-0.8-0.3-1.4-0.7-2-1.3
		c-0.5-0.6-1-1.2-1.3-2c-0.3-0.8-0.5-1.6-0.5-2.6c0-1,0.1-1.9,0.4-2.7c0.3-0.8,0.7-1.5,1.2-2.1s1.2-1.1,2-1.4
		c0.8-0.3,1.7-0.5,2.7-0.5c0.7,0,1.4,0.1,2.1,0.3c0.7,0.2,1.3,0.5,1.8,0.9c0.5,0.4,1,0.9,1.3,1.5s0.5,1.3,0.6,2.1h-3.3
		C346.9,54.6,346.1,53.9,344.6,53.9z"/>
	<path class="st0" d="M352.1,55.5c0-0.8,0.2-1.5,0.6-2c0.4-0.5,0.8-1,1.3-1.3c0.5-0.3,1.2-0.5,1.8-0.7c0.7-0.1,1.4-0.2,2.1-0.2
		c0.6,0,1.3,0,1.9,0.1c0.6,0.1,1.2,0.3,1.8,0.5c0.5,0.3,1,0.6,1.3,1.1c0.3,0.5,0.5,1.1,0.5,1.8v6.5c0,0.6,0,1.1,0.1,1.6
		c0.1,0.5,0.2,0.9,0.3,1.2h-3.5c-0.1-0.2-0.1-0.4-0.2-0.6s-0.1-0.4-0.1-0.6c-0.5,0.6-1.2,1-1.9,1.2c-0.7,0.2-1.5,0.3-2.3,0.3
		c-0.6,0-1.1-0.1-1.7-0.2c-0.5-0.1-1-0.4-1.3-0.7c-0.4-0.3-0.7-0.7-0.9-1.2c-0.2-0.5-0.3-1-0.3-1.7c0-0.7,0.1-1.3,0.4-1.7
		c0.2-0.5,0.6-0.8,1-1.1c0.4-0.3,0.8-0.5,1.3-0.6c0.5-0.1,1-0.2,1.5-0.3c0.5-0.1,1-0.1,1.5-0.2c0.5,0,0.9-0.1,1.3-0.2
		c0.4-0.1,0.7-0.2,0.9-0.4c0.2-0.2,0.3-0.5,0.3-0.8c0-0.4-0.1-0.7-0.2-0.9c-0.1-0.2-0.3-0.4-0.5-0.5s-0.4-0.2-0.7-0.2
		c-0.3,0-0.5-0.1-0.9-0.1c-0.7,0-1.2,0.1-1.6,0.4c-0.4,0.3-0.6,0.8-0.7,1.4H352.1z M360,58c-0.1,0.1-0.3,0.2-0.5,0.3
		c-0.2,0.1-0.4,0.1-0.7,0.2c-0.2,0-0.5,0.1-0.8,0.1s-0.5,0.1-0.8,0.1c-0.3,0-0.5,0.1-0.8,0.2s-0.5,0.2-0.6,0.3
		c-0.2,0.1-0.3,0.3-0.4,0.5c-0.1,0.2-0.2,0.5-0.2,0.8c0,0.3,0.1,0.6,0.2,0.8c0.1,0.2,0.3,0.4,0.5,0.5c0.2,0.1,0.4,0.2,0.7,0.3
		c0.3,0,0.5,0.1,0.8,0.1c0.7,0,1.2-0.1,1.6-0.3c0.4-0.2,0.6-0.5,0.8-0.8c0.2-0.3,0.3-0.6,0.3-0.9c0-0.3,0.1-0.6,0.1-0.8V58z"/>
	<path class="st0" d="M369.3,46.9v17.1h-3.4V46.9H369.3z"/>
	<path class="st0" d="M389.6,51.5c-0.2-0.4-0.5-0.7-0.8-0.9c-0.3-0.3-0.7-0.5-1.1-0.6c-0.4-0.2-0.9-0.2-1.3-0.2
		c-0.8,0-1.6,0.2-2.2,0.5s-1.1,0.8-1.4,1.3c-0.4,0.6-0.6,1.2-0.8,1.9s-0.3,1.4-0.3,2.2c0,0.7,0.1,1.4,0.3,2.1
		c0.2,0.7,0.4,1.3,0.8,1.8c0.4,0.5,0.8,1,1.4,1.3s1.3,0.5,2.2,0.5c1.2,0,2.1-0.4,2.7-1.1c0.6-0.7,1-1.6,1.2-2.8h3.6
		c-0.1,1.1-0.3,2-0.7,2.9c-0.4,0.9-0.9,1.6-1.6,2.2c-0.7,0.6-1.4,1.1-2.3,1.4c-0.9,0.3-1.8,0.5-2.9,0.5c-1.3,0-2.5-0.2-3.5-0.7
		s-1.9-1.1-2.7-1.9c-0.7-0.8-1.3-1.7-1.7-2.8c-0.4-1.1-0.6-2.2-0.6-3.5c0-1.3,0.2-2.5,0.6-3.6c0.4-1.1,0.9-2.1,1.7-2.9
		c0.7-0.8,1.6-1.5,2.7-1.9c1-0.5,2.2-0.7,3.5-0.7c0.9,0,1.8,0.1,2.7,0.4c0.8,0.3,1.6,0.7,2.3,1.2c0.7,0.5,1.2,1.2,1.6,1.9
		c0.4,0.8,0.7,1.6,0.8,2.6H390C389.9,52.3,389.8,51.9,389.6,51.5z"/>
	<path class="st0" d="M395.9,55.2c0.3-0.8,0.7-1.5,1.3-2.1c0.6-0.6,1.2-1,2-1.3c0.8-0.3,1.7-0.5,2.6-0.5c1,0,1.9,0.2,2.7,0.5
		c0.8,0.3,1.5,0.8,2,1.3c0.6,0.6,1,1.3,1.3,2.1c0.3,0.8,0.5,1.7,0.5,2.7c0,1-0.2,1.9-0.5,2.7s-0.7,1.5-1.3,2.1c-0.6,0.6-1.2,1-2,1.3
		s-1.7,0.5-2.7,0.5c-1,0-1.9-0.2-2.6-0.5s-1.5-0.7-2-1.3c-0.6-0.6-1-1.3-1.3-2.1c-0.3-0.8-0.5-1.7-0.5-2.7
		C395.4,56.9,395.6,56,395.9,55.2z M399,59.3c0.1,0.5,0.3,0.9,0.5,1.3c0.2,0.4,0.5,0.7,0.9,0.9c0.4,0.2,0.9,0.3,1.4,0.3
		s1.1-0.1,1.5-0.3c0.4-0.2,0.7-0.5,0.9-0.9c0.2-0.4,0.4-0.8,0.5-1.3c0.1-0.5,0.1-1,0.1-1.5c0-0.5,0-1-0.1-1.5
		c-0.1-0.5-0.3-0.9-0.5-1.3c-0.2-0.4-0.5-0.7-0.9-0.9c-0.4-0.2-0.9-0.3-1.5-0.3s-1.1,0.1-1.4,0.3c-0.4,0.2-0.7,0.5-0.9,0.9
		c-0.2,0.4-0.4,0.8-0.5,1.3c-0.1,0.5-0.1,1-0.1,1.5C398.8,58.4,398.9,58.9,399,59.3z"/>
	<path class="st0" d="M413.3,64.1l-4.2-12.4h3.6l2.6,8.5h0l2.6-8.5h3.4l-4.2,12.4H413.3z"/>
	<path class="st0" d="M426.2,61.1c0.5,0.5,1.2,0.7,2.2,0.7c0.7,0,1.3-0.2,1.8-0.5c0.5-0.3,0.8-0.7,0.9-1.1h3
		c-0.5,1.5-1.2,2.6-2.2,3.2c-1,0.6-2.2,1-3.6,1c-1,0-1.9-0.2-2.6-0.5c-0.8-0.3-1.4-0.8-2-1.3c-0.5-0.6-1-1.3-1.3-2.1
		s-0.4-1.7-0.4-2.6c0-0.9,0.2-1.8,0.5-2.6c0.3-0.8,0.7-1.5,1.3-2.1c0.6-0.6,1.2-1,2-1.4c0.8-0.3,1.6-0.5,2.6-0.5
		c1.1,0,2,0.2,2.8,0.6s1.4,1,1.9,1.6c0.5,0.7,0.9,1.5,1.1,2.4c0.2,0.9,0.3,1.8,0.2,2.8h-9C425.4,59.8,425.6,60.6,426.2,61.1z
		 M430,54.6c-0.4-0.4-1-0.7-1.9-0.7c-0.5,0-1,0.1-1.4,0.3c-0.4,0.2-0.6,0.4-0.9,0.7s-0.4,0.6-0.5,0.9s-0.1,0.6-0.2,0.8h5.5
		C430.7,55.7,430.4,55,430,54.6z"/>
	<path class="st0" d="M439.3,51.7V54h0c0.2-0.4,0.4-0.7,0.6-1.1c0.3-0.3,0.6-0.6,0.9-0.8c0.4-0.2,0.7-0.4,1.1-0.5
		c0.4-0.1,0.8-0.2,1.2-0.2c0.2,0,0.5,0,0.7,0.1v3.2c-0.2,0-0.4-0.1-0.6-0.1c-0.2,0-0.4,0-0.6,0c-0.6,0-1.2,0.1-1.6,0.3
		c-0.4,0.2-0.8,0.5-1,0.9c-0.3,0.4-0.5,0.8-0.6,1.3c-0.1,0.5-0.2,1-0.2,1.6v5.6h-3.4V51.7H439.3z"/>
	<path class="st0" d="M445,55.5c0-0.8,0.2-1.5,0.6-2c0.4-0.5,0.8-1,1.3-1.3c0.5-0.3,1.2-0.5,1.8-0.7c0.7-0.1,1.4-0.2,2.1-0.2
		c0.6,0,1.3,0,1.9,0.1s1.2,0.3,1.8,0.5s1,0.6,1.3,1.1s0.5,1.1,0.5,1.8v6.5c0,0.6,0,1.1,0.1,1.6c0.1,0.5,0.2,0.9,0.3,1.2h-3.5
		c-0.1-0.2-0.1-0.4-0.2-0.6s-0.1-0.4-0.1-0.6c-0.5,0.6-1.2,1-1.9,1.2c-0.7,0.2-1.5,0.3-2.3,0.3c-0.6,0-1.1-0.1-1.7-0.2
		c-0.5-0.1-1-0.4-1.3-0.7c-0.4-0.3-0.7-0.7-0.9-1.2s-0.3-1-0.3-1.7c0-0.7,0.1-1.3,0.4-1.7s0.6-0.8,1-1.1c0.4-0.3,0.8-0.5,1.3-0.6
		c0.5-0.1,1-0.2,1.5-0.3c0.5-0.1,1-0.1,1.5-0.2c0.5,0,0.9-0.1,1.3-0.2c0.4-0.1,0.7-0.2,0.9-0.4c0.2-0.2,0.3-0.5,0.3-0.8
		c0-0.4-0.1-0.7-0.2-0.9s-0.3-0.4-0.5-0.5c-0.2-0.1-0.4-0.2-0.7-0.2c-0.3,0-0.5-0.1-0.9-0.1c-0.7,0-1.2,0.1-1.6,0.4
		c-0.4,0.3-0.6,0.8-0.7,1.4H445z M452.9,58c-0.1,0.1-0.3,0.2-0.5,0.3c-0.2,0.1-0.4,0.1-0.7,0.2s-0.5,0.1-0.8,0.1s-0.5,0.1-0.8,0.1
		c-0.3,0-0.5,0.1-0.8,0.2s-0.5,0.2-0.6,0.3c-0.2,0.1-0.3,0.3-0.4,0.5c-0.1,0.2-0.2,0.5-0.2,0.8c0,0.3,0.1,0.6,0.2,0.8
		s0.3,0.4,0.5,0.5c0.2,0.1,0.4,0.2,0.7,0.3c0.3,0,0.5,0.1,0.8,0.1c0.7,0,1.2-0.1,1.6-0.3c0.4-0.2,0.6-0.5,0.8-0.8
		c0.2-0.3,0.3-0.6,0.3-0.9c0-0.3,0.1-0.6,0.1-0.8V58z"/>
	<path class="st0" d="M470.5,65c-0.1,0.6-0.4,1.2-0.9,1.8c-0.4,0.6-1.1,1-1.9,1.4c-0.8,0.4-2,0.6-3.4,0.6c-0.6,0-1.2-0.1-1.9-0.2
		c-0.6-0.2-1.2-0.4-1.7-0.7c-0.5-0.3-1-0.7-1.3-1.2c-0.3-0.5-0.5-1.1-0.6-1.8h3.4c0.2,0.6,0.5,1.1,0.9,1.3c0.5,0.2,1,0.4,1.6,0.4
		c1,0,1.7-0.3,2.1-0.9c0.4-0.6,0.7-1.3,0.6-2.2v-1.6h0c-0.4,0.7-0.9,1.1-1.6,1.5c-0.7,0.3-1.4,0.5-2.1,0.5c-0.9,0-1.7-0.2-2.4-0.5
		c-0.7-0.3-1.2-0.8-1.7-1.3c-0.4-0.6-0.7-1.2-0.9-2c-0.2-0.8-0.3-1.6-0.3-2.4c0-0.8,0.1-1.6,0.3-2.3c0.2-0.7,0.6-1.4,1-2
		c0.4-0.6,1-1,1.7-1.4c0.7-0.3,1.4-0.5,2.3-0.5c0.8,0,1.5,0.2,2.1,0.5c0.6,0.3,1.1,0.8,1.5,1.5h0v-1.7h3.2v11.6
		C470.7,63.8,470.6,64.3,470.5,65z M465.8,60.8c0.4-0.2,0.7-0.4,0.9-0.8c0.2-0.3,0.4-0.7,0.5-1.1s0.2-0.8,0.2-1.3c0-0.5,0-1-0.1-1.5
		c-0.1-0.5-0.3-0.9-0.5-1.2c-0.2-0.4-0.5-0.6-0.9-0.8c-0.4-0.2-0.8-0.3-1.4-0.3c-0.5,0-0.9,0.1-1.2,0.3c-0.3,0.2-0.6,0.5-0.9,0.8
		c-0.2,0.3-0.4,0.7-0.5,1.1c-0.1,0.4-0.2,0.9-0.2,1.3c0,0.4,0,0.9,0.1,1.3c0.1,0.4,0.2,0.8,0.5,1.2c0.2,0.4,0.5,0.6,0.9,0.9
		c0.4,0.2,0.8,0.3,1.3,0.3C465,61.1,465.4,61,465.8,60.8z"/>
	<path class="st0" d="M476.8,61.1c0.5,0.5,1.2,0.7,2.2,0.7c0.7,0,1.3-0.2,1.8-0.5c0.5-0.3,0.8-0.7,0.9-1.1h3
		c-0.5,1.5-1.2,2.6-2.2,3.2c-1,0.6-2.2,1-3.6,1c-1,0-1.9-0.2-2.6-0.5c-0.8-0.3-1.4-0.8-2-1.3c-0.5-0.6-1-1.3-1.3-2.1
		s-0.4-1.7-0.4-2.6c0-0.9,0.2-1.8,0.5-2.6c0.3-0.8,0.7-1.5,1.3-2.1c0.6-0.6,1.2-1,2-1.4c0.8-0.3,1.6-0.5,2.6-0.5
		c1.1,0,2,0.2,2.8,0.6s1.4,1,1.9,1.6c0.5,0.7,0.9,1.5,1.1,2.4c0.2,0.9,0.3,1.8,0.2,2.8h-9C476,59.8,476.3,60.6,476.8,61.1z
		 M480.7,54.6c-0.4-0.4-1-0.7-1.9-0.7c-0.5,0-1,0.1-1.4,0.3c-0.4,0.2-0.6,0.4-0.9,0.7s-0.4,0.6-0.5,0.9s-0.1,0.6-0.2,0.8h5.5
		C481.4,55.7,481.1,55,480.7,54.6z"/>
</g>
</svg>
