<?xml version="1.0" encoding="utf-8"?>
<!-- Generator: Adobe Illustrator 26.5.0, SVG Export Plug-In . SVG Version: 6.00 Build 0)  -->
<svg version="1.1" baseProfile="tiny" id="Layer_1" xmlns="http://www.w3.org/2000/svg" xmlns:xlink="http://www.w3.org/1999/xlink"
	 x="0px" y="0px" viewBox="0 0 728 90" overflow="visible" xml:space="preserve">
<g>
	<path fill="#231F20" d="M47.3,14.3h6.3l6,10.2l6-10.2h6.3l-9.5,15.8V40h-5.7V30L47.3,14.3z"/>
	<path fill="#231F20" d="M69.3,26.7c0.5-1.2,1.1-2.2,1.9-3.1c0.8-0.9,1.8-1.5,3-2c1.2-0.5,2.5-0.7,4-0.7c1.5,0,2.8,0.2,4,0.7
		c1.2,0.5,2.2,1.1,3,2c0.8,0.9,1.5,1.9,1.9,3.1c0.5,1.2,0.7,2.6,0.7,4c0,1.5-0.2,2.8-0.7,4c-0.5,1.2-1.1,2.2-1.9,3.1
		c-0.8,0.9-1.9,1.5-3,2s-2.5,0.7-4,0.7c-1.5,0-2.8-0.2-4-0.7c-1.2-0.5-2.2-1.1-3-2c-0.8-0.9-1.5-1.9-1.9-3.1s-0.7-2.5-0.7-4
		C68.6,29.2,68.9,27.9,69.3,26.7z M74,32.9c0.1,0.7,0.4,1.3,0.7,1.9c0.3,0.6,0.8,1,1.4,1.4c0.6,0.3,1.3,0.5,2.2,0.5
		c0.9,0,1.6-0.2,2.2-0.5c0.6-0.3,1.1-0.8,1.4-1.4c0.3-0.6,0.6-1.2,0.7-1.9c0.1-0.7,0.2-1.4,0.2-2.2c0-0.7-0.1-1.5-0.2-2.2
		c-0.1-0.7-0.4-1.4-0.7-1.9c-0.3-0.6-0.8-1-1.4-1.4c-0.6-0.3-1.3-0.5-2.2-0.5c-0.9,0-1.6,0.2-2.2,0.5c-0.6,0.3-1,0.8-1.4,1.4
		c-0.3,0.6-0.6,1.2-0.7,1.9c-0.1,0.7-0.2,1.5-0.2,2.2C73.7,31.5,73.8,32.2,74,32.9z"/>
	<path fill="#231F20" d="M103.4,40v-2.6h-0.1c-0.6,1.1-1.5,1.9-2.5,2.3c-1,0.5-2.1,0.7-3.2,0.7c-1.4,0-2.5-0.2-3.4-0.5
		c-0.9-0.4-1.6-0.9-2.1-1.5c-0.5-0.7-0.9-1.5-1.1-2.4c-0.2-0.9-0.3-2-0.3-3.1V21.4H96v10.5c0,1.5,0.2,2.7,0.7,3.4
		c0.5,0.8,1.3,1.1,2.6,1.1c1.4,0,2.4-0.4,3-1.2c0.6-0.8,0.9-2.2,0.9-4.1v-9.8h5.1V40H103.4z"/>
	<path fill="#231F20" d="M138.5,21.2c-0.3-0.5-0.8-1-1.3-1.4c-0.5-0.4-1.1-0.7-1.7-1c-0.6-0.2-1.3-0.3-2-0.3c-1.3,0-2.4,0.2-3.2,0.7
		c-0.9,0.5-1.6,1.2-2.2,2c-0.6,0.8-1,1.8-1.2,2.8c-0.3,1.1-0.4,2.1-0.4,3.3c0,1.1,0.1,2.1,0.4,3.1c0.3,1,0.7,1.9,1.2,2.8
		c0.6,0.8,1.3,1.5,2.2,2c0.9,0.5,2,0.7,3.2,0.7c1.7,0,3.1-0.5,4.1-1.6c1-1.1,1.6-2.4,1.8-4.2h5.5c-0.1,1.6-0.5,3.1-1.1,4.4
		c-0.6,1.3-1.4,2.4-2.4,3.3c-1,0.9-2.1,1.6-3.5,2.1s-2.8,0.7-4.4,0.7c-2,0-3.7-0.3-5.3-1c-1.6-0.7-2.9-1.6-4-2.8
		c-1.1-1.2-1.9-2.6-2.5-4.2c-0.6-1.6-0.9-3.4-0.9-5.2c0-1.9,0.3-3.7,0.9-5.3c0.6-1.6,1.4-3.1,2.5-4.3c1.1-1.2,2.4-2.2,4-2.9
		c1.6-0.7,3.3-1,5.3-1c1.4,0,2.8,0.2,4,0.6c1.3,0.4,2.4,1,3.4,1.8c1,0.8,1.8,1.7,2.5,2.9s1.1,2.5,1.2,4h-5.5
		C139.1,22.3,138.9,21.7,138.5,21.2z"/>
	<path fill="#231F20" d="M161.2,14.3l9.6,25.7H165l-1.9-5.7h-9.6l-2,5.7h-5.7l9.7-25.7H161.2z M161.5,30.1l-3.2-9.4h-0.1l-3.3,9.4
		H161.5z"/>
	<path fill="#231F20" d="M178.3,14.3L189,31.6h0.1V14.3h5.3V40h-5.7l-10.7-17.2H178V40h-5.3V14.3H178.3z"/>
	<path fill="#231F20" d="M204.1,14.3v5.5c0,0.8-0.1,1.5-0.3,2.2c-0.3,0.7-0.6,1.3-1.1,1.8c-0.5,0.5-1,1-1.6,1.3
		c-0.6,0.3-1.3,0.6-2.1,0.7v-2.4c0.9-0.3,1.5-0.8,1.9-1.4c0.3-0.6,0.5-1.4,0.5-2.2H199v-5.5H204.1z"/>
	<path fill="#231F20" d="M206.7,19.1v-4.8h21.1v4.8H220v21h-5.7v-21H206.7z"/>
	<path fill="#231F20" d="M254.8,34.7c-0.2,1-0.6,2-1.2,2.8c-0.6,0.9-1.5,1.6-2.6,2.2c-1.1,0.6-2.7,0.9-4.6,0.9
		c-1.1,0-2.1-0.2-3.1-0.5s-1.9-0.8-2.7-1.4c-0.8-0.6-1.4-1.5-1.9-2.4c-0.5-1-0.7-2.2-0.7-3.6v-2.2h5.1v1.2c0,0.6,0,1.2,0.1,1.7
		c0.1,0.5,0.3,1,0.5,1.3c0.2,0.4,0.6,0.7,1,0.9c0.4,0.2,1,0.3,1.6,0.3c0.7,0,1.3-0.1,1.7-0.4c0.4-0.3,0.7-0.6,0.9-1
		c0.2-0.4,0.3-0.9,0.3-1.4c0-0.5,0.1-1,0.1-1.4V14.3h5.7v17.6C255,32.8,255,33.7,254.8,34.7z"/>
	<path fill="#231F20" d="M278.5,38.1c-1.9,1.7-4.6,2.5-8.1,2.5c-3.5,0-6.2-0.8-8.1-2.5c-1.9-1.7-2.9-4.3-2.9-7.8v-16h5.7v16
		c0,0.7,0.1,1.4,0.2,2.1c0.1,0.7,0.4,1.3,0.8,1.8c0.4,0.5,0.9,0.9,1.6,1.3s1.6,0.5,2.8,0.5c2,0,3.4-0.4,4.2-1.4
		c0.8-0.9,1.2-2.3,1.2-4.2v-16h5.7v16C281.5,33.8,280.5,36.4,278.5,38.1z"/>
	<path fill="#231F20" d="M297,14.3c1.7,0,3.2,0.3,4.6,0.8c1.4,0.5,2.7,1.3,3.7,2.4c1,1.1,1.9,2.4,2.4,4c0.6,1.6,0.9,3.4,0.9,5.6
		c0,1.9-0.2,3.6-0.7,5.2c-0.5,1.6-1.2,3-2.2,4.1c-1,1.2-2.2,2.1-3.6,2.7c-1.5,0.7-3.2,1-5.1,1H286V14.3H297z M296.7,35.3
		c0.8,0,1.6-0.1,2.4-0.4c0.8-0.3,1.5-0.7,2.1-1.3c0.6-0.6,1.1-1.4,1.4-2.4c0.4-1,0.5-2.2,0.5-3.6c0-1.3-0.1-2.5-0.4-3.5
		s-0.7-1.9-1.2-2.7c-0.6-0.7-1.3-1.3-2.3-1.7c-0.9-0.4-2.1-0.6-3.5-0.6h-4v16.2H296.7z"/>
	<path fill="#231F20" d="M327.5,39.8c-1.2,0.5-2.5,0.8-3.7,0.8c-2,0-3.7-0.3-5.3-1c-1.6-0.7-2.9-1.6-4-2.8c-1.1-1.2-1.9-2.6-2.5-4.2
		c-0.6-1.6-0.9-3.4-0.9-5.2c0-1.9,0.3-3.7,0.9-5.3c0.6-1.6,1.4-3.1,2.5-4.3c1.1-1.2,2.4-2.2,4-2.9c1.6-0.7,3.3-1,5.3-1
		c1.3,0,2.6,0.2,3.8,0.6c1.2,0.4,2.4,1,3.3,1.7c1,0.8,1.8,1.7,2.5,2.8c0.6,1.1,1,2.4,1.2,3.9h-5.4c-0.3-1.4-1-2.5-1.9-3.2
		c-1-0.7-2.1-1.1-3.5-1.1c-1.3,0-2.4,0.2-3.2,0.7c-0.9,0.5-1.6,1.2-2.2,2c-0.6,0.8-1,1.8-1.2,2.8c-0.3,1.1-0.4,2.1-0.4,3.3
		c0,1.1,0.1,2.1,0.4,3.1c0.3,1,0.7,1.9,1.2,2.8c0.6,0.8,1.3,1.5,2.2,2c0.9,0.5,2,0.7,3.2,0.7c1.9,0,3.3-0.5,4.3-1.4
		c1-0.9,1.6-2.3,1.8-4.1h-5.7v-4.2h10.8V40h-3.6l-0.6-2.9C329.9,38.4,328.8,39.3,327.5,39.8z"/>
	<path fill="#231F20" d="M358.5,14.3v4.8H345v5.5h12.5V29H345v6.3h13.9V40h-19.5V14.3H358.5z"/>
</g>
<g>
	<path fill="#339933" d="M49.3,63.1c0.1-1.2,0.4-2.2,0.9-3c0.5-0.8,1.2-1.4,2-1.9c0.8-0.5,1.7-0.8,2.8-1c1-0.2,2-0.3,3.1-0.3
		c0.9,0,1.9,0.1,2.8,0.2s1.8,0.4,2.6,0.8c0.8,0.4,1.4,0.9,1.9,1.6s0.8,1.6,0.8,2.7v9.7c0,0.8,0,1.6,0.1,2.4c0.1,0.8,0.3,1.3,0.5,1.7
		h-5.2c-0.1-0.3-0.2-0.6-0.2-0.9c-0.1-0.3-0.1-0.6-0.1-0.9c-0.8,0.8-1.8,1.4-2.9,1.8c-1.1,0.3-2.2,0.5-3.4,0.5
		c-0.9,0-1.7-0.1-2.5-0.3c-0.8-0.2-1.4-0.6-2-1c-0.6-0.5-1-1-1.3-1.7c-0.3-0.7-0.5-1.5-0.5-2.5c0-1.1,0.2-1.9,0.6-2.6
		c0.4-0.7,0.9-1.2,1.4-1.6c0.6-0.4,1.3-0.7,2-0.9c0.8-0.2,1.5-0.4,2.3-0.5c0.8-0.1,1.5-0.2,2.3-0.3c0.7-0.1,1.4-0.2,2-0.3
		c0.6-0.1,1-0.4,1.4-0.6c0.3-0.3,0.5-0.7,0.5-1.2c0-0.6-0.1-1-0.3-1.3c-0.2-0.3-0.4-0.6-0.7-0.8c-0.3-0.2-0.6-0.3-1-0.4
		c-0.4-0.1-0.8-0.1-1.3-0.1c-1,0-1.8,0.2-2.4,0.6c-0.6,0.4-0.9,1.2-1,2.2H49.3z M61.1,66.9c-0.2,0.2-0.5,0.3-0.8,0.5
		c-0.3,0.1-0.7,0.2-1,0.3c-0.4,0.1-0.8,0.1-1.2,0.2c-0.4,0-0.8,0.1-1.2,0.2c-0.4,0.1-0.8,0.2-1.1,0.3c-0.4,0.1-0.7,0.3-1,0.5
		c-0.3,0.2-0.5,0.5-0.7,0.8c-0.2,0.3-0.3,0.7-0.3,1.2c0,0.5,0.1,0.8,0.3,1.2c0.2,0.3,0.4,0.6,0.7,0.7c0.3,0.2,0.6,0.3,1,0.4
		c0.4,0.1,0.8,0.1,1.2,0.1c1,0,1.8-0.2,2.3-0.5c0.6-0.3,1-0.7,1.2-1.2c0.3-0.5,0.4-0.9,0.5-1.4c0.1-0.5,0.1-0.9,0.1-1.2V66.9z"/>
	<path fill="#339933" d="M76.2,55.1v-4.8h21.1v4.8h-7.7v21h-5.7v-21H76.2z"/>
	<path fill="#339933" d="M99.7,57.9c0.6-1.6,1.4-3.1,2.5-4.3c1.1-1.2,2.4-2.2,4-2.9c1.6-0.7,3.3-1,5.3-1c2,0,3.8,0.3,5.3,1
		c1.6,0.7,2.9,1.7,4,2.9c1.1,1.2,1.9,2.7,2.5,4.3c0.6,1.6,0.9,3.4,0.9,5.3c0,1.9-0.3,3.6-0.9,5.2c-0.6,1.6-1.4,3-2.5,4.2
		c-1.1,1.2-2.4,2.1-4,2.8c-1.6,0.7-3.3,1-5.3,1c-2,0-3.7-0.3-5.3-1c-1.6-0.7-2.9-1.6-4-2.8c-1.1-1.2-1.9-2.6-2.5-4.2
		s-0.9-3.4-0.9-5.2C98.8,61.4,99.1,59.6,99.7,57.9z M104.8,66.4c0.3,1,0.7,1.9,1.2,2.8c0.6,0.8,1.3,1.5,2.2,2c0.9,0.5,2,0.7,3.2,0.7
		c1.3,0,2.4-0.2,3.2-0.7c0.9-0.5,1.6-1.1,2.2-2c0.6-0.8,1-1.7,1.2-2.8s0.4-2.1,0.4-3.2c0-1.1-0.1-2.2-0.4-3.3
		c-0.3-1.1-0.7-2-1.2-2.8s-1.3-1.5-2.2-2c-0.9-0.5-2-0.7-3.2-0.7c-1.3,0-2.4,0.2-3.2,0.7c-0.9,0.5-1.6,1.2-2.2,2
		c-0.6,0.8-1,1.8-1.2,2.8c-0.3,1.1-0.4,2.1-0.4,3.3C104.4,64.4,104.6,65.4,104.8,66.4z"/>
	<path fill="#339933" d="M127.3,57.9c0.6-1.6,1.4-3.1,2.5-4.3c1.1-1.2,2.4-2.2,4-2.9c1.6-0.7,3.3-1,5.3-1c2,0,3.8,0.3,5.3,1
		c1.6,0.7,2.9,1.7,4,2.9c1.1,1.2,1.9,2.7,2.5,4.3c0.6,1.6,0.9,3.4,0.9,5.3c0,1.9-0.3,3.6-0.9,5.2c-0.6,1.6-1.4,3-2.5,4.2
		c-1.1,1.2-2.4,2.1-4,2.8c-1.6,0.7-3.3,1-5.3,1c-2,0-3.7-0.3-5.3-1c-1.6-0.7-2.9-1.6-4-2.8c-1.1-1.2-1.9-2.6-2.5-4.2
		s-0.9-3.4-0.9-5.2C126.4,61.4,126.7,59.6,127.3,57.9z M132.5,66.4c0.3,1,0.7,1.9,1.2,2.8c0.6,0.8,1.3,1.5,2.2,2
		c0.9,0.5,2,0.7,3.2,0.7c1.3,0,2.4-0.2,3.2-0.7c0.9-0.5,1.6-1.1,2.2-2c0.6-0.8,1-1.7,1.2-2.8s0.4-2.1,0.4-3.2c0-1.1-0.1-2.2-0.4-3.3
		c-0.3-1.1-0.7-2-1.2-2.8s-1.3-1.5-2.2-2c-0.9-0.5-2-0.7-3.2-0.7c-1.3,0-2.4,0.2-3.2,0.7c-0.9,0.5-1.6,1.2-2.2,2
		c-0.6,0.8-1,1.8-1.2,2.8c-0.3,1.1-0.4,2.1-0.4,3.3C132.1,64.4,132.2,65.4,132.5,66.4z"/>
	<path fill="#339933" d="M153.2,55.1v-4.8h21.1v4.8h-7.7v21h-5.7v-21H153.2z"/>
	<path fill="#339933" d="M182.5,50.3v9.9h10.4v-9.9h5.7V76h-5.7V64.9h-10.4V76h-5.7V50.3H182.5z"/>
	<path fill="#339933" d="M217.4,50.3v9.4h0.1c0.6-1,1.5-1.7,2.5-2.1c1.1-0.4,2.2-0.7,3.3-0.7c0.9,0,1.9,0.2,2.8,0.6
		c0.9,0.4,1.7,1,2.5,1.8c0.7,0.8,1.3,1.8,1.8,3c0.5,1.2,0.7,2.7,0.7,4.4c0,1.7-0.2,3.2-0.7,4.4c-0.5,1.2-1.1,2.2-1.8,3
		c-0.7,0.8-1.6,1.4-2.5,1.8c-0.9,0.4-1.8,0.6-2.8,0.6c-1.4,0-2.6-0.2-3.7-0.6c-1.1-0.4-1.9-1.2-2.4-2.2h-0.1V76h-4.9V50.3H217.4z
		 M225.7,64.5c-0.2-0.7-0.4-1.4-0.8-1.9s-0.8-1-1.4-1.3c-0.5-0.3-1.2-0.5-2-0.5c-0.7,0-1.4,0.2-1.9,0.5c-0.6,0.3-1,0.8-1.4,1.3
		s-0.6,1.2-0.8,1.9c-0.2,0.7-0.3,1.5-0.3,2.3c0,0.8,0.1,1.5,0.3,2.2c0.2,0.7,0.4,1.4,0.8,1.9c0.4,0.6,0.8,1,1.4,1.3
		c0.6,0.3,1.2,0.5,1.9,0.5c0.8,0,1.4-0.2,2-0.5s1-0.8,1.4-1.3c0.4-0.6,0.6-1.2,0.8-1.9c0.2-0.7,0.3-1.5,0.3-2.2
		C225.9,65.9,225.9,65.2,225.7,64.5z"/>
	<path fill="#339933" d="M240.8,81.6c-1,0.6-2.4,1-4.1,1c-0.5,0-1,0-1.6-0.1s-1-0.1-1.6-0.1v-4.2c0.5,0,1,0.1,1.5,0.1s1,0.1,1.5,0
		c0.7-0.1,1.2-0.3,1.5-0.8c0.3-0.5,0.5-1,0.5-1.5c0-0.4-0.1-0.8-0.2-1.2l-6.5-17.5h5.4l4.2,12.7h0.1l4.1-12.7h5.3l-7.8,20.9
		C242.6,79.8,241.8,80.9,240.8,81.6z"/>
	<path fill="#339933" d="M262.1,54.5v-4.2h5.1v4.2H262.1z M267.2,57.4V76h-5.1V57.4H267.2z"/>
	<path fill="#339933" d="M281.1,57.4v3.4h-3.7V70c0,0.9,0.1,1.4,0.4,1.7s0.9,0.4,1.7,0.4c0.3,0,0.6,0,0.8,0c0.3,0,0.5-0.1,0.8-0.1v4
		c-0.4,0.1-0.9,0.1-1.4,0.1c-0.5,0-1,0-1.5,0c-0.8,0-1.5-0.1-2.2-0.2c-0.7-0.1-1.3-0.3-1.9-0.6c-0.5-0.3-1-0.8-1.3-1.3
		c-0.3-0.6-0.5-1.3-0.5-2.3v-11h-3.1v-3.4h3.1v-5.6h5.1v5.6H281.1z"/>
	<path fill="#339933" d="M287.5,71.4c0.2,0.4,0.5,0.7,0.9,1s0.8,0.4,1.2,0.6c0.5,0.1,1,0.2,1.5,0.2c0.4,0,0.7,0,1.1-0.1
		s0.8-0.2,1.1-0.4c0.3-0.2,0.6-0.4,0.8-0.7c0.2-0.3,0.3-0.7,0.3-1.1c0-0.8-0.5-1.3-1.5-1.7c-1-0.4-2.4-0.8-4.3-1.2
		c-0.7-0.2-1.5-0.4-2.2-0.6c-0.7-0.2-1.3-0.5-1.9-0.9c-0.6-0.4-1-0.8-1.3-1.4c-0.3-0.6-0.5-1.3-0.5-2.1c0-1.2,0.2-2.2,0.7-3
		c0.5-0.8,1.1-1.4,1.9-1.8c0.8-0.4,1.6-0.8,2.6-0.9c1-0.2,1.9-0.3,3-0.3c1,0,2,0.1,2.9,0.3c0.9,0.2,1.8,0.5,2.5,1
		c0.7,0.5,1.4,1.1,1.9,1.8c0.5,0.8,0.8,1.7,0.9,2.9h-4.9c-0.1-1-0.4-1.7-1.1-2c-0.7-0.3-1.5-0.5-2.4-0.5c-0.3,0-0.6,0-0.9,0.1
		c-0.3,0-0.6,0.1-0.9,0.2c-0.3,0.1-0.5,0.3-0.7,0.5c-0.2,0.2-0.3,0.5-0.3,0.9c0,0.5,0.2,0.8,0.5,1.1c0.3,0.3,0.8,0.5,1.3,0.7
		c0.5,0.2,1.2,0.3,1.9,0.5c0.7,0.1,1.4,0.3,2.1,0.5c0.7,0.2,1.5,0.4,2.2,0.6c0.7,0.2,1.3,0.6,1.9,1c0.6,0.4,1,0.9,1.3,1.5
		c0.3,0.6,0.5,1.3,0.5,2.2c0,1.2-0.2,2.2-0.7,3.1c-0.5,0.8-1.1,1.5-1.9,2s-1.7,0.9-2.7,1.1c-1,0.2-2.1,0.3-3.1,0.3
		c-1.1,0-2.1-0.1-3.2-0.3c-1-0.2-2-0.6-2.8-1.1c-0.8-0.5-1.5-1.2-2-2c-0.5-0.8-0.8-1.9-0.8-3.1h4.9C287.2,70.5,287.3,71,287.5,71.4z
		"/>
	<path fill="#339933" d="M316.2,76l-8.3-25.7h5.8l5.7,18.1h0.1l5.8-18.1h5.8L322.6,76H316.2z"/>
	<path fill="#339933" d="M352.2,50.3v4.8h-13.6v5.5h12.5V65h-12.5v6.3h13.9V76H333V50.3H352.2z"/>
	<path fill="#339933" d="M361.6,50.3l10.7,17.2h0.1V50.3h5.3V76H372l-10.7-17.2h-0.1V76h-5.3V50.3H361.6z"/>
	<path fill="#339933" d="M401.5,50.3v4.8h-13.6v5.5h12.5V65h-12.5v6.3h13.9V76h-19.5V50.3H401.5z"/>
	<path fill="#339933" d="M424.5,50.3v4.8h-13.6v5.5h12.5V65h-12.5v6.3h13.9V76h-19.5V50.3H424.5z"/>
	<path fill="#339933" d="M442.1,50.3c1.2,0,2.2,0.2,3.1,0.6c0.9,0.4,1.7,0.9,2.4,1.5c0.7,0.6,1.2,1.4,1.5,2.2
		c0.3,0.9,0.5,1.8,0.5,2.8c0,1.5-0.3,2.8-1,3.9c-0.6,1.1-1.7,1.9-3.1,2.5v0.1c0.7,0.2,1.3,0.5,1.7,0.9c0.5,0.4,0.8,0.9,1.1,1.4
		c0.3,0.5,0.5,1.1,0.6,1.8c0.1,0.6,0.2,1.3,0.3,1.9c0,0.4,0,0.9,0.1,1.4c0,0.6,0.1,1.1,0.1,1.7c0.1,0.6,0.2,1.1,0.3,1.6
		c0.1,0.5,0.3,1,0.6,1.3h-5.7c-0.3-0.8-0.5-1.8-0.6-2.9c-0.1-1.1-0.2-2.2-0.3-3.2c-0.2-1.3-0.6-2.3-1.2-3c-0.6-0.6-1.6-0.9-3.1-0.9
		h-5.7v10h-5.7V50.3H442.1z M440.1,61.9c1.3,0,2.3-0.3,2.9-0.9c0.6-0.6,1-1.5,1-2.8c0-1.2-0.3-2.2-1-2.7c-0.6-0.6-1.6-0.8-2.9-0.8
		h-6.2v7.2H440.1z"/>
	<path fill="#339933" d="M459.2,70.5V76h-5.7v-5.5H459.2z"/>
</g>
</svg>
