<?xml version="1.0" encoding="utf-8"?>
<!-- Generator: Adobe Illustrator 26.5.0, SVG Export Plug-In . SVG Version: 6.00 Build 0)  -->
<svg version="1.1" id="Layer_1" xmlns="http://www.w3.org/2000/svg" xmlns:xlink="http://www.w3.org/1999/xlink" x="0px" y="0px"
	 viewBox="0 0 728 90" style="enable-background:new 0 0 728 90;" xml:space="preserve">
<style type="text/css">
	.st0{clip-path:url(#SVGID_00000138560578205431916700000001503868997481550976_);fill:#231F20;}
	.st1{clip-path:url(#SVGID_00000138560578205431916700000001503868997481550976_);fill:#00B2EE;}
</style>
<g>
	<defs>
		<rect id="SVGID_1_" x="89.9" y="19" width="76.6" height="26.1"/>
	</defs>
	<clipPath id="SVGID_00000107583233997568117940000015748140259980171967_">
		<use xlink:href="#SVGID_1_"  style="overflow:visible;"/>
	</clipPath>
	<path style="clip-path:url(#SVGID_00000107583233997568117940000015748140259980171967_);fill:#231F20;" d="M90.4,33h4.1
		c3.3,0,3.9,2.1,3.9,3.5c0,1.4-0.6,3.5-3.9,3.5h-2.1v4.4h-2V33z M92.4,38.4h2c0.9,0,2-0.4,2-1.9c0-1.5-0.9-1.9-2-1.9h-2V38.4z"/>
	<path style="clip-path:url(#SVGID_00000107583233997568117940000015748140259980171967_);fill:#231F20;" d="M99.6,36.2h1.7v1.6h0
		c0.2-0.9,1.3-1.8,2.4-1.8c0.4,0,0.5,0,0.7,0v1.8c-0.3,0-0.5-0.1-0.8-0.1c-1.2,0-2.2,1-2.2,2.8v3.9h-1.8V36.2z"/>
	<path style="clip-path:url(#SVGID_00000107583233997568117940000015748140259980171967_);fill:#231F20;" d="M104.7,40.3
		c0-2.5,1.5-4.4,4.2-4.4s4.2,1.8,4.2,4.4c0,2.5-1.5,4.4-4.2,4.4S104.7,42.9,104.7,40.3 M111.2,40.3c0-1.4-0.7-2.9-2.4-2.9
		c-1.6,0-2.4,1.5-2.4,2.9c0,1.4,0.7,2.9,2.4,2.9C110.5,43.2,111.2,41.8,111.2,40.3"/>
	<path style="clip-path:url(#SVGID_00000107583233997568117940000015748140259980171967_);fill:#231F20;" d="M113.3,36.2h1.5v-2.5
		h1.7v2.5h1.6v1.4h-1.6V42c0,0.8,0.1,1.1,0.9,1.1c0.3,0,0.5,0,0.8-0.1v1.4c-0.4,0-0.8,0.1-1.2,0.1c-1.9,0-2.3-0.7-2.3-2.1v-4.9h-1.4
		V36.2z"/>
	<path style="clip-path:url(#SVGID_00000107583233997568117940000015748140259980171967_);fill:#231F20;" d="M120.8,40.8
		c0,1.3,0.7,2.4,2.2,2.4c1.1,0,1.7-0.5,2-1.4h1.7c-0.4,1.8-1.9,2.8-3.7,2.8c-2.6,0-4-1.8-4-4.4c0-2.4,1.5-4.4,4-4.4
		c2.6,0,4.2,2.4,3.9,4.8H120.8z M125,39.6c-0.1-1.2-0.8-2.2-2.1-2.2c-1.3,0-2.1,1-2.2,2.2H125z"/>
	<path style="clip-path:url(#SVGID_00000107583233997568117940000015748140259980171967_);fill:#231F20;" d="M133.7,39
		c-0.1-1-0.9-1.6-1.9-1.6c-0.9,0-2.3,0.5-2.3,3c0,1.4,0.6,2.8,2.2,2.8c1.1,0,1.8-0.7,2-1.9h1.8c-0.3,2.1-1.7,3.3-3.8,3.3
		c-2.6,0-4-1.8-4-4.3c0-2.5,1.4-4.4,4.1-4.4c1.9,0,3.6,1,3.7,3H133.7z"/>
	<path style="clip-path:url(#SVGID_00000107583233997568117940000015748140259980171967_);fill:#231F20;" d="M136,36.2h1.4v-2.5h1.8
		v2.5h1.6v1.4h-1.6V42c0,0.8,0.1,1.1,0.9,1.1c0.3,0,0.5,0,0.8-0.1v1.4c-0.4,0-0.8,0.1-1.2,0.1c-1.9,0-2.3-0.7-2.3-2.1v-4.9H136V36.2
		z"/>
	<path style="clip-path:url(#SVGID_00000107583233997568117940000015748140259980171967_);fill:#231F20;" d="M143,33h1.8v1.7H143V33
		z M143,36.2h1.8v8.3H143V36.2z"/>
	<polygon style="clip-path:url(#SVGID_00000107583233997568117940000015748140259980171967_);fill:#231F20;" points="146.1,36.2 
		148.1,36.2 150.7,42.5 150.7,42.5 153.2,36.2 155.1,36.2 151.7,44.5 149.6,44.5 	"/>
	<path style="clip-path:url(#SVGID_00000107583233997568117940000015748140259980171967_);fill:#231F20;" d="M157.4,40.8
		c0,1.3,0.7,2.4,2.2,2.4c1.1,0,1.7-0.5,2-1.4h1.7c-0.4,1.8-1.9,2.8-3.7,2.8c-2.6,0-4-1.8-4-4.4c0-2.4,1.5-4.4,4-4.4
		c2.6,0,4.2,2.4,3.9,4.8H157.4z M161.6,39.6c-0.1-1.2-0.8-2.2-2.1-2.2c-1.3,0-2.1,1-2.2,2.2H161.6z"/>
	<path style="clip-path:url(#SVGID_00000107583233997568117940000015748140259980171967_);fill:#00B2EE;" d="M139.5,31.1
		c-1.2-4.6-4.8-8.1-9.3-9.3c-0.4-1.4-1.7-2.4-3.3-2.4c-1.5,0-2.8,1-3.3,2.4c-4.5,1.2-8.1,4.7-9.3,9.3l-0.1,0.5h2.8l0.1-0.3
		c1-3.3,3.7-5.8,6.9-6.8c0.6,1,1.7,1.7,2.9,1.7c1.2,0,2.3-0.7,2.9-1.7c3.3,1,5.9,3.5,6.9,6.8l0.1,0.3h2.8L139.5,31.1z"/>
	<path style="clip-path:url(#SVGID_00000107583233997568117940000015748140259980171967_);fill:#231F20;" d="M165.4,43.1
		c0.4,0,0.8,0.4,0.8,0.8c0,0.4-0.4,0.8-0.8,0.8c-0.4,0-0.8-0.4-0.8-0.8C164.5,43.4,164.9,43.1,165.4,43.1 M166,43.9
		c0-0.4-0.3-0.7-0.7-0.7c-0.4,0-0.7,0.3-0.7,0.7c0,0.4,0.3,0.7,0.7,0.7C165.7,44.6,166,44.2,166,43.9 M165,43.4h0.4
		c0.2,0,0.3,0.1,0.3,0.3c0,0.2-0.1,0.2-0.3,0.3l0.3,0.4h-0.1l-0.3-0.4h-0.2v0.4H165V43.4z M165.3,43.8c0.1,0,0.2,0,0.2-0.1
		c0-0.1-0.1-0.1-0.2-0.1h-0.2v0.3H165.3z"/>
</g>
</svg>
