<?xml version="1.0" encoding="utf-8"?>
<!-- Generator: Adobe Illustrator 25.4.1, SVG Export Plug-In . SVG Version: 6.00 Build 0)  -->
<svg version="1.1" id="Layer_1" xmlns="http://www.w3.org/2000/svg" xmlns:xlink="http://www.w3.org/1999/xlink" x="0px" y="0px"
	 viewBox="0 0 320 50" style="enable-background:new 0 0 320 50;" xml:space="preserve">
<g>
	<path d="M22,18.4c-0.4,0.2-0.9,0.3-1.3,0.3c-0.7,0-1.3-0.1-1.8-0.4s-1-0.6-1.4-1c-0.4-0.4-0.7-0.9-0.9-1.5
		c-0.2-0.6-0.3-1.2-0.3-1.8c0-0.7,0.1-1.3,0.3-1.9c0.2-0.6,0.5-1.1,0.9-1.5c0.4-0.4,0.8-0.8,1.4-1s1.2-0.4,1.8-0.4
		c0.5,0,0.9,0.1,1.3,0.2c0.4,0.1,0.8,0.3,1.2,0.6c0.3,0.3,0.6,0.6,0.9,1s0.4,0.8,0.4,1.4h-1.9c-0.1-0.5-0.3-0.9-0.7-1.1
		c-0.3-0.2-0.7-0.4-1.2-0.4c-0.4,0-0.8,0.1-1.1,0.3c-0.3,0.2-0.6,0.4-0.8,0.7c-0.2,0.3-0.3,0.6-0.4,1s-0.1,0.7-0.1,1.1
		c0,0.4,0,0.7,0.1,1.1c0.1,0.4,0.2,0.7,0.4,1c0.2,0.3,0.4,0.5,0.8,0.7c0.3,0.2,0.7,0.3,1.1,0.3c0.7,0,1.2-0.2,1.5-0.5
		s0.6-0.8,0.6-1.4h-2v-1.5h3.8v4.8h-1.2l-0.2-1C22.8,17.9,22.4,18.2,22,18.4z"/>
	<path d="M27.9,16.9c0.3,0.3,0.6,0.4,1.1,0.4c0.4,0,0.7-0.1,0.9-0.3s0.4-0.4,0.5-0.6H32c-0.2,0.8-0.6,1.3-1.1,1.7
		c-0.5,0.3-1.1,0.5-1.9,0.5c-0.5,0-1-0.1-1.4-0.2c-0.4-0.2-0.8-0.4-1-0.7c-0.3-0.3-0.5-0.7-0.7-1.1c-0.2-0.4-0.2-0.9-0.2-1.4
		c0-0.5,0.1-0.9,0.2-1.4c0.2-0.4,0.4-0.8,0.7-1.1s0.6-0.5,1-0.7c0.4-0.2,0.9-0.3,1.3-0.3c0.5,0,1,0.1,1.4,0.3c0.4,0.2,0.7,0.5,1,0.9
		c0.3,0.4,0.5,0.8,0.6,1.2c0.1,0.5,0.2,0.9,0.1,1.4h-4.7C27.5,16.2,27.6,16.6,27.9,16.9z M29.9,13.5c-0.2-0.2-0.5-0.3-1-0.3
		c-0.3,0-0.5,0-0.7,0.1s-0.3,0.2-0.5,0.4c-0.1,0.1-0.2,0.3-0.2,0.4c0,0.2-0.1,0.3-0.1,0.4h2.9C30.2,14.1,30.1,13.7,29.9,13.5z"/>
	<path d="M36.7,12v1.2h-1.3v3.2c0,0.3,0.1,0.5,0.2,0.6c0.1,0.1,0.3,0.1,0.6,0.1c0.1,0,0.2,0,0.3,0s0.2,0,0.3,0v1.4
		c-0.1,0-0.3,0-0.5,0c-0.2,0-0.4,0-0.5,0c-0.3,0-0.5,0-0.8-0.1c-0.2,0-0.5-0.1-0.6-0.2s-0.3-0.3-0.4-0.5c-0.1-0.2-0.2-0.5-0.2-0.8
		v-3.8h-1.1V12h1.1V10h1.8V12H36.7z"/>
	<path d="M41.1,12v1.2h-1.3v3.2c0,0.3,0.1,0.5,0.2,0.6c0.1,0.1,0.3,0.1,0.6,0.1c0.1,0,0.2,0,0.3,0s0.2,0,0.3,0v1.4
		c-0.1,0-0.3,0-0.5,0c-0.2,0-0.4,0-0.5,0c-0.3,0-0.5,0-0.8-0.1c-0.2,0-0.5-0.1-0.6-0.2s-0.3-0.3-0.4-0.5C38.1,17.6,38,17.3,38,17
		v-3.8h-1.1V12H38V10h1.8V12H41.1z"/>
	<path d="M42,11V9.5h1.8V11H42z M43.8,12v6.5H42V12H43.8z"/>
	<path d="M46.9,12v0.9h0c0.2-0.4,0.5-0.6,0.9-0.8c0.4-0.2,0.7-0.3,1.1-0.3c0.5,0,0.9,0.1,1.2,0.2c0.3,0.1,0.5,0.3,0.7,0.5
		c0.2,0.2,0.3,0.5,0.4,0.8c0.1,0.3,0.1,0.7,0.1,1.1v4h-1.8v-3.6c0-0.5-0.1-0.9-0.2-1.2s-0.5-0.4-0.9-0.4c-0.5,0-0.8,0.1-1.1,0.4
		s-0.3,0.8-0.3,1.4v3.4h-1.8V12H46.9z"/>
	<path d="M58.7,18.9c-0.1,0.3-0.2,0.6-0.5,0.9c-0.2,0.3-0.6,0.5-1,0.7c-0.4,0.2-1,0.3-1.8,0.3c-0.3,0-0.6,0-1-0.1
		c-0.3-0.1-0.6-0.2-0.9-0.4c-0.3-0.2-0.5-0.4-0.7-0.6c-0.2-0.3-0.3-0.6-0.3-0.9h1.8c0.1,0.3,0.2,0.6,0.5,0.7s0.5,0.2,0.8,0.2
		c0.5,0,0.9-0.1,1.1-0.5c0.2-0.3,0.3-0.7,0.3-1.1v-0.9h0c-0.2,0.3-0.5,0.6-0.8,0.8c-0.4,0.2-0.7,0.2-1.1,0.2c-0.5,0-0.9-0.1-1.2-0.3
		c-0.3-0.2-0.6-0.4-0.9-0.7s-0.4-0.6-0.5-1c-0.1-0.4-0.2-0.8-0.2-1.3c0-0.4,0.1-0.8,0.2-1.2c0.1-0.4,0.3-0.7,0.5-1
		c0.2-0.3,0.5-0.5,0.9-0.7s0.7-0.3,1.2-0.3c0.4,0,0.8,0.1,1.1,0.2s0.6,0.4,0.8,0.8h0V12h1.7v6C58.8,18.3,58.8,18.6,58.7,18.9z
		 M56.3,16.8c0.2-0.1,0.4-0.2,0.5-0.4c0.1-0.2,0.2-0.4,0.3-0.6c0.1-0.2,0.1-0.4,0.1-0.7c0-0.3,0-0.5-0.1-0.8c0-0.2-0.1-0.4-0.2-0.6
		c-0.1-0.2-0.3-0.3-0.5-0.4c-0.2-0.1-0.4-0.2-0.7-0.2c-0.2,0-0.5,0-0.6,0.1c-0.2,0.1-0.3,0.2-0.5,0.4c-0.1,0.2-0.2,0.4-0.3,0.6
		s-0.1,0.5-0.1,0.7c0,0.2,0,0.5,0.1,0.7c0,0.2,0.1,0.4,0.2,0.6c0.1,0.2,0.3,0.3,0.4,0.4c0.2,0.1,0.4,0.2,0.7,0.2
		C55.8,16.9,56.1,16.9,56.3,16.8z"/>
	<path d="M65.5,9.5v8.9h-1.8V9.5H65.5z"/>
	<path d="M67,13.8c0.2-0.4,0.4-0.8,0.7-1.1c0.3-0.3,0.6-0.5,1-0.7c0.4-0.2,0.9-0.2,1.4-0.2s1,0.1,1.4,0.2c0.4,0.2,0.8,0.4,1.1,0.7
		c0.3,0.3,0.5,0.7,0.7,1.1c0.2,0.4,0.2,0.9,0.2,1.4c0,0.5-0.1,1-0.2,1.4c-0.2,0.4-0.4,0.8-0.7,1.1c-0.3,0.3-0.6,0.5-1.1,0.7
		s-0.9,0.2-1.4,0.2s-1-0.1-1.4-0.2s-0.8-0.4-1-0.7c-0.3-0.3-0.5-0.7-0.7-1.1c-0.2-0.4-0.2-0.9-0.2-1.4C66.7,14.7,66.8,14.2,67,13.8z
		 M68.6,16c0,0.2,0.1,0.5,0.3,0.7c0.1,0.2,0.3,0.4,0.5,0.5s0.5,0.2,0.8,0.2s0.6-0.1,0.8-0.2c0.2-0.1,0.4-0.3,0.5-0.5
		s0.2-0.4,0.3-0.7c0-0.2,0.1-0.5,0.1-0.8s0-0.5-0.1-0.8s-0.1-0.5-0.3-0.7s-0.3-0.3-0.5-0.5c-0.2-0.1-0.5-0.2-0.8-0.2
		s-0.5,0.1-0.8,0.2s-0.4,0.3-0.5,0.5c-0.1,0.2-0.2,0.4-0.3,0.7c-0.1,0.2-0.1,0.5-0.1,0.8S68.5,15.7,68.6,16z"/>
	<path d="M80.1,18.4L79,14.1h0l-1.1,4.3H76L74,12h1.9l1.2,4.4h0l1.1-4.4h1.7l1.1,4.4h0l1.2-4.4H84l-2,6.5H80.1z"/>
	<path d="M88.5,14.3v1.5h-3.8v-1.5H88.5z"/>
	<path d="M92.9,13.1c-0.3,0-0.5,0.1-0.7,0.2c-0.2,0.1-0.3,0.3-0.5,0.5c-0.1,0.2-0.2,0.4-0.3,0.7c-0.1,0.2-0.1,0.5-0.1,0.7
		c0,0.2,0,0.5,0.1,0.7c0,0.2,0.1,0.5,0.2,0.7c0.1,0.2,0.3,0.4,0.5,0.5s0.4,0.2,0.7,0.2c0.4,0,0.8-0.1,1-0.4c0.2-0.2,0.4-0.6,0.4-1
		H96c-0.1,0.9-0.5,1.5-1,2c-0.6,0.5-1.3,0.7-2.1,0.7c-0.5,0-0.9-0.1-1.3-0.2c-0.4-0.2-0.7-0.4-1-0.7c-0.3-0.3-0.5-0.6-0.7-1
		s-0.2-0.8-0.2-1.3c0-0.5,0.1-1,0.2-1.4c0.1-0.4,0.4-0.8,0.6-1.1s0.6-0.6,1-0.7s0.9-0.3,1.4-0.3c0.4,0,0.8,0.1,1.1,0.2
		c0.4,0.1,0.7,0.3,0.9,0.5s0.5,0.5,0.7,0.8c0.2,0.3,0.3,0.7,0.3,1.1h-1.7C94.1,13.5,93.7,13.1,92.9,13.1z"/>
	<path d="M97,13.8c0.2-0.4,0.4-0.8,0.7-1.1c0.3-0.3,0.6-0.5,1-0.7c0.4-0.2,0.9-0.2,1.4-0.2s1,0.1,1.4,0.2c0.4,0.2,0.8,0.4,1.1,0.7
		c0.3,0.3,0.5,0.7,0.7,1.1c0.2,0.4,0.2,0.9,0.2,1.4c0,0.5-0.1,1-0.2,1.4c-0.2,0.4-0.4,0.8-0.7,1.1c-0.3,0.3-0.6,0.5-1.1,0.7
		s-0.9,0.2-1.4,0.2s-1-0.1-1.4-0.2s-0.8-0.4-1-0.7c-0.3-0.3-0.5-0.7-0.7-1.1c-0.2-0.4-0.2-0.9-0.2-1.4C96.8,14.7,96.9,14.2,97,13.8z
		 M98.6,16c0,0.2,0.1,0.5,0.3,0.7c0.1,0.2,0.3,0.4,0.5,0.5s0.5,0.2,0.8,0.2s0.6-0.1,0.8-0.2c0.2-0.1,0.4-0.3,0.5-0.5
		s0.2-0.4,0.3-0.7c0-0.2,0.1-0.5,0.1-0.8s0-0.5-0.1-0.8s-0.1-0.5-0.3-0.7s-0.3-0.3-0.5-0.5c-0.2-0.1-0.5-0.2-0.8-0.2
		s-0.5,0.1-0.8,0.2s-0.4,0.3-0.5,0.5c-0.1,0.2-0.2,0.4-0.3,0.7c-0.1,0.2-0.1,0.5-0.1,0.8S98.6,15.7,98.6,16z"/>
	<path d="M106.1,16.8c0.1,0.1,0.2,0.2,0.3,0.3c0.1,0.1,0.3,0.2,0.4,0.2c0.2,0,0.3,0.1,0.5,0.1c0.1,0,0.3,0,0.4,0
		c0.1,0,0.3-0.1,0.4-0.1c0.1-0.1,0.2-0.1,0.3-0.2c0.1-0.1,0.1-0.2,0.1-0.4c0-0.3-0.2-0.5-0.5-0.6c-0.4-0.1-0.8-0.3-1.5-0.4
		c-0.3-0.1-0.5-0.1-0.8-0.2c-0.2-0.1-0.5-0.2-0.7-0.3c-0.2-0.1-0.3-0.3-0.5-0.5s-0.2-0.4-0.2-0.7c0-0.4,0.1-0.8,0.2-1
		s0.4-0.5,0.6-0.6s0.6-0.3,0.9-0.3c0.3-0.1,0.7-0.1,1-0.1c0.3,0,0.7,0,1,0.1c0.3,0.1,0.6,0.2,0.9,0.3c0.3,0.2,0.5,0.4,0.6,0.6
		c0.2,0.3,0.3,0.6,0.3,1h-1.7c0-0.3-0.2-0.6-0.4-0.7c-0.2-0.1-0.5-0.2-0.8-0.2c-0.1,0-0.2,0-0.3,0c-0.1,0-0.2,0-0.3,0.1
		c-0.1,0-0.2,0.1-0.2,0.2c-0.1,0.1-0.1,0.2-0.1,0.3c0,0.2,0.1,0.3,0.2,0.4s0.3,0.2,0.5,0.2s0.4,0.1,0.6,0.2c0.2,0,0.5,0.1,0.7,0.2
		c0.3,0.1,0.5,0.1,0.8,0.2c0.2,0.1,0.5,0.2,0.7,0.3s0.3,0.3,0.5,0.5s0.2,0.5,0.2,0.8c0,0.4-0.1,0.8-0.3,1.1s-0.4,0.5-0.7,0.7
		c-0.3,0.2-0.6,0.3-0.9,0.4c-0.4,0.1-0.7,0.1-1.1,0.1c-0.4,0-0.7,0-1.1-0.1c-0.4-0.1-0.7-0.2-1-0.4c-0.3-0.2-0.5-0.4-0.7-0.7
		c-0.2-0.3-0.3-0.6-0.3-1.1h1.7C106,16.5,106,16.7,106.1,16.8z"/>
	<path d="M114.9,12v1.2h-1.3v3.2c0,0.3,0.1,0.5,0.2,0.6c0.1,0.1,0.3,0.1,0.6,0.1c0.1,0,0.2,0,0.3,0s0.2,0,0.3,0v1.4
		c-0.1,0-0.3,0-0.5,0c-0.2,0-0.4,0-0.5,0c-0.3,0-0.5,0-0.8-0.1c-0.2,0-0.5-0.1-0.6-0.2s-0.3-0.3-0.4-0.5c-0.1-0.2-0.2-0.5-0.2-0.8
		v-3.8h-1.1V12h1.1V10h1.8V12H114.9z"/>
	<path d="M117.8,16.5v1.9c0,0.3-0.1,0.5-0.2,0.8c-0.1,0.2-0.2,0.4-0.4,0.6c-0.2,0.2-0.4,0.3-0.6,0.4c-0.2,0.1-0.5,0.2-0.8,0.2v-0.9
		c0.1,0,0.2-0.1,0.4-0.1c0.1-0.1,0.2-0.2,0.3-0.3c0.1-0.1,0.1-0.2,0.2-0.4c0-0.1,0.1-0.3,0.1-0.4h-0.9v-1.9H117.8z"/>
	<path d="M124.5,9.5v3.4h0c0.2-0.4,0.5-0.6,0.9-0.8c0.4-0.2,0.7-0.3,1-0.3c0.5,0,0.9,0.1,1.2,0.2c0.3,0.1,0.5,0.3,0.7,0.5
		c0.2,0.2,0.3,0.5,0.4,0.8c0.1,0.3,0.1,0.7,0.1,1.1v4H127v-3.6c0-0.5-0.1-0.9-0.2-1.2s-0.5-0.4-0.9-0.4c-0.5,0-0.8,0.1-1.1,0.4
		s-0.3,0.8-0.3,1.4v3.4h-1.8V9.5H124.5z"/>
	<path d="M130.2,11V9.5h1.8V11H130.2z M131.9,12v6.5h-1.8V12H131.9z"/>
	<path d="M139.4,18.9c-0.1,0.3-0.2,0.6-0.5,0.9c-0.2,0.3-0.6,0.5-1,0.7c-0.4,0.2-1,0.3-1.8,0.3c-0.3,0-0.6,0-1-0.1
		c-0.3-0.1-0.6-0.2-0.9-0.4c-0.3-0.2-0.5-0.4-0.7-0.6c-0.2-0.3-0.3-0.6-0.3-0.9h1.8c0.1,0.3,0.2,0.6,0.5,0.7s0.5,0.2,0.8,0.2
		c0.5,0,0.9-0.1,1.1-0.5c0.2-0.3,0.3-0.7,0.3-1.1v-0.9h0c-0.2,0.3-0.5,0.6-0.8,0.8c-0.4,0.2-0.7,0.2-1.1,0.2c-0.5,0-0.9-0.1-1.2-0.3
		c-0.3-0.2-0.6-0.4-0.9-0.7s-0.4-0.6-0.5-1c-0.1-0.4-0.2-0.8-0.2-1.3c0-0.4,0.1-0.8,0.2-1.2c0.1-0.4,0.3-0.7,0.5-1
		c0.2-0.3,0.5-0.5,0.9-0.7s0.7-0.3,1.2-0.3c0.4,0,0.8,0.1,1.1,0.2s0.6,0.4,0.8,0.8h0V12h1.7v6C139.5,18.3,139.5,18.6,139.4,18.9z
		 M137,16.8c0.2-0.1,0.4-0.2,0.5-0.4c0.1-0.2,0.2-0.4,0.3-0.6c0.1-0.2,0.1-0.4,0.1-0.7c0-0.3,0-0.5-0.1-0.8c0-0.2-0.1-0.4-0.2-0.6
		c-0.1-0.2-0.3-0.3-0.5-0.4c-0.2-0.1-0.4-0.2-0.7-0.2c-0.2,0-0.5,0-0.6,0.1c-0.2,0.1-0.3,0.2-0.5,0.4c-0.1,0.2-0.2,0.4-0.3,0.6
		s-0.1,0.5-0.1,0.7c0,0.2,0,0.5,0.1,0.7c0,0.2,0.1,0.4,0.2,0.6c0.1,0.2,0.3,0.3,0.4,0.4c0.2,0.1,0.4,0.2,0.7,0.2
		C136.6,16.9,136.8,16.9,137,16.8z"/>
	<path d="M142.7,9.5v3.4h0c0.2-0.4,0.5-0.6,0.9-0.8c0.4-0.2,0.7-0.3,1-0.3c0.5,0,0.9,0.1,1.2,0.2c0.3,0.1,0.5,0.3,0.7,0.5
		c0.2,0.2,0.3,0.5,0.4,0.8c0.1,0.3,0.1,0.7,0.1,1.1v4h-1.8v-3.6c0-0.5-0.1-0.9-0.2-1.2s-0.5-0.4-0.9-0.4c-0.5,0-0.8,0.1-1.1,0.4
		s-0.3,0.8-0.3,1.4v3.4H141V9.5H142.7z"/>
	<path d="M152.1,14.3v1.5h-3.8v-1.5H152.1z"/>
	<path d="M158,20.7v-3.1h0c-0.2,0.4-0.5,0.6-0.9,0.8s-0.8,0.2-1.2,0.2c-0.3,0-0.6-0.1-0.9-0.2c-0.3-0.1-0.6-0.3-0.9-0.6
		c-0.3-0.3-0.5-0.6-0.7-1c-0.2-0.4-0.3-1-0.3-1.6c0-0.4,0.1-0.9,0.2-1.3c0.1-0.4,0.3-0.8,0.5-1.1s0.5-0.6,0.9-0.8
		c0.4-0.2,0.8-0.3,1.3-0.3c0.4,0,0.8,0.1,1.1,0.2s0.6,0.4,0.8,0.8h0V12h1.7v8.7H158z M155,16c0,0.2,0.1,0.5,0.3,0.7
		c0.1,0.2,0.3,0.4,0.5,0.5c0.2,0.1,0.4,0.2,0.7,0.2s0.5-0.1,0.7-0.2c0.2-0.1,0.4-0.3,0.5-0.5c0.1-0.2,0.2-0.4,0.3-0.6
		s0.1-0.5,0.1-0.8c0-0.2,0-0.5-0.1-0.8s-0.1-0.5-0.3-0.7s-0.3-0.4-0.5-0.5s-0.4-0.2-0.7-0.2c-0.3,0-0.5,0.1-0.7,0.2
		c-0.2,0.1-0.4,0.3-0.5,0.5s-0.2,0.4-0.3,0.7s-0.1,0.5-0.1,0.8C155,15.5,155,15.7,155,16z"/>
	<path d="M165.5,18.4v-0.9h0c-0.2,0.4-0.5,0.6-0.9,0.8s-0.7,0.2-1.1,0.2c-0.5,0-0.9-0.1-1.2-0.2c-0.3-0.1-0.5-0.3-0.7-0.5
		c-0.2-0.2-0.3-0.5-0.4-0.8c-0.1-0.3-0.1-0.7-0.1-1.1v-4h1.8v3.6c0,0.5,0.1,0.9,0.2,1.2c0.2,0.3,0.5,0.4,0.9,0.4
		c0.5,0,0.8-0.1,1-0.4s0.3-0.8,0.3-1.4V12h1.8v6.5H165.5z"/>
	<path d="M168.4,14c0-0.4,0.1-0.8,0.3-1c0.2-0.3,0.4-0.5,0.7-0.7c0.3-0.2,0.6-0.3,1-0.4c0.4-0.1,0.7-0.1,1.1-0.1c0.3,0,0.7,0,1,0.1
		c0.3,0,0.6,0.1,0.9,0.3c0.3,0.1,0.5,0.3,0.7,0.6c0.2,0.2,0.3,0.6,0.3,0.9V17c0,0.3,0,0.6,0.1,0.8c0,0.3,0.1,0.5,0.2,0.6h-1.8
		c0-0.1-0.1-0.2-0.1-0.3c0-0.1,0-0.2,0-0.3c-0.3,0.3-0.6,0.5-1,0.6c-0.4,0.1-0.8,0.2-1.2,0.2c-0.3,0-0.6,0-0.9-0.1
		c-0.3-0.1-0.5-0.2-0.7-0.3c-0.2-0.2-0.4-0.4-0.5-0.6c-0.1-0.2-0.2-0.5-0.2-0.9c0-0.4,0.1-0.7,0.2-0.9c0.1-0.2,0.3-0.4,0.5-0.6
		s0.4-0.2,0.7-0.3s0.5-0.1,0.8-0.2c0.3,0,0.5-0.1,0.8-0.1c0.3,0,0.5-0.1,0.7-0.1s0.4-0.1,0.5-0.2c0.1-0.1,0.2-0.2,0.2-0.4
		c0-0.2,0-0.3-0.1-0.5s-0.1-0.2-0.2-0.3c-0.1-0.1-0.2-0.1-0.4-0.1c-0.1,0-0.3,0-0.4,0c-0.3,0-0.6,0.1-0.8,0.2
		c-0.2,0.1-0.3,0.4-0.3,0.8H168.4z M172.5,15.3c-0.1,0.1-0.2,0.1-0.3,0.2s-0.2,0.1-0.4,0.1c-0.1,0-0.3,0-0.4,0.1
		c-0.1,0-0.3,0-0.4,0.1c-0.1,0-0.3,0.1-0.4,0.1c-0.1,0-0.2,0.1-0.3,0.2c-0.1,0.1-0.2,0.2-0.2,0.3c-0.1,0.1-0.1,0.2-0.1,0.4
		c0,0.2,0,0.3,0.1,0.4c0.1,0.1,0.1,0.2,0.2,0.3s0.2,0.1,0.3,0.1c0.1,0,0.3,0,0.4,0c0.3,0,0.6-0.1,0.8-0.2c0.2-0.1,0.3-0.3,0.4-0.4
		c0.1-0.2,0.1-0.3,0.2-0.5c0-0.2,0-0.3,0-0.4V15.3z"/>
	<path d="M177.5,9.5v8.9h-1.8V9.5H177.5z"/>
	<path d="M179,11V9.5h1.8V11H179z M180.7,12v6.5H179V12H180.7z"/>
	<path d="M185.7,12v1.2h-1.3v3.2c0,0.3,0,0.5,0.2,0.6c0.1,0.1,0.3,0.1,0.6,0.1c0.1,0,0.2,0,0.3,0c0.1,0,0.2,0,0.3,0v1.4
		c-0.1,0-0.3,0-0.5,0c-0.2,0-0.4,0-0.5,0c-0.3,0-0.5,0-0.8-0.1s-0.5-0.1-0.7-0.2s-0.3-0.3-0.4-0.5c-0.1-0.2-0.2-0.5-0.2-0.8v-3.8
		h-1.1V12h1.1V10h1.8V12H185.7z"/>
	<path d="M188.9,20.4c-0.3,0.2-0.8,0.3-1.4,0.3c-0.2,0-0.4,0-0.5,0c-0.2,0-0.4,0-0.5,0v-1.5c0.2,0,0.3,0,0.5,0.1c0.2,0,0.3,0,0.5,0
		c0.2,0,0.4-0.1,0.5-0.3s0.2-0.3,0.2-0.5c0-0.1,0-0.3-0.1-0.4l-2.3-6.1h1.9l1.5,4.4h0l1.4-4.4h1.8l-2.7,7.3
		C189.5,19.8,189.3,20.1,188.9,20.4z"/>
	<path d="M199.6,13.1c-0.3,0-0.5,0.1-0.7,0.2c-0.2,0.1-0.3,0.3-0.5,0.5c-0.1,0.2-0.2,0.4-0.3,0.7s-0.1,0.5-0.1,0.7
		c0,0.2,0,0.5,0.1,0.7s0.1,0.5,0.2,0.7c0.1,0.2,0.3,0.4,0.5,0.5c0.2,0.1,0.4,0.2,0.7,0.2c0.4,0,0.8-0.1,1-0.4c0.2-0.2,0.4-0.6,0.4-1
		h1.7c-0.1,0.9-0.4,1.5-1,2c-0.5,0.5-1.3,0.7-2.1,0.7c-0.5,0-0.9-0.1-1.3-0.2c-0.4-0.2-0.7-0.4-1-0.7c-0.3-0.3-0.5-0.6-0.7-1
		c-0.2-0.4-0.2-0.8-0.2-1.3c0-0.5,0.1-1,0.2-1.4c0.1-0.4,0.4-0.8,0.6-1.1c0.3-0.3,0.6-0.6,1-0.7s0.9-0.3,1.4-0.3
		c0.4,0,0.8,0.1,1.1,0.2c0.4,0.1,0.7,0.3,1,0.5s0.5,0.5,0.7,0.8s0.3,0.7,0.3,1.1h-1.7C200.8,13.5,200.4,13.1,199.6,13.1z"/>
	<path d="M203.7,13.8c0.2-0.4,0.4-0.8,0.7-1.1c0.3-0.3,0.6-0.5,1-0.7c0.4-0.2,0.9-0.2,1.4-0.2c0.5,0,1,0.1,1.4,0.2
		c0.4,0.2,0.8,0.4,1.1,0.7s0.5,0.7,0.7,1.1c0.2,0.4,0.2,0.9,0.2,1.4c0,0.5-0.1,1-0.2,1.4c-0.2,0.4-0.4,0.8-0.7,1.1
		c-0.3,0.3-0.6,0.5-1.1,0.7c-0.4,0.2-0.9,0.2-1.4,0.2c-0.5,0-1-0.1-1.4-0.2s-0.8-0.4-1-0.7c-0.3-0.3-0.5-0.7-0.7-1.1
		c-0.2-0.4-0.2-0.9-0.2-1.4C203.5,14.7,203.6,14.2,203.7,13.8z M205.3,16c0,0.2,0.1,0.5,0.3,0.7s0.3,0.4,0.5,0.5s0.5,0.2,0.8,0.2
		s0.6-0.1,0.8-0.2s0.4-0.3,0.5-0.5c0.1-0.2,0.2-0.4,0.3-0.7c0-0.2,0.1-0.5,0.1-0.8s0-0.5-0.1-0.8s-0.1-0.5-0.3-0.7
		c-0.1-0.2-0.3-0.3-0.5-0.5s-0.5-0.2-0.8-0.2s-0.5,0.1-0.8,0.2s-0.4,0.3-0.5,0.5s-0.2,0.4-0.3,0.7s-0.1,0.5-0.1,0.8
		S205.3,15.7,205.3,16z"/>
	<path d="M212.9,18.4l-2.2-6.5h1.9l1.4,4.4h0l1.4-4.4h1.8l-2.2,6.5H212.9z"/>
	<path d="M219.7,16.9c0.3,0.3,0.6,0.4,1.1,0.4c0.4,0,0.7-0.1,0.9-0.3c0.3-0.2,0.4-0.4,0.5-0.6h1.6c-0.2,0.8-0.6,1.3-1.2,1.7
		s-1.1,0.5-1.9,0.5c-0.5,0-1-0.1-1.4-0.2c-0.4-0.2-0.8-0.4-1-0.7c-0.3-0.3-0.5-0.7-0.7-1.1c-0.2-0.4-0.2-0.9-0.2-1.4
		c0-0.5,0.1-0.9,0.2-1.4c0.2-0.4,0.4-0.8,0.7-1.1c0.3-0.3,0.6-0.5,1-0.7s0.9-0.3,1.3-0.3c0.6,0,1,0.1,1.4,0.3s0.7,0.5,1,0.9
		s0.5,0.8,0.6,1.2c0.1,0.5,0.2,0.9,0.1,1.4h-4.7C219.3,16.2,219.5,16.6,219.7,16.9z M221.7,13.5c-0.2-0.2-0.5-0.3-1-0.3
		c-0.3,0-0.5,0-0.7,0.1s-0.3,0.2-0.5,0.4s-0.2,0.3-0.2,0.4c0,0.2-0.1,0.3-0.1,0.4h2.9C222.1,14.1,221.9,13.7,221.7,13.5z"/>
	<path d="M226.7,12v1.2h0c0.1-0.2,0.2-0.4,0.3-0.6c0.1-0.2,0.3-0.3,0.5-0.4c0.2-0.1,0.4-0.2,0.6-0.3c0.2-0.1,0.4-0.1,0.7-0.1
		c0.1,0,0.2,0,0.4,0.1v1.7c-0.1,0-0.2,0-0.3,0c-0.1,0-0.2,0-0.3,0c-0.3,0-0.6,0.1-0.8,0.2c-0.2,0.1-0.4,0.3-0.5,0.4
		s-0.2,0.4-0.3,0.7c-0.1,0.2-0.1,0.5-0.1,0.8v2.9H225V12H226.7z"/>
	<path d="M229.8,14c0-0.4,0.1-0.8,0.3-1c0.2-0.3,0.4-0.5,0.7-0.7c0.3-0.2,0.6-0.3,1-0.4c0.4-0.1,0.7-0.1,1.1-0.1c0.3,0,0.7,0,1,0.1
		c0.3,0,0.6,0.1,0.9,0.3c0.3,0.1,0.5,0.3,0.7,0.6c0.2,0.2,0.3,0.6,0.3,0.9V17c0,0.3,0,0.6,0.1,0.8c0,0.3,0.1,0.5,0.2,0.6h-1.8
		c0-0.1-0.1-0.2-0.1-0.3c0-0.1,0-0.2,0-0.3c-0.3,0.3-0.6,0.5-1,0.6c-0.4,0.1-0.8,0.2-1.2,0.2c-0.3,0-0.6,0-0.9-0.1
		c-0.3-0.1-0.5-0.2-0.7-0.3c-0.2-0.2-0.4-0.4-0.5-0.6c-0.1-0.2-0.2-0.5-0.2-0.9c0-0.4,0.1-0.7,0.2-0.9c0.1-0.2,0.3-0.4,0.5-0.6
		s0.4-0.2,0.7-0.3s0.5-0.1,0.8-0.2c0.3,0,0.5-0.1,0.8-0.1c0.3,0,0.5-0.1,0.7-0.1s0.4-0.1,0.5-0.2c0.1-0.1,0.2-0.2,0.2-0.4
		c0-0.2,0-0.3-0.1-0.5s-0.1-0.2-0.2-0.3c-0.1-0.1-0.2-0.1-0.4-0.1c-0.1,0-0.3,0-0.4,0c-0.3,0-0.6,0.1-0.8,0.2
		c-0.2,0.1-0.3,0.4-0.3,0.8H229.8z M233.9,15.3c-0.1,0.1-0.2,0.1-0.3,0.2s-0.2,0.1-0.4,0.1c-0.1,0-0.3,0-0.4,0.1
		c-0.1,0-0.3,0-0.4,0.1c-0.1,0-0.3,0.1-0.4,0.1c-0.1,0-0.2,0.1-0.3,0.2c-0.1,0.1-0.2,0.2-0.2,0.3c-0.1,0.1-0.1,0.2-0.1,0.4
		c0,0.2,0,0.3,0.1,0.4c0.1,0.1,0.1,0.2,0.2,0.3s0.2,0.1,0.3,0.1c0.1,0,0.3,0,0.4,0c0.3,0,0.6-0.1,0.8-0.2c0.2-0.1,0.3-0.3,0.4-0.4
		c0.1-0.2,0.1-0.3,0.2-0.5c0-0.2,0-0.3,0-0.4V15.3z"/>
	<path d="M243.1,18.9c-0.1,0.3-0.2,0.6-0.5,0.9s-0.6,0.5-1,0.7c-0.4,0.2-1,0.3-1.8,0.3c-0.3,0-0.6,0-1-0.1c-0.3-0.1-0.6-0.2-0.9-0.4
		c-0.3-0.2-0.5-0.4-0.7-0.6c-0.2-0.3-0.3-0.6-0.3-0.9h1.8c0.1,0.3,0.2,0.6,0.5,0.7c0.2,0.1,0.5,0.2,0.8,0.2c0.5,0,0.9-0.1,1.1-0.5
		c0.2-0.3,0.3-0.7,0.3-1.1v-0.9h0c-0.2,0.3-0.5,0.6-0.8,0.8c-0.4,0.2-0.7,0.2-1.1,0.2c-0.5,0-0.9-0.1-1.2-0.3
		c-0.3-0.2-0.6-0.4-0.9-0.7s-0.4-0.6-0.5-1c-0.1-0.4-0.2-0.8-0.2-1.3c0-0.4,0.1-0.8,0.2-1.2c0.1-0.4,0.3-0.7,0.5-1
		c0.2-0.3,0.5-0.5,0.9-0.7c0.3-0.2,0.7-0.3,1.2-0.3c0.4,0,0.8,0.1,1.1,0.2c0.3,0.2,0.6,0.4,0.8,0.8h0V12h1.7v6
		C243.2,18.3,243.2,18.6,243.1,18.9z M240.7,16.8c0.2-0.1,0.4-0.2,0.5-0.4c0.1-0.2,0.2-0.4,0.3-0.6c0.1-0.2,0.1-0.4,0.1-0.7
		c0-0.3,0-0.5-0.1-0.8c0-0.2-0.1-0.4-0.2-0.6c-0.1-0.2-0.3-0.3-0.5-0.4c-0.2-0.1-0.4-0.2-0.7-0.2c-0.2,0-0.5,0-0.6,0.1
		c-0.2,0.1-0.3,0.2-0.5,0.4s-0.2,0.4-0.3,0.6c-0.1,0.2-0.1,0.5-0.1,0.7c0,0.2,0,0.5,0.1,0.7c0,0.2,0.1,0.4,0.2,0.6
		c0.1,0.2,0.3,0.3,0.4,0.4c0.2,0.1,0.4,0.2,0.7,0.2C240.3,16.9,240.5,16.9,240.7,16.8z"/>
	<path d="M246.6,16.9c0.3,0.3,0.6,0.4,1.1,0.4c0.4,0,0.7-0.1,0.9-0.3c0.3-0.2,0.4-0.4,0.5-0.6h1.6c-0.2,0.8-0.6,1.3-1.2,1.7
		s-1.1,0.5-1.9,0.5c-0.5,0-1-0.1-1.4-0.2c-0.4-0.2-0.8-0.4-1-0.7c-0.3-0.3-0.5-0.7-0.7-1.1c-0.2-0.4-0.2-0.9-0.2-1.4
		c0-0.5,0.1-0.9,0.2-1.4c0.2-0.4,0.4-0.8,0.7-1.1c0.3-0.3,0.6-0.5,1-0.7s0.9-0.3,1.3-0.3c0.6,0,1,0.1,1.4,0.3s0.7,0.5,1,0.9
		s0.5,0.8,0.6,1.2c0.1,0.5,0.2,0.9,0.1,1.4h-4.7C246.2,16.2,246.3,16.6,246.6,16.9z M248.6,13.5c-0.2-0.2-0.5-0.3-1-0.3
		c-0.3,0-0.5,0-0.7,0.1s-0.3,0.2-0.5,0.4s-0.2,0.3-0.2,0.4c0,0.2-0.1,0.3-0.1,0.4h2.9C248.9,14.1,248.8,13.7,248.6,13.5z"/>
	<path d="M255.2,14c0-0.4,0.1-0.8,0.3-1c0.2-0.3,0.4-0.5,0.7-0.7c0.3-0.2,0.6-0.3,1-0.4c0.4-0.1,0.7-0.1,1.1-0.1c0.3,0,0.7,0,1,0.1
		c0.3,0,0.6,0.1,0.9,0.3c0.3,0.1,0.5,0.3,0.7,0.6c0.2,0.2,0.3,0.6,0.3,0.9V17c0,0.3,0,0.6,0.1,0.8c0,0.3,0.1,0.5,0.2,0.6h-1.8
		c0-0.1-0.1-0.2-0.1-0.3c0-0.1,0-0.2,0-0.3c-0.3,0.3-0.6,0.5-1,0.6c-0.4,0.1-0.8,0.2-1.2,0.2c-0.3,0-0.6,0-0.9-0.1
		c-0.3-0.1-0.5-0.2-0.7-0.3c-0.2-0.2-0.4-0.4-0.5-0.6c-0.1-0.2-0.2-0.5-0.2-0.9c0-0.4,0.1-0.7,0.2-0.9c0.1-0.2,0.3-0.4,0.5-0.6
		s0.4-0.2,0.7-0.3s0.5-0.1,0.8-0.2c0.3,0,0.5-0.1,0.8-0.1c0.3,0,0.5-0.1,0.7-0.1s0.4-0.1,0.5-0.2c0.1-0.1,0.2-0.2,0.2-0.4
		c0-0.2,0-0.3-0.1-0.5s-0.1-0.2-0.2-0.3c-0.1-0.1-0.2-0.1-0.4-0.1c-0.1,0-0.3,0-0.4,0c-0.3,0-0.6,0.1-0.8,0.2
		c-0.2,0.1-0.3,0.4-0.3,0.8H255.2z M259.3,15.3c-0.1,0.1-0.2,0.1-0.3,0.2s-0.2,0.1-0.4,0.1c-0.1,0-0.3,0-0.4,0.1
		c-0.1,0-0.3,0-0.4,0.1c-0.1,0-0.3,0.1-0.4,0.1c-0.1,0-0.2,0.1-0.3,0.2c-0.1,0.1-0.2,0.2-0.2,0.3c-0.1,0.1-0.1,0.2-0.1,0.4
		c0,0.2,0,0.3,0.1,0.4c0.1,0.1,0.1,0.2,0.2,0.3s0.2,0.1,0.3,0.1c0.1,0,0.3,0,0.4,0c0.3,0,0.6-0.1,0.8-0.2c0.2-0.1,0.3-0.3,0.4-0.4
		c0.1-0.2,0.1-0.3,0.2-0.5c0-0.2,0-0.3,0-0.4V15.3z"/>
	<path d="M266,12v1.2h-1.3v3.2c0,0.3,0,0.5,0.2,0.6c0.1,0.1,0.3,0.1,0.6,0.1c0.1,0,0.2,0,0.3,0c0.1,0,0.2,0,0.3,0v1.4
		c-0.1,0-0.3,0-0.5,0c-0.2,0-0.4,0-0.5,0c-0.3,0-0.5,0-0.8-0.1s-0.5-0.1-0.7-0.2s-0.3-0.3-0.4-0.5c-0.1-0.2-0.2-0.5-0.2-0.8v-3.8
		h-1.1V12h1.1V10h1.8V12H266z"/>
</g>
<path d="M20,24.5v1.2h-1.3v3.2c0,0.3,0.1,0.5,0.2,0.6c0.1,0.1,0.3,0.1,0.6,0.1c0.1,0,0.2,0,0.3,0c0.1,0,0.2,0,0.3,0v1.4
	c-0.1,0-0.3,0-0.5,0c-0.2,0-0.4,0-0.5,0c-0.3,0-0.5,0-0.8-0.1c-0.2,0-0.5-0.1-0.6-0.2c-0.2-0.1-0.3-0.3-0.4-0.5
	C17,30.1,17,29.8,17,29.5v-3.8h-1.1v-1.2H17v-1.9h1.8v1.9H20z M22.7,22v3.4h0c0.2-0.4,0.5-0.6,0.9-0.8c0.4-0.2,0.7-0.3,1-0.3
	c0.5,0,0.9,0.1,1.2,0.2c0.3,0.1,0.5,0.3,0.7,0.5c0.2,0.2,0.3,0.5,0.4,0.8c0.1,0.3,0.1,0.7,0.1,1.1v4h-1.8v-3.6
	c0-0.5-0.1-0.9-0.2-1.2c-0.2-0.3-0.5-0.4-0.9-0.4c-0.5,0-0.8,0.1-1.1,0.4c-0.2,0.3-0.3,0.8-0.3,1.4v3.4h-1.8V22H22.7z M30.2,29.4
	c0.3,0.3,0.6,0.4,1.1,0.4c0.4,0,0.7-0.1,0.9-0.3c0.3-0.2,0.4-0.4,0.5-0.6h1.6c-0.2,0.8-0.6,1.3-1.2,1.7c-0.5,0.3-1.1,0.5-1.9,0.5
	c-0.5,0-1-0.1-1.4-0.2c-0.4-0.2-0.8-0.4-1-0.7c-0.3-0.3-0.5-0.7-0.7-1.1c-0.2-0.4-0.2-0.9-0.2-1.4c0-0.5,0.1-0.9,0.2-1.4
	c0.2-0.4,0.4-0.8,0.7-1.1c0.3-0.3,0.6-0.5,1-0.7c0.4-0.2,0.9-0.3,1.3-0.3c0.5,0,1,0.1,1.4,0.3c0.4,0.2,0.7,0.5,1,0.9
	c0.3,0.4,0.5,0.8,0.6,1.2c0.1,0.5,0.2,0.9,0.1,1.4h-4.7C29.8,28.7,29.9,29.1,30.2,29.4z M32.2,26c-0.2-0.2-0.5-0.3-1-0.3
	c-0.3,0-0.5,0-0.7,0.1c-0.2,0.1-0.3,0.2-0.5,0.4c-0.1,0.1-0.2,0.3-0.2,0.4c0,0.2-0.1,0.3-0.1,0.4h2.9C32.6,26.6,32.4,26.2,32.2,26z
	 M40.4,29.3c0.1,0.1,0.2,0.2,0.3,0.3c0.1,0.1,0.3,0.2,0.4,0.2c0.2,0,0.3,0.1,0.5,0.1c0.1,0,0.3,0,0.4,0c0.1,0,0.3-0.1,0.4-0.1
	c0.1-0.1,0.2-0.1,0.3-0.2c0.1-0.1,0.1-0.2,0.1-0.4c0-0.3-0.2-0.5-0.5-0.6c-0.4-0.1-0.8-0.3-1.5-0.4c-0.3-0.1-0.5-0.1-0.8-0.2
	c-0.2-0.1-0.5-0.2-0.7-0.3c-0.2-0.1-0.3-0.3-0.5-0.5c-0.1-0.2-0.2-0.4-0.2-0.7c0-0.4,0.1-0.8,0.2-1c0.2-0.3,0.4-0.5,0.6-0.6
	c0.3-0.2,0.6-0.3,0.9-0.3c0.3-0.1,0.7-0.1,1-0.1c0.3,0,0.7,0,1,0.1c0.3,0.1,0.6,0.2,0.9,0.3c0.3,0.2,0.5,0.4,0.6,0.6
	c0.2,0.3,0.3,0.6,0.3,1h-1.7c0-0.3-0.2-0.6-0.4-0.7c-0.2-0.1-0.5-0.2-0.8-0.2c-0.1,0-0.2,0-0.3,0c-0.1,0-0.2,0-0.3,0.1
	c-0.1,0-0.2,0.1-0.2,0.2c-0.1,0.1-0.1,0.2-0.1,0.3c0,0.2,0.1,0.3,0.2,0.4c0.1,0.1,0.3,0.2,0.5,0.2s0.4,0.1,0.6,0.2
	c0.2,0,0.5,0.1,0.7,0.2c0.3,0.1,0.5,0.1,0.8,0.2c0.2,0.1,0.5,0.2,0.7,0.3c0.2,0.1,0.3,0.3,0.5,0.5c0.1,0.2,0.2,0.5,0.2,0.8
	c0,0.4-0.1,0.8-0.3,1.1c-0.2,0.3-0.4,0.5-0.7,0.7c-0.3,0.2-0.6,0.3-0.9,0.4c-0.4,0.1-0.7,0.1-1.1,0.1c-0.4,0-0.7,0-1.1-0.1
	c-0.4-0.1-0.7-0.2-1-0.4c-0.3-0.2-0.5-0.4-0.7-0.7c-0.2-0.3-0.3-0.6-0.3-1.1h1.7C40.3,29,40.4,29.2,40.4,29.3z M49.2,24.5v1.2h-1.3
	v3.2c0,0.3,0,0.5,0.2,0.6c0.1,0.1,0.3,0.1,0.6,0.1c0.1,0,0.2,0,0.3,0c0.1,0,0.2,0,0.3,0v1.4c-0.1,0-0.3,0-0.5,0c-0.2,0-0.4,0-0.5,0
	c-0.3,0-0.5,0-0.8-0.1c-0.2,0-0.5-0.1-0.7-0.2c-0.2-0.1-0.3-0.3-0.4-0.5c-0.1-0.2-0.2-0.5-0.2-0.8v-3.8h-1.1v-1.2h1.1v-1.9h1.8v1.9
	H49.2z M51.8,26.5c0-0.4,0.2-0.6,0.3-0.8c0.2-0.1,0.5-0.2,0.8-0.2c0.2,0,0.3,0,0.4,0c0.1,0,0.3,0.1,0.4,0.1c0.1,0.1,0.2,0.2,0.2,0.3
	s0.1,0.3,0.1,0.5c0,0.2,0,0.3-0.2,0.4c-0.1,0.1-0.3,0.2-0.5,0.2s-0.4,0.1-0.7,0.1c-0.3,0-0.5,0.1-0.8,0.1c-0.3,0-0.5,0.1-0.8,0.2
	c-0.3,0.1-0.5,0.2-0.7,0.3c-0.2,0.1-0.4,0.3-0.5,0.6c-0.1,0.2-0.2,0.5-0.2,0.9c0,0.3,0.1,0.6,0.2,0.9c0.1,0.2,0.3,0.4,0.5,0.6
	c0.2,0.2,0.4,0.3,0.7,0.3c0.3,0.1,0.6,0.1,0.9,0.1c0.4,0,0.8-0.1,1.2-0.2c0.4-0.1,0.7-0.3,1-0.6c0,0.1,0,0.2,0,0.3
	c0,0.1,0,0.2,0.1,0.3h1.8c-0.1-0.1-0.1-0.3-0.2-0.6c0-0.3-0.1-0.5-0.1-0.8v-3.4c0-0.4-0.1-0.7-0.3-0.9c-0.2-0.2-0.4-0.4-0.7-0.6
	c-0.3-0.1-0.6-0.2-0.9-0.3c-0.3,0-0.7-0.1-1-0.1c-0.4,0-0.7,0-1.1,0.1c-0.4,0.1-0.7,0.2-1,0.4c-0.3,0.2-0.5,0.4-0.7,0.7
	c-0.2,0.3-0.3,0.6-0.3,1H51.8z M54.1,28.4c0,0.1,0,0.2,0,0.4c0,0.2-0.1,0.3-0.2,0.5c-0.1,0.2-0.2,0.3-0.4,0.4
	c-0.2,0.1-0.5,0.2-0.8,0.2c-0.1,0-0.3,0-0.4,0c-0.1,0-0.2-0.1-0.3-0.1s-0.2-0.1-0.2-0.3c-0.1-0.1-0.1-0.2-0.1-0.4
	c0-0.2,0-0.3,0.1-0.4c0.1-0.1,0.1-0.2,0.2-0.3c0.1-0.1,0.2-0.1,0.3-0.2c0.1,0,0.3-0.1,0.4-0.1c0.1,0,0.3,0,0.4-0.1
	c0.1,0,0.3,0,0.4-0.1c0.1,0,0.2-0.1,0.4-0.1s0.2-0.1,0.3-0.2V28.4z M58.9,24.5v1.2h0c0.1-0.2,0.2-0.4,0.3-0.6
	c0.1-0.2,0.3-0.3,0.5-0.4c0.2-0.1,0.4-0.2,0.6-0.3c0.2-0.1,0.4-0.1,0.7-0.1c0.1,0,0.2,0,0.4,0.1V26c-0.1,0-0.2,0-0.3,0
	c-0.1,0-0.2,0-0.3,0c-0.3,0-0.6,0.1-0.8,0.2c-0.2,0.1-0.4,0.3-0.5,0.4s-0.2,0.4-0.3,0.7C59,27.5,59,27.7,59,28v2.9h-1.8v-6.5H58.9z
	 M65.6,24.5v1.2h-1.3v3.2c0,0.3,0,0.5,0.1,0.6c0.1,0.1,0.3,0.1,0.6,0.1c0.1,0,0.2,0,0.3,0c0.1,0,0.2,0,0.3,0v1.4c-0.2,0-0.3,0-0.5,0
	c-0.2,0-0.4,0-0.5,0c-0.3,0-0.5,0-0.8-0.1c-0.2,0-0.5-0.1-0.7-0.2c-0.2-0.1-0.3-0.3-0.4-0.5c-0.1-0.2-0.2-0.5-0.2-0.8v-3.8h-1.1
	v-1.2h1.1v-1.9h1.8v1.9H65.6z M70,26.3c0.2-0.4,0.4-0.8,0.7-1.1c0.3-0.3,0.6-0.5,1.1-0.7c0.4-0.2,0.9-0.2,1.4-0.2
	c0.5,0,1,0.1,1.4,0.2c0.4,0.2,0.8,0.4,1.1,0.7c0.3,0.3,0.5,0.7,0.7,1.1c0.2,0.4,0.2,0.9,0.2,1.4c0,0.5-0.1,1-0.2,1.4
	c-0.2,0.4-0.4,0.8-0.7,1.1c-0.3,0.3-0.6,0.5-1.1,0.7s-0.9,0.2-1.4,0.2c-0.5,0-1-0.1-1.4-0.2c-0.4-0.2-0.8-0.4-1.1-0.7
	c-0.3-0.3-0.5-0.7-0.7-1.1c-0.2-0.4-0.2-0.9-0.2-1.4C69.8,27.2,69.9,26.7,70,26.3z M71.6,28.5c0.1,0.2,0.1,0.5,0.3,0.7
	c0.1,0.2,0.3,0.4,0.5,0.5c0.2,0.1,0.4,0.2,0.8,0.2s0.6-0.1,0.8-0.2c0.2-0.1,0.4-0.3,0.5-0.5c0.1-0.2,0.2-0.4,0.3-0.7
	c0.1-0.2,0.1-0.5,0.1-0.8c0-0.3,0-0.5-0.1-0.8s-0.1-0.5-0.3-0.7c-0.1-0.2-0.3-0.3-0.5-0.5c-0.2-0.1-0.5-0.2-0.8-0.2
	s-0.6,0.1-0.8,0.2c-0.2,0.1-0.4,0.3-0.5,0.5c-0.1,0.2-0.2,0.4-0.3,0.7c0,0.2-0.1,0.5-0.1,0.8C71.5,28,71.6,28.2,71.6,28.5z
	 M76.9,25.7v-1.2H78V24c0-0.6,0.2-1,0.5-1.4c0.4-0.4,0.9-0.5,1.6-0.5c0.2,0,0.3,0,0.5,0c0.2,0,0.3,0,0.5,0v1.3c-0.2,0-0.4,0-0.7,0
	c-0.2,0-0.4,0.1-0.5,0.2c-0.1,0.1-0.2,0.3-0.2,0.6v0.4H81v1.2h-1.2v5.3H78v-5.3H76.9z M87.6,32.9c-0.3,0.2-0.8,0.3-1.4,0.3
	c-0.2,0-0.4,0-0.5,0c-0.2,0-0.4,0-0.5,0v-1.5c0.2,0,0.3,0,0.5,0.1c0.2,0,0.3,0,0.5,0c0.2,0,0.4-0.1,0.5-0.3c0.1-0.2,0.2-0.3,0.2-0.5
	c0-0.1,0-0.3-0.1-0.4l-2.3-6.1h1.9l1.5,4.4h0l1.4-4.4h1.8l-2.7,7.3C88.2,32.3,88,32.6,87.6,32.9z M91.8,26.3
	c0.2-0.4,0.4-0.8,0.7-1.1c0.3-0.3,0.6-0.5,1.1-0.7c0.4-0.2,0.9-0.2,1.4-0.2c0.5,0,1,0.1,1.4,0.2c0.4,0.2,0.8,0.4,1.1,0.7
	c0.3,0.3,0.5,0.7,0.7,1.1c0.2,0.4,0.2,0.9,0.2,1.4c0,0.5-0.1,1-0.2,1.4c-0.2,0.4-0.4,0.8-0.7,1.1c-0.3,0.3-0.6,0.5-1.1,0.7
	s-0.9,0.2-1.4,0.2c-0.5,0-1-0.1-1.4-0.2c-0.4-0.2-0.8-0.4-1.1-0.7c-0.3-0.3-0.5-0.7-0.7-1.1c-0.2-0.4-0.2-0.9-0.2-1.4
	C91.5,27.2,91.6,26.7,91.8,26.3z M93.4,28.5c0.1,0.2,0.1,0.5,0.3,0.7c0.1,0.2,0.3,0.4,0.5,0.5c0.2,0.1,0.4,0.2,0.8,0.2
	s0.6-0.1,0.8-0.2c0.2-0.1,0.4-0.3,0.5-0.5c0.1-0.2,0.2-0.4,0.3-0.7c0.1-0.2,0.1-0.5,0.1-0.8c0-0.3,0-0.5-0.1-0.8s-0.1-0.5-0.3-0.7
	c-0.1-0.2-0.3-0.3-0.5-0.5c-0.2-0.1-0.5-0.2-0.8-0.2s-0.6,0.1-0.8,0.2c-0.2,0.1-0.4,0.3-0.5,0.5c-0.1,0.2-0.2,0.4-0.3,0.7
	c0,0.2-0.1,0.5-0.1,0.8C93.3,28,93.3,28.2,93.4,28.5z M103.7,30.9V30h0c-0.2,0.4-0.5,0.6-0.9,0.8c-0.4,0.2-0.7,0.2-1.1,0.2
	c-0.5,0-0.9-0.1-1.2-0.2c-0.3-0.1-0.5-0.3-0.7-0.5c-0.2-0.2-0.3-0.5-0.4-0.8c-0.1-0.3-0.1-0.7-0.1-1.1v-4h1.8v3.6
	c0,0.5,0.1,0.9,0.2,1.2c0.2,0.3,0.5,0.4,0.9,0.4c0.5,0,0.8-0.1,1-0.4c0.2-0.3,0.3-0.8,0.3-1.4v-3.4h1.8v6.5H103.7z M108.5,24.5v1.2
	h0c0.1-0.2,0.2-0.4,0.3-0.6c0.1-0.2,0.3-0.3,0.5-0.4c0.2-0.1,0.4-0.2,0.6-0.3c0.2-0.1,0.4-0.1,0.6-0.1c0.1,0,0.2,0,0.4,0.1V26
	c-0.1,0-0.2,0-0.3,0c-0.1,0-0.2,0-0.3,0c-0.3,0-0.6,0.1-0.8,0.2c-0.2,0.1-0.4,0.3-0.5,0.4c-0.1,0.2-0.2,0.4-0.3,0.7
	c-0.1,0.2-0.1,0.5-0.1,0.8v2.9h-1.8v-6.5H108.5z M118.2,25.6c-0.3,0-0.5,0.1-0.7,0.2c-0.2,0.1-0.3,0.3-0.5,0.5
	c-0.1,0.2-0.2,0.4-0.3,0.7c0,0.2-0.1,0.5-0.1,0.7c0,0.2,0,0.5,0.1,0.7c0.1,0.2,0.1,0.5,0.2,0.7c0.1,0.2,0.3,0.4,0.5,0.5
	c0.2,0.1,0.4,0.2,0.7,0.2c0.4,0,0.8-0.1,1-0.4c0.2-0.2,0.4-0.6,0.4-1h1.7c-0.1,0.9-0.4,1.5-1,2c-0.5,0.5-1.3,0.7-2.1,0.7
	c-0.5,0-0.9-0.1-1.3-0.2c-0.4-0.2-0.7-0.4-1-0.7c-0.3-0.3-0.5-0.6-0.7-1c-0.2-0.4-0.2-0.8-0.2-1.3c0-0.5,0.1-1,0.2-1.4
	c0.1-0.4,0.4-0.8,0.6-1.1c0.3-0.3,0.6-0.6,1-0.7c0.4-0.2,0.9-0.3,1.4-0.3c0.4,0,0.8,0.1,1.1,0.2c0.4,0.1,0.7,0.3,1,0.5
	c0.3,0.2,0.5,0.5,0.7,0.8c0.2,0.3,0.3,0.7,0.3,1.1h-1.7C119.4,26,119,25.6,118.2,25.6L118.2,25.6z M124,26.5c0-0.4,0.2-0.6,0.3-0.8
	c0.2-0.1,0.5-0.2,0.8-0.2c0.2,0,0.3,0,0.4,0c0.1,0,0.3,0.1,0.4,0.1c0.1,0.1,0.2,0.2,0.2,0.3s0.1,0.3,0.1,0.5c0,0.2,0,0.3-0.2,0.4
	c-0.1,0.1-0.3,0.2-0.5,0.2s-0.4,0.1-0.7,0.1c-0.3,0-0.5,0.1-0.8,0.1c-0.3,0-0.5,0.1-0.8,0.2c-0.3,0.1-0.5,0.2-0.7,0.3
	c-0.2,0.1-0.4,0.3-0.5,0.6c-0.1,0.2-0.2,0.5-0.2,0.9c0,0.3,0.1,0.6,0.2,0.9c0.1,0.2,0.3,0.4,0.5,0.6c0.2,0.2,0.4,0.3,0.7,0.3
	c0.3,0.1,0.6,0.1,0.9,0.1c0.4,0,0.8-0.1,1.2-0.2c0.4-0.1,0.7-0.3,1-0.6c0,0.1,0,0.2,0,0.3c0,0.1,0,0.2,0.1,0.3h1.8
	c-0.1-0.1-0.1-0.3-0.2-0.6c0-0.3,0-0.5,0-0.8v-3.4c0-0.4-0.1-0.7-0.3-0.9c-0.2-0.2-0.4-0.4-0.7-0.6c-0.3-0.1-0.6-0.2-0.9-0.3
	c-0.3,0-0.7-0.1-1-0.1c-0.4,0-0.7,0-1.1,0.1c-0.4,0.1-0.7,0.2-1,0.4c-0.3,0.2-0.5,0.4-0.7,0.7c-0.2,0.3-0.3,0.6-0.3,1H124z
	 M126.3,28.4c0,0.1,0,0.2,0,0.4c0,0.2-0.1,0.3-0.2,0.5c-0.1,0.2-0.2,0.3-0.4,0.4c-0.2,0.1-0.5,0.2-0.8,0.2c-0.1,0-0.3,0-0.4,0
	c-0.1,0-0.2-0.1-0.3-0.1s-0.2-0.1-0.2-0.3c-0.1-0.1-0.1-0.2-0.1-0.4c0-0.2,0-0.3,0.1-0.4c0.1-0.1,0.1-0.2,0.2-0.3
	c0.1-0.1,0.2-0.1,0.3-0.2c0.1,0,0.3-0.1,0.4-0.1c0.1,0,0.3,0,0.4-0.1c0.1,0,0.3,0,0.4-0.1c0.1,0,0.2-0.1,0.4-0.1
	c0.1,0,0.2-0.1,0.3-0.2V28.4z M131.2,24.5v1.2h0c0.1-0.2,0.2-0.4,0.3-0.6c0.1-0.2,0.3-0.3,0.5-0.4c0.2-0.1,0.4-0.2,0.6-0.3
	c0.2-0.1,0.4-0.1,0.6-0.1c0.1,0,0.2,0,0.4,0.1V26c-0.1,0-0.2,0-0.3,0c-0.1,0-0.2,0-0.3,0c-0.3,0-0.6,0.1-0.8,0.2
	c-0.2,0.1-0.4,0.3-0.5,0.4s-0.2,0.4-0.3,0.7c-0.1,0.2-0.1,0.5-0.1,0.8v2.9h-1.8v-6.5H131.2z M136,29.4c0.3,0.3,0.7,0.4,1.2,0.4
	c0.4,0,0.7-0.1,0.9-0.3c0.3-0.2,0.4-0.4,0.5-0.6h1.6c-0.2,0.8-0.6,1.3-1.1,1.7c-0.5,0.3-1.1,0.5-1.9,0.5c-0.5,0-1-0.1-1.4-0.2
	c-0.4-0.2-0.8-0.4-1-0.7c-0.3-0.3-0.5-0.7-0.7-1.1c-0.2-0.4-0.2-0.9-0.2-1.4c0-0.5,0.1-0.9,0.2-1.4c0.2-0.4,0.4-0.8,0.7-1.1
	c0.3-0.3,0.6-0.5,1-0.7c0.4-0.2,0.9-0.3,1.3-0.3c0.5,0,1,0.1,1.4,0.3c0.4,0.2,0.7,0.5,1,0.9c0.3,0.4,0.5,0.8,0.6,1.2
	c0.1,0.5,0.2,0.9,0.1,1.4h-4.7C135.6,28.7,135.7,29.1,136,29.4z M138,26c-0.2-0.2-0.5-0.3-1-0.3c-0.3,0-0.5,0-0.7,0.1
	c-0.2,0.1-0.3,0.2-0.4,0.4c-0.1,0.1-0.2,0.3-0.2,0.4c0,0.2-0.1,0.3-0.1,0.4h2.9C138.4,26.6,138.2,26.2,138,26z M143.2,29.4
	c0.3,0.3,0.7,0.4,1.2,0.4c0.4,0,0.7-0.1,0.9-0.3c0.3-0.2,0.4-0.4,0.5-0.6h1.6c-0.2,0.8-0.6,1.3-1.1,1.7c-0.5,0.3-1.1,0.5-1.9,0.5
	c-0.5,0-1-0.1-1.4-0.2c-0.4-0.2-0.8-0.4-1-0.7c-0.3-0.3-0.5-0.7-0.7-1.1c-0.2-0.4-0.2-0.9-0.2-1.4c0-0.5,0.1-0.9,0.2-1.4
	c0.2-0.4,0.4-0.8,0.7-1.1c0.3-0.3,0.6-0.5,1-0.7c0.4-0.2,0.9-0.3,1.3-0.3c0.5,0,1,0.1,1.4,0.3c0.4,0.2,0.7,0.5,1,0.9
	c0.3,0.4,0.5,0.8,0.6,1.2c0.1,0.5,0.2,0.9,0.1,1.4h-4.7C142.8,28.7,142.9,29.1,143.2,29.4z M145.2,26c-0.2-0.2-0.5-0.3-1-0.3
	c-0.3,0-0.5,0-0.7,0.1c-0.2,0.1-0.3,0.2-0.4,0.4c-0.1,0.1-0.2,0.3-0.2,0.4c0,0.2-0.1,0.3-0.1,0.4h2.9
	C145.6,26.6,145.4,26.2,145.2,26z M150.1,24.5v1.2h0c0.1-0.2,0.2-0.4,0.3-0.6c0.1-0.2,0.3-0.3,0.5-0.4c0.2-0.1,0.4-0.2,0.6-0.3
	c0.2-0.1,0.4-0.1,0.6-0.1c0.1,0,0.2,0,0.4,0.1V26c-0.1,0-0.2,0-0.3,0c-0.1,0-0.2,0-0.3,0c-0.3,0-0.6,0.1-0.8,0.2
	c-0.2,0.1-0.4,0.3-0.5,0.4s-0.2,0.4-0.3,0.7c-0.1,0.2-0.1,0.5-0.1,0.8v2.9h-1.8v-6.5H150.1z M156.8,23.5V22h1.8v1.5H156.8z
	 M158.6,24.5v6.5h-1.8v-6.5H158.6z M161.5,29.3c0.1,0.1,0.2,0.2,0.3,0.3c0.1,0.1,0.3,0.2,0.4,0.2c0.2,0,0.3,0.1,0.5,0.1
	c0.1,0,0.3,0,0.4,0c0.1,0,0.3-0.1,0.4-0.1c0.1-0.1,0.2-0.1,0.3-0.2c0.1-0.1,0.1-0.2,0.1-0.4c0-0.3-0.2-0.5-0.5-0.6
	c-0.4-0.1-0.8-0.3-1.5-0.4c-0.3-0.1-0.5-0.1-0.8-0.2c-0.2-0.1-0.5-0.2-0.7-0.3c-0.2-0.1-0.3-0.3-0.5-0.5c-0.1-0.2-0.2-0.4-0.2-0.7
	c0-0.4,0.1-0.8,0.2-1c0.2-0.3,0.4-0.5,0.6-0.6c0.3-0.2,0.6-0.3,0.9-0.3c0.3-0.1,0.7-0.1,1-0.1c0.4,0,0.7,0,1,0.1
	c0.3,0.1,0.6,0.2,0.9,0.3c0.3,0.2,0.5,0.4,0.6,0.6c0.2,0.3,0.3,0.6,0.3,1h-1.7c0-0.3-0.2-0.6-0.4-0.7c-0.2-0.1-0.5-0.2-0.8-0.2
	c-0.1,0-0.2,0-0.3,0c-0.1,0-0.2,0-0.3,0.1c-0.1,0-0.2,0.1-0.2,0.2c-0.1,0.1-0.1,0.2-0.1,0.3c0,0.2,0.1,0.3,0.2,0.4
	c0.1,0.1,0.3,0.2,0.5,0.2s0.4,0.1,0.6,0.2c0.2,0,0.5,0.1,0.7,0.2c0.3,0.1,0.5,0.1,0.8,0.2c0.2,0.1,0.5,0.2,0.7,0.3
	c0.2,0.1,0.3,0.3,0.5,0.5c0.1,0.2,0.2,0.5,0.2,0.8c0,0.4-0.1,0.8-0.3,1.1c-0.2,0.3-0.4,0.5-0.7,0.7c-0.3,0.2-0.6,0.3-0.9,0.4
	c-0.4,0.1-0.7,0.1-1.1,0.1c-0.4,0-0.7,0-1.1-0.1c-0.4-0.1-0.7-0.2-1-0.4c-0.3-0.2-0.5-0.4-0.7-0.7c-0.2-0.3-0.3-0.6-0.3-1.1h1.7
	C161.4,29,161.4,29.2,161.5,29.3z M171.9,26.5c0-0.4,0.1-0.6,0.4-0.8c0.2-0.1,0.5-0.2,0.8-0.2c0.2,0,0.3,0,0.4,0
	c0.1,0,0.3,0.1,0.4,0.1c0.1,0.1,0.2,0.2,0.2,0.3s0.1,0.3,0.1,0.5c0,0.2,0,0.3-0.2,0.4c-0.1,0.1-0.3,0.2-0.5,0.2s-0.4,0.1-0.7,0.1
	c-0.3,0-0.5,0.1-0.8,0.1c-0.3,0-0.5,0.1-0.8,0.2c-0.3,0.1-0.5,0.2-0.7,0.3c-0.2,0.1-0.4,0.3-0.5,0.6c-0.1,0.2-0.2,0.5-0.2,0.9
	c0,0.3,0.1,0.6,0.2,0.9c0.1,0.2,0.3,0.4,0.5,0.6c0.2,0.2,0.4,0.3,0.7,0.3c0.3,0.1,0.6,0.1,0.9,0.1c0.4,0,0.8-0.1,1.2-0.2
	c0.4-0.1,0.7-0.3,1-0.6c0,0.1,0,0.2,0,0.3c0,0.1,0,0.2,0.1,0.3h1.8c-0.1-0.1-0.1-0.3-0.2-0.6c0-0.3,0-0.5,0-0.8v-3.4
	c0-0.4-0.1-0.7-0.3-0.9c-0.2-0.2-0.4-0.4-0.7-0.6c-0.3-0.1-0.6-0.2-0.9-0.3c-0.3,0-0.7-0.1-1-0.1c-0.4,0-0.7,0-1.1,0.1
	c-0.4,0.1-0.7,0.2-1,0.4c-0.3,0.2-0.5,0.4-0.7,0.7c-0.2,0.3-0.3,0.6-0.3,1H171.9z M174.2,28.4c0,0.1,0,0.2,0,0.4
	c0,0.2-0.1,0.3-0.2,0.5c-0.1,0.2-0.2,0.3-0.4,0.4c-0.2,0.1-0.5,0.2-0.8,0.2c-0.1,0-0.3,0-0.4,0c-0.1,0-0.2-0.1-0.4-0.1
	s-0.2-0.1-0.2-0.3c-0.1-0.1-0.1-0.2-0.1-0.4c0-0.2,0-0.3,0.1-0.4c0.1-0.1,0.1-0.2,0.2-0.3c0.1-0.1,0.2-0.1,0.3-0.2
	c0.1,0,0.3-0.1,0.4-0.1c0.1,0,0.3,0,0.4-0.1c0.1,0,0.3,0,0.4-0.1c0.1,0,0.2-0.1,0.4-0.1s0.2-0.1,0.3-0.2V28.4z M187,31.4
	c-0.1,0.3-0.2,0.6-0.5,0.9c-0.2,0.3-0.6,0.5-1,0.7c-0.4,0.2-1,0.3-1.8,0.3c-0.3,0-0.6,0-1-0.1c-0.3-0.1-0.6-0.2-0.9-0.4
	c-0.3-0.2-0.5-0.4-0.7-0.6c-0.2-0.3-0.3-0.6-0.3-0.9h1.8c0.1,0.3,0.2,0.6,0.5,0.7c0.2,0.1,0.5,0.2,0.8,0.2c0.5,0,0.9-0.2,1.1-0.5
	c0.2-0.3,0.3-0.7,0.3-1.1v-0.9h0c-0.2,0.3-0.5,0.6-0.8,0.8c-0.4,0.2-0.7,0.2-1.1,0.2c-0.5,0-0.9-0.1-1.2-0.3
	c-0.4-0.2-0.6-0.4-0.9-0.7c-0.2-0.3-0.4-0.6-0.5-1c-0.1-0.4-0.2-0.8-0.2-1.3c0-0.4,0.1-0.8,0.2-1.2c0.1-0.4,0.3-0.7,0.5-1
	c0.2-0.3,0.5-0.5,0.9-0.7c0.3-0.2,0.7-0.3,1.2-0.3c0.4,0,0.8,0.1,1.1,0.2c0.3,0.2,0.6,0.4,0.8,0.8h0v-0.9h1.7v6
	C187.1,30.8,187,31.1,187,31.4z M184.5,29.3c0.2-0.1,0.3-0.2,0.5-0.4c0.1-0.2,0.2-0.4,0.3-0.6c0.1-0.2,0.1-0.4,0.1-0.7
	c0-0.3,0-0.5-0.1-0.8c-0.1-0.2-0.1-0.4-0.2-0.6c-0.1-0.2-0.3-0.3-0.5-0.4c-0.2-0.1-0.4-0.2-0.7-0.2c-0.2,0-0.5,0-0.6,0.1
	c-0.2,0.1-0.3,0.2-0.4,0.4c-0.1,0.2-0.2,0.4-0.3,0.6c-0.1,0.2-0.1,0.5-0.1,0.7c0,0.2,0,0.5,0.1,0.7c0,0.2,0.1,0.4,0.2,0.6
	c0.1,0.2,0.3,0.3,0.4,0.4c0.2,0.1,0.4,0.2,0.7,0.2C184.1,29.4,184.3,29.4,184.5,29.3z M188.5,26.3c0.2-0.4,0.4-0.8,0.7-1.1
	c0.3-0.3,0.6-0.5,1.1-0.7c0.4-0.2,0.9-0.2,1.4-0.2c0.5,0,1,0.1,1.4,0.2c0.4,0.2,0.8,0.4,1.1,0.7c0.3,0.3,0.5,0.7,0.7,1.1
	c0.2,0.4,0.2,0.9,0.2,1.4c0,0.5-0.1,1-0.2,1.4c-0.2,0.4-0.4,0.8-0.7,1.1c-0.3,0.3-0.6,0.5-1.1,0.7c-0.4,0.2-0.9,0.2-1.4,0.2
	c-0.5,0-1-0.1-1.4-0.2c-0.4-0.2-0.8-0.4-1.1-0.7c-0.3-0.3-0.5-0.7-0.7-1.1c-0.2-0.4-0.2-0.9-0.2-1.4
	C188.3,27.2,188.4,26.7,188.5,26.3z M190.1,28.5c0.1,0.2,0.1,0.5,0.3,0.7c0.1,0.2,0.3,0.4,0.5,0.5c0.2,0.1,0.4,0.2,0.8,0.2
	s0.6-0.1,0.8-0.2c0.2-0.1,0.4-0.3,0.5-0.5c0.1-0.2,0.2-0.4,0.3-0.7c0.1-0.2,0.1-0.5,0.1-0.8c0-0.3,0-0.5-0.1-0.8s-0.1-0.5-0.3-0.7
	c-0.1-0.2-0.3-0.3-0.5-0.5c-0.2-0.1-0.5-0.2-0.8-0.2s-0.6,0.1-0.8,0.2c-0.2,0.1-0.4,0.3-0.5,0.5c-0.1,0.2-0.2,0.4-0.3,0.7
	s-0.1,0.5-0.1,0.8C190.1,28,190.1,28.2,190.1,28.5z M196.2,26.3c0.2-0.4,0.4-0.8,0.7-1.1c0.3-0.3,0.6-0.5,1.1-0.7
	c0.4-0.2,0.9-0.2,1.4-0.2c0.5,0,1,0.1,1.4,0.2c0.4,0.2,0.8,0.4,1.1,0.7c0.3,0.3,0.5,0.7,0.7,1.1c0.2,0.4,0.2,0.9,0.2,1.4
	c0,0.5-0.1,1-0.2,1.4c-0.2,0.4-0.4,0.8-0.7,1.1c-0.3,0.3-0.6,0.5-1.1,0.7c-0.4,0.2-0.9,0.2-1.4,0.2c-0.5,0-1-0.1-1.4-0.2
	c-0.4-0.2-0.8-0.4-1.1-0.7c-0.3-0.3-0.5-0.7-0.7-1.1c-0.2-0.4-0.2-0.9-0.2-1.4C195.9,27.2,196,26.7,196.2,26.3z M197.8,28.5
	c0.1,0.2,0.1,0.5,0.3,0.7c0.1,0.2,0.3,0.4,0.5,0.5c0.2,0.1,0.4,0.2,0.8,0.2s0.6-0.1,0.8-0.2c0.2-0.1,0.4-0.3,0.5-0.5
	c0.1-0.2,0.2-0.4,0.3-0.7c0.1-0.2,0.1-0.5,0.1-0.8c0-0.3,0-0.5-0.1-0.8s-0.1-0.5-0.3-0.7c-0.1-0.2-0.3-0.3-0.5-0.5
	c-0.2-0.1-0.5-0.2-0.8-0.2s-0.6,0.1-0.8,0.2c-0.2,0.1-0.4,0.3-0.5,0.5c-0.1,0.2-0.2,0.4-0.3,0.7s-0.1,0.5-0.1,0.8
	C197.7,28,197.7,28.2,197.8,28.5z M208.4,30.1c-0.2,0.4-0.5,0.6-0.8,0.8c-0.3,0.2-0.7,0.2-1.1,0.2c-0.5,0-0.9-0.1-1.3-0.3
	c-0.4-0.2-0.7-0.4-0.9-0.8c-0.2-0.3-0.4-0.7-0.5-1.1c-0.1-0.4-0.2-0.9-0.2-1.3c0-0.4,0.1-0.9,0.2-1.3c0.1-0.4,0.3-0.8,0.5-1.1
	c0.2-0.3,0.5-0.6,0.9-0.7c0.4-0.2,0.8-0.3,1.2-0.3c0.4,0,0.7,0.1,1.1,0.2c0.3,0.2,0.6,0.4,0.8,0.7h0V22h1.8v8.9h-1.7L208.4,30.1
	L208.4,30.1z M208.3,26.9c-0.1-0.2-0.1-0.5-0.3-0.7c-0.1-0.2-0.3-0.3-0.5-0.5c-0.2-0.1-0.4-0.2-0.7-0.2c-0.3,0-0.5,0.1-0.7,0.2
	c-0.2,0.1-0.4,0.3-0.5,0.5c-0.1,0.2-0.2,0.4-0.3,0.7c-0.1,0.2-0.1,0.5-0.1,0.8c0,0.2,0,0.5,0.1,0.8c0.1,0.2,0.2,0.5,0.3,0.7
	c0.1,0.2,0.3,0.4,0.5,0.5c0.2,0.1,0.4,0.2,0.7,0.2c0.3,0,0.5-0.1,0.7-0.2c0.2-0.1,0.4-0.3,0.5-0.5c0.1-0.2,0.2-0.4,0.2-0.7
	s0.1-0.5,0.1-0.8C208.4,27.4,208.3,27.2,208.3,26.9z M214.2,25.7v-1.2h1.1V24c0-0.6,0.2-1,0.5-1.4c0.4-0.4,0.9-0.5,1.6-0.5
	c0.2,0,0.3,0,0.5,0c0.2,0,0.3,0,0.5,0v1.3c-0.2,0-0.4,0-0.7,0c-0.2,0-0.4,0.1-0.5,0.2c-0.1,0.1-0.2,0.3-0.2,0.6v0.4h1.2v1.2H217v5.3
	h-1.8v-5.3H214.2z M219.3,23.5V22h1.8v1.5H219.3z M221.1,24.5v6.5h-1.8v-6.5H221.1z M224.2,24.5v1.2h0c0.1-0.2,0.2-0.4,0.3-0.6
	c0.1-0.2,0.3-0.3,0.5-0.4c0.2-0.1,0.4-0.2,0.6-0.3c0.2-0.1,0.4-0.1,0.6-0.1c0.1,0,0.2,0,0.4,0.1V26c-0.1,0-0.2,0-0.3,0
	c-0.1,0-0.2,0-0.3,0c-0.3,0-0.6,0.1-0.8,0.2c-0.2,0.1-0.4,0.3-0.5,0.4s-0.2,0.4-0.3,0.7c-0.1,0.2-0.1,0.5-0.1,0.8v2.9h-1.8v-6.5
	H224.2z M228.9,29.3c0.1,0.1,0.2,0.2,0.3,0.3c0.1,0.1,0.3,0.2,0.4,0.2c0.2,0,0.3,0.1,0.5,0.1c0.1,0,0.3,0,0.4,0
	c0.1,0,0.3-0.1,0.4-0.1c0.1-0.1,0.2-0.1,0.3-0.2c0.1-0.1,0.1-0.2,0.1-0.4c0-0.3-0.2-0.5-0.5-0.6c-0.4-0.1-0.8-0.3-1.5-0.4
	c-0.3-0.1-0.5-0.1-0.8-0.2c-0.2-0.1-0.5-0.2-0.7-0.3c-0.2-0.1-0.3-0.3-0.5-0.5c-0.1-0.2-0.2-0.4-0.2-0.7c0-0.4,0.1-0.8,0.2-1
	c0.2-0.3,0.4-0.5,0.6-0.6c0.3-0.2,0.6-0.3,0.9-0.3c0.3-0.1,0.7-0.1,1-0.1c0.4,0,0.7,0,1,0.1c0.3,0.1,0.6,0.2,0.9,0.3
	c0.3,0.2,0.5,0.4,0.6,0.6c0.2,0.3,0.3,0.6,0.3,1h-1.7c0-0.3-0.2-0.6-0.4-0.7c-0.2-0.1-0.5-0.2-0.8-0.2c-0.1,0-0.2,0-0.3,0
	c-0.1,0-0.2,0-0.3,0.1c-0.1,0-0.2,0.1-0.2,0.2c-0.1,0.1-0.1,0.2-0.1,0.3c0,0.2,0.1,0.3,0.2,0.4c0.1,0.1,0.3,0.2,0.5,0.2
	s0.4,0.1,0.6,0.2c0.2,0,0.5,0.1,0.7,0.2c0.3,0.1,0.5,0.1,0.8,0.2c0.2,0.1,0.5,0.2,0.7,0.3c0.2,0.1,0.3,0.3,0.5,0.5
	c0.1,0.2,0.2,0.5,0.2,0.8c0,0.4-0.1,0.8-0.3,1.1c-0.2,0.3-0.4,0.5-0.7,0.7c-0.3,0.2-0.6,0.3-0.9,0.4c-0.4,0.1-0.7,0.1-1.1,0.1
	c-0.4,0-0.7,0-1.1-0.1c-0.4-0.1-0.7-0.2-1-0.4c-0.3-0.2-0.5-0.4-0.7-0.7c-0.2-0.3-0.3-0.6-0.3-1.1h1.7
	C228.8,29,228.8,29.2,228.9,29.3z M237.6,24.5v1.2h-1.3v3.2c0,0.3,0.1,0.5,0.1,0.6c0.1,0.1,0.3,0.1,0.6,0.1c0.1,0,0.2,0,0.3,0
	c0.1,0,0.2,0,0.3,0v1.4c-0.2,0-0.3,0-0.5,0c-0.2,0-0.4,0-0.5,0c-0.3,0-0.5,0-0.8-0.1c-0.2,0-0.5-0.1-0.6-0.2
	c-0.2-0.1-0.3-0.3-0.4-0.5c-0.1-0.2-0.2-0.5-0.2-0.8v-3.8h-1.1v-1.2h1.1v-1.9h1.8v1.9H237.6z M243.5,29.3c0.1,0.1,0.2,0.2,0.3,0.3
	c0.1,0.1,0.3,0.2,0.4,0.2c0.2,0,0.3,0.1,0.5,0.1c0.1,0,0.3,0,0.4,0c0.1,0,0.3-0.1,0.4-0.1c0.1-0.1,0.2-0.1,0.3-0.2
	c0.1-0.1,0.1-0.2,0.1-0.4c0-0.3-0.2-0.5-0.5-0.6c-0.4-0.1-0.8-0.3-1.5-0.4c-0.3-0.1-0.5-0.1-0.8-0.2c-0.2-0.1-0.5-0.2-0.7-0.3
	c-0.2-0.1-0.3-0.3-0.5-0.5c-0.1-0.2-0.2-0.4-0.2-0.7c0-0.4,0.1-0.8,0.2-1c0.2-0.3,0.4-0.5,0.6-0.6c0.3-0.2,0.6-0.3,0.9-0.3
	c0.3-0.1,0.7-0.1,1-0.1c0.4,0,0.7,0,1,0.1c0.3,0.1,0.6,0.2,0.9,0.3c0.3,0.2,0.5,0.4,0.6,0.6c0.2,0.3,0.3,0.6,0.3,1h-1.7
	c0-0.3-0.2-0.6-0.4-0.7c-0.2-0.1-0.5-0.2-0.8-0.2c-0.1,0-0.2,0-0.3,0c-0.1,0-0.2,0-0.3,0.1c-0.1,0-0.2,0.1-0.2,0.2
	c-0.1,0.1-0.1,0.2-0.1,0.3c0,0.2,0.1,0.3,0.2,0.4c0.1,0.1,0.3,0.2,0.5,0.2s0.4,0.1,0.6,0.2c0.2,0,0.5,0.1,0.7,0.2
	c0.3,0.1,0.5,0.1,0.8,0.2c0.2,0.1,0.5,0.2,0.7,0.3c0.2,0.1,0.3,0.3,0.5,0.5c0.1,0.2,0.2,0.5,0.2,0.8c0,0.4-0.1,0.8-0.3,1.1
	c-0.2,0.3-0.4,0.5-0.7,0.7c-0.3,0.2-0.6,0.3-0.9,0.4c-0.4,0.1-0.7,0.1-1.1,0.1c-0.4,0-0.7,0-1.1-0.1c-0.4-0.1-0.7-0.2-1-0.4
	c-0.3-0.2-0.5-0.4-0.7-0.7c-0.2-0.3-0.3-0.6-0.3-1.1h1.7C243.3,29,243.4,29.2,243.5,29.3z M252.2,24.5v1.2h-1.3v3.2
	c0,0.3,0.1,0.5,0.1,0.6c0.1,0.1,0.3,0.1,0.6,0.1c0.1,0,0.2,0,0.3,0c0.1,0,0.2,0,0.3,0v1.4c-0.2,0-0.3,0-0.5,0c-0.2,0-0.4,0-0.5,0
	c-0.3,0-0.5,0-0.8-0.1c-0.2,0-0.5-0.1-0.6-0.2c-0.2-0.1-0.3-0.3-0.4-0.5c-0.1-0.2-0.2-0.5-0.2-0.8v-3.8h-1.1v-1.2h1.1v-1.9h1.8v1.9
	H252.2z M255,29.4c0.3,0.3,0.7,0.4,1.2,0.4c0.4,0,0.7-0.1,0.9-0.3c0.3-0.2,0.4-0.4,0.5-0.6h1.6c-0.2,0.8-0.6,1.3-1.1,1.7
	c-0.5,0.3-1.1,0.5-1.9,0.5c-0.5,0-1-0.1-1.4-0.2c-0.4-0.2-0.8-0.4-1-0.7c-0.3-0.3-0.5-0.7-0.7-1.1c-0.2-0.4-0.2-0.9-0.2-1.4
	c0-0.5,0.1-0.9,0.2-1.4c0.2-0.4,0.4-0.8,0.7-1.1c0.3-0.3,0.6-0.5,1-0.7c0.4-0.2,0.9-0.3,1.3-0.3c0.5,0,1,0.1,1.4,0.3
	c0.4,0.2,0.7,0.5,1,0.9c0.3,0.4,0.5,0.8,0.6,1.2c0.1,0.5,0.2,0.9,0.1,1.4h-4.7C254.6,28.7,254.7,29.1,255,29.4z M257,26
	c-0.2-0.2-0.5-0.3-1-0.3c-0.3,0-0.5,0-0.7,0.1c-0.2,0.1-0.3,0.2-0.4,0.4c-0.1,0.1-0.2,0.3-0.2,0.4c0,0.2-0.1,0.3-0.1,0.4h2.9
	C257.4,26.6,257.2,26.2,257,26z M261.9,24.5v0.8h0c0.2-0.3,0.5-0.6,0.8-0.8c0.3-0.2,0.7-0.2,1.1-0.2c0.5,0,0.9,0.1,1.3,0.3
	c0.4,0.2,0.7,0.4,0.9,0.8c0.2,0.3,0.4,0.7,0.5,1.1c0.1,0.4,0.2,0.9,0.2,1.3c0,0.4-0.1,0.9-0.2,1.2c-0.1,0.4-0.3,0.8-0.5,1.1
	c-0.2,0.3-0.5,0.6-0.9,0.7c-0.4,0.2-0.8,0.3-1.2,0.3c-0.4,0-0.8-0.1-1.1-0.2c-0.3-0.2-0.6-0.4-0.8-0.7h0v3.1h-1.8v-8.7H261.9z
	 M264.3,29.6c0.2-0.1,0.4-0.3,0.5-0.5c0.1-0.2,0.2-0.4,0.3-0.7c0.1-0.2,0.1-0.5,0.1-0.8c0-0.3,0-0.5-0.1-0.8
	c-0.1-0.2-0.1-0.5-0.3-0.7c-0.1-0.2-0.3-0.4-0.5-0.5c-0.2-0.1-0.4-0.2-0.7-0.2c-0.3,0-0.5,0.1-0.7,0.2c-0.2,0.1-0.4,0.3-0.5,0.5
	c-0.1,0.2-0.2,0.4-0.3,0.7c0,0.2-0.1,0.5-0.1,0.8c0,0.3,0,0.5,0.1,0.8c0.1,0.2,0.1,0.5,0.3,0.7c0.1,0.2,0.3,0.3,0.5,0.5
	c0.2,0.1,0.4,0.2,0.7,0.2C263.8,29.8,264.1,29.7,264.3,29.6z M269.9,29v1.9h-2V29H269.9z"/>
</svg>
