<?xml version="1.0" encoding="utf-8"?>
<!-- Generator: Adobe Illustrator 25.4.1, SVG Export Plug-In . SVG Version: 6.00 Build 0)  -->
<svg version="1.1" id="Layer_1" xmlns="http://www.w3.org/2000/svg" xmlns:xlink="http://www.w3.org/1999/xlink" x="0px" y="0px"
	 viewBox="0 0 320 50" style="enable-background:new 0 0 320 50;" xml:space="preserve">
<style type="text/css">
	.st0{fill:#339933;}
</style>
<g>
	<path class="st0" d="M21.5,10.7c0.8,0,1.4,0.1,1.9,0.3c0.5,0.2,1,0.5,1.3,0.9c0.3,0.4,0.6,0.8,0.7,1.2c0.2,0.5,0.2,1,0.2,1.5
		c0,0.5-0.1,1-0.2,1.4c-0.2,0.5-0.4,0.9-0.7,1.3c-0.3,0.4-0.8,0.7-1.3,0.9c-0.5,0.2-1.2,0.3-1.9,0.3h-2.8v4.4H16V10.7H21.5z
		 M20.7,16.5c0.3,0,0.6,0,0.9-0.1c0.3,0,0.5-0.1,0.8-0.3c0.2-0.1,0.4-0.3,0.5-0.6c0.1-0.2,0.2-0.6,0.2-0.9c0-0.4-0.1-0.7-0.2-0.9
		c-0.1-0.2-0.3-0.4-0.5-0.6c-0.2-0.1-0.5-0.2-0.8-0.3c-0.3,0-0.6-0.1-0.9-0.1h-2.1v3.7H20.7z"/>
	<path class="st0" d="M29.4,14.1v1.6h0c0.1-0.3,0.3-0.5,0.5-0.8c0.2-0.2,0.4-0.4,0.7-0.6c0.3-0.2,0.5-0.3,0.8-0.4
		c0.3-0.1,0.6-0.1,0.9-0.1c0.2,0,0.3,0,0.5,0.1v2.3c-0.1,0-0.3,0-0.4-0.1c-0.2,0-0.3,0-0.5,0c-0.4,0-0.8,0.1-1.1,0.2
		c-0.3,0.1-0.6,0.4-0.7,0.6c-0.2,0.3-0.3,0.6-0.4,0.9c-0.1,0.3-0.1,0.7-0.1,1.1v4h-2.4v-8.8H29.4z"/>
	<path class="st0" d="M33.7,16.8c0-0.6,0.2-1,0.4-1.4c0.3-0.4,0.6-0.7,1-0.9c0.4-0.2,0.8-0.4,1.3-0.5c0.5-0.1,1-0.1,1.5-0.1
		c0.4,0,0.9,0,1.4,0.1s0.9,0.2,1.2,0.4c0.4,0.2,0.7,0.4,0.9,0.8c0.2,0.3,0.4,0.8,0.4,1.3V21c0,0.4,0,0.8,0.1,1.1
		c0,0.4,0.1,0.6,0.2,0.8h-2.5c0-0.1-0.1-0.3-0.1-0.4s0-0.3-0.1-0.4c-0.4,0.4-0.8,0.7-1.4,0.8s-1.1,0.2-1.6,0.2
		c-0.4,0-0.8-0.1-1.2-0.2s-0.7-0.3-1-0.5c-0.3-0.2-0.5-0.5-0.6-0.8s-0.2-0.7-0.2-1.2c0-0.5,0.1-0.9,0.3-1.2s0.4-0.6,0.7-0.8
		c0.3-0.2,0.6-0.3,1-0.4c0.4-0.1,0.7-0.2,1.1-0.2s0.7-0.1,1.1-0.1s0.7-0.1,0.9-0.2c0.3-0.1,0.5-0.2,0.6-0.3c0.2-0.1,0.2-0.3,0.2-0.6
		c0-0.3,0-0.5-0.1-0.6c-0.1-0.2-0.2-0.3-0.3-0.4s-0.3-0.1-0.5-0.2c-0.2,0-0.4,0-0.6,0c-0.5,0-0.9,0.1-1.1,0.3
		c-0.3,0.2-0.4,0.5-0.5,1H33.7z M39.3,18.6c-0.1,0.1-0.2,0.2-0.4,0.2s-0.3,0.1-0.5,0.1S38,19,37.8,19c-0.2,0-0.4,0.1-0.6,0.1
		c-0.2,0-0.4,0.1-0.5,0.1s-0.3,0.1-0.5,0.2c-0.1,0.1-0.2,0.2-0.3,0.4c-0.1,0.1-0.1,0.3-0.1,0.6c0,0.2,0,0.4,0.1,0.5
		c0.1,0.1,0.2,0.3,0.3,0.4c0.1,0.1,0.3,0.1,0.5,0.2c0.2,0,0.4,0.1,0.6,0.1c0.5,0,0.8-0.1,1.1-0.2c0.3-0.2,0.5-0.4,0.6-0.6
		c0.1-0.2,0.2-0.4,0.2-0.7c0-0.2,0-0.4,0-0.5V18.6z"/>
	<path class="st0" d="M47.8,15.7c-0.4,0-0.7,0.1-1,0.3s-0.5,0.4-0.6,0.7c-0.2,0.3-0.3,0.6-0.4,0.9s-0.1,0.7-0.1,1c0,0.3,0,0.6,0.1,1
		c0.1,0.3,0.2,0.6,0.3,0.9c0.2,0.3,0.4,0.5,0.6,0.7c0.3,0.2,0.6,0.3,1,0.3c0.6,0,1-0.2,1.3-0.5c0.3-0.3,0.5-0.8,0.6-1.3H52
		c-0.2,1.2-0.6,2.1-1.4,2.7s-1.7,0.9-2.9,0.9c-0.7,0-1.3-0.1-1.8-0.3c-0.6-0.2-1-0.5-1.4-0.9c-0.4-0.4-0.7-0.9-0.9-1.4
		c-0.2-0.6-0.3-1.2-0.3-1.8c0-0.7,0.1-1.3,0.3-1.9c0.2-0.6,0.5-1.1,0.9-1.5s0.9-0.8,1.4-1c0.6-0.2,1.2-0.4,1.9-0.4
		c0.5,0,1,0.1,1.5,0.2c0.5,0.1,0.9,0.3,1.3,0.6c0.4,0.3,0.7,0.6,0.9,1c0.2,0.4,0.4,0.9,0.4,1.5h-2.4C49.4,16.2,48.8,15.7,47.8,15.7z
		"/>
	<path class="st0" d="M58.3,14.1v1.6h-1.8v4.4c0,0.4,0.1,0.7,0.2,0.8c0.1,0.1,0.4,0.2,0.8,0.2c0.1,0,0.3,0,0.4,0
		c0.1,0,0.2,0,0.4-0.1v1.9C58,23,57.8,23,57.6,23c-0.3,0-0.5,0-0.7,0c-0.4,0-0.7,0-1.1-0.1c-0.3-0.1-0.6-0.2-0.9-0.3
		c-0.3-0.1-0.5-0.4-0.6-0.6c-0.1-0.3-0.2-0.6-0.2-1.1v-5.2h-1.5v-1.6H54v-2.7h2.4v2.7H58.3z"/>
	<path class="st0" d="M59.5,12.7v-2h2.4v2H59.5z M61.9,14.1v8.8h-2.4v-8.8H61.9z"/>
	<path class="st0" d="M68.1,15.7c-0.4,0-0.7,0.1-1,0.3s-0.5,0.4-0.6,0.7c-0.2,0.3-0.3,0.6-0.4,0.9s-0.1,0.7-0.1,1c0,0.3,0,0.6,0.1,1
		c0.1,0.3,0.2,0.6,0.3,0.9c0.2,0.3,0.4,0.5,0.6,0.7c0.3,0.2,0.6,0.3,1,0.3c0.6,0,1-0.2,1.3-0.5c0.3-0.3,0.5-0.8,0.6-1.3h2.3
		c-0.2,1.2-0.6,2.1-1.4,2.7s-1.7,0.9-2.9,0.9c-0.7,0-1.3-0.1-1.8-0.3c-0.6-0.2-1-0.5-1.4-0.9c-0.4-0.4-0.7-0.9-0.9-1.4
		c-0.2-0.6-0.3-1.2-0.3-1.8c0-0.7,0.1-1.3,0.3-1.9c0.2-0.6,0.5-1.1,0.9-1.5s0.9-0.8,1.4-1c0.6-0.2,1.2-0.4,1.9-0.4
		c0.5,0,1,0.1,1.5,0.2c0.5,0.1,0.9,0.3,1.3,0.6c0.4,0.3,0.7,0.6,0.9,1c0.2,0.4,0.4,0.9,0.4,1.5h-2.4C69.7,16.2,69.1,15.7,68.1,15.7z
		"/>
	<path class="st0" d="M73.5,16.8c0-0.6,0.2-1,0.4-1.4c0.3-0.4,0.6-0.7,1-0.9c0.4-0.2,0.8-0.4,1.3-0.5c0.5-0.1,1-0.1,1.5-0.1
		c0.4,0,0.9,0,1.4,0.1s0.9,0.2,1.2,0.4c0.4,0.2,0.7,0.4,0.9,0.8c0.2,0.3,0.4,0.8,0.4,1.3V21c0,0.4,0,0.8,0.1,1.1
		c0,0.4,0.1,0.6,0.2,0.8h-2.5c0-0.1-0.1-0.3-0.1-0.4s0-0.3-0.1-0.4c-0.4,0.4-0.8,0.7-1.4,0.8s-1.1,0.2-1.6,0.2
		c-0.4,0-0.8-0.1-1.2-0.2s-0.7-0.3-1-0.5c-0.3-0.2-0.5-0.5-0.6-0.8s-0.2-0.7-0.2-1.2c0-0.5,0.1-0.9,0.3-1.2s0.4-0.6,0.7-0.8
		c0.3-0.2,0.6-0.3,1-0.4c0.4-0.1,0.7-0.2,1.1-0.2s0.7-0.1,1.1-0.1s0.7-0.1,0.9-0.2c0.3-0.1,0.5-0.2,0.6-0.3c0.2-0.1,0.2-0.3,0.2-0.6
		c0-0.3,0-0.5-0.1-0.6c-0.1-0.2-0.2-0.3-0.3-0.4s-0.3-0.1-0.5-0.2c-0.2,0-0.4,0-0.6,0c-0.5,0-0.9,0.1-1.1,0.3
		c-0.3,0.2-0.4,0.5-0.5,1H73.5z M79.2,18.6c-0.1,0.1-0.2,0.2-0.4,0.2s-0.3,0.1-0.5,0.1S77.9,19,77.7,19c-0.2,0-0.4,0.1-0.6,0.1
		c-0.2,0-0.4,0.1-0.5,0.1s-0.3,0.1-0.5,0.2c-0.1,0.1-0.2,0.2-0.3,0.4c-0.1,0.1-0.1,0.3-0.1,0.6c0,0.2,0,0.4,0.1,0.5
		c0.1,0.1,0.2,0.3,0.3,0.4c0.1,0.1,0.3,0.1,0.5,0.2c0.2,0,0.4,0.1,0.6,0.1c0.5,0,0.8-0.1,1.1-0.2c0.3-0.2,0.5-0.4,0.6-0.6
		c0.1-0.2,0.2-0.4,0.2-0.7c0-0.2,0-0.4,0-0.5V18.6z"/>
	<path class="st0" d="M86,10.7v12.2h-2.4V10.7H86z"/>
	<path class="st0" d="M101.9,22.9l-2.1-8.3h0l-2,8.3H95l-3.2-12.2h2.7l1.9,8.3h0l2.1-8.3h2.5l2.1,8.4h0l2-8.4h2.6l-3.3,12.2H101.9z"
		/>
	<path class="st0" d="M108.8,12.7v-2h2.4v2H108.8z M111.3,14.1v8.8h-2.4v-8.8H111.3z"/>
	<path class="st0" d="M115.2,20.7c0.1,0.2,0.2,0.3,0.4,0.5c0.2,0.1,0.4,0.2,0.6,0.3c0.2,0.1,0.5,0.1,0.7,0.1c0.2,0,0.4,0,0.5-0.1
		c0.2,0,0.4-0.1,0.5-0.2c0.2-0.1,0.3-0.2,0.4-0.3s0.2-0.3,0.2-0.5c0-0.4-0.2-0.6-0.7-0.8c-0.5-0.2-1.2-0.4-2-0.5
		c-0.4-0.1-0.7-0.2-1-0.3c-0.3-0.1-0.6-0.3-0.9-0.4c-0.3-0.2-0.5-0.4-0.6-0.7c-0.2-0.3-0.2-0.6-0.2-1c0-0.6,0.1-1,0.3-1.4
		c0.2-0.4,0.5-0.7,0.9-0.9c0.4-0.2,0.8-0.4,1.2-0.4c0.5-0.1,0.9-0.1,1.4-0.1s0.9,0,1.4,0.1c0.5,0.1,0.9,0.2,1.2,0.5
		c0.4,0.2,0.6,0.5,0.9,0.9c0.2,0.4,0.4,0.8,0.4,1.4h-2.3c0-0.5-0.2-0.8-0.5-0.9c-0.3-0.2-0.7-0.2-1.1-0.2c-0.1,0-0.3,0-0.4,0
		s-0.3,0.1-0.4,0.1c-0.1,0.1-0.2,0.1-0.3,0.2c-0.1,0.1-0.1,0.3-0.1,0.4c0,0.2,0.1,0.4,0.2,0.5s0.4,0.2,0.6,0.3
		c0.3,0.1,0.5,0.2,0.9,0.2c0.3,0.1,0.7,0.1,1,0.2c0.4,0.1,0.7,0.2,1,0.3c0.3,0.1,0.6,0.3,0.9,0.5c0.3,0.2,0.5,0.4,0.6,0.7
		s0.2,0.6,0.2,1c0,0.6-0.1,1.1-0.4,1.5s-0.5,0.7-0.9,0.9c-0.4,0.2-0.8,0.4-1.3,0.5c-0.5,0.1-1,0.1-1.5,0.1c-0.5,0-1-0.1-1.5-0.2
		c-0.5-0.1-0.9-0.3-1.3-0.5c-0.4-0.2-0.7-0.6-0.9-0.9s-0.4-0.9-0.4-1.5h2.3C115.1,20.3,115.1,20.5,115.2,20.7z"/>
	<path class="st0" d="M128.7,21.8c-0.3,0.5-0.7,0.8-1.1,1s-1,0.3-1.6,0.3c-0.7,0-1.2-0.1-1.7-0.4c-0.5-0.3-0.9-0.6-1.2-1
		c-0.3-0.4-0.6-0.9-0.7-1.5c-0.2-0.6-0.2-1.2-0.2-1.8c0-0.6,0.1-1.2,0.2-1.7c0.2-0.6,0.4-1,0.7-1.5c0.3-0.4,0.7-0.8,1.2-1
		c0.5-0.3,1.1-0.4,1.7-0.4c0.5,0,1,0.1,1.5,0.3s0.8,0.6,1.1,1h0v-4.4h2.4v12.2h-2.3L128.7,21.8L128.7,21.8z M128.6,17.4
		c-0.1-0.3-0.2-0.6-0.4-0.9c-0.2-0.3-0.4-0.5-0.6-0.6c-0.3-0.2-0.6-0.2-1-0.2c-0.4,0-0.7,0.1-1,0.2c-0.3,0.2-0.5,0.4-0.7,0.6
		c-0.2,0.3-0.3,0.6-0.4,0.9s-0.1,0.7-0.1,1.1c0,0.3,0,0.7,0.1,1c0.1,0.3,0.2,0.6,0.4,0.9c0.2,0.3,0.4,0.5,0.7,0.6
		c0.3,0.2,0.6,0.2,1,0.2c0.4,0,0.7-0.1,1-0.2s0.5-0.4,0.6-0.6c0.2-0.3,0.3-0.6,0.3-0.9c0.1-0.3,0.1-0.7,0.1-1.1
		C128.7,18.1,128.6,17.8,128.6,17.4z"/>
	<path class="st0" d="M132.9,16.6c0.2-0.6,0.5-1.1,0.9-1.5c0.4-0.4,0.9-0.7,1.4-0.9c0.6-0.2,1.2-0.3,1.9-0.3c0.7,0,1.3,0.1,1.9,0.3
		s1,0.5,1.4,0.9c0.4,0.4,0.7,0.9,0.9,1.5c0.2,0.6,0.3,1.2,0.3,1.9s-0.1,1.3-0.3,1.9c-0.2,0.6-0.5,1.1-0.9,1.5
		c-0.4,0.4-0.9,0.7-1.4,0.9c-0.6,0.2-1.2,0.3-1.9,0.3c-0.7,0-1.3-0.1-1.9-0.3c-0.6-0.2-1-0.5-1.4-0.9c-0.4-0.4-0.7-0.9-0.9-1.5
		c-0.2-0.6-0.3-1.2-0.3-1.9S132.7,17.2,132.9,16.6z M135.1,19.5c0.1,0.3,0.2,0.6,0.4,0.9c0.2,0.3,0.4,0.5,0.7,0.6
		c0.3,0.2,0.6,0.2,1,0.2s0.8-0.1,1-0.2c0.3-0.2,0.5-0.4,0.7-0.6c0.2-0.3,0.3-0.6,0.4-0.9s0.1-0.7,0.1-1c0-0.4,0-0.7-0.1-1
		c-0.1-0.3-0.2-0.6-0.4-0.9c-0.2-0.3-0.4-0.5-0.7-0.6c-0.3-0.2-0.6-0.2-1-0.2s-0.8,0.1-1,0.2c-0.3,0.2-0.5,0.4-0.7,0.6
		c-0.2,0.3-0.3,0.6-0.4,0.9c-0.1,0.3-0.1,0.7-0.1,1C135,18.9,135,19.2,135.1,19.5z"/>
	<path class="st0" d="M145.6,14.1v1.2h0c0.3-0.5,0.7-0.8,1.2-1.1c0.5-0.3,1-0.4,1.5-0.4c0.6,0,1.1,0.1,1.5,0.3
		c0.5,0.2,0.8,0.6,1.1,1.1c0.3-0.4,0.6-0.7,1.1-1c0.5-0.3,1-0.4,1.6-0.4c0.5,0,0.9,0.1,1.3,0.2c0.4,0.1,0.7,0.3,1,0.5
		c0.3,0.3,0.5,0.6,0.7,1c0.2,0.4,0.2,0.9,0.2,1.5v5.9h-2.4v-5c0-0.3,0-0.6,0-0.8s-0.1-0.5-0.2-0.7c-0.1-0.2-0.3-0.3-0.5-0.5
		c-0.2-0.1-0.5-0.2-0.8-0.2c-0.3,0-0.6,0.1-0.8,0.2c-0.2,0.1-0.4,0.3-0.5,0.5s-0.2,0.5-0.2,0.7c0,0.3-0.1,0.5-0.1,0.8v4.9h-2.4v-5
		c0-0.3,0-0.5,0-0.8c0-0.3-0.1-0.5-0.1-0.7s-0.2-0.4-0.4-0.5c-0.2-0.1-0.5-0.2-0.9-0.2c-0.1,0-0.3,0-0.5,0.1
		c-0.2,0.1-0.4,0.1-0.5,0.3c-0.2,0.1-0.3,0.3-0.5,0.6s-0.2,0.6-0.2,1.1v5.1h-2.4v-8.8H145.6z"/>
</g>
<g>
	<path class="st0" d="M14.8,32.8v-1.6h1.5v-0.7c0-0.8,0.2-1.4,0.7-1.9c0.5-0.5,1.2-0.8,2.2-0.8c0.2,0,0.4,0,0.6,0c0.2,0,0.4,0,0.6,0
		v1.8c-0.3,0-0.6-0.1-0.9-0.1c-0.3,0-0.6,0.1-0.7,0.2c-0.1,0.2-0.2,0.4-0.2,0.8v0.5h1.7v1.6h-1.7V40h-2.4v-7.2H14.8z"/>
	<path class="st0" d="M21.4,33.7c0.2-0.6,0.5-1.1,0.9-1.5c0.4-0.4,0.9-0.7,1.4-0.9c0.6-0.2,1.2-0.3,1.9-0.3c0.7,0,1.3,0.1,1.9,0.3
		s1,0.5,1.4,0.9c0.4,0.4,0.7,0.9,0.9,1.5c0.2,0.6,0.3,1.2,0.3,1.9s-0.1,1.3-0.3,1.9c-0.2,0.6-0.5,1.1-0.9,1.5
		c-0.4,0.4-0.9,0.7-1.4,0.9s-1.2,0.3-1.9,0.3c-0.7,0-1.3-0.1-1.9-0.3c-0.6-0.2-1-0.5-1.4-0.9c-0.4-0.4-0.7-0.9-0.9-1.5
		c-0.2-0.6-0.3-1.2-0.3-1.9S21.2,34.3,21.4,33.7z M23.7,36.7c0.1,0.3,0.2,0.6,0.4,0.9c0.2,0.3,0.4,0.5,0.7,0.6
		c0.3,0.2,0.6,0.2,1,0.2s0.8-0.1,1-0.2c0.3-0.2,0.5-0.4,0.7-0.6c0.2-0.3,0.3-0.6,0.4-0.9c0.1-0.3,0.1-0.7,0.1-1s0-0.7-0.1-1
		c-0.1-0.3-0.2-0.6-0.4-0.9c-0.2-0.3-0.4-0.5-0.7-0.6c-0.3-0.2-0.6-0.2-1-0.2s-0.8,0.1-1,0.2c-0.3,0.2-0.5,0.4-0.7,0.6
		c-0.2,0.3-0.3,0.6-0.4,0.9c-0.1,0.3-0.1,0.7-0.1,1S23.6,36.3,23.7,36.7z"/>
	<path class="st0" d="M34.2,31.2v1.6h0c0.1-0.3,0.3-0.5,0.5-0.8c0.2-0.2,0.4-0.4,0.7-0.6c0.3-0.2,0.5-0.3,0.8-0.4
		c0.3-0.1,0.6-0.1,0.9-0.1c0.2,0,0.3,0,0.5,0.1v2.3c-0.1,0-0.3,0-0.4-0.1c-0.2,0-0.3,0-0.5,0c-0.4,0-0.8,0.1-1.1,0.2
		c-0.3,0.1-0.6,0.4-0.7,0.6c-0.2,0.3-0.3,0.6-0.4,0.9c-0.1,0.3-0.1,0.7-0.1,1.1v4h-2.4v-8.8H34.2z"/>
	<path class="st0" d="M48.8,27.8c0.8,0,1.5,0.1,2.2,0.4c0.7,0.3,1.3,0.6,1.8,1.1c0.5,0.5,0.9,1.1,1.2,1.9c0.3,0.8,0.4,1.6,0.4,2.7
		c0,0.9-0.1,1.7-0.3,2.5c-0.2,0.8-0.6,1.4-1,2c-0.5,0.5-1,1-1.7,1.3c-0.7,0.3-1.5,0.5-2.4,0.5h-5.3V27.8H48.8z M48.6,37.8
		c0.4,0,0.8-0.1,1.1-0.2c0.4-0.1,0.7-0.3,1-0.6c0.3-0.3,0.5-0.7,0.7-1.1c0.2-0.5,0.3-1,0.3-1.7c0-0.6-0.1-1.2-0.2-1.7
		c-0.1-0.5-0.3-0.9-0.6-1.3c-0.3-0.4-0.6-0.6-1.1-0.8c-0.5-0.2-1-0.3-1.7-0.3h-1.9v7.7H48.6z"/>
	<path class="st0" d="M58.5,37.9c0.4,0.4,0.9,0.5,1.6,0.5c0.5,0,0.9-0.1,1.3-0.4s0.6-0.5,0.6-0.8h2.1c-0.3,1.1-0.9,1.8-1.6,2.3
		S61,40.3,60,40.3c-0.7,0-1.3-0.1-1.9-0.3c-0.6-0.2-1-0.5-1.4-0.9s-0.7-0.9-0.9-1.5s-0.3-1.2-0.3-1.9c0-0.7,0.1-1.3,0.3-1.8
		c0.2-0.6,0.5-1.1,0.9-1.5c0.4-0.4,0.9-0.7,1.4-1c0.6-0.2,1.2-0.4,1.8-0.4c0.8,0,1.4,0.1,2,0.4s1,0.7,1.4,1.2c0.4,0.5,0.6,1,0.8,1.7
		c0.2,0.6,0.2,1.3,0.2,2h-6.4C58,37,58.2,37.6,58.5,37.9z M61.3,33.3c-0.3-0.3-0.7-0.5-1.3-0.5c-0.4,0-0.7,0.1-1,0.2
		c-0.3,0.1-0.5,0.3-0.6,0.5c-0.2,0.2-0.3,0.4-0.3,0.6c-0.1,0.2-0.1,0.4-0.1,0.6h4C61.8,34,61.6,33.6,61.3,33.3z"/>
	<path class="st0" d="M68.1,31.2v1.2h0.1c0.3-0.5,0.7-0.9,1.2-1.1c0.5-0.2,1-0.4,1.5-0.4c0.6,0,1.2,0.1,1.6,0.3
		c0.4,0.2,0.7,0.4,1,0.7c0.2,0.3,0.4,0.7,0.5,1.1C74,33.5,74,34,74,34.6V40h-2.4v-5c0-0.7-0.1-1.3-0.3-1.6s-0.6-0.5-1.2-0.5
		c-0.7,0-1.1,0.2-1.4,0.6c-0.3,0.4-0.4,1-0.4,1.9V40h-2.4v-8.8H68.1z"/>
	<path class="st0" d="M80.7,31.2v1.6H79v4.4c0,0.4,0.1,0.7,0.2,0.8c0.1,0.1,0.4,0.2,0.8,0.2c0.1,0,0.3,0,0.4,0c0.1,0,0.2,0,0.4-0.1
		V40c-0.2,0-0.4,0.1-0.7,0.1c-0.3,0-0.5,0-0.7,0c-0.4,0-0.7,0-1.1-0.1c-0.3-0.1-0.6-0.2-0.9-0.3c-0.3-0.1-0.5-0.4-0.6-0.6
		c-0.1-0.3-0.2-0.6-0.2-1.1v-5.2h-1.5v-1.6h1.5v-2.7H79v2.7H80.7z"/>
	<path class="st0" d="M82,29.8v-2h2.4v2H82z M84.4,31.2V40H82v-8.8H84.4z"/>
	<path class="st0" d="M88.4,37.8c0.1,0.2,0.2,0.3,0.4,0.5c0.2,0.1,0.4,0.2,0.6,0.3c0.2,0.1,0.5,0.1,0.7,0.1c0.2,0,0.4,0,0.5-0.1
		c0.2,0,0.4-0.1,0.5-0.2c0.2-0.1,0.3-0.2,0.4-0.3s0.2-0.3,0.2-0.5c0-0.4-0.2-0.6-0.7-0.8c-0.5-0.2-1.2-0.4-2-0.5
		c-0.4-0.1-0.7-0.2-1-0.3c-0.3-0.1-0.6-0.3-0.9-0.4c-0.3-0.2-0.5-0.4-0.6-0.7c-0.2-0.3-0.2-0.6-0.2-1c0-0.6,0.1-1,0.3-1.4
		c0.2-0.4,0.5-0.7,0.9-0.9c0.4-0.2,0.8-0.4,1.2-0.4c0.5-0.1,0.9-0.1,1.4-0.1s0.9,0,1.4,0.1c0.5,0.1,0.9,0.2,1.2,0.5
		c0.4,0.2,0.6,0.5,0.9,0.9c0.2,0.4,0.4,0.8,0.4,1.4h-2.3c0-0.5-0.2-0.8-0.5-0.9c-0.3-0.2-0.7-0.2-1.1-0.2c-0.1,0-0.3,0-0.4,0
		c-0.2,0-0.3,0.1-0.4,0.1c-0.1,0.1-0.2,0.1-0.3,0.2c-0.1,0.1-0.1,0.3-0.1,0.4c0,0.2,0.1,0.4,0.2,0.5s0.4,0.2,0.6,0.3
		c0.3,0.1,0.5,0.2,0.9,0.2c0.3,0.1,0.7,0.1,1,0.2c0.4,0.1,0.7,0.2,1,0.3c0.3,0.1,0.6,0.3,0.9,0.5c0.3,0.2,0.5,0.4,0.6,0.7
		s0.2,0.6,0.2,1c0,0.6-0.1,1.1-0.4,1.5s-0.5,0.7-0.9,0.9S92,40,91.5,40.1s-1,0.1-1.5,0.1c-0.5,0-1-0.1-1.5-0.2
		c-0.5-0.1-0.9-0.3-1.3-0.5c-0.4-0.2-0.7-0.6-0.9-0.9c-0.2-0.4-0.4-0.9-0.4-1.5h2.3C88.2,37.4,88.3,37.6,88.4,37.8z"/>
	<path class="st0" d="M100.4,31.2v1.6h-1.8v4.4c0,0.4,0.1,0.7,0.2,0.8c0.1,0.1,0.4,0.2,0.8,0.2c0.1,0,0.3,0,0.4,0
		c0.1,0,0.2,0,0.4-0.1V40c-0.2,0-0.4,0.1-0.7,0.1c-0.3,0-0.5,0-0.7,0c-0.4,0-0.7,0-1.1-0.1c-0.3-0.1-0.6-0.2-0.9-0.3
		c-0.3-0.1-0.5-0.4-0.6-0.6c-0.1-0.3-0.2-0.6-0.2-1.1v-5.2h-1.5v-1.6h1.5v-2.7h2.4v2.7H100.4z"/>
	<path class="st0" d="M103.6,37.8c0.1,0.2,0.2,0.3,0.4,0.5c0.2,0.1,0.4,0.2,0.6,0.3c0.2,0.1,0.5,0.1,0.7,0.1c0.2,0,0.4,0,0.5-0.1
		c0.2,0,0.4-0.1,0.5-0.2c0.2-0.1,0.3-0.2,0.4-0.3s0.2-0.3,0.2-0.5c0-0.4-0.2-0.6-0.7-0.8c-0.5-0.2-1.2-0.4-2-0.5
		c-0.4-0.1-0.7-0.2-1-0.3c-0.3-0.1-0.6-0.3-0.9-0.4c-0.3-0.2-0.5-0.4-0.6-0.7c-0.2-0.3-0.2-0.6-0.2-1c0-0.6,0.1-1,0.3-1.4
		c0.2-0.4,0.5-0.7,0.9-0.9c0.4-0.2,0.8-0.4,1.2-0.4c0.5-0.1,0.9-0.1,1.4-0.1s0.9,0,1.4,0.1c0.5,0.1,0.9,0.2,1.2,0.5
		c0.4,0.2,0.6,0.5,0.9,0.9c0.2,0.4,0.4,0.8,0.4,1.4h-2.3c0-0.5-0.2-0.8-0.5-0.9c-0.3-0.2-0.7-0.2-1.1-0.2c-0.1,0-0.3,0-0.4,0
		c-0.2,0-0.3,0.1-0.4,0.1c-0.1,0.1-0.2,0.1-0.3,0.2c-0.1,0.1-0.1,0.3-0.1,0.4c0,0.2,0.1,0.4,0.2,0.5s0.4,0.2,0.6,0.3
		c0.3,0.1,0.5,0.2,0.9,0.2c0.3,0.1,0.7,0.1,1,0.2c0.4,0.1,0.7,0.2,1,0.3c0.3,0.1,0.6,0.3,0.9,0.5c0.3,0.2,0.5,0.4,0.6,0.7
		s0.2,0.6,0.2,1c0,0.6-0.1,1.1-0.4,1.5s-0.5,0.7-0.9,0.9s-0.8,0.4-1.3,0.5s-1,0.1-1.5,0.1c-0.5,0-1-0.1-1.5-0.2
		c-0.5-0.1-0.9-0.3-1.3-0.5c-0.4-0.2-0.7-0.6-0.9-0.9c-0.2-0.4-0.4-0.9-0.4-1.5h2.3C103.4,37.4,103.5,37.6,103.6,37.8z"/>
</g>
</svg>
