<?xml version="1.0" encoding="utf-8"?>
<!-- Generator: Adobe Illustrator 25.4.1, SVG Export Plug-In . SVG Version: 6.00 Build 0)  -->
<svg version="1.1" id="Layer_1" xmlns="http://www.w3.org/2000/svg" xmlns:xlink="http://www.w3.org/1999/xlink" x="0px" y="0px"
	 viewBox="0 0 320 50" style="enable-background:new 0 0 320 50;" xml:space="preserve">
<g>
	<path d="M21,10.5c0.4,0,0.8,0.1,1.1,0.2c0.3,0.1,0.6,0.3,0.8,0.5c0.2,0.2,0.4,0.5,0.5,0.8c0.1,0.3,0.2,0.6,0.2,1
		c0,0.5-0.1,1-0.3,1.4s-0.6,0.7-1.1,0.9v0c0.2,0.1,0.4,0.2,0.6,0.3c0.2,0.1,0.3,0.3,0.4,0.5c0.1,0.2,0.2,0.4,0.2,0.6
		s0.1,0.5,0.1,0.7c0,0.1,0,0.3,0,0.5c0,0.2,0,0.4,0,0.6c0,0.2,0.1,0.4,0.1,0.6s0.1,0.3,0.2,0.5h-2c-0.1-0.3-0.2-0.6-0.2-1
		c0-0.4-0.1-0.8-0.1-1.1c-0.1-0.5-0.2-0.8-0.4-1c-0.2-0.2-0.6-0.3-1.1-0.3h-2v3.5h-2v-8.9H21z M20.3,14.6c0.4,0,0.8-0.1,1-0.3
		c0.2-0.2,0.3-0.5,0.3-1c0-0.4-0.1-0.7-0.3-0.9c-0.2-0.2-0.6-0.3-1-0.3h-2.1v2.5H20.3z"/>
	<path d="M26.9,17.9c0.3,0.3,0.6,0.4,1.1,0.4c0.4,0,0.7-0.1,0.9-0.3s0.4-0.4,0.5-0.6H31c-0.2,0.8-0.6,1.3-1.1,1.7
		c-0.5,0.3-1.1,0.5-1.9,0.5c-0.5,0-1-0.1-1.4-0.2c-0.4-0.2-0.8-0.4-1-0.7c-0.3-0.3-0.5-0.7-0.7-1.1c-0.2-0.4-0.2-0.9-0.2-1.4
		c0-0.5,0.1-0.9,0.2-1.4c0.2-0.4,0.4-0.8,0.7-1.1s0.6-0.5,1-0.7c0.4-0.2,0.9-0.3,1.3-0.3c0.5,0,1,0.1,1.4,0.3c0.4,0.2,0.7,0.5,1,0.9
		c0.3,0.4,0.5,0.8,0.6,1.2c0.1,0.5,0.2,0.9,0.1,1.4h-4.7C26.5,17.2,26.6,17.7,26.9,17.9z M28.9,14.5c-0.2-0.2-0.5-0.3-1-0.3
		c-0.3,0-0.5,0-0.7,0.1s-0.3,0.2-0.5,0.4c-0.1,0.1-0.2,0.3-0.2,0.4c0,0.2-0.1,0.3-0.1,0.4h2.9C29.3,15.1,29.1,14.7,28.9,14.5z"/>
	<path d="M32.1,15c0-0.4,0.1-0.8,0.3-1c0.2-0.3,0.4-0.5,0.7-0.7c0.3-0.2,0.6-0.3,1-0.4c0.4-0.1,0.7-0.1,1.1-0.1c0.3,0,0.7,0,1,0.1
		c0.3,0,0.6,0.1,0.9,0.3s0.5,0.3,0.7,0.6c0.2,0.2,0.3,0.6,0.3,0.9V18c0,0.3,0,0.6,0,0.8c0,0.3,0.1,0.5,0.2,0.6h-1.8
		c0-0.1-0.1-0.2-0.1-0.3c0-0.1,0-0.2,0-0.3c-0.3,0.3-0.6,0.5-1,0.6c-0.4,0.1-0.8,0.2-1.2,0.2c-0.3,0-0.6,0-0.9-0.1
		c-0.3-0.1-0.5-0.2-0.7-0.3c-0.2-0.2-0.4-0.4-0.5-0.6c-0.1-0.2-0.2-0.5-0.2-0.9c0-0.4,0.1-0.7,0.2-0.9c0.1-0.2,0.3-0.4,0.5-0.6
		s0.4-0.2,0.7-0.3c0.3-0.1,0.5-0.1,0.8-0.2c0.3,0,0.5-0.1,0.8-0.1c0.3,0,0.5-0.1,0.7-0.1s0.4-0.1,0.5-0.2s0.2-0.2,0.2-0.4
		c0-0.2,0-0.3-0.1-0.5s-0.1-0.2-0.2-0.3c-0.1-0.1-0.2-0.1-0.4-0.1c-0.1,0-0.3,0-0.4,0c-0.3,0-0.6,0.1-0.8,0.2
		c-0.2,0.1-0.3,0.4-0.4,0.8H32.1z M36.2,16.3c-0.1,0.1-0.2,0.1-0.3,0.2c-0.1,0-0.2,0.1-0.4,0.1s-0.3,0-0.4,0.1c-0.1,0-0.3,0-0.4,0.1
		c-0.1,0-0.3,0.1-0.4,0.1c-0.1,0-0.2,0.1-0.3,0.2s-0.2,0.2-0.2,0.3c-0.1,0.1-0.1,0.2-0.1,0.4c0,0.2,0,0.3,0.1,0.4
		c0.1,0.1,0.1,0.2,0.2,0.3s0.2,0.1,0.4,0.1c0.1,0,0.3,0,0.4,0c0.3,0,0.6-0.1,0.8-0.2c0.2-0.1,0.3-0.3,0.4-0.4
		c0.1-0.2,0.1-0.3,0.2-0.5c0-0.2,0-0.3,0-0.4V16.3z"/>
	<path d="M43.9,18.6c-0.2,0.4-0.5,0.6-0.8,0.8c-0.3,0.2-0.7,0.2-1.1,0.2c-0.5,0-0.9-0.1-1.3-0.3s-0.7-0.4-0.9-0.8
		c-0.2-0.3-0.4-0.7-0.5-1.1c-0.1-0.4-0.2-0.9-0.2-1.3c0-0.4,0.1-0.9,0.2-1.3c0.1-0.4,0.3-0.8,0.5-1.1c0.2-0.3,0.5-0.6,0.9-0.7
		c0.4-0.2,0.8-0.3,1.2-0.3c0.4,0,0.7,0.1,1.1,0.2c0.3,0.2,0.6,0.4,0.8,0.7h0v-3.2h1.8v8.9H44L43.9,18.6L43.9,18.6z M43.9,15.4
		c0-0.2-0.1-0.5-0.3-0.7s-0.3-0.3-0.5-0.5s-0.4-0.2-0.7-0.2c-0.3,0-0.5,0.1-0.7,0.2s-0.4,0.3-0.5,0.5c-0.1,0.2-0.2,0.4-0.3,0.7
		c-0.1,0.2-0.1,0.5-0.1,0.8c0,0.2,0,0.5,0.1,0.8c0.1,0.2,0.2,0.5,0.3,0.7c0.1,0.2,0.3,0.4,0.5,0.5c0.2,0.1,0.4,0.2,0.7,0.2
		c0.3,0,0.5-0.1,0.7-0.2s0.4-0.3,0.5-0.5s0.2-0.4,0.2-0.7s0.1-0.5,0.1-0.8S43.9,15.7,43.9,15.4z"/>
	<path d="M47.1,15v-1.9h2V15H47.1z M49,17.5v1.9h-2v-1.9H49z"/>
</g>
<g>
	<path d="M53.9,12.2l0.4-1.6h7.5l-0.4,1.6h-2.7l-1.5,7.3h-2l1.5-7.3H53.9z"/>
	<path d="M64.4,10.5l-0.7,3.2h0c0.1-0.1,0.2-0.2,0.3-0.3c0.1-0.1,0.3-0.2,0.4-0.3c0.2-0.1,0.4-0.2,0.6-0.2c0.2-0.1,0.5-0.1,0.8-0.1
		c1.3,0,1.9,0.6,1.9,1.7c0,0.1,0,0.2,0,0.3c0,0.1,0,0.2-0.1,0.3c0,0.1,0,0.2-0.1,0.3c0,0.1,0,0.2,0,0.2l-0.8,3.8H65l0.8-3.8
		c0-0.1,0-0.2,0.1-0.4c0-0.2,0-0.3,0-0.4c0-0.2-0.1-0.3-0.3-0.5s-0.4-0.2-0.6-0.2c-0.3,0-0.5,0.1-0.7,0.2c-0.2,0.1-0.4,0.2-0.5,0.4
		c-0.1,0.2-0.3,0.4-0.4,0.6c-0.1,0.2-0.2,0.4-0.2,0.7l-0.7,3.4h-1.8l1.9-8.9H64.4z"/>
	<path d="M70.4,16.8c0,0,0,0.1,0,0.1V17c0,0.4,0.1,0.7,0.3,0.9c0.2,0.2,0.6,0.4,1.1,0.4c0.2,0,0.3,0,0.5-0.1s0.3-0.1,0.4-0.2
		c0.1-0.1,0.2-0.2,0.3-0.3c0.1-0.1,0.2-0.2,0.2-0.3h1.8c-0.1,0.4-0.3,0.7-0.5,1c-0.2,0.3-0.4,0.5-0.7,0.7c-0.3,0.2-0.6,0.3-0.9,0.4
		c-0.4,0.1-0.8,0.1-1.2,0.1c-0.4,0-0.8-0.1-1.2-0.2c-0.4-0.1-0.7-0.3-0.9-0.5c-0.2-0.2-0.4-0.5-0.6-0.9c-0.1-0.4-0.2-0.8-0.2-1.2
		c0-0.5,0.1-1,0.2-1.5c0.2-0.5,0.4-0.9,0.7-1.3c0.3-0.4,0.7-0.7,1.1-0.9c0.4-0.2,0.9-0.3,1.5-0.3c0.5,0,0.9,0.1,1.2,0.2
		c0.4,0.1,0.7,0.3,0.9,0.5c0.3,0.2,0.5,0.5,0.6,0.9c0.1,0.4,0.2,0.8,0.2,1.2c0,0.3,0,0.7-0.1,1h-4.8C70.4,16.7,70.4,16.7,70.4,16.8z
		 M73.5,15c0-0.2-0.1-0.3-0.2-0.4s-0.2-0.2-0.4-0.3c-0.2-0.1-0.4-0.1-0.6-0.1c-0.2,0-0.5,0-0.7,0.1c-0.2,0.1-0.4,0.2-0.5,0.3
		s-0.3,0.3-0.4,0.4c-0.1,0.2-0.2,0.3-0.2,0.5h3C73.5,15.4,73.5,15.2,73.5,15z"/>
	<path d="M78.6,13l-0.3,1.2l0,0c0.2-0.5,0.5-0.8,0.9-1c0.4-0.2,0.8-0.3,1.3-0.3c0.2,0,0.4,0,0.5,0l-0.4,1.7c-0.1,0-0.2,0-0.4-0.1
		c-0.1,0-0.2,0-0.4,0c-0.3,0-0.6,0.1-0.9,0.2c-0.2,0.1-0.4,0.3-0.6,0.5c-0.2,0.2-0.3,0.4-0.4,0.7c-0.1,0.3-0.2,0.5-0.2,0.8l-0.6,2.9
		h-1.8l1.3-6.5H78.6z"/>
	<path d="M82.2,16.8c0,0,0,0.1,0,0.1V17c0,0.4,0.1,0.7,0.3,0.9c0.2,0.2,0.6,0.4,1.1,0.4c0.2,0,0.3,0,0.5-0.1s0.3-0.1,0.4-0.2
		c0.1-0.1,0.2-0.2,0.3-0.3c0.1-0.1,0.2-0.2,0.2-0.3h1.8c-0.1,0.4-0.3,0.7-0.5,1c-0.2,0.3-0.4,0.5-0.7,0.7c-0.3,0.2-0.6,0.3-0.9,0.4
		c-0.4,0.1-0.8,0.1-1.2,0.1c-0.4,0-0.8-0.1-1.2-0.2c-0.4-0.1-0.7-0.3-0.9-0.5c-0.2-0.2-0.4-0.5-0.6-0.9c-0.1-0.4-0.2-0.8-0.2-1.2
		c0-0.5,0.1-1,0.2-1.5c0.2-0.5,0.4-0.9,0.7-1.3c0.3-0.4,0.7-0.7,1.1-0.9c0.4-0.2,0.9-0.3,1.5-0.3c0.5,0,0.9,0.1,1.2,0.2
		c0.4,0.1,0.7,0.3,0.9,0.5c0.3,0.2,0.5,0.5,0.6,0.9c0.1,0.4,0.2,0.8,0.2,1.2c0,0.3,0,0.7-0.1,1h-4.8C82.2,16.7,82.2,16.7,82.2,16.8z
		 M85.3,15c0-0.2-0.1-0.3-0.2-0.4s-0.2-0.2-0.4-0.3c-0.2-0.1-0.4-0.1-0.6-0.1c-0.2,0-0.5,0-0.7,0.1c-0.2,0.1-0.4,0.2-0.5,0.3
		s-0.3,0.3-0.4,0.4c-0.1,0.2-0.2,0.3-0.2,0.5h3C85.4,15.4,85.3,15.2,85.3,15z"/>
	<path d="M91.3,10.5l-0.4,1.9c-0.1,0.3-0.1,0.5-0.2,0.8c-0.1,0.2-0.3,0.5-0.4,0.6c-0.2,0.2-0.4,0.3-0.7,0.4c-0.3,0.1-0.6,0.2-1,0.2
		l0.2-0.9c0.4-0.1,0.6-0.2,0.8-0.4c0.2-0.2,0.3-0.5,0.3-0.8h-0.9l0.4-1.9H91.3z"/>
	<path d="M94.3,14.2c-0.2-0.2-0.4-0.2-0.8-0.2c-0.3,0-0.6,0-0.8,0.1s-0.3,0.3-0.3,0.5c0,0.1,0.1,0.3,0.2,0.4
		c0.1,0.1,0.3,0.2,0.6,0.3l0.9,0.3c0.2,0.1,0.5,0.2,0.7,0.3c0.2,0.1,0.4,0.2,0.5,0.4s0.3,0.3,0.4,0.5c0.1,0.2,0.1,0.4,0.1,0.7
		c0,0.4-0.1,0.7-0.3,1c-0.2,0.3-0.4,0.5-0.7,0.7c-0.3,0.2-0.6,0.3-1,0.4c-0.4,0.1-0.7,0.1-1.1,0.1c-0.3,0-0.6,0-1-0.1
		c-0.3-0.1-0.6-0.2-0.9-0.3c-0.3-0.2-0.5-0.4-0.6-0.6c-0.2-0.3-0.2-0.6-0.2-1v-0.3h1.6v0.2c0,0.2,0,0.3,0.1,0.4
		c0.1,0.1,0.2,0.2,0.3,0.3c0.1,0.1,0.3,0.1,0.4,0.2c0.2,0,0.3,0.1,0.5,0.1c0.1,0,0.3,0,0.4,0c0.1,0,0.3-0.1,0.4-0.1
		c0.1-0.1,0.2-0.1,0.3-0.2c0.1-0.1,0.1-0.2,0.1-0.4c0-0.2-0.1-0.4-0.2-0.5c-0.1-0.1-0.3-0.2-0.5-0.2L92,16.5
		c-0.2-0.1-0.4-0.2-0.6-0.2c-0.2-0.1-0.3-0.2-0.4-0.3c-0.1-0.1-0.2-0.3-0.3-0.5s-0.1-0.4-0.1-0.6c0-0.4,0.1-0.7,0.3-1
		s0.4-0.5,0.7-0.6s0.6-0.3,0.9-0.4s0.7-0.1,1-0.1c0.4,0,0.7,0,1,0.1c0.3,0.1,0.6,0.2,0.9,0.3c0.2,0.2,0.4,0.4,0.6,0.6
		c0.1,0.3,0.2,0.6,0.2,1h-1.6C94.5,14.6,94.4,14.4,94.3,14.2z"/>
	<path d="M103.9,10.5l2.4,6.3h0l1.3-6.3h1.8l-1.9,8.9h-2l-2.5-6.3h0l-1.3,6.3H100l1.9-8.9H103.9z"/>
	<path d="M109.7,15.3c0.2-0.5,0.4-0.9,0.7-1.3c0.3-0.4,0.7-0.7,1.2-0.9c0.5-0.2,1-0.3,1.5-0.3c0.4,0,0.8,0.1,1.2,0.2s0.7,0.3,1,0.5
		c0.3,0.2,0.5,0.5,0.6,0.9c0.1,0.3,0.2,0.7,0.2,1.2c0,0.6-0.1,1.1-0.3,1.6s-0.4,0.9-0.7,1.3c-0.3,0.4-0.7,0.7-1.2,0.9
		c-0.5,0.2-1,0.3-1.6,0.3c-0.9,0-1.6-0.2-2.2-0.7s-0.8-1.2-0.8-2.1C109.4,16.3,109.5,15.8,109.7,15.3z M111.3,17.4
		c0.1,0.2,0.1,0.3,0.2,0.5c0.1,0.1,0.2,0.2,0.4,0.3s0.3,0.1,0.5,0.1c0.3,0,0.6-0.1,0.9-0.3s0.4-0.4,0.6-0.7c0.2-0.3,0.3-0.6,0.3-0.9
		c0.1-0.3,0.1-0.6,0.1-0.9c0-0.4-0.1-0.8-0.3-1s-0.5-0.4-1-0.4c-0.3,0-0.6,0.1-0.8,0.3c-0.2,0.2-0.4,0.4-0.6,0.7s-0.3,0.6-0.3,0.9
		c-0.1,0.3-0.1,0.6-0.1,0.9C111.2,17,111.2,17.2,111.3,17.4z"/>
	<path d="M125.8,10.5c0.4,0,0.9,0,1.2,0.1c0.4,0.1,0.7,0.2,0.9,0.3s0.4,0.4,0.6,0.6c0.1,0.3,0.2,0.6,0.2,1c0,0.2,0,0.5-0.1,0.7
		c-0.1,0.2-0.2,0.5-0.3,0.6c-0.1,0.2-0.3,0.3-0.5,0.5c-0.2,0.1-0.4,0.2-0.7,0.2v0c0.4,0.1,0.8,0.3,1,0.7c0.2,0.3,0.3,0.7,0.3,1.1
		c0,0.5-0.1,0.9-0.3,1.3s-0.4,0.7-0.8,0.9s-0.7,0.4-1.1,0.5s-0.8,0.2-1.3,0.2h-4.8l1.9-8.9H125.8z M124.8,17.9
		c0.5,0,0.8-0.1,1.1-0.4c0.3-0.2,0.4-0.6,0.4-1.1c0-0.2,0-0.4-0.1-0.6c-0.1-0.1-0.2-0.2-0.4-0.3s-0.3-0.1-0.5-0.1
		c-0.2,0-0.4,0-0.5,0h-1.9l-0.5,2.5H124.8z M125.4,14.1c0.4,0,0.7-0.1,0.9-0.3c0.3-0.2,0.4-0.5,0.4-0.9c0-0.4-0.1-0.6-0.3-0.7
		c-0.2-0.1-0.4-0.2-0.8-0.2h-2.1l-0.4,2.1H125.4z"/>
	<path d="M131.1,16.8c0,0,0,0.1,0,0.1V17c0,0.4,0.1,0.7,0.3,0.9c0.2,0.2,0.6,0.4,1.1,0.4c0.2,0,0.3,0,0.5-0.1s0.3-0.1,0.4-0.2
		c0.1-0.1,0.2-0.2,0.3-0.3c0.1-0.1,0.2-0.2,0.2-0.3h1.8c-0.1,0.4-0.3,0.7-0.5,1c-0.2,0.3-0.4,0.5-0.7,0.7c-0.3,0.2-0.6,0.3-0.9,0.4
		c-0.4,0.1-0.8,0.1-1.2,0.1c-0.4,0-0.8-0.1-1.2-0.2c-0.4-0.1-0.7-0.3-0.9-0.5c-0.2-0.2-0.4-0.5-0.6-0.9c-0.1-0.4-0.2-0.8-0.2-1.2
		c0-0.5,0.1-1,0.2-1.5c0.2-0.5,0.4-0.9,0.7-1.3c0.3-0.4,0.7-0.7,1.1-0.9c0.4-0.2,0.9-0.3,1.5-0.3c0.5,0,0.9,0.1,1.2,0.2
		c0.4,0.1,0.7,0.3,0.9,0.5c0.3,0.2,0.5,0.5,0.6,0.9c0.1,0.4,0.2,0.8,0.2,1.2c0,0.3,0,0.7-0.1,1h-4.8
		C131.1,16.7,131.1,16.7,131.1,16.8z M134.2,15c0-0.2-0.1-0.3-0.2-0.4s-0.2-0.2-0.4-0.3c-0.2-0.1-0.4-0.1-0.6-0.1
		c-0.2,0-0.5,0-0.7,0.1c-0.2,0.1-0.4,0.2-0.5,0.3s-0.3,0.3-0.4,0.4c-0.1,0.2-0.2,0.3-0.2,0.5h3C134.2,15.4,134.2,15.2,134.2,15z"/>
	<path d="M141.2,13l-0.3,1.2h-1.3l-0.7,3.2c0,0.1,0,0.1,0,0.2c0,0.1,0,0.1,0,0.1c0,0.1,0,0.2,0.1,0.3s0.1,0.1,0.1,0.1
		c0.1,0,0.1,0.1,0.2,0.1c0.1,0,0.1,0,0.2,0c0.2,0,0.4,0,0.6,0l-0.3,1.4c-0.2,0-0.4,0-0.5,0c-0.2,0-0.4,0-0.6,0c-0.2,0-0.4,0-0.6-0.1
		c-0.2,0-0.4-0.1-0.5-0.2s-0.3-0.2-0.4-0.4c-0.1-0.2-0.1-0.4-0.1-0.7c0-0.1,0-0.2,0-0.3c0-0.1,0-0.2,0.1-0.3l0.7-3.5h-1.2L137,13
		h1.1l0.4-2h1.8l-0.4,2H141.2z"/>
	<path d="M145.8,13l-0.3,1.2h-1.3l-0.7,3.2c0,0.1,0,0.1,0,0.2c0,0.1,0,0.1,0,0.1c0,0.1,0,0.2,0.1,0.3s0.1,0.1,0.1,0.1
		c0.1,0,0.1,0.1,0.2,0.1c0.1,0,0.1,0,0.2,0c0.2,0,0.4,0,0.6,0l-0.3,1.4c-0.2,0-0.4,0-0.5,0c-0.2,0-0.4,0-0.6,0c-0.2,0-0.4,0-0.6-0.1
		c-0.2,0-0.4-0.1-0.5-0.2s-0.3-0.2-0.4-0.4c-0.1-0.2-0.1-0.4-0.1-0.7c0-0.1,0-0.2,0-0.3c0-0.1,0-0.2,0.1-0.3l0.7-3.5h-1.2l0.3-1.2
		h1.1l0.4-2h1.8l-0.4,2H145.8z"/>
	<path d="M147.5,16.8c0,0,0,0.1,0,0.1V17c0,0.4,0.1,0.7,0.3,0.9c0.2,0.2,0.6,0.4,1.1,0.4c0.2,0,0.3,0,0.5-0.1s0.3-0.1,0.4-0.2
		c0.1-0.1,0.2-0.2,0.3-0.3c0.1-0.1,0.2-0.2,0.2-0.3h1.8c-0.1,0.4-0.3,0.7-0.5,1c-0.2,0.3-0.4,0.5-0.7,0.7c-0.3,0.2-0.6,0.3-0.9,0.4
		c-0.4,0.1-0.8,0.1-1.2,0.1c-0.4,0-0.8-0.1-1.2-0.2c-0.4-0.1-0.7-0.3-0.9-0.5c-0.2-0.2-0.4-0.5-0.6-0.9c-0.1-0.4-0.2-0.8-0.2-1.2
		c0-0.5,0.1-1,0.2-1.5c0.2-0.5,0.4-0.9,0.7-1.3c0.3-0.4,0.7-0.7,1.1-0.9c0.4-0.2,0.9-0.3,1.5-0.3c0.5,0,0.9,0.1,1.2,0.2
		c0.4,0.1,0.7,0.3,0.9,0.5c0.3,0.2,0.5,0.5,0.6,0.9c0.1,0.4,0.2,0.8,0.2,1.2c0,0.3,0,0.7-0.1,1h-4.8
		C147.5,16.7,147.5,16.7,147.5,16.8z M150.6,15c0-0.2-0.1-0.3-0.2-0.4s-0.2-0.2-0.4-0.3c-0.2-0.1-0.4-0.1-0.6-0.1
		c-0.2,0-0.5,0-0.7,0.1c-0.2,0.1-0.4,0.2-0.5,0.3s-0.3,0.3-0.4,0.4c-0.1,0.2-0.2,0.3-0.2,0.5h3C150.6,15.4,150.6,15.2,150.6,15z"/>
	<path d="M155.7,13l-0.3,1.2l0,0c0.2-0.5,0.5-0.8,0.9-1c0.4-0.2,0.8-0.3,1.3-0.3c0.2,0,0.4,0,0.5,0l-0.4,1.7c-0.1,0-0.2,0-0.4-0.1
		c-0.1,0-0.2,0-0.4,0c-0.3,0-0.6,0.1-0.9,0.2c-0.2,0.1-0.4,0.3-0.6,0.5c-0.2,0.2-0.3,0.4-0.4,0.7c-0.1,0.3-0.2,0.5-0.2,0.8l-0.6,2.9
		h-1.8L154,13H155.7z"/>
</g>
<g>
	<path d="M16,24.7l0.4-1.6h7.5l-0.4,1.6h-2.7L19.2,32h-2l1.5-7.3H16z"/>
	<path d="M26,25.5L24.6,32h-1.8l1.4-6.5H26z M24.4,24.5l0.3-1.5h1.8l-0.3,1.5H24.4z"/>
	<path d="M29.1,25.5l-0.2,0.9h0c0.3-0.4,0.6-0.7,1-0.8c0.4-0.2,0.8-0.3,1.3-0.3c0.4,0,0.7,0.1,1,0.3c0.3,0.2,0.5,0.5,0.5,0.9
		c0.1-0.2,0.2-0.3,0.4-0.5s0.3-0.3,0.5-0.4c0.2-0.1,0.4-0.2,0.6-0.2c0.2-0.1,0.4-0.1,0.6-0.1c0.2,0,0.5,0,0.7,0.1
		c0.2,0.1,0.4,0.2,0.6,0.3c0.2,0.1,0.3,0.3,0.4,0.5c0.1,0.2,0.2,0.4,0.2,0.7c0,0.2,0,0.4-0.1,0.6c0,0.2-0.1,0.4-0.1,0.6L35.9,32
		h-1.8l0.9-4.1c0-0.2,0-0.3,0-0.5c0-0.2-0.1-0.4-0.2-0.5c-0.1-0.1-0.3-0.2-0.6-0.2c-0.2,0-0.4,0.1-0.6,0.2c-0.2,0.1-0.4,0.3-0.5,0.4
		c-0.1,0.2-0.3,0.4-0.3,0.6c-0.1,0.2-0.2,0.4-0.2,0.6L31.9,32h-1.8l0.8-4.1c0-0.2,0.1-0.3,0.1-0.5c0-0.2-0.1-0.4-0.2-0.5
		c-0.1-0.1-0.3-0.2-0.6-0.2c-0.2,0-0.4,0.1-0.6,0.2c-0.2,0.1-0.4,0.3-0.5,0.4c-0.1,0.2-0.3,0.4-0.3,0.6s-0.2,0.4-0.2,0.6L27.8,32H26
		l1.3-6.5H29.1z"/>
	<path d="M39.3,29.3C39.3,29.3,39.3,29.3,39.3,29.3v0.3c0,0.4,0.1,0.7,0.3,0.9s0.6,0.4,1.1,0.4c0.2,0,0.3,0,0.5-0.1
		c0.1-0.1,0.3-0.1,0.4-0.2c0.1-0.1,0.2-0.2,0.3-0.3c0.1-0.1,0.2-0.2,0.2-0.3h1.8c-0.1,0.4-0.3,0.7-0.5,1c-0.2,0.3-0.4,0.5-0.7,0.7
		c-0.3,0.2-0.6,0.3-0.9,0.4c-0.4,0.1-0.8,0.1-1.2,0.1c-0.4,0-0.8-0.1-1.2-0.2c-0.4-0.1-0.7-0.3-0.9-0.5s-0.4-0.5-0.6-0.9
		c-0.1-0.4-0.2-0.8-0.2-1.2c0-0.5,0.1-1,0.2-1.5c0.2-0.5,0.4-0.9,0.7-1.3c0.3-0.4,0.7-0.7,1.1-0.9c0.4-0.2,0.9-0.3,1.5-0.3
		c0.5,0,0.9,0.1,1.2,0.2c0.4,0.1,0.7,0.3,0.9,0.5c0.3,0.2,0.5,0.5,0.6,0.9c0.1,0.4,0.2,0.8,0.2,1.2c0,0.3,0,0.7-0.1,1h-4.8
		C39.4,29.2,39.3,29.2,39.3,29.3z M42.5,27.5c0-0.2-0.1-0.3-0.2-0.4s-0.2-0.2-0.4-0.3c-0.2-0.1-0.4-0.1-0.6-0.1
		c-0.2,0-0.5,0-0.7,0.1c-0.2,0.1-0.4,0.2-0.5,0.3s-0.3,0.3-0.4,0.4s-0.2,0.3-0.2,0.5h3C42.5,27.9,42.5,27.7,42.5,27.5z"/>
	<path d="M52.9,25.5l-0.3,1.2h-1.3l-0.7,3.2c0,0.1,0,0.1,0,0.2c0,0.1,0,0.1,0,0.1c0,0.1,0,0.2,0.1,0.3s0.1,0.1,0.1,0.1
		c0.1,0,0.1,0.1,0.2,0.1c0.1,0,0.1,0,0.2,0c0.2,0,0.4,0,0.6,0L51.6,32c-0.2,0-0.4,0-0.5,0c-0.2,0-0.4,0-0.6,0c-0.2,0-0.4,0-0.6-0.1
		c-0.2,0-0.4-0.1-0.5-0.2s-0.3-0.2-0.4-0.4s-0.1-0.4-0.1-0.7c0-0.1,0-0.2,0-0.3c0-0.1,0-0.2,0.1-0.3l0.7-3.5h-1.2l0.3-1.2h1.1l0.4-2
		H52l-0.4,2H52.9z"/>
	<path d="M53.2,27.8c0.2-0.5,0.4-0.9,0.7-1.3c0.3-0.4,0.7-0.7,1.2-0.9c0.5-0.2,1-0.3,1.5-0.3c0.4,0,0.8,0.1,1.2,0.2s0.7,0.3,1,0.5
		c0.3,0.2,0.5,0.5,0.6,0.9c0.1,0.3,0.2,0.7,0.2,1.2c0,0.6-0.1,1.1-0.3,1.6c-0.2,0.5-0.4,0.9-0.7,1.3c-0.3,0.4-0.7,0.7-1.2,0.9
		c-0.5,0.2-1,0.3-1.6,0.3c-0.9,0-1.6-0.2-2.2-0.7s-0.8-1.2-0.8-2.1C52.9,28.8,53,28.3,53.2,27.8z M54.8,29.9
		c0.1,0.2,0.1,0.3,0.2,0.5c0.1,0.1,0.2,0.2,0.4,0.3s0.3,0.1,0.5,0.1c0.3,0,0.6-0.1,0.9-0.3c0.2-0.2,0.4-0.4,0.6-0.7s0.3-0.6,0.3-0.9
		c0.1-0.3,0.1-0.6,0.1-0.9c0-0.4-0.1-0.8-0.3-1c-0.2-0.3-0.5-0.4-1-0.4c-0.3,0-0.6,0.1-0.8,0.3c-0.2,0.2-0.4,0.4-0.6,0.7
		s-0.3,0.6-0.3,0.9c-0.1,0.3-0.1,0.6-0.1,0.9C54.7,29.5,54.7,29.7,54.8,29.9z"/>
	<path d="M69.3,23c0.4,0,0.9,0,1.2,0.1c0.4,0.1,0.7,0.2,0.9,0.3s0.4,0.4,0.6,0.6c0.1,0.3,0.2,0.6,0.2,1c0,0.2,0,0.5-0.1,0.7
		c-0.1,0.2-0.2,0.5-0.3,0.6c-0.1,0.2-0.3,0.3-0.5,0.5c-0.2,0.1-0.4,0.2-0.7,0.2v0c0.4,0.1,0.8,0.3,1,0.7c0.2,0.3,0.3,0.7,0.3,1.1
		c0,0.5-0.1,0.9-0.3,1.3c-0.2,0.4-0.4,0.7-0.8,0.9c-0.3,0.2-0.7,0.4-1.1,0.5S68.8,32,68.4,32h-4.8l1.9-8.9H69.3z M68.3,30.4
		c0.5,0,0.8-0.1,1.1-0.4c0.3-0.2,0.4-0.6,0.4-1.1c0-0.2,0-0.4-0.1-0.5c-0.1-0.1-0.2-0.2-0.4-0.3C69.2,28.1,69,28,68.8,28
		s-0.4,0-0.5,0h-1.9l-0.5,2.4H68.3z M68.9,26.6c0.4,0,0.7-0.1,0.9-0.3c0.3-0.2,0.4-0.5,0.4-0.9c0-0.4-0.1-0.6-0.3-0.7
		c-0.2-0.1-0.4-0.2-0.8-0.2h-2.1l-0.4,2.1H68.9z"/>
	<path d="M77,32l0.2-0.9h0c-0.6,0.7-1.3,1.1-2.3,1.1c-1.3,0-1.9-0.6-1.9-1.7c0-0.1,0-0.2,0-0.3c0-0.1,0-0.2,0-0.3s0-0.2,0.1-0.3
		s0-0.2,0.1-0.2l0.8-3.8h1.8L75,29.3c0,0,0,0.1,0,0.2c0,0.1,0,0.1,0,0.2c0,0.1,0,0.1,0,0.2c0,0.1,0,0.1,0,0.2c0,0.2,0.1,0.4,0.3,0.5
		s0.4,0.2,0.6,0.2c0.3,0,0.5-0.1,0.7-0.2c0.2-0.1,0.4-0.2,0.5-0.4c0.1-0.2,0.3-0.4,0.4-0.6c0.1-0.2,0.2-0.4,0.2-0.7l0.7-3.4H80
		L78.7,32H77z"/>
	<path d="M82.6,33.5c-0.2,0.2-0.3,0.3-0.5,0.4c-0.2,0.1-0.4,0.2-0.7,0.2c-0.2,0-0.5,0.1-0.9,0.1c-0.1,0-0.3,0-0.5,0s-0.3,0-0.5,0
		l0.3-1.5c0.1,0,0.2,0,0.4,0c0.1,0,0.2,0,0.4,0c0.2,0,0.4,0,0.5-0.1s0.2-0.1,0.3-0.2c0.1-0.1,0.1-0.2,0.2-0.3
		c0.1-0.1,0.1-0.2,0.2-0.3l-1.1-6.4h1.8l0.6,4.6h0l2.2-4.6h1.9L83,32.9C82.9,33.1,82.7,33.4,82.6,33.5z"/>
	<path d="M94.1,23l-1.5,7.3h4.3L96.5,32h-6.3l1.9-8.9H94.1z"/>
	<path d="M100.5,25.5L99.1,32h-1.8l1.4-6.5H100.5z M98.9,24.5l0.3-1.5h1.8l-0.3,1.5H98.9z"/>
	<path d="M101,26.7l0.2-1.2h1.1c0.1-0.4,0.2-0.8,0.3-1.1c0.1-0.3,0.2-0.6,0.4-0.8c0.2-0.2,0.4-0.4,0.7-0.5s0.7-0.2,1.1-0.2
		c0.2,0,0.4,0,0.6,0c0.2,0,0.4,0,0.6,0.1l-0.3,1.3c-0.1,0-0.2,0-0.3,0c-0.1,0-0.2,0-0.3,0c-0.2,0-0.4,0-0.5,0.1s-0.2,0.1-0.3,0.2
		c-0.1,0.1-0.1,0.2-0.1,0.4c0,0.1-0.1,0.3-0.1,0.5h1.3l-0.2,1.2h-1.3l-1.1,5.3h-1.8l1.1-5.3H101z"/>
	<path d="M106.9,29.3C106.9,29.3,106.9,29.3,106.9,29.3v0.3c0,0.4,0.1,0.7,0.3,0.9s0.6,0.4,1.1,0.4c0.2,0,0.3,0,0.5-0.1
		c0.1-0.1,0.3-0.1,0.4-0.2c0.1-0.1,0.2-0.2,0.3-0.3c0.1-0.1,0.2-0.2,0.2-0.3h1.8c-0.1,0.4-0.3,0.7-0.5,1c-0.2,0.3-0.4,0.5-0.7,0.7
		c-0.3,0.2-0.6,0.3-0.9,0.4c-0.4,0.1-0.8,0.1-1.2,0.1c-0.4,0-0.8-0.1-1.2-0.2c-0.4-0.1-0.7-0.3-0.9-0.5s-0.4-0.5-0.6-0.9
		c-0.1-0.4-0.2-0.8-0.2-1.2c0-0.5,0.1-1,0.2-1.5c0.2-0.5,0.4-0.9,0.7-1.3c0.3-0.4,0.7-0.7,1.1-0.9c0.4-0.2,0.9-0.3,1.5-0.3
		c0.5,0,0.9,0.1,1.2,0.2c0.4,0.1,0.7,0.3,0.9,0.5c0.3,0.2,0.5,0.5,0.6,0.9c0.1,0.4,0.2,0.8,0.2,1.2c0,0.3,0,0.7-0.1,1H107
		C107,29.2,106.9,29.2,106.9,29.3z M110.1,27.5c0-0.2-0.1-0.3-0.2-0.4s-0.2-0.2-0.4-0.3c-0.2-0.1-0.4-0.1-0.6-0.1
		c-0.2,0-0.5,0-0.7,0.1c-0.2,0.1-0.4,0.2-0.5,0.3s-0.3,0.3-0.4,0.4s-0.2,0.3-0.2,0.5h3C110.1,27.9,110.1,27.7,110.1,27.5z"/>
	<path d="M119.6,23l-1.9,8.9h-2l1.9-8.9H119.6z"/>
	<path d="M122.4,25.5l-0.2,0.9h0c0.6-0.7,1.3-1.1,2.3-1.1c1.3,0,1.9,0.6,1.9,1.7c0,0.1,0,0.2,0,0.3c0,0.1,0,0.2-0.1,0.3
		c0,0.1,0,0.2-0.1,0.3c0,0.1,0,0.2,0,0.2l-0.8,3.8h-1.8l0.8-3.8c0-0.1,0-0.2,0.1-0.4c0-0.2,0-0.3,0-0.4c0-0.2-0.1-0.3-0.3-0.5
		s-0.4-0.2-0.6-0.2c-0.3,0-0.5,0.1-0.7,0.2s-0.4,0.2-0.5,0.4s-0.3,0.4-0.4,0.6c-0.1,0.2-0.2,0.4-0.2,0.7l-0.7,3.4h-1.8l1.3-6.5
		H122.4z"/>
	<path d="M131.3,26.7c-0.2-0.2-0.4-0.2-0.8-0.2c-0.3,0-0.6,0-0.8,0.1s-0.3,0.3-0.3,0.5c0,0.1,0.1,0.3,0.2,0.4
		c0.1,0.1,0.3,0.2,0.6,0.3l0.9,0.3c0.2,0.1,0.5,0.2,0.7,0.3c0.2,0.1,0.4,0.2,0.5,0.4c0.2,0.1,0.3,0.3,0.4,0.5
		c0.1,0.2,0.1,0.4,0.1,0.7c0,0.4-0.1,0.7-0.3,1s-0.4,0.5-0.7,0.7c-0.3,0.2-0.6,0.3-1,0.4s-0.7,0.1-1.1,0.1c-0.3,0-0.6,0-1-0.1
		c-0.3-0.1-0.6-0.2-0.9-0.3c-0.3-0.2-0.5-0.4-0.6-0.6s-0.2-0.6-0.2-1v-0.3h1.6v0.2c0,0.2,0,0.3,0.1,0.4c0.1,0.1,0.2,0.2,0.3,0.3
		c0.1,0.1,0.3,0.1,0.4,0.2c0.2,0,0.3,0.1,0.5,0.1c0.1,0,0.3,0,0.4,0c0.1,0,0.3-0.1,0.4-0.1c0.1-0.1,0.2-0.1,0.3-0.2
		c0.1-0.1,0.1-0.2,0.1-0.4c0-0.2-0.1-0.4-0.2-0.5c-0.1-0.1-0.3-0.2-0.5-0.2L129,29c-0.2-0.1-0.4-0.2-0.6-0.2s-0.3-0.2-0.4-0.3
		c-0.1-0.1-0.2-0.3-0.3-0.5s-0.1-0.4-0.1-0.7c0-0.4,0.1-0.7,0.3-1s0.4-0.5,0.7-0.6s0.6-0.3,0.9-0.4s0.7-0.1,1-0.1c0.4,0,0.7,0,1,0.1
		c0.3,0.1,0.6,0.2,0.9,0.3c0.2,0.2,0.4,0.4,0.6,0.6c0.1,0.3,0.2,0.6,0.2,1h-1.6C131.5,27.1,131.4,26.9,131.3,26.7z"/>
	<path d="M137.9,32l0.2-0.9h0c-0.6,0.7-1.3,1.1-2.3,1.1c-1.3,0-1.9-0.6-1.9-1.7c0-0.1,0-0.2,0-0.3c0-0.1,0-0.2,0-0.3s0-0.2,0.1-0.3
		s0-0.2,0.1-0.2l0.8-3.8h1.8l-0.8,3.8c0,0,0,0.1,0,0.2c0,0.1,0,0.1,0,0.2c0,0.1,0,0.1,0,0.2c0,0.1,0,0.1,0,0.2
		c0,0.2,0.1,0.4,0.3,0.5s0.4,0.2,0.6,0.2c0.3,0,0.5-0.1,0.7-0.2c0.2-0.1,0.4-0.2,0.5-0.4c0.1-0.2,0.3-0.4,0.4-0.6
		c0.1-0.2,0.2-0.4,0.2-0.7l0.7-3.4h1.8l-1.4,6.5H137.9z"/>
	<path d="M144.1,25.5l-0.3,1.2l0,0c0.2-0.4,0.5-0.8,0.9-1c0.4-0.2,0.8-0.3,1.3-0.3c0.2,0,0.4,0,0.5,0l-0.4,1.7c-0.1,0-0.2,0-0.4-0.1
		c-0.1,0-0.2,0-0.4,0c-0.3,0-0.6,0.1-0.9,0.2c-0.2,0.1-0.4,0.3-0.6,0.5c-0.2,0.2-0.3,0.4-0.4,0.7s-0.2,0.5-0.2,0.8l-0.6,2.9h-1.8
		l1.3-6.5H144.1z"/>
	<path d="M147.2,26.4c0.2-0.3,0.4-0.5,0.7-0.7c0.3-0.2,0.6-0.3,0.9-0.4s0.7-0.1,1.1-0.1c0.3,0,0.6,0,0.9,0.1c0.3,0,0.6,0.1,0.9,0.2
		c0.3,0.1,0.5,0.3,0.7,0.5c0.2,0.2,0.3,0.5,0.2,0.9c0,0.3,0,0.7-0.1,1.1l-0.6,2.6c0,0.1-0.1,0.3-0.1,0.4s0,0.3,0,0.4
		c0,0.1,0,0.2,0.1,0.4h-1.8v-0.6c-0.2,0.3-0.5,0.5-0.9,0.6s-0.7,0.2-1.1,0.2c-0.4,0-0.7,0-0.9-0.1c-0.3-0.1-0.5-0.2-0.7-0.4
		s-0.3-0.3-0.4-0.5c-0.1-0.2-0.1-0.4-0.1-0.6c0-0.6,0.2-1.1,0.6-1.5s1-0.6,1.8-0.7c0.4-0.1,0.8-0.1,1.1-0.1c0.3,0,0.6-0.1,0.8-0.1
		s0.4-0.1,0.5-0.2c0.1-0.1,0.1-0.3,0.1-0.5c0-0.2,0-0.3-0.1-0.4c-0.1-0.1-0.2-0.2-0.3-0.2c-0.1-0.1-0.2-0.1-0.4-0.1
		c-0.1,0-0.3,0-0.4,0c-0.3,0-0.6,0.1-0.9,0.2s-0.4,0.4-0.5,0.7h-1.7C146.9,27.1,147,26.7,147.2,26.4z M149.9,29.1
		c-0.3,0-0.5,0.1-0.8,0.1c-0.2,0-0.3,0-0.5,0.1c-0.2,0-0.3,0.1-0.4,0.2c-0.1,0.1-0.2,0.2-0.3,0.3c-0.1,0.1-0.1,0.3-0.1,0.5
		c0,0.2,0.1,0.4,0.3,0.5c0.2,0.1,0.4,0.2,0.7,0.2c0.3,0,0.5,0,0.7-0.1c0.2-0.1,0.3-0.2,0.5-0.3c0.1-0.1,0.2-0.3,0.3-0.5
		c0.1-0.2,0.1-0.3,0.2-0.5l0.2-0.6C150.4,29,150.1,29.1,149.9,29.1z"/>
	<path d="M156.2,25.5l-0.2,0.9h0c0.6-0.7,1.3-1.1,2.3-1.1c1.3,0,1.9,0.6,1.9,1.7c0,0.1,0,0.2,0,0.3s0,0.2-0.1,0.3
		c0,0.1,0,0.2-0.1,0.3c0,0.1,0,0.2,0,0.2l-0.8,3.8h-1.8l0.8-3.8c0-0.1,0-0.2,0.1-0.4c0-0.2,0-0.3,0-0.4c0-0.2-0.1-0.3-0.3-0.5
		s-0.4-0.2-0.6-0.2c-0.3,0-0.5,0.1-0.7,0.2s-0.4,0.2-0.5,0.4s-0.3,0.4-0.4,0.6c-0.1,0.2-0.2,0.4-0.2,0.7l-0.7,3.4h-1.8l1.3-6.5
		H156.2z"/>
	<path d="M165.5,26.9c-0.2-0.2-0.5-0.2-0.9-0.2c-0.3,0-0.6,0.1-0.9,0.3s-0.4,0.4-0.6,0.7c-0.1,0.3-0.2,0.6-0.3,0.9s-0.1,0.6-0.1,0.9
		c0,0.2,0,0.4,0.1,0.5c0,0.2,0.1,0.3,0.2,0.4c0.1,0.1,0.2,0.2,0.4,0.3c0.2,0.1,0.3,0.1,0.6,0.1c0.2,0,0.4,0,0.5-0.1
		c0.2-0.1,0.3-0.2,0.4-0.3c0.1-0.1,0.2-0.2,0.3-0.4c0.1-0.1,0.1-0.3,0.2-0.5h1.8c-0.3,0.8-0.7,1.4-1.2,1.9c-0.6,0.4-1.3,0.7-2.1,0.7
		c-0.9,0-1.6-0.2-2.1-0.7c-0.5-0.4-0.8-1.1-0.8-2.1c0-0.6,0.1-1.1,0.2-1.6c0.2-0.5,0.4-0.9,0.7-1.3s0.7-0.7,1.1-0.9
		c0.5-0.2,1-0.3,1.6-0.3c0.4,0,0.8,0,1.1,0.1c0.3,0.1,0.7,0.2,0.9,0.4c0.3,0.2,0.5,0.4,0.6,0.8c0.2,0.3,0.2,0.7,0.2,1.1h-1.8
		C165.8,27.4,165.7,27.1,165.5,26.9z"/>
	<path d="M169.7,29.3C169.7,29.3,169.7,29.3,169.7,29.3v0.3c0,0.4,0.1,0.7,0.3,0.9s0.6,0.4,1.1,0.4c0.2,0,0.3,0,0.5-0.1
		c0.1-0.1,0.3-0.1,0.4-0.2s0.2-0.2,0.3-0.3s0.2-0.2,0.2-0.3h1.8c-0.1,0.4-0.3,0.7-0.5,1c-0.2,0.3-0.4,0.5-0.7,0.7s-0.6,0.3-0.9,0.4
		c-0.4,0.1-0.8,0.1-1.2,0.1c-0.4,0-0.8-0.1-1.2-0.2c-0.4-0.1-0.7-0.3-0.9-0.5s-0.4-0.5-0.6-0.9c-0.1-0.4-0.2-0.8-0.2-1.2
		c0-0.5,0.1-1,0.2-1.5s0.4-0.9,0.7-1.3c0.3-0.4,0.7-0.7,1.1-0.9c0.4-0.2,0.9-0.3,1.5-0.3c0.5,0,0.9,0.1,1.2,0.2
		c0.4,0.1,0.7,0.3,1,0.5c0.3,0.2,0.5,0.5,0.6,0.9c0.1,0.4,0.2,0.8,0.2,1.2c0,0.3,0,0.7-0.1,1h-4.8C169.7,29.2,169.7,29.2,169.7,29.3
		z M172.8,27.5c0-0.2-0.1-0.3-0.2-0.4c-0.1-0.1-0.2-0.2-0.4-0.3c-0.2-0.1-0.4-0.1-0.6-0.1c-0.2,0-0.5,0-0.7,0.1s-0.4,0.2-0.5,0.3
		s-0.3,0.3-0.4,0.4s-0.2,0.3-0.2,0.5h3C172.8,27.9,172.8,27.7,172.8,27.5z"/>
	<path d="M177.4,30L177,32h-2l0.4-1.9H177.4z M177,29.3h-0.9l0.3-3.8l0.5-2.4h1.9l-0.5,2.4L177,29.3z"/>
</g>
</svg>
