<?xml version="1.0" encoding="utf-8"?>
<!-- Generator: Adobe Illustrator 25.4.1, SVG Export Plug-In . SVG Version: 6.00 Build 0)  -->
<svg version="1.1" id="Layer_1" xmlns="http://www.w3.org/2000/svg" xmlns:xlink="http://www.w3.org/1999/xlink" x="0px" y="0px"
	 viewBox="0 0 320 50" style="enable-background:new 0 0 320 50;" xml:space="preserve">
<style type="text/css">
	.st0{fill:#349946;}
	.st1{fill:#231F20;}
	.st2{fill:none;}
</style>
<path class="st0" d="M199.9,45.5h-1.3l-0.4-1.2h-2.5l-0.4,1.2h-1.3l2.2-5.9h0.9c0.3,0,0.5,0.1,0.6,0.3c0.1,0.2,1.1,2.9,1.1,2.9h-1.2
	l-0.7-2l-0.9,2.5h2.6c0.3,0,0.5,0.1,0.6,0.4L199.9,45.5z"/>
<path class="st0" d="M211.1,45.5h-1.3l-0.4-1.2h-2.5l-0.4,1.2h-1.3l2.2-5.9h0.9c0.3,0,0.5,0.1,0.6,0.3c0.1,0.2,1.1,2.9,1.1,2.9h-1.2
	l-0.7-2l-0.9,2.5h2.6c0.3,0,0.5,0.1,0.6,0.4L211.1,45.5z"/>
<path class="st0" d="M200.3,39.6h2.3c1.8,0,2.7,1,2.7,3c0,1.1-0.3,1.9-1,2.4c-0.6,0.5-1.2,0.5-2.1,0.5h-2V39.6z M202.5,44.4
	c1.1,0,1.6-0.6,1.6-1.9c0-1.3-0.5-1.9-1.5-1.9h-1.1v3.8H202.5z"/>
<g>
	<path class="st1" d="M221.1,45.5h-0.9l-0.4-4.2l-1.4,4.2h-0.8l-1.5-4.2l-0.3,4.2h-0.9l0.5-5.6h1.1l1.5,4.3l1.5-4.3h1.1L221.1,45.5z
		"/>
	<path class="st1" d="M225.7,43.4c0,0,0,0.1,0,0.2c0,0.1,0,0.1,0,0.1h-2.8c0,0.3,0.1,0.5,0.3,0.8c0.2,0.3,0.5,0.4,0.9,0.4
		c0.3,0,0.7-0.1,1.1-0.3l0.3,0.6c-0.4,0.3-0.9,0.4-1.5,0.4c-0.6,0-1.1-0.2-1.5-0.6c-0.3-0.4-0.5-0.9-0.5-1.5c0-0.6,0.2-1.2,0.5-1.6
		c0.4-0.4,0.8-0.6,1.4-0.6c0.6,0,1,0.2,1.3,0.6C225.6,42.2,225.7,42.7,225.7,43.4z M224.9,43c0-0.3-0.1-0.5-0.2-0.7
		c-0.2-0.3-0.4-0.4-0.7-0.4c-0.3,0-0.5,0.1-0.7,0.3c-0.2,0.2-0.3,0.4-0.3,0.8H224.9z"/>
	<path class="st1" d="M232.4,45.5h-0.9v-2.3c0-0.5-0.1-0.8-0.2-0.9c-0.1-0.1-0.3-0.2-0.5-0.2c-0.3,0-0.6,0.1-0.9,0.3
		c0,0.1,0.1,0.4,0.1,0.9v2.2h-0.9v-2.3c0-0.5-0.1-0.9-0.2-1c-0.1-0.1-0.3-0.2-0.5-0.2c-0.3,0-0.6,0.1-0.9,0.3v3.1h-0.9v-4.1h0.8v0.3
		c0.4-0.3,0.8-0.4,1.2-0.4c0.4,0,0.8,0.2,1,0.5c0.5-0.3,0.9-0.5,1.4-0.5c0.4,0,0.8,0.1,1,0.4c0.2,0.2,0.3,0.5,0.4,0.8
		c0,0.2,0.1,0.5,0.1,1V45.5z"/>
	<path class="st1" d="M237.2,43.3c0,0.7-0.2,1.2-0.6,1.6s-0.9,0.6-1.6,0.6c-0.5,0-1-0.1-1.6-0.3v-5.9h0.9v2.2
		c0.3-0.2,0.7-0.3,1.1-0.3c0.5,0,0.9,0.2,1.3,0.6C237.1,42.2,237.2,42.7,237.2,43.3z M236.3,43.3c0-0.4-0.1-0.7-0.3-1
		c-0.2-0.2-0.4-0.3-0.7-0.3c-0.3,0-0.6,0.1-0.9,0.3v2.4c0.2,0.1,0.5,0.1,0.7,0.1c0.4,0,0.7-0.1,0.9-0.4
		C236.2,44.1,236.3,43.8,236.3,43.3z"/>
	<path class="st1" d="M241.6,43.4c0,0,0,0.1,0,0.2c0,0.1,0,0.1,0,0.1h-2.8c0,0.3,0.1,0.5,0.3,0.8c0.2,0.3,0.5,0.4,0.9,0.4
		c0.3,0,0.7-0.1,1.1-0.3l0.3,0.6c-0.4,0.3-0.9,0.4-1.5,0.4c-0.6,0-1.1-0.2-1.5-0.6c-0.3-0.4-0.5-0.9-0.5-1.5c0-0.6,0.2-1.2,0.5-1.6
		c0.4-0.4,0.8-0.6,1.4-0.6c0.6,0,1,0.2,1.3,0.6C241.5,42.2,241.6,42.7,241.6,43.4z M240.8,43c0-0.3-0.1-0.5-0.2-0.7
		c-0.2-0.3-0.4-0.4-0.7-0.4c-0.3,0-0.5,0.1-0.7,0.3c-0.2,0.2-0.3,0.4-0.3,0.8H240.8z"/>
	<path class="st1" d="M245.1,41.3l-0.2,0.7c-0.1,0-0.2,0-0.3,0c-0.5,0-0.9,0.2-1.2,0.6v2.8h-0.9v-4.1h0.8v0.5
		c0.1-0.1,0.2-0.2,0.4-0.3c0.3-0.2,0.6-0.3,1-0.3C244.8,41.2,245,41.3,245.1,41.3z"/>
</g>
<g>
	<path class="st1" d="M248.5,44.3c0,0.4-0.1,0.7-0.4,0.9c-0.3,0.2-0.7,0.3-1.1,0.3c-0.4,0-0.7-0.1-1.1-0.2c-0.2-0.1-0.4-0.2-0.4-0.2
		l0.3-0.6c0.4,0.2,0.8,0.3,1.1,0.3c0.2,0,0.4,0,0.5-0.1c0.1-0.1,0.2-0.2,0.2-0.4c0-0.1-0.1-0.3-0.2-0.4c-0.1-0.1-0.3-0.2-0.6-0.3
		c-0.3-0.1-0.6-0.3-0.7-0.4c-0.2-0.2-0.4-0.5-0.4-0.8c0-0.4,0.1-0.7,0.4-0.9c0.3-0.2,0.6-0.3,1.1-0.3c0.6,0,1,0.1,1.3,0.4l-0.3,0.6
		c-0.3-0.2-0.6-0.3-1-0.3c-0.4,0-0.7,0.2-0.7,0.5c0,0.1,0.1,0.2,0.2,0.3c0.1,0.1,0.3,0.1,0.5,0.3c0.4,0.2,0.7,0.3,0.8,0.4
		C248.3,43.6,248.5,43.9,248.5,44.3z"/>
	<path class="st1" d="M252.5,45.5h-1v-5.6h1V45.5z"/>
	<path class="st1" d="M257.2,45.5h-0.9v-2.2c0-0.5-0.1-0.9-0.2-1c-0.1-0.1-0.3-0.2-0.5-0.2c-0.3,0-0.6,0.1-0.9,0.3v3.1h-0.9v-4.1
		h0.8v0.3c0.4-0.3,0.8-0.4,1.2-0.4c0.4,0,0.8,0.1,1,0.4c0.2,0.2,0.3,0.4,0.4,0.7c0,0.2,0,0.4,0,0.8V45.5z"/>
	<path class="st1" d="M261,44.3c0,0.4-0.1,0.7-0.4,0.9c-0.3,0.2-0.7,0.3-1.1,0.3c-0.4,0-0.7-0.1-1.1-0.2c-0.2-0.1-0.4-0.2-0.4-0.2
		l0.3-0.6c0.4,0.2,0.8,0.3,1.1,0.3c0.2,0,0.4,0,0.5-0.1c0.1-0.1,0.2-0.2,0.2-0.4c0-0.1-0.1-0.3-0.2-0.4c-0.1-0.1-0.3-0.2-0.6-0.3
		c-0.3-0.1-0.6-0.3-0.7-0.4c-0.2-0.2-0.4-0.5-0.4-0.8c0-0.4,0.1-0.7,0.4-0.9c0.3-0.2,0.6-0.3,1.1-0.3c0.6,0,1,0.1,1.3,0.4l-0.3,0.6
		c-0.3-0.2-0.6-0.3-1-0.3c-0.4,0-0.7,0.2-0.7,0.5c0,0.1,0.1,0.2,0.2,0.3c0.1,0.1,0.3,0.1,0.5,0.3c0.4,0.2,0.7,0.3,0.8,0.4
		C260.8,43.6,261,43.9,261,44.3z"/>
	<path class="st1" d="M265.3,45.5h-0.8v-0.3c-0.4,0.3-0.8,0.4-1.2,0.4c-0.4,0-0.8-0.1-1-0.4c-0.2-0.2-0.3-0.4-0.4-0.7
		c0-0.2-0.1-0.4-0.1-0.8v-2.3h0.9v2.2c0,0.3,0,0.5,0,0.6c0,0.2,0.1,0.4,0.2,0.5c0.1,0.1,0.3,0.1,0.5,0.1c0.2,0,0.5-0.1,0.9-0.3v-3.1
		h0.9V45.5z"/>
	<path class="st1" d="M269,41.3l-0.2,0.7c-0.1,0-0.2,0-0.3,0c-0.5,0-0.9,0.2-1.2,0.6v2.8h-0.9v-4.1h0.8v0.5c0.1-0.1,0.2-0.2,0.4-0.3
		c0.3-0.2,0.6-0.3,1-0.3C268.7,41.2,268.9,41.3,269,41.3z"/>
</g>
<g>
	<path class="st1" d="M272.6,45.5h-0.8v-0.3c-0.4,0.3-0.8,0.4-1.2,0.4c-0.4,0-0.7-0.1-1-0.4s-0.4-0.6-0.4-0.9c0-1,0.8-1.4,2.3-1.4
		h0.2v-0.2c0-0.3,0-0.4-0.1-0.5c-0.1-0.1-0.3-0.2-0.7-0.2c-0.4,0-0.7,0.1-1.1,0.3l-0.3-0.6c0.1-0.1,0.2-0.2,0.4-0.2
		c0.3-0.1,0.7-0.2,1.1-0.2c0.6,0,1,0.1,1.3,0.4c0.1,0.1,0.2,0.3,0.3,0.5c0,0.1,0,0.4,0,0.7V45.5z M271.7,44.5v-1.1h-0.2
		c-0.6,0-1.1,0.1-1.3,0.3c-0.1,0.1-0.2,0.2-0.2,0.4c0,0.2,0.1,0.4,0.2,0.5c0.1,0.1,0.3,0.2,0.5,0.2
		C271.1,44.8,271.4,44.7,271.7,44.5z"/>
	<path class="st1" d="M277.1,45.5h-0.9v-2.2c0-0.5-0.1-0.9-0.2-1c-0.1-0.1-0.3-0.2-0.5-0.2c-0.3,0-0.6,0.1-0.9,0.3v3.1h-0.9v-4.1
		h0.8v0.3c0.4-0.3,0.8-0.4,1.2-0.4c0.4,0,0.8,0.1,1,0.4c0.2,0.2,0.3,0.4,0.4,0.7c0,0.2,0,0.4,0,0.8V45.5z"/>
	<path class="st1" d="M281.5,45.1c-0.1,0.1-0.2,0.2-0.4,0.3c-0.3,0.2-0.7,0.2-1.1,0.2c-0.6,0-1.1-0.2-1.5-0.6
		c-0.4-0.4-0.6-0.9-0.6-1.5c0-0.6,0.2-1.2,0.6-1.6c0.4-0.4,0.9-0.6,1.5-0.6c0.3,0,0.7,0.1,1,0.2c0.2,0.1,0.3,0.2,0.4,0.3l-0.4,0.6
		c-0.3-0.2-0.6-0.3-0.9-0.3c-0.4,0-0.7,0.1-0.9,0.4c-0.2,0.3-0.3,0.6-0.3,1c0,0.4,0.1,0.8,0.3,1s0.5,0.4,0.9,0.4
		c0.3,0,0.7-0.1,1-0.3L281.5,45.1z"/>
</g>
<g>
	<path class="st1" d="M285.6,43.4c0,0,0,0.1,0,0.2c0,0.1,0,0.1,0,0.1h-2.8c0,0.3,0.1,0.5,0.3,0.8c0.2,0.3,0.5,0.4,0.9,0.4
		c0.3,0,0.7-0.1,1.1-0.3l0.3,0.6c-0.4,0.3-0.9,0.4-1.5,0.4c-0.6,0-1.1-0.2-1.5-0.6c-0.3-0.4-0.5-0.9-0.5-1.5c0-0.6,0.2-1.2,0.5-1.6
		c0.4-0.4,0.8-0.6,1.4-0.6c0.6,0,1,0.2,1.3,0.6C285.5,42.2,285.6,42.7,285.6,43.4z M284.7,43c0-0.3-0.1-0.5-0.2-0.7
		c-0.2-0.3-0.4-0.4-0.7-0.4c-0.3,0-0.5,0.1-0.7,0.3c-0.2,0.2-0.3,0.4-0.3,0.8H284.7z"/>
	<path class="st1" d="M292.4,41.5c0,0.5-0.2,0.9-0.5,1.3c-0.2,0.2-0.5,0.4-0.9,0.5c-0.2,0-0.6,0.1-1,0.1h-0.4v2.1h-1v-5.6h1.5
		c0.5,0,0.8,0,1,0.1c0.3,0.1,0.6,0.2,0.8,0.4C292.2,40.6,292.4,41,292.4,41.5z M291.4,41.5c0-0.3-0.1-0.5-0.3-0.7
		c-0.2-0.2-0.5-0.2-1-0.2h-0.5v1.9h0.4c0.6,0,1-0.1,1.2-0.3S291.4,41.9,291.4,41.5z"/>
	<path class="st1" d="M294.3,45.5h-0.9v-6.1h0.9V45.5z"/>
	<path class="st1" d="M298.5,45.5h-0.8v-0.3c-0.4,0.3-0.8,0.4-1.2,0.4c-0.4,0-0.7-0.1-1-0.4s-0.4-0.6-0.4-0.9c0-1,0.8-1.4,2.3-1.4
		h0.2v-0.2c0-0.3,0-0.4-0.1-0.5c-0.1-0.1-0.3-0.2-0.7-0.2c-0.4,0-0.7,0.1-1.1,0.3l-0.3-0.6c0.1-0.1,0.2-0.2,0.4-0.2
		c0.3-0.1,0.7-0.2,1.1-0.2c0.6,0,1,0.1,1.3,0.4c0.1,0.1,0.2,0.3,0.3,0.5c0,0.1,0,0.4,0,0.7V45.5z M297.6,44.5v-1.1h-0.2
		c-0.6,0-1.1,0.1-1.3,0.3c-0.1,0.1-0.2,0.2-0.2,0.4c0,0.2,0.1,0.4,0.2,0.5c0.1,0.1,0.3,0.2,0.5,0.2C297,44.8,297.3,44.7,297.6,44.5z
		"/>
	<path class="st1" d="M303,45.5h-0.9v-2.2c0-0.5-0.1-0.9-0.2-1c-0.1-0.1-0.3-0.2-0.5-0.2c-0.3,0-0.6,0.1-0.9,0.3v3.1h-0.9v-4.1h0.8
		v0.3c0.4-0.3,0.8-0.4,1.2-0.4c0.4,0,0.8,0.1,1,0.4c0.2,0.2,0.3,0.4,0.4,0.7c0,0.2,0,0.4,0,0.8V45.5z"/>
	<path class="st1" d="M306.8,44.3c0,0.4-0.1,0.7-0.4,0.9c-0.3,0.2-0.7,0.3-1.1,0.3c-0.4,0-0.7-0.1-1.1-0.2c-0.2-0.1-0.4-0.2-0.4-0.2
		l0.3-0.6c0.4,0.2,0.8,0.3,1.1,0.3c0.2,0,0.4,0,0.5-0.1c0.1-0.1,0.2-0.2,0.2-0.4c0-0.1-0.1-0.3-0.2-0.4c-0.1-0.1-0.3-0.2-0.6-0.3
		c-0.3-0.1-0.6-0.3-0.7-0.4c-0.2-0.2-0.4-0.5-0.4-0.8c0-0.4,0.1-0.7,0.4-0.9c0.3-0.2,0.6-0.3,1.1-0.3c0.6,0,1,0.1,1.3,0.4l-0.3,0.6
		c-0.3-0.2-0.6-0.3-1-0.3c-0.4,0-0.7,0.2-0.7,0.5c0,0.1,0.1,0.2,0.2,0.3c0.1,0.1,0.3,0.1,0.5,0.3c0.4,0.2,0.7,0.3,0.8,0.4
		C306.6,43.6,306.8,43.9,306.8,44.3z"/>
</g>
<path class="st0" d="M211.9,45.5c-0.4,0-0.7-0.3-0.7-0.7s0.3-0.7,0.7-0.7c0.4,0,0.7,0.3,0.7,0.7S212.3,45.5,211.9,45.5 M211.9,44.3
	c-0.3,0-0.5,0.2-0.5,0.5s0.2,0.5,0.5,0.5c0.3,0,0.5-0.2,0.5-0.5S212.2,44.3,211.9,44.3 M212.1,45.2L212,45c0-0.1-0.1-0.1-0.2-0.1h0
	v0.3h-0.1v-0.7h0.2c0.1,0,0.2,0,0.2,0.1c0,0,0.1,0.1,0.1,0.2c0,0.1,0,0.1-0.1,0.2c0,0,0.1,0.1,0.1,0.1l0.1,0.3H212.1z M212,44.6
	c0,0-0.1,0-0.1,0h-0.1v0.2c0,0,0.1,0,0.1,0C212,44.7,212,44.7,212,44.6C212,44.6,212,44.6,212,44.6"/>
<rect x="193.9" y="38.4" class="st2" width="113" height="9.7"/>
</svg>
