<?xml version="1.0" encoding="utf-8"?>
<!-- Generator: Adobe Illustrator 25.4.1, SVG Export Plug-In . SVG Version: 6.00 Build 0)  -->
<svg version="1.1" id="Layer_1" xmlns="http://www.w3.org/2000/svg" xmlns:xlink="http://www.w3.org/1999/xlink" x="0px" y="0px"
	 viewBox="0 0 320 50" style="enable-background:new 0 0 320 50;" xml:space="preserve">
<style type="text/css">
	.st0{clip-path:url(#SVGID_00000031180317881891487940000010440941859787007164_);fill:#231F20;}
	.st1{clip-path:url(#SVGID_00000031180317881891487940000010440941859787007164_);fill:#00B2EE;}
</style>
<g>
	<defs>
		<rect id="SVGID_1_" x="232.1" y="24" width="37.9" height="12.9"/>
	</defs>
	<clipPath id="SVGID_00000113329229116521094520000009145826330914601347_">
		<use xlink:href="#SVGID_1_"  style="overflow:visible;"/>
	</clipPath>
	<path style="clip-path:url(#SVGID_00000113329229116521094520000009145826330914601347_);fill:#231F20;" d="M232.3,31h2
		c1.6,0,1.9,1,1.9,1.7c0,0.7-0.3,1.7-1.9,1.7h-1v2.2h-1V31z M233.3,33.6h1c0.4,0,1-0.2,1-0.9c0-0.7-0.4-0.9-1-0.9h-1V33.6z"/>
	<path style="clip-path:url(#SVGID_00000113329229116521094520000009145826330914601347_);fill:#231F20;" d="M236.9,32.5h0.8v0.8h0
		c0.1-0.4,0.6-0.9,1.2-0.9c0.2,0,0.3,0,0.3,0v0.9c-0.1,0-0.3,0-0.4,0c-0.6,0-1.1,0.5-1.1,1.4v1.9h-0.9V32.5z"/>
	<path style="clip-path:url(#SVGID_00000113329229116521094520000009145826330914601347_);fill:#231F20;" d="M239.4,34.6
		c0-1.2,0.8-2.1,2.1-2.1c1.3,0,2.1,0.9,2.1,2.1c0,1.3-0.8,2.2-2.1,2.2C240.1,36.7,239.4,35.8,239.4,34.6 M242.6,34.6
		c0-0.7-0.4-1.4-1.2-1.4c-0.8,0-1.2,0.7-1.2,1.4c0,0.7,0.4,1.4,1.2,1.4C242.2,36,242.6,35.3,242.6,34.6"/>
	<path style="clip-path:url(#SVGID_00000113329229116521094520000009145826330914601347_);fill:#231F20;" d="M243.6,32.5h0.7v-1.2
		h0.9v1.2h0.8v0.7h-0.8v2.2c0,0.4,0,0.6,0.4,0.6c0.1,0,0.3,0,0.4,0v0.7c-0.2,0-0.4,0-0.6,0c-0.9,0-1.1-0.4-1.1-1v-2.4h-0.7V32.5z"/>
	<path style="clip-path:url(#SVGID_00000113329229116521094520000009145826330914601347_);fill:#231F20;" d="M247.3,34.8
		c0,0.6,0.3,1.2,1.1,1.2c0.5,0,0.8-0.2,1-0.7h0.9c-0.2,0.9-1,1.4-1.9,1.4c-1.3,0-2-0.9-2-2.1c0-1.2,0.8-2.2,2-2.2
		c1.3,0,2.1,1.2,1.9,2.4H247.3z M249.4,34.2c0-0.6-0.4-1.1-1-1.1c-0.6,0-1.1,0.5-1.1,1.1H249.4z"/>
	<path style="clip-path:url(#SVGID_00000113329229116521094520000009145826330914601347_);fill:#231F20;" d="M253.7,33.9
		c-0.1-0.5-0.4-0.8-0.9-0.8c-0.5,0-1.1,0.2-1.1,1.5c0,0.7,0.3,1.4,1.1,1.4c0.5,0,0.9-0.3,1-0.9h0.9c-0.2,1.1-0.8,1.6-1.9,1.6
		c-1.3,0-2-0.9-2-2.1c0-1.2,0.7-2.2,2-2.2c0.9,0,1.8,0.5,1.8,1.5H253.7z"/>
	<path style="clip-path:url(#SVGID_00000113329229116521094520000009145826330914601347_);fill:#231F20;" d="M254.9,32.5h0.7v-1.2
		h0.9v1.2h0.8v0.7h-0.8v2.2c0,0.4,0,0.6,0.4,0.6c0.1,0,0.3,0,0.4,0v0.7c-0.2,0-0.4,0-0.6,0c-0.9,0-1.1-0.4-1.1-1v-2.4h-0.7V32.5z"/>
	<path style="clip-path:url(#SVGID_00000113329229116521094520000009145826330914601347_);fill:#231F20;" d="M258.3,31h0.9v0.9h-0.9
		V31z M258.3,32.5h0.9v4.1h-0.9V32.5z"/>
	<polygon style="clip-path:url(#SVGID_00000113329229116521094520000009145826330914601347_);fill:#231F20;" points="259.8,32.5 
		260.8,32.5 262.1,35.7 262.1,35.7 263.3,32.5 264.3,32.5 262.6,36.6 261.6,36.6 	"/>
	<path style="clip-path:url(#SVGID_00000113329229116521094520000009145826330914601347_);fill:#231F20;" d="M265.4,34.8
		c0,0.6,0.3,1.2,1.1,1.2c0.5,0,0.8-0.2,1-0.7h0.9c-0.2,0.9-1,1.4-1.9,1.4c-1.3,0-2-0.9-2-2.1c0-1.2,0.8-2.2,2-2.2
		c1.3,0,2.1,1.2,1.9,2.4H265.4z M267.5,34.2c0-0.6-0.4-1.1-1-1.1c-0.6,0-1.1,0.5-1.1,1.1H267.5z"/>
	<path style="clip-path:url(#SVGID_00000113329229116521094520000009145826330914601347_);fill:#00B2EE;" d="M256.6,30
		c-0.6-2.2-2.4-4-4.6-4.6c-0.2-0.7-0.8-1.2-1.6-1.2c-0.8,0-1.4,0.5-1.6,1.2c-2.2,0.6-4,2.3-4.6,4.6l-0.1,0.3h1.4l0-0.1
		c0.5-1.6,1.8-2.9,3.4-3.4c0.3,0.5,0.8,0.8,1.4,0.8c0.6,0,1.2-0.3,1.4-0.8c1.6,0.5,2.9,1.7,3.4,3.4l0,0.1h1.4L256.6,30z"/>
	<path style="clip-path:url(#SVGID_00000113329229116521094520000009145826330914601347_);fill:#231F20;" d="M269.3,35.9
		c0.2,0,0.4,0.2,0.4,0.4s-0.2,0.4-0.4,0.4c-0.2,0-0.4-0.2-0.4-0.4S269.1,35.9,269.3,35.9 M269.7,36.3c0-0.2-0.1-0.3-0.3-0.3
		c-0.2,0-0.3,0.2-0.3,0.3c0,0.2,0.1,0.3,0.3,0.3C269.5,36.6,269.7,36.5,269.7,36.3 M269.2,36.1h0.2c0.1,0,0.2,0,0.2,0.1
		c0,0.1-0.1,0.1-0.1,0.1l0.1,0.2h-0.1l-0.1-0.2h-0.1v0.2h-0.1V36.1z M269.3,36.3c0.1,0,0.1,0,0.1-0.1c0-0.1-0.1-0.1-0.1-0.1h-0.1
		L269.3,36.3L269.3,36.3z"/>
</g>
</svg>
