<?xml version="1.0" encoding="utf-8"?>
<!-- Generator: Adobe Illustrator 26.5.0, SVG Export Plug-In . SVG Version: 6.00 Build 0)  -->
<svg version="1.1" id="Layer_1" xmlns="http://www.w3.org/2000/svg" xmlns:xlink="http://www.w3.org/1999/xlink" x="0px" y="0px"
	 viewBox="0 0 160 600" style="enable-background:new 0 0 160 600;" xml:space="preserve">
<g>
	<path d="M25.7,187.3l6.1,16.4h-3.7l-1.2-3.7h-6.1l-1.3,3.7h-3.6l6.2-16.4H25.7z M25.9,197.4l-2.1-6h0l-2.1,6H25.9z"/>
	<path d="M35.8,191.8v1.7h0.1c0.4-0.7,1-1.2,1.6-1.5c0.7-0.3,1.3-0.5,2-0.5c0.9,0,1.6,0.1,2.2,0.4c0.6,0.2,1,0.6,1.3,1
		c0.3,0.4,0.5,0.9,0.7,1.5c0.1,0.6,0.2,1.3,0.2,2v7.3h-3.3V197c0-1-0.2-1.7-0.5-2.2s-0.9-0.7-1.6-0.7c-0.9,0-1.5,0.3-1.9,0.8
		c-0.4,0.5-0.6,1.4-0.6,2.6v6.2h-3.3v-11.9H35.8z"/>
	<path d="M54.6,202.2c-0.4,0.6-0.9,1.1-1.5,1.4c-0.6,0.3-1.3,0.4-2.1,0.4c-0.9,0-1.7-0.2-2.3-0.5c-0.7-0.3-1.2-0.8-1.7-1.4
		c-0.4-0.6-0.8-1.3-1-2c-0.2-0.8-0.3-1.6-0.3-2.4c0-0.8,0.1-1.6,0.3-2.3s0.6-1.4,1-2c0.4-0.6,1-1,1.6-1.4c0.7-0.3,1.4-0.5,2.3-0.5
		c0.7,0,1.4,0.1,2,0.4c0.6,0.3,1.1,0.7,1.5,1.3h0v-6h3.3v16.4h-3.1L54.6,202.2L54.6,202.2z M54.4,196.3c-0.1-0.5-0.2-0.9-0.5-1.2
		c-0.2-0.3-0.5-0.6-0.9-0.8c-0.4-0.2-0.8-0.3-1.3-0.3s-1,0.1-1.4,0.3c-0.4,0.2-0.7,0.5-0.9,0.9c-0.2,0.4-0.4,0.8-0.5,1.2
		c-0.1,0.5-0.1,0.9-0.1,1.4c0,0.5,0.1,0.9,0.2,1.4c0.1,0.5,0.3,0.9,0.5,1.2c0.2,0.4,0.5,0.7,0.9,0.9c0.4,0.2,0.8,0.3,1.3,0.3
		c0.5,0,1-0.1,1.3-0.3c0.4-0.2,0.6-0.5,0.9-0.9c0.2-0.4,0.4-0.8,0.5-1.2c0.1-0.5,0.1-0.9,0.1-1.4S54.5,196.8,54.4,196.3z"/>
	<path d="M69.3,191.8v1.5h0c0.4-0.6,0.9-1.1,1.5-1.4c0.6-0.3,1.3-0.4,2-0.4c0.9,0,1.7,0.2,2.4,0.5c0.7,0.4,1.2,0.8,1.7,1.4
		c0.4,0.6,0.8,1.3,1,2c0.2,0.8,0.3,1.6,0.3,2.4c0,0.8-0.1,1.6-0.3,2.3s-0.5,1.4-1,2c-0.4,0.6-1,1-1.6,1.4S73.9,204,73,204
		c-0.7,0-1.4-0.1-2-0.4c-0.6-0.3-1.1-0.7-1.5-1.3h0v5.6h-3.3v-16.1H69.3z M73.5,201.2c0.4-0.2,0.7-0.5,0.9-0.8
		c0.2-0.3,0.4-0.7,0.5-1.2c0.1-0.5,0.1-0.9,0.1-1.4c0-0.5,0-0.9-0.1-1.4c-0.1-0.5-0.3-0.9-0.5-1.2c-0.2-0.4-0.5-0.7-0.9-0.9
		c-0.4-0.2-0.8-0.3-1.3-0.3c-0.5,0-1,0.1-1.3,0.3c-0.4,0.2-0.7,0.5-0.9,0.9c-0.2,0.4-0.4,0.8-0.5,1.2s-0.1,0.9-0.1,1.4
		c0,0.5,0,0.9,0.2,1.4c0.1,0.5,0.3,0.9,0.5,1.2c0.2,0.3,0.5,0.6,0.9,0.8s0.8,0.3,1.3,0.3C72.7,201.6,73.1,201.5,73.5,201.2z"/>
	<path d="M83.1,191.8v2.2h0c0.2-0.4,0.4-0.7,0.6-1c0.3-0.3,0.6-0.6,0.9-0.8c0.3-0.2,0.7-0.4,1.1-0.5c0.4-0.1,0.8-0.2,1.2-0.2
		c0.2,0,0.5,0,0.7,0.1v3c-0.2,0-0.3-0.1-0.6-0.1s-0.4,0-0.6,0c-0.6,0-1.1,0.1-1.5,0.3s-0.7,0.5-1,0.8c-0.3,0.3-0.4,0.7-0.5,1.2
		s-0.2,1-0.2,1.5v5.4H80v-11.9H83.1z"/>
	<path d="M88.4,195.2c0.3-0.8,0.7-1.4,1.2-2c0.5-0.5,1.2-1,1.9-1.3c0.8-0.3,1.6-0.4,2.5-0.4s1.8,0.1,2.5,0.4
		c0.8,0.3,1.4,0.7,1.9,1.3c0.5,0.5,1,1.2,1.2,2c0.3,0.8,0.4,1.6,0.4,2.6c0,1-0.1,1.8-0.4,2.6c-0.3,0.8-0.7,1.4-1.2,2
		c-0.5,0.5-1.2,1-1.9,1.3c-0.8,0.3-1.6,0.4-2.5,0.4s-1.8-0.1-2.5-0.4c-0.8-0.3-1.4-0.7-1.9-1.3c-0.5-0.5-1-1.2-1.2-2
		c-0.3-0.8-0.4-1.6-0.4-2.6C88,196.8,88.1,196,88.4,195.2z M91.4,199.2c0.1,0.5,0.2,0.9,0.5,1.2c0.2,0.4,0.5,0.6,0.9,0.9
		s0.8,0.3,1.4,0.3c0.6,0,1-0.1,1.4-0.3s0.7-0.5,0.9-0.9c0.2-0.4,0.4-0.8,0.5-1.2c0.1-0.5,0.1-0.9,0.1-1.4c0-0.5,0-0.9-0.1-1.4
		c-0.1-0.5-0.2-0.9-0.5-1.2c-0.2-0.4-0.5-0.6-0.9-0.9s-0.8-0.3-1.4-0.3c-0.6,0-1,0.1-1.4,0.3s-0.7,0.5-0.9,0.9
		c-0.2,0.4-0.4,0.8-0.5,1.2c-0.1,0.5-0.1,0.9-0.1,1.4C91.2,198.2,91.3,198.7,91.4,199.2z"/>
	<path d="M108.7,191.8v2.2h-2.4v5.9c0,0.6,0.1,0.9,0.3,1.1c0.2,0.2,0.6,0.3,1.1,0.3c0.2,0,0.4,0,0.5,0c0.2,0,0.3,0,0.5-0.1v2.5
		c-0.3,0-0.6,0.1-0.9,0.1c-0.3,0-0.7,0-1,0c-0.5,0-1,0-1.4-0.1c-0.5-0.1-0.9-0.2-1.2-0.4c-0.3-0.2-0.6-0.5-0.8-0.9
		c-0.2-0.4-0.3-0.9-0.3-1.4v-7h-2v-2.2h2v-3.6h3.3v3.6H108.7z"/>
	<path d="M113.5,200.8c0.5,0.5,1.2,0.7,2.1,0.7c0.7,0,1.2-0.2,1.7-0.5s0.8-0.7,0.9-1h2.9c-0.5,1.4-1.2,2.4-2.1,3.1
		c-1,0.6-2.1,0.9-3.5,0.9c-0.9,0-1.8-0.1-2.5-0.4c-0.8-0.3-1.4-0.7-1.9-1.3c-0.5-0.6-0.9-1.2-1.2-2c-0.3-0.8-0.4-1.6-0.4-2.5
		c0-0.9,0.1-1.7,0.4-2.5c0.3-0.8,0.7-1.4,1.2-2c0.5-0.6,1.2-1,1.9-1.3c0.7-0.3,1.6-0.5,2.5-0.5c1,0,1.9,0.2,2.6,0.6s1.4,0.9,1.9,1.6
		c0.5,0.7,0.8,1.4,1,2.3c0.2,0.8,0.3,1.7,0.2,2.6h-8.6C112.8,199.6,113,200.4,113.5,200.8z M117.2,194.6c-0.4-0.4-1-0.6-1.8-0.6
		c-0.5,0-1,0.1-1.3,0.3s-0.6,0.4-0.8,0.7s-0.4,0.5-0.4,0.8c-0.1,0.3-0.1,0.6-0.1,0.8h5.3C117.9,195.7,117.6,195,117.2,194.6z"/>
	<path d="M128.7,193.9c-0.5,0-1,0.1-1.3,0.4c-0.4,0.2-0.6,0.5-0.9,0.9c-0.2,0.4-0.4,0.8-0.5,1.2c-0.1,0.5-0.1,0.9-0.1,1.3
		c0,0.4,0,0.9,0.1,1.3c0.1,0.4,0.2,0.8,0.4,1.2c0.2,0.4,0.5,0.7,0.8,0.9c0.4,0.2,0.8,0.3,1.3,0.3c0.8,0,1.4-0.2,1.8-0.7
		s0.7-1,0.8-1.8h3.2c-0.2,1.6-0.8,2.8-1.8,3.6c-1,0.8-2.3,1.2-3.9,1.2c-0.9,0-1.7-0.1-2.4-0.4c-0.7-0.3-1.4-0.7-1.9-1.3
		c-0.5-0.5-0.9-1.2-1.2-1.9c-0.3-0.7-0.4-1.6-0.4-2.4c0-0.9,0.1-1.8,0.4-2.6c0.3-0.8,0.7-1.5,1.2-2c0.5-0.6,1.2-1,1.9-1.3
		c0.8-0.3,1.6-0.5,2.6-0.5c0.7,0,1.4,0.1,2,0.3s1.2,0.5,1.7,0.8c0.5,0.4,0.9,0.8,1.3,1.4c0.3,0.6,0.5,1.2,0.6,2h-3.2
		C130.9,194.6,130.1,193.9,128.7,193.9z"/>
	<path d="M142.6,191.8v2.2h-2.4v5.9c0,0.6,0.1,0.9,0.3,1.1c0.2,0.2,0.6,0.3,1.1,0.3c0.2,0,0.4,0,0.5,0c0.2,0,0.3,0,0.5-0.1v2.5
		c-0.3,0-0.6,0.1-0.9,0.1c-0.3,0-0.7,0-1,0c-0.5,0-1,0-1.4-0.1c-0.5-0.1-0.9-0.2-1.2-0.4c-0.3-0.2-0.6-0.5-0.8-0.9
		c-0.2-0.4-0.3-0.9-0.3-1.4v-7h-2v-2.2h2v-3.6h3.3v3.6H142.6z"/>
</g>
<g>
	<path d="M13.7,233.2c-0.6,0.4-1.5,0.6-2.6,0.6c-0.3,0-0.7,0-1,0c-0.3,0-0.7,0-1-0.1V231c0.3,0,0.6,0.1,0.9,0.1c0.3,0,0.6,0,1,0
		c0.4,0,0.7-0.2,1-0.5s0.3-0.6,0.3-1c0-0.3,0-0.5-0.1-0.7L8,217.8h3.5l2.7,8.1h0l2.6-8.1h3.4l-5,13.4
		C14.9,232.1,14.4,232.8,13.7,233.2z"/>
	<path d="M21.1,221.2c0.3-0.8,0.7-1.4,1.2-2c0.5-0.5,1.2-1,1.9-1.3c0.8-0.3,1.6-0.4,2.5-0.4c0.9,0,1.8,0.1,2.5,0.4
		c0.8,0.3,1.4,0.7,1.9,1.3c0.5,0.5,1,1.2,1.2,2c0.3,0.8,0.4,1.6,0.4,2.6c0,1-0.1,1.8-0.4,2.6c-0.3,0.8-0.7,1.4-1.2,2
		c-0.5,0.5-1.2,1-1.9,1.3c-0.8,0.3-1.6,0.4-2.5,0.4c-0.9,0-1.8-0.1-2.5-0.4c-0.8-0.3-1.4-0.7-1.9-1.3c-0.5-0.5-1-1.2-1.2-2
		c-0.3-0.8-0.4-1.6-0.4-2.6C20.7,222.8,20.8,221.9,21.1,221.2z M24.1,225.1c0.1,0.5,0.2,0.9,0.5,1.2c0.2,0.4,0.5,0.6,0.9,0.9
		c0.4,0.2,0.8,0.3,1.4,0.3c0.6,0,1-0.1,1.4-0.3c0.4-0.2,0.7-0.5,0.9-0.9c0.2-0.4,0.4-0.8,0.5-1.2c0.1-0.5,0.1-0.9,0.1-1.4
		c0-0.5,0-0.9-0.1-1.4c-0.1-0.5-0.2-0.9-0.5-1.2c-0.2-0.4-0.5-0.6-0.9-0.9c-0.4-0.2-0.8-0.3-1.4-0.3c-0.6,0-1,0.1-1.4,0.3
		c-0.4,0.2-0.7,0.5-0.9,0.9c-0.2,0.4-0.4,0.8-0.5,1.2c-0.1,0.5-0.1,0.9-0.1,1.4C24,224.2,24,224.7,24.1,225.1z"/>
	<path d="M43,229.7V228h-0.1c-0.4,0.7-1,1.2-1.6,1.5s-1.3,0.5-2,0.5c-0.9,0-1.6-0.1-2.2-0.3c-0.6-0.2-1-0.6-1.3-1
		c-0.3-0.4-0.5-0.9-0.7-1.5c-0.1-0.6-0.2-1.3-0.2-2v-7.3h3.3v6.7c0,1,0.2,1.7,0.5,2.2s0.9,0.7,1.6,0.7c0.9,0,1.5-0.3,1.9-0.8
		c0.4-0.5,0.6-1.4,0.6-2.6v-6.2h3.3v11.9H43z"/>
	<path d="M51.5,217.8v2.2h0c0.2-0.4,0.4-0.7,0.6-1c0.3-0.3,0.6-0.6,0.9-0.8c0.3-0.2,0.7-0.4,1.1-0.5c0.4-0.1,0.8-0.2,1.2-0.2
		c0.2,0,0.5,0,0.7,0.1v3c-0.2,0-0.3-0.1-0.6-0.1c-0.2,0-0.4,0-0.6,0c-0.6,0-1.1,0.1-1.5,0.3s-0.7,0.5-1,0.8s-0.4,0.7-0.5,1.2
		c-0.1,0.5-0.2,1-0.2,1.5v5.4h-3.3v-11.9H51.5z"/>
	<path d="M59.8,226.7c0.1,0.3,0.3,0.5,0.6,0.6s0.5,0.3,0.8,0.4c0.3,0.1,0.6,0.1,0.9,0.1c0.2,0,0.5,0,0.7-0.1s0.5-0.1,0.7-0.3
		c0.2-0.1,0.4-0.3,0.5-0.5c0.1-0.2,0.2-0.4,0.2-0.7c0-0.5-0.3-0.9-1-1.1c-0.7-0.2-1.6-0.5-2.7-0.7c-0.5-0.1-0.9-0.2-1.4-0.4
		c-0.5-0.1-0.9-0.3-1.2-0.6c-0.4-0.2-0.6-0.5-0.9-0.9c-0.2-0.4-0.3-0.8-0.3-1.3c0-0.8,0.1-1.4,0.4-1.9c0.3-0.5,0.7-0.9,1.2-1.2
		c0.5-0.3,1-0.5,1.7-0.6c0.6-0.1,1.2-0.2,1.9-0.2s1.3,0.1,1.9,0.2c0.6,0.1,1.1,0.3,1.6,0.6c0.5,0.3,0.9,0.7,1.2,1.2s0.5,1.1,0.6,1.8
		h-3.1c0-0.6-0.3-1.1-0.7-1.3s-0.9-0.3-1.5-0.3c-0.2,0-0.4,0-0.6,0c-0.2,0-0.4,0.1-0.6,0.1c-0.2,0.1-0.3,0.2-0.4,0.3
		c-0.1,0.1-0.2,0.3-0.2,0.6c0,0.3,0.1,0.5,0.3,0.7s0.5,0.3,0.8,0.4c0.3,0.1,0.7,0.2,1.2,0.3c0.4,0.1,0.9,0.2,1.4,0.3
		c0.5,0.1,0.9,0.2,1.4,0.4c0.5,0.2,0.9,0.4,1.2,0.6c0.4,0.3,0.6,0.6,0.9,0.9c0.2,0.4,0.3,0.8,0.3,1.4c0,0.8-0.2,1.4-0.5,2
		c-0.3,0.5-0.7,1-1.2,1.3c-0.5,0.3-1.1,0.5-1.7,0.7c-0.7,0.1-1.3,0.2-2,0.2c-0.7,0-1.4-0.1-2-0.2c-0.7-0.1-1.2-0.4-1.8-0.7
		c-0.5-0.3-0.9-0.7-1.3-1.3c-0.3-0.5-0.5-1.2-0.5-2h3.1C59.6,226.2,59.7,226.5,59.8,226.7z"/>
	<path d="M72.7,226.8c0.5,0.5,1.2,0.7,2.1,0.7c0.7,0,1.2-0.2,1.7-0.5s0.8-0.7,0.9-1h2.9c-0.5,1.4-1.2,2.4-2.1,3.1
		c-1,0.6-2.1,0.9-3.5,0.9c-0.9,0-1.8-0.1-2.5-0.4c-0.8-0.3-1.4-0.7-1.9-1.3c-0.5-0.6-0.9-1.2-1.2-2c-0.3-0.8-0.4-1.6-0.4-2.5
		c0-0.9,0.1-1.7,0.4-2.5c0.3-0.8,0.7-1.4,1.2-2c0.5-0.6,1.2-1,1.9-1.3c0.7-0.3,1.6-0.5,2.5-0.5c1,0,1.9,0.2,2.6,0.6s1.4,0.9,1.9,1.6
		c0.5,0.7,0.8,1.4,1,2.3c0.2,0.8,0.3,1.7,0.2,2.6h-8.6C72,225.6,72.2,226.4,72.7,226.8z M76.4,220.6c-0.4-0.4-1-0.6-1.8-0.6
		c-0.5,0-1,0.1-1.3,0.3s-0.6,0.4-0.8,0.7s-0.4,0.5-0.4,0.8c-0.1,0.3-0.1,0.6-0.1,0.8h5.3C77.1,221.6,76.8,221,76.4,220.6z"/>
	<path d="M85.6,213.3v16.4h-3.3v-16.4H85.6z"/>
	<path d="M86.7,220v-2.2h2v-0.9c0-1.1,0.3-1.9,1-2.6c0.7-0.7,1.7-1,3-1c0.3,0,0.6,0,0.9,0c0.3,0,0.6,0,0.9,0.1v2.4
		c-0.4,0-0.8-0.1-1.2-0.1c-0.4,0-0.8,0.1-1,0.3c-0.2,0.2-0.3,0.6-0.3,1v0.7h2.3v2.2h-2.3v9.7h-3.3V220H86.7z"/>
	<path d="M100.3,220v-2.2h2v-0.9c0-1.1,0.3-1.9,1-2.6c0.7-0.7,1.7-1,3-1c0.3,0,0.6,0,0.9,0c0.3,0,0.6,0,0.9,0.1v2.4
		c-0.4,0-0.8-0.1-1.2-0.1c-0.4,0-0.8,0.1-1,0.3c-0.2,0.2-0.3,0.6-0.3,1v0.7h2.3v2.2h-2.3v9.7h-3.3V220H100.3z"/>
	<path d="M112.1,217.8v2.2h0c0.2-0.4,0.4-0.7,0.6-1c0.3-0.3,0.6-0.6,0.9-0.8c0.3-0.2,0.7-0.4,1.1-0.5c0.4-0.1,0.8-0.2,1.2-0.2
		c0.2,0,0.5,0,0.7,0.1v3c-0.2,0-0.3-0.1-0.6-0.1s-0.4,0-0.6,0c-0.6,0-1.1,0.1-1.5,0.3s-0.7,0.5-1,0.8c-0.3,0.3-0.4,0.7-0.5,1.2
		s-0.2,1-0.2,1.5v5.4H109v-11.9H112.1z"/>
	<path d="M117.4,221.2c0.3-0.8,0.7-1.4,1.2-2c0.5-0.5,1.2-1,1.9-1.3c0.8-0.3,1.6-0.4,2.5-0.4s1.8,0.1,2.5,0.4
		c0.8,0.3,1.4,0.7,1.9,1.3c0.5,0.5,1,1.2,1.2,2c0.3,0.8,0.4,1.6,0.4,2.6c0,1-0.1,1.8-0.4,2.6c-0.3,0.8-0.7,1.4-1.2,2
		c-0.5,0.5-1.2,1-1.9,1.3c-0.8,0.3-1.6,0.4-2.5,0.4s-1.8-0.1-2.5-0.4c-0.8-0.3-1.4-0.7-1.9-1.3c-0.5-0.5-1-1.2-1.2-2
		c-0.3-0.8-0.4-1.6-0.4-2.6C116.9,222.8,117.1,221.9,117.4,221.2z M120.3,225.1c0.1,0.5,0.2,0.9,0.5,1.2c0.2,0.4,0.5,0.6,0.9,0.9
		s0.8,0.3,1.4,0.3c0.6,0,1-0.1,1.4-0.3s0.7-0.5,0.9-0.9c0.2-0.4,0.4-0.8,0.5-1.2c0.1-0.5,0.1-0.9,0.1-1.4c0-0.5,0-0.9-0.1-1.4
		c-0.1-0.5-0.2-0.9-0.5-1.2c-0.2-0.4-0.5-0.6-0.9-0.9s-0.8-0.3-1.4-0.3c-0.6,0-1,0.1-1.4,0.3s-0.7,0.5-0.9,0.9
		c-0.2,0.4-0.4,0.8-0.5,1.2c-0.1,0.5-0.1,0.9-0.1,1.4C120.2,224.2,120.2,224.7,120.3,225.1z"/>
	<path d="M134.3,217.8v1.6h0c0.4-0.6,0.9-1.1,1.6-1.4c0.6-0.3,1.3-0.5,2.1-0.5c0.8,0,1.4,0.1,2.1,0.4c0.6,0.3,1.1,0.8,1.4,1.5
		c0.4-0.5,0.8-1,1.4-1.4c0.6-0.4,1.3-0.6,2.2-0.6c0.6,0,1.2,0.1,1.7,0.2c0.5,0.2,1,0.4,1.4,0.7c0.4,0.3,0.7,0.8,0.9,1.3
		s0.3,1.2,0.3,2v8h-3.3V223c0-0.4,0-0.8,0-1.1c0-0.4-0.1-0.7-0.3-0.9c-0.1-0.3-0.3-0.5-0.6-0.6c-0.3-0.2-0.6-0.2-1.1-0.2
		s-0.8,0.1-1.1,0.3c-0.3,0.2-0.5,0.4-0.7,0.7c-0.2,0.3-0.3,0.6-0.3,1c-0.1,0.4-0.1,0.7-0.1,1.1v6.6h-3.3V223c0-0.4,0-0.7,0-1
		c0-0.3-0.1-0.7-0.2-1c-0.1-0.3-0.3-0.5-0.6-0.7s-0.7-0.3-1.2-0.3c-0.2,0-0.4,0-0.6,0.1c-0.3,0.1-0.5,0.2-0.7,0.4
		c-0.2,0.2-0.4,0.5-0.6,0.8c-0.2,0.4-0.3,0.8-0.3,1.4v6.9h-3.3v-11.9H134.3z"/>
</g>
<g>
	<path d="M31.8,255.7V254h-0.1c-0.4,0.7-1,1.2-1.6,1.5s-1.3,0.5-2,0.5c-0.9,0-1.6-0.1-2.2-0.3c-0.6-0.2-1-0.6-1.3-1
		c-0.3-0.4-0.5-0.9-0.7-1.5c-0.1-0.6-0.2-1.3-0.2-2v-7.3H27v6.7c0,1,0.2,1.7,0.5,2.2s0.9,0.7,1.6,0.7c0.9,0,1.5-0.3,1.9-0.8
		c0.4-0.5,0.6-1.4,0.6-2.6v-6.2h3.3v11.9H31.8z"/>
	<path d="M40.3,243.8v1.7h0.1c0.4-0.7,1-1.2,1.6-1.5c0.7-0.3,1.3-0.5,2-0.5c0.9,0,1.6,0.1,2.2,0.4c0.6,0.2,1,0.6,1.3,1
		c0.3,0.4,0.5,0.9,0.7,1.5c0.1,0.6,0.2,1.3,0.2,2v7.3h-3.3V249c0-1-0.2-1.7-0.5-2.2S43.7,246,43,246c-0.9,0-1.5,0.3-1.9,0.8
		c-0.4,0.5-0.6,1.4-0.6,2.6v6.2h-3.3v-11.9H40.3z"/>
	<path d="M56.3,245.9c-0.5,0-1,0.1-1.3,0.4c-0.4,0.2-0.6,0.5-0.9,0.9c-0.2,0.4-0.4,0.8-0.5,1.2c-0.1,0.5-0.1,0.9-0.1,1.3
		c0,0.4,0,0.9,0.1,1.3c0.1,0.4,0.2,0.8,0.4,1.2c0.2,0.4,0.5,0.7,0.8,0.9c0.4,0.2,0.8,0.3,1.3,0.3c0.8,0,1.4-0.2,1.8-0.7
		c0.4-0.4,0.7-1,0.8-1.8H62c-0.2,1.6-0.8,2.8-1.8,3.6c-1,0.8-2.3,1.2-3.9,1.2c-0.9,0-1.7-0.1-2.4-0.4c-0.7-0.3-1.4-0.7-1.9-1.3
		c-0.5-0.5-0.9-1.2-1.2-1.9c-0.3-0.7-0.4-1.6-0.4-2.4c0-0.9,0.1-1.8,0.4-2.6c0.3-0.8,0.7-1.5,1.2-2c0.5-0.6,1.2-1,1.9-1.3
		c0.8-0.3,1.6-0.5,2.6-0.5c0.7,0,1.4,0.1,2,0.3c0.7,0.2,1.2,0.5,1.7,0.8c0.5,0.4,0.9,0.8,1.3,1.4c0.3,0.6,0.5,1.2,0.6,2h-3.2
		C58.5,246.6,57.7,245.9,56.3,245.9z"/>
	<path d="M63.7,247.2c0.3-0.8,0.7-1.4,1.2-2c0.5-0.5,1.2-1,1.9-1.3c0.8-0.3,1.6-0.4,2.5-0.4s1.8,0.1,2.5,0.4
		c0.8,0.3,1.4,0.7,1.9,1.3c0.5,0.5,1,1.2,1.2,2c0.3,0.8,0.4,1.6,0.4,2.6c0,1-0.1,1.8-0.4,2.6s-0.7,1.4-1.2,2c-0.5,0.5-1.2,1-1.9,1.3
		c-0.8,0.3-1.6,0.4-2.5,0.4s-1.8-0.1-2.5-0.4c-0.8-0.3-1.4-0.7-1.9-1.3c-0.5-0.5-1-1.2-1.2-2c-0.3-0.8-0.4-1.6-0.4-2.6
		C63.2,248.8,63.4,247.9,63.7,247.2z M66.6,251.1c0.1,0.5,0.2,0.9,0.5,1.2c0.2,0.4,0.5,0.6,0.9,0.9c0.4,0.2,0.8,0.3,1.4,0.3
		s1-0.1,1.4-0.3c0.4-0.2,0.7-0.5,0.9-0.9c0.2-0.4,0.4-0.8,0.5-1.2c0.1-0.5,0.1-0.9,0.1-1.4c0-0.5,0-0.9-0.1-1.4s-0.2-0.9-0.5-1.2
		c-0.2-0.4-0.5-0.6-0.9-0.9c-0.4-0.2-0.8-0.3-1.4-0.3s-1,0.1-1.4,0.3c-0.4,0.2-0.7,0.5-0.9,0.9c-0.2,0.4-0.4,0.8-0.5,1.2
		c-0.1,0.5-0.1,0.9-0.1,1.4C66.5,250.2,66.5,250.7,66.6,251.1z"/>
	<path d="M80.4,255.7l-4.1-11.9h3.4l2.5,8.1h0l2.5-8.1H88l-4,11.9H80.4z"/>
	<path d="M92.7,252.8c0.5,0.5,1.2,0.7,2.1,0.7c0.7,0,1.2-0.2,1.7-0.5s0.8-0.7,0.9-1h2.9c-0.5,1.4-1.2,2.4-2.1,3.1
		c-1,0.6-2.1,0.9-3.5,0.9c-0.9,0-1.8-0.1-2.5-0.4c-0.8-0.3-1.4-0.7-1.9-1.3c-0.5-0.6-0.9-1.2-1.2-2c-0.3-0.8-0.4-1.6-0.4-2.5
		c0-0.9,0.1-1.7,0.4-2.5c0.3-0.8,0.7-1.4,1.2-2c0.5-0.6,1.2-1,1.9-1.3c0.7-0.3,1.6-0.5,2.5-0.5c1,0,1.9,0.2,2.6,0.6s1.4,0.9,1.9,1.6
		c0.5,0.7,0.8,1.4,1,2.3c0.2,0.8,0.3,1.7,0.2,2.6h-8.6C91.9,251.6,92.2,252.4,92.7,252.8z M96.4,246.6c-0.4-0.4-1-0.6-1.8-0.6
		c-0.5,0-1,0.1-1.3,0.3s-0.6,0.4-0.8,0.7s-0.4,0.5-0.4,0.8c-0.1,0.3-0.1,0.6-0.1,0.8h5.3C97,247.6,96.8,247,96.4,246.6z"/>
	<path d="M105.3,243.8v2.2h0c0.2-0.4,0.4-0.7,0.6-1c0.3-0.3,0.6-0.6,0.9-0.8c0.3-0.2,0.7-0.4,1.1-0.5c0.4-0.1,0.8-0.2,1.2-0.2
		c0.2,0,0.5,0,0.7,0.1v3c-0.2,0-0.3-0.1-0.6-0.1s-0.4,0-0.6,0c-0.6,0-1.1,0.1-1.5,0.3s-0.7,0.5-1,0.8c-0.3,0.3-0.4,0.7-0.5,1.2
		s-0.2,1-0.2,1.5v5.4h-3.3v-11.9H105.3z"/>
	<path d="M114,252.8c0.5,0.5,1.2,0.7,2.1,0.7c0.7,0,1.2-0.2,1.7-0.5s0.8-0.7,0.9-1h2.9c-0.5,1.4-1.2,2.4-2.1,3.1
		c-1,0.6-2.1,0.9-3.5,0.9c-0.9,0-1.8-0.1-2.5-0.4c-0.8-0.3-1.4-0.7-1.9-1.3c-0.5-0.6-0.9-1.2-1.2-2c-0.3-0.8-0.4-1.6-0.4-2.5
		c0-0.9,0.1-1.7,0.4-2.5c0.3-0.8,0.7-1.4,1.2-2c0.5-0.6,1.2-1,1.9-1.3c0.7-0.3,1.6-0.5,2.5-0.5c1,0,1.9,0.2,2.6,0.6s1.4,0.9,1.9,1.6
		c0.5,0.7,0.8,1.4,1,2.3c0.2,0.8,0.3,1.7,0.2,2.6h-8.6C113.2,251.6,113.5,252.4,114,252.8z M117.7,246.6c-0.4-0.4-1-0.6-1.8-0.6
		c-0.5,0-1,0.1-1.3,0.3s-0.6,0.4-0.8,0.7s-0.4,0.5-0.4,0.8c-0.1,0.3-0.1,0.6-0.1,0.8h5.3C118.4,247.6,118.1,247,117.7,246.6z"/>
	<path d="M131.9,254.2c-0.4,0.6-0.9,1.1-1.5,1.4s-1.3,0.4-2.1,0.4c-0.9,0-1.7-0.2-2.3-0.5c-0.7-0.3-1.2-0.8-1.7-1.4
		c-0.4-0.6-0.8-1.3-1-2c-0.2-0.8-0.3-1.6-0.3-2.4c0-0.8,0.1-1.6,0.3-2.3s0.6-1.4,1-2c0.4-0.6,1-1,1.6-1.4c0.7-0.3,1.4-0.5,2.3-0.5
		c0.7,0,1.4,0.1,2,0.4c0.6,0.3,1.1,0.7,1.5,1.3h0v-6h3.3v16.4H132L131.9,254.2L131.9,254.2z M131.8,248.3c-0.1-0.5-0.2-0.9-0.5-1.2
		c-0.2-0.3-0.5-0.6-0.9-0.8c-0.4-0.2-0.8-0.3-1.3-0.3c-0.5,0-1,0.1-1.4,0.3c-0.4,0.2-0.7,0.5-0.9,0.9c-0.2,0.4-0.4,0.8-0.5,1.2
		c-0.1,0.5-0.1,0.9-0.1,1.4c0,0.5,0.1,0.9,0.2,1.4s0.3,0.9,0.5,1.2c0.2,0.4,0.5,0.7,0.9,0.9c0.4,0.2,0.8,0.3,1.3,0.3
		c0.5,0,1-0.1,1.3-0.3s0.6-0.5,0.9-0.9c0.2-0.4,0.4-0.8,0.5-1.2s0.1-0.9,0.1-1.4S131.9,248.7,131.8,248.3z"/>
</g>
<g>
	<path d="M41.2,269.8v1.6h0c0.4-0.6,0.9-1.1,1.6-1.4c0.6-0.3,1.3-0.5,2.1-0.5c0.8,0,1.4,0.1,2.1,0.4c0.6,0.3,1.1,0.8,1.4,1.5
		c0.4-0.5,0.8-1,1.4-1.4c0.6-0.4,1.3-0.6,2.2-0.6c0.6,0,1.2,0.1,1.7,0.2s1,0.4,1.4,0.7c0.4,0.3,0.7,0.8,0.9,1.3
		c0.2,0.5,0.3,1.2,0.3,2v8h-3.3v-6.7c0-0.4,0-0.8,0-1.1c0-0.4-0.1-0.7-0.3-0.9c-0.1-0.3-0.3-0.5-0.6-0.6c-0.3-0.2-0.6-0.2-1.1-0.2
		s-0.8,0.1-1.1,0.3c-0.3,0.2-0.5,0.4-0.7,0.7c-0.2,0.3-0.3,0.6-0.3,1s-0.1,0.7-0.1,1.1v6.6h-3.3V275c0-0.4,0-0.7,0-1
		c0-0.3-0.1-0.7-0.2-1c-0.1-0.3-0.3-0.5-0.6-0.7c-0.3-0.2-0.7-0.3-1.2-0.3c-0.2,0-0.4,0-0.6,0.1c-0.3,0.1-0.5,0.2-0.7,0.4
		c-0.2,0.2-0.4,0.5-0.6,0.8c-0.2,0.4-0.3,0.8-0.3,1.4v6.9h-3.3v-11.9H41.2z"/>
	<path d="M62.2,278.8c0.5,0.5,1.2,0.7,2.1,0.7c0.7,0,1.2-0.2,1.7-0.5s0.8-0.7,0.9-1h2.9c-0.5,1.4-1.2,2.4-2.1,3.1
		c-1,0.6-2.1,0.9-3.5,0.9c-0.9,0-1.8-0.1-2.5-0.4c-0.8-0.3-1.4-0.7-1.9-1.3c-0.5-0.6-0.9-1.2-1.2-2s-0.4-1.6-0.4-2.5
		c0-0.9,0.1-1.7,0.4-2.5c0.3-0.8,0.7-1.4,1.2-2c0.5-0.6,1.2-1,1.9-1.3c0.7-0.3,1.6-0.5,2.5-0.5c1,0,1.9,0.2,2.6,0.6s1.4,0.9,1.9,1.6
		c0.5,0.7,0.8,1.4,1,2.3c0.2,0.8,0.3,1.7,0.2,2.6h-8.6C61.4,277.6,61.7,278.3,62.2,278.8z M65.9,272.6c-0.4-0.4-1-0.6-1.8-0.6
		c-0.5,0-1,0.1-1.3,0.3c-0.3,0.2-0.6,0.4-0.8,0.7s-0.4,0.5-0.4,0.8c-0.1,0.3-0.1,0.6-0.1,0.8h5.3C66.5,273.6,66.3,273,65.9,272.6z"
		/>
	<path d="M80.1,280.2c-0.4,0.6-0.9,1.1-1.5,1.4s-1.3,0.4-2.1,0.4c-0.9,0-1.7-0.2-2.3-0.5c-0.7-0.3-1.2-0.8-1.7-1.4
		c-0.4-0.6-0.8-1.3-1-2c-0.2-0.8-0.3-1.6-0.3-2.4c0-0.8,0.1-1.6,0.3-2.3s0.6-1.4,1-2c0.4-0.6,1-1,1.6-1.4c0.7-0.3,1.4-0.5,2.3-0.5
		c0.7,0,1.4,0.1,2,0.4c0.6,0.3,1.1,0.7,1.5,1.3h0v-6h3.3v16.4h-3.1L80.1,280.2L80.1,280.2z M80,274.3c-0.1-0.5-0.2-0.9-0.5-1.2
		c-0.2-0.3-0.5-0.6-0.9-0.8c-0.4-0.2-0.8-0.3-1.3-0.3c-0.5,0-1,0.1-1.4,0.3c-0.4,0.2-0.7,0.5-0.9,0.9c-0.2,0.4-0.4,0.8-0.5,1.2
		c-0.1,0.5-0.1,0.9-0.1,1.4c0,0.5,0.1,0.9,0.2,1.4s0.3,0.9,0.5,1.2c0.2,0.4,0.5,0.7,0.9,0.9c0.4,0.2,0.8,0.3,1.3,0.3
		c0.5,0,1-0.1,1.3-0.3s0.6-0.5,0.9-0.9c0.2-0.4,0.4-0.8,0.5-1.2s0.1-0.9,0.1-1.4S80.1,274.7,80,274.3z"/>
	<path d="M85.6,267.9v-2.7h3.3v2.7H85.6z M88.9,269.8v11.9h-3.3v-11.9H88.9z"/>
	<path d="M96.9,271.9c-0.5,0-1,0.1-1.3,0.4c-0.4,0.2-0.6,0.5-0.9,0.9c-0.2,0.4-0.4,0.8-0.5,1.2c-0.1,0.5-0.1,0.9-0.1,1.3
		c0,0.4,0,0.9,0.1,1.3c0.1,0.4,0.2,0.8,0.4,1.2c0.2,0.4,0.5,0.7,0.8,0.9c0.4,0.2,0.8,0.3,1.3,0.3c0.8,0,1.4-0.2,1.8-0.7
		s0.7-1,0.8-1.8h3.2c-0.2,1.6-0.8,2.8-1.8,3.6c-1,0.8-2.3,1.2-3.9,1.2c-0.9,0-1.7-0.1-2.4-0.4c-0.7-0.3-1.4-0.7-1.9-1.3
		c-0.5-0.5-0.9-1.2-1.2-1.9c-0.3-0.7-0.4-1.6-0.4-2.4c0-0.9,0.1-1.8,0.4-2.6c0.3-0.8,0.7-1.5,1.2-2c0.5-0.6,1.2-1,1.9-1.3
		c0.8-0.3,1.6-0.5,2.6-0.5c0.7,0,1.4,0.1,2,0.3s1.2,0.5,1.7,0.8c0.5,0.4,0.9,0.8,1.3,1.4c0.3,0.6,0.5,1.2,0.6,2h-3.2
		C99.1,272.6,98.3,271.9,96.9,271.9z"/>
	<path d="M104.1,273.4c0-0.8,0.2-1.4,0.6-1.9s0.8-0.9,1.3-1.2s1.1-0.5,1.8-0.7c0.7-0.1,1.3-0.2,2-0.2c0.6,0,1.2,0,1.8,0.1
		c0.6,0.1,1.2,0.2,1.7,0.5c0.5,0.2,0.9,0.6,1.2,1c0.3,0.4,0.5,1,0.5,1.7v6.2c0,0.5,0,1.1,0.1,1.5s0.2,0.9,0.3,1.1H112
		c-0.1-0.2-0.1-0.4-0.1-0.6c0-0.2-0.1-0.4-0.1-0.6c-0.5,0.5-1.1,0.9-1.8,1.1c-0.7,0.2-1.4,0.3-2.2,0.3c-0.6,0-1.1-0.1-1.6-0.2
		c-0.5-0.1-0.9-0.4-1.3-0.6c-0.4-0.3-0.7-0.7-0.9-1.1s-0.3-1-0.3-1.6c0-0.7,0.1-1.2,0.4-1.7c0.2-0.4,0.5-0.8,0.9-1
		c0.4-0.3,0.8-0.5,1.3-0.6c0.5-0.1,1-0.2,1.5-0.3c0.5-0.1,1-0.1,1.4-0.2s0.9-0.1,1.3-0.2c0.4-0.1,0.7-0.2,0.9-0.4s0.3-0.4,0.3-0.8
		c0-0.4-0.1-0.6-0.2-0.8s-0.3-0.4-0.5-0.5c-0.2-0.1-0.4-0.2-0.7-0.2c-0.3,0-0.5-0.1-0.8-0.1c-0.6,0-1.2,0.1-1.5,0.4
		c-0.4,0.3-0.6,0.7-0.6,1.4H104.1z M111.6,275.9c-0.1,0.1-0.3,0.2-0.5,0.3c-0.2,0.1-0.4,0.1-0.7,0.2c-0.2,0-0.5,0.1-0.7,0.1
		c-0.3,0-0.5,0.1-0.8,0.1c-0.2,0-0.5,0.1-0.7,0.2c-0.2,0.1-0.4,0.2-0.6,0.3c-0.2,0.1-0.3,0.3-0.4,0.5c-0.1,0.2-0.2,0.5-0.2,0.8
		c0,0.3,0.1,0.5,0.2,0.7c0.1,0.2,0.3,0.4,0.4,0.5c0.2,0.1,0.4,0.2,0.6,0.2s0.5,0.1,0.8,0.1c0.6,0,1.1-0.1,1.5-0.3
		c0.4-0.2,0.6-0.5,0.8-0.8c0.2-0.3,0.3-0.6,0.3-0.9c0-0.3,0.1-0.6,0.1-0.7V275.9z"/>
	<path d="M120.6,265.2v16.4h-3.3v-16.4H120.6z"/>
</g>
<g>
	<path d="M32.7,304.8c0.5,0.5,1.2,0.7,2.1,0.7c0.7,0,1.2-0.2,1.7-0.5c0.5-0.3,0.8-0.7,0.9-1h2.9c-0.5,1.4-1.2,2.4-2.1,3.1
		S36,308,34.7,308c-0.9,0-1.8-0.1-2.5-0.4c-0.8-0.3-1.4-0.7-1.9-1.3s-0.9-1.2-1.2-2c-0.3-0.8-0.4-1.6-0.4-2.5c0-0.9,0.1-1.7,0.4-2.5
		c0.3-0.8,0.7-1.4,1.2-2c0.5-0.6,1.2-1,1.9-1.3c0.7-0.3,1.6-0.5,2.5-0.5c1,0,1.9,0.2,2.6,0.6s1.4,0.9,1.9,1.6s0.8,1.4,1,2.3
		c0.2,0.8,0.3,1.7,0.2,2.6h-8.6C31.9,303.6,32.2,304.3,32.7,304.8z M36.4,298.6c-0.4-0.4-1-0.6-1.8-0.6c-0.5,0-1,0.1-1.3,0.3
		c-0.3,0.2-0.6,0.4-0.8,0.7s-0.4,0.5-0.4,0.8c-0.1,0.3-0.1,0.6-0.1,0.8h5.3C37,299.6,36.8,299,36.4,298.6z"/>
	<path d="M41.3,295.8H45l2.1,3.1l2.1-3.1h3.6l-3.9,5.6l4.4,6.3h-3.7l-2.5-3.7l-2.5,3.7h-3.7l4.3-6.3L41.3,295.8z"/>
	<path d="M57.4,295.8v1.5h0c0.4-0.6,0.9-1.1,1.5-1.4c0.6-0.3,1.3-0.4,2-0.4c0.9,0,1.7,0.2,2.4,0.5c0.7,0.4,1.2,0.8,1.7,1.4
		c0.4,0.6,0.8,1.3,1,2c0.2,0.8,0.3,1.6,0.3,2.4c0,0.8-0.1,1.6-0.3,2.3c-0.2,0.7-0.5,1.4-1,2c-0.4,0.6-1,1-1.6,1.4
		c-0.7,0.3-1.4,0.5-2.3,0.5c-0.7,0-1.4-0.1-2-0.4s-1.1-0.7-1.5-1.3h0v5.6h-3.3v-16.1H57.4z M61.7,305.2c0.4-0.2,0.7-0.5,0.9-0.8
		c0.2-0.3,0.4-0.7,0.5-1.2s0.1-0.9,0.1-1.4s-0.1-0.9-0.1-1.4c-0.1-0.5-0.3-0.9-0.5-1.2s-0.5-0.7-0.9-0.9s-0.8-0.3-1.3-0.3
		c-0.5,0-1,0.1-1.3,0.3s-0.7,0.5-0.9,0.9c-0.2,0.4-0.4,0.8-0.5,1.2c-0.1,0.5-0.1,0.9-0.1,1.4c0,0.5,0,0.9,0.1,1.4
		c0.1,0.5,0.3,0.9,0.5,1.2c0.2,0.3,0.5,0.6,0.9,0.8c0.4,0.2,0.8,0.3,1.3,0.3C60.9,305.5,61.3,305.4,61.7,305.2z"/>
	<path d="M71.7,304.8c0.5,0.5,1.2,0.7,2.1,0.7c0.7,0,1.2-0.2,1.7-0.5c0.5-0.3,0.8-0.7,0.9-1h2.9c-0.5,1.4-1.2,2.4-2.1,3.1
		c-1,0.6-2.1,0.9-3.5,0.9c-0.9,0-1.8-0.1-2.5-0.4s-1.4-0.7-1.9-1.3s-0.9-1.2-1.2-2c-0.3-0.8-0.4-1.6-0.4-2.5c0-0.9,0.1-1.7,0.4-2.5
		c0.3-0.8,0.7-1.4,1.2-2c0.5-0.6,1.2-1,1.9-1.3c0.7-0.3,1.6-0.5,2.5-0.5c1,0,1.9,0.2,2.6,0.6s1.4,0.9,1.9,1.6c0.5,0.7,0.8,1.4,1,2.3
		c0.2,0.8,0.3,1.7,0.2,2.6h-8.6C70.9,303.6,71.2,304.3,71.7,304.8z M75.4,298.6c-0.4-0.4-1-0.6-1.8-0.6c-0.5,0-1,0.1-1.3,0.3
		s-0.6,0.4-0.8,0.7s-0.4,0.5-0.4,0.8c-0.1,0.3-0.1,0.6-0.1,0.8h5.3C76,299.6,75.8,299,75.4,298.6z"/>
	<path d="M84.3,295.8v1.7h0.1c0.4-0.7,1-1.2,1.6-1.5c0.7-0.3,1.3-0.5,2-0.5c0.9,0,1.6,0.1,2.2,0.4s1,0.6,1.3,1
		c0.3,0.4,0.5,0.9,0.7,1.5c0.1,0.6,0.2,1.3,0.2,2v7.3h-3.3v-6.7c0-1-0.2-1.7-0.5-2.2S87.7,298,87,298c-0.9,0-1.5,0.3-1.9,0.8
		c-0.4,0.5-0.6,1.4-0.6,2.6v6.2h-3.3v-11.9H84.3z"/>
	<path d="M97.3,304.7c0.1,0.3,0.3,0.5,0.6,0.6c0.2,0.2,0.5,0.3,0.8,0.4c0.3,0.1,0.6,0.1,0.9,0.1c0.2,0,0.5,0,0.7-0.1
		s0.5-0.1,0.7-0.3s0.4-0.3,0.5-0.5s0.2-0.4,0.2-0.7c0-0.5-0.3-0.9-1-1.1c-0.7-0.2-1.6-0.5-2.7-0.7c-0.5-0.1-0.9-0.2-1.4-0.4
		s-0.9-0.3-1.2-0.6c-0.4-0.2-0.6-0.5-0.9-0.9s-0.3-0.8-0.3-1.3c0-0.8,0.1-1.4,0.4-1.9s0.7-0.9,1.2-1.2c0.5-0.3,1-0.5,1.7-0.6
		c0.6-0.1,1.2-0.2,1.9-0.2c0.6,0,1.3,0.1,1.9,0.2s1.1,0.3,1.6,0.6c0.5,0.3,0.9,0.7,1.2,1.2c0.3,0.5,0.5,1.1,0.6,1.8h-3.1
		c0-0.6-0.3-1.1-0.7-1.3c-0.4-0.2-0.9-0.3-1.5-0.3c-0.2,0-0.4,0-0.6,0s-0.4,0.1-0.6,0.1c-0.2,0.1-0.3,0.2-0.4,0.3
		c-0.1,0.1-0.2,0.3-0.2,0.6c0,0.3,0.1,0.5,0.3,0.7c0.2,0.2,0.5,0.3,0.8,0.4c0.3,0.1,0.7,0.2,1.2,0.3c0.4,0.1,0.9,0.2,1.4,0.3
		c0.5,0.1,0.9,0.2,1.4,0.4c0.5,0.2,0.9,0.4,1.2,0.6s0.6,0.6,0.9,0.9c0.2,0.4,0.3,0.8,0.3,1.4c0,0.8-0.2,1.4-0.5,2
		c-0.3,0.5-0.7,1-1.2,1.3c-0.5,0.3-1.1,0.5-1.7,0.7c-0.7,0.1-1.3,0.2-2,0.2c-0.7,0-1.4-0.1-2-0.2c-0.7-0.1-1.2-0.4-1.8-0.7
		c-0.5-0.3-0.9-0.7-1.3-1.3c-0.3-0.5-0.5-1.2-0.5-2h3.1C97.1,304.2,97.2,304.5,97.3,304.7z"/>
	<path d="M110.2,304.8c0.5,0.5,1.2,0.7,2.1,0.7c0.7,0,1.2-0.2,1.7-0.5c0.5-0.3,0.8-0.7,0.9-1h2.9c-0.5,1.4-1.2,2.4-2.1,3.1
		c-1,0.6-2.1,0.9-3.5,0.9c-0.9,0-1.8-0.1-2.5-0.4s-1.4-0.7-1.9-1.3s-0.9-1.2-1.2-2c-0.3-0.8-0.4-1.6-0.4-2.5c0-0.9,0.1-1.7,0.4-2.5
		c0.3-0.8,0.7-1.4,1.2-2c0.5-0.6,1.2-1,1.9-1.3c0.7-0.3,1.6-0.5,2.5-0.5c1,0,1.9,0.2,2.6,0.6s1.4,0.9,1.9,1.6c0.5,0.7,0.8,1.4,1,2.3
		c0.2,0.8,0.3,1.7,0.2,2.6h-8.6C109.5,303.6,109.7,304.3,110.2,304.8z M113.9,298.6c-0.4-0.4-1-0.6-1.8-0.6c-0.5,0-1,0.1-1.3,0.3
		s-0.6,0.4-0.8,0.7s-0.4,0.5-0.4,0.8c-0.1,0.3-0.1,0.6-0.1,0.8h5.3C114.6,299.6,114.3,299,113.9,298.6z"/>
	<path d="M122.5,304.7c0.1,0.3,0.3,0.5,0.6,0.6c0.2,0.2,0.5,0.3,0.8,0.4c0.3,0.1,0.6,0.1,0.9,0.1c0.2,0,0.5,0,0.7-0.1
		s0.5-0.1,0.7-0.3s0.4-0.3,0.5-0.5s0.2-0.4,0.2-0.7c0-0.5-0.3-0.9-1-1.1c-0.7-0.2-1.6-0.5-2.7-0.7c-0.5-0.1-0.9-0.2-1.4-0.4
		s-0.9-0.3-1.2-0.6c-0.4-0.2-0.6-0.5-0.9-0.9s-0.3-0.8-0.3-1.3c0-0.8,0.1-1.4,0.4-1.9s0.7-0.9,1.2-1.2c0.5-0.3,1-0.5,1.7-0.6
		c0.6-0.1,1.2-0.2,1.9-0.2c0.6,0,1.3,0.1,1.9,0.2s1.1,0.3,1.6,0.6c0.5,0.3,0.9,0.7,1.2,1.2c0.3,0.5,0.5,1.1,0.6,1.8h-3.1
		c0-0.6-0.3-1.1-0.7-1.3c-0.4-0.2-0.9-0.3-1.5-0.3c-0.2,0-0.4,0-0.6,0s-0.4,0.1-0.6,0.1c-0.2,0.1-0.3,0.2-0.4,0.3
		c-0.1,0.1-0.2,0.3-0.2,0.6c0,0.3,0.1,0.5,0.3,0.7c0.2,0.2,0.5,0.3,0.8,0.4c0.3,0.1,0.7,0.2,1.2,0.3c0.4,0.1,0.9,0.2,1.4,0.3
		c0.5,0.1,0.9,0.2,1.4,0.4c0.5,0.2,0.9,0.4,1.2,0.6s0.6,0.6,0.9,0.9c0.2,0.4,0.3,0.8,0.3,1.4c0,0.8-0.2,1.4-0.5,2
		c-0.3,0.5-0.7,1-1.2,1.3c-0.5,0.3-1.1,0.5-1.7,0.7c-0.7,0.1-1.3,0.2-2,0.2c-0.7,0-1.4-0.1-2-0.2c-0.7-0.1-1.2-0.4-1.8-0.7
		c-0.5-0.3-0.9-0.7-1.3-1.3c-0.3-0.5-0.5-1.2-0.5-2h3.1C122.3,304.2,122.3,304.5,122.5,304.7z"/>
</g>
</svg>
