<?xml version="1.0" encoding="utf-8"?>
<!-- Generator: Adobe Illustrator 26.5.0, SVG Export Plug-In . SVG Version: 6.00 Build 0)  -->
<svg version="1.1" id="Layer_1" xmlns="http://www.w3.org/2000/svg" xmlns:xlink="http://www.w3.org/1999/xlink" x="0px" y="0px"
	 viewBox="0 0 160 600" style="enable-background:new 0 0 160 600;" xml:space="preserve">
<style type="text/css">
	.st0{fill:#349946;}
</style>
<g>
	<path class="st0" d="M54.2,187.3v18.6h-4.1v-18.6H54.2z"/>
	<path class="st0" d="M56,194.9v-2.5h2.2v-1c0-1.2,0.4-2.2,1.1-2.9c0.7-0.8,1.9-1.1,3.4-1.1c0.3,0,0.7,0,1,0s0.7,0,1,0.1v2.8
		c-0.4-0.1-0.9-0.1-1.4-0.1c-0.5,0-0.9,0.1-1.1,0.4c-0.2,0.2-0.3,0.6-0.3,1.2v0.8h2.5v2.5h-2.5v11h-3.7v-11H56z"/>
	<path class="st0" d="M80.6,192.4v2.5h-2.7v6.7c0,0.6,0.1,1,0.3,1.2c0.2,0.2,0.6,0.3,1.2,0.3c0.2,0,0.4,0,0.6,0c0.2,0,0.4,0,0.5-0.1
		v2.9c-0.3,0.1-0.7,0.1-1,0.1c-0.4,0-0.8,0-1.1,0c-0.6,0-1.1,0-1.6-0.1c-0.5-0.1-1-0.2-1.4-0.5c-0.4-0.2-0.7-0.5-0.9-1
		c-0.2-0.4-0.3-1-0.3-1.6v-7.9H72v-2.5h2.2v-4h3.7v4H80.6z"/>
	<path class="st0" d="M86.1,187.3v7h0.1c0.5-0.8,1.1-1.3,1.8-1.7c0.7-0.4,1.4-0.5,2.1-0.5c1,0,1.8,0.1,2.4,0.4
		c0.6,0.3,1.1,0.6,1.5,1.1c0.4,0.5,0.6,1.1,0.8,1.7c0.1,0.7,0.2,1.4,0.2,2.3v8.3h-3.7v-7.6c0-1.1-0.2-1.9-0.5-2.5
		c-0.3-0.5-1-0.8-1.8-0.8c-1,0-1.7,0.3-2.2,0.9c-0.5,0.6-0.7,1.6-0.7,3v7h-3.7v-18.6H86.1z"/>
	<path class="st0" d="M101.8,202.7c0.6,0.5,1.4,0.8,2.4,0.8c0.7,0,1.4-0.2,1.9-0.6c0.5-0.4,0.9-0.8,1-1.2h3.2
		c-0.5,1.6-1.3,2.8-2.4,3.5c-1.1,0.7-2.4,1-3.9,1c-1.1,0-2-0.2-2.9-0.5s-1.6-0.8-2.2-1.4c-0.6-0.6-1-1.4-1.4-2.2
		c-0.3-0.9-0.5-1.8-0.5-2.9c0-1,0.2-1.9,0.5-2.8c0.3-0.9,0.8-1.6,1.4-2.2c0.6-0.6,1.3-1.1,2.2-1.5c0.8-0.4,1.8-0.5,2.8-0.5
		c1.1,0,2.1,0.2,3,0.7c0.8,0.4,1.5,1,2.1,1.8s0.9,1.6,1.2,2.5c0.2,1,0.3,2,0.3,3h-9.7C100.9,201.2,101.2,202.1,101.8,202.7z
		 M105.9,195.6c-0.4-0.5-1.1-0.7-2-0.7c-0.6,0-1.1,0.1-1.5,0.3c-0.4,0.2-0.7,0.4-0.9,0.7c-0.2,0.3-0.4,0.6-0.5,0.9
		c-0.1,0.3-0.2,0.6-0.2,0.9h6C106.7,196.8,106.4,196.1,105.9,195.6z"/>
</g>
<g>
	<path d="M26.9,216.3c0.8,0,1.6,0.1,2.2,0.4c0.7,0.3,1.2,0.6,1.7,1.1c0.5,0.5,0.8,1,1.1,1.6c0.3,0.6,0.4,1.3,0.4,2
		c0,1.1-0.2,2-0.7,2.8s-1.2,1.4-2.2,1.8v0.1c0.5,0.1,0.9,0.4,1.2,0.6c0.3,0.3,0.6,0.6,0.8,1s0.4,0.8,0.5,1.3
		c0.1,0.5,0.2,0.9,0.2,1.4c0,0.3,0,0.6,0.1,1c0,0.4,0,0.8,0.1,1.2c0,0.4,0.1,0.8,0.2,1.2c0.1,0.4,0.2,0.7,0.4,0.9h-4.1
		c-0.2-0.6-0.4-1.3-0.4-2.1c-0.1-0.8-0.1-1.6-0.2-2.3c-0.1-1-0.4-1.7-0.9-2.1c-0.5-0.5-1.2-0.7-2.2-0.7h-4.1v7.3h-4.1v-18.6H26.9z
		 M25.4,224.7c0.9,0,1.6-0.2,2.1-0.6c0.5-0.4,0.7-1.1,0.7-2c0-0.9-0.2-1.6-0.7-2c-0.5-0.4-1.2-0.6-2.1-0.6h-4.5v5.2H25.4z"/>
	<path d="M49.5,216.3v3.4h-9.8v4h9v3.2h-9v4.5h10v3.4H35.6v-18.6H49.5z"/>
	<path d="M51,219.7v-3.4h15.2v3.4h-5.6v15.1h-4.1v-15.1H51z"/>
	<path d="M75.2,216.3l6.9,18.6H78l-1.4-4.1h-6.9l-1.5,4.1H64l7-18.6H75.2z M75.5,227.7l-2.3-6.8h-0.1l-2.4,6.8H75.5z"/>
	<path d="M87.9,216.3v18.6h-4.1v-18.6H87.9z"/>
	<path d="M95.5,216.3l7.7,12.5h0.1v-12.5h3.8v18.6h-4.1l-7.7-12.4h-0.1v12.4h-3.8v-18.6H95.5z"/>
	<path d="M124.6,216.3v3.4h-9.8v4h9v3.2h-9v4.5h10v3.4h-14.1v-18.6H124.6z"/>
	<path d="M137.6,216.3c0.8,0,1.6,0.1,2.2,0.4c0.7,0.3,1.2,0.6,1.7,1.1c0.5,0.5,0.8,1,1.1,1.6c0.3,0.6,0.4,1.3,0.4,2
		c0,1.1-0.2,2-0.7,2.8s-1.2,1.4-2.2,1.8v0.1c0.5,0.1,0.9,0.4,1.2,0.6c0.3,0.3,0.6,0.6,0.8,1c0.2,0.4,0.4,0.8,0.5,1.3
		c0.1,0.5,0.2,0.9,0.2,1.4c0,0.3,0,0.6,0.1,1c0,0.4,0,0.8,0.1,1.2c0,0.4,0.1,0.8,0.2,1.2c0.1,0.4,0.2,0.7,0.4,0.9h-4.1
		c-0.2-0.6-0.4-1.3-0.4-2.1c-0.1-0.8-0.1-1.6-0.2-2.3c-0.1-1-0.4-1.7-0.9-2.1c-0.5-0.5-1.2-0.7-2.2-0.7h-4.1v7.3h-4.1v-18.6H137.6z
		 M136.1,224.7c0.9,0,1.6-0.2,2.1-0.6s0.7-1.1,0.7-2c0-0.9-0.2-1.6-0.7-2s-1.2-0.6-2.1-0.6h-4.5v5.2H136.1z"/>
</g>
<g>
	<path d="M63.1,245.3v3.4h-9v4.3h7.8v3.2h-7.8v7.7h-4.1v-18.6H63.1z"/>
	<path d="M69.6,245.3v18.6h-4.1v-18.6H69.6z"/>
	<path d="M71.7,248.7v-3.4h15.2v3.4h-5.6v15.1h-4.1v-15.1H71.7z"/>
	<path d="M92.2,259.3c0.2,0.4,0.5,0.8,0.9,1.1c0.4,0.3,0.8,0.5,1.3,0.6c0.5,0.1,1,0.2,1.6,0.2c0.4,0,0.8,0,1.2-0.1
		c0.4-0.1,0.8-0.2,1.2-0.4c0.4-0.2,0.7-0.4,0.9-0.7c0.2-0.3,0.4-0.7,0.4-1.2c0-0.5-0.2-0.9-0.5-1.2c-0.3-0.3-0.7-0.6-1.3-0.8
		c-0.5-0.2-1.1-0.4-1.8-0.5c-0.7-0.2-1.3-0.3-2-0.5c-0.7-0.2-1.4-0.4-2-0.6c-0.7-0.3-1.2-0.6-1.8-1c-0.5-0.4-0.9-0.9-1.3-1.5
		c-0.3-0.6-0.5-1.3-0.5-2.2c0-1,0.2-1.8,0.6-2.5c0.4-0.7,0.9-1.3,1.6-1.8c0.7-0.5,1.4-0.8,2.2-1c0.8-0.2,1.7-0.3,2.5-0.3
		c1,0,1.9,0.1,2.8,0.3c0.9,0.2,1.7,0.6,2.4,1.1c0.7,0.5,1.2,1.1,1.7,1.9s0.6,1.7,0.6,2.7h-4c0-0.6-0.2-1-0.4-1.4
		c-0.2-0.4-0.5-0.7-0.8-0.9c-0.3-0.2-0.7-0.4-1.1-0.4c-0.4-0.1-0.9-0.1-1.4-0.1c-0.3,0-0.7,0-1,0.1c-0.3,0.1-0.6,0.2-0.9,0.4
		c-0.3,0.2-0.5,0.4-0.7,0.7c-0.2,0.3-0.3,0.6-0.3,1c0,0.4,0.1,0.7,0.2,0.9c0.1,0.2,0.4,0.4,0.8,0.6c0.4,0.2,1,0.4,1.7,0.6
		c0.7,0.2,1.7,0.4,2.8,0.7c0.3,0.1,0.8,0.2,1.4,0.4s1.2,0.5,1.8,0.9c0.6,0.4,1.1,0.9,1.6,1.6c0.4,0.7,0.7,1.5,0.7,2.6
		c0,0.8-0.2,1.6-0.5,2.4s-0.8,1.4-1.5,1.9c-0.7,0.5-1.5,0.9-2.4,1.2s-2.1,0.4-3.3,0.4c-1,0-2-0.1-3-0.4s-1.8-0.6-2.5-1.2
		c-0.7-0.5-1.3-1.2-1.8-2.1c-0.4-0.8-0.6-1.8-0.6-3h4C91.8,258.3,91.9,258.8,92.2,259.3z"/>
	<path d="M109.8,259.9v4c0,0.6-0.1,1.1-0.3,1.6s-0.5,0.9-0.9,1.3c-0.4,0.4-0.8,0.7-1.3,0.9c-0.5,0.2-1,0.4-1.6,0.5v-1.9
		c0.3-0.1,0.5-0.2,0.7-0.3c0.2-0.2,0.4-0.3,0.6-0.6s0.3-0.5,0.4-0.7s0.1-0.5,0.1-0.8h-1.9v-4H109.8z"/>
</g>
<g>
	<path class="st0" d="M38.7,292.8l-3.1-12.6h-0.1l-3.1,12.6h-4.1l-4.9-18.6h4.1l2.9,12.6h0.1l3.2-12.6h3.8l3.2,12.8h0.1l3-12.8h4
		l-5,18.6H38.7z"/>
	<path class="st0" d="M63.5,274.3v3.4h-9.8v4h9v3.2h-9v4.5h10v3.4H49.6v-18.6H63.5z"/>
	<path class="st0" d="M75.7,274.3l6.9,18.6h-4.2l-1.4-4.1h-6.9l-1.5,4.1h-4.1l7-18.6H75.7z M75.9,285.7l-2.3-6.8h-0.1l-2.4,6.8H75.9
		z"/>
	<path class="st0" d="M94.3,274.3c0.8,0,1.6,0.1,2.2,0.4c0.7,0.3,1.2,0.6,1.7,1.1c0.5,0.5,0.8,1,1.1,1.6c0.3,0.6,0.4,1.3,0.4,2
		c0,1.1-0.2,2-0.7,2.8s-1.2,1.4-2.2,1.8v0.1c0.5,0.1,0.9,0.4,1.2,0.6c0.3,0.3,0.6,0.6,0.8,1c0.2,0.4,0.4,0.8,0.5,1.3
		c0.1,0.5,0.2,0.9,0.2,1.4c0,0.3,0,0.6,0.1,1c0,0.4,0,0.8,0.1,1.2c0,0.4,0.1,0.8,0.2,1.2c0.1,0.4,0.2,0.7,0.4,0.9h-4.1
		c-0.2-0.6-0.4-1.3-0.4-2.1c-0.1-0.8-0.1-1.6-0.2-2.3c-0.1-1-0.4-1.7-0.9-2.1c-0.5-0.5-1.2-0.7-2.2-0.7h-4.1v7.3h-4.1v-18.6H94.3z
		 M92.8,282.7c0.9,0,1.6-0.2,2.1-0.6s0.7-1.1,0.7-2c0-0.9-0.2-1.6-0.7-2s-1.2-0.6-2.1-0.6h-4.5v5.2H92.8z"/>
	<path class="st0" d="M114.3,274.3v18.6h-4.1v-18.6H114.3z"/>
	<path class="st0" d="M116.5,277.7v-3.4h15.2v3.4h-5.6v15.1H122v-15.1H116.5z"/>
	<path class="st0" d="M134.8,288.8v4h-4.1v-4H134.8z"/>
</g>
</svg>
