<?xml version="1.0" encoding="utf-8"?>
<!-- Generator: Adobe Illustrator 26.5.0, SVG Export Plug-In . SVG Version: 6.00 Build 0)  -->
<svg version="1.1" id="Layer_1" xmlns="http://www.w3.org/2000/svg" xmlns:xlink="http://www.w3.org/1999/xlink" x="0px" y="0px"
	 viewBox="0 0 160 600" style="enable-background:new 0 0 160 600;" xml:space="preserve">
<style type="text/css">
	.st0{fill:#349946;}
</style>
<g>
	<path class="st0" d="M34.5,187.4c1.2,0,2.1,0.2,3,0.5c0.8,0.3,1.5,0.8,2,1.3c0.5,0.6,0.9,1.2,1.1,1.9c0.2,0.7,0.4,1.4,0.4,2.2
		c0,0.7-0.1,1.5-0.4,2.2c-0.2,0.7-0.6,1.4-1.1,1.9c-0.5,0.6-1.2,1-2,1.3c-0.8,0.3-1.8,0.5-3,0.5h-4.3v6.7h-4.1v-18.6H34.5z
		 M33.4,196.1c0.5,0,0.9,0,1.4-0.1c0.4-0.1,0.8-0.2,1.1-0.4c0.3-0.2,0.6-0.5,0.8-0.8c0.2-0.4,0.3-0.8,0.3-1.4s-0.1-1.1-0.3-1.4
		c-0.2-0.4-0.5-0.6-0.8-0.8c-0.3-0.2-0.7-0.3-1.1-0.4c-0.4-0.1-0.9-0.1-1.4-0.1h-3.2v5.6H33.4z"/>
	<path class="st0" d="M46.6,192.5v2.5h0.1c0.2-0.4,0.4-0.8,0.7-1.2c0.3-0.4,0.6-0.7,1-0.9c0.4-0.3,0.8-0.4,1.2-0.6
		c0.4-0.1,0.9-0.2,1.4-0.2c0.2,0,0.5,0,0.8,0.1v3.4c-0.2,0-0.4-0.1-0.6-0.1c-0.2,0-0.5,0-0.7,0c-0.7,0-1.2,0.1-1.7,0.3
		c-0.5,0.2-0.8,0.5-1.1,0.9c-0.3,0.4-0.5,0.8-0.6,1.4s-0.2,1.1-0.2,1.7v6.1h-3.7v-13.4H46.6z"/>
	<path class="st0" d="M53,196.6c0.1-0.9,0.3-1.6,0.6-2.2c0.4-0.6,0.9-1,1.5-1.4c0.6-0.3,1.3-0.6,2-0.7c0.7-0.1,1.5-0.2,2.2-0.2
		c0.7,0,1.4,0,2.1,0.1c0.7,0.1,1.3,0.3,1.9,0.6c0.6,0.3,1,0.7,1.4,1.2c0.4,0.5,0.5,1.1,0.5,2v7c0,0.6,0,1.2,0.1,1.7
		c0.1,0.6,0.2,1,0.4,1.2H62c-0.1-0.2-0.1-0.4-0.2-0.6c0-0.2-0.1-0.4-0.1-0.7c-0.6,0.6-1.3,1-2.1,1.3c-0.8,0.2-1.6,0.4-2.4,0.4
		c-0.6,0-1.2-0.1-1.8-0.2s-1-0.4-1.5-0.7c-0.4-0.3-0.7-0.7-1-1.2c-0.2-0.5-0.4-1.1-0.4-1.8c0-0.8,0.1-1.4,0.4-1.9
		c0.3-0.5,0.6-0.9,1-1.2c0.4-0.3,0.9-0.5,1.5-0.7c0.5-0.1,1.1-0.3,1.7-0.4c0.6-0.1,1.1-0.2,1.6-0.2c0.5-0.1,1-0.1,1.4-0.2
		c0.4-0.1,0.7-0.3,1-0.5c0.2-0.2,0.4-0.5,0.3-0.9c0-0.4-0.1-0.7-0.2-0.9c-0.1-0.2-0.3-0.4-0.5-0.5c-0.2-0.1-0.5-0.2-0.8-0.3
		c-0.3,0-0.6-0.1-0.9-0.1c-0.7,0-1.3,0.2-1.7,0.5s-0.7,0.8-0.7,1.6H53z M61.6,199.3c-0.2,0.1-0.4,0.2-0.6,0.3s-0.5,0.1-0.8,0.2
		c-0.3,0.1-0.6,0.1-0.8,0.1c-0.3,0-0.6,0.1-0.9,0.1c-0.3,0.1-0.6,0.1-0.8,0.2c-0.3,0.1-0.5,0.2-0.7,0.4c-0.2,0.1-0.4,0.3-0.5,0.6
		c-0.1,0.2-0.2,0.5-0.2,0.9c0,0.3,0.1,0.6,0.2,0.8c0.1,0.2,0.3,0.4,0.5,0.5s0.5,0.2,0.7,0.3c0.3,0.1,0.6,0.1,0.9,0.1
		c0.7,0,1.3-0.1,1.7-0.4c0.4-0.2,0.7-0.5,0.9-0.9c0.2-0.3,0.3-0.7,0.3-1c0-0.3,0.1-0.6,0.1-0.8V199.3z"/>
	<path class="st0" d="M74.5,194.9c-0.6,0-1.1,0.1-1.5,0.4c-0.4,0.3-0.7,0.6-1,1c-0.3,0.4-0.4,0.9-0.5,1.4c-0.1,0.5-0.2,1-0.2,1.5
		c0,0.5,0.1,1,0.2,1.5c0.1,0.5,0.3,1,0.5,1.4c0.2,0.4,0.5,0.7,0.9,1c0.4,0.3,0.9,0.4,1.5,0.4c0.9,0,1.6-0.2,2-0.7
		c0.5-0.5,0.8-1.2,0.9-2H81c-0.2,1.8-0.9,3.1-2.1,4.1s-2.6,1.4-4.4,1.4c-1,0-1.9-0.2-2.8-0.5s-1.6-0.8-2.1-1.4
		c-0.6-0.6-1-1.3-1.4-2.2c-0.3-0.8-0.5-1.8-0.5-2.8c0-1,0.2-2,0.5-2.9c0.3-0.9,0.7-1.7,1.3-2.3c0.6-0.7,1.3-1.2,2.2-1.5
		c0.8-0.4,1.8-0.5,2.9-0.5c0.8,0,1.6,0.1,2.3,0.3c0.7,0.2,1.4,0.5,2,0.9s1.1,1,1.4,1.6c0.4,0.6,0.6,1.4,0.6,2.2h-3.6
		C77,195.7,76.1,194.9,74.5,194.9z"/>
	<path class="st0" d="M90.4,192.5v2.5h-2.7v6.7c0,0.6,0.1,1,0.3,1.2c0.2,0.2,0.6,0.3,1.2,0.3c0.2,0,0.4,0,0.6,0c0.2,0,0.4,0,0.5-0.1
		v2.9c-0.3,0.1-0.7,0.1-1,0.1c-0.4,0-0.8,0-1.1,0c-0.6,0-1.1,0-1.6-0.1c-0.5-0.1-1-0.2-1.4-0.5c-0.4-0.2-0.7-0.5-0.9-1
		c-0.2-0.4-0.3-1-0.3-1.6V195h-2.2v-2.5H84v-4h3.7v4H90.4z"/>
	<path class="st0" d="M92.3,190.4v-3H96v3H92.3z M96,192.5v13.4h-3.7v-13.4H96z"/>
	<path class="st0" d="M105.3,194.9c-0.6,0-1.1,0.1-1.5,0.4c-0.4,0.3-0.7,0.6-1,1c-0.3,0.4-0.4,0.9-0.5,1.4c-0.1,0.5-0.2,1-0.2,1.5
		c0,0.5,0.1,1,0.2,1.5c0.1,0.5,0.3,1,0.5,1.4c0.2,0.4,0.5,0.7,0.9,1c0.4,0.3,0.9,0.4,1.5,0.4c0.9,0,1.6-0.2,2-0.7
		c0.5-0.5,0.8-1.2,0.9-2h3.6c-0.2,1.8-0.9,3.1-2.1,4.1s-2.6,1.4-4.4,1.4c-1,0-1.9-0.2-2.8-0.5s-1.6-0.8-2.1-1.4
		c-0.6-0.6-1-1.3-1.4-2.2c-0.3-0.8-0.5-1.8-0.5-2.8c0-1,0.2-2,0.5-2.9c0.3-0.9,0.7-1.7,1.3-2.3c0.6-0.7,1.3-1.2,2.2-1.5
		c0.8-0.4,1.8-0.5,2.9-0.5c0.8,0,1.6,0.1,2.3,0.3c0.7,0.2,1.4,0.5,2,0.9s1.1,1,1.4,1.6c0.4,0.6,0.6,1.4,0.6,2.2h-3.6
		C107.8,195.7,106.9,194.9,105.3,194.9z"/>
	<path class="st0" d="M113.7,196.6c0.1-0.9,0.3-1.6,0.7-2.2c0.4-0.6,0.9-1,1.5-1.4c0.6-0.3,1.3-0.6,2-0.7c0.7-0.1,1.5-0.2,2.2-0.2
		c0.7,0,1.4,0,2.1,0.1c0.7,0.1,1.3,0.3,1.9,0.6c0.6,0.3,1,0.7,1.4,1.2c0.4,0.5,0.5,1.1,0.5,2v7c0,0.6,0,1.2,0.1,1.7
		c0.1,0.6,0.2,1,0.4,1.2h-3.7c-0.1-0.2-0.1-0.4-0.2-0.6c0-0.2-0.1-0.4-0.1-0.7c-0.6,0.6-1.3,1-2.1,1.3c-0.8,0.2-1.6,0.4-2.4,0.4
		c-0.6,0-1.2-0.1-1.8-0.2c-0.6-0.2-1-0.4-1.5-0.7c-0.4-0.3-0.7-0.7-1-1.2c-0.2-0.5-0.4-1.1-0.4-1.8c0-0.8,0.1-1.4,0.4-1.9
		c0.3-0.5,0.6-0.9,1-1.2c0.4-0.3,0.9-0.5,1.5-0.7c0.5-0.1,1.1-0.3,1.7-0.4c0.6-0.1,1.1-0.2,1.6-0.2c0.5-0.1,1-0.1,1.4-0.2
		s0.7-0.3,1-0.5c0.2-0.2,0.4-0.5,0.3-0.9c0-0.4-0.1-0.7-0.2-0.9c-0.1-0.2-0.3-0.4-0.5-0.5c-0.2-0.1-0.5-0.2-0.8-0.3
		c-0.3,0-0.6-0.1-0.9-0.1c-0.7,0-1.3,0.2-1.7,0.5s-0.7,0.8-0.7,1.6H113.7z M122.2,199.3c-0.2,0.1-0.4,0.2-0.6,0.3
		c-0.2,0.1-0.5,0.1-0.8,0.2c-0.3,0.1-0.5,0.1-0.8,0.1c-0.3,0-0.6,0.1-0.9,0.1c-0.3,0.1-0.6,0.1-0.8,0.2s-0.5,0.2-0.7,0.4
		s-0.4,0.3-0.5,0.6c-0.1,0.2-0.2,0.5-0.2,0.9c0,0.3,0.1,0.6,0.2,0.8c0.1,0.2,0.3,0.4,0.5,0.5s0.5,0.2,0.7,0.3
		c0.3,0.1,0.6,0.1,0.9,0.1c0.7,0,1.3-0.1,1.7-0.4c0.4-0.2,0.7-0.5,0.9-0.9c0.2-0.3,0.3-0.7,0.4-1c0-0.3,0.1-0.6,0.1-0.8V199.3z"/>
	<path class="st0" d="M132.6,187.4v18.6h-3.7v-18.6H132.6z"/>
</g>
<g>
	<path class="st0" d="M23.4,234.9l-3.1-12.6h-0.1l-3.1,12.6H13l-4.9-18.6h4.1l2.9,12.6h0.1l3.2-12.6h3.8l3.2,12.8h0.1l3-12.8h4
		l-5,18.6H23.4z"/>
	<path class="st0" d="M34,219.4v-3h3.7v3H34z M37.7,221.5v13.4H34v-13.4H37.7z"/>
	<path class="st0" d="M43.7,231.6c0.2,0.3,0.4,0.5,0.6,0.7c0.3,0.2,0.6,0.3,0.9,0.4s0.7,0.1,1.1,0.1c0.3,0,0.5,0,0.8-0.1
		s0.5-0.2,0.8-0.3c0.2-0.1,0.4-0.3,0.6-0.5c0.2-0.2,0.2-0.5,0.2-0.8c0-0.6-0.4-1-1.1-1.2c-0.7-0.3-1.8-0.6-3.1-0.8
		c-0.5-0.1-1.1-0.3-1.6-0.4c-0.5-0.2-1-0.4-1.4-0.6c-0.4-0.3-0.7-0.6-1-1c-0.2-0.4-0.4-0.9-0.4-1.5c0-0.9,0.2-1.6,0.5-2.1
		c0.3-0.6,0.8-1,1.3-1.3c0.6-0.3,1.2-0.5,1.9-0.7c0.7-0.1,1.4-0.2,2.1-0.2s1.4,0.1,2.1,0.2c0.7,0.1,1.3,0.4,1.8,0.7
		c0.5,0.3,1,0.8,1.3,1.3c0.4,0.5,0.6,1.2,0.6,2.1h-3.5c-0.1-0.7-0.3-1.2-0.8-1.4c-0.5-0.3-1.1-0.4-1.7-0.4c-0.2,0-0.4,0-0.7,0
		c-0.2,0-0.5,0.1-0.7,0.2c-0.2,0.1-0.4,0.2-0.5,0.4c-0.1,0.2-0.2,0.4-0.2,0.7c0,0.3,0.1,0.6,0.4,0.8c0.2,0.2,0.6,0.4,0.9,0.5
		c0.4,0.1,0.8,0.2,1.3,0.4c0.5,0.1,1,0.2,1.5,0.3c0.5,0.1,1.1,0.3,1.6,0.4c0.5,0.2,1,0.4,1.4,0.7s0.7,0.6,1,1.1
		c0.2,0.4,0.4,0.9,0.4,1.6c0,0.9-0.2,1.6-0.5,2.2c-0.4,0.6-0.8,1.1-1.4,1.4c-0.6,0.4-1.2,0.6-2,0.8c-0.7,0.1-1.5,0.2-2.2,0.2
		c-0.8,0-1.5-0.1-2.3-0.2c-0.7-0.2-1.4-0.4-2-0.8c-0.6-0.4-1.1-0.8-1.4-1.4c-0.4-0.6-0.6-1.3-0.6-2.2h3.5
		C43.5,230.9,43.6,231.3,43.7,231.6z"/>
	<path class="st0" d="M64.1,233.2c-0.4,0.7-1,1.3-1.7,1.6c-0.7,0.3-1.5,0.5-2.4,0.5c-1,0-1.9-0.2-2.7-0.6s-1.4-0.9-1.9-1.6
		c-0.5-0.7-0.9-1.4-1.1-2.3c-0.3-0.9-0.4-1.8-0.4-2.7c0-0.9,0.1-1.8,0.4-2.6c0.3-0.8,0.6-1.6,1.1-2.2c0.5-0.6,1.1-1.2,1.9-1.5
		c0.7-0.4,1.6-0.6,2.6-0.6c0.8,0,1.6,0.2,2.3,0.5c0.7,0.3,1.3,0.8,1.7,1.5H64v-6.8h3.7v18.6h-3.5L64.1,233.2L64.1,233.2z M64,226.6
		c-0.1-0.5-0.3-1-0.5-1.4s-0.6-0.7-1-0.9c-0.4-0.2-0.9-0.4-1.5-0.4c-0.6,0-1.1,0.1-1.5,0.4c-0.4,0.2-0.8,0.6-1,1
		c-0.3,0.4-0.4,0.9-0.5,1.4c-0.1,0.5-0.2,1-0.2,1.6c0,0.5,0.1,1,0.2,1.6c0.1,0.5,0.3,1,0.6,1.4c0.3,0.4,0.6,0.7,1,1
		c0.4,0.3,0.9,0.4,1.5,0.4c0.6,0,1.1-0.1,1.5-0.4c0.4-0.2,0.7-0.6,1-1c0.2-0.4,0.4-0.9,0.5-1.4c0.1-0.5,0.2-1.1,0.2-1.6
		S64.1,227.1,64,226.6z"/>
	<path class="st0" d="M70.6,225.3c0.3-0.9,0.8-1.6,1.4-2.2c0.6-0.6,1.3-1.1,2.2-1.4c0.8-0.3,1.8-0.5,2.9-0.5s2,0.2,2.9,0.5
		c0.9,0.3,1.6,0.8,2.2,1.4c0.6,0.6,1.1,1.4,1.4,2.2c0.3,0.9,0.5,1.9,0.5,2.9s-0.2,2-0.5,2.9c-0.3,0.9-0.8,1.6-1.4,2.2
		c-0.6,0.6-1.3,1.1-2.2,1.4c-0.9,0.3-1.8,0.5-2.9,0.5s-2-0.2-2.9-0.5c-0.8-0.3-1.6-0.8-2.2-1.4c-0.6-0.6-1.1-1.4-1.4-2.2
		c-0.3-0.9-0.5-1.8-0.5-2.9S70.2,226.2,70.6,225.3z M73.9,229.8c0.1,0.5,0.3,1,0.5,1.4c0.3,0.4,0.6,0.7,1,1c0.4,0.2,0.9,0.4,1.6,0.4
		s1.1-0.1,1.6-0.4c0.4-0.2,0.8-0.6,1-1s0.4-0.9,0.5-1.4c0.1-0.5,0.2-1,0.2-1.6c0-0.5-0.1-1.1-0.2-1.6c-0.1-0.5-0.3-1-0.5-1.4
		c-0.3-0.4-0.6-0.7-1-1c-0.4-0.3-0.9-0.4-1.6-0.4s-1.1,0.1-1.6,0.4c-0.4,0.3-0.8,0.6-1,1c-0.3,0.4-0.4,0.9-0.5,1.4
		c-0.1,0.5-0.2,1-0.2,1.6C73.8,228.7,73.8,229.3,73.9,229.8z"/>
	<path class="st0" d="M90,221.5v1.8H90c0.5-0.7,1.1-1.2,1.8-1.6s1.5-0.6,2.4-0.6c0.8,0,1.6,0.2,2.3,0.5c0.7,0.3,1.2,0.9,1.6,1.7
		c0.4-0.6,0.9-1.1,1.6-1.6c0.7-0.5,1.5-0.7,2.4-0.7c0.7,0,1.4,0.1,2,0.3c0.6,0.2,1.1,0.5,1.6,0.8s0.8,0.9,1,1.5
		c0.2,0.6,0.4,1.4,0.4,2.2v9h-3.7v-7.6c0-0.5,0-0.9-0.1-1.3c0-0.4-0.1-0.7-0.3-1c-0.2-0.3-0.4-0.5-0.7-0.7c-0.3-0.2-0.7-0.3-1.2-0.3
		c-0.5,0-0.9,0.1-1.3,0.3c-0.3,0.2-0.6,0.5-0.8,0.8s-0.3,0.7-0.4,1.1c-0.1,0.4-0.1,0.8-0.1,1.2v7.5h-3.7v-7.5c0-0.4,0-0.8,0-1.2
		c0-0.4-0.1-0.7-0.2-1.1c-0.1-0.3-0.3-0.6-0.6-0.8c-0.3-0.2-0.8-0.3-1.3-0.3c-0.2,0-0.4,0-0.7,0.1c-0.3,0.1-0.6,0.2-0.8,0.4
		s-0.5,0.5-0.7,0.9c-0.2,0.4-0.3,0.9-0.3,1.6v7.8h-3.7v-13.4H90z"/>
	<path class="st0" d="M115.8,223.9v-2.5h2.2v-1c0-1.2,0.4-2.2,1.1-2.9s1.9-1.1,3.4-1.1c0.3,0,0.7,0,1,0c0.3,0,0.6,0,1,0.1v2.8
		c-0.4-0.1-0.9-0.1-1.4-0.1c-0.5,0-0.9,0.1-1.1,0.4c-0.2,0.2-0.3,0.6-0.3,1.2v0.8h2.5v2.5h-2.5v11H118v-11H115.8z"/>
	<path class="st0" d="M125.9,225.3c0.3-0.9,0.8-1.6,1.4-2.2c0.6-0.6,1.3-1.1,2.2-1.4c0.8-0.3,1.8-0.5,2.9-0.5s2,0.2,2.9,0.5
		c0.9,0.3,1.6,0.8,2.2,1.4c0.6,0.6,1.1,1.4,1.4,2.2c0.3,0.9,0.5,1.9,0.5,2.9s-0.2,2-0.5,2.9c-0.3,0.9-0.8,1.6-1.4,2.2
		c-0.6,0.6-1.3,1.1-2.2,1.4c-0.9,0.3-1.8,0.5-2.9,0.5s-2-0.2-2.9-0.5c-0.8-0.3-1.6-0.8-2.2-1.4c-0.6-0.6-1.1-1.4-1.4-2.2
		c-0.3-0.9-0.5-1.8-0.5-2.9S125.6,226.2,125.9,225.3z M129.2,229.8c0.1,0.5,0.3,1,0.5,1.4c0.3,0.4,0.6,0.7,1,1
		c0.4,0.2,0.9,0.4,1.6,0.4s1.1-0.1,1.6-0.4c0.4-0.2,0.8-0.6,1-1s0.4-0.9,0.5-1.4c0.1-0.5,0.2-1,0.2-1.6c0-0.5-0.1-1.1-0.2-1.6
		c-0.1-0.5-0.3-1-0.5-1.4c-0.3-0.4-0.6-0.7-1-1c-0.4-0.3-0.9-0.4-1.6-0.4s-1.1,0.1-1.6,0.4c-0.4,0.3-0.8,0.6-1,1
		c-0.3,0.4-0.4,0.9-0.5,1.4c-0.1,0.5-0.2,1-0.2,1.6C129.1,228.7,129.1,229.3,129.2,229.8z"/>
	<path class="st0" d="M145.2,221.5v2.5h0.1c0.2-0.4,0.4-0.8,0.7-1.2c0.3-0.4,0.6-0.7,1-0.9c0.4-0.3,0.8-0.4,1.2-0.6
		c0.4-0.1,0.9-0.2,1.4-0.2c0.2,0,0.5,0,0.8,0.1v3.4c-0.2,0-0.4-0.1-0.6-0.1c-0.2,0-0.5,0-0.7,0c-0.7,0-1.2,0.1-1.7,0.3
		c-0.5,0.2-0.8,0.5-1.1,0.9c-0.3,0.4-0.5,0.8-0.6,1.4c-0.1,0.5-0.2,1.1-0.2,1.7v6.1h-3.7v-13.4H145.2z"/>
</g>
<g>
	<path class="st0" d="M37.7,245.3c1.2,0,2.3,0.2,3.3,0.6c1,0.4,1.9,1,2.7,1.7c0.8,0.8,1.3,1.7,1.8,2.9s0.6,2.5,0.6,4
		c0,1.4-0.2,2.6-0.5,3.7c-0.3,1.1-0.9,2.1-1.6,3c-0.7,0.8-1.6,1.5-2.6,2s-2.3,0.7-3.7,0.7h-8v-18.6H37.7z M37.4,260.5
		c0.6,0,1.2-0.1,1.7-0.3s1-0.5,1.5-0.9s0.8-1,1-1.7c0.3-0.7,0.4-1.6,0.4-2.6c0-0.9-0.1-1.8-0.3-2.5c-0.2-0.8-0.5-1.4-0.9-1.9
		s-1-0.9-1.7-1.2c-0.7-0.3-1.5-0.4-2.5-0.4h-2.9v11.7H37.4z"/>
	<path class="st0" d="M52.6,260.7c0.6,0.5,1.4,0.8,2.4,0.8c0.7,0,1.4-0.2,1.9-0.6c0.5-0.4,0.9-0.8,1-1.2h3.2
		c-0.5,1.6-1.3,2.8-2.4,3.5c-1.1,0.7-2.4,1-3.9,1c-1.1,0-2-0.2-2.9-0.5s-1.6-0.8-2.2-1.4c-0.6-0.6-1-1.4-1.4-2.2
		c-0.3-0.9-0.5-1.8-0.5-2.9c0-1,0.2-1.9,0.5-2.8c0.3-0.9,0.8-1.6,1.4-2.2c0.6-0.6,1.3-1.1,2.2-1.5c0.8-0.4,1.8-0.5,2.8-0.5
		c1.1,0,2.1,0.2,3,0.7c0.8,0.4,1.5,1,2.1,1.8c0.5,0.7,0.9,1.6,1.2,2.5c0.2,1,0.3,2,0.3,3h-9.7C51.7,259.3,52,260.1,52.6,260.7z
		 M56.7,253.6c-0.4-0.5-1.1-0.7-2-0.7c-0.6,0-1.1,0.1-1.5,0.3c-0.4,0.2-0.7,0.4-0.9,0.7c-0.2,0.3-0.4,0.6-0.5,0.9
		c-0.1,0.3-0.2,0.6-0.2,0.9h6C57.5,254.8,57.2,254.1,56.7,253.6z"/>
	<path class="st0" d="M67,250.5v1.9h0.1c0.5-0.8,1.1-1.3,1.8-1.7c0.7-0.4,1.5-0.5,2.3-0.5c1,0,1.8,0.1,2.4,0.4
		c0.6,0.3,1.1,0.6,1.5,1.1c0.4,0.5,0.6,1.1,0.8,1.7c0.1,0.7,0.2,1.4,0.2,2.3v8.3h-3.7v-7.6c0-1.1-0.2-1.9-0.5-2.5
		c-0.3-0.5-1-0.8-1.8-0.8c-1,0-1.7,0.3-2.2,0.9c-0.5,0.6-0.7,1.6-0.7,3v7h-3.7v-13.4H67z"/>
	<path class="st0" d="M86.3,250.5v2.5h-2.7v6.7c0,0.6,0.1,1,0.3,1.2c0.2,0.2,0.6,0.3,1.2,0.3c0.2,0,0.4,0,0.6,0c0.2,0,0.4,0,0.5-0.1
		v2.9c-0.3,0.1-0.7,0.1-1,0.1c-0.4,0-0.8,0-1.1,0c-0.6,0-1.1,0-1.6-0.1c-0.5-0.1-1-0.2-1.4-0.5c-0.4-0.2-0.7-0.5-0.9-1
		c-0.2-0.4-0.3-1-0.3-1.6v-7.9h-2.2v-2.5h2.2v-4h3.7v4H86.3z"/>
	<path class="st0" d="M88.2,248.4v-3h3.7v3H88.2z M91.9,250.5v13.4h-3.7v-13.4H91.9z"/>
	<path class="st0" d="M97.9,260.6c0.2,0.3,0.4,0.5,0.6,0.7c0.3,0.2,0.6,0.3,0.9,0.4s0.7,0.1,1.1,0.1c0.3,0,0.5,0,0.8-0.1
		s0.5-0.2,0.8-0.3c0.2-0.1,0.4-0.3,0.6-0.5s0.2-0.5,0.2-0.8c0-0.6-0.4-1-1.1-1.2c-0.7-0.3-1.8-0.6-3.1-0.8c-0.5-0.1-1.1-0.3-1.6-0.4
		c-0.5-0.2-1-0.4-1.4-0.6c-0.4-0.3-0.7-0.6-1-1c-0.2-0.4-0.4-0.9-0.4-1.5c0-0.9,0.2-1.6,0.5-2.1c0.3-0.6,0.8-1,1.3-1.3
		c0.6-0.3,1.2-0.5,1.9-0.7c0.7-0.1,1.4-0.2,2.1-0.2s1.4,0.1,2.1,0.2c0.7,0.1,1.3,0.4,1.8,0.7c0.5,0.3,1,0.8,1.3,1.3s0.6,1.2,0.6,2.1
		h-3.5c-0.1-0.7-0.3-1.2-0.8-1.4c-0.5-0.3-1.1-0.4-1.7-0.4c-0.2,0-0.4,0-0.7,0c-0.2,0-0.5,0.1-0.7,0.2c-0.2,0.1-0.4,0.2-0.5,0.4
		c-0.1,0.2-0.2,0.4-0.2,0.7c0,0.3,0.1,0.6,0.4,0.8c0.2,0.2,0.6,0.4,0.9,0.5c0.4,0.1,0.8,0.2,1.3,0.4c0.5,0.1,1,0.2,1.5,0.3
		c0.5,0.1,1.1,0.3,1.6,0.4c0.5,0.2,1,0.4,1.4,0.7s0.7,0.6,1,1.1c0.2,0.4,0.4,0.9,0.4,1.6c0,0.9-0.2,1.6-0.5,2.2
		c-0.4,0.6-0.8,1.1-1.4,1.4c-0.6,0.4-1.2,0.6-2,0.8c-0.7,0.1-1.5,0.2-2.2,0.2c-0.8,0-1.5-0.1-2.3-0.2c-0.7-0.2-1.4-0.4-2-0.8
		c-0.6-0.4-1.1-0.8-1.4-1.4c-0.4-0.6-0.6-1.3-0.6-2.2h3.5C97.7,259.9,97.7,260.3,97.9,260.6z"/>
	<path class="st0" d="M116.1,250.5v2.5h-2.7v6.7c0,0.6,0.1,1,0.3,1.2c0.2,0.2,0.6,0.3,1.2,0.3c0.2,0,0.4,0,0.6,0
		c0.2,0,0.4,0,0.5-0.1v2.9c-0.3,0.1-0.7,0.1-1,0.1c-0.4,0-0.8,0-1.1,0c-0.6,0-1.1,0-1.6-0.1c-0.5-0.1-1-0.2-1.4-0.5
		c-0.4-0.2-0.7-0.5-0.9-1c-0.2-0.4-0.3-1-0.3-1.6v-7.9h-2.2v-2.5h2.2v-4h3.7v4H116.1z"/>
	<path class="st0" d="M121,260.6c0.2,0.3,0.4,0.5,0.6,0.7c0.3,0.2,0.6,0.3,0.9,0.4s0.7,0.1,1.1,0.1c0.3,0,0.5,0,0.8-0.1
		s0.5-0.2,0.8-0.3c0.2-0.1,0.4-0.3,0.6-0.5s0.2-0.5,0.2-0.8c0-0.6-0.4-1-1.1-1.2c-0.7-0.3-1.8-0.6-3.1-0.8c-0.5-0.1-1.1-0.3-1.6-0.4
		c-0.5-0.2-1-0.4-1.4-0.6c-0.4-0.3-0.7-0.6-1-1c-0.2-0.4-0.4-0.9-0.4-1.5c0-0.9,0.2-1.6,0.5-2.1c0.3-0.6,0.8-1,1.3-1.3
		c0.6-0.3,1.2-0.5,1.9-0.7c0.7-0.1,1.4-0.2,2.1-0.2s1.4,0.1,2.1,0.2c0.7,0.1,1.3,0.4,1.8,0.7c0.5,0.3,1,0.8,1.3,1.3s0.6,1.2,0.6,2.1
		h-3.5c-0.1-0.7-0.3-1.2-0.8-1.4c-0.5-0.3-1.1-0.4-1.7-0.4c-0.2,0-0.4,0-0.7,0c-0.2,0-0.5,0.1-0.7,0.2c-0.2,0.1-0.4,0.2-0.5,0.4
		c-0.1,0.2-0.2,0.4-0.2,0.7c0,0.3,0.1,0.6,0.4,0.8c0.2,0.2,0.6,0.4,0.9,0.5c0.4,0.1,0.8,0.2,1.3,0.4c0.5,0.1,1,0.2,1.5,0.3
		c0.5,0.1,1.1,0.3,1.6,0.4c0.5,0.2,1,0.4,1.4,0.7s0.7,0.6,1,1.1c0.2,0.4,0.4,0.9,0.4,1.6c0,0.9-0.2,1.6-0.5,2.2
		c-0.4,0.6-0.8,1.1-1.4,1.4c-0.6,0.4-1.2,0.6-2,0.8c-0.7,0.1-1.5,0.2-2.2,0.2c-0.8,0-1.5-0.1-2.3-0.2c-0.7-0.2-1.4-0.4-2-0.8
		c-0.6-0.4-1.1-0.8-1.4-1.4c-0.4-0.6-0.6-1.3-0.6-2.2h3.5C120.8,259.9,120.9,260.3,121,260.6z"/>
</g>
</svg>
