<?xml version="1.0" encoding="utf-8"?>
<!-- Generator: Adobe Illustrator 26.5.0, SVG Export Plug-In . SVG Version: 6.00 Build 0)  -->
<svg version="1.1" id="Layer_1" xmlns="http://www.w3.org/2000/svg" xmlns:xlink="http://www.w3.org/1999/xlink" x="0px" y="0px"
	 viewBox="0 0 160 600" style="enable-background:new 0 0 160 600;" xml:space="preserve">
<style type="text/css">
	.st0{clip-path:url(#SVGID_00000123400634092682756080000007859688981721581228_);fill:#349946;}
	.st1{clip-path:url(#SVGID_00000123400634092682756080000007859688981721581228_);}
	.st2{fill:#231F20;}
</style>
<g>
	<defs>
		<rect id="SVGID_1_" x="6.2" y="56.9" width="146.1" height="10.1"/>
	</defs>
	<clipPath id="SVGID_00000064316643549666397710000013130279679222817192_">
		<use xlink:href="#SVGID_1_"  style="overflow:visible;"/>
	</clipPath>
	<path style="clip-path:url(#SVGID_00000064316643549666397710000013130279679222817192_);fill:#349946;" d="M13.9,66h-1.7l-0.5-1.6
		H8.4L7.9,66H6.2l2.9-7.7h1.2c0.4,0,0.7,0.1,0.8,0.4c0.1,0.3,1.4,3.7,1.4,3.7H11L10,59.9l-1.2,3.3h3.3c0.4,0,0.7,0.1,0.8,0.5
		L13.9,66z"/>
	<path style="clip-path:url(#SVGID_00000064316643549666397710000013130279679222817192_);fill:#349946;" d="M28.4,66h-1.7l-0.5-1.6
		h-3.3L22.4,66h-1.7l2.9-7.7h1.2c0.4,0,0.7,0.1,0.8,0.4c0.1,0.3,1.4,3.7,1.4,3.7h-1.5l-0.9-2.6l-1.2,3.3h3.3c0.4,0,0.7,0.1,0.8,0.5
		L28.4,66z"/>
	<path style="clip-path:url(#SVGID_00000064316643549666397710000013130279679222817192_);fill:#349946;" d="M14.4,58.3h3
		c2.3,0,3.5,1.2,3.5,3.8c0,1.4-0.4,2.5-1.2,3.1C18.9,65.9,18.1,66,17,66h-2.6V58.3z M17.2,64.6c1.5,0,2.1-0.7,2.1-2.4
		c0-1.7-0.6-2.5-1.9-2.5H16v4.9H17.2z"/>
	<g style="clip-path:url(#SVGID_00000064316643549666397710000013130279679222817192_);">
		<path class="st2" d="M41.4,65.9h-1.2l-0.5-5.5l-1.9,5.5h-1l-1.9-5.5l-0.4,5.5h-1.1l0.7-7.3h1.4l2,5.6l1.9-5.6h1.4L41.4,65.9z"/>
		<path class="st2" d="M47.3,63.2c0,0.1,0,0.1,0,0.2c0,0.1,0,0.2,0,0.2h-3.6c0,0.4,0.1,0.7,0.3,1c0.3,0.3,0.7,0.5,1.2,0.5
			c0.4,0,0.9-0.1,1.5-0.4l0.4,0.8c-0.5,0.4-1.2,0.6-2,0.6c-0.8,0-1.5-0.3-1.9-0.8c-0.4-0.5-0.7-1.2-0.7-2c0-0.8,0.2-1.5,0.7-2
			s1.1-0.8,1.8-0.8c0.7,0,1.3,0.2,1.7,0.7C47.1,61.7,47.3,62.3,47.3,63.2z M46.2,62.7c0-0.3-0.1-0.6-0.2-0.8
			c-0.2-0.3-0.5-0.5-0.9-0.5c-0.4,0-0.7,0.1-0.9,0.4c-0.2,0.2-0.4,0.6-0.4,1H46.2z"/>
		<path class="st2" d="M56,65.9h-1.2v-3c0-0.6-0.1-1-0.2-1.2c-0.1-0.2-0.4-0.3-0.7-0.3c-0.4,0-0.8,0.1-1.2,0.4
			c0.1,0.1,0.1,0.5,0.1,1.2v2.8h-1.2V63c0-0.7-0.1-1.1-0.2-1.3c-0.1-0.1-0.3-0.2-0.6-0.2c-0.4,0-0.8,0.1-1.1,0.4v4.1h-1.2v-5.3h1V61
			c0.5-0.4,1-0.5,1.6-0.5c0.6,0,1,0.2,1.3,0.6c0.6-0.4,1.2-0.6,1.8-0.6c0.6,0,1,0.2,1.3,0.5c0.3,0.3,0.4,0.6,0.5,1
			c0,0.3,0.1,0.7,0.1,1.3V65.9z"/>
		<path class="st2" d="M62.2,63.2c0,0.9-0.3,1.6-0.8,2.1c-0.5,0.5-1.2,0.8-2,0.8c-0.6,0-1.3-0.1-2.1-0.4v-7.6h1.2v2.8
			c0.4-0.3,0.9-0.4,1.4-0.4c0.7,0,1.2,0.2,1.7,0.7C62,61.7,62.2,62.3,62.2,63.2z M61,63.2c0-0.5-0.1-1-0.4-1.3
			c-0.2-0.3-0.6-0.4-0.9-0.4c-0.4,0-0.8,0.1-1.1,0.4v3.1c0.3,0.1,0.6,0.1,0.9,0.1c0.5,0,0.9-0.2,1.1-0.5C60.8,64.2,61,63.7,61,63.2z
			"/>
		<path class="st2" d="M67.9,63.2c0,0.1,0,0.1,0,0.2c0,0.1,0,0.2,0,0.2h-3.6c0,0.4,0.1,0.7,0.3,1c0.3,0.3,0.7,0.5,1.2,0.5
			c0.4,0,0.9-0.1,1.5-0.4l0.4,0.8c-0.5,0.4-1.2,0.6-2,0.6c-0.8,0-1.5-0.3-1.9-0.8c-0.4-0.5-0.7-1.2-0.7-2c0-0.8,0.2-1.5,0.7-2
			s1.1-0.8,1.8-0.8c0.7,0,1.3,0.2,1.7,0.7C67.7,61.7,67.9,62.3,67.9,63.2z M66.8,62.7c0-0.3-0.1-0.6-0.2-0.8
			c-0.2-0.3-0.5-0.5-0.9-0.5c-0.4,0-0.7,0.1-0.9,0.4c-0.2,0.2-0.4,0.6-0.4,1H66.8z"/>
		<path class="st2" d="M72.4,60.6l-0.3,0.9c-0.1,0-0.2,0-0.4,0c-0.6,0-1.2,0.3-1.5,0.8v3.6H69v-5.3h1v0.7c0.1-0.1,0.2-0.3,0.5-0.4
			c0.4-0.3,0.8-0.4,1.3-0.4C72,60.5,72.2,60.5,72.4,60.6z"/>
	</g>
	<g style="clip-path:url(#SVGID_00000064316643549666397710000013130279679222817192_);">
		<path class="st2" d="M76.8,64.4c0,0.5-0.2,0.9-0.6,1.2s-0.9,0.4-1.5,0.4c-0.5,0-0.9-0.1-1.4-0.3c-0.3-0.1-0.5-0.2-0.6-0.3l0.4-0.8
			c0.5,0.3,1,0.4,1.4,0.4c0.3,0,0.5-0.1,0.7-0.2c0.2-0.1,0.2-0.3,0.2-0.5s-0.1-0.3-0.3-0.5c-0.1-0.1-0.4-0.2-0.8-0.4
			c-0.4-0.2-0.7-0.4-0.9-0.5c-0.3-0.3-0.5-0.6-0.5-1.1c0-0.5,0.2-0.9,0.5-1.2c0.4-0.3,0.8-0.4,1.4-0.4c0.7,0,1.3,0.2,1.7,0.5
			l-0.4,0.8c-0.4-0.2-0.8-0.4-1.2-0.4c-0.6,0-0.8,0.2-0.8,0.6c0,0.2,0.1,0.3,0.3,0.4c0.1,0.1,0.3,0.2,0.7,0.3
			c0.5,0.2,0.9,0.4,1.1,0.6C76.6,63.6,76.8,63.9,76.8,64.4z"/>
		<path class="st2" d="M82,65.9h-1.3v-7.3H82V65.9z"/>
		<path class="st2" d="M88,65.9h-1.2V63c0-0.7-0.1-1.1-0.2-1.3c-0.2-0.2-0.4-0.2-0.7-0.2c-0.4,0-0.8,0.1-1.2,0.4v4h-1.2v-5.3h1V61
			c0.5-0.4,1-0.5,1.6-0.5c0.6,0,1,0.2,1.3,0.5c0.2,0.2,0.4,0.6,0.5,0.9c0,0.2,0.1,0.6,0.1,1.1V65.9z"/>
		<path class="st2" d="M92.9,64.4c0,0.5-0.2,0.9-0.6,1.2s-0.9,0.4-1.5,0.4c-0.5,0-0.9-0.1-1.4-0.3c-0.3-0.1-0.5-0.2-0.6-0.3l0.4-0.8
			c0.5,0.3,1,0.4,1.4,0.4c0.3,0,0.5-0.1,0.7-0.2c0.2-0.1,0.2-0.3,0.2-0.5s-0.1-0.3-0.3-0.5c-0.1-0.1-0.4-0.2-0.8-0.4
			c-0.4-0.2-0.7-0.4-0.9-0.5c-0.3-0.3-0.5-0.6-0.5-1.1c0-0.5,0.2-0.9,0.5-1.2c0.4-0.3,0.8-0.4,1.4-0.4c0.7,0,1.3,0.2,1.7,0.5
			l-0.4,0.8c-0.4-0.2-0.8-0.4-1.2-0.4c-0.6,0-0.8,0.2-0.8,0.6c0,0.2,0.1,0.3,0.3,0.4c0.1,0.1,0.3,0.2,0.7,0.3
			c0.5,0.2,0.9,0.4,1.1,0.6C92.7,63.6,92.9,63.9,92.9,64.4z"/>
		<path class="st2" d="M98.5,65.9h-1v-0.4c-0.5,0.4-1,0.5-1.6,0.5c-0.6,0-1-0.2-1.3-0.5c-0.2-0.2-0.4-0.6-0.5-0.9
			c0-0.2-0.1-0.6-0.1-1.1v-3h1.2v2.9c0,0.4,0,0.6,0,0.7c0,0.3,0.1,0.5,0.3,0.6c0.1,0.1,0.4,0.2,0.6,0.2c0.3,0,0.7-0.1,1.2-0.4v-4
			h1.2V65.9z"/>
		<path class="st2" d="M103.3,60.6l-0.3,0.9c-0.1,0-0.2,0-0.4,0c-0.6,0-1.2,0.3-1.5,0.8v3.6h-1.2v-5.3h1v0.7
			c0.1-0.1,0.2-0.3,0.5-0.4c0.4-0.3,0.8-0.4,1.3-0.4C102.9,60.5,103.1,60.5,103.3,60.6z"/>
	</g>
	<g style="clip-path:url(#SVGID_00000064316643549666397710000013130279679222817192_);">
		<path class="st2" d="M108,65.9h-1v-0.4c-0.5,0.3-1,0.5-1.6,0.5c-0.5,0-0.9-0.2-1.2-0.5c-0.3-0.3-0.5-0.7-0.5-1.2
			c0-1.2,1-1.9,3-1.9h0.2v-0.2c0-0.3-0.1-0.5-0.2-0.7c-0.2-0.2-0.4-0.2-0.9-0.2c-0.5,0-1,0.1-1.4,0.4L104,61
			c0.1-0.1,0.3-0.2,0.6-0.3c0.4-0.2,0.9-0.3,1.4-0.3c0.7,0,1.3,0.2,1.7,0.6c0.2,0.2,0.3,0.4,0.4,0.7c0,0.2,0.1,0.5,0.1,0.9V65.9z
			 M106.8,64.8v-1.4h-0.2c-0.8,0-1.4,0.1-1.7,0.4c-0.1,0.1-0.2,0.3-0.2,0.5c0,0.3,0.1,0.5,0.3,0.6s0.4,0.2,0.7,0.2
			C106,65.1,106.4,65,106.8,64.8z"/>
		<path class="st2" d="M113.8,65.9h-1.2V63c0-0.7-0.1-1.1-0.2-1.3c-0.2-0.2-0.4-0.2-0.7-0.2c-0.4,0-0.8,0.1-1.2,0.4v4h-1.2v-5.3h1
			V61c0.5-0.4,1-0.5,1.6-0.5c0.6,0,1,0.2,1.3,0.5c0.2,0.2,0.4,0.6,0.5,0.9c0,0.2,0.1,0.6,0.1,1.1V65.9z"/>
		<path class="st2" d="M119.4,65.4c-0.1,0.1-0.3,0.2-0.5,0.3c-0.4,0.2-0.9,0.3-1.4,0.3c-0.8,0-1.4-0.3-1.9-0.8
			c-0.5-0.5-0.7-1.2-0.7-2c0-0.8,0.3-1.5,0.8-2.1c0.5-0.5,1.2-0.8,2-0.8c0.4,0,0.9,0.1,1.3,0.3c0.3,0.1,0.4,0.2,0.5,0.3l-0.5,0.8
			c-0.4-0.2-0.8-0.4-1.2-0.4c-0.5,0-0.9,0.2-1.2,0.6c-0.3,0.3-0.4,0.8-0.4,1.2c0,0.5,0.1,1,0.4,1.3s0.7,0.5,1.2,0.5
			c0.4,0,0.8-0.1,1.3-0.4L119.4,65.4z"/>
	</g>
	<g style="clip-path:url(#SVGID_00000064316643549666397710000013130279679222817192_);">
		<path class="st2" d="M124.8,63.2c0,0.1,0,0.1,0,0.2c0,0.1,0,0.2,0,0.2h-3.6c0,0.4,0.1,0.7,0.3,1c0.3,0.3,0.7,0.5,1.2,0.5
			c0.4,0,0.9-0.1,1.5-0.4l0.4,0.8c-0.5,0.4-1.2,0.6-2,0.6c-0.8,0-1.5-0.3-1.9-0.8c-0.4-0.5-0.7-1.2-0.7-2c0-0.8,0.2-1.5,0.7-2
			c0.5-0.5,1.1-0.8,1.8-0.8c0.7,0,1.3,0.2,1.7,0.7C124.6,61.7,124.8,62.3,124.8,63.2z M123.6,62.7c0-0.3-0.1-0.6-0.2-0.8
			c-0.2-0.3-0.5-0.5-0.9-0.5c-0.4,0-0.7,0.1-0.9,0.4c-0.2,0.2-0.4,0.6-0.4,1H123.6z"/>
		<path class="st2" d="M133.5,60.8c0,0.7-0.2,1.2-0.6,1.6c-0.3,0.3-0.7,0.5-1.1,0.6c-0.3,0.1-0.7,0.1-1.3,0.1h-0.5v2.8h-1.2v-7.3
			h1.9c0.6,0,1,0,1.3,0.1c0.4,0.1,0.8,0.3,1,0.5C133.3,59.7,133.5,60.2,133.5,60.8z M132.2,60.9c0-0.4-0.1-0.7-0.3-0.9
			c-0.2-0.2-0.6-0.3-1.3-0.3h-0.7v2.5h0.5c0.8,0,1.3-0.1,1.5-0.3C132.1,61.6,132.2,61.3,132.2,60.9z"/>
		<path class="st2" d="M136,65.9h-1.2v-7.9h1.2V65.9z"/>
		<path class="st2" d="M141.4,65.9h-1v-0.4c-0.5,0.3-1,0.5-1.6,0.5c-0.5,0-0.9-0.2-1.2-0.5c-0.3-0.3-0.5-0.7-0.5-1.2
			c0-1.2,1-1.9,3-1.9h0.2v-0.2c0-0.3-0.1-0.5-0.2-0.7c-0.2-0.2-0.4-0.2-0.9-0.2c-0.5,0-1,0.1-1.4,0.4l-0.4-0.8
			c0.1-0.1,0.3-0.2,0.6-0.3c0.4-0.2,0.9-0.3,1.4-0.3c0.7,0,1.3,0.2,1.7,0.6c0.2,0.2,0.3,0.4,0.4,0.7c0,0.2,0.1,0.5,0.1,0.9V65.9z
			 M140.3,64.8v-1.4H140c-0.8,0-1.4,0.1-1.7,0.4c-0.1,0.1-0.2,0.3-0.2,0.5c0,0.3,0.1,0.5,0.3,0.6s0.4,0.2,0.7,0.2
			C139.5,65.1,139.9,65,140.3,64.8z"/>
		<path class="st2" d="M147.2,65.9H146V63c0-0.7-0.1-1.1-0.2-1.3c-0.2-0.2-0.4-0.2-0.7-0.2c-0.4,0-0.8,0.1-1.2,0.4v4h-1.2v-5.3h1V61
			c0.5-0.4,1-0.5,1.6-0.5c0.6,0,1,0.2,1.3,0.5c0.2,0.2,0.4,0.6,0.5,0.9c0,0.2,0.1,0.6,0.1,1.1V65.9z"/>
		<path class="st2" d="M152.1,64.4c0,0.5-0.2,0.9-0.6,1.2s-0.9,0.4-1.5,0.4c-0.5,0-0.9-0.1-1.4-0.3c-0.3-0.1-0.5-0.2-0.6-0.3
			l0.4-0.8c0.5,0.3,1,0.4,1.4,0.4c0.3,0,0.5-0.1,0.7-0.2c0.2-0.1,0.2-0.3,0.2-0.5s-0.1-0.3-0.3-0.5c-0.1-0.1-0.4-0.2-0.8-0.4
			c-0.4-0.2-0.7-0.4-0.9-0.5c-0.3-0.3-0.5-0.6-0.5-1.1c0-0.5,0.2-0.9,0.5-1.2c0.4-0.3,0.8-0.4,1.4-0.4c0.7,0,1.3,0.2,1.7,0.5
			l-0.4,0.8c-0.4-0.2-0.8-0.4-1.2-0.4c-0.6,0-0.8,0.2-0.8,0.6c0,0.2,0.1,0.3,0.3,0.4c0.1,0.1,0.3,0.2,0.7,0.3
			c0.5,0.2,0.9,0.4,1.1,0.6C152,63.6,152.1,63.9,152.1,64.4z"/>
	</g>
	<path style="clip-path:url(#SVGID_00000064316643549666397710000013130279679222817192_);fill:#349946;" d="M29.5,66
		c-0.5,0-0.9-0.4-0.9-0.9s0.4-0.9,0.9-0.9c0.5,0,0.9,0.4,0.9,0.9S30,66,29.5,66 M29.5,64.4c-0.4,0-0.7,0.3-0.7,0.7s0.3,0.7,0.7,0.7
		c0.4,0,0.7-0.3,0.7-0.7S29.9,64.4,29.5,64.4 M29.7,65.6l-0.1-0.2c-0.1-0.1-0.1-0.1-0.2-0.1h0v0.4h-0.2v-1h0.2c0.1,0,0.2,0,0.3,0.1
		c0.1,0.1,0.1,0.1,0.1,0.2c0,0.1,0,0.2-0.2,0.2c0,0,0.1,0.1,0.1,0.1l0.1,0.3H29.7z M29.5,64.8c0,0-0.1,0-0.1,0h-0.1V65
		c0.1,0,0.1,0,0.2,0C29.6,65,29.6,65,29.5,64.8C29.6,64.8,29.6,64.8,29.5,64.8"/>
</g>
</svg>
