<?xml version="1.0" encoding="utf-8"?>
<!-- Generator: Adobe Illustrator 26.5.0, SVG Export Plug-In . SVG Version: 6.00 Build 0)  -->
<svg version="1.1" id="Layer_1" xmlns="http://www.w3.org/2000/svg" xmlns:xlink="http://www.w3.org/1999/xlink" x="0px" y="0px"
	 viewBox="0 0 160 600" style="enable-background:new 0 0 160 600;" xml:space="preserve">
<style type="text/css">
	.st0{clip-path:url(#SVGID_00000087376031647899646830000012489948768116774019_);fill:#231F20;}
	.st1{clip-path:url(#SVGID_00000087376031647899646830000012489948768116774019_);fill:#22B0E6;}
</style>
<g>
	<defs>
		<rect id="SVGID_1_" x="54.1" y="35.8" width="51.6" height="17.5"/>
	</defs>
	<clipPath id="SVGID_00000005969728913321094450000014576706779691624069_">
		<use xlink:href="#SVGID_1_"  style="overflow:visible;"/>
	</clipPath>
	<path style="clip-path:url(#SVGID_00000005969728913321094450000014576706779691624069_);fill:#231F20;" d="M54.4,45.2h2.8
		c2.2,0,2.6,1.4,2.6,2.4c0,0.9-0.4,2.4-2.6,2.4h-1.4v3h-1.3V45.2z M55.8,48.8h1.3c0.6,0,1.3-0.3,1.3-1.3c0-1-0.6-1.3-1.3-1.3h-1.4
		V48.8z"/>
	<path style="clip-path:url(#SVGID_00000005969728913321094450000014576706779691624069_);fill:#231F20;" d="M60.6,47.3h1.2v1.1h0
		c0.1-0.6,0.9-1.2,1.6-1.2c0.3,0,0.4,0,0.5,0v1.2c-0.2,0-0.4-0.1-0.5-0.1c-0.8,0-1.5,0.7-1.5,1.9v2.7h-1.2V47.3z"/>
	<path style="clip-path:url(#SVGID_00000005969728913321094450000014576706779691624069_);fill:#231F20;" d="M64.1,50.1
		c0-1.7,1-2.9,2.8-2.9c1.8,0,2.8,1.2,2.8,2.9c0,1.7-1,2.9-2.8,2.9C65.1,53,64.1,51.8,64.1,50.1 M68.5,50.1c0-1-0.5-2-1.6-2
		c-1.1,0-1.6,1-1.6,2c0,1,0.5,2,1.6,2C68,52.1,68.5,51.1,68.5,50.1"/>
	<path style="clip-path:url(#SVGID_00000005969728913321094450000014576706779691624069_);fill:#231F20;" d="M69.8,47.3h1v-1.7H72
		v1.7h1.1v0.9H72v3c0,0.5,0,0.8,0.6,0.8c0.2,0,0.3,0,0.5,0v0.9c-0.3,0-0.5,0.1-0.8,0.1c-1.3,0-1.5-0.5-1.5-1.4v-3.3h-0.9V47.3z"/>
	<path style="clip-path:url(#SVGID_00000005969728913321094450000014576706779691624069_);fill:#231F20;" d="M74.9,50.4
		c0,0.9,0.5,1.6,1.5,1.6c0.7,0,1.1-0.3,1.4-0.9h1.2c-0.3,1.2-1.3,1.9-2.5,1.9c-1.7,0-2.7-1.2-2.7-2.9c0-1.6,1-2.9,2.7-2.9
		c1.8,0,2.8,1.6,2.6,3.3H74.9z M77.8,49.6c0-0.8-0.6-1.5-1.4-1.5c-0.9,0-1.4,0.6-1.5,1.5H77.8z"/>
	<path style="clip-path:url(#SVGID_00000005969728913321094450000014576706779691624069_);fill:#231F20;" d="M83.6,49.2
		c-0.1-0.7-0.6-1-1.3-1c-0.6,0-1.5,0.3-1.5,2c0,0.9,0.4,1.9,1.5,1.9c0.7,0,1.2-0.5,1.3-1.3h1.2c-0.2,1.4-1.1,2.2-2.6,2.2
		c-1.7,0-2.7-1.2-2.7-2.9c0-1.7,0.9-3,2.7-3c1.3,0,2.4,0.6,2.5,2H83.6z"/>
	<path style="clip-path:url(#SVGID_00000005969728913321094450000014576706779691624069_);fill:#231F20;" d="M85.2,47.3h0.9v-1.7
		h1.2v1.7h1.1v0.9h-1.1v3c0,0.5,0,0.8,0.6,0.8c0.2,0,0.3,0,0.5,0v0.9c-0.3,0-0.5,0.1-0.8,0.1c-1.3,0-1.5-0.5-1.5-1.4v-3.3h-0.9V47.3
		z"/>
	<path style="clip-path:url(#SVGID_00000005969728913321094450000014576706779691624069_);fill:#231F20;" d="M89.9,45.2h1.2v1.2
		h-1.2V45.2z M89.9,47.3h1.2v5.6h-1.2V47.3z"/>
	<polygon style="clip-path:url(#SVGID_00000005969728913321094450000014576706779691624069_);fill:#231F20;" points="92,47.3 
		93.3,47.3 95,51.6 95.1,51.6 96.7,47.3 98,47.3 95.7,52.9 94.3,52.9 	"/>
	<path style="clip-path:url(#SVGID_00000005969728913321094450000014576706779691624069_);fill:#231F20;" d="M99.5,50.4
		c0,0.9,0.5,1.6,1.5,1.6c0.7,0,1.1-0.3,1.4-0.9h1.2c-0.3,1.2-1.3,1.9-2.5,1.9c-1.7,0-2.7-1.2-2.7-2.9c0-1.6,1-2.9,2.7-2.9
		c1.8,0,2.8,1.6,2.6,3.3H99.5z M102.4,49.6c0-0.8-0.6-1.5-1.4-1.5c-0.9,0-1.4,0.6-1.5,1.5H102.4z"/>
	<path style="clip-path:url(#SVGID_00000005969728913321094450000014576706779691624069_);fill:#22B0E6;" d="M87.5,43.9
		c-0.8-3.1-3.2-5.5-6.3-6.2C81,36.7,80.1,36,79,36c-1,0-1.9,0.7-2.2,1.6c-3,0.8-5.5,3.2-6.3,6.2l-0.1,0.3h1.9l0.1-0.2
		c0.7-2.2,2.5-3.9,4.7-4.6c0.4,0.7,1.1,1.1,2,1.1c0.8,0,1.6-0.5,2-1.1c2.2,0.6,4,2.4,4.7,4.6l0.1,0.2h1.9L87.5,43.9z"/>
	<path style="clip-path:url(#SVGID_00000005969728913321094450000014576706779691624069_);fill:#231F20;" d="M104.9,51.9
		c0.3,0,0.5,0.2,0.5,0.5c0,0.3-0.2,0.5-0.5,0.5c-0.3,0-0.5-0.2-0.5-0.5C104.4,52.2,104.6,51.9,104.9,51.9 M105.4,52.5
		c0-0.3-0.2-0.5-0.4-0.5c-0.2,0-0.5,0.2-0.5,0.5c0,0.3,0.2,0.5,0.5,0.5C105.2,52.9,105.4,52.7,105.4,52.5 M104.7,52.2h0.2
		c0.1,0,0.2,0.1,0.2,0.2c0,0.1-0.1,0.2-0.2,0.2l0.2,0.3h-0.1l-0.2-0.3h-0.1v0.3h-0.1V52.2z M104.9,52.5c0.1,0,0.2,0,0.2-0.1
		c0-0.1-0.1-0.1-0.1-0.1h-0.1v0.2H104.9z"/>
</g>
</svg>
