<?xml version="1.0" encoding="utf-8"?>
<!-- Generator: Adobe Illustrator 25.4.1, SVG Export Plug-In . SVG Version: 6.00 Build 0)  -->
<svg version="1.1" id="Layer_1" xmlns="http://www.w3.org/2000/svg" xmlns:xlink="http://www.w3.org/1999/xlink" x="0px" y="0px"
	 viewBox="0 0 300 50" style="enable-background:new 0 0 300 50;" xml:space="preserve">
<g>
	<path d="M16.9,7.9c0.4,0,0.8,0.1,1.1,0.2c0.3,0.1,0.6,0.3,0.8,0.5c0.2,0.2,0.4,0.5,0.5,0.8c0.1,0.3,0.2,0.6,0.2,1
		c0,0.5-0.1,1-0.3,1.4s-0.6,0.7-1.1,0.9v0c0.2,0.1,0.4,0.2,0.6,0.3c0.2,0.1,0.3,0.3,0.4,0.5c0.1,0.2,0.2,0.4,0.2,0.6
		s0.1,0.5,0.1,0.7c0,0.1,0,0.3,0,0.5c0,0.2,0,0.4,0,0.6c0,0.2,0.1,0.4,0.1,0.6s0.1,0.3,0.2,0.5h-2c-0.1-0.3-0.2-0.6-0.2-1
		c0-0.4-0.1-0.8-0.1-1.1c-0.1-0.5-0.2-0.8-0.4-1c-0.2-0.2-0.6-0.3-1.1-0.3h-2v3.5h-2V7.9H16.9z M16.2,11.9c0.4,0,0.8-0.1,1-0.3
		c0.2-0.2,0.3-0.5,0.3-1c0-0.4-0.1-0.7-0.3-0.9c-0.2-0.2-0.6-0.3-1-0.3h-2.1v2.5H16.2z"/>
	<path d="M22.9,15.2c0.3,0.3,0.6,0.4,1.1,0.4c0.4,0,0.7-0.1,0.9-0.3s0.4-0.4,0.5-0.6H27c-0.2,0.8-0.6,1.3-1.1,1.7
		c-0.5,0.3-1.1,0.5-1.9,0.5c-0.5,0-1-0.1-1.4-0.2c-0.4-0.2-0.8-0.4-1-0.7c-0.3-0.3-0.5-0.7-0.7-1.1c-0.2-0.4-0.2-0.9-0.2-1.4
		c0-0.5,0.1-0.9,0.2-1.4c0.2-0.4,0.4-0.8,0.7-1.1s0.6-0.5,1-0.7c0.4-0.2,0.9-0.3,1.3-0.3c0.5,0,1,0.1,1.4,0.3c0.4,0.2,0.7,0.5,1,0.9
		c0.3,0.4,0.5,0.8,0.6,1.2c0.1,0.5,0.2,0.9,0.1,1.4h-4.7C22.5,14.6,22.6,15,22.9,15.2z M24.9,11.8c-0.2-0.2-0.5-0.3-1-0.3
		c-0.3,0-0.5,0-0.7,0.1s-0.3,0.2-0.5,0.4c-0.1,0.1-0.2,0.3-0.2,0.4c0,0.2-0.1,0.3-0.1,0.4h2.9C25.2,12.4,25.1,12.1,24.9,11.8z"/>
	<path d="M28.1,12.3c0-0.4,0.1-0.8,0.3-1c0.2-0.3,0.4-0.5,0.7-0.7c0.3-0.2,0.6-0.3,1-0.4c0.4-0.1,0.7-0.1,1.1-0.1c0.3,0,0.7,0,1,0.1
		c0.3,0,0.6,0.1,0.9,0.3s0.5,0.3,0.7,0.6c0.2,0.2,0.3,0.6,0.3,0.9v3.4c0,0.3,0,0.6,0,0.8c0,0.3,0.1,0.5,0.2,0.6h-1.8
		c0-0.1-0.1-0.2-0.1-0.3c0-0.1,0-0.2,0-0.3c-0.3,0.3-0.6,0.5-1,0.6c-0.4,0.1-0.8,0.2-1.2,0.2c-0.3,0-0.6,0-0.9-0.1
		c-0.3-0.1-0.5-0.2-0.7-0.3c-0.2-0.2-0.4-0.4-0.5-0.6c-0.1-0.2-0.2-0.5-0.2-0.9c0-0.4,0.1-0.7,0.2-0.9c0.1-0.2,0.3-0.4,0.5-0.6
		s0.4-0.2,0.7-0.3c0.3-0.1,0.5-0.1,0.8-0.2c0.3,0,0.5-0.1,0.8-0.1c0.3,0,0.5-0.1,0.7-0.1s0.4-0.1,0.5-0.2s0.2-0.2,0.2-0.4
		c0-0.2,0-0.3-0.1-0.5s-0.1-0.2-0.2-0.3c-0.1-0.1-0.2-0.1-0.4-0.1c-0.1,0-0.3,0-0.4,0c-0.3,0-0.6,0.1-0.8,0.2
		c-0.2,0.1-0.3,0.4-0.4,0.8H28.1z M32.2,13.6c-0.1,0.1-0.2,0.1-0.3,0.2c-0.1,0-0.2,0.1-0.4,0.1s-0.3,0-0.4,0.1c-0.1,0-0.3,0-0.4,0.1
		c-0.1,0-0.3,0.1-0.4,0.1c-0.1,0-0.2,0.1-0.3,0.2s-0.2,0.2-0.2,0.3c-0.1,0.1-0.1,0.2-0.1,0.4c0,0.2,0,0.3,0.1,0.4
		c0.1,0.1,0.1,0.2,0.2,0.3s0.2,0.1,0.4,0.1c0.1,0,0.3,0,0.4,0c0.3,0,0.6-0.1,0.8-0.2c0.2-0.1,0.3-0.3,0.4-0.4
		c0.1-0.2,0.1-0.3,0.2-0.5c0-0.2,0-0.3,0-0.4V13.6z"/>
	<path d="M39.9,16c-0.2,0.4-0.5,0.6-0.8,0.8c-0.3,0.2-0.7,0.2-1.1,0.2c-0.5,0-0.9-0.1-1.3-0.3s-0.7-0.4-0.9-0.8
		c-0.2-0.3-0.4-0.7-0.5-1.1c-0.1-0.4-0.2-0.9-0.2-1.3c0-0.4,0.1-0.9,0.2-1.3c0.1-0.4,0.3-0.8,0.5-1.1c0.2-0.3,0.5-0.6,0.9-0.7
		c0.4-0.2,0.8-0.3,1.2-0.3c0.4,0,0.7,0.1,1.1,0.2c0.3,0.2,0.6,0.4,0.8,0.7h0V7.9h1.8v8.9h-1.7L39.9,16L39.9,16z M39.8,12.8
		c0-0.2-0.1-0.5-0.3-0.7s-0.3-0.3-0.5-0.5s-0.4-0.2-0.7-0.2c-0.3,0-0.5,0.1-0.7,0.2s-0.4,0.3-0.5,0.5c-0.1,0.2-0.2,0.4-0.3,0.7
		c-0.1,0.2-0.1,0.5-0.1,0.8c0,0.2,0,0.5,0.1,0.8c0.1,0.2,0.2,0.5,0.3,0.7c0.1,0.2,0.3,0.4,0.5,0.5c0.2,0.1,0.4,0.2,0.7,0.2
		c0.3,0,0.5-0.1,0.7-0.2s0.4-0.3,0.5-0.5s0.2-0.4,0.2-0.7s0.1-0.5,0.1-0.8S39.9,13,39.8,12.8z"/>
	<path d="M43,12.4v-1.9h2v1.9H43z M45,14.9v1.9h-2v-1.9H45z"/>
</g>
<g>
	<path d="M54.6,7.9c0.4,0,0.9,0,1.2,0.1c0.4,0.1,0.7,0.2,1,0.4c0.3,0.2,0.5,0.5,0.6,0.8c0.2,0.3,0.2,0.7,0.2,1.2
		c0,0.5-0.1,0.9-0.3,1.3c-0.2,0.4-0.4,0.7-0.8,1s-0.7,0.5-1.1,0.6c-0.4,0.1-0.9,0.2-1.3,0.2h-2.4l-0.7,3.2h-2L51,7.9H54.6z
		 M54.1,12.1c0.5,0,0.9-0.1,1.2-0.4c0.3-0.3,0.4-0.6,0.4-1.2c0-0.2,0-0.4-0.1-0.6c-0.1-0.1-0.2-0.3-0.3-0.3S55,9.5,54.9,9.4
		c-0.2,0-0.3,0-0.5,0h-1.7l-0.5,2.7H54.1z"/>
	<path d="M60.5,10.3l-0.3,1.2l0,0c0.2-0.5,0.5-0.8,0.9-1c0.4-0.2,0.8-0.3,1.3-0.3c0.2,0,0.4,0,0.5,0l-0.4,1.7c-0.1,0-0.2,0-0.4-0.1
		c-0.1,0-0.2,0-0.4,0c-0.3,0-0.6,0.1-0.9,0.2c-0.2,0.1-0.4,0.3-0.6,0.5c-0.2,0.2-0.3,0.4-0.4,0.7c-0.1,0.3-0.2,0.5-0.2,0.8l-0.6,2.9
		h-1.8l1.3-6.5H60.5z"/>
	<path d="M63.5,11.3c0.2-0.3,0.4-0.5,0.7-0.7c0.3-0.2,0.6-0.3,0.9-0.4s0.7-0.1,1.1-0.1c0.3,0,0.6,0,0.9,0.1c0.3,0,0.6,0.1,0.9,0.2
		c0.3,0.1,0.5,0.3,0.7,0.5c0.2,0.2,0.3,0.5,0.2,0.9c0,0.3,0,0.7-0.1,1.1l-0.6,2.6c0,0.1-0.1,0.3-0.1,0.4c0,0.2,0,0.3,0,0.4
		c0,0.1,0,0.2,0.1,0.4h-1.8v-0.6c-0.2,0.3-0.5,0.5-0.9,0.6s-0.7,0.2-1.1,0.2c-0.4,0-0.7,0-0.9-0.1c-0.3-0.1-0.5-0.2-0.7-0.4
		s-0.3-0.3-0.4-0.5c-0.1-0.2-0.1-0.4-0.1-0.6c0-0.6,0.2-1.1,0.6-1.5s1-0.6,1.8-0.7c0.4,0,0.8-0.1,1.1-0.1c0.3,0,0.6-0.1,0.8-0.1
		s0.4-0.1,0.5-0.2c0.1-0.1,0.1-0.3,0.1-0.5c0-0.2,0-0.3-0.1-0.4c-0.1-0.1-0.2-0.2-0.3-0.2c-0.1-0.1-0.2-0.1-0.4-0.1
		c-0.1,0-0.3,0-0.4,0c-0.3,0-0.6,0.1-0.9,0.2s-0.4,0.4-0.5,0.7h-1.7C63.2,11.9,63.4,11.5,63.5,11.3z M66.2,13.9
		c-0.3,0-0.5,0.1-0.8,0.1c-0.2,0-0.3,0-0.5,0.1c-0.2,0-0.3,0.1-0.4,0.2c-0.1,0.1-0.2,0.2-0.3,0.3c-0.1,0.1-0.1,0.3-0.1,0.5
		c0,0.2,0.1,0.4,0.3,0.5c0.2,0.1,0.4,0.2,0.7,0.2c0.3,0,0.5,0,0.7-0.1c0.2-0.1,0.3-0.2,0.5-0.3c0.1-0.1,0.2-0.3,0.3-0.5
		c0.1-0.2,0.1-0.3,0.2-0.5l0.2-0.6C66.7,13.8,66.5,13.9,66.2,13.9z"/>
	<path d="M74.2,11.7c-0.2-0.2-0.5-0.2-0.9-0.2c-0.3,0-0.6,0.1-0.9,0.3s-0.4,0.4-0.6,0.7s-0.2,0.6-0.3,0.9s-0.1,0.6-0.1,0.9
		c0,0.2,0,0.4,0.1,0.5s0.1,0.3,0.2,0.4c0.1,0.1,0.2,0.2,0.4,0.3c0.2,0.1,0.3,0.1,0.6,0.1c0.2,0,0.4,0,0.5-0.1
		c0.2-0.1,0.3-0.2,0.4-0.3c0.1-0.1,0.2-0.2,0.3-0.4c0.1-0.1,0.1-0.3,0.2-0.5h1.8c-0.3,0.8-0.7,1.4-1.2,1.9c-0.6,0.4-1.3,0.7-2.1,0.7
		c-0.9,0-1.6-0.2-2.1-0.7c-0.5-0.4-0.8-1.1-0.8-2.1c0-0.5,0.1-1.1,0.2-1.6s0.4-0.9,0.7-1.3c0.3-0.4,0.7-0.7,1.1-0.9
		c0.4-0.2,1-0.3,1.5-0.3c0.4,0,0.8,0,1.1,0.1c0.3,0.1,0.7,0.2,0.9,0.4c0.3,0.2,0.5,0.4,0.6,0.8c0.2,0.3,0.2,0.7,0.2,1.1h-1.8
		C74.5,12.2,74.4,11.9,74.2,11.7z"/>
	<path d="M81.3,10.3L81,11.5h-1.3l-0.7,3.2c0,0.1,0,0.1,0,0.2c0,0.1,0,0.1,0,0.1c0,0.1,0,0.2,0.1,0.3s0.1,0.1,0.1,0.1
		c0.1,0,0.1,0.1,0.2,0.1c0.1,0,0.1,0,0.2,0c0.2,0,0.4,0,0.6,0L80,16.8c-0.2,0-0.4,0-0.5,0c-0.2,0-0.4,0-0.6,0c-0.2,0-0.4,0-0.6-0.1
		c-0.2,0-0.4-0.1-0.5-0.2s-0.3-0.2-0.4-0.4c-0.1-0.2-0.1-0.4-0.1-0.7c0-0.1,0-0.2,0-0.3c0-0.1,0-0.2,0.1-0.3l0.7-3.5h-1.2l0.3-1.2
		h1.1l0.4-2h1.8l-0.4,2H81.3z"/>
	<path d="M84.2,10.3l-1.4,6.5H81l1.4-6.5H84.2z M82.6,9.3l0.3-1.5h1.8l-0.3,1.5H82.6z"/>
	<path d="M89,11.7c-0.2-0.2-0.5-0.2-0.9-0.2c-0.3,0-0.6,0.1-0.9,0.3s-0.4,0.4-0.6,0.7s-0.2,0.6-0.3,0.9s-0.1,0.6-0.1,0.9
		c0,0.2,0,0.4,0.1,0.5s0.1,0.3,0.2,0.4c0.1,0.1,0.2,0.2,0.4,0.3c0.2,0.1,0.3,0.1,0.6,0.1c0.2,0,0.4,0,0.5-0.1
		c0.2-0.1,0.3-0.2,0.4-0.3c0.1-0.1,0.2-0.2,0.3-0.4c0.1-0.1,0.1-0.3,0.2-0.5h1.8c-0.3,0.8-0.7,1.4-1.2,1.9c-0.6,0.4-1.3,0.7-2.1,0.7
		c-0.9,0-1.6-0.2-2.1-0.7c-0.5-0.4-0.8-1.1-0.8-2.1c0-0.5,0.1-1.1,0.2-1.6s0.4-0.9,0.7-1.3c0.3-0.4,0.7-0.7,1.1-0.9
		c0.4-0.2,1-0.3,1.5-0.3c0.4,0,0.8,0,1.1,0.1c0.3,0.1,0.7,0.2,0.9,0.4c0.3,0.2,0.5,0.4,0.6,0.8c0.2,0.3,0.2,0.7,0.2,1.1h-1.8
		C89.3,12.2,89.2,11.9,89,11.7z"/>
	<path d="M92.5,11.3c0.2-0.3,0.4-0.5,0.7-0.7c0.3-0.2,0.6-0.3,0.9-0.4s0.7-0.1,1.1-0.1c0.3,0,0.6,0,0.9,0.1c0.3,0,0.6,0.1,0.9,0.2
		c0.3,0.1,0.5,0.3,0.7,0.5c0.2,0.2,0.3,0.5,0.2,0.9c0,0.3,0,0.7-0.1,1.1l-0.6,2.6c0,0.1-0.1,0.3-0.1,0.4c0,0.2,0,0.3,0,0.4
		c0,0.1,0,0.2,0.1,0.4h-1.8v-0.6c-0.2,0.3-0.5,0.5-0.9,0.6s-0.7,0.2-1.1,0.2c-0.4,0-0.7,0-0.9-0.1c-0.3-0.1-0.5-0.2-0.7-0.4
		s-0.3-0.3-0.4-0.5c-0.1-0.2-0.1-0.4-0.1-0.6c0-0.6,0.2-1.1,0.6-1.5s1-0.6,1.8-0.7c0.4,0,0.8-0.1,1.1-0.1c0.3,0,0.6-0.1,0.8-0.1
		s0.4-0.1,0.5-0.2c0.1-0.1,0.1-0.3,0.1-0.5c0-0.2,0-0.3-0.1-0.4c-0.1-0.1-0.2-0.2-0.3-0.2c-0.1-0.1-0.2-0.1-0.4-0.1
		c-0.1,0-0.3,0-0.4,0c-0.3,0-0.6,0.1-0.9,0.2s-0.4,0.4-0.5,0.7h-1.7C92.2,11.9,92.3,11.5,92.5,11.3z M95.1,13.9
		c-0.3,0-0.5,0.1-0.8,0.1c-0.2,0-0.3,0-0.5,0.1c-0.2,0-0.3,0.1-0.4,0.2c-0.1,0.1-0.2,0.2-0.3,0.3C93.1,14.7,93,14.8,93,15
		c0,0.2,0.1,0.4,0.3,0.5c0.2,0.1,0.4,0.2,0.7,0.2c0.3,0,0.5,0,0.7-0.1c0.2-0.1,0.3-0.2,0.5-0.3c0.1-0.1,0.2-0.3,0.3-0.5
		c0.1-0.2,0.1-0.3,0.2-0.5l0.2-0.6C95.6,13.8,95.4,13.9,95.1,13.9z"/>
	<path d="M102.1,7.9l-1.9,8.9h-1.8l1.9-8.9H102.1z"/>
	<path d="M106.4,11.3c0.2-0.3,0.4-0.5,0.7-0.7c0.3-0.2,0.6-0.3,0.9-0.4s0.7-0.1,1.1-0.1c0.3,0,0.6,0,0.9,0.1c0.3,0,0.6,0.1,0.9,0.2
		c0.3,0.1,0.5,0.3,0.7,0.5c0.2,0.2,0.3,0.5,0.2,0.9c0,0.3,0,0.7-0.1,1.1l-0.6,2.6c0,0.1-0.1,0.3-0.1,0.4c0,0.2,0,0.3,0,0.4
		c0,0.1,0,0.2,0.1,0.4h-1.8v-0.6c-0.2,0.3-0.5,0.5-0.9,0.6s-0.7,0.2-1.1,0.2c-0.4,0-0.7,0-0.9-0.1c-0.3-0.1-0.5-0.2-0.7-0.4
		s-0.3-0.3-0.4-0.5c-0.1-0.2-0.1-0.4-0.1-0.6c0-0.6,0.2-1.1,0.6-1.5s1-0.6,1.8-0.7c0.4,0,0.8-0.1,1.1-0.1c0.3,0,0.6-0.1,0.8-0.1
		s0.4-0.1,0.5-0.2c0.1-0.1,0.1-0.3,0.1-0.5c0-0.2,0-0.3-0.1-0.4c-0.1-0.1-0.2-0.2-0.3-0.2c-0.1-0.1-0.2-0.1-0.4-0.1
		c-0.1,0-0.3,0-0.4,0c-0.3,0-0.6,0.1-0.9,0.2s-0.4,0.4-0.5,0.7H106C106.1,11.9,106.2,11.5,106.4,11.3z M109,13.9
		c-0.3,0-0.5,0.1-0.8,0.1c-0.2,0-0.3,0-0.5,0.1c-0.2,0-0.3,0.1-0.4,0.2c-0.1,0.1-0.2,0.2-0.3,0.3c-0.1,0.1-0.1,0.3-0.1,0.5
		c0,0.2,0.1,0.4,0.3,0.5c0.2,0.1,0.4,0.2,0.7,0.2c0.3,0,0.5,0,0.7-0.1c0.2-0.1,0.3-0.2,0.5-0.3c0.1-0.1,0.2-0.3,0.3-0.5
		c0.1-0.2,0.1-0.3,0.2-0.5l0.2-0.6C109.5,13.8,109.3,13.9,109,13.9z"/>
	<path d="M116.9,16c-0.2,0.4-0.5,0.6-0.8,0.8c-0.3,0.2-0.7,0.2-1.1,0.2c-0.8,0-1.4-0.2-1.8-0.7s-0.6-1.1-0.6-1.9
		c0-0.5,0.1-1.1,0.2-1.6s0.4-1,0.6-1.4c0.3-0.4,0.7-0.7,1.1-1c0.4-0.2,1-0.4,1.6-0.4c0.4,0,0.7,0.1,1.1,0.2c0.3,0.2,0.6,0.4,0.7,0.8
		h0l0.7-3.3h1.8l-1.9,8.9h-1.7L116.9,16L116.9,16z M115.4,11.7c-0.2,0.2-0.4,0.4-0.6,0.7s-0.3,0.6-0.3,0.9c-0.1,0.3-0.1,0.6-0.1,0.9
		c0,0.2,0,0.4,0.1,0.6c0.1,0.2,0.1,0.3,0.2,0.5c0.1,0.1,0.2,0.2,0.4,0.3s0.3,0.1,0.6,0.1c0.3,0,0.6-0.1,0.9-0.3s0.4-0.4,0.6-0.7
		c0.2-0.3,0.3-0.6,0.4-0.9s0.1-0.6,0.1-0.9c0-0.4-0.1-0.8-0.3-1c-0.2-0.3-0.5-0.4-1-0.4C115.9,11.5,115.6,11.6,115.4,11.7z"/>
	<path d="M121.3,16.8l-0.9-6.5h1.8l0.4,4.6h0l2.3-4.6h1.9l-3.5,6.5H121.3z"/>
	<path d="M129.6,10.3l-1.4,6.5h-1.8l1.4-6.5H129.6z M128,9.3l0.3-1.5h1.8l-0.3,1.5H128z"/>
	<path d="M134.4,11.7c-0.2-0.2-0.5-0.2-0.9-0.2c-0.3,0-0.6,0.1-0.9,0.3s-0.4,0.4-0.6,0.7s-0.2,0.6-0.3,0.9s-0.1,0.6-0.1,0.9
		c0,0.2,0,0.4,0.1,0.5s0.1,0.3,0.2,0.4c0.1,0.1,0.2,0.2,0.4,0.3c0.2,0.1,0.3,0.1,0.6,0.1c0.2,0,0.4,0,0.5-0.1
		c0.2-0.1,0.3-0.2,0.4-0.3c0.1-0.1,0.2-0.2,0.3-0.4c0.1-0.1,0.1-0.3,0.2-0.5h1.8c-0.3,0.8-0.7,1.4-1.2,1.9c-0.6,0.4-1.3,0.7-2.1,0.7
		c-0.9,0-1.6-0.2-2.1-0.7c-0.5-0.4-0.8-1.1-0.8-2.1c0-0.5,0.1-1.1,0.2-1.6s0.4-0.9,0.7-1.3c0.3-0.4,0.7-0.7,1.1-0.9
		c0.4-0.2,1-0.3,1.5-0.3c0.4,0,0.8,0,1.1,0.1c0.3,0.1,0.7,0.2,0.9,0.4c0.3,0.2,0.5,0.4,0.6,0.8c0.2,0.3,0.2,0.7,0.2,1.1h-1.8
		C134.7,12.2,134.6,11.9,134.4,11.7z"/>
	<path d="M138.6,14.1c0,0,0,0.1,0,0.1v0.2c0,0.4,0.1,0.7,0.3,0.9c0.2,0.2,0.6,0.4,1.1,0.4c0.2,0,0.3,0,0.5-0.1s0.3-0.1,0.4-0.2
		c0.1-0.1,0.2-0.2,0.3-0.3c0.1-0.1,0.2-0.2,0.2-0.3h1.8c-0.1,0.4-0.3,0.7-0.5,1c-0.2,0.3-0.4,0.5-0.7,0.7c-0.3,0.2-0.6,0.3-0.9,0.4
		c-0.4,0.1-0.8,0.1-1.2,0.1c-0.4,0-0.8-0.1-1.2-0.2c-0.4-0.1-0.7-0.3-0.9-0.5c-0.2-0.2-0.4-0.5-0.6-0.9c-0.1-0.4-0.2-0.8-0.2-1.2
		c0-0.5,0.1-1,0.2-1.5c0.2-0.5,0.4-0.9,0.7-1.3c0.3-0.4,0.7-0.7,1.1-0.9c0.4-0.2,0.9-0.3,1.5-0.3c0.5,0,0.9,0.1,1.2,0.2
		c0.4,0.1,0.7,0.3,0.9,0.5c0.3,0.2,0.5,0.5,0.6,0.9c0.1,0.4,0.2,0.8,0.2,1.2c0,0.3,0,0.7-0.1,1h-4.8C138.6,14,138.6,14.1,138.6,14.1
		z M141.7,12.4c0-0.2-0.1-0.3-0.2-0.4s-0.2-0.2-0.4-0.3c-0.2-0.1-0.4-0.1-0.6-0.1c-0.2,0-0.5,0-0.7,0.1c-0.2,0.1-0.4,0.2-0.5,0.3
		s-0.3,0.3-0.4,0.4c-0.1,0.2-0.2,0.3-0.2,0.5h3C141.7,12.7,141.7,12.5,141.7,12.4z"/>
	<path d="M147.7,11.5l0.2-1.2h1.1c0.1-0.4,0.2-0.8,0.3-1.1c0.1-0.3,0.2-0.6,0.4-0.8c0.2-0.2,0.4-0.4,0.7-0.5s0.7-0.2,1.1-0.2
		c0.2,0,0.4,0,0.6,0c0.2,0,0.4,0,0.6,0.1l-0.3,1.3c-0.1,0-0.2,0-0.3,0c-0.1,0-0.2,0-0.3,0c-0.2,0-0.4,0-0.5,0.1
		c-0.1,0.1-0.2,0.1-0.3,0.2c-0.1,0.1-0.1,0.2-0.1,0.4c0,0.1-0.1,0.3-0.1,0.5h1.3l-0.2,1.2h-1.3l-1.1,5.3h-1.8l1.1-5.3H147.7z"/>
	<path d="M152.2,12.6c0.2-0.5,0.4-0.9,0.7-1.3c0.3-0.4,0.7-0.7,1.2-0.9c0.5-0.2,1-0.3,1.6-0.3c0.4,0,0.8,0.1,1.2,0.2
		c0.4,0.1,0.7,0.3,1,0.5s0.5,0.5,0.6,0.9c0.1,0.3,0.2,0.7,0.2,1.2c0,0.6-0.1,1.1-0.3,1.6s-0.4,0.9-0.7,1.3c-0.3,0.4-0.7,0.7-1.2,0.9
		c-0.5,0.2-1,0.3-1.6,0.3c-0.9,0-1.6-0.2-2.2-0.7c-0.5-0.5-0.8-1.2-0.8-2.1C151.9,13.6,152,13.1,152.2,12.6z M153.8,14.7
		c0.1,0.2,0.1,0.3,0.2,0.5s0.2,0.2,0.4,0.3s0.3,0.1,0.5,0.1c0.3,0,0.6-0.1,0.9-0.3s0.4-0.4,0.6-0.7c0.2-0.3,0.3-0.6,0.3-0.9
		c0.1-0.3,0.1-0.6,0.1-0.9c0-0.4-0.1-0.8-0.3-1c-0.2-0.3-0.5-0.4-1-0.4c-0.3,0-0.6,0.1-0.8,0.3c-0.2,0.2-0.4,0.4-0.6,0.7
		c-0.1,0.3-0.3,0.6-0.3,0.9s-0.1,0.6-0.1,0.9C153.7,14.4,153.7,14.5,153.8,14.7z"/>
	<path d="M162.1,10.3l-0.3,1.2l0,0c0.2-0.5,0.5-0.8,0.9-1c0.4-0.2,0.8-0.3,1.3-0.3c0.2,0,0.4,0,0.5,0l-0.4,1.7c-0.1,0-0.2,0-0.4-0.1
		c-0.1,0-0.2,0-0.4,0c-0.3,0-0.6,0.1-0.9,0.2c-0.2,0.1-0.4,0.3-0.6,0.5c-0.2,0.2-0.3,0.4-0.4,0.7c-0.1,0.3-0.2,0.5-0.2,0.8l-0.6,2.9
		h-1.8l1.3-6.5H162.1z"/>
</g>
<g>
	<path d="M14.2,22.8L14,23.7h0c0.3-0.4,0.6-0.7,1-0.8c0.4-0.2,0.8-0.3,1.3-0.3c0.4,0,0.7,0.1,1,0.3c0.3,0.2,0.5,0.5,0.5,0.9
		c0.1-0.2,0.2-0.3,0.4-0.5s0.3-0.3,0.5-0.4c0.2-0.1,0.4-0.2,0.6-0.2c0.2-0.1,0.4-0.1,0.6-0.1c0.2,0,0.5,0,0.7,0.1
		c0.2,0.1,0.4,0.2,0.6,0.3c0.2,0.1,0.3,0.3,0.4,0.5c0.1,0.2,0.2,0.5,0.2,0.7c0,0.2,0,0.4-0.1,0.6c0,0.2-0.1,0.4-0.1,0.6L21,29.3
		h-1.8l0.9-4.1c0-0.2,0-0.3,0-0.5c0-0.2-0.1-0.4-0.2-0.5S19.6,24,19.3,24c-0.2,0-0.4,0.1-0.6,0.2c-0.2,0.1-0.4,0.3-0.5,0.4
		c-0.1,0.2-0.3,0.4-0.3,0.6c-0.1,0.2-0.2,0.4-0.2,0.6l-0.7,3.5h-1.8l0.8-4.1c0-0.2,0.1-0.3,0.1-0.5c0-0.2-0.1-0.4-0.2-0.5
		c-0.1-0.1-0.3-0.2-0.6-0.2c-0.2,0-0.4,0.1-0.6,0.2c-0.2,0.1-0.4,0.3-0.5,0.4c-0.1,0.2-0.3,0.4-0.3,0.6c-0.1,0.2-0.2,0.4-0.2,0.6
		l-0.7,3.5h-1.8l1.3-6.5H14.2z"/>
	<path d="M23.7,23.8c0.2-0.3,0.4-0.5,0.7-0.7c0.3-0.2,0.6-0.3,0.9-0.4s0.7-0.1,1.1-0.1c0.3,0,0.6,0,0.9,0.1c0.3,0,0.6,0.1,0.9,0.2
		c0.3,0.1,0.5,0.3,0.7,0.5c0.2,0.2,0.3,0.5,0.2,0.9c0,0.3,0,0.7-0.1,1.1L28.4,28c0,0.1-0.1,0.3-0.1,0.4c0,0.2,0,0.3,0,0.4
		c0,0.1,0,0.2,0.1,0.4h-1.8v-0.6c-0.2,0.3-0.5,0.5-0.9,0.6s-0.7,0.2-1.1,0.2c-0.4,0-0.7,0-0.9-0.1c-0.3-0.1-0.5-0.2-0.7-0.4
		s-0.3-0.3-0.4-0.5c-0.1-0.2-0.1-0.4-0.1-0.6c0-0.6,0.2-1.1,0.6-1.5c0.4-0.4,1-0.6,1.8-0.7c0.4,0,0.8-0.1,1.1-0.1
		c0.3,0,0.6-0.1,0.8-0.1s0.4-0.1,0.5-0.2c0.1-0.1,0.1-0.3,0.1-0.5c0-0.2,0-0.3-0.1-0.4c-0.1-0.1-0.2-0.2-0.3-0.2
		c-0.1-0.1-0.2-0.1-0.4-0.1c-0.1,0-0.3,0-0.4,0c-0.3,0-0.6,0.1-0.9,0.2s-0.4,0.4-0.5,0.7h-1.7C23.4,24.4,23.5,24,23.7,23.8z
		 M26.4,26.4c-0.3,0-0.5,0.1-0.8,0.1c-0.2,0-0.3,0-0.5,0.1c-0.2,0-0.3,0.1-0.4,0.2c-0.1,0.1-0.2,0.2-0.3,0.3
		c-0.1,0.1-0.1,0.3-0.1,0.5c0,0.2,0.1,0.4,0.3,0.5c0.2,0.1,0.4,0.2,0.7,0.2c0.3,0,0.5,0,0.7-0.1s0.3-0.2,0.5-0.3
		c0.1-0.1,0.2-0.3,0.3-0.5c0.1-0.2,0.1-0.3,0.2-0.5l0.2-0.6C26.9,26.3,26.6,26.4,26.4,26.4z"/>
	<path d="M32.7,22.8l-0.2,0.9h0c0.6-0.7,1.3-1.1,2.3-1.1c1.3,0,1.9,0.6,1.9,1.7c0,0.1,0,0.2,0,0.3c0,0.1,0,0.2-0.1,0.3
		c0,0.1,0,0.2-0.1,0.3c0,0.1,0,0.2,0,0.2l-0.8,3.8h-1.8l0.8-3.8c0-0.1,0-0.2,0.1-0.4c0-0.2,0-0.3,0-0.4c0-0.2-0.1-0.3-0.3-0.5
		S34.1,24,33.9,24c-0.3,0-0.5,0.1-0.7,0.2c-0.2,0.1-0.4,0.2-0.5,0.4c-0.1,0.2-0.3,0.4-0.4,0.6c-0.1,0.2-0.2,0.4-0.2,0.7l-0.7,3.4
		h-1.8l1.3-6.5H32.7z"/>
	<path d="M38.5,23.8c0.2-0.3,0.4-0.5,0.7-0.7c0.3-0.2,0.6-0.3,0.9-0.4s0.7-0.1,1.1-0.1c0.3,0,0.6,0,0.9,0.1c0.3,0,0.6,0.1,0.9,0.2
		c0.3,0.1,0.5,0.3,0.7,0.5c0.2,0.2,0.3,0.5,0.2,0.9c0,0.3,0,0.7-0.1,1.1L43.2,28c0,0.1-0.1,0.3-0.1,0.4c0,0.2,0,0.3,0,0.4
		c0,0.1,0,0.2,0.1,0.4h-1.8v-0.6c-0.2,0.3-0.5,0.5-0.9,0.6s-0.7,0.2-1.1,0.2c-0.4,0-0.7,0-0.9-0.1c-0.3-0.1-0.5-0.2-0.7-0.4
		s-0.3-0.3-0.4-0.5c-0.1-0.2-0.1-0.4-0.1-0.6c0-0.6,0.2-1.1,0.6-1.5c0.4-0.4,1-0.6,1.8-0.7c0.4,0,0.8-0.1,1.1-0.1
		c0.3,0,0.6-0.1,0.8-0.1s0.4-0.1,0.5-0.2c0.1-0.1,0.1-0.3,0.1-0.5c0-0.2,0-0.3-0.1-0.4C42.1,24.1,42,24,41.9,24
		c-0.1-0.1-0.2-0.1-0.4-0.1c-0.1,0-0.3,0-0.4,0c-0.3,0-0.6,0.1-0.9,0.2s-0.4,0.4-0.5,0.7h-1.7C38.2,24.4,38.3,24,38.5,23.8z
		 M41.2,26.4c-0.3,0-0.5,0.1-0.8,0.1c-0.2,0-0.3,0-0.5,0.1c-0.2,0-0.3,0.1-0.4,0.2c-0.1,0.1-0.2,0.2-0.3,0.3
		c-0.1,0.1-0.1,0.3-0.1,0.5c0,0.2,0.1,0.4,0.3,0.5c0.2,0.1,0.4,0.2,0.7,0.2c0.3,0,0.5,0,0.7-0.1s0.3-0.2,0.5-0.3
		c0.1-0.1,0.2-0.3,0.3-0.5c0.1-0.2,0.1-0.3,0.2-0.5l0.2-0.6C41.7,26.3,41.4,26.4,41.2,26.4z"/>
	<path d="M50.2,30.2c-0.2,0.3-0.4,0.6-0.7,0.9c-0.3,0.2-0.6,0.4-1,0.5c-0.4,0.1-0.9,0.2-1.4,0.2c-0.3,0-0.7,0-1-0.1
		c-0.3-0.1-0.6-0.2-0.9-0.4c-0.3-0.2-0.5-0.4-0.6-0.6c-0.2-0.3-0.2-0.6-0.2-1h1.8c0,0.2,0,0.3,0.1,0.4c0.1,0.1,0.2,0.2,0.3,0.3
		c0.1,0.1,0.2,0.1,0.4,0.2s0.3,0,0.4,0c0.3,0,0.5-0.1,0.7-0.2c0.2-0.1,0.3-0.3,0.5-0.5c0.1-0.2,0.2-0.4,0.3-0.7
		c0.1-0.3,0.2-0.6,0.3-0.9l0,0c-0.5,0.6-1.1,0.9-1.8,0.9c-0.4,0-0.7-0.1-1-0.2c-0.3-0.1-0.6-0.3-0.8-0.5c-0.2-0.2-0.4-0.5-0.5-0.8
		c-0.1-0.3-0.2-0.7-0.2-1.1c0-0.5,0.1-0.9,0.2-1.4c0.1-0.5,0.4-0.9,0.6-1.2c0.3-0.4,0.6-0.7,1-0.9c0.4-0.2,0.9-0.3,1.4-0.3
		c0.4,0,0.8,0.1,1.2,0.3c0.3,0.2,0.6,0.5,0.8,0.9h0l0.2-1H52l-1.3,6.1C50.6,29.4,50.4,29.8,50.2,30.2z M47.6,24.2
		c-0.2,0.2-0.4,0.4-0.6,0.6c-0.2,0.2-0.3,0.5-0.3,0.8c-0.1,0.3-0.1,0.6-0.1,0.8c0,0.2,0,0.4,0.1,0.5c0,0.2,0.1,0.3,0.2,0.5
		s0.2,0.2,0.4,0.3c0.1,0.1,0.3,0.1,0.5,0.1c0.3,0,0.6-0.1,0.8-0.2c0.2-0.2,0.4-0.3,0.6-0.6c0.2-0.2,0.3-0.5,0.3-0.8
		c0.1-0.3,0.1-0.6,0.1-0.9c0-0.4-0.1-0.7-0.3-1c-0.2-0.3-0.5-0.4-1-0.4C48.1,24,47.8,24.1,47.6,24.2z"/>
	<path d="M55.2,22.8l-1.4,6.5h-1.8l1.4-6.5H55.2z M53.6,21.8l0.3-1.5h1.8l-0.3,1.5H53.6z"/>
	<path d="M58.4,22.8l-0.2,0.9h0c0.6-0.7,1.3-1.1,2.3-1.1c1.3,0,1.9,0.6,1.9,1.7c0,0.1,0,0.2,0,0.3c0,0.1,0,0.2-0.1,0.3
		c0,0.1,0,0.2-0.1,0.3c0,0.1,0,0.2,0,0.2l-0.8,3.8h-1.8l0.8-3.8c0-0.1,0-0.2,0.1-0.4c0-0.2,0-0.3,0-0.4c0-0.2-0.1-0.3-0.3-0.5
		S59.8,24,59.6,24c-0.3,0-0.5,0.1-0.7,0.2c-0.2,0.1-0.4,0.2-0.5,0.4c-0.1,0.2-0.3,0.4-0.4,0.6c-0.1,0.2-0.2,0.4-0.2,0.7l-0.7,3.4
		h-1.8l1.3-6.5H58.4z"/>
	<path d="M68.7,30.2c-0.2,0.3-0.4,0.6-0.7,0.9c-0.3,0.2-0.6,0.4-1,0.5c-0.4,0.1-0.9,0.2-1.4,0.2c-0.3,0-0.7,0-1-0.1
		c-0.3-0.1-0.6-0.2-0.9-0.4c-0.3-0.2-0.5-0.4-0.6-0.6c-0.2-0.3-0.2-0.6-0.2-1h1.8c0,0.2,0,0.3,0.1,0.4c0.1,0.1,0.2,0.2,0.3,0.3
		c0.1,0.1,0.2,0.1,0.4,0.2s0.3,0,0.4,0c0.3,0,0.5-0.1,0.7-0.2c0.2-0.1,0.3-0.3,0.5-0.5c0.1-0.2,0.2-0.4,0.3-0.7
		c0.1-0.3,0.2-0.6,0.3-0.9l0,0c-0.5,0.6-1.1,0.9-1.8,0.9c-0.4,0-0.7-0.1-1-0.2c-0.3-0.1-0.6-0.3-0.8-0.5c-0.2-0.2-0.4-0.5-0.5-0.8
		c-0.1-0.3-0.2-0.7-0.2-1.1c0-0.5,0.1-0.9,0.2-1.4c0.1-0.5,0.4-0.9,0.6-1.2c0.3-0.4,0.6-0.7,1-0.9c0.4-0.2,0.9-0.3,1.4-0.3
		c0.4,0,0.8,0.1,1.2,0.3c0.3,0.2,0.6,0.5,0.8,0.9h0l0.2-1h1.7l-1.3,6.1C69.1,29.4,68.9,29.8,68.7,30.2z M66.1,24.2
		c-0.2,0.2-0.4,0.4-0.6,0.6c-0.2,0.2-0.3,0.5-0.3,0.8c-0.1,0.3-0.1,0.6-0.1,0.8c0,0.2,0,0.4,0.1,0.5c0,0.2,0.1,0.3,0.2,0.5
		s0.2,0.2,0.4,0.3c0.1,0.1,0.3,0.1,0.5,0.1c0.3,0,0.6-0.1,0.8-0.2c0.2-0.2,0.4-0.3,0.6-0.6c0.2-0.2,0.3-0.5,0.3-0.8
		c0.1-0.3,0.1-0.6,0.1-0.9c0-0.4-0.1-0.7-0.3-1c-0.2-0.3-0.5-0.4-1-0.4C66.6,24,66.3,24.1,66.1,24.2z"/>
	<path d="M77.7,20.4l-1.9,8.9h-1.8l1.9-8.9H77.7z"/>
	<path d="M80.5,22.8l-1.4,6.5h-1.8l1.4-6.5H80.5z M78.9,21.8l0.3-1.5H81l-0.3,1.5H78.9z"/>
	<path d="M81,24l0.2-1.2h1.1c0.1-0.4,0.2-0.8,0.3-1.1c0.1-0.3,0.2-0.6,0.4-0.8c0.2-0.2,0.4-0.4,0.7-0.5s0.7-0.2,1.1-0.2
		c0.2,0,0.4,0,0.6,0c0.2,0,0.4,0,0.6,0.1l-0.3,1.3c-0.1,0-0.2,0-0.3,0c-0.1,0-0.2,0-0.3,0c-0.2,0-0.4,0-0.5,0.1s-0.2,0.1-0.3,0.2
		c-0.1,0.1-0.1,0.2-0.1,0.4c0,0.1-0.1,0.3-0.1,0.5h1.3L85.1,24h-1.3l-1.1,5.3h-1.8L82,24H81z"/>
	<path d="M86.9,26.6c0,0,0,0.1,0,0.1v0.2c0,0.4,0.1,0.7,0.3,0.9c0.2,0.2,0.6,0.3,1.1,0.3c0.2,0,0.3,0,0.5-0.1
		c0.1-0.1,0.3-0.1,0.4-0.2c0.1-0.1,0.2-0.2,0.3-0.3c0.1-0.1,0.2-0.2,0.2-0.3h1.8c-0.1,0.4-0.3,0.7-0.5,1c-0.2,0.3-0.4,0.5-0.7,0.7
		c-0.3,0.2-0.6,0.3-0.9,0.4c-0.4,0.1-0.8,0.1-1.2,0.1c-0.4,0-0.8-0.1-1.2-0.2c-0.4-0.1-0.7-0.3-0.9-0.5c-0.2-0.2-0.4-0.5-0.6-0.9
		c-0.1-0.3-0.2-0.8-0.2-1.2c0-0.5,0.1-1,0.2-1.5c0.2-0.5,0.4-0.9,0.7-1.3c0.3-0.4,0.7-0.7,1.1-0.9c0.4-0.2,0.9-0.3,1.5-0.3
		c0.5,0,0.9,0.1,1.2,0.2c0.4,0.1,0.7,0.3,0.9,0.5c0.3,0.2,0.5,0.5,0.6,0.9c0.1,0.4,0.2,0.8,0.2,1.2c0,0.3,0,0.7-0.1,1h-4.8
		C86.9,26.5,86.9,26.6,86.9,26.6z M90,24.9c0-0.2-0.1-0.3-0.2-0.4s-0.2-0.2-0.4-0.3C89.3,24,89.1,24,88.9,24c-0.2,0-0.5,0-0.7,0.1
		c-0.2,0.1-0.4,0.2-0.5,0.3s-0.3,0.3-0.4,0.4c-0.1,0.2-0.2,0.3-0.2,0.5h3C90.1,25.2,90.1,25,90,24.9z"/>
	<path d="M98.7,22.8l-1.4,6.5h-1.8l1.4-6.5H98.7z M97.2,21.8l0.3-1.5h1.8l-0.3,1.5H97.2z"/>
	<path d="M101.9,22.8l-0.2,0.9h0c0.6-0.7,1.3-1.1,2.3-1.1c1.3,0,1.9,0.6,1.9,1.7c0,0.1,0,0.2,0,0.3c0,0.1,0,0.2-0.1,0.3
		c0,0.1,0,0.2-0.1,0.3c0,0.1,0,0.2,0,0.2l-0.8,3.8h-1.8l0.8-3.8c0-0.1,0-0.2,0.1-0.4c0-0.2,0-0.3,0-0.4c0-0.2-0.1-0.3-0.3-0.5
		s-0.4-0.2-0.6-0.2c-0.3,0-0.5,0.1-0.7,0.2c-0.2,0.1-0.4,0.2-0.5,0.4c-0.1,0.2-0.3,0.4-0.4,0.6c-0.1,0.2-0.2,0.4-0.2,0.7l-0.7,3.4
		h-1.8l1.3-6.5H101.9z"/>
	<path d="M110.8,24.1c-0.2-0.2-0.4-0.2-0.8-0.2c-0.3,0-0.6,0-0.8,0.1s-0.3,0.3-0.3,0.5c0,0.1,0.1,0.3,0.2,0.4
		c0.1,0.1,0.3,0.2,0.6,0.3l0.9,0.3c0.2,0.1,0.5,0.2,0.7,0.3c0.2,0.1,0.4,0.2,0.5,0.4c0.2,0.1,0.3,0.3,0.4,0.5
		c0.1,0.2,0.1,0.4,0.1,0.7c0,0.4-0.1,0.7-0.3,1c-0.2,0.3-0.4,0.5-0.7,0.7c-0.3,0.2-0.6,0.3-1,0.4c-0.4,0.1-0.7,0.1-1.1,0.1
		c-0.3,0-0.6,0-1-0.1c-0.3-0.1-0.6-0.2-0.9-0.3c-0.3-0.2-0.5-0.4-0.6-0.6c-0.2-0.3-0.2-0.6-0.2-1v-0.3h1.6v0.2c0,0.2,0,0.3,0.1,0.4
		c0.1,0.1,0.2,0.2,0.3,0.3c0.1,0.1,0.3,0.1,0.4,0.2c0.2,0,0.3,0.1,0.5,0.1c0.1,0,0.3,0,0.4,0s0.3-0.1,0.4-0.1
		c0.1-0.1,0.2-0.1,0.3-0.2s0.1-0.2,0.1-0.4c0-0.2-0.1-0.4-0.2-0.5c-0.1-0.1-0.3-0.2-0.5-0.2l-1.4-0.4c-0.2-0.1-0.4-0.2-0.6-0.2
		c-0.2-0.1-0.3-0.2-0.4-0.3c-0.1-0.1-0.2-0.3-0.3-0.5s-0.1-0.4-0.1-0.6c0-0.4,0.1-0.7,0.3-1s0.4-0.5,0.7-0.6s0.6-0.3,0.9-0.4
		s0.7-0.1,1-0.1c0.4,0,0.7,0,1,0.1c0.3,0.1,0.6,0.2,0.9,0.3c0.2,0.2,0.4,0.4,0.6,0.6c0.1,0.3,0.2,0.6,0.2,1H111
		C111,24.4,110.9,24.2,110.8,24.1z"/>
	<path d="M117.4,29.3l0.2-0.9h0c-0.6,0.7-1.3,1.1-2.3,1.1c-1.3,0-1.9-0.6-1.9-1.7c0-0.1,0-0.2,0-0.3c0-0.1,0-0.2,0-0.3
		c0-0.1,0-0.2,0.1-0.3c0-0.1,0-0.2,0.1-0.2l0.8-3.8h1.8l-0.8,3.8c0,0,0,0.1,0,0.2c0,0.1,0,0.1,0,0.2c0,0.1,0,0.1,0,0.2
		c0,0.1,0,0.1,0,0.2c0,0.2,0.1,0.3,0.3,0.5s0.4,0.2,0.6,0.2c0.3,0,0.5-0.1,0.7-0.2c0.2-0.1,0.4-0.2,0.5-0.4c0.1-0.2,0.3-0.4,0.4-0.6
		c0.1-0.2,0.2-0.4,0.2-0.7l0.7-3.4h1.8l-1.4,6.5H117.4z"/>
	<path d="M123.6,22.8l-0.3,1.2l0,0c0.2-0.5,0.5-0.8,0.9-1c0.4-0.2,0.8-0.3,1.3-0.3c0.2,0,0.4,0,0.5,0l-0.4,1.7c-0.1,0-0.2,0-0.4-0.1
		c-0.1,0-0.2,0-0.4,0c-0.3,0-0.6,0.1-0.9,0.2c-0.2,0.1-0.4,0.3-0.6,0.5c-0.2,0.2-0.3,0.4-0.4,0.7c-0.1,0.3-0.2,0.5-0.2,0.8l-0.6,2.9
		h-1.8l1.3-6.5H123.6z"/>
	<path d="M126.7,23.8c0.2-0.3,0.4-0.5,0.7-0.7c0.3-0.2,0.6-0.3,0.9-0.4s0.7-0.1,1.1-0.1c0.3,0,0.6,0,0.9,0.1c0.3,0,0.6,0.1,0.9,0.2
		c0.3,0.1,0.5,0.3,0.7,0.5c0.2,0.2,0.3,0.5,0.2,0.9c0,0.3,0,0.7-0.1,1.1l-0.6,2.6c0,0.1-0.1,0.3-0.1,0.4c0,0.2,0,0.3,0,0.4
		c0,0.1,0,0.2,0.1,0.4h-1.8v-0.6c-0.2,0.3-0.5,0.5-0.9,0.6s-0.7,0.2-1.1,0.2c-0.4,0-0.7,0-0.9-0.1c-0.3-0.1-0.5-0.2-0.7-0.4
		s-0.3-0.3-0.4-0.5c-0.1-0.2-0.1-0.4-0.1-0.6c0-0.6,0.2-1.1,0.6-1.5c0.4-0.4,1-0.6,1.8-0.7c0.4,0,0.8-0.1,1.1-0.1
		c0.3,0,0.6-0.1,0.8-0.1s0.4-0.1,0.5-0.2c0.1-0.1,0.1-0.3,0.1-0.5c0-0.2,0-0.3-0.1-0.4c-0.1-0.1-0.2-0.2-0.3-0.2
		c-0.1-0.1-0.2-0.1-0.4-0.1c-0.1,0-0.3,0-0.4,0c-0.3,0-0.6,0.1-0.9,0.2s-0.4,0.4-0.5,0.7h-1.7C126.4,24.4,126.5,24,126.7,23.8z
		 M129.4,26.4c-0.3,0-0.5,0.1-0.8,0.1c-0.2,0-0.3,0-0.5,0.1c-0.2,0-0.3,0.1-0.4,0.2c-0.1,0.1-0.2,0.2-0.3,0.3
		c-0.1,0.1-0.1,0.3-0.1,0.5c0,0.2,0.1,0.4,0.3,0.5c0.2,0.1,0.4,0.2,0.7,0.2c0.3,0,0.5,0,0.7-0.1s0.3-0.2,0.5-0.3
		c0.1-0.1,0.2-0.3,0.3-0.5c0.1-0.2,0.1-0.3,0.2-0.5l0.2-0.6C129.9,26.3,129.6,26.4,129.4,26.4z"/>
	<path d="M135.7,22.8l-0.2,0.9h0c0.6-0.7,1.3-1.1,2.3-1.1c1.3,0,1.9,0.6,1.9,1.7c0,0.1,0,0.2,0,0.3c0,0.1,0,0.2-0.1,0.3
		c0,0.1,0,0.2-0.1,0.3c0,0.1,0,0.2,0,0.2l-0.8,3.8h-1.8l0.8-3.8c0-0.1,0-0.2,0.1-0.4c0-0.2,0-0.3,0-0.4c0-0.2-0.1-0.3-0.3-0.5
		s-0.4-0.2-0.6-0.2c-0.3,0-0.5,0.1-0.7,0.2c-0.2,0.1-0.4,0.2-0.5,0.4c-0.1,0.2-0.3,0.4-0.4,0.6c-0.1,0.2-0.2,0.4-0.2,0.7l-0.7,3.4
		h-1.8l1.3-6.5H135.7z"/>
	<path d="M145,24.2c-0.2-0.2-0.5-0.2-0.9-0.2c-0.3,0-0.6,0.1-0.9,0.3s-0.4,0.4-0.6,0.7s-0.2,0.6-0.3,0.9c-0.1,0.3-0.1,0.6-0.1,0.9
		c0,0.2,0,0.4,0.1,0.5s0.1,0.3,0.2,0.4c0.1,0.1,0.2,0.2,0.4,0.3c0.2,0.1,0.3,0.1,0.6,0.1c0.2,0,0.4,0,0.5-0.1s0.3-0.2,0.4-0.3
		c0.1-0.1,0.2-0.2,0.3-0.4s0.1-0.3,0.2-0.5h1.8c-0.3,0.8-0.7,1.4-1.2,1.9c-0.6,0.4-1.3,0.7-2.1,0.7c-0.9,0-1.6-0.2-2.1-0.7
		c-0.5-0.4-0.8-1.1-0.8-2.1c0-0.5,0.1-1.1,0.2-1.6s0.4-0.9,0.7-1.3c0.3-0.4,0.7-0.7,1.1-0.9c0.4-0.2,1-0.3,1.5-0.3
		c0.4,0,0.8,0,1.1,0.1c0.3,0.1,0.7,0.2,0.9,0.4c0.3,0.2,0.5,0.4,0.6,0.8c0.2,0.3,0.2,0.7,0.2,1.1h-1.8
		C145.3,24.7,145.2,24.4,145,24.2z"/>
	<path d="M149.2,26.6c0,0,0,0.1,0,0.1v0.2c0,0.4,0.1,0.7,0.3,0.9c0.2,0.2,0.6,0.3,1.1,0.3c0.2,0,0.3,0,0.5-0.1
		c0.1-0.1,0.3-0.1,0.4-0.2c0.1-0.1,0.2-0.2,0.3-0.3s0.2-0.2,0.2-0.3h1.8c-0.1,0.4-0.3,0.7-0.5,1c-0.2,0.3-0.4,0.5-0.7,0.7
		s-0.6,0.3-0.9,0.4c-0.4,0.1-0.8,0.1-1.2,0.1c-0.4,0-0.8-0.1-1.2-0.2c-0.4-0.1-0.7-0.3-0.9-0.5c-0.2-0.2-0.4-0.5-0.6-0.9
		s-0.2-0.8-0.2-1.2c0-0.5,0.1-1,0.2-1.5c0.2-0.5,0.4-0.9,0.7-1.3c0.3-0.4,0.7-0.7,1.1-0.9c0.4-0.2,0.9-0.3,1.5-0.3
		c0.5,0,0.9,0.1,1.2,0.2c0.4,0.1,0.7,0.3,1,0.5c0.3,0.2,0.5,0.5,0.6,0.9c0.1,0.4,0.2,0.8,0.2,1.2c0,0.3,0,0.7-0.1,1h-4.8
		C149.2,26.5,149.2,26.6,149.2,26.6z M152.3,24.9c0-0.2-0.1-0.3-0.2-0.4c-0.1-0.1-0.2-0.2-0.4-0.3s-0.4-0.1-0.6-0.1
		c-0.2,0-0.5,0-0.7,0.1s-0.4,0.2-0.5,0.3s-0.3,0.3-0.4,0.4c-0.1,0.2-0.2,0.3-0.2,0.5h3C152.3,25.2,152.3,25,152.3,24.9z"/>
</g>
<g>
	<path d="M11.5,36.5l0.2-1.2h1.1c0.1-0.4,0.2-0.8,0.3-1.1c0.1-0.3,0.2-0.6,0.4-0.8c0.2-0.2,0.4-0.4,0.7-0.5c0.3-0.1,0.7-0.2,1.1-0.2
		c0.2,0,0.4,0,0.6,0c0.2,0,0.4,0,0.6,0.1l-0.3,1.3c-0.1,0-0.2,0-0.3,0c-0.1,0-0.2,0-0.3,0c-0.2,0-0.4,0-0.5,0.1s-0.2,0.1-0.3,0.2
		s-0.1,0.2-0.1,0.4s-0.1,0.3-0.1,0.5h1.3l-0.2,1.2h-1.3l-1.1,5.3h-1.8l1.1-5.3H11.5z"/>
	<path d="M16,37.6c0.2-0.5,0.4-0.9,0.7-1.3c0.3-0.4,0.7-0.7,1.2-0.9c0.5-0.2,1-0.3,1.5-0.3c0.4,0,0.8,0.1,1.2,0.2s0.7,0.3,1,0.5
		c0.3,0.2,0.5,0.5,0.6,0.9c0.1,0.3,0.2,0.7,0.2,1.2c0,0.6-0.1,1.1-0.3,1.6c-0.2,0.5-0.4,0.9-0.7,1.3c-0.3,0.4-0.7,0.7-1.2,0.9
		c-0.5,0.2-1,0.3-1.6,0.3c-0.9,0-1.6-0.2-2.2-0.7s-0.8-1.2-0.8-2.1C15.8,38.6,15.9,38.1,16,37.6z M17.6,39.7
		c0.1,0.2,0.1,0.3,0.2,0.5c0.1,0.1,0.2,0.2,0.4,0.3s0.3,0.1,0.5,0.1c0.3,0,0.6-0.1,0.9-0.3c0.2-0.2,0.4-0.4,0.6-0.7
		c0.2-0.3,0.3-0.6,0.3-0.9c0.1-0.3,0.1-0.6,0.1-0.9c0-0.4-0.1-0.8-0.3-1c-0.2-0.3-0.5-0.4-1-0.4c-0.3,0-0.6,0.1-0.8,0.3
		c-0.2,0.2-0.4,0.4-0.6,0.7s-0.3,0.6-0.3,0.9c-0.1,0.3-0.1,0.6-0.1,0.9C17.6,39.4,17.6,39.5,17.6,39.7z"/>
	<path d="M26,35.3l-0.3,1.2l0,0c0.2-0.4,0.5-0.8,0.9-1c0.4-0.2,0.8-0.3,1.3-0.3c0.2,0,0.4,0,0.5,0l-0.4,1.7c-0.1,0-0.2,0-0.4-0.1
		c-0.1,0-0.2,0-0.4,0c-0.3,0-0.6,0.1-0.9,0.2c-0.2,0.1-0.4,0.3-0.6,0.5c-0.2,0.2-0.3,0.4-0.4,0.7s-0.2,0.5-0.2,0.8l-0.6,2.9h-1.8
		l1.3-6.5H26z"/>
	<path d="M35.9,41c-0.2,0.4-0.5,0.6-0.8,0.8c-0.3,0.2-0.7,0.2-1.1,0.2c-0.8,0-1.4-0.2-1.8-0.7s-0.6-1.1-0.6-1.9
		c0-0.5,0.1-1.1,0.2-1.6c0.1-0.5,0.4-1,0.6-1.4c0.3-0.4,0.7-0.7,1.1-1s1-0.4,1.6-0.4c0.4,0,0.7,0.1,1.1,0.2c0.3,0.2,0.6,0.4,0.7,0.8
		h0l0.7-3.3h1.8l-1.9,8.9h-1.7L35.9,41L35.9,41z M34.4,36.7c-0.2,0.2-0.4,0.4-0.6,0.7s-0.3,0.6-0.3,0.9c-0.1,0.3-0.1,0.6-0.1,0.9
		c0,0.2,0,0.4,0.1,0.5c0.1,0.2,0.1,0.3,0.2,0.5c0.1,0.1,0.2,0.2,0.4,0.3s0.3,0.1,0.6,0.1c0.3,0,0.6-0.1,0.9-0.3
		c0.2-0.2,0.4-0.4,0.6-0.7c0.2-0.3,0.3-0.6,0.4-0.9c0.1-0.3,0.1-0.6,0.1-0.9c0-0.4-0.1-0.8-0.3-1c-0.2-0.3-0.5-0.4-1-0.4
		C34.9,36.5,34.6,36.6,34.4,36.7z"/>
	<path d="M40.9,39.1C40.9,39.1,40.9,39.2,40.9,39.1v0.3c0,0.4,0.1,0.7,0.3,0.9s0.6,0.4,1.1,0.4c0.2,0,0.3,0,0.5-0.1
		c0.1-0.1,0.3-0.1,0.4-0.2c0.1-0.1,0.2-0.2,0.3-0.3c0.1-0.1,0.2-0.2,0.2-0.3h1.8c-0.1,0.4-0.3,0.7-0.5,1c-0.2,0.3-0.4,0.5-0.7,0.7
		c-0.3,0.2-0.6,0.3-0.9,0.4c-0.4,0.1-0.8,0.1-1.2,0.1c-0.4,0-0.8-0.1-1.2-0.2c-0.4-0.1-0.7-0.3-0.9-0.5s-0.4-0.5-0.6-0.9
		c-0.1-0.4-0.2-0.8-0.2-1.2c0-0.5,0.1-1,0.2-1.5c0.2-0.5,0.4-0.9,0.7-1.3c0.3-0.4,0.7-0.7,1.1-0.9c0.4-0.2,0.9-0.3,1.5-0.3
		c0.5,0,0.9,0.1,1.2,0.2c0.4,0.1,0.7,0.3,0.9,0.5c0.3,0.2,0.5,0.5,0.6,0.9c0.1,0.4,0.2,0.8,0.2,1.2c0,0.3,0,0.7-0.1,1h-4.8
		C40.9,39,40.9,39.1,40.9,39.1z M44,37.4c0-0.2-0.1-0.3-0.2-0.4c-0.1-0.1-0.2-0.2-0.4-0.3c-0.2-0.1-0.4-0.1-0.6-0.1
		c-0.2,0-0.5,0-0.7,0.1c-0.2,0.1-0.4,0.2-0.5,0.3s-0.3,0.3-0.4,0.4c-0.1,0.2-0.2,0.3-0.2,0.5h3C44,37.7,44,37.5,44,37.4z"/>
	<path d="M49.1,35.3l-0.2,0.9h0c0.6-0.7,1.3-1.1,2.3-1.1c1.3,0,1.9,0.6,1.9,1.7c0,0.1,0,0.2,0,0.3c0,0.1,0,0.2-0.1,0.3
		c0,0.1,0,0.2-0.1,0.3c0,0.1,0,0.2,0,0.2l-0.8,3.8h-1.8l0.8-3.8c0-0.1,0-0.2,0.1-0.4s0-0.3,0-0.4c0-0.2-0.1-0.3-0.3-0.5
		s-0.4-0.2-0.6-0.2c-0.3,0-0.5,0.1-0.7,0.2s-0.4,0.2-0.5,0.4s-0.3,0.4-0.4,0.6c-0.1,0.2-0.2,0.4-0.2,0.7l-0.7,3.4h-1.8l1.3-6.5H49.1
		z"/>
	<path d="M58.6,35.3l-0.3,1.2h-1.3l-0.7,3.2c0,0.1,0,0.1,0,0.2c0,0.1,0,0.1,0,0.1c0,0.1,0,0.2,0.1,0.3s0.1,0.1,0.1,0.1
		c0.1,0,0.1,0.1,0.2,0.1c0.1,0,0.1,0,0.2,0c0.2,0,0.4,0,0.6,0l-0.3,1.4c-0.2,0-0.4,0-0.5,0c-0.2,0-0.4,0-0.6,0c-0.2,0-0.4,0-0.6-0.1
		c-0.2,0-0.4-0.1-0.5-0.2s-0.3-0.2-0.4-0.4s-0.1-0.4-0.1-0.7c0-0.1,0-0.2,0-0.3c0-0.1,0-0.2,0.1-0.3l0.7-3.5h-1.2l0.3-1.2h1.1l0.4-2
		h1.8l-0.4,2H58.6z"/>
	<path d="M61.5,35.3l-1.4,6.5h-1.8l1.4-6.5H61.5z M59.9,34.3l0.3-1.5H62l-0.3,1.5H59.9z"/>
	<path d="M65.9,36.6c-0.2-0.2-0.4-0.2-0.8-0.2c-0.3,0-0.6,0-0.8,0.1C64.1,36.6,64,36.7,64,37c0,0.1,0.1,0.3,0.2,0.4
		c0.1,0.1,0.3,0.2,0.6,0.3l0.9,0.3c0.2,0.1,0.5,0.2,0.7,0.3c0.2,0.1,0.4,0.2,0.5,0.4c0.2,0.1,0.3,0.3,0.4,0.5
		c0.1,0.2,0.1,0.4,0.1,0.7c0,0.4-0.1,0.7-0.3,1s-0.4,0.5-0.7,0.7c-0.3,0.2-0.6,0.3-1,0.4s-0.7,0.1-1.1,0.1c-0.3,0-0.6,0-1-0.1
		c-0.3-0.1-0.6-0.2-0.9-0.3c-0.3-0.2-0.5-0.4-0.6-0.6c-0.2-0.3-0.2-0.6-0.2-1v-0.3h1.6v0.2c0,0.2,0,0.3,0.1,0.4
		c0.1,0.1,0.2,0.2,0.3,0.3c0.1,0.1,0.3,0.1,0.4,0.2c0.2,0,0.3,0.1,0.5,0.1c0.1,0,0.3,0,0.4,0c0.1,0,0.3-0.1,0.4-0.1
		c0.1-0.1,0.2-0.1,0.3-0.2s0.1-0.2,0.1-0.4c0-0.2-0.1-0.4-0.2-0.5c-0.1-0.1-0.3-0.2-0.5-0.2l-1.4-0.4c-0.2-0.1-0.4-0.2-0.6-0.2
		s-0.3-0.2-0.4-0.3c-0.1-0.1-0.2-0.3-0.3-0.5s-0.1-0.4-0.1-0.7c0-0.4,0.1-0.7,0.3-1c0.2-0.3,0.4-0.5,0.7-0.6
		c0.3-0.2,0.6-0.3,0.9-0.3c0.3-0.1,0.7-0.1,1-0.1c0.4,0,0.7,0,1,0.1c0.3,0.1,0.6,0.2,0.9,0.3c0.2,0.2,0.4,0.4,0.6,0.6
		c0.1,0.3,0.2,0.6,0.2,1h-1.6C66.1,36.9,66,36.7,65.9,36.6z"/>
	<path d="M73,35.3l-0.3,1.2h-1.3l-0.7,3.2c0,0.1,0,0.1,0,0.2c0,0.1,0,0.1,0,0.1c0,0.1,0,0.2,0.1,0.3s0.1,0.1,0.1,0.1
		c0.1,0,0.1,0.1,0.2,0.1c0.1,0,0.1,0,0.2,0c0.2,0,0.4,0,0.6,0l-0.3,1.4c-0.2,0-0.4,0-0.5,0c-0.2,0-0.4,0-0.6,0c-0.2,0-0.4,0-0.6-0.1
		c-0.2,0-0.4-0.1-0.5-0.2s-0.3-0.2-0.4-0.4s-0.1-0.4-0.1-0.7c0-0.1,0-0.2,0-0.3c0-0.1,0-0.2,0.1-0.3l0.7-3.5h-1.2l0.3-1.2h1.1l0.4-2
		h1.8l-0.4,2H73z"/>
	<path d="M77,36.6c-0.2-0.2-0.4-0.2-0.8-0.2c-0.3,0-0.6,0-0.8,0.1c-0.2,0.1-0.3,0.3-0.3,0.5c0,0.1,0.1,0.3,0.2,0.4
		c0.1,0.1,0.3,0.2,0.6,0.3l0.9,0.3c0.2,0.1,0.5,0.2,0.7,0.3c0.2,0.1,0.4,0.2,0.5,0.4c0.2,0.1,0.3,0.3,0.4,0.5
		c0.1,0.2,0.1,0.4,0.1,0.7c0,0.4-0.1,0.7-0.3,1s-0.4,0.5-0.7,0.7c-0.3,0.2-0.6,0.3-1,0.4s-0.7,0.1-1.1,0.1c-0.3,0-0.6,0-1-0.1
		c-0.3-0.1-0.6-0.2-0.9-0.3c-0.3-0.2-0.5-0.4-0.6-0.6c-0.2-0.3-0.2-0.6-0.2-1v-0.3h1.6v0.2c0,0.2,0,0.3,0.1,0.4
		c0.1,0.1,0.2,0.2,0.3,0.3c0.1,0.1,0.3,0.1,0.4,0.2c0.2,0,0.3,0.1,0.5,0.1c0.1,0,0.3,0,0.4,0c0.1,0,0.3-0.1,0.4-0.1
		c0.1-0.1,0.2-0.1,0.3-0.2s0.1-0.2,0.1-0.4c0-0.2-0.1-0.4-0.2-0.5c-0.1-0.1-0.3-0.2-0.5-0.2l-1.4-0.4c-0.2-0.1-0.4-0.2-0.6-0.2
		s-0.3-0.2-0.4-0.3c-0.1-0.1-0.2-0.3-0.3-0.5s-0.1-0.4-0.1-0.7c0-0.4,0.1-0.7,0.3-1c0.2-0.3,0.4-0.5,0.7-0.6
		c0.3-0.2,0.6-0.3,0.9-0.3c0.3-0.1,0.7-0.1,1-0.1c0.4,0,0.7,0,1,0.1c0.3,0.1,0.6,0.2,0.9,0.3c0.2,0.2,0.4,0.4,0.6,0.6
		c0.1,0.3,0.2,0.6,0.2,1h-1.6C77.2,36.9,77.1,36.7,77,36.6z"/>
	<path d="M83.2,37.6c0.2-0.5,0.4-0.9,0.7-1.3c0.3-0.4,0.7-0.7,1.2-0.9c0.5-0.2,1-0.3,1.5-0.3c0.4,0,0.8,0.1,1.2,0.2s0.7,0.3,1,0.5
		c0.3,0.2,0.5,0.5,0.6,0.9c0.1,0.3,0.2,0.7,0.2,1.2c0,0.6-0.1,1.1-0.3,1.6c-0.2,0.5-0.4,0.9-0.7,1.3c-0.3,0.4-0.7,0.7-1.2,0.9
		c-0.5,0.2-1,0.3-1.6,0.3c-0.9,0-1.6-0.2-2.2-0.7s-0.8-1.2-0.8-2.1C82.9,38.6,83,38.1,83.2,37.6z M84.8,39.7
		c0.1,0.2,0.1,0.3,0.2,0.5c0.1,0.1,0.2,0.2,0.4,0.3s0.3,0.1,0.5,0.1c0.3,0,0.6-0.1,0.9-0.3c0.2-0.2,0.4-0.4,0.6-0.7
		c0.2-0.3,0.3-0.6,0.3-0.9c0.1-0.3,0.1-0.6,0.1-0.9c0-0.4-0.1-0.8-0.3-1c-0.2-0.3-0.5-0.4-1-0.4c-0.3,0-0.6,0.1-0.8,0.3
		c-0.2,0.2-0.4,0.4-0.6,0.7s-0.3,0.6-0.3,0.9c-0.1,0.3-0.1,0.6-0.1,0.9C84.7,39.4,84.7,39.5,84.8,39.7z"/>
	<path d="M91.4,41.8l-0.9-6.5h1.8l0.4,4.6h0l2.3-4.6H97l-3.5,6.5H91.4z"/>
	<path d="M98.5,39.1C98.5,39.1,98.5,39.2,98.5,39.1v0.3c0,0.4,0.1,0.7,0.3,0.9s0.6,0.4,1.1,0.4c0.2,0,0.3,0,0.5-0.1
		c0.1-0.1,0.3-0.1,0.4-0.2c0.1-0.1,0.2-0.2,0.3-0.3c0.1-0.1,0.2-0.2,0.2-0.3h1.8c-0.1,0.4-0.3,0.7-0.5,1c-0.2,0.3-0.4,0.5-0.7,0.7
		c-0.3,0.2-0.6,0.3-0.9,0.4c-0.4,0.1-0.8,0.1-1.2,0.1c-0.4,0-0.8-0.1-1.2-0.2c-0.4-0.1-0.7-0.3-0.9-0.5s-0.4-0.5-0.6-0.9
		c-0.1-0.4-0.2-0.8-0.2-1.2c0-0.5,0.1-1,0.2-1.5c0.2-0.5,0.4-0.9,0.7-1.3c0.3-0.4,0.7-0.7,1.1-0.9c0.4-0.2,0.9-0.3,1.5-0.3
		c0.5,0,0.9,0.1,1.2,0.2c0.4,0.1,0.7,0.3,0.9,0.5c0.3,0.2,0.5,0.5,0.6,0.9c0.1,0.4,0.2,0.8,0.2,1.2c0,0.3,0,0.7-0.1,1h-4.8
		C98.5,39,98.5,39.1,98.5,39.1z M101.6,37.4c0-0.2-0.1-0.3-0.2-0.4c-0.1-0.1-0.2-0.2-0.4-0.3c-0.2-0.1-0.4-0.1-0.6-0.1
		c-0.2,0-0.5,0-0.7,0.1c-0.2,0.1-0.4,0.2-0.5,0.3s-0.3,0.3-0.4,0.4c-0.1,0.2-0.2,0.3-0.2,0.5h3C101.7,37.7,101.7,37.5,101.6,37.4z"
		/>
	<path d="M106.8,35.3l-0.3,1.2l0,0c0.2-0.4,0.5-0.8,0.9-1c0.4-0.2,0.8-0.3,1.3-0.3c0.2,0,0.4,0,0.5,0l-0.4,1.7c-0.1,0-0.2,0-0.4-0.1
		c-0.1,0-0.2,0-0.4,0c-0.3,0-0.6,0.1-0.9,0.2c-0.2,0.1-0.4,0.3-0.6,0.5c-0.2,0.2-0.3,0.4-0.4,0.7s-0.2,0.5-0.2,0.8l-0.6,2.9h-1.8
		l1.3-6.5H106.8z"/>
	<path d="M119,38.3l-0.3,1.5h-1.2l-0.4,2h-1.7l0.4-2h-4l0.3-1.6l5.1-5.1h1.7l-1.1,5.3H119z M116.8,34.9L116.8,34.9l-3.3,3.4h2.6
		L116.8,34.9z"/>
	<path d="M119.2,37.3c0.1-0.4,0.2-0.9,0.3-1.3c0.1-0.4,0.3-0.8,0.6-1.2c0.2-0.4,0.5-0.7,0.8-1c0.3-0.3,0.7-0.5,1-0.7
		c0.4-0.2,0.8-0.2,1.3-0.2c0.5,0,0.9,0.1,1.3,0.2c0.4,0.2,0.7,0.4,0.9,0.7s0.4,0.6,0.5,1c0.1,0.4,0.2,0.9,0.2,1.3
		c0,0.4,0,0.9-0.1,1.3c-0.1,0.5-0.2,0.9-0.3,1.3c-0.2,0.4-0.4,0.8-0.6,1.2c-0.2,0.4-0.5,0.7-0.8,1c-0.3,0.3-0.7,0.5-1.1,0.7
		c-0.4,0.2-0.8,0.2-1.3,0.2c-0.5,0-0.9-0.1-1.3-0.3c-0.4-0.2-0.6-0.4-0.9-0.7c-0.2-0.3-0.4-0.7-0.5-1.1c-0.1-0.4-0.1-0.8-0.1-1.3
		C119.1,38.2,119.2,37.7,119.2,37.3z M120.9,39.5c0,0.2,0.1,0.4,0.2,0.5c0.1,0.1,0.2,0.2,0.4,0.3c0.2,0.1,0.4,0.1,0.6,0.1
		c0.3,0,0.6-0.1,0.8-0.3s0.4-0.4,0.6-0.7c0.2-0.3,0.3-0.6,0.4-0.9c0.1-0.3,0.2-0.7,0.3-1c0.1-0.3,0.1-0.7,0.1-1c0-0.3,0-0.6,0-0.8
		c0-0.2,0-0.4-0.1-0.6c0-0.2-0.1-0.4-0.2-0.5c-0.1-0.1-0.2-0.3-0.4-0.3c-0.2-0.1-0.4-0.1-0.6-0.1c-0.3,0-0.5,0.1-0.8,0.3
		s-0.4,0.4-0.6,0.7c-0.2,0.3-0.3,0.6-0.4,0.9c-0.1,0.3-0.2,0.7-0.3,1c-0.1,0.3-0.1,0.7-0.1,1c0,0.3,0,0.6,0,0.8
		C120.9,39.2,120.9,39.4,120.9,39.5z"/>
	<path d="M128.3,39.9l-0.4,1.9h-2l0.4-1.9H128.3z"/>
</g>
</svg>
