<?xml version="1.0" encoding="utf-8"?>
<!-- Generator: Adobe Illustrator 25.4.1, SVG Export Plug-In . SVG Version: 6.00 Build 0)  -->
<svg version="1.1" id="Layer_1" xmlns="http://www.w3.org/2000/svg" xmlns:xlink="http://www.w3.org/1999/xlink" x="0px" y="0px"
	 viewBox="0 0 300 50" style="enable-background:new 0 0 300 50;" xml:space="preserve">
<g>
	<path d="M15,9.4l2.1,6.1h0l2-6.1h2.8v8.9H20V12h0l-2.2,6.3h-1.5L14.1,12h0v6.3h-1.8V9.4H15z"/>
	<path d="M23.3,13.8c0-0.4,0.1-0.8,0.3-1c0.2-0.3,0.4-0.5,0.7-0.7c0.3-0.2,0.6-0.3,1-0.4c0.4-0.1,0.7-0.1,1.1-0.1c0.3,0,0.7,0,1,0.1
		c0.3,0,0.6,0.1,0.9,0.3s0.5,0.3,0.7,0.6c0.2,0.2,0.3,0.6,0.3,0.9v3.4c0,0.3,0,0.6,0,0.8c0,0.3,0.1,0.5,0.2,0.6h-1.8
		c0-0.1-0.1-0.2-0.1-0.3c0-0.1,0-0.2,0-0.3c-0.3,0.3-0.6,0.5-1,0.6c-0.4,0.1-0.8,0.2-1.2,0.2c-0.3,0-0.6,0-0.9-0.1
		c-0.3-0.1-0.5-0.2-0.7-0.3c-0.2-0.2-0.4-0.4-0.5-0.6c-0.1-0.2-0.2-0.5-0.2-0.9c0-0.4,0.1-0.7,0.2-0.9c0.1-0.2,0.3-0.4,0.5-0.6
		s0.4-0.2,0.7-0.3c0.3-0.1,0.5-0.1,0.8-0.2c0.3,0,0.5-0.1,0.8-0.1c0.3,0,0.5-0.1,0.7-0.1s0.4-0.1,0.5-0.2s0.2-0.2,0.2-0.4
		c0-0.2,0-0.3-0.1-0.5s-0.1-0.2-0.2-0.3c-0.1-0.1-0.2-0.1-0.4-0.1c-0.1,0-0.3,0-0.4,0c-0.3,0-0.6,0.1-0.8,0.2
		c-0.2,0.1-0.3,0.4-0.4,0.8H23.3z M27.4,15.1c-0.1,0.1-0.2,0.1-0.3,0.2c-0.1,0-0.2,0.1-0.4,0.1s-0.3,0-0.4,0.1c-0.1,0-0.3,0-0.4,0.1
		c-0.1,0-0.3,0.1-0.4,0.1c-0.1,0-0.2,0.1-0.3,0.2S25,16,25,16.1c-0.1,0.1-0.1,0.2-0.1,0.4c0,0.2,0,0.3,0.1,0.4
		c0.1,0.1,0.1,0.2,0.2,0.3s0.2,0.1,0.4,0.1c0.1,0,0.3,0,0.4,0c0.3,0,0.6-0.1,0.8-0.2c0.2-0.1,0.3-0.3,0.4-0.4
		c0.1-0.2,0.1-0.3,0.2-0.5c0-0.2,0-0.3,0-0.4V15.1z"/>
	<path d="M32.5,9.4v4.8l2.2-2.3h2.1l-2.4,2.4l2.7,4.1H35l-1.8-2.9l-0.7,0.7v2.2h-1.8V9.4H32.5z"/>
	<path d="M37.8,10.9V9.4h1.8v1.5H37.8z M39.6,11.9v6.5h-1.8v-6.5H39.6z"/>
	<path d="M42.6,11.9v0.9h0c0.2-0.4,0.5-0.6,0.9-0.8c0.4-0.2,0.7-0.3,1.1-0.3c0.5,0,0.9,0.1,1.2,0.2c0.3,0.1,0.5,0.3,0.7,0.5
		c0.2,0.2,0.3,0.5,0.4,0.8c0.1,0.3,0.1,0.7,0.1,1.1v4h-1.8v-3.6c0-0.5-0.1-0.9-0.2-1.2s-0.5-0.4-0.9-0.4c-0.5,0-0.8,0.1-1.1,0.4
		s-0.3,0.8-0.3,1.4v3.4H41v-6.5H42.6z"/>
	<path d="M54.5,18.8c-0.1,0.3-0.2,0.6-0.5,0.9c-0.2,0.3-0.6,0.5-1,0.7c-0.4,0.2-1,0.3-1.8,0.3c-0.3,0-0.6,0-1-0.1
		c-0.3-0.1-0.6-0.2-0.9-0.4c-0.3-0.2-0.5-0.4-0.7-0.6c-0.2-0.3-0.3-0.6-0.3-0.9h1.8c0.1,0.3,0.2,0.6,0.5,0.7s0.5,0.2,0.8,0.2
		c0.5,0,0.9-0.1,1.1-0.5c0.2-0.3,0.3-0.7,0.3-1.1v-0.9h0c-0.2,0.3-0.5,0.6-0.8,0.8c-0.4,0.2-0.7,0.2-1.1,0.2c-0.5,0-0.9-0.1-1.2-0.3
		c-0.3-0.2-0.6-0.4-0.9-0.7s-0.4-0.6-0.5-1c-0.1-0.4-0.2-0.8-0.2-1.3c0-0.4,0.1-0.8,0.2-1.2c0.1-0.4,0.3-0.7,0.5-1
		c0.2-0.3,0.5-0.5,0.9-0.7s0.7-0.3,1.2-0.3c0.4,0,0.8,0.1,1.1,0.2s0.6,0.4,0.8,0.8h0v-0.9h1.7v6C54.6,18.2,54.5,18.5,54.5,18.8z
		 M52,16.6c0.2-0.1,0.4-0.2,0.5-0.4c0.1-0.2,0.2-0.4,0.3-0.6c0.1-0.2,0.1-0.4,0.1-0.7c0-0.3,0-0.5-0.1-0.8c0-0.2-0.1-0.4-0.2-0.6
		c-0.1-0.2-0.3-0.3-0.5-0.4c-0.2-0.1-0.4-0.2-0.7-0.2c-0.2,0-0.5,0-0.6,0.1c-0.2,0.1-0.3,0.2-0.5,0.4c-0.1,0.2-0.2,0.4-0.3,0.6
		s-0.1,0.5-0.1,0.7c0,0.2,0,0.5,0.1,0.7c0,0.2,0.1,0.4,0.2,0.6c0.1,0.2,0.3,0.3,0.4,0.4c0.2,0.1,0.4,0.2,0.7,0.2
		C51.6,16.8,51.8,16.7,52,16.6z"/>
	<path d="M61,16.7c0.1,0.1,0.2,0.2,0.3,0.3c0.1,0.1,0.3,0.2,0.4,0.2c0.2,0,0.3,0.1,0.5,0.1c0.1,0,0.3,0,0.4,0c0.1,0,0.3-0.1,0.4-0.1
		c0.1-0.1,0.2-0.1,0.3-0.2c0.1-0.1,0.1-0.2,0.1-0.4c0-0.3-0.2-0.5-0.5-0.6c-0.4-0.1-0.8-0.3-1.5-0.4c-0.3-0.1-0.5-0.1-0.8-0.2
		c-0.2-0.1-0.5-0.2-0.7-0.3c-0.2-0.1-0.3-0.3-0.5-0.5s-0.2-0.4-0.2-0.7c0-0.4,0.1-0.8,0.2-1s0.4-0.5,0.6-0.6s0.6-0.3,0.9-0.3
		c0.3-0.1,0.7-0.1,1-0.1c0.3,0,0.7,0,1,0.1c0.3,0.1,0.6,0.2,0.9,0.3c0.3,0.2,0.5,0.4,0.6,0.6c0.2,0.3,0.3,0.6,0.3,1h-1.7
		c0-0.3-0.2-0.6-0.4-0.7c-0.2-0.1-0.5-0.2-0.8-0.2c-0.1,0-0.2,0-0.3,0c-0.1,0-0.2,0-0.3,0.1c-0.1,0-0.2,0.1-0.2,0.2
		c-0.1,0.1-0.1,0.2-0.1,0.3c0,0.2,0.1,0.3,0.2,0.4s0.3,0.2,0.5,0.2s0.4,0.1,0.6,0.2c0.2,0,0.5,0.1,0.7,0.2c0.3,0.1,0.5,0.1,0.8,0.2
		c0.2,0.1,0.5,0.2,0.7,0.3s0.3,0.3,0.5,0.5s0.2,0.5,0.2,0.8c0,0.4-0.1,0.8-0.3,1.1s-0.4,0.5-0.7,0.7c-0.3,0.2-0.6,0.3-0.9,0.4
		c-0.4,0.1-0.7,0.1-1.1,0.1c-0.4,0-0.7,0-1.1-0.1c-0.4-0.1-0.7-0.2-1-0.4c-0.3-0.2-0.5-0.4-0.7-0.7c-0.2-0.3-0.3-0.6-0.3-1.1h1.7
		C60.9,16.4,60.9,16.6,61,16.7z"/>
	<path d="M70.6,18.3v-0.9h0c-0.2,0.4-0.5,0.6-0.9,0.8c-0.4,0.2-0.7,0.2-1.1,0.2c-0.5,0-0.9-0.1-1.2-0.2s-0.5-0.3-0.7-0.5
		c-0.2-0.2-0.3-0.5-0.4-0.8s-0.1-0.7-0.1-1.1v-4H68v3.6c0,0.5,0.1,0.9,0.2,1.2c0.2,0.3,0.5,0.4,0.9,0.4c0.5,0,0.8-0.1,1.1-0.4
		c0.2-0.3,0.3-0.8,0.3-1.4v-3.4h1.8v6.5H70.6z"/>
	<path d="M75.3,11.9V13h0c0.1-0.2,0.2-0.4,0.3-0.6c0.1-0.2,0.3-0.3,0.5-0.4c0.2-0.1,0.4-0.2,0.6-0.3c0.2-0.1,0.4-0.1,0.7-0.1
		c0.1,0,0.2,0,0.4,0.1v1.7c-0.1,0-0.2,0-0.3,0s-0.2,0-0.3,0c-0.3,0-0.6,0.1-0.8,0.2c-0.2,0.1-0.4,0.3-0.5,0.4
		c-0.1,0.2-0.2,0.4-0.3,0.7c-0.1,0.2-0.1,0.5-0.1,0.8v2.9h-1.8v-6.5H75.3z"/>
	<path d="M80.1,16.8c0.3,0.3,0.6,0.4,1.1,0.4c0.4,0,0.7-0.1,0.9-0.3s0.4-0.4,0.5-0.6h1.6c-0.2,0.8-0.6,1.3-1.1,1.7
		c-0.5,0.3-1.1,0.5-1.9,0.5c-0.5,0-1-0.1-1.4-0.2c-0.4-0.2-0.8-0.4-1-0.7c-0.3-0.3-0.5-0.7-0.7-1.1c-0.2-0.4-0.2-0.9-0.2-1.4
		c0-0.5,0.1-0.9,0.2-1.4c0.2-0.4,0.4-0.8,0.7-1.1s0.6-0.5,1-0.7c0.4-0.2,0.9-0.3,1.3-0.3c0.5,0,1,0.1,1.4,0.3c0.4,0.2,0.7,0.5,1,0.9
		c0.3,0.4,0.5,0.8,0.6,1.2c0.1,0.5,0.2,0.9,0.1,1.4h-4.7C79.7,16.1,79.9,16.5,80.1,16.8z M82.1,13.4c-0.2-0.2-0.5-0.3-1-0.3
		c-0.3,0-0.5,0-0.7,0.1s-0.3,0.2-0.5,0.4c-0.1,0.1-0.2,0.3-0.2,0.4c0,0.2-0.1,0.3-0.1,0.4h2.9C82.5,13.9,82.4,13.6,82.1,13.4z"/>
	<path d="M91.3,20.2c-0.3,0.2-0.8,0.3-1.4,0.3c-0.2,0-0.4,0-0.5,0c-0.2,0-0.4,0-0.5,0V19c0.2,0,0.3,0,0.5,0.1c0.2,0,0.4,0,0.5,0
		c0.2,0,0.4-0.1,0.5-0.3c0.1-0.2,0.2-0.3,0.2-0.5c0-0.1,0-0.3-0.1-0.4l-2.3-6.1H90l1.5,4.4h0l1.4-4.4h1.8l-2.7,7.3
		C91.9,19.6,91.6,20,91.3,20.2z"/>
	<path d="M95.4,13.7c0.2-0.4,0.4-0.8,0.7-1.1c0.3-0.3,0.6-0.5,1-0.7c0.4-0.2,0.9-0.2,1.4-0.2s1,0.1,1.4,0.2c0.4,0.2,0.8,0.4,1.1,0.7
		c0.3,0.3,0.5,0.7,0.7,1.1c0.2,0.4,0.2,0.9,0.2,1.4c0,0.5-0.1,1-0.2,1.4c-0.2,0.4-0.4,0.8-0.7,1.1c-0.3,0.3-0.6,0.5-1.1,0.7
		s-0.9,0.2-1.4,0.2s-1-0.1-1.4-0.2s-0.8-0.4-1-0.7c-0.3-0.3-0.5-0.7-0.7-1.1c-0.2-0.4-0.2-0.9-0.2-1.4
		C95.2,14.6,95.3,14.1,95.4,13.7z M97,15.8c0,0.2,0.1,0.5,0.3,0.7c0.1,0.2,0.3,0.4,0.5,0.5s0.5,0.2,0.8,0.2s0.6-0.1,0.8-0.2
		c0.2-0.1,0.4-0.3,0.5-0.5s0.2-0.4,0.3-0.7c0-0.2,0.1-0.5,0.1-0.8s0-0.5-0.1-0.8s-0.1-0.5-0.3-0.7s-0.3-0.3-0.5-0.5
		c-0.2-0.1-0.5-0.2-0.8-0.2s-0.5,0.1-0.8,0.2s-0.4,0.3-0.5,0.5c-0.1,0.2-0.2,0.4-0.3,0.7c-0.1,0.2-0.1,0.5-0.1,0.8S97,15.6,97,15.8z
		"/>
	<path d="M107.4,18.3v-0.9h0c-0.2,0.4-0.5,0.6-0.9,0.8c-0.4,0.2-0.7,0.2-1.1,0.2c-0.5,0-0.9-0.1-1.2-0.2s-0.5-0.3-0.7-0.5
		c-0.2-0.2-0.3-0.5-0.4-0.8s-0.1-0.7-0.1-1.1v-4h1.8v3.6c0,0.5,0.1,0.9,0.2,1.2c0.2,0.3,0.5,0.4,0.9,0.4c0.5,0,0.8-0.1,1.1-0.4
		c0.2-0.3,0.3-0.8,0.3-1.4v-3.4h1.8v6.5H107.4z"/>
	<path d="M112.1,11.9V13h0c0.1-0.2,0.2-0.4,0.3-0.6c0.1-0.2,0.3-0.3,0.5-0.4c0.2-0.1,0.4-0.2,0.6-0.3c0.2-0.1,0.4-0.1,0.7-0.1
		c0.1,0,0.2,0,0.4,0.1v1.7c-0.1,0-0.2,0-0.3,0s-0.2,0-0.3,0c-0.3,0-0.6,0.1-0.8,0.2c-0.2,0.1-0.4,0.3-0.5,0.4
		c-0.1,0.2-0.2,0.4-0.3,0.7c-0.1,0.2-0.1,0.5-0.1,0.8v2.9h-1.8v-6.5H112.1z"/>
	<path d="M120.6,9.4v8.9h-1.8V9.4H120.6z"/>
	<path d="M122,10.9V9.4h1.8v1.5H122z M123.8,11.9v6.5H122v-6.5H123.8z"/>
	<path d="M124.5,13v-1.2h1.1v-0.5c0-0.6,0.2-1,0.5-1.4c0.4-0.4,0.9-0.5,1.6-0.5c0.2,0,0.3,0,0.5,0c0.2,0,0.3,0,0.5,0v1.3
		c-0.2,0-0.4,0-0.6,0c-0.2,0-0.4,0.1-0.5,0.2c-0.1,0.1-0.2,0.3-0.2,0.6v0.4h1.2V13h-1.2v5.3h-1.8V13H124.5z"/>
	<path d="M131.3,16.8c0.3,0.3,0.6,0.4,1.1,0.4c0.4,0,0.7-0.1,0.9-0.3s0.4-0.4,0.5-0.6h1.6c-0.2,0.8-0.6,1.3-1.1,1.7
		c-0.5,0.3-1.1,0.5-1.9,0.5c-0.5,0-1-0.1-1.4-0.2c-0.4-0.2-0.8-0.4-1-0.7c-0.3-0.3-0.5-0.7-0.7-1.1c-0.2-0.4-0.2-0.9-0.2-1.4
		c0-0.5,0.1-0.9,0.2-1.4c0.2-0.4,0.4-0.8,0.7-1.1s0.6-0.5,1-0.7c0.4-0.2,0.9-0.3,1.3-0.3c0.5,0,1,0.1,1.4,0.3c0.4,0.2,0.7,0.5,1,0.9
		c0.3,0.4,0.5,0.8,0.6,1.2c0.1,0.5,0.2,0.9,0.1,1.4h-4.7C130.9,16.1,131,16.5,131.3,16.8z M133.3,13.4c-0.2-0.2-0.5-0.3-1-0.3
		c-0.3,0-0.5,0-0.7,0.1s-0.3,0.2-0.5,0.4c-0.1,0.1-0.2,0.3-0.2,0.4c0,0.2-0.1,0.3-0.1,0.4h2.9C133.6,13.9,133.5,13.6,133.3,13.4z"/>
	<path d="M140.1,10.9V9.4h1.8v1.5H140.1z M141.8,11.9v6.5h-1.8v-6.5H141.8z"/>
	<path d="M144.9,11.9v0.9h0c0.2-0.4,0.5-0.6,0.9-0.8c0.4-0.2,0.7-0.3,1.1-0.3c0.5,0,0.9,0.1,1.2,0.2c0.3,0.1,0.5,0.3,0.7,0.5
		c0.2,0.2,0.3,0.5,0.4,0.8c0.1,0.3,0.1,0.7,0.1,1.1v4h-1.8v-3.6c0-0.5-0.1-0.9-0.2-1.2s-0.5-0.4-0.9-0.4c-0.5,0-0.8,0.1-1.1,0.4
		s-0.3,0.8-0.3,1.4v3.4h-1.8v-6.5H144.9z"/>
	<path d="M152.2,16.7c0.1,0.1,0.2,0.2,0.3,0.3c0.1,0.1,0.3,0.2,0.4,0.2c0.2,0,0.3,0.1,0.5,0.1c0.1,0,0.3,0,0.4,0
		c0.1,0,0.3-0.1,0.4-0.1c0.1-0.1,0.2-0.1,0.3-0.2c0.1-0.1,0.1-0.2,0.1-0.4c0-0.3-0.2-0.5-0.5-0.6c-0.4-0.1-0.8-0.3-1.5-0.4
		c-0.3-0.1-0.5-0.1-0.8-0.2c-0.2-0.1-0.5-0.2-0.7-0.3c-0.2-0.1-0.3-0.3-0.5-0.5c-0.1-0.2-0.2-0.4-0.2-0.7c0-0.4,0.1-0.8,0.2-1
		c0.2-0.3,0.4-0.5,0.6-0.6c0.3-0.2,0.6-0.3,0.9-0.3s0.7-0.1,1-0.1c0.3,0,0.7,0,1,0.1c0.3,0.1,0.6,0.2,0.9,0.3
		c0.3,0.2,0.5,0.4,0.6,0.6c0.2,0.3,0.3,0.6,0.3,1h-1.7c0-0.3-0.2-0.6-0.4-0.7c-0.2-0.1-0.5-0.2-0.8-0.2c-0.1,0-0.2,0-0.3,0
		c-0.1,0-0.2,0-0.3,0.1c-0.1,0-0.2,0.1-0.2,0.2c-0.1,0.1-0.1,0.2-0.1,0.3c0,0.2,0.1,0.3,0.2,0.4c0.1,0.1,0.3,0.2,0.5,0.2
		s0.4,0.1,0.6,0.2c0.2,0,0.5,0.1,0.7,0.2c0.3,0.1,0.5,0.1,0.8,0.2c0.2,0.1,0.5,0.2,0.7,0.3c0.2,0.1,0.3,0.3,0.5,0.5
		c0.1,0.2,0.2,0.5,0.2,0.8c0,0.4-0.1,0.8-0.3,1.1s-0.4,0.5-0.7,0.7c-0.3,0.2-0.6,0.3-0.9,0.4c-0.4,0.1-0.7,0.1-1.1,0.1
		c-0.4,0-0.7,0-1.1-0.1c-0.4-0.1-0.7-0.2-1-0.4c-0.3-0.2-0.5-0.4-0.7-0.7c-0.2-0.3-0.3-0.6-0.3-1.1h1.7
		C152,16.4,152.1,16.6,152.2,16.7z"/>
	<path d="M161.7,18.3v-0.9h0c-0.2,0.4-0.5,0.6-0.9,0.8s-0.7,0.2-1.1,0.2c-0.5,0-0.9-0.1-1.2-0.2c-0.3-0.1-0.5-0.3-0.7-0.5
		c-0.2-0.2-0.3-0.5-0.4-0.8c-0.1-0.3-0.1-0.7-0.1-1.1v-4h1.8v3.6c0,0.5,0.1,0.9,0.2,1.2c0.2,0.3,0.5,0.4,0.9,0.4
		c0.5,0,0.8-0.1,1-0.4s0.3-0.8,0.3-1.4v-3.4h1.8v6.5H161.7z"/>
	<path d="M166.5,11.9V13h0c0.1-0.2,0.2-0.4,0.3-0.6c0.1-0.2,0.3-0.3,0.5-0.4c0.2-0.1,0.4-0.2,0.6-0.3c0.2-0.1,0.4-0.1,0.7-0.1
		c0.1,0,0.2,0,0.4,0.1v1.7c-0.1,0-0.2,0-0.3,0c-0.1,0-0.2,0-0.3,0c-0.3,0-0.6,0.1-0.8,0.2c-0.2,0.1-0.4,0.3-0.5,0.4
		s-0.2,0.4-0.3,0.7c-0.1,0.2-0.1,0.5-0.1,0.8v2.9h-1.8v-6.5H166.5z"/>
	<path d="M169.6,13.8c0-0.4,0.1-0.8,0.3-1c0.2-0.3,0.4-0.5,0.7-0.7c0.3-0.2,0.6-0.3,1-0.4c0.4-0.1,0.7-0.1,1.1-0.1
		c0.3,0,0.7,0,1,0.1c0.3,0,0.6,0.1,0.9,0.3c0.3,0.1,0.5,0.3,0.7,0.6c0.2,0.2,0.3,0.6,0.3,0.9v3.4c0,0.3,0,0.6,0.1,0.8
		c0,0.3,0.1,0.5,0.2,0.6h-1.8c0-0.1-0.1-0.2-0.1-0.3c0-0.1,0-0.2,0-0.3c-0.3,0.3-0.6,0.5-1,0.6c-0.4,0.1-0.8,0.2-1.2,0.2
		c-0.3,0-0.6,0-0.9-0.1c-0.3-0.1-0.5-0.2-0.7-0.3c-0.2-0.2-0.4-0.4-0.5-0.6c-0.1-0.2-0.2-0.5-0.2-0.9c0-0.4,0.1-0.7,0.2-0.9
		c0.1-0.2,0.3-0.4,0.5-0.6s0.4-0.2,0.7-0.3s0.5-0.1,0.8-0.2c0.3,0,0.5-0.1,0.8-0.1c0.3,0,0.5-0.1,0.7-0.1s0.4-0.1,0.5-0.2
		c0.1-0.1,0.2-0.2,0.2-0.4c0-0.2,0-0.3-0.1-0.5s-0.1-0.2-0.2-0.3c-0.1-0.1-0.2-0.1-0.4-0.1c-0.1,0-0.3,0-0.4,0
		c-0.3,0-0.6,0.1-0.8,0.2c-0.2,0.1-0.3,0.4-0.3,0.8H169.6z M173.7,15.1c-0.1,0.1-0.2,0.1-0.3,0.2s-0.2,0.1-0.4,0.1
		c-0.1,0-0.3,0-0.4,0.1c-0.1,0-0.3,0-0.4,0.1c-0.1,0-0.3,0.1-0.4,0.1c-0.1,0-0.2,0.1-0.3,0.2c-0.1,0.1-0.2,0.2-0.2,0.3
		c-0.1,0.1-0.1,0.2-0.1,0.4c0,0.2,0,0.3,0.1,0.4c0.1,0.1,0.1,0.2,0.2,0.3s0.2,0.1,0.3,0.1c0.1,0,0.3,0,0.4,0c0.3,0,0.6-0.1,0.8-0.2
		c0.2-0.1,0.3-0.3,0.4-0.4c0.1-0.2,0.1-0.3,0.2-0.5c0-0.2,0-0.3,0-0.4V15.1z"/>
	<path d="M178.5,11.9v0.9h0c0.2-0.4,0.5-0.6,0.9-0.8c0.4-0.2,0.7-0.3,1.1-0.3c0.5,0,0.9,0.1,1.2,0.2c0.3,0.1,0.5,0.3,0.7,0.5
		c0.2,0.2,0.3,0.5,0.4,0.8c0.1,0.3,0.1,0.7,0.1,1.1v4h-1.8v-3.6c0-0.5-0.1-0.9-0.2-1.2c-0.2-0.3-0.5-0.4-0.9-0.4
		c-0.5,0-0.8,0.1-1,0.4c-0.2,0.3-0.3,0.8-0.3,1.4v3.4h-1.8v-6.5H178.5z"/>
	<path d="M187.3,13c-0.3,0-0.5,0.1-0.7,0.2c-0.2,0.1-0.3,0.3-0.5,0.5c-0.1,0.2-0.2,0.4-0.3,0.7s-0.1,0.5-0.1,0.7
		c0,0.2,0,0.5,0.1,0.7s0.1,0.5,0.2,0.7c0.1,0.2,0.3,0.4,0.5,0.5c0.2,0.1,0.4,0.2,0.7,0.2c0.4,0,0.8-0.1,1-0.4c0.2-0.2,0.4-0.6,0.4-1
		h1.7c-0.1,0.9-0.4,1.5-1,2c-0.5,0.5-1.3,0.7-2.1,0.7c-0.5,0-0.9-0.1-1.3-0.2c-0.4-0.2-0.7-0.4-1-0.7c-0.3-0.3-0.5-0.6-0.7-1
		c-0.2-0.4-0.2-0.8-0.2-1.3c0-0.5,0.1-1,0.2-1.4c0.1-0.4,0.4-0.8,0.6-1.1c0.3-0.3,0.6-0.6,1-0.7s0.9-0.3,1.4-0.3
		c0.4,0,0.8,0.1,1.1,0.2c0.4,0.1,0.7,0.3,1,0.5s0.5,0.5,0.7,0.8s0.3,0.7,0.3,1.1h-1.7C188.5,13.4,188.1,13,187.3,13z"/>
	<path d="M193.3,16.8c0.3,0.3,0.6,0.4,1.1,0.4c0.4,0,0.7-0.1,0.9-0.3c0.3-0.2,0.4-0.4,0.5-0.6h1.6c-0.2,0.8-0.6,1.3-1.2,1.7
		s-1.1,0.5-1.9,0.5c-0.5,0-1-0.1-1.4-0.2c-0.4-0.2-0.8-0.4-1-0.7c-0.3-0.3-0.5-0.7-0.7-1.1c-0.2-0.4-0.2-0.9-0.2-1.4
		c0-0.5,0.1-0.9,0.2-1.4c0.2-0.4,0.4-0.8,0.7-1.1c0.3-0.3,0.6-0.5,1-0.7s0.9-0.3,1.3-0.3c0.6,0,1,0.1,1.4,0.3s0.7,0.5,1,0.9
		s0.5,0.8,0.6,1.2c0.1,0.5,0.2,0.9,0.1,1.4h-4.7C192.9,16.1,193,16.5,193.3,16.8z M195.3,13.4c-0.2-0.2-0.5-0.3-1-0.3
		c-0.3,0-0.5,0-0.7,0.1s-0.3,0.2-0.5,0.4S193,13.8,193,14c0,0.2-0.1,0.3-0.1,0.4h2.9C195.7,13.9,195.5,13.6,195.3,13.4z"/>
	<path d="M202.1,10.9V9.4h1.8v1.5H202.1z M203.9,11.9v6.5h-1.8v-6.5H203.9z"/>
	<path d="M206.8,16.7c0.1,0.1,0.2,0.2,0.3,0.3c0.1,0.1,0.3,0.2,0.4,0.2c0.2,0,0.3,0.1,0.5,0.1c0.1,0,0.3,0,0.4,0
		c0.1,0,0.3-0.1,0.4-0.1c0.1-0.1,0.2-0.1,0.3-0.2c0.1-0.1,0.1-0.2,0.1-0.4c0-0.3-0.2-0.5-0.5-0.6c-0.4-0.1-0.8-0.3-1.5-0.4
		c-0.3-0.1-0.5-0.1-0.8-0.2c-0.2-0.1-0.5-0.2-0.7-0.3c-0.2-0.1-0.3-0.3-0.5-0.5c-0.1-0.2-0.2-0.4-0.2-0.7c0-0.4,0.1-0.8,0.2-1
		c0.2-0.3,0.4-0.5,0.6-0.6c0.3-0.2,0.6-0.3,0.9-0.3s0.7-0.1,1-0.1c0.3,0,0.7,0,1,0.1c0.3,0.1,0.6,0.2,0.9,0.3
		c0.3,0.2,0.5,0.4,0.6,0.6c0.2,0.3,0.3,0.6,0.3,1h-1.7c0-0.3-0.2-0.6-0.4-0.7c-0.2-0.1-0.5-0.2-0.8-0.2c-0.1,0-0.2,0-0.3,0
		c-0.1,0-0.2,0-0.3,0.1c-0.1,0-0.2,0.1-0.2,0.2c-0.1,0.1-0.1,0.2-0.1,0.3c0,0.2,0.1,0.3,0.2,0.4c0.1,0.1,0.3,0.2,0.5,0.2
		s0.4,0.1,0.6,0.2c0.2,0,0.5,0.1,0.7,0.2c0.3,0.1,0.5,0.1,0.8,0.2c0.2,0.1,0.5,0.2,0.7,0.3c0.2,0.1,0.3,0.3,0.5,0.5
		c0.1,0.2,0.2,0.5,0.2,0.8c0,0.4-0.1,0.8-0.3,1.1s-0.4,0.5-0.7,0.7c-0.3,0.2-0.6,0.3-0.9,0.4c-0.4,0.1-0.7,0.1-1.1,0.1
		c-0.4,0-0.7,0-1.1-0.1c-0.4-0.1-0.7-0.2-1-0.4c-0.3-0.2-0.5-0.4-0.7-0.7c-0.2-0.3-0.3-0.6-0.3-1.1h1.7
		C206.7,16.4,206.7,16.6,206.8,16.7z"/>
	<path d="M217,16.7c0.1,0.1,0.2,0.2,0.3,0.3c0.1,0.1,0.3,0.2,0.4,0.2c0.2,0,0.3,0.1,0.5,0.1c0.1,0,0.3,0,0.4,0
		c0.1,0,0.3-0.1,0.4-0.1c0.1-0.1,0.2-0.1,0.3-0.2c0.1-0.1,0.1-0.2,0.1-0.4c0-0.3-0.2-0.5-0.5-0.6c-0.4-0.1-0.8-0.3-1.5-0.4
		c-0.3-0.1-0.5-0.1-0.8-0.2c-0.2-0.1-0.5-0.2-0.7-0.3c-0.2-0.1-0.3-0.3-0.5-0.5c-0.1-0.2-0.2-0.4-0.2-0.7c0-0.4,0.1-0.8,0.2-1
		c0.2-0.3,0.4-0.5,0.6-0.6c0.3-0.2,0.6-0.3,0.9-0.3s0.7-0.1,1-0.1c0.3,0,0.7,0,1,0.1c0.3,0.1,0.6,0.2,0.9,0.3
		c0.3,0.2,0.5,0.4,0.6,0.6c0.2,0.3,0.3,0.6,0.3,1h-1.7c0-0.3-0.2-0.6-0.4-0.7c-0.2-0.1-0.5-0.2-0.8-0.2c-0.1,0-0.2,0-0.3,0
		c-0.1,0-0.2,0-0.3,0.1c-0.1,0-0.2,0.1-0.2,0.2c-0.1,0.1-0.1,0.2-0.1,0.3c0,0.2,0.1,0.3,0.2,0.4c0.1,0.1,0.3,0.2,0.5,0.2
		s0.4,0.1,0.6,0.2c0.2,0,0.5,0.1,0.7,0.2c0.3,0.1,0.5,0.1,0.8,0.2c0.2,0.1,0.5,0.2,0.7,0.3c0.2,0.1,0.3,0.3,0.5,0.5
		c0.1,0.2,0.2,0.5,0.2,0.8c0,0.4-0.1,0.8-0.3,1.1s-0.4,0.5-0.7,0.7c-0.3,0.2-0.6,0.3-0.9,0.4c-0.4,0.1-0.7,0.1-1.1,0.1
		c-0.4,0-0.7,0-1.1-0.1c-0.4-0.1-0.7-0.2-1-0.4c-0.3-0.2-0.5-0.4-0.7-0.7c-0.2-0.3-0.3-0.6-0.3-1.1h1.7
		C216.8,16.4,216.9,16.6,217,16.7z"/>
	<path d="M225.7,11.9V13h-1.3v3.2c0,0.3,0,0.5,0.2,0.6c0.1,0.1,0.3,0.1,0.6,0.1c0.1,0,0.2,0,0.3,0c0.1,0,0.2,0,0.3,0v1.4
		c-0.1,0-0.3,0-0.5,0c-0.2,0-0.4,0-0.5,0c-0.3,0-0.5,0-0.8-0.1s-0.5-0.1-0.7-0.2s-0.3-0.3-0.4-0.5c-0.1-0.2-0.2-0.5-0.2-0.8V13h-1.1
		v-1.2h1.1V9.9h1.8v1.9H225.7z"/>
	<path d="M226.6,10.9V9.4h1.8v1.5H226.6z M228.4,11.9v6.5h-1.8v-6.5H228.4z"/>
	<path d="M231.6,9.4v8.9h-1.8V9.4H231.6z"/>
	<path d="M234.9,9.4v8.9h-1.8V9.4H234.9z"/>
	<path d="M239.8,10.9V9.4h1.8v1.5H239.8z M241.6,11.9v6.5h-1.8v-6.5H241.6z"/>
	<path d="M244.6,11.9v0.9h0c0.2-0.4,0.5-0.6,0.9-0.8c0.4-0.2,0.7-0.3,1.1-0.3c0.5,0,0.9,0.1,1.2,0.2c0.3,0.1,0.5,0.3,0.7,0.5
		c0.2,0.2,0.3,0.5,0.4,0.8c0.1,0.3,0.1,0.7,0.1,1.1v4h-1.8v-3.6c0-0.5-0.1-0.9-0.2-1.2c-0.2-0.3-0.5-0.4-0.9-0.4
		c-0.5,0-0.8,0.1-1,0.4c-0.2,0.3-0.3,0.8-0.3,1.4v3.4H243v-6.5H244.6z"/>
</g>
<g>
	<path d="M13.5,29.2c0.1,0.1,0.2,0.2,0.3,0.3c0.1,0.1,0.3,0.2,0.4,0.2c0.2,0,0.3,0.1,0.5,0.1c0.1,0,0.3,0,0.4,0
		c0.1,0,0.3-0.1,0.4-0.1c0.1-0.1,0.2-0.1,0.3-0.2c0.1-0.1,0.1-0.2,0.1-0.4c0-0.3-0.2-0.5-0.5-0.6c-0.4-0.1-0.8-0.3-1.5-0.4
		c-0.3-0.1-0.5-0.1-0.8-0.2s-0.5-0.2-0.7-0.3c-0.2-0.1-0.3-0.3-0.5-0.5s-0.2-0.4-0.2-0.7c0-0.4,0.1-0.8,0.2-1s0.4-0.5,0.6-0.6
		s0.6-0.3,0.9-0.3c0.3-0.1,0.7-0.1,1-0.1c0.3,0,0.7,0,1,0.1c0.3,0.1,0.6,0.2,0.9,0.3c0.3,0.2,0.5,0.4,0.6,0.6c0.2,0.3,0.3,0.6,0.3,1
		h-1.7c0-0.3-0.2-0.6-0.4-0.7c-0.2-0.1-0.5-0.2-0.8-0.2c-0.1,0-0.2,0-0.3,0c-0.1,0-0.2,0-0.3,0.1c-0.1,0-0.2,0.1-0.2,0.2
		c-0.1,0.1-0.1,0.2-0.1,0.3c0,0.2,0.1,0.3,0.2,0.4c0.1,0.1,0.3,0.2,0.5,0.2s0.4,0.1,0.6,0.2s0.5,0.1,0.7,0.2
		c0.3,0.1,0.5,0.1,0.8,0.2s0.5,0.2,0.7,0.3s0.3,0.3,0.5,0.5s0.2,0.5,0.2,0.8c0,0.4-0.1,0.8-0.3,1.1c-0.2,0.3-0.4,0.5-0.7,0.7
		c-0.3,0.2-0.6,0.3-0.9,0.4c-0.4,0.1-0.7,0.1-1.1,0.1c-0.4,0-0.7,0-1.1-0.1s-0.7-0.2-1-0.4s-0.5-0.4-0.7-0.7
		c-0.2-0.3-0.3-0.6-0.3-1.1h1.7C13.4,28.9,13.5,29.1,13.5,29.2z"/>
	<path d="M21.1,32.7c-0.3,0.2-0.8,0.3-1.4,0.3c-0.2,0-0.4,0-0.5,0c-0.2,0-0.4,0-0.5,0v-1.5c0.2,0,0.3,0,0.5,0s0.4,0,0.5,0
		c0.2,0,0.4-0.1,0.5-0.3c0.1-0.2,0.2-0.3,0.2-0.5c0-0.1,0-0.3-0.1-0.4L18,24.4h1.9l1.5,4.4h0l1.4-4.4h1.8l-2.7,7.3
		C21.7,32.1,21.5,32.5,21.1,32.7z"/>
	<path d="M26.9,24.4v0.9h0c0.2-0.4,0.5-0.6,0.9-0.8c0.4-0.2,0.7-0.3,1.1-0.3c0.5,0,0.9,0.1,1.2,0.2c0.3,0.1,0.5,0.3,0.7,0.5
		c0.2,0.2,0.3,0.5,0.4,0.8c0.1,0.3,0.1,0.7,0.1,1.1v4h-1.8v-3.7c0-0.5-0.1-0.9-0.2-1.2s-0.5-0.4-0.9-0.4c-0.5,0-0.8,0.1-1.1,0.4
		c-0.2,0.3-0.3,0.8-0.3,1.4v3.4h-1.8v-6.5H26.9z"/>
	<path d="M35.7,25.5c-0.3,0-0.5,0.1-0.7,0.2c-0.2,0.1-0.3,0.3-0.5,0.5c-0.1,0.2-0.2,0.4-0.3,0.7c-0.1,0.2-0.1,0.5-0.1,0.7
		c0,0.2,0,0.5,0.1,0.7c0,0.2,0.1,0.5,0.2,0.7c0.1,0.2,0.3,0.4,0.5,0.5s0.4,0.2,0.7,0.2c0.4,0,0.8-0.1,1-0.4c0.2-0.2,0.4-0.6,0.4-1
		h1.7c-0.1,0.9-0.5,1.5-1,2c-0.6,0.5-1.3,0.7-2.1,0.7c-0.5,0-0.9-0.1-1.3-0.2c-0.4-0.2-0.7-0.4-1-0.7c-0.3-0.3-0.5-0.6-0.7-1
		s-0.2-0.8-0.2-1.3c0-0.5,0.1-1,0.2-1.4c0.1-0.4,0.4-0.8,0.6-1.1s0.6-0.6,1-0.7s0.9-0.3,1.4-0.3c0.4,0,0.8,0.1,1.1,0.2
		c0.4,0.1,0.7,0.3,0.9,0.5s0.5,0.5,0.7,0.8c0.2,0.3,0.3,0.7,0.3,1.1h-1.7C36.9,25.9,36.5,25.5,35.7,25.5z"/>
	<path d="M48.9,30.8l-1.1-4.3h0l-1.1,4.3h-1.8l-2-6.5h1.9l1.2,4.4h0l1.1-4.4h1.7l1.1,4.4h0l1.2-4.4h1.8l-2,6.5H48.9z"/>
	<path d="M53.5,23.4v-1.5h1.8v1.5H53.5z M55.3,24.4v6.5h-1.8v-6.5H55.3z"/>
	<path d="M60.3,24.4v1.2H59v3.2c0,0.3,0.1,0.5,0.2,0.6c0.1,0.1,0.3,0.1,0.6,0.1c0.1,0,0.2,0,0.3,0c0.1,0,0.2,0,0.3,0v1.4
		c-0.1,0-0.3,0-0.5,0c-0.2,0-0.4,0-0.5,0c-0.3,0-0.5,0-0.8-0.1c-0.2,0-0.5-0.1-0.6-0.2c-0.2-0.1-0.3-0.3-0.4-0.5s-0.2-0.5-0.2-0.8
		v-3.8h-1.1v-1.2h1.1v-1.9H59v1.9H60.3z"/>
	<path d="M62.9,21.9v3.4h0c0.2-0.4,0.5-0.6,0.9-0.8c0.4-0.2,0.7-0.3,1-0.3c0.5,0,0.9,0.1,1.2,0.2c0.3,0.1,0.5,0.3,0.7,0.5
		c0.2,0.2,0.3,0.5,0.4,0.8c0.1,0.3,0.1,0.7,0.1,1.1v4h-1.8v-3.7c0-0.5-0.1-0.9-0.2-1.2s-0.5-0.4-0.9-0.4c-0.5,0-0.8,0.1-1.1,0.4
		c-0.2,0.3-0.3,0.8-0.3,1.4v3.4h-1.8v-8.9H62.9z"/>
	<path d="M74.4,32.7C74,33,73.6,33.1,73,33.1c-0.2,0-0.4,0-0.5,0c-0.2,0-0.4,0-0.5,0v-1.5c0.2,0,0.3,0,0.5,0s0.4,0,0.5,0
		c0.2,0,0.4-0.1,0.5-0.3c0.1-0.2,0.2-0.3,0.2-0.5c0-0.1,0-0.3-0.1-0.4l-2.3-6.1h1.9l1.5,4.4h0l1.4-4.4h1.8l-2.7,7.3
		C75,32.1,74.7,32.5,74.4,32.7z"/>
	<path d="M78.5,26.2c0.2-0.4,0.4-0.8,0.7-1.1c0.3-0.3,0.6-0.5,1-0.7c0.4-0.2,0.9-0.2,1.4-0.2s1,0.1,1.4,0.2c0.4,0.2,0.8,0.4,1.1,0.7
		c0.3,0.3,0.5,0.7,0.7,1.1c0.2,0.4,0.2,0.9,0.2,1.4c0,0.5-0.1,1-0.2,1.4s-0.4,0.8-0.7,1.1c-0.3,0.3-0.6,0.5-1.1,0.7S82.1,31,81.6,31
		s-1-0.1-1.4-0.2s-0.8-0.4-1-0.7c-0.3-0.3-0.5-0.7-0.7-1.1s-0.2-0.9-0.2-1.4C78.3,27.1,78.4,26.6,78.5,26.2z M80.1,28.3
		c0,0.2,0.1,0.5,0.3,0.7c0.1,0.2,0.3,0.4,0.5,0.5c0.2,0.1,0.5,0.2,0.8,0.2s0.6-0.1,0.8-0.2c0.2-0.1,0.4-0.3,0.5-0.5
		c0.1-0.2,0.2-0.4,0.3-0.7s0.1-0.5,0.1-0.8c0-0.3,0-0.5-0.1-0.8s-0.1-0.5-0.3-0.7c-0.1-0.2-0.3-0.3-0.5-0.5
		c-0.2-0.1-0.5-0.2-0.8-0.2s-0.5,0.1-0.8,0.2s-0.4,0.3-0.5,0.5c-0.1,0.2-0.2,0.4-0.3,0.7c-0.1,0.2-0.1,0.5-0.1,0.8
		C80,27.8,80.1,28.1,80.1,28.3z"/>
	<path d="M90.5,30.8v-0.9h0c-0.2,0.4-0.5,0.6-0.9,0.8c-0.4,0.2-0.7,0.2-1.1,0.2c-0.5,0-0.9-0.1-1.2-0.2s-0.5-0.3-0.7-0.5
		c-0.2-0.2-0.3-0.5-0.4-0.8s-0.1-0.7-0.1-1.1v-4h1.8V28c0,0.5,0.1,0.9,0.2,1.2c0.2,0.3,0.5,0.4,0.9,0.4c0.5,0,0.8-0.1,1.1-0.4
		c0.2-0.3,0.3-0.8,0.3-1.4v-3.4h1.8v6.5H90.5z"/>
	<path d="M95.2,24.4v1.2h0c0.1-0.2,0.2-0.4,0.3-0.6c0.1-0.2,0.3-0.3,0.5-0.4c0.2-0.1,0.4-0.2,0.6-0.3c0.2-0.1,0.4-0.1,0.7-0.1
		c0.1,0,0.2,0,0.4,0.1v1.7c-0.1,0-0.2,0-0.3,0s-0.2,0-0.3,0c-0.3,0-0.6,0.1-0.8,0.2c-0.2,0.1-0.4,0.3-0.5,0.4
		c-0.1,0.2-0.2,0.4-0.3,0.7c-0.1,0.2-0.1,0.5-0.1,0.8v2.9h-1.8v-6.5H95.2z"/>
	<path d="M108,31.3c-0.1,0.3-0.2,0.6-0.5,0.9c-0.2,0.3-0.6,0.5-1,0.7c-0.4,0.2-1,0.3-1.8,0.3c-0.3,0-0.6,0-1-0.1
		c-0.3-0.1-0.6-0.2-0.9-0.4c-0.3-0.2-0.5-0.4-0.7-0.6c-0.2-0.3-0.3-0.6-0.3-0.9h1.8c0.1,0.3,0.2,0.6,0.5,0.7
		c0.2,0.1,0.5,0.2,0.8,0.2c0.5,0,0.9-0.2,1.1-0.5s0.3-0.7,0.3-1.1v-0.8h0c-0.2,0.3-0.5,0.6-0.8,0.8c-0.4,0.2-0.7,0.2-1.1,0.2
		c-0.5,0-0.9-0.1-1.2-0.3c-0.3-0.2-0.6-0.4-0.9-0.7s-0.4-0.6-0.5-1c-0.1-0.4-0.2-0.8-0.2-1.3c0-0.4,0.1-0.8,0.2-1.2
		c0.1-0.4,0.3-0.7,0.5-1c0.2-0.3,0.5-0.5,0.9-0.7s0.7-0.3,1.2-0.3c0.4,0,0.8,0.1,1.1,0.2s0.6,0.4,0.8,0.8h0v-0.9h1.7v6.1
		C108.1,30.7,108,31,108,31.3z M105.5,29.1c0.2-0.1,0.4-0.2,0.5-0.4s0.2-0.4,0.3-0.6c0.1-0.2,0.1-0.4,0.1-0.7c0-0.3,0-0.5-0.1-0.8
		c0-0.2-0.1-0.4-0.2-0.6c-0.1-0.2-0.3-0.3-0.5-0.4c-0.2-0.1-0.4-0.2-0.7-0.2c-0.2,0-0.5,0-0.6,0.1c-0.2,0.1-0.3,0.2-0.5,0.4
		c-0.1,0.2-0.2,0.4-0.3,0.6s-0.1,0.5-0.1,0.7c0,0.2,0,0.5,0.1,0.7c0,0.2,0.1,0.4,0.2,0.6c0.1,0.2,0.3,0.3,0.4,0.5
		c0.2,0.1,0.4,0.2,0.7,0.2C105.1,29.3,105.3,29.2,105.5,29.1z"/>
	<path d="M109.5,26.2c0.2-0.4,0.4-0.8,0.7-1.1c0.3-0.3,0.6-0.5,1-0.7c0.4-0.2,0.9-0.2,1.4-0.2s1,0.1,1.4,0.2
		c0.4,0.2,0.8,0.4,1.1,0.7c0.3,0.3,0.5,0.7,0.7,1.1c0.2,0.4,0.2,0.9,0.2,1.4c0,0.5-0.1,1-0.2,1.4s-0.4,0.8-0.7,1.1
		c-0.3,0.3-0.6,0.5-1.1,0.7s-0.9,0.2-1.4,0.2s-1-0.1-1.4-0.2s-0.8-0.4-1-0.7c-0.3-0.3-0.5-0.7-0.7-1.1s-0.2-0.9-0.2-1.4
		C109.3,27.1,109.4,26.6,109.5,26.2z M111.1,28.3c0,0.2,0.1,0.5,0.3,0.7c0.1,0.2,0.3,0.4,0.5,0.5c0.2,0.1,0.5,0.2,0.8,0.2
		s0.6-0.1,0.8-0.2c0.2-0.1,0.4-0.3,0.5-0.5c0.1-0.2,0.2-0.4,0.3-0.7s0.1-0.5,0.1-0.8c0-0.3,0-0.5-0.1-0.8s-0.1-0.5-0.3-0.7
		c-0.1-0.2-0.3-0.3-0.5-0.5c-0.2-0.1-0.5-0.2-0.8-0.2s-0.5,0.1-0.8,0.2s-0.4,0.3-0.5,0.5c-0.1,0.2-0.2,0.4-0.3,0.7
		c-0.1,0.2-0.1,0.5-0.1,0.8C111.1,27.8,111.1,28.1,111.1,28.3z"/>
	<path d="M117.1,26.3c0-0.4,0.1-0.8,0.3-1c0.2-0.3,0.4-0.5,0.7-0.7c0.3-0.2,0.6-0.3,1-0.4c0.4-0.1,0.7-0.1,1.1-0.1
		c0.3,0,0.7,0,1,0.1c0.3,0,0.6,0.1,0.9,0.3s0.5,0.3,0.7,0.6c0.2,0.2,0.3,0.6,0.3,0.9v3.4c0,0.3,0,0.6,0,0.8s0.1,0.5,0.2,0.6h-1.8
		c0-0.1-0.1-0.2-0.1-0.3c0-0.1,0-0.2,0-0.3c-0.3,0.3-0.6,0.5-1,0.6c-0.4,0.1-0.8,0.2-1.2,0.2c-0.3,0-0.6,0-0.9-0.1s-0.5-0.2-0.7-0.3
		c-0.2-0.2-0.4-0.4-0.5-0.6c-0.1-0.2-0.2-0.5-0.2-0.9c0-0.4,0.1-0.7,0.2-0.9c0.1-0.2,0.3-0.4,0.5-0.6s0.4-0.2,0.7-0.3
		c0.3-0.1,0.5-0.1,0.8-0.2c0.3,0,0.5-0.1,0.8-0.1c0.3,0,0.5-0.1,0.7-0.1s0.4-0.1,0.5-0.2s0.2-0.2,0.2-0.4c0-0.2,0-0.3-0.1-0.5
		s-0.1-0.2-0.2-0.3c-0.1-0.1-0.2-0.1-0.4-0.1c-0.1,0-0.3,0-0.4,0c-0.3,0-0.6,0.1-0.8,0.2c-0.2,0.1-0.3,0.4-0.4,0.8H117.1z
		 M121.2,27.7c-0.1,0.1-0.2,0.1-0.3,0.2c-0.1,0-0.2,0.1-0.4,0.1c-0.1,0-0.3,0-0.4,0.1c-0.1,0-0.3,0-0.4,0.1c-0.1,0-0.3,0.1-0.4,0.1
		c-0.1,0-0.2,0.1-0.3,0.2s-0.2,0.2-0.2,0.3c-0.1,0.1-0.1,0.2-0.1,0.4c0,0.2,0,0.3,0.1,0.4c0.1,0.1,0.1,0.2,0.2,0.3s0.2,0.1,0.4,0.1
		c0.1,0,0.3,0,0.4,0c0.3,0,0.6-0.1,0.8-0.2c0.2-0.1,0.3-0.3,0.4-0.4c0.1-0.2,0.1-0.3,0.2-0.5c0-0.2,0-0.3,0-0.4V27.7z"/>
	<path d="M126.1,21.9v8.9h-1.8v-8.9H126.1z"/>
	<path d="M129,29.2c0.1,0.1,0.2,0.2,0.3,0.3c0.1,0.1,0.3,0.2,0.4,0.2c0.2,0,0.3,0.1,0.5,0.1c0.1,0,0.3,0,0.4,0
		c0.1,0,0.3-0.1,0.4-0.1c0.1-0.1,0.2-0.1,0.3-0.2c0.1-0.1,0.1-0.2,0.1-0.4c0-0.3-0.2-0.5-0.5-0.6c-0.4-0.1-0.8-0.3-1.5-0.4
		c-0.3-0.1-0.5-0.1-0.8-0.2s-0.5-0.2-0.7-0.3c-0.2-0.1-0.3-0.3-0.5-0.5s-0.2-0.4-0.2-0.7c0-0.4,0.1-0.8,0.2-1s0.4-0.5,0.6-0.6
		s0.6-0.3,0.9-0.3c0.3-0.1,0.7-0.1,1-0.1c0.3,0,0.7,0,1,0.1c0.3,0.1,0.6,0.2,0.9,0.3c0.3,0.2,0.5,0.4,0.6,0.6c0.2,0.3,0.3,0.6,0.3,1
		h-1.7c0-0.3-0.2-0.6-0.4-0.7c-0.2-0.1-0.5-0.2-0.8-0.2c-0.1,0-0.2,0-0.3,0c-0.1,0-0.2,0-0.3,0.1c-0.1,0-0.2,0.1-0.2,0.2
		c-0.1,0.1-0.1,0.2-0.1,0.3c0,0.2,0.1,0.3,0.2,0.4c0.1,0.1,0.3,0.2,0.5,0.2s0.4,0.1,0.6,0.2s0.5,0.1,0.7,0.2
		c0.3,0.1,0.5,0.1,0.8,0.2s0.5,0.2,0.7,0.3s0.3,0.3,0.5,0.5s0.2,0.5,0.2,0.8c0,0.4-0.1,0.8-0.3,1.1c-0.2,0.3-0.4,0.5-0.7,0.7
		c-0.3,0.2-0.6,0.3-0.9,0.4c-0.4,0.1-0.7,0.1-1.1,0.1c-0.4,0-0.7,0-1.1-0.1s-0.7-0.2-1-0.4s-0.5-0.4-0.7-0.7
		c-0.2-0.3-0.3-0.6-0.3-1.1h1.7C128.9,28.9,129,29.1,129,29.2z"/>
	<path d="M137.8,23.4v-1.5h1.8v1.5H137.8z M139.5,24.4v6.5h-1.8v-6.5H139.5z"/>
	<path d="M142.4,29.2c0.1,0.1,0.2,0.2,0.3,0.3c0.1,0.1,0.3,0.2,0.4,0.2c0.2,0,0.3,0.1,0.5,0.1c0.1,0,0.3,0,0.4,0
		c0.1,0,0.3-0.1,0.4-0.1c0.1-0.1,0.2-0.1,0.3-0.2c0.1-0.1,0.1-0.2,0.1-0.4c0-0.3-0.2-0.5-0.5-0.6c-0.4-0.1-0.8-0.3-1.5-0.4
		c-0.3-0.1-0.5-0.1-0.8-0.2s-0.5-0.2-0.7-0.3c-0.2-0.1-0.3-0.3-0.5-0.5s-0.2-0.4-0.2-0.7c0-0.4,0.1-0.8,0.2-1s0.4-0.5,0.6-0.6
		s0.6-0.3,0.9-0.3c0.3-0.1,0.7-0.1,1-0.1c0.3,0,0.7,0,1,0.1c0.3,0.1,0.6,0.2,0.9,0.3c0.3,0.2,0.5,0.4,0.6,0.6c0.2,0.3,0.3,0.6,0.3,1
		h-1.7c0-0.3-0.2-0.6-0.4-0.7c-0.2-0.1-0.5-0.2-0.8-0.2c-0.1,0-0.2,0-0.3,0c-0.1,0-0.2,0-0.3,0.1c-0.1,0-0.2,0.1-0.2,0.2
		c-0.1,0.1-0.1,0.2-0.1,0.3c0,0.2,0.1,0.3,0.2,0.4c0.1,0.1,0.3,0.2,0.5,0.2s0.4,0.1,0.6,0.2s0.5,0.1,0.7,0.2
		c0.3,0.1,0.5,0.1,0.8,0.2s0.5,0.2,0.7,0.3s0.3,0.3,0.5,0.5s0.2,0.5,0.2,0.8c0,0.4-0.1,0.8-0.3,1.1c-0.2,0.3-0.4,0.5-0.7,0.7
		c-0.3,0.2-0.6,0.3-0.9,0.4c-0.4,0.1-0.7,0.1-1.1,0.1c-0.4,0-0.7,0-1.1-0.1s-0.7-0.2-1-0.4s-0.5-0.4-0.7-0.7
		c-0.2-0.3-0.3-0.6-0.3-1.1h1.7C142.3,28.9,142.4,29.1,142.4,29.2z"/>
	<path d="M151.1,26.3c0-0.4,0.1-0.8,0.3-1c0.2-0.3,0.4-0.5,0.7-0.7c0.3-0.2,0.6-0.3,1-0.4c0.4-0.1,0.7-0.1,1.1-0.1
		c0.3,0,0.7,0,1,0.1c0.3,0,0.6,0.1,0.9,0.3c0.3,0.1,0.5,0.3,0.7,0.6c0.2,0.2,0.3,0.6,0.3,0.9v3.4c0,0.3,0,0.6,0.1,0.8
		c0,0.3,0.1,0.5,0.2,0.6h-1.8c0-0.1-0.1-0.2-0.1-0.3c0-0.1,0-0.2,0-0.3c-0.3,0.3-0.6,0.5-1,0.6c-0.4,0.1-0.8,0.2-1.2,0.2
		c-0.3,0-0.6,0-0.9-0.1s-0.5-0.2-0.7-0.3c-0.2-0.2-0.4-0.4-0.5-0.6c-0.1-0.2-0.2-0.5-0.2-0.9c0-0.4,0.1-0.7,0.2-0.9
		c0.1-0.2,0.3-0.4,0.5-0.6s0.4-0.2,0.7-0.3c0.3-0.1,0.5-0.1,0.8-0.2c0.3,0,0.5-0.1,0.8-0.1c0.3,0,0.5-0.1,0.7-0.1s0.4-0.1,0.5-0.2
		c0.1-0.1,0.2-0.2,0.2-0.4c0-0.2,0-0.3-0.1-0.5s-0.1-0.2-0.2-0.3c-0.1-0.1-0.2-0.1-0.4-0.1c-0.1,0-0.3,0-0.4,0
		c-0.3,0-0.6,0.1-0.8,0.2c-0.2,0.1-0.3,0.4-0.3,0.8H151.1z M155.2,27.7c-0.1,0.1-0.2,0.1-0.3,0.2c-0.1,0-0.2,0.1-0.4,0.1
		c-0.1,0-0.3,0-0.4,0.1c-0.1,0-0.3,0-0.4,0.1c-0.1,0-0.3,0.1-0.4,0.1c-0.1,0-0.2,0.1-0.3,0.2c-0.1,0.1-0.2,0.2-0.2,0.3
		c-0.1,0.1-0.1,0.2-0.1,0.4c0,0.2,0,0.3,0.1,0.4c0.1,0.1,0.1,0.2,0.2,0.3s0.2,0.1,0.3,0.1c0.1,0,0.3,0,0.4,0c0.3,0,0.6-0.1,0.8-0.2
		c0.2-0.1,0.3-0.3,0.4-0.4c0.1-0.2,0.1-0.3,0.2-0.5c0-0.2,0-0.3,0-0.4V27.7z"/>
	<path d="M167.9,31.3c-0.1,0.3-0.2,0.6-0.5,0.9s-0.6,0.5-1,0.7s-1,0.3-1.8,0.3c-0.3,0-0.6,0-1-0.1s-0.6-0.2-0.9-0.4
		c-0.3-0.2-0.5-0.4-0.7-0.6c-0.2-0.3-0.3-0.6-0.3-0.9h1.8c0.1,0.3,0.2,0.6,0.5,0.7c0.2,0.1,0.5,0.2,0.8,0.2c0.5,0,0.9-0.2,1.1-0.5
		c0.2-0.3,0.3-0.7,0.3-1.1v-0.8h0c-0.2,0.3-0.5,0.6-0.8,0.8c-0.4,0.2-0.7,0.2-1.1,0.2c-0.5,0-0.9-0.1-1.2-0.3
		c-0.3-0.2-0.6-0.4-0.9-0.7s-0.4-0.6-0.5-1c-0.1-0.4-0.2-0.8-0.2-1.3c0-0.4,0.1-0.8,0.2-1.2s0.3-0.7,0.5-1c0.2-0.3,0.5-0.5,0.9-0.7
		c0.3-0.2,0.7-0.3,1.2-0.3c0.4,0,0.8,0.1,1.1,0.2c0.3,0.2,0.6,0.4,0.8,0.8h0v-0.9h1.7v6.1C168,30.7,168,31,167.9,31.3z M165.5,29.1
		c0.2-0.1,0.4-0.2,0.5-0.4s0.2-0.4,0.3-0.6c0.1-0.2,0.1-0.4,0.1-0.7c0-0.3,0-0.5-0.1-0.8c0-0.2-0.1-0.4-0.2-0.6
		c-0.1-0.2-0.3-0.3-0.5-0.4c-0.2-0.1-0.4-0.2-0.7-0.2c-0.2,0-0.5,0-0.6,0.1c-0.2,0.1-0.3,0.2-0.5,0.4c-0.1,0.2-0.2,0.4-0.3,0.6
		c-0.1,0.2-0.1,0.5-0.1,0.7c0,0.2,0,0.5,0.1,0.7s0.1,0.4,0.2,0.6c0.1,0.2,0.3,0.3,0.4,0.5c0.2,0.1,0.4,0.2,0.7,0.2
		C165,29.3,165.3,29.2,165.5,29.1z"/>
	<path d="M169.5,26.2c0.2-0.4,0.4-0.8,0.7-1.1c0.3-0.3,0.6-0.5,1-0.7c0.4-0.2,0.9-0.2,1.4-0.2c0.5,0,1,0.1,1.4,0.2
		c0.4,0.2,0.8,0.4,1.1,0.7s0.5,0.7,0.7,1.1c0.2,0.4,0.2,0.9,0.2,1.4c0,0.5-0.1,1-0.2,1.4s-0.4,0.8-0.7,1.1s-0.6,0.5-1.1,0.7
		c-0.4,0.2-0.9,0.2-1.4,0.2c-0.5,0-1-0.1-1.4-0.2s-0.8-0.4-1-0.7c-0.3-0.3-0.5-0.7-0.7-1.1c-0.2-0.4-0.2-0.9-0.2-1.4
		C169.2,27.1,169.3,26.6,169.5,26.2z M171.1,28.3c0,0.2,0.1,0.5,0.3,0.7c0.1,0.2,0.3,0.4,0.5,0.5c0.2,0.1,0.5,0.2,0.8,0.2
		s0.6-0.1,0.8-0.2c0.2-0.1,0.4-0.3,0.5-0.5c0.1-0.2,0.2-0.4,0.3-0.7s0.1-0.5,0.1-0.8c0-0.3,0-0.5-0.1-0.8s-0.1-0.5-0.3-0.7
		c-0.1-0.2-0.3-0.3-0.5-0.5s-0.5-0.2-0.8-0.2s-0.5,0.1-0.8,0.2s-0.4,0.3-0.5,0.5c-0.1,0.2-0.2,0.4-0.3,0.7s-0.1,0.5-0.1,0.8
		C171,27.8,171,28.1,171.1,28.3z"/>
	<path d="M177.1,26.2c0.2-0.4,0.4-0.8,0.7-1.1c0.3-0.3,0.6-0.5,1-0.7c0.4-0.2,0.9-0.2,1.4-0.2c0.5,0,1,0.1,1.4,0.2
		c0.4,0.2,0.8,0.4,1.1,0.7s0.5,0.7,0.7,1.1c0.2,0.4,0.2,0.9,0.2,1.4c0,0.5-0.1,1-0.2,1.4s-0.4,0.8-0.7,1.1s-0.6,0.5-1.1,0.7
		c-0.4,0.2-0.9,0.2-1.4,0.2c-0.5,0-1-0.1-1.4-0.2s-0.8-0.4-1-0.7c-0.3-0.3-0.5-0.7-0.7-1.1c-0.2-0.4-0.2-0.9-0.2-1.4
		C176.9,27.1,176.9,26.6,177.1,26.2z M178.7,28.3c0,0.2,0.1,0.5,0.3,0.7c0.1,0.2,0.3,0.4,0.5,0.5c0.2,0.1,0.5,0.2,0.8,0.2
		s0.6-0.1,0.8-0.2c0.2-0.1,0.4-0.3,0.5-0.5c0.1-0.2,0.2-0.4,0.3-0.7s0.1-0.5,0.1-0.8c0-0.3,0-0.5-0.1-0.8s-0.1-0.5-0.3-0.7
		c-0.1-0.2-0.3-0.3-0.5-0.5s-0.5-0.2-0.8-0.2s-0.5,0.1-0.8,0.2s-0.4,0.3-0.5,0.5c-0.1,0.2-0.2,0.4-0.3,0.7s-0.1,0.5-0.1,0.8
		C178.6,27.8,178.7,28.1,178.7,28.3z"/>
	<path d="M189.3,30c-0.2,0.4-0.5,0.6-0.8,0.8c-0.3,0.2-0.7,0.2-1.1,0.2c-0.5,0-0.9-0.1-1.3-0.3c-0.4-0.2-0.7-0.4-0.9-0.8
		c-0.2-0.3-0.4-0.7-0.5-1.1s-0.2-0.9-0.2-1.3c0-0.4,0.1-0.9,0.2-1.3c0.1-0.4,0.3-0.8,0.5-1.1c0.2-0.3,0.5-0.6,0.9-0.7
		s0.8-0.3,1.2-0.3c0.4,0,0.7,0.1,1.1,0.2c0.3,0.2,0.6,0.4,0.8,0.7h0v-3.2h1.8v8.9h-1.7L189.3,30L189.3,30z M189.2,26.8
		c0-0.2-0.1-0.5-0.3-0.7c-0.1-0.2-0.3-0.3-0.5-0.5c-0.2-0.1-0.4-0.2-0.7-0.2s-0.5,0.1-0.7,0.2s-0.4,0.3-0.5,0.5
		c-0.1,0.2-0.2,0.4-0.3,0.7c-0.1,0.2-0.1,0.5-0.1,0.8c0,0.2,0,0.5,0.1,0.8c0.1,0.2,0.2,0.5,0.3,0.7c0.1,0.2,0.3,0.4,0.5,0.5
		c0.2,0.1,0.4,0.2,0.7,0.2c0.3,0,0.5-0.1,0.7-0.2c0.2-0.1,0.4-0.3,0.5-0.5c0.1-0.2,0.2-0.4,0.2-0.7s0.1-0.5,0.1-0.8
		S189.3,27,189.2,26.8z"/>
	<path d="M197.5,24.4v0.8h0c0.2-0.3,0.5-0.6,0.8-0.8c0.3-0.2,0.7-0.2,1.1-0.2c0.5,0,0.9,0.1,1.3,0.3c0.4,0.2,0.7,0.4,0.9,0.8
		c0.2,0.3,0.4,0.7,0.5,1.1c0.1,0.4,0.2,0.9,0.2,1.3c0,0.4-0.1,0.8-0.2,1.2c-0.1,0.4-0.3,0.8-0.5,1.1c-0.2,0.3-0.5,0.6-0.9,0.7
		c-0.4,0.2-0.8,0.3-1.2,0.3c-0.4,0-0.8-0.1-1.1-0.2c-0.3-0.2-0.6-0.4-0.8-0.7h0v3.1h-1.8v-8.7H197.5z M199.8,29.5
		c0.2-0.1,0.4-0.3,0.5-0.5s0.2-0.4,0.3-0.7c0-0.2,0.1-0.5,0.1-0.8c0-0.3,0-0.5-0.1-0.8c-0.1-0.2-0.1-0.5-0.3-0.7
		c-0.1-0.2-0.3-0.4-0.5-0.5c-0.2-0.1-0.4-0.2-0.7-0.2c-0.3,0-0.5,0.1-0.7,0.2c-0.2,0.1-0.4,0.3-0.5,0.5c-0.1,0.2-0.2,0.4-0.3,0.7
		c-0.1,0.2-0.1,0.5-0.1,0.8c0,0.3,0,0.5,0.1,0.8c0.1,0.2,0.1,0.5,0.3,0.7c0.1,0.2,0.3,0.3,0.5,0.5c0.2,0.1,0.4,0.2,0.7,0.2
		C199.4,29.7,199.6,29.6,199.8,29.5z"/>
	<path d="M205.3,21.9v8.9h-1.8v-8.9H205.3z"/>
	<path d="M206.6,26.3c0-0.4,0.1-0.8,0.3-1c0.2-0.3,0.4-0.5,0.7-0.7c0.3-0.2,0.6-0.3,1-0.4c0.4-0.1,0.7-0.1,1.1-0.1
		c0.3,0,0.7,0,1,0.1c0.3,0,0.6,0.1,0.9,0.3c0.3,0.1,0.5,0.3,0.7,0.6c0.2,0.2,0.3,0.6,0.3,0.9v3.4c0,0.3,0,0.6,0.1,0.8
		c0,0.3,0.1,0.5,0.2,0.6h-1.8c0-0.1-0.1-0.2-0.1-0.3c0-0.1,0-0.2,0-0.3c-0.3,0.3-0.6,0.5-1,0.6c-0.4,0.1-0.8,0.2-1.2,0.2
		c-0.3,0-0.6,0-0.9-0.1s-0.5-0.2-0.7-0.3c-0.2-0.2-0.4-0.4-0.5-0.6c-0.1-0.2-0.2-0.5-0.2-0.9c0-0.4,0.1-0.7,0.2-0.9s0.3-0.4,0.5-0.6
		s0.4-0.2,0.7-0.3c0.3-0.1,0.5-0.1,0.8-0.2c0.3,0,0.5-0.1,0.8-0.1c0.3,0,0.5-0.1,0.7-0.1s0.4-0.1,0.5-0.2c0.1-0.1,0.2-0.2,0.2-0.4
		c0-0.2,0-0.3-0.1-0.5s-0.1-0.2-0.2-0.3c-0.1-0.1-0.2-0.1-0.4-0.1c-0.1,0-0.3,0-0.4,0c-0.3,0-0.6,0.1-0.8,0.2
		c-0.2,0.1-0.3,0.4-0.3,0.8H206.6z M210.7,27.7c-0.1,0.1-0.2,0.1-0.3,0.2c-0.1,0-0.2,0.1-0.4,0.1c-0.1,0-0.3,0-0.4,0.1
		c-0.1,0-0.3,0-0.4,0.1c-0.1,0-0.3,0.1-0.4,0.1c-0.1,0-0.2,0.1-0.3,0.2c-0.1,0.1-0.2,0.2-0.2,0.3c-0.1,0.1-0.1,0.2-0.1,0.4
		c0,0.2,0,0.3,0.1,0.4c0.1,0.1,0.1,0.2,0.2,0.3s0.2,0.1,0.3,0.1c0.1,0,0.3,0,0.4,0c0.3,0,0.6-0.1,0.8-0.2c0.2-0.1,0.3-0.3,0.4-0.4
		c0.1-0.2,0.1-0.3,0.2-0.5c0-0.2,0-0.3,0-0.4V27.7z"/>
	<path d="M215.5,24.4v0.9h0c0.2-0.4,0.5-0.6,0.9-0.8c0.4-0.2,0.7-0.3,1.1-0.3c0.5,0,0.9,0.1,1.2,0.2c0.3,0.1,0.5,0.3,0.7,0.5
		c0.2,0.2,0.3,0.5,0.4,0.8c0.1,0.3,0.1,0.7,0.1,1.1v4h-1.8v-3.7c0-0.5-0.1-0.9-0.2-1.2c-0.2-0.3-0.5-0.4-0.9-0.4
		c-0.5,0-0.8,0.1-1,0.4c-0.2,0.3-0.3,0.8-0.3,1.4v3.4h-1.8v-6.5H215.5z"/>
	<path d="M223.3,28.9v1.9c0,0.3-0.1,0.5-0.2,0.8c-0.1,0.2-0.2,0.4-0.4,0.6c-0.2,0.2-0.4,0.3-0.6,0.4s-0.5,0.2-0.8,0.2V32
		c0.1,0,0.2-0.1,0.4-0.1c0.1-0.1,0.2-0.2,0.3-0.3c0.1-0.1,0.1-0.2,0.2-0.4s0.1-0.3,0-0.4h-0.9v-1.9H223.3z"/>
	<path d="M231.8,24.4v1.2h-1.3v3.2c0,0.3,0,0.5,0.2,0.6c0.1,0.1,0.3,0.1,0.6,0.1c0.1,0,0.2,0,0.3,0c0.1,0,0.2,0,0.3,0v1.4
		c-0.1,0-0.3,0-0.5,0c-0.2,0-0.4,0-0.5,0c-0.3,0-0.5,0-0.8-0.1c-0.2,0-0.5-0.1-0.7-0.2c-0.2-0.1-0.3-0.3-0.4-0.5s-0.2-0.5-0.2-0.8
		v-3.8h-1.1v-1.2h1.1v-1.9h1.8v1.9H231.8z"/>
	<path d="M232.6,26.2c0.2-0.4,0.4-0.8,0.7-1.1c0.3-0.3,0.6-0.5,1-0.7c0.4-0.2,0.9-0.2,1.4-0.2c0.5,0,1,0.1,1.4,0.2
		c0.4,0.2,0.8,0.4,1.1,0.7s0.5,0.7,0.7,1.1c0.2,0.4,0.2,0.9,0.2,1.4c0,0.5-0.1,1-0.2,1.4s-0.4,0.8-0.7,1.1s-0.6,0.5-1.1,0.7
		c-0.4,0.2-0.9,0.2-1.4,0.2c-0.5,0-1-0.1-1.4-0.2s-0.8-0.4-1-0.7c-0.3-0.3-0.5-0.7-0.7-1.1c-0.2-0.4-0.2-0.9-0.2-1.4
		C232.4,27.1,232.5,26.6,232.6,26.2z M234.3,28.3c0,0.2,0.1,0.5,0.3,0.7c0.1,0.2,0.3,0.4,0.5,0.5c0.2,0.1,0.5,0.2,0.8,0.2
		s0.6-0.1,0.8-0.2c0.2-0.1,0.4-0.3,0.5-0.5c0.1-0.2,0.2-0.4,0.3-0.7s0.1-0.5,0.1-0.8c0-0.3,0-0.5-0.1-0.8s-0.1-0.5-0.3-0.7
		c-0.1-0.2-0.3-0.3-0.5-0.5s-0.5-0.2-0.8-0.2s-0.5,0.1-0.8,0.2s-0.4,0.3-0.5,0.5c-0.1,0.2-0.2,0.4-0.3,0.7s-0.1,0.5-0.1,0.8
		C234.2,27.8,234.2,28.1,234.3,28.3z"/>
	<path d="M240.3,26.2c0.2-0.4,0.4-0.8,0.7-1.1c0.3-0.3,0.6-0.5,1-0.7c0.4-0.2,0.9-0.2,1.4-0.2c0.5,0,1,0.1,1.4,0.2
		c0.4,0.2,0.8,0.4,1.1,0.7s0.5,0.7,0.7,1.1c0.2,0.4,0.2,0.9,0.2,1.4c0,0.5-0.1,1-0.2,1.4s-0.4,0.8-0.7,1.1s-0.6,0.5-1.1,0.7
		c-0.4,0.2-0.9,0.2-1.4,0.2c-0.5,0-1-0.1-1.4-0.2s-0.8-0.4-1-0.7c-0.3-0.3-0.5-0.7-0.7-1.1c-0.2-0.4-0.2-0.9-0.2-1.4
		C240,27.1,240.1,26.6,240.3,26.2z M241.9,28.3c0,0.2,0.1,0.5,0.3,0.7c0.1,0.2,0.3,0.4,0.5,0.5c0.2,0.1,0.5,0.2,0.8,0.2
		s0.6-0.1,0.8-0.2c0.2-0.1,0.4-0.3,0.5-0.5c0.1-0.2,0.2-0.4,0.3-0.7s0.1-0.5,0.1-0.8c0-0.3,0-0.5-0.1-0.8s-0.1-0.5-0.3-0.7
		c-0.1-0.2-0.3-0.3-0.5-0.5s-0.5-0.2-0.8-0.2s-0.5,0.1-0.8,0.2s-0.4,0.3-0.5,0.5c-0.1,0.2-0.2,0.4-0.3,0.7s-0.1,0.5-0.1,0.8
		C241.8,27.8,241.8,28.1,241.9,28.3z"/>
	<path d="M249.9,28.9v1.9h-2v-1.9H249.9z"/>
</g>
</svg>
