<?xml version="1.0" encoding="utf-8"?>
<!-- Generator: Adobe Illustrator 25.4.1, SVG Export Plug-In . SVG Version: 6.00 Build 0)  -->
<svg version="1.1" id="Layer_1" xmlns="http://www.w3.org/2000/svg" xmlns:xlink="http://www.w3.org/1999/xlink" x="0px" y="0px"
	 viewBox="0 0 300 50" style="enable-background:new 0 0 300 50;" xml:space="preserve">
<style type="text/css">
	.st0{fill:#349946;}
</style>
<g>
	<path class="st0" d="M18.5,10.7c0.8,0,1.4,0.1,1.9,0.3c0.5,0.2,1,0.5,1.3,0.9c0.3,0.4,0.6,0.8,0.7,1.2c0.2,0.5,0.2,1,0.2,1.5
		c0,0.5-0.1,1-0.2,1.4c-0.2,0.5-0.4,0.9-0.7,1.3c-0.3,0.4-0.8,0.7-1.3,0.9c-0.5,0.2-1.2,0.3-1.9,0.3h-2.8v4.4h-2.7V10.7H18.5z
		 M17.7,16.5c0.3,0,0.6,0,0.9-0.1c0.3,0,0.5-0.1,0.8-0.3c0.2-0.1,0.4-0.3,0.5-0.6c0.1-0.2,0.2-0.6,0.2-0.9c0-0.4-0.1-0.7-0.2-0.9
		c-0.1-0.2-0.3-0.4-0.5-0.6c-0.2-0.1-0.5-0.2-0.8-0.3c-0.3,0-0.6-0.1-0.9-0.1h-2.1v3.7H17.7z"/>
	<path class="st0" d="M26.4,14.1v1.6h0c0.1-0.3,0.3-0.5,0.5-0.8c0.2-0.2,0.4-0.4,0.7-0.6c0.3-0.2,0.5-0.3,0.8-0.4
		c0.3-0.1,0.6-0.1,0.9-0.1c0.2,0,0.3,0,0.5,0.1v2.3c-0.1,0-0.3,0-0.4-0.1c-0.2,0-0.3,0-0.5,0c-0.4,0-0.8,0.1-1.1,0.2
		c-0.3,0.1-0.6,0.4-0.7,0.6c-0.2,0.3-0.3,0.6-0.4,0.9c-0.1,0.3-0.1,0.7-0.1,1.1v4h-2.4v-8.8H26.4z"/>
	<path class="st0" d="M30.7,16.8c0-0.6,0.2-1,0.4-1.4c0.3-0.4,0.6-0.7,1-0.9c0.4-0.2,0.8-0.4,1.3-0.5c0.5-0.1,1-0.1,1.5-0.1
		c0.4,0,0.9,0,1.4,0.1s0.9,0.2,1.2,0.4c0.4,0.2,0.7,0.4,0.9,0.8c0.2,0.3,0.4,0.8,0.4,1.3V21c0,0.4,0,0.8,0.1,1.1
		c0,0.4,0.1,0.6,0.2,0.8h-2.5c0-0.1-0.1-0.3-0.1-0.4s0-0.3-0.1-0.4c-0.4,0.4-0.8,0.7-1.4,0.8s-1.1,0.2-1.6,0.2
		c-0.4,0-0.8-0.1-1.2-0.2s-0.7-0.3-1-0.5c-0.3-0.2-0.5-0.5-0.6-0.8s-0.2-0.7-0.2-1.2c0-0.5,0.1-0.9,0.3-1.2s0.4-0.6,0.7-0.8
		c0.3-0.2,0.6-0.3,1-0.4c0.4-0.1,0.7-0.2,1.1-0.2s0.7-0.1,1.1-0.1s0.7-0.1,0.9-0.2c0.3-0.1,0.5-0.2,0.6-0.3c0.2-0.1,0.2-0.3,0.2-0.6
		c0-0.3,0-0.5-0.1-0.6c-0.1-0.2-0.2-0.3-0.3-0.4s-0.3-0.1-0.5-0.2c-0.2,0-0.4,0-0.6,0c-0.5,0-0.9,0.1-1.1,0.3
		c-0.3,0.2-0.4,0.5-0.5,1H30.7z M36.3,18.6c-0.1,0.1-0.2,0.2-0.4,0.2s-0.3,0.1-0.5,0.1S35,19,34.8,19c-0.2,0-0.4,0.1-0.6,0.1
		c-0.2,0-0.4,0.1-0.5,0.1s-0.3,0.1-0.5,0.2c-0.1,0.1-0.2,0.2-0.3,0.4c-0.1,0.1-0.1,0.3-0.1,0.6c0,0.2,0,0.4,0.1,0.5
		c0.1,0.1,0.2,0.3,0.3,0.4c0.1,0.1,0.3,0.1,0.5,0.2c0.2,0,0.4,0.1,0.6,0.1c0.5,0,0.8-0.1,1.1-0.2c0.3-0.2,0.5-0.4,0.6-0.6
		c0.1-0.2,0.2-0.4,0.2-0.7c0-0.2,0-0.4,0-0.5V18.6z"/>
	<path class="st0" d="M44.8,15.7c-0.4,0-0.7,0.1-1,0.3s-0.5,0.4-0.6,0.7c-0.2,0.3-0.3,0.6-0.4,0.9s-0.1,0.7-0.1,1c0,0.3,0,0.6,0.1,1
		c0.1,0.3,0.2,0.6,0.3,0.9c0.2,0.3,0.4,0.5,0.6,0.7c0.3,0.2,0.6,0.3,1,0.3c0.6,0,1-0.2,1.3-0.5c0.3-0.3,0.5-0.8,0.6-1.3H49
		c-0.2,1.2-0.6,2.1-1.4,2.7s-1.7,0.9-2.9,0.9c-0.7,0-1.3-0.1-1.8-0.3c-0.6-0.2-1-0.5-1.4-0.9c-0.4-0.4-0.7-0.9-0.9-1.4
		c-0.2-0.6-0.3-1.2-0.3-1.8c0-0.7,0.1-1.3,0.3-1.9c0.2-0.6,0.5-1.1,0.9-1.5s0.9-0.8,1.4-1c0.6-0.2,1.2-0.4,1.9-0.4
		c0.5,0,1,0.1,1.5,0.2c0.5,0.1,0.9,0.3,1.3,0.6c0.4,0.3,0.7,0.6,0.9,1c0.2,0.4,0.4,0.9,0.4,1.5h-2.4C46.4,16.2,45.8,15.7,44.8,15.7z
		"/>
	<path class="st0" d="M55.2,14.1v1.6h-1.8v4.4c0,0.4,0.1,0.7,0.2,0.8c0.1,0.1,0.4,0.2,0.8,0.2c0.1,0,0.3,0,0.4,0
		c0.1,0,0.2,0,0.4-0.1v1.9C55,23,54.8,23,54.6,23c-0.3,0-0.5,0-0.7,0c-0.4,0-0.7,0-1.1-0.1c-0.3-0.1-0.6-0.2-0.9-0.3
		c-0.3-0.1-0.5-0.4-0.6-0.6c-0.1-0.3-0.2-0.6-0.2-1.1v-5.2h-1.5v-1.6H51v-2.7h2.4v2.7H55.2z"/>
	<path class="st0" d="M56.5,12.7v-2h2.4v2H56.5z M58.9,14.1v8.8h-2.4v-8.8H58.9z"/>
	<path class="st0" d="M65,15.7c-0.4,0-0.7,0.1-1,0.3s-0.5,0.4-0.6,0.7c-0.2,0.3-0.3,0.6-0.4,0.9s-0.1,0.7-0.1,1c0,0.3,0,0.6,0.1,1
		c0.1,0.3,0.2,0.6,0.3,0.9c0.2,0.3,0.4,0.5,0.6,0.7c0.3,0.2,0.6,0.3,1,0.3c0.6,0,1-0.2,1.3-0.5c0.3-0.3,0.5-0.8,0.6-1.3h2.3
		c-0.2,1.2-0.6,2.1-1.4,2.7s-1.7,0.9-2.9,0.9c-0.7,0-1.3-0.1-1.8-0.3c-0.6-0.2-1-0.5-1.4-0.9c-0.4-0.4-0.7-0.9-0.9-1.4
		c-0.2-0.6-0.3-1.2-0.3-1.8c0-0.7,0.1-1.3,0.3-1.9c0.2-0.6,0.5-1.1,0.9-1.5s0.9-0.8,1.4-1c0.6-0.2,1.2-0.4,1.9-0.4
		c0.5,0,1,0.1,1.5,0.2c0.5,0.1,0.9,0.3,1.3,0.6c0.4,0.3,0.7,0.6,0.9,1c0.2,0.4,0.4,0.9,0.4,1.5h-2.4C66.7,16.2,66.1,15.7,65,15.7z"
		/>
	<path class="st0" d="M70.5,16.8c0-0.6,0.2-1,0.4-1.4c0.3-0.4,0.6-0.7,1-0.9c0.4-0.2,0.8-0.4,1.3-0.5c0.5-0.1,1-0.1,1.5-0.1
		c0.4,0,0.9,0,1.4,0.1s0.9,0.2,1.2,0.4c0.4,0.2,0.7,0.4,0.9,0.8c0.2,0.3,0.4,0.8,0.4,1.3V21c0,0.4,0,0.8,0.1,1.1
		c0,0.4,0.1,0.6,0.2,0.8h-2.5c0-0.1-0.1-0.3-0.1-0.4s0-0.3-0.1-0.4c-0.4,0.4-0.8,0.7-1.4,0.8s-1.1,0.2-1.6,0.2
		c-0.4,0-0.8-0.1-1.2-0.2s-0.7-0.3-1-0.5c-0.3-0.2-0.5-0.5-0.6-0.8s-0.2-0.7-0.2-1.2c0-0.5,0.1-0.9,0.3-1.2s0.4-0.6,0.7-0.8
		c0.3-0.2,0.6-0.3,1-0.4c0.4-0.1,0.7-0.2,1.1-0.2s0.7-0.1,1.1-0.1s0.7-0.1,0.9-0.2c0.3-0.1,0.5-0.2,0.6-0.3c0.2-0.1,0.2-0.3,0.2-0.6
		c0-0.3,0-0.5-0.1-0.6c-0.1-0.2-0.2-0.3-0.3-0.4s-0.3-0.1-0.5-0.2c-0.2,0-0.4,0-0.6,0c-0.5,0-0.9,0.1-1.1,0.3
		c-0.3,0.2-0.4,0.5-0.5,1H70.5z M76.1,18.6c-0.1,0.1-0.2,0.2-0.4,0.2s-0.3,0.1-0.5,0.1S74.9,19,74.7,19c-0.2,0-0.4,0.1-0.6,0.1
		c-0.2,0-0.4,0.1-0.5,0.1s-0.3,0.1-0.5,0.2c-0.1,0.1-0.2,0.2-0.3,0.4c-0.1,0.1-0.1,0.3-0.1,0.6c0,0.2,0,0.4,0.1,0.5
		c0.1,0.1,0.2,0.3,0.3,0.4c0.1,0.1,0.3,0.1,0.5,0.2c0.2,0,0.4,0.1,0.6,0.1c0.5,0,0.8-0.1,1.1-0.2c0.3-0.2,0.5-0.4,0.6-0.6
		c0.1-0.2,0.2-0.4,0.2-0.7c0-0.2,0-0.4,0-0.5V18.6z"/>
	<path class="st0" d="M83,10.7v12.2h-2.4V10.7H83z"/>
	<path class="st0" d="M98.8,22.9l-2.1-8.3h0l-2,8.3H92l-3.2-12.2h2.7l1.9,8.3h0l2.1-8.3H98l2.1,8.4h0l2-8.4h2.6l-3.3,12.2H98.8z"/>
	<path class="st0" d="M105.8,12.7v-2h2.4v2H105.8z M108.3,14.1v8.8h-2.4v-8.8H108.3z"/>
	<path class="st0" d="M112.2,20.7c0.1,0.2,0.2,0.3,0.4,0.5c0.2,0.1,0.4,0.2,0.6,0.3c0.2,0.1,0.5,0.1,0.7,0.1c0.2,0,0.4,0,0.5-0.1
		c0.2,0,0.4-0.1,0.5-0.2c0.2-0.1,0.3-0.2,0.4-0.3s0.2-0.3,0.2-0.5c0-0.4-0.2-0.6-0.7-0.8c-0.5-0.2-1.2-0.4-2-0.5
		c-0.4-0.1-0.7-0.2-1-0.3c-0.3-0.1-0.6-0.3-0.9-0.4c-0.3-0.2-0.5-0.4-0.6-0.7c-0.2-0.3-0.2-0.6-0.2-1c0-0.6,0.1-1,0.3-1.4
		c0.2-0.4,0.5-0.7,0.9-0.9c0.4-0.2,0.8-0.4,1.2-0.4c0.5-0.1,0.9-0.1,1.4-0.1s0.9,0,1.4,0.1c0.5,0.1,0.9,0.2,1.2,0.5
		c0.4,0.2,0.6,0.5,0.9,0.9c0.2,0.4,0.4,0.8,0.4,1.4h-2.3c0-0.5-0.2-0.8-0.5-0.9c-0.3-0.2-0.7-0.2-1.1-0.2c-0.1,0-0.3,0-0.4,0
		s-0.3,0.1-0.4,0.1c-0.1,0.1-0.2,0.1-0.3,0.2c-0.1,0.1-0.1,0.3-0.1,0.4c0,0.2,0.1,0.4,0.2,0.5s0.4,0.2,0.6,0.3
		c0.3,0.1,0.5,0.2,0.9,0.2c0.3,0.1,0.7,0.1,1,0.2c0.4,0.1,0.7,0.2,1,0.3c0.3,0.1,0.6,0.3,0.9,0.5c0.3,0.2,0.5,0.4,0.6,0.7
		s0.2,0.6,0.2,1c0,0.6-0.1,1.1-0.4,1.5s-0.5,0.7-0.9,0.9c-0.4,0.2-0.8,0.4-1.3,0.5c-0.5,0.1-1,0.1-1.5,0.1c-0.5,0-1-0.1-1.5-0.2
		c-0.5-0.1-0.9-0.3-1.3-0.5c-0.4-0.2-0.7-0.6-0.9-0.9s-0.4-0.9-0.4-1.5h2.3C112.1,20.3,112.1,20.5,112.2,20.7z"/>
	<path class="st0" d="M125.6,21.8c-0.3,0.5-0.7,0.8-1.1,1s-1,0.3-1.6,0.3c-0.7,0-1.2-0.1-1.7-0.4c-0.5-0.3-0.9-0.6-1.2-1
		c-0.3-0.4-0.6-0.9-0.7-1.5c-0.2-0.6-0.2-1.2-0.2-1.8c0-0.6,0.1-1.2,0.2-1.7c0.2-0.6,0.4-1,0.7-1.5c0.3-0.4,0.7-0.8,1.2-1
		c0.5-0.3,1.1-0.4,1.7-0.4c0.5,0,1,0.1,1.5,0.3s0.8,0.6,1.1,1h0v-4.4h2.4v12.2h-2.3L125.6,21.8L125.6,21.8z M125.5,17.4
		c-0.1-0.3-0.2-0.6-0.4-0.9c-0.2-0.3-0.4-0.5-0.6-0.6c-0.3-0.2-0.6-0.2-1-0.2c-0.4,0-0.7,0.1-1,0.2c-0.3,0.2-0.5,0.4-0.7,0.6
		c-0.2,0.3-0.3,0.6-0.4,0.9s-0.1,0.7-0.1,1.1c0,0.3,0,0.7,0.1,1c0.1,0.3,0.2,0.6,0.4,0.9c0.2,0.3,0.4,0.5,0.7,0.6
		c0.3,0.2,0.6,0.2,1,0.2c0.4,0,0.7-0.1,1-0.2s0.5-0.4,0.6-0.6c0.2-0.3,0.3-0.6,0.3-0.9c0.1-0.3,0.1-0.7,0.1-1.1
		C125.6,18.1,125.6,17.8,125.5,17.4z"/>
	<path class="st0" d="M129.9,16.6c0.2-0.6,0.5-1.1,0.9-1.5c0.4-0.4,0.9-0.7,1.4-0.9c0.6-0.2,1.2-0.3,1.9-0.3c0.7,0,1.3,0.1,1.9,0.3
		s1,0.5,1.4,0.9c0.4,0.4,0.7,0.9,0.9,1.5c0.2,0.6,0.3,1.2,0.3,1.9s-0.1,1.3-0.3,1.9c-0.2,0.6-0.5,1.1-0.9,1.5
		c-0.4,0.4-0.9,0.7-1.4,0.9c-0.6,0.2-1.2,0.3-1.9,0.3c-0.7,0-1.3-0.1-1.9-0.3c-0.6-0.2-1-0.5-1.4-0.9c-0.4-0.4-0.7-0.9-0.9-1.5
		c-0.2-0.6-0.3-1.2-0.3-1.9S129.7,17.2,129.9,16.6z M132.1,19.5c0.1,0.3,0.2,0.6,0.4,0.9c0.2,0.3,0.4,0.5,0.7,0.6
		c0.3,0.2,0.6,0.2,1,0.2s0.8-0.1,1-0.2c0.3-0.2,0.5-0.4,0.7-0.6c0.2-0.3,0.3-0.6,0.4-0.9s0.1-0.7,0.1-1c0-0.4,0-0.7-0.1-1
		c-0.1-0.3-0.2-0.6-0.4-0.9c-0.2-0.3-0.4-0.5-0.7-0.6c-0.3-0.2-0.6-0.2-1-0.2s-0.8,0.1-1,0.2c-0.3,0.2-0.5,0.4-0.7,0.6
		c-0.2,0.3-0.3,0.6-0.4,0.9c-0.1,0.3-0.1,0.7-0.1,1C132,18.9,132,19.2,132.1,19.5z"/>
	<path class="st0" d="M142.6,14.1v1.2h0c0.3-0.5,0.7-0.8,1.2-1.1c0.5-0.3,1-0.4,1.5-0.4c0.6,0,1.1,0.1,1.5,0.3
		c0.5,0.2,0.8,0.6,1.1,1.1c0.3-0.4,0.6-0.7,1.1-1s1-0.4,1.6-0.4c0.5,0,0.9,0.1,1.3,0.2c0.4,0.1,0.7,0.3,1,0.5c0.3,0.3,0.5,0.6,0.7,1
		c0.2,0.4,0.2,0.9,0.2,1.5v5.9h-2.4v-5c0-0.3,0-0.6,0-0.8s-0.1-0.5-0.2-0.7c-0.1-0.2-0.3-0.3-0.5-0.5c-0.2-0.1-0.5-0.2-0.8-0.2
		s-0.6,0.1-0.8,0.2c-0.2,0.1-0.4,0.3-0.5,0.5s-0.2,0.5-0.2,0.7c0,0.3-0.1,0.5-0.1,0.8v4.9h-2.4v-5c0-0.3,0-0.5,0-0.8
		c0-0.3-0.1-0.5-0.1-0.7s-0.2-0.4-0.4-0.5c-0.2-0.1-0.5-0.2-0.9-0.2c-0.1,0-0.3,0-0.5,0.1c-0.2,0.1-0.4,0.1-0.5,0.3
		c-0.2,0.1-0.3,0.3-0.5,0.6s-0.2,0.6-0.2,1.1v5.1h-2.4v-8.8H142.6z"/>
</g>
<g>
	<path class="st0" d="M11.8,32.8v-1.6h1.5v-0.7c0-0.8,0.2-1.4,0.7-1.9c0.5-0.5,1.2-0.8,2.2-0.8c0.2,0,0.4,0,0.6,0c0.2,0,0.4,0,0.6,0
		v1.8c-0.3,0-0.6-0.1-0.9-0.1c-0.3,0-0.6,0.1-0.7,0.2c-0.1,0.2-0.2,0.4-0.2,0.8v0.5h1.7v1.6h-1.7V40h-2.4v-7.2H11.8z"/>
	<path class="st0" d="M18.4,33.7c0.2-0.6,0.5-1.1,0.9-1.5c0.4-0.4,0.9-0.7,1.4-0.9c0.6-0.2,1.2-0.3,1.9-0.3c0.7,0,1.3,0.1,1.9,0.3
		s1,0.5,1.4,0.9c0.4,0.4,0.7,0.9,0.9,1.5c0.2,0.6,0.3,1.2,0.3,1.9s-0.1,1.3-0.3,1.9c-0.2,0.6-0.5,1.1-0.9,1.5
		c-0.4,0.4-0.9,0.7-1.4,0.9s-1.2,0.3-1.9,0.3c-0.7,0-1.3-0.1-1.9-0.3c-0.6-0.2-1-0.5-1.4-0.9c-0.4-0.4-0.7-0.9-0.9-1.5
		c-0.2-0.6-0.3-1.2-0.3-1.9S18.2,34.3,18.4,33.7z M20.6,36.7c0.1,0.3,0.2,0.6,0.4,0.9c0.2,0.3,0.4,0.5,0.7,0.6
		c0.3,0.2,0.6,0.2,1,0.2s0.8-0.1,1-0.2c0.3-0.2,0.5-0.4,0.7-0.6c0.2-0.3,0.3-0.6,0.4-0.9c0.1-0.3,0.1-0.7,0.1-1s0-0.7-0.1-1
		c-0.1-0.3-0.2-0.6-0.4-0.9c-0.2-0.3-0.4-0.5-0.7-0.6c-0.3-0.2-0.6-0.2-1-0.2s-0.8,0.1-1,0.2c-0.3,0.2-0.5,0.4-0.7,0.6
		c-0.2,0.3-0.3,0.6-0.4,0.9c-0.1,0.3-0.1,0.7-0.1,1S20.6,36.3,20.6,36.7z"/>
	<path class="st0" d="M31.1,31.2v1.6h0c0.1-0.3,0.3-0.5,0.5-0.8c0.2-0.2,0.4-0.4,0.7-0.6c0.3-0.2,0.5-0.3,0.8-0.4
		c0.3-0.1,0.6-0.1,0.9-0.1c0.2,0,0.3,0,0.5,0.1v2.3c-0.1,0-0.3,0-0.4-0.1c-0.2,0-0.3,0-0.5,0c-0.4,0-0.8,0.1-1.1,0.2
		c-0.3,0.1-0.6,0.4-0.7,0.6c-0.2,0.3-0.3,0.6-0.4,0.9c-0.1,0.3-0.1,0.7-0.1,1.1v4h-2.4v-8.8H31.1z"/>
	<path class="st0" d="M45.8,27.8c0.8,0,1.5,0.1,2.2,0.4c0.7,0.3,1.3,0.6,1.8,1.1c0.5,0.5,0.9,1.1,1.2,1.9c0.3,0.8,0.4,1.6,0.4,2.7
		c0,0.9-0.1,1.7-0.3,2.5c-0.2,0.8-0.6,1.4-1,2c-0.5,0.5-1,1-1.7,1.3c-0.7,0.3-1.5,0.5-2.4,0.5h-5.3V27.8H45.8z M45.6,37.8
		c0.4,0,0.8-0.1,1.1-0.2c0.4-0.1,0.7-0.3,1-0.6c0.3-0.3,0.5-0.7,0.7-1.1c0.2-0.5,0.3-1,0.3-1.7c0-0.6-0.1-1.2-0.2-1.7
		c-0.1-0.5-0.3-0.9-0.6-1.3c-0.3-0.4-0.6-0.6-1.1-0.8c-0.5-0.2-1-0.3-1.7-0.3h-1.9v7.7H45.6z"/>
	<path class="st0" d="M55.5,37.9c0.4,0.4,0.9,0.5,1.6,0.5c0.5,0,0.9-0.1,1.3-0.4s0.6-0.5,0.6-0.8h2.1c-0.3,1.1-0.9,1.8-1.6,2.3
		S58,40.3,57,40.3c-0.7,0-1.3-0.1-1.9-0.3c-0.6-0.2-1-0.5-1.4-0.9s-0.7-0.9-0.9-1.5s-0.3-1.2-0.3-1.9c0-0.7,0.1-1.3,0.3-1.8
		c0.2-0.6,0.5-1.1,0.9-1.5c0.4-0.4,0.9-0.7,1.4-1c0.6-0.2,1.2-0.4,1.8-0.4c0.8,0,1.4,0.1,2,0.4s1,0.7,1.4,1.2c0.4,0.5,0.6,1,0.8,1.7
		c0.2,0.6,0.2,1.3,0.2,2h-6.4C55,37,55.2,37.6,55.5,37.9z M58.3,33.3c-0.3-0.3-0.7-0.5-1.3-0.5c-0.4,0-0.7,0.1-1,0.2
		c-0.3,0.1-0.5,0.3-0.6,0.5c-0.2,0.2-0.3,0.4-0.3,0.6c-0.1,0.2-0.1,0.4-0.1,0.6h4C58.8,34,58.6,33.6,58.3,33.3z"/>
	<path class="st0" d="M65,31.2v1.2h0.1c0.3-0.5,0.7-0.9,1.2-1.1c0.5-0.2,1-0.4,1.5-0.4c0.6,0,1.2,0.1,1.6,0.3c0.4,0.2,0.7,0.4,1,0.7
		c0.2,0.3,0.4,0.7,0.5,1.1C71,33.5,71,34,71,34.6V40h-2.4v-5c0-0.7-0.1-1.3-0.3-1.6s-0.6-0.5-1.2-0.5c-0.7,0-1.1,0.2-1.4,0.6
		c-0.3,0.4-0.4,1-0.4,1.9V40h-2.4v-8.8H65z"/>
	<path class="st0" d="M77.7,31.2v1.6H76v4.4c0,0.4,0.1,0.7,0.2,0.8c0.1,0.1,0.4,0.2,0.8,0.2c0.1,0,0.3,0,0.4,0c0.1,0,0.2,0,0.4-0.1
		V40c-0.2,0-0.4,0.1-0.7,0.1c-0.3,0-0.5,0-0.7,0c-0.4,0-0.7,0-1.1-0.1c-0.3-0.1-0.6-0.2-0.9-0.3c-0.3-0.1-0.5-0.4-0.6-0.6
		c-0.1-0.3-0.2-0.6-0.2-1.1v-5.2h-1.5v-1.6h1.5v-2.7H76v2.7H77.7z"/>
	<path class="st0" d="M79,29.8v-2h2.4v2H79z M81.4,31.2V40H79v-8.8H81.4z"/>
	<path class="st0" d="M85.4,37.8c0.1,0.2,0.2,0.3,0.4,0.5c0.2,0.1,0.4,0.2,0.6,0.3c0.2,0.1,0.5,0.1,0.7,0.1c0.2,0,0.4,0,0.5-0.1
		c0.2,0,0.4-0.1,0.5-0.2c0.2-0.1,0.3-0.2,0.4-0.3s0.2-0.3,0.2-0.5c0-0.4-0.2-0.6-0.7-0.8c-0.5-0.2-1.2-0.4-2-0.5
		c-0.4-0.1-0.7-0.2-1-0.3c-0.3-0.1-0.6-0.3-0.9-0.4c-0.3-0.2-0.5-0.4-0.6-0.7c-0.2-0.3-0.2-0.6-0.2-1c0-0.6,0.1-1,0.3-1.4
		c0.2-0.4,0.5-0.7,0.9-0.9c0.4-0.2,0.8-0.4,1.2-0.4c0.5-0.1,0.9-0.1,1.4-0.1s0.9,0,1.4,0.1c0.5,0.1,0.9,0.2,1.2,0.5
		c0.4,0.2,0.6,0.5,0.9,0.9c0.2,0.4,0.4,0.8,0.4,1.4h-2.3c0-0.5-0.2-0.8-0.5-0.9c-0.3-0.2-0.7-0.2-1.1-0.2c-0.1,0-0.3,0-0.4,0
		c-0.2,0-0.3,0.1-0.4,0.1c-0.1,0.1-0.2,0.1-0.3,0.2c-0.1,0.1-0.1,0.3-0.1,0.4c0,0.2,0.1,0.4,0.2,0.5s0.4,0.2,0.6,0.3
		c0.3,0.1,0.5,0.2,0.9,0.2c0.3,0.1,0.7,0.1,1,0.2c0.4,0.1,0.7,0.2,1,0.3c0.3,0.1,0.6,0.3,0.9,0.5c0.3,0.2,0.5,0.4,0.6,0.7
		s0.2,0.6,0.2,1c0,0.6-0.1,1.1-0.4,1.5s-0.5,0.7-0.9,0.9S89,40,88.5,40.1s-1,0.1-1.5,0.1c-0.5,0-1-0.1-1.5-0.2
		c-0.5-0.1-0.9-0.3-1.3-0.5c-0.4-0.2-0.7-0.6-0.9-0.9c-0.2-0.4-0.4-0.9-0.4-1.5h2.3C85.2,37.4,85.3,37.6,85.4,37.8z"/>
	<path class="st0" d="M97.4,31.2v1.6h-1.8v4.4c0,0.4,0.1,0.7,0.2,0.8c0.1,0.1,0.4,0.2,0.8,0.2c0.1,0,0.3,0,0.4,0
		c0.1,0,0.2,0,0.4-0.1V40c-0.2,0-0.4,0.1-0.7,0.1c-0.3,0-0.5,0-0.7,0c-0.4,0-0.7,0-1.1-0.1c-0.3-0.1-0.6-0.2-0.9-0.3
		c-0.3-0.1-0.5-0.4-0.6-0.6c-0.1-0.3-0.2-0.6-0.2-1.1v-5.2h-1.5v-1.6h1.5v-2.7h2.4v2.7H97.4z"/>
	<path class="st0" d="M100.6,37.8c0.1,0.2,0.2,0.3,0.4,0.5c0.2,0.1,0.4,0.2,0.6,0.3c0.2,0.1,0.5,0.1,0.7,0.1c0.2,0,0.4,0,0.5-0.1
		c0.2,0,0.4-0.1,0.5-0.2c0.2-0.1,0.3-0.2,0.4-0.3s0.2-0.3,0.2-0.5c0-0.4-0.2-0.6-0.7-0.8c-0.5-0.2-1.2-0.4-2-0.5
		c-0.4-0.1-0.7-0.2-1-0.3c-0.3-0.1-0.6-0.3-0.9-0.4c-0.3-0.2-0.5-0.4-0.6-0.7c-0.2-0.3-0.2-0.6-0.2-1c0-0.6,0.1-1,0.3-1.4
		c0.2-0.4,0.5-0.7,0.9-0.9c0.4-0.2,0.8-0.4,1.2-0.4c0.5-0.1,0.9-0.1,1.4-0.1s0.9,0,1.4,0.1c0.5,0.1,0.9,0.2,1.2,0.5
		c0.4,0.2,0.6,0.5,0.9,0.9c0.2,0.4,0.4,0.8,0.4,1.4h-2.3c0-0.5-0.2-0.8-0.5-0.9c-0.3-0.2-0.7-0.2-1.1-0.2c-0.1,0-0.3,0-0.4,0
		c-0.2,0-0.3,0.1-0.4,0.1c-0.1,0.1-0.2,0.1-0.3,0.2c-0.1,0.1-0.1,0.3-0.1,0.4c0,0.2,0.1,0.4,0.2,0.5s0.4,0.2,0.6,0.3
		c0.3,0.1,0.5,0.2,0.9,0.2c0.3,0.1,0.7,0.1,1,0.2c0.4,0.1,0.7,0.2,1,0.3c0.3,0.1,0.6,0.3,0.9,0.5c0.3,0.2,0.5,0.4,0.6,0.7
		s0.2,0.6,0.2,1c0,0.6-0.1,1.1-0.4,1.5s-0.5,0.7-0.9,0.9s-0.8,0.4-1.3,0.5s-1,0.1-1.5,0.1c-0.5,0-1-0.1-1.5-0.2
		c-0.5-0.1-0.9-0.3-1.3-0.5c-0.4-0.2-0.7-0.6-0.9-0.9c-0.2-0.4-0.4-0.9-0.4-1.5h2.3C100.4,37.4,100.5,37.6,100.6,37.8z"/>
</g>
</svg>
