<?xml version="1.0" encoding="utf-8"?>
<!-- Generator: Adobe Illustrator 25.4.1, SVG Export Plug-In . SVG Version: 6.00 Build 0)  -->
<svg version="1.1" id="Layer_1" xmlns="http://www.w3.org/2000/svg" xmlns:xlink="http://www.w3.org/1999/xlink" x="0px" y="0px"
	 viewBox="0 0 300 50" style="enable-background:new 0 0 300 50;" xml:space="preserve">
<style type="text/css">
	.st0{fill:#349946;}
</style>
<g>
	<path d="M19.2,8.5v1.9h-5.5v2.2h5v1.8h-5v2.5h5.6v1.9h-7.9V8.5H19.2z"/>
	<path d="M22.5,18.8L20,11.3h2.2l1.6,5.1h0l1.6-5.1h2l-2.5,7.5H22.5z"/>
	<path d="M30.4,17c0.3,0.3,0.8,0.4,1.3,0.4c0.4,0,0.8-0.1,1.1-0.3c0.3-0.2,0.5-0.4,0.6-0.7h1.8c-0.3,0.9-0.7,1.5-1.3,1.9
		c-0.6,0.4-1.3,0.6-2.2,0.6c-0.6,0-1.1-0.1-1.6-0.3s-0.9-0.5-1.2-0.8c-0.3-0.3-0.6-0.8-0.8-1.2c-0.2-0.5-0.3-1-0.3-1.6
		c0-0.6,0.1-1.1,0.3-1.6c0.2-0.5,0.4-0.9,0.8-1.3c0.3-0.4,0.7-0.6,1.2-0.8c0.5-0.2,1-0.3,1.6-0.3c0.6,0,1.2,0.1,1.7,0.4
		c0.5,0.2,0.9,0.6,1.2,1c0.3,0.4,0.5,0.9,0.7,1.4s0.2,1.1,0.1,1.7h-5.4C29.9,16.2,30.1,16.7,30.4,17z M32.7,13.1
		c-0.2-0.3-0.6-0.4-1.1-0.4c-0.3,0-0.6,0.1-0.8,0.2c-0.2,0.1-0.4,0.2-0.5,0.4c-0.1,0.2-0.2,0.3-0.3,0.5c-0.1,0.2-0.1,0.3-0.1,0.5
		h3.3C33.1,13.7,33,13.3,32.7,13.1z"/>
	<path d="M38.5,11.3v1h0c0.3-0.4,0.6-0.8,1-0.9c0.4-0.2,0.8-0.3,1.3-0.3c0.6,0,1,0.1,1.4,0.2c0.4,0.1,0.6,0.4,0.8,0.6
		c0.2,0.3,0.3,0.6,0.4,1c0.1,0.4,0.1,0.8,0.1,1.3v4.6h-2.1v-4.2c0-0.6-0.1-1.1-0.3-1.4c-0.2-0.3-0.5-0.5-1-0.5c-0.6,0-1,0.2-1.2,0.5
		c-0.3,0.3-0.4,0.9-0.4,1.6v3.9h-2.1v-7.5H38.5z"/>
	<path d="M53.3,11.3v1.4h-1.5v3.7c0,0.3,0.1,0.6,0.2,0.7c0.1,0.1,0.3,0.2,0.7,0.2c0.1,0,0.2,0,0.3,0c0.1,0,0.2,0,0.3,0v1.6
		c-0.2,0-0.4,0-0.6,0.1c-0.2,0-0.4,0-0.6,0c-0.3,0-0.6,0-0.9-0.1s-0.5-0.1-0.8-0.3c-0.2-0.1-0.4-0.3-0.5-0.5s-0.2-0.5-0.2-0.9v-4.4
		h-1.2v-1.4h1.2V9.1h2.1v2.2H53.3z"/>
	<path d="M56.3,8.5v3.9h0c0.3-0.4,0.6-0.8,1-0.9c0.4-0.2,0.8-0.3,1.2-0.3c0.6,0,1,0.1,1.4,0.2c0.4,0.1,0.6,0.4,0.8,0.6
		c0.2,0.3,0.3,0.6,0.4,1c0.1,0.4,0.1,0.8,0.1,1.3v4.6h-2.1v-4.2c0-0.6-0.1-1.1-0.3-1.4c-0.2-0.3-0.5-0.5-1-0.5c-0.6,0-1,0.2-1.2,0.5
		c-0.3,0.3-0.4,0.9-0.4,1.6v3.9h-2.1V8.5H56.3z"/>
	<path d="M65,17c0.3,0.3,0.8,0.4,1.3,0.4c0.4,0,0.8-0.1,1.1-0.3c0.3-0.2,0.5-0.4,0.6-0.7h1.8c-0.3,0.9-0.7,1.5-1.3,1.9
		c-0.6,0.4-1.3,0.6-2.2,0.6c-0.6,0-1.1-0.1-1.6-0.3s-0.9-0.5-1.2-0.8c-0.3-0.3-0.6-0.8-0.8-1.2c-0.2-0.5-0.3-1-0.3-1.6
		c0-0.6,0.1-1.1,0.3-1.6c0.2-0.5,0.4-0.9,0.8-1.3c0.3-0.4,0.7-0.6,1.2-0.8c0.5-0.2,1-0.3,1.6-0.3c0.6,0,1.2,0.1,1.7,0.4
		c0.5,0.2,0.9,0.6,1.2,1c0.3,0.4,0.5,0.9,0.7,1.4s0.2,1.1,0.1,1.7h-5.4C64.6,16.2,64.7,16.7,65,17z M67.4,13.1
		c-0.2-0.3-0.6-0.4-1.1-0.4c-0.3,0-0.6,0.1-0.8,0.2c-0.2,0.1-0.4,0.2-0.5,0.4c-0.1,0.2-0.2,0.3-0.3,0.5c-0.1,0.2-0.1,0.3-0.1,0.5
		h3.3C67.8,13.7,67.6,13.3,67.4,13.1z"/>
	<path d="M80.3,8.5c0.5,0,0.9,0,1.3,0.1c0.4,0.1,0.8,0.2,1,0.4c0.3,0.2,0.5,0.5,0.7,0.8c0.2,0.3,0.2,0.7,0.2,1.2
		c0,0.5-0.1,1-0.4,1.3c-0.2,0.3-0.6,0.6-1.1,0.9c0.6,0.2,1.1,0.5,1.4,1c0.3,0.5,0.5,1,0.5,1.7c0,0.5-0.1,1-0.3,1.4
		c-0.2,0.4-0.5,0.7-0.8,0.9c-0.3,0.2-0.7,0.4-1.2,0.5c-0.4,0.1-0.9,0.2-1.4,0.2h-5V8.5H80.3z M80,12.6c0.4,0,0.7-0.1,1-0.3
		s0.4-0.5,0.4-0.9c0-0.2,0-0.4-0.1-0.6c-0.1-0.2-0.2-0.3-0.3-0.4s-0.3-0.1-0.5-0.2c-0.2,0-0.4-0.1-0.6-0.1h-2.1v2.4H80z M80.1,17
		c0.2,0,0.4,0,0.6-0.1c0.2,0,0.4-0.1,0.5-0.2c0.2-0.1,0.3-0.2,0.4-0.4c0.1-0.2,0.1-0.4,0.1-0.7c0-0.5-0.1-0.9-0.4-1.1
		s-0.7-0.3-1.2-0.3h-2.5V17H80.1z"/>
	<path d="M93.3,8.5v1.9h-5.5v2.2h5v1.8h-5v2.5h5.6v1.9h-7.9V8.5H93.3z"/>
	<path d="M96.7,16.3c0.1,0.2,0.3,0.4,0.5,0.6s0.5,0.3,0.7,0.3c0.3,0.1,0.6,0.1,0.9,0.1c0.2,0,0.4,0,0.7-0.1s0.4-0.1,0.7-0.2
		c0.2-0.1,0.4-0.2,0.5-0.4c0.1-0.2,0.2-0.4,0.2-0.6c0-0.3-0.1-0.5-0.3-0.7c-0.2-0.2-0.4-0.3-0.7-0.4c-0.3-0.1-0.6-0.2-1-0.3
		s-0.7-0.2-1.1-0.3c-0.4-0.1-0.8-0.2-1.1-0.4s-0.7-0.3-1-0.5c-0.3-0.2-0.5-0.5-0.7-0.8c-0.2-0.3-0.3-0.7-0.3-1.2
		c0-0.5,0.1-1,0.3-1.4s0.5-0.7,0.9-1s0.8-0.5,1.2-0.6c0.5-0.1,0.9-0.2,1.4-0.2c0.5,0,1.1,0.1,1.6,0.2s0.9,0.3,1.3,0.6
		c0.4,0.3,0.7,0.6,0.9,1c0.2,0.4,0.3,0.9,0.3,1.5h-2.2c0-0.3-0.1-0.6-0.2-0.8c-0.1-0.2-0.3-0.4-0.4-0.5c-0.2-0.1-0.4-0.2-0.6-0.2
		C99,10,98.7,10,98.5,10c-0.2,0-0.4,0-0.6,0.1c-0.2,0-0.4,0.1-0.5,0.2s-0.3,0.2-0.4,0.4c-0.1,0.1-0.1,0.3-0.1,0.6
		c0,0.2,0,0.4,0.1,0.5s0.2,0.2,0.5,0.3s0.5,0.2,0.9,0.3s0.9,0.2,1.6,0.4c0.2,0,0.5,0.1,0.8,0.2c0.3,0.1,0.7,0.3,1,0.5
		c0.3,0.2,0.6,0.5,0.9,0.9c0.2,0.4,0.4,0.8,0.4,1.4c0,0.5-0.1,0.9-0.3,1.3s-0.5,0.8-0.8,1.1c-0.4,0.3-0.8,0.5-1.3,0.7
		c-0.5,0.2-1.2,0.2-1.9,0.2c-0.6,0-1.1-0.1-1.7-0.2c-0.5-0.1-1-0.4-1.4-0.7c-0.4-0.3-0.7-0.7-1-1.1c-0.2-0.5-0.4-1-0.3-1.7h2.2
		C96.5,15.7,96.6,16,96.7,16.3z"/>
	<path d="M103.6,10.4V8.5h8.5v1.9H109v8.4h-2.3v-8.4H103.6z"/>
	<path d="M115.5,14v1.8h-4.4V14H115.5z"/>
	<path d="M119.2,8.5v10.3h-2.1V8.5H119.2z"/>
	<path d="M120.7,13.6c0-0.5,0.1-0.9,0.4-1.2c0.2-0.3,0.5-0.6,0.8-0.8c0.3-0.2,0.7-0.3,1.1-0.4s0.8-0.1,1.2-0.1c0.4,0,0.8,0,1.1,0.1
		s0.7,0.2,1.1,0.3c0.3,0.2,0.6,0.4,0.8,0.6c0.2,0.3,0.3,0.6,0.3,1.1v3.9c0,0.3,0,0.7,0.1,1c0,0.3,0.1,0.5,0.2,0.7h-2.1
		c0-0.1-0.1-0.2-0.1-0.4c0-0.1,0-0.2-0.1-0.4c-0.3,0.3-0.7,0.6-1.2,0.7S123.5,19,123,19c-0.4,0-0.7,0-1-0.1s-0.6-0.2-0.8-0.4
		s-0.4-0.4-0.5-0.7s-0.2-0.6-0.2-1c0-0.4,0.1-0.8,0.2-1.1c0.1-0.3,0.3-0.5,0.6-0.7c0.2-0.2,0.5-0.3,0.8-0.4c0.3-0.1,0.6-0.1,0.9-0.2
		c0.3,0,0.6-0.1,0.9-0.1c0.3,0,0.6-0.1,0.8-0.1c0.2-0.1,0.4-0.1,0.6-0.3s0.2-0.3,0.2-0.5c0-0.2,0-0.4-0.1-0.5
		c-0.1-0.1-0.2-0.2-0.3-0.3c-0.1-0.1-0.3-0.1-0.4-0.1c-0.2,0-0.3,0-0.5,0c-0.4,0-0.7,0.1-1,0.3s-0.4,0.5-0.4,0.9H120.7z M125.5,15.1
		c-0.1,0.1-0.2,0.1-0.3,0.2c-0.1,0-0.3,0.1-0.4,0.1c-0.1,0-0.3,0.1-0.5,0.1c-0.2,0-0.3,0-0.5,0.1c-0.2,0-0.3,0.1-0.5,0.1
		s-0.3,0.1-0.4,0.2c-0.1,0.1-0.2,0.2-0.3,0.3c-0.1,0.1-0.1,0.3-0.1,0.5c0,0.2,0,0.3,0.1,0.5c0.1,0.1,0.2,0.2,0.3,0.3
		c0.1,0.1,0.3,0.1,0.4,0.2c0.2,0,0.3,0,0.5,0c0.4,0,0.7-0.1,0.9-0.2s0.4-0.3,0.5-0.5s0.2-0.4,0.2-0.6c0-0.2,0-0.3,0-0.5V15.1z"/>
	<path d="M129.2,10.1V8.5h2.1v1.7H129.2z M131.2,11.3v7.5h-2.1v-7.5H131.2z"/>
	<path d="M138.2,17.8c-0.2,0.4-0.6,0.7-0.9,0.9c-0.4,0.2-0.8,0.3-1.3,0.3c-0.6,0-1.1-0.1-1.5-0.3c-0.4-0.2-0.8-0.5-1.1-0.9
		s-0.5-0.8-0.6-1.3c-0.1-0.5-0.2-1-0.2-1.5c0-0.5,0.1-1,0.2-1.5s0.3-0.9,0.6-1.2s0.6-0.6,1-0.9c0.4-0.2,0.9-0.3,1.4-0.3
		c0.4,0,0.9,0.1,1.3,0.3s0.7,0.5,0.9,0.8h0V8.5h2.1v10.3h-2L138.2,17.8L138.2,17.8z M138.1,14.1c-0.1-0.3-0.2-0.5-0.3-0.8
		s-0.3-0.4-0.5-0.5s-0.5-0.2-0.8-0.2c-0.3,0-0.6,0.1-0.9,0.2s-0.4,0.3-0.6,0.5s-0.2,0.5-0.3,0.8c-0.1,0.3-0.1,0.6-0.1,0.9
		c0,0.3,0,0.6,0.1,0.9c0.1,0.3,0.2,0.5,0.3,0.8c0.1,0.2,0.3,0.4,0.6,0.6s0.5,0.2,0.8,0.2c0.3,0,0.6-0.1,0.8-0.2
		c0.2-0.1,0.4-0.3,0.5-0.5c0.1-0.2,0.2-0.5,0.3-0.8c0.1-0.3,0.1-0.6,0.1-0.9S138.1,14.4,138.1,14.1z"/>
	<path d="M150.6,8.5c0.6,0,1.2,0.1,1.7,0.3s0.8,0.4,1.1,0.7s0.5,0.7,0.6,1.1c0.1,0.4,0.2,0.8,0.2,1.2c0,0.4-0.1,0.8-0.2,1.2
		c-0.1,0.4-0.3,0.8-0.6,1.1s-0.7,0.6-1.1,0.7c-0.5,0.2-1,0.3-1.7,0.3h-2.4v3.7H146V8.5H150.6z M150,13.3c0.3,0,0.5,0,0.8-0.1
		c0.2,0,0.5-0.1,0.6-0.2c0.2-0.1,0.3-0.3,0.4-0.5c0.1-0.2,0.2-0.5,0.2-0.8s-0.1-0.6-0.2-0.8c-0.1-0.2-0.3-0.4-0.4-0.5
		c-0.2-0.1-0.4-0.2-0.6-0.2c-0.2,0-0.5-0.1-0.8-0.1h-1.8v3.1H150z"/>
	<path d="M157.9,8.5v8.4h5v1.9h-7.3V8.5H157.9z"/>
	<path d="M169.4,8.5l3.9,10.3h-2.4l-0.8-2.3h-3.9l-0.8,2.3h-2.3L167,8.5H169.4z M169.5,14.8l-1.3-3.8h0l-1.3,3.8H169.5z"/>
	<path d="M176.4,8.5l4.3,6.9h0V8.5h2.1v10.3h-2.3l-4.3-6.9h0v6.9h-2.1V8.5H176.4z"/>
	<path d="M186.6,16.3c0.1,0.2,0.3,0.4,0.5,0.6c0.2,0.1,0.5,0.3,0.7,0.3c0.3,0.1,0.6,0.1,0.9,0.1c0.2,0,0.4,0,0.7-0.1
		c0.2,0,0.4-0.1,0.7-0.2c0.2-0.1,0.4-0.2,0.5-0.4c0.1-0.2,0.2-0.4,0.2-0.6c0-0.3-0.1-0.5-0.3-0.7c-0.2-0.2-0.4-0.3-0.7-0.4
		s-0.6-0.2-1-0.3s-0.7-0.2-1.1-0.3c-0.4-0.1-0.8-0.2-1.1-0.4c-0.4-0.1-0.7-0.3-1-0.5c-0.3-0.2-0.5-0.5-0.7-0.8
		c-0.2-0.3-0.3-0.7-0.3-1.2c0-0.5,0.1-1,0.3-1.4c0.2-0.4,0.5-0.7,0.9-1c0.4-0.3,0.8-0.5,1.2-0.6s0.9-0.2,1.4-0.2
		c0.5,0,1.1,0.1,1.6,0.2c0.5,0.1,0.9,0.3,1.3,0.6c0.4,0.3,0.7,0.6,0.9,1c0.2,0.4,0.3,0.9,0.3,1.5h-2.2c0-0.3-0.1-0.6-0.2-0.8
		c-0.1-0.2-0.3-0.4-0.4-0.5c-0.2-0.1-0.4-0.2-0.6-0.2c-0.2,0-0.5-0.1-0.8-0.1c-0.2,0-0.4,0-0.6,0.1c-0.2,0-0.4,0.1-0.5,0.2
		c-0.2,0.1-0.3,0.2-0.4,0.4s-0.1,0.3-0.1,0.6c0,0.2,0,0.4,0.1,0.5c0.1,0.1,0.2,0.2,0.5,0.3c0.2,0.1,0.5,0.2,0.9,0.3
		c0.4,0.1,0.9,0.2,1.6,0.4c0.2,0,0.5,0.1,0.8,0.2s0.7,0.3,1,0.5c0.3,0.2,0.6,0.5,0.9,0.9s0.4,0.8,0.4,1.4c0,0.5-0.1,0.9-0.3,1.3
		c-0.2,0.4-0.5,0.8-0.8,1.1c-0.4,0.3-0.8,0.5-1.3,0.7c-0.5,0.2-1.2,0.2-1.9,0.2c-0.6,0-1.1-0.1-1.7-0.2c-0.5-0.1-1-0.4-1.4-0.7
		c-0.4-0.3-0.7-0.7-1-1.1c-0.2-0.5-0.4-1-0.3-1.7h2.2C186.4,15.7,186.5,16,186.6,16.3z"/>
	<path d="M198.1,13.4c0.2-0.5,0.4-0.9,0.8-1.2s0.7-0.6,1.2-0.8c0.5-0.2,1-0.3,1.6-0.3c0.6,0,1.1,0.1,1.6,0.3
		c0.5,0.2,0.9,0.5,1.2,0.8c0.3,0.3,0.6,0.8,0.8,1.2s0.3,1,0.3,1.6s-0.1,1.1-0.3,1.6s-0.4,0.9-0.8,1.2c-0.3,0.3-0.7,0.6-1.2,0.8
		c-0.5,0.2-1,0.3-1.6,0.3c-0.6,0-1.1-0.1-1.6-0.3c-0.5-0.2-0.9-0.4-1.2-0.8c-0.3-0.3-0.6-0.8-0.8-1.2s-0.3-1-0.3-1.6
		S198,13.9,198.1,13.4z M200,15.9c0.1,0.3,0.2,0.5,0.3,0.8c0.1,0.2,0.3,0.4,0.6,0.5c0.2,0.1,0.5,0.2,0.9,0.2s0.6-0.1,0.9-0.2
		c0.2-0.1,0.4-0.3,0.6-0.5c0.1-0.2,0.2-0.5,0.3-0.8c0.1-0.3,0.1-0.6,0.1-0.9s0-0.6-0.1-0.9c-0.1-0.3-0.2-0.5-0.3-0.8
		c-0.1-0.2-0.3-0.4-0.6-0.5c-0.2-0.1-0.5-0.2-0.9-0.2s-0.6,0.1-0.9,0.2c-0.2,0.1-0.4,0.3-0.6,0.5c-0.1,0.2-0.2,0.5-0.3,0.8
		c-0.1,0.3-0.1,0.6-0.1,0.9S199.9,15.7,200,15.9z"/>
	<path d="M206.2,12.7v-1.4h1.2v-0.6c0-0.7,0.2-1.2,0.6-1.6c0.4-0.4,1-0.6,1.9-0.6c0.2,0,0.4,0,0.5,0s0.4,0,0.5,0V10
		c-0.2,0-0.5,0-0.8,0c-0.3,0-0.5,0.1-0.6,0.2s-0.2,0.4-0.2,0.7v0.4h1.4v1.4h-1.4v6.1h-2.1v-6.1H206.2z"/>
	<path d="M217.8,11.3v1h0c0.3-0.4,0.6-0.7,1-0.9c0.4-0.2,0.8-0.3,1.3-0.3c0.5,0,0.9,0.1,1.3,0.3c0.4,0.2,0.7,0.5,0.9,1
		c0.2-0.3,0.5-0.6,0.9-0.9c0.4-0.3,0.8-0.4,1.4-0.4c0.4,0,0.8,0,1.1,0.1c0.3,0.1,0.6,0.3,0.9,0.5c0.2,0.2,0.4,0.5,0.6,0.8
		c0.1,0.3,0.2,0.8,0.2,1.2v5h-2.1v-4.2c0-0.3,0-0.5,0-0.7s-0.1-0.4-0.2-0.6c-0.1-0.2-0.2-0.3-0.4-0.4c-0.2-0.1-0.4-0.1-0.7-0.1
		c-0.3,0-0.5,0.1-0.7,0.2c-0.2,0.1-0.3,0.3-0.4,0.4c-0.1,0.2-0.2,0.4-0.2,0.6c0,0.2-0.1,0.5-0.1,0.7v4.2h-2.1v-4.2
		c0-0.2,0-0.4,0-0.7s-0.1-0.4-0.1-0.6c-0.1-0.2-0.2-0.3-0.4-0.4c-0.2-0.1-0.4-0.2-0.7-0.2c-0.1,0-0.2,0-0.4,0.1s-0.3,0.1-0.5,0.2
		c-0.1,0.1-0.3,0.3-0.4,0.5s-0.2,0.5-0.2,0.9v4.3h-2.1v-7.5H217.8z"/>
	<path d="M229,10.1V8.5h2.1v1.7H229z M231,11.3v7.5H229v-7.5H231z"/>
	<path d="M236.2,12.7c-0.3,0-0.6,0.1-0.8,0.2c-0.2,0.1-0.4,0.3-0.5,0.6c-0.1,0.2-0.2,0.5-0.3,0.8c-0.1,0.3-0.1,0.6-0.1,0.8
		c0,0.3,0,0.5,0.1,0.8s0.2,0.5,0.3,0.8c0.1,0.2,0.3,0.4,0.5,0.6c0.2,0.1,0.5,0.2,0.8,0.2c0.5,0,0.9-0.1,1.1-0.4s0.4-0.6,0.5-1.1h2
		c-0.1,1-0.5,1.8-1.2,2.3c-0.6,0.5-1.5,0.8-2.4,0.8c-0.6,0-1.1-0.1-1.5-0.3c-0.5-0.2-0.9-0.5-1.2-0.8c-0.3-0.3-0.6-0.7-0.8-1.2
		c-0.2-0.5-0.3-1-0.3-1.5c0-0.6,0.1-1.1,0.3-1.6c0.2-0.5,0.4-0.9,0.7-1.3c0.3-0.4,0.7-0.6,1.2-0.8c0.5-0.2,1-0.3,1.6-0.3
		c0.4,0,0.9,0.1,1.3,0.2c0.4,0.1,0.8,0.3,1.1,0.5c0.3,0.2,0.6,0.5,0.8,0.9c0.2,0.4,0.3,0.8,0.3,1.3h-2
		C237.6,13.1,237.1,12.7,236.2,12.7z"/>
	<path d="M243.2,17c0.3,0.3,0.8,0.4,1.3,0.4c0.4,0,0.8-0.1,1.1-0.3s0.5-0.4,0.6-0.7h1.8c-0.3,0.9-0.7,1.5-1.3,1.9
		c-0.6,0.4-1.3,0.6-2.2,0.6c-0.6,0-1.1-0.1-1.6-0.3c-0.5-0.2-0.9-0.5-1.2-0.8s-0.6-0.8-0.8-1.2c-0.2-0.5-0.3-1-0.3-1.6
		c0-0.6,0.1-1.1,0.3-1.6c0.2-0.5,0.4-0.9,0.8-1.3c0.3-0.4,0.7-0.6,1.2-0.8c0.5-0.2,1-0.3,1.6-0.3c0.6,0,1.2,0.1,1.7,0.4
		c0.5,0.2,0.9,0.6,1.2,1c0.3,0.4,0.5,0.9,0.7,1.4c0.1,0.5,0.2,1.1,0.1,1.7h-5.4C242.7,16.2,242.9,16.7,243.2,17z M245.5,13.1
		c-0.2-0.3-0.6-0.4-1.1-0.4c-0.3,0-0.6,0.1-0.8,0.2c-0.2,0.1-0.4,0.2-0.5,0.4c-0.1,0.2-0.2,0.3-0.3,0.5s-0.1,0.3-0.1,0.5h3.3
		C245.9,13.7,245.8,13.3,245.5,13.1z"/>
	<path d="M253.2,13.6c0-0.5,0.2-0.9,0.4-1.2c0.2-0.3,0.5-0.6,0.8-0.8s0.7-0.3,1.1-0.4c0.4-0.1,0.8-0.1,1.2-0.1c0.4,0,0.8,0,1.1,0.1
		c0.4,0.1,0.7,0.2,1.1,0.3c0.3,0.2,0.6,0.4,0.8,0.6c0.2,0.3,0.3,0.6,0.3,1.1v3.9c0,0.3,0,0.7,0.1,1c0,0.3,0.1,0.5,0.2,0.7h-2.1
		c0-0.1-0.1-0.2-0.1-0.4c0-0.1,0-0.2-0.1-0.4c-0.3,0.3-0.7,0.6-1.2,0.7S256,19,255.6,19c-0.4,0-0.7,0-1-0.1
		c-0.3-0.1-0.6-0.2-0.8-0.4c-0.2-0.2-0.4-0.4-0.5-0.7c-0.1-0.3-0.2-0.6-0.2-1c0-0.4,0.1-0.8,0.2-1.1c0.1-0.3,0.3-0.5,0.6-0.7
		c0.2-0.2,0.5-0.3,0.8-0.4c0.3-0.1,0.6-0.1,0.9-0.2c0.3,0,0.6-0.1,0.9-0.1c0.3,0,0.6-0.1,0.8-0.1c0.2-0.1,0.4-0.1,0.6-0.3
		c0.1-0.1,0.2-0.3,0.2-0.5c0-0.2,0-0.4-0.1-0.5c-0.1-0.1-0.2-0.2-0.3-0.3c-0.1-0.1-0.3-0.1-0.4-0.1c-0.2,0-0.3,0-0.5,0
		c-0.4,0-0.7,0.1-1,0.3s-0.4,0.5-0.4,0.9H253.2z M258,15.1c-0.1,0.1-0.2,0.1-0.3,0.2c-0.1,0-0.3,0.1-0.4,0.1c-0.1,0-0.3,0.1-0.5,0.1
		c-0.2,0-0.3,0-0.5,0.1c-0.2,0-0.3,0.1-0.5,0.1s-0.3,0.1-0.4,0.2c-0.1,0.1-0.2,0.2-0.3,0.3s-0.1,0.3-0.1,0.5c0,0.2,0,0.3,0.1,0.5
		s0.2,0.2,0.3,0.3c0.1,0.1,0.3,0.1,0.4,0.2c0.2,0,0.3,0,0.5,0c0.4,0,0.7-0.1,0.9-0.2c0.2-0.1,0.4-0.3,0.5-0.5s0.2-0.4,0.2-0.6
		c0-0.2,0-0.3,0-0.5V15.1z"/>
	<path d="M263.6,11.3v1h0c0.3-0.4,0.6-0.8,1-0.9c0.4-0.2,0.8-0.3,1.3-0.3c0.6,0,1,0.1,1.4,0.2s0.6,0.4,0.8,0.6
		c0.2,0.3,0.3,0.6,0.4,1c0.1,0.4,0.1,0.8,0.1,1.3v4.6h-2.1v-4.2c0-0.6-0.1-1.1-0.3-1.4c-0.2-0.3-0.5-0.5-1-0.5c-0.6,0-1,0.2-1.2,0.5
		c-0.3,0.3-0.4,0.9-0.4,1.6v3.9h-2.1v-7.5H263.6z"/>
	<path d="M275.6,17.8c-0.2,0.4-0.6,0.7-0.9,0.9c-0.4,0.2-0.8,0.3-1.3,0.3c-0.6,0-1.1-0.1-1.5-0.3s-0.8-0.5-1.1-0.9s-0.5-0.8-0.6-1.3
		c-0.1-0.5-0.2-1-0.2-1.5c0-0.5,0.1-1,0.2-1.5s0.3-0.9,0.6-1.2s0.6-0.6,1-0.9c0.4-0.2,0.9-0.3,1.4-0.3c0.4,0,0.9,0.1,1.3,0.3
		c0.4,0.2,0.7,0.5,0.9,0.8h0V8.5h2.1v10.3h-2L275.6,17.8L275.6,17.8z M275.5,14.1c-0.1-0.3-0.2-0.5-0.3-0.8s-0.3-0.4-0.5-0.5
		c-0.2-0.1-0.5-0.2-0.8-0.2s-0.6,0.1-0.9,0.2c-0.2,0.1-0.4,0.3-0.6,0.5s-0.2,0.5-0.3,0.8c-0.1,0.3-0.1,0.6-0.1,0.9
		c0,0.3,0,0.6,0.1,0.9c0.1,0.3,0.2,0.5,0.3,0.8c0.1,0.2,0.3,0.4,0.6,0.6c0.2,0.1,0.5,0.2,0.8,0.2c0.3,0,0.6-0.1,0.8-0.2
		c0.2-0.1,0.4-0.3,0.5-0.5c0.1-0.2,0.2-0.5,0.3-0.8c0.1-0.3,0.1-0.6,0.1-0.9S275.5,14.4,275.5,14.1z"/>
</g>
<g>
	<path d="M16,22.9c0.7,0,1.3,0.1,1.9,0.3c0.6,0.2,1.1,0.5,1.5,1c0.4,0.4,0.7,1,1,1.6c0.2,0.6,0.4,1.4,0.4,2.2c0,0.8-0.1,1.4-0.3,2.1
		s-0.5,1.2-0.9,1.7c-0.4,0.5-0.9,0.8-1.5,1.1s-1.3,0.4-2.1,0.4h-4.5V22.9H16z M15.8,31.4c0.3,0,0.6-0.1,1-0.2s0.6-0.3,0.8-0.5
		c0.2-0.2,0.4-0.6,0.6-1c0.1-0.4,0.2-0.9,0.2-1.4c0-0.5-0.1-1-0.2-1.4c-0.1-0.4-0.3-0.8-0.5-1.1c-0.2-0.3-0.5-0.5-0.9-0.7
		c-0.4-0.2-0.9-0.2-1.4-0.2h-1.6v6.5H15.8z"/>
	<path d="M30,22.9v1.9h-5.5v2.2h5v1.8h-5v2.5h5.6v1.9h-7.9V22.9H30z"/>
	<path d="M33.9,22.9l4.3,6.9h0v-6.9h2.1v10.3h-2.3l-4.3-6.9h0v6.9h-2.1V22.9H33.9z"/>
	<path d="M41.5,24.9v-1.9H50v1.9h-3.1v8.4h-2.3v-8.4H41.5z"/>
	<path d="M53.5,22.9v10.3h-2.3V22.9H53.5z"/>
	<path d="M57.2,30.7c0.1,0.2,0.3,0.4,0.5,0.6c0.2,0.2,0.5,0.3,0.7,0.3c0.3,0.1,0.6,0.1,0.9,0.1c0.2,0,0.4,0,0.7-0.1s0.4-0.1,0.7-0.2
		c0.2-0.1,0.4-0.2,0.5-0.4c0.1-0.2,0.2-0.4,0.2-0.6c0-0.3-0.1-0.5-0.3-0.7s-0.4-0.3-0.7-0.4c-0.3-0.1-0.6-0.2-1-0.3
		s-0.7-0.2-1.1-0.3c-0.4-0.1-0.8-0.2-1.1-0.4c-0.4-0.1-0.7-0.3-1-0.5c-0.3-0.2-0.5-0.5-0.7-0.8c-0.2-0.3-0.3-0.7-0.3-1.2
		c0-0.5,0.1-1,0.3-1.4s0.5-0.7,0.9-1s0.8-0.5,1.2-0.6c0.5-0.1,0.9-0.2,1.4-0.2c0.5,0,1.1,0.1,1.6,0.2s0.9,0.3,1.3,0.6
		c0.4,0.3,0.7,0.6,0.9,1c0.2,0.4,0.3,0.9,0.3,1.5H61c0-0.3-0.1-0.6-0.2-0.8c-0.1-0.2-0.3-0.4-0.4-0.5c-0.2-0.1-0.4-0.2-0.6-0.2
		c-0.2,0-0.5-0.1-0.8-0.1c-0.2,0-0.4,0-0.6,0.1c-0.2,0-0.4,0.1-0.5,0.2s-0.3,0.2-0.4,0.4c-0.1,0.1-0.1,0.3-0.1,0.6
		c0,0.2,0,0.4,0.1,0.5c0.1,0.1,0.2,0.2,0.5,0.3c0.2,0.1,0.5,0.2,0.9,0.3s0.9,0.2,1.6,0.4c0.2,0,0.5,0.1,0.8,0.2
		c0.3,0.1,0.7,0.3,1,0.5c0.3,0.2,0.6,0.5,0.9,0.9c0.2,0.4,0.4,0.8,0.4,1.4c0,0.5-0.1,0.9-0.3,1.3c-0.2,0.4-0.5,0.8-0.8,1.1
		c-0.4,0.3-0.8,0.5-1.3,0.7s-1.2,0.2-1.9,0.2c-0.6,0-1.1-0.1-1.7-0.2c-0.5-0.1-1-0.4-1.4-0.7c-0.4-0.3-0.7-0.7-1-1.1
		c-0.2-0.5-0.4-1-0.3-1.7H57C57,30.2,57.1,30.5,57.2,30.7z"/>
	<path d="M64.1,24.9v-1.9h8.5v1.9h-3.1v8.4h-2.3v-8.4H64.1z"/>
	<path d="M75.5,30.7c0.1,0.2,0.3,0.4,0.5,0.6c0.2,0.2,0.5,0.3,0.7,0.3c0.3,0.1,0.6,0.1,0.9,0.1c0.2,0,0.4,0,0.7-0.1s0.4-0.1,0.7-0.2
		c0.2-0.1,0.4-0.2,0.5-0.4c0.1-0.2,0.2-0.4,0.2-0.6c0-0.3-0.1-0.5-0.3-0.7s-0.4-0.3-0.7-0.4c-0.3-0.1-0.6-0.2-1-0.3
		s-0.7-0.2-1.1-0.3c-0.4-0.1-0.8-0.2-1.1-0.4c-0.4-0.1-0.7-0.3-1-0.5c-0.3-0.2-0.5-0.5-0.7-0.8c-0.2-0.3-0.3-0.7-0.3-1.2
		c0-0.5,0.1-1,0.3-1.4s0.5-0.7,0.9-1s0.8-0.5,1.2-0.6c0.5-0.1,0.9-0.2,1.4-0.2c0.5,0,1.1,0.1,1.6,0.2s0.9,0.3,1.3,0.6
		c0.4,0.3,0.7,0.6,0.9,1c0.2,0.4,0.3,0.9,0.3,1.5h-2.2c0-0.3-0.1-0.6-0.2-0.8c-0.1-0.2-0.3-0.4-0.4-0.5c-0.2-0.1-0.4-0.2-0.6-0.2
		c-0.2,0-0.5-0.1-0.8-0.1c-0.2,0-0.4,0-0.6,0.1c-0.2,0-0.4,0.1-0.5,0.2s-0.3,0.2-0.4,0.4c-0.1,0.1-0.1,0.3-0.1,0.6
		c0,0.2,0,0.4,0.1,0.5c0.1,0.1,0.2,0.2,0.5,0.3c0.2,0.1,0.5,0.2,0.9,0.3s0.9,0.2,1.6,0.4c0.2,0,0.5,0.1,0.8,0.2
		c0.3,0.1,0.7,0.3,1,0.5c0.3,0.2,0.6,0.5,0.9,0.9c0.2,0.4,0.4,0.8,0.4,1.4c0,0.5-0.1,0.9-0.3,1.3c-0.2,0.4-0.5,0.8-0.8,1.1
		c-0.4,0.3-0.8,0.5-1.3,0.7s-1.2,0.2-1.9,0.2c-0.6,0-1.1-0.1-1.7-0.2c-0.5-0.1-1-0.4-1.4-0.7c-0.4-0.3-0.7-0.7-1-1.1
		c-0.2-0.5-0.4-1-0.3-1.7h2.2C75.3,30.2,75.4,30.5,75.5,30.7z"/>
</g>
<g>
	<path class="st0" d="M90.5,27.1c-0.3,0-0.6,0.1-0.8,0.2c-0.2,0.2-0.4,0.3-0.5,0.6c-0.1,0.2-0.2,0.5-0.3,0.8
		c-0.1,0.3-0.1,0.6-0.1,0.8c0,0.3,0,0.5,0.1,0.8c0.1,0.3,0.2,0.5,0.3,0.8c0.1,0.2,0.3,0.4,0.5,0.6c0.2,0.1,0.5,0.2,0.8,0.2
		c0.5,0,0.9-0.1,1.1-0.4s0.4-0.6,0.5-1.1h2c-0.1,1-0.5,1.8-1.2,2.3c-0.6,0.5-1.5,0.8-2.4,0.8c-0.6,0-1.1-0.1-1.5-0.3
		c-0.5-0.2-0.9-0.5-1.2-0.8c-0.3-0.3-0.6-0.7-0.8-1.2c-0.2-0.5-0.3-1-0.3-1.5c0-0.6,0.1-1.1,0.3-1.6c0.2-0.5,0.4-0.9,0.7-1.3
		c0.3-0.4,0.7-0.6,1.2-0.8c0.5-0.2,1-0.3,1.6-0.3c0.4,0,0.9,0.1,1.3,0.2c0.4,0.1,0.8,0.3,1.1,0.5s0.6,0.5,0.8,0.9
		c0.2,0.4,0.3,0.8,0.3,1.3h-2C91.9,27.6,91.4,27.1,90.5,27.1z"/>
	<path class="st0" d="M95.2,28.1c0-0.5,0.1-0.9,0.4-1.2c0.2-0.3,0.5-0.6,0.8-0.8c0.3-0.2,0.7-0.3,1.1-0.4s0.8-0.1,1.2-0.1
		c0.4,0,0.8,0,1.1,0.1s0.7,0.2,1.1,0.3c0.3,0.2,0.6,0.4,0.8,0.6c0.2,0.3,0.3,0.6,0.3,1.1v3.9c0,0.3,0,0.7,0.1,1
		c0,0.3,0.1,0.5,0.2,0.7h-2.1c0-0.1-0.1-0.2-0.1-0.4c0-0.1,0-0.2-0.1-0.4c-0.3,0.3-0.7,0.6-1.2,0.7c-0.4,0.1-0.9,0.2-1.4,0.2
		c-0.4,0-0.7,0-1-0.1s-0.6-0.2-0.8-0.4s-0.4-0.4-0.5-0.7s-0.2-0.6-0.2-1c0-0.4,0.1-0.8,0.2-1.1c0.1-0.3,0.3-0.5,0.6-0.7
		c0.2-0.2,0.5-0.3,0.8-0.4s0.6-0.1,0.9-0.2c0.3,0,0.6-0.1,0.9-0.1s0.6-0.1,0.8-0.1c0.2-0.1,0.4-0.1,0.6-0.3s0.2-0.3,0.2-0.5
		c0-0.2,0-0.4-0.1-0.5c-0.1-0.1-0.2-0.2-0.3-0.3c-0.1-0.1-0.3-0.1-0.4-0.1c-0.2,0-0.3,0-0.5,0c-0.4,0-0.7,0.1-1,0.3
		s-0.4,0.5-0.4,0.9H95.2z M99.9,29.6c-0.1,0.1-0.2,0.1-0.3,0.2c-0.1,0-0.3,0.1-0.4,0.1c-0.1,0-0.3,0.1-0.5,0.1s-0.3,0-0.5,0.1
		c-0.2,0-0.3,0.1-0.5,0.1c-0.1,0-0.3,0.1-0.4,0.2c-0.1,0.1-0.2,0.2-0.3,0.3C97.1,30.8,97,31,97,31.2c0,0.2,0,0.3,0.1,0.5
		c0.1,0.1,0.2,0.2,0.3,0.3c0.1,0.1,0.3,0.1,0.4,0.2c0.2,0,0.3,0,0.5,0c0.4,0,0.7-0.1,0.9-0.2c0.2-0.1,0.4-0.3,0.5-0.5
		s0.2-0.4,0.2-0.6c0-0.2,0-0.3,0-0.5V29.6z"/>
	<path class="st0" d="M105.6,25.8v1h0c0.3-0.4,0.6-0.8,1-0.9c0.4-0.2,0.8-0.3,1.3-0.3c0.6,0,1,0.1,1.4,0.2c0.4,0.1,0.6,0.4,0.8,0.6
		c0.2,0.3,0.3,0.6,0.4,1c0.1,0.4,0.1,0.8,0.1,1.3v4.6h-2.1v-4.2c0-0.6-0.1-1.1-0.3-1.4c-0.2-0.3-0.5-0.5-1-0.5c-0.6,0-1,0.2-1.2,0.5
		c-0.3,0.3-0.4,0.9-0.4,1.6v3.9h-2.1v-7.5H105.6z"/>
	<path class="st0" d="M117.9,31.4c0.1,0.2,0.2,0.3,0.4,0.4c0.1,0.1,0.3,0.2,0.5,0.2c0.2,0,0.4,0.1,0.6,0.1c0.1,0,0.3,0,0.5-0.1
		c0.2,0,0.3-0.1,0.4-0.2c0.1-0.1,0.2-0.2,0.3-0.3s0.1-0.3,0.1-0.5c0-0.3-0.2-0.5-0.6-0.7c-0.4-0.2-1-0.3-1.7-0.5
		c-0.3-0.1-0.6-0.1-0.9-0.2c-0.3-0.1-0.5-0.2-0.8-0.4c-0.2-0.2-0.4-0.3-0.5-0.6S116,28.3,116,28c0-0.5,0.1-0.9,0.3-1.2
		c0.2-0.3,0.4-0.6,0.7-0.7c0.3-0.2,0.7-0.3,1-0.4c0.4-0.1,0.8-0.1,1.2-0.1s0.8,0,1.2,0.1c0.4,0.1,0.7,0.2,1,0.4
		c0.3,0.2,0.5,0.4,0.7,0.7c0.2,0.3,0.3,0.7,0.4,1.2h-2c0-0.4-0.2-0.7-0.4-0.8c-0.3-0.1-0.6-0.2-1-0.2c-0.1,0-0.2,0-0.4,0
		s-0.3,0-0.4,0.1c-0.1,0-0.2,0.1-0.3,0.2c-0.1,0.1-0.1,0.2-0.1,0.4c0,0.2,0.1,0.3,0.2,0.4c0.1,0.1,0.3,0.2,0.5,0.3s0.5,0.1,0.7,0.2
		s0.6,0.1,0.9,0.2c0.3,0.1,0.6,0.1,0.9,0.2c0.3,0.1,0.5,0.2,0.8,0.4c0.2,0.2,0.4,0.4,0.5,0.6s0.2,0.5,0.2,0.9c0,0.5-0.1,0.9-0.3,1.2
		c-0.2,0.3-0.5,0.6-0.8,0.8s-0.7,0.3-1.1,0.4s-0.8,0.1-1.3,0.1c-0.4,0-0.9,0-1.3-0.1c-0.4-0.1-0.8-0.2-1.1-0.4s-0.6-0.5-0.8-0.8
		c-0.2-0.3-0.3-0.8-0.3-1.3h2C117.8,31.1,117.9,31.3,117.9,31.4z"/>
	<path class="st0" d="M124,27.9c0.2-0.5,0.4-0.9,0.8-1.2c0.3-0.3,0.7-0.6,1.2-0.8c0.5-0.2,1-0.3,1.6-0.3s1.1,0.1,1.6,0.3
		c0.5,0.2,0.9,0.5,1.2,0.8c0.3,0.3,0.6,0.8,0.8,1.2c0.2,0.5,0.3,1,0.3,1.6c0,0.6-0.1,1.1-0.3,1.6c-0.2,0.5-0.4,0.9-0.8,1.2
		c-0.3,0.3-0.7,0.6-1.2,0.8c-0.5,0.2-1,0.3-1.6,0.3s-1.1-0.1-1.6-0.3c-0.5-0.2-0.9-0.4-1.2-0.8c-0.3-0.3-0.6-0.8-0.8-1.2
		c-0.2-0.5-0.3-1-0.3-1.6C123.8,29,123.9,28.4,124,27.9z M125.9,30.4c0.1,0.3,0.2,0.5,0.3,0.8c0.1,0.2,0.3,0.4,0.6,0.5
		c0.2,0.1,0.5,0.2,0.9,0.2s0.6-0.1,0.9-0.2c0.2-0.1,0.4-0.3,0.6-0.5c0.1-0.2,0.2-0.5,0.3-0.8c0.1-0.3,0.1-0.6,0.1-0.9
		c0-0.3,0-0.6-0.1-0.9c-0.1-0.3-0.2-0.5-0.3-0.8c-0.1-0.2-0.3-0.4-0.6-0.5c-0.2-0.1-0.5-0.2-0.9-0.2s-0.6,0.1-0.9,0.2
		c-0.2,0.1-0.4,0.3-0.6,0.5c-0.1,0.2-0.2,0.5-0.3,0.8c-0.1,0.3-0.1,0.6-0.1,0.9C125.8,29.9,125.9,30.1,125.9,30.4z"/>
	<path class="st0" d="M134.9,25.8v1h0c0.3-0.4,0.6-0.7,1-0.9c0.4-0.2,0.8-0.3,1.3-0.3c0.5,0,0.9,0.1,1.3,0.3c0.4,0.2,0.7,0.5,0.9,1
		c0.2-0.3,0.5-0.6,0.9-0.9c0.4-0.3,0.8-0.4,1.4-0.4c0.4,0,0.8,0,1.1,0.1c0.3,0.1,0.6,0.3,0.9,0.5c0.2,0.2,0.4,0.5,0.6,0.8
		s0.2,0.8,0.2,1.2v5h-2.1V29c0-0.3,0-0.5,0-0.7c0-0.2-0.1-0.4-0.2-0.6c-0.1-0.2-0.2-0.3-0.4-0.4s-0.4-0.1-0.7-0.1
		c-0.3,0-0.5,0.1-0.7,0.2c-0.2,0.1-0.3,0.3-0.4,0.4s-0.2,0.4-0.2,0.6c0,0.2-0.1,0.5-0.1,0.7v4.2h-2.1v-4.2c0-0.2,0-0.4,0-0.7
		c0-0.2-0.1-0.4-0.1-0.6c-0.1-0.2-0.2-0.3-0.4-0.4s-0.4-0.2-0.7-0.2c-0.1,0-0.2,0-0.4,0.1c-0.2,0-0.3,0.1-0.5,0.2
		c-0.1,0.1-0.3,0.3-0.4,0.5c-0.1,0.2-0.2,0.5-0.2,0.9v4.3h-2.1v-7.5H134.9z"/>
	<path class="st0" d="M148.2,31.5c0.3,0.3,0.8,0.4,1.3,0.4c0.4,0,0.8-0.1,1.1-0.3s0.5-0.4,0.6-0.7h1.8c-0.3,0.9-0.7,1.5-1.3,1.9
		c-0.6,0.4-1.3,0.6-2.2,0.6c-0.6,0-1.1-0.1-1.6-0.3c-0.5-0.2-0.9-0.5-1.2-0.8s-0.6-0.8-0.8-1.2s-0.3-1-0.3-1.6
		c0-0.6,0.1-1.1,0.3-1.6s0.4-0.9,0.8-1.3c0.3-0.4,0.7-0.6,1.2-0.8c0.5-0.2,1-0.3,1.6-0.3c0.6,0,1.2,0.1,1.7,0.4
		c0.5,0.2,0.9,0.6,1.2,1c0.3,0.4,0.5,0.9,0.7,1.4c0.1,0.5,0.2,1.1,0.1,1.7h-5.4C147.7,30.7,147.9,31.2,148.2,31.5z M150.5,27.6
		c-0.2-0.3-0.6-0.4-1.1-0.4c-0.3,0-0.6,0.1-0.8,0.2c-0.2,0.1-0.4,0.2-0.5,0.4c-0.1,0.2-0.2,0.3-0.3,0.5s-0.1,0.3-0.1,0.5h3.3
		C150.9,28.2,150.8,27.8,150.5,27.6z"/>
	<path class="st0" d="M158.4,25.8v1.4h-1.5v3.7c0,0.3,0.1,0.6,0.2,0.7c0.1,0.1,0.3,0.2,0.7,0.2c0.1,0,0.2,0,0.3,0s0.2,0,0.3,0v1.6
		c-0.2,0-0.4,0-0.6,0.1s-0.4,0-0.6,0c-0.3,0-0.6,0-0.9-0.1c-0.3,0-0.5-0.1-0.8-0.3c-0.2-0.1-0.4-0.3-0.5-0.5
		c-0.1-0.2-0.2-0.5-0.2-0.9v-4.4h-1.2v-1.4h1.2v-2.2h2.1v2.2H158.4z"/>
	<path class="st0" d="M159.5,24.6v-1.7h2.1v1.7H159.5z M161.5,25.8v7.5h-2.1v-7.5H161.5z"/>
	<path class="st0" d="M165.1,25.8v1h0c0.3-0.4,0.6-0.7,1-0.9c0.4-0.2,0.8-0.3,1.3-0.3c0.5,0,0.9,0.1,1.3,0.3c0.4,0.2,0.7,0.5,0.9,1
		c0.2-0.3,0.5-0.6,0.9-0.9c0.4-0.3,0.8-0.4,1.4-0.4c0.4,0,0.8,0,1.1,0.1c0.3,0.1,0.6,0.3,0.9,0.5c0.2,0.2,0.4,0.5,0.6,0.8
		c0.1,0.3,0.2,0.8,0.2,1.2v5h-2.1V29c0-0.3,0-0.5,0-0.7s-0.1-0.4-0.2-0.6c-0.1-0.2-0.2-0.3-0.4-0.4s-0.4-0.1-0.7-0.1
		c-0.3,0-0.5,0.1-0.7,0.2s-0.3,0.3-0.4,0.4c-0.1,0.2-0.2,0.4-0.2,0.6c0,0.2-0.1,0.5-0.1,0.7v4.2h-2.1v-4.2c0-0.2,0-0.4,0-0.7
		c0-0.2-0.1-0.4-0.1-0.6c-0.1-0.2-0.2-0.3-0.4-0.4c-0.2-0.1-0.4-0.2-0.7-0.2c-0.1,0-0.2,0-0.4,0.1c-0.2,0-0.3,0.1-0.5,0.2
		c-0.1,0.1-0.3,0.3-0.4,0.5c-0.1,0.2-0.2,0.5-0.2,0.9v4.3h-2.1v-7.5H165.1z"/>
	<path class="st0" d="M178.5,31.5c0.3,0.3,0.8,0.4,1.3,0.4c0.4,0,0.8-0.1,1.1-0.3s0.5-0.4,0.6-0.7h1.8c-0.3,0.9-0.7,1.5-1.3,1.9
		c-0.6,0.4-1.3,0.6-2.2,0.6c-0.6,0-1.1-0.1-1.6-0.3c-0.5-0.2-0.9-0.5-1.2-0.8s-0.6-0.8-0.8-1.2s-0.3-1-0.3-1.6
		c0-0.6,0.1-1.1,0.3-1.6s0.4-0.9,0.8-1.3c0.3-0.4,0.7-0.6,1.2-0.8c0.5-0.2,1-0.3,1.6-0.3c0.6,0,1.2,0.1,1.7,0.4
		c0.5,0.2,0.9,0.6,1.2,1c0.3,0.4,0.5,0.9,0.7,1.4c0.1,0.5,0.2,1.1,0.1,1.7H178C178,30.7,178.2,31.2,178.5,31.5z M180.8,27.6
		c-0.2-0.3-0.6-0.4-1.1-0.4c-0.3,0-0.6,0.1-0.8,0.2c-0.2,0.1-0.4,0.2-0.5,0.4c-0.1,0.2-0.2,0.3-0.3,0.5s-0.1,0.3-0.1,0.5h3.3
		C181.2,28.2,181,27.8,180.8,27.6z"/>
	<path class="st0" d="M186.3,31.4c0.1,0.2,0.2,0.3,0.4,0.4c0.1,0.1,0.3,0.2,0.5,0.2c0.2,0,0.4,0.1,0.6,0.1c0.1,0,0.3,0,0.5-0.1
		c0.2,0,0.3-0.1,0.4-0.2c0.1-0.1,0.2-0.2,0.3-0.3s0.1-0.3,0.1-0.5c0-0.3-0.2-0.5-0.6-0.7c-0.4-0.2-1-0.3-1.7-0.5
		c-0.3-0.1-0.6-0.1-0.9-0.2s-0.5-0.2-0.8-0.4c-0.2-0.2-0.4-0.3-0.5-0.6c-0.1-0.2-0.2-0.5-0.2-0.8c0-0.5,0.1-0.9,0.3-1.2
		s0.4-0.6,0.7-0.7c0.3-0.2,0.7-0.3,1-0.4c0.4-0.1,0.8-0.1,1.2-0.1c0.4,0,0.8,0,1.2,0.1c0.4,0.1,0.7,0.2,1,0.4
		c0.3,0.2,0.5,0.4,0.7,0.7s0.3,0.7,0.4,1.2h-2c0-0.4-0.2-0.7-0.4-0.8c-0.3-0.1-0.6-0.2-1-0.2c-0.1,0-0.2,0-0.4,0s-0.3,0-0.4,0.1
		c-0.1,0-0.2,0.1-0.3,0.2s-0.1,0.2-0.1,0.4c0,0.2,0.1,0.3,0.2,0.4c0.1,0.1,0.3,0.2,0.5,0.3s0.5,0.1,0.7,0.2s0.6,0.1,0.9,0.2
		c0.3,0.1,0.6,0.1,0.9,0.2c0.3,0.1,0.5,0.2,0.8,0.4c0.2,0.2,0.4,0.4,0.5,0.6c0.1,0.2,0.2,0.5,0.2,0.9c0,0.5-0.1,0.9-0.3,1.2
		c-0.2,0.3-0.5,0.6-0.8,0.8c-0.3,0.2-0.7,0.3-1.1,0.4c-0.4,0.1-0.8,0.1-1.3,0.1c-0.4,0-0.9,0-1.3-0.1c-0.4-0.1-0.8-0.2-1.1-0.4
		c-0.3-0.2-0.6-0.5-0.8-0.8c-0.2-0.3-0.3-0.8-0.3-1.3h2C186.2,31.1,186.2,31.3,186.3,31.4z"/>
	<path class="st0" d="M203.3,25.7c-0.1-0.2-0.3-0.4-0.5-0.6c-0.2-0.2-0.4-0.3-0.7-0.4c-0.3-0.1-0.5-0.1-0.8-0.1
		c-0.5,0-0.9,0.1-1.3,0.3c-0.4,0.2-0.6,0.5-0.9,0.8c-0.2,0.3-0.4,0.7-0.5,1.1c-0.1,0.4-0.2,0.9-0.2,1.3c0,0.4,0.1,0.9,0.2,1.3
		c0.1,0.4,0.3,0.8,0.5,1.1c0.2,0.3,0.5,0.6,0.9,0.8c0.4,0.2,0.8,0.3,1.3,0.3c0.7,0,1.2-0.2,1.6-0.6c0.4-0.4,0.6-1,0.7-1.7h2.2
		c-0.1,0.6-0.2,1.2-0.4,1.8s-0.6,1-1,1.3c-0.4,0.4-0.9,0.6-1.4,0.8c-0.5,0.2-1.1,0.3-1.8,0.3c-0.8,0-1.5-0.1-2.1-0.4
		c-0.6-0.3-1.2-0.7-1.6-1.1c-0.4-0.5-0.8-1.1-1-1.7s-0.3-1.4-0.3-2.1c0-0.8,0.1-1.5,0.3-2.2c0.2-0.7,0.6-1.2,1-1.7s1-0.9,1.6-1.2
		c0.6-0.3,1.3-0.4,2.1-0.4c0.6,0,1.1,0.1,1.6,0.2c0.5,0.2,1,0.4,1.4,0.7c0.4,0.3,0.7,0.7,1,1.2c0.3,0.5,0.4,1,0.5,1.6h-2.2
		C203.5,26.2,203.4,25.9,203.3,25.7z"/>
	<path class="st0" d="M209.6,22.9v4h4.2v-4h2.3v10.3h-2.3v-4.5h-4.2v4.5h-2.3V22.9H209.6z"/>
	<path class="st0" d="M223.3,22.9l3.9,10.3h-2.4L224,31h-3.9l-0.8,2.3H217l3.9-10.3H223.3z M223.4,29.3l-1.3-3.8h0l-1.3,3.8H223.4z"
		/>
	<path class="st0" d="M230.3,22.9l4.3,6.9h0v-6.9h2.1v10.3h-2.3l-4.3-6.9h0v6.9H228V22.9H230.3z"/>
	<path class="st0" d="M244.9,33.2c-0.5,0.2-1,0.3-1.5,0.3c-0.8,0-1.5-0.1-2.1-0.4c-0.6-0.3-1.2-0.7-1.6-1.1c-0.4-0.5-0.8-1.1-1-1.7
		s-0.3-1.4-0.3-2.1c0-0.8,0.1-1.5,0.3-2.2c0.2-0.7,0.6-1.2,1-1.7s1-0.9,1.6-1.2c0.6-0.3,1.3-0.4,2.1-0.4c0.5,0,1,0.1,1.5,0.2
		c0.5,0.2,0.9,0.4,1.3,0.7c0.4,0.3,0.7,0.7,1,1.1c0.3,0.5,0.4,1,0.5,1.6h-2.2c-0.1-0.6-0.4-1-0.8-1.3c-0.4-0.3-0.9-0.4-1.4-0.4
		c-0.5,0-0.9,0.1-1.3,0.3c-0.4,0.2-0.6,0.5-0.9,0.8c-0.2,0.3-0.4,0.7-0.5,1.1c-0.1,0.4-0.2,0.9-0.2,1.3c0,0.4,0.1,0.9,0.2,1.3
		c0.1,0.4,0.3,0.8,0.5,1.1c0.2,0.3,0.5,0.6,0.9,0.8c0.4,0.2,0.8,0.3,1.3,0.3c0.8,0,1.3-0.2,1.7-0.6c0.4-0.4,0.6-0.9,0.7-1.7h-2.3
		v-1.7h4.3v5.6h-1.4l-0.2-1.2C245.8,32.6,245.4,33,244.9,33.2z"/>
	<path class="st0" d="M257.5,22.9v1.9H252v2.2h5v1.8h-5v2.5h5.6v1.9h-7.9V22.9H257.5z"/>
</g>
</svg>
