<?xml version="1.0" encoding="utf-8"?>
<!-- Generator: Adobe Illustrator 25.4.1, SVG Export Plug-In . SVG Version: 6.00 Build 0)  -->
<svg version="1.1" id="Layer_1" xmlns="http://www.w3.org/2000/svg" xmlns:xlink="http://www.w3.org/1999/xlink" x="0px" y="0px"
	 viewBox="0 0 300 50" style="enable-background:new 0 0 300 50;" xml:space="preserve">
<style type="text/css">
	.st0{clip-path:url(#SVGID_00000165916968860349514900000004073446449898371456_);fill:#349946;}
	.st1{fill:#FFFFFF;}
</style>
<g>
	<defs>
		<rect id="SVGID_1_" x="202.2" y="5.8" width="68.6" height="14.5"/>
	</defs>
	<clipPath id="SVGID_00000110451486843400139930000010488624703374407352_">
		<use xlink:href="#SVGID_1_"  style="overflow:visible;"/>
	</clipPath>
	<path style="clip-path:url(#SVGID_00000110451486843400139930000010488624703374407352_);fill:#349946;" d="M270.8,13.1
		c0,4-3.7,7.2-8.3,7.2h-52c-4.6,0-8.3-3.3-8.3-7.2s3.7-7.2,8.3-7.2h52C267.1,5.8,270.8,9.1,270.8,13.1"/>
</g>
<g>
	<path class="st1" d="M215.7,10.9c0.2,0,0.4,0,0.6,0.1s0.3,0.2,0.4,0.3c0.1,0.1,0.2,0.3,0.3,0.4s0.1,0.3,0.1,0.5
		c0,0.3-0.1,0.5-0.2,0.7s-0.3,0.3-0.6,0.5v0c0.1,0,0.2,0.1,0.3,0.2c0.1,0.1,0.1,0.2,0.2,0.3c0.1,0.1,0.1,0.2,0.1,0.3
		c0,0.1,0,0.2,0,0.3c0,0.1,0,0.2,0,0.3c0,0.1,0,0.2,0,0.3c0,0.1,0,0.2,0.1,0.3c0,0.1,0.1,0.2,0.1,0.2h-1c-0.1-0.1-0.1-0.3-0.1-0.5
		c0-0.2,0-0.4-0.1-0.6c0-0.2-0.1-0.4-0.2-0.5c-0.1-0.1-0.3-0.2-0.5-0.2h-1v1.8h-1v-4.6H215.7z M215.3,13c0.2,0,0.4-0.1,0.5-0.2
		s0.2-0.3,0.2-0.5c0-0.2-0.1-0.4-0.2-0.5s-0.3-0.2-0.5-0.2h-1.1V13H215.3z"/>
	<path class="st1" d="M221.3,10.9v0.9h-2.4v1h2.2v0.8h-2.2v1.1h2.5v0.9h-3.5v-4.6H221.3z"/>
	<path class="st1" d="M224.4,10.9l1.7,4.6H225l-0.3-1H223l-0.4,1h-1l1.7-4.6H224.4z M224.4,13.7l-0.6-1.7h0l-0.6,1.7H224.4z"/>
	<path class="st1" d="M228.5,10.9c0.3,0,0.6,0,0.8,0.1s0.5,0.2,0.7,0.4c0.2,0.2,0.3,0.4,0.4,0.7c0.1,0.3,0.2,0.6,0.2,1
		c0,0.3,0,0.6-0.1,0.9c-0.1,0.3-0.2,0.5-0.4,0.7c-0.2,0.2-0.4,0.4-0.7,0.5s-0.6,0.2-0.9,0.2h-2v-4.6H228.5z M228.4,14.7
		c0.1,0,0.3,0,0.4-0.1c0.1,0,0.3-0.1,0.4-0.2s0.2-0.3,0.3-0.4c0.1-0.2,0.1-0.4,0.1-0.6c0-0.2,0-0.4-0.1-0.6c0-0.2-0.1-0.3-0.2-0.5
		c-0.1-0.1-0.2-0.2-0.4-0.3c-0.2-0.1-0.4-0.1-0.6-0.1h-0.7v2.9H228.4z"/>
	<path class="st1" d="M235.4,10.9l1.7,4.6h-1.1l-0.3-1H234l-0.4,1h-1l1.7-4.6H235.4z M235.4,13.7l-0.6-1.7h0l-0.6,1.7H235.4z"/>
	<path class="st1" d="M240,10.9c0.2,0,0.4,0,0.6,0.1s0.3,0.2,0.4,0.3c0.1,0.1,0.2,0.3,0.3,0.4s0.1,0.3,0.1,0.5
		c0,0.3-0.1,0.5-0.2,0.7s-0.3,0.3-0.6,0.5v0c0.1,0,0.2,0.1,0.3,0.2c0.1,0.1,0.1,0.2,0.2,0.3c0.1,0.1,0.1,0.2,0.1,0.3
		c0,0.1,0,0.2,0,0.3c0,0.1,0,0.2,0,0.3c0,0.1,0,0.2,0,0.3c0,0.1,0,0.2,0.1,0.3c0,0.1,0.1,0.2,0.1,0.2h-1c-0.1-0.1-0.1-0.3-0.1-0.5
		c0-0.2,0-0.4-0.1-0.6c0-0.2-0.1-0.4-0.2-0.5c-0.1-0.1-0.3-0.2-0.5-0.2h-1v1.8h-1v-4.6H240z M239.6,13c0.2,0,0.4-0.1,0.5-0.2
		s0.2-0.3,0.2-0.5c0-0.2-0.1-0.4-0.2-0.5s-0.3-0.2-0.5-0.2h-1.1V13H239.6z"/>
</g>
<g>
	<path class="st1" d="M241.7,11.8v-0.9h3.8v0.9h-1.4v3.8h-1v-3.8H241.7z"/>
	<path class="st1" d="M247,10.9v4.6h-1v-4.6H247z"/>
	<path class="st1" d="M250.9,12.1c-0.1-0.1-0.1-0.2-0.2-0.3c-0.1-0.1-0.2-0.1-0.3-0.2s-0.2-0.1-0.4-0.1c-0.2,0-0.4,0-0.6,0.1
		c-0.2,0.1-0.3,0.2-0.4,0.4c-0.1,0.1-0.2,0.3-0.2,0.5c0,0.2-0.1,0.4-0.1,0.6c0,0.2,0,0.4,0.1,0.6c0,0.2,0.1,0.3,0.2,0.5
		c0.1,0.1,0.2,0.3,0.4,0.4s0.4,0.1,0.6,0.1c0.3,0,0.6-0.1,0.7-0.3c0.2-0.2,0.3-0.4,0.3-0.8h1c0,0.3-0.1,0.5-0.2,0.8
		c-0.1,0.2-0.2,0.4-0.4,0.6c-0.2,0.2-0.4,0.3-0.6,0.4s-0.5,0.1-0.8,0.1c-0.4,0-0.7-0.1-1-0.2c-0.3-0.1-0.5-0.3-0.7-0.5
		c-0.2-0.2-0.3-0.5-0.4-0.8c-0.1-0.3-0.2-0.6-0.2-0.9c0-0.3,0.1-0.7,0.2-1c0.1-0.3,0.3-0.6,0.4-0.8c0.2-0.2,0.4-0.4,0.7-0.5
		c0.3-0.1,0.6-0.2,1-0.2c0.3,0,0.5,0,0.7,0.1s0.4,0.2,0.6,0.3s0.3,0.3,0.4,0.5c0.1,0.2,0.2,0.4,0.2,0.7h-1
		C251,12.3,250.9,12.2,250.9,12.1z"/>
	<path class="st1" d="M253.7,10.9v3.8h2.2v0.9h-3.3v-4.6H253.7z"/>
	<path class="st1" d="M260,10.9v0.9h-2.4v1h2.2v0.8h-2.2v1.1h2.5v0.9h-3.5v-4.6H260z"/>
</g>
</svg>
