<?xml version="1.0" encoding="utf-8"?>
<!-- Generator: Adobe Illustrator 25.4.1, SVG Export Plug-In . SVG Version: 6.00 Build 0)  -->
<svg version="1.1" id="Layer_1" xmlns="http://www.w3.org/2000/svg" xmlns:xlink="http://www.w3.org/1999/xlink" x="0px" y="0px"
	 viewBox="0 0 300 50" style="enable-background:new 0 0 300 50;" xml:space="preserve">
<style type="text/css">
	.st0{clip-path:url(#SVGID_00000110439055988900733840000001076662078607004092_);fill:#231F20;}
	.st1{clip-path:url(#SVGID_00000110439055988900733840000001076662078607004092_);fill:#22B0E6;}
</style>
<g>
	<defs>
		<rect id="SVGID_1_" x="217" y="23.4" width="37.9" height="12.9"/>
	</defs>
	<clipPath id="SVGID_00000079444926202148804670000004814464127127691444_">
		<use xlink:href="#SVGID_1_"  style="overflow:visible;"/>
	</clipPath>
	<path style="clip-path:url(#SVGID_00000079444926202148804670000004814464127127691444_);fill:#231F20;" d="M217.3,30.3h2
		c1.6,0,1.9,1,1.9,1.7c0,0.7-0.3,1.7-1.9,1.7h-1v2.2h-1V30.3z M218.2,32.9h1c0.4,0,1-0.2,1-0.9c0-0.7-0.4-0.9-1-0.9h-1V32.9z"/>
	<path style="clip-path:url(#SVGID_00000079444926202148804670000004814464127127691444_);fill:#231F20;" d="M221.8,31.8h0.8v0.8h0
		c0.1-0.4,0.6-0.9,1.2-0.9c0.2,0,0.3,0,0.3,0v0.9c-0.1,0-0.3,0-0.4,0c-0.6,0-1.1,0.5-1.1,1.4v1.9h-0.9V31.8z"/>
	<path style="clip-path:url(#SVGID_00000079444926202148804670000004814464127127691444_);fill:#231F20;" d="M224.3,33.9
		c0-1.2,0.8-2.1,2.1-2.1c1.3,0,2.1,0.9,2.1,2.1c0,1.3-0.8,2.2-2.1,2.2C225.1,36,224.3,35.1,224.3,33.9 M227.5,33.9
		c0-0.7-0.4-1.4-1.2-1.4c-0.8,0-1.2,0.7-1.2,1.4c0,0.7,0.4,1.4,1.2,1.4C227.2,35.3,227.5,34.6,227.5,33.9"/>
	<path style="clip-path:url(#SVGID_00000079444926202148804670000004814464127127691444_);fill:#231F20;" d="M228.6,31.8h0.7v-1.2
		h0.9v1.2h0.8v0.7h-0.8v2.2c0,0.4,0,0.6,0.4,0.6c0.1,0,0.3,0,0.4,0v0.7c-0.2,0-0.4,0-0.6,0c-0.9,0-1.1-0.4-1.1-1v-2.4h-0.7V31.8z"/>
	<path style="clip-path:url(#SVGID_00000079444926202148804670000004814464127127691444_);fill:#231F20;" d="M232.3,34.1
		c0,0.6,0.3,1.2,1.1,1.2c0.5,0,0.8-0.2,1-0.7h0.9c-0.2,0.9-1,1.4-1.9,1.4c-1.3,0-2-0.9-2-2.1c0-1.2,0.8-2.2,2-2.2
		c1.3,0,2.1,1.2,1.9,2.4H232.3z M234.4,33.5c0-0.6-0.4-1.1-1-1.1c-0.6,0-1.1,0.5-1.1,1.1H234.4z"/>
	<path style="clip-path:url(#SVGID_00000079444926202148804670000004814464127127691444_);fill:#231F20;" d="M238.7,33.2
		c-0.1-0.5-0.4-0.8-0.9-0.8c-0.5,0-1.1,0.2-1.1,1.5c0,0.7,0.3,1.4,1.1,1.4c0.5,0,0.9-0.3,1-0.9h0.9c-0.2,1.1-0.8,1.6-1.9,1.6
		c-1.3,0-2-0.9-2-2.1c0-1.2,0.7-2.2,2-2.2c0.9,0,1.8,0.5,1.8,1.5H238.7z"/>
	<path style="clip-path:url(#SVGID_00000079444926202148804670000004814464127127691444_);fill:#231F20;" d="M239.8,31.8h0.7v-1.2
		h0.9v1.2h0.8v0.7h-0.8v2.2c0,0.4,0,0.6,0.4,0.6c0.1,0,0.3,0,0.4,0v0.7c-0.2,0-0.4,0-0.6,0c-0.9,0-1.1-0.4-1.1-1v-2.4h-0.7V31.8z"/>
	<path style="clip-path:url(#SVGID_00000079444926202148804670000004814464127127691444_);fill:#231F20;" d="M243.3,30.3h0.9v0.9
		h-0.9V30.3z M243.3,31.8h0.9v4.1h-0.9V31.8z"/>
	<polygon style="clip-path:url(#SVGID_00000079444926202148804670000004814464127127691444_);fill:#231F20;" points="244.8,31.8 
		245.8,31.8 247,35 247.1,35 248.3,31.8 249.2,31.8 247.5,35.9 246.5,35.9 	"/>
	<path style="clip-path:url(#SVGID_00000079444926202148804670000004814464127127691444_);fill:#231F20;" d="M250.4,34.1
		c0,0.6,0.3,1.2,1.1,1.2c0.5,0,0.8-0.2,1-0.7h0.9c-0.2,0.9-1,1.4-1.8,1.4c-1.3,0-2-0.9-2-2.1c0-1.2,0.8-2.2,2-2.2
		c1.3,0,2.1,1.2,1.9,2.4H250.4z M252.5,33.5c0-0.6-0.4-1.1-1-1.1c-0.6,0-1.1,0.5-1.1,1.1H252.5z"/>
	<path style="clip-path:url(#SVGID_00000079444926202148804670000004814464127127691444_);fill:#22B0E6;" d="M241.5,29.3
		c-0.6-2.2-2.4-4-4.6-4.6c-0.2-0.7-0.8-1.2-1.6-1.2c-0.8,0-1.4,0.5-1.6,1.2c-2.2,0.6-4,2.3-4.6,4.6l-0.1,0.3h1.4l0-0.1
		c0.5-1.6,1.8-2.9,3.4-3.4c0.3,0.5,0.8,0.8,1.4,0.8c0.6,0,1.2-0.3,1.4-0.8c1.6,0.5,2.9,1.7,3.4,3.4l0,0.1h1.4L241.5,29.3z"/>
	<path style="clip-path:url(#SVGID_00000079444926202148804670000004814464127127691444_);fill:#231F20;" d="M254.3,35.2
		c0.2,0,0.4,0.2,0.4,0.4s-0.2,0.4-0.4,0.4c-0.2,0-0.4-0.2-0.4-0.4S254.1,35.2,254.3,35.2 M254.6,35.6c0-0.2-0.1-0.3-0.3-0.3
		c-0.2,0-0.3,0.2-0.3,0.3c0,0.2,0.1,0.3,0.3,0.3C254.5,36,254.6,35.8,254.6,35.6 M254.1,35.4h0.2c0.1,0,0.2,0,0.2,0.1
		c0,0.1-0.1,0.1-0.1,0.1l0.1,0.2h-0.1l-0.1-0.2h-0.1v0.2h-0.1V35.4z M254.3,35.6c0.1,0,0.1,0,0.1-0.1c0-0.1-0.1-0.1-0.1-0.1h-0.1
		L254.3,35.6L254.3,35.6z"/>
</g>
</svg>
