<svg xmlns="http://www.w3.org/2000/svg" viewBox="0 0 300 600"><path d="M36.4 97.9l6.2 18.2h.1l5.8-18.2h8.2v26.4h-5.4v-18.7h-.1l-6.5 18.7h-4.5l-6.5-18.5h-.1v18.5h-5.4V97.9h8.2zM60.7 111.1c.1-1.2.4-2.3.9-3.1.5-.8 1.2-1.5 2.1-2 .8-.5 1.8-.8 2.8-1.1 1-.2 2.1-.3 3.2-.3 1 0 1.9.1 2.9.2s1.9.4 2.7.8c.8.4 1.5.9 2 1.6s.8 1.6.8 2.8v10c0 .9 0 1.7.1 2.5s.3 1.4.5 1.8h-5.3c-.1-.3-.2-.6-.2-.9-.1-.3-.1-.6-.1-.9-.8.9-1.8 1.5-3 1.8-1.1.3-2.3.5-3.5.5-.9 0-1.8-.1-2.6-.3-.8-.2-1.5-.6-2.1-1-.6-.5-1.1-1.1-1.4-1.8-.3-.7-.5-1.6-.5-2.6 0-1.1.2-2 .6-2.7s.9-1.3 1.5-1.7c.6-.4 1.3-.7 2.1-.9.8-.2 1.6-.4 2.3-.5.8-.1 1.6-.2 2.3-.3.8-.1 1.4-.2 2-.3.6-.1 1.1-.4 1.4-.6.3-.3.5-.7.5-1.2 0-.6-.1-1-.3-1.4-.2-.3-.4-.6-.7-.8-.3-.2-.7-.3-1.1-.4-.4-.1-.8-.1-1.3-.1-1 0-1.8.2-2.4.7-.6.4-.9 1.2-1 2.2h-5.2zm12.1 3.9c-.2.2-.5.4-.8.5s-.7.2-1.1.3c-.4.1-.8.1-1.2.2-.4 0-.8.1-1.3.2l-1.2.3c-.4.1-.7.3-1 .5-.3.2-.5.5-.7.8-.2.3-.3.7-.3 1.2s.1.9.3 1.2c.2.3.4.6.7.8s.6.3 1 .4c.4.1.8.1 1.2.1 1 0 1.8-.2 2.4-.5.6-.3 1-.8 1.3-1.2s.4-1 .5-1.5c.1-.5.1-.9.1-1.2V115zM87.5 97.9v14.2l6.6-6.9h6.2l-7.2 7 8 12.1h-6.4l-5.3-8.5-2 2v6.6h-5.3V97.9h5.4zM102.8 102.3V98h5.3v4.3h-5.3zm5.3 2.9v19.1h-5.3v-19.1h5.3zM116.9 105.2v2.7h.1c.7-1.1 1.5-1.9 2.6-2.4s2.1-.8 3.3-.8c1.4 0 2.6.2 3.5.6.9.4 1.6.9 2.1 1.6.5.7.9 1.5 1.1 2.5.2 1 .3 2.1.3 3.2v11.8h-5.3v-10.8c0-1.6-.2-2.8-.7-3.5-.5-.8-1.4-1.2-2.6-1.2-1.4 0-2.5.4-3.1 1.3-.6.9-1 2.3-1 4.2v10h-5.3v-19.1h5zM151.6 125.8c-.2 1-.7 1.9-1.4 2.8s-1.7 1.6-3 2.2c-1.3.6-3.1.9-5.3.9-.9 0-1.9-.1-2.9-.4s-1.9-.6-2.7-1.1c-.8-.5-1.5-1.1-2-1.9-.5-.8-.8-1.7-.9-2.8h5.2c.2 1 .7 1.7 1.4 2.1.7.4 1.5.6 2.5.6 1.5 0 2.6-.4 3.2-1.3.7-.9 1-2 1-3.4V121h-.1c-.6 1-1.4 1.8-2.4 2.2-1 .5-2.2.7-3.3.7-1.4 0-2.7-.3-3.7-.8s-1.9-1.2-2.6-2.1c-.7-.9-1.2-1.9-1.5-3.1-.3-1.2-.5-2.4-.5-3.7 0-1.2.2-2.4.5-3.6.4-1.1.9-2.2 1.6-3 .7-.9 1.5-1.6 2.6-2.1 1-.5 2.2-.8 3.5-.8 1.3 0 2.4.2 3.3.7.9.5 1.7 1.3 2.4 2.4h.1v-2.6h5v17.9c.3.8.2 1.7 0 2.7zm-7.2-6.4c.6-.3 1-.7 1.4-1.2.4-.5.6-1.1.8-1.7.2-.6.3-1.3.3-2 0-.8-.1-1.5-.2-2.2-.1-.7-.4-1.3-.7-1.9-.3-.5-.8-1-1.4-1.3-.6-.3-1.3-.5-2.1-.5-.7 0-1.4.1-1.9.4-.5.3-1 .7-1.3 1.2-.4.5-.6 1.1-.8 1.7-.2.7-.2 1.3-.2 2.1 0 .7.1 1.4.2 2.1.1.7.4 1.3.7 1.8s.8 1 1.3 1.3c.5.3 1.2.5 2 .5.7.1 1.3 0 1.9-.3zM170.2 119.6c.2.4.5.7.9 1 .4.3.8.5 1.3.6.5.1 1 .2 1.5.2.4 0 .8 0 1.2-.1.4-.1.8-.2 1.1-.4.3-.2.6-.4.8-.7.2-.3.3-.7.3-1.2 0-.8-.5-1.4-1.6-1.8-1-.4-2.5-.8-4.4-1.2-.8-.2-1.5-.4-2.2-.6-.7-.2-1.4-.5-1.9-.9-.6-.4-1-.9-1.4-1.4-.3-.6-.5-1.3-.5-2.1 0-1.2.2-2.2.7-3 .5-.8 1.1-1.4 1.9-1.9.8-.5 1.7-.8 2.7-1s2-.3 3-.3 2 .1 3 .3c1 .2 1.8.5 2.6 1s1.4 1.1 1.9 1.9c.5.8.8 1.8.9 2.9h-5c-.1-1-.5-1.7-1.1-2.1-.7-.4-1.5-.5-2.4-.5-.3 0-.6 0-1 .1-.3 0-.7.1-.9.2-.3.1-.5.3-.7.5-.2.2-.3.5-.3.9 0 .5.2.9.5 1.1.3.3.8.5 1.4.7.6.2 1.2.4 1.9.5.7.1 1.4.3 2.2.5.8.2 1.5.4 2.2.6.7.2 1.4.6 1.9 1 .6.4 1 .9 1.4 1.5.3.6.5 1.4.5 2.2 0 1.3-.3 2.3-.8 3.2s-1.2 1.5-2 2.1c-.8.5-1.7.9-2.8 1.1-1 .2-2.1.3-3.2.3s-2.2-.1-3.3-.3-2-.6-2.8-1.1c-.8-.5-1.5-1.2-2-2.1s-.8-1.9-.9-3.2h5c0 .6.1 1.1.4 1.5zM198.2 124.4v-2.7h-.1c-.7 1.1-1.5 1.9-2.6 2.4s-2.1.7-3.3.7c-1.4 0-2.6-.2-3.5-.6-.9-.4-1.6-.9-2.1-1.6-.5-.7-.9-1.5-1.1-2.5-.2-1-.3-2.1-.3-3.2v-11.8h5.3V116c0 1.6.2 2.8.7 3.5.5.8 1.4 1.2 2.6 1.2 1.4 0 2.5-.4 3.1-1.3s1-2.3 1-4.2v-10h5.3v19.1h-5zM211.9 105.2v3.6h.1c.2-.6.6-1.1 1-1.6s.9-.9 1.4-1.3c.5-.4 1.1-.6 1.7-.8.6-.2 1.3-.3 1.9-.3.3 0 .7.1 1.1.2v4.9c-.2 0-.5-.1-.9-.1s-.7-.1-1-.1c-1 0-1.8.2-2.4.5-.7.3-1.2.8-1.6 1.3-.4.6-.7 1.2-.9 1.9-.2.7-.3 1.5-.3 2.4v8.6h-5.3v-19.1h5.2zM225.9 119.8c.8.8 1.9 1.1 3.4 1.1 1.1 0 2-.3 2.7-.8.8-.5 1.2-1.1 1.4-1.7h4.6c-.7 2.3-1.9 3.9-3.4 4.9-1.5 1-3.4 1.5-5.5 1.5-1.5 0-2.9-.2-4.1-.7-1.2-.5-2.2-1.2-3.1-2.1-.8-.9-1.5-1.9-1.9-3.2-.5-1.2-.7-2.6-.7-4.1 0-1.4.2-2.8.7-4 .5-1.2 1.1-2.3 2-3.2.9-.9 1.9-1.6 3.1-2.1s2.5-.8 4-.8c1.6 0 3 .3 4.3.9s2.2 1.5 3 2.5c.8 1.1 1.3 2.3 1.7 3.6.3 1.4.5 2.8.4 4.3h-13.8c0 1.9.4 3.1 1.2 3.9zm5.9-10.1c-.6-.7-1.6-1-2.9-1-.8 0-1.5.1-2.1.4-.6.3-1 .6-1.3 1.1-.3.4-.6.9-.7 1.3-.1.5-.2.9-.2 1.3h8.5c-.2-1.4-.6-2.4-1.3-3.1z"/><g><path d="M34.7 170.1c-1 .7-2.4 1-4.2 1-.5 0-1.1 0-1.6-.1-.5 0-1.1-.1-1.6-.1v-4.3c.5 0 1 .1 1.5.1s1 .1 1.6 0c.7-.1 1.2-.3 1.5-.8.3-.5.5-1 .5-1.6 0-.4-.1-.8-.2-1.2l-6.7-17.9h5.6l4.3 13.1h.1l4.2-13.1h5.4l-8 21.5c-.6 1.6-1.4 2.7-2.4 3.4zM46.6 150.7c.5-1.2 1.1-2.3 2-3.2.9-.9 1.9-1.6 3.1-2 1.2-.5 2.6-.7 4.1-.7 1.5 0 2.9.2 4.1.7 1.2.5 2.3 1.2 3.1 2 .9.9 1.5 1.9 2 3.2.5 1.2.7 2.6.7 4.2 0 1.5-.2 2.9-.7 4.1-.5 1.2-1.1 2.3-2 3.2-.9.9-1.9 1.5-3.1 2s-2.6.7-4.1.7c-1.5 0-2.9-.2-4.1-.7s-2.2-1.1-3.1-2c-.9-.9-1.5-1.9-2-3.2-.5-1.2-.7-2.6-.7-4.1 0-1.6.3-3 .7-4.2zm4.8 6.4c.1.7.4 1.4.8 2 .4.6.8 1 1.4 1.4.6.3 1.3.5 2.2.5.9 0 1.6-.2 2.2-.5.6-.3 1.1-.8 1.4-1.4.4-.6.6-1.2.8-2 .1-.7.2-1.5.2-2.2 0-.8-.1-1.5-.2-2.3-.1-.7-.4-1.4-.8-2-.4-.6-.8-1-1.4-1.4-.6-.4-1.4-.5-2.2-.5-.9 0-1.6.2-2.2.5-.6.4-1.1.8-1.4 1.4-.4.6-.6 1.2-.8 2-.1.7-.2 1.5-.2 2.3 0 .7.1 1.4.2 2.2zM81.8 164.4v-2.7h-.1c-.7 1.1-1.5 1.9-2.6 2.4s-2.1.7-3.3.7c-1.4 0-2.6-.2-3.5-.6-.9-.4-1.6-.9-2.1-1.6-.5-.7-.9-1.5-1.1-2.5-.2-1-.3-2.1-.3-3.2v-11.8h5.3V156c0 1.6.2 2.8.7 3.5.5.8 1.4 1.2 2.6 1.2 1.4 0 2.5-.4 3.1-1.3.6-.9 1-2.3 1-4.2v-10h5.3v19.1h-5zM95.4 145.2v3.6h.1c.2-.6.6-1.1 1-1.6s.9-.9 1.4-1.3c.5-.4 1.1-.6 1.7-.8.6-.2 1.3-.3 1.9-.3.3 0 .7.1 1.1.2v4.9c-.2 0-.5-.1-.9-.1-.3 0-.7-.1-1-.1-1 0-1.8.2-2.4.5-.7.3-1.2.8-1.6 1.3-.4.6-.7 1.2-.9 1.9-.2.7-.3 1.5-.3 2.4v8.6h-5.3v-19.1h5.2zM119.8 137.9v26.4h-5.3v-26.4h5.3zM123.7 142.3V138h5.3v4.3h-5.3zm5.3 2.9v19.1h-5.3v-19.1h5.3zM130.8 148.7v-3.5h3.1v-1.5c0-1.7.5-3.1 1.6-4.2s2.7-1.6 4.8-1.6c.5 0 .9 0 1.4.1.5 0 .9.1 1.4.1v3.9c-.6-.1-1.3-.1-1.9-.1-.7 0-1.2.2-1.5.5s-.5.9-.5 1.7v1.1h3.6v3.5h-3.6v15.6h-5.3v-15.6h-3.1zM150.4 159.8c.8.8 1.9 1.1 3.4 1.1 1.1 0 2-.3 2.7-.8.8-.5 1.2-1.1 1.4-1.7h4.6c-.7 2.3-1.9 3.9-3.4 4.9-1.5 1-3.4 1.5-5.5 1.5-1.5 0-2.9-.2-4.1-.7-1.2-.5-2.2-1.2-3.1-2.1-.8-.9-1.5-1.9-1.9-3.2-.5-1.2-.7-2.6-.7-4.1 0-1.4.2-2.8.7-4 .5-1.2 1.1-2.3 2-3.2.9-.9 1.9-1.6 3.1-2.1s2.5-.8 4-.8c1.6 0 3 .3 4.3.9s2.2 1.5 3 2.5c.8 1.1 1.3 2.3 1.7 3.6.3 1.4.5 2.8.4 4.3h-13.8c0 1.9.4 3.1 1.2 3.9zm5.9-10.1c-.6-.7-1.6-1-2.9-1-.8 0-1.5.1-2.1.4-.6.3-1 .6-1.3 1.1-.3.4-.6.9-.7 1.3-.1.5-.2.9-.2 1.3h8.5c-.2-1.4-.6-2.4-1.3-3.1z"/></g><g><path d="M27.8 182.3V178h5.3v4.3h-5.3zm5.3 2.9v19.1h-5.3v-19.1h5.3zM41.9 185.2v2.7h.1c.7-1.1 1.5-1.9 2.6-2.4s2.1-.8 3.3-.8c1.4 0 2.6.2 3.5.6.9.4 1.6.9 2.1 1.6.5.7.9 1.5 1.1 2.5.2 1 .3 2.1.3 3.2v11.8h-5.3v-10.8c0-1.6-.2-2.8-.7-3.5-.5-.8-1.4-1.2-2.6-1.2-1.4 0-2.5.4-3.1 1.3-.6.9-1 2.3-1 4.2v10h-5.3v-19.1h5zM62.9 199.6c.2.4.5.7.9 1 .4.3.8.5 1.3.6.5.1 1 .2 1.5.2.4 0 .8 0 1.2-.1.4-.1.8-.2 1.1-.4.3-.2.6-.4.8-.7.2-.3.3-.7.3-1.2 0-.8-.5-1.4-1.6-1.8-1-.4-2.5-.8-4.4-1.2-.8-.2-1.5-.4-2.2-.6-.7-.2-1.4-.5-1.9-.9-.6-.4-1-.9-1.4-1.4-.3-.6-.5-1.3-.5-2.1 0-1.2.2-2.2.7-3 .5-.8 1.1-1.4 1.9-1.9.8-.5 1.7-.8 2.7-1 1-.2 2-.3 3-.3s2 .1 3 .3c1 .2 1.8.5 2.6 1s1.4 1.1 1.9 1.9c.5.8.8 1.8.9 2.9h-5c-.1-1-.5-1.7-1.1-2.1-.7-.4-1.5-.5-2.4-.5-.3 0-.6 0-1 .1-.3 0-.7.1-.9.2-.3.1-.5.3-.7.5-.2.2-.3.5-.3.9 0 .5.2.9.5 1.1.3.3.8.5 1.4.7.6.2 1.2.4 1.9.5.7.1 1.4.3 2.2.5.8.2 1.5.4 2.2.6s1.4.6 1.9 1c.6.4 1 .9 1.4 1.5.3.6.5 1.4.5 2.2 0 1.3-.3 2.3-.8 3.2-.5.9-1.2 1.5-2 2.1-.8.5-1.7.9-2.8 1.1-1 .2-2.1.3-3.2.3s-2.2-.1-3.3-.3c-1.1-.2-2-.6-2.8-1.1-.8-.5-1.5-1.2-2-2.1-.5-.9-.8-1.9-.9-3.2h5c0 .6.2 1.1.4 1.5zM91 204.4v-2.7h-.1c-.7 1.1-1.5 1.9-2.6 2.4s-2.1.7-3.3.7c-1.4 0-2.6-.2-3.5-.6-.9-.4-1.6-.9-2.1-1.6-.5-.7-.9-1.5-1.1-2.5-.2-1-.3-2.1-.3-3.2v-11.8h5.3V196c0 1.6.2 2.8.7 3.5.5.8 1.4 1.2 2.6 1.2 1.4 0 2.5-.4 3.1-1.3.6-.9 1-2.3 1-4.2v-10H96v19.1h-5zM104.6 185.2v3.6h.1c.2-.6.6-1.1 1-1.6s.9-.9 1.4-1.3c.5-.4 1.1-.6 1.7-.8.6-.2 1.3-.3 1.9-.3.3 0 .7.1 1.1.2v4.9c-.2 0-.5-.1-.9-.1-.3 0-.7-.1-1-.1-1 0-1.8.2-2.4.5-.7.3-1.2.8-1.6 1.3-.4.6-.7 1.2-.9 1.9-.2.7-.3 1.5-.3 2.4v8.6h-5.3v-19.1h5.2zM113.5 191.1c.1-1.2.4-2.3.9-3.1.5-.8 1.2-1.5 2.1-2 .8-.5 1.8-.8 2.8-1.1 1-.2 2.1-.3 3.2-.3 1 0 1.9.1 2.9.2s1.9.4 2.7.8c.8.4 1.5.9 2 1.6s.8 1.6.8 2.8v10c0 .9 0 1.7.1 2.5s.3 1.4.5 1.8h-5.3c-.1-.3-.2-.6-.2-.9-.1-.3-.1-.6-.1-.9-.8.9-1.8 1.5-3 1.8-1.1.3-2.3.5-3.5.5-.9 0-1.8-.1-2.6-.3-.8-.2-1.5-.6-2.1-1-.6-.5-1.1-1.1-1.4-1.8-.3-.7-.5-1.6-.5-2.6 0-1.1.2-2 .6-2.7s.9-1.3 1.5-1.7c.6-.4 1.3-.7 2.1-.9.8-.2 1.6-.4 2.3-.5.8-.1 1.6-.2 2.3-.3.8-.1 1.4-.2 2-.3.6-.1 1.1-.4 1.4-.6.3-.3.5-.7.5-1.2 0-.6-.1-1-.3-1.4-.2-.3-.4-.6-.7-.8-.3-.2-.7-.3-1.1-.4-.4-.1-.8-.1-1.3-.1-1 0-1.8.2-2.4.7-.6.4-.9 1.2-1 2.2h-5.2zm12.1 3.9c-.2.2-.5.4-.8.5s-.7.2-1.1.3c-.4.1-.8.1-1.2.2-.4 0-.8.1-1.3.2l-1.2.3c-.4.1-.7.3-1 .5-.3.2-.5.5-.7.8-.2.3-.3.7-.3 1.2s.1.9.3 1.2c.2.3.4.6.7.8s.6.3 1 .4c.4.1.8.1 1.2.1 1 0 1.8-.2 2.4-.5.6-.3 1-.8 1.3-1.2s.4-1 .5-1.5c.1-.5.1-.9.1-1.2V195zM139.6 185.2v2.7h.1c.7-1.1 1.5-1.9 2.6-2.4s2.1-.8 3.3-.8c1.4 0 2.6.2 3.5.6.9.4 1.6.9 2.1 1.6.5.7.9 1.5 1.1 2.5.2 1 .3 2.1.3 3.2v11.8h-5.3v-10.8c0-1.6-.2-2.8-.7-3.5-.5-.8-1.4-1.2-2.6-1.2-1.4 0-2.5.4-3.1 1.3s-1 2.3-1 4.2v10h-5.3v-19.1h5zM165.3 188.7c-.8 0-1.5.2-2.1.6-.6.4-1 .9-1.4 1.5-.4.6-.6 1.3-.8 2-.1.7-.2 1.4-.2 2.2 0 .7.1 1.4.2 2.1.1.7.4 1.4.7 1.9s.8 1.1 1.4 1.4 1.3.6 2.1.6c1.3 0 2.2-.4 2.9-1.1.7-.7 1.1-1.6 1.3-2.8h5.1c-.3 2.5-1.3 4.5-3 5.8s-3.7 2-6.3 2c-1.4 0-2.7-.2-3.9-.7-1.2-.5-2.2-1.2-3.1-2-.8-.9-1.5-1.9-2-3.1-.5-1.2-.7-2.5-.7-3.9 0-1.5.2-2.9.6-4.1.4-1.3 1.1-2.4 1.9-3.3.8-.9 1.9-1.6 3.1-2.2 1.2-.5 2.6-.8 4.1-.8 1.1 0 2.2.1 3.3.4s2 .7 2.8 1.4c.8.6 1.5 1.4 2 2.3.5.9.8 2 .9 3.2h-5.1c-.2-2.3-1.5-3.4-3.8-3.4zM182.7 199.8c.8.8 1.9 1.1 3.4 1.1 1.1 0 2-.3 2.7-.8.8-.5 1.2-1.1 1.4-1.7h4.6c-.7 2.3-1.9 3.9-3.4 4.9-1.5 1-3.4 1.5-5.5 1.5-1.5 0-2.9-.2-4.1-.7-1.2-.5-2.2-1.2-3.1-2.1-.8-.9-1.5-1.9-1.9-3.2-.5-1.2-.7-2.6-.7-4.1 0-1.4.2-2.8.7-4 .5-1.2 1.1-2.3 2-3.2.9-.9 1.9-1.6 3.1-2.1s2.5-.8 4-.8c1.6 0 3 .3 4.3.9s2.2 1.5 3 2.5c.8 1.1 1.3 2.3 1.7 3.6.3 1.4.5 2.8.4 4.3h-13.8c0 1.9.4 3.1 1.2 3.9zm6-10.1c-.6-.7-1.6-1-2.9-1-.8 0-1.5.1-2.1.4-.6.3-1 .6-1.3 1.1-.3.4-.6.9-.7 1.3-.1.5-.2.9-.2 1.3h8.5c-.3-1.4-.7-2.4-1.3-3.1z"/></g><g><path d="M27.8 222.3V218h5.3v4.3h-5.3zm5.3 2.9v19.1h-5.3v-19.1h5.3zM41.3 239.6c.2.4.5.7.9 1 .4.3.8.5 1.3.6.5.1 1 .2 1.5.2.4 0 .8 0 1.2-.1.4-.1.8-.2 1.1-.4.3-.2.6-.4.8-.7.2-.3.3-.7.3-1.2 0-.8-.5-1.4-1.6-1.8-1-.4-2.5-.8-4.4-1.2-.8-.2-1.5-.4-2.2-.6-.7-.2-1.4-.5-1.9-.9-.6-.4-1-.9-1.4-1.4-.3-.6-.5-1.3-.5-2.1 0-1.2.2-2.2.7-3 .5-.8 1.1-1.4 1.9-1.9.8-.5 1.7-.8 2.7-1 1-.2 2-.3 3-.3s2 .1 3 .3c1 .2 1.8.5 2.6 1s1.4 1.1 1.9 1.9c.5.8.8 1.8.9 2.9h-5c-.1-1-.5-1.7-1.1-2.1-.7-.4-1.5-.5-2.4-.5-.3 0-.6 0-1 .1-.3 0-.7.1-.9.2-.3.1-.5.3-.7.5-.2.2-.3.5-.3.9 0 .5.2.9.5 1.1.3.3.8.5 1.4.7.6.2 1.2.4 1.9.5.7.1 1.4.3 2.2.5.8.2 1.5.4 2.2.6s1.4.6 1.9 1c.6.4 1 .9 1.4 1.5.3.6.5 1.4.5 2.2 0 1.3-.3 2.3-.8 3.2-.5.9-1.2 1.5-2 2.1-.8.5-1.7.9-2.8 1.1-1 .2-2.1.3-3.2.3s-2.2-.1-3.3-.3c-1.1-.2-2-.6-2.8-1.1-.8-.5-1.5-1.2-2-2.1-.5-.9-.8-1.9-.9-3.2h5c0 .6.2 1.1.4 1.5zM70.7 239.6c.2.4.5.7.9 1 .4.3.8.5 1.3.6.5.1 1 .2 1.5.2.4 0 .8 0 1.2-.1.4-.1.8-.2 1.1-.4.3-.2.6-.4.8-.7.2-.3.3-.7.3-1.2 0-.8-.5-1.4-1.6-1.8-1-.4-2.5-.8-4.4-1.2-.8-.2-1.5-.4-2.2-.6-.7-.2-1.4-.5-1.9-.9-.6-.4-1-.9-1.4-1.4-.3-.6-.5-1.3-.5-2.1 0-1.2.2-2.2.7-3 .5-.8 1.1-1.4 1.9-1.9.8-.5 1.7-.8 2.7-1 1-.2 2-.3 3-.3s2 .1 3 .3c1 .2 1.8.5 2.6 1s1.4 1.1 1.9 1.9c.5.8.8 1.8.9 2.9h-5c-.1-1-.5-1.7-1.1-2.1-.7-.4-1.5-.5-2.4-.5-.3 0-.6 0-1 .1-.3 0-.7.1-.9.2-.3.1-.5.3-.7.5-.2.2-.3.5-.3.9 0 .5.2.9.5 1.1.3.3.8.5 1.4.7.6.2 1.2.4 1.9.5.7.1 1.4.3 2.2.5.8.2 1.5.4 2.2.6s1.4.6 1.9 1c.6.4 1 .9 1.4 1.5.3.6.5 1.4.5 2.2 0 1.3-.3 2.3-.8 3.2-.5.9-1.2 1.5-2 2.1-.8.5-1.7.9-2.8 1.1-1 .2-2.1.3-3.2.3s-2.2-.1-3.3-.3c-1.1-.2-2-.6-2.8-1.1-.8-.5-1.5-1.2-2-2.1-.5-.9-.8-1.9-.9-3.2h5c.1.6.2 1.1.4 1.5zM96.4 225.2v3.5h-3.8v9.5c0 .9.1 1.5.4 1.8.3.3.9.4 1.8.4h.9c.3 0 .5-.1.8-.1v4.1c-.4.1-.9.1-1.5.1h-1.6c-.8 0-1.6-.1-2.3-.2-.7-.1-1.4-.3-1.9-.6-.6-.3-1-.8-1.3-1.4-.3-.6-.5-1.4-.5-2.3v-11.3h-3.2v-3.5h3.2v-5.7h5.3v5.7h3.7zM98.7 222.3V218h5.3v4.3h-5.3zm5.2 2.9v19.1h-5.3v-19.1h5.3zM113.1 217.9v26.4h-5.3v-26.4h5.3zM122.3 217.9v26.4H117v-26.4h5.3zM136.2 222.3V218h5.3v4.3h-5.3zm5.3 2.9v19.1h-5.3v-19.1h5.3zM150.3 225.2v2.7h.1c.7-1.1 1.5-1.9 2.6-2.4s2.1-.8 3.3-.8c1.4 0 2.6.2 3.5.6.9.4 1.6.9 2.1 1.6.5.7.9 1.5 1.1 2.5.2 1 .3 2.1.3 3.2v11.8H158v-10.8c0-1.6-.2-2.8-.7-3.5-.5-.8-1.4-1.2-2.6-1.2-1.4 0-2.5.4-3.1 1.3s-1 2.3-1 4.2v10h-5.3v-19.1h5z"/></g><g><path d="M32.1 279.6c.2.4.5.7.9 1 .4.3.8.5 1.3.6.5.1 1 .2 1.5.2.4 0 .8 0 1.2-.1.4-.1.8-.2 1.1-.4.3-.2.6-.4.8-.7.2-.3.3-.7.3-1.2 0-.8-.5-1.4-1.6-1.8-1-.4-2.5-.8-4.4-1.2-.8-.2-1.5-.4-2.2-.6-.7-.2-1.4-.5-1.9-.9-.6-.4-1-.9-1.4-1.4-.3-.6-.5-1.3-.5-2.1 0-1.2.2-2.2.7-3 .5-.8 1.1-1.4 1.9-1.9.8-.5 1.7-.8 2.7-1 1-.2 2-.3 3-.3s2 .1 3 .3c1 .2 1.8.5 2.6 1s1.4 1.1 1.9 1.9c.5.8.8 1.8.9 2.9h-5c-.1-1-.5-1.7-1.1-2.1-.7-.4-1.5-.5-2.4-.5-.3 0-.6 0-1 .1-.3 0-.7.1-.9.2-.3.1-.5.3-.7.5-.2.2-.3.5-.3.9 0 .5.2.9.5 1.1.3.3.8.5 1.4.7.6.2 1.2.4 1.9.5.7.1 1.4.3 2.2.5.8.2 1.5.4 2.2.6s1.4.6 1.9 1c.6.4 1 .9 1.4 1.5.3.6.5 1.4.5 2.2 0 1.3-.3 2.3-.8 3.2-.5.9-1.2 1.5-2 2.1-.8.5-1.7.9-2.8 1.1-1 .2-2.1.3-3.2.3s-2.2-.1-3.3-.3c-1.1-.2-2-.6-2.8-1.1-.8-.5-1.5-1.2-2-2.1-.5-.9-.8-1.9-.9-3.2h5c0 .6.1 1.1.4 1.5zM54.3 290c-1 .7-2.4 1-4.2 1-.5 0-1.1 0-1.6-.1-.5 0-1.1-.1-1.6-.1v-4.3c.5 0 1 .1 1.5.1s1 .1 1.6 0c.7-.1 1.2-.3 1.5-.8.3-.5.5-1 .5-1.6 0-.4-.1-.8-.2-1.2L45 265.2h5.6l4.3 13.1h.1l4.2-13.1h5.4l-8 21.5c-.5 1.6-1.3 2.7-2.3 3.3zM71.1 265.2v2.7h.1c.7-1.1 1.5-1.9 2.6-2.4s2.1-.8 3.3-.8c1.4 0 2.6.2 3.5.6.9.4 1.6.9 2.1 1.6.5.7.9 1.5 1.1 2.5.2 1 .3 2.1.3 3.2v11.8h-5.3v-10.8c0-1.6-.2-2.8-.7-3.5-.5-.8-1.4-1.2-2.6-1.2-1.4 0-2.5.4-3.1 1.3-.6.9-1 2.3-1 4.2v10h-5.3v-19.1h5zM96.8 268.7c-.8 0-1.5.2-2.1.6s-1 .9-1.4 1.5c-.4.6-.6 1.3-.8 2-.1.7-.2 1.4-.2 2.2 0 .7.1 1.4.2 2.1s.4 1.4.7 1.9.8 1.1 1.4 1.4c.6.4 1.3.6 2.1.6 1.3 0 2.2-.4 2.9-1.1.7-.7 1.1-1.6 1.3-2.8h5.1c-.3 2.5-1.3 4.5-3 5.8s-3.7 2-6.3 2c-1.4 0-2.7-.2-3.9-.7-1.2-.5-2.2-1.2-3.1-2-.8-.9-1.5-1.9-2-3.1-.5-1.2-.7-2.5-.7-3.9 0-1.5.2-2.9.6-4.1.4-1.3 1.1-2.4 1.9-3.3.8-.9 1.9-1.6 3.1-2.2s2.6-.8 4.1-.8c1.1 0 2.2.1 3.3.4 1 .3 2 .7 2.8 1.4.8.6 1.5 1.4 2 2.3.5.9.8 2 .9 3.2h-5.1c-.3-2.3-1.5-3.4-3.8-3.4zM135 284.4l-3.4-12.8h-.1l-3.3 12.8h-5.4l-6.1-19.1h5.5l3.5 13h.1l3.2-13h5.1l3.3 12.9h.1l3.5-12.9h5.4l-6 19.1H135zM148.4 262.3V258h5.3v4.3h-5.3zm5.3 2.9v19.1h-5.3v-19.1h5.3zM168 265.2v3.5h-3.8v9.5c0 .9.1 1.5.4 1.8.3.3.9.4 1.8.4h.9c.3 0 .5-.1.8-.1v4.1c-.4.1-.9.1-1.5.1H165c-.8 0-1.6-.1-2.3-.2s-1.4-.3-1.9-.6c-.6-.3-1-.8-1.3-1.4-.3-.6-.5-1.4-.5-2.3v-11.3h-3.2v-3.5h3.2v-5.7h5.3v5.7h3.7zM175.4 257.9v10h.1c.7-1.1 1.5-1.9 2.6-2.4 1-.5 2-.8 3-.8 1.4 0 2.6.2 3.5.6.9.4 1.6.9 2.1 1.6.5.7.9 1.5 1.1 2.5.2 1 .3 2.1.3 3.2v11.8h-5.3v-10.8c0-1.6-.2-2.8-.7-3.5-.5-.8-1.4-1.2-2.6-1.2-1.4 0-2.5.4-3.1 1.3s-1 2.3-1 4.2v10h-5.3V258h5.3z"/></g><g><path d="M34.7 330c-1 .7-2.4 1-4.2 1-.5 0-1.1 0-1.6-.1-.5 0-1.1-.1-1.6-.1v-4.3c.5 0 1 .1 1.5.1s1 .1 1.6 0c.7-.1 1.2-.3 1.5-.8s.5-1 .5-1.6c0-.4-.1-.8-.2-1.2l-6.7-17.9h5.6l4.3 13.1h.1l4.2-13.1h5.4l-8 21.5c-.6 1.7-1.4 2.8-2.4 3.4zM46.6 310.6c.5-1.2 1.1-2.3 2-3.2.9-.9 1.9-1.6 3.1-2 1.2-.5 2.6-.7 4.1-.7 1.5 0 2.9.2 4.1.7 1.2.5 2.3 1.2 3.1 2 .9.9 1.5 1.9 2 3.2.5 1.2.7 2.6.7 4.2s-.2 2.9-.7 4.1c-.5 1.2-1.1 2.3-2 3.2-.9.9-1.9 1.5-3.1 2-1.2.5-2.6.7-4.1.7-1.5 0-2.9-.2-4.1-.7-1.2-.5-2.2-1.1-3.1-2-.9-.9-1.5-1.9-2-3.2-.5-1.2-.7-2.6-.7-4.1s.3-2.9.7-4.2zm4.8 6.4c.1.7.4 1.4.8 2 .4.6.8 1 1.4 1.4.6.3 1.3.5 2.2.5.9 0 1.6-.2 2.2-.5.6-.3 1.1-.8 1.4-1.4.4-.6.6-1.2.8-2s.2-1.5.2-2.2-.1-1.5-.2-2.3c-.1-.7-.4-1.4-.8-2-.4-.6-.8-1-1.4-1.4-.6-.4-1.4-.5-2.2-.5-.9 0-1.6.2-2.2.5-.6.4-1.1.8-1.4 1.4-.4.6-.6 1.2-.8 2-.1.7-.2 1.5-.2 2.3s.1 1.5.2 2.2zM81.8 324.3v-2.7h-.1c-.7 1.1-1.5 1.9-2.6 2.4s-2.1.7-3.3.7c-1.4 0-2.6-.2-3.5-.6-.9-.4-1.6-.9-2.1-1.6-.5-.7-.9-1.5-1.1-2.5-.2-1-.3-2.1-.3-3.2V305h5.3v11c0 1.6.2 2.8.7 3.5.5.8 1.4 1.2 2.6 1.2 1.4 0 2.5-.4 3.1-1.3.6-.9 1-2.3 1-4.2v-10h5.3v19.1h-5zM95.4 305.2v3.6h.1c.2-.6.6-1.1 1-1.6s.9-.9 1.4-1.3c.5-.4 1.1-.6 1.7-.8.6-.2 1.3-.3 1.9-.3.3 0 .7.1 1.1.2v4.9c-.2 0-.5-.1-.9-.1-.3 0-.7-.1-1-.1-1 0-1.8.2-2.4.5-.7.3-1.2.8-1.6 1.3-.4.6-.7 1.2-.9 1.9-.2.7-.3 1.5-.3 2.4v8.6h-5.3v-19.1h5.2zM132.5 325.8c-.2 1-.7 1.9-1.4 2.8-.7.9-1.7 1.6-3 2.2-1.3.6-3.1.9-5.3.9-.9 0-1.9-.1-2.9-.4-1-.2-1.9-.6-2.7-1.1-.8-.5-1.5-1.1-2-1.9-.5-.8-.8-1.7-.9-2.8h5.2c.2 1 .7 1.7 1.4 2.1.7.4 1.5.6 2.5.6 1.5 0 2.6-.4 3.2-1.3.7-.9 1-2 1-3.4V321h-.1c-.6 1-1.4 1.8-2.4 2.2-1 .5-2.2.7-3.3.7-1.4 0-2.7-.3-3.7-.8s-1.9-1.2-2.6-2.1c-.7-.9-1.2-1.9-1.5-3.1-.3-1.2-.5-2.4-.5-3.7 0-1.2.2-2.4.5-3.6.4-1.1.9-2.2 1.6-3 .7-.9 1.5-1.6 2.6-2.1 1-.5 2.2-.8 3.5-.8 1.3 0 2.4.2 3.3.7.9.5 1.7 1.3 2.4 2.4h.1v-2.6h5v17.9c.3.8.2 1.7 0 2.7zm-7.2-6.4c.6-.3 1-.7 1.4-1.2.4-.5.6-1.1.8-1.7.2-.6.3-1.3.3-2 0-.8-.1-1.5-.2-2.2-.1-.7-.4-1.3-.7-1.9-.3-.5-.8-1-1.4-1.3-.6-.3-1.3-.5-2.1-.5-.7 0-1.4.1-1.9.4s-1 .7-1.3 1.2c-.4.5-.6 1.1-.8 1.7-.2.7-.2 1.3-.2 2.1 0 .7.1 1.4.2 2.1s.4 1.3.7 1.8c.3.5.8 1 1.3 1.3.5.3 1.2.5 2 .5.6.1 1.3 0 1.9-.3zM136.7 310.6c.5-1.2 1.1-2.3 2-3.2.9-.9 1.9-1.6 3.1-2 1.2-.5 2.6-.7 4.1-.7s2.9.2 4.1.7c1.2.5 2.3 1.2 3.1 2 .9.9 1.5 1.9 2 3.2.5 1.2.7 2.6.7 4.2s-.2 2.9-.7 4.1c-.5 1.2-1.1 2.3-2 3.2s-1.9 1.5-3.1 2c-1.2.5-2.6.7-4.1.7s-2.9-.2-4.1-.7c-1.2-.5-2.2-1.1-3.1-2s-1.5-1.9-2-3.2c-.5-1.2-.7-2.6-.7-4.1s.3-2.9.7-4.2zm4.8 6.4c.1.7.4 1.4.8 2 .4.6.8 1 1.4 1.4.6.3 1.3.5 2.2.5.9 0 1.6-.2 2.2-.5.6-.3 1.1-.8 1.4-1.4.4-.6.6-1.2.8-2 .1-.7.2-1.5.2-2.2s-.1-1.5-.2-2.3c-.1-.7-.4-1.4-.8-2s-.8-1-1.4-1.4c-.6-.4-1.3-.5-2.2-.5-.9 0-1.6.2-2.2.5-.6.4-1.1.8-1.4 1.4s-.6 1.2-.8 2c-.1.7-.2 1.5-.2 2.3s.1 1.5.2 2.2zM158.7 311.1c.1-1.2.4-2.3.9-3.1.5-.8 1.2-1.5 2.1-2 .8-.5 1.8-.8 2.8-1.1 1-.2 2.1-.3 3.2-.3 1 0 1.9.1 2.9.2s1.9.4 2.7.8c.8.4 1.5.9 2 1.6.5.7.8 1.6.8 2.8v10c0 .9 0 1.7.1 2.5s.3 1.4.5 1.8h-5.3c-.1-.3-.2-.6-.2-.9-.1-.3-.1-.6-.1-.9-.8.9-1.8 1.5-3 1.8-1.1.3-2.3.5-3.5.5-.9 0-1.8-.1-2.6-.3-.8-.2-1.5-.6-2.1-1-.6-.5-1.1-1.1-1.4-1.8-.3-.7-.5-1.6-.5-2.6 0-1.1.2-2 .6-2.7.4-.7.9-1.3 1.5-1.7.6-.4 1.3-.7 2.1-.9.8-.2 1.6-.4 2.3-.5.8-.1 1.6-.2 2.3-.3.8-.1 1.4-.2 2-.3.6-.1 1.1-.4 1.4-.6.3-.3.5-.7.5-1.2 0-.6-.1-1-.3-1.4-.2-.3-.4-.6-.7-.8-.3-.2-.7-.3-1.1-.4s-.8-.1-1.3-.1c-1 0-1.8.2-2.4.7-.6.4-.9 1.2-1 2.2h-5.2zm12.1 3.9c-.2.2-.5.4-.8.5s-.7.2-1.1.3c-.4.1-.8.1-1.2.2-.4 0-.8.1-1.3.2l-1.2.3c-.4.1-.7.3-1 .5-.3.2-.5.5-.7.8-.2.3-.3.7-.3 1.2s.1.9.3 1.2c.2.3.4.6.7.8.3.2.6.3 1 .4.4.1.8.1 1.2.1 1 0 1.8-.2 2.4-.5s1-.8 1.3-1.2c.3-.5.4-1 .5-1.5s.1-.9.1-1.2V315zM185.2 297.9v26.4h-5.3v-26.4h5.3zM193.4 319.6c.2.4.5.7.9 1 .4.3.8.5 1.3.6s1 .2 1.5.2c.4 0 .8 0 1.2-.1.4-.1.8-.2 1.1-.4.3-.2.6-.4.8-.7s.3-.7.3-1.2c0-.8-.5-1.4-1.6-1.8-1-.4-2.5-.8-4.4-1.2-.8-.2-1.5-.4-2.2-.6-.7-.2-1.4-.5-1.9-.9-.6-.4-1-.9-1.4-1.4-.3-.6-.5-1.3-.5-2.1 0-1.2.2-2.2.7-3 .5-.8 1.1-1.4 1.9-1.9.8-.5 1.7-.8 2.7-1 1-.2 2-.3 3-.3s2 .1 3 .3 1.8.5 2.6 1 1.4 1.1 1.9 1.9.8 1.8.9 2.9h-5c-.1-1-.5-1.7-1.1-2.1-.7-.4-1.5-.5-2.4-.5-.3 0-.6 0-1 .1-.3 0-.7.1-.9.2-.3.1-.5.3-.7.5-.2.2-.3.5-.3.9 0 .5.2.9.5 1.1.3.3.8.5 1.4.7.6.2 1.2.4 1.9.5.7.1 1.4.3 2.2.5.8.2 1.5.4 2.2.6.7.2 1.4.6 1.9 1 .6.4 1 .9 1.4 1.5.3.6.5 1.4.5 2.2 0 1.3-.3 2.3-.8 3.2s-1.2 1.5-2 2.1c-.8.5-1.7.9-2.8 1.1-1 .2-2.1.3-3.2.3s-2.2-.1-3.3-.3c-1.1-.2-2-.6-2.8-1.1-.8-.5-1.5-1.2-2-2.1-.5-.9-.8-1.9-.9-3.2h5c0 .6.2 1.1.4 1.5z"/></g><g><path d="M27.8 342.3V338h5.3v4.3h-5.3zm5.3 2.9v19.1h-5.3v-19.1h5.3zM41.3 359.6c.2.4.5.7.9 1 .4.3.8.5 1.3.6s1 .2 1.5.2c.4 0 .8 0 1.2-.1.4-.1.8-.2 1.1-.4.3-.2.6-.4.8-.7s.3-.7.3-1.2c0-.8-.5-1.4-1.6-1.8-1-.4-2.5-.8-4.4-1.2-.8-.2-1.5-.4-2.2-.6-.7-.2-1.4-.5-1.9-.9-.6-.4-1-.9-1.4-1.4-.3-.6-.5-1.3-.5-2.1 0-1.2.2-2.2.7-3 .5-.8 1.1-1.4 1.9-1.9.8-.5 1.7-.8 2.7-1 1-.2 2-.3 3-.3s2 .1 3 .3c1 .2 1.8.5 2.6 1s1.4 1.1 1.9 1.9c.5.8.8 1.8.9 2.9h-5c-.1-1-.5-1.7-1.1-2.1-.7-.4-1.5-.5-2.4-.5-.3 0-.6 0-1 .1-.3 0-.7.1-.9.2-.3.1-.5.3-.7.5-.2.2-.3.5-.3.9 0 .5.2.9.5 1.1.3.3.8.5 1.4.7.6.2 1.2.4 1.9.5.7.1 1.4.3 2.2.5.8.2 1.5.4 2.2.6.7.2 1.4.6 1.9 1 .6.4 1 .9 1.4 1.5.3.6.5 1.4.5 2.2 0 1.3-.3 2.3-.8 3.2-.5.9-1.2 1.5-2 2.1-.8.5-1.7.9-2.8 1.1-1 .2-2.1.3-3.2.3s-2.2-.1-3.3-.3c-1.1-.2-2-.6-2.8-1.1-.8-.5-1.5-1.2-2-2.1-.5-.9-.8-1.9-.9-3.2h5c0 .6.2 1.1.4 1.5zM66.1 351.1c.1-1.2.4-2.3.9-3.1.5-.8 1.2-1.5 2.1-2 .8-.5 1.8-.8 2.8-1.1 1-.2 2.1-.3 3.2-.3 1 0 1.9.1 2.9.2s1.9.4 2.7.8c.8.4 1.5.9 2 1.6.5.7.8 1.6.8 2.8v10c0 .9 0 1.7.1 2.5s.3 1.4.5 1.8h-5.3c-.1-.3-.2-.6-.2-.9-.1-.3-.1-.6-.1-.9-.8.9-1.8 1.5-3 1.8-1.1.3-2.3.5-3.5.5-.9 0-1.8-.1-2.6-.3-.8-.2-1.5-.6-2.1-1-.6-.5-1.1-1.1-1.4-1.8-.3-.7-.5-1.6-.5-2.6 0-1.1.2-2 .6-2.7s.9-1.3 1.5-1.7c.6-.4 1.3-.7 2.1-.9.8-.2 1.6-.4 2.3-.5.8-.1 1.6-.2 2.3-.3.8-.1 1.4-.2 2-.3.6-.1 1.1-.4 1.4-.6.3-.3.5-.7.5-1.2 0-.6-.1-1-.3-1.4-.2-.3-.4-.6-.7-.8-.3-.2-.7-.3-1.1-.4-.4-.1-.8-.1-1.3-.1-1 0-1.8.2-2.4.7-.6.4-.9 1.2-1 2.2h-5.2zm12.1 3.9c-.2.2-.5.4-.8.5s-.7.2-1.1.3-.8.1-1.2.2c-.4 0-.8.1-1.3.2l-1.2.3c-.4.1-.7.3-1 .5-.3.2-.5.5-.7.8-.2.3-.3.7-.3 1.2s.1.9.3 1.2c.2.3.4.6.7.8.3.2.6.3 1 .4.4.1.8.1 1.2.1 1 0 1.8-.2 2.4-.5.6-.3 1-.8 1.3-1.2.3-.5.4-1 .5-1.5s.1-.9.1-1.2V355zM115.2 365.8c-.2 1-.7 1.9-1.4 2.8-.7.9-1.7 1.6-3 2.2-1.3.6-3.1.9-5.3.9-.9 0-1.9-.1-2.9-.4-1-.2-1.9-.6-2.7-1.1-.8-.5-1.5-1.1-2-1.9-.5-.8-.8-1.7-.9-2.8h5.2c.2 1 .7 1.7 1.4 2.1.7.4 1.5.6 2.5.6 1.5 0 2.6-.4 3.2-1.3.7-.9 1-2 1-3.4V361h-.1c-.6 1-1.4 1.8-2.4 2.2-1 .5-2.2.7-3.3.7-1.4 0-2.7-.3-3.7-.8s-1.9-1.2-2.6-2.1c-.7-.9-1.2-1.9-1.5-3.1-.3-1.2-.5-2.4-.5-3.7 0-1.2.2-2.4.5-3.6.4-1.1.9-2.2 1.6-3 .7-.9 1.5-1.6 2.6-2.1 1-.5 2.2-.8 3.5-.8 1.3 0 2.4.2 3.3.7.9.5 1.7 1.3 2.4 2.4h.1v-2.6h5v17.9c.3.8.2 1.7 0 2.7zm-7.2-6.4c.6-.3 1-.7 1.4-1.2.4-.5.6-1.1.8-1.7.2-.6.3-1.3.3-2 0-.8-.1-1.5-.2-2.2-.1-.7-.4-1.3-.7-1.9-.3-.5-.8-1-1.4-1.3-.6-.3-1.3-.5-2.1-.5-.7 0-1.4.1-1.9.4s-1 .7-1.3 1.2c-.4.5-.6 1.1-.8 1.7-.2.7-.2 1.3-.2 2.1 0 .7.1 1.4.2 2.1s.4 1.3.7 1.8c.3.5.8 1 1.3 1.3.5.3 1.2.5 2 .5.7.1 1.4 0 1.9-.3zM119.5 350.6c.5-1.2 1.1-2.3 2-3.2.9-.9 1.9-1.6 3.1-2 1.2-.5 2.6-.7 4.1-.7 1.5 0 2.9.2 4.1.7 1.2.5 2.3 1.2 3.1 2 .9.9 1.5 1.9 2 3.2.5 1.2.7 2.6.7 4.2s-.2 2.9-.7 4.1c-.5 1.2-1.1 2.3-2 3.2-.9.9-1.9 1.5-3.1 2-1.2.5-2.6.7-4.1.7-1.5 0-2.9-.2-4.1-.7-1.2-.5-2.2-1.1-3.1-2-.9-.9-1.5-1.9-2-3.2-.5-1.2-.7-2.6-.7-4.1s.2-2.9.7-4.2zm4.8 6.4c.1.7.4 1.4.8 2 .4.6.8 1 1.4 1.4.6.3 1.3.5 2.2.5.9 0 1.6-.2 2.2-.5.6-.3 1.1-.8 1.4-1.4.4-.6.6-1.2.8-2s.2-1.5.2-2.2-.1-1.5-.2-2.3c-.1-.7-.4-1.4-.8-2-.4-.6-.8-1-1.4-1.4-.6-.4-1.4-.5-2.2-.5-.9 0-1.6.2-2.2.5-.6.4-1.1.8-1.4 1.4-.4.6-.6 1.2-.8 2-.1.7-.2 1.5-.2 2.3s0 1.5.2 2.2zM141.8 350.6c.5-1.2 1.1-2.3 2-3.2.9-.9 1.9-1.6 3.1-2 1.2-.5 2.6-.7 4.1-.7 1.5 0 2.9.2 4.1.7 1.2.5 2.3 1.2 3.1 2 .9.9 1.5 1.9 2 3.2.5 1.2.7 2.6.7 4.2s-.2 2.9-.7 4.1c-.5 1.2-1.1 2.3-2 3.2s-1.9 1.5-3.1 2c-1.2.5-2.6.7-4.1.7-1.5 0-2.9-.2-4.1-.7-1.2-.5-2.2-1.1-3.1-2-.9-.9-1.5-1.9-2-3.2-.5-1.2-.7-2.6-.7-4.1s.2-2.9.7-4.2zm4.7 6.4c.1.7.4 1.4.8 2 .4.6.8 1 1.4 1.4.6.3 1.3.5 2.2.5s1.6-.2 2.2-.5c.6-.3 1.1-.8 1.4-1.4.4-.6.6-1.2.8-2 .1-.7.2-1.5.2-2.2s-.1-1.5-.2-2.3c-.1-.7-.4-1.4-.8-2-.4-.6-.8-1-1.4-1.4s-1.4-.5-2.2-.5-1.6.2-2.2.5c-.6.4-1.1.8-1.4 1.4-.4.6-.6 1.2-.8 2-.1.7-.2 1.5-.2 2.3s.1 1.5.2 2.2zM177.5 361.9c-.6 1-1.4 1.8-2.4 2.2s-2.1.7-3.4.7c-1.4 0-2.7-.3-3.8-.8-1.1-.6-2-1.3-2.7-2.3-.7-.9-1.2-2-1.6-3.3-.4-1.2-.5-2.5-.5-3.8 0-1.3.2-2.5.5-3.7.4-1.2.9-2.3 1.6-3.2.7-.9 1.6-1.6 2.6-2.2s2.3-.8 3.7-.8c1.1 0 2.2.2 3.2.7 1 .5 1.8 1.2 2.4 2.1h.1v-9.6h5.3v26.4h-5v-2.4zm-.2-9.5c-.1-.7-.4-1.4-.8-1.9-.4-.6-.8-1-1.4-1.4s-1.3-.5-2.1-.5c-.9 0-1.6.2-2.2.5s-1.1.8-1.4 1.4-.6 1.2-.8 1.9c-.2.7-.2 1.5-.2 2.3 0 .7.1 1.5.3 2.2.2.7.4 1.4.8 2 .4.6.9 1 1.4 1.4.6.4 1.3.5 2.1.5.9 0 1.6-.2 2.2-.5.6-.3 1-.8 1.4-1.4.3-.6.6-1.2.7-2 .1-.7.2-1.5.2-2.3 0-.7-.1-1.4-.2-2.2z"/></g><g><path d="M32.7 385.2v2.4h.1c.6-1 1.5-1.8 2.4-2.3 1-.5 2.1-.7 3.3-.7 1.5 0 2.8.3 3.9.9s2 1.3 2.7 2.3c.7.9 1.2 2 1.6 3.3.3 1.2.5 2.5.5 3.9 0 1.3-.2 2.5-.5 3.7-.3 1.2-.9 2.2-1.6 3.1-.7.9-1.6 1.6-2.6 2.2-1 .5-2.3.8-3.7.8-1.2 0-2.3-.2-3.3-.7-1-.5-1.8-1.2-2.5-2.1h-.1v9.1h-5.3v-25.8h5.1zm6.8 15.2c.6-.3 1-.8 1.4-1.4.4-.6.6-1.2.8-1.9s.2-1.5.2-2.3-.1-1.5-.2-2.3c-.2-.7-.4-1.4-.8-2-.4-.6-.8-1-1.4-1.4-.6-.4-1.3-.5-2.1-.5-.9 0-1.6.2-2.2.5-.6.4-1 .8-1.4 1.4-.4.6-.6 1.2-.8 2-.1.7-.2 1.5-.2 2.3 0 .8.1 1.5.2 2.3.2.7.4 1.4.8 1.9.4.6.8 1 1.4 1.4.6.3 1.3.5 2.1.5.9 0 1.6-.2 2.2-.5zM55.3 377.9v26.4H50v-26.4h5.3zM58.9 391.1c.1-1.2.4-2.3.9-3.1.5-.8 1.2-1.5 2.1-2 .8-.5 1.8-.8 2.8-1.1 1-.2 2.1-.3 3.2-.3 1 0 1.9.1 2.9.2s1.9.4 2.7.8c.8.4 1.5.9 2 1.6.5.7.8 1.6.8 2.8v10c0 .9 0 1.7.1 2.5s.3 1.4.5 1.8h-5.3c-.1-.3-.2-.6-.2-.9-.1-.3-.1-.6-.1-.9-.8.9-1.8 1.5-3 1.8-1.1.3-2.3.5-3.5.5-.9 0-1.8-.1-2.6-.3-.8-.2-1.5-.6-2.1-1-.6-.5-1.1-1.1-1.4-1.8-.3-.7-.5-1.6-.5-2.6 0-1.1.2-2 .6-2.7s.9-1.3 1.5-1.7c.6-.4 1.3-.7 2.1-.9.8-.2 1.6-.4 2.3-.5.8-.1 1.6-.2 2.3-.3.8-.1 1.4-.2 2-.3.6-.1 1.1-.4 1.4-.6.3-.3.5-.7.5-1.2 0-.6-.1-1-.3-1.4-.2-.3-.4-.6-.7-.8-.3-.2-.7-.3-1.1-.4-.4-.1-.8-.1-1.3-.1-1 0-1.8.2-2.4.7-.6.4-.9 1.2-1 2.2h-5.2zm12.2 3.9c-.2.2-.5.4-.8.5s-.7.2-1.1.3-.8.1-1.2.2c-.4 0-.8.1-1.3.2l-1.2.3c-.4.1-.7.3-1 .5-.3.2-.5.5-.7.8-.2.3-.3.7-.3 1.2s.1.9.3 1.2c.2.3.4.6.7.8.3.2.6.3 1 .4.4.1.8.1 1.2.1 1 0 1.8-.2 2.4-.5.6-.3 1-.8 1.3-1.2.3-.5.4-1 .5-1.5s.1-.9.1-1.2V395zM85 385.2v2.7h.1c.7-1.1 1.5-1.9 2.6-2.4s2.1-.8 3.3-.8c1.4 0 2.6.2 3.5.6.9.4 1.6.9 2.1 1.6.5.7.9 1.5 1.1 2.5.2 1 .3 2.1.3 3.2v11.8h-5.3v-10.8c0-1.6-.2-2.8-.7-3.5-.5-.8-1.4-1.2-2.6-1.2-1.4 0-2.5.4-3.1 1.3-.6.9-1 2.3-1 4.2v10H80v-19.1h5zM107.7 398.6v5.7c0 .8-.2 1.6-.5 2.3-.3.7-.7 1.3-1.2 1.8s-1.1.9-1.8 1.3c-.7.3-1.4.6-2.2.7v-2.7c.4-.1.7-.2 1.1-.4s.6-.5.9-.8.4-.7.6-1c.1-.4.2-.8.1-1.2H102v-5.7h5.7zM132 385.2v3.5h-3.8v9.5c0 .9.1 1.5.4 1.8s.9.4 1.8.4h.9c.3 0 .5-.1.8-.1v4.1c-.4.1-.9.1-1.5.1H129c-.8 0-1.6-.1-2.3-.2-.7-.1-1.4-.3-1.9-.6-.6-.3-1-.8-1.3-1.4-.3-.6-.5-1.4-.5-2.3v-11.3h-3.2v-3.5h3.2v-5.7h5.3v5.7h3.7zM134.3 390.6c.5-1.2 1.1-2.3 2-3.2.9-.9 1.9-1.6 3.1-2 1.2-.5 2.6-.7 4.1-.7 1.5 0 2.9.2 4.1.7 1.2.5 2.3 1.2 3.1 2 .9.9 1.5 1.9 2 3.2.5 1.2.7 2.6.7 4.2s-.2 2.9-.7 4.1c-.5 1.2-1.1 2.3-2 3.2s-1.9 1.5-3.1 2c-1.2.5-2.6.7-4.1.7-1.5 0-2.9-.2-4.1-.7-1.2-.5-2.2-1.1-3.1-2s-1.5-1.9-2-3.2c-.5-1.2-.7-2.6-.7-4.1s.2-2.9.7-4.2zm4.8 6.4c.1.7.4 1.4.8 2 .4.6.8 1 1.4 1.4.6.3 1.3.5 2.2.5s1.6-.2 2.2-.5c.6-.3 1.1-.8 1.4-1.4.4-.6.6-1.2.8-2 .1-.7.2-1.5.2-2.2s-.1-1.5-.2-2.3c-.1-.7-.4-1.4-.8-2-.4-.6-.8-1-1.4-1.4s-1.4-.5-2.2-.5-1.6.2-2.2.5c-.6.4-1.1.8-1.4 1.4-.4.6-.6 1.2-.8 2-.1.7-.2 1.5-.2 2.3s0 1.5.2 2.2zM156.6 390.6c.5-1.2 1.1-2.3 2-3.2.9-.9 1.9-1.6 3.1-2 1.2-.5 2.6-.7 4.1-.7 1.5 0 2.9.2 4.1.7 1.2.5 2.3 1.2 3.1 2 .9.9 1.5 1.9 2 3.2.5 1.2.7 2.6.7 4.2s-.2 2.9-.7 4.1c-.5 1.2-1.1 2.3-2 3.2s-1.9 1.5-3.1 2c-1.2.5-2.6.7-4.1.7-1.5 0-2.9-.2-4.1-.7-1.2-.5-2.2-1.1-3.1-2-.9-.9-1.5-1.9-2-3.2-.5-1.2-.7-2.6-.7-4.1s.2-2.9.7-4.2zm4.7 6.4c.1.7.4 1.4.8 2 .4.6.8 1 1.4 1.4.6.3 1.3.5 2.2.5s1.6-.2 2.2-.5c.6-.3 1.1-.8 1.4-1.4.4-.6.6-1.2.8-2 .1-.7.2-1.5.2-2.2s-.1-1.5-.2-2.3c-.1-.7-.4-1.4-.8-2-.4-.6-.8-1-1.4-1.4s-1.4-.5-2.2-.5-1.6.2-2.2.5c-.6.4-1.1.8-1.4 1.4-.4.6-.6 1.2-.8 2-.1.7-.2 1.5-.2 2.3s.1 1.5.2 2.2zM184.7 398.6v5.7h-5.8v-5.7h5.8z"/></g></svg>