<svg xmlns="http://www.w3.org/2000/svg" viewBox="0 0 300 600"><path d="M115.1 97.2c1.2 0 2.2.2 3.2.6.9.4 1.8.9 2.4 1.6.7.7 1.2 1.4 1.5 2.3.4.9.5 1.8.5 2.8 0 1.5-.3 2.9-1 4s-1.7 2-3.2 2.6v.1c.7.2 1.3.5 1.8.9s.8.9 1.1 1.4c.3.6.5 1.2.6 1.8.1.7.2 1.3.3 2 0 .4 0 .9.1 1.5 0 .6.1 1.1.1 1.7.1.6.2 1.2.3 1.7.1.5.3 1 .6 1.3h-5.8c-.3-.8-.5-1.8-.6-3-.1-1.2-.2-2.3-.3-3.3-.2-1.4-.6-2.4-1.3-3-.6-.6-1.7-1-3.1-1h-5.8v10.3h-5.8V97.2h14.4zm-2.1 11.9c1.3 0 2.3-.3 3-.9s1-1.5 1-2.9c0-1.3-.3-2.2-1-2.8-.7-.6-1.7-.9-3-.9h-6.3v7.4h6.3zM132.6 119c.8.8 1.9 1.1 3.4 1.1 1.1 0 2-.3 2.7-.8.8-.5 1.2-1.1 1.4-1.7h4.6c-.7 2.3-1.9 3.9-3.4 4.9-1.5 1-3.4 1.5-5.5 1.5-1.5 0-2.9-.2-4.1-.7-1.2-.5-2.2-1.2-3.1-2-.8-.9-1.5-1.9-1.9-3.2-.5-1.2-.7-2.6-.7-4.1 0-1.4.2-2.8.7-4 .5-1.2 1.1-2.3 2-3.2.9-.9 1.9-1.6 3.1-2.1s2.5-.8 4-.8c1.6 0 3 .3 4.2.9 1.2.6 2.2 1.5 3 2.5.8 1.1 1.3 2.3 1.7 3.6.3 1.4.5 2.8.4 4.2h-13.8c0 1.9.5 3.1 1.3 3.9zm5.9-10.1c-.6-.7-1.6-1-2.9-1-.8 0-1.5.1-2.1.4-.6.3-1 .6-1.3 1.1-.3.4-.6.9-.7 1.3-.1.5-.2.9-.2 1.3h8.5c-.3-1.4-.7-2.4-1.3-3.1zM147.9 110.3c.1-1.2.4-2.3.9-3.1.5-.8 1.2-1.5 2.1-2 .8-.5 1.8-.8 2.8-1.1 1-.2 2.1-.3 3.2-.3 1 0 1.9.1 2.9.2s1.9.4 2.7.8c.8.4 1.5.9 2 1.6.5.7.8 1.6.8 2.8v9.9c0 .9 0 1.7.1 2.5s.3 1.4.5 1.8h-5.3c-.1-.3-.2-.6-.2-.9-.1-.3-.1-.6-.1-.9-.8.9-1.8 1.5-3 1.8s-2.3.5-3.5.5c-.9 0-1.8-.1-2.5-.3-.8-.2-1.5-.6-2.1-1-.6-.5-1.1-1.1-1.4-1.8-.3-.7-.5-1.6-.5-2.5 0-1.1.2-2 .6-2.7.4-.7.9-1.3 1.5-1.7.6-.4 1.3-.7 2.1-.9.8-.2 1.6-.4 2.3-.5.8-.1 1.6-.2 2.3-.3.8-.1 1.4-.2 2-.3.6-.1 1.1-.4 1.4-.6.3-.3.5-.7.5-1.2 0-.6-.1-1-.3-1.3-.2-.3-.4-.6-.7-.8-.3-.2-.7-.3-1.1-.4s-.8-.1-1.3-.1c-1 0-1.8.2-2.4.7s-.9 1.2-1 2.2h-5.3zm12.1 3.9c-.2.2-.5.4-.8.5s-.7.2-1.1.3c-.4.1-.8.1-1.2.2s-.8.1-1.3.2l-1.2.3c-.4.1-.7.3-1 .5-.3.2-.5.5-.7.8-.2.3-.3.7-.3 1.2s.1.9.3 1.2c.2.3.4.6.7.8s.6.3 1 .4c.4.1.8.1 1.2.1 1 0 1.8-.2 2.4-.5.6-.3 1-.8 1.3-1.2.3-.5.4-1 .5-1.5.1-.5.1-.9.1-1.2v-2.1zM182.9 121.1c-.6 1-1.4 1.8-2.4 2.2-1 .5-2.1.7-3.4.7-1.4 0-2.7-.3-3.8-.8-1.1-.6-2-1.3-2.7-2.3-.7-.9-1.2-2-1.6-3.3-.4-1.2-.5-2.5-.5-3.8 0-1.3.2-2.5.5-3.7.4-1.2.9-2.2 1.6-3.2.7-.9 1.6-1.6 2.6-2.2 1.1-.6 2.3-.8 3.7-.8 1.1 0 2.2.2 3.2.7 1 .5 1.8 1.2 2.4 2.1h.1v-9.6h5.2v26.3h-5l.1-2.3zm-.3-9.4c-.1-.7-.4-1.4-.8-1.9-.4-.6-.8-1-1.4-1.3-.6-.3-1.3-.5-2.1-.5-.9 0-1.6.2-2.2.5-.6.3-1.1.8-1.4 1.4-.4.6-.6 1.2-.8 1.9-.2.7-.2 1.5-.2 2.3 0 .7.1 1.5.3 2.2.2.7.4 1.4.8 2 .4.6.9 1 1.4 1.4.6.4 1.3.5 2.1.5.9 0 1.6-.2 2.2-.5.6-.3 1-.8 1.4-1.4.3-.6.6-1.2.7-2 .1-.7.2-1.5.2-2.3.1-.8 0-1.6-.2-2.3zM192.1 110.5v-5.7h5.8v5.7h-5.8zm5.8 7.4v5.7h-5.8v-5.7h5.8zM87.6 137.1c1.3 0 2.6.1 3.7.4 1.1.3 2.1.7 2.9 1.3.8.6 1.4 1.4 1.9 2.4s.7 2.2.7 3.7-.3 2.7-.8 3.9-1.3 2.1-2.3 2.9c-.9.8-2 1.4-3.3 1.8-1.2.4-2.5.6-3.9.6h-7.2l-2 9.4h-5.8l5.5-26.3h10.6zm-1.4 12.4c1.5 0 2.6-.4 3.5-1.1.8-.8 1.3-1.9 1.3-3.5 0-.7-.1-1.2-.4-1.6-.2-.4-.5-.8-.9-1-.4-.2-.8-.4-1.3-.5-.5-.1-1-.1-1.5-.1H82l-1.6 7.9h5.8zM104.8 144.4l-.8 3.4.1.1c.6-1.3 1.5-2.3 2.7-3 1.2-.7 2.5-1 3.9-1 .5 0 1.1 0 1.6.1l-1.1 5.1c-.4-.1-.7-.1-1.1-.2s-.7-.1-1.1-.1c-1 0-1.9.2-2.6.5-.7.3-1.3.8-1.8 1.4-.5.6-.9 1.3-1.1 2-.3.8-.5 1.5-.7 2.3l-1.8 8.5h-5.2l3.9-19.1h5.1zM114 147.1c.6-.8 1.3-1.4 2.1-1.9s1.7-.8 2.7-1.1c1-.2 2.1-.3 3.1-.3.9 0 1.8.1 2.7.2.9.1 1.8.4 2.6.7.8.4 1.4.9 1.9 1.5.5.7.7 1.5.7 2.6 0 .9-.1 2-.4 3.2l-1.7 7.7c-.1.3-.2.8-.2 1.3s-.1.9-.1 1.3c0 .3.1.7.2 1.1h-5.2v-1.9c-.7.8-1.6 1.4-2.6 1.8s-2.1.6-3.2.6c-1 0-1.9-.1-2.7-.4s-1.4-.6-1.9-1.1c-.5-.5-.9-1-1.1-1.6-.2-.6-.4-1.2-.4-1.9 0-1.8.6-3.3 1.9-4.4 1.3-1.1 3.1-1.8 5.4-2.1 1.2-.1 2.3-.3 3.2-.3s1.7-.2 2.3-.4c.6-.2 1.1-.4 1.3-.7.3-.3.4-.8.4-1.4 0-.5-.1-.9-.3-1.2-.2-.3-.5-.5-.8-.7-.3-.2-.7-.3-1.1-.4s-.7-.1-1.1-.1c-.9 0-1.8.2-2.5.7-.7.5-1.2 1.2-1.4 2.1h-4.9c.1-1.1.5-2.1 1.1-2.9zm7.8 7.9c-.8.1-1.5.2-2.3.2-.5 0-1 .1-1.4.2-.5.1-.9.3-1.2.5-.4.2-.6.5-.9.9s-.3.9-.3 1.5c0 .7.3 1.2.9 1.6.6.4 1.2.5 2 .5s1.5-.1 2-.4c.6-.3 1-.6 1.4-1 .4-.4.7-.9.9-1.4l.6-1.5.5-1.8c-.7.4-1.5.6-2.2.7zM145.4 148.5c-.6-.5-1.5-.7-2.6-.7-1 0-1.8.3-2.5.8s-1.2 1.2-1.7 2c-.4.8-.7 1.7-.9 2.6-.2.9-.3 1.8-.3 2.6 0 .6.1 1.1.2 1.6s.3.9.6 1.3.7.7 1.1.9c.5.2 1 .3 1.7.3.6 0 1.1-.1 1.6-.3.5-.2.9-.5 1.2-.8.4-.3.7-.7.9-1.1.2-.4.4-.9.6-1.3h5.2c-.8 2.4-2 4.2-3.6 5.5-1.6 1.3-3.7 1.9-6.2 1.9-2.7 0-4.8-.7-6.3-2s-2.2-3.4-2.2-6.2c0-1.6.2-3.2.7-4.6.5-1.4 1.2-2.7 2.1-3.8.9-1.1 2-2 3.4-2.6 1.3-.6 2.9-.9 4.6-.9 1.2 0 2.3.1 3.3.4 1 .3 1.9.7 2.7 1.3s1.4 1.3 1.8 2.2c.5.9.7 2 .7 3.2h-5.2c0-1-.3-1.8-.9-2.3zM166.4 144.4l-.8 3.5h-3.7l-2 9.5c0 .2-.1.4-.1.5v.4c0 .3.1.6.2.8.1.2.3.3.4.4.2.1.4.2.6.2h.6c.6 0 1.3 0 1.9-.1l-.9 4c-.5 0-1.1.1-1.6.1s-1.1.1-1.7.1c-.6 0-1.2-.1-1.8-.2-.6-.1-1.1-.3-1.6-.6s-.9-.7-1.1-1.2c-.3-.5-.4-1.1-.4-1.9 0-.2 0-.5.1-.8 0-.3.1-.6.2-1l2.1-10.2h-3.4l.8-3.5h3.4l1.2-5.8h5.2l-1.2 5.8h3.6zM174.9 144.4l-4.1 19.1h-5.2l4-19.1h5.3zm-4.7-3l1-4.3h5.3l-1 4.3h-5.3zM189.1 148.5c-.6-.5-1.5-.7-2.6-.7-1 0-1.8.3-2.5.8s-1.2 1.2-1.7 2c-.4.8-.7 1.7-.9 2.6-.2.9-.3 1.8-.3 2.6 0 .6.1 1.1.2 1.6s.3.9.6 1.3.7.7 1.1.9c.5.2 1 .3 1.7.3.6 0 1.1-.1 1.6-.3.5-.2.9-.5 1.2-.8s.7-.7.9-1.1c.2-.4.4-.9.6-1.3h5.2c-.8 2.4-2 4.2-3.6 5.5-1.6 1.3-3.7 1.9-6.2 1.9-2.7 0-4.8-.7-6.3-2s-2.2-3.4-2.2-6.2c0-1.6.2-3.2.7-4.6.5-1.4 1.2-2.7 2.1-3.8.9-1.1 2-2 3.4-2.6 1.3-.6 2.9-.9 4.6-.9 1.2 0 2.3.1 3.3.4 1 .3 1.9.7 2.7 1.3.8.6 1.4 1.3 1.8 2.2.5.9.7 2 .7 3.2H190c0-1-.3-1.8-.9-2.3zM199.4 147.1c.6-.8 1.3-1.4 2.1-1.9s1.7-.8 2.7-1.1c1-.2 2.1-.3 3.1-.3.9 0 1.8.1 2.7.2.9.1 1.8.4 2.6.7.8.4 1.4.9 1.9 1.5.5.7.7 1.5.7 2.6 0 .9-.1 2-.4 3.2l-1.7 7.7c-.1.3-.2.8-.2 1.3s-.1.9-.1 1.3c0 .3.1.7.2 1.1h-5.2v-1.9c-.7.8-1.6 1.4-2.6 1.8-1 .4-2.1.6-3.2.6-1 0-1.9-.1-2.7-.4-.8-.3-1.4-.6-1.9-1.1-.5-.5-.9-1-1.1-1.6-.2-.6-.4-1.2-.4-1.9 0-1.8.6-3.3 1.9-4.4 1.3-1.1 3.1-1.8 5.4-2.1 1.2-.1 2.3-.3 3.2-.3s1.7-.2 2.3-.4c.6-.2 1.1-.4 1.3-.7.3-.3.4-.8.4-1.4 0-.5-.1-.9-.3-1.2-.2-.3-.5-.5-.8-.7-.3-.2-.7-.3-1.1-.4-.4-.1-.7-.1-1.1-.1-.9 0-1.8.2-2.5.7-.7.5-1.2 1.2-1.4 2.1h-4.9c.1-1.1.5-2.1 1.1-2.9zm7.8 7.9c-.8.1-1.5.2-2.3.2-.5 0-1 .1-1.4.2-.5.1-.9.3-1.2.5-.4.2-.6.5-.9.9-.2.4-.3.9-.3 1.5 0 .7.3 1.2.9 1.6.6.4 1.2.5 2 .5s1.5-.1 2-.4 1-.6 1.4-1c.4-.4.7-.9.9-1.4l.6-1.5.5-1.8c-.7.4-1.4.6-2.2.7zM227.7 137.1l-5.6 26.3h-5.2l5.6-26.3h5.2z"/><g><path d="M65.8 187c.6-.8 1.3-1.4 2.1-1.9s1.7-.8 2.7-1.1c1-.2 2.1-.3 3.1-.3.9 0 1.8.1 2.7.2.9.1 1.8.4 2.6.7.8.4 1.4.9 1.9 1.5.5.7.7 1.5.7 2.6 0 .9-.1 2-.4 3.2l-1.7 7.7c-.1.3-.2.8-.2 1.3s-.1.9-.1 1.3c0 .3.1.7.2 1.1h-5.2v-1.9c-.7.8-1.6 1.4-2.6 1.8s-2.1.6-3.2.6c-1 0-1.9-.1-2.7-.4s-1.4-.6-1.9-1.1c-.5-.5-.9-1-1.1-1.6-.2-.6-.4-1.2-.4-1.9 0-1.8.6-3.3 1.9-4.4 1.3-1.1 3.1-1.8 5.4-2.1 1.2-.1 2.3-.3 3.2-.3s1.7-.2 2.3-.4c.6-.2 1.1-.4 1.3-.7.3-.3.4-.8.4-1.4 0-.5-.1-.9-.3-1.2-.2-.3-.5-.5-.8-.7-.3-.2-.7-.3-1.1-.4s-.7-.1-1.1-.1c-.9 0-1.8.2-2.5.7-.7.5-1.2 1.2-1.4 2.1h-4.9c.1-1.1.5-2.1 1.1-2.9zm7.8 7.9c-.8.1-1.5.2-2.3.2-.5 0-1 .1-1.4.2-.5.1-.9.3-1.2.5-.4.2-.6.5-.9.9s-.3.9-.3 1.5c0 .7.3 1.2.9 1.6.6.4 1.2.5 2 .5s1.5-.1 2-.4c.6-.3 1-.6 1.4-1 .4-.4.7-.9.9-1.4l.6-1.5.5-1.8c-.7.4-1.5.6-2.2.7zM97 200.9c-.6 1-1.4 1.8-2.4 2.2-1 .5-2.1.7-3.3.7-2.3 0-4.1-.7-5.4-2-1.3-1.3-1.9-3.2-1.9-5.5 0-1.6.2-3.1.6-4.6.4-1.5 1.1-2.8 1.9-4 .9-1.2 1.9-2.1 3.2-2.9 1.3-.7 2.8-1.1 4.6-1.1 1.1 0 2.2.2 3.2.7 1 .5 1.7 1.3 2.2 2.3h.1l2.1-9.8h5.2l-5.6 26.3h-5.1l.6-2.3zm-4.6-12.4c-.7.5-1.3 1.2-1.8 2s-.8 1.6-1 2.6c-.2.9-.3 1.8-.3 2.7 0 .6.1 1.1.2 1.6.2.5.4 1 .7 1.3.3.4.7.7 1.2.9.5.2 1 .4 1.6.4 1 0 1.8-.3 2.5-.8s1.3-1.2 1.8-2 .8-1.7 1.1-2.6c.2-.9.4-1.8.4-2.6 0-1.3-.3-2.3-.9-3-.6-.8-1.6-1.1-2.8-1.1-1.1-.2-2 0-2.7.6zM109.8 203.3l-2.5-19.1h5.4l1.2 13.6h.1l6.8-13.6h5.5l-10.4 19.1h-6.1zM134.2 184.2l-4.1 19.1h-5.2l4-19.1h5.3zm-4.7-2.9l1-4.3h5.3l-1 4.3h-5.3zM148.5 188.4c-.6-.5-1.5-.7-2.6-.7-1 0-1.8.3-2.5.8s-1.2 1.2-1.7 2c-.4.8-.7 1.7-.9 2.6-.2.9-.3 1.8-.3 2.6 0 .6.1 1.1.2 1.6s.3.9.6 1.3.7.7 1.1.9c.5.2 1 .3 1.7.3.6 0 1.1-.1 1.6-.3.5-.2.9-.5 1.2-.8.4-.3.7-.7.9-1.1.2-.4.4-.9.6-1.3h5.2c-.8 2.4-2 4.2-3.6 5.5-1.6 1.3-3.7 1.9-6.2 1.9-2.7 0-4.8-.7-6.3-2s-2.2-3.4-2.2-6.2c0-1.6.2-3.2.7-4.6.5-1.4 1.2-2.7 2.1-3.8.9-1.1 2-2 3.4-2.6 1.3-.6 2.9-.9 4.6-.9 1.2 0 2.3.1 3.3.4 1 .3 1.9.7 2.7 1.3.8.6 1.4 1.3 1.8 2.2.5.9.7 2 .7 3.2h-5.2c-.1-1-.3-1.8-.9-2.3zM160.8 195.4v.8c0 1.1.3 2 1 2.7.7.7 1.7 1 3.2 1 .5 0 1-.1 1.4-.2.4-.2.8-.4 1.1-.6.3-.2.6-.5.8-.8l.6-.9h5.2c-.4 1.1-.9 2-1.5 2.8-.6.8-1.2 1.5-2 2-.8.6-1.7 1-2.8 1.2s-2.3.4-3.6.4c-1.3 0-2.4-.2-3.5-.5s-1.9-.9-2.7-1.6c-.7-.7-1.3-1.6-1.7-2.6-.4-1-.6-2.2-.6-3.6 0-1.5.2-3 .7-4.4.5-1.4 1.2-2.7 2.1-3.8.9-1.1 2-2 3.3-2.6 1.3-.7 2.8-1 4.4-1 1.3 0 2.5.2 3.6.5s2 .9 2.8 1.6c.8.7 1.4 1.6 1.8 2.6.4 1 .6 2.3.6 3.6 0 .9-.1 1.9-.3 3h-14.1c.2.2.2.3.2.4zm9.2-5.1c-.1-.5-.3-.9-.5-1.3s-.6-.7-1.1-.9c-.5-.2-1.1-.4-1.8-.4s-1.4.1-2 .3c-.6.2-1.1.5-1.5.9-.4.4-.8.8-1.1 1.3-.3.5-.5 1-.7 1.5h8.7c.1-.5.1-.9 0-1.4zM187.6 187.8l.7-3.5h3.1c.2-1.2.5-2.3.8-3.2.3-.9.7-1.7 1.2-2.3.5-.6 1.2-1.1 2-1.4.8-.3 2-.5 3.3-.5.6 0 1.1 0 1.7.1.6 0 1.1.1 1.7.2l-.8 3.8c-.3 0-.6 0-.8-.1h-.8c-.7 0-1.2.1-1.5.2-.3.2-.6.4-.8.7-.2.3-.3.7-.4 1.1-.1.4-.2.9-.4 1.5h3.7l-.7 3.5H196l-3.3 15.6h-5.2l3.3-15.6h-3.2zM201 191c.5-1.4 1.2-2.7 2.2-3.8s2.1-1.9 3.5-2.6c1.4-.6 2.9-.9 4.6-.9 1.3 0 2.5.2 3.6.5s2 .8 2.8 1.5 1.4 1.5 1.8 2.5c.4 1 .6 2.2.6 3.6 0 1.7-.3 3.2-.8 4.7s-1.2 2.7-2.2 3.8c-1 1.1-2.1 1.9-3.5 2.5s-2.9.9-4.7.9c-2.7 0-4.8-.7-6.4-2s-2.4-3.4-2.4-6.1c.1-1.6.3-3.1.9-4.6zm4.7 6.2c.2.5.4 1 .7 1.4.3.4.7.7 1.2.9.5.2 1 .4 1.6.4 1 0 1.8-.3 2.5-.8s1.3-1.2 1.7-2c.5-.8.8-1.7 1-2.6.2-.9.3-1.8.3-2.6 0-1.3-.3-2.3-.9-3.1-.6-.8-1.6-1.1-3-1.1-1 0-1.8.3-2.5.8s-1.3 1.2-1.7 2c-.4.8-.8 1.6-1 2.6-.2.9-.3 1.8-.3 2.6.1.5.2 1 .4 1.5zM230.2 184.2l-.8 3.4.1.1c.6-1.3 1.5-2.3 2.7-3 1.2-.7 2.5-1 3.9-1 .5 0 1.1 0 1.6.1l-1.1 5.1c-.4-.1-.7-.1-1.1-.2-.4-.1-.7-.1-1.1-.1-1 0-1.9.2-2.6.5-.7.3-1.3.8-1.8 1.4s-.9 1.3-1.1 2c-.3.8-.5 1.5-.7 2.3l-1.8 8.5h-5.2l3.9-19.1h5.1z"/></g><g><path d="M70 224.1l-.6 2.7h.1c.8-1.1 1.7-1.9 2.9-2.4 1.1-.5 2.4-.8 3.8-.8 1.2 0 2.2.3 3 .8s1.4 1.4 1.6 2.5c.3-.5.7-.9 1.2-1.3s1-.8 1.6-1.1c.6-.3 1.2-.5 1.8-.7.6-.2 1.2-.2 1.9-.2s1.5.1 2.2.3 1.3.5 1.9.9c.5.4 1 .9 1.3 1.5.3.6.5 1.3.5 2.1 0 .6-.1 1.2-.2 1.8-.1.6-.2 1.2-.4 1.8l-2.4 11.2H85l2.5-12.1c.1-.5.1-.9.1-1.4 0-.6-.2-1-.6-1.4-.4-.4-1-.6-1.6-.6-.7 0-1.3.2-1.9.5-.6.3-1 .8-1.4 1.3-.4.5-.7 1.1-1 1.7-.3.6-.5 1.2-.6 1.8l-2.1 10.2h-5.3l2.5-12.1c.1-.5.1-.9.1-1.4 0-.6-.2-1-.6-1.4-.4-.4-1-.6-1.6-.6-.7 0-1.3.2-1.9.5-.6.3-1 .8-1.4 1.3-.4.5-.7 1.1-1 1.7-.3.6-.5 1.2-.6 1.8l-2.1 10.2H61l3.9-19.1H70zM98.2 226.9c.6-.8 1.3-1.4 2.1-1.9s1.7-.8 2.7-1.1c1-.2 2.1-.3 3.1-.3.9 0 1.8.1 2.7.2.9.1 1.8.4 2.6.7.8.4 1.4.9 1.9 1.5.5.7.7 1.5.7 2.6 0 .9-.1 2-.4 3.2l-1.7 7.7c-.1.3-.2.8-.2 1.3s-.1.9-.1 1.3c0 .3.1.7.2 1.1h-5.2v-1.9c-.7.8-1.6 1.4-2.6 1.8s-2.1.6-3.2.6c-1 0-1.9-.1-2.7-.4s-1.4-.6-1.9-1.1c-.5-.5-.9-1-1.1-1.6-.2-.6-.4-1.2-.4-1.9 0-1.8.6-3.3 1.9-4.4 1.3-1.1 3.1-1.8 5.4-2.1 1.2-.1 2.3-.3 3.2-.3s1.7-.2 2.3-.4c.6-.2 1.1-.4 1.3-.7.3-.3.4-.8.4-1.4 0-.5-.1-.9-.3-1.2-.2-.3-.5-.5-.8-.7-.3-.2-.7-.3-1.1-.4s-.7-.1-1.1-.1c-.9 0-1.8.2-2.5.7-.7.5-1.2 1.2-1.4 2.1h-4.9c.2-1.1.6-2.1 1.1-2.9zm7.9 7.9c-.8.1-1.5.2-2.3.2-.5 0-1 .1-1.4.2-.5.1-.9.3-1.2.5-.4.2-.6.5-.9.9s-.3.9-.3 1.5c0 .7.3 1.2.9 1.6.6.4 1.2.5 2 .5s1.5-.1 2-.4c.6-.3 1-.6 1.4-1 .4-.4.7-.9.9-1.4l.6-1.5.5-1.8c-.8.4-1.5.6-2.2.7zM124.7 224.1l-.6 2.7h.1c1.7-2.1 3.9-3.2 6.7-3.2 3.7 0 5.6 1.7 5.6 5.1 0 .2 0 .4-.1.8 0 .3-.1.6-.2.9-.1.3-.1.6-.2.9-.1.3-.1.5-.1.7l-2.4 11.2h-5.2l2.3-11.2c0-.3.1-.7.2-1.2s.1-.9.1-1.1c0-.6-.3-1-.8-1.4-.5-.4-1.1-.6-1.7-.6-.8 0-1.5.2-2.1.5-.6.3-1.1.7-1.5 1.2-.4.5-.8 1.1-1.1 1.7-.3.6-.5 1.3-.6 2l-2.1 10.1h-5.2l3.9-19.1h5zM142 226.9c.6-.8 1.3-1.4 2.1-1.9s1.7-.8 2.7-1.1c1-.2 2.1-.3 3.1-.3.9 0 1.8.1 2.7.2.9.1 1.8.4 2.6.7.8.4 1.4.9 1.9 1.5.5.7.7 1.5.7 2.6 0 .9-.1 2-.4 3.2l-1.7 7.7c-.1.3-.2.8-.2 1.3s-.1.9-.1 1.3c0 .3.1.7.2 1.1h-5.2v-1.9c-.7.8-1.6 1.4-2.6 1.8s-2.1.6-3.2.6c-1 0-1.9-.1-2.7-.4s-1.4-.6-1.9-1.1c-.5-.5-.9-1-1.1-1.6-.2-.6-.4-1.2-.4-1.9 0-1.8.6-3.3 1.9-4.4 1.3-1.1 3.1-1.8 5.4-2.1 1.2-.1 2.3-.3 3.2-.3s1.7-.2 2.3-.4c.6-.2 1.1-.4 1.3-.7.3-.3.4-.8.4-1.4 0-.5-.1-.9-.3-1.2-.2-.3-.5-.5-.8-.7-.3-.2-.7-.3-1.1-.4-.4-.1-.7-.1-1.1-.1-.9 0-1.8.2-2.5.7-.7.5-1.2 1.2-1.4 2.1h-4.9c.1-1.1.5-2.1 1.1-2.9zm7.8 7.9c-.8.1-1.5.2-2.3.2-.5 0-1 .1-1.4.2-.5.1-.9.3-1.2.5-.4.2-.6.5-.9.9s-.3.9-.3 1.5c0 .7.3 1.2.9 1.6.6.4 1.2.5 2 .5s1.5-.1 2-.4c.6-.3 1-.6 1.4-1 .4-.4.7-.9.9-1.4l.6-1.5.5-1.8c-.7.4-1.4.6-2.2.7zM176.5 245.9c-.5 1-1.2 1.9-2.1 2.5-.8.7-1.9 1.2-3 1.5-1.2.3-2.5.5-4.1.5-1 0-1.9-.1-2.9-.3-1-.2-1.8-.6-2.6-1.1-.8-.5-1.4-1.1-1.9-1.9-.5-.8-.7-1.8-.7-2.9h5.2c0 .5.1.9.3 1.3.2.3.5.6.8.8.3.2.7.4 1.1.5.4.1.8.1 1.3.1.8 0 1.5-.2 2.1-.5.6-.3 1-.8 1.4-1.4.4-.6.7-1.3 1-2.1.3-.8.5-1.7.8-2.6l-.1-.1c-1.4 1.8-3.1 2.7-5.2 2.7-1.1 0-2.2-.2-3.1-.6s-1.7-.9-2.3-1.6c-.6-.7-1.1-1.5-1.5-2.5-.3-.9-.5-2-.5-3.2 0-1.4.2-2.8.6-4.2.4-1.4 1.1-2.6 1.9-3.7s1.8-2 3-2.7c1.2-.7 2.6-1 4.1-1 1.3 0 2.5.3 3.5.8s1.8 1.4 2.3 2.7h.1l.6-2.9h5l-3.8 18.1c-.3 1.5-.8 2.8-1.3 3.8zm-7.8-17.6c-.7.5-1.2 1.1-1.7 1.8-.4.7-.8 1.5-1 2.3-.2.8-.4 1.7-.4 2.4 0 .6.1 1.1.2 1.6s.4 1 .6 1.3c.3.4.7.7 1.1.9.4.2 1 .3 1.6.3.9 0 1.8-.2 2.5-.7s1.3-1 1.7-1.7.8-1.5 1-2.3c.2-.9.4-1.7.4-2.5 0-1.2-.3-2.2-.9-3s-1.6-1.2-2.8-1.2c-.8.1-1.6.3-2.3.8zM191.3 224.1l-4.1 19.1H182l4-19.1h5.3zm-4.7-2.9l1-4.3h5.3l-1 4.3h-5.3zM200.5 224.1l-.6 2.7h.1c1.7-2.1 3.9-3.2 6.7-3.2 3.7 0 5.6 1.7 5.6 5.1 0 .2 0 .4-.1.8 0 .3-.1.6-.2.9-.1.3-.1.6-.2.9-.1.3-.1.5-.1.7l-2.4 11.2h-5.2l2.3-11.2c0-.3.1-.7.2-1.2s.1-.9.1-1.1c0-.6-.3-1-.8-1.4-.5-.4-1.1-.6-1.7-.6-.8 0-1.5.2-2.1.5-.6.3-1.1.7-1.5 1.2-.4.5-.8 1.1-1.1 1.7-.3.6-.5 1.3-.6 2l-2.1 10.1h-5.2l3.9-19.1h5zM231.2 245.9c-.5 1-1.2 1.9-2.1 2.5-.8.7-1.9 1.2-3 1.5-1.2.3-2.5.5-4.1.5-1 0-1.9-.1-2.9-.3-1-.2-1.8-.6-2.6-1.1-.8-.5-1.4-1.1-1.9-1.9-.5-.8-.7-1.8-.7-2.9h5.2c0 .5.1.9.3 1.3.2.3.5.6.8.8.3.2.7.4 1.1.5.4.1.8.1 1.3.1.8 0 1.5-.2 2.1-.5.6-.3 1-.8 1.4-1.4.4-.6.7-1.3 1-2.1.3-.8.5-1.7.8-2.6l-.1-.1c-1.4 1.8-3.1 2.7-5.2 2.7-1.1 0-2.2-.2-3.1-.6s-1.7-.9-2.3-1.6c-.6-.7-1.1-1.5-1.5-2.5-.3-.9-.5-2-.5-3.2 0-1.4.2-2.8.6-4.2.4-1.4 1.1-2.6 1.9-3.7s1.8-2 3-2.7c1.2-.7 2.6-1 4.1-1 1.3 0 2.5.3 3.5.8s1.8 1.4 2.3 2.7h.1l.6-2.9h5l-3.8 18.1c-.4 1.5-.8 2.8-1.3 3.8zm-7.8-17.6c-.7.5-1.2 1.1-1.7 1.8-.4.7-.8 1.5-1 2.3-.2.8-.4 1.7-.4 2.4 0 .6.1 1.1.2 1.6s.4 1 .6 1.3c.3.4.7.7 1.1.9.4.2 1 .3 1.6.3.9 0 1.8-.2 2.5-.7s1.3-1 1.7-1.7.8-1.5 1-2.3c.2-.9.4-1.7.4-2.5 0-1.2-.3-2.2-.9-3s-1.6-1.2-2.8-1.2c-.9.1-1.7.3-2.3.8z"/></g><g><path d="M41.1 256.8l-5.6 26.3h-5.2l5.6-26.3h5.2zM49.1 264L45 283.1h-5.2l4-19.1h5.3zm-4.7-2.9l1-4.3h5.3l-1 4.3h-5.3zM50.6 267.5l.7-3.5h3.1c.2-1.2.5-2.3.8-3.2s.7-1.7 1.2-2.3c.5-.6 1.2-1.1 2-1.4.8-.3 2-.5 3.3-.5.6 0 1.1 0 1.7.1.6 0 1.1.1 1.7.2l-.8 3.8c-.3 0-.6 0-.8-.1h-.8c-.7 0-1.2.1-1.5.2-.3.2-.6.4-.8.7s-.3.7-.4 1.1c-.1.4-.2.9-.4 1.5h3.7l-.7 3.5h-3.8l-3.3 15.6h-5.2l3.3-15.6h-3zM68.2 275.2v.8c0 1.1.3 2 1 2.7.7.7 1.7 1 3.2 1 .5 0 1-.1 1.4-.2.4-.2.8-.4 1.1-.6.3-.2.6-.5.8-.8l.6-.9h5.2c-.4 1.1-.9 2-1.5 2.8-.6.8-1.2 1.5-2 2-.8.6-1.7 1-2.7 1.2-1 .3-2.3.4-3.6.4-1.3 0-2.4-.2-3.5-.5-1-.3-1.9-.9-2.7-1.6-.7-.7-1.3-1.6-1.7-2.6-.4-1-.6-2.2-.6-3.6 0-1.5.2-3 .7-4.4.5-1.4 1.2-2.7 2.1-3.8s2-2 3.3-2.6c1.3-.7 2.8-1 4.4-1 1.3 0 2.5.2 3.6.5s2 .9 2.8 1.6 1.4 1.6 1.8 2.6c.4 1 .6 2.3.6 3.6 0 .9-.1 1.9-.3 3h-14v.4zm9.2-5.1c-.1-.5-.3-.9-.5-1.3s-.6-.7-1.1-.9-1.1-.4-1.8-.4-1.4.1-2 .3c-.6.2-1.1.5-1.5.9-.4.4-.8.8-1.1 1.3-.3.5-.5 1-.7 1.5h8.7c.1-.5.1-1 0-1.4zM103.1 264L99 283.1h-5.2l4-19.1h5.3zm-4.7-2.9l1-4.3h5.3l-1 4.3h-5.3zM112.3 264l-.6 2.7h.1c1.7-2.1 3.9-3.2 6.7-3.2 3.7 0 5.6 1.7 5.6 5.1 0 .2 0 .4-.1.8 0 .3-.1.6-.2.9-.1.3-.1.6-.2.9-.1.3-.1.5-.1.7l-2.4 11.2h-5.2l2.3-11.2c0-.3.1-.7.2-1.2s.1-.9.1-1.1c0-.6-.3-1-.8-1.4-.5-.4-1.1-.6-1.7-.6-.8 0-1.5.2-2.1.5-.6.3-1.1.7-1.5 1.2-.4.5-.8 1.1-1.1 1.7-.3.6-.5 1.3-.6 2l-2.1 10.1h-5.2l3.9-19.1h5zM138.6 267.7c-.5-.5-1.2-.7-2.2-.7-.9 0-1.7.1-2.3.4-.6.3-.9.8-.9 1.5 0 .4.2.8.5 1.1.4.3 1 .6 1.9.8l2.6.8c.7.2 1.4.5 2 .8.6.3 1.1.7 1.6 1.1.5.4.8.9 1.1 1.5.3.6.4 1.3.4 2.1 0 1.2-.3 2.2-.8 3-.5.8-1.2 1.5-2.1 2s-1.8.9-2.9 1.1c-1.1.2-2.2.3-3.3.3-.9 0-1.9-.1-2.8-.3s-1.8-.5-2.6-1-1.4-1.1-1.9-1.8c-.5-.8-.7-1.7-.7-2.8v-.8h4.8v.6c0 .4.1.8.3 1.1.2.3.5.6.9.8.4.2.8.4 1.2.5.5.1.9.2 1.3.2s.8 0 1.2-.1c.4-.1.8-.2 1.1-.4.3-.2.6-.4.8-.7.2-.3.3-.6.3-1.1 0-.7-.2-1.1-.5-1.4-.3-.3-.8-.5-1.4-.7l-4-1.3c-.7-.2-1.2-.5-1.8-.7-.5-.2-.9-.6-1.3-.9-.4-.4-.6-.8-.8-1.3-.2-.5-.3-1.2-.3-1.9 0-1.1.3-2.1.8-2.8.5-.8 1.2-1.4 2-1.9s1.8-.8 2.7-1c1-.2 1.9-.3 2.9-.3s2 .1 3 .3c1 .2 1.8.5 2.5.9.7.5 1.3 1.1 1.7 1.9.4.8.6 1.8.6 3h-4.9c0-.8-.3-1.4-.7-1.9zM158.1 283.1l.6-2.7h-.1c-1.7 2.1-3.9 3.1-6.7 3.1-3.7 0-5.6-1.7-5.6-5.1 0-.2 0-.4.1-.8 0-.3.1-.6.1-.9.1-.3.1-.6.2-.9.1-.3.1-.5.2-.7l2.4-11.2h5.2l-2.3 11.2c0 .1-.1.3-.1.5s-.1.4-.1.6c0 .2-.1.4-.1.6v.5c0 .6.3 1 .8 1.4.5.4 1.1.6 1.7.6.8 0 1.5-.2 2.1-.5.6-.3 1.1-.7 1.5-1.2s.8-1.1 1.1-1.7c.3-.6.5-1.3.6-2l2.1-10.1h5.2l-4 19.1h-4.9zM176.5 264l-.8 3.4.1.1c.6-1.3 1.5-2.3 2.7-3 1.2-.7 2.5-1 3.9-1 .5 0 1.1 0 1.6.1l-1.1 5.1c-.4-.1-.7-.1-1.1-.2-.4-.1-.7-.1-1.1-.1-1 0-1.9.2-2.6.5-.7.3-1.3.8-1.8 1.4s-.9 1.3-1.1 2c-.3.8-.5 1.5-.7 2.3l-1.8 8.5h-5.2l3.9-19.1h5.1zM185.7 266.8c.6-.8 1.3-1.4 2.1-1.9s1.7-.8 2.7-1.1c1-.2 2.1-.3 3.1-.3.9 0 1.8.1 2.7.2.9.1 1.8.4 2.6.7.8.4 1.4.9 1.9 1.5.5.7.7 1.5.7 2.6 0 .9-.1 2-.4 3.2l-1.7 7.7c-.1.3-.2.8-.2 1.3s-.1.9-.1 1.3c0 .3.1.7.2 1.1h-5.2v-1.9c-.7.8-1.6 1.4-2.6 1.8-1 .4-2.1.6-3.2.6-1 0-1.9-.1-2.7-.4-.8-.3-1.4-.6-1.9-1.1-.5-.5-.9-1-1.1-1.6-.2-.6-.4-1.2-.4-1.9 0-1.8.6-3.3 1.9-4.4 1.3-1.1 3.1-1.8 5.4-2.1 1.2-.1 2.3-.3 3.2-.3s1.7-.2 2.3-.4c.6-.2 1.1-.4 1.3-.7.3-.3.4-.8.4-1.4 0-.5-.1-.9-.3-1.2-.2-.3-.5-.5-.8-.7-.3-.2-.7-.3-1.1-.4-.4-.1-.7-.1-1.1-.1-.9 0-1.8.2-2.5.7-.7.5-1.2 1.2-1.4 2.1h-4.9c.2-1.1.5-2.1 1.1-2.9zm7.8 7.9c-.8.1-1.5.2-2.3.2-.5 0-1 .1-1.4.2-.5.1-.9.3-1.2.5-.4.2-.6.5-.9.9-.2.4-.3.9-.3 1.5 0 .7.3 1.2.9 1.6.6.4 1.2.5 2 .5s1.5-.1 2-.4 1-.6 1.4-1c.4-.4.7-.9.9-1.4l.6-1.5.5-1.8c-.7.3-1.4.6-2.2.7zM212.1 264l-.6 2.7h.1c1.7-2.1 3.9-3.2 6.7-3.2 3.7 0 5.6 1.7 5.6 5.1 0 .2 0 .4-.1.8 0 .3-.1.6-.2.9-.1.3-.1.6-.2.9-.1.3-.1.5-.1.7l-2.4 11.2h-5.2l2.3-11.2c0-.3.1-.7.2-1.2s.1-.9.1-1.1c0-.6-.3-1-.8-1.4-.5-.4-1.1-.6-1.7-.6-.8 0-1.5.2-2.1.5-.6.3-1.1.7-1.5 1.2-.4.5-.8 1.1-1.1 1.7-.3.6-.5 1.3-.6 2l-2.1 10.1h-5.2l3.9-19.1h5zM239.7 268.2c-.6-.5-1.5-.7-2.6-.7-1 0-1.8.3-2.5.8s-1.2 1.2-1.7 2c-.4.8-.7 1.7-.9 2.6-.2.9-.3 1.8-.3 2.6 0 .6.1 1.1.2 1.6s.3.9.6 1.3.7.7 1.1.9c.5.2 1 .3 1.7.3.6 0 1.1-.1 1.6-.3.5-.2.9-.5 1.2-.8s.7-.7.9-1.1c.2-.4.4-.9.6-1.3h5.2c-.8 2.4-2 4.2-3.6 5.5-1.6 1.3-3.7 1.9-6.2 1.9-2.7 0-4.8-.7-6.3-2s-2.2-3.4-2.2-6.2c0-1.6.2-3.2.7-4.6.5-1.4 1.2-2.7 2.1-3.8.9-1.1 2-2 3.4-2.6 1.3-.6 2.9-.9 4.6-.9 1.2 0 2.3.1 3.3.4 1 .3 1.9.7 2.7 1.3.8.6 1.4 1.3 1.8 2.2.5.9.7 2 .7 3.2h-5.2c0-1-.3-1.8-.9-2.3zM252 275.2v.8c0 1.1.3 2 1 2.7.7.7 1.7 1 3.2 1 .5 0 1-.1 1.4-.2.4-.2.8-.4 1.1-.6.3-.2.6-.5.8-.8l.6-.9h5.2c-.4 1.1-.9 2-1.5 2.8-.6.8-1.2 1.5-2 2-.8.6-1.7 1-2.8 1.2s-2.3.4-3.6.4c-1.3 0-2.4-.2-3.5-.5s-1.9-.9-2.7-1.6c-.7-.7-1.3-1.6-1.7-2.6-.4-1-.6-2.2-.6-3.6 0-1.5.2-3 .7-4.4.5-1.4 1.2-2.7 2.1-3.8.9-1.1 2-2 3.3-2.6 1.3-.7 2.8-1 4.4-1 1.3 0 2.5.2 3.6.5s2 .9 2.8 1.6c.8.7 1.4 1.6 1.8 2.6.4 1 .6 2.3.6 3.6 0 .9-.1 1.9-.3 3H252v.4zm9.2-5.1c-.1-.5-.3-.9-.5-1.3s-.6-.7-1.1-.9c-.5-.2-1.1-.4-1.8-.4s-1.4.1-2 .3c-.6.2-1.1.5-1.5.9-.4.4-.8.8-1.1 1.3-.3.5-.5 1-.7 1.5h8.7c.1-.5.1-1 0-1.4z"/></g><g><path d="M49.6 307.4l.7-3.5h3.1c.2-1.2.5-2.3.8-3.2.3-.9.7-1.7 1.2-2.3.5-.6 1.2-1.1 2-1.4.8-.3 2-.5 3.3-.5.6 0 1.1 0 1.7.1.6 0 1.1.1 1.7.2l-.8 3.8c-.3 0-.6 0-.8-.1h-.8c-.7 0-1.2.1-1.5.2-.3.2-.6.4-.8.7-.2.3-.3.7-.4 1.1-.1.4-.2.9-.4 1.5h3.7l-.7 3.5h-3.8L54.6 323h-5.2l3.3-15.6h-3.1zM62.9 310.7c.5-1.4 1.2-2.7 2.2-3.8.9-1.1 2.1-1.9 3.5-2.6s2.9-.9 4.6-.9c1.3 0 2.5.2 3.6.5s2 .8 2.8 1.5c.8.7 1.4 1.5 1.8 2.5.4 1 .6 2.2.6 3.6 0 1.7-.3 3.2-.8 4.7S80 318.9 79 320c-1 1.1-2.1 1.9-3.5 2.5-1.4.6-2.9.9-4.7.9-2.7 0-4.8-.7-6.4-2-1.6-1.4-2.4-3.4-2.4-6.1.1-1.6.4-3.2.9-4.6zm4.7 6.2c.2.5.4 1 .7 1.4.3.4.7.7 1.2.9.5.2 1 .4 1.6.4 1 0 1.8-.3 2.5-.8s1.3-1.2 1.7-2 .8-1.7 1-2.6c.2-.9.3-1.8.3-2.6 0-1.3-.3-2.3-.9-3.1-.6-.8-1.6-1.1-3-1.1-1 0-1.8.3-2.5.8s-1.3 1.2-1.7 2-.8 1.6-1 2.6c-.2.9-.3 1.8-.3 2.6.1.5.2 1 .4 1.5zM92.1 303.9l-.8 3.4.1.1c.6-1.3 1.5-2.3 2.7-3s2.5-1 3.9-1c.5 0 1.1 0 1.6.1l-1.1 5.1c-.4-.1-.7-.1-1.1-.2-.4-.1-.7-.1-1.1-.1-1 0-1.9.2-2.6.5s-1.3.8-1.8 1.4c-.5.6-.9 1.3-1.1 2-.3.8-.5 1.5-.7 2.3l-1.8 8.5h-5.2l3.9-19.1h5.1zM121.6 320.6c-.6 1-1.4 1.8-2.4 2.2s-2.1.7-3.3.7c-2.3 0-4.1-.7-5.4-2-1.3-1.3-1.9-3.2-1.9-5.5 0-1.6.2-3.1.6-4.6.4-1.5 1.1-2.8 1.9-4 .9-1.2 1.9-2.1 3.2-2.9 1.3-.7 2.8-1.1 4.6-1.1 1.1 0 2.2.2 3.2.7 1 .5 1.7 1.3 2.2 2.3h.1l2.1-9.8h5.2l-5.6 26.3H121l.6-2.3zm-4.6-12.5c-.7.5-1.3 1.2-1.8 2s-.8 1.6-1 2.6c-.2.9-.3 1.8-.3 2.7 0 .6.1 1.1.2 1.6.2.5.4 1 .7 1.3.3.4.7.7 1.2.9s1 .4 1.6.4c1 0 1.8-.3 2.5-.8s1.3-1.2 1.8-2 .8-1.7 1.1-2.6c.2-.9.4-1.8.4-2.6 0-1.3-.3-2.3-.9-3-.6-.8-1.6-1.1-2.8-1.1-1.1-.1-2 .1-2.7.6zM136.2 315.1v.8c0 1.1.3 2 1 2.7.7.7 1.7 1 3.2 1 .5 0 1-.1 1.4-.2.4-.2.8-.4 1.1-.6.3-.2.6-.5.8-.8l.6-.9h5.2c-.4 1.1-.9 2-1.5 2.8-.6.8-1.2 1.5-2 2-.8.6-1.7 1-2.7 1.2-1 .3-2.3.4-3.6.4-1.3 0-2.4-.2-3.5-.5-1-.3-1.9-.9-2.7-1.6-.7-.7-1.3-1.6-1.7-2.6-.4-1-.6-2.2-.6-3.6 0-1.5.2-3 .7-4.4.5-1.4 1.2-2.7 2.1-3.8s2-2 3.3-2.6c1.3-.7 2.8-1 4.4-1 1.3 0 2.5.2 3.6.5s2 .9 2.8 1.6c.8.7 1.4 1.6 1.8 2.6.4 1 .6 2.3.6 3.6 0 .9-.1 1.9-.3 3h-14.1c.1.2.1.3.1.4zm9.2-5.1c-.1-.5-.3-.9-.5-1.3s-.6-.7-1.1-.9c-.5-.2-1.1-.4-1.8-.4s-1.4.1-2 .3c-.6.2-1.1.5-1.5.9-.4.4-.8.8-1.1 1.3-.3.5-.5 1-.7 1.5h8.7c.1-.5.1-1 0-1.4zM160.5 303.9l-.6 2.7h.1c1.7-2.1 3.9-3.2 6.7-3.2 3.7 0 5.6 1.7 5.6 5.1 0 .2 0 .4-.1.8 0 .3-.1.6-.2.9-.1.3-.1.6-.2.9-.1.3-.1.5-.1.7l-2.4 11.2h-5.2l2.3-11.2c0-.3.1-.7.2-1.2s.1-.9.1-1.1c0-.6-.3-1-.8-1.4-.5-.4-1.1-.6-1.7-.6-.8 0-1.5.2-2.1.5s-1.1.7-1.5 1.2c-.4.5-.8 1.1-1.1 1.7-.3.6-.5 1.3-.6 2l-2.1 10.1h-5.2l3.9-19.1h5zM188.5 303.9l-.8 3.5H184l-2 9.5c0 .2-.1.4-.1.5v.4c0 .3.1.6.2.8.1.2.3.3.4.4s.4.2.6.2h.6c.6 0 1.3 0 1.9-.1l-.9 4c-.5 0-1.1.1-1.6.1s-1.1.1-1.7.1c-.6 0-1.2-.1-1.8-.2-.6-.1-1.1-.3-1.6-.6s-.9-.7-1.1-1.2c-.3-.5-.4-1.1-.4-1.9 0-.2 0-.5.1-.8 0-.3.1-.6.2-1l2.1-10.2h-3.4l.8-3.5h3.4l1.2-5.8h5.2l-1.2 5.8h3.6zM197.1 303.9L193 323h-5.2l4-19.1h5.3zm-4.7-2.9l1-4.3h5.3l-1 4.3h-5.3zM210 307.6c-.5-.5-1.2-.7-2.2-.7-.9 0-1.7.1-2.3.4-.6.3-.9.8-.9 1.5 0 .4.2.8.5 1.1.4.3 1 .6 1.9.8l2.6.8c.7.2 1.4.5 2 .8.6.3 1.1.7 1.6 1.1.5.4.8.9 1.1 1.5.3.6.4 1.3.4 2.1 0 1.2-.3 2.2-.8 3-.5.8-1.2 1.5-2.1 2-.9.5-1.8.9-2.9 1.1-1.1.2-2.2.3-3.3.3-.9 0-1.9-.1-2.8-.3-1-.2-1.8-.5-2.6-1s-1.4-1.1-1.9-1.8c-.5-.8-.7-1.7-.7-2.8v-.8h4.8v.6c0 .4.1.8.3 1.1.2.3.5.6.9.8s.8.4 1.2.5.9.2 1.3.2.8 0 1.2-.1c.4-.1.8-.2 1.1-.4.3-.2.6-.4.8-.7.2-.3.3-.6.3-1.1 0-.7-.2-1.1-.5-1.4-.3-.3-.8-.5-1.4-.7l-4-1.3c-.7-.2-1.2-.5-1.8-.7s-.9-.6-1.3-.9c-.4-.4-.6-.8-.8-1.3s-.3-1.2-.3-1.9c0-1.1.3-2.1.8-2.8s1.2-1.4 2-1.9 1.8-.8 2.7-1 1.9-.3 2.9-.3 2 .1 3 .3c1 .2 1.8.5 2.5.9.7.5 1.3 1.1 1.7 1.9.4.8.6 1.8.6 3h-4.9c0-.8-.3-1.5-.7-1.9zM230.9 303.9l-.8 3.5h-3.7l-2 9.5c0 .2-.1.4-.1.5v.4c0 .3.1.6.2.8.1.2.3.3.4.4s.4.2.6.2h.6c.6 0 1.3 0 1.9-.1l-.9 4c-.5 0-1.1.1-1.6.1s-1.1.1-1.7.1c-.6 0-1.2-.1-1.8-.2-.6-.1-1.1-.3-1.6-.6s-.9-.7-1.1-1.2c-.3-.5-.4-1.1-.4-1.9 0-.2 0-.5.1-.8 0-.3.1-.6.2-1l2.1-10.2h-3.4l.8-3.5h3.4l1.2-5.8h5.2l-1.2 5.8h3.6zM242.8 307.6c-.5-.5-1.2-.7-2.2-.7-.9 0-1.7.1-2.3.4-.6.3-.9.8-.9 1.5 0 .4.2.8.5 1.1.4.3 1 .6 1.9.8l2.6.8c.7.2 1.4.5 2 .8.6.3 1.1.7 1.6 1.1.5.4.8.9 1.1 1.5.3.6.4 1.3.4 2.1 0 1.2-.3 2.2-.8 3-.5.8-1.2 1.5-2.1 2-.9.5-1.8.9-2.9 1.1-1.1.2-2.2.3-3.3.3-.9 0-1.9-.1-2.8-.3-1-.2-1.8-.5-2.6-1s-1.4-1.1-1.9-1.8c-.5-.8-.7-1.7-.7-2.8v-.8h4.8v.6c0 .4.1.8.3 1.1.2.3.5.6.9.8s.8.4 1.2.5.9.2 1.3.2.8 0 1.2-.1c.4-.1.8-.2 1.1-.4.3-.2.6-.4.8-.7.2-.3.3-.6.3-1.1 0-.7-.2-1.1-.5-1.4-.3-.3-.8-.5-1.4-.7l-4-1.3c-.7-.2-1.2-.5-1.8-.7s-.9-.6-1.3-.9c-.4-.4-.6-.8-.8-1.3s-.3-1.2-.3-1.9c0-1.1.3-2.1.8-2.8s1.2-1.4 2-1.9 1.8-.8 2.7-1 1.9-.3 2.9-.3 2 .1 3 .3c1 .2 1.8.5 2.5.9.7.5 1.3 1.1 1.7 1.9.4.8.6 1.8.6 3h-4.9c0-.8-.2-1.5-.7-1.9z"/></g><g><path d="M81.3 350.6c.5-1.4 1.2-2.7 2.2-3.8.9-1.1 2.1-1.9 3.5-2.6s2.9-.9 4.6-.9c1.3 0 2.5.2 3.6.5s2 .8 2.8 1.5c.8.7 1.4 1.5 1.8 2.5.4 1 .6 2.2.6 3.6 0 1.7-.3 3.2-.8 4.7s-1.2 2.7-2.2 3.8c-1 1.1-2.1 1.9-3.5 2.5-1.4.6-2.9.9-4.7.9-2.7 0-4.8-.7-6.4-2-1.6-1.4-2.4-3.4-2.4-6.1.1-1.6.4-3.2.9-4.6zm4.7 6.2c.2.5.4 1 .7 1.4.3.4.7.7 1.2.9.5.2 1 .4 1.6.4 1 0 1.8-.3 2.5-.8s1.3-1.2 1.7-2 .8-1.7 1-2.6c.2-.9.3-1.8.3-2.6 0-1.3-.3-2.3-.9-3.1-.6-.8-1.6-1.1-3-1.1-1 0-1.8.3-2.5.8s-1.3 1.2-1.7 2-.8 1.6-1 2.6c-.2.9-.3 1.8-.3 2.6.2.4.2 1 .4 1.5zM105.7 362.9l-2.5-19.1h5.4l1.2 13.6h.1l6.8-13.6h5.5l-10.4 19.1h-6.1zM126.6 355v.8c0 1.1.3 2 1 2.7.7.7 1.7 1 3.2 1 .5 0 1-.1 1.4-.2.4-.2.8-.4 1.1-.6.3-.2.6-.5.8-.8l.6-.9h5.2c-.4 1.1-.9 2-1.5 2.8-.6.8-1.2 1.5-2 2-.8.6-1.7 1-2.7 1.2-1 .3-2.3.4-3.6.4-1.3 0-2.4-.2-3.5-.5-1-.3-1.9-.9-2.7-1.6-.7-.7-1.3-1.6-1.7-2.6-.4-1-.6-2.2-.6-3.6 0-1.5.2-3 .7-4.4.5-1.4 1.2-2.7 2.1-3.8s2-2 3.3-2.6c1.3-.7 2.8-1 4.4-1 1.3 0 2.5.2 3.6.5s2 .9 2.8 1.6c.8.7 1.4 1.6 1.8 2.6.4 1 .6 2.3.6 3.6 0 .9-.1 1.9-.3 3h-14.1c.1.1.1.3.1.4zm9.2-5.2c-.1-.5-.3-.9-.5-1.3s-.6-.7-1.1-.9c-.5-.2-1.1-.4-1.8-.4s-1.4.1-2 .3c-.6.2-1.1.5-1.5.9-.4.4-.8.8-1.1 1.3-.3.5-.5 1-.7 1.5h8.7c.1-.4.1-.9 0-1.4zM150.9 343.8l-.8 3.4.1.1c.6-1.3 1.5-2.3 2.7-3 1.2-.7 2.5-1 3.9-1 .5 0 1.1 0 1.6.1l-1.1 5.1c-.4-.1-.7-.1-1.1-.2-.4-.1-.7-.1-1.1-.1-1 0-1.9.2-2.6.5s-1.3.8-1.8 1.4c-.5.6-.9 1.3-1.1 2-.3.8-.5 1.5-.7 2.3l-1.8 8.5H142l3.9-19.1h5zM187 352.6l-.9 4.3h-3.4l-1.3 6h-5l1.3-6h-12l1-4.8 15.1-15.1h5.1l-3.3 15.5h3.4zm-6.3-9.9l-9.8 9.9h7.7l2.1-9.9zM187.7 349.7c.2-1.3.5-2.6 1-3.8s1-2.4 1.7-3.6c.7-1.1 1.5-2.1 2.4-3 .9-.8 1.9-1.5 3.1-2 1.1-.5 2.4-.7 3.8-.7 1.5 0 2.7.2 3.8.7 1.1.5 2 1.2 2.7 2 .7.9 1.2 1.9 1.6 3.1s.5 2.5.5 4c0 1.3-.1 2.6-.3 3.9s-.6 2.6-1 3.9c-.5 1.3-1 2.4-1.7 3.6s-1.5 2.1-2.5 3c-.9.8-2 1.5-3.2 2-1.2.5-2.5.7-3.9.7-1.5 0-2.7-.3-3.8-.8-1-.5-1.9-1.2-2.5-2.2s-1.1-2-1.4-3.2c-.3-1.2-.4-2.5-.4-3.8-.2-1.3-.1-2.5.1-3.8zm5.1 6.6c.1.6.3 1 .6 1.4.3.4.6.7 1.1 1 .5.2 1.1.4 1.8.4.9 0 1.7-.3 2.3-.8.7-.5 1.3-1.2 1.8-2s.9-1.7 1.3-2.7.6-2 .8-3c.2-1 .4-2 .4-2.9.1-.9.1-1.6.1-2.2 0-.6-.1-1.2-.2-1.8-.1-.6-.4-1.1-.7-1.5s-.7-.8-1.2-1c-.5-.2-1.1-.4-1.7-.4-.9 0-1.6.3-2.3.8-.7.5-1.2 1.2-1.7 2s-.9 1.7-1.2 2.7c-.3 1-.6 2-.8 3-.2 1-.3 2-.4 2.9-.1.9-.1 1.7-.1 2.3s0 1.2.1 1.8zM214.6 357.2l-1.2 5.7h-5.8l1.2-5.7h5.8z"/></g></svg>