<svg id="Layer_1" xmlns="http://www.w3.org/2000/svg" viewBox="0 0 300 600"><style>.st0{fill:#349946}.st1{fill:#231f20}.st2{fill:none}</style><path class="st0" d="M36 527h-2.8l-.9-2.7h-5.6l-.9 2.7h-2.9l5-13.2H30c.7 0 1.2.2 1.3.7.2.5 2.5 6.4 2.5 6.4H31l-1.6-4.5-2 5.6h5.7c.8 0 1.2.2 1.4.9L36 527zM61 527h-2.8l-.9-2.7h-5.7l-.9 2.7h-2.9l5-13.2h2.1c.7 0 1.2.2 1.3.7.2.5 2.5 6.4 2.5 6.4H56l-1.6-4.5-2 5.6H58c.8 0 1.2.2 1.4.9L61 527zM36.9 513.8h5.2c4 0 6 2.1 6 6.6 0 2.5-.8 4.3-2.1 5.4-1.3 1-2.7 1.2-4.6 1.2H37v-13.2zm4.9 10.9c2.5 0 3.6-1.2 3.6-4.2 0-2.9-1-4.3-3.3-4.3h-2.5v8.5h2.2z"/><path class="st1" d="M83.4 526.9h-2.1l-.9-9.4-3.2 9.4h-1.8l-3.3-9.4-.8 9.4h-1.9l1.2-12.5H73l3.4 9.6 3.3-9.6h2.4l1.3 12.5zM93.6 522.2v.7h-6.2c0 .7.2 1.2.6 1.7.5.6 1.1.8 2 .8.8 0 1.6-.2 2.5-.7l.7 1.3c-.9.7-2.1 1-3.4 1-1.4 0-2.5-.5-3.3-1.4-.8-.9-1.2-2-1.2-3.4s.4-2.6 1.2-3.5c.8-.9 1.8-1.4 3.1-1.4 1.2 0 2.2.4 2.9 1.3.8 1 1.1 2.2 1.1 3.6zm-1.9-.8c0-.6-.1-1-.4-1.5-.4-.6-.9-.9-1.6-.9-.6 0-1.2.2-1.6.6-.4.4-.7 1-.8 1.7h4.4zM108.6 526.9h-2.1v-5.2c0-1-.1-1.7-.4-2s-.6-.5-1.1-.5c-.6 0-1.3.2-2 .7.1.2.1.9.1 2.1v4.9h-2v-5c0-1.2-.1-1.9-.4-2.2-.2-.2-.6-.4-1-.4-.7 0-1.3.2-2 .6v7h-2.1v-9.1h1.8v.7c.8-.6 1.7-.9 2.7-.9.9 0 1.7.3 2.2 1 1-.7 2.1-1 3-1 1 0 1.7.3 2.3.8.4.4.7 1 .9 1.7.1.4.1 1.2.1 2.3v4.5zM119.3 522.2c0 1.5-.4 2.7-1.3 3.6s-2 1.4-3.5 1.4c-1 0-2.2-.2-3.6-.7v-13.1h2.1v4.8c.7-.5 1.5-.7 2.3-.7 1.2 0 2.1.4 2.9 1.3.7.8 1.1 1.9 1.1 3.4zm-2.1 0c0-.9-.2-1.7-.7-2.2-.4-.5-1-.8-1.6-.8-.6 0-1.3.2-1.9.7v5.4c.5.2 1 .2 1.5.2.8 0 1.5-.3 2-.9s.7-1.4.7-2.4zM129.1 522.2v.7h-6.2c0 .7.2 1.2.6 1.7.5.6 1.1.8 2 .8.8 0 1.6-.2 2.5-.7l.7 1.3c-.9.7-2.1 1-3.4 1-1.4 0-2.5-.5-3.3-1.4-.8-.9-1.2-2-1.2-3.4s.4-2.6 1.2-3.5c.8-.9 1.8-1.4 3.1-1.4 1.2 0 2.2.4 2.9 1.3.7 1 1.1 2.2 1.1 3.6zm-2-.8c0-.6-.1-1-.4-1.5-.4-.6-.9-.9-1.6-.9-.6 0-1.2.2-1.6.6-.4.4-.7 1-.8 1.7h4.4zM136.8 517.7l-.5 1.6c-.2 0-.4-.1-.6-.1-1.1 0-2 .5-2.6 1.4v6.3H131v-9.1h1.8v1.2c.1-.2.4-.5.8-.8.7-.4 1.4-.7 2.2-.7.4 0 .7.1 1 .2z"/><g><path class="st1" d="M144.4 524.3c0 .9-.3 1.6-1 2.1-.6.5-1.5.8-2.5.8-.8 0-1.6-.2-2.4-.5-.5-.2-.8-.4-1-.5l.7-1.3c.9.5 1.7.7 2.4.7.5 0 .9-.1 1.2-.3.3-.2.4-.5.4-.8s-.2-.6-.5-.8l-1.4-.7c-.7-.3-1.3-.6-1.6-.9-.6-.5-.8-1.1-.8-1.8 0-.8.3-1.5.9-2 .6-.5 1.4-.8 2.5-.8 1.3 0 2.3.3 3 .8l-.7 1.3c-.7-.4-1.4-.6-2.1-.6-1 0-1.5.3-1.5 1 0 .3.2.6.5.8l1.2.6c.9.4 1.5.7 1.9 1 .5.5.8 1.1.8 1.9zM153.4 526.9h-2.2v-12.5h2.2v12.5zM163.7 526.9h-2.1v-5c0-1.2-.1-2-.4-2.2-.3-.3-.7-.4-1.2-.4-.6 0-1.3.2-2 .7v7h-2v-9.1h1.8v.7c.9-.6 1.8-.9 2.7-.9 1 0 1.7.3 2.3.8.4.4.7 1 .8 1.6.1.4.1 1 .1 1.9v4.9zM172.2 524.3c0 .9-.3 1.6-1 2.1s-1.5.8-2.5.8c-.8 0-1.6-.2-2.4-.5-.5-.2-.8-.4-1-.5l.7-1.3c.9.5 1.7.7 2.4.7.5 0 .9-.1 1.2-.3.3-.2.4-.5.4-.8s-.2-.6-.5-.8l-1.4-.7c-.7-.3-1.3-.6-1.6-.9-.5-.5-.8-1.1-.8-1.8 0-.8.3-1.5.9-2 .6-.5 1.4-.8 2.5-.8 1.3 0 2.3.3 3 .8l-.7 1.3c-.7-.4-1.4-.6-2.1-.6-1 0-1.5.3-1.5 1 0 .3.2.6.5.8l1.2.6c.9.4 1.5.7 1.9 1 .5.5.8 1.1.8 1.9zM181.9 526.9h-1.8v-.7c-.8.6-1.7.9-2.7.9-1 0-1.7-.3-2.3-.8-.4-.4-.7-1-.8-1.6-.1-.4-.1-1-.1-1.9v-5.1h2.1v6.2c.1.5.2.9.5 1.1.3.2.6.3 1.1.3.5 0 1.2-.2 2-.7v-7h2.1v9.3zM190.1 517.7l-.5 1.6c-.2 0-.4-.1-.6-.1-1.1 0-2 .5-2.6 1.4v6.3h-2.1v-9.1h1.8v1.2c.1-.2.4-.5.8-.8.7-.4 1.4-.7 2.2-.7.4 0 .7.1 1 .2z"/></g><g><path class="st1" d="M198.2 526.9h-1.8v-.7c-.9.6-1.8.9-2.7.9-.9 0-1.6-.3-2.1-.8s-.8-1.2-.8-2.1c0-2.1 1.7-3.2 5.2-3.2h.3v-.4c0-.6-.1-.9-.3-1.1-.3-.3-.8-.4-1.5-.4-.8 0-1.6.2-2.5.7l-.7-1.3c.2-.2.5-.4 1-.5.7-.3 1.5-.5 2.4-.5 1.2 0 2.2.3 2.8 1 .3.3.5.7.6 1.2.1.3.1.9.1 1.6v5.6zm-2-2v-2.4h-.4c-1.4 0-2.4.2-2.9.7-.2.2-.4.6-.4.9 0 .5.2.8.5 1 .3.2.7.4 1.2.4.6 0 1.3-.2 2-.6zM208.2 526.9h-2.1v-5c0-1.2-.1-2-.4-2.2-.3-.3-.7-.4-1.2-.4-.6 0-1.3.2-2 .7v7h-2.1v-9.1h1.8v.7c.9-.6 1.8-.9 2.7-.9 1 0 1.7.3 2.3.8.4.4.7 1 .8 1.6.1.4.1 1 .1 1.9v4.9zM217.9 526.1c-.1.2-.5.3-.9.6-.8.3-1.6.5-2.4.5-1.4 0-2.5-.4-3.3-1.3-.8-.9-1.3-2-1.3-3.4s.5-2.6 1.3-3.6c.9-.9 2-1.4 3.4-1.4.8 0 1.5.2 2.2.5.5.2.7.4.9.6l-.8 1.3c-.6-.4-1.3-.6-2.1-.6-.9 0-1.5.3-2.1 1-.5.6-.7 1.3-.7 2.1 0 .9.2 1.7.7 2.2s1.1.9 2 .9c.7 0 1.5-.2 2.3-.7l.8 1.3z"/></g><g><path class="st1" d="M227.1 522.2v.7h-6.2c0 .7.2 1.2.6 1.7.5.6 1.1.8 2 .8.8 0 1.6-.2 2.5-.7l.7 1.3c-.9.7-2.1 1-3.4 1-1.4 0-2.5-.5-3.3-1.4-.8-.9-1.2-2-1.2-3.4s.4-2.6 1.2-3.5 1.8-1.4 3.1-1.4c1.2 0 2.2.4 2.9 1.3.8 1 1.1 2.2 1.1 3.6zm-1.9-.8c0-.6-.1-1-.4-1.5-.3-.6-.9-.9-1.6-.9-.6 0-1.2.2-1.6.6-.4.4-.7 1-.8 1.7h4.4zM242.2 518.2c0 1.2-.4 2.1-1.1 2.8-.5.5-1.2.9-1.9 1-.5.1-1.2.1-2.3.1h-.9v4.8h-2.1v-12.5h3.3c1 0 1.8.1 2.3.2.7.2 1.3.5 1.8.9.5.7.9 1.6.9 2.7zm-2.2 0c0-.7-.2-1.2-.6-1.6-.3-.3-1.1-.5-2.3-.5h-1.2v4.3h.9c1.4 0 2.2-.2 2.6-.6.4-.3.6-.9.6-1.6zM246.4 526.9h-2.1v-13.6h2.1v13.6zM255.8 526.9H254v-.7c-.9.6-1.8.9-2.7.9-.9 0-1.6-.3-2.1-.8s-.8-1.2-.8-2.1c0-2.1 1.7-3.2 5.2-3.2h.3v-.4c0-.6-.1-.9-.3-1.1-.3-.3-.8-.4-1.5-.4-.8 0-1.6.2-2.5.7l-.7-1.3c.2-.2.5-.4 1-.5.7-.3 1.5-.5 2.4-.5 1.2 0 2.2.3 2.8 1 .3.3.5.7.6 1.2.1.3.1.9.1 1.6v5.6zm-1.9-2v-2.4h-.4c-1.4 0-2.4.2-2.9.7-.2.2-.4.6-.4.9 0 .5.2.8.5 1 .3.2.7.4 1.2.4s1.2-.2 2-.6zM265.8 526.9h-2.1v-5c0-1.2-.1-2-.4-2.2-.3-.3-.7-.4-1.2-.4-.6 0-1.3.2-2 .7v7H258v-9.1h1.8v.7c.9-.6 1.8-.9 2.7-.9 1 0 1.7.3 2.3.8.4.4.7 1 .8 1.6.1.4.1 1 .1 1.9v4.9zM274.3 524.3c0 .9-.3 1.6-1 2.1s-1.5.8-2.5.8c-.8 0-1.6-.2-2.4-.5-.5-.2-.8-.4-1-.5l.7-1.3c.9.5 1.7.7 2.4.7.5 0 .9-.1 1.2-.3.3-.2.4-.5.4-.8s-.2-.6-.5-.8l-1.4-.7c-.7-.3-1.3-.6-1.6-.9-.5-.5-.8-1.1-.8-1.8 0-.8.3-1.5.9-2 .6-.5 1.4-.8 2.5-.8 1.3 0 2.3.3 3 .8l-.7 1.3c-.7-.4-1.4-.6-2.1-.6-1 0-1.5.3-1.5 1 0 .3.2.6.5.8l1.2.6c.9.4 1.5.7 1.9 1 .5.5.8 1.1.8 1.9z"/></g><path class="st0" d="M62.9 527.1c-.9 0-1.6-.7-1.6-1.6 0-.9.7-1.6 1.6-1.6.9 0 1.6.7 1.6 1.6-.1.9-.8 1.6-1.6 1.6m0-2.7c-.7 0-1.2.5-1.2 1.2s.5 1.2 1.2 1.2 1.2-.5 1.2-1.2-.6-1.2-1.2-1.2m.3 1.9l-.2-.4c-.1-.2-.1-.2-.3-.2h-.1v.6h-.3v-1.6h.4c.2 0 .4 0 .5.1.1.1.2.2.2.4s-.1.3-.3.4c.1 0 .1.1.2.2l.3.6h-.4zM63 525H62.7v.4h.3c.1 0 .2-.1.2-.2-.1-.1-.1-.2-.2-.2"/><path class="st2" d="M5.2 511.3h281.6v21.5H5.2z"/></svg>