<svg id="Layer_1" xmlns="http://www.w3.org/2000/svg" xmlns:xlink="http://www.w3.org/1999/xlink" viewBox="0 0 300 600"><style>.st0,.st1{clip-path:url(#SVGID_00000072990277817305375710000009671074608419794831_);fill:#231f20}.st1{fill:#22b0e6}</style><defs><path id="SVGID_1_" d="M105.2 463.5H193v29.8h-87.8z"/></defs><clipPath id="SVGID_00000109015195458563834450000008322446750126948753_"><use xlink:href="#SVGID_1_" overflow="visible"/></clipPath><path d="M105.8 479.6h4.7c3.7 0 4.5 2.4 4.5 4.1 0 1.6-.7 4-4.5 4h-2.4v5h-2.3v-13.1zm2.3 6.2h2.3c1 0 2.3-.5 2.3-2.2 0-1.7-1-2.2-2.3-2.2h-2.3v4.4zM116.3 483.2h2v1.8c.2-1 1.5-2.1 2.8-2.1.5 0 .6 0 .8.1v2c-.3 0-.6-.1-.9-.1-1.4 0-2.6 1.2-2.6 3.2v4.5h-2.1v-9.4zM122.2 487.9c0-2.9 1.7-5 4.8-5 3 0 4.8 2.1 4.8 5s-1.7 5-4.8 5c-3.1 0-4.8-2.1-4.8-5m7.4 0c0-1.6-.8-3.3-2.7-3.3-1.9 0-2.7 1.7-2.7 3.3 0 1.6.8 3.4 2.7 3.4 1.9-.1 2.7-1.8 2.7-3.4M132 483.2h1.7v-2.8h2v2.8h1.9v1.6h-1.9v5.1c0 .9.1 1.3 1 1.3.3 0 .6 0 .9-.1v1.6c-.5 0-.9.1-1.4.1-2.2 0-2.6-.8-2.6-2.4v-5.6H132v-1.6zM140.6 488.4c0 1.5.8 2.8 2.5 2.8 1.2 0 1.9-.5 2.3-1.6h2c-.5 2.1-2.2 3.2-4.3 3.2-3 0-4.6-2.1-4.6-5 0-2.7 1.8-5 4.6-5 3 0 4.8 2.7 4.5 5.5h-7zm4.8-1.3c-.1-1.3-1-2.5-2.4-2.5s-2.4 1.1-2.5 2.5h4.9zM155.4 486.3c-.2-1.2-1-1.8-2.2-1.8-1.1 0-2.6.6-2.6 3.4 0 1.6.7 3.2 2.5 3.2 1.2 0 2.1-.8 2.3-2.2h2.1c-.4 2.5-1.9 3.8-4.3 3.8-3 0-4.6-2.1-4.6-4.9 0-2.9 1.6-5.1 4.7-5.1 2.2 0 4.1 1.1 4.3 3.4h-2.2zM158.1 483.2h1.6v-2.8h2.1v2.8h1.9v1.6h-1.9v5.1c0 .9.1 1.3 1 1.3.3 0 .6 0 .9-.1v1.6c-.5 0-.9.1-1.4.1-2.2 0-2.6-.8-2.6-2.4v-5.6h-1.6v-1.6zM166 479.6h2.1v2H166v-2zm0 3.6h2.1v9.5H166v-9.5zM169.6 483.2h2.3l2.9 7.2h.1l2.8-7.2h2.2l-4 9.4h-2.3zM182.5 488.4c0 1.5.8 2.8 2.5 2.8 1.2 0 1.9-.5 2.3-1.6h2c-.5 2.1-2.2 3.2-4.3 3.2-3 0-4.6-2.1-4.6-5 0-2.7 1.8-5 4.6-5 3 0 4.8 2.7 4.5 5.5h-7zm4.9-1.3c-.1-1.3-1-2.5-2.4-2.5s-2.4 1.1-2.5 2.5h4.9z" clip-path="url(#SVGID_00000109015195458563834450000008322446750126948753_)" fill="#231f20"/><path d="M162.1 477.4c-1.4-5.2-5.5-9.3-10.7-10.6-.5-1.6-2-2.8-3.7-2.8-1.8 0-3.2 1.2-3.7 2.8-5.2 1.3-9.3 5.4-10.7 10.6l-.2.6h3.2l.1-.3c1.2-3.8 4.2-6.7 7.9-7.8.7 1.1 1.9 1.9 3.3 1.9s2.7-.8 3.4-1.9c3.8 1.1 6.7 4 7.9 7.8l.1.3h3.2l-.1-.6z" clip-path="url(#SVGID_00000109015195458563834450000008322446750126948753_)" fill="#22b0e6"/><path d="M191.6 491c.5 0 .9.4.9.9s-.4.9-.9.9-.9-.4-.9-.9c0-.4.4-.9.9-.9m.8 1c0-.4-.3-.8-.8-.8-.4 0-.8.3-.8.8 0 .4.3.8.8.8.5-.1.8-.4.8-.8m-1.1-.6h.4c.2 0 .4.1.4.3 0 .2-.1.3-.3.3l.3.5h-.2l-.3-.5h-.2v.5h-.2v-1.1zm.3.5c.2 0 .3 0 .3-.2 0-.1-.1-.2-.2-.2h-.2v.3h.1z" clip-path="url(#SVGID_00000109015195458563834450000008322446750126948753_)" fill="#231f20"/></svg>