<?xml version="1.0" encoding="utf-8"?>
<!-- Generator: Adobe Illustrator 25.4.6, SVG Export Plug-In . SVG Version: 6.00 Build 0)  -->
<svg version="1.1" id="Layer_1" xmlns="http://www.w3.org/2000/svg" xmlns:xlink="http://www.w3.org/1999/xlink" x="0px" y="0px"
	 viewBox="0 0 160 600" style="enable-background:new 0 0 160 600;" xml:space="preserve">
<style type="text/css">
	.st0{fill:#373535;}
</style>
<g>
	<path class="st0" d="M18.1,181.6l5.3,14.3h-3.3l-1.1-3.2h-5.3l-1.1,3.2H9.5l5.4-14.3H18.1z M18.3,190.4l-1.8-5.2h0l-1.9,5.2H18.3z"
		/>
	<path class="st0" d="M26.9,185.6v1.4h0.1c0.4-0.6,0.8-1,1.4-1.3c0.6-0.3,1.2-0.4,1.8-0.4c0.8,0,1.4,0.1,1.9,0.3
		c0.5,0.2,0.9,0.5,1.1,0.9c0.3,0.4,0.5,0.8,0.6,1.3s0.2,1.1,0.2,1.8v6.4H31v-5.8c0-0.9-0.1-1.5-0.4-1.9c-0.3-0.4-0.7-0.6-1.4-0.6
		c-0.8,0-1.3,0.2-1.7,0.7s-0.5,1.2-0.5,2.3v5.4h-2.8v-10.3H26.9z"/>
	<path class="st0" d="M43.2,194.6c-0.3,0.6-0.8,1-1.3,1.2s-1.1,0.4-1.8,0.4c-0.8,0-1.5-0.1-2-0.4c-0.6-0.3-1.1-0.7-1.5-1.2
		c-0.4-0.5-0.7-1.1-0.9-1.8c-0.2-0.7-0.3-1.4-0.3-2.1c0-0.7,0.1-1.4,0.3-2c0.2-0.6,0.5-1.2,0.9-1.7c0.4-0.5,0.9-0.9,1.4-1.2
		c0.6-0.3,1.2-0.5,2-0.5c0.6,0,1.2,0.1,1.8,0.4c0.6,0.3,1,0.6,1.3,1.1h0v-5.2h2.8v14.3h-2.7L43.2,194.6L43.2,194.6z M43.1,189.5
		c-0.1-0.4-0.2-0.7-0.4-1c-0.2-0.3-0.4-0.5-0.8-0.7c-0.3-0.2-0.7-0.3-1.2-0.3s-0.9,0.1-1.2,0.3c-0.3,0.2-0.6,0.4-0.8,0.7
		s-0.3,0.7-0.4,1c-0.1,0.4-0.1,0.8-0.1,1.2c0,0.4,0,0.8,0.1,1.2c0.1,0.4,0.2,0.8,0.4,1.1c0.2,0.3,0.5,0.6,0.8,0.8
		c0.3,0.2,0.7,0.3,1.1,0.3c0.5,0,0.9-0.1,1.2-0.3c0.3-0.2,0.6-0.4,0.8-0.8c0.2-0.3,0.3-0.7,0.4-1.1c0.1-0.4,0.1-0.8,0.1-1.2
		C43.2,190.3,43.2,189.9,43.1,189.5z"/>
	<path class="st0" d="M63,196.7c-0.1,0.5-0.4,1-0.7,1.5c-0.4,0.5-0.9,0.9-1.6,1.2c-0.7,0.3-1.7,0.5-2.8,0.5c-0.5,0-1-0.1-1.6-0.2
		c-0.5-0.1-1-0.3-1.4-0.6c-0.4-0.3-0.8-0.6-1.1-1s-0.4-0.9-0.5-1.5h2.8c0.1,0.5,0.4,0.9,0.8,1.1c0.4,0.2,0.8,0.3,1.3,0.3
		c0.8,0,1.4-0.2,1.8-0.7s0.5-1.1,0.5-1.8V194h0c-0.3,0.5-0.7,0.9-1.3,1.2c-0.6,0.3-1.2,0.4-1.8,0.4c-0.8,0-1.4-0.1-2-0.4
		c-0.6-0.3-1-0.6-1.4-1.1c-0.4-0.5-0.6-1-0.8-1.7c-0.2-0.6-0.2-1.3-0.2-2c0-0.7,0.1-1.3,0.3-1.9c0.2-0.6,0.5-1.2,0.9-1.6
		c0.4-0.5,0.8-0.9,1.4-1.1c0.6-0.3,1.2-0.4,1.9-0.4c0.7,0,1.3,0.1,1.8,0.4c0.5,0.3,0.9,0.7,1.3,1.3h0v-1.4h2.7v9.7
		C63.2,195.7,63.2,196.1,63,196.7z M59.1,193.2c0.3-0.2,0.6-0.4,0.8-0.6c0.2-0.3,0.3-0.6,0.4-0.9s0.1-0.7,0.1-1.1
		c0-0.4,0-0.8-0.1-1.2c-0.1-0.4-0.2-0.7-0.4-1c-0.2-0.3-0.4-0.5-0.7-0.7c-0.3-0.2-0.7-0.3-1.2-0.3c-0.4,0-0.7,0.1-1,0.2
		c-0.3,0.2-0.5,0.4-0.7,0.7s-0.3,0.6-0.4,0.9c-0.1,0.4-0.1,0.7-0.1,1.1c0,0.4,0,0.7,0.1,1.1c0.1,0.4,0.2,0.7,0.4,1
		c0.2,0.3,0.4,0.5,0.7,0.7c0.3,0.2,0.7,0.3,1.1,0.3C58.5,193.5,58.8,193.4,59.1,193.2z"/>
	<path class="st0" d="M68.3,193.4c0.4,0.4,1,0.6,1.8,0.6c0.6,0,1.1-0.1,1.5-0.4c0.4-0.3,0.7-0.6,0.8-0.9h2.5c-0.4,1.2-1,2.1-1.8,2.7
		c-0.8,0.5-1.8,0.8-3,0.8c-0.8,0-1.5-0.1-2.2-0.4c-0.7-0.3-1.2-0.6-1.7-1.1c-0.5-0.5-0.8-1.1-1-1.7c-0.2-0.7-0.4-1.4-0.4-2.2
		c0-0.8,0.1-1.5,0.4-2.2c0.3-0.7,0.6-1.2,1.1-1.7c0.5-0.5,1-0.9,1.7-1.2c0.6-0.3,1.4-0.4,2.2-0.4c0.9,0,1.6,0.2,2.3,0.5
		c0.7,0.3,1.2,0.8,1.6,1.4c0.4,0.6,0.7,1.2,0.9,2c0.2,0.7,0.3,1.5,0.2,2.3h-7.5C67.7,192.4,67.9,193,68.3,193.4z M71.5,188
		c-0.3-0.4-0.9-0.6-1.5-0.6c-0.5,0-0.8,0.1-1.1,0.2c-0.3,0.2-0.5,0.3-0.7,0.6c-0.2,0.2-0.3,0.5-0.4,0.7c-0.1,0.3-0.1,0.5-0.1,0.7
		h4.6C72.1,188.9,71.9,188.4,71.5,188z"/>
	<path class="st0" d="M82.3,185.6v1.9h-2.1v5.1c0,0.5,0.1,0.8,0.2,1c0.2,0.2,0.5,0.2,1,0.2c0.2,0,0.3,0,0.5,0c0.1,0,0.3,0,0.4-0.1
		v2.2c-0.2,0-0.5,0.1-0.8,0.1c-0.3,0-0.6,0-0.9,0c-0.4,0-0.9,0-1.2-0.1c-0.4-0.1-0.7-0.2-1-0.3c-0.3-0.2-0.5-0.4-0.7-0.7
		c-0.2-0.3-0.3-0.7-0.3-1.3v-6.1h-1.7v-1.9h1.7v-3.1h2.8v3.1H82.3z"/>
	<path class="st0" d="M96.1,199.5v-4.9h0c-0.3,0.6-0.8,1-1.4,1.2c-0.6,0.2-1.2,0.4-1.9,0.4c-0.5,0-1-0.1-1.5-0.3
		c-0.5-0.2-1-0.5-1.4-0.9s-0.8-1-1.1-1.7c-0.3-0.7-0.4-1.5-0.4-2.5c0-0.7,0.1-1.4,0.3-2.1c0.2-0.7,0.5-1.3,0.9-1.8
		c0.4-0.5,0.9-0.9,1.5-1.2c0.6-0.3,1.3-0.5,2-0.5c0.6,0,1.2,0.1,1.8,0.4c0.6,0.2,1,0.7,1.3,1.2h0v-1.3h2.7v14H96.1z M91.3,192
		c0.1,0.4,0.2,0.7,0.4,1.1c0.2,0.3,0.4,0.6,0.8,0.8c0.3,0.2,0.7,0.3,1.2,0.3c0.5,0,0.9-0.1,1.2-0.3c0.3-0.2,0.6-0.4,0.8-0.7
		c0.2-0.3,0.3-0.6,0.4-1c0.1-0.4,0.1-0.8,0.1-1.2c0-0.4,0-0.8-0.1-1.2c-0.1-0.4-0.2-0.8-0.4-1.1c-0.2-0.3-0.4-0.6-0.8-0.8
		c-0.3-0.2-0.7-0.3-1.1-0.3c-0.5,0-0.9,0.1-1.2,0.3c-0.3,0.2-0.6,0.4-0.8,0.8c-0.2,0.3-0.3,0.7-0.4,1.1c-0.1,0.4-0.1,0.8-0.1,1.2
		C91.2,191.2,91.3,191.6,91.3,192z"/>
	<path class="st0" d="M107.8,195.9v-1.4h-0.1c-0.4,0.6-0.8,1-1.4,1.3s-1.2,0.4-1.8,0.4c-0.8,0-1.4-0.1-1.9-0.3
		c-0.5-0.2-0.9-0.5-1.2-0.9c-0.3-0.4-0.5-0.8-0.6-1.3c-0.1-0.5-0.2-1.1-0.2-1.8v-6.4h2.8v5.8c0,0.9,0.1,1.5,0.4,1.9
		c0.3,0.4,0.7,0.6,1.4,0.6c0.8,0,1.3-0.2,1.7-0.7s0.5-1.2,0.5-2.3v-5.4h2.8v10.3H107.8z"/>
	<path class="st0" d="M112.4,188.8c0-0.7,0.2-1.2,0.5-1.7s0.7-0.8,1.1-1.1s1-0.5,1.5-0.6c0.6-0.1,1.1-0.2,1.7-0.2c0.5,0,1,0,1.6,0.1
		c0.5,0.1,1,0.2,1.5,0.4c0.4,0.2,0.8,0.5,1.1,0.9c0.3,0.4,0.4,0.9,0.4,1.5v5.4c0,0.5,0,0.9,0.1,1.3c0.1,0.4,0.1,0.7,0.3,1h-2.9
		c-0.1-0.2-0.1-0.3-0.1-0.5c0-0.2-0.1-0.3-0.1-0.5c-0.5,0.5-1,0.8-1.6,1s-1.2,0.3-1.9,0.3c-0.5,0-1-0.1-1.4-0.2s-0.8-0.3-1.1-0.6
		c-0.3-0.3-0.6-0.6-0.8-1s-0.3-0.8-0.3-1.4c0-0.6,0.1-1.1,0.3-1.5c0.2-0.4,0.5-0.7,0.8-0.9c0.3-0.2,0.7-0.4,1.1-0.5s0.8-0.2,1.3-0.3
		c0.4-0.1,0.8-0.1,1.3-0.2c0.4,0,0.8-0.1,1.1-0.2c0.3-0.1,0.6-0.2,0.8-0.4s0.3-0.4,0.3-0.7c0-0.3,0-0.6-0.1-0.7
		c-0.1-0.2-0.2-0.3-0.4-0.4c-0.2-0.1-0.4-0.2-0.6-0.2c-0.2,0-0.5-0.1-0.7-0.1c-0.6,0-1,0.1-1.3,0.4c-0.3,0.2-0.5,0.6-0.6,1.2H112.4z
		 M119,190.9c-0.1,0.1-0.3,0.2-0.4,0.2c-0.2,0.1-0.4,0.1-0.6,0.1c-0.2,0-0.4,0.1-0.7,0.1c-0.2,0-0.5,0.1-0.7,0.1
		c-0.2,0-0.4,0.1-0.6,0.2c-0.2,0.1-0.4,0.2-0.5,0.3s-0.3,0.3-0.4,0.4c-0.1,0.2-0.1,0.4-0.1,0.7c0,0.3,0,0.5,0.1,0.6
		c0.1,0.2,0.2,0.3,0.4,0.4s0.3,0.2,0.6,0.2c0.2,0,0.4,0.1,0.7,0.1c0.6,0,1-0.1,1.3-0.3c0.3-0.2,0.5-0.4,0.7-0.7
		c0.1-0.3,0.2-0.5,0.3-0.8s0-0.5,0-0.6V190.9z"/>
	<path class="st0" d="M126.7,181.6v14.3h-2.8v-14.3H126.7z"/>
	<path class="st0" d="M128.9,184v-2.3h2.8v2.3H128.9z M131.7,185.6v10.3h-2.8v-10.3H131.7z"/>
	<path class="st0" d="M139.4,185.6v1.9h-2.1v5.1c0,0.5,0.1,0.8,0.2,1c0.2,0.2,0.5,0.2,1,0.2c0.2,0,0.3,0,0.5,0c0.1,0,0.3,0,0.4-0.1
		v2.2c-0.2,0-0.5,0.1-0.8,0.1c-0.3,0-0.6,0-0.9,0c-0.4,0-0.9,0-1.2-0.1c-0.4-0.1-0.7-0.2-1-0.3c-0.3-0.2-0.5-0.4-0.7-0.7
		c-0.2-0.3-0.3-0.7-0.3-1.3v-6.1h-1.7v-1.9h1.7v-3.1h2.8v3.1H139.4z"/>
	<path class="st0" d="M144.4,199c-0.5,0.4-1.3,0.5-2.3,0.5c-0.3,0-0.6,0-0.9,0c-0.3,0-0.6,0-0.9-0.1v-2.3c0.3,0,0.5,0.1,0.8,0.1
		s0.6,0,0.8,0c0.4,0,0.7-0.2,0.8-0.4s0.3-0.5,0.3-0.8c0-0.2,0-0.4-0.1-0.6l-3.6-9.7h3l2.3,7.1h0l2.3-7.1h2.9l-4.3,11.6
		C145.4,198,145,198.6,144.4,199z"/>
</g>
<g>
	<path class="st0" d="M42.1,209.1c-0.5,0-0.8,0.1-1.1,0.3c-0.3,0.2-0.6,0.5-0.8,0.8c-0.2,0.3-0.3,0.7-0.4,1.1
		c-0.1,0.4-0.1,0.8-0.1,1.2c0,0.4,0,0.8,0.1,1.1c0.1,0.4,0.2,0.7,0.4,1c0.2,0.3,0.4,0.6,0.7,0.8c0.3,0.2,0.7,0.3,1.1,0.3
		c0.7,0,1.2-0.2,1.6-0.6c0.4-0.4,0.6-0.9,0.7-1.5h2.7c-0.2,1.4-0.7,2.4-1.6,3.1c-0.9,0.7-2,1.1-3.4,1.1c-0.8,0-1.5-0.1-2.1-0.4
		c-0.6-0.3-1.2-0.6-1.6-1.1c-0.5-0.5-0.8-1-1.1-1.7c-0.3-0.6-0.4-1.4-0.4-2.1c0-0.8,0.1-1.5,0.4-2.2c0.2-0.7,0.6-1.3,1-1.8
		c0.5-0.5,1-0.9,1.7-1.2c0.7-0.3,1.4-0.4,2.2-0.4c0.6,0,1.2,0.1,1.8,0.2c0.6,0.2,1.1,0.4,1.5,0.7c0.4,0.3,0.8,0.7,1.1,1.2
		c0.3,0.5,0.4,1.1,0.5,1.7h-2.8C44,209.7,43.3,209.1,42.1,209.1z"/>
	<path class="st0" d="M48.5,210.2c0.3-0.7,0.6-1.2,1.1-1.7c0.5-0.5,1-0.8,1.7-1.1c0.7-0.3,1.4-0.4,2.2-0.4c0.8,0,1.5,0.1,2.2,0.4
		c0.7,0.3,1.2,0.6,1.7,1.1s0.8,1,1.1,1.7c0.3,0.7,0.4,1.4,0.4,2.2c0,0.8-0.1,1.6-0.4,2.2c-0.3,0.7-0.6,1.2-1.1,1.7
		c-0.5,0.5-1,0.8-1.7,1.1c-0.7,0.3-1.4,0.4-2.2,0.4c-0.8,0-1.5-0.1-2.2-0.4c-0.7-0.3-1.2-0.6-1.7-1.1c-0.5-0.5-0.8-1-1.1-1.7
		c-0.3-0.7-0.4-1.4-0.4-2.2C48.2,211.6,48.3,210.9,48.5,210.2z M51.1,213.7c0.1,0.4,0.2,0.7,0.4,1.1c0.2,0.3,0.5,0.6,0.8,0.8
		c0.3,0.2,0.7,0.3,1.2,0.3s0.9-0.1,1.2-0.3c0.3-0.2,0.6-0.4,0.8-0.8c0.2-0.3,0.3-0.7,0.4-1.1c0.1-0.4,0.1-0.8,0.1-1.2
		c0-0.4,0-0.8-0.1-1.2s-0.2-0.8-0.4-1.1s-0.5-0.6-0.8-0.8c-0.3-0.2-0.7-0.3-1.2-0.3s-0.9,0.1-1.2,0.3c-0.3,0.2-0.6,0.4-0.8,0.8
		s-0.3,0.7-0.4,1.1c-0.1,0.4-0.1,0.8-0.1,1.2C51,212.9,51,213.3,51.1,213.7z"/>
	<path class="st0" d="M63.1,217.6l-3.5-10.3h3l2.2,7.1h0l2.2-7.1h2.8l-3.5,10.3H63.1z"/>
	<path class="st0" d="M73.8,215.1c0.4,0.4,1,0.6,1.8,0.6c0.6,0,1.1-0.1,1.5-0.4c0.4-0.3,0.7-0.6,0.8-0.9h2.5c-0.4,1.2-1,2.1-1.8,2.7
		c-0.8,0.5-1.8,0.8-3,0.8c-0.8,0-1.5-0.1-2.2-0.4c-0.7-0.3-1.2-0.6-1.7-1.1c-0.5-0.5-0.8-1.1-1-1.7c-0.2-0.7-0.4-1.4-0.4-2.2
		c0-0.8,0.1-1.5,0.4-2.2s0.6-1.2,1.1-1.7s1-0.9,1.7-1.2c0.6-0.3,1.4-0.4,2.2-0.4c0.9,0,1.6,0.2,2.3,0.5c0.7,0.3,1.2,0.8,1.6,1.4
		c0.4,0.6,0.7,1.2,0.9,2s0.3,1.5,0.2,2.3h-7.5C73.1,214.1,73.3,214.7,73.8,215.1z M77,209.7c-0.3-0.4-0.9-0.6-1.5-0.6
		c-0.5,0-0.8,0.1-1.1,0.2c-0.3,0.2-0.5,0.3-0.7,0.6c-0.2,0.2-0.3,0.5-0.4,0.7c-0.1,0.3-0.1,0.5-0.1,0.7h4.6
		C77.6,210.6,77.3,210.1,77,209.7z"/>
	<path class="st0" d="M84.7,207.3v1.9h0c0.1-0.3,0.3-0.6,0.5-0.9c0.2-0.3,0.5-0.5,0.8-0.7c0.3-0.2,0.6-0.3,0.9-0.5
		c0.3-0.1,0.7-0.2,1-0.2c0.2,0,0.4,0,0.6,0.1v2.6c-0.1,0-0.3-0.1-0.5-0.1s-0.4,0-0.5,0c-0.5,0-1,0.1-1.3,0.3
		c-0.4,0.2-0.7,0.4-0.9,0.7c-0.2,0.3-0.4,0.6-0.5,1c-0.1,0.4-0.1,0.8-0.1,1.3v4.7H82v-10.3H84.7z"/>
	<path class="st0" d="M89.5,210.5c0-0.7,0.2-1.2,0.5-1.7s0.7-0.8,1.1-1.1s1-0.5,1.5-0.6c0.6-0.1,1.1-0.2,1.7-0.2c0.5,0,1,0,1.6,0.1
		c0.5,0.1,1,0.2,1.5,0.4c0.4,0.2,0.8,0.5,1.1,0.9c0.3,0.4,0.4,0.9,0.4,1.5v5.4c0,0.5,0,0.9,0.1,1.3c0.1,0.4,0.1,0.7,0.3,1h-2.9
		c-0.1-0.2-0.1-0.3-0.1-0.5c0-0.2-0.1-0.3-0.1-0.5c-0.5,0.5-1,0.8-1.6,1s-1.2,0.3-1.9,0.3c-0.5,0-1-0.1-1.4-0.2s-0.8-0.3-1.1-0.6
		c-0.3-0.3-0.6-0.6-0.8-1s-0.3-0.8-0.3-1.4c0-0.6,0.1-1.1,0.3-1.5c0.2-0.4,0.5-0.7,0.8-0.9c0.3-0.2,0.7-0.4,1.1-0.5s0.8-0.2,1.3-0.3
		c0.4-0.1,0.8-0.1,1.3-0.2c0.4,0,0.8-0.1,1.1-0.2c0.3-0.1,0.6-0.2,0.8-0.4s0.3-0.4,0.3-0.7c0-0.3,0-0.6-0.1-0.7
		c-0.1-0.2-0.2-0.3-0.4-0.4c-0.2-0.1-0.4-0.2-0.6-0.2c-0.2,0-0.5-0.1-0.7-0.1c-0.6,0-1,0.1-1.3,0.4c-0.3,0.2-0.5,0.6-0.6,1.2H89.5z
		 M96.1,212.6c-0.1,0.1-0.3,0.2-0.4,0.2c-0.2,0.1-0.4,0.1-0.6,0.1c-0.2,0-0.4,0.1-0.7,0.1c-0.2,0-0.5,0.1-0.7,0.1
		c-0.2,0-0.4,0.1-0.6,0.2c-0.2,0.1-0.4,0.2-0.5,0.3s-0.3,0.3-0.4,0.4c-0.1,0.2-0.1,0.4-0.1,0.7c0,0.3,0,0.5,0.1,0.6
		c0.1,0.2,0.2,0.3,0.4,0.4s0.3,0.2,0.6,0.2c0.2,0,0.4,0.1,0.7,0.1c0.6,0,1-0.1,1.3-0.3c0.3-0.2,0.5-0.4,0.7-0.7
		c0.1-0.3,0.2-0.5,0.3-0.8s0-0.5,0-0.6V212.6z"/>
	<path class="st0" d="M110.7,218.4c-0.1,0.5-0.4,1-0.7,1.5c-0.4,0.5-0.9,0.9-1.6,1.2c-0.7,0.3-1.7,0.5-2.8,0.5c-0.5,0-1-0.1-1.5-0.2
		c-0.5-0.1-1-0.3-1.4-0.6c-0.4-0.3-0.8-0.6-1.1-1s-0.5-0.9-0.5-1.5h2.8c0.1,0.5,0.4,0.9,0.8,1.1c0.4,0.2,0.8,0.3,1.3,0.3
		c0.8,0,1.4-0.2,1.8-0.7c0.4-0.5,0.5-1.1,0.5-1.8v-1.4h0c-0.3,0.5-0.7,0.9-1.3,1.2c-0.6,0.3-1.2,0.4-1.8,0.4c-0.8,0-1.4-0.1-2-0.4
		c-0.6-0.3-1-0.6-1.4-1.1c-0.4-0.5-0.6-1-0.8-1.7c-0.2-0.6-0.2-1.3-0.2-2c0-0.7,0.1-1.3,0.3-1.9c0.2-0.6,0.5-1.2,0.9-1.6
		c0.4-0.5,0.8-0.9,1.4-1.1c0.6-0.3,1.2-0.4,1.9-0.4c0.7,0,1.3,0.1,1.8,0.4c0.5,0.3,0.9,0.7,1.3,1.3h0v-1.4h2.7v9.7
		C110.9,217.4,110.8,217.8,110.7,218.4z M106.8,214.9c0.3-0.2,0.6-0.4,0.8-0.6s0.4-0.6,0.5-0.9s0.2-0.7,0.2-1.1c0-0.4,0-0.8-0.1-1.2
		c-0.1-0.4-0.2-0.7-0.4-1c-0.2-0.3-0.4-0.5-0.7-0.7c-0.3-0.2-0.7-0.3-1.2-0.3c-0.4,0-0.7,0.1-1,0.2c-0.3,0.2-0.5,0.4-0.7,0.7
		c-0.2,0.3-0.3,0.6-0.4,0.9c-0.1,0.4-0.1,0.7-0.1,1.1c0,0.4,0,0.7,0.1,1.1c0.1,0.4,0.2,0.7,0.4,1c0.2,0.3,0.4,0.5,0.7,0.7
		c0.3,0.2,0.7,0.3,1.1,0.3C106.1,215.2,106.5,215.1,106.8,214.9z"/>
	<path class="st0" d="M116,215.1c0.4,0.4,1,0.6,1.8,0.6c0.6,0,1.1-0.1,1.5-0.4c0.4-0.3,0.7-0.6,0.8-0.9h2.5c-0.4,1.2-1,2.1-1.8,2.7
		c-0.8,0.5-1.8,0.8-3,0.8c-0.8,0-1.5-0.1-2.2-0.4c-0.7-0.3-1.2-0.6-1.7-1.1c-0.5-0.5-0.8-1.1-1-1.7c-0.2-0.7-0.4-1.4-0.4-2.2
		c0-0.8,0.1-1.5,0.4-2.2s0.6-1.2,1.1-1.7s1-0.9,1.7-1.2c0.6-0.3,1.4-0.4,2.2-0.4c0.9,0,1.6,0.2,2.3,0.5c0.7,0.3,1.2,0.8,1.6,1.4
		c0.4,0.6,0.7,1.2,0.9,2s0.3,1.5,0.2,2.3h-7.5C115.3,214.1,115.6,214.7,116,215.1z M119.2,209.7c-0.3-0.4-0.9-0.6-1.5-0.6
		c-0.5,0-0.8,0.1-1.1,0.2c-0.3,0.2-0.5,0.3-0.7,0.6c-0.2,0.2-0.3,0.5-0.4,0.7c-0.1,0.3-0.1,0.5-0.1,0.7h4.6
		C119.8,210.6,119.5,210.1,119.2,209.7z"/>
</g>
<g>
	<path class="st0" d="M38.7,229v1.9h-2.1v5.1c0,0.5,0.1,0.8,0.2,1c0.2,0.2,0.5,0.2,1,0.2c0.2,0,0.3,0,0.5,0c0.1,0,0.3,0,0.4-0.1v2.2
		c-0.2,0-0.5,0.1-0.8,0.1c-0.3,0-0.6,0-0.9,0c-0.4,0-0.9,0-1.2-0.1c-0.4-0.1-0.7-0.2-1-0.3c-0.3-0.2-0.5-0.4-0.7-0.7
		c-0.2-0.3-0.3-0.7-0.3-1.3v-6.1h-1.7V229h1.7v-3.1h2.8v3.1H38.7z"/>
	<path class="st0" d="M42.8,225v5.4h0.1c0.4-0.6,0.8-1,1.4-1.3c0.6-0.3,1.1-0.4,1.6-0.4c0.8,0,1.4,0.1,1.9,0.3
		c0.5,0.2,0.9,0.5,1.1,0.9c0.3,0.4,0.5,0.8,0.6,1.3s0.2,1.1,0.2,1.8v6.4h-2.8v-5.8c0-0.9-0.1-1.5-0.4-1.9c-0.3-0.4-0.7-0.6-1.4-0.6
		c-0.8,0-1.3,0.2-1.7,0.7s-0.5,1.2-0.5,2.3v5.4h-2.8V225H42.8z"/>
	<path class="st0" d="M51.5,232.2c0-0.7,0.2-1.2,0.5-1.7c0.3-0.4,0.7-0.8,1.1-1.1c0.5-0.3,1-0.5,1.5-0.6c0.6-0.1,1.1-0.2,1.7-0.2
		c0.5,0,1,0,1.6,0.1s1,0.2,1.5,0.4c0.4,0.2,0.8,0.5,1.1,0.9c0.3,0.4,0.4,0.9,0.4,1.5v5.4c0,0.5,0,0.9,0.1,1.3s0.1,0.7,0.3,1h-2.9
		c-0.1-0.2-0.1-0.3-0.1-0.5c0-0.2-0.1-0.3-0.1-0.5c-0.5,0.5-1,0.8-1.6,1s-1.2,0.3-1.9,0.3c-0.5,0-1-0.1-1.4-0.2s-0.8-0.3-1.1-0.6
		c-0.3-0.3-0.6-0.6-0.8-1c-0.2-0.4-0.3-0.8-0.3-1.4c0-0.6,0.1-1.1,0.3-1.5c0.2-0.4,0.5-0.7,0.8-0.9c0.3-0.2,0.7-0.4,1.1-0.5
		s0.8-0.2,1.3-0.3c0.4-0.1,0.8-0.1,1.3-0.2c0.4,0,0.8-0.1,1.1-0.2c0.3-0.1,0.6-0.2,0.8-0.4c0.2-0.2,0.3-0.4,0.3-0.7
		c0-0.3,0-0.6-0.1-0.7c-0.1-0.2-0.2-0.3-0.4-0.4c-0.2-0.1-0.4-0.2-0.6-0.2c-0.2,0-0.5-0.1-0.7-0.1c-0.6,0-1,0.1-1.3,0.4
		c-0.3,0.2-0.5,0.6-0.6,1.2H51.5z M58,234.3c-0.1,0.1-0.3,0.2-0.5,0.2c-0.2,0.1-0.4,0.1-0.6,0.1c-0.2,0-0.4,0.1-0.7,0.1
		c-0.2,0-0.5,0.1-0.7,0.1c-0.2,0-0.4,0.1-0.6,0.2s-0.4,0.2-0.5,0.3c-0.2,0.1-0.3,0.3-0.4,0.4c-0.1,0.2-0.1,0.4-0.1,0.7
		c0,0.3,0,0.5,0.1,0.6c0.1,0.2,0.2,0.3,0.4,0.4s0.3,0.2,0.6,0.2c0.2,0,0.4,0.1,0.7,0.1c0.6,0,1-0.1,1.3-0.3c0.3-0.2,0.5-0.4,0.7-0.7
		c0.1-0.3,0.2-0.5,0.3-0.8c0-0.3,0-0.5,0-0.6V234.3z"/>
	<path class="st0" d="M68.6,229v1.9h-2.1v5.1c0,0.5,0.1,0.8,0.2,1c0.2,0.2,0.5,0.2,1,0.2c0.2,0,0.3,0,0.5,0c0.1,0,0.3,0,0.4-0.1v2.2
		c-0.2,0-0.5,0.1-0.8,0.1c-0.3,0-0.6,0-0.9,0c-0.4,0-0.9,0-1.2-0.1c-0.4-0.1-0.7-0.2-1-0.3c-0.3-0.2-0.5-0.4-0.7-0.7
		c-0.2-0.3-0.3-0.7-0.3-1.3v-6.1h-1.7V229h1.7v-3.1h2.8v3.1H68.6z"/>
	<path class="st0" d="M72.9,225v3.1c0,0.4,0,0.9-0.2,1.2c-0.1,0.4-0.3,0.7-0.6,1c-0.3,0.3-0.6,0.5-0.9,0.7s-0.7,0.3-1.1,0.4v-1.3
		c0.5-0.2,0.9-0.4,1-0.8c0.2-0.3,0.3-0.8,0.3-1.2H70V225H72.9z"/>
	<path class="st0" d="M76,236.7c0.1,0.2,0.3,0.4,0.5,0.5c0.2,0.1,0.4,0.2,0.7,0.3c0.3,0.1,0.5,0.1,0.8,0.1c0.2,0,0.4,0,0.6-0.1
		c0.2,0,0.4-0.1,0.6-0.2c0.2-0.1,0.3-0.2,0.4-0.4c0.1-0.2,0.2-0.4,0.2-0.6c0-0.4-0.3-0.7-0.9-1s-1.4-0.4-2.4-0.6
		c-0.4-0.1-0.8-0.2-1.2-0.3c-0.4-0.1-0.7-0.3-1-0.5c-0.3-0.2-0.6-0.5-0.7-0.8c-0.2-0.3-0.3-0.7-0.3-1.1c0-0.7,0.1-1.2,0.4-1.6
		s0.6-0.8,1-1c0.4-0.2,0.9-0.4,1.4-0.5c0.5-0.1,1.1-0.1,1.6-0.1c0.6,0,1.1,0.1,1.6,0.2c0.5,0.1,1,0.3,1.4,0.5c0.4,0.3,0.8,0.6,1,1
		s0.4,1,0.5,1.6h-2.7c0-0.5-0.2-0.9-0.6-1.1c-0.4-0.2-0.8-0.3-1.3-0.3c-0.2,0-0.3,0-0.5,0s-0.4,0.1-0.5,0.1
		c-0.2,0.1-0.3,0.2-0.4,0.3c-0.1,0.1-0.2,0.3-0.2,0.5c0,0.3,0.1,0.5,0.3,0.6c0.2,0.2,0.4,0.3,0.7,0.4s0.6,0.2,1,0.3s0.8,0.2,1.2,0.3
		c0.4,0.1,0.8,0.2,1.2,0.3s0.7,0.3,1,0.5c0.3,0.2,0.6,0.5,0.7,0.8s0.3,0.7,0.3,1.2c0,0.7-0.1,1.2-0.4,1.7s-0.6,0.8-1.1,1.1
		c-0.4,0.3-0.9,0.5-1.5,0.6c-0.6,0.1-1.1,0.2-1.7,0.2c-0.6,0-1.2-0.1-1.8-0.2s-1.1-0.3-1.5-0.6c-0.4-0.3-0.8-0.6-1.1-1.1
		s-0.4-1-0.5-1.7h2.7C75.8,236.3,75.9,236.5,76,236.7z"/>
	<path class="st0" d="M89.4,232.2c0-0.7,0.2-1.2,0.5-1.7s0.7-0.8,1.1-1.1s1-0.5,1.5-0.6c0.6-0.1,1.1-0.2,1.7-0.2c0.5,0,1,0,1.6,0.1
		c0.5,0.1,1,0.2,1.5,0.4c0.4,0.2,0.8,0.5,1.1,0.9c0.3,0.4,0.4,0.9,0.4,1.5v5.4c0,0.5,0,0.9,0.1,1.3c0.1,0.4,0.1,0.7,0.3,1h-2.9
		c-0.1-0.2-0.1-0.3-0.1-0.5c0-0.2-0.1-0.3-0.1-0.5c-0.5,0.5-1,0.8-1.6,1s-1.2,0.3-1.9,0.3c-0.5,0-1-0.1-1.4-0.2s-0.8-0.3-1.1-0.6
		c-0.3-0.3-0.6-0.6-0.8-1s-0.3-0.8-0.3-1.4c0-0.6,0.1-1.1,0.3-1.5c0.2-0.4,0.5-0.7,0.8-0.9c0.3-0.2,0.7-0.4,1.1-0.5s0.8-0.2,1.3-0.3
		c0.4-0.1,0.8-0.1,1.3-0.2c0.4,0,0.8-0.1,1.1-0.2c0.3-0.1,0.6-0.2,0.8-0.4s0.3-0.4,0.3-0.7c0-0.3,0-0.6-0.1-0.7
		c-0.1-0.2-0.2-0.3-0.4-0.4c-0.2-0.1-0.4-0.2-0.6-0.2c-0.2,0-0.5-0.1-0.7-0.1c-0.6,0-1,0.1-1.3,0.4c-0.3,0.2-0.5,0.6-0.6,1.2H89.4z
		 M96,234.3c-0.1,0.1-0.3,0.2-0.4,0.2c-0.2,0.1-0.4,0.1-0.6,0.1c-0.2,0-0.4,0.1-0.7,0.1c-0.2,0-0.5,0.1-0.7,0.1
		c-0.2,0-0.4,0.1-0.6,0.2c-0.2,0.1-0.4,0.2-0.5,0.3s-0.3,0.3-0.4,0.4c-0.1,0.2-0.1,0.4-0.1,0.7c0,0.3,0,0.5,0.1,0.6
		c0.1,0.2,0.2,0.3,0.4,0.4s0.3,0.2,0.6,0.2c0.2,0,0.4,0.1,0.7,0.1c0.6,0,1-0.1,1.3-0.3c0.3-0.2,0.5-0.4,0.7-0.7
		c0.1-0.3,0.2-0.5,0.3-0.8s0-0.5,0-0.6V234.3z"/>
	<path class="st0" d="M103.8,225v14.3h-2.8V225H103.8z"/>
	<path class="st0" d="M108.2,236.7c0.1,0.2,0.3,0.4,0.5,0.5c0.2,0.1,0.4,0.2,0.7,0.3c0.3,0.1,0.5,0.1,0.8,0.1c0.2,0,0.4,0,0.6-0.1
		c0.2,0,0.4-0.1,0.6-0.2c0.2-0.1,0.3-0.2,0.4-0.4c0.1-0.2,0.2-0.4,0.2-0.6c0-0.4-0.3-0.7-0.9-1s-1.4-0.4-2.4-0.6
		c-0.4-0.1-0.8-0.2-1.2-0.3c-0.4-0.1-0.7-0.3-1-0.5c-0.3-0.2-0.6-0.5-0.7-0.8c-0.2-0.3-0.3-0.7-0.3-1.1c0-0.7,0.1-1.2,0.4-1.6
		s0.6-0.8,1-1c0.4-0.2,0.9-0.4,1.4-0.5c0.5-0.1,1.1-0.1,1.6-0.1c0.6,0,1.1,0.1,1.6,0.2c0.5,0.1,1,0.3,1.4,0.5c0.4,0.3,0.8,0.6,1,1
		s0.4,1,0.5,1.6h-2.7c0-0.5-0.2-0.9-0.6-1.1c-0.4-0.2-0.8-0.3-1.3-0.3c-0.2,0-0.3,0-0.5,0s-0.4,0.1-0.5,0.1
		c-0.2,0.1-0.3,0.2-0.4,0.3c-0.1,0.1-0.2,0.3-0.2,0.5c0,0.3,0.1,0.5,0.3,0.6c0.2,0.2,0.4,0.3,0.7,0.4s0.6,0.2,1,0.3s0.8,0.2,1.2,0.3
		c0.4,0.1,0.8,0.2,1.2,0.3s0.7,0.3,1,0.5c0.3,0.2,0.6,0.5,0.7,0.8s0.3,0.7,0.3,1.2c0,0.7-0.1,1.2-0.4,1.7s-0.6,0.8-1.1,1.1
		c-0.4,0.3-0.9,0.5-1.5,0.6c-0.6,0.1-1.1,0.2-1.7,0.2c-0.6,0-1.2-0.1-1.8-0.2s-1.1-0.3-1.5-0.6c-0.4-0.3-0.8-0.6-1.1-1.1
		s-0.4-1-0.5-1.7h2.7C108,236.3,108.1,236.5,108.2,236.7z"/>
	<path class="st0" d="M116.5,231.9c0.3-0.7,0.6-1.2,1.1-1.7s1-0.8,1.7-1.1c0.7-0.3,1.4-0.4,2.2-0.4s1.6,0.1,2.2,0.4
		c0.7,0.3,1.2,0.6,1.7,1.1s0.8,1,1.1,1.7c0.3,0.7,0.4,1.4,0.4,2.2c0,0.8-0.1,1.6-0.4,2.2c-0.3,0.7-0.6,1.2-1.1,1.7
		c-0.5,0.5-1,0.8-1.7,1.1c-0.7,0.3-1.4,0.4-2.2,0.4s-1.5-0.1-2.2-0.4c-0.7-0.3-1.2-0.6-1.7-1.1c-0.5-0.5-0.8-1-1.1-1.7
		c-0.3-0.7-0.4-1.4-0.4-2.2C116.1,233.3,116.2,232.6,116.5,231.9z M119,235.4c0.1,0.4,0.2,0.7,0.4,1.1c0.2,0.3,0.5,0.6,0.8,0.8
		c0.3,0.2,0.7,0.3,1.2,0.3c0.5,0,0.9-0.1,1.2-0.3c0.3-0.2,0.6-0.4,0.8-0.8c0.2-0.3,0.3-0.7,0.4-1.1c0.1-0.4,0.1-0.8,0.1-1.2
		c0-0.4,0-0.8-0.1-1.2s-0.2-0.8-0.4-1.1s-0.5-0.6-0.8-0.8c-0.3-0.2-0.7-0.3-1.2-0.3c-0.5,0-0.9,0.1-1.2,0.3
		c-0.3,0.2-0.6,0.4-0.8,0.8s-0.3,0.7-0.4,1.1s-0.1,0.8-0.1,1.2C118.9,234.6,119,235,119,235.4z"/>
</g>
<path class="st0" d="M30.6,253.9c0-0.7,0.2-1.2,0.5-1.7c0.3-0.4,0.7-0.8,1.1-1.1c0.5-0.3,1-0.5,1.5-0.6c0.6-0.1,1.1-0.2,1.7-0.2
	c0.5,0,1,0,1.6,0.1c0.5,0.1,1,0.2,1.5,0.4c0.4,0.2,0.8,0.5,1.1,0.9c0.3,0.4,0.4,0.9,0.4,1.5v5.4c0,0.5,0,0.9,0.1,1.3
	c0.1,0.4,0.1,0.7,0.3,1h-2.9c-0.1-0.2-0.1-0.3-0.1-0.5c0-0.2-0.1-0.3-0.1-0.5c-0.5,0.5-1,0.8-1.6,1c-0.6,0.2-1.2,0.3-1.9,0.3
	c-0.5,0-1-0.1-1.4-0.2c-0.4-0.1-0.8-0.3-1.1-0.6c-0.3-0.3-0.6-0.6-0.8-1c-0.2-0.4-0.3-0.8-0.3-1.4c0-0.6,0.1-1.1,0.3-1.4
	c0.2-0.4,0.5-0.7,0.8-0.9c0.3-0.2,0.7-0.4,1.1-0.5c0.4-0.1,0.8-0.2,1.3-0.3c0.4-0.1,0.8-0.1,1.3-0.2c0.4,0,0.8-0.1,1.1-0.2
	c0.3-0.1,0.6-0.2,0.8-0.4c0.2-0.2,0.3-0.4,0.3-0.7c0-0.3,0-0.5-0.2-0.7c-0.1-0.2-0.2-0.3-0.4-0.4c-0.2-0.1-0.4-0.2-0.6-0.2
	c-0.2,0-0.5,0-0.7,0c-0.6,0-1,0.1-1.3,0.4c-0.3,0.2-0.5,0.6-0.6,1.2H30.6z M37.1,256c-0.1,0.1-0.3,0.2-0.5,0.2s-0.4,0.1-0.6,0.1
	c-0.2,0-0.4,0.1-0.6,0.1c-0.2,0-0.5,0.1-0.7,0.1c-0.2,0-0.4,0.1-0.6,0.2c-0.2,0.1-0.4,0.2-0.5,0.3c-0.2,0.1-0.3,0.3-0.4,0.4
	c-0.1,0.2-0.1,0.4-0.1,0.7c0,0.3,0,0.5,0.1,0.6c0.1,0.2,0.2,0.3,0.4,0.4c0.2,0.1,0.3,0.2,0.6,0.2c0.2,0,0.4,0.1,0.7,0.1
	c0.6,0,1-0.1,1.3-0.3c0.3-0.2,0.5-0.4,0.7-0.7c0.1-0.3,0.2-0.5,0.3-0.8c0-0.3,0-0.5,0-0.6V256z M48.6,252.6h-3.2v8.4h-2.8v-8.4h-1.7
	v-1.9h1.7v-0.8c0-0.9,0.3-1.7,0.9-2.3c0.6-0.6,1.4-0.9,2.6-0.9c0.3,0,0.5,0,0.8,0c0.3,0,0.5,0,0.7,0v2.1c-0.3,0-0.7-0.1-1-0.1
	c-0.4,0-0.7,0.1-0.8,0.3c-0.2,0.2-0.2,0.5-0.2,0.9v0.6h3.2v-0.8c0-0.9,0.3-1.7,0.9-2.3c0.6-0.6,1.4-0.9,2.6-0.9c0.3,0,0.5,0,0.8,0
	c0.3,0,0.5,0,0.7,0v2.1c-0.3,0-0.7-0.1-1-0.1c-0.4,0-0.7,0.1-0.8,0.3c-0.2,0.2-0.2,0.5-0.2,0.9v0.6h2v1.9h-2v8.4h-2.8V252.6z
	 M54.2,255.9c0,0.8,0.1,1.6,0.4,2.2c0.3,0.7,0.6,1.2,1.1,1.7c0.5,0.5,1,0.8,1.7,1.1c0.7,0.3,1.4,0.4,2.2,0.4c0.8,0,1.6-0.1,2.2-0.4
	c0.7-0.3,1.2-0.6,1.7-1.1c0.5-0.5,0.8-1,1.1-1.7c0.3-0.7,0.4-1.4,0.4-2.2c0-0.8-0.1-1.6-0.4-2.2c-0.3-0.7-0.6-1.2-1.1-1.7
	c-0.5-0.5-1-0.8-1.7-1.1c-0.7-0.3-1.4-0.4-2.2-0.4c-0.8,0-1.5,0.1-2.2,0.4c-0.7,0.3-1.2,0.6-1.7,1.1c-0.5,0.5-0.8,1-1.1,1.7
	C54.3,254.3,54.2,255,54.2,255.9z M57,255.9c0-0.4,0-0.8,0.1-1.2s0.2-0.8,0.4-1.1c0.2-0.3,0.5-0.6,0.8-0.8c0.3-0.2,0.7-0.3,1.2-0.3
	c0.5,0,0.9,0.1,1.2,0.3c0.3,0.2,0.6,0.4,0.8,0.8c0.2,0.3,0.3,0.7,0.4,1.1s0.1,0.8,0.1,1.2c0,0.4,0,0.8-0.1,1.2
	c-0.1,0.4-0.2,0.7-0.4,1.1c-0.2,0.3-0.5,0.6-0.8,0.8c-0.3,0.2-0.7,0.3-1.2,0.3c-0.5,0-0.9-0.1-1.2-0.3c-0.3-0.2-0.6-0.4-0.8-0.8
	c-0.2-0.3-0.3-0.7-0.4-1.1C57,256.7,57,256.3,57,255.9z M66.5,250.7V261h2.8v-4.7c0-0.5,0-0.9,0.1-1.3c0.1-0.4,0.2-0.8,0.5-1.1
	c0.2-0.3,0.5-0.5,0.9-0.7c0.4-0.2,0.8-0.3,1.3-0.3c0.2,0,0.4,0,0.5,0c0.2,0,0.3,0,0.5,0.1v-2.6c-0.2-0.1-0.4-0.1-0.6-0.1
	c-0.4,0-0.7,0.1-1,0.2c-0.3,0.1-0.6,0.3-0.9,0.4c-0.3,0.2-0.6,0.4-0.8,0.7c-0.2,0.3-0.4,0.6-0.5,0.9h0v-1.9H66.5z M81.1,259.7v1.3
	h2.7v-14.3H81v5.2h0c-0.3-0.5-0.8-0.9-1.3-1.2c-0.6-0.3-1.1-0.4-1.8-0.4c-0.8,0-1.4,0.1-2,0.4c-0.6,0.3-1.1,0.7-1.4,1.2
	c-0.4,0.5-0.7,1.1-0.9,1.7c-0.2,0.6-0.3,1.3-0.3,2c0,0.7,0.1,1.4,0.3,2.1c0.2,0.7,0.5,1.3,0.9,1.8c0.4,0.5,0.9,0.9,1.4,1.2
	c0.6,0.3,1.3,0.5,2,0.5c0.7,0,1.3-0.1,1.8-0.4C80.3,260.7,80.7,260.3,81.1,259.7L81.1,259.7z M81.1,255.8c0,0.4,0,0.8-0.1,1.2
	c-0.1,0.4-0.2,0.8-0.4,1.1c-0.2,0.3-0.4,0.6-0.8,0.8c-0.3,0.2-0.7,0.3-1.2,0.3c-0.4,0-0.8-0.1-1.1-0.3c-0.3-0.2-0.6-0.4-0.8-0.8
	c-0.2-0.3-0.4-0.7-0.4-1.1c-0.1-0.4-0.1-0.8-0.1-1.2c0-0.4,0-0.8,0.1-1.2c0.1-0.4,0.2-0.7,0.4-1c0.2-0.3,0.5-0.6,0.8-0.7
	c0.3-0.2,0.7-0.3,1.2-0.3c0.5,0,0.9,0.1,1.2,0.3c0.3,0.2,0.6,0.4,0.8,0.7c0.2,0.3,0.3,0.6,0.4,1C81,255,81.1,255.4,81.1,255.8z
	 M85.6,253.9c0-0.7,0.2-1.2,0.5-1.7c0.3-0.4,0.7-0.8,1.1-1.1c0.5-0.3,1-0.5,1.5-0.6c0.6-0.1,1.1-0.2,1.7-0.2c0.5,0,1,0,1.6,0.1
	c0.5,0.1,1,0.2,1.5,0.4c0.4,0.2,0.8,0.5,1.1,0.9s0.4,0.9,0.4,1.5v5.4c0,0.5,0,0.9,0.1,1.3c0.1,0.4,0.1,0.7,0.3,1h-2.9
	c-0.1-0.2-0.1-0.3-0.1-0.5c0-0.2-0.1-0.3-0.1-0.5c-0.5,0.5-1,0.8-1.6,1c-0.6,0.2-1.2,0.3-1.9,0.3c-0.5,0-1-0.1-1.4-0.2
	c-0.4-0.1-0.8-0.3-1.1-0.6c-0.3-0.3-0.6-0.6-0.8-1c-0.2-0.4-0.3-0.8-0.3-1.4c0-0.6,0.1-1.1,0.3-1.4c0.2-0.4,0.5-0.7,0.8-0.9
	c0.3-0.2,0.7-0.4,1.1-0.5c0.4-0.1,0.8-0.2,1.3-0.3c0.4-0.1,0.8-0.1,1.3-0.2c0.4,0,0.8-0.1,1.1-0.2c0.3-0.1,0.6-0.2,0.8-0.4
	c0.2-0.2,0.3-0.4,0.3-0.7c0-0.3,0-0.5-0.1-0.7c-0.1-0.2-0.2-0.3-0.4-0.4c-0.2-0.1-0.4-0.2-0.6-0.2c-0.2,0-0.5,0-0.7,0
	c-0.6,0-1,0.1-1.3,0.4c-0.3,0.2-0.5,0.6-0.6,1.2H85.6z M92.2,256c-0.1,0.1-0.3,0.2-0.4,0.2s-0.4,0.1-0.6,0.1c-0.2,0-0.4,0.1-0.7,0.1
	c-0.2,0-0.5,0.1-0.7,0.1c-0.2,0-0.4,0.1-0.6,0.2c-0.2,0.1-0.4,0.2-0.5,0.3c-0.2,0.1-0.3,0.3-0.4,0.4c-0.1,0.2-0.1,0.4-0.1,0.7
	c0,0.3,0,0.5,0.1,0.6c0.1,0.2,0.2,0.3,0.4,0.4c0.2,0.1,0.3,0.2,0.6,0.2c0.2,0,0.4,0.1,0.7,0.1c0.6,0,1-0.1,1.3-0.3
	c0.3-0.2,0.5-0.4,0.7-0.7c0.1-0.3,0.2-0.5,0.3-0.8c0-0.3,0-0.5,0-0.6V256z M97,246.7V261h2.7v-1.3h0c0.3,0.6,0.8,1,1.4,1.2
	c0.6,0.2,1.3,0.4,2,0.4c0.5,0,1-0.1,1.5-0.3c0.5-0.2,1-0.5,1.4-1c0.4-0.4,0.7-1,1-1.7c0.3-0.7,0.4-1.5,0.4-2.4
	c0-0.9-0.1-1.8-0.4-2.5c-0.3-0.7-0.6-1.2-1-1.7c-0.4-0.4-0.9-0.8-1.4-1c-0.5-0.2-1-0.3-1.5-0.3c-0.6,0-1.3,0.1-1.8,0.4
	c-0.6,0.2-1.1,0.6-1.4,1.2h0v-5.2H97z M104.6,255.9c0,0.4,0,0.8-0.1,1.2c-0.1,0.4-0.2,0.8-0.4,1.1c-0.2,0.3-0.5,0.5-0.8,0.7
	c-0.3,0.2-0.7,0.3-1.1,0.3c-0.4,0-0.8-0.1-1.1-0.3c-0.3-0.2-0.6-0.4-0.8-0.7c-0.2-0.3-0.3-0.7-0.4-1.1c-0.1-0.4-0.1-0.8-0.1-1.2
	c0-0.4,0-0.9,0.1-1.3c0.1-0.4,0.2-0.8,0.4-1.1c0.2-0.3,0.5-0.5,0.8-0.7c0.3-0.2,0.7-0.3,1.1-0.3c0.4,0,0.8,0.1,1.1,0.3
	c0.3,0.2,0.5,0.4,0.8,0.7c0.2,0.3,0.3,0.7,0.4,1.1C104.6,255,104.6,255.4,104.6,255.9z M109.1,246.7V261h2.8v-14.3H109.1z
	 M116.4,256.5h7.5c0.1-0.8,0-1.6-0.2-2.3c-0.2-0.7-0.5-1.4-0.9-2c-0.4-0.6-1-1-1.6-1.4c-0.7-0.3-1.4-0.5-2.3-0.5
	c-0.8,0-1.5,0.1-2.1,0.4c-0.6,0.3-1.2,0.7-1.7,1.2c-0.5,0.5-0.8,1.1-1.1,1.7c-0.3,0.7-0.4,1.4-0.4,2.2c0,0.8,0.1,1.5,0.4,2.2
	c0.2,0.7,0.6,1.2,1.1,1.7c0.5,0.5,1,0.8,1.7,1.1c0.7,0.3,1.4,0.4,2.2,0.4c1.2,0,2.2-0.3,3-0.8c0.8-0.5,1.4-1.4,1.8-2.7h-2.5
	c-0.1,0.3-0.3,0.6-0.8,0.9c-0.4,0.3-0.9,0.4-1.5,0.4c-0.8,0-1.4-0.2-1.8-0.6C116.6,258.1,116.4,257.5,116.4,256.5z M121,254.7h-4.6
	c0-0.2,0.1-0.4,0.1-0.7c0.1-0.3,0.2-0.5,0.4-0.7c0.2-0.2,0.4-0.4,0.7-0.6c0.3-0.2,0.7-0.2,1.1-0.2c0.7,0,1.2,0.2,1.6,0.6
	C120.6,253.5,120.8,254,121,254.7z M125.4,257.9v3.1h3.1v-3.1H125.4z"/>
</svg>
