<?xml version="1.0" encoding="utf-8"?>
<!-- Generator: Adobe Illustrator 25.4.6, SVG Export Plug-In . SVG Version: 6.00 Build 0)  -->
<svg version="1.1" id="Layer_1" xmlns="http://www.w3.org/2000/svg" xmlns:xlink="http://www.w3.org/1999/xlink" x="0px" y="0px"
	 viewBox="0 0 160 600" style="enable-background:new 0 0 160 600;" xml:space="preserve">
<style type="text/css">
	.st0{fill:#339933;}
</style>
<g>
	<path class="st0" d="M45.3,181.6c0.9,0,1.7,0.1,2.3,0.4c0.6,0.3,1.1,0.6,1.5,1c0.4,0.4,0.7,0.9,0.9,1.5c0.2,0.5,0.3,1.1,0.3,1.7
		c0,0.6-0.1,1.1-0.3,1.7c-0.2,0.6-0.5,1-0.9,1.5c-0.4,0.4-0.9,0.8-1.5,1c-0.6,0.3-1.4,0.4-2.3,0.4H42v5.1h-3.1v-14.3H45.3z
		 M44.4,188.4c0.4,0,0.7,0,1-0.1c0.3-0.1,0.6-0.2,0.9-0.3c0.3-0.2,0.5-0.4,0.6-0.6c0.2-0.3,0.2-0.6,0.2-1.1c0-0.5-0.1-0.8-0.2-1.1
		c-0.2-0.3-0.4-0.5-0.6-0.7c-0.3-0.2-0.5-0.3-0.9-0.3c-0.3-0.1-0.7-0.1-1-0.1H42v4.3H44.4z"/>
	<path class="st0" d="M54.6,185.6v1.9h0c0.1-0.3,0.3-0.6,0.5-0.9c0.2-0.3,0.5-0.5,0.8-0.7c0.3-0.2,0.6-0.3,0.9-0.5
		c0.3-0.1,0.7-0.2,1-0.2c0.2,0,0.4,0,0.6,0.1v2.6c-0.1,0-0.3-0.1-0.5-0.1c-0.2,0-0.4,0-0.5,0c-0.5,0-1,0.1-1.3,0.3
		c-0.4,0.2-0.6,0.4-0.9,0.7c-0.2,0.3-0.4,0.6-0.5,1s-0.1,0.8-0.1,1.3v4.7h-2.8v-10.3H54.6z"/>
	<path class="st0" d="M59.6,188.8c0-0.7,0.2-1.2,0.5-1.7c0.3-0.4,0.7-0.8,1.1-1.1c0.5-0.3,1-0.5,1.5-0.6c0.6-0.1,1.1-0.2,1.7-0.2
		c0.5,0,1,0,1.6,0.1s1,0.2,1.5,0.4c0.4,0.2,0.8,0.5,1.1,0.9c0.3,0.4,0.4,0.9,0.4,1.5v5.4c0,0.5,0,0.9,0.1,1.3s0.1,0.7,0.3,1h-2.9
		c-0.1-0.2-0.1-0.3-0.1-0.5c0-0.2-0.1-0.3-0.1-0.5c-0.5,0.5-1,0.8-1.6,1s-1.2,0.3-1.9,0.3c-0.5,0-1-0.1-1.4-0.2s-0.8-0.3-1.1-0.6
		c-0.3-0.3-0.6-0.6-0.8-1c-0.2-0.4-0.3-0.8-0.3-1.4c0-0.6,0.1-1.1,0.3-1.5c0.2-0.4,0.5-0.7,0.8-0.9c0.3-0.2,0.7-0.4,1.1-0.5
		s0.8-0.2,1.3-0.3c0.4-0.1,0.8-0.1,1.3-0.2c0.4,0,0.8-0.1,1.1-0.2c0.3-0.1,0.6-0.2,0.8-0.4c0.2-0.2,0.3-0.4,0.3-0.7
		c0-0.3,0-0.6-0.1-0.7c-0.1-0.2-0.2-0.3-0.4-0.4c-0.2-0.1-0.4-0.2-0.6-0.2c-0.2,0-0.5-0.1-0.7-0.1c-0.6,0-1,0.1-1.3,0.4
		c-0.3,0.2-0.5,0.6-0.6,1.2H59.6z M66.1,190.9c-0.1,0.1-0.3,0.2-0.5,0.2c-0.2,0.1-0.4,0.1-0.6,0.1c-0.2,0-0.4,0.1-0.7,0.1
		c-0.2,0-0.5,0.1-0.7,0.1c-0.2,0-0.4,0.1-0.6,0.2s-0.4,0.2-0.5,0.3c-0.2,0.1-0.3,0.3-0.4,0.4c-0.1,0.2-0.1,0.4-0.1,0.7
		c0,0.3,0,0.5,0.1,0.6c0.1,0.2,0.2,0.3,0.4,0.4s0.3,0.2,0.6,0.2c0.2,0,0.4,0.1,0.7,0.1c0.6,0,1-0.1,1.3-0.3c0.3-0.2,0.5-0.4,0.7-0.7
		c0.1-0.3,0.2-0.5,0.3-0.8c0-0.3,0-0.5,0-0.6V190.9z"/>
	<path class="st0" d="M76.1,187.4c-0.5,0-0.8,0.1-1.1,0.3c-0.3,0.2-0.6,0.5-0.8,0.8c-0.2,0.3-0.3,0.7-0.4,1.1
		c-0.1,0.4-0.1,0.8-0.1,1.2c0,0.4,0,0.8,0.1,1.1s0.2,0.7,0.4,1c0.2,0.3,0.4,0.6,0.7,0.8c0.3,0.2,0.7,0.3,1.1,0.3
		c0.7,0,1.2-0.2,1.6-0.6c0.4-0.4,0.6-0.9,0.7-1.5H81c-0.2,1.4-0.7,2.4-1.6,3.1c-0.9,0.7-2,1.1-3.4,1.1c-0.8,0-1.5-0.1-2.1-0.4
		c-0.6-0.3-1.2-0.6-1.6-1.1c-0.5-0.5-0.8-1-1.1-1.7c-0.3-0.6-0.4-1.4-0.4-2.1c0-0.8,0.1-1.5,0.4-2.2c0.2-0.7,0.6-1.3,1-1.8
		s1-0.9,1.7-1.2c0.7-0.3,1.4-0.4,2.2-0.4c0.6,0,1.2,0.1,1.8,0.2c0.6,0.2,1.1,0.4,1.5,0.7c0.4,0.3,0.8,0.7,1.1,1.2
		c0.3,0.5,0.4,1.1,0.5,1.7h-2.8C78,188,77.3,187.4,76.1,187.4z"/>
	<path class="st0" d="M88.3,185.6v1.9h-2.1v5.1c0,0.5,0.1,0.8,0.2,1c0.2,0.2,0.5,0.2,1,0.2c0.2,0,0.3,0,0.5,0c0.1,0,0.3,0,0.4-0.1
		v2.2c-0.2,0-0.5,0.1-0.8,0.1c-0.3,0-0.6,0-0.9,0c-0.4,0-0.9,0-1.2-0.1c-0.4-0.1-0.7-0.2-1-0.3c-0.3-0.2-0.5-0.4-0.7-0.7
		c-0.2-0.3-0.3-0.7-0.3-1.3v-6.1h-1.7v-1.9h1.7v-3.1h2.8v3.1H88.3z"/>
	<path class="st0" d="M89.8,184v-2.3h2.8v2.3H89.8z M92.6,185.6v10.3h-2.8v-10.3H92.6z"/>
	<path class="st0" d="M99.8,187.4c-0.5,0-0.8,0.1-1.1,0.3c-0.3,0.2-0.6,0.5-0.8,0.8c-0.2,0.3-0.3,0.7-0.4,1.1
		c-0.1,0.4-0.1,0.8-0.1,1.2c0,0.4,0,0.8,0.1,1.1s0.2,0.7,0.4,1c0.2,0.3,0.4,0.6,0.7,0.8c0.3,0.2,0.7,0.3,1.1,0.3
		c0.7,0,1.2-0.2,1.6-0.6c0.4-0.4,0.6-0.9,0.7-1.5h2.7c-0.2,1.4-0.7,2.4-1.6,3.1c-0.9,0.7-2,1.1-3.4,1.1c-0.8,0-1.5-0.1-2.1-0.4
		c-0.6-0.3-1.2-0.6-1.6-1.1c-0.5-0.5-0.8-1-1.1-1.7c-0.3-0.6-0.4-1.4-0.4-2.1c0-0.8,0.1-1.5,0.4-2.2c0.2-0.7,0.6-1.3,1-1.8
		s1-0.9,1.7-1.2c0.7-0.3,1.4-0.4,2.2-0.4c0.6,0,1.2,0.1,1.8,0.2c0.6,0.2,1.1,0.4,1.5,0.7c0.4,0.3,0.8,0.7,1.1,1.2
		c0.3,0.5,0.4,1.1,0.5,1.7h-2.8C101.7,188,101,187.4,99.8,187.4z"/>
	<path class="st0" d="M106.2,188.8c0-0.7,0.2-1.2,0.5-1.7s0.7-0.8,1.1-1.1s1-0.5,1.5-0.6c0.6-0.1,1.1-0.2,1.7-0.2c0.5,0,1,0,1.6,0.1
		c0.5,0.1,1,0.2,1.5,0.4c0.4,0.2,0.8,0.5,1.1,0.9c0.3,0.4,0.4,0.9,0.4,1.5v5.4c0,0.5,0,0.9,0.1,1.3c0.1,0.4,0.1,0.7,0.3,1h-2.9
		c-0.1-0.2-0.1-0.3-0.1-0.5c0-0.2-0.1-0.3-0.1-0.5c-0.5,0.5-1,0.8-1.6,1s-1.2,0.3-1.9,0.3c-0.5,0-1-0.1-1.4-0.2s-0.8-0.3-1.1-0.6
		c-0.3-0.3-0.6-0.6-0.8-1s-0.3-0.8-0.3-1.4c0-0.6,0.1-1.1,0.3-1.5c0.2-0.4,0.5-0.7,0.8-0.9c0.3-0.2,0.7-0.4,1.1-0.5s0.8-0.2,1.3-0.3
		c0.4-0.1,0.8-0.1,1.3-0.2c0.4,0,0.8-0.1,1.1-0.2c0.3-0.1,0.6-0.2,0.8-0.4s0.3-0.4,0.3-0.7c0-0.3,0-0.6-0.1-0.7
		c-0.1-0.2-0.2-0.3-0.4-0.4c-0.2-0.1-0.4-0.2-0.6-0.2c-0.2,0-0.5-0.1-0.7-0.1c-0.6,0-1,0.1-1.3,0.4c-0.3,0.2-0.5,0.6-0.6,1.2H106.2z
		 M112.8,190.9c-0.1,0.1-0.3,0.2-0.4,0.2c-0.2,0.1-0.4,0.1-0.6,0.1c-0.2,0-0.4,0.1-0.7,0.1c-0.2,0-0.5,0.1-0.7,0.1
		c-0.2,0-0.4,0.1-0.6,0.2c-0.2,0.1-0.4,0.2-0.5,0.3s-0.3,0.3-0.4,0.4c-0.1,0.2-0.1,0.4-0.1,0.7c0,0.3,0,0.5,0.1,0.6
		c0.1,0.2,0.2,0.3,0.4,0.4s0.3,0.2,0.6,0.2c0.2,0,0.4,0.1,0.7,0.1c0.6,0,1-0.1,1.3-0.3c0.3-0.2,0.5-0.4,0.7-0.7
		c0.1-0.3,0.2-0.5,0.3-0.8s0-0.5,0-0.6V190.9z"/>
	<path class="st0" d="M120.7,181.6v14.3h-2.8v-14.3H120.7z"/>
</g>
<g>
	<path class="st0" d="M52.9,217.6l-2.4-9.7h0l-2.4,9.7h-3.2l-3.8-14.3h3.1l2.3,9.7h0l2.5-9.7h2.9l2.4,9.8h0l2.3-9.8h3.1L56,217.6
		H52.9z"/>
	<path class="st0" d="M61,205.7v-2.3h2.8v2.3H61z M63.9,207.3v10.3H61v-10.3H63.9z"/>
	<path class="st0" d="M68.5,215c0.1,0.2,0.3,0.4,0.5,0.5c0.2,0.1,0.4,0.2,0.7,0.3c0.3,0.1,0.5,0.1,0.8,0.1c0.2,0,0.4,0,0.6-0.1
		c0.2,0,0.4-0.1,0.6-0.2c0.2-0.1,0.3-0.2,0.4-0.4c0.1-0.2,0.2-0.4,0.2-0.6c0-0.4-0.3-0.7-0.9-1s-1.4-0.4-2.4-0.6
		c-0.4-0.1-0.8-0.2-1.2-0.3c-0.4-0.1-0.7-0.3-1.1-0.5c-0.3-0.2-0.6-0.5-0.7-0.8c-0.2-0.3-0.3-0.7-0.3-1.1c0-0.7,0.1-1.2,0.4-1.6
		c0.3-0.4,0.6-0.8,1-1c0.4-0.2,0.9-0.4,1.4-0.5c0.5-0.1,1.1-0.1,1.6-0.1s1.1,0.1,1.6,0.2c0.5,0.1,1,0.3,1.4,0.5c0.4,0.3,0.8,0.6,1,1
		s0.4,1,0.5,1.6h-2.7c0-0.5-0.2-0.9-0.6-1.1c-0.4-0.2-0.8-0.3-1.3-0.3c-0.2,0-0.3,0-0.5,0c-0.2,0-0.4,0.1-0.5,0.1
		c-0.2,0.1-0.3,0.2-0.4,0.3c-0.1,0.1-0.2,0.3-0.2,0.5c0,0.3,0.1,0.5,0.3,0.6c0.2,0.2,0.4,0.3,0.7,0.4c0.3,0.1,0.6,0.2,1,0.3
		c0.4,0.1,0.8,0.2,1.2,0.3c0.4,0.1,0.8,0.2,1.2,0.3s0.7,0.3,1,0.5c0.3,0.2,0.6,0.5,0.7,0.8s0.3,0.7,0.3,1.2c0,0.7-0.1,1.2-0.4,1.7
		s-0.6,0.8-1.1,1.1c-0.4,0.3-0.9,0.5-1.5,0.6c-0.6,0.1-1.1,0.2-1.7,0.2c-0.6,0-1.2-0.1-1.8-0.2c-0.6-0.1-1.1-0.3-1.5-0.6
		s-0.8-0.6-1.1-1.1s-0.4-1-0.5-1.7h2.7C68.3,214.6,68.4,214.8,68.5,215z"/>
	<path class="st0" d="M84.2,216.3c-0.3,0.6-0.8,1-1.3,1.2s-1.2,0.4-1.8,0.4c-0.8,0-1.5-0.1-2-0.4c-0.6-0.3-1.1-0.7-1.5-1.2
		c-0.4-0.5-0.7-1.1-0.9-1.8c-0.2-0.7-0.3-1.4-0.3-2.1c0-0.7,0.1-1.4,0.3-2c0.2-0.6,0.5-1.2,0.9-1.7c0.4-0.5,0.9-0.9,1.4-1.2
		c0.6-0.3,1.2-0.5,2-0.5c0.6,0,1.2,0.1,1.8,0.4c0.6,0.3,1,0.6,1.3,1.1h0v-5.2h2.8v14.3h-2.7L84.2,216.3L84.2,216.3z M84.1,211.2
		c-0.1-0.4-0.2-0.7-0.4-1c-0.2-0.3-0.4-0.5-0.8-0.7c-0.3-0.2-0.7-0.3-1.2-0.3c-0.5,0-0.9,0.1-1.2,0.3c-0.3,0.2-0.6,0.4-0.8,0.7
		c-0.2,0.3-0.3,0.7-0.4,1c-0.1,0.4-0.1,0.8-0.1,1.2c0,0.4,0,0.8,0.1,1.2c0.1,0.4,0.2,0.8,0.5,1.1c0.2,0.3,0.5,0.6,0.8,0.8
		s0.7,0.3,1.1,0.3c0.5,0,0.9-0.1,1.2-0.3c0.3-0.2,0.6-0.4,0.8-0.8c0.2-0.3,0.3-0.7,0.4-1.1s0.1-0.8,0.1-1.2
		C84.2,212,84.2,211.6,84.1,211.2z"/>
	<path class="st0" d="M89.1,210.2c0.3-0.7,0.6-1.2,1.1-1.7s1-0.8,1.7-1.1c0.7-0.3,1.4-0.4,2.2-0.4s1.6,0.1,2.2,0.4
		c0.7,0.3,1.2,0.6,1.7,1.1s0.8,1,1.1,1.7c0.3,0.7,0.4,1.4,0.4,2.2c0,0.8-0.1,1.6-0.4,2.2c-0.3,0.7-0.6,1.2-1.1,1.7
		c-0.5,0.5-1,0.8-1.7,1.1c-0.7,0.3-1.4,0.4-2.2,0.4s-1.5-0.1-2.2-0.4c-0.7-0.3-1.2-0.6-1.7-1.1c-0.5-0.5-0.8-1-1.1-1.7
		c-0.3-0.7-0.4-1.4-0.4-2.2C88.8,211.6,88.9,210.9,89.1,210.2z M91.7,213.7c0.1,0.4,0.2,0.7,0.4,1.1c0.2,0.3,0.5,0.6,0.8,0.8
		c0.3,0.2,0.7,0.3,1.2,0.3c0.5,0,0.9-0.1,1.2-0.3c0.3-0.2,0.6-0.4,0.8-0.8c0.2-0.3,0.3-0.7,0.4-1.1c0.1-0.4,0.1-0.8,0.1-1.2
		c0-0.4,0-0.8-0.1-1.2s-0.2-0.8-0.4-1.1s-0.5-0.6-0.8-0.8c-0.3-0.2-0.7-0.3-1.2-0.3c-0.5,0-0.9,0.1-1.2,0.3
		c-0.3,0.2-0.6,0.4-0.8,0.8s-0.3,0.7-0.4,1.1s-0.1,0.8-0.1,1.2C91.6,212.9,91.6,213.3,91.7,213.7z"/>
	<path class="st0" d="M104.1,207.3v1.4h0c0.4-0.5,0.8-0.9,1.4-1.2c0.5-0.3,1.1-0.4,1.8-0.4c0.7,0,1.2,0.1,1.8,0.4
		c0.5,0.3,1,0.7,1.2,1.3c0.3-0.5,0.7-0.9,1.2-1.2c0.5-0.3,1.2-0.5,1.9-0.5c0.5,0,1.1,0.1,1.5,0.2s0.9,0.3,1.2,0.6
		c0.3,0.3,0.6,0.7,0.8,1.1s0.3,1,0.3,1.7v6.9h-2.8v-5.9c0-0.3,0-0.7,0-1c0-0.3-0.1-0.6-0.2-0.8c-0.1-0.2-0.3-0.4-0.5-0.5
		c-0.2-0.1-0.5-0.2-1-0.2c-0.4,0-0.7,0.1-1,0.2c-0.2,0.2-0.4,0.4-0.6,0.6s-0.2,0.5-0.3,0.8c0,0.3-0.1,0.6-0.1,1v5.8h-2.8v-5.8
		c0-0.3,0-0.6,0-0.9c0-0.3-0.1-0.6-0.2-0.8c-0.1-0.3-0.3-0.5-0.5-0.6s-0.6-0.2-1-0.2c-0.1,0-0.3,0-0.5,0.1c-0.2,0.1-0.4,0.2-0.6,0.3
		c-0.2,0.2-0.4,0.4-0.5,0.7c-0.1,0.3-0.2,0.7-0.2,1.2v6h-2.8v-10.3H104.1z"/>
</g>
<g>
	<path class="st0" d="M24.1,230.9V229h1.7v-0.8c0-0.9,0.3-1.7,0.9-2.3c0.6-0.6,1.4-0.9,2.6-0.9c0.3,0,0.5,0,0.8,0s0.5,0,0.7,0v2.1
		c-0.3,0-0.7-0.1-1-0.1c-0.4,0-0.7,0.1-0.8,0.3c-0.2,0.2-0.2,0.5-0.2,0.9v0.6h2v1.9h-2v8.4h-2.8v-8.4H24.1z"/>
	<path class="st0" d="M31.9,231.9c0.3-0.7,0.6-1.2,1.1-1.7c0.5-0.5,1-0.8,1.7-1.1c0.7-0.3,1.4-0.4,2.2-0.4c0.8,0,1.5,0.1,2.2,0.4
		c0.7,0.3,1.2,0.6,1.7,1.1s0.8,1,1.1,1.7c0.3,0.7,0.4,1.4,0.4,2.2c0,0.8-0.1,1.6-0.4,2.2c-0.3,0.7-0.6,1.2-1.1,1.7
		c-0.5,0.5-1,0.8-1.7,1.1c-0.7,0.3-1.4,0.4-2.2,0.4c-0.8,0-1.5-0.1-2.2-0.4c-0.7-0.3-1.2-0.6-1.7-1.1c-0.5-0.5-0.8-1-1.1-1.7
		c-0.3-0.7-0.4-1.4-0.4-2.2C31.5,233.3,31.7,232.6,31.9,231.9z M34.5,235.4c0.1,0.4,0.2,0.7,0.4,1.1c0.2,0.3,0.5,0.6,0.8,0.8
		c0.3,0.2,0.7,0.3,1.2,0.3s0.9-0.1,1.2-0.3c0.3-0.2,0.6-0.4,0.8-0.8c0.2-0.3,0.3-0.7,0.4-1.1c0.1-0.4,0.1-0.8,0.1-1.2
		c0-0.4,0-0.8-0.1-1.2s-0.2-0.8-0.4-1.1s-0.5-0.6-0.8-0.8c-0.3-0.2-0.7-0.3-1.2-0.3s-0.9,0.1-1.2,0.3c-0.3,0.2-0.6,0.4-0.8,0.8
		s-0.3,0.7-0.4,1.1c-0.1,0.4-0.1,0.8-0.1,1.2C34.4,234.6,34.4,235,34.5,235.4z"/>
	<path class="st0" d="M46.8,229v1.9h0c0.1-0.3,0.3-0.6,0.5-0.9c0.2-0.3,0.5-0.5,0.8-0.7c0.3-0.2,0.6-0.3,0.9-0.5
		c0.3-0.1,0.7-0.2,1-0.2c0.2,0,0.4,0,0.6,0.1v2.6c-0.1,0-0.3-0.1-0.5-0.1c-0.2,0-0.4,0-0.5,0c-0.5,0-1,0.1-1.3,0.3
		c-0.4,0.2-0.6,0.4-0.9,0.7c-0.2,0.3-0.4,0.6-0.5,1s-0.1,0.8-0.1,1.3v4.7h-2.8V229H46.8z"/>
	<path class="st0" d="M63.9,225c0.9,0,1.8,0.1,2.6,0.4s1.5,0.7,2.1,1.3c0.6,0.6,1,1.3,1.4,2.2c0.3,0.9,0.5,1.9,0.5,3.1
		c0,1-0.1,2-0.4,2.9c-0.3,0.9-0.7,1.6-1.2,2.3s-1.2,1.1-2,1.5c-0.8,0.4-1.8,0.5-2.9,0.5h-6.2V225H63.9z M63.7,236.7
		c0.5,0,0.9-0.1,1.3-0.2c0.4-0.1,0.8-0.4,1.1-0.7c0.3-0.3,0.6-0.8,0.8-1.3c0.2-0.5,0.3-1.2,0.3-2c0-0.7-0.1-1.4-0.2-2
		s-0.4-1.1-0.7-1.5s-0.7-0.7-1.3-1c-0.5-0.2-1.2-0.3-2-0.3h-2.2v9H63.7z"/>
	<path class="st0" d="M75.3,236.8c0.4,0.4,1,0.6,1.8,0.6c0.6,0,1.1-0.1,1.5-0.4c0.4-0.3,0.7-0.6,0.8-0.9h2.5c-0.4,1.2-1,2.1-1.8,2.7
		c-0.8,0.5-1.8,0.8-3,0.8c-0.8,0-1.5-0.1-2.2-0.4c-0.7-0.3-1.2-0.6-1.7-1.1c-0.5-0.5-0.8-1.1-1-1.7c-0.2-0.7-0.4-1.4-0.4-2.2
		c0-0.8,0.1-1.5,0.4-2.2s0.6-1.2,1.1-1.7s1-0.9,1.7-1.2c0.6-0.3,1.4-0.4,2.2-0.4c0.9,0,1.6,0.2,2.3,0.5c0.7,0.3,1.2,0.8,1.6,1.4
		c0.4,0.6,0.7,1.2,0.9,2s0.3,1.5,0.2,2.3h-7.5C74.6,235.8,74.9,236.4,75.3,236.8z M78.5,231.4c-0.3-0.4-0.9-0.6-1.5-0.6
		c-0.5,0-0.8,0.1-1.1,0.2c-0.3,0.2-0.5,0.3-0.7,0.6c-0.2,0.2-0.3,0.5-0.4,0.7c-0.1,0.3-0.1,0.5-0.1,0.7h4.6
		C79.1,232.3,78.8,231.8,78.5,231.4z"/>
	<path class="st0" d="M86.4,229v1.4h0.1c0.4-0.6,0.8-1,1.4-1.3c0.6-0.3,1.2-0.4,1.8-0.4c0.8,0,1.4,0.1,1.9,0.3
		c0.5,0.2,0.9,0.5,1.1,0.9c0.3,0.4,0.5,0.8,0.6,1.3c0.1,0.5,0.2,1.1,0.2,1.8v6.4h-2.8v-5.8c0-0.9-0.1-1.5-0.4-1.9s-0.7-0.6-1.4-0.6
		c-0.8,0-1.3,0.2-1.7,0.7c-0.3,0.5-0.5,1.2-0.5,2.3v5.4h-2.8V229H86.4z"/>
	<path class="st0" d="M101.3,229v1.9h-2.1v5.1c0,0.5,0.1,0.8,0.2,1c0.2,0.2,0.5,0.2,1,0.2c0.2,0,0.3,0,0.5,0c0.1,0,0.3,0,0.4-0.1
		v2.2c-0.2,0-0.5,0.1-0.8,0.1c-0.3,0-0.6,0-0.9,0c-0.4,0-0.9,0-1.2-0.1c-0.4-0.1-0.7-0.2-1-0.3c-0.3-0.2-0.5-0.4-0.7-0.7
		c-0.2-0.3-0.3-0.7-0.3-1.3v-6.1h-1.7V229h1.7v-3.1h2.8v3.1H101.3z"/>
	<path class="st0" d="M102.7,227.4V225h2.8v2.3H102.7z M105.5,229v10.3h-2.8V229H105.5z"/>
	<path class="st0" d="M110.2,236.7c0.1,0.2,0.3,0.4,0.5,0.5c0.2,0.1,0.4,0.2,0.7,0.3c0.3,0.1,0.5,0.1,0.8,0.1c0.2,0,0.4,0,0.6-0.1
		c0.2,0,0.4-0.1,0.6-0.2c0.2-0.1,0.3-0.2,0.4-0.4c0.1-0.2,0.2-0.4,0.2-0.6c0-0.4-0.3-0.7-0.9-1s-1.4-0.4-2.4-0.6
		c-0.4-0.1-0.8-0.2-1.2-0.3c-0.4-0.1-0.7-0.3-1-0.5c-0.3-0.2-0.6-0.5-0.7-0.8c-0.2-0.3-0.3-0.7-0.3-1.1c0-0.7,0.1-1.2,0.4-1.6
		s0.6-0.8,1-1c0.4-0.2,0.9-0.4,1.4-0.5c0.5-0.1,1.1-0.1,1.6-0.1c0.6,0,1.1,0.1,1.6,0.2c0.5,0.1,1,0.3,1.4,0.5c0.4,0.3,0.8,0.6,1,1
		s0.4,1,0.5,1.6h-2.7c0-0.5-0.2-0.9-0.6-1.1c-0.4-0.2-0.8-0.3-1.3-0.3c-0.2,0-0.3,0-0.5,0s-0.4,0.1-0.5,0.1
		c-0.2,0.1-0.3,0.2-0.4,0.3c-0.1,0.1-0.2,0.3-0.2,0.5c0,0.3,0.1,0.5,0.3,0.6c0.2,0.2,0.4,0.3,0.7,0.4s0.6,0.2,1,0.3s0.8,0.2,1.2,0.3
		c0.4,0.1,0.8,0.2,1.2,0.3s0.7,0.3,1,0.5c0.3,0.2,0.6,0.5,0.7,0.8s0.3,0.7,0.3,1.2c0,0.7-0.1,1.2-0.4,1.7s-0.6,0.8-1.1,1.1
		c-0.4,0.3-0.9,0.5-1.5,0.6c-0.6,0.1-1.1,0.2-1.7,0.2c-0.6,0-1.2-0.1-1.8-0.2s-1.1-0.3-1.5-0.6c-0.4-0.3-0.8-0.6-1.1-1.1
		s-0.4-1-0.5-1.7h2.7C110,236.3,110,236.5,110.2,236.7z"/>
	<path class="st0" d="M124.2,229v1.9h-2.1v5.1c0,0.5,0.1,0.8,0.2,1c0.2,0.2,0.5,0.2,1,0.2c0.2,0,0.3,0,0.5,0c0.1,0,0.3,0,0.4-0.1
		v2.2c-0.2,0-0.5,0.1-0.8,0.1c-0.3,0-0.6,0-0.9,0c-0.4,0-0.9,0-1.2-0.1c-0.4-0.1-0.7-0.2-1-0.3c-0.3-0.2-0.5-0.4-0.7-0.7
		c-0.2-0.3-0.3-0.7-0.3-1.3v-6.1h-1.7V229h1.7v-3.1h2.8v3.1H124.2z"/>
	<path class="st0" d="M128,236.7c0.1,0.2,0.3,0.4,0.5,0.5c0.2,0.1,0.4,0.2,0.7,0.3c0.3,0.1,0.5,0.1,0.8,0.1c0.2,0,0.4,0,0.6-0.1
		c0.2,0,0.4-0.1,0.6-0.2c0.2-0.1,0.3-0.2,0.4-0.4c0.1-0.2,0.2-0.4,0.2-0.6c0-0.4-0.3-0.7-0.9-1s-1.4-0.4-2.4-0.6
		c-0.4-0.1-0.8-0.2-1.2-0.3c-0.4-0.1-0.7-0.3-1-0.5c-0.3-0.2-0.6-0.5-0.7-0.8c-0.2-0.3-0.3-0.7-0.3-1.1c0-0.7,0.1-1.2,0.4-1.6
		s0.6-0.8,1-1c0.4-0.2,0.9-0.4,1.4-0.5c0.5-0.1,1.1-0.1,1.6-0.1c0.6,0,1.1,0.1,1.6,0.2c0.5,0.1,1,0.3,1.4,0.5c0.4,0.3,0.8,0.6,1,1
		s0.4,1,0.5,1.6h-2.7c0-0.5-0.2-0.9-0.6-1.1c-0.4-0.2-0.8-0.3-1.3-0.3c-0.2,0-0.3,0-0.5,0s-0.4,0.1-0.5,0.1
		c-0.2,0.1-0.3,0.2-0.4,0.3c-0.1,0.1-0.2,0.3-0.2,0.5c0,0.3,0.1,0.5,0.3,0.6c0.2,0.2,0.4,0.3,0.7,0.4s0.6,0.2,1,0.3s0.8,0.2,1.2,0.3
		c0.4,0.1,0.8,0.2,1.2,0.3s0.7,0.3,1,0.5c0.3,0.2,0.6,0.5,0.7,0.8s0.3,0.7,0.3,1.2c0,0.7-0.1,1.2-0.4,1.7s-0.6,0.8-1.1,1.1
		c-0.4,0.3-0.9,0.5-1.5,0.6c-0.6,0.1-1.1,0.2-1.7,0.2c-0.6,0-1.2-0.1-1.8-0.2s-1.1-0.3-1.5-0.6c-0.4-0.3-0.8-0.6-1.1-1.1
		s-0.4-1-0.5-1.7h2.7C127.8,236.3,127.8,236.5,128,236.7z"/>
</g>
</svg>
