<?xml version="1.0" encoding="utf-8"?>
<!-- Generator: Adobe Illustrator 25.4.6, SVG Export Plug-In . SVG Version: 6.00 Build 0)  -->
<svg version="1.1" id="Layer_1" xmlns="http://www.w3.org/2000/svg" xmlns:xlink="http://www.w3.org/1999/xlink" x="0px" y="0px"
	 viewBox="0 0 160 600" style="enable-background:new 0 0 160 600;" xml:space="preserve">
<style type="text/css">
	.st0{clip-path:url(#SVGID_00000063628504624675796870000012344958598540453001_);fill:#439D51;}
	.st1{fill:#FFFFFF;}
</style>
<g>
	<defs>
		<rect id="SVGID_1_" x="20.4" y="412.1" width="118.5" height="25"/>
	</defs>
	<clipPath id="SVGID_00000007386152983466117470000007656786349360131768_">
		<use xlink:href="#SVGID_1_"  style="overflow:visible;"/>
	</clipPath>
	<path style="clip-path:url(#SVGID_00000007386152983466117470000007656786349360131768_);fill:#439D51;" d="M138.9,424.6
		c0,6.9-6.5,12.5-14.3,12.5H34.8c-7.9,0-14.3-5.6-14.3-12.5s6.5-12.5,14.3-12.5h89.8C132.5,412.1,138.9,417.7,138.9,424.6"/>
</g>
<g>
	<path class="st1" d="M49.7,420.9v1.5h-3.8v1.8h3.3v1.4h-3.3v3.3h-1.8v-8H49.7z"/>
	<path class="st1" d="M55,420.9c0.4,0,0.7,0.1,1,0.2c0.3,0.1,0.5,0.3,0.7,0.5s0.4,0.4,0.5,0.7c0.1,0.3,0.2,0.5,0.2,0.9
		c0,0.5-0.1,0.9-0.3,1.2c-0.2,0.3-0.5,0.6-1,0.8v0c0.2,0.1,0.4,0.2,0.5,0.3c0.1,0.1,0.3,0.3,0.3,0.4c0.1,0.2,0.2,0.4,0.2,0.6
		s0.1,0.4,0.1,0.6c0,0.1,0,0.3,0,0.4s0,0.3,0,0.5s0,0.3,0.1,0.5c0,0.2,0.1,0.3,0.2,0.4h-1.8c-0.1-0.3-0.2-0.6-0.2-0.9
		c0-0.3-0.1-0.7-0.1-1c-0.1-0.4-0.2-0.7-0.4-0.9c-0.2-0.2-0.5-0.3-0.9-0.3h-1.8v3.1h-1.8v-8H55z M54.4,424.5c0.4,0,0.7-0.1,0.9-0.3
		c0.2-0.2,0.3-0.5,0.3-0.9c0-0.4-0.1-0.7-0.3-0.8c-0.2-0.2-0.5-0.3-0.9-0.3h-1.9v2.2H54.4z"/>
	<path class="st1" d="M64.7,420.9v1.5h-4.2v1.7h3.9v1.4h-3.9v2h4.3v1.5h-6v-8H64.7z"/>
	<path class="st1" d="M72,420.9v1.5h-4.2v1.7h3.9v1.4h-3.9v2h4.3v1.5h-6v-8H72z"/>
	<path class="st1" d="M81.8,428.6c-0.5,0.3-1.2,0.5-1.9,0.5c-0.6,0-1.2-0.1-1.6-0.3s-0.9-0.5-1.2-0.9c-0.3-0.4-0.6-0.8-0.8-1.3
		c-0.2-0.5-0.3-1-0.3-1.6c0-0.6,0.1-1.1,0.3-1.7c0.2-0.5,0.4-1,0.8-1.3c0.3-0.4,0.7-0.7,1.2-0.9c0.5-0.2,1-0.3,1.6-0.3
		c0.6,0,1.2,0.1,1.7,0.3c0.5,0.2,0.9,0.5,1.2,0.9c0.3,0.4,0.6,0.8,0.8,1.3c0.2,0.5,0.3,1.1,0.3,1.7c0,0.6-0.1,1.1-0.3,1.6
		c-0.2,0.5-0.4,0.9-0.8,1.3l1,0.9l-0.8,0.8L81.8,428.6z M81.6,426.7c0.1-0.2,0.3-0.4,0.4-0.7c0.1-0.3,0.1-0.7,0.1-1.1
		c0-0.3,0-0.7-0.1-1c-0.1-0.3-0.2-0.6-0.4-0.9s-0.4-0.5-0.7-0.6c-0.3-0.2-0.6-0.2-1-0.2c-0.4,0-0.7,0.1-1,0.2s-0.5,0.4-0.7,0.6
		c-0.2,0.3-0.3,0.5-0.4,0.9c-0.1,0.3-0.1,0.7-0.1,1c0,0.3,0,0.7,0.1,1s0.2,0.6,0.4,0.9c0.2,0.3,0.4,0.5,0.7,0.6s0.6,0.2,1,0.2
		c0.2,0,0.3,0,0.4,0s0.2,0,0.3-0.1l-0.7-0.7l0.8-0.9L81.6,426.7z"/>
	<path class="st1" d="M90.9,428.2c-0.6,0.5-1.4,0.8-2.5,0.8c-1.1,0-1.9-0.3-2.5-0.8c-0.6-0.5-0.9-1.3-0.9-2.4v-5h1.8v5
		c0,0.2,0,0.4,0.1,0.6c0,0.2,0.1,0.4,0.2,0.6s0.3,0.3,0.5,0.4s0.5,0.2,0.9,0.2c0.6,0,1.1-0.1,1.3-0.4c0.2-0.3,0.4-0.7,0.4-1.3v-5
		h1.8v5C91.8,426.9,91.5,427.7,90.9,428.2z"/>
	<path class="st1" d="M93.2,423.2c0.2-0.5,0.4-1,0.8-1.3c0.3-0.4,0.7-0.7,1.2-0.9c0.5-0.2,1-0.3,1.6-0.3c0.6,0,1.2,0.1,1.7,0.3
		c0.5,0.2,0.9,0.5,1.2,0.9c0.3,0.4,0.6,0.8,0.8,1.3c0.2,0.5,0.3,1.1,0.3,1.7c0,0.6-0.1,1.1-0.3,1.6c-0.2,0.5-0.4,0.9-0.8,1.3
		c-0.3,0.4-0.7,0.7-1.2,0.9s-1,0.3-1.7,0.3c-0.6,0-1.2-0.1-1.6-0.3s-0.9-0.5-1.2-0.9c-0.3-0.4-0.6-0.8-0.8-1.3
		c-0.2-0.5-0.3-1-0.3-1.6C92.9,424.3,93,423.7,93.2,423.2z M94.8,425.9c0.1,0.3,0.2,0.6,0.4,0.9c0.2,0.3,0.4,0.5,0.7,0.6
		s0.6,0.2,1,0.2c0.4,0,0.7-0.1,1-0.2c0.3-0.2,0.5-0.4,0.7-0.6s0.3-0.5,0.4-0.9s0.1-0.6,0.1-1c0-0.3,0-0.7-0.1-1s-0.2-0.6-0.4-0.9
		s-0.4-0.5-0.7-0.6c-0.3-0.2-0.6-0.2-1-0.2c-0.4,0-0.7,0.1-1,0.2c-0.3,0.2-0.5,0.4-0.7,0.6c-0.2,0.3-0.3,0.5-0.4,0.9s-0.1,0.7-0.1,1
		C94.7,425.2,94.7,425.6,94.8,425.9z"/>
	<path class="st1" d="M101.3,422.3v-1.5h6.5v1.5h-2.4v6.5h-1.8v-6.5H101.3z"/>
	<path class="st1" d="M114.7,420.9v1.5h-4.2v1.7h3.9v1.4h-3.9v2h4.3v1.5h-6v-8H114.7z"/>
</g>
</svg>
