<?xml version="1.0" encoding="utf-8"?>
<!-- Generator: Adobe Illustrator 25.4.6, SVG Export Plug-In . SVG Version: 6.00 Build 0)  -->
<svg version="1.1" id="Layer_1" xmlns="http://www.w3.org/2000/svg" xmlns:xlink="http://www.w3.org/1999/xlink" x="0px" y="0px"
	 viewBox="0 0 160 600" style="enable-background:new 0 0 160 600;" xml:space="preserve">
<style type="text/css">
	.st0{fill:#439D51;}
	.st1{fill:#373535;}
	.st2{fill:none;}
</style>
<path class="st0" d="M14.8,49.6h-1.6L12.7,48H9.4l-0.5,1.6H7.2l2.9-7.6h1.2c0.4,0,0.7,0.1,0.8,0.4c0.1,0.3,1.4,3.7,1.4,3.7h-1.5
	L11,43.5l-1.2,3.2h3.3c0.4,0,0.7,0.1,0.8,0.5L14.8,49.6z"/>
<path class="st0" d="M29.3,49.6h-1.6L27.1,48h-3.3l-0.5,1.6h-1.7l2.9-7.6h1.2c0.4,0,0.7,0.1,0.8,0.4c0.1,0.3,1.4,3.7,1.4,3.7h-1.5
	l-0.9-2.6l-1.2,3.2h3.3c0.4,0,0.7,0.1,0.8,0.5L29.3,49.6z"/>
<path class="st0" d="M15.4,42h3c2.3,0,3.5,1.2,3.5,3.8c0,1.4-0.4,2.5-1.2,3.1c-0.7,0.6-1.6,0.7-2.7,0.7h-2.6V42z M18.2,48.2
	c1.5,0,2.1-0.7,2.1-2.4c0-1.7-0.6-2.5-1.9-2.5h-1.5v4.9H18.2z"/>
<g>
	<path class="st1" d="M42.2,49.5H41l-0.5-5.5l-1.9,5.5h-1l-1.9-5.5l-0.4,5.5h-1.1l0.7-7.2h1.4l2,5.6l1.9-5.6h1.4L42.2,49.5z"/>
	<path class="st1" d="M48.1,46.8c0,0.1,0,0.1,0,0.2c0,0.1,0,0.2,0,0.2h-3.6c0,0.4,0.1,0.7,0.3,1c0.3,0.3,0.7,0.5,1.2,0.5
		c0.4,0,0.9-0.1,1.5-0.4l0.4,0.8c-0.5,0.4-1.2,0.6-2,0.6c-0.8,0-1.4-0.3-1.9-0.8c-0.4-0.5-0.7-1.1-0.7-2c0-0.8,0.2-1.5,0.7-2
		s1.1-0.8,1.8-0.8c0.7,0,1.3,0.2,1.7,0.7S48.1,46,48.1,46.8z M47,46.4c0-0.3-0.1-0.6-0.2-0.8c-0.2-0.3-0.5-0.5-0.9-0.5
		c-0.4,0-0.7,0.1-0.9,0.4c-0.2,0.2-0.4,0.6-0.4,1H47z"/>
	<path class="st1" d="M56.8,49.5h-1.2v-3c0-0.6-0.1-1-0.2-1.2c-0.1-0.2-0.4-0.3-0.6-0.3c-0.4,0-0.8,0.1-1.2,0.4
		c0.1,0.1,0.1,0.5,0.1,1.2v2.8h-1.2v-2.9c0-0.7-0.1-1.1-0.2-1.3c-0.1-0.1-0.3-0.2-0.6-0.2c-0.4,0-0.8,0.1-1.1,0.4v4.1h-1.2v-5.3h1
		v0.4c0.5-0.4,1-0.5,1.5-0.5c0.5,0,1,0.2,1.3,0.6c0.6-0.4,1.2-0.6,1.8-0.6c0.6,0,1,0.2,1.3,0.5c0.3,0.3,0.4,0.6,0.5,1
		c0,0.3,0.1,0.7,0.1,1.3V49.5z"/>
	<path class="st1" d="M63,46.8c0,0.9-0.3,1.6-0.8,2.1c-0.5,0.5-1.2,0.8-2,0.8c-0.6,0-1.3-0.1-2.1-0.4v-7.6h1.2v2.8
		c0.4-0.3,0.9-0.4,1.4-0.4c0.7,0,1.2,0.2,1.7,0.7S63,46,63,46.8z M61.8,46.8c0-0.5-0.1-1-0.4-1.3c-0.2-0.3-0.6-0.4-0.9-0.4
		c-0.4,0-0.7,0.1-1.1,0.4v3.1c0.3,0.1,0.6,0.1,0.9,0.1c0.5,0,0.9-0.2,1.1-0.5C61.6,47.8,61.8,47.4,61.8,46.8z"/>
	<path class="st1" d="M68.6,46.8c0,0.1,0,0.1,0,0.2c0,0.1,0,0.2,0,0.2H65c0,0.4,0.1,0.7,0.3,1c0.3,0.3,0.7,0.5,1.2,0.5
		c0.4,0,0.9-0.1,1.5-0.4l0.4,0.8c-0.5,0.4-1.2,0.6-2,0.6c-0.8,0-1.4-0.3-1.9-0.8c-0.4-0.5-0.7-1.1-0.7-2c0-0.8,0.2-1.5,0.7-2
		s1.1-0.8,1.8-0.8c0.7,0,1.3,0.2,1.7,0.7S68.6,46,68.6,46.8z M67.5,46.4c0-0.3-0.1-0.6-0.2-0.8c-0.2-0.3-0.5-0.5-0.9-0.5
		c-0.4,0-0.7,0.1-0.9,0.4c-0.2,0.2-0.4,0.6-0.4,1H67.5z"/>
	<path class="st1" d="M73.1,44.2l-0.3,0.9c-0.1,0-0.2,0-0.4,0c-0.6,0-1.2,0.3-1.5,0.8v3.6h-1.2v-5.3h1v0.7c0.1-0.1,0.2-0.3,0.5-0.4
		c0.4-0.3,0.8-0.4,1.2-0.4C72.7,44.1,72.9,44.1,73.1,44.2z"/>
</g>
<g>
	<path class="st1" d="M77.5,48c0,0.5-0.2,0.9-0.6,1.2c-0.4,0.3-0.9,0.4-1.5,0.4c-0.5,0-0.9-0.1-1.4-0.3c-0.3-0.1-0.5-0.2-0.6-0.3
		l0.4-0.8c0.5,0.3,1,0.4,1.4,0.4c0.3,0,0.5-0.1,0.7-0.2c0.2-0.1,0.2-0.3,0.2-0.5c0-0.2-0.1-0.3-0.3-0.5c-0.1-0.1-0.4-0.2-0.8-0.4
		c-0.4-0.2-0.7-0.4-0.9-0.5c-0.3-0.3-0.5-0.6-0.5-1.1c0-0.5,0.2-0.9,0.5-1.1c0.4-0.3,0.8-0.4,1.4-0.4c0.7,0,1.3,0.2,1.7,0.5L77,45.3
		c-0.4-0.2-0.8-0.4-1.2-0.4c-0.6,0-0.8,0.2-0.8,0.6c0,0.2,0.1,0.3,0.3,0.4c0.1,0.1,0.3,0.2,0.7,0.3c0.5,0.2,0.9,0.4,1.1,0.6
		C77.3,47.2,77.5,47.6,77.5,48z"/>
	<path class="st1" d="M82.7,49.5h-1.3v-7.2h1.3V49.5z"/>
	<path class="st1" d="M88.7,49.5h-1.2v-2.9c0-0.7-0.1-1.1-0.2-1.3c-0.2-0.2-0.4-0.2-0.7-0.2c-0.4,0-0.8,0.1-1.2,0.4v4h-1.2v-5.3h1
		v0.4c0.5-0.4,1-0.5,1.6-0.5c0.6,0,1,0.2,1.3,0.5c0.2,0.2,0.4,0.5,0.5,0.9c0,0.2,0.1,0.6,0.1,1.1V49.5z"/>
	<path class="st1" d="M93.5,48c0,0.5-0.2,0.9-0.6,1.2c-0.4,0.3-0.9,0.4-1.5,0.4c-0.5,0-0.9-0.1-1.4-0.3c-0.3-0.1-0.5-0.2-0.6-0.3
		l0.4-0.8c0.5,0.3,1,0.4,1.4,0.4c0.3,0,0.5-0.1,0.7-0.2c0.2-0.1,0.2-0.3,0.2-0.5c0-0.2-0.1-0.3-0.3-0.5c-0.1-0.1-0.4-0.2-0.8-0.4
		c-0.4-0.2-0.7-0.4-0.9-0.5c-0.3-0.3-0.5-0.6-0.5-1.1c0-0.5,0.2-0.9,0.5-1.1c0.4-0.3,0.8-0.4,1.4-0.4c0.7,0,1.3,0.2,1.7,0.5L93,45.3
		c-0.4-0.2-0.8-0.4-1.2-0.4c-0.6,0-0.8,0.2-0.8,0.6c0,0.2,0.1,0.3,0.3,0.4c0.1,0.1,0.3,0.2,0.7,0.3c0.5,0.2,0.9,0.4,1.1,0.6
		C93.3,47.2,93.5,47.6,93.5,48z"/>
	<path class="st1" d="M99.2,49.5h-1v-0.4c-0.5,0.4-1,0.5-1.6,0.5c-0.6,0-1-0.2-1.3-0.5c-0.2-0.2-0.4-0.5-0.5-0.9
		c0-0.2-0.1-0.6-0.1-1.1v-2.9h1.2v2.9c0,0.4,0,0.6,0,0.7c0,0.3,0.1,0.5,0.3,0.6c0.1,0.1,0.4,0.2,0.6,0.2c0.3,0,0.7-0.1,1.2-0.4v-4
		h1.2V49.5z"/>
	<path class="st1" d="M103.9,44.2l-0.3,0.9c-0.1,0-0.2,0-0.4,0c-0.6,0-1.2,0.3-1.5,0.8v3.6h-1.2v-5.3h1v0.7c0.1-0.1,0.2-0.3,0.5-0.4
		c0.4-0.3,0.8-0.4,1.2-0.4C103.5,44.1,103.7,44.1,103.9,44.2z"/>
</g>
<g>
	<path class="st1" d="M108.6,49.5h-1v-0.4c-0.5,0.3-1,0.5-1.6,0.5c-0.5,0-0.9-0.2-1.2-0.5s-0.5-0.7-0.5-1.2c0-1.2,1-1.9,3-1.9h0.2
		v-0.2c0-0.3-0.1-0.5-0.2-0.7c-0.2-0.2-0.4-0.2-0.9-0.2c-0.5,0-0.9,0.1-1.4,0.4l-0.4-0.8c0.1-0.1,0.3-0.2,0.6-0.3
		c0.4-0.2,0.9-0.3,1.4-0.3c0.7,0,1.3,0.2,1.6,0.6c0.2,0.2,0.3,0.4,0.4,0.7c0,0.2,0.1,0.5,0.1,0.9V49.5z M107.4,48.4V47h-0.2
		c-0.8,0-1.4,0.1-1.6,0.4c-0.1,0.1-0.2,0.3-0.2,0.5c0,0.3,0.1,0.5,0.3,0.6s0.4,0.2,0.7,0.2C106.6,48.7,107,48.6,107.4,48.4z"/>
	<path class="st1" d="M114.3,49.5h-1.2v-2.9c0-0.7-0.1-1.1-0.2-1.3c-0.2-0.2-0.4-0.2-0.7-0.2c-0.4,0-0.8,0.1-1.2,0.4v4h-1.2v-5.3h1
		v0.4c0.5-0.4,1-0.5,1.6-0.5c0.6,0,1,0.2,1.3,0.5c0.2,0.2,0.4,0.5,0.5,0.9c0,0.2,0.1,0.6,0.1,1.1V49.5z"/>
	<path class="st1" d="M120,49c-0.1,0.1-0.3,0.2-0.5,0.3c-0.4,0.2-0.9,0.3-1.4,0.3c-0.8,0-1.4-0.3-1.9-0.8s-0.7-1.2-0.7-2
		c0-0.8,0.3-1.5,0.8-2.1c0.5-0.5,1.2-0.8,2-0.8c0.4,0,0.9,0.1,1.2,0.3c0.3,0.1,0.4,0.2,0.5,0.3l-0.5,0.7c-0.4-0.2-0.8-0.4-1.2-0.4
		c-0.5,0-0.9,0.2-1.2,0.6c-0.3,0.3-0.4,0.8-0.4,1.2c0,0.5,0.1,1,0.4,1.3c0.3,0.3,0.7,0.5,1.2,0.5c0.4,0,0.8-0.1,1.3-0.4L120,49z"/>
</g>
<g>
	<path class="st1" d="M125.3,46.8c0,0.1,0,0.1,0,0.2c0,0.1,0,0.2,0,0.2h-3.6c0,0.4,0.1,0.7,0.3,1c0.3,0.3,0.7,0.5,1.2,0.5
		c0.4,0,0.9-0.1,1.5-0.4l0.4,0.8c-0.5,0.4-1.2,0.6-2,0.6c-0.8,0-1.4-0.3-1.9-0.8c-0.4-0.5-0.7-1.1-0.7-2c0-0.8,0.2-1.5,0.7-2
		s1.1-0.8,1.8-0.8c0.7,0,1.3,0.2,1.7,0.7C125.1,45.3,125.3,46,125.3,46.8z M124.2,46.4c0-0.3-0.1-0.6-0.2-0.8
		c-0.2-0.3-0.5-0.5-0.9-0.5c-0.4,0-0.7,0.1-0.9,0.4c-0.2,0.2-0.4,0.6-0.4,1H124.2z"/>
	<path class="st1" d="M134,44.5c0,0.7-0.2,1.2-0.6,1.6c-0.3,0.3-0.7,0.5-1.1,0.6c-0.3,0.1-0.7,0.1-1.3,0.1h-0.5v2.8h-1.2v-7.2h1.9
		c0.6,0,1,0,1.3,0.1c0.4,0.1,0.8,0.3,1,0.5C133.8,43.3,134,43.8,134,44.5z M132.7,44.5c0-0.4-0.1-0.7-0.3-0.9
		c-0.2-0.2-0.6-0.3-1.3-0.3h-0.7v2.5h0.5c0.8,0,1.3-0.1,1.5-0.3C132.6,45.2,132.7,44.9,132.7,44.5z"/>
	<path class="st1" d="M136.5,49.5h-1.2v-7.8h1.2V49.5z"/>
	<path class="st1" d="M141.9,49.5h-1v-0.4c-0.5,0.3-1,0.5-1.6,0.5c-0.5,0-0.9-0.2-1.2-0.5s-0.5-0.7-0.5-1.2c0-1.2,1-1.9,3-1.9h0.2
		v-0.2c0-0.3-0.1-0.5-0.2-0.7c-0.2-0.2-0.4-0.2-0.9-0.2c-0.5,0-0.9,0.1-1.4,0.4l-0.4-0.8c0.1-0.1,0.3-0.2,0.6-0.3
		c0.4-0.2,0.9-0.3,1.4-0.3c0.7,0,1.3,0.2,1.6,0.6c0.2,0.2,0.3,0.4,0.4,0.7c0,0.2,0.1,0.5,0.1,0.9V49.5z M140.8,48.4V47h-0.2
		c-0.8,0-1.4,0.1-1.6,0.4c-0.1,0.1-0.2,0.3-0.2,0.5c0,0.3,0.1,0.5,0.3,0.6s0.4,0.2,0.7,0.2C139.9,48.7,140.3,48.6,140.8,48.4z"/>
	<path class="st1" d="M147.7,49.5h-1.2v-2.9c0-0.7-0.1-1.1-0.2-1.3c-0.2-0.2-0.4-0.2-0.7-0.2c-0.4,0-0.8,0.1-1.2,0.4v4h-1.2v-5.3h1
		v0.4c0.5-0.4,1-0.5,1.6-0.5c0.6,0,1,0.2,1.3,0.5c0.2,0.2,0.4,0.5,0.5,0.9c0,0.2,0.1,0.6,0.1,1.1V49.5z"/>
	<path class="st1" d="M152.5,48c0,0.5-0.2,0.9-0.6,1.2c-0.4,0.3-0.9,0.4-1.5,0.4c-0.5,0-0.9-0.1-1.4-0.3c-0.3-0.1-0.5-0.2-0.6-0.3
		l0.4-0.8c0.5,0.3,1,0.4,1.4,0.4c0.3,0,0.5-0.1,0.7-0.2c0.2-0.1,0.2-0.3,0.2-0.5c0-0.2-0.1-0.3-0.3-0.5c-0.1-0.1-0.4-0.2-0.8-0.4
		c-0.4-0.2-0.7-0.4-0.9-0.5c-0.3-0.3-0.5-0.6-0.5-1.1c0-0.5,0.2-0.9,0.5-1.1c0.4-0.3,0.8-0.4,1.4-0.4c0.7,0,1.3,0.2,1.7,0.5
		l-0.4,0.8c-0.4-0.2-0.8-0.4-1.2-0.4c-0.6,0-0.8,0.2-0.8,0.6c0,0.2,0.1,0.3,0.3,0.4c0.1,0.1,0.3,0.2,0.7,0.3
		c0.5,0.2,0.9,0.4,1.1,0.6C152.4,47.2,152.5,47.6,152.5,48z"/>
</g>
<path class="st0" d="M30.4,49.6c-0.5,0-0.9-0.4-0.9-0.9c0-0.5,0.4-0.9,0.9-0.9c0.5,0,0.9,0.4,0.9,0.9C31.3,49.2,30.9,49.6,30.4,49.6
	 M30.4,48c-0.4,0-0.7,0.3-0.7,0.7c0,0.4,0.3,0.7,0.7,0.7c0.4,0,0.7-0.3,0.7-0.7C31,48.3,30.7,48,30.4,48 M30.6,49.2l-0.1-0.2
	c-0.1-0.1-0.1-0.1-0.2-0.1h0v0.4h-0.2v-0.9h0.2c0.1,0,0.2,0,0.3,0.1c0.1,0.1,0.1,0.1,0.1,0.2c0,0.1,0,0.2-0.2,0.2
	c0,0,0.1,0.1,0.1,0.1l0.1,0.3H30.6z M30.4,48.4c0,0-0.1,0-0.1,0h-0.1v0.2c0.1,0,0.1,0,0.2,0C30.5,48.6,30.5,48.6,30.4,48.4
	C30.5,48.5,30.5,48.4,30.4,48.4"/>
<rect x="7.2" y="40.5" class="st2" width="145.6" height="10"/>
</svg>
