<svg xmlns="http://www.w3.org/2000/svg" viewBox="0 0 300 250"><path d="M26.5 36.4V48l10.9-11.5H45l-10.9 11L46 64.3h-7.7L30 51.8l-3.5 3.5v9h-6.1V36.4h6.1zM53.2 59.4c.8.8 2 1.2 3.6 1.2 1.1 0 2.1-.3 2.9-.8.8-.6 1.3-1.2 1.5-1.8H66c-.8 2.4-2 4.1-3.6 5.2-1.6 1-3.6 1.6-5.9 1.6-1.6 0-3-.3-4.3-.8-1.3-.5-2.4-1.2-3.2-2.2-.9-.9-1.6-2.1-2-3.4-.5-1.3-.7-2.7-.7-4.3 0-1.5.2-2.9.7-4.2.5-1.3 1.2-2.4 2.1-3.4.9-.9 2-1.7 3.3-2.2 1.3-.5 2.7-.8 4.2-.8 1.7 0 3.2.3 4.5 1 1.3.7 2.3 1.6 3.1 2.7.8 1.1 1.4 2.4 1.8 3.8.4 1.4.5 2.9.4 4.5H51.8c.1 1.8.5 3.1 1.4 3.9zm6.2-10.6c-.7-.7-1.7-1.1-3-1.1-.9 0-1.6.1-2.2.4-.6.3-1.1.7-1.4 1.1-.4.4-.6.9-.7 1.4-.1.5-.2.9-.3 1.3h9c-.3-1.3-.7-2.3-1.4-3.1zM74.8 59.4c.8.8 2 1.2 3.6 1.2 1.1 0 2.1-.3 2.9-.8.8-.6 1.3-1.2 1.5-1.8h4.9c-.8 2.4-2 4.1-3.6 5.2-1.6 1-3.6 1.6-5.9 1.6-1.6 0-3-.3-4.3-.8-1.3-.5-2.4-1.2-3.2-2.2-.9-.9-1.6-2.1-2-3.4-.5-1.3-.7-2.7-.7-4.3 0-1.5.2-2.9.7-4.2.5-1.3 1.2-2.4 2.1-3.4.9-.9 2-1.7 3.3-2.2 1.3-.5 2.7-.8 4.2-.8 1.7 0 3.2.3 4.5 1 1.3.7 2.3 1.6 3.1 2.7.8 1.1 1.4 2.4 1.8 3.8.4 1.4.5 2.9.4 4.5H73.4c.1 1.8.6 3.1 1.4 3.9zm6.3-10.6c-.7-.7-1.7-1.1-3-1.1-.9 0-1.6.1-2.2.4-.6.3-1.1.7-1.4 1.1-.4.4-.6.9-.7 1.4-.1.5-.2.9-.3 1.3h9c-.3-1.3-.8-2.3-1.4-3.1zM95.8 44.1v2.6h.1c.7-1.1 1.5-1.9 2.6-2.4 1-.5 2.2-.7 3.4-.7 1.6 0 3 .3 4.1.9 1.1.6 2.1 1.4 2.8 2.4.8 1 1.3 2.1 1.7 3.5.4 1.3.5 2.7.5 4.1a16 16 0 0 1-.5 3.9c-.4 1.2-.9 2.4-1.7 3.3s-1.7 1.7-2.8 2.3c-1.1.6-2.4.9-3.9.9-1.2 0-2.4-.3-3.5-.8s-1.9-1.3-2.6-2.2h-.1v9.6h-5.5V44.1h5.4zm7.2 16c.6-.4 1.1-.8 1.5-1.4s.6-1.3.8-2c.2-.8.2-1.6.2-2.4 0-.8-.1-1.6-.3-2.4-.2-.8-.4-1.5-.8-2.1-.4-.6-.9-1.1-1.5-1.5-.6-.4-1.4-.6-2.2-.6-.9 0-1.7.2-2.3.6-.6.4-1.1.9-1.5 1.5-.4.6-.6 1.3-.8 2.1-.2.8-.2 1.6-.2 2.4 0 .8.1 1.6.3 2.4.2.8.4 1.5.8 2 .4.6.9 1.1 1.5 1.4.6.4 1.4.5 2.3.5.8 0 1.6-.1 2.2-.5z"/><g><path d="M38.3 82.9c-.4-.6-.8-1.1-1.4-1.5-.5-.4-1.2-.8-1.9-1-.7-.2-1.4-.4-2.2-.4-1.4 0-2.5.3-3.5.8S27.6 82 27 82.9s-1 1.9-1.3 3.1c-.3 1.1-.4 2.3-.4 3.5 0 1.2.1 2.3.4 3.4.3 1.1.7 2.1 1.3 3 .6.9 1.4 1.6 2.3 2.1 1 .5 2.1.8 3.5.8 1.9 0 3.3-.6 4.4-1.7 1.1-1.1 1.7-2.7 1.9-4.5H45c-.2 1.7-.6 3.3-1.2 4.7-.7 1.4-1.5 2.6-2.6 3.6s-2.3 1.7-3.7 2.3c-1.4.5-3 .8-4.7.8-2.1 0-4-.4-5.8-1.1-1.7-.7-3.1-1.8-4.3-3.1-1.2-1.3-2.1-2.8-2.7-4.6-.6-1.8-.9-3.6-.9-5.7s.3-4 .9-5.8c.6-1.8 1.5-3.3 2.7-4.7 1.2-1.3 2.6-2.4 4.3-3.1 1.7-.8 3.6-1.1 5.8-1.1 1.5 0 3 .2 4.3.7 1.4.4 2.6 1.1 3.7 1.9 1.1.8 2 1.9 2.7 3.1s1.1 2.7 1.3 4.3H39c-.1-.7-.4-1.4-.7-1.9zM62.4 75.4l10.4 27.8h-6.4L64.3 97H54l-2.2 6.2h-6.2l10.5-27.8h6.3zm.4 17.1l-3.5-10.2h-.1l-3.6 10.2h7.2zM80.6 75.4v22.7h13.6v5.1H74.5V75.4h6.1zM105.5 75.4l6.5 19.1h.1l6.2-19.1h8.6v27.8h-5.7V83.5h-.1l-6.8 19.7h-4.7l-6.8-19.5h-.1v19.5H97V75.4h8.5z"/></g></svg>