<svg id="Layer_1" xmlns="http://www.w3.org/2000/svg" viewBox="0 0 300 250"><style>.st0{fill:#349946}</style><path class="st0" d="M19.6 126.3c.1-1.3.4-2.4 1-3.2.6-.9 1.3-1.5 2.2-2.1.9-.5 1.9-.9 3-1.1 1.1-.2 2.2-.3 3.3-.3 1 0 2 .1 3.1.2 1 .1 2 .4 2.8.8s1.6 1 2.1 1.7.8 1.7.8 2.9v10.5c0 .9.1 1.8.2 2.6s.3 1.5.5 1.9H33c-.1-.3-.2-.6-.3-1-.1-.3-.1-.7-.1-1-.9.9-1.9 1.5-3.1 1.9-1.2.4-2.4.5-3.7.5-1 0-1.9-.1-2.7-.4-.8-.2-1.6-.6-2.2-1.1s-1.1-1.1-1.5-1.9-.5-1.7-.5-2.7c0-1.1.2-2.1.6-2.8.4-.7.9-1.3 1.6-1.8.6-.4 1.4-.8 2.2-1 .8-.2 1.6-.4 2.5-.5.8-.1 1.7-.2 2.5-.3.8-.1 1.5-.2 2.1-.4s1.1-.4 1.5-.7c.4-.3.5-.7.5-1.3 0-.6-.1-1.1-.3-1.4-.2-.4-.5-.6-.8-.8-.3-.2-.7-.3-1.1-.4-.4-.1-.9-.1-1.4-.1-1.1 0-2 .2-2.6.7-.6.5-1 1.2-1.1 2.3h-5.5zm12.8 4.1c-.2.2-.5.4-.9.5-.4.1-.7.2-1.1.3-.4.1-.8.1-1.3.2-.4.1-.9.1-1.3.2l-1.2.3c-.4.1-.8.3-1.1.5s-.5.5-.7.8c-.2.3-.3.8-.3 1.3s.1.9.3 1.2c.2.3.4.6.7.8s.7.3 1.1.4c.4.1.8.1 1.3.1 1.1 0 1.9-.2 2.5-.5.6-.4 1-.8 1.3-1.3.3-.5.5-1 .5-1.5.1-.5.1-.9.1-1.2v-2.1zM46.7 120.1v2.8h.1c.7-1.2 1.6-2 2.7-2.6 1.1-.5 2.3-.8 3.4-.8 1.5 0 2.7.2 3.6.6.9.4 1.7 1 2.2 1.7.5.7.9 1.6 1.2 2.6.2 1 .3 2.2.3 3.4v12.4h-5.5v-11.4c0-1.7-.3-2.9-.8-3.7-.5-.8-1.4-1.2-2.8-1.2-1.5 0-2.6.4-3.3 1.3-.7.9-1 2.4-1 4.4v10.6h-5.5V120h5.4zM78.2 137.7c-.7 1.1-1.5 1.9-2.6 2.4s-2.2.7-3.6.7c-1.5 0-2.8-.3-4-.9s-2.1-1.4-2.8-2.4c-.7-1-1.3-2.2-1.7-3.5-.4-1.3-.6-2.7-.6-4.1 0-1.4.2-2.7.6-3.9.4-1.3.9-2.4 1.7-3.3.7-1 1.7-1.7 2.8-2.3 1.1-.6 2.4-.9 3.9-.9 1.2 0 2.3.3 3.4.8s1.9 1.3 2.6 2.2h.1v-10.1h5.5v27.8h-5.3v-2.5zm-.3-10c-.2-.8-.4-1.4-.8-2-.4-.6-.9-1.1-1.5-1.4-.6-.4-1.4-.5-2.3-.5-.9 0-1.7.2-2.3.5-.6.4-1.1.8-1.5 1.4-.4.6-.6 1.3-.8 2-.2.8-.3 1.6-.3 2.4 0 .8.1 1.6.3 2.3.2.8.5 1.5.9 2.1.4.6.9 1.1 1.5 1.5.6.4 1.3.6 2.2.6.9 0 1.7-.2 2.3-.5.6-.4 1.1-.9 1.5-1.5.4-.6.6-1.3.8-2.1.2-.8.2-1.6.2-2.4s0-1.6-.2-2.4zM106.7 123.7c-.9 0-1.6.2-2.2.6-.6.4-1.1.9-1.5 1.6-.4.6-.6 1.3-.8 2.1-.2.8-.2 1.5-.2 2.3 0 .7.1 1.5.2 2.2.2.8.4 1.4.8 2 .4.6.8 1.1 1.4 1.5.6.4 1.3.6 2.2.6 1.3 0 2.3-.4 3.1-1.1.7-.7 1.2-1.7 1.3-3h5.3c-.4 2.7-1.4 4.7-3.1 6.1-1.7 1.4-3.9 2.1-6.6 2.1-1.5 0-2.9-.3-4.2-.8-1.3-.5-2.3-1.2-3.2-2.1-.9-.9-1.6-2-2.1-3.3-.5-1.3-.7-2.6-.7-4.2s.2-3 .7-4.3c.5-1.3 1.1-2.5 2-3.5.9-1 2-1.7 3.2-2.3 1.3-.5 2.7-.8 4.4-.8 1.2 0 2.3.2 3.5.5 1.1.3 2.1.8 3 1.4.9.6 1.6 1.4 2.1 2.4.5.9.9 2.1.9 3.4h-5.4c-.4-2.2-1.8-3.4-4.1-3.4zM118.4 126.3c.1-1.3.4-2.4 1-3.2.6-.9 1.3-1.5 2.2-2.1.9-.5 1.9-.9 3-1.1 1.1-.2 2.2-.3 3.3-.3 1 0 2 .1 3.1.2 1 .1 2 .4 2.8.8.9.4 1.6 1 2.1 1.7s.8 1.7.8 2.9v10.5c0 .9.1 1.8.2 2.6s.3 1.5.5 1.9h-5.6c-.1-.3-.2-.6-.3-1s-.1-.7-.1-1c-.9.9-1.9 1.5-3.1 1.9-1.2.4-2.4.5-3.7.5-1 0-1.9-.1-2.7-.4-.8-.2-1.6-.6-2.2-1.1s-1.1-1.1-1.5-1.9-.5-1.7-.5-2.7c0-1.1.2-2.1.6-2.8.4-.7.9-1.3 1.6-1.8.6-.4 1.4-.8 2.2-1 .8-.2 1.6-.4 2.5-.5.8-.1 1.7-.2 2.5-.3.8-.1 1.5-.2 2.1-.4s1.1-.4 1.5-.7c.4-.3.5-.7.5-1.3 0-.6-.1-1.1-.3-1.4-.2-.4-.5-.6-.8-.8-.3-.2-.7-.3-1.1-.4-.4-.1-.9-.1-1.4-.1-1.1 0-2 .2-2.6.7-.6.5-1 1.2-1.1 2.3h-5.5zm12.8 4.1c-.2.2-.5.4-.9.5-.4.1-.7.2-1.1.3s-.8.1-1.3.2c-.4.1-.9.1-1.3.2l-1.2.3c-.4.1-.8.3-1.1.5s-.5.5-.7.8c-.2.3-.3.8-.3 1.3s.1.9.3 1.2c.2.3.4.6.7.8s.7.3 1.1.4c.4.1.8.1 1.3.1 1.1 0 1.9-.2 2.5-.5.6-.4 1-.8 1.3-1.3s.5-1 .5-1.5c.1-.5.1-.9.1-1.2v-2.1zM145.6 120.1v3.7h.1c.3-.6.6-1.2 1.1-1.7.4-.5.9-1 1.5-1.4.6-.4 1.2-.7 1.8-.9.6-.2 1.3-.3 2-.3.4 0 .8.1 1.2.2v5.1c-.3-.1-.6-.1-.9-.1-.4 0-.7-.1-1.1-.1-1 0-1.9.2-2.6.5-.7.3-1.3.8-1.7 1.4-.4.6-.7 1.3-.9 2-.2.8-.3 1.6-.3 2.5v9.1h-5.5v-20.2h5.3zM160 120.1v3.7h.1c.3-.6.6-1.2 1.1-1.7.4-.5.9-1 1.5-1.4.6-.4 1.2-.7 1.8-.9.6-.2 1.3-.3 2-.3.4 0 .8.1 1.2.2v5.1c-.3-.1-.6-.1-.9-.1-.4 0-.7-.1-1.1-.1-1 0-1.9.2-2.6.5-.7.3-1.3.8-1.7 1.4-.4.6-.7 1.3-.9 2-.2.8-.3 1.6-.3 2.5v9.1h-5.5v-20.2h5.3z"/><path class="st0" d="M176.6 146.3c-1.1.7-2.5 1.1-4.4 1.1-.6 0-1.1 0-1.7-.1-.6 0-1.1-.1-1.7-.1v-4.6c.5.1 1.1.1 1.6.2s1.1.1 1.6 0c.7-.1 1.3-.4 1.6-.9.4-.5.5-1 .5-1.6 0-.4-.1-.9-.2-1.2l-7.1-18.9h5.9l4.6 13.8h.1l4.4-13.8h5.7l-8.4 22.7c-.6 1.5-1.4 2.7-2.5 3.4z"/><g><path class="st0" d="M40 149.5v5.1H26.5v6.4h11.7v4.8H26.5v11.5h-6.1v-27.8H40zM48.9 149.5v22.7h13.6v5.1H42.8v-27.8h6.1zM64.9 157.7c.6-1.8 1.5-3.3 2.7-4.7s2.6-2.4 4.3-3.1c1.7-.8 3.6-1.1 5.8-1.1 2.2 0 4.1.4 5.8 1.1 1.7.8 3.1 1.8 4.3 3.1s2.1 2.9 2.7 4.7c.6 1.8.9 3.7.9 5.8 0 2-.3 3.9-.9 5.7s-1.5 3.3-2.7 4.6-2.6 2.3-4.3 3.1c-1.7.7-3.6 1.1-5.8 1.1-2.1 0-4-.4-5.8-1.1-1.7-.7-3.1-1.8-4.3-3.1s-2.1-2.8-2.7-4.6-.9-3.6-.9-5.7.3-4 .9-5.8zm5.6 9.2c.3 1.1.7 2.1 1.3 3 .6.9 1.4 1.6 2.3 2.1 1 .5 2.1.8 3.5.8s2.5-.3 3.5-.8 1.7-1.2 2.3-2.1c.6-.9 1-1.9 1.3-3 .3-1.1.4-2.2.4-3.4 0-1.2-.1-2.4-.4-3.5-.3-1.1-.7-2.2-1.3-3.1-.6-.9-1.4-1.6-2.3-2.1-1-.5-2.1-.8-3.5-.8s-2.5.3-3.5.8-1.7 1.2-2.3 2.1c-.6.9-1 1.9-1.3 3.1-.3 1.1-.4 2.3-.4 3.5 0 1.2.1 2.3.4 3.4zM99.4 170.4c.3.7.8 1.2 1.3 1.6s1.2.7 2 .9c.8.2 1.5.3 2.3.3.5 0 1.1 0 1.8-.1.6-.1 1.2-.3 1.8-.5s1-.6 1.4-1.1c.4-.5.5-1 .5-1.7 0-.8-.2-1.4-.7-1.8-.5-.5-1.1-.9-1.9-1.2-.8-.3-1.7-.6-2.7-.8-1-.2-2-.5-3-.8-1-.3-2.1-.6-3-1-1-.4-1.9-.9-2.7-1.5-.8-.6-1.4-1.3-1.9-2.2-.5-.9-.7-2-.7-3.3 0-1.4.3-2.7.9-3.7.6-1.1 1.4-1.9 2.4-2.6 1-.7 2.1-1.2 3.4-1.6s2.5-.5 3.7-.5c1.5 0 2.9.2 4.2.5 1.3.3 2.5.9 3.6 1.6 1 .7 1.9 1.7 2.5 2.8.6 1.1.9 2.5.9 4.1h-5.9c-.1-.8-.2-1.5-.5-2.1-.3-.5-.7-1-1.2-1.3-.5-.3-1.1-.5-1.7-.7-.6-.1-1.3-.2-2.1-.2-.5 0-1 .1-1.5.2s-.9.3-1.3.5c-.4.3-.7.6-1 1-.3.4-.4.9-.4 1.5 0 .5.1 1 .3 1.3s.6.6 1.2.9 1.5.6 2.5.9c1.1.3 2.5.6 4.2 1.1.5.1 1.2.3 2.2.6.9.3 1.8.7 2.7 1.3.9.6 1.7 1.4 2.4 2.4s1 2.3 1 3.8c0 1.3-.2 2.5-.7 3.5-.5 1.1-1.2 2-2.2 2.8-1 .8-2.2 1.4-3.6 1.9-1.4.4-3.1.7-5 .7-1.5 0-3-.2-4.5-.6-1.4-.4-2.7-1-3.8-1.8-1.1-.8-2-1.8-2.6-3.1-.7-1.2-1-2.7-.9-4.4H99c-.1 1 .1 1.8.4 2.4zM124 170.4c.3.7.8 1.2 1.3 1.6s1.2.7 2 .9c.8.2 1.5.3 2.3.3.5 0 1.1 0 1.8-.1.6-.1 1.2-.3 1.8-.5s1-.6 1.4-1.1c.4-.5.5-1 .5-1.7 0-.8-.2-1.4-.7-1.8-.5-.5-1.1-.9-1.9-1.2-.8-.3-1.7-.6-2.7-.8-1-.2-2-.5-3-.8-1-.3-2.1-.6-3-1-1-.4-1.9-.9-2.7-1.5-.8-.6-1.4-1.3-1.9-2.2-.5-.9-.7-2-.7-3.3 0-1.4.3-2.7.9-3.7.6-1.1 1.4-1.9 2.4-2.6 1-.7 2.1-1.2 3.4-1.6s2.5-.5 3.7-.5c1.5 0 2.9.2 4.2.5 1.3.3 2.5.9 3.6 1.6 1 .7 1.9 1.7 2.5 2.8.6 1.1.9 2.5.9 4.1h-5.9c-.1-.8-.2-1.5-.5-2.1-.3-.5-.7-1-1.2-1.3-.5-.3-1.1-.5-1.7-.7-.6-.1-1.3-.2-2.1-.2-.5 0-1 .1-1.5.2s-.9.3-1.3.5c-.4.3-.7.6-1 1-.3.4-.4.9-.4 1.5 0 .5.1 1 .3 1.3s.6.6 1.2.9 1.5.6 2.5.9c1.1.3 2.5.6 4.2 1.1.5.1 1.2.3 2.2.6s1.8.7 2.8 1.3c.9.6 1.7 1.4 2.4 2.4s1 2.3 1 3.8c0 1.3-.2 2.5-.7 3.5s-1.2 2-2.2 2.8c-1 .8-2.2 1.4-3.6 1.9-1.4.4-3.1.7-5 .7-1.5 0-3-.2-4.5-.6-1.4-.4-2.7-1-3.8-1.8-1.1-.8-2-1.8-2.6-3.1-.7-1.2-1-2.7-.9-4.4h5.9c-.2 1 0 1.8.3 2.4z"/></g></svg>