<svg id="Layer_1" xmlns="http://www.w3.org/2000/svg" viewBox="0 0 300 250"><style>.st0{fill:#349946}</style><path d="M26.7 44l5.9 15.7H29l-1.2-3.5H22l-1.2 3.5h-3.5L23.2 44h3.5zm.2 9.6l-2-5.8-2 5.8h4zm9.3-5.3v1.6h.1c.4-.7.9-1.1 1.5-1.4.6-.3 1.3-.5 1.9-.5.8 0 1.5.1 2.1.3.5.2 1 .5 1.3.9.3.4.5.9.6 1.5.1.6.2 1.2.2 1.9v7h-3.1v-6.4c0-.9-.1-1.6-.4-2.1-.3-.5-.8-.7-1.6-.7-.9 0-1.5.3-1.8.8-.4.5-.6 1.3-.6 2.5v6h-3.1V48.3h2.9zm17.7 9.9c-.4.6-.8 1.1-1.4 1.3-.6.3-1.3.4-2 .4-.9 0-1.6-.2-2.2-.5-.6-.3-1.2-.8-1.6-1.3-.4-.6-.7-1.2-.9-1.9-.2-.7-.3-1.5-.3-2.3 0-.8.1-1.5.3-2.2.2-.7.5-1.3.9-1.9.4-.5.9-1 1.6-1.3.6-.3 1.4-.5 2.2-.5.7 0 1.3.1 1.9.4.6.3 1.1.7 1.4 1.3V44h3.1v15.7h-3v-1.5zm-.1-5.6c-.1-.4-.2-.8-.5-1.1-.2-.3-.5-.6-.8-.8-.3-.2-.8-.3-1.3-.3s-.9.1-1.3.3c-.4.2-.6.5-.8.8-.2.3-.4.7-.5 1.2-.1.4-.1.9-.1 1.4 0 .4.1.9.2 1.3s.3.8.5 1.2c.2.3.5.6.9.8.3.2.8.3 1.2.3.5 0 .9-.1 1.3-.3.3-.2.6-.5.8-.8.2-.3.4-.7.4-1.2s.1-.9.1-1.4c0-.5-.1-.9-.1-1.4zm9.5-2.2v-2.1h1.9v-.9c0-1 .3-1.8.9-2.5.6-.6 1.6-1 2.9-1h.8c.3 0 .5 0 .8.1v2.3c-.4 0-.7-.1-1.1-.1-.4 0-.7.1-.9.3-.2.2-.3.5-.3 1v.7h2.2v2.1h-2.2v9.3h-3.1v-9.3h-1.9zm9.1-3.8V44h3.1v2.6h-3.1zm3.1 1.7v11.4h-3.1V48.3h3.1zm5 0v1.6h.1c.4-.7.9-1.1 1.5-1.4.6-.3 1.3-.5 1.9-.5.8 0 1.5.1 2.1.3.5.2 1 .5 1.3.9.3.4.5.9.6 1.5.1.6.2 1.2.2 1.9v7H85v-6.4c0-.9-.1-1.6-.4-2.1-.3-.5-.8-.7-1.6-.7-.9 0-1.5.3-1.8.8-.4.5-.6 1.3-.6 2.5v6h-3.1V48.3h3zm17.7 9.9c-.4.6-.8 1.1-1.4 1.3-.6.3-1.3.4-2 .4-.9 0-1.6-.2-2.2-.5-.6-.3-1.2-.8-1.6-1.3-.4-.6-.7-1.2-.9-1.9-.2-.7-.3-1.5-.3-2.3 0-.8.1-1.5.3-2.2.2-.7.5-1.3.9-1.9.4-.5.9-1 1.6-1.3.6-.3 1.4-.5 2.2-.5.7 0 1.3.1 1.9.4.6.3 1.1.7 1.4 1.3V44h3.1v15.7h-3v-1.5zm-.2-5.6c-.1-.4-.2-.8-.5-1.1-.2-.3-.5-.6-.8-.8-.3-.2-.8-.3-1.3-.3s-.9.1-1.3.3c-.4.2-.6.5-.8.8-.2.3-.4.7-.5 1.2-.1.4-.1.9-.1 1.4 0 .4.1.9.2 1.3s.3.8.5 1.2c.2.3.5.6.9.8.3.2.8.3 1.2.3.5 0 .9-.1 1.3-.3.3-.2.6-.5.8-.8.2-.3.4-.7.4-1.2.1-.4.1-.9.1-1.4.1-.5 0-.9-.1-1.4zm17-4.3v2.1h-2.3V56c0 .5.1.9.3 1.1.2.2.5.3 1.1.3h.5c.2 0 .3 0 .5-.1v2.4c-.3 0-.6.1-.9.1h-.9c-.5 0-.9 0-1.4-.1-.4-.1-.8-.2-1.1-.4-.3-.2-.6-.5-.8-.8-.2-.4-.3-.8-.3-1.4v-6.7h-1.9v-2.1h1.9v-3.4h3.1v3.4h2.2zm4.2-4.3v5.9h.1c.4-.7.9-1.1 1.5-1.4.6-.3 1.2-.5 1.8-.5.8 0 1.5.1 2.1.3.5.2 1 .5 1.3.9.3.4.5.9.6 1.5.1.6.2 1.2.2 1.9v7h-3.1v-6.4c0-.9-.1-1.6-.4-2.1-.3-.5-.8-.7-1.6-.7-.9 0-1.5.3-1.8.8-.4.5-.6 1.3-.6 2.5v6h-3.1V44h3zM132 57c.5.5 1.1.7 2 .7.6 0 1.2-.2 1.6-.5.5-.3.7-.6.8-1h2.8c-.4 1.4-1.1 2.3-2 2.9-.9.6-2 .9-3.3.9-.9 0-1.7-.1-2.4-.4-.7-.3-1.3-.7-1.8-1.2s-.9-1.2-1.2-1.9c-.3-.7-.4-1.5-.4-2.4 0-.9.1-1.6.4-2.4.3-.7.7-1.4 1.2-1.9s1.1-1 1.8-1.3c.7-.3 1.5-.5 2.4-.5 1 0 1.8.2 2.5.6.7.4 1.3.9 1.8 1.5s.8 1.3 1 2.2c.2.8.3 1.7.2 2.5h-8.2c.1 1 .4 1.7.8 2.2zm3.6-6c-.4-.4-.9-.6-1.7-.6-.5 0-.9.1-1.2.3-.3.2-.6.4-.8.6-.2.2-.3.5-.4.8-.1.3-.1.5-.1.7h5.1c-.3-.8-.6-1.4-.9-1.8zm14.1-7v5.7c.4-.6.9-1 1.6-1.3.7-.3 1.3-.4 2-.4.6 0 1.1.1 1.7.4.6.2 1.1.6 1.5 1.1.4.5.8 1.1 1.1 1.9.3.8.4 1.7.4 2.7 0 1-.1 1.9-.4 2.7-.3.8-.6 1.4-1.1 1.9-.4.5-.9.8-1.5 1.1-.6.2-1.1.4-1.7.4-.8 0-1.6-.1-2.2-.4-.7-.3-1.2-.7-1.5-1.3V60h-3V44h3.1zm5 8.6c-.1-.4-.3-.8-.5-1.2-.2-.3-.5-.6-.8-.8s-.7-.3-1.2-.3-.9.1-1.2.3c-.3.2-.6.5-.8.8-.2.3-.4.7-.5 1.2-.1.4-.2.9-.2 1.4 0 .5.1.9.2 1.4.1.4.3.8.5 1.2.2.3.5.6.8.8.3.2.7.3 1.2.3s.9-.1 1.2-.3.6-.5.8-.8c.2-.3.4-.7.5-1.2.1-.4.2-.9.2-1.4 0-.5-.1-.9-.2-1.4zm8.2 4.4c.5.5 1.1.7 2 .7.6 0 1.2-.2 1.6-.5.5-.3.7-.6.8-1h2.8c-.4 1.4-1.1 2.3-2 2.9-.9.6-2 .9-3.3.9-.9 0-1.7-.1-2.4-.4-.7-.3-1.3-.7-1.8-1.2s-.9-1.2-1.2-1.9c-.3-.7-.4-1.5-.4-2.4 0-.9.1-1.6.4-2.4.3-.7.7-1.4 1.2-1.9s1.1-1 1.8-1.3c.7-.3 1.5-.5 2.4-.5 1 0 1.8.2 2.5.6.7.4 1.3.9 1.8 1.5s.8 1.3 1 2.2c.2.8.3 1.7.2 2.5h-8.2c.1 1 .3 1.7.8 2.2zm3.5-6c-.4-.4-.9-.6-1.7-.6-.5 0-.9.1-1.2.3-.3.2-.6.4-.8.6-.2.2-.3.5-.4.8-.1.3-.1.5-.1.7h5.1c-.2-.8-.5-1.4-.9-1.8zm8 5.9c.1.2.3.4.5.6.2.2.5.3.8.3.3.1.6.1.9.1.2 0 .5 0 .7-.1.2-.1.5-.1.7-.2.2-.1.4-.3.5-.4.1-.2.2-.4.2-.7 0-.5-.3-.8-.9-1.1-.6-.2-1.5-.5-2.6-.7-.5-.1-.9-.2-1.3-.4-.4-.1-.8-.3-1.2-.6-.3-.2-.6-.5-.8-.9-.2-.3-.3-.8-.3-1.3 0-.7.1-1.3.4-1.8.3-.5.7-.8 1.1-1.1.5-.3 1-.5 1.6-.6.6-.1 1.2-.2 1.8-.2.6 0 1.2.1 1.8.2.6.1 1.1.3 1.6.6s.8.6 1.1 1.1c.3.5.5 1 .5 1.7h-3c0-.6-.3-1-.7-1.2-.4-.2-.9-.3-1.5-.3h-.6c-.2 0-.4.1-.6.1-.2.1-.3.2-.4.3-.1.1-.2.3-.2.6s.1.5.3.7c.2.2.5.3.8.4.3.1.7.2 1.1.3.4.1.9.2 1.3.3.5.1.9.2 1.3.4.4.1.8.3 1.2.6.3.2.6.5.8.9.2.4.3.8.3 1.3 0 .7-.2 1.4-.5 1.9s-.7.9-1.2 1.2c-.5.3-1 .5-1.7.6-.6.1-1.3.2-1.9.2-.7 0-1.3-.1-1.9-.2-.6-.1-1.2-.4-1.7-.7-.5-.3-.9-.7-1.2-1.2-.3-.5-.5-1.1-.5-1.9h3c.2.6.2.9.4 1.2zm15-8.6v2.1h-2.3V56c0 .5.1.9.3 1.1.2.2.5.3 1.1.3h.5c.2 0 .3 0 .5-.1v2.4c-.3 0-.6.1-.9.1h-.9c-.5 0-.9 0-1.4-.1-.4-.1-.8-.2-1.1-.4-.3-.2-.6-.5-.8-.8-.2-.4-.3-.8-.3-1.4v-6.7h-1.9v-2.1h1.9v-3.4h3.1v3.4h2.2zm9.7 0v2.1c.1-.4.3-.7.6-1 .2-.3.5-.6.9-.8.3-.2.7-.4 1-.5.4-.1.7-.2 1.1-.2.2 0 .4 0 .7.1v3c-.1 0-.3-.1-.5-.1h-.6c-.6 0-1.1.1-1.5.3-.4.2-.7.5-1 .8s-.4.7-.5 1.2c-.1.4-.2.9-.2 1.4v5.1H196V48.3h3.1zm8.1 3.5c.1-.6.3-1.1.6-1.3.4-.3.8-.4 1.5-.4.3 0 .5 0 .8.1.2 0 .5.1.6.2.2.1.3.3.4.5s.2.5.2.8c0 .3-.1.6-.3.7-.2.2-.5.3-.8.4-.4.1-.8.2-1.2.2-.5 0-.9.1-1.4.2-.5.1-.9.2-1.4.3-.5.1-.9.3-1.2.6-.4.2-.7.6-.9 1-.2.4-.3.9-.3 1.6 0 .6.1 1.1.3 1.5.2.4.5.8.8 1.1.4.3.8.5 1.2.6.5.1 1 .2 1.5.2.7 0 1.4-.1 2.1-.3.7-.2 1.3-.6 1.8-1.1 0 .2 0 .4.1.6 0 .2.1.4.1.5h3.2c-.1-.2-.2-.6-.3-1.1-.1-.5-.1-1-.1-1.5v-5.9c0-.7-.2-1.2-.5-1.7s-.7-.7-1.2-1c-.5-.2-1-.4-1.6-.5-.6-.1-1.2-.1-1.7-.1-.6 0-1.3.1-1.9.2-.6.1-1.2.3-1.7.6s-.9.7-1.2 1.2c-.3.5-.5 1.1-.6 1.8h3.1zm4.1 3.5c0 .2 0 .4-.1.7 0 .3-.1.6-.3.9-.2.3-.4.5-.7.7-.3.2-.8.3-1.4.3-.2 0-.5 0-.7-.1-.2 0-.4-.1-.6-.2-.2-.1-.3-.3-.4-.5-.1-.2-.2-.4-.2-.7 0-.3.1-.5.2-.7.1-.2.2-.3.4-.5l.6-.3c.2-.1.5-.1.7-.2.2 0 .5-.1.7-.1.2 0 .5-.1.7-.1.2 0 .4-.1.6-.2.2-.1.4-.2.5-.3v1.3zm11.4-7v2.1h-2.3V56c0 .5.1.9.3 1.1.2.2.5.3 1.1.3h.5c.2 0 .3 0 .5-.1v2.4c-.3 0-.6.1-.9.1h-.9c-.5 0-.9 0-1.4-.1-.4-.1-.8-.2-1.1-.4-.3-.2-.6-.5-.8-.8-.2-.4-.3-.8-.3-1.4v-6.7h-1.9v-2.1h1.9v-3.4h3.1v3.4h2.2zm4.4 8.7c.5.5 1.1.7 2 .7.6 0 1.2-.2 1.6-.5.5-.3.7-.6.8-1h2.8c-.4 1.4-1.1 2.3-2 2.9-.9.6-2 .9-3.3.9-.9 0-1.7-.1-2.4-.4-.7-.3-1.3-.7-1.8-1.2s-.9-1.2-1.2-1.9c-.3-.7-.4-1.5-.4-2.4 0-.9.1-1.6.4-2.4.3-.7.7-1.4 1.2-1.9s1.1-1 1.8-1.3c.7-.3 1.5-.5 2.4-.5 1 0 1.8.2 2.5.6.7.4 1.3.9 1.8 1.5s.8 1.3 1 2.2c.2.8.3 1.7.2 2.5h-8.2c0 1 .3 1.7.8 2.2zm3.5-6c-.4-.4-.9-.6-1.7-.6-.5 0-.9.1-1.2.3-.3.2-.6.4-.8.6-.2.2-.3.5-.4.8-.1.3-.1.5-.1.7h5.1c-.3-.8-.5-1.4-.9-1.8zm7.9 5.9c.1.2.3.4.5.6.2.2.5.3.8.3.3.1.6.1.9.1.2 0 .5 0 .7-.1.2-.1.5-.1.7-.2.2-.1.4-.3.5-.4.1-.2.2-.4.2-.7 0-.5-.3-.8-.9-1.1-.6-.2-1.5-.5-2.6-.7-.5-.1-.9-.2-1.3-.4-.4-.1-.8-.3-1.2-.6-.3-.2-.6-.5-.8-.9-.2-.3-.3-.8-.3-1.3 0-.7.1-1.3.4-1.8.3-.5.7-.8 1.1-1.1.5-.3 1-.5 1.6-.6.6-.1 1.2-.2 1.8-.2.6 0 1.2.1 1.8.2.6.1 1.1.3 1.6.6s.8.6 1.1 1.1c.3.5.5 1 .5 1.7h-3c0-.6-.3-1-.7-1.2-.4-.2-.9-.3-1.5-.3h-.6c-.2 0-.4.1-.6.1-.2.1-.3.2-.4.3-.1.1-.2.3-.2.6s.1.5.3.7c.2.2.5.3.8.4.3.1.7.2 1.1.3.4.1.9.2 1.3.3.5.1.9.2 1.3.4.4.1.8.3 1.2.6.3.2.6.5.8.9.2.4.3.8.3 1.3 0 .7-.2 1.4-.5 1.9s-.7.9-1.2 1.2c-.5.3-1 .5-1.7.6-.6.1-1.3.2-1.9.2-.7 0-1.3-.1-1.9-.2-.6-.1-1.2-.4-1.7-.7-.5-.3-.9-.7-1.2-1.2-.3-.5-.5-1.1-.5-1.9h3l.4 1.2zM24.8 71.3v2.1h-2.3V79c0 .5.1.9.3 1.1.2.2.5.3 1.1.3h.5c.2 0 .3 0 .5-.1v2.4c-.3 0-.6.1-.9.1h-.9c-.5 0-.9 0-1.4-.1-.4-.1-.8-.2-1.1-.4-.3-.2-.6-.5-.8-.8-.2-.4-.3-.8-.3-1.4v-6.7h-1.9v-2.1h1.9v-3.4h3.1v3.4h2.2zM26 74.5c.3-.7.7-1.4 1.2-1.9s1.1-.9 1.8-1.2c.7-.3 1.5-.4 2.4-.4s1.7.1 2.4.4 1.3.7 1.9 1.2c.5.5.9 1.2 1.2 1.9.3.7.4 1.6.4 2.5 0 .9-.1 1.7-.4 2.5-.3.7-.7 1.4-1.2 1.9s-1.1.9-1.9 1.2c-.7.3-1.5.4-2.4.4s-1.7-.1-2.4-.4c-.7-.3-1.3-.7-1.8-1.2s-.9-1.1-1.2-1.9c-.3-.7-.4-1.6-.4-2.5 0-.9.1-1.7.4-2.5zm2.8 3.8c.1.4.2.8.5 1.2.2.3.5.6.8.8.4.2.8.3 1.3.3s1-.1 1.3-.3c.4-.2.6-.5.9-.8.2-.3.4-.7.5-1.2.1-.4.1-.9.1-1.3s0-.9-.1-1.3-.2-.8-.5-1.2c-.2-.3-.5-.6-.9-.8-.4-.2-.8-.3-1.3-.3s-1 .1-1.3.3c-.4.2-.6.5-.8.8-.2.3-.4.7-.5 1.2-.1.4-.1.9-.1 1.3s0 .9.1 1.3zM47.6 71.3v1.5c.4-.6.9-1.1 1.5-1.3.6-.3 1.2-.4 1.9-.4.9 0 1.7.2 2.3.5s1.2.8 1.6 1.3c.4.6.7 1.2.9 1.9.2.7.3 1.5.3 2.3 0 .8-.1 1.5-.3 2.2-.2.7-.5 1.3-.9 1.9-.4.5-.9 1-1.6 1.3-.6.3-1.3.5-2.1.5-.7 0-1.4-.1-1.9-.4-.6-.3-1.1-.7-1.5-1.3v5.4h-3.1V71.3h2.9zm4 9c.3-.2.6-.5.8-.8.2-.3.4-.7.5-1.2s.1-.8.1-1.3 0-.9-.1-1.3-.3-.8-.5-1.2-.5-.6-.8-.8c-.3-.2-.8-.3-1.3-.3s-.9.1-1.3.3c-.3.2-.6.5-.8.8-.2.3-.4.7-.5 1.2s-.1.9-.1 1.4c0 .5 0 .9.1 1.3s.2.8.5 1.2c.2.3.5.6.8.8.4.2.8.3 1.3.3.5-.1 1-.2 1.3-.4zM60.6 71.3v2.1c.1-.4.3-.7.6-1 .2-.3.5-.6.9-.8.3-.2.7-.4 1-.5.4-.1.7-.2 1.1-.2.2 0 .4 0 .7.1v3c-.1 0-.3-.1-.5-.1h-.6c-.6 0-1.1.1-1.5.3-.4.2-.7.5-1 .8-.2.3-.4.7-.5 1.2s-.2.9-.2 1.4v5.1h-3.1V71.3h3.1zM65.4 74.5c.3-.7.7-1.4 1.2-1.9s1.1-.9 1.8-1.2c.7-.3 1.5-.4 2.4-.4s1.7.1 2.4.4 1.3.7 1.9 1.2c.5.5.9 1.2 1.2 1.9.3.7.4 1.6.4 2.5 0 .9-.1 1.7-.4 2.5-.3.7-.7 1.4-1.2 1.9s-1.1.9-1.9 1.2c-.7.3-1.5.4-2.4.4s-1.7-.1-2.4-.4c-.7-.3-1.3-.7-1.8-1.2s-.9-1.1-1.2-1.9c-.3-.8-.4-1.6-.4-2.5 0-.9.1-1.7.4-2.5zm2.8 3.8c.1.4.2.8.5 1.2.2.3.5.6.8.8.4.2.8.3 1.3.3s1-.1 1.3-.3c.4-.2.6-.5.9-.8.2-.3.4-.7.5-1.2.1-.4.1-.9.1-1.3s0-.9-.1-1.3-.2-.8-.5-1.2c-.2-.3-.5-.6-.9-.8-.4-.2-.8-.3-1.3-.3s-1 .1-1.3.3c-.4.2-.6.5-.8.8-.2.3-.4.7-.5 1.2-.1.4-.1.9-.1 1.3s0 .9.1 1.3zM84.6 71.3v2.1h-2.3V79c0 .5.1.9.3 1.1.2.2.5.3 1.1.3h.5c.2 0 .3 0 .5-.1v2.4c-.3 0-.6.1-.9.1h-.9c-.5 0-.9 0-1.4-.1-.4-.1-.8-.2-1.1-.4-.3-.2-.6-.5-.8-.8-.2-.4-.3-.8-.3-1.4v-6.7h-1.9v-2.1h1.9v-3.4h3.1v3.4h2.2zM89 80c.5.5 1.1.7 2 .7.6 0 1.2-.2 1.6-.5.5-.3.7-.6.8-1h2.8c-.4 1.4-1.1 2.3-2 2.9-.9.6-2 .9-3.3.9-.9 0-1.7-.1-2.4-.4s-1.3-.7-1.8-1.2-.9-1.2-1.2-1.9-.4-1.5-.4-2.4c0-.9.1-1.6.4-2.4.3-.7.7-1.4 1.2-1.9s1.1-1 1.8-1.3c.7-.3 1.5-.5 2.4-.5 1 0 1.8.2 2.5.6.7.4 1.3.9 1.8 1.5s.8 1.3 1 2.2c.2.8.3 1.6.2 2.5h-8.2c.1 1 .3 1.7.8 2.2zm3.5-6c-.4-.4-.9-.6-1.7-.6-.5 0-.9.1-1.2.3-.3.2-.6.4-.8.6-.2.2-.3.5-.4.8-.1.3-.1.5-.1.7h5.1c-.2-.8-.5-1.4-.9-1.8zM103.3 73.4c-.5 0-.9.1-1.3.3-.3.2-.6.5-.8.9-.2.4-.4.8-.5 1.2-.1.4-.1.9-.1 1.3s0 .8.1 1.3c.1.4.2.8.4 1.2.2.3.5.6.8.8.3.2.7.3 1.2.3.7 0 1.3-.2 1.7-.6.4-.4.7-1 .8-1.7h3c-.2 1.5-.8 2.7-1.8 3.5-1 .8-2.2 1.2-3.7 1.2-.9 0-1.6-.1-2.3-.4s-1.3-.7-1.8-1.2-.9-1.1-1.2-1.8c-.3-.7-.4-1.5-.4-2.3 0-.9.1-1.7.4-2.5.3-.8.6-1.4 1.1-2 .5-.5 1.1-1 1.8-1.3.7-.3 1.5-.5 2.5-.5.7 0 1.3.1 1.9.3.6.2 1.2.4 1.7.8s.9.8 1.2 1.3c.3.5.5 1.2.5 1.9h-3.1c0-1.4-.8-2-2.1-2zM116.3 71.3v2.1H114V79c0 .5.1.9.3 1.1.2.2.5.3 1.1.3h.5c.2 0 .3 0 .5-.1v2.4c-.3 0-.6.1-.9.1h-.9c-.5 0-.9 0-1.4-.1-.4-.1-.8-.2-1.1-.4-.3-.2-.6-.5-.8-.8-.2-.4-.3-.8-.3-1.4v-6.7h-2v-2.1h1.9v-3.4h3.1v3.4h2.3zM127.3 86.1c-.6.4-1.4.6-2.5.6h-1c-.3 0-.6 0-1-.1V84c.3 0 .6.1.9.1h.9c.4 0 .7-.2.9-.5.2-.3.3-.6.3-.9 0-.2 0-.5-.1-.7l-4-10.7h3.3l2.6 7.8 2.5-7.8h3.2l-4.8 12.8c-.1.9-.6 1.6-1.2 2zM134.1 74.5c.3-.7.7-1.4 1.2-1.9s1.1-.9 1.8-1.2c.7-.3 1.5-.4 2.4-.4s1.7.1 2.4.4 1.3.7 1.9 1.2c.5.5.9 1.2 1.2 1.9.3.7.4 1.6.4 2.5 0 .9-.1 1.7-.4 2.5-.3.7-.7 1.4-1.2 1.9s-1.1.9-1.9 1.2c-.7.3-1.5.4-2.4.4s-1.7-.1-2.4-.4c-.7-.3-1.3-.7-1.8-1.2s-.9-1.1-1.2-1.9c-.3-.7-.4-1.6-.4-2.5 0-.9.1-1.7.4-2.5zm2.9 3.8c.1.4.2.8.5 1.2.2.3.5.6.8.8.4.2.8.3 1.3.3s1-.1 1.3-.3c.4-.2.6-.5.9-.8.2-.3.4-.7.5-1.2.1-.4.1-.9.1-1.3s0-.9-.1-1.3-.2-.8-.5-1.2c-.2-.3-.5-.6-.9-.8-.4-.2-.8-.3-1.3-.3s-1 .1-1.3.3c-.4.2-.6.5-.8.8-.2.3-.4.7-.5 1.2-.1.4-.1.9-.1 1.3s0 .9.1 1.3zM154.8 82.7v-1.6h-.1c-.4.7-.9 1.1-1.5 1.4-.6.3-1.3.4-1.9.4-.8 0-1.5-.1-2.1-.3-.5-.2-1-.5-1.3-.9-.3-.4-.5-.9-.6-1.5-.1-.6-.2-1.2-.2-1.9v-7h3.1v6.4c0 .9.1 1.6.4 2.1.3.5.8.7 1.6.7s1.5-.3 1.8-.8c.4-.5.6-1.3.6-2.5v-6h3.1v11.4h-2.9zM162.7 71.3v2.1c.1-.4.3-.7.6-1 .2-.3.5-.6.9-.8.3-.2.7-.4 1-.5.4-.1.7-.2 1.1-.2.2 0 .4 0 .7.1v3c-.1 0-.3-.1-.5-.1h-.6c-.6 0-1.1.1-1.5.3-.4.2-.7.5-1 .8-.2.3-.4.7-.5 1.2s-.2.9-.2 1.4v5.1h-3.1V71.3h3.1zM173.6 69.6V67h3.1v2.6h-3.1zm3.1 1.7v11.4h-3.1V71.3h3.1zM181.7 71.3v1.6h.1c.4-.7.9-1.1 1.5-1.4.6-.3 1.3-.5 1.9-.5.8 0 1.5.1 2.1.3s1 .5 1.3.9c.3.4.5.9.6 1.5.1.6.2 1.2.2 1.9v7h-3.1v-6.4c0-.9-.1-1.6-.4-2.1-.3-.5-.8-.7-1.6-.7-.9 0-1.5.3-1.8.8s-.6 1.3-.6 2.5v6h-3.1V71.3h2.9zM196.8 73.4c-.5 0-.9.1-1.3.3-.3.2-.6.5-.8.9s-.4.8-.5 1.2-.1.9-.1 1.3 0 .8.1 1.3.2.8.4 1.2c.2.3.5.6.8.8.3.2.7.3 1.2.3.7 0 1.3-.2 1.7-.6s.7-1 .8-1.7h3c-.2 1.5-.8 2.7-1.8 3.5s-2.2 1.2-3.7 1.2c-.9 0-1.6-.1-2.3-.4-.7-.3-1.3-.7-1.8-1.2s-.9-1.1-1.2-1.8c-.3-.7-.4-1.5-.4-2.3 0-.9.1-1.7.4-2.5.3-.8.6-1.4 1.1-2 .5-.5 1.1-1 1.8-1.3.7-.3 1.5-.5 2.5-.5.7 0 1.3.1 1.9.3.6.2 1.2.4 1.7.8s.9.8 1.2 1.3c.3.5.5 1.2.5 1.9h-3.1c0-1.4-.8-2-2.1-2zM203.6 74.5c.3-.7.7-1.4 1.2-1.9s1.1-.9 1.8-1.2 1.5-.4 2.4-.4 1.7.1 2.4.4c.7.3 1.3.7 1.9 1.2s.9 1.2 1.2 1.9c.3.7.4 1.6.4 2.5 0 .9-.1 1.7-.4 2.5-.3.7-.7 1.4-1.2 1.9s-1.1.9-1.9 1.2c-.7.3-1.5.4-2.4.4s-1.7-.1-2.4-.4c-.7-.3-1.3-.7-1.8-1.2s-.9-1.1-1.2-1.9-.4-1.6-.4-2.5c0-.9.2-1.7.4-2.5zm2.9 3.8c.1.4.2.8.5 1.2.2.3.5.6.8.8.4.2.8.3 1.3.3s1-.1 1.3-.3c.4-.2.6-.5.9-.8.2-.3.4-.7.5-1.2.1-.4.1-.9.1-1.3s0-.9-.1-1.3-.2-.8-.5-1.2c-.2-.3-.5-.6-.9-.8-.4-.2-.8-.3-1.3-.3s-1 .1-1.3.3c-.4.2-.6.5-.8.8-.2.3-.4.7-.5 1.2s-.1.9-.1 1.3 0 .9.1 1.3zM219.6 71.3v1.5c.4-.6.9-1 1.5-1.4.6-.3 1.2-.5 2-.5.7 0 1.4.1 2 .4.6.3 1 .8 1.4 1.5.3-.5.8-.9 1.4-1.3.6-.4 1.3-.6 2.1-.6.6 0 1.2.1 1.7.2s1 .4 1.3.7c.4.3.7.7.9 1.3.2.5.3 1.1.3 1.9v7.6h-3.1v-6.4-1.1c0-.3-.1-.6-.2-.9s-.3-.4-.6-.6c-.3-.1-.6-.2-1-.2s-.8.1-1.1.3-.5.4-.6.7c-.2.3-.3.6-.3.9-.1.3-.1.7-.1 1v6.3h-3.1v-6.4-1c0-.3-.1-.6-.2-.9-.1-.3-.3-.5-.6-.7-.3-.2-.6-.3-1.1-.3-.1 0-.3 0-.6.1s-.5.2-.7.4c-.2.2-.4.4-.6.8-.2.3-.2.8-.2 1.4v6.6H217V71.3h2.6zM239.4 80c.5.5 1.1.7 2 .7.6 0 1.2-.2 1.6-.5.5-.3.7-.6.8-1h2.8c-.4 1.4-1.1 2.3-2 2.9-.9.6-2 .9-3.3.9-.9 0-1.7-.1-2.4-.4-.7-.3-1.3-.7-1.8-1.2s-.9-1.2-1.2-1.9-.4-1.5-.4-2.4c0-.9.1-1.6.4-2.4s.7-1.4 1.2-1.9 1.1-1 1.8-1.3c.7-.3 1.5-.5 2.4-.5 1 0 1.8.2 2.5.6s1.3.9 1.8 1.5.8 1.3 1 2.2c.2.8.3 1.6.2 2.5h-8.2c.1 1 .4 1.7.8 2.2zm3.6-6c-.4-.4-.9-.6-1.7-.6-.5 0-.9.1-1.2.3-.3.2-.6.4-.8.6-.2.2-.3.5-.4.8-.1.3-.1.5-.1.7h5.1c-.3-.8-.6-1.4-.9-1.8zM251.9 79.3v3.4h-3.5v-3.4h3.5z"/><g><path class="st0" d="M18.8 101.6c.4-1 .9-1.9 1.5-2.6.7-.7 1.5-1.3 2.4-1.8 1-.4 2-.6 3.2-.6 1.2 0 2.3.2 3.3.6 1 .4 1.8 1 2.4 1.8.7.7 1.2 1.6 1.5 2.6.4 1 .5 2.1.5 3.3 0 1.1-.2 2.2-.5 3.2-.4 1-.9 1.9-1.5 2.6-.7.7-1.5 1.3-2.4 1.7-1 .4-2 .6-3.3.6-1.2 0-2.3-.2-3.2-.6-1-.4-1.8-1-2.4-1.7-.7-.7-1.2-1.6-1.5-2.6-.4-1-.5-2.1-.5-3.2-.1-1.2.1-2.3.5-3.3zm3.1 5.2c.2.6.4 1.2.7 1.7.3.5.8.9 1.3 1.2.5.3 1.2.5 2 .5s1.4-.2 2-.5c.5-.3 1-.7 1.3-1.2.3-.5.6-1.1.7-1.7.2-.6.2-1.3.2-1.9 0-.7-.1-1.4-.2-2-.2-.6-.4-1.2-.7-1.7s-.8-.9-1.3-1.2c-.5-.3-1.2-.5-2-.5s-1.4.2-2 .5c-.5.3-1 .7-1.3 1.2s-.6 1.1-.7 1.7c-.2.6-.2 1.3-.2 2s.1 1.3.2 1.9zM38.2 101.3v1.6h.1c.4-.7.9-1.1 1.5-1.4.6-.3 1.3-.5 1.9-.5.8 0 1.5.1 2.1.3s1 .5 1.3.9c.3.4.5.9.6 1.5.1.6.2 1.2.2 1.9v7h-3.1v-6.4c0-.9-.1-1.6-.4-2.1s-.8-.7-1.6-.7c-.9 0-1.5.3-1.8.8s-.6 1.3-.6 2.5v6h-3.1v-11.4h2.9zM51.1 97v15.7H48V97h3.1zM57.3 116.1c-.6.4-1.4.6-2.5.6h-1c-.3 0-.6 0-1-.1V114c.3 0 .6.1.9.1h.9c.4 0 .7-.2.9-.5.2-.3.3-.6.3-.9 0-.2 0-.5-.1-.7l-4-10.7H55l2.6 7.8 2.5-7.8h3.2l-4.8 12.8c-.1.9-.6 1.6-1.2 2zM68.6 103.4v-2.1h1.9v-.9c0-1 .3-1.8.9-2.5.6-.6 1.6-1 2.9-1h.8c.3 0 .5 0 .8.1v2.3c-.4 0-.7-.1-1.1-.1-.4 0-.7.1-.9.3-.2.2-.3.5-.3 1v.7h2.2v2.1h-2.2v9.3h-3.1v-9.3h-1.9zM76.7 104.5c.3-.7.7-1.4 1.2-1.9s1.1-.9 1.8-1.2c.7-.3 1.5-.4 2.4-.4s1.7.1 2.4.4 1.3.7 1.9 1.2c.5.5.9 1.2 1.2 1.9.3.7.4 1.6.4 2.5 0 .9-.1 1.7-.4 2.5-.3.7-.7 1.4-1.2 1.9s-1.1.9-1.9 1.2c-.7.3-1.5.4-2.4.4s-1.7-.1-2.4-.4c-.7-.3-1.3-.7-1.8-1.2s-.9-1.1-1.2-1.9c-.3-.7-.4-1.6-.4-2.5 0-.9.2-1.7.4-2.5zm2.9 3.9c.1.4.2.8.5 1.2.2.3.5.6.8.8.4.2.8.3 1.3.3s1-.1 1.3-.3c.4-.2.6-.5.9-.8.2-.3.4-.7.5-1.2.1-.4.1-.9.1-1.3s0-.9-.1-1.3-.2-.8-.5-1.2c-.2-.3-.5-.6-.9-.8-.4-.2-.8-.3-1.3-.3s-1 .1-1.3.3c-.4.2-.6.5-.8.8-.2.3-.4.7-.5 1.2-.1.4-.1.9-.1 1.3s0 .8.1 1.3zM92.6 101.3v2.1c.1-.4.3-.7.6-1 .2-.3.5-.6.9-.8.3-.2.7-.4 1-.5.4-.1.7-.2 1.1-.2.2 0 .4 0 .7.1v2.9c-.1 0-.3-.1-.5-.1h-.6c-.6 0-1.1.1-1.5.3-.4.2-.7.5-1 .8-.2.3-.4.7-.5 1.2s-.2.9-.2 1.4v5.1h-3.1v-11.4h3.1zM111.6 97l5.9 15.7h-3.6l-1.2-3.5h-5.9l-1.2 3.5h-3.5L108 97h3.6zm.2 9.6l-2-5.8-2 5.8h4zM125.2 97c1 0 2 .2 2.8.5.9.3 1.6.8 2.3 1.5.6.6 1.1 1.5 1.5 2.4.4 1 .5 2.1.5 3.4 0 1.1-.1 2.2-.4 3.2-.3 1-.7 1.8-1.3 2.5-.6.7-1.3 1.3-2.2 1.7-.9.4-1.9.6-3.1.6h-6.8V97h6.7zm-.2 12.8c.5 0 1-.1 1.5-.2.5-.2.9-.4 1.3-.8s.7-.9.9-1.5c.2-.6.3-1.3.3-2.2 0-.8-.1-1.5-.2-2.1-.2-.6-.4-1.2-.8-1.6s-.8-.8-1.4-1c-.6-.2-1.3-.4-2.1-.4H122v9.9h3zM142.1 97l5.9 15.7h-3.6l-1.2-3.5h-5.9l-1.2 3.5h-3.5l5.9-15.7h3.6zm.2 9.6l-2-5.8-2 5.8h4zM159.5 97l3.7 10.8 3.5-10.8h4.9v15.7h-3.2v-11.1l-3.9 11.1h-2.7l-3.9-11v11h-3.2V97h4.8zM177.1 110c.5.5 1.1.7 2 .7.6 0 1.2-.2 1.6-.5.5-.3.7-.6.8-1h2.8c-.4 1.4-1.1 2.3-2 2.9-.9.6-2 .9-3.3.9-.9 0-1.7-.1-2.4-.4-.7-.3-1.3-.7-1.8-1.2s-.9-1.2-1.2-1.9-.4-1.5-.4-2.4c0-.9.1-1.6.4-2.4s.7-1.4 1.2-1.9 1.1-1 1.8-1.3c.7-.3 1.5-.5 2.4-.5 1 0 1.8.2 2.5.6s1.3.9 1.8 1.5.8 1.3 1 2.2c.2.8.3 1.6.2 2.5h-8.2c.1 1 .4 1.7.8 2.2zm3.6-6c-.4-.4-.9-.6-1.7-.6-.5 0-.9.1-1.2.3-.3.2-.6.4-.8.6-.2.2-.3.5-.4.8-.1.3-.1.5-.1.7h5.1c-.3-.8-.6-1.4-.9-1.8zM189 101.3v1.5c.4-.6.9-1 1.5-1.4.6-.3 1.2-.5 2-.5.7 0 1.4.1 2 .4.6.3 1 .8 1.4 1.5.3-.5.8-.9 1.4-1.3.6-.4 1.3-.6 2.1-.6.6 0 1.2.1 1.7.2s1 .4 1.3.7c.4.3.7.7.9 1.3.2.5.3 1.1.3 1.9v7.6h-3.1v-6.4-1.1c0-.3-.1-.6-.2-.9s-.3-.4-.6-.6c-.3-.1-.6-.2-1-.2s-.8.1-1.1.3-.5.4-.6.7c-.2.3-.3.6-.3.9-.1.3-.1.7-.1 1v6.3h-3.1v-6.4-1c0-.3-.1-.6-.2-.9-.1-.3-.3-.5-.6-.7-.3-.2-.6-.3-1.1-.3-.1 0-.3 0-.6.1s-.5.2-.7.4c-.2.2-.4.4-.6.8-.2.3-.2.8-.2 1.4v6.6h-3.1v-11.4h2.6zM208.6 97v5.7c.4-.6.9-1 1.6-1.3.7-.3 1.3-.4 2-.4.6 0 1.1.1 1.7.4.6.2 1.1.6 1.5 1.1s.8 1.1 1.1 1.9c.3.8.4 1.7.4 2.7 0 1-.1 1.9-.4 2.7-.3.8-.6 1.4-1.1 1.9s-.9.8-1.5 1.1-1.1.4-1.7.4c-.8 0-1.6-.1-2.2-.4-.7-.3-1.2-.7-1.5-1.3v1.5h-3V97h3.1zm5.1 8.6c-.1-.4-.3-.8-.5-1.2-.2-.3-.5-.6-.8-.8-.3-.2-.7-.3-1.2-.3s-.9.1-1.2.3c-.3.2-.6.5-.8.8s-.4.7-.5 1.2c-.1.4-.2.9-.2 1.4 0 .5.1.9.2 1.4.1.4.3.8.5 1.2s.5.6.8.8c.3.2.7.3 1.2.3s.9-.1 1.2-.3c.3-.2.6-.5.8-.8.2-.3.4-.7.5-1.2s.2-.9.2-1.4c0-.5-.1-.9-.2-1.4zM221.9 110c.5.5 1.1.7 2 .7.6 0 1.2-.2 1.6-.5.5-.3.7-.6.8-1h2.8c-.4 1.4-1.1 2.3-2 2.9-.9.6-2 .9-3.3.9-.9 0-1.7-.1-2.4-.4-.7-.3-1.3-.7-1.8-1.2s-.9-1.2-1.2-1.9-.4-1.5-.4-2.4c0-.9.1-1.6.4-2.4s.7-1.4 1.2-1.9 1.1-1 1.8-1.3c.7-.3 1.5-.5 2.4-.5 1 0 1.8.2 2.5.6s1.3.9 1.8 1.5.8 1.3 1 2.2c.2.8.3 1.6.2 2.5h-8.2c0 1 .3 1.7.8 2.2zm3.5-6c-.4-.4-.9-.6-1.7-.6-.5 0-.9.1-1.2.3-.3.2-.6.4-.8.6-.2.2-.3.5-.4.8-.1.3-.1.5-.1.7h5.1c-.3-.8-.5-1.4-.9-1.8zM233.7 101.3v2.1c.1-.4.3-.7.6-1 .2-.3.5-.6.9-.8.3-.2.7-.4 1-.5.4-.1.7-.2 1.1-.2.2 0 .4 0 .7.1v2.9c-.1 0-.3-.1-.5-.1h-.6c-.6 0-1.1.1-1.5.3-.4.2-.7.5-1 .8-.2.3-.4.7-.5 1.2s-.2.9-.2 1.4v5.1h-3.1v-11.4h3.1zM241.5 109.9c.1.2.3.4.5.6.2.2.5.3.8.3.3.1.6.1.9.1.2 0 .5 0 .7-.1s.5-.1.7-.2c.2-.1.4-.3.5-.4.1-.2.2-.4.2-.7 0-.5-.3-.8-.9-1.1-.6-.2-1.5-.5-2.6-.7-.5-.1-.9-.2-1.3-.4-.4-.1-.8-.3-1.2-.6-.3-.2-.6-.5-.8-.9-.2-.3-.3-.8-.3-1.3 0-.7.1-1.3.4-1.8.3-.5.7-.8 1.1-1.1s1-.5 1.6-.6 1.2-.2 1.8-.2c.6 0 1.2.1 1.8.2.6.1 1.1.3 1.6.6s.8.6 1.1 1.1c.3.5.5 1 .5 1.7h-3c0-.6-.3-1-.7-1.2-.4-.2-.9-.3-1.5-.3h-.6c-.2 0-.4.1-.6.1-.2.1-.3.2-.4.3-.1.1-.2.3-.2.6s.1.5.3.7.5.3.8.4c.3.1.7.2 1.1.3.4.1.9.2 1.3.3.5.1.9.2 1.3.4.4.1.8.3 1.2.6.3.2.6.5.8.9.2.4.3.8.3 1.3 0 .7-.2 1.4-.5 1.9s-.7.9-1.2 1.2c-.5.3-1 .5-1.7.6s-1.3.2-1.9.2c-.7 0-1.3-.1-1.9-.2-.6-.1-1.2-.4-1.7-.7-.5-.3-.9-.7-1.2-1.2s-.5-1.1-.5-1.9h3l.4 1.2z"/></g></svg>