<svg id="Layer_1" xmlns="http://www.w3.org/2000/svg" viewBox="0 0 300 250"><style>.st0{fill:#349946}</style><path class="st0" d="M44.2 91.6c1.3 0 2.4.2 3.3.6.9.4 1.6.9 2.2 1.5.6.6 1 1.3 1.2 2.1.3.8.4 1.6.4 2.5 0 .8-.1 1.6-.4 2.5-.3.8-.7 1.5-1.2 2.1s-1.3 1.1-2.2 1.5c-.9.4-2 .6-3.3.6h-4.8v7.4h-4.6V91.6h9.4zm-1.2 9.7c.5 0 1 0 1.5-.1s.9-.2 1.3-.4.7-.5.9-.9c.2-.4.3-.9.3-1.6s-.1-1.2-.3-1.6c-.2-.4-.5-.7-.9-.9-.4-.2-.8-.4-1.3-.4-.5-.1-1-.1-1.5-.1h-3.5v6.2H43zM57.1 97.3v2.8h.1c.2-.5.5-.9.8-1.3.3-.4.7-.7 1.1-1 .4-.3.9-.5 1.4-.7.5-.2 1-.2 1.5-.2.3 0 .6 0 .9.1v3.8c-.2 0-.4-.1-.7-.1h-.8c-.8 0-1.4.1-1.9.4-.5.3-.9.6-1.3 1-.3.4-.5.9-.7 1.5-.1.6-.2 1.2-.2 1.9v6.8h-4.1v-15h3.9zM63.8 101.9c.1-1 .3-1.8.7-2.4.4-.6 1-1.1 1.6-1.5.7-.4 1.4-.7 2.2-.8.8-.2 1.6-.2 2.5-.2.8 0 1.5.1 2.3.2.8.1 1.5.3 2.1.6.6.3 1.2.7 1.6 1.3.4.6.6 1.3.6 2.2v7.8c0 .7 0 1.3.1 1.9.1.6.2 1.1.4 1.4h-4.2c-.1-.2-.1-.5-.2-.7 0-.2-.1-.5-.1-.7-.7.7-1.4 1.2-2.3 1.4s-1.8.4-2.7.4c-.7 0-1.4-.1-2-.3-.6-.2-1.2-.4-1.6-.8-.5-.4-.8-.8-1.1-1.4-.3-.6-.4-1.2-.4-2 0-.9.1-1.6.4-2.1.3-.6.7-1 1.2-1.3.5-.3 1-.6 1.6-.7.6-.2 1.2-.3 1.8-.4.6-.1 1.2-.2 1.8-.2.6-.1 1.1-.1 1.6-.3.5-.1.8-.3 1.1-.5.3-.2.4-.5.4-1 0-.4-.1-.8-.2-1.1-.1-.3-.3-.5-.6-.6-.2-.1-.5-.2-.8-.3-.3 0-.7-.1-1-.1-.8 0-1.4.2-1.9.5s-.7.9-.8 1.7h-4.1zm9.5 3c-.2.2-.4.3-.7.4-.3.1-.5.2-.8.2-.3.1-.6.1-.9.1s-.7.1-1 .1c-.3.1-.6.1-.9.2s-.6.2-.8.4c-.2.2-.4.4-.5.6-.1.3-.2.6-.2 1s.1.7.2.9c.1.3.3.4.6.6.2.1.5.2.8.3s.6.1 1 .1c.8 0 1.4-.1 1.9-.4.4-.3.8-.6 1-1 .2-.4.3-.8.4-1.1 0-.4.1-.7.1-.9v-1.5zM87.2 100c-.7 0-1.2.1-1.7.4-.4.3-.8.7-1.1 1.2-.3.5-.5 1-.6 1.6-.1.6-.2 1.1-.2 1.7 0 .5.1 1.1.2 1.7.1.6.3 1.1.6 1.5.3.5.6.8 1.1 1.1.4.3 1 .4 1.6.4 1 0 1.7-.3 2.3-.8.5-.6.9-1.3 1-2.2h4c-.3 2-1 3.5-2.3 4.6-1.3 1-2.9 1.6-4.9 1.6-1.1 0-2.2-.2-3.1-.6-.9-.4-1.7-.9-2.4-1.6-.7-.7-1.2-1.5-1.5-2.4-.4-.9-.6-2-.6-3.1 0-1.2.2-2.2.5-3.2s.8-1.9 1.5-2.6c.7-.7 1.5-1.3 2.4-1.7.9-.4 2-.6 3.2-.6.9 0 1.7.1 2.6.3.8.2 1.6.6 2.2 1.1.6.5 1.2 1.1 1.6 1.8.4.7.6 1.5.7 2.5h-4c-.3-1.9-1.3-2.7-3.1-2.7zM104.4 97.3v2.8h-3v7.4c0 .7.1 1.2.3 1.4.2.2.7.3 1.4.3h.7c.2 0 .4 0 .6-.1v3.2c-.3.1-.7.1-1.2.1H102c-.6 0-1.2 0-1.8-.1-.6-.1-1.1-.3-1.5-.5-.4-.3-.8-.6-1-1.1-.3-.5-.4-1.1-.4-1.8V100h-2.5v-2.8h2.5v-4.5h4.1v4.5h3zM105.9 95v-3.4h4.1V95h-4.1zm4.1 2.3v15h-4.1v-15h4.1zM119.9 100c-.7 0-1.2.1-1.7.4-.4.3-.8.7-1.1 1.2-.3.5-.5 1-.6 1.6-.1.6-.2 1.1-.2 1.7 0 .5.1 1.1.2 1.7.1.6.3 1.1.6 1.5.3.5.6.8 1.1 1.1.4.3 1 .4 1.6.4 1 0 1.7-.3 2.3-.8.5-.6.9-1.3 1-2.2h4c-.3 2-1 3.5-2.3 4.6-1.3 1-2.9 1.6-4.9 1.6-1.1 0-2.2-.2-3.1-.6-.9-.4-1.7-.9-2.4-1.6-.7-.7-1.2-1.5-1.5-2.4-.4-.9-.6-2-.6-3.1 0-1.2.2-2.2.5-3.2s.8-1.9 1.5-2.6c.7-.7 1.5-1.3 2.4-1.7.9-.4 2-.6 3.2-.6.9 0 1.7.1 2.6.3.8.2 1.6.6 2.2 1.1.6.5 1.2 1.1 1.6 1.8.4.7.6 1.5.7 2.5h-4c-.4-1.9-1.4-2.7-3.1-2.7zM128.6 101.9c.1-1 .3-1.8.7-2.4.4-.6 1-1.1 1.6-1.5.7-.4 1.4-.7 2.2-.8.8-.2 1.6-.2 2.5-.2.8 0 1.5.1 2.3.2.8.1 1.5.3 2.1.6.6.3 1.2.7 1.6 1.3.4.6.6 1.3.6 2.2v7.8c0 .7 0 1.3.1 1.9.1.6.2 1.1.4 1.4h-4.2c-.1-.2-.1-.5-.2-.7 0-.2-.1-.5-.1-.7-.7.7-1.4 1.2-2.3 1.4s-1.8.4-2.7.4c-.7 0-1.4-.1-2-.3-.6-.2-1.2-.4-1.6-.8-.5-.4-.8-.8-1.1-1.4-.3-.6-.4-1.2-.4-2 0-.9.1-1.6.4-2.1.3-.6.7-1 1.2-1.3.5-.3 1-.6 1.6-.7.6-.2 1.2-.3 1.8-.4.6-.1 1.2-.2 1.8-.2.6-.1 1.1-.1 1.6-.3.5-.1.8-.3 1.1-.5.3-.2.4-.5.4-1 0-.4-.1-.8-.2-1.1-.1-.3-.3-.5-.6-.6-.2-.1-.5-.2-.8-.3-.3 0-.7-.1-1-.1-.8 0-1.4.2-1.9.5s-.7.9-.8 1.7h-4.1zm9.5 3c-.2.2-.4.3-.7.4-.3.1-.5.2-.8.2-.3.1-.6.1-.9.1s-.7.1-1 .1c-.3.1-.6.1-.9.2s-.6.2-.8.4c-.2.2-.4.4-.5.6-.1.3-.2.6-.2 1s.1.7.2.9c.1.3.3.4.6.6.2.1.5.2.8.3s.6.1 1 .1c.8 0 1.4-.1 1.9-.4.4-.3.8-.6 1-1 .2-.4.3-.8.4-1.1 0-.4.1-.7.1-.9v-1.5zM149.1 91.6v20.7H145V91.6h4.1zM174.9 112.3l-3.5-14.1h-.1l-3.5 14.1h-4.6l-5.5-20.7h4.6l3.3 14.1h.1l3.6-14.1h4.3l3.5 14.3h.1l3.4-14.3h4.5l-5.6 20.7h-4.6zM186.2 95v-3.4h4.1V95h-4.1zm4.1 2.3v15h-4.1v-15h4.1zM196.5 108.5c.2.3.4.6.7.8.3.2.6.4 1 .4.4.1.8.1 1.2.1.3 0 .6 0 .9-.1l.9-.3c.3-.1.5-.3.7-.6.2-.2.3-.5.3-.9 0-.6-.4-1.1-1.2-1.4-.8-.3-2-.6-3.4-.9-.6-.1-1.2-.3-1.8-.5-.6-.2-1.1-.4-1.5-.7-.4-.3-.8-.7-1.1-1.1-.3-.5-.4-1-.4-1.7 0-1 .2-1.8.6-2.4s.9-1.1 1.5-1.5c.6-.4 1.3-.6 2.1-.8s1.6-.2 2.4-.2c.8 0 1.6.1 2.4.2.8.2 1.4.4 2 .8.6.4 1.1.9 1.5 1.5s.6 1.4.7 2.3h-3.9c-.1-.8-.4-1.3-.9-1.6-.5-.3-1.2-.4-1.9-.4h-.8c-.3 0-.5.1-.7.2-.2.1-.4.2-.6.4-.2.2-.2.4-.2.7 0 .4.1.7.4.9s.6.4 1.1.6.9.3 1.5.4 1.1.2 1.7.4c.6.1 1.2.3 1.8.5s1.1.4 1.5.8c.4.3.8.7 1.1 1.2.3.5.4 1.1.4 1.8 0 1-.2 1.8-.6 2.5-.4.7-.9 1.2-1.6 1.6-.6.4-1.4.7-2.2.9-.8.2-1.7.2-2.5.2-.9 0-1.7-.1-2.6-.3-.8-.2-1.6-.5-2.2-.9-.6-.4-1.2-.9-1.6-1.6s-.6-1.5-.7-2.5h3.9c-.2.5-.1.9.1 1.2zM218.7 110.4c-.5.8-1.1 1.4-1.9 1.8-.8.4-1.7.5-2.7.5-1.1 0-2.1-.2-3-.7-.9-.4-1.6-1-2.1-1.8-.6-.7-1-1.6-1.2-2.6s-.4-2-.4-3 .1-2 .4-2.9c.3-.9.7-1.8 1.2-2.5.6-.7 1.2-1.3 2.1-1.7s1.8-.7 2.9-.7c.9 0 1.7.2 2.5.6.8.4 1.4.9 1.9 1.7h.1v-7.5h4.1v20.7h-3.9v-1.9zm-.2-7.4c-.1-.6-.3-1.1-.6-1.5s-.6-.8-1.1-1.1c-.4-.3-1-.4-1.7-.4s-1.2.1-1.7.4c-.5.3-.8.6-1.1 1.1-.3.4-.5 1-.6 1.5s-.2 1.2-.2 1.8c0 .6.1 1.2.2 1.7.1.6.4 1.1.7 1.6.3.5.7.8 1.1 1.1.5.3 1 .4 1.6.4.7 0 1.2-.1 1.7-.4.5-.3.8-.6 1.1-1.1.3-.5.5-1 .6-1.6.1-.6.2-1.2.2-1.8 0-.6-.1-1.2-.2-1.7zM225.2 101.5c.4-1 .9-1.8 1.6-2.5s1.5-1.2 2.4-1.6c.9-.4 2-.6 3.2-.6s2.2.2 3.2.6 1.8.9 2.5 1.6 1.2 1.5 1.6 2.5c.4 1 .6 2.1.6 3.3s-.2 2.3-.6 3.2c-.4 1-.9 1.8-1.6 2.5-.7.7-1.5 1.2-2.5 1.6-1 .4-2 .6-3.2.6s-2.2-.2-3.2-.6c-.9-.4-1.8-.9-2.4-1.6-.7-.7-1.2-1.5-1.6-2.5-.4-1-.6-2-.6-3.2s.3-2.3.6-3.3zm3.8 5c.1.6.3 1.1.6 1.5.3.5.7.8 1.1 1.1.5.3 1 .4 1.7.4s1.3-.1 1.8-.4c.5-.3.9-.6 1.1-1.1.3-.5.5-1 .6-1.5.1-.6.2-1.2.2-1.8 0-.6-.1-1.2-.2-1.8s-.3-1.1-.6-1.5c-.3-.4-.7-.8-1.1-1.1s-1.1-.4-1.8-.4-1.3.1-1.7.4c-.5.3-.8.6-1.1 1.1-.3.4-.5 1-.6 1.5-.1.6-.2 1.2-.2 1.8 0 .7.1 1.3.2 1.8zM246.3 97.3v2h.1c.5-.8 1.2-1.4 2-1.8.8-.4 1.6-.6 2.6-.6.9 0 1.8.2 2.6.6.8.4 1.4 1 1.8 1.9.4-.7 1-1.2 1.8-1.7s1.7-.8 2.7-.8c.8 0 1.5.1 2.2.3.7.2 1.3.5 1.7.9.5.4.9 1 1.1 1.7.3.7.4 1.5.4 2.5v10h-4.1v-8.5c0-.5 0-1-.1-1.4 0-.4-.1-.8-.3-1.2-.2-.3-.4-.6-.8-.8-.3-.2-.8-.3-1.4-.3s-1 .1-1.4.3c-.4.2-.6.5-.8.9-.2.4-.3.8-.4 1.2-.1.5-.1.9-.1 1.4v8.4h-4.1v-8.4-1.3c0-.4-.1-.8-.2-1.2-.1-.4-.4-.7-.7-.9-.3-.2-.8-.3-1.5-.3-.2 0-.4 0-.8.1s-.6.3-.9.5-.6.6-.8 1c-.2.5-.3 1-.3 1.8v8.7h-4.1v-15h3.8z"/><g><path class="st0" d="M72.4 130v-2.8h2.5V126c0-1.3.4-2.4 1.2-3.3.8-.9 2.1-1.3 3.8-1.3H81c.4 0 .7.1 1.1.1v3.1c-.5-.1-1-.1-1.5-.1-.6 0-1 .1-1.2.4s-.4.7-.4 1.3v.9h2.8v2.8H79v12.2h-4.1V130h-2.5zM83.2 131.5c.4-1 .9-1.8 1.6-2.5.7-.7 1.5-1.2 2.4-1.6.9-.4 2-.6 3.2-.6 1.2 0 2.2.2 3.2.6 1 .4 1.8.9 2.5 1.6s1.2 1.5 1.6 2.5.6 2.1.6 3.3c0 1.2-.2 2.3-.6 3.2-.4 1-.9 1.8-1.6 2.5-.7.7-1.5 1.2-2.5 1.6s-2 .6-3.2.6c-1.2 0-2.2-.2-3.2-.6s-1.8-.9-2.4-1.6c-.7-.7-1.2-1.5-1.6-2.5-.4-1-.6-2-.6-3.2 0-1.2.2-2.3.6-3.3zm3.7 5c.1.6.3 1.1.6 1.5s.7.8 1.1 1.1 1 .4 1.7.4 1.3-.1 1.8-.4c.5-.3.9-.6 1.1-1.1s.5-1 .6-1.5c.1-.6.2-1.2.2-1.8 0-.6-.1-1.2-.2-1.8-.1-.6-.3-1.1-.6-1.5-.3-.4-.7-.8-1.1-1.1-.5-.3-1.1-.4-1.8-.4s-1.3.1-1.7.4c-.5.3-.8.6-1.1 1.1-.3.4-.5 1-.6 1.5-.1.6-.2 1.2-.2 1.8 0 .7.1 1.3.2 1.8zM104.1 127.3v2.8h.1c.2-.5.5-.9.8-1.3s.7-.7 1.1-1c.4-.3.9-.5 1.4-.7.5-.2 1-.2 1.5-.2.3 0 .6 0 .9.1v3.8c-.2 0-.4-.1-.7-.1h-.8c-.8 0-1.4.1-1.9.4-.5.3-.9.6-1.3 1-.3.4-.5.9-.7 1.5-.1.6-.2 1.2-.2 1.9v6.8h-4.1v-15h3.9zM127.8 121.6c1.3 0 2.6.2 3.7.6 1.1.4 2.1 1.1 3 1.9s1.5 1.9 2 3.2c.5 1.3.7 2.8.7 4.5 0 1.5-.2 2.9-.6 4.2-.4 1.3-1 2.4-1.8 3.3-.8.9-1.8 1.7-2.9 2.2-1.2.5-2.5.8-4.1.8h-8.9v-20.7h8.9zm-.3 16.8c.7 0 1.3-.1 1.9-.3.6-.2 1.2-.6 1.7-1.1.5-.5.9-1.1 1.2-1.9s.4-1.8.4-2.9c0-1-.1-2-.3-2.8-.2-.8-.5-1.6-1-2.2-.5-.6-1.1-1.1-1.8-1.4s-1.7-.5-2.8-.5h-3.2v13h3.9zM143.8 138.7c.6.6 1.5.9 2.7.9.8 0 1.5-.2 2.1-.6.6-.4 1-.9 1.1-1.3h3.6c-.6 1.8-1.5 3.1-2.7 3.9-1.2.8-2.6 1.2-4.3 1.2-1.2 0-2.2-.2-3.2-.6s-1.8-.9-2.4-1.6c-.7-.7-1.2-1.5-1.5-2.5-.4-1-.5-2-.5-3.2 0-1.1.2-2.2.6-3.1.4-1 .9-1.8 1.6-2.5.7-.7 1.5-1.3 2.4-1.7.9-.4 2-.6 3.1-.6 1.3 0 2.4.2 3.3.7s1.7 1.2 2.3 2c.6.8 1 1.8 1.3 2.8.3 1.1.4 2.2.3 3.3h-10.8c0 1.3.4 2.3 1 2.9zm4.6-7.9c-.5-.5-1.2-.8-2.2-.8-.7 0-1.2.1-1.6.3-.4.2-.8.5-1 .8-.3.3-.4.7-.6 1s-.2.7-.2 1h6.7c-.2-1-.6-1.8-1.1-2.3zM159.4 127.3v2.1h.1c.5-.9 1.2-1.5 2-1.9.8-.4 1.7-.6 2.6-.6 1.1 0 2 .2 2.7.5s1.3.7 1.7 1.2c.4.5.7 1.2.9 1.9.2.8.2 1.6.2 2.5v9.2h-4.1v-8.5c0-1.2-.2-2.2-.6-2.8-.4-.6-1.1-.9-2.1-.9-1.1 0-1.9.3-2.4 1s-.8 1.8-.8 3.3v7.9h-4.1v-15h3.9zM180.4 127.3v2.8h-3v7.4c0 .7.1 1.2.3 1.4.2.2.7.3 1.4.3h.7c.2 0 .4 0 .6-.1v3.2c-.3.1-.7.1-1.2.1H178c-.6 0-1.2 0-1.8-.1s-1.1-.3-1.5-.5c-.4-.3-.8-.6-1-1.1-.3-.5-.4-1.1-.4-1.8V130h-2.5v-2.8h2.5v-4.5h4.1v4.5h3zM181.9 124.9v-3.4h4.1v3.4h-4.1zm4.1 2.4v15h-4.1v-15h4.1zM192.2 138.5c.2.3.4.6.7.8s.6.4 1 .4.8.1 1.2.1c.3 0 .6 0 .9-.1l.9-.3c.3-.1.5-.3.7-.6.2-.2.3-.5.3-.9 0-.6-.4-1.1-1.2-1.4-.8-.3-2-.6-3.4-.9-.6-.1-1.2-.3-1.8-.5s-1.1-.4-1.5-.7c-.4-.3-.8-.7-1.1-1.1-.3-.5-.4-1-.4-1.7 0-1 .2-1.8.6-2.4.4-.6.9-1.1 1.5-1.5.6-.4 1.3-.6 2.1-.8.8-.1 1.6-.2 2.4-.2.8 0 1.6.1 2.4.2.8.2 1.4.4 2 .8.6.4 1.1.9 1.5 1.5.4.6.6 1.4.7 2.3h-3.9c-.1-.8-.4-1.3-.9-1.6s-1.2-.4-1.9-.4h-.8c-.3 0-.5.1-.7.2-.2.1-.4.2-.6.4-.2.2-.2.4-.2.7 0 .4.1.7.4.9.3.2.6.4 1.1.6.4.1.9.3 1.5.4.6.1 1.1.2 1.7.4.6.1 1.2.3 1.8.5.6.2 1.1.5 1.5.8.4.3.8.7 1.1 1.2.3.5.4 1.1.4 1.8 0 1-.2 1.8-.6 2.5-.4.7-.9 1.2-1.6 1.6-.6.4-1.4.7-2.2.9-.8.2-1.7.2-2.5.2-.9 0-1.7-.1-2.6-.3s-1.6-.5-2.2-.9-1.2-.9-1.6-1.6-.6-1.5-.7-2.5h3.9c-.2.5-.1.9.1 1.2zM212 127.3v2.8h-3v7.4c0 .7.1 1.2.3 1.4.2.2.7.3 1.4.3h.7c.2 0 .4 0 .6-.1v3.2c-.3.1-.7.1-1.2.1h-1.2c-.6 0-1.2 0-1.8-.1s-1.1-.3-1.5-.5c-.4-.3-.8-.6-1-1.1-.3-.5-.4-1.1-.4-1.8V130h-2.5v-2.8h2.5v-4.5h4.1v4.5h3zM216.9 138.5c.2.3.4.6.7.8s.6.4 1 .4.8.1 1.2.1c.3 0 .6 0 .9-.1l.9-.3c.3-.1.5-.3.7-.6.2-.2.3-.5.3-.9 0-.6-.4-1.1-1.2-1.4-.8-.3-2-.6-3.4-.9-.6-.1-1.2-.3-1.8-.5s-1.1-.4-1.5-.7c-.4-.3-.8-.7-1.1-1.1-.3-.5-.4-1-.4-1.7 0-1 .2-1.8.6-2.4.4-.6.9-1.1 1.5-1.5.6-.4 1.3-.6 2.1-.8.8-.1 1.6-.2 2.4-.2.8 0 1.6.1 2.4.2.8.2 1.4.4 2 .8.6.4 1.1.9 1.5 1.5.4.6.6 1.4.7 2.3h-3.9c-.1-.8-.4-1.3-.9-1.6s-1.2-.4-1.9-.4h-.8c-.3 0-.5.1-.7.2-.2.1-.4.2-.6.4-.2.2-.2.4-.2.7 0 .4.1.7.4.9.3.2.6.4 1.1.6.4.1.9.3 1.5.4.6.1 1.1.2 1.7.4.6.1 1.2.3 1.8.5.6.2 1.1.5 1.5.8.4.3.8.7 1.1 1.2.3.5.4 1.1.4 1.8 0 1-.2 1.8-.6 2.5-.4.7-.9 1.2-1.6 1.6-.6.4-1.4.7-2.2.9-.8.2-1.7.2-2.5.2-.9 0-1.7-.1-2.6-.3s-1.6-.5-2.2-.9-1.2-.9-1.6-1.6-.6-1.5-.7-2.5h3.9c-.2.5-.1.9.1 1.2z"/></g></svg>