<svg id="Layer_1" xmlns="http://www.w3.org/2000/svg" xmlns:xlink="http://www.w3.org/1999/xlink" viewBox="0 0 300 250"><style>.st0{clip-path:url(#SVGID_00000013871835347843245650000015761983037899563402_);fill:#349946}.st1{fill:#fff}</style><defs><path id="SVGID_1_" d="M17.4 168.8h150.1v31.6H17.4z"/></defs><clipPath id="SVGID_00000124159344666030350350000012583076617149928351_"><use xlink:href="#SVGID_1_" overflow="visible"/></clipPath><path d="M167.5 184.6c0 8.7-8.2 15.8-18.2 15.8H35.6c-10 0-18.2-7.1-18.2-15.8s8.2-15.8 18.2-15.8h113.8c10 0 18.1 7.1 18.1 15.8" clip-path="url(#SVGID_00000124159344666030350350000012583076617149928351_)" fill="#349946"/><g><path class="st1" d="M49.6 190l-1.7-6.9-1.7 6.9H44l-2.7-10.1h2.2l1.6 6.9 1.8-6.9H49l1.7 7 1.7-7h2.2L51.8 190h-2.2zM60.2 179.9L64 190h-2.3l-.8-2.2h-3.8l-.8 2.2h-2.2l3.8-10.1h2.3zm.1 6.1l-1.3-3.7-1.3 3.7h2.6z"/></g><g><path class="st1" d="M62.8 181.7v-1.9H71v1.9h-3v8.2h-2.2v-8.2h-3zM78.7 182.5c-.1-.2-.3-.4-.5-.6-.2-.2-.4-.3-.7-.4-.2-.1-.5-.1-.8-.1-.5 0-.9.1-1.3.3s-.6.5-.8.8-.4.7-.5 1.1-.1.8-.1 1.3c0 .4 0 .8.1 1.2.1.4.3.8.5 1.1s.5.6.8.8.8.3 1.3.3c.7 0 1.2-.2 1.6-.6.4-.4.6-1 .7-1.6h2.1c-.1.6-.2 1.2-.4 1.7s-.5.9-.9 1.3-.8.6-1.4.8c-.5.2-1.1.3-1.7.3-.8 0-1.5-.1-2.1-.4-.6-.3-1.1-.6-1.6-1.1-.4-.5-.7-1-1-1.7-.2-.6-.3-1.3-.3-2.1s.1-1.5.3-2.1c.2-.6.6-1.2 1-1.7s.9-.9 1.6-1.1c.6-.3 1.3-.4 2.1-.4.6 0 1.1.1 1.6.2.5.2.9.4 1.3.7.4.3.7.7 1 1.1.3.5.4 1 .5 1.6H79c-.1-.2-.2-.4-.3-.7zM84.9 179.9v3.9H89v-3.9h2.2V190H89v-4.4h-4.1v4.4h-2.2v-10.1h2.2zM103.2 190l-3.3-10.1h2.3l2.2 7.1 2.3-7.1h2.3l-3.4 10.1h-2.4zM112.1 179.9V190h-2.2v-10.1h2.2zM118.4 179.9c.7 0 1.3.1 1.8.3.6.2 1 .5 1.5.9s.7.9 1 1.6.3 1.4.3 2.2c0 .7-.1 1.4-.3 2s-.5 1.2-.9 1.6c-.4.5-.9.8-1.4 1.1-.6.3-1.2.4-2 .4H114v-10.1h4.4zm-.1 8.2c.3 0 .6-.1.9-.2.3-.1.6-.3.8-.5.2-.2.4-.6.6-.9.1-.4.2-.9.2-1.4 0-.5 0-1-.1-1.4-.1-.4-.3-.8-.5-1.1s-.5-.5-.9-.7-.8-.2-1.4-.2h-1.6v6.4h2zM132.1 179.9v1.9h-5.3v2.2h4.9v1.7h-4.9v2.5h5.4v1.9h-7.7V180h7.6zM133.6 182.8c.2-.6.6-1.2 1-1.7s.9-.9 1.6-1.1c.6-.3 1.3-.4 2.1-.4s1.5.1 2.1.4c.6.3 1.1.7 1.6 1.1s.7 1 1 1.7c.2.6.3 1.3.3 2.1 0 .7-.1 1.4-.3 2.1-.2.6-.6 1.2-1 1.7s-.9.8-1.6 1.1c-.6.3-1.3.4-2.1.4s-1.5-.1-2.1-.4c-.6-.3-1.1-.6-1.6-1.1-.4-.5-.7-1-1-1.7-.2-.6-.3-1.3-.3-2.1 0-.7.1-1.4.3-2.1zm2.1 3.4c.1.4.3.8.5 1.1s.5.6.8.8.8.3 1.3.3.9-.1 1.3-.3c.3-.2.6-.5.8-.8s.4-.7.5-1.1c.1-.4.1-.8.1-1.2 0-.4 0-.9-.1-1.3s-.3-.8-.5-1.1-.5-.6-.8-.8c-.3-.2-.8-.3-1.3-.3s-.9.1-1.3.3-.6.5-.8.8-.4.7-.5 1.1-.1.8-.1 1.3c-.1.4 0 .8.1 1.2z"/></g></svg>