<svg id="Layer_1" xmlns="http://www.w3.org/2000/svg" viewBox="0 0 300 250"><style>.st0{fill:#349946}.st1{fill:#231f20}</style><path class="st0" d="M52.2 232.1h-2.5l-.8-2.4H44l-.8 2.4h-2.5l4.3-11.4h1.8c.6 0 1 .2 1.2.6.2.4 2.1 5.5 2.1 5.5h-2.3l-1.4-3.9-1.8 4.9h5c.7 0 1 .2 1.2.8l1.4 3.5zM73.9 232.1h-2.5l-.8-2.4h-4.9l-.8 2.4h-2.5l4.3-11.4h1.8c.6 0 1 .2 1.2.6.2.4 2.1 5.5 2.1 5.5h-2.3l-1.4-3.9-1.8 4.9h4.9c.7 0 1 .2 1.2.8l1.5 3.5zM53 220.7h4.5c3.5 0 5.2 1.9 5.2 5.7 0 2.1-.7 3.7-1.9 4.7-1.1.9-2.4 1-4 1H53v-11.4zm4.2 9.4c2.2 0 3.1-1.1 3.1-3.6s-.9-3.7-2.8-3.7h-2.2v7.4h1.9z"/><path class="st1" d="M93.3 232h-1.8l-.7-8.2L88 232h-1.5l-2.9-8.2-.7 8.2h-1.7l1.1-10.8h2l3 8.3 2.8-8.3h2l1.2 10.8zM102.1 228v.7h-5.4c0 .6.2 1 .5 1.5.4.5 1 .7 1.8.7.6 0 1.4-.2 2.2-.6l.6 1.2c-.8.6-1.8.9-2.9.9-1.2 0-2.2-.4-2.9-1.2-.7-.7-1-1.7-1-2.9s.3-2.3 1-3c.7-.8 1.6-1.2 2.7-1.2s1.9.4 2.5 1.1c.6.5.9 1.5.9 2.8zm-1.7-.7c0-.5-.1-.9-.3-1.3-.3-.5-.8-.8-1.4-.8-.6 0-1 .2-1.4.6s-.6.9-.7 1.5h3.8zM115.1 232h-1.8v-4.5c0-.9-.1-1.5-.3-1.8-.2-.3-.5-.4-1-.4-.6 0-1.1.2-1.8.6.1.2.1.8.1 1.8v4.2h-1.8v-4.4c0-1-.1-1.7-.4-1.9-.2-.2-.5-.3-.9-.3-.6 0-1.2.2-1.7.6v6.1h-1.8v-7.9h1.6v.6c.7-.5 1.5-.8 2.3-.8.8 0 1.5.3 1.9.9.9-.6 1.8-.9 2.6-.9s1.5.2 2 .7c.4.4.6.9.7 1.5.1.4.1 1 .1 2v3.9zM124.3 227.9c0 1.3-.4 2.3-1.1 3.1-.8.8-1.8 1.2-3 1.2-.9 0-1.9-.2-3.1-.6v-11.3h1.8v4.2c.6-.4 1.3-.6 2-.6 1 0 1.8.4 2.5 1.1.6.7.9 1.7.9 2.9zm-1.8 0c0-.8-.2-1.4-.6-1.9-.4-.4-.8-.6-1.4-.6-.6 0-1.1.2-1.7.6v4.6c.5.1.9.2 1.3.2.7 0 1.3-.3 1.7-.8s.7-1.2.7-2.1zM132.8 228v.7h-5.4c0 .6.2 1 .5 1.5.4.5 1 .7 1.8.7.6 0 1.4-.2 2.2-.6l.6 1.2c-.8.6-1.8.9-2.9.9-1.2 0-2.2-.4-2.9-1.2-.7-.7-1-1.7-1-2.9s.3-2.3 1-3c.7-.8 1.6-1.2 2.7-1.2s1.9.4 2.5 1.1c.6.5.9 1.5.9 2.8zm-1.7-.7c0-.5-.1-.9-.3-1.3-.3-.5-.8-.8-1.4-.8-.6 0-1 .2-1.4.6s-.6.9-.7 1.5h3.8zM139.5 224.1l-.4 1.4h-.5c-1 0-1.7.4-2.3 1.2v5.4h-1.8v-7.9h1.6v1c.1-.2.4-.4.7-.6.6-.4 1.2-.6 1.9-.6.2-.1.5-.1.8.1z"/><g><path class="st1" d="M146 229.8c0 .8-.3 1.4-.8 1.8s-1.3.7-2.2.7c-.7 0-1.4-.1-2-.4-.4-.2-.7-.3-.8-.5l.6-1.2c.8.4 1.5.6 2.1.6.4 0 .8-.1 1-.3.2-.2.4-.4.4-.7 0-.3-.2-.5-.5-.7-.1-.1-.6-.3-1.2-.6s-1.1-.5-1.4-.8c-.5-.4-.7-.9-.7-1.6 0-.7.3-1.3.8-1.7s1.2-.6 2.1-.6c1.1 0 2 .2 2.6.7l-.6 1.1c-.6-.4-1.2-.5-1.8-.5-.8 0-1.3.3-1.3.9 0 .3.1.5.4.7.2.1.5.3 1 .5.8.3 1.3.6 1.6.8.4.5.7 1.1.7 1.8zM153.8 232h-1.9v-10.8h1.9V232zM162.8 232H161v-4.3c0-1-.1-1.7-.4-1.9-.2-.2-.6-.4-1-.4-.6 0-1.1.2-1.8.6v6H156v-7.9h1.6v.6c.7-.5 1.5-.8 2.4-.8.8 0 1.5.2 2 .7.4.4.6.8.7 1.4.1.3.1.9.1 1.6v4.4zM170.1 229.8c0 .8-.3 1.4-.8 1.8s-1.3.7-2.2.7c-.7 0-1.4-.1-2-.4-.4-.2-.7-.3-.8-.5l.6-1.2c.8.4 1.5.6 2.1.6.4 0 .8-.1 1-.3.2-.2.4-.4.4-.7 0-.3-.2-.5-.5-.7-.1-.1-.6-.3-1.2-.6s-1.1-.5-1.4-.8c-.5-.4-.7-.9-.7-1.6 0-.7.3-1.3.8-1.7.5-.4 1.2-.6 2.1-.6 1.1 0 2 .2 2.6.7l-.6 1.1c-.6-.4-1.2-.5-1.8-.5-.8 0-1.3.3-1.3.9 0 .3.1.5.4.7.2.1.5.3 1 .5.8.3 1.3.6 1.6.8.4.5.7 1.1.7 1.8zM178.5 232h-1.6v-.6c-.7.5-1.5.8-2.4.8-.8 0-1.5-.2-2-.7-.4-.4-.6-.8-.7-1.4-.1-.3-.1-.9-.1-1.6v-4.4h1.8v5.4c.1.4.2.8.4.9s.5.3.9.3c.5 0 1-.2 1.7-.6v-6h1.8v7.9zM185.6 224.1l-.4 1.4h-.5c-1 0-1.7.4-2.3 1.2v5.4h-1.8v-7.9h1.6v1c.1-.2.4-.4.7-.6.6-.4 1.2-.6 1.9-.6.2-.1.5-.1.8.1z"/></g><g><path class="st1" d="M192.6 232H191v-.6c-.8.5-1.6.7-2.3.7-.8 0-1.4-.2-1.8-.7s-.7-1.1-.7-1.8c0-1.8 1.5-2.8 4.5-2.8h.3v-.3c0-.5-.1-.8-.3-1-.2-.2-.7-.4-1.3-.4-.7 0-1.4.2-2.1.6l-.6-1.2c.2-.2.5-.3.8-.5.6-.3 1.3-.4 2.1-.4 1.1 0 1.9.3 2.5.8.3.3.5.6.5 1.1.1.3.1.7.1 1.4v5.1zm-1.7-1.7v-2.1h-.4c-1.2 0-2.1.2-2.5.6-.2.2-.3.5-.3.8 0 .4.1.7.4.9.3.2.6.3 1 .3.5 0 1.1-.2 1.8-.5zM201.2 232h-1.8v-4.3c0-1-.1-1.7-.4-1.9-.2-.2-.6-.4-1-.4-.6 0-1.1.2-1.8.6v6h-1.8v-7.9h1.6v.6c.7-.5 1.5-.8 2.4-.8.8 0 1.5.2 2 .7.4.4.6.8.7 1.4.1.3.1.9.1 1.6v4.4zM209.7 231.3c-.1.1-.4.3-.8.5-.7.3-1.4.4-2.1.4-1.2 0-2.1-.4-2.9-1.1-.7-.8-1.1-1.7-1.1-2.9s.4-2.3 1.2-3.1c.8-.8 1.8-1.2 3-1.2.7 0 1.3.1 1.9.4.4.2.6.4.8.5l-.7 1.1c-.6-.4-1.1-.6-1.8-.6s-1.3.3-1.8.8c-.4.5-.6 1.1-.6 1.8 0 .8.2 1.4.6 1.9.4.5 1 .7 1.7.7.6 0 1.3-.2 2-.6l.6 1.4z"/></g><g><path class="st1" d="M217.6 228v.7h-5.4c0 .6.2 1 .5 1.5.4.5 1 .7 1.8.7.6 0 1.4-.2 2.2-.6l.6 1.2c-.8.6-1.8.9-2.9.9-1.2 0-2.2-.4-2.9-1.2-.7-.7-1-1.7-1-2.9s.3-2.3 1-3c.7-.8 1.6-1.2 2.7-1.2s1.9.4 2.5 1.1c.6.5.9 1.5.9 2.8zm-1.7-.7c0-.5-.1-.9-.3-1.3-.3-.5-.8-.8-1.4-.8-.6 0-1 .2-1.4.6s-.6.9-.7 1.5h3.8zM230.7 224.4c0 1-.3 1.8-.9 2.4-.5.5-1 .8-1.7.9-.4.1-1.1.1-2 .1h-.8v4.1h-1.8v-10.8h2.9c.9 0 1.5 0 2 .1.6.1 1.1.4 1.5.8.5.7.8 1.5.8 2.4zm-1.9.1c0-.6-.2-1-.5-1.4-.3-.3-1-.4-2-.4h-1v3.7h.8c1.2 0 1.9-.2 2.3-.5s.4-.8.4-1.4zM234.3 232h-1.8v-11.7h1.8V232zM242.5 232h-1.6v-.6c-.8.5-1.6.7-2.3.7-.8 0-1.4-.2-1.8-.7s-.7-1.1-.7-1.8c0-1.8 1.5-2.8 4.5-2.8h.3v-.3c0-.5-.1-.8-.3-1-.2-.2-.7-.4-1.3-.4-.7 0-1.4.2-2.1.6l-.6-1.2c.2-.2.5-.3.8-.5.6-.3 1.3-.4 2.1-.4 1.1 0 1.9.3 2.5.8.3.3.5.6.5 1.1.1.3.1.7.1 1.4v5.1zm-1.7-1.7v-2.1h-.4c-1.2 0-2.1.2-2.5.6-.2.2-.3.5-.3.8 0 .4.1.7.4.9.3.2.6.3 1 .3.5 0 1.1-.2 1.8-.5zM251.1 232h-1.8v-4.3c0-1-.1-1.7-.4-1.9-.2-.2-.6-.4-1-.4-.6 0-1.1.2-1.8.6v6h-1.8v-7.9h1.6v.6c.7-.5 1.5-.8 2.4-.8.8 0 1.5.2 2 .7.4.4.6.8.7 1.4.1.3.1.9.1 1.6v4.4zM258.4 229.8c0 .8-.3 1.4-.8 1.8s-1.3.7-2.2.7c-.7 0-1.4-.1-2-.4-.4-.2-.7-.3-.8-.5l.6-1.2c.8.4 1.5.6 2.1.6.4 0 .8-.1 1-.3.2-.2.4-.4.4-.7 0-.3-.2-.5-.5-.7-.1-.1-.6-.3-1.2-.6s-1.1-.5-1.4-.8c-.5-.4-.7-.9-.7-1.6 0-.7.3-1.3.8-1.7.5-.4 1.2-.6 2.1-.6 1.1 0 2 .2 2.6.7l-.6 1.1c-.6-.4-1.2-.5-1.8-.5-.8 0-1.3.3-1.3.9 0 .3.1.5.4.7.2.1.5.3 1 .5.8.3 1.3.6 1.6.8.5.5.7 1.1.7 1.8z"/></g><path class="st0" d="M75.5 232.2c-.8 0-1.4-.6-1.4-1.4 0-.8.6-1.4 1.4-1.4.8 0 1.4.6 1.4 1.4 0 .8-.7 1.4-1.4 1.4m0-2.4c-.6 0-1 .4-1 1s.5 1 1 1c.6 0 1-.4 1-1s-.4-1-1-1m.3 1.7l-.2-.4c-.1-.2-.1-.2-.3-.2v.6H75v-1.4h.4c.2 0 .3 0 .5.1.1.1.1.2.1.3 0 .1-.1.3-.2.3.1 0 .1.1.1.2l.2.5h-.3zm-.2-1.1H75.3v.3h.3c.1 0 .2-.1.2-.2-.1-.1-.1-.1-.2-.1"/></svg>