<svg id="Layer_1" xmlns="http://www.w3.org/2000/svg" xmlns:xlink="http://www.w3.org/1999/xlink" viewBox="0 0 300 250"><style>.st0,.st1{clip-path:url(#SVGID_00000045603011605926542130000010740216037387575215_);fill:#231f20}.st1{fill:#22b0e6}</style><defs><path id="SVGID_1_" d="M200.5 168.8h84.2v28.9h-84.2z"/></defs><clipPath id="SVGID_00000079448932098124790680000010867890987645411230_"><use xlink:href="#SVGID_1_" overflow="visible"/></clipPath><path d="M201 184.3h4.5c3.6 0 4.3 2.3 4.3 3.9s-.7 3.9-4.3 3.9h-2.3v4.9H201v-12.7zm2.2 6h2.2c1 0 2.2-.5 2.2-2.1 0-1.7-1-2.1-2.2-2.1h-2.2v4.2zM211.1 187.8h1.9v1.8c.2-1 1.4-2 2.7-2 .5 0 .6 0 .8.1v2c-.3 0-.6-.1-.9-.1-1.4 0-2.5 1.1-2.5 3.1v4.4h-2v-9.3zM216.7 192.3c0-2.8 1.7-4.8 4.6-4.8 2.9 0 4.6 2 4.6 4.8s-1.7 4.8-4.6 4.8c-2.9.1-4.6-2-4.6-4.8m7.2 0c0-1.6-.8-3.2-2.6-3.2s-2.6 1.6-2.6 3.2.8 3.2 2.6 3.2 2.6-1.6 2.6-3.2M226.2 187.8h1.6V185h1.9v2.7h1.8v1.5h-1.8v4.9c0 .8.1 1.3 1 1.3.3 0 .6 0 .8-.1v1.6c-.4 0-.9.1-1.3.1-2.1 0-2.5-.8-2.5-2.3v-5.4h-1.5v-1.5zM234.4 192.9c0 1.4.8 2.7 2.4 2.7 1.2 0 1.9-.5 2.2-1.5h1.9c-.4 2-2.1 3.1-4.1 3.1-2.8 0-4.4-2-4.4-4.8 0-2.6 1.7-4.8 4.4-4.8 2.9 0 4.6 2.6 4.3 5.4h-6.7zm4.7-1.4c-.1-1.3-.9-2.4-2.3-2.4s-2.3 1.1-2.4 2.4h4.7zM248.6 190.8c-.2-1.1-1-1.7-2.1-1.7-1 0-2.5.5-2.5 3.3 0 1.5.7 3.1 2.4 3.1 1.2 0 2-.8 2.2-2.1h2c-.4 2.4-1.8 3.7-4.2 3.7-2.8 0-4.4-2-4.4-4.7 0-2.8 1.5-4.9 4.5-4.9 2.1 0 3.9 1.1 4.1 3.3h-2zM251.2 187.8h1.5V185h2v2.7h1.8v1.5h-1.8v4.9c0 .8.1 1.3 1 1.3.3 0 .6 0 .8-.1v1.6c-.4 0-.9.1-1.3.1-2.1 0-2.5-.8-2.5-2.3v-5.4h-1.5v-1.5zM258.8 184.3h2v1.9h-2v-1.9zm0 3.5h2v9.2h-2v-9.2zM262.3 187.8h2.2l2.8 7 2.7-7h2.1l-3.8 9.1h-2.2zM274.6 192.9c0 1.4.8 2.7 2.4 2.7 1.2 0 1.9-.5 2.2-1.5h1.9c-.4 2-2.1 3.1-4.1 3.1-2.8 0-4.4-2-4.4-4.8 0-2.6 1.7-4.8 4.4-4.8 2.9 0 4.6 2.6 4.3 5.4h-6.7zm4.7-1.4c-.1-1.3-.9-2.4-2.3-2.4s-2.3 1.1-2.4 2.4h4.7z" clip-path="url(#SVGID_00000079448932098124790680000010867890987645411230_)" fill="#231f20"/><path d="M255 182.2c-1.3-5-5.3-9-10.3-10.3-.5-1.6-1.9-2.7-3.6-2.7-1.7 0-3.1 1.1-3.6 2.7-5 1.3-8.9 5.2-10.3 10.3l-.1.6h3.1l.1-.3c1.2-3.7 4-6.5 7.6-7.5.6 1.1 1.8 1.9 3.2 1.9s2.6-.7 3.2-1.9c3.6 1.1 6.5 3.9 7.6 7.5l.1.3h3.1l-.1-.6z" clip-path="url(#SVGID_00000079448932098124790680000010867890987645411230_)" fill="#22b0e6"/><path d="M283.4 195.4c.5 0 .9.4.9.9s-.4.9-.9.9-.9-.4-.9-.9.4-.9.9-.9m.7.9c0-.4-.3-.8-.7-.8-.4 0-.7.3-.7.8 0 .4.3.8.7.8.4-.1.7-.4.7-.8m-1.1-.6h.4c.2 0 .4.1.4.3 0 .2-.1.3-.3.3l.3.5h-.2l-.3-.4h-.2v.4h-.1v-1.1zm.4.5c.1 0 .3 0 .3-.2 0-.1-.1-.2-.2-.2h-.2v.3h.1z" clip-path="url(#SVGID_00000079448932098124790680000010867890987645411230_)" fill="#231f20"/></svg>