<svg xmlns="http://www.w3.org/2000/svg" viewBox="0 0 160 600"><path d="M10.3 200.7c.2.4.5.7.8.9.3.2.7.4 1.2.5.4.1.9.2 1.4.2.3 0 .7 0 1-.1.4-.1.7-.2 1-.3.3-.2.6-.4.8-.6.2-.3.3-.6.3-1s-.1-.8-.4-1.1c-.3-.3-.7-.5-1.1-.7s-1-.3-1.6-.5c-.6-.1-1.2-.3-1.8-.5-.6-.2-1.2-.3-1.8-.6-.6-.2-1.1-.5-1.6-.9s-.8-.8-1.1-1.3c-.3-.5-.4-1.2-.4-1.9 0-.8.2-1.6.5-2.2.4-.6.8-1.1 1.4-1.6.6-.4 1.2-.7 2-.9.7-.2 1.5-.3 2.2-.3.9 0 1.7.1 2.5.3s1.5.5 2.1.9c.6.4 1.1 1 1.5 1.6.4.7.5 1.5.5 2.4h-3.5c0-.5-.1-.9-.3-1.2-.2-.3-.4-.6-.7-.8-.3-.2-.6-.3-1-.4-.4-.1-.8-.1-1.2-.1-.3 0-.6 0-.9.1-.3.1-.6.2-.8.3-.2.2-.4.3-.6.6-.2.2-.2.5-.2.9 0 .3.1.6.2.8.1.2.4.4.7.6.4.2.9.3 1.5.5s1.5.4 2.5.6c.3.1.7.2 1.3.3.5.2 1.1.4 1.6.8s1 .8 1.4 1.4c.4.6.6 1.3.6 2.3 0 .8-.1 1.4-.4 2.1-.3.6-.7 1.2-1.3 1.7-.6.5-1.3.8-2.1 1.1-.9.3-1.8.4-3 .4-.9 0-1.8-.1-2.6-.3s-1.6-.6-2.3-1c-.7-.5-1.2-1.1-1.6-1.8-.4-.7-.6-1.6-.6-2.6H10c0 .5.1 1 .3 1.4zM29.9 204.7V203h-.1c-.4.7-1 1.2-1.6 1.5s-1.3.5-2 .5c-.9 0-1.6-.1-2.2-.3-.6-.2-1-.6-1.3-1-.3-.4-.5-.9-.7-1.5-.1-.6-.2-1.3-.2-2v-7.3h3.3v6.7c0 1 .2 1.7.5 2.2s.9.7 1.6.7c.9 0 1.5-.3 1.9-.8.4-.5.6-1.4.6-2.6v-6.2H33v11.9h-3.1zM38.4 192.8v1.5c.4-.6.9-1.1 1.5-1.4.6-.3 1.3-.4 2-.4.9 0 1.7.2 2.4.5.7.4 1.2.8 1.7 1.4.4.6.8 1.3 1 2 .2.8.3 1.6.3 2.4 0 .8-.1 1.6-.3 2.3-.2.7-.5 1.4-1 2-.4.6-1 1-1.6 1.4-.7.3-1.4.5-2.3.5-.7 0-1.4-.1-2-.4-.6-.3-1.1-.7-1.5-1.3v5.6h-3.3v-16.1h3.1zm4.3 9.4c.4-.2.7-.5.9-.8.2-.3.4-.7.5-1.2s.1-.9.1-1.4c0-.5-.1-.9-.1-1.4s-.3-.9-.5-1.2-.5-.7-.9-.9-.8-.3-1.3-.3-1 .1-1.3.3-.7.5-.9.9c-.2.4-.4.8-.5 1.2-.1.5-.1.9-.1 1.4 0 .5 0 .9.1 1.4.1.5.3.9.5 1.2.2.3.5.6.9.8.4.2.8.3 1.3.3.5.1.9 0 1.3-.3zM52.3 192.8v1.5c.4-.6.9-1.1 1.5-1.4.6-.3 1.3-.4 2-.4.9 0 1.7.2 2.4.5.7.4 1.2.8 1.7 1.4.4.6.8 1.3 1 2 .2.8.3 1.6.3 2.4 0 .8-.1 1.6-.3 2.3-.2.7-.5 1.4-1 2-.4.6-1 1-1.6 1.4-.7.3-1.4.5-2.3.5-.7 0-1.4-.1-2-.4-.6-.3-1.1-.7-1.5-1.3v5.6h-3.3v-16.1h3.1zm4.2 9.4c.4-.2.7-.5.9-.8.2-.3.4-.7.5-1.2s.1-.9.1-1.4c0-.5-.1-.9-.1-1.4s-.3-.9-.5-1.2-.5-.7-.9-.9-.8-.3-1.3-.3-1 .1-1.3.3-.7.5-.9.9c-.2.4-.4.8-.5 1.2-.1.5-.1.9-.1 1.4 0 .5 0 .9.1 1.4.1.5.3.9.5 1.2.2.3.5.6.9.8.4.2.8.3 1.3.3.5.1 1 0 1.3-.3zM66.3 188.3v16.4H63v-16.4h3.3zM72.2 201.8c.5.5 1.2.7 2.1.7.7 0 1.2-.2 1.7-.5s.8-.7.9-1h2.9c-.5 1.4-1.2 2.4-2.1 3.1-1 .6-2.1.9-3.5.9-.9 0-1.8-.1-2.5-.4-.8-.3-1.4-.7-1.9-1.3-.5-.6-.9-1.2-1.2-2-.3-.8-.4-1.6-.4-2.5 0-.9.1-1.7.4-2.5.3-.8.7-1.4 1.2-2 .5-.6 1.2-1 1.9-1.3.7-.3 1.6-.5 2.5-.5 1 0 1.9.2 2.6.6s1.4.9 1.9 1.6c.5.7.8 1.4 1 2.3.2.8.3 1.7.2 2.6h-8.6c.1 1 .4 1.8.9 2.2zm3.7-6.2c-.4-.4-1-.6-1.8-.6-.5 0-1 .1-1.3.3s-.6.4-.8.7-.4.5-.4.8c-.1.3-.1.6-.1.8h5.3c-.3-.9-.5-1.6-.9-2zM84.9 192.8v1.6c.4-.6.9-1.1 1.6-1.4.6-.3 1.3-.5 2.1-.5s1.4.1 2.1.4c.6.3 1.1.8 1.4 1.5.4-.5.8-1 1.4-1.4.6-.4 1.3-.6 2.2-.6.6 0 1.2.1 1.7.2.5.2 1 .4 1.4.7.4.3.7.8.9 1.3s.3 1.2.3 2v8h-3.3V198v-1.1c0-.4-.1-.7-.3-.9-.1-.3-.3-.5-.6-.6-.3-.2-.6-.2-1.1-.2s-.8.1-1.1.3c-.3.2-.5.4-.7.7-.2.3-.3.6-.3 1-.1.4-.1.7-.1 1.1v6.6h-3.3V198v-1c0-.3-.1-.7-.2-1-.1-.3-.3-.5-.6-.7s-.7-.3-1.2-.3c-.2 0-.4 0-.6.1-.3.1-.5.2-.7.4-.2.2-.4.5-.6.8-.2.4-.3.8-.3 1.4v6.9h-3.3v-11.9h3.2zM105.8 201.8c.5.5 1.2.7 2.1.7.7 0 1.2-.2 1.7-.5s.8-.7.9-1h2.9c-.5 1.4-1.2 2.4-2.1 3.1-1 .6-2.1.9-3.5.9-.9 0-1.8-.1-2.5-.4-.8-.3-1.4-.7-1.9-1.3-.5-.6-.9-1.2-1.2-2-.3-.8-.4-1.6-.4-2.5 0-.9.1-1.7.4-2.5.3-.8.7-1.4 1.2-2 .5-.6 1.2-1 1.9-1.3.7-.3 1.6-.5 2.5-.5 1 0 1.9.2 2.6.6s1.4.9 1.9 1.6c.5.7.8 1.4 1 2.3.2.8.3 1.7.2 2.6H105c.1 1 .3 1.8.8 2.2zm3.7-6.2c-.4-.4-1-.6-1.8-.6-.5 0-1 .1-1.3.3s-.6.4-.8.7-.4.5-.4.8c-.1.3-.1.6-.1.8h5.3c-.2-.9-.5-1.6-.9-2zM118.4 192.8v1.7h.1c.4-.7 1-1.2 1.6-1.5.7-.3 1.3-.5 2-.5.9 0 1.6.1 2.2.4s1 .6 1.3 1c.3.4.5.9.7 1.5.1.6.2 1.3.2 2v7.3h-3.3V198c0-1-.2-1.7-.5-2.2s-.9-.7-1.6-.7c-.9 0-1.5.3-1.9.8-.4.5-.6 1.4-.6 2.6v6.2h-3.3v-11.9h3.1zM135.3 192.8v2.2h-2.4v5.9c0 .6.1.9.3 1.1.2.2.6.3 1.1.3h.5c.2 0 .3 0 .5-.1v2.5c-.3 0-.6.1-.9.1h-1c-.5 0-1 0-1.4-.1-.5-.1-.9-.2-1.2-.4-.3-.2-.6-.5-.8-.9-.2-.4-.3-.9-.3-1.4v-7h-2v-2.2h2v-3.6h3.3v3.6h2.3zM136.5 196.5c0-.8.2-1.4.6-1.9s.8-.9 1.3-1.2 1.1-.5 1.8-.7c.7-.1 1.3-.2 2-.2.6 0 1.2 0 1.8.1.6.1 1.2.2 1.7.5.5.2.9.6 1.2 1 .3.4.5 1 .5 1.7v6.2c0 .5 0 1.1.1 1.5s.2.9.3 1.1h-3.3c-.1-.2-.1-.4-.1-.6 0-.2-.1-.4-.1-.6-.5.5-1.1.9-1.8 1.1-.7.2-1.4.3-2.2.3-.6 0-1.1-.1-1.6-.2s-.9-.4-1.3-.6c-.4-.3-.7-.7-.9-1.1s-.3-1-.3-1.6c0-.7.1-1.2.4-1.7.2-.4.5-.8.9-1 .4-.3.8-.5 1.3-.6l1.5-.3c.5-.1 1-.1 1.4-.2s.9-.1 1.3-.2.7-.2.9-.4.3-.4.3-.8-.1-.6-.2-.8-.3-.4-.5-.5c-.2-.1-.4-.2-.7-.2-.3 0-.5-.1-.8-.1-.6 0-1.2.1-1.5.4-.4.3-.6.7-.6 1.4h-3.4zm7.5 2.4c-.1.1-.3.2-.5.3-.2.1-.4.1-.7.2-.2 0-.5.1-.7.1-.3 0-.5.1-.8.1-.2 0-.5.1-.7.2l-.6.3c-.2.1-.3.3-.4.5-.1.2-.2.5-.2.8 0 .3.1.5.2.7.1.2.3.4.4.5.2.1.4.2.6.2s.5.1.8.1c.6 0 1.1-.1 1.5-.3.4-.2.6-.5.8-.8.2-.3.3-.6.3-.9 0-.3.1-.6.1-.7v-1.3zM153 188.3v16.4h-3.3v-16.4h3.3z"/><g><path d="M44.2 215.3l3.8 11.3 3.6-11.3h5.1v16.4h-3.4v-11.6l-4 11.6h-2.8l-4-11.5v11.5h-3.4v-16.4h5.1zM62.9 228.9c.5.5 1.2.7 2.1.7.7 0 1.2-.2 1.7-.5s.8-.7.9-1h2.9c-.5 1.4-1.2 2.4-2.1 3.1-1 .6-2.1.9-3.4.9-.9 0-1.8-.1-2.5-.4-.8-.3-1.4-.7-1.9-1.3-.5-.6-.9-1.2-1.2-2s-.4-1.6-.4-2.5c0-.9.1-1.7.4-2.5.3-.8.7-1.4 1.2-2 .5-.6 1.2-1 1.9-1.3.7-.3 1.6-.5 2.5-.5 1 0 1.9.2 2.6.6.8.4 1.4.9 1.9 1.6s.8 1.4 1 2.3c.2.8.3 1.7.2 2.6h-8.6c0 .9.3 1.7.8 2.2zm3.7-6.3c-.4-.4-1-.6-1.8-.6-.5 0-1 .1-1.3.3-.3.2-.6.4-.8.7s-.4.5-.4.8c-.1.3-.1.6-.1.8h5.3c-.2-.9-.5-1.6-.9-2zM80.8 230.2c-.4.6-.9 1.1-1.5 1.4s-1.3.4-2.1.4c-.9 0-1.7-.2-2.3-.5-.7-.3-1.2-.8-1.7-1.4-.4-.6-.8-1.3-1-2-.2-.8-.3-1.6-.3-2.4 0-.8.1-1.6.3-2.3s.6-1.4 1-2c.4-.6 1-1 1.6-1.4.7-.3 1.4-.5 2.3-.5.7 0 1.4.1 2 .4.6.3 1.1.7 1.5 1.3v-6H84v16.4h-3.1l-.1-1.4zm-.1-5.9c-.1-.5-.2-.9-.5-1.2-.2-.3-.5-.6-.9-.8-.4-.2-.8-.3-1.3-.3s-1 .1-1.4.3c-.4.2-.7.5-.9.9-.2.4-.4.8-.5 1.2-.1.5-.1.9-.1 1.4 0 .5.1.9.2 1.4s.3.9.5 1.2c.2.4.5.7.9.9.4.2.8.3 1.3.3s1-.1 1.3-.3.6-.5.9-.9c.2-.4.4-.8.5-1.2s.1-.9.1-1.4 0-1-.1-1.5zM86.3 218v-2.7h3.3v2.7h-3.3zm3.3 1.8v11.9h-3.3v-11.9h3.3zM97.6 222c-.5 0-1 .1-1.3.4-.4.2-.6.5-.9.9-.2.4-.4.8-.5 1.2-.1.5-.1.9-.1 1.3s0 .9.1 1.3.2.8.4 1.2c.2.4.5.7.8.9.4.2.8.3 1.3.3.8 0 1.4-.2 1.8-.7s.7-1 .8-1.8h3.2c-.2 1.6-.8 2.8-1.8 3.6-1 .8-2.3 1.2-3.9 1.2-.9 0-1.7-.1-2.4-.4-.7-.3-1.4-.7-1.9-1.3-.5-.5-.9-1.2-1.2-1.9-.3-.7-.4-1.6-.4-2.4 0-.9.1-1.8.4-2.6.3-.8.7-1.5 1.2-2 .5-.6 1.2-1 1.9-1.3.8-.3 1.6-.5 2.6-.5.7 0 1.4.1 2 .3s1.2.5 1.7.8c.5.4.9.8 1.3 1.4.3.6.5 1.2.6 2H100c-.2-1.3-1-1.9-2.4-1.9zM104.8 223.5c0-.8.2-1.4.6-1.9s.8-.9 1.3-1.2 1.1-.5 1.8-.7c.7-.1 1.3-.2 2-.2.6 0 1.2 0 1.8.1.6.1 1.2.2 1.7.5.5.2.9.6 1.2 1 .3.4.5 1 .5 1.7v6.2c0 .5 0 1.1.1 1.5s.2.9.3 1.1h-3.3c-.1-.2-.1-.4-.1-.6 0-.2-.1-.4-.1-.6-.5.5-1.1.9-1.8 1.1-.7.2-1.4.3-2.2.3-.6 0-1.1-.1-1.6-.2s-.9-.4-1.3-.6c-.4-.3-.7-.7-.9-1.1s-.3-1-.3-1.6c0-.7.1-1.2.4-1.7.2-.4.5-.8.9-1 .4-.3.8-.5 1.3-.6l1.5-.3c.5-.1 1-.1 1.4-.2s.9-.1 1.3-.2.7-.2.9-.4.3-.4.3-.8-.1-.6-.2-.8-.3-.4-.5-.5c-.2-.1-.4-.2-.7-.2-.3 0-.5-.1-.8-.1-.6 0-1.2.1-1.5.4-.4.3-.6.7-.6 1.4h-3.4zm7.6 2.4c-.1.1-.3.2-.5.3-.2.1-.4.1-.7.2-.2 0-.5.1-.7.1-.3 0-.5.1-.8.1-.2 0-.5.1-.7.2l-.6.3c-.2.1-.3.3-.4.5-.1.2-.2.5-.2.8 0 .3.1.5.2.7.1.2.3.4.4.5.2.1.4.2.6.2s.5.1.8.1c.6 0 1.1-.1 1.5-.3.4-.2.6-.5.8-.8.2-.3.3-.6.3-.9 0-.3.1-.6.1-.7v-1.3zM121.3 215.3v16.4H118v-16.4h3.3z"/></g><g><path d="M40.1 246.7c-.2-.3-.5-.6-.8-.9-.3-.3-.7-.5-1.1-.6-.4-.1-.8-.2-1.3-.2-.8 0-1.5.2-2.1.5-.6.3-1 .7-1.4 1.3-.4.5-.6 1.1-.8 1.8s-.2 1.4-.2 2.1c0 .7.1 1.4.2 2s.4 1.2.8 1.8c.4.5.8.9 1.4 1.3.6.3 1.3.5 2.1.5 1.1 0 2-.3 2.6-1 .6-.7 1-1.6 1.1-2.7h3.5c-.1 1-.3 2-.7 2.8-.4.8-.9 1.5-1.5 2.1-.6.6-1.4 1-2.2 1.3-.8.3-1.8.5-2.8.5-1.3 0-2.4-.2-3.4-.7-1-.4-1.9-1-2.5-1.8s-1.2-1.7-1.6-2.7c-.4-1-.6-2.2-.6-3.3 0-1.2.2-2.4.6-3.4.4-1 .9-2 1.6-2.7.7-.8 1.5-1.4 2.5-1.8 1-.4 2.1-.7 3.4-.7.9 0 1.8.1 2.6.4.8.3 1.5.6 2.2 1.1.6.5 1.2 1.1 1.6 1.9.4.7.7 1.6.8 2.5h-3.5c-.1-.7-.3-1.1-.5-1.4zM46.1 250.2c.3-.8.7-1.4 1.2-2 .5-.5 1.2-1 1.9-1.3.8-.3 1.6-.4 2.5-.4.9 0 1.8.1 2.5.4.8.3 1.4.7 1.9 1.3.5.5 1 1.2 1.2 2 .3.8.4 1.6.4 2.6s-.1 1.8-.4 2.6c-.3.8-.7 1.4-1.2 2-.5.5-1.2 1-1.9 1.3-.8.3-1.6.4-2.5.4-.9 0-1.8-.1-2.5-.4-.8-.3-1.4-.7-1.9-1.3-.5-.5-1-1.2-1.2-2-.3-.8-.4-1.6-.4-2.6s.1-1.8.4-2.6zm3 4c.1.5.2.9.5 1.2.2.4.5.6.9.9.4.2.8.3 1.4.3.6 0 1-.1 1.4-.3.4-.2.7-.5.9-.9.2-.4.4-.8.5-1.2.1-.5.1-.9.1-1.4 0-.5 0-.9-.1-1.4-.1-.5-.2-.9-.5-1.2-.2-.4-.5-.6-.9-.9-.4-.2-.8-.3-1.4-.3-.6 0-1 .1-1.4.3-.4.2-.7.5-.9.9-.2.4-.4.8-.5 1.2-.1.5-.1.9-.1 1.4 0 .4 0 .9.1 1.4zM62.9 258.7l-4.1-11.9h3.4l2.5 8.1 2.5-8.1h3.2l-4 11.9h-3.5zM75.2 255.9c.5.5 1.2.7 2.1.7.7 0 1.2-.2 1.7-.5s.8-.7.9-1h2.9c-.5 1.4-1.2 2.4-2.1 3.1-1 .6-2.1.9-3.5.9-.9 0-1.8-.1-2.5-.4-.8-.3-1.4-.7-1.9-1.3-.5-.6-.9-1.2-1.2-2-.3-.8-.4-1.6-.4-2.5 0-.9.1-1.7.4-2.5.3-.8.7-1.4 1.2-2 .5-.6 1.2-1 1.9-1.3.7-.3 1.6-.5 2.5-.5 1 0 1.9.2 2.6.6s1.4.9 1.9 1.6c.5.7.8 1.4 1 2.3.2.8.3 1.7.2 2.6h-8.6c.1.9.4 1.7.9 2.2zm3.7-6.3c-.4-.4-1-.6-1.8-.6-.5 0-1 .1-1.3.3s-.6.4-.8.7-.4.5-.4.8c-.1.3-.1.6-.1.8h5.3c-.3-.9-.6-1.6-.9-2zM87.8 246.8v2.2c.2-.4.4-.7.6-1 .3-.3.6-.6.9-.8.3-.2.7-.4 1.1-.5.4-.1.8-.2 1.2-.2.2 0 .5 0 .7.1v3c-.2 0-.3-.1-.6-.1h-.6c-.6 0-1.1.1-1.5.3s-.7.5-1 .8c-.3.3-.4.7-.5 1.2s-.2 1-.2 1.5v5.4h-3.3v-11.9h3.2zM93.3 250.5c0-.8.2-1.4.6-1.9s.8-.9 1.3-1.2 1.1-.5 1.8-.7c.7-.1 1.3-.2 2-.2.6 0 1.2 0 1.8.1.6.1 1.2.2 1.7.5.5.2.9.6 1.2 1 .3.4.5 1 .5 1.7v6.2c0 .5 0 1.1.1 1.5s.2.9.3 1.1h-3.3c-.1-.2-.1-.4-.1-.6 0-.2-.1-.4-.1-.6-.5.5-1.1.9-1.8 1.1-.7.2-1.4.3-2.2.3-.6 0-1.1-.1-1.6-.2s-.9-.4-1.3-.6c-.4-.3-.7-.7-.9-1.1s-.3-1-.3-1.6c0-.7.1-1.2.4-1.7.2-.4.5-.8.9-1 .4-.3.8-.5 1.3-.6l1.5-.3c.5-.1 1-.1 1.4-.2s.9-.1 1.3-.2.7-.2.9-.4.3-.4.3-.8-.1-.6-.2-.8-.3-.4-.5-.5c-.2-.1-.4-.2-.7-.2-.3 0-.5-.1-.8-.1-.6 0-1.2.1-1.5.4-.4.3-.6.7-.6 1.4h-3.4zm7.5 2.4c-.1.1-.3.2-.5.3-.2.1-.4.1-.7.2-.2 0-.5.1-.7.1-.3 0-.5.1-.8.1-.2 0-.5.1-.7.2l-.6.3c-.2.1-.3.3-.4.5-.1.2-.2.5-.2.8 0 .3.1.5.2.7.1.2.3.4.4.5.2.1.4.2.6.2s.5.1.8.1c.6 0 1.1-.1 1.5-.3.4-.2.6-.5.8-.8.2-.3.3-.6.3-.9 0-.3.1-.6.1-.7v-1.3zM117.6 259.6c-.1.6-.4 1.2-.8 1.7s-1 1-1.9 1.3c-.8.4-1.9.6-3.3.6-.6 0-1.2-.1-1.8-.2-.6-.1-1.2-.4-1.7-.7s-.9-.7-1.2-1.2c-.3-.5-.5-1.1-.6-1.7h3.2c.2.6.5 1 .9 1.3.4.2 1 .4 1.5.4.9 0 1.6-.3 2-.8.4-.6.6-1.2.6-2.1v-1.6c-.4.6-.9 1.1-1.5 1.4-.7.3-1.3.4-2.1.4-.9 0-1.7-.2-2.3-.5-.6-.3-1.2-.7-1.6-1.3-.4-.5-.7-1.2-.9-1.9-.2-.7-.3-1.5-.3-2.3 0-.8.1-1.5.3-2.2.2-.7.5-1.3 1-1.9.4-.5 1-1 1.6-1.3.6-.3 1.4-.5 2.2-.5.8 0 1.5.1 2.1.4.6.3 1.1.8 1.5 1.5v-1.6h3.1v11.1c.2.5.2 1.1 0 1.7zm-4.4-4c.4-.2.6-.4.9-.7.2-.3.4-.7.5-1 .1-.4.2-.8.2-1.2 0-.5 0-1-.1-1.4-.1-.4-.2-.8-.5-1.2-.2-.3-.5-.6-.9-.8-.4-.2-.8-.3-1.3-.3s-.9.1-1.2.3c-.3.2-.6.4-.8.7-.2.3-.4.7-.5 1.1s-.1.8-.1 1.3c0 .4 0 .9.1 1.3s.2.8.4 1.1c.2.3.5.6.8.8.3.2.8.3 1.3.3.4 0 .8-.1 1.2-.3zM123.7 255.9c.5.5 1.2.7 2.1.7.7 0 1.2-.2 1.7-.5s.8-.7.9-1h2.9c-.5 1.4-1.2 2.4-2.1 3.1-1 .6-2.1.9-3.5.9-.9 0-1.8-.1-2.5-.4-.8-.3-1.4-.7-1.9-1.3-.5-.6-.9-1.2-1.2-2-.3-.8-.4-1.6-.4-2.5 0-.9.1-1.7.4-2.5.3-.8.7-1.4 1.2-2 .5-.6 1.2-1 1.9-1.3.7-.3 1.6-.5 2.5-.5 1 0 1.9.2 2.6.6s1.4.9 1.9 1.6c.5.7.8 1.4 1 2.3.2.8.3 1.7.2 2.6h-8.6c.2.9.4 1.7.9 2.2zm3.7-6.3c-.4-.4-1-.6-1.8-.6-.5 0-1 .1-1.3.3s-.6.4-.8.7-.4.5-.4.8c-.1.3-.1.6-.1.8h5.3c-.2-.9-.5-1.6-.9-2z"/></g></svg>