<svg id="Layer_1" xmlns="http://www.w3.org/2000/svg" viewBox="0 0 160 600"><style>.st0{fill:#349946}</style><path class="st0" d="M54.2 187.3v18.6h-4.1v-18.6h4.1zM56 194.9v-2.5h2.2v-1c0-1.2.4-2.2 1.1-2.9.7-.8 1.9-1.1 3.4-1.1h1c.3 0 .7 0 1 .1v2.8c-.4-.1-.9-.1-1.4-.1-.5 0-.9.1-1.1.4-.2.2-.3.6-.3 1.2v.8h2.5v2.5h-2.5v11h-3.7v-11H56zM80.6 192.4v2.5h-2.7v6.7c0 .6.1 1 .3 1.2.2.2.6.3 1.2.3h.6c.2 0 .4 0 .5-.1v2.9c-.3.1-.7.1-1 .1h-1.1c-.6 0-1.1 0-1.6-.1s-1-.2-1.4-.5c-.4-.2-.7-.5-.9-1-.2-.4-.3-1-.3-1.6v-7.9H72v-2.5h2.2v-4h3.7v4h2.7zM86.1 187.3v7h.1c.5-.8 1.1-1.3 1.8-1.7.7-.4 1.4-.5 2.1-.5 1 0 1.8.1 2.4.4.6.3 1.1.6 1.5 1.1.4.5.6 1.1.8 1.7.1.7.2 1.4.2 2.3v8.3h-3.7v-7.6c0-1.1-.2-1.9-.5-2.5-.3-.5-1-.8-1.8-.8-1 0-1.7.3-2.2.9-.5.6-.7 1.6-.7 3v7h-3.7v-18.6h3.7zM101.8 202.7c.6.5 1.4.8 2.4.8.7 0 1.4-.2 1.9-.6.5-.4.9-.8 1-1.2h3.2c-.5 1.6-1.3 2.8-2.4 3.5-1.1.7-2.4 1-3.9 1-1.1 0-2-.2-2.9-.5s-1.6-.8-2.2-1.4c-.6-.6-1-1.4-1.4-2.2-.3-.9-.5-1.8-.5-2.9 0-1 .2-1.9.5-2.8.3-.9.8-1.6 1.4-2.2.6-.6 1.3-1.1 2.2-1.5.8-.4 1.8-.5 2.8-.5 1.1 0 2.1.2 3 .7.8.4 1.5 1 2.1 1.8s.9 1.6 1.2 2.5c.2 1 .3 2 .3 3h-9.7c.1 1 .4 1.9 1 2.5zm4.1-7.1c-.4-.5-1.1-.7-2-.7-.6 0-1.1.1-1.5.3-.4.2-.7.4-.9.7-.2.3-.4.6-.5.9-.1.3-.2.6-.2.9h6c-.1-.9-.4-1.6-.9-2.1z"/><g><path d="M26.9 216.3c.8 0 1.6.1 2.2.4.7.3 1.2.6 1.7 1.1.5.5.8 1 1.1 1.6.3.6.4 1.3.4 2 0 1.1-.2 2-.7 2.8s-1.2 1.4-2.2 1.8v.1c.5.1.9.4 1.2.6.3.3.6.6.8 1s.4.8.5 1.3c.1.5.2.9.2 1.4 0 .3 0 .6.1 1 0 .4 0 .8.1 1.2 0 .4.1.8.2 1.2.1.4.2.7.4.9h-4.1c-.2-.6-.4-1.3-.4-2.1-.1-.8-.1-1.6-.2-2.3-.1-1-.4-1.7-.9-2.1-.5-.5-1.2-.7-2.2-.7H21v7.3h-4.1v-18.6h10zm-1.5 8.4c.9 0 1.6-.2 2.1-.6.5-.4.7-1.1.7-2 0-.9-.2-1.6-.7-2-.5-.4-1.2-.6-2.1-.6h-4.5v5.2h4.5zM49.5 216.3v3.4h-9.8v4h9v3.2h-9v4.5h10v3.4H35.6v-18.6h13.9zM51 219.7v-3.4h15.2v3.4h-5.6v15.1h-4.1v-15.1H51zM75.2 216.3l6.9 18.6H78l-1.4-4.1h-6.9l-1.5 4.1H64l7-18.6h4.2zm.3 11.4l-2.3-6.8h-.1l-2.4 6.8h4.8zM87.9 216.3v18.6h-4.1v-18.6h4.1zM95.5 216.3l7.7 12.5h.1v-12.5h3.8v18.6H103l-7.7-12.4h-.1v12.4h-3.8v-18.6h4.1zM124.6 216.3v3.4h-9.8v4h9v3.2h-9v4.5h10v3.4h-14.1v-18.6h13.9zM137.6 216.3c.8 0 1.6.1 2.2.4.7.3 1.2.6 1.7 1.1.5.5.8 1 1.1 1.6.3.6.4 1.3.4 2 0 1.1-.2 2-.7 2.8s-1.2 1.4-2.2 1.8v.1c.5.1.9.4 1.2.6.3.3.6.6.8 1 .2.4.4.8.5 1.3.1.5.2.9.2 1.4 0 .3 0 .6.1 1 0 .4 0 .8.1 1.2 0 .4.1.8.2 1.2.1.4.2.7.4.9h-4.1c-.2-.6-.4-1.3-.4-2.1-.1-.8-.1-1.6-.2-2.3-.1-1-.4-1.7-.9-2.1-.5-.5-1.2-.7-2.2-.7h-4.1v7.3h-4.1v-18.6h10zm-1.5 8.4c.9 0 1.6-.2 2.1-.6s.7-1.1.7-2c0-.9-.2-1.6-.7-2s-1.2-.6-2.1-.6h-4.5v5.2h4.5z"/></g><g><path d="M63.1 245.3v3.4h-9v4.3h7.8v3.2h-7.8v7.7H50v-18.6h13.1zM69.6 245.3v18.6h-4.1v-18.6h4.1zM71.7 248.7v-3.4h15.2v3.4h-5.6v15.1h-4.1v-15.1h-5.5zM92.2 259.3c.2.4.5.8.9 1.1.4.3.8.5 1.3.6.5.1 1 .2 1.6.2.4 0 .8 0 1.2-.1.4-.1.8-.2 1.2-.4.4-.2.7-.4.9-.7.2-.3.4-.7.4-1.2s-.2-.9-.5-1.2c-.3-.3-.7-.6-1.3-.8-.5-.2-1.1-.4-1.8-.5-.7-.2-1.3-.3-2-.5s-1.4-.4-2-.6c-.7-.3-1.2-.6-1.8-1-.5-.4-.9-.9-1.3-1.5-.3-.6-.5-1.3-.5-2.2 0-1 .2-1.8.6-2.5.4-.7.9-1.3 1.6-1.8.7-.5 1.4-.8 2.2-1 .8-.2 1.7-.3 2.5-.3 1 0 1.9.1 2.8.3.9.2 1.7.6 2.4 1.1.7.5 1.2 1.1 1.7 1.9s.6 1.7.6 2.7h-4c0-.6-.2-1-.4-1.4-.2-.4-.5-.7-.8-.9-.3-.2-.7-.4-1.1-.4-.4-.1-.9-.1-1.4-.1-.3 0-.7 0-1 .1-.3.1-.6.2-.9.4-.3.2-.5.4-.7.7-.2.3-.3.6-.3 1s.1.7.2.9c.1.2.4.4.8.6.4.2 1 .4 1.7.6.7.2 1.7.4 2.8.7.3.1.8.2 1.4.4s1.2.5 1.8.9c.6.4 1.1.9 1.6 1.6.4.7.7 1.5.7 2.6 0 .8-.2 1.6-.5 2.4s-.8 1.4-1.5 1.9-1.5.9-2.4 1.2-2.1.4-3.3.4c-1 0-2-.1-3-.4s-1.8-.6-2.5-1.2c-.7-.5-1.3-1.2-1.8-2.1-.4-.8-.6-1.8-.6-3h4c.1.5.2 1 .5 1.5zM109.8 259.9v4c0 .6-.1 1.1-.3 1.6s-.5.9-.9 1.3-.8.7-1.3.9c-.5.2-1 .4-1.6.5v-1.9c.3-.1.5-.2.7-.3.2-.2.4-.3.6-.6s.3-.5.4-.7.1-.5.1-.8h-1.9v-4h4.2z"/></g><g><path class="st0" d="M38.7 292.8l-3.1-12.6h-.1l-3.1 12.6h-4.1l-4.9-18.6h4.1l2.9 12.6h.1l3.2-12.6h3.8l3.2 12.8h.1l3-12.8h4l-5 18.6h-4.1zM63.5 274.3v3.4h-9.8v4h9v3.2h-9v4.5h10v3.4H49.6v-18.6h13.9zM75.7 274.3l6.9 18.6h-4.2l-1.4-4.1h-6.9l-1.5 4.1h-4.1l7-18.6h4.2zm.2 11.4l-2.3-6.8h-.1l-2.4 6.8h4.8zM94.3 274.3c.8 0 1.6.1 2.2.4.7.3 1.2.6 1.7 1.1.5.5.8 1 1.1 1.6.3.6.4 1.3.4 2 0 1.1-.2 2-.7 2.8s-1.2 1.4-2.2 1.8v.1c.5.1.9.4 1.2.6.3.3.6.6.8 1 .2.4.4.8.5 1.3.1.5.2.9.2 1.4 0 .3 0 .6.1 1 0 .4 0 .8.1 1.2 0 .4.1.8.2 1.2.1.4.2.7.4.9h-4.1c-.2-.6-.4-1.3-.4-2.1-.1-.8-.1-1.6-.2-2.3-.1-1-.4-1.7-.9-2.1-.5-.5-1.2-.7-2.2-.7h-4.1v7.3h-4.1v-18.6h10zm-1.5 8.4c.9 0 1.6-.2 2.1-.6s.7-1.1.7-2c0-.9-.2-1.6-.7-2s-1.2-.6-2.1-.6h-4.5v5.2h4.5zM114.3 274.3v18.6h-4.1v-18.6h4.1zM116.5 277.7v-3.4h15.2v3.4h-5.6v15.1H122v-15.1h-5.5zM134.8 288.8v4h-4.1v-4h4.1z"/></g></svg>