<svg id="Layer_1" xmlns="http://www.w3.org/2000/svg" viewBox="0 0 160 600"><style>.st0{fill:#349946}</style><path class="st0" d="M34.5 187.4c1.2 0 2.1.2 3 .5.8.3 1.5.8 2 1.3.5.6.9 1.2 1.1 1.9.2.7.4 1.4.4 2.2 0 .7-.1 1.5-.4 2.2-.2.7-.6 1.4-1.1 1.9-.5.6-1.2 1-2 1.3-.8.3-1.8.5-3 .5h-4.3v6.7h-4.1v-18.6h8.4zm-1.1 8.7c.5 0 .9 0 1.4-.1.4-.1.8-.2 1.1-.4.3-.2.6-.5.8-.8.2-.4.3-.8.3-1.4s-.1-1.1-.3-1.4c-.2-.4-.5-.6-.8-.8-.3-.2-.7-.3-1.1-.4-.4-.1-.9-.1-1.4-.1h-3.2v5.6h3.2zM46.6 192.5v2.5h.1c.2-.4.4-.8.7-1.2.3-.4.6-.7 1-.9.4-.3.8-.4 1.2-.6.4-.1.9-.2 1.4-.2.2 0 .5 0 .8.1v3.4c-.2 0-.4-.1-.6-.1h-.7c-.7 0-1.2.1-1.7.3-.5.2-.8.5-1.1.9-.3.4-.5.8-.6 1.4s-.2 1.1-.2 1.7v6.1h-3.7v-13.4h3.4zM53 196.6c.1-.9.3-1.6.6-2.2.4-.6.9-1 1.5-1.4.6-.3 1.3-.6 2-.7.7-.1 1.5-.2 2.2-.2.7 0 1.4 0 2.1.1.7.1 1.3.3 1.9.6.6.3 1 .7 1.4 1.2.4.5.5 1.1.5 2v7c0 .6 0 1.2.1 1.7.1.6.2 1 .4 1.2H62c-.1-.2-.1-.4-.2-.6 0-.2-.1-.4-.1-.7-.6.6-1.3 1-2.1 1.3-.8.2-1.6.4-2.4.4-.6 0-1.2-.1-1.8-.2s-1-.4-1.5-.7c-.4-.3-.7-.7-1-1.2-.2-.5-.4-1.1-.4-1.8 0-.8.1-1.4.4-1.9.3-.5.6-.9 1-1.2.4-.3.9-.5 1.5-.7.5-.1 1.1-.3 1.7-.4.6-.1 1.1-.2 1.6-.2.5-.1 1-.1 1.4-.2.4-.1.7-.3 1-.5.2-.2.4-.5.3-.9 0-.4-.1-.7-.2-.9-.1-.2-.3-.4-.5-.5-.2-.1-.5-.2-.8-.3-.3 0-.6-.1-.9-.1-.7 0-1.3.2-1.7.5s-.7.8-.7 1.6H53zm8.6 2.7l-.6.3c-.2.1-.5.1-.8.2-.3.1-.6.1-.8.1-.3 0-.6.1-.9.1-.3.1-.6.1-.8.2-.3.1-.5.2-.7.4-.2.1-.4.3-.5.6-.1.2-.2.5-.2.9 0 .3.1.6.2.8.1.2.3.4.5.5s.5.2.7.3c.3.1.6.1.9.1.7 0 1.3-.1 1.7-.4.4-.2.7-.5.9-.9.2-.3.3-.7.3-1 0-.3.1-.6.1-.8v-1.4zM74.5 194.9c-.6 0-1.1.1-1.5.4-.4.3-.7.6-1 1-.3.4-.4.9-.5 1.4-.1.5-.2 1-.2 1.5s.1 1 .2 1.5.3 1 .5 1.4c.2.4.5.7.9 1 .4.3.9.4 1.5.4.9 0 1.6-.2 2-.7.5-.5.8-1.2.9-2H81c-.2 1.8-.9 3.1-2.1 4.1s-2.6 1.4-4.4 1.4c-1 0-1.9-.2-2.8-.5s-1.6-.8-2.1-1.4c-.6-.6-1-1.3-1.4-2.2-.3-.8-.5-1.8-.5-2.8 0-1 .2-2 .5-2.9.3-.9.7-1.7 1.3-2.3.6-.7 1.3-1.2 2.2-1.5.8-.4 1.8-.5 2.9-.5.8 0 1.6.1 2.3.3.7.2 1.4.5 2 .9s1.1 1 1.4 1.6c.4.6.6 1.4.6 2.2h-3.6c-.3-1.5-1.2-2.3-2.8-2.3zM90.4 192.5v2.5h-2.7v6.7c0 .6.1 1 .3 1.2.2.2.6.3 1.2.3h.6c.2 0 .4 0 .5-.1v2.9c-.3.1-.7.1-1 .1h-1.1c-.6 0-1.1 0-1.6-.1s-1-.2-1.4-.5c-.4-.2-.7-.5-.9-1-.2-.4-.3-1-.3-1.6V195h-2.2v-2.5H84v-4h3.7v4h2.7zM92.3 190.4v-3H96v3h-3.7zm3.7 2.1v13.4h-3.7v-13.4H96zM105.3 194.9c-.6 0-1.1.1-1.5.4-.4.3-.7.6-1 1-.3.4-.4.9-.5 1.4-.1.5-.2 1-.2 1.5s.1 1 .2 1.5.3 1 .5 1.4c.2.4.5.7.9 1 .4.3.9.4 1.5.4.9 0 1.6-.2 2-.7.5-.5.8-1.2.9-2h3.6c-.2 1.8-.9 3.1-2.1 4.1s-2.6 1.4-4.4 1.4c-1 0-1.9-.2-2.8-.5s-1.6-.8-2.1-1.4c-.6-.6-1-1.3-1.4-2.2-.3-.8-.5-1.8-.5-2.8 0-1 .2-2 .5-2.9.3-.9.7-1.7 1.3-2.3.6-.7 1.3-1.2 2.2-1.5.8-.4 1.8-.5 2.9-.5.8 0 1.6.1 2.3.3.7.2 1.4.5 2 .9s1.1 1 1.4 1.6c.4.6.6 1.4.6 2.2H108c-.2-1.5-1.1-2.3-2.7-2.3zM113.7 196.6c.1-.9.3-1.6.7-2.2.4-.6.9-1 1.5-1.4.6-.3 1.3-.6 2-.7.7-.1 1.5-.2 2.2-.2.7 0 1.4 0 2.1.1.7.1 1.3.3 1.9.6.6.3 1 .7 1.4 1.2.4.5.5 1.1.5 2v7c0 .6 0 1.2.1 1.7.1.6.2 1 .4 1.2h-3.7c-.1-.2-.1-.4-.2-.6 0-.2-.1-.4-.1-.7-.6.6-1.3 1-2.1 1.3-.8.2-1.6.4-2.4.4-.6 0-1.2-.1-1.8-.2-.6-.2-1-.4-1.5-.7-.4-.3-.7-.7-1-1.2-.2-.5-.4-1.1-.4-1.8 0-.8.1-1.4.4-1.9.3-.5.6-.9 1-1.2.4-.3.9-.5 1.5-.7.5-.1 1.1-.3 1.7-.4.6-.1 1.1-.2 1.6-.2.5-.1 1-.1 1.4-.2s.7-.3 1-.5c.2-.2.4-.5.3-.9 0-.4-.1-.7-.2-.9-.1-.2-.3-.4-.5-.5-.2-.1-.5-.2-.8-.3-.3 0-.6-.1-.9-.1-.7 0-1.3.2-1.7.5s-.7.8-.7 1.6h-3.7zm8.5 2.7l-.6.3c-.2.1-.5.1-.8.2-.3.1-.5.1-.8.1-.3 0-.6.1-.9.1-.3.1-.6.1-.8.2s-.5.2-.7.4-.4.3-.5.6c-.1.2-.2.5-.2.9 0 .3.1.6.2.8.1.2.3.4.5.5s.5.2.7.3c.3.1.6.1.9.1.7 0 1.3-.1 1.7-.4.4-.2.7-.5.9-.9.2-.3.3-.7.4-1 0-.3.1-.6.1-.8v-1.4zM132.6 187.4V206h-3.7v-18.6h3.7z"/><g><path class="st0" d="M23.4 234.9l-3.1-12.6h-.1l-3.1 12.6H13l-4.9-18.6h4.1l2.9 12.6h.1l3.2-12.6h3.8l3.2 12.8h.1l3-12.8h4l-5 18.6h-4.1zM34 219.4v-3h3.7v3H34zm3.7 2.1v13.4H34v-13.4h3.7zM43.7 231.6c.2.3.4.5.6.7.3.2.6.3.9.4s.7.1 1.1.1c.3 0 .5 0 .8-.1s.5-.2.8-.3c.2-.1.4-.3.6-.5.2-.2.2-.5.2-.8 0-.6-.4-1-1.1-1.2-.7-.3-1.8-.6-3.1-.8-.5-.1-1.1-.3-1.6-.4-.5-.2-1-.4-1.4-.6-.4-.3-.7-.6-1-1-.2-.4-.4-.9-.4-1.5 0-.9.2-1.6.5-2.1.3-.6.8-1 1.3-1.3.6-.3 1.2-.5 1.9-.7.7-.1 1.4-.2 2.1-.2s1.4.1 2.1.2c.7.1 1.3.4 1.8.7.5.3 1 .8 1.3 1.3.4.5.6 1.2.6 2.1h-3.5c-.1-.7-.3-1.2-.8-1.4-.5-.3-1.1-.4-1.7-.4H45c-.2 0-.5.1-.7.2-.2.1-.4.2-.5.4-.1.2-.2.4-.2.7 0 .3.1.6.4.8.2.2.6.4.9.5.4.1.8.2 1.3.4l1.5.3c.5.1 1.1.3 1.6.4.5.2 1 .4 1.4.7s.7.6 1 1.1c.2.4.4.9.4 1.6 0 .9-.2 1.6-.5 2.2-.4.6-.8 1.1-1.4 1.4-.6.4-1.2.6-2 .8-.7.1-1.5.2-2.2.2-.8 0-1.5-.1-2.3-.2-.7-.2-1.4-.4-2-.8-.6-.4-1.1-.8-1.4-1.4-.4-.6-.6-1.3-.6-2.2h3.5c.3 0 .4.4.5.7zM64.1 233.2c-.4.7-1 1.3-1.7 1.6-.7.3-1.5.5-2.4.5-1 0-1.9-.2-2.7-.6s-1.4-.9-1.9-1.6c-.5-.7-.9-1.4-1.1-2.3-.3-.9-.4-1.8-.4-2.7 0-.9.1-1.8.4-2.6.3-.8.6-1.6 1.1-2.2.5-.6 1.1-1.2 1.9-1.5.7-.4 1.6-.6 2.6-.6.8 0 1.6.2 2.3.5.7.3 1.3.8 1.7 1.5h.1v-6.8h3.7V235h-3.5l-.1-1.8zm-.1-6.6c-.1-.5-.3-1-.5-1.4s-.6-.7-1-.9c-.4-.2-.9-.4-1.5-.4s-1.1.1-1.5.4c-.4.2-.8.6-1 1-.3.4-.4.9-.5 1.4-.1.5-.2 1-.2 1.6 0 .5.1 1 .2 1.6.1.5.3 1 .6 1.4.3.4.6.7 1 1 .4.3.9.4 1.5.4s1.1-.1 1.5-.4c.4-.2.7-.6 1-1 .2-.4.4-.9.5-1.4.1-.5.2-1.1.2-1.6s-.2-1.2-.3-1.7zM70.6 225.3c.3-.9.8-1.6 1.4-2.2.6-.6 1.3-1.1 2.2-1.4.8-.3 1.8-.5 2.9-.5s2 .2 2.9.5c.9.3 1.6.8 2.2 1.4.6.6 1.1 1.4 1.4 2.2.3.9.5 1.9.5 2.9s-.2 2-.5 2.9c-.3.9-.8 1.6-1.4 2.2-.6.6-1.3 1.1-2.2 1.4-.9.3-1.8.5-2.9.5s-2-.2-2.9-.5c-.8-.3-1.6-.8-2.2-1.4-.6-.6-1.1-1.4-1.4-2.2-.3-.9-.5-1.8-.5-2.9s.1-2 .5-2.9zm3.3 4.5c.1.5.3 1 .5 1.4.3.4.6.7 1 1 .4.2.9.4 1.6.4s1.1-.1 1.6-.4c.4-.2.8-.6 1-1s.4-.9.5-1.4c.1-.5.2-1 .2-1.6 0-.5-.1-1.1-.2-1.6s-.3-1-.5-1.4c-.3-.4-.6-.7-1-1-.4-.3-.9-.4-1.6-.4s-1.1.1-1.6.4c-.4.3-.8.6-1 1-.3.4-.4.9-.5 1.4-.1.5-.2 1-.2 1.6.1.5.1 1.1.2 1.6zM90 221.5v1.8c.5-.7 1.1-1.2 1.8-1.6s1.5-.6 2.4-.6c.8 0 1.6.2 2.3.5.7.3 1.2.9 1.6 1.7.4-.6.9-1.1 1.6-1.6.7-.5 1.5-.7 2.4-.7.7 0 1.4.1 2 .3.6.2 1.1.5 1.6.8s.8.9 1 1.5c.2.6.4 1.4.4 2.2v9h-3.7v-7.6c0-.5 0-.9-.1-1.3 0-.4-.1-.7-.3-1-.2-.3-.4-.5-.7-.7-.3-.2-.7-.3-1.2-.3s-.9.1-1.3.3c-.3.2-.6.5-.8.8s-.3.7-.4 1.1c-.1.4-.1.8-.1 1.2v7.5h-3.7v-7.5-1.2c0-.4-.1-.7-.2-1.1-.1-.3-.3-.6-.6-.8-.3-.2-.8-.3-1.3-.3-.2 0-.4 0-.7.1-.3.1-.6.2-.8.4s-.5.5-.7.9c-.2.4-.3.9-.3 1.6v7.8h-3.7v-13.4H90zM115.8 223.9v-2.5h2.2v-1c0-1.2.4-2.2 1.1-2.9s1.9-1.1 3.4-1.1h1c.3 0 .6 0 1 .1v2.8c-.4-.1-.9-.1-1.4-.1-.5 0-.9.1-1.1.4-.2.2-.3.6-.3 1.2v.8h2.5v2.5h-2.5v11H118v-11h-2.2zM125.9 225.3c.3-.9.8-1.6 1.4-2.2.6-.6 1.3-1.1 2.2-1.4.8-.3 1.8-.5 2.9-.5s2 .2 2.9.5c.9.3 1.6.8 2.2 1.4.6.6 1.1 1.4 1.4 2.2.3.9.5 1.9.5 2.9s-.2 2-.5 2.9c-.3.9-.8 1.6-1.4 2.2-.6.6-1.3 1.1-2.2 1.4-.9.3-1.8.5-2.9.5s-2-.2-2.9-.5c-.8-.3-1.6-.8-2.2-1.4-.6-.6-1.1-1.4-1.4-2.2-.3-.9-.5-1.8-.5-2.9s.2-2 .5-2.9zm3.3 4.5c.1.5.3 1 .5 1.4.3.4.6.7 1 1 .4.2.9.4 1.6.4s1.1-.1 1.6-.4c.4-.2.8-.6 1-1s.4-.9.5-1.4c.1-.5.2-1 .2-1.6 0-.5-.1-1.1-.2-1.6s-.3-1-.5-1.4c-.3-.4-.6-.7-1-1-.4-.3-.9-.4-1.6-.4s-1.1.1-1.6.4c-.4.3-.8.6-1 1-.3.4-.4.9-.5 1.4-.1.5-.2 1-.2 1.6.1.5.1 1.1.2 1.6zM145.2 221.5v2.5h.1c.2-.4.4-.8.7-1.2.3-.4.6-.7 1-.9.4-.3.8-.4 1.2-.6.4-.1.9-.2 1.4-.2.2 0 .5 0 .8.1v3.4c-.2 0-.4-.1-.6-.1h-.7c-.7 0-1.2.1-1.7.3-.5.2-.8.5-1.1.9-.3.4-.5.8-.6 1.4-.1.5-.2 1.1-.2 1.7v6.1h-3.7v-13.4h3.4z"/></g><g><path class="st0" d="M37.7 245.3c1.2 0 2.3.2 3.3.6 1 .4 1.9 1 2.7 1.7.8.8 1.3 1.7 1.8 2.9s.6 2.5.6 4c0 1.4-.2 2.6-.5 3.7s-.9 2.1-1.6 3c-.7.8-1.6 1.5-2.6 2s-2.3.7-3.7.7h-8v-18.6h8zm-.3 15.2c.6 0 1.2-.1 1.7-.3s1-.5 1.5-.9.8-1 1-1.7c.3-.7.4-1.6.4-2.6 0-.9-.1-1.8-.3-2.5-.2-.8-.5-1.4-.9-1.9s-1-.9-1.7-1.2c-.7-.3-1.5-.4-2.5-.4h-2.9v11.7h3.7zM52.6 260.7c.6.5 1.4.8 2.4.8.7 0 1.4-.2 1.9-.6.5-.4.9-.8 1-1.2h3.2c-.5 1.6-1.3 2.8-2.4 3.5-1.1.7-2.4 1-3.9 1-1.1 0-2-.2-2.9-.5s-1.6-.8-2.2-1.4c-.6-.6-1-1.4-1.4-2.2-.3-.9-.5-1.8-.5-2.9 0-1 .2-1.9.5-2.8.3-.9.8-1.6 1.4-2.2.6-.6 1.3-1.1 2.2-1.5.8-.4 1.8-.5 2.8-.5 1.1 0 2.1.2 3 .7.8.4 1.5 1 2.1 1.8.5.7.9 1.6 1.2 2.5.2 1 .3 2 .3 3h-9.7c.1 1.1.4 1.9 1 2.5zm4.1-7.1c-.4-.5-1.1-.7-2-.7-.6 0-1.1.1-1.5.3-.4.2-.7.4-.9.7-.2.3-.4.6-.5.9-.1.3-.2.6-.2.9h6c-.1-.9-.4-1.6-.9-2.1zM67 250.5v1.9h.1c.5-.8 1.1-1.3 1.8-1.7.7-.4 1.5-.5 2.3-.5 1 0 1.8.1 2.4.4.6.3 1.1.6 1.5 1.1.4.5.6 1.1.8 1.7.1.7.2 1.4.2 2.3v8.3h-3.7v-7.6c0-1.1-.2-1.9-.5-2.5-.3-.5-1-.8-1.8-.8-1 0-1.7.3-2.2.9-.5.6-.7 1.6-.7 3v7h-3.7v-13.4H67zM86.3 250.5v2.5h-2.7v6.7c0 .6.1 1 .3 1.2.2.2.6.3 1.2.3h.6c.2 0 .4 0 .5-.1v2.9c-.3.1-.7.1-1 .1h-1.1c-.6 0-1.1 0-1.6-.1s-1-.2-1.4-.5c-.4-.2-.7-.5-.9-1-.2-.4-.3-1-.3-1.6V253h-2.2v-2.5h2.2v-4h3.7v4h2.7zM88.2 248.4v-3h3.7v3h-3.7zm3.7 2.1v13.4h-3.7v-13.4h3.7zM97.9 260.6c.2.3.4.5.6.7.3.2.6.3.9.4s.7.1 1.1.1c.3 0 .5 0 .8-.1s.5-.2.8-.3c.2-.1.4-.3.6-.5s.2-.5.2-.8c0-.6-.4-1-1.1-1.2-.7-.3-1.8-.6-3.1-.8-.5-.1-1.1-.3-1.6-.4-.5-.2-1-.4-1.4-.6-.4-.3-.7-.6-1-1-.2-.4-.4-.9-.4-1.5 0-.9.2-1.6.5-2.1.3-.6.8-1 1.3-1.3.6-.3 1.2-.5 1.9-.7.7-.1 1.4-.2 2.1-.2s1.4.1 2.1.2c.7.1 1.3.4 1.8.7.5.3 1 .8 1.3 1.3s.6 1.2.6 2.1h-3.5c-.1-.7-.3-1.2-.8-1.4-.5-.3-1.1-.4-1.7-.4h-.7c-.2 0-.5.1-.7.2-.2.1-.4.2-.5.4-.1.2-.2.4-.2.7 0 .3.1.6.4.8.2.2.6.4.9.5.4.1.8.2 1.3.4l1.5.3c.5.1 1.1.3 1.6.4.5.2 1 .4 1.4.7s.7.6 1 1.1c.2.4.4.9.4 1.6 0 .9-.2 1.6-.5 2.2-.4.6-.8 1.1-1.4 1.4-.6.4-1.2.6-2 .8-.7.1-1.5.2-2.2.2-.8 0-1.5-.1-2.3-.2-.7-.2-1.4-.4-2-.8-.6-.4-1.1-.8-1.4-1.4-.4-.6-.6-1.3-.6-2.2h3.5c.3 0 .3.4.5.7zM116.1 250.5v2.5h-2.7v6.7c0 .6.1 1 .3 1.2.2.2.6.3 1.2.3h.6c.2 0 .4 0 .5-.1v2.9c-.3.1-.7.1-1 .1h-1.1c-.6 0-1.1 0-1.6-.1s-1-.2-1.4-.5c-.4-.2-.7-.5-.9-1-.2-.4-.3-1-.3-1.6V253h-2.2v-2.5h2.2v-4h3.7v4h2.7zM121 260.6c.2.3.4.5.6.7.3.2.6.3.9.4s.7.1 1.1.1c.3 0 .5 0 .8-.1s.5-.2.8-.3c.2-.1.4-.3.6-.5s.2-.5.2-.8c0-.6-.4-1-1.1-1.2-.7-.3-1.8-.6-3.1-.8-.5-.1-1.1-.3-1.6-.4-.5-.2-1-.4-1.4-.6-.4-.3-.7-.6-1-1-.2-.4-.4-.9-.4-1.5 0-.9.2-1.6.5-2.1.3-.6.8-1 1.3-1.3.6-.3 1.2-.5 1.9-.7.7-.1 1.4-.2 2.1-.2s1.4.1 2.1.2c.7.1 1.3.4 1.8.7.5.3 1 .8 1.3 1.3s.6 1.2.6 2.1h-3.5c-.1-.7-.3-1.2-.8-1.4-.5-.3-1.1-.4-1.7-.4h-.7c-.2 0-.5.1-.7.2-.2.1-.4.2-.5.4-.1.2-.2.4-.2.7 0 .3.1.6.4.8.2.2.6.4.9.5.4.1.8.2 1.3.4l1.5.3c.5.1 1.1.3 1.6.4.5.2 1 .4 1.4.7s.7.6 1 1.1c.2.4.4.9.4 1.6 0 .9-.2 1.6-.5 2.2-.4.6-.8 1.1-1.4 1.4-.6.4-1.2.6-2 .8-.7.1-1.5.2-2.2.2-.8 0-1.5-.1-2.3-.2-.7-.2-1.4-.4-2-.8-.6-.4-1.1-.8-1.4-1.4-.4-.6-.6-1.3-.6-2.2h3.5c.3 0 .4.4.5.7z"/></g></svg>