<svg id="Layer_1" xmlns="http://www.w3.org/2000/svg" viewBox="0 0 160 600"><style>.st0{fill:#349946}</style><path class="st0" d="M50.1 507.5c.3-.7.6-1.4 1.1-1.9s1.1-1 1.8-1.3c.7-.3 1.5-.5 2.4-.5.9 0 1.7.2 2.4.5s1.3.7 1.8 1.3.8 1.2 1.1 1.9.4 1.5.4 2.4c0 .8-.1 1.6-.4 2.3s-.6 1.3-1.1 1.9-1.1 1-1.8 1.3-1.5.5-2.4.5c-.9 0-1.7-.2-2.4-.5s-1.3-.7-1.8-1.3-.8-1.2-1.1-1.9c-.3-.7-.4-1.5-.4-2.3 0-.9.2-1.7.4-2.4zm2.3 3.7c.1.5.3.9.5 1.2.2.4.6.7 1 .9.4.2.9.3 1.4.3.6 0 1-.1 1.4-.3.4-.2.7-.5 1-.9.2-.4.4-.8.5-1.2.1-.5.2-.9.2-1.4 0-.5-.1-1-.2-1.5s-.3-.9-.5-1.3-.6-.7-1-.9c-.4-.2-.9-.3-1.4-.3-.6 0-1 .1-1.4.3-.4.2-.7.5-1 .9-.2.4-.4.8-.5 1.3-.1.5-.2 1-.2 1.5s.1 1 .2 1.4zM64.6 507.2v1.2c.3-.5.7-.8 1.1-1 .5-.2.9-.3 1.4-.3.6 0 1.1.1 1.5.2.4.2.7.4.9.7.2.3.4.7.5 1.1.1.4.1.9.1 1.4v5.1h-2.3v-4.7c0-.7-.1-1.2-.3-1.5-.2-.3-.6-.5-1.1-.5-.6 0-1.1.2-1.3.6-.3.4-.4 1-.4 1.8v4.3h-2.3v-8.3h2.2zM74.3 504.1v11.4H72v-11.4h2.3zM79.1 518c-.4.3-1 .4-1.8.4h-.7c-.2 0-.5 0-.7-.1v-1.9c.2 0 .4 0 .7.1h.7c.3 0 .5-.2.7-.4.1-.2.2-.4.2-.7 0-.2 0-.4-.1-.5l-2.9-7.8h2.4l1.9 5.7 1.8-5.7h2.4l-3.5 9.3c-.3.8-.7 1.3-1.1 1.6zM87.9 508.8v-1.5h1.4v-.6c0-.7.2-1.3.7-1.8.5-.5 1.2-.7 2.1-.7h1.2v1.7h-.8c-.3 0-.5.1-.7.2-.1.1-.2.4-.2.7v.5h1.6v1.5h-1.6v6.8h-2.3v-6.8h-1.4zM94.2 509.6c.2-.5.5-1 .9-1.4.4-.4.8-.7 1.3-.9s1.1-.3 1.8-.3 1.2.1 1.8.3c.5.2 1 .5 1.4.9s.7.8.9 1.4c.2.5.3 1.1.3 1.8s-.1 1.3-.3 1.8c-.2.5-.5 1-.9 1.4s-.8.7-1.4.9c-.5.2-1.1.3-1.8.3s-1.2-.1-1.8-.3c-.5-.2-1-.5-1.3-.9-.4-.4-.7-.8-.9-1.4-.2-.5-.3-1.1-.3-1.8s.1-1.3.3-1.8zm2 2.7c.1.3.2.6.3.8.2.2.4.5.6.6s.6.2 1 .2.7-.1 1-.2c.3-.1.5-.3.6-.6.2-.3.3-.5.3-.8.1-.3.1-.6.1-1s0-.7-.1-1c-.1-.3-.2-.6-.3-.8l-.6-.6c-.3-.2-.6-.2-1-.2s-.7.1-1 .2-.5.4-.6.6c-.2.2-.3.5-.3.8-.1.3-.1.6-.1 1s.1.7.1 1zM106.1 507.2v1.5c.1-.3.3-.5.4-.7l.6-.6c.2-.2.5-.3.8-.4.3-.1.5-.1.8-.1.1 0 .3 0 .5.1v2.1c-.1 0-.2 0-.4-.1h-.4c-.4 0-.8.1-1.1.2s-.5.3-.7.6c-.2.2-.3.5-.4.8-.1.3-.1.7-.1 1v3.7h-2.3V507h2.3z"/><g><path class="st0" d="M30.9 523.1l4.3 11.4h-2.6l-.9-2.5h-4.3l-.9 2.5H24l4.3-11.4h2.6zm.1 7l-1.4-4.2-1.5 4.2H31zM41.1 523.1c.7 0 1.4.1 2.1.4.6.2 1.2.6 1.6 1.1.5.5.8 1.1 1.1 1.8.3.7.4 1.5.4 2.5 0 .8-.1 1.6-.3 2.3s-.5 1.3-1 1.8c-.4.5-1 .9-1.6 1.2-.6.3-1.4.4-2.3.4h-4.9v-11.4h4.9zm-.2 9.3c.4 0 .7-.1 1.1-.2.3-.1.6-.3.9-.6.3-.3.5-.6.6-1.1.2-.4.2-1 .2-1.6 0-.6-.1-1.1-.2-1.6s-.3-.9-.6-1.2c-.3-.3-.6-.6-1-.8s-.9-.3-1.6-.3h-1.8v7.2h2.4zM53.7 523.1l4.3 11.4h-2.6l-.9-2.5h-4.3l-.9 2.5h-2.5l4.3-11.4h2.6zm.2 7l-1.4-4.2-1.5 4.2h2.9zM67 523.1l2.7 7.9 2.5-7.9h3.5v11.4h-2.4v-8.1l-2.8 8.1h-1.9l-2.8-8v8h-2.4v-11.4H67zM80.1 532.5c.3.3.8.5 1.5.5.5 0 .9-.1 1.2-.3.3-.2.5-.5.6-.7h2c-.3 1-.8 1.7-1.5 2.1s-1.5.6-2.4.6c-.7 0-1.2-.1-1.8-.3-.5-.2-1-.5-1.3-.9-.4-.4-.6-.8-.8-1.4s-.3-1.1-.3-1.8c0-.6.1-1.2.3-1.7.2-.5.5-1 .9-1.4.4-.4.8-.7 1.3-.9.5-.2 1.1-.3 1.7-.3.7 0 1.3.1 1.8.4.5.3 1 .6 1.3 1.1.3.5.6 1 .7 1.6s.2 1.2.2 1.8h-6c.1.8.3 1.3.6 1.6zm2.6-4.3c-.3-.3-.7-.4-1.2-.4-.4 0-.7.1-.9.2-.2.1-.4.3-.6.5l-.3.6c-.1.2-.1.4-.1.5h3.7c-.1-.7-.3-1.1-.6-1.4zM89.1 526.2v1.1c.3-.4.7-.8 1.1-1 .4-.2.9-.4 1.4-.4.5 0 1 .1 1.4.3.4.2.8.6 1 1.1.2-.4.6-.7 1-1 .4-.3.9-.4 1.5-.4.4 0 .8.1 1.2.2s.7.3 1 .5c.3.2.5.5.6.9.1.4.2.8.2 1.4v5.5h-2.3v-4.7-.8c0-.3-.1-.5-.2-.6-.1-.2-.2-.3-.4-.4s-.4-.2-.8-.2c-.3 0-.6.1-.8.2-.2.1-.4.3-.5.5s-.2.4-.2.7c0 .3-.1.5-.1.8v4.6h-2.3v-4.6-.7c0-.2-.1-.5-.1-.7-.1-.2-.2-.4-.4-.5-.2-.1-.5-.2-.8-.2-.1 0-.2 0-.4.1-.2 0-.3.1-.5.3-.2.1-.3.3-.4.6-.1.3-.2.6-.2 1v4.8H87v-8.3h2.1zM103.7 523.1v4.2c.3-.4.7-.7 1.1-.9s1-.3 1.5-.3c.4 0 .8.1 1.2.3.4.2.8.4 1.1.8.3.4.6.8.8 1.4.2.5.3 1.2.3 2s-.1 1.4-.3 2c-.2.5-.5 1-.8 1.4-.3.4-.7.6-1.1.8-.4.2-.8.3-1.2.3-.6 0-1.2-.1-1.6-.3-.5-.2-.8-.5-1.1-1v1.1h-2.2v-11.4h2.3zm3.6 6.3c-.1-.3-.2-.6-.4-.8l-.6-.6c-.2-.1-.5-.2-.9-.2-.3 0-.6.1-.9.2-.2.1-.4.3-.6.6-.2.2-.3.5-.4.8-.1.3-.1.7-.1 1 0 .3 0 .7.1 1 .1.3.2.6.4.8l.6.6c.2.1.5.2.9.2.3 0 .6-.1.9-.2.2-.1.4-.3.6-.6s.3-.5.4-.8c.1-.3.1-.7.1-1 0-.4 0-.7-.1-1zM113.6 532.5c.3.3.8.5 1.5.5.5 0 .9-.1 1.2-.3.3-.2.5-.5.6-.7h2c-.3 1-.8 1.7-1.5 2.1s-1.5.6-2.4.6c-.7 0-1.2-.1-1.8-.3-.5-.2-1-.5-1.3-.9-.4-.4-.6-.8-.8-1.4s-.3-1.1-.3-1.8c0-.6.1-1.2.3-1.7.2-.5.5-1 .9-1.4.4-.4.8-.7 1.3-.9.5-.2 1.1-.3 1.7-.3.7 0 1.3.1 1.8.4.5.3 1 .6 1.3 1.1.3.5.6 1 .7 1.6s.2 1.2.2 1.8h-6c.1.8.2 1.3.6 1.6zm2.6-4.3c-.3-.3-.7-.4-1.2-.4-.4 0-.7.1-.9.2-.2.1-.4.3-.6.5l-.3.6c-.1.2-.1.4-.1.5h3.7c-.2-.7-.4-1.1-.6-1.4zM122.5 526.2v1.5c.1-.3.3-.5.4-.7l.6-.6c.2-.2.5-.3.8-.4.3-.1.5-.1.8-.1.1 0 .3 0 .5.1v2.1c-.1 0-.2 0-.4-.1h-.4c-.4 0-.8.1-1.1.2s-.5.3-.7.6c-.2.2-.3.5-.4.8-.1.3-.1.7-.1 1v3.7h-2.3V526h2.3zM128.5 532.4c.1.2.2.3.4.4s.3.2.6.2.4.1.6.1c.2 0 .3 0 .5-.1.2 0 .3-.1.5-.2.1-.1.3-.2.4-.3.1-.1.1-.3.1-.5 0-.3-.2-.6-.7-.8-.5-.2-1.1-.3-1.9-.5-.3-.1-.7-.2-1-.3-.3-.1-.6-.2-.8-.4l-.6-.6c-.2-.2-.2-.6-.2-.9 0-.5.1-1 .3-1.3.2-.3.5-.6.8-.8.3-.2.7-.3 1.2-.4.4-.1.9-.1 1.3-.1s.9 0 1.3.1.8.2 1.1.4c.3.2.6.5.8.8s.3.8.4 1.3h-2.2c0-.4-.2-.7-.5-.9-.3-.2-.7-.2-1.1-.2h-.4c-.1 0-.3.1-.4.1-.1.1-.2.1-.3.2-.1.1-.1.2-.1.4s.1.4.2.5c.1.1.3.2.6.3.2.1.5.2.8.2.3.1.6.1.9.2.3.1.7.2 1 .3s.6.2.8.4c.2.2.4.4.6.7.1.3.2.6.2 1 0 .5-.1 1-.3 1.4s-.5.7-.9.9c-.4.2-.8.4-1.2.5-.5.1-.9.1-1.4.1-.5 0-.9 0-1.4-.1-.5-.1-.9-.3-1.2-.5s-.7-.5-.9-.9-.4-.8-.4-1.4h2.2c.1.4.2.6.3.7z"/></g></svg>