<?xml version="1.0" encoding="utf-8"?>
<!-- Generator: Adobe Illustrator 26.5.0, SVG Export Plug-In . SVG Version: 6.00 Build 0)  -->
<svg version="1.1" id="Layer_1" xmlns="http://www.w3.org/2000/svg" xmlns:xlink="http://www.w3.org/1999/xlink" x="0px" y="0px"
	 viewBox="0 0 300 600" style="enable-background:new 0 0 300 600;" xml:space="preserve">
<style type="text/css">
	.st0{fill:#339933;}
</style>
<g>
	<path class="st0" d="M93.5,199.4c1.5,0,2.7,0.2,3.8,0.6c1,0.4,1.9,1,2.5,1.7c0.6,0.7,1.1,1.5,1.4,2.4c0.3,0.9,0.4,1.8,0.4,2.8
		c0,0.9-0.1,1.9-0.4,2.8s-0.8,1.7-1.4,2.4c-0.6,0.7-1.5,1.3-2.5,1.7c-1,0.4-2.3,0.6-3.8,0.6h-5.4v8.4h-5.2v-23.6H93.5z M92.1,210.5
		c0.6,0,1.2,0,1.7-0.1c0.5-0.1,1-0.3,1.5-0.5c0.4-0.3,0.8-0.6,1-1.1c0.3-0.5,0.4-1.1,0.4-1.8c0-0.7-0.1-1.4-0.4-1.8
		c-0.3-0.5-0.6-0.8-1-1.1c-0.4-0.3-0.9-0.4-1.5-0.5c-0.6-0.1-1.1-0.1-1.7-0.1h-4v7.1H92.1z"/>
	<path class="st0" d="M108.9,205.9v3.2h0.1c0.2-0.5,0.5-1,0.9-1.5c0.4-0.5,0.8-0.8,1.3-1.2c0.5-0.3,1-0.6,1.6-0.7
		c0.5-0.2,1.1-0.3,1.7-0.3c0.3,0,0.6,0.1,1,0.2v4.4c-0.2,0-0.5-0.1-0.8-0.1c-0.3,0-0.6,0-0.9,0c-0.9,0-1.6,0.1-2.2,0.4
		c-0.6,0.3-1.1,0.7-1.4,1.2c-0.4,0.5-0.6,1.1-0.8,1.7c-0.2,0.7-0.2,1.4-0.2,2.1v7.7h-4.7v-17.1H108.9z"/>
	<path class="st0" d="M117.1,211.1c0.1-1.1,0.3-2,0.8-2.7c0.5-0.7,1.1-1.3,1.8-1.7s1.6-0.8,2.5-0.9c0.9-0.2,1.9-0.3,2.8-0.3
		c0.9,0,1.7,0.1,2.6,0.2c0.9,0.1,1.7,0.4,2.4,0.7s1.3,0.8,1.8,1.5s0.7,1.5,0.7,2.5v8.9c0,0.8,0,1.5,0.1,2.2c0.1,0.7,0.2,1.2,0.5,1.6
		h-4.8c-0.1-0.3-0.2-0.5-0.2-0.8c-0.1-0.3-0.1-0.6-0.1-0.8c-0.7,0.8-1.6,1.3-2.6,1.6c-1,0.3-2,0.5-3.1,0.5c-0.8,0-1.6-0.1-2.3-0.3
		c-0.7-0.2-1.3-0.5-1.8-0.9c-0.5-0.4-0.9-0.9-1.2-1.6c-0.3-0.6-0.4-1.4-0.4-2.3c0-1,0.2-1.8,0.5-2.4c0.3-0.6,0.8-1.1,1.3-1.5
		c0.5-0.4,1.2-0.7,1.8-0.8c0.7-0.2,1.4-0.3,2.1-0.4c0.7-0.1,1.4-0.2,2.1-0.3c0.7-0.1,1.3-0.2,1.8-0.3c0.5-0.1,0.9-0.3,1.3-0.6
		c0.3-0.3,0.5-0.6,0.4-1.1c0-0.5-0.1-0.9-0.2-1.2c-0.2-0.3-0.4-0.5-0.7-0.7c-0.3-0.2-0.6-0.3-1-0.3c-0.4-0.1-0.8-0.1-1.2-0.1
		c-0.9,0-1.6,0.2-2.2,0.6c-0.5,0.4-0.8,1.1-0.9,2H117.1z M127.9,214.6c-0.2,0.2-0.4,0.3-0.7,0.4s-0.6,0.2-1,0.2
		c-0.3,0.1-0.7,0.1-1.1,0.2c-0.4,0-0.7,0.1-1.1,0.2c-0.4,0.1-0.7,0.2-1,0.3c-0.3,0.1-0.6,0.3-0.9,0.4c-0.3,0.2-0.5,0.4-0.6,0.7
		c-0.2,0.3-0.2,0.6-0.2,1.1c0,0.4,0.1,0.8,0.2,1.1c0.2,0.3,0.4,0.5,0.6,0.7c0.3,0.2,0.6,0.3,0.9,0.3c0.4,0.1,0.7,0.1,1.1,0.1
		c0.9,0,1.6-0.2,2.1-0.5c0.5-0.3,0.9-0.7,1.1-1.1c0.2-0.4,0.4-0.9,0.4-1.3c0.1-0.4,0.1-0.8,0.1-1.1V214.6z"/>
	<path class="st0" d="M144.4,209c-0.7,0-1.4,0.2-1.9,0.5c-0.5,0.3-0.9,0.8-1.2,1.3c-0.3,0.5-0.5,1.1-0.7,1.8
		c-0.1,0.6-0.2,1.3-0.2,1.9c0,0.6,0.1,1.2,0.2,1.9c0.1,0.6,0.3,1.2,0.6,1.7c0.3,0.5,0.7,0.9,1.2,1.3c0.5,0.3,1.1,0.5,1.8,0.5
		c1.1,0,2-0.3,2.6-0.9c0.6-0.6,1-1.5,1.1-2.5h4.5c-0.3,2.3-1.2,4-2.6,5.2c-1.5,1.2-3.3,1.8-5.6,1.8c-1.3,0-2.4-0.2-3.5-0.6
		c-1.1-0.4-2-1-2.7-1.8c-0.7-0.8-1.3-1.7-1.7-2.8c-0.4-1.1-0.6-2.2-0.6-3.5c0-1.3,0.2-2.5,0.6-3.7c0.4-1.1,1-2.1,1.7-2.9
		c0.7-0.8,1.7-1.5,2.7-1.9c1.1-0.5,2.3-0.7,3.7-0.7c1,0,2,0.1,2.9,0.4c0.9,0.3,1.8,0.7,2.5,1.2c0.7,0.5,1.3,1.2,1.8,2
		c0.5,0.8,0.7,1.8,0.8,2.9h-4.6C147.5,209.9,146.4,209,144.4,209z"/>
	<path class="st0" d="M164.5,205.9v3.1h-3.4v8.4c0,0.8,0.1,1.3,0.4,1.6c0.3,0.3,0.8,0.4,1.6,0.4c0.3,0,0.5,0,0.8,0s0.5-0.1,0.7-0.1
		v3.6c-0.4,0.1-0.8,0.1-1.3,0.1c-0.5,0-1,0-1.4,0c-0.7,0-1.4,0-2.1-0.1c-0.6-0.1-1.2-0.3-1.7-0.6c-0.5-0.3-0.9-0.7-1.2-1.2
		c-0.3-0.5-0.4-1.2-0.4-2.1V209h-2.8v-3.1h2.8v-5.1h4.7v5.1H164.5z"/>
	<path class="st0" d="M166.9,203.2v-3.9h4.7v3.9H166.9z M171.6,205.9V223h-4.7v-17.1H171.6z"/>
	<path class="st0" d="M183.4,209c-0.7,0-1.4,0.2-1.9,0.5c-0.5,0.3-0.9,0.8-1.2,1.3c-0.3,0.5-0.5,1.1-0.7,1.8s-0.2,1.3-0.2,1.9
		c0,0.6,0.1,1.2,0.2,1.9c0.1,0.6,0.3,1.2,0.6,1.7c0.3,0.5,0.7,0.9,1.2,1.3c0.5,0.3,1.1,0.5,1.8,0.5c1.1,0,2-0.3,2.6-0.9
		c0.6-0.6,1-1.5,1.1-2.5h4.5c-0.3,2.3-1.2,4-2.6,5.2s-3.3,1.8-5.6,1.8c-1.3,0-2.4-0.2-3.5-0.6c-1.1-0.4-2-1-2.7-1.8
		c-0.7-0.8-1.3-1.7-1.7-2.8c-0.4-1.1-0.6-2.2-0.6-3.5c0-1.3,0.2-2.5,0.6-3.7c0.4-1.1,1-2.1,1.7-2.9c0.7-0.8,1.7-1.5,2.7-1.9
		s2.3-0.7,3.7-0.7c1,0,2,0.1,2.9,0.4c0.9,0.3,1.8,0.7,2.5,1.2c0.7,0.5,1.3,1.2,1.8,2c0.5,0.8,0.7,1.8,0.8,2.9h-4.6
		C186.6,209.9,185.4,209,183.4,209z"/>
	<path class="st0" d="M194,211.1c0.1-1.1,0.3-2,0.8-2.7c0.5-0.7,1.1-1.3,1.8-1.7s1.6-0.8,2.5-0.9c0.9-0.2,1.9-0.3,2.8-0.3
		c0.9,0,1.7,0.1,2.6,0.2c0.9,0.1,1.7,0.4,2.4,0.7c0.7,0.4,1.3,0.8,1.8,1.5s0.7,1.5,0.7,2.5v8.9c0,0.8,0,1.5,0.1,2.2
		c0.1,0.7,0.2,1.2,0.5,1.6h-4.8c-0.1-0.3-0.2-0.5-0.2-0.8c-0.1-0.3-0.1-0.6-0.1-0.8c-0.7,0.8-1.6,1.3-2.6,1.6c-1,0.3-2,0.5-3.1,0.5
		c-0.8,0-1.6-0.1-2.3-0.3c-0.7-0.2-1.3-0.5-1.8-0.9c-0.5-0.4-0.9-0.9-1.2-1.6c-0.3-0.6-0.4-1.4-0.4-2.3c0-1,0.2-1.8,0.5-2.4
		s0.8-1.1,1.3-1.5s1.2-0.7,1.8-0.8c0.7-0.2,1.4-0.3,2.1-0.4c0.7-0.1,1.4-0.2,2.1-0.3c0.7-0.1,1.3-0.2,1.8-0.3
		c0.5-0.1,0.9-0.3,1.3-0.6c0.3-0.3,0.5-0.6,0.4-1.1c0-0.5-0.1-0.9-0.2-1.2c-0.2-0.3-0.4-0.5-0.7-0.7c-0.3-0.2-0.6-0.3-1-0.3
		c-0.4-0.1-0.8-0.1-1.2-0.1c-0.9,0-1.7,0.2-2.2,0.6c-0.5,0.4-0.8,1.1-0.9,2H194z M204.8,214.6c-0.2,0.2-0.4,0.3-0.7,0.4
		c-0.3,0.1-0.6,0.2-1,0.2c-0.3,0.1-0.7,0.1-1.1,0.2c-0.4,0-0.7,0.1-1.1,0.2c-0.4,0.1-0.7,0.2-1,0.3c-0.3,0.1-0.6,0.3-0.9,0.4
		c-0.3,0.2-0.5,0.4-0.6,0.7c-0.2,0.3-0.2,0.6-0.2,1.1c0,0.4,0.1,0.8,0.2,1.1c0.2,0.3,0.4,0.5,0.6,0.7c0.3,0.2,0.6,0.3,0.9,0.3
		c0.4,0.1,0.7,0.1,1.1,0.1c0.9,0,1.6-0.2,2.1-0.5s0.9-0.7,1.1-1.1c0.2-0.4,0.4-0.9,0.4-1.3c0.1-0.4,0.1-0.8,0.1-1.1V214.6z"/>
	<path class="st0" d="M218,199.4V223h-4.7v-23.6H218z"/>
</g>
<g>
	<path class="st0" d="M79.4,258l-4-16h-0.1l-3.9,16h-5.2L60,234.4h5.2l3.7,16h0.1l4.1-16h4.9l4,16.2H82l3.9-16.2h5.1L84.6,258H79.4z
		"/>
	<path class="st0" d="M92.9,238.3v-3.9h4.7v3.9H92.9z M97.6,240.9V258h-4.7v-17.1H97.6z"/>
	<path class="st0" d="M105.3,253.7c0.2,0.4,0.5,0.7,0.8,0.9c0.3,0.2,0.7,0.4,1.1,0.5c0.4,0.1,0.9,0.2,1.3,0.2c0.3,0,0.7,0,1-0.1
		c0.4-0.1,0.7-0.2,1-0.4s0.5-0.4,0.7-0.7c0.2-0.3,0.3-0.6,0.3-1c0-0.7-0.5-1.2-1.4-1.6c-0.9-0.4-2.2-0.7-3.9-1.1
		c-0.7-0.2-1.3-0.3-2-0.5c-0.6-0.2-1.2-0.5-1.7-0.8c-0.5-0.3-0.9-0.8-1.2-1.3c-0.3-0.5-0.5-1.1-0.5-1.9c0-1.1,0.2-2,0.6-2.7
		c0.4-0.7,1-1.3,1.7-1.7c0.7-0.4,1.5-0.7,2.4-0.9s1.8-0.2,2.7-0.2c0.9,0,1.8,0.1,2.7,0.3s1.6,0.5,2.3,0.9c0.7,0.4,1.2,1,1.7,1.7
		c0.5,0.7,0.7,1.6,0.8,2.6h-4.5c-0.1-0.9-0.4-1.5-1-1.8c-0.6-0.3-1.3-0.5-2.2-0.5c-0.3,0-0.6,0-0.9,0c-0.3,0-0.6,0.1-0.8,0.2
		c-0.3,0.1-0.5,0.3-0.6,0.5c-0.2,0.2-0.3,0.5-0.3,0.8c0,0.4,0.2,0.8,0.5,1c0.3,0.3,0.7,0.5,1.2,0.6s1.1,0.3,1.7,0.4
		c0.6,0.1,1.3,0.3,1.9,0.4c0.7,0.2,1.3,0.3,2,0.6c0.6,0.2,1.2,0.5,1.7,0.9c0.5,0.4,0.9,0.8,1.2,1.4c0.3,0.5,0.5,1.2,0.5,2
		c0,1.1-0.2,2.1-0.7,2.8c-0.5,0.8-1,1.4-1.8,1.8c-0.7,0.5-1.6,0.8-2.5,1c-0.9,0.2-1.9,0.3-2.9,0.3c-1,0-2-0.1-2.9-0.3
		c-0.9-0.2-1.8-0.5-2.5-1c-0.7-0.5-1.3-1.1-1.8-1.8c-0.5-0.8-0.7-1.7-0.8-2.9h4.5C105,252.9,105.1,253.4,105.3,253.7z"/>
	<path class="st0" d="M131.2,255.8c-0.6,0.9-1.3,1.6-2.2,2s-1.9,0.6-3,0.6c-1.3,0-2.4-0.2-3.4-0.7c-1-0.5-1.8-1.2-2.4-2
		c-0.6-0.8-1.1-1.8-1.4-2.9c-0.3-1.1-0.5-2.2-0.5-3.4c0-1.1,0.2-2.2,0.5-3.3c0.3-1.1,0.8-2,1.4-2.8s1.4-1.5,2.4-2
		c0.9-0.5,2-0.7,3.3-0.7c1,0,2,0.2,2.9,0.6c0.9,0.4,1.6,1.1,2.2,1.9h0.1v-8.6h4.7V258h-4.5L131.2,255.8L131.2,255.8z M131,247.4
		c-0.1-0.6-0.4-1.2-0.7-1.7c-0.3-0.5-0.7-0.9-1.2-1.2c-0.5-0.3-1.1-0.5-1.9-0.5c-0.8,0-1.4,0.2-1.9,0.5c-0.5,0.3-1,0.7-1.3,1.2
		c-0.3,0.5-0.6,1.1-0.7,1.7c-0.1,0.6-0.2,1.3-0.2,2c0,0.7,0.1,1.3,0.2,2c0.2,0.7,0.4,1.2,0.7,1.8c0.3,0.5,0.8,0.9,1.3,1.3
		c0.5,0.3,1.1,0.5,1.9,0.5c0.8,0,1.4-0.2,1.9-0.5c0.5-0.3,0.9-0.7,1.2-1.2c0.3-0.5,0.5-1.1,0.7-1.8c0.1-0.7,0.2-1.3,0.2-2
		C131.2,248.7,131.1,248,131,247.4z"/>
	<path class="st0" d="M139.3,245.7c0.4-1.1,1-2.1,1.8-2.8c0.8-0.8,1.7-1.4,2.8-1.8c1.1-0.4,2.3-0.6,3.6-0.6c1.3,0,2.6,0.2,3.6,0.6
		c1.1,0.4,2,1,2.8,1.8c0.8,0.8,1.4,1.7,1.8,2.8c0.4,1.1,0.6,2.3,0.6,3.7c0,1.4-0.2,2.6-0.6,3.7c-0.4,1.1-1,2-1.8,2.8
		c-0.8,0.8-1.7,1.4-2.8,1.8c-1.1,0.4-2.3,0.6-3.6,0.6c-1.3,0-2.6-0.2-3.6-0.6c-1.1-0.4-2-1-2.8-1.8c-0.8-0.8-1.4-1.7-1.8-2.8
		s-0.6-2.3-0.6-3.7C138.7,248.1,138.9,246.8,139.3,245.7z M143.6,251.4c0.1,0.6,0.4,1.2,0.7,1.7c0.3,0.5,0.7,0.9,1.3,1.2
		s1.2,0.5,2,0.5s1.5-0.2,2-0.5s1-0.7,1.3-1.2c0.3-0.5,0.5-1.1,0.7-1.7c0.1-0.6,0.2-1.3,0.2-2c0-0.7-0.1-1.4-0.2-2
		c-0.1-0.7-0.4-1.2-0.7-1.7c-0.3-0.5-0.7-0.9-1.3-1.2c-0.5-0.3-1.2-0.5-2-0.5s-1.5,0.2-2,0.5c-0.5,0.3-1,0.7-1.3,1.2
		c-0.3,0.5-0.5,1.1-0.7,1.7c-0.1,0.7-0.2,1.3-0.2,2C143.4,250.1,143.4,250.8,143.6,251.4z"/>
	<path class="st0" d="M163.9,240.9v2.3h0.1c0.6-0.9,1.4-1.6,2.2-2c0.9-0.5,1.9-0.7,3-0.7c1.1,0,2.1,0.2,3,0.6c0.9,0.4,1.6,1.2,2,2.2
		c0.5-0.7,1.2-1.4,2.1-2c0.9-0.6,1.9-0.9,3.1-0.9c0.9,0,1.7,0.1,2.5,0.3c0.8,0.2,1.4,0.6,2,1.1c0.5,0.5,1,1.1,1.3,1.9
		c0.3,0.8,0.5,1.7,0.5,2.8V258h-4.7v-9.7c0-0.6,0-1.1-0.1-1.6c0-0.5-0.2-0.9-0.4-1.3c-0.2-0.4-0.5-0.7-0.9-0.9
		c-0.4-0.2-0.9-0.3-1.6-0.3s-1.2,0.1-1.6,0.4s-0.7,0.6-1,1c-0.2,0.4-0.4,0.9-0.5,1.4s-0.1,1-0.1,1.6v9.5h-4.7v-9.6c0-0.5,0-1,0-1.5
		c0-0.5-0.1-1-0.3-1.4c-0.2-0.4-0.4-0.8-0.8-1c-0.4-0.3-1-0.4-1.7-0.4c-0.2,0-0.5,0-0.9,0.1c-0.4,0.1-0.7,0.3-1.1,0.6
		c-0.3,0.3-0.6,0.7-0.9,1.2c-0.2,0.5-0.4,1.2-0.4,2v9.9h-4.7v-17.1H163.9z"/>
	<path class="st0" d="M196.7,244v-3.1h2.8v-1.3c0-1.5,0.5-2.8,1.4-3.7c0.9-1,2.4-1.5,4.3-1.5c0.4,0,0.8,0,1.3,0
		c0.4,0,0.8,0.1,1.2,0.1v3.5c-0.6-0.1-1.1-0.1-1.7-0.1c-0.6,0-1.1,0.1-1.4,0.4s-0.4,0.8-0.4,1.5v1h3.2v3.1h-3.2V258h-4.7V244H196.7z
		"/>
	<path class="st0" d="M209.5,245.7c0.4-1.1,1-2.1,1.8-2.8c0.8-0.8,1.7-1.4,2.8-1.8c1.1-0.4,2.3-0.6,3.6-0.6c1.3,0,2.6,0.2,3.6,0.6
		c1.1,0.4,2,1,2.8,1.8c0.8,0.8,1.4,1.7,1.8,2.8c0.4,1.1,0.6,2.3,0.6,3.7c0,1.4-0.2,2.6-0.6,3.7c-0.4,1.1-1,2-1.8,2.8
		c-0.8,0.8-1.7,1.4-2.8,1.8c-1.1,0.4-2.3,0.6-3.6,0.6c-1.3,0-2.6-0.2-3.6-0.6c-1.1-0.4-2-1-2.8-1.8c-0.8-0.8-1.4-1.7-1.8-2.8
		s-0.6-2.3-0.6-3.7C208.9,248.1,209.1,246.8,209.5,245.7z M213.8,251.4c0.1,0.6,0.4,1.2,0.7,1.7c0.3,0.5,0.7,0.9,1.3,1.2
		s1.2,0.5,2,0.5s1.5-0.2,2-0.5s1-0.7,1.3-1.2c0.3-0.5,0.5-1.1,0.7-1.7c0.1-0.6,0.2-1.3,0.2-2c0-0.7-0.1-1.4-0.2-2
		c-0.1-0.7-0.4-1.2-0.7-1.7c-0.3-0.5-0.7-0.9-1.3-1.2c-0.5-0.3-1.2-0.5-2-0.5s-1.5,0.2-2,0.5c-0.5,0.3-1,0.7-1.3,1.2
		c-0.3,0.5-0.5,1.1-0.7,1.7c-0.1,0.7-0.2,1.3-0.2,2C213.6,250.1,213.7,250.8,213.8,251.4z"/>
	<path class="st0" d="M234,240.9v3.2h0.1c0.2-0.5,0.5-1,0.9-1.5c0.4-0.5,0.8-0.8,1.3-1.2c0.5-0.3,1-0.6,1.6-0.7
		c0.5-0.2,1.1-0.3,1.7-0.3c0.3,0,0.6,0.1,1,0.2v4.4c-0.2,0-0.5-0.1-0.8-0.1c-0.3,0-0.6,0-0.9,0c-0.9,0-1.6,0.1-2.2,0.4
		c-0.6,0.3-1.1,0.7-1.4,1.2s-0.6,1.1-0.8,1.7c-0.2,0.7-0.2,1.4-0.2,2.1v7.7h-4.7v-17.1H234z"/>
</g>
<g>
	<path class="st0" d="M97.6,269.4c1.5,0,2.9,0.2,4.2,0.7c1.3,0.5,2.4,1.2,3.4,2.2c1,1,1.7,2.2,2.2,3.6c0.5,1.5,0.8,3.2,0.8,5.1
		c0,1.7-0.2,3.3-0.7,4.8c-0.4,1.5-1.1,2.7-2,3.8s-2,1.9-3.3,2.5c-1.3,0.6-2.9,0.9-4.7,0.9H87.5v-23.6H97.6z M97.3,288.6
		c0.7,0,1.5-0.1,2.2-0.4c0.7-0.2,1.3-0.6,1.9-1.2c0.5-0.6,1-1.3,1.3-2.2c0.3-0.9,0.5-2,0.5-3.3c0-1.2-0.1-2.3-0.3-3.2
		c-0.2-1-0.6-1.8-1.1-2.5c-0.5-0.7-1.2-1.2-2.1-1.6c-0.9-0.4-1.9-0.5-3.2-0.5h-3.7v14.9H97.3z"/>
	<path class="st0" d="M116.4,288.9c0.7,0.7,1.7,1,3,1c0.9,0,1.8-0.2,2.4-0.7c0.7-0.5,1.1-1,1.3-1.5h4.1c-0.7,2-1.7,3.5-3,4.4
		c-1.4,0.9-3,1.3-5,1.3c-1.3,0-2.6-0.2-3.6-0.6c-1.1-0.4-2-1-2.7-1.8s-1.3-1.7-1.7-2.8c-0.4-1.1-0.6-2.3-0.6-3.6
		c0-1.3,0.2-2.5,0.6-3.6c0.4-1.1,1-2.1,1.8-2.9c0.8-0.8,1.7-1.4,2.8-1.9c1.1-0.5,2.2-0.7,3.5-0.7c1.5,0,2.7,0.3,3.8,0.8
		c1.1,0.6,2,1.3,2.7,2.3c0.7,0.9,1.2,2,1.5,3.2c0.3,1.2,0.4,2.5,0.3,3.8h-12.3C115.3,287.1,115.7,288.2,116.4,288.9z M121.7,279.9
		c-0.6-0.6-1.4-0.9-2.6-0.9c-0.7,0-1.4,0.1-1.9,0.4c-0.5,0.3-0.9,0.6-1.2,0.9c-0.3,0.4-0.5,0.8-0.6,1.2c-0.1,0.4-0.2,0.8-0.2,1.1
		h7.6C122.7,281.4,122.3,280.5,121.7,279.9z"/>
	<path class="st0" d="M134.8,275.9v2.4h0.1c0.6-1,1.4-1.7,2.3-2.2c0.9-0.5,1.9-0.7,2.9-0.7c1.3,0,2.3,0.2,3.1,0.5
		c0.8,0.3,1.4,0.8,1.9,1.4c0.5,0.6,0.8,1.3,1,2.2s0.3,1.8,0.3,2.9V293h-4.7v-9.6c0-1.4-0.2-2.5-0.7-3.2s-1.2-1-2.3-1
		c-1.3,0-2.2,0.4-2.8,1.1c-0.6,0.8-0.9,2-0.9,3.7v8.9h-4.7v-17.1H134.8z"/>
	<path class="st0" d="M159.3,275.9v3.1h-3.4v8.4c0,0.8,0.1,1.3,0.4,1.6c0.3,0.3,0.8,0.4,1.6,0.4c0.3,0,0.5,0,0.8,0s0.5-0.1,0.7-0.1
		v3.6c-0.4,0.1-0.8,0.1-1.3,0.1c-0.5,0-1,0-1.4,0c-0.7,0-1.4,0-2.1-0.1c-0.6-0.1-1.2-0.3-1.7-0.6c-0.5-0.3-0.9-0.7-1.2-1.2
		c-0.3-0.5-0.4-1.2-0.4-2.1v-10.1h-2.8v-3.1h2.8v-5.1h4.7v5.1H159.3z"/>
	<path class="st0" d="M161.7,273.3v-3.9h4.7v3.9H161.7z M166.4,275.9V293h-4.7v-17.1H166.4z"/>
	<path class="st0" d="M174,288.7c0.2,0.4,0.5,0.7,0.8,0.9s0.7,0.4,1.1,0.5c0.4,0.1,0.9,0.2,1.3,0.2c0.3,0,0.7,0,1-0.1
		c0.4-0.1,0.7-0.2,1-0.4c0.3-0.2,0.5-0.4,0.7-0.7c0.2-0.3,0.3-0.6,0.3-1c0-0.7-0.5-1.2-1.4-1.6c-0.9-0.4-2.2-0.7-3.9-1.1
		c-0.7-0.2-1.3-0.3-2-0.5c-0.6-0.2-1.2-0.5-1.7-0.8c-0.5-0.3-0.9-0.8-1.2-1.3c-0.3-0.5-0.5-1.1-0.5-1.9c0-1.1,0.2-2,0.6-2.7
		c0.4-0.7,1-1.3,1.7-1.7c0.7-0.4,1.5-0.7,2.4-0.9c0.9-0.2,1.8-0.2,2.7-0.2c0.9,0,1.8,0.1,2.7,0.3c0.9,0.2,1.6,0.5,2.3,0.9
		c0.7,0.4,1.2,1,1.7,1.7c0.5,0.7,0.7,1.6,0.8,2.6h-4.5c-0.1-0.9-0.4-1.5-1-1.8c-0.6-0.3-1.3-0.5-2.2-0.5c-0.3,0-0.6,0-0.9,0
		c-0.3,0-0.6,0.1-0.8,0.2c-0.3,0.1-0.5,0.3-0.6,0.5c-0.2,0.2-0.3,0.5-0.3,0.8c0,0.4,0.2,0.8,0.5,1c0.3,0.3,0.7,0.5,1.2,0.6
		c0.5,0.2,1.1,0.3,1.7,0.4c0.6,0.1,1.3,0.3,1.9,0.4c0.7,0.2,1.3,0.3,2,0.6c0.6,0.2,1.2,0.5,1.7,0.9c0.5,0.4,0.9,0.8,1.2,1.4
		c0.3,0.5,0.5,1.2,0.5,2c0,1.1-0.2,2.1-0.7,2.8c-0.5,0.8-1,1.4-1.8,1.8c-0.7,0.5-1.6,0.8-2.5,1c-0.9,0.2-1.9,0.3-2.9,0.3
		c-1,0-2-0.1-2.9-0.3c-0.9-0.2-1.8-0.5-2.5-1c-0.7-0.5-1.3-1.1-1.8-1.8c-0.5-0.8-0.7-1.7-0.8-2.9h4.5
		C173.7,287.9,173.8,288.4,174,288.7z"/>
	<path class="st0" d="M197.2,275.9v3.1h-3.4v8.4c0,0.8,0.1,1.3,0.4,1.6c0.3,0.3,0.8,0.4,1.6,0.4c0.3,0,0.5,0,0.8,0s0.5-0.1,0.7-0.1
		v3.6c-0.4,0.1-0.8,0.1-1.3,0.1c-0.5,0-1,0-1.4,0c-0.7,0-1.4,0-2.1-0.1c-0.6-0.1-1.2-0.3-1.7-0.6c-0.5-0.3-0.9-0.7-1.2-1.2
		c-0.3-0.5-0.4-1.2-0.4-2.1v-10.1h-2.8v-3.1h2.8v-5.1h4.7v5.1H197.2z"/>
	<path class="st0" d="M203.3,288.7c0.2,0.4,0.5,0.7,0.8,0.9s0.7,0.4,1.1,0.5c0.4,0.1,0.9,0.2,1.3,0.2c0.3,0,0.7,0,1-0.1
		c0.4-0.1,0.7-0.2,1-0.4c0.3-0.2,0.5-0.4,0.7-0.7c0.2-0.3,0.3-0.6,0.3-1c0-0.7-0.5-1.2-1.4-1.6c-0.9-0.4-2.2-0.7-3.9-1.1
		c-0.7-0.2-1.3-0.3-2-0.5c-0.6-0.2-1.2-0.5-1.7-0.8c-0.5-0.3-0.9-0.8-1.2-1.3c-0.3-0.5-0.5-1.1-0.5-1.9c0-1.1,0.2-2,0.6-2.7
		c0.4-0.7,1-1.3,1.7-1.7c0.7-0.4,1.5-0.7,2.4-0.9c0.9-0.2,1.8-0.2,2.7-0.2c0.9,0,1.8,0.1,2.7,0.3c0.9,0.2,1.6,0.5,2.3,0.9
		c0.7,0.4,1.2,1,1.7,1.7c0.5,0.7,0.7,1.6,0.8,2.6h-4.5c-0.1-0.9-0.4-1.5-1-1.8c-0.6-0.3-1.3-0.5-2.2-0.5c-0.3,0-0.6,0-0.9,0
		c-0.3,0-0.6,0.1-0.8,0.2c-0.3,0.1-0.5,0.3-0.6,0.5c-0.2,0.2-0.3,0.5-0.3,0.8c0,0.4,0.2,0.8,0.5,1c0.3,0.3,0.7,0.5,1.2,0.6
		c0.5,0.2,1.1,0.3,1.7,0.4c0.6,0.1,1.3,0.3,1.9,0.4c0.7,0.2,1.3,0.3,2,0.6c0.6,0.2,1.2,0.5,1.7,0.9c0.5,0.4,0.9,0.8,1.2,1.4
		c0.3,0.5,0.5,1.2,0.5,2c0,1.1-0.2,2.1-0.7,2.8c-0.5,0.8-1,1.4-1.8,1.8c-0.7,0.5-1.6,0.8-2.5,1c-0.9,0.2-1.9,0.3-2.9,0.3
		c-1,0-2-0.1-2.9-0.3c-0.9-0.2-1.8-0.5-2.5-1c-0.7-0.5-1.3-1.1-1.8-1.8c-0.5-0.8-0.7-1.7-0.8-2.9h4.5
		C203,287.9,203.1,288.4,203.3,288.7z"/>
</g>
</svg>
