<?xml version="1.0" encoding="utf-8"?>
<!-- Generator: Adobe Illustrator 26.5.0, SVG Export Plug-In . SVG Version: 6.00 Build 0)  -->
<svg version="1.1" id="Layer_1" xmlns="http://www.w3.org/2000/svg" xmlns:xlink="http://www.w3.org/1999/xlink" x="0px" y="0px"
	 viewBox="0 0 300 600" style="enable-background:new 0 0 300 600;" xml:space="preserve">
<style type="text/css">
	.st0{fill:#339933;}
	.st1{fill:#FFFFFF;}
</style>
<path class="st0" d="M84.6,470.1c-9.7,0-17.5,7.8-17.5,17.5c0,9.7,7.8,17.5,17.5,17.5h131.3c9.7,0,17.5-7.8,17.5-17.5
	c0-9.7-7.8-17.5-17.5-17.5H84.6z"/>
<g>
	<path class="st1" d="M104.2,481.4v8.6h5.1v1.9h-7.4v-10.5H104.2z"/>
	<path class="st1" d="M118.5,481.4v1.9h-5.5v2.2h5.1v1.8h-5.1v2.6h5.7v1.9h-8v-10.5H118.5z"/>
	<path class="st1" d="M125.4,481.4l3.9,10.5h-2.4l-0.8-2.3h-3.9l-0.8,2.3H119l4-10.5H125.4z M125.5,487.8l-1.3-3.9h0l-1.4,3.9H125.5
		z"/>
	<path class="st1" d="M135.9,481.4c0.5,0,0.9,0.1,1.3,0.2c0.4,0.2,0.7,0.4,1,0.6s0.5,0.6,0.6,0.9s0.2,0.7,0.2,1.1
		c0,0.6-0.1,1.2-0.4,1.6c-0.3,0.5-0.7,0.8-1.3,1v0c0.3,0.1,0.5,0.2,0.7,0.4s0.3,0.4,0.5,0.6c0.1,0.2,0.2,0.5,0.3,0.7
		s0.1,0.5,0.1,0.8c0,0.2,0,0.4,0,0.6s0,0.5,0.1,0.7c0,0.2,0.1,0.5,0.1,0.7c0.1,0.2,0.1,0.4,0.2,0.5h-2.3c-0.1-0.3-0.2-0.7-0.2-1.2
		s-0.1-0.9-0.1-1.3c-0.1-0.5-0.2-1-0.5-1.2s-0.7-0.4-1.2-0.4h-2.3v4.1h-2.3v-10.5H135.9z M135,486.1c0.5,0,0.9-0.1,1.2-0.4
		c0.3-0.2,0.4-0.6,0.4-1.1c0-0.5-0.1-0.9-0.4-1.1c-0.3-0.2-0.7-0.3-1.2-0.3h-2.5v3H135z"/>
	<path class="st1" d="M143.1,481.4l4.4,7h0v-7h2.2v10.5h-2.3l-4.4-7h0v7h-2.2v-10.5H143.1z"/>
	<path class="st1" d="M159,481.4l2.5,7.2h0l2.3-7.2h3.2v10.5h-2.2v-7.4h0l-2.6,7.4h-1.8l-2.6-7.4h0v7.4h-2.2v-10.5H159z"/>
	<path class="st1" d="M169,484.5c0.2-0.7,0.6-1.3,1-1.8s1-0.9,1.6-1.2s1.4-0.4,2.2-0.4c0.8,0,1.5,0.1,2.2,0.4
		c0.6,0.3,1.2,0.7,1.6,1.2c0.4,0.5,0.8,1.1,1,1.8s0.4,1.4,0.4,2.2c0,0.8-0.1,1.5-0.4,2.1c-0.2,0.7-0.6,1.2-1,1.7
		c-0.4,0.5-1,0.9-1.6,1.2c-0.6,0.3-1.4,0.4-2.2,0.4c-0.8,0-1.5-0.1-2.2-0.4s-1.2-0.7-1.6-1.2c-0.4-0.5-0.8-1.1-1-1.7
		c-0.2-0.7-0.4-1.4-0.4-2.1C168.7,485.9,168.8,485.2,169,484.5z M171.1,488c0.1,0.4,0.3,0.8,0.5,1.1c0.2,0.3,0.5,0.6,0.9,0.8
		c0.4,0.2,0.8,0.3,1.3,0.3c0.5,0,1-0.1,1.3-0.3c0.4-0.2,0.7-0.5,0.9-0.8s0.4-0.7,0.5-1.1c0.1-0.4,0.2-0.8,0.2-1.3
		c0-0.5-0.1-0.9-0.2-1.3c-0.1-0.4-0.3-0.8-0.5-1.2s-0.5-0.6-0.9-0.8s-0.8-0.3-1.3-0.3c-0.5,0-1,0.1-1.3,0.3
		c-0.4,0.2-0.7,0.5-0.9,0.8c-0.2,0.3-0.4,0.7-0.5,1.2c-0.1,0.4-0.2,0.9-0.2,1.3C171,487.1,171,487.6,171.1,488z"/>
	<path class="st1" d="M186.2,481.4c0.5,0,0.9,0.1,1.3,0.2c0.4,0.2,0.7,0.4,1,0.6c0.3,0.3,0.5,0.6,0.6,0.9c0.1,0.3,0.2,0.7,0.2,1.1
		c0,0.6-0.1,1.2-0.4,1.6c-0.3,0.5-0.7,0.8-1.3,1v0c0.3,0.1,0.5,0.2,0.7,0.4c0.2,0.2,0.3,0.4,0.5,0.6c0.1,0.2,0.2,0.5,0.3,0.7
		c0.1,0.3,0.1,0.5,0.1,0.8c0,0.2,0,0.4,0,0.6s0,0.5,0.1,0.7s0.1,0.5,0.1,0.7c0.1,0.2,0.1,0.4,0.2,0.5h-2.3c-0.1-0.3-0.2-0.7-0.2-1.2
		s-0.1-0.9-0.1-1.3c-0.1-0.5-0.2-1-0.5-1.2s-0.7-0.4-1.2-0.4h-2.3v4.1h-2.3v-10.5H186.2z M185.4,486.1c0.5,0,0.9-0.1,1.2-0.4
		s0.4-0.6,0.4-1.1c0-0.5-0.1-0.9-0.4-1.1c-0.3-0.2-0.7-0.3-1.2-0.3h-2.5v3H185.4z"/>
	<path class="st1" d="M199,481.4v1.9h-5.5v2.2h5.1v1.8h-5.1v2.6h5.7v1.9h-8v-10.5H199z"/>
</g>
</svg>
