<?xml version="1.0" encoding="utf-8"?>
<!-- Generator: Adobe Illustrator 26.5.0, SVG Export Plug-In . SVG Version: 6.00 Build 0)  -->
<svg version="1.1" id="Layer_1" xmlns="http://www.w3.org/2000/svg" xmlns:xlink="http://www.w3.org/1999/xlink" x="0px" y="0px"
	 viewBox="0 0 300 600" style="enable-background:new 0 0 300 600;" xml:space="preserve">
<style type="text/css">
	.st0{fill:#339933;}
	.st1{font-family:'HelveticaNeue-Bold';}
	.st2{font-size:18px;}
</style>
<text transform="matrix(1 0 0 1 51.9452 536.9512)" class="st0 st1 st2">Only for ADA Members</text>
<g>
	<path class="st0" d="M53.1,527.9c0.3-0.8,0.7-1.5,1.2-2.2c0.5-0.6,1.2-1.1,2-1.4c0.8-0.3,1.7-0.5,2.7-0.5c1,0,1.9,0.2,2.7,0.5
		c0.8,0.3,1.4,0.8,2,1.4c0.5,0.6,1,1.3,1.2,2.2c0.3,0.8,0.4,1.7,0.4,2.7c0,0.9-0.1,1.8-0.4,2.6c-0.3,0.8-0.7,1.5-1.2,2.1
		c-0.5,0.6-1.2,1.1-2,1.4c-0.8,0.3-1.7,0.5-2.7,0.5c-1,0-1.9-0.2-2.7-0.5c-0.8-0.3-1.4-0.8-2-1.4c-0.5-0.6-1-1.3-1.2-2.1
		c-0.3-0.8-0.4-1.7-0.4-2.6C52.6,529.6,52.8,528.7,53.1,527.9z M55.6,532.2c0.1,0.5,0.3,1,0.6,1.4c0.3,0.4,0.6,0.7,1.1,1
		c0.4,0.2,1,0.4,1.6,0.4c0.6,0,1.2-0.1,1.6-0.4c0.4-0.2,0.8-0.6,1.1-1c0.3-0.4,0.5-0.9,0.6-1.4s0.2-1,0.2-1.6c0-0.6-0.1-1.1-0.2-1.6
		s-0.3-1-0.6-1.4c-0.3-0.4-0.6-0.7-1.1-1c-0.4-0.2-1-0.4-1.6-0.4c-0.6,0-1.2,0.1-1.6,0.4s-0.8,0.6-1.1,1c-0.3,0.4-0.5,0.9-0.6,1.4
		s-0.2,1.1-0.2,1.6C55.5,531.1,55.5,531.6,55.6,532.2z"/>
	<path class="st0" d="M69.4,527.6v1.3h0.1c0.3-0.5,0.7-0.9,1.3-1.2c0.5-0.2,1-0.4,1.6-0.4c0.7,0,1.2,0.1,1.7,0.3
		c0.4,0.2,0.8,0.4,1,0.8s0.4,0.7,0.5,1.2s0.2,1,0.2,1.6v5.7h-2.6v-5.3c0-0.8-0.1-1.3-0.4-1.7c-0.2-0.4-0.7-0.6-1.3-0.6
		c-0.7,0-1.2,0.2-1.5,0.6c-0.3,0.4-0.5,1.1-0.5,2v4.9h-2.6v-9.3H69.4z"/>
	<path class="st0" d="M80.2,524.1V537h-2.6v-12.9H80.2z"/>
	<path class="st0" d="M85.7,539.7c-0.5,0.3-1.2,0.5-2.1,0.5c-0.3,0-0.5,0-0.8,0c-0.3,0-0.5,0-0.8-0.1V538c0.2,0,0.5,0,0.7,0.1
		c0.3,0,0.5,0,0.8,0c0.3,0,0.6-0.2,0.7-0.4c0.2-0.2,0.2-0.5,0.2-0.8c0-0.2,0-0.4-0.1-0.6l-3.3-8.7h2.7L86,534h0l2-6.4h2.6l-3.9,10.5
		C86.6,538.9,86.2,539.4,85.7,539.7z"/>
	<path class="st0" d="M95.6,529.4v-1.7h1.5v-0.7c0-0.8,0.3-1.5,0.8-2c0.5-0.5,1.3-0.8,2.3-0.8c0.2,0,0.5,0,0.7,0c0.2,0,0.4,0,0.7,0
		v1.9c-0.3,0-0.6-0.1-0.9-0.1c-0.3,0-0.6,0.1-0.7,0.2c-0.2,0.2-0.2,0.4-0.2,0.8v0.6h1.8v1.7h-1.8v7.6h-2.6v-7.6H95.6z"/>
	<path class="st0" d="M102.6,530.3c0.2-0.6,0.6-1.1,1-1.5c0.4-0.4,0.9-0.8,1.5-1s1.2-0.4,2-0.4c0.7,0,1.4,0.1,2,0.4s1.1,0.6,1.5,1
		c0.4,0.4,0.7,0.9,1,1.5c0.2,0.6,0.3,1.3,0.3,2s-0.1,1.4-0.3,2c-0.2,0.6-0.6,1.1-1,1.5c-0.4,0.4-0.9,0.8-1.5,1
		c-0.6,0.2-1.3,0.3-2,0.3c-0.7,0-1.4-0.1-2-0.3c-0.6-0.2-1.1-0.6-1.5-1c-0.4-0.4-0.7-0.9-1-1.5c-0.2-0.6-0.3-1.3-0.3-2
		S102.4,530.9,102.6,530.3z M105,533.4c0.1,0.4,0.2,0.7,0.4,1c0.2,0.3,0.4,0.5,0.7,0.7s0.6,0.3,1.1,0.3c0.4,0,0.8-0.1,1.1-0.3
		c0.3-0.2,0.5-0.4,0.7-0.7c0.2-0.3,0.3-0.6,0.4-1c0.1-0.4,0.1-0.7,0.1-1.1s0-0.7-0.1-1.1c-0.1-0.4-0.2-0.7-0.4-1
		c-0.2-0.3-0.4-0.5-0.7-0.7c-0.3-0.2-0.7-0.3-1.1-0.3c-0.4,0-0.8,0.1-1.1,0.3s-0.5,0.4-0.7,0.7c-0.2,0.3-0.3,0.6-0.4,1
		c-0.1,0.4-0.1,0.7-0.1,1.1S104.9,533,105,533.4z"/>
	<path class="st0" d="M116,527.6v1.7h0c0.1-0.3,0.3-0.6,0.5-0.8s0.4-0.5,0.7-0.6c0.3-0.2,0.5-0.3,0.8-0.4c0.3-0.1,0.6-0.1,0.9-0.1
		c0.2,0,0.4,0,0.6,0.1v2.4c-0.1,0-0.3,0-0.4-0.1c-0.2,0-0.3,0-0.5,0c-0.5,0-0.9,0.1-1.2,0.2c-0.3,0.2-0.6,0.4-0.8,0.6
		c-0.2,0.3-0.3,0.6-0.4,0.9c-0.1,0.4-0.1,0.8-0.1,1.2v4.2h-2.6v-9.3H116z"/>
	<path class="st0" d="M132.3,524.1l4.8,12.9h-2.9l-1-2.9h-4.8l-1,2.9h-2.8l4.9-12.9H132.3z M132.4,532l-1.6-4.7h0l-1.7,4.7H132.4z"
		/>
	<path class="st0" d="M143.7,524.1c0.8,0,1.6,0.1,2.3,0.4c0.7,0.3,1.3,0.7,1.9,1.2c0.5,0.5,0.9,1.2,1.2,2c0.3,0.8,0.4,1.7,0.4,2.8
		c0,0.9-0.1,1.8-0.4,2.6s-0.6,1.5-1.1,2.1c-0.5,0.6-1.1,1-1.8,1.4s-1.6,0.5-2.6,0.5h-5.5v-12.9H143.7z M143.5,534.6
		c0.4,0,0.8-0.1,1.2-0.2c0.4-0.1,0.7-0.4,1-0.7c0.3-0.3,0.5-0.7,0.7-1.2c0.2-0.5,0.3-1.1,0.3-1.8c0-0.6-0.1-1.2-0.2-1.8
		c-0.1-0.5-0.3-1-0.6-1.3s-0.7-0.7-1.1-0.9c-0.5-0.2-1.1-0.3-1.8-0.3h-2v8.1H143.5z"/>
	<path class="st0" d="M157.9,524.1l4.8,12.9h-2.9l-1-2.9H154l-1,2.9h-2.8l4.9-12.9H157.9z M158.1,532l-1.6-4.7h0l-1.7,4.7H158.1z"/>
	<path class="st0" d="M172.8,524.1l3,8.8h0l2.8-8.8h4V537h-2.6v-9.1h0l-3.2,9.1h-2.2l-3.2-9h0v9h-2.6v-12.9H172.8z"/>
	<path class="st0" d="M187.6,534.7c0.4,0.4,0.9,0.6,1.7,0.6c0.5,0,1-0.1,1.3-0.4c0.4-0.3,0.6-0.5,0.7-0.8h2.2
		c-0.4,1.1-0.9,1.9-1.7,2.4c-0.7,0.5-1.6,0.7-2.7,0.7c-0.7,0-1.4-0.1-2-0.4c-0.6-0.2-1.1-0.6-1.5-1c-0.4-0.4-0.7-0.9-0.9-1.5
		c-0.2-0.6-0.3-1.3-0.3-2c0-0.7,0.1-1.3,0.3-1.9c0.2-0.6,0.6-1.1,1-1.6c0.4-0.4,0.9-0.8,1.5-1s1.2-0.4,1.9-0.4
		c0.8,0,1.5,0.2,2.1,0.5c0.6,0.3,1.1,0.7,1.4,1.2c0.4,0.5,0.7,1.1,0.8,1.8c0.2,0.7,0.2,1.3,0.2,2.1H187
		C187.1,533.7,187.3,534.3,187.6,534.7z M190.5,529.8c-0.3-0.3-0.8-0.5-1.4-0.5c-0.4,0-0.7,0.1-1,0.2c-0.3,0.1-0.5,0.3-0.6,0.5
		s-0.3,0.4-0.3,0.6c-0.1,0.2-0.1,0.4-0.1,0.6h4.2C191.1,530.7,190.8,530.2,190.5,529.8z"/>
	<path class="st0" d="M197.7,527.6v1.3h0c0.3-0.5,0.7-0.9,1.2-1.1c0.5-0.3,1-0.4,1.6-0.4c0.6,0,1.1,0.1,1.6,0.3
		c0.5,0.2,0.9,0.6,1.1,1.2c0.3-0.4,0.7-0.8,1.1-1.1c0.5-0.3,1-0.5,1.7-0.5c0.5,0,0.9,0.1,1.4,0.2c0.4,0.1,0.8,0.3,1.1,0.6
		s0.5,0.6,0.7,1s0.3,0.9,0.3,1.5v6.2H207v-5.3c0-0.3,0-0.6,0-0.9c0-0.3-0.1-0.5-0.2-0.7c-0.1-0.2-0.3-0.4-0.5-0.5
		c-0.2-0.1-0.5-0.2-0.9-0.2c-0.4,0-0.7,0.1-0.9,0.2c-0.2,0.1-0.4,0.3-0.5,0.5s-0.2,0.5-0.3,0.8s-0.1,0.6-0.1,0.9v5.2h-2.6v-5.2
		c0-0.3,0-0.5,0-0.8c0-0.3-0.1-0.5-0.2-0.7c-0.1-0.2-0.2-0.4-0.5-0.5s-0.5-0.2-0.9-0.2c-0.1,0-0.3,0-0.5,0.1
		c-0.2,0.1-0.4,0.2-0.6,0.3c-0.2,0.2-0.3,0.4-0.5,0.6s-0.2,0.7-0.2,1.1v5.4h-2.6v-9.3H197.7z"/>
	<path class="st0" d="M214.1,524.1v4.7h0c0.3-0.5,0.7-0.8,1.3-1.1c0.5-0.2,1.1-0.3,1.7-0.3c0.5,0,0.9,0.1,1.4,0.3
		c0.5,0.2,0.9,0.5,1.2,0.9c0.4,0.4,0.7,0.9,0.9,1.5s0.3,1.4,0.3,2.2c0,0.9-0.1,1.6-0.3,2.2s-0.5,1.1-0.9,1.5
		c-0.4,0.4-0.8,0.7-1.2,0.9c-0.5,0.2-0.9,0.3-1.4,0.3c-0.7,0-1.3-0.1-1.8-0.3s-0.9-0.6-1.2-1.1h0v1.2h-2.4v-12.9H214.1z
		 M218.2,531.2c-0.1-0.4-0.2-0.7-0.4-1c-0.2-0.3-0.4-0.5-0.7-0.7c-0.3-0.2-0.6-0.2-1-0.2c-0.4,0-0.7,0.1-1,0.2
		c-0.3,0.2-0.5,0.4-0.7,0.7c-0.2,0.3-0.3,0.6-0.4,1c-0.1,0.4-0.1,0.7-0.1,1.1c0,0.4,0,0.8,0.1,1.1c0.1,0.4,0.2,0.7,0.4,1
		c0.2,0.3,0.4,0.5,0.7,0.7c0.3,0.2,0.6,0.2,1,0.2c0.4,0,0.7-0.1,1-0.2c0.3-0.2,0.5-0.4,0.7-0.7c0.2-0.3,0.3-0.6,0.4-1
		c0.1-0.4,0.1-0.7,0.1-1.1C218.4,531.9,218.3,531.5,218.2,531.2z"/>
	<path class="st0" d="M225.3,534.7c0.4,0.4,0.9,0.6,1.7,0.6c0.5,0,1-0.1,1.3-0.4c0.4-0.3,0.6-0.5,0.7-0.8h2.2
		c-0.4,1.1-0.9,1.9-1.7,2.4c-0.7,0.5-1.6,0.7-2.7,0.7c-0.7,0-1.4-0.1-2-0.4c-0.6-0.2-1.1-0.6-1.5-1c-0.4-0.4-0.7-0.9-0.9-1.5
		c-0.2-0.6-0.3-1.3-0.3-2c0-0.7,0.1-1.3,0.3-1.9c0.2-0.6,0.6-1.1,1-1.6c0.4-0.4,0.9-0.8,1.5-1s1.2-0.4,1.9-0.4
		c0.8,0,1.5,0.2,2.1,0.5c0.6,0.3,1.1,0.7,1.4,1.2c0.4,0.5,0.7,1.1,0.8,1.8c0.2,0.7,0.2,1.3,0.2,2.1h-6.7
		C224.7,533.7,224.9,534.3,225.3,534.7z M228.2,529.8c-0.3-0.3-0.8-0.5-1.4-0.5c-0.4,0-0.7,0.1-1,0.2c-0.3,0.1-0.5,0.3-0.6,0.5
		s-0.3,0.4-0.3,0.6c-0.1,0.2-0.1,0.4-0.1,0.6h4.2C228.7,530.7,228.5,530.2,228.2,529.8z"/>
	<path class="st0" d="M235.3,527.6v1.7h0c0.1-0.3,0.3-0.6,0.5-0.8s0.4-0.5,0.7-0.6s0.5-0.3,0.8-0.4c0.3-0.1,0.6-0.1,0.9-0.1
		c0.2,0,0.4,0,0.6,0.1v2.4c-0.1,0-0.3,0-0.4-0.1c-0.2,0-0.3,0-0.5,0c-0.5,0-0.9,0.1-1.2,0.2c-0.3,0.2-0.6,0.4-0.8,0.6
		c-0.2,0.3-0.3,0.6-0.4,0.9c-0.1,0.4-0.1,0.8-0.1,1.2v4.2h-2.6v-9.3H235.3z"/>
	<path class="st0" d="M242,534.6c0.1,0.2,0.3,0.4,0.4,0.5c0.2,0.1,0.4,0.2,0.6,0.3c0.2,0.1,0.5,0.1,0.7,0.1c0.2,0,0.4,0,0.6-0.1
		c0.2,0,0.4-0.1,0.5-0.2c0.2-0.1,0.3-0.2,0.4-0.4c0.1-0.1,0.2-0.3,0.2-0.6c0-0.4-0.3-0.7-0.8-0.9c-0.5-0.2-1.2-0.4-2.1-0.6
		c-0.4-0.1-0.7-0.2-1.1-0.3c-0.4-0.1-0.7-0.3-0.9-0.5c-0.3-0.2-0.5-0.4-0.7-0.7c-0.2-0.3-0.3-0.6-0.3-1c0-0.6,0.1-1.1,0.4-1.5
		c0.2-0.4,0.5-0.7,0.9-0.9c0.4-0.2,0.8-0.4,1.3-0.5c0.5-0.1,1-0.1,1.5-0.1s1,0,1.5,0.1c0.5,0.1,0.9,0.3,1.3,0.5
		c0.4,0.2,0.7,0.5,0.9,0.9c0.2,0.4,0.4,0.9,0.4,1.4h-2.4c0-0.5-0.2-0.8-0.6-1s-0.7-0.3-1.2-0.3c-0.1,0-0.3,0-0.5,0
		c-0.2,0-0.3,0.1-0.5,0.1c-0.1,0.1-0.3,0.1-0.4,0.3c-0.1,0.1-0.1,0.3-0.1,0.5c0,0.2,0.1,0.4,0.3,0.6c0.2,0.1,0.4,0.3,0.7,0.4
		c0.3,0.1,0.6,0.2,0.9,0.2s0.7,0.2,1.1,0.2c0.4,0.1,0.7,0.2,1.1,0.3c0.4,0.1,0.7,0.3,0.9,0.5c0.3,0.2,0.5,0.4,0.7,0.7
		s0.3,0.7,0.3,1.1c0,0.6-0.1,1.1-0.4,1.5c-0.2,0.4-0.6,0.7-1,1c-0.4,0.3-0.8,0.4-1.4,0.5c-0.5,0.1-1,0.2-1.6,0.2
		c-0.5,0-1.1-0.1-1.6-0.2c-0.5-0.1-1-0.3-1.4-0.5c-0.4-0.3-0.7-0.6-1-1c-0.3-0.4-0.4-0.9-0.4-1.6h2.4
		C241.9,534.2,241.9,534.4,242,534.6z"/>
</g>
</svg>
