<?xml version="1.0" encoding="utf-8"?>
<!-- Generator: Adobe Illustrator 26.5.0, SVG Export Plug-In . SVG Version: 6.00 Build 0)  -->
<svg version="1.1" id="Layer_1" xmlns="http://www.w3.org/2000/svg" xmlns:xlink="http://www.w3.org/1999/xlink" x="0px" y="0px"
	 viewBox="0 0 300 600" style="enable-background:new 0 0 300 600;" xml:space="preserve">
<style type="text/css">
	.st0{clip-path:url(#SVGID_00000128471643134466442010000004240077985078907817_);fill:#231F20;}
	.st1{clip-path:url(#SVGID_00000128471643134466442010000004240077985078907817_);fill:#00B2EE;}
</style>
<g>
	<defs>
		<rect id="SVGID_1_" x="107.6" y="49.3" width="87.2" height="29.7"/>
	</defs>
	<clipPath id="SVGID_00000027569382643669970430000012558050791136725145_">
		<use xlink:href="#SVGID_1_"  style="overflow:visible;"/>
	</clipPath>
	<path style="clip-path:url(#SVGID_00000027569382643669970430000012558050791136725145_);fill:#231F20;" d="M108.2,65.2h4.7
		c3.7,0,4.4,2.4,4.4,4c0,1.6-0.7,4-4.4,4h-2.4v5h-2.3V65.2z M110.5,71.4h2.3c1,0,2.3-0.5,2.3-2.1c0-1.7-1-2.1-2.2-2.1h-2.3V71.4z"/>
	<path style="clip-path:url(#SVGID_00000027569382643669970430000012558050791136725145_);fill:#231F20;" d="M118.7,68.8h1.9v1.8h0
		c0.2-1,1.5-2.1,2.8-2.1c0.5,0,0.6,0,0.8,0.1v2c-0.3,0-0.6-0.1-0.9-0.1c-1.4,0-2.6,1.1-2.6,3.2v4.5h-2.1V68.8z"/>
	<path style="clip-path:url(#SVGID_00000027569382643669970430000012558050791136725145_);fill:#231F20;" d="M124.5,73.5
		c0-2.9,1.7-5,4.8-5c3,0,4.8,2.1,4.8,5c0,2.9-1.7,5-4.8,5C126.2,78.5,124.5,76.4,124.5,73.5 M131.9,73.5c0-1.6-0.8-3.3-2.7-3.3
		s-2.7,1.7-2.7,3.3c0,1.6,0.8,3.3,2.7,3.3S131.9,75.1,131.9,73.5"/>
	<path style="clip-path:url(#SVGID_00000027569382643669970430000012558050791136725145_);fill:#231F20;" d="M134.3,68.8h1.7V66h2
		v2.8h1.9v1.5h-1.9v5c0,0.9,0.1,1.3,1,1.3c0.3,0,0.6,0,0.9-0.1v1.6c-0.5,0-0.9,0.1-1.3,0.1c-2.2,0-2.6-0.8-2.6-2.4v-5.6h-1.6V68.8z"
		/>
	<path style="clip-path:url(#SVGID_00000027569382643669970430000012558050791136725145_);fill:#231F20;" d="M142.8,74
		c0,1.5,0.8,2.8,2.5,2.8c1.2,0,1.9-0.5,2.3-1.6h2c-0.5,2.1-2.2,3.2-4.3,3.2c-2.9,0-4.6-2.1-4.6-5c0-2.7,1.7-5,4.6-5
		c3,0,4.8,2.7,4.4,5.5H142.8z M147.6,72.7c-0.1-1.3-1-2.5-2.4-2.5c-1.4,0-2.4,1.1-2.5,2.5H147.6z"/>
	<path style="clip-path:url(#SVGID_00000027569382643669970430000012558050791136725145_);fill:#231F20;" d="M157.5,72
		c-0.2-1.1-1-1.8-2.1-1.8c-1.1,0-2.6,0.6-2.6,3.4c0,1.6,0.7,3.2,2.5,3.2c1.2,0,2-0.8,2.2-2.1h2.1c-0.4,2.4-1.9,3.8-4.3,3.8
		c-2.9,0-4.6-2.1-4.6-4.9c0-2.8,1.5-5.1,4.6-5.1c2.2,0,4,1.1,4.2,3.4H157.5z"/>
	<path style="clip-path:url(#SVGID_00000027569382643669970430000012558050791136725145_);fill:#231F20;" d="M160.2,68.8h1.6V66h2.1
		v2.8h1.9v1.5h-1.9v5c0,0.9,0.1,1.3,1,1.3c0.3,0,0.6,0,0.9-0.1v1.6c-0.5,0-0.9,0.1-1.3,0.1c-2.2,0-2.6-0.8-2.6-2.4v-5.6h-1.6V68.8z"
		/>
	<path style="clip-path:url(#SVGID_00000027569382643669970430000012558050791136725145_);fill:#231F20;" d="M168.1,65.2h2.1v2h-2.1
		V65.2z M168.1,68.8h2.1v9.4h-2.1V68.8z"/>
	<polygon style="clip-path:url(#SVGID_00000027569382643669970430000012558050791136725145_);fill:#231F20;" points="171.7,68.8 
		173.9,68.8 176.8,76 176.9,76 179.7,68.8 181.9,68.8 178,78.2 175.6,78.2 	"/>
	<path style="clip-path:url(#SVGID_00000027569382643669970430000012558050791136725145_);fill:#231F20;" d="M184.5,74
		c0,1.5,0.8,2.8,2.5,2.8c1.2,0,1.9-0.5,2.3-1.6h2c-0.5,2.1-2.2,3.2-4.3,3.2c-2.9,0-4.6-2.1-4.6-5c0-2.7,1.7-5,4.6-5
		c3,0,4.8,2.7,4.4,5.5H184.5z M189.3,72.7c-0.1-1.3-1-2.5-2.4-2.5c-1.4,0-2.4,1.1-2.5,2.5H189.3z"/>
	<path style="clip-path:url(#SVGID_00000027569382643669970430000012558050791136725145_);fill:#00B2EE;" d="M164.2,63.1
		c-1.4-5.2-5.5-9.2-10.6-10.5c-0.5-1.6-2-2.8-3.7-2.8c-1.8,0-3.2,1.2-3.7,2.8c-5.1,1.3-9.3,5.4-10.6,10.5l-0.2,0.6h3.2l0.1-0.3
		c1.2-3.8,4.2-6.7,7.9-7.7c0.7,1.1,1.9,1.9,3.3,1.9s2.7-0.8,3.3-1.9c3.7,1.1,6.7,4,7.9,7.7l0.1,0.3h3.2L164.2,63.1z"/>
	<path style="clip-path:url(#SVGID_00000027569382643669970430000012558050791136725145_);fill:#231F20;" d="M193.5,76.6
		c0.5,0,0.9,0.4,0.9,0.9c0,0.5-0.4,0.9-0.9,0.9s-0.9-0.4-0.9-0.9C192.6,77,193,76.6,193.5,76.6 M194.3,77.6c0-0.4-0.3-0.8-0.8-0.8
		c-0.4,0-0.8,0.3-0.8,0.8c0,0.4,0.3,0.8,0.8,0.8C194,78.3,194.3,78,194.3,77.6 M193.2,77h0.4c0.2,0,0.4,0.1,0.4,0.3
		c0,0.2-0.1,0.3-0.3,0.3l0.3,0.5h-0.2l-0.3-0.5h-0.2v0.5h-0.2V77z M193.5,77.5c0.1,0,0.3,0,0.3-0.2c0-0.1-0.1-0.2-0.2-0.2h-0.2v0.3
		H193.5z"/>
</g>
</svg>
