<svg id="Layer_1" xmlns="http://www.w3.org/2000/svg" viewBox="0 0 320 50"><style>.st0{fill:#373535}</style><path class="st0" d="M15.5 10.9l3.6 9.7h-2.2l-.7-2.1h-3.6l-.8 2.1H9.6l3.6-9.7h2.3zm.1 6l-1.2-3.5-1.3 3.5h2.5zM21.4 13.6v1c.2-.4.6-.7.9-.9.4-.2.8-.3 1.2-.3.5 0 .9.1 1.3.2.3.1.6.3.8.6.2.2.3.5.4.9s.1.8.1 1.2v4.3h-1.9v-3.9c0-.6-.1-1-.3-1.3-.2-.3-.5-.4-1-.4s-.9.2-1.1.5c-.2.3-.4.8-.4 1.5v3.7h-1.9v-7h1.9zM32.4 19.7c-.2.4-.5.7-.9.8-.4.2-.8.2-1.2.2-.5 0-1-.1-1.4-.3s-.7-.5-1-.8c-.3-.3-.5-.7-.6-1.2s-.2-.9-.2-1.4c0-.5.1-.9.2-1.4s.3-.8.6-1.2c.3-.3.6-.6 1-.8.4-.2.8-.3 1.4-.3.4 0 .8.1 1.2.3s.7.4.9.8v-3.5h1.9v9.7h-1.8l-.1-.9zm-.1-3.5c-.1-.3-.1-.5-.3-.7-.1-.2-.3-.4-.5-.5-.2-.1-.5-.2-.8-.2s-.5.1-.7.2c-.2.1-.4.3-.5.5-.1.2-.2.4-.3.7-.1.3-.1.5-.1.8 0 .3 0 .5.1.8.1.3.2.5.3.7.1.2.3.4.5.5.2.1.5.2.8.2.3 0 .6-.1.8-.2.2-.1.4-.3.5-.5.1-.2.2-.5.3-.7s.1-.5.1-.8-.1-.5-.2-.8zM45.8 21.1c-.1.4-.2.7-.5 1-.3.3-.6.6-1.1.8-.5.2-1.1.3-1.9.3-.3 0-.7 0-1-.1-.4-.1-.7-.2-1-.4-.3-.2-.5-.4-.7-.7-.2-.3-.3-.6-.3-1h1.9c.1.4.3.6.5.8s.6.2.9.2c.5 0 .9-.2 1.2-.5.2-.3.4-.7.4-1.2v-.9c-.2.4-.5.6-.9.8-.4.2-.8.3-1.2.3-.5 0-1-.1-1.4-.3-.4-.2-.7-.4-.9-.8-.2-.3-.4-.7-.5-1.1-.1-.4-.2-.9-.2-1.4 0-.5.1-.9.2-1.3s.3-.8.6-1.1c.3-.3.6-.6.9-.8.4-.2.8-.3 1.3-.3s.9.1 1.2.3c.3.2.6.5.9.9v-.9H46v6.5c0 .2-.1.5-.2.9zm-2.6-2.3c.2-.1.4-.3.5-.4s.3-.4.3-.7c.1-.2.1-.5.1-.7 0-.3 0-.6-.1-.8-.1-.3-.1-.5-.3-.7-.1-.2-.3-.4-.5-.5-.2-.1-.5-.2-.8-.2-.3 0-.5.1-.7.2-.2.1-.4.3-.5.4l-.3.6c-.1.2-.1.5-.1.8 0 .3 0 .5.1.8 0 .2.1.5.3.7s.3.4.5.5c.2.1.4.2.7.2.4-.1.6-.1.8-.2zM49.4 18.9c.3.3.7.4 1.2.4.4 0 .7-.1 1-.3.3-.2.5-.4.5-.6h1.7c-.3.8-.7 1.4-1.2 1.8s-1.2.5-2 .5c-.5 0-1-.1-1.5-.3-.4-.2-.8-.4-1.1-.8-.3-.3-.5-.7-.7-1.2-.2-.5-.2-.9-.2-1.5 0-.5.1-1 .3-1.5.2-.5.4-.8.7-1.2.3-.3.7-.6 1.1-.8.4-.2.9-.3 1.5-.3s1.1.1 1.6.3c.4.2.8.5 1.1.9.3.4.5.8.6 1.3.1.5.2 1 .1 1.6h-5c-.1 1 0 1.4.3 1.7zm2.2-3.7c-.2-.3-.6-.4-1-.4-.3 0-.6.1-.8.2-.2.1-.4.2-.5.4-.1.2-.2.3-.3.5 0 .2-.1.3-.1.5H52c0-.5-.2-.9-.4-1.2zM58.8 13.6v1.3h-1.4v3.5c0 .3.1.5.2.6.1.1.3.2.6.2h.6v1.5c-.2 0-.3 0-.5.1h-.6c-.3 0-.6 0-.8-.1-.3 0-.5-.1-.7-.2-.2-.1-.4-.3-.5-.5-.1-.2-.2-.5-.2-.9V15h-1.2v-1.3h1.2v-2.1h1.9v2.1h1.4zM68.2 23v-3.3c-.2.4-.5.6-.9.8-.4.2-.8.2-1.3.2-.3 0-.7-.1-1-.2-.3-.1-.7-.3-1-.6-.3-.3-.5-.7-.7-1.1-.2-.5-.3-1-.3-1.7 0-.5.1-.9.2-1.4.1-.5.3-.8.6-1.2.3-.3.6-.6 1-.8.4-.2.9-.3 1.4-.3.4 0 .8.1 1.2.2.4.2.7.4.9.8v-.9h1.8V23h-1.9zM65 17.9c.1.3.1.5.3.7.1.2.3.4.5.5.2.1.5.2.8.2s.6-.1.8-.2c.2-.1.4-.3.5-.5.1-.2.2-.4.3-.7s.1-.5.1-.8c0-.3 0-.5-.1-.8-.1-.3-.2-.5-.3-.7-.1-.2-.3-.4-.5-.5-.2-.1-.5-.2-.8-.2-.3 0-.6.1-.8.2-.2.1-.4.3-.5.5-.2.2-.3.4-.3.7-.1.3-.1.5-.1.8 0 .3 0 .6.1.8zM76.1 20.6v-1c-.2.4-.6.7-.9.9-.4.2-.8.3-1.2.3-.5 0-.9-.1-1.3-.2-.3-.1-.6-.3-.8-.6-.2-.2-.3-.5-.4-.9-.1-.4-.1-.8-.1-1.2v-4.3h1.9v3.9c0 .6.1 1 .3 1.3.2.3.5.4 1 .4s.9-.2 1.1-.5.3-.7.3-1.4v-3.7h1.9v7h-1.8zM79.2 15.8c0-.5.1-.8.3-1.1.2-.3.5-.5.8-.7.3-.2.7-.3 1-.4.4-.1.8-.1 1.2-.1.4 0 .7 0 1.1.1.4 0 .7.1 1 .3.3.1.5.3.7.6.2.3.3.6.3 1V19c0 .3 0 .6.1.9 0 .3.1.5.2.6H84c0-.1-.1-.2-.1-.3v-.3c-.3.3-.7.5-1.1.7-.4.1-.8.2-1.3.2-.3 0-.6 0-.9-.1-.3-.1-.5-.2-.8-.4-.2-.2-.4-.4-.5-.6-.3-.3-.3-.7-.3-1 0-.4.1-.7.2-1s.3-.5.5-.6c.2-.2.5-.3.8-.3.3-.1.6-.1.9-.2s.6-.1.9-.1c.3 0 .5-.1.7-.1.2-.1.4-.1.5-.2.1-.1.2-.3.2-.5s0-.4-.1-.5l-.3-.3c-.1-.1-.2-.1-.4-.1h-.5c-.4 0-.7.1-.9.2s-.3.4-.4.8h-1.9zm4.4 1.4c-.1.1-.2.1-.3.2-.1 0-.3.1-.4.1-.1 0-.3 0-.4.1s-.3 0-.5.1c-.1 0-.3.1-.4.1-.1 0-.3.1-.4.2l-.3.3c-.1.1-.1.3-.1.4 0 .2 0 .3.1.4s.1.2.3.3c.1.1.2.1.4.1h.4c.4 0 .7-.1.9-.2.2-.1.4-.3.5-.5s.2-.4.2-.5v-1.1zM88.9 10.9v9.7H87v-9.7h1.9zM90.3 12.5v-1.6h1.9v1.6h-1.9zm2 1.1v7h-1.9v-7h1.9zM97.5 13.6v1.3h-1.4v3.5c0 .3.1.5.2.6.1.1.3.2.6.2h.6v1.5c-.2 0-.3 0-.5.1h-.6c-.3 0-.6 0-.8-.1-.3 0-.5-.1-.7-.2-.2-.1-.4-.3-.5-.5-.1-.2-.2-.5-.2-.9V15H93v-1.3h1.2v-2.1h1.9v2.1h1.4zM100.9 22.7c-.4.2-.9.4-1.5.4h-1.2v-1.6c.2 0 .4 0 .6.1h.6c.3 0 .4-.1.6-.3.1-.2.2-.4.2-.6 0-.2 0-.3-.1-.4l-2.4-6.6h2l1.6 4.8 1.5-4.8h2l-2.9 7.9c-.4.4-.7.8-1 1.1zM112.1 14.9c-.3 0-.6.1-.8.2-.2.1-.4.3-.5.5-.1.2-.2.5-.3.7-.1.3-.1.5-.1.8 0 .3 0 .5.1.8.1.3.1.5.3.7.1.2.3.4.5.5.2.1.5.2.8.2.5 0 .8-.1 1.1-.4s.4-.6.5-1h1.9c-.1.9-.5 1.6-1.1 2.1-.6.5-1.4.7-2.3.7-.5 0-1-.1-1.4-.3-.4-.2-.8-.4-1.1-.7-.3-.3-.5-.7-.7-1.1-.2-.4-.3-.9-.3-1.4 0-.5.1-1 .2-1.5.2-.5.4-.9.7-1.2.3-.3.7-.6 1.1-.8.4-.2.9-.3 1.5-.3.4 0 .8.1 1.2.2.4.1.7.3 1 .5.3.2.5.5.7.8.2.3.3.7.3 1.2h-1.9c-.1-.8-.6-1.2-1.4-1.2zM116.5 15.6c.2-.5.4-.8.7-1.2.3-.3.7-.6 1.1-.7s.9-.3 1.5-.3c.5 0 1 .1 1.5.3.4.2.8.4 1.1.7.3.3.6.7.7 1.2.2.5.3 1 .3 1.5 0 .6-.1 1.1-.3 1.5-.2.5-.4.8-.7 1.2-.3.3-.7.6-1.1.7-.4.2-.9.3-1.5.3-.5 0-1-.1-1.5-.3s-.8-.4-1.1-.7c-.3-.3-.6-.7-.7-1.2-.2-.5-.3-1-.3-1.5 0-.6.1-1.1.3-1.5zm1.7 2.3c.1.3.1.5.3.7.1.2.3.4.5.5.2.1.5.2.8.2s.6-.1.8-.2c.2-.1.4-.3.5-.5.1-.2.2-.5.3-.7.1-.3.1-.5.1-.8s0-.6-.1-.8c-.1-.3-.1-.5-.3-.7-.1-.2-.3-.4-.5-.5-.2-.1-.5-.2-.8-.2s-.6.1-.8.2c-.2.1-.4.3-.5.5-.1.2-.2.4-.3.7-.1.3-.1.5-.1.8s.1.6.1.8zM126.3 20.6l-2.4-7h2l1.5 4.8 1.5-4.8h1.9l-2.4 7h-2.1zM133.5 18.9c.3.3.7.4 1.2.4.4 0 .7-.1 1-.3.3-.2.5-.4.5-.6h1.7c-.3.8-.7 1.4-1.2 1.8s-1.2.5-2 .5c-.5 0-1-.1-1.5-.3-.4-.2-.8-.4-1.1-.8-.3-.3-.5-.7-.7-1.2-.2-.5-.2-.9-.2-1.5 0-.5.1-1 .3-1.5.2-.5.4-.8.7-1.2.3-.3.7-.6 1.1-.8.4-.2.9-.3 1.5-.3s1.1.1 1.6.3c.4.2.8.5 1.1.9.3.4.5.8.6 1.3.1.5.2 1 .1 1.6h-5c-.1 1 0 1.4.3 1.7zm2.2-3.7c-.2-.3-.6-.4-1-.4-.3 0-.6.1-.8.2-.2.1-.4.2-.5.4-.1.2-.2.3-.3.5 0 .2-.1.3-.1.5h3.1c0-.5-.2-.9-.4-1.2zM140.9 13.6v1.3c.1-.2.2-.4.4-.6l.5-.5.6-.3c.2-.1.5-.1.7-.1.1 0 .3 0 .4.1v1.8h-.7c-.4 0-.6.1-.9.2s-.4.3-.6.5c-.1.2-.3.4-.3.7-.1.3-.1.6-.1.9v3.1H139v-7h1.9zM144.2 15.8c0-.5.1-.8.3-1.1.2-.3.5-.5.8-.7.3-.2.7-.3 1-.4.4-.1.8-.1 1.2-.1.4 0 .7 0 1.1.1.4 0 .7.1 1 .3.3.1.5.3.7.6.2.3.3.6.3 1V19c0 .3 0 .6.1.9 0 .3.1.5.2.6H149c0-.1-.1-.2-.1-.3v-.3c-.3.3-.7.5-1.1.7-.4.1-.8.2-1.3.2-.3 0-.6 0-.9-.1-.3-.1-.5-.2-.8-.4-.2-.2-.4-.4-.5-.6-.1-.3-.2-.6-.2-.9 0-.4.1-.7.2-1s.3-.5.5-.6c.2-.2.5-.3.8-.3.3-.1.6-.1.9-.2s.6-.1.9-.1c.3 0 .5-.1.7-.1.2-.1.4-.1.5-.2.1-.1.2-.3.2-.5s0-.4-.1-.5l-.3-.3c-.1-.1-.2-.1-.4-.1h-.5c-.4 0-.7.1-.9.2s-.3.4-.4.8h-2zm4.4 1.4c-.1.1-.2.1-.3.2-.1 0-.3.1-.4.1-.1 0-.3 0-.4.1s-.3 0-.5.1c-.1 0-.3.1-.4.1-.1 0-.3.1-.4.2l-.3.3c-.1.1-.1.3-.1.4 0 .2 0 .3.1.4s.1.2.3.3c.1.1.2.1.4.1h.4c.4 0 .7-.1.9-.2.2-.1.4-.3.5-.5s.2-.4.2-.5v-1.1zM158.5 21.1c-.1.4-.2.7-.5 1-.3.3-.6.6-1.1.8-.5.2-1.1.3-1.9.3-.3 0-.7 0-1-.1-.4-.1-.7-.2-1-.4-.3-.2-.5-.4-.7-.7-.2-.3-.3-.6-.3-1h1.9c.1.4.3.6.5.8s.6.2.9.2c.5 0 .9-.2 1.2-.5.2-.3.4-.7.4-1.2v-.9c-.2.4-.5.6-.9.8s-.8.3-1.2.3c-.5 0-1-.1-1.4-.3-.4-.2-.7-.4-.9-.8-.2-.3-.4-.7-.5-1.1-.1-.4-.2-.9-.2-1.4 0-.5.1-.9.2-1.3s.3-.8.6-1.1c.3-.3.6-.6.9-.8.4-.2.8-.3 1.3-.3s.9.1 1.2.3c.3.2.6.5.9.9v-.9h1.8v6.5c-.1.2-.1.5-.2.9zm-2.6-2.3c.2-.1.4-.3.5-.4l.3-.6c.1-.2.1-.5.1-.7 0-.3 0-.6-.1-.8-.1-.3-.1-.5-.3-.7-.1-.2-.3-.4-.5-.5s-.5-.2-.8-.2c-.3 0-.5.1-.7.2-.2.1-.4.3-.5.4l-.3.6c-.1.2-.1.5-.1.8 0 .3 0 .5.1.8 0 .2.1.5.3.7s.3.4.5.5c.2.1.4.2.7.2.3-.2.5-.2.8-.3zM162.1 18.9c.3.3.7.4 1.2.4.4 0 .7-.1 1-.3.3-.2.5-.4.5-.6h1.7c-.3.8-.7 1.4-1.2 1.8-.6.4-1.2.5-2 .5-.5 0-1-.1-1.5-.3s-.8-.4-1.1-.8c-.3-.3-.5-.7-.7-1.2-.2-.5-.2-.9-.2-1.5 0-.5.1-1 .3-1.5.2-.5.4-.8.7-1.2.3-.3.7-.6 1.1-.8.4-.2.9-.3 1.5-.3s1.1.1 1.6.3c.4.2.8.5 1.1.9.3.4.5.8.6 1.3s.2 1 .1 1.6h-5c-.2 1 0 1.4.3 1.7zm2.1-3.7c-.2-.3-.6-.4-1-.4-.3 0-.6.1-.8.2-.2.1-.4.2-.5.4-.1.2-.2.3-.3.5 0 .2-.1.3-.1.5h3.1c0-.5-.1-.9-.4-1.2zM14.3 27.6v1.3h-1.4v3.5c0 .3.1.5.2.6.1.1.3.2.6.2h.6v1.5c-.2 0-.3 0-.5.1h-.6c-.3 0-.6 0-.8-.1-.3 0-.5-.1-.7-.2-.2-.1-.4-.3-.5-.5-.2-.4-.2-.6-.2-1v-4.1H9.8v-1.3H11v-2.1h1.9v2.1h1.4zm2.7-2.7v3.6c.2-.4.6-.7.9-.9.4-.2.7-.3 1.1-.3.5 0 .9.1 1.3.2.3.1.6.3.8.6.2.2.3.5.4.9.1.4.1.8.1 1.2v4.3h-1.9v-3.9c0-.6-.1-1-.3-1.3-.2-.3-.5-.4-1-.4s-.9.2-1.1.5c-.2.3-.4.8-.4 1.5v3.7H15v-9.7h2zm7.8 4.9c0-.4.2-.6.4-.8.2-.2.5-.2.9-.2h.5c.1 0 .3.1.4.1l.3.3c.1.1.1.3.1.5s0 .3-.2.5c-.1.1-.3.2-.5.2s-.5.1-.7.1c-.3 0-.6.1-.9.1-.3 0-.6.1-.9.2-.3.1-.5.2-.8.3-.2.2-.4.4-.5.6-.1.3-.2.6-.2 1s.1.7.2.9c.1.3.3.5.5.6.2.2.5.3.8.4.3.1.6.1.9.1.4 0 .9-.1 1.3-.2s.8-.3 1.1-.7v.3c0 .1.1.2.1.3h1.9c-.1-.1-.2-.4-.2-.6 0-.3-.1-.6-.1-.9v-3.6c0-.4-.1-.8-.3-1-.2-.3-.4-.5-.7-.6-.3-.1-.6-.2-1-.3-.4 0-.7-.1-1.1-.1-.4 0-.8 0-1.2.1-.4.1-.7.2-1 .4-.3.2-.6.4-.8.7-.2.3-.3.7-.3 1.1h2zm2.5 2.1v.4c0 .2-.1.4-.2.5-.1.2-.3.3-.5.5-.2.1-.5.2-.9.2h-.4c-.1 0-.3-.1-.4-.1l-.3-.3c-.1-.1-.1-.3-.1-.4 0-.2 0-.3.1-.4.1-.1.1-.2.3-.3.1-.1.2-.1.4-.2.1 0 .3-.1.4-.1.2 0 .3 0 .5-.1.2 0 .3 0 .4-.1.1 0 .3-.1.4-.1.1 0 .2-.1.3-.2v.7zm7.1-4.3v1.3H33v3.5c0 .3.1.5.2.6s.3.2.6.2h.6v1.5c-.2 0-.3 0-.5.1h-.6c-.3 0-.6 0-.8-.1-.3 0-.5-.1-.7-.2-.2-.1-.4-.3-.5-.5-.1-.2-.2-.5-.2-.9V29h-1.2v-1.3h1.2v-2.1H33v2.1h1.4zm2.9-2.7V27c0 .3 0 .6-.1.8-.1.3-.2.5-.4.7-.2.2-.4.4-.6.5-.2.1-.5.2-.8.3v-.9c.3-.1.6-.3.7-.5.1-.2.2-.5.2-.8h-.9V25h1.9zm2.1 8c.1.1.2.3.3.4.1.1.3.2.5.2s.4.1.5.1h.4c.1 0 .3-.1.4-.1l.3-.3c.1-.1.1-.3.1-.4 0-.3-.2-.5-.6-.6-.4-.1-.9-.3-1.6-.4-.3-.1-.6-.1-.8-.2-.3-.1-.5-.2-.7-.3-.2-.1-.4-.3-.5-.5-.1-.2-.2-.5-.2-.8 0-.5.1-.8.3-1.1.2-.3.4-.5.7-.7.3-.2.6-.3 1-.4.4-.1.7-.1 1.1-.1.4 0 .7 0 1.1.1.4.1.7.2 1 .4.3.2.5.4.7.7.2.3.3.6.3 1.1h-1.8c0-.4-.2-.6-.4-.8-.3-.1-.5-.2-.9-.2h-.4c-.1 0-.2 0-.3.1-.1 0-.2.1-.3.2-.1.1-.1.2-.1.3 0 .2.1.3.2.4.1.1.3.2.5.3s.4.1.7.2c.3.1.5.1.8.2.3.1.6.1.8.2.3.1.5.2.7.4.2.1.4.3.5.6.1.2.2.5.2.8 0 .5-.1.8-.3 1.2-.2.3-.4.6-.7.8s-.6.3-1 .4c-.4.1-.8.1-1.2.1-.4 0-.8 0-1.2-.1-.4-.1-.7-.2-1-.4-.3-.2-.5-.4-.7-.8-.2-.3-.3-.7-.3-1.2h1.8c0-.2 0 0 .1.2zm11-3.1c0-.4.2-.6.4-.8.2-.2.5-.2.9-.2h.5c.1 0 .3.1.4.1l.3.3c.1.1.1.3.1.5s0 .3-.2.5c-.1.1-.3.2-.5.2-.2.1-.5.1-.7.1-.3 0-.6.1-.9.1-.3 0-.6.1-.9.2-.3.1-.5.2-.8.3-.2.2-.4.4-.5.6-.1.3-.2.6-.2 1s.1.7.2.9c.1.3.3.5.5.6.2.2.5.3.8.4.3.1.6.1.9.1.4 0 .9-.1 1.3-.2s.8-.3 1.1-.7v.3c0 .1.1.2.1.3h1.9c-.1-.1-.2-.4-.2-.6 0-.3-.1-.6-.1-.9v-3.6c0-.4-.1-.8-.3-1-.2-.3-.4-.5-.7-.6-.3-.1-.6-.2-1-.3-.4 0-.7-.1-1.1-.1-.4 0-.8 0-1.2.1-.4.1-.7.2-1 .4-.3.2-.6.4-.8.7-.2.3-.3.7-.3 1.1h2zm2.5 2.1v.4c0 .2-.1.4-.2.5-.1.2-.3.3-.5.5-.2.1-.5.2-.9.2h-.4c-.1 0-.3-.1-.4-.1l-.3-.3c-.1-.1-.1-.3-.1-.4 0-.2 0-.3.1-.4.1-.1.1-.2.3-.3.1-.1.2-.1.4-.2.1 0 .3-.1.4-.1.2 0 .3 0 .5-.1.2 0 .3 0 .4-.1.1 0 .3-.1.4-.1.1 0 .2-.1.3-.2v.7zm5.3-7v9.7h-1.9v-9.7h1.9zm3 8c.1.1.2.3.3.4.1.1.3.2.5.2s.4.1.5.1h.4c.1 0 .3-.1.4-.1l.3-.3c.1-.1.1-.3.1-.4 0-.3-.2-.5-.6-.6-.4-.1-.9-.3-1.6-.4-.3-.1-.6-.1-.8-.2-.3-.1-.5-.2-.7-.3-.2-.1-.4-.3-.5-.5-.1-.2-.2-.5-.2-.8 0-.5.1-.8.3-1.1.2-.3.4-.5.7-.7.3-.2.6-.3 1-.4.4-.1.7-.1 1.1-.1s.7 0 1.1.1c.4.1.7.2 1 .4.3.2.5.4.7.7.2.3.3.6.3 1.1h-1.8c0-.4-.2-.6-.4-.8-.3-.1-.5-.2-.9-.2H62c-.1 0-.2 0-.3.1-.1 0-.2.1-.3.2-.1.1-.1.2-.1.3 0 .2.1.3.2.4.1.1.3.2.5.3.2.1.4.1.7.2.3.1.5.1.8.2.3.1.6.1.8.2.3.1.5.2.7.4.2.1.4.3.5.6.1.2.2.5.2.8 0 .5-.1.8-.3 1.2-.2.3-.4.6-.7.8-.3.2-.6.3-1 .4-.4.1-.8.1-1.2.1-.4 0-.8 0-1.2-.1-.4-.1-.7-.2-1-.4-.3-.2-.5-.4-.7-.8-.2-.3-.3-.7-.3-1.2H61c0-.2.1 0 .2.2zm5.5-3.3c.2-.5.4-.8.7-1.2.3-.3.7-.6 1.1-.7.4-.2.9-.3 1.5-.3.5 0 1 .1 1.5.3s.8.4 1.1.7c.3.3.6.7.7 1.2.2.5.3 1 .3 1.5 0 .6-.1 1.1-.3 1.5-.2.5-.4.8-.7 1.2-.3.3-.7.6-1.1.7-.4.2-.9.3-1.5.3-.5 0-1-.1-1.5-.3-.4-.2-.8-.4-1.1-.7-.3-.3-.6-.7-.7-1.2-.2-.5-.3-1-.3-1.5 0-.6.1-1.1.3-1.5zm1.7 2.3c.1.3.1.5.3.7.1.2.3.4.5.5.2.1.5.2.8.2.3 0 .6-.1.8-.2.2-.1.4-.3.5-.5.1-.2.2-.5.3-.7.1-.3.1-.5.1-.8 0-.3 0-.6-.1-.8-.1-.3-.1-.5-.3-.7-.1-.2-.3-.4-.5-.5-.2-.1-.5-.2-.8-.2-.3 0-.6.1-.8.2-.2.1-.4.3-.5.5-.1.2-.2.4-.3.7-.1.3-.1.5-.1.8.1.3.1.6.1.8zm11.8-2.1c0-.4.2-.6.4-.8.2-.2.5-.2.9-.2h.5c.1 0 .3.1.4.1l.3.3c.1.1.1.3.1.5s0 .3-.2.5c-.1.1-.3.2-.5.2s-.5.1-.7.1c-.3 0-.6.1-.9.1-.3 0-.6.1-.9.2-.3.1-.5.2-.8.3-.2.2-.4.4-.5.6-.1.3-.2.6-.2 1s.1.7.2.9c.1.3.3.5.5.6.2.2.5.3.8.4.3.1.6.1.9.1.4 0 .9-.1 1.3-.2s.8-.3 1.1-.7v.3c0 .1.1.2.1.3h1.9c-.1-.1-.2-.4-.2-.6 0-.3-.1-.6-.1-.9v-3.6c0-.4-.1-.8-.3-1-.2-.3-.4-.5-.7-.6-.3-.1-.6-.2-1-.3-.4 0-.7-.1-1.1-.1-.4 0-.8 0-1.2.1-.4.1-.7.2-1 .4-.3.2-.6.4-.8.7-.2.3-.3.7-.3 1.1h2zm2.6 2.1v.4c0 .2-.1.4-.2.5-.1.2-.3.3-.5.5-.2.1-.5.2-.9.2h-.4c-.1 0-.3-.1-.4-.1l-.3-.3c-.1-.1-.1-.3-.1-.4 0-.2 0-.3.1-.4.1-.1.1-.2.3-.3.1-.1.2-.1.4-.2.1 0 .3-.1.4-.1.2 0 .3 0 .5-.1.2 0 .3 0 .4-.1.1 0 .3-.1.4-.1.1 0 .2-.1.3-.2v.7zm7.7 2.7h1.9v-5.7h1.3v-1.3h-1.3v-.4c0-.3.1-.5.2-.6.1-.1.3-.2.6-.2h.7V25h-1c-.8 0-1.4.2-1.8.6-.4.4-.6.9-.6 1.5v.5h-2.2v-.4c0-.3.1-.5.2-.6.1-.1.3-.2.6-.2h.7V25h-1c-.8 0-1.4.2-1.8.6-.4.4-.6.9-.6 1.5v.5h-1.1v1.3h1.1v5.7h1.9v-5.7h2.2v5.7zm4-5c.2-.5.4-.8.7-1.2.3-.3.7-.6 1.1-.7.4-.2.9-.3 1.5-.3.5 0 1 .1 1.5.3s.8.4 1.1.7c.3.3.6.7.7 1.2.2.5.3 1 .3 1.5 0 .6-.1 1.1-.3 1.5-.2.5-.4.8-.7 1.2-.3.3-.7.6-1.1.7-.4.2-.9.3-1.5.3-.5 0-1-.1-1.5-.3-.4-.2-.8-.4-1.1-.7-.3-.3-.6-.7-.7-1.2-.2-.5-.3-1-.3-1.5.1-.6.2-1.1.3-1.5zm1.8 2.3c.1.3.1.5.3.7.1.2.3.4.5.5.2.1.5.2.8.2.3 0 .6-.1.8-.2.2-.1.4-.3.5-.5.1-.2.2-.5.3-.7.1-.3.1-.5.1-.8 0-.3 0-.6-.1-.8-.1-.3-.1-.5-.3-.7-.1-.2-.3-.4-.5-.5-.2-.1-.5-.2-.8-.2-.3 0-.6.1-.8.2-.2.1-.4.3-.5.5-.1.2-.2.4-.3.7-.1.3-.1.5-.1.8 0 .3 0 .6.1.8zm8.1-4.3v1.3c.1-.2.2-.4.4-.6l.5-.5.6-.3c.2-.1.5-.1.7-.1.1 0 .3 0 .4.1v1.8h-.7c-.4 0-.6.1-.9.2-.2.1-.4.3-.6.5s-.3.4-.3.7c-.1.3-.1.6-.1.9v3.1h-1.9v-7h1.9zm8.1 6.1c-.2.4-.5.7-.9.8s-.8.3-1.2.3c-.5 0-1-.1-1.4-.3-.4-.2-.7-.5-1-.8-.3-.3-.5-.7-.6-1.2-.1-.5-.2-.9-.2-1.4 0-.5.1-.9.2-1.4.1-.4.3-.8.6-1.2.3-.3.6-.6 1-.8.4-.2.8-.3 1.4-.3.4 0 .8.1 1.2.3.4.2.7.4.9.8V25h1.9v9.7h-1.8l-.1-1zm-.1-3.5c-.1-.3-.1-.5-.3-.7-.1-.2-.3-.4-.5-.5-.2-.1-.5-.2-.8-.2-.3 0-.6.1-.8.2-.2.1-.4.3-.5.5-.1.2-.2.4-.3.7-.1.3-.1.5-.1.8 0 .3 0 .5.1.8.1.3.2.5.3.7.1.2.3.4.5.5.2.1.5.2.8.2.3 0 .6-.1.8-.2.2-.1.4-.3.5-.5.1-.2.2-.5.3-.7.1-.3.1-.5.1-.8 0-.2-.1-.5-.1-.8zm5.1-.4c0-.4.2-.6.4-.8.2-.2.5-.2.9-.2h.5c.1 0 .3.1.4.1l.3.3c.1.1.1.3.1.5s0 .3-.2.5c-.1.1-.3.2-.5.2s-.5.1-.7.1c-.3 0-.6.1-.9.1-.3 0-.6.1-.9.2-.3.1-.5.2-.8.3-.2.2-.4.4-.5.6-.1.3-.2.6-.2 1s.1.7.2.9c.1.3.3.5.5.6.2.2.5.3.8.4.3.1.6.1.9.1.4 0 .9-.1 1.3-.2s.8-.3 1.1-.7v.3c0 .1.1.2.1.3h1.9c-.1-.1-.2-.4-.2-.6 0-.3-.1-.6-.1-.9v-3.6c0-.4-.1-.8-.3-1-.2-.3-.4-.5-.7-.6-.3-.1-.6-.2-1-.3-.4 0-.7-.1-1.1-.1-.4 0-.8 0-1.2.1-.4.1-.7.2-1 .4-.3.2-.6.4-.8.7-.2.3-.3.7-.3 1.1h2zm2.5 2.1v.4c0 .2-.1.4-.2.5-.1.2-.3.3-.5.5-.2.1-.5.2-.9.2h-.4c-.1 0-.3-.1-.4-.1l-.3-.3c-.1-.1-.1-.3-.1-.4 0-.2 0-.3.1-.4.1-.1.1-.2.3-.3.1-.1.2-.1.4-.2.1 0 .3-.1.4-.1.2 0 .3 0 .5-.1.2 0 .3 0 .4-.1.1 0 .3-.1.4-.1.1 0 .2-.1.3-.2v.7zm5.2-7v3.5c.2-.4.6-.6 1-.8.4-.2.8-.3 1.3-.3.4 0 .7.1 1 .2.3.1.7.4.9.7.3.3.5.7.7 1.1.2.5.3 1 .3 1.7 0 .6-.1 1.2-.3 1.7-.2.5-.4.8-.7 1.1-.3.3-.6.5-.9.7-.3.1-.7.2-1 .2-.5 0-1-.1-1.4-.2-.4-.2-.7-.4-.9-.8v.9h-1.8v-9.7h1.8zm3.1 5.4c-.1-.3-.2-.5-.3-.7-.1-.2-.3-.4-.5-.5-.2-.1-.4-.2-.7-.2-.3 0-.5.1-.7.2-.2.1-.4.3-.5.5-.1.2-.2.4-.3.7-.1.3-.1.6-.1.9 0 .3 0 .6.1.8.1.3.2.5.3.7.1.2.3.4.5.5.2.1.5.2.7.2.3 0 .5-.1.7-.2.2-.1.4-.3.5-.5.1-.2.2-.4.3-.7.1-.3.1-.5.1-.8 0-.4-.1-.7-.1-.9zm5-5.4v9.7h-1.9v-9.7h1.9zm3.5 8c.3.3.7.4 1.2.4.4 0 .7-.1 1-.3.3-.2.5-.4.5-.6h1.7c-.3.8-.7 1.4-1.2 1.8-.6.4-1.2.5-2 .5-.5 0-1-.1-1.5-.3-.4-.2-.8-.4-1.1-.8-.3-.3-.5-.7-.7-1.2-.2-.5-.3-.9-.3-1.5 0-.5.1-1 .3-1.5.2-.5.4-.8.7-1.2.3-.3.7-.6 1.1-.8.4-.2.9-.3 1.5-.3s1.1.1 1.6.3c.4.2.8.5 1.1.9.3.4.5.8.6 1.3.1.5.2 1 .1 1.6h-5c-.1 1 .1 1.4.4 1.7zm2.1-3.7c-.2-.3-.6-.4-1-.4-.3 0-.6.1-.8.2-.2.1-.4.2-.5.4-.1.2-.2.3-.3.5 0 .2-.1.3-.1.5h3.1c0-.5-.1-.9-.4-1.2zm5.6 3.3v2.1h-2.1v-2.1h2.1z"/></svg>