<svg xmlns="http://www.w3.org/2000/svg" viewBox="0 0 300 250"><path d="M67.8 82.2l7.5 20h-4.6l-1.5-4.5h-7.5l-1.6 4.5h-4.4l7.6-20h4.5zm.2 12.3l-2.5-7.3h-.1l-2.6 7.3H68zM85.6 82.2c1.3 0 2.5.2 3.6.6 1.1.4 2.1 1 2.9 1.8s1.4 1.8 1.9 3.1c.5 1.2.7 2.7.7 4.3 0 1.5-.2 2.8-.6 4s-.9 2.3-1.7 3.2-1.7 1.6-2.8 2.1c-1.1.5-2.5.8-4 .8H77v-20h8.6zm-.3 16.3c.6 0 1.3-.1 1.8-.3.6-.2 1.1-.5 1.6-1s.8-1.1 1.1-1.9c.3-.8.4-1.7.4-2.8 0-1-.1-1.9-.3-2.7s-.5-1.5-1-2.1c-.4-.6-1-1-1.8-1.3s-1.6-.5-2.7-.5h-3.1v12.6h4zM107.7 82.2l7.5 20h-4.6l-1.5-4.5h-7.5l-1.6 4.5h-4.4l7.6-20h4.5zm.2 12.3l-2.5-7.3h-.1l-2.6 7.3h5.2zM133.3 82.2c1.3 0 2.5.2 3.6.6 1.1.4 2.1 1 2.9 1.8s1.4 1.8 1.9 3.1c.5 1.2.7 2.7.7 4.3 0 1.5-.2 2.8-.6 4s-.9 2.3-1.7 3.2-1.7 1.6-2.8 2.1c-1.1.5-2.5.8-4 .8h-8.6v-20h8.6zm-.3 16.3c.6 0 1.3-.1 1.8-.3.6-.2 1.1-.5 1.6-1s.8-1.1 1.1-1.9c.3-.8.4-1.7.4-2.8 0-1-.1-1.9-.3-2.7s-.5-1.5-1-2.1c-.4-.6-1-1-1.8-1.3s-1.6-.5-2.7-.5H129v12.6h4zM145.1 85.5v-3.3h4v3.3h-4zm4 2.2v14.5h-4V87.7h4zM155.6 98.6c.2.3.4.6.7.8.3.2.6.3 1 .4.4.1.7.1 1.1.1.3 0 .6 0 .9-.1.3-.1.6-.2.8-.3.3-.1.5-.3.6-.6s.3-.5.3-.9c0-.6-.4-1-1.2-1.3-.8-.3-1.9-.6-3.3-.9-.6-.1-1.1-.3-1.7-.5-.6-.2-1-.4-1.5-.7-.4-.3-.8-.7-1-1.1-.3-.4-.4-1-.4-1.6 0-.9.2-1.7.5-2.3.4-.6.8-1.1 1.4-1.4.6-.3 1.3-.6 2-.7.7-.1 1.5-.2 2.3-.2s1.5.1 2.3.2c.7.1 1.4.4 2 .8.6.4 1.1.8 1.4 1.4.4.6.6 1.3.7 2.2h-3.8c-.1-.8-.3-1.3-.9-1.6s-1.1-.4-1.8-.4h-.7c-.3 0-.5.1-.7.2-.2.1-.4.2-.5.4-.1.2-.2.4-.2.7 0 .4.1.6.4.9s.6.4 1 .5c.4.1.9.3 1.4.4.5.1 1.1.2 1.7.4.6.1 1.1.3 1.7.5.5.2 1 .4 1.5.7.4.3.8.7 1 1.1.3.5.4 1 .4 1.7 0 1-.2 1.8-.6 2.4-.4.6-.9 1.2-1.5 1.6-.6.4-1.3.7-2.1.8-.8.2-1.6.2-2.4.2-.8 0-1.7-.1-2.5-.3-.8-.2-1.5-.4-2.1-.8s-1.1-.9-1.5-1.6c-.4-.6-.6-1.5-.7-2.4h3.8c-.1.7 0 1 .2 1.3zM167.1 92.2c.1-.9.3-1.7.7-2.3.4-.6.9-1.1 1.6-1.5.6-.4 1.3-.6 2.1-.8.8-.2 1.6-.2 2.4-.2.7 0 1.5.1 2.2.2.7.1 1.4.3 2 .6.6.3 1.1.7 1.5 1.2.4.5.6 1.2.6 2.1V99c0 .7 0 1.3.1 1.9.1.6.2 1 .4 1.3h-4c-.1-.2-.1-.5-.2-.7 0-.2-.1-.5-.1-.7-.6.7-1.4 1.1-2.2 1.4s-1.7.4-2.6.4c-.7 0-1.3-.1-1.9-.3s-1.1-.4-1.6-.8-.8-.8-1-1.3c-.3-.5-.4-1.2-.4-1.9 0-.8.1-1.5.4-2 .3-.5.7-1 1.1-1.3.5-.3 1-.6 1.6-.7.6-.2 1.2-.3 1.8-.4.6-.1 1.2-.2 1.8-.2.6-.1 1.1-.1 1.5-.3.4-.1.8-.3 1.1-.5.3-.2.4-.5.4-.9s-.1-.8-.2-1c-.1-.3-.3-.4-.6-.6s-.5-.2-.8-.3c-.3 0-.6-.1-1-.1-.8 0-1.4.2-1.8.5-.4.3-.7.9-.8 1.7h-4.1zm9.2 2.9c-.2.1-.4.3-.6.4s-.5.2-.8.2c-.3.1-.6.1-.9.1s-.6.1-1 .1c-.3.1-.6.1-.9.2-.3.1-.5.2-.8.4-.2.2-.4.4-.5.6-.1.2-.2.6-.2.9 0 .4.1.7.2.9.1.2.3.4.5.6.2.1.5.2.8.3s.6.1.9.1c.8 0 1.4-.1 1.8-.4.4-.3.7-.6 1-.9.2-.4.3-.7.4-1.1 0-.4.1-.7.1-.9v-1.5zM187.3 82.2v7.3h.1c.5-.7 1.1-1.3 2-1.6.8-.3 1.7-.5 2.6-.5.7 0 1.4.1 2.2.4.7.3 1.3.8 1.9 1.4.6.6 1 1.4 1.4 2.4.4 1 .5 2.1.5 3.4 0 1.3-.2 2.5-.5 3.4-.4 1-.8 1.8-1.4 2.4-.6.6-1.2 1.1-1.9 1.4-.7.3-1.4.4-2.2.4-1.1 0-2-.2-2.9-.5s-1.5-.9-1.9-1.7h-.1v1.8h-3.8v-20h4zm6.5 11c-.1-.6-.3-1.1-.6-1.5-.3-.4-.6-.8-1-1s-.9-.4-1.5-.4-1.1.1-1.5.4-.8.6-1.1 1c-.3.4-.5.9-.6 1.5-.1.6-.2 1.1-.2 1.8 0 .6.1 1.2.2 1.7.1.6.3 1.1.6 1.5.3.4.6.8 1.1 1s.9.4 1.5.4 1.1-.1 1.5-.4.8-.6 1-1c.3-.4.5-.9.6-1.5.1-.6.2-1.1.2-1.7 0-.6-.1-1.2-.2-1.8zM200.6 85.5v-3.3h4v3.3h-4zm3.9 2.2v14.5h-4V87.7h4zM211.8 82.2v20h-4v-20h4zM215 85.5v-3.3h4v3.3h-4zm4 2.2v14.5h-4V87.7h4zM230.1 87.7v2.7h-2.9v7.2c0 .7.1 1.1.3 1.3.2.2.7.3 1.3.3h.6c.2 0 .4 0 .6-.1v3.1c-.3.1-.7.1-1.1.1h-1.2c-.6 0-1.2 0-1.8-.1s-1-.2-1.5-.5c-.4-.2-.8-.6-1-1-.2-.4-.4-1-.4-1.8v-8.5h-2.4v-2.7h2.4v-4.3h4v4.3h3.1zM237.3 106.5c-.8.5-1.8.8-3.2.8h-1.2c-.4 0-.8-.1-1.2-.1v-3.3c.4 0 .8.1 1.1.1h1.2c.5-.1.9-.3 1.2-.6s.4-.7.4-1.2c0-.3-.1-.6-.2-.9l-5.1-13.6h4.2l3.3 9.9h.1l3.2-9.9h4.1l-6 16.3c-.5 1.2-1.1 2-1.9 2.5z"/><g><path d="M33.7 111.2v20h-4.4v-20h4.4zM40.9 116.8v2h.1c.5-.8 1.2-1.5 2-1.8.8-.4 1.6-.6 2.5-.6 1.1 0 1.9.1 2.6.4.7.3 1.2.7 1.6 1.2.4.5.7 1.1.8 1.9.2.7.2 1.6.2 2.5v8.9h-4v-8.2c0-1.2-.2-2.1-.6-2.7-.4-.6-1-.9-2-.9-1.1 0-1.9.3-2.4 1s-.7 1.7-.7 3.2v7.6h-4v-14.5h3.9zM60.6 119.4c-.6 0-1.2.1-1.6.4-.4.3-.8.7-1 1.1-.3.5-.5 1-.6 1.5-.1.6-.2 1.1-.2 1.6s.1 1.1.2 1.6.3 1 .5 1.5.6.8 1 1.1c.4.3 1 .4 1.6.4 1 0 1.7-.3 2.2-.8.5-.5.8-1.2 1-2.1h3.8c-.3 1.9-1 3.4-2.2 4.4-1.2 1-2.8 1.5-4.7 1.5-1.1 0-2.1-.2-3-.5-.9-.4-1.7-.9-2.3-1.5-.6-.7-1.1-1.4-1.5-2.3-.4-.9-.5-1.9-.5-3s.2-2.2.5-3.1c.3-1 .8-1.8 1.4-2.5.6-.7 1.4-1.2 2.3-1.6.9-.4 2-.6 3.1-.6.9 0 1.7.1 2.5.3.8.2 1.5.6 2.1 1 .6.5 1.1 1 1.5 1.7.4.7.6 1.5.7 2.4h-3.9c-.2-1.7-1.2-2.5-2.9-2.5zM69.9 120.9c.4-.9.9-1.7 1.5-2.4.7-.7 1.4-1.2 2.4-1.5.9-.4 1.9-.5 3.1-.5 1.1 0 2.2.2 3.1.5.9.4 1.7.9 2.4 1.5.7.7 1.2 1.5 1.5 2.4.4.9.5 2 .5 3.1 0 1.2-.2 2.2-.5 3.1-.4.9-.9 1.7-1.5 2.4-.7.7-1.4 1.2-2.4 1.5-.9.4-2 .5-3.1.5s-2.2-.2-3.1-.5-1.7-.9-2.4-1.5c-.7-.7-1.2-1.5-1.5-2.4-.4-.9-.5-2-.5-3.1-.1-1.1.1-2.2.5-3.1zm3.6 4.8c.1.6.3 1 .6 1.5.3.4.6.8 1.1 1 .4.3 1 .4 1.7.4s1.2-.1 1.7-.4c.5-.3.8-.6 1.1-1 .3-.4.5-.9.6-1.5.1-.5.2-1.1.2-1.7 0-.6-.1-1.1-.2-1.7-.1-.6-.3-1.1-.6-1.5-.3-.4-.6-.8-1.1-1s-1-.4-1.7-.4-1.2.1-1.7.4c-.4.3-.8.6-1.1 1-.3.4-.5.9-.6 1.5s-.2 1.1-.2 1.7c0 .6.1 1.2.2 1.7zM90.8 116.8v2h.1c.5-.7 1.2-1.3 1.9-1.7s1.6-.6 2.5-.6c.9 0 1.8.2 2.5.5.8.4 1.3 1 1.7 1.9.4-.6 1-1.2 1.8-1.7.7-.5 1.6-.7 2.6-.7.8 0 1.5.1 2.1.3.7.2 1.2.5 1.7.9s.8.9 1.1 1.6c.3.7.4 1.5.4 2.4v9.7h-4V123c0-.5 0-.9-.1-1.4 0-.4-.1-.8-.3-1.1s-.4-.6-.7-.8c-.3-.2-.8-.3-1.3-.3s-1 .1-1.4.3c-.3.2-.6.5-.8.8-.2.3-.3.7-.4 1.2-.1.4-.1.9-.1 1.3v8.1h-4V123v-1.3c0-.4-.1-.8-.2-1.2-.1-.4-.4-.6-.7-.9-.3-.2-.8-.3-1.4-.3-.2 0-.4 0-.7.1s-.6.2-.9.5c-.3.2-.5.6-.7 1-.2.4-.3 1-.3 1.7v8.4h-4v-14.5h3.6zM116.5 127.8c.6.6 1.5.9 2.6.9.8 0 1.5-.2 2.1-.6.6-.4.9-.8 1.1-1.3h3.5c-.6 1.7-1.4 3-2.6 3.7-1.2.7-2.6 1.1-4.2 1.1-1.1 0-2.2-.2-3.1-.5-.9-.4-1.7-.9-2.3-1.6s-1.1-1.5-1.5-2.4c-.3-.9-.5-2-.5-3.1s.2-2.1.5-3c.4-.9.9-1.7 1.5-2.4.7-.7 1.4-1.2 2.3-1.6.9-.4 1.9-.6 3-.6 1.2 0 2.3.2 3.2.7.9.5 1.7 1.1 2.3 1.9.6.8 1 1.7 1.3 2.7.3 1 .4 2.1.3 3.2h-10.4c0 1.3.3 2.3.9 2.9zm4.5-7.7c-.5-.5-1.2-.8-2.2-.8-.6 0-1.2.1-1.6.3-.4.2-.8.5-1 .8s-.4.7-.5 1c-.1.4-.2.7-.2 1h6.5c-.2-1-.5-1.7-1-2.3zM145.5 111.2c1.2 0 2.3.2 3.2.5.9.4 1.6.8 2.1 1.4.6.6 1 1.3 1.2 2 .3.8.4 1.6.4 2.4 0 .8-.1 1.6-.4 2.4-.3.8-.7 1.5-1.2 2.1-.6.6-1.3 1.1-2.1 1.4-.9.4-1.9.5-3.2.5h-4.6v7.2h-4.4v-20h9zm-1.2 9.4c.5 0 1 0 1.5-.1s.9-.2 1.2-.4c.4-.2.6-.5.9-.9s.3-.9.3-1.5-.1-1.1-.3-1.5-.5-.7-.9-.9c-.4-.2-.8-.4-1.2-.4s-1-.1-1.5-.1h-3.4v6h3.4zM158.6 116.8v2.7h.1c.2-.4.4-.9.8-1.2.3-.4.7-.7 1.1-1 .4-.3.8-.5 1.3-.6.5-.1 1-.2 1.5-.2.3 0 .6 0 .9.1v3.7c-.2 0-.4-.1-.7-.1h-.8c-.7 0-1.3.1-1.8.4-.5.2-.9.6-1.2 1-.3.4-.5.9-.7 1.5-.1.6-.2 1.2-.2 1.8v6.5h-4v-14.5h3.7zM165.3 120.9c.4-.9.9-1.7 1.5-2.4.7-.7 1.4-1.2 2.4-1.5.9-.4 1.9-.5 3.1-.5s2.2.2 3.1.5c.9.4 1.7.9 2.4 1.5.7.7 1.2 1.5 1.5 2.4.4.9.5 2 .5 3.1 0 1.2-.2 2.2-.5 3.1s-.9 1.7-1.5 2.4c-.7.7-1.4 1.2-2.4 1.5s-2 .5-3.1.5-2.2-.2-3.1-.5c-.9-.4-1.7-.9-2.4-1.5-.7-.7-1.2-1.5-1.5-2.4s-.5-2-.5-3.1c-.1-1.1.1-2.2.5-3.1zm3.6 4.8c.1.6.3 1 .6 1.5.3.4.6.8 1.1 1 .4.3 1 .4 1.7.4s1.2-.1 1.7-.4c.5-.3.8-.6 1.1-1s.5-.9.6-1.5c.1-.5.2-1.1.2-1.7 0-.6-.1-1.1-.2-1.7-.1-.6-.3-1.1-.6-1.5-.3-.4-.6-.8-1.1-1-.5-.3-1-.4-1.7-.4s-1.2.1-1.7.4c-.4.3-.8.6-1.1 1-.3.4-.5.9-.6 1.5s-.2 1.1-.2 1.7c0 .6.1 1.2.2 1.7zM190.2 116.8v2.7h-2.9v7.2c0 .7.1 1.1.3 1.3.2.2.7.3 1.3.3h.6c.2 0 .4 0 .6-.1v3.1c-.3.1-.7.1-1.1.1h-1.2c-.6 0-1.2 0-1.8-.1s-1-.2-1.5-.5c-.4-.2-.8-.6-1-1-.2-.4-.4-1-.4-1.8v-8.5h-2.4v-2.7h2.4v-4.3h4v4.3h3.1zM196.4 127.8c.6.6 1.5.9 2.6.9.8 0 1.5-.2 2.1-.6.6-.4.9-.8 1.1-1.3h3.5c-.6 1.7-1.4 3-2.6 3.7-1.2.7-2.6 1.1-4.2 1.1-1.1 0-2.2-.2-3.1-.5-.9-.4-1.7-.9-2.3-1.6s-1.1-1.5-1.5-2.4c-.3-.9-.5-2-.5-3.1s.2-2.1.5-3c.4-.9.9-1.7 1.5-2.4.7-.7 1.4-1.2 2.3-1.6.9-.4 1.9-.6 3-.6 1.2 0 2.3.2 3.2.7.9.5 1.7 1.1 2.3 1.9s1 1.7 1.3 2.7c.3 1 .4 2.1.3 3.2h-10.4c0 1.3.3 2.3.9 2.9zm4.5-7.7c-.5-.5-1.2-.8-2.2-.8-.6 0-1.2.1-1.6.3-.4.2-.8.5-1 .8s-.4.7-.5 1c-.1.4-.2.7-.2 1h6.5c-.2-1-.5-1.7-1-2.3zM215.1 119.4c-.6 0-1.2.1-1.6.4-.4.3-.8.7-1 1.1-.3.5-.5 1-.6 1.5-.1.6-.2 1.1-.2 1.6s.1 1.1.2 1.6.3 1 .5 1.5.6.8 1 1.1c.4.3 1 .4 1.6.4 1 0 1.7-.3 2.2-.8.5-.5.8-1.2 1-2.1h3.8c-.3 1.9-1 3.4-2.2 4.4-1.2 1-2.8 1.5-4.7 1.5-1.1 0-2.1-.2-3-.5-.9-.4-1.7-.9-2.3-1.5s-1.1-1.4-1.5-2.3-.5-1.9-.5-3 .2-2.2.5-3.1c.3-1 .8-1.8 1.4-2.5.6-.7 1.4-1.2 2.3-1.6.9-.4 2-.6 3.1-.6.9 0 1.7.1 2.5.3.8.2 1.5.6 2.1 1 .6.5 1.1 1 1.5 1.7.4.7.6 1.5.7 2.4H218c-.2-1.7-1.2-2.5-2.9-2.5zM232.2 116.8v2.7h-2.9v7.2c0 .7.1 1.1.3 1.3.2.2.7.3 1.3.3h.6c.2 0 .4 0 .6-.1v3.1c-.3.1-.7.1-1.1.1h-1.2c-.6 0-1.2 0-1.8-.1s-1-.2-1.5-.5c-.4-.2-.8-.6-1-1-.2-.4-.4-1-.4-1.8v-8.5h-2.4v-2.7h2.4v-4.3h4v4.3h3.1zM234.2 114.5v-3.3h4v3.3h-4zm4 2.3v14.5h-4v-14.5h4zM241.4 120.9c.4-.9.9-1.7 1.5-2.4.7-.7 1.4-1.2 2.4-1.5.9-.4 1.9-.5 3.1-.5s2.2.2 3.1.5c.9.4 1.7.9 2.4 1.5.7.7 1.2 1.5 1.5 2.4.4.9.5 2 .5 3.1 0 1.2-.2 2.2-.5 3.1s-.9 1.7-1.5 2.4c-.7.7-1.4 1.2-2.4 1.5s-2 .5-3.1.5-2.2-.2-3.1-.5c-.9-.4-1.7-.9-2.4-1.5-.7-.7-1.2-1.5-1.5-2.4s-.5-2-.5-3.1.2-2.2.5-3.1zm3.7 4.8c.1.6.3 1 .6 1.5.3.4.6.8 1.1 1 .4.3 1 .4 1.7.4s1.2-.1 1.7-.4c.5-.3.8-.6 1.1-1s.5-.9.6-1.5c.1-.5.2-1.1.2-1.7 0-.6-.1-1.1-.2-1.7-.1-.6-.3-1.1-.6-1.5-.3-.4-.6-.8-1.1-1-.5-.3-1-.4-1.7-.4s-1.2.1-1.7.4c-.4.3-.8.6-1.1 1-.3.4-.5.9-.6 1.5s-.2 1.1-.2 1.7c0 .6 0 1.2.2 1.7zM262.2 116.8v2h.1c.5-.8 1.2-1.5 2-1.8.8-.4 1.6-.6 2.5-.6 1.1 0 1.9.1 2.6.4.7.3 1.2.7 1.6 1.2.4.5.7 1.1.8 1.9.2.7.2 1.6.2 2.5v8.9h-4v-8.2c0-1.2-.2-2.1-.6-2.7s-1-.9-2-.9c-1.1 0-1.9.3-2.4 1s-.7 1.7-.7 3.2v7.6h-4v-14.5h3.9z"/></g><g><path d="M90.7 140.2v20h-4.4v-20h4.4zM97.9 145.8v2h.1c.5-.8 1.2-1.5 2-1.8.8-.4 1.6-.6 2.5-.6 1.1 0 1.9.1 2.6.4.7.3 1.2.7 1.6 1.2.4.5.7 1.1.8 1.9.2.7.2 1.6.2 2.4v8.9h-4V152c0-1.2-.2-2.1-.6-2.7-.4-.6-1-.9-2-.9-1.1 0-1.9.3-2.4 1-.5.6-.7 1.7-.7 3.2v7.6h-4v-14.5h3.9zM114.1 156.6c.2.3.4.6.7.8.3.2.6.3 1 .4.4.1.7.1 1.1.1.3 0 .6 0 .9-.1s.6-.2.8-.3c.3-.1.5-.3.6-.6.2-.2.3-.5.3-.9 0-.6-.4-1-1.2-1.3-.8-.3-1.9-.6-3.3-.9-.6-.1-1.1-.3-1.7-.5-.6-.2-1-.4-1.5-.7-.4-.3-.8-.7-1-1.1-.3-.4-.4-1-.4-1.6 0-.9.2-1.7.5-2.3.4-.6.8-1.1 1.4-1.4.6-.3 1.3-.6 2-.7.7-.1 1.5-.2 2.3-.2.8 0 1.5.1 2.3.2.7.1 1.4.4 2 .8.6.4 1.1.8 1.4 1.4.4.6.6 1.3.7 2.2h-3.8c-.1-.8-.3-1.3-.9-1.6-.5-.3-1.1-.4-1.8-.4h-.7c-.3 0-.5.1-.7.2-.2.1-.4.2-.5.4-.1.2-.2.4-.2.7 0 .4.1.6.4.9.3.2.6.4 1 .5.4.1.9.3 1.4.4.5.1 1.1.2 1.7.4.6.1 1.1.3 1.7.5.6.2 1 .4 1.5.7.4.3.8.7 1 1.1.3.5.4 1 .4 1.7 0 1-.2 1.8-.6 2.4-.4.6-.9 1.2-1.5 1.6-.6.4-1.3.7-2.1.8-.8.2-1.6.2-2.4.2-.8 0-1.7-.1-2.5-.3s-1.5-.4-2.1-.8c-.6-.4-1.1-.9-1.5-1.6-.4-.6-.6-1.5-.7-2.4h3.8c-.1.7 0 1 .2 1.3zM135.6 160.2v-2h-.1c-.5.8-1.2 1.4-2 1.8-.8.4-1.6.6-2.5.6-1.1 0-1.9-.1-2.6-.4-.7-.3-1.2-.7-1.6-1.2-.4-.5-.7-1.1-.8-1.9-.2-.7-.2-1.6-.2-2.5v-8.9h4v8.2c0 1.2.2 2.1.6 2.7s1 .9 2 .9c1.1 0 1.9-.3 2.4-1 .5-.6.7-1.7.7-3.2v-7.6h4v14.5h-3.9zM146.1 145.8v2.7h.1c.2-.4.4-.9.8-1.2.3-.4.7-.7 1.1-1 .4-.3.8-.5 1.3-.6s1-.2 1.5-.2c.3 0 .6 0 .9.1v3.7c-.2 0-.4-.1-.7-.1h-.8c-.7 0-1.3.1-1.8.4-.5.2-.9.6-1.2 1-.3.4-.5.9-.7 1.5-.1.6-.2 1.2-.2 1.8v6.5h-4v-14.5h3.7zM153.1 150.2c.1-.9.3-1.7.7-2.3.4-.6.9-1.1 1.6-1.5.6-.4 1.3-.6 2.1-.8.8-.2 1.6-.2 2.4-.2.7 0 1.5.1 2.2.2.7.1 1.4.3 2 .6.6.3 1.1.7 1.5 1.2s.6 1.2.6 2.1v7.5c0 .7 0 1.3.1 1.9.1.6.2 1 .4 1.3h-4c-.1-.2-.1-.5-.2-.7s-.1-.5-.1-.7c-.6.7-1.4 1.1-2.2 1.4-.9.3-1.7.4-2.6.4-.7 0-1.3-.1-1.9-.3s-1.1-.4-1.6-.8-.8-.8-1-1.3c-.3-.5-.4-1.2-.4-1.9 0-.8.1-1.5.4-2 .3-.5.7-1 1.1-1.3.5-.3 1-.6 1.6-.7.6-.2 1.2-.3 1.8-.4s1.2-.2 1.8-.2c.6-.1 1.1-.1 1.5-.3.4-.1.8-.3 1.1-.5.3-.2.4-.5.4-.9s-.1-.8-.2-1c-.1-.3-.3-.4-.6-.6-.2-.1-.5-.2-.8-.3-.3 0-.6-.1-1-.1-.8 0-1.4.2-1.8.5-.4.3-.7.9-.8 1.7h-4.1zm9.2 3c-.2.1-.4.3-.6.3s-.5.2-.8.2c-.3.1-.6.1-.9.1s-.6.1-1 .1c-.3.1-.6.1-.9.2-.3.1-.5.2-.8.4-.2.2-.4.4-.5.6-.1.2-.2.6-.2.9 0 .4.1.7.2.9.1.2.3.4.5.6.2.1.5.2.8.3.3.1.6.1.9.1.8 0 1.4-.1 1.8-.4.4-.3.7-.6 1-.9.2-.4.3-.7.4-1.1 0-.4.1-.7.1-.9v-1.4zM173.1 145.8v2h.1c.5-.8 1.2-1.5 2-1.8s1.6-.6 2.5-.6c1.1 0 1.9.1 2.6.4.7.3 1.2.7 1.6 1.2.4.5.7 1.1.8 1.9.2.7.2 1.6.2 2.4v8.9h-4V152c0-1.2-.2-2.1-.6-2.7-.4-.6-1-.9-2-.9-1.1 0-1.9.3-2.4 1-.5.6-.7 1.7-.7 3.2v7.6h-4v-14.5h3.9zM192.8 148.4c-.6 0-1.2.1-1.6.4-.4.3-.8.7-1 1.1-.3.5-.5 1-.6 1.5s-.2 1.1-.2 1.6.1 1.1.2 1.6.3 1 .5 1.5.6.8 1 1.1c.4.3 1 .4 1.6.4 1 0 1.7-.3 2.2-.8.5-.5.8-1.2 1-2.1h3.8c-.3 1.9-1 3.4-2.2 4.4-1.2 1-2.8 1.5-4.7 1.5-1.1 0-2.1-.2-3-.5-.9-.4-1.7-.9-2.3-1.5s-1.1-1.4-1.5-2.3-.5-1.9-.5-3 .2-2.2.5-3.1c.3-1 .8-1.8 1.4-2.5.6-.7 1.4-1.2 2.3-1.6.9-.4 2-.6 3.1-.6.9 0 1.7.1 2.5.3.8.2 1.5.6 2.1 1 .6.5 1.1 1 1.5 1.7.4.7.6 1.5.7 2.4h-3.9c-.2-1.7-1.2-2.5-2.9-2.5zM206.2 156.8c.6.6 1.5.9 2.6.9.8 0 1.5-.2 2.1-.6.6-.4.9-.8 1.1-1.3h3.5c-.6 1.7-1.4 3-2.6 3.7-1.2.7-2.6 1.1-4.2 1.1-1.1 0-2.2-.2-3.1-.5-.9-.4-1.7-.9-2.3-1.6s-1.1-1.5-1.5-2.4c-.3-.9-.5-2-.5-3.1s.2-2.1.5-3 .9-1.7 1.5-2.4c.7-.7 1.4-1.2 2.3-1.6.9-.4 1.9-.6 3-.6 1.2 0 2.3.2 3.2.7.9.5 1.7 1.1 2.3 1.9.6.8 1 1.7 1.3 2.7.3 1 .4 2.1.3 3.2h-10.4c0 1.4.4 2.3.9 2.9zm4.5-7.6c-.5-.5-1.2-.8-2.2-.8-.6 0-1.2.1-1.6.3s-.8.5-1 .8-.4.7-.5 1-.2.7-.2 1h6.5c-.1-1.1-.5-1.8-1-2.3z"/></g></svg>