<svg id="Layer_1" xmlns="http://www.w3.org/2000/svg" viewBox="0 0 320 50"><style>.st0{fill:#373535}</style><path class="st0" d="M120.5 9.1l3.2 8.6h-2l-.6-1.9h-3.2l-.7 1.9h-1.9l3.2-8.6h2zm.1 5.3l-1.1-3.1-1.1 3.1h2.2zM128 9.1c.6 0 1.1.1 1.5.3.5.2.9.4 1.2.8.3.4.6.8.8 1.3.2.5.3 1.1.3 1.9 0 .6-.1 1.2-.2 1.7s-.4 1-.7 1.4c-.3.4-.7.7-1.2.9-.5.2-1.1.3-1.7.3h-3.7V9.1h3.7zm-.1 7c.3 0 .5 0 .8-.1.3-.1.5-.2.7-.4.2-.2.4-.5.5-.8.1-.3.2-.7.2-1.2 0-.4 0-.8-.1-1.2-.1-.3-.2-.6-.4-.9-.2-.2-.4-.4-.8-.6-.3-.1-.7-.2-1.2-.2h-1.3v5.4h1.6zM137.3 9.1l3.2 8.6h-2l-.6-1.9h-3.2l-.7 1.9h-1.9l3.2-8.6h2zm.2 5.3l-1.1-3.1-1.1 3.1h2.2zM148.1 9.1c.6 0 1.1.1 1.5.3.5.2.9.4 1.2.8.3.4.6.8.8 1.3.2.5.3 1.1.3 1.9 0 .6-.1 1.2-.2 1.7s-.4 1-.7 1.4c-.3.4-.7.7-1.2.9-.5.2-1.1.3-1.7.3h-3.7V9.1h3.7zm-.1 7c.3 0 .5 0 .8-.1.3-.1.5-.2.7-.4.2-.2.4-.5.5-.8.1-.3.2-.7.2-1.2 0-.4 0-.8-.1-1.2-.1-.3-.2-.6-.4-.9-.2-.2-.4-.4-.8-.6-.3-.1-.7-.2-1.2-.2h-1.3v5.4h1.6zM153.1 10.5V9.1h1.7v1.4h-1.7zm1.7 1v6.2h-1.7v-6.2h1.7zM157.4 16.2l.3.3c.1.1.3.1.4.2.2 0 .3.1.5.1h.4c.1 0 .3-.1.4-.1.1-.1.2-.1.3-.2.1-.1.1-.2.1-.4 0-.3-.2-.4-.5-.6s-.8-.3-1.4-.4c-.2-.1-.5-.1-.7-.2l-.6-.3c-.2-.1-.3-.3-.4-.5-.1-.2-.2-.4-.2-.7 0-.4.1-.7.2-1 .2-.3.4-.5.6-.6.3-.1.5-.3.9-.3.3-.1.6-.1 1-.1s.7 0 1 .1.6.2.8.3c.2.2.5.4.6.6.2.3.3.6.3 1h-1.6c0-.3-.1-.5-.4-.7-.2-.1-.5-.2-.8-.2h-.3c-.1 0-.2 0-.3.1-.1 0-.2.1-.2.2-.1.1-.1.2-.1.3 0 .2.1.3.2.4.1.1.3.2.4.2.2.1.4.1.6.2.2 0 .5.1.7.2.2.1.5.1.7.2l.6.3c.2.1.3.3.4.5.1.2.2.4.2.7 0 .4-.1.8-.2 1-.2.3-.4.5-.6.7s-.6.3-.9.4-.7.1-1 .1c-.4 0-.7 0-1.1-.1-.3-.1-.7-.2-.9-.4-.3-.2-.5-.4-.7-.7s-.3-.6-.3-1h1.6c-.1.1 0 .2 0 .4zM162.3 13.4c0-.4.1-.7.3-1s.4-.5.7-.6c.3-.2.6-.3.9-.3s.7-.1 1-.1c.3 0 .6 0 .9.1.3 0 .6.1.9.3.3.1.5.3.6.5s.3.5.3.9v4c0 .3.1.4.2.6h-1.7c0-.1-.1-.2-.1-.3v-.3c-.3.3-.6.5-1 .6-.4.1-.7.2-1.1.2-.3 0-.6 0-.8-.1-.3-.1-.5-.2-.7-.3-.2-.2-.3-.3-.5-.6-.1-.2-.2-.5-.2-.8 0-.4.1-.6.2-.9s.3-.4.5-.5.4-.2.7-.3c.3-.1.5-.1.8-.2.3 0 .5-.1.8-.1s.5-.1.7-.1c.2 0 .3-.1.5-.2.1-.1.2-.2.2-.4s0-.3-.1-.4c-.1-.1-.1-.2-.2-.3-.1-.1-.2-.1-.3-.1h-.4c-.3 0-.6.1-.8.2-.2.1-.3.4-.3.7h-2zm3.9 1.3c-.1.1-.2.1-.3.1-.1 0-.2.1-.3.1s-.3 0-.4.1-.3 0-.4.1c-.1 0-.3.1-.4.1s-.2.1-.3.2c-.1.1-.2.2-.2.3-.1.1-.1.2-.1.4s0 .3.1.4.1.2.2.2c.1.1.2.1.3.1h.4c.3 0 .6-.1.8-.2.2-.1.3-.2.4-.4.1-.2.1-.3.2-.5v-1zM170.8 9.1v3.1c.2-.3.5-.6.8-.7.4-.1.7-.2 1.1-.2.3 0 .6.1.9.2.3.1.6.3.8.6.2.3.4.6.6 1 .2.4.2.9.2 1.5s-.1 1.1-.2 1.5c-.2.4-.3.8-.6 1s-.5.5-.8.6-.6.2-.9.2c-.5 0-.9-.1-1.2-.2-.4-.1-.6-.4-.8-.7v.8h-1.6V9.1h1.7zm2.8 4.7c-.1-.2-.1-.5-.3-.6s-.3-.3-.4-.4c-.2-.1-.4-.2-.7-.2-.2 0-.5.1-.6.2-.2.1-.3.3-.5.4s-.2.4-.3.6c-.1.2-.1.5-.1.8 0 .3 0 .5.1.7.1.2.1.5.3.6s.3.3.5.4c.2.1.4.2.6.2.3 0 .5-.1.7-.2.2-.1.3-.3.4-.4s.2-.4.3-.6c.1-.2.1-.5.1-.7 0-.3-.1-.5-.1-.8zM176.4 10.5V9.1h1.7v1.4h-1.7zm1.7 1v6.2h-1.7v-6.2h1.7zM181 9.1v8.6h-1.7V9.1h1.7zM182.3 10.5V9.1h1.7v1.4h-1.7zm1.7 1v6.2h-1.7v-6.2h1.7zM188.7 11.5v1.1h-1.2v3.1c0 .3 0 .5.1.6s.3.1.6.1h.6v1.3h-1c-.3 0-.5 0-.8-.1-.2 0-.4-.1-.6-.2-.2-.1-.3-.3-.4-.4-.1-.2-.2-.4-.2-.8v-3.7h-1v-1.1h1V9.6h1.7v1.9h1.2zM191.7 19.5c-.3.2-.8.3-1.4.3h-1v-1.4h1c.2 0 .4-.1.5-.3.1-.2.2-.3.2-.5 0-.1 0-.3-.1-.4l-2.2-5.8h1.8l1.4 4.2 1.4-4.2h1.8l-2.6 7c-.2.6-.5.9-.8 1.1z"/><g><path class="st0" d="M106 21.6v8.6h-1.9v-8.6h1.9zM109 24v.9c.2-.4.5-.6.8-.8.3-.2.7-.2 1.1-.2.5 0 .8.1 1.1.2s.5.3.7.5.3.5.4.8c.1.3.1.7.1 1.1v3.8h-1.7v-3.5c0-.5-.1-.9-.2-1.1s-.4-.4-.9-.4-.8.1-1 .4c-.2.3-.3.7-.3 1.4v3.3h-1.7V24h1.6zM117.4 25.1c-.3 0-.5.1-.7.2-.2.1-.3.3-.5.5-.1.2-.2.4-.2.6 0 .2-.1.5-.1.7 0 .2 0 .5.1.7s.1.4.2.6c.1.2.3.3.4.5s.4.2.7.2c.4 0 .7-.1.9-.3.2-.2.4-.5.4-.9h1.6c-.1.8-.4 1.5-1 1.9-.5.4-1.2.6-2 .6-.5 0-.9-.1-1.3-.2-.4-.2-.7-.4-1-.7s-.5-.6-.6-1c-.2-.4-.2-.8-.2-1.3s.1-.9.2-1.3.3-.8.6-1.1c.3-.3.6-.5 1-.7s.8-.3 1.3-.3c.4 0 .7 0 1.1.1.3.1.6.2.9.4.3.2.5.4.7.7s.3.6.3 1h-1.7c0-.5-.4-.9-1.1-.9zM121.2 25.8c.2-.4.4-.7.6-1 .3-.3.6-.5 1-.7.4-.2.8-.2 1.3-.2s.9.1 1.3.2c.4.2.7.4 1 .7.3.3.5.6.6 1 .2.4.2.9.2 1.3s-.1.9-.2 1.3c-.2.4-.4.7-.6 1-.3.3-.6.5-1 .7-.4.2-.8.2-1.3.2s-.9-.1-1.3-.2c-.4-.2-.7-.4-1-.7-.3-.3-.5-.6-.6-1-.2-.4-.2-.8-.2-1.3s.1-.9.2-1.3zm1.6 2c0 .2.1.4.2.6.1.2.3.3.5.4.2.1.4.2.7.2s.5-.1.7-.2c.2-.1.4-.3.5-.4.1-.2.2-.4.2-.6 0-.2.1-.5.1-.7s0-.5-.1-.7c0-.2-.1-.5-.2-.6-.1-.2-.3-.3-.5-.5-.2-.1-.4-.2-.7-.2s-.5.1-.7.2c-.2.1-.3.3-.5.5-.1.2-.2.4-.2.6 0 .2-.1.5-.1.7s0 .5.1.7zM130 24v.8c.2-.3.5-.6.8-.7.3-.2.7-.3 1.1-.3.4 0 .8.1 1.1.2.3.2.6.4.7.8.2-.3.4-.5.8-.7.3-.2.7-.3 1.1-.3.3 0 .6 0 .9.1.3.1.5.2.7.4.2.2.4.4.5.7.1.3.2.6.2 1v4.2h-1.7v-3.5-.6c0-.2-.1-.3-.1-.5l-.3-.3c-.1-.1-.3-.1-.6-.1-.2 0-.4 0-.6.1-.1.1-.3.2-.3.4s-.1.3-.2.5v4.1h-1.7v-3.5-.5c0-.2 0-.3-.1-.5s-.2-.3-.3-.4c-.1-.1-.3-.1-.6-.1-.1 0-.2 0-.3.1-.1 0-.3.1-.4.2s-.2.2-.3.4c-.1.2-.1.4-.1.7v3.6h-1.7V24h1.4zM141 28.7c.3.2.6.4 1.1.4.3 0 .6-.1.9-.3l.5-.5h1.5c-.2.7-.6 1.3-1.1 1.6s-1.1.5-1.8.5c-.5 0-.9-.1-1.3-.2s-.7-.4-1-.7c-.3-.3-.5-.6-.6-1-.1-.4-.2-.8-.2-1.3s.1-.9.2-1.3c.2-.4.4-.7.6-1 .3-.3.6-.5 1-.7.4-.2.8-.3 1.3-.3s1 .1 1.4.3.7.5 1 .8c.3.3.4.7.5 1.2.1.4.2.9.1 1.4h-4.5c0 .5.1.9.4 1.1zm1.9-3.2c-.2-.2-.5-.3-.9-.3-.3 0-.5 0-.7.1-.2.1-.3.2-.4.3s-.2.3-.2.4c0 .2-.1.3-.1.4h2.8c-.1-.4-.3-.7-.5-.9zM153.2 21.6c.5 0 1 .1 1.4.2.4.2.7.4.9.6.2.3.4.5.5.9.1.3.2.7.2 1 0 .3-.1.7-.2 1-.1.3-.3.6-.5.9-.2.3-.5.5-.9.6-.4.2-.8.2-1.4.2h-2v3.1h-1.9v-8.6h3.9zm-.5 4.1h.6c.2 0 .4-.1.5-.2.2-.1.3-.2.4-.4s.1-.4.1-.7 0-.5-.1-.7-.2-.3-.4-.4c-.2-.1-.3-.2-.5-.2h-2.1v2.6h1.5zM158.7 24v1.2c.1-.2.2-.4.3-.5.1-.2.3-.3.5-.4l.6-.3c.2-.1.4-.1.6-.1.1 0 .2 0 .4.1v1.6h-.6c-.3 0-.6.1-.8.2s-.4.2-.5.4l-.3.6c-.1.2-.1.5-.1.8v2.8h-1.7V24h1.6zM161.4 25.8c.2-.4.4-.7.6-1 .3-.3.6-.5 1-.7.4-.2.8-.2 1.3-.2s.9.1 1.3.2c.4.2.7.4 1 .7.3.3.5.6.6 1 .2.4.2.9.2 1.3s-.1.9-.2 1.3c-.2.4-.4.7-.6 1s-.6.5-1 .7c-.4.2-.8.2-1.3.2s-.9-.1-1.3-.2c-.4-.2-.7-.4-1-.7s-.5-.6-.6-1c-.2-.4-.2-.8-.2-1.3s.1-.9.2-1.3zm1.6 2c0 .2.1.4.2.6.1.2.3.3.5.4.2.1.4.2.7.2s.5-.1.7-.2c.2-.1.4-.3.5-.4.1-.2.2-.4.2-.6 0-.2.1-.5.1-.7s0-.5-.1-.7c0-.2-.1-.5-.2-.6-.1-.2-.3-.3-.5-.5-.2-.1-.4-.2-.7-.2s-.5.1-.7.2c-.2.1-.3.3-.5.5-.1.2-.2.4-.2.6 0 .2-.1.5-.1.7s0 .5.1.7zM172 24v1.1h-1.2v3.1c0 .3 0 .5.1.6.1.1.3.1.6.1h.6v1.3h-1c-.3 0-.5 0-.8-.1-.2 0-.4-.1-.6-.2-.2-.1-.3-.3-.4-.4-.1-.2-.2-.4-.2-.8V25h-1v-1h1v-1.9h1.7V24h1.2zM174.6 28.7c.3.2.6.4 1.1.4.3 0 .6-.1.9-.3l.5-.5h1.5c-.2.7-.6 1.3-1.1 1.6-.5.3-1.1.5-1.8.5-.5 0-.9-.1-1.3-.2-.4-.2-.7-.4-1-.7-.3-.3-.5-.6-.6-1-.1-.4-.2-.8-.2-1.3s.1-.9.2-1.3c.2-.4.4-.7.6-1 .3-.3.6-.5 1-.7.4-.2.8-.3 1.3-.3s1 .1 1.4.3c.4.2.7.5 1 .8.3.3.4.7.5 1.2.1.4.2.9.1 1.4h-4.5c0 .5.1.9.4 1.1zm1.9-3.2c-.2-.2-.5-.3-.9-.3-.3 0-.5 0-.7.1-.2.1-.3.2-.4.3-.1.1-.2.3-.2.4 0 .2-.1.3-.1.4h2.8c-.2-.4-.3-.7-.5-.9zM182.5 25.1c-.3 0-.5.1-.7.2-.2.1-.3.3-.5.5-.1.2-.2.4-.2.6 0 .2-.1.5-.1.7 0 .2 0 .5.1.7 0 .2.1.4.2.6.1.2.3.3.4.5.2.1.4.2.7.2.4 0 .7-.1.9-.3.2-.2.4-.5.4-.9h1.6c-.1.8-.4 1.5-1 1.9-.5.4-1.2.6-2 .6-.5 0-.9-.1-1.3-.2-.4-.2-.7-.4-1-.7-.3-.3-.5-.6-.6-1-.2-.4-.2-.8-.2-1.3s.1-.9.2-1.3.3-.8.6-1.1c.3-.3.6-.5 1-.7.4-.2.8-.3 1.3-.3.4 0 .7 0 1.1.1.3.1.6.2.9.4.3.2.5.4.7.7s.3.6.3 1h-1.7c0-.5-.4-.9-1.1-.9zM189.7 24v1.1h-1.2v3.1c0 .3 0 .5.1.6.1.1.3.1.6.1h.6v1.3h-1c-.3 0-.5 0-.8-.1-.2 0-.4-.1-.6-.2-.2-.1-.3-.3-.4-.4-.1-.2-.2-.4-.2-.8V25h-1v-1h1v-1.9h1.7V24h1.2zM190.5 23v-1.4h1.7V23h-1.7zm1.7 1v6.2h-1.7V24h1.7zM193.4 25.8c.2-.4.4-.7.6-1 .3-.3.6-.5 1-.7.4-.2.8-.2 1.3-.2s.9.1 1.3.2c.4.2.7.4 1 .7.3.3.5.6.6 1 .2.4.2.9.2 1.3s-.1.9-.2 1.3c-.2.4-.4.7-.6 1s-.6.5-1 .7c-.4.2-.8.2-1.3.2s-.9-.1-1.3-.2c-.4-.2-.7-.4-1-.7s-.5-.6-.6-1c-.2-.4-.2-.8-.2-1.3s.1-.9.2-1.3zm1.6 2c0 .2.1.4.2.6.1.2.3.3.5.4.2.1.4.2.7.2s.5-.1.7-.2c.2-.1.4-.3.5-.4.1-.2.2-.4.2-.6 0-.2.1-.5.1-.7s0-.5-.1-.7c0-.2-.1-.5-.2-.6-.1-.2-.3-.3-.5-.5-.2-.1-.4-.2-.7-.2s-.5.1-.7.2c-.2.1-.3.3-.5.5-.1.2-.2.4-.2.6 0 .2-.1.5-.1.7s0 .5.1.7zM202.2 24v.9c.2-.4.5-.6.8-.8.3-.2.7-.2 1.1-.2.5 0 .8.1 1.1.2s.5.3.7.5.3.5.4.8c.1.3.1.7.1 1.1v3.8h-1.7v-3.5c0-.5-.1-.9-.2-1.1-.2-.3-.4-.4-.9-.4s-.8.1-1 .4c-.2.3-.3.7-.3 1.4v3.3h-1.7V24h1.6z"/></g><g><path class="st0" d="M130 34.1v8.6h-1.9v-8.6h1.9zM133 36.5v.9c.2-.4.5-.6.8-.8.3-.2.7-.2 1.1-.2.5 0 .8.1 1.1.2s.5.3.7.5.3.5.4.8c.1.3.1.7.1 1v3.8h-1.7v-3.5c0-.5-.1-.9-.2-1.1s-.4-.4-.9-.4-.8.1-1 .4c-.2.3-.3.7-.3 1.4v3.3h-1.7v-6.2h1.6zM139.8 41.2l.3.3c.1.1.3.1.4.2.2 0 .3.1.5.1h.4c.1 0 .3-.1.4-.1.1-.1.2-.1.3-.2.1-.1.1-.2.1-.4 0-.3-.2-.4-.5-.6-.3-.1-.8-.3-1.4-.4-.2-.1-.5-.1-.7-.2l-.6-.3c-.2-.1-.3-.3-.4-.5-.1-.2-.2-.4-.2-.7 0-.4.1-.7.2-1 .2-.3.4-.5.6-.6.3-.1.5-.3.9-.3.3-.1.6-.1 1-.1s.7 0 1 .1c.3.1.6.2.8.3.2.2.5.4.6.6s.3.6.3 1H142c0-.3-.1-.6-.4-.7-.2-.1-.5-.2-.8-.2h-.3c-.1 0-.2 0-.3.1s-.2.1-.2.2-.1.2-.1.3c0 .2.1.3.2.4.1.1.3.2.4.2.2.1.4.1.6.2s.5.1.7.2c.2.1.5.1.7.2l.6.3c.2.1.3.3.4.5.1.2.2.4.2.7 0 .4-.1.8-.2 1-.2.3-.4.5-.6.7s-.6.3-.9.4c-.3.1-.7.1-1 .1-.4 0-.7 0-1.1-.1-.3-.1-.6-.2-.9-.4-.3-.2-.5-.4-.7-.7-.2-.3-.3-.6-.3-1h1.6c.1.1.1.2.2.4zM148.9 42.7v-.9c-.2.4-.5.6-.8.8-.3.2-.7.2-1.1.2-.5 0-.8-.1-1.1-.2-.3-.1-.5-.3-.7-.5-.2-.2-.3-.5-.4-.8s-.1-.7-.1-1v-3.8h1.7V40c0 .5.1.9.2 1.1s.4.4.9.4.8-.1 1-.4c.2-.3.3-.7.3-1.4v-3.3h1.7v6.2h-1.6zM153.3 36.5v1.2c.1-.2.2-.4.3-.5.1-.2.3-.3.5-.4l.6-.3c.2-.1.4-.1.6-.1.1 0 .2 0 .4.1V38h-.6c-.3 0-.6.1-.8.2-.2.1-.4.2-.5.4l-.3.6c-.1.2-.1.5-.1.8v2.8h-1.7v-6.2h1.6zM156.2 38.4c0-.4.1-.7.3-1s.4-.5.7-.6c.3-.2.6-.3.9-.3.3-.1.7-.1 1-.1.3 0 .6 0 .9.1.3 0 .6.1.9.3.3.1.5.3.6.5.2.2.3.5.3.9v4c0 .3.1.4.2.6h-1.7c0-.1-.1-.2-.1-.3v-.3c-.3.3-.6.5-1 .6-.4.1-.7.2-1.1.2-.3 0-.6 0-.8-.1s-.5-.2-.7-.3c-.2-.2-.3-.3-.5-.6-.1-.2-.2-.5-.2-.8 0-.4.1-.6.2-.9.1-.2.3-.4.5-.5.2-.1.4-.2.7-.3.3-.1.5-.1.8-.2.3 0 .5-.1.8-.1.2 0 .5-.1.7-.1.2 0 .3-.1.5-.2.1-.1.2-.2.2-.4s0-.3-.1-.4c-.1-.1-.1-.2-.2-.3-.1-.1-.2-.1-.3-.1h-.4c-.3 0-.6.1-.8.2-.2.1-.3.4-.3.7h-2zm3.9 1.3c-.1.1-.2.1-.3.2-.1 0-.2.1-.3.1-.1 0-.3 0-.4.1-.1 0-.3 0-.4.1-.1 0-.3.1-.4.1s-.2.1-.3.2c-.1.1-.2.2-.2.3-.1.1-.1.2-.1.4s0 .3.1.4.1.2.2.2c.1.1.2.1.3.1h.4c.3 0 .6-.1.8-.2.2-.1.3-.2.4-.4.1-.2.1-.3.2-.5v-1.1zM164.7 36.5v.9c.2-.4.5-.6.8-.8.3-.2.7-.2 1.1-.2.5 0 .8.1 1.1.2s.5.3.7.5.3.5.4.8c.1.3.1.7.1 1v3.8h-1.7v-3.5c0-.5-.1-.9-.2-1.1-.2-.3-.4-.4-.9-.4s-.8.1-1 .4c-.2.3-.3.7-.3 1.4v3.3H163v-6.2h1.7zM173 37.6c-.3 0-.5.1-.7.2-.2.1-.3.3-.5.5-.1.2-.2.4-.2.6 0 .2-.1.5-.1.7 0 .2 0 .5.1.7 0 .2.1.4.2.6.1.2.3.3.4.5.2.1.4.2.7.2.4 0 .7-.1.9-.3.2-.2.4-.5.4-.9h1.6c-.1.8-.4 1.5-1 1.9-.5.4-1.2.6-2 .6-.5 0-.9-.1-1.3-.2-.4-.2-.7-.4-1-.7-.3-.3-.5-.6-.6-1-.2-.4-.2-.8-.2-1.3s.1-.9.2-1.3.3-.8.6-1.1c.3-.3.6-.5 1-.7.4-.2.8-.3 1.3-.3.4 0 .7 0 1.1.1.3.1.6.2.9.4.3.2.5.4.7.7s.3.6.3 1h-1.7c.1-.5-.4-.9-1.1-.9zM178.6 41.2c.3.2.6.4 1.1.4.3 0 .6-.1.9-.3s.4-.4.5-.5h1.5c-.2.7-.6 1.3-1.1 1.6-.5.3-1.1.5-1.8.5-.5 0-.9-.1-1.3-.2-.4-.2-.7-.4-1-.7-.3-.3-.5-.6-.6-1-.1-.4-.2-.8-.2-1.3s.1-.9.2-1.3c.2-.4.4-.7.6-1 .3-.3.6-.5 1-.7.4-.2.8-.3 1.3-.3s1 .1 1.4.3c.4.2.7.5 1 .8s.4.7.5 1.2c.1.4.2.9.1 1.4h-4.5c.1.5.2.9.4 1.1zm2-3.2c-.2-.2-.5-.3-.9-.3-.3 0-.5 0-.7.1s-.3.2-.4.3c-.1.1-.2.3-.2.4 0 .2-.1.3-.1.4h2.8c-.2-.4-.3-.7-.5-.9z"/></g></svg>