<svg id="Layer_1" xmlns="http://www.w3.org/2000/svg" viewBox="0 0 300 250"><style>.st0{fill:#393}</style><path d="M33.6 47.7v3.7H23v4.3h9.8v3.5H23v5h10.9v3.7H18.5V47.7h15.1zM40.1 67.9l-5-14.6h4.2l3.1 10h.1l3.1-10h4l-5 14.6h-4.5zM55.5 64.4c.6.6 1.5.9 2.6.9.8 0 1.5-.2 2.1-.6.6-.4.9-.8 1.1-1.3h3.5c-.6 1.8-1.4 3-2.6 3.8s-2.6 1.1-4.2 1.1c-1.2 0-2.2-.2-3.1-.6-.9-.4-1.7-.9-2.3-1.6-.6-.7-1.1-1.5-1.5-2.4-.3-.9-.5-2-.5-3.1s.2-2.1.5-3.1c.4-.9.9-1.8 1.5-2.4.7-.7 1.4-1.2 2.4-1.6.9-.4 1.9-.6 3-.6 1.2 0 2.3.2 3.3.7.9.5 1.7 1.1 2.3 1.9.6.8 1 1.7 1.3 2.8.3 1 .4 2.1.3 3.3H54.5c0 1.3.3 2.2 1 2.8zm4.5-7.7c-.5-.5-1.2-.8-2.2-.8-.6 0-1.2.1-1.6.3s-.8.5-1 .8c-.3.3-.4.7-.5 1-.1.4-.2.7-.2 1H61c-.2-1-.5-1.8-1-2.3zM71.2 53.3v2h.1c.5-.8 1.2-1.5 2-1.9.8-.4 1.6-.6 2.5-.6 1.1 0 2 .1 2.6.4.7.3 1.2.7 1.6 1.2s.7 1.2.8 1.9c.2.7.2 1.6.2 2.5v9h-4v-8.3c0-1.2-.2-2.1-.6-2.7-.4-.6-1-.9-2-.9-1.1 0-1.9.3-2.4 1s-.7 1.7-.7 3.2v7.7h-4V53.3h3.9zM100.1 53.3V56h-2.9v7.2c0 .7.1 1.1.3 1.4.2.2.7.3 1.4.3h.7c.2 0 .4 0 .6-.1v3.1c-.5.1-.9.1-1.3.1h-1.2c-.6 0-1.2 0-1.8-.1s-1-.2-1.5-.5c-.4-.2-.8-.6-1-1-.2-.5-.4-1-.4-1.8V56h-2.4v-2.7H93v-4.4h4v4.4h3.1zM106 47.7v7.6h.1c.5-.8 1.2-1.5 2-1.9.8-.4 1.6-.6 2.3-.6 1.1 0 2 .1 2.6.4.7.3 1.2.7 1.6 1.2s.7 1.2.8 1.9c.2.7.2 1.6.2 2.5v9h-4v-8.3c0-1.2-.2-2.1-.6-2.7-.4-.6-1-.9-2-.9-1.1 0-1.9.3-2.4 1s-.7 1.7-.7 3.2v7.7h-4V47.7h4.1zM123.1 64.4c.6.6 1.5.9 2.6.9.8 0 1.5-.2 2.1-.6.6-.4.9-.8 1.1-1.3h3.5c-.6 1.8-1.4 3-2.6 3.8s-2.6 1.1-4.2 1.1c-1.2 0-2.2-.2-3.1-.6-.9-.4-1.7-.9-2.3-1.6-.6-.7-1.1-1.5-1.5-2.4-.3-.9-.5-2-.5-3.1s.2-2.1.5-3.1c.4-.9.9-1.8 1.5-2.4.7-.7 1.4-1.2 2.4-1.6.9-.4 1.9-.6 3-.6 1.2 0 2.3.2 3.3.7.9.5 1.7 1.1 2.3 1.9.6.8 1 1.7 1.3 2.8.3 1 .4 2.1.3 3.3h-10.6c-.1 1.3.3 2.2.9 2.8zm4.5-7.7c-.5-.5-1.2-.8-2.2-.8-.6 0-1.2.1-1.6.3s-.8.5-1 .8c-.3.3-.4.7-.5 1-.1.4-.2.7-.2 1h6.5c-.2-1-.5-1.8-1-2.3zM152.8 47.7c1 0 1.8.1 2.6.3.8.2 1.5.4 2 .8.6.4 1 .9 1.3 1.5s.5 1.4.5 2.4-.2 1.9-.7 2.5-1.1 1.2-2.1 1.7c1.2.4 2.2 1 2.8 1.9.6.9.9 2 .9 3.2 0 1-.2 1.9-.6 2.6-.4.7-.9 1.4-1.6 1.8-.7.5-1.4.8-2.3 1-.9.2-1.7.3-2.6.3h-9.8v-20h9.6zm-.6 8.2c.8 0 1.4-.2 2-.6.5-.4.8-1 .8-1.8 0-.5-.1-.9-.3-1.2-.2-.3-.4-.5-.7-.7-.3-.2-.6-.3-1-.4s-.8-.1-1.1-.1h-4.2v4.7h4.5zm.3 8.6c.4 0 .8 0 1.2-.1.4-.1.7-.2 1-.4.3-.2.5-.5.7-.8.2-.3.3-.8.3-1.3 0-1-.3-1.8-.9-2.2-.6-.4-1.4-.7-2.3-.7h-4.8v5.5h4.8zM178.3 47.7v3.7h-10.7v4.3h9.8v3.5h-9.8v5h10.9v3.7h-15.3V47.7h15.1zM184.9 62.9c.2.5.6.9 1 1.1.4.3.9.5 1.4.7.5.1 1.1.2 1.7.2.4 0 .8 0 1.3-.1s.9-.2 1.3-.4.7-.4 1-.8c.3-.3.4-.7.4-1.3 0-.5-.2-1-.5-1.3-.3-.3-.8-.6-1.4-.8-.6-.2-1.2-.4-1.9-.6-.7-.2-1.4-.4-2.2-.6-.8-.2-1.5-.4-2.2-.7-.7-.3-1.4-.6-1.9-1.1-.6-.4-1-1-1.4-1.6-.3-.7-.5-1.4-.5-2.4s.2-1.9.7-2.7 1-1.4 1.7-1.9 1.5-.9 2.4-1.1c.9-.2 1.8-.4 2.7-.4 1.1 0 2.1.1 3 .4 1 .2 1.8.6 2.6 1.1.8.5 1.4 1.2 1.8 2 .4.8.7 1.8.7 3h-4.3c0-.6-.2-1.1-.4-1.5-.2-.4-.5-.7-.9-.9-.4-.2-.8-.4-1.2-.5-.5-.1-1-.1-1.5-.1-.4 0-.7 0-1.1.1-.4.1-.7.2-1 .4-.3.2-.5.4-.7.7-.2.3-.3.6-.3 1.1 0 .4.1.7.2 1 .2.2.4.5.9.7.4.2 1.1.4 1.8.6.8.2 1.8.5 3.1.8.4.1.9.2 1.6.4.7.2 1.3.5 2 .9s1.2 1 1.7 1.7.7 1.7.7 2.8c0 .9-.2 1.8-.5 2.6-.4.8-.9 1.5-1.6 2.1-.7.6-1.6 1-2.6 1.3s-2.3.5-3.6.5c-1.1 0-2.2-.1-3.2-.4-1-.3-2-.7-2.8-1.3s-1.4-1.3-1.9-2.2c-.5-.9-.7-2-.7-3.2h4.3c0 .7.1 1.3.3 1.7zM198.3 51.4v-3.7h16.5v3.7h-6.1v16.5h-4.4V51.4h-6zM221.6 58.5V62h-8.5v-3.5h8.5z"/><g><path d="M22.2 77v20.2h-4V77h4zM25.2 87c.1-.9.3-1.7.7-2.3.4-.6.9-1.1 1.6-1.5.6-.4 1.4-.6 2.2-.8.8-.2 1.6-.2 2.4-.2.7 0 1.5.1 2.2.2.8.1 1.4.3 2.1.6.6.3 1.1.7 1.5 1.3s.6 1.2.6 2.1V94c0 .7 0 1.3.1 1.9.1.6.2 1.1.4 1.4h-4c-.1-.2-.1-.5-.2-.7 0-.2-.1-.5-.1-.7-.6.7-1.4 1.1-2.3 1.4-.9.3-1.8.4-2.7.4-.7 0-1.3-.1-2-.3-.6-.2-1.1-.4-1.6-.8s-.8-.8-1.1-1.4c-.3-.5-.4-1.2-.4-2s.1-1.5.4-2.1.7-1 1.1-1.3c.5-.3 1-.6 1.6-.7.6-.2 1.2-.3 1.8-.4.6-.1 1.2-.2 1.8-.2.6-.1 1.1-.1 1.6-.3s.8-.3 1.1-.5c.3-.2.4-.5.4-.9s-.1-.8-.2-1c-.1-.3-.3-.5-.6-.6-.2-.1-.5-.2-.8-.3-.3 0-.6-.1-1-.1-.8 0-1.4.2-1.9.5s-.7.9-.8 1.7h-3.9zm9.3 3c-.2.2-.4.3-.6.4-.3.1-.5.2-.8.2s-.6.1-.9.1c-.3 0-.6.1-1 .1-.3.1-.6.1-.9.2-.3.1-.5.2-.8.4-.2.2-.4.4-.5.6-.1.2-.2.6-.2.9 0 .4.1.7.2.9.1.2.3.4.5.6.2.1.5.2.8.3s.6.1.9.1c.8 0 1.4-.1 1.8-.4.4-.3.8-.6 1-.9s.3-.7.4-1.1c0-.4.1-.7.1-.9V90zM41.8 80.3V77h4v3.3h-4zm4 2.2v14.6h-4V82.5h4zM59.3 95.3c-.5.8-1.1 1.4-1.9 1.7-.8.3-1.6.5-2.6.5-1.1 0-2.1-.2-2.9-.6-.8-.4-1.5-1-2.1-1.7-.5-.7-.9-1.6-1.2-2.5-.3-.9-.4-1.9-.4-2.9s.1-1.9.4-2.8c.3-.9.7-1.7 1.2-2.4s1.2-1.3 2-1.7 1.8-.6 2.8-.6c.9 0 1.7.2 2.5.6.8.4 1.4.9 1.9 1.6h.1V77h4v20.2h-3.8v-1.9zm-.1-7.2c-.1-.6-.3-1-.6-1.5-.3-.4-.6-.8-1.1-1s-1-.4-1.6-.4c-.7 0-1.2.1-1.7.4-.5.3-.8.6-1.1 1-.3.4-.5.9-.6 1.5-.1.6-.2 1.1-.2 1.7 0 .6.1 1.1.2 1.7.1.6.3 1.1.6 1.5.3.4.7.8 1.1 1.1.4.3 1 .4 1.6.4.7 0 1.2-.1 1.7-.4.4-.3.8-.6 1.1-1.1.3-.4.5-.9.6-1.5s.2-1.2.2-1.8-.1-1.1-.2-1.6zM83.6 77c1.3 0 2.3.2 3.2.6s1.6.9 2.2 1.5c.6.6 1 1.3 1.2 2.1.3.8.4 1.6.4 2.4 0 .8-.1 1.6-.4 2.4-.3.8-.7 1.5-1.2 2.1-.6.6-1.3 1.1-2.2 1.5-.9.4-2 .6-3.2.6H79v7.2h-4.4V77h9zm-1.2 9.5c.5 0 1 0 1.5-.1s.9-.2 1.2-.4c.4-.2.6-.5.9-.9s.3-.9.3-1.6c0-.6-.1-1.2-.3-1.6-.2-.4-.5-.7-.9-.9-.4-.2-.8-.4-1.2-.4-.5-.1-1-.1-1.5-.1H79v6.1h3.4zM97.8 77v16.5h9.8v3.7H93.4V77h4.4zM120.2 77l7.6 20.2h-4.6l-1.5-4.5h-7.6l-1.6 4.5H108l7.6-20.2h4.6zm.3 12.4L118 82h-.1l-2.6 7.4h5.2zM134 77l8.4 13.6h.1V77h4.2v20.2h-4.4l-8.4-13.5h-.1v13.5h-4.2V77h4.4zM153.9 92.2c.2.5.6.9 1 1.1.4.3.9.5 1.4.7.5.1 1.1.2 1.7.2.4 0 .8 0 1.3-.1s.9-.2 1.3-.4.7-.4 1-.8c.3-.3.4-.7.4-1.3 0-.5-.2-1-.5-1.3-.3-.3-.8-.6-1.4-.8-.6-.2-1.2-.4-1.9-.6-.7-.2-1.4-.4-2.2-.6-.8-.2-1.5-.4-2.2-.7-.7-.3-1.4-.6-1.9-1.1-.6-.4-1-1-1.4-1.6-.3-.7-.5-1.4-.5-2.4s.2-1.9.7-2.7c.4-.8 1-1.4 1.7-1.9s1.5-.9 2.4-1.1c.9-.2 1.8-.4 2.7-.4 1.1 0 2.1.1 3 .4 1 .2 1.8.6 2.6 1.1.8.5 1.4 1.2 1.8 2 .4.8.7 1.8.7 3h-4.3c0-.6-.2-1.1-.4-1.5-.2-.4-.5-.7-.9-.9-.4-.2-.8-.4-1.2-.5-.5-.1-1-.1-1.5-.1-.4 0-.7 0-1.1.1-.4.1-.7.2-1 .4-.3.2-.5.4-.7.7-.2.3-.3.6-.3 1.1 0 .4.1.7.2 1 .2.2.4.5.9.7.4.2 1.1.4 1.8.6.8.2 1.8.5 3.1.8.4.1.9.2 1.6.4.7.2 1.3.5 2 .9s1.2 1 1.7 1.7.7 1.7.7 2.8c0 .9-.2 1.8-.5 2.6-.4.8-.9 1.5-1.6 2.1-.7.6-1.6 1-2.6 1.3s-2.3.5-3.6.5c-1.1 0-2.2-.1-3.2-.4-1-.3-2-.7-2.8-1.3s-1.4-1.3-1.9-2.2c-.5-.9-.7-2-.7-3.2h4.3c-.1.6.1 1.2.3 1.7zM176.4 86.7c.4-1 .9-1.8 1.5-2.4.7-.7 1.5-1.2 2.4-1.6s2-.6 3.1-.6 2.2.2 3.1.6 1.7.9 2.4 1.6 1.2 1.5 1.5 2.4c.4 1 .5 2 .5 3.2s-.2 2.2-.5 3.2c-.4.9-.9 1.7-1.5 2.4s-1.5 1.2-2.4 1.5c-.9.4-2 .5-3.1.5s-2.2-.2-3.1-.5c-.9-.4-1.7-.9-2.4-1.5-.7-.7-1.2-1.5-1.5-2.4-.4-.9-.5-2-.5-3.2s.1-2.3.5-3.2zm3.6 4.9c.1.6.3 1.1.6 1.5.3.4.6.8 1.1 1.1.5.3 1 .4 1.7.4s1.2-.1 1.7-.4c.5-.3.8-.6 1.1-1.1.3-.4.5-.9.6-1.5.1-.6.2-1.1.2-1.7s-.1-1.2-.2-1.7-.3-1.1-.6-1.5c-.3-.4-.6-.8-1.1-1.1s-1-.4-1.7-.4-1.2.1-1.7.4c-.5.3-.8.6-1.1 1.1-.3.4-.5.9-.6 1.5s-.2 1.1-.2 1.7.1 1.1.2 1.7zM192.1 85.2v-2.7h2.4v-1.1c0-1.3.4-2.4 1.2-3.2.8-.8 2-1.2 3.7-1.2h1.1c.4 0 .7.1 1 .1v3c-.5-.1-1-.1-1.5-.1s-.9.1-1.2.4c-.2.3-.4.7-.4 1.3v.9h2.8v2.7h-2.8v11.9h-4v-12h-2.3zM214.8 82.5v2h.1c.5-.8 1.2-1.3 1.9-1.8.7-.4 1.6-.6 2.6-.6.9 0 1.8.2 2.5.5.8.4 1.3 1 1.7 1.9.4-.6 1-1.2 1.8-1.7s1.6-.7 2.6-.7c.8 0 1.5.1 2.2.3.7.2 1.2.5 1.7.9s.8 1 1.1 1.6c.3.7.4 1.5.4 2.4v9.8h-4v-8.3c0-.5 0-1-.1-1.4 0-.4-.1-.8-.3-1.1-.2-.3-.4-.6-.8-.8s-.8-.3-1.3-.3c-.6 0-1 .1-1.4.3s-.6.5-.8.8c-.2.3-.3.7-.4 1.2-.1.4-.1.9-.1 1.3v8.1h-4V89v-1.3c0-.4-.1-.8-.2-1.2s-.4-.6-.7-.9-.8-.3-1.5-.3c-.2 0-.4 0-.8.1-.3.1-.6.2-.9.5-.3.2-.5.6-.7 1-.2.4-.3 1-.3 1.7v8.5h-4V82.5h3.7zM236.6 80.3V77h4v3.3h-4zm4 2.2v14.6h-4V82.5h4zM250.8 85.2c-.6 0-1.2.1-1.6.4-.4.3-.8.7-1.1 1.1-.3.5-.5 1-.6 1.5-.1.6-.2 1.1-.2 1.7 0 .5.1 1.1.2 1.6s.3 1 .6 1.5c.3.4.6.8 1 1.1.4.3 1 .4 1.6.4 1 0 1.7-.3 2.2-.8s.8-1.3 1-2.2h3.9c-.3 1.9-1 3.4-2.3 4.4-1.2 1-2.8 1.5-4.8 1.5-1.1 0-2.1-.2-3-.6-.9-.4-1.7-.9-2.3-1.5-.6-.7-1.1-1.4-1.5-2.4-.4-.9-.5-1.9-.5-3s.2-2.2.5-3.2.8-1.8 1.5-2.5c.6-.7 1.4-1.3 2.3-1.7s2-.6 3.2-.6c.9 0 1.7.1 2.5.3.8.2 1.5.6 2.1 1 .6.5 1.1 1 1.5 1.7.4.7.6 1.5.7 2.4h-3.9c-.3-1.3-1.3-2.1-3-2.1zM264.3 93.7c.6.6 1.5.9 2.6.9.8 0 1.5-.2 2.1-.6.6-.4.9-.8 1.1-1.3h3.5c-.6 1.8-1.4 3-2.6 3.8-1.2.8-2.6 1.1-4.2 1.1-1.2 0-2.2-.2-3.1-.6-.9-.4-1.7-.9-2.3-1.6-.6-.7-1.1-1.5-1.5-2.4-.3-.9-.5-2-.5-3.1s.2-2.1.5-3.1c.4-.9.9-1.8 1.5-2.4.7-.7 1.4-1.2 2.4-1.6.9-.4 1.9-.6 3-.6 1.2 0 2.3.2 3.3.7.9.5 1.7 1.1 2.3 1.9.6.8 1 1.7 1.3 2.8.3 1 .4 2.1.3 3.3h-10.6c0 1.2.3 2.2.9 2.8zm4.6-7.7c-.5-.5-1.2-.8-2.2-.8-.6 0-1.2.1-1.6.3-.4.2-.8.5-1 .8-.3.3-.4.7-.5 1-.1.4-.2.7-.2 1h6.5c-.2-1-.5-1.8-1-2.3z"/></g><g><path d="M17.9 116.3c.1-.9.3-1.7.7-2.3.4-.6.9-1.1 1.6-1.5.6-.4 1.4-.6 2.2-.8.8-.2 1.6-.2 2.4-.2.7 0 1.5.1 2.2.2.8.1 1.4.3 2.1.6.6.3 1.1.7 1.5 1.3s.6 1.2.6 2.1v7.6c0 .7 0 1.3.1 1.9.1.6.2 1.1.4 1.4h-4.1c-.1-.2-.1-.5-.2-.7 0-.2-.1-.5-.1-.7-.6.7-1.4 1.1-2.3 1.4-.9.3-1.8.4-2.7.4-.7 0-1.3-.1-2-.3-.6-.2-1.1-.4-1.6-.8s-.8-.8-1.1-1.4c-.3-.5-.4-1.2-.4-2s.1-1.5.4-2.1.7-1 1.1-1.3c.5-.3 1-.6 1.6-.7.6-.2 1.2-.3 1.8-.4.6-.1 1.2-.2 1.8-.2.6-.1 1.1-.1 1.6-.3s.8-.3 1.1-.5c.3-.2.4-.5.4-.9s-.1-.8-.2-1c-.1-.3-.3-.5-.6-.6-.2-.1-.5-.2-.8-.3-.3 0-.6-.1-1-.1-.8 0-1.4.2-1.9.5s-.7.9-.8 1.7h-3.8zm9.3 3c-.2.2-.4.3-.6.4-.3.1-.5.2-.8.2s-.6.1-.9.1c-.3 0-.6.1-1 .1-.3.1-.6.1-.9.2-.3.1-.5.2-.8.4-.2.2-.4.4-.5.6-.1.2-.2.6-.2.9 0 .4.1.7.2.9.1.2.3.4.5.6.2.1.5.2.8.3s.6.1.9.1c.8 0 1.4-.1 1.8-.4.4-.3.8-.6 1-.9s.3-.7.4-1.1c0-.4.1-.7.1-.9v-1.5zM38.2 111.8v2h.1c.5-.8 1.2-1.5 2-1.9.8-.4 1.6-.6 2.5-.6 1.1 0 2 .1 2.6.4.7.3 1.2.7 1.6 1.2s.7 1.2.8 1.9c.2.7.2 1.6.2 2.5v9h-4V118c0-1.2-.2-2.1-.6-2.7-.4-.6-1-.9-2-.9-1.1 0-1.9.3-2.4 1s-.7 1.7-.7 3.2v7.7h-4v-14.6h3.9zM61.5 124.6c-.5.8-1.1 1.4-1.9 1.7-.8.3-1.6.5-2.6.5-1.1 0-2.1-.2-2.9-.6-.8-.4-1.5-1-2.1-1.7-.5-.7-.9-1.6-1.2-2.5-.3-.9-.4-1.9-.4-2.9s.1-1.9.4-2.8c.3-.9.7-1.7 1.2-2.4s1.2-1.3 2-1.7 1.8-.6 2.8-.6c.9 0 1.7.2 2.5.6.8.4 1.4.9 1.9 1.6h.1v-7.4h4v20.2h-3.8v-2zm-.2-7.3c-.1-.6-.3-1-.6-1.5-.3-.4-.6-.8-1.1-1s-1-.4-1.6-.4c-.7 0-1.2.1-1.7.4-.5.3-.8.6-1.1 1-.3.4-.5.9-.6 1.5-.1.6-.2 1.1-.2 1.7 0 .6.1 1.1.2 1.7.1.6.3 1.1.6 1.5.3.4.7.8 1.1 1.1.4.3 1 .4 1.6.4.7 0 1.2-.1 1.7-.4.4-.3.8-.6 1.1-1.1.3-.4.5-.9.6-1.5s.2-1.2.2-1.8-.1-1-.2-1.6zM85.4 106.2c1.3 0 2.5.2 3.6.6 1.1.4 2.1 1 2.9 1.9.8.8 1.5 1.9 1.9 3.1.5 1.2.7 2.7.7 4.4 0 1.5-.2 2.8-.6 4.1-.4 1.2-.9 2.3-1.7 3.2-.8.9-1.7 1.6-2.9 2.1-1.1.5-2.5.8-4 .8h-8.7v-20.2h8.8zm-.3 16.5c.6 0 1.3-.1 1.9-.3.6-.2 1.1-.6 1.6-1s.8-1.1 1.1-1.9.4-1.7.4-2.8c0-1-.1-1.9-.3-2.8-.2-.8-.5-1.5-1-2.1-.5-.6-1.1-1-1.8-1.3-.7-.3-1.7-.5-2.8-.5H81v12.7h4.1zM112.8 106.2v3.7h-10.7v4.3h9.8v3.5h-9.8v5H113v3.7H97.7v-20.2h15.1zM120.4 106.2l8.4 13.6h.1v-13.6h4.2v20.2h-4.4l-8.4-13.5h-.1v13.5H116v-20.2h4.4zM135.4 110v-3.7H152v3.7h-6.1v16.5h-4.4V110h-6.1zM158.7 106.2v20.2h-4.4v-20.2h4.4zM166 121.4c.2.5.6.9 1 1.1.4.3.9.5 1.4.7.5.1 1.1.2 1.7.2.4 0 .8 0 1.3-.1s.9-.2 1.3-.4.7-.4 1-.8c.3-.3.4-.7.4-1.3 0-.5-.2-1-.5-1.3-.3-.3-.8-.6-1.4-.8-.6-.2-1.2-.4-1.9-.6-.7-.2-1.4-.4-2.2-.6-.8-.2-1.5-.4-2.2-.7-.7-.3-1.4-.6-1.9-1.1-.6-.4-1-1-1.4-1.6-.3-.7-.5-1.4-.5-2.4s.2-1.9.7-2.7 1-1.4 1.7-1.9 1.5-.9 2.4-1.1c.9-.2 1.8-.4 2.7-.4 1.1 0 2.1.1 3 .4 1 .2 1.8.6 2.6 1.1.8.5 1.4 1.2 1.8 2 .4.8.7 1.8.7 3h-4.3c0-.6-.2-1.1-.4-1.5-.2-.4-.5-.7-.9-.9-.4-.2-.8-.4-1.2-.5-.5-.1-1-.1-1.5-.1-.4 0-.7 0-1.1.1-.4.1-.7.2-1 .4-.3.2-.5.4-.7.7-.2.3-.3.6-.3 1.1 0 .4.1.7.2 1 .2.2.4.5.9.7.4.2 1.1.4 1.8.6.8.2 1.8.5 3.1.8.4.1.9.2 1.6.4.7.2 1.3.5 2 .9s1.2 1 1.7 1.7.7 1.7.7 2.8c0 .9-.2 1.8-.5 2.6-.4.8-.9 1.5-1.6 2.1-.7.6-1.6 1-2.6 1.3s-2.3.5-3.6.5c-1.1 0-2.2-.1-3.2-.4-1-.3-2-.7-2.8-1.3s-1.4-1.3-1.9-2.2c-.5-.9-.7-2-.7-3.2h4.3c-.1.7 0 1.3.3 1.7zM179.4 110v-3.7h16.5v3.7h-6.1v16.5h-4.4V110h-6zM201.6 121.4c.2.5.6.9 1 1.1.4.3.9.5 1.4.7.5.1 1.1.2 1.7.2.4 0 .8 0 1.3-.1s.9-.2 1.3-.4.7-.4 1-.8c.3-.3.4-.7.4-1.3 0-.5-.2-1-.5-1.3-.3-.3-.8-.6-1.4-.8-.6-.2-1.2-.4-1.9-.6-.7-.2-1.4-.4-2.2-.6-.8-.2-1.5-.4-2.2-.7-.7-.3-1.4-.6-1.9-1.1-.6-.4-1-1-1.4-1.6-.3-.7-.5-1.4-.5-2.4s.2-1.9.7-2.7 1-1.4 1.7-1.9 1.5-.9 2.4-1.1c.9-.2 1.8-.4 2.7-.4 1.1 0 2.1.1 3 .4 1 .2 1.8.6 2.6 1.1.8.5 1.4 1.2 1.8 2 .4.8.7 1.8.7 3H209c0-.6-.2-1.1-.4-1.5-.2-.4-.5-.7-.9-.9-.4-.2-.8-.4-1.2-.5-.5-.1-1-.1-1.5-.1-.4 0-.7 0-1.1.1-.4.1-.7.2-1 .4-.3.2-.5.4-.7.7-.2.3-.3.6-.3 1.1 0 .4.1.7.2 1 .2.2.4.5.9.7.4.2 1.1.4 1.8.6.8.2 1.8.5 3.1.8.4.1.9.2 1.6.4.7.2 1.3.5 2 .9s1.2 1 1.7 1.7.7 1.7.7 2.8c0 .9-.2 1.8-.5 2.6-.4.8-.9 1.5-1.6 2.1-.7.6-1.6 1-2.6 1.3s-2.3.5-3.6.5c-1.1 0-2.2-.1-3.2-.4-1-.3-2-.7-2.8-1.3s-1.4-1.3-1.9-2.2c-.5-.9-.7-2-.7-3.2h4.3c0 .7.1 1.3.3 1.7z"/></g><g><path class="st0" d="M25.1 143.7c-.6 0-1.2.1-1.6.4-.4.3-.8.7-1.1 1.1-.3.5-.5 1-.6 1.5-.1.6-.2 1.1-.2 1.7 0 .5.1 1.1.2 1.6s.3 1 .6 1.5c.3.4.6.8 1 1.1.4.3 1 .4 1.6.4 1 0 1.7-.3 2.2-.8.5-.5.8-1.3 1-2.2h3.9c-.3 1.9-1 3.4-2.3 4.4-1.2 1-2.8 1.5-4.8 1.5-1.1 0-2.1-.2-3-.6-.9-.4-1.7-.9-2.3-1.5s-1.1-1.4-1.5-2.4c-.4-.9-.5-1.9-.5-3s.2-2.2.5-3.2.8-1.8 1.5-2.5c.6-.7 1.4-1.3 2.3-1.7.9-.4 2-.6 3.2-.6.9 0 1.7.1 2.5.3.8.2 1.5.6 2.2 1 .6.5 1.1 1 1.5 1.7.4.7.6 1.5.7 2.4h-3.9c-.4-1.3-1.4-2.1-3.1-2.1zM34.2 145.5c.1-.9.3-1.7.7-2.3.4-.6.9-1.1 1.6-1.5s1.4-.6 2.2-.8c.8-.2 1.6-.2 2.4-.2.7 0 1.5.1 2.2.2.8.1 1.4.3 2.1.6.6.3 1.1.7 1.5 1.3.4.5.6 1.2.6 2.1v7.6c0 .7 0 1.3.1 1.9.1.6.2 1.1.4 1.4h-4.1c-.1-.2-.1-.5-.2-.7 0-.2-.1-.5-.1-.7-.6.7-1.4 1.1-2.3 1.4-.9.3-1.8.4-2.7.4-.7 0-1.3-.1-2-.3-.6-.2-1.1-.4-1.6-.8s-.8-.8-1.1-1.4c-.3-.5-.4-1.2-.4-2s.1-1.5.4-2.1.7-1 1.1-1.3c.5-.3 1-.6 1.6-.7.6-.2 1.2-.3 1.8-.4.6-.1 1.2-.2 1.8-.2.6-.1 1.1-.1 1.6-.3.5-.1.8-.3 1.1-.5s.4-.5.4-.9-.1-.8-.2-1c-.1-.3-.3-.5-.6-.6-.2-.1-.5-.2-.8-.3-.3 0-.6-.1-1-.1-.8 0-1.4.2-1.9.5s-.7.9-.8 1.7h-3.8zm9.3 3c-.2.2-.4.3-.6.4-.3.1-.5.2-.8.2s-.6.1-.9.1-.6.1-1 .1c-.3.1-.6.1-.9.2-.3.1-.5.2-.8.4-.2.2-.4.4-.5.6-.1.2-.2.6-.2.9 0 .4.1.7.2.9.1.2.3.4.5.6.2.1.5.2.8.3.3.1.6.1.9.1.8 0 1.4-.1 1.8-.4.4-.3.8-.6 1-.9.2-.4.3-.7.4-1.1 0-.4.1-.7.1-.9v-1.5zM54.4 141v2h.1c.5-.8 1.2-1.5 2-1.9.8-.4 1.6-.6 2.5-.6 1.1 0 2 .1 2.6.4.7.3 1.2.7 1.6 1.2s.7 1.2.8 1.9c.2.7.2 1.6.2 2.5v9h-4v-8.3c0-1.2-.2-2.1-.6-2.7-.4-.6-1-.9-2-.9-1.1 0-1.9.3-2.4 1s-.7 1.7-.7 3.2v7.7h-4V141h3.9zM78.6 152c.2.3.4.6.7.8.3.2.6.3 1 .4.4.1.7.1 1.1.1.3 0 .6 0 .9-.1.3-.1.6-.2.8-.3.3-.1.5-.3.6-.6.2-.2.3-.5.3-.9 0-.6-.4-1.1-1.2-1.4s-1.9-.6-3.4-.9c-.6-.1-1.2-.3-1.7-.5-.6-.2-1.1-.4-1.5-.7-.4-.3-.8-.7-1-1.1-.3-.4-.4-1-.4-1.6 0-.9.2-1.7.6-2.3.4-.6.9-1.1 1.5-1.4.6-.3 1.3-.6 2-.7.8-.1 1.5-.2 2.3-.2s1.6.1 2.3.2c.7.2 1.4.4 2 .8.6.4 1.1.8 1.5 1.4.4.6.6 1.3.7 2.2h-3.8c-.1-.8-.3-1.3-.9-1.6-.5-.3-1.2-.4-1.9-.4h-.7c-.3 0-.5.1-.7.2-.2.1-.4.2-.6.4-.2.2-.2.4-.2.7 0 .4.1.7.4.9s.6.4 1 .6.9.3 1.5.4c.5.1 1.1.2 1.7.4.6.1 1.2.3 1.7.5.6.2 1.1.4 1.5.8.4.3.8.7 1 1.2.3.5.4 1 .4 1.7 0 1-.2 1.8-.6 2.4-.4.7-.9 1.2-1.5 1.6-.6.4-1.3.7-2.1.8-.8.2-1.6.2-2.4.2-.8 0-1.7-.1-2.5-.3-.8-.2-1.5-.5-2.2-.8-.6-.4-1.2-.9-1.6-1.6-.4-.7-.6-1.5-.7-2.4h3.8c0 .5.1.8.3 1.1zM90.5 145.2c.4-1 .9-1.8 1.5-2.4.7-.7 1.5-1.2 2.4-1.6.9-.4 2-.6 3.1-.6s2.2.2 3.1.6 1.7.9 2.4 1.6c.7.7 1.2 1.5 1.5 2.4.4 1 .5 2 .5 3.2 0 1.2-.2 2.2-.5 3.2-.4.9-.9 1.8-1.5 2.4-.7.7-1.5 1.2-2.4 1.5-.9.4-2 .5-3.1.5-1.2 0-2.2-.2-3.1-.5-.9-.4-1.7-.9-2.4-1.5-.7-.7-1.2-1.5-1.5-2.4-.4-.9-.5-2-.5-3.2 0-1.2.1-2.3.5-3.2zm3.7 4.9c.1.6.3 1.1.6 1.5.3.4.6.8 1.1 1.1.5.3 1 .4 1.7.4s1.2-.1 1.7-.4c.5-.3.8-.6 1.1-1.1.3-.4.5-.9.6-1.5.1-.6.2-1.1.2-1.7s-.1-1.2-.2-1.7c-.1-.6-.3-1.1-.6-1.5-.3-.4-.6-.8-1.1-1.1-.5-.3-1-.4-1.7-.4s-1.2.1-1.7.4-.8.6-1.1 1.1c-.3.4-.5.9-.6 1.5-.1.6-.2 1.1-.2 1.7s0 1.1.2 1.7zM111.6 141v2h.1c.5-.8 1.2-1.3 1.9-1.8.7-.4 1.6-.6 2.6-.6.9 0 1.8.2 2.5.5.8.4 1.3 1 1.7 1.9.4-.6 1-1.2 1.8-1.7.7-.5 1.6-.7 2.6-.7.8 0 1.5.1 2.2.3.7.2 1.2.5 1.7.9s.8 1 1.1 1.6c.3.7.4 1.5.4 2.4v9.8h-4v-8.3c0-.5 0-1-.1-1.4 0-.4-.1-.8-.3-1.1-.2-.3-.4-.6-.7-.8-.3-.2-.8-.3-1.3-.3-.6 0-1 .1-1.4.3-.3.2-.6.5-.8.8-.2.3-.3.7-.4 1.2-.1.4-.1.9-.1 1.3v8.1h-4v-8.2-1.3c0-.4-.1-.8-.2-1.2-.1-.4-.4-.6-.7-.9-.3-.2-.8-.3-1.5-.3-.2 0-.4 0-.7.1-.3.1-.6.2-.9.5-.3.2-.5.6-.8 1-.2.4-.3 1-.3 1.7v8.5h-4V141h3.6zM137.6 152.2c.6.6 1.5.9 2.6.9.8 0 1.5-.2 2.1-.6s.9-.8 1.1-1.3h3.5c-.6 1.8-1.4 3-2.6 3.8-1.2.8-2.6 1.1-4.2 1.1-1.2 0-2.2-.2-3.1-.6-.9-.4-1.7-.9-2.3-1.6-.6-.7-1.1-1.5-1.5-2.4-.3-.9-.5-2-.5-3.1s.2-2.1.5-3.1c.4-.9.9-1.8 1.5-2.4.7-.7 1.4-1.2 2.4-1.6.9-.4 1.9-.6 3-.6 1.2 0 2.3.2 3.3.7.9.5 1.7 1.1 2.3 1.9.6.8 1 1.7 1.3 2.8.3 1 .4 2.1.3 3.3h-10.6c0 1.2.3 2.2.9 2.8zm4.6-7.7c-.5-.5-1.2-.8-2.2-.8-.6 0-1.2.1-1.6.3-.4.2-.8.5-1 .8-.3.3-.4.7-.5 1-.1.4-.2.7-.2 1h6.5c-.2-1-.5-1.8-1-2.3zM157.6 141v2.7h-2.9v7.2c0 .7.1 1.1.3 1.4.2.2.7.3 1.4.3h.7c.2 0 .4 0 .6-.1v3.1c-.3.1-.7.1-1.1.1h-1.2c-.6 0-1.2 0-1.8-.1-.6-.1-1-.2-1.5-.5-.4-.2-.8-.6-1-1-.2-.5-.4-1-.4-1.8v-8.6h-2.4V141h2.4v-4.4h4v4.4h2.9zM159.6 138.8v-3.3h4v3.3h-4zm4.1 2.2v14.6h-4V141h4zM170.7 141v2h.1c.5-.8 1.2-1.3 1.9-1.8.7-.4 1.6-.6 2.6-.6.9 0 1.8.2 2.5.5.8.4 1.3 1 1.7 1.9.4-.6 1-1.2 1.8-1.7.7-.5 1.6-.7 2.6-.7.8 0 1.5.1 2.2.3s1.2.5 1.7.9.8 1 1.1 1.6c.3.7.4 1.5.4 2.4v9.8h-4v-8.3c0-.5 0-1-.1-1.4 0-.4-.1-.8-.3-1.1-.2-.3-.4-.6-.8-.8-.3-.2-.8-.3-1.3-.3-.6 0-1 .1-1.4.3s-.6.5-.8.8c-.2.3-.3.7-.4 1.2-.1.4-.1.9-.1 1.3v8.1h-4v-8.2-1.3c0-.4-.1-.8-.2-1.2-.1-.4-.4-.6-.7-.9s-.8-.3-1.5-.3c-.2 0-.4 0-.8.1-.3.1-.6.2-.9.5-.3.2-.5.6-.7 1-.2.4-.3 1-.3 1.7v8.5h-4V141h3.7zM196.8 152.2c.6.6 1.5.9 2.6.9.8 0 1.5-.2 2.1-.6.6-.4.9-.8 1.1-1.3h3.5c-.6 1.8-1.4 3-2.6 3.8-1.2.8-2.6 1.1-4.2 1.1-1.2 0-2.2-.2-3.1-.6-.9-.4-1.7-.9-2.3-1.6-.6-.7-1.1-1.5-1.5-2.4-.3-.9-.5-2-.5-3.1s.2-2.1.5-3.1c.4-.9.9-1.8 1.5-2.4s1.4-1.2 2.4-1.6c.9-.4 1.9-.6 3-.6 1.2 0 2.3.2 3.3.7.9.5 1.7 1.1 2.3 1.9.6.8 1 1.7 1.3 2.8.3 1 .4 2.1.3 3.3h-10.6c-.1 1.2.3 2.2.9 2.8zm4.5-7.7c-.5-.5-1.2-.8-2.2-.8-.6 0-1.2.1-1.6.3-.4.2-.8.5-1 .8-.3.3-.4.7-.5 1s-.2.7-.2 1h6.5c-.2-1-.5-1.8-1-2.3zM212.1 152c.2.3.4.6.7.8.3.2.6.3 1 .4.4.1.8.1 1.1.1.3 0 .6 0 .9-.1.3-.1.6-.2.8-.3.3-.1.5-.3.6-.6.2-.2.3-.5.3-.9 0-.6-.4-1.1-1.2-1.4-.8-.3-1.9-.6-3.4-.9-.6-.1-1.2-.3-1.7-.5-.6-.2-1.1-.4-1.5-.7-.4-.3-.8-.7-1-1.1-.3-.4-.4-1-.4-1.6 0-.9.2-1.7.6-2.3.4-.6.9-1.1 1.5-1.4.6-.3 1.3-.6 2-.7.8-.1 1.5-.2 2.3-.2s1.6.1 2.3.2 1.4.4 2 .8c.6.4 1.1.8 1.5 1.4s.6 1.3.7 2.2h-3.8c-.1-.8-.3-1.3-.9-1.6s-1.2-.4-1.9-.4h-.7c-.3 0-.5.1-.7.2-.2.1-.4.2-.6.4-.2.2-.2.4-.2.7 0 .4.1.7.4.9.3.2.6.4 1 .6.4.1.9.3 1.5.4s1.1.2 1.7.4c.6.1 1.2.3 1.7.5s1.1.4 1.5.8c.4.3.8.7 1 1.2.3.5.4 1 .4 1.7 0 1-.2 1.8-.6 2.4-.4.7-.9 1.2-1.5 1.6-.6.4-1.3.7-2.1.8-.8.2-1.6.2-2.4.2-.8 0-1.7-.1-2.5-.3-.8-.2-1.5-.5-2.2-.8-.6-.4-1.2-.9-1.6-1.6-.4-.7-.6-1.5-.7-2.4h3.8c0 .5.1.8.3 1.1z"/></g><g><path class="st0" d="M31.5 170.1c-.3-.4-.6-.8-1-1.1-.4-.3-.8-.6-1.3-.8-.5-.2-1-.3-1.6-.3-1 0-1.8.2-2.5.6-.7.4-1.3.9-1.7 1.6-.4.7-.8 1.4-.9 2.2-.2.8-.3 1.7-.3 2.6 0 .8.1 1.7.3 2.5.2.8.5 1.5.9 2.2.4.6 1 1.2 1.7 1.5.7.4 1.5.6 2.5.6 1.4 0 2.4-.4 3.2-1.2.8-.8 1.2-1.9 1.4-3.3h4.3c-.1 1.3-.4 2.4-.9 3.4s-1.1 1.9-1.9 2.6-1.7 1.3-2.7 1.6c-1 .4-2.2.6-3.4.6-1.5 0-2.9-.3-4.2-.8-1.2-.5-2.3-1.3-3.1-2.2s-1.5-2.1-2-3.3c-.5-1.3-.7-2.6-.7-4.1 0-1.5.2-2.9.7-4.2s1.1-2.4 2-3.4 1.9-1.7 3.1-2.3c1.2-.5 2.6-.8 4.2-.8 1.1 0 2.2.2 3.2.5s1.9.8 2.7 1.4c.8.6 1.4 1.4 1.9 2.3s.8 1.9 1 3.1H32c-.1-.6-.2-1.1-.5-1.5zM43.9 164.7v7.8h8.2v-7.8h4.4v20.2h-4.4v-8.7h-8.2v8.7h-4.4v-20.2h4.4zM70.5 164.7l7.6 20.2h-4.6l-1.5-4.5h-7.6l-1.6 4.5h-4.5l7.6-20.2h4.6zm.3 12.4l-2.5-7.4h-.1l-2.6 7.4h5.2zM84.3 164.7l8.4 13.6h.1v-13.6H97v20.2h-4.4l-8.4-13.5H84v13.5h-4.2v-20.2h4.5zM112.8 184.8c-1 .4-1.9.6-2.9.6-1.5 0-2.9-.3-4.2-.8-1.2-.5-2.3-1.3-3.1-2.2s-1.5-2.1-2-3.3c-.5-1.3-.7-2.6-.7-4.1 0-1.5.2-2.9.7-4.2s1.1-2.4 2-3.4 1.9-1.7 3.1-2.3c1.2-.5 2.6-.8 4.2-.8 1 0 2 .2 3 .5s1.8.8 2.6 1.4 1.4 1.3 1.9 2.2.8 1.9.9 3.1h-4.2c-.3-1.1-.8-2-1.5-2.5-.8-.6-1.7-.8-2.7-.8-1 0-1.8.2-2.5.6-.7.4-1.3.9-1.7 1.6-.4.7-.8 1.4-.9 2.2-.2.8-.3 1.7-.3 2.6 0 .8.1 1.7.3 2.5.2.8.5 1.5.9 2.2.4.6 1 1.2 1.7 1.5.7.4 1.5.6 2.5.6 1.5 0 2.6-.4 3.4-1.1s1.3-1.8 1.4-3.2h-4.5V174h8.5v10.9h-2.8l-.5-2.3c-.8 1-1.7 1.8-2.6 2.2zM137.4 164.7v3.7h-10.7v4.3h9.8v3.5h-9.8v5h10.9v3.7h-15.3v-20.2h15.1z"/></g></svg>