<svg id="Layer_1" xmlns="http://www.w3.org/2000/svg" viewBox="0 0 300 250"><style>.st0{fill:#393}.st1{fill:#373535}</style><path class="st0" d="M35.7 77.1v7.7h8.1v-7.7h4.4v20h-4.4v-8.6h-8.1v8.6h-4.4v-20h4.4zM51.5 87.1c.1-.9.3-1.7.7-2.3.4-.6.9-1.1 1.6-1.5.6-.4 1.3-.6 2.1-.8s1.6-.2 2.4-.2c.7 0 1.5.1 2.2.2s1.4.3 2 .6c.6.3 1.1.7 1.5 1.2.4.5.6 1.2.6 2.1v7.5c0 .7 0 1.3.1 1.9.1.6.2 1 .4 1.3h-4c-.1-.2-.1-.5-.2-.7 0-.2-.1-.5-.1-.7-.6.7-1.4 1.1-2.2 1.4-.9.3-1.7.4-2.6.4-.7 0-1.3-.1-1.9-.3-.6-.2-1.1-.4-1.6-.8-.4-.4-.8-.8-1.1-1.3-.3-.5-.4-1.2-.4-1.9 0-.8.1-1.5.4-2 .3-.5.7-1 1.1-1.3.5-.3 1-.6 1.6-.7s1.2-.3 1.8-.4c.6-.1 1.2-.2 1.8-.2.6-.1 1.1-.1 1.5-.3.4-.1.8-.3 1.1-.5.3-.2.4-.5.4-.9s-.1-.8-.2-1c-.1-.3-.3-.4-.6-.6s-.5-.3-.8-.3c-.3 0-.6-.1-1-.1-.8 0-1.4.2-1.8.5-.4.3-.7.9-.8 1.7h-4zm9.2 2.9c-.2.1-.4.3-.6.4s-.5.2-.8.2c-.3.1-.6.1-.9.1s-.6.1-1 .1c-.3.1-.6.1-.9.2-.3.1-.5.2-.8.4-.2.2-.4.4-.5.6-.1.3-.2.6-.2 1s.1.7.2.9c.1.2.3.4.5.6s.5.2.8.3.6.1.9.1c.8 0 1.4-.1 1.8-.4.4-.3.7-.6 1-.9.2-.4.3-.7.4-1.1 0-.4.1-.7.1-.9V90zM71.3 97.1l-5-14.5h4.2l3.1 9.9h.1l3.1-9.9h3.9l-4.9 14.5h-4.5zM86.6 93.6c.6.6 1.5.9 2.6.9.8 0 1.5-.2 2.1-.6.6-.4.9-.8 1.1-1.3h3.5c-.6 1.7-1.4 3-2.6 3.7s-2.6 1.1-4.2 1.1c-1.1 0-2.2-.2-3.1-.5-.9-.4-1.7-.9-2.3-1.6-.6-.7-1.1-1.5-1.5-2.4-.3-.9-.5-2-.5-3.1s.2-2.1.5-3c.4-.9.9-1.7 1.5-2.4.7-.7 1.4-1.2 2.3-1.6.9-.4 1.9-.6 3-.6 1.2 0 2.3.2 3.2.7.9.5 1.7 1.1 2.3 1.9.6.8 1 1.7 1.3 2.7.3 1 .4 2.1.3 3.2H85.6c0 1.4.4 2.4 1 2.9zM91 86c-.5-.5-1.2-.8-2.2-.8-.6 0-1.2.1-1.6.3-.4.2-.8.5-1 .8s-.4.7-.5 1c-.1.4-.2.7-.2 1H92c-.1-1-.5-1.8-1-2.3zM104.4 77.1h4.9L114 85l4.6-7.9h4.9l-7.4 12.3v7.7h-4.4v-7.8l-7.3-12.2zM125 83c.4-1.3 1.1-2.4 1.9-3.3s1.9-1.7 3.1-2.2c1.2-.5 2.6-.8 4.1-.8 1.5 0 2.9.3 4.1.8 1.2.5 2.2 1.3 3.1 2.2.8 1 1.5 2.1 1.9 3.3.4 1.3.7 2.7.7 4.2s-.2 2.8-.7 4.1c-.4 1.3-1.1 2.4-1.9 3.3-.8.9-1.9 1.7-3.1 2.2-1.2.5-2.6.8-4.1.8-1.5 0-2.9-.3-4.1-.8-1.2-.5-2.3-1.3-3.1-2.2-.8-.9-1.5-2-1.9-3.3-.4-1.3-.7-2.6-.7-4.1.1-1.5.3-2.9.7-4.2zm4.1 6.6c.2.8.5 1.5.9 2.1.4.6 1 1.1 1.7 1.5.7.4 1.5.6 2.5.6s1.8-.2 2.5-.6c.7-.4 1.3-.9 1.7-1.5s.7-1.3.9-2.1c.2-.8.3-1.6.3-2.5 0-.9-.1-1.7-.3-2.5-.2-.8-.5-1.6-.9-2.2-.4-.6-1-1.2-1.7-1.5-.7-.4-1.5-.6-2.5-.6s-1.8.2-2.5.6c-.7.4-1.3.9-1.7 1.5-.4.6-.7 1.4-.9 2.2-.2.8-.3 1.7-.3 2.5 0 .9.1 1.7.3 2.5zM161.7 95.6c-1.5 1.3-3.6 2-6.3 2-2.7 0-4.8-.7-6.3-2s-2.2-3.3-2.2-6V77.1h4.4v12.4c0 .5 0 1.1.1 1.6s.3 1 .6 1.4c.3.4.7.7 1.2 1s1.2.4 2.1.4c1.6 0 2.7-.3 3.2-1 .6-.7.9-1.8.9-3.3V77.1h4.4v12.4c.2 2.7-.6 4.8-2.1 6.1zM178.6 77.1c.9 0 1.7.1 2.4.4.7.3 1.3.7 1.8 1.2s.9 1.1 1.2 1.8c.3.7.4 1.4.4 2.1 0 1.2-.2 2.2-.7 3.1-.5.9-1.3 1.5-2.4 2v.1c.5.1 1 .4 1.3.7.4.3.6.7.9 1.1.2.4.4.9.5 1.4s.2 1 .2 1.5c0 .3 0 .7.1 1.1s.1.9.1 1.3.1.9.2 1.3.3.7.5 1h-4.4c-.2-.6-.4-1.4-.4-2.3-.1-.9-.1-1.7-.3-2.5-.1-1-.5-1.8-1-2.3-.5-.5-1.3-.7-2.4-.7h-4.4v7.8h-4.4v-20h10.8zm-1.6 9.1c1 0 1.8-.2 2.3-.7.5-.4.8-1.2.8-2.2 0-1-.3-1.7-.8-2.1-.5-.4-1.3-.7-2.3-.7h-4.8v5.6h4.8zM208.6 82.4c-.3-.4-.6-.8-1-1.1-.4-.3-.8-.6-1.3-.7-.5-.2-1-.3-1.6-.3-1 0-1.8.2-2.5.6-.7.4-1.3.9-1.7 1.5-.4.6-.7 1.4-.9 2.2-.2.8-.3 1.7-.3 2.5s.1 1.7.3 2.5.5 1.5.9 2.1c.4.6 1 1.1 1.7 1.5.7.4 1.5.6 2.5.6 1.3 0 2.4-.4 3.2-1.2.8-.8 1.2-1.9 1.4-3.2h4.3c-.1 1.3-.4 2.4-.9 3.4s-1.1 1.9-1.8 2.6-1.7 1.3-2.7 1.6c-1 .4-2.2.6-3.4.6-1.5 0-2.9-.3-4.1-.8-1.2-.5-2.3-1.3-3.1-2.2-.8-.9-1.5-2-1.9-3.3-.4-1.3-.7-2.6-.7-4.1 0-1.5.2-2.9.7-4.2.4-1.3 1.1-2.4 1.9-3.3s1.9-1.7 3.1-2.2 2.6-.8 4.1-.8c1.1 0 2.1.2 3.1.5s1.9.8 2.6 1.4c.8.6 1.4 1.4 1.9 2.3.5.9.8 1.9 1 3.1h-4.3c-.1-.7-.2-1.1-.5-1.6zM226.5 77.1l7.5 20h-4.6l-1.5-4.5h-7.5l-1.6 4.5h-4.4l7.6-20h4.5zm.2 12.3l-2.5-7.3h-.1l-2.6 7.3h5.2zM240.1 77.1v8.3l7.8-8.3h5.5l-7.8 7.9 8.6 12.1h-5.5l-6-9-2.5 2.5V97h-4.4V77h4.3zM270.9 77.1v3.7h-10.6v4.3h9.7v3.4h-9.7v4.9h10.8v3.7h-15.2v-20h15z"/><g><path class="st1" d="M52.3 116.1c.1-.9.3-1.7.7-2.3.4-.6.9-1.1 1.6-1.5.6-.4 1.3-.6 2.1-.8s1.6-.2 2.4-.2c.7 0 1.5.1 2.2.2s1.4.3 2 .6c.6.3 1.1.7 1.5 1.2.4.5.6 1.2.6 2.1v7.5c0 .7 0 1.3.1 1.9.1.6.2 1 .4 1.3h-4c-.1-.2-.1-.5-.2-.7 0-.2-.1-.5-.1-.7-.6.7-1.4 1.1-2.2 1.4-.9.3-1.7.4-2.6.4-.7 0-1.3-.1-1.9-.3-.6-.2-1.1-.4-1.6-.8-.4-.4-.8-.8-1.1-1.3-.3-.5-.4-1.2-.4-1.9 0-.8.1-1.5.4-2 .3-.5.7-1 1.1-1.3.5-.3 1-.6 1.6-.7s1.2-.3 1.8-.4c.6-.1 1.2-.2 1.8-.2.6-.1 1.1-.1 1.5-.3.4-.1.8-.3 1.1-.5.3-.2.4-.5.4-.9s-.1-.8-.2-1c-.1-.3-.3-.4-.6-.6s-.5-.2-.8-.3c-.3 0-.6-.1-1-.1-.8 0-1.4.2-1.8.5-.4.3-.7.9-.8 1.7h-4zm9.2 2.9c-.2.1-.4.3-.6.4s-.5.2-.8.2c-.3.1-.6.1-.9.1s-.6.1-1 .1c-.3.1-.6.1-.9.2-.3.1-.5.2-.8.4-.2.2-.4.4-.5.6-.1.2-.2.6-.2.9 0 .4.1.7.2.9.1.2.3.4.5.6s.5.2.8.3.6.1.9.1c.8 0 1.4-.1 1.8-.4.4-.3.7-.6 1-.9.2-.4.3-.7.4-1.1 0-.4.1-.7.1-.9V119zM72.3 111.6v2h.1c.5-.8 1.2-1.5 2-1.8.8-.4 1.6-.6 2.5-.6 1.1 0 1.9.1 2.6.4.7.3 1.2.7 1.6 1.2.4.5.7 1.1.8 1.9.2.7.2 1.6.2 2.5v8.9h-4v-8.2c0-1.2-.2-2.1-.6-2.7-.4-.6-1-.9-2-.9-1.1 0-1.9.3-2.4 1s-.7 1.7-.7 3.2v7.6h-4v-14.5h3.9zM95.4 124.3c-.5.8-1.1 1.3-1.8 1.7-.8.3-1.6.5-2.6.5-1.1 0-2-.2-2.9-.6-.8-.4-1.5-1-2-1.7s-.9-1.5-1.2-2.5c-.3-.9-.4-1.9-.4-2.9s.1-1.9.4-2.8c.3-.9.7-1.7 1.2-2.4s1.2-1.2 2-1.7c.8-.4 1.7-.6 2.8-.6.9 0 1.7.2 2.4.5.8.4 1.4.9 1.8 1.6h.1v-7.3h4v20h-3.8v-1.8zm-.2-7.2c-.1-.6-.3-1-.6-1.5s-.6-.8-1-1c-.4-.3-1-.4-1.6-.4-.7 0-1.2.1-1.7.4-.4.3-.8.6-1.1 1-.3.4-.5.9-.6 1.5-.1.6-.2 1.1-.2 1.7 0 .6.1 1.1.2 1.7.1.6.3 1.1.6 1.5.3.4.7.8 1.1 1.1.4.3 1 .4 1.6.4.7 0 1.2-.1 1.6-.4.4-.3.8-.6 1.1-1 .3-.4.4-.9.6-1.5.1-.6.2-1.1.2-1.7s-.1-1.2-.2-1.8zM114.8 106.1v8.3l7.8-8.3h5.5l-7.8 7.9 8.6 12.1h-5.5l-6-9-2.5 2.5v6.4h-4.4v-20h4.3zM145.6 106.1v3.7H135v4.3h9.7v3.4H135v4.9h10.8v3.7h-15.2v-20h15zM163.7 106.1v3.7h-10.6v4.3h9.7v3.4h-9.7v4.9H164v3.7h-15.2v-20h14.9zM176 106.1c1.2 0 2.3.2 3.2.5.9.4 1.6.8 2.1 1.4.5.6 1 1.3 1.2 2 .3.8.4 1.6.4 2.4 0 .8-.1 1.6-.4 2.4-.3.8-.7 1.5-1.2 2.1-.6.6-1.3 1.1-2.1 1.4-.9.4-1.9.5-3.2.5h-4.6v7.2H167v-20h9zm-1.2 9.4c.5 0 1 0 1.5-.1s.9-.2 1.2-.4c.4-.2.6-.5.9-.9.2-.4.3-.9.3-1.5s-.1-1.1-.3-1.5c-.2-.4-.5-.7-.9-.9s-.8-.4-1.2-.4c-.5-.1-1-.1-1.5-.1h-3.4v6h3.4zM198.3 130.4c-.8.5-1.8.8-3.2.8h-1.2c-.4 0-.8-.1-1.2-.1v-3.3c.4 0 .8.1 1.1.1h1.2c.5-.1.9-.3 1.2-.6s.4-.7.4-1.2c0-.3-.1-.6-.2-.9l-5.1-13.6h4.2l3.3 9.9h.1l3.2-9.9h4.1l-6 16.3c-.5 1.2-1.1 2-1.9 2.5zM207.6 115.7c.4-.9.9-1.7 1.5-2.4.7-.7 1.4-1.2 2.4-1.5.9-.4 1.9-.5 3.1-.5s2.2.2 3.1.5c.9.4 1.7.9 2.4 1.5.7.7 1.2 1.5 1.5 2.4.4.9.5 2 .5 3.1 0 1.2-.2 2.2-.5 3.1-.4.9-.9 1.7-1.5 2.4s-1.4 1.2-2.4 1.5-2 .5-3.1.5-2.2-.2-3.1-.5c-.9-.4-1.7-.9-2.4-1.5-.7-.7-1.2-1.5-1.5-2.4-.4-.9-.5-2-.5-3.1s.1-2.1.5-3.1zm3.6 4.9c.1.6.3 1 .6 1.5.3.4.6.8 1.1 1 .4.3 1 .4 1.7.4s1.2-.1 1.7-.4c.5-.3.8-.6 1.1-1s.5-.9.6-1.5c.1-.6.2-1.1.2-1.7 0-.6-.1-1.1-.2-1.7-.1-.6-.3-1.1-.6-1.5-.3-.4-.6-.8-1.1-1-.5-.3-1-.4-1.7-.4s-1.2.1-1.7.4c-.4.3-.8.6-1.1 1-.3.4-.5.9-.6 1.5s-.2 1.1-.2 1.7c0 .6.1 1.1.2 1.7zM234.4 126.1v-2h-.1c-.5.8-1.2 1.4-2 1.8s-1.6.6-2.5.6c-1.1 0-1.9-.1-2.6-.4-.7-.3-1.2-.7-1.6-1.2-.4-.5-.7-1.1-.8-1.9-.2-.7-.2-1.6-.2-2.4v-8.9h4v8.2c0 1.2.2 2.1.6 2.7s1 .9 2 .9c1.1 0 1.9-.3 2.4-1s.7-1.7.7-3.2v-7.6h4v14.5h-3.9zM245 111.6v2.7h.1c.2-.4.4-.9.8-1.2.3-.4.7-.7 1.1-1 .4-.3.8-.5 1.3-.6.5-.1 1-.2 1.5-.2.3 0 .6 0 .9.1v3.7c-.2 0-.4-.1-.7-.1h-.8c-.7 0-1.3.1-1.8.4-.5.2-.9.6-1.2 1-.3.4-.5.9-.7 1.5-.1.6-.2 1.2-.2 1.8v6.5h-4v-14.5h3.7z"/></g><g><path class="st1" d="M61.7 138.4v-3.3h4v3.3h-4zm4 2.2v14.5h-4v-14.5h4zM72.6 140.6v2h.1c.5-.8 1.2-1.5 2-1.8.8-.4 1.6-.6 2.5-.6 1.1 0 1.9.1 2.6.4.7.3 1.2.7 1.6 1.2.4.5.7 1.1.8 1.9.2.7.2 1.6.2 2.4v8.9h-4v-8.2c0-1.2-.2-2.1-.6-2.7-.4-.6-1-.9-2-.9-1.1 0-1.9.3-2.4 1-.5.6-.7 1.7-.7 3.2v7.6h-4v-14.5h3.9zM92.3 143.2c-.6 0-1.2.1-1.6.4-.4.3-.8.7-1 1.1-.3.5-.5 1-.6 1.5s-.2 1.1-.2 1.6.1 1.1.2 1.6.3 1 .5 1.5.6.8 1 1.1c.4.3 1 .4 1.6.4 1 0 1.7-.3 2.2-.8.5-.5.8-1.2 1-2.1h3.8c-.3 1.9-1 3.4-2.2 4.4-1.2 1-2.8 1.5-4.7 1.5-1.1 0-2.1-.2-3-.5-.9-.4-1.7-.9-2.3-1.5-.6-.7-1.1-1.4-1.5-2.3-.4-.9-.5-1.9-.5-3s.2-2.2.5-3.1c.3-1 .8-1.8 1.4-2.5.6-.7 1.4-1.2 2.3-1.6.9-.4 2-.6 3.1-.6.9 0 1.7.1 2.5.3.8.2 1.5.6 2.1 1 .6.5 1.1 1 1.5 1.7s.6 1.5.7 2.4h-3.9c-.2-1.6-1.2-2.5-2.9-2.5zM101.6 138.4v-3.3h4v3.3h-4zm4 2.2v14.5h-4v-14.5h4zM112 151.5c.2.3.4.6.7.8.3.2.6.3 1 .4.4.1.7.1 1.1.1.3 0 .6 0 .9-.1s.6-.2.8-.3c.3-.1.5-.3.6-.6.2-.2.3-.5.3-.9 0-.6-.4-1-1.2-1.3-.8-.3-1.9-.6-3.3-.9-.6-.1-1.1-.3-1.7-.5-.6-.2-1-.4-1.5-.7-.4-.3-.8-.7-1-1.1-.3-.4-.4-1-.4-1.6 0-.9.2-1.7.5-2.3.4-.6.8-1.1 1.4-1.4.6-.3 1.3-.6 2-.7.7-.1 1.5-.2 2.3-.2.8 0 1.5.1 2.3.2.7.1 1.4.4 2 .8.6.4 1.1.8 1.4 1.4.4.6.6 1.3.7 2.2h-3.8c-.1-.8-.3-1.3-.9-1.6-.5-.3-1.1-.4-1.8-.4h-.7c-.3 0-.5.1-.7.2-.2.1-.4.2-.5.4-.1.2-.2.4-.2.7 0 .4.1.6.4.9.3.2.6.4 1 .5.4.1.9.3 1.4.4.5.1 1.1.2 1.7.4.6.1 1.1.3 1.7.5.6.2 1 .4 1.5.7.4.3.8.7 1 1.1.3.5.4 1 .4 1.7 0 1-.2 1.8-.6 2.4-.4.6-.9 1.2-1.5 1.6-.6.4-1.3.7-2.1.8-.8.2-1.6.2-2.4.2-.8 0-1.7-.1-2.5-.3s-1.5-.4-2.1-.8c-.6-.4-1.1-.9-1.5-1.6-.4-.6-.6-1.5-.7-2.4h3.8c0 .6.1 1 .2 1.3zM123.8 144.7c.4-.9.9-1.7 1.5-2.4.7-.7 1.4-1.2 2.4-1.5.9-.4 1.9-.5 3.1-.5 1.1 0 2.2.2 3.1.5.9.4 1.7.9 2.4 1.5.7.7 1.2 1.5 1.5 2.4.4.9.5 2 .5 3.2s-.2 2.2-.5 3.1c-.4.9-.9 1.7-1.5 2.4-.7.7-1.4 1.2-2.4 1.5-.9.4-2 .5-3.1.5s-2.2-.2-3.1-.5-1.7-.9-2.4-1.5c-.7-.7-1.2-1.5-1.5-2.4-.4-.9-.5-2-.5-3.1s.2-2.2.5-3.2zm3.6 4.9c.1.6.3 1 .6 1.5.3.4.6.8 1.1 1 .4.3 1 .4 1.7.4s1.2-.1 1.7-.4c.5-.3.8-.6 1.1-1 .3-.4.5-.9.6-1.5.1-.5.2-1.1.2-1.7 0-.6-.1-1.1-.2-1.7-.1-.6-.3-1.1-.6-1.5-.3-.4-.6-.8-1.1-1s-1-.4-1.7-.4-1.2.1-1.7.4c-.4.3-.8.6-1.1 1-.3.4-.5.9-.6 1.5-.1.6-.2 1.1-.2 1.7.1.6.1 1.1.2 1.7zM144.6 140.6v2.7h.1c.2-.4.4-.9.8-1.2.3-.4.7-.7 1.1-1s.8-.5 1.3-.6 1-.2 1.5-.2c.3 0 .6 0 .9.1v3.7c-.2 0-.4-.1-.7-.1h-.8c-.7 0-1.3.1-1.8.4-.5.2-.9.6-1.2 1-.3.4-.5.9-.7 1.5-.1.6-.2 1.2-.2 1.8v6.5h-4v-14.5h3.7zM155.1 151.5c.2.3.4.6.7.8.3.2.6.3 1 .4.4.1.7.1 1.1.1.3 0 .6 0 .9-.1.3-.1.6-.2.8-.3.3-.1.5-.3.6-.6.2-.2.3-.5.3-.9 0-.6-.4-1-1.2-1.3-.8-.3-1.9-.6-3.3-.9-.6-.1-1.1-.3-1.7-.5-.6-.2-1-.4-1.5-.7-.4-.3-.8-.7-1-1.1-.3-.4-.4-1-.4-1.6 0-.9.2-1.7.5-2.3.4-.6.8-1.1 1.4-1.4s1.3-.6 2-.7c.7-.1 1.5-.2 2.3-.2s1.5.1 2.3.2c.7.1 1.4.4 2 .8.6.4 1.1.8 1.4 1.4.4.6.6 1.3.7 2.2h-3.8c-.1-.8-.3-1.3-.9-1.6s-1.1-.4-1.8-.4h-.7c-.3 0-.5.1-.7.2-.2.1-.4.2-.5.4-.1.2-.2.4-.2.7 0 .4.1.6.4.9s.6.4 1 .5c.4.1.9.3 1.4.4.5.1 1.1.2 1.7.4.6.1 1.1.3 1.7.5.5.2 1 .4 1.5.7.4.3.8.7 1 1.1.3.5.4 1 .4 1.7 0 1-.2 1.8-.6 2.4-.4.6-.9 1.2-1.5 1.6-.6.4-1.3.7-2.1.8-.8.2-1.6.2-2.4.2-.8 0-1.7-.1-2.5-.3-.8-.2-1.5-.4-2.1-.8-.6-.4-1.1-.9-1.5-1.6-.4-.6-.6-1.5-.7-2.4h3.8c-.1.6 0 1 .2 1.3zM171.4 150.8v4.3c0 .6-.1 1.2-.3 1.8s-.5 1-.9 1.4c-.4.4-.9.7-1.4 1-.5.3-1.1.4-1.7.5v-2c.3-.1.5-.2.8-.3s.5-.4.7-.6c.2-.2.3-.5.4-.8.1-.3.1-.6.1-.9h-2v-4.3h4.3zM181.2 138.8v-3.7h16.4v3.7h-6v16.3h-4.4v-16.3h-6zM199.7 141c.4-1.3 1.1-2.4 1.9-3.3s1.9-1.7 3.1-2.2c1.2-.5 2.6-.8 4.1-.8 1.5 0 2.9.3 4.1.8 1.2.5 2.2 1.3 3.1 2.2s1.5 2.1 1.9 3.3c.4 1.3.7 2.7.7 4.2s-.2 2.8-.7 4.1-1.1 2.4-1.9 3.3-1.9 1.7-3.1 2.2c-1.2.5-2.6.8-4.1.8-1.5 0-2.9-.3-4.1-.8-1.2-.5-2.3-1.3-3.1-2.2s-1.5-2-1.9-3.3c-.4-1.3-.7-2.6-.7-4.1 0-1.5.2-2.9.7-4.2zm4 6.7c.2.8.5 1.5.9 2.1.4.6 1 1.1 1.7 1.5s1.5.6 2.5.6 1.8-.2 2.5-.6c.7-.4 1.2-.9 1.7-1.5.4-.6.7-1.3.9-2.1.2-.8.3-1.6.3-2.5 0-.9-.1-1.7-.3-2.5-.2-.8-.5-1.6-.9-2.2-.4-.6-1-1.2-1.7-1.5-.7-.4-1.5-.6-2.5-.6s-1.8.2-2.5.6c-.7.4-1.3.9-1.7 1.5-.4.6-.7 1.4-.9 2.2s-.3 1.7-.3 2.5.1 1.7.3 2.5zM221.5 141c.4-1.3 1.1-2.4 1.9-3.3s1.9-1.7 3.1-2.2c1.2-.5 2.6-.8 4.1-.8 1.5 0 2.9.3 4.1.8 1.2.5 2.2 1.3 3.1 2.2s1.5 2.1 1.9 3.3c.4 1.3.7 2.7.7 4.2s-.2 2.8-.7 4.1-1.1 2.4-1.9 3.3-1.9 1.7-3.1 2.2c-1.2.5-2.6.8-4.1.8-1.5 0-2.9-.3-4.1-.8-1.2-.5-2.3-1.3-3.1-2.2s-1.5-2-1.9-3.3c-.4-1.3-.7-2.6-.7-4.1 0-1.5.2-2.9.7-4.2zm4 6.7c.2.8.5 1.5.9 2.1.4.6 1 1.1 1.7 1.5s1.5.6 2.5.6 1.8-.2 2.5-.6c.7-.4 1.2-.9 1.7-1.5.4-.6.7-1.3.9-2.1.2-.8.3-1.6.3-2.5 0-.9-.1-1.7-.3-2.5-.2-.8-.5-1.6-.9-2.2-.4-.6-1-1.2-1.7-1.5-.7-.4-1.5-.6-2.5-.6s-1.8.2-2.5.6c-.7.4-1.3.9-1.7 1.5-.4.6-.7 1.4-.9 2.2s-.3 1.7-.3 2.5.1 1.7.3 2.5z"/></g></svg>