<svg id="Layer_1" xmlns="http://www.w3.org/2000/svg" viewBox="0 0 300 250"><style>.st0{fill:#373535}</style><path class="st0" d="M63.8 77.6l7.5 20h-4.6l-1.5-4.5h-7.5l-1.6 4.5h-4.4l7.6-20h4.5zm.3 12.2l-2.5-7.3h-.1l-2.6 7.3h5.2zM76.1 83.1v2h.1c.5-.8 1.2-1.5 2-1.8.8-.4 1.6-.6 2.5-.6 1.1 0 1.9.1 2.6.4.7.3 1.2.7 1.6 1.2.4.5.7 1.1.8 1.9.2.7.2 1.6.2 2.5v8.9h-4v-8.2c0-1.2-.2-2.1-.6-2.7-.4-.6-1-.9-2-.9-1.1 0-1.9.3-2.4 1s-.7 1.7-.7 3.2v7.6h-4V83.1h3.9zM99 95.7c-.5.8-1.1 1.3-1.8 1.7s-1.6.5-2.6.5c-1.1 0-2-.2-2.9-.6-.8-.4-1.5-1-2-1.7s-.9-1.5-1.2-2.5c-.3-.9-.4-1.9-.4-2.9s.1-1.9.4-2.8c.3-.9.7-1.7 1.2-2.4s1.2-1.2 2-1.7c.8-.4 1.7-.6 2.8-.6.9 0 1.7.2 2.4.5.8.4 1.4.9 1.8 1.6h.1v-7.3h4v20H99v-1.8zm-.2-7.2c-.1-.6-.3-1-.6-1.5s-.6-.8-1-1c-.4-.3-1-.4-1.6-.4-.7 0-1.2.1-1.7.4-.4.3-.8.6-1.1 1-.3.4-.5.9-.6 1.5-.1.6-.2 1.1-.2 1.7 0 .6.1 1.1.2 1.7.1.6.3 1.1.6 1.5.3.4.7.8 1.1 1.1.4.3 1 .4 1.6.4.7 0 1.2-.1 1.6-.4.4-.3.8-.6 1.1-1 .3-.4.4-.9.6-1.5.1-.6.2-1.1.2-1.7s-.1-1.2-.2-1.8zM126.7 98.6c-.2.7-.5 1.4-1 2.1-.5.6-1.3 1.2-2.3 1.6-1 .4-2.3.7-4 .7-.7 0-1.4-.1-2.2-.3s-1.4-.5-2-.8c-.6-.4-1.1-.9-1.5-1.4-.4-.6-.6-1.3-.7-2.1h3.9c.2.7.6 1.3 1.1 1.6.5.3 1.2.4 1.9.4 1.1 0 1.9-.3 2.4-1s.8-1.5.7-2.5V95h-.1c-.4.8-1 1.3-1.8 1.7-.8.4-1.6.5-2.5.5-1.1 0-2-.2-2.8-.6-.8-.4-1.4-.9-1.9-1.6s-.9-1.4-1.1-2.3c-.2-.9-.4-1.8-.4-2.8 0-.9.1-1.8.4-2.7.3-.9.7-1.6 1.2-2.3.5-.7 1.2-1.2 1.9-1.6.8-.4 1.7-.6 2.7-.6 1 0 1.8.2 2.5.5.7.4 1.3 1 1.8 1.8h.1v-1.9h3.8v13.6c.2.5.1 1.2-.1 1.9zm-5.4-4.8c.4-.2.8-.5 1.1-.9.3-.4.5-.8.6-1.3s.2-1 .2-1.5c0-.6-.1-1.2-.2-1.7s-.3-1-.6-1.4c-.3-.4-.6-.7-1-1s-1-.4-1.6-.4c-.6 0-1 .1-1.4.3-.4.2-.7.5-1 .9-.3.4-.5.8-.6 1.3-.1.5-.2 1-.2 1.6 0 .5.1 1 .2 1.6.1.5.3 1 .5 1.4s.6.7 1 1c.4.3.9.4 1.5.4s1.1-.1 1.5-.3zM134.1 94.1c.6.6 1.5.9 2.6.9.8 0 1.5-.2 2.1-.6.6-.4.9-.8 1.1-1.3h3.5c-.6 1.7-1.4 3-2.6 3.7s-2.6 1.1-4.2 1.1c-1.1 0-2.2-.2-3.1-.5-.9-.4-1.7-.9-2.3-1.6-.6-.7-1.1-1.5-1.5-2.4-.3-.9-.5-2-.5-3.1s.2-2.1.5-3c.4-.9.9-1.7 1.5-2.4.7-.7 1.4-1.2 2.3-1.6.9-.4 1.9-.6 3-.6 1.2 0 2.3.2 3.2.7.9.5 1.7 1.1 2.3 1.9s1 1.7 1.3 2.7c.3 1 .4 2.1.3 3.2h-10.4c0 1.4.3 2.3.9 2.9zm4.5-7.6c-.5-.5-1.2-.8-2.2-.8-.6 0-1.2.1-1.6.3-.4.2-.8.5-1 .8s-.4.7-.5 1c-.1.4-.2.7-.2 1h6.5c-.2-1.1-.5-1.8-1-2.3zM153.7 83.1v2.7h-2.9V93c0 .7.1 1.1.3 1.3.2.2.7.3 1.3.3h.6c.2 0 .4 0 .6-.1v3.1c-.3.1-.7.1-1.1.1h-1.2c-.6 0-1.2 0-1.8-.1s-1-.2-1.5-.5c-.4-.2-.8-.6-1-1-.2-.4-.4-1-.4-1.8v-8.5h-2.4v-2.7h2.4v-4.3h4v4.3h3.1zM173 102.6v-6.9h-.1c-.5.8-1.1 1.3-2 1.7s-1.7.5-2.6.5c-.7 0-1.4-.1-2.1-.4-.7-.3-1.4-.7-2-1.3s-1.1-1.4-1.5-2.3c-.4-1-.6-2.1-.6-3.5 0-1 .1-2 .4-2.9.3-.9.7-1.8 1.2-2.5s1.2-1.3 2-1.7c.8-.4 1.8-.6 2.9-.6.9 0 1.7.2 2.5.5s1.4.9 1.9 1.7h.1v-1.8h3.8v19.5H173zM166.4 92c.1.6.3 1 .6 1.5.3.4.6.8 1.1 1 .4.3 1 .4 1.6.4.7 0 1.2-.1 1.6-.4s.8-.6 1.1-1c.3-.4.5-.9.6-1.5.1-.6.2-1.1.2-1.7 0-.6-.1-1.1-.2-1.7-.1-.6-.3-1.1-.6-1.5-.3-.4-.6-.8-1-1.1-.4-.3-1-.4-1.6-.4-.7 0-1.2.1-1.7.4-.4.3-.8.6-1.1 1-.3.4-.5.9-.6 1.5s-.2 1.1-.2 1.7c0 .7.1 1.3.2 1.8zM189.5 97.5v-2h-.1c-.5.8-1.2 1.4-2 1.8-.8.4-1.6.6-2.5.6-1.1 0-1.9-.1-2.6-.4-.7-.3-1.2-.7-1.6-1.2-.4-.5-.7-1.1-.8-1.9-.2-.7-.2-1.6-.2-2.4v-8.9h4v8.2c0 1.2.2 2.1.6 2.7s1 .9 2 .9c1.1 0 1.9-.3 2.4-1s.7-1.7.7-3.2v-7.6h4v14.5h-3.9zM195.9 87.5c.1-.9.3-1.7.7-2.3.4-.6.9-1.1 1.6-1.5.6-.4 1.3-.6 2.1-.8.8-.2 1.6-.2 2.4-.2.7 0 1.5.1 2.2.2.7.1 1.4.3 2 .6.6.3 1.1.7 1.5 1.2.4.5.6 1.2.6 2.1v7.5c0 .7 0 1.3.1 1.9.1.6.2 1 .4 1.3h-4c-.1-.2-.1-.5-.2-.7 0-.2-.1-.5-.1-.7-.6.7-1.4 1.1-2.2 1.4s-1.7.4-2.6.4c-.7 0-1.3-.1-1.9-.3s-1.1-.4-1.6-.8-.8-.8-1-1.3c-.3-.5-.4-1.2-.4-1.9 0-.8.1-1.5.4-2 .3-.5.7-1 1.1-1.3.5-.3 1-.6 1.6-.7.6-.2 1.2-.3 1.8-.4.6-.1 1.2-.2 1.8-.2.6-.1 1.1-.1 1.5-.3.4-.1.8-.3 1.1-.5.3-.2.4-.5.4-.9s-.1-.8-.2-1c-.1-.3-.3-.4-.6-.6s-.5-.2-.8-.3c-.3 0-.6-.1-1-.1-.8 0-1.4.2-1.8.5-.4.3-.7.9-.8 1.7h-4.1zm9.2 3c-.2.1-.4.3-.6.4s-.5.2-.8.2c-.3.1-.6.1-.9.1s-.6.1-1 .1c-.3.1-.6.1-.9.2-.3.1-.5.2-.8.4-.2.2-.4.4-.5.6-.1.2-.2.6-.2.9 0 .4.1.7.2.9.1.2.3.4.5.6.2.1.5.2.8.3s.6.1.9.1c.8 0 1.4-.1 1.8-.4.4-.3.7-.6 1-.9.2-.4.3-.7.4-1.1 0-.4.1-.7.1-.9v-1.5zM216 77.6v20h-4v-20h4zM218.9 80.8v-3.3h4v3.3h-4zm4 2.3v14.5h-4V83.1h4zM233.7 83.1v2.7h-2.9V93c0 .7.1 1.1.3 1.3.2.2.7.3 1.3.3h.6c.2 0 .4 0 .6-.1v3.1c-.3.1-.7.1-1.1.1h-1.2c-.6 0-1.2 0-1.8-.1s-1-.2-1.5-.5c-.4-.2-.8-.6-1-1-.2-.4-.4-1-.4-1.8v-8.5h-2.4v-2.7h2.4v-4.3h4v4.3h3.1zM240.7 101.9c-.8.5-1.8.8-3.2.8h-1.2c-.4 0-.8-.1-1.2-.1v-3.3c.4 0 .8.1 1.1.1h1.2c.5-.1.9-.3 1.2-.6s.4-.7.4-1.2c0-.3-.1-.6-.2-.9l-5.1-13.6h4.2l3.3 9.9h.1l3.2-9.9h4.1l-6 16.3c-.5 1.1-1.1 2-1.9 2.5z"/><g><path class="st0" d="M66 114.7c-.6 0-1.2.1-1.6.4-.4.3-.8.7-1 1.1-.3.5-.5 1-.6 1.5-.1.6-.2 1.1-.2 1.6s.1 1.1.2 1.6.3 1 .5 1.5c.3.4.6.8 1 1.1.4.3 1 .4 1.6.4 1 0 1.7-.3 2.2-.8.5-.5.8-1.2 1-2.1h3.8c-.3 1.9-1 3.4-2.2 4.4-1.2 1-2.8 1.5-4.7 1.5-1.1 0-2.1-.2-3-.5-.9-.4-1.7-.9-2.3-1.5-.6-.7-1.1-1.4-1.5-2.3-.4-.9-.5-1.9-.5-3s.2-2.2.5-3.1c.3-1 .8-1.8 1.4-2.5.6-.7 1.4-1.2 2.3-1.6.9-.4 2-.6 3.1-.6.9 0 1.7.1 2.5.3.8.2 1.5.6 2.1 1 .6.5 1.1 1 1.5 1.7.4.7.6 1.5.7 2.4H69c-.3-1.7-1.3-2.5-3-2.5zM75 116.2c.4-.9.9-1.7 1.5-2.4.7-.7 1.4-1.2 2.4-1.5.9-.4 1.9-.5 3.1-.5 1.1 0 2.2.2 3.1.5.9.4 1.7.9 2.4 1.5.7.7 1.2 1.5 1.5 2.4.4.9.5 2 .5 3.1 0 1.2-.2 2.2-.5 3.1-.4.9-.9 1.7-1.5 2.4-.7.7-1.4 1.2-2.4 1.5-.9.4-2 .5-3.1.5s-2.2-.2-3.1-.5-1.7-.9-2.4-1.5-1.2-1.5-1.5-2.4c-.4-.9-.5-2-.5-3.1s.1-2.2.5-3.1zm3.6 4.8c.1.6.3 1 .6 1.5.3.4.6.8 1.1 1 .4.3 1 .4 1.7.4s1.2-.1 1.7-.4c.5-.3.8-.6 1.1-1 .3-.4.5-.9.6-1.5.1-.6.2-1.1.2-1.7 0-.6-.1-1.1-.2-1.7-.1-.6-.3-1.1-.6-1.5-.3-.4-.6-.8-1.1-1s-1-.4-1.7-.4-1.2.1-1.7.4c-.4.3-.8.6-1.1 1-.3.4-.5.9-.6 1.5s-.2 1.1-.2 1.7c0 .6.1 1.2.2 1.7zM95.4 126.6l-5-14.5h4.2l3.1 9.9h.1l3.1-9.9h3.9l-4.9 14.5h-4.5zM110.3 123.1c.6.6 1.5.9 2.6.9.8 0 1.5-.2 2.1-.6.6-.4.9-.8 1.1-1.3h3.5c-.6 1.7-1.4 3-2.6 3.7-1.2.7-2.6 1.1-4.2 1.1-1.1 0-2.2-.2-3.1-.5-.9-.4-1.7-.9-2.3-1.6-.6-.7-1.1-1.5-1.5-2.4-.3-.9-.5-2-.5-3.1s.2-2.1.5-3c.4-.9.9-1.7 1.5-2.4.7-.7 1.4-1.2 2.3-1.6.9-.4 1.9-.6 3-.6 1.2 0 2.3.2 3.2.7.9.5 1.7 1.1 2.3 1.9.6.8 1 1.7 1.3 2.7.3 1 .4 2.1.3 3.2h-10.4c0 1.4.3 2.3.9 2.9zm4.5-7.6c-.5-.5-1.2-.8-2.2-.8-.6 0-1.2.1-1.6.3-.4.2-.8.5-1 .8s-.4.7-.5 1c-.1.4-.2.7-.2 1h6.5c-.2-1-.5-1.8-1-2.3zM125.7 112.1v2.7h.1c.2-.4.4-.9.8-1.2.3-.4.7-.7 1.1-1 .4-.3.8-.5 1.3-.6.5-.1 1-.2 1.5-.2.3 0 .6 0 .9.1v3.7c-.2 0-.4-.1-.7-.1h-.8c-.7 0-1.3.1-1.8.4-.5.2-.9.6-1.2 1-.3.4-.5.9-.7 1.5-.1.6-.2 1.2-.2 1.8v6.5h-4v-14.5h3.7zM132.4 116.5c.1-.9.3-1.7.7-2.3.4-.6.9-1.1 1.6-1.5.6-.4 1.3-.6 2.1-.8s1.6-.2 2.4-.2c.7 0 1.5.1 2.2.2.7.1 1.4.3 2 .6.6.3 1.1.7 1.5 1.2.4.5.6 1.2.6 2.1v7.5c0 .7 0 1.3.1 1.9.1.6.2 1 .4 1.3h-4c-.1-.2-.1-.5-.2-.7s-.1-.5-.1-.7c-.6.7-1.4 1.1-2.2 1.4-.9.3-1.7.4-2.6.4-.7 0-1.3-.1-1.9-.3-.6-.2-1.1-.4-1.6-.8-.4-.4-.8-.8-1.1-1.3-.3-.5-.4-1.2-.4-1.9 0-.8.1-1.5.4-2 .3-.5.7-1 1.1-1.3.5-.3 1-.6 1.6-.7s1.2-.3 1.8-.4c.6-.1 1.2-.2 1.8-.2.6-.1 1.1-.1 1.5-.3.4-.1.8-.3 1.1-.5.3-.2.4-.5.4-.9s-.1-.8-.2-1c-.1-.3-.3-.4-.6-.6s-.5-.2-.8-.3c-.3 0-.6-.1-1-.1-.8 0-1.4.2-1.8.5-.4.3-.7.9-.8 1.7h-4zm9.2 3c-.2.1-.4.3-.6.4-.3.1-.5.2-.8.2-.3.1-.6.1-.9.1s-.6.1-1 .1c-.3.1-.6.1-.9.2-.3.1-.5.2-.8.4-.2.2-.4.4-.5.6-.1.2-.2.6-.2.9 0 .4.1.7.2.9.1.2.3.4.5.6s.5.2.8.3.6.1.9.1c.8 0 1.4-.1 1.8-.4.4-.3.7-.6 1-.9.2-.4.3-.7.4-1.1 0-.4.1-.7.1-.9v-1.5zM162 127.6c-.2.7-.5 1.4-1 2.1-.5.6-1.3 1.2-2.3 1.6-1 .4-2.3.7-4 .7-.7 0-1.4-.1-2.2-.3-.7-.2-1.4-.5-2-.8-.6-.4-1.1-.9-1.5-1.4s-.6-1.3-.7-2.1h3.9c.2.7.5 1.3 1.1 1.6.5.3 1.2.4 1.9.4 1.1 0 1.9-.3 2.5-1 .5-.7.8-1.5.7-2.5V124h-.1c-.4.8-1 1.3-1.8 1.7s-1.6.5-2.5.5c-1.1 0-2-.2-2.8-.6s-1.4-.9-1.9-1.6c-.5-.7-.9-1.4-1.1-2.3-.2-.9-.3-1.8-.3-2.8 0-.9.1-1.8.4-2.7.3-.9.7-1.6 1.2-2.3.5-.7 1.2-1.2 1.9-1.6.8-.4 1.7-.6 2.7-.6 1 0 1.8.2 2.5.5.7.4 1.3 1 1.8 1.8h.1v-1.9h3.8v13.6c0 .5-.1 1.2-.3 1.9zm-5.4-4.8c.4-.2.8-.5 1.1-.9.3-.4.5-.8.6-1.3.1-.5.2-1 .2-1.5 0-.6-.1-1.2-.2-1.7s-.3-1-.6-1.4-.6-.7-1-1-1-.4-1.6-.4c-.6 0-1 .1-1.4.3-.4.2-.7.5-1 .9-.3.4-.5.8-.6 1.3-.1.5-.2 1-.2 1.6 0 .5.1 1 .2 1.6.1.5.3 1 .5 1.4s.6.7 1 1c.4.3.9.4 1.5.4s1.1-.1 1.5-.3zM169.5 123.1c.6.6 1.5.9 2.6.9.8 0 1.5-.2 2.1-.6.6-.4.9-.8 1.1-1.3h3.5c-.6 1.7-1.4 3-2.6 3.7-1.2.7-2.6 1.1-4.2 1.1-1.1 0-2.2-.2-3.1-.5-.9-.4-1.7-.9-2.3-1.6-.6-.7-1.1-1.5-1.5-2.4-.3-.9-.5-2-.5-3.1s.2-2.1.5-3c.4-.9.9-1.7 1.5-2.4.7-.7 1.4-1.2 2.3-1.6.9-.4 1.9-.6 3-.6 1.2 0 2.3.2 3.2.7.9.5 1.7 1.1 2.3 1.9s1 1.7 1.3 2.7c.3 1 .4 2.1.3 3.2h-10.4c-.1 1.4.3 2.3.9 2.9zm4.5-7.6c-.5-.5-1.2-.8-2.2-.8-.6 0-1.2.1-1.6.3-.4.2-.8.5-1 .8s-.4.7-.5 1c-.1.4-.2.7-.2 1h6.5c-.2-1-.6-1.8-1-2.3zM201 126.6l-2.6-9.7h-.1l-2.5 9.7h-4.1l-4.6-14.5h4.2l2.7 9.8h.1l2.4-9.8h3.9l2.5 9.8h.1l2.7-9.8h4.1l-4.6 14.5H201zM211.2 109.8v-3.3h4v3.3h-4zm3.9 2.3v14.5h-4v-14.5h4zM226 112.1v2.7h-2.9v7.2c0 .7.1 1.1.3 1.3.2.2.7.3 1.3.3h.6c.2 0 .4 0 .6-.1v3.1c-.3.1-.7.1-1.1.1h-1.2c-.6 0-1.2 0-1.8-.1s-1-.2-1.5-.5c-.4-.2-.8-.6-1-1-.2-.4-.4-1-.4-1.8v-8.5h-2.4v-2.7h2.4v-4.3h4v4.3h3.1zM231.6 106.6v7.5h.1c.5-.8 1.1-1.5 1.9-1.8.8-.4 1.5-.6 2.3-.6 1.1 0 1.9.1 2.6.4.7.3 1.2.7 1.6 1.2.4.5.7 1.1.8 1.9.2.7.2 1.6.2 2.5v8.9h-4v-8.2c0-1.2-.2-2.1-.6-2.7s-1-.9-2-.9c-1.1 0-1.9.3-2.4 1s-.7 1.7-.7 3.2v7.6h-4v-20h4.2z"/></g><g><path class="st0" d="M51.6 152.1c.6.6 1.5.9 2.6.9.8 0 1.5-.2 2.1-.6.6-.4.9-.8 1.1-1.3h3.5c-.6 1.7-1.4 3-2.6 3.7-1.2.7-2.6 1.1-4.2 1.1-1.1 0-2.2-.2-3.1-.5-.9-.4-1.7-.9-2.3-1.6s-1.1-1.5-1.5-2.4c-.3-.9-.5-2-.5-3.1s.2-2.1.5-3c.4-.9.9-1.7 1.5-2.4.7-.7 1.4-1.2 2.3-1.6.9-.4 1.9-.6 3-.6 1.2 0 2.3.2 3.2.7.9.5 1.7 1.1 2.3 1.9.6.8 1 1.7 1.3 2.7.3 1 .4 2.1.3 3.2H50.6c.1 1.4.4 2.3 1 2.9zm4.5-7.6c-.5-.5-1.2-.8-2.2-.8-.6 0-1.2.1-1.6.3-.4.2-.8.5-1 .8s-.4.7-.5 1c-.1.4-.2.7-.2 1h6.5c-.2-1-.5-1.8-1-2.3zM62.1 141.1h4.5l2.5 3.8 2.5-3.8H76l-4.8 6.8 5.3 7.7H72l-3-4.6-3 4.6h-4.5l5.2-7.6-4.6-6.9zM85.9 141.1v2.7H83v7.2c0 .7.1 1.1.3 1.3.2.2.7.3 1.3.3h.6c.2 0 .4 0 .6-.1v3.1c-.3.1-.7.1-1.1.1h-1.2c-.6 0-1.2 0-1.8-.1-.6-.1-1-.2-1.5-.5-.4-.2-.8-.6-1-1-.2-.4-.4-1-.4-1.8v-8.5h-2.4v-2.7H79v-4.3h4v4.3h2.9zM91.4 141.1v2.7h.1c.2-.4.4-.9.8-1.2.3-.4.7-.7 1.1-1s.8-.5 1.3-.6c.5-.1 1-.2 1.5-.2.3 0 .6 0 .9.1v3.7c-.2 0-.4-.1-.7-.1h-.8c-.7 0-1.3.1-1.8.4-.5.2-.9.6-1.2 1-.3.4-.5.9-.7 1.5-.1.6-.2 1.2-.2 1.8v6.5h-4v-14.5h3.7zM98 145.5c.1-.9.3-1.7.7-2.3.4-.6.9-1.1 1.6-1.5.6-.4 1.3-.6 2.1-.8.8-.2 1.6-.2 2.4-.2.7 0 1.5.1 2.2.2s1.4.3 2 .6c.6.3 1.1.7 1.5 1.2s.6 1.2.6 2.1v7.5c0 .7 0 1.3.1 1.9.1.6.2 1 .4 1.3h-4c-.1-.2-.1-.5-.2-.7 0-.2-.1-.5-.1-.7-.6.7-1.4 1.1-2.2 1.4-.9.3-1.7.4-2.6.4-.7 0-1.3-.1-1.9-.3-.6-.2-1.1-.4-1.6-.8-.4-.4-.8-.8-1.1-1.3-.3-.5-.4-1.2-.4-1.9 0-.8.1-1.5.4-2 .3-.5.7-1 1.1-1.3.5-.3 1-.6 1.6-.7s1.2-.3 1.8-.4c.6-.1 1.2-.2 1.8-.2.6-.1 1.1-.1 1.5-.3.4-.1.8-.3 1.1-.5.3-.2.4-.5.4-.9s-.1-.8-.2-1c-.1-.3-.3-.4-.6-.6-.2-.1-.5-.2-.8-.3-.3 0-.6-.1-1-.1-.8 0-1.4.2-1.8.5-.4.3-.7.9-.8 1.7h-4zm9.2 3c-.2.1-.4.3-.6.3s-.5.2-.8.2c-.3.1-.6.1-.9.1s-.6.1-1 .1c-.3.1-.6.1-.9.2-.3.1-.5.2-.8.4-.2.2-.4.4-.5.6-.1.2-.2.6-.2.9 0 .4.1.7.2.9.1.2.3.4.5.6.2.1.5.2.8.3.3.1.6.1.9.1.8 0 1.4-.1 1.8-.4.4-.3.7-.6 1-.9.2-.4.3-.7.4-1.1 0-.4.1-.7.1-.9v-1.4zM117.4 152c.2.3.4.6.7.8.3.2.6.3 1 .4.4.1.7.1 1.1.1.3 0 .6 0 .9-.1s.6-.2.8-.3c.3-.1.5-.3.6-.6.2-.2.3-.5.3-.9 0-.6-.4-1-1.2-1.3-.8-.3-1.9-.6-3.3-.9-.6-.1-1.1-.3-1.7-.5-.6-.2-1-.4-1.5-.7-.4-.3-.8-.7-1-1.1-.3-.4-.4-1-.4-1.6 0-.9.2-1.7.5-2.3.4-.6.8-1.1 1.4-1.4.6-.3 1.3-.6 2-.7.7-.1 1.5-.2 2.3-.2.8 0 1.5.1 2.3.2.7.1 1.4.4 2 .8.6.4 1.1.8 1.4 1.4.4.6.6 1.3.7 2.2h-3.8c-.1-.8-.3-1.3-.9-1.6-.5-.3-1.1-.4-1.8-.4h-.7c-.3 0-.5.1-.7.2-.2.1-.4.2-.5.4-.1.2-.2.4-.2.7 0 .4.1.6.4.9.3.2.6.4 1 .5.4.1.9.3 1.4.4.5.1 1.1.2 1.7.4.6.1 1.1.3 1.7.5.6.2 1 .4 1.5.7.4.3.8.7 1 1.1.3.5.4 1 .4 1.7 0 1-.2 1.8-.6 2.4-.4.6-.9 1.2-1.5 1.6-.6.4-1.3.7-2.1.8-.8.2-1.6.2-2.4.2-.8 0-1.7-.1-2.5-.3s-1.5-.4-2.1-.8c-.6-.4-1.1-.9-1.5-1.6-.4-.6-.6-1.5-.7-2.4h3.8c-.1.6 0 1 .2 1.3zM136.5 138.8v-3.3h4v3.3h-4zm3.9 2.3v14.5h-4v-14.5h4zM147.1 141.1v2h.1c.5-.8 1.2-1.5 2-1.8s1.6-.6 2.5-.6c1.1 0 1.9.1 2.6.4.7.3 1.2.7 1.6 1.2.4.5.7 1.1.8 1.9.2.7.2 1.6.2 2.4v8.9h-4v-8.2c0-1.2-.2-2.1-.6-2.7-.4-.6-1-.9-2-.9-1.1 0-1.9.3-2.4 1-.5.6-.7 1.7-.7 3.2v7.6h-4V141h3.9zM166.6 143.7c-.6 0-1.2.1-1.6.4-.4.3-.8.7-1 1.1-.3.5-.5 1-.6 1.5s-.2 1.1-.2 1.6.1 1.1.2 1.6.3 1 .5 1.5.6.8 1 1.1c.4.3 1 .4 1.6.4 1 0 1.7-.3 2.2-.8.5-.5.8-1.2 1-2.1h3.8c-.3 1.9-1 3.4-2.2 4.4-1.2 1-2.8 1.5-4.7 1.5-1.1 0-2.1-.2-3-.5-.9-.4-1.7-.9-2.3-1.5s-1.1-1.4-1.5-2.3-.5-1.9-.5-3 .2-2.2.5-3.1c.3-1 .8-1.8 1.4-2.5.6-.7 1.4-1.2 2.3-1.6.9-.4 2-.6 3.1-.6.9 0 1.7.1 2.5.3.8.2 1.5.6 2.1 1 .6.5 1.1 1 1.5 1.7.4.7.6 1.5.7 2.4h-3.9c-.2-1.7-1.2-2.5-2.9-2.5zM179.6 135.6v20h-4v-20h4zM192.2 155.6v-2h-.1c-.5.8-1.2 1.4-2 1.8s-1.6.6-2.5.6c-1.1 0-1.9-.1-2.6-.4-.7-.3-1.2-.7-1.6-1.2-.4-.5-.7-1.1-.8-1.9-.2-.7-.2-1.6-.2-2.5v-8.9h4v8.2c0 1.2.2 2.1.6 2.7s1 .9 2 .9c1.1 0 1.9-.3 2.4-1s.7-1.7.7-3.2v-7.6h4v14.5h-3.9zM209.1 153.7c-.5.8-1.1 1.3-1.8 1.7-.8.3-1.6.5-2.6.5-1.1 0-2-.2-2.9-.6s-1.5-1-2-1.7-.9-1.5-1.2-2.5c-.3-.9-.4-1.9-.4-2.9s.1-1.9.4-2.8.7-1.7 1.2-2.4 1.2-1.2 2-1.7 1.7-.6 2.8-.6c.9 0 1.7.2 2.5.5.8.4 1.4.9 1.8 1.6h.1v-7.3h4v20h-3.8l-.1-1.8zm-.2-7.1c-.1-.6-.3-1-.6-1.5s-.6-.8-1-1c-.4-.3-1-.4-1.6-.4s-1.2.1-1.7.4c-.4.3-.8.6-1.1 1-.3.4-.5.9-.6 1.5s-.2 1.1-.2 1.7c0 .6.1 1.1.2 1.7.1.6.3 1.1.6 1.5.3.4.7.8 1.1 1.1s1 .4 1.6.4c.7 0 1.2-.1 1.6-.4.4-.3.8-.6 1-1 .3-.4.4-.9.6-1.5s.2-1.1.2-1.7c.1-.7 0-1.3-.1-1.8zM219.9 152.1c.6.6 1.5.9 2.6.9.8 0 1.5-.2 2.1-.6.6-.4.9-.8 1.1-1.3h3.5c-.6 1.7-1.4 3-2.6 3.7-1.2.7-2.6 1.1-4.2 1.1-1.1 0-2.2-.2-3.1-.5-.9-.4-1.7-.9-2.3-1.6s-1.1-1.5-1.5-2.4c-.3-.9-.5-2-.5-3.1s.2-2.1.5-3 .9-1.7 1.5-2.4c.7-.7 1.4-1.2 2.3-1.6.9-.4 1.9-.6 3-.6 1.2 0 2.3.2 3.2.7.9.5 1.7 1.1 2.3 1.9.6.8 1 1.7 1.3 2.7.3 1 .4 2.1.3 3.2H219c-.1 1.4.3 2.3.9 2.9zm4.5-7.6c-.5-.5-1.2-.8-2.2-.8-.6 0-1.2.1-1.6.3s-.8.5-1 .8-.4.7-.5 1-.2.7-.2 1h6.5c-.2-1-.6-1.8-1-2.3zM241.7 153.7c-.5.8-1.1 1.3-1.8 1.7-.8.3-1.6.5-2.6.5-1.1 0-2-.2-2.9-.6s-1.5-1-2-1.7-.9-1.5-1.2-2.5c-.3-.9-.4-1.9-.4-2.9s.1-1.9.4-2.8.7-1.7 1.2-2.4 1.2-1.2 2-1.7 1.7-.6 2.8-.6c.9 0 1.7.2 2.5.5.8.4 1.4.9 1.8 1.6h.1v-7.3h4v20h-3.8l-.1-1.8zm-.2-7.1c-.1-.6-.3-1-.6-1.5s-.6-.8-1-1c-.4-.3-1-.4-1.6-.4s-1.2.1-1.7.4c-.4.3-.8.6-1.1 1-.3.4-.5.9-.6 1.5s-.2 1.1-.2 1.7c0 .6.1 1.1.2 1.7.1.6.3 1.1.6 1.5.3.4.7.8 1.1 1.1s1 .4 1.6.4c.7 0 1.2-.1 1.6-.4.4-.3.8-.6 1-1 .3-.4.4-.9.6-1.5s.2-1.1.2-1.7c.1-.7.1-1.3-.1-1.8zM252.9 151.2v4.3h-4.4v-4.3h4.4z"/></g></svg>