<svg xmlns="http://www.w3.org/2000/svg" viewBox="0 0 300 250"><path d="M61.9 105.2v16.3h9.7v3.7H57.5v-20h4.4zM73.8 108.5v-3.3h4v3.3h-4zm3.9 2.2v14.5h-4v-14.5h4zM79.4 113.4v-2.7h2.4v-1.1c0-1.3.4-2.3 1.2-3.2.8-.8 2-1.2 3.6-1.2h1.1c.4 0 .7.1 1 .1v3c-.5-.1-1-.1-1.5-.1s-.9.1-1.2.4c-.2.3-.4.7-.4 1.3v.9h2.7v2.7h-2.7v11.8h-4v-11.8h-2.2zM94.4 121.7c.6.6 1.5.9 2.6.9.8 0 1.5-.2 2.1-.6.6-.4.9-.8 1.1-1.3h3.5c-.6 1.7-1.4 3-2.6 3.7s-2.6 1.1-4.2 1.1c-1.1 0-2.2-.2-3.1-.5-.9-.4-1.7-.9-2.3-1.6-.6-.7-1.1-1.5-1.5-2.4-.3-.9-.5-2-.5-3.1s.2-2.1.5-3c.4-.9.9-1.7 1.5-2.4.7-.7 1.4-1.2 2.3-1.6.9-.4 1.9-.6 3-.6 1.2 0 2.3.2 3.2.7.9.5 1.7 1.1 2.3 1.9.6.8 1 1.7 1.3 2.7.3 1 .4 2.1.3 3.2H93.5c0 1.4.3 2.3.9 2.9zm4.5-7.6c-.5-.5-1.2-.8-2.2-.8-.6 0-1.2.1-1.6.3-.4.2-.8.5-1 .8s-.4.7-.5 1c-.1.4-.2.7-.2 1h6.5c-.2-1-.5-1.8-1-2.3zM118.9 105.2v20h-4.4v-20h4.4zM126.1 110.7v2h.1c.5-.8 1.2-1.5 2-1.8.8-.4 1.6-.6 2.5-.6 1.1 0 1.9.1 2.6.4.7.3 1.2.7 1.6 1.2.4.5.7 1.1.8 1.9.2.7.2 1.6.2 2.5v8.9h-4V117c0-1.2-.2-2.1-.6-2.7-.4-.6-1-.9-2-.9-1.1 0-1.9.3-2.4 1s-.7 1.7-.7 3.2v7.6h-4v-14.5h3.9zM142.3 121.6c.2.3.4.6.7.8.3.2.6.3 1 .4.4.1.7.1 1.1.1.3 0 .6 0 .9-.1.3-.1.6-.2.8-.3.3-.1.5-.3.6-.6s.3-.5.3-.9c0-.6-.4-1-1.2-1.3-.8-.3-1.9-.6-3.3-.9-.6-.1-1.1-.3-1.7-.5-.6-.2-1-.4-1.5-.7-.4-.3-.8-.7-1-1.1-.3-.4-.4-1-.4-1.6 0-.9.2-1.7.5-2.3.4-.6.8-1.1 1.4-1.4.6-.3 1.3-.6 2-.7.7-.1 1.5-.2 2.3-.2.8 0 1.5.1 2.3.2.7.1 1.4.4 2 .8.6.4 1.1.8 1.4 1.4s.6 1.3.7 2.2h-3.8c-.1-.8-.3-1.3-.9-1.6-.5-.3-1.1-.4-1.8-.4h-.7c-.3 0-.5.1-.7.2-.2.1-.4.2-.5.4-.1.2-.2.4-.2.7 0 .4.1.6.4.9s.6.4 1 .5c.4.1.9.3 1.4.4.5.1 1.1.2 1.7.4.6.1 1.1.3 1.7.5s1 .4 1.5.7c.4.3.8.7 1 1.1.3.5.4 1 .4 1.7 0 1-.2 1.8-.6 2.4-.4.6-.9 1.2-1.5 1.6-.6.4-1.3.7-2.1.8-.8.2-1.6.2-2.4.2-.8 0-1.7-.1-2.5-.3s-1.5-.4-2.1-.8-1.1-.9-1.5-1.6c-.4-.6-.6-1.5-.7-2.4h3.8c-.1.6 0 1 .2 1.3zM163.7 125.2v-2h-.1c-.5.8-1.2 1.4-2 1.8-.8.4-1.6.6-2.5.6-1.1 0-1.9-.1-2.6-.4-.7-.3-1.2-.7-1.6-1.2-.4-.5-.7-1.1-.8-1.9-.2-.7-.2-1.6-.2-2.4v-8.9h4v8.2c0 1.2.2 2.1.6 2.7s1 .9 2 .9c1.1 0 1.9-.3 2.4-1s.7-1.7.7-3.2v-7.6h4v14.5h-3.9zM174.3 110.7v2.7h.1c.2-.4.4-.9.8-1.2.3-.4.7-.7 1.1-1 .4-.3.8-.5 1.3-.6.5-.1 1-.2 1.5-.2.3 0 .6 0 .9.1v3.7c-.2 0-.4-.1-.7-.1h-.8c-.7 0-1.3.1-1.8.4-.5.2-.9.6-1.2 1-.3.4-.5.9-.7 1.5-.1.6-.2 1.2-.2 1.8v6.5h-4v-14.5h3.7zM181.3 115.2c.1-.9.3-1.7.7-2.3.4-.6.9-1.1 1.6-1.5.6-.4 1.3-.6 2.1-.8.8-.2 1.6-.2 2.4-.2.7 0 1.5.1 2.2.2.7.1 1.4.3 2 .6.6.3 1.1.7 1.5 1.2.4.5.6 1.2.6 2.1v7.5c0 .7 0 1.3.1 1.9.1.6.2 1 .4 1.3h-4c-.1-.2-.1-.5-.2-.7 0-.2-.1-.5-.1-.7-.6.7-1.4 1.1-2.2 1.4s-1.7.4-2.6.4c-.7 0-1.3-.1-1.9-.3s-1.1-.4-1.6-.8-.8-.8-1-1.3c-.3-.5-.4-1.2-.4-1.9 0-.8.1-1.5.4-2 .3-.5.7-1 1.1-1.3.5-.3 1-.6 1.6-.7.6-.2 1.2-.3 1.8-.4.6-.1 1.2-.2 1.8-.2.6-.1 1.1-.1 1.5-.3.4-.1.8-.3 1.1-.5.3-.2.4-.5.4-.9s-.1-.8-.2-1c-.1-.3-.3-.4-.6-.6s-.5-.2-.8-.3c-.3 0-.6-.1-1-.1-.8 0-1.4.2-1.8.5-.4.3-.7.9-.8 1.7h-4.1zm9.2 2.9c-.2.1-.4.3-.6.4s-.5.2-.8.2c-.3.1-.6.1-.9.1s-.6.1-1 .1c-.3.1-.6.1-.9.2-.3.1-.5.2-.8.4-.2.2-.4.4-.5.6-.1.2-.2.6-.2.9 0 .4.1.7.2.9.1.2.3.4.5.6.2.1.5.2.8.3s.6.1.9.1c.8 0 1.4-.1 1.8-.4.4-.3.7-.6 1-.9.2-.4.3-.7.4-1.1 0-.4.1-.7.1-.9v-1.5zM201.3 110.7v2h.1c.5-.8 1.2-1.5 2-1.8.8-.4 1.6-.6 2.5-.6 1.1 0 1.9.1 2.6.4.7.3 1.2.7 1.6 1.2.4.5.7 1.1.8 1.9.2.7.2 1.6.2 2.5v8.9h-4V117c0-1.2-.2-2.1-.6-2.7s-1-.9-2-.9c-1.1 0-1.9.3-2.4 1s-.7 1.7-.7 3.2v7.6h-4v-14.5h3.9zM221 113.3c-.6 0-1.2.1-1.6.4-.4.3-.8.7-1 1.1-.3.5-.5 1-.6 1.5-.1.6-.2 1.1-.2 1.6s.1 1.1.2 1.6.3 1 .5 1.5c.3.4.6.8 1 1.1.4.3 1 .4 1.6.4 1 0 1.7-.3 2.2-.8.5-.5.8-1.2 1-2.1h3.8c-.3 1.9-1 3.4-2.2 4.4-1.2 1-2.8 1.5-4.7 1.5-1.1 0-2.1-.2-3-.5-.9-.4-1.7-.9-2.3-1.5-.6-.7-1.1-1.4-1.5-2.3-.4-.9-.5-1.9-.5-3s.2-2.2.5-3.1c.3-1 .8-1.8 1.4-2.5.6-.7 1.4-1.2 2.3-1.6.9-.4 2-.6 3.1-.6.9 0 1.7.1 2.5.3.8.2 1.5.6 2.1 1 .6.5 1.1 1 1.5 1.7.4.7.6 1.5.7 2.4H224c-.3-1.7-1.3-2.5-3-2.5zM234.4 121.7c.6.6 1.5.9 2.6.9.8 0 1.5-.2 2.1-.6.6-.4.9-.8 1.1-1.3h3.5c-.6 1.7-1.4 3-2.6 3.7-1.2.7-2.6 1.1-4.2 1.1-1.1 0-2.2-.2-3.1-.5-.9-.4-1.7-.9-2.3-1.6-.6-.7-1.1-1.5-1.5-2.4-.3-.9-.5-2-.5-3.1s.2-2.1.5-3c.4-.9.9-1.7 1.5-2.4.7-.7 1.4-1.2 2.3-1.6.9-.4 1.9-.6 3-.6 1.2 0 2.3.2 3.2.7.9.5 1.7 1.1 2.3 1.9s1 1.7 1.3 2.7c.3 1 .4 2.1.3 3.2h-10.4c0 1.4.3 2.3.9 2.9zm4.5-7.6c-.5-.5-1.2-.8-2.2-.8-.6 0-1.2.1-1.6.3-.4.2-.8.5-1 .8s-.4.7-.5 1c-.1.4-.2.7-.2 1h6.5c-.2-1-.5-1.8-1-2.3z"/></svg>