<svg id="Layer_1" xmlns="http://www.w3.org/2000/svg" xmlns:xlink="http://www.w3.org/1999/xlink" viewBox="0 0 160 600"><style>.st0{clip-path:url(#SVGID_00000052086680171391794080000016458689535491310783_);fill:#349946}.st1{fill:#fff}</style><defs><path id="SVGID_1_" d="M13.5 338h133.8v28.2H13.5z"/></defs><clipPath id="SVGID_00000042701025212933332080000012952430070182635417_"><use xlink:href="#SVGID_1_" overflow="visible"/></clipPath><path d="M147.4 352.1c0 7.8-7.3 14.1-16.2 14.1H29.7c-8.9 0-16.2-6.3-16.2-14.1S20.8 338 29.7 338h101.4c9 0 16.3 6.3 16.3 14.1" clip-path="url(#SVGID_00000042701025212933332080000012952430070182635417_)" fill="#349946"/><g><path class="st1" d="M42.2 356.9l-1.5-6.1-1.5 6.1h-2l-2.4-9h2l1.4 6.1 1.6-6.1h1.9l1.5 6.2 1.5-6.2h1.9l-2.4 9h-2zM51.7 347.9l3.4 9H53l-.7-2h-3.4l-.7 2h-2l3.4-9h2.1zm.1 5.5l-1.1-3.3-1.2 3.3h2.3z"/></g><g><path class="st1" d="M54 349.6v-1.7h7.4v1.7h-2.7v7.3h-2v-7.3H54zM68.1 350.3c-.1-.2-.3-.4-.4-.5-.2-.1-.4-.3-.6-.3-.2-.1-.5-.1-.7-.1-.4 0-.8.1-1.1.3-.3.2-.6.4-.8.7-.2.3-.3.6-.4 1-.1.4-.1.8-.1 1.1 0 .4 0 .7.1 1.1.1.4.2.7.4 1 .2.3.4.5.8.7.3.2.7.3 1.1.3.6 0 1.1-.2 1.4-.6.3-.4.5-.9.6-1.5h1.9c-.1.6-.2 1.1-.4 1.5-.2.5-.5.8-.8 1.2-.3.3-.7.6-1.2.7s-1 .3-1.5.3c-.7 0-1.3-.1-1.9-.4-.6-.2-1-.6-1.4-1-.4-.4-.7-.9-.9-1.5s-.3-1.2-.3-1.8c0-.7.1-1.3.3-1.9.2-.6.5-1.1.9-1.5.4-.4.8-.8 1.4-1 .6-.2 1.2-.4 1.9-.4.5 0 1 .1 1.4.2.4.1.8.4 1.2.6.3.3.6.6.9 1 .2.4.4.9.4 1.4h-1.9l-.3-.6zM73.7 347.9v3.5h3.6v-3.5h2v9h-2V353h-3.6v3.9h-2v-9h2zM90 356.9l-2.9-9h2l2 6.3 2-6.3h2l-3 9H90zM98 347.9v9h-2v-9h2zM103.6 347.9c.6 0 1.1.1 1.6.3.5.2.9.5 1.3.8.4.4.7.8.9 1.4.2.6.3 1.2.3 2 0 .7-.1 1.3-.3 1.8-.2.6-.4 1-.8 1.4-.3.4-.8.7-1.3 1s-1.1.3-1.8.3h-3.9v-9h4zm-.1 7.3c.3 0 .6 0 .8-.1.3-.1.5-.2.7-.5.2-.2.4-.5.5-.8s.2-.8.2-1.3 0-.9-.1-1.2c-.1-.4-.2-.7-.4-.9-.2-.3-.5-.5-.8-.6s-.7-.2-1.2-.2h-1.4v5.7h1.7zM115.8 347.9v1.7H111v1.9h4.4v1.5H111v2.2h4.9v1.7H109v-9h6.8zM117.1 350.6c.2-.6.5-1.1.9-1.5s.8-.8 1.4-1c.6-.2 1.2-.4 1.9-.4s1.3.1 1.9.4c.5.2 1 .6 1.4 1s.7.9.9 1.5c.2.6.3 1.2.3 1.9s-.1 1.3-.3 1.8c-.2.6-.5 1.1-.9 1.5-.4.4-.8.8-1.4 1-.5.2-1.2.4-1.9.4s-1.3-.1-1.9-.4c-.6-.2-1-.6-1.4-1-.4-.4-.7-.9-.9-1.5-.2-.6-.3-1.2-.3-1.8 0-.7.1-1.4.3-1.9zm1.8 2.9c.1.4.2.7.4 1 .2.3.4.5.8.7.3.2.7.3 1.1.3s.8-.1 1.1-.3c.3-.2.6-.4.8-.7.2-.3.3-.6.4-1 .1-.4.1-.7.1-1.1 0-.4 0-.8-.1-1.1-.1-.4-.2-.7-.4-1s-.4-.5-.8-.7c-.3-.2-.7-.3-1.1-.3s-.8.1-1.1.3c-.3.2-.6.4-.8.7s-.3.6-.4 1c-.1.4-.1.8-.1 1.1 0 .4 0 .8.1 1.1z"/></g></svg>