<?xml version="1.0" encoding="utf-8"?>
<!-- Generator: Adobe Illustrator 26.5.0, SVG Export Plug-In . SVG Version: 6.00 Build 0)  -->
<svg version="1.1" id="Layer_1" xmlns="http://www.w3.org/2000/svg" xmlns:xlink="http://www.w3.org/1999/xlink" x="0px" y="0px"
	 viewBox="0 0 320 50" style="enable-background:new 0 0 320 50;" xml:space="preserve">
<style type="text/css">
	.st0{fill:#339933;}
	.st1{fill:#231F20;}
</style>
<g>
	<path class="st0" d="M14.4,8.1v13.2h-2.9V8.1H14.4z"/>
	<path class="st0" d="M15.7,13.5v-1.8h1.6V11c0-0.9,0.3-1.5,0.8-2.1c0.5-0.5,1.3-0.8,2.4-0.8c0.2,0,0.5,0,0.7,0c0.2,0,0.5,0,0.7,0v2
		c-0.3,0-0.6-0.1-1-0.1c-0.4,0-0.6,0.1-0.8,0.2s-0.2,0.4-0.2,0.8v0.6h1.8v1.8h-1.8v7.8h-2.6v-7.8H15.7z"/>
	<path class="st0" d="M33.2,11.8v1.8h-1.9v4.7c0,0.4,0.1,0.7,0.2,0.9c0.1,0.1,0.4,0.2,0.9,0.2c0.1,0,0.3,0,0.4,0s0.3,0,0.4-0.1v2
		c-0.2,0-0.5,0.1-0.7,0.1c-0.3,0-0.5,0-0.8,0c-0.4,0-0.8,0-1.2-0.1s-0.7-0.2-1-0.3c-0.3-0.2-0.5-0.4-0.7-0.7s-0.2-0.7-0.2-1.2v-5.6
		h-1.6v-1.8h1.6V8.9h2.6v2.9H33.2z"/>
	<path class="st0" d="M37.1,8.1v5h0.1c0.3-0.6,0.8-1,1.3-1.2c0.5-0.3,1-0.4,1.5-0.4c0.7,0,1.3,0.1,1.7,0.3s0.8,0.5,1.1,0.8
		c0.3,0.3,0.4,0.8,0.5,1.2c0.1,0.5,0.2,1,0.2,1.6v5.9h-2.6v-5.4c0-0.8-0.1-1.4-0.4-1.8c-0.2-0.4-0.7-0.6-1.3-0.6
		c-0.7,0-1.2,0.2-1.6,0.6s-0.5,1.1-0.5,2.1v5h-2.6V8.1H37.1z"/>
	<path class="st0" d="M48.3,19.1c0.4,0.4,1,0.6,1.7,0.6c0.5,0,1-0.1,1.4-0.4s0.6-0.5,0.7-0.8h2.3c-0.4,1.1-0.9,2-1.7,2.5
		c-0.8,0.5-1.7,0.7-2.8,0.7c-0.8,0-1.4-0.1-2-0.4c-0.6-0.2-1.1-0.6-1.5-1c-0.4-0.4-0.7-1-1-1.6c-0.2-0.6-0.3-1.3-0.3-2
		c0-0.7,0.1-1.4,0.4-2c0.2-0.6,0.6-1.1,1-1.6c0.4-0.5,0.9-0.8,1.5-1.1c0.6-0.3,1.3-0.4,2-0.4c0.8,0,1.5,0.2,2.1,0.5s1.1,0.7,1.5,1.3
		c0.4,0.5,0.7,1.1,0.8,1.8s0.2,1.4,0.2,2.1h-6.9C47.7,18.1,47.9,18.7,48.3,19.1z M51.3,14c-0.3-0.3-0.8-0.5-1.4-0.5
		c-0.4,0-0.8,0.1-1,0.2c-0.3,0.1-0.5,0.3-0.7,0.5c-0.2,0.2-0.3,0.4-0.4,0.7s-0.1,0.4-0.1,0.6h4.3C51.8,14.9,51.6,14.4,51.3,14z"/>
</g>
<g>
	<path class="st1" d="M68.6,8.1c0.6,0,1.1,0.1,1.6,0.3c0.5,0.2,0.9,0.5,1.2,0.8c0.3,0.3,0.6,0.7,0.8,1.2c0.2,0.4,0.3,0.9,0.3,1.4
		c0,0.8-0.2,1.4-0.5,2c-0.3,0.6-0.9,1-1.6,1.3v0c0.4,0.1,0.7,0.2,0.9,0.5s0.4,0.4,0.6,0.7c0.1,0.3,0.3,0.6,0.3,0.9
		c0.1,0.3,0.1,0.7,0.1,1c0,0.2,0,0.5,0,0.7c0,0.3,0,0.6,0.1,0.9s0.1,0.6,0.1,0.8c0.1,0.3,0.2,0.5,0.3,0.7H70
		c-0.2-0.4-0.3-0.9-0.3-1.5c0-0.6-0.1-1.1-0.2-1.7c-0.1-0.7-0.3-1.2-0.6-1.5c-0.3-0.3-0.8-0.5-1.6-0.5h-2.9v5.2h-2.9V8.1H68.6z
		 M67.6,14.1c0.7,0,1.2-0.1,1.5-0.4c0.3-0.3,0.5-0.8,0.5-1.4c0-0.6-0.2-1.1-0.5-1.4c-0.3-0.3-0.8-0.4-1.5-0.4h-3.2v3.7H67.6z"/>
	<path class="st1" d="M84.8,8.1v2.4h-7v2.8h6.4v2.3h-6.4v3.2h7.1v2.4h-10V8.1H84.8z"/>
	<path class="st1" d="M85.8,10.6V8.1h10.8v2.4h-4v10.8h-2.9V10.6H85.8z"/>
	<path class="st1" d="M103.1,8.1l4.9,13.2h-3l-1-2.9h-4.9l-1,2.9h-2.9l5-13.2H103.1z M103.2,16.2l-1.7-4.8h0l-1.7,4.8H103.2z"/>
	<path class="st1" d="M112.1,8.1v13.2h-2.9V8.1H112.1z"/>
	<path class="st1" d="M117.5,8.1L123,17h0V8.1h2.7v13.2h-2.9l-5.5-8.8h0v8.8h-2.7V8.1H117.5z"/>
	<path class="st1" d="M138.2,8.1v2.4h-7v2.8h6.4v2.3h-6.4v3.2h7.1v2.4h-10V8.1H138.2z"/>
	<path class="st1" d="M147.4,8.1c0.6,0,1.1,0.1,1.6,0.3c0.5,0.2,0.9,0.5,1.2,0.8c0.3,0.3,0.6,0.7,0.8,1.2c0.2,0.4,0.3,0.9,0.3,1.4
		c0,0.8-0.2,1.4-0.5,2s-0.9,1-1.6,1.3v0c0.4,0.1,0.7,0.2,0.9,0.5s0.4,0.4,0.6,0.7c0.1,0.3,0.3,0.6,0.3,0.9s0.1,0.7,0.1,1
		c0,0.2,0,0.5,0,0.7c0,0.3,0,0.6,0.1,0.9s0.1,0.6,0.1,0.8c0.1,0.3,0.2,0.5,0.3,0.7h-2.9c-0.2-0.4-0.3-0.9-0.3-1.5
		c0-0.6-0.1-1.1-0.2-1.7c-0.1-0.7-0.3-1.2-0.6-1.5c-0.3-0.3-0.8-0.5-1.6-0.5h-2.9v5.2h-2.9V8.1H147.4z M146.4,14.1
		c0.7,0,1.2-0.1,1.5-0.4c0.3-0.3,0.5-0.8,0.5-1.4c0-0.6-0.2-1.1-0.5-1.4c-0.3-0.3-0.8-0.4-1.5-0.4h-3.2v3.7H146.4z"/>
	<path class="st1" d="M168.1,8.1v2.4h-6.4v3.1h5.5v2.3h-5.5v5.5h-2.9V8.1H168.1z"/>
	<path class="st1" d="M172.7,8.1v13.2h-2.9V8.1H172.7z"/>
	<path class="st1" d="M174.2,10.6V8.1H185v2.4h-4v10.8h-2.9V10.6H174.2z"/>
	<path class="st1" d="M188.8,18.1c0.2,0.3,0.4,0.6,0.6,0.7c0.3,0.2,0.6,0.3,0.9,0.4c0.4,0.1,0.7,0.1,1.1,0.1c0.3,0,0.5,0,0.8-0.1
		c0.3,0,0.6-0.1,0.8-0.2c0.3-0.1,0.5-0.3,0.6-0.5s0.3-0.5,0.3-0.8c0-0.4-0.1-0.6-0.3-0.9s-0.5-0.4-0.9-0.6s-0.8-0.3-1.3-0.4
		c-0.5-0.1-0.9-0.2-1.4-0.4c-0.5-0.1-1-0.3-1.4-0.5s-0.9-0.4-1.3-0.7c-0.4-0.3-0.7-0.6-0.9-1.1c-0.2-0.4-0.3-0.9-0.3-1.5
		c0-0.7,0.1-1.3,0.4-1.8c0.3-0.5,0.7-0.9,1.1-1.2c0.5-0.3,1-0.6,1.6-0.7c0.6-0.2,1.2-0.2,1.8-0.2c0.7,0,1.4,0.1,2,0.2
		c0.6,0.2,1.2,0.4,1.7,0.7s0.9,0.8,1.2,1.3s0.4,1.2,0.4,2h-2.8c0-0.4-0.1-0.7-0.2-1s-0.3-0.5-0.6-0.6s-0.5-0.3-0.8-0.3
		c-0.3-0.1-0.6-0.1-1-0.1c-0.2,0-0.5,0-0.7,0.1s-0.4,0.1-0.6,0.3c-0.2,0.1-0.3,0.3-0.5,0.5c-0.1,0.2-0.2,0.4-0.2,0.7
		c0,0.3,0,0.5,0.1,0.6c0.1,0.2,0.3,0.3,0.6,0.4s0.7,0.3,1.2,0.4c0.5,0.1,1.2,0.3,2,0.5c0.2,0,0.6,0.1,1,0.3c0.4,0.1,0.9,0.3,1.3,0.6
		s0.8,0.7,1.1,1.1s0.5,1.1,0.5,1.8c0,0.6-0.1,1.2-0.4,1.7c-0.2,0.5-0.6,1-1,1.3c-0.5,0.4-1,0.7-1.7,0.9s-1.5,0.3-2.4,0.3
		c-0.7,0-1.4-0.1-2.1-0.3c-0.7-0.2-1.3-0.5-1.8-0.8s-0.9-0.9-1.2-1.5c-0.3-0.6-0.5-1.3-0.4-2.1h2.8
		C188.5,17.4,188.6,17.8,188.8,18.1z"/>
	<path class="st1" d="M201.3,18.5v2.8c0,0.4-0.1,0.8-0.2,1.2s-0.4,0.7-0.6,0.9c-0.3,0.3-0.6,0.5-0.9,0.6s-0.7,0.3-1.1,0.3v-1.3
		c0.2,0,0.4-0.1,0.5-0.2c0.2-0.1,0.3-0.2,0.4-0.4c0.1-0.2,0.2-0.3,0.3-0.5c0.1-0.2,0.1-0.4,0.1-0.6h-1.3v-2.8H201.3z"/>
</g>
<g>
	<path class="st0" d="M21.2,39.8l-2.2-9h0l-2.2,9h-2.9l-3.5-13.2h2.9l2.1,9h0l2.3-9h2.7l2.3,9.1h0l2.2-9.1h2.8l-3.6,13.2H21.2z"/>
	<path class="st0" d="M38.9,26.6v2.4h-7v2.8h6.4v2.3h-6.4v3.2H39v2.4H29V26.6H38.9z"/>
	<path class="st0" d="M47.5,26.6l4.9,13.2h-3l-1-2.9h-4.9l-1,2.9h-2.9l5-13.2H47.5z M47.7,34.7L46,29.9h0l-1.7,4.8H47.7z"/>
	<path class="st0" d="M60.8,26.6c0.6,0,1.1,0.1,1.6,0.3c0.5,0.2,0.9,0.5,1.2,0.8c0.3,0.3,0.6,0.7,0.8,1.2s0.3,0.9,0.3,1.4
		c0,0.8-0.2,1.4-0.5,2c-0.3,0.6-0.9,1-1.6,1.3v0c0.4,0.1,0.7,0.2,0.9,0.5s0.4,0.4,0.6,0.7c0.1,0.3,0.3,0.6,0.3,0.9
		c0.1,0.3,0.1,0.7,0.1,1c0,0.2,0,0.5,0,0.7c0,0.3,0,0.6,0.1,0.9c0,0.3,0.1,0.6,0.1,0.8c0.1,0.3,0.2,0.5,0.3,0.7h-2.9
		c-0.2-0.4-0.3-0.9-0.3-1.5c0-0.6-0.1-1.1-0.2-1.7c-0.1-0.7-0.3-1.2-0.6-1.5c-0.3-0.3-0.8-0.5-1.6-0.5h-2.9v5.2h-2.9V26.6H60.8z
		 M59.7,32.6c0.7,0,1.2-0.1,1.5-0.4s0.5-0.8,0.5-1.4c0-0.6-0.2-1.1-0.5-1.4c-0.3-0.3-0.8-0.4-1.5-0.4h-3.2v3.7H59.7z"/>
	<path class="st0" d="M75,26.6v13.2h-2.9V26.6H75z"/>
	<path class="st0" d="M76.6,29.1v-2.4h10.8v2.4h-4v10.8h-2.9V29.1H76.6z"/>
	<path class="st0" d="M89.6,37v2.8h-2.9V37H89.6z"/>
</g>
</svg>
