<?xml version="1.0" encoding="utf-8"?>
<!-- Generator: Adobe Illustrator 26.5.0, SVG Export Plug-In . SVG Version: 6.00 Build 0)  -->
<svg version="1.1" id="Layer_1" xmlns="http://www.w3.org/2000/svg" xmlns:xlink="http://www.w3.org/1999/xlink" x="0px" y="0px"
	 viewBox="0 0 320 50" style="enable-background:new 0 0 320 50;" xml:space="preserve">
<style type="text/css">
	.st0{fill:#339933;}
	.st1{fill:#FFFFFF;}
</style>
<path class="st0" d="M243.5,8.2c-4.6,0-8.4,3.8-8.4,8.4c0,4.6,3.8,8.4,8.4,8.4H300c4.6,0,8.4-3.8,8.4-8.4c0-4.6-3.8-8.4-8.4-8.4
	H243.5z"/>
<g>
	<path class="st1" d="M246.8,13.8v4.6h2.8v1h-4v-5.7H246.8z"/>
	<path class="st1" d="M254.5,13.8v1h-3v1.2h2.7v1h-2.7v1.4h3.1v1h-4.3v-5.7H254.5z"/>
	<path class="st1" d="M258.3,13.8l2.1,5.7h-1.3l-0.4-1.3h-2.1l-0.4,1.3h-1.3l2.1-5.7H258.3z M258.3,17.3l-0.7-2.1h0l-0.7,2.1H258.3z
		"/>
	<path class="st1" d="M263.9,13.8c0.3,0,0.5,0,0.7,0.1c0.2,0.1,0.4,0.2,0.5,0.3c0.1,0.1,0.3,0.3,0.3,0.5c0.1,0.2,0.1,0.4,0.1,0.6
		c0,0.3-0.1,0.6-0.2,0.9c-0.1,0.2-0.4,0.4-0.7,0.6v0c0.2,0,0.3,0.1,0.4,0.2s0.2,0.2,0.2,0.3s0.1,0.2,0.1,0.4s0,0.3,0.1,0.4
		c0,0.1,0,0.2,0,0.3c0,0.1,0,0.2,0,0.4c0,0.1,0,0.2,0.1,0.4s0.1,0.2,0.1,0.3h-1.2c-0.1-0.2-0.1-0.4-0.1-0.6c0-0.2,0-0.5-0.1-0.7
		c0-0.3-0.1-0.5-0.3-0.7s-0.4-0.2-0.7-0.2h-1.2v2.2h-1.2v-5.7H263.9z M263.5,16.4c0.3,0,0.5-0.1,0.6-0.2c0.1-0.1,0.2-0.3,0.2-0.6
		c0-0.3-0.1-0.5-0.2-0.6c-0.1-0.1-0.4-0.2-0.6-0.2h-1.4v1.6H263.5z"/>
	<path class="st1" d="M267.9,13.8l2.4,3.8h0v-3.8h1.2v5.7h-1.2l-2.4-3.8h0v3.8h-1.2v-5.7H267.9z"/>
	<path class="st1" d="M276.5,13.8l1.3,3.9h0l1.3-3.9h1.8v5.7h-1.2v-4h0l-1.4,4h-1l-1.4-4h0v4h-1.2v-5.7H276.5z"/>
	<path class="st1" d="M281.9,15.5c0.1-0.4,0.3-0.7,0.5-0.9s0.5-0.5,0.9-0.6c0.3-0.2,0.7-0.2,1.2-0.2c0.4,0,0.8,0.1,1.2,0.2
		c0.3,0.2,0.6,0.4,0.9,0.6s0.4,0.6,0.5,0.9c0.1,0.4,0.2,0.8,0.2,1.2c0,0.4-0.1,0.8-0.2,1.2c-0.1,0.4-0.3,0.7-0.5,0.9
		c-0.2,0.3-0.5,0.5-0.9,0.6c-0.3,0.2-0.7,0.2-1.2,0.2c-0.4,0-0.8-0.1-1.2-0.2s-0.6-0.4-0.9-0.6c-0.2-0.3-0.4-0.6-0.5-0.9
		c-0.1-0.4-0.2-0.7-0.2-1.2C281.7,16.3,281.7,15.9,281.9,15.5z M283,17.4c0.1,0.2,0.1,0.4,0.3,0.6c0.1,0.2,0.3,0.3,0.5,0.4
		c0.2,0.1,0.4,0.2,0.7,0.2c0.3,0,0.5-0.1,0.7-0.2c0.2-0.1,0.4-0.3,0.5-0.4c0.1-0.2,0.2-0.4,0.3-0.6c0.1-0.2,0.1-0.5,0.1-0.7
		c0-0.2,0-0.5-0.1-0.7c-0.1-0.2-0.1-0.4-0.3-0.6s-0.3-0.3-0.5-0.4c-0.2-0.1-0.4-0.2-0.7-0.2c-0.3,0-0.5,0.1-0.7,0.2
		c-0.2,0.1-0.4,0.3-0.5,0.4s-0.2,0.4-0.3,0.6s-0.1,0.5-0.1,0.7C282.9,16.9,282.9,17.2,283,17.4z"/>
	<path class="st1" d="M291.1,13.8c0.3,0,0.5,0,0.7,0.1c0.2,0.1,0.4,0.2,0.5,0.3c0.1,0.1,0.3,0.3,0.3,0.5c0.1,0.2,0.1,0.4,0.1,0.6
		c0,0.3-0.1,0.6-0.2,0.9c-0.1,0.2-0.4,0.4-0.7,0.6v0c0.2,0,0.3,0.1,0.4,0.2s0.2,0.2,0.2,0.3s0.1,0.2,0.1,0.4s0,0.3,0.1,0.4
		c0,0.1,0,0.2,0,0.3c0,0.1,0,0.2,0,0.4c0,0.1,0,0.2,0.1,0.4s0.1,0.2,0.1,0.3h-1.2c-0.1-0.2-0.1-0.4-0.1-0.6c0-0.2,0-0.5-0.1-0.7
		c0-0.3-0.1-0.5-0.3-0.7s-0.4-0.2-0.7-0.2h-1.2v2.2h-1.2v-5.7H291.1z M290.7,16.4c0.3,0,0.5-0.1,0.6-0.2c0.1-0.1,0.2-0.3,0.2-0.6
		c0-0.3-0.1-0.5-0.2-0.6c-0.1-0.1-0.4-0.2-0.6-0.2h-1.4v1.6H290.7z"/>
	<path class="st1" d="M298.1,13.8v1h-3v1.2h2.7v1h-2.7v1.4h3.1v1h-4.3v-5.7H298.1z"/>
</g>
</svg>
