<?xml version="1.0" encoding="utf-8"?>
<!-- Generator: Adobe Illustrator 26.5.0, SVG Export Plug-In . SVG Version: 6.00 Build 0)  -->
<svg version="1.1" id="Layer_1" xmlns="http://www.w3.org/2000/svg" xmlns:xlink="http://www.w3.org/1999/xlink" x="0px" y="0px"
	 viewBox="0 0 320 50" style="enable-background:new 0 0 320 50;" xml:space="preserve">
<style type="text/css">
	.st0{fill:#349946;}
	.st1{fill:#231F20;}
	.st2{fill:none;}
</style>
<path class="st0" d="M12.8,34.1h-1.1L11.3,33H9.1l-0.4,1.1H7.6l2-5.2h0.8c0.3,0,0.5,0.1,0.5,0.3c0.1,0.2,1,2.5,1,2.5h-1l-0.6-1.8
	l-0.8,2.2h2.2c0.3,0,0.5,0.1,0.5,0.3L12.8,34.1z"/>
<path class="st0" d="M22.6,34.1h-1.1L21.1,33h-2.2l-0.4,1.1h-1.1l2-5.2h0.8c0.3,0,0.5,0.1,0.5,0.3c0.1,0.2,1,2.5,1,2.5h-1L20,29.9
	l-0.8,2.2h2.2c0.3,0,0.5,0.1,0.5,0.3L22.6,34.1z"/>
<path class="st0" d="M13.1,28.9h2c1.6,0,2.4,0.8,2.4,2.6c0,1-0.3,1.7-0.8,2.1c-0.5,0.4-1.1,0.5-1.8,0.5h-1.7V28.9z M15,33.1
	c1,0,1.4-0.5,1.4-1.7c0-1.2-0.4-1.7-1.3-1.7h-1v3.3H15z"/>
<g>
	<path class="st1" d="M31.4,34h-0.8l-0.3-3.7L29,34h-0.7L27,30.3L26.7,34h-0.8l0.5-4.9h0.9l1.3,3.8l1.3-3.8h0.9L31.4,34z"/>
	<path class="st1" d="M35.4,32.2c0,0,0,0.1,0,0.2c0,0.1,0,0.1,0,0.1H33c0,0.3,0.1,0.5,0.2,0.7c0.2,0.2,0.5,0.3,0.8,0.3
		c0.3,0,0.6-0.1,1-0.3l0.3,0.5c-0.4,0.3-0.8,0.4-1.3,0.4c-0.6,0-1-0.2-1.3-0.5c-0.3-0.3-0.5-0.8-0.5-1.3c0-0.6,0.2-1,0.5-1.4
		c0.3-0.4,0.7-0.5,1.2-0.5c0.5,0,0.9,0.2,1.1,0.5S35.4,31.6,35.4,32.2z M34.6,31.9c0-0.2,0-0.4-0.1-0.6c-0.1-0.2-0.3-0.3-0.6-0.3
		c-0.3,0-0.5,0.1-0.6,0.3c-0.2,0.2-0.3,0.4-0.3,0.7H34.6z"/>
	<path class="st1" d="M41.3,34h-0.8v-2c0-0.4,0-0.7-0.1-0.8c-0.1-0.1-0.2-0.2-0.4-0.2c-0.3,0-0.5,0.1-0.8,0.3c0,0.1,0.1,0.4,0.1,0.8
		V34h-0.8v-2c0-0.5-0.1-0.8-0.2-0.9c-0.1-0.1-0.2-0.1-0.4-0.1c-0.3,0-0.5,0.1-0.8,0.2V34h-0.8v-3.6h0.7v0.3c0.3-0.2,0.7-0.4,1.1-0.4
		c0.4,0,0.7,0.1,0.9,0.4c0.4-0.3,0.8-0.4,1.2-0.4c0.4,0,0.7,0.1,0.9,0.3c0.2,0.2,0.3,0.4,0.3,0.7c0,0.2,0,0.5,0,0.9V34z"/>
	<path class="st1" d="M45.5,32.2c0,0.6-0.2,1.1-0.5,1.4s-0.8,0.5-1.4,0.5c-0.4,0-0.9-0.1-1.4-0.3v-5.2H43v1.9
		c0.3-0.2,0.6-0.3,0.9-0.3c0.5,0,0.8,0.2,1.1,0.5C45.3,31.2,45.5,31.6,45.5,32.2z M44.7,32.2c0-0.4-0.1-0.7-0.3-0.9
		C44.2,31.1,44,31,43.8,31c-0.3,0-0.5,0.1-0.8,0.3v2.1c0.2,0.1,0.4,0.1,0.6,0.1c0.3,0,0.6-0.1,0.8-0.4S44.7,32.6,44.7,32.2z"/>
	<path class="st1" d="M49.3,32.2c0,0,0,0.1,0,0.2c0,0.1,0,0.1,0,0.1h-2.4c0,0.3,0.1,0.5,0.2,0.7c0.2,0.2,0.5,0.3,0.8,0.3
		c0.3,0,0.6-0.1,1-0.3l0.3,0.5c-0.4,0.3-0.8,0.4-1.3,0.4c-0.6,0-1-0.2-1.3-0.5c-0.3-0.3-0.5-0.8-0.5-1.3c0-0.6,0.2-1,0.5-1.4
		c0.3-0.4,0.7-0.5,1.2-0.5c0.5,0,0.9,0.2,1.1,0.5S49.3,31.6,49.3,32.2z M48.6,31.9c0-0.2,0-0.4-0.1-0.6c-0.1-0.2-0.3-0.3-0.6-0.3
		c-0.3,0-0.5,0.1-0.6,0.3c-0.2,0.2-0.3,0.4-0.3,0.7H48.6z"/>
	<path class="st1" d="M52.4,30.4L52.2,31c-0.1,0-0.1,0-0.2,0c-0.4,0-0.8,0.2-1,0.6V34h-0.8v-3.6h0.7v0.5c0.1-0.1,0.2-0.2,0.3-0.3
		c0.3-0.2,0.5-0.3,0.8-0.3C52.1,30.3,52.3,30.4,52.4,30.4z"/>
</g>
<g>
	<path class="st1" d="M55.3,33c0,0.3-0.1,0.6-0.4,0.8s-0.6,0.3-1,0.3c-0.3,0-0.6-0.1-0.9-0.2c-0.2-0.1-0.3-0.1-0.4-0.2l0.3-0.5
		c0.4,0.2,0.7,0.3,0.9,0.3c0.2,0,0.4,0,0.5-0.1c0.1-0.1,0.2-0.2,0.2-0.3c0-0.1-0.1-0.2-0.2-0.3c-0.1,0-0.3-0.1-0.6-0.3
		c-0.3-0.1-0.5-0.2-0.6-0.3c-0.2-0.2-0.3-0.4-0.3-0.7c0-0.3,0.1-0.6,0.4-0.8s0.6-0.3,1-0.3c0.5,0,0.9,0.1,1.2,0.3L55,31.2
		c-0.3-0.2-0.6-0.2-0.8-0.2c-0.4,0-0.6,0.1-0.6,0.4c0,0.1,0.1,0.2,0.2,0.3c0.1,0,0.2,0.1,0.5,0.2c0.4,0.2,0.6,0.3,0.7,0.4
		C55.2,32.4,55.3,32.7,55.3,33z"/>
	<path class="st1" d="M58.9,34H58v-4.9h0.9V34z"/>
	<path class="st1" d="M62.9,34h-0.8v-2c0-0.5-0.1-0.8-0.2-0.9c-0.1-0.1-0.3-0.2-0.5-0.2c-0.3,0-0.5,0.1-0.8,0.3V34h-0.8v-3.6h0.7
		v0.3c0.3-0.2,0.7-0.4,1.1-0.4c0.4,0,0.7,0.1,0.9,0.3c0.2,0.2,0.3,0.4,0.3,0.6c0,0.1,0,0.4,0,0.7V34z"/>
	<path class="st1" d="M66.3,33c0,0.3-0.1,0.6-0.4,0.8s-0.6,0.3-1,0.3c-0.3,0-0.6-0.1-0.9-0.2c-0.2-0.1-0.3-0.1-0.4-0.2l0.3-0.5
		c0.4,0.2,0.7,0.3,0.9,0.3c0.2,0,0.4,0,0.5-0.1c0.1-0.1,0.2-0.2,0.2-0.3c0-0.1-0.1-0.2-0.2-0.3c-0.1,0-0.3-0.1-0.6-0.3
		c-0.3-0.1-0.5-0.2-0.6-0.3c-0.2-0.2-0.3-0.4-0.3-0.7c0-0.3,0.1-0.6,0.4-0.8s0.6-0.3,1-0.3c0.5,0,0.9,0.1,1.2,0.3l-0.3,0.5
		c-0.3-0.2-0.6-0.2-0.8-0.2c-0.4,0-0.6,0.1-0.6,0.4c0,0.1,0.1,0.2,0.2,0.3c0.1,0,0.2,0.1,0.5,0.2c0.4,0.2,0.6,0.3,0.7,0.4
		C66.1,32.4,66.3,32.7,66.3,33z"/>
	<path class="st1" d="M70.1,34h-0.7v-0.3c-0.3,0.2-0.7,0.4-1.1,0.4c-0.4,0-0.7-0.1-0.9-0.3c-0.2-0.2-0.3-0.4-0.3-0.6
		c0-0.1,0-0.4,0-0.7v-2h0.8v2c0,0.2,0,0.4,0,0.5c0,0.2,0.1,0.3,0.2,0.4c0.1,0.1,0.2,0.1,0.4,0.1c0.2,0,0.5-0.1,0.8-0.3v-2.7h0.8V34z
		"/>
	<path class="st1" d="M73.3,30.4L73.1,31c-0.1,0-0.1,0-0.2,0c-0.4,0-0.8,0.2-1,0.6V34H71v-3.6h0.7v0.5c0.1-0.1,0.2-0.2,0.3-0.3
		c0.3-0.2,0.5-0.3,0.8-0.3C73.1,30.3,73.2,30.4,73.3,30.4z"/>
</g>
<g>
	<path class="st1" d="M76.5,34h-0.7v-0.3c-0.4,0.2-0.7,0.3-1.1,0.3c-0.3,0-0.6-0.1-0.8-0.3c-0.2-0.2-0.3-0.5-0.3-0.8
		c0-0.8,0.7-1.3,2-1.3h0.1v-0.1c0-0.2,0-0.4-0.1-0.4C75.5,31,75.3,31,75,31c-0.3,0-0.6,0.1-1,0.3l-0.3-0.5c0.1-0.1,0.2-0.1,0.4-0.2
		c0.3-0.1,0.6-0.2,0.9-0.2c0.5,0,0.9,0.1,1.1,0.4c0.1,0.1,0.2,0.3,0.2,0.5c0,0.1,0,0.3,0,0.6V34z M75.7,33.2v-1h-0.2
		c-0.6,0-0.9,0.1-1.1,0.3c-0.1,0.1-0.1,0.2-0.1,0.4c0,0.2,0.1,0.3,0.2,0.4c0.1,0.1,0.3,0.1,0.5,0.1C75.2,33.5,75.4,33.4,75.7,33.2z"
		/>
	<path class="st1" d="M80.4,34h-0.8v-2c0-0.5-0.1-0.8-0.2-0.9C79.3,31.1,79.2,31,79,31c-0.3,0-0.5,0.1-0.8,0.3V34h-0.8v-3.6h0.7v0.3
		c0.3-0.2,0.7-0.4,1.1-0.4c0.4,0,0.7,0.1,0.9,0.3c0.2,0.2,0.3,0.4,0.3,0.6c0,0.1,0,0.4,0,0.7V34z"/>
	<path class="st1" d="M84.3,33.7c-0.1,0.1-0.2,0.1-0.4,0.2c-0.3,0.1-0.6,0.2-1,0.2c-0.5,0-1-0.2-1.3-0.5c-0.3-0.3-0.5-0.8-0.5-1.3
		c0-0.6,0.2-1,0.5-1.4c0.4-0.4,0.8-0.5,1.3-0.5c0.3,0,0.6,0.1,0.8,0.2c0.2,0.1,0.3,0.2,0.3,0.2l-0.3,0.5c-0.3-0.2-0.5-0.2-0.8-0.2
		c-0.3,0-0.6,0.1-0.8,0.4c-0.2,0.2-0.3,0.5-0.3,0.8c0,0.4,0.1,0.7,0.3,0.9c0.2,0.2,0.5,0.3,0.8,0.3c0.3,0,0.6-0.1,0.9-0.3L84.3,33.7
		z"/>
</g>
<g>
	<path class="st1" d="M87.9,32.2c0,0,0,0.1,0,0.2c0,0.1,0,0.1,0,0.1h-2.4c0,0.3,0.1,0.5,0.2,0.7c0.2,0.2,0.5,0.3,0.8,0.3
		c0.3,0,0.6-0.1,1-0.3l0.3,0.5c-0.4,0.3-0.8,0.4-1.3,0.4c-0.6,0-1-0.2-1.3-0.5c-0.3-0.3-0.5-0.8-0.5-1.3c0-0.6,0.2-1,0.5-1.4
		c0.3-0.4,0.7-0.5,1.2-0.5c0.5,0,0.9,0.2,1.1,0.5S87.9,31.6,87.9,32.2z M87.1,31.9c0-0.2,0-0.4-0.1-0.6c-0.1-0.2-0.3-0.3-0.6-0.3
		c-0.3,0-0.5,0.1-0.6,0.3c-0.2,0.2-0.3,0.4-0.3,0.7H87.1z"/>
	<path class="st1" d="M93.8,30.6c0,0.5-0.1,0.8-0.4,1.1c-0.2,0.2-0.5,0.3-0.8,0.4c-0.2,0-0.5,0.1-0.9,0.1h-0.4V34h-0.8v-4.9h1.3
		c0.4,0,0.7,0,0.9,0.1c0.3,0.1,0.5,0.2,0.7,0.4C93.7,29.8,93.8,30.2,93.8,30.6z M92.9,30.6c0-0.3-0.1-0.5-0.2-0.6
		c-0.1-0.1-0.4-0.2-0.9-0.2h-0.5v1.7h0.3c0.5,0,0.9-0.1,1-0.2C92.8,31.1,92.9,30.9,92.9,30.6z"/>
	<path class="st1" d="M95.5,34h-0.8v-5.3h0.8V34z"/>
	<path class="st1" d="M99.1,34h-0.7v-0.3c-0.4,0.2-0.7,0.3-1.1,0.3c-0.3,0-0.6-0.1-0.8-0.3c-0.2-0.2-0.3-0.5-0.3-0.8
		c0-0.8,0.7-1.3,2-1.3h0.1v-0.1c0-0.2,0-0.4-0.1-0.4C98.2,31,98,31,97.7,31c-0.3,0-0.6,0.1-1,0.3l-0.3-0.5c0.1-0.1,0.2-0.1,0.4-0.2
		c0.3-0.1,0.6-0.2,0.9-0.2c0.5,0,0.9,0.1,1.1,0.4c0.1,0.1,0.2,0.3,0.2,0.5c0,0.1,0,0.3,0,0.6V34z M98.4,33.2v-1h-0.2
		c-0.6,0-0.9,0.1-1.1,0.3C97,32.7,97,32.8,97,32.9c0,0.2,0.1,0.3,0.2,0.4c0.1,0.1,0.3,0.1,0.5,0.1C97.8,33.5,98.1,33.4,98.4,33.2z"
		/>
	<path class="st1" d="M103.1,34h-0.8v-2c0-0.5-0.1-0.8-0.2-0.9c-0.1-0.1-0.3-0.2-0.5-0.2c-0.3,0-0.5,0.1-0.8,0.3V34H100v-3.6h0.7
		v0.3c0.3-0.2,0.7-0.4,1.1-0.4c0.4,0,0.7,0.1,0.9,0.3c0.2,0.2,0.3,0.4,0.3,0.6c0,0.1,0,0.4,0,0.7V34z"/>
	<path class="st1" d="M106.4,33c0,0.3-0.1,0.6-0.4,0.8s-0.6,0.3-1,0.3c-0.3,0-0.6-0.1-0.9-0.2c-0.2-0.1-0.3-0.1-0.4-0.2l0.3-0.5
		c0.4,0.2,0.7,0.3,0.9,0.3c0.2,0,0.4,0,0.5-0.1c0.1-0.1,0.2-0.2,0.2-0.3c0-0.1-0.1-0.2-0.2-0.3c-0.1,0-0.3-0.1-0.6-0.3
		c-0.3-0.1-0.5-0.2-0.6-0.3c-0.2-0.2-0.3-0.4-0.3-0.7c0-0.3,0.1-0.6,0.4-0.8s0.6-0.3,1-0.3c0.5,0,0.9,0.1,1.2,0.3l-0.3,0.5
		c-0.3-0.2-0.6-0.2-0.8-0.2c-0.4,0-0.6,0.1-0.6,0.4c0,0.1,0.1,0.2,0.2,0.3c0.1,0,0.2,0.1,0.5,0.2c0.4,0.2,0.6,0.3,0.7,0.4
		C106.3,32.4,106.4,32.7,106.4,33z"/>
</g>
<path class="st0" d="M23.3,34.1c-0.3,0-0.6-0.3-0.6-0.6s0.3-0.6,0.6-0.6c0.3,0,0.6,0.3,0.6,0.6S23.7,34.1,23.3,34.1 M23.3,33
	c-0.3,0-0.5,0.2-0.5,0.5c0,0.3,0.2,0.5,0.5,0.5s0.5-0.2,0.5-0.5C23.8,33.2,23.6,33,23.3,33 M23.5,33.8l-0.1-0.2c0-0.1,0-0.1-0.1-0.1
	h0v0.3h-0.1v-0.6h0.2c0.1,0,0.1,0,0.2,0.1c0,0,0.1,0.1,0.1,0.1c0,0.1,0,0.1-0.1,0.1c0,0,0.1,0.1,0.1,0.1l0.1,0.2H23.5z M23.4,33.3
	C23.3,33.3,23.3,33.3,23.4,33.3l-0.1,0v0.2c0,0,0.1,0,0.1,0C23.4,33.4,23.4,33.4,23.4,33.3C23.4,33.3,23.4,33.3,23.4,33.3"/>
<rect x="7.6" y="27.9" class="st2" width="99" height="6.8"/>
</svg>
