<?xml version="1.0" encoding="utf-8"?>
<!-- Generator: Adobe Illustrator 26.5.0, SVG Export Plug-In . SVG Version: 6.00 Build 0)  -->
<svg version="1.1" id="Layer_1" xmlns="http://www.w3.org/2000/svg" xmlns:xlink="http://www.w3.org/1999/xlink" x="0px" y="0px"
	 viewBox="0 0 320 50" style="enable-background:new 0 0 320 50;" xml:space="preserve">
<style type="text/css">
	.st0{fill:#339933;}
</style>
<g>
	<path class="st0" d="M231.2,36.5c0.1-0.3,0.3-0.6,0.5-0.9s0.5-0.5,0.8-0.6c0.3-0.1,0.7-0.2,1.1-0.2c0.4,0,0.8,0.1,1.1,0.2
		c0.3,0.1,0.6,0.3,0.8,0.6s0.4,0.6,0.5,0.9s0.2,0.7,0.2,1.1c0,0.4-0.1,0.8-0.2,1.1c-0.1,0.3-0.3,0.6-0.5,0.9s-0.5,0.4-0.8,0.6
		s-0.7,0.2-1.1,0.2c-0.4,0-0.8-0.1-1.1-0.2c-0.3-0.1-0.6-0.3-0.8-0.6s-0.4-0.5-0.5-0.9c-0.1-0.3-0.2-0.7-0.2-1.1
		C231.1,37.2,231.1,36.8,231.2,36.5z M232.3,38.3c0.1,0.2,0.1,0.4,0.3,0.6c0.1,0.2,0.3,0.3,0.4,0.4c0.2,0.1,0.4,0.2,0.7,0.2
		c0.3,0,0.5-0.1,0.7-0.2c0.2-0.1,0.3-0.2,0.5-0.4c0.1-0.2,0.2-0.4,0.3-0.6c0.1-0.2,0.1-0.4,0.1-0.7c0-0.2,0-0.5-0.1-0.7
		c-0.1-0.2-0.1-0.4-0.3-0.6c-0.1-0.2-0.3-0.3-0.5-0.4c-0.2-0.1-0.4-0.2-0.7-0.2c-0.3,0-0.5,0.1-0.7,0.2c-0.2,0.1-0.3,0.2-0.4,0.4
		c-0.1,0.2-0.2,0.4-0.3,0.6c-0.1,0.2-0.1,0.4-0.1,0.7C232.2,37.8,232.3,38.1,232.3,38.3z"/>
	<path class="st0" d="M238,36.4v0.5h0c0.1-0.2,0.3-0.4,0.5-0.5s0.4-0.2,0.7-0.2c0.3,0,0.5,0,0.7,0.1s0.3,0.2,0.4,0.3
		c0.1,0.1,0.2,0.3,0.2,0.5c0,0.2,0.1,0.4,0.1,0.7v2.4h-1.1v-2.2c0-0.3,0-0.6-0.2-0.7c-0.1-0.2-0.3-0.2-0.5-0.2
		c-0.3,0-0.5,0.1-0.6,0.3s-0.2,0.5-0.2,0.9v2H237v-3.9H238z"/>
	<path class="st0" d="M242.6,34.9v5.4h-1.1v-5.4H242.6z"/>
	<path class="st0" d="M244.8,41.4c-0.2,0.1-0.5,0.2-0.9,0.2c-0.1,0-0.2,0-0.3,0c-0.1,0-0.2,0-0.3,0v-0.9c0.1,0,0.2,0,0.3,0
		c0.1,0,0.2,0,0.3,0c0.1,0,0.2-0.1,0.3-0.2c0.1-0.1,0.1-0.2,0.1-0.3c0-0.1,0-0.2,0-0.2l-1.4-3.6h1.1L245,39h0l0.8-2.7h1.1l-1.6,4.4
		C245.2,41.1,245,41.3,244.8,41.4z"/>
	<path class="st0" d="M249,37.1v-0.7h0.6v-0.3c0-0.3,0.1-0.6,0.3-0.8c0.2-0.2,0.5-0.3,1-0.3c0.1,0,0.2,0,0.3,0s0.2,0,0.3,0v0.8
		c-0.1,0-0.3,0-0.4,0c-0.1,0-0.2,0-0.3,0.1s-0.1,0.2-0.1,0.3v0.2h0.7v0.7h-0.7v3.2h-1.1v-3.2H249z"/>
	<path class="st0" d="M251.9,37.5c0.1-0.3,0.2-0.5,0.4-0.6c0.2-0.2,0.4-0.3,0.6-0.4c0.2-0.1,0.5-0.1,0.8-0.1c0.3,0,0.6,0,0.8,0.1
		s0.5,0.2,0.6,0.4s0.3,0.4,0.4,0.6c0.1,0.3,0.1,0.5,0.1,0.8c0,0.3,0,0.6-0.1,0.8c-0.1,0.2-0.2,0.5-0.4,0.6c-0.2,0.2-0.4,0.3-0.6,0.4
		s-0.5,0.1-0.8,0.1c-0.3,0-0.6,0-0.8-0.1c-0.2-0.1-0.5-0.2-0.6-0.4c-0.2-0.2-0.3-0.4-0.4-0.6c-0.1-0.2-0.1-0.5-0.1-0.8
		C251.7,38,251.8,37.7,251.9,37.5z M252.9,38.8c0,0.1,0.1,0.3,0.2,0.4c0.1,0.1,0.2,0.2,0.3,0.3c0.1,0.1,0.3,0.1,0.4,0.1
		c0.2,0,0.3,0,0.5-0.1c0.1-0.1,0.2-0.2,0.3-0.3c0.1-0.1,0.1-0.2,0.2-0.4s0-0.3,0-0.5c0-0.2,0-0.3,0-0.5s-0.1-0.3-0.2-0.4
		c-0.1-0.1-0.2-0.2-0.3-0.3s-0.3-0.1-0.5-0.1c-0.2,0-0.3,0-0.4,0.1c-0.1,0.1-0.2,0.2-0.3,0.3s-0.1,0.2-0.2,0.4c0,0.2,0,0.3,0,0.5
		C252.8,38.5,252.8,38.6,252.9,38.8z"/>
	<path class="st0" d="M257.5,36.4v0.7h0c0-0.1,0.1-0.2,0.2-0.3s0.2-0.2,0.3-0.3c0.1-0.1,0.2-0.1,0.4-0.2s0.3-0.1,0.4-0.1
		c0.1,0,0.1,0,0.2,0v1c0,0-0.1,0-0.2,0c-0.1,0-0.1,0-0.2,0c-0.2,0-0.4,0-0.5,0.1c-0.1,0.1-0.2,0.2-0.3,0.3c-0.1,0.1-0.1,0.2-0.2,0.4
		c0,0.2-0.1,0.3-0.1,0.5v1.7h-1.1v-3.9H257.5z"/>
	<path class="st0" d="M264.2,34.9l2,5.4H265l-0.4-1.2h-2l-0.4,1.2H261l2-5.4H264.2z M264.3,38.2l-0.7-2h0l-0.7,2H264.3z"/>
	<path class="st0" d="M269,34.9c0.3,0,0.7,0.1,1,0.2c0.3,0.1,0.6,0.3,0.8,0.5c0.2,0.2,0.4,0.5,0.5,0.8c0.1,0.3,0.2,0.7,0.2,1.2
		c0,0.4-0.1,0.8-0.2,1.1c-0.1,0.3-0.3,0.6-0.5,0.9c-0.2,0.2-0.5,0.4-0.8,0.6c-0.3,0.1-0.7,0.2-1.1,0.2h-2.3v-5.4H269z M268.9,39.3
		c0.2,0,0.3,0,0.5-0.1c0.2-0.1,0.3-0.1,0.4-0.3c0.1-0.1,0.2-0.3,0.3-0.5s0.1-0.5,0.1-0.8c0-0.3,0-0.5-0.1-0.7
		c-0.1-0.2-0.1-0.4-0.3-0.6s-0.3-0.3-0.5-0.4c-0.2-0.1-0.4-0.1-0.7-0.1h-0.8v3.4H268.9z"/>
	<path class="st0" d="M274.9,34.9l2,5.4h-1.2l-0.4-1.2h-2l-0.4,1.2h-1.2l2-5.4H274.9z M275,38.2l-0.7-2h0l-0.7,2H275z"/>
	<path class="st0" d="M281.1,34.9l1.3,3.7h0l1.2-3.7h1.7v5.4h-1.1v-3.8h0l-1.3,3.8h-0.9l-1.3-3.8h0v3.8h-1.1v-5.4H281.1z"/>
	<path class="st0" d="M287.3,39.3c0.2,0.2,0.4,0.2,0.7,0.2c0.2,0,0.4-0.1,0.6-0.2s0.2-0.2,0.3-0.3h0.9c-0.2,0.5-0.4,0.8-0.7,1
		c-0.3,0.2-0.7,0.3-1.1,0.3c-0.3,0-0.6,0-0.8-0.1c-0.2-0.1-0.5-0.2-0.6-0.4s-0.3-0.4-0.4-0.6c-0.1-0.2-0.1-0.5-0.1-0.8
		c0-0.3,0-0.6,0.1-0.8c0.1-0.2,0.2-0.5,0.4-0.6c0.2-0.2,0.4-0.3,0.6-0.4c0.2-0.1,0.5-0.2,0.8-0.2c0.3,0,0.6,0.1,0.9,0.2
		c0.2,0.1,0.4,0.3,0.6,0.5c0.2,0.2,0.3,0.5,0.3,0.7c0.1,0.3,0.1,0.6,0.1,0.9H287C287.1,38.9,287.2,39.2,287.3,39.3z M288.5,37.3
		c-0.1-0.1-0.3-0.2-0.6-0.2c-0.2,0-0.3,0-0.4,0.1c-0.1,0.1-0.2,0.1-0.3,0.2s-0.1,0.2-0.1,0.3c0,0.1,0,0.2,0,0.3h1.7
		C288.7,37.6,288.6,37.4,288.5,37.3z"/>
	<path class="st0" d="M291.5,36.4v0.5h0c0.1-0.2,0.3-0.4,0.5-0.5c0.2-0.1,0.4-0.2,0.7-0.2c0.2,0,0.5,0,0.7,0.1
		c0.2,0.1,0.4,0.3,0.5,0.5c0.1-0.2,0.3-0.3,0.5-0.4s0.4-0.2,0.7-0.2c0.2,0,0.4,0,0.6,0.1s0.3,0.1,0.5,0.2c0.1,0.1,0.2,0.3,0.3,0.4
		s0.1,0.4,0.1,0.6v2.6h-1.1v-2.2c0-0.1,0-0.3,0-0.4c0-0.1,0-0.2-0.1-0.3s-0.1-0.2-0.2-0.2c-0.1,0-0.2-0.1-0.4-0.1s-0.3,0-0.4,0.1
		c-0.1,0.1-0.2,0.1-0.2,0.2c-0.1,0.1-0.1,0.2-0.1,0.3c0,0.1,0,0.2,0,0.4v2.2h-1.1v-2.2c0-0.1,0-0.2,0-0.3c0-0.1,0-0.2-0.1-0.3
		c0-0.1-0.1-0.2-0.2-0.2c-0.1-0.1-0.2-0.1-0.4-0.1c0,0-0.1,0-0.2,0c-0.1,0-0.2,0.1-0.2,0.1s-0.1,0.2-0.2,0.3
		c-0.1,0.1-0.1,0.3-0.1,0.5v2.2h-1.1v-3.9H291.5z"/>
	<path class="st0" d="M298.3,34.9v2h0c0.1-0.2,0.3-0.3,0.5-0.4s0.5-0.1,0.7-0.1c0.2,0,0.4,0,0.6,0.1c0.2,0.1,0.4,0.2,0.5,0.4
		s0.3,0.4,0.4,0.6s0.1,0.6,0.1,0.9c0,0.4,0,0.7-0.1,0.9c-0.1,0.3-0.2,0.5-0.4,0.6s-0.3,0.3-0.5,0.4c-0.2,0.1-0.4,0.1-0.6,0.1
		c-0.3,0-0.5,0-0.8-0.1c-0.2-0.1-0.4-0.2-0.5-0.5h0v0.5h-1v-5.4H298.3z M300.1,37.9c0-0.2-0.1-0.3-0.2-0.4s-0.2-0.2-0.3-0.3
		s-0.2-0.1-0.4-0.1c-0.2,0-0.3,0-0.4,0.1c-0.1,0.1-0.2,0.2-0.3,0.3c-0.1,0.1-0.1,0.2-0.2,0.4c0,0.1-0.1,0.3-0.1,0.5
		c0,0.2,0,0.3,0.1,0.5c0,0.1,0.1,0.3,0.2,0.4c0.1,0.1,0.2,0.2,0.3,0.3c0.1,0.1,0.2,0.1,0.4,0.1c0.2,0,0.3,0,0.4-0.1s0.2-0.2,0.3-0.3
		s0.1-0.2,0.2-0.4c0-0.2,0.1-0.3,0.1-0.5C300.1,38.2,300.1,38,300.1,37.9z"/>
	<path class="st0" d="M303,39.3c0.2,0.2,0.4,0.2,0.7,0.2c0.2,0,0.4-0.1,0.6-0.2s0.2-0.2,0.3-0.3h0.9c-0.2,0.5-0.4,0.8-0.7,1
		c-0.3,0.2-0.7,0.3-1.1,0.3c-0.3,0-0.6,0-0.8-0.1c-0.2-0.1-0.5-0.2-0.6-0.4s-0.3-0.4-0.4-0.6c-0.1-0.2-0.1-0.5-0.1-0.8
		c0-0.3,0-0.6,0.1-0.8c0.1-0.2,0.2-0.5,0.4-0.6c0.2-0.2,0.4-0.3,0.6-0.4c0.2-0.1,0.5-0.2,0.8-0.2c0.3,0,0.6,0.1,0.9,0.2
		c0.2,0.1,0.4,0.3,0.6,0.5c0.2,0.2,0.3,0.5,0.3,0.7c0.1,0.3,0.1,0.6,0.1,0.9h-2.8C302.7,38.9,302.8,39.2,303,39.3z M304.2,37.3
		c-0.1-0.1-0.3-0.2-0.6-0.2c-0.2,0-0.3,0-0.4,0.1c-0.1,0.1-0.2,0.1-0.3,0.2s-0.1,0.2-0.1,0.3c0,0.1,0,0.2,0,0.3h1.7
		C304.4,37.6,304.3,37.4,304.2,37.3z"/>
	<path class="st0" d="M307.2,36.4v0.7h0c0-0.1,0.1-0.2,0.2-0.3s0.2-0.2,0.3-0.3c0.1-0.1,0.2-0.1,0.4-0.2s0.3-0.1,0.4-0.1
		c0.1,0,0.1,0,0.2,0v1c0,0-0.1,0-0.2,0c-0.1,0-0.1,0-0.2,0c-0.2,0-0.4,0-0.5,0.1c-0.1,0.1-0.2,0.2-0.3,0.3c-0.1,0.1-0.1,0.2-0.2,0.4
		c0,0.2-0.1,0.3-0.1,0.5v1.7h-1.1v-3.9H307.2z"/>
	<path class="st0" d="M310,39.3c0,0.1,0.1,0.2,0.2,0.2c0.1,0.1,0.2,0.1,0.3,0.1c0.1,0,0.2,0,0.3,0c0.1,0,0.2,0,0.2,0
		c0.1,0,0.2,0,0.2-0.1c0.1,0,0.1-0.1,0.2-0.2s0.1-0.1,0.1-0.2c0-0.2-0.1-0.3-0.3-0.4c-0.2-0.1-0.5-0.2-0.9-0.2
		c-0.2,0-0.3-0.1-0.5-0.1s-0.3-0.1-0.4-0.2c-0.1-0.1-0.2-0.2-0.3-0.3c-0.1-0.1-0.1-0.3-0.1-0.4c0-0.2,0-0.5,0.1-0.6
		c0.1-0.2,0.2-0.3,0.4-0.4c0.2-0.1,0.3-0.2,0.5-0.2c0.2,0,0.4-0.1,0.6-0.1s0.4,0,0.6,0.1c0.2,0,0.4,0.1,0.5,0.2s0.3,0.2,0.4,0.4
		c0.1,0.2,0.2,0.4,0.2,0.6h-1c0-0.2-0.1-0.3-0.2-0.4s-0.3-0.1-0.5-0.1c-0.1,0-0.1,0-0.2,0c-0.1,0-0.1,0-0.2,0
		c-0.1,0-0.1,0.1-0.1,0.1c0,0-0.1,0.1-0.1,0.2c0,0.1,0,0.2,0.1,0.2c0.1,0.1,0.2,0.1,0.3,0.1s0.2,0.1,0.4,0.1c0.1,0,0.3,0.1,0.4,0.1
		c0.2,0,0.3,0.1,0.5,0.1c0.1,0,0.3,0.1,0.4,0.2c0.1,0.1,0.2,0.2,0.3,0.3c0.1,0.1,0.1,0.3,0.1,0.5c0,0.3-0.1,0.5-0.2,0.6
		c-0.1,0.2-0.2,0.3-0.4,0.4s-0.4,0.2-0.6,0.2c-0.2,0-0.4,0.1-0.6,0.1c-0.2,0-0.4,0-0.7-0.1s-0.4-0.1-0.6-0.2
		c-0.2-0.1-0.3-0.2-0.4-0.4s-0.2-0.4-0.2-0.6h1C309.9,39.1,309.9,39.2,310,39.3z"/>
</g>
</svg>
