<svg id="Layer_1" xmlns="http://www.w3.org/2000/svg" viewBox="0 0 300 50"><style>.st0{fill:#349946}</style><path d="M19.2 8.5v1.9h-5.5v2.2h5v1.8h-5v2.5h5.6v1.9h-7.9V8.5h7.8zM22.5 18.8L20 11.3h2.2l1.6 5.1 1.6-5.1h2l-2.5 7.5h-2.4zM30.4 17c.3.3.8.4 1.3.4.4 0 .8-.1 1.1-.3.3-.2.5-.4.6-.7h1.8c-.3.9-.7 1.5-1.3 1.9-.6.4-1.3.6-2.2.6-.6 0-1.1-.1-1.6-.3s-.9-.5-1.2-.8c-.3-.3-.6-.8-.8-1.2-.2-.5-.3-1-.3-1.6 0-.6.1-1.1.3-1.6.2-.5.4-.9.8-1.3.3-.4.7-.6 1.2-.8.5-.2 1-.3 1.6-.3.6 0 1.2.1 1.7.4.5.2.9.6 1.2 1 .3.4.5.9.7 1.4s.2 1.1.1 1.7H30c-.1.7.1 1.2.4 1.5zm2.3-3.9c-.2-.3-.6-.4-1.1-.4-.3 0-.6.1-.8.2-.2.1-.4.2-.5.4-.1.2-.2.3-.3.5-.1.2-.1.3-.1.5h3.3c-.1-.6-.2-1-.5-1.2zM38.5 11.3v1c.3-.4.6-.8 1-.9.4-.2.8-.3 1.3-.3.6 0 1 .1 1.4.2.4.1.6.4.8.6.2.3.3.6.4 1 .1.4.1.8.1 1.3v4.6h-2.1v-4.2c0-.6-.1-1.1-.3-1.4-.2-.3-.5-.5-1-.5-.6 0-1 .2-1.2.5-.3.3-.4.9-.4 1.6v3.9h-2.1v-7.5h2.1zM53.3 11.3v1.4h-1.5v3.7c0 .3.1.6.2.7.1.1.3.2.7.2h.6v1.6c-.2 0-.4 0-.6.1h-.6c-.3 0-.6 0-.9-.1s-.5-.1-.8-.3c-.2-.1-.4-.3-.5-.5s-.2-.5-.2-.9v-4.4h-1.2v-1.4h1.2V9.1h2.1v2.2h1.5zM56.3 8.5v3.9c.3-.4.6-.8 1-.9.4-.2.8-.3 1.2-.3.6 0 1 .1 1.4.2.4.1.6.4.8.6.2.3.3.6.4 1 .1.4.1.8.1 1.3v4.6h-2.1v-4.2c0-.6-.1-1.1-.3-1.4-.2-.3-.5-.5-1-.5-.6 0-1 .2-1.2.5-.3.3-.4.9-.4 1.6v3.9h-2.1V8.5h2.2zM65 17c.3.3.8.4 1.3.4.4 0 .8-.1 1.1-.3.3-.2.5-.4.6-.7h1.8c-.3.9-.7 1.5-1.3 1.9-.6.4-1.3.6-2.2.6-.6 0-1.1-.1-1.6-.3s-.9-.5-1.2-.8c-.3-.3-.6-.8-.8-1.2-.2-.5-.3-1-.3-1.6 0-.6.1-1.1.3-1.6.2-.5.4-.9.8-1.3.3-.4.7-.6 1.2-.8.5-.2 1-.3 1.6-.3.6 0 1.2.1 1.7.4.5.2.9.6 1.2 1 .3.4.5.9.7 1.4s.2 1.1.1 1.7h-5.4c0 .7.1 1.2.4 1.5zm2.4-3.9c-.2-.3-.6-.4-1.1-.4-.3 0-.6.1-.8.2-.2.1-.4.2-.5.4-.1.2-.2.3-.3.5-.1.2-.1.3-.1.5h3.3c-.1-.6-.3-1-.5-1.2zM80.3 8.5c.5 0 .9 0 1.3.1s.8.2 1 .4c.3.2.5.5.7.8.2.3.2.7.2 1.2s-.1 1-.4 1.3c-.2.3-.6.6-1.1.9.6.2 1.1.5 1.4 1 .3.5.5 1 .5 1.7 0 .5-.1 1-.3 1.4-.2.4-.5.7-.8.9-.3.2-.7.4-1.2.5-.4.1-.9.2-1.4.2h-5V8.5h5.1zm-.3 4.1c.4 0 .7-.1 1-.3s.4-.5.4-.9c0-.2 0-.4-.1-.6-.1-.2-.2-.3-.3-.4s-.3-.1-.5-.2c-.2 0-.4-.1-.6-.1h-2.1v2.4H80zm.1 4.4c.2 0 .4 0 .6-.1.2 0 .4-.1.5-.2.2-.1.3-.2.4-.4.1-.2.1-.4.1-.7 0-.5-.1-.9-.4-1.1s-.7-.3-1.2-.3h-2.5V17h2.5zM93.3 8.5v1.9h-5.5v2.2h5v1.8h-5v2.5h5.6v1.9h-7.9V8.5h7.8zM96.7 16.3c.1.2.3.4.5.6s.5.3.7.3c.3.1.6.1.9.1.2 0 .4 0 .7-.1s.4-.1.7-.2c.2-.1.4-.2.5-.4.1-.2.2-.4.2-.6 0-.3-.1-.5-.3-.7-.2-.2-.4-.3-.7-.4-.3-.1-.6-.2-1-.3s-.7-.2-1.1-.3c-.4-.1-.8-.2-1.1-.4s-.7-.3-1-.5c-.3-.2-.5-.5-.7-.8-.2-.3-.3-.7-.3-1.2s.1-1 .3-1.4.5-.7.9-1 .8-.5 1.2-.6c.5-.1.9-.2 1.4-.2.5 0 1.1.1 1.6.2s.9.3 1.3.6.7.6.9 1c.2.4.3.9.3 1.5h-2.2c0-.3-.1-.6-.2-.8-.1-.2-.3-.4-.4-.5-.2-.1-.4-.2-.6-.2h-.7c-.2 0-.4 0-.6.1-.2 0-.4.1-.5.2s-.3.2-.4.4c-.1.1-.1.3-.1.6 0 .2 0 .4.1.5s.2.2.5.3.5.2.9.3.9.2 1.6.4c.2 0 .5.1.8.2.3.1.7.3 1 .5.3.2.6.5.9.9.2.4.4.8.4 1.4 0 .5-.1.9-.3 1.3s-.5.8-.8 1.1c-.4.3-.8.5-1.3.7-.5.2-1.2.2-1.9.2-.6 0-1.1-.1-1.7-.2-.5-.1-1-.4-1.4-.7-.4-.3-.7-.7-1-1.1-.2-.5-.4-1-.3-1.7h2.2c-.1.3 0 .6.1.9zM103.6 10.4V8.5h8.5v1.9H109v8.4h-2.3v-8.4h-3.1zM115.5 14v1.8h-4.4V14h4.4zM119.2 8.5v10.3h-2.1V8.5h2.1zM120.7 13.6c0-.5.1-.9.4-1.2.2-.3.5-.6.8-.8.3-.2.7-.3 1.1-.4s.8-.1 1.2-.1c.4 0 .8 0 1.1.1s.7.2 1.1.3c.3.2.6.4.8.6.2.3.3.6.3 1.1v3.9c0 .3 0 .7.1 1 0 .3.1.5.2.7h-2.1c0-.1-.1-.2-.1-.4 0-.1 0-.2-.1-.4-.3.3-.7.6-1.2.7s-.8.3-1.3.3c-.4 0-.7 0-1-.1s-.6-.2-.8-.4-.4-.4-.5-.7-.2-.6-.2-1 .1-.8.2-1.1c.1-.3.3-.5.6-.7.2-.2.5-.3.8-.4.3-.1.6-.1.9-.2.3 0 .6-.1.9-.1.3 0 .6-.1.8-.1.2-.1.4-.1.6-.3s.2-.3.2-.5 0-.4-.1-.5l-.3-.3c-.1-.1-.3-.1-.4-.1h-.5c-.4 0-.7.1-1 .3s-.4.5-.4.9h-2.1zm4.8 1.5c-.1.1-.2.1-.3.2-.1 0-.3.1-.4.1-.1 0-.3.1-.5.1s-.3 0-.5.1c-.2 0-.3.1-.5.1s-.3.1-.4.2l-.3.3c-.1.1-.1.3-.1.5s0 .3.1.5l.3.3c.1.1.3.1.4.2h.5c.4 0 .7-.1.9-.2s.4-.3.5-.5.2-.4.2-.6v-1.3zM129.2 10.1V8.5h2.1v1.7h-2.1zm2 1.2v7.5h-2.1v-7.5h2.1zM138.2 17.8c-.2.4-.6.7-.9.9-.4.2-.8.3-1.3.3-.6 0-1.1-.1-1.5-.3-.4-.2-.8-.5-1.1-.9s-.5-.8-.6-1.3c-.1-.5-.2-1-.2-1.5s.1-1 .2-1.5.3-.9.6-1.2.6-.6 1-.9c.4-.2.9-.3 1.4-.3.4 0 .9.1 1.3.3s.7.5.9.8V8.5h2.1v10.3h-2l.1-1zm-.1-3.7c-.1-.3-.2-.5-.3-.8s-.3-.4-.5-.5-.5-.2-.8-.2c-.3 0-.6.1-.9.2s-.4.3-.6.5-.2.5-.3.8c-.1.3-.1.6-.1.9 0 .3 0 .6.1.9.1.3.2.5.3.8.1.2.3.4.6.6s.5.2.8.2c.3 0 .6-.1.8-.2.2-.1.4-.3.5-.5.1-.2.2-.5.3-.8.1-.3.1-.6.1-.9v-1zM150.6 8.5c.6 0 1.2.1 1.7.3s.8.4 1.1.7.5.7.6 1.1c.1.4.2.8.2 1.2 0 .4-.1.8-.2 1.2-.1.4-.3.8-.6 1.1s-.7.6-1.1.7c-.5.2-1 .3-1.7.3h-2.4v3.7H146V8.5h4.6zm-.6 4.8c.3 0 .5 0 .8-.1.2 0 .5-.1.6-.2.2-.1.3-.3.4-.5.1-.2.2-.5.2-.8s-.1-.6-.2-.8c-.1-.2-.3-.4-.4-.5-.2-.1-.4-.2-.6-.2-.2 0-.5-.1-.8-.1h-1.8v3.1h1.8zM157.9 8.5v8.4h5v1.9h-7.3V8.5h2.3zM169.4 8.5l3.9 10.3h-2.4l-.8-2.3h-3.9l-.8 2.3h-2.3L167 8.5h2.4zm.1 6.3l-1.3-3.8-1.3 3.8h2.6zM176.4 8.5l4.3 6.9V8.5h2.1v10.3h-2.3l-4.3-6.9v6.9h-2.1V8.5h2.3zM186.6 16.3c.1.2.3.4.5.6.2.1.5.3.7.3.3.1.6.1.9.1.2 0 .4 0 .7-.1.2 0 .4-.1.7-.2.2-.1.4-.2.5-.4.1-.2.2-.4.2-.6 0-.3-.1-.5-.3-.7-.2-.2-.4-.3-.7-.4s-.6-.2-1-.3-.7-.2-1.1-.3c-.4-.1-.8-.2-1.1-.4-.4-.1-.7-.3-1-.5-.3-.2-.5-.5-.7-.8-.2-.3-.3-.7-.3-1.2s.1-1 .3-1.4c.2-.4.5-.7.9-1 .4-.3.8-.5 1.2-.6s.9-.2 1.4-.2c.5 0 1.1.1 1.6.2s.9.3 1.3.6.7.6.9 1c.2.4.3.9.3 1.5h-2.2c0-.3-.1-.6-.2-.8-.1-.2-.3-.4-.4-.5-.2-.1-.4-.2-.6-.2-.2 0-.5-.1-.8-.1-.2 0-.4 0-.6.1-.2 0-.4.1-.5.2-.2.1-.3.2-.4.4s-.1.3-.1.6c0 .2 0 .4.1.5.1.1.2.2.5.3.2.1.5.2.9.3.4.1.9.2 1.6.4.2 0 .5.1.8.2s.7.3 1 .5c.3.2.6.5.9.9s.4.8.4 1.4c0 .5-.1.9-.3 1.3-.2.4-.5.8-.8 1.1-.4.3-.8.5-1.3.7-.5.2-1.2.2-1.9.2-.6 0-1.1-.1-1.7-.2-.5-.1-1-.4-1.4-.7-.4-.3-.7-.7-1-1.1-.2-.5-.4-1-.3-1.7h2.2c0 .4.1.7.2 1zM198.1 13.4c.2-.5.4-.9.8-1.2s.7-.6 1.2-.8c.5-.2 1-.3 1.6-.3.6 0 1.1.1 1.6.3.5.2.9.5 1.2.8.3.3.6.8.8 1.2s.3 1 .3 1.6-.1 1.1-.3 1.6-.4.9-.8 1.2c-.3.3-.7.6-1.2.8-.5.2-1 .3-1.6.3-.6 0-1.1-.1-1.6-.3-.5-.2-.9-.4-1.2-.8-.3-.3-.6-.8-.8-1.2s-.3-1-.3-1.6.2-1.1.3-1.6zm1.9 2.5c.1.3.2.5.3.8.1.2.3.4.6.5.2.1.5.2.9.2s.6-.1.9-.2c.2-.1.4-.3.6-.5.1-.2.2-.5.3-.8.1-.3.1-.6.1-.9s0-.6-.1-.9c-.1-.3-.2-.5-.3-.8-.1-.2-.3-.4-.6-.5-.2-.1-.5-.2-.9-.2s-.6.1-.9.2c-.2.1-.4.3-.6.5-.1.2-.2.5-.3.8-.1.3-.1.6-.1.9s0 .7.1.9zM206.2 12.7v-1.4h1.2v-.6c0-.7.2-1.2.6-1.6.4-.4 1-.6 1.9-.6h1V10h-.8c-.3 0-.5.1-.6.2s-.2.4-.2.7v.4h1.4v1.4h-1.4v6.1h-2.1v-6.1h-1zM217.8 11.3v1c.3-.4.6-.7 1-.9.4-.2.8-.3 1.3-.3s.9.1 1.3.3c.4.2.7.5.9 1 .2-.3.5-.6.9-.9.4-.3.8-.4 1.4-.4.4 0 .8 0 1.1.1.3.1.6.3.9.5.2.2.4.5.6.8.1.3.2.8.2 1.2v5h-2.1v-4.2-.7c0-.2-.1-.4-.2-.6-.1-.2-.2-.3-.4-.4-.2-.1-.4-.1-.7-.1-.3 0-.5.1-.7.2-.2.1-.3.3-.4.4-.1.2-.2.4-.2.6 0 .2-.1.5-.1.7v4.2h-2.1v-4.2-.7c0-.3-.1-.4-.1-.6-.1-.2-.2-.3-.4-.4-.2-.1-.4-.2-.7-.2-.1 0-.2 0-.4.1s-.3.1-.5.2c-.1.1-.3.3-.4.5s-.2.5-.2.9v4.3h-2.1v-7.5h2.1zM229 10.1V8.5h2.1v1.7H229zm2 1.2v7.5h-2v-7.5h2zM236.2 12.7c-.3 0-.6.1-.8.2-.2.1-.4.3-.5.6-.1.2-.2.5-.3.8-.1.3-.1.6-.1.8 0 .3 0 .5.1.8s.2.5.3.8c.1.2.3.4.5.6.2.1.5.2.8.2.5 0 .9-.1 1.1-.4s.4-.6.5-1.1h2c-.1 1-.5 1.8-1.2 2.3-.6.5-1.5.8-2.4.8-.6 0-1.1-.1-1.5-.3-.5-.2-.9-.5-1.2-.8-.3-.3-.6-.7-.8-1.2-.2-.5-.3-1-.3-1.5 0-.6.1-1.1.3-1.6.2-.5.4-.9.7-1.3.3-.4.7-.6 1.2-.8.5-.2 1-.3 1.6-.3.4 0 .9.1 1.3.2s.8.3 1.1.5c.3.2.6.5.8.9.2.4.3.8.3 1.3h-2c-.1-1.1-.6-1.5-1.5-1.5zM243.2 17c.3.3.8.4 1.3.4.4 0 .8-.1 1.1-.3s.5-.4.6-.7h1.8c-.3.9-.7 1.5-1.3 1.9-.6.4-1.3.6-2.2.6-.6 0-1.1-.1-1.6-.3-.5-.2-.9-.5-1.2-.8s-.6-.8-.8-1.2c-.2-.5-.3-1-.3-1.6 0-.6.1-1.1.3-1.6.2-.5.4-.9.8-1.3.3-.4.7-.6 1.2-.8.5-.2 1-.3 1.6-.3.6 0 1.2.1 1.7.4.5.2.9.6 1.2 1 .3.4.5.9.7 1.4.1.5.2 1.1.1 1.7h-5.4c-.1.7.1 1.2.4 1.5zm2.3-3.9c-.2-.3-.6-.4-1.1-.4-.3 0-.6.1-.8.2-.2.1-.4.2-.5.4-.1.2-.2.3-.3.5s-.1.3-.1.5h3.3c-.1-.6-.2-1-.5-1.2zM253.2 13.6c0-.5.2-.9.4-1.2.2-.3.5-.6.8-.8s.7-.3 1.1-.4c.4-.1.8-.1 1.2-.1.4 0 .8 0 1.1.1.4.1.7.2 1.1.3.3.2.6.4.8.6.2.3.3.6.3 1.1v3.9c0 .3 0 .7.1 1 0 .3.1.5.2.7h-2.1c0-.1-.1-.2-.1-.4 0-.1 0-.2-.1-.4-.3.3-.7.6-1.2.7s-.8.3-1.2.3c-.4 0-.7 0-1-.1-.3-.1-.6-.2-.8-.4-.2-.2-.4-.4-.5-.7-.1-.3-.2-.6-.2-1s.1-.8.2-1.1c.1-.3.3-.5.6-.7.2-.2.5-.3.8-.4.3-.1.6-.1.9-.2.3 0 .6-.1.9-.1.3 0 .6-.1.8-.1.2-.1.4-.1.6-.3.1-.1.2-.3.2-.5s0-.4-.1-.5l-.3-.3c-.1-.1-.3-.1-.4-.1h-.5c-.4 0-.7.1-1 .3s-.4.5-.4.9h-2.2zm4.8 1.5c-.1.1-.2.1-.3.2-.1 0-.3.1-.4.1-.1 0-.3.1-.5.1s-.3 0-.5.1c-.2 0-.3.1-.5.1s-.3.1-.4.2l-.3.3c-.1.1-.1.3-.1.5s0 .3.1.5.2.2.3.3c.1.1.3.1.4.2h.5c.4 0 .7-.1.9-.2.2-.1.4-.3.5-.5s.2-.4.2-.6v-1.3zM263.6 11.3v1c.3-.4.6-.8 1-.9.4-.2.8-.3 1.3-.3.6 0 1 .1 1.4.2s.6.4.8.6c.2.3.3.6.4 1 .1.4.1.8.1 1.3v4.6h-2.1v-4.2c0-.6-.1-1.1-.3-1.4-.2-.3-.5-.5-1-.5-.6 0-1 .2-1.2.5-.3.3-.4.9-.4 1.6v3.9h-2.1v-7.5h2.1zM275.6 17.8c-.2.4-.6.7-.9.9-.4.2-.8.3-1.3.3-.6 0-1.1-.1-1.5-.3s-.8-.5-1.1-.9-.5-.8-.6-1.3c-.1-.5-.2-1-.2-1.5s.1-1 .2-1.5.3-.9.6-1.2.6-.6 1-.9c.4-.2.9-.3 1.4-.3.4 0 .9.1 1.3.3.4.2.7.5.9.8V8.5h2.1v10.3h-2l.1-1zm-.1-3.7c-.1-.3-.2-.5-.3-.8s-.3-.4-.5-.5c-.2-.1-.5-.2-.8-.2s-.6.1-.9.2c-.2.1-.4.3-.6.5s-.2.5-.3.8c-.1.3-.1.6-.1.9 0 .3 0 .6.1.9.1.3.2.5.3.8.1.2.3.4.6.6.2.1.5.2.8.2.3 0 .6-.1.8-.2.2-.1.4-.3.5-.5.1-.2.2-.5.3-.8.1-.3.1-.6.1-.9v-1z"/><g><path d="M16 22.9c.7 0 1.3.1 1.9.3.6.2 1.1.5 1.5 1 .4.4.7 1 1 1.6.2.6.4 1.4.4 2.2 0 .8-.1 1.4-.3 2.1s-.5 1.2-.9 1.7-.9.8-1.5 1.1-1.3.4-2.1.4h-4.5V22.9H16zm-.2 8.5c.3 0 .6-.1 1-.2s.6-.3.8-.5c.2-.2.4-.6.6-1 .1-.4.2-.9.2-1.4 0-.5-.1-1-.2-1.4-.1-.4-.3-.8-.5-1.1-.2-.3-.5-.5-.9-.7-.4-.2-.9-.2-1.4-.2h-1.6v6.5h2zM30 22.9v1.9h-5.5V27h5v1.8h-5v2.5h5.6v1.9h-7.9V22.9H30zM33.9 22.9l4.3 6.9v-6.9h2.1v10.3H38l-4.3-6.9v6.9h-2.1V22.9h2.3zM41.5 24.9V23H50v1.9h-3.1v8.4h-2.3v-8.4h-3.1zM53.5 22.9v10.3h-2.3V22.9h2.3zM57.2 30.7c.1.2.3.4.5.6.2.2.5.3.7.3.3.1.6.1.9.1.2 0 .4 0 .7-.1s.4-.1.7-.2c.2-.1.4-.2.5-.4.1-.2.2-.4.2-.6 0-.3-.1-.5-.3-.7s-.4-.3-.7-.4c-.3-.1-.6-.2-1-.3s-.7-.2-1.1-.3c-.4-.1-.8-.2-1.1-.4-.4-.1-.7-.3-1-.5-.3-.2-.5-.5-.7-.8-.2-.3-.3-.7-.3-1.2s.1-1 .3-1.4.5-.7.9-1 .8-.5 1.2-.6c.5-.1.9-.2 1.4-.2.5 0 1.1.1 1.6.2s.9.3 1.3.6.7.6.9 1c.2.4.3.9.3 1.5H61c0-.3-.1-.6-.2-.8-.1-.2-.3-.4-.4-.5-.2-.1-.4-.2-.6-.2-.2 0-.5-.1-.8-.1-.2 0-.4 0-.6.1-.2 0-.4.1-.5.2s-.3.2-.4.4c-.1.1-.1.3-.1.6 0 .2 0 .4.1.5.1.1.2.2.5.3.2.1.5.2.9.3s.9.2 1.6.4c.2 0 .5.1.8.2.3.1.7.3 1 .5.3.2.6.5.9.9.2.4.4.8.4 1.4 0 .5-.1.9-.3 1.3-.2.4-.5.8-.8 1.1-.4.3-.8.5-1.3.7s-1.2.2-1.9.2c-.6 0-1.1-.1-1.7-.2-.5-.1-1-.4-1.4-.7-.4-.3-.7-.7-1-1.1-.2-.5-.4-1-.3-1.7H57c0 .5.1.8.2 1zM64.1 24.9V23h8.5v1.9h-3.1v8.4h-2.3v-8.4h-3.1zM75.5 30.7c.1.2.3.4.5.6.2.2.5.3.7.3.3.1.6.1.9.1.2 0 .4 0 .7-.1s.4-.1.7-.2c.2-.1.4-.2.5-.4.1-.2.2-.4.2-.6 0-.3-.1-.5-.3-.7s-.4-.3-.7-.4c-.3-.1-.6-.2-1-.3s-.7-.2-1.1-.3c-.4-.1-.8-.2-1.1-.4-.4-.1-.7-.3-1-.5-.3-.2-.5-.5-.7-.8-.2-.3-.3-.7-.3-1.2s.1-1 .3-1.4.5-.7.9-1 .8-.5 1.2-.6c.5-.1.9-.2 1.4-.2.5 0 1.1.1 1.6.2s.9.3 1.3.6.7.6.9 1c.2.4.3.9.3 1.5h-2.2c0-.3-.1-.6-.2-.8-.1-.2-.3-.4-.4-.5-.2-.1-.4-.2-.6-.2-.2 0-.5-.1-.8-.1-.2 0-.4 0-.6.1-.2 0-.4.1-.5.2s-.3.2-.4.4c-.1.1-.1.3-.1.6 0 .2 0 .4.1.5.1.1.2.2.5.3.2.1.5.2.9.3s.9.2 1.6.4c.2 0 .5.1.8.2.3.1.7.3 1 .5.3.2.6.5.9.9.2.4.4.8.4 1.4 0 .5-.1.9-.3 1.3-.2.4-.5.8-.8 1.1-.4.3-.8.5-1.3.7s-1.2.2-1.9.2c-.6 0-1.1-.1-1.7-.2-.5-.1-1-.4-1.4-.7-.4-.3-.7-.7-1-1.1-.2-.5-.4-1-.3-1.7h2.2c0 .5.1.8.2 1z"/></g><g><path class="st0" d="M90.5 27.1c-.3 0-.6.1-.8.2-.2.2-.4.3-.5.6-.1.2-.2.5-.3.8-.1.3-.1.6-.1.8 0 .3 0 .5.1.8.1.3.2.5.3.8.1.2.3.4.5.6.2.1.5.2.8.2.5 0 .9-.1 1.1-.4s.4-.6.5-1.1h2c-.1 1-.5 1.8-1.2 2.3-.6.5-1.5.8-2.4.8-.6 0-1.1-.1-1.5-.3-.5-.2-.9-.5-1.2-.8-.3-.3-.6-.7-.8-1.2-.2-.5-.3-1-.3-1.5 0-.6.1-1.1.3-1.6.2-.5.4-.9.7-1.3.3-.4.7-.6 1.2-.8.5-.2 1-.3 1.6-.3.4 0 .9.1 1.3.2s.8.3 1.1.5.6.5.8.9c.2.4.3.8.3 1.3h-2c-.1-1-.6-1.5-1.5-1.5zM95.2 28.1c0-.5.1-.9.4-1.2.2-.3.5-.6.8-.8.3-.2.7-.3 1.1-.4s.8-.1 1.2-.1c.4 0 .8 0 1.1.1s.7.2 1.1.3c.3.2.6.4.8.6.2.3.3.6.3 1.1v3.9c0 .3 0 .7.1 1 0 .3.1.5.2.7h-2.1c0-.1-.1-.2-.1-.4 0-.1 0-.2-.1-.4-.3.3-.7.6-1.2.7-.4.1-.9.2-1.4.2-.4 0-.7 0-1-.1s-.6-.2-.8-.4-.4-.4-.5-.7-.2-.6-.2-1 .1-.8.2-1.1c.1-.3.3-.5.6-.7.2-.2.5-.3.8-.4s.6-.1.9-.2c.3 0 .6-.1.9-.1s.6-.1.8-.1c.2-.1.4-.1.6-.3s.2-.3.2-.5 0-.4-.1-.5l-.3-.3c-.1-.1-.3-.1-.4-.1h-.5c-.4 0-.7.1-1 .3s-.4.5-.4.9h-2zm4.7 1.5c-.1.1-.2.1-.3.2-.1 0-.3.1-.4.1-.1 0-.3.1-.5.1s-.3 0-.5.1c-.2 0-.3.1-.5.1-.1 0-.3.1-.4.2l-.3.3c.1.1 0 .3 0 .5s0 .3.1.5l.3.3c.1.1.3.1.4.2h.5c.4 0 .7-.1.9-.2.2-.1.4-.3.5-.5s.2-.4.2-.6v-1.3zM105.6 25.8v1c.3-.4.6-.8 1-.9.4-.2.8-.3 1.3-.3.6 0 1 .1 1.4.2.4.1.6.4.8.6.2.3.3.6.4 1 .1.4.1.8.1 1.3v4.6h-2.1v-4.2c0-.6-.1-1.1-.3-1.4-.2-.3-.5-.5-1-.5-.6 0-1 .2-1.2.5-.3.3-.4.9-.4 1.6v3.9h-2.1v-7.5h2.1zM117.9 31.4c.1.2.2.3.4.4.1.1.3.2.5.2s.4.1.6.1c.1 0 .3 0 .5-.1.2 0 .3-.1.4-.2l.3-.3c.1-.1.1-.3.1-.5 0-.3-.2-.5-.6-.7-.4-.2-1-.3-1.7-.5-.3-.1-.6-.1-.9-.2-.3-.1-.5-.2-.8-.4-.2-.2-.4-.3-.5-.6s-.2-.3-.2-.6c0-.5.1-.9.3-1.2.2-.3.4-.6.7-.7.3-.2.7-.3 1-.4.4-.1.8-.1 1.2-.1s.8 0 1.2.1c.4.1.7.2 1 .4.3.2.5.4.7.7.2.3.3.7.4 1.2h-2c0-.4-.2-.7-.4-.8-.3-.1-.6-.2-1-.2h-.4c-.2 0-.3 0-.4.1-.1 0-.2.1-.3.2-.1.1-.1.2-.1.4s.1.3.2.4c.1.1.3.2.5.3s.5.1.7.2.6.1.9.2c.3.1.6.1.9.2.3.1.5.2.8.4.2.2.4.4.5.6s.2.5.2.9c0 .5-.1.9-.3 1.2-.2.3-.5.6-.8.8s-.7.3-1.1.4-.8.1-1.3.1c-.4 0-.9 0-1.3-.1s-.8-.2-1.1-.4-.6-.5-.8-.8c-.2-.3-.3-.8-.3-1.3h2c.2.3.3.5.3.6zM124 27.9c.2-.5.4-.9.8-1.2.3-.3.7-.6 1.2-.8.5-.2 1-.3 1.6-.3s1.1.1 1.6.3c.5.2.9.5 1.2.8.3.3.6.8.8 1.2.2.5.3 1 .3 1.6 0 .6-.1 1.1-.3 1.6-.2.5-.4.9-.8 1.2-.3.3-.7.6-1.2.8-.5.2-1 .3-1.6.3s-1.1-.1-1.6-.3c-.5-.2-.9-.4-1.2-.8-.3-.3-.6-.8-.8-1.2-.2-.5-.3-1-.3-1.6.1-.5.2-1.1.3-1.6zm1.9 2.5c.1.3.2.5.3.8.1.2.3.4.6.5.2.1.5.2.9.2s.6-.1.9-.2c.2-.1.4-.3.6-.5.1-.2.2-.5.3-.8.1-.3.1-.6.1-.9 0-.3 0-.6-.1-.9-.1-.3-.2-.5-.3-.8-.1-.2-.3-.4-.6-.5-.2-.1-.5-.2-.9-.2s-.6.1-.9.2c-.2.1-.4.3-.6.5-.1.2-.2.5-.3.8-.1.3-.1.6-.1.9 0 .4.1.6.1.9zM134.9 25.8v1c.3-.4.6-.7 1-.9.4-.2.8-.3 1.3-.3s.9.1 1.3.3c.4.2.7.5.9 1 .2-.3.5-.6.9-.9.4-.3.8-.4 1.4-.4.4 0 .8 0 1.1.1.3.1.6.3.9.5.2.2.4.5.6.8s.2.8.2 1.2v5h-2.1V29v-.7c0-.2-.1-.4-.2-.6-.1-.2-.2-.3-.4-.4s-.4-.1-.7-.1c-.3 0-.5.1-.7.2-.2.1-.3.3-.4.4s-.2.4-.2.6c0 .2-.1.5-.1.7v4.2h-2.1v-4.2-.7c0-.2-.1-.4-.1-.6-.1-.2-.2-.3-.4-.4s-.4-.2-.7-.2c-.1 0-.2 0-.4.1-.2 0-.3.1-.5.2-.1.1-.3.3-.4.5-.1.2-.2.5-.2.9v4.3h-2.1v-7.5h2.1zM148.2 31.5c.3.3.8.4 1.3.4.4 0 .8-.1 1.1-.3s.5-.4.6-.7h1.8c-.3.9-.7 1.5-1.3 1.9-.6.4-1.3.6-2.2.6-.6 0-1.1-.1-1.6-.3-.5-.2-.9-.5-1.2-.8s-.6-.8-.8-1.2-.3-1-.3-1.6c0-.6.1-1.1.3-1.6s.4-.9.8-1.3c.3-.4.7-.6 1.2-.8.5-.2 1-.3 1.6-.3.6 0 1.2.1 1.7.4.5.2.9.6 1.2 1 .3.4.5.9.7 1.4.1.5.2 1.1.1 1.7h-5.4c-.1.7.1 1.2.4 1.5zm2.3-3.9c-.2-.3-.6-.4-1.1-.4-.3 0-.6.1-.8.2-.2.1-.4.2-.5.4-.1.2-.2.3-.3.5s-.1.3-.1.5h3.3c-.1-.6-.2-1-.5-1.2zM158.4 25.8v1.4h-1.5v3.7c0 .3.1.6.2.7.1.1.3.2.7.2h.6v1.6c-.2 0-.4 0-.6.1s-.4 0-.6 0c-.3 0-.6 0-.9-.1-.3 0-.5-.1-.8-.3-.2-.1-.4-.3-.5-.5-.1-.2-.2-.5-.2-.9v-4.4h-1.2v-1.4h1.2v-2.2h2.1v2.2h1.5zM159.5 24.6v-1.7h2.1v1.7h-2.1zm2 1.2v7.5h-2.1v-7.5h2.1zM165.1 25.8v1c.3-.4.6-.7 1-.9.4-.2.8-.3 1.3-.3s.9.1 1.3.3c.4.2.7.5.9 1 .2-.3.5-.6.9-.9.4-.3.8-.4 1.4-.4.4 0 .8 0 1.1.1.3.1.6.3.9.5.2.2.4.5.6.8.1.3.2.8.2 1.2v5h-2.1V29v-.7c0-.2-.1-.4-.2-.6-.1-.2-.2-.3-.4-.4s-.4-.1-.7-.1c-.3 0-.5.1-.7.2s-.3.3-.4.4c-.1.2-.2.4-.2.6 0 .2-.1.5-.1.7v4.2h-2.1v-4.2-.7c0-.2-.1-.4-.1-.6-.1-.2-.2-.3-.4-.4-.2-.1-.4-.2-.7-.2-.1 0-.2 0-.4.1-.2 0-.3.1-.5.2-.1.1-.3.3-.4.5-.1.2-.2.5-.2.9v4.3H163v-7.5h2.1zM178.5 31.5c.3.3.8.4 1.3.4.4 0 .8-.1 1.1-.3s.5-.4.6-.7h1.8c-.3.9-.7 1.5-1.3 1.9-.6.4-1.3.6-2.2.6-.6 0-1.1-.1-1.6-.3-.5-.2-.9-.5-1.2-.8s-.6-.8-.8-1.2-.3-1-.3-1.6c0-.6.1-1.1.3-1.6s.4-.9.8-1.3c.3-.4.7-.6 1.2-.8.5-.2 1-.3 1.6-.3.6 0 1.2.1 1.7.4.5.2.9.6 1.2 1 .3.4.5.9.7 1.4.1.5.2 1.1.1 1.7H178c0 .7.2 1.2.5 1.5zm2.3-3.9c-.2-.3-.6-.4-1.1-.4-.3 0-.6.1-.8.2-.2.1-.4.2-.5.4-.1.2-.2.3-.3.5s-.1.3-.1.5h3.3c-.1-.6-.3-1-.5-1.2zM186.3 31.4c.1.2.2.3.4.4.1.1.3.2.5.2s.4.1.6.1c.1 0 .3 0 .5-.1.2 0 .3-.1.4-.2l.3-.3c.1-.1.1-.3.1-.5 0-.3-.2-.5-.6-.7-.4-.2-1-.3-1.7-.5-.3-.1-.6-.1-.9-.2s-.5-.2-.8-.4c-.2-.2-.4-.3-.5-.6-.1-.2-.2-.5-.2-.8 0-.5.1-.9.3-1.2s.4-.6.7-.7c.3-.2.7-.3 1-.4.4-.1.8-.1 1.2-.1.4 0 .8 0 1.2.1.4.1.7.2 1 .4.3.2.5.4.7.7s.3.7.4 1.2h-2c0-.4-.2-.7-.4-.8-.3-.1-.6-.2-1-.2h-.4c-.2 0-.3 0-.4.1-.1 0-.2.1-.3.2s-.1.2-.1.4.1.3.2.4c.1.1.3.2.5.3s.5.1.7.2.6.1.9.2c.3.1.6.1.9.2.3.1.5.2.8.4.2.2.4.4.5.6.1.2.2.5.2.9 0 .5-.1.9-.3 1.2-.2.3-.5.6-.8.8-.3.2-.7.3-1.1.4-.4.1-.8.1-1.3.1-.4 0-.9 0-1.3-.1s-.8-.2-1.1-.4c-.3-.2-.6-.5-.8-.8-.2-.3-.3-.8-.3-1.3h2c.2.5.2.7.3.8zM203.3 25.7c-.1-.2-.3-.4-.5-.6-.2-.2-.4-.3-.7-.4-.3-.1-.5-.1-.8-.1-.5 0-.9.1-1.3.3-.4.2-.6.5-.9.8-.2.3-.4.7-.5 1.1-.1.4-.2.9-.2 1.3s.1.9.2 1.3.3.8.5 1.1c.2.3.5.6.9.8.4.2.8.3 1.3.3.7 0 1.2-.2 1.6-.6.4-.4.6-1 .7-1.7h2.2c-.1.6-.2 1.2-.4 1.8s-.6 1-1 1.3c-.4.4-.9.6-1.4.8-.5.2-1.1.3-1.8.3-.8 0-1.5-.1-2.1-.4-.6-.3-1.2-.7-1.6-1.1-.4-.5-.8-1.1-1-1.7s-.3-1.4-.3-2.1c0-.8.1-1.5.3-2.2.2-.7.6-1.2 1-1.7s1-.9 1.6-1.2c.6-.3 1.3-.4 2.1-.4.6 0 1.1.1 1.6.2.5.2 1 .4 1.4.7.4.3.7.7 1 1.2.3.5.4 1 .5 1.6h-2.2c0-.2-.1-.5-.2-.7zM209.6 22.9v4h4.2v-4h2.3v10.3h-2.3v-4.5h-4.2v4.5h-2.3V22.9h2.3zM223.3 22.9l3.9 10.3h-2.4L224 31h-3.9l-.8 2.3H217l3.9-10.3h2.4zm.1 6.4l-1.3-3.8-1.3 3.8h2.6zM230.3 22.9l4.3 6.9v-6.9h2.1v10.3h-2.3l-4.3-6.9v6.9H228V22.9h2.3zM244.9 33.2c-.5.2-1 .3-1.5.3-.8 0-1.5-.1-2.1-.4-.6-.3-1.2-.7-1.6-1.1-.4-.5-.8-1.1-1-1.7s-.3-1.4-.3-2.1c0-.8.1-1.5.3-2.2.2-.7.6-1.2 1-1.7s1-.9 1.6-1.2c.6-.3 1.3-.4 2.1-.4.5 0 1 .1 1.5.2.5.2.9.4 1.3.7.4.3.7.7 1 1.1.3.5.4 1 .5 1.6h-2.2c-.1-.6-.4-1-.8-1.3-.4-.3-.9-.4-1.4-.4-.5 0-.9.1-1.3.3-.4.2-.6.5-.9.8-.2.3-.4.7-.5 1.1-.1.4-.2.9-.2 1.3s.1.9.2 1.3.3.8.5 1.1c.2.3.5.6.9.8.4.2.8.3 1.3.3.8 0 1.3-.2 1.7-.6.4-.4.6-.9.7-1.7h-2.3v-1.7h4.3v5.6h-1.4l-.2-1.2c-.3.6-.7 1-1.2 1.2zM257.5 22.9v1.9H252V27h5v1.8h-5v2.5h5.6v1.9h-7.9V22.9h7.8z"/></g></svg>