<svg xmlns="http://www.w3.org/2000/svg" viewBox="0 0 300 50"><path d="M16.9 7.9c.4 0 .8.1 1.1.2.3.1.6.3.8.5.2.2.4.5.5.8.1.3.2.6.2 1 0 .5-.1 1-.3 1.4s-.6.7-1.1.9l.6.3c.2.1.3.3.4.5.1.2.2.4.2.6s.1.5.1.7v1.1c0 .2.1.4.1.6s.1.3.2.5h-2c-.1-.3-.2-.6-.2-1s-.1-.8-.1-1.1c-.1-.5-.2-.8-.4-1-.2-.2-.6-.3-1.1-.3h-2v3.5h-2V7.9h5zm-.7 4c.4 0 .8-.1 1-.3.2-.2.3-.5.3-1 0-.4-.1-.7-.3-.9-.2-.2-.6-.3-1-.3h-2.1v2.5h2.1zM22.9 15.2c.3.3.6.4 1.1.4.4 0 .7-.1.9-.3s.4-.4.5-.6H27c-.2.8-.6 1.3-1.1 1.7-.5.3-1.1.5-1.9.5-.5 0-1-.1-1.4-.2-.4-.2-.8-.4-1-.7-.3-.3-.5-.7-.7-1.1-.2-.4-.2-.9-.2-1.4 0-.5.1-.9.2-1.4.2-.4.4-.8.7-1.1s.6-.5 1-.7c.4-.2.9-.3 1.3-.3.5 0 1 .1 1.4.3.4.2.7.5 1 .9.3.4.5.8.6 1.2.1.5.2.9.1 1.4h-4.7c.2.8.3 1.2.6 1.4zm2-3.4c-.2-.2-.5-.3-1-.3-.3 0-.5 0-.7.1s-.3.2-.5.4c-.1.1-.2.3-.2.4 0 .2-.1.3-.1.4h2.9c-.1-.4-.2-.7-.4-1zM28.1 12.3c0-.4.1-.8.3-1 .2-.3.4-.5.7-.7.3-.2.6-.3 1-.4.4-.1.7-.1 1.1-.1.3 0 .7 0 1 .1.3 0 .6.1.9.3s.5.3.7.6c.2.2.3.6.3.9v4.2c0 .3.1.5.2.6h-1.8c0-.1-.1-.2-.1-.3v-.3c-.3.3-.6.5-1 .6-.4.1-.8.2-1.2.2-.3 0-.6 0-.9-.1-.3-.1-.5-.2-.7-.3-.2-.2-.4-.4-.5-.6-.1-.2-.2-.5-.2-.9s.1-.7.2-.9c.1-.2.3-.4.5-.6s.4-.2.7-.3c.3-.1.5-.1.8-.2.3 0 .5-.1.8-.1.3 0 .5-.1.7-.1s.4-.1.5-.2.2-.2.2-.4 0-.3-.1-.5-.1-.2-.2-.3c-.1-.1-.2-.1-.4-.1h-.4c-.3 0-.6.1-.8.2-.2.1-.3.4-.4.8h-1.9zm4.1 1.3c-.1.1-.2.1-.3.2-.1 0-.2.1-.4.1s-.3 0-.4.1c-.1 0-.3 0-.4.1-.1 0-.3.1-.4.1-.1 0-.2.1-.3.2s-.2.2-.2.3c-.1.1-.1.2-.1.4s0 .3.1.4c.1.1.1.2.2.3s.2.1.4.1h.4c.3 0 .6-.1.8-.2.2-.1.3-.3.4-.4.1-.2.1-.3.2-.5V13.6zM39.9 16c-.2.4-.5.6-.8.8-.3.2-.7.2-1.1.2-.5 0-.9-.1-1.3-.3s-.7-.4-.9-.8c-.2-.3-.4-.7-.5-1.1-.1-.4-.2-.9-.2-1.3s.1-.9.2-1.3.3-.8.5-1.1c.2-.3.5-.6.9-.7.4-.2.8-.3 1.2-.3.4 0 .7.1 1.1.2.3.2.6.4.8.7V7.9h1.8v8.9h-1.7V16zm-.1-3.2c0-.2-.1-.5-.3-.7l-.5-.5c-.2-.2-.4-.2-.7-.2-.3 0-.5.1-.7.2s-.4.3-.5.5c-.1.2-.2.4-.3.7-.1.2-.1.5-.1.8 0 .2 0 .5.1.8.1.2.2.5.3.7.1.2.3.4.5.5.2.1.4.2.7.2.3 0 .5-.1.7-.2s.4-.3.5-.5.2-.4.2-.7.1-.5.1-.8.1-.6 0-.8zM43 12.4v-1.9h2v1.9h-2zm2 2.5v1.9h-2v-1.9h2z"/><g><path d="M54.6 7.9c.4 0 .9 0 1.2.1.4.1.7.2 1 .4.3.2.5.5.6.8.2.3.2.7.2 1.2s-.1.9-.3 1.3c-.2.4-.4.7-.8 1s-.7.5-1.1.6c-.4.1-.9.2-1.3.2h-2.4l-.7 3.2h-2l2-8.8h3.6zm-.5 4.2c.5 0 .9-.1 1.2-.4.3-.3.4-.6.4-1.2 0-.2 0-.4-.1-.6-.1-.1-.2-.3-.3-.3s-.3-.1-.4-.2h-2.2l-.5 2.7h1.9zM60.5 10.3l-.3 1.2c.2-.5.5-.8.9-1 .4-.2.8-.3 1.3-.3h.5l-.4 1.7c-.1 0-.2 0-.4-.1h-.4c-.3 0-.6.1-.9.2-.2.1-.4.3-.6.5-.2.2-.3.4-.4.7-.1.3-.2.5-.2.8l-.6 2.9h-1.8l1.3-6.5h2zM63.5 11.3c.2-.3.4-.5.7-.7.3-.2.6-.3.9-.4s.7-.1 1.1-.1c.3 0 .6 0 .9.1.3 0 .6.1.9.2.3.1.5.3.7.5.2.2.3.5.2.9 0 .3 0 .7-.1 1.1l-.6 2.6c0 .1-.1.3-.1.4v.4c0 .1 0 .2.1.4h-1.8v-.6c-.2.3-.5.5-.9.6s-.7.2-1.1.2c-.4 0-.7 0-.9-.1-.3-.1-.5-.2-.7-.4s-.3-.3-.4-.5c-.1-.2-.1-.4-.1-.6 0-.6.2-1.1.6-1.5s1-.6 1.8-.7c.4 0 .8-.1 1.1-.1.3 0 .6-.1.8-.1s.4-.1.5-.2c.1-.1.1-.3.1-.5s0-.3-.1-.4c-.1-.1-.2-.2-.3-.2-.1-.1-.2-.1-.4-.1H66c-.3 0-.6.1-.9.2s-.4.4-.5.7h-1.7c.3-.5.5-.9.6-1.1zm2.7 2.6c-.3 0-.5.1-.8.1-.2 0-.3 0-.5.1-.2 0-.3.1-.4.2l-.3.3c-.1.1-.1.3-.1.5s.1.4.3.5c.2.1.4.2.7.2.3 0 .5 0 .7-.1.2-.1.3-.2.5-.3.1-.1.2-.3.3-.5.1-.2.1-.3.2-.5l.2-.6c-.3 0-.5.1-.8.1zM74.2 11.7c-.2-.2-.5-.2-.9-.2-.3 0-.6.1-.9.3s-.4.4-.6.7-.2.6-.3.9-.1.6-.1.9c0 .2 0 .4.1.5s.1.3.2.4c.1.1.2.2.4.3.2.1.3.1.6.1.2 0 .4 0 .5-.1.2-.1.3-.2.4-.3.1-.1.2-.2.3-.4.1-.1.1-.3.2-.5h1.8c-.3.8-.7 1.4-1.2 1.9-.6.4-1.3.7-2.1.7-.9 0-1.6-.2-2.1-.7-.5-.4-.8-1.1-.8-2.1 0-.5.1-1.1.2-1.6s.4-.9.7-1.3c.3-.4.7-.7 1.1-.9.4-.2 1-.3 1.5-.3.4 0 .8 0 1.1.1.3.1.7.2.9.4.3.2.5.4.6.8.2.3.2.7.2 1.1h-1.8c.3-.2.2-.5 0-.7zM81.3 10.3l-.3 1.2h-1.3l-.7 3.2V15c0 .1 0 .2.1.3l.1.1c.1 0 .1.1.2.1h.8l-.2 1.3h-1.1c-.2 0-.4 0-.6-.1-.2 0-.4-.1-.5-.2s-.3-.2-.4-.4c-.1-.2-.1-.4-.1-.7v-.3c0-.1 0-.2.1-.3l.7-3.5h-1.2l.3-1.2h1.1l.4-2h1.8l-.4 2h1.2zM84.2 10.3l-1.4 6.5H81l1.4-6.5h1.8zm-1.6-1l.3-1.5h1.8l-.3 1.5h-1.8zM89 11.7c-.2-.2-.5-.2-.9-.2-.3 0-.6.1-.9.3s-.4.4-.6.7-.2.6-.3.9-.1.6-.1.9c0 .2 0 .4.1.5s.1.3.2.4c.1.1.2.2.4.3.2.1.3.1.6.1.2 0 .4 0 .5-.1.2-.1.3-.2.4-.3.1-.1.2-.2.3-.4.1-.1.1-.3.2-.5h1.8c-.3.8-.7 1.4-1.2 1.9-.6.4-1.3.7-2.1.7-.9 0-1.6-.2-2.1-.7-.5-.4-.8-1.1-.8-2.1 0-.5.1-1.1.2-1.6s.4-.9.7-1.3c.3-.4.7-.7 1.1-.9.4-.2 1-.3 1.5-.3.4 0 .8 0 1.1.1.3.1.7.2.9.4.3.2.5.4.6.8.2.3.2.7.2 1.1H89c.3-.2.2-.5 0-.7zM92.5 11.3c.2-.3.4-.5.7-.7.3-.2.6-.3.9-.4s.7-.1 1.1-.1c.3 0 .6 0 .9.1.3 0 .6.1.9.2.3.1.5.3.7.5.2.2.3.5.2.9 0 .3 0 .7-.1 1.1l-.6 2.6c0 .1-.1.3-.1.4v.4c0 .1 0 .2.1.4h-1.8v-.6c-.2.3-.5.5-.9.6s-.7.2-1.1.2c-.4 0-.7 0-.9-.1-.3-.1-.5-.2-.7-.4s-.3-.3-.4-.5c-.1-.2-.1-.4-.1-.6 0-.6.2-1.1.6-1.5s1-.6 1.8-.7c.4 0 .8-.1 1.1-.1.3 0 .6-.1.8-.1s.4-.1.5-.2c.1-.1.1-.3.1-.5s0-.3-.1-.4c-.1-.1-.2-.2-.3-.2-.1-.1-.2-.1-.4-.1H95c-.3 0-.6.1-.9.2s-.4.4-.5.7h-1.7c.3-.5.4-.9.6-1.1zm2.6 2.6c-.3 0-.5.1-.8.1-.2 0-.3 0-.5.1-.2 0-.3.1-.4.2l-.3.3c0 .1-.1.2-.1.4s.1.4.3.5c.2.1.4.2.7.2.3 0 .5 0 .7-.1.2-.1.3-.2.5-.3.1-.1.2-.3.3-.5.1-.2.1-.3.2-.5l.2-.6c-.3.1-.5.2-.8.2zM102.1 7.9l-1.9 8.9h-1.8l1.9-8.9h1.8zM106.4 11.3c.2-.3.4-.5.7-.7.3-.2.6-.3.9-.4s.7-.1 1.1-.1c.3 0 .6 0 .9.1.3 0 .6.1.9.2.3.1.5.3.7.5.2.2.3.5.2.9 0 .3 0 .7-.1 1.1l-.6 2.6c0 .1-.1.3-.1.4v.4c0 .1 0 .2.1.4h-1.8v-.6c-.2.3-.5.5-.9.6s-.7.2-1.1.2c-.4 0-.7 0-.9-.1-.3-.1-.5-.2-.7-.4s-.3-.3-.4-.5c-.1-.2-.1-.4-.1-.6 0-.6.2-1.1.6-1.5s1-.6 1.8-.7c.4 0 .8-.1 1.1-.1.3 0 .6-.1.8-.1s.4-.1.5-.2c.1-.1.1-.3.1-.5s0-.3-.1-.4c-.1-.1-.2-.2-.3-.2-.1-.1-.2-.1-.4-.1h-.4c-.3 0-.6.1-.9.2s-.4.4-.5.7H106c.1-.5.2-.9.4-1.1zm2.6 2.6c-.3 0-.5.1-.8.1-.2 0-.3 0-.5.1-.2 0-.3.1-.4.2l-.3.3c-.1.1-.1.3-.1.5s.1.4.3.5c.2.1.4.2.7.2.3 0 .5 0 .7-.1.2-.1.3-.2.5-.3.1-.1.2-.3.3-.5.1-.2.1-.3.2-.5l.2-.6c-.3 0-.5.1-.8.1zM116.9 16c-.2.4-.5.6-.8.8-.3.2-.7.2-1.1.2-.8 0-1.4-.2-1.8-.7s-.6-1.1-.6-1.9c0-.5.1-1.1.2-1.6s.4-1 .6-1.4c.3-.4.7-.7 1.1-1 .4-.2 1-.4 1.6-.4.4 0 .7.1 1.1.2.3.2.6.4.7.8l.7-3.3h1.8l-1.9 8.9h-1.7l.1-.6zm-1.5-4.3c-.2.2-.4.4-.6.7s-.3.6-.3.9c-.1.3-.1.6-.1.9 0 .2 0 .4.1.6.1.2.1.3.2.5.1.1.2.2.4.3s.3.1.6.1.6-.1.9-.3.4-.4.6-.7c.2-.3.3-.6.4-.9s.1-.6.1-.9c0-.4-.1-.8-.3-1-.2-.3-.5-.4-1-.4s-.8.1-1 .2zM121.3 16.8l-.9-6.5h1.8l.4 4.6 2.3-4.6h1.9l-3.5 6.5h-2zM129.6 10.3l-1.4 6.5h-1.8l1.4-6.5h1.8zm-1.6-1l.3-1.5h1.8l-.3 1.5H128zM134.4 11.7c-.2-.2-.5-.2-.9-.2-.3 0-.6.1-.9.3s-.4.4-.6.7-.2.6-.3.9-.1.6-.1.9c0 .2 0 .4.1.5s.1.3.2.4c.1.1.2.2.4.3.2.1.3.1.6.1.2 0 .4 0 .5-.1.2-.1.3-.2.4-.3.1-.1.2-.2.3-.4.1-.1.1-.3.2-.5h1.8c-.3.8-.7 1.4-1.2 1.9-.6.4-1.3.7-2.1.7-.9 0-1.6-.2-2.1-.7-.5-.4-.8-1.1-.8-2.1 0-.5.1-1.1.2-1.6s.4-.9.7-1.3c.3-.4.7-.7 1.1-.9.4-.2 1-.3 1.5-.3.4 0 .8 0 1.1.1.3.1.7.2.9.4.3.2.5.4.6.8.2.3.2.7.2 1.1h-1.8c.3-.2.2-.5 0-.7zM138.6 14.1V14.4c0 .4.1.7.3.9.2.2.6.4 1.1.4.2 0 .3 0 .5-.1s.3-.1.4-.2l.3-.3c.1-.1.2-.2.2-.3h1.8c-.1.4-.3.7-.5 1-.2.3-.4.5-.7.7-.3.2-.6.3-.9.4-.4.1-.8.1-1.2.1-.4 0-.8-.1-1.2-.2-.4-.1-.7-.3-.9-.5-.2-.2-.4-.5-.6-.9-.1-.4-.2-.8-.2-1.2 0-.5.1-1 .2-1.5.2-.5.4-.9.7-1.3.3-.4.7-.7 1.1-.9.4-.2.9-.3 1.5-.3.5 0 .9.1 1.2.2.4.1.7.3.9.5.3.2.5.5.6.9.1.4.2.8.2 1.2 0 .3 0 .7-.1 1h-4.8c.1 0 .1.1.1.1zm3.1-1.7c0-.2-.1-.3-.2-.4s-.2-.2-.4-.3c-.2-.1-.4-.1-.6-.1-.2 0-.5 0-.7.1-.2.1-.4.2-.5.3l-.4.4c-.1.2-.2.3-.2.5h3v-.5zM147.7 11.5l.2-1.2h1.1c.1-.4.2-.8.3-1.1.1-.3.2-.6.4-.8.2-.2.4-.4.7-.5s.7-.2 1.1-.2h.6c.2 0 .4 0 .6.1l-.3 1.3h-.6c-.2 0-.4 0-.5.1-.1.1-.2.1-.3.2-.1.1-.1.2-.1.4 0 .1-.1.3-.1.5h1.3l-.2 1.2h-1.3l-1.1 5.3h-1.8l1.1-5.3h-1.1zM152.2 12.6c.2-.5.4-.9.7-1.3.3-.4.7-.7 1.2-.9.5-.2 1-.3 1.6-.3.4 0 .8.1 1.2.2.4.1.7.3 1 .5s.5.5.6.9c.1.3.2.7.2 1.2 0 .6-.1 1.1-.3 1.6s-.4.9-.7 1.3c-.3.4-.7.7-1.2.9-.5.2-1 .3-1.6.3-.9 0-1.6-.2-2.2-.7-.5-.5-.8-1.2-.8-2.1 0-.6.1-1.1.3-1.6zm1.6 2.1c.1.2.1.3.2.5s.2.2.4.3.3.1.5.1c.3 0 .6-.1.9-.3s.4-.4.6-.7c.2-.3.3-.6.3-.9.1-.3.1-.6.1-.9 0-.4-.1-.8-.3-1-.2-.3-.5-.4-1-.4-.3 0-.6.1-.8.3-.2.2-.4.4-.6.7-.1.3-.3.6-.3.9s-.1.6-.1.9c0 .2 0 .3.1.5zM162.1 10.3l-.3 1.2c.2-.5.5-.8.9-1 .4-.2.8-.3 1.3-.3h.5l-.4 1.7c-.1 0-.2 0-.4-.1h-.4c-.3 0-.6.1-.9.2-.2.1-.4.3-.6.5-.2.2-.3.4-.4.7-.1.3-.2.5-.2.8l-.6 2.9h-1.8l1.3-6.5h2z"/></g><g><path d="M14.2 22.8l-.2.9c.3-.4.6-.7 1-.8.4-.2.8-.3 1.3-.3.4 0 .7.1 1 .3.3.2.5.5.5.9.1-.2.2-.3.4-.5s.3-.3.5-.4c.2-.1.4-.2.6-.2.2-.1.4-.1.6-.1.2 0 .5 0 .7.1l.6.3c.2.1.3.3.4.5.1.2.2.5.2.7 0 .2 0 .4-.1.6 0 .2-.1.4-.1.6l-.6 3.9h-1.8l.9-4.1v-.5c0-.2-.1-.4-.2-.5s-.3-.2-.6-.2c-.2 0-.4.1-.6.2-.2.1-.4.3-.5.4-.1.2-.3.4-.3.6-.1.2-.2.4-.2.6l-.7 3.5h-1.8l.8-4.1c0-.2.1-.3.1-.5s-.1-.4-.2-.5c-.1-.1-.3-.2-.6-.2-.2 0-.4.1-.6.2-.2.1-.4.3-.5.4-.1.2-.3.4-.3.6-.1.2-.2.4-.2.6l-.7 3.5h-1.8l1.3-6.5h1.7zM23.7 23.8c.2-.3.4-.5.7-.7.3-.2.6-.3.9-.4s.7-.1 1.1-.1c.3 0 .6 0 .9.1.3 0 .6.1.9.2.3.1.5.3.7.5.2.2.3.5.2.9 0 .3 0 .7-.1 1.1l-.6 2.6c0 .1-.1.3-.1.4v.4c0 .1 0 .2.1.4h-1.8v-.6c-.2.3-.5.5-.9.6s-.7.2-1.1.2c-.4 0-.7 0-.9-.1-.3-.1-.5-.2-.7-.4s-.3-.3-.4-.5c-.1-.2-.1-.4-.1-.6 0-.6.2-1.1.6-1.5.4-.4 1-.6 1.8-.7.4 0 .8-.1 1.1-.1.3 0 .6-.1.8-.1s.4-.1.5-.2c.1-.1.1-.3.1-.5s0-.3-.1-.4c-.1-.1-.2-.2-.3-.2-.1-.1-.2-.1-.4-.1h-.4c-.3 0-.6.1-.9.2s-.4.4-.5.7h-1.7c.3-.5.4-.9.6-1.1zm2.7 2.6c-.3 0-.5.1-.8.1-.2 0-.3 0-.5.1-.2 0-.3.1-.4.2l-.3.3c-.1.1-.1.3-.1.5s.1.4.3.5c.2.1.4.2.7.2.3 0 .5 0 .7-.1s.3-.2.5-.3c.1-.1.2-.3.3-.5.1-.2.1-.3.2-.5l.2-.6c-.3 0-.6.1-.8.1zM32.7 22.8l-.2.9c.6-.7 1.3-1.1 2.3-1.1 1.3 0 1.9.6 1.9 1.7v.3c0 .1 0 .2-.1.3 0 .1 0 .2-.1.3v.2l-.8 3.8h-1.8l.8-3.8c0-.1 0-.2.1-.4v-.4c0-.2-.1-.3-.3-.5s-.4-.1-.6-.1c-.3 0-.5.1-.7.2-.2.1-.4.2-.5.4-.1.2-.3.4-.4.6-.1.2-.2.4-.2.7l-.7 3.4h-1.8l1.3-6.5h1.8zM38.5 23.8c.2-.3.4-.5.7-.7.3-.2.6-.3.9-.4s.7-.1 1.1-.1c.3 0 .6 0 .9.1.3 0 .6.1.9.2.3.1.5.3.7.5.2.2.3.5.2.9 0 .3 0 .7-.1 1.1l-.6 2.6c0 .1-.1.3-.1.4v.4c0 .1 0 .2.1.4h-1.8v-.6c-.2.3-.5.5-.9.6s-.7.2-1.1.2c-.4 0-.7 0-.9-.1-.3-.1-.5-.2-.7-.4s-.3-.3-.4-.5c-.1-.2-.1-.4-.1-.6 0-.6.2-1.1.6-1.5.4-.4 1-.6 1.8-.7.4 0 .8-.1 1.1-.1.3 0 .6-.1.8-.1s.4-.1.5-.2c.1-.1.1-.3.1-.5s0-.3-.1-.4c0-.2-.1-.3-.2-.3-.1-.1-.2-.1-.4-.1h-.4c-.3 0-.6.1-.9.2s-.4.4-.5.7H38c.2-.4.3-.8.5-1zm2.7 2.6c-.3 0-.5.1-.8.1-.2 0-.3 0-.5.1-.2 0-.3.1-.4.2l-.3.3c-.1.1-.1.3-.1.5s.1.4.3.5c.2.1.4.2.7.2.3 0 .5 0 .7-.1s.3-.2.5-.3c.1-.1.2-.3.3-.5.1-.2.1-.3.2-.5l.2-.6c-.3 0-.6.1-.8.1zM50.2 30.2c-.2.3-.4.6-.7.9-.3.2-.6.4-1 .5-.4.1-.9.2-1.4.2-.3 0-.7 0-1-.1-.3-.1-.6-.2-.9-.4-.3-.2-.5-.4-.6-.6-.2-.3-.2-.6-.2-1h1.8c0 .2 0 .3.1.4l.3.3c.1.1.2.1.4.2s.3 0 .4 0c.3 0 .5-.1.7-.2.2-.1.3-.3.5-.5.1-.2.2-.4.3-.7l.3-.9c-.5.6-1.1.9-1.8.9-.4 0-.7-.1-1-.2-.3-.1-.6-.3-.8-.5-.2-.2-.4-.5-.5-.8-.1-.3-.2-.7-.2-1.1 0-.5.1-.9.2-1.4.1-.5.4-.9.6-1.2.3-.4.6-.7 1-.9.4-.2.9-.3 1.4-.3.4 0 .8.1 1.2.3.3.2.6.5.8.9l.2-1H52l-1.3 6.1c-.1.3-.3.7-.5 1.1zm-2.6-6l-.6.6c-.2.2-.3.5-.3.8-.1.3-.1.6-.1.8 0 .2 0 .4.1.5 0 .2.1.3.2.5s.2.2.4.3c.1.1.3.1.5.1.3 0 .6-.1.8-.2.2-.2.4-.3.6-.6.2-.2.3-.5.3-.8.1-.3.1-.6.1-.9 0-.4-.1-.7-.3-1-.2-.3-.5-.4-1-.4-.2.1-.5.2-.7.3zM55.2 22.8l-1.4 6.5H52l1.4-6.5h1.8zm-1.6-1l.3-1.5h1.8l-.3 1.5h-1.8zM58.4 22.8l-.2.9c.6-.7 1.3-1.1 2.3-1.1 1.3 0 1.9.6 1.9 1.7v.3c0 .1 0 .2-.1.3 0 .1 0 .2-.1.3v.2l-.8 3.8h-1.8l.8-3.8c0-.1 0-.2.1-.4v-.4c0-.2-.1-.3-.3-.5s-.4-.1-.6-.1c-.3 0-.5.1-.7.2-.2.1-.4.2-.5.4-.1.2-.3.4-.4.6-.1.2-.2.4-.2.7l-.7 3.4h-1.8l1.3-6.5h1.8zM68.7 30.2c-.2.3-.4.6-.7.9-.3.2-.6.4-1 .5-.4.1-.9.2-1.4.2-.3 0-.7 0-1-.1-.3-.1-.6-.2-.9-.4-.3-.2-.5-.4-.6-.6-.2-.3-.2-.6-.2-1h1.8c0 .2 0 .3.1.4l.3.3c.1.1.2.1.4.2s.3 0 .4 0c.3 0 .5-.1.7-.2.2-.1.3-.3.5-.5.1-.2.2-.4.3-.7l.3-.9c-.5.6-1.1.9-1.8.9-.4 0-.7-.1-1-.2-.3-.1-.6-.3-.8-.5-.2-.2-.4-.5-.5-.8-.1-.3-.2-.7-.2-1.1 0-.5.1-.9.2-1.4.1-.5.4-.9.6-1.2.3-.4.6-.7 1-.9.4-.2.9-.3 1.4-.3.4 0 .8.1 1.2.3.3.2.6.5.8.9l.2-1h1.7l-1.3 6.1c-.1.3-.3.7-.5 1.1zm-2.6-6l-.6.6c-.2.2-.3.5-.3.8-.1.3-.1.6-.1.8 0 .2 0 .4.1.5 0 .2.1.3.2.5s.2.2.4.3c.1.1.3.1.5.1.3 0 .6-.1.8-.2.2-.2.4-.3.6-.6.2-.2.3-.5.3-.8.1-.3.1-.6.1-.9 0-.4-.1-.7-.3-1-.2-.3-.5-.4-1-.4-.2.1-.5.2-.7.3zM77.7 20.4l-1.9 8.9H74l1.9-8.9h1.8zM80.5 22.8l-1.4 6.5h-1.8l1.4-6.5h1.8zm-1.6-1l.3-1.5H81l-.3 1.5h-1.8zM81 24l.2-1.2h1.1c.1-.4.2-.8.3-1.1.1-.3.2-.6.4-.8.2-.2.4-.4.7-.5s.7-.2 1.1-.2h.6c.2 0 .4 0 .6.1l-.3 1.3h-.6c-.2 0-.4 0-.5.1s-.2.1-.3.2c-.1.1-.1.2-.1.4 0 .1-.1.3-.1.5h1.3l-.3 1.2h-1.3l-1.1 5.3h-1.8L82 24h-1zM86.9 26.6V26.9c0 .4.1.7.3.9.2.2.6.3 1.1.3.2 0 .3 0 .5-.1.1-.1.3-.1.4-.2l.3-.3c.1-.1.2-.2.2-.3h1.8c-.1.4-.3.7-.5 1-.2.3-.4.5-.7.7-.3.2-.6.3-.9.4-.4.1-.8.1-1.2.1-.4 0-.8-.1-1.2-.2-.4-.1-.7-.3-.9-.5-.2-.2-.4-.5-.6-.9-.1-.3-.2-.8-.2-1.2 0-.5.1-1 .2-1.5.2-.5.4-.9.7-1.3.3-.4.7-.7 1.1-.9.4-.2.9-.3 1.5-.3.5 0 .9.1 1.2.2.4.1.7.3.9.5.3.2.5.5.6.9.1.4.2.8.2 1.2 0 .3 0 .7-.1 1h-4.8c.1.1.1.2.1.2zm3.1-1.7c0-.2-.1-.3-.2-.4s-.2-.2-.4-.3c-.1-.2-.3-.2-.5-.2s-.5 0-.7.1c-.2.1-.4.2-.5.3l-.4.4c-.1.2-.2.3-.2.5h3c0-.1 0-.3-.1-.4zM98.7 22.8l-1.4 6.5h-1.8l1.4-6.5h1.8zm-1.5-1l.3-1.5h1.8l-.3 1.5h-1.8zM101.9 22.8l-.2.9c.6-.7 1.3-1.1 2.3-1.1 1.3 0 1.9.6 1.9 1.7v.3c0 .1 0 .2-.1.3 0 .1 0 .2-.1.3v.2l-.8 3.8h-1.8l.8-3.8c0-.1 0-.2.1-.4v-.4c0-.2-.1-.3-.3-.5s-.4-.2-.6-.2c-.3 0-.5.1-.7.2-.2.1-.4.2-.5.4-.1.2-.3.4-.4.6-.1.2-.2.4-.2.7l-.7 3.4h-1.8l1.3-6.5h1.8zM110.8 24.1c-.2-.2-.4-.2-.8-.2-.3 0-.6 0-.8.1s-.3.3-.3.5c0 .1.1.3.2.4.1.1.3.2.6.3l.9.3c.2.1.5.2.7.3.2.1.4.2.5.4.2.1.3.3.4.5.1.2.1.4.1.7 0 .4-.1.7-.3 1-.2.3-.4.5-.7.7-.3.2-.6.3-1 .4-.4.1-.7.1-1.1.1-.3 0-.6 0-1-.1l-.9-.3c-.3-.2-.5-.4-.6-.6-.2-.3-.2-.6-.2-1v-.3h1.6v.2c0 .2 0 .3.1.4l.3.3c.1.1.3.1.4.2.2 0 .3.1.5.1h.4c.1 0 .3-.1.4-.1.1-.1.2-.1.3-.2s.1-.2.1-.4-.1-.4-.2-.5c-.1-.1-.3-.2-.5-.2l-1.4-.4c-.2-.1-.4-.2-.6-.2-.2-.1-.3-.2-.4-.3-.1-.1-.2-.3-.3-.5s-.1-.4-.1-.6c0-.4.1-.7.3-1s.4-.5.7-.6.6-.3.9-.4.7-.1 1-.1c.4 0 .7 0 1 .1l.9.3.6.6c.1.3.2.6.2 1H111c0-.6-.1-.8-.2-.9zM117.4 29.3l.2-.9c-.6.7-1.3 1.1-2.3 1.1-1.3 0-1.9-.6-1.9-1.7v-.3-.3c0-.1 0-.2.1-.3 0-.1 0-.2.1-.2l.8-3.8h1.8l-.8 3.8v.8c0 .2.1.3.3.5s.4.2.6.2c.3 0 .5-.1.7-.2.2-.1.4-.2.5-.4.1-.2.3-.4.4-.6.1-.2.2-.4.2-.7l.7-3.4h1.8l-1.4 6.5h-1.8zM123.6 22.8l-.3 1.2c.2-.5.5-.8.9-1 .4-.2.8-.3 1.3-.3h.5l-.4 1.7c-.1 0-.2 0-.4-.1h-.4c-.3 0-.6.1-.9.2-.2.1-.4.3-.6.5-.2.2-.3.4-.4.7-.1.3-.2.5-.2.8l-.6 2.9h-1.8l1.3-6.5h2zM126.7 23.8c.2-.3.4-.5.7-.7.3-.2.6-.3.9-.4s.7-.1 1.1-.1c.3 0 .6 0 .9.1.3 0 .6.1.9.2.3.1.5.3.7.5.2.2.3.5.2.9 0 .3 0 .7-.1 1.1l-.6 2.6c0 .1-.1.3-.1.4v.4c0 .1 0 .2.1.4h-1.8v-.6c-.2.3-.5.5-.9.6s-.7.2-1.1.2c-.4 0-.7 0-.9-.1-.3-.1-.5-.2-.7-.4s-.3-.3-.4-.5c-.1-.2-.1-.4-.1-.6 0-.6.2-1.1.6-1.5.4-.4 1-.6 1.8-.7.4 0 .8-.1 1.1-.1.3 0 .6-.1.8-.1s.4-.1.5-.2c.1-.1.1-.3.1-.5s0-.3-.1-.4c-.1-.1-.2-.2-.3-.2-.1-.1-.2-.1-.4-.1h-.4c-.3 0-.6.1-.9.2s-.4.4-.5.7h-1.7c.3-.5.4-.9.6-1.1zm2.7 2.6c-.3 0-.5.1-.8.1-.2 0-.3 0-.5.1-.2 0-.3.1-.4.2l-.3.3c-.1.1-.1.3-.1.5s.1.4.3.5c.2.1.4.2.7.2.3 0 .5 0 .7-.1s.3-.2.5-.3c.1-.1.2-.3.3-.5.1-.2.1-.3.2-.5l.2-.6c-.3 0-.6.1-.8.1zM135.7 22.8l-.2.9c.6-.7 1.3-1.1 2.3-1.1 1.3 0 1.9.6 1.9 1.7v.3c0 .1 0 .2-.1.3 0 .1 0 .2-.1.3v.2l-.8 3.8h-1.8l.8-3.8c0-.1 0-.2.1-.4v-.4c0-.2-.1-.3-.3-.5s-.4-.2-.6-.2c-.3 0-.5.1-.7.2-.2.1-.4.2-.5.4-.1.2-.3.4-.4.6-.1.2-.2.4-.2.7l-.7 3.4h-1.8l1.3-6.5h1.8zM145 24.2c-.2-.2-.5-.2-.9-.2-.3 0-.6.1-.9.3s-.4.4-.6.7-.2.6-.3.9c-.1.3-.1.6-.1.9 0 .2 0 .4.1.5s.1.3.2.4c.1.1.2.2.4.3.2.1.3.1.6.1.2 0 .4 0 .5-.1s.3-.2.4-.3c.1-.1.2-.2.3-.4s.1-.3.2-.5h1.8c-.3.8-.7 1.4-1.2 1.9-.6.4-1.3.7-2.1.7-.9 0-1.6-.2-2.1-.7-.5-.4-.8-1.1-.8-2.1 0-.5.1-1.1.2-1.6s.4-.9.7-1.3c.3-.4.7-.7 1.1-.9.4-.2 1-.3 1.5-.3.4 0 .8 0 1.1.1.3.1.7.2.9.4.3.2.5.4.6.8.2.3.2.7.2 1.1H145c.3-.2.2-.5 0-.7zM149.2 26.6V26.9c0 .4.1.7.3.9.2.2.6.3 1.1.3.2 0 .3 0 .5-.1.1-.1.3-.1.4-.2l.3-.3c.1-.1.2-.2.2-.3h1.8c-.1.4-.3.7-.5 1-.2.3-.4.5-.7.7s-.6.3-.9.4c-.4.1-.8.1-1.2.1-.4 0-.8-.1-1.2-.2-.4-.1-.7-.3-.9-.5-.2-.2-.4-.5-.6-.9s-.2-.8-.2-1.2c0-.5.1-1 .2-1.5.2-.5.4-.9.7-1.3.3-.4.7-.7 1.1-.9.4-.2.9-.3 1.5-.3.5 0 .9.1 1.2.2.4.1.7.3 1 .5.3.2.5.5.6.9.1.4.2.8.2 1.2 0 .3 0 .7-.1 1h-4.8v.2zm3.1-1.7c0-.2-.1-.3-.2-.4-.1-.1-.2-.2-.4-.3s-.4-.1-.6-.1c-.2 0-.5 0-.7.1s-.4.2-.5.3l-.4.4c-.1.2-.2.3-.2.5h3v-.5z"/></g><g><path d="M11.5 36.5l.2-1.2h1.1c.1-.4.2-.8.3-1.1.1-.3.2-.6.4-.8.2-.2.4-.4.7-.5.3-.1.7-.2 1.1-.2h.6c.2 0 .4 0 .6.1l-.3 1.3h-.6c-.2 0-.4 0-.5.1s-.2.1-.3.2-.1.2-.1.4-.1.3-.1.5h1.3l-.2 1.2h-1.3l-1.1 5.3h-1.8l1.1-5.3h-1.1zM16 37.6c.2-.5.4-.9.7-1.3.3-.4.7-.7 1.2-.9.5-.2 1-.3 1.5-.3.4 0 .8.1 1.2.2s.7.3 1 .5c.3.2.5.5.6.9.1.3.2.7.2 1.2 0 .6-.1 1.1-.3 1.6-.2.5-.4.9-.7 1.3-.3.4-.7.7-1.2.9-.5.2-1 .3-1.6.3-.9 0-1.6-.2-2.2-.7s-.8-1.2-.8-2.1c.2-.6.3-1.1.4-1.6zm1.6 2.1c.1.2.1.3.2.5.1.1.2.2.4.3s.3.1.5.1c.3 0 .6-.1.9-.3.2-.2.4-.4.6-.7.2-.3.3-.6.3-.9.1-.3.1-.6.1-.9 0-.4-.1-.8-.3-1-.2-.3-.5-.4-1-.4-.3 0-.6.1-.8.3-.2.2-.4.4-.6.7s-.3.6-.3.9c-.1.3-.1.6-.1.9.1.2.1.3.1.5zM26 35.3l-.3 1.2c.2-.4.5-.8.9-1 .4-.2.8-.3 1.3-.3h.5l-.4 1.7c-.1 0-.2 0-.4-.1h-.4c-.3 0-.6.1-.9.2-.2.1-.4.3-.6.5-.2.2-.3.4-.4.7s-.2.5-.2.8l-.6 2.9h-1.8l1.3-6.5h2zM35.9 41c-.2.4-.5.6-.8.8-.3.2-.7.2-1.1.2-.8 0-1.4-.2-1.8-.7s-.6-1.1-.6-1.9c0-.5.1-1.1.2-1.6s.4-1 .6-1.4c.3-.4.7-.7 1.1-1s1-.4 1.6-.4c.4 0 .7.1 1.1.2.3.2.6.4.7.8l.7-3.3h1.8l-1.9 8.9h-1.7l.1-.6zm-1.5-4.3c-.2.2-.4.4-.6.7s-.3.6-.3.9c-.1.3-.1.6-.1.9 0 .2 0 .4.1.5.1.2.1.3.2.5.1.1.2.2.4.3s.3.1.6.1.6-.1.9-.3c.2-.2.4-.4.6-.7.2-.3.3-.6.4-.9.1-.3.1-.6.1-.9 0-.4-.1-.8-.3-1-.2-.3-.5-.4-1-.4-.5.1-.8.2-1 .3zM40.9 39.1s0 .1 0 0v.3c0 .4.1.7.3.9s.6.4 1.1.4c.2 0 .3 0 .5-.1.1-.1.3-.1.4-.2l.3-.3c.1-.1.2-.2.2-.3h1.8c-.1.4-.3.7-.5 1-.2.3-.4.5-.7.7-.3.2-.6.3-.9.4-.4.1-.8.1-1.2.1-.4 0-.8-.1-1.2-.2-.4-.1-.7-.3-.9-.5s-.4-.5-.6-.9c-.1-.4-.2-.8-.2-1.2 0-.5.1-1 .2-1.5.2-.5.4-.9.7-1.3.3-.4.7-.7 1.1-.9.4-.2.9-.3 1.5-.3.5 0 .9.1 1.2.2.4.1.7.3.9.5.3.2.5.5.6.9.1.4.2.8.2 1.2 0 .3 0 .7-.1 1h-4.8c.1 0 .1.1.1.1zm3.1-1.7c0-.2-.1-.3-.2-.4-.1-.1-.2-.2-.4-.3-.2-.1-.4-.1-.6-.1-.2 0-.5 0-.7.1-.2.1-.4.2-.5.3l-.4.4c-.1.2-.2.3-.2.5h3v-.5zM49.1 35.3l-.2.9c.6-.7 1.3-1.1 2.3-1.1 1.3 0 1.9.6 1.9 1.7v.3c0 .1 0 .2-.1.3 0 .1 0 .2-.1.3v.2l-.8 3.8h-1.8l.8-3.8c0-.1 0-.2.1-.4s0-.3 0-.4c0-.2-.1-.3-.3-.5s-.4-.2-.6-.2c-.3 0-.5.1-.7.2s-.4.2-.5.4-.3.4-.4.6c-.1.2-.2.4-.2.7l-.7 3.4H46l1.3-6.5h1.8zM58.6 35.3l-.3 1.2H57l-.7 3.2V40c0 .1 0 .2.1.3l.1.1c.1 0 .1.1.2.1h.8l-.3 1.4h-1.1c-.2 0-.4 0-.6-.1-.2 0-.4-.1-.5-.2s-.3-.2-.4-.4-.1-.4-.1-.7v-.3c0-.1 0-.2.1-.3l.7-3.5h-1.2l.3-1.2h1.1l.4-2h1.8l-.4 2h1.3zM61.5 35.3l-1.4 6.5h-1.8l1.4-6.5h1.8zm-1.6-1l.3-1.5H62l-.3 1.5h-1.8zM65.9 36.6c-.2-.2-.4-.2-.8-.2-.3 0-.6 0-.8.1-.2.1-.3.2-.3.5 0 .1.1.3.2.4.1.1.3.2.6.3l.9.3c.2.1.5.2.7.3.2.1.4.2.5.4.2.1.3.3.4.5.1.2.1.4.1.7 0 .4-.1.7-.3 1s-.4.5-.7.7c-.3.2-.6.3-1 .4s-.7.1-1.1.1c-.3 0-.6 0-1-.1l-.9-.3c-.3-.2-.5-.4-.6-.6-.2-.3-.2-.6-.2-1v-.3h1.6v.2c0 .2 0 .3.1.4l.3.3c.1.1.3.1.4.2.2 0 .3.1.5.1h.4c.1 0 .3-.1.4-.1.1-.1.2-.1.3-.2s.1-.2.1-.4-.1-.4-.2-.5c-.1-.1-.3-.2-.5-.2l-1.4-.4c-.2-.1-.4-.2-.6-.2s-.3-.2-.4-.3c-.1-.1-.2-.3-.3-.5s-.1-.4-.1-.7c0-.4.1-.7.3-1 .2-.3.4-.5.7-.6.3-.2.6-.3.9-.3.3-.1.7-.1 1-.1.4 0 .7 0 1 .1l.9.3.6.6c.1.3.2.6.2 1h-1.6c-.1-.6-.2-.8-.3-.9zM73 35.3l-.3 1.2h-1.3l-.7 3.2V40c0 .1 0 .2.1.3l.1.1c.1 0 .1.1.2.1h.8l-.3 1.4h-1.1c-.2 0-.4 0-.6-.1-.2 0-.4-.1-.5-.2s-.3-.2-.4-.4-.1-.4-.1-.7v-.3c0-.1 0-.2.1-.3l.7-3.5h-1.2l.3-1.2h1.1l.4-2h1.8l-.4 2H73zM77 36.6c-.2-.2-.4-.2-.8-.2-.3 0-.6 0-.8.1-.2.1-.3.3-.3.5 0 .1.1.3.2.4.1.1.3.2.6.3l.9.3c.2.1.5.2.7.3.2.1.4.2.5.4.2.1.3.3.4.5.1.2.1.4.1.7 0 .4-.1.7-.3 1s-.4.5-.7.7c-.3.2-.6.3-1 .4s-.7.1-1.1.1c-.3 0-.6 0-1-.1l-.9-.3c-.3-.2-.5-.4-.6-.6-.2-.3-.2-.6-.2-1v-.3h1.6v.2c0 .2 0 .3.1.4l.3.3c.1.1.3.1.4.2.2 0 .3.1.5.1h.4c.1 0 .3-.1.4-.1.1-.1.2-.1.3-.2s.1-.2.1-.4-.1-.4-.2-.5c-.1-.1-.3-.2-.5-.2l-1.4-.4c-.2-.1-.4-.2-.6-.2s-.3-.2-.4-.3c-.1-.1-.2-.3-.3-.5s-.1-.4-.1-.7c0-.4.1-.7.3-1 .2-.3.4-.5.7-.6.3-.2.6-.3.9-.3.3-.1.7-.1 1-.1.4 0 .7 0 1 .1l.9.3.6.6c.1.3.2.6.2 1h-1.6c-.1-.6-.2-.8-.3-.9zM83.2 37.6c.2-.5.4-.9.7-1.3.3-.4.7-.7 1.2-.9.5-.2 1-.3 1.5-.3.4 0 .8.1 1.2.2s.7.3 1 .5c.3.2.5.5.6.9.1.3.2.7.2 1.2 0 .6-.1 1.1-.3 1.6-.2.5-.4.9-.7 1.3-.3.4-.7.7-1.2.9-.5.2-1 .3-1.6.3-.9 0-1.6-.2-2.2-.7s-.8-1.2-.8-2.1c.1-.6.2-1.1.4-1.6zm1.6 2.1c.1.2.1.3.2.5.1.1.2.2.4.3s.3.1.5.1c.3 0 .6-.1.9-.3.2-.2.4-.4.6-.7.2-.3.3-.6.3-.9.1-.3.1-.6.1-.9 0-.4-.1-.8-.3-1-.2-.3-.5-.4-1-.4-.3 0-.6.1-.8.3-.2.2-.4.4-.6.7s-.3.6-.3.9c-.1.3-.1.6-.1.9 0 .2 0 .3.1.5zM91.4 41.8l-.9-6.5h1.8l.4 4.6 2.3-4.6h2l-3.5 6.5h-2.1zM98.5 39.1s0 .1 0 0v.3c0 .4.1.7.3.9s.6.4 1.1.4c.2 0 .3 0 .5-.1.1-.1.3-.1.4-.2l.3-.3c.1-.1.2-.2.2-.3h1.8c-.1.4-.3.7-.5 1-.2.3-.4.5-.7.7-.3.2-.6.3-.9.4-.4.1-.8.1-1.2.1-.4 0-.8-.1-1.2-.2-.4-.1-.7-.3-.9-.5s-.4-.5-.6-.9c-.1-.4-.2-.8-.2-1.2 0-.5.1-1 .2-1.5.2-.5.4-.9.7-1.3.3-.4.7-.7 1.1-.9.4-.2.9-.3 1.5-.3.5 0 .9.1 1.2.2.4.1.7.3.9.5.3.2.5.5.6.9.1.4.2.8.2 1.2 0 .3 0 .7-.1 1h-4.8c.1 0 .1.1.1.1zm3.1-1.7c0-.2-.1-.3-.2-.4-.1-.1-.2-.2-.4-.3-.2-.1-.4-.1-.6-.1-.2 0-.5 0-.7.1-.2.1-.4.2-.5.3l-.4.4c-.1.2-.2.3-.2.5h3c.1-.2.1-.4 0-.5zM106.8 35.3l-.3 1.2c.2-.4.5-.8.9-1 .4-.2.8-.3 1.3-.3h.5l-.4 1.7c-.1 0-.2 0-.4-.1h-.4c-.3 0-.6.1-.9.2-.2.1-.4.3-.6.5-.2.2-.3.4-.4.7s-.2.5-.2.8l-.6 2.9h-1.8l1.3-6.5h2zM119 38.3l-.3 1.5h-1.2l-.4 2h-1.7l.4-2h-4l.3-1.6 5.1-5.1h1.7l-1.1 5.3h1.2zm-2.2-3.4l-3.3 3.4h2.6l.7-3.4zM119.2 37.3c.1-.4.2-.9.3-1.3.1-.4.3-.8.6-1.2.2-.4.5-.7.8-1 .3-.3.7-.5 1-.7.4-.2.8-.2 1.3-.2s.9.1 1.3.2c.4.2.7.4.9.7s.4.6.5 1c.1.4.2.9.2 1.3s0 .9-.1 1.3c-.1.5-.2.9-.3 1.3l-.6 1.2c-.2.4-.5.7-.8 1-.3.3-.7.5-1.1.7-.4.2-.8.2-1.3.2s-.9-.1-1.3-.3c-.4-.2-.6-.4-.9-.7-.2-.3-.4-.7-.5-1.1-.1-.4-.1-.8-.1-1.3 0-.2.1-.7.1-1.1zm1.7 2.2c0 .2.1.4.2.5.1.1.2.2.4.3.2.1.4.1.6.1.3 0 .6-.1.8-.3s.4-.4.6-.7c.2-.3.3-.6.4-.9.1-.3.2-.7.3-1 .1-.3.1-.7.1-1v-.8c0-.2 0-.4-.1-.6 0-.2-.1-.4-.2-.5-.1-.1-.2-.3-.4-.3-.2-.1-.4-.1-.6-.1-.3 0-.5.1-.8.3s-.4.4-.6.7c-.2.3-.3.6-.4.9-.1.3-.2.7-.3 1-.1.3-.1.7-.1 1v.8c.1.3.1.5.1.6zM128.3 39.9l-.4 1.9h-2l.4-1.9h2z"/></g></svg>