<svg xmlns="http://www.w3.org/2000/svg" viewBox="0 0 300 50"><path d="M15 9.4l2.1 6.1 2-6.1h2.8v8.9H20V12l-2.2 6.3h-1.5L14.1 12v6.3h-1.8V9.4H15zM23.3 13.8c0-.4.1-.8.3-1 .2-.3.4-.5.7-.7.3-.2.6-.3 1-.4.4-.1.7-.1 1.1-.1.3 0 .7 0 1 .1.3 0 .6.1.9.3s.5.3.7.6c.2.2.3.6.3.9v4.2c0 .3.1.5.2.6h-1.8c0-.1-.1-.2-.1-.3v-.3c-.3.3-.6.5-1 .6-.4.1-.8.2-1.2.2-.3 0-.6 0-.9-.1-.3-.1-.5-.2-.7-.3-.2-.2-.4-.4-.5-.6-.1-.2-.2-.5-.2-.9s.1-.7.2-.9c.1-.2.3-.4.5-.6s.4-.2.7-.3c.3-.1.5-.1.8-.2.3 0 .5-.1.8-.1.3 0 .5-.1.7-.1s.4-.1.5-.2.2-.2.2-.4 0-.3-.1-.5-.1-.2-.2-.3c-.1-.1-.2-.1-.4-.1h-.4c-.3 0-.6.1-.8.2-.2.1-.3.4-.4.8h-1.9zm4.1 1.3c-.1.1-.2.1-.3.2-.1 0-.2.1-.4.1s-.3 0-.4.1c-.1 0-.3 0-.4.1-.1 0-.3.1-.4.1-.1 0-.2.1-.3.2s-.2.1-.2.2c-.1.1-.1.2-.1.4s0 .3.1.4c.1.1.1.2.2.3s.2.1.4.1h.4c.3 0 .6-.1.8-.2.2-.1.3-.3.4-.4.1-.2.1-.3.2-.5v-1.1zM32.5 9.4v4.8l2.2-2.3h2.1l-2.4 2.4 2.7 4.1H35l-1.8-2.9-.7.7v2.2h-1.8v-9h1.8zM37.8 10.9V9.4h1.8v1.5h-1.8zm1.8 1v6.5h-1.8v-6.5h1.8zM42.6 11.9v.9c.2-.4.5-.6.9-.8.4-.2.7-.3 1.1-.3.5 0 .9.1 1.2.2.3.1.5.3.7.5.2.2.3.5.4.8.1.3.1.7.1 1.1v4h-1.8v-3.6c0-.5-.1-.9-.2-1.2s-.5-.4-.9-.4c-.5 0-.8.1-1.1.4s-.3.8-.3 1.4v3.4H41v-6.5h1.6zM54.5 18.8c-.1.3-.2.6-.5.9-.2.3-.6.5-1 .7-.4.2-1 .3-1.8.3-.3 0-.6 0-1-.1-.3-.1-.6-.2-.9-.4-.3-.2-.5-.4-.7-.6-.2-.3-.3-.6-.3-.9h1.8c.1.3.2.6.5.7s.5.2.8.2c.5 0 .9-.1 1.1-.5.2-.3.3-.7.3-1.1v-.9c-.2.3-.5.6-.8.8-.4.2-.7.2-1.1.2-.5 0-.9-.1-1.2-.3-.3-.2-.6-.4-.9-.7s-.4-.6-.5-1c-.1-.4-.2-.8-.2-1.3 0-.4.1-.8.2-1.2.1-.4.3-.7.5-1 .2-.3.5-.5.9-.7s.7-.3 1.2-.3c.4 0 .8.1 1.1.2s.6.4.8.8v-.9h1.7v6c.1.5 0 .8 0 1.1zM52 16.6c.2-.1.4-.2.5-.4l.3-.6c.1-.2.1-.4.1-.7 0-.3 0-.5-.1-.8 0-.2-.1-.4-.2-.6-.1-.2-.3-.3-.5-.4-.2-.1-.4-.2-.7-.2-.2 0-.5 0-.6.1-.2.1-.3.2-.5.4l-.3.6c-.1.2-.1.5-.1.7 0 .2 0 .5.1.7 0 .2.1.4.2.6.1.2.3.3.4.4.2.1.4.2.7.2.3.2.5.1.7 0zM61 16.7l.3.3c.1.1.3.2.4.2.2 0 .3.1.5.1h.4c.1 0 .3-.1.4-.1.1-.1.2-.1.3-.2.1-.1.1-.2.1-.4 0-.3-.2-.5-.5-.6-.4-.1-.8-.3-1.5-.4-.3-.1-.5-.1-.8-.2-.2-.1-.5-.2-.7-.3-.2-.1-.3-.3-.5-.5s-.2-.4-.2-.7c0-.4.1-.8.2-1s.4-.5.6-.6.6-.3.9-.3c.3-.1.7-.1 1-.1.3 0 .7 0 1 .1l.9.3c.3.2.5.4.6.6.2.3.3.6.3 1H63c0-.3-.2-.6-.4-.7-.2-.1-.5-.2-.8-.2h-.3c-.1 0-.2 0-.3.1-.1 0-.2.1-.2.2-.1.1-.1.2-.1.3 0 .2.1.3.2.4s.3.2.5.2.4.1.6.2c.2 0 .5.1.7.2.3.1.5.1.8.2.2.1.5.2.7.3s.3.3.5.5.2.5.2.8c0 .4-.1.8-.3 1.1s-.4.5-.7.7c-.3.2-.6.3-.9.4-.4.1-.7.1-1.1.1-.4 0-.7 0-1.1-.1-.4-.1-.7-.2-1-.4-.3-.2-.5-.4-.7-.7-.2-.3-.3-.6-.3-1.1h1.7c.2 0 .2.2.3.3zM70.6 18.3v-.9c-.2.4-.5.6-.9.8-.4.2-.7.2-1.1.2-.5 0-.9-.1-1.2-.2s-.5-.3-.7-.5c-.2-.2-.3-.5-.4-.8s-.1-.7-.1-1.1v-4H68v3.6c0 .5.1.9.2 1.2.2.3.5.4.9.4.5 0 .8-.1 1.1-.4.2-.3.3-.8.3-1.4v-3.4h1.8v6.5h-1.7zM75.3 11.9V13l.3-.6c.1-.2.3-.3.5-.4l.6-.3c.2-.1.4-.1.7-.1.1 0 .2 0 .4.1v1.7h-.6c-.3 0-.6.1-.8.2-.2.1-.4.3-.5.4-.1.2-.2.4-.3.7-.1.2-.1.5-.1.8v2.9h-1.8v-6.5h1.6zM80.1 16.8c.3.3.6.4 1.1.4.4 0 .7-.1.9-.3s.4-.4.5-.6h1.6c-.2.8-.6 1.3-1.1 1.7-.5.3-1.1.5-1.9.5-.5 0-1-.1-1.4-.2-.4-.2-.8-.4-1-.7-.3-.3-.5-.7-.7-1.1-.2-.4-.2-.9-.2-1.4 0-.5.1-.9.2-1.4.2-.4.4-.8.7-1.1s.6-.5 1-.7c.4-.2.9-.3 1.3-.3.5 0 1 .1 1.4.3.4.2.7.5 1 .9.3.4.5.8.6 1.2.1.5.2.9.1 1.4h-4.7c.2.7.4 1.1.6 1.4zm2-3.4c-.2-.2-.5-.3-1-.3-.3 0-.5 0-.7.1s-.3.2-.5.4c-.1.1-.2.3-.2.4 0 .2-.1.3-.1.4h2.9c0-.5-.1-.8-.4-1zM91.3 20.2c-.3.2-.8.3-1.4.3h-1V19c.2 0 .3 0 .5.1h.5c.2 0 .4-.1.5-.3.1-.2.2-.3.2-.5 0-.1 0-.3-.1-.4l-2.3-6.1H90l1.5 4.4 1.4-4.4h1.8L92 19.1c-.1.5-.4.9-.7 1.1zM95.4 13.7c.2-.4.4-.8.7-1.1.3-.3.6-.5 1-.7.4-.2.9-.2 1.4-.2s1 .1 1.4.2c.4.2.8.4 1.1.7.3.3.5.7.7 1.1.2.4.2.9.2 1.4 0 .5-.1 1-.2 1.4-.2.4-.4.8-.7 1.1-.3.3-.6.5-1.1.7s-.9.2-1.4.2-1-.1-1.4-.2-.8-.4-1-.7c-.3-.3-.5-.7-.7-1.1-.2-.4-.2-.9-.2-1.4 0-.5.1-1 .2-1.4zm1.6 2.1c0 .2.1.5.3.7.1.2.3.4.5.5s.5.2.8.2.6-.1.8-.2c.2-.1.4-.3.5-.5s.2-.4.3-.7c0-.2.1-.5.1-.8s0-.5-.1-.8-.1-.5-.3-.7l-.5-.5c-.2-.1-.5-.2-.8-.2s-.5.1-.8.2-.4.3-.5.5c-.1.2-.2.4-.3.7-.1.2-.1.5-.1.8s.1.6.1.8zM107.4 18.3v-.9c-.2.4-.5.6-.9.8-.4.2-.7.2-1.1.2-.5 0-.9-.1-1.2-.2s-.5-.3-.7-.5c-.2-.2-.3-.5-.4-.8s-.1-.7-.1-1.1v-4h1.8v3.6c0 .5.1.9.2 1.2.2.3.5.4.9.4.5 0 .8-.1 1.1-.4.2-.3.3-.8.3-1.4v-3.4h1.8v6.5h-1.7zM112.1 11.9V13l.3-.6c.1-.2.3-.3.5-.4l.6-.3c.2-.1.4-.1.7-.1.1 0 .2 0 .4.1v1.7h-.6c-.3 0-.6.1-.8.2-.2.1-.4.3-.5.4-.1.2-.2.4-.3.7-.1.2-.1.5-.1.8v2.9h-1.8v-6.5h1.6zM120.6 9.4v8.9h-1.8V9.4h1.8zM122 10.9V9.4h1.8v1.5H122zm1.8 1v6.5H122v-6.5h1.8zM124.5 13v-1.2h1.1v-.5c0-.6.2-1 .5-1.4.4-.4.9-.5 1.6-.5h1v1.3h-.6c-.2 0-.4.1-.5.2-.1.1-.2.3-.2.6v.4h1.2V13h-1.2v5.3h-1.8V13h-1.1zM131.3 16.8c.3.3.6.4 1.1.4.4 0 .7-.1.9-.3s.4-.4.5-.6h1.6c-.2.8-.6 1.3-1.1 1.7-.5.3-1.1.5-1.9.5-.5 0-1-.1-1.4-.2-.4-.2-.8-.4-1-.7-.3-.3-.5-.7-.7-1.1-.2-.4-.2-.9-.2-1.4 0-.5.1-.9.2-1.4.2-.4.4-.8.7-1.1s.6-.5 1-.7c.4-.2.9-.3 1.3-.3.5 0 1 .1 1.4.3.4.2.7.5 1 .9.3.4.5.8.6 1.2.1.5.2.9.1 1.4h-4.7c.2.7.3 1.1.6 1.4zm2-3.4c-.2-.2-.5-.3-1-.3-.3 0-.5 0-.7.1s-.3.2-.5.4c-.1.1-.2.3-.2.4 0 .2-.1.3-.1.4h2.9c-.1-.5-.2-.8-.4-1zM140.1 10.9V9.4h1.8v1.5h-1.8zm1.7 1v6.5H140v-6.5h1.8zM144.9 11.9v.9c.2-.4.5-.6.9-.8.4-.2.7-.3 1.1-.3.5 0 .9.1 1.2.2.3.1.5.3.7.5.2.2.3.5.4.8.1.3.1.7.1 1.1v4h-1.8v-3.6c0-.5-.1-.9-.2-1.2s-.5-.4-.9-.4c-.5 0-.8.1-1.1.4s-.3.8-.3 1.4v3.4h-1.8v-6.5h1.7zM152.2 16.7l.3.3c.1.1.3.2.4.2.2 0 .3.1.5.1h.4c.1 0 .3-.1.4-.1.1-.1.2-.1.3-.2.1-.1.1-.2.1-.4 0-.3-.2-.5-.5-.6-.4-.1-.8-.3-1.5-.4-.3-.1-.5-.1-.8-.2-.2-.1-.5-.2-.7-.3-.2-.1-.3-.3-.5-.5-.1-.2-.2-.4-.2-.7 0-.4.1-.8.2-1 .2-.3.4-.5.6-.6.3-.2.6-.3.9-.3s.7-.1 1-.1c.3 0 .7 0 1 .1l.9.3c.3.2.5.4.6.6.2.3.3.6.3 1h-1.7c0-.3-.2-.6-.4-.7-.2-.1-.5-.2-.8-.2h-.3c-.1 0-.2 0-.3.1-.1 0-.2.1-.2.2-.1.1-.1.2-.1.3 0 .2.1.3.2.4.1.1.3.2.5.2s.4.1.6.2c.2 0 .5.1.7.2.3.1.5.1.8.2.2.1.5.2.7.3.2.1.3.3.5.5.1.2.2.5.2.8 0 .4-.1.8-.3 1.1s-.4.5-.7.7c-.3.2-.6.3-.9.4-.4.1-.7.1-1.1.1-.4 0-.7 0-1.1-.1-.4-.1-.7-.2-1-.4-.3-.2-.5-.4-.7-.7-.2-.3-.3-.6-.3-1.1h1.7c.1 0 .2.2.3.3zM161.7 18.3v-.9c-.2.4-.5.6-.9.8s-.7.2-1.1.2c-.5 0-.9-.1-1.2-.2-.3-.1-.5-.3-.7-.5-.2-.2-.3-.5-.4-.8-.1-.3-.1-.7-.1-1.1v-4h1.8v3.6c0 .5.1.9.2 1.2.2.3.5.4.9.4.5 0 .8-.1 1-.4s.3-.8.3-1.4v-3.4h1.8v6.5h-1.6zM166.5 11.9V13l.3-.6c.1-.2.3-.3.5-.4l.6-.3c.2-.1.4-.1.7-.1.1 0 .2 0 .4.1v1.7h-.6c-.3 0-.6.1-.8.2-.2.1-.4.3-.5.4s-.2.4-.3.7c-.1.2-.1.5-.1.8v2.9h-1.8v-6.5h1.6zM169.6 13.8c0-.4.1-.8.3-1 .2-.3.4-.5.7-.7.3-.2.6-.3 1-.4.4-.1.7-.1 1.1-.1.3 0 .7 0 1 .1.3 0 .6.1.9.3.3.1.5.3.7.6.2.2.3.6.3.9v3.4c0 .3 0 .6.1.8 0 .3.1.5.2.6h-1.8c0-.1-.1-.2-.1-.3v-.3c-.3.3-.6.5-1 .6-.4.1-.8.2-1.2.2-.3 0-.6 0-.9-.1-.3-.1-.5-.2-.7-.3-.2-.2-.4-.4-.5-.6-.1-.2-.2-.5-.2-.9s.1-.7.2-.9c.1-.2.3-.4.5-.6s.4-.2.7-.3.5-.1.8-.2c.3 0 .5-.1.8-.1.3 0 .5-.1.7-.1s.4-.1.5-.2c.1-.1.2-.2.2-.4s0-.3-.1-.5-.1-.2-.2-.3c-.1-.1-.2-.1-.4-.1h-.4c-.3 0-.6.1-.8.2-.2.1-.3.4-.3.8h-2.1zm4.1 1.3c-.1.1-.2.1-.3.2s-.2.1-.4.1c-.1 0-.3 0-.4.1-.1 0-.3 0-.4.1-.1 0-.3.1-.4.1-.1 0-.2.1-.3.2-.1.1-.2.2-.2.3-.1.1-.1.2-.1.4s0 .3.1.4c.1.1.1.2.2.3s.2.1.3.1h.4c.3 0 .6-.1.8-.2.2-.1.3-.3.4-.4.1-.2.1-.3.2-.5V15.1zM178.5 11.9v.9c.2-.4.5-.6.9-.8.4-.2.7-.3 1.1-.3.5 0 .9.1 1.2.2.3.1.5.3.7.5.2.2.3.5.4.8.1.3.1.7.1 1.1v4h-1.8v-3.6c0-.5-.1-.9-.2-1.2-.2-.3-.5-.4-.9-.4-.5 0-.8.1-1 .4-.2.3-.3.8-.3 1.4v3.4h-1.8v-6.5h1.6zM187.3 13c-.3 0-.5.1-.7.2-.2.1-.3.3-.5.5-.1.2-.2.4-.3.7s-.1.5-.1.7c0 .2 0 .5.1.7s.1.5.2.7c.1.2.3.4.5.5.2.1.4.2.7.2.4 0 .8-.1 1-.4.2-.2.4-.6.4-1h1.7c-.1.9-.4 1.5-1 2-.5.5-1.3.7-2.1.7-.5 0-.9-.1-1.3-.2-.4-.2-.7-.4-1-.7-.3-.3-.5-.6-.7-1-.2-.4-.2-.8-.2-1.3s.1-1 .2-1.4c.1-.4.4-.8.6-1.1.3-.3.6-.6 1-.7s.9-.3 1.4-.3c.4 0 .8.1 1.1.2.4.1.7.3 1 .5s.5.5.7.8.3.7.3 1.1h-1.7c-.1-1-.5-1.4-1.3-1.4zM193.3 16.8c.3.3.6.4 1.1.4.4 0 .7-.1.9-.3.3-.2.4-.4.5-.6h1.6c-.2.8-.6 1.3-1.2 1.7s-1.1.5-1.9.5c-.5 0-1-.1-1.4-.2-.4-.2-.8-.4-1-.7-.3-.3-.5-.7-.7-1.1-.2-.4-.2-.9-.2-1.4 0-.5.1-.9.2-1.4.2-.4.4-.8.7-1.1.3-.3.6-.5 1-.7s.9-.3 1.3-.3c.6 0 1 .1 1.4.3s.7.5 1 .9.5.8.6 1.2c.1.5.2.9.1 1.4h-4.7c.3.7.4 1.1.7 1.4zm2-3.4c-.2-.2-.5-.3-1-.3-.3 0-.5 0-.7.1s-.3.2-.5.4-.1.2-.1.4-.1.3-.1.4h2.9c-.1-.5-.3-.8-.5-1zM202.1 10.9V9.4h1.8v1.5h-1.8zm1.8 1v6.5h-1.8v-6.5h1.8zM206.8 16.7l.3.3c.1.1.3.2.4.2.2 0 .3.1.5.1h.4c.1 0 .3-.1.4-.1.1-.1.2-.1.3-.2.1-.1.1-.2.1-.4 0-.3-.2-.5-.5-.6-.4-.1-.8-.3-1.5-.4-.3-.1-.5-.1-.8-.2-.2-.1-.5-.2-.7-.3-.2-.1-.3-.3-.5-.5-.1-.2-.2-.4-.2-.7 0-.4.1-.8.2-1 .2-.3.4-.5.6-.6.3-.2.6-.3.9-.3s.7-.1 1-.1c.3 0 .7 0 1 .1l.9.3c.3.2.5.4.6.6.2.3.3.6.3 1h-1.7c0-.3-.2-.6-.4-.7-.2-.1-.5-.2-.8-.2h-.3c-.1 0-.2 0-.3.1-.1 0-.2.1-.2.2-.1.1-.1.2-.1.3 0 .2.1.3.2.4.1.1.3.2.5.2s.4.1.6.2c.2 0 .5.1.7.2.3.1.5.1.8.2.2.1.5.2.7.3.2.1.3.3.5.5.1.2.2.5.2.8 0 .4-.1.8-.3 1.1s-.4.5-.7.7c-.3.2-.6.3-.9.4-.4.1-.7.1-1.1.1-.4 0-.7 0-1.1-.1-.4-.1-.7-.2-1-.4-.3-.2-.5-.4-.7-.7-.2-.3-.3-.6-.3-1.1h1.7c.2 0 .2.2.3.3zM217 16.7l.3.3c.1.1.3.2.4.2.2 0 .3.1.5.1h.4c.1 0 .3-.1.4-.1.1-.1.2-.1.3-.2.1-.1.1-.2.1-.4 0-.3-.2-.5-.5-.6-.4-.1-.8-.3-1.5-.4-.3-.1-.5-.1-.8-.2-.2-.1-.5-.2-.7-.3-.2-.1-.3-.3-.5-.5-.1-.2-.2-.4-.2-.7 0-.4.1-.8.2-1 .2-.3.4-.5.6-.6.3-.2.6-.3.9-.3s.7-.1 1-.1c.3 0 .7 0 1 .1l.9.3c.3.2.5.4.6.6.2.3.3.6.3 1H219c0-.3-.2-.6-.4-.7-.2-.1-.5-.2-.8-.2h-.3c-.1 0-.2 0-.3.1-.1 0-.2.1-.2.2-.1.1-.1.2-.1.3 0 .2.1.3.2.4.1.1.3.2.5.2s.4.1.6.2c.2 0 .5.1.7.2.3.1.5.1.8.2.2.1.5.2.7.3.2.1.3.3.5.5.1.2.2.5.2.8 0 .4-.1.8-.3 1.1s-.4.5-.7.7c-.3.2-.6.3-.9.4-.4.1-.7.1-1.1.1-.4 0-.7 0-1.1-.1-.4-.1-.7-.2-1-.4-.3-.2-.5-.4-.7-.7-.2-.3-.3-.6-.3-1.1h1.7c.1 0 .2.2.3.3zM225.7 11.9V13h-1.3v3.2c0 .3 0 .5.2.6.1.1.3.1.6.1h.6v1.4h-1c-.3 0-.5 0-.8-.1s-.5-.1-.7-.2-.3-.3-.4-.5c-.1-.2-.2-.5-.2-.8V13h-1.1v-1.2h1.1V9.9h1.8v1.9h1.2zM226.6 10.9V9.4h1.8v1.5h-1.8zm1.8 1v6.5h-1.8v-6.5h1.8zM231.6 9.4v8.9h-1.8V9.4h1.8zM234.9 9.4v8.9h-1.8V9.4h1.8zM239.8 10.9V9.4h1.8v1.5h-1.8zm1.8 1v6.5h-1.8v-6.5h1.8zM244.6 11.9v.9c.2-.4.5-.6.9-.8.4-.2.7-.3 1.1-.3.5 0 .9.1 1.2.2.3.1.5.3.7.5.2.2.3.5.4.8.1.3.1.7.1 1.1v4h-1.8v-3.6c0-.5-.1-.9-.2-1.2-.2-.3-.5-.4-.9-.4-.5 0-.8.1-1 .4-.2.3-.3.8-.3 1.4v3.4H243v-6.5h1.6z"/><g><path d="M13.5 29.2l.3.3c.1.1.3.2.4.2.2 0 .3.1.5.1h.4c.1 0 .3-.1.4-.1.1-.1.2-.1.3-.2.1-.1.1-.2.1-.4 0-.3-.2-.5-.5-.6-.4-.1-.8-.3-1.5-.4-.3-.1-.5-.1-.8-.2s-.5-.2-.7-.3c-.2-.1-.3-.3-.5-.5s-.2-.4-.2-.7c0-.4.1-.8.2-1s.4-.5.6-.6.6-.3.9-.3c.3-.1.7-.1 1-.1.3 0 .7 0 1 .1l.9.3c.3.2.5.4.6.6.2.3.3.6.3 1h-1.7c0-.3-.2-.6-.4-.7-.2-.1-.5-.2-.8-.2H14c-.1 0-.2 0-.3.1-.1 0-.2.1-.2.2-.1.1-.1.2-.1.3 0 .2.1.3.2.4.1.1.3.2.5.2s.4.1.6.2.5.1.7.2c.3.1.5.1.8.2s.5.2.7.3.3.3.5.5.2.5.2.8c0 .4-.1.8-.3 1.1-.2.3-.4.5-.7.7-.3.2-.6.3-.9.4-.4.1-.7.1-1.1.1-.4 0-.7 0-1.1-.1s-.7-.2-1-.4-.5-.4-.7-.7c-.2-.3-.3-.6-.3-1.1h1.7c.2 0 .3.2.3.3zM21.1 32.7c-.3.2-.8.3-1.4.3h-1v-1.5h1c.2 0 .4-.1.5-.3.1-.2.2-.3.2-.5 0-.1 0-.3-.1-.4L18 24.4h1.9l1.5 4.4 1.4-4.4h1.8l-2.7 7.3c-.2.4-.4.8-.8 1zM26.9 24.4v.9c.2-.4.5-.6.9-.8.4-.2.7-.3 1.1-.3.5 0 .9.1 1.2.2.3.1.5.3.7.5.2.2.3.5.4.8.1.3.1.7.1 1.1v4h-1.8v-3.7c0-.5-.1-.9-.2-1.2s-.5-.4-.9-.4c-.5 0-.8.1-1.1.4-.2.3-.3.8-.3 1.4v3.4h-1.8v-6.5h1.7zM35.7 25.5c-.3 0-.5.1-.7.2-.2.1-.3.3-.5.5-.1.2-.2.4-.3.7-.1.2-.1.5-.1.7 0 .2 0 .5.1.7 0 .2.1.5.2.7.1.2.3.4.5.5s.4.2.7.2c.4 0 .8-.1 1-.4.2-.2.4-.6.4-1h1.7c-.1.9-.5 1.5-1 2-.6.5-1.3.7-2.1.7-.5 0-.9-.1-1.3-.2-.4-.2-.7-.4-1-.7-.3-.3-.5-.6-.7-1s-.2-.8-.2-1.3.1-1 .2-1.4c.1-.4.4-.8.6-1.1s.6-.6 1-.7.9-.3 1.4-.3c.4 0 .8.1 1.1.2.4.1.7.3.9.5s.5.5.7.8c.2.3.3.7.3 1.1h-1.7c0-1-.4-1.4-1.2-1.4zM48.9 30.8l-1.1-4.3-1.1 4.3h-1.8l-2-6.5h1.9l1.2 4.4 1.1-4.4h1.7l1.1 4.4 1.2-4.4h1.8l-2 6.5h-2zM53.5 23.4v-1.5h1.8v1.5h-1.8zm1.8 1v6.5h-1.8v-6.5h1.8zM60.3 24.4v1.2H59v3.2c0 .3.1.5.2.6.1.1.3.1.6.1h.6v1.4h-1c-.3 0-.5 0-.8-.1-.2 0-.5-.1-.6-.2-.2-.1-.3-.3-.4-.5s-.2-.5-.2-.8v-3.8h-1.1v-1.2h1.1v-1.9H59v1.9h1.3zM62.9 21.9v3.4c.2-.4.5-.6.9-.8.4-.2.7-.3 1-.3.5 0 .9.1 1.2.2.3.1.5.3.7.5.2.2.3.5.4.8.1.3.1.7.1 1.1v4h-1.8v-3.7c0-.5-.1-.9-.2-1.2s-.5-.4-.9-.4c-.5 0-.8.1-1.1.4-.2.3-.3.8-.3 1.4v3.4h-1.8v-8.9h1.8zM74.4 32.7c-.4.3-.8.4-1.4.4h-1v-1.5h1c.2 0 .4-.1.5-.3.1-.2.2-.3.2-.5 0-.1 0-.3-.1-.4l-2.3-6.1h1.9l1.5 4.4 1.4-4.4h1.8l-2.7 7.3c-.2.5-.5.9-.8 1.1zM78.5 26.2c.2-.4.4-.8.7-1.1.3-.3.6-.5 1-.7.4-.2.9-.2 1.4-.2s1 .1 1.4.2c.4.2.8.4 1.1.7.3.3.5.7.7 1.1.2.4.2.9.2 1.4 0 .5-.1 1-.2 1.4s-.4.8-.7 1.1c-.3.3-.6.5-1.1.7s-.9.2-1.4.2-1-.1-1.4-.2-.8-.4-1-.7c-.3-.3-.5-.7-.7-1.1s-.2-.9-.2-1.4c0-.5.1-1 .2-1.4zm1.6 2.1c0 .2.1.5.3.7.1.2.3.4.5.5.2.1.5.2.8.2s.6-.1.8-.2c.2-.1.4-.3.5-.5.1-.2.2-.4.3-.7s.1-.5.1-.8c0-.3 0-.5-.1-.8s-.1-.5-.3-.7c-.1-.2-.3-.3-.5-.5-.2-.1-.5-.2-.8-.2s-.5.1-.8.2-.4.3-.5.5c-.1.2-.2.4-.3.7-.1.2-.1.5-.1.8 0 .3.1.6.1.8zM90.5 30.8v-.9c-.2.4-.5.6-.9.8-.4.2-.7.2-1.1.2-.5 0-.9-.1-1.2-.2s-.5-.3-.7-.5c-.2-.2-.3-.5-.4-.8s-.1-.7-.1-1.1v-4h1.8V28c0 .5.1.9.2 1.2.2.3.5.4.9.4.5 0 .8-.1 1.1-.4.2-.3.3-.8.3-1.4v-3.4h1.8v6.5h-1.7zM95.2 24.4v1.2l.3-.6c.1-.2.3-.3.5-.4l.6-.3c.2-.1.4-.1.7-.1.1 0 .2 0 .4.1V26h-.6c-.3 0-.6.1-.8.2-.2.1-.4.3-.5.4-.1.2-.2.4-.3.7-.1.2-.1.5-.1.8V31h-1.8v-6.5h1.6zM108 31.3c-.1.3-.2.6-.5.9-.2.3-.6.5-1 .7-.4.2-1 .3-1.8.3-.3 0-.6 0-1-.1-.3-.1-.6-.2-.9-.4-.3-.2-.5-.4-.7-.6-.2-.3-.3-.6-.3-.9h1.8c.1.3.2.6.5.7.2.1.5.2.8.2.5 0 .9-.2 1.1-.5s.3-.7.3-1.1v-.8c-.2.3-.5.6-.8.8-.4.2-.7.2-1.1.2-.5 0-.9-.1-1.2-.3-.3-.2-.6-.4-.9-.7s-.4-.6-.5-1c-.1-.4-.2-.8-.2-1.3 0-.4.1-.8.2-1.2.1-.4.3-.7.5-1 .2-.3.5-.5.9-.7s.7-.3 1.2-.3c.4 0 .8.1 1.1.2s.6.4.8.8v-.9h1.7v6.1c.1.3 0 .6 0 .9zm-2.5-2.2c.2-.1.4-.2.5-.4l.3-.6c.1-.2.1-.4.1-.7 0-.3 0-.5-.1-.8 0-.2-.1-.4-.2-.6-.1-.2-.3-.3-.5-.4-.2-.1-.4-.2-.7-.2-.2 0-.5 0-.6.1-.2.1-.3.2-.5.4l-.3.6c-.1.2-.1.5-.1.7 0 .2 0 .5.1.7 0 .2.1.4.2.6.1.2.3.3.4.5.2.1.4.2.7.2.3.1.5 0 .7-.1zM109.5 26.2c.2-.4.4-.8.7-1.1.3-.3.6-.5 1-.7.4-.2.9-.2 1.4-.2s1 .1 1.4.2c.4.2.8.4 1.1.7.3.3.5.7.7 1.1.2.4.2.9.2 1.4 0 .5-.1 1-.2 1.4s-.4.8-.7 1.1c-.3.3-.6.5-1.1.7s-.9.2-1.4.2-1-.1-1.4-.2-.8-.4-1-.7c-.3-.3-.5-.7-.7-1.1s-.2-.9-.2-1.4c0-.5.1-1 .2-1.4zm1.6 2.1c0 .2.1.5.3.7.1.2.3.4.5.5.2.1.5.2.8.2s.6-.1.8-.2c.2-.1.4-.3.5-.5.1-.2.2-.4.3-.7s.1-.5.1-.8c0-.3 0-.5-.1-.8s-.1-.5-.3-.7c-.1-.2-.3-.3-.5-.5-.2-.1-.5-.2-.8-.2s-.5.1-.8.2-.4.3-.5.5c-.1.2-.2.4-.3.7-.1.2-.1.5-.1.8.1.3.1.6.1.8zM117.1 26.3c0-.4.1-.8.3-1 .2-.3.4-.5.7-.7.3-.2.6-.3 1-.4.4-.1.7-.1 1.1-.1.3 0 .7 0 1 .1.3 0 .6.1.9.3s.5.3.7.6c.2.2.3.6.3.9v4.2c0 .2.1.5.2.6h-1.8c0-.1-.1-.2-.1-.3v-.3c-.3.3-.6.5-1 .6-.4.1-.8.2-1.2.2-.3 0-.6 0-.9-.1s-.5-.2-.7-.3c-.2-.2-.4-.4-.5-.6-.1-.2-.2-.5-.2-.9s.1-.7.2-.9c.1-.2.3-.4.5-.6s.4-.2.7-.3c.3-.1.5-.1.8-.2.3 0 .5-.1.8-.1.3 0 .5-.1.7-.1s.4-.1.5-.2.2-.2.2-.4 0-.3-.1-.5-.1-.2-.2-.3c-.1-.1-.2-.1-.4-.1h-.4c-.3 0-.6.1-.8.2-.2.1-.3.4-.4.8h-1.9zm4.1 1.4c-.1.1-.2.1-.3.2-.1 0-.2.1-.4.1-.1 0-.3 0-.4.1-.1 0-.3 0-.4.1-.1 0-.3.1-.4.1-.1 0-.2.1-.3.2s-.2.2-.2.3c-.1.1-.1.2-.1.4s0 .3.1.4c.1.1.1.2.2.3s.2.1.4.1h.4c.3 0 .6-.1.8-.2.2-.1.3-.3.4-.4.1-.2.1-.3.2-.5V27.7zM126.1 21.9v8.9h-1.8v-8.9h1.8zM129 29.2l.3.3c.1.1.3.2.4.2.2 0 .3.1.5.1h.4c.1 0 .3-.1.4-.1.1-.1.2-.1.3-.2.1-.1.1-.2.1-.4 0-.3-.2-.5-.5-.6-.4-.1-.8-.3-1.5-.4-.3-.1-.5-.1-.8-.2s-.5-.2-.7-.3c-.2-.1-.3-.3-.5-.5s-.2-.4-.2-.7c0-.4.1-.8.2-1s.4-.5.6-.6.6-.3.9-.3c.3-.1.7-.1 1-.1.3 0 .7 0 1 .1l.9.3c.3.2.5.4.6.6.2.3.3.6.3 1H131c0-.3-.2-.6-.4-.7-.2-.1-.5-.2-.8-.2h-.3c-.1 0-.2 0-.3.1-.1 0-.2.1-.2.2-.1.1-.1.2-.1.3 0 .2.1.3.2.4.1.1.3.2.5.2s.4.1.6.2.5.1.7.2c.3.1.5.1.8.2s.5.2.7.3.3.3.5.5.2.5.2.8c0 .4-.1.8-.3 1.1-.2.3-.4.5-.7.7-.3.2-.6.3-.9.4-.4.1-.7.1-1.1.1-.4 0-.7 0-1.1-.1s-.7-.2-1-.4-.5-.4-.7-.7c-.2-.3-.3-.6-.3-1.1h1.7c.2 0 .3.2.3.3zM137.8 23.4v-1.5h1.8v1.5h-1.8zm1.7 1v6.5h-1.8v-6.5h1.8zM142.4 29.2l.3.3c.1.1.3.2.4.2.2 0 .3.1.5.1h.4c.1 0 .3-.1.4-.1.1-.1.2-.1.3-.2.1-.1.1-.2.1-.4 0-.3-.2-.5-.5-.6-.4-.1-.8-.3-1.5-.4-.3-.1-.5-.1-.8-.2s-.5-.2-.7-.3c-.2-.1-.3-.3-.5-.5s-.2-.4-.2-.7c0-.4.1-.8.2-1s.4-.5.6-.6.6-.3.9-.3c.3-.1.7-.1 1-.1.3 0 .7 0 1 .1l.9.3c.3.2.5.4.6.6.2.3.3.6.3 1h-1.7c0-.3-.2-.6-.4-.7-.2-.1-.5-.2-.8-.2h-.3c-.1 0-.2 0-.3.1-.1 0-.2.1-.2.2-.1.1-.1.2-.1.3 0 .2.1.3.2.4.1.1.3.2.5.2s.4.1.6.2.5.1.7.2c.3.1.5.1.8.2s.5.2.7.3.3.3.5.5.2.5.2.8c0 .4-.1.8-.3 1.1-.2.3-.4.5-.7.7-.3.2-.6.3-.9.4-.4.1-.7.1-1.1.1-.4 0-.7 0-1.1-.1s-.7-.2-1-.4-.5-.4-.7-.7c-.2-.3-.3-.6-.3-1.1h1.7c.2 0 .3.2.3.3zM151.1 26.3c0-.4.1-.8.3-1 .2-.3.4-.5.7-.7.3-.2.6-.3 1-.4.4-.1.7-.1 1.1-.1.3 0 .7 0 1 .1.3 0 .6.1.9.3.3.1.5.3.7.6.2.2.3.6.3.9v3.4c0 .3 0 .6.1.8 0 .3.1.5.2.6h-1.8c0-.1-.1-.2-.1-.3v-.3c-.3.3-.6.5-1 .6-.4.1-.8.2-1.2.2-.3 0-.6 0-.9-.1s-.5-.2-.7-.3c-.2-.2-.4-.4-.5-.6-.1-.2-.2-.5-.2-.9s.1-.7.2-.9c.1-.2.3-.4.5-.6s.4-.2.7-.3c.3-.1.5-.1.8-.2.3 0 .5-.1.8-.1.3 0 .5-.1.7-.1s.4-.1.5-.2c.1-.1.2-.2.2-.4s0-.3-.1-.5-.1-.2-.2-.3c-.1-.1-.2-.1-.4-.1h-.4c-.3 0-.6.1-.8.2-.2.1-.3.4-.3.8h-2.1zm4.1 1.4c-.1.1-.2.1-.3.2-.1 0-.2.1-.4.1-.1 0-.3 0-.4.1-.1 0-.3 0-.4.1-.1 0-.3.1-.4.1-.1 0-.2.1-.3.2-.1.1-.2.2-.2.3-.1.1-.1.2-.1.4s0 .3.1.4c.1.1.1.2.2.3s.2.1.3.1h.4c.3 0 .6-.1.8-.2.2-.1.3-.3.4-.4.1-.2.1-.3.2-.5V27.7zM167.9 31.3c-.1.3-.2.6-.5.9s-.6.5-1 .7-1 .3-1.8.3c-.3 0-.6 0-1-.1s-.6-.2-.9-.4c-.3-.2-.5-.4-.7-.6-.2-.3-.3-.6-.3-.9h1.8c.1.3.2.6.5.7.2.1.5.2.8.2.5 0 .9-.2 1.1-.5.2-.3.3-.7.3-1.1v-.8c-.2.3-.5.6-.8.8-.4.2-.7.2-1.1.2-.5 0-.9-.1-1.2-.3-.3-.2-.6-.4-.9-.7s-.4-.6-.5-1c-.1-.4-.2-.8-.2-1.3 0-.4.1-.8.2-1.2s.3-.7.5-1c.2-.3.5-.5.9-.7.3-.2.7-.3 1.2-.3.4 0 .8.1 1.1.2.3.2.6.4.8.8v-.9h1.7v6.1c.1.3.1.6 0 .9zm-2.4-2.2c.2-.1.4-.2.5-.4l.3-.6c.1-.2.1-.4.1-.7 0-.3 0-.5-.1-.8 0-.2-.1-.4-.2-.6-.1-.2-.3-.3-.5-.4-.2-.1-.4-.2-.7-.2-.2 0-.5 0-.6.1-.2.1-.3.2-.5.4l-.3.6c-.1.2-.1.5-.1.7 0 .2 0 .5.1.7s.1.4.2.6c.1.2.3.3.4.5.2.1.4.2.7.2.2.1.5 0 .7-.1zM169.5 26.2c.2-.4.4-.8.7-1.1.3-.3.6-.5 1-.7.4-.2.9-.2 1.4-.2.5 0 1 .1 1.4.2.4.2.8.4 1.1.7s.5.7.7 1.1c.2.4.2.9.2 1.4 0 .5-.1 1-.2 1.4s-.4.8-.7 1.1-.6.5-1.1.7c-.4.2-.9.2-1.4.2-.5 0-1-.1-1.4-.2s-.8-.4-1-.7c-.3-.3-.5-.7-.7-1.1-.2-.4-.2-.9-.2-1.4-.1-.5 0-1 .2-1.4zm1.6 2.1c0 .2.1.5.3.7.1.2.3.4.5.5.2.1.5.2.8.2s.6-.1.8-.2c.2-.1.4-.3.5-.5.1-.2.2-.4.3-.7s.1-.5.1-.8c0-.3 0-.5-.1-.8s-.1-.5-.3-.7c-.1-.2-.3-.3-.5-.5s-.5-.2-.8-.2-.5.1-.8.2-.4.3-.5.5c-.1.2-.2.4-.3.7s-.1.5-.1.8c0 .3 0 .6.1.8zM177.1 26.2c.2-.4.4-.8.7-1.1.3-.3.6-.5 1-.7.4-.2.9-.2 1.4-.2.5 0 1 .1 1.4.2.4.2.8.4 1.1.7s.5.7.7 1.1c.2.4.2.9.2 1.4 0 .5-.1 1-.2 1.4s-.4.8-.7 1.1-.6.5-1.1.7c-.4.2-.9.2-1.4.2-.5 0-1-.1-1.4-.2s-.8-.4-1-.7c-.3-.3-.5-.7-.7-1.1-.2-.4-.2-.9-.2-1.4 0-.5 0-1 .2-1.4zm1.6 2.1c0 .2.1.5.3.7.1.2.3.4.5.5.2.1.5.2.8.2s.6-.1.8-.2c.2-.1.4-.3.5-.5.1-.2.2-.4.3-.7s.1-.5.1-.8c0-.3 0-.5-.1-.8s-.1-.5-.3-.7c-.1-.2-.3-.3-.5-.5s-.5-.2-.8-.2-.5.1-.8.2-.4.3-.5.5c-.1.2-.2.4-.3.7s-.1.5-.1.8c0 .3.1.6.1.8zM189.3 30c-.2.4-.5.6-.8.8-.3.2-.7.2-1.1.2-.5 0-.9-.1-1.3-.3-.4-.2-.7-.4-.9-.8-.2-.3-.4-.7-.5-1.1s-.2-.9-.2-1.3.1-.9.2-1.3.3-.8.5-1.1c.2-.3.5-.6.9-.7s.8-.3 1.2-.3c.4 0 .7.1 1.1.2.3.2.6.4.8.7v-3.2h1.8v8.9h-1.7V30zm-.1-3.2c0-.2-.1-.5-.3-.7-.1-.2-.3-.3-.5-.5-.2-.1-.4-.2-.7-.2s-.5.1-.7.2-.4.3-.5.5c-.1.2-.2.4-.3.7-.1.2-.1.5-.1.8 0 .2 0 .5.1.8.1.2.2.5.3.7.1.2.3.4.5.5.2.1.4.2.7.2.3 0 .5-.1.7-.2.2-.1.4-.3.5-.5.1-.2.2-.4.2-.7s.1-.5.1-.8.1-.6 0-.8zM197.5 24.4v.8c.2-.3.5-.6.8-.8.3-.2.7-.2 1.1-.2.5 0 .9.1 1.3.3.4.2.7.4.9.8.2.3.4.7.5 1.1.1.4.2.9.2 1.3s-.1.8-.2 1.2c-.1.4-.3.8-.5 1.1-.2.3-.5.6-.9.7-.4.2-.8.3-1.2.3-.4 0-.8-.1-1.1-.2-.3-.2-.6-.4-.8-.7v3.1h-1.8v-8.7h1.7zm2.3 5.1c.2-.1.4-.3.5-.5s.2-.4.3-.7c0-.2.1-.5.1-.8 0-.3 0-.5-.1-.8-.1-.2-.1-.5-.3-.7-.1-.2-.3-.4-.5-.5-.2-.1-.4-.2-.7-.2-.3 0-.5.1-.7.2-.2.1-.4.3-.5.5-.1.2-.2.4-.3.7-.1.2-.1.5-.1.8 0 .3 0 .5.1.8.1.2.1.5.3.7.1.2.3.3.5.5.2.1.4.2.7.2.3 0 .5-.1.7-.2zM205.3 21.9v8.9h-1.8v-8.9h1.8zM206.6 26.3c0-.4.1-.8.3-1 .2-.3.4-.5.7-.7.3-.2.6-.3 1-.4.4-.1.7-.1 1.1-.1.3 0 .7 0 1 .1.3 0 .6.1.9.3.3.1.5.3.7.6.2.2.3.6.3.9v3.4c0 .3 0 .6.1.8 0 .3.1.5.2.6h-1.8c0-.1-.1-.2-.1-.3v-.3c-.3.3-.6.5-1 .6-.4.1-.8.2-1.2.2-.3 0-.6 0-.9-.1s-.5-.2-.7-.3c-.2-.2-.4-.4-.5-.6-.1-.2-.2-.5-.2-.9s.1-.7.2-.9.3-.4.5-.6.4-.2.7-.3c.3-.1.5-.1.8-.2.3 0 .5-.1.8-.1.3 0 .5-.1.7-.1s.4-.1.5-.2c.1-.1.2-.2.2-.4s0-.3-.1-.5-.1-.2-.2-.3c-.1-.1-.2-.1-.4-.1h-.4c-.3 0-.6.1-.8.2-.2.1-.3.4-.3.8h-2.1zm4.1 1.4c-.1.1-.2.1-.3.2-.1 0-.2.1-.4.1-.1 0-.3 0-.4.1-.1 0-.3 0-.4.1-.1 0-.3.1-.4.1-.1 0-.2.1-.3.2-.1.1-.2.2-.2.3-.1.1-.1.2-.1.4s0 .3.1.4c.1.1.1.2.2.3s.2.1.3.1h.4c.3 0 .6-.1.8-.2.2-.1.3-.3.4-.4.1-.2.1-.3.2-.5V27.7zM215.5 24.4v.9c.2-.4.5-.6.9-.8.4-.2.7-.3 1.1-.3.5 0 .9.1 1.2.2.3.1.5.3.7.5.2.2.3.5.4.8.1.3.1.7.1 1.1v4h-1.8v-3.7c0-.5-.1-.9-.2-1.2-.2-.3-.5-.4-.9-.4-.5 0-.8.1-1 .4-.2.3-.3.8-.3 1.4v3.4h-1.8v-6.5h1.6zM223.3 28.9v1.9c0 .3-.1.5-.2.8-.1.2-.2.4-.4.6-.2.2-.4.3-.6.4s-.5.2-.8.2V32c.1 0 .2-.1.4-.1l.3-.3c.1-.1.1-.2.2-.4s.1-.3 0-.4h-.9v-1.9h2zM231.8 24.4v1.2h-1.3v3.2c0 .3 0 .5.2.6.1.1.3.1.6.1h.6v1.4h-1c-.3 0-.5 0-.8-.1-.2 0-.5-.1-.7-.2-.2-.1-.3-.3-.4-.5s-.2-.5-.2-.8v-3.8h-1.1v-1.2h1.1v-1.9h1.8v1.9h1.2zM232.6 26.2c.2-.4.4-.8.7-1.1.3-.3.6-.5 1-.7.4-.2.9-.2 1.4-.2.5 0 1 .1 1.4.2.4.2.8.4 1.1.7s.5.7.7 1.1c.2.4.2.9.2 1.4 0 .5-.1 1-.2 1.4s-.4.8-.7 1.1-.6.5-1.1.7c-.4.2-.9.2-1.4.2-.5 0-1-.1-1.4-.2s-.8-.4-1-.7c-.3-.3-.5-.7-.7-1.1-.2-.4-.2-.9-.2-1.4 0-.5.1-1 .2-1.4zm1.7 2.1c0 .2.1.5.3.7.1.2.3.4.5.5.2.1.5.2.8.2s.6-.1.8-.2c.2-.1.4-.3.5-.5.1-.2.2-.4.3-.7s.1-.5.1-.8c0-.3 0-.5-.1-.8s-.1-.5-.3-.7c-.1-.2-.3-.3-.5-.5s-.5-.2-.8-.2-.5.1-.8.2-.4.3-.5.5c-.1.2-.2.4-.3.7s-.1.5-.1.8c0 .3 0 .6.1.8zM240.3 26.2c.2-.4.4-.8.7-1.1.3-.3.6-.5 1-.7.4-.2.9-.2 1.4-.2.5 0 1 .1 1.4.2.4.2.8.4 1.1.7s.5.7.7 1.1c.2.4.2.9.2 1.4 0 .5-.1 1-.2 1.4s-.4.8-.7 1.1-.6.5-1.1.7c-.4.2-.9.2-1.4.2-.5 0-1-.1-1.4-.2s-.8-.4-1-.7c-.3-.3-.5-.7-.7-1.1-.2-.4-.2-.9-.2-1.4-.1-.5 0-1 .2-1.4zm1.6 2.1c0 .2.1.5.3.7.1.2.3.4.5.5.2.1.5.2.8.2s.6-.1.8-.2c.2-.1.4-.3.5-.5.1-.2.2-.4.3-.7s.1-.5.1-.8c0-.3 0-.5-.1-.8s-.1-.5-.3-.7c-.1-.2-.3-.3-.5-.5s-.5-.2-.8-.2-.5.1-.8.2-.4.3-.5.5c-.1.2-.2.4-.3.7s-.1.5-.1.8c0 .3 0 .6.1.8zM249.9 28.9v1.9h-2v-1.9h2z"/></g></svg>