<svg id="Layer_1" xmlns="http://www.w3.org/2000/svg" xmlns:xlink="http://www.w3.org/1999/xlink" viewBox="0 0 300 50"><style>.st0{clip-path:url(#SVGID_00000165916968860349514900000004073446449898371456_);fill:#349946}.st1{fill:#fff}</style><defs><path id="SVGID_1_" d="M202.2 5.8h68.6v14.5h-68.6z"/></defs><clipPath id="SVGID_00000110451486843400139930000010488624703374407352_"><use xlink:href="#SVGID_1_" overflow="visible"/></clipPath><path d="M270.8 13.1c0 4-3.7 7.2-8.3 7.2h-52c-4.6 0-8.3-3.3-8.3-7.2s3.7-7.2 8.3-7.2h52c4.6-.1 8.3 3.2 8.3 7.2" clip-path="url(#SVGID_00000110451486843400139930000010488624703374407352_)" fill="#349946"/><g><path class="st1" d="M215.7 10.9c.2 0 .4 0 .6.1s.3.2.4.3c.1.1.2.3.3.4s.1.3.1.5c0 .3-.1.5-.2.7s-.3.3-.6.5c.1 0 .2.1.3.2.1.1.1.2.2.3.1.1.1.2.1.3V15.1c0 .1 0 .2.1.3 0 .1.1.2.1.2h-1c-.1-.1-.1-.3-.1-.5s0-.4-.1-.6c0-.2-.1-.4-.2-.5-.1-.1-.3-.2-.5-.2h-1v1.8h-1V11h2.5zm-.4 2.1c.2 0 .4-.1.5-.2s.2-.3.2-.5-.1-.4-.2-.5-.3-.2-.5-.2h-1.1V13h1.1zM221.3 10.9v.9h-2.4v1h2.2v.8h-2.2v1.1h2.5v.9h-3.5V11h3.4zM224.4 10.9l1.7 4.6H225l-.3-1H223l-.4 1h-1l1.7-4.6h1.1zm0 2.8l-.6-1.7-.6 1.7h1.2zM228.5 10.9c.3 0 .6 0 .8.1s.5.2.7.4c.2.2.3.4.4.7.1.3.2.6.2 1 0 .3 0 .6-.1.9-.1.3-.2.5-.4.7-.2.2-.4.4-.7.5s-.6.2-.9.2h-2v-4.6h2zm-.1 3.8c.1 0 .3 0 .4-.1.1 0 .3-.1.4-.2s.2-.3.3-.4c.1-.2.1-.4.1-.6 0-.2 0-.4-.1-.6 0-.2-.1-.3-.2-.5-.1-.1-.2-.2-.4-.3-.2-.1-.4-.1-.6-.1h-.7v2.9h.8zM235.4 10.9l1.7 4.6H236l-.3-1H234l-.4 1h-1l1.7-4.6h1.1zm0 2.8l-.6-1.7-.6 1.7h1.2zM240 10.9c.2 0 .4 0 .6.1s.3.2.4.3c.1.1.2.3.3.4s.1.3.1.5c0 .3-.1.5-.2.7s-.3.3-.6.5c.1 0 .2.1.3.2.1.1.1.2.2.3.1.1.1.2.1.3V15.1c0 .1 0 .2.1.3 0 .1.1.2.1.2h-1c-.1-.1-.1-.3-.1-.5s0-.4-.1-.6c0-.2-.1-.4-.2-.5-.1-.1-.3-.2-.5-.2h-1v1.8h-1V11h2.5zm-.4 2.1c.2 0 .4-.1.5-.2s.2-.3.2-.5-.1-.4-.2-.5-.3-.2-.5-.2h-1.1V13h1.1z"/></g><g><path class="st1" d="M241.7 11.8v-.9h3.8v.9h-1.4v3.8h-1v-3.8h-1.4zM247 10.9v4.6h-1v-4.6h1zM250.9 12.1c-.1-.1-.1-.2-.2-.3-.1-.1-.2-.1-.3-.2s-.2-.1-.4-.1-.4 0-.6.1c-.2.1-.3.2-.4.4-.1.1-.2.3-.2.5s-.1.4-.1.6c0 .2 0 .4.1.6 0 .2.1.3.2.5.1.1.2.3.4.4s.4.1.6.1c.3 0 .6-.1.7-.3.2-.2.3-.4.3-.8h1c0 .3-.1.5-.2.8-.1.2-.2.4-.4.6-.2.2-.4.3-.6.4s-.5.1-.8.1c-.4 0-.7-.1-1-.2-.3-.1-.5-.3-.7-.5-.2-.2-.3-.5-.4-.8-.1-.3-.2-.6-.2-.9 0-.3.1-.7.2-1 .1-.3.3-.6.4-.8.2-.2.4-.4.7-.5.3-.1.6-.2 1-.2.3 0 .5 0 .7.1l.6.3c.2.1.3.3.4.5.1.2.2.4.2.7h-1c.1.1 0 0 0-.1zM253.7 10.9v3.8h2.2v.9h-3.3V11h1.1zM260 10.9v.9h-2.4v1h2.2v.8h-2.2v1.1h2.5v.9h-3.5V11h3.4z"/></g></svg>