<?xml version="1.0" encoding="utf-8"?>
<!-- Generator: Adobe Illustrator 26.5.0, SVG Export Plug-In . SVG Version: 6.00 Build 0)  -->
<svg version="1.1" id="Layer_1" xmlns="http://www.w3.org/2000/svg" xmlns:xlink="http://www.w3.org/1999/xlink" x="0px" y="0px"
	 viewBox="0 0 300 250" style="enable-background:new 0 0 300 250;" xml:space="preserve">
<style type="text/css">
	.st0{fill:#339933;}
</style>
<g>
	<path class="st0" d="M43.9,77.3c1.2,0,2.3,0.2,3.2,0.5c0.9,0.4,1.6,0.8,2.1,1.4c0.5,0.6,1,1.3,1.2,2c0.3,0.8,0.4,1.6,0.4,2.4
		c0,0.8-0.1,1.6-0.4,2.4c-0.3,0.8-0.7,1.5-1.2,2.1c-0.6,0.6-1.3,1.1-2.1,1.4c-0.9,0.4-1.9,0.5-3.2,0.5h-4.6v7.2h-4.4v-20H43.9z
		 M42.7,86.7c0.5,0,1,0,1.5-0.1c0.5-0.1,0.9-0.2,1.2-0.4c0.4-0.2,0.6-0.5,0.9-0.9c0.2-0.4,0.3-0.9,0.3-1.5c0-0.6-0.1-1.1-0.3-1.5
		c-0.2-0.4-0.5-0.7-0.9-0.9s-0.8-0.4-1.2-0.4c-0.5-0.1-1-0.1-1.5-0.1h-3.4v6H42.7z"/>
	<path class="st0" d="M57,82.8v2.7H57c0.2-0.4,0.4-0.9,0.8-1.2c0.3-0.4,0.7-0.7,1.1-1c0.4-0.3,0.8-0.5,1.3-0.6
		c0.5-0.1,1-0.2,1.5-0.2c0.3,0,0.6,0,0.9,0.1v3.7c-0.2,0-0.4-0.1-0.7-0.1c-0.3,0-0.5,0-0.8,0c-0.7,0-1.3,0.1-1.8,0.4
		c-0.5,0.2-0.9,0.6-1.2,1s-0.5,0.9-0.7,1.5c-0.1,0.6-0.2,1.2-0.2,1.8v6.5h-4V82.8H57z"/>
	<path class="st0" d="M63.9,87.3c0.1-0.9,0.3-1.7,0.7-2.3c0.4-0.6,0.9-1.1,1.6-1.5c0.6-0.4,1.3-0.6,2.1-0.8c0.8-0.2,1.6-0.2,2.4-0.2
		c0.7,0,1.5,0.1,2.2,0.2c0.7,0.1,1.4,0.3,2,0.6c0.6,0.3,1.1,0.7,1.5,1.2c0.4,0.5,0.6,1.2,0.6,2.1v7.5c0,0.7,0,1.3,0.1,1.9
		c0.1,0.6,0.2,1,0.4,1.3h-4c-0.1-0.2-0.1-0.5-0.2-0.7c0-0.2-0.1-0.5-0.1-0.7c-0.6,0.7-1.4,1.1-2.2,1.4c-0.9,0.3-1.7,0.4-2.6,0.4
		c-0.7,0-1.3-0.1-1.9-0.3s-1.1-0.4-1.6-0.8c-0.4-0.4-0.8-0.8-1.1-1.3c-0.3-0.5-0.4-1.2-0.4-1.9c0-0.8,0.1-1.5,0.4-2
		c0.3-0.5,0.7-1,1.1-1.3c0.5-0.3,1-0.6,1.6-0.7s1.2-0.3,1.8-0.4c0.6-0.1,1.2-0.2,1.8-0.2c0.6-0.1,1.1-0.1,1.5-0.3
		c0.4-0.1,0.8-0.3,1.1-0.5c0.3-0.2,0.4-0.5,0.4-0.9c0-0.4-0.1-0.8-0.2-1c-0.1-0.3-0.3-0.4-0.6-0.6s-0.5-0.2-0.8-0.3
		c-0.3,0-0.6-0.1-1-0.1c-0.8,0-1.4,0.2-1.8,0.5s-0.7,0.9-0.8,1.7H63.9z M73.1,90.2c-0.2,0.1-0.4,0.3-0.6,0.4s-0.5,0.2-0.8,0.2
		c-0.3,0.1-0.6,0.1-0.9,0.1s-0.6,0.1-1,0.1c-0.3,0.1-0.6,0.1-0.9,0.2c-0.3,0.1-0.5,0.2-0.8,0.4c-0.2,0.2-0.4,0.4-0.5,0.6
		c-0.1,0.2-0.2,0.6-0.2,0.9c0,0.4,0.1,0.7,0.2,0.9c0.1,0.2,0.3,0.4,0.5,0.6c0.2,0.1,0.5,0.2,0.8,0.3s0.6,0.1,0.9,0.1
		c0.8,0,1.4-0.1,1.8-0.4c0.4-0.3,0.7-0.6,1-0.9c0.2-0.4,0.3-0.7,0.4-1.1c0-0.4,0.1-0.7,0.1-0.9V90.2z"/>
	<path class="st0" d="M87.1,85.4c-0.6,0-1.2,0.1-1.6,0.4c-0.4,0.3-0.8,0.7-1,1.1s-0.5,1-0.6,1.5c-0.1,0.6-0.2,1.1-0.2,1.6
		c0,0.5,0.1,1.1,0.2,1.6c0.1,0.5,0.3,1,0.5,1.5c0.3,0.4,0.6,0.8,1,1.1c0.4,0.3,1,0.4,1.6,0.4c1,0,1.7-0.3,2.2-0.8
		c0.5-0.5,0.8-1.2,1-2.1H94c-0.3,1.9-1,3.4-2.2,4.4c-1.2,1-2.8,1.5-4.7,1.5c-1.1,0-2.1-0.2-3-0.5c-0.9-0.4-1.7-0.9-2.3-1.5
		c-0.6-0.7-1.1-1.4-1.5-2.3c-0.4-0.9-0.5-1.9-0.5-3c0-1.1,0.2-2.2,0.5-3.1c0.3-1,0.8-1.8,1.4-2.5c0.6-0.7,1.4-1.2,2.3-1.6
		c0.9-0.4,2-0.6,3.1-0.6c0.9,0,1.7,0.1,2.5,0.3c0.8,0.2,1.5,0.6,2.1,1c0.6,0.5,1.1,1,1.5,1.7c0.4,0.7,0.6,1.5,0.7,2.4H90
		C89.7,86.2,88.8,85.4,87.1,85.4z"/>
	<path class="st0" d="M104.2,82.8v2.7h-2.9v7.2c0,0.7,0.1,1.1,0.3,1.3c0.2,0.2,0.7,0.3,1.3,0.3c0.2,0,0.4,0,0.6,0
		c0.2,0,0.4,0,0.6-0.1v3.1c-0.3,0.1-0.7,0.1-1.1,0.1c-0.4,0-0.8,0-1.2,0c-0.6,0-1.2,0-1.8-0.1s-1-0.2-1.5-0.5c-0.4-0.2-0.8-0.6-1-1
		c-0.2-0.4-0.4-1-0.4-1.8v-8.5h-2.4v-2.7h2.4v-4.3h4v4.3H104.2z"/>
	<path class="st0" d="M106.2,80.6v-3.3h4v3.3H106.2z M110.2,82.8v14.5h-4V82.8H110.2z"/>
	<path class="st0" d="M120.2,85.4c-0.6,0-1.2,0.1-1.6,0.4c-0.4,0.3-0.8,0.7-1,1.1s-0.5,1-0.6,1.5c-0.1,0.6-0.2,1.1-0.2,1.6
		c0,0.5,0.1,1.1,0.2,1.6c0.1,0.5,0.3,1,0.5,1.5c0.3,0.4,0.6,0.8,1,1.1c0.4,0.3,1,0.4,1.6,0.4c1,0,1.7-0.3,2.2-0.8
		c0.5-0.5,0.8-1.2,1-2.1h3.8c-0.3,1.9-1,3.4-2.2,4.4c-1.2,1-2.8,1.5-4.7,1.5c-1.1,0-2.1-0.2-3-0.5c-0.9-0.4-1.7-0.9-2.3-1.5
		c-0.6-0.7-1.1-1.4-1.5-2.3c-0.4-0.9-0.5-1.9-0.5-3c0-1.1,0.2-2.2,0.5-3.1c0.3-1,0.8-1.8,1.4-2.5c0.6-0.7,1.4-1.2,2.3-1.6
		c0.9-0.4,2-0.6,3.1-0.6c0.9,0,1.7,0.1,2.5,0.3c0.8,0.2,1.5,0.6,2.1,1c0.6,0.5,1.1,1,1.5,1.7c0.4,0.7,0.6,1.5,0.7,2.4h-3.9
		C122.9,86.2,121.9,85.4,120.2,85.4z"/>
	<path class="st0" d="M129.2,87.3c0.1-0.9,0.3-1.7,0.7-2.3c0.4-0.6,0.9-1.1,1.6-1.5c0.6-0.4,1.3-0.6,2.1-0.8
		c0.8-0.2,1.6-0.2,2.4-0.2c0.7,0,1.5,0.1,2.2,0.2c0.7,0.1,1.4,0.3,2,0.6c0.6,0.3,1.1,0.7,1.5,1.2c0.4,0.5,0.6,1.2,0.6,2.1v7.5
		c0,0.7,0,1.3,0.1,1.9c0.1,0.6,0.2,1,0.4,1.3h-4c-0.1-0.2-0.1-0.5-0.2-0.7c0-0.2-0.1-0.5-0.1-0.7c-0.6,0.7-1.4,1.1-2.2,1.4
		c-0.9,0.3-1.7,0.4-2.6,0.4c-0.7,0-1.3-0.1-1.9-0.3s-1.1-0.4-1.6-0.8c-0.4-0.4-0.8-0.8-1.1-1.3c-0.3-0.5-0.4-1.2-0.4-1.9
		c0-0.8,0.1-1.5,0.4-2c0.3-0.5,0.7-1,1.1-1.3c0.5-0.3,1-0.6,1.6-0.7s1.2-0.3,1.8-0.4c0.6-0.1,1.2-0.2,1.8-0.2
		c0.6-0.1,1.1-0.1,1.5-0.3c0.4-0.1,0.8-0.3,1.1-0.5c0.3-0.2,0.4-0.5,0.4-0.9c0-0.4-0.1-0.8-0.2-1c-0.1-0.3-0.3-0.4-0.6-0.6
		s-0.5-0.2-0.8-0.3c-0.3,0-0.6-0.1-1-0.1c-0.8,0-1.4,0.2-1.8,0.5s-0.7,0.9-0.8,1.7H129.2z M138.4,90.2c-0.2,0.1-0.4,0.3-0.6,0.4
		s-0.5,0.2-0.8,0.2c-0.3,0.1-0.6,0.1-0.9,0.1s-0.6,0.1-1,0.1c-0.3,0.1-0.6,0.1-0.9,0.2c-0.3,0.1-0.5,0.2-0.8,0.4
		c-0.2,0.2-0.4,0.4-0.5,0.6c-0.1,0.2-0.2,0.6-0.2,0.9c0,0.4,0.1,0.7,0.2,0.9c0.1,0.2,0.3,0.4,0.5,0.6c0.2,0.1,0.5,0.2,0.8,0.3
		s0.6,0.1,0.9,0.1c0.8,0,1.4-0.1,1.8-0.4c0.4-0.3,0.7-0.6,1-0.9c0.2-0.4,0.3-0.7,0.4-1.1c0-0.4,0.1-0.7,0.1-0.9V90.2z"/>
	<path class="st0" d="M149.5,77.3v20h-4v-20H149.5z"/>
	<path class="st0" d="M175.5,97.3l-3.4-13.6h-0.1l-3.3,13.6h-4.5l-5.3-20h4.4l3.2,13.6h0.1l3.5-13.6h4.1l3.4,13.8h0.1l3.3-13.8h4.3
		l-5.4,20H175.5z"/>
	<path class="st0" d="M187,80.6v-3.3h4v3.3H187z M191,82.8v14.5h-4V82.8H191z"/>
	<path class="st0" d="M197.5,93.7c0.2,0.3,0.4,0.6,0.7,0.8c0.3,0.2,0.6,0.3,1,0.4c0.4,0.1,0.7,0.1,1.1,0.1c0.3,0,0.6,0,0.9-0.1
		c0.3-0.1,0.6-0.2,0.8-0.3c0.3-0.1,0.5-0.3,0.6-0.6s0.3-0.5,0.3-0.9c0-0.6-0.4-1-1.2-1.3c-0.8-0.3-1.9-0.6-3.3-0.9
		c-0.6-0.1-1.1-0.3-1.7-0.5c-0.6-0.2-1-0.4-1.5-0.7c-0.4-0.3-0.8-0.7-1-1.1c-0.3-0.4-0.4-1-0.4-1.6c0-0.9,0.2-1.7,0.5-2.3
		c0.4-0.6,0.8-1.1,1.4-1.4c0.6-0.3,1.3-0.6,2-0.7c0.7-0.1,1.5-0.2,2.3-0.2s1.5,0.1,2.3,0.2c0.7,0.1,1.4,0.4,2,0.8
		c0.6,0.4,1.1,0.8,1.4,1.4c0.4,0.6,0.6,1.3,0.7,2.2h-3.8c-0.1-0.8-0.3-1.3-0.9-1.6s-1.1-0.4-1.8-0.4c-0.2,0-0.5,0-0.7,0
		c-0.3,0-0.5,0.1-0.7,0.2c-0.2,0.1-0.4,0.2-0.5,0.4c-0.1,0.2-0.2,0.4-0.2,0.7c0,0.4,0.1,0.6,0.4,0.9s0.6,0.4,1,0.5
		c0.4,0.1,0.9,0.3,1.4,0.4c0.5,0.1,1.1,0.2,1.7,0.4c0.6,0.1,1.1,0.3,1.7,0.5c0.5,0.2,1,0.4,1.5,0.7c0.4,0.3,0.8,0.7,1,1.1
		c0.3,0.5,0.4,1,0.4,1.7c0,1-0.2,1.8-0.6,2.4c-0.4,0.6-0.9,1.2-1.5,1.6c-0.6,0.4-1.3,0.7-2.1,0.8c-0.8,0.2-1.6,0.2-2.4,0.2
		c-0.8,0-1.7-0.1-2.5-0.3c-0.8-0.2-1.5-0.4-2.1-0.8s-1.1-0.9-1.5-1.6c-0.4-0.6-0.6-1.5-0.7-2.4h3.8C197.2,93,197.3,93.4,197.5,93.7z
		"/>
	<path class="st0" d="M219.4,95.4c-0.5,0.8-1.1,1.3-1.8,1.7s-1.6,0.5-2.6,0.5c-1.1,0-2-0.2-2.9-0.6s-1.5-1-2-1.7
		c-0.5-0.7-0.9-1.5-1.2-2.5c-0.3-0.9-0.4-1.9-0.4-2.9c0-1,0.1-1.9,0.4-2.8c0.3-0.9,0.7-1.7,1.2-2.4s1.2-1.2,2-1.7
		c0.8-0.4,1.7-0.6,2.8-0.6c0.9,0,1.7,0.2,2.5,0.5c0.8,0.4,1.4,0.9,1.8,1.6h0.1v-7.3h4v20h-3.8L219.4,95.4L219.4,95.4z M219.3,88.3
		c-0.1-0.6-0.3-1-0.6-1.5s-0.6-0.8-1-1c-0.4-0.3-1-0.4-1.6-0.4s-1.2,0.1-1.7,0.4c-0.4,0.3-0.8,0.6-1.1,1c-0.3,0.4-0.5,0.9-0.6,1.5
		c-0.1,0.6-0.2,1.1-0.2,1.7c0,0.6,0.1,1.1,0.2,1.7c0.1,0.6,0.3,1.1,0.6,1.5c0.3,0.4,0.7,0.8,1.1,1.1s1,0.4,1.6,0.4
		c0.7,0,1.2-0.1,1.6-0.4c0.4-0.3,0.8-0.6,1-1c0.3-0.4,0.4-0.9,0.6-1.5s0.2-1.1,0.2-1.7S219.4,88.8,219.3,88.3z"/>
	<path class="st0" d="M226.3,86.9c0.4-0.9,0.9-1.7,1.5-2.4c0.7-0.7,1.4-1.2,2.4-1.5c0.9-0.4,1.9-0.5,3.1-0.5s2.2,0.2,3.1,0.5
		c0.9,0.4,1.7,0.9,2.4,1.5c0.7,0.7,1.2,1.5,1.5,2.4c0.4,0.9,0.5,2,0.5,3.1c0,1.2-0.2,2.2-0.5,3.1c-0.4,0.9-0.9,1.7-1.5,2.4
		s-1.4,1.2-2.4,1.5s-2,0.5-3.1,0.5s-2.2-0.2-3.1-0.5c-0.9-0.4-1.7-0.9-2.4-1.5c-0.7-0.7-1.2-1.5-1.5-2.4c-0.4-0.9-0.5-2-0.5-3.1
		C225.8,88.9,226,87.8,226.3,86.9z M229.9,91.7c0.1,0.6,0.3,1,0.6,1.5c0.3,0.4,0.6,0.8,1.1,1c0.4,0.3,1,0.4,1.7,0.4s1.2-0.1,1.7-0.4
		c0.5-0.3,0.8-0.6,1.1-1s0.5-0.9,0.6-1.5c0.1-0.6,0.2-1.1,0.2-1.7c0-0.6-0.1-1.1-0.2-1.7c-0.1-0.6-0.3-1.1-0.6-1.5
		c-0.3-0.4-0.6-0.8-1.1-1c-0.5-0.3-1-0.4-1.7-0.4s-1.2,0.1-1.7,0.4c-0.4,0.3-0.8,0.6-1.1,1c-0.3,0.4-0.5,0.9-0.6,1.5
		s-0.2,1.1-0.2,1.7C229.8,90.6,229.8,91.2,229.9,91.7z"/>
	<path class="st0" d="M247.2,82.8v2h0.1c0.5-0.7,1.2-1.3,1.9-1.7c0.7-0.4,1.6-0.6,2.5-0.6c0.9,0,1.8,0.2,2.5,0.5
		c0.8,0.4,1.3,1,1.7,1.9c0.4-0.6,1-1.2,1.8-1.7c0.7-0.5,1.6-0.7,2.6-0.7c0.8,0,1.5,0.1,2.1,0.3s1.2,0.5,1.7,0.9s0.8,0.9,1.1,1.6
		c0.3,0.7,0.4,1.5,0.4,2.4v9.7h-4v-8.2c0-0.5,0-0.9-0.1-1.4c0-0.4-0.1-0.8-0.3-1.1s-0.4-0.6-0.7-0.8c-0.3-0.2-0.8-0.3-1.3-0.3
		s-1,0.1-1.4,0.3c-0.3,0.2-0.6,0.5-0.8,0.8s-0.3,0.7-0.4,1.2c-0.1,0.4-0.1,0.9-0.1,1.3v8.1h-4v-8.1c0-0.4,0-0.9,0-1.3
		s-0.1-0.8-0.2-1.2c-0.1-0.4-0.4-0.6-0.7-0.9c-0.3-0.2-0.8-0.3-1.4-0.3c-0.2,0-0.4,0-0.7,0.1s-0.6,0.2-0.9,0.5
		c-0.3,0.2-0.5,0.6-0.7,1c-0.2,0.4-0.3,1-0.3,1.7v8.4h-4V82.8H247.2z"/>
</g>
<g>
	<path class="st0" d="M72.3,114.5v-2.7h2.4v-1.1c0-1.3,0.4-2.3,1.2-3.2c0.8-0.8,2-1.2,3.6-1.2c0.4,0,0.7,0,1.1,0
		c0.4,0,0.7,0.1,1,0.1v3c-0.5-0.1-1-0.1-1.5-0.1c-0.5,0-0.9,0.1-1.2,0.4c-0.2,0.3-0.4,0.7-0.4,1.3v0.9h2.7v2.7h-2.7v11.8h-4v-11.8
		H72.3z"/>
	<path class="st0" d="M83.3,115.9c0.4-0.9,0.9-1.7,1.5-2.4c0.7-0.7,1.4-1.2,2.4-1.5c0.9-0.4,1.9-0.5,3.1-0.5s2.2,0.2,3.1,0.5
		c0.9,0.4,1.7,0.9,2.4,1.5c0.7,0.7,1.2,1.5,1.5,2.4c0.4,0.9,0.5,2,0.5,3.1c0,1.2-0.2,2.2-0.5,3.1c-0.4,0.9-0.9,1.7-1.5,2.4
		s-1.4,1.2-2.4,1.5c-0.9,0.4-2,0.5-3.1,0.5s-2.2-0.2-3.1-0.5c-0.9-0.4-1.7-0.9-2.4-1.5s-1.2-1.5-1.5-2.4c-0.4-0.9-0.5-2-0.5-3.1
		C82.7,117.9,82.9,116.9,83.3,115.9z M86.9,120.8c0.1,0.6,0.3,1,0.6,1.5s0.6,0.8,1.1,1c0.4,0.3,1,0.4,1.7,0.4s1.2-0.1,1.7-0.4
		c0.5-0.3,0.8-0.6,1.1-1s0.5-0.9,0.6-1.5s0.2-1.1,0.2-1.7c0-0.6-0.1-1.1-0.2-1.7s-0.3-1.1-0.6-1.5c-0.3-0.4-0.6-0.8-1.1-1
		c-0.5-0.3-1-0.4-1.7-0.4s-1.2,0.1-1.7,0.4s-0.8,0.6-1.1,1c-0.3,0.4-0.5,0.9-0.6,1.5c-0.1,0.6-0.2,1.1-0.2,1.7
		C86.7,119.6,86.8,120.2,86.9,120.8z"/>
	<path class="st0" d="M104.1,111.8v2.7h0.1c0.2-0.4,0.4-0.9,0.8-1.2c0.3-0.4,0.7-0.7,1.1-1c0.4-0.3,0.8-0.5,1.3-0.6
		c0.5-0.1,1-0.2,1.5-0.2c0.3,0,0.6,0,0.9,0.1v3.7c-0.2,0-0.4-0.1-0.7-0.1c-0.3,0-0.5,0-0.8,0c-0.7,0-1.3,0.1-1.8,0.4
		c-0.5,0.2-0.9,0.6-1.2,1s-0.5,0.9-0.7,1.5c-0.1,0.6-0.2,1.2-0.2,1.8v6.5h-4v-14.5H104.1z"/>
	<path class="st0" d="M128,106.3c1.3,0,2.5,0.2,3.6,0.6c1.1,0.4,2.1,1,2.9,1.8c0.8,0.8,1.4,1.8,1.9,3.1c0.5,1.2,0.7,2.7,0.7,4.3
		c0,1.5-0.2,2.8-0.6,4c-0.4,1.2-0.9,2.3-1.7,3.2s-1.7,1.6-2.8,2.1c-1.1,0.5-2.5,0.8-4,0.8h-8.6v-20H128z M127.7,122.6
		c0.6,0,1.2-0.1,1.8-0.3c0.6-0.2,1.1-0.5,1.6-1s0.8-1.1,1.1-1.9c0.3-0.8,0.4-1.7,0.4-2.8c0-1-0.1-1.9-0.3-2.7
		c-0.2-0.8-0.5-1.5-1-2.1s-1-1-1.8-1.3s-1.6-0.5-2.7-0.5h-3.1v12.6H127.7z"/>
	<path class="st0" d="M144,122.8c0.6,0.6,1.5,0.9,2.6,0.9c0.8,0,1.5-0.2,2.1-0.6c0.6-0.4,0.9-0.8,1.1-1.3h3.5
		c-0.6,1.7-1.4,3-2.6,3.7c-1.2,0.7-2.6,1.1-4.2,1.1c-1.1,0-2.2-0.2-3.1-0.5c-0.9-0.4-1.7-0.9-2.3-1.6c-0.6-0.7-1.1-1.5-1.5-2.4
		c-0.3-0.9-0.5-2-0.5-3.1c0-1.1,0.2-2.1,0.5-3c0.4-0.9,0.9-1.7,1.5-2.4c0.7-0.7,1.4-1.2,2.3-1.6c0.9-0.4,1.9-0.6,3-0.6
		c1.2,0,2.3,0.2,3.2,0.7c0.9,0.5,1.7,1.1,2.3,1.9s1,1.7,1.3,2.7c0.3,1,0.4,2.1,0.3,3.2H143C143,121.3,143.4,122.2,144,122.8z
		 M148.5,115.2c-0.5-0.5-1.2-0.8-2.2-0.8c-0.6,0-1.2,0.1-1.6,0.3c-0.4,0.2-0.8,0.5-1,0.8s-0.4,0.7-0.5,1c-0.1,0.4-0.2,0.7-0.2,1h6.5
		C149.3,116.5,148.9,115.7,148.5,115.2z"/>
	<path class="st0" d="M159.6,111.8v2h0.1c0.5-0.8,1.2-1.5,2-1.8c0.8-0.4,1.6-0.6,2.5-0.6c1.1,0,1.9,0.1,2.6,0.4
		c0.7,0.3,1.2,0.7,1.6,1.2c0.4,0.5,0.7,1.1,0.8,1.9c0.2,0.7,0.2,1.6,0.2,2.5v8.9h-4v-8.2c0-1.2-0.2-2.1-0.6-2.7s-1-0.9-2-0.9
		c-1.1,0-1.9,0.3-2.4,1s-0.7,1.7-0.7,3.2v7.6h-4v-14.5H159.6z"/>
	<path class="st0" d="M180.3,111.8v2.7h-2.9v7.2c0,0.7,0.1,1.1,0.3,1.3c0.2,0.2,0.7,0.3,1.3,0.3c0.2,0,0.4,0,0.6,0
		c0.2,0,0.4,0,0.6-0.1v3.1c-0.3,0.1-0.7,0.1-1.1,0.1c-0.4,0-0.8,0-1.2,0c-0.6,0-1.2,0-1.8-0.1s-1-0.2-1.5-0.5c-0.4-0.2-0.8-0.6-1-1
		c-0.2-0.4-0.4-1-0.4-1.8v-8.5H171v-2.7h2.4v-4.3h4v4.3H180.3z"/>
	<path class="st0" d="M182.4,109.6v-3.3h4v3.3H182.4z M186.3,111.8v14.5h-4v-14.5H186.3z"/>
	<path class="st0" d="M192.8,122.7c0.2,0.3,0.4,0.6,0.7,0.8c0.3,0.2,0.6,0.3,1,0.4c0.4,0.1,0.7,0.1,1.1,0.1c0.3,0,0.6,0,0.9-0.1
		c0.3-0.1,0.6-0.2,0.8-0.3c0.3-0.1,0.5-0.3,0.6-0.6s0.3-0.5,0.3-0.9c0-0.6-0.4-1-1.2-1.3c-0.8-0.3-1.9-0.6-3.3-0.9
		c-0.6-0.1-1.1-0.3-1.7-0.5c-0.6-0.2-1-0.4-1.5-0.7c-0.4-0.3-0.8-0.7-1-1.1c-0.3-0.4-0.4-1-0.4-1.6c0-0.9,0.2-1.7,0.5-2.3
		c0.4-0.6,0.8-1.1,1.4-1.4c0.6-0.3,1.3-0.6,2-0.7c0.7-0.1,1.5-0.2,2.3-0.2s1.5,0.1,2.3,0.2c0.7,0.1,1.4,0.4,2,0.8
		c0.6,0.4,1.1,0.8,1.4,1.4c0.4,0.6,0.6,1.3,0.7,2.2H198c-0.1-0.8-0.3-1.3-0.9-1.6s-1.1-0.4-1.8-0.4c-0.2,0-0.5,0-0.7,0
		c-0.3,0-0.5,0.1-0.7,0.2c-0.2,0.1-0.4,0.2-0.5,0.4c-0.1,0.2-0.2,0.4-0.2,0.7c0,0.4,0.1,0.6,0.4,0.9s0.6,0.4,1,0.5
		c0.4,0.1,0.9,0.3,1.4,0.4c0.5,0.1,1.1,0.2,1.7,0.4c0.6,0.1,1.1,0.3,1.7,0.5c0.5,0.2,1,0.4,1.5,0.7c0.4,0.3,0.8,0.7,1,1.1
		c0.3,0.5,0.4,1,0.4,1.7c0,1-0.2,1.8-0.6,2.4c-0.4,0.6-0.9,1.2-1.5,1.6c-0.6,0.4-1.3,0.7-2.1,0.8c-0.8,0.2-1.6,0.2-2.4,0.2
		c-0.8,0-1.7-0.1-2.5-0.3c-0.8-0.2-1.5-0.4-2.1-0.8c-0.6-0.4-1.1-0.9-1.5-1.6c-0.4-0.6-0.6-1.5-0.7-2.4h3.8
		C192.5,122,192.6,122.4,192.8,122.7z"/>
	<path class="st0" d="M212.5,111.8v2.7h-2.9v7.2c0,0.7,0.1,1.1,0.3,1.3c0.2,0.2,0.7,0.3,1.3,0.3c0.2,0,0.4,0,0.6,0
		c0.2,0,0.4,0,0.6-0.1v3.1c-0.3,0.1-0.7,0.1-1.1,0.1c-0.4,0-0.8,0-1.2,0c-0.6,0-1.2,0-1.8-0.1s-1-0.2-1.5-0.5c-0.4-0.2-0.8-0.6-1-1
		c-0.2-0.4-0.4-1-0.4-1.8v-8.5h-2.4v-2.7h2.4v-4.3h4v4.3H212.5z"/>
	<path class="st0" d="M217.7,122.7c0.2,0.3,0.4,0.6,0.7,0.8c0.3,0.2,0.6,0.3,1,0.4c0.4,0.1,0.7,0.1,1.1,0.1c0.3,0,0.6,0,0.9-0.1
		c0.3-0.1,0.6-0.2,0.8-0.3c0.3-0.1,0.5-0.3,0.6-0.6s0.3-0.5,0.3-0.9c0-0.6-0.4-1-1.2-1.3c-0.8-0.3-1.9-0.6-3.3-0.9
		c-0.6-0.1-1.1-0.3-1.7-0.5c-0.6-0.2-1-0.4-1.5-0.7c-0.4-0.3-0.8-0.7-1-1.1c-0.3-0.4-0.4-1-0.4-1.6c0-0.9,0.2-1.7,0.5-2.3
		c0.4-0.6,0.8-1.1,1.4-1.4c0.6-0.3,1.3-0.6,2-0.7c0.7-0.1,1.5-0.2,2.3-0.2s1.5,0.1,2.3,0.2c0.7,0.1,1.4,0.4,2,0.8
		c0.6,0.4,1.1,0.8,1.4,1.4c0.4,0.6,0.6,1.3,0.7,2.2h-3.8c-0.1-0.8-0.3-1.3-0.9-1.6s-1.1-0.4-1.8-0.4c-0.2,0-0.5,0-0.7,0
		c-0.3,0-0.5,0.1-0.7,0.2c-0.2,0.1-0.4,0.2-0.5,0.4c-0.1,0.2-0.2,0.4-0.2,0.7c0,0.4,0.1,0.6,0.4,0.9s0.6,0.4,1,0.5
		c0.4,0.1,0.9,0.3,1.4,0.4c0.5,0.1,1.1,0.2,1.7,0.4c0.6,0.1,1.1,0.3,1.7,0.5c0.5,0.2,1,0.4,1.5,0.7c0.4,0.3,0.8,0.7,1,1.1
		c0.3,0.5,0.4,1,0.4,1.7c0,1-0.2,1.8-0.6,2.4c-0.4,0.6-0.9,1.2-1.5,1.6c-0.6,0.4-1.3,0.7-2.1,0.8c-0.8,0.2-1.6,0.2-2.4,0.2
		c-0.8,0-1.7-0.1-2.5-0.3c-0.8-0.2-1.5-0.4-2.1-0.8c-0.6-0.4-1.1-0.9-1.5-1.6c-0.4-0.6-0.6-1.5-0.7-2.4h3.8
		C217.4,122,217.5,122.4,217.7,122.7z"/>
</g>
</svg>
