<?xml version="1.0" encoding="utf-8"?>
<!-- Generator: Adobe Illustrator 26.5.0, SVG Export Plug-In . SVG Version: 6.00 Build 0)  -->
<svg version="1.1" id="Layer_1" xmlns="http://www.w3.org/2000/svg" xmlns:xlink="http://www.w3.org/1999/xlink" x="0px" y="0px"
	 viewBox="0 0 300 250" style="enable-background:new 0 0 300 250;" xml:space="preserve">
<style type="text/css">
	.st0{fill:#231F20;}
</style>
<g>
	<path class="st0" d="M26.4,104.6c0.2,0.4,0.5,0.7,0.8,1c0.3,0.3,0.8,0.4,1.2,0.6c0.5,0.1,1,0.2,1.5,0.2c0.3,0,0.7,0,1.1-0.1
		c0.4-0.1,0.8-0.2,1.1-0.3c0.3-0.2,0.6-0.4,0.9-0.7s0.3-0.6,0.3-1.1c0-0.5-0.2-0.9-0.5-1.1c-0.3-0.3-0.7-0.5-1.2-0.7s-1-0.4-1.7-0.5
		c-0.6-0.1-1.2-0.3-1.9-0.5c-0.6-0.2-1.3-0.4-1.9-0.6c-0.6-0.2-1.2-0.5-1.7-0.9c-0.5-0.4-0.9-0.8-1.2-1.4c-0.3-0.6-0.5-1.2-0.5-2
		c0-0.9,0.2-1.7,0.6-2.3c0.4-0.7,0.9-1.2,1.5-1.6s1.3-0.8,2.1-1c0.8-0.2,1.6-0.3,2.3-0.3c0.9,0,1.8,0.1,2.6,0.3s1.6,0.5,2.2,1
		c0.6,0.5,1.2,1,1.5,1.7c0.4,0.7,0.6,1.6,0.6,2.6h-3.7c0-0.5-0.1-0.9-0.3-1.3c-0.2-0.3-0.4-0.6-0.7-0.8s-0.7-0.3-1.1-0.4
		c-0.4-0.1-0.8-0.1-1.3-0.1c-0.3,0-0.6,0-0.9,0.1s-0.6,0.2-0.8,0.3c-0.3,0.2-0.5,0.4-0.6,0.6c-0.2,0.2-0.2,0.6-0.2,0.9
		c0,0.3,0.1,0.6,0.2,0.8c0.1,0.2,0.4,0.4,0.8,0.6c0.4,0.2,0.9,0.4,1.6,0.5s1.6,0.4,2.6,0.7c0.3,0.1,0.8,0.2,1.4,0.4
		c0.6,0.2,1.1,0.4,1.7,0.8c0.6,0.4,1.1,0.9,1.5,1.5c0.4,0.6,0.6,1.4,0.6,2.4c0,0.8-0.2,1.5-0.5,2.2c-0.3,0.7-0.8,1.3-1.4,1.8
		c-0.6,0.5-1.4,0.9-2.3,1.2c-0.9,0.3-1.9,0.4-3.1,0.4c-1,0-1.9-0.1-2.8-0.4s-1.7-0.6-2.4-1.1c-0.7-0.5-1.2-1.1-1.6-1.9
		c-0.4-0.8-0.6-1.7-0.6-2.8h3.7C26.1,103.7,26.2,104.2,26.4,104.6z"/>
	<path class="st0" d="M47.2,108.9v-1.8h-0.1c-0.4,0.7-1,1.3-1.7,1.6s-1.4,0.5-2.1,0.5c-0.9,0-1.7-0.1-2.3-0.4s-1.1-0.6-1.4-1
		c-0.3-0.4-0.6-1-0.7-1.6c-0.1-0.6-0.2-1.4-0.2-2.1v-7.7h3.5v7.1c0,1,0.2,1.8,0.5,2.3c0.3,0.5,0.9,0.8,1.7,0.8c0.9,0,1.6-0.3,2-0.8
		c0.4-0.6,0.6-1.5,0.6-2.8v-6.6h3.5v12.6H47.2z"/>
	<path class="st0" d="M56.2,96.3v1.6h0c0.4-0.7,1-1.2,1.6-1.5c0.6-0.3,1.4-0.5,2.1-0.5c1,0,1.8,0.2,2.6,0.6c0.7,0.4,1.3,0.9,1.8,1.5
		c0.5,0.6,0.8,1.3,1,2.2c0.2,0.8,0.3,1.7,0.3,2.6c0,0.8-0.1,1.7-0.3,2.4c-0.2,0.8-0.6,1.5-1,2.1c-0.5,0.6-1,1.1-1.7,1.4
		c-0.7,0.4-1.5,0.5-2.4,0.5c-0.8,0-1.5-0.2-2.2-0.5c-0.7-0.3-1.2-0.8-1.6-1.4h0v6h-3.5v-17H56.2z M60.7,106.3
		c0.4-0.2,0.7-0.5,0.9-0.9s0.4-0.8,0.5-1.3c0.1-0.5,0.1-1,0.1-1.5c0-0.5-0.1-1-0.2-1.5s-0.3-0.9-0.5-1.3c-0.2-0.4-0.6-0.7-0.9-0.9
		c-0.4-0.2-0.8-0.4-1.4-0.4c-0.6,0-1,0.1-1.4,0.4c-0.4,0.2-0.7,0.5-0.9,0.9c-0.2,0.4-0.4,0.8-0.5,1.3c-0.1,0.5-0.1,1-0.1,1.5
		c0,0.5,0.1,1,0.2,1.5c0.1,0.5,0.3,0.9,0.5,1.3c0.2,0.4,0.5,0.7,0.9,0.9c0.4,0.2,0.9,0.3,1.4,0.3C59.8,106.6,60.3,106.5,60.7,106.3z
		"/>
	<path class="st0" d="M70.8,96.3v1.6h0c0.4-0.7,1-1.2,1.6-1.5c0.6-0.3,1.4-0.5,2.1-0.5c1,0,1.8,0.2,2.6,0.6c0.7,0.4,1.3,0.9,1.8,1.5
		c0.5,0.6,0.8,1.3,1,2.2c0.2,0.8,0.3,1.7,0.3,2.6c0,0.8-0.1,1.7-0.3,2.4c-0.2,0.8-0.6,1.5-1,2.1c-0.5,0.6-1,1.1-1.7,1.4
		c-0.7,0.4-1.5,0.5-2.4,0.5c-0.8,0-1.5-0.2-2.2-0.5c-0.7-0.3-1.2-0.8-1.6-1.4h0v6h-3.5v-17H70.8z M75.3,106.3
		c0.4-0.2,0.7-0.5,0.9-0.9s0.4-0.8,0.5-1.3c0.1-0.5,0.1-1,0.1-1.5c0-0.5-0.1-1-0.2-1.5s-0.3-0.9-0.5-1.3c-0.2-0.4-0.6-0.7-0.9-0.9
		c-0.4-0.2-0.8-0.4-1.4-0.4c-0.6,0-1,0.1-1.4,0.4c-0.4,0.2-0.7,0.5-0.9,0.9c-0.2,0.4-0.4,0.8-0.5,1.3c-0.1,0.5-0.1,1-0.1,1.5
		c0,0.5,0.1,1,0.2,1.5c0.1,0.5,0.3,0.9,0.5,1.3c0.2,0.4,0.5,0.7,0.9,0.9c0.4,0.2,0.9,0.3,1.4,0.3C74.5,106.6,75,106.5,75.3,106.3z"
		/>
	<path class="st0" d="M85.8,91.5v17.4h-3.5V91.5H85.8z"/>
	<path class="st0" d="M92,105.9c0.5,0.5,1.3,0.8,2.2,0.8c0.7,0,1.3-0.2,1.8-0.5c0.5-0.3,0.8-0.7,0.9-1.1h3c-0.5,1.5-1.2,2.6-2.2,3.2
		c-1,0.6-2.2,1-3.7,1c-1,0-1.9-0.2-2.7-0.5c-0.8-0.3-1.5-0.8-2-1.4c-0.6-0.6-1-1.3-1.3-2.1c-0.3-0.8-0.5-1.7-0.5-2.7
		c0-0.9,0.2-1.8,0.5-2.6c0.3-0.8,0.7-1.5,1.3-2.1c0.6-0.6,1.2-1.1,2-1.4c0.8-0.3,1.7-0.5,2.6-0.5c1.1,0,2,0.2,2.8,0.6
		c0.8,0.4,1.4,1,2,1.7c0.5,0.7,0.9,1.5,1.1,2.4c0.2,0.9,0.3,1.8,0.2,2.8h-9.1C91.2,104.6,91.4,105.4,92,105.9z M95.9,99.2
		c-0.4-0.5-1-0.7-1.9-0.7c-0.6,0-1,0.1-1.4,0.3c-0.4,0.2-0.7,0.4-0.9,0.7c-0.2,0.3-0.4,0.6-0.5,0.9s-0.1,0.6-0.2,0.8h5.6
		C96.6,100.4,96.3,99.7,95.9,99.2z"/>
	<path class="st0" d="M105.4,96.3V98h0c0.5-0.6,1-1.2,1.6-1.5c0.6-0.4,1.4-0.5,2.2-0.5c0.8,0,1.5,0.2,2.2,0.5s1.2,0.9,1.5,1.6
		c0.4-0.6,0.9-1,1.5-1.5s1.4-0.6,2.3-0.6c0.7,0,1.3,0.1,1.9,0.2c0.6,0.2,1.1,0.4,1.5,0.8c0.4,0.4,0.7,0.8,1,1.4
		c0.2,0.6,0.3,1.3,0.3,2.1v8.4h-3.5v-7.1c0-0.4,0-0.8,0-1.2c0-0.4-0.1-0.7-0.3-1c-0.1-0.3-0.4-0.5-0.6-0.7c-0.3-0.2-0.7-0.2-1.2-0.2
		c-0.5,0-0.9,0.1-1.2,0.3c-0.3,0.2-0.5,0.4-0.7,0.7c-0.2,0.3-0.3,0.6-0.3,1c-0.1,0.4-0.1,0.8-0.1,1.2v7H110v-7.1c0-0.4,0-0.7,0-1.1
		c0-0.4-0.1-0.7-0.2-1c-0.1-0.3-0.3-0.6-0.6-0.7c-0.3-0.2-0.7-0.3-1.3-0.3c-0.2,0-0.4,0-0.6,0.1s-0.5,0.2-0.8,0.4
		c-0.3,0.2-0.5,0.5-0.6,0.9c-0.2,0.4-0.3,0.9-0.3,1.5v7.3h-3.5V96.3H105.4z"/>
	<path class="st0" d="M127.6,105.9c0.5,0.5,1.3,0.8,2.2,0.8c0.7,0,1.3-0.2,1.8-0.5c0.5-0.3,0.8-0.7,0.9-1.1h3
		c-0.5,1.5-1.2,2.6-2.2,3.2c-1,0.6-2.2,1-3.7,1c-1,0-1.9-0.2-2.7-0.5c-0.8-0.3-1.5-0.8-2-1.4c-0.6-0.6-1-1.3-1.3-2.1
		c-0.3-0.8-0.5-1.7-0.5-2.7c0-0.9,0.2-1.8,0.5-2.6c0.3-0.8,0.7-1.5,1.3-2.1c0.6-0.6,1.2-1.1,2-1.4c0.8-0.3,1.7-0.5,2.6-0.5
		c1.1,0,2,0.2,2.8,0.6c0.8,0.4,1.4,1,2,1.7c0.5,0.7,0.9,1.5,1.1,2.4c0.2,0.9,0.3,1.8,0.2,2.8h-9.1
		C126.8,104.6,127.1,105.4,127.6,105.9z M131.5,99.2c-0.4-0.5-1-0.7-1.9-0.7c-0.6,0-1,0.1-1.4,0.3c-0.4,0.2-0.7,0.4-0.9,0.7
		c-0.2,0.3-0.4,0.6-0.5,0.9s-0.1,0.6-0.2,0.8h5.6C132.2,100.4,131.9,99.7,131.5,99.2z"/>
	<path class="st0" d="M140.9,96.3v1.8h0.1c0.4-0.7,1-1.3,1.7-1.6c0.7-0.3,1.4-0.5,2.1-0.5c0.9,0,1.7,0.1,2.3,0.4
		c0.6,0.3,1.1,0.6,1.4,1c0.3,0.4,0.6,1,0.7,1.6c0.1,0.6,0.2,1.4,0.2,2.1v7.7H146v-7.1c0-1-0.2-1.8-0.5-2.3c-0.3-0.5-0.9-0.8-1.7-0.8
		c-0.9,0-1.6,0.3-2,0.8c-0.4,0.6-0.6,1.5-0.6,2.8v6.6h-3.5V96.3H140.9z"/>
	<path class="st0" d="M158.8,96.3v2.3h-2.5v6.2c0,0.6,0.1,1,0.3,1.2c0.2,0.2,0.6,0.3,1.2,0.3c0.2,0,0.4,0,0.6,0s0.3,0,0.5-0.1v2.7
		c-0.3,0-0.6,0.1-1,0.1c-0.4,0-0.7,0-1,0c-0.5,0-1,0-1.5-0.1c-0.5-0.1-0.9-0.2-1.3-0.4c-0.4-0.2-0.7-0.5-0.9-0.9s-0.3-0.9-0.3-1.5
		v-7.4h-2.1v-2.3h2.1v-3.8h3.5v3.8H158.8z"/>
	<path class="st0" d="M160.1,100.2c0-0.8,0.3-1.5,0.6-2c0.4-0.5,0.8-1,1.4-1.3c0.6-0.3,1.2-0.6,1.9-0.7c0.7-0.1,1.4-0.2,2.1-0.2
		c0.6,0,1.3,0,1.9,0.1c0.6,0.1,1.2,0.3,1.8,0.5c0.5,0.3,1,0.6,1.3,1.1c0.3,0.5,0.5,1.1,0.5,1.8v6.6c0,0.6,0,1.1,0.1,1.6
		c0.1,0.5,0.2,0.9,0.3,1.2h-3.5c-0.1-0.2-0.1-0.4-0.2-0.6c0-0.2-0.1-0.4-0.1-0.6c-0.6,0.6-1.2,1-1.9,1.2s-1.5,0.3-2.3,0.3
		c-0.6,0-1.2-0.1-1.7-0.2c-0.5-0.1-1-0.4-1.4-0.7c-0.4-0.3-0.7-0.7-0.9-1.2c-0.2-0.5-0.3-1-0.3-1.7c0-0.7,0.1-1.3,0.4-1.8
		s0.6-0.8,1-1.1c0.4-0.3,0.9-0.5,1.4-0.6c0.5-0.1,1-0.2,1.5-0.3c0.5-0.1,1-0.1,1.5-0.2c0.5,0,1-0.1,1.3-0.2c0.4-0.1,0.7-0.2,0.9-0.4
		c0.2-0.2,0.3-0.5,0.3-0.8c0-0.4-0.1-0.7-0.2-0.9s-0.3-0.4-0.5-0.5c-0.2-0.1-0.4-0.2-0.7-0.2c-0.3,0-0.6-0.1-0.9-0.1
		c-0.7,0-1.2,0.1-1.6,0.4c-0.4,0.3-0.6,0.8-0.7,1.5H160.1z M168.1,102.7c-0.1,0.1-0.3,0.2-0.5,0.3c-0.2,0.1-0.5,0.1-0.7,0.2
		c-0.3,0-0.5,0.1-0.8,0.1c-0.3,0-0.6,0.1-0.8,0.1c-0.3,0-0.5,0.1-0.8,0.2c-0.3,0.1-0.5,0.2-0.7,0.3c-0.2,0.1-0.3,0.3-0.5,0.5
		c-0.1,0.2-0.2,0.5-0.2,0.8c0,0.3,0.1,0.6,0.2,0.8c0.1,0.2,0.3,0.4,0.5,0.5c0.2,0.1,0.4,0.2,0.7,0.3c0.3,0,0.5,0.1,0.8,0.1
		c0.7,0,1.2-0.1,1.6-0.3c0.4-0.2,0.6-0.5,0.8-0.8c0.2-0.3,0.3-0.6,0.3-1c0-0.3,0.1-0.6,0.1-0.8V102.7z"/>
	<path class="st0" d="M177.5,91.5v17.4h-3.5V91.5H177.5z"/>
	<path class="st0" d="M192.3,91.5l4.1,12h0l3.8-12h5.4v17.4h-3.6V96.6h0l-4.3,12.3h-2.9l-4.3-12.2h0v12.2h-3.6V91.5H192.3z"/>
	<path class="st0" d="M212.1,105.9c0.5,0.5,1.3,0.8,2.2,0.8c0.7,0,1.3-0.2,1.8-0.5c0.5-0.3,0.8-0.7,0.9-1.1h3
		c-0.5,1.5-1.2,2.6-2.2,3.2c-1,0.6-2.2,1-3.7,1c-1,0-1.9-0.2-2.7-0.5c-0.8-0.3-1.5-0.8-2-1.4c-0.6-0.6-1-1.3-1.3-2.1
		c-0.3-0.8-0.5-1.7-0.5-2.7c0-0.9,0.2-1.8,0.5-2.6s0.7-1.5,1.3-2.1c0.6-0.6,1.2-1.1,2-1.4c0.8-0.3,1.7-0.5,2.6-0.5
		c1.1,0,2,0.2,2.8,0.6s1.5,1,2,1.7c0.5,0.7,0.9,1.5,1.1,2.4s0.3,1.8,0.2,2.8h-9.1C211.3,104.6,211.6,105.4,212.1,105.9z M216,99.2
		c-0.4-0.5-1-0.7-1.9-0.7c-0.6,0-1,0.1-1.4,0.3c-0.4,0.2-0.7,0.4-0.9,0.7c-0.2,0.3-0.4,0.6-0.5,0.9c-0.1,0.3-0.1,0.6-0.2,0.8h5.6
		C216.7,100.4,216.4,99.7,216,99.2z"/>
	<path class="st0" d="M231.1,107.3c-0.4,0.7-0.9,1.2-1.6,1.5c-0.7,0.3-1.4,0.5-2.2,0.5c-0.9,0-1.8-0.2-2.5-0.5s-1.3-0.9-1.8-1.5
		c-0.5-0.6-0.8-1.3-1-2.2s-0.4-1.7-0.4-2.5c0-0.8,0.1-1.7,0.4-2.4c0.2-0.8,0.6-1.5,1-2.1c0.5-0.6,1-1.1,1.7-1.4
		c0.7-0.4,1.5-0.5,2.4-0.5c0.7,0,1.5,0.2,2.1,0.5c0.7,0.3,1.2,0.8,1.6,1.4h0v-6.3h3.5v17.4h-3.3L231.1,107.3L231.1,107.3z
		 M231,101.1c-0.1-0.5-0.3-0.9-0.5-1.3c-0.2-0.4-0.5-0.7-0.9-0.9c-0.4-0.2-0.8-0.3-1.4-0.3s-1,0.1-1.4,0.3c-0.4,0.2-0.7,0.5-0.9,0.9
		c-0.2,0.4-0.4,0.8-0.5,1.3c-0.1,0.5-0.2,1-0.2,1.5c0,0.5,0.1,1,0.2,1.5c0.1,0.5,0.3,0.9,0.5,1.3c0.3,0.4,0.6,0.7,1,0.9
		s0.8,0.4,1.4,0.4c0.6,0,1-0.1,1.4-0.3c0.4-0.2,0.7-0.5,0.9-0.9c0.2-0.4,0.4-0.8,0.5-1.3s0.1-1,0.1-1.5
		C231.1,102,231.1,101.5,231,101.1z"/>
	<path class="st0" d="M236.9,94.3v-2.9h3.5v2.9H236.9z M240.4,96.3v12.6h-3.5V96.3H240.4z"/>
	<path class="st0" d="M248.9,98.6c-0.6,0-1,0.1-1.4,0.4c-0.4,0.3-0.7,0.6-0.9,1s-0.4,0.8-0.5,1.3c-0.1,0.5-0.1,1-0.1,1.4
		c0,0.5,0,0.9,0.1,1.4c0.1,0.5,0.3,0.9,0.5,1.3c0.2,0.4,0.5,0.7,0.9,0.9c0.4,0.2,0.8,0.4,1.4,0.4c0.8,0,1.5-0.2,1.9-0.7
		c0.4-0.5,0.7-1.1,0.8-1.9h3.3c-0.2,1.7-0.9,2.9-1.9,3.8c-1.1,0.9-2.4,1.3-4.1,1.3c-0.9,0-1.8-0.2-2.6-0.5c-0.8-0.3-1.5-0.8-2-1.3
		c-0.6-0.6-1-1.2-1.3-2c-0.3-0.8-0.5-1.7-0.5-2.6c0-1,0.1-1.9,0.4-2.7c0.3-0.8,0.7-1.6,1.3-2.2s1.2-1.1,2-1.4
		c0.8-0.3,1.7-0.5,2.7-0.5c0.7,0,1.5,0.1,2.2,0.3c0.7,0.2,1.3,0.5,1.9,0.9c0.5,0.4,1,0.9,1.3,1.5s0.5,1.3,0.6,2.1h-3.4
		C251.2,99.3,250.4,98.6,248.9,98.6z"/>
	<path class="st0" d="M256.5,100.2c0-0.8,0.3-1.5,0.6-2c0.4-0.5,0.8-1,1.4-1.3c0.6-0.3,1.2-0.6,1.9-0.7c0.7-0.1,1.4-0.2,2.1-0.2
		c0.6,0,1.3,0,1.9,0.1c0.6,0.1,1.2,0.3,1.8,0.5c0.5,0.3,1,0.6,1.3,1.1c0.3,0.5,0.5,1.1,0.5,1.8v6.6c0,0.6,0,1.1,0.1,1.6
		c0.1,0.5,0.2,0.9,0.3,1.2h-3.5c-0.1-0.2-0.1-0.4-0.2-0.6c0-0.2-0.1-0.4-0.1-0.6c-0.6,0.6-1.2,1-1.9,1.2s-1.5,0.3-2.3,0.3
		c-0.6,0-1.2-0.1-1.7-0.2c-0.5-0.1-1-0.4-1.4-0.7c-0.4-0.3-0.7-0.7-0.9-1.2c-0.2-0.5-0.3-1-0.3-1.7c0-0.7,0.1-1.3,0.4-1.8
		s0.6-0.8,1-1.1c0.4-0.3,0.9-0.5,1.4-0.6c0.5-0.1,1-0.2,1.5-0.3c0.5-0.1,1-0.1,1.5-0.2c0.5,0,1-0.1,1.3-0.2c0.4-0.1,0.7-0.2,0.9-0.4
		c0.2-0.2,0.3-0.5,0.3-0.8c0-0.4-0.1-0.7-0.2-0.9s-0.3-0.4-0.5-0.5c-0.2-0.1-0.4-0.2-0.7-0.2c-0.3,0-0.6-0.1-0.9-0.1
		c-0.7,0-1.2,0.1-1.6,0.4c-0.4,0.3-0.6,0.8-0.7,1.5H256.5z M264.5,102.7c-0.1,0.1-0.3,0.2-0.5,0.3c-0.2,0.1-0.5,0.1-0.7,0.2
		c-0.3,0-0.5,0.1-0.8,0.1c-0.3,0-0.6,0.1-0.8,0.1c-0.3,0-0.5,0.1-0.8,0.2c-0.3,0.1-0.5,0.2-0.7,0.3c-0.2,0.1-0.3,0.3-0.5,0.5
		c-0.1,0.2-0.2,0.5-0.2,0.8c0,0.3,0.1,0.6,0.2,0.8c0.1,0.2,0.3,0.4,0.5,0.5c0.2,0.1,0.4,0.2,0.7,0.3c0.3,0,0.5,0.1,0.8,0.1
		c0.7,0,1.2-0.1,1.6-0.3c0.4-0.2,0.6-0.5,0.8-0.8c0.2-0.3,0.3-0.6,0.3-1c0-0.3,0.1-0.6,0.1-0.8V102.7z"/>
	<path class="st0" d="M274,91.5v17.4h-3.5V91.5H274z"/>
</g>
<g>
	<path class="st0" d="M106.1,120.5c-0.2-0.4-0.5-0.7-0.9-1c-0.3-0.3-0.7-0.5-1.2-0.6c-0.4-0.2-0.9-0.2-1.4-0.2
		c-0.9,0-1.6,0.2-2.2,0.5c-0.6,0.3-1.1,0.8-1.5,1.3c-0.4,0.6-0.6,1.2-0.8,1.9c-0.2,0.7-0.3,1.5-0.3,2.2c0,0.7,0.1,1.4,0.3,2.1
		c0.2,0.7,0.4,1.3,0.8,1.9c0.4,0.6,0.9,1,1.5,1.3c0.6,0.3,1.3,0.5,2.2,0.5c1.2,0,2.1-0.4,2.7-1.1s1.1-1.7,1.2-2.8h3.7
		c-0.1,1.1-0.3,2.1-0.8,2.9c-0.4,0.9-0.9,1.6-1.6,2.2c-0.7,0.6-1.4,1.1-2.3,1.4c-0.9,0.3-1.9,0.5-2.9,0.5c-1.3,0-2.5-0.2-3.6-0.7
		s-2-1.1-2.7-1.9c-0.7-0.8-1.3-1.8-1.7-2.9c-0.4-1.1-0.6-2.3-0.6-3.5c0-1.3,0.2-2.5,0.6-3.6s1-2.1,1.7-2.9c0.7-0.8,1.6-1.5,2.7-1.9
		s2.3-0.7,3.6-0.7c1,0,1.9,0.1,2.7,0.4c0.9,0.3,1.6,0.7,2.3,1.2s1.2,1.2,1.7,2c0.4,0.8,0.7,1.7,0.8,2.7h-3.7
		C106.5,121.3,106.4,120.9,106.1,120.5z"/>
	<path class="st0" d="M112.5,124.2c0.3-0.8,0.7-1.5,1.3-2.1c0.6-0.6,1.2-1,2-1.3c0.8-0.3,1.7-0.5,2.7-0.5s1.9,0.2,2.7,0.5
		c0.8,0.3,1.5,0.8,2.1,1.3c0.6,0.6,1,1.3,1.3,2.1c0.3,0.8,0.5,1.7,0.5,2.7c0,1-0.2,1.9-0.5,2.7c-0.3,0.8-0.7,1.5-1.3,2.1
		c-0.6,0.6-1.3,1-2.1,1.3c-0.8,0.3-1.7,0.5-2.7,0.5s-1.9-0.2-2.7-0.5c-0.8-0.3-1.5-0.8-2-1.3c-0.6-0.6-1-1.3-1.3-2.1
		c-0.3-0.8-0.5-1.7-0.5-2.7C112.1,126,112.2,125,112.5,124.2z M115.7,128.4c0.1,0.5,0.3,0.9,0.5,1.3c0.2,0.4,0.5,0.7,0.9,0.9
		s0.9,0.3,1.5,0.3c0.6,0,1.1-0.1,1.5-0.3c0.4-0.2,0.7-0.5,0.9-0.9c0.2-0.4,0.4-0.8,0.5-1.3c0.1-0.5,0.1-1,0.1-1.5c0-0.5,0-1-0.1-1.5
		s-0.3-0.9-0.5-1.3c-0.2-0.4-0.6-0.7-0.9-0.9c-0.4-0.2-0.9-0.4-1.5-0.4c-0.6,0-1.1,0.1-1.5,0.4c-0.4,0.2-0.7,0.5-0.9,0.9
		c-0.2,0.4-0.4,0.8-0.5,1.3c-0.1,0.5-0.1,1-0.1,1.5C115.5,127.5,115.6,128,115.7,128.4z"/>
	<path class="st0" d="M130.2,133.3l-4.3-12.6h3.6l2.7,8.6h0l2.7-8.6h3.4l-4.3,12.6H130.2z"/>
	<path class="st0" d="M143.3,130.2c0.5,0.5,1.3,0.8,2.2,0.8c0.7,0,1.3-0.2,1.8-0.5s0.8-0.7,0.9-1.1h3c-0.5,1.5-1.2,2.6-2.2,3.2
		c-1,0.7-2.2,1-3.7,1c-1,0-1.9-0.2-2.7-0.5c-0.8-0.3-1.5-0.8-2-1.4c-0.6-0.6-1-1.3-1.3-2.1c-0.3-0.8-0.5-1.7-0.5-2.7
		c0-0.9,0.2-1.8,0.5-2.6c0.3-0.8,0.7-1.5,1.3-2.1c0.6-0.6,1.2-1.1,2-1.4c0.8-0.3,1.7-0.5,2.6-0.5c1.1,0,2,0.2,2.8,0.6
		c0.8,0.4,1.4,1,2,1.7c0.5,0.7,0.9,1.5,1.1,2.4c0.2,0.9,0.3,1.8,0.2,2.8h-9.1C142.5,128.9,142.7,129.7,143.3,130.2z M147.2,123.6
		c-0.4-0.5-1-0.7-1.9-0.7c-0.6,0-1,0.1-1.4,0.3s-0.7,0.4-0.9,0.7c-0.2,0.3-0.4,0.6-0.5,0.9c-0.1,0.3-0.1,0.6-0.2,0.8h5.6
		C147.9,124.7,147.6,124.1,147.2,123.6z"/>
	<path class="st0" d="M156.6,120.7v2.3h0c0.2-0.4,0.4-0.8,0.7-1.1s0.6-0.6,1-0.9c0.4-0.2,0.7-0.4,1.1-0.5c0.4-0.1,0.8-0.2,1.3-0.2
		c0.2,0,0.5,0,0.8,0.1v3.2c-0.2,0-0.4-0.1-0.6-0.1s-0.4,0-0.7,0c-0.6,0-1.2,0.1-1.6,0.3s-0.8,0.5-1.1,0.9c-0.3,0.4-0.5,0.8-0.6,1.3
		c-0.1,0.5-0.2,1-0.2,1.6v5.7h-3.5v-12.6H156.6z"/>
	<path class="st0" d="M162.4,124.5c0-0.8,0.3-1.5,0.6-2c0.4-0.5,0.8-1,1.4-1.3c0.6-0.3,1.2-0.6,1.9-0.7c0.7-0.1,1.4-0.2,2.1-0.2
		c0.6,0,1.3,0,1.9,0.1c0.6,0.1,1.2,0.3,1.8,0.5c0.5,0.3,1,0.6,1.3,1.1c0.3,0.5,0.5,1.1,0.5,1.8v6.6c0,0.6,0,1.1,0.1,1.6
		c0.1,0.5,0.2,0.9,0.3,1.2h-3.5c-0.1-0.2-0.1-0.4-0.2-0.6c0-0.2-0.1-0.4-0.1-0.6c-0.6,0.6-1.2,1-1.9,1.2s-1.5,0.3-2.3,0.3
		c-0.6,0-1.2-0.1-1.7-0.2c-0.5-0.1-1-0.4-1.4-0.7c-0.4-0.3-0.7-0.7-0.9-1.2c-0.2-0.5-0.3-1-0.3-1.7c0-0.7,0.1-1.3,0.4-1.8
		s0.6-0.8,1-1.1c0.4-0.3,0.9-0.5,1.4-0.6c0.5-0.1,1-0.2,1.5-0.3c0.5-0.1,1-0.1,1.5-0.2c0.5,0,1-0.1,1.3-0.2c0.4-0.1,0.7-0.2,0.9-0.4
		s0.3-0.5,0.3-0.8c0-0.4-0.1-0.7-0.2-0.9s-0.3-0.4-0.5-0.5c-0.2-0.1-0.4-0.2-0.7-0.2c-0.3,0-0.6-0.1-0.9-0.1c-0.7,0-1.2,0.1-1.6,0.4
		c-0.4,0.3-0.6,0.8-0.7,1.5H162.4z M170.4,127.1c-0.1,0.1-0.3,0.2-0.5,0.3c-0.2,0.1-0.5,0.1-0.7,0.2c-0.3,0-0.5,0.1-0.8,0.1
		c-0.3,0-0.6,0.1-0.8,0.1c-0.3,0-0.5,0.1-0.8,0.2s-0.5,0.2-0.7,0.3s-0.3,0.3-0.5,0.5c-0.1,0.2-0.2,0.5-0.2,0.8
		c0,0.3,0.1,0.6,0.2,0.8c0.1,0.2,0.3,0.4,0.5,0.5c0.2,0.1,0.4,0.2,0.7,0.3s0.5,0.1,0.8,0.1c0.7,0,1.2-0.1,1.6-0.3
		c0.4-0.2,0.6-0.5,0.8-0.8c0.2-0.3,0.3-0.6,0.3-1c0-0.3,0.1-0.6,0.1-0.8V127.1z"/>
	<path class="st0" d="M188.2,134.2c-0.1,0.6-0.4,1.3-0.9,1.8c-0.5,0.6-1.1,1-2,1.4c-0.9,0.4-2,0.6-3.5,0.6c-0.6,0-1.2-0.1-1.9-0.2
		s-1.2-0.4-1.8-0.7c-0.5-0.3-1-0.7-1.3-1.3s-0.5-1.1-0.6-1.8h3.4c0.2,0.6,0.5,1.1,1,1.4c0.5,0.3,1,0.4,1.6,0.4c1,0,1.7-0.3,2.1-0.9
		c0.4-0.6,0.7-1.3,0.6-2.2v-1.7h0c-0.4,0.7-0.9,1.2-1.6,1.5c-0.7,0.3-1.4,0.5-2.2,0.5c-0.9,0-1.8-0.2-2.4-0.5
		c-0.7-0.3-1.2-0.8-1.7-1.4c-0.4-0.6-0.8-1.3-1-2c-0.2-0.8-0.3-1.6-0.3-2.4c0-0.8,0.1-1.6,0.4-2.4c0.2-0.8,0.6-1.4,1-2
		c0.5-0.6,1-1,1.7-1.4c0.7-0.3,1.5-0.5,2.3-0.5c0.8,0,1.6,0.2,2.2,0.5s1.1,0.8,1.6,1.6h0v-1.7h3.3v11.8
		C188.5,133,188.4,133.5,188.2,134.2z M183.5,130c0.4-0.2,0.7-0.5,0.9-0.8c0.2-0.3,0.4-0.7,0.5-1.1s0.2-0.8,0.2-1.3
		c0-0.5,0-1-0.1-1.5c-0.1-0.5-0.3-0.9-0.5-1.2s-0.5-0.6-0.9-0.9c-0.4-0.2-0.8-0.3-1.4-0.3c-0.5,0-0.9,0.1-1.3,0.3
		c-0.3,0.2-0.6,0.5-0.9,0.8c-0.2,0.3-0.4,0.7-0.5,1.1c-0.1,0.4-0.2,0.9-0.2,1.4c0,0.5,0,0.9,0.1,1.4s0.2,0.8,0.5,1.2
		c0.2,0.4,0.5,0.6,0.9,0.9c0.4,0.2,0.8,0.3,1.3,0.3C182.7,130.3,183.1,130.2,183.5,130z"/>
	<path class="st0" d="M194.7,130.2c0.5,0.5,1.3,0.8,2.2,0.8c0.7,0,1.3-0.2,1.8-0.5c0.5-0.3,0.8-0.7,0.9-1.1h3
		c-0.5,1.5-1.2,2.6-2.2,3.2c-1,0.7-2.2,1-3.7,1c-1,0-1.9-0.2-2.7-0.5c-0.8-0.3-1.5-0.8-2-1.4c-0.6-0.6-1-1.3-1.3-2.1
		c-0.3-0.8-0.5-1.7-0.5-2.7c0-0.9,0.2-1.8,0.5-2.6s0.7-1.5,1.3-2.1c0.6-0.6,1.2-1.1,2-1.4c0.8-0.3,1.7-0.5,2.6-0.5
		c1.1,0,2,0.2,2.8,0.6s1.5,1,2,1.7c0.5,0.7,0.9,1.5,1.1,2.4c0.2,0.9,0.3,1.8,0.2,2.8h-9.1C193.9,128.9,194.2,129.7,194.7,130.2z
		 M198.6,123.6c-0.4-0.5-1-0.7-1.9-0.7c-0.6,0-1,0.1-1.4,0.3c-0.4,0.2-0.7,0.4-0.9,0.7c-0.2,0.3-0.4,0.6-0.5,0.9
		c-0.1,0.3-0.1,0.6-0.2,0.8h5.6C199.3,124.7,199,124.1,198.6,123.6z"/>
</g>
</svg>
