<?xml version="1.0" encoding="utf-8"?>
<!-- Generator: Adobe Illustrator 26.5.0, SVG Export Plug-In . SVG Version: 6.00 Build 0)  -->
<svg version="1.1" id="Layer_1" xmlns="http://www.w3.org/2000/svg" xmlns:xlink="http://www.w3.org/1999/xlink" x="0px" y="0px"
	 viewBox="0 0 300 250" style="enable-background:new 0 0 300 250;" xml:space="preserve">
<style type="text/css">
	.st0{fill:#231F20;}
</style>
<g>
	<path class="st0" d="M44.5,81.9L51,99.3h-4l-1.3-3.9h-6.5l-1.4,3.9H34l6.6-17.4H44.5z M44.7,92.6l-2.2-6.4h0l-2.3,6.4H44.7z"/>
	<path class="st0" d="M55.2,86.7v1.8h0.1c0.4-0.7,1-1.3,1.7-1.6s1.4-0.5,2.1-0.5c0.9,0,1.7,0.1,2.3,0.4c0.6,0.3,1.1,0.6,1.4,1
		c0.3,0.4,0.6,1,0.7,1.6c0.1,0.6,0.2,1.4,0.2,2.1v7.7h-3.5v-7.1c0-1-0.2-1.8-0.5-2.3s-0.9-0.8-1.7-0.8c-0.9,0-1.6,0.3-2,0.8
		c-0.4,0.6-0.6,1.5-0.6,2.8v6.6h-3.5V86.7H55.2z"/>
	<path class="st0" d="M75.1,97.7c-0.4,0.7-0.9,1.2-1.6,1.5s-1.4,0.5-2.2,0.5c-0.9,0-1.8-0.2-2.5-0.5c-0.7-0.4-1.3-0.9-1.8-1.5
		c-0.5-0.6-0.8-1.3-1-2.2c-0.2-0.8-0.4-1.7-0.4-2.5c0-0.8,0.1-1.7,0.4-2.4c0.2-0.8,0.6-1.5,1-2.1c0.5-0.6,1-1.1,1.7-1.4
		c0.7-0.4,1.5-0.5,2.4-0.5c0.7,0,1.5,0.2,2.1,0.5c0.7,0.3,1.2,0.8,1.6,1.4h0v-6.3h3.5v17.4h-3.3L75.1,97.7L75.1,97.7z M74.9,91.5
		c-0.1-0.5-0.3-0.9-0.5-1.3c-0.2-0.4-0.5-0.7-0.9-0.9c-0.4-0.2-0.8-0.3-1.4-0.3c-0.6,0-1,0.1-1.4,0.3c-0.4,0.2-0.7,0.5-0.9,0.9
		c-0.2,0.4-0.4,0.8-0.5,1.3C69.1,92,69,92.5,69,93c0,0.5,0.1,1,0.2,1.5c0.1,0.5,0.3,0.9,0.5,1.3c0.3,0.4,0.6,0.7,1,0.9
		c0.4,0.2,0.8,0.4,1.4,0.4c0.6,0,1-0.1,1.4-0.3s0.7-0.5,0.9-0.9c0.2-0.4,0.4-0.8,0.5-1.3s0.1-1,0.1-1.5C75.1,92.4,75,91.9,74.9,91.5
		z"/>
	<path class="st0" d="M90.6,86.7v1.6h0c0.4-0.7,1-1.2,1.6-1.5c0.6-0.3,1.4-0.5,2.1-0.5c1,0,1.8,0.2,2.6,0.6c0.7,0.4,1.3,0.9,1.8,1.5
		c0.5,0.6,0.8,1.3,1,2.2c0.2,0.8,0.3,1.7,0.3,2.6c0,0.8-0.1,1.7-0.3,2.4c-0.2,0.8-0.6,1.5-1,2.1c-0.5,0.6-1,1.1-1.7,1.4
		c-0.7,0.4-1.5,0.5-2.4,0.5c-0.8,0-1.5-0.2-2.2-0.5c-0.7-0.3-1.2-0.8-1.6-1.4h0v6h-3.5v-17H90.6z M95.1,96.7
		c0.4-0.2,0.7-0.5,0.9-0.9s0.4-0.8,0.5-1.3c0.1-0.5,0.1-1,0.1-1.5c0-0.5-0.1-1-0.2-1.5s-0.3-0.9-0.5-1.3c-0.2-0.4-0.6-0.7-0.9-0.9
		c-0.4-0.2-0.8-0.4-1.4-0.4c-0.6,0-1,0.1-1.4,0.4c-0.4,0.2-0.7,0.5-0.9,0.9c-0.2,0.4-0.4,0.8-0.5,1.3c-0.1,0.5-0.1,1-0.1,1.5
		c0,0.5,0.1,1,0.2,1.5c0.1,0.5,0.3,0.9,0.5,1.3c0.2,0.4,0.5,0.7,0.9,0.9c0.4,0.2,0.9,0.3,1.4,0.3C94.2,97,94.7,96.9,95.1,96.7z"/>
	<path class="st0" d="M105.2,86.7V89h0c0.2-0.4,0.4-0.8,0.7-1.1c0.3-0.3,0.6-0.6,1-0.9c0.4-0.2,0.7-0.4,1.1-0.5
		c0.4-0.1,0.8-0.2,1.3-0.2c0.2,0,0.5,0,0.8,0.1v3.2c-0.2,0-0.4-0.1-0.6-0.1c-0.2,0-0.4,0-0.7,0c-0.6,0-1.2,0.1-1.6,0.3
		s-0.8,0.5-1.1,0.9c-0.3,0.4-0.5,0.8-0.6,1.3c-0.1,0.5-0.2,1-0.2,1.6v5.7H102V86.7H105.2z"/>
	<path class="st0" d="M110.8,90.3c0.3-0.8,0.7-1.5,1.3-2.1c0.6-0.6,1.2-1,2-1.3c0.8-0.3,1.7-0.5,2.7-0.5s1.9,0.2,2.7,0.5
		c0.8,0.3,1.5,0.8,2.1,1.3c0.6,0.6,1,1.3,1.3,2.1c0.3,0.8,0.5,1.7,0.5,2.7s-0.2,1.9-0.5,2.7c-0.3,0.8-0.7,1.5-1.3,2.1
		c-0.6,0.6-1.3,1-2.1,1.3c-0.8,0.3-1.7,0.5-2.7,0.5s-1.9-0.2-2.7-0.5c-0.8-0.3-1.5-0.8-2-1.3c-0.6-0.6-1-1.3-1.3-2.1
		c-0.3-0.8-0.5-1.7-0.5-2.7S110.5,91.1,110.8,90.3z M114,94.5c0.1,0.5,0.3,0.9,0.5,1.3c0.2,0.4,0.5,0.7,0.9,0.9s0.9,0.3,1.5,0.3
		c0.6,0,1.1-0.1,1.5-0.3c0.4-0.2,0.7-0.5,0.9-0.9c0.2-0.4,0.4-0.8,0.5-1.3s0.1-1,0.1-1.5s0-1-0.1-1.5c-0.1-0.5-0.3-0.9-0.5-1.3
		c-0.2-0.4-0.6-0.7-0.9-0.9c-0.4-0.2-0.9-0.4-1.5-0.4c-0.6,0-1.1,0.1-1.5,0.4c-0.4,0.2-0.7,0.5-0.9,0.9c-0.2,0.4-0.4,0.8-0.5,1.3
		c-0.1,0.5-0.1,1-0.1,1.5S113.9,94,114,94.5z"/>
	<path class="st0" d="M132.4,86.7V89h-2.5v6.2c0,0.6,0.1,1,0.3,1.2s0.6,0.3,1.2,0.3c0.2,0,0.4,0,0.6,0c0.2,0,0.3,0,0.5-0.1v2.7
		c-0.3,0-0.6,0.1-1,0.1c-0.4,0-0.7,0-1,0c-0.5,0-1,0-1.5-0.1c-0.5-0.1-0.9-0.2-1.3-0.4c-0.4-0.2-0.7-0.5-0.9-0.9s-0.3-0.9-0.3-1.5
		V89h-2.1v-2.3h2.1v-3.8h3.5v3.8H132.4z"/>
	<path class="st0" d="M137.5,96.3c0.5,0.5,1.3,0.8,2.2,0.8c0.7,0,1.3-0.2,1.8-0.5c0.5-0.3,0.8-0.7,0.9-1.1h3
		c-0.5,1.5-1.2,2.6-2.2,3.2c-1,0.6-2.2,1-3.7,1c-1,0-1.9-0.2-2.7-0.5c-0.8-0.3-1.5-0.8-2-1.4c-0.6-0.6-1-1.3-1.3-2.1
		c-0.3-0.8-0.5-1.7-0.5-2.7c0-0.9,0.2-1.8,0.5-2.6c0.3-0.8,0.7-1.5,1.3-2.1c0.6-0.6,1.2-1.1,2-1.4c0.8-0.3,1.7-0.5,2.6-0.5
		c1.1,0,2,0.2,2.8,0.6c0.8,0.4,1.4,1,2,1.7c0.5,0.7,0.9,1.5,1.1,2.4c0.2,0.9,0.3,1.8,0.2,2.8h-9.1C136.7,95,137,95.8,137.5,96.3z
		 M141.4,89.6c-0.4-0.5-1-0.7-1.9-0.7c-0.6,0-1,0.1-1.4,0.3c-0.4,0.2-0.7,0.4-0.9,0.7c-0.2,0.3-0.4,0.6-0.5,0.9s-0.1,0.6-0.2,0.8
		h5.6C142.1,90.8,141.8,90.1,141.4,89.6z"/>
	<path class="st0" d="M153.6,89c-0.6,0-1,0.1-1.4,0.4c-0.4,0.3-0.7,0.6-0.9,1s-0.4,0.8-0.5,1.3c-0.1,0.5-0.1,1-0.1,1.4
		c0,0.5,0,0.9,0.1,1.4c0.1,0.5,0.3,0.9,0.5,1.3c0.2,0.4,0.5,0.7,0.9,0.9c0.4,0.2,0.8,0.4,1.4,0.4c0.8,0,1.5-0.2,1.9-0.7
		c0.4-0.5,0.7-1.1,0.8-1.9h3.3c-0.2,1.7-0.9,2.9-1.9,3.8c-1.1,0.9-2.4,1.3-4.1,1.3c-0.9,0-1.8-0.2-2.6-0.5c-0.8-0.3-1.5-0.8-2-1.3
		c-0.6-0.6-1-1.2-1.3-2c-0.3-0.8-0.5-1.7-0.5-2.6c0-1,0.1-1.9,0.4-2.7c0.3-0.8,0.7-1.6,1.3-2.2s1.2-1.1,2-1.4
		c0.8-0.3,1.7-0.5,2.7-0.5c0.7,0,1.5,0.1,2.2,0.3c0.7,0.2,1.3,0.5,1.9,0.9c0.5,0.4,1,0.9,1.3,1.5s0.5,1.3,0.6,2.1h-3.4
		C155.9,89.7,155.1,89,153.6,89z"/>
	<path class="st0" d="M168.2,86.7V89h-2.5v6.2c0,0.6,0.1,1,0.3,1.2c0.2,0.2,0.6,0.3,1.2,0.3c0.2,0,0.4,0,0.6,0s0.3,0,0.5-0.1v2.7
		c-0.3,0-0.6,0.1-1,0.1c-0.4,0-0.7,0-1,0c-0.5,0-1,0-1.5-0.1c-0.5-0.1-0.9-0.2-1.3-0.4c-0.4-0.2-0.7-0.5-0.9-0.9s-0.3-0.9-0.3-1.5
		V89h-2.1v-2.3h2.1v-3.8h3.5v3.8H168.2z"/>
	<path class="st0" d="M180.9,103c-0.7,0.4-1.6,0.7-2.8,0.7c-0.4,0-0.7,0-1.1,0c-0.3,0-0.7-0.1-1.1-0.1v-2.9c0.3,0,0.7,0.1,1,0.1
		c0.3,0,0.7,0,1,0c0.5,0,0.8-0.2,1-0.5c0.2-0.3,0.3-0.6,0.3-1c0-0.3,0-0.5-0.1-0.8l-4.4-11.8h3.7l2.8,8.6h0l2.8-8.6h3.6l-5.3,14.2
		C182,101.9,181.5,102.6,180.9,103z"/>
	<path class="st0" d="M188.7,90.3c0.3-0.8,0.7-1.5,1.3-2.1s1.2-1,2-1.3c0.8-0.3,1.7-0.5,2.7-0.5s1.9,0.2,2.7,0.5
		c0.8,0.3,1.5,0.8,2.1,1.3s1,1.3,1.3,2.1c0.3,0.8,0.5,1.7,0.5,2.7s-0.2,1.9-0.5,2.7c-0.3,0.8-0.7,1.5-1.3,2.1
		c-0.6,0.6-1.3,1-2.1,1.3c-0.8,0.3-1.7,0.5-2.7,0.5s-1.9-0.2-2.7-0.5c-0.8-0.3-1.5-0.8-2-1.3c-0.6-0.6-1-1.3-1.3-2.1
		c-0.3-0.8-0.5-1.7-0.5-2.7S188.4,91.1,188.7,90.3z M191.8,94.5c0.1,0.5,0.3,0.9,0.5,1.3c0.2,0.4,0.5,0.7,0.9,0.9
		c0.4,0.2,0.9,0.3,1.5,0.3s1.1-0.1,1.5-0.3c0.4-0.2,0.7-0.5,1-0.9c0.2-0.4,0.4-0.8,0.5-1.3c0.1-0.5,0.1-1,0.1-1.5s0-1-0.1-1.5
		c-0.1-0.5-0.3-0.9-0.5-1.3c-0.2-0.4-0.6-0.7-1-0.9c-0.4-0.2-0.9-0.4-1.5-0.4s-1.1,0.1-1.5,0.4c-0.4,0.2-0.7,0.5-0.9,0.9
		c-0.2,0.4-0.4,0.8-0.5,1.3c-0.1,0.5-0.1,1-0.1,1.5S191.7,94,191.8,94.5z"/>
	<path class="st0" d="M211.8,99.3v-1.8h-0.1c-0.4,0.7-1,1.3-1.7,1.6c-0.7,0.3-1.4,0.5-2.1,0.5c-0.9,0-1.7-0.1-2.3-0.4
		s-1.1-0.6-1.4-1c-0.3-0.4-0.6-1-0.7-1.6c-0.1-0.6-0.2-1.4-0.2-2.1v-7.7h3.5v7.1c0,1,0.2,1.8,0.5,2.3c0.3,0.5,0.9,0.8,1.7,0.8
		c0.9,0,1.6-0.3,2-0.8c0.4-0.6,0.6-1.5,0.6-2.8v-6.6h3.5v12.6H211.8z"/>
	<path class="st0" d="M220.8,86.7V89h0c0.2-0.4,0.4-0.8,0.7-1.1s0.6-0.6,1-0.9c0.4-0.2,0.7-0.4,1.1-0.5c0.4-0.1,0.8-0.2,1.3-0.2
		c0.2,0,0.5,0,0.8,0.1v3.2c-0.2,0-0.4-0.1-0.6-0.1s-0.4,0-0.7,0c-0.6,0-1.2,0.1-1.6,0.3s-0.8,0.5-1.1,0.9c-0.3,0.4-0.5,0.8-0.6,1.3
		c-0.1,0.5-0.2,1-0.2,1.6v5.7h-3.5V86.7H220.8z"/>
	<path class="st0" d="M229.7,96.2c0.2,0.3,0.4,0.5,0.6,0.7s0.5,0.3,0.8,0.4c0.3,0.1,0.6,0.1,1,0.1c0.2,0,0.5,0,0.8-0.1
		c0.3-0.1,0.5-0.1,0.7-0.3c0.2-0.1,0.4-0.3,0.5-0.5c0.1-0.2,0.2-0.5,0.2-0.8c0-0.5-0.3-0.9-1-1.2c-0.7-0.3-1.7-0.5-2.9-0.8
		c-0.5-0.1-1-0.2-1.5-0.4c-0.5-0.2-0.9-0.4-1.3-0.6c-0.4-0.3-0.7-0.6-0.9-1c-0.2-0.4-0.3-0.8-0.3-1.4c0-0.8,0.2-1.5,0.5-2
		c0.3-0.5,0.7-0.9,1.3-1.2c0.5-0.3,1.1-0.5,1.8-0.6c0.6-0.1,1.3-0.2,2-0.2c0.7,0,1.3,0.1,2,0.2c0.6,0.1,1.2,0.3,1.7,0.7
		c0.5,0.3,0.9,0.7,1.3,1.2c0.3,0.5,0.5,1.2,0.6,1.9h-3.3c0-0.7-0.3-1.1-0.8-1.4c-0.5-0.2-1-0.4-1.6-0.4c-0.2,0-0.4,0-0.6,0
		s-0.4,0.1-0.6,0.2c-0.2,0.1-0.3,0.2-0.5,0.4s-0.2,0.4-0.2,0.6c0,0.3,0.1,0.6,0.3,0.8c0.2,0.2,0.5,0.4,0.9,0.5
		c0.4,0.1,0.8,0.2,1.3,0.3c0.5,0.1,1,0.2,1.4,0.3c0.5,0.1,1,0.3,1.5,0.4c0.5,0.2,0.9,0.4,1.3,0.6c0.4,0.3,0.7,0.6,0.9,1
		c0.2,0.4,0.3,0.9,0.3,1.5c0,0.8-0.2,1.5-0.5,2.1c-0.3,0.6-0.8,1-1.3,1.4c-0.5,0.3-1.1,0.6-1.8,0.7c-0.7,0.1-1.4,0.2-2.1,0.2
		c-0.7,0-1.4-0.1-2.1-0.2c-0.7-0.1-1.3-0.4-1.9-0.7c-0.5-0.3-1-0.8-1.3-1.4c-0.3-0.6-0.5-1.3-0.6-2.1h3.3
		C229.4,95.6,229.5,95.9,229.7,96.2z"/>
	<path class="st0" d="M243.3,96.3c0.5,0.5,1.3,0.8,2.2,0.8c0.7,0,1.3-0.2,1.8-0.5c0.5-0.3,0.8-0.7,0.9-1.1h3
		c-0.5,1.5-1.2,2.6-2.2,3.2c-1,0.6-2.2,1-3.7,1c-1,0-1.9-0.2-2.7-0.5c-0.8-0.3-1.5-0.8-2-1.4c-0.6-0.6-1-1.3-1.3-2.1
		c-0.3-0.8-0.5-1.7-0.5-2.7c0-0.9,0.2-1.8,0.5-2.6s0.7-1.5,1.3-2.1c0.6-0.6,1.2-1.1,2-1.4c0.8-0.3,1.7-0.5,2.6-0.5
		c1.1,0,2,0.2,2.8,0.6s1.5,1,2,1.7c0.5,0.7,0.9,1.5,1.1,2.4s0.3,1.8,0.2,2.8h-9.1C242.5,95,242.8,95.8,243.3,96.3z M247.2,89.6
		c-0.4-0.5-1-0.7-1.9-0.7c-0.6,0-1,0.1-1.4,0.3c-0.4,0.2-0.7,0.4-0.9,0.7c-0.2,0.3-0.4,0.6-0.5,0.9c-0.1,0.3-0.1,0.6-0.2,0.8h5.6
		C247.9,90.8,247.6,90.1,247.2,89.6z"/>
	<path class="st0" d="M256.9,81.9v17.4h-3.5V81.9H256.9z"/>
	<path class="st0" d="M258.1,89v-2.3h2.1v-1c0-1.1,0.3-2,1-2.8c0.7-0.7,1.8-1.1,3.2-1.1c0.3,0,0.6,0,0.9,0c0.3,0,0.6,0,0.9,0.1v2.6
		c-0.4,0-0.8-0.1-1.3-0.1c-0.5,0-0.8,0.1-1,0.3s-0.3,0.6-0.3,1.1v0.8h2.4V89h-2.4v10.3h-3.5V89H258.1z"/>
</g>
<g>
	<path class="st0" d="M60,113.4v-2.3h2.1v-1c0-1.1,0.3-2,1-2.8c0.7-0.7,1.8-1.1,3.2-1.1c0.3,0,0.6,0,0.9,0s0.6,0,0.9,0.1v2.6
		c-0.4,0-0.8-0.1-1.3-0.1c-0.5,0-0.8,0.1-1,0.3s-0.3,0.6-0.3,1.1v0.8h2.4v2.3h-2.4v10.3h-3.5v-10.3H60z"/>
	<path class="st0" d="M72.5,111.1v2.3h0c0.2-0.4,0.4-0.8,0.7-1.1c0.3-0.3,0.6-0.6,1-0.9c0.4-0.2,0.7-0.4,1.1-0.5
		c0.4-0.1,0.8-0.2,1.3-0.2c0.2,0,0.5,0,0.8,0.1v3.2c-0.2,0-0.4-0.1-0.6-0.1c-0.2,0-0.4,0-0.7,0c-0.6,0-1.2,0.1-1.6,0.3
		s-0.8,0.5-1.1,0.9c-0.3,0.4-0.5,0.8-0.6,1.3c-0.1,0.5-0.2,1-0.2,1.6v5.7h-3.5v-12.6H72.5z"/>
	<path class="st0" d="M78.1,114.6c0.3-0.8,0.7-1.5,1.3-2.1c0.6-0.6,1.2-1,2-1.3c0.8-0.3,1.7-0.5,2.7-0.5s1.9,0.2,2.7,0.5
		c0.8,0.3,1.5,0.8,2.1,1.3c0.6,0.6,1,1.3,1.3,2.1c0.3,0.8,0.5,1.7,0.5,2.7s-0.2,1.9-0.5,2.7c-0.3,0.8-0.7,1.5-1.3,2.1
		c-0.6,0.6-1.3,1-2.1,1.3c-0.8,0.3-1.7,0.5-2.7,0.5s-1.9-0.2-2.7-0.5c-0.8-0.3-1.5-0.8-2-1.3c-0.6-0.6-1-1.3-1.3-2.1
		c-0.3-0.8-0.5-1.7-0.5-2.7S77.8,115.4,78.1,114.6z M81.2,118.8c0.1,0.5,0.3,0.9,0.5,1.3c0.2,0.4,0.5,0.7,0.9,0.9s0.9,0.3,1.5,0.3
		c0.6,0,1.1-0.1,1.5-0.3c0.4-0.2,0.7-0.5,0.9-0.9c0.2-0.4,0.4-0.8,0.5-1.3s0.1-1,0.1-1.5s0-1-0.1-1.5c-0.1-0.5-0.3-0.9-0.5-1.3
		c-0.2-0.4-0.6-0.7-0.9-0.9c-0.4-0.2-0.9-0.4-1.5-0.4c-0.6,0-1.1,0.1-1.5,0.4c-0.4,0.2-0.7,0.5-0.9,0.9c-0.2,0.4-0.4,0.8-0.5,1.3
		c-0.1,0.5-0.1,1-0.1,1.5S81.1,118.4,81.2,118.8z"/>
	<path class="st0" d="M96,111.1v1.7h0c0.5-0.6,1-1.2,1.6-1.5c0.6-0.4,1.4-0.5,2.2-0.5c0.8,0,1.5,0.2,2.2,0.5s1.2,0.9,1.5,1.6
		c0.4-0.6,0.9-1,1.5-1.5s1.4-0.6,2.3-0.6c0.7,0,1.3,0.1,1.9,0.2c0.6,0.2,1.1,0.4,1.5,0.8c0.4,0.4,0.7,0.8,1,1.4
		c0.2,0.6,0.3,1.3,0.3,2.1v8.4h-3.5v-7.1c0-0.4,0-0.8,0-1.2c0-0.4-0.1-0.7-0.3-1c-0.1-0.3-0.4-0.5-0.6-0.7c-0.3-0.2-0.7-0.2-1.2-0.2
		c-0.5,0-0.9,0.1-1.2,0.3c-0.3,0.2-0.5,0.4-0.7,0.7c-0.2,0.3-0.3,0.6-0.3,1c-0.1,0.4-0.1,0.8-0.1,1.2v7h-3.5v-7.1c0-0.4,0-0.7,0-1.1
		c0-0.4-0.1-0.7-0.2-1c-0.1-0.3-0.3-0.6-0.6-0.7c-0.3-0.2-0.7-0.3-1.3-0.3c-0.2,0-0.4,0-0.6,0.1s-0.5,0.2-0.8,0.4
		c-0.3,0.2-0.5,0.5-0.6,0.9c-0.2,0.4-0.3,0.9-0.3,1.5v7.3h-3.5v-12.6H96z"/>
	<path class="st0" d="M129.6,123.7v-1.8h-0.1c-0.4,0.7-1,1.3-1.7,1.6s-1.4,0.5-2.1,0.5c-0.9,0-1.7-0.1-2.3-0.4s-1.1-0.6-1.4-1
		c-0.3-0.4-0.6-1-0.7-1.6c-0.1-0.6-0.2-1.4-0.2-2.1v-7.7h3.5v7.1c0,1,0.2,1.8,0.5,2.3c0.3,0.5,0.9,0.8,1.7,0.8c0.9,0,1.6-0.3,2-0.8
		c0.4-0.6,0.6-1.5,0.6-2.8v-6.6h3.5v12.6H129.6z"/>
	<path class="st0" d="M138.5,111.1v1.8h0.1c0.4-0.7,1-1.3,1.7-1.6s1.4-0.5,2.1-0.5c0.9,0,1.7,0.1,2.3,0.4c0.6,0.3,1.1,0.6,1.4,1
		c0.3,0.4,0.6,1,0.7,1.6c0.1,0.6,0.2,1.4,0.2,2.1v7.7h-3.5v-7.1c0-1-0.2-1.8-0.5-2.3c-0.3-0.5-0.9-0.8-1.7-0.8c-0.9,0-1.6,0.3-2,0.8
		c-0.4,0.6-0.6,1.5-0.6,2.8v6.6h-3.5v-12.6H138.5z"/>
	<path class="st0" d="M155.5,113.3c-0.6,0-1,0.1-1.4,0.4c-0.4,0.3-0.7,0.6-0.9,1s-0.4,0.8-0.5,1.3c-0.1,0.5-0.1,1-0.1,1.4
		c0,0.5,0,0.9,0.1,1.4c0.1,0.5,0.3,0.9,0.5,1.3c0.2,0.4,0.5,0.7,0.9,0.9c0.4,0.2,0.8,0.4,1.4,0.4c0.8,0,1.5-0.2,1.9-0.7
		c0.4-0.5,0.7-1.1,0.8-1.9h3.3c-0.2,1.7-0.9,2.9-1.9,3.8c-1.1,0.9-2.4,1.3-4.1,1.3c-0.9,0-1.8-0.2-2.6-0.5c-0.8-0.3-1.5-0.8-2-1.3
		c-0.6-0.6-1-1.2-1.3-2c-0.3-0.8-0.5-1.7-0.5-2.6c0-1,0.1-1.9,0.4-2.7c0.3-0.8,0.7-1.6,1.3-2.2c0.6-0.6,1.2-1.1,2-1.4
		c0.8-0.3,1.7-0.5,2.7-0.5c0.7,0,1.5,0.1,2.2,0.3c0.7,0.2,1.3,0.5,1.9,0.9c0.5,0.4,1,0.9,1.3,1.5s0.5,1.3,0.6,2.1h-3.4
		C157.8,114,157,113.3,155.5,113.3z"/>
	<path class="st0" d="M163.3,114.6c0.3-0.8,0.7-1.5,1.3-2.1s1.2-1,2-1.3c0.8-0.3,1.7-0.5,2.7-0.5s1.9,0.2,2.7,0.5
		c0.8,0.3,1.5,0.8,2.1,1.3s1,1.3,1.3,2.1c0.3,0.8,0.5,1.7,0.5,2.7s-0.2,1.9-0.5,2.7c-0.3,0.8-0.7,1.5-1.3,2.1
		c-0.6,0.6-1.3,1-2.1,1.3c-0.8,0.3-1.7,0.5-2.7,0.5s-1.9-0.2-2.7-0.5c-0.8-0.3-1.5-0.8-2-1.3c-0.6-0.6-1-1.3-1.3-2.1
		c-0.3-0.8-0.5-1.7-0.5-2.7S163,115.4,163.3,114.6z M166.5,118.8c0.1,0.5,0.3,0.9,0.5,1.3c0.2,0.4,0.5,0.7,0.9,0.9
		c0.4,0.2,0.9,0.3,1.5,0.3s1.1-0.1,1.5-0.3c0.4-0.2,0.7-0.5,1-0.9c0.2-0.4,0.4-0.8,0.5-1.3c0.1-0.5,0.1-1,0.1-1.5s0-1-0.1-1.5
		c-0.1-0.5-0.3-0.9-0.5-1.3c-0.2-0.4-0.6-0.7-1-0.9c-0.4-0.2-0.9-0.4-1.5-0.4s-1.1,0.1-1.5,0.4c-0.4,0.2-0.7,0.5-0.9,0.9
		c-0.2,0.4-0.4,0.8-0.5,1.3c-0.1,0.5-0.1,1-0.1,1.5S166.4,118.4,166.5,118.8z"/>
	<path class="st0" d="M181,123.7l-4.3-12.6h3.6l2.7,8.6h0l2.7-8.6h3.4l-4.3,12.6H181z"/>
	<path class="st0" d="M194,120.6c0.5,0.5,1.3,0.8,2.2,0.8c0.7,0,1.3-0.2,1.8-0.5c0.5-0.3,0.8-0.7,0.9-1.1h3
		c-0.5,1.5-1.2,2.6-2.2,3.2c-1,0.6-2.2,1-3.7,1c-1,0-1.9-0.2-2.7-0.5c-0.8-0.3-1.5-0.8-2-1.4c-0.6-0.6-1-1.3-1.3-2.1
		c-0.3-0.8-0.5-1.7-0.5-2.7c0-0.9,0.2-1.8,0.5-2.6s0.7-1.5,1.3-2.1c0.6-0.6,1.2-1.1,2-1.4c0.8-0.3,1.7-0.5,2.6-0.5
		c1.1,0,2,0.2,2.8,0.6s1.5,1,2,1.7c0.5,0.7,0.9,1.5,1.1,2.4s0.3,1.8,0.2,2.8h-9.1C193.2,119.3,193.5,120.1,194,120.6z M197.9,114
		c-0.4-0.5-1-0.7-1.9-0.7c-0.6,0-1,0.1-1.4,0.3c-0.4,0.2-0.7,0.4-0.9,0.7c-0.2,0.3-0.4,0.6-0.5,0.9c-0.1,0.3-0.1,0.6-0.2,0.8h5.6
		C198.6,115.1,198.4,114.5,197.9,114z"/>
	<path class="st0" d="M207.4,111.1v2.3h0c0.2-0.4,0.4-0.8,0.7-1.1s0.6-0.6,1-0.9c0.4-0.2,0.7-0.4,1.1-0.5c0.4-0.1,0.8-0.2,1.3-0.2
		c0.2,0,0.5,0,0.8,0.1v3.2c-0.2,0-0.4-0.1-0.6-0.1s-0.4,0-0.7,0c-0.6,0-1.2,0.1-1.6,0.3s-0.8,0.5-1.1,0.9c-0.3,0.4-0.5,0.8-0.6,1.3
		c-0.1,0.5-0.2,1-0.2,1.6v5.7h-3.5v-12.6H207.4z"/>
	<path class="st0" d="M216.6,120.6c0.5,0.5,1.3,0.8,2.2,0.8c0.7,0,1.3-0.2,1.8-0.5c0.5-0.3,0.8-0.7,0.9-1.1h3
		c-0.5,1.5-1.2,2.6-2.2,3.2c-1,0.6-2.2,1-3.7,1c-1,0-1.9-0.2-2.7-0.5c-0.8-0.3-1.5-0.8-2-1.4c-0.6-0.6-1-1.3-1.3-2.1
		c-0.3-0.8-0.5-1.7-0.5-2.7c0-0.9,0.2-1.8,0.5-2.6s0.7-1.5,1.3-2.1c0.6-0.6,1.2-1.1,2-1.4c0.8-0.3,1.7-0.5,2.6-0.5
		c1.1,0,2,0.2,2.8,0.6s1.5,1,2,1.7c0.5,0.7,0.9,1.5,1.1,2.4s0.3,1.8,0.2,2.8h-9.1C215.8,119.3,216.1,120.1,216.6,120.6z M220.5,114
		c-0.4-0.5-1-0.7-1.9-0.7c-0.6,0-1,0.1-1.4,0.3c-0.4,0.2-0.7,0.4-0.9,0.7c-0.2,0.3-0.4,0.6-0.5,0.9c-0.1,0.3-0.1,0.6-0.2,0.8h5.6
		C221.2,115.1,220.9,114.5,220.5,114z"/>
	<path class="st0" d="M235.6,122c-0.4,0.7-0.9,1.2-1.6,1.5c-0.7,0.3-1.4,0.5-2.2,0.5c-0.9,0-1.8-0.2-2.5-0.5s-1.3-0.9-1.8-1.5
		c-0.5-0.6-0.8-1.3-1-2.2s-0.4-1.7-0.4-2.5c0-0.8,0.1-1.7,0.4-2.4c0.2-0.8,0.6-1.5,1-2.1c0.5-0.6,1-1.1,1.7-1.4
		c0.7-0.4,1.5-0.5,2.4-0.5c0.7,0,1.5,0.2,2.1,0.5c0.7,0.3,1.2,0.8,1.6,1.4h0v-6.3h3.5v17.4h-3.3L235.6,122L235.6,122z M235.4,115.8
		c-0.1-0.5-0.3-0.9-0.5-1.3c-0.2-0.4-0.5-0.7-0.9-0.9c-0.4-0.2-0.8-0.3-1.4-0.3s-1,0.1-1.4,0.3c-0.4,0.2-0.7,0.5-0.9,0.9
		c-0.2,0.4-0.4,0.8-0.5,1.3c-0.1,0.5-0.2,1-0.2,1.5c0,0.5,0.1,1,0.2,1.5c0.1,0.5,0.3,0.9,0.5,1.3c0.3,0.4,0.6,0.7,1,0.9
		s0.8,0.4,1.4,0.4c0.6,0,1-0.1,1.4-0.3c0.4-0.2,0.7-0.5,0.9-0.9c0.2-0.4,0.4-0.8,0.5-1.3s0.1-1,0.1-1.5
		C235.6,116.8,235.5,116.3,235.4,115.8z"/>
</g>
<g>
	<path class="st0" d="M52.1,135.4v1.7h0c0.5-0.6,1-1.2,1.6-1.5c0.6-0.4,1.4-0.5,2.2-0.5c0.8,0,1.5,0.2,2.2,0.5
		c0.7,0.3,1.2,0.9,1.5,1.6c0.4-0.6,0.9-1,1.5-1.5c0.6-0.4,1.4-0.6,2.3-0.6c0.7,0,1.3,0.1,1.9,0.2c0.6,0.2,1.1,0.4,1.5,0.8
		c0.4,0.4,0.7,0.8,1,1.4c0.2,0.6,0.3,1.3,0.3,2.1v8.4h-3.5v-7.1c0-0.4,0-0.8,0-1.2c0-0.4-0.1-0.7-0.3-1c-0.1-0.3-0.4-0.5-0.6-0.7
		s-0.7-0.2-1.2-0.2c-0.5,0-0.9,0.1-1.2,0.3c-0.3,0.2-0.5,0.4-0.7,0.7c-0.2,0.3-0.3,0.6-0.3,1c-0.1,0.4-0.1,0.8-0.1,1.2v7h-3.5v-7.1
		c0-0.4,0-0.7,0-1.1c0-0.4-0.1-0.7-0.2-1c-0.1-0.3-0.3-0.6-0.6-0.7c-0.3-0.2-0.7-0.3-1.3-0.3c-0.2,0-0.4,0-0.6,0.1
		c-0.3,0.1-0.5,0.2-0.8,0.4c-0.3,0.2-0.5,0.5-0.6,0.9c-0.2,0.4-0.3,0.9-0.3,1.5v7.3h-3.5v-12.6H52.1z"/>
	<path class="st0" d="M74.3,145c0.5,0.5,1.3,0.8,2.2,0.8c0.7,0,1.3-0.2,1.8-0.5c0.5-0.3,0.8-0.7,0.9-1.1h3c-0.5,1.5-1.2,2.6-2.2,3.2
		c-1,0.7-2.2,1-3.7,1c-1,0-1.9-0.2-2.7-0.5c-0.8-0.3-1.5-0.8-2-1.4c-0.6-0.6-1-1.3-1.3-2.1c-0.3-0.8-0.5-1.7-0.5-2.7
		c0-0.9,0.2-1.8,0.5-2.6c0.3-0.8,0.7-1.5,1.3-2.1c0.6-0.6,1.2-1.1,2-1.4s1.7-0.5,2.6-0.5c1.1,0,2,0.2,2.8,0.6c0.8,0.4,1.4,1,2,1.7
		s0.9,1.5,1.1,2.4c0.2,0.9,0.3,1.8,0.2,2.8h-9.1C73.5,143.7,73.8,144.5,74.3,145z M78.2,138.4c-0.4-0.5-1-0.7-1.9-0.7
		c-0.6,0-1,0.1-1.4,0.3c-0.4,0.2-0.7,0.4-0.9,0.7c-0.2,0.3-0.4,0.6-0.5,0.9c-0.1,0.3-0.1,0.6-0.2,0.8h5.6
		C78.9,139.5,78.6,138.8,78.2,138.4z"/>
	<path class="st0" d="M93.3,146.4c-0.4,0.7-0.9,1.2-1.6,1.5c-0.7,0.3-1.4,0.5-2.2,0.5c-0.9,0-1.8-0.2-2.5-0.5
		c-0.7-0.4-1.3-0.9-1.8-1.5c-0.5-0.6-0.8-1.3-1-2.2c-0.2-0.8-0.4-1.7-0.4-2.5c0-0.8,0.1-1.7,0.4-2.4c0.2-0.8,0.6-1.5,1-2.1
		s1-1.1,1.7-1.4c0.7-0.4,1.5-0.5,2.4-0.5c0.7,0,1.5,0.2,2.1,0.5s1.2,0.8,1.6,1.4h0v-6.3h3.5V148h-3.3L93.3,146.4L93.3,146.4z
		 M93.2,140.2c-0.1-0.5-0.3-0.9-0.5-1.3s-0.5-0.7-0.9-0.9s-0.8-0.3-1.4-0.3c-0.6,0-1,0.1-1.4,0.3c-0.4,0.2-0.7,0.5-0.9,0.9
		c-0.2,0.4-0.4,0.8-0.5,1.3c-0.1,0.5-0.2,1-0.2,1.5c0,0.5,0.1,1,0.2,1.5c0.1,0.5,0.3,0.9,0.5,1.3c0.3,0.4,0.6,0.7,1,0.9
		c0.4,0.2,0.8,0.4,1.4,0.4c0.6,0,1-0.1,1.4-0.3s0.7-0.5,0.9-0.9c0.2-0.4,0.4-0.8,0.5-1.3s0.1-1,0.1-1.5
		C93.3,141.2,93.3,140.7,93.2,140.2z"/>
	<path class="st0" d="M99.1,133.5v-2.8h3.5v2.8H99.1z M102.6,135.4V148h-3.5v-12.6H102.6z"/>
	<path class="st0" d="M111.1,137.7c-0.6,0-1,0.1-1.4,0.4c-0.4,0.3-0.7,0.6-0.9,1c-0.2,0.4-0.4,0.8-0.5,1.3c-0.1,0.5-0.1,1-0.1,1.4
		c0,0.5,0,0.9,0.1,1.4c0.1,0.5,0.3,0.9,0.5,1.3s0.5,0.7,0.9,0.9s0.8,0.4,1.4,0.4c0.8,0,1.5-0.2,1.9-0.7s0.7-1.1,0.8-1.9h3.3
		c-0.2,1.7-0.9,2.9-1.9,3.8s-2.4,1.3-4.1,1.3c-0.9,0-1.8-0.2-2.6-0.5c-0.8-0.3-1.5-0.8-2-1.3c-0.6-0.6-1-1.2-1.3-2
		c-0.3-0.8-0.5-1.7-0.5-2.6c0-1,0.1-1.9,0.4-2.7c0.3-0.8,0.7-1.6,1.3-2.2c0.6-0.6,1.2-1.1,2-1.4c0.8-0.3,1.7-0.5,2.7-0.5
		c0.7,0,1.5,0.1,2.2,0.3c0.7,0.2,1.3,0.5,1.9,0.9c0.5,0.4,1,0.9,1.3,1.5c0.3,0.6,0.5,1.3,0.6,2.1h-3.4
		C113.4,138.4,112.6,137.7,111.1,137.7z"/>
	<path class="st0" d="M118.7,139.3c0-0.8,0.3-1.5,0.6-2c0.4-0.5,0.8-1,1.4-1.3c0.6-0.3,1.2-0.6,1.9-0.7c0.7-0.1,1.4-0.2,2.1-0.2
		c0.6,0,1.3,0,1.9,0.1c0.6,0.1,1.2,0.3,1.8,0.5s1,0.6,1.3,1.1s0.5,1.1,0.5,1.8v6.6c0,0.6,0,1.1,0.1,1.6s0.2,0.9,0.3,1.2h-3.5
		c-0.1-0.2-0.1-0.4-0.2-0.6s-0.1-0.4-0.1-0.6c-0.6,0.6-1.2,1-1.9,1.2c-0.7,0.2-1.5,0.3-2.3,0.3c-0.6,0-1.2-0.1-1.7-0.2
		c-0.5-0.1-1-0.4-1.4-0.7c-0.4-0.3-0.7-0.7-0.9-1.2c-0.2-0.5-0.3-1-0.3-1.7c0-0.7,0.1-1.3,0.4-1.8c0.3-0.5,0.6-0.8,1-1.1
		c0.4-0.3,0.9-0.5,1.4-0.6c0.5-0.1,1-0.2,1.5-0.3c0.5-0.1,1-0.1,1.5-0.2s1-0.1,1.3-0.2c0.4-0.1,0.7-0.2,0.9-0.4
		c0.2-0.2,0.3-0.5,0.3-0.8c0-0.4-0.1-0.7-0.2-0.9c-0.1-0.2-0.3-0.4-0.5-0.5s-0.4-0.2-0.7-0.2c-0.3,0-0.6-0.1-0.9-0.1
		c-0.7,0-1.2,0.1-1.6,0.4s-0.6,0.8-0.7,1.5H118.7z M126.7,141.8c-0.1,0.1-0.3,0.2-0.5,0.3s-0.5,0.1-0.7,0.2c-0.3,0-0.5,0.1-0.8,0.1
		c-0.3,0-0.6,0.1-0.8,0.1c-0.3,0-0.5,0.1-0.8,0.2c-0.3,0.1-0.5,0.2-0.7,0.3c-0.2,0.1-0.3,0.3-0.5,0.5c-0.1,0.2-0.2,0.5-0.2,0.8
		c0,0.3,0.1,0.6,0.2,0.8c0.1,0.2,0.3,0.4,0.5,0.5c0.2,0.1,0.4,0.2,0.7,0.3c0.3,0,0.5,0.1,0.8,0.1c0.7,0,1.2-0.1,1.6-0.3
		c0.4-0.2,0.6-0.5,0.8-0.8c0.2-0.3,0.3-0.6,0.3-1c0-0.3,0.1-0.6,0.1-0.8V141.8z"/>
	<path class="st0" d="M136.2,130.6V148h-3.5v-17.4H136.2z"/>
	<path class="st0" d="M148.9,145c0.5,0.5,1.3,0.8,2.2,0.8c0.7,0,1.3-0.2,1.8-0.5c0.5-0.3,0.8-0.7,0.9-1.1h3
		c-0.5,1.5-1.2,2.6-2.2,3.2c-1,0.7-2.2,1-3.7,1c-1,0-1.9-0.2-2.7-0.5c-0.8-0.3-1.5-0.8-2-1.4c-0.6-0.6-1-1.3-1.3-2.1
		c-0.3-0.8-0.5-1.7-0.5-2.7c0-0.9,0.2-1.8,0.5-2.6c0.3-0.8,0.7-1.5,1.3-2.1s1.2-1.1,2-1.4s1.7-0.5,2.6-0.5c1.1,0,2,0.2,2.8,0.6
		c0.8,0.4,1.5,1,2,1.7c0.5,0.7,0.9,1.5,1.1,2.4s0.3,1.8,0.2,2.8H148C148.1,143.7,148.4,144.5,148.9,145z M152.8,138.4
		c-0.4-0.5-1-0.7-1.9-0.7c-0.6,0-1,0.1-1.4,0.3c-0.4,0.2-0.7,0.4-0.9,0.7c-0.2,0.3-0.4,0.6-0.5,0.9c-0.1,0.3-0.1,0.6-0.2,0.8h5.6
		C153.5,139.5,153.2,138.8,152.8,138.4z"/>
	<path class="st0" d="M158,135.4h3.9l2.2,3.3l2.2-3.3h3.8l-4.1,5.9l4.7,6.7h-3.9l-2.6-4l-2.6,4h-3.9l4.5-6.6L158,135.4z"/>
	<path class="st0" d="M175.1,135.4v1.6h0c0.4-0.7,1-1.2,1.6-1.5c0.6-0.3,1.4-0.5,2.1-0.5c1,0,1.8,0.2,2.6,0.6
		c0.7,0.4,1.3,0.9,1.8,1.5s0.8,1.3,1,2.2c0.2,0.8,0.3,1.7,0.3,2.6c0,0.8-0.1,1.7-0.3,2.4c-0.2,0.8-0.6,1.5-1,2.1
		c-0.5,0.6-1,1.1-1.7,1.4c-0.7,0.4-1.5,0.5-2.4,0.5c-0.8,0-1.5-0.2-2.2-0.5c-0.7-0.3-1.2-0.8-1.6-1.4h0v6h-3.5v-17H175.1z
		 M179.6,145.4c0.4-0.2,0.7-0.5,0.9-0.9c0.2-0.4,0.4-0.8,0.5-1.3s0.1-1,0.1-1.5c0-0.5-0.1-1-0.2-1.5c-0.1-0.5-0.3-0.9-0.5-1.3
		c-0.2-0.4-0.6-0.7-0.9-0.9c-0.4-0.2-0.8-0.4-1.4-0.4c-0.6,0-1,0.1-1.4,0.4s-0.7,0.5-0.9,0.9c-0.2,0.4-0.4,0.8-0.5,1.3
		s-0.1,1-0.1,1.5c0,0.5,0.1,1,0.2,1.5c0.1,0.5,0.3,0.9,0.5,1.3c0.2,0.4,0.5,0.7,0.9,0.9s0.9,0.3,1.4,0.3
		C178.7,145.7,179.2,145.6,179.6,145.4z"/>
	<path class="st0" d="M190.2,145c0.5,0.5,1.3,0.8,2.2,0.8c0.7,0,1.3-0.2,1.8-0.5c0.5-0.3,0.8-0.7,0.9-1.1h3
		c-0.5,1.5-1.2,2.6-2.2,3.2c-1,0.7-2.2,1-3.7,1c-1,0-1.9-0.2-2.7-0.5c-0.8-0.3-1.5-0.8-2-1.4c-0.6-0.6-1-1.3-1.3-2.1
		c-0.3-0.8-0.5-1.7-0.5-2.7c0-0.9,0.2-1.8,0.5-2.6c0.3-0.8,0.7-1.5,1.3-2.1s1.2-1.1,2-1.4s1.7-0.5,2.6-0.5c1.1,0,2,0.2,2.8,0.6
		c0.8,0.4,1.5,1,2,1.7c0.5,0.7,0.9,1.5,1.1,2.4s0.3,1.8,0.2,2.8h-9.1C189.4,143.7,189.6,144.5,190.2,145z M194.1,138.4
		c-0.4-0.5-1-0.7-1.9-0.7c-0.6,0-1,0.1-1.4,0.3c-0.4,0.2-0.7,0.4-0.9,0.7c-0.2,0.3-0.4,0.6-0.5,0.9c-0.1,0.3-0.1,0.6-0.2,0.8h5.6
		C194.8,139.5,194.5,138.8,194.1,138.4z"/>
	<path class="st0" d="M203.5,135.4v1.8h0.1c0.4-0.7,1-1.3,1.7-1.6s1.4-0.5,2.1-0.5c0.9,0,1.7,0.1,2.3,0.4s1.1,0.6,1.4,1
		c0.3,0.4,0.6,1,0.7,1.6s0.2,1.4,0.2,2.1v7.7h-3.5v-7.1c0-1-0.2-1.8-0.5-2.3s-0.9-0.8-1.7-0.8c-0.9,0-1.6,0.3-2,0.8
		c-0.4,0.6-0.6,1.5-0.6,2.8v6.6h-3.5v-12.6H203.5z"/>
	<path class="st0" d="M217.4,144.9c0.2,0.3,0.4,0.5,0.6,0.7c0.2,0.2,0.5,0.3,0.8,0.4c0.3,0.1,0.6,0.1,1,0.1c0.2,0,0.5,0,0.8-0.1
		c0.3-0.1,0.5-0.1,0.7-0.3c0.2-0.1,0.4-0.3,0.5-0.5c0.1-0.2,0.2-0.5,0.2-0.8c0-0.5-0.3-0.9-1-1.2c-0.7-0.3-1.7-0.5-2.9-0.8
		c-0.5-0.1-1-0.2-1.5-0.4c-0.5-0.2-0.9-0.4-1.3-0.6c-0.4-0.3-0.7-0.6-0.9-0.9c-0.2-0.4-0.3-0.8-0.3-1.4c0-0.8,0.2-1.5,0.5-2
		s0.7-0.9,1.3-1.2c0.5-0.3,1.1-0.5,1.8-0.6c0.6-0.1,1.3-0.2,2-0.2c0.7,0,1.3,0.1,2,0.2s1.2,0.3,1.7,0.7c0.5,0.3,0.9,0.7,1.3,1.2
		c0.3,0.5,0.5,1.2,0.6,1.9h-3.3c0-0.7-0.3-1.1-0.8-1.4c-0.5-0.2-1-0.4-1.6-0.4c-0.2,0-0.4,0-0.6,0c-0.2,0-0.4,0.1-0.6,0.2
		c-0.2,0.1-0.3,0.2-0.5,0.4c-0.1,0.2-0.2,0.4-0.2,0.6c0,0.3,0.1,0.6,0.3,0.8c0.2,0.2,0.5,0.4,0.9,0.5c0.4,0.1,0.8,0.2,1.3,0.3
		s1,0.2,1.4,0.3c0.5,0.1,1,0.3,1.5,0.4c0.5,0.2,0.9,0.4,1.3,0.6c0.4,0.3,0.7,0.6,0.9,1c0.2,0.4,0.3,0.9,0.3,1.5
		c0,0.8-0.2,1.5-0.5,2.1c-0.3,0.6-0.8,1-1.3,1.4c-0.5,0.3-1.1,0.6-1.8,0.7c-0.7,0.1-1.4,0.2-2.1,0.2c-0.7,0-1.4-0.1-2.1-0.2
		c-0.7-0.1-1.3-0.4-1.9-0.7c-0.5-0.3-1-0.8-1.3-1.4c-0.3-0.6-0.5-1.3-0.6-2.1h3.3C217.1,144.3,217.2,144.6,217.4,144.9z"/>
	<path class="st0" d="M231,145c0.5,0.5,1.3,0.8,2.2,0.8c0.7,0,1.3-0.2,1.8-0.5c0.5-0.3,0.8-0.7,0.9-1.1h3c-0.5,1.5-1.2,2.6-2.2,3.2
		c-1,0.7-2.2,1-3.7,1c-1,0-1.9-0.2-2.7-0.5c-0.8-0.3-1.5-0.8-2-1.4c-0.6-0.6-1-1.3-1.3-2.1c-0.3-0.8-0.5-1.7-0.5-2.7
		c0-0.9,0.2-1.8,0.5-2.6c0.3-0.8,0.7-1.5,1.3-2.1s1.2-1.1,2-1.4s1.7-0.5,2.6-0.5c1.1,0,2,0.2,2.8,0.6c0.8,0.4,1.5,1,2,1.7
		c0.5,0.7,0.9,1.5,1.1,2.4s0.3,1.8,0.2,2.8h-9.1C230.2,143.7,230.5,144.5,231,145z M234.9,138.4c-0.4-0.5-1-0.7-1.9-0.7
		c-0.6,0-1,0.1-1.4,0.3c-0.4,0.2-0.7,0.4-0.9,0.7c-0.2,0.3-0.4,0.6-0.5,0.9c-0.1,0.3-0.1,0.6-0.2,0.8h5.6
		C235.6,139.5,235.3,138.8,234.9,138.4z"/>
	<path class="st0" d="M244,144.9c0.2,0.3,0.4,0.5,0.6,0.7c0.2,0.2,0.5,0.3,0.8,0.4c0.3,0.1,0.6,0.1,1,0.1c0.2,0,0.5,0,0.8-0.1
		c0.3-0.1,0.5-0.1,0.7-0.3c0.2-0.1,0.4-0.3,0.5-0.5c0.1-0.2,0.2-0.5,0.2-0.8c0-0.5-0.3-0.9-1-1.2c-0.7-0.3-1.7-0.5-2.9-0.8
		c-0.5-0.1-1-0.2-1.5-0.4c-0.5-0.2-0.9-0.4-1.3-0.6c-0.4-0.3-0.7-0.6-0.9-0.9c-0.2-0.4-0.3-0.8-0.3-1.4c0-0.8,0.2-1.5,0.5-2
		s0.7-0.9,1.3-1.2c0.5-0.3,1.1-0.5,1.8-0.6c0.6-0.1,1.3-0.2,2-0.2c0.7,0,1.3,0.1,2,0.2s1.2,0.3,1.7,0.7c0.5,0.3,0.9,0.7,1.3,1.2
		c0.3,0.5,0.5,1.2,0.6,1.9h-3.3c0-0.7-0.3-1.1-0.8-1.4c-0.5-0.2-1-0.4-1.6-0.4c-0.2,0-0.4,0-0.6,0c-0.2,0-0.4,0.1-0.6,0.2
		c-0.2,0.1-0.3,0.2-0.5,0.4c-0.1,0.2-0.2,0.4-0.2,0.6c0,0.3,0.1,0.6,0.3,0.8c0.2,0.2,0.5,0.4,0.9,0.5c0.4,0.1,0.8,0.2,1.3,0.3
		s1,0.2,1.4,0.3c0.5,0.1,1,0.3,1.5,0.4c0.5,0.2,0.9,0.4,1.3,0.6c0.4,0.3,0.7,0.6,0.9,1c0.2,0.4,0.3,0.9,0.3,1.5
		c0,0.8-0.2,1.5-0.5,2.1c-0.3,0.6-0.8,1-1.3,1.4c-0.5,0.3-1.1,0.6-1.8,0.7c-0.7,0.1-1.4,0.2-2.1,0.2c-0.7,0-1.4-0.1-2.1-0.2
		c-0.7-0.1-1.3-0.4-1.9-0.7c-0.5-0.3-1-0.8-1.3-1.4c-0.3-0.6-0.5-1.3-0.6-2.1h3.3C243.8,144.3,243.8,144.6,244,144.9z"/>
</g>
</svg>
