<?xml version="1.0" encoding="utf-8"?>
<!-- Generator: Adobe Illustrator 26.5.0, SVG Export Plug-In . SVG Version: 6.00 Build 0)  -->
<svg version="1.1" id="Layer_1" xmlns="http://www.w3.org/2000/svg" xmlns:xlink="http://www.w3.org/1999/xlink" x="0px" y="0px"
	 viewBox="0 0 300 250" style="enable-background:new 0 0 300 250;" xml:space="preserve">
<style type="text/css">
	.st0{fill:#339933;}
	.st1{fill:#231F20;}
</style>
<g>
	<path class="st0" d="M122.6,58.1v20h-4.4v-20H122.6z"/>
	<path class="st0" d="M124.5,66.2v-2.7h2.4v-1.1c0-1.3,0.4-2.3,1.2-3.2c0.8-0.8,2-1.2,3.6-1.2c0.4,0,0.7,0,1.1,0
		c0.4,0,0.7,0.1,1,0.1v3c-0.5-0.1-1-0.1-1.5-0.1c-0.5,0-0.9,0.1-1.2,0.4c-0.2,0.3-0.4,0.7-0.4,1.3v0.9h2.7v2.7h-2.7V78h-4V66.2
		H124.5z"/>
	<path class="st0" d="M151.1,63.6v2.7h-2.9v7.2c0,0.7,0.1,1.1,0.3,1.3c0.2,0.2,0.7,0.3,1.3,0.3c0.2,0,0.4,0,0.6,0
		c0.2,0,0.4,0,0.6-0.1V78c-0.3,0.1-0.7,0.1-1.1,0.1s-0.8,0-1.2,0c-0.6,0-1.2,0-1.8-0.1s-1-0.2-1.5-0.5c-0.4-0.2-0.8-0.6-1-1
		c-0.2-0.4-0.4-1-0.4-1.8v-8.5h-2.4v-2.7h2.4v-4.3h4v4.3H151.1z"/>
	<path class="st0" d="M157,58.1v7.5h0.1c0.5-0.8,1.1-1.5,1.9-1.8c0.8-0.4,1.5-0.6,2.3-0.6c1.1,0,1.9,0.1,2.6,0.4
		c0.7,0.3,1.2,0.7,1.6,1.2c0.4,0.5,0.7,1.1,0.8,1.9c0.2,0.7,0.2,1.6,0.2,2.5V78h-4v-8.2c0-1.2-0.2-2.1-0.6-2.7s-1-0.9-2-0.9
		c-1.1,0-1.9,0.3-2.4,1S157,69,157,70.5V78h-4v-20H157z"/>
	<path class="st0" d="M173.9,74.6c0.6,0.6,1.5,0.9,2.6,0.9c0.8,0,1.5-0.2,2.1-0.6c0.6-0.4,0.9-0.8,1.1-1.3h3.5
		c-0.6,1.7-1.4,3-2.6,3.7c-1.2,0.7-2.6,1.1-4.2,1.1c-1.1,0-2.2-0.2-3.1-0.5c-0.9-0.4-1.7-0.9-2.3-1.6c-0.6-0.7-1.1-1.5-1.5-2.4
		c-0.3-0.9-0.5-2-0.5-3.1c0-1.1,0.2-2.1,0.5-3c0.4-0.9,0.9-1.7,1.5-2.4c0.7-0.7,1.4-1.2,2.3-1.6c0.9-0.4,1.9-0.6,3-0.6
		c1.2,0,2.3,0.2,3.2,0.7c0.9,0.5,1.7,1.1,2.3,1.9s1,1.7,1.3,2.7c0.3,1,0.4,2.1,0.3,3.2h-10.4C173,73.1,173.3,74,173.9,74.6z
		 M178.4,67c-0.5-0.5-1.2-0.8-2.2-0.8c-0.6,0-1.2,0.1-1.6,0.3c-0.4,0.2-0.8,0.5-1,0.8s-0.4,0.7-0.5,1c-0.1,0.4-0.2,0.7-0.2,1h6.5
		C179.2,68.2,178.9,67.5,178.4,67z"/>
</g>
<g>
	<path class="st1" d="M55.4,87.1c0.9,0,1.7,0.1,2.4,0.4c0.7,0.3,1.3,0.7,1.8,1.2c0.5,0.5,0.9,1.1,1.2,1.8c0.3,0.7,0.4,1.4,0.4,2.1
		c0,1.2-0.2,2.2-0.7,3.1s-1.3,1.5-2.4,2v0.1c0.5,0.1,1,0.4,1.3,0.7c0.4,0.3,0.6,0.7,0.9,1.1c0.2,0.4,0.4,0.9,0.5,1.4
		c0.1,0.5,0.2,1,0.2,1.5c0,0.3,0,0.7,0.1,1.1c0,0.4,0.1,0.9,0.1,1.3c0,0.4,0.1,0.9,0.2,1.3s0.3,0.7,0.5,1h-4.4
		c-0.2-0.6-0.4-1.4-0.4-2.3c-0.1-0.9-0.1-1.7-0.3-2.5c-0.1-1-0.5-1.8-1-2.3c-0.5-0.5-1.3-0.7-2.4-0.7H49v7.8h-4.4v-20H55.4z
		 M53.8,96.1c1,0,1.8-0.2,2.3-0.7c0.5-0.4,0.8-1.2,0.8-2.2c0-1-0.3-1.7-0.8-2.1c-0.5-0.4-1.3-0.7-2.3-0.7H49v5.6H53.8z"/>
	<path class="st1" d="M79.8,87.1v3.7H69.2V95h9.7v3.4h-9.7v4.9H80v3.7H64.8v-20H79.8z"/>
	<path class="st1" d="M81.4,90.8v-3.7h16.4v3.7h-6v16.3h-4.4V90.8H81.4z"/>
	<path class="st1" d="M107.5,87.1l7.5,20h-4.6l-1.5-4.5h-7.5l-1.6,4.5h-4.4l7.6-20H107.5z M107.7,99.3l-2.5-7.3h-0.1l-2.6,7.3H107.7
		z"/>
	<path class="st1" d="M121.1,87.1v20h-4.4v-20H121.1z"/>
	<path class="st1" d="M129.3,87.1l8.3,13.4h0.1V87.1h4.1v20h-4.4l-8.3-13.4h-0.1v13.4h-4.1v-20H129.3z"/>
	<path class="st1" d="M160.6,87.1v3.7h-10.6V95h9.7v3.4h-9.7v4.9h10.8v3.7h-15.2v-20H160.6z"/>
	<path class="st1" d="M174.6,87.1c0.9,0,1.7,0.1,2.4,0.4c0.7,0.3,1.3,0.7,1.8,1.2c0.5,0.5,0.9,1.1,1.2,1.8c0.3,0.7,0.4,1.4,0.4,2.1
		c0,1.2-0.2,2.2-0.7,3.1c-0.5,0.9-1.3,1.5-2.4,2v0.1c0.5,0.1,1,0.4,1.3,0.7c0.4,0.3,0.6,0.7,0.9,1.1c0.2,0.4,0.4,0.9,0.5,1.4
		s0.2,1,0.2,1.5c0,0.3,0,0.7,0.1,1.1s0.1,0.9,0.1,1.3c0,0.4,0.1,0.9,0.2,1.3c0.1,0.4,0.3,0.7,0.5,1h-4.4c-0.2-0.6-0.4-1.4-0.4-2.3
		c-0.1-0.9-0.1-1.7-0.3-2.5c-0.1-1-0.5-1.8-1-2.3c-0.5-0.5-1.3-0.7-2.4-0.7h-4.4v7.8h-4.4v-20H174.6z M173,96.1c1,0,1.8-0.2,2.3-0.7
		c0.5-0.4,0.8-1.2,0.8-2.2c0-1-0.3-1.7-0.8-2.1c-0.5-0.4-1.3-0.7-2.3-0.7h-4.8v5.6H173z"/>
	<path class="st1" d="M205.9,87.1v3.7h-9.7v4.6h8.4v3.4h-8.4v8.3h-4.4v-20H205.9z"/>
	<path class="st1" d="M212.8,87.1v20h-4.4v-20H212.8z"/>
	<path class="st1" d="M215.1,90.8v-3.7h16.4v3.7h-6v16.3h-4.4V90.8H215.1z"/>
	<path class="st1" d="M237.2,102.1c0.2,0.5,0.6,0.8,1,1.1c0.4,0.3,0.9,0.5,1.4,0.6s1.1,0.2,1.7,0.2c0.4,0,0.8,0,1.3-0.1
		c0.4-0.1,0.9-0.2,1.3-0.4c0.4-0.2,0.7-0.4,1-0.8c0.3-0.3,0.4-0.7,0.4-1.2c0-0.5-0.2-1-0.5-1.3c-0.3-0.3-0.8-0.6-1.4-0.8
		c-0.6-0.2-1.2-0.4-1.9-0.6c-0.7-0.2-1.4-0.4-2.2-0.6c-0.7-0.2-1.5-0.4-2.2-0.7c-0.7-0.3-1.3-0.6-1.9-1.1c-0.6-0.4-1-1-1.4-1.6
		c-0.3-0.6-0.5-1.4-0.5-2.3c0-1,0.2-1.9,0.7-2.7c0.4-0.8,1-1.4,1.7-1.9c0.7-0.5,1.5-0.9,2.4-1.1c0.9-0.2,1.8-0.4,2.7-0.4
		c1,0,2,0.1,3,0.3c1,0.2,1.8,0.6,2.6,1.1c0.7,0.5,1.3,1.2,1.8,2s0.7,1.8,0.7,3h-4.3c0-0.6-0.2-1.1-0.4-1.5c-0.2-0.4-0.5-0.7-0.9-0.9
		s-0.8-0.4-1.2-0.5c-0.5-0.1-1-0.1-1.5-0.1c-0.4,0-0.7,0-1.1,0.1c-0.4,0.1-0.7,0.2-1,0.4s-0.5,0.4-0.7,0.7c-0.2,0.3-0.3,0.6-0.3,1.1
		c0,0.4,0.1,0.7,0.2,1c0.1,0.2,0.4,0.5,0.9,0.7c0.4,0.2,1,0.4,1.8,0.6c0.8,0.2,1.8,0.5,3,0.8c0.4,0.1,0.9,0.2,1.6,0.4
		c0.7,0.2,1.3,0.5,2,0.9c0.7,0.4,1.2,1,1.7,1.7c0.5,0.7,0.7,1.6,0.7,2.8c0,0.9-0.2,1.8-0.5,2.5c-0.4,0.8-0.9,1.5-1.6,2
		s-1.6,1-2.6,1.3c-1,0.3-2.2,0.5-3.6,0.5c-1.1,0-2.2-0.1-3.2-0.4c-1-0.3-2-0.7-2.7-1.3c-0.8-0.6-1.4-1.3-1.9-2.2s-0.7-2-0.7-3.2h4.3
		C236.8,101.1,236.9,101.7,237.2,102.1z"/>
	<path class="st1" d="M256.1,102.7v4.3c0,0.6-0.1,1.2-0.3,1.8s-0.5,1-0.9,1.4c-0.4,0.4-0.9,0.7-1.4,1c-0.5,0.3-1.1,0.4-1.7,0.5v-2
		c0.3-0.1,0.5-0.2,0.8-0.3s0.5-0.4,0.7-0.6c0.2-0.2,0.3-0.5,0.4-0.8c0.1-0.3,0.1-0.6,0.1-0.9h-2v-4.3H256.1z"/>
</g>
<g>
	<path class="st0" d="M106,136.1l-3.4-13.6h-0.1l-3.3,13.6h-4.5l-5.3-20h4.4l3.2,13.6h0.1l3.5-13.6h4.1l3.4,13.8h0.1l3.3-13.8h4.3
		l-5.4,20H106z"/>
	<path class="st0" d="M132.7,116.1v3.7h-10.6v4.3h9.7v3.4h-9.7v4.9h10.8v3.7h-15.2v-20H132.7z"/>
	<path class="st0" d="M145.8,116.1l7.5,20h-4.6l-1.5-4.5h-7.5l-1.6,4.5h-4.4l7.6-20H145.8z M146.1,128.3l-2.5-7.3h-0.1l-2.6,7.3
		H146.1z"/>
	<path class="st0" d="M165.8,116.1c0.9,0,1.7,0.1,2.4,0.4c0.7,0.3,1.3,0.7,1.8,1.2c0.5,0.5,0.9,1.1,1.2,1.8c0.3,0.7,0.4,1.4,0.4,2.1
		c0,1.2-0.2,2.2-0.7,3.1c-0.5,0.9-1.3,1.5-2.4,2v0.1c0.5,0.1,1,0.4,1.3,0.7c0.4,0.3,0.6,0.7,0.9,1.1c0.2,0.4,0.4,0.9,0.5,1.4
		s0.2,1,0.2,1.5c0,0.3,0,0.7,0.1,1.1c0,0.4,0.1,0.9,0.1,1.3s0.1,0.9,0.2,1.3c0.1,0.4,0.3,0.7,0.5,1h-4.4c-0.2-0.6-0.4-1.4-0.4-2.3
		c-0.1-0.9-0.1-1.7-0.3-2.5c-0.1-1-0.5-1.8-1-2.3s-1.3-0.7-2.4-0.7h-4.4v7.8H155v-20H165.8z M164.3,125.1c1,0,1.8-0.2,2.3-0.7
		c0.5-0.4,0.8-1.2,0.8-2.2c0-1-0.3-1.7-0.8-2.1c-0.5-0.4-1.3-0.7-2.3-0.7h-4.8v5.6H164.3z"/>
	<path class="st0" d="M187.4,116.1v20H183v-20H187.4z"/>
	<path class="st0" d="M189.7,119.8v-3.7h16.4v3.7h-6v16.3h-4.4v-16.3H189.7z"/>
	<path class="st0" d="M209.4,131.8v4.3H205v-4.3H209.4z"/>
</g>
</svg>
