<?xml version="1.0" encoding="utf-8"?>
<!-- Generator: Adobe Illustrator 26.5.0, SVG Export Plug-In . SVG Version: 6.00 Build 0)  -->
<svg version="1.1" id="Layer_1" xmlns="http://www.w3.org/2000/svg" xmlns:xlink="http://www.w3.org/1999/xlink" x="0px" y="0px"
	 viewBox="0 0 300 250" style="enable-background:new 0 0 300 250;" xml:space="preserve">
<style type="text/css">
	.st0{fill:#339933;}
	.st1{fill:#FFFFFF;}
</style>
<path class="st0" d="M87.6,172.7c-9.2,0-16.7,7.5-16.7,16.7c0,9.2,7.5,16.7,16.7,16.7h125c9.2,0,16.7-7.5,16.7-16.7
	c0-9.2-7.5-16.7-16.7-16.7H87.6z"/>
<g>
	<path class="st1" d="M106.2,183.5v8.1h4.9v1.8H104v-10H106.2z"/>
	<path class="st1" d="M119.8,183.5v1.8h-5.3v2.1h4.8v1.7h-4.8v2.5h5.4v1.8h-7.6v-10H119.8z"/>
	<path class="st1" d="M126.3,183.5l3.7,10h-2.3l-0.8-2.2h-3.7l-0.8,2.2h-2.2l3.8-10H126.3z M126.5,189.6l-1.3-3.7h0l-1.3,3.7H126.5z
		"/>
	<path class="st1" d="M136.3,183.5c0.4,0,0.9,0.1,1.2,0.2c0.4,0.1,0.7,0.3,0.9,0.6c0.3,0.3,0.5,0.5,0.6,0.9c0.1,0.3,0.2,0.7,0.2,1.1
		c0,0.6-0.1,1.1-0.4,1.5c-0.2,0.4-0.7,0.8-1.2,1v0c0.3,0.1,0.5,0.2,0.7,0.3c0.2,0.2,0.3,0.3,0.4,0.5c0.1,0.2,0.2,0.4,0.2,0.7
		s0.1,0.5,0.1,0.8c0,0.2,0,0.3,0,0.6s0,0.4,0,0.7c0,0.2,0.1,0.4,0.1,0.6c0.1,0.2,0.1,0.4,0.2,0.5h-2.2c-0.1-0.3-0.2-0.7-0.2-1.1
		c0-0.4-0.1-0.9-0.1-1.3c-0.1-0.5-0.2-0.9-0.5-1.1c-0.2-0.2-0.6-0.4-1.2-0.4h-2.2v3.9h-2.2v-10H136.3z M135.5,188
		c0.5,0,0.9-0.1,1.1-0.3c0.3-0.2,0.4-0.6,0.4-1.1c0-0.5-0.1-0.8-0.4-1.1c-0.3-0.2-0.6-0.3-1.1-0.3h-2.4v2.8H135.5z"/>
	<path class="st1" d="M143.2,183.5l4.2,6.7h0v-6.7h2.1v10h-2.2l-4.2-6.7h0v6.7H141v-10H143.2z"/>
	<path class="st1" d="M158.4,183.5l2.3,6.9h0l2.2-6.9h3.1v10H164v-7.1h0l-2.5,7.1h-1.7l-2.5-7h0v7h-2.1v-10H158.4z"/>
	<path class="st1" d="M167.9,186.4c0.2-0.6,0.5-1.2,1-1.7s0.9-0.8,1.5-1.1s1.3-0.4,2.1-0.4c0.8,0,1.5,0.1,2.1,0.4
		c0.6,0.3,1.1,0.6,1.5,1.1s0.7,1,1,1.7c0.2,0.6,0.3,1.3,0.3,2.1c0,0.7-0.1,1.4-0.3,2c-0.2,0.6-0.5,1.2-1,1.6
		c-0.4,0.5-0.9,0.8-1.5,1.1c-0.6,0.3-1.3,0.4-2.1,0.4c-0.8,0-1.5-0.1-2.1-0.4c-0.6-0.3-1.1-0.6-1.5-1.1c-0.4-0.5-0.7-1-1-1.6
		c-0.2-0.6-0.3-1.3-0.3-2C167.6,187.8,167.7,187.1,167.9,186.4z M169.9,189.8c0.1,0.4,0.3,0.8,0.5,1.1s0.5,0.6,0.8,0.8
		c0.3,0.2,0.8,0.3,1.3,0.3c0.5,0,0.9-0.1,1.3-0.3c0.3-0.2,0.6-0.4,0.8-0.8s0.4-0.7,0.5-1.1c0.1-0.4,0.1-0.8,0.1-1.2
		c0-0.4,0-0.9-0.1-1.3c-0.1-0.4-0.3-0.8-0.5-1.1s-0.5-0.6-0.8-0.8c-0.3-0.2-0.8-0.3-1.3-0.3c-0.5,0-0.9,0.1-1.3,0.3
		c-0.3,0.2-0.6,0.4-0.8,0.8s-0.4,0.7-0.5,1.1c-0.1,0.4-0.1,0.8-0.1,1.3C169.8,188.9,169.8,189.4,169.9,189.8z"/>
	<path class="st1" d="M184.3,183.5c0.4,0,0.9,0.1,1.2,0.2c0.4,0.1,0.7,0.3,0.9,0.6s0.5,0.5,0.6,0.9c0.1,0.3,0.2,0.7,0.2,1.1
		c0,0.6-0.1,1.1-0.4,1.5s-0.7,0.8-1.2,1v0c0.3,0.1,0.5,0.2,0.7,0.3c0.2,0.2,0.3,0.3,0.4,0.5c0.1,0.2,0.2,0.4,0.2,0.7
		c0.1,0.3,0.1,0.5,0.1,0.8c0,0.2,0,0.3,0,0.6c0,0.2,0,0.4,0,0.7c0,0.2,0.1,0.4,0.1,0.6c0.1,0.2,0.1,0.4,0.2,0.5h-2.2
		c-0.1-0.3-0.2-0.7-0.2-1.1c0-0.4-0.1-0.9-0.1-1.3c-0.1-0.5-0.2-0.9-0.5-1.1c-0.2-0.2-0.6-0.4-1.2-0.4h-2.2v3.9h-2.2v-10H184.3z
		 M183.5,188c0.5,0,0.9-0.1,1.1-0.3c0.3-0.2,0.4-0.6,0.4-1.1c0-0.5-0.1-0.8-0.4-1.1c-0.3-0.2-0.6-0.3-1.1-0.3h-2.4v2.8H183.5z"/>
	<path class="st1" d="M196.5,183.5v1.8h-5.3v2.1h4.8v1.7h-4.8v2.5h5.4v1.8H189v-10H196.5z"/>
</g>
</svg>
