<?xml version="1.0" encoding="utf-8"?>
<!-- Generator: Adobe Illustrator 26.5.0, SVG Export Plug-In . SVG Version: 6.00 Build 0)  -->
<svg version="1.1" id="Layer_1" xmlns="http://www.w3.org/2000/svg" xmlns:xlink="http://www.w3.org/1999/xlink" x="0px" y="0px"
	 viewBox="0 0 300 250" style="enable-background:new 0 0 300 250;" xml:space="preserve">
<style type="text/css">
	.st0{fill:#339933;}
</style>
<g>
	<path class="st0" d="M58.2,227.2c0.3-0.8,0.7-1.5,1.2-2c0.5-0.6,1.1-1,1.9-1.4c0.7-0.3,1.6-0.5,2.5-0.5c0.9,0,1.8,0.2,2.5,0.5
		c0.7,0.3,1.4,0.8,1.9,1.4c0.5,0.6,0.9,1.3,1.2,2c0.3,0.8,0.4,1.6,0.4,2.5c0,0.9-0.1,1.7-0.4,2.5c-0.3,0.8-0.7,1.4-1.2,2
		c-0.5,0.6-1.1,1-1.9,1.3c-0.7,0.3-1.6,0.5-2.5,0.5c-0.9,0-1.8-0.2-2.5-0.5c-0.7-0.3-1.4-0.8-1.9-1.3c-0.5-0.6-0.9-1.2-1.2-2
		c-0.3-0.8-0.4-1.6-0.4-2.5C57.8,228.8,58,228,58.2,227.2z M60.7,231.2c0.1,0.5,0.3,0.9,0.6,1.3c0.3,0.4,0.6,0.7,1,0.9
		c0.4,0.2,0.9,0.3,1.5,0.3s1.1-0.1,1.5-0.3c0.4-0.2,0.8-0.5,1-0.9c0.3-0.4,0.5-0.8,0.6-1.3s0.2-1,0.2-1.5c0-0.5-0.1-1-0.2-1.5
		c-0.1-0.5-0.3-0.9-0.6-1.3c-0.3-0.4-0.6-0.7-1-0.9c-0.4-0.2-0.9-0.3-1.5-0.3s-1.1,0.1-1.5,0.3c-0.4,0.2-0.8,0.5-1,0.9
		s-0.5,0.8-0.6,1.3c-0.1,0.5-0.2,1-0.2,1.5C60.5,230.2,60.6,230.7,60.7,231.2z"/>
	<path class="st0" d="M73.6,226.9v1.2h0.1c0.3-0.5,0.7-0.9,1.2-1.1c0.5-0.2,1-0.3,1.5-0.3c0.6,0,1.2,0.1,1.6,0.3
		c0.4,0.2,0.7,0.4,1,0.7c0.2,0.3,0.4,0.7,0.5,1.1c0.1,0.4,0.1,0.9,0.1,1.5v5.4h-2.4v-5c0-0.7-0.1-1.3-0.3-1.6
		c-0.2-0.4-0.6-0.5-1.2-0.5c-0.7,0-1.1,0.2-1.4,0.6c-0.3,0.4-0.4,1-0.4,1.9v4.6h-2.4v-8.8H73.6z"/>
	<path class="st0" d="M83.9,223.6v12.1h-2.4v-12.1H83.9z"/>
	<path class="st0" d="M89,238.4c-0.5,0.3-1.1,0.5-1.9,0.5c-0.2,0-0.5,0-0.7,0c-0.2,0-0.5,0-0.7-0.1v-2c0.2,0,0.5,0,0.7,0.1
		c0.2,0,0.5,0,0.7,0c0.3,0,0.6-0.2,0.7-0.4c0.2-0.2,0.2-0.5,0.2-0.7c0-0.2,0-0.4-0.1-0.5l-3.1-8.2h2.6l2,6h0l1.9-6h2.5l-3.7,9.9
		C89.9,237.5,89.5,238,89,238.4z"/>
	<path class="st0" d="M98.4,228.6v-1.6h1.4v-0.7c0-0.8,0.2-1.4,0.7-1.9c0.5-0.5,1.2-0.7,2.2-0.7c0.2,0,0.4,0,0.6,0
		c0.2,0,0.4,0,0.6,0v1.8c-0.3,0-0.6-0.1-0.9-0.1c-0.3,0-0.6,0.1-0.7,0.2c-0.1,0.2-0.2,0.4-0.2,0.8v0.5h1.7v1.6h-1.7v7.2h-2.4v-7.2
		H98.4z"/>
	<path class="st0" d="M105.1,229.4c0.2-0.6,0.5-1.1,0.9-1.5c0.4-0.4,0.9-0.7,1.4-0.9s1.2-0.3,1.9-0.3c0.7,0,1.3,0.1,1.9,0.3
		s1,0.5,1.4,0.9c0.4,0.4,0.7,0.9,0.9,1.5s0.3,1.2,0.3,1.9c0,0.7-0.1,1.3-0.3,1.9c-0.2,0.6-0.5,1.1-0.9,1.5c-0.4,0.4-0.9,0.7-1.4,0.9
		c-0.6,0.2-1.2,0.3-1.9,0.3c-0.7,0-1.3-0.1-1.9-0.3c-0.6-0.2-1-0.5-1.4-0.9c-0.4-0.4-0.7-0.9-0.9-1.5c-0.2-0.6-0.3-1.2-0.3-1.9
		C104.7,230.6,104.8,230,105.1,229.4z M107.3,232.4c0.1,0.3,0.2,0.6,0.3,0.9c0.2,0.3,0.4,0.5,0.7,0.6c0.3,0.2,0.6,0.2,1,0.2
		c0.4,0,0.8-0.1,1-0.2c0.3-0.2,0.5-0.4,0.7-0.6c0.2-0.3,0.3-0.6,0.3-0.9s0.1-0.7,0.1-1s0-0.7-0.1-1s-0.2-0.6-0.3-0.9
		c-0.2-0.3-0.4-0.5-0.7-0.6c-0.3-0.2-0.6-0.2-1-0.2c-0.4,0-0.7,0.1-1,0.2c-0.3,0.2-0.5,0.4-0.7,0.6c-0.2,0.3-0.3,0.6-0.3,0.9
		s-0.1,0.7-0.1,1S107.2,232,107.3,232.4z"/>
	<path class="st0" d="M117.7,226.9v1.6h0c0.1-0.3,0.3-0.5,0.5-0.8c0.2-0.2,0.4-0.4,0.7-0.6c0.2-0.2,0.5-0.3,0.8-0.4s0.6-0.1,0.9-0.1
		c0.2,0,0.3,0,0.5,0.1v2.2c-0.1,0-0.2,0-0.4-0.1c-0.2,0-0.3,0-0.5,0c-0.4,0-0.8,0.1-1.1,0.2c-0.3,0.1-0.6,0.3-0.7,0.6
		c-0.2,0.3-0.3,0.6-0.4,0.9c-0.1,0.3-0.1,0.7-0.1,1.1v4h-2.4v-8.8H117.7z"/>
	<path class="st0" d="M133,223.6l4.5,12.1h-2.8l-0.9-2.7h-4.5l-1,2.7h-2.7l4.6-12.1H133z M133.2,231l-1.5-4.5h0l-1.6,4.5H133.2z"/>
	<path class="st0" d="M143.9,223.6c0.8,0,1.5,0.1,2.2,0.4s1.3,0.6,1.8,1.1c0.5,0.5,0.9,1.1,1.2,1.9c0.3,0.7,0.4,1.6,0.4,2.6
		c0,0.9-0.1,1.7-0.3,2.4c-0.2,0.7-0.6,1.4-1,1.9s-1,1-1.7,1.3c-0.7,0.3-1.5,0.5-2.4,0.5h-5.2v-12.1H143.9z M143.7,233.5
		c0.4,0,0.8-0.1,1.1-0.2c0.4-0.1,0.7-0.3,1-0.6c0.3-0.3,0.5-0.7,0.7-1.1s0.3-1,0.3-1.7c0-0.6-0.1-1.2-0.2-1.7
		c-0.1-0.5-0.3-0.9-0.6-1.3c-0.3-0.4-0.6-0.6-1.1-0.8c-0.4-0.2-1-0.3-1.7-0.3h-1.9v7.6H143.7z"/>
	<path class="st0" d="M157.3,223.6l4.5,12.1h-2.8l-0.9-2.7h-4.5l-1,2.7H150l4.6-12.1H157.3z M157.4,231l-1.5-4.5h0l-1.6,4.5H157.4z"
		/>
	<path class="st0" d="M171.4,223.6l2.8,8.3h0l2.7-8.3h3.8v12.1h-2.5v-8.6h0l-3,8.6h-2.1l-3-8.5h0v8.5h-2.5v-12.1H171.4z"/>
	<path class="st0" d="M185.4,233.6c0.4,0.4,0.9,0.5,1.6,0.5c0.5,0,0.9-0.1,1.3-0.4c0.4-0.2,0.6-0.5,0.6-0.8h2.1
		c-0.3,1.1-0.9,1.8-1.6,2.3c-0.7,0.5-1.6,0.7-2.5,0.7c-0.7,0-1.3-0.1-1.9-0.3c-0.6-0.2-1-0.5-1.4-0.9c-0.4-0.4-0.7-0.9-0.9-1.5
		c-0.2-0.6-0.3-1.2-0.3-1.9c0-0.7,0.1-1.3,0.3-1.8c0.2-0.6,0.5-1.1,0.9-1.5c0.4-0.4,0.9-0.7,1.4-1s1.2-0.4,1.8-0.4
		c0.7,0,1.4,0.1,2,0.4c0.6,0.3,1,0.7,1.4,1.2c0.4,0.5,0.6,1,0.8,1.7c0.2,0.6,0.2,1.3,0.2,2h-6.3C184.8,232.7,185,233.3,185.4,233.6z
		 M188.1,229c-0.3-0.3-0.7-0.5-1.3-0.5c-0.4,0-0.7,0.1-1,0.2c-0.3,0.1-0.5,0.3-0.6,0.5c-0.2,0.2-0.3,0.4-0.3,0.6
		c-0.1,0.2-0.1,0.4-0.1,0.6h3.9C188.6,229.8,188.4,229.3,188.1,229z"/>
	<path class="st0" d="M194.9,226.9v1.2h0c0.3-0.5,0.7-0.8,1.1-1.1c0.4-0.2,1-0.4,1.5-0.4c0.6,0,1.1,0.1,1.5,0.3
		c0.5,0.2,0.8,0.6,1,1.1c0.3-0.4,0.6-0.7,1.1-1c0.4-0.3,1-0.4,1.6-0.4c0.5,0,0.9,0.1,1.3,0.2c0.4,0.1,0.7,0.3,1,0.5
		c0.3,0.2,0.5,0.6,0.7,1c0.2,0.4,0.2,0.9,0.2,1.5v5.9h-2.4v-5c0-0.3,0-0.6,0-0.8c0-0.3-0.1-0.5-0.2-0.7c-0.1-0.2-0.3-0.3-0.5-0.5
		s-0.5-0.2-0.8-0.2c-0.3,0-0.6,0.1-0.8,0.2c-0.2,0.1-0.4,0.3-0.5,0.5c-0.1,0.2-0.2,0.4-0.2,0.7c0,0.3-0.1,0.5-0.1,0.8v4.9h-2.4v-4.9
		c0-0.3,0-0.5,0-0.8c0-0.3-0.1-0.5-0.1-0.7c-0.1-0.2-0.2-0.4-0.4-0.5c-0.2-0.1-0.5-0.2-0.9-0.2c-0.1,0-0.3,0-0.5,0.1
		c-0.2,0.1-0.4,0.1-0.5,0.3c-0.2,0.1-0.3,0.3-0.5,0.6s-0.2,0.6-0.2,1v5.1h-2.4v-8.8H194.9z"/>
	<path class="st0" d="M210.3,223.6v4.4h0c0.3-0.5,0.7-0.8,1.2-1c0.5-0.2,1-0.3,1.6-0.3c0.4,0,0.9,0.1,1.3,0.3s0.8,0.5,1.2,0.8
		s0.6,0.9,0.8,1.4c0.2,0.6,0.3,1.3,0.3,2.1s-0.1,1.5-0.3,2.1c-0.2,0.6-0.5,1.1-0.8,1.4s-0.7,0.7-1.2,0.8c-0.4,0.2-0.9,0.3-1.3,0.3
		c-0.6,0-1.2-0.1-1.7-0.3c-0.5-0.2-0.9-0.5-1.2-1h0v1.1h-2.3v-12.1H210.3z M214.3,230.3c-0.1-0.3-0.2-0.6-0.4-0.9
		c-0.2-0.3-0.4-0.5-0.6-0.6s-0.6-0.2-0.9-0.2c-0.4,0-0.7,0.1-0.9,0.2s-0.5,0.4-0.6,0.6c-0.2,0.3-0.3,0.6-0.4,0.9
		c-0.1,0.3-0.1,0.7-0.1,1.1c0,0.4,0,0.7,0.1,1.1c0.1,0.3,0.2,0.6,0.4,0.9s0.4,0.5,0.6,0.6s0.6,0.2,0.9,0.2c0.4,0,0.7-0.1,0.9-0.2
		s0.5-0.4,0.6-0.6s0.3-0.6,0.4-0.9c0.1-0.3,0.1-0.7,0.1-1.1C214.4,231,214.3,230.6,214.3,230.3z"/>
	<path class="st0" d="M220.9,233.6c0.4,0.4,0.9,0.5,1.6,0.5c0.5,0,0.9-0.1,1.3-0.4c0.4-0.2,0.6-0.5,0.6-0.8h2.1
		c-0.3,1.1-0.9,1.8-1.6,2.3c-0.7,0.5-1.6,0.7-2.5,0.7c-0.7,0-1.3-0.1-1.9-0.3c-0.6-0.2-1-0.5-1.4-0.9c-0.4-0.4-0.7-0.9-0.9-1.5
		c-0.2-0.6-0.3-1.2-0.3-1.9c0-0.7,0.1-1.3,0.3-1.8c0.2-0.6,0.5-1.1,0.9-1.5c0.4-0.4,0.9-0.7,1.4-1s1.2-0.4,1.8-0.4
		c0.7,0,1.4,0.1,2,0.4c0.6,0.3,1,0.7,1.4,1.2c0.4,0.5,0.6,1,0.8,1.7c0.2,0.6,0.2,1.3,0.2,2h-6.3
		C220.3,232.7,220.5,233.3,220.9,233.6z M223.6,229c-0.3-0.3-0.7-0.5-1.3-0.5c-0.4,0-0.7,0.1-1,0.2c-0.3,0.1-0.5,0.3-0.6,0.5
		c-0.2,0.2-0.3,0.4-0.3,0.6c-0.1,0.2-0.1,0.4-0.1,0.6h3.9C224.1,229.8,223.9,229.3,223.6,229z"/>
	<path class="st0" d="M230.4,226.9v1.6h0c0.1-0.3,0.3-0.5,0.5-0.8c0.2-0.2,0.4-0.4,0.7-0.6c0.2-0.2,0.5-0.3,0.8-0.4s0.6-0.1,0.9-0.1
		c0.2,0,0.3,0,0.5,0.1v2.2c-0.1,0-0.2,0-0.4-0.1c-0.2,0-0.3,0-0.5,0c-0.4,0-0.8,0.1-1.1,0.2c-0.3,0.1-0.6,0.3-0.7,0.6
		c-0.2,0.3-0.3,0.6-0.4,0.9c-0.1,0.3-0.1,0.7-0.1,1.1v4h-2.4v-8.8H230.4z"/>
	<path class="st0" d="M236.7,233.6c0.1,0.2,0.2,0.3,0.4,0.5s0.4,0.2,0.6,0.3c0.2,0.1,0.5,0.1,0.7,0.1c0.2,0,0.3,0,0.5-0.1
		c0.2,0,0.4-0.1,0.5-0.2c0.2-0.1,0.3-0.2,0.4-0.3c0.1-0.1,0.2-0.3,0.2-0.5c0-0.4-0.2-0.6-0.7-0.8c-0.5-0.2-1.2-0.4-2-0.5
		c-0.4-0.1-0.7-0.2-1-0.3c-0.3-0.1-0.6-0.2-0.9-0.4c-0.3-0.2-0.5-0.4-0.6-0.7c-0.2-0.3-0.2-0.6-0.2-1c0-0.6,0.1-1,0.3-1.4
		c0.2-0.4,0.5-0.6,0.9-0.9c0.4-0.2,0.8-0.4,1.2-0.4s0.9-0.1,1.4-0.1c0.5,0,0.9,0,1.4,0.1c0.4,0.1,0.8,0.2,1.2,0.5
		c0.4,0.2,0.6,0.5,0.9,0.9c0.2,0.4,0.4,0.8,0.4,1.4h-2.3c0-0.5-0.2-0.8-0.5-0.9c-0.3-0.2-0.7-0.2-1.1-0.2c-0.1,0-0.3,0-0.4,0
		c-0.2,0-0.3,0.1-0.4,0.1c-0.1,0.1-0.2,0.1-0.3,0.2s-0.1,0.3-0.1,0.4c0,0.2,0.1,0.4,0.2,0.5c0.2,0.1,0.4,0.2,0.6,0.3
		s0.5,0.2,0.9,0.2c0.3,0.1,0.7,0.1,1,0.2c0.4,0.1,0.7,0.2,1,0.3c0.3,0.1,0.6,0.3,0.9,0.5c0.3,0.2,0.5,0.4,0.6,0.7
		c0.2,0.3,0.2,0.6,0.2,1c0,0.6-0.1,1.1-0.3,1.5c-0.2,0.4-0.5,0.7-0.9,0.9s-0.8,0.4-1.3,0.5c-0.5,0.1-1,0.1-1.5,0.1
		c-0.5,0-1-0.1-1.5-0.2c-0.5-0.1-0.9-0.3-1.3-0.5c-0.4-0.2-0.7-0.6-0.9-0.9c-0.2-0.4-0.4-0.9-0.4-1.5h2.3
		C236.6,233.1,236.6,233.4,236.7,233.6z"/>
</g>
</svg>
