<svg xmlns="http://www.w3.org/2000/svg" viewBox="0 0 300 50"><path d="M15.5 7.3v5.8L21 7.3h3.9l-5.5 5.5 6 8.5h-3.9L17.2 15l-1.8 1.8v4.5h-3.1v-14h3.2zM29.3 18.9c.4.4 1 .6 1.8.6.6 0 1-.1 1.5-.4.4-.3.7-.6.7-.9h2.5c-.4 1.2-1 2.1-1.8 2.6s-1.8.8-2.9.8c-.8 0-1.5-.1-2.2-.4-.6-.3-1.2-.6-1.6-1.1-.4-.5-.8-1-1-1.7-.2-.7-.4-1.4-.4-2.2 0-.8.1-1.5.4-2.1.2-.7.6-1.2 1.1-1.7.5-.5 1-.9 1.6-1.1.6-.3 1.3-.4 2.1-.4.9 0 1.6.2 2.3.5.6.3 1.2.8 1.6 1.3.4.6.7 1.2.9 1.9.2.7.2 1.5.2 2.3h-7.3c-.2.9 0 1.6.5 2zm3.1-5.4c-.3-.4-.8-.6-1.5-.6-.4 0-.8.1-1.1.2-.3.2-.5.3-.7.6-.2.2-.3.5-.4.7-.1.2-.1.5-.1.7h4.5c-.1-.7-.3-1.2-.7-1.6zM40.5 18.9c.4.4 1 .6 1.8.6.6 0 1-.1 1.5-.4.4-.3.7-.6.7-.9H47c-.4 1.2-1 2.1-1.8 2.6s-1.8.8-2.9.8c-.8 0-1.5-.1-2.2-.4-.6-.3-1.2-.6-1.6-1.1-.4-.5-.8-1-1-1.7-.2-.7-.4-1.4-.4-2.2 0-.8.1-1.5.4-2.1.2-.7.6-1.2 1.1-1.7.5-.5 1-.9 1.6-1.1.6-.3 1.3-.4 2.1-.4.9 0 1.6.2 2.3.5.6.3 1.2.8 1.6 1.3.4.6.7 1.2.9 1.9.2.7.2 1.5.2 2.3H40c-.1.9.1 1.6.5 2zm3.2-5.4c-.3-.4-.8-.6-1.5-.6-.4 0-.8.1-1.1.2-.3.2-.5.3-.7.6-.2.2-.3.5-.4.7-.1.2-.1.5-.1.7h4.5c-.1-.7-.4-1.2-.7-1.6zM51.5 11.2v1.3c.3-.6.8-1 1.3-1.2s1.1-.4 1.7-.4c.8 0 1.5.2 2.1.5.6.3 1.1.7 1.4 1.2.4.5.7 1.1.8 1.7.2.7.3 1.4.3 2.1 0 .7-.1 1.3-.3 2-.2.6-.5 1.2-.8 1.7s-.8.9-1.4 1.2c-.6.3-1.2.4-2 .4-.6 0-1.2-.1-1.7-.4-.5-.3-1-.6-1.3-1.1V25h-2.8V11.2h2.7zm3.6 8c.3-.2.6-.4.7-.7s.3-.6.4-1 .1-.8.1-1.2 0-.8-.1-1.2c-.1-.4-.2-.7-.4-1.1-.2-.3-.4-.6-.8-.7-.2-.2-.6-.3-1-.3-.5 0-.8.1-1.1.3-.3.2-.6.4-.7.7-.2.3-.3.6-.4 1-.1.4-.1.8-.1 1.2 0 .4 0 .8.1 1.2.1.4.2.7.4 1s.4.5.8.7c.3.2.7.3 1.1.3.3.1.7 0 1-.2zM75.6 11c-.2-.3-.4-.6-.7-.8-.2-.2-.6-.3-.9-.5-.3-.1-.7-.2-1.1-.2-.7 0-1.3.1-1.8.4-.5.3-.9.6-1.2 1.1-.3.5-.5 1-.7 1.5-.1.6-.2 1.2-.2 1.8 0 .6.1 1.2.2 1.7.1.6.4 1.1.7 1.5.3.4.7.8 1.2 1.1.5.3 1.1.4 1.8.4.9 0 1.7-.3 2.2-.9s.9-1.3 1-2.3h3c-.1.9-.3 1.7-.6 2.4s-.8 1.3-1.3 1.8-1.2.9-1.9 1.1c-.7.3-1.5.4-2.4.4-1.1 0-2-.2-2.9-.6s-1.6-.9-2.2-1.5-1-1.4-1.4-2.3c-.3-.9-.5-1.8-.5-2.9 0-1 .2-2 .5-2.9.3-.9.8-1.7 1.4-2.3s1.3-1.2 2.2-1.6c.9-.4 1.8-.6 2.9-.6.8 0 1.5.1 2.2.3.7.2 1.3.5 1.8 1 .5.4 1 1 1.3 1.6.4.6.6 1.4.7 2.2h-3c0-.3-.1-.6-.3-.9zM88.2 7.3l5.2 14h-3.2l-1.1-3.1h-5.2l-1.1 3.1h-3.1l5.3-14h3.2zm.2 8.6l-1.8-5.2-1.8 5.2h3.6zM97.7 7.3v11.4h6.8v2.6h-9.9v-14h3.1zM110.7 7.3L114 17l3.1-9.7h4.3v14h-2.9v-9.9l-3.4 9.9h-2.4l-3.4-9.9v9.9h-2.9v-14h4.3z"/></svg>