<svg id="Layer_1" xmlns="http://www.w3.org/2000/svg" viewBox="0 0 300 50"><style>.st0{fill:#349946}</style><path d="M16 8.2l3.1 8.2h-1.9l-.6-1.8h-3.1l-.6 1.8h-1.8l3.1-8.2H16zm.1 5l-1-3-1.1 3h2.1zm4.8-2.7v.8c.2-.3.5-.6.8-.7.3-.2.7-.2 1-.2.4 0 .8.1 1.1.2.3.1.5.3.7.5.2.2.3.5.3.8.1.3.1.6.1 1v3.6h-1.6V13c0-.5-.1-.9-.2-1.1-.2-.2-.4-.4-.8-.4s-.8.1-1 .4c-.2.3-.3.7-.3 1.3v3.1h-1.6v-5.9h1.5zm9.2 5.1c-.2.3-.4.6-.7.7s-.7.2-1 .2c-.4 0-.8-.1-1.2-.3-.3-.2-.6-.4-.8-.7-.2-.3-.4-.6-.5-1-.1-.4-.2-.8-.2-1.2 0-.4.1-.8.2-1.1.1-.4.3-.7.5-1 .2-.3.5-.5.8-.7.3-.2.7-.3 1.1-.3.4 0 .7.1 1 .2.3.1.6.4.7.7v-3h1.6v8.2h-1.5v-.7zm0-2.9c0-.2-.1-.4-.2-.6-.1-.2-.3-.3-.4-.4-.2-.1-.4-.2-.7-.2-.3 0-.5.1-.7.2-.2.1-.3.2-.4.4-.1.2-.2.4-.2.6 0 .2-.1.5-.1.7 0 .2 0 .5.1.7.1.2.1.4.3.6.1.2.3.3.4.4.2.1.4.2.6.2.3 0 .5-.1.7-.2.2-.1.3-.2.4-.4.1-.2.2-.4.2-.6 0-.2.1-.5.1-.7-.1-.2-.1-.5-.1-.7zm4.9-1.2v-1.1h1V10c0-.5.2-1 .5-1.3.3-.3.8-.5 1.5-.5h.8v1.2h-.6c-.2 0-.4.1-.5.2-.1.1-.1.3-.1.5v.4h1.1v1.1h-1.1v4.8H36v-4.8h-1zm4.7-2V8.2h1.6v1.3h-1.6zm1.6 1v5.9h-1.6v-5.9h1.6zm2.6 0v.8c.2-.3.5-.6.8-.7.3-.2.7-.2 1-.2.4 0 .8.1 1.1.2.3.1.5.3.7.5.2.2.3.5.3.8.1.3.1.6.1 1v3.6h-1.6V13c0-.5-.1-.9-.2-1.1-.2-.2-.4-.4-.8-.4s-.8.1-1 .4c-.2.3-.3.7-.3 1.3v3.1h-1.6v-5.9h1.5zm9.2 5.1c-.2.3-.4.6-.7.7s-.7.2-1 .2c-.4 0-.8-.1-1.2-.3-.3-.2-.6-.4-.8-.7-.2-.3-.4-.6-.5-1-.1-.4-.2-.8-.2-1.2 0-.4.1-.8.2-1.1.1-.4.3-.7.5-1 .2-.3.5-.5.8-.7.3-.2.7-.3 1.1-.3.4 0 .7.1 1 .2.3.1.6.4.7.7v-3h1.6v8.2h-1.5v-.7zm0-2.9c0-.2-.1-.4-.2-.6-.1-.2-.3-.3-.4-.4-.2-.1-.4-.2-.7-.2-.3 0-.5.1-.7.2-.2.1-.3.2-.4.4-.1.2-.2.4-.2.6 0 .2-.1.5-.1.7 0 .2 0 .5.1.7.1.2.1.4.3.6.1.2.3.3.4.4.2.1.4.2.6.2.3 0 .5-.1.7-.2.2-.1.3-.2.4-.4.1-.2.2-.4.2-.6 0-.2.1-.5.1-.7-.1-.2-.1-.5-.1-.7zm8.8-2.2v1.1h-1.2v2.9c0 .3 0 .5.1.5.1.1.3.1.5.1h.5v1.3h-1c-.3 0-.5 0-.7-.1-.2 0-.4-.1-.6-.2-.2-.1-.3-.2-.4-.4-.1-.2-.1-.4-.1-.7v-3.5h-1v-1.1h1V8.7h1.6v1.8h1.3zm2.2-2.3v3.1c.2-.3.5-.6.8-.7.3-.2.6-.2.9-.2.4 0 .8.1 1.1.2.3.1.5.3.7.5.2.2.3.5.3.8.1.3.1.6.1 1v3.6h-1.6V13c0-.5-.1-.9-.2-1.1-.2-.2-.4-.4-.8-.4s-.8.1-1 .4c-.2.3-.3.7-.3 1.3v3.1h-1.6V8.2h1.6zm6.6 6.8c.2.2.6.4 1.1.4.3 0 .6-.1.8-.2.2-.2.4-.3.4-.5h1.4c-.2.7-.6 1.2-1.1 1.5-.5.3-1 .5-1.7.5-.5 0-.9-.1-1.3-.2s-.7-.4-.9-.6c-.3-.3-.5-.6-.6-1-.1-.4-.2-.8-.2-1.3 0-.4.1-.9.2-1.2.1-.4.4-.7.6-1 .3-.3.6-.5 1-.7.4-.2.8-.2 1.2-.2.5 0 .9.1 1.3.3.4.2.7.5.9.8.2.3.4.7.5 1.1.1.4.1.9.1 1.3h-4.3c.3.3.4.7.6 1zm1.9-3.2c-.2-.2-.5-.3-.9-.3-.3 0-.5 0-.6.1-.2.1-.3.2-.4.3-.1.1-.2.3-.2.4 0 .1-.1.3-.1.4H73c-.1-.3-.2-.6-.4-.9zm7.3-3.6v3c.2-.3.5-.5.8-.7.3-.1.7-.2 1.1-.2.3 0 .6.1.9.2.3.1.6.3.8.6.2.3.4.6.6 1 .1.4.2.9.2 1.4 0 .5-.1 1-.2 1.4-.1.4-.3.7-.6 1-.2.3-.5.4-.8.6-.3.1-.6.2-.9.2-.4 0-.8-.1-1.2-.2-.3-.1-.6-.4-.8-.7v.8h-1.5V8.2h1.6zm2.7 4.5c-.1-.2-.1-.4-.3-.6-.1-.2-.3-.3-.4-.4-.2-.1-.4-.2-.6-.2-.2 0-.4.1-.6.2-.2.1-.3.2-.4.4l-.3.6c-.1.2-.1.5-.1.7 0 .2 0 .5.1.7.1.2.1.4.3.6.1.2.3.3.4.4.2.1.4.2.6.2.2 0 .5-.1.6-.2.2-.1.3-.2.4-.4l.3-.6c.1-.2.1-.5.1-.7-.1-.2-.1-.5-.1-.7zm4.2 2.3c.2.2.6.4 1.1.4.3 0 .6-.1.8-.2.2-.2.4-.3.4-.5h1.4c-.2.7-.6 1.2-1.1 1.5-.5.3-1 .5-1.7.5-.5 0-.9-.1-1.3-.2s-.7-.4-.9-.6c-.3-.3-.5-.6-.6-1-.1-.4-.2-.8-.2-1.3 0-.4.1-.9.2-1.2.1-.4.4-.7.6-1 .3-.3.6-.5 1-.7.4-.2.8-.2 1.2-.2.5 0 .9.1 1.3.3.4.2.7.5.9.8.2.3.4.7.5 1.1.1.4.1.9.1 1.3h-4.3c.2.3.4.7.6 1zm1.8-3.2c-.2-.2-.5-.3-.9-.3-.3 0-.5 0-.6.1-.2.1-.3.2-.4.3-.1.1-.2.3-.2.4 0 .1-.1.3-.1.4H89c0-.3-.2-.6-.4-.9zm4.2 3.1l.3.3c.1.1.2.1.4.2.1 0 .3.1.5.1h.4c.1 0 .2-.1.3-.1.1-.1.2-.1.3-.2.1-.1.1-.2.1-.4s-.2-.4-.5-.5c-.3-.1-.8-.2-1.4-.4-.2-.1-.5-.1-.7-.2l-.6-.3c-.2-.1-.3-.3-.4-.4-.1-.2-.2-.4-.2-.7 0-.4.1-.7.2-.9.1-.2.3-.4.6-.6.2-.1.5-.2.8-.3.3-.1.6-.1.9-.1s.6 0 .9.1c.3.1.6.2.8.3.2.1.4.3.6.6.2.2.2.5.3.9h-1.5c0-.3-.1-.5-.4-.6-.2-.1-.5-.2-.8-.2h-.3c-.1 0-.2 0-.3.1-.1 0-.2.1-.2.2-.1.1-.1.2-.1.3 0 .1.1.3.2.4.1.1.2.2.4.2.2.1.4.1.6.2.2 0 .4.1.7.1.2.1.5.1.7.2l.6.3c.2.1.3.3.4.5.1.2.2.4.2.7 0 .4-.1.7-.2 1-.2.3-.4.5-.6.6-.3.2-.5.3-.9.3-.3.1-.7.1-1 .1-.3 0-.7 0-1-.1l-.9-.3c-.3-.2-.5-.4-.6-.6-.2-.3-.3-.6-.3-1h1.5c.1-.1.1.1.2.2zm7.8-4.4v1.1h-1.2v2.9c0 .3 0 .5.1.5.1.1.3.1.5.1h.5v1.3h-1c-.3 0-.5 0-.7-.1-.2 0-.4-.1-.6-.2-.2-.1-.3-.2-.4-.4-.1-.2-.1-.4-.1-.7v-3.5h-1v-1.1h1V8.7h1.6v1.8h1.3zm5 0v1.1c.1-.2.2-.4.3-.5.1-.2.3-.3.4-.4.2-.1.3-.2.5-.3.2-.1.4-.1.6-.1.1 0 .2 0 .4.1v1.5h-.6c-.3 0-.5 0-.8.1-.2.1-.4.2-.5.4l-.3.6c-.1.2-.1.5-.1.7v2.7h-1.6v-5.9h1.7zm4.2 1.8c0-.3.1-.5.3-.7.2-.1.4-.2.8-.2h.4c.1 0 .2.1.3.1.1.1.2.1.2.2.1.1.1.2.1.4s0 .3-.1.4c-.1.1-.3.2-.4.2-.2 0-.4.1-.6.1-.2 0-.5.1-.7.1-.2 0-.5.1-.7.2-.2.1-.5.2-.6.3-.2.1-.3.3-.5.5-.1.2-.2.5-.2.8 0 .3.1.6.2.8.1.2.2.4.4.5.2.1.4.3.6.3.2.1.5.1.8.1.4 0 .7-.1 1.1-.2.4-.1.7-.3.9-.6v.3c0 .1 0 .2.1.3h1.6c-.1-.1-.1-.3-.2-.5V12c0-.4-.1-.6-.2-.9-.2-.2-.4-.4-.6-.5-.3-.1-.5-.2-.8-.2-.3 0-.6-.1-.9-.1-.3 0-.7 0-1 .1l-.9.3c-.3.2-.5.4-.6.6-.2.3-.3.6-.3.9h1.5zm2.2 1.8v.4c0 .2-.1.3-.2.5-.1.1-.2.3-.4.4-.2.1-.4.2-.7.2h-.4c-.1 0-.2-.1-.3-.1-.1-.1-.2-.1-.2-.2-.1-.1-.1-.2-.1-.4s0-.3.1-.4c.1-.1.1-.2.2-.2.1-.1.2-.1.3-.2.1 0 .2-.1.4-.1.1 0 .3 0 .4-.1.1 0 .3 0 .4-.1.1 0 .2-.1.3-.1.1 0 .2-.1.3-.1v.5zm5.9-3.6v1.1h-1.2v2.9c0 .3 0 .5.1.5.1.1.3.1.5.1h.5v1.3h-1c-.3 0-.5 0-.7-.1-.2 0-.4-.1-.6-.2-.2-.1-.3-.2-.4-.4-.1-.2-.1-.4-.1-.7v-3.5h-1v-1.1h1V8.7h1.6v1.8h1.3zm2.2 4.5c.2.2.6.4 1.1.4.3 0 .6-.1.8-.2.2-.2.4-.3.4-.5h1.4c-.2.7-.6 1.2-1.1 1.5-.5.3-1 .5-1.7.5-.5 0-.9-.1-1.3-.2s-.7-.4-.9-.6c-.3-.3-.5-.6-.6-1-.1-.4-.2-.8-.2-1.3 0-.4.1-.9.2-1.2.1-.4.4-.7.6-1 .3-.3.6-.5 1-.7.4-.2.8-.2 1.2-.2.5 0 .9.1 1.3.3.4.2.7.5.9.8.2.3.4.7.5 1.1.1.4.1.9.1 1.3h-4.3c.3.3.4.7.6 1zm1.9-3.2c-.2-.2-.5-.3-.9-.3-.3 0-.5 0-.6.1-.2.1-.3.2-.4.3-.1.1-.2.3-.2.4 0 .1-.1.3-.1.4h2.6c-.1-.3-.2-.6-.4-.9zm4.1 3.1l.3.3c.1.1.2.1.4.2.1 0 .3.1.5.1h.4c.1 0 .2-.1.3-.1.1-.1.2-.1.3-.2.1-.1.1-.2.1-.4s-.2-.4-.5-.5c-.3-.1-.8-.2-1.4-.4-.2-.1-.5-.1-.7-.2l-.6-.3c-.2-.1-.3-.3-.4-.4-.1-.2-.2-.4-.2-.7 0-.4.1-.7.2-.9.1-.2.3-.4.6-.6.2-.1.5-.2.8-.3.3-.1.6-.1.9-.1s.6 0 .9.1c.3.1.6.2.8.3.2.1.4.3.6.6.2.2.2.5.3.9h-1.5c0-.3-.1-.5-.4-.6-.2-.1-.5-.2-.8-.2h-.3c-.1 0-.2 0-.3.1-.1 0-.2.1-.2.2-.1.1-.1.2-.1.3 0 .1.1.3.2.4.1.1.2.2.4.2s.4.1.6.2c.2 0 .4.1.7.1.2.1.5.1.7.2l.6.3c.2.1.3.3.4.5.1.2.2.4.2.7 0 .4-.1.7-.2 1-.2.3-.4.5-.6.6-.3.2-.5.3-.9.3-.3.1-.7.1-1 .1-.3 0-.7 0-1-.1l-.9-.3c-.3-.2-.5-.4-.6-.6-.2-.3-.3-.6-.3-1h1.5c.1-.1.1.1.2.2zM15 22.4v1.1h-1.2v2.9c0 .3 0 .5.1.5.1.1.3.1.5.1h.5v1.3h-1c-.3 0-.5 0-.7-.1s-.4-.1-.6-.2c-.2-.1-.3-.2-.4-.4-.1-.2-.1-.4-.1-.7v-3.5h-1v-1.1h1v-1.8h1.6v1.8H15zM15.6 24.1c.1-.4.4-.7.6-1 .3-.3.6-.5 1-.6.4-.1.8-.2 1.3-.2s.9.1 1.3.2.7.4 1 .6c.3.3.5.6.6 1 .1.4.2.8.2 1.3s-.1.9-.2 1.3-.4.7-.6 1c-.3.3-.6.5-1 .6-.4.1-.8.2-1.3.2s-.9-.1-1.3-.2-.7-.4-1-.6c-.3-.3-.5-.6-.6-1s-.2-.8-.2-1.3.1-.9.2-1.3zm1.5 2c0 .2.1.4.2.6.1.2.3.3.4.4s.4.2.7.2c.3 0 .5-.1.7-.2.2-.1.3-.2.4-.4.1-.2.2-.4.2-.6 0-.2.1-.5.1-.7 0-.2 0-.5-.1-.7 0-.2-.1-.4-.2-.6-.1-.2-.3-.3-.4-.4-.2-.1-.4-.2-.7-.2-.3 0-.5.1-.7.2-.2.1-.3.3-.4.4s-.2.4-.2.6c0 .2-.1.5-.1.7 0 .2 0 .4.1.7zM26.8 22.4v.8c.2-.3.4-.6.8-.7.3-.1.6-.2 1-.2.5 0 .9.1 1.2.3.3.2.6.4.8.7.2.3.4.6.5 1 .1.4.2.8.2 1.2 0 .4-.1.8-.2 1.1-.1.4-.3.7-.5 1s-.5.5-.8.7c-.3.2-.7.3-1.1.3-.4 0-.7-.1-1-.2-.3-.1-.6-.4-.8-.7v2.8h-1.6v-8h1.5zm2.1 4.7c.2-.1.3-.2.4-.4.1-.2.2-.4.2-.6 0-.2.1-.5.1-.7s0-.5-.1-.7c0-.2-.1-.4-.2-.6s-.3-.3-.4-.4c-.2-.1-.4-.2-.7-.2-.3 0-.5.1-.7.2-.2.1-.3.3-.4.4-.1.2-.2.4-.2.6 0 .2-.1.5-.1.7 0 .2 0 .5.1.7 0 .2.1.4.2.6.1.2.3.3.4.4s.4.2.7.2c.3 0 .6-.1.7-.2zM33.6 22.4v1.1c.1-.2.2-.4.3-.5.1-.2.3-.3.4-.4.2-.1.3-.2.5-.3s.4-.1.6-.1c.1 0 .2 0 .4.1v1.5h-.6c-.3 0-.5 0-.8.1-.2.1-.4.2-.5.4l-.3.6c-.1.2-.1.5-.1.7v2.7H32v-5.9h1.6zM36.1 24.1c.1-.4.4-.7.6-1 .3-.3.6-.5 1-.6.4-.1.8-.2 1.3-.2s.9.1 1.3.2.7.4 1 .6c.3.3.5.6.6 1 .1.4.2.8.2 1.3s-.1.9-.2 1.3-.4.7-.6 1c-.3.3-.6.5-1 .6-.4.1-.8.2-1.3.2s-.9-.1-1.3-.2-.7-.4-1-.6c-.3-.3-.5-.6-.6-1s-.2-.8-.2-1.3.1-.9.2-1.3zm1.5 2c0 .2.1.4.2.6.1.2.3.3.4.4s.4.2.7.2c.3 0 .5-.1.7-.2.2-.1.3-.2.4-.4.1-.2.2-.4.2-.6 0-.2.1-.5.1-.7 0-.2 0-.5-.1-.7 0-.2-.1-.4-.2-.6-.1-.2-.3-.3-.4-.4-.2-.1-.4-.2-.7-.2-.3 0-.5.1-.7.2-.2.1-.3.3-.4.4s-.2.4-.2.6c0 .2-.1.5-.1.7 0 .2 0 .4.1.7zM46.1 22.4v1.1h-1.2v2.9c0 .3 0 .5.1.5.1.1.3.1.5.1h.5v1.3h-1c-.3 0-.5 0-.7-.1s-.4-.1-.6-.2c-.2-.1-.3-.2-.4-.4-.1-.2-.1-.4-.1-.7v-3.5h-1v-1.1h1v-1.8h1.6v1.8h1.3zM48.4 26.9c.2.2.6.4 1.1.4.3 0 .6-.1.8-.2s.4-.3.4-.5h1.4c-.2.7-.6 1.2-1.1 1.5s-1 .5-1.7.5c-.5 0-.9-.1-1.3-.2s-.7-.4-.9-.6-.5-.6-.6-1c-.1-.4-.2-.8-.2-1.3 0-.4.1-.9.2-1.2.1-.4.4-.7.6-1 .3-.3.6-.5 1-.7.4-.2.8-.2 1.2-.2.5 0 .9.1 1.3.3s.7.5.9.8c.2.3.4.7.5 1.1.1.4.1.9.1 1.3H48c0 .4.1.8.4 1zm1.8-3.1c-.2-.2-.5-.3-.9-.3-.3 0-.5 0-.6.1-.2.1-.3.2-.4.3-.1.1-.2.3-.2.4 0 .1-.1.3-.1.4h2.6c-.1-.4-.2-.7-.4-.9zM55.8 23.5c-.3 0-.5.1-.7.2-.2.1-.3.3-.4.5s-.2.4-.2.6-.1.4-.1.7c0 .2 0 .4.1.7 0 .2.1.4.2.6.1.2.2.3.4.4.2.1.4.2.6.2.4 0 .7-.1.9-.3.2-.2.3-.5.4-.9h1.6c-.1.8-.4 1.4-.9 1.8-.5.4-1.1.6-1.9.6-.4 0-.8-.1-1.2-.2-.4-.1-.7-.4-.9-.6-.3-.3-.5-.6-.6-1-.1-.4-.2-.8-.2-1.2 0-.5.1-.9.2-1.3s.3-.7.6-1c.3-.3.6-.5.9-.7.4-.2.8-.2 1.3-.2.4 0 .7 0 1 .1.3.1.6.2.9.4.3.2.5.4.6.7.2.3.3.6.3 1H57c-.1-.8-.5-1.1-1.2-1.1zM62.6 22.4v1.1h-1.2v2.9c0 .3 0 .5.1.5.1.1.3.1.5.1h.5v1.3h-1c-.3 0-.5 0-.7-.1s-.4-.1-.6-.2c-.2-.1-.3-.2-.4-.4-.1-.2-.1-.4-.1-.7v-3.5h-1v-1.1h1v-1.8h1.6v1.8h1.3zM68.3 30.1c-.3.2-.7.3-1.3.3h-1V29h1c.2 0 .4-.1.5-.3s.2-.3.2-.5c0-.1 0-.3-.1-.4l-2.1-5.5h1.7l1.3 4 1.3-4h1.7L69 29.1c-.2.4-.4.8-.7 1zM71.8 24.1c.1-.4.4-.7.6-1 .3-.3.6-.5 1-.6.4-.1.8-.2 1.3-.2s.9.1 1.3.2.7.4 1 .6c.3.3.5.6.6 1 .1.4.2.8.2 1.3s-.1.9-.2 1.3-.4.7-.6 1c-.3.3-.6.5-1 .6-.4.1-.8.2-1.3.2s-.9-.1-1.3-.2-.7-.4-1-.6c-.3-.3-.5-.6-.6-1s-.2-.8-.2-1.3.1-.9.2-1.3zm1.5 2c0 .2.1.4.2.6.1.2.3.3.4.4s.4.2.7.2c.3 0 .5-.1.7-.2.2-.1.3-.2.4-.4.1-.2.2-.4.2-.6 0-.2.1-.5.1-.7 0-.2 0-.5-.1-.7 0-.2-.1-.4-.2-.6-.1-.2-.3-.3-.4-.4-.2-.1-.4-.2-.7-.2-.3 0-.5.1-.7.2-.2.1-.3.3-.4.4s-.2.4-.2.6c0 .2-.1.5-.1.7 0 .2.1.4.1.7zM82.6 28.3v-.8c-.2.3-.5.6-.8.7-.3.2-.7.2-1 .2-.4 0-.8-.1-1.1-.2-.3-.1-.5-.3-.7-.5s-.3-.5-.3-.8c-.1-.3-.1-.6-.1-1v-3.6h1.6v3.3c0 .5.1.9.2 1.1.2.2.4.4.8.4s.8-.1 1-.4c.2-.3.3-.7.3-1.3v-3.1h1.6v5.9h-1.5zM86.7 22.4v1.1c.1-.2.2-.4.3-.5.1-.2.3-.3.4-.4.2-.1.3-.2.5-.3s.4-.1.6-.1c.1 0 .2 0 .4.1v1.5h-.6c-.3 0-.5 0-.8.1-.2.1-.4.2-.5.4l-.3.6c-.1.2-.1.5-.1.7v2.7H85v-5.9h1.7zM92.4 21.5v-1.3H94v1.3h-1.6zm1.6.9v5.9h-1.6v-5.9H94zM96.6 22.4v.8c.2-.3.5-.6.8-.7.3-.2.7-.2 1-.2.4 0 .8.1 1.1.2s.5.3.7.5c.2.2.3.5.3.8.1.3.1.6.1 1v3.6H99V25c0-.5-.1-.9-.2-1.1s-.4-.4-.8-.4-.8.1-1 .4-.3.7-.3 1.3v3.1H95v-5.9h1.6zM104.4 23.5c-.3 0-.5.1-.7.2-.2.1-.3.3-.4.5s-.2.4-.2.6-.1.4-.1.7c0 .2 0 .4.1.7 0 .2.1.4.2.6.1.2.2.3.4.4.2.1.4.2.6.2.4 0 .7-.1.9-.3.2-.2.3-.5.4-.9h1.6c-.1.8-.4 1.4-.9 1.8-.5.4-1.1.6-1.9.6-.4 0-.8-.1-1.2-.2-.4-.1-.7-.4-.9-.6-.3-.3-.5-.6-.6-1-.1-.4-.2-.8-.2-1.2 0-.5.1-.9.2-1.3s.3-.7.6-1c.3-.3.6-.5.9-.7.4-.2.8-.2 1.3-.2.4 0 .7 0 1 .1.3.1.6.2.9.4.3.2.5.4.6.7.2.3.3.6.3 1h-1.6c-.2-.8-.6-1.1-1.3-1.1zM108 24.1c.1-.4.4-.7.6-1 .3-.3.6-.5 1-.6.4-.1.8-.2 1.3-.2s.9.1 1.3.2.7.4 1 .6c.3.3.5.6.6 1 .1.4.2.8.2 1.3s-.1.9-.2 1.3-.4.7-.6 1c-.3.3-.6.5-1 .6-.4.1-.8.2-1.3.2s-.9-.1-1.3-.2-.7-.4-1-.6c-.3-.3-.5-.6-.6-1s-.2-.8-.2-1.3 0-.9.2-1.3zm1.5 2c0 .2.1.4.2.6.1.2.3.3.4.4s.4.2.7.2c.3 0 .5-.1.7-.2.2-.1.3-.2.4-.4.1-.2.2-.4.2-.6 0-.2.1-.5.1-.7 0-.2 0-.5-.1-.7 0-.2-.1-.4-.2-.6-.1-.2-.3-.3-.4-.4-.2-.1-.4-.2-.7-.2-.3 0-.5.1-.7.2-.2.1-.3.3-.4.4s-.2.4-.2.6c0 .2-.1.5-.1.7 0 .2 0 .4.1.7zM116.3 22.4v.8c.2-.3.5-.5.8-.7.3-.2.6-.3 1-.3s.7.1 1 .2c.3.1.5.4.7.8.2-.3.4-.5.7-.7.3-.2.7-.3 1.1-.3.3 0 .6 0 .9.1s.5.2.7.4c.2.2.3.4.4.7.1.3.2.6.2 1v4h-1.6V25v-.6c0-.2-.1-.3-.1-.5l-.3-.3c-.1-.1-.3-.1-.5-.1s-.4 0-.6.1c-.1.1-.3.2-.3.3s-.1.3-.2.5v3.8h-1.6V25v-.5c0-.2 0-.3-.1-.5s-.2-.3-.3-.3c-.1-.1-.3-.1-.6-.1-.1 0-.2 0-.3.1-.1 0-.2.1-.4.2s-.2.2-.3.4c-.1.2-.1.4-.1.7v3.4h-1.6v-5.9h1.4zM126.6 26.9c.2.2.6.4 1.1.4.3 0 .6-.1.8-.2s.4-.3.4-.5h1.4c-.2.7-.6 1.2-1.1 1.5s-1 .5-1.7.5c-.5 0-.9-.1-1.3-.2s-.7-.4-.9-.6-.5-.6-.6-1c-.1-.4-.2-.8-.2-1.3 0-.4.1-.9.2-1.2.1-.4.4-.7.6-1 .3-.3.6-.5 1-.7.4-.2.8-.2 1.2-.2.5 0 .9.1 1.3.3s.7.5.9.8c.2.3.4.7.5 1.1.1.4.1.9.1 1.3H126c.2.4.3.8.6 1zm1.8-3.1c-.2-.2-.5-.3-.9-.3-.3 0-.5 0-.6.1-.2.1-.3.2-.4.3-.1.1-.2.3-.2.4 0 .1-.1.3-.1.4h2.6c0-.4-.2-.7-.4-.9zM133.1 26.6v1.8h-1.8v-1.8h1.8z"/><g><path class="st0" d="M11.9 36.5c.2-.5.4-1 .8-1.4.3-.4.8-.7 1.3-.9s1.1-.3 1.7-.3c.6 0 1.2.1 1.7.3s.9.5 1.3.9.6.8.8 1.4c.2.5.3 1.1.3 1.7 0 .6-.1 1.1-.3 1.7s-.4 1-.8 1.3c-.3.4-.8.7-1.3.9-.5.2-1.1.3-1.7.3-.6 0-1.2-.1-1.7-.3-.5-.2-.9-.5-1.3-.9-.3-.4-.6-.8-.8-1.3-.2-.5-.3-1.1-.3-1.7 0-.6.1-1.1.3-1.7zm1.6 2.7c.1.3.2.6.4.9.2.3.4.5.7.6s.6.2 1 .2.7-.1 1-.2c.3-.2.5-.4.7-.6.2-.3.3-.6.4-.9s.1-.7.1-1c0-.4 0-.7-.1-1s-.2-.6-.4-.9c-.2-.3-.4-.5-.7-.6-.3-.2-.6-.2-1-.2s-.7.1-1 .2c-.3.2-.5.4-.7.6-.2.3-.3.6-.4.9s-.1.7-.1 1c0 .4 0 .7.1 1zM22 36.4v.8c.2-.3.5-.6.8-.7.3-.2.7-.2 1-.2.4 0 .8.1 1.1.2s.5.3.7.5.3.5.3.8c.1.3.1.6.1 1v3.6h-1.6v-3.3c0-.5-.1-.9-.2-1.1s-.4-.4-.8-.4-.8.1-1 .4c-.2.3-.3.7-.3 1.3v3.1h-1.6v-5.9H22zM28.7 34.1v8.2H27v-8.2h1.7zM31.9 44c-.3.2-.7.3-1.3.3h-1V43h1c.2 0 .4-.1.5-.3s.2-.3.2-.5c0-.1 0-.3-.1-.4L29 36.4h1.7l1.3 4 1.3-4H35L32.6 43c-.1.5-.4.8-.7 1zM37.8 37.5v-1.1h1v-.5c0-.5.2-1 .5-1.3.3-.3.8-.5 1.5-.5h.8v1.2H41c-.2 0-.4.1-.5.2-.1.1-.1.3-.1.5v.4h1.1v1.1h-1.1v4.8h-1.6v-4.8h-1zM42 38c.1-.4.4-.7.6-1 .3-.3.6-.5 1-.6s.8-.2 1.3-.2.9.1 1.3.2.7.4 1 .6c.3.3.5.6.6 1 .1.4.2.8.2 1.3s-.1.9-.2 1.3-.4.7-.6 1c-.3.3-.6.5-1 .6-.4.1-.8.2-1.3.2s-.9-.1-1.3-.2-.7-.4-1-.6c-.3-.3-.5-.6-.6-1-.1-.4-.2-.8-.2-1.3s.1-.9.2-1.3zm1.5 2c0 .2.1.4.2.6.1.2.3.3.4.4s.4.2.7.2c.3 0 .5-.1.7-.2.2-.1.3-.2.4-.4.1-.2.2-.4.2-.6 0-.2.1-.5.1-.7s0-.5-.1-.7c0-.2-.1-.4-.2-.6-.1-.2-.3-.3-.4-.4-.2-.1-.4-.2-.7-.2-.3 0-.5.1-.7.2s-.3.3-.4.4-.2.4-.2.6c0 .2-.1.5-.1.7s0 .5.1.7zM50.3 36.4v1.1c.1-.2.2-.4.3-.5.1-.2.3-.3.4-.4.2-.1.3-.2.5-.3.2-.1.4-.1.6-.1.1 0 .2 0 .4.1v1.5h-.6c-.3 0-.5 0-.8.1-.2.1-.4.2-.5.4l-.3.6c-.1.2-.1.5-.1.7v2.7h-1.6v-5.9h1.7zM60.1 34.1l3.1 8.2h-1.9l-.6-1.8h-3.1l-.6 1.8h-1.8l3.1-8.2h1.8zm.1 5l-1-3-1.1 3h2.1zM67.2 34.1c.5 0 1 .1 1.5.3s.8.4 1.2.8c.3.3.6.8.8 1.3.2.5.3 1.1.3 1.8 0 .6-.1 1.1-.2 1.6-.2.5-.4.9-.7 1.3-.3.4-.7.7-1.2.9s-1 .3-1.6.3h-3.5v-8.2h3.4zm-.1 6.7c.3 0 .5 0 .8-.1.2-.1.5-.2.7-.4.2-.2.3-.4.5-.8.1-.3.2-.7.2-1.1 0-.4 0-.8-.1-1.1-.1-.3-.2-.6-.4-.9s-.4-.4-.7-.5c-.3-.1-.7-.2-1.1-.2h-1.3v5.1h1.4zM76 34.1l3.1 8.2h-1.9l-.6-1.8h-3.1l-.6 1.8h-1.8l3.1-8.2H76zm.1 5l-1-3-1.1 3h2.1zM85 34.1l1.9 5.6 1.8-5.6h2.5v8.2h-1.7v-5.8l-2 5.8h-1.4l-2-5.7v5.7h-1.7v-8.2H85zM94.2 40.9c.2.2.6.4 1.1.4.3 0 .6-.1.8-.2s.4-.3.4-.5H98c-.2.7-.6 1.2-1.1 1.5s-1 .5-1.7.5c-.5 0-.9-.1-1.3-.2s-.7-.4-.9-.6-.5-.6-.6-1c-.1-.4-.2-.8-.2-1.3 0-.4.1-.9.2-1.2.1-.4.4-.7.6-1 .3-.3.6-.5 1-.7.4-.2.8-.2 1.2-.2.5 0 .9.1 1.3.3s.7.5.9.8c.2.3.4.7.5 1.1.1.4.1.9.1 1.3h-4.3c.1.3.3.7.5 1zm1.8-3.1c-.2-.2-.5-.3-.9-.3-.3 0-.5 0-.6.1-.2.1-.3.2-.4.3-.1.1-.2.3-.2.4s-.1.3-.1.4h2.6c0-.4-.2-.7-.4-.9zM100.4 36.4v.8c.2-.3.5-.5.8-.7.3-.2.6-.3 1-.3s.7.1 1 .2c.3.1.5.4.7.8.2-.3.4-.5.7-.7.3-.2.7-.3 1.1-.3.3 0 .6 0 .9.1s.5.2.7.4c.2.2.3.4.4.7s.2.6.2 1v4h-1.6V39v-.6c0-.2-.1-.3-.1-.5l-.3-.3c-.1-.1-.3-.1-.5-.1s-.4 0-.6.1c-.1.1-.3.2-.3.3-.1.1-.1.3-.2.5v3.8h-1.6V39v-.5c0-.2 0-.3-.1-.5-.1-.1-.2-.3-.3-.3-.1-.1-.3-.1-.6-.1-.1 0-.2 0-.3.1s-.2.1-.4.2c-.1.1-.2.2-.3.4-.1.2-.1.4-.1.7v3.4H99v-5.9h1.4zM110.6 34.1v3c.2-.3.5-.5.8-.7.3-.1.7-.2 1.1-.2.3 0 .6.1.9.2.3.1.6.3.8.6.2.3.4.6.6 1s.2.9.2 1.4c0 .5-.1 1-.2 1.4-.1.4-.3.7-.6 1-.2.3-.5.4-.8.6-.3.1-.6.2-.9.2-.4 0-.8-.1-1.2-.2-.3-.1-.6-.4-.8-.7v.8H109v-8.2h1.6zm2.6 4.5c-.1-.2-.1-.4-.3-.6-.1-.2-.3-.3-.4-.4-.2-.1-.4-.2-.6-.2-.2 0-.4.1-.6.2-.2.1-.3.2-.4.4l-.3.6c-.1.2-.1.5-.1.7 0 .2 0 .5.1.7.1.2.1.4.3.6.1.2.3.3.4.4.2.1.4.2.6.2.2 0 .5-.1.6-.2.2-.1.3-.2.4-.4l.3-.6c.1-.2.1-.5.1-.7 0-.2 0-.5-.1-.7zM117.5 40.9c.2.2.6.4 1.1.4.3 0 .6-.1.8-.2s.4-.3.4-.5h1.4c-.2.7-.6 1.2-1.1 1.5s-1 .5-1.7.5c-.5 0-.9-.1-1.3-.2s-.7-.4-.9-.6-.5-.6-.6-1c-.1-.4-.2-.8-.2-1.3 0-.4.1-.9.2-1.2.1-.4.4-.7.6-1 .3-.3.6-.5 1-.7.4-.2.8-.2 1.2-.2.5 0 .9.1 1.3.3s.7.5.9.8c.2.3.4.7.5 1.1.1.4.1.9.1 1.3h-4.3c.2.3.3.7.6 1zm1.8-3.1c-.2-.2-.5-.3-.9-.3-.3 0-.5 0-.6.1-.2.1-.3.2-.4.3-.1.1-.2.3-.2.4s-.1.3-.1.4h2.6c-.1-.4-.2-.7-.4-.9zM123.6 36.4v1.1c.1-.2.2-.4.3-.5.1-.2.3-.3.4-.4.2-.1.3-.2.5-.3.2-.1.4-.1.6-.1.1 0 .2 0 .4.1v1.5h-.6c-.3 0-.5 0-.8.1-.2.1-.4.2-.5.4l-.3.6c-.1.2-.1.5-.1.7v2.7h-1.6v-5.9h1.7zM127.7 40.8l.3.3c.1.1.2.1.4.2.1 0 .3.1.5.1h.4c.1 0 .2-.1.3-.1.1-.1.2-.1.3-.2.1-.1.1-.2.1-.4s-.2-.4-.5-.5-.8-.2-1.4-.4c-.2-.1-.5-.1-.7-.2l-.6-.3c-.2-.1-.3-.3-.4-.4-.1-.2-.2-.4-.2-.7 0-.4.1-.7.2-.9.1-.2.3-.4.6-.6.2-.1.5-.2.8-.3.3-.1.6-.1.9-.1s.6 0 .9.1c.3.1.6.2.8.3.2.1.4.3.6.6s.2.5.3.9h-1.5c0-.3-.1-.5-.4-.6-.2-.1-.5-.2-.8-.2h-.3c-.1 0-.2 0-.3.1-.1 0-.2.1-.2.2s-.1.2-.1.3c0 .1.1.3.2.4.1.1.2.2.4.2.2.1.4.1.6.2s.4.1.7.1c.2.1.5.1.7.2l.6.3c.2.1.3.3.4.5.1.2.2.4.2.7 0 .4-.1.7-.2 1-.2.3-.4.5-.6.6-.3.2-.5.3-.9.3-.3.1-.7.1-1 .1-.3 0-.7 0-1-.1l-.9-.3c-.3-.2-.5-.4-.6-.6-.2-.3-.3-.6-.3-1h1.5c0-.1.1.1.2.2z"/></g></svg>