<svg id="Layer_1" xmlns="http://www.w3.org/2000/svg" viewBox="0 0 160 600"><style>.st0{fill:#373535}</style><path class="st0" d="M47 181.6l5.3 14.3H49l-1.1-3.2h-5.3l-1.1 3.2h-3.2l5.4-14.3H47zm.2 8.8l-1.8-5.2-1.9 5.2h3.7zM55.8 185.6v1.4h.1c.4-.6.8-1 1.4-1.3.6-.3 1.2-.4 1.8-.4.8 0 1.4.1 1.9.3.5.2.9.5 1.1.9.3.4.5.8.6 1.3s.2 1.1.2 1.8v6.4H60v-5.8c0-.9-.1-1.5-.4-1.9-.3-.4-.7-.6-1.4-.6-.8 0-1.3.2-1.7.7s-.5 1.2-.5 2.3v5.4h-2.8v-10.3h2.6zM72.1 194.6c-.3.6-.8 1-1.3 1.2-.5.2-1.1.4-1.8.4-.8 0-1.5-.1-2-.4-.6-.3-1.1-.7-1.5-1.2-.4-.5-.7-1.1-.9-1.8-.2-.7-.3-1.4-.3-2.1 0-.7.1-1.4.3-2 .2-.6.5-1.2.9-1.7s.9-.9 1.4-1.2c.6-.3 1.2-.5 2-.5.6 0 1.2.1 1.8.4.6.3 1 .6 1.3 1.1v-5.2h2.8v14.3h-2.7v-1.3zm-.1-5.1c-.1-.4-.2-.7-.4-1-.2-.3-.4-.5-.8-.7-.3-.2-.7-.3-1.2-.3s-.9.1-1.2.3c-.3.2-.6.4-.8.7s-.3.7-.4 1c-.1.4-.1.8-.1 1.2 0 .4 0 .8.1 1.2.1.4.2.8.4 1.1.2.3.5.6.8.8.3.2.7.3 1.1.3.5 0 .9-.1 1.2-.3.3-.2.6-.4.8-.8.2-.3.3-.7.4-1.1s.1-.8.1-1.2c.1-.4.1-.8 0-1.2zM91.1 195.9l-1.8-6.9-1.8 6.9h-2.9l-3.3-10.3h3l1.9 7 1.7-7h2.8l1.8 7 1.9-7h2.9L94 195.9h-2.9zM98.4 184v-2.3h2.8v2.3h-2.8zm2.8 1.6v10.3h-2.8v-10.3h2.8zM108.9 185.6v1.9h-2.1v5.1c0 .5.1.8.2 1 .2.2.5.2 1 .2h.5c.1 0 .3 0 .4-.1v2.2c-.2 0-.5.1-.8.1h-.9c-.4 0-.9 0-1.2-.1-.4-.1-.7-.2-1-.3-.3-.2-.5-.4-.7-.7-.2-.3-.3-.7-.3-1.3v-6.1h-1.7v-1.9h1.7v-3.1h2.8v3.1h2.1zM113 181.6v5.4h.1c.4-.6.8-1 1.4-1.3.6-.3 1.1-.4 1.6-.4.8 0 1.4.1 1.9.3.5.2.9.5 1.1.9.3.4.5.8.6 1.3.1.5.2 1.1.2 1.8v6.4H117v-5.8c0-.9-.1-1.5-.4-1.9s-.7-.6-1.4-.6c-.8 0-1.3.2-1.7.7-.3.5-.5 1.2-.5 2.3v5.4h-2.8v-14.3h2.8z"/><g><path class="st0" d="M26.6 210.5c0-.7.2-1.2.5-1.7.3-.4.7-.8 1.1-1.1.5-.3 1-.5 1.5-.6.6-.1 1.1-.2 1.7-.2.5 0 1 0 1.6.1s1 .2 1.5.4c.4.2.8.5 1.1.9.3.4.4.9.4 1.5v5.4c0 .5 0 .9.1 1.3s.1.7.3 1h-2.9c-.1-.2-.1-.3-.1-.5s-.1-.3-.1-.5c-.5.5-1 .8-1.6 1s-1.2.3-1.9.3c-.5 0-1-.1-1.4-.2s-.8-.3-1.1-.6c-.3-.3-.6-.6-.8-1-.2-.4-.3-.8-.3-1.4 0-.6.1-1.1.3-1.5.2-.4.5-.7.8-.9.3-.2.7-.4 1.1-.5s.8-.2 1.3-.3c.4-.1.8-.1 1.3-.2.4 0 .8-.1 1.1-.2.3-.1.6-.2.8-.4.2-.2.3-.4.3-.7 0-.3 0-.6-.1-.7-.1-.2-.2-.3-.4-.4-.2-.1-.4-.2-.6-.2-.2 0-.5-.1-.7-.1-.6 0-1 .1-1.3.4-.3.2-.5.6-.6 1.2h-2.9zm6.5 2.1c-.1.1-.3.2-.5.2-.2.1-.4.1-.6.1-.2 0-.4.1-.7.1-.2 0-.5.1-.7.1-.2 0-.4.1-.6.2s-.4.2-.5.3c-.2.1-.3.3-.4.4-.1.2-.1.4-.1.7 0 .3 0 .5.1.6.1.2.2.3.4.4s.3.2.6.2c.2 0 .4.1.7.1.6 0 1-.1 1.3-.3.3-.2.5-.4.7-.7.1-.3.2-.5.3-.8v-1.6zM40.7 207.3v1.4h.1c.4-.6.8-1 1.4-1.3.6-.3 1.2-.4 1.8-.4.8 0 1.4.1 1.9.3.5.2.9.5 1.1.9.3.4.5.8.6 1.3s.2 1.1.2 1.8v6.4H45v-5.8c0-.9-.1-1.5-.4-1.9-.3-.4-.7-.6-1.4-.6-.8 0-1.3.2-1.7.7s-.5 1.2-.5 2.3v5.4h-3v-10.3h2.7zM62.5 203.3l5.3 14.3h-3.3l-1.1-3.2h-5.3l-1.1 3.2h-3.2l5.4-14.3h3.3zm.1 8.8l-1.8-5.2-1.9 5.2h3.7zM78.5 211.5v2.1h-4v4h-2.1v-4h-4v-2.1h4v-4h2.1v4h4zM88.4 207.3v1.9c.1-.3.3-.6.5-.9.2-.3.5-.5.8-.7.3-.2.6-.3.9-.5.3-.1.7-.2 1-.2.2 0 .4 0 .6.1v2.6c-.1 0-.3-.1-.5-.1h-.5c-.5 0-1 .1-1.3.3-.4.2-.7.4-.9.7-.2.3-.4.6-.5 1-.1.4-.1.8-.1 1.3v4.7h-2.8v-10.3h2.8zM93.2 210.5c0-.7.2-1.2.5-1.7s.7-.8 1.1-1.1 1-.5 1.5-.6c.6-.1 1.1-.2 1.7-.2.5 0 1 0 1.6.1.5.1 1 .2 1.5.4.4.2.8.5 1.1.9.3.4.4.9.4 1.5v5.4c0 .5 0 .9.1 1.3s.1.7.3 1h-2.9c-.1-.2-.1-.3-.1-.5s-.1-.3-.1-.5c-.5.5-1 .8-1.6 1s-1.2.3-1.9.3c-.5 0-1-.1-1.4-.2s-.8-.3-1.1-.6c-.3-.3-.6-.6-.8-1s-.3-.8-.3-1.4c0-.6.1-1.1.3-1.5.2-.4.5-.7.8-.9.3-.2.7-.4 1.1-.5s.8-.2 1.3-.3c.4-.1.8-.1 1.3-.2.4 0 .8-.1 1.1-.2.3-.1.6-.2.8-.4s.3-.4.3-.7c0-.3 0-.6-.1-.7-.1-.2-.2-.3-.4-.4-.2-.1-.4-.2-.6-.2-.2 0-.5-.1-.7-.1-.6 0-1 .1-1.3.4-.3.2-.5.6-.6 1.2h-2.9zm6.6 2.1c-.1.1-.3.2-.4.2-.2.1-.4.1-.6.1-.2 0-.4.1-.7.1-.2 0-.5.1-.7.1-.2 0-.4.1-.6.2-.2.1-.4.2-.5.3l-.4.4c-.1.2-.1.4-.1.7 0 .3 0 .5.1.6.1.2.2.3.4.4s.3.2.6.2c.2 0 .4.1.7.1.6 0 1-.1 1.3-.3.3-.2.5-.4.7-.7.1-.3.2-.5.3-.8s0-.5 0-.6v-1zM110.3 207.3v1.9h-2.1v5.1c0 .5.1.8.2 1 .2.2.5.2 1 .2h.5c.1 0 .3 0 .4-.1v2.2c-.2 0-.5.1-.8.1h-.9c-.4 0-.9 0-1.2-.1-.4-.1-.7-.2-1-.3-.3-.2-.5-.4-.7-.7-.2-.3-.3-.7-.3-1.3v-6.1h-1.7v-1.9h1.7v-3.1h2.8v3.1h2.1zM114.5 215.1c.4.4 1 .6 1.8.6.6 0 1.1-.1 1.5-.4.4-.3.7-.6.8-.9h2.5c-.4 1.2-1 2.1-1.8 2.7-.8.5-1.8.8-3 .8-.8 0-1.5-.1-2.2-.4-.7-.3-1.2-.6-1.7-1.1-.5-.5-.8-1.1-1-1.7-.2-.7-.4-1.4-.4-2.2 0-.8.1-1.5.4-2.2s.6-1.2 1.1-1.7 1-.9 1.7-1.2c.6-.3 1.4-.4 2.2-.4.9 0 1.6.2 2.3.5.7.3 1.2.8 1.6 1.4.4.6.7 1.2.9 2s.3 1.5.2 2.3h-7.5c0 .9.2 1.5.6 1.9zm3.3-5.4c-.3-.4-.9-.6-1.5-.6-.5 0-.8.1-1.1.2-.3.2-.5.3-.7.6-.2.2-.3.5-.4.7-.1.3-.1.5-.1.7h4.6c-.3-.7-.5-1.2-.8-1.6zM130.1 216.3c-.3.6-.8 1-1.3 1.2s-1.2.4-1.8.4c-.8 0-1.5-.1-2-.4-.6-.3-1.1-.7-1.5-1.2-.4-.5-.7-1.1-.9-1.8-.2-.7-.3-1.4-.3-2.1 0-.7.1-1.4.3-2 .2-.6.5-1.2.9-1.7s.9-.9 1.4-1.2c.6-.3 1.2-.5 2-.5.6 0 1.2.1 1.8.4.6.3 1 .6 1.3 1.1v-5.2h2.8v14.3h-2.7v-1.3zm-.1-5.1c-.1-.4-.2-.7-.4-1-.2-.3-.4-.5-.8-.7-.3-.2-.7-.3-1.2-.3s-.9.1-1.2.3c-.3.2-.6.4-.8.7-.2.3-.3.7-.4 1-.1.4-.1.8-.1 1.2 0 .4 0 .8.1 1.2.1.4.2.8.5 1.1.2.3.5.6.8.8s.7.3 1.1.3c.5 0 .9-.1 1.2-.3.3-.2.6-.4.8-.8.2-.3.3-.7.4-1.1s.1-.8.1-1.2c0-.4 0-.8-.1-1.2z"/></g><g><path class="st0" d="M34.8 227.4V225h2.8v2.3h-2.8zm2.8 1.6v10.3h-2.8V229h2.8zM42.4 229v1.4h.1c.4-.6.8-1 1.4-1.3.6-.3 1.2-.4 1.8-.4.8 0 1.4.1 1.9.3.5.2.9.5 1.1.9.3.4.5.8.6 1.3s.2 1.1.2 1.8v6.4h-2.8v-5.8c0-.9-.1-1.5-.4-1.9-.3-.4-.7-.6-1.4-.6-.8 0-1.3.2-1.7.7s-.5 1.2-.5 2.3v5.4h-2.8V229h2.5zM53.8 236.7c.1.2.3.4.5.5.2.1.4.2.7.3.3.1.5.1.8.1.2 0 .4 0 .6-.1.2 0 .4-.1.6-.2.2-.1.3-.2.5-.4.1-.2.2-.4.2-.6 0-.4-.3-.7-.8-1-.6-.2-1.4-.4-2.4-.6l-1.2-.3c-.4-.1-.7-.3-1.1-.5-.3-.2-.6-.5-.7-.8-.2-.3-.3-.7-.3-1.1 0-.7.1-1.2.4-1.6.3-.4.6-.8 1-1 .4-.2.9-.4 1.4-.5.5-.1 1.1-.1 1.6-.1s1.1.1 1.6.2 1 .3 1.4.5.8.6 1 1c.3.4.4 1 .5 1.6h-2.7c0-.5-.2-.9-.6-1.1-.4-.2-.8-.3-1.3-.3H55c-.2 0-.4.1-.5.1-.2.1-.3.2-.4.3-.1.1-.2.3-.2.5 0 .3.1.5.3.6.2.2.4.3.7.4.3.1.6.2 1 .3l1.2.3 1.2.3c.4.1.7.3 1.1.5.3.2.6.5.7.8s.3.7.3 1.2c0 .7-.1 1.2-.4 1.7-.3.5-.6.8-1.1 1.1s-.9.5-1.5.6c-.6.1-1.1.2-1.7.2-.6 0-1.2-.1-1.8-.2-.6-.1-1.1-.3-1.5-.6s-.8-.6-1.1-1.1-.4-1-.5-1.7h2.7c.1.3.1.5.3.7zM68.9 239.3v-1.4h-.1c-.4.6-.8 1-1.4 1.3-.6.3-1.2.4-1.8.4-.8 0-1.4-.1-1.9-.3-.5-.2-.9-.5-1.2-.9-.3-.4-.5-.8-.6-1.3-.1-.5-.2-1.1-.2-1.8V229h2.8v5.8c0 .9.1 1.5.4 1.9s.7.6 1.4.6c.8 0 1.3-.2 1.7-.7s.5-1.2.5-2.3V229h2.8v10.3h-2.4zM76.3 229v1.9c.1-.3.3-.6.5-.9.2-.3.5-.5.8-.7.3-.2.6-.3.9-.5.3-.1.7-.2 1-.2.2 0 .4 0 .6.1v2.6c-.1 0-.3-.1-.5-.1h-.5c-.5 0-1 .1-1.3.3-.4.2-.7.4-.9.7-.2.3-.4.6-.5 1-.1.4-.1.8-.1 1.3v4.7h-2.8V229h2.8zM81.1 232.2c0-.7.2-1.2.5-1.7s.7-.8 1.1-1.1 1-.5 1.5-.6c.6-.1 1.1-.2 1.7-.2.5 0 1 0 1.6.1.5.1 1 .2 1.5.4.4.2.8.5 1.1.9.3.4.4.9.4 1.5v5.4c0 .5 0 .9.1 1.3s.1.7.3 1H88c-.1-.2-.1-.3-.1-.5s-.1-.3-.1-.5c-.5.5-1 .8-1.6 1s-1.2.3-1.9.3c-.5 0-1-.1-1.4-.2s-.8-.3-1.1-.6c-.3-.3-.6-.6-.8-1s-.3-.8-.3-1.4c0-.6.1-1.1.3-1.5.2-.4.5-.7.8-.9.3-.2.7-.4 1.1-.5s.8-.2 1.3-.3c.4-.1.8-.1 1.3-.2.4 0 .8-.1 1.1-.2.3-.1.6-.2.8-.4s.3-.4.3-.7c0-.3 0-.6-.1-.7-.1-.2-.2-.3-.4-.4-.2-.1-.4-.2-.6-.2-.2 0-.5-.1-.7-.1-.6 0-1 .1-1.3.4-.3.2-.5.6-.6 1.2h-2.9zm6.5 2.1c-.1.1-.3.2-.4.2-.2.1-.4.1-.6.1-.2 0-.4.1-.7.1-.2 0-.5.1-.7.1-.2 0-.4.1-.6.2-.2.1-.4.2-.5.3l-.4.4c-.1.2-.1.4-.1.7 0 .3 0 .5.1.6.1.2.2.3.4.4s.3.2.6.2c.2 0 .4.1.7.1.6 0 1-.1 1.3-.3.3-.2.5-.4.7-.7.1-.3.2-.5.3-.8s0-.5 0-.6v-1zM95.2 229v1.4h.1c.4-.6.8-1 1.4-1.3.6-.3 1.2-.4 1.8-.4.8 0 1.4.1 1.9.3.5.2.9.5 1.1.9.3.4.5.8.6 1.3.1.5.2 1.1.2 1.8v6.4h-2.8v-5.8c0-.9-.1-1.5-.4-1.9s-.7-.6-1.4-.6c-.8 0-1.3.2-1.7.7-.3.5-.5 1.2-.5 2.3v5.4h-2.8V229h2.5zM109.1 230.8c-.5 0-.8.1-1.1.3-.3.2-.6.5-.8.8-.2.3-.3.7-.4 1.1-.1.4-.1.8-.1 1.2 0 .4 0 .8.1 1.1s.2.7.4 1c.2.3.4.6.7.8.3.2.7.3 1.1.3.7 0 1.2-.2 1.6-.6.4-.4.6-.9.7-1.5h2.7c-.2 1.4-.7 2.4-1.6 3.1-.9.7-2 1.1-3.4 1.1-.8 0-1.5-.1-2.1-.4-.6-.3-1.2-.6-1.6-1.1-.5-.5-.8-1-1.1-1.7-.3-.6-.4-1.4-.4-2.1 0-.8.1-1.5.4-2.2.2-.7.6-1.3 1-1.8s1-.9 1.7-1.2c.7-.3 1.4-.4 2.2-.4.6 0 1.2.1 1.8.2.6.2 1.1.4 1.5.7.4.3.8.7 1.1 1.2.3.5.4 1.1.5 1.7h-2.8c-.2-1-.9-1.6-2.1-1.6zM118.5 236.8c.4.4 1 .6 1.8.6.6 0 1.1-.1 1.5-.4.4-.3.7-.6.8-.9h2.5c-.4 1.2-1 2.1-1.8 2.7-.8.5-1.8.8-3 .8-.8 0-1.5-.1-2.2-.4-.7-.3-1.2-.6-1.7-1.1-.5-.5-.8-1.1-1-1.7-.2-.7-.4-1.4-.4-2.2 0-.8.1-1.5.4-2.2s.6-1.2 1.1-1.7 1-.9 1.7-1.2c.6-.3 1.4-.4 2.2-.4.9 0 1.6.2 2.3.5.7.3 1.2.8 1.6 1.4.4.6.7 1.2.9 2s.3 1.5.2 2.3h-7.5c0 .9.2 1.5.6 1.9zm3.2-5.4c-.3-.4-.9-.6-1.5-.6-.5 0-.8.1-1.1.2-.3.2-.5.3-.7.6-.2.2-.3.5-.4.7-.1.3-.1.5-.1.7h4.6c-.2-.7-.4-1.2-.8-1.6z"/></g><g><path class="st0" d="M40.5 252.5c-.5 0-.8.1-1.1.3-.3.2-.6.5-.8.8-.2.3-.3.7-.4 1.1-.1.4-.1.8-.1 1.2 0 .4 0 .8.1 1.1.1.4.2.7.4 1 .2.3.4.6.7.8.3.2.7.3 1.1.3.7 0 1.2-.2 1.6-.6.4-.4.6-.9.7-1.5h2.7c-.2 1.4-.7 2.4-1.6 3.1-.9.7-2 1.1-3.4 1.1-.8 0-1.5-.1-2.1-.4-.6-.3-1.2-.6-1.6-1.1-.5-.5-.8-1-1.1-1.7-.3-.6-.4-1.4-.4-2.1 0-.8.1-1.5.4-2.2.2-.7.6-1.3 1-1.8.5-.5 1-.9 1.7-1.2.7-.3 1.4-.4 2.2-.4.6 0 1.2.1 1.8.2.6.2 1.1.4 1.5.7.4.3.8.7 1.1 1.2.3.5.4 1.1.5 1.7h-2.8c-.2-1-.9-1.6-2.1-1.6zM46.9 253.6c.3-.7.6-1.2 1.1-1.7.5-.5 1-.8 1.7-1.1.7-.3 1.4-.4 2.2-.4.8 0 1.5.1 2.2.4.7.3 1.2.6 1.7 1.1s.8 1 1.1 1.7c.3.7.4 1.4.4 2.2 0 .8-.1 1.6-.4 2.2-.3.7-.6 1.2-1.1 1.7-.5.5-1 .8-1.7 1.1-.7.3-1.4.4-2.2.4-.8 0-1.5-.1-2.2-.4-.7-.3-1.2-.6-1.7-1.1-.5-.5-.8-1-1.1-1.7-.3-.7-.4-1.4-.4-2.2 0-.8.2-1.5.4-2.2zm2.6 3.5c.1.4.2.7.4 1.1.2.3.5.6.8.8.3.2.7.3 1.2.3s.9-.1 1.2-.3c.3-.2.6-.4.8-.8.2-.3.3-.7.4-1.1.1-.4.1-.8.1-1.2 0-.4 0-.8-.1-1.2s-.2-.8-.4-1.1-.5-.6-.8-.8c-.3-.2-.7-.3-1.2-.3s-.9.1-1.2.3c-.3.2-.6.4-.8.8s-.3.7-.4 1.1c-.1.4-.1.8-.1 1.2 0 .4 0 .8.1 1.2zM61.6 250.7v1.4c.4-.5.8-.9 1.4-1.2.5-.3 1.1-.4 1.8-.4s1.2.1 1.8.4c.5.3.9.7 1.2 1.3.3-.5.7-.9 1.2-1.2.5-.3 1.1-.5 1.9-.5.5 0 1.1.1 1.5.2s.9.3 1.2.6c.3.3.6.7.8 1.1.2.5.3 1 .3 1.7v6.9h-2.8v-5.9-1c0-.3-.1-.6-.2-.8-.1-.2-.3-.4-.5-.5-.2-.1-.6-.2-1-.2s-.7.1-1 .2l-.6.6c-.2.2-.2.5-.3.8 0 .3-.1.6-.1 1v5.8h-2.8v-5.8-.9c0-.3-.1-.6-.2-.8-.1-.3-.3-.5-.5-.6-.2-.2-.6-.2-1-.2-.1 0-.3 0-.5.1l-.6.3c-.2.2-.4.4-.5.7-.1.3-.2.7-.2 1.2v6H59v-10.3h2.6zM79.5 250.7v1.3c.3-.6.8-1 1.3-1.2.5-.3 1.1-.4 1.8-.4.8 0 1.5.2 2.1.5.6.3 1.1.7 1.5 1.2s.7 1.1.9 1.8c.2.7.3 1.4.3 2.1 0 .7-.1 1.4-.3 2-.2.6-.5 1.2-.9 1.7s-.9.9-1.4 1.2c-.6.3-1.2.4-2 .4-.6 0-1.2-.1-1.8-.4-.5-.3-1-.6-1.3-1.1v4.9h-2.8v-14h2.6zm3.7 8.2c.3-.2.6-.4.8-.7.2-.3.3-.6.4-1s.1-.8.1-1.2c0-.4 0-.8-.1-1.2s-.2-.8-.4-1.1c-.2-.3-.5-.6-.8-.8s-.7-.3-1.1-.3c-.5 0-.9.1-1.2.3-.3.2-.6.4-.8.8s-.3.7-.4 1.1c-.1.4-.1.8-.1 1.2 0 .4 0 .8.1 1.2.1.4.2.8.4 1 .2.3.5.5.8.7.3.2.7.3 1.2.3.4 0 .8-.1 1.1-.3zM88.7 253.9c0-.7.2-1.2.5-1.7s.7-.8 1.1-1.1 1-.5 1.5-.6c.6-.1 1.1-.2 1.7-.2.5 0 1 0 1.6.1.5.1 1 .2 1.5.4.4.2.8.5 1.1.9.3.4.4.9.4 1.5v5.4c0 .5 0 .9.1 1.3s.1.7.3 1h-2.9c-.1-.2-.1-.3-.1-.5s-.1-.3-.1-.5c-.5.5-1 .8-1.6 1s-1.2.3-1.9.3c-.5 0-1-.1-1.4-.2s-.8-.3-1.1-.6c-.3-.3-.6-.6-.8-1s-.3-.8-.3-1.4c0-.6.1-1.1.3-1.5.2-.4.5-.7.8-.9.3-.2.7-.4 1.1-.5s.8-.2 1.3-.3c.4-.1.8-.1 1.3-.2.4 0 .8-.1 1.1-.2.3-.1.6-.2.8-.4s.3-.4.3-.7c0-.3 0-.6-.1-.7-.1-.2-.2-.3-.4-.4-.2-.1-.4-.2-.6-.2-.2 0-.5-.1-.7-.1-.6 0-1 .1-1.3.4-.3.2-.5.6-.6 1.2h-2.9zm6.6 2.1c-.1.1-.3.2-.4.2-.2.1-.4.1-.6.1-.2 0-.4.1-.7.1-.2 0-.5.1-.7.1-.2 0-.4.1-.6.2-.2.1-.4.2-.5.3l-.4.4c-.1.2-.1.4-.1.7 0 .3 0 .5.1.6.1.2.2.3.4.4s.3.2.6.2c.2 0 .4.1.7.1.6 0 1-.1 1.3-.3.3-.2.5-.4.7-.7.1-.3.2-.5.3-.8s0-.5 0-.6v-1zM102.8 250.7v1.4h.1c.4-.6.8-1 1.4-1.3.6-.3 1.2-.4 1.8-.4.8 0 1.4.1 1.9.3.5.2.9.5 1.1.9.3.4.5.8.6 1.3.1.5.2 1.1.2 1.8v6.4H107v-5.8c0-.9-.1-1.5-.4-1.9s-.7-.6-1.4-.6c-.8 0-1.3.2-1.7.7-.3.5-.5 1.2-.5 2.3v5.4h-2.8v-10.3h2.6zM115.6 264.1c-.5.4-1.3.5-2.3.5h-.9c-.3 0-.6 0-.9-.1v-2.3c.3 0 .5.1.8.1h.8c.4 0 .7-.2.8-.4s.3-.5.3-.8c0-.2 0-.4-.1-.6l-3.6-9.7h3l2.3 7.1 2.3-7.1h2.9l-4.3 11.6c-.1.7-.5 1.3-1.1 1.7zM123.8 257.9v3.1h-3.1v-3.1h3.1z"/></g></svg>