<svg id="Layer_1" xmlns="http://www.w3.org/2000/svg" viewBox="0 0 160 600"><style>.st0{fill:#393}.st1{fill:#373535}</style><path class="st0" d="M18.3 180.6l5.3 14.3h-3.3l-1.1-3.2h-5.3l-1.1 3.2H9.6l5.4-14.3h3.3zm.1 8.8l-1.8-5.2-1.9 5.2h3.7zM38.6 192c-.1.6-.3 1.1-.6 1.6s-.8.9-1.4 1.2c-.6.3-1.5.5-2.5.5-.6 0-1.2-.1-1.7-.2-.6-.2-1.1-.4-1.5-.8-.4-.4-.8-.8-1.1-1.4-.3-.6-.4-1.2-.4-2v-1.2h2.8v.6c0 .3 0 .7.1 1 .1.3.1.5.3.8.1.2.3.4.5.5s.5.2.9.2.7-.1 1-.2c.2-.1.4-.3.5-.6s.2-.5.2-.8v-10.4h3.1v9.8c0 .3-.1.8-.2 1.4zM41.4 184.9c.3-.9.8-1.7 1.4-2.4s1.3-1.2 2.2-1.6c.9-.4 1.9-.6 2.9-.6 1.1 0 2.1.2 3 .6.9.4 1.6.9 2.2 1.6s1.1 1.5 1.4 2.4c.3.9.5 1.9.5 3 0 1-.2 2-.5 2.9-.3.9-.8 1.7-1.4 2.4s-1.3 1.2-2.2 1.6c-.9.4-1.9.6-3 .6s-2.1-.2-2.9-.6c-.9-.4-1.6-.9-2.2-1.6s-1.1-1.5-1.4-2.4c-.3-.9-.5-1.9-.5-2.9 0-1.1.2-2.1.5-3zm2.8 4.7c.1.6.4 1.1.7 1.5s.7.8 1.2 1.1c.5.3 1.1.4 1.8.4s1.3-.1 1.8-.4c.5-.3.9-.6 1.2-1.1s.5-1 .7-1.5c.1-.6.2-1.1.2-1.8 0-.6-.1-1.2-.2-1.8-.1-.6-.4-1.1-.7-1.6-.3-.5-.7-.8-1.2-1.1-.5-.3-1.1-.4-1.8-.4s-1.3.1-1.8.4c-.5.3-.9.6-1.2 1.1-.3.5-.5 1-.7 1.6-.1.6-.2 1.2-.2 1.8 0 .6.1 1.2.2 1.8zM67.6 193.8c-1.1.9-2.6 1.4-4.5 1.4s-3.4-.5-4.5-1.4c-1.1-.9-1.6-2.4-1.6-4.3v-8.9h3.1v8.9c0 .4 0 .8.1 1.1.1.4.2.7.4 1 .2.3.5.5.9.7.4.2.9.3 1.5.3 1.1 0 1.9-.2 2.3-.8.4-.5.6-1.3.6-2.4v-8.9H69v8.9c.2 2-.3 3.5-1.4 4.4zM79.6 180.6c.6 0 1.2.1 1.7.3.5.2 1 .5 1.3.9.4.4.6.8.8 1.2.2.5.3 1 .3 1.5 0 .8-.2 1.6-.5 2.2-.4.6-.9 1.1-1.7 1.4.4.1.7.3 1 .5s.5.5.6.8c.2.3.3.6.3 1s.1.7.2 1.1v.8c0 .3 0 .6.1.9 0 .3.1.6.2.9s.2.5.3.7h-3.1c-.2-.5-.3-1-.3-1.6 0-.6-.1-1.2-.2-1.8-.1-.7-.3-1.3-.7-1.6-.3-.3-.9-.5-1.7-.5H75v5.6h-3.1v-14.3h7.7zm-1.1 6.5c.7 0 1.3-.2 1.6-.5.4-.3.5-.8.5-1.6 0-.7-.2-1.2-.5-1.5-.4-.3-.9-.5-1.6-.5H75v4h3.5zM89.5 180.6l6 9.6v-9.6h2.9v14.3h-3.1l-5.9-9.6v9.6h-2.9v-14.3h3zM111.8 180.6v2.6h-7.5v3.1h6.9v2.4h-6.9v3.5h7.7v2.6h-10.8v-14.3h10.6zM112.6 180.6h3.5l3.3 5.6 3.3-5.6h3.5l-5.3 8.8v5.5h-3.1v-5.6l-5.2-8.7zM132.8 187.5c.3-.7.6-1.2 1.1-1.7s1-.8 1.7-1.1c.7-.3 1.4-.4 2.2-.4s1.6.1 2.2.4c.7.3 1.2.6 1.7 1.1s.8 1 1.1 1.7c.3.7.4 1.4.4 2.2 0 .8-.1 1.6-.4 2.2-.3.7-.6 1.2-1.1 1.7-.5.5-1 .8-1.7 1.1-.7.3-1.4.4-2.2.4s-1.5-.1-2.2-.4c-.7-.3-1.2-.6-1.7-1.1-.5-.5-.8-1-1.1-1.7-.3-.7-.4-1.4-.4-2.2 0-.8.1-1.5.4-2.2zm2.6 3.5c.1.4.2.7.4 1.1.2.3.5.6.8.8.3.2.7.3 1.2.3s.9-.1 1.2-.3c.3-.2.6-.4.8-.8.2-.3.3-.7.4-1.1.1-.4.1-.8.1-1.2 0-.4 0-.8-.1-1.2s-.2-.8-.4-1.1-.5-.6-.8-.8c-.3-.2-.7-.3-1.2-.3s-.9.1-1.2.3c-.3.2-.6.4-.8.8s-.3.7-.4 1.1-.1.8-.1 1.2c-.1.4 0 .8.1 1.2zM143.9 186.5v-1.9h1.7v-.8c0-.9.3-1.7.9-2.3.6-.6 1.4-.9 2.6-.9h1.5v2.1c-.3 0-.7-.1-1-.1-.4 0-.7.1-.8.3-.2.2-.2.5-.2.9v.6h2v1.9h-2v8.4h-2.8v-8.4h-1.9z"/><g><path class="st0" d="M15.7 209.5c0-.7.2-1.2.5-1.7.3-.4.7-.8 1.1-1.1.5-.3 1-.5 1.5-.6.6-.1 1.1-.2 1.7-.2.5 0 1 0 1.6.1s1 .2 1.5.4c.4.2.8.5 1.1.9.3.4.4.9.4 1.5v5.4c0 .5 0 .9.1 1.3s.1.7.3 1h-2.9c-.1-.2-.1-.3-.1-.5s-.1-.3-.1-.5c-.5.5-1 .8-1.6 1s-1.2.3-1.9.3c-.5 0-1-.1-1.4-.2s-.8-.3-1.1-.6c-.3-.3-.6-.6-.8-1-.2-.4-.3-.8-.3-1.4 0-.6.1-1.1.3-1.5.2-.4.5-.7.8-.9.3-.2.7-.4 1.1-.5s.8-.2 1.3-.3c.4-.1.8-.1 1.3-.2.4 0 .8-.1 1.1-.2.3-.1.6-.2.8-.4.2-.2.3-.4.3-.7 0-.3 0-.6-.1-.7-.1-.2-.2-.3-.4-.4-.2-.1-.4-.2-.6-.2-.2 0-.5-.1-.7-.1-.6 0-1 .1-1.3.4-.3.2-.5.6-.6 1.2h-2.9zm6.6 2.1c-.1.1-.3.2-.5.2-.2.1-.4.1-.6.1-.2 0-.4.1-.7.1-.2 0-.5.1-.7.1-.2 0-.4.1-.6.2s-.4.2-.5.3c-.2.1-.3.3-.4.4-.1.2-.1.4-.1.7 0 .3 0 .5.1.6.1.2.2.3.4.4s.3.2.6.2c.2 0 .4.1.7.1.6 0 1-.1 1.3-.3.3-.2.5-.4.7-.7.1-.3.2-.5.3-.8v-1.6zM32 205v-2.6h11.7v2.6h-4.3v11.6h-3.1V205H32zM48.5 202.3v5.5h5.8v-5.5h3.1v14.3h-3.1v-6.2h-5.8v6.2h-3.1v-14.3h3.1zM60.1 206.6c.3-.9.8-1.7 1.4-2.4s1.3-1.2 2.2-1.6c.9-.4 1.9-.6 2.9-.6 1.1 0 2.1.2 3 .6.9.4 1.6.9 2.2 1.6.6.7 1.1 1.5 1.4 2.4.3.9.5 1.9.5 3 0 1-.2 2-.5 2.9-.3.9-.8 1.7-1.4 2.4-.6.7-1.3 1.2-2.2 1.6-.9.4-1.9.6-3 .6s-2.1-.2-2.9-.6c-.9-.4-1.6-.9-2.2-1.6s-1.1-1.5-1.4-2.4c-.3-.9-.5-1.9-.5-2.9 0-1.1.1-2.1.5-3zm2.8 4.7c.1.6.4 1.1.7 1.5s.7.8 1.2 1.1c.5.3 1.1.4 1.8.4s1.3-.1 1.8-.4c.5-.3.9-.6 1.2-1.1.3-.5.5-1 .7-1.5.1-.6.2-1.1.2-1.8 0-.6-.1-1.2-.2-1.8-.1-.6-.4-1.1-.7-1.6-.3-.5-.7-.8-1.2-1.1-.5-.3-1.1-.4-1.8-.4s-1.3.1-1.8.4c-.5.3-.9.6-1.2 1.1-.3.5-.5 1-.7 1.6-.1.6-.2 1.2-.2 1.8 0 .6.1 1.2.2 1.8zM86.3 215.5c-1.1.9-2.6 1.4-4.5 1.4s-3.4-.5-4.5-1.4c-1.1-.9-1.6-2.4-1.6-4.3v-8.9h3.1v8.9c0 .4 0 .8.1 1.1.1.4.2.7.4 1 .2.3.5.5.9.7.4.2.9.3 1.5.3 1.1 0 1.9-.2 2.3-.8s.6-1.3.6-2.4v-8.9h3.1v8.9c.2 2-.4 3.5-1.4 4.4zM93 213.1c.2.3.4.6.7.8.3.2.6.4 1 .5.4.1.8.1 1.2.1.3 0 .6 0 .9-.1s.6-.1.9-.3c.3-.1.5-.3.7-.6.2-.2.3-.5.3-.9s-.1-.7-.4-.9c-.2-.2-.6-.4-1-.6-.4-.2-.9-.3-1.4-.4-.5-.1-1-.3-1.5-.4-.5-.1-1.1-.3-1.6-.5s-1-.4-1.4-.8c-.4-.3-.7-.7-1-1.1-.2-.5-.4-1-.4-1.7s.2-1.4.5-1.9.7-1 1.2-1.4 1.1-.6 1.7-.8 1.3-.3 1.9-.3c.7 0 1.5.1 2.2.2.7.2 1.3.4 1.8.8s1 .9 1.3 1.4.5 1.3.5 2.1h-3c0-.4-.1-.8-.3-1.1-.2-.3-.4-.5-.6-.7-.3-.2-.5-.3-.9-.3-.3-.1-.7-.1-1.1-.1-.3 0-.5 0-.8.1-.3.1-.5.1-.7.3s-.4.3-.5.5c-.1.2-.2.5-.2.8 0 .3.1.5.2.7.1.2.3.3.6.5.3.1.7.3 1.3.4.6.1 1.3.3 2.2.6.3.1.6.1 1.1.3.5.1.9.4 1.4.7.5.3.9.7 1.2 1.2s.5 1.2.5 2c0 .7-.1 1.3-.4 1.8-.3.6-.6 1-1.1 1.4-.5.4-1.1.7-1.9 1s-1.6.3-2.6.3c-.8 0-1.5-.1-2.3-.3-.7-.2-1.4-.5-2-.9-.6-.4-1-.9-1.3-1.6s-.5-1.4-.5-2.3h3c.3.8.4 1.2.6 1.5zM110.7 202.3l5.3 14.3h-3.3l-1.1-3.2h-5.3l-1.1 3.2H102l5.4-14.3h3.3zm.2 8.8l-1.8-5.2-1.9 5.2h3.7zM120.4 202.3l6 9.6v-9.6h2.9v14.3h-3.1l-5.9-9.6v9.6h-2.9v-14.3h3zM138.2 202.3c.9 0 1.8.1 2.6.4.8.3 1.5.7 2.1 1.3.6.6 1 1.3 1.4 2.2.3.9.5 1.9.5 3.1 0 1-.1 2-.4 2.9-.3.9-.7 1.6-1.2 2.3s-1.2 1.1-2 1.5-1.8.5-2.8.5h-6.2v-14.3h6zM138 214c.5 0 .9-.1 1.3-.2s.8-.4 1.1-.7c.3-.3.6-.8.8-1.3s.3-1.2.3-2c0-.7-.1-1.4-.2-2s-.4-1.1-.7-1.5c-.3-.4-.7-.7-1.3-1-.5-.2-1.2-.3-2-.3h-2.2v9h2.9z"/></g><g><path class="st0" d="M46.5 234.8c.2.3.4.6.7.8.3.2.6.4 1 .5s.8.1 1.2.1c.3 0 .6 0 .9-.1.3 0 .6-.1.9-.3s.5-.3.7-.6c.2-.2.3-.5.3-.9s-.1-.7-.4-.9c-.2-.2-.6-.4-1-.6s-.9-.3-1.4-.4c-.5-.1-1-.3-1.5-.4-.5-.1-1.1-.3-1.6-.5s-1-.4-1.4-.8c-.4-.3-.7-.7-1-1.1-.2-.5-.4-1-.4-1.7s.2-1.4.5-1.9.7-1 1.2-1.4c.5-.4 1.1-.6 1.7-.8.6-.2 1.3-.3 1.9-.3.7 0 1.5.1 2.2.2.7.2 1.3.4 1.8.8s1 .9 1.3 1.4.5 1.3.5 2.1h-3c0-.4-.1-.8-.3-1.1-.2-.3-.4-.5-.6-.7-.3-.2-.5-.3-.9-.3-.3-.1-.7-.1-1.1-.1-.3 0-.5 0-.8.1-.3.1-.5.1-.7.3-.2.1-.4.3-.5.5-.1.2-.2.5-.2.8 0 .3.1.5.2.7.1.2.3.3.6.5.3.1.7.3 1.3.4.6.1 1.3.3 2.2.6.3.1.6.1 1.1.3.5.1.9.4 1.4.7s.9.7 1.2 1.2c.3.5.5 1.2.5 2 0 .7-.1 1.3-.4 1.8-.3.6-.6 1-1.1 1.4-.5.4-1.1.7-1.9 1-.7.2-1.6.3-2.6.3-.8 0-1.6-.1-2.3-.3-.7-.2-1.4-.5-2-.9-.6-.4-1-.9-1.4-1.6-.3-.6-.5-1.4-.5-2.3h3c.4.8.5 1.2.7 1.5zM61.5 224l3.3 9.8L68 224h4.4v14.3h-2.9v-10.1L66 238.3h-2.4l-3.5-10v10h-2.9V224h4.3zM78.4 224v14.3h-3.1V224h3.1zM84.3 224v11.6h7v2.6H81.1V224h3.2zM103.7 224v2.6h-7.5v3.1h6.9v2.4h-6.9v3.5h7.7v2.6H93V224h10.7zM108.3 234.8c.2.3.4.6.7.8.3.2.6.4 1 .5.4.1.8.1 1.2.1.3 0 .6 0 .9-.1s.6-.1.9-.3c.3-.1.5-.3.7-.6.2-.2.3-.5.3-.9s-.1-.7-.4-.9c-.2-.2-.6-.4-1-.6-.4-.2-.9-.3-1.4-.4-.5-.1-1-.3-1.5-.4-.5-.1-1.1-.3-1.6-.5s-1-.4-1.4-.8c-.4-.3-.7-.7-1-1.1-.2-.5-.4-1-.4-1.7s.2-1.4.5-1.9.7-1 1.2-1.4 1.1-.6 1.7-.8 1.3-.3 1.9-.3c.7 0 1.5.1 2.2.2.7.2 1.3.4 1.8.8s1 .9 1.3 1.4.5 1.3.5 2.1h-3c0-.4-.1-.8-.3-1.1-.2-.3-.4-.5-.6-.7-.3-.2-.5-.3-.9-.3-.3-.1-.7-.1-1.1-.1-.3 0-.5 0-.8.1-.3.1-.5.1-.7.3s-.4.3-.5.5c-.1.2-.2.5-.2.8 0 .3.1.5.2.7.1.2.3.3.6.5.3.1.7.3 1.3.4.6.1 1.3.3 2.2.6.3.1.6.1 1.1.3.5.1.9.4 1.4.7.5.3.9.7 1.2 1.2s.5 1.2.5 2c0 .7-.1 1.3-.4 1.8-.3.6-.6 1-1.1 1.4-.5.4-1.1.7-1.9 1s-1.6.3-2.6.3c-.8 0-1.5-.1-2.3-.3-.7-.2-1.4-.5-2-.9-.6-.4-1-.9-1.3-1.6s-.5-1.4-.5-2.3h3c.4.8.5 1.2.6 1.5z"/></g><g><path class="st1" d="M20.7 245.7v5.2c.3-.5.8-.9 1.4-1.2.6-.2 1.2-.4 1.9-.4.5 0 1 .1 1.5.3s1 .5 1.4 1 .7 1 1 1.7c.3.7.4 1.5.4 2.4 0 .9-.1 1.8-.4 2.5-.3.7-.6 1.2-1 1.7s-.9.8-1.4 1c-.5.2-1 .3-1.5.3-.8 0-1.4-.1-2-.4-.6-.2-1.1-.6-1.4-1.2v1.3h-2.7v-14.3h2.8zm4.6 7.9c-.1-.4-.2-.8-.4-1.1-.2-.3-.5-.5-.8-.7-.3-.2-.7-.3-1.1-.3-.4 0-.8.1-1.1.3-.3.2-.6.4-.8.7-.2.3-.3.7-.4 1.1s-.1.8-.1 1.3c0 .4 0 .8.1 1.2s.2.8.4 1.1c.2.3.5.5.8.7.3.2.7.3 1.1.3.4 0 .8-.1 1.1-.3.3-.2.5-.4.8-.7.2-.3.3-.7.4-1.1s.1-.8.1-1.2c.1-.5 0-.9-.1-1.3zM33.2 257.5c.4.4 1 .6 1.8.6.6 0 1.1-.1 1.5-.4.4-.3.7-.6.8-.9h2.5c-.4 1.2-1 2.1-1.8 2.7-.8.5-1.8.8-3 .8-.8 0-1.5-.1-2.2-.4-.7-.3-1.2-.6-1.7-1.1-.5-.5-.8-1.1-1-1.7-.2-.7-.4-1.4-.4-2.2 0-.8.1-1.5.4-2.2.3-.7.6-1.2 1.1-1.7.5-.5 1-.9 1.7-1.2.6-.3 1.4-.4 2.1-.4.9 0 1.6.2 2.3.5.7.3 1.2.8 1.6 1.4.4.6.7 1.2.9 2 .2.7.3 1.5.2 2.3h-7.5c0 .9.2 1.5.7 1.9zm3.2-5.4c-.3-.4-.9-.6-1.6-.6-.5 0-.8.1-1.1.2-.3.2-.5.3-.7.6-.2.2-.3.5-.4.7-.1.3-.1.5-.1.7h4.6c-.2-.7-.4-1.2-.7-1.6zM51.4 260.8c-.1.5-.4 1-.7 1.5-.4.5-.9.9-1.6 1.2-.7.3-1.7.5-2.8.5-.5 0-1-.1-1.6-.2-.5-.1-1-.3-1.4-.6-.4-.3-.8-.6-1.1-1s-.4-.9-.5-1.5h2.8c.1.5.4.9.8 1.1.4.2.8.3 1.3.3.8 0 1.4-.2 1.8-.7s.5-1.1.5-1.8v-1.4c-.3.5-.7.9-1.3 1.2-.6.3-1.2.4-1.8.4-.8 0-1.4-.1-2-.4-.6-.3-1-.6-1.4-1.1-.4-.5-.6-1-.8-1.7-.2-.6-.2-1.3-.2-2s.1-1.3.3-1.9c.2-.6.5-1.2.9-1.6.4-.5.8-.9 1.4-1.1.6-.3 1.2-.4 1.9-.4s1.3.1 1.8.4c.5.3.9.7 1.3 1.3v-1.4h2.7v9.7c-.2.2-.2.6-.3 1.2zm-3.9-3.5c.3-.2.6-.4.8-.6.2-.3.3-.6.4-.9s.1-.7.1-1.1c0-.4 0-.8-.1-1.2-.1-.4-.2-.7-.4-1-.2-.3-.4-.5-.7-.7-.3-.2-.7-.3-1.2-.3-.4 0-.7.1-1 .2-.3.2-.5.4-.7.7s-.3.6-.4.9c-.1.4-.1.7-.1 1.1 0 .4 0 .7.1 1.1.1.4.2.7.4 1 .2.3.4.5.7.7.3.2.7.3 1.1.3.3.1.7 0 1-.2zM53.9 248.1v-2.3h2.8v2.3h-2.8zm2.8 1.6V260h-2.8v-10.3h2.8zM61.7 249.7v1.4h.1c.4-.6.8-1 1.4-1.3.6-.3 1.2-.4 1.8-.4.8 0 1.4.1 1.9.3.5.2.9.5 1.1.9.3.4.5.8.6 1.3s.2 1.1.2 1.8v6.4H66v-5.8c0-.9-.1-1.5-.4-1.9-.3-.4-.7-.6-1.4-.6-.8 0-1.3.2-1.7.7s-.5 1.2-.5 2.3v5.4h-3v-10.3h2.7zM73.2 257.4c.1.2.3.4.5.5.2.1.4.2.7.3.3.1.5.1.8.1.2 0 .4 0 .6-.1.2 0 .4-.1.6-.2.2-.1.3-.2.4-.4.1-.2.2-.4.2-.6 0-.4-.3-.7-.9-1s-1.4-.4-2.4-.6l-1.2-.3c-.4-.1-.7-.3-1-.5-.3-.2-.6-.5-.7-.8-.2-.3-.3-.7-.3-1.1 0-.7.1-1.2.4-1.6s.6-.8 1-1c.4-.2.9-.4 1.4-.5.5-.1 1.1-.1 1.6-.1.6 0 1.1.1 1.6.2s1 .3 1.4.5c.4.3.8.6 1 1s.4 1 .5 1.6h-2.7c0-.5-.2-.9-.6-1.1-.4-.2-.8-.3-1.3-.3h-.5c-.2 0-.4.1-.5.1-.2.1-.3.2-.4.3-.1.1-.2.3-.2.5 0 .3.1.5.3.6.2.2.4.3.7.4s.6.2 1 .3l1.2.3 1.2.3c.4.1.7.3 1 .5.3.2.6.5.7.8s.3.7.3 1.2c0 .7-.1 1.2-.4 1.7s-.6.8-1.1 1.1c-.4.3-.9.5-1.5.6-.6.1-1.1.2-1.7.2-.6 0-1.2-.1-1.8-.2s-1.1-.3-1.5-.6c-.4-.3-.8-.6-1.1-1.1s-.4-1-.5-1.7h3c0 .3.1.5.2.7zM96 260l-1.8-6.9-1.8 6.9h-2.9l-3.3-10.3h3l1.9 7 1.7-7h2.8l1.8 7 1.9-7h2.9L99 260h-3zM103.5 248.1v-2.3h2.8v2.3h-2.8zm2.8 1.6V260h-2.8v-10.3h2.8zM114.3 249.7v1.9h-2.1v5.1c0 .5.1.8.2 1 .2.2.5.2 1 .2h.5c.1 0 .3 0 .4-.1v2.2c-.2 0-.5.1-.8.1h-.9c-.4 0-.9 0-1.2-.1-.4-.1-.7-.2-1-.3-.3-.2-.5-.4-.7-.7-.2-.3-.3-.7-.3-1.3v-6.1h-1.7v-1.9h1.7v-3.1h2.8v3.1h2.1zM118.5 245.7v5.4h.1c.4-.6.8-1 1.4-1.3.6-.3 1.1-.4 1.6-.4.8 0 1.4.1 1.9.3.5.2.9.5 1.1.9.3.4.5.8.6 1.3.1.5.2 1.1.2 1.8v6.4h-2.8v-5.8c0-.9-.1-1.5-.4-1.9s-.7-.6-1.4-.6c-.8 0-1.3.2-1.7.7-.3.5-.5 1.2-.5 2.3v5.4h-2.8v-14.3h2.7zM132.9 252.9c0-.7.2-1.2.5-1.7s.7-.8 1.1-1.1 1-.5 1.5-.6c.6-.1 1.1-.2 1.7-.2.5 0 1 0 1.6.1.5.1 1 .2 1.5.4.4.2.8.5 1.1.9.3.4.4.9.4 1.5v5.4c0 .5 0 .9.1 1.3s.1.7.3 1h-2.9c-.1-.2-.1-.3-.1-.5s-.1-.3-.1-.5c-.5.5-1 .8-1.6 1s-1.2.3-1.9.3c-.5 0-1-.1-1.4-.2s-.8-.3-1.1-.6c-.3-.3-.6-.6-.8-1s-.3-.8-.3-1.4c0-.6.1-1.1.3-1.5.2-.4.5-.7.8-.9.3-.2.7-.4 1.1-.5s.8-.2 1.3-.3c.4-.1.8-.1 1.3-.2.4 0 .8-.1 1.1-.2.3-.1.6-.2.8-.4s.3-.4.3-.7c0-.3 0-.6-.1-.7-.1-.2-.2-.3-.4-.4-.2-.1-.4-.2-.6-.2-.2 0-.5-.1-.7-.1-.6 0-1 .1-1.3.4-.3.2-.5.6-.6 1.2h-2.9zm6.6 2.1c-.1.1-.3.2-.4.2-.2.1-.4.1-.6.1-.2 0-.4.1-.7.1-.2 0-.5.1-.7.1-.2 0-.4.1-.6.2-.2.1-.4.2-.5.3l-.4.4c-.1.2-.1.4-.1.7 0 .3 0 .5.1.6.1.2.2.3.4.4s.3.2.6.2c.2 0 .4.1.7.1.6 0 1-.1 1.3-.3.3-.2.5-.4.7-.7.1-.3.2-.5.3-.8s0-.5 0-.6v-1z"/></g><g><path class="st1" d="M26.8 279.1c.1.2.3.4.5.5.2.1.4.2.7.3.3.1.5.1.8.1.2 0 .4 0 .6-.1.2 0 .4-.1.6-.2.2-.1.3-.2.5-.4.1-.2.2-.4.2-.6 0-.4-.3-.7-.8-1-.6-.2-1.4-.4-2.4-.6l-1.2-.3c-.4-.1-.7-.3-1.1-.5-.3-.2-.6-.5-.7-.8-.2-.3-.3-.7-.3-1.1 0-.7.1-1.2.4-1.6.3-.4.6-.8 1-1 .4-.2.9-.4 1.4-.5.5-.1 1.1-.1 1.6-.1s1.1.1 1.6.2 1 .3 1.4.5.8.6 1 1c.3.4.4 1 .5 1.6h-2.7c0-.5-.2-.9-.6-1.1-.4-.2-.8-.3-1.3-.3H28c-.2 0-.4.1-.5.1-.2.1-.3.2-.4.3-.1.1-.2.3-.2.5 0 .3.1.5.3.6.2.2.4.3.7.4.3.1.6.2 1 .3l1.2.3 1.2.3c.4.1.7.3 1.1.5.3.2.6.5.7.8s.3.7.3 1.2c0 .7-.1 1.2-.4 1.7-.3.5-.6.8-1.1 1.1s-.9.5-1.5.6c-.6.1-1.1.2-1.7.2-.6 0-1.2-.1-1.8-.2-.6-.1-1.1-.3-1.5-.6s-.8-.6-1.1-1.1-.4-1-.5-1.7h2.7c.1.3.1.5.3.7zM35.2 269.8v-2.3H38v2.3h-2.8zm2.8 1.6v10.3h-2.8v-10.3H38zM43 271.4v1.4c.4-.6.8-1 1.4-1.3.6-.3 1.2-.4 1.8-.4.8 0 1.4.1 1.9.3.5.2.9.5 1.1.9.3.4.5.8.6 1.3s.2 1.1.2 1.8v6.4h-2.8V276c0-.9-.1-1.5-.4-1.9-.3-.4-.7-.6-1.4-.6-.8 0-1.3.2-1.7.7s-.5 1.2-.5 2.3v5.4h-2.8v-10.3H43zM61.9 282.5c-.1.5-.4 1-.7 1.5-.4.5-.9.9-1.6 1.2-.7.3-1.7.5-2.8.5-.5 0-1-.1-1.6-.2-.5-.1-1-.3-1.4-.6-.4-.3-.8-.6-1.1-1s-.4-.9-.5-1.5H55c.1.5.4.9.8 1.1.4.2.8.3 1.3.3.8 0 1.4-.2 1.8-.7s.5-1.1.5-1.8v-1.4c-.3.5-.7.9-1.3 1.2-.6.3-1.2.4-1.8.4-.8 0-1.4-.1-2-.4-.6-.3-1-.6-1.4-1.1-.4-.5-.6-1-.8-1.7-.2-.6-.2-1.3-.2-2s.1-1.3.3-1.9c.2-.6.5-1.2.9-1.6.4-.5.8-.9 1.4-1.1.6-.3 1.2-.4 1.9-.4s1.3.1 1.8.4c.5.3.9.7 1.3 1.3v-1.4h2.7v9.7c-.1.2-.2.6-.3 1.2zM58 279c.3-.2.6-.4.8-.6.2-.3.3-.6.4-.9s.1-.7.1-1.1c0-.4 0-.8-.1-1.2-.1-.4-.2-.7-.4-1-.2-.3-.4-.5-.7-.7-.3-.2-.7-.3-1.2-.3-.4 0-.7.1-1 .2-.3.2-.5.4-.7.7s-.3.6-.4.9c-.1.4-.1.7-.1 1.1 0 .4 0 .7.1 1.1.1.4.2.7.4 1 .2.3.4.5.7.7.3.2.7.3 1.1.3.4.1.7 0 1-.2zM67.3 267.4v14.3h-2.8v-14.3h2.8zM72.6 279.2c.4.4 1 .6 1.8.6.6 0 1.1-.1 1.5-.4.4-.3.7-.6.8-.9h2.5c-.4 1.2-1 2.1-1.8 2.7-.8.5-1.8.8-3 .8-.8 0-1.5-.1-2.2-.4-.7-.3-1.2-.6-1.7-1.1-.5-.5-.8-1.1-1-1.7-.2-.7-.4-1.4-.4-2.2 0-.8.1-1.5.4-2.2s.6-1.2 1.1-1.7 1-.9 1.7-1.2c.6-.3 1.4-.4 2.2-.4.9 0 1.6.2 2.3.5.7.3 1.2.8 1.6 1.4.4.6.7 1.2.9 2s.3 1.5.2 2.3H72c-.1.9.1 1.5.6 1.9zm3.2-5.4c-.3-.4-.9-.6-1.5-.6-.5 0-.8.1-1.1.2-.3.2-.5.3-.7.6-.2.2-.3.5-.4.7-.1.3-.1.5-.1.7h4.6c-.3-.7-.5-1.2-.8-1.6zM89.3 278.2c.2.3.4.6.7.8.3.2.6.4 1 .5.4.1.8.1 1.2.1.3 0 .6 0 .9-.1s.6-.1.9-.3c.3-.1.5-.3.7-.6.2-.2.3-.5.3-.9s-.1-.7-.4-.9c-.2-.2-.6-.4-1-.6-.4-.2-.9-.3-1.4-.4-.5-.1-1-.3-1.5-.4-.5-.1-1.1-.3-1.6-.5s-1-.4-1.4-.8c-.4-.3-.7-.7-1-1.1-.2-.5-.4-1-.4-1.7s.2-1.4.5-1.9.7-1 1.2-1.4 1.1-.6 1.7-.8 1.3-.3 1.9-.3c.7 0 1.5.1 2.2.2.7.2 1.3.4 1.8.8s1 .9 1.3 1.4.5 1.3.5 2.1h-3c0-.4-.1-.8-.3-1.1-.2-.3-.4-.5-.6-.7-.3-.2-.5-.3-.9-.3-.3-.1-.7-.1-1.1-.1-.3 0-.5 0-.8.1-.3.1-.5.1-.7.3s-.4.3-.5.5c-.1.2-.2.5-.2.8 0 .3.1.5.2.7.1.2.3.3.6.5.3.1.7.3 1.3.4.6.1 1.3.3 2.2.6.3.1.6.1 1.1.3.5.1.9.4 1.4.7.5.3.9.7 1.2 1.2s.5 1.2.5 2c0 .7-.1 1.3-.4 1.8-.3.6-.6 1-1.1 1.4-.5.4-1.1.7-1.9 1s-1.4.5-2.4.5c-.8 0-1.5-.1-2.3-.3-.7-.2-1.4-.5-2-.9-.6-.4-1-.9-1.3-1.6s-.5-1.4-.5-2.3h3c.1.6.2 1 .4 1.3zM98.7 270.1v-2.6h11.7v2.6h-4.3v11.6H103v-11.6h-4.3zM122.7 267.4v2.6h-7.5v3.1h6.9v2.4h-6.9v3.5h7.7v2.6h-10.8v-14.3h10.6zM131.5 267.4c.9 0 1.7.1 2.3.4.6.3 1.1.6 1.5 1s.7.9.9 1.5c.2.5.3 1.1.3 1.7 0 .6-.1 1.1-.3 1.7-.2.6-.5 1-.9 1.5s-.9.8-1.5 1c-.6.3-1.4.4-2.3.4h-3.3v5.1H125v-14.3h6.5zm-.9 6.8c.4 0 .7 0 1-.1l.9-.3c.3-.2.5-.4.6-.6.2-.3.2-.6.2-1.1 0-.5-.1-.8-.2-1.1-.2-.3-.4-.5-.6-.7-.3-.2-.5-.3-.9-.3s-.7-.1-1-.1h-2.4v4.3h2.4z"/></g></svg>