<svg id="Layer_1" xmlns="http://www.w3.org/2000/svg" viewBox="0 0 160 600"><style>.st0{fill:#439d51}.st1{fill:#373535}.st2{fill:none}</style><path class="st0" d="M14.8 49.6h-1.6l-.5-1.6H9.4l-.5 1.6H7.2l2.9-7.6h1.2c.4 0 .7.1.8.4.1.3 1.4 3.7 1.4 3.7H12l-1-2.6-1.2 3.2h3.3c.4 0 .7.1.8.5l.9 2.4zM29.3 49.6h-1.6l-.6-1.6h-3.3l-.5 1.6h-1.7l2.9-7.6h1.2c.4 0 .7.1.8.4.1.3 1.4 3.7 1.4 3.7h-1.5l-.9-2.6-1.2 3.2h3.3c.4 0 .7.1.8.5l.9 2.4zM15.4 42h3c2.3 0 3.5 1.2 3.5 3.8 0 1.4-.4 2.5-1.2 3.1-.7.6-1.6.7-2.7.7h-2.6V42zm2.8 6.2c1.5 0 2.1-.7 2.1-2.4s-.6-2.5-1.9-2.5h-1.5v4.9h1.3z"/><path class="st1" d="M42.2 49.5H41l-.5-5.5-1.9 5.5h-1L35.7 44l-.4 5.5h-1.1l.7-7.2h1.4l2 5.6 1.9-5.6h1.4l.6 7.2zM48.1 46.8v.4h-3.6c0 .4.1.7.3 1 .3.3.7.5 1.2.5.4 0 .9-.1 1.5-.4l.4.8c-.5.4-1.2.6-2 .6s-1.4-.3-1.9-.8c-.4-.5-.7-1.1-.7-2 0-.8.2-1.5.7-2s1.1-.8 1.8-.8 1.3.2 1.7.7.6 1.2.6 2zm-1.1-.4c0-.3-.1-.6-.2-.8-.2-.3-.5-.5-.9-.5s-.7.1-.9.4c-.2.2-.4.6-.4 1H47zM56.8 49.5h-1.2v-3c0-.6-.1-1-.2-1.2-.1-.2-.4-.3-.6-.3-.4 0-.8.1-1.2.4.1.1.1.5.1 1.2v2.8h-1.2v-2.9c0-.7-.1-1.1-.2-1.3-.1-.1-.3-.2-.6-.2-.4 0-.8.1-1.1.4v4.1h-1.2v-5.3h1v.4c.5-.4 1-.5 1.5-.5s1 .2 1.3.6c.6-.4 1.2-.6 1.8-.6.6 0 1 .2 1.3.5.3.3.4.6.5 1 0 .3.1.7.1 1.3v2.6zM63 46.8c0 .9-.3 1.6-.8 2.1s-1.2.8-2 .8c-.6 0-1.3-.1-2.1-.4v-7.6h1.2v2.8c.4-.3.9-.4 1.4-.4.7 0 1.2.2 1.7.7s.6 1.2.6 2zm-1.2 0c0-.5-.1-1-.4-1.3-.2-.3-.6-.4-.9-.4-.4 0-.7.1-1.1.4v3.1c.3.1.6.1.9.1.5 0 .9-.2 1.1-.5.2-.4.4-.8.4-1.4zM68.6 46.8v.4H65c0 .4.1.7.3 1 .3.3.7.5 1.2.5.4 0 .9-.1 1.5-.4l.4.8c-.5.4-1.2.6-2 .6s-1.4-.3-1.9-.8c-.4-.5-.7-1.1-.7-2 0-.8.2-1.5.7-2s1.1-.8 1.8-.8 1.3.2 1.7.7.6 1.2.6 2zm-1.1-.4c0-.3-.1-.6-.2-.8-.2-.3-.5-.5-.9-.5s-.7.1-.9.4c-.2.2-.4.6-.4 1h2.4zM73.1 44.2l-.3.9h-.4c-.6 0-1.2.3-1.5.8v3.6h-1.2v-5.3h1v.7c.1-.1.2-.3.5-.4.4-.3.8-.4 1.2-.4.3 0 .5 0 .7.1z"/><g><path class="st1" d="M77.5 48c0 .5-.2.9-.6 1.2-.4.3-.9.4-1.5.4-.5 0-.9-.1-1.4-.3-.3-.1-.5-.2-.6-.3l.4-.8c.5.3 1 .4 1.4.4.3 0 .5-.1.7-.2.2-.1.2-.3.2-.5s-.1-.3-.3-.5c-.1-.1-.4-.2-.8-.4s-.7-.4-.9-.5c-.3-.3-.5-.6-.5-1.1 0-.5.2-.9.5-1.1.4-.3.8-.4 1.4-.4.7 0 1.3.2 1.7.5l-.2.9c-.4-.2-.8-.4-1.2-.4-.6 0-.8.2-.8.6 0 .2.1.3.3.4.1.1.3.2.7.3.5.2.9.4 1.1.6.2.4.4.8.4 1.2zM82.7 49.5h-1.3v-7.2h1.3v7.2zM88.7 49.5h-1.2v-2.9c0-.7-.1-1.1-.2-1.3-.2-.2-.4-.2-.7-.2-.4 0-.8.1-1.2.4v4h-1.2v-5.3h1v.4c.5-.4 1-.5 1.6-.5.6 0 1 .2 1.3.5.2.2.4.5.5.9 0 .2.1.6.1 1.1v2.9zM93.5 48c0 .5-.2.9-.6 1.2-.4.3-.9.4-1.5.4-.5 0-.9-.1-1.4-.3-.3-.1-.5-.2-.6-.3l.4-.8c.5.3 1 .4 1.4.4.3 0 .5-.1.7-.2.2-.1.2-.3.2-.5s-.1-.3-.3-.5c-.1-.1-.4-.2-.8-.4s-.7-.4-.9-.5c-.3-.3-.5-.6-.5-1.1 0-.5.2-.9.5-1.1.4-.3.8-.4 1.4-.4.7 0 1.3.2 1.7.5l-.2.9c-.4-.2-.8-.4-1.2-.4-.6 0-.8.2-.8.6 0 .2.1.3.3.4.1.1.3.2.7.3.5.2.9.4 1.1.6.2.4.4.8.4 1.2zM99.2 49.5h-1v-.4c-.5.4-1 .5-1.6.5-.6 0-1-.2-1.3-.5-.2-.2-.4-.5-.5-.9 0-.2-.1-.6-.1-1.1v-2.9h1.2V47.8c0 .3.1.5.3.6.1.1.4.2.6.2.3 0 .7-.1 1.2-.4v-4h1.2v5.3zM103.9 44.2l-.3.9h-.4c-.6 0-1.2.3-1.5.8v3.6h-1.2v-5.3h1v.7c.1-.1.2-.3.5-.4.4-.3.8-.4 1.2-.4.3 0 .5 0 .7.1z"/></g><g><path class="st1" d="M108.6 49.5h-1v-.4c-.5.3-1 .5-1.6.5-.5 0-.9-.2-1.2-.5s-.5-.7-.5-1.2c0-1.2 1-1.9 3-1.9h.2v-.2c0-.3-.1-.5-.2-.7-.2-.2-.4-.2-.9-.2s-.9.1-1.4.4l-.4-.8c.1-.1.3-.2.6-.3.4-.2.9-.3 1.4-.3.7 0 1.3.2 1.6.6.2.2.3.4.4.7 0 .2.1.5.1.9v3.4zm-1.2-1.1V47h-.2c-.8 0-1.4.1-1.6.4-.1.1-.2.3-.2.5 0 .3.1.5.3.6s.4.2.7.2c.2 0 .6-.1 1-.3zM114.3 49.5h-1.2v-2.9c0-.7-.1-1.1-.2-1.3-.2-.2-.4-.2-.7-.2-.4 0-.8.1-1.2.4v4h-1.2v-5.3h1v.4c.5-.4 1-.5 1.6-.5.6 0 1 .2 1.3.5.2.2.4.5.5.9 0 .2.1.6.1 1.1v2.9zM120 49c-.1.1-.3.2-.5.3-.4.2-.9.3-1.4.3-.8 0-1.4-.3-1.9-.8s-.7-1.2-.7-2 .3-1.5.8-2.1c.5-.5 1.2-.8 2-.8.4 0 .9.1 1.2.3.3.1.4.2.5.3l-.5.7c-.4-.2-.8-.4-1.2-.4-.5 0-.9.2-1.2.6-.3.3-.4.8-.4 1.2 0 .5.1 1 .4 1.3.3.3.7.5 1.2.5.4 0 .8-.1 1.3-.4l.4 1z"/></g><g><path class="st1" d="M125.3 46.8v.4h-3.6c0 .4.1.7.3 1 .3.3.7.5 1.2.5.4 0 .9-.1 1.5-.4l.4.8c-.5.4-1.2.6-2 .6s-1.4-.3-1.9-.8c-.4-.5-.7-1.1-.7-2 0-.8.2-1.5.7-2s1.1-.8 1.8-.8 1.3.2 1.7.7c.4.5.6 1.2.6 2zm-1.1-.4c0-.3-.1-.6-.2-.8-.2-.3-.5-.5-.9-.5s-.7.1-.9.4c-.2.2-.4.6-.4 1h2.4zM134 44.5c0 .7-.2 1.2-.6 1.6-.3.3-.7.5-1.1.6-.3.1-.7.1-1.3.1h-.5v2.8h-1.2v-7.2h1.9c.6 0 1 0 1.3.1.4.1.8.3 1 .5.3.3.5.8.5 1.5zm-1.3 0c0-.4-.1-.7-.3-.9-.2-.2-.6-.3-1.3-.3h-.7v2.5h.5c.8 0 1.3-.1 1.5-.3.2-.3.3-.6.3-1zM136.5 49.5h-1.2v-7.8h1.2v7.8zM141.9 49.5h-1v-.4c-.5.3-1 .5-1.6.5-.5 0-.9-.2-1.2-.5s-.5-.7-.5-1.2c0-1.2 1-1.9 3-1.9h.2v-.2c0-.3-.1-.5-.2-.7-.2-.2-.4-.2-.9-.2s-.9.1-1.4.4l-.4-.8c.1-.1.3-.2.6-.3.4-.2.9-.3 1.4-.3.7 0 1.3.2 1.6.6.2.2.3.4.4.7 0 .2.1.5.1.9v3.4zm-1.1-1.1V47h-.2c-.8 0-1.4.1-1.6.4-.1.1-.2.3-.2.5 0 .3.1.5.3.6s.4.2.7.2c.1 0 .5-.1 1-.3zM147.7 49.5h-1.2v-2.9c0-.7-.1-1.1-.2-1.3-.2-.2-.4-.2-.7-.2-.4 0-.8.1-1.2.4v4h-1.2v-5.3h1v.4c.5-.4 1-.5 1.6-.5.6 0 1 .2 1.3.5.2.2.4.5.5.9 0 .2.1.6.1 1.1v2.9zM152.5 48c0 .5-.2.9-.6 1.2-.4.3-.9.4-1.5.4-.5 0-.9-.1-1.4-.3-.3-.1-.5-.2-.6-.3l.4-.8c.5.3 1 .4 1.4.4.3 0 .5-.1.7-.2.2-.1.2-.3.2-.5s-.1-.3-.3-.5c-.1-.1-.4-.2-.8-.4s-.7-.4-.9-.5c-.3-.3-.5-.6-.5-1.1 0-.5.2-.9.5-1.1.4-.3.8-.4 1.4-.4.7 0 1.3.2 1.7.5l-.4.8c-.4-.2-.8-.4-1.2-.4-.6 0-.8.2-.8.6 0 .2.1.3.3.4.1.1.3.2.7.3.5.2.9.4 1.1.6.5.5.6.9.6 1.3z"/></g><path class="st0" d="M30.4 49.6c-.5 0-.9-.4-.9-.9s.4-.9.9-.9.9.4.9.9-.4.9-.9.9m0-1.6c-.4 0-.7.3-.7.7 0 .4.3.7.7.7.4 0 .7-.3.7-.7-.1-.4-.4-.7-.7-.7m.2 1.2l-.1-.2c-.1-.1-.1-.1-.2-.1v.4h-.2v-.9h.2c.1 0 .2 0 .3.1.1.1.1.1.1.2s0 .2-.2.2l.1.1.1.3h-.1zm-.2-.8h-.2v.2h.2c.1 0 .1 0 0-.2.1.1.1 0 0 0"/><path class="st2" d="M7.2 40.5h145.6v10H7.2z"/></svg>