<svg id="Layer_1" xmlns="http://www.w3.org/2000/svg" viewBox="0 0 160 600"><style>.st0{fill:#373535}</style><path class="st0" d="M18.1 181.6l5.3 14.3h-3.3l-1.1-3.2h-5.3l-1.1 3.2H9.5l5.4-14.3h3.2zm.2 8.8l-1.8-5.2-1.9 5.2h3.7zM26.9 185.6v1.4h.1c.4-.6.8-1 1.4-1.3.6-.3 1.2-.4 1.8-.4.8 0 1.4.1 1.9.3.5.2.9.5 1.1.9.3.4.5.8.6 1.3s.2 1.1.2 1.8v6.4h-3v-5.8c0-.9-.1-1.5-.4-1.9-.3-.4-.7-.6-1.4-.6-.8 0-1.3.2-1.7.7s-.5 1.2-.5 2.3v5.4h-2.8v-10.3h2.7zM43.2 194.6c-.3.6-.8 1-1.3 1.2s-1.1.4-1.8.4c-.8 0-1.5-.1-2-.4-.6-.3-1.1-.7-1.5-1.2-.4-.5-.7-1.1-.9-1.8-.2-.7-.3-1.4-.3-2.1 0-.7.1-1.4.3-2 .2-.6.5-1.2.9-1.7s.9-.9 1.4-1.2c.6-.3 1.2-.5 2-.5.6 0 1.2.1 1.8.4.6.3 1 .6 1.3 1.1v-5.2h2.8v14.3h-2.7v-1.3zm-.1-5.1c-.1-.4-.2-.7-.4-1-.2-.3-.4-.5-.8-.7-.3-.2-.7-.3-1.2-.3s-.9.1-1.2.3c-.3.2-.6.4-.8.7s-.3.7-.4 1c-.1.4-.1.8-.1 1.2 0 .4 0 .8.1 1.2.1.4.2.8.4 1.1.2.3.5.6.8.8.3.2.7.3 1.1.3.5 0 .9-.1 1.2-.3.3-.2.6-.4.8-.8.2-.3.3-.7.4-1.1.1-.4.1-.8.1-1.2.1-.4.1-.8 0-1.2zM63 196.7c-.1.5-.4 1-.7 1.5-.4.5-.9.9-1.6 1.2-.7.3-1.7.5-2.8.5-.5 0-1-.1-1.6-.2-.5-.1-1-.3-1.4-.6-.4-.3-.8-.6-1.1-1s-.4-.9-.5-1.5h2.8c.1.5.4.9.8 1.1.4.2.8.3 1.3.3.8 0 1.4-.2 1.8-.7s.5-1.1.5-1.8V194c-.3.5-.7.9-1.3 1.2-.6.3-1.2.4-1.8.4-.8 0-1.4-.1-2-.4-.6-.3-1-.6-1.4-1.1-.4-.5-.6-1-.8-1.7-.2-.6-.2-1.3-.2-2s.1-1.3.3-1.9c.2-.6.5-1.2.9-1.6.4-.5.8-.9 1.4-1.1.6-.3 1.2-.4 1.9-.4s1.3.1 1.8.4c.5.3.9.7 1.3 1.3v-1.4h2.7v9.7c-.1.3-.1.7-.3 1.3zm-3.9-3.5c.3-.2.6-.4.8-.6.2-.3.3-.6.4-.9s.1-.7.1-1.1c0-.4 0-.8-.1-1.2-.1-.4-.2-.7-.4-1-.2-.3-.4-.5-.7-.7-.3-.2-.7-.3-1.2-.3-.4 0-.7.1-1 .2-.3.2-.5.4-.7.7s-.3.6-.4.9c-.1.4-.1.7-.1 1.1 0 .4 0 .7.1 1.1.1.4.2.7.4 1 .2.3.4.5.7.7.3.2.7.3 1.1.3.4.1.7 0 1-.2zM68.3 193.4c.4.4 1 .6 1.8.6.6 0 1.1-.1 1.5-.4.4-.3.7-.6.8-.9h2.5c-.4 1.2-1 2.1-1.8 2.7-.8.5-1.8.8-3 .8-.8 0-1.5-.1-2.2-.4-.7-.3-1.2-.6-1.7-1.1-.5-.5-.8-1.1-1-1.7-.2-.7-.4-1.4-.4-2.2 0-.8.1-1.5.4-2.2.3-.7.6-1.2 1.1-1.7.5-.5 1-.9 1.7-1.2.6-.3 1.4-.4 2.2-.4.9 0 1.6.2 2.3.5.7.3 1.2.8 1.6 1.4.4.6.7 1.2.9 2 .2.7.3 1.5.2 2.3h-7.5c0 .9.2 1.5.6 1.9zm3.2-5.4c-.3-.4-.9-.6-1.5-.6-.5 0-.8.1-1.1.2-.3.2-.5.3-.7.6-.2.2-.3.5-.4.7-.1.3-.1.5-.1.7h4.6c-.2-.7-.4-1.2-.8-1.6zM82.3 185.6v1.9h-2.1v5.1c0 .5.1.8.2 1 .2.2.5.2 1 .2h.5c.1 0 .3 0 .4-.1v2.2c-.2 0-.5.1-.8.1h-.9c-.4 0-.9 0-1.2-.1-.4-.1-.7-.2-1-.3-.3-.2-.5-.4-.7-.7-.2-.3-.3-.7-.3-1.3v-6.1h-1.7v-1.9h1.7v-3.1h2.8v3.1h2.1zM96.1 199.5v-4.9c-.3.6-.8 1-1.4 1.2-.6.2-1.2.4-1.9.4-.5 0-1-.1-1.5-.3-.5-.2-1-.5-1.4-.9s-.8-1-1.1-1.7c-.3-.7-.4-1.5-.4-2.5 0-.7.1-1.4.3-2.1.2-.7.5-1.3.9-1.8s.9-.9 1.5-1.2c.6-.3 1.3-.5 2-.5.6 0 1.2.1 1.8.4.6.2 1 .7 1.3 1.2v-1.3h2.7v14h-2.8zm-4.8-7.5c.1.4.2.7.4 1.1.2.3.4.6.8.8.3.2.7.3 1.2.3s.9-.1 1.2-.3c.3-.2.6-.4.8-.7.2-.3.3-.6.4-1 .1-.4.1-.8.1-1.2 0-.4 0-.8-.1-1.2-.1-.4-.2-.8-.4-1.1-.2-.3-.4-.6-.8-.8-.3-.2-.7-.3-1.1-.3-.5 0-.9.1-1.2.3-.3.2-.6.4-.8.8-.2.3-.3.7-.4 1.1-.1.4-.1.8-.1 1.2-.1.2 0 .6 0 1zM107.8 195.9v-1.4h-.1c-.4.6-.8 1-1.4 1.3s-1.2.4-1.8.4c-.8 0-1.4-.1-1.9-.3-.5-.2-.9-.5-1.2-.9-.3-.4-.5-.8-.6-1.3-.1-.5-.2-1.1-.2-1.8v-6.4h2.8v5.8c0 .9.1 1.5.4 1.9.3.4.7.6 1.4.6.8 0 1.3-.2 1.7-.7s.5-1.2.5-2.3v-5.4h2.8v10.3h-2.4zM112.4 188.8c0-.7.2-1.2.5-1.7s.7-.8 1.1-1.1 1-.5 1.5-.6c.6-.1 1.1-.2 1.7-.2.5 0 1 0 1.6.1.5.1 1 .2 1.5.4.4.2.8.5 1.1.9.3.4.4.9.4 1.5v5.4c0 .5 0 .9.1 1.3s.1.7.3 1h-2.9c-.1-.2-.1-.3-.1-.5s-.1-.3-.1-.5c-.5.5-1 .8-1.6 1s-1.2.3-1.9.3c-.5 0-1-.1-1.4-.2s-.8-.3-1.1-.6c-.3-.3-.6-.6-.8-1s-.3-.8-.3-1.4c0-.6.1-1.1.3-1.5.2-.4.5-.7.8-.9.3-.2.7-.4 1.1-.5s.8-.2 1.3-.3c.4-.1.8-.1 1.3-.2.4 0 .8-.1 1.1-.2.3-.1.6-.2.8-.4s.3-.4.3-.7c0-.3 0-.6-.1-.7-.1-.2-.2-.3-.4-.4-.2-.1-.4-.2-.6-.2-.2 0-.5-.1-.7-.1-.6 0-1 .1-1.3.4-.3.2-.5.6-.6 1.2h-2.9zm6.6 2.1c-.1.1-.3.2-.4.2-.2.1-.4.1-.6.1-.2 0-.4.1-.7.1-.2 0-.5.1-.7.1-.2 0-.4.1-.6.2-.2.1-.4.2-.5.3l-.4.4c-.1.2-.1.4-.1.7 0 .3 0 .5.1.6.1.2.2.3.4.4s.3.2.6.2c.2 0 .4.1.7.1.6 0 1-.1 1.3-.3.3-.2.5-.4.7-.7.1-.3.2-.5.3-.8s0-.5 0-.6v-1zM126.7 181.6v14.3h-2.8v-14.3h2.8zM128.9 184v-2.3h2.8v2.3h-2.8zm2.8 1.6v10.3h-2.8v-10.3h2.8zM139.4 185.6v1.9h-2.1v5.1c0 .5.1.8.2 1 .2.2.5.2 1 .2h.5c.1 0 .3 0 .4-.1v2.2c-.2 0-.5.1-.8.1h-.9c-.4 0-.9 0-1.2-.1-.4-.1-.7-.2-1-.3-.3-.2-.5-.4-.7-.7-.2-.3-.3-.7-.3-1.3v-6.1h-1.7v-1.9h1.7v-3.1h2.8v3.1h2.1z"/><path class="st0" d="M144.4 199c-.5.4-1.3.5-2.3.5h-.9c-.3 0-.6 0-.9-.1v-2.3c.3 0 .5.1.8.1h.8c.4 0 .7-.2.8-.4s.3-.5.3-.8c0-.2 0-.4-.1-.6l-3.6-9.7h3l2.3 7.1 2.3-7.1h2.9l-4.3 11.6c-.1.7-.5 1.3-1.1 1.7z"/><g><path class="st0" d="M42.1 209.1c-.5 0-.8.1-1.1.3-.3.2-.6.5-.8.8-.2.3-.3.7-.4 1.1-.1.4-.1.8-.1 1.2 0 .4 0 .8.1 1.1.1.4.2.7.4 1 .2.3.4.6.7.8.3.2.7.3 1.1.3.7 0 1.2-.2 1.6-.6.4-.4.6-.9.7-1.5H47c-.2 1.4-.7 2.4-1.6 3.1-.9.7-2 1.1-3.4 1.1-.8 0-1.5-.1-2.1-.4-.6-.3-1.2-.6-1.6-1.1-.5-.5-.8-1-1.1-1.7-.3-.6-.4-1.4-.4-2.1 0-.8.1-1.5.4-2.2.2-.7.6-1.3 1-1.8.5-.5 1-.9 1.7-1.2.7-.3 1.4-.4 2.2-.4.6 0 1.2.1 1.8.2.6.2 1.1.4 1.5.7.4.3.8.7 1.1 1.2.3.5.4 1.1.5 1.7h-2.8c-.2-1-.9-1.6-2.1-1.6zM48.5 210.2c.3-.7.6-1.2 1.1-1.7.5-.5 1-.8 1.7-1.1.7-.3 1.4-.4 2.2-.4.8 0 1.5.1 2.2.4.7.3 1.2.6 1.7 1.1s.8 1 1.1 1.7c.3.7.4 1.4.4 2.2 0 .8-.1 1.6-.4 2.2-.3.7-.6 1.2-1.1 1.7-.5.5-1 .8-1.7 1.1-.7.3-1.4.4-2.2.4-.8 0-1.5-.1-2.2-.4-.7-.3-1.2-.6-1.7-1.1-.5-.5-.8-1-1.1-1.7-.3-.7-.4-1.4-.4-2.2.1-.8.2-1.5.4-2.2zm2.6 3.5c.1.4.2.7.4 1.1.2.3.5.6.8.8.3.2.7.3 1.2.3s.9-.1 1.2-.3c.3-.2.6-.4.8-.8.2-.3.3-.7.4-1.1.1-.4.1-.8.1-1.2 0-.4 0-.8-.1-1.2s-.2-.8-.4-1.1-.5-.6-.8-.8c-.3-.2-.7-.3-1.2-.3s-.9.1-1.2.3c-.3.2-.6.4-.8.8s-.3.7-.4 1.1c-.1.4-.1.8-.1 1.2 0 .4 0 .8.1 1.2zM63.1 217.6l-3.5-10.3h3l2.2 7.1 2.2-7.1h2.8l-3.5 10.3h-3.2zM73.8 215.1c.4.4 1 .6 1.8.6.6 0 1.1-.1 1.5-.4.4-.3.7-.6.8-.9h2.5c-.4 1.2-1 2.1-1.8 2.7-.8.5-1.8.8-3 .8-.8 0-1.5-.1-2.2-.4-.7-.3-1.2-.6-1.7-1.1-.5-.5-.8-1.1-1-1.7-.2-.7-.4-1.4-.4-2.2 0-.8.1-1.5.4-2.2s.6-1.2 1.1-1.7 1-.9 1.7-1.2c.6-.3 1.4-.4 2.2-.4.9 0 1.6.2 2.3.5.7.3 1.2.8 1.6 1.4.4.6.7 1.2.9 2s.3 1.5.2 2.3h-7.5c-.1.9.1 1.5.6 1.9zm3.2-5.4c-.3-.4-.9-.6-1.5-.6-.5 0-.8.1-1.1.2-.3.2-.5.3-.7.6-.2.2-.3.5-.4.7-.1.3-.1.5-.1.7h4.6c-.2-.7-.5-1.2-.8-1.6zM84.7 207.3v1.9c.1-.3.3-.6.5-.9.2-.3.5-.5.8-.7.3-.2.6-.3.9-.5.3-.1.7-.2 1-.2.2 0 .4 0 .6.1v2.6c-.1 0-.3-.1-.5-.1h-.5c-.5 0-1 .1-1.3.3-.4.2-.7.4-.9.7-.2.3-.4.6-.5 1-.1.4-.1.8-.1 1.3v4.7H82v-10.3h2.7zM89.5 210.5c0-.7.2-1.2.5-1.7s.7-.8 1.1-1.1 1-.5 1.5-.6c.6-.1 1.1-.2 1.7-.2.5 0 1 0 1.6.1.5.1 1 .2 1.5.4.4.2.8.5 1.1.9.3.4.4.9.4 1.5v5.4c0 .5 0 .9.1 1.3s.1.7.3 1h-2.9c-.1-.2-.1-.3-.1-.5s-.1-.3-.1-.5c-.5.5-1 .8-1.6 1s-1.2.3-1.9.3c-.5 0-1-.1-1.4-.2s-.8-.3-1.1-.6c-.3-.3-.6-.6-.8-1s-.3-.8-.3-1.4c0-.6.1-1.1.3-1.5.2-.4.5-.7.8-.9.3-.2.7-.4 1.1-.5s.8-.2 1.3-.3c.4-.1.8-.1 1.3-.2.4 0 .8-.1 1.1-.2.3-.1.6-.2.8-.4s.3-.4.3-.7c0-.3 0-.6-.1-.7-.1-.2-.2-.3-.4-.4-.2-.1-.4-.2-.6-.2-.2 0-.5-.1-.7-.1-.6 0-1 .1-1.3.4-.3.2-.5.6-.6 1.2h-2.9zm6.6 2.1c-.1.1-.3.2-.4.2-.2.1-.4.1-.6.1-.2 0-.4.1-.7.1-.2 0-.5.1-.7.1-.2 0-.4.1-.6.2-.2.1-.4.2-.5.3l-.4.4c-.1.2-.1.4-.1.7 0 .3 0 .5.1.6.1.2.2.3.4.4s.3.2.6.2c.2 0 .4.1.7.1.6 0 1-.1 1.3-.3.3-.2.5-.4.7-.7.1-.3.2-.5.3-.8s0-.5 0-.6v-1zM110.7 218.4c-.1.5-.4 1-.7 1.5-.4.5-.9.9-1.6 1.2-.7.3-1.7.5-2.8.5-.5 0-1-.1-1.5-.2s-1-.3-1.4-.6c-.4-.3-.8-.6-1.1-1s-.5-.9-.5-1.5h2.8c.1.5.4.9.8 1.1.4.2.8.3 1.3.3.8 0 1.4-.2 1.8-.7.4-.5.5-1.1.5-1.8v-1.4c-.3.5-.7.9-1.3 1.2-.6.3-1.2.4-1.8.4-.8 0-1.4-.1-2-.4-.6-.3-1-.6-1.4-1.1-.4-.5-.6-1-.8-1.7-.2-.6-.2-1.3-.2-2s.1-1.3.3-1.9c.2-.6.5-1.2.9-1.6.4-.5.8-.9 1.4-1.1.6-.3 1.2-.4 1.9-.4s1.3.1 1.8.4c.5.3.9.7 1.3 1.3v-1.4h2.7v9.7c-.2.2-.3.6-.4 1.2zm-3.9-3.5c.3-.2.6-.4.8-.6s.4-.6.5-.9.2-.7.2-1.1c0-.4 0-.8-.1-1.2-.1-.4-.2-.7-.4-1-.2-.3-.4-.5-.7-.7-.3-.2-.7-.3-1.2-.3-.4 0-.7.1-1 .2-.3.2-.5.4-.7.7-.2.3-.3.6-.4.9-.1.4-.1.7-.1 1.1 0 .4 0 .7.1 1.1.1.4.2.7.4 1 .2.3.4.5.7.7.3.2.7.3 1.1.3.1.1.5 0 .8-.2zM116 215.1c.4.4 1 .6 1.8.6.6 0 1.1-.1 1.5-.4.4-.3.7-.6.8-.9h2.5c-.4 1.2-1 2.1-1.8 2.7-.8.5-1.8.8-3 .8-.8 0-1.5-.1-2.2-.4-.7-.3-1.2-.6-1.7-1.1-.5-.5-.8-1.1-1-1.7-.2-.7-.4-1.4-.4-2.2 0-.8.1-1.5.4-2.2s.6-1.2 1.1-1.7 1-.9 1.7-1.2c.6-.3 1.4-.4 2.2-.4.9 0 1.6.2 2.3.5.7.3 1.2.8 1.6 1.4.4.6.7 1.2.9 2s.3 1.5.2 2.3h-7.5c-.1.9.2 1.5.6 1.9zm3.2-5.4c-.3-.4-.9-.6-1.5-.6-.5 0-.8.1-1.1.2-.3.2-.5.3-.7.6-.2.2-.3.5-.4.7-.1.3-.1.5-.1.7h4.6c-.2-.7-.5-1.2-.8-1.6z"/></g><g><path class="st0" d="M38.7 229v1.9h-2.1v5.1c0 .5.1.8.2 1 .2.2.5.2 1 .2h.5c.1 0 .3 0 .4-.1v2.2c-.2 0-.5.1-.8.1H37c-.4 0-.9 0-1.2-.1-.4-.1-.7-.2-1-.3-.3-.2-.5-.4-.7-.7-.2-.3-.3-.7-.3-1.3v-6.1h-1.7V229h1.7v-3.1h2.8v3.1h2.1zM42.8 225v5.4h.1c.4-.6.8-1 1.4-1.3.6-.3 1.1-.4 1.6-.4.8 0 1.4.1 1.9.3.5.2.9.5 1.1.9.3.4.5.8.6 1.3s.2 1.1.2 1.8v6.4h-2.8v-5.8c0-.9-.1-1.5-.4-1.9-.3-.4-.7-.6-1.4-.6-.8 0-1.3.2-1.7.7s-.5 1.2-.5 2.3v5.4h-2.8V225h2.7zM51.5 232.2c0-.7.2-1.2.5-1.7.3-.4.7-.8 1.1-1.1.5-.3 1-.5 1.5-.6.6-.1 1.1-.2 1.7-.2.5 0 1 0 1.6.1s1 .2 1.5.4c.4.2.8.5 1.1.9.3.4.4.9.4 1.5v5.4c0 .5 0 .9.1 1.3s.1.7.3 1h-2.9c-.1-.2-.1-.3-.1-.5s-.1-.3-.1-.5c-.5.5-1 .8-1.6 1s-1.2.3-1.9.3c-.5 0-1-.1-1.4-.2s-.8-.3-1.1-.6c-.3-.3-.6-.6-.8-1-.2-.4-.3-.8-.3-1.4 0-.6.1-1.1.3-1.5.2-.4.5-.7.8-.9.3-.2.7-.4 1.1-.5s.8-.2 1.3-.3c.4-.1.8-.1 1.3-.2.4 0 .8-.1 1.1-.2.3-.1.6-.2.8-.4.2-.2.3-.4.3-.7 0-.3 0-.6-.1-.7-.1-.2-.2-.3-.4-.4-.2-.1-.4-.2-.6-.2-.2 0-.5-.1-.7-.1-.6 0-1 .1-1.3.4-.3.2-.5.6-.6 1.2h-2.9zm6.5 2.1c-.1.1-.3.2-.5.2-.2.1-.4.1-.6.1-.2 0-.4.1-.7.1-.2 0-.5.1-.7.1-.2 0-.4.1-.6.2s-.4.2-.5.3c-.2.1-.3.3-.4.4-.1.2-.1.4-.1.7 0 .3 0 .5.1.6.1.2.2.3.4.4s.3.2.6.2c.2 0 .4.1.7.1.6 0 1-.1 1.3-.3.3-.2.5-.4.7-.7.1-.3.2-.5.3-.8v-1.6zM68.6 229v1.9h-2.1v5.1c0 .5.1.8.2 1 .2.2.5.2 1 .2h.5c.1 0 .3 0 .4-.1v2.2c-.2 0-.5.1-.8.1h-.9c-.4 0-.9 0-1.2-.1-.4-.1-.7-.2-1-.3-.3-.2-.5-.4-.7-.7-.2-.3-.3-.7-.3-1.3v-6.1H62V229h1.7v-3.1h2.8v3.1h2.1zM72.9 225v3.1c0 .4 0 .9-.2 1.2-.1.4-.3.7-.6 1-.3.3-.6.5-.9.7s-.7.3-1.1.4v-1.3c.5-.2.9-.4 1-.8.2-.3.3-.8.3-1.2H70V225h2.9zM76 236.7c.1.2.3.4.5.5.2.1.4.2.7.3.3.1.5.1.8.1.2 0 .4 0 .6-.1.2 0 .4-.1.6-.2.2-.1.3-.2.4-.4.1-.2.2-.4.2-.6 0-.4-.3-.7-.9-1s-1.4-.4-2.4-.6l-1.2-.3c-.4-.1-.7-.3-1-.5-.3-.2-.6-.5-.7-.8-.2-.3-.3-.7-.3-1.1 0-.7.1-1.2.4-1.6s.6-.8 1-1c.4-.2.9-.4 1.4-.5.5-.1 1.1-.1 1.6-.1.6 0 1.1.1 1.6.2s1 .3 1.4.5c.4.3.8.6 1 1s.4 1 .5 1.6h-2.7c0-.5-.2-.9-.6-1.1-.4-.2-.8-.3-1.3-.3h-.5c-.2 0-.4.1-.5.1-.2.1-.3.2-.4.3-.1.1-.2.3-.2.5 0 .3.1.5.3.6.2.2.4.3.7.4s.6.2 1 .3l1.2.3 1.2.3c.4.1.7.3 1 .5.3.2.6.5.7.8s.3.7.3 1.2c0 .7-.1 1.2-.4 1.7s-.6.8-1.1 1.1c-.4.3-.9.5-1.5.6-.6.1-1.1.2-1.7.2-.6 0-1.2-.1-1.8-.2s-1.1-.3-1.5-.6c-.4-.3-.8-.6-1.1-1.1s-.4-1-.5-1.7h2.7c.3.3.4.5.5.7zM89.4 232.2c0-.7.2-1.2.5-1.7s.7-.8 1.1-1.1 1-.5 1.5-.6c.6-.1 1.1-.2 1.7-.2.5 0 1 0 1.6.1.5.1 1 .2 1.5.4.4.2.8.5 1.1.9.3.4.4.9.4 1.5v5.4c0 .5 0 .9.1 1.3s.1.7.3 1h-2.9c-.1-.2-.1-.3-.1-.5s-.1-.3-.1-.5c-.5.5-1 .8-1.6 1s-1.2.3-1.9.3c-.5 0-1-.1-1.4-.2s-.8-.3-1.1-.6c-.3-.3-.6-.6-.8-1s-.3-.8-.3-1.4c0-.6.1-1.1.3-1.5.2-.4.5-.7.8-.9.3-.2.7-.4 1.1-.5s.8-.2 1.3-.3c.4-.1.8-.1 1.3-.2.4 0 .8-.1 1.1-.2.3-.1.6-.2.8-.4s.3-.4.3-.7c0-.3 0-.6-.1-.7-.1-.2-.2-.3-.4-.4-.2-.1-.4-.2-.6-.2-.2 0-.5-.1-.7-.1-.6 0-1 .1-1.3.4-.3.2-.5.6-.6 1.2h-2.9zm6.6 2.1c-.1.1-.3.2-.4.2-.2.1-.4.1-.6.1-.2 0-.4.1-.7.1-.2 0-.5.1-.7.1-.2 0-.4.1-.6.2-.2.1-.4.2-.5.3l-.4.4c-.1.2-.1.4-.1.7 0 .3 0 .5.1.6.1.2.2.3.4.4s.3.2.6.2c.2 0 .4.1.7.1.6 0 1-.1 1.3-.3.3-.2.5-.4.7-.7.1-.3.2-.5.3-.8s0-.5 0-.6v-1zM103.8 225v14.3H101V225h2.8zM108.2 236.7c.1.2.3.4.5.5.2.1.4.2.7.3.3.1.5.1.8.1.2 0 .4 0 .6-.1.2 0 .4-.1.6-.2.2-.1.3-.2.4-.4.1-.2.2-.4.2-.6 0-.4-.3-.7-.9-1s-1.4-.4-2.4-.6l-1.2-.3c-.4-.1-.7-.3-1-.5-.3-.2-.6-.5-.7-.8-.2-.3-.3-.7-.3-1.1 0-.7.1-1.2.4-1.6s.6-.8 1-1c.4-.2.9-.4 1.4-.5.5-.1 1.1-.1 1.6-.1.6 0 1.1.1 1.6.2s1 .3 1.4.5c.4.3.8.6 1 1s.4 1 .5 1.6h-2.7c0-.5-.2-.9-.6-1.1-.4-.2-.8-.3-1.3-.3h-.5c-.2 0-.4.1-.5.1-.2.1-.3.2-.4.3-.1.1-.2.3-.2.5 0 .3.1.5.3.6.2.2.4.3.7.4s.6.2 1 .3l1.2.3 1.2.3c.4.1.7.3 1 .5.3.2.6.5.7.8s.3.7.3 1.2c0 .7-.1 1.2-.4 1.7s-.6.8-1.1 1.1c-.4.3-.9.5-1.5.6-.6.1-1.1.2-1.7.2-.6 0-1.2-.1-1.8-.2s-1.1-.3-1.5-.6c-.4-.3-.8-.6-1.1-1.1s-.4-1-.5-1.7h2.7c.3.3.4.5.5.7zM116.5 231.9c.3-.7.6-1.2 1.1-1.7s1-.8 1.7-1.1c.7-.3 1.4-.4 2.2-.4s1.6.1 2.2.4c.7.3 1.2.6 1.7 1.1s.8 1 1.1 1.7c.3.7.4 1.4.4 2.2 0 .8-.1 1.6-.4 2.2-.3.7-.6 1.2-1.1 1.7-.5.5-1 .8-1.7 1.1-.7.3-1.4.4-2.2.4s-1.5-.1-2.2-.4c-.7-.3-1.2-.6-1.7-1.1-.5-.5-.8-1-1.1-1.7-.3-.7-.4-1.4-.4-2.2 0-.8.1-1.5.4-2.2zm2.5 3.5c.1.4.2.7.4 1.1.2.3.5.6.8.8.3.2.7.3 1.2.3s.9-.1 1.2-.3c.3-.2.6-.4.8-.8.2-.3.3-.7.4-1.1.1-.4.1-.8.1-1.2 0-.4 0-.8-.1-1.2s-.2-.8-.4-1.1-.5-.6-.8-.8c-.3-.2-.7-.3-1.2-.3s-.9.1-1.2.3c-.3.2-.6.4-.8.8s-.3.7-.4 1.1-.1.8-.1 1.2c0 .4.1.8.1 1.2z"/></g><path class="st0" d="M30.6 253.9c0-.7.2-1.2.5-1.7.3-.4.7-.8 1.1-1.1.5-.3 1-.5 1.5-.6.6-.1 1.1-.2 1.7-.2.5 0 1 0 1.6.1.5.1 1 .2 1.5.4.4.2.8.5 1.1.9.3.4.4.9.4 1.5v5.4c0 .5 0 .9.1 1.3s.1.7.3 1h-2.9c-.1-.2-.1-.3-.1-.5s-.1-.3-.1-.5c-.5.5-1 .8-1.6 1-.6.2-1.2.3-1.9.3-.5 0-1-.1-1.4-.2-.4-.1-.8-.3-1.1-.6-.3-.3-.6-.6-.8-1-.2-.4-.3-.8-.3-1.4 0-.6.1-1.1.3-1.4.2-.4.5-.7.8-.9.3-.2.7-.4 1.1-.5.4-.1.8-.2 1.3-.3.4-.1.8-.1 1.3-.2.4 0 .8-.1 1.1-.2.3-.1.6-.2.8-.4.2-.2.3-.4.3-.7 0-.3 0-.5-.2-.7-.1-.2-.2-.3-.4-.4-.2-.1-.4-.2-.6-.2h-.7c-.6 0-1 .1-1.3.4-.3.2-.5.6-.6 1.2h-2.8zm6.5 2.1c-.1.1-.3.2-.5.2s-.4.1-.6.1c-.2 0-.4.1-.6.1-.2 0-.5.1-.7.1-.2 0-.4.1-.6.2-.2.1-.4.2-.5.3-.2.1-.3.3-.4.4-.1.2-.1.4-.1.7 0 .3 0 .5.1.6.1.2.2.3.4.4.2.1.3.2.6.2.2 0 .4.1.7.1.6 0 1-.1 1.3-.3.3-.2.5-.4.7-.7.1-.3.2-.5.3-.8V256zm11.5-3.4h-3.2v8.4h-2.8v-8.4h-1.7v-1.9h1.7v-.8c0-.9.3-1.7.9-2.3.6-.6 1.4-.9 2.6-.9h1.5v2.1c-.3 0-.7-.1-1-.1-.4 0-.7.1-.8.3-.2.2-.2.5-.2.9v.6h3.2v-.8c0-.9.3-1.7.9-2.3.6-.6 1.4-.9 2.6-.9h1.5v2.1c-.3 0-.7-.1-1-.1-.4 0-.7.1-.8.3-.2.2-.2.5-.2.9v.6h2v1.9h-2v8.4H49v-8zm5.6 3.3c0 .8.1 1.6.4 2.2.3.7.6 1.2 1.1 1.7.5.5 1 .8 1.7 1.1.7.3 1.4.4 2.2.4.8 0 1.6-.1 2.2-.4.7-.3 1.2-.6 1.7-1.1.5-.5.8-1 1.1-1.7.3-.7.4-1.4.4-2.2 0-.8-.1-1.6-.4-2.2-.3-.7-.6-1.2-1.1-1.7-.5-.5-1-.8-1.7-1.1-.7-.3-1.4-.4-2.2-.4-.8 0-1.5.1-2.2.4-.7.3-1.2.6-1.7 1.1-.5.5-.8 1-1.1 1.7-.3.6-.4 1.3-.4 2.2zm2.8 0c0-.4 0-.8.1-1.2s.2-.8.4-1.1c.2-.3.5-.6.8-.8.3-.2.7-.3 1.2-.3s.9.1 1.2.3c.3.2.6.4.8.8.2.3.3.7.4 1.1s.1.8.1 1.2c0 .4 0 .8-.1 1.2-.1.4-.2.7-.4 1.1-.2.3-.5.6-.8.8-.3.2-.7.3-1.2.3s-.9-.1-1.2-.3c-.3-.2-.6-.4-.8-.8-.2-.3-.3-.7-.4-1.1-.1-.4-.1-.8-.1-1.2zm9.5-5.2V261h2.8v-4.7c0-.5 0-.9.1-1.3s.2-.8.5-1.1c.2-.3.5-.5.9-.7.4-.2.8-.3 1.3-.3h.5c.2 0 .3 0 .5.1v-2.6c-.2-.1-.4-.1-.6-.1-.4 0-.7.1-1 .2-.3.1-.6.3-.9.4-.3.2-.6.4-.8.7-.2.3-.4.6-.5.9v-1.9h-2.8zm14.6 9v1.3h2.7v-14.3H81v5.2c-.3-.5-.8-.9-1.3-1.2-.6-.3-1.1-.4-1.8-.4-.8 0-1.4.1-2 .4-.6.3-1.1.7-1.4 1.2-.4.5-.7 1.1-.9 1.7-.2.6-.3 1.3-.3 2s.1 1.4.3 2.1c.2.7.5 1.3.9 1.8s.9.9 1.4 1.2c.6.3 1.3.5 2 .5s1.3-.1 1.8-.4c.6-.1 1-.5 1.4-1.1zm0-3.9c0 .4 0 .8-.1 1.2-.1.4-.2.8-.4 1.1-.2.3-.4.6-.8.8-.3.2-.7.3-1.2.3-.4 0-.8-.1-1.1-.3-.3-.2-.6-.4-.8-.8-.2-.3-.4-.7-.4-1.1-.1-.4-.1-.8-.1-1.2 0-.4 0-.8.1-1.2.1-.4.2-.7.4-1 .2-.3.5-.6.8-.7.3-.2.7-.3 1.2-.3s.9.1 1.2.3c.3.2.6.4.8.7.2.3.3.6.4 1-.1.4 0 .8 0 1.2zm4.5-1.9c0-.7.2-1.2.5-1.7.3-.4.7-.8 1.1-1.1.5-.3 1-.5 1.5-.6.6-.1 1.1-.2 1.7-.2.5 0 1 0 1.6.1.5.1 1 .2 1.5.4.4.2.8.5 1.1.9s.4.9.4 1.5v5.4c0 .5 0 .9.1 1.3s.1.7.3 1h-2.9c-.1-.2-.1-.3-.1-.5s-.1-.3-.1-.5c-.5.5-1 .8-1.6 1-.6.2-1.2.3-1.9.3-.5 0-1-.1-1.4-.2-.4-.1-.8-.3-1.1-.6-.3-.3-.6-.6-.8-1-.2-.4-.3-.8-.3-1.4 0-.6.1-1.1.3-1.4.2-.4.5-.7.8-.9.3-.2.7-.4 1.1-.5.4-.1.8-.2 1.3-.3.4-.1.8-.1 1.3-.2.4 0 .8-.1 1.1-.2.3-.1.6-.2.8-.4.2-.2.3-.4.3-.7 0-.3 0-.5-.1-.7-.1-.2-.2-.3-.4-.4-.2-.1-.4-.2-.6-.2h-.7c-.6 0-1 .1-1.3.4-.3.2-.5.6-.6 1.2h-2.9zm6.6 2.1c-.1.1-.3.2-.4.2s-.4.1-.6.1c-.2 0-.4.1-.7.1-.2 0-.5.1-.7.1-.2 0-.4.1-.6.2-.2.1-.4.2-.5.3-.2.1-.3.3-.4.4-.1.2-.1.4-.1.7 0 .3 0 .5.1.6.1.2.2.3.4.4.2.1.3.2.6.2.2 0 .4.1.7.1.6 0 1-.1 1.3-.3.3-.2.5-.4.7-.7.1-.3.2-.5.3-.8V256zm4.8-9.3V261h2.7v-1.3c.3.6.8 1 1.4 1.2.6.2 1.3.4 2 .4.5 0 1-.1 1.5-.3.5-.2 1-.5 1.4-1 .4-.4.7-1 1-1.7.3-.7.4-1.5.4-2.4 0-.9-.1-1.8-.4-2.5-.3-.7-.6-1.2-1-1.7-.4-.4-.9-.8-1.4-1-.5-.2-1-.3-1.5-.3-.6 0-1.3.1-1.8.4-.6.2-1.1.6-1.4 1.2v-5.2H97zm7.6 9.2c0 .4 0 .8-.1 1.2-.1.4-.2.8-.4 1.1-.2.3-.5.5-.8.7-.3.2-.7.3-1.1.3-.4 0-.8-.1-1.1-.3-.3-.2-.6-.4-.8-.7-.2-.3-.3-.7-.4-1.1-.1-.4-.1-.8-.1-1.2 0-.4 0-.9.1-1.3s.2-.8.4-1.1c.2-.3.5-.5.8-.7.3-.2.7-.3 1.1-.3.4 0 .8.1 1.1.3.3.2.5.4.8.7.2.3.3.7.4 1.1.1.4.1.8.1 1.3zm4.5-9.2V261h2.8v-14.3h-2.8zm7.3 9.8h7.5c.1-.8 0-1.6-.2-2.3-.2-.7-.5-1.4-.9-2-.4-.6-1-1-1.6-1.4-.7-.3-1.4-.5-2.3-.5-.8 0-1.5.1-2.1.4-.6.3-1.2.7-1.7 1.2s-.8 1.1-1.1 1.7c-.3.7-.4 1.4-.4 2.2 0 .8.1 1.5.4 2.2.2.7.6 1.2 1.1 1.7.5.5 1 .8 1.7 1.1.7.3 1.4.4 2.2.4 1.2 0 2.2-.3 3-.8.8-.5 1.4-1.4 1.8-2.7h-2.5c-.1.3-.3.6-.8.9-.4.3-.9.4-1.5.4-.8 0-1.4-.2-1.8-.6-.6-.3-.8-.9-.8-1.9zm4.6-1.8h-4.6c0-.2.1-.4.1-.7.1-.3.2-.5.4-.7.2-.2.4-.4.7-.6.3-.2.7-.2 1.1-.2.7 0 1.2.2 1.6.6.3.4.5.9.7 1.6zm4.4 3.2v3.1h3.1v-3.1h-3.1z"/></svg>