<svg id="Layer_1" xmlns="http://www.w3.org/2000/svg" viewBox="0 0 160 600"><style>.st0{fill:#393}.st1{fill:#373535}</style><path class="st0" d="M37.7 181.6v11.6h7v2.6H34.5v-14.3h3.2zM57.1 181.6v2.6h-7.5v3.1h6.9v2.4h-6.9v3.5h7.7v2.6H46.4v-14.3h10.7zM66.5 181.6l5.3 14.3h-3.3l-1.1-3.2h-5.3l-1.1 3.2h-3.2l5.4-14.3h3.3zm.2 8.8l-1.8-5.2-1.9 5.2h3.7zM75.3 195.9l-4.6-14.3h3.2l3.2 10 3.2-10h3.2l-4.7 14.3h-3.5zM95.4 181.6v2.6h-7.5v3.1h6.9v2.4h-6.9v3.5h7.7v2.6H84.8v-14.3h10.6zM105.7 185.6v1.4h.1c.4-.6.8-1 1.4-1.3.6-.3 1.2-.4 1.8-.4.8 0 1.4.1 1.9.3.5.2.9.5 1.1.9.3.4.5.8.6 1.3.1.5.2 1.1.2 1.8v6.4H110v-5.8c0-.9-.1-1.5-.4-1.9s-.7-.6-1.4-.6c-.8 0-1.3.2-1.7.7-.3.5-.5 1.2-.5 2.3v5.4h-3v-10.3h2.7zM114.9 188.5c.3-.7.6-1.2 1.1-1.7s1-.8 1.7-1.1c.7-.3 1.4-.4 2.2-.4s1.6.1 2.2.4c.7.3 1.2.6 1.7 1.1s.8 1 1.1 1.7c.3.7.4 1.4.4 2.2 0 .8-.1 1.6-.4 2.2-.3.7-.6 1.2-1.1 1.7-.5.5-1 .8-1.7 1.1-.7.3-1.4.4-2.2.4s-1.5-.1-2.2-.4c-.7-.3-1.2-.6-1.7-1.1-.5-.5-.8-1-1.1-1.7-.3-.7-.4-1.4-.4-2.2 0-.8.1-1.5.4-2.2zm2.6 3.5c.1.4.2.7.4 1.1.2.3.5.6.8.8.3.2.7.3 1.2.3s.9-.1 1.2-.3c.3-.2.6-.4.8-.8.2-.3.3-.7.4-1.1.1-.4.1-.8.1-1.2 0-.4 0-.8-.1-1.2s-.2-.8-.4-1.1-.5-.6-.8-.8c-.3-.2-.7-.3-1.2-.3s-.9.1-1.2.3c-.3.2-.6.4-.8.8s-.3.7-.4 1.1-.1.8-.1 1.2c0 .4 0 .8.1 1.2z"/><g><path class="st0" d="M44.6 206v-2.6h11.7v2.6H52v11.6h-3.1V206h-4.3zM57.8 207.6c.3-.9.8-1.7 1.4-2.4s1.3-1.2 2.2-1.6c.9-.4 1.9-.6 2.9-.6 1.1 0 2.1.2 3 .6.9.4 1.6.9 2.2 1.6s1.1 1.5 1.4 2.4.5 1.9.5 3c0 1-.2 2-.5 2.9s-.8 1.7-1.4 2.4-1.3 1.2-2.2 1.6c-.9.4-1.9.6-3 .6s-2.1-.2-2.9-.6c-.9-.4-1.6-.9-2.2-1.6s-1.1-1.5-1.4-2.4c-.3-.9-.5-1.9-.5-2.9 0-1.1.2-2.1.5-3zm2.9 4.7c.1.6.4 1.1.7 1.5s.7.8 1.2 1.1c.5.3 1.1.4 1.8.4s1.3-.1 1.8-.4c.5-.3.9-.6 1.2-1.1s.5-1 .7-1.5c.1-.6.2-1.1.2-1.8 0-.6-.1-1.2-.2-1.8-.1-.6-.4-1.1-.7-1.6-.3-.5-.7-.8-1.2-1.1-.5-.3-1.1-.4-1.8-.4s-1.3.1-1.8.4c-.5.3-.9.6-1.2 1.1-.3.5-.5 1-.7 1.6-.1.6-.2 1.2-.2 1.8 0 .6 0 1.2.2 1.8zM73.4 207.6c.3-.9.8-1.7 1.4-2.4.6-.7 1.3-1.2 2.2-1.6s1.9-.6 3-.6 2.1.2 3 .6c.9.4 1.6.9 2.2 1.6.6.7 1.1 1.5 1.4 2.4.3.9.5 1.9.5 3 0 1-.2 2-.5 2.9-.3.9-.8 1.7-1.4 2.4-.6.7-1.3 1.2-2.2 1.6-.9.4-1.9.6-3 .6s-2.1-.2-3-.6-1.6-.9-2.2-1.6c-.6-.7-1.1-1.5-1.4-2.4-.3-.9-.5-1.9-.5-2.9 0-1.1.2-2.1.5-3zm2.8 4.7c.1.6.4 1.1.7 1.5.3.5.7.8 1.2 1.1.5.3 1.1.4 1.8.4s1.3-.1 1.8-.4c.5-.3.9-.6 1.2-1.1.3-.5.5-1 .7-1.5.1-.6.2-1.1.2-1.8 0-.6-.1-1.2-.2-1.8-.1-.6-.4-1.1-.7-1.6-.3-.5-.7-.8-1.2-1.1s-1.1-.4-1.8-.4-1.3.1-1.8.4c-.5.3-.9.6-1.2 1.1-.3.5-.5 1-.7 1.6-.1.6-.2 1.2-.2 1.8 0 .6.1 1.2.2 1.8zM88 206v-2.6h11.7v2.6h-4.3v11.6h-3.1V206H88zM104.4 203.3v5.5h5.8v-5.5h3.1v14.3h-3.1v-6.2h-5.8v6.2h-3.1v-14.3h3.1z"/></g><g><path class="st1" d="M27.2 239.5c-1.1.9-2.6 1.4-4.5 1.4s-3.4-.5-4.5-1.4c-1.1-.9-1.6-2.4-1.6-4.3v-8.9h3.1v8.9c0 .4 0 .8.1 1.1.1.4.2.7.4 1 .2.3.5.5.9.7.4.2.9.3 1.5.3 1.1 0 1.9-.2 2.3-.8.4-.5.6-1.3.6-2.4v-8.9h3.1v8.9c.2 2-.4 3.5-1.4 4.4zM34.6 226.3l6 9.6v-9.6h2.9v14.3h-3.1l-5.9-9.6v9.6h-2.9v-14.3h3zM53 226.3c.7 0 1.3.1 1.9.2s1 .3 1.4.6.7.6.9 1.1c.2.5.3 1 .3 1.7s-.2 1.3-.5 1.8-.8.9-1.4 1.2c.9.3 1.5.7 2 1.3.4.6.6 1.4.6 2.3 0 .7-.1 1.3-.4 1.9-.3.5-.7 1-1.1 1.3-.5.3-1 .6-1.6.7-.6.2-1.2.2-1.9.2h-6.9v-14.3H53zm-.4 5.8c.6 0 1-.1 1.4-.4s.5-.7.5-1.3c0-.3-.1-.6-.2-.8-.1-.2-.3-.4-.5-.5s-.4-.2-.7-.2c-.3 0-.5-.1-.8-.1h-2.9v3.3h3.2zm.2 6.1c.3 0 .6 0 .9-.1.3-.1.5-.2.7-.3.2-.1.4-.3.5-.6.1-.2.2-.5.2-.9 0-.7-.2-1.3-.6-1.6-.4-.3-1-.5-1.6-.5h-3.4v3.9h3.3zM68.1 226.3c.6 0 1.2.1 1.7.3.5.2 1 .5 1.3.9.4.4.6.8.8 1.2.2.5.3 1 .3 1.5 0 .8-.2 1.6-.5 2.2-.4.6-.9 1.1-1.7 1.4.4.1.7.3 1 .5.3.2.5.5.6.8.2.3.3.6.3 1s.1.7.2 1.1v.8c0 .3 0 .6.1.9 0 .3.1.6.2.9s.2.5.3.7h-3.1c-.2-.5-.3-1-.3-1.6 0-.6-.1-1.2-.2-1.8-.1-.7-.3-1.3-.7-1.6-.3-.3-.9-.5-1.7-.5h-3.1v5.6h-3.1v-14.3h7.6zm-1.1 6.5c.7 0 1.3-.2 1.6-.5.4-.3.5-.8.5-1.6 0-.7-.2-1.2-.5-1.5-.4-.3-.9-.5-1.6-.5h-3.4v4H67zM85.3 239.5c-1.1.9-2.6 1.4-4.5 1.4s-3.4-.5-4.5-1.4c-1.1-.9-1.6-2.4-1.6-4.3v-8.9h3.1v8.9c0 .4 0 .8.1 1.1.1.4.2.7.4 1 .2.3.5.5.9.7.4.2.9.3 1.5.3 1.1 0 1.9-.2 2.3-.8s.6-1.3.6-2.4v-8.9h3.1v8.9c.2 2-.3 3.5-1.4 4.4zM92 237.1c.2.3.4.6.7.8.3.2.6.4 1 .5.4.1.8.1 1.2.1.3 0 .6 0 .9-.1s.6-.1.9-.3c.3-.1.5-.3.7-.6.2-.2.3-.5.3-.9s-.1-.7-.4-.9c-.2-.2-.6-.4-1-.6-.4-.2-.9-.3-1.4-.4-.5-.1-1-.3-1.5-.4-.5-.1-1.1-.3-1.6-.5s-1-.4-1.4-.8c-.4-.3-.7-.7-1-1.1-.2-.5-.4-1-.4-1.7s.2-1.4.5-1.9.7-1 1.2-1.4 1.1-.6 1.7-.8 1.3-.3 1.9-.3c.7 0 1.5.1 2.2.2.7.2 1.3.4 1.8.8s1 .9 1.3 1.4.5 1.3.5 2.1h-3c0-.4-.1-.8-.3-1.1-.2-.3-.4-.5-.6-.7-.3-.2-.5-.3-.9-.3-.3-.1-.7-.1-1.1-.1-.3 0-.5 0-.8.1-.3.1-.5.1-.7.3s-.4.3-.5.5c-.1.2-.2.5-.2.8 0 .3.1.5.2.7.1.2.3.3.6.5.3.1.7.3 1.3.4.6.1 1.3.3 2.2.6.3.1.6.1 1.1.3.5.1.9.4 1.4.7.5.3.9.7 1.2 1.2s.5 1.2.5 2c0 .7-.1 1.3-.4 1.8-.3.6-.6 1-1.1 1.4-.5.4-1.1.7-1.9 1s-1.6.3-2.6.3c-.8 0-1.5-.1-2.3-.3-.7-.2-1.4-.5-2-.9-.6-.4-1-.9-1.3-1.6s-.5-1.4-.5-2.3h3c.4.8.5 1.2.6 1.5zM105.8 226.3v5.5h5.8v-5.5h3.1v14.3h-3.1v-6.2h-5.8v6.2h-3.1v-14.3h3.1zM128.1 226.3v2.6h-7.5v3.1h6.9v2.4h-6.9v3.5h7.7v2.6h-10.8v-14.3h10.6zM136.6 226.3c.9 0 1.8.1 2.6.4.8.3 1.5.7 2.1 1.3.6.6 1 1.3 1.4 2.2.3.9.5 1.9.5 3.1 0 1-.1 2-.4 2.9-.3.9-.7 1.6-1.2 2.3s-1.2 1.1-2 1.5-1.8.5-2.8.5h-6.2v-14.3h6zm-.3 11.7c.5 0 .9-.1 1.3-.2s.8-.4 1.1-.7c.3-.3.6-.8.8-1.3s.3-1.2.3-2c0-.7-.1-1.4-.2-2s-.4-1.1-.7-1.5c-.3-.4-.7-.7-1.3-1-.5-.2-1.2-.3-2-.3h-2.2v9h2.9z"/></g></svg>